<svg width="640" height="480" xmlns="http://www.w3.org/2000/svg" xmlns:svg="http://www.w3.org/2000/svg" xmlns:xlink="http://www.w3.org/1999/xlink">
 <!-- Sketchy ANNOTATION
  ImageNet ID: n02691156_53586
  URL: http://farm3.static.flickr.com/2121/2138317033_c7467d0d67.jpg
  Image Width: 500
  Image Height: 375
  BBox X: 0
  BBox Y: 107
  BBox Width: 500
  BBox Height: 198
  Exposure: 2000ms
  Synset Label: airplane
  Synset ID: n02691156
  Worker Tag: small private plane
  Sanity Check: 
   Saved
  Comment: 
   {}
  Worker ID: AXD2DZ7U6CK35
  Assignment ID: 3NL0RFNU0FNOOZJTFQ0JKLH86JKK4V
  HIT ID: 39AYGO6AFFK1O8AG5PGCKRN5R7HN6Z
  Work Time: 142s
  Worker Score: 0.7143
 END ANNOTATION -->
 <g display="inline">
  <title>Layer 1</title>
  <path t="0,27,42,58,73,73,90,91,106,106,106,122,122,122,139,139,139,139,156,156,156,172,172,189,189,189,206,206,206,206,222,222,222,222,239,239,239,239,256,256,257,272,272,272,289,289,289,306,306,306,322,322,322,322,339,339,339,339,356,356,356,356,372,372,372,373,389,389,389,406,406,406,422,422,422,439,439,439,439,456,456,456,456,456,472,472,472,472,472,472,489,489,489,489,506,506,506,506,506,522,522,522,522,539,539,539,556,625,633" d="m51,227c1.8,0 2.7,0 3.52083,0c0.9645,0 1.68983,0 2.67933,0c0.82067,0 1.9665,0 2.7525,0c0.822,0 1.88088,-0.01369 2.59917,0.0045c0.70997,0.01797 1.7834,0.15248 2.7535,0.34816c0.6961,0.14041 1.38195,0.3394 2.65166,0.52583c0.76749,0.11269 1.43399,0.11925 2.44434,0.12151c0.83466,0.00186 1.76533,0 2.55583,0c0.8535,0 2.04293,-0.00972 2.94733,0.0045c0.61647,0.0097 1.58433,0.05644 2.61683,0.21683c0.73423,0.11406 1.47688,0.28804 2.226,0.42601c1.0836,0.19957 2.09496,0.3069 2.73183,0.33183c0.91901,0.03596 2.12083,0.02083 2.72083,0.02083c0.9,0 2.09984,0 2.6955,0c0.8685,0 1.93852,-0.02689 2.87917,0.01067c0.67905,0.02711 1.64655,0.21248 2.472,0.41467c0.91451,0.22401 1.91863,0.42084 2.63734,0.49066c0.74017,0.07191 1.49688,0.05551 2.94933,0.25067c0.6852,0.09207 1.32732,0.27321 2.26216,0.48067c0.9015,0.20006 1.80833,0.31204 2.7405,0.342c0.64907,0.02086 1.68539,-0.00304 2.77867,0.02133c0.72426,0.01614 1.42965,0.00491 2.616,0.27333c0.75983,0.17192 1.44209,0.49088 2.45333,0.63068c0.81084,0.11209 1.63218,0.06758 2.63467,0.08665c0.9791,0.01863 1.53849,0.06718 2.936,0.28267c0.41312,0.06371 1.28519,0.22766 2.20167,0.36334c1.37452,0.20351 1.82143,0.24478 2.69099,0.2955c0.852,0.0497 1.70534,0.05396 3.01933,0.05716c0.91734,0.00223 1.38622,-0.00549 2.33334,0.02083c0.94766,0.02634 1.41994,0.0296 2.7785,0.2005c0.86742,0.10912 1.69887,0.28903 2.517,0.42601c1.20204,0.20125 2.00385,0.27931 2.8045,0.31667c0.79951,0.03729 1.59999,0.03214 2.79967,0.03616c0.79132,0.00266 1.56064,-0.00786 2.286,0.05699c1.27663,0.11415 2.03166,0.36818 2.82632,0.65884l0.85201,0.248l0.927,0.036l-0.09367,0" id="svg_1" stroke-width="2" stroke="#000" fill="none"/>
  <path t="1444,1466,1482,1482,1534,1562,1562,1585,1601,1617,1622,1639,1661,1672,1689,1706,1722,1722,1739,1739,1756,1772,1789,1789,1806,1806,1822,1822,1839,1839,1856,1856,1872,1872,1889,1889,1906,1906,1906,1922,1922,1922,1922,1939,1939,1939,1939,1956,1956,1956,1972,1972,1972,1989,1989,1989,2006,2006,2006,2022,2022,2039,2039,2056,2056,2072,2072,2089,2089,2106,2106,2106,2122,2122,2122,2122,2139,2139,2156,2156,2156,2172,2172,2172,2189,2189,2189,2206,2206,2206,2206,2222,2222,2239,2239,2239,2256,2257,2257,2275,2275,2275,2290,2290,2290,2308,2308,2321,2322,2322,2338,2338,2355,2355,2371,2388,2406,2421,2421,2438,2439,2455,2493,2517,2582" d="m51,228c-2.364,2.364 -3.00033,2.99966 -3.6,3.60001c-0.599,0.59966 -1.31496,1.38739 -1.39867,2.2c-0.09221,0.89526 0.16146,1.63805 0.646,2.25267c0.512,0.64944 0.57922,1.48981 1.23133,2.16866c0.55717,0.58002 0.96828,1.36746 1.663,1.77867c0.69749,0.41286 1.65928,0.5699 2.43683,1.09984c0.63394,0.43207 1.46469,0.78511 2.3215,1.25282c0.74533,0.40686 1.45716,0.64508 2.35717,0.64734c0.94416,0.00237 1.94617,-0.03465 2.54284,0.036c1.00981,0.11957 1.74474,0.57185 2.77867,0.8425c0.75728,0.19823 1.6785,0.121 2.42583,0.12151c0.99683,0.00067 1.83846,-0.00647 2.76216,0.16667c0.79819,0.14961 1.63487,0.45427 2.83334,0.66666c0.59768,0.10591 1.52203,0.15382 2.15717,0.21935c1.36713,0.14105 2.09141,0.298 2.822,0.44733c0.7114,0.1454 1.97565,0.40379 2.75951,0.464c0.70811,0.0544 1.68266,0.036 2.48666,0.036c0.822,0 1.85466,-0.03279 2.77467,0.02083c0.68587,0.03998 1.684,0.26317 2.5,0.47917c0.816,0.216 1.81883,0.38666 2.68933,0.52533c1.01653,0.16193 1.76364,0.55173 2.644,0.808c0.77505,0.22562 1.82383,0.16617 2.57117,0.16667c0.9955,0.00067 1.81017,-0.03067 2.79583,0.22133c0.63329,0.16191 1.56332,0.53828 2.44234,0.65717c1.00249,0.13557 1.70662,0.11513 2.38933,0.12018c1.19864,0.00887 1.94717,0.00133 3.13467,0.00133c0.786,0 1.608,0 2.66667,0c0.714,0 1.61935,-0.00616 2.58817,0.00017c0.81455,0.00533 1.68832,0.0199 2.5785,0.1665c0.90245,0.14864 1.47235,0.36163 2.31467,0.54933c1.22416,0.27278 1.91737,0.27025 2.852,0.45067c0.79307,0.15309 1.59622,0.46213 2.66667,0.66666c0.93347,0.17834 1.61936,0.15819 2.588,0.16684c0.80404,0.00719 1.64027,-0.01584 2.65717,0.22116c0.91818,0.21399 1.50524,0.57585 2.526,0.72151c0.84573,0.12068 1.81684,0.05716 2.62083,0.05716c0.82201,0 1.85301,0 2.733,0c1.02017,0 1.84052,-0.01802 2.74167,0c0.90054,0.01801 1.65509,0.55165 2.46667,0.83333c0.79922,0.27739 1.81183,0.16667 2.63199,0.16667c0.90134,0 1.80135,0 2.68051,0.02083l0.54616,0.55383" id="svg_2" stroke-width="2" stroke="#000" fill="none"/>
  <path t="3378,3462,3470,3491,3509,3522,3539,3557,3572,3589,3606,3622,3639,3639,3656,3693,3693,3701,3722,3737,3753,3770,3777,3903,3943,3962,3974,3991,4006,4022,4039,4056,4056,4081,4121,4121,4149,4157,4189,4274,4286,4295,4309,4398,4422,4502,4533,4549,4561,4562,4578,4601,4613,4633,4645,4661,4681,4697,4697,4721,4733,4749,4773,4789,4801,4817,4817,4833,4849,4869,4913,4953,5066,5089,5089,5109,5133,5174,5238,5273,5289,5321,5382,5417,5441,5441,5449,5493,5521,5521,5553,5581,5606,5634,5658,5690,5726,5762,5762,5778,5839,5871,5923,5923,5974,6018,6111,6303,6342,6378,6394,6659,6670,6680,6694,6705,6724,6724,6724,6741,6742,6742,6742,6757,6757,6774,6774,6789,6789,6789,6805,6805,6824,6839,6839,6839,6855,6855,6855,6874,6891,6891,6891,6907,6907,6907,6907,6924,6924,6924,6939,6939,6939,6957,6957,6957,6974,6974,6974,6974,6974,6991,6991,6991,7007,7007,7007,7024,7024,7024,7025,7041,7041,7042,7042,7055,7055,7055,7074,7074,7074,7091,7091,7107,7107,7107,7124,7124,7124,7124,7141,7141,7141,7155,7155,7155,7174,7174,7189,7189,7189,7205,7205,7205,7224,7225,7225,7225,7225,7241,7241,7241,7257,7258,7258,7274,7274,7274,7291,7291,7291,7307,7398" d="m155,231c-1.22133,0.87866 -1.90788,1.38507 -2.42534,1.97467c-0.55969,0.63774 -1.4138,0.90613 -2.05383,1.54616c-0.64003,0.64003 -1.14386,1.22891 -1.5,2c-0.36887,0.79866 -0.18898,1.84181 -1.02083,2.3125c-0.63844,0.36125 -1.53101,0.657 -2.19867,1.36667c-0.54225,0.57639 -1.00119,1.27203 -1.63466,1.96667c-0.54637,0.59912 -1.1031,1.19545 -1.66667,1.83333c-0.51552,0.58348 -1.35425,1.04396 -1.49867,1.80133c-0.16833,0.88277 0.18745,1.69043 0.71468,2.28267c0.53607,0.60217 0.93762,1.47643 1.5795,2.216c0.57861,0.66669 0.66446,1.46202 1.22533,2.2c0.59016,0.77652 1.25049,1.13629 1.8685,1.89999c0.60182,0.74368 1.21899,1.33885 1.57468,2.03601c0.39104,0.76645 0.76158,1.4379 1.02533,2.17465c0.29976,0.83737 -0.1718,2.03159 0.53149,2.3685c0.79338,0.3801 1.58636,0.47382 2.47917,0.85419c0.75154,0.32019 1.7,0.16666 2.60001,0.16666c0.89999,0 1.79999,0 2.7,0c0.89999,0 1.8,0 2.7,0c0.8,0 1.7,0 2.60001,0c0.89999,0 1.79999,-0.00067 2.7,0c0.89999,0.00067 1.75082,0.30087 2.39999,0.64734c0.84938,0.45334 1.8,0.35266 2.7,0.35266c0.90001,0 1.8,0 2.70001,0c0.89999,0 1.7,0 2.59999,0c0.90001,0 1.85776,0.30475 2.68933,-0.01068c0.72917,-0.27658 0.61067,-1.38931 0.61067,-2.28931c0,-0.90002 0,-1.80002 0,-2.70001c0,-0.79999 -0.33101,-1.45148 -0.83333,-2.16667c-0.48845,-0.69543 -0.16667,-1.63333 -0.16667,-2.53333c0,-0.90001 0,-1.8 0,-2.7c0,-0.90001 0,-1.8 0,-2.70001c0,-0.89999 -0.39294,-1.83035 0.08533,-2.61465c0.49007,-0.80363 0.91467,-1.38535 0.91467,-2.28534c0,-0.8 0.33101,-1.45149 0.83333,-2.16667c0.48845,-0.69543 0.47964,-1.58514 1.08267,-2.11732c0.64185,-0.56644 1.43417,-0.64296 2.05867,-1.14134c0.60796,-0.48518 1.52533,-0.57466 2.42532,-0.57466c0.90451,0 1.76668,0 2.45734,0c0.91467,0 1.78534,0 2.79333,0c0.69867,0 1.38133,0 2.57867,0c0.94933,0 1.97066,0 2.77066,0c1,0 1.80917,-0.0567 2.60001,0.08533c1.01454,0.18221 1.71271,0.6788 2.64732,0.85751c0.90472,0.17299 1.6046,0.02251 2.43933,0.14249c1.00529,0.1445 1.78621,0.43796 2.54401,0.63068c1.11049,0.28239 2.10266,0.284 2.78366,0.284c0.80701,0 1.98567,0 2.58568,0c0.89999,0 1.79999,0 2.7,0c0.89999,0 1.8,0 2.7,0c0.89549,0 1.76401,0 2.83333,0c0.72301,0 1.464,-0.00107 2.66667,0c0.752,0.00067 1.57648,-0.00203 2.424,0.036c0.82465,0.03699 1.91818,0.15942 2.77867,0.38934c0.74731,0.19968 1.71638,0.48103 2.53333,0.53867c0.86693,0.06116 1.76416,0.02296 2.6685,0.0405c0.93185,0.01807 1.58441,0.05592 2.61667,0.21683c0.72995,0.11378 1.81499,0.3663 2.50951,0.49467c1.19608,0.22108 1.9483,0.27245 2.65199,0.28267c1.00124,0.01454 1.81734,-0.00017 2.63333,0.00133c1.23134,0.00226 1.91644,-0.00769 2.85068,0.16667c0.79829,0.14899 1.6349,0.4541 2.83333,0.66666c0.59637,0.10577 1.50284,0.14035 2.39999,0.25067c0.90349,0.1111 1.79427,0.33652 2.36401,0.52667c1.07945,0.36026 1.98631,0.81587 2.6315,1.03217c0.98822,0.33128 1.84702,0.34464 2.77115,0.52383c0.79294,0.15376 1.59814,0.45227 2.66669,0.66666c0.71762,0.14398 1.46689,0.16931 2.66666,0.33334c0.75409,0.1031 1.57565,0.26054 2.42401,0.40799c0.82367,0.14316 1.90961,0.32806 2.77866,0.38934c0.73984,0.05217 1.71884,0.036 2.53333,0.036c0.8685,0 1.76419,-0.01398 2.65952,0.0045c0.8689,0.01793 1.93784,0.16217 2.64282,0.34816l0.80002,0.29468l1.01498,0.32733l0.60001,0.45067" id="svg_3" stroke-width="2" stroke="#000" fill="none"/>
  <path t="8241,8257,8257,8257,8257,8274,8274,8274,8274,8274,8291,8291,8291,8291,8291,8291,8307,8307,8307,8307,8307,8322,8322,8322,8339,8339,8339,8355,8355,8372,8372,8389,8389,8389,8405,8405,8422,8422,8422,8422,8439,8439,8439,8455,8455,8472,8472,8489,8489,8489,8505,8505,8505,8505,8522,8522,8522,8539,8539,8539,8555,8556,8572,8572,8572,8589,8589,8590,8605,8606,8622,8622,8639,8639,8639,8655,8655,8656,8672,8672,8689,8689,8705,8705,8705,8722,8722,8739,8755,8755,8772,8772,8789,8789,8789,8805,8805,8822,8822,8839,8839,8855,8855,8872,8889,8905,8905,8922,8923,8939,8939,8966,8966,8990,8998,9010,9026,9042,9042,9056,9072,9072,9089,9110,9122,9139,9155,9155,9174,9190,9190,9214,9214,9222,9302" d="m182,256c0.51067,1.19867 1.20183,1.4068 2.028,1.564c0.89128,0.16959 2.25053,0.31848 2.68933,0.35199c0.86745,0.06622 1.74467,0.09982 2.65201,0.16803c0.9648,0.07254 1.99889,0.19818 2.536,0.26865c1.09515,0.14368 1.64284,0.23117 2.72667,0.36334c1.03365,0.12607 1.99547,0.20966 2.88533,0.24799c0.82495,0.03552 1.59468,0.02966 2.661,0.03616c0.97505,0.00595 1.87317,-0.01157 2.90018,0.22119c0.69751,0.15808 1.50752,0.55527 2.32149,0.69333c0.79216,0.13437 1.8,0.08533 2.60001,0.08533c1,0 1.8,0 2.60001,0c1.00899,0 1.91432,0 3.04266,0c0.66266,0 1.35733,0 2.38933,0c0.925,0 1.92633,-0.00143 2.56534,0c1.00267,0.00226 1.81697,0.00128 2.804,0.284c0.84966,0.24335 1.76146,0.58234 2.55583,0.65884c0.85083,0.08194 2.04283,0.05716 2.64284,0.05716c0.89999,0 1.79999,0 2.7,0c0.89999,0 1.8,-0.00226 2.7,0c0.89102,0.00226 1.75066,-0.07645 2.66667,0.16666c0.86749,0.23022 1.66325,0.69122 2.59467,0.80801c0.78816,0.09885 1.82204,0.23099 2.50267,0.45065c0.84111,0.27145 1.83476,0.54205 2.63599,0.57019c1.00073,0.03516 1.62083,0.00449 2.76668,0.00449c0.786,0 1.608,0 2.66666,0c0.7095,0 1.56241,-0.02109 2.56667,0.00134c0.80055,0.01788 1.79816,0.22537 2.60001,0.49866c0.99774,0.34006 1.80457,0.44528 2.39999,0.55267c1.00885,0.18198 1.72775,0.64926 2.716,0.862c1.03052,0.22183 1.70935,0.08533 2.71735,0.08533c0.828,0 1.7095,0 2.42798,0c0.7905,0 2.052,0 2.892,0c0.96268,0 1.73068,0 2.68268,0c0.76532,0 1.75949,0 2.50684,0c1.02118,0 1.98074,0.07584 2.82382,-0.16666c0.68008,-0.19562 1.67239,-0.6445 2.45868,-0.85867c0.86563,-0.23578 1.57794,-0.5419 2.48932,-1.17334c0.60104,-0.41641 1.34149,-0.9292 1.93802,-1.44867c0.65363,-0.56918 1.45248,-0.86823 2.14734,-1.55267c0.60449,-0.59543 1.21759,-1.1828 1.89981,-1.89999c0.55774,-0.58633 0.88974,-1.39981 0.90018,-2.29999c0.01041,-0.89995 0,-1.8 0,-2.70018c0,-0.78516 0.16153,-1.7674 -0.16666,-2.73315c-0.237,-0.69742 -1.03201,-1.36667 -1.548,-1.96667l-0.33801,-0.84283l-0.74866,-0.35583" id="svg_4" stroke-width="2" stroke="#000" fill="none"/>
  <path t="10708,10730,10731,10782,10791,10807,10807,10824,10824,10824,10840,10840,10840,10840,10857,10857,10857,10857,10872,10872,10872,10872,10891,10891,10892,10905,10905,10925,10925,10925,10925,10942,10942,10942,10958,10958,10958,10976,10976,10976,10976,10993,10993,11005,11005,11025,11025,11039,11039,11039,11058,11058,11058,11058,11075,11075,11075,11090,11090,11105,11105,11105,11122,11122,11142,11142,11158,11158,11172,11172,11192,11192,11193,11208,11226,11242,11262,11282,11290,11702,11713,11724,11741,11754,11754,11771,11771,11771,11788,11788,11804,11804,11821,11822,11822,11838,11838,11838,11854,11854,11855,11871,11871,11871,11888,11889,11889,11904,11904,11905,11921,11922,11922,11938,11938,11939,11955,11955,11971,11971,11972,11988,11988,11989,12005,12005,12021,12022,12022,12022,12039,12039,12039,12055,12055,12071,12071,12088,12089,12089,12104,12105,12105,12121,12121,12139,12139,12139,12154,12155,12155,12171,12171,12188,12188,12205,12205,12221,12222,12238,12255,12255,12271,12271,12288,12288,12305,12321,12321,12338,12355,12355,12374,12394,12407,12422,12542,12543,12558,12558,12602,12626,12650,12653,12672,12694,12718,12738,12746,12762,12772,12772,12789,12805,12823,12823,12839,12839,12855,12872,12872,12890,12890,12905,12905,12905,12923,12923,12939,12939,12955,12955,12955,12972,12972,12972,12989,12989,12989,12989,13005,13005,13025,13026,13026,13039,13039,13039,13042,13043,13058,13058,13058,13059,13075,13075,13076,13089,13089,13089,13105,13105,13106,13122,13122,13139,13139,13139,13139,13140,13158,13159,13159,13172,13172,13172,13173,13189,13189,13189,13190,13208,13208,13208,13209,13209,13209,13222,13222,13222,13223,13223,13239,13239,13240,13240,13259,13259,13259,13272,13272,13318" d="m110,231c0.964,-1.28667 0.86848,-2.00775 1.00134,-3.028c0.11344,-0.87117 1.10544,-0.9178 1.813,-1.02916c0.9722,-0.15302 1.74336,-0.46416 2.35184,-0.59018c1.34619,-0.27882 2.0865,-0.29999 2.83383,-0.35266c0.74733,-0.05267 1.83951,-0.13634 2.84734,-0.35716c0.65728,-0.14401 1.30281,-0.35616 2.67383,-0.74284c0.7257,-0.20468 1.46043,-0.39153 2.16901,-0.59999c0.98,-0.28833 1.77892,-0.64224 2.70084,-0.94284c0.99504,-0.32445 1.6393,-0.30157 2.77567,-0.52383c0.79906,-0.15628 1.36812,-0.34131 2.23466,-0.72c0.9146,-0.39969 1.78902,-0.93697 2.36267,-1.28799c1.07126,-0.65552 1.536,-0.97198 2.46132,-1.41467c0.92645,-0.44322 1.72754,-0.71011 2.27467,-0.91066c0.81628,-0.29919 1.80161,-0.73167 2.68933,-1.064c0.80002,-0.29948 1.63936,-0.25993 2.644,-0.60268c0.73193,-0.24971 1.49144,-0.85356 2.181,-1.13333c0.79781,-0.32368 1.98627,-0.69821 2.58434,-0.89999c0.88139,-0.29738 1.45436,-0.47456 2.47984,-0.90001c0.91026,-0.37764 1.51575,-0.70897 2.526,-1.2c0.62878,-0.30562 1.5616,-0.70149 2.34366,-1c0.78992,-0.30151 1.69778,-0.737 2.53101,-1.17917c0.82336,-0.43694 1.56847,-0.36812 2.4995,-0.74232c0.7003,-0.28146 1.49979,-0.99124 2.23199,-1.37851c0.78223,-0.41373 1.60014,-0.76332 2.304,-1.2c0.87843,-0.545 1.71313,-0.87328 2.364,-1.42133c0.66226,-0.55763 1.40247,-0.64134 2.06866,-1.13133c0.68422,-0.50325 1.45267,-0.64734 2.35268,-0.64734c0.89999,0 1.80032,0 2.51433,0c0.955,0 1.7065,0 2.50301,0c1.22549,0 1.87199,0 2.88266,0c0.8,0 1.8,0 2.61067,0c0.87466,0 1.87466,0 2.71016,0c0.88051,0 1.77917,0 2.67917,0c0.90001,0 1.8,0 2.6955,0c0.86852,0 1.93784,0 2.65184,0c0.90533,0 1.87401,0 2.67799,0c0.82201,0 1.85333,0 2.54935,0c0.90933,0 1.90933,0 2.72533,0c0.81599,0 1.81599,0 2.72533,0c0.94135,0 1.72734,0 2.54935,0c1.05865,0 1.98933,0 2.62082,0c1.00717,0 1.87651,0 2.93784,0c0.63467,0 1.66667,0 2.36134,0c1.26233,0 2.03333,0 2.69633,0c1.00899,0 1.80899,0 2.80916,0c0.82066,0 1.96651,0 2.7525,0c0.82201,0 1.88066,0 2.59016,0c0.85266,0 1.86154,-0.0545 2.65717,0.036c1.01068,0.11496 1.59428,0.44431 2.48534,0.68001c0.98439,0.26039 1.8145,0.27237 2.63066,0.28267c0.9986,0.01259 1.87334,0.00133 2.88383,0.00133c0.77934,0 1.77884,-0.00194 2.55284,0c0.90001,0.00226 1.7907,0.02376 2.61133,0.42534c0.87112,0.4263 1.52133,0.57399 2.472,0.57466c0.76534,0.00053 1.75951,0 2.67867,0c0.98534,0 1.80667,-0.0006 2.66,0c0.94,0.00067 1.77911,0.24214 2.52533,0.64734c0.76112,0.4133 1.7,0.35266 2.59999,0.35266c0.90134,0 1.86667,-0.00008 2.70001,0c0.97833,0.00009 1.55817,0.20959 2.22134,0.87866c0.61035,0.61578 1.25238,0.87082 2.07416,1.12584c0.76309,0.2368 1.3356,0.82413 2.2045,1.01633c0.84329,0.18654 1.10193,1.27455 1.7215,1.85783c0.60437,0.56898 1.42215,0.82545 1.7785,1.62134c0.35803,0.79962 1,1.5 1.60001,2.10001c0.69998,0.7 1.19965,1.20032 1.89999,1.89999c0.70099,0.70033 1.24173,1.22322 1.98532,1.70134c0.71127,0.45734 1.53064,0.94641 2.11017,1.45132c0.76932,0.67026 1.34653,1.36714 2.02985,1.93668c0.66315,0.55272 1.37012,0.97006 2.37466,1.24399c0.79575,0.21698 1.70129,0.29636 2.42151,0.60934c0.83548,0.36308 1.35043,0.80687 2.57849,1.224c0.87393,0.29684 1.48373,0.28053 2.31467,0.416c1.00705,0.16417 1.87778,0.52156 2.68533,0.91733c0.82455,0.40411 1.51358,0.75868 2.33334,1.16667c0.9801,0.48779 1.70663,0.83701 2.08798,1.008c0.77802,0.34886 1.97528,0.81319 2.76968,1.06816c0.7645,0.24538 1.50702,0.41566 2.76614,0.85718c0.78995,0.27701 1.48459,0.61604 2.46417,1c0.79898,0.31317 1.36017,0.48238 2.41202,0.89999c0.71432,0.28362 1.54611,0.71095 2.56934,0.916c0.6319,0.12663 1.9325,0.24118 2.56665,0.36934c0.69418,0.1403 1.41818,0.3172 2.14801,0.51599c1.40167,0.38177 2.03967,0.61519 2.97815,0.84151c0.89859,0.21671 1.80905,0.30399 2.42535,0.35716c0.96454,0.08322 2.00262,0.21207 2.74081,0.35716c0.78201,0.1537 1.59882,0.35257 2.905,0.64284c0.91653,0.20367 1.38599,0.3002 2.33334,0.5c0.47464,0.1001 1.4169,0.2959 2.7785,0.59984c0.8649,0.19305 1.69894,0.38814 2.517,0.543c0.40237,0.07617 1.6037,0.24356 2.39999,0.30449c1.16769,0.08936 1.92456,0.09993 2.98267,0.274c0.65982,0.10855 1.53918,0.35333 2.67883,0.65733l0.72168,0.14667l0.78934,0.40001" id="svg_5" stroke-width="2" stroke="#000" fill="none"/>
  <path t="14059,14342,14366,14382,14395,14409,14423,14442,14442,14455,14455,14472,14489,14505,14505,14505,14522,14522,14522,14539,14539,14539,14539,14558,14558,14575,14575,14589,14589,14608,14608,14622,14622,14622,14642,14642,14642,14642,14642,14658,14658,14658,14675,14675,14675,14692,14692,14692,14708,14708,14725,14725,14725,14725,14742,14742,14742,14758,14758,14758,14775,14775,14775,14791,14791,14805,14805,14823,14823,14838,14838,14838,14858,14858,14858,14875,14875,14891,14891,14891,14908,14908,14925,14938,14956,14956,14972,14988,15034,15182,15182,15310,15858,15874" d="m108,250c0,1.8 0,2.7 0,3.60001c0,0.79999 -0.00011,1.7 0,2.69998c0.00008,0.80017 0.06133,1.59439 0.42533,2.52536c0.27286,0.69788 0.48989,1.65811 0.58533,2.59598c0.09367,0.9205 0.35632,1.58453 0.564,2.36401c0.27792,1.04306 0.38532,2.00174 0.478,2.72449c0.14566,1.13602 0.3,1.7955 0.44733,2.49017c0.14733,0.69467 0.40887,1.95404 0.464,2.71735c0.08044,1.11368 0.02917,1.92151 0.32,2.76797c0.25391,0.73901 0.58883,1.71561 0.716,2.51468c0.15935,1.00119 0.3422,1.61786 0.76167,2.51434c0.38721,0.82755 0.72534,1.45352 1.06367,2.147c0.35247,0.72247 0.71423,1.44614 1.28934,2.85199c0.26006,0.63571 0.45614,1.24722 0.88533,2.32001c0.28767,0.71906 0.71467,1.6134 1.1,2.58783c0.31195,0.78888 0.41267,1.36081 1.00017,2.43616c0.36826,0.67407 1.07931,1.46704 1.5525,2.15701c0.35713,0.52072 0.8885,1.37579 1.32584,2.28531c0.2807,0.58374 0.54338,1.46085 1.0215,2.367c0.45859,0.86914 0.89675,1.29291 1.484,2.10135c0.52634,0.72458 1.01721,1.47528 1.63067,2.26266c0.56735,0.72821 1.07449,1.45972 1.48533,2.14398c0.48743,0.8118 1.03332,1.45334 1.7215,2.14685c0.51251,0.51648 1.08299,1.08301 1.87833,1.87833c0.58951,0.58951 1.14301,1.14301 1.91617,1.91617c0.50934,0.50934 1.20532,1.20532 1.70934,1.70935c0.69066,0.69067 1.5161,1.34381 1.888,1.97333c0.48987,0.82919 0.82845,1.68164 1.48534,2.40134c0.53348,0.5845 0.84805,1.45242 1.50583,1.85266c0.78854,0.4798 1.4955,1.146 2.0955,1.66199l0.84283,0.33801l0.35583,0.74866l-0.05583,0.84149" id="svg_6" stroke-width="2" stroke="#000" fill="none"/>
  <path t="16939,16954,16954,16954,16970,16970,16983,16993,16993,16993,17005,17022,17022,17038,17038,17038,17055,17055,17055,17072,17072,17072,17088,17088,17088,17105,17105,17105,17105,17122,17122,17138,17138,17138,17155,17155,17172,17172,17172,17188,17188,17205,17205,17222,17222,17222,17238,17238,17255,17255,17272,17272,17290,17290,17306,17306,17449,17461,17472,17487,17504,17521,17521,17537,17537,17537,17554,17554,17554,17571,17571,17588,17588,17604,17604,17605,17621,17621,17637,17637,17637,17637,17654,17654,17654,17671,17671,17687,17687,17704,17704,17721,17721,17737,17738,17738,17754,17754,17772,17787,17787,17804,17805,17805,17821,17837,17838,17838,17854,17854,17871,17871,17871,17887,17887,17905,17905,17905,17921,17922,17922,17937,17937,17937,17938,17954,17954,17955,17971,17971,17972,17987,17988,17988,18004,18005,18005,18005,18005,18021,18021,18022,18038,18038,18038,18038,18054,18054,18071,18071,18071,18072,18087,18087,18088,18104,18104,18121,18121,18121,18122,18137,18137,18137,18138,18154,18154,18155,18172,18172,18188,18204,18205,18221,18282,18298" d="m141,323c4.83533,4.61401 5.68416,5.25174 6.32933,5.68201c0.91756,0.61194 1.43878,1.15082 2.08133,1.71799c0.7236,0.63873 1.43173,0.97189 2.10535,1.39999c0.87155,0.55392 1.70717,1.06177 2.45467,1.36935c0.82713,0.34033 1.5639,0.86398 2.13832,1.1825c1.1767,0.6525 1.78551,0.88266 2.619,1.23749c0.94272,0.40131 1.60023,0.84537 2.24001,1.21066c0.77931,0.44498 1.5834,0.69864 2.43466,1.08536c0.90817,0.41257 1.49644,0.76138 2.36134,1.28931c0.55299,0.33755 1.54402,0.95242 2.42532,1.41467c0.80478,0.42212 1.61917,0.77774 2.32533,1.21066c0.75938,0.46558 1.4386,1.03387 2.25467,1.40002c0.73827,0.33124 1.55905,0.57352 2.54401,1c0.65277,0.28265 1.51677,0.80429 2.18666,1.29999c0.81778,0.6051 1.52577,1.02835 2.18666,1.21466c0.97803,0.2757 1.81918,0.15134 2.98001,0.452c0.69707,0.18054 1.49156,0.73013 2.35416,0.8125c0.97496,0.09308 1.76883,-0.00525 2.8125,0.02084c0.72067,0.01801 1.21063,0.85425 1.968,0.99866c0.88277,0.16833 1.79868,0.00134 2.7195,0.00134c0.96584,0 1.72585,0 2.64584,0c0.786,0 1.60802,-0.00607 2.66666,0c0.93073,0.00534 1.77692,0.04337 2.56667,0.284c0.81421,0.24811 1.79584,0.63635 2.60001,0.69516c0.99756,0.07294 1.8,0.02084 2.60001,0.02084c1.00899,0 1.672,0 2.73332,0c0.972,0 1.66667,0 2.36134,0c1.26233,0 2.03333,0 2.90266,0c1.00267,0 1.80266,0 2.80133,0c0.76534,0 1.85316,0 2.57066,0c1.0405,0 1.81601,0 2.864,0c0.7095,0 1.56216,0 2.56534,0c0.76534,0 1.84866,0 2.76801,0c0.66933,0 1.83333,0 2.62267,0c0.72533,0 1.73149,0 2.75349,0c0.71851,0 1.509,0 2.53568,0c0.90067,0 1.92149,0 2.7215,0c0.8,0 1.8045,0 2.43599,0c1.18535,0 1.98933,0 2.81134,0c1.03149,0 1.73801,0 2.46249,0c1.13284,0 1.7955,0 2.83951,0c0.68266,0 1.88133,0 2.62984,0c0.70349,0 1.70691,0.01944 2.54166,-0.02084c0.88184,-0.04254 2.08316,-0.25415 2.68983,-0.41516c0.95093,-0.25235 1.95517,-0.56702 2.67334,-0.76401c0.74048,-0.20309 1.49182,-0.39572 2.23199,-0.59998c1.06421,-0.2937 2.04355,-0.60611 2.67334,-0.76401c1.20303,-0.30161 2.10645,-0.38034 2.68982,-0.436c0.83594,-0.07974 1.82962,-0.31339 2.78217,-0.57468c1.06351,-0.29175 1.70636,-0.34512 2.38934,-0.39999c1.04355,-0.08383 2.02533,-0.15479 2.83499,-0.37799c0.91785,-0.25302 1.71436,-0.52698 2.53519,-0.64734c1.14563,-0.168 1.93909,-0.35965 2.52081,-0.5c0.94235,-0.22736 1.97842,-0.39255 2.70651,-0.44284c0.73016,-0.05042 1.7825,-0.05649 2.70883,-0.05716c1.00134,-0.00073 1.64032,0 2.63849,0c0.91919,0 1.90451,0 2.72583,0c0.85333,0 1.79333,0 2.7785,-0.00015l0.77835,-0.22134" id="svg_7" stroke-width="2" stroke="#000" fill="none"/>
  <path t="19895,19910,19918,19940,19957,19957,19957,19974,19974,19989,19989,20005,20005,20005,20022,20022,20022,20038,20038,20038,20038,20055,20055,20055,20055,20072,20072,20072,20088,20088,20088,20105,20105,20105,20122,20122,20122,20122,20143,20143,20143,20143,20157,20157,20157,20157,20174,20174,20174,20174,20174,20174,20190,20190,20190,20190,20207,20207,20207,20208,20208,20224,20224,20224,20224,20224,20240,20240,20240,20240,20240,20240,20240,20257,20257,20257,20257,20258,20274,20274,20274,20274,20290,20290,20290,20290,20307,20307,20307,20307,20307,20307,20322,20322,20322,20322,20322,20340,20340,20340,20340,20340,20340,20357,20357,20357,20357,20357,20374,20375,20390,20390,20390,20449,20449,20614,20634,20701,20709,20753,20777,20785,20801,20805,20822,20838,20855,20855,20872,20872,20888,20888,20905,20922,20922,20938,20938,20954,20972,20972,20972,20988,20988,21005,21005,21022,21022,21022,21038,21038,21055,21055,21072,21072,21072,21072,21088,21088,21105,21105,21105,21122,21122,21122,21122,21138,21138,21138,21155,21155,21155,21172,21172,21172,21188,21188,21188,21205,21205,21205,21222,21222,21222,21222,21238,21238,21238,21238,21255,21255,21255,21272,21272,21272,21288,21288,21288,21288,21305,21305,21305,21305,21322,21322,21322,21322,21338,21338,21338,21355,21355,21355,21355,21372,21372,21372,21372,21388,21388,21388,21405,21405,21405,21422,21422,21422,21438,21438,21438,21455,21455,21455,21472,21472" d="m120,223c-1.7,-1.05267 -2.47713,-1.52206 -2.95184,-2.3c-0.48907,-0.80145 -1.1052,-1.1982 -1.65083,-1.58533c-1.02337,-0.7261 -1.56071,-1.28998 -2.23067,-1.948c-0.54082,-0.53119 -1.33432,-1.16505 -2.00266,-1.57733c-0.76648,-0.47282 -1.57536,-1.06502 -2.18484,-1.63101c-0.44378,-0.41212 -1.4005,-1.37965 -1.93183,-1.911c-0.54733,-0.54733 -1.09467,-1.09467 -1.88067,-1.88066c-0.48133,-0.48134 -1.14583,-1.14584 -1.76533,-1.76534c-0.80134,-0.80133 -1.20137,-1.20131 -1.80134,-1.80133c-0.79988,-0.79996 -1.41176,-1.38007 -1.94283,-2c-0.66499,-0.77625 -1.02044,-1.4257 -1.467,-2.05717c-0.6993,-0.98888 -1.19479,-1.50043 -1.71101,-2.04283c-0.52573,-0.5524 -1.56217,-1.57425 -2.022,-2.04733c-0.65295,-0.67178 -1.07294,-1.12318 -1.85983,-2.13933c-0.42811,-0.55284 -0.85712,-1.16971 -1.368,-1.8c-0.8521,-1.05125 -1.19358,-1.40211 -1.89066,-2.13867c-0.35692,-0.37712 -1.08981,-1.12268 -1.456,-1.49066c-1.05917,-1.06433 -1.72015,-1.72787 -2.36183,-2.34233c-0.61127,-0.58533 -1.51689,-1.37993 -2.12083,-1.85901c-0.59615,-0.4729 -1.21758,-0.92395 -1.8,-1.452c-0.92944,-0.84265 -1.20541,-1.19893 -1.82133,-1.90266c-0.65359,-0.74678 -0.9677,-1.16129 -2.112,-2.328c-0.40067,-0.40851 -0.82841,-0.80569 -1.71733,-1.58934c-0.44623,-0.39339 -1.34516,-1.15213 -1.78133,-1.52533c-0.83689,-0.71606 -1.59839,-1.39752 -2.296,-2.03867c-0.65166,-0.59892 -0.93644,-0.9167 -2.172,-1.92517c-0.58775,-0.47972 -1.19686,-0.90521 -1.8,-1.31699c-0.8954,-0.6113 -1.50388,-1.00208 -2.42084,-1.62534c-0.63811,-0.43373 -1.647,-1.14423 -2.0005,-1.40067c-0.73378,-0.53232 -1.48301,-1.09381 -2.226,-1.68301c-0.37086,-0.2941 -1.43484,-1.19197 -2.1045,-1.79999c-0.33518,-0.30432 -1.00499,-0.93645 -1.7175,-1.58084c-0.75923,-0.68665 -1.59664,-1.39977 -2.036,-1.76283c-0.89059,-0.73596 -1.34165,-1.09351 -1.78934,-1.442c-1.2654,-0.98503 -2.02847,-1.54475 -2.72266,-2.02716c-0.62105,-0.43158 -1.18296,-0.81458 -2.19733,-1.39734c-0.65717,-0.37755 -1.68533,-0.88533 -2.28533,-1.18533c-0.8,-0.39999 -1.6338,-0.74106 -2.35833,-1.2c-0.84392,-0.53456 -1.51776,-1.7413 -1.9845,-1.14284c-0.51876,0.66516 -0.83636,1.34901 -1.0155,2.16367c-0.18018,0.81937 0.80846,1.58347 0.95833,2.47917c0.14025,0.83818 0.76685,1.27379 1.2215,2.10017c0.39306,0.71445 0.96767,1.39021 1.3785,2.07449c0.48727,0.81161 1.09887,1.52196 1.7,2.12534c0.69869,0.70131 1.3,1.3 1.9,1.89999c0.6,0.60001 1.17789,1.24379 1.96667,1.8c0.63434,0.44731 1.42156,0.82286 2.07616,1.65266c0.51353,0.65097 0.96555,1.45908 1.51434,2.15717c0.57157,0.72708 1.06527,1.44289 1.4175,1.9395c0.65332,0.92116 1.19257,1.57559 1.9255,2.351c0.53823,0.56941 1.06344,1.23524 1.557,1.90501c0.5501,0.74651 0.8848,1.29082 1.74284,2.02533c0.75244,0.64412 1.61493,1.11829 2.2,1.6265c0.61628,0.53531 1.40493,1.33798 2,1.94734c0.40337,0.41306 1.01357,1.06996 1.6,1.81667c0.61443,0.78236 0.93621,1.37656 1.8,2.2455c0.56137,0.56473 1.22412,0.91458 2,1.5c0.82721,0.62415 1.37398,1.21512 2.2,1.812c0.5827,0.42105 1.23054,0.73401 2.20134,1.50667c0.6407,0.50993 1.03689,0.9427 2.02016,1.71466c0.52584,0.41284 1.09653,0.80414 1.97984,1.40001c0.89567,0.6042 1.4986,0.99361 2.07783,1.39999c0.84205,0.59079 1.61172,1.18613 2.28484,1.8c0.64362,0.58698 1.436,1.39999 1.836,1.8c0.59999,0.59999 1.38741,1.41304 2.009,2c0.65013,0.61391 1.14418,1.02625 2.03367,1.59999c0.65046,0.41957 1.36353,0.78943 2.05199,1.2c0.98106,0.58507 1.80865,1.18529 2.26367,1.62083c0.66598,0.63747 1.2464,1.397 1.84167,2.2045c0.40322,0.54698 1.18683,1.61929 1.60133,2.08934c0.60088,0.6814 1.036,1.10521 2.02,1.88533c0.52116,0.41318 1.36124,0.98952 1.89467,1.40001c1.01408,0.78036 1.45487,1.19284 2.0795,1.79999c0.81355,0.79079 1.4045,1.40001 2.0045,2c0.60001,0.60001 1.2,1.20001 1.8,1.8c0.8,0.8 1.38274,1.41431 2,1.964c0.77896,0.69371 1.4,1.07883 2,1.42534l0.99984,0.51067l0.77933,0.39999" id="svg_8" stroke-width="2" stroke="#000" fill="none"/>
  <path t="27320,27334,27342,27342,27357,27371,27388,27506,27522,27530,27530,27538,27555,27570,27570,27588,27588,27588,27604,27605,27605,27620,27620,27620,27637,27637,27637,27655,27655,27655,27670,27670,27670,27670,27670,27670,27670,27687,27687,27687,27687,27687,27704,27704,27704,27704,27720,27720,27720,27720,27720,27737,27737,27737,27737,27754,27754,27754,27754,27755,27755,27770,27770,27770,27770,27770,27770,27770,27787,27787,27787,27787,27805,27805,27805,27805,27805,27820,27820,27821,27821,27837,27837,27837,27838,27838,27838,27855,27855,27855,27855,27855,27855,27855,27871,27871,27871,27871,27871,27871,27887,27887,27887,27888,27888,27888,27904,27904,27905,27905,27905,27905,27905,27905,27920,27920,27921,27921,27921,27921,27921,27921,27937,27937,27937,27938,27938,27938,27938,27954,27954,27955,27955,27955,27955,27955,27955,27971,27971,27971,27971,27971,27971,27971,27971,27971,27987,27987,27988,27988,27988,27988,27988,27988,27988,28004,28005,28005,28005,28005,28005,28005,28020,28020,28021,28021,28021,28021,28021,28037,28038,28038,28038,28038,28038,28038,28056,28056,28056,28057,28057,28057,28057,28057,28057,28073,28073,28073,28074,28074,28074,28074,28090,28090,28090,28090,28091,28091,28107,28107,28107,28107,28107,28108,28123,28123,28123,28123,28123,28123,28140,28140,28140,28140,28140,28140,28157,28157,28158,28158,28158,28158,28158,28158,28158,28173,28173,28173,28173,28173,28174,28190,28190,28190,28190,28190,28207,28207,28207,28207,28207,28223,28223,28223,28223,28223,28238,28238,28238,28255,28255,28255,28273,28273,28273,28290,28290,28307,28307,28307,28323,28323,28323,28340,28340,28442,28443" d="m291,343c5.07132,0 6,0 6.79999,0c0.90002,0 1.80002,0 2.70001,0c0.89999,0 1.85004,0.13168 2.60001,-0.22134c0.77551,-0.36505 1.4888,-0.87366 2.00983,-1.48315c0.55136,-0.64499 1.30127,-0.99136 2.2915,-1.49683c0.62085,-0.31693 1.2908,-0.67279 2.28265,-1.28268c0.54517,-0.33521 1.35187,-0.88248 2.3945,-1.49448c0.67828,-0.39813 1.31351,-0.72406 2.32285,-1.22153c0.6174,-0.30429 1.28522,-0.59698 2.28665,-1.004c0.87558,-0.35587 1.55002,-0.63464 2.64536,-1.29599c0.41714,-0.25186 1.27762,-0.8609 1.728,-1.18668c0.92633,-0.67007 1.38614,-1.01865 1.85599,-1.34665c1.34869,-0.94153 1.79041,-1.20557 2.63602,-1.69467c0.79483,-0.45972 1.56738,-0.85645 2.62534,-1.47202c0.67343,-0.39185 1.31824,-0.80505 1.974,-1.19998c1.00931,-0.60785 1.73044,-1.00165 2.47266,-1.39999c0.74844,-0.40167 1.49973,-0.78427 2.55334,-1.40018c0.67459,-0.39432 1.32599,-0.81375 1.974,-1.25699c1.02145,-0.69867 1.73434,-1.22955 2.11349,-1.5c0.79428,-0.56656 1.20795,-0.86661 2.10583,-1.44418c0.95245,-0.61267 1.99344,-1.19952 2.52884,-1.49417c0.53793,-0.29605 1.07858,-0.58313 2.13666,-1.14734c0.50928,-0.27158 1.90616,-1.02225 2.69098,-1.50449c0.71671,-0.4404 1.37546,-0.88354 2.27151,-1.61932c0.61227,-0.50275 1.198,-1.06088 1.79999,-1.608c0.59802,-0.54355 1.49121,-1.31573 2.10452,-1.76819c0.60767,-0.44827 1.24359,-0.86807 2.26215,-1.45715c0.71515,-0.4136 1.49139,-0.82004 1.89584,-1.04166c0.85779,-0.47 1.31866,-0.71375 2.78018,-1.60117c0.52869,-0.32101 1.06613,-0.66168 2.15732,-1.37802c0.55112,-0.36182 1.09662,-0.72815 1.63199,-1.0965c1.53061,-1.05307 1.99841,-1.39584 2.45367,-1.72549c0.87476,-0.63345 1.29398,-0.94516 2.11166,-1.55585c1.20465,-0.89969 1.60602,-1.20483 2.43466,-1.82266c0.43018,-0.32074 1.33893,-0.99377 1.82401,-1.34933c1.04276,-0.76437 1.60822,-1.17184 2.19601,-1.59866c0.6062,-0.44019 1.22519,-0.89038 1.84799,-1.3515c0.62518,-0.46286 1.26105,-0.9071 3,-2.3125c0.54172,-0.43781 1.04758,-0.87875 1.53299,-1.30948c0.47186,-0.4187 1.3707,-1.24683 1.81067,-1.65268c0.43741,-0.40347 1.77664,-1.60605 2.24167,-2.00583c0.47061,-0.40457 1.43616,-1.21875 1.92535,-1.63467c0.49445,-0.42041 0.99927,-0.83966 1.98932,-1.73065c1.01291,-0.91156 1.51413,-1.39883 2.03201,-1.89069c0.53116,-0.50446 1.07526,-1.02609 1.6395,-1.56149c0.58377,-0.55396 1.82681,-1.71634 2.49249,-2.32367c0.68625,-0.62607 1.3927,-1.25983 2.112,-1.89749c0.72269,-0.64066 1.44684,-1.27466 2.16599,-1.89749c0.7049,-0.6105 2.05716,-1.76355 2.69336,-2.298c0.60651,-0.50949 1.18875,-0.99292 1.746,-1.45651c0.5354,-0.4454 1.05179,-0.87466 1.54797,-1.29449c0.48245,-0.4082 1.40607,-1.21124 1.84918,-1.61349c0.43817,-0.39777 0.86819,-0.79599 1.70065,-1.60001c0.41211,-0.39801 1.21951,-1.20001 2.02084,-2c0.80133,-0.79999 1.20291,-1.20163 1.61066,-1.60001c0.82217,-0.80325 1.24265,-1.20419 1.67468,-1.60001c1.32455,-1.2135 1.80182,-1.60339 2.27634,-2.01349c0.98102,-0.84781 1.48788,-1.29129 2,-1.758c0.52802,-0.4812 1.60886,-1.5247 2.15948,-2.09233c0.56552,-0.58296 1.12805,-1.18871 1.69351,-1.8015c0.56552,-0.61288 1.12219,-1.22435 1.67551,-1.8195c0.53873,-0.57947 1.57193,-1.65318 2.06683,-2.12933c0.46805,-0.4503 1.36896,-1.25488 1.80133,-1.62334c0.82877,-0.70624 1.25098,-1.02881 2.44165,-2.08383c0.40411,-0.35808 1.19977,-1.10426 1.60001,-1.47867c0.7995,-0.74786 1.18726,-1.13057 2.39999,-2.17867c0.3959,-0.34215 1.20026,-0.9957 1.60001,-1.32133c0.80048,-0.65207 1.21237,-0.96986 2.39999,-2.02133c0.40427,-0.35791 1.19977,-1.10426 1.60001,-1.47867c0.7995,-0.74786 1.18683,-1.13107 2.40051,-2.179c0.3992,-0.34468 1.23099,-1.01759 1.66199,-1.36267c0.44501,-0.35629 1.39679,-1.10892 2.4375,-1.95833c0.5658,-0.46181 1.1525,-0.95143 1.758,-1.45799c0.6185,-0.51743 1.24176,-1.0423 1.866,-1.56601c0.61777,-0.5183 1.22043,-1.02835 2.37601,-1.976c0.53351,-0.43752 1.52026,-1.22755 1.97067,-1.592c0.4259,-0.3446 1.23563,-0.95869 2.19598,-1.908c0.58698,-0.58023 1.08362,-1.2099 1.58401,-1.836c0.51831,-0.64854 1.38806,-1.6889 1.71866,-2.04666c0.68365,-0.73982 1.03845,-1.1102 1.7825,-1.80751c1.0632,-0.9964 1.42023,-1.27478 2.08652,-1.7955c0.61429,-0.48006 1.49323,-1.0892 2.23999,-1.71432c0.6925,-0.5797 1.2973,-1.17151 1.90033,-2c0.42307,-0.58124 0.86627,-1.43098 1.50665,-2.19867c0.50592,-0.60648 1.09863,-1.13976 1.91336,-1.71733c0.74997,-0.53166 1.46631,-1.02628 1.97598,-1.72c0.54431,-0.74088 1.08771,-1.5847 1.64618,-2.14317c0.55844,-0.55844 1.37784,-1.1355 2.14316,-1.61017l0.81433,-0.51016l0.66,-0.429" id="svg_10" stroke-width="2" stroke="#000" fill="none"/>
  <path t="29864,29878,29879,29879,29879,29879,29879,29890,29890,29907,29907,29923,29940,29940,29955,29971,29988,29988,30005,30021,30038,30055,30055,30071,30088,30105,30105,30121,30121,30138,30138,30155,30171,30171,30188,30188,30205,30221,30221,30238,30238,30255,30255,30255,30256,30272,30272,30272,30288,30288,30288,30305,30305,30321,30321,30321,30338,30338,30355,30355,30371,30371,30371,30388,30388,30405,30405,30421,30421,30438,30438,30438,30455,30455,30455,30471,30471,30471,30488,30488,30505,30505,30505,30521,30521,30521,30538,30538,30555,30555,30571,30571,30588,30588,30605,30605,30621,30621,30621,30638,30638,30655,30655,30671,30671,30671,30688,30688,30705,30705,30721,30721,30721,30738,30738,30738,30755,30755,30755,30771,30771,30771,30788,30788,30805,30805,30805,30821,30821,30821,30838,30838,30838,30855,30855,30855,30871,30871,30888,30888,30888,30905,30905,30905,30905,30905,30921,30921,30921,30922,30938,30938,30938,30939,30956,30956,30956,30971,30972,30972,30972,30988,30988,30988,31005,31005,31006,31022,31022,31022,31022,31038,31038,31038,31055,31055,31055,31056,31075,31075,31075,31088,31088,31089,31109,31110,31110,31110,31125,31125,31125,31138,31138,31139,31158,31158,31158,31158,31174,31174,31174,31190,31190,31191,31191,31207,31208,31208,31208,31223,31224,31224,31224,31240,31241,31241,31258,31258,31273,31273,31274,31274,31290,31290,31291,31307,31308,31308,31323,31340,31340,31358,31358,31373,31374,31374,31390,31390,31407,31408,31423,31440,31440,31457,31457,31473,31488,31488,31570,31606,31622,31642,31674,31766,31802,31802,31811" d="m300,331c3.08517,-0.8855 4.00827,-1.41174 4.49066,-1.71201c0.49066,-0.30539 1.44434,-0.93039 1.888,-1.23734c1.12106,-0.7756 1.97702,-1.53525 2.72134,-1.9295c0.66971,-0.35474 1.13712,-1.12158 1.89999,-1.78781c0.60046,-0.52438 1.4631,-0.90689 2.29999,-1.28067c0.77203,-0.34479 1.3717,-0.87207 1.72534,-1.65268c0.36716,-0.81049 1.24173,-1.16373 2.07468,-1.62149c0.67505,-0.37097 1.23465,-1.27808 2,-1.65717c0.84677,-0.4194 1.50232,-0.78378 2.384,-1.32001c0.66754,-0.40601 1.53702,-0.55347 2.31467,-0.88535c0.90976,-0.38828 1.52423,-1.01334 2.20132,-1.41599c0.8353,-0.49673 1.55261,-1.14761 2.41068,-1.47467c0.88162,-0.33606 1.62128,-0.49445 2.42267,-1.02533c0.71906,-0.47635 1.49567,-1.17267 1.936,-1.48401c0.74432,-0.52628 1.53888,-1.0473 2.30933,-1.49448c0.68814,-0.39938 1.60086,-0.83148 2.604,-1.22153c0.52969,-0.20596 1.35999,-0.40314 2.34799,-1.00131c0.62274,-0.37704 1.27615,-1.13547 1.99017,-1.79868c0.56906,-0.52856 1.34857,-1.1687 2.14316,-1.55334c0.7897,-0.38226 1.65497,-0.46448 2.604,-0.73199c0.74011,-0.20862 1.50278,-0.44766 2.42215,-1.01465c0.72702,-0.44833 1.46198,-1.00955 2.21436,-1.40002c0.79016,-0.4101 1.60342,-0.75375 2.42883,-1.29999c0.57376,-0.3797 1.12396,-0.90176 1.936,-1.48401c0.74084,-0.53119 1.27039,-0.88339 2.30914,-1.49448c0.67789,-0.39877 1.53055,-0.80023 2.32019,-1.22284c0.776,-0.41531 1.5979,-1.10687 1.97598,-1.63467c0.53534,-0.74734 1.09778,-1.57315 1.62534,-2.14316c0.50513,-0.54578 1.3475,-1.41885 1.884,-1.81952c0.8996,-0.67184 1.54385,-0.88196 2.23065,-1.68533c0.54456,-0.63699 0.92017,-1.55869 1.52133,-2.10532c0.77374,-0.70355 1.59634,-0.98215 2.19736,-1.57733c0.6058,-0.59991 0.98846,-1.42133 1.81934,-2.07617c0.65118,-0.51324 1.4816,-0.93823 2.09998,-1.51434c0.75443,-0.70285 1.24655,-1.24362 1.76334,-1.75882c0.73022,-0.72797 1.35934,-1.2962 2.14117,-1.78851c0.73938,-0.46558 1.56403,-0.9935 2.13217,-1.53149c0.57611,-0.54556 1.19263,-1.36188 1.71066,-2.164c0.38647,-0.59842 0.97339,-1.41089 1.52084,-2c0.5683,-0.61154 1.36761,-1.41086 1.97916,-1.97916c0.58911,-0.54745 1.40359,-1.13126 2,-1.52084c1.0062,-0.65729 1.59299,-1.16086 2.20001,-1.67465c0.79099,-0.66949 1.41412,-1.05099 2.19998,-1.578c0.81528,-0.54675 1.40689,-1.07614 2,-1.65186c0.80936,-0.78561 1.1955,-1.19098 1.76401,-1.75949c0.81467,-0.81467 1.45795,-1.46472 2.15784,-2.15765c0.53293,-0.52762 0.94476,-0.9437 2.01151,-1.845c0.62543,-0.52844 0.97198,-0.78601 1.66666,-1.33334c0.69467,-0.54733 1.67139,-1.32785 2.23065,-1.81467c0.75494,-0.65717 1.19949,-1.10318 2.19067,-1.88533c0.52209,-0.41199 1.35944,-0.99187 1.89468,-1.40001c0.77164,-0.58839 1.45105,-1.20871 2.13666,-1.79999c0.70627,-0.60909 1.5,-1.20001 2.04733,-1.60001c0.54733,-0.39999 1.58932,-1.18785 2.26401,-1.8c0.4324,-0.39233 1.23599,-1.2 1.836,-1.8c0.60001,-0.59999 1.39999,-1.39999 1.79999,-1.79999c0.60001,-0.60001 1.19397,-1.2061 2.00134,-2c0.61493,-0.60468 1.03717,-1.02303 2.01999,-1.8c0.52173,-0.41246 1.36124,-0.98952 1.89468,-1.40001c1.01407,-0.78035 1.45486,-1.19284 2.0795,-1.79999c0.81357,-0.79079 1.40448,-1.39999 1.8045,-1.8c0.80002,-0.79999 1.39484,-1.41032 2.03598,-2c0.44278,-0.40724 1.44406,-1.20229 1.97867,-1.58934c0.77176,-0.55873 1.64691,-1.18457 2.30618,-1.73149c0.53583,-0.44452 1.24011,-1.026 1.84164,-1.48451c0.65491,-0.49921 1.32397,-1.008 2.30417,-1.66133c0.80881,-0.53911 1.5379,-0.91132 2.33334,-1.5c0.63083,-0.46686 1.267,-1.08572 1.77066,-1.51999c0.86356,-0.74458 1.53467,-1.26601 2.22934,-1.81334c0.69467,-0.54733 1.67291,-1.32611 2.22934,-1.81467c0.50439,-0.44287 1.16278,-1.0797 1.97049,-1.88516c0.59033,-0.58868 1.14301,-1.14302 1.77899,-1.77901c0.54202,-0.54201 1.35199,-1.35703 1.79053,-1.78917c0.74722,-0.73634 1.25665,-1.2579 2.064,-1.89867c0.68854,-0.54649 1.35452,-0.91481 2.36649,-1.43333c0.58865,-0.30164 1.36063,-0.63997 2.16418,-1.29999c0.78497,-0.64476 1.23999,-1.24808 2.12131,-1.8c0.70203,-0.43965 1.51468,-0.8 2.31467,-1.2c0.60001,-0.3 1.61292,-0.77391 2.36401,-1.20001c0.83121,-0.47153 1.41168,-0.99213 2.23599,-1.37466c0.89081,-0.41339 1.4722,-0.84749 2.25269,-1.32533c0.68362,-0.41855 1.52246,-1.10652 2.34732,-1.53333c0.67264,-0.34804 1.21524,-1.10577 2.10001,-1.16667c0.89786,-0.0618 1.44757,0.44615 2.18533,0.91467c0.69147,0.43912 1.71466,0.08533 2.51465,0.08533l0.91467,0.08533" id="svg_11" stroke-width="2" stroke="#000" fill="none"/>
  <path t="34219,34346,34366,34382,34390,34406,34422,34440,34440,34440,34454,34471,34471,34471,34488,34488,34504,34504,34521,34521,34521,34538,34538,34538,34554,34571,34571,34571,34589,34589,34604,34604,34621,34621,34638,34638,34638,34654,34654,34654,34671,34671,34688,34688,34704,34704,34721,34721,34738,34738,34738,34754,34754,34771,34771,34789,34804,34821,34838,34854,34854,34871,34970,35246" d="m172,204c0.05716,-1.7 0.4604,-2.52361 0.94733,-3.2955c0.44312,-0.70244 0.97137,-1.26775 1.40984,-2.009c0.54752,-0.92563 1.08075,-1.49997 1.3575,-2.2115c0.37355,-0.96043 0.7334,-1.80127 1.136,-2.31999c0.58928,-0.75923 0.93044,-1.57547 1.19751,-2.50684c0.26505,-0.92429 0.72842,-1.45584 1.27316,-2.2c0.5184,-0.70818 1.03972,-1.50064 1.51199,-2.2905c0.41725,-0.69783 0.84781,-1.49156 1.114,-2.414c0.26205,-0.9081 0.4819,-1.59195 0.854,-2.354c0.48979,-1.00307 0.80399,-1.59602 1.29851,-2.5985c0.38345,-0.77733 0.64758,-1.66345 0.9615,-2.42551c0.30243,-0.73415 0.99086,-1.39336 1.45599,-2.06133c0.49556,-0.71165 0.87172,-1.51579 1.121,-2.30351c0.32491,-1.02672 0.39462,-1.91254 0.71883,-2.66249c0.38525,-0.89119 0.97255,-1.57242 1.44284,-2.23134c0.53491,-0.74944 0.8887,-1.52626 1.40134,-2.51599c0.31264,-0.60361 0.65543,-1.22256 1.44682,-2.19551c0.4738,-0.58249 1.06439,-1.40277 1.40001,-2.09999c0.40021,-0.83139 0.84042,-1.6454 1.37717,-2.27917c0.52174,-0.61604 0.79616,-1.3465 1.18533,-2.164l0.588,-0.692l0.74417,-0.52649l0.05849,-0.84151" id="svg_12" stroke-width="2" stroke="#000" fill="none"/>
  <path t="36955,37406,37430,37442,37453,37470,37488,37488,37504,37504,37520,37521,37543,37543,37554,37554,37577,37577,37577,37595,37595,37603,37603,37620,37620,37637,37637,37637,37653,37653,37653,37653,37670,37670,37688,37688,37688,37703,37703,37720,37737,37737,37737,37738,37754,37754,37754,37770,37770,37787,37803,37803,37825,37825,37825,37837,37837,37837,37858,37858,37858,37875,37875,37887,37887,37903,37904,37920,37920,37937,37937,37937,37953,37953,37970,37970,37987,37987,38003,38003,38020,38020,38037,38053,38053,38070,38070,38070,38087,38103,38103,38120,38120,38137,38153,38177,38177,38187,38203,38220,38237,38254,38254,38270,38287,38303,38320,38690,38702,38722,38740,38756,38756,38771,38771,38788,38804,38804,38821,38838,38854,38871,38888,38888,38904,38904,38921,38938,39242,39394,39506,39534,39558,39574,39590,39606,39606,39621,39638,39638,39654,39654,39671,39671,39671,39688,39688,39688,39704,39704,39704,39721,39721,39738,39738,39738,39754,39754,39754,39771,39771,39771,39771,39787,39787,39787,39804,39805,39821,39821,39821,39837,39837,39857,39873,39933" d="m199,151c1.8,0 2.7,0 3.60001,0c0.79999,0 1.7045,0 2.72133,0c0.67867,0 1.65735,0.00507 2.56267,0c0.95204,-0.00534 1.7308,-0.03928 2.716,-0.35266c0.60965,-0.19392 1.59583,-0.5677 2.39999,-0.62651c0.99756,-0.07295 1.8,-0.02083 2.60001,-0.02083c1,0 1.79999,0 2.79999,0c0.8,0 1.8,0 2.60001,0c1,0 1.82133,0 2.51433,0c1.12834,0 1.791,0 2.83501,0c0.68266,0 1.88,0 2.60899,0c1.04167,0 1.84167,0 2.64168,0c0.9955,0 1.91466,0 2.79599,0c1.104,0 1.65733,0 2.62483,0c0.67834,0 1.93617,0 2.70717,0c0.86934,0 1.86751,0 2.61484,0c1.03183,0 1.98111,0.04115 2.67799,-0.02083c0.98608,-0.08769 1.77998,-0.43561 2.43634,-0.62651c0.95204,-0.2769 1.76775,-0.33061 2.59016,-0.34816c1.0311,-0.022 1.95267,-0.0045 2.63667,-0.0045c1.26416,0 2.05466,0 2.98267,0c0.81248,0 1.82274,-0.04839 2.54399,0.036c0.99973,0.11697 1.76831,0.53539 2.78934,0.79733c0.59079,0.15157 1.39999,0.16441 2.39999,0.16667c0.80002,0.0018 1.80002,0 2.60001,0c1,0 2.01144,-0.10789 2.83334,0.16667c0.845,0.28227 1.64786,0.78183 2.34131,0.82266c1.07089,0.06305 1.99377,-0.02855 2.66135,0.02133c1.17114,0.08751 1.75024,0.36658 2.50684,0.63667c1.00995,0.36053 1.80246,0.74179 2.54251,1.06866c0.89182,0.39391 1.64914,0.32756 2.59381,0.784c0.84335,0.40749 1.6875,0.49992 2.52084,0.5c0.97833,0.00009 1.54758,0.44615 2.28534,0.91467c0.69147,0.43912 1.71466,0.08533 2.51465,0.08533c0.90002,0 1.81961,-0.00194 2.60001,0.42534c0.82257,0.45038 1.99008,0.24275 2.05835,0.59549c0.18033,0.93159 -1.65793,0.89792 -2.45834,0.97917c-0.88489,0.08983 -1.67581,0.31429 -2.34732,0.7045c-0.92661,0.53847 -1.3949,1.32999 -1.73669,2.0955c-0.33197,0.74353 -0.89798,1.59946 -0.91599,2.5c-0.01801,0.89981 -0.1315,1.83733 0.11432,2.45717c0.39554,0.99736 1.11865,1.3606 1.64285,2.22116c0.49316,0.80962 1.08032,1.36459 1.59549,1.96899c0.55096,0.64641 0.64734,1.45267 0.64734,2.35268c0,0.89999 0.18137,1.85349 -0.16666,2.7c-0.27591,0.6711 -0.69705,1.45541 -1.19052,2.3045c-0.3674,0.63217 -0.95276,1.34741 -1.34283,2.09999c-0.51318,0.99011 -0.81436,1.61003 -1.09998,2.28084c-0.42145,0.98982 -0.68832,1.81905 -1,2.63066c-0.38565,1.0043 -0.69681,1.66473 -1,2.28267c-0.49478,1.00842 -0.81934,1.62927 -1.20001,2.56801c-0.31616,0.77963 -0.58075,1.61548 -1,2.66666c-0.2869,0.71936 -0.62085,1.38341 -1,2.33334c-0.31284,0.7838 -0.58868,1.63824 -0.71466,2.23466c-0.25092,1.18793 -0.24432,2.08298 -0.36935,2.91333c-0.15189,1.0087 -0.42728,1.66905 -0.91599,2.68533c-0.28986,0.60275 -0.72784,1.38066 -0.91467,2.39867c-0.13879,0.75633 -0.08533,1.84416 -0.08548,2.70117l-0.28519,0.81483" id="svg_13" stroke-width="2" stroke="#000" fill="none"/>
  <path t="41692,41758,41759,41763,41775,41789,41805,41822,41836,41854,41870,41870,41886,41886,41904,41920,41937,41937,41953,41970,41971,41987,42003,42026,42036,42054,42071,42071,42087,42087,42104,42121,42136,42170,42171,42186,42186,42186,42203,42203,42221,42236,42236,42254,42254,42254,42270,42271,42286,42303,42303,42321,42321,42321,42336,42336,42337,42354,42354,42371,42371,42371,42387,42387,42387,42387,42403,42403,42403,42420,42421,42421,42436,42436,42436,42454,42454,42454,42470,42471,42471,42486,42487,42487,42504,42504,42521,42521,42537,42537,42537,42554,42571,42571,42571,42586,42587,42604,42604,42604,42621,42621,42621,42637,42637,42637,42654,42654,42654,42670,42671,42686,42687,42687,42704,42704,42704,42724,42724,42740,42741,42754,42754,42771,42771,42771,42787,42787,42804,42804,42821,42837,42854,42871,42871,42886,42904,42921,42936,42954,42954,42971,42986,43014,43083,43099,43167,43167" d="m190,163c-1,1 -1.8,1 -2.7,1c-0.90001,0 -1.8,0 -2.7,0c-0.90001,0 -1.8,0 -2.70001,0c-0.89999,0 -1.65717,0 -2.55266,0c-0.86334,0 -1.82651,0 -2.758,0c-0.91068,0 -1.76401,0 -2.70401,0c-0.88533,0 -1.71977,0.19595 -2.58533,-0.05716c-0.87764,-0.25664 -1.59865,-0.91425 -2.5,-0.94284c-0.89955,-0.02853 -1.8,0 -2.55717,0c-0.89549,0 -1.75883,0 -2.722,0c-0.92082,0 -1.82138,0.02943 -2.62132,-0.00017c-0.77258,-0.02859 -1.66417,-0.21825 -2.5755,-0.42517c-0.64848,-0.14725 -1.81728,-0.45891 -2.61601,-0.53867c-1.00812,-0.10066 -1.87466,-0.036 -2.72882,-0.036c-0.97917,0 -1.77917,0 -2.57918,0c-0.9955,0 -1.74283,0 -2.77466,0c-0.94701,0 -1.66701,0 -2.79201,0c-0.786,0 -1.608,0 -2.66666,0c-0.7095,0 -1.56216,0 -2.56667,0c-0.8,0 -1.80034,0 -2.64168,0c-0.72899,0 -1.60117,0 -2.61966,0c-0.724,0 -1.45601,0 -2.51717,0c-0.9855,0 -1.91701,0 -2.8215,0c-0.89549,0 -1.764,0 -2.83334,0c-0.714,0 -1.61933,0 -2.588,0c-0.804,0 -1.626,0 -2.65733,0c-0.696,0 -1.60533,0 -2.60533,0c-0.816,0 -1.632,0 -2.63067,0c-0.87466,0 -1.88533,0 -2.68533,0c-1,0 -1.78933,0 -2.51466,0c-1.00617,0 -2.02817,0 -2.74667,0c-0.7905,0 -1.81717,0 -2.71783,0c-1.02084,0 -1.8315,0 -2.478,0c-1.22816,0 -1.77883,0 -2.64733,0c-1.19534,0 -2.08483,0 -2.6595,0c-1.06934,0 -2,0 -2.83466,0c-1.00584,0 -1.85851,0 -2.82267,0c-0.804,0 -1.626,0 -2.65717,0c-0.6855,0 -1.52016,0 -2.5215,0c-0.8,0 -1.8,0 -2.6,0c-1,0 -1.8,0 -2.8,0c-0.8,0 -1.6,0 -2.6,0c-0.8,0 -1.79867,0 -2.74284,0c-0.9,0 -1.86093,0.08212 -2.75716,-0.00017c-0.91144,-0.08368 -1.43717,-0.74678 -2.3,-0.96384c-0.8735,-0.21974 -1.8,-0.036 -2.7,-0.036c-0.9,0 -1.73444,0.19595 -2.6,-0.05716c-0.87764,-0.25664 -1.6,-0.88568 -2.5,-0.94284l-0.9,0l-0.9,0l-0.8,0" id="svg_14" stroke-width="2" stroke="#000" fill="none"/>
  <path t="44044,44050,44064,44086,44086,44103,44103,44103,44120,44120,44136,44136,44153,44154,44154,44170,44170,44186,44186,44203,44203,44220,44220,44236,44254,44278,44278,44289,44303,44320,44320,44336,44353,44353,44370,44386,44403,44403" d="m3,158c4.1285,0.94284 5.1,1 6,1c0.8715,0 1.764,0 2.676,0c0.648,0 1.82762,-0.06625 2.62667,0.01067c0.87393,0.08412 1.69388,0.57176 2.69733,0.82266c0.78639,0.19662 1.39999,0.16441 2.4,0.16667c0.8,0.0018 1.8,0 2.6,0c1,0 1.97917,0 2.83333,0c0.86217,0 1.76667,0 2.6875,0c0.96317,0 1.65383,0 2.722,0c0.85717,0 1.75717,0 2.55717,0c0.836,0 1.85268,-0.00365 2.54733,0c1.01671,0.00534 1.85267,0.284 2.65267,0.83333l0.8,0.16534" id="svg_15" stroke-width="2" stroke="#000" fill="none"/>
  <path t="53103,53186,53206,53221,53238,53255,53270,53288,53305,53305,53320,53320,53337,53337,53355,53355,53355,53370,53370,53370,53387,53387,53387,53405,53405,53405,53420,53420,53437,53438,53438,53455,53455,53470,53487,53487,53504,53505,53521,53521,53538,53554,53555,53555,53570,53570,53587,53587,53605,53605,53620,53620,53620,53637,53637,53637,53654,53655,53670,53671,53687,53687,53687,53704,53705,53705,53720,53720,53737,53737,53738,53754,53755,53755,53770,53770,53788,53788,53788,53805,53805,53820,53821,53837,53838,53838,53838,53854,53855,53855,53870,53870,53871,53887,53888,53888,53904,53905,53905,53905,53919,53919,53936,53936,53936,53936,53953,53953,53953,53969,53969,53986,53986,53987,54003,54003,54003,54020,54020,54020,54037,54037,54037,54037,54053,54054,54054,54069,54069,54070,54070,54070,54086,54086,54086,54086,54103,54104,54104,54119,54119,54119,54120,54136,54136,54136,54153,54153,54154,54169,54170,54170,54170,54186,54186,54187,54203,54203,54204,54219,54236,54237,54237,54254,54254,54254,54269,54269,54270,54286,54287,54303,54303,54304,54304,54319,54319,54320,54336,54337,54337,54353,54353,54353,54369,54369,54370,54370,54386,54386,54403,54404,54404,54419,54420,54420,54437,54437,54454,54469,54469,54470,54486,54487,54504,54519,54520,54536,54537,54537,54553,54554,54554,54569,54570,54588,54588,54604,54604,54604,54620,54636,54637,54653,54754,54755" d="m3,143c1.8,0 2.7,0 3.6,0c0.9,0 1.8,0 2.7,0c0.9,0 1.7,0 2.58533,0c0.95067,0 1.716,0 2.71917,0c0.6315,0 1.81683,0 2.62083,0c0.822,0 1.85333,0 2.54933,0c0.90933,0 1.91067,0 2.74617,0c0.58367,0 1.77883,0 2.65783,0c0.807,0 1.85333,0 2.62667,0c0.964,0 1.7155,0 2.512,0c1.221,0 2.021,0 2.93,0c0.91933,0 1.75333,-0.03587 2.73133,0.00017c0.77557,0.02858 1.66205,0.38243 2.36866,0.64717c0.89106,0.33385 1.986,0.35266 2.658,0.35266c0.744,0 1.85183,0 2.74283,0c0.909,0 1.65658,-0.02089 2.65184,0.00133c0.80055,0.01787 1.79836,0.22537 2.62083,0.49867c0.66307,0.22034 1.6617,0.43713 2.47917,0.47917c0.81516,0.04193 1.81467,0.02083 2.68933,0.02083c1.01067,0 1.81067,0 2.81067,0c0.81067,0 1.45716,0 2.684,0c0.816,0 1.63212,-0.01399 2.63067,0.00133c0.66471,0.01019 1.6869,0.16049 2.496,0.42401c0.87639,0.28543 1.87186,0.5118 2.68933,0.55383c0.81516,0.04193 1.81467,0.02083 2.47916,0.02083c1.02084,0 1.82084,0 2.62083,0c1,0 1.8,0 2.80134,0c0.83466,0 1.76533,0 2.56033,0c0.88499,0 1.52499,0 2.921,0c0.732,0 1.456,0 2.784,0c0.564,0 1.54801,0.00272 2.5,0c0.79051,-0.00226 1.65055,0.01389 2.83334,-0.16667c0.60307,-0.09206 1.47334,-0.35728 2.31467,-0.54933c0.99525,-0.22719 1.6852,-0.27357 2.852,-0.284c0.79047,-0.00705 1.644,0 2.23467,0c1.19733,0 2.07783,0 2.91333,0c1,0 1.6645,0 2.68533,0c0.81067,0 1.68533,0 2.68533,0c0.8355,0 1.716,0 2.61467,0c0.89999,0 1.8,0 2.7,0c0.9,0 1.8,0 2.4,0c1.20267,0 1.82133,0 2.81433,0c1.119,0 1.95367,0 2.83633,0c0.44933,0 1.344,0 2.616,0c0.76267,0 1.79167,0 2.42434,0c1.209,0 2.10899,0 2.709,0c1.2,0 2.1,0 2.7,0c0.89999,0 2.10001,0 2.7,0c0.90001,0 2.10001,0 2.7,0c0.90001,0 2.10001,0 2.70001,0c0.89999,0 1.8,-0.00522 2.69983,0.00017c0.88954,0.00533 1.75658,-0.01314 2.7785,0.22116c0.68732,0.15758 1.41109,0.61467 2.44249,0.75784c1.01266,0.14058 1.75117,0.02083 2.58817,0.02083c1.19084,0 1.7865,0 2.65501,0c1.06932,0 1.77882,0 2.63148,0c1.00717,0 1.87651,0 2.93784,0c0.63467,0 1.66667,0 2.36134,0c1.2625,0 2.04399,0 2.75349,0c0.97318,0 1.77716,-0.00006 2.59917,0c1.03149,0.00009 1.97615,-0.00478 2.722,0.08533c0.87749,0.106 1.88086,0.34224 2.58,0.48933c0.68221,0.14352 1.87807,0.37114 2.82933,0.41467c0.82054,0.03755 1.632,0.01067 2.50667,0.01067c0.99867,0 1.81467,0 2.63066,0c0.99734,0 1.83734,0 2.8,0c1.05067,0 1.72,-0.00174 2.48534,0c0.99419,0.00226 1.93124,0.04312 2.77333,0.42534c0.81126,0.36823 1.646,0.56424 2.62534,0.57466c0.81062,0.00862 1.68541,-0.01126 2.68401,0.00133c0.81616,0.0103 1.64655,0.02135 2.62933,0.28267c0.65735,0.17479 1.65948,0.65089 2.49649,0.7115c0.95569,0.06921 1.69019,0.00095 2.42216,0.0045c1.09605,0.00534 1.96935,0.284 2.65334,0.716l0.94,0.248l1.008,0.036l0.72,0.036" id="svg_18" stroke-width="2" stroke="#000" fill="none"/>
  <path t="55671,55902,55962,55975,55989,56006,56020,56037,56054,56054,56070,56070,56086,56087,56104,56104,56119,56120,56120,56120,56137,56137,56137,56137,56154,56154,56154,56170,56170,56170,56170,56186,56187,56187,56204,56204,56204,56204,56220,56220,56220,56237,56237,56237,56237,56254,56254,56254,56254,56254,56270,56270,56270,56270,56270,56270,56287,56287,56287,56287,56304,56304,56304,56304,56320,56320,56320,56320,56337,56337,56337,56337,56337,56354,56354,56354,56354,56354,56370,56370,56370,56370,56370,56387,56387,56387,56404,56404,56404,56404,56404,56404,56419,56419,56419,56419,56436,56436,56437,56437,56452,56452,56452,56469,56469,56469,56470,56486,56486,56486,56486,56502,56502,56502,56519,56519,56519,56519,56536,56537,56552,56552,56552,56569,56570,56570,56570,56587,56587,56587,56602,56602,56619,56619,56619,56636,56636,56652,56652,56669,56669,56686,56686,56686,56702,56702,56719,56719,56737,56737,56737,56752,56753,56769,56769,56786,56786,56786,56786,56802,56802,56803,56803,56820,56820,56820,56839,56839,56839,56852,56852,56869,56869,56869,56870,56886,56886,56887,56902,56902,56919,56919,56920,56936,56936,56937,56937,56952,56952,56952,56969,56969,56969,56987,56987,56987,57002,57002,57003,57003,57019,57020,57020,57037,57037,57037,57037,57053,57053,57053,57069,57069,57070,57070,57070,57089,57089,57089,57089,57089,57105,57105,57105,57105,57122,57122,57122,57122,57139,57139,57139,57139,57154,57154,57154,57154,57154,57171,57171,57172,57172,57172,57189,57189,57189,57189,57205,57205,57205,57205,57205,57220,57220,57220,57220,57237,57237,57237,57237,57237,57255,57255,57255,57255,57272,57272,57272,57272,57288,57289,57289,57289,57305,57305,57305,57305,57305,57321,57322,57322,57322,57322,57339,57339,57339,57339,57339,57355,57355,57355,57355,57371,57371,57372,57372,57372,57372,57388,57389,57389,57389,57389,57389,57405,57405,57405,57405,57421,57422,57422,57439,57439,57439,57439,57455,57455,57471,57488,57488,57488,57505,57505,57522,57522,57539,57626,57636" d="m293,155c1.79999,0 2.70001,0 3.60001,0c0.89999,0 1.79999,0 2.69998,0c0.90002,0 1.70001,0 2.58536,0c0.95065,0 1.71597,0 2.71466,0c0.79999,0 1.80267,0 2.44165,0c1.29169,0 1.92767,0 2.61969,0c0.724,0 2.17203,-0.00635 2.85199,0.00133c0.94516,0.01067 1.54126,-0.02194 2.80399,0.28267c0.71542,0.17258 1.44498,0.47594 2.3255,0.5945c1.01297,0.1364 1.74249,0.11505 2.47452,0.12018c1.06113,0.00743 2.04666,0.00133 2.672,0.00133c1.21066,0 2.11066,0 2.71066,0c0.89999,0 2.10132,0 2.71066,0c0.9465,0 1.95599,0 2.67468,0c1.1355,0 1.91916,0 3.11465,0c0.80267,0 1.62134,0 2.04166,0c0.87268,0 2.29169,0 2.80084,0c1.05835,0 1.5975,0 2.67084,0c0.52417,0 1.98666,0 2.832,0c0.75732,0 1.79834,0 2.82132,0c0.71735,0 1.45868,0 2.20801,0c1.45868,0 2.14157,-0.00964 2.79999,0.01067c0.97867,0.0302 1.99335,0.14796 2.71201,0.27333c0.76154,0.13284 1.55701,0.30983 2.39999,0.43201c1.33063,0.19284 2.26584,0.23111 2.73868,0.248c0.94907,0.03391 1.89066,0.03532 2.80801,0.036c0.88,0.00064 1.72,0 2.51999,0c0.76001,0 2.16422,-0.00916 2.832,0.01067c1.02512,0.03041 2.14893,0.14966 2.98401,0.27333c0.44101,0.06531 1.35074,0.22089 2.2825,0.36334c0.46512,0.07111 1.82559,0.24423 2.68649,0.2955c0.81937,0.0488 1.60001,0.0549 2.69501,0.05716c1.00949,0.00208 1.64581,0 2.56534,0c1.20132,0 1.80133,0 2.70132,0c1.20016,0 1.8045,0 2.73599,0c0.64932,0 2.048,0 2.78934,0c0.74933,0 1.49066,0 2.55316,0c0.9855,0 1.61084,0 2.8215,0c0.89551,0 1.76401,0 2.31467,0c1.23267,0 1.91068,0 3.10684,0c0.81448,0 1.38916,0 2.57849,0c0.89999,0 1.5,-0.0005 2.39999,0c1.19867,0.00067 1.79285,-0.03313 2.64285,0.05716c1.04272,0.11075 1.91373,0.5222 2.95715,0.77617c0.7876,0.19171 1.60001,0.166 2.60001,0.16667c0.79999,0.00053 1.79999,0 2.60001,0c1,0 1.79999,0 2.79999,0c0.79999,0 1.60062,-0.03061 2.60001,0.0045c0.80124,0.02815 1.59814,0.22221 2.39999,0.4955c0.99774,0.34004 1.79944,0.4808 2.60001,0.49867c0.99976,0.02231 1.79999,0.00133 2.80267,0.00133c0.86932,0 1.93066,0 2.56665,0c0.69202,0 1.7825,0 2.86401,0c0.68134,0 1.64581,0 2.26215,0c1.20435,0 2.09384,0 2.66852,0c1.31448,0 2,0 2.83466,0c1.01035,0 1.67334,0 2.73468,0c0.97198,0 1.66666,0 2.36133,0c1.26233,0 2.03333,0 2.90265,0c1.00717,0 1.85983,0 2.82434,0c0.82501,0 1.42502,0 2.745,0c0.716,0 1.448,0 2.172,0c1.328,0 2.15152,0 2.87601,0c1.20667,0 2.01068,0 2.56,0c1.30417,0 2.01068,0 2.73517,0c1.133,0 1.80002,0 2.87552,0c0.73199,0 1.79315,0 2.45749,0c0.9465,0 2.15717,0 2.75717,0c0.89999,0 1.79999,0 2.70016,0c0.91049,0 1.53583,0 2.86649,0c0.72,0 1.48001,0 2.28,0c0.84,0 2.1745,0 2.63602,0c0.93201,0 1.85599,0 2.74799,0c1.2265,0 1.9595,0 2.6485,0c1.00351,0 2.04236,0 2.77802,0c0.76367,0 1.54733,0 2.74283,0c0.79868,0 1.58932,0 2.36401,0c1.46933,0 2.15466,0 2.832,0c0.70132,0 1.45865,0 2.76797,0c0.99402,0 1.51202,0 2.56,0c0.51801,0 1.97601,0 2.82135,0c0.75732,0 1.45865,0 2.82135,0c0.71863,0 1.4693,0 2.24396,0c0.79071,0 1.9895,0 2.79388,0c0.81628,0 1.65265,0 2.96216,0c0.91595,0 1.38147,0 2.3125,0c0.91095,0 2.1875,0 2.95148,0c0.70801,0 1.38397,0 2.73602,0c0.71729,0 1.45862,0 2.20801,0c1.45862,0 2.14264,0 2.81067,0c1.02448,0 2.14795,0 2.98395,0c0.44055,0 1.3515,0 2.28253,0c1.38147,0 1.82666,0 2.69098,0c0.83636,0 1.65265,0 2.85718,0c0.79999,0 1.59998,0 2.40002,0c0.79999,0 2.00018,-0.00571 2.8045,0.0045c0.81641,0.01036 1.65533,0.02426 2.96216,0.16217c0.9223,0.09734 1.39478,0.18718 2.375,0.33333c0.50488,0.07527 1.54309,0.23511 2.625,0.33333c1.11304,0.10104 1.67676,0.11726 2.79163,0.14584c0.54431,0.01395 1.58704,0.02016 2.54169,0.02083c0.84399,0.00058 1.9375,0 2.58649,0c1.2135,0 1.81354,0 2.7135,0c1.20001,0 1.79871,0 2.6792,0c0.83545,0 2.05914,-0.00198 2.85913,0c0.909,0.00226 1.82764,0.16862 2.49768,0.42534c0.76447,0.29289 1.76276,0.54201 2.56403,0.57016c0.99805,0.03506 1.76398,0.0045 2.84283,0.0045l0.85681,0l0.27899,0" id="svg_19" stroke-width="2" stroke="#000" fill="none"/>
  <path t="59207,59359,59367,59395,59426,59434,59455,59471,59489,59506,59506,59520,59520,59520,59537,59553,59553,59570,59570,59570,59570,59587,59587,59587,59603,59603,59603,59620,59620,59637,59637,59653,59653,59670,59670,59687,59687,59687,59703,59703,59703,59703,59720,59720,59720,59737,59737,59753,59753,59753,59770,59770,59787,59787,59787,59803,59803,59803,59820,59820,59837,59837,59837,59853,59853,59870,59870,59887,59887,59887,59903,59903,59903,59920,59937,59937,60055,60055" d="m290,170c1.5,1.47917 2.32336,1.91 2.97467,2.42534c0.6666,0.52745 1.44269,0.66414 2.05066,1.14932c0.62451,0.49838 1.62958,0.40417 2.45999,0.71068c0.74579,0.27527 1.70956,0.82481 2.30402,1.10399c0.71957,0.33792 1.72363,0.569 2.69733,0.89467c0.77167,0.2581 1.67731,0.56996 2.47049,0.66333c0.8512,0.1002 1.45505,0.0802 2.64151,0.33801c0.89066,0.19353 1.45105,0.40163 2.47983,0.8145c0.90698,0.36398 1.5159,0.63367 2.52151,0.85199c0.79688,0.173 1.80365,0.60954 2.37915,1.04817c0.86179,0.65685 1.54105,0.92047 2.50616,1.28534c0.74359,0.28113 1.50595,0.73311 2.336,1.11465c0.68616,0.3154 1.8201,0.70425 2.48401,0.90001c0.69339,0.20444 1.40283,0.3597 2.65167,0.8c0.78021,0.27509 1.42865,0.61098 2.44299,1.09866c0.59692,0.287 1.59741,0.65031 2.39999,0.776c0.79773,0.12492 1.80637,0.37793 2.436,0.636c0.93344,0.38258 1.70819,0.71234 2.53867,0.95332c1.04913,0.30443 1.77478,0.3394 2.62085,0.48868c1.01511,0.17909 1.78857,0.5777 2.60449,0.78065c0.78836,0.19611 1.61319,0.20573 2.60001,0.51933c0.8125,0.25821 1.80249,0.55479 2.63599,0.67267c0.93207,0.13181 1.71405,0.33728 2.53867,0.54933c1.05548,0.27142 1.7626,0.38857 2.56369,0.42084c1.02493,0.04129 1.86298,0.2885 2.547,0.7205l0.94,0.248l0.69064,0.03467" id="svg_20" stroke-width="2" stroke="#000" fill="none"/>
  <path t="61539,61598,61615,61630,61638,61653,61670,61687,61688,61688,61703,61703,61703,61703,61720,61720,61720,61737,61737,61737,61737,61737,61753,61753,61753,61770,61770,61787,61787,61787,61803,61803,61820,61820,61837,61837,61853,61853,61853,61870,61870,61887,61887,61887,61903,61903,61903,61920,61920,61937,61937,61937,61953,61953,61953,61953,61970,61970,61970,61987,61987,62003,62003,62003,62020,62020,62020,62037,62037,62037,62053,62053,62070,62070,62087,62087,62087,62103,62103,62120,62120,62137,62137,62153,62153,62170,62170,62187,62187,62187,62203,62203,62203,62220,62220,62237,62237,62237,62254,62254,62270,62270,62270,62287,62287,62303,62303,62303,62320,62320,62337,62337,62353,62353,62370,62370,62387,62387,62499" d="m358,195c1.70001,0 2.70001,0 3.60001,0c0.89999,0 1.79999,0 2.60132,0c0.96533,0 1.65601,0 2.57068,0c0.87082,0 1.88934,0 2.61334,0c0.73199,0 1.79333,0 2.78931,0c0.6507,0 1.992,0 2.70935,0c0.74133,0 1.49066,0 2.23199,0c1.39734,0 2.03732,0 2.92233,0c1.04016,0 1.94083,0 2.96167,0c0.79999,0 1.60001,0 2.60001,0c0.79999,0 1.79999,0 2.60001,0c1,0 1.80002,-0.00667 2.79999,0c0.80005,0.00534 1.61118,0.0464 2.60449,0.35266c0.63968,0.19724 1.55835,0.51295 2.34818,0.59018c0.8194,0.08012 1.88068,0.05716 2.81134,0.05716c0.83466,0 1.84048,0 2.47198,0c1.18552,0 2,0 2.57468,0c1.18933,0 2.08932,0 2.68933,0c0.89999,0 2.09866,0 2.68933,0c0.85352,0 2.12534,0 2.78983,0c1.02084,0 1.83151,0 2.70618,0c1,0 1.83551,0 2.41916,0c1.19516,0 2.07419,0 2.88116,0c1.04501,0 1.89749,-0.02335 2.67599,0.0045c0.80124,0.02866 1.76236,0.20607 2.55301,0.42084c0.77844,0.21146 1.81293,0.53069 2.668,0.57333c0.95215,0.04749 1.71866,0.00133 2.71735,0.00133c0.79999,0 1.79868,0 2.564,0c1.09235,0 1.89069,-0.0067 2.88934,0.00133c0.63339,0.0051 1.65335,0.00253 2.61331,0.16534c0.82803,0.14044 1.49057,0.49265 2.53336,0.71182c0.78906,0.16585 1.79999,0.12151 2.59998,0.12151c0.80002,0 1.8045,0 2.65717,0c0.96417,0 1.76819,0 2.59018,0c1.03116,0 1.93182,0 2.95267,0c0.79999,0 1.60001,0 2.60001,0c0.79999,0 1.79999,0 2.60001,0c0.99982,0 1.77914,0 2.77866,0c0.77399,0 1.67401,0 2.53732,0l0.96317,0" id="svg_21" stroke-width="2" stroke="#000" fill="none"/>
  <path t="63836,63850,63850,63858,63872,63887,63887,63903,63903,63920,63920,63938,63938,63954,63954,63970,63987,63987,64004,64004,64004,64020,64021,64037" d="m488,180c-3.94266,5.77333 -4.44952,6.3763 -4.91599,7.19867c-0.39807,0.70181 -1.25006,0.95761 -1.78403,1.563c-0.58087,0.65858 -0.9772,1.65685 -1.784,2.07033c-0.64468,0.33041 -1.65707,0.71783 -2.10532,1.35333c-0.54373,0.77089 -1.008,1.40666 -1.71066,2.11467c-0.69736,0.70265 -1.22086,1.22084 -1.86667,1.86667c-0.65866,0.65868 -1.18066,1.18066 -1.948,1.948l-0.58084,0.58083l-0.60001,0.60451" id="svg_22" stroke-width="2" stroke="#000" fill="none"/>
  <path t="64713,64726,64726,64726,64726,64726,64726,64742,64742,64754,64755,64772,64786,64786,64803,64803,64820,64836,64836,64853,64870,64886,64886,64903,64920,64936,64958,64958,64970,65018,65078,65230,65282,65290" d="m475,206c7.69217,-7.035 8.17468,-7.53635 8.60516,-8.015c0.39722,-0.44168 1.06998,-1.2446 1.61749,-1.925c0.8074,-1.0034 1.37708,-1.60802 1.97601,-2.25999c0.53537,-0.58278 0.84674,-1.57222 1.51117,-2.10001c0.59229,-0.47049 1.54614,-0.98575 2.08884,-1.5c0.71924,-0.68156 1.30365,-1.2977 1.90134,-1.89999c0.69202,-0.69734 1.03583,-1.45897 1.46664,-2.3c0.3403,-0.66434 1.06631,-1.39638 1.83334,-1.83333c0.77988,-0.44426 1.03882,-1.30023 1.7045,-1.80951c0.67749,-0.51831 1.34818,-1.0045 2.12885,-1.52383l0.388,-0.71165l0.71698,0.23099l-0.43832,0.64734" id="svg_23" stroke-width="2" stroke="#000" fill="none"/>
  <path t="66807,66842,66850,66858,66872,66886,66886,66903,66903,66920,66920,66936,66936,66953,66953,66970,66970,66970,66986,66986,66986,67003,67003,67020,67020,67036,67036,67053,67053,67053,67070,67070,67070,67070,67070,67086,67086,67086,67103,67103,67120,67120,67136,67136,67136,67153,67153,67170,67186,67186,67186,67203,67203,67203,67220,67220,67220,67236,67236,67236,67253,67253,67253,67270,67270,67270,67303,67303,67303,67303,67303,67303,67320,67320,67320,67320,67320,67320,67320,67335,67335,67336,67353,67353,67353,67369,67370,67370,67386,67386,67386,67403,67403,67403,67420,67420,67435,67436,67453,67470,67562,67572" d="m487,198c0.20001,0 1.1044,0.08868 2,0c0.8457,-0.08374 1.32318,-0.90607 2.18533,-0.98933c0.92642,-0.08948 1.69867,-0.01067 2.65067,-0.01067c0.76532,0 1.76401,0 2.564,0c1,0 1.80002,0 2.80017,0c0.82068,0 1.48517,0 2.48383,0c0.81601,0 1.63202,0 2.85886,0c0.85266,0 1.85715,0 2.65717,0c1,0 1.79999,0 2.79999,0c0.61349,0 1.5715,0 2.5,0c0.75201,0 1.57599,0 2.42401,0c0.82397,0 1.9115,0 2.76801,0c0.90399,0 1.90796,-0.00053 2.70801,0c1,0.00067 1.81696,-0.03937 2.79999,0.22133c0.81885,0.21715 1.38477,0.57666 2.39551,0.72151c0.9115,0.13063 1.92529,0.05716 2.73779,0.05716c0.93866,0 1.7757,-0.00224 2.66669,0c0.89551,0.00226 1.77502,-0.03488 2.83331,0.16667c0.72485,0.13805 1.375,0.48526 2.58801,0.71182c0.52612,0.09827 1.35327,0.11617 2.41199,0.12151c0.94135,0.00475 1.61932,0 2.85468,0c0.56934,0 1.53082,-0.00089 2.64532,0c0.84003,0.00067 1.76007,0.00719 2.25,0.02083c1.04028,0.02896 1.59113,0.04999 2.75,0.14584c1.23206,0.10191 1.85876,0.18408 2.48535,0.25867c1.22308,0.1456 1.8042,0.22456 2.35736,0.29066c1.41583,0.1692 2.45801,0.22955 3.25867,0.33667c0.99231,0.13275 1.79651,0.39247 2.6698,0.59467c0.89105,0.2063 1.79022,0.31441 2.65948,0.342c1.06885,0.03392 1.78339,0.01067 2.46136,0.01067c1.19598,0 2,-0.00006 2.82202,0c1.03094,0.00009 1.74677,-0.16614 2.78595,0.16667c0.6922,0.22168 1.56671,0.79733 2.3667,0.83333l0.99866,-0.00133l0.71466,-0.28267" id="svg_24" stroke-width="2" stroke="#000" fill="none"/>
  <path t="70399,71130,71138,71138,71155,71155,71170,71186,71186,71203,71203,71220,71220,71236,71236,71253,71270,71286,71286,71303,71303,71303,71320,71320,71336,71336,71353,71353,71370,71370,71386,71386,71403,71403,71420,71420,71436,71436,71453,71453,71470,71486,71486,71486,71503,71520,71536,71553,71570,71570,71586,71614,71815,71823,71839,71855,71871,71871,71887,71887,71887,71887,71904,71904,71921,71921,71937,71937,71937,71953" d="m354,194c0,0.20134 0,1.16667 0,1.82533c0,1.008 0,1.87016 0,2.6955c0,0.96451 0,1.68983 0,2.679c0,0.96417 -0.08466,1.93051 0.08533,2.68417c0.17905,0.79388 0.7486,1.60732 0.89383,2.59517c0.12009,0.81682 0.02084,1.84233 0.02084,2.54166c0,0.97917 -0.05624,1.78827 0.08533,2.57918c0.1824,1.01892 0.64694,1.78107 0.82935,2.79999c0.14157,0.79091 0.08533,1.79984 0.08533,2.57918c0,0.85416 -0.02957,1.77412 0.00449,2.67799c0.0282,0.74866 0.29388,1.73775 0.57019,2.54283c0.27295,0.79524 0.30652,1.81122 0.59198,2.63333c0.29224,0.84164 0.7804,1.64793 0.82266,2.34134c0.06528,1.07079 0.1694,1.99518 0.436,2.65067c0.28232,0.69414 0.56393,1.76401 0.57468,2.67467c0.01062,0.89999 0.44232,1.6118 0.83334,2.5c0.28952,0.65764 0.17624,1.60005 0.16666,2.5c-0.01044,0.97934 -0.6106,1.49466 -1.5,1.5c-0.91064,0.00546 -1.82361,-0.03587 -2.54166,0.02083c-1.13089,0.08931 -1.91071,0.33298 -2.45834,0.47917c-0.81555,0.21771 -2.04172,0.4626 -2.68933,0.48933c-1.00989,0.04169 -1.81067,0.03149 -2.81067,0.17734l-0.78934,0.25867l-0.72534,0.29066l-0.96448,0.284" id="svg_25" stroke-width="2" stroke="#000" fill="none"/>
  <path t="73443,73735,73743,73756,73756,73771,73786,73786,73786,73786,73803,73803,73819,73819,73836,73836,73853,73853,73869,73869,73886,73903,73903,73919,73919,73936,73953,73953,74119,74139,74155,74171,74188,74188,74204,74220,74273,74273,74297,74317,74446" d="m357,216c0.20001,0 1.15347,0.18134 2,-0.16667c0.67108,-0.27589 1.44754,-0.7565 2.33334,-1.16666c0.70056,-0.32439 1.43469,-0.85133 1.98398,-1.09868c1.19299,-0.53719 1.89246,-0.50018 2.88251,-0.78949c0.80133,-0.23416 1.59512,-0.83701 2.30017,-1.25768c0.78433,-0.46797 1.73538,-0.38416 2.61465,-0.80617c0.64575,-0.30994 1.23279,-1.23569 2.052,-1.54799c0.7941,-0.30273 1.85364,-0.32924 2.42267,-0.77734c0.77536,-0.61061 1.45709,-1.10596 2.21066,-1.47333c0.83411,-0.40663 0.9426,-1.35419 1.2045,-2.2115c0.23608,-0.77281 0.95984,-1.41293 0.99103,-2.05634c0.04901,-1.01109 0.41336,-1.77545 0.83783,-2.64816c0.3667,-0.75391 0.66666,-1.5 1.13065,-2.39999l0.0405,-0.89551" id="svg_26" stroke-width="2" stroke="#000" fill="none"/>
  <path t="75628,76258,76271,76288,76303,76303,76319,76336,76336,76353,76353,76369,76386,76386,76403,76419,76436,76436,76453,76453,76469,76486,76503,76503,76519,76519,76536,76554,76570,76586,76603,76619,76636,76653,76669,76690,76706,76726,76742,76770,76794,76818,76838" d="m405,199c0.28265,0.80133 0.00281,1.7 0,2.52083c-0.0033,0.96317 0.05087,1.86971 -0.35266,2.722c-0.38379,0.81061 -0.64508,1.51433 -0.64734,2.40984c-0.00217,0.86334 0,1.84734 0,2.66867c0,0.85333 0,1.79333 0,2.77867c0,0.89999 -0.02051,1.6701 -0.35266,2.55266c-0.26581,0.70622 -0.62927,1.71075 -0.64734,2.54733c-0.01944,0.89996 -0.06134,1.69437 -0.42532,2.62534c-0.27286,0.69791 -0.56424,1.65366 -0.57468,2.57466c-0.01019,0.89995 0.12402,1.80861 -0.00015,2.69984c-0.11172,0.80188 -0.90567,1.28703 -1.42517,1.87483c-0.51511,0.58282 -0.66415,1.4427 -1.14935,2.05066c-0.49838,0.6245 -0.42532,1.57468 -0.42532,2.47467l-0.01068,0.88933l-0.564,0.636l-0.42084,0.67917" id="svg_27" stroke-width="2" stroke="#000" fill="none"/>
  <path t="81169,81183,81183,81191,81205,81219,81219,81236,81253,81253,81270,81270,81286,81303,81319,81319,81336,81336,81353,81353,81369,81386,81403,81403,81419,81436,81436,81452,81452,81469,81469,81486,81502,81502,81519,81519,81536,81536,81536,81552,81569,81569,81586,81602,81602,81619,81619,81723,81811" d="m370,236c5.77335,0.91467 6.67749,0.99774 7.60001,1c0.92084,0.00224 1.884,0 2.57465,0c1.07269,0 1.99585,-0.06166 2.82535,0.02083c0.84186,0.08372 1.52725,0.72612 2.39999,0.94318c0.87848,0.21848 1.76666,0.036 2.60001,0.036c0.97867,0 1.75266,0 2.65268,0c0.86331,0 1.82648,0 2.758,0c0.91064,0 1.76398,0 2.70398,0c0.88535,0 1.64252,0 2.54251,0c0.94415,0 1.93832,0 2.68567,0c0.89999,0 1.85983,0 2.62784,0c1.03915,0 1.81467,0 2.86267,0c0.70499,0 1.505,0 2.54132,0c0.94666,0 1.79999,0 2.73999,0c0.88535,0 1.64252,0 2.53802,0l0.86331,0l0.96317,0l0.92084,0" id="svg_29" stroke-width="2" stroke="#000" fill="none"/>
  <path t="83065,83079,83079,83079,83088,83104,83105,83119,83136,83152,83169,83187,83187,83203,83203,83203,83219,83219,83236,83236,83252,83252,83269,83269,83286,83286,83302,83319,83336,83352,83369,83386,83386,83402,83402,83419,83438,83515,83611" d="m371,244c8.34933,0 9.19534,0 10.08932,0c1.02533,0 1.91068,0 2.71066,0c0.90002,0 1.80005,-0.00526 2.70001,0c0.91074,0.00534 1.81461,0.23927 2.52084,0.5c0.97034,0.35822 1.77859,0.4808 2.57916,0.49867c0.99976,0.02231 1.79999,0.00133 2.79999,0.00133c0.80002,0 1.80002,0 2.60001,0c1,0 1.78934,0 2.83334,0c0.75598,0 1.66666,0 2.56665,0c0.89999,0 1.80002,0 2.70001,0c0.89999,0 1.65717,0 2.55267,0c0.86331,0 1.82648,0 2.74731,0l0.89999,0l0.90002,-0.00133" id="svg_30" stroke-width="2" stroke="#000" fill="none"/>
  <path t="84803,85258,85271,85288,85302,85319,85319,85338,85352,85369,85390,85410,85426,85426,85442,85458,85470,85470,85486,85502,85502,85519,85536,85536,85552,85570,85587,85587,85602,85602,85619,85620,85637,85652,85669,85670,85670,85686,85686,85686,85702,85703,85719,85720,85736,85737,85737,85752,85752,85771,85786,85786,85786,85802,85802,85802,85819,85836,85836,85852,85852,85869,85886,85886,85886,85902,85902,85902,85919,85937,85937,85952,85953,85969,85986,85986,86002" d="m394,245c-1.22134,0.87866 -1.78729,1.38274 -2.00134,2.19867c-0.21033,0.80179 -1.22229,1.06041 -1.79865,1.60266c-0.70966,0.66766 -1.05756,1.55945 -1.55267,2.146c-0.55786,0.66087 -1.00046,1.35643 -1.64734,2.05267c-0.56049,0.60327 -0.88385,1.44133 -1.284,2.2c-0.45273,0.85838 -0.67596,1.56203 -1.23685,2.3c-0.59018,0.77652 -1.17923,1.19995 -1.87915,1.89999c-0.69989,0.69998 -1.24472,1.29916 -1.60001,2.10001c-0.35455,0.79916 -0.84503,1.60974 -1.08401,2.38535c-0.23984,0.77838 -0.55688,1.50769 -1.21597,2.35748c-0.45822,0.59076 -1.22601,1.23141 -1.65186,2.06168c-0.43027,0.8389 -0.92224,1.52075 -1.39999,2.10001c-0.64432,0.78122 -0.95392,1.43848 -1.53217,2.11017c-0.69284,0.80478 -1.52829,1.17328 -2.09448,1.80682c-0.57312,0.64133 -1.01416,1.68225 -1.3215,2.27399c-0.39072,0.75226 -0.98972,1.65674 -1.5,2.20319c-0.68643,0.73508 -1.19839,1.36899 -1.61069,2.03732c-0.47281,0.76648 -1.06177,1.57315 -1.58932,2.14316c-0.50513,0.54578 -1.36401,1.38486 -2,2.02084c-0.60001,0.60001 -1.20267,1.19736 -1.79999,1.79999c-0.60269,0.60803 -1.19839,1.36768 -1.61069,2.03601c-0.47281,0.76648 -1.06177,1.57315 -1.58932,2.14316c-0.50513,0.54578 -1.36401,1.38486 -2,2.02084c-0.60001,0.60001 -1.13037,1.29297 -1.79999,1.71466c-0.83176,0.5238 -1.5,0.99518 -1.90002,1.63718l-0.59549,0.89099" id="svg_31" stroke-width="2" stroke="#000" fill="none"/>
  <path t="89507,89882,89906,89911,89937,89957,90198,90218,90242,90258,90269,90288,90288,90302,90319,90319,90338,90361,90361,90385,90391,90405,90419,90438,90455,90455,90475,90488,90506,90522,90536,90654,90669,90677,90677,90685,90701,90718,90718,90734,90734,90751,90773,90773,90805,90817,90817,90841,90857,90877,90937,90970,90979,90990,91013,91021,91037,91051,91068,91084,91085,91101,91101,91101,91118,91118,91136,91136,91136,91153,91153,91154,91170,91170,91187,91187,91204,91346,91346,91359,91377,91387,91387,91402,91402,91419,91419,91419,91435,91435,91435,91452,91452,91469,91485,91485,91502,91519,91519,91535,91552,91569,91585,91602,91602,91619,91641,91641,91665,91689,91705,91709,91719,91735,91735,91752,91752,91769,91769,91785,91785,91802,91837,91837" d="m208,352c0,-0.87833 0.37019,-0.08154 -0.08533,0.71466c-0.38608,0.67487 -0.81244,1.31143 -0.91484,2.26367c-0.09314,0.86609 -1.15385,0.69901 -1.87849,1.24301c-0.64372,0.48325 -1.24736,0.96951 -1.82133,1.48315c-0.73532,0.65802 -1.40082,1.39471 -1.90001,1.89551c-0.69662,0.69885 -1.33784,1.49237 -1.39867,2.19998c-0.07709,0.89673 0.00061,1.81961 -0.42667,2.60001c-0.45038,0.82257 -0.57466,1.70001 -0.57466,2.60001c0,0.79999 0,1.70001 0,2.60001c0,0.89999 -0.09547,1.84454 0.284,2.60001c0.43558,0.86719 1.17793,1.54825 1.54933,0.79999c0.36319,-0.73172 0.2457,-1.6886 0.66667,-2.52084c0.3997,-0.79019 0.38707,-1.70081 0.7215,-2.45764c0.34943,-0.79077 1.1785,-1.42151 1.7785,-2.02151c0.60001,-0.60001 1.1974,-1.46579 2,-1.83334c0.74272,-0.34015 1.7,-0.16666 2.60001,-0.16666c0.89999,0 2.04208,-0.1824 2.37917,0.52084c0.37566,0.78369 0.79561,1.41577 1.01633,2.18365c0.24738,0.86069 0.0045,1.7955 0.0045,2.6955c0,0.90451 0,1.76666 0,2.62085c0,0.97916 0,1.77914 0,2.57916c0,1.00449 0,1.85715 0,2.82132c0,0.80402 0,1.62601 0,2.65717c0,0.68552 0,1.52017 0,2.52151c0,0.79999 0,1.79868 0,2.74283c0,0.90451 -0.13577,1.83554 0,2.61551c0.0433,0.24878 0.55899,-0.45291 1.10001,-1.27966c0.43137,-0.65918 0.8653,-1.54065 1.42082,-2.17868c0.6095,-0.70004 1.16162,-1.13055 1.82651,-1.90451c0.66165,-0.7702 1.08434,-1.36465 1.366,-2.1955c0.32832,-0.96848 0.23869,-1.7829 0.63933,-2.64282c0.42468,-0.91153 0.64667,-1.55716 0.64734,-2.51434c0.00063,-0.89551 -0.00565,-1.75885 0,-2.72198c0.00534,-0.91025 0.63432,-1.42245 1,-2.0625c0.48825,-0.85458 0.6089,-1.62125 0.916,-2.573c0.28255,-0.8757 0.88419,-1.53796 1.06317,-2.38535c0.18605,-0.8808 0.02083,-1.79999 0.02083,-2.70001c0,-0.89999 0,-1.79999 0,-2.55716c0,-0.89999 0,-1.84415 0,-2.84283c0,-0.79999 0,-1.79868 0,-2.564l0,-0.95065l0,-0.88535l0,-0.79999" id="svg_32" stroke-width="2" stroke="#000" fill="none"/>
  <path t="92702,92850,92866,92874,92898,92905,92920,92921,92942,92952,92969,92985,92985,93002,93002,93019,93019,93035,93052,93052,93069,93069,93088,93088,93105,93105,93122,93122,93138,93138,93155,93155,93172,93188,93188,93206,93206,93219,93242,93242,93258,93272,93285,93302,93322,93335,93335,93356,93356,93369,93385,93406,93422,93438,93451,93451,93468,93484,93484,93484,93501,93501,93519,93519,93534,93535,93551,93551,93568,93568,93584,93584,93601,93601,93619,93619,93635,93635,93652,93652,93669,93669,93684,93684,93701,93701,93718,93734,93751,93751,93768,93768,93784,93801,93818,93834,93834,93851,93868,93884,93901,93918,93946,93983,93983,94039,94075" d="m198,371c0,1.70001 0.00194,2.6196 -0.42534,3.39999c-0.45038,0.82257 -0.57466,1.70001 -0.57466,2.60001c0,0.79999 -0.05811,1.69949 -0.5,2.5c-0.4438,0.80399 -0.49992,1.66666 -0.5,2.5c-0.00009,0.97867 -0.01964,1.76584 -0.35266,2.65268c-0.26526,0.70639 -0.62933,1.72147 -0.64734,2.66882c-0.01329,0.69922 0,1.6785 0,2.46783c0,1.04401 0,1.836 0,2.69598c0,0.91919 0,1.91467 0,2.71469c0,0.99982 0,1.77914 0,2.77847c0,0.71701 -0.02861,1.67923 0.28534,2.50552c0.27115,0.71365 0.89423,1.64886 1.41466,2.21149c0.67439,0.72906 1.22461,1.3974 1.90001,1.8685c0.73358,0.51169 1.79796,0.4361 2.39999,0.936c0.61975,0.51459 1.35507,1.05167 2.16667,1.33334c0.79922,0.27737 1.84895,-0.00641 2.63199,0.25198c0.77373,0.25531 1.6008,0.89667 2.50134,0.91467c0.89981,0.01801 1.80075,0.03665 2.7,0c0.70175,-0.02859 1.52599,-0.53638 2.16667,-1.16666c0.66405,-0.65326 1.18066,-1.18066 1.948,-1.948c0.47467,-0.47467 1.22511,-1.15787 1.68533,-1.77069c0.54997,-0.73236 0.86546,-1.48596 1.5,-2.362c0.47488,-0.65561 0.97746,-1.41882 1.39999,-2.09998c0.57019,-0.91919 1.12103,-1.52341 1.60001,-2.30536c0.41869,-0.68353 0.92511,-1.44437 1.39999,-2.09998c0.63454,-0.87604 0.96628,-1.61768 1.5,-2.36334c0.47118,-0.65829 0.98576,-1.37646 1.40001,-2.05865c0.57901,-0.95355 1.12297,-1.55475 1.34732,-2.47803c0.16589,-0.68271 0.64046,-1.63336 0.93117,-2.44733c0.30547,-0.85526 0.12151,-1.65717 0.12151,-2.55267c0,-0.86331 0.0023,-1.82648 0,-2.74731c-0.00226,-0.89999 -0.3674,-1.74802 -0.716,-2.39999c-0.45309,-0.84741 -0.76657,-1.71005 -1.23132,-2.49551c-0.39087,-0.66058 -0.99287,-1.25528 -1.40533,-2.00449c-0.46172,-0.83865 -0.64601,-1.5 -0.64734,-2.40002l0,-0.89999" id="svg_33" stroke-width="2" stroke="#000" fill="none"/>
  <path t="95275,95411,95421,95437,95437,95454,95454,95471,95471,95471,95471,95487,95487,95487,95487,95487,95502,95502,95502,95502,95519,95519,95519,95519,95519,95535,95535,95535,95535,95552,95552,95552,95552,95552,95569,95569,95569,95569,95569,95569,95569,95585,95585,95585,95585,95585,95602,95602,95602,95602,95602,95619,95619,95619,95619,95619,95619,95635,95635,95635,95635,95635,95652,95652,95652,95652,95669,95669,95669,95669,95669,95685,95685,95685,95685,95702,95702,95702,95702,95719,95719,95719,95719,95719,95735,95735,95735,95752,95752,95752,95752,95769,95770,95770,95786,95802,95802,95838,95842" d="m330,332c0.80133,-0.19733 1.34479,0.48462 2.20132,0.91733c0.65067,0.3287 1.45737,0.80042 2.04535,1.30402c0.91541,0.78403 1.43216,1.18988 2,1.57864c0.90286,0.6181 1.91724,1.20499 2.63733,1.60001c0.73856,0.40512 1.11868,0.59503 1.86334,1c1.08997,0.59274 1.77139,0.9935 2.41666,1.39999c0.93747,0.59061 1.83478,1.20184 2.43732,1.60001c0.60812,0.40186 1.22934,0.80884 1.884,1.20001c1.0278,0.61411 1.77158,0.99698 2.51468,1.42084c0.75171,0.42877 1.84592,1.12967 2.51733,1.66583c0.68115,0.54395 1.00259,0.85599 1.6925,1.47498c1.12201,1.00665 1.53012,1.36292 1.9595,1.72101c0.88617,0.73904 1.34421,1.10614 2.2825,1.8075c0.46194,0.34531 1.37424,0.98801 2.26151,1.5405c0.83331,0.51892 1.25436,0.73328 2.02499,1.21753c1.10892,0.69684 1.78299,1.23233 2.44699,1.78781c0.33755,0.28241 1.00659,0.89142 2.14801,1.76401c0.40317,0.30823 1.27136,0.90094 1.71732,1.20001c0.89743,0.60187 1.36676,0.86865 2.616,1.79999c0.77731,0.57953 1.12286,0.89108 1.79169,1.47916c0.63635,0.55951 1.53372,1.36423 2.14166,1.83551c0.59244,0.45926 1.49942,1.0817 2.39999,1.68533c0.59961,0.40192 1.20563,0.80286 1.79999,1.23599c0.60583,0.44147 1.50775,1.17661 2.09552,1.71667c0.88052,0.80908 1.41779,1.36472 2.18332,2.12601c0.47214,0.46951 1.1749,1.15521 1.69052,1.60532c0.86105,0.75165 1.53452,1.27231 2.2515,1.79517c0.36154,0.26364 1.07385,0.79156 2.1575,1.37802c0.95633,0.51755 1.60767,0.69772 2.655,1.30948c0.49844,0.29114 1.15485,0.8447 1.76532,1.43466c0.81223,0.78491 1.38049,1.37784 1.91602,1.91336c0.72815,0.72815 1.48532,1.48532 1.98532,1.96448l0.87866,0.48483l-0.18134,-0.04932" id="svg_34" stroke-width="2" stroke="#000" fill="none"/>
  <path t="96701,96715,96715,96715,96715,96731,96731,96739,96739,96754,96754,96770,96770,96785,96785,96786,96802,96802,96802,96820,96820,96820,96835,96835,96835,96852,96852,96852,96869,96869,96869,96885,96886,96886,96902,96902,96902,96919,96919,96920,96920,96935,96935,96952,96952,96952,96969,96969,96969,96985,96985,96985,97002,97002,97002,97019,97019,97019,97035,97035,97052,97052,97069,97069,97069,97085,97085,97102,97102,97120,97120,97135,97135,97152,97152,97152,97169,97169,97185,97185,97202,97202,97219,97219,97246,97246,97278,97306,97350,97382,97390,97990,98002,98021,98037,98037,98052,98052,98069,98085,98122,98146,98154,98170,98170,98185,98202,98202,98202,98218,98218,98235" d="m344,318c0.44284,9.44901 0.51279,10.01862 0.86133,10.91599c0.27972,0.72015 1.15396,1.66907 1.728,2.12402c0.76535,0.6066 1.04343,1.36053 1.612,2.07465c0.50076,0.62894 1.47586,1.15411 1.97333,1.52133c0.85007,0.6275 1.30786,1.39682 1.70935,1.96533c0.57672,0.81662 1.1319,1.4035 1.71732,1.99869c0.79337,0.80658 1.40979,1.41089 1.85583,1.79999c0.94397,0.82339 1.49142,1.19495 2.28152,1.76401c0.92844,0.6687 1.46463,1.06934 2.14398,1.72c0.61484,0.58887 1.13818,1.13684 1.71866,1.71732c0.79868,0.79868 1.39844,1.39893 1.99869,1.99869c0.80099,0.80032 1.19424,1.21817 1.85715,1.79999c0.94144,0.82629 1.48978,1.19724 2.022,1.57916c0.74973,0.53799 1.72241,1.25586 2.26901,1.7735c0.75464,0.71469 1.26541,1.28455 1.93851,1.76334c0.7074,0.5032 1.53711,0.85193 2.36066,1.1795c1.02924,0.40939 1.71954,0.69855 2.34818,1.00452c1.0105,0.49182 1.63254,0.80798 2.28983,1.18533c1.00879,0.57916 1.7995,1.10645 2.30484,1.46198c0.87708,0.61707 1.60361,1.27222 2.33133,1.75284c0.681,0.44977 1.6929,1.04938 2.27399,1.55252c0.58347,0.50522 1.23782,1.18069 1.88367,1.82648c0.62097,0.62088 1.13046,1.15997 2.00485,1.72086c0.67178,0.43094 1.51822,0.87292 2.14133,1.43597c0.72473,0.65488 1.19894,1.19043 1.89066,1.88c0.73022,0.72797 1.21637,1.21088 2.13669,1.784c0.68045,0.42374 1.44714,0.92133 2.09998,1.40002c0.71445,0.5239 1.44852,0.86026 2.362,1.49866c0.59933,0.41885 1.33438,0.9306 1.96936,1.51733c0.69165,0.6391 1.23053,1.04034 2.11465,1.28534c0.79492,0.22028 0.80133,1.19867 0.80133,2.09866c0,0.89999 0,1.65717 0,2.55267c0,0.86331 0.00232,1.82648 0,2.74731c-0.00226,0.89551 -0.44305,1.71017 -1.29999,1.59552c-0.93451,-0.12503 -1.46954,-0.82959 -2.11069,-1.39551c-0.7236,-0.6387 -1.42532,-1 -2.19064,-1.39999l-0.99417,-0.49551l-0.56851,-0.26849l-1.07434,-0.38333" id="svg_35" stroke-width="2" stroke="#000" fill="none"/>
  <path t="98836,98850,98850,98850,98858,98858,98870,98887,98902,98902,98918,98918,98918,98935,98935,98952,98952,98968,98968,98985,98985,99002,99002,99018,99018,99035,99052,99052,99068,99085,99085,99102,99118,99118,99135,99135,99152,99168,99194,99210,99354" d="m409,366c-3.51401,9.22784 -3.8157,10.1301 -3.91666,10.8125c-0.14987,1.01321 0.10141,1.90961 -0.11935,2.78751c-0.21698,0.86282 -0.8685,1.60526 -1.048,2.37067c-0.18799,0.80157 -0.44873,1.54199 -0.63199,2.34665c-0.27676,1.21521 -0.27866,1.87198 -0.284,2.88251c-0.00412,0.77933 0,1.77884 0,2.68417c0,0.952 0,1.71732 0,2.716c0,0.79999 0,1.79868 0,2.564c0,0.95065 -0.15717,1.97385 0.08533,2.63599c0.32913,0.89871 1.11029,1.40445 1.71466,2c0.7157,0.70529 1.53824,1.27319 2.17917,1.70001c0.70755,0.47119 0.95081,1.42767 1.54169,1.97916c0.73398,0.68503 1.77466,0.52533 2.45383,0.94617l0.52533,0.53302" id="svg_36" stroke-width="2" stroke="#000" fill="none"/>
  <path t="100044,100094,100094,100094,100142,100150,100168,100186,100290,100314,100322,100335,100352,100352,100368,100368,100385,100385,100402,100402,100402,100418,100418,100418,100435,100436,100436,100452,100452,100452,100468,100468,100468,100485,100485,100485,100502,100502,100502,100518,100518,100535,100535,100552,100568,100586,100586,100614,100621,100622,100657,100689,100702,100718,100718,100725,100735,100752,100768,100768,100785,100785,100802,100802,100802" d="m409,367c11.642,0 12.17599,0 13.25,0c1.04999,0 2.05066,-0.18054 2.66599,0.284c0.68323,0.51578 1.65292,0.46136 2.048,1.15201c0.42938,0.75061 -0.10986,1.81339 0.25735,2.66415c0.3103,0.71893 0.74612,1.55566 0.77417,2.30435c0.03726,0.99478 0.00449,1.7955 0.00449,2.79584c0,0.84131 -0.00751,1.57034 0.00134,2.76764c0.00507,0.68271 -0.04623,1.39191 0.16531,2.69867c0.13492,0.8334 0.4689,1.53351 0.66669,2.5c0.15912,0.7775 0.16132,1.60797 0.16666,2.66669c0.0036,0.71399 0,1.61932 0,2.58798c0,0.80402 0,1.62601 0,2.65735c0,0.92133 0,1.60532 0,2.604c0,0.79648 0,1.98398 0,2.77567c0,0.84164 0,1.74167 0,2.64182c0,0.78519 0.03571,1.72583 0,2.73318c-0.02859,0.80652 -0.55438,1.58435 -1.2215,2.04517c-0.72971,0.50406 -1.7785,0.12149 -2.57849,0.12149c-0.90002,0 -1.80002,0 -2.72086,0c-0.96448,0 -1.68982,0 -2.67917,0c-0.79999,0 -1.79999,0 -2.59998,0l-0.80002,0" id="svg_37" stroke-width="2" stroke="#000" fill="none"/>
  <path t="102664,102714,102738,102758,102774,102787,102804,102819,102819,102835,102835,102852,102868,102885,102885,102903,102903,102918,102918,102935,102952,102952,102968,102968,102985,102985,103002,103002,103018,103018,103035,103035,103052,103052,103068,103068,103085,103102,103142,103142,103165,103165,103185,103202,103214,103229,103245,103253,103268,103285,103285,103302,103318,103318,103318,103335,103335,103352,103374,103374,103389,103402,103418,103441,103642,103655,103666,103686,103686,103702,103703,103719,103719,103719,103735,103735,103736,103753,103753,103768,103786,103786,103803,103803,103819,103819,103836,103836,103853,103853,103869,103890,104018" d="m157,335c0.91333,1.71466 0.1427,2.00766 -0.60001,2.61066c-0.76022,0.61722 -0.93201,1.58804 -1.56667,2.22269c-0.63464,0.63464 -1.43599,0.77463 -2.13333,1.46664c-0.50192,0.49808 -1.2951,1.14291 -1.64732,2.00452c-0.33664,0.82346 -0.6315,1.66815 -0.886,2.52884c-0.22888,0.77408 -0.16667,1.65067 -0.16667,2.51398c0,1.02734 0,1.97418 0,2.67352c0,0.97916 -0.02371,1.76877 0,2.8125c0.01801,0.7926 0.31433,1.64053 0.57466,2.37732c0.34476,0.97571 0.26718,1.81723 0.64684,2.76801c0.27989,0.70093 0.96773,1.51169 1.37851,2.19598c0.48718,0.81155 0.97615,1.40897 1.39999,2.32535c0.36778,0.79517 0.99976,1.50024 1.5,2c0.69966,0.69901 1.26833,1.35114 2.2,1.49551c0.8894,0.13782 1.8,0.00449 2.7,0.00449c0.90001,0 1.8,0 2.70001,0c0.89999,0 1.7,0 2.57199,0c0.87083,0 1.84883,0 2.64534,0c0.996,0 1.836,0 2.79733,0c0.88533,0 1.68533,0 2.58533,0c0.90001,0 1.8,0 2.7,0c0.90001,0 1.97974,0.24692 2.54733,-0.35718c0.62181,-0.6618 0.91605,-1.38934 1.45267,-2.07483c0.45688,-0.58365 0.80565,-1.61957 1,-2.25467c0.30901,-1.00977 0.58476,-1.98566 0.89551,-2.79449c0.25603,-0.66641 0.66057,-1.63141 0.70317,-2.40283c0.05191,-0.93991 0.00072,-1.94934 0.00133,-2.74133c0.00067,-0.85867 -0.0318,-1.75626 0.35266,-2.62201c0.29752,-0.66995 0.62816,-1.58807 0.64601,-2.35397c0.02316,-0.9939 0.00133,-1.91336 0.00133,-2.87784l0,-0.82083l-0.0045,-0.99551" id="svg_38" stroke-width="2" stroke="#000" fill="none"/>
  <path t="105012,105022,105022,105047,105063,105069,105086,105102,105102,105118,105135,105135,105135,105152,105152,105168,105168,105209,105233,105261" d="m171,346c-0.91467,5.77335 -1.43193,6.8089 -0.94284,7.64282c0.38762,0.66089 1.3382,1.17831 2.24284,1.2955c0.91968,0.11914 1.53337,-0.7085 2.09999,-1.349c0.6395,-0.72287 1.00716,-1.42163 1.40001,-2.19064c0.4061,-0.79492 0.85323,-1.57489 1.07849,-2.59851c0.16888,-0.76743 0.12167,-1.7785 0.28818,-2.63351l0.748,-0.452" id="svg_39" stroke-width="2" stroke="#000" fill="none"/>
 </g>
 <g display="none">
  <title>muse_image</title>
  <image xlink:href="http://farm3.static.flickr.com/2121/2138317033_c7467d0d67.jpg" id="muse" height="480" width="640" y="0" x="0"/>
 </g>
 <g display="none">
  <title>bbox</title>
  <rect stroke="#f00" fill="none" stroke-width="3" height="253.44" width="640" y="136.96" x="0" id="bbox"/>
 </g>
</svg>
