<svg width="640" height="480" xmlns="http://www.w3.org/2000/svg" xmlns:svg="http://www.w3.org/2000/svg" xmlns:xlink="http://www.w3.org/1999/xlink">
 <!-- Sketchy ANNOTATION
  ImageNet ID: n02691156_11379
  URL: http://farm2.static.flickr.com/1312/1414910830_319ac35980.jpg
  Image Width: 500
  Image Height: 334
  BBox X: 85
  BBox Y: 36
  BBox Width: 347
  BBox Height: 248
  Exposure: 2000ms
  Synset Label: airplane
  Synset ID: n02691156
  Worker Tag: a airplane
  Sanity Check: 
   Context
   Saved
   Shading
  Comment: 
   {}
  Worker ID: A1R959DUXT5S4I
  Assignment ID: 3ON104KXQKWFJZDA44JM8WB3NQLW4P
  HIT ID: 35JDMRECC49ZRVM9O3MF6V6L401GEY
  Work Time: 47s
  Worker Score: 0.7274
 END ANNOTATION -->
 <g display="inline">
  <title>Layer 1</title>
  <path t="0,154,172,186,186,202,218,218,234,234,234,250,250,250,250,250,250,250,269,269,269,269,269,270,270,285,285,286,286,286,286,301,301,301,301,301,301,302,318,318,318,318,318,318,319,335,335,335,335,335,349,350,350,350,369,369,370,370,385,386,386,386,386,403,403,419,420,420,435,435,435,450,450,450,450,469,469,469,483,484,501,501,517,517,538,538,554,554,570,585,585,602,619,619,619,634,652,652,682,698,718,734,751,751,769,782,801,802,817,842,842,855,855,874,874,890,906,922,934,953,971,971,980,980,999,999,1017,1035,1035,1055,1055,1056,1072,1072,1080,1081,1081,1082,1094,1094,1095,1112,1112,1112,1128,1128,1128,1144,1145,1145,1145,1161,1161,1161,1161,1178,1178,1196,1196,1196,1224,1225,1225,1225,1225,1242,1242,1242,1242,1242,1259,1259,1259,1260,1274,1274,1274,1274,1284,1284,1284,1285,1301,1302,1302,1302,1302,1317,1317,1317,1317,1332,1332,1332,1332,1353,1354,1354,1366,1367,1367,1385,1404,1466,1498,1530,1530,1554,1568,1568,1585,1599,1618,1642,1682,1714,1714,1738,1754,1754,1770,1770,1786,1786,1799,1800,1813,1814,1814,1814,1814,1835,1835,1835,1835,1835,1836,1836,1852,1852,1852,1853,1853,1854,1854,1854,1868,1868,1868,1868,1869,1869,1869,1870,1870,1885,1886,1886,1886,1886,1886,1887,1887,1887,1902,1903,1903,1903,1903,1903,1904,1910,1911,1911,1911,1911,1911,1935,1935,1935,1953,1953,1953,2394,2394,2442,2466,2466,2522,2578,2626,2642,2642,2656,2657,2690,2730,2738,2749,2764,2765,2779,2780,2780,2803,2803,2819,2819,2835,2835,2853,2853,2869,2869,2886,2887,2903,2903,2903,2904,2914,2915,2915,2936,2936,2937,2937,2937,2954,2955,2955,2955,2955,2955,2969,2970,2970,2970,2970,2970,2971,2990,2990,2990,2990,3003,3004,3004,3014,3029,3052,3069,3087,3097,3118,3135,3136,3152,3152,3169,3170,3184,3184,3204,3206,3219,3220,3220,3236,3236,3237,3253,3253,3253,3269,3269,3280,3281,3303,3304,3304,3304,3318,3319,3335,3336,3336,3353,3353,3354,3366,3367,3367,3367,3386,3387,3387,3404,3404,3404,3405,3419,3419,3420,3420,3436,3436,3437,3453,3453,3462,3463,3463,3486,3486,3502,3503,3503,3519,3519,3520,3536,3536,3548,3549,3550,3570,3570,3586,3586,3587,3604,3605,3619,3619,3633,3633,3653,3654,3654,3669,3669,3687,3687,3703,3704,3718,3718,3719,3736,3736,3736,3753,3753,3754,3769,3786,3786,3803,3803,3813,3813,3813,3835,3836,3853,3854,3869,3869,3870,3886,3886,3898,3899,3899,3918,3919,3919,3935,3936,3936,3952,3953,3970,3970,4034,4035,4035,4053,4069,4069,4087,4104,4118,4118,4130,4153,4154,4169,4170,4187,4187,4187,4203,4204,4214,4215,4215,4215,4236,4236,4237,4237,4238,4238,4253,4253,4254,4254,4254,4255,4255,4255,4256,4270,4271,4271,4271,4273,4273,4274,4287,4288,4288,4290,4290,4291,4291,4291,4303,4303,4304,4304,4304,4306,4306,4307,4337,4338,4338,4338,4340,4340,4341,4361,4362,4362,4363,4364,4364,4364,4365,4366,4394,4396,4396,4396,4397,4398,4398,4399,4426,4426,4427,4427,4427,4428,4428,4449,4450,4450,4450,4451,4451,4451,4452,4462,4462,4463,4463,4463,4464,4464,4466,4466,4500,4500,4500,4501,4501,4501,4502,4502,4503,4524,4524,4525,4525,4526,4526,4526,4527,4536,4536,4537,4538,4538,4538,4539,4560,4560,4561,4561,4583,4585,4586,4586,4586,4587,4607,4608,4608,4609,4609,4826,4826,4827,4866,4866,4898,4918,4938,4938,4950,4951,5040,5040,5041,5041" d="m167.50346,285.88889c1.83334,0.16666 2.21523,0.93912 3.10017,1c0.78331,0.05389 1.72516,0 2.73317,0c0.79199,0 1.65999,0 2.3125,0c0.9675,0 1.85416,-0.00214 2.96216,0.00134c0.62151,0.00195 1.27606,0.00558 1.9545,0.0195c1.39319,0.02859 2.09065,0.04727 3.4375,0.14581c0.63631,0.04657 1.2462,0.11035 2.40266,0.25867c0.55612,0.07132 1.64009,0.22961 2.17867,0.29068c1.63771,0.18567 2.20378,0.20383 2.77583,0.22684c1.1633,0.04681 1.75348,0.05048 2.94417,0.05582c1.19865,0.00537 1.79884,0.00134 3.00317,0.00134c0.60617,0 1.21634,0 1.8315,0c1.24933,0 2.53067,0 3.18483,0c0.65916,0 1.9725,0 2.61667,0c0.62917,0 1.82251,0 2.89584,0c0.92799,0 1.74399,0 2.49599,0c0.73601,0 1.91318,0 2.7715,0c0.87834,0 1.73668,0 2.89917,0c0.64934,0 1.52084,0 2.43733,0c1.14784,0 1.59734,0 2.55334,0c0.972,0 1.4415,0 3.002,0c0.73799,0 1.674,0 2.549,0c0.645,0 1.645,0 2.5,0c0.94499,0 1.97966,0 2.711,0c0.74733,0 1.49466,0 2.92551,0c0.65565,0 1.53915,0 2.48849,0c0.8125,0 1.81734,0 2.68066,0c0.9045,0 1.62199,0 2.658,0c0.744,0 1.85173,0.01047 2.68567,0c0.83003,-0.01044 1.84196,-0.19919 2.44766,-0.61066c0.84654,-0.5751 1.35771,-1.24423 2.13733,-1.36401c0.86865,-0.13345 1.61938,-0.71002 2.43384,-0.96817c0.77159,-0.24457 1.88171,0.11856 2.58566,-0.41434c0.75287,-0.56992 0.97456,-1.4165 1.80449,-1.86417c0.64764,-0.34933 1.34177,-0.91589 1.98401,-1.49466c0.64957,-0.58536 0.84869,-1.17383 0.92667,-2.10934c0.08472,-1.01648 0.48132,-1.68216 1.19067,-2.37466c0.53497,-0.52225 1.50378,-1.02051 2.08884,-1.5c0.73199,-0.59991 1.42651,-1.17715 1.69916,-1.91064c0.3028,-0.81461 0.53699,-1.53775 1.17734,-2.22269c0.47278,-0.50571 0.72913,-1.23639 0.88599,-2.16583c0.17554,-1.0401 0.69751,-1.55228 1.44736,-2.02167c0.75446,-0.47229 1.10422,-1.19836 1.59998,-2.17917c0.30261,-0.59866 0.69101,-1.40457 1.2045,-2.40448c0.32581,-0.63446 0.86444,-1.56079 1.34369,-2.34818c0.33255,-0.54639 0.86716,-1.3335 1.1825,-2.36334c0.20493,-0.66925 0.20145,-1.37964 0.45599,-2.368c0.21323,-0.8279 0.55444,-1.66061 1.19733,-2.63333c0.3194,-0.48325 0.93881,-1.15363 1.49451,-2.3255c0.3074,-0.64827 0.50552,-1.37657 0.71701,-2.10899c0.31168,-1.07945 0.49033,-1.76611 0.8045,-2.7065c0.28711,-0.85942 0.72058,-1.84752 0.97916,-2.52084c0.38739,-1.00868 0.43793,-1.6407 0.63068,-2.59233c0.18958,-0.936 0.45184,-1.68643 0.76215,-2.52583c0.16492,-0.44612 0.52557,-1.36395 1.12802,-2.73599c0.19611,-0.44666 0.59604,-1.30475 0.97916,-2.125c0.3642,-0.77975 0.8627,-1.87154 1.1355,-2.55634c0.25742,-0.64618 0.58289,-1.58015 0.88535,-2.48534c0.30203,-0.90382 0.5062,-1.51892 0.69998,-2.15717c0.41306,-1.36038 0.60706,-2.09732 0.77917,-2.86366c0.17545,-0.78113 0.36609,-1.97803 0.43683,-2.77917c0.07056,-0.79904 0.09305,-1.60135 0.168,-2.39999c0.11285,-1.20239 0.26682,-1.99585 0.41602,-2.77917c0.14551,-0.76401 0.35104,-1.85226 0.41464,-2.53549c0.08957,-0.96251 0.07608,-1.58087 0.08551,-2.78517c0.00699,-0.88953 -0.01312,-1.75658 0.22116,-2.7785c0.15756,-0.68733 0.61386,-1.41019 0.75784,-2.40083c0.13248,-0.91148 0.02084,-1.82083 0.02084,-2.72083c0,-0.90018 0,-1.68533 0,-2.62534c0,-1.008 0,-1.76401 0,-2.67467c0,-0.89999 0,-1.8 0,-2.7c0,-0.90001 0,-1.8 0,-2.60001c0,-0.95717 0,-1.85716 0,-2.60449c0,-0.9955 0,-1.7955 0,-2.79533c0,-0.77934 -0.03436,-1.78177 0.03598,-2.53351c0.0878,-0.93834 0.32025,-1.9955 0.39999,-2.41066c0.1727,-0.89905 0.36588,-1.86124 0.56403,-2.856c0.2005,-1.00656 0.30591,-1.52142 0.5,-2.60417c0.10312,-0.57529 0.20575,-1.18079 0.29999,-1.82249c0.31979,-2.1777 0.40158,-2.9973 0.50449,-3.85017c0.10641,-0.88179 0.2139,-1.78596 0.33151,-2.7045c0.11871,-0.92715 0.23126,-1.85753 0.53067,-3.68533c0.14606,-0.89165 0.31357,-1.76236 0.49051,-2.6145c0.17383,-0.83722 0.36017,-1.65717 0.5535,-2.46149c0.19037,-0.79201 0.38641,-1.57045 0.78934,-3.09067c0.19757,-0.74539 0.3985,-1.47835 0.59097,-2.2005c0.18884,-0.70853 0.37122,-1.40271 0.53702,-2.08351c0.16144,-0.66292 0.32443,-1.30644 0.53867,-2.54933c0.10147,-0.58871 0.16898,-1.1635 0.22351,-1.7235c0.05338,-0.54805 0.1217,-1.62468 0.15799,-2.158c0.11011,-1.61909 0.16562,-2.17358 0.3045,-3.291c0.06894,-0.55464 0.22342,-1.6273 0.29465,-2.13666c0.18979,-1.35698 0.25143,-2.08598 0.35269,-2.96167c0.14246,-1.23221 0.35187,-2.01088 0.5,-2.54167c0.33154,-1.18799 0.4895,-1.97896 0.5,-2.82533c0.0126,-1.01659 -0.29373,-2.09381 0.35715,-2.58116c0.76025,-0.56924 1.84283,-0.11433 2.74301,-0.11433c0.78516,0 1.72516,0 2.41583,0c1.07333,0 1.98401,-0.00452 2.884,0c0.89554,0.0045 1.38135,0.62709 1.767,1.35184c0.37576,0.70618 1.36115,1.11147 2.06631,1.44682c0.80612,0.38338 1.49738,0.9281 2.25067,1.40134c0.67584,0.42458 1.61584,1.0213 2.26868,1.5c0.71442,0.52388 1.45901,0.84489 2.22583,1.40001c0.75729,0.54825 1.35962,1.18781 1.77866,1.7715c0.61575,0.85773 0.89304,1.48784 1.41751,2.4525c0.33972,0.62486 0.92868,1.63449 1.34616,2.17599c0.43427,0.56328 1.25378,1.55437 1.75116,2.21866c0.27185,0.36307 0.84097,1.14926 1.13068,1.57068c0.91,1.32365 1.1991,1.79572 1.80801,2.74666c0.31036,0.4847 0.94278,1.47098 1.27466,1.96533c0.67383,1.00375 1.0257,1.50591 1.76733,2.48517c0.36761,0.4854 0.73502,0.9615 1.49466,1.84201c0.36285,0.42059 1.42065,1.51846 2.08652,2.09999c0.59473,0.51941 1.21472,0.89098 2.02298,1.77133c0.50592,0.55104 0.76263,1.34625 1.16852,2.38951c0.32776,0.84245 0.80273,1.51892 0.97467,2.41066c0.17154,0.88972 0.95728,1.28236 1,2.2c0.04187,0.89935 -0.01205,1.61443 0.00131,2.56801c0.01025,0.73218 0.14377,1.90738 0.42401,2.57066c0.42117,0.9968 0.56424,1.66116 0.57468,2.64017c0.00885,0.83095 -0.01776,1.79254 0.02081,2.56284c0.04318,0.86232 0.19107,1.76053 0.40451,2.65833c0.14301,0.60155 0.43781,1.79684 0.51749,2.69101c0.07443,0.83498 0.05719,1.77567 0.05719,2.58817c0,1.00883 0,1.8035 0,2.85416c0,0.63333 0,1.64584 0,2.30417c0,1.09834 0,2.0025 0,2.9055c0,0.729 0,1.56599 0,2.757c0,0.59999 0,1.5 0,2.7c0,0.60001 0,1.5 0,2.39999c0,0.90001 0,1.8 0,2.70001c0,0.89999 0,1.80449 0,2.73599c0,0.64934 0,1.68533 0,2.41667c0,1.12199 -0.00571,1.86334 0.00015,2.92549c0.00531,0.96455 -0.10919,1.57246 0.22116,2.67917c0.24841,0.83218 0.68729,1.68234 0.74268,2.39334c0.07626,0.97897 0.03601,1.9485 0.03601,2.61183c0,1.19083 0,1.82416 0,2.4975c0,1.30667 -0.10129,2.13437 0.05716,2.97383c0.17886,0.94765 0.72247,1.62233 0.85748,2.4355c0.12354,0.74408 0.08469,1.548 0.08536,2.778c0.00037,0.67799 -0.03647,1.87567 0.02133,2.66733c0.05688,0.77899 0.40918,1.65359 0.97867,2.26451c0.65298,0.7005 0.866,1.556 1.22131,2.49966c0.27081,0.71924 0.68549,1.56119 0.74268,2.2825c0.06253,0.78865 0.03601,1.817 0.03601,2.69699c0,1.02034 -0.02762,1.79489 0.00449,2.70334c0.02832,0.80124 0.21487,1.76031 0.42084,2.57433c0.21988,0.86903 0.43857,1.7608 0.51749,2.6595c0.07608,0.86641 0.05719,1.93784 0.05719,2.64284c0,0.97501 -0.06927,1.85774 0.22131,2.783c0.21982,0.69995 0.64468,1.66025 0.83133,2.48851c0.21671,0.96158 0.46774,1.68445 0.66333,2.42215c0.25345,0.95602 0.28336,1.73599 0.28403,2.77783c0.00049,0.77551 -0.02692,1.82419 0.00449,2.5285c0.04358,0.97739 0.49417,1.82996 0.71149,2.51633c0.30743,0.97101 0.23822,1.63379 0.33667,2.6445c0.09445,0.9696 0.28589,1.79779 0.55801,2.5155c0.36465,0.96173 0.67191,1.74036 0.98932,2.52402c0.37936,0.93661 0.96182,1.67874 1.35184,2.57031c0.27914,0.63812 0.59122,1.47504 1.069,2.17017c0.47122,0.68561 1.405,1.31021 2.17917,1.80618c0.66635,0.42688 1.13953,1.21005 2,1.63065c0.85385,0.41736 1.45377,0.88419 2.32083,1.06317c0.94485,0.19504 1.70651,-0.01675 2.67917,0.24219c0.81863,0.21793 1.79742,0.62766 2.60001,0.75333c0.7977,0.12491 1.79742,0.39926 2.436,0.60001c0.92148,0.28967 1.73395,0.38541 2.68265,0.41464c0.73837,0.02277 2.04617,0.01068 2.54001,0.01068c1.07068,0 1.64551,0 2.24533,0c1.27066,0 2.62933,0 3.33868,0c0.72531,0 1.46265,0 2.20798,0c0.74936,0 1.49869,0 2.24402,0c0.73734,0 2.86267,0 3.53732,0c0.66266,0 1.31735,0 1.96802,0c1.30533,0 1.96799,0 3.33331,0c0.7095,0 1.436,0 2.17651,0c0.7515,0 1.51099,0 2.27548,0c0.76651,0 3.048,0 3.79285,0c0.73383,0 1.45566,0 2.16449,0c0.69485,0 1.37466,0 2.68533,0c1.23868,0 1.82968,0 2.97568,0c0.56699,0 1.138,0 2.31601,0c0.61899,0 1.94699,0 2.66599,0c0.75299,0 1.534,0 2.33701,0c0.819,0 1.64801,0 2.48099,0c0.83102,0 2.46301,0 3.25302,0c0.76999,0 1.51999,0 2.25,0c1.39999,0 2.06998,0 2.72,0c1.23999,0 2.40799,0 2.97699,0c1.138,0 1.71899,0 2.31601,0c0.61899,0 2.66632,0 3.42166,0c0.78732,0 1.60266,0 2.44199,0c0.85934,0 1.73468,0 2.62201,0c1.79468,0 2.69449,-0.00082 3.59332,0.00134c0.89685,0.00217 1.79071,0.00681 2.68051,0.0195c0.88486,0.01263 1.76392,0.02979 2.6355,0.06448c1.71921,0.06845 2.56354,0.1315 3.39465,0.20001c0.81592,0.06726 1.61243,0.14673 2.38651,0.2355c0.74997,0.086 1.47177,0.17844 2.1615,0.28049c1.27747,0.18903 1.85794,0.29559 2.40668,0.39999c0.52594,0.10007 1.0361,0.20306 2.03732,0.43466c0.5101,0.11798 1.03464,0.24942 2.78366,0.68518c0.64835,0.16153 1.31644,0.32794 1.99503,0.4935c0.67807,0.16544 1.99408,0.47961 2.61331,0.616c1.1051,0.24338 2.00049,0.39822 3.065,0.56934c0.64365,0.10345 1.71072,0.32468 2.58035,0.56934c0.48236,0.13571 1.50308,0.45123 2.03198,0.616c1.06415,0.33148 2.09442,0.65344 3.05734,0.92932c0.88791,0.25439 1.71567,0.47098 2.48401,0.68402c1.0676,0.29602 1.71939,0.50504 2.60532,0.76532c0.94681,0.27817 1.88931,0.414 2.30801,1.04666c0.49106,0.74197 1.07574,1.48825 1.67465,2.08936c0.60562,0.60785 1.18533,1.27066 1.79333,2.07465l0.40668,0.52933l0.52667,0.62534l0.32083,0.35117" id="svg_1" stroke-width="2" stroke="#000" fill="none"/>
  <path t="5762,5786,5806,5806,5826,5826,5850,5850,5869,5896,5919,5936,5936,5950,5950,5978,5978,5978,5991,5991,6006,6006,6006,6019,6019,6033,6048,6049,6049,6074,6074,6074,6077,6077,6106,6106,6106,6106,6106,6106,6106,6106,6116,6116,6116,6116,6116,6116,6128,6128,6128,6128,6128,6145,6145,6146,6146,6162,6162,6162,6181,6182,6182,6200,6200,6226,6226,6244,6244,6244,6244,6272,6272,6272,6272,6272,6289,6290,6298,6298,6311,6346,6459,6483,6497,6518,6518,6535,6535,6535,6552,6553,6659,6659,6715,6728,6728,6728,6752,6771,6786,6802,6811,6836,6836,6859,6860,6893,6893,6893,6921,6921,6921,6932,6933,6933,6933,6957,6957,6957,6958,6958,6983,6983,6983,6983,7009,7009,7009,7010,7010,7010,7034,7034,7035,7035,7035,7058,7058,7058,7058,7059,7102,7102,7102,7102,7102,7103,7103,7127,7127,7127,7127,7127,7127,7127,7127,7128,7135,7136,7136,7136,7136,7157,7157,7179,7179,7204,7204,7251,7315,7332,7360,7379,7379,7388,7388,7388,7414,7414,7414,7437,7437,7437,7438,7438,7462,7462,7462,7462,7463,7463,7463,7486,7486,7487,7487,7487,7487,7517,7517,7517,7517,7517,7517,7535,7535,7535,7535,7535,7535,7572,7572,7572,7581,7581,7582,7616,7616,7616,7641,7642,7642,7652,7652,7675,7675,7675,7708,7708,7722,7723,7723,7723,7723,7746,7746,7746,7923,7941,7963,7963,7994,7995,7995,7995,8001,8002,8002,8002,8003,8003,8003,8003,8003,8022,8022,8022,8022,8022,8023,8023,8023,8023,8043,8043,8043,8043,8044,8044,8044,8044,8044,8064,8064,8064,8064,8064,8070,8070,8070,8070,8087,8087,8087,8088,8088,8088,8088,8088,8088,8108,8108,8108,8108,8109,8109,8109,8128,8129,8129,8129,8129,8195,8195,8195,8196,8213,8213,8240,8241,8259,8280,8281,8281,8298,8299,8299,8299,8299,8300,8300,8300,8300,8319,8320,8320,8320,8320,8320,8321,8321,8321,8341,8341,8341,8341,8350,8350,8350,8351,8351,8363,8364,8364,8364,8364,8364,8365,8366,8366,8397,8397,8397,8398,8398,8399,8400,8400,8400,8423,8423,8423,8423,8424,8424,8424,8424,8425,8432,8432,8432,8433,8434,8434,8435,8435,8435,8455,8455,8455,8456,8456,8456,8456,8456,8457,8493,8494,8494,8495,8495,8495,8495,8496,8496,8502,8503,8503,8503,8503,8504,8504,8504,8504,8546,8547,8547,8547,8547,8548,8548,8548,8548,8568,8569,8569,8569,8570,8570,8571,8571,8571,8585,8585,8586,8586,8588,8588,8588,8614,8614,8614,8615,8615,8615,8635,8646,8646,8646,8647,8647,8647,8648,8648,8648,8739,8739,8740,8740,8740,8740,8741,8741,8741,8769,8770,8771,8793,8807,8807,8809,8851,8851,8852,8870,8871,8871,8871,8871,8903,8904,8904,8904,8952,8952,8953,8953,8966,8966,8966,8967,8967,9017,9018,9018,9018,9019,9019,9020,9063,9063,9063,9064,9064,9064,9065,9065,9065,9098,9099,9099,9100,9100,9100,9101,9101,9101,9127,9127,9128,9128,9128,9129,9129,9129,9130,9166,9167,9167,9167,9168,9168,9168,9169,9169,9195,9195,9195,9196,9196,9196,9197,9197,9197,9243,9243,9244,9244,9244,9245,9245,9245,9246,9258,9259,9259,9260,9309,9310,9311,9311,9317,9317,9317,9318,9318,9318,9319,9319,9320,9371,9371,9373,9373,9373,9374,9407,9408,9408,9408,9414,9414,9414,9415,9431,9431,9432,9432,9432,9433,9433,9433,9434,9481,9481,9482,9483,9483,9483,9484,9484,9484,9498,9498,9499,9499,9499,9500,9500,9501,9501,9547,9548,9548,9548,9549,9549,9549,9550,9550,9584,9585,9585,9585,9586,9587,9587,9587,9588,9619,9619,9620,9620,9620,9621,9621,9622,9622,9637,9638,9638,9639,9639,9639,9640,9640,9642,9674,9674,9676,9676,9677,9677,9687,9687,9689,9712,9712,9713,9713,9714,9714,9714,9715,9716,9745,9746,9746,9747,9747,9747,9748,9748,9748" d="m166.50346,339.88889c2.62534,0.03601 3.47391,0.31433 4.21066,0.57468c0.97571,0.34476 1.80333,0.29865 2.62268,0.59198c0.80881,0.28955 1.56613,0.81534 2.46666,0.83334c0.89981,0.01801 1.81529,-0.09012 2.58533,0.08533c0.99422,0.2265 1.56343,0.62439 2.53584,0.79318c0.78633,0.13651 1.81094,0.07288 2.7735,0.12598c0.77637,0.04282 1.81308,0.35562 2.59067,0.57019c0.53062,0.14642 1.75175,0.39252 2.55299,0.42084c0.91293,0.03226 1.99501,0.00449 2.67601,0.00449c0.80699,0 1.98566,0 2.59366,0c1.017,0 1.83501,0 2.304,0c1.088,0 2.39334,0 3.10851,0c0.74216,0 1.50034,0 2.26349,0c0.75717,0 1.49734,0 2.88268,0c1.20799,0 1.752,0 2.75,0c0.918,0 1.362,0 2.70467,0c0.93134,0 1.87866,0 2.35333,0c0.94133,0 2.30356,0.00638 3.15916,-0.00449c0.80377,-0.01022 1.55496,0.00208 2.53284,-0.16217c0.83258,-0.13983 1.52977,-0.49277 2.7545,-0.71185c0.78563,-0.14053 1.57236,-0.04034 2.6095,-0.12415c0.72377,-0.05847 1.41701,-0.62021 2.216,-1.14667c0.88135,-0.58072 1.71761,-0.75458 2.31583,-0.82983c1.00687,-0.12668 2.18088,-0.23605 2.60283,-0.30753c0.86636,-0.14673 1.73442,-0.29626 2.496,-0.59998c1.24234,-0.49542 1.57857,-1.29398 2.43867,-1.87033c0.61484,-0.41199 1.59999,-0.24301 2.5,-0.24301c0.89999,0 1.8,0 2.7045,0c0.86217,0 1.73167,0.0593 2.6955,-0.16666c0.81859,-0.19189 1.38109,-0.56561 2.40001,-0.74802c0.79089,-0.14157 1.79982,-0.08737 2.76399,-0.08533c0.94934,0.00201 1.69406,0.49591 1.81067,1.276c0.09912,0.66318 0.69887,1.47321 1.0045,2.24484c0.32384,0.8176 0.02083,1.77914 0.02083,2.67917c0,0.90015 0,1.68533 0,2.64667c0,0.84 0,1.83865 0,2.67416c0,0.58365 -0.03741,1.78067 0.02133,2.66849c0.05669,0.85669 0.4072,1.89798 0.68851,2.367c0.45287,0.75504 0.86386,1.27444 1.26866,2.30798c0.3082,0.78687 0.50647,1.67599 0.717,2.59201c0.10611,0.46167 0.39561,1.82437 0.60901,2.68649c0.20755,0.83856 0.4278,1.66144 0.86217,2.85718c0.1465,0.40329 0.48602,1.20651 0.85416,2.02084c0.37906,0.83844 0.58984,1.26035 1.17917,2.60031c0.40646,0.92419 0.5961,1.39523 1,2.3175c0.19809,0.45236 0.78326,1.73703 1.20267,2.49335c0.40277,0.72635 0.85989,1.42532 1.36801,2.13599c0.55249,0.77271 1.20367,1.60928 1.56168,2.06433c0.38058,0.4837 1.23132,1.53439 1.70532,2.10535c0.50458,0.60779 1.62793,1.9299 2.24701,2.647c0.64487,0.74698 1.30829,1.50772 1.974,2.27399c0.65829,0.75772 1.29791,1.49435 1.90198,2.202c0.56381,0.66049 1.51151,1.80176 1.86752,2.26733c0.29507,0.38586 0.53458,0.70511 0.69449,0.98401c0.4938,0.8613 0.9234,1.50046 1.47733,2.37201c0.4281,0.67358 0.9704,1.44681 1.36401,2.10532c0.51352,0.85907 0.67587,1.84467 0.43149,2.70618c-0.22052,0.77737 -0.88159,1.28061 -1.04816,2.11349c-0.19974,0.99878 -0.45621,1.63135 -0.91934,2.19101c-0.72131,0.87161 -1.57336,1.41608 -2.13699,1.85715c-0.89694,0.70197 -1.50821,1.21484 -2.091,1.81085c-0.6188,0.63281 -0.93741,0.98132 -1.79999,2.23199c-0.31372,0.4549 -0.89911,1.46048 -1.18933,1.98666c-0.29352,0.53217 -0.85498,1.61176 -1.12534,2.14667c-0.52151,1.03189 -0.99847,1.99817 -1.23718,2.45233c-0.46094,0.87698 -0.94595,1.71326 -1.2175,2.11166c-0.83728,1.22845 -1.19348,1.61087 -1.90265,2.41333c-0.36566,0.41376 -1.13873,1.24493 -1.53067,1.67468c-0.80087,0.87811 -1.59476,1.79346 -1.98386,2.25381c-0.3829,0.45303 -1.10458,1.32828 -1.75748,2.12085c-0.55521,0.67398 -1.242,1.37903 -1.74251,2.13632c-0.47058,0.71201 -0.68919,1.48126 -1.07066,2.25549c-0.51775,1.05084 -1.0762,1.70563 -1.59018,2.34369c-0.64145,0.79626 -0.95639,1.44922 -1.53667,2.11917c-0.69534,0.8028 -1.32516,1.07755 -2.31583,1.58533c-0.58862,0.30173 -1.34337,0.66153 -2.20683,1.332c-0.53625,0.41641 -1.25677,1.07193 -1.92934,1.61865c-0.7617,0.61917 -1.15427,0.94141 -1.95334,1.53418c-1.03169,0.76535 -1.86668,1.06711 -2.50533,1.58051c-0.70177,0.56415 -0.89503,1.74298 -0.105,1.8345c0.7115,0.08243 1.68687,-0.27881 2.26765,-0.48917c0.78389,-0.28391 1.26321,-0.48407 3.132,-1.34402c0.79669,-0.36661 1.6667,-0.79059 2.61,-1.2435c1.00337,-0.48175 2.0555,-0.98813 3.15001,-1.50449c1.12212,-0.52936 2.25876,-1.07254 4.57333,-2.08533c1.14085,-0.49921 2.27602,-0.96594 3.39598,-1.41901c1.10141,-0.44556 2.18747,-0.87238 3.25201,-1.293c1.04279,-0.41205 2.06732,-0.80423 4.01868,-1.62134c0.93759,-0.39261 1.83871,-0.79288 2.70599,-1.18649c0.83405,-0.37851 1.62769,-0.75024 2.38199,-1.1055c0.71301,-0.33582 1.37762,-0.66013 2.57867,-1.20801c0.52438,-0.2392 1.00714,-0.44739 1.452,-0.633c0.41119,-0.17157 0.79791,-0.32553 1.164,-0.47101c0.35193,-0.13983 0.69861,-0.27115 1.384,-0.56265c0.35654,-0.15164 0.72153,-0.31824 1.09949,-0.49051c0.39139,-0.17841 0.79578,-0.36496 1.21652,-0.5535c0.43558,-0.19519 0.88559,-0.39978 1.85065,-0.78934c0.50742,-0.20483 1.03406,-0.40161 1.57202,-0.60001c1.09348,-0.40329 1.64529,-0.59644 2.18933,-0.79999c1.5759,-0.58966 2.06308,-0.79749 2.98648,-1.19101c0.85721,-0.36533 1.63553,-0.74838 2.75217,-1.07565c0.6713,-0.19675 1.32251,-0.25348 2.20502,-0.3815c1.04337,-0.15137 1.8938,-0.53098 2.79498,-0.78519c0.84436,-0.23819 1.68796,-0.19354 2.66135,-0.164c0.67282,0.02042 1.31299,0.09378 2.672,0.33069c0.5849,0.10196 1.22849,0.23502 1.9245,0.38098c0.74002,0.15521 1.51346,0.32529 2.31149,0.50702c0.815,0.18558 1.63779,0.37408 3.26401,0.77866c0.79239,0.19714 1.57327,0.40073 2.35049,0.61801c0.7868,0.21997 1.58884,0.45956 2.41351,0.72598c0.86249,0.27866 1.77008,0.58093 3.73599,1.32266c1.08661,0.40997 2.22653,0.86908 3.4155,1.353c1.22842,0.5 2.48074,1.02103 3.7485,1.55103c1.27255,0.53201 2.53586,1.0675 5.00266,2.09598c1.18015,0.49203 2.32599,0.96432 3.4425,1.41901c1.09018,0.44394 2.16098,0.87445 3.2175,1.293c1.04514,0.41406 2.08487,0.82339 4.17334,1.62134c1.05273,0.40222 2.10974,0.79767 3.159,1.1955c1.03604,0.39282 2.0509,0.77969 3.03299,1.16852c0.9472,0.375 1.85754,0.7236 3.47467,1.46933c0.72217,0.33301 1.37497,0.67456 1.97549,1.00497c0.56332,0.30994 1.08688,0.62024 1.5885,0.91501c0.48538,0.28522 0.953,0.58115 1.936,1.08002c0.50439,0.25598 1.03577,0.48712 1.58551,0.70499c0.561,0.22232 1.1416,0.42648 1.73849,0.61499c0.60678,0.19162 1.2265,0.3772 2.50934,0.68002c0.65283,0.15411 1.31818,0.28522 1.99051,0.414c0.67834,0.12991 1.36377,0.25204 2.0535,0.37799c0.69394,0.12671 1.3934,0.24545 2.78934,0.54132c0.7016,0.14871 1.40317,0.31558 2.10449,0.504c0.70813,0.19025 1.41931,0.40381 2.1315,0.64801c0.7243,0.24835 1.46259,0.50894 2.93066,1.18134c0.76102,0.34857 1.51379,0.74487 2.26349,1.1535c0.74503,0.4061 1.46719,0.82303 2.16452,1.2345c0.66827,0.39432 1.29248,0.77829 2.40533,1.44534c0.47107,0.28235 0.89334,0.53146 1.284,0.74249c0.3616,0.19531 0.71329,0.36795 1.06799,0.51749c0.36133,0.15231 0.74854,0.29764 1.64801,0.57333c0.52625,0.16129 1.10526,0.31891 1.72049,0.49051c0.64209,0.17908 1.30109,0.36099 1.9635,0.5535c0.65793,0.19119 1.30524,0.36792 2.48267,0.78934c0.52991,0.18967 1.01126,0.39432 1.45651,0.59549c0.42001,0.18979 1.19189,0.5762 1.56866,0.74734c1.13116,0.51382 1.98709,0.78864 2.97617,1.04251c0.55917,0.14352 1.17691,0.27777 1.8555,0.4245c0.74673,0.16144 2.47659,0.52313 3.46848,0.73282c1.06412,0.22495 2.18204,0.46259 3.33603,0.70801c1.17203,0.24924 2.34396,0.49884 3.49799,0.74399c1.11798,0.23749 3.1738,0.67303 4.07965,0.862c0.81949,0.17096 1.55676,0.32297 2.21701,0.45001c0.58517,0.11261 1.10046,0.20587 1.55099,0.26999c0.38696,0.05508 0.99927,0.13416 1.21869,0.08051c0.55585,-0.13593 -0.09262,-0.69244 -0.59369,-1.51184c-0.39526,-0.64636 -0.63992,-1.49103 -1.12033,-2.22415c-0.48242,-0.73624 -1.14902,-1.42334 -1.845,-2.25452c-0.52554,-0.62762 -1.06482,-1.31052 -1.35416,-1.64581c-0.5748,-0.66611 -1.45642,-1.55313 -2.07916,-1.9675c-0.87064,-0.57928 -1.52606,-0.81244 -2.39999,-1.38669c-0.61984,-0.40729 -1.49753,-1.19031 -2.10001,-1.71848c-0.89633,-0.78574 -1.49182,-1.2782 -2.12134,-1.71219c-0.64001,-0.44119 -1.33929,-0.85464 -2.52267,-1.43665c-0.43112,-0.21204 -1.39233,-0.64133 -1.92267,-0.88269c-0.57101,-0.25989 -1.18744,-0.54089 -1.84799,-0.858c-1.49014,-0.71536 -2.31503,-1.14267 -3.19601,-1.59732c-0.92871,-0.47928 -1.89407,-0.98514 -2.89349,-1.50299c-1.02322,-0.53018 -2.06238,-1.06854 -3.1185,-1.59302c-2.10425,-1.04501 -3.15311,-1.52588 -4.18399,-1.99332c-1.00751,-0.45685 -1.99344,-0.88916 -2.94751,-1.30951c-0.91925,-0.405 -1.802,-0.78836 -2.63248,-1.1745c-1.52017,-0.70682 -2.18945,-1.05899 -2.80667,-1.40668c-0.58597,-0.33011 -1.13715,-0.67151 -1.66501,-1.02298c-0.52554,-0.34991 -1.04544,-0.72247 -1.57501,-1.11301c-1.13791,-0.83917 -1.75211,-1.30981 -2.40533,-1.79868c-0.68076,-0.50946 -1.38342,-1.03412 -2.103,-1.5675c-0.72842,-0.53995 -1.46042,-1.08054 -2.19299,-1.61249c-1.42892,-1.0376 -2.12143,-1.52386 -2.78934,-1.99466c-0.6434,-0.45352 -1.26291,-0.88715 -1.85098,-1.30951c-0.56122,-0.40308 -1.09393,-0.78787 -1.58102,-1.1745c-0.88962,-0.70612 -1.26379,-1.06079 -1.60397,-1.40268c-0.32126,-0.32288 -0.60986,-0.64661 -0.8775,-0.96448c-0.25897,-0.30759 -0.49911,-0.61838 -0.74252,-0.91953c-0.73346,-0.90741 -1.26868,-1.49634 -1.79916,-2.08047c-0.51151,-0.56323 -1.2309,-1.3252 -1.72,-2.10419c-0.35422,-0.56415 -0.67682,-1.32132 -1.30081,-2.91666c-0.26971,-0.68958 -0.55206,-1.45416 -0.85352,-2.2695c-0.31326,-0.84732 -0.6272,-1.70911 -0.93451,-2.5665c-0.29831,-0.83231 -0.58414,-1.61948 -1.04532,-2.99734c-0.18466,-0.55173 -0.35449,-1.01703 -0.53333,-1.79199c-0.15024,-0.651 -0.21057,-1.34427 -0.35486,-2.74634c-0.06262,-0.60846 -0.13489,-1.27676 -0.21448,-1.995c-0.08405,-0.75842 -0.17377,-1.54675 -0.26849,-2.35501c-0.09592,-0.81845 -0.29617,-2.44489 -0.39517,-3.23749c-0.09836,-0.78741 -0.19714,-1.58438 -0.27902,-2.4075c-0.08572,-0.86191 -0.15805,-1.77954 -0.207,-2.76749c-0.05313,-1.07208 -0.08945,-3.53259 -0.07117,-4.94434c0.01971,-1.52301 0.06894,-3.13794 0.13953,-4.8255c0.07288,-1.74216 0.16806,-3.5191 0.28348,-5.31152c0.11526,-1.79025 0.39377,-5.28513 0.55502,-6.95349c0.155,-1.60364 0.323,-3.13446 0.4935,-4.58701c0.16074,-1.36945 0.32288,-2.64813 0.47549,-3.83099c0.1395,-1.08112 0.37787,-2.91284 0.46732,-3.65582c0.07703,-0.63968 0.13809,-1.19412 0.20251,-1.6785c0.05762,-0.43326 0.11938,-0.83221 0.20248,-1.21051c0.08359,-0.38052 0.3345,-1.20258 0.50217,-1.67801c0.18927,-0.53671 0.41479,-1.13776 0.65402,-1.81949c0.26852,-0.76517 0.55728,-1.62552 0.85199,-2.59351c0.32755,-1.07584 1.00519,-3.60831 1.35034,-5.07565c0.37021,-1.57388 0.72787,-3.23325 1.08298,-4.9455c0.35962,-1.73407 0.70157,-3.46478 1.02902,-5.1615c0.31509,-1.63263 0.8678,-4.59436 1.10266,-5.87234c0.21036,-1.14471 0.39682,-2.17377 0.56699,-3.10352c0.15518,-0.8479 0.29938,-1.63101 0.44101,-2.36548c0.1358,-0.70419 0.42035,-2.0871 0.57785,-2.79568c0.1611,-0.72476 0.33286,-1.45901 0.5145,-2.19748c0.18201,-0.73987 0.37134,-1.47427 0.56848,-2.19751c0.19357,-0.71008 0.59183,-2.06366 0.79535,-2.69785c0.19528,-0.60849 0.39395,-1.18927 0.58948,-1.746c0.1882,-0.53589 0.37527,-1.05045 0.55353,-1.54797c0.17239,-0.48114 0.49335,-1.40311 0.6355,-1.84869c0.13776,-0.43176 0.26236,-0.85065 0.375,-1.254c0.10724,-0.38403 0.19998,-0.74933 0.285,-1.09198l0.07498,-0.31866" id="svg_2" stroke-width="2" stroke="#000" fill="none"/>
  <path t="10102,10292,10292,10307,10307,10323,10323,10337,10337,10353,10353,10366,10366,10366,10366,10367,10388,10388,10388,10388,10388,10404,10404,10404,10404,10421,10421,10421,10421,10437,10437,10437,10437,10438,10446,10446,10446,10446,10446,10446,10470,10471,10471,10471,10488,10488,10488,10488,10504,10504,10504,10504,10518,10518,10518,10552,10552,10552,10552,10552,10579,10579,10579,10579,10579,10579,10579,10610,10610,10610,10610,10610,10610,10610,10610,10611,10643,10643,10643,10644,10644,10644,10644,10644,10644,10667,10667,10667,10667,10667,10667,10667,10667,10667,10683,10684,10684,10684,10684,10684,10684,10684,10684,10707,10707,10707,10707,10707,10708,10708,10708,10708,10731,10731,10731,10731,10731,10731,10732,10732,10732,10753,10773,10773,10773,10773,10773,10773,10773,10774,10787,10787,10787,10787,10787,10787,10789,10789,10789,10819,10820,10820,10820,10820,10820,10820,10820,10844,10844,10860,10861,10861,10884,10884,10884,10907,10907,10907,10930,10930,10931,10931,10931,10955,10955,10955,10955,10955,10977,10978,10978,10978,10978,10979,10979,11003,11004,11004,11004,11004,11004,11004,11034,11034,11034,11035,11035,11064,11065,11065,11065,11065,11098,11098,11153,11171,11171,11171,11171" d="m364.50348,295.88889c1.16666,1 1.64914,1.61008 2.09982,2.32132c0.41614,0.65674 0.58282,1.75607 1.06949,2.47736c0.51669,0.76581 1.39899,1.03983 1.948,1.68799c0.6041,0.7132 1.21002,1.68506 1.65201,2.20001c0.4855,0.56564 1.03516,1.14453 1.548,1.79999c0.7916,1.01169 1.23117,1.76529 1.45734,2.13867c0.453,0.74792 0.87204,1.51755 1.64667,2.55301c0.50754,0.67844 1.07196,1.28641 1.62601,1.85999c0.77667,0.80411 1.27731,1.27066 1.95267,1.98251c0.45862,0.4834 1.16827,1.31119 1.68665,1.94849c0.56174,0.69061 1.15295,1.42218 1.47501,1.7825c0.98386,1.10077 1.71753,1.76706 2.091,2.08649c0.73798,0.63116 1.49237,1.20309 1.86334,1.47501c1.05606,0.77402 1.72534,1.23172 2.36316,1.66583c0.6149,0.41849 1.82541,1.21411 2.41632,1.62534c0.58847,0.40955 1.19629,0.80261 2.18301,1.81668c0.48984,0.50339 0.86444,1.08939 1.52017,1.80948c0.76364,0.83862 1.43515,1.26303 2.172,1.65201c0.86395,0.45605 1.55389,0.78159 2.3335,1.13818c0.42343,0.19366 1.34814,0.59744 2.39584,0.97916c1.14932,0.41873 1.77069,0.60251 2.40799,0.79999c0.65372,0.20258 1.32346,0.40189 2.00549,0.60001c2.08487,0.60565 2.78644,0.80127 3.48917,0.99866c0.70593,0.19827 1.41776,0.3942 2.13901,0.58051c0.7294,0.18842 1.47079,0.3721 2.229,0.53552c1.55902,0.33603 2.37222,0.4678 3.20398,0.60266c0.85257,0.13824 1.72943,0.26743 2.62952,0.4035c0.92526,0.13989 1.87756,0.28174 2.85449,0.44849c2.04401,0.34885 3.1069,0.57062 4.20132,0.79868c1.12558,0.23456 2.27942,0.48563 3.46503,0.73199c1.21439,0.25235 2.45758,0.50797 3.73499,0.73199c2.63535,0.46216 4.00189,0.63403 5.384,0.79599c1.38596,0.16238 2.76746,0.29562 4.13101,0.40952c1.33249,0.1113 2.62363,0.20224 3.86099,0.27451c2.2634,0.13217 3.27072,0.16937 4.19867,0.20267c0.85974,0.03082 1.66263,0.05157 2.41949,0.06448c0.7218,0.0123 1.41968,0.01761 2.10449,0.0195c1.37466,0.00381 2.0835,0.00134 2.80533,0.00134c0.72784,0 1.45468,0 2.17352,0c0.70383,0 1.38565,0 2.03848,0c1.19067,0 1.71716,0 2.20267,0c0.45349,0 0.884,0 1.30051,0c0.4115,0 0.827,0 1.25549,0c0.93201,0 1.45068,0 2.00134,0c0.57468,0 1.16531,0 1.76401,0c0.59866,0 1.18933,0 1.76398,0c1.06934,0 1.54984,0.00095 1.99335,-0.00134c0.40948,-0.00214 0.78809,-0.00626 1.13849,-0.0195c0.32562,-0.0123 0.64716,0.05417 1.6825,-0.20065c0.90259,-0.22214 1.76392,-0.76678 2.30701,-1.18918c0.59406,-0.46204 1.39026,-1.06442 2.11469,-1.61017c0.5,-0.37668 1.39716,-1.15045 1.83865,-1.80048c0.4523,-0.66589 0.98285,-1.82169 1.31851,-2.49301c0.36365,-0.72733 0.74728,-1.49466 0.94415,-1.88834c0.59894,-1.19769 1.00262,-2.009 1.44034,-2.83899c0.22769,-0.43176 0.72101,-1.33371 1.29166,-2.29169c0.30511,-0.51221 0.97324,-1.58023 1.31735,-2.13867c0.35056,-0.56888 0.70871,-1.14352 1.04398,-1.737c1.00232,-1.7742 1.26904,-2.38757 1.53336,-2.98831c0.25992,-0.59076 0.7139,-1.75946 0.91467,-2.33069c0.19547,-0.55615 0.69324,-2.13788 0.83582,-2.629c0.26923,-0.92725 0.50378,-1.80054 0.71701,-2.634c0.30902,-1.20786 0.49832,-2.00659 0.7045,-2.77698c0.19418,-0.72559 0.30435,-1.42072 0.89551,-2.56052c0.36288,-0.69968 0.68365,-1.43399 0.7045,-2.37149l0,-0.87149l0,-0.69101l0,-0.75101" id="svg_3" stroke-width="2" stroke="#000" fill="none"/>
  <path t="11764,11835,11859,11859,11875,11890,11890,11905,11913,11913,11941,11941,11941,11963,11963,11963,12019,12019,12019,12019,12035,12035,12035,12035,12059,12059,12076,12076,12090,12090,12105,12105,12119,12135,12150,12178,12179,12179,12201,12201,12202,12202,12202,12218,12218,12235,12235,12246,12271,12288,12288,12305,12305,12320,12321,12321,12337,12337,12338,12338,12355,12355,12370,12371,12387,12427,12459,12475,12475,12491,12491,12507,12507,12611,12611" d="m170.50346,343.88889c-0.61066,-1.60001 -1.30751,-2.2926 -1.8,-2.79999c-0.6898,-0.71066 -0.96568,-1.54974 -1.22533,-2.33868c-0.28259,-0.85867 -0.86208,-1.43716 -1.02733,-2.27032c-0.19855,-1.00107 -0.48534,-1.62628 -0.74867,-2.36166c-0.42529,-1.18768 -0.60316,-1.87637 -0.76266,-2.57867c-0.29779,-1.31119 -0.35425,-1.88376 -0.436,-2.67151c-0.08638,-0.83224 -0.21667,-1.84378 -0.35266,-2.63266c-0.14247,-0.82651 -0.32831,-1.62592 -0.52583,-2.96066c-0.12143,-0.82053 -0.12151,-1.70734 -0.12151,-2.40668c0,-0.97916 0,-1.95831 0,-2.8125c0,-0.86215 -0.00526,-1.76669 0,-2.66666c0.00534,-0.91074 0.21327,-1.82556 0.54167,-2.58334c0.21454,-0.49506 0.77992,-1.7804 0.94234,-2.16733c0.34186,-0.81445 0.67177,-1.64594 1.032,-2.41199c0.56915,-1.21033 0.94705,-1.76913 1.68399,-2.53735c0.4895,-0.51028 1.3055,-1.13461 1.716,-2c0.3593,-0.75745 0.80627,-1.48297 1.3885,-2.10898c0.59962,-0.64468 1.18428,-1.45929 1.53149,-1.96301c0.57423,-0.8331 1.16306,-1.72864 1.56267,-2.32532c0.38976,-0.58197 0.91661,-1.40912 1.57983,-2.25967c0.48117,-0.61707 1.32535,-1.26663 1.73618,-1.94299c0.47142,-0.77612 0.89821,-1.54276 1.50682,-2.07867c0.70781,-0.62326 1.49489,-0.87189 1.97984,-1.60535c0.45009,-0.68073 1.12,-1.49432 1.79866,-1.97433l0.83334,-0.375l0.80499,-0.21933" id="svg_4" stroke-width="2" stroke="#000" fill="none"/>
  <path t="13772,13907,13907,13926,13926,13926,13941,13942,13958,13958,13958,13958,13974,13975,13975,13975,13975,13975,13983,13984,13984,13984,13984,13984,13984,13997,13997,13997,13997,13997,13997,13998,13998,14029,14029,14029,14029,14029,14029,14053,14054,14054,14067,14067,14067,14067,14088,14088,14088,14104,14104,14121,14121,14121,14121,14137,14137,14145,14171,14187,14291,14307,14323,14323,14337,14337,14353,14354,14364,14377,14377,14393,14394,14421,14421,14423,14435,14435,14435,14435,14444,14445,14445,14445,14462,14462,14462,14478,14478,14494,14494,14494,14494" d="m236.50346,272.88889c-0.97916,-1.0625 -0.99933,-1.68799 -1,-2.95267c-0.00029,-0.54733 0,-1.36334 0,-2.59467c0,-0.67801 0,-1.87466 0,-2.42334c0,-0.948 -0.00148,-1.68668 0.00017,-2.99384c0.00063,-0.49149 0.00684,-1.54358 0.02068,-2.09799c0.02873,-1.15121 0.0463,-1.74286 0.14583,-2.9375c0.10034,-1.20433 0.18808,-1.80933 0.26933,-2.42134c0.0824,-0.62067 0.26906,-1.89291 0.36533,-2.54933c0.19983,-1.36249 0.29855,-2.07187 0.40001,-2.79599c0.10287,-0.73422 0.20464,-1.47406 0.3195,-2.21251c0.22707,-1.45979 0.34172,-2.17242 0.64583,-3.52083c0.14377,-0.63751 0.30424,-1.24356 0.64799,-2.36c0.15909,-0.51669 0.51599,-1.4429 0.85201,-2.64c0.25957,-0.92471 0.30423,-1.73111 0.66667,-2.66667c0.31407,-0.81071 0.65598,-1.35458 1.26933,-2.064c0.73811,-0.85368 1.39044,-1.24014 1.99733,-1.56667c0.98921,-0.53224 1.65356,-0.81474 2.39999,-1.536c0.64572,-0.62392 0.97086,-1.17282 1.51466,-1.89867c0.7173,-0.95741 1.31177,-1.41409 2.18533,-1.82068c0.83098,-0.38676 1.44844,-1.37413 2.26401,-1.362c0.36397,0.00542 1.10629,0.68875 1.75999,1.01468c0.9306,0.46397 1.28902,1.16833 1.62868,2.05266c0.27057,0.70441 0.50392,1.7652 0.93266,2.54868c0.33418,0.61072 1.06606,1.43231 1.3575,2.20316c0.29352,0.77635 0.34528,1.63699 0.35583,2.36617c0.01736,1.19989 0.00104,1.90179 0.03732,2.65067c0.0379,0.78198 0.17648,1.98001 0.31668,2.77417c0.13861,0.78526 0.32739,1.54225 0.48065,2.63783c0.13943,0.99678 0.14978,1.88409 0.16669,2.83334c0.01523,0.85428 0.16666,1.83333 0.35715,2.69133l0.16367,0.642l0.18369,0.642" id="svg_5" stroke-width="2" stroke="#000" fill="none"/>
  <path t="15148,15171,15190,15190,15203,15203,15220,15220,15220,15220,15237,15237,15237,15237,15247,15247,15247,15271,15271,15271,15271,15271,15288,15288,15288,15304,15304,15317,15338,15353,15354,15354,15354,15371,15371,15371,15389,15389,15390,15397,15397,15397,15397,15428,15428,15452,15470,15470,15491,15491,15507,15523,15539,15540,15540,15552,15552,15552,15552,15552,15552,15552,15570,15570,15570,15570,15570,15619,15619,15619,15619,15635,15653,15654,15679,15697,15697,15697,15697,15697,15718,15718,15718,15718,15819,15820" d="m363.50348,286.88889c0.52081,-2.47916 1.23801,-3.16934 1.69998,-3.75717c0.54602,-0.69476 0.93011,-1.47269 1.13333,-2.40948c0.17026,-0.78488 0.17575,-1.68173 0.25067,-2.32001c0.16443,-1.40063 0.34204,-2.12784 0.49066,-2.85199c0.142,-0.69186 0.3436,-1.89444 0.42535,-2.68219c0.08636,-0.83224 0.21854,-1.84378 0.35266,-2.64166c0.14435,-0.85886 0.30002,-1.73584 0.36331,-2.17084c0.17764,-1.22122 0.26154,-2.27292 0.27951,-3.14331c0.01819,-0.88016 0.00452,-1.82068 0.00452,-2.72336c0,-0.86249 0,-1.79999 0,-2.66699c0,-0.67465 -0.00458,-1.38934 0.00015,-2.81134c0.0022,-0.66 -0.03873,-1.58665 0.1665,-2.65498c0.14023,-0.72998 0.46689,-1.41997 0.83334,-2.5c0.21341,-0.62895 0.37164,-1.31564 0.69998,-2.30417c0.36835,-1.10898 0.79532,-1.79095 1.21735,-2.5625c0.43271,-0.79108 1.06885,-1.37268 1.91599,-1.63333c0.8385,-0.258 1.76666,-0.16667 2.57733,-0.16667c0.91183,0 1.73517,0 2.33685,0c1.2525,0 2.35916,0 2.97748,0c0.64835,0 1.31668,0 1.99503,0c1.34665,0 2.61331,0 3.19382,0c1.05301,0 1.98199,0 2.811,0c1.10849,0 1.78818,-0.02658 2.71268,0.02083c0.79208,0.04062 1.91864,0.1976 2.39581,0.97917c0.43686,0.71555 0.76337,1.5582 1,2.66667c0.14163,0.66344 0.14041,1.46672 0.19202,2.34c0.02682,0.45419 0.12491,1.82901 0.25867,2.70399c0.12592,0.82384 0.29065,1.57066 0.54932,2.78934l0.13068,0.80267" id="svg_6" stroke-width="2" stroke="#000" fill="none"/>
 </g>
 <g display="none">
  <title>muse_image</title>
  <image xlink:href="http://farm2.static.flickr.com/1312/1414910830_319ac35980.jpg" id="muse" height="427" width="640" y="26.5" x="0"/>
 </g>
 <g display="none">
  <title>bbox</title>
  <rect stroke="#f00" fill="none" stroke-width="3" height="317.05389" width="444.16" y="72.52395" x="108.8" id="bbox"/>
 </g>
</svg>
