<svg width="640" height="480" xmlns="http://www.w3.org/2000/svg" xmlns:svg="http://www.w3.org/2000/svg" xmlns:xlink="http://www.w3.org/1999/xlink">
 <!-- Sketchy ANNOTATION
  ImageNet ID: n02691156_8408
  URL: http://farm1.static.flickr.com/149/417566635_abe4a920b5.jpg
  Image Width: 500
  Image Height: 333
  BBox X: 72
  BBox Y: 112
  BBox Width: 366
  BBox Height: 105
  Exposure: 2000ms
  Synset Label: airplane
  Synset ID: n02691156
  Worker Tag: airplane flying
  Sanity Check: 
   Context
   Shading
   Saved
  Comment: 
   {}
  Worker ID: A1MIBJZ4GK1E9H
  Assignment ID: 3TVSS0C0E10Z0KS0J5KUG4NVY4ZTW4
  HIT ID: 3CVBMEMMXBGSIC2AL1QRLLQ5W6Q7H3
  Work Time: 266s
  Worker Score: 0.9286
 END ANNOTATION -->
 <g>
  <title>Layer 1</title>
  <path t="29188,30003,30003,30014,30022,30033,30052,30055,30055,30073,30085,30094,30105,30105,30115,30115,30115,30122,30122,30123,30135,30135,30145,30155,30155,30167,30173,30189,30189,30207,30218,30227,30227,30238,30239,30239,30249,30249,30259,30259,30269,30277,30288,30301,30309,30322,30340,30340,30360,30372,30390,30391,30402,30402,30411,30411,30422,30422,30432,30432,30441,30441,30455,30455,30462,30463,30471,30472,30485,30491,30492,30505,30505,30515,30515,30524,30524,30535,30535,30543,30544,30544,30556,30565,30574,30574,30589,30589,30589,30596,30597,30605,30606,30616,30617,30625,30626,30638,30657,30657,30668,30669,30675,30676,30688,30689,30698,30717,30718,30727,30727,30738,30749,30750,30759,30772,30780,30788,30789,30798,30798,30808,30823,30824,30830,30839,30839,30851,30852,30852,30860,30861,30861,30872,30872,30881,30882,30883,30884,30890,30891,30891,30892,30901,30902,30909,30909,30910,30922,30922,30934,30935,30942,30955,30956,30963,30964,30964,30965,30972,30972,30973,30973,30985,30985,30993,30994,31005,31006,31015,31016,31023,31023,31038,31039,31045,31055,31067,31107,31230,31240,31251,31270,31280,31281,31289,31307,31333,31424,31435,31444,31454,31465,31515,31556,31575,31589,31638,31649,31678,31688,31719,31761,31803,31814,31822,31823,31838,31838,31844,31855,31866,31873,31894,31904,31936,31956,31986,31997,32037,32048,32067,32079,32079,32088,32088,32099,32108,32128,32129,32138,32151,32160,32172,32181,32190,32201,32202,32210,32231,32232,32251,32263,32301,32312,32321,32321,32342,32355,32365,32384,32395,32396,32404,32416,32417,32424,32438,32445,32454,32466,32467,32474,32488,32515,32552,32552,32557,32569,32576,32598,32606,32621,32622,32629,32638,32650,32657,32689,32701,32701,32719,32730,32738,32755,32771,32783,32783,32789,32813,32814,32821,32832,32844,32854,32855,32866,32875,32883,32883,32884,32895,32895,32896,32905,32905,32917,32917,32918,32925,32926,32927,32938,32938,32939,32940,32946,32947,32948,32949,32949,32957,32958,32958,32968,32968,32976,32988,32989,32997,33048,33071,33086,33087,33100,33119,33120,33130,33130,33138,33139,33150,33151,33159,33160,33171,33180,33181,33199,33210,33211,33384,33396,33404,33416,33424,33439,33446,33448,33456,33467,33468,33475,33496,34509,34536,34540,34550,34562,34563,34570,34571,34583,34591,34592,34604,34612,34630,34641,34654,34663,34671,34684,34684,34692,34693,34704,34705,34714,34715,34723,34724,34737,34738,34745,34754,34755,34766,34774,34774,34775,34793,34794,34805,34816,34817,34818,34827,34828,34829,34838,34839,34846,34854,34855,34871,34872,34876,34877,34887,34888,34897,34906,34926,34927,34937,34956,34956,34971,34980,34988,34999,35000,35001,35009,35010,35021,35031,35033,35041,35054,35060,35070,35071,35091,35104,35112,35120,35133,35134,35142,35143,35154,35155,35164,35165,35174,35175,35187,35188,35193,35204,35205,35211,35212,35223,35237,35244,35246,35254,35256,35266,35267,35275,35288,35297,35298,35306,35308,35316,35325,35326,35337,35348,35356,35366,35375,35406,35421,35422,35426,35465,35480,35488,35504,35509,35510,35521,35522,35529,35531,35539,35541,35554,35555,35561,35562,35571,35581,35763,35773,35787,35789,35801,36135,36167,36813,36822,36836,36843,36864,36873,36887,36896,36897,36906,36924,36945,36953,36971,36987,36988,36999,37000,37008,37020,37042,37068,37080,37088,37098,37108,37109,37120,37139,37221,37262,37287,37598,37610,37619,37631,37632,37642,37643,37653,37654,37660,37669,37671,37672,37681,37710,37730,37739,37753,37764,37782,37794,37804,37806,37822,37837,37838,37844,37845,37854,37864,37873,37886,37895,37913,37914,37923,37936,37937,37946,37948,37956,37958,37970,37976,37978,37987,37988,37997,37998,38007,38019,38021,38036,38048,38056,38058,38069,38079,38080,38097,38110,38119,38120,38138,38189,38203,38211,38212,38221,38231,38232,38234,38243,38255,38257,38262,38263,38280,38282,38287,38292,38301,38302,38311,38313,38322,38336,38342,38344,38354,38355,38356,38364,38365,38374,38376,38380,38382,38391,38403,38414,38416,38424,38426,38439,38441,38445,38446,38456,38457,38464,38473,38486,38495,38505,38555,38570,38576,38585,38597,38598,38599,38608,38620,38627,38637,38648,38657,38659,38670,38680,38689,38703,38704,38706,38710,38711,38721,38723,38724,38729,38731,38740,38742,38743,38753,38754,38756,38760,38762,38772,38773,38775,38779,38781,38790,38791,38803,38805,38809,38811,38812,38822,38824,38825,38827,38831,38832,38834,38843,38845,38850,38851,38861,38863,38873,38875,39951,40011,40024,40025,40055,40069,40329,40352,40353,41049,41059,41061,41071,41072,41080,41082,41091,41092,41103,41105,41106,41110,41121,41122,41130,41131,41133,41143,41153,41161,41163,41172,41174,41185,41192,41193,41204,41205,41213,41222,41224,41238,41240,41242,41249,41252,41254,41257,41268,41270,41272,41276,41278,41280,41281,41285,41287,41289,41301,41327,41332,41351,41363,41373,41385,41393,41396,41406,41407,41413,41415,41444,41454,41535,41546,41552,41554,41564,41565,41575,41577,41587,41602,41603,41608,41610,41612,41617,41618,41620,41630,41632,41731,41741,41751,41753,41761,41763,41773,41774,41776,41782,41783,41795,41797,41802,41804,41820,41835,41837,41861,41872,41873,41880,41891,41902,41919,41924,41926,41937,41974,41984,41986,41994,41996,42006,42019,42021,42025,42027,42038,42040,42045,42047,42058,42060,42065,42067,42078,42088,42095,42097,42124,42135,42146,42156,42169,42185,42187,42204,42219,42397,43093,43124,43126,43132,43134,43138,43140,43144,43155,43157,43173,43184,43195,43206,43223,43225,43243,43245,43264,43266,43276,43287,43295,43297,43307,43319,43326,43337,43339,43366,43423,43437,43451,43468,43470,43489,43501,43511,43541,43553,43570,43572,43584,43592,43604,43612,43614,43624,43643,43654,43673,43685,43703,43754,43784,43806,43818,43826,43837,43839,43851,43856,43858,43870,43886,43901,43907,44018,45151,45160,45162,45173,45176,45189,45191,45196,45198,45203,45205,45216,45218,45222,45224,45236,45238,45240,45245,45247,45252,45263,45274,45276,45283,45294,45342,45353,45372,45393,45404,45444,45455,45467,45469,45476,45487,45489,45495,45506,45508,45519,45527,45538,45540,45546,45548,45558,45561,45566,45568,45579,45581,45586,45597,45599,45611,45613,45615,45620,45622,45624,45627,45631,45634,45636,45641,45643,45648,45666,45668,45677,45680,45691,45696,45699,45700,45712,45714,45719,45721,45728,45730,45732,45737,45739,45750,45753,45755,45760,45762,45765,45770,45772,45777,45780,45782,45787,45790,45792,45798,45801,45803,45805,45807,45812,45815,45817,45822,45824,45827,45829,45835,45837,45839,45844,45847,45849,45854,45857,45862,45864,45867,45872,45874,45877,45882,45884,45886,45892,45894,45899,45902,45914,45917,45919,45924,45927,45929,45934,45937,45939,45944,45947,45949,45954,45957,45962,45964,45967,45972,45974,45981,45984,45996,46001,46004,46016,46018,46023,46026,46029,46034,46036,46039,46044,46047,46052,46055,46057,46063,46065,46071,46073,46086,46092,46104,46118,46120,46126,46129,46134,46146,46152,46164,46177,46182,46185,46198,46212,46224,46237,46240,46254,46268,46273,46288,46303,46318,46334,46351,46353,46359,46362,46374,46387,46389,46396,46413,46416,46421,46435,46437,46446,46459,46486,46489,46501,46558,46570,46608,46619,46659,46669,46683,46690,46702,46710,46713,46725,46727,46733,46745,46752,46771,46802,46945,46956,46967,47087,47301,47317,47319,47325,47333,47335,47347,47350,47355,47367,47370,47372,47378,47381,47383,47388,47391,47393,47399,47401,47404,47409,47411,47414,47419,47422,47424,47429,47432,47434,47440,47442,47445,47450,47453,47455,47461,47464,47466,47468,47471,47473,47478,47481,47484,47486,47488,47491,47498,47501,47503,47505,47508,47510,47513,47515,47517,47525,47527,47530,47532,47535,47537,47539,47542,47544,47550,47552,47555,47557,47559,47562,47564,47567,47569,47581,47584,47586,47589,47592,47594,47597,47599,47602,47607,47610,47612,47615,47617,47619,47622,47625,47627,47633,47636,47638,47641,47644,47646,47648,47651,47654,47659,47662,47667,47670,47672,47675,47677,47680,47682,47750,47753,47755,47758,47760,47763,47765,47768,47770,47776,47779,47781,47784,47786,47788,47791,47793,47796,48648,48651,48654,48656,48659,48661,48664,48666,48669,48674,48677,48709,48721,48739,48819,48840,48853,48870,48900,48961,48964,48971,48984,48997,49004,49017,49020,49026,49062,49073,49091,49104,49117,49123,49136,49143,49146,49161,49175,49188,49194,49197,49210,49216,49218,49224,49227,49240,49244,49249,49255,49258,49266,49269,49275,49294,49297,49306,49318,49325,49328,49341,49344,49349,49352,49367,49376,49379,49393,49436,49439,49452,49455,49461,49467,49469,49482,49485,49491,49495,49500,49513,49519,49522,49528,49531,49539,49541,49544,49550,49553,49556,49558,49564,49567,49573,49576,49578,49584,49587,49593,49596,49599,49604,49607,49613,49616,49622,49625,49639,49643,49649,49651,49668,49684,49690,49703,49717,49720,49726,49732,49735,49741,49754,49761,49774,49791,49804,49819,49822,49852,49866,49872,49891,49904,49908,49914,49927,49933,49947,49962,49975,49988,50034,50037,50050,50057,50060,50066,50079,50350,50370,50374,50382,50392,50399,50405,50409,50415,50421,50435,51510" d="m268.22998,164.29002c-1.04398,0.82146 -1.58139,1.24078 -2.41232,1.85757c-0.71887,0.5336 -1.47769,1.02113 -2.37808,1.22699c-0.81918,0.18729 -1.67856,0.03545 -2.55676,0.03545c-0.90955,0 -1.79025,0.06628 -2.75781,-0.10333c-0.67975,-0.11917 -1.77661,-0.50897 -2.52937,-0.77565c-0.59326,-0.21016 -1.66846,-0.67334 -2.36586,-0.9958c-0.6976,-0.32254 -1.55479,-0.74518 -2.49095,-1.02094c-0.84264,-0.24821 -1.7605,-0.08118 -2.65698,-0.27805c-0.8824,-0.19377 -1.41351,-0.94247 -2.21082,-1.32307c-0.7756,-0.37024 -1.72214,-0.69986 -2.5377,-1.01984c-0.83113,-0.32608 -1.36659,-0.79738 -2.19164,-1.35333c-0.79599,-0.53639 -1.48463,-0.82254 -2.435,-1.32391c-0.73305,-0.38673 -1.48241,-0.9599 -2.05292,-1.50314c-0.67366,-0.64146 -1.51599,-0.90039 -2.28769,-1.3073c-0.78456,-0.4137 -1.53371,-0.97916 -2.26292,-1.31671c-0.9115,-0.42192 -1.819,-0.40282 -2.54805,-0.93848c-0.68941,-0.50655 -1.44487,-1.07727 -2.08635,-1.36943c-0.93291,-0.4249 -1.3334,-1.16458 -2.22226,-1.51518c-0.78932,-0.31136 -1.79117,-0.22081 -2.49608,-0.50714c-0.85371,-0.34679 -1.47023,-1.01396 -2.27127,-1.54178c-0.62973,-0.41493 -1.61078,-0.71709 -2.31741,-1.02689c-0.95039,-0.41666 -1.711,-0.83319 -2.34407,-1.52493c-0.59769,-0.65308 -1.01826,-1.49355 -1.82117,-1.87827c-0.63414,-0.30385 -1.62389,-0.46625 -2.47375,-0.89726c-0.86754,-0.43997 -1.24503,-1.15259 -2.05467,-1.63239c-0.64702,-0.38342 -1.62381,-0.75653 -2.36581,-1.22391c-0.75996,-0.4787 -1.53374,-0.93694 -2.14243,-1.49329c-0.7439,-0.67992 -0.94067,-1.75586 -1.64424,-2.0779c-0.75276,-0.34456 -1.6738,-0.30023 -2.57268,-0.69002c-0.66656,-0.28905 -1.59721,-0.71524 -2.26125,-1.16101c-0.79968,-0.53682 -1.28532,-1.09846 -2.09885,-1.69328c-0.66982,-0.48975 -1.5005,-0.91409 -2.22823,-1.38011c-0.828,-0.53023 -1.6563,-0.85663 -2.46783,-1.19093c-0.76132,-0.31361 -1.61974,-0.60512 -2.54915,-0.99628c-0.71587,-0.30128 -1.51274,-0.60495 -2.35869,-0.9373c-0.91541,-0.35965 -1.65245,-0.89087 -2.30392,-1.36504c-0.72273,-0.52602 -1.64742,-0.62563 -2.5,-0.96125c-0.77446,-0.30486 -1.50404,-0.68578 -2.24063,-1.29913c-0.69586,-0.57945 -1.40149,-1.15269 -2.2377,-1.49941c-0.82095,-0.3404 -1.68623,-0.57944 -2.36583,-0.93833c-0.83939,-0.44328 -1.60533,-1.02688 -2.22791,-1.43684c-0.8391,-0.55255 -1.55695,-1.16649 -2.06401,-1.50977c-0.92125,-0.62366 -1.67984,-1.12986 -2.28867,-1.49339c-0.86357,-0.51563 -1.562,-0.88016 -2.26819,-1.19624c-1.07684,-0.48199 -1.73492,-0.69352 -2.74373,-0.92543c-0.91264,-0.2098 -1.58919,-0.31323 -2.28574,-0.4388c-1.38788,-0.25021 -2.05011,-0.36408 -2.67365,-0.51244c-0.87306,-0.20773 -1.88814,-0.56707 -2.71336,-1.05381c-0.78325,-0.46198 -1.50076,-1.00795 -2.07512,-1.33283c-0.91769,-0.5191 -1.71242,-0.72765 -2.63588,-1.34167c-0.67941,-0.45176 -1.38684,-0.90208 -2.31621,-1.17304c-0.75938,-0.2214 -1.70134,-0.59682 -2.24811,-0.80674c-0.89847,-0.34496 -1.53799,-0.60005 -2.56151,-0.96378c-1.04782,-0.37238 -1.7326,-0.60071 -2.39003,-0.76854c-1.11678,-0.2851 -2.01636,-0.35 -2.97453,-0.35667c-0.74919,-0.00521 -1.87341,0 -2.62421,0c-0.93834,0 -1.68774,0 -2.81166,0c-0.74397,0 -1.77335,0 -2.4771,0c-0.96124,0 -1.89645,0 -2.75754,0c-0.90931,0 -1.83218,-0.23106 -2.64145,0.02232c-0.78382,0.24541 -1.21568,1.22197 -1.62457,2.09769c-0.34512,0.73911 -0.26446,1.88501 -1.00167,2.24834c-0.83666,0.41235 -1.37601,0.62999 -1.37601,1.4531c0,0.94523 -0.30152,1.67215 -0.54466,2.5c-0.26721,0.9098 -0.07241,1.80318 -0.39034,2.61356c-0.30853,0.78642 -0.315,1.6694 -0.315,2.55602c0,0.94319 -0.4921,2.07742 0.13954,2.68243c0.61083,0.58508 1.02058,0.93344 1.4515,1.66259c0.4925,0.83336 1.05532,1.38351 1.52431,2.21242c0.38482,0.68013 0.46573,1.58832 0.63548,2.52179c0.15124,0.83168 0.22336,1.91119 0.89959,2.40707c0.6879,0.50444 1.44476,0.47214 2.04284,1.04771c0.64213,0.61797 0.84908,1.3593 1.68448,1.47496c0.86873,0.12027 1.70386,0.49193 2.55598,0.79976c0.62453,0.22562 1.5472,0.61655 2.3902,0.94708c0.90541,0.35501 1.63487,0.85471 2.40941,1.37483c0.60954,0.40933 1.46698,0.88203 2.1671,1.28673c0.77368,0.44722 1.48242,1.03859 2.13795,1.59596c0.63011,0.53577 1.49696,0.93198 2.15871,1.3688c0.75217,0.49652 1.10355,1.4449 1.88081,1.81992c0.81415,0.39282 0.99147,1.08829 1.67525,1.60667c0.74718,0.56645 1.29048,1.21533 2.07391,1.52049c0.82263,0.32042 1.71173,0.49968 2.5423,0.98929c0.7621,0.44925 1.21565,1.23241 1.93605,1.56363c0.93053,0.42784 1.8606,0.67929 2.62267,0.74602c0.91156,0.07982 1.69144,0.3667 2.50166,0.68288c0.8481,0.33095 1.73912,0.72246 2.40961,0.92337c0.9817,0.29417 1.85657,0.26068 2.66086,0.58458c0.73834,0.29735 1.59692,0.17229 2.42871,0.36375c0.8485,0.19531 1.50818,0.96906 2.35869,1.1608c0.97156,0.21902 1.80029,0.15881 2.46323,0.59319c0.78876,0.51682 1.47719,1.24605 2.37691,1.32225c0.87228,0.07388 1.88501,-0.11504 2.5535,0.35582c0.68506,0.48251 1.12459,1.26414 1.9465,1.53687c0.79324,0.2632 1.51556,0.89011 2.27859,1.41685c0.69124,0.47719 1.34201,0.89449 2.23027,1.31271c0.83823,0.39467 1.7205,0.58061 2.52573,1.06197c0.78239,0.46771 1.36276,1.01346 2.16789,1.32533c0.77492,0.30017 1.40242,1.02916 2.1152,1.4882c0.778,0.50104 1.49661,0.57529 2.29373,0.74908c1.23991,0.27034 1.91177,0.36243 2.87854,0.56363c0.84807,0.1765 1.69974,0.40454 2.61563,0.91454c0.69754,0.38841 1.26663,0.80034 2.23274,1.27c0.82008,0.39867 1.4239,0.6277 2.66225,1.125c0.62595,0.25137 1.25983,0.50784 1.91893,0.75c1.40669,0.51682 2.18362,0.75046 2.58032,0.875c0.79921,0.25092 1.59784,0.46883 3.02379,0.99979c0.6207,0.23112 1.39175,0.64214 2.27029,0.91689c0.90446,0.28287 1.63954,0.56775 2.4922,1.02097c0.61073,0.32463 1.85019,-0.06955 2.55569,0.61711c0.62422,0.60754 1.01396,1.15036 1.72839,1.57423c0.77985,0.46269 1.68706,0.79327 2.30878,1.15305c0.78865,0.45638 1.37704,1.13608 2.1722,1.7213c0.66179,0.48706 1.49911,0.85236 2.35867,1.03148c0.93271,0.19437 1.62711,0.33379 2.5274,0.91832c0.69044,0.44829 1.39388,1.03584 2.20602,1.44687c0.7984,0.40407 1.35901,0.85432 2.22833,1.50504c0.72337,0.54146 0.88893,1.34692 1.23694,2.09772c0.37135,0.80116 0.87361,1.54971 1.63861,2.10992c0.68137,0.49896 1.44423,0.96101 2.05714,1.56526c0.54341,0.53574 0.88992,1.55052 1.67296,2.09373c0.68994,0.47864 -0.00774,-0.01279 -0.91737,0.10617c-0.86655,0.11333 -1.63785,0.74301 -2.29031,1.12399c-0.77184,0.45068 -1.50203,0.63248 -2.37463,1.26875c-0.80525,0.58716 -1.44405,0.96974 -2.03166,1.73216c-0.49413,0.64111 -1.08467,1.28828 -1.99762,1.51784c-0.86021,0.21629 -1.42876,0.77814 -2.02045,1.48216c-0.52592,0.62576 -1.34563,0.92685 -2.09969,1.51784c-0.54837,0.42978 -1.5136,0.9716 -2.24725,1.23042c-0.93134,0.32855 -1.68922,0.55367 -2.62286,0.87798c-0.75397,0.2619 -1.72212,0.6458 -2.39899,1.12123c-0.79057,0.5553 -0.95761,1.43359 -1.45345,2.09656c-0.55923,0.74773 -1.52977,1.09601 -2.15782,1.55763c-0.66333,0.48753 -1.18292,1.34491 -1.58376,1.96739c-0.51077,0.79323 -1.52336,1.34154 -2.17957,1.78261c-0.55145,0.37067 -1.32103,0.9525 -2.01353,1.67351c-0.5074,0.52827 -1.05957,1.49176 -1.39494,2.16516c-0.42451,0.8524 -1.13058,1.37593 -1.87483,1.81168c-0.79907,0.46783 -1.49641,0.93709 -2.44145,1.39418c-0.69901,0.33809 -1.52524,0.85657 -1.96916,1.43387c-0.56789,0.73851 -1.41435,1.26047 -2.034,1.83054c-0.56772,0.52231 -1.13324,1.198 -1.87332,1.87c-0.57257,0.5199 -0.96643,1.28072 -1.72482,1.7403c-0.71178,0.43134 -1.50275,1.18684 -2.16722,1.68138c-0.50952,0.37921 -1.2827,1.02371 -1.9785,1.58899c-0.7265,0.59023 -1.46576,1.2354 -1.65819,1.90884c-0.28252,0.98866 -0.74403,1.67635 -1.34645,2.37614c-0.58517,0.67976 -1.11229,1.37883 -1.47858,2.13972c-0.39034,0.81084 -0.22501,1.81825 -0.54501,2.62897c-0.34785,0.88129 -0.72813,1.47691 -1.16783,2.35796c-0.36217,0.72571 -0.82571,1.6945 -1.18845,2.33771c-0.47148,0.83601 -1.03247,1.45116 -1.63995,2.28166c-0.43976,0.6012 -0.85313,1.50168 -1.23018,2.25c-0.37875,0.75171 -0.95859,1.62064 -1.37794,2.125c-0.6183,0.74364 -0.99527,1.5062 -1.24542,2.48709c-0.20398,0.79984 -0.74644,1.57585 -1.09976,2.18115c-0.54698,0.93709 -1.02437,1.59456 -1.47227,2.40302c-0.40683,0.73431 -0.5226,1.65216 -0.95905,2.44037c-0.44038,0.79532 -1.11455,1.39108 -1.89679,1.99252c-0.64694,0.49741 -1.56827,0.85635 -1.96858,1.72586c-0.3282,0.71286 -0.14029,1.76041 -0.70294,2.54572c-0.43022,0.60046 -1.76013,0.38583 -2.32207,1.10095c-0.48259,0.61417 -0.52354,1.59491 -1.08896,2.09073c-0.80234,0.70358 -1.40848,1.26089 -2.06299,1.84711c-0.69809,0.62527 -1.48001,1.02069 -2.05472,1.79382c-0.46298,0.62283 -0.95406,1.28238 -1.57478,1.77167c-0.8109,0.63919 -1.54201,1.2467 -2.17688,1.875c-0.62823,0.62173 -1.29076,1.21326 -1.86188,1.88791c-0.57648,0.68097 -0.79776,1.40088 -1.25978,2.27542c-0.46031,0.87134 -0.5565,1.7131 -1.16663,2.34103c-0.62631,0.64459 -1.16409,1.22379 -1.84106,1.84521c-0.65523,0.60147 -1.05339,1.29968 -1.36394,2.0517c-0.32706,0.79199 0.12637,1.75885 -0.22537,2.65009c-0.29526,0.74811 -0.37808,1.58649 -0.62352,2.35907c-0.27023,0.85062 -0.4064,1.67856 -0.40782,2.63849c-0.00119,0.80548 0,1.79474 0,2.68503c0,0.85208 0.07832,1.8024 -0.045,2.58878c-0.14146,0.90207 -0.92793,1.41644 -1.42371,2.19287c-0.51509,0.80667 -0.58058,1.58664 -1.03108,2.32043c-0.44075,0.71793 -0.45998,1.75671 -0.9015,2.41833c-0.51758,0.77557 -1.36792,1.13266 -1.59705,2.11795c-0.21164,0.91016 -0.37483,1.55246 -0.64433,2.37543c-0.26855,0.8201 -0.55295,0.99786 -0.10335,0.32251c0.46271,-0.69504 1.22035,-1.41187 1.86478,-1.69128c0.94684,-0.41052 1.67966,-0.71112 2.43649,-1.18192c0.66862,-0.41592 1.55304,-1.12296 2.28142,-1.68039c0.56778,-0.43454 1.24147,-0.89334 2.00009,-1.51605c0.81357,-0.66785 1.6274,-0.84882 2.2319,-1.31796c0.6778,-0.52603 1.21983,-1.34052 2.0657,-1.43265c0.8831,-0.09619 1.87625,0.06445 2.50896,-0.504c0.70673,-0.63495 1.19,-1.2821 1.89992,-1.4086c0.93199,-0.16608 1.74132,-0.44232 2.59386,-0.96515c0.7713,-0.47302 1.56664,-0.81155 2.37187,-1.14023c0.78496,-0.3204 1.81673,-0.37811 2.46002,-0.83484c0.75708,-0.53751 1.23241,-1.30951 1.98413,-1.71219c0.81294,-0.43546 1.49374,-1.00073 2.30188,-1.55035c0.59541,-0.40494 1.64168,-0.56219 2.47833,-0.73965c0.84569,-0.17938 1.71738,-0.5639 2.36583,-1.1629c0.60326,-0.55722 0.93787,-1.41071 1.4691,-2.23148c0.46742,-0.72217 1.3492,-0.8764 2.05394,-1.32144c0.82878,-0.52335 1.59323,-0.96399 2.38559,-1.21051c0.85657,-0.26648 1.75211,-0.48889 2.37221,-0.95969c0.7552,-0.57336 1.76482,-0.84958 2.4342,-1.41565c0.57901,-0.48962 1.14754,-1.20233 1.87659,-1.59354c0.68091,-0.36536 1.15607,-1.1741 1.73895,-1.80588c0.57022,-0.61804 1.4193,-1.2309 2.08821,-1.55594c0.67731,-0.32913 1.63791,-0.86307 2.25705,-1.63797c0.47289,-0.59186 1.04341,-1.40469 1.67812,-1.86209c0.79543,-0.57321 1.54266,-0.88419 2.40231,-1.25186c0.73912,-0.31613 1.43513,-1.04694 1.90234,-1.51389c0.74458,-0.74417 1.31346,-1.32425 1.98785,-1.99319c0.59106,-0.5863 1.37309,-1.17151 2.01996,-1.65836c0.74661,-0.56192 1.27051,-1.09921 2.04988,-1.71741c0.7252,-0.57523 1.52026,-0.86899 2.33121,-1.35822c0.75084,-0.45297 1.46902,-1.05371 2.22833,-1.13937c0.98135,-0.11069 1.79266,-0.44388 2.25331,-1.25562c0.40895,-0.72064 1.03339,-1.40982 1.67628,-1.80609c0.79274,-0.48865 1.51503,-0.94965 2.26097,-1.44882c0.72472,-0.48499 1.49376,-1.00171 2.18591,-1.62109c0.61307,-0.54861 1.44284,-1.00476 2.07159,-1.67609c0.63217,-0.67499 1.42081,-0.89474 1.98299,-1.52582c0.48163,-0.54063 0.86165,-1.31825 1.60284,-1.84038c0.83682,-0.58948 1.48769,-0.92995 2.16501,-1.20773c0.89436,-0.36679 1.63043,-1.00421 2.23381,-1.47981c0.68878,-0.54292 1.38824,-1.22319 2.04727,-1.8775c0.51625,-0.51257 1.33379,-1.14319 1.8808,-1.64435c0.64249,-0.58862 1.40891,-1.0872 2.09232,-1.70023c0.5515,-0.49469 1.27486,-1.15428 2.04962,-1.64316c0.72972,-0.46045 1.53841,-0.69597 2.19534,-1.13792c0.83722,-0.56325 1.3159,-1.35226 1.94147,-2.08022c0.49513,-0.57619 1.05081,-1.12917 1.80122,-1.87648c0.55981,-0.55751 1.30005,-1.27083 2.06024,-1.88225c0.54337,-0.43703 1.42134,-1.13806 1.98129,-1.82002c0.41174,-0.50145 1.04663,-1.28743 1.61166,-1.98421c0.59351,-0.73189 0.97569,-1.42014 1.66985,-2.00563c0.68355,-0.57657 1.57603,-1.12224 2.26349,-1.65596c0.49126,-0.38139 1.48653,-1.28793 1.976,-1.81726c0.49747,-0.53799 0.94321,-1.10425 1.79333,-2.08565c0.50674,-0.58499 1.08838,-1.1851 1.88443,-1.63525c0.66147,-0.37404 1.53894,-0.85114 2.04309,-1.50121c0.60519,-0.78038 0.91696,-1.57414 1.48105,-2.30177c0.49313,-0.63609 1.22617,-1.38942 1.89758,-1.97008c0.66638,-0.57628 1.4238,-0.86322 2.26407,-1.34003c0.81274,-0.4612 1.60284,-0.73436 2.40482,-1.03999c0.72018,-0.27446 1.4964,-0.95566 2.40939,-1.09212c0.84241,-0.12592 1.78632,-0.0553 2.49686,-0.0529c0.97839,0.00331 1.76135,0.01463 2.85968,0.2215c0.70636,0.13304 1.61737,0.38438 2.4361,0.65077c0.72824,0.23694 1.62634,0.64812 2.50632,0.9994c0.83951,0.33514 1.7691,0.63994 2.51599,0.86937c0.69833,0.21451 1.72809,0.37245 2.6286,0.37897c0.85745,0.0062 1.66409,-0.05626 2.77539,0.105c0.81934,0.1189 1.55872,0.62927 2.25198,1.20921c0.56921,0.47617 1.55942,0.78625 2.25583,0.96431c0.92737,0.23711 1.9505,0.22148 2.80823,0.22148c1.01398,0 1.69781,0 2.43835,0c1.07562,0 1.94559,0 2.85495,0c0.61963,0 1.86972,-0.00578 2.5,0.00671c0.96588,0.01915 1.97159,0.09016 2.66693,0.17221c1.04941,0.12384 1.71658,0.25681 2.90942,0.37454c0.71579,0.07065 1.53156,-0.20869 2.50513,0.08945c0.87781,0.26881 1.32272,1.14711 2.16193,1.23709c0.8439,0.09048 1.76007,-0.04332 2.63,0.00279c0.97934,0.05191 1.64999,0.2298 2.63892,0.61887c0.72681,0.28595 1.56744,0.84181 2.30042,1.07141c0.9631,0.30168 1.66379,0.5778 2.07791,1.42859c0.35175,0.72263 0.90186,1.47675 1.48172,1.98274c0.7153,0.62419 1.4072,0.98445 2.33762,1.55042c0.65454,0.39815 1.5238,0.72983 2.3223,1.0723c0.72342,0.31027 1.44937,0.86485 2.10941,1.37206c0.7363,0.56581 1.47321,1.22633 1.96835,1.67503c0.70984,0.64326 1.49448,1.46188 2.35458,1.67372c0.87476,0.21544 1.67432,0.24356 2.25854,0.97583c0.49979,0.62642 1.30768,1.21735 1.8454,1.55833c0.90253,0.57236 1.68729,0.84651 2.42392,1.19398c0.9523,0.4492 1.66843,0.93242 2.30161,1.44882c0.71265,0.58124 1.41992,1.25883 2.14777,1.56735c0.95551,0.40501 1.64737,0.82365 2.31039,1.18001c0.85641,0.46028 1.71558,0.94289 2.49338,1.22731c0.84833,0.31021 1.8978,0.10536 2.62225,0.54501c0.74692,0.45328 1.26831,1.19563 2.05234,1.42567c0.93024,0.27293 1.93427,-0.02109 2.80042,0.38808c0.61179,0.28902 1.39093,0.96977 2.14499,1.04001c0.99677,0.09283 1.72653,0.39217 2.41101,0.84627c0.90909,0.6031 1.6543,0.84602 2.59131,1.15141c0.72504,0.23631 1.71225,0.3779 2.40591,0.5726c0.97595,0.27394 1.63727,0.82364 2.59326,1.25079c0.69107,0.30878 1.63342,0.39134 2.5361,0.55621c0.85693,0.15651 1.29297,0.97957 1.84015,1.6154c0.57919,0.67303 1.2583,1.24852 1.87451,1.88123c0.6618,0.67953 0.87775,1.60275 0.87775,2.34015c0,1.03592 -0.42618,1.98639 0.05292,2.73068c0.46506,0.72247 1.48535,0.96286 2.25082,1.30374c0.7785,0.34668 1.50333,0.57996 2.62799,0.93582c0.71509,0.22626 1.65674,0.41962 2.56827,0.43735c0.83884,0.0163 1.64697,0.17609 2.14456,0.87775c0.50217,0.70816 1.38712,0.95123 2.35022,1.00235c0.76929,0.04083 1.53473,0.70001 2.25058,0.99765c0.79581,0.33087 1.586,0.69363 2.39261,1.25c0.74371,0.513 1.46841,1.07462 1.91968,1.71466c0.50092,0.71048 1.08502,1.43854 1.85278,1.84433c0.9122,0.48212 1.73502,0.49286 2.39957,1.06348c0.66797,0.57355 1.51825,0.69043 2.2056,0.98608c0.7789,0.33502 1.55234,0.2637 2.60757,0.2637c0.81183,0 1.69009,0.02182 2.50354,0.38437c0.88431,0.39413 1.73868,0.80789 2.47098,0.85901c0.91382,0.06378 1.79022,0.00662 2.77731,0.00662c0.875,0 1.71399,0 2.621,0c0.87717,0 1.80331,-0.3064 2.68811,0.00009c0.67706,0.23453 0.92053,1.22345 1.80133,1.24991c0.88641,0.02664 1.73453,0.00146 2.64127,0c0.86829,-0.0014 1.75839,-0.06528 2.49329,-0.37897c0.89578,-0.38239 1.74731,-0.79129 2.58957,-0.86819c0.91068,-0.08316 1.68018,-0.47754 2.47592,-0.845c0.76904,-0.35513 1.61426,-0.40744 2.4639,-0.40784c0.90036,-0.00043 1.7984,0.01727 2.72379,-0.17691c0.75931,-0.15933 1.68997,-0.49573 2.42392,-0.75809c1.00726,-0.36008 1.72778,-0.6937 2.46515,-1.13644c0.68167,-0.4093 1.65887,-1.034 2.23297,-1.36356c0.89142,-0.51172 1.57782,-0.95273 2.50311,-1.565c0.56226,-0.37204 1.28717,-0.88895 2.24686,-1.3194c0.69217,-0.31046 1.69156,-0.3797 2.38379,-0.83188c0.78436,-0.51236 1.25174,-1.18665 1.99042,-1.74875c0.77786,-0.59192 1.40958,-1.19092 1.49783,-1.94458c0.11945,-1.02011 0.01318,-1.9032 0.00278,-2.75189c-0.01117,-0.91034 -0.08279,-1.88852 -0.72501,-2.54849c-0.55151,-0.56677 -1.53815,-0.6055 -2.39499,-0.83002c-0.7742,-0.20285 -1.71725,-0.59711 -2.39667,-1.24998c-0.5683,-0.54611 -0.92862,-1.53305 -1.76434,-1.739c-0.93674,-0.23085 -1.7933,-0.01387 -2.68335,-0.48247c-0.69345,-0.3651 -1.26361,-1.08672 -1.78601,-1.67854c-0.7019,-0.7952 -1.39218,-1.23621 -2.19586,-1.69525c-0.66559,-0.38017 -1.54419,-0.80676 -2.37735,-1.3029c-0.63364,-0.37732 -1.6315,-0.69 -2.17664,-0.82497c-0.92969,-0.23016 -1.95221,-0.49466 -2.6546,-0.71233c-0.70947,-0.21986 -1.74661,-0.57237 -2.69312,-0.96445c-0.85059,-0.35234 -1.57205,-0.72006 -2.37509,-1.11046c-0.85727,-0.41676 -1.72903,-0.51909 -2.63031,-0.73964c-0.70212,-0.17181 -1.73978,-0.50352 -2.423,-0.52217c-0.93851,-0.0256 -2.05276,-0.10216 -2.66232,-0.2215c-0.90271,-0.17674 -1.7952,-0.31418 -2.60822,-0.40155c-1.14084,-0.1226 -1.88971,-0.32281 -2.8248,-0.62813c-0.75186,-0.24548 -1.50549,-0.48688 -2.44159,-0.81403c-0.78516,-0.2744 -1.63245,-0.63969 -2.32941,-0.95323c-0.72931,-0.32809 -1.72305,-0.73318 -2.4707,-0.95982c-0.94873,-0.2876 -1.82187,-0.54994 -2.62766,-0.75c-0.93719,-0.23268 -1.73752,-0.25854 -2.41537,-0.3804c-1.1329,-0.20366 -1.78162,-0.42633 -2.46133,-0.67984c-1.41455,-0.52757 -2.078,-0.88533 -2.73184,-1.22804c-0.6441,-0.3376 -1.26151,-0.70328 -2.52274,-1.30339c-0.61346,-0.29189 -1.23141,-0.53685 -2.39435,-1.0529c-0.82373,-0.36554 -1.34183,-0.64165 -2.15628,-0.9471c-1.11148,-0.41687 -1.71378,-0.5379 -2.60489,-0.74054c-1.14395,-0.26013 -1.94507,-0.4313 -2.68332,-0.62689c-0.90231,-0.23906 -1.73477,-0.48663 -2.76385,-0.91881c-0.68878,-0.28926 -1.40271,-0.65123 -2.39499,-1.14667c-0.74799,-0.37346 -1.48596,-0.73506 -2.39667,-1.25c-0.63501,-0.35905 -1.35364,-0.87515 -2.18124,-1.145c-0.88599,-0.28888 -1.67114,-0.43405 -2.54276,-0.86833c-0.91919,-0.45799 -1.53387,-0.86707 -2.14731,-1.23666c-1.05292,-0.63441 -1.76251,-0.98253 -2.44943,-1.41045c-0.91559,-0.57037 -1.50854,-1.10744 -2.09525,-1.61589c-0.74854,-0.64868 -1.30994,-1.07883 -2.06418,-1.59283c-0.74582,-0.50829 -1.51511,-1.01526 -2.35651,-1.50082c-0.66992,-0.3866 -1.39349,-0.69629 -2.36978,-1.37489c-0.65125,-0.45268 -1.38702,-1.13815 -2.02689,-1.49614c-0.85648,-0.47917 -1.74228,-0.89688 -2.38791,-1.19398c-0.86462,-0.39789 -1.57999,-0.59525 -2.48373,-1.03999c-0.776,-0.38188 -1.34085,-0.78871 -2.43039,-1.395c-0.69217,-0.38516 -1.40088,-0.73987 -2.26819,-1.24918c-0.60602,-0.35587 -1.54037,-0.9236 -2.302,-1.23039c-0.74106,-0.29851 -1.69168,-0.5685 -2.40128,-0.83496c-0.94501,-0.35487 -1.58582,-0.75499 -2.45859,-1.42734c-0.70319,-0.54172 -1.58179,-0.58003 -2.37057,-1.17087c-0.50922,-0.38141 -1.31372,-1.21349 -1.8613,-1.80833c-0.60202,-0.65399 -0.95331,-1.45244 -1.37341,-2.21846c-0.40314,-0.73506 -1.07437,-1.24745 -1.9126,-1.6888c-0.70612,-0.37178 -1.02032,-1.20485 -1.42694,-1.9985c-0.42725,-0.83394 -1.24158,-1.25598 -2.02014,-1.57341c-0.89539,-0.36507 -1.4957,-1.08234 -2.30063,-1.37599c-0.85629,-0.31241 -1.74283,-0.18964 -2.42523,-0.49768c-0.78186,-0.35294 -1.68835,-0.33092 -2.48273,-0.61934c-0.94449,-0.34293 -1.56467,-0.74889 -2.46933,-1.10883c-0.85245,-0.33917 -1.66125,-0.37621 -2.375,-0.8662c-0.79532,-0.54599 -1.47778,-1.15842 -2.375,-1.29628c-0.9888,-0.15195 -1.64993,-0.31126 -2.48083,-0.61168c-0.82895,-0.29971 -1.89249,-0.09808 -2.58792,-0.43274c-0.802,-0.38593 -1.49048,-0.87102 -2.36627,-0.87102c-0.93832,0 -1.75235,0 -2.5976,0c-0.9924,0 -1.79053,0 -2.73029,0c-0.86209,0 -1.86209,0.00035 -2.6344,0c-0.90378,-0.00041 -1.79999,0.1216 -2.68164,-0.2215c-0.83258,-0.32401 -1.32306,-1.02515 -2.17084,-1.0285c-0.9223,-0.00365 -1.87402,0.02812 -2.74747,0c-0.82211,-0.02646 -1.30316,-1.04504 -0.86044,-1.79489c0.43344,-0.73416 0.91882,-1.16029 1.36703,-2.07974c0.41129,-0.84367 1.30728,-1.08405 1.98788,-1.57182c0.6496,-0.46556 1.07532,-1.34384 1.71442,-2.15688c0.54877,-0.69812 1.10779,-1.20972 1.85257,-1.95589c0.5625,-0.56355 1.12625,-1.12627 1.87656,-1.87657c0.56198,-0.56197 1.11945,-1.12808 1.87354,-1.87332c0.56647,-0.5598 1.1348,-1.12866 2.0159,-1.73944c0.67078,-0.46498 1.41779,-0.82198 2.28534,-1.46367c0.64206,-0.4749 1.20563,-1.0502 2.08591,-1.65756c0.67093,-0.46292 1.41183,-0.82817 2.07022,-1.30522c0.86203,-0.6246 1.40381,-1.19225 2.1694,-1.82397c0.57272,-0.4726 1.24817,-0.98302 1.99725,-1.72102c0.61203,-0.60297 0.9155,-0.96436 1.60083,-1.69104c0.71552,-0.75868 1.06174,-1.15868 2.21158,-2.18228c0.37173,-0.33092 1.16788,-0.94699 1.59052,-1.25293c0.90262,-0.6534 1.40775,-0.98801 2.51376,-1.74542c0.616,-0.42184 1.27542,-0.87495 1.97903,-1.35747c0.74707,-0.51233 1.53772,-1.05371 2.37299,-1.62189c0.87793,-0.5972 1.79807,-1.22353 3.77628,-2.54398c1.05063,-0.70129 2.13937,-1.4193 3.25461,-2.15492c1.13416,-0.74811 2.28043,-1.50227 3.42868,-2.26132c1.14413,-0.75633 2.27859,-1.50197 4.46338,-2.9771c1.04721,-0.70706 2.06299,-1.4048 3.0553,-2.09947c0.98349,-0.68851 1.96011,-1.38605 2.93701,-2.09991c0.99319,-0.72577 2.00751,-1.47453 4.11102,-3.09227c1.11768,-0.85956 2.26367,-1.76295 3.44064,-2.68684c1.19653,-0.93927 2.40204,-1.88776 3.61499,-2.82751c1.2038,-0.93266 2.383,-1.85941 4.71271,-3.55064c1.09937,-0.79807 2.17313,-1.53625 3.21786,-2.22339c1.00427,-0.66051 1.98645,-1.27353 2.94821,-1.84053c0.92975,-0.54813 1.83704,-1.07073 3.62726,-1.97608c0.86279,-0.43633 1.71918,-0.83202 2.55713,-1.20598c0.81339,-0.36298 1.60757,-0.69861 2.37677,-1.0151c0.73956,-0.3043 1.45193,-0.58538 2.77277,-1.11391c0.60681,-0.24282 1.17667,-0.47435 1.71222,-0.69056c0.50156,-0.20248 0.97006,-0.39134 1.40884,-0.56068c0.40717,-0.15715 0.78223,-0.30874 1.46393,-0.5171c0.29828,-0.09117 0.57639,-0.15685 0.83307,-0.20477c0.23553,-0.04397 0.45477,-0.07125 0.65817,-0.08696c0.18915,-0.0146 0.36685,-0.01869 0.69376,-0.01994c0.15332,-0.00059 0.30295,0 0.45135,0c0.14972,0 0.30322,0 0.46304,0c0.16861,0 0.34854,0 0.75226,0c0.22748,0 0.46808,0 0.71622,0c0.25003,0 0.49631,0 0.73315,0c0.22183,0 0.42297,0 0.74063,0c0.10684,0 -0.06412,0 -0.88229,0c-0.88663,0 -1.77386,0 -2.64926,0c-0.91486,0 -1.79468,0 -2.72989,0c-0.86188,0 -1.61188,0 -2.58957,0c-0.91602,0 -1.79022,0 -2.77731,0c-0.875,0 -1.71399,0 -2.621,0c-0.87717,0 -1.75174,0 -2.68832,0c-0.86774,0 -1.80124,0 -2.63712,0c-0.94522,0 -1.78189,0 -2.62561,0c-0.98715,0 -1.80731,0 -2.69562,0c-0.85233,0 -1.72992,-0.05611 -2.61545,0.01292c-0.88242,0.06879 -1.72589,0.36089 -2.68893,0.7331c-0.71207,0.2752 -1.65182,0.4296 -2.32928,0.53659c-1.09048,0.17221 -1.95218,0.58004 -2.60489,0.83965c-0.91388,0.3635 -1.60419,0.86477 -2.52942,0.97543c-0.97763,0.11693 -1.72253,-0.04927 -2.71152,0.2445c-0.79568,0.23635 -1.715,0.32764 -2.45096,0.43385c-0.9967,0.14384 -1.6257,0.7778 -2.42599,1.29338c-0.66455,0.42813 -1.56076,0.7959 -2.45108,1.10414c-0.71613,0.24793 -1.60349,0.41147 -2.40311,0.90479c-0.71738,0.44259 -1.38672,1.13238 -2.02167,1.47929c-0.86215,0.47105 -1.62259,0.92027 -2.25,1.43758c-0.74716,0.61604 -1.51941,1.0735 -2.25,1.66238c-0.64279,0.51811 -1.39316,1.03026 -2.19608,1.58923c-0.67633,0.47086 -1.34274,0.87401 -2.2287,1.42776c-0.5322,0.33263 -1.45453,1.0437 -2.01349,1.54536c-0.58768,0.52742 -1.40421,1.28763 -2.09,1.83768c-0.46198,0.37054 -1.15878,0.89383 -2.03983,1.50946c-0.79269,0.55389 -1.56055,1.04512 -2.29794,1.5529c-0.53641,0.36938 -1.30237,1.03159 -2.07266,1.625c-0.68665,0.52898 -1.33258,0.89363 -2.2551,1.3221c-0.86276,0.40073 -1.69016,0.62746 -2.47968,1.13312c-0.73779,0.47253 -1.51074,1.0397 -2.09488,1.54579c-0.76056,0.65895 -1.3063,1.10016 -2.27615,1.29877c-0.83539,0.17107 -1.52887,0.67487 -2.38028,0.70522c-0.80539,0.02872 -1.46948,0.62305 -2.15045,1.23546c-0.6727,0.60495 -1.44052,1.05276 -2.30014,1.45001c-0.75211,0.34756 -1.43289,0.87859 -2.18466,1.3614c-0.71335,0.45816 -1.7113,0.24979 -2.5,0.65105c-0.77759,0.3956 -1.75153,0.64706 -2.45831,0.97502c-0.80875,0.37526 -1.29031,1.18858 -2.0412,1.6021c-0.79257,0.43648 -1.74661,0.38634 -2.43634,0.72264c-0.8577,0.41821 -1.2695,1.2764 -1.97839,1.77736c-0.66687,0.47127 -1.80365,0.12721 -2.5849,0.44362c-0.7616,0.30844 -1.57388,0.56303 -2.31583,0.90533c-0.89819,0.4144 -1.75415,0.83347 -2.42209,1.0481c-0.95871,0.30806 -1.87997,0.32779 -2.81348,0.32791c-0.83612,0.00011 -1.70563,0.06981 -2.48163,0.44083c-0.70218,0.33572 -1.61969,0.77342 -2.53281,0.80917c-0.83835,0.03282 -1.7532,0.03545 -2.65393,0.26372l-0.88608,0.25296l-0.8941,0.10333" stroke-width="2" stroke="#000" fill="none" id="svg_4"/>
  <path t="53263,53727,54329,54364,54375,54404,54413,54434,54455,54484,54506,54524,54577,54587,54596,54607,54718,54729,54740,54748,54762,54770,55046,55046,55056,55065,55065,55074,55085,55085,55197,55204,55492,55502,55513,55522,55660,55660,55664,55678,55684,56000,56011,56387,56411,56412,56428,56439,56652,56773,56894,56902,56958,57314,57328,57334,57344,57498,57510" d="m139.48,126.16003c-2.00316,0 -2.81508,-0.01186 -3.67975,0c-0.82719,0.01134 -1.87495,0.13727 -2.6425,0.57706c-0.68251,0.39106 -1.43001,0.67294 -2.3046,0.67294c-0.93863,0 -1.92245,0.30669 -2.68727,-0.13734c-0.74136,-0.4304 -1.36667,-0.81977 -2.03459,-1.38309c-0.64786,-0.5464 -0.18269,-1.63385 -0.41441,-2.52666c-0.22805,-0.87867 -1.00826,-1.49436 -1.53896,-2.18979c-0.51862,-0.67959 -0.98394,-1.36638 -0.91226,-2.37652c0.06303,-0.88818 0.99526,-1.27766 1.70763,-1.90221c0.68127,-0.59729 1.24024,-1.26514 2.19219,-1.35441c0.80872,-0.07584 1.77983,0.21857 2.62453,-0.01312c0.83418,-0.22882 1.35765,-1.10358 2.29333,-1.23688c0.76755,-0.10934 1.69753,-0.18664 2.46692,-0.75315c0.741,-0.5456 1.20288,-1.45377 1.98927,-1.7114c0.8322,-0.27264 1.86371,0.19245 2.13354,0.96622c0.2926,0.83904 0.18031,1.74751 0.17693,2.7338c-0.00282,0.8213 -0.83234,1.0815 -1.24834,1.76223c-0.46584,0.76226 -0.61049,1.62435 -0.62166,2.47229c-0.01164,0.88435 0,1.83766 -0.00084,2.77604l-0.50314,0.55605" stroke-width="2" stroke="#000" fill="none" id="svg_5"/>
  <path t="60861,61392,61392,61648,61852,61863,62320,62565,63033,63045,63129,63137" d="m168.23,129.29002c0.62166,1.35333 0.58087,2.23747 1.28261,2.89572c0.63387,0.59457 1.89949,0.58978 2.44472,-0.04614c0.597,-0.69632 0.94394,-1.15565 1.50037,-1.59297l-0.91849,-0.00661l-0.87421,-0.01312" stroke-width="2" stroke="#000" fill="none" id="svg_6"/>
  <path t="64976,65337,65347,65405,65766,65778,65798,65808,66480,66500" d="m176.98,134.29002c1.49783,0 2.49876,-0.3015 3.27072,0.2215c0.70885,0.48024 1.24261,0.9991 2.10144,0.80632l0.8633,-0.33127l0.88017,-0.06982l0.16219,0.59006" stroke-width="2" stroke="#000" fill="none" id="svg_7"/>
  <path t="67773,68147,68159,68159,68454,68483,68496,68505,68505,68516,68525,68811,68822,68831,68840,68943,68955,68992" d="m186.34999,139.29002c1.57793,-0.31499 2.41454,-0.43657 3.22107,-0.64558c0.93152,-0.24141 1.73328,-0.60559 2.55833,-0.20311c0.76077,0.37111 1.39728,0.82947 2.19099,1.54095c0.6069,0.54402 0.99585,0.55774 0.04567,0.55774c-0.90402,0 -1.76128,0.01292 -2.61563,0.27043l-0.64818,0.59521l-0.75,0.37764" stroke-width="2" stroke="#000" fill="none" id="svg_8"/>
  <path t="70902,71316,71328,71338,71338,71703,71715,71725,71737,71745,71746,71764,71764,71773,72113,72121,72137,72143,72154,72315,72448,72580,72593,72603,72613" d="m196.98,142.41003c2.0071,0 3.03255,0 3.95667,0c0.72833,0 1.94572,-0.21317 2.29048,0.47928c0.35156,0.70612 0.20155,1.78648 0.62453,2.65071c0.30997,0.63333 0.8936,1.32433 1.43465,2.08899c0.51923,0.73383 0.85373,1.6227 0.04326,1.66101c-0.86653,0.04095 -1.85173,0 -2.71513,0c-0.93739,0 -1.78113,0 -2.49176,-0.2813l-0.02267,-0.87102l0,-0.97684l0,-0.89584" stroke-width="2" stroke="#000" fill="none" id="svg_9"/>
  <path t="74797,75479,75490,75662,75671,75671,76008,76292,76334,76354,76364,76638,76651,76668,76680,76688" d="m215.72998,149.91003c0,1.43953 0.14488,2.5173 -0.62831,3.02499c-0.71732,0.47099 -1.61105,0.63014 -2.48376,0.71208c-0.92281,0.08664 -1.2679,-0.73392 -1.2679,-1.56c0,-0.9223 0.02005,-1.77005 0.80623,-2.1544l0.86375,-0.02267l0.89423,0l0.87578,0" stroke-width="2" stroke="#000" fill="none" id="svg_10"/>
  <path t="78916,79456,79467,79607,79617,79629,79659,79669,79680,79708,79960,79972,80000,80092,80142,80177,80178,80235,80265,80285,80300,80448,80478,80642" d="m223.22998,158.04002c1.97733,0 2.97209,-0.26314 3.81068,0.00011c0.7301,0.22919 1.30971,1.02426 2.18155,1.43254c0.76382,0.35768 1.77354,0.43431 2.37341,1.05128c0.55682,0.57271 0.3933,1.73526 -0.27823,2.29111c-0.62309,0.51575 -1.65193,0.22496 -2.57072,0.22496c-0.84373,0 -1.79283,0.19904 -2.64442,-0.00671c-0.81622,-0.1972 -1.43678,-1.02179 -2.19849,-1.42303l-0.05376,-0.88478l-0.00011,-0.87614" stroke-width="2" stroke="#000" fill="none" id="svg_11"/>
  <path t="82917,83283,83497,83516,83742,83754,83883,83904,83924,84097,84137,84231,84260,84300,84319,84350,84365,84381" d="m211.35001,262.41003c0,1.43951 0.04628,2.3624 0.87773,2.5c0.89125,0.14749 1.43962,0.62857 2.37541,0.63c0.87459,0.00131 1.95546,0.46484 2.67372,-0.01312c0.67227,-0.44736 0.32314,-1.565 0.32314,-2.49167c0,-0.85065 0,-1.74838 0.00284,-2.68472l0.32507,-0.73737l0.79892,-0.3223" stroke-width="2" stroke="#000" fill="none" id="svg_12"/>
  <path t="85995,86359,86370,86522,86538,86562,86582,86776,86819,86819,86838,86888,87061,87112,87162" d="m224.47998,253.04004c0.87227,0.89458 1.46498,1.56606 2.24776,1.86339c0.81609,0.30998 1.52411,0.59608 2.35184,0.90031c0.85104,0.31281 1.79912,0.57263 2.54457,0.30338c0.82622,-0.29845 1.59119,-0.70662 2.19041,-1.38255l0.03545,-0.81227l0,-0.93646" stroke-width="2" stroke="#000" fill="none" id="svg_13"/>
  <path t="88668,88900,88913,88921,88940,89175,89187,89187,89226,89245,89327,89367,89559" d="m239.47998,243.04004c0.88063,0.65321 1.84985,0.96869 2.57109,1.37231c0.83859,0.46931 1.6956,0.49768 2.62914,0.49768c0.74684,0 1.59447,-0.27676 1.6698,-1.23546l0,-0.82407l0.03601,-0.875l0.48897,-0.81381" stroke-width="2" stroke="#000" fill="none" id="svg_14"/>
  <path t="96754,97127,97147,97147,97160,97178,97193,97200,97201,97210,97220,97229,97248,97249,97258,97270,97288,97300,97319,97327,97328,97342,97351,97360,97360,97370,97379,97470,97482,97491,97501,97501,97510,97510,97526,97526,97543,97559,97592,97604,97612,97612,97624,97625,97633,97633,97642,97653,97654,97662,97663,97675,97675,97685,97685,97694,97708,97715,97725,97735,97736,97745,97745,97758,97765,97774,97786,97786,97798,97798,97809,97809,97816,97816,97817,97827,97827,97836,97836,97845,97846,97846,97858,97866,97866,97885,97885,98047,98058,98058,98068,98077,98091,98092,98098,98098,98108,98108,98108,98118,98127,98141,98178,98199,98219,98228,98321,98321,98332,98351,98360,98376,98475,98486,98496,98496,98509,98510,98510,98510,98526,98526,98526,98527,98527,98527,98535,98536,98536,98536,98537,98537,98537,98537,98538,98548,98549,98549,98549,98550,98550,98551,98551,98551,98555,98556,98556,98557,98557,98557,98558,98558,98558,98569,98569,98569,98570,98570,98571,98571,98571,98572,98576,98576,98577,98577,98578,98578,98578,98579,98579,98589,98590,98590,98590,98591,98591,98592,98592,98593,98596,98596,98597,98597,98598,98598,98598,98599,98599,98609,98610,98610,98611,98611,98612,98612,98613,98613,98617,98617,98618,98618,98619,98619,98620,98620,98620,98624,98625,98625,98626,98626,98627,98627,98628,98628,98637,98638,98638,98639,98639,98640,98640,98641,98642,98645,98645,98646,98647,98647,98648,98648,98649,98649,98659,98660,98660,98661,98661,98662,98663,98663,98664,98746,98746,98747,98748,98748,98749,98750,98750,98751,98777,98778,98779,98779,98780,98780,98781,98782,98782,98786,98787,98788,98788,98789,98790,98790,98791,98792,98796,98797,98798,98798,98799,98800,98817,98817,98818,98819,98829,98830,98830,98831,98831,98832,98833,98834,98834,98839,98840,98840,98841,98842,98842,98843,98843,98844,98849,98850,98850,98851,98852,98852,98853,98854,98854,98859,98860,98860,98861,98862,98862,98863,98863,98864,98870,98871,98872,98873,98873,98874,98875,98876,98876,98883,98884,98884,98885,98886,98886,98887,98888,98888,98894,98895,98895,98896,98897,98897,98898,98899,98900,98905,98906,98907,98908,98908,98909,98910,98910,98911,98917,98918,98918,98919,98920,98921,98921,98922,98923,98928,98929,98930,98930,98931,98932,98933,98933,98934,98939,98940,98941,98942,98943,98943,98944,98945,98946,98951,98952,98953,98954,98954,98955,98956,98957,98958,98963,98964,98965,98966,98966,98967,98968,98969,98969,98975,98976,98977,98978,98978,98979,98980,98981,98982,98988,98989,98990,98991,98991,98992,98993,98994,98995,99001,99002,99003,99004,99005,99006,99007,99008,99008,99014,99015,99016,99017,99018,99019,99020,99021,99022,99039,99040,99041,99042,99043,99044,99045,99046,99047,99101,99102,99103,99104,99105,99106,99107,99108,99109,99115,99116,99117,99118,99119,99120,99121,99122,99123,99129,99130,99131,99132,99133,99134,99135,99137,99138,99143,99144,99145,99147,99148,99149,99150,99151,99152,99158,99159,99160,99161,99162,99163,99164,99165,99166,99172,99173,99174,99175,99176,99177,99178,99179,99181,99187,99188,99189,99190,99191,99192,99193,99194,99195,99203,99204,99205,99206,99208,99209,99210,99211,99212,99218,99220,99221,99222,99223,99224,99225,99226,99228,99233,99234,99236,99237,99238,99239,99241,99242,99243,99249,99250,99251,99252,99254,99255,99256,99257,99258,99264,99265,99266,99268,99269,99270,99271,99272,99273,99279,99280,99281,99282,99284,99285,99286,99287,99288,99382,99383,99385,99386,99387,99388,99390,99391,99392,99397,99399,99400,99401,99403,99404,99405,99406,99408,99413,99415,99416,99417,99419,99420,99421,99422,99424,99429,99431,99432,99433,99435,99436,99437,99439,99440,99445,99447,99448,99449,99451,99452,99453,99455,99456,99462,99463,99465,99466,99467,99468,99470,99471,99472,99478,99479,99481,99482,99483,99485,99486,99488,99614,99626,99636,99649,99651,99656,99658,99672,99674,99675,99681,99683,99688,99690,99696,99777,99796,99803,99811,99813,99819,99821,99827,99829,99843,99845,99846,99853,99854,99861,99862,99869,99870,99885,99891,99959,99978,99994,100019,100020,100040" d="m366.34998,117.41003c1.85062,0.26795 1.14667,0.62999 0.37222,0.62999c-0.87222,0 -1.87137,0 -2.76721,0c-0.935,0 -1.66501,0 -2.62149,0c-0.85577,0 -1.73035,0 -2.68384,0c-0.80051,0 -1.66156,0 -2.66531,0c-0.88269,0 -1.80731,-0.00005 -2.65103,0c-0.93365,0.00005 -1.77325,-0.0495 -2.59518,0.32313c-0.84659,0.3838 -1.60681,0.80041 -2.35422,0.94247c-0.99472,0.18909 -1.2258,1.17917 -1.88318,1.63292c-0.77191,0.5328 -1.78033,0.43663 -2.65073,0.84982c-0.64139,0.30447 -1.5141,0.68093 -2.35632,0.99941c-0.81519,0.30826 -1.62512,0.70937 -2.38593,1.05899c-0.85419,0.39253 -1.83228,0.41037 -2.54941,1.06493c-0.62256,0.56823 -1.09818,1.08617 -1.83612,1.65656c-0.68387,0.5286 -1.44482,1.06099 -2.31616,1.29118c-0.89453,0.23634 -1.78012,0.28782 -2.61609,0.49059c-0.98743,0.2395 -1.733,0.27843 -2.61606,0.66499c-0.70648,0.30925 -1.67267,0.67764 -2.3902,0.9471c-0.86508,0.32487 -1.31473,1.25089 -2.11066,1.64815c-0.7821,0.39035 -1.75977,0.32425 -2.59943,0.61711c-0.80206,0.27975 -1.59454,0.73737 -2.33704,1.32162c-0.74603,0.58704 -1.4996,0.93437 -2.21661,1.46602c-0.57147,0.42372 -1.5748,1.02533 -2.14731,1.38129c-0.91422,0.56841 -1.39264,1.05324 -2.12601,1.64371c-0.64517,0.51947 -1.35355,0.98442 -2.10907,1.625c-0.57596,0.48833 -1.33087,1.13426 -2.04196,1.625c-0.92307,0.63704 -1.47812,1.00681 -2.18872,1.44624c-0.89423,0.55301 -1.7569,0.95065 -2.27591,1.56189c-0.65964,0.77687 -0.41669,1.86412 -1.27936,2.38687c-0.70975,0.43008 -1.66849,-0.14952 -2.59937,0.14999c-0.86139,0.27716 -1.33902,1.211 -1.93121,1.59297c-0.87875,0.56682 -1.59988,0.98901 -2.34274,1.48204c-0.7438,0.49365 -1.46582,0.91945 -2.2117,1.4035c-0.78403,0.50879 -1.31635,1.11711 -2.16187,1.4115c-0.85275,0.29691 -1.64246,0.53381 -2.23145,1.06183c-0.76282,0.68385 -1.71729,0.79128 -2.13,1.50092c-0.42642,0.73318 -1.43356,0.7708 -1.81677,1.56303c-0.37567,0.77669 0.72168,1.21968 1.60403,1.00862c0.74005,-0.17702 1.55814,-0.54109 2.2489,-0.86826c0.82611,-0.39127 1.47076,-0.73561 2.6416,-1.37067c0.45041,-0.24429 1.42136,-0.79245 1.93411,-1.0986c0.53253,-0.31798 1.09647,-0.62851 2.74646,-1.79523c0.57098,-0.40373 1.1293,-0.84401 1.69348,-1.29413c0.57294,-0.45709 1.14624,-0.9313 1.7276,-1.41258c0.58951,-0.48801 1.18085,-0.99017 2.41391,-1.97995c0.62796,-0.50406 1.27249,-1.00278 1.92807,-1.50284c0.66315,-0.50584 1.33859,-1.01115 2.02319,-1.51984c0.69205,-0.51421 1.3942,-1.03014 2.81711,-2.08232c0.72211,-0.53397 1.44958,-1.07506 2.18661,-1.61719c0.74356,-0.54692 1.49554,-1.09557 2.2601,-1.63985c0.77057,-0.54857 1.54633,-1.10329 3.15662,-2.16296c0.81454,-0.53601 1.65152,-1.05809 2.50781,-1.57739c0.87286,-0.52934 1.77417,-1.05684 2.70486,-1.58821c0.95801,-0.54697 1.95108,-1.10422 4.05899,-2.25107c1.11435,-0.60628 2.27664,-1.22716 3.48465,-1.87032c1.25433,-0.66783 2.55847,-1.3575 3.91235,-2.07265c1.40479,-0.74205 2.86334,-1.50912 5.93964,-3.13704c1.62073,-0.85766 3.28741,-1.74167 4.98425,-2.65726c1.72342,-0.92994 3.45789,-1.87909 5.18634,-2.85445c1.72522,-0.97354 3.44214,-1.93447 6.70441,-3.96661c1.57684,-0.98225 3.08487,-1.98833 4.54126,-2.99158c1.42203,-0.97956 2.79184,-1.9641 4.11935,-2.94109c1.29791,-0.95519 2.55515,-1.90588 4.9827,-3.75565c1.17661,-0.89655 2.33051,-1.77986 3.47287,-2.64371c1.12973,-0.85429 2.25446,-1.69742 3.38321,-2.52564c1.12842,-0.82796 2.26086,-1.65917 4.60394,-3.27064c1.19263,-0.82023 2.41006,-1.6228 3.62964,-2.42306c1.2117,-0.7951 2.41214,-1.57195 3.58426,-2.33819c1.13904,-0.74461 2.24515,-1.44999 4.24277,-2.84042c0.90729,-0.63151 1.73654,-1.24514 2.49786,-1.83323c0.71048,-0.54882 1.36081,-1.07843 1.95822,-1.58617c0.55954,-0.47557 1.07675,-0.93173 2.00391,-1.78893c0.42703,-0.3948 0.82593,-0.77359 1.19681,-1.13531c0.34772,-0.33912 0.66733,-0.66032 0.95444,-0.96674c0.26431,-0.28208 0.51138,-0.53719 0.8671,-1.02629c0.14868,-0.20444 0.2601,-0.39935 0.34445,-0.57803c0.07492,-0.15865 0.12631,-0.30723 0.16495,-0.44257c0.03497,-0.1226 0.05069,-0.23932 0.1156,-0.43774c0.03009,-0.09199 0.07196,-0.17634 0.11716,-0.25503c0.04395,-0.0765 0.09268,-0.14716 0.13986,-0.21561c0.04565,-0.06621 0.09564,-0.12673 0.16296,-0.25603c0.03165,-0.06078 0.05289,-0.12304 0.069,-0.18224c0.01486,-0.05463 0.02374,-0.10494 0.0293,-0.14885c0.00458,-0.03618 -0.01682,-0.08768 0.00671,-0.08725c0.00607,0.00011 0,0.02351 0,0.05099c0,0.03626 0,0.08006 0,0.13009c0,0.05502 0.00009,0.11375 0,0.23726c-0.00006,0.06245 0.00009,0.12486 -0.00284,0.18714c-0.00293,0.06232 -0.00845,0.12483 -0.01984,0.18678c-0.01151,0.06264 -0.02396,0.12776 -0.08234,0.24941c-0.03104,0.06467 -0.07486,0.12802 -0.12558,0.19349c-0.05563,0.07178 -0.12402,0.14526 -0.73801,0.77365c-0.51462,0.5267 -1.00342,1.04036 -1.6395,1.74594c-0.83569,0.92703 -1.32471,1.49686 -1.87399,2.11735c-0.59381,0.67076 -1.22876,1.38039 -1.91125,2.10812c-0.70639,0.75319 -1.43896,1.51654 -2.22083,2.24896c-1.56577,1.46677 -2.40405,2.1181 -3.24835,2.74416c-0.84442,0.62616 -1.72375,1.21683 -2.62976,1.79063c-0.92328,0.58475 -1.88626,1.15634 -2.88315,1.73438c-2.0994,1.21731 -3.22122,1.84481 -4.38016,2.51083c-1.20425,0.69207 -2.45255,1.41441 -3.7417,2.17416c-1.33667,0.78777 -2.71771,1.61101 -4.13547,2.48376c-2.98508,1.83759 -4.53134,2.83822 -6.11932,3.8735c-1.62823,1.06152 -3.28134,2.16148 -4.95584,3.29357c-1.69891,1.14861 -3.40961,2.32143 -5.12415,3.51858c-3.45074,2.40942 -5.1608,3.63915 -6.86734,4.87099c-1.70535,1.23097 -3.40189,2.4717 -5.08954,3.7221c-1.68661,1.24961 -3.36572,2.50721 -5.03329,3.7779c-3.33234,2.53925 -4.97925,3.83082 -6.6232,5.12153c-1.6405,1.28802 -3.26999,2.58051 -4.89059,3.87183c-1.6134,1.28558 -3.21469,2.56888 -4.80649,3.84393c-3.14905,2.52243 -4.70401,3.76743 -6.24832,4.995c-1.52802,1.21461 -3.04184,2.41098 -4.54416,3.58295c-1.48203,1.15613 -2.94705,2.28972 -4.40375,3.38629c-2.83905,2.13715 -4.24377,3.14279 -5.62183,4.12599c-1.34933,0.96269 -2.67737,1.89273 -3.97421,2.80251c-1.26556,0.88785 -2.50204,1.74921 -3.69293,2.60541c-2.28122,1.64011 -3.34827,2.4534 -4.3735,3.24918c-0.9902,0.76857 -1.93307,1.52417 -2.83438,2.25749c-0.86459,0.70346 -1.68472,1.38486 -2.46854,2.0325c-1.4498,1.19794 -2.11868,1.74257 -2.75418,2.25082c-0.6004,0.48019 -1.1727,0.92989 -1.7175,1.3546c-0.51859,0.4043 -1.01636,0.78766 -1.49249,1.15749c-0.90436,0.70244 -1.33578,1.04466 -1.76248,1.38318c-0.42807,0.33958 -0.86307,0.68567 -1.31522,1.03767c-0.47183,0.36732 -0.97189,0.75168 -1.51187,1.15018c-1.20276,0.8876 -1.88937,1.36462 -2.61819,1.869c-0.75922,0.52544 -1.54285,1.05695 -2.33893,1.58791c-0.79318,0.52904 -1.57541,1.04413 -2.3389,1.5321c-1.40469,0.89783 -2.03635,1.27902 -2.61652,1.62181c-0.53152,0.31404 -1.02582,0.59412 -1.48749,0.84566c-0.43082,0.23474 -0.84097,0.44861 -1.23459,0.64857c-0.75595,0.38406 -1.13202,0.56903 -1.50668,0.75417c-0.37265,0.18414 -0.74326,0.36491 -1.11292,0.53748c-0.36469,0.17026 -0.72525,0.33449 -1.08499,0.48122c-0.6954,0.28363 -1.03958,0.39572 -1.37683,0.50084c-0.33139,0.10329 -0.66199,0.19441 -0.99107,0.28107c-0.32832,0.08646 -0.65901,0.16737 -0.99107,0.25317c-0.67799,0.1752 -1.02525,0.27325 -1.38016,0.37932c-0.36607,0.10939 -0.74335,0.22923 -1.13376,0.35938c-0.40726,0.13574 -0.83151,0.28305 -1.27415,0.44354c-0.95428,0.34601 -1.46413,0.54283 -1.99167,0.74666c-0.53725,0.20758 -1.07468,0.41942 -1.60397,0.63272c-0.51472,0.20743 -1.00598,0.40804 -1.4631,0.60437c-0.7912,0.33983 -1.10638,0.48953 -1.3707,0.62151c-0.22176,0.11073 -0.40279,0.20932 -0.54933,0.29517c-0.12018,0.07039 -0.21532,0.13382 -0.29643,0.18268c-0.13075,0.07875 -0.19376,0.10635 -0.255,0.12567c-0.05612,0.0177 -0.10785,0.02834 -0.15169,0.02791c-0.03452,-0.00034 -0.06683,-0.00946 -0.06754,-0.02791c-0.00215,-0.05638 0.06615,-0.0853 0.12569,-0.12401c0.07472,-0.04858 0.16852,-0.10004 0.27811,-0.15829c0.12439,-0.06612 0.26457,-0.13705 0.41898,-0.21455c0.34882,-0.17508 0.54271,-0.27094 0.7475,-0.37317c0.2148,-0.10724 0.43832,-0.2189 0.66937,-0.33437c0.23729,-0.11858 0.47958,-0.23972 0.72562,-0.36272c0.49834,-0.24915 0.75043,-0.37477 1.01334,-0.50749c0.28587,-0.14432 0.60538,-0.3076 0.96938,-0.49687c0.42107,-0.21895 0.90932,-0.47601 1.47563,-0.77814c1.41643,-0.75566 2.28111,-1.22557 3.24417,-1.74583c1.04425,-0.56413 2.15364,-1.16362 3.31415,-1.78603c1.19377,-0.64024 2.4055,-1.28833 3.62376,-1.9269c2.37573,-1.24527 3.51608,-1.81737 4.61765,-2.37682c1.07721,-0.54706 2.14166,-1.0874 3.19318,-1.6492c1.06171,-0.56725 2.13858,-1.15996 3.22107,-1.81796c2.30939,-1.40379 3.50418,-2.24327 4.74249,-3.12183c1.27164,-0.90219 2.54001,-1.84569 3.79434,-2.81001c1.24014,-0.95341 2.43774,-1.90071 3.56934,-2.83791c2.07001,-1.71436 2.95035,-2.50815 3.74417,-3.24167c0.72708,-0.67186 1.37976,-1.30908 1.97046,-1.91521c0.5538,-0.56827 1.06454,-1.12204 1.5488,-1.66187c0.94531,-1.05377 1.41281,-1.59312 1.89346,-2.13902c0.49298,-0.55991 1.00009,-1.13882 1.52084,-1.7437c0.54263,-0.63029 1.10681,-1.29295 1.68915,-1.99706c1.26071,-1.52429 1.92487,-2.3661 2.62238,-3.24501c0.72311,-0.91119 1.46277,-1.85083 2.22266,-2.80481c0.76932,-0.96584 1.54391,-1.93591 2.33517,-2.88942c1.55646,-1.87558 2.34171,-2.75996 3.11484,-3.61348c0.7507,-0.82877 1.49179,-1.61722 2.21689,-2.36647c0.69577,-0.71895 1.36981,-1.39613 2.0202,-2.02853c1.18845,-1.15556 1.7384,-1.65997 2.25168,-2.12901c0.4808,-0.43935 0.93958,-0.84746 1.37915,-1.23079c0.42142,-0.36752 0.83368,-0.71896 1.23877,-1.06206c0.80536,-0.68211 1.21518,-1.02716 1.6268,-1.37569c0.41028,-0.34743 0.81522,-0.69037 1.21234,-1.02351c0.38367,-0.32184 0.75015,-0.62862 1.09982,-0.91148c0.61734,-0.4994 0.88547,-0.70064 1.12183,-0.87431c0.20432,-0.15013 0.38141,-0.27356 0.52814,-0.37794c0.11917,-0.08479 0.21896,-0.14531 0.27478,-0.20921c0.06177,-0.07071 0.04166,-0.11234 0.005,-0.12932c-0.04987,-0.0231 -0.12082,-0.02818 -0.20166,-0.02835c-0.09024,-0.00018 -0.1875,0.0079 -0.28629,0.02835c-0.19839,0.04106 -0.28967,0.08128 -0.37515,0.12848c-0.08878,0.04901 -0.1763,0.11559 -0.26544,0.19691c-0.10031,0.09152 -0.20578,0.20467 -0.32169,0.33733c-0.28314,0.32405 -0.44403,0.52725 -0.62683,0.74666c-0.19687,0.23633 -0.40591,0.48532 -0.62939,0.73894c-0.22913,0.25999 -0.46387,0.5209 -0.71353,0.76683c-0.48688,0.4796 -0.74396,0.68262 -0.99664,0.87068c-0.24475,0.18214 -0.49246,0.34497 -0.73773,0.49562c-0.23883,0.14668 -0.47705,0.28064 -0.70935,0.41147c-0.44867,0.25267 -0.66476,0.37614 -0.87238,0.50166c-0.20154,0.12184 -0.3942,0.24312 -0.57745,0.3629c-0.17526,0.11456 -0.34033,0.22594 -0.49332,0.33502c-0.276,0.19679 -0.39374,0.28961 -0.50082,0.37598c-0.09863,0.07954 -0.18771,0.15579 -0.26877,0.22879c-0.07608,0.0685 -0.24606,0.05396 -0.69061,0.70038c-0.50336,0.73192 -0.96475,1.47334 -1.50812,2.25285c-0.43015,0.6171 -0.74451,1.56061 -1.0369,2.25388c-0.39774,0.9431 -0.85986,1.68344 -1.22629,2.24419c-0.61517,0.94138 -1.12827,1.66667 -1.48669,2.43584c-0.40717,0.87375 -0.40842,1.84149 -0.65533,2.62601c-0.26401,0.83881 -1.24921,1.0909 -1.84479,1.90265c-0.41296,0.56284 -0.62802,1.53836 -0.95233,2.45943c-0.30002,0.8521 -0.59256,1.63905 -1.25165,2.20291c-0.68427,0.58539 -1.41959,0.85962 -2.29868,1.37489c-0.80698,0.47301 -1.6785,0.98491 -2.23074,1.35715c-0.80179,0.54042 -1.00006,1.459 -1.51474,2.14029c-0.54672,0.72371 -1.74829,0.62079 -1.50049,-0.12457c0.26108,-0.78526 0.35632,-1.73108 0.39233,-2.50554l0.23193,-0.86549" stroke-width="20" stroke="#fff" fill="none" id="svg_15"/>
  <path t="106664,107324,107339,107339,107346,107357,107357,107365,107373,107373,107384,107395,107436,107446,107457,107477,107477,107489,107489,107499,107499,107509,107509,107522,107528,107528,107539,107627,107640,107650,107650,107660,107661,107679,107679,107690,107699,107699,107710,107759,107771,107789,107806,107811,107822,107822,107830,107831,107831,107841,107842,107842,107842,107857,107857,107857,107864,107864,107864,107864,107871,107872,107873,107886,107886,107894,107894,107900,107901,107912,107924,107924,107932,107943,107943,107955,107955,107955,107963,107964,107964,107976,107976,107982,107982,107993,108004,108005,108022,108022,108042,108056,108064,108173,108174,108194,108206,108215,108216,108227,108227,108227,108239,108244,108245,108256,108257,108265,108276,108276,108294,108305,108467,108477,108487,108497,108508,108522,108527,108539,108617,108628,108639,108648,108649,108660,108661,108674,108680,108704,108809,108822,108830,108842,108842,108855,108859,108880,108880,108891,108909,108921,108938,108956,108962,108974,109214,109225,109225,109238,109253,109266,109702,109714,109714,109725,109738,109891,109904,109925,109938,109938,109947,109958,109971" d="m265.72998,161.16003c0.25348,-0.47281 0.9711,-1.05724 1.62003,-1.56795c0.8331,-0.65565 1.52902,-1.27046 1.97363,-1.77383c0.61444,-0.69563 1.50314,-1.3161 1.8381,-1.90607c0.47949,-0.84457 0.89194,-1.7664 1.62778,-2.21893c0.69757,-0.429 0.96591,-1.17146 1.1655,-2.11322c0.16165,-0.76277 0.62842,-1.56493 1.14975,-2.29478c0.52036,-0.72847 0.86304,-1.57651 1.30945,-2.40776c0.38916,-0.72464 0.72726,-1.53856 1.18744,-2.3808c0.37265,-0.68207 1.11209,-1.36636 2.00232,-1.45667c0.9024,-0.09154 1.78537,-0.02141 2.49603,-0.40703c0.80508,-0.43687 1.36697,-1.10895 2,-1.72212c0.61728,-0.59792 1.37665,-1.14786 2.25,-1.62251c0.72906,-0.39624 1.18927,-1.27417 1.94077,-1.72646c0.76022,-0.45753 1.82837,0.01315 2.62469,-0.15466c0.81442,-0.17162 1.35406,-0.93811 2.01376,-1.53107c0.6875,-0.61795 1.3364,-1.12781 2.09183,-1.61896c0.79623,-0.51768 1.67813,-0.93782 2.26892,-1.22197c0.88477,-0.42555 1.73932,-0.88023 2.54443,-1.38893c0.53467,-0.33781 1.61478,-1.01433 2.19366,-1.30339c0.86542,-0.43214 1.4577,-0.64709 2.48584,-1.1778c0.67856,-0.35027 1.44153,-0.8652 2.4006,-1.27862c0.7373,-0.31783 1.69205,-0.58749 2.41504,-0.84874c0.8252,-0.29818 1.62595,-0.72417 2.39545,-1.06038c0.85825,-0.37498 1.76154,-0.38058 2.54102,-0.84441c0.74911,-0.44576 1.37494,-0.99758 2.189,-1.57629c0.68079,-0.48396 1.35446,-1.02193 2.29166,-1.56001c0.61395,-0.35249 1.38635,-0.62736 2.32507,-1.02214c0.7149,-0.30065 1.6597,-0.72652 2.35217,-0.88478c1.03766,-0.23715 1.94052,-0.17974 2.78812,-0.17974c0.96335,0 1.83484,0.35697 2.70206,-0.13734c0.74664,-0.42558 1.07852,-1.46396 1.9408,-1.65734c0.80472,-0.18047 1.74677,-0.07489 2.63617,-0.07533c0.84329,-0.00042 1.72009,-0.00687 2.56406,-0.13943c0.91724,-0.14407 1.5614,-0.37794 2.63647,-0.46787c1.0473,-0.08761 1.73654,-0.02268 2.66006,-0.02268c0.91229,0 1.89648,0 2.70834,0c0.88608,0 1.7868,0 2.69824,0c0.91483,0 1.80075,0.00601 2.60782,-0.26371c0.89755,-0.29996 1.77155,-0.3563 2.68417,-0.3563c0.802,0 1.70721,0.11232 2.55374,-0.17892c0.84375,-0.29028 1.74548,-0.38065 2.58267,-0.55441c0.75702,-0.15711 1.69577,-0.62391 2.3844,-0.8721c0.90381,-0.32575 1.78372,-0.27457 2.70602,-0.27457c0.87982,0 1.70953,0 2.70291,0c0.87491,0 1.69623,0 2.60269,0c0.97043,0 1.7923,0 2.61792,0c0.96112,0 1.90256,0 2.77713,0c0.802,0 1.76157,0.00427 2.61563,-0.26371c0.84366,-0.26472 1.70776,-0.24908 2.63663,-0.4613c0.75204,-0.17182 1.63794,-0.52163 2.49521,-0.52499c0.92667,-0.00363 1.87646,0 2.71146,0c0.88391,0 1.7814,0 2.66559,0c0.93854,0 1.82587,0 2.65005,0c0.97769,0 1.72769,0 2.70502,-0.045l0.7547,-0.48667l0.58942,-0.56645" stroke-width="2" stroke="#000" fill="none" id="svg_16"/>
  <path t="113283,113814,114014,114024,114035,114045,114056,114419,114558,114624,114644,114654,114675,114776,114786,114807,114818,114938,115182,115223,115305,115321,115357,115648,115649,115659,115679,115691" d="m390.09998,112.41003c1.86395,0.26795 2.5369,0.81434 3.25317,1.19793c0.78543,0.42062 1.66614,0.58844 2.25,1.17975c0.6835,0.69221 -0.12518,1.36116 -0.93768,1.37232c-0.93857,0.01289 -1.81323,0 -2.74969,0c-0.82016,0 -1.70184,0 -2.66537,0c-0.79498,0 -1.64563,0 -2.58542,0c-0.93979,0 -1.81961,-0.19344 -2.69434,0.00672c-0.80899,0.18513 -1.57089,0.7606 -2.21243,1.06064l-0.77386,0.53806l-0.88269,0.27457l-0.87393,0" stroke-width="2" stroke="#000" fill="none" id="svg_17"/>
  <path t="120353,120564,120575,120580,120591,120623,120734,120755,120755,120767,120778,120792,120812,120818,120896,120908,120919,120927,120957,121118,121199,121289,121289,121309,121329,121341" d="m310.10001,197.41003c1.06451,0.84518 1.56168,1.55511 2.18997,2.18999c0.62173,0.62823 1.26938,1.47885 2.06317,1.55919c0.95322,0.09648 1.62958,-0.61362 2.41287,-0.97461c0.79327,-0.3656 1.87732,-0.27457 2.71231,-0.27457c0.8739,0 1.97345,-0.17899 1.60123,-0.87225c-0.40833,-0.76048 -1.45044,-0.84975 -2.29047,-1.13719c-0.81931,-0.28035 -1.70578,-0.49055 -2.54242,-0.49055c-0.84375,0 -1.76834,0 -2.64444,0l-0.8754,0" stroke-width="2" stroke="#000" fill="none" id="svg_18"/>
  <path t="122498,122880,122891,122907,122930,122947,122951,123052,123081,123112,123112,123123,123129,123346,123466,123496,123496,123507,123516,123529,123546" d="m333.85001,206.79002c-1.84772,0.27043 -1.87003,1.12317 -1.87003,2.06236c0,0.84525 -0.45602,1.89847 0.01291,2.60973c0.44247,0.67113 1.60934,0.32791 2.59042,0.32791c0.73843,0 1.69592,0.02242 2.5011,0c0.96613,-0.02689 1.18015,-0.93964 0.41226,-1.355c-0.62494,-0.33804 -1.51883,-0.70764 -2.38214,-1.06967l-0.88678,-0.08205l-0.72733,-0.37764" stroke-width="2" stroke="#000" fill="none" id="svg_19"/>
  <path t="124739,124796,124827,124848,124862,124869,124878,124890,125204,125228,125343,125356,125364,125378,125385,125395,125405,125413,125576,125595,125688,125711,125711,125719,125758,125809,125899,125911" d="m351.97998,221.79004c0,-1.43953 -0.04663,-2.36043 -0.87775,-2.5c-0.86969,-0.14606 -1.18433,-0.91725 -1.93726,-1.53896c-0.63406,-0.52354 -1.55362,-0.0667 -1.56497,0.7858c-0.01248,0.93855 -0.03809,1.8705 0.50397,2.5c0.6012,0.69821 1.37738,1.07251 2.24435,1.32109c0.8895,0.25505 1.2829,1.13672 2.12851,1.30124c0.92136,0.17926 1.67227,-0.13622 2.35898,-0.74602c0.52457,-0.46582 1.33643,-1 1.51416,-1.93863l0,-0.875l-0.2215,-0.77408l-0.83899,-0.03545" stroke-width="2" stroke="#000" fill="none" id="svg_20"/>
  <path t="127964,128305,128317,128332,128338,128338,128347,128347,128360,128360,128370,128379,128379,128389,128389,128397,128397,128397,128410,128410,128419,128427,128443,128443,128450,128459,128460,128460,128470,128470,128470,128479,128479,128493,128499,128499,128510,128510,128521,128521,128530,128530,128543,128619,128630,128643,128644,128644,128651,128651,128660,128661,128671,128671,128680,128680,128694,128701,128771,128772,128781,128794,128795,128802,129063,129076,129092,129708,129720,129729,129729,129742,129831,129871,129902,129923,129933,130205,130224,130224,130224,130236,130237,130237,130237,130248,130248,130248,130260,130260,130271,130271,130272,130276,130276,130377,130395,130409,130418,130427,130427,130447,130447,130477,130539,130549,130558,130559,130570,130579,130579,130593,130593,130600,130620,130629,130731,130742,130752,130761,130762,130775,130776,130781,130782,130794,130795,130821,130890,130905,130914,130926,130933,130933,130943,130965,130975,131014,131096,131116,131135,131136,131145,131159,131168,131186,131217,131228,131237,131256,131267,131298,131298,131599" d="m420.09998,243.66003c1.65219,-1.68173 1.80469,-2.48381 1.89291,-3.435c0.08969,-0.96678 0.53952,-1.54182 1.12976,-2.35103c0.47968,-0.65764 1.1254,-1.4019 1.56689,-1.95618c0.67441,-0.84668 0.85541,-1.78609 1.1445,-2.5388c0.31543,-0.82129 0.91705,-1.23984 1.55927,-2.21733c0.47009,-0.7155 0.71609,-1.4959 1.01932,-2.43056c0.22168,-0.68326 0.40555,-1.72031 0.71191,-2.46378c0.36136,-0.87694 0.78067,-1.61685 1.50482,-2.22023c0.78131,-0.65099 1.31192,-1.02589 2.03888,-1.66623c0.73865,-0.65062 1.35974,-1.00931 1.9519,-1.6438c0.67831,-0.72679 0.82516,-1.5219 1.2981,-2.41322c0.45499,-0.85751 1.22995,-1.24857 1.93173,-1.83846c0.66815,-0.56161 1.26291,-1.36484 1.61209,-1.88539c0.65158,-0.97136 1.11887,-1.63031 1.2612,-2.55565c0.13422,-0.87245 -0.02338,-1.78326 0.14413,-2.61145c0.16318,-0.80672 0.35486,-1.4996 0.89359,-2.54794c0.31277,-0.60867 0.98691,-1.5197 1.32565,-2.09061c0.59674,-1.00572 0.62799,-1.7821 0.94394,-2.63351c0.27573,-0.74306 1.02045,-1.33937 1.70837,-1.97627c0.63971,-0.59227 1.11462,-1.27602 1.48877,-2.02457c0.4371,-0.87453 0.94586,-1.40399 1.71387,-2.00899c0.64072,-0.50471 0.57672,-1.3856 1.16006,-1.96602c0.61444,-0.61134 0.62833,-1.55885 0.62833,-2.5c0,-0.82187 -0.36761,-1.76387 0.00278,-2.58174c0.34064,-0.75217 1.22034,-1.18959 1.24722,-1.99532c0.03116,-0.93288 -0.01483,-1.80103 0.20834,-1.25629c0.31592,0.7711 0.68118,1.4782 1.04166,2.29167c0.38162,0.86119 0.63,1.45003 0.94623,2.34059c0.39603,1.11533 0.61859,1.90741 0.74603,2.67526c0.16501,0.99416 0.17126,1.73784 0.17773,2.89749c0.00351,0.63182 0,1.60565 0,2.53818c0,0.83533 0,1.75 0,2.69283c0,0.90993 0,1.73799 0,2.71332c0,0.77777 0.00031,1.73441 0,2.48441c-0.00043,1.05061 -0.52884,1.64682 -0.61722,2.47066c-0.09894,0.92232 0.04501,1.77946 -0.00949,2.68835c-0.05246,0.87456 -0.37973,1.69102 -0.54675,2.69394c-0.12997,0.78049 -0.07654,1.69766 -0.07654,2.63713c0,0.81227 0.00003,1.74884 0,2.61659c-0.00006,0.93359 -0.12003,1.77357 -0.31,2.53398c-0.22672,0.90752 -0.30353,1.83577 -0.31,2.83372c-0.00464,0.71628 0,1.62915 0,2.48305c0,0.93333 -0.05643,1.91928 0,2.78218c0.05344,0.81708 0.89926,1.28102 1.17853,2.19131c0.22546,0.73488 0.07147,1.74518 0.07147,2.68321c0,0.85773 0,1.69083 0,2.73047c0,0.83167 0,1.76291 0,2.46083c0,0.99918 0,1.87134 0,2.82025c0,0.85185 0,1.78659 0,2.67667c0,0.87541 0,1.7491 0,2.62451l0,0.98108l0,0.73845l0,1.02988" stroke-width="2" stroke="#000" fill="none" id="svg_21"/>
  <path t="133306,133415,133425,133436,133436,133455,133455,133468,133529,133536,133545,133545,133558,133558,133567,133567,133577,133577,133577,133591,133591,133591,133597,133597,133598,133607,133607,133607,133619,133619,133619,133628,133629,133629,133641,133641,133648,133648,133657,133669,133669,133669,133678,133678,133690,133690,133700,133700,133709,133709,133720,133720,133720,133729,133729,133741,133741,133751,133751,133751,133761,133761,133774,133774,133790,133802,133802,133811,133825,133830,133847,133848,133852,133861,133862,133873,134323,134345,134345,134356,134366,134367,134375,134376,134386,134386,134395,134407,134407,134418,134419,134428,134428,134440,134440,134447,134447,134457,134457,134466,134466,134467,134476,134490,134491,134497,134497,134497,134507,134507,134507,134518,134519,134528,134528,134541,134541,134548,134548,134568,134577,134577,134591,134591,134598,134608,134608,134619,134619,134629,134629,134629,134640,134651,134651,134660,134674,134690,134691,134701,134714,134721,134731,134732,134733,134751,134751,134761,134762,134775,134782,134842,134853,134871,134883,134902,134984,134994,135011,135024,135152,135165,135185,135226" d="m409.47998,253.66003c-0.03601,1.5078 -0.27258,2.38095 -0.6908,3.2551c-0.31,0.64792 -0.72275,1.53946 -0.91464,2.2312c-0.30115,1.08563 -0.40753,1.89459 -0.81943,2.70459c-0.37988,0.74704 -0.94821,1.41159 -1.70013,1.96826c-0.6189,0.45819 -1.26379,1.0929 -1.75,1.78601c-0.51489,0.73401 -1.00803,1.51151 -1.42877,2.11176c-0.61771,0.88126 -1.14511,1.5799 -1.47906,2.07587c-0.66357,0.98544 -1.07291,1.75192 -1.50479,2.49722c-0.43744,0.75485 -0.95462,1.48636 -1.42636,2.25c-0.60739,0.98322 -0.90283,1.74866 -1.1731,2.47733c-0.34109,0.91959 -0.61511,1.57016 -1.1207,2.2934c-0.57913,0.8284 -1.17261,1.32181 -1.69247,2.27734c-0.34613,0.6362 -0.75131,1.56464 -1.28308,2.28192c-0.42642,0.5752 -0.89725,1.24216 -1.51883,2.01178c-0.57382,0.71048 -1.08655,1.48981 -1.27356,2.25604c-0.25793,1.05685 -0.2095,1.75931 -0.22427,2.81384c-0.01166,0.83337 -0.13968,1.86005 -0.26797,2.49673c-0.18344,0.91031 -0.27615,1.78812 -0.39465,2.77426c-0.11365,0.94565 -0.34787,1.72031 -0.69238,2.54236c-0.28613,0.6828 -0.75021,1.5701 -1.13257,2.36823c-0.37375,0.78018 -0.61154,1.70462 -0.63959,2.5596c-0.0307,0.93567 -0.14078,1.83566 -0.40417,2.68616c-0.24457,0.78964 -0.16275,1.67087 -0.2215,2.65601c-0.05243,0.87939 -0.40024,1.61502 -0.59393,2.5c-0.21689,0.99088 -0.55765,1.69333 -0.65045,2.59866c-0.09454,0.92242 0.80209,0.8858 1.42358,0.34183c0.64545,-0.56494 1.10782,-1.23621 1.76752,-1.69327c0.91776,-0.63583 1.67023,-1.05197 2.33847,-1.60779c0.62671,-0.52124 1.04111,-1.41782 1.53281,-2.25943c0.37836,-0.64761 1.05688,-1.26379 1.75,-1.75c0.7338,-0.51474 1.4729,-1.00171 2.32983,-1.52167c0.70963,-0.43057 1.47626,-0.93814 2.12732,-1.48996c0.73563,-0.62347 1.43381,-1.09122 2.24435,-1.74338c0.59723,-0.48053 1.12726,-0.97623 1.84671,-1.75c0.67728,-0.72839 1.03363,-1.44357 1.6983,-2c0.69049,-0.57803 1.41956,-0.85965 2.29877,-1.375c0.62143,-0.36426 1.38879,-0.87018 2.13556,-1.375c0.73264,-0.49527 1.55115,-1.12662 2.12878,-1.625c0.72678,-0.62704 1.39609,-1.09952 2.28854,-1.76999c0.58029,-0.43594 1.52341,-0.77124 2.08499,-1.45834c0.4791,-0.58618 1.11328,-1.19684 1.87131,-1.5784c0.8446,-0.42514 1.39066,-1.27133 1.8602,-1.81909c0.58875,-0.6868 1.35342,-1.13788 2.07916,-1.76141c0.56451,-0.48499 1.21616,-1.17493 1.8078,-1.94452c0.61734,-0.80298 1.37952,-1.12299 1.97617,-1.79099c0.59979,-0.67151 0.6474,-1.62253 0.85095,-2.3941c0.25662,-0.97278 0.75168,-1.64072 1.3284,-2.25754c0.75162,-0.80389 1.08987,-1.32733 1.60269,-2.00345c0.60995,-0.8042 1.21262,-1.48682 2,-1.99719c0.59946,-0.38858 1.76294,-0.60196 2.11166,-1.47223c0.34912,-0.87128 0.10049,-1.70773 0.69745,-2.26508c0.62659,-0.58502 1.24585,-1.04263 1.91922,-1.62933c0.56564,-0.49283 0.4324,-1.58218 1.02066,-1.98248c0.67258,-0.45767 1.15384,-1.06134 1.37601,-1.93506l0.02231,-0.91537" stroke-width="2" stroke="#000" fill="none" id="svg_22"/>
  <path t="139093,139182,139192,139205,139214,139224,139233,139244,139244,139259,139264,139273,139274,139285,139294,139304,139315,139324,139324,139339,139344,139345,139355,139355,139372,139372,139376,139376,139386,139386,139386,139395,139395,139404,139405,139405,139416,139416,139416,139425,139425,139425,139438,139438,139447,139447,139447,139456,139457,139457,139457,139471,139472,139472,139476,139476,139477,139490,139490,139499,139510,139510,139609,139609,139622,139623,139623,139629,139629,139640,139640,139650,139661,139661,139673,139680,139692,139700,139712,139724,139725,139731,139751,139763,139914,139924,139939,139945,139945,139956,139957,139966,139967,139967,139977,139978,139978,139989,139994,139995,140006,140015,140015,140034,140046,140057,140065,140066,140077,140077,140089,140090,140097,140097,140108,140108,140108,140116,140117,140117,140128,140128,140129,140140,140140,140156,140156,140173,140198,140216,140217,140228,140239,140240,140248,140249,140260,140260,140273,140273,140289,140299,140310,140323,140331,140342,140349,140350,140361,140361,140373,140374,140382,140383,140390,140391,140402,140413,140414,140425,140431,140431,140443,140443,140471,140532,140543,140563,140574,140575,140583,140595,140596,140615,140621,140625,140626,140639,140645,140654,140674,140690,140696,140714,140726,140727,140741,140747,140759,140765,140778,140791,140796,140809,140824" d="m410.72998,251.79004c-0.07147,-1.47179 -0.88953,-2.00911 -1.22397,-2.82813c-0.31174,-0.76343 0.12866,-1.83321 -0.13104,-2.69688c-0.26785,-0.89079 -0.52356,-1.56738 -0.52499,-2.48409c-0.0014,-0.90694 0,-1.88757 0,-2.71198c0,-0.84393 0,-1.79684 0,-2.6581c0,-0.89584 0,-1.82237 0,-2.62167c0,-0.87416 0,-1.877 0,-2.55292c0,-0.97083 -0.03189,-1.70087 0.00671,-2.82399c0.02579,-0.75014 0.24619,-1.68298 0.40112,-2.47374c0.21045,-1.07404 0.21487,-1.79135 0.22131,-2.52934c0.00873,-0.99915 0.00085,-1.99918 0.00085,-2.99918c0,-0.75279 0,-1.52232 0,-2.60333c0,-0.86253 0,-1.73064 0,-2.81c0,-0.69974 0.05118,-1.51808 -0.00333,-2.46066c-0.04477,-0.77415 -0.54413,-1.82689 -0.87833,-2.28487c-0.54553,-0.74759 -1.24832,-1.8017 -1.405,-2.39008c-0.23175,-0.8703 -0.21167,-1.77214 -0.21335,-2.62453c-0.00156,-0.80386 0.00787,-1.82573 -0.00085,-2.8257c-0.00644,-0.73779 -0.00543,-1.4556 -0.22131,-2.52304c-0.18793,-0.92929 -0.39648,-1.82527 -0.40784,-2.7227c-0.01038,-0.82214 0.0701,-1.86652 -0.04501,-2.55672c-0.14496,-0.86916 -0.60236,-1.70709 -0.90289,-2.39629c-0.46692,-1.0708 -0.67267,-1.66608 -0.98621,-2.6111c-0.29602,-0.89221 -0.54788,-1.81006 -0.56589,-2.65189c-0.01614,-0.75502 -0.06934,-1.7993 -0.35629,-2.55954c-0.31442,-0.83304 -0.20282,-1.7923 -0.27042,-2.62225c-0.07004,-0.85965 -0.51569,-1.66267 -0.62244,-2.5334c-0.11154,-0.90961 -0.7388,-1.40349 -1.11685,-2.18956c-0.15414,-0.32053 0.9978,-0.11359 1.746,0.24397c0.7742,0.37 1.67252,0.76405 2.40128,0.99942c1.0383,0.33534 1.74094,0.50183 2.47156,0.68678c0.99622,0.25218 1.74985,0.37018 2.58759,0.68863c0.98126,0.373 1.59253,1.04889 2.13135,1.58923c0.71942,0.72142 1.24969,1.44205 1.97617,1.93176c0.78757,0.53091 1.72717,0.66588 2.43039,1.10352c0.84738,0.52736 0.91595,1.3255 1.44815,2.12732c0.46231,0.69653 1.20731,1.22723 1.80353,1.9279c0.65494,0.76967 1.0412,1.3197 1.48544,2.39365c0.28146,0.68042 0.44339,1.42703 0.69888,2.42346c0.19244,0.75056 0.37811,1.51273 0.76599,2.49989c0.29633,0.7541 0.65619,1.47676 1.17459,2.36256c0.46805,0.79976 1.1636,1.47169 1.52081,2.23189c0.38968,0.8293 0.22427,1.77667 0.22427,2.76065c0,0.77284 0,1.65172 0,2.65955c0,0.68837 0,1.80124 0,2.55045c0,0.93668 0,1.86209 0,2.71001c0,0.84828 0,1.84828 0,2.67607c0,0.95715 0,1.78671 0,2.731c0,0.84294 0,1.76958 0,2.48178c0,0.93613 0,1.84013 0,2.77663c0,0.74905 -0.03741,1.87692 0.03601,2.625c0.09247,0.94234 0.4346,1.62152 0.57132,2.65512c0.11655,0.88101 -0.10962,1.69884 0.02829,2.61617c0.13992,0.9306 0.93582,1.36549 1.49271,2.02223c0.62988,0.7428 0.71216,1.65736 1.13892,2.48924c0.38651,0.7534 0.86819,1.50931 1.4686,2.15575c0.49628,0.53435 1.18558,1.13713 1.64099,1.99519c0.37173,0.70039 0.9743,1.45256 1.43817,2.26874c0.40878,0.71925 0.80594,1.472 0.92209,2.47397c0.10025,0.86459 0.20798,1.68385 0.70358,2.49579c0.47818,0.78342 0.77328,1.49139 1.13638,2.24901c0.39194,0.81783 0.52527,1.56674 0.97504,2.45332c0.39948,0.78745 0.6705,1.56587 0.9256,2.43774c0.24677,0.84335 0.52631,1.552 1.02457,2.35666l0.49338,0.74518l0.37766,0.77267" stroke-width="2" stroke="#000" fill="none" id="svg_23"/>
  <path t="149398,150385,150407,150416,150425,150436,150451,150629,150639,150650,150669,150685,150720,150721,151086,151122,151147,151197,151226,151289,151502,151517,151696,152005,152005,152421,152433,152442" d="m320.10001,163.66003c1.26605,0.36203 2.10138,0.55801 2.82813,0.95313c0.75433,0.41013 1.72275,0.66862 2.16525,1.30585c0.49426,0.71175 1.10056,0.86539 1.75977,1.3687c0.78653,0.60054 1.56561,0.81346 2.2052,1.37399c0.55954,0.49037 1.04166,0.86275 1.04166,-0.06245c0,-0.87421 0,-1.81088 0,-2.68697c0,-0.81271 -0.27023,-1.60979 -1.12317,-1.62225c-0.9335,-0.01364 -1.58517,-0.62833 -2.22144,-1.06453l-0.68936,-0.5136l-0.32047,-0.81746l-0.24057,-0.88445" stroke-width="2" stroke="#000" fill="none" id="svg_24"/>
  <path t="155656,156069,156085,156290,156301,156339,156350,156470,156531,156548,156894,156985,156998,157122,157157,157287" d="m331.35001,152.41003c1.25165,1.14667 1.43948,1.91402 2.10147,2.46455c0.6474,0.53841 1.30643,0.80907 1.8735,1.47218c0.5423,0.63414 1.65381,0.47182 2.52725,0.44325c0.82214,-0.02689 0.99777,-0.87775 0.99777,-1.75316l0,-0.93637l0,-0.875l0,-0.93863" stroke-width="2" stroke="#000" fill="none" id="svg_25"/>
  <path t="161454,161756,161787,161906,161917,161936,162370,162431,162763,163036,163125,163141" d="m341.97998,144.91003c0.54468,1.31421 0.58276,2.33496 1.37399,2.5c0.88522,0.18465 1.81909,0 2.686,0c0.81317,0 1.54712,-0.32314 1.56003,-1.24834l0,-0.87392l0,-0.87459" stroke-width="2" stroke="#000" fill="none" id="svg_26"/>
  <path t="165145,165413,165536,165657,165797,165797,165988,165999,166010,166010,166020,166031,166032,166032,166044,166044,166052,166052,166052,166066,166067,166741,166824,166835,166846,166861,166870,166875,167056,167056,167066,167077,167478,167496,167622,167631,167644,167645" d="m382.59998,118.04002c-2,0.02232 -2.88776,0.19347 -3.73557,0.68412c-0.75412,0.43643 -1.50879,0.53516 -2.35809,1.00325c-0.70911,0.39082 -1.54572,0.99696 -2.13367,1.54656c-0.69592,0.65054 -1.36127,1.22954 -1.93332,1.66547c-0.67166,0.51186 -1.43164,1.32017 -1.85495,1.85496c-0.58844,0.74341 -1.25531,1.47443 -1.72531,2.01916c-0.6694,0.77583 -2.0737,1.48589 -1.64926,2.29589c0.32169,0.61394 1.61496,-0.17111 2.39334,-0.62633c0.72928,-0.42651 1.17154,-1.38578 2.0506,-1.64017c0.91034,-0.26345 1.76096,0.09067 2.56726,-0.43726c0.73901,-0.48386 1.35764,-1.15986 1.85855,-1.8679c0.48508,-0.68566 1.01144,-1.295 1.59268,-1.97958l0.32993,-0.7678" stroke-width="2" stroke="#000" fill="none" id="svg_27"/>
  <path t="170451,170823,170835,170835,171197,171208,171358,171368,171378,171399,171458,171529,171569,171569,171622,171803,171883,171963,172023,172034,172204" d="m366.97998,224.29004c-0.00284,1.4411 -0.12531,2.37274 -0.44327,3.11964c-0.36682,0.86166 -1.05011,1.694 -0.7034,2.50201c0.35535,0.82819 1.26865,1.22182 2.14441,1.24834c0.93594,0.02834 1.52823,0.42274 2.3237,0.76723c0.74057,0.32071 1.88144,0.94394 2.60065,0.46986c0.67114,-0.44241 0.32791,-1.60934 0.32791,-2.48543l0,-0.87392l-0.10501,-0.89441" stroke-width="2" stroke="#000" fill="none" id="svg_28"/>
 </g>
 <g display="none">
  <title>muse_image</title>
  <image xlink:href="http://farm1.static.flickr.com/149/417566635_abe4a920b5.jpg" height="426" width="640" y="27" x="0" id="muse"/>
 </g>
 <g display="none">
  <title>bbox</title>
  <rect height="134.324" width="468.48" y="170.279" x="92.16" stroke-width="3" stroke="#f00" fill="none" id="bbox"/>
 </g>
</svg>
