<svg width="640" height="480" xmlns="http://www.w3.org/2000/svg" xmlns:svg="http://www.w3.org/2000/svg" xmlns:xlink="http://www.w3.org/1999/xlink">
 <!-- Sketchy ANNOTATION
  ImageNet ID: n02691156_9916
  URL: http://farm1.static.flickr.com/46/129300927_8fd18094af.jpg
  Image Width: 500
  Image Height: 360
  BBox X: 79
  BBox Y: 123
  BBox Width: 335
  BBox Height: 122
  Exposure: 2000ms
  Synset Label: airplane
  Synset ID: n02691156
  Worker Tag: airplane
  Sanity Check: 
   Saved
  Comment: 
   {}
  Worker ID: AQ9ISCTDF9B48
  Assignment ID: 3QECW5O0KH15N1DGN4XLQ4AIP43T50
  HIT ID: 3R868ACW4SCX2QD5KQ0SR573VZUZGW
  Work Time: 125s
  Worker Score: 0.7857
 END ANNOTATION -->
 <g display="inline">
  <title>Layer 1</title>
  <path t="0,240,240,264,280,280,296,304,304,312,313,329,345,362,363,379,379,395,396,412,429,430,446,462,463,479,480,495,512,513,529,529,545,562,580,580,595,595,596,612,612,629,629,645,645,646,663,663,663,679,680,680,696,696,696,696,696,712,713,713,729,730,730,745,745,762,763,779,779,780,795,796,812,813,829,830,845,846,862,863,879,880,896,896,896,896,913,913,929,930,930,945,946,962,963,979,995,1012,1013,1040,1047,1072,1088,1104,1127,1160,1160,1375,1383,1399,1413,1413,1429,1430,1445,1446,1446,1462,1463,1463,1480,1480,1480,1480,1496,1496,1496,1496,1513,1513,1513,1513,1529,1530,1530,1545,1546,1546,1562,1579,1871,1880,1896,1913,1913,1929,1952,1952,1968,1979,1980,1995,2012,2030,2045,2046,2062,2079,2080,2080,2096,2096,2096,2113,2113,2130,2130,2130,2146,2146,2146,2163,2163,2180,2180,2180,2196,2196,2213,2213,2229,2230,2246,2262,2263,2279,2280,2295,2296,2296,2313,2313,2313,2329,2345,2346,2346,2363,2363,2380,2380,2380,2396,2396,2396,2413,2413,2430,2430,2446,2446,2463,2463,2480,2480,2495,2496,2496,2496,2519,2519,2519,2529,2530,2530,2545,2546,2546,2563,2563,2579,2580,2596,2596,2596,2613,2613,2630,2630,2646,2646,2646,2662,2680,2680,2695,2696,2713,2729,2730,2746,2746,2984,2984,2991,2992,3013,3013,3030,3030,3030,3030,3046,3046,3046,3046,3046,3063,3063,3063,3063,3063,3080,3080,3080,3096,3096,3119" d="m116,236c1,-1 0.89957,-1.81042 1.036,-2.636c0.14405,-0.87169 0.72823,-1.68105 0.90683,-2.61133c0.17367,-0.9046 0.05717,-1.75267 0.05717,-2.73117c0,-0.717 0,-1.62151 0,-2.54233c0,-0.96451 0,-1.68983 0,-2.679c0,-0.77934 0,-1.77867 0,-2.59883c0,-0.95851 0,-1.854 0,-2.71735c0,-0.85866 0,-1.80533 0,-2.65866c0,-0.94133 0,-1.70934 0,-2.65067c0,-1.008 0,-1.8 0,-2.65866c0,-0.86334 0,-1.88 0,-2.71735c0,-0.96533 0,-1.81949 0,-2.79866c0,-0.8 0,-1.60001 0,-2.60001c0,-0.79999 0.00007,-1.79999 0,-2.59999c-0.00008,-1.00017 0.01208,-1.82486 -0.08533,-2.48534c-0.14877,-1.00864 -0.43111,-1.83159 -0.562,-2.41917c-0.2648,-1.18871 -0.31953,-2.10684 -0.378,-2.73149c-0.1247,-1.33234 -0.25558,-2.0486 -0.4,-2.78934c-0.14622,-0.74994 -0.33641,-1.48492 -0.48933,-2.88933c-0.07049,-0.64738 -0.08308,-1.58083 -0.08533,-2.48534c-0.00222,-0.89101 0.01781,-1.72816 0,-2.66667c-0.01801,-0.94852 -0.2869,-1.81932 -0.61066,-2.58c-0.39124,-0.91919 -0.70267,-1.69565 -0.95334,-2.49199c-0.29013,-0.92172 -0.42558,-1.74031 -0.436,-2.58267c-0.01055,-0.85327 0.00185,-1.79601 0,-2.64799c-0.00225,-1.03601 0.07638,-1.80318 -0.16666,-2.69734c-0.23035,-0.84747 -0.71916,-1.65382 -0.83334,-2.375c-0.17783,-1.12329 -0.35612,-1.91006 -0.57467,-2.733c-0.1436,-0.54073 -0.38837,-1.77158 -0.41467,-2.45065c-0.04626,-1.19499 -0.01067,-1.98933 -0.01067,-2.76485c0,-1.0405 0.03996,-1.75908 -0.0045,-2.66249c-0.04262,-0.86607 -0.50836,-1.66579 -0.9115,-2.54733c-0.39525,-0.8643 -0.89387,-1.45409 -1.07333,-2.40001c-0.16777,-0.88428 -0.01067,-1.79999 -0.01067,-2.7c0,-0.89999 0,-1.8 0,-2.7c0,-0.8 -0.36541,-1.79807 0.036,-2.564c0.35527,-0.67789 1.4379,-0.75035 2.17467,-1.01067c0.97586,-0.34479 1.80531,-0.34811 2.78933,-0.59201c0.82915,-0.20551 1.45014,-0.5554 2.4215,-0.93333c0.80891,-0.31473 1.68277,-0.60066 2.5785,-0.89999c0.89977,-0.30067 1.49999,-0.50003 2.4,-0.8c0.90015,-0.30003 1.8096,-0.60336 2.436,-0.8c0.64825,-0.20349 2.04588,-0.6071 2.78934,-0.78932c0.7473,-0.18317 1.48656,-0.35461 2.55299,-0.48933c0.972,-0.12279 1.58795,-0.06937 2.655,-0.28801c0.93622,-0.19183 1.65608,-0.6626 2.64584,-0.8125c0.90044,-0.13637 1.41206,-1.1579 2.16817,-0.95917c0.75613,0.19873 0.35266,1.591 0.35266,2.45435c0,0.85866 0,1.80533 0,2.65866c0,0.94 0,1.82533 0,2.62534c0,0.89999 0,1.8 0,2.72083c0,0.96317 0,1.65384 0,2.7265c0,0.91934 0,1.59933 0,2.43933c0,0.99734 -0.00055,1.81334 0,2.62933c0.00067,0.99867 -0.04829,1.8925 0.2215,2.88417c0.22931,0.84291 0.6037,1.476 0.97717,2.48384c0.29984,0.8091 0.55267,1.62529 0.71733,2.63066c0.10826,0.66098 0.2364,1.69009 0.50934,2.48534c0.27631,0.80507 0.45352,1.8084 0.62733,2.54283c0.21979,0.92873 0.79539,1.51306 1.24283,2.30983c0.46991,0.83681 0.616,1.74075 0.92583,2.66867c0.23235,0.69589 0.60788,1.67274 0.84001,2.34c0.31558,0.90712 0.81624,1.58548 1.23332,2.3905c0.39816,0.76849 0.65907,1.69958 0.70267,2.4615c0.05756,1.00612 0.20578,2.03516 0.43867,2.73734c0.24901,0.75073 0.68462,1.59404 1.164,2.39999c0.52283,0.87898 0.79848,1.61125 1.09999,2.40117c0.29851,0.78206 0.69405,1.71503 1,2.34366c0.49051,1.00784 0.74413,1.61942 1.40001,2.58318c0.36969,0.54324 0.99734,1.34424 1.39999,2.02133c0.49673,0.83528 1.07639,1.45944 1.379,2.32167c0.24445,0.6965 0.60164,1.85876 0.97433,2.36234c0.41251,0.55736 1.17476,1.33965 1.81334,2.14932c0.54437,0.69023 0.91141,1.35631 1.4335,2.36667c0.31013,0.60019 0.60919,1.2366 1.38382,2.19867c0.48711,0.60497 1.05571,1.09323 1.75883,1.84866c0.57582,0.61865 1.03494,1.4267 1.51434,2.15717c0.53502,0.81522 1.06139,1.39131 1.59016,1.93834c0.75642,0.78253 1.31978,1.40022 1.60899,2.31433c0.23422,0.7403 0.68649,1.56548 1.31967,2.13217c0.64528,0.57751 1.15491,1.35722 1.89067,2.04399c0.52496,0.49001 1.21095,1.04218 1.63333,1.68401c0.57045,0.86684 1.29921,1.58348 1.8,2.08267c0.70337,0.70113 1.25352,1.25345 2.05716,1.6955c0.72208,0.39719 1.739,0.65216 2.50684,0.69383c0.95332,0.05173 1.703,0.01067 2.89333,0.01067c0.66135,0 1.41068,0 2.23201,0c1.332,0 1.79466,0 2.73599,0c0.94934,0 1.89067,-0.00069 2.808,0c0.88,0.00067 1.72054,-0.00259 2.52,0.036c0.76071,0.03673 2.16208,0.23892 2.8,0.38934c0.88806,0.2094 1.92484,0.45332 2.58932,0.54933l1.01451,0.24666" id="svg_1" stroke-width="2" stroke="#000" fill="none"/>
  <path t="3808,3887,3895,3895,3903,3927,3927,3935,3952,3967,3967,3980,3980,3996,3996,4013,4013,4013,4013,4030,4030,4030,4030,4046,4046,4046,4046,4063,4063,4063,4063,4063,4080,4080,4080,4080,4080,4096,4096,4096,4096,4096,4096,4096,4096,4113,4113,4113,4113,4113,4113,4130,4130,4130,4130,4130,4130,4130,4146,4146,4146,4146,4163,4163,4163,4163,4180,4180,4180,4180,4180,4180,4196,4196,4196,4196,4196,4213,4213,4213,4213,4213,4230,4230,4230,4230,4246,4246,4246,4246,4263,4263,4263,4280,4280,4280,4296,4296,4296,4296,4313,4313,4313,4313,4313,4330,4330,4330,4345,4345,4346,4363,4363,4363,4363,4380,4380,4380,4380,4380,4395,4396,4396,4396,4396,4396,4396,4413,4413,4413,4413,4413,4413,4430,4430,4430,4430,4430,4445,4446,4446,4462,4463,4463,4463,4480,4480,4480,4480,4480,4495,4496,4496,4496,4496,4496,4496,4496,4514,4514,4514,4514,4514,4530,4530,4530,4530,4530,4545,4546,4546,4546,4546,4546,4562,4563,4563,4563,4563,4563,4579,4580,4580,4580,4595,4596,4596,4596,4612,4613,4613,4629,4645,4646,4646,4646,4663,4663,4663,4663,4663,4679,4680,4680,4695,4696,4696,4696,4735,4735,4735,4767,4783,4799,4815,4823,4831,4831,4845,4846,4863,4863,4879,4880,4880,4880,4895,4896,4896,4896,4896,4912,4913,4913,4913,4929,4930,4951,4952,4962,4963,4980,4980,4996,4996,5012,5030,5046,5063,5063,5079,5080,5080,5096,5096,5096,5096,5096,5113,5113,5130,5130,5130,5146,5162,5163,5180,5180,5200,5200,5200,5223,5239,5255,5279,5279,5319,5351,5351,5359,5380,5396,5413,5431,5447,5463,5480,5480,5887,5903,5903,5920,5930,5946,5963,5980,5999,5999,6111,6135,6144,6163,6179,6639,6655,6655,6671,6679,6704,6735,6744,6763,6779,6779,6796,6796,6813,6813,6829,6829,6846,6863,6863,6879,6879,6879,6896,6896,6896,6896,6913,6913,6913,6913,6942,6943,6949,6949,6963,6963,6980,6996,6996,7013,7013,7030,7031,7031,7046,7063,7063,7079,7079,7079,7096,7119,7119,7120,7135,7136" d="m198,223c1.75717,0 2.71754,0.24678 3.43066,-0.08533c0.82231,-0.38297 1.60577,-0.74651 2.36934,-1c0.77217,-0.25635 1.5033,-0.88608 2.5215,-0.91467c0.69905,-0.01962 1.68102,0.05315 2.46783,-0.01067c1.05212,-0.08533 1.72583,-0.56731 2.71066,-0.98933c0.54196,-0.23224 1.54155,-0.50043 2.25633,-0.7c1.07681,-0.30064 1.75531,-0.51445 2.74367,-0.77917c0.64996,-0.17409 1.66496,-0.37109 2.38533,-0.4355c0.7493,-0.06699 1.91917,-0.08208 3.11467,-0.08533c0.8,-0.00217 1.60048,0.0013 2.39999,-0.036c0.80066,-0.03735 1.60199,-0.11792 2.40533,-0.24934c0.83963,-0.13736 1.73735,-0.3324 2.73601,-0.51599c1.1239,-0.20662 1.74388,-0.30055 2.396,-0.39867c0.67755,-0.10194 2.08351,-0.29987 2.79733,-0.40001c0.71185,-0.09985 1.41556,-0.19406 2.76534,-0.39999c0.63609,-0.09705 1.83272,-0.2972 2.40266,-0.38933c1.10081,-0.17795 1.63791,-0.28214 3.26401,-0.444c0.55344,-0.05508 1.11447,-0.08635 2.23734,-0.14134c0.55423,-0.02715 1.62967,-0.06841 2.14133,-0.10933c1.3925,-0.11139 2.19061,-0.24438 3.22267,-0.52667c0.63304,-0.17314 1.83397,-0.59583 2.46399,-0.78932c0.6739,-0.20699 1.42084,-0.41417 2.73218,-0.70018c0.48804,-0.10645 1.52319,-0.30717 2.05667,-0.42065c1.07974,-0.22966 1.62686,-0.31706 3.13632,-0.80051c0.94293,-0.30199 1.38068,-0.50609 2.25751,-0.85333c0.86716,-0.34341 1.74698,-0.67546 2.668,-0.94c0.92728,-0.26634 1.39661,-0.36403 2.3075,-0.58083c1.27664,-0.30385 2.04153,-0.49641 2.73782,-0.7045c0.96643,-0.28882 1.87201,-0.60001 2.772,-0.90001c0.60001,-0.2 1.49896,-0.50314 2.39984,-0.79984c0.88849,-0.2926 1.45212,-0.51758 2.53351,-0.73349c0.94382,-0.18843 1.68121,-0.19022 2.80966,-0.38817c0.67459,-0.11833 1.39941,-0.29616 2.16599,-0.483c1.19223,-0.29059 1.99017,-0.49356 2.78033,-0.6955c0.77518,-0.1981 1.52893,-0.38748 2.58902,-0.70001c0.97845,-0.28847 1.58386,-0.47682 2.655,-0.89999c0.72028,-0.28456 1.61295,-0.71577 2.5885,-1.10017c0.54092,-0.21313 1.46198,-0.53261 2.15015,-0.78516c1.17319,-0.43054 1.59756,-0.60526 2.51068,-0.94c0.97211,-0.35637 1.47437,-0.55316 3.08398,-1.008c0.55176,-0.15591 1.11523,-0.29121 2.25867,-0.53067c0.57367,-0.12013 1.14902,-0.22711 2.29068,-0.43466c1.11703,-0.20308 2.19885,-0.40041 2.72684,-0.50134c1.03665,-0.19818 1.54663,-0.29924 2.55582,-0.5c1.0015,-0.19923 1.99805,-0.39662 2.96933,-0.59999c0.46985,-0.09837 1.37009,-0.26476 2.53201,-0.60001c0.94165,-0.2717 1.45215,-0.51526 2.66666,-1c0.51746,-0.20653 1.37247,-0.50804 1.995,-0.7c1.35522,-0.41789 2.11392,-0.60756 2.51703,-0.72133c0.87686,-0.24751 1.86655,-0.54153 2.98798,-0.912c0.62012,-0.20486 1.26926,-0.43358 1.944,-0.66751c0.69058,-0.23943 2.08655,-0.71706 2.77869,-0.93666c0.67325,-0.21361 1.94131,-0.57452 2.52466,-0.69833c1.05295,-0.22346 2.00589,-0.3222 2.86801,-0.465c1.2233,-0.20262 1.62415,-0.3246 2.42249,-0.60901c0.82291,-0.29317 1.64261,-0.6703 2.96216,-1.12349c0.4516,-0.15511 1.38977,-0.41685 2.35419,-0.66667c0.48947,-0.12679 1.48517,-0.36797 2.47916,-0.66667c1.00232,-0.30122 1.49298,-0.48051 2.45834,-0.83333c0.47064,-0.17201 1.36661,-0.52786 2.59882,-0.97833c0.73047,-0.26704 1.41144,-0.52589 2.42551,-0.735c1.02991,-0.21239 1.76572,-0.23116 2.49649,-0.28667c1.05182,-0.07991 2.00436,-0.14507 2.95834,-0.52083c0.59482,-0.2343 1.39703,-0.9991 2.39584,-1.3125c0.668,-0.20959 1.56433,-0.20355 2.23999,-0.336c1.17825,-0.23099 2.02823,-0.53383 2.46667,-0.68134c0.87479,-0.29431 1.69525,-0.62233 2.79584,-0.90668c0.86969,-0.2247 1.68134,-0.29691 2.80682,-0.68533c0.67383,-0.23254 1.35019,-0.5748 2.052,-0.85199c1.25021,-0.49377 2.02045,-0.66687 2.81732,-0.70267c0.96619,-0.04341 1.888,-0.00267 2.78799,-0.00267c0.90002,0 1.80002,0 2.70001,0c0.75717,0 1.65717,0 2.40451,0c0.99683,0 1.83148,0 2.76215,0c0.80402,0 1.75201,0 2.49069,0c1.30664,0 1.79465,0 2.81866,0c0.52399,0 1.56598,0 3.02399,0c0.43518,0 1.57068,0 2.19601,0c1.16116,0 1.91864,0 2.96115,0c0.74734,0 1.74152,-0.00053 2.50684,0c0.952,0.00067 1.72913,0.0611 2.66135,0.42534c0.69794,0.27271 1.65366,0.56195 2.57465,0.57466c0.90445,0.01248 1.75955,0.18552 2.62085,0.5c0.97159,0.35475 1.59903,0.41708 2.55066,0.60983c0.936,0.18958 1.68381,0.4469 2.49384,0.7515c0.82761,0.3112 1.6171,0.61725 2.54883,1.11717c0.66782,0.35832 1.54837,1.02837 2.21118,1.42149c0.68646,0.40717 1.46814,1.11725 2.27481,1.47867c0.74066,0.33183 1.55832,0.48593 2.36151,0.82584c0.9556,0.40439 1.76868,0.63814 2.47134,0.9955c0.84961,0.43208 1.43222,1.17123 2.267,1.30133c0.9155,0.14267 1.50113,0.70204 2.19998,1.39867c0.60098,0.59904 1.186,1.19249 2,1.57468c0.88144,0.41386 1.18512,1.17505 1.76666,1.85866c0.56659,0.66602 1.29044,0.93007 2.03201,1.45201c0.78162,0.55011 1.08832,1.2025 1.67999,1.93616c0.52109,0.64612 0.7814,1.52652 1.42133,2.07401c0.75214,0.64349 1.30899,1.21173 2.05719,1.64734c0.73013,0.42509 1.69366,0.358 2.34283,0.7045c0.84937,0.45335 1.79999,0.3504 2.69998,0.35266c0.89551,0.00226 1.49374,0.474 1.884,1.2c0.45947,0.8548 0.71533,1.60001 0.716,2.5c0.00067,0.90001 0,1.8 0,2.7c0,0.90001 0.20218,1.91988 -0.33334,2.60001c-0.52588,0.66791 -1.52829,0.96544 -2.14581,1.5c-0.65286,0.56516 -1.26434,1.22046 -2.00351,1.7c-0.64459,0.41817 -1.27045,1.21828 -1.96033,1.90001c-0.51212,0.50609 -1.55957,0.89494 -2.1615,1.2045c-0.63425,0.32619 -1.56653,0.85522 -2.35266,1.35266c-0.56686,0.35869 -1.4433,0.9455 -2.3425,1.5425c-0.59076,0.39221 -1.13547,0.79898 -1.92969,1.22968c-0.94034,0.50992 -1.75076,0.61121 -2.77148,0.92783c-0.72232,0.22406 -1.49112,0.90526 -2.16583,1.3575c-0.74808,0.50142 -1.82376,0.48793 -2.45868,0.89601c-0.87701,0.56369 -1.39206,0.89615 -2.37466,1.38933c-0.78662,0.39481 -1.5098,0.73137 -2.37466,0.97467c-0.94189,0.26495 -1.62384,0.6001 -2.62534,0.85866c-0.77643,0.20045 -1.54349,0.18953 -2.52084,0.6875c-0.84045,0.42822 -1.4845,0.77917 -2.22849,1.07918l-0.91733,0.39999l-0.79169,0.47917" id="svg_2" stroke-width="2" stroke="#000" fill="none"/>
  <polyline timestamps="9640,9792" startTime="1452584589536" id="svg_3" points="45,227 43.916,225.2853333333333 " stroke-linecap="round" stroke-width="2" stroke="#000" fill="none"/>
  <path t="10384,10488,10504,10504,10513,10513,10528,10528,10546,10546,10562,10562,10562,10578,10579,10579,10579,10595,10595,10595,10595,10596,10612,10612,10612,10613,10628,10628,10629,10645,10645,10646,10662,10662,10663,10663,10678,10678,10679,10696,10696,10696,10696,10712,10712,10713,10713,10713,10713,10728,10729,10729,10729,10729,10745,10746,10746,10746,10762,10762,10763,10763,10779,10779,10779,10795,10795,10796,10796,10813,10813,10813,10829,10829,10829,10845,10846,10846,10862,10863,10878,10879,10879,10879,10896,10896,10913,10913,10913,10929,10929,10929,10945,10946,10962,10963,10963,10979,10979,10979,10995,10996,10996,11012,11013,11013,11029,11029,11029,11045,11046,11046,11046,11062,11063,11063,11063,11063,11078,11079,11079,11079,11096,11096,11096,11096,11113,11113,11113,11113,11128,11129,11129,11145,11146,11146,11178,11179,11179,11179,11195,11196,11196,11196,11196,11196,11212,11213,11229,11229,11246,11246,11246,11262,11263,11263,11263,11263,11279,11279,11279,11296,11296,11296,11296,11312,11313,11328,11329,11346,11346,11346,11362,11363,11378,11379,11400,11400,11416,11416,11429,11429,11446,11463,11463,11463,11479,11479,11479,11496,11496,11496,11513,11513,11552,11552,11664,11664,11671,11680,11697,11714,11714,11730,11730,11730,11747,11747,11764,11764,11764,11780,11780,11797,11797,11797,11814,11814,11830,11830,11847,11847,11864,11864,11880,11880,11897,11928,11946,11962,11979,11979,11995,11996,12012,12029,12045,12063,12064,12079,12080,12096,12113,12113,12129,12129,12146,12146,12163,12163,12163,12179,12179,12179,12195,12196,12213,12213,12228,12246,12246" d="m31,223c1.82533,0 2.83333,-0.00174 3.62533,0c1.02734,0.00226 1.77424,-0.06863 2.622,0.35716c0.69371,0.34842 1.38794,1.0069 2.21433,1.28568c0.93657,0.31593 1.78183,0.29829 2.64283,0.467c0.90575,0.17746 1.80193,0.59621 2.41633,0.911c0.63837,0.32707 1.63871,0.83145 2.3645,1.09384c0.74387,0.26894 1.52405,0.4796 2.316,0.68399c1.19644,0.30879 1.99152,0.49438 2.757,0.70134c1.07368,0.29027 2.00397,0.58694 2.78033,0.89999c0.71443,0.28807 1.68018,0.70734 2.49733,1c0.57285,0.20517 1.764,0.60001 2.664,0.90001c0.6,0.2 1.5,0.5 2.4,0.8c0.9,0.29999 1.50014,0.49959 2.7,0.89999c0.60274,0.20114 1.54321,0.51648 2.21433,0.75717c1.12163,0.40225 1.95592,0.72792 2.4,0.89549c0.92648,0.34961 1.40253,0.53513 2.38834,0.86334c0.993,0.33061 1.99181,0.6093 2.976,0.83733c0.47836,0.11082 1.40295,0.31375 2.688,0.48c0.76066,0.0984 1.46098,0.1445 2.42434,0.16217c1.20881,0.02219 1.8129,-0.02831 2.709,0.07651c0.60394,0.07063 1.80688,0.48358 2.39999,0.78932c0.91106,0.46964 1.7905,0.99335 2.4,1.252c0.88727,0.37654 1.79375,0.6387 2.69984,0.76517c0.88502,0.12354 1.74303,0.11153 2.77883,0.12167c0.69604,0.00682 1.61205,0.05394 2.60533,0.28383c0.82236,0.19034 1.62519,0.46974 2.632,0.632c0.68036,0.10965 1.8536,0.23866 2.63667,0.43666c0.54952,0.13895 1.35243,0.43369 2.59467,0.59018c0.67426,0.08495 1.61951,0.04436 2.40533,0.06166c0.8224,0.01811 1.88985,0.13116 2.81133,0.42084c0.63858,0.20074 1.63506,0.52184 2.472,0.564c0.92954,0.04683 1.71873,-0.01953 2.53867,0.04666c1.06325,0.08583 1.99147,0.41733 2.678,0.61134c0.95837,0.27084 1.77576,0.29965 2.59467,0.40533c1.03644,0.13376 1.71231,0.42471 2.63667,0.66333c0.98845,0.25516 1.83669,0.27019 2.4205,0.2795c1.19569,0.01906 2.11732,0.0049 2.7675,0.0405c0.69936,0.0383 1.8715,0.181 2.73783,0.31667c0.91173,0.14278 1.37338,0.23672 2.3075,0.36334c1.35828,0.18411 2.2211,0.22998 3.041,0.284c0.78009,0.05139 1.87906,0.14529 2.55768,0.28534c0.99091,0.20448 1.63477,0.4257 2.65067,0.71466c0.71469,0.20328 1.80984,0.49113 2.5235,0.64284c0.97316,0.20686 1.79898,0.32402 2.758,0.35266c0.9729,0.02905 1.78992,-0.01442 2.65634,0.06166c0.89871,0.07892 1.80952,0.29791 2.45799,0.46367c0.70959,0.18138 1.93605,0.48624 2.88684,0.67784c0.49893,0.10054 1.50862,0.28267 2.00266,0.36533c0.92467,0.15471 2.32033,0.38319 3.13068,0.42534c0.90283,0.04697 1.66403,0.00328 2.83899,0.01083c0.82506,0.00531 1.42981,-0.00598 2.74501,0.1665c0.72069,0.09451 1.45805,0.26178 2.20799,0.40799c0.74074,0.14442 1.80316,0.31317 2.8,0.40001c0.65018,0.05664 1.99387,0.18114 2.70667,0.30933c0.72473,0.13033 1.41508,0.3215 2.61867,0.54933c0.79906,0.15125 1.8215,0.16667 2.52083,0.16667c0.97917,0 1.77917,0 2.57918,0c1,0 1.79999,0 2.79999,0c0.8,0 1.8,0 2.60001,0c1,0 1.78934,0 2.83333,0c0.86217,0 1.70834,0 2.7095,0c0.71851,0 1.509,0 2.53583,0c0.92134,0 1.60542,-0.01128 2.60535,0.00133c0.81616,0.0103 1.64627,0.02228 2.63066,0.28267c0.89105,0.2357 1.88087,0.63657 2.66451,0.69518c0.99677,0.07455 1.81949,0.02083 2.72083,0.02083c0.90001,0 1.71085,-0.01825 2.62151,0.00017c0.88969,0.01801 1.88065,0.21495 2.4785,0.42517c0.80298,0.28235 1.80334,0.54182 2.65717,0.57016c0.96365,0.03198 1.76816,0.0045 2.59016,0.0045c1.03117,0 1.93184,0 2.95267,0c0.8,0 1.60001,0 2.60001,0c0.79999,0 1.79999,0 2.59999,0c0.99983,0 1.77917,0 2.77867,0c0.774,0 1.674,0 2.53734,0c0.96317,0 1.784,0 2.68399,0c0.90001,0 1.8,0 2.55717,0c0.89549,0 1.75883,0 2.722,0c0.92082,0 1.82533,0 2.84216,0c0.67867,0 1.65717,0 2.47733,0c0.95851,0 1.85851,0 2.60583,0c0.99417,0 1.75951,0 2.84734,0c0.7175,0 1.7625,0 2.5695,0c0.58133,0 1.77733,0 2.65784,0c0.83549,0 1.83417,0 2.67416,0c0.96266,0 1.73067,0 2.67201,0l1.008,0l0.75598,0" id="svg_4" stroke-width="2" stroke="#000" fill="none"/>
  <path t="13872,13951,13967,13968,13976,13976,13984,13999,13999,14013,14071,14072,14311,14320,14329,14329,14346,14346,14346,14363,14363,14363,14363,14379,14379,14379,14379,14396,14396,14396,14413,14413,14413,14413,14413,14429,14429,14429,14446,14446,14446,14462,14462,14462,14462,14479,14479,14479,14479,14479,14496,14496,14496,14496,14496,14496,14496,14512,14512,14512,14512,14512,14512,14512,14529,14529,14529,14529,14529,14529,14546,14546,14546,14546,14562,14579,14579,14596,14596,14596,14612,14612,14612,14629,14629,14629,14646,14646,14646,14646,14662,14662,14679,14679,14679,14696,14696,14696,14696,14712,14712,14712,14712,14729,14729,14746,14746,14746,14762,14762,14762,14762,14779,14779,14779,14779,14795,14796,14796,14796,14796,14811,14812,14812,14812,14829,14829,14829,14829,14846,14846,14846,14862,14862,14862,14879,14879,14879,14895,14896,14896,14896,14911,14912,14912,14912,14928,14929,14929,14929,14929,14946,14946,14946,14946,14962,14962,14962,14962,14979,14979,14979,14979,14979,14996,14996,15012,15012,15029,15029,15029,15046,15062,15062,15062,15079,15079,15079,15079,15096,15096,15112,15112,15112,15129,15129,15129,15145,15146,15146,15179,15179,15179,15179,15195,15196,15196,15196,15196,15196,15196,15196,15212,15212,15212,15212,15212,15212,15212,15229,15229,15229,15229,15245,15262,15262,15279,15279,15279,15296,15296,15312,15312,15312,15312,15329,15329,15346,15346,15362,15379,15379,15396,15396,15412,15429,15429,15445,15446,15462,15479,15479,15496,15496" d="m35,225c1.6,0.64667 2.09413,1.32483 2.5,2c0.59132,0.98367 1.02425,1.61127 1.48533,2.39999c0.422,0.72186 1.31109,1.06598 1.84533,1.8c0.57737,0.79327 0.78004,1.51628 1.19467,2.40001c0.37792,0.80551 1.07651,1.27237 1.94533,1.48399c0.80277,0.19554 1.59081,0.44023 2.1955,0.6205c1.35291,0.40331 2.08921,0.59085 2.83383,0.81633c0.75018,0.22716 1.84037,0.63112 2.51333,0.96184c0.64707,0.31799 1.49427,0.88303 2.5655,1.27484c0.69022,0.25246 1.46222,0.33969 2.564,0.90649c0.68887,0.35439 1.37511,0.84076 1.7425,1.06c0.72642,0.43349 2.12202,1.04803 2.768,1.17867c0.87838,0.17763 1.93227,0.2977 2.632,0.53334c0.73225,0.2466 1.85558,0.67113 2.529,0.864c0.72517,0.20769 1.49452,0.40059 2.68567,0.7c0.80257,0.20174 1.62228,0.40707 2.472,0.636c0.44284,0.11931 1.86148,0.53018 2.371,0.68517c1.07165,0.32597 1.62732,0.49942 2.19866,0.658c1.16405,0.32309 1.75459,0.48679 2.95834,0.6875c1.19466,0.1992 1.79961,0.22871 2.4,0.27199c1.19929,0.08644 1.80036,0.10367 2.4,0.14401c1.80077,0.12114 2.3964,0.19791 2.9865,0.26999c1.15183,0.14069 1.70432,0.23109 2.7575,0.36334c1.38971,0.1745 2.17503,0.23705 2.85184,0.26317c0.82911,0.03201 1.94289,0.01074 2.77083,0.02083c0.85436,0.01042 1.83622,0.15781 2.644,0.42534c0.6489,0.2149 1.60956,0.46307 2.41467,0.54933c0.82099,0.08797 1.86142,0.22296 2.7955,0.54616c0.75539,0.26137 1.61848,0.59076 2.2845,0.77467c1.03909,0.28693 1.72184,0.45029 2.924,0.6205c0.72658,0.10287 1.77699,0.23154 2.37967,0.44116c0.91586,0.31856 1.71848,0.66295 2.70083,0.93834c0.70708,0.19823 1.43632,0.38301 2.52351,0.53783c1.00085,0.14252 1.62485,0.15446 2.48,0.16534c1.00126,0.01274 1.89125,-0.03221 2.887,0.22266c0.8586,0.21977 1.56382,0.53465 2.44267,0.65733c1.02354,0.14287 1.77964,0.13135 2.55967,0.20534c1.1998,0.11382 1.99733,0.26866 2.79733,0.416c0.8,0.14734 1.99886,0.34525 2.8,0.416c0.79904,0.07057 1.60135,0.09303 2.39999,0.168c1.20238,0.11285 1.99585,0.2668 2.77917,0.416c0.76401,0.14552 1.85226,0.35109 2.53549,0.41467c0.96251,0.08957 1.58084,0.08307 2.78517,0.08533c0.8895,0.00165 1.46419,-0.00607 2.53349,0c0.94139,0.00534 1.62793,0.01462 2.85201,0.284c0.55522,0.12219 1.41107,0.41013 2.61484,0.59467c0.6012,0.09216 1.5372,0.13306 2.18517,0.20535c1.03882,0.11591 2.1539,0.35049 2.92532,0.56265c0.3956,0.1088 1.59348,0.50977 2.38934,0.83734c0.80431,0.33105 1.59406,0.7049 2.39999,1.03198c1.19144,0.48355 1.5938,0.61401 2.38934,0.83734c0.77028,0.21625 2.24234,0.4953 2.92799,0.56134c0.66673,0.06421 1.6925,0.08307 2.81599,0.08533c0.832,0.00165 1.696,0 2.125,0c0.82201,0 2.15584,-0.00104 2.97917,0c1.04784,0.00134 1.82634,-0.047 2.76233,0.44266c0.63527,0.33234 1.2327,1.16376 2.052,1.44302c1.02937,0.35086 1.7625,0.11432 2.5695,0.11432c1.17867,0 1.77733,0 2.65784,0c0.83549,0 1.83682,0 2.74615,0c0.94135,0 1.72734,0 2.54935,0c1.05865,0 2.00316,-0.02301 2.67799,0.05716c0.9758,0.11591 1.7859,0.37064 2.65184,0.64734c0.89825,0.28702 1.81305,0.61041 2.49966,0.77466c0.7767,0.18579 2.22876,0.35947 2.80299,0.39951c0.61647,0.043 1.26959,0.07059 2.65533,0.12134c0.7188,0.02634 1.44591,0.04733 2.17349,0.08401c1.43124,0.07214 2.12129,0.12985 2.78934,0.20132c1.27231,0.13614 1.87149,0.2294 2.44534,0.32532c1.07263,0.17929 2.46655,0.48108 3.24883,0.68484c0.67819,0.17667 1.48967,0.50375 2.47067,0.64734c0.96786,0.14166 1.83067,0.05063 2.80983,0.05716c0.80006,0.00534 1.61269,0.03998 2.40266,0.28534c0.88644,0.27533 1.92795,0.72354 2.564,0.91333c0.67061,0.20007 1.66296,0.48441 2.76901,0.67984c0.71851,0.12695 1.74832,0.12149 2.439,0.12149c0.94,0 1.92552,-0.00446 2.71066,0c0.94005,0.00534 1.63765,0.06915 2.61467,0.5c0.82747,0.3649 1.67462,0.49466 2.616,0.5c0.76799,0.00436 1.70934,0.01068 2.71733,0.16666l0.66667,0.33334l0.82133,0.37851l0.85333,0.11081" id="svg_5" stroke-width="2" stroke="#000" fill="none"/>
  <path t="17575,17743,17751,17775,17799,17831,17839,17839,17855,17863,17879,17895,17911,17911,17928,17945,17945,17961,17978,17997,17997,18015,18039,18071,18119,18167,18223,18239,18239,18271,18311,18311,18343,18359,18359,18383,18391,18415,18471,18495,18511,18519,18535,18535,18551,18561,18583,18607,18631,18631,18639,18639,18655,18671,18695,18695,18719,18743,18743,18759,18775,18791,18815,18823,18847,18847,18879,18887,18903,18912,18929,18946,18946,18962,18962,18983,18983,18999,19015,19015,19029,19046,19046,19062,19079,19096,19112,19112,19129,19129,19146,19162,19183,19183,19215,19247,19295,19359,19399" d="m261,251c0.05716,-1.7 0.54022,-2.44853 1.2955,-2.94733c0.69818,-0.46109 1.03967,-1.37354 1.7045,-2.05267c0.48447,-0.49487 1.32651,-0.77687 2.19867,-1.00133c0.8009,-0.20612 1.3428,-0.98825 2.28534,-0.99867c0.69061,-0.00763 1.82483,0.17331 2.616,-0.2215c0.68921,-0.34393 1.20444,-1.34654 2,-1.657c0.84604,-0.33014 1.69998,-0.12151 2.60001,-0.12151c0.89999,0 1.79999,0 2.69998,0c0.89999,0 1.86932,-0.18889 2.70001,0.2215c0.69058,0.34116 1.29999,1.1785 1.89999,1.7785c0.60001,0.60001 1.42618,1.21675 1.83334,2c0.33835,0.65086 0.70874,1.44569 1.46216,1.94733c0.68924,0.45892 0.7045,1.45267 0.7045,2.35268c0,0.89999 0,1.8 0,2.7c0,0.8 0,1.7 0,2.60001c0,0.89999 0,1.7045 0,2.72131c0,0.67868 0.17865,1.69614 -0.08533,2.47736c-0.30057,0.88953 -0.75851,1.66537 -1.20001,2.40134c-0.40707,0.67859 -1.21466,1.29999 -1.91467,2c-0.5,0.5 -1.23267,1.17303 -1.71597,1.99866c-0.40701,0.69528 -1.28403,0.80133 -2.18402,0.80133c-0.89999,0 -1.69998,0 -2.60001,0c-0.89999,0 -1.79999,0 -2.69998,0c-0.90451,0 -1.76666,0 -2.60001,0c-0.97867,0 -1.75372,0.03976 -2.65268,-0.00449c-0.86603,-0.04263 -1.6705,-0.54953 -2.66849,-0.87418c-0.63626,-0.207 -1.4299,-0.5592 -1.96417,-1.32001c-0.41937,-0.5972 -1.41565,-0.85229 -2.21466,-1.30133c-0.80096,-0.45013 -1.52689,-0.81458 -2,-1.52084c-0.53094,-0.7926 -1.17365,-1.37564 -1.44284,-2.27914c-0.25754,-0.86438 -0.358,-1.75085 -0.7045,-2.40002c-0.45334,-0.84937 -0.35266,-1.79999 -0.35266,-2.69998l0,-0.90001l0,-0.90134" id="svg_6" stroke-width="2" stroke="#000" fill="none"/>
  <path t="29063,29239,29255,29255,29263,29279,29295,29312,29312,29329,29351,29407,29455,29455,29463,29503,29559,29575,29575,29599,29623,29631,29663,29703,29703,29751,29767,29807,29807,29823,29863,29895,29895,29927,29967,29991,29991,30015,30039,30039,30055,30063,30095,30207" d="m275,241c-1.75717,0.05716 -2.64111,0.38155 -3.34732,0.64734c-0.88257,0.33217 -1.85269,0.35266 -2.75269,0.35266c-0.89999,0 -1.6601,-0.06801 -2.54816,0.0045c-1.02789,0.08394 -1.50613,0.91176 -2.35184,0.9955c-0.79608,0.07883 -1.70096,0.05545 -2.5,0.5c-0.80093,0.44562 -1.53125,0.8369 -2.29999,1.216c-0.84525,0.41682 -1.81967,0.11667 -2.70001,0.30482c-0.84866,0.18138 -1.42712,1.06848 -2.10001,1.54317c-0.7348,0.51836 -1.5118,0.87834 -2.39999,1.26933c-0.65764,0.28951 -1.66754,0.08936 -2.39999,0.60268c-0.79002,0.55367 -1.3,1.20683 -2.10001,1.564c-0.8,0.35716 -1.49904,1.00096 -2.10001,1.60001c-0.69887,0.69662 -1.42628,1.16245 -2.09999,1.45267c-0.8418,0.36263 -1.5955,0.89465 -2.27467,1.37267l-0.636,0.564" id="svg_8" stroke-width="2" stroke="#000" fill="none"/>
  <path t="31047,31247,31263,31279,31303,31319,31327,31343,31359,31359,31375,31375,31383,31399,31399,31411,31427,31427,31447,31471,31479,31511,31559,31559,31583,31583,31615,31631,31647,31671,31695,31703,31759,31783,31783,31823,31879,31919,31951,32447,32479,32479,32519,32559,32575,32679,32799" d="m280,270c-1.70001,0 -2.60001,0 -3.5,0c-0.89999,0 -1.79999,0 -2.70001,0c-0.89999,0 -1.79999,0 -2.68533,0c-0.94,0 -1.64023,-0.11771 -2.61465,0.02084c-1.00845,0.1434 -1.6395,0.67416 -2.61465,0.89383c-0.86771,0.19547 -1.68533,0.08533 -2.58536,0.08533c-0.89999,0 -1.80643,-0.09793 -2.71066,0.01068c-0.92801,0.11145 -1.55319,0.60086 -2.56781,0.86783c-0.80167,0.21094 -1.72153,0.12149 -2.62152,0.12149c-0.89999,0 -1.79999,0 -2.7,0c-0.89999,0 -1.8,0 -2.7,0c-0.8,0 -1.7,0 -2.60001,0c-0.89999,0 -1.89589,0.18311 -2.59866,-0.28534c-0.7953,-0.53012 -1.02684,-1.25659 -1.67999,-1.936c-0.55737,-0.57977 -1.08534,-1.21466 -1.12584,-2.07416l-0.4315,-0.66849" id="svg_9" stroke-width="2" stroke="#000" fill="none"/>
  <path t="44070,44230,44238,44254,44270,44270,44295,44327,44327,44335,44367,44455,44479,44479,44503,44527,44543,44567,44575,44575,44583,44615,44631,44631,44639,44647,44719,44735,44759,44799,45175,45183,45183,45199,46247,46262,46272,46278,46279,46598,46607,46614,46614,46628,46645,46661,46661,46661,46678,46678,46678,46710,46711,46742,46758,46798,46838,46862,46863,47118,47134,47145,47145,47145,47161,47161" d="m111,252c-1.7,0.05716 -2.39156,0.58162 -2.95184,1.2955c-0.54046,0.68864 -1.44249,0.6523 -2.291,1.05716c-0.80943,0.38622 -1.68777,0.25375 -2.47183,0.73267c-0.80328,0.49065 -1.38533,0.91467 -2.28533,0.91467c-0.8,0 -1.70006,0.01041 -2.6,0c-0.90018,-0.01042 -1.60946,-0.52718 -2.5,-0.87849c-0.66069,-0.26064 -1.66238,-0.08473 -2.4,-0.64233c-0.7773,-0.5876 -1.26833,-1.33031 -2.2,-1.47467c-0.8894,-0.13782 -1.8,-0.0045 -2.7,-0.0045c-0.9,0 -1.8,0 -2.7,0c-0.9,0 -1.72549,-0.16756 -2.5,0.036c-0.85584,0.22493 -1.35728,1.16098 -1.4,2.06401c-0.04253,0.89899 -0.20448,1.73697 0.05717,2.60001c0.26826,0.88489 1.05627,1.62109 1.74284,2.01465c0.73383,0.42062 1.74168,0.2782 2.743,0.28549c0.72906,0.00531 1.57135,0.0199 2.457,0.1665c0.89799,0.14865 1.71629,0.45502 2.66666,0.66669c0.90311,0.20114 1.73334,0.16666 2.63334,0.16666c0.89999,0 1.8,0 2.7,0c0.8,0 1.89368,0.13953 1.95834,1.04166c0.06908,0.96399 -0.405,1.74768 -0.72,2.30118l-0.721,0.77182l-0.656,0.47467" id="svg_11" stroke-width="2" stroke="#000" fill="none"/>
  <path t="47711,47766,47775,47782,47794,47811,47811,47828,47828,47828,47844,47844,47844,47861,47861,47861,47878,47878,47878,47878,47878,47894,47894,47894,47894,47911,47911,47911,47911,47928,47928,47928,47928,47928,47944,47944,47944,47961,47961,47978,47978,47978,47994,47994,47994,48011,48011,48028,48028,48044,48044,48062,48062,48078,48094,48111,48128,48128,48144,48161,48161,48178,48178,48178,48198,48246,48255,48270,48271,48286,48294,48311,48335,48358,48374,48374,48390,48398,48494,48798,48806,48828,48828,48844,48870,48870,48870,48886,48894,48894,48911,48928,48928,48944,48944,48961,48961,48978,48978,48994,49011,49011,49028,49029,49044,49044,49061,49061,49078,49078,49094,49094,49111,49111,49128,49144,49144,49144,49161,49178,49193,49194,49194,49211,49211,49228,49228,49243,49244,49261,49278,49278,49294,49294,49311,49328,49328,49343,49344,49366,49378,49378,49398,49430,49430,49454,49454,49462,49479,49494,49511,49511,49527,49558,49606,49606,49606,49614,49628,49644,49661,49686,49694,49718,49750,49774,50302,50310,50334,50358,50374,50382,50382,50398,50414,50427,50428,50443,50462,50502,50918,50950,50982,50991,51006,51150,51190,51214,51246,51255,51262,51294,51614,51622,51638,51646,51660,51678,51678,51694,51726,51726,51750,51790,51830,51862,51910,51910,52206,52222,52398,52414,52447,52479,52527,52527,52583,52631,52647,52663,52663,52671,52719,52727,52745,52762,52779,52779,52779,52795,52795,52795,52812,52812,52829,52845,52845,52862,52862,52991,52991,52999,53012,53029,53029,53045,53045,53045,53062,53062,53062,53062,53079,53079,53079,53079,53079,53095,53095,53095,53095,53095,53112,53112,53112,53129,53129,53145,53162,53162,53162,53179,53179,53179,53195,53195,53195,53212,53212,53212,53229,53229,53229,53245,53245,53245,53262,53262,53279,53295,53295,53295,53312,53312,53329,53329,53951,53983,54007,54031,54045,54045,54063,54111,54151,54167,54191,54191,54207,54207,54287,54415,54439,54455,54479,54479,54511,54623,54639,54671,54719,54719,54743,54743,54759,54783,54815,54823,54879,54991,55015,55119,55119,55199,55222,55422,55486,55534" d="m96,267c-1.7,0.99551 -2.60001,1.00528 -3.5,1c-0.91071,-0.00534 -1.82931,-0.20389 -2.52084,-0.52084c-0.99098,-0.45422 -1.57914,-0.77917 -2.37917,-1.17917c-0.80014,-0.40002 -1.6144,-0.81467 -2.28533,-1.09998c-0.99229,-0.42197 -1.85417,-0.70685 -2.47633,-0.90002c-1.00164,-0.311 -1.72116,-0.50882 -2.47433,-0.68933c-0.77224,-0.18509 -1.56126,-0.35846 -2.76383,-0.48917c-0.79359,-0.08627 -1.96413,-0.1149 -2.71484,-0.12015c-1.06414,-0.00745 -1.74029,0.02805 -2.74667,-0.07333c-0.71124,-0.07166 -1.884,-0.36209 -2.744,-0.63333c-0.44676,-0.1409 -1.33714,-0.4664 -2.22667,-0.72668c-1.21606,-0.35583 -1.94176,-0.48975 -2.87466,-0.54666c-0.95846,-0.05847 -1.79335,-0.01654 -2.62667,-0.02133c-0.92805,-0.00534 -1.73141,0.00949 -2.74517,-0.22134c-0.69735,-0.15881 -1.51021,-0.54303 -2.5215,-0.72598c-0.79402,-0.14365 -1.7978,-0.33896 -2.564,-0.62735c-0.81375,-0.30627 -1.58866,-0.42307 -2.48867,-0.42532c-0.86333,-0.00217 -1.78188,-0.15643 -2.4,-0.64734c-0.61854,-0.49124 -1.60005,-0.34351 -2.46333,-0.35266c-0.98417,-0.01044 -1.8133,-0.20389 -2.50483,-0.52084c-0.99099,-0.45422 -1.74806,-0.91858 -2.49384,-1.19382c-0.83041,-0.30649 -1.79187,-0.17838 -2.68533,-0.28667c-0.91977,-0.11148 -1.45409,-0.80855 -2.4,-0.98801c-0.88429,-0.16777 -1.8,-0.01001 -2.7,-0.01067c-0.9,-0.00067 -1.76007,-0.28407 -2.4,-0.64734c-0.76032,-0.43161 -1.61793,-0.9418 -2.4,-1.23116c-0.85174,-0.31512 -2.01779,0.09521 -1.73333,0.87849c0.2861,0.78781 1.40541,0.93539 2.15467,1.44284c0.73809,0.49989 1.15432,1.11758 1.9215,1.7955c0.72161,0.63766 1.57556,0.81668 2.278,1.2825c0.82343,0.54608 1.5102,0.93073 2.3125,1.47916c0.67428,0.46091 1.33689,1.23691 1.92384,1.70001c0.69173,0.54578 1.59212,0.9458 2.1375,1.59998c0.621,0.7449 1.14997,1.16324 1.93866,1.70001c0.68892,0.46887 1.48958,1.09735 2.16667,1.5c0.83529,0.49673 1.45101,1.10168 2.3215,1.37866c0.85876,0.27325 1.88241,0.33154 2.65767,0.62134c0.85886,0.32104 1.64975,0.45422 2.4315,0.936c0.80296,0.49484 1.39109,1.00903 2.10533,1.27866c1.04538,0.39465 1.75333,0.6926 2.65067,1.28534c0.6461,0.42679 1.42472,0.75931 2.23333,0.91599c0.79269,0.15359 1.82347,0.25003 2.57917,0.60486c0.88652,0.41626 1.44505,1.07227 2.32533,1.42648c0.82532,0.33209 1.67541,0.60809 2.52884,0.88602c0.84591,0.27545 1.54823,0.64392 2.33333,1.16666c0.63689,0.42404 1.69234,0.75143 2.42267,1.02533c0.85088,0.31912 1.43069,1.17877 2.11066,1.61749c0.7522,0.48532 1.64595,0.52869 2.47467,0.96783c0.83146,0.44058 1.35015,1.14337 2.32533,1.3685c0.77976,0.18002 1.75687,-0.14191 2.6,0.24219c0.78002,0.35535 1.53828,0.73584 2.31067,1.21466c0.80166,0.49695 1.39234,1.00574 2.10533,1.27866c1.0113,0.38712 1.47829,1.10342 2.28533,1.284c0.87698,0.19623 1.79868,-0.00406 2.69867,0.00134c0.88938,0.00534 1.37392,0.72559 2.11066,0.98932c0.83736,0.29977 1.78934,0.01068 2.68934,0.01068c0.89999,0 1.8,0 2.7,0c0.8,0 1.7,0.00073 2.636,0c0.84666,-0.00067 1.71716,-0.1846 2.41216,-0.64734c0.69176,-0.4606 1.65183,-0.35266 2.55183,-0.35266c0.9,0 1.79797,0.00009 2.4,0.5c0.61974,0.51459 1.41882,0.91647 1.916,1.69867c0.46492,0.73145 0.89049,1.47269 1.60484,1.78049c0.89945,0.38754 1.8685,0.03152 2.47916,0.52084c0.61066,0.48932 1.51299,0.35794 2.4,0.51068c0.83313,0.14346 1.5874,0.90424 2.4,0.98798c0.8316,0.08569 1.85266,0.00134 2.54733,0.00134c1.01666,0 1.95267,0 2.85266,0c0.9,0 1.8,0 2.60001,0c0.89999,0 1.81919,-0.16519 2.7,0.02084c0.8474,0.17899 1.79538,0.58109 2.37866,1.20065c0.56898,0.60437 0.778,1.57129 1.62134,1.75766c0.87933,0.19434 1.7188,0.52136 2.5,0.85419c0.75154,0.32019 1.7,0.16666 2.60001,0.16666c0.89999,0 1.79999,0 2.7045,0c0.86217,0 1.73717,0 2.38216,0c1.26601,0 1.81334,0 2.62933,0c1.22234,0 2.02234,0 2.93134,0c0.91934,0 1.75267,0 2.73134,0c0.774,0 1.674,0 2.53734,0c0.96317,0 1.88399,0 2.7975,0c0.74249,0 1.74117,0 2.38382,0c1.05901,0 2.136,0 2.81868,0c0.98399,0 1.63666,0 2.65067,0c1.09949,0 1.89583,0 2.31599,0c0.88933,0 2.3595,0 2.88133,0c1.05467,0 1.5735,0 2.55917,0c1.2435,0 2.11238,0.10257 2.95549,-0.08533c0.9818,-0.21878 1.61392,-0.73648 2.50667,-0.87866c0.93687,-0.1492 1.87601,-0.03589 2.6665,-0.03601c1.02682,-0.00018 1.74417,0.07556 2.63217,-0.17065c1.03693,-0.28751 1.52553,-0.7106 2.36333,-1.12402c1.0136,-0.50015 1.73064,-0.62451 2.63667,-0.78799c1.00412,-0.18118 1.54834,-0.3327 2.36333,-0.62183c1.0408,-0.36923 1.91705,-0.81802 2.55133,-1.01016c0.9787,-0.29648 1.92856,-0.15759 2.78667,-0.30667c0.98329,-0.17081 1.61461,-0.69315 2.364,-1.12799c0.91092,-0.52856 1.58833,-0.79407 2.57201,-0.85083c0.85266,-0.04919 1.7756,-1.01807 2.51199,-0.6665c0.79643,0.38025 0.16667,1.76666 0.16667,2.66666c0,0.79999 -0.01041,1.70007 0,2.60001c0.01042,0.90018 0.34242,1.71381 1,2.39999c0.48924,0.51053 1.11913,1.31134 1.8,1.71466c0.82715,0.48996 1.62236,0.97153 2.5,1.22818c0.86555,0.25311 1.83405,0.20367 2.5,-0.02817c0.88567,-0.30835 1.85312,-0.70071 2.17917,-1.43552c0.36093,-0.81342 -0.20743,-1.79767 -0.47917,-2.47916c-0.38861,-0.97458 -0.605,-1.78665 -1,-2.5c-0.49051,-0.88583 -0.5,-1.79999 -0.5,-2.70001c0,-0.89999 0.43427,-2.03241 -0.16667,-2.63333c-0.60092,-0.60092 -1.63333,-0.16666 -2.53333,-0.16666c-0.90001,0 -1.8,0 -2.7,0.01068l-0.79868,0.27466" id="svg_12" stroke-width="2" stroke="#000" fill="none"/>
  <path t="56416,56783,56822,56846,56846,56870,56926,57006,57006,57062,57190,57302,57774,57798,57902,57902,58150,58278,58326,58366,58382,58422,58462,58478,58494,58518,58518,58550,58582,58654,58718,58742,58766,58798,58798,58854,59014,59046,59062,59070,59078,59095,59118,59134,59135,59166,59182,59206,59222,59247" d="m213,286c0.05716,1.70001 0.54178,2.48032 1.19867,3.20001c0.53348,0.5845 1.11272,1.18472 1.63466,1.96664c0.47183,0.70685 0.0845,1.78119 0.77734,2.39734c0.65782,0.58502 1.4734,0.85052 2.03667,1.48868c0.52553,0.5954 1.35266,0.94733 2.15266,0.94733c0.89999,0 1.96866,0.05814 2.1955,-0.7045c0.25531,-0.85834 0.0045,-1.7955 0.0045,-2.6955c0,-0.89999 0,-1.80002 0,-2.70001c0,-0.89999 0,-1.69998 0,-2.60001c0,-0.89999 0,-1.79999 0,-2.69998c0,-0.89999 0.20914,-1.87964 -0.2215,-2.69983c-0.33783,-0.64343 -1.21205,-1.05518 -1.83118,-1.54752c-0.64728,-0.51471 -1.64738,-0.36334 -2.54733,-0.35266c-0.87935,0.01044 -1.31946,0.67551 -1.836,1.39999c-0.5601,0.78561 -1.31116,1.25662 -1.8595,1.89999c-0.64207,0.75336 -0.92583,1.57867 -1.6205,1.98401l-0.52,0.69067" id="svg_13" stroke-width="2" stroke="#000" fill="none"/>
  <path t="60110,60254,60270,60270,60278,60278,60295,60358,60358,60374,60374,60390,60390,60398,60411" d="m207,285c1.636,-0.57468 2.49879,-0.84286 3.34734,-1.05267c0.9182,-0.22702 1.36069,-0.86053 2.17349,-1.42648c0.73415,-0.5112 1.6555,-0.46494 2.59517,-0.52219c0.77115,-0.04697 1.70934,-0.42398 2.40001,-0.71466l0.94232,-0.284l0.567,-0.57468" id="svg_14" stroke-width="2" stroke="#000" fill="none"/>
  <path t="61254,61350,61526,61534,61544,61582,61606,61630,61654,61654,61670,61710,61734,61758,61767,61791,61791,61807,61815,61827,61844,61861,61861,61861,61877,61877,61878,61878,61895,61895,61912,61912,61927,61928,61944,61961,61977,61994,61995,62011,62012,62027,62028,62028,62028,62045,62045,62061,62062,62079,62095,62111,62127,62128,62128,62144,62145,62145,62145,62161,62162,62162,62177,62178,62178,62178,62194,62195,62211,62228,62228,62245,62245,62262,62262,62278,62278,62278,62295,62295,62295,62295,62311,62312,62327,62328,62344,62345,62367,62367,62377,62394,62411,62439,62439,62447,62461,62477,62495,62495,62511,62527,62528,62551,62551,62567,62591,62607,62647,62679,62679,62695,62695,62727" d="m223,280c1.7,0.99551 2.60001,1 3.5,1c0.89999,0 1.8,0 2.7,0c0.90001,0 1.8,0 2.60001,0c0.89999,0 1.8192,0.16519 2.7,-0.02084c0.8474,-0.17899 1.59389,-0.91827 2.5,-0.97916c0.7982,-0.05362 1.7,0 2.60001,0c0.89999,0 1.82999,0.03345 2.73332,-0.16666c0.68924,-0.15268 1.47873,-0.45468 2.66667,-0.66669c0.59494,-0.10617 1.48425,-0.12607 2.31467,-0.25067c1.00722,-0.15112 1.80595,-0.60367 2.80133,-0.83066c0.75325,-0.17178 1.70934,-0.08533 2.40001,-0.08533c1.07333,0 1.99695,0.14185 2.88399,-0.01068c0.83441,-0.14346 1.46939,-0.77527 2.45734,-0.96399c0.65427,-0.12497 1.78622,-0.24225 2.448,-0.37799c0.69565,-0.1427 1.72147,-0.39658 2.65152,-0.52585c0.97641,-0.13571 1.8765,-0.12149 2.73865,-0.12149c0.90451,0 1.8045,0 2.72583,0c0.91202,0 1.59302,0 2.39999,0c1.17868,0 2.07919,0.00879 2.67868,-0.02084c0.90121,-0.04456 2.10345,-0.25137 2.70001,-0.41516c0.90567,-0.24869 1.79797,-0.57022 2.6955,-0.8595c0.58237,-0.18771 1.40778,-0.4921 2.64282,-0.64734c0.7955,-0.10001 1.70901,-0.05716 2.62833,-0.05716c0.83334,0 1.8248,0.09412 2.586,-0.05716c0.93887,-0.18655 1.48349,-0.57962 2.66885,-1.04266c0.53119,-0.20749 1.37872,-0.51526 2.57849,-0.73352c0.59457,-0.10815 1.48422,-0.12619 2.31467,-0.25067c1.00854,-0.15118 1.85806,-0.54999 2.68533,-0.74933c0.7778,-0.18741 1.83334,-0.16666 2.62534,-0.16666c1.02734,0 1.72198,0 2.73868,0c0.93597,0 1.88446,0.15353 2.63599,-0.16666c0.78122,-0.33282 1.43796,-0.98288 2.05267,-1.48068c0.61383,-0.49707 1.60001,-0.35266 2.46332,-0.35266c0.98401,0 1.81415,0.09158 2.65866,-0.03601c0.96124,-0.14523 1.59268,-0.81583 2.52536,-0.9595c0.88953,-0.13702 1.83475,0.04843 2.59998,-0.35715c0.8461,-0.44843 1.45718,-0.70001 2.35269,-1l0.69464,-0.29468l1.01669,-0.31665" id="svg_15" stroke-width="2" stroke="#000" fill="none"/>
  <path t="63503,63599,63631,63663,63687,63839,63879,63911,63951,63951,64015,64031,64045,64062,64062,64078,64078,64078,64095,64095,64255,64255,64263,64277,64295,64312,64312,64327,64327,64344,64519,64535,64535,64551,64551,64559,64559,64575,64583,64583,64703,64751,64751,64759,64767,64777,64794,64795,64810,64811,64811,64828,64828,64844,64845,64845,64845,64860,64861,64861,64861,64877,64878,64975,64975,65199,65431,65455,65471,65487,65487,65495,65543,65559,65559,65575,65575,65591,65607,65607,65623,65639,65639,65647,65660,65677,65742,65791,65831,65831,65847,65895,65903,65935,65991,66022,66054,66102,66103,66134,66151,66190,66302,66303,66342,66351,66414,66430,66446,66447,66470,66471,66510,66526,66558,66582,66614,66623,66646,66670,66671,66686" d="m309,270c-0.99551,1.70001 -1.39819,2.70258 -0.96399,3.564c0.35226,0.69888 1.24576,1.10852 1.84265,1.65735c0.64005,0.58853 1.2597,1.16473 1.92133,1.49466c0.84338,0.42056 1.80002,0.284 2.72086,0.284c0.96448,0 1.68982,0 2.67932,0c0.82068,0 1.48517,0 2.48251,0c0.79648,0 1.99963,0.13721 2.77567,-0.02084c0.88651,-0.18057 1.7854,-0.63403 2.4205,-1.20065c0.67267,-0.60013 1.10736,-1.35117 1.9545,-1.61185c0.83847,-0.258 1.89023,-0.01974 2.556,-0.60266c0.69839,-0.61148 0.60999,-1.44934 0.61066,-2.39999c0.00055,-0.76532 0,-1.75949 0,-2.67868c0,-0.85999 -0.18552,-1.83624 0.03601,-2.62399c0.25989,-0.92419 0.96399,-1.297 0.96399,-0.505c0,0.88651 0,1.84369 0,2.74368c0,0.89999 0,1.71432 0,2.66934c0,0.7515 0,1.54797 0,2.54797c0,0.944 0,2.01602 0,2.65201c0,0.69202 0,1.7825 0,2.86401c0,0.67999 0,1.625 0,2.20499c0,1.27634 0,1.94083 0,2.96167c0,0.78934 -0.79599,2.62933 0,2.62933c0.82935,0 0.04779,-1.73062 0,-2.62933c-0.04272,-0.80338 -0.5751,-1.63721 -1.20001,-2.19867c-0.75961,-0.68246 -1.55716,-0.79907 -2.45267,-0.80133c-0.86331,-0.00217 -1.84732,0 -2.66864,0c-0.85333,0 -1.79514,-0.05954 -2.77869,0.00015c-0.70386,0.04272 -1.55869,0.47531 -2.28934,0.97452c-0.67645,0.46216 -1.15384,1.22861 -1.48917,2.12534c-0.31808,0.85065 -0.12149,1.69998 -0.12149,2.60001c0,0.89999 0.14609,1.67566 0.64734,2.40982c0.4567,0.66891 0.74768,1.47543 1.26865,2.17551c0.51941,0.698 0.72321,1.48752 1.48401,2.104c0.74359,0.60254 1.70001,0.61066 2.60001,0.61066c0.79999,0 1.70007,0.01041 2.60001,0c0.90018,-0.01044 1.83939,-0.26022 2.23334,-1c0.37054,-0.6958 0.38602,-1.74445 0.96799,-2.43066c0.56396,-0.66501 1.19333,-1.17993 1.19867,-2.06934c0.0054,-0.89996 0,-1.79999 0,-2.70001c0,-0.89999 0,-1.79999 0,-2.59998l0,-0.90002" id="svg_16" stroke-width="2" stroke="#000" fill="none"/>
  <path t="67247,67326,67327,67342,67342,67358,67358,67367,67383,67394,67410,67430,67454,67494,67574,67575,67623,67638,67670,67670,67718,67718,67742,67774,67783,67806,67934,67943,67966,68014,68014,68054,68070,68094,68134,68143,68143,68174,68214,68254,68286,68334,68382,68382,68438,68534,68534,68550,68574,68598,68607,68638,68654,68718,68774" d="m332,279c0.83334,1 0.34674,1.60751 -0.09982,2.32132c-0.5152,0.82352 -0.79968,1.65436 -0.89883,2.47736c-0.11005,0.91348 -0.81912,1.43341 -1.0015,2.30115c-0.16653,0.79233 -0.97125,1.25589 -0.99985,2.10019c-0.03046,0.89948 -0.18573,1.8425 0.08533,2.59998c0.32245,0.90112 1.25485,1.30582 1.74802,2.20001c0.36575,0.66318 1.16666,1 1.96664,1c0.90002,0 1.80002,0 2.70001,0c0.89999,0 1.81604,0.16769 2.69867,-0.00134c0.75772,-0.14511 1.12747,-1.03531 1.51733,-1.79865c0.38452,-0.7529 0.4411,-1.71573 0.27332,-2.60001c-0.17947,-0.94589 -0.9043,-1.5874 -0.98798,-2.39999c-0.09222,-0.89529 -0.00134,-1.80002 -0.00134,-2.70001c0,-0.89999 0.17194,-1.87552 -0.28534,-2.70001c-0.38382,-0.69202 -1.09747,-1.21759 -1.81467,-1.89981c-0.58633,-0.55774 -1.57001,-1.2233 -2.37915,-0.87933c-0.71585,0.30432 -1.22534,0.97467 -2.16367,1.03632l-0.44119,0.65884l-0.79449,0.50549l-0.12149,0.87851" id="svg_17" stroke-width="2" stroke="#000" fill="none"/>
  <path t="69862,70046,70062,70070,70086,70094,70110,70110,70127,70127,70144,70144,70145,70160,70160,70177,70178,70194,70194,70210,70227,70228,70245,70260,70261,70278,70278,70278,70295,70311,70311,70311,70334,70334,70344,70360,70377,70394,70410,70411,70454,70454,70478" d="m332,269c1.70001,-0.05716 2.42236,-0.68619 3.29999,-0.94284c0.8656,-0.25311 1.84891,0.11285 2.70001,-0.22382c0.70264,-0.27795 1.50037,-0.68893 2.21066,-0.89468c1.01843,-0.29498 1.54404,-0.85742 2.38934,-1.37067c0.763,-0.46329 1.60678,-0.46777 2.64734,-0.92065c0.67215,-0.29254 1.59888,-0.53046 2.26865,-0.73135c1.013,-0.30383 1.49915,-1.12775 2.18402,-1.55881c0.85571,-0.5386 1.79138,-0.6293 2.51065,-0.96783c0.79633,-0.37482 1.55698,-0.83218 2.30402,-1.104c0.98282,-0.3576 2.02896,-0.50333 2.73599,-0.71066c0.74503,-0.21848 1.77527,-0.5307 2.54666,-0.57333c0.90131,-0.0498 1.82254,0.00107 2.60266,-0.42667c0.82291,-0.4512 1.70016,-0.79602 2.35718,-1.22202l0.89551,-0.2955l0.69464,-0.05267l1.01669,-0.01517" id="svg_18" stroke-width="2" stroke="#000" fill="none"/>
  <path t="71166,71342,71358,71398,71438,71470,71470,71494,71494,71654,71670,71686,71710,71710,71750,71790,71814,71830,71838,71854,71870,71886,71886,71910,71934,71958,71958,71966,71977,71994,71994,72010,72030,72030,72044,72070,72086,72086,72094,72110,72111,72134,72158,72158,72166,72167,72182,72206,72238,72254,72254,72262,72262,72278,72295,72702,72702,72702,72734,72742,72750,72750,72766,72777,72822,72854,72886,72886,72910,72950,72950,72974,73006,73046,73046,73078,73086,73102,73118,73142,73166,73182,73206,73246,73262,73286,73295,73318,73342,73366,73366,73382,73422,73550,73550,73830,73846,73846,73854,73870,73878,73894,73911,73928,73944,73961,73978,74006,74054,74054,74086,74086,74086,74110,74118,74142,74158,74174,74182,74182,74206,74238,74238,74286" d="m369,258c0,1.79999 0,2.70001 0,3.60001c0,0.81067 -0.09158,1.73013 0.03601,2.57465c0.14523,0.96124 0.64218,1.63965 0.98932,2.42535c0.36145,0.81812 0.71811,1.67856 1.19617,2.49982c0.3656,0.62808 1.17447,1.09268 1.86252,1.61618c0.61359,0.46683 1.73941,-0.12869 2.55881,0.34116c0.68787,0.39444 1.24384,0.94217 2.18253,0.94284c0.69064,0.00049 1.76398,0 2.6955,0c0.80048,0 1.65381,0 2.59381,0c0.98535,0 1.88535,0 2.68533,0c0.836,0 1.85269,0.00366 2.54733,0c1.01672,-0.00534 1.77997,-0.40887 2.65268,-0.83334c0.65967,-0.32086 1.48032,-0.70844 2.20001,-1.36533c0.5845,-0.53348 1.45667,-0.76688 2.284,-1.08667c0.71207,-0.27527 1.57309,-1.00095 2.21149,-1.35748c0.84567,-0.47229 1.82535,-0.33139 2.60901,-0.70984c0.88889,-0.42926 1.5224,-0.58063 2.52884,-0.64734c0.8822,-0.05847 1.07962,-0.96292 1.72916,-1.47916c0.82831,-0.65836 2.51404,0.31308 2.49884,-0.5195c-0.00476,-0.26132 -1.16135,-0.00134 -2.06134,-0.00134c-0.79999,0 -1.70001,0 -2.60001,0c-0.89999,0 -1.86618,0.13531 -2.60001,-0.28534c-0.68655,-0.39355 -1.29999,-1.21466 -2,-1.91467c-0.5,-0.5 -1.39743,-1.09702 -1.71466,-2c-0.29965,-0.85294 -0.20963,-1.57739 -0.66,-2.39999c-0.42728,-0.78036 -0.40802,-1.71133 -0.92532,-2.39999c-0.46997,-0.62567 -0.5,-1.5 -0.5,-2.39999c0,-0.90001 -0.12402,-1.80861 0.00015,-2.69984c0.11172,-0.80188 0.7901,-1.28214 1.00119,-2.09883c0.20798,-0.80463 0.66806,-1.45691 1.08267,-2.23334c0.41193,-0.77136 1.30829,-1.01221 2.01599,-1.66783c0.59363,-0.54996 1.42093,-0.92229 2.38266,-0.89883c0.80917,0.01973 1.36215,0.72899 1.95334,1.388c0.61893,0.68991 1.4274,0.93672 1.98932,1.58534c0.50931,0.58789 0.60471,1.39966 1.07468,2.02533c0.5173,0.68866 0.44745,1.54402 0.78534,2.48534c0.26859,0.7482 0.72919,1.50766 1.104,2.304c0.33853,0.71925 0.60022,1.68965 0.61066,2.61066c0.01019,0.89993 0,1.80002 0,2.70001c0,0.89999 0,1.69998 0,2.53598l-0.00449,1.01218l-0.08084,0.7825l-0.63068,0.65201" id="svg_19" stroke-width="2" stroke="#000" fill="none"/>
  <path t="78670,78797,78797,78821,78822,78830,78844,78861,78878,78878,78894,78894,78894,78911,78911,78911,78949,78949,78973,78989,78989,79013,79173,79173,79189,79197,79221,79270,79295,79295" d="m371,256c2.16666,-0.83333 2.89542,-1.06084 3.82535,-1.42534c0.69763,-0.27345 1.65363,-0.56364 2.47464,-0.57466c0.89993,-0.01208 1.76169,-0.29869 2.40802,-0.57466c1.01062,-0.4315 1.6517,-0.35382 2.616,-0.45067c1.17853,-0.11836 1.81763,-0.3176 2.55734,-0.776c0.78073,-0.48383 1.47525,-0.88496 2.36148,-1.49417c0.76535,-0.52611 1.51892,-0.66483 2.25717,-1.22533c0.77606,-0.58923 1.27155,-1.31084 2.20001,-1.47467c0.85178,-0.1503 1.35266,-0.65184 2.13333,-1.17117l0.33331,-0.83333l0.53784,-0.64284" id="svg_21" stroke-width="2" stroke="#000" fill="none"/>
  <path t="79903,80062,80078,80102,80111,80128,80143,80160,80160,80177,80193,80210,80227,80246,80246,80260,80286,80310,80334,80342,80351,80382,80478,80478,80494,80550,80582,80614,80662,81006,81014,81014,81039,81062,81062,81094,81094,81119,81126,81126,81144,81161,81182,81182,81198,81211,81227,81227,81278,81318,81350,81350,81374,81430,81438,81470,81470,81502,81510,81527,81544,81561,81577,81670,81878,81926,81942,81982,81982,82022,82031,82031,82046,82086,82086" d="m397,244c1.83334,-0.16667 2.23773,-0.79269 3.09982,-1.00017c0.84012,-0.20218 1.26816,-0.84915 2.20016,-1.00433c0.81763,-0.13614 1.51553,-0.67398 2.30002,-1.02083c0.81802,-0.36169 1.59698,-0.93196 2.5,-0.97467c0.89899,-0.04253 1.70016,0.01799 2.60001,0c0.90054,-0.01801 1.6817,-0.45641 2.49866,-0.916c0.70264,-0.39529 1.24945,-0.93878 2.10132,-1.0885c0.92819,-0.16313 1.53455,-0.63063 2.40002,-1.04817c0.8187,-0.39496 1.15753,-1.30811 1.65265,-1.89465c0.55786,-0.66087 0.90771,-1.49905 1.74734,-1.93134c0.64856,-0.33391 1.50293,-0.79366 2.384,-1.03734c0.67395,-0.1864 1.66763,-0.32365 2.31467,-0.88533c0.74756,-0.64894 1.2121,-1.41747 1.90134,-1.84151c0.82138,-0.50534 1.89386,-0.293 2.5,-0.92516c0.61047,-0.63669 1.10785,-1.2675 2,-1.43333c0.91089,-0.16931 1.61737,-0.67299 2.39999,-1.024c0.8205,-0.368 1.4173,-1.18301 2.10001,-1.61751c0.73212,-0.46594 1.71048,-0.22446 2.59998,-0.36166c0.9314,-0.14368 1.47183,-0.82787 2.40002,-0.991c0.85187,-0.14972 1.39868,-0.69321 2.10132,-1.0885c0.81696,-0.45959 1.59814,-0.89734 2.49866,-0.916c0.8985,-0.01863 1.67142,-0.35571 1.70001,-1.2c0.03046,-0.89966 0.06674,-1.68846 -0.01068,-2.62534c-0.08398,-1.01653 -0.48932,-1.65384 -0.93665,-2.47467l-0.33667,-0.89999l-0.43201,-0.60001" id="svg_22" stroke-width="2" stroke="#000" fill="none"/>
  <path t="84334,84558,84590,84614,84638,84638,84662,84686,84702,84718,84750,84790,84790,84798,84822,84846,84862,84886,84886,84894,84918,84918,84927,84927,84944,84961,84961,84961,84977,84977,84977,84994,84994,84994,85011,85031,85062,85062,85078,85094,85110,85230,85550,85574,85574,85598,85622,85662,85662,85678,85694,85710,85734,85766,85766,85782,85830,86174,86518,86534,86544,86544,86561,86577,86594,86611,86630,86630,86646,86661,86677,86702,86703,86726,86750,86766,86830,86830,86854,86854,86862,86894,86918,86942,86950,86966,86998,86998,87038,87046,87046,87061,87086,87238,87246,87261,87277,87277,87294,87550,87558,87598,87662,87662,87670,87702,87758,87902,87926,87950,87950,87974,87998,88022" d="m429,186c-1.70001,0.05716 -2.46835,0.562 -3.29999,0.94733c-0.87189,0.40399 -1.66394,0.49756 -2.41467,1.13667c-0.66632,0.56728 -0.9556,1.46278 -1.64252,1.85884c-0.81851,0.47194 -1.67947,0.38329 -2.44281,0.77316c-0.7529,0.38455 -1.70001,0.28175 -2.60001,0.284c-0.89999,0.00226 -1.75235,0.35942 -2.39999,0.716c-0.86368,0.47551 -1.52274,1.18225 -2.22086,1.26317c-0.95151,0.11029 -1.80048,-0.11745 -2.65115,0.09283c-0.91879,0.22713 -1.5748,0.80559 -2.37982,1.22266c-0.76852,0.39816 -1.72079,0.66164 -2.40085,0.69633c-0.96729,0.04935 -1.76199,0.009 -2.77798,0.009c-0.95502,0 -1.86935,0 -2.76935,0c-0.79999,0 -1.70001,0 -2.60001,0c-0.89999,0 -1.86163,-0.31763 -2.6955,0.009c-0.77661,0.30421 -0.74509,1.38301 -0.35184,2.23383c0.42191,0.91283 0.47919,1.79361 0.73267,2.55717c0.25635,0.77217 0.7016,1.64667 1.35068,2.17467c0.7298,0.59366 1.44128,1.01749 1.56265,1.82533c0.13651,0.90855 0.94046,1.41522 1.00134,2.3c0.0618,0.89787 0.1543,1.81625 1,1.89999c0.79608,0.07883 1.70001,-0.05716 2.5,-0.5c0.79999,-0.44284 1.75729,-0.3363 2.60001,-0.72133c0.66931,-0.3058 1.4303,-0.71973 2.29999,-1.20401c0.72864,-0.40573 1.56668,-0.79526 2.20001,-1.14932c0.86127,-0.48151 1.80814,-0.30888 2.69998,-0.42984c0.8215,-0.11142 1.43536,-0.71822 2.35269,-0.94283c0.849,-0.20787 1.6976,-0.50218 2.54599,-0.96867c0.70645,-0.38844 1.23679,-1.06599 2.10132,-1.084c0.89984,-0.01874 1.80017,0 2.58536,0c0.94,0 2.05405,0.34625 2.75299,-0.05716c0.6889,-0.39763 1.14236,-1.06213 1.96167,-1.5175c0.7818,-0.43451 1.63638,-0.88727 2.39999,-1.25867c0.75391,-0.36667 1.39035,-0.74457 1.97467,-1.556c0.47876,-0.66484 1.23477,-1.13785 2.12534,-1.48917c0.66068,-0.26064 1.60001,-0.17867 2.39999,-0.62151c0.79999,-0.44284 1.70001,-0.5 2.60001,-0.5c0.89999,0 1.69998,0 2.60001,0l0.89999,0l0.89999,0" id="svg_23" stroke-width="2" stroke="#000" fill="none"/>
  <path t="88814,88941,88957,88997,89045,89054,89093,89110,89125,89158,89221" d="m405,194c0.98932,2.58934 1,3.5 1,4.39999c0,0.90001 0,1.8 0,2.70001c0,0.89999 0.16666,1.73332 0.87851,2.12149l0.12149,0.87851" id="svg_24" stroke-width="2" stroke="#000" fill="none"/>
  <path t="90006,90093,90101,90101,90110,90127,90144,90160,90176,90177,90205,90237,90254,90406" d="m418,191c0.99866,0.88667 0.98843,1.82542 1,2.51601c0.01801,1.07379 0.61813,1.79431 0.91467,2.68399c0.28589,0.85765 0.08533,1.8 0.08533,2.60001c0,0.89999 0,1.8 0,2.7l0,0.89999" id="svg_25" stroke-width="2" stroke="#000" fill="none"/>
 </g>
 <g display="none">
  <title>muse_image</title>
  <image xlink:href="http://farm1.static.flickr.com/46/129300927_8fd18094af.jpg" id="muse" height="460" width="640" y="10" x="0"/>
 </g>
 <g display="none">
  <title>bbox</title>
  <rect stroke="#f00" fill="none" stroke-width="3" height="155.88889" width="428.8" y="167.16667" x="101.12" id="bbox"/>
 </g>
</svg>
