<svg width="640" height="480" xmlns="http://www.w3.org/2000/svg" xmlns:svg="http://www.w3.org/2000/svg" xmlns:xlink="http://www.w3.org/1999/xlink">
 <!-- Sketchy ANNOTATION
  ImageNet ID: n02691156_10151
  URL: http://farm3.static.flickr.com/2083/2212246975_4a92fd2c73.jpg
  Image Width: 500
  Image Height: 375
  BBox X: 14
  BBox Y: 92
  BBox Width: 486
  BBox Height: 193
  Exposure: 2000ms
  Synset Label: airplane
  Synset ID: n02691156
  Worker Tag: airplane  display
  Sanity Check: 
   Saved
  Comment: 
   {}
  Worker ID: AXD2DZ7U6CK35
  Assignment ID: 338JKRMM26ZCOYY2I67DKWNG6FOHAH
  HIT ID: 39I4RL8QGJHVZPKRJ3SKI96V9424HM
  Work Time: 118s
  Worker Score: 0.7857
 END ANNOTATION -->
 <g display="inline">
  <title>Layer 1</title>
  <path t="0,14,15,20,20,31,38,38,54,54,71,71,88,88,88,105,105,105,121,121,121,138,138,138,154,154,154,155,155,171,171,171,189,189,189,189,204,204,204,205,222,222,222,239,239,239,254,255,255,255,272,273,273,291,291,291,291,291,307,307,324,324,324,341,341,341,343,358,358,372,372,389,389,405,422,422,439,439,455,455,472,495,543,595,595,647,698,714,730,738,754,771,772,788,788,804,804,821,822,822,839,839,839,855,855,855,871,872,888,889,904,904,905,922,922,922,939,939,939,939,939,954,955,955,955,971,971,972,972,972,988,989,989,989,1005,1005,1005,1005,1005,1021,1022,1022,1022,1022,1038,1039,1039,1039,1039,1054,1055,1055,1055,1055,1055,1055,1055,1072,1072,1072,1072,1072,1072,1088,1088,1089,1089,1089,1105,1105,1105,1105,1105,1105,1105,1122,1122,1123,1123,1123,1123,1123,1123,1139,1139,1139,1139,1139,1139,1154,1155,1155,1155,1155,1155,1171,1172,1172,1172,1172,1188,1189,1189,1189,1189,1189,1204,1205,1205,1205,1205,1205,1205,1222,1222,1222,1222,1222,1222,1222,1238,1239,1239,1239,1239,1239,1239,1240,1240,1255,1255,1255,1255,1255,1255,1256,1256,1272,1272,1272,1272,1272,1272,1288,1289,1289,1289,1289,1289,1305,1305,1305,1305,1305,1305,1322,1322,1322,1322,1322,1323,1340,1340,1340,1341,1341,1341,1341,1341,1341,1358,1358,1358,1358,1358,1358,1359,1372,1372,1372,1372,1372,1373,1388,1388,1388,1388,1388,1388,1403,1404,1404,1404,1404,1404,1404,1420,1420,1421,1421,1421,1421,1421,1421,1421,1436,1437,1437,1437,1437,1437,1437,1437,1437,1456,1456,1456,1457,1457,1471,1471,1471,1471,1471,1471,1486,1486,1487,1487,1487,1487,1487,1503,1504,1504,1504,1504,1520,1520,1521,1521,1521,1536,1537,1537,1585,1589,1603,1603" d="m31.5,173c1.65267,-1.058 2.08312,-1.8121 2.83333,-2.5c0.5837,-0.53522 1.47383,-0.84946 2.16667,-1.5c0.52634,-0.4942 1.32291,-1.09735 2,-1.5c0.83529,-0.49673 1.4744,-1.03671 2.3215,-1.60017c0.50035,-0.33281 1.30584,-0.75201 2.0785,-1.38516c0.62204,-0.50972 1.1941,-1.12195 2,-1.91333c0.59568,-0.58495 1.1763,-1.14891 2.00267,-1.71867c0.62218,-0.42897 1.37732,-0.83806 2.24,-1.42549c0.67008,-0.45628 1.36111,-0.9731 2.052,-1.509c0.3392,-0.26311 1.53669,-1.26205 2.044,-1.71217c0.71047,-0.63039 1.41856,-1.24858 1.94667,-1.63466c0.8213,-0.60043 1.39655,-0.98866 2.61467,-1.57983c0.58985,-0.28627 1.19732,-0.50835 2.1,-0.82016c1.1952,-0.41286 1.80623,-0.573 2.64283,-0.95851c0.80855,-0.37259 1.47741,-0.9308 2.1825,-1.3815c0.90939,-0.58128 1.73005,-0.7644 2.58533,-0.87599c0.58958,-0.07692 1.79614,-0.25244 2.39999,-0.43201c0.95617,-0.28433 1.95762,-0.71635 2.672,-1.036c0.73368,-0.32826 1.44525,-0.68292 2.148,-0.948c1.18233,-0.44597 1.94167,-0.48277 2.96933,-0.73601c0.8361,-0.20602 1.50427,-0.53676 2.64267,-0.71199c0.65846,-0.10135 1.3618,-0.07784 2.38933,-0.20534c1.20338,-0.14932 1.88151,-0.48946 2.80134,-0.74933c0.77681,-0.21947 1.65067,-0.16667 2.514,-0.16667c1.02733,0 1.974,0 2.65266,0c0.97867,0 1.75447,0.05238 2.82533,-0.01067c0.69349,-0.04083 1.58228,-0.65169 2.37466,-0.90401c0.86142,-0.27431 1.8,-0.08533 2.60001,-0.08533c0.89999,0 1.8,0 2.7,0c0.9,0 1.8,0 2.7,0c0.90017,0 1.68533,0 2.636,0c0.76534,0 1.77254,0.041 2.62117,-0.05716c0.97173,-0.1124 1.77401,-0.38799 2.64733,-0.59018c0.89104,-0.2063 1.79019,-0.31441 2.6595,-0.342c1.06885,-0.03392 1.77883,-0.01067 2.6315,-0.01067c1.0045,0 1.8045,0 2.8045,0c0.8,0 1.8,0 2.61067,0c0.6465,0 1.61149,-0.01477 2.44666,0.01067c0.96218,0.0293 2.07774,0.14439 2.91067,0.27467c0.88467,0.13837 1.33444,0.22397 2.22667,0.41916c1.27571,0.27908 2.03503,0.49779 2.744,0.68483c0.67509,0.17812 2.02661,0.45714 2.74666,0.52667c0.74948,0.07237 1.52667,0.09348 2.31601,0.168c1.20117,0.11342 2.00067,0.26363 2.79866,0.43683c0.80214,0.1741 2,0.47917 2.8,0.67917c0.8,0.2 1.59998,0.40007 2.39999,0.60001c1.20013,0.29993 2.00365,0.49925 2.41068,0.58932c0.82368,0.18228 1.67102,0.35847 3.01115,0.48933c0.94235,0.09203 1.43555,0.0952 2.46085,0.14667c0.53618,0.02692 2.25099,0.13768 2.86,0.19617c0.62569,0.06009 1.26364,0.12807 2.55733,0.29933c0.64986,0.08603 1.29523,0.18005 1.93201,0.2805c1.82666,0.28815 2.39694,0.39954 3.49599,0.588c0.53015,0.09091 1.56192,0.26167 2.06934,0.32533c1.49983,0.18817 2.00244,0.20534 3.00267,0.26001c0.49989,0.02733 1.50211,0.05309 3,0.192c0.50134,0.04649 1.5139,0.1879 2.032,0.26933c1.07686,0.16928 1.63907,0.27112 2.224,0.36533c1.90665,0.30707 2.5957,0.39958 3.302,0.49417c0.7177,0.09612 1.4417,0.18629 2.166,0.26849c0.71771,0.08145 1.42238,0.17169 3.41167,0.31467c0.60924,0.04378 1.19731,0.06888 2.32266,0.12134c0.54567,0.02544 1.62436,0.06778 2.70834,0.16667c1.11765,0.10196 1.68279,0.18172 2.8125,0.35416c0.56018,0.08549 1.11391,0.16849 2.6875,0.47917c0.96587,0.1907 1.42398,0.29781 2.3125,0.5c0.86948,0.19786 2.18712,0.50172 2.64265,0.60001c0.94357,0.20357 1.9404,0.40144 2.46085,0.5c0.53589,0.10149 2.25046,0.40125 2.86,0.5c0.62511,0.10127 1.90799,0.29999 2.55733,0.39999c0.64934,0.10001 1.29604,0.19157 3.16667,0.5c0.59143,0.09752 1.16888,0.19658 2.304,0.41066c0.57146,0.10777 1.15282,0.22137 2.368,0.47467c1.32892,0.27701 2.04688,0.43582 2.79866,0.59866c0.77788,0.16849 1.57457,0.34186 2.3835,0.51601c0.81374,0.17519 1.62523,0.34944 2.42851,0.51601c1.54982,0.32138 2.28552,0.46484 2.99333,0.59732c0.68088,0.12743 1.33698,0.25078 2.58932,0.44c0.59659,0.09015 1.17641,0.18456 2.84666,0.32533c0.53673,0.04524 1.59604,0.09554 2.12134,0.12134c1.05272,0.05171 1.58618,0.0601 3.22133,0.2215c0.56354,0.05562 1.70438,0.21205 2.27867,0.29933c0.57504,0.08739 1.71669,0.27664 2.83333,0.47917c1.08203,0.19626 1.6098,0.29848 2.64584,0.5c0.51031,0.09926 1.51958,0.29962 2.52083,0.5c1.00407,0.20094 1.51402,0.30203 2.5625,0.52083c0.54578,0.11389 1.6944,0.36053 2.9375,0.64584c0.66466,0.15254 1.35338,0.31712 2.0625,0.48599c0.72421,0.17247 1.45813,0.34828 2.19751,0.522c0.73895,0.17361 1.47009,0.35652 3.59683,0.80383c0.6702,0.14096 1.32394,0.26634 1.96048,0.3855c1.22461,0.22923 1.81662,0.33083 2.39468,0.43466c1.66699,0.29942 2.20413,0.40059 3.26266,0.60133c0.52539,0.09964 1.57776,0.30125 2.10934,0.40001c1.63663,0.30403 2.20035,0.39938 2.76865,0.5045c1.14807,0.21237 1.72388,0.323 2.29468,0.45267c1.69189,0.38437 2.23428,0.55699 3.31799,0.89999c0.55319,0.17509 1.11548,0.37164 2.31601,0.74733c0.64267,0.20111 2.05069,0.60068 2.8255,0.79533c0.81314,0.20428 1.66025,0.39902 2.53049,0.58951c0.88278,0.19324 1.77158,0.3768 2.65649,0.5535c0.87109,0.17393 2.53931,0.49158 3.32001,0.63567c0.74332,0.13719 1.45291,0.26483 2.1315,0.3855c0.65042,0.11566 1.27603,0.22516 1.87952,0.3315c0.5845,0.103 2.25388,0.40344 2.78983,0.5045c1.04971,0.19792 1.56473,0.29872 2.58084,0.5c1.50485,0.2981 2.00607,0.39354 3.00897,0.60901c0.50696,0.10892 1.53488,0.35123 2.05267,0.50533c1.62085,0.48239 2.16644,0.72234 2.72549,0.95367c1.13712,0.47054 1.69641,0.73218 2.25601,0.98132c0.55142,0.24551 2.12518,0.92473 2.61835,1.10767c0.92361,0.34259 1.7988,0.61061 2.63397,0.834c1.20551,0.32243 2.00739,0.505 2.78769,0.709c0.75034,0.19617 1.46027,0.37218 2.65067,0.79868c0.73535,0.26346 1.36798,0.51599 2.35715,0.74417l0.9375,0.05716l-0.84564,0l-0.92502,0" id="svg_1" stroke-width="2" stroke="#000" fill="none"/>
  <path t="2645,2658,2658,2670,2688,2688,2706,2722,2723,2738,2754,2754,2771,2771,2771,2787,2787,2787,2804,2804,2804,2821,2821,2821,2836,2837,2837,2854,2854,2854,2871,2871,2871,2871,2887,2887,2887,2904,2904,2904,2921,2921,2921,2936,2937,2937,2937,2955,2955,2955,2955,2971,2971,2987,2987,2987,2987,3005,3005,3005,3005,3021,3021,3021,3021,3036,3037,3037,3037,3054,3054,3054,3071,3071,3071,3071,3087,3087,3087,3103,3104,3104,3121,3121,3121,3121,3137,3137,3137,3154,3154,3154,3154,3171,3171,3171,3171,3187,3187,3187,3204,3204,3204,3204,3222,3222,3222,3222,3222,3237,3237,3237,3237,3254,3254,3254,3254,3271,3271,3271,3271,3300,3300,3300,3300,3301,3311,3311,3311,3311,3322,3322,3322,3338,3338,3339,3339,3359,3359,3359,3372,3372,3372,3372,3387,3387,3387,3387,3404,3404,3404,3422,3422,3422,3437,3437,3437,3437,3454,3454,3454,3454,3454,3471,3471,3471,3471,3471,3487,3487,3487,3487,3504,3504,3504,3504,3504,3521,3521,3521,3521,3521,3537,3537,3537,3537,3537,3537,3554,3554,3554,3554,3571,3571,3571,3571,3571,3587,3587,3587,3587,3604,3604,3604,3604,3621,3621,3621,3637,3637,3637,3637,3654,3654,3654,3655,3671,3671,3671,3671,3687,3687,3687,3704,3704,3721,3721" d="m32.5,173c-3.028,5.77333 -3.65013,6.30641 -3.94283,7.3c-0.25522,0.86633 -0.05717,1.58533 -0.05717,2.52533c0,1.008 0,1.87016 0,2.6955c0,0.96584 0,1.72585 0,2.64584c0,0.786 0,1.608 0,2.66666c0,0.94135 -0.01404,1.61943 0.00133,2.85068c0.01019,0.81616 -0.02543,1.38058 0.28267,2.63199c0.17148,0.6965 0.48075,1.3595 0.632,2.36934c0.12438,0.83044 0.13608,1.72147 0.30533,2.61467c0.17181,0.90669 0.46114,1.79346 0.612,2.7c0.14892,0.89488 0.17136,1.80238 0.25067,2.39999c0.1599,1.2049 0.32652,1.79778 0.6205,2.64284c0.36426,1.04707 0.6888,1.72443 1.0955,2.55583c0.39486,0.80721 0.83612,1.67328 1.08533,2.172c0.59894,1.19853 0.9448,1.88838 1.28933,2.61467c0.34617,0.72974 0.81009,1.79053 1.06816,2.453c0.35515,0.91167 0.52395,1.4884 0.9585,2.47766c0.40535,0.92278 0.96041,1.85373 1.284,2.36934c0.52752,0.84056 0.91865,1.41953 1.51467,2.31467c0.39965,0.60023 0.8,1.2 1.4,2.10001c0.59999,0.89999 0.99485,1.50217 1.4,2.08932c0.59252,0.8587 1.18593,1.65614 1.8,2.3535c0.39119,0.44426 0.99966,1.05617 1.80133,1.85851c0.61924,0.61975 1.05777,1.05391 2.01983,2.02c0.52806,0.53027 1.06916,1.06845 1.569,1.62599c0.69225,0.77217 1.19054,1.50182 1.6245,2.142c0.69207,1.02095 1.21832,1.62485 1.632,2.01067c0.89159,0.83154 1.70126,1.40236 2.25333,1.77917c0.54276,0.37045 1.58501,0.989 2.27467,1.40616c0.68446,0.41402 1.64866,1.15523 2.1825,1.62001c0.56561,0.49243 1.11027,1.04178 2.04284,1.66133c0.864,0.57399 1.49412,0.7829 2.31467,1.21599c0.7792,0.41125 1.45926,0.95422 2.138,1.52184c0.71322,0.59644 1.50291,1.20448 2.089,1.5955c0.61377,0.40948 1.62061,1.00801 2.34234,1.39867c0.73694,0.3989 1.48547,0.77652 2.23199,1.116c1.0554,0.47993 1.73096,0.72252 2.67334,1.11067c0.61208,0.25211 1.81237,0.85568 2.41066,1.20001c0.60174,0.34631 1.18396,0.72385 2.40267,1.29199c0.61108,0.28488 1.27563,0.53012 1.96799,0.85199c1.18306,0.54999 2.03275,1.03604 2.46934,1.29199c0.87862,0.51511 1.71685,1.04144 2.46,1.57202c0.65455,0.46732 1.44273,1.14581 1.94366,1.505c0.94978,0.681 1.79213,1.01434 2.60367,1.41431c0.79685,0.39273 1.50581,0.89746 2.178,1.45801c0.46272,0.38586 1.456,1.19489 2.01067,1.58932c0.57062,0.40579 1.76215,1.20282 2.364,1.59869c0.59817,0.39346 1.1772,0.80795 2.4,1.43466c0.58973,0.30225 1.49777,0.6521 2.1,0.86215c1.19555,0.41702 1.79937,0.59351 2.664,0.90451c1.07432,0.38641 1.78114,0.70502 2.46133,1c0.93835,0.40695 1.74057,0.7052 2.33717,0.92084c0.65605,0.23712 1.77251,0.64148 2.60683,0.96448c0.89381,0.34604 1.35461,0.52805 2.2825,0.91919c1.38625,0.58435 1.82777,0.79254 2.6865,1.19098c0.82123,0.38104 1.5927,0.76398 2.695,1.23785c0.67833,0.29163 1.33736,0.54251 1.992,0.75598c1.33367,0.43491 2.05923,0.61359 2.81067,0.81067c0.7739,0.20297 1.56492,0.40164 2.76433,0.70001c0.8084,0.20111 1.21983,0.30508 2.07167,0.5c0.89746,0.20535 2.37029,0.50113 2.89467,0.60001c1.07291,0.2023 1.61281,0.29837 2.14667,0.39999c1.03394,0.19684 2.42471,0.49072 3.21967,0.69998c0.72762,0.19153 1.40862,0.4071 2.43367,0.70001c0.71725,0.20496 1.46884,0.40192 2.24399,0.60001c0.79018,0.20193 1.98953,0.49854 2.78484,0.69998c0.78404,0.19858 1.55154,0.38519 2.983,0.80002c0.66637,0.19312 1.30157,0.39725 2.22017,0.69998c0.90222,0.29733 1.80133,0.60001 2.40134,0.80002c1.2,0.39999 1.8,0.60001 2.7,0.89999c0.60001,0.20001 1.79887,0.60397 2.71066,0.89999c0.62447,0.20273 1.27257,0.40735 2.3105,0.70001c1.09135,0.30774 1.82173,0.48593 2.50951,0.69998c1.20657,0.37552 1.93153,0.69189 2.56667,1c1.00446,0.48724 1.56667,0.80002 2.51733,1.39868l0.58083,0.44415" id="svg_2" stroke-width="2" stroke="#000" fill="none"/>
  <path t="5183,5198,5214,5214,5223,5238,5253,5253,5270,5270,5287,5287,5303,5304,5320,5320,5320,5337,5353,5354,5354,5370,5386,5386,5386,5404,5404,5421,5437,5461,5477,5486,5503,5521,5521,5536,5537,5553,5570,5586,5603,5604,5621,5621,5637,5637,5654,5654,5671,5671,5686,5686,5703,5704,5721,5721,5737,5737,5754,5754,5771,5771,5786,5787,5805,5837,5857,5958,5966,5972,5987,6009,6021,6037,6054,6071,6087,6105,6129,6141,6157,6181,6181,6193,6204,6221,6241,6261,6261,6686,6698,6714,6729,6737,6754,6754,6771,6771,6787,6787,6804,6804,6804,6821,6821,6821,6821,6837,6837,6837,6837,6837,6854,6854,6854,6854,6871,6871,6871,6871,6887,6887,6887,6887,6887,6904,6904,6929,6961,6977,6989,7004,7021,7021,7037,7037,7037,7037,7054,7054,7071,7071,7071,7087,7087,7104,7104,7121,7121,7137,7137,7154,7154,7155,7171,7171,7187,7187,7204,7204,7221,7221,7237,7254,7277,7313,7322,7342,7355,7356,7373,7387,7404,7404,7420,7421,7421,7437,7437,7437,7437,7454,7454,7471,7471,7487,7487,7487,7504,7504,7521,7521,7537,7554,7554,7554,7570,7571,7571,7589,7629,7629,7682,7698,7709,7725,7737,7754,7771,7771,7787,7787,7787,7804,7804,7821,7821,7821,7837,7837,7837,7854,7854,7854,7854,7871,7871,7887,7887,7904,7904,7921" d="m217.5,266c-1.89017,-4.12851 -2.19307,-5.12405 -2.7045,-5.70001c-0.65021,-0.73227 -1.03136,-1.45895 -1.46217,-2.29999c-0.3403,-0.66434 -1.17519,-1.27097 -1.63333,-1.88535c-0.54828,-0.73526 -0.88837,-1.50771 -1.11732,-2.51465c-0.18022,-0.79263 -0.50478,-1.81462 -0.93333,-2.38934c-0.42416,-0.56883 -0.99571,-1.47232 -1.31601,-2.37733c-0.23741,-0.67082 -0.61783,-1.36131 -1.23332,-2.20799c-0.58426,-0.8037 -1.0069,-1.45778 -1.40001,-2.22667c-0.40581,-0.79372 -0.88885,-1.52553 -1.11467,-2.51334c-0.19821,-0.86707 -0.30055,-1.82443 -1.18533,-1.88533c-0.89787,-0.0618 -1.62946,0.21616 -2.06667,1c-0.3636,0.65187 -1.13712,1.29625 -1.63333,1.8c-0.68443,0.69485 -1.1714,1.49864 -1.2,2.39999c-0.02855,0.89972 -0.04086,1.68668 0.01067,2.636c0.04169,0.76784 0.32683,1.77284 0.69383,2.564c0.37544,0.80936 0.82336,1.56058 1.12883,2.43333c0.27228,0.77791 0.74043,1.64589 1.16667,2.16667c0.67592,0.82585 0.95743,1.64554 1.28534,2.48401c0.27806,0.711 0.83101,1.48236 1.31467,2.14133c0.62,0.84473 1.04077,1.56412 1.27866,2.57449c0.18076,0.76773 0.20215,1.69101 0.73201,2.3895c0.59647,0.78629 0.96008,1.57285 1.556,2.24402c0.53816,0.60611 0.4892,1.12415 -0.16667,1.66666c-0.60298,0.49878 -1.53479,0.44702 -2.3,0.85266c-0.84579,0.44836 -1.45183,0.96033 -1.98399,1.56332c-0.56645,0.64185 -0.71609,1.384 -0.716,2.28403c0.00009,0.89981 0.3311,1.61426 1.10001,2.02133c0.75752,0.40103 1.51779,0.77023 2.29999,1.20398c0.82014,0.45477 1.70001,0.57468 2.60001,0.57468c0.8,0 1.79019,0.00323 1.99867,0.80133c0.22762,0.87134 0.68692,1.62122 0.94417,2.49866c0.2541,0.86676 0.13324,1.58871 0.4825,2.53601c0.28319,0.76813 0.53784,1.76733 0.564,2.39999c0.04897,1.18454 0.00256,2.00113 0.04666,2.57468c0.09174,1.19296 0.31693,2.09943 0.48483,2.73099c0.17915,0.67389 0.48433,1.79047 0.67917,2.62634c0.20544,0.88141 0.39761,1.78189 0.5,2.22665c0.29317,1.27359 0.50995,2.03305 0.77917,3.0845c0.17084,0.66721 0.36879,1.68597 0.43683,2.40619c0.10709,1.13354 0.10509,1.92261 0.25067,3.11465c0.09756,0.79886 0.25209,1.57236 0.444,2.29199c0.17503,0.65637 0.74686,1.80136 1.10399,2.504c0.41315,0.81284 1.01761,1.39151 1.88535,1.168c0.85692,-0.22073 1.22768,-1.19894 1.62132,-2.06448c0.29095,-0.63974 0.67531,-1.66199 0.72151,-2.26199c0.07668,-0.99564 0.05649,-1.67084 0.05716,-2.86685c0.00041,-0.729 0,-1.77066 0,-2.57065c0,-0.80002 0,-1.80002 0,-2.60001c0,-0.99869 0,-1.76401 0,-2.85184c0,-0.7175 0,-1.758 0,-2.53351c0,-1.048 0,-1.75751 0,-2.61017c0,-1.00449 0.01317,-1.8046 -0.00017,-2.80432c-0.01039,-0.77954 -0.29485,-1.74265 -0.64717,-2.55283c-0.37778,-0.86871 -0.3504,-1.59467 -0.35266,-2.61136c-0.00208,-0.93597 0,-1.836 0,-2.73599c0,-0.89999 0.20761,-1.64517 1,-2.06665c0.64061,-0.34073 1.56783,-0.70938 2.3,-1.19052c0.79424,-0.52191 1.21829,-1.1662 1.86667,-1.80948c0.67735,-0.67203 1.06007,-1.06784 2,-1.83334c0.5056,-0.41177 1.31958,-0.96936 2.064,-1.51468c0.80647,-0.59079 1.38676,-1.08386 1.97067,-1.97064c0.34294,-0.52081 0.94818,-1.52908 1.45132,-2.11017c0.50522,-0.58347 1.32584,-1.383 1.82651,-1.88367c0.72084,-0.72086 1.25981,-1.18445 1.92082,-1.93152c0.63956,-0.72284 0.97714,-1.44717 1.48534,-2.19064c0.56265,-0.82315 1.11079,-1.38159 1.63068,-1.91336c0.71701,-0.73337 1.43684,-1.4697 1.48267,-2.28531c0.05151,-0.91707 -0.8,-1.19934 -1.69867,-1.20001c-0.90001,-0.00067 -1.8,-0.00008 -2.71066,0c-0.91084,0.00009 -1.81773,-0.0415 -2.78934,0.2215c-0.61507,0.16649 -1.40027,0.57932 -2.2,0.97852c-0.80026,0.39948 -1.8,0.89999 -2.40001,1.19998c-0.8,0.39999 -1.60268,0.8013 -2.472,1.23599c-0.49866,0.24936 -1.69626,0.84488 -2.368,1.18936c-0.67497,0.34616 -1.33282,0.64905 -2.30533,1.28931c-0.67812,0.44644 -1.53867,1.08536 -2.22934,1.48535l-0.80383,0.49982l-0.61084,0.46417l-0.88983,0.436" id="svg_3" stroke-width="2" stroke="#000" fill="none"/>
  <path t="10442,10477,10493,10504,10520,10537,10554,10554,10573,10573,10605,10605,10637,10654,10673,10697,10704,10720,10737,10754,10770,10770,10787,10787,10804,10804,10820,10820,10837,10837,10854,10870" d="m348.5,240c-1.70001,0 -2.60001,0 -3.5,0c-0.89999,0 -1.8045,0 -2.8215,0c-0.69934,0 -1.6785,0 -2.46783,0c-1.04401,0 -2.02386,-0.00443 -2.20932,0.80133c-0.20157,0.87578 -0.14731,1.92142 0.43466,2.588c0.60956,0.6982 1.40961,0.95259 1.98932,1.58534c0.53644,0.58553 1.29636,0.93129 2.17734,1.10933c0.8045,0.16258 1.52701,0.60936 2.51468,0.83067c0.83542,0.18719 1.888,0.08533 2.63199,0.08533c0.91733,0 1.82935,0.036 2.65067,0.42534l0.80002,0.49066" id="svg_4" stroke-width="2" stroke="#000" fill="none"/>
  <path t="11500,11506,11506,11506,11523,11523,11523,11539,11539,11539,11554,11554,11554,11554,11554,11570,11570,11570,11570,11570,11587,11587,11587,11587,11587,11604,11604,11604,11604,11620,11620,11620,11620,11620,11637,11637,11637,11637,11654,11654,11654,11670,11670,11670,11670,11670,11687,11687,11738,11746,11754,11770,11787,11787,11804,11804,11820,11820,11820,11837,11837,11837,11837,11854,11854,11854,11854,11854,11870,11870,11870,11870,11870,11887,11887,11887,11904,11904,11904,11904,11920,11920,11920,11920,11920,11937,11937,11937,11954,11954,11954,11954,11970,11970,11970,11970,11970,11987,11987,11987,12004,12004,12020,12020,12037,12037,12054,12070,12070,12087,12106" d="m351.5,239c9.00665,-4.614 9.79788,-5.0594 10.54001,-5.55733c0.79007,-0.53011 1.47998,-0.94434 2.06131,-1.24268c1.00623,-0.51639 1.68369,-0.89008 2.16934,-1.256c0.89737,-0.67612 1.54327,-1.30673 2.25018,-1.98567c0.36664,-0.35213 1.09613,-1.07735 1.8125,-1.79166c0.68231,-0.68034 1.33282,-1.32935 1.992,-1.92c0.32324,-0.28964 1.33041,-1.09666 2.05865,-1.56134c0.73077,-0.46631 1.49283,-0.87076 2.23199,-1.284c1.06586,-0.59589 1.73584,-0.99886 2.384,-1.42216c0.65732,-0.42931 1.66763,-1.1445 2.38266,-1.66183c0.366,-0.26482 1.0921,-0.80269 1.8075,-1.30751c0.97061,-0.68492 1.79791,-1.20361 2.52451,-1.6245c0.46667,-0.27032 1.46713,-0.87747 2.03201,-1.21066c0.90732,-0.53519 1.9137,-1.02458 2.63599,-1.28934c0.72604,-0.26614 1.45908,-0.46477 2.14801,-0.68399c1.20294,-0.38278 1.84659,-0.90558 2.94766,-1.07967c0.8457,-0.13371 1.34479,1.03271 0.80017,1.75716c-0.54169,0.72057 -1.13257,1.01239 -1.7785,1.9545c-0.38425,0.56041 -1.16666,1.33334 -1.65717,1.82384c-0.5535,0.5535 -1.34283,1.34282 -1.95184,1.95183c-0.43265,0.43266 -1.16238,1.16092 -2.03366,2.03384c-0.32559,0.32622 -1.01001,1.01656 -1.35733,1.37799c-0.69873,0.72713 -1.67087,1.80901 -1.957,2.1575c-0.53662,0.65355 -1.2146,1.58035 -1.64032,2.13501c-0.59308,0.77275 -1.19226,1.47301 -1.85983,2.08215c-0.68854,0.62828 -1.50122,1.20737 -2.06369,1.62534c-0.58493,0.43463 -1.48676,1.13716 -2.07782,1.66318c-0.59851,0.53264 -1.1673,1.08868 -1.716,1.63199c-1.00494,0.99506 -1.44525,1.46423 -2.138,2.0795c-0.69949,0.62123 -1.50571,1.20737 -2.06818,1.62534c-0.58493,0.43463 -1.48676,1.13716 -2.07782,1.66318c-0.59851,0.53264 -1.1673,1.08868 -1.716,1.63199c-1.0036,0.99373 -1.42786,1.46141 -2.08084,2.02234c-0.77979,0.66986 -1.61392,1.09415 -2.43784,1.66167c-0.67261,0.46332 -1.26666,1.10001 -1.86667,1.7c-0.69998,0.69998 -1.29999,1.3 -1.89999,1.864l-0.89999,0.41518l-0.89999,0.02083" id="svg_5" stroke-width="2" stroke="#000" fill="none"/>
  <path t="12628,12638,12638,12638,12638,12638,12638,12647,12647,12656,12671,12672,12672,12688,12688,12688,12704,12704,12704,12720,12720,12720,12720,12737,12737,12754,12754,12770,12862,12870,12887,12904,12904,12920,12920,12937,12937,12937,12954,12954,12954,12970,12970,12970,12970,12987,12987,12987,13004,13004,13004,13020,13020,13020,13020,13037,13037,13037,13054,13054,13054,13070,13070,13070,13094,13094,13126,13142" d="m350.5,237c-12.16666,-8.5 -12.95712,-9.01654 -13.65866,-9.43201c-1.11462,-0.6601 -1.95865,-1.05826 -2.556,-1.35599c-0.98245,-0.48967 -1.54526,-1.05286 -2.30618,-1.71201c-0.61734,-0.53476 -1.33093,-0.90175 -2.16583,-1.38533c-0.73926,-0.42816 -1.53696,-0.94272 -2.08798,-1.28934c-1.05542,-0.66388 -1.77521,-1.06816 -2.45068,-1.45067c-0.94489,-0.53506 -1.44858,-0.87427 -2.27466,-1.35384c-0.80652,-0.46823 -1.81384,-0.84926 -2.45834,-1c-1.02097,-0.23878 -1.58572,-0.68181 -2.34164,-1.31633c-0.75803,-0.63628 -1.80688,-0.36401 -1.34283,0.24733c0.53839,0.70924 1.09808,1.09851 1.74283,2.02684c0.37485,0.5397 0.9935,1.34689 1.42084,2.04216c0.35895,0.58397 0.96286,1.3819 1.5,2c0.57877,0.666 1.19901,1.38654 1.76849,2.21516c0.38855,0.56537 0.75708,1.14993 1.32666,2.36267c0.27414,0.58365 0.57593,1.47992 1.20551,2.48c0.30713,0.48785 0.90796,1.13121 1.6785,2.08801c0.41016,0.50931 0.99429,1.33754 1.39999,1.88066c0.59177,0.79222 1.172,1.51962 1.80002,2.106c0.76743,0.71654 1.41409,1.07233 2.19998,1.59933c0.81506,0.5466 1.39603,1.06566 1.94284,1.59467c0.78152,0.75609 1.35266,1.291 2.22116,1.67799l0.52002,0.69067" id="svg_6" stroke-width="2" stroke="#000" fill="none"/>
  <path t="13779,13794,13794,13794,13794,13806,13806,13821,13821,13822,13837,13837,13837,13837,13854,13854,13854,13854,13854,13854,13870,13870,13870,13870,13870,13887,13887,13887,13887,13887,13904,13904,13904,13904,13920,13920,13920,13937,13937,13937,13954,13954,14010,14010,14018,14026,14039,14039,14054,14054,14070,14070,14070,14087,14087,14087,14104,14104,14104,14104,14120,14120,14137,14137,14137,14154,14154,14154,14170,14170,14170,14170,14187,14187,14187,14187,14203,14204,14204,14220,14220,14220,14237,14237,14270,14270,14287,14287,14287,14287,14304,14304,14320,14320,14337,14337,14354,14354,14370,14370" d="m349.5,250c-0.87851,7.69232 -0.953,8.60925 -0.97916,9.375c-0.03186,0.93268 -0.08133,1.94431 0.01517,2.81433c0.11331,1.02161 0.42706,1.621 0.61133,2.32501c0.29178,1.11469 0.30609,1.80408 0.33182,2.54816c0.02777,0.80338 0.02084,2.10416 0.02084,3.02283c0,0.95068 0,1.43552 0,2.41916c0,0.49686 0,1.99536 0,2.99103c0,0.4938 0,1.46848 0,2.41916c0,0.91867 0,1.79999 0,2.64932c0,0.82535 0,1.63467 0,2.83566c0,0.79135 0,1.55869 0,2.28601c0,1.27148 0,2.05301 0,2.99701c0,1.00131 0,1.81732 0,2.63333c0,0.99866 -0.0137,1.87341 0.00015,2.88367c0.01041,0.75888 0.44635,1.88177 0.97452,1.36432c0.59,-0.57803 0.85876,-1.4295 1.32532,-2.22116c0.43039,-0.73029 0.7887,-1.54898 1.22086,-2.36368c0.35516,-0.66953 0.96558,-1.66299 1.3045,-2.21515c0.35181,-0.57315 1.02731,-1.75534 1.28799,-2.36267c0.37302,-0.86899 0.58194,-1.43307 0.80264,-2.716c0.11356,-0.6601 0.24179,-1.68823 0.50934,-2.496c0.2149,-0.6489 0.4816,-1.60855 0.53867,-2.436c0.06299,-0.91336 0.03601,-1.91998 0.03601,-2.63733c0,-1.116 0,-1.86334 0,-2.94934c0,-0.68134 0,-1.64581 0,-2.26215c0,-1.20435 0,-2.09384 0,-2.94736c0,-1.03564 0,-1.72116 0,-2.55582c0,-0.99683 -0.03989,-1.91739 0.01068,-2.80801c0.04178,-0.73593 0.20822,-1.5791 0.41464,-2.69464c0.14761,-0.7977 0.31769,-1.55847 0.45319,-2.51285c0.13852,-0.97562 0.12149,-1.87117 0.12149,-2.5965c0,-0.98917 0,-1.76851 0,-2.76801l0,-0.90533l0,-0.94133l0,-0.69067" id="svg_7" stroke-width="2" stroke="#000" fill="none"/>
  <path t="15615,15638,15638,15638,15647,15670,15670,15687,15687,15704,15720,15737,15826" d="m338.5,224c5.49249,-7.24933 5.89026,-8.03433 6.67749,-8.61133c0.73373,-0.5378 1.60852,-0.77113 2.20786,-1.19c0.91348,-0.6384 1.63065,-0.99867 2.35748,-1.49417l0.75717,-0.53783l0.83334,-0.33334l0.45065,-0.74666" id="svg_8" stroke-width="2" stroke="#000" fill="none"/>
  <path t="16444,16450,16450,16450,16450,16450,16450,16450,16450,16450,16458,16458,16458,16458,16458,16458,16471,16471,16486,16487,16503,16503,16519,16536,16536,16553,16570,16570,16587,16587,16603,16604,16619,16636,16654,16673,16674,16686,16703,16719,16719,16736,16758,16758,16770" d="m333.5,242c-1.16666,2.5 -1.32639,3.31927 -1.48267,4.26134c-0.17123,1.03223 -0.33478,2.12894 -0.49649,3.25949c-0.16232,1.13478 -0.31342,2.24602 -0.45151,3.3045c-0.24017,1.84081 -0.32794,2.57349 -0.39868,3.18001c-0.05765,0.49417 -0.10654,0.88998 -0.129,1.203c-0.06393,0.8905 0.02747,1.6828 0.311,2.44882c0.27887,0.75339 0.47995,1.75739 0.70001,2.68567c0.21881,0.9231 0.84479,1.64655 0.94598,2.45715c0.10367,0.83038 0.24649,1.70444 0.612,2.37466c0.5314,0.97443 1.15005,1.54697 1.33218,2.47803c0.16608,0.84903 0.10114,1.78397 0.63184,2.37265c0.5097,0.5654 1.18597,1.20331 1.72,1.67468c0.77753,0.68631 1.41101,1.26868 1.90399,1.86932c0.57083,0.6955 0.74866,1.67349 1.02267,2.53067l0.49466,0.69998l0.30933,0.80002" id="svg_9" stroke-width="2" stroke="#000" fill="none"/>
  <path t="17423,17446,17566,17634,17634,17694" d="m356.5,289c0.16666,1.83334 0.87866,2.2215 1.2215,3.09982l0.483,0.543l0.8595,0.38251" id="svg_10" stroke-width="2" stroke="#000" fill="none"/>
  <path t="19111,19118,19118,19118,19118,19118,19118,19118,19118,19126,19126,19126,19126,19126,19126,19139,19139,19155,19172,19172,19189,19189,19205,19205,19222,19254,19272,19298,19306" d="m354.5,209c3.75616,-0.22133 4.60934,-0.28389 5.5365,-0.35266c0.97818,-0.07256 1.98431,-0.14767 2.99551,-0.222c0.99313,-0.073 1.94504,-0.14543 3.63464,-0.25867c0.69656,-0.04668 1.29318,-0.08359 1.80002,-0.10501c0.42654,-0.01802 0.82642,-0.22235 1.86667,0.10501c0.81943,0.25787 1.59851,0.74014 2.48798,1.05482c0.69928,0.24739 1.54074,0.74347 2.15784,1.2785c0.75848,0.65762 1.45792,0.98125 2.16367,1.55267c0.73065,0.59158 1.23584,1.16866 1.70984,1.89465l0.62201,0.47801" id="svg_11" stroke-width="2" stroke="#000" fill="none"/>
  <path t="21415,21442,21458,21471,21488,21504,21504,21521,21521,21521,21522,21538,21538,21539,21554,21554,21572,21572,21572,21588,21588,21603,21603,21603,21620,21620,21620,21637,21637,21637,21653,21653,21653,21670,21670,21670,21670,21670,21670,21687,21687,21687,21687,21703,21703,21703,21720,21720,21720,21737,21737,21737,21737,21753,21770,21770" d="m396.5,221c1.64282,2.04817 2.16666,2.83333 3,3c0.83334,0.16667 1.32761,0.86075 2.0625,1c1.09714,0.2079 1.89682,0.3499 2.45834,0.52083c0.88403,0.2691 2.07898,0.67203 2.65784,0.87917c0.81061,0.29005 1.84103,0.8197 2.47198,1.20001c0.87579,0.52788 1.60788,0.78116 2.34399,1.09999c0.87256,0.37793 1.62869,0.95224 2.54819,1.40001c0.70001,0.34088 1.51437,0.58624 2.2905,0.89999c0.94821,0.38332 1.61258,0.71677 2.58798,1.10001c0.79871,0.31381 1.36099,0.48029 2.41202,0.89999c0.72855,0.29094 1.45956,0.64616 2.66666,1.16667c0.75061,0.32367 1.16113,0.4894 2.02084,0.83333c0.87695,0.35081 1.30887,0.52573 2.53616,0.9785c1.0679,0.39398 1.7211,0.61243 2.34033,0.82016c1.20163,0.40311 2.09714,0.70229 2.70267,0.84418c1.19067,0.27901 1.8013,0.29065 2.69998,0.38249c1.20206,0.12285 1.80771,0.22493 2.65836,0.4955c0.78183,0.24867 1.72733,0.77467 2.54166,1.3125l0.71466,0.25067" id="svg_12" stroke-width="2" stroke="#000" fill="none"/>
  <path t="22548,22563,22563,22563,22563,22563,22563,22563,22563,22563,22571,22571,22572,22572,22589,22603,22603,22603,22620,22620,22620,22620,22637,22637,22637,22637,22654,22654,22654,22654,22654,22670,22670,22670,22671,22687,22687,22687,22688,22703,22703,22703,22703,22720,22720,22720,22721,22737,22737,22737,22753,22753,22754,22754,22770,22770,22771,22771,22788,22788,22788,22803,22803,22803,22804,22820,22820,22821,22837,22837,22838,22853,22854,22854,22870,22871,22887" d="m357.5,287c13.83334,2 14.94937,2.19513 15.99466,2.39734c0.979,0.18939 1.88977,0.37936 2.7345,0.561c0.78058,0.16785 1.49579,0.32993 2.14951,0.47098c1.12039,0.24176 2.005,0.42361 2.69467,0.49869c0.93039,0.10129 1.95502,0.05591 2.76001,0.23865c0.94949,0.21555 1.47754,0.46133 2.66666,0.66669c0.89395,0.15439 1.50357,0.13452 2.39999,0.25067c1.21039,0.1568 1.82977,0.35172 2.508,0.49066c0.74576,0.1528 2.0553,0.31567 3.05002,0.36816c0.51773,0.02731 1.56595,0.04877 2.08398,0.05267c1.45798,0.01096 2.302,0.00449 3.05002,0.00449c0.67599,0 1.90799,0 2.8125,0c0.61633,0 1.58081,-0.00299 2.617,0.00015c0.73566,0.00223 1.50034,0.00305 2.28299,0.05701c1.19766,0.08255 1.99411,0.21988 2.77417,0.36816c0.75064,0.14267 2.08472,0.43613 2.9115,0.51752c0.72247,0.07114 1.67648,0.05716 2.4715,0.05716c0.88501,0 1.52502,-0.00812 2.92233,0.00134c0.74136,0.00504 1.49249,0.01212 2.23199,0.08398c1.06616,0.10361 2.04626,0.3475 2.67334,0.48935c1.20749,0.27313 2.11008,0.37982 2.71066,0.40448c0.89944,0.03696 2.09897,0.0108 2.68933,0.03152c0.85425,0.03 1.89105,0.20505 2.81067,0.48932c0.6853,0.21182 1.68253,0.43713 2.5,0.47916c0.81516,0.04193 1.81201,0.02219 2.61734,0.05685l0.86182,0.46399" id="svg_13" stroke-width="2" stroke="#000" fill="none"/>
  <path t="24143,24158,24158,24158,24158,24174,24174,24194,24242,24306,24354,24366,24382,24382,24390,24403,24420,24420,24437,24437,24453,24453,24453,24470,24470,24487,24487,24503,24503,24520,24537,24553,24553,24570,24587,24587,24603,24603,24620,24620,24637,24637,24637,24653,24653,24653,24654,24669,24669,24669,24687,24687,24687,24702,24702,24719,24719,24719,24737,24737,24737,24752,24752,24752,24752,24769,24769,24769,24786,24786,24786,24802,24802,24819,24819,24836,24852,24869,24886,24902,24953,25005" d="m440.5,241c11.86334,3.73534 12.46313,3.93414 13.39334,4.28133c0.65558,0.24469 1.6257,0.47546 2.40533,0.80267c0.86639,0.36362 1.64291,0.64772 2.49683,0.9205c0.75793,0.24211 0.87643,1.371 0.41916,2.1955c-0.38382,0.69205 -1.13358,1.45094 -1.91467,1.71468c-0.85669,0.28925 -1.69662,0.1411 -2.64667,0.52133c-0.62299,0.24934 -1.57565,0.66096 -2.36798,0.96399c-0.77664,0.29703 -1.685,0.64346 -2.36401,1.20001c-0.77988,0.63921 -1.30096,1.2088 -2.06949,1.7c-0.63736,0.40735 -1.21518,1.26582 -1.70901,1.99998c-0.53046,0.78857 -1.38409,1.23459 -1.60681,2.11069c-0.22455,0.88327 -0.03601,1.58932 -0.03601,2.70532c0,0.76801 -0.02274,1.73413 0.05716,2.34567c0.16122,1.23428 0.37064,1.77689 0.64734,2.64282c0.28702,0.89825 0.59552,1.7955 0.89551,2.6955c0.20001,0.60001 0.59659,1.79984 0.79999,2.38934c0.29507,0.85522 0.68942,1.89389 1,2.57468c0.29019,0.63608 0.76657,1.65588 1.23599,2.436c0.49496,0.82257 1.02487,1.39297 1.53867,2c0.66949,0.79099 1.07559,1.40277 1.578,2.25714c0.41641,0.7081 0.89584,1.50137 1.26819,2.04285c0.56741,0.82513 1.17575,1.58127 1.76849,2.26401c0.55051,0.63409 1.21143,1.42224 1.57468,2.03598c0.46375,0.78351 0.91449,1.80737 1.23599,2.36401c0.56192,0.97284 1.19647,1.48679 1.38931,2.436c0.17929,0.88251 0.36334,1.69998 0.88934,2.49982l0.34268,0.77884l0.69464,0.40533l0.52002,0.67999" id="svg_14" stroke-width="2" stroke="#000" fill="none"/>
  <path t="25803,25813,25814,25814,25814,25814,25814,25814,25822,25839,25839,25855,25855,25870,25870,25887,25887,25903,25941" d="m432.5,298c19.66666,0.83334 20.86966,0.87866 21.89066,0.91599c0.85703,0.03134 1.56845,0.05029 2.151,0.08401c1.16211,0.06729 2.09021,0.4585 2.95834,0.83334c0.72372,0.3125 1.64188,0.56149 2.40451,0.814c0.97763,0.3237 1.75949,0.37799 2.71014,0.63666l0.58084,0.36334l0.8685,0.37799l0.436,0.56033" id="svg_15" stroke-width="2" stroke="#000" fill="none"/>
  <path t="26534,26573,26586,26605,26621,26621,26638,26638,26638,26655,26655,26655,26655,26672,26672,26672,26672,26672,26688,26688,26688,26688,26688,26705,26705,26705,26705,26722,26722,26722,26722,26722,26736,26736,26736,26736,26736,26736,26736,26753,26753,26753,26753,26753,26769,26770,26770,26770,26770,26785,26786,26786,26786,26786,26786,26786,26803,26803,26803,26803,26803,26803,26819,26820,26820,26820,26820,26820,26836,26836,26836,26836,26836,26836,26836,26852,26853,26853,26853,26853,26853,26853,26853,26869,26870,26870,26870,26870,26870,26870,26885,26886,26886,26886,26886,26886,26902,26903,26903,26903,26903,26903,26903,26903,26903,26919,26920,26920,26920,26920,26920,26936,26936,26936,26936,26936,26953,26953,26953,26953,26953,26969,26970,26970,26970,26970,26970,26986,26986,26986,26986,26986,26986,26986,26986,27002,27002,27003,27003,27003,27019,27020,27020,27020,27020,27035,27036,27036,27036,27053,27053,27053,27053,27070,27070,27070,27070,27086,27086,27086,27086,27086,27103,27103,27103,27119,27120,27120,27120,27136,27136,27136,27153,27153,27153,27153,27170,27170,27170,27186,27186,27246,27253" d="m464.5,252c1.70001,0 2.70001,0 3.52084,0c0.96582,0 1.72583,0.00262 2.64581,0c0.7905,-0.00226 1.65045,0.01314 2.83334,-0.16667c0.60699,-0.09227 1.53812,-0.35051 2.21432,-0.48067c1.11392,-0.21442 1.95441,-0.27975 2.84702,-0.31667c0.92355,-0.03819 1.3905,-0.03374 2.772,-0.036c0.88132,-0.00143 1.73065,0 2.556,0c0.80933,0 2.01065,0 2.81067,0c0.79999,0 1.59998,0.00099 2.79999,0c0.80399,-0.00067 1.63208,-0.00714 2.0625,-0.02083c0.90927,-0.0289 2.43777,-0.1431 3.00134,-0.2005c0.58713,-0.0598 1.80151,-0.2037 2.41531,-0.27867c0.60889,-0.07436 1.78229,-0.22763 2.85419,-0.33333c0.92703,-0.09142 1.74377,-0.13857 2.496,-0.15601c0.73584,-0.01706 1.91403,-0.00552 2.79398,-0.01517c0.96011,-0.01053 1.47067,-0.01834 2.55002,-0.08083c1.16092,-0.0672 1.7699,-0.13063 3.03198,-0.26733c0.64566,-0.06993 1.29459,-0.14809 1.94403,-0.222c0.64526,-0.07343 2.51697,-0.26335 3.10767,-0.304c1.12805,-0.07762 1.67108,-0.09331 2.72162,-0.14667c0.51245,-0.02603 2.02197,-0.13605 2.52155,-0.196c1.00568,-0.12068 1.51007,-0.20712 2.53583,-0.35333c0.52094,-0.07426 2.13025,-0.26465 2.68585,-0.304c1.14349,-0.08098 1.73547,-0.09599 2.34064,-0.12134c1.25635,-0.05263 1.91022,-0.07294 3.27081,-0.16667c0.70959,-0.04889 1.43353,-0.11557 2.16754,-0.18599c0.73932,-0.07092 1.47803,-0.15038 2.93665,-0.29468c0.70905,-0.07014 2.06213,-0.19147 2.69818,-0.23116c1.19672,-0.07466 1.76691,-0.08891 2.32263,-0.10068c1.08521,-0.02298 1.62305,-0.01857 3.26355,-0.021c0.56616,-0.00084 1.73553,-0.00818 2.34064,-0.02066c0.62024,-0.01279 1.25775,-0.01332 3.27081,-0.14584c0.70978,-0.04672 1.43365,-0.11546 2.16754,-0.19049c0.7395,-0.07561 1.47864,-0.16107 2.21246,-0.25351c0.72449,-0.09126 1.43524,-0.17842 3.422,-0.48917c0.60797,-0.09509 1.18835,-0.19751 2.28137,-0.37933c0.5152,-0.08569 1.49091,-0.26317 2.862,-0.39949c0.86707,-0.08621 1.2962,-0.09229 2.14667,-0.14667c0.85889,-0.05492 2.1969,-0.19077 3.13184,-0.32733c0.47925,-0.06999 1.4527,-0.22754 1.94733,-0.29468c1.49329,-0.20271 2.49933,-0.27153 3.00897,-0.29999c1.04871,-0.05856 1.59497,-0.06923 2.74249,-0.13667c1.24463,-0.07315 1.90814,-0.13435 2.59467,-0.20134c0.70319,-0.0686 1.41516,-0.1465 2.12854,-0.23549c1.40668,-0.17548 2.08502,-0.27087 3.35413,-0.47917c0.58142,-0.09543 1.63757,-0.29785 2.58337,-0.47917c0.86487,-0.16582 2.08215,-0.36658 2.8833,-0.4355c0.39954,-0.03438 1.19989,-0.07117 2,-0.08083c1.19995,-0.0145 2.39551,-0.0045 3.1792,-0.0045c0.76367,0 1.85419,0.00623 2.53546,-0.00133c0.96466,-0.0107 1.58868,-0.00624 2.78571,-0.22c0.92859,-0.16582 1.56763,-0.375 2.27032,-0.49467c1.16644,-0.19865 2.03436,-0.23488 2.92932,-0.26317c0.44922,-0.01421 1.33197,-0.02016 2.55701,-0.02083c1.07098,-0.00058 1.72168,0 2.94299,0c0.59869,0 1.47919,0 2.31464,0c1.00403,0 1.98273,0 2.54004,0c1.39734,0 1.80334,0 2.64532,0c0.84198,0 2,0 2.92853,0c0.95795,0 1.97015,0 2.73547,0l0.948,0l0.26666,0" id="svg_16" stroke-width="2" stroke="#000" fill="none"/>
  <path t="29771,29782,29782,29790,29802,29819,29819,29835,29835,29852,29852,29869,29869,29885,29885,29902,29902,29919,29919,29935,29935,29952,29952,29969,29969,29985,29985,30002,30019,30020,30020,30035,30035,30052,30052,30069,30070,30085,30085,30102,30102,30119,30119,30135,30135,30152,30152,30170,30170,30170,30186,30186,30202,30202,30219,30235,30235,30252,30269,30285,30286,30310" d="m383.5,231c0.94284,3.53833 0.99774,4.33833 1,5.364c0.00183,0.836 0,1.73618 0,2.52133c0,0.95067 0,1.716 0,2.71468c0,0.79999 0,1.79999 0,2.59999c0,0.99983 0,1.77917 0,2.77884c0,0.83099 0.03439,1.791 -0.02084,2.52116c-0.08865,1.17239 -0.52695,1.76973 -0.89514,2.70134c-0.25888,0.65503 -0.56305,1.61636 -0.80002,2.39999c-0.29517,0.97607 -0.20514,1.74532 -0.28848,2.64601c-0.086,0.92953 -0.42404,1.59225 -0.79684,2.35397c-0.48892,0.99899 -0.88474,1.7507 -1.39734,2.51468c-0.43253,0.64462 -0.59015,1.59512 -0.97067,2.39999c-0.38867,0.82214 -1.25589,1.16711 -1.94531,1.96802c-0.41214,0.47879 -0.84586,1.38245 -1.48535,2.10532c-0.56787,0.64191 -1.14178,1.13422 -2.05716,1.71518c-0.54471,0.34573 -1.55511,1.00262 -2.13217,1.52084c-0.56604,0.50833 -1.29623,1.32422 -1.836,1.76398c-0.81628,0.66507 -1.53561,1.01367 -2.48932,1.32666c-0.87427,0.28693 -1.4726,0.6853 -2.28534,1.05869c-0.88702,0.4075 -1.60001,0.85867 -2.39999,1.10934l-0.80002,0.49066" id="svg_17" stroke-width="2" stroke="#000" fill="none"/>
  <path t="32896,32926,32927,32943,32955,32972,32972,32988,32988,33005,33022,33022,33036,33054,33070,33086,33103,33103,33120,33136,33153,33170,33170,33186,33186,33203,33203,33220,33220,33236,33236,33253,33253,33270,33270,33286,33286,33303,33303,33322,33322,33336,33390" d="m203.5,256c-2.744,6.68799 -2.96873,7.37357 -3,8.39999c-0.02754,0.90408 0,1.76666 0,2.60001c0,0.97849 0,1.79868 0,2.63599c0,1.01669 0,1.71133 0,2.72803c0,0.93597 0,1.836 0,2.73599c0,0.89999 0,1.69998 0,2.60001c0,0.89999 -0.03226,1.83603 0.22133,2.62149c0.23129,0.7164 0.66339,1.67169 0.74268,2.46783c0.10353,1.03949 0.0127,1.85547 0.32133,2.69598c0.27402,0.74625 0.83063,1.70685 1.10399,2.30402c0.47221,1.03156 0.52795,1.86511 1.05734,2.62134c0.37117,0.53024 1.20599,1.242 1.728,1.76398c0.80385,0.80383 1.3045,1.3045 2.02533,2.02402l0.60001,0.51599l0.84283,0.33801l0.52383,0.78067" id="svg_18" stroke-width="2" stroke="#000" fill="none"/>
  <path t="34112,34142,34154,34154,34170,34185,34203,34219,34219,34245,34278,34289,34302,34302,34319,34335,34336,34352,34352,34369,34369,34386,34402,34426,34441,34457,34478,34494,34514,34514,34529,34546,34553,34570,34585,34585,34602,34602,34603,34619,34619,34635,34635,34635,34653,34653,34653,34653,34669,34669,34669,34685,34685,34685,34685,34702,34702,34702,34719,34719,34719,34719,34719,34735,34735,34735,34735,34752,34752,34752,34752,34752,34769,34769,34769,34769,34785,34785,34785,34785,34785,34803,34803,34803,34803,34803,34803,34819,34819,34819,34819,34819,34836,34836,34836,34836,34836,34852,34853,34853,34913,34914,34914" d="m208.5,252c3.18567,-3.77583 4.05083,-4.30084 4.7,-4.64734c0.84938,-0.45335 1.83888,-0.29202 2.60001,-0.70532c0.74622,-0.4052 1.4771,-0.7708 2.3,-1.222c0.78012,-0.42775 1.75006,-0.29367 2.5,-0.64667c0.77553,-0.36504 1.5368,-0.73969 2.55716,-0.78317c0.7485,-0.03191 1.74065,-0.28177 2.50684,-0.57016c0.8136,-0.30624 1.63466,-0.42467 2.536,-0.42534c0.90001,-0.00066 1.8,0 2.7,0c0.90001,0 1.8,0 2.70001,0c0.89999,0 1.7,0 2.59999,0c0.90001,0 1.82085,-0.02579 2.60451,0.35266c0.88887,0.42926 1.71616,0.63692 2.6955,0.64734c0.79996,0.00851 1.60001,0 2.60001,0c0.79999,0 1.80348,-0.01711 2.44167,0.02083c0.73055,0.04343 1.92938,0.25679 2.61966,0.41518c0.72591,0.16656 1.45772,0.35936 2.85333,0.76266c0.65015,0.18788 1.26347,0.42183 2.48534,0.63466c0.89372,0.15567 1.5036,0.13438 2.39999,0.25067c1.20773,0.15669 1.8056,0.36421 2.75717,0.56334c1.00473,0.21025 1.72781,0.27342 2.47882,0.32733c0.77435,0.05557 1.56903,0.08022 2.76401,0.24666c0.80298,0.11183 1.59799,0.29004 2.39999,0.42601c1.19727,0.20299 1.99973,0.27264 2.80002,0.32733c0.79971,0.05464 1.60416,0.07704 2.79999,0.24683c0.80338,0.11406 1.60147,0.29303 2.39999,0.483c1.2023,0.28603 2.00183,0.49905 2.82135,0.6955c0.84976,0.2037 1.29086,0.31027 2.71201,0.60001c0.50861,0.10368 1.57193,0.30035 2.11731,0.39999c1.09857,0.20071 1.64594,0.2901 3.216,0.60001c0.49097,0.09691 1.42007,0.29544 2.29169,0.5c0.83368,0.19565 2.0419,0.49904 2.84033,0.7c0.79089,0.19905 1.5668,0.39456 2.31598,0.60001c1.06583,0.29228 1.72369,0.5 2.63867,0.8l1.08002,0.39999l0.69598,0.2955l0.69467,0.34734" id="svg_19" stroke-width="2" stroke="#000" fill="none"/>
  <path t="36691,36714,36714,36714,36714,36725,36725,36735,36746,36757,36785,36785,36817,36851,36869,36869,36886,36903,36918,36919,36936,36936,36952,36953,36969,36969,36986,36986,37002,37003,37019,37035,37036,37053,37053,37053,37069,37069,37086,37086,37086,37102,37102,37103,37103,37118,37119,37119,37136,37136,37136,37152,37153,37153,37168,37169,37169,37186,37186,37186,37186,37203,37203,37203,37203,37219,37219,37219,37219,37236,37236,37236,37253,37253,37253,37253,37269,37269,37269,37286,37286,37286,37303,37303,37303,37303,37303,37319,37319,37336,37336,37336,37336,37352,37353,37353,37353,37369,37369,37369,37385,37386,37386,37403,37403,37403,37418,37419,37419,37419,37436,37436,37436,37436,37453,37453,37453,37469,37469,37469,37488,37488,37529" d="m218.5,315c8.57066,-1.97833 9.08675,-2.10822 9.96266,-2.35333c0.99765,-0.27917 2.065,-0.57834 2.83467,-0.64532c0.90115,-0.07843 1.66573,-0.57498 2.50267,-0.94867c0.77216,-0.34476 1.63707,-0.53473 2.34283,-1.10535c0.73108,-0.59109 1.35716,-0.94733 2.15717,-0.94733c0.89999,0 1.836,0 2.68533,0c0.72533,0 1.71449,0 2.67867,0c0.952,0 1.72,0 2.672,0c0.76534,0 1.76401,0 2.564,0c0.99867,0 1.76401,0 2.84283,0c0.8575,0 1.5715,0 2.5265,0c0.7515,0 1.548,0 2.778,0c0.67801,0 1.87445,-0.01251 2.68866,0.01068c0.57501,0.01639 1.76761,0.13937 2.664,0.34198c0.60263,0.13623 1.49405,0.40076 2.39984,0.52585c0.88519,0.12225 1.7431,0.1077 2.77884,0.12164c0.92148,0.01242 1.61139,0.05667 2.60666,0.28384c0.84134,0.19205 1.40942,0.42117 2.61465,0.59451c0.89487,0.12872 1.49997,0.11316 2.70001,0.12149c0.90451,0.00626 1.52341,-0.00995 2.48532,0.08533c1.03983,0.103 1.76947,0.26239 2.51468,0.43552c0.7496,0.17416 1.83279,0.48108 2.84283,0.77466c0.63599,0.18484 1.54968,0.45767 2.45715,0.58301c0.89557,0.12369 1.80002,0.11923 2.70001,0.12149c0.89999,0.00223 1.79999,0 2.39999,0c1.20001,0 2.10001,-0.00003 2.70001,0c1.20016,0.00009 2.11163,-0.00726 2.73599,0.03601c1.33386,0.09241 2.04758,0.24335 2.77866,0.38931c0.72495,0.14474 1.40842,0.34387 2.616,0.48935c0.97977,0.11804 1.936,0.08533 2.73102,0.08533c0.88501,0 1.52499,-0.00485 2.55966,0.00015c1.10403,0.00534 1.85516,0.01331 2.59467,0.08517c1.06601,0.10361 2.03665,0.34265 2.63733,0.48935c1.07886,0.26346 1.79291,0.3924 2.69934,0.42084c0.96854,0.0304 1.79401,0.00449 2.70898,0.00449c1.005,0 1.72235,0 2.46368,0c1.12201,0 2.20804,-0.00635 2.888,0.00134c0.94516,0.01068 1.54245,-0.02679 2.80267,0.28265c0.69659,0.17105 1.35806,0.49094 2.36798,0.63068c0.81082,0.11218 1.63202,0.08398 2.85434,0.08533l0.80002,0l0.90448,0" id="svg_20" stroke-width="2" stroke="#000" fill="none"/>
  <path t="38995,39010,39010,39010,39020,39021,39036,39036,39053,39053,39069,39069,39069,39069,39086,39086,39105,39105,39121,39182,39202,39202" d="m300.5,256c0.50665,0 1.54166,0 2.29834,0c1.035,0 2.00385,-0.12538 2.80182,0.22134c0.71817,0.31204 1.56485,0.74612 2.41867,0.77417c1.12305,0.0369 1.78201,0.00449 2.46033,0.00449c0.9675,0 1.9675,-0.00058 2.82169,0c0.96582,0.00067 1.67831,0.02084 2.83484,0.22134l0.53098,0.612l0.83334,0.33331l0.64282,0.53784" id="svg_21" stroke-width="2" stroke="#000" fill="none"/>
  <path t="39655,39670,39670,39670,39670,39688,39725,39750,39765,39773,39773,39786,39803,39819,39819,39837,39854,39854,39870,39870,39888,39888,39903,39903,39918,39918,39935,39935,39952,39952,39968,39968,39968,39968,39985,39985,39985,40002,40002,40002,40002,40002,40018,40018,40018,40018,40035,40036,40036,40036,40052,40052,40052,40052,40052,40068,40068,40069,40085,40085,40085,40102,40102,40133,40133,40169,40238,40238" d="m323.5,260c-10.76349,6.37082 -11.26593,6.67969 -12.004,7.17334c-0.78635,0.52594 -1.80182,0.73199 -2.38535,1.26266c-0.68597,0.62381 -0.61066,1.664 -0.61066,2.564c0,0.79999 0,1.70001 0,2.63599c0,0.84802 0.15408,1.72473 -0.01068,2.72803c-0.14294,0.87039 -0.7261,1.42966 -0.90399,2.40399c-0.13199,0.72287 -0.08539,1.89865 -0.08533,2.71115c0.00009,0.84216 -0.08438,1.73578 0.284,2.63684c0.2774,0.67853 0.6301,1.5466 0.76868,2.28851c0.18796,1.00623 0.5704,1.82639 0.94733,2.76215c0.31494,0.78189 0.4729,1.35648 0.88535,2.14935c0.53922,1.03659 1.15216,1.71387 1.51917,2.25098c0.62445,0.91388 1.00513,1.6813 1.38483,2.51968c0.1955,0.43164 0.56223,1.30914 1.04401,2.57999c0.28787,0.7594 0.51669,1.46112 0.79199,2.07602c0.49759,1.1113 1.02924,1.81497 1.41632,2.27817c0.63358,0.75821 1.38251,1.61957 1.91101,2.28448c0.55029,0.69232 0.81552,1.04919 1.36334,1.72668c0.75366,0.93204 1.42841,1.70587 1.87332,2.11066c0.97012,0.88257 1.60464,1.23248 2.21066,1.55283c0.9892,0.52289 1.78986,0.86465 2.57849,1.40433c0.63315,0.43326 1.50067,0.90018 2.02151,1.33585l0,-0.79199" id="svg_22" stroke-width="2" stroke="#000" fill="none"/>
  <path t="41791,41806,41806,41814,41825,41840,41840,41853,41853,41869,41870,41870,41870,41886,41886,41886,41886,41903,41903,41903,41903,41903,41903,41919,41919,41919,41919,41919,41919,41936,41936,41936,41936,41936,41953,41953,41953,41953,41953,41969,41969,41969,41986,41986,41986,41986,42003,42003" d="m169.5,294c2.5955,0.94733 3.54236,1.02188 4.364,1.42532c0.87012,0.42725 1.73187,0.80215 2.272,1.18533c0.84406,0.59879 1.60239,1.00897 2.53067,1.38934c0.78386,0.3212 1.36528,0.49506 2.23466,0.88535c0.91164,0.40927 1.50604,0.77902 2.16116,1.11465c0.70265,0.35999 1.9326,0.85043 2.89084,1.116c0.50673,0.14044 1.56799,0.38184 2.10666,0.50934c1.07437,0.25433 2.11301,0.52277 3.07066,0.85999c0.46274,0.16293 1.35034,0.5314 2.2175,0.91919c0.43544,0.19473 1.77072,0.80115 2.70451,1.19098c0.47144,0.19681 1.42009,0.57361 1.89465,0.74734c1.38063,0.50543 2.26613,0.76859 3.09534,1.03183c0.77605,0.24637 1.51643,0.44861 2.41451,0.94666c0.81325,0.45102 1.21687,0.91629 2.2095,1.51202c0.75815,0.45499 1.608,0.72 2.14932,0.88l1.21783,0.23398l0.74734,0.10535" id="svg_23" stroke-width="2" stroke="#000" fill="none"/>
  <path t="43299,43314,43314,43321,43322,43337,43352,43352,43352,43352,43373,43373,43373,43373,43390,43390,43390,43390,43405,43405,43405,43405,43405,43419,43419,43419,43442,43442,43442,43457,43471,43554,43554,43569,43586,43603,43603,43620,43636,43636,43654,43654,43734,43745,43755,43769,43785,43786,43801,43801,43818,43818,43818,43836,43836,43836,43851,43851,43852,43852,43869,43869,43869,43869,43885,43885,43885,43886,43901,43901,43901,43901,43918,43918,43918,43918,43935,43935,43957,43957,44054" d="m197.5,309c-1.2,4.228 -1.55449,5.17163 -2.09984,5.97849c-0.42961,0.63562 -0.82008,1.47055 -1.23349,2.35486c-0.33047,0.70691 -0.7041,1.21109 -1.26933,2.06934c-0.5929,0.90024 -0.99734,1.49731 -1.39734,2.09732c-0.39999,0.60001 -1.20273,1.79837 -1.60001,2.40451c-0.40277,0.61453 -0.81357,1.24469 -1.39999,2.26215c-0.40956,0.71057 -0.79301,1.4519 -1.2,2.172c-0.3933,0.69586 -0.98344,1.63116 -1.58934,2.38934c-0.53917,0.67471 -1.20081,1.46439 -1.57466,2.06134c-0.44882,0.71667 -1.13164,1.51416 -1.51466,2.31067c-0.40952,0.85159 -1.02106,1.72369 -0.57967,2.37915c0.4978,0.73923 1.6057,0.8894 2.25833,1.23685c0.78683,0.41888 1.71072,0.51825 2.54733,0.98849c0.79562,0.4472 1.41533,1.15659 2.25267,1.28482c0.9532,0.14597 1.49579,-0.58124 2.10449,-1.09915c0.64627,-0.5499 0.9973,-1.29825 1.4955,-2.29016c0.30109,-0.59946 0.78035,-1.61041 1.21066,-2.39999c0.33157,-0.6084 0.90445,-1.40561 1.42534,-2.01068c0.56166,-0.65244 1.17677,-1.34647 1.76401,-2.14648c0.409,-0.55719 0.80397,-1.14468 1.59982,-2.34283c0.39767,-0.59869 0.7968,-1.18976 1.14301,-1.80002c0.67018,-1.18134 0.90749,-1.80328 1.2825,-2.73599c0.26074,-0.6485 0.69247,-1.68695 1.02733,-2.41666c0.34372,-0.74902 0.70981,-1.48804 1.18066,-2.58069c0.29074,-0.67468 0.62711,-1.612 0.86217,-2.14783c0.46779,-1.06638 1.0045,-1.767 1.50317,-2.50284l0.36533,-0.69064l0.34933,-0.93735" id="svg_24" stroke-width="2" stroke="#000" fill="none"/>
  <path t="47611,47642,47642,47655,47662,47686,47710,47738,47752,47769,47790,47790,47814,47826,47842,47858,47874,47874,47886,47902,47934,47952,47969,47986,47986,48006,48022,48022,48038,48054,48073,48090,48106,48123,48123,48140,48156,48156,48172,48172,48190,48205,48206,48221,48221,48239,48239,48255,48255,48272,48272,48288,48304,48305,48322,48338,48338,48356,48371,48389,48389,48389,48405,48405,48422,48422,48438,48438,48452,48452,48471,48488,48488,48501,48502,48502,48521,48521,48521,48538,48554,48571,48571,48588,48588,48604,48604,48621,48621,48636,48655,48655,48671,48690,48690,48701,48721,48737,48737,48754,48754,48771,48788,48804,48804,48821,48821,48835,48836,48855,48871,48871,48888,48888,48905,48921,48938,48954,48954,48971,48986,49004,49042,49054,49071" d="m192.5,322c-4.85867,-2.74399 -5.79466,-2.99799 -6.7,-3c-0.90001,-0.00198 -1.8,0 -2.7,0c-0.90001,0 -1.80377,-0.08212 -2.70001,0.00015c-0.91144,0.08368 -1.46042,0.65347 -2.2,1.29535c-0.66669,0.57861 -1.31227,1.06122 -1.98534,1.62048c-0.66916,0.55603 -1.53883,0.52451 -2.27866,1.10934c-0.67822,0.53613 -1.18558,1.28964 -1.72,1.89066c-0.57449,0.64606 -0.97946,1.30356 -1.51733,1.884c-0.67224,0.72543 -1.51979,1.31345 -1.91333,2c-0.42065,0.73383 -0.28534,1.70001 -0.28534,2.60001c0,0.89999 0,1.80002 0,2.70016c0,0.78519 0,1.72519 0,2.73318c0,0.79199 0,1.65067 0,2.51398c0,0.90002 -0.07361,1.82443 0.02083,2.65268c0.11317,0.99255 0.65076,1.5929 0.89517,2.48401c0.23119,0.84293 0.45328,1.75507 0.88533,2.39999c0.50861,0.75922 0.88873,1.63992 1.17334,2.48001c0.28618,0.8447 0.82599,1.43665 1.52533,2.13599c0.69933,0.69934 1.31627,1.17566 2.10001,1.52533c0.8299,0.37027 1.55553,0.99393 2.23599,1.37466c0.75362,0.42166 1.54662,0.83441 2.328,1.164c0.93478,0.39429 1.72,0.43533 2.672,0.436c0.76534,0.00055 1.75951,0 2.67867,0c0.86,0 1.80701,0 2.52701,0c1.125,0 1.911,0 2.733,0c1.05865,0 1.76366,0 2.73866,0c0.96584,0 1.79117,0 2.808,0c0.67867,0 1.67464,0.11035 2.56267,-0.08533c0.79622,-0.17545 1.50906,-0.55557 2.35883,-1.21466c0.59076,-0.45822 1.23174,-1.22644 1.95717,-1.89868c0.58046,-0.5379 1.51387,-0.75885 2.0955,-1.51117c0.44646,-0.57748 0.58719,-1.6618 0.70583,-2.49017c0.13138,-0.91733 0.74408,-1.53098 1.19734,-2.284c0.40292,-0.6694 0.75862,-1.62787 0.80133,-2.616c0.03886,-0.89914 -0.0294,-1.65781 0.0045,-2.55716c0.02821,-0.74866 0.28697,-1.73871 0.57016,-2.50684c0.34926,-0.9473 0.42534,-1.836 0.42534,-2.59317c0,-0.89551 0,-1.75882 0,-2.72198c0,-0.92084 0.13657,-1.87747 -0.284,-2.72086c-0.32993,-0.66162 -0.81444,-1.48788 -1.51733,-1.884c-0.8166,-0.46021 -1.588,-0.89066 -2.19867,-1.41599l-0.64734,-0.55267" id="svg_26" stroke-width="2" stroke="#000" fill="none"/>
  <path t="51256,51279,51279,51287,51304,51321,51322,51336,51336,51353,51353,51370,51370,51386,51386,51386,51402,51402,51402,51419,51419,51419,51435,51435,51435,51452,51452,51469,51469,51485,51485,51502,51502,51519,51519,51519,51519,51535,51535,51535,51552,51552,51569,51569,51569,51585,51585,51602,51602,51602,51619,51619,51619,51619,51635,51635,51652,51669,51669,51686,51686,51702,51702,51719,51735,51735,51735,51752,51752,51769,51786,51802,51819,51835,51852,51869,51869,51885,51885,51902,51922,51990,52006,52021,52038,52038,52052,52070,52070,52085,52085,52102,52102,52119,52119,52136,52154,52154,52169,52186,52202,52219,52235,52235,52299,52319,52334,52342,52366,52366,52378,52393,52410,52419,52434,52452,52469,52469,52484,52502,52502,52518,52519,52534,52535,52551,52551,52569,52584,52584,52601,52601,52618,52619,52635,52635,52652,52652,52668,52669,52684,52685,52701,52718,52719,52719,52734,52734,52751,52751,52768,52769,52784,52784,52801,52802,52802,52818,52819,52819,52836,52836,52853,52854,52868,52869,52884,52901,52918,52919,52935,52935,52951,52968,52990,52990,53010,53018,53019,53034" d="m38.5,177c2.78933,0 3.51468,-0.00552 4.47917,0c0.93155,0.00534 1.83933,0.22833 2.52083,0.5c0.97472,0.38855 1.75335,0.4682 2.65717,0.5045c0.74858,0.03008 1.75412,0.25435 2.54284,0.60617c0.81253,0.36244 1.6046,0.80275 2.25717,1.08932c0.95569,0.41969 1.75931,0.72006 2.59016,0.94284c1.02185,0.274 1.73227,0.29659 2.63667,0.44116c1.00702,0.16098 1.80968,0.44145 2.632,0.632c0.99068,0.22955 1.83903,0.22693 2.8,0.28532c0.77116,0.04686 1.5258,0.39375 2.2885,0.64601c0.98018,0.32419 1.83793,0.34073 2.76216,0.51933c0.79734,0.15408 1.6394,0.42888 2.23467,0.54933c1.18959,0.24071 2.07767,0.2718 2.91333,0.28267c0.99992,0.013 1.89092,-0.03609 2.88533,0.22266c0.61332,0.15959 1.38939,0.54691 2.4045,0.726c0.84608,0.14928 1.81791,0.27042 2.6315,0.47801c0.57532,0.14679 1.76079,0.43858 2.6595,0.5175c0.86641,0.07608 1.41917,0.05649 2.64283,0.05716c0.8,0.00043 1.83633,0 2.78317,0c0.69933,0 1.68101,-0.05315 2.46783,0.01067c1.05214,0.08533 1.63496,0.61104 2.51966,0.93666c0.98309,0.36183 1.69392,0.41357 2.44034,0.62733c1.10423,0.31624 1.84941,0.41182 2.65067,0.85068c0.82249,0.45049 1.82491,0.31839 2.47867,0.79599c0.69908,0.51071 1.3707,0.63277 2.2215,1c0.71891,0.31032 1.55116,0.74881 2.41583,0.77734c0.96264,0.03175 1.784,0.00142 2.684,0.00133c0.89983,-0.00009 1.59048,-0.34421 2.0215,-1.10001c0.38157,-0.6691 1.19067,-1.28804 1.8785,-2.00017c0.50916,-0.52713 1.08925,-1.39015 1.5,-2.07449c0.48721,-0.81172 1.06577,-1.4157 1.316,-2.30933c0.23569,-0.84172 0.58076,-1.68471 0.91734,-2.51601c0.30658,-0.7572 0.17708,-1.70006 0.16666,-2.60001c-0.01042,-0.90018 -0.46194,-1.63638 -0.83334,-2.39999c-0.36668,-0.75391 -0.71027,-1.74121 -1.56667,-1.964c-0.8717,-0.22678 -1.85729,0.12772 -2.7,-0.25732c-0.6693,-0.3058 -1.52345,-0.76018 -2.3,-1.20401c-0.72393,-0.41376 -1.27026,-1.12143 -1.95717,-1.5175c-0.81853,-0.47195 -1.67692,-0.38834 -2.44283,-0.77316c-0.78593,-0.39488 -1.69297,-0.21037 -2.6045,-0.34116c-1.00938,-0.14482 -1.73248,-0.60327 -2.57417,-0.82133c-0.75777,-0.19632 -1.67404,-0.11237 -2.53733,-0.12151c-0.98417,-0.01042 -1.79745,-0.24103 -2.65867,-0.57466c-0.93327,-0.36154 -1.71069,-0.38374 -2.66133,-0.436c-0.76781,-0.04221 -1.75768,-0.35989 -2.364,-0.564c-0.99038,-0.33337 -1.77901,-0.41492 -2.77867,-0.42534c-0.90529,-0.00943 -1.8467,0.00716 -2.53733,0c-1.005,-0.01042 -2.02763,-0.21799 -2.73466,-0.42534c-0.74504,-0.21849 -1.77681,-0.52611 -2.49751,-0.57016c-0.90735,-0.05545 -1.86465,-0.04831 -2.65183,-0.2885c-0.81411,-0.24841 -1.79583,-0.63637 -2.6,-0.69518c-0.99755,-0.07295 -1.81067,-0.02083 -2.68533,-0.02083c-0.99866,0 -1.81467,0 -2.63067,0c-0.99733,0 -1.8388,0.05174 -2.8,-0.00133c-0.77141,-0.04259 -1.6942,-0.46298 -2.4,-0.71468c-0.94583,-0.33728 -1.70401,-0.78169 -2.484,-1.11732c-0.71128,-0.30608 -1.65267,-0.16667 -2.516,-0.16667c-0.96317,0 -1.89467,0 -2.80534,0c-0.85333,0 -1.79333,0 -2.67867,0l-0.8,0l-0.9,0" id="svg_27" stroke-width="2" stroke="#000" fill="none"/>
  <path t="54879,55006,55022,55051,55071,55071,55087,55104,55105,55105,55118,55118,55134,55134,55134,55151,55151,55168,55168,55184,55184,55185,55201,55201,55218,55218,55218,55218,55234,55234,55251,55251,55268,55284,55284,55284,55301,55301,55301,55318,55318,55318,55334,55334,55334,55351,55351,55351,55351,55368,55368,55368,55384,55384,55402,55402,55419,55419,55419,55419,55435,55435,55462,55462,55469,55469,55484,55484,55501,55501,55501,55518,55518,55534,55534,55551,55551,55551,55568,55568,55584,55584,55584,55584,55601,55601,55618,55618,55778" d="m325.5,182c1.79999,0 2.38715,0.31448 3.16666,0.83333c0.70746,0.47089 1.60464,0.30811 2.375,0.66667c0.9704,0.45166 1.71924,0.47795 2.51016,0.4955c1.02643,0.02278 1.94211,-0.05511 2.94818,0.17117c0.61285,0.13785 1.38107,0.5656 2.39999,0.748c0.79092,0.14159 1.80267,0.03796 2.60001,0.10616c1.0069,0.08612 1.8053,0.40361 2.39999,0.68367c1.01074,0.47601 1.61066,0.8195 2.76666,1.2955c0.51175,0.21071 1.32852,0.46262 2.064,0.8c0.98343,0.45114 1.62637,1.04233 2.42203,1.4955c0.67487,0.38437 1.74048,0.64392 2.68066,0.87117c0.68311,0.16512 1.46088,0.42087 2.5,0.83333c0.71597,0.28419 1.56461,0.69511 2.36682,1.10017c0.82321,0.41566 1.48944,0.77803 2.22134,1.22116c0.81934,0.49606 1.36795,0.8932 2.57849,1.51199c0.58899,0.30107 1.4798,0.64421 2.04285,0.86217c1.0368,0.40134 1.70001,0.75444 2.55582,1.01917c0.98212,0.30379 1.81931,0.27103 2.80267,0.57068c0.63397,0.19318 1.76367,0.71896 2.28265,0.91466c0.81351,0.30676 1.63599,0.59023 2.63068,0.99867c0.66721,0.27397 1.68567,0.63281 2.47467,0.776c1.04446,0.18956 1.67822,0.59515 2.53217,1.12517c0.67596,0.41956 1.6759,0.74915 2.47849,0.87483c0.79773,0.12492 1.59253,0.33078 2.40002,0.59999c0.99155,0.33058 1.81647,0.34616 2.79999,0.59201c0.81891,0.20471 1.39789,0.5421 2.40134,1.03333c0.61823,0.30264 1.76187,0.80923 2.28265,0.99867c0.81088,0.29497 1.62561,0.5509 2.62933,0.71733c0.83566,0.13857 1.80133,0.368 2.48535,0.8l0.90134,0.2795" id="svg_28" stroke-width="2" stroke="#000" fill="none"/>
  <path t="61104,61118,61119,61119,61119,61119,61119,61127,61127,61127,61127,61127,61139,61155,61155,61171,61171,61171,61171,61186,61186,61186,61186,61203,61203,61203,61203,61219,61219,61219,61219,61236,61236,61236,61236,61253,61253,61253,61269,61269,61269,61269,61286,61286,61286,61286,61286,61303,61303,61303,61319,61319,61319,61336,61336,61336,61336,61336,61353,61353,61353,61371,61371,61371,61372,61386,61386,61386,61403,61403,61403,61403,61419,61419,61419,61419,61436,61436,61436,61453,61453,61453,61453,61469,61469,61469,61486,61486,61486,61486,61503,61503,61503,61503,61503,61519,61519,61519,61536,61536,61536,61553,61553,61553,61569,61569,61569,61569,61586,61586,61586,61603,61603,61603,61619,61619,61619,61636,61636,61636,61636,61653,61653,61653,61668,61668,61669,61686,61686,61702,61703,61703,61718,61719,61719,61735,61735,61752,61753,61753,61768,61769,61785,61786,61802,61802,61821,61821,61821,61836,61836,61853,61853,61868,61868,61885,61885,61886,61906,61906,61926,61942,61958,61974,61974,61994,62251,62275,62288,62311,62319,62336,62353,62369,62394,62414,62430,62438,62454,62469,62486,62503,62503,62519,62519,62536,62536,62555,62569,62586,62586,62603,62634,62634,62638,62654,62669,62686,62686,62703,62703,62703,62703,62719,62719,62719,62736,62736,62736,62736,62736,62753,62753,62753,62753,62770,62770,62770,62771,62771,62786,62786,62786,62786,62786,62786,62786,62803,62803,62803,62803,62803,62819,62819,62819,62819,62819,62837,62838,62838,62838,62838,62838,62838,62853,62853,62853,62853,62853,62869,62869,62869,62869,62869,62886,62886,62886,62886,62886,62903,62903,62903,62903,62903,62903,62919,62919,62919,62919,62919,62936,62936,62936,62936,62936,62953,62953,62953,62953,62969,62969,62969,62969,62986,62986,62986,62986,63003,63003,63003,63003,63003,63019,63019,63019,63019,63036,63036,63036,63036,63053,63053,63053,63069,63069,63069,63069,63086,63086,63086,63103,63103,63119,63119,63136,63136,63153,63153,63169,63169,63186,63203,63203,63219,63219,63219,63235,63236,63252,63252,63268,63268" d="m327.5,312c0.89267,0.66415 1.89151,1.06378 2.47067,1.28665c0.61215,0.23557 1.24469,0.47507 1.884,0.71252c1.81018,0.67233 2.33563,0.86295 3.25049,1.18198c0.7475,0.26068 1.60089,0.61667 2.58051,0.76169c1.00909,0.14938 1.69534,0.1467 2.57883,0.49982c0.95453,0.38153 1.65881,0.73163 2.43951,0.98935c0.78802,0.26013 1.59262,0.41492 2.38531,0.50665c1.151,0.13318 2.24658,0.21399 2.92667,0.34534c0.66144,0.12775 1.63104,0.39728 2.65067,0.54935c0.7142,0.10654 1.46024,0.12161 2.58069,0.21933c1.08783,0.09488 1.76892,0.22443 2.73181,0.44733c0.61737,0.14291 1.81995,0.3869 2.42084,0.44733c0.89883,0.09036 2.10208,0.20917 2.70267,0.33667c0.9425,0.2001 1.60614,0.4003 2.73068,0.54935c0.83014,0.11005 1.707,0.13593 2.57999,0.19199c0.83368,0.05353 1.92883,0.17007 2.78934,0.39999c0.74731,0.19968 1.71677,0.47839 2.54401,0.53867c0.59897,0.04364 1.92001,0.03217 2.63733,0.03735c0.74136,0.00537 1.49301,0.00702 2.23199,0.08398c1.40512,0.14633 2.04465,0.35452 2.97949,0.56201c0.90149,0.20007 1.8038,0.31174 2.7045,0.34198c0.59973,0.02014 1.80133,0.01068 2.41068,0.01068c0.9465,0 1.95609,-0.00964 3.04199,0.00449c0.74747,0.00974 1.49918,0.01471 2.58069,0.16217c0.68503,0.09341 1.64264,0.34726 2.26215,0.48068c1.19897,0.25824 2.10419,0.32663 2.7045,0.34198c1.19968,0.03064 2.10001,0.01068 2.70001,0.01068c0.89999,0 2.10028,-0.00946 2.70001,0.01068c0.9007,0.03024 2.10126,0.20639 2.70898,0.34198c0.96454,0.21521 1.65744,0.39767 2.83368,0.526c0.86029,0.09384 1.30826,0.09149 2.20667,0.14667c0.88293,0.05423 2.11081,0.17883 2.83182,0.32733c0.96652,0.19907 2.04987,0.49634 2.76617,0.59467c0.67615,0.0928 1.87509,0.27042 2.68866,0.478c0.57535,0.14679 1.76175,0.42703 2.36401,0.48935c0.89752,0.0929 1.79999,0.08466 2.69998,0.08533c0.90002,0.00067 1.80002,-0.00226 2.70001,0c0.89551,0.00226 1.77493,-0.03409 2.83334,0.16666c0.72916,0.13831 1.41394,0.47525 2.5,0.66669c0.96329,0.1698 1.66653,0.15277 2.36133,0.16217c1.26236,0.01709 2.04401,0.00449 2.75351,0.00449c1.23581,0 1.77716,0 2.59915,0c1.26733,0 1.93185,-0.00671 2.95267,0c0.81073,0.00534 1.69202,0.05426 2.68399,0.284c0.82236,0.19043 1.62317,0.48331 2.63202,0.63068c0.67981,0.0993 1.85065,0.08533 2.63217,0.08533c0.7905,0 1.72626,-0.09317 2.53098,0.02084c1.02972,0.14587 1.70898,0.64035 2.72086,0.85767c0.78833,0.16931 1.79999,0.12149 2.59998,0.12149c0.80002,0 1.80002,0 2.60001,0c1,0 1.80002,0 2.80002,0c0.79999,0 1.79999,0 2.59998,0c0.80002,0 1.7955,0 2.54285,0c1.02118,0 1.85718,0 2.75717,0c0.89999,0 1.69998,0 2.60001,0c0.89999,0 1.79999,0 2.69998,0c0.89999,0 1.88113,0.13733 2.54733,-0.35266c0.68423,-0.50323 1.45267,-0.64734 2.35266,-0.64734c0.90002,0 1.80441,0.08868 2.70001,0c0.8457,-0.08374 1.28201,-0.95728 2.10001,-1c0.89877,-0.04694 1.65717,0 2.55716,0c0.94415,0 1.93832,0 2.68567,0c1.02118,0 1.85718,0 2.75732,0c0.78519,0 1.72519,0 2.73318,0c0.75598,0 1.66666,0 2.56665,0c0.89999,0 1.80917,0.04034 2.65601,-0.08533c1.0072,-0.14944 1.64005,-0.3461 2.34,-0.48935c0.72141,-0.14764 2.11911,-0.354 2.77866,-0.38931c0.97714,-0.05231 1.99203,-0.03223 2.71069,-0.03735c0.75067,-0.00537 1.52682,-0.01465 2.31598,-0.08398c1.20172,-0.10559 1.99869,-0.26733 2.79868,-0.41467c0.79999,-0.14734 1.99878,-0.34607 2.80402,-0.41599c0.82697,-0.07178 1.70453,-0.1012 2.65198,-0.16803c1.04468,-0.07367 1.60852,-0.13284 2.802,-0.26865c0.61823,-0.07034 1.24164,-0.1506 2.48401,-0.29468c0.60583,-0.07025 1.75702,-0.19946 2.802,-0.26733c0.94727,-0.06152 1.39337,-0.07111 2.24249,-0.08084c1.21344,-0.01395 2.01764,0.00146 2.84552,-0.01517c0.87616,-0.01761 1.82501,-0.06226 2.86798,-0.15598c1.15332,-0.10364 1.75806,-0.18536 2.37598,-0.25867c0.62408,-0.07404 1.86566,-0.22543 2.47205,-0.29068c1.15131,-0.12384 2.1969,-0.20737 3.15466,-0.24799c0.45544,-0.01932 1.341,-0.03375 2.664,-0.03601c0.9173,-0.00156 1.85864,0 2.33331,0c0.94733,0 2.33331,0 2.77881,0c0.87305,0 1.742,0 2.63104,0c1.42346,0 1.9328,0 2.99548,0c0.54535,0 1.64398,0 2.18933,0c1.57202,0 2.06232,0 2.99103,0c0.87262,0 1.70532,0 2.91431,0c0.79999,0 1.59998,0 2.40002,0c0.79999,0 1.99982,0 2.79547,0c0.78369,0 1.54736,0 2.63782,0c0.68268,0 1.66669,0 2.31934,0c1.36884,0 2.10449,0 2.86816,0c0.78369,0 1.97919,0 2.77917,0c0.79999,0 1.60004,0.00006 2.40002,0c1.19983,-0.00009 1.99579,0.00595 2.77917,-0.02084c0.7641,-0.02612 1.85858,-0.12299 2.86365,-0.33182c0.63953,-0.13287 1.54987,-0.40118 2.45715,-0.52585c0.89569,-0.12305 1.79999,-0.11923 2.70001,-0.12149c0.90002,-0.00223 1.79999,0 2.40002,0c1.19867,0 2.07916,0 2.91461,0c0.99872,0 1.83868,0 2.80139,0c0.76794,0 1.71997,0 2.48529,0c0.99866,0 1.79871,0 2.79736,0c0.76532,0 1.84863,0 2.76801,0c0.66931,0 1.83331,0 2.6333,0c0.79999,0 1.79999,0 2.60004,0c1,0 1.79999,0 2.7998,0l0.77936,0" id="svg_29" stroke-width="2" stroke="#000" fill="none"/>
  <path t="69512,69519,69519,69519,69519,69519,69519,69519,69538,69538,69538,69554,69554,69570,69571,69571,69588,69588,69603,69604,69621,69621,69638,69638,69655,69655,69670,69671,69687,69688,69704,69704,69724,69740,69740,69756,69756,69773,69788,69788,69804,69804,69821,69821,69838,69838,69838,69854,69869,69869,69888,69888,69902,69902,69921,69936,69936,69954,69954,69971,69971,69971,69987,69988,70003,70004,70021,70021,70037,70052,70052,70052,70069,70088,70088,70088,70104,70119,70119,70138,70138,70152,70152,70169,70169,70186,70186,70202,70219,70219,70219,70236,70236,70252,70252,70269,70269,70286,70286,70286,70302,70302,70319,70337,70337,70337,70352,70352,70368,70368,70386,70386,70401,70401,70401,70418,70418,70435,70435,70451,70452,70468,70468,70485,70486,70501,70501,70501,70518,70518,70518,70535,70535,70551,70551,70568,70568,70585,70586,70601,70601,70618,70635,70635,70652,70652,70668,70685,70701,70718,70718,70735,70735,70751,70751,70768,70768,70785,70785,70801,70801,70801,70818,70818,70819,70835,70835,70851,70852,70868,70868,70869,70885,70885,70901,70901,70918,70918,70935,70951,70951,70968,70968,70985" d="m343.5,340c-2.64951,0.66415 -3.19098,0.84882 -4.388,1.28665c-0.63373,0.23181 -1.27118,0.47202 -1.90051,0.71252c-0.60931,0.23285 -2.18839,0.84372 -2.96399,1.18649c-0.85446,0.37762 -1.74643,0.89056 -2.2475,1.33517c-0.85785,0.76117 -1.32556,1.30429 -1.84732,1.82648c-0.76767,0.76834 -1.37741,1.38599 -1.85269,2.13669c-0.42694,0.67432 -0.91611,1.48251 -1.39999,2.14133c-0.61966,0.84366 -1.03186,1.52664 -1.31598,2.49066c-0.22226,0.75409 -0.4314,1.54581 -0.78851,2.28851c-0.48108,1.00058 -0.95209,1.72955 -1.17401,2.57397c-0.21069,0.80173 -0.12149,1.77869 -0.12149,2.67868c0,0.74734 -0.00159,1.74152 0,2.50684c0.00226,1.07883 0.3078,1.88757 0.64734,2.59317c0.41135,0.85486 0.32819,1.66858 0.638,2.64282c0.26175,0.82303 0.70093,1.60712 1.11465,2.38934c0.38727,0.73221 0.90787,1.44629 1.60001,2.21066c0.57056,0.6301 0.87723,1.49127 1.02533,2.17465c0.2066,0.95316 0.73727,1.66608 1.49551,2.32535c0.61633,0.53592 1.33969,0.84448 2.3125,1.5c0.56348,0.3797 1.33331,1.16666 1.81934,1.65268c0.52197,0.52197 1.24097,1.43866 1.97266,1.90067c0.78815,0.49765 1.5975,0.33673 2.48932,0.73065c0.74005,0.32687 1.56351,0.7157 2.42801,0.93735c0.71371,0.18298 1.68753,0.50232 2.64749,0.72598c0.97473,0.22711 1.61691,0.52597 2.32584,0.76868c0.96368,0.32993 1.96933,0.284 2.69467,0.284c0.98917,0 1.76849,0 2.76801,0c0.90533,0 1.85733,0 2.62265,0c0.99417,0 1.74152,0 2.78403,0c0.948,0 1.62335,0.04132 2.36398,-0.03601c1.11716,-0.11667 1.83264,-0.63809 2.73599,-0.87997c0.70859,-0.18973 1.72876,-0.27029 2.51468,-0.60486c1.02026,-0.43433 1.61566,-0.74356 2.34283,-1.17917c0.92789,-0.55585 1.45618,-1.09964 2.06784,-1.71066c0.75638,-0.75558 1.242,-1.242 1.93665,-1.93665c0.63116,-0.63116 1.26801,-1.21707 1.95267,-1.95718c0.52045,-0.56259 1.00958,-1.34763 1.40002,-2.10001c0.41013,-0.79031 0.79999,-1.59549 1.09998,-2.1955c0.5,-1 0.90424,-1.79788 1.29984,-2.59982c0.38345,-0.77731 0.80698,-1.62253 0.8895,-2.42551c0.10547,-1.02649 0.01068,-1.77917 0.01068,-2.77466c0,-0.80002 0,-1.80017 0,-2.62085c0,-0.66449 0,-1.66315 0,-2.47916c0,-0.81601 0,-2.04285 0,-2.68933c0,-1.01068 0,-1.81067 0,-2.81067c0,-0.97916 0.00174,-1.83334 0,-2.62534c-0.00226,-1.02734 0.01581,-1.7493 -0.35266,-2.62201c-0.4035,-0.95569 -0.52567,-1.78656 -0.814,-2.586c-0.29147,-0.80811 -0.69482,-1.68039 -1.35419,-2.16666c-0.68979,-0.50873 -1.44257,-1.04132 -2.11514,-1.60001c-0.65262,-0.54208 -1.35834,-0.9635 -2.36401,-1.23334c-0.77451,-0.20779 -1.82813,-0.34399 -2.5,-0.66666c-0.81537,-0.39157 -1.71063,-0.49466 -2.70016,-0.5c-0.82068,-0.00443 -1.48526,0.01126 -2.48383,-0.00134c-0.81619,-0.01031 -1.6463,-0.02225 -2.63068,-0.28265c-0.89105,-0.23572 -1.8812,-0.63635 -2.68533,-0.69516c-0.99756,-0.07294 -1.79999,-0.02084 -2.60001,-0.02084c-1,0 -1.79999,0 -2.79868,0c-0.76532,0 -1.71732,0 -2.48532,0c-0.94135,0 -1.94934,0 -2.74133,0l-0.85867,0l-0.86331,0l-1.01669,0" id="svg_31" stroke-width="2" stroke="#000" fill="none"/>
  <path t="71688,72091,72108,72121,72138,72153,72153,72170,72170,72186,72186,72202,72202,72219,72219,72219,72236,72236,72252,72252,72295,72295,72314" d="m359.5,323c0,1.79999 0.00592,2.70004 0,3.60001c-0.00534,0.81073 -0.23929,1.7146 -0.5,2.42084c-0.35822,0.97034 -0.32996,1.80582 -0.66666,2.8125c-0.23642,0.70685 -0.69769,1.49063 -0.85867,2.37732c-0.18018,0.99237 -0.39703,1.5957 -0.776,2.38934c-0.48148,1.00839 -0.80222,1.59824 -1.29849,2.59982c-0.2916,0.58847 -0.73352,1.63351 -0.8895,2.3895l-0.01068,0.91068" id="svg_32" stroke-width="2" stroke="#000" fill="none"/>
  <path t="72865,72878,72879,72879,72887,72887,72903,72920,72937,72953" d="m368.5,325c-4.61383,8.34933 -5.08731,9.18518 -5.39584,9.83334c-0.46912,0.98557 -0.59348,1.75598 -0.625,2.66666l-0.33182,0.79999l-0.526,0.79984l-0.34268,0.77884" id="svg_33" stroke-width="2" stroke="#000" fill="none"/>
  <path t="73832,73847,73847,73848,73848,73848,73855,73855,73871,73871,73888,73888,73888,73902,73902,73902,73902,73919,73919,73919,73919,73936,73936,73936,73936,73952,73952,73952,73952,73969,73969,73986,73986,73986,73986,74002,74002,74002,74002,74019,74019,74019,74019,74036,74036,74036,74036,74052,74052,74052,74052,74069,74069,74069,74086,74086,74086,74086,74102,74102,74102,74102,74119,74119,74119,74119,74119,74136,74136,74136,74136,74136,74152,74152,74152,74152,74169,74169,74169,74169,74169,74186,74186,74186,74186,74202,74202,74202,74202,74219,74219,74219,74219,74236,74236,74236,74236,74252,74252,74269,74269,74269,74269,74286,74286,74302,74302,74319,74319,74319,74336,74336,74336,74352,74352,74370,74370,74386,74402,74419,74475,74511,74511,74522" d="m217.5,313c11.33333,4.33334 12.74397,4.86111 13.32384,5.06683c0.94482,0.33521 1.66373,0.60657 2.7545,0.81183c0.67003,0.1261 1.76538,0.26849 2.44249,0.64218c0.82585,0.45575 1.48927,0.79077 2.30051,1.07916c1.17279,0.4169 1.77867,0.60001 2.67867,0.89999c0.60001,0.20001 1.79938,0.60242 2.4045,0.79999c0.9303,0.30374 1.57863,0.50775 2.61684,0.80002c0.72983,0.20544 1.47978,0.39587 2.226,0.60001c1.43318,0.39209 2.0936,0.59213 2.711,0.79999c0.85875,0.28912 1.85641,0.70288 2.54167,1c1.16455,0.50491 1.68292,0.71088 2.54166,1c0.6174,0.20786 1.97772,0.60733 2.711,0.7955c0.74542,0.19128 1.49002,0.37628 2.58069,0.53784c0.68021,0.10077 1.66791,0.15289 2.31934,0.21933c1.37192,0.13992 2.10211,0.29504 2.84732,0.46817c0.7496,0.17416 1.83328,0.4794 2.51468,0.67783c0.96439,0.28082 1.57169,0.4968 2.78531,0.67999c0.89499,0.1351 1.5062,0.1015 2.70001,0.28799c0.60532,0.09457 1.51672,0.35236 2.15717,0.48068c1.35684,0.27185 2.09995,0.30066 2.86368,0.35266c0.7836,0.05334 1.98148,0.15186 2.78049,0.28534c0.81198,0.13565 1.63477,0.32495 2.48401,0.51599c0.88141,0.19827 1.79739,0.39835 2.72934,0.59866c0.46451,0.09985 1.37912,0.285 2.65198,0.60001c0.7663,0.18964 1.46475,0.42029 2.48151,0.64282c1.01221,0.22153 1.73746,0.2717 2.48782,0.3425c0.77496,0.07312 1.57962,0.12762 2.76385,0.45734c0.80719,0.22473 1.57364,0.57251 2.34299,0.85202c1.08295,0.39346 1.76898,0.55591 2.73633,0.68448c0.61478,0.0817 1.82559,0.22372 2.73151,0.45685c0.62878,0.1618 1.27032,0.38086 2.672,0.76266c0.72983,0.19879 1.45258,0.38202 2.14801,0.51599c1.19479,0.23016 1.95752,0.23035 3.13599,0.452c0.79379,0.14929 1.32605,0.36301 2.14935,0.54935c1.21765,0.27557 1.88998,0.2373 2.884,0.50534c0.81793,0.22055 1.79657,0.63333 2.61066,0.75333c0.64423,0.09494 1.61224,0.24051 2.41467,0.45065c0.82367,0.2157 1.84927,0.49432 2.733,0.55383c1.01807,0.06854 1.73767,0.07706 2.54166,0.52084c0.80051,0.44189 1.70001,0.5 2.60001,0.5l0.89999,0l0.79999,0l0.90002,0" id="svg_34" stroke-width="2" stroke="#000" fill="none"/>
  <path t="75960,75975,75975,75975,75975,75975,75983,75983,75991,76004,76004,76021,76021,76038,76038,76038,76038,76038,76054,76054,76054,76071,76071,76071,76088,76088,76088,76088,76104,76104,76104,76119,76119,76119,76136,76136,76136,76152,76152,76152,76169,76169,76169,76186,76186,76186,76186,76202,76202,76202,76202,76202,76219,76219,76219,76219,76219,76236,76236,76236,76236,76252,76252,76252,76252,76269,76270,76270,76270,76270,76286,76286,76286,76286,76302,76302,76302,76319,76319,76319,76319,76336,76336,76336,76336,76352,76352,76352,76352,76369,76369,76369,76369,76386,76386,76386,76386,76403,76403,76403,76403,76419,76419,76419,76435,76435,76435,76435,76454,76454,76454,76469,76469,76485,76486,76502,76519,76519,76535,76535,76569,76569,76569,76585,76585,76585,76585,76585,76602,76602,76619,76619,76619,76635,76635" d="m379.5,350c11.20633,2.6355 11.82819,2.76251 12.86533,2.892c0.42545,0.05313 1.43735,0.10599 2.448,0.108c0.84,0.00165 1.93402,0 2.85333,0c0.83334,0 1.66959,-0.04453 2.56668,0.03601c0.93863,0.08426 1.60532,0.24271 2.37866,0.39999c0.82413,0.1676 1.64581,0.33603 2.72366,0.66382c0.87451,0.26596 1.59555,0.60245 2.586,0.77884c0.81772,0.14563 1.74313,0.14917 2.745,0.28799c0.71869,0.09958 1.44632,0.26694 2.5235,0.48068c0.97504,0.19348 1.79901,0.31546 2.52451,0.34198c1.2059,0.04407 2.0141,-0.02023 2.83267,0.06784c1.03833,0.11172 1.71878,0.39621 2.40533,0.59018c0.95853,0.27078 1.78293,0.33072 2.65182,0.34818c1.19525,0.02402 1.79727,-0.02405 2.6955,0.0405c1.20401,0.08652 1.80154,0.2529 2.74167,0.46399c0.67188,0.15085 1.79016,0.3508 2.62769,0.41467c0.89078,0.06793 1.35141,0.07114 2.2825,0.08084c1.38144,0.01437 2.26282,0.00449 3.11215,0.00449c0.82535,0 1.63467,-0.0032 2.83585,0.00015c0.79565,0.00223 1.58054,0.00064 2.34299,0.05701c1.09302,0.08081 1.77435,0.22751 2.77802,0.44284c0.6889,0.1478 1.811,0.35062 2.64716,0.41467c0.88144,0.06754 1.33191,0.07108 2.22665,0.08084c1.27194,0.01385 2.03467,0.00449 3.06369,0.00449c0.63266,0 1.84164,0 2.74167,0c0.59998,0 1.79999,0 2.7045,0c0.61633,0 1.58081,0 2.61682,0c0.73132,0 1.47867,-0.00003 2.22601,0c1.43134,0.00009 2.10043,-0.0087 2.75266,0.02084c0.98511,0.04462 2.02246,0.19431 2.75266,0.33182c0.74857,0.14099 1.48801,0.34073 2.92603,0.52585c0.66623,0.08575 1.64661,0.11505 2.30533,0.12015c1.03729,0.00803 1.76865,0.00134 2.89066,0.00134c0.74133,0 1.80383,0 2.46817,0c0.9465,0 2.15717,0 2.75717,0c0.89999,0 1.79999,0 2.69983,0c0.8895,0 1.74301,0 2.7785,0c0.88,0 1.755,0 2.61716,0c0.94049,0 1.78983,0 2.70901,0c0.99548,0 1.79553,-0.00827 2.79599,0.00015c0.63156,0.00531 1.3743,0.03278 2.66351,0.22119c0.7963,0.11639 1.63583,0.2796 2.06,0.35333c0.82367,0.14316 2.21838,0.36441 3.01349,0.40448c1.06137,0.0535 1.86249,0.02084 2.66251,0.02084l0.99548,0l0.74734,0" id="svg_35" stroke-width="2" stroke="#000" fill="none"/>
  <path t="77940,77955,77955,77955,77963,77963,77971,77986,78004,78004,78018,78018,78018,78034,78034,78034,78051,78051,78051,78068,78068,78068,78068,78084,78084,78084,78101,78101,78101,78118,78118,78118,78118,78134,78134,78134,78134,78134,78151,78151,78151,78151,78168,78168,78168,78184,78184,78184,78184,78201,78201,78201,78201,78218,78218,78218,78218,78234,78234,78235,78235,78251,78251,78251,78268,78268,78268,78268,78284,78284,78284,78301,78301,78301,78301,78318,78318,78318,78318,78318,78334,78334,78334,78351,78351,78351,78351,78368,78368,78368,78369,78384,78384,78384,78401,78401,78419,78419,78419,78435,78435,78435,78452,78452,78452,78468,78469,78484,78501,78501,78502,78518,78518,78534,78534,78534,78534,78551,78568,78568,78654" d="m505.5,361c10.10632,0.87851 11.08051,0.95389 11.79169,0.97916c1.0412,0.03702 1.79767,0.02084 2.70831,0.02084c0.90002,0 1.81348,0 2.55603,0c0.99731,0 1.63062,0 2.64313,0c0.96753,0 1.79102,0 2.74902,0c0.97351,0 1.79846,0 2.3985,0c1.32001,0 2.03613,-0.00677 2.76801,0.01068c0.72424,0.01727 2.05957,0.12515 2.87549,0.34198c0.7323,0.19461 1.67267,0.51367 2.46698,0.59018c0.85083,0.08194 2.04285,0.05716 2.64551,0.05716c0.93903,0 1.61169,0 2.73065,0c0.83472,0 1.71735,0 2.61603,0c0.88263,0 1.71735,0 2.8363,0c0.67267,0 1.61169,0 2.51434,0c0.90002,0 1.79999,0 2.70001,0c0.90448,0 1.836,0 2.48535,0c1.03601,0 1.76733,0 2.88934,0c0.74133,0 1.80396,0 2.47266,0c0.97797,0 1.63666,0 3.03662,0c0.74133,0 1.49072,0 2.23206,0c1.0625,0 2.04797,0 2.67328,0c1.21069,0 2.11072,0 2.71069,0c0.90002,0 2.09998,0 2.70001,0c0.89996,0 2.10034,0 2.70898,0c0.96301,0 1.66168,0 2.83368,0c0.86267,0 1.75732,0 2.20667,0c0.88263,0 2.10767,0 3.17865,0c0.6507,0 1.87201,0 2.47333,0c0.91949,0 1.55585,0 2.91986,0c0.72699,0 1.45801,0 2.16901,0c1.26678,0 2.03784,0 2.90717,0c1.00714,0 1.8598,0 2.82416,0c0.81451,0 1.68298,0 2.57849,0c0.89551,0 1.76398,0 2.83331,0c0.70953,0 1.56219,0 2.56537,0c0.76532,0 1.84863,0 2.76801,0c0.66931,0 1.43463,0 2.44232,0c0.90533,0 2.03351,0 2.69183,0c0.67834,0 1.64581,0 2.82764,0l0.87152,0l0.79999,0l0.78571,-0.00449" id="svg_36" stroke-width="2" stroke="#000" fill="none"/>
  <path t="79772,79786,79787,79787,79787,79787,79787,79787,79787,79795,79795,79802,79802,79802,79802,79819,79819,79835,79835,79835,79835,79852,79852,79852,79852,79869,79869,79869,79869,79869,79869,79885,79885,79885,79885,79885,79902,79902,79902,79902,79919,79919,79919,79919,79935,79935,79935,79935,79935,79935,79952,79952,79952,79969,79969,79969,79969,79985,79985,79985,80002,80002,80002,80002,80019,80019,80019,80019,80035,80035,80035,80052,80052,80052,80069,80069,80069,80085,80085,80086,80102,80102,80119,80119,80119,80136,80136,80136,80152,80152,80152,80169,80169,80169,80169,80185,80185,80185,80202,80202,80219,80219,80235" d="m510.5,334c19,4.33334 20.21271,4.61362 21.26135,4.85733c0.9007,0.20932 1.66907,0.3891 2.32196,0.53851c0.55249,0.12643 1.41675,0.34744 2.64734,0.52014c0.74591,0.10468 1.93896,0.23868 2.72198,0.43668c0.54956,0.13895 1.35632,0.40234 2.36334,0.56332c0.90442,0.14459 1.85223,0.24432 2.64569,0.43668c0.88678,0.21494 1.5199,0.40005 2.56,0.526c1.12091,0.13574 1.52069,0.11191 2.34003,0.17401c1.30621,0.099 2.224,0.22882 3.17432,0.37265c0.48499,0.07339 1.46753,0.22928 1.96533,0.29068c1.49579,0.18451 2.48962,0.23199 2.97729,0.25867c0.94928,0.05194 1.8559,0.06897 3.07855,0.24667c0.73688,0.10709 1.41626,0.30719 2.42548,0.49466c1.034,0.19205 1.77893,0.2326 2.55902,0.284c0.81995,0.05402 2.12573,0.16092 2.57947,0.2215c0.92865,0.12396 1.85968,0.29141 2.76898,0.483c0.44141,0.09299 1.66663,0.39627 2.73785,0.68484c0.65051,0.17523 1.86975,0.46301 2.47198,0.52533c0.89752,0.0929 1.5,0.08307 2.70001,0.08533c0.90002,0.00168 1.5,-0.00299 2.70001,0c0.90448,0.00226 1.52338,-0.00989 2.48535,0.08533c1.03961,0.10291 1.76312,0.26596 2.49384,0.41467c1.05188,0.21405 1.97504,0.41455 3,0.47916c0.70239,0.04425 1.70618,0.02084 2.54163,0.02084c0.88049,0 1.77942,-0.01877 2.66852,0.01068c0.85431,0.02829 1.89404,0.19501 2.57465,0.41464c0.84119,0.27145 1.83936,0.54187 2.69318,0.57019c0.96381,0.03198 1.77887,0.00449 2.64734,0.00449c0.89551,0 1.79102,0 2.65948,0c1.06934,0 1.78784,0 2.49738,0c1.07196,0 2.04846,0 2.75946,0c0.73102,0 1.8125,0 2.81305,0c0.60364,0 1.83282,0 2.64532,0l0.84216,0l0.85333,0l0.94,0" id="svg_37" stroke-width="2" stroke="#000" fill="none"/>
  <path t="82069,82088,82088,82088,82088,82096,82096,82111,82119,82119,82135,82152,82169,82169,82169,82185,82185,82185,82202,82202,82202,82219,82219,82235,82235,82252,82252,82269,82269,82269,82269,82285,82285,82285,82302,82302,82319,82319,82319,82335,82335,82335,82335,82352,82352,82352,82369,82369,82385,82402,82419,82419,82447,82507,82559,82575,82586,82602,82602,82619,82620,82635,82635,82636,82653,82653,82669,82670,82685,82703,82703,82719,82735,82736,82752,82752,82769,82786,82802,82819,82820,82820,82835,82853,82853,82869,82885,82902,82903,82920,82920,82936,82936,82953,82953,82969,82986,82986,83003,83003,83020,83071" d="m497.5,249c2.052,-0.85333 2.6803,-1.28082 3.32401,-1.75999c0.62827,-0.46768 1.56934,-1.33649 2.24399,-1.78267c0.78195,-0.51712 1.64749,-0.72519 2.23199,-1.25867c0.7197,-0.65689 1.55591,-1.05081 2.36667,-1.532c0.53174,-0.3156 1.21225,-1.05246 2.03336,-1.64534c0.58282,-0.42084 1.43097,-0.86627 2.19867,-1.50667c0.60645,-0.50589 1.15247,-1.08981 1.716,-1.91333c0.50861,-0.74321 0.99677,-1.57132 1.48529,-2.22667c0.51233,-0.68727 0.87164,-1.42976 1.56671,-2.37466c0.45917,-0.62427 1.04199,-1.202 1.43463,-1.60001c0.79327,-0.80405 1.40356,-1.37804 1.91333,-2c0.63446,-0.77403 1.07648,-1.62421 1.65204,-2.39999c0.46381,-0.6252 1.06598,-1.21777 1.83331,-2.16667c0.41071,-0.50786 0.80591,-1.04771 1.34283,-1.88066c0.65625,-1.01805 0.99988,-1.7186 1.35266,-2.291c0.5708,-0.92613 1.1933,-1.38409 1.78369,-2.16167c0.56049,-0.73824 0.71393,-1.62402 1.22534,-2.2c0.65021,-0.73225 0.91589,-1.78941 1.65265,-2.24284c0.71942,-0.44276 1.74341,-0.09106 2.64282,-0.05716c0.75873,0.02859 1.64587,0.39967 2.46167,0.64734c0.9444,0.28671 1.75903,0.28107 2.5285,0.40533c1.05255,0.16998 1.73309,0.69107 2.49384,1.146c0.67059,0.40102 1.69379,0.55498 2.51599,0.968c0.78882,0.39626 1.29999,1.13332 2,1.83333c0.59998,0.59999 1.12415,1.30304 1.79999,1.71466c0.84247,0.51309 1.21259,1.13742 1.7417,1.80617c0.69324,0.87624 1.31299,1.27066 1.74847,1.82651c0.66479,0.84851 1.02087,1.69722 1.42584,2.45267c0.40521,0.75595 0.85748,1.55095 1.16248,2.52133c0.20569,0.65453 0.1189,1.65733 0.12152,2.56267c0.00226,0.77318 0.02966,1.73399 0.35266,2.7115c0.25201,0.76277 0.61871,1.6505 0.64734,2.57117c0.02588,0.83293 0,1.66666 0,2.52882l0,0.90451l0,0.89999" id="svg_38" stroke-width="2" stroke="#000" fill="none"/>
  <path t="83913,83927,83927,83927,83928,83928,83939,83939,83939,83939,83954,83971,83987,84015,84047" d="m554.5,324c0.284,2.62268 0.35443,3.07205 0.5,4.04166c0.07556,0.50351 0.24023,1.50638 0.37848,2.89352c0.07806,0.78308 0.10992,1.46051 0.12018,2.29016c0.01361,1.10257 0.00134,2.07465 0.00134,2.97467l0,0.89999l0,0.89999" id="svg_39" stroke-width="2" stroke="#000" fill="none"/>
 </g>
 <g display="none">
  <title>muse_image</title>
  <image xlink:href="http://farm3.static.flickr.com/2083/2212246975_4a92fd2c73.jpg" id="muse" height="480" width="640" y="0" x="0"/>
 </g>
 <g display="none">
  <title>bbox</title>
  <rect stroke="#f00" fill="none" stroke-width="3" height="247.04" width="622.08" y="117.76" x="17.92" id="bbox"/>
 </g>
</svg>
