<svg width="640" height="480" xmlns="http://www.w3.org/2000/svg" xmlns:svg="http://www.w3.org/2000/svg" xmlns:xlink="http://www.w3.org/1999/xlink">
 <!-- Sketchy ANNOTATION
  ImageNet ID: n02691156_9099
  URL: http://farm3.static.flickr.com/2176/2165867961_d2caac80fd.jpg
  Image Width: 500
  Image Height: 375
  BBox X: 145
  BBox Y: 144
  BBox Width: 226
  BBox Height: 75
  Exposure: 2000ms
  Synset Label: airplane
  Synset ID: n02691156
  Worker Tag: airplane
  Sanity Check: 
   Context
   Saved
   Shading
  Comment: 
   {}
  Worker ID: A1Q0BR58T72PZ3
  Assignment ID: 3AAPLD8UCCHH3UXBO6YUF1D8MX5THO
  HIT ID: 3VIVIU06FKCBZAKHVPA14FOAS7OIM5
  Work Time: 96s
  Worker Score: 0.9286
 END ANNOTATION -->
 <g display="inline">
  <title>Layer 1</title>
  <path t="0,14,15,15,15,15,16,16,16,16,20,20,21,21,21,21,21,21,21,44,44,44,44,44,44,44,44,44,59,59,59,59,60,60,60,60,60,68,68,68,68,68,68,68,68,68,108,108,108,108,108,109,109,109,109,111,111,111,111,111,111,111,111,111,128,128,128,128,128,128,128,128,128,165,165,165,165,165,165,165,165,165,171,171,171,172,172,172,172,172,172,178,179,179,179,179,179,179,179,179,185,185,185,185,185,185,186,186,186,194,194,194,194,194,194,194,195,195" d="m186.96667,238.35001c29.16666,13.16666 31.20314,14.06668 33.03065,14.85866c1.63065,0.70665 3.08679,1.32689 4.386,1.8705c1.15694,0.48407 2.19325,0.90884 3.12601,1.28549c1.6227,0.65524 2.34984,0.94275 3.032,1.21469c0.64384,0.25668 1.25563,0.4996 1.842,0.72897c0.56564,0.22125 1.11717,0.43488 1.662,0.63901c1.08636,0.40704 1.64427,0.60623 2.22667,0.80667c0.61821,0.21277 1.28938,0.43216 2.028,0.65851c0.81595,0.25006 1.72699,0.51508 2.748,0.79349c2.41478,0.65845 3.83948,1.01041 5.38933,1.39868c1.65479,0.41455 3.39468,0.84259 5.196,1.28699c1.84135,0.45428 3.70157,0.91107 5.556,1.37701c3.61243,0.90765 5.32651,1.35635 6.97067,1.79333c1.57578,0.41879 3.08057,0.82858 4.51498,1.22549c1.36557,0.37784 2.66034,0.74252 3.88501,1.09048c2.24057,0.6366 3.2601,0.93134 4.24399,1.20935c0.97916,0.27667 1.98734,0.55716 3.0585,0.84598c1.16479,0.31406 2.4581,0.6543 3.91351,1.026c3.52176,0.89944 5.64484,1.4205 7.97467,1.99335c2.4848,0.61093 5.0741,1.24103 7.716,1.8765c2.64078,0.63519 5.22925,1.25372 7.716,1.83151c4.44815,1.03348 6.3251,1.44342 7.97333,1.79599c1.45056,0.31027 2.73871,0.57309 3.89398,0.81c1.05542,0.21643 2.04456,0.41495 2.99402,0.63c1.92661,0.43637 2.95642,0.71356 4.06134,1.01733c1.19589,0.3288 2.49149,0.70517 3.90298,1.1235c1.54324,0.4574 3.22891,0.96817 5.073,1.5285c4.21924,1.28207 6.61081,2.01172 9.15601,2.78531c2.65112,0.80579 5.36142,1.62903 8.0835,2.457c2.68726,0.81738 5.29276,1.60992 7.76849,2.367c4.37811,1.33881 6.1973,1.9007 7.772,2.392c1.35785,0.42365 2.52353,0.79202 3.522,1.116c0.86008,0.27905 1.60599,0.52692 2.26199,0.75601c1.15698,0.40405 1.70004,0.61041 2.23734,0.80933c0.53137,0.19675 1.05789,0.39288 1.58401,0.58051c0.52454,0.18704 1.05045,0.37073 1.58398,0.53549c1.07834,0.33298 1.6366,0.46652 2.19867,0.60269c0.56491,0.13687 1.13202,0.26797 1.6965,0.40347l0.55951,0.1405l0.55148,0.1485l0.5405,0.15952" id="svg_1" stroke-width="2" stroke="#000" fill="none"/>
  <path t="930,942,943,943,943,944,944,944,944,944,944,944,944,944,950,950,950,951,951,951,951,951,951,960,960,960,960,961,961,964,964,964,975,975,975,980,980,980,991,992,992" d="m174.96667,231.35001c1.70667,2.58649 2.23257,2.98961 3.03333,3.22849c0.49799,0.14856 1.79951,0.28545 2.60217,0.30701c0.89487,0.02403 1.86664,0.00092 2.8965,-0.0435c1.07254,-0.04625 2.16969,-0.11916 3.27449,-0.20549c1.09656,-0.08569 3.19379,-0.28389 4.16383,-0.38634c0.9126,-0.09637 1.7688,-0.19458 2.571,-0.28951c0.75046,-0.08881 1.45058,-0.17543 2.10301,-0.25349c0.60625,-0.07254 1.68867,-0.19406 2.16966,-0.2355c0.44438,-0.03828 0.85706,-0.08121 1.60266,-0.08c0.66563,0.00107 1.88542,0.16978 2.47884,0.311c0.87207,0.20753 1.93555,0.49692 2.87917,0.62199c0.67654,0.08968 1.64734,0.24471 2.46133,0.45067c0.86903,0.21989 1.76401,0.408 2.655,0.5175l0.83701,0.04649" id="svg_2" stroke-width="2" stroke="#000" fill="none"/>
  <path t="1666,1678,1678,1678,1678,1678,1678,1678,1678,1678,1684,1684,1684,1684,1684,1684,1684,1685,1685,1695,1695,1695,1695,1695,1696,1696,1696,1700,1701,1701,1701,1701,1701,1711,1711,1711,1711,1712,1712,1712,1714,1715,1715,1715,1715,1728,1728,1728,1728,1729,1729,1730,1730,1730,1730,1744,1744,1745,1745,1747,1747,1747,1753,1753" d="m207.96667,220.35001c-10,-16.5 -10.77292,-17.80428 -11.48401,-19.02534c-0.66174,-1.13635 -1.27011,-2.19614 -1.82849,-3.183c-0.51746,-0.91457 -0.99144,-1.76401 -1.42351,-2.55299c-0.76831,-1.40298 -1.10158,-2.03041 -1.408,-2.61467c-0.28644,-0.54614 -0.55115,-1.06378 -0.79349,-1.56149c-0.23357,-0.47969 -0.45438,-0.952 -0.65851,-1.42651c-0.41498,-0.96468 -0.60559,-1.47829 -0.80533,-2.00533c-0.20462,-0.53995 -0.40347,-1.09424 -0.83467,-2.216c-0.2182,-0.56764 -0.41957,-1.14551 -1.18517,-2.79333c-0.2518,-0.54195 -0.53142,-1.06645 -1.058,-2.12132c-0.2617,-0.52426 -0.77974,-1.57306 -1.1875,-2.66667c-0.20483,-0.54938 -0.52702,-1.68059 -0.672,-2.248c-0.14401,-0.56361 -0.39981,-1.67801 -0.54401,-2.216c-0.41118,-1.53413 -0.59233,-2.00343 -0.94267,-2.908c-0.34061,-0.87943 -0.55882,-1.29649 -1.008,-2.62799c-0.30672,-0.90916 -0.41896,-1.38368 -0.64583,-2.33333c-0.22578,-0.94513 -0.31215,-1.41765 -0.62083,-2.77834c-0.19534,-0.86107 -0.39362,-1.68167 -0.60001,-2.46001c-0.29102,-1.09743 -0.50999,-1.77312 -0.77916,-2.74083c-0.17088,-0.61436 -0.39934,-1.8205 -0.48483,-2.69951l-0.03151,-0.80699l-0.00449,-1.04634l0,-0.77333" id="svg_3" stroke-width="2" stroke="#000" fill="none"/>
  <path t="2790,2798,2798,2798,2798,2798,2798,2798,2798,2798,2802,2802,2802,2802,2802,2802,2803,2803,2811,2811,2811,2811,2812,2818,2818,2818,2818,2832,2832,2832,2832,2832,2841,2841,2841,2841,2841,2848,2848,2848,2859,2859,2862" d="m184.96667,146.35001c6.83333,14 7.45639,14.9593 8.11465,15.77599c0.6082,0.75456 1.23497,1.40759 1.8645,1.97401c0.59692,0.53709 1.20953,1.00551 1.8195,1.43399c1.18837,0.83478 1.80083,1.21567 2.39734,1.61334c0.5905,0.39366 1.172,0.78133 1.7415,1.161c1.09099,0.72733 1.60684,1.07048 2.5625,1.70833c0.8443,0.56354 1.59846,1.06294 2.26799,1.548c0.63425,0.4595 1.53593,1.20226 2.132,1.73799c0.60403,0.54291 1.1844,1.11292 2.10001,1.88068c0.59148,0.49597 1.21384,0.94786 1.836,1.42799c0.65268,0.50369 1.68723,1.37888 2.04666,1.70534c0.73625,0.66869 1.08882,1.02089 1.8075,1.67084c0.96631,0.8739 1.53784,1.30516 2.24734,1.77916l1.04099,0.46184l0.71701,0.117l0.94733,0.0045" id="svg_4" stroke-width="2" stroke="#000" fill="none"/>
  <path t="3218,3224,3224,3225,3225,3225,3225,3225,3225,3225,3233,3233,3233,3233,3233,3233,3233,3233,3233,3243,3243,3243,3243,3243,3243,3243,3243,3243,3245,3245,3245,3245,3245,3245,3245,3245,3245" d="m222.96667,189.35001c4.33333,5.33333 5.30327,6.85251 6.37866,8.588c1.17233,1.89194 2.39702,3.90285 3.66299,5.9745c1.27536,2.08701 2.52621,4.14534 3.75301,6.1095c2.1891,3.50485 3.13617,4.94057 3.97867,6.16266c0.72243,1.04793 1.3636,1.9236 1.935,2.6445c0.48354,0.61005 0.9166,1.10925 1.30499,1.5195c0.6424,0.67853 0.94257,0.95912 1.216,1.228c0.25531,0.25105 0.49579,0.48322 0.729,0.69c0.2177,0.19302 0.42604,0.36955 0.63899,0.51001c0.39133,0.25809 0.60019,0.33762 0.80267,0.40266c0.19783,0.06355 0.39999,0.09866 0.60001,0.129l0.2,0.02032l0.2,0.01234l0.2,0.00633" id="svg_5" stroke-width="2" stroke="#000" fill="none"/>
  <path t="3792,3798,3798,3799,3799,3799,3799,3799,3799,3799,3800,3800,3800,3800,3800,3800,3801,3801,3801,3814,3814,3814,3814,3814,3814,3814,3814,3815,3816,3816,3816,3816,3817,3817,3817,3817,3817,3828,3829,3829,3829,3829,3829,3829,3829,3829,3831,3831,3831,3831,3831,3831,3831,3832,3832,3844,3844,3845,3845,3845,3845,3845,3845,3845" d="m260.96667,221.35001c5.83331,1.5 7.29144,1.76726 8.94266,2.05333c1.80408,0.31255 3.72522,0.63414 5.724,0.9675c2.03851,0.33998 4.07971,0.67616 6.08401,1.0125c3.75,0.62927 5.42639,0.92203 6.96399,1.19333c1.41003,0.24879 2.70236,0.48169 3.8895,0.69c1.09155,0.19154 2.09833,0.36862 3.03452,0.51001c1.69235,0.2556 2.47446,0.33594 3.21732,0.40399c0.70587,0.06467 1.37857,0.10962 2.01901,0.1485c0.61023,0.03705 1.19299,0.06387 1.74899,0.1035c1.0434,0.07437 1.53387,0.13385 2.00665,0.20267c0.46024,0.06699 0.9086,0.14778 1.34851,0.2355c0.4361,0.08696 0.86908,0.18327 1.3035,0.2805c0.88419,0.19788 1.33893,0.29987 1.80533,0.39867c0.47791,0.10123 0.96906,0.20139 1.47452,0.3c0.5199,0.10143 1.05594,0.20229 1.6095,0.29999c1.16049,0.20482 1.77036,0.3017 2.396,0.39867c0.63702,0.09874 1.28232,0.19313 1.93201,0.2805c0.64899,0.08728 1.29407,0.1689 1.93201,0.2355c1.23364,0.1288 1.82477,0.16742 2.39731,0.2c0.55615,0.03165 1.09866,0.04933 1.629,0.0645l0.52036,0.01016l0.51233,0.00618l0.50632,0.00316" id="svg_6" stroke-width="2" stroke="#000" fill="none"/>
  <path t="5101,5115,5115,5115,5115,5115,5115,5115,5115,5115,5121,5121,5121,5121,5121,5121,5121,5121,5121,5132,5132,5132,5132,5132,5132,5132,5132,5132,5134,5134,5134,5134,5134,5134,5142,5142,5142,5142,5142,5142,5150,5150,5150,5150,5150,5160,5160,5160,5160,5160,5160,5164,5164,5164,5164,5164,5164,5164,5176,5176,5177,5177,5177" d="m332.96667,236.35001c-28.5,-19 -30.53674,-20.23131 -32.39734,-21.26134c-1.65704,-0.91734 -3.15488,-1.68274 -4.4985,-2.32201c-1.18658,-0.56454 -2.25122,-1.0239 -3.19351,-1.422c-1.57553,-0.66563 -2.24155,-0.94548 -2.82797,-1.224c-0.52802,-0.25079 -0.99744,-0.4937 -1.41602,-0.729c-0.38391,-0.21581 -0.73251,-0.42978 -1.056,-0.63899c-0.6142,-0.39722 -0.9104,-0.60359 -1.21332,-0.80267c-0.30573,-0.20093 -0.61734,-0.40219 -0.93903,-0.59999c-0.32895,-0.20226 -0.66986,-0.40509 -1.02899,-0.60001c-0.7569,-0.4108 -1.59702,-0.80682 -2.50134,-1.2c-0.46814,-0.20354 -1.43665,-0.60088 -1.93066,-0.8c-1.49591,-0.60297 -2.00049,-0.78929 -2.97598,-1.22133c-0.48264,-0.21376 -1.41949,-0.67255 -1.85068,-0.94934c-1.26743,-0.81361 -1.96732,-1.53265 -2.32001,-1.88c-0.70529,-0.69464 -0.99796,-1.11574 -2.18399,-2.01599c-0.80502,-0.61105 -1.27844,-0.84753 -2.27084,-1.25c-0.51752,-0.20988 -1.06305,-0.42802 -2.89581,-0.75c-0.65915,-0.1158 -1.34409,-0.16852 -2.03101,-0.2415c-0.68109,-0.07236 -1.99008,-0.19765 -2.56799,-0.36867c-1.44553,-0.42778 -1.93835,-1.14583 -2.21967,-1.87117l-0.12933,-0.79733l-0.08133,-0.80533" id="svg_7" stroke-width="2" stroke="#000" fill="none"/>
  <path t="5574,5584,5584,5584,5584,5584,5584,5584,5584,5584,5594,5594,5594,5594,5594,5594,5594,5594,5594,5601,5601,5601,5601,5601,5601,5601,5601,5601,5611,5611,5611,5611,5611,5611,5611,5611,5611,5614,5615,5615,5615,5615,5615,5615,5615,5615,5628,5628,5628,5628,5628,5628,5628,5628,5628,5630,5631,5631,5631,5631,5631,5631,5631,5631,5642,5642,5642,5642,5642,5642,5642,5642,5642,5644,5644,5644,5644,5644,5644,5644,5645,5645,5652,5652,5652,5653,5653,5653,5653,5653,5653,5660,5660,5660,5660,5660,5661,5661,5661,5661,5668,5668,5668,5669,5669,5669,5669,5669,5669,5676,5676,5676,5676,5676,5676,5676,5676,5676,5683,5683,5683,5683,5683,5683,5683,5683,5683" d="m226.96667,167.35001c28.16666,2.66666 30.33334,2.85876 32.34134,3.02933c1.85968,0.15796 3.58261,0.299 5.17947,0.429c1.48181,0.12064 2.85989,0.23009 4.1445,0.339c2.33508,0.19798 3.40567,0.30099 4.42136,0.40132c0.96597,0.09541 1.8866,0.19141 2.76749,0.2805c0.84576,0.08554 1.66122,0.16881 2.45251,0.2355c1.52585,0.1286 2.27179,0.16771 3.00931,0.2c0.7312,0.03201 1.45862,0.05183 2.18402,0.0645c0.72528,0.01266 1.45267,0.01759 2.18399,0.0195c1.48267,0.00388 2.23767,0.00052 3.00266,0.00267c0.77502,0.00218 1.56006,0.00693 2.35501,0.0195c0.80502,0.01273 1.62021,0.03046 2.44501,0.0645c1.68054,0.06937 2.53503,0.13162 3.39734,0.20132c0.86905,0.07025 1.74188,0.15508 2.616,0.255c0.87524,0.10007 1.74854,0.21188 2.616,0.345c1.71985,0.26392 2.56302,0.43181 3.39865,0.59601c0.8287,0.16284 1.64896,0.33392 2.46451,0.49649c0.80981,0.16142 1.61453,0.32181 2.41949,0.45151c1.59802,0.25748 2.40106,0.3336 3.20401,0.39999c0.80579,0.06664 1.61853,0.1107 2.439,0.1485c0.8302,0.03824 1.67279,0.06586 2.52899,0.1035c1.76297,0.07751 2.67218,0.13612 3.59735,0.20134c0.9375,0.06609 1.88266,0.14133 2.832,0.216c0.94934,0.07466 1.89435,0.15166 2.832,0.21599c1.83411,0.12582 2.72504,0.16541 3.59866,0.2c0.85941,0.03403 1.70801,0.05861 2.54849,0.08401c0.83551,0.02527 1.66919,0.04785 2.50351,0.084c1.68445,0.07297 2.539,0.13466 3.40265,0.2c0.87207,0.06598 1.75064,0.14154 2.6355,0.216c0.8898,0.07487 1.78333,0.15237 2.68051,0.21599c1.79797,0.12747 2.69864,0.16736 3.60001,0.19734c0.90302,0.03003 1.80933,0.04498 2.71948,0.045c0.91519,0.00002 1.83655,-0.01277 2.76453,-0.045c1.8819,-0.06535 2.8364,-0.13115 3.79999,-0.19867c0.97211,-0.06812 1.95084,-0.14842 2.93549,-0.2355c0.99005,-0.08757 1.9838,-0.18256 2.9805,-0.2805c1.9989,-0.19643 2.99841,-0.29939 3.99734,-0.39732c0.99673,-0.09772 1.99045,-0.19293 2.9805,-0.2805c0.98465,-0.08708 1.96326,-0.16951 2.93552,-0.2355c1.91791,-0.13019 2.86353,-0.16682 3.79865,-0.20132c0.92493,-0.03413 1.84,-0.05867 2.745,-0.084l0.89502,-0.02534l0.88498,-0.02733l0.875,-0.03134" id="svg_8" stroke-width="2" stroke="#000" fill="none"/>
  <path t="6216,6222,6222,6222,6222,6223,6223,6223,6223,6223,6223,6223,6223,6224,6232,6232,6233,6233,6233,6233,6233,6233,6233,6244,6244,6244,6244,6244,6244,6244,6244,6245,6252,6253,6253,6253,6253,6253,6253,6253,6253,6261,6261,6262,6262,6262,6262,6262,6262,6262,6268,6268,6268,6268,6268,6268,6268,6268,6268,6276,6276,6276,6276,6276,6276,6276,6276,6276,6282,6282,6282,6282,6282,6282,6282,6282,6282,6292,6292,6292,6293,6293,6293,6293,6293,6293" d="m418.96667,178.35001c0.32001,0.60666 1.07504,1.19398 1.715,1.61916c0.83865,0.55717 3.28177,2.05296 4.92648,3.02267c1.88681,1.11244 3.97672,2.31831 6.21451,3.59549c2.32916,1.32933 4.7056,2.66969 7.07849,3.9915c2.31116,1.28741 6.56183,3.61147 8.41336,4.59134c1.65155,0.87404 3.13037,1.63428 4.45349,2.2905c1.17493,0.58272 2.22836,1.08362 3.17551,1.51649c0.85181,0.3893 2.35583,1.041 3.03781,1.33c0.64874,0.27492 1.27383,0.53508 1.884,0.78151c0.60052,0.24254 1.20184,0.47818 1.81201,0.7095c0.62448,0.23674 1.95514,0.7209 2.67484,0.97282c0.75095,0.26286 1.52823,0.5271 2.32651,0.783c0.80737,0.25882 1.62061,0.50595 2.43448,0.729c0.80093,0.21951 2.35181,0.57651 3.08884,0.70299c0.70584,0.12112 1.38846,0.20767 2.04599,0.28801c0.63516,0.07761 1.25171,0.14485 1.84802,0.23399c0.5824,0.08705 1.70795,0.32933 2.24915,0.50616c0.54047,0.17661 1.06668,0.39304 1.58551,0.6225c0.51755,0.2289 1.02463,0.47482 1.53149,0.71251c0.50247,0.23563 1.50183,0.67473 2.00467,0.85817c0.4986,0.18188 1.0036,0.33969 1.5105,0.49199c0.50946,0.15306 1.02612,0.29868 1.54651,0.45601c0.52899,0.15994 1.61179,0.52203 2.16415,0.7375c0.56509,0.22043 1.13266,0.46404 1.70401,0.71849c0.57602,0.25653 1.14951,0.52364 1.72202,0.7905c0.56885,0.26514 1.68503,0.78362 2.23114,1.02667c0.53528,0.23824 1.06372,0.46582 1.58551,0.6855c0.51456,0.21663 1.02533,0.42534 1.53149,0.6315l0.50317,0.20317" id="svg_9" stroke-width="2" stroke="#000" fill="none"/>
  <path t="6757,6763,6763,6763,6763,6763,6763,6763,6763,6763,6770,6770,6770,6770,6770,6770,6770,6770,6771,6778,6778,6778,6778,6779,6779,6779,6779,6779,6784,6784,6784,6784,6784,6785,6785,6785,6785,6787,6787,6787,6787,6787,6788,6788,6788,6788,6800,6800,6801,6801,6801,6801,6801,6801,6801,6809,6810,6810,6810,6810,6810,6810,6810,6810,6814,6814,6814,6814,6814,6814,6814,6826,6826,6826,6826,6830,6830,6830,6830,6838,6838,6838,6838,6838,6839,6839,6845,6845,6845,6845,6846,6846,6846,6846,6846" d="m483.96667,220.35001c-14,-2.83334 -15.62589,-3.08733 -17.29733,-3.30934c-1.69492,-0.22513 -3.40021,-0.42329 -5.09851,-0.5865c-1.67111,-0.1606 -3.30112,-0.29561 -4.8735,-0.3615c-2.89578,-0.12135 -4.19464,-0.07536 -5.388,-0.00267c-1.10147,0.06709 -2.11655,0.18033 -3.05099,0.32251c-0.86826,0.13211 -1.67194,0.29243 -2.42099,0.45749c-1.37308,0.30257 -2.00601,0.45872 -2.61334,0.59601c-0.58133,0.13139 -1.13922,0.25638 -1.67401,0.384c-0.51584,0.12311 -1.01474,0.24524 -1.49399,0.38399c-0.92694,0.26837 -1.36932,0.43336 -1.80399,0.60001c-0.42972,0.16475 -0.8497,0.34044 -1.26453,0.51601c-0.41052,0.17377 -0.81473,0.3512 -1.21948,0.51599c-0.79825,0.325 -1.20425,0.46025 -1.612,0.61467c-0.42703,0.16173 -0.88113,0.34865 -1.35602,0.5985c-0.5289,0.27826 -1.10587,0.63153 -1.71597,1.09351c-1.48947,1.12785 -2.29117,1.92693 -3.18002,2.77066c-0.9317,0.8844 -1.85968,1.79929 -2.7915,2.67751c-0.8858,0.83485 -1.68408,1.62125 -2.4765,2.1825c-1.11777,0.79167 -1.60416,0.81982 -1.79865,0.59734c-0.23145,-0.26474 -0.22311,-0.77234 -0.20401,-1.3215c0.02142,-0.61552 0.12534,-1.25935 0.15601,-1.90649c0.05472,-1.15475 -0.03119,-1.6277 -0.22,-1.96933c-0.16791,-0.3038 -0.42709,-0.57622 -1.07733,-0.74667c-0.71637,-0.18781 -1.92523,-0.10069 -2.72083,-0.11116c-0.78378,-0.0103 -1.55505,0.00468 -2.98318,-0.21684c-0.6734,-0.10446 -1.31491,-0.31027 -2.30533,-0.49466c-1.03534,-0.19275 -1.87271,-0.17078 -2.37601,-0.056c-0.60587,0.13817 -1.3165,0.40942 -2.14499,0.8055c-1.00085,0.47849 -3.50159,1.95621 -5.03918,2.94716c-1.6965,1.09335 -3.45575,2.2812 -5.24249,3.46201c-1.73169,1.14442 -3.35333,2.18134 -4.79248,3.06599l-1.19418,0.67267" id="svg_10" stroke-width="2" stroke="#000" fill="none"/>
  <path t="7260,7276,7276,7276,7276,7276,7276,7276,7276,7276,7280,7280,7280,7280,7280,7280,7280,7280,7280,7296,7296,7296,7296,7296,7297,7297,7297,7297,7302,7302,7302,7303,7303,7303,7303,7303,7303,7312,7312,7312,7312,7312,7313,7313,7313,7313,7318,7318,7318,7318,7318,7318,7318,7318,7318,7334,7334,7334,7334,7334,7335,7335,7335,7335" d="m408.96667,226.35001c25.83331,11.66666 27.69318,12.52299 29.37332,13.31732c1.52463,0.72081 2.90378,1.3871 4.14749,2.01601c1.13602,0.57445 2.17303,1.11644 3.11252,1.65599c1.71503,0.98494 2.48532,1.5036 3.22534,2.00934c0.71725,0.49019 1.39972,0.98741 2.05798,1.4805c0.64304,0.48167 1.26416,0.96521 1.87799,1.4355c1.20303,0.92171 1.80542,1.36589 2.41202,1.808c0.61502,0.44824 1.2482,0.90324 1.89749,1.3815c0.67746,0.49901 1.38702,1.02747 2.1225,1.60651c1.61859,1.27434 2.48227,2.01486 3.39468,2.79333c0.9487,0.80942 1.91492,1.64923 2.89948,2.496c0.98746,0.84924 1.96561,1.69293 2.94452,2.496c1.8541,1.52106 2.74341,2.18192 3.59067,2.79333c0.80173,0.57855 1.57755,1.10699 2.319,1.60648c0.70926,0.47778 1.39789,0.92682 2.04898,1.3815c1.25287,0.87494 1.83823,1.33783 2.40533,1.80801c0.56155,0.46561 1.1022,0.94681 1.629,1.43549c0.52393,0.48602 1.03455,0.98178 1.539,1.4805c1.00641,0.99493 1.50189,1.50031 2.00803,2c0.5112,0.50467 1.03732,1.00934 1.57797,1.5195l0.56067,0.51517l0.58469,0.52118l0.61267,0.52817" id="svg_11" stroke-width="2" stroke="#000" fill="none"/>
  <path t="7934,7948,7948,7948,7948,7948,7948,7948,7948,7948,7954,7955,7955,7955,7955,7955,7955,7955,7955,7966,7966,7966,7966,7966,7966,7966,7966,7966,7970,7971,7971,7971,7979,7979,7979,7985,7985" d="m491.96667,219.35001c2,25.16666 2.19174,27.03462 2.39865,28.74266c0.18945,1.56392 0.38483,2.99287 0.58051,4.299c0.17947,1.19783 0.36078,2.29649 0.53549,3.30901c0.31348,1.81691 0.4649,2.64128 0.59866,3.42c0.12613,0.73431 0.24228,1.42764 0.345,2.0835c0.09714,0.62018 0.18527,1.20834 0.255,1.76849c0.12979,1.04285 0.16861,1.53394 0.20135,2.00534c0.03146,0.45294 0.05164,0.88925 0.06448,1.30951c0.01239,0.40509 0.01755,0.79633 0.0195,1.1745c0.00369,0.72131 0.00134,1.73083 0.00134,2.36716c0,0.91949 0,2.11951 0,2.71017l0,0.85349l0,1.03552l0,0.87997" id="svg_12" stroke-width="2" stroke="#000" fill="none"/>
  <path t="8498,8510,8510,8510,8510,8510,8510,8510,8510,8510,8518,8518,8518,8518,8518,8518,8518,8518,8518,8529,8530,8530,8530,8530,8530,8530,8530,8530,8532,8532,8532,8532,8532,8532,8544,8544,8545,8545,8546,8546,8546,8546,8546,8554,8554,8554,8554,8562,8562,8562,8562,8570,8570,8570,8578,8578,8578" d="m479.96667,209.35001c27.33331,17.33333 29.22018,18.46608 30.91599,19.43199c1.49857,0.85358 2.83426,1.57913 4.02151,2.19301c1.04401,0.53979 1.97559,0.99301 2.80652,1.383c1.41919,0.66611 2.04944,0.94748 2.63062,1.22266c0.54474,0.25793 1.05707,0.50595 1.54205,0.7485c0.46692,0.23352 0.91949,0.46609 1.362,0.70351c0.89117,0.47815 1.3432,0.7377 1.8053,1.00133c0.46924,0.2677 0.94135,0.54134 1.41602,0.81601c0.47467,0.27466 0.94641,0.54897 1.41602,0.81599c0.91547,0.52054 1.36157,0.76384 1.7973,0.99866c0.83862,0.45193 1.64417,0.86708 2.40002,1.28401c1.07111,0.59081 1.73724,0.99423 2.36584,1.42216c0.62421,0.42496 1.52856,1.13699 2.12079,1.66451c0.60815,0.5417 1.20209,1.1232 1.79999,1.71599c0.90302,0.89531 1.49554,1.49417 1.78937,1.78801c0.57465,0.57466 1.64398,1.64401 2.12531,2.12532c0.66455,0.66452 1.08783,1.07391 1.88519,1.88551c0.59473,0.60538 1.14301,1.25699 1.77881,2.22116l0.26868,0.53133l0.37799,0.82201" id="svg_13" stroke-width="2" stroke="#000" fill="none"/>
  <path t="8970,8982,8982,8982,8982,8982,8982,8982,8982,8982,8998,8998,8998,8998,8998,8998,8998,8998,8999,9004,9004,9004,9004,9004,9004,9012,9012,9012,9012,9025,9025,9025,9028,9028,9028,9034" d="m535.96667,258.35001c-28.66669,9.5 -30.53925,10.11014 -32.17734,10.62933c-1.42175,0.45062 -2.6528,0.83167 -3.71851,1.14148c-0.91724,0.26666 -1.71271,0.48676 -2.41348,0.64651c-1.18607,0.27042 -1.72559,0.34641 -2.23734,0.41199c-0.49005,0.06281 -0.96637,0.10352 -1.43253,0.129c-0.46057,0.02518 -0.92163,0.03519 -1.38748,0.039c-0.96664,0.0079 -1.47583,0.00269 -2.53418,0.00269c-0.53915,0 -1.61249,0 -2.13666,0c-1.46249,0 -2.30518,0 -3.04382,0c-0.948,0 -1.99808,0.02307 -2.69336,-0.01068c-0.91132,-0.04422 -1.90665,-0.27466 -2.68365,-0.51016l-0.68701,-0.28049l-0.81299,-0.69867" id="svg_14" stroke-width="2" stroke="#000" fill="none"/>
  <path t="9562,9568,9568,9568,9568,9568,9569,9569,9569,9569,9577,9577,9577,9577,9577,9577,9577,9577,9578,9582,9582,9582,9582,9582,9582,9582,9582,9582,9595,9595,9595,9595,9595,9595,9595,9596,9596,9598,9598,9598,9598,9598,9598,9599,9599,9599,9610,9610,9610,9610,9610,9610,9612,9612,9612,9620,9620,9620,9620,9628,9629,9629,9629,9634,9634,9634,9644,9650,9650,9650,9661,9662,9664" d="m529.96667,247.35001c0.33331,3 1.57581,3.99638 3.10132,5.11865c1.71948,1.26494 3.61371,2.59398 5.60699,3.9855c2.03864,1.42322 4.0827,2.82693 6.05701,4.21051c3.5766,2.50644 5.06757,3.59692 6.35468,4.57065c1.11877,0.84637 2.07007,1.59982 2.88,2.2605c0.69623,0.56793 1.28204,1.07263 1.79999,1.49551c0.85907,0.70139 1.25293,0.979 1.62799,1.22c0.34961,0.22464 0.68903,0.41656 1.00952,0.59698c0.30487,0.1716 0.60229,0.32855 0.87451,0.50702c0.53363,0.34985 0.77228,0.57147 1.00134,0.80399c0.23114,0.23459 0.44427,0.48862 0.64496,0.7515c0.1994,0.26123 0.38367,0.52863 0.55499,0.79651c0.32709,0.51154 0.46582,0.76086 0.60266,0.99734c0.13184,0.22787 0.25757,0.44998 0.38403,0.66449c0.12427,0.21078 0.24866,0.41898 0.38397,0.61951c0.2746,0.40692 0.4361,0.60254 0.60004,0.80267c0.1673,0.20422 0.37415,0.38412 0.86334,1.05582c0.67853,0.93167 1.02271,1.78085 1.27795,2.35352c0.53192,1.19357 0.85132,1.79453 1.21069,2.38931c0.36584,0.60541 1.16779,1.79752 1.56134,2.39868c0.38507,0.58826 0.97504,1.40891 1.3598,2.47968c0.23639,0.65778 0.22668,1.48508 0.76367,2.42166c0.40833,0.71225 0.87915,1.336 1.27917,2.10132l0.49548,0.99417l0.34735,0.74734l0.29999,0.89999" id="svg_15" stroke-width="2" stroke="#000" fill="none"/>
  <path t="10014,10027,10027,10027,10027,10027,10027,10027,10027,10027,10032,10032,10032,10032,10032,10032,10032,10032,10033,10047,10047,10047,10048,10048,10048,10048,10049,10049,10049,10049,10049,10049,10049,10054,10054,10054,10055,10055,10055,10055,10070,10070,10070,10070,10070,10070,10071,10072,10072,10072,10072,10073,10073,10073,10083,10083,10084,10084,10084,10084,10085,10085,10085,10086,10086,10086,10096,10096,10096,10097,10097,10100,10100,10101,10101,10101,10109,10109,10109,10109,10114,10114,10114,10114,10125,10125,10125,10130,10130,10130,10142,10142,10146,10146,10152,10152" d="m563.96667,304.35001c-19,11.66666 -20.42816,12.33499 -21.77069,12.80399c-1.21429,0.42419 -2.34906,0.7128 -3.396,0.88351c-0.95703,0.15607 -1.85052,0.21774 -2.67596,0.2085c-1.49188,-0.01672 -2.172,-0.11169 -2.81604,-0.18134c-0.61328,-0.06631 -1.19794,-0.14661 -1.758,-0.2355c-0.54126,-0.08594 -1.06573,-0.18149 -1.578,-0.28049c-1.00616,-0.19443 -1.50616,-0.2966 -2.51434,-0.50317c-0.51257,-0.10501 -1.56342,-0.32971 -2.10529,-0.45267c-0.55676,-0.12631 -2.32886,-0.56311 -2.95502,-0.72684c-0.64081,-0.16757 -1.29169,-0.34253 -1.95148,-0.51599c-1.33044,-0.34976 -1.99414,-0.52609 -3.3125,-0.83334c-0.64404,-0.15012 -1.27991,-0.28879 -2.5307,-0.53067c-0.6145,-0.11884 -1.22479,-0.22858 -2.43463,-0.43466c-1.20081,-0.20453 -1.80203,-0.29761 -3.00137,-0.50583c-0.60031,-0.10422 -1.20087,-0.21179 -1.79999,-0.33151c-1.20187,-0.2402 -2.40115,-0.52621 -2.99985,-0.68515c-1.19806,-0.31808 -1.7886,-0.4967 -2.37933,-0.65802c-1.16196,-0.31729 -1.72916,-0.4838 -2.85416,-0.6875c-1.07751,-0.1951 -1.61328,-0.23239 -2.66666,-0.3125c-0.52502,-0.03992 -1.58533,-0.08807 -2.66669,-0.1875c-1.11758,-0.10275 -1.6828,-0.18173 -2.8125,-0.35416c-0.56015,-0.08551 -1.11395,-0.16824 -2.6875,-0.47916c-0.96457,-0.19058 -1.42004,-0.29544 -2.29166,-0.5c-0.83371,-0.19565 -2.04074,-0.50378 -2.84167,-0.69867c-0.79907,-0.19443 -1.59644,-0.38544 -2.39999,-0.51599c-1.19534,-0.19421 -1.99652,-0.22614 -2.77917,-0.30618c-0.76483,-0.07822 -1.86838,-0.27493 -2.53415,-0.54849c-0.96872,-0.39807 -1.51376,-0.80151 -2.56534,-1.40918c-0.6889,-0.3981 -1.37033,-0.72589 -2.34235,-1.12167c-0.78012,-0.31766 -1.66867,-0.50427 -2.21466,-1.22116c-0.56311,-0.73941 -0.64832,-1.79465 -1.01166,-2.43134l-0.2955,-0.89999l-0.05585,-0.86334" id="svg_16" stroke-width="2" stroke="#000" fill="none"/>
  <path t="10583,10594,10595,10595,10595,10595,10595,10595,10595,10595,10602,10602,10602,10602,10602,10602,10602,10602,10602,10616,10617,10617,10617,10617,10617,10617,10618,10619,10627,10632,10644,10644,10644,10648,10648,10648,10654,10654,10654,10654" d="m505.96667,314.35001c2.83331,-43.16669 3.06589,-45.91891 3.31198,-48.29468c0.2113,-2.04013 0.42169,-3.77722 0.62552,-5.24701c0.17224,-1.24207 0.34381,-2.28796 0.49048,-3.177c0.23889,-1.44797 0.33368,-2.07294 0.40268,-2.65199c0.06363,-0.53403 0.10901,-1.02791 0.1485,-1.48349c0.03644,-0.42043 0.0629,-0.80965 0.10352,-1.1685c0.07303,-0.64532 0.13354,-0.93541 0.20132,-1.20534c0.06387,-0.25441 0.13892,-0.49016 0.216,-0.70949c0.07239,-0.20598 0.03601,-1.0457 0.55267,-1.70084c0.46027,-0.5836 1.69611,-0.22325 1.862,0.49432c0.22046,0.95369 0.07263,1.54808 0.08667,2.74533c0.01074,0.91965 0.05579,1.55585 0.16534,2.56534l0.19049,1.086l0.16364,0.74734l0.18365,0.74731" id="svg_17" stroke-width="2" stroke="#000" fill="none"/>
  <path t="11167,11180,11180,11180,11191,11191,11200,11200,11200,11202,11202,11212,11212,11212,11212,11218,11218,11218,11218,11227,11227,11232,11232,11232,11243,11244,11244,11248,11248,11254,11254,11264,11264,11270,11278,11278,11284,11284,11284,11292,11292,11292,11300,11300,11330,11331,11331,11338,11338,11338,11338,11338,11338,11338,11344,11344,11344,11344,11352,11352,11360,11360,11360,11368,11368,11374,11374,11374,11382,11382,11391,11391,11398,11398,11409,11412,11420,11428,11428,11434,11434" d="m566.96667,281.35001c7.90619,9.88498 8.62872,10.21182 8.77081,11.29166c0.10907,0.82883 -0.78296,1.28104 -1.77081,1.54166c-0.78375,0.20679 -1.60052,0.13895 -2.60901,0.17117c-0.90643,0.02896 -1.72583,0.1543 -2.70081,0.34818c-0.71216,0.1416 -1.43677,0.32816 -2.5235,0.48065c-1.00116,0.1405 -1.62482,0.15512 -2.48004,0.16534c-1.23395,0.01474 -1.91199,0.00406 -2.85333,0.00134c-0.78601,-0.00226 -1.62054,0.04205 -2.66663,-0.16669c-0.94733,-0.18903 -1.5481,-0.54025 -2.56537,-0.74933c-0.93445,-0.19208 -1.91058,-0.38327 -2.39996,-0.97067c-0.58447,-0.70148 -1.078,-1.41751 -1.15472,-2.48798c-0.05725,-0.79901 0.51923,-1.62619 0.78668,-2.62534c0.15814,-0.59079 0.1485,-1.46979 0.73737,-2.39734c0.39258,-0.61841 0.98438,-1.15356 2.0293,-1.49283c0.77557,-0.2518 1.79993,-0.4249 2.52502,-0.58902c0.61237,-0.13861 1.87604,-0.21033 2.979,-0.14883c0.61285,0.03418 1.24945,0.09946 1.896,0.19052c1.28735,0.18134 1.91071,0.27261 3,0.60416c0.90094,0.2742 1.61597,0.60272 2.3158,1.18066c0.8548,0.70593 1.41711,1.44016 1.59888,2.422c0.13727,0.74167 0.08466,1.548 0.08533,2.54535c0.00061,0.87466 0,1.8855 0,2.70615c0,0.66452 0.03754,1.66373 -0.02081,2.45834c-0.08765,1.19321 -0.36841,1.89175 -1.07922,2.62067c-0.56494,0.57935 -1.50983,1.05511 -2.1955,0.543c-0.75653,-0.56503 -0.70447,-1.64282 -0.70447,-2.39999l0,-0.89551l0,-0.86334" id="svg_18" stroke-width="2" stroke="#000" fill="none"/>
  <path t="11691,11697,11697,11697,11697,11697,11697,11698,11698,11698,11703,11703,11704,11704,11704,11704,11704,11704,11704,11712,11712,11712,11712,11712,11712,11712,11712,11712,11720,11720,11720,11720,11720,11720,11720,11720,11720,11728,11728,11728,11728,11728,11728,11728,11728,11728,11733,11734,11734,11734,11734,11734,11734,11734,11734,11741,11741,11742,11742,11750,11759,11760,11764,11764,11776,11776,11780,11790,11790,11790,11796,11796,11796,11802,11802,11810,11810,11818,11818,11818,11825,11826,11832,11832,11842,11842,11848,11848,11853,11854,11862,11862,11870,11870,11877,11878,11878,11883,11884,11884,11892,11892,11892,11892,11900,11900,11900,11900,11900,11910,11910,11910,11910,11916,11916,11916,11916,11916,11917,11926,11926,11926,11926,11926,11926,11930,11930,11930,11930,11930,11930,11930,11943,11943,11943,11943,11944,11944,11945,11945,11945,11945,11945,11945,11945,11955,11955,11955,11955,11955,11968,11968,11969,11969,11969,11978,11979,11979,11981,11992,11992,11996,12004,12004" d="m574.96667,285.35001c0.33331,-5.83334 0.6629,-7.5217 1.08002,-9.44534c0.45874,-2.1156 0.97656,-4.36639 1.54498,-6.7005c0.57813,-2.37399 1.17145,-4.73395 1.815,-7.0155c1.18054,-4.18527 1.79395,-5.97333 2.38666,-7.556c0.52979,-1.41472 1.06146,-2.65685 1.59003,-3.741c0.47351,-0.97121 0.94641,-1.8222 1.40997,-2.571c0.81647,-1.31888 1.22772,-1.886 1.60132,-2.42667c0.35095,-0.5079 0.68695,-0.98039 1.00952,-1.41899c0.30298,-0.41197 0.59302,-0.79529 0.87451,-1.149c0.51532,-0.64749 0.76471,-0.93456 1.00262,-1.20534c0.2265,-0.25783 0.44818,-0.49979 0.66455,-0.729c0.20898,-0.22141 0.41571,-0.43329 0.61945,-0.63899c0.40009,-0.40392 0.60101,-0.60318 0.80267,-0.80267c0.2027,-0.2005 0.4082,-0.40123 0.61951,-0.59999c0.21399,-0.20126 0.43372,-0.40305 0.66449,-0.60001c0.47607,-0.40633 0.73462,-0.60143 0.99738,-0.79868c0.26428,-0.19843 0.53168,-0.39111 0.79651,-0.58049c0.25916,-0.18529 0.5119,-0.36238 0.75146,-0.53551c0.43774,-0.31633 0.61865,-0.47406 0.95953,-0.72366c0.67749,-0.49611 1.67639,-0.90471 2.64313,-0.595c0.70148,0.22473 1.33691,1.07027 1.92383,1.53334c0.69171,0.54579 1.69073,0.87663 2.133,1.60449c0.47015,0.77379 0.64056,1.73294 0.91119,2.38217c0.41254,0.98979 0.70306,1.78505 0.91333,2.54399c0.26477,0.95569 0.37323,1.73636 0.63348,2.77917c0.19336,0.77478 0.37817,1.8325 0.242,2.533c-0.16913,0.87006 -0.46295,1.65808 -0.59015,2.45717c-0.15936,1.00119 -0.25391,1.92506 -1,2.66666c-0.58588,0.58238 -1.2876,1.05107 -1.70001,1.68517c-0.58704,0.9026 -1.18396,1.44887 -1.95264,1.95268c-0.69348,0.45453 -1.45441,1.18628 -1.84735,1.6955c-0.65198,0.84488 -1.36493,1.34079 -1.84735,1.80981c-0.69373,0.67444 -1.02283,1.46423 -1.40533,2.29916c-0.40918,0.89325 -0.90155,1.79724 -1.26813,2.41183c-0.38062,0.63818 -0.98419,1.64307 -1.37921,2.36319c-0.40509,0.73853 -0.79297,1.49448 -1.20001,2.23199c-0.58972,1.06848 -1.00726,1.72922 -1.37915,2.40482c-0.37567,0.68253 -0.87006,1.80728 -1.13684,2.64984c-0.13965,0.4411 -0.38348,1.37112 -0.50934,1.85068c-0.25763,0.9816 -0.69019,2.48087 -0.86133,2.97998c-0.3476,1.01367 -0.55029,1.52139 -0.76001,2.03467c-0.43036,1.05331 -0.91638,2.13232 -1.1748,2.68518c-0.52838,1.13043 -0.80988,1.69589 -1.0993,2.258c-0.57452,1.11575 -0.8645,1.66095 -1.47919,2.6875c-0.58356,0.97455 -0.8996,1.42542 -1.47919,2.33334c-0.28687,0.44937 -0.85706,1.35672 -1.35413,2.33331c-0.25641,0.50378 -0.71393,1.57028 -0.93073,2.11734c-0.43408,1.09521 -0.62769,1.64548 -0.83466,2.18134c-0.59064,1.52908 -0.78296,2.00534 -1.21198,2.88535c-0.40686,0.83459 -0.85217,1.61023 -1.35602,2.31598c-0.49695,0.69608 -1.05505,1.33405 -1.64398,1.92001c-0.57703,0.5741 -1.47675,1.34088 -2.07587,1.776c-0.7901,0.57379 -1.92627,1.06979 -2.11346,0.26932c-0.1557,-0.66602 0,-1.62399 0,-2.63199l0.07202,-0.828" id="svg_19" stroke-width="2" stroke="#000" fill="none"/>
  <path t="12294,12303,12303,12303,12303,12304,12304,12304,12304,12304,12312,12312,12312,12312,12312,12312,12312,12312,12312,12320,12320,12320,12320,12320,12320,12327,12328,12328,12328,12328,12328,12334,12334,12334,12334,12334,12343,12343,12343,12343,12343,12350,12350,12350,12350,12350,12361,12361,12361,12361,12364,12364,12364,12364,12382,12382,12382,12394,12394,12394,12402,12402,12402,12402,12412,12412,12412,12412,12418,12418,12418,12427,12427,12427,12427,12432,12432,12432,12432,12444,12444,12444,12448,12448,12448,12448,12454,12454,12454,12454,12462,12463,12463,12463,12470,12470,12470,12470,12471,12478,12478,12479,12479,12484,12484,12484,12484,12485,12494,12494,12494,12494,12494,12494,12500,12500,12501,12501,12501,12511,12511,12511,12512,12512,12514,12515,12515,12515,12515,12540,12541,12541,12541,12541" d="m581.96667,293.35001c-2.66669,24 -2.85638,25.71222 -3.02936,27.25732c-0.15576,1.39124 -0.29675,2.64154 -0.42896,3.76349c-0.11865,1.00739 -0.2276,1.91302 -0.33905,2.72852c-0.19385,1.41855 -0.29932,2.04391 -0.40265,2.62534c-0.0968,0.54459 -0.19794,1.05643 -0.29999,1.54199c-0.09802,0.46643 -0.20001,0.918 -0.29999,1.362c-0.20001,0.888 -0.30579,1.34161 -0.49554,2.2785c-0.09686,0.47821 -0.28467,1.45117 -0.41913,2.44415c-0.13495,0.99661 -0.2027,1.99869 -0.23718,2.49869c-0.06897,1 -0.14252,2.00208 -0.21747,2.5c-0.22687,1.50757 -0.38611,2.00287 -0.69202,2.98932c-0.15259,0.49203 -0.50287,1.44931 -0.97198,2.84399c-0.14929,0.44388 -0.41119,1.31036 -0.66669,2.14584c-0.24994,0.8172 -0.65503,2.02557 -0.98401,2.81949c-0.32971,0.79559 -0.51892,1.1792 -0.86334,1.94418c-0.49011,1.08862 -0.89996,2.10449 -1.15265,2.75717c-0.25269,0.65265 -0.65521,1.67191 -0.98535,2.38132c-0.33893,0.72824 -0.63574,1.48547 -1.51465,2.61868c-0.36621,0.47217 -1.21149,1.12238 -2.16669,1.33331c-0.77325,0.17075 -1.6748,0.19815 -2.66663,-0.33331c-0.52679,-0.28229 -1.15143,-1.04517 -1.505,-1.61349c-0.53632,-0.86212 -0.92279,-1.77866 -1.12,-2.38651c-0.2887,-0.88977 -0.461,-2.0997 -0.51636,-2.70001c-0.08295,-0.89957 -0.2406,-2.1015 -0.37799,-2.7045c-0.21271,-0.93365 -0.3985,-1.57593 -0.52582,-2.61682c-0.08911,-0.72876 -0.11499,-1.8533 -0.12018,-2.59467c-0.00745,-1.06247 0.00891,-2.04919 -0.03735,-2.67334c-0.09003,-1.21436 -0.24945,-1.81168 -0.46399,-2.73151c-0.14838,-0.63608 -0.39282,-1.99936 -0.44287,-2.73184c-0.05096,-0.74646 -0.05487,-1.49466 -0.05713,-2.58066c-0.00214,-1.01849 0,-1.6875 0,-2.3765c0,-1.1235 0,-1.95816 0,-2.84082c0,-0.89868 -0.00348,-1.78134 0.00018,-3.00668c0.0022,-0.73734 0.00464,-1.44366 0.05695,-2.14801c0.08392,-1.13019 0.22083,-1.96658 0.37885,-2.86667c0.16693,-0.95071 0.2674,-1.43719 0.56403,-2.92798c0.09949,-0.49991 0.2981,-1.49503 0.38934,-1.98935c0.17975,-0.97372 0.34723,-1.92285 0.4895,-3.28934c0.04547,-0.43665 0.09119,-1.29749 0.1825,-2.14667c0.09253,-0.86044 0.37366,-2.19818 0.508,-2.65866c0.276,-0.94611 0.617,-1.89029 0.78247,-2.36331c0.4845,-1.38498 0.76434,-2.26596 0.89551,-2.69101c0.25305,-0.81992 0.4632,-1.61691 0.91937,-2.69501c0.29449,-0.69595 0.69061,-1.35199 1.11597,-2.02798l0.48932,-0.70801" id="svg_20" stroke-width="2" stroke="#000" fill="none"/>
  <path t="12885,12897,12897,12897,12897,12897,12897,12897,12897,12897,12898,12898,12898,12898,12898,12899,12899,12899,12899,12904,12904,12904,12904,12904,12904,12904,12904,12904,12917,12917,12917,12917,12917,12917,12917,12917,12917,12920,12920,12920,12920,12920,12929,12929,12934,12941,12941,12942,12950,12950,12950,12950,12958,12959,12959,12959,12959,12964,12964,12964,12964,12964,12964,12964,12974,12974,12974,12974,12975,12975,12980,12980,12980,12980,12980,12980,12980,12992,12992,12992,12992,12992,12992,12994,12994,12994,12994,12994,12994,13002,13002,13002,13002,13002,13002" d="m555.96667,290.35001c-12.33331,-3 -13.90649,-4.40637 -15.46002,-6.12668c-1.6615,-1.83987 -3.26697,-3.87122 -4.85248,-5.97751c-1.58124,-2.10062 -3.06201,-4.19449 -4.44751,-6.20248c-2.4248,-3.51425 -3.37354,-4.95615 -4.18933,-6.15735c-0.67804,-0.99838 -1.23492,-1.81726 -1.69647,-2.47348c-0.36987,-0.52594 -0.66724,-0.94415 -0.93152,-1.25851c-0.40704,-0.48425 -0.61908,-0.66473 -0.82001,-0.83331c-0.19067,-0.15997 -0.38062,-0.29965 -0.56097,-0.42902c-0.16901,-0.12125 -0.33112,-0.22772 -0.47101,-0.33899c-0.24426,-0.19427 -0.33234,-0.29938 -0.40137,-0.40134c-0.06372,-0.09412 -0.10919,-0.19012 -0.1485,-0.28052c-0.03662,-0.08432 -0.06311,-0.16681 -0.10352,-0.23547c-0.07379,-0.12527 -0.13599,-0.16846 -0.19995,-0.19867c-0.06342,-0.02994 -0.33331,-0.16113 -0.37433,0.13483c-0.10156,0.73291 1.06763,1.18912 1.82367,1.94516c0.49048,0.49051 1.04248,1.04547 1.83331,1.83334c0.60791,0.60562 1.02911,1.03488 1.77063,1.68533c0.85834,0.7529 1.54742,1.27734 1.91205,1.56134c0.77301,0.60211 1.60663,1.23828 2.48401,1.91998c0.45532,0.35379 1.38611,1.08588 1.85864,1.45868c0.47479,0.37454 1.42145,1.12265 1.89069,1.49066c0.91626,0.71863 1.80054,1.3989 2.22681,1.73584c0.84021,0.66418 1.26184,0.99234 2.05585,1.7175c0.8175,0.74664 1.60406,1.59753 2.00134,2.0405c0.40271,0.44904 1.19971,1.3757 1.59998,1.84198c0.39978,0.46573 1.19244,1.38846 2,2.26151c0.3963,0.42847 1.19617,1.2489 1.59998,1.64001c0.7926,0.76773 1.59735,1.48312 2.39868,2.164c0.39551,0.33606 1.18597,0.99741 1.56537,1.34399c0.76184,0.69598 1.4892,1.45618 2.14929,2.30798c0.33533,0.43274 0.94501,1.3515 1.23999,1.81601l0.56006,0.93201" id="svg_21" stroke-width="2" stroke="#000" fill="none"/>
  <path t="13710,13715,13715,13715,13716,13716,13716,13716,13716,13716,13717,13718,13718,13718,13718,13718,13718,13718,13718,13727,13727,13727,13727,13727,13727,13727,13727,13727,13730,13730,13730,13730,13730,13730,13730,13731,13742,13742,13742,13742,13742,13742,13744,13744,13744,13744,13744,13744,13744,13752,13752,13752,13752,13752,13752,13760,13760,13760,13760,13760,13760,13768,13768,13768,13768,13768,13768,13770,13770,13770,13770,13779,13779,13782,13782,13782,13782,13782,13782,13792,13792,13792,13792,13792,13798,13798,13798,13798,13803,13803,13803,13804,13804,13811,13811,13812,13812,13812,13820,13820,13820,13828,13828,13828,13828,13834,13834,13834,13841,13842,13842,13850,13850,13864,13875,13891,13891,13891,13891,13891,13894,13894,13894,13894,13894,13901,13901,13902,13902,13902,13902,13909,13910,13910,13910,13910,13910,13910,13918,13918,13918,13918,13918,13918,13918,13918,13925,13925,13925,13925,13925,13925,13925,13925,13926,13932,13932,13932,13932,13932,13932,13932,13933,13933,13941,13941,13941,13941,13941,13941,13942,13942,13942,13948,13948,13948,13948,13948,13948,13948,13948,13948,13953,13953,13954,13954,13954,13954,13954,13954,13954,13962,13962,13962,13962,13963,13963,13963,13963,13963,13970,13970,13970,13970,13970,13971,13971,13971,13971,13978,13978,13978,13978,13978,13978,13979,13979,13979,13984,13984,13984,13984,13984,13984,13984,13984,13985,13991,13992,13992,13992,13992,13992,13992,13993,13993" d="m457.96667,307.35001c-3.16669,2.83331 -3.97421,3.09354 -4.89734,3.31067c-1.00153,0.23557 -2.07288,0.43253 -3.186,0.60599c-1.12961,0.17606 -2.25897,0.32413 -3.366,0.42599c-2.04803,0.18845 -2.95776,0.20355 -3.78799,0.20401c-0.76624,0.00043 -1.48154,-0.03009 -2.15851,-0.0675c-0.65234,-0.03604 -1.2919,-0.0874 -1.9335,-0.11249c-1.33673,-0.05225 -2.05624,-0.03021 -2.80667,0.00266c-0.77496,0.03394 -1.56552,0.08951 -2.36398,0.15149c-0.79886,0.06201 -1.58917,0.13318 -2.36401,0.1965c-1.46899,0.12009 -2.14987,0.16351 -2.79465,0.19867c-0.61255,0.03339 -1.19742,0.0575 -1.75803,0.08401c-1.06543,0.05042 -1.58044,0.05902 -3.08365,0.22131c-0.50333,0.05435 -1.52078,0.20557 -2.04135,0.27869c-1.0722,0.15057 -1.62662,0.24429 -3.401,0.37866c-0.62463,0.0473 -1.26263,0.06976 -1.90799,0.09601c-1.29858,0.05283 -1.94431,0.07233 -2.58133,0.10931c-1.23535,0.07169 -2.39783,0.1962 -2.95367,0.26868c-1.07364,0.13998 -1.59152,0.23291 -2.61166,0.36334c-1.00134,0.12805 -2.00357,0.20831 -3.01334,0.24799c-0.50998,0.02005 -1.54648,0.0329 -2.07465,0.03467c-1.63583,0.00549 -2.19742,0.00552 -3.32935,-0.00934c-0.56454,-0.00742 -1.12497,-0.0072 -2.216,-0.07465c-1.03723,-0.06412 -1.99786,-0.17603 -2.85468,-0.35068c-0.75391,-0.15369 -1.77734,-0.6983 -2.55634,-1.02234c-0.90549,-0.37665 -1.66797,-0.177 -2.55298,-0.091c-0.48886,0.04752 -1.51718,0.15836 -2.04266,0.18134c-1.51843,0.06638 -2.4545,-0.01746 -3.32101,-0.19449c-0.83987,-0.17157 -1.24841,-0.30017 -2.44165,-0.75867c-0.80676,-0.31 -1.59009,-0.68488 -2.40002,-0.96899c-1.18677,-0.41632 -1.99887,-0.54971 -2.79999,-0.65918c-0.79895,-0.10919 -1.61499,-0.15988 -2.79984,-0.4935c-0.80783,-0.22748 -1.19284,-0.41064 -1.96417,-0.74249c-0.754,-0.32437 -2.14548,-0.9425 -2.79999,-1.168c-0.62073,-0.21387 -1.83398,-0.49731 -2.73599,-0.59399c-0.59888,-0.06418 -1.50665,-0.09857 -2.39984,-0.27417c-0.8978,-0.17651 -1.75006,-0.46497 -2.77869,-0.87836c-0.69043,-0.27747 -1.51086,-0.65619 -2.32016,-0.81616c-0.93588,-0.185 -1.57004,-0.65079 -2.12216,-1.06317c-0.11804,-0.08817 0.76917,-0.02081 1.1875,-0.02081c0.94666,0 1.97333,0 3,0c0.96399,0 1.87201,0 2.3125,0c0.86899,0 2.1875,-0.00241 3.10751,0.00131c0.47498,0.00192 1.45535,0.01035 2.47498,0.05585c0.52527,0.02344 2.16055,0.16113 2.72635,0.22818c0.57855,0.06854 1.77463,0.23468 2.39465,0.32532c0.63629,0.09302 1.2887,0.19522 2.65067,0.38934c1.43668,0.20477 2.18091,0.30075 2.93869,0.39999c0.76956,0.10077 1.54929,0.20038 2.33698,0.29999c0.79364,0.10037 2.39108,0.29947 3.19086,0.40018c0.79889,0.10062 1.59595,0.20209 2.3895,0.31049c0.79013,0.10794 1.57529,0.22137 2.35349,0.34653c0.77249,0.12424 2.29141,0.40515 3.03635,0.56415c0.74179,0.15833 1.48163,0.33148 2.22751,0.504c0.7558,0.17484 1.5257,0.35373 2.31747,0.522c0.81491,0.17319 2.54153,0.49231 3.46152,0.63135c0.95203,0.14389 1.93375,0.2706 2.93698,0.396c1.01877,0.12732 2.04828,0.24857 3.08102,0.37799c1.03128,0.12924 3.06393,0.40817 4.05331,0.56885c0.9733,0.15808 1.92944,0.33163 2.871,0.5145c0.93112,0.18085 1.8511,0.37259 2.763,0.56848c0.9068,0.19479 2.70901,0.59552 3.60901,0.7955c0.89999,0.20001 1.79999,0.39999 2.70001,0.60001c0.89999,0.19998 1.79999,0.39999 2.69998,0.60001c0.89999,0.20001 2.69992,0.60037 3.59982,0.79984c0.89874,0.19919 1.79535,0.39719 2.68951,0.58951c0.8895,0.19131 1.77411,0.37738 2.6535,0.5535c0.87131,0.1745 2.58997,0.4935 3.43533,0.63583c0.83334,0.14032 1.65567,0.26855 2.46451,0.396c0.79483,0.12524 1.57523,0.24725 2.3385,0.37799c0.74741,0.12802 2.1868,0.40826 2.87598,0.56866c0.67487,0.15704 1.33353,0.32938 1.98151,0.504c0.64102,0.17276 1.27545,0.35132 1.90952,0.522c0.63397,0.17065 1.91727,0.49158 2.57315,0.63101c0.66147,0.14063 1.33047,0.26501 2.004,0.375c0.67389,0.11005 1.34875,0.20471 2.022,0.285c0.66812,0.07968 1.98572,0.19916 2.63101,0.24014c0.63474,0.04031 1.25989,0.06723 1.875,0.08551c0.60489,0.01797 1.19998,0.02533 1.785,0.03149l0.57498,0.00317" id="svg_22" stroke-width="2" stroke="#000" fill="none"/>
  <path t="15383,15395,15395,15395,15395,15395,15395,15395,15395,15395,15397,15397,15397,15397,15397,15397,15397,15397,15397,15402,15402,15403,15403,15403,15403,15403,15403,15403,15418,15418,15418,15418,15418,15418,15418,15418,15418,15425,15425,15425,15425,15426,15426,15426,15426,15426" d="m321.96667,228.35001c6.83331,2.5 8.39011,2.87242 10.14267,3.24933c1.90265,0.40918 3.92374,0.81372 6.02399,1.209c2.13708,0.40221 4.27652,0.78671 6.384,1.119c3.94434,0.6219 5.72437,0.82883 7.36133,0.99599c1.50229,0.1534 2.88342,0.25685 4.15051,0.32251c1.16104,0.06017 2.2269,0.08771 3.20551,0.0975c1.73193,0.01735 2.50314,0.00572 3.22131,0.008c0.67218,0.00214 1.30539,0.00652 1.90649,0.0195c0.57623,0.01245 1.1347,0.03001 1.68152,0.0645c1.09018,0.06874 1.6449,0.13385 2.21201,0.19867c0.58157,0.06647 1.1785,0.1425 1.79398,0.216c0.63519,0.07587 1.29205,0.1539 1.974,0.21599c1.4415,0.13124 2.20615,0.16756 2.992,0.19734c0.7995,0.0303 1.60535,0.03999 2.409,0.045l0.79367,-0.005l0.77567,-0.015l0.74966,-0.02499" id="svg_23" stroke-width="2" stroke="#000" fill="none"/>
  <path t="16222,16234,16234,16234,16234,16234,16234,16234,16234,16234,16246,16246,16246,16246,16246,16246,16247,16247,16247,16250,16250,16250,16250,16250,16250,16250,16250,16250,16263,16264,16264,16264,16264,16264,16264,16264,16264,16265,16265,16266,16266,16266,16266,16266,16266,16279,16279,16279,16281,16281,16301,16301,16302,16313,16316,16316,16325,16325,16325,16325,16332,16332,16332,16332,16332,16342,16342,16342,16342,16342,16342,16342,16342,16346,16346,16346,16346,16346,16346,16346,16346,16354,16354,16354,16354,16354,16354,16354,16354,16362,16362,16362,16362,16362,16362,16362,16362,16370,16370,16370,16370,16370,16370,16370,16370,16376,16376,16376,16376,16376,16376,16376,16383,16384,16384,16384,16384,16384,16393,16393,16393,16393,16393,16400,16400,16400,16400,16400,16414,16414,16414,16414,16425,16425,16425" d="m460.96667,257.35001c-22.16669,-25.83334 -23.73483,-27.68993 -25.14667,-29.37068c-1.27313,-1.51564 -2.4166,-2.88425 -3.45752,-4.10849c-0.93939,-1.10481 -1.79187,-2.10425 -2.60248,-2.98351c-1.43707,-1.55879 -2.1423,-2.21683 -2.82001,-2.82533c-0.64276,-0.57715 -1.27646,-1.1004 -1.89001,-1.58699c-0.58664,-0.46526 -1.16196,-0.8954 -1.70999,-1.317c-1.04385,-0.80304 -1.53375,-1.20399 -2.00266,-1.608c-0.45972,-0.3961 -0.90103,-0.79749 -1.32901,-1.2c-0.42267,-0.39754 -0.83389,-0.79875 -1.23898,-1.20001c-0.80511,-0.79752 -1.202,-1.20016 -1.60135,-1.59734c-0.39633,-0.39417 -0.78937,-0.78267 -1.18051,-1.161c-0.38354,-0.37099 -0.76013,-0.73116 -1.1355,-1.071c-0.71207,-0.64467 -1.06165,-0.93015 -1.39865,-1.2c-0.32312,-0.25873 -0.6394,-0.49948 -0.94501,-0.729c-0.2944,-0.22112 -0.59476,-0.41386 -1.375,-1.04166c-0.71899,-0.57851 -1.13016,-0.97392 -2,-1.83334c-0.53384,-0.52747 -0.98157,-1.5296 -1.86667,-1.75233c-0.81992,-0.20633 -0.51352,0.58473 0.36166,0.94734c0.6012,0.24908 1.51346,0.79173 2.2955,1.29999c0.56998,0.37044 1.16302,0.78053 2.04285,1.505c0.61526,0.50662 1.22656,1.08617 1.90799,1.68001c0.74216,0.64677 1.58823,1.325 2.05649,1.67484c0.99908,0.74641 1.54227,1.11627 2.09802,1.49933c0.56824,0.39166 1.15042,0.78453 1.74149,1.1805c1.19482,0.80043 2.3967,1.59898 2.996,2.00317c0.60071,0.40514 1.20142,0.8143 1.80002,1.23149c0.60141,0.41914 1.20676,0.84018 2.39999,1.73067c0.6033,0.45023 1.20096,0.91579 1.7955,1.3905c0.59613,0.47597 1.19037,0.9558 2.34732,1.94733c0.5752,0.49295 1.69208,1.49377 2.23584,1.99535c0.53891,0.4971 1.06815,0.99623 1.59601,1.48949c0.52481,0.4904 1.04446,0.98158 1.578,1.45351c1.59573,1.41142 2.1658,1.83914 2.72998,2.27184c0.56284,0.43166 1.13168,0.84978 1.6965,1.2645c0.5592,0.4106 1.66196,1.20615 2.6875,2.02084c0.49545,0.3936 0.97134,0.79037 1.86133,1.59999c0.4346,0.39536 0.85464,0.79597 1.66934,1.60001c0.80661,0.79604 1.60132,1.59866 1.99817,1.9955c0.78366,0.78366 1.16849,1.16849 1.91916,1.91916c0.71866,0.71867 1.40289,1.39848 2.04935,2.06c0.31659,0.32396 0.94736,0.96407 1.836,1.992c0.60971,0.70528 0.89151,1.08026 1.47916,1.79167c0.55988,0.6778 1.32855,1.57158 2.06818,2.17917c0.43823,0.35999 1.13666,0.82916 2.134,1.63049l0.52264,0.48267l0.49869,0.49867" id="svg_24" stroke-width="2" stroke="#000" fill="none"/>
  <path t="17128,17150,17150,17162,17164,17164,17176,17176,17176,17180,17180,17180,17186,17186,17186,17194,17194,17194,17202,17202,17212,17213,17213,17216,17216,17216,17226,17226,17234,17234,17234,17243,17243,17243,17246,17246,17259,17259,17262,17262,17270,17270,17277,17286,17286,17293,17300,17318,17326,17330,17330,17344,17352,17352,17352,17360,17360,17366,17366,17366,17376,17376,17376,17376,17382,17382,17382,17382,17382,17393,17393,17393,17393,17393,17393,17396,17396,17396,17396,17396,17396,17410,17410,17411,17411,17411,17411,17411,17412,17412,17412,17412,17413,17413,17413,17420,17420,17420,17420,17421,17421,17421,17421,17421,17428,17428,17428,17428,17429,17429,17429,17429,17429,17434,17434,17434,17434,17434,17434,17434,17435,17435,17444,17444,17444,17444,17445,17445,17445,17445,17450,17450,17450,17450,17451,17451,17451,17451,17460,17460,17460,17460,17460,17460,17461,17461" d="m326.96667,174.35001c2.47131,-5.07133 2.19736,-5.79733 1.5,-6.5c-0.5979,-0.60246 -1.13602,-1.136 -1.8215,-1.8215c-0.5145,-0.51451 -1.09348,-1.07268 -1.87817,-1.87868c-0.58694,-0.60287 -1.20117,-1.20876 -1.5575,-2.22116c-0.27365,-0.77748 -0.22098,-1.64026 -0.46432,-2.65717c-0.16718,-0.69856 -0.59885,-1.51103 -0.97717,-2.32283c-0.38489,-0.82584 -0.66693,-1.76151 -0.74417,-2.55133c-0.08011,-0.81941 -0.05716,-1.88068 -0.05716,-2.81134c0,-0.6315 0,-1.63733 0,-2.472c0,-0.93066 -0.03021,-1.71872 0.03598,-2.53867c0.08585,-1.06325 0.38272,-1.99698 0.66852,-2.62083c0.46628,-1.01775 0.86407,-1.57719 1.12881,-2.60449c0.19968,-0.77477 0.07306,-1.84319 0.20267,-2.62534c0.14597,-0.88086 0.56842,-1.79247 1.36401,-2.31334c0.72943,-0.47757 1.47842,-0.79417 2.07916,-1.56133c0.5076,-0.64821 0.62338,-1.57727 1.38217,-1.92534c0.95813,-0.43953 1.7175,-0.61893 2.50034,-0.222c0.83621,0.424 1.50467,0.53496 2.23965,0.81667c1.06036,0.40642 1.57486,1.04655 2.39868,1.664c0.58832,0.44095 1.26038,0.79546 2.16666,1.5c0.53506,0.41597 1.35477,1.19316 1.995,1.66133c0.97589,0.71362 1.35172,0.881 2.09552,1.2c0.75586,0.32416 1.57047,0.56113 2.74283,1.13867c0.81891,0.40343 1.21048,0.67184 2.02081,1.20833c0.84265,0.55789 1.25684,0.87259 2.60068,1.75833c0.46124,0.304 1.41379,0.90112 1.89932,1.20001c0.48914,0.30112 1.48029,0.90036 2.47919,1.5c0.50003,0.30017 1.50366,0.90141 2.01065,1.2c1.02365,0.60286 1.54501,0.90263 2.07468,1.2c1.07831,0.60539 2.20087,1.20219 2.77634,1.5045c0.58453,0.30705 1.18033,0.61569 1.785,0.9315c1.24069,0.64799 2.52063,1.32947 3.17484,1.68533c0.66449,0.36145 1.33539,0.73181 2.0145,1.10399c0.68454,0.37517 1.3735,0.75153 2.06848,1.12201c0.69568,0.37085 2.09363,1.08984 2.79568,1.43117c0.69931,0.34 1.40286,0.66756 2.1105,0.98549c0.70871,0.31841 1.42426,0.62785 2.14648,0.9315c0.72711,0.30571 2.20905,0.90569 2.96402,1.2045c0.76102,0.30119 1.5271,0.59967 2.29349,0.90001c0.76462,0.29967 1.52475,0.59807 2.27551,0.89999c0.74124,0.29811 2.17767,0.89726 2.86697,1.19983c0.67471,0.29616 1.33267,0.59641 1.98151,0.88951c1.27536,0.57611 1.90671,0.86012 2.54401,1.12532c1.27853,0.53203 1.93695,0.7688 2.60132,1.00134c1.33798,0.46834 2.01642,0.6828 2.69067,0.90933c0.67307,0.22614 1.34744,0.44232 2.65866,0.94133c0.64847,0.2468 1.28687,0.50925 2.54135,1.06934c0.62744,0.28014 1.25067,0.57466 1.87799,0.8685l0.63135,0.29683" id="svg_25" stroke-width="2" stroke="#000" fill="none"/>
 </g>
 <g display="none">
  <title>muse_image</title>
  <image xlink:href="http://farm3.static.flickr.com/2176/2165867961_d2caac80fd.jpg" id="muse" height="480" width="640" y="0" x="0"/>
 </g>
 <g display="none">
  <title>bbox</title>
  <rect stroke="#f00" fill="none" stroke-width="3" height="96" width="289.28" y="184.32" x="185.6" id="bbox"/>
 </g>
</svg>
