<svg width="640" height="480" xmlns="http://www.w3.org/2000/svg" xmlns:svg="http://www.w3.org/2000/svg" xmlns:xlink="http://www.w3.org/1999/xlink">
 <!-- Sketchy ANNOTATION
  ImageNet ID: n02691156_35496
  URL: http://farm3.static.flickr.com/2043/1546001202_90b3744145.jpg
  Image Width: 500
  Image Height: 333
  BBox X: 81
  BBox Y: 135
  BBox Width: 258
  BBox Height: 70
  Exposure: 2000ms
  Synset Label: airplane
  Synset ID: n02691156
  Worker Tag: flight taking off
  Sanity Check: 
   Saved
  Comment: 
   {}
  Worker ID: A1P7U2ULSAE7YL
  Assignment ID: 3OWEPKL089CMFSMFE1Q6FPIMRJY7NW
  HIT ID: 36KM3FWE3RCH7CWENTJ6FTROEPQ707
  Work Time: 68s
  Worker Score: 0.7143
 END ANNOTATION -->
 <g display="inline">
  <title>Layer 1</title>
  <path t="0,279,288,303,320,327,351,351,359,407,431,447,471,495,519,519,527,567,575,591" d="m116.51137,247.09091c0,-0.80133 0.09962,-1.68819 0.80133,-2.084c0.81642,-0.46051 1.66273,-0.75986 2.39867,-1.20134c0.67862,-0.40709 1.21532,-1.38855 2.1,-1.6575c0.86164,-0.26195 1.35796,-0.67932 1.98534,-1.05716c0.69788,-0.4203 1.75292,0.17355 2.51466,-0.08533c0.88792,-0.30176 1.60001,-0.87868 2.49551,-0.91917l0.67917,-0.42084" id="svg_1" stroke-width="2" stroke="#000" fill="none"/>
  <path t="1465,1663,1672,1688,1696,1704,1720,1752,1759,1783,1807,1815,1815,1839,1871,1887,1903,1903,1919,1935,1967,1991,2007,2007,2023,2031,2031,2039,2055,2071,2071,2103,2103,2111,2111,2127,2127,2136,2136,2143,2151,2167,2175,2191,2191,2199,2207,2216,2223,2232,2239,2247,2255,2263,2271,2287,2287,2295,2295,2304,2304,2311,2327,2336,2336,2343,2351,2359,2359,2367,2367,2375,2384,2384,2391,2391,2399,2407,2415,2415,2423,2423,2432,2439,2439,2455,2455,2455,2455,2463,2463,2471,2471,2479,2480,2487,2487,2487,2495,2495,2503,2503,2512,2512,2519,2520,2527,2527,2535,2535,2543,2543,2551,2559,2567,2567,2567,2575,2575,2583,2583,2591,2591,2591,2599,2599,2607,2607,2615,2616,2623,2623,2639,2639,2639,2648,2655,2655,2656,2663,2663,2671,2679,2679,2687,2687,2695,2695,2703,2703,2711,2719,2719,2727,2727,2727,2728,2736,2736,2743,2744,2744,2753,2753,2753,2759,2759,2769,2769,2769,2775,2775,2776,2776,2776,2785,2786,2786,2786,2791,2791,2802,2802,2802,2802,2807,2807,2807,2815,2815,2815,2823,2824,2824,2833,2833,2833,2840,2840,2840,2849,2849,2849,2849,2855,2855,2856,2856,2856,2863,2864,2864,2864,2864,2871,2872,2872,2879,2880,2880,2888,2888,2888,2895,2895,2895,2896,2904,2904,2904,2904,2911,2911,2912,2912,2920,2920,2920,2927,2928,2936,2936,2936,2943,2944,2944,2944,2952,2952,2959,2960,2960,2969,2975,2976,2985,2985,2986,2986,2991,2991,3000,3007,3008,3015,3015,3015,3023,3023,3032,3032,3032,3039,3040,3048,3048,3056,3056,3056,3057,3065,3065,3065,3072,3072,3079,3080,3087,3087,3087,3088,3095,3096,3103,3111,3111,3121,3121,3127,3135,3143,3154,3154,3159,3171,3171,3175,3188,3191,3191,3207,3220,3334" d="m127.51137,240.09091c1.8,0 2.38716,-0.3145 3.16667,-0.83333c0.70746,-0.47087 1.37825,-0.61702 2.11867,-1.08134c0.77826,-0.48805 1.9532,0.18904 2.59332,-0.30666c0.63644,-0.49284 1.24615,-0.97145 1.92134,-1.58c0.62401,-0.56244 1.39697,-1.15596 2.3,-1.19867c0.89899,-0.04253 1.7,0 2.59999,0c0.94284,0 1.82083,0 2.71066,0c0.91068,0 1.76401,0 2.70401,0c0.88533,0 1.68533,0 2.58533,0c0.936,0 1.78267,0 2.59016,0c1.04317,0 1.89517,0 2.82584,0c0.76801,0 1.72,0 2.48534,0c0.99417,0 1.7415,0 2.76266,0c0.9315,0 1.8575,0 2.73601,0c0.89999,0 1.7,0 2.59999,0c0.90001,0 1.8,0 2.7,0c0.90001,0 1.89789,-0.15935 2.54733,0.35266c0.61462,0.48456 1.35268,0.64734 2.25267,0.64734c0.90016,0 1.68533,0 2.636,0c0.76534,0 1.7688,-0.15141 2.59334,0c0.97626,0.17928 1.66907,0.89108 2.57066,1c0.79874,0.0965 1.42186,0.68933 2.3045,0.94283c0.97887,0.28113 1.6955,0.05717 2.674,0.05717c0.82016,0 1.77867,0 2.67867,0c0.74733,0 1.74017,0 2.62849,0c0.88234,0 1.75601,0 2.71434,0c0.78934,0 1.8551,-0.14767 2.58932,0.036c0.88177,0.22058 1.72758,0.886 2.45235,0.94318c1.1217,0.08849 1.91211,0.00374 2.73299,0.05682c0.54245,0.03508 1.75793,0.33275 2.56367,0.61134c0.90739,0.31374 1.631,0.35199 2.67149,0.35266c0.77551,0.00049 1.8239,-0.01962 2.533,0.0045c0.85379,0.02905 1.85315,0.28667 2.62117,0.57016c0.94876,0.35022 1.72569,0.49348 2.49316,0.778c0.75323,0.27924 1.74043,0.59502 2.54283,0.63667c0.99872,0.05183 1.8,0.01067 2.8,0.01067c0.78934,0 1.92313,-0.3167 2.63834,0.05716c0.74991,0.392 1.4174,0.87598 2.36166,1.10951c0.81619,0.20186 1.38107,0.5656 2.39999,0.748c0.79091,0.14159 1.8,0.08533 2.60001,0.08533c1,0 1.8,-0.0018 2.60001,0c1,0.00226 1.81824,-0.01195 2.79866,0.284c0.78375,0.23657 1.71393,0.67209 2.48534,0.71468c0.9612,0.05307 1.80266,0.00133 2.79866,0.00133c0.79651,0 1.55327,-0.09767 2.65601,0.01067c0.83853,0.08238 1.66919,0.52806 2.26266,0.70534c0.97707,0.29185 1.91333,0.28333 2.89867,0.284c0.8215,0.00055 1.71066,0 2.69983,0c0.77934,0 1.77884,0 2.55284,0c0.89999,0 1.76334,-0.00011 2.74731,0c0.82184,0.00009 1.56827,-0.02286 2.83334,0.16667c0.63699,0.09544 1.30542,0.26436 2.30417,0.48067c1.09698,0.23758 1.85001,0.31451 2.69583,0.51933c0.93915,0.22743 1.4621,0.4178 2.5,0.83333c0.94043,0.3765 1.5564,0.71181 2.56668,1.19867c0.59665,0.28752 1.5939,0.68195 2.43198,0.76534c0.73654,0.07329 1.668,0.03244 2.42136,0.03732c0.83334,0.0054 1.70831,0.01099 2.57999,0.084c1.22675,0.10275 1.94971,0.25945 2.90933,0.48933c0.57047,0.13666 1.80817,0.38788 2.51868,0.41467c1.07129,0.04041 1.70667,0.01067 2.73865,0.01067c0.69467,0 1.95718,0 2.73868,0c0.7095,0 1.68311,-0.01729 2.48666,0.01067c0.82281,0.02863 1.8652,0.17648 2.77466,0.51016c0.69406,0.25465 1.67853,0.69904 2.52084,0.95834c0.57935,0.17836 1.77762,0.41589 2.37918,0.46365c0.89838,0.07132 2.10001,0.05157 2.70267,0.0585c0.93915,0.01079 1.61432,0.03156 2.73065,0.16534c0.83838,0.10048 1.72903,0.26395 2.65201,0.444c0.46704,0.09111 1.84833,0.38791 2.72665,0.588c0.83099,0.18932 1.60226,0.38065 2.31601,0.51599c1.19806,0.22717 1.95505,0.25751 2.65466,0.36934c1.00986,0.16142 1.8399,0.43143 2.71866,0.71733c0.90048,0.29297 1.79352,0.60684 2.39868,0.76266c1.19098,0.30667 1.80014,0.37106 2.72083,0.41516c0.63583,0.03046 2.00067,0.02084 2.73633,0.02084c0.76367,0 1.54733,-0.00101 2.74283,0c0.79733,0.00067 1.57986,-0.01309 2.328,0.03601c1.34216,0.0881 2.1554,0.32391 2.85068,0.53867c1.0181,0.31448 1.82117,0.41489 2.82132,0.42532c0.82132,0.00854 1.51434,0 2.64267,0c0.66269,0 1.35733,0 2.38934,0c0.92499,0 1.92633,0 2.96799,0c0.78934,0 1.52432,-0.11816 2.5,0.02084c1.01132,0.1441 1.53278,0.52148 2.66669,0.97916c0.78012,0.31488 1.33768,0.48843 2.14932,0.79999c1.00159,0.38446 1.73462,0.95526 2.68399,1.17917c0.85934,0.2027 1.68802,0.02084 2.68402,0.02084c0.81598,0 1.6322,-0.0191 2.63065,0.00134c0.87518,0.01791 1.69009,0.15103 2.48535,0.42398c0.80505,0.27631 1.80597,0.4837 2.60001,0.62735c1.01126,0.18295 1.59964,0.53146 2.76666,0.78067c0.78046,0.16666 1.64392,0.16031 2.23465,0.16531c1.19598,0.01013 2.05701,0.00134 2.828,0.00134c0.96533,0 1.73868,0 2.785,0c0.80701,0 1.98566,0 2.58435,0c0.88049,0 1.71597,0 2.71466,0c0.84,0 1.80133,0 2.78683,0c0.78516,0 1.72516,0 2.41583,0c1.07333,0 2.01874,-0.05292 2.784,0.35266c0.84589,0.4483 1.5,0.64426 2.45715,0.64734c0.89551,0.00287 1.78635,0.02347 2.60684,0.42532c0.86993,0.42609 1.63599,0.57468 2.436,0.57468l0.89999,0l0.89999,0l0.96402,0" id="svg_2" stroke-width="2" stroke="#000" fill="none"/>
  <path t="5160,5287,5295,5295,5295,5303,5312,5319,5319,5329,5335,5335,5343,5359,5359,5375,5391,5399,5407,5423,5448,5463,5479,5487,5512,5528,5543,5583,5679,5735,5759,5759,5768,5768,5791,5807,5815,5832,5839,5839,5848,5864,5881,5887,5903,5903,5911,5911,5919,5919,5928,5928,5935,5944,5959,5967,5967,5975,5975,5983,5983,5991,5999,6007,6007,6015,6015,6023,6023,6031,6039,6048,6048,6055,6063,6071,6071,6081,6087,6098,6098,6103,6103,6103,6111,6111,6119,6128,6128,6136,6136,6144,6145,6151,6159,6159,6159,6167,6167,6175,6175,6183,6183,6183,6191,6191,6199,6199,6207,6207,6215,6215,6223,6231,6231,6231,6239,6239,6239,6248,6248,6255,6255,6255,6264,6265,6271,6271,6279,6279,6287,6287,6297,6297,6303,6303,6303,6314,6314,6319,6319,6319,6327,6328,6328,6336,6336,6336,6344,6344,6344,6351,6351,6351,6359,6359,6367,6367,6367,6375,6375,6375,6383,6383,6383,6391,6391,6399,6399,6400,6407,6407,6407,6415,6415,6421,6421,6422,6431,6431,6439,6439,6439,6449,6449,6449,6455,6455,6467,6468,6471,6471,6471,6482,6482,6482,6488,6488,6488,6495,6495,6504,6504,6504,6511,6512,6512,6512,6520,6520,6520,6527,6527,6528,6536,6536,6536,6544,6544,6551,6552,6552,6561,6561,6567,6567,6575,6575,6591,6591,6599,6599,6607,6607,6617,6617,6623,6634,6639,6639,6647,6647,6655,6655,6663,6679,6679,6687,6687,6701,6701,6704,6717,6717,6720,6727,6736,6752,6752,6761,6761,6768,6775,6785,6791,6799,6807,6817,6823,6834,6839,6847,6847,6855,6867,6871,6884,6887,6900,6911,6935,6936,6944,6952,6960,6975,6984,6991,7007,7015,7033,7039,7050,7055,7071,7087,7087,7103,7103,7119,7119,7136,7143,7144,7152,7160,7167,7176,7177,7183,7207,7207,7223,7234,7255,7266,7311,7311,7375,7383,7415,7439,7451,7471,7495,7504,7504,7519,7536,7551,7775,7791,7815,7824,7824,7839,7850,7855,7855,7863,7871,7887,7895,7895,7911,7911,7919,7919,7927,7927,7935,7936,7944,7944,7961,7967,7977,7985,7992,8002,8007,8017,8023,8039,8039,8047,8055,8055,8071,8071,8083,8084,8084,8087,8100,8103,8111,8130,8130,8135,8147,8151,8160,8160,8168,8183,8192,8192,8201,8201,8218,8218,8233,8234,8239,8482,8484,8767,8783,8784,8799,8808,8808,8815,8825,8825,8837,8847,8847,8855,8865,8888,8951,9207,9207,9216,9224,9232,9232,9241,9241,9248,9249,9255,9255,9265,9265,9265,9271,9285,9285,9288,9289,9289,9295,9295,9303,9311,9311,9319,9320,9331,9332,9347,9368,9368,9381,9381,9384,9394,9400,9408,9416,9424,9425,9441,9441,9455,9465,9465,9481,9487,9509,9519,9551,9591" d="m116.51137,250.09091c0.436,1.44667 1.00688,2.16254 1.4,2.82533c0.40717,0.68648 1.09094,1.4827 1.516,2.37466c0.40887,0.85802 0.74409,1.54802 1.384,2.0955c0.75233,0.64368 1.60117,0.7991 2.08934,1.56583c0.57394,0.90143 0.6095,1.73022 1.31516,2.19135c0.74883,0.48935 1.61722,0.79013 2.24284,1.29999c0.60809,0.49557 0.8623,1.29367 1.48866,2.03668c0.53155,0.63052 1.39114,0.96259 1.91666,1.55798c0.56326,0.63815 1.05096,1.24567 1.73134,1.76868c0.61128,0.46988 1.76808,0.23969 2.48534,0.56934c0.80658,0.3707 1.46707,1.03812 2.22932,1.42932c0.83992,0.43109 1.82054,0.12015 2.70134,0.30618c0.8474,0.17899 1.4874,0.89413 2.3,0.97781c0.89526,0.09219 1.84283,0.00134 2.72083,0.00134c0.88983,0 1.80051,0 2.65384,0c0.94266,0 1.79466,0 2.59334,0c0.98132,0 1.89867,0 2.81065,0c0.82133,0 1.72134,0 2.62268,0c0.96533,0 1.79866,0 2.77733,0c0.774,0 1.674,0 2.53734,0c0.96317,0 1.7885,0 2.80533,0c0.67867,0 1.65733,0 2.43134,0c0.89999,0 1.76335,-0.00549 2.7265,0c0.93153,0.00534 1.83936,0.2283 2.52083,0.5c0.97441,0.38849 1.87883,0.5 2.70984,0.5c0.8075,0 1.76933,0 2.70082,0c0.91084,0 1.61018,-0.00653 2.58934,0c0.80005,0.00534 1.61673,0.02942 2.5955,0.35266c0.7628,0.25192 1.77864,0.62933 2.726,0.64734c0.6992,0.01331 1.6785,0 2.46783,0c1.04399,0 1.90616,0 2.75233,0c1.00099,0 1.709,0 2.45299,0c1.19551,0 1.88914,-0.03738 2.85201,0.01065c0.84225,0.04202 1.83765,0.26736 2.63251,0.48935c0.7531,0.21033 1.714,0.47021 2.48883,0.49866c1.03662,0.03802 1.78163,-0.02478 2.88916,0.0015c0.75815,0.01797 1.61739,0.3074 2.3175,0.57452c1.05959,0.40427 1.99284,0.40051 2.672,0.43597c0.84216,0.04398 1.83734,0.27335 2.65334,0.48935c0.81599,0.216 1.81255,0.4462 2.68933,0.48932c0.80975,0.03983 1.61067,0.01068 2.41068,0.01068c1,0 1.79999,0 2.79999,0c0.8,0 1.8,0 2.60001,0c1,0 1.97917,0 2.83333,0c0.828,0 1.7095,0 2.6875,0c0.79651,0 1.79517,0 2.47917,0c1.16667,0 1.95267,0 2.77466,0c1.05867,0 1.77267,0 2.67801,0c0.96883,0 1.78333,0 2.65182,0c0.89551,0 1.791,0 2.6595,0c1.06934,0 1.77884,0 2.6315,0c1.00584,0 1.8405,0 2.77118,0c0.786,0 1.60799,0 2.66666,0c0.94133,0 1.61934,0 2.58784,0c0.79349,0 1.80949,0 2.778,0c0.66333,0 1.85416,0 2.48749,0c0.67334,0 1.98001,0 2.79901,0c0.90533,0 1.71432,0 2.51431,0c1,0 1.95834,0 2.88568,0c0.83316,0 1.58051,0 2.53568,0c0.80399,0 1.62598,0 2.65732,0c0.92133,0 1.60535,0 2.604,0c1.056,0 1.98401,0 2.81732,0c1.04285,0 1.76135,0 2.55185,0c1.02682,0 1.72284,0 2.63217,0c1,0 1.81598,0 2.63199,0c1,0 1.90933,0 2.85068,0c0.7905,0 1.64398,0 2.83331,0c0.60001,0 1.5,0 2.40002,0c0.89981,0 1.78934,0 2.64282,0c1.03583,0 1.73184,0 2.64117,0c1,0 1.81598,0 2.63199,0c1,0 1.90933,0 2.85068,0c0.78149,0 1.57199,0 2.69049,0c0.89099,0 1.80002,0 2.54733,0c0.99551,0 1.7955,0 2.7955,0c0.79999,0 1.79999,0 2.58932,0c1.04401,0 1.836,0 2.69467,0c0.86334,0 1.75885,0 2.71735,0c0.96533,0 1.62399,0 2.63199,0c0.91934,0 1.81934,0 2.51401,0c1.02734,0 1.97415,0 2.67349,0c0.97916,0 1.95834,0 2.8125,0c0.86218,0 1.80267,0 2.65067,0c0.86334,0 1.75885,0 2.71466,0c0.86267,0 1.67334,0 2.40402,0c1.18665,0 1.91199,0 2.8765,0c0.92084,0 1.82083,0 2.72083,0c0.89999,0 1.79999,0 2.67868,0c0.82584,0 1.72131,0 2.64215,0c0.96317,0 1.65384,0 2.72202,0c0.85715,0 1.89505,-0.32181 2.59048,0.16666c0.71518,0.50232 1.36533,0.83334 2.21933,0.83334c0.94733,0 1.74734,0 2.64734,0c0.89999,0 1.79999,0 2.70001,0c0.89999,0 1.79999,0 2.69998,0c0.89999,0 1.73334,0 2.51068,0c0.98932,0 1.88931,0 2.69382,0c1.017,0 1.71634,0 2.6955,0c0.78934,0 1.83334,0 2.63834,0c0.90335,0 1.84567,0 2.70901,0c0.89551,0 1.85266,0 2.75266,0c0.89999,0 1.70001,0 2.53601,0c1.01218,0 1.79468,0 2.72116,0c0.94284,0 1.84283,0 2.74283,0c0.89999,0 1.70001,0 2.60001,0c0.89999,0 1.79999,0 2.70001,0c0.89548,0 1.76666,0 2.69998,0c0.89999,0 1.70001,0 2.60001,0c0.89999,0 1.79999,0 2.70001,0c0.89999,0 1.85504,0.16861 2.59998,-0.16666c0.73196,-0.32944 0.92426,-1.30878 1.35269,-2.13333c0.44141,-0.84952 0.20947,-1.71048 0.81799,-2.41467c0.57343,-0.6636 1.58575,-0.61066 2.05084,-1.3855c0.41965,-0.69916 0.9639,-1.39252 1.37848,-2.07452c0.57986,-0.95386 1.14902,-1.54691 1.59866,-2.31064c0.41205,-0.69989 0.65524,-1.71878 0.80133,-2.49384c0.18958,-1.00592 0.65143,-1.57303 1.2955,-2.32083c0.57608,-0.66888 1.15106,-1.24683 1.61917,-1.98401c0.44504,-0.70087 -0.12656,-1.8302 0.36935,-2.54666c0.48041,-0.69406 1.36493,-1.1138 1.66333,-1.87918c0.29749,-0.76303 0.45767,-1.68333 1.15283,-2.39017c0.51389,-0.52252 1.37949,-1.11037 1.92065,-1.39999c0.96933,-0.51878 1.84714,-0.78207 2.40851,-1.3c0.72855,-0.67218 1.02737,-1.58156 1.48666,-2.39867c0.39563,-0.70384 1.01859,-1.23869 1.0795,-2.15317c0.05923,-0.88904 -0.26065,-2.02361 0.28983,-2.56416c0.6207,-0.60953 1.1965,-1.02219 1.76733,-1.72684c0.59177,-0.73051 1.11502,-1.35646 1.55801,-1.99316c0.58932,-0.84706 1.01526,-1.51711 1.26801,-2.34267c0.23224,-0.75856 0.43756,-1.69601 0.82584,-2.36867c0.53638,-0.92923 1.74731,-1.76624 1.29547,-2.48599c-0.35504,-0.5656 -1.65265,-0.16667 -2.34732,-0.16667c-1.02734,0 -1.974,0 -2.65268,0c-1.11465,0 -2,0 -2.79999,0c-0.836,0 -1.85266,0 -2.54733,0c-1.01666,0 -1.95267,0 -2.85266,0c-0.89999,0 -1.80185,-0.05389 -2.60001,0c-0.84863,0.0573 -1.01483,0.90712 -1.36667,1.83333c-0.31134,0.8196 -1.0741,1.33389 -1.53333,1.92384c-0.66211,0.85059 -0.94754,1.62704 -1.50134,2.35883c-0.51001,0.67392 -1.28265,1.36798 -1.79868,1.884c-0.51599,0.51601 -1.37027,1.35779 -2,2c-0.52609,0.53653 -1.17404,1.32806 -1.64816,2.00084c-0.49829,0.70705 -1.04681,1.4823 -1.43448,2.16583c-0.4736,0.83504 -0.8515,1.72583 -1.43817,2.3125c-0.58667,0.58669 -1.45706,1.05737 -2.3125,1.35416c-0.78824,0.27347 -1.33441,0.99467 -2.16669,1.16667c-0.80106,0.16554 -1.3082,0.92593 -1.79999,1.43199c-0.72763,0.74875 -1.25266,1.27251 -1.70001,2.06801c-0.44733,0.7955 -0.98285,1.37782 -1.70132,1.78534c-0.74527,0.4227 -1.46457,0.99249 -2.146,1.41467c-0.91422,0.56638 -1.77377,0.9136 -2.36734,1.38397c-0.73862,0.58533 -1.38516,0.91617 -2.16382,1.13736l-0.20685,0.77866l-0.90399,0.03601l-0.23199,0.8425" id="svg_3" stroke-width="2" stroke="#000" fill="none"/>
  <path t="11247,11415,11415,11425,11425,11442,11447,11455,11471,11472,11479,11487,11511,11879,11887,11895,11911,11911,11919,11927,11951,11967,11967,11975,11983,11991,11991,11999,12007,12023,12031,12063,12071,12087,12095,12095,12104,12119,12127,12135,12143,12159,12175,12255,12257,12527,12567,12567,12575,12575,12591,12599,12607,12631,12647,12647,12680,12712,12816,12888" d="m396.51135,268.09091c1.83603,0 2.60239,-0.04135 3.59552,0.00449c0.92172,0.04254 1.76508,0.41284 2.45715,1.04819c0.60037,0.55112 1.40921,1.19128 2.12201,1.51132c0.91409,0.41046 1.77267,0.436 2.62668,0.436c0.82797,0 -0.00134,0 -0.90134,0c-0.90002,0 -1.70001,0 -2.60001,0c-0.94284,0 -1.84167,0 -2.784,0c-0.69067,0 -1.75885,0 -2.616,0c-0.90002,0 -1.70001,0 -2.60001,0c-0.89999,0 -1.80002,0 -2.77917,0c-0.87799,0 -1.72083,0 -2.62082,0c-0.90002,0 -1.70001,0 -2.60001,0c-0.89999,0 -1.80002,0 -2.70001,0c-0.89999,0 -1.79999,0 -2.69998,0c-0.90002,0 -2.25089,-0.14752 -1.81467,-0.716c0.58304,-0.7598 1.67181,-0.284 2.56732,-0.284c0.86334,0 1.82651,0 2.74734,0c0.89999,0 1.84845,0.15353 2.59998,-0.16666c0.78122,-0.33282 1.5,-0.8125 2.40002,-0.83334l0.98932,0l0.896,0" id="svg_4" stroke-width="2" stroke="#000" fill="none"/>
  <path t="18552,18735,18743,18744,18744,18752,18752,18752,18752,18759,18759,18759,18768,18768,18768,18775,18776,18776,18776,18784,18784,18784,18784,18784,18791,18792,18792,18792,18792,18792,18792,18801,18801,18801,18801,18801,18801,18801,18807,18807,18807,18807,18807,18807,18815,18816,18816,18816,18816,18816,18816,18824,18824,18824,18824,18824,18824,18834,18834,18834,18834,18835,18835,18835,18839,18839,18839,18839,18840,18840,18840,18851,18851,18851,18851,18851,18851,18851,18856,18856,18856,18856,18856,18856,18867,18867,18867,18867,18867,18867,18867,18872,18872,18872,18872,18873,18873,18873,18873,18873,18880,18880,18880,18880,18880,18880,18881,18887,18888,18888,18888,18888,18888,18888,18888,18896,18896,18896,18896,18896,18896,18896,18896,18905,18906,18906,18906,18906,18906,18906,18911,18912,18912,18912,18912,18912,18912,18919,18919,18919,18919,18920,18920,18927,18928,18928,18928,18928,18928,18938,18938,18938,18943,18944,18944,18956,18956,18959,18971,18972,18987,18987" d="m201.51137,258.09091c2.52083,0.02084 3.54164,0.22629 4.272,0.42532c0.83546,0.22769 1.72742,0.41245 2.62799,0.52652c0.89946,0.11392 1.52731,0.14325 2.69867,0.61615c0.60721,0.24515 1.41833,0.78745 2.23466,1.09866c0.92795,0.35376 1.69264,0.38858 2.80968,0.77618c0.68254,0.23685 1.3949,0.58685 2.166,0.909c1.18536,0.49521 1.58627,0.64264 2.39999,0.89099c0.82785,0.25269 1.70274,0.465 3.12433,0.75717c0.50879,0.10458 1.58116,0.30371 2.13867,0.41068c0.56982,0.10934 1.73819,0.34113 2.33067,0.47467c1.19983,0.27045 2.39584,0.59592 2.98833,0.77182c0.58887,0.1748 1.17108,0.35281 2.29466,0.74734c0.54555,0.19156 2.0728,0.79321 2.54767,0.99548c0.92857,0.39554 1.38458,0.60696 2.32916,1c0.48936,0.20361 2.10011,0.80435 2.69084,0.99734c0.6076,0.19849 1.86603,0.56662 2.50667,0.73065c0.63776,0.1633 1.26564,0.34741 3.09717,0.62918c0.57147,0.08792 1.13234,0.14133 2.222,0.22198c0.5352,0.03961 1.60486,0.08752 2.6875,0.1875c1.12032,0.10345 1.6915,0.18839 2.26933,0.28c1.17688,0.18658 1.77049,0.30585 2.36534,0.44c1.80511,0.40714 2.39999,0.59406 2.99866,0.77051c1.20273,0.35446 1.80042,0.55215 2.39999,0.74734c0.60043,0.19547 2.39993,0.7952 2.99866,0.99548c0.59692,0.19971 1.19156,0.3974 2.36536,0.80002c0.57925,0.1987 1.15375,0.39148 2.81467,1c0.53833,0.19724 1.59598,0.59998 2.12131,0.79999c0.52536,0.20001 1.58179,0.60611 2.66669,1c1.11908,0.40631 1.69879,0.60208 2.29065,0.79999c0.60446,0.20212 1.86038,0.60373 2.51468,0.80002c1.35904,0.40771 2.07016,0.60126 2.79468,0.79999c0.73383,0.20129 1.47351,0.39935 2.21249,0.60001c0.73434,0.19937 1.46014,0.39359 2.16748,0.60001c1.99454,0.58209 2.60132,0.79761 3.19086,1.00449c0.57712,0.20251 1.70334,0.62933 2.26334,0.85266c0.56671,0.22598 2.34171,0.96515 2.96982,1.22552c0.64319,0.26663 1.29984,0.5358 1.97101,0.79648c0.67816,0.2634 1.36368,0.52188 2.061,0.7515c1.39032,0.45779 2.79459,0.80508 3.49283,0.95502c0.69247,0.14871 1.38309,0.27609 2.06848,0.39301c0.67825,0.11572 1.3511,0.21597 3.31467,0.52133c0.63748,0.09912 1.26871,0.19983 1.89603,0.29999c1.2507,0.19971 1.87787,0.30078 2.50931,0.39999c1.28244,0.20154 2.59866,0.40009 3.26419,0.5c0.66647,0.10007 1.33115,0.19901 1.99048,0.30002c1.29233,0.198 2.52823,0.39877 3.11835,0.49982c1.12906,0.19333 1.66995,0.29587 2.72165,0.46417c0.51187,0.08191 2.02081,0.2757 2.52103,0.31451c0.99045,0.07687 1.95859,0.1033 2.42831,0.11081c0.90128,0.0144 2.12885,0.01068 3.18933,0.01068c0.62534,0 1.716,0 2.64667,0c0.83469,0 1.83151,0 2.57883,0c1.03186,0 1.97852,0 2.65717,0l0.97852,0l0.82016,0" id="svg_6" stroke-width="2" stroke="#000" fill="none"/>
  <path t="20136,20239,20248,20248,20255,20255,20264,20264,20272,20272,20280,20280,20280,20288,20288,20288,20295,20296,20296,20304,20304,20304,20312,20313,20313,20313,20320,20320,20320,20329,20329,20336,20336,20336,20344,20344,20344,20352,20352,20352,20359,20360,20368,20368,20375,20375,20384,20384,20391,20400,20400,20408,20496,20871,20888,20888,20896,20896,20904,20904,20912,20919,20919,20928,20928,20936,20944,20945,20945,20951,20951,20951,20960,20960,20970,20970,20970,20970,20976,20976,20976,20986,20986,20986,20986,20991,20991,21002,21002,21003,21007,21007,21007,21015,21016,21016,21023,21023,21023,21035,21035,21035,21052,21052,21056,21056,21056,21063,21064,21072,21072,21079,21080,21088,21096,21096,21104,21104,21104,21111,21111,21111,21112,21120,21120,21120,21128,21128,21136,21145,21145,21145,21151,21151,21160,21167,21167,21175,21178,21178,21201,21207,21208,21218,21223,21224,21236,21239,21240,21251,21251,21255,21268,21272,21272,21272,21285,21288,21288,21301,21304,21318,21318,21320,21321,21343,21352,21375,21399,21415,21415,21423" d="m205.51137,257.09091c1.82533,0 2.83333,0 3.62534,0c1.03183,0 1.77916,0 2.77333,0c0.76534,0 1.71866,0 2.57066,0c0.80133,0 1.57234,0 2.43333,0c1.19734,0 2.09734,0 2.69734,0c1.19983,0 2.08932,0 2.66399,0c1.06934,0 2.02135,0 2.74583,0c1.13301,0 1.8,0 2.511,0c1.0965,0 2.15733,0 2.813,0c0.8835,0 2.0235,0 2.81683,0c0.89233,0 1.62134,0 2.45833,0c1.19084,0 2.08034,0 2.655,0c1.06934,0 2,0 2.83467,0c1.00134,0 1.80133,0 2.80133,0c0.8,0 1.79984,0 2.57918,0c0.99933,0 1.81949,-0.00186 2.65683,0c1.01216,0.00226 1.70921,0.19675 2.41217,0.64734c0.75948,0.48682 1.69392,0.28406 2.52116,0.638c0.64046,0.27402 1.4904,1.00751 2.18333,1.35748c0.84808,0.42834 1.7952,0.37073 2.61133,0.7825c0.772,0.3895 1.61169,0.63953 2.40268,0.85867c0.7175,0.19876 1.79474,0.45889 2.56665,1.04935c0.60519,0.46292 1.0946,1.08109 2.08783,1.64514c0.76715,0.43567 1.3526,0.54007 2.43619,1.12152c0.66699,0.35791 1.46744,0.9202 2.15698,1.19998c0.79782,0.3237 1.39194,0.48941 2.58566,0.90134c0.9028,0.31152 1.51407,0.52621 2.39999,0.96533c0.91098,0.45154 1.45441,0.86172 2.31467,1.26401c0.97519,0.45602 1.66403,0.54181 2.68533,0.56934c0.81046,0.02185 1.69138,0.05698 2.68533,0.284c0.84131,0.19217 1.40955,0.4205 2.6145,0.59451c0.88446,0.12772 1.46414,0.11615 2.53351,0.12149c0.94135,0.0047 1.61932,0 2.84799,0c0.77701,0 1.51303,-0.20999 2.65201,0.16666c0.74353,0.24588 1.51053,0.99115 1.914,1.48151c0.51913,0.63092 1.40463,1.28561 2.15717,1.34283c0.99136,0.07538 1.87872,-0.10016 2.71017,0.577c0.58194,0.47394 1.12601,1.17984 1.98566,1.6535c0.60571,0.33374 1.43591,0.89542 2.17166,1.1785c0.82986,0.31927 1.72507,0.6091 2.62802,0.89551c0.59808,0.1897 1.49402,0.45877 2.69733,0.62048c0.57907,0.07782 1.46732,-0.0842 2.58832,0.44119c0.68448,0.3208 1.18088,1.16934 2.14767,1.47617c0.64896,0.20596 1.66135,0.1644 2.69601,0.16666c0.76797,0.00168 1.62213,-0.01184 2.45465,0.284c0.88263,0.31363 1.82346,0.51114 2.61584,0.93735c0.69498,0.37381 1.46027,0.74066 2.38416,1.06265c0.70761,0.24661 1.68216,0.49362 2.51599,0.88266c0.65753,0.30679 1.45544,0.69708 2.3045,1.19052c0.63217,0.3674 1.36191,0.91986 2.04285,1.34283c0.91034,0.56546 1.56824,1.24829 2.31683,1.30014c0.85486,0.0592 1.65735,-0.11938 2.66382,0.43585c0.76816,0.42377 1.26389,1.14517 2.172,1.564c0.79767,0.36789 1.65836,0.88644 2.32535,0.96399c1.00189,0.11649 1.81299,0.03601 2.6955,0.03601c0.97916,0 1.87918,0.01065 2.67917,0.284l0.79999,0.54935l0.70001,0.16217l0.89999,0.00449" id="svg_7" stroke-width="2" stroke="#000" fill="none"/>
  <path t="22952,23119,23119,23128,23128,23136,23136,23143,23143,23143,23151,23151,23159,23159,23167,23167,23175,23175,23175,23175,23183,23183,23183,23183,23192,23192,23192,23200,23200,23200,23208,23208,23208,23217,23217,23217,23223,23223,23223,23231,23231,23231,23238,23238,23238,23238,23238,23239,23247,23247,23255,23255,23255,23263,23263,23263,23271,23271,23280,23280,23287,23287,23287,23287,23299,23299,23303,23303,23303,23316,23316,23319,23333,23333,23346,23346,23367,23399,23407,23416,23479,23903,23911,23911,23919,23928,23935,23935,23935,23945,23951,23962,23962,23967,23978,23991,24015,24103,24127,24151,24159,24183,24215,24239,24267,24407,24431,24455,24471,24495,24527,24527,24559,24591,24607,24839,24839,24847,24855,24856,24871,24871,24887,24895,24903,24903,25287,25300,25303,25311,25319,25319,25327,25335,25335,25343,25351,25351,25360,25360,25360,25367,25367,25377,25377,25383,25393,25399,25399,25410,25410,25415,25423,25423,25431,25431,25440,25463,25479,25479,25487,25487,25495,25503,25511,25520,25528,25535,25543,25551,25559,25583,25583,25591,25600,25600,25615,25623,25640,25648,25663,25663,25680,25680,25688,25696,25704,25712,25720,25728,25735,25744,25744,25751,25761,25767,25777,25784,25794,25799,25810,25823,25823,25831,25831,25839,25847,25855,25879,25889,25889,25903,25912,25919,25928,25928,25944,25960,25967,25983,25999" d="m223.51137,239.09091c0.33333,-0.83333 1.2692,-0.92168 1.97867,-1.44267c0.61511,-0.45171 1.33095,-1.35619 2.04216,-1.5365c0.96638,-0.245 1.79398,-0.41013 2.49384,-0.82216c0.76373,-0.44963 1.33771,-1.0519 2.1425,-1.49417c0.72223,-0.3969 1.75368,-0.57472 2.57883,-0.76584c0.94461,-0.21878 1.7254,-0.64902 2.30568,-0.95949c0.61971,-0.33156 1.97308,-0.97617 2.7065,-1.2175c0.72514,-0.23862 1.43663,-0.42915 2.4185,-0.595c0.81975,-0.13846 1.78996,-0.17624 2.75465,-0.38817c0.81274,-0.17854 1.63167,-0.46855 2.65733,-0.87834c0.7,-0.27968 1.36162,-0.60149 2.34267,-0.77882c0.7968,-0.14403 1.63832,-0.11093 2.65733,-0.34267c0.70723,-0.16084 1.59512,-0.55611 2.60934,-0.69334c0.86893,-0.11757 1.53082,-0.08307 2.64532,-0.08533c0.83066,-0.00168 1.68533,0 2.508,0c0.73468,0 1.9845,0.015 2.73068,-0.284c0.69101,-0.27689 1.84769,-0.61197 2.38516,-0.65884c0.85153,-0.07425 2.04282,-0.05716 2.93384,-0.05716c0.83701,0 1.78223,0.08424 2.58817,-0.02083c0.85876,-0.11195 1.54214,-0.55777 2.6875,-0.8125c0.77591,-0.17256 1.62012,-0.17902 2.14932,-0.336c1.03088,-0.3058 1.8147,-1.08612 2.68399,-1.49734c0.76077,-0.35989 1.60074,-0.29922 2.59552,-0.33783c0.7486,-0.02905 1.66028,-0.33772 2.40448,-0.9955c0.53027,-0.4687 1.4812,-0.94849 2.17468,-0.98933c1.06638,-0.06281 1.92972,0.07802 2.82532,-0.01067c0.8457,-0.08374 1.28201,-0.95728 2.10001,-1c0.89877,-0.04694 1.70001,0 2.60001,0c0.97202,0 1.84268,0 2.55066,0c0.98135,0 1.935,0 2.84933,0c0.89999,0 1.70044,0.02725 2.60001,0c0.94415,-0.02859 1.45432,-0.91626 2.29999,-1c0.79745,-0.07896 1.70007,0.01067 2.60001,0c0.87936,-0.01042 1.39429,-0.8181 2.20135,-0.99867c0.87698,-0.19621 1.76266,-0.00133 2.63464,-0.00133c0.96402,0 1.86401,0 2.76401,0c0.89999,0 1.79999,0 2.60001,0c0.89999,0 1.73331,0.04636 2.60001,-0.42534c0.73254,-0.39868 1.4884,-0.64075 2.42532,-0.564c1.0166,0.08328 1.87125,0.37622 2.17465,1.32266c0.24936,0.77782 0.46957,1.53908 1.20001,1.95067c0.84546,0.47639 1.63696,0.59352 2.27917,1.23683c0.63785,0.63893 0.35016,1.4791 -0.5,1.47917c-0.95767,0.00009 -1.83276,0.00981 -2.57916,0.61067c-0.65439,0.52679 -1.19681,1.1132 -2.15717,1.442c-0.90158,0.30867 -1.47192,0.60063 -2.664,0.82599c-0.7854,0.14847 -1.59601,0.06963 -2.436,0.34267c-0.79492,0.25839 -1.62408,0.7318 -2.49017,0.77417c-1.01547,0.04968 -1.90204,-0.14142 -2.75284,0.22583c-0.7189,0.31032 -1.56656,0.65689 -2.24716,0.83134c-1.04889,0.26886 -1.76318,0.7899 -2.53799,1.03133c-0.95477,0.2975 -1.60562,0.74878 -2.573,0.89517c-0.89352,0.13521 -1.85626,0.2601 -2.5625,0.52083c-0.97037,0.35823 -1.75729,0.48199 -2.64584,0.5c-0.85397,0.0173 -1.76959,-0.24771 -2.62881,0.0045c-0.77206,0.22662 -0.94562,1.47308 -1.70453,1.82883c-0.84302,0.39516 -1.50394,0.49727 -2.33331,1c-0.60101,0.3643 -1.64517,0.16667 -2.66669,0.16667c-0.79999,0 -1.70004,-0.01041 -2.59998,0c-0.90021,0.01042 -1.70032,0.35684 -2.40002,1c-0.52103,0.47893 -1.5116,0.80379 -2.13864,1.02533c-0.91016,0.32156 -1.49246,0.80328 -2.36136,0.9955c-0.84326,0.18654 -1.04257,1.34492 -1.7215,1.85767c-0.7077,0.53448 -1.7486,0.33607 -2.37848,0.69617c-0.86423,0.49405 -1.52887,1.04346 -2.37466,1.38934c-0.7659,0.31322 -1.7254,0.02533 -2.62534,0.036c-0.87936,0.01042 -1.40012,0.74362 -2.272,0.964c-0.7092,0.17926 -1.79565,-0.2381 -2.55734,0.12132c-0.79169,0.37358 -1.00381,1.59019 -1.86615,1.8575c-0.8862,0.2747 -1.76141,0.34688 -2.40451,0.70451c-0.85312,0.47441 -1.64627,0.87445 -2.39999,1.23132c-0.8541,0.40439 -1.55261,0.92152 -2.40002,1.10051c-0.8808,0.18605 -1.79999,0.02533 -2.69865,0.30482l-0.63466,0.54933" id="svg_8" stroke-width="2" stroke="#000" fill="none"/>
  <path t="28615,28719,28728,28736,28743,28743,28752,28753,28759,28759,28768,28769,28775,28775,28775,28783,28783,28783,28791,28791,28791,28799,28799,28799,28808,28808,28808,28808,28808,28815,28815,28824,28824,28824,28824,28831,28831,28831,28831,28831,28839,28839,28839,28847,28847,28847,28855,28855,28855,28855,28855,28863,28863,28863,28871,28871,28871,28879,28879,28879,28889,28890,28895,28895,28905,28905,28911,28922,28922,28927,28935,28935,28935,28943,28943,28952,28952,28952,28959,28959,28968,28968,28975,28975,28975,28975,28983,28983,28983,28991,28999,28999,29007,29015,29031" d="m277.51135,276.09091c1.80002,0 2.7085,-0.09866 3.52084,0.02084c0.98782,0.14529 1.62018,0.66785 2.59518,0.89383c0.75259,0.17444 1.72891,0.03226 2.48532,0.17065c1.0224,0.18704 1.62863,0.5401 2.56534,0.91467c0.78113,0.31238 1.61597,0.57956 2.66666,1c0.71518,0.28619 1.35196,0.60831 2.36685,1.09982c0.60809,0.29449 1.47769,0.65591 2.48782,0.8175c0.86954,0.1391 1.5405,0.14874 2.64532,0.41602c0.83932,0.20306 1.68817,0.52072 2.10416,0.6875c0.79132,0.31726 1.96701,0.94537 2.54169,1.47916c0.70166,0.65173 1.44165,1.16788 2.10416,1.5c0.72647,0.3642 1.91251,0.84543 2.71399,1.11465c0.77747,0.26114 1.5332,0.46634 2.23203,0.68402c0.93134,0.2901 1.68964,0.65472 2.65332,0.91599c0.98956,0.26828 1.57556,0.24994 2.53616,0.33801c1.11563,0.10229 1.9494,0.22394 2.82117,0.38333c0.44,0.08044 1.30725,0.23251 2.45999,0.564c0.94189,0.27084 1.69733,0.61652 2.66669,1c0.78082,0.3089 1.59628,0.61511 2.66666,0.83334c0.70343,0.14343 1.56216,0.1644 2.56668,0.16666c0.79999,0.0018 1.79984,0 2.57916,0c0.99933,0 1.71634,-0.00073 2.65683,0c0.84799,0.00067 1.73865,-0.01578 2.61133,0.35266c0.95572,0.40353 1.5882,0.62469 2.354,0.646c0.99832,0.02777 1.84845,0.01898 2.79868,0.56934c0.63977,0.37054 1.14417,1.01587 2.19998,1.31766c0.77585,0.22177 1.80484,0.07983 2.672,0.15036c1.06583,0.0867 1.69873,0.23758 2.37869,0.39999c1.04846,0.25043 2.02167,0.54877 2.83047,0.8595c0.66641,0.25604 1.63043,0.66177 2.51883,0.7045c0.7991,0.03842 1.70001,0 2.60001,0l0.89999,0" id="svg_9" stroke-width="20" stroke="#fff" fill="none"/>
  <path t="31168,31200,31208,31208,31216,31216,31217,31225,31225,31225,31225,31233,31233,31233,31233,31241,31241,31241,31241,31241,31248,31248,31248,31248,31258,31258,31259,31259,31264,31264,31264,31272,31272,31272,31280,31280,31288,31288,31296,31296,31308" d="m266.51135,267.09091c0.64667,1.60001 1.31223,2.1167 2.02084,2.5c0.96704,0.52307 1.59323,0.78696 2.43634,1.25717c0.9758,0.54425 1.5018,0.89722 2.06366,1.26367c0.88333,0.57614 1.78024,1.17798 2.38367,1.58365c0.61725,0.41498 1.25778,0.84546 2.26218,1.56216c0.7197,0.51355 1.45145,1.06497 1.8125,1.35419c0.71796,0.57507 1.69913,1.46838 2.2515,2.07648c0.5191,0.57147 0.90982,1.2124 1.936,2.06934c0.48553,0.40546 1.3403,0.79871 1.88065,1.08151c1.0452,0.54703 1.74173,1.05328 2.29102,1.65634c0.68756,0.75485 1.11325,1.61292 1.54565,2.11017c0.69681,0.80133 1.53793,1.16696 2.23068,1.96933c0.41284,0.47818 0.98517,1.49448 1.44934,2.10532l0.42133,0.80002" id="svg_10" stroke-width="20" stroke="#fff" fill="none"/>
  <path t="38528,38639,38647,38655,38671,38679,38687,38703,38711,38719,38719,38727,38735,38744,38761,38761,38767,38767,38775,38792,38792,38799,38807,38815,38831,38841,38841,38847,38856,38856,38864,38871,38879,38880,38903,38903,38911,38911,38919,38927,38927,38935,38951,38961,38961,38967,38978,38983,38991,38999,38999,39015,39015,39024,39024,39031,39031,39040,39047,39055,39063,39071,39080,39096,39096,39111,39112,39119,39119,39128,39128,39135,39151,39167,39167,39177,39177,39183,39183,39199,39223,39239,39239,39247,39271,39287,39368,39671,39695,39719,39727,39751,39783,39799,39895,39951,39983,40279,40288,40303,40303,40311,40319,40327,40335,40343,40359,40359,40375,40375,40383,40393,40408,40415,40423,40443,40443,40447,40447,40455,40472,40489,40495,40503,40503,40527,40535,40544,40551,40559,40567,40567,40576,40591,40599,40599,40610,40626,40631,40639,40647,40655,40679,40679,40688,40688,40695,40719,40719,40743,40759,40775,40775,40791,40799,40815,40831,40847,40871,40871,40879,40903,40911,40935,40967,40975,40999,41015,41047,41063,41063,41087,41135,41159,41207,41207,41239,41279,41319,41359,41367,41427" d="m256.51135,272.09091c1.80002,0 2.70001,0 3.60001,0c0.89999,0 1.82794,-0.21747 2.6955,0.00449c0.71802,0.18372 0.85019,1.40027 1.7045,1.82886c0.73019,0.3663 1.78229,-0.16708 2.56403,0.20267c0.74084,0.3504 1.30746,0.94147 2.03867,0.96265c0.98795,0.02859 1.85757,0.15155 2.39731,1.00134c0.47025,0.74036 1.18265,0.96179 1.97919,1.5c0.66196,0.44727 1.54166,0.47421 2.32532,0.85266c0.88889,0.42926 1.85303,0.33826 2.52618,0.93268c0.67719,0.59796 0.82648,1.52228 1.76932,1.70398c0.90427,0.17429 1.72379,-0.05493 2.53867,0.01068c1.03809,0.08359 1.59616,0.74625 2.34534,1.19867c0.66885,0.4039 1.62759,0.75861 2.51599,0.80133c0.7991,0.03842 1.49374,0.28152 2.22153,0.87866c0.72897,0.59811 1.48404,0.75638 2.27847,1.12134c0.89581,0.41153 1.56818,0.90176 2.38669,1.08533c0.79581,0.17847 1.50272,0.6261 2.51334,0.83066c0.79138,0.16019 1.80392,0.29422 2.57916,0.58401c0.85886,0.32104 1.71643,0.48703 2.62082,0.5c0.87933,0.0126 1.25098,0.73151 1.836,1.38934c0.61615,0.69284 1.71289,0.44064 2.564,0.77731c0.70267,0.27795 1.4827,0.78131 2.21069,0.82266c0.98764,0.05612 1.99203,-0.07776 2.76782,0.23203c0.77454,0.3093 1.54584,0.83786 2.13132,1.48315c0.56808,0.62613 1.28381,1.00186 2.28885,1.21149c0.75681,0.15784 1.67523,0.44058 2.39999,0.80002c0.86197,0.42749 1.70645,0.79956 2.30133,1.384c0.60529,0.59467 1.20801,1.45908 1.99985,1.7785c0.84515,0.34094 1.39417,0.90207 2.25732,1.12149c0.91379,0.2323 1.84283,0 2.74283,0c0.89999,0 1.5712,-0.28299 2.12134,-0.87866c0.58826,-0.63696 1.21411,-1.10333 2.07867,-1.12134c0.99078,-0.02063 0.9346,-0.0629 0.39999,-0.70532c-0.56424,-0.67804 -1.2291,-1.21698 -2,-1.64734c-0.83591,-0.46664 -1.87997,-0.27054 -2.53333,-0.814c-0.69003,-0.57397 -0.76999,-1.52783 -1.65067,-1.74802c-0.84122,-0.21033 -1.93805,-0.01904 -2.49518,-0.58533c-0.43961,-0.44681 -1.34177,-0.34726 -2.13068,-0.55716c-0.81796,-0.21762 -1.4855,-0.69272 -2.48114,-0.89017c-0.83319,-0.16522 -1.51294,-0.72983 -2.21036,-1.13669c-0.82632,-0.48206 -1.30444,-1.25616 -2.19867,-1.74933c-0.66318,-0.36575 -0.91986,-1.20743 -1.52081,-1.66666c-0.78989,-0.60358 -1.80862,-0.45328 -2.46451,-0.92532c-0.61829,-0.44498 -1.37003,-0.76566 -2.12,-1.22202c-0.7002,-0.42609 -1.85434,0.02429 -2.608,-0.43799c-0.7236,-0.44382 -1.08383,-1.42093 -1.95334,-1.74802c-0.79947,-0.30075 -1.42645,-0.66037 -2.04932,-1.25067c-0.70468,-0.66785 -1.35611,-0.75717 -2.26251,-1.13748c-0.66788,-0.28021 -1.20969,-1.27164 -2.12149,-1.65701c-0.65421,-0.27649 -1.51282,-0.46432 -2.12152,-1.00015c-0.70767,-0.62296 -1.30667,-0.93893 -1.79932,-1.62134c-0.44858,-0.6214 -1.51395,-0.44705 -2.27917,-0.85266c-0.84592,-0.44839 -1.67172,-0.85904 -2.29999,-1.22202c-0.84567,-0.48859 -1.33661,-1.20023 -2.10452,-1.42084c-0.90186,-0.25909 -1.87015,0.28601 -2.68481,-0.01517c-0.74637,-0.27594 -0.84085,-1.50027 -1.71066,-1.86783c-0.83658,-0.35352 -1.83038,0.27148 -2.61469,-0.20682c-0.80365,-0.49008 -1.38531,-0.91467 -2.28534,-0.91467c-0.79999,0 -1.38712,-0.31451 -2.16666,-0.83334c-0.70746,-0.47089 -1.74933,-0.16666 -2.54932,-0.25198l-0.28403,-0.85751" id="svg_12" stroke-width="2" stroke="#000" fill="none"/>
  <path t="42424,42679,42695,42695,42703,42727,42743,42783,42783,42807,42847,42871,42879,42919,42991,42999" d="m310.51135,279.09091c-0.16666,-0.83334 -1.00085,-0.9628 -1.79999,-1c-0.91766,-0.04272 -1.41525,-0.93912 -2.29999,-1c-0.89789,-0.0618 -1.70001,0 -2.61469,0c-0.896,0 -1.7645,-0.02084 -2.31067,-0.57468l-0.67917,-0.42084l-0.93832,-0.06165l-0.44116,-0.65884" id="svg_13" stroke-width="2" stroke="#000" fill="none"/>
  <path t="43943,44079,44088,44103,44119,44143,44159" d="m261.51135,275.09091c1.83334,0 2.61069,0 3.5,0l0.90002,0l1,0l0.89999,0" id="svg_14" stroke-width="2" stroke="#000" fill="none"/>
  <path t="46183,46311,46319,46327,46335,46351,46391,46623,46643,46643" d="m116.51137,245.09091c0,0.80133 0,1.7 0,2.60001c0,0.89999 0,1.79999 0,2.6955l0.00017,0.92599l0.22133,0.87834l0.483,0.543" id="svg_15" stroke-width="2" stroke="#000" fill="none"/>
 </g>
 <g display="none">
  <title>muse_image</title>
  <image xlink:href="http://farm3.static.flickr.com/2043/1546001202_90b3744145.jpg" id="muse" height="426" width="640" y="27" x="0"/>
 </g>
 <g display="none">
  <title>bbox</title>
  <rect stroke="#f00" fill="none" stroke-width="3" height="89.54955" width="330.24" y="199.7027" x="103.68" id="bbox"/>
 </g>
</svg>
