<svg width="640" height="480" xmlns="http://www.w3.org/2000/svg" xmlns:svg="http://www.w3.org/2000/svg" xmlns:xlink="http://www.w3.org/1999/xlink">
 <!-- Sketchy ANNOTATION
  ImageNet ID: n02691156_36810
  URL: http://farm3.static.flickr.com/2305/2038084165_f1e070bd57.jpg
  Image Width: 500
  Image Height: 375
  BBox X: 94
  BBox Y: 152
  BBox Width: 280
  BBox Height: 109
  Exposure: 2000ms
  Synset Label: airplane
  Synset ID: n02691156
  Worker Tag: airplane parked near water
  Sanity Check: 
   Context
   Saved
   Shading
  Comment: 
   {}
  Worker ID: A2JP8W265WCC35
  Assignment ID: 3DPNQGW4LLFHPKY4DM6IA2CQW0746W
  HIT ID: 3H1C3QRA01JMAJ64MHQWG4L660ECE9
  Work Time: 89s
  Worker Score: 0.9286
 END ANNOTATION -->
 <g display="inline">
  <title>Layer 1</title>
  <path t="0,100,101,115,116,139,139,139,155,155,155,171,171,195,195,195,211,211,211,211,236,236,236,236,251,251,251,251,275,275,275,275,291,291,291,315,315,316,316,335,335,355,355" d="m176,259.89999c-1.65266,1.65268 -2.16663,2.1828 -2.97867,2.97852c-0.51627,0.50589 -1.34689,1.11499 -2.04216,1.54233c-0.58397,0.35892 -1.37917,0.96317 -1.97917,1.47916c-0.60001,0.51602 -1.60628,1.23758 -2.2,1.62534c-0.80875,0.5282 -1.40002,1.03699 -2.036,1.58533c-0.92422,0.79688 -1.44713,1.19052 -2.26401,1.78934c-0.54675,0.40079 -1.34784,0.98328 -2.04733,1.60452c-0.69275,0.61526 -1.13846,1.07901 -1.87401,1.81699c-0.53262,0.53439 -1.08833,1.09042 -1.62599,1.68301c-0.80061,0.88242 -1.49719,1.78973 -1.93184,2.37466c-0.41795,0.56247 -1.00462,1.36819 -1.62083,2.06366c-0.58492,0.66016 -1.40514,1.45209 -1.9955,2.05716c-0.38707,0.3967 -0.91916,1 -1.64732,1.99551l-0.34651,0.56848l-0.60933,0.95068l-0.44417,0.58081" id="svg_1" stroke-width="2" stroke="#000" fill="none"/>
  <path t="941,1075,1076,1102,1102,1118,1118,1118,1139,1139,1139,1139,1139,1155,1155,1155,1155,1179,1179,1179,1196,1196,1196,1219,1219,1235,1235,1259,1259,1259,1276,1276,1299,1299,1299,1317,1317,1317,1317,1317,1339,1339,1339,1355,1355,1355,1355,1379,1379,1379,1396,1396,1396,1396,1419,1419,1419,1419,1435,1435,1435,1435,1459,1459,1459,1459,1459,1475,1475,1475,1500,1500,1500,1500,1518,1518,1550,1550,1550,1550,1557,1557,1557,1579,1579,1595,1596,1619,1619,1635,1651,1652,1652,1675,1675,1675,1675,1691,1691,1715,1715,1715,1735,1735,1735,1755,1755,1755,1771,1771,1771,1795,1796,1796,1811,1811,1835,1835,1836,1851,1852,1852,1852,1875,1876,1891,1891,1892,1915,1915,1916,1935,1935,1935,1955,1955,1971,1971,1996,1996,2011,2011,2012,2035,2036,2036,2053,2053,2053,2075,2075,2076,2091,2092,2092,2115,2115,2115,2136,2136,2155,2155,2171,2171,2171,2195,2196,2196,2211,2211,2235,2235,2253,2253,2253,2268,2268,2268,2291,2291,2307,2307,2308,2331,2332,2332,2348,2348,2348,2371,2371,2387,2387,2388,2411,2411,2411,2427,2427,2427,2451,2451,2451,2469,2469,2491,2491,2492,2507,2507,2508,2531,2532,2532,2548,2548,2571,2572,2587,2587,2611,2612,2612,2627,2628,2651,2651,2651,2670,2670,2670,2691,2692,2707,2707,2708,2731,2731,2732,2732,2747,2748,2748,2771,2772,2772,2772,2787,2787,2788,2811,2811,2812,2827,2827,2827,2851,2852,2852,2852,2869,2869,2869,2891,2891,2907,2907,2947,2971,2987,3011,3012,3027,3051,3052,3091,3091,3131,3131,3147,3148,3171,3171,3212,3227,3252,3271,3291,3292,3307,3332,3332,3347,3371,3373,3373,3387,3387,3388,3388,3411,3412,3427,3427" d="m173,256.89999c1.836,0 2.60133,0 3.60451,0c0.85266,0 1.81715,0 2.64217,0c0.91499,0 1.92,0 2.63866,0c0.75067,0 1.52533,0 2.31601,0c1.19849,0 1.99416,0 2.77783,0c1.1355,0 2.19916,0 2.85916,0c0.91499,0 1.995,0 2.92567,0c0.63148,0 1.64944,0.11841 2.57883,-0.05716c0.93921,-0.1774 1.61333,-0.7225 2.4265,-0.8575c0.74408,-0.12352 1.548,-0.08467 2.778,-0.08534c0.67799,-0.00037 1.87433,0 2.69934,0c0.59999,0 1.92,0 2.63733,0c0.74133,0 1.49066,0 2.23199,0c1.39867,0 2.048,0 2.97951,0c0.9045,0 1.80548,0.01668 2.7045,-0.036c0.60098,-0.0352 1.80057,-0.24565 2.7,-0.464c0.60039,-0.14575 1.7986,-0.39549 2.4045,-0.44283c0.92982,-0.07263 1.58084,-0.0565 2.98083,-0.05717c0.75067,-0.00037 1.52533,0 2.31601,0c1.19865,0 1.99866,0 2.79866,0c0.8,0 2.00002,0.00406 2.79866,-0.00133c0.79071,-0.00533 1.56721,-0.0116 2.31601,-0.084c1.0675,-0.10321 2.04759,-0.34749 2.67467,-0.48933c1.20749,-0.27313 1.808,-0.36194 2.68983,-0.4045c0.83475,-0.04028 1.84047,0.01772 2.78217,-0.05684c1.07655,-0.08522 1.70695,-0.24663 2.73866,-0.464c0.69487,-0.14641 1.66315,-0.36403 2.48567,-0.44283c0.90273,-0.08649 1.92082,0.02136 2.67833,-0.09317c0.97272,-0.14706 1.55861,-0.72708 2.48866,-0.90683c0.84943,-0.16417 1.86819,-0.04988 2.89034,-0.05733c0.72906,-0.00531 1.57127,-0.02036 2.457,-0.1665c0.9024,-0.14891 1.75946,-0.42715 2.31467,-0.54933c1.22409,-0.26936 1.91064,-0.27867 3.10666,-0.28401c0.80402,-0.00359 1.62601,0 2.65735,0c0.69598,0 1.60538,0.01102 2.60666,-0.00133c0.83566,-0.0103 1.42764,-0.00285 2.6145,-0.22c0.89767,-0.16425 1.45279,-0.40594 2.53351,-0.612c0.92316,-0.17603 1.76532,-0.166 2.77115,-0.16667c0.6315,-0.00043 1.81702,0 2.6315,0c0.57468,0 1.76419,0.01399 2.65952,-0.00449c0.8689,-0.01793 1.43454,-0.01782 2.65182,-0.34818c0.68854,-0.18686 1.61551,-0.51294 2.40533,-0.59016c0.8194,-0.08011 1.88068,-0.05717 2.82199,-0.05717c0.67801,0 1.64651,0 2.44,0c1.01599,0 1.98001,0 2.75333,0c1.03735,0 1.78134,0 2.88934,0c0.79333,0 1.68552,0 2.40399,0c0.7905,0 2.05469,0 2.73868,0c0.68399,0 1.95715,0 2.52084,0c0.88049,0 2.07782,0 2.66849,0c0.85352,0 2.12668,0 2.81067,0c0.68399,0 1.95267,0 2.5,0c0.81601,0 2.04285,0 2.89551,0c1.00583,0 1.62534,0 2.77115,0c0.78601,0 1.608,0 2.66669,0c0.7095,0 1.56216,0 2.56665,0c0.80002,0 1.80002,0 2.60001,0c1,0 1.81067,0 2.68533,0c0.99866,0 1.81467,0 2.63068,0c1,0 1.68399,0 2.85065,0c0.78601,0 1.608,0 2.66669,0c0.71399,0 1.61932,0 2.58798,0c0.80402,0 1.62601,0 2.65717,0c0.90067,0 1.92151,0 2.73218,0c0.64648,0 1.61066,0 2.41467,0c0.82199,0 2.09067,0 2.77466,0c0.68399,0 1.95267,0 2.5,0c0.81601,0 2.04733,0 2.72534,0c1.19598,0 2,0 2.82199,0c1.03134,0 1.72733,0 2.63666,0c1,0 1.81601,0 2.63202,0c0.99731,0 1.83731,0 2.79999,0c0.76801,0 1.73068,0 2.57068,0c0.99731,0 1.81332,0 2.62933,0c0.99866,0 1.87332,0 2.88416,0c0.6105,0 1.48517,0 2.48383,0c0.81601,0 1.63202,0 2.63202,0c0.90933,0 1.85065,0 2.64114,0c0.85352,0 2.04285,0 2.64285,0c0.89999,0 1.79999,0 2.69998,0c0.90002,0 1.80002,0 2.70001,0c0.89999,0 1.79999,0 2.39999,0c1.19867,0 2.07916,0 2.91467,0c1.00266,0 1.70618,0 2.45468,0c1.19998,0 1.892,0 2.616,0c1.448,0 2.12933,0 2.77866,0c0.93149,0 2.13565,0 2.72699,0c0.83701,0 1.96619,0 2.85718,0c0.90451,0 1.76782,0 2.61584,0c0.93597,0 1.836,0 2.73615,0c0.78519,0 1.72519,0 2.73318,0c0.79199,0 1.65198,0 2.57117,0c0.99548,0 1.7955,0 2.79532,0c0.77933,0 1.63351,0 2.49567,0c0.90451,0 1.82022,-0.1571 2.7045,0.01068c0.94589,0.17947 1.5874,0.90425 2.39999,0.98799c0.8316,0.08569 1.85269,0.00133 2.54733,0.00133c1.03802,0 1.98618,-0.01103 2.66702,0.0045c0.80737,0.01843 1.98981,0.1432 2.88116,0.34818c0.58664,0.1349 1.41916,0.36333 2.41916,0.562l0.87466,0.07466l1.0105,0.01067l0.77933,0" id="svg_2" stroke-width="2" stroke="#000" fill="none"/>
  <path t="4596,4700,4740,4843,4843,4923,4987,5027" d="m149,283.89999c1.47917,1.5 1.83093,2.35263 2.284,3.20001c0.3486,0.65201 0.7115,1.5 0.716,2.39999l0,0.89999" id="svg_3" stroke-width="2" stroke="#000" fill="none"/>
  <path t="5565,5659,5699,5739,5740,5764,5827,5868,5868,5884,5907,5923,5923,5947,5963,5987,6005,6005,6027,6067,6067,6083,6084,6084,6107,6107,6123,6123,6123,6147,6147,6163,6163,6187,6187,6205,6205,6228,6228,6243,6243,6259,6307,6307,6347,6347,6347,6363,6364,6387,6405,6405,6427,6427,6443,6468,6484,6507,6507,6523,6523,6547,6547,6563,6563,6587,6587,6587,6605,6605,6627,6627,6643,6643,6643,6659,6659,6659,6683,6683,6683,6699,6699,6699,6699,6723,6723,6723,6739,6739,6739,6763,6763,6803,6803,6827,6843,6843,6859,6859,6884,6885,6899,6923,6924,6924,6939,6940,6963,6963,6979,6979,6979,7003,7003,7003,7022,7022,7043,7043,7059,7059,7059,7083,7084,7084,7099,7099,7124,7124,7124,7140,7140,7140,7164,7164,7164,7164,7179,7179,7179,7179,7203,7203,7203,7203,7223,7223,7223,7223,7223,7243,7243,7243,7259,7259,7259,7259,7259,7259,7283,7283,7283,7283,7299,7299,7299,7299,7299,7323,7323,7323,7339,7339,7340,7340,7363,7363,7363,7363,7379,7379,7379,7379,7403,7403,7403,7404,7423,7424,7424,7424,7443,7443,7443,7443,7459,7459,7459,7483,7484,7484,7499,7499,7499,7515,7515,7539,7539,7539,7556,7556,7556,7579,7579,7595,7595,7595,7619,7619,7620,7640,7640,7640,7659,7659,7659,7659,7675,7675,7675,7675,7699,7699,7699,7715,7715,7715,7715,7739,7739,7756,7756,7779,7779,7780,7795,7820,7840,7840,7859,7859,7875,7875,7875,7899,7899,7899,7915,7915,7915,7939,7939,7939,7956,7956,7956,7956,7979,7979,7979,7979,7995,7995,7995,7996,8019,8019,8019,8019,8040,8040,8040,8040,8059,8059,8059,8059,8075,8075,8099,8099,8115,8115,8131,8155,8195,8235,8236,8275,8275,8275,8315,8315,8339,8339,8357,8379,8379,8395,8443,8459,8459,8499,8539,8539,8579,8579,8603,8603,8619,8659,8707,8707" d="m153,291.89999c0.05716,1.70001 0.49033,2.53101 1.2,3.19867c0.57639,0.54227 1.23575,1.0434 1.96667,1.63467c0.6978,0.56445 1.42783,0.7532 2.33333,1.16666c0.7953,0.36313 1.53688,0.73688 2.3,1.08401c0.85426,0.38858 1.64133,0.79984 2.39999,1.19998c0.85838,0.45273 1.48753,0.79233 2.32083,1.216c0.78952,0.4014 1.70699,0.45291 2.67917,0.7215c0.6142,0.16968 1.40027,0.57932 2.40001,1.07852c0.60014,0.29968 1.59113,0.81897 2.2,1.08932c0.78931,0.35046 1.8084,0.4895 2.54283,0.66333c0.92873,0.21979 1.50398,0.81363 2.49316,1.33667c0.55028,0.29095 1.56749,0.5036 2.364,0.63599c1.00508,0.16705 1.75761,0.53738 2.7785,0.85333c0.70482,0.21814 1.49754,0.73605 2.343,1c0.86023,0.26855 1.68324,0.27377 2.4785,0.54669c0.80507,0.27631 1.81065,0.44427 2.54283,0.62732c1.05458,0.26367 1.7663,0.79437 2.5425,1.03134c0.77757,0.23737 1.606,0.74988 2.59384,0.89517c0.81235,0.11948 1.74409,-0.07556 2.6875,0.1875c0.68163,0.19006 1.65582,0.73868 2.45866,0.82266c0.85542,0.08948 1.60199,-0.02695 2.57466,0.23199c0.81863,0.21793 1.79367,0.65964 2.60001,0.74268c0.79654,0.08203 1.80659,-0.02209 2.59999,0.09314c1.01605,0.14758 1.60043,0.52325 2.76668,0.77618c0.77617,0.16833 1.61859,0.12769 2.66666,0.33334c0.72401,0.14209 1.37714,0.46994 2.33334,0.66666c0.78168,0.16083 1.64397,0.16 2.83333,0.16666c0.59999,0.00336 1.50322,-0.01443 2.39999,0.08533c0.90448,0.10062 1.7856,0.35492 2.64284,0.56201c1.03149,0.24918 1.72069,0.33157 2.55583,0.35135c1.00108,0.02368 1.81958,-0.01065 2.8,0.28531c0.78375,0.23657 1.71292,0.67328 2.60133,0.716c0.7563,0.03635 1.65717,0 2.60133,0c0.99417,0 1.74513,-0.0766 2.646,0.00452c0.92978,0.08371 1.76044,0.53448 2.354,0.71149c0.98141,0.29263 1.79895,0.26077 2.79866,0.28534c0.80051,0.01968 1.79837,0.22537 2.62083,0.49866c0.66309,0.22034 1.66171,0.43713 2.47917,0.47919c0.81516,0.04193 2.04283,0.02081 2.68933,0.02081c1.01083,0 1.8315,0 2.97734,0c0.786,0 1.608,0 2.66666,0c0.70952,0 1.56218,0 2.56801,0c0.83466,0 1.7655,-0.01279 2.55133,0.00452c0.82239,0.01813 1.88556,0.14429 2.59915,0.34814c0.71484,0.20422 1.77866,0.51031 2.75803,0.59018c0.70956,0.05786 1.44199,0.0549 2.5235,0.05716c1.01398,0.00211 1.66666,0 2.65067,0c1.03751,0 1.77316,0 2.53683,0c0.78366,0 1.97916,0 2.77783,0c0.79065,0 1.56534,-0.00037 2.31598,0c1.40268,0.00067 2.07224,-0.01587 3.09518,0.05716c1.12598,0.08038 1.95969,0.22559 2.39999,0.2955c0.91144,0.14474 1.84109,0.30112 2.3075,0.36334c1.3588,0.1813 2.22513,0.23663 3.06183,0.26318c0.8161,0.02588 2.02084,0.02081 2.81952,0.02081c0.79065,0 1.56534,0 2.31598,0c1.40002,0 2.04935,0 2.98083,0c0.90451,0 1.80902,0 2.74051,0c0.64932,0 1.68533,0 2.41666,0c1.12201,0 1.86334,0 2.92603,0c0.66864,0 1.64667,0 2.30533,0c1.40134,0 2.15198,0 2.92667,0c0.79065,0 1.98917,0 2.78482,0c0.78366,0 1.54733,0 2.63785,0c1.00949,0 1.64581,0 2.56534,0c0.90115,0 1.79065,0 2.64417,0c1.03583,0 1.95715,0 2.64114,0c1,0 1.81601,0 2.63202,0c0.99866,0 1.87332,0 2.88416,0c0.82068,0 1.48517,0 2.7525,0c0.54733,0 1.36398,0.03558 2.59018,-0.00449c0.85382,-0.02792 1.65552,-0.2222 2.478,-0.49551c0.66306,-0.22034 1.66302,-0.43762 2.5,-0.47916c0.87964,-0.04364 2.08047,-0.02084 2.68982,-0.02084c0.9465,0 1.95599,0 2.67334,0c0.74133,0 1.86334,0 2.94934,0c0.68134,0 1.64581,0.00003 2.26215,0c1.2045,-0.00009 2.10568,0.00922 2.7045,-0.03598c1.20367,-0.09085 2.09595,-0.315 2.67917,-0.46402c0.83612,-0.21362 1.83966,-0.38669 2.71017,-0.52533c1.01669,-0.16193 1.78754,-0.55444 2.81067,-0.80798c0.77658,-0.19244 1.53415,0.00665 2.47916,-0.1875c0.87137,-0.17902 1.67917,-0.8656 2.34619,-0.94318c1.00189,-0.11652 1.83606,-0.02676 2.7175,-0.03616c0.97815,-0.01041 1.78683,-0.03082 2.77316,-0.28384c0.69479,-0.17825 1.35794,-0.49182 2.36932,-0.63068c0.8302,-0.11398 1.716,-0.08466 2.91599,-0.08533c0.60934,-0.00034 1.55585,0 2.56534,0c0.71735,0 1.45868,0 2.58069,0c1.086,0 1.76865,0 2.75266,0c0.65268,0 1.66666,0 2.75266,0c0.74734,0 1.49469,0 2.58069,0c0.68265,0 1.66666,0 2.31934,0c1.36865,0 2.09998,0 2.84732,0c0.74734,0 1.83334,0 2.83835,0c0.62,0 1.47498,0 2.7045,0c0.64648,0 1.65698,0 2.62115,0c0.952,0 1.72617,0.09677 2.65067,-0.01065c0.95932,-0.11145 1.40118,-0.92847 2.35199,-0.98935c0.66797,-0.04279 1.83334,0 2.63333,0c0.80002,0 1.80002,0 2.60001,0c0.99869,0 1.76401,0 2.71466,0c0.88535,0 1.68533,0 2.58536,0c0.93597,0 1.784,0 2.64731,0c0.90002,0 1.81934,0 2.67352,0c0.97916,0 1.76849,0 2.8125,0c0.75598,0 1.66666,0 2.57733,0l0.91064,0l0.85333,0" id="svg_4" stroke-width="2" stroke="#000" fill="none"/>
  <path t="9556,9636,9652,9675,9675,9692,9692,9708,9708,9731,9731,9731,9747,9771,9792,9792,9792,9811,9811,9811,9811,9851,9851,9851" d="m355,318.89999c-0.99551,1.70001 -1,2.63602 -1,3.48535c0,0.91916 0,1.91464 0,2.71466c0,1 0,1.79999 0,2.79999c0,0.78934 0,1.51468 0,2.47919c0,0.94217 0,1.85416 0,2.53964c0,0.8385 0,2.14786 0,2.86383c0,0.73203 0,1.45602 0,2.78403l0,0.81448l0,0.6615" id="svg_5" stroke-width="2" stroke="#000" fill="none"/>
  <path t="10148,10251,10291,10291,10331,10395,10411,10507,10531,10547,10547,10571,10611,10627,10668,10716,10758,10758,10796,10839,10947,11315" d="m354,341.89999c-2.47916,0.52084 -3.20193,1.19809 -3.70001,1.70001c-0.69202,0.69733 -1.25726,1.49698 -1.29999,2.39999c-0.04251,0.89899 0.1543,1.81625 1,1.89999c0.79608,0.07883 1.70001,0 2.60001,0c0.89999,0 1.89587,0.18311 2.59866,-0.28534c0.79532,-0.53012 0.854,-1.41464 1.30133,-2.21466l0.44284,-0.79999l0.05716,-0.89999l-0.00015,-0.89984" id="svg_6" stroke-width="2" stroke="#000" fill="none"/>
  <path t="18524,18647,18668,18668,18685,18707,18723,18723,18747,18765,18765,18803,18803,18843,18891,18947" d="m359,317.89999c0,1.75717 0,2.65268 0,3.51602c0,0.96317 0,1.78848 0,2.80533c0,0.67865 0,1.65717 0,2.67865c0,0.75717 0,1.65268 0,2.51602l0,0.96317l0,0.92081l0,0.90002" id="svg_7" stroke-width="2" stroke="#000" fill="none"/>
  <path t="19156,19323,19499,19619,19707,19723,19931,19971,19995,20012,20107" d="m359,335.89999c0,1.80002 0.20319,2.47403 0.83334,3.16669c0.54559,0.59973 1.54959,0.43857 2.08133,1.11865c0.56583,0.72369 0.08533,1.81467 0.08533,2.71466l-0.16666,0.83334" id="svg_8" stroke-width="2" stroke="#000" fill="none"/>
  <path t="23652,23731,23731,23731,23731,23731,23755,23755,23755,23755,23755,23771,23771,23771,23771,23771,23771,23795,23795,23795,23795,23795,23795,23795,23811,23811,23811,23811,23811,23835,23835,23835,23835,23835,23854,23854,23854,23855,23875,23875,23875,23875,23875,23891,23891,23891,23891,23891,23891,23915,23915,23915,23915,23915,23935,23935,23935,23935,23935,23935,23955,23955,23955,23955,23955,23971,23971,23971,23971,23971,23995,23995,23995,23995,24011,24012,24012,24012,24027,24027,24027,24027" d="m472,199.89999c-5.93567,5.05684 -6.34183,5.4319 -7.10266,6.11734c-0.69812,0.62892 -1.3634,1.21538 -2.064,1.716c-0.70526,0.50395 -1.47736,0.94611 -2.28,1.392c-0.41364,0.2298 -1.72226,0.93735 -2.63867,1.46001c-0.47299,0.26978 -0.95184,0.54869 -1.92535,1.12532c-0.49438,0.29285 -1.98959,1.18889 -2.48898,1.48933c-0.49796,0.29956 -1.48132,0.89633 -1.95868,1.2c-0.93192,0.59285 -1.39188,0.87222 -2.59866,1.8c-0.37906,0.29143 -1.07858,0.89186 -1.72165,1.5c-0.62619,0.59218 -1.52133,1.5 -2.12134,2.10001c-0.60001,0.59999 -0.89999,0.89999 -1.5,1.5c-0.89999,0.89999 -1.5,1.5 -2.10001,2.09999c-0.60001,0.60001 -1.50125,1.49875 -2.10001,2.10133c-0.30063,0.30255 -0.90894,0.91119 -1.5,1.55585c-0.914,0.99684 -1.50107,1.72704 -1.8045,2.09549c-0.61581,0.74776 -1.24435,1.50224 -1.58081,1.86334c-1.01175,1.08582 -1.3891,1.41153 -2.15067,2.04799c-0.76395,0.63843 -1.1665,0.93417 -2.36401,1.836c-0.39932,0.30072 -1.19666,0.90012 -2,1.47917c-0.39835,0.28714 -1.1886,0.85371 -2.39984,1.5995c-0.3952,0.24333 -1.1944,0.68765 -1.96417,1.14667c-0.75555,0.45053 -1.8187,1.1907 -2.15067,1.45866c-0.65784,0.53098 -1.26816,1.09808 -1.884,1.632c-0.892,0.77335 -1.79752,1.45341 -2.40131,1.87334c-0.59628,0.41472 -1.49838,1.0134 -2.10452,1.41066c-0.61453,0.40277 -1.58081,1 -2.61649,1.60001l-0.72266,0.39999l-0.36035,0.2l-0.69867,0.40001" id="svg_9" stroke-width="2" stroke="#000" fill="none"/>
  <path t="24955,25075,25075,25103,25103,25103,25119,25119,25119,25139,25139,25155,25155" d="m471,195.89999c2.60001,2.24734 3.22632,2.58838 4,3.16667c0.83002,0.62039 1.37039,1.22012 2.20001,1.81183c0.58063,0.41411 1.39999,0.82018 2.19867,1.22151l0.76532,0.39999l0.81448,0.49983l0.71701,0.543" id="svg_10" stroke-width="2" stroke="#000" fill="none"/>
  <path t="25460,25539,25539,25539,25539,25539,25539,25539,25563,25563,25563,25563,25563,25563,25563,25579,25579,25579,25579,25579,25579,25603,25603,25603,25603,25603,25603,25621,25622,25622,25622,25622,25622,25643,25643,25643,25643,25643,25659,25660,25660,25683,25684,25684,25704,25704" d="m474,212.89999c-8.16666,7.33334 -8.79681,7.90947 -9.91415,8.97134c-0.50781,0.4826 -0.98297,0.94402 -1.43253,1.386c-0.84909,0.83484 -1.65332,1.64265 -2.05331,2.04266c-0.80002,0.80002 -1.20001,1.2 -2,2c-0.39999,0.39999 -0.80002,0.8 -2,2c-0.39999,0.39999 -1.20001,1.2 -1.60001,1.59999c-0.39999,0.40001 -1.20035,1.19968 -2,2c-0.79901,0.79967 -1.1991,1.1965 -1.97916,2c-0.38666,0.39827 -0.78372,0.78209 -1.85419,2c-0.69315,0.78862 -1.01462,1.19266 -1.625,2c-0.29974,0.39645 -0.87622,1.18674 -1.62,2.39984c-0.24197,0.39464 -0.68643,1.1837 -1.07498,1.96417c-0.37103,0.74527 -0.83142,1.81186 -1.08951,2.47433c-0.35516,0.91167 -0.75717,1.995 -1.05267,2.7045l-0.26849,0.6465l-0.31451,1.0105l-0.10065,0.77933" id="svg_11" stroke-width="2" stroke="#000" fill="none"/>
  <path t="27060,27291,27291,27307,27307,27307,27331,27331,27331,27347,27347,27347,27347,27347,27371,27371,27371,27371,27389,27389,27389,27411,27411,27428,27428,27468,27492,27508,27532,27548,27548,27572,27572,27589,27589,27611,27612,27627,27628,27628,27654,27654,27654,27672,27672,27672,27672,27672,27691,27692,27692,27692,27692,27707,27707,27707,27708,27708,27732,27732,27732,27732,27732,27732,27732,27747,27748,27748,27748,27748,27748,27748,27772,27772,27772,27772,27772,27772,27789,27789,27789,27789,27789,27789,27789,27812,27812,27812,27812,27812,27812,27827,27828,27828,27828,27828,27828,27854,27854,27854,27854,27854,27871,27872,27872,27872,27872,27872,27891,27891,27891,27891,27891,27892,27907,27907,27907,27907,27907,27907,27908,27908,27908,27931,27931,27931,27931,27931,27931,27931,27932,27933,27947,27947,27947,27947,27947,27947,27947,27947,27947,27964,27964,27964,27964,27964,27964,27964,27987,27987,27987,27987,27987,28027,28027,28027,28054,28054" d="m339,277.89999c2.38535,2.36401 2.95151,2.83646 3.77066,3.20001c0.75616,0.3356 1.63138,0.60193 2.52951,0.89999c0.90985,0.30194 1.53189,0.5134 2.86649,0.89999c0.7153,0.20721 1.45895,0.39899 2.20801,0.60001c0.74161,0.19901 1.8053,0.49518 2.46817,0.70001c0.94864,0.29312 1.55719,0.49603 2.75583,0.89999c0.88147,0.29706 1.45206,0.48013 2.47968,0.89984c0.88715,0.36234 1.77924,0.65543 2.51099,0.92548c0.84808,0.31299 1.7099,0.73947 2.32666,1.25867c0.66141,0.55676 1.34924,0.94388 1.884,1.60269c0.57648,0.71021 0.80801,1.53021 1.50452,2.35614c0.51828,0.61459 1.34766,1.06668 2.10001,1.45718c0.79037,0.41022 1.61368,0.79245 2.1955,1.18533c0.83054,0.56079 1.42151,1.16174 2.17065,1.716c0.85052,0.62927 1.53925,1.00677 2.271,1.39865c0.76282,0.40851 1.16202,0.59799 2.35834,1.20016c0.80069,0.40302 1.60199,0.81705 2,1.03583c0.80408,0.44202 2.00113,1.18414 2.80902,1.71667c0.41272,0.27206 1.25674,0.83237 1.70532,1.09467c1.40036,0.81879 1.92548,1.03818 2.45499,1.26868c1.086,0.47275 1.6521,0.68253 2.216,0.90933c1.13321,0.45575 2.25177,0.93347 2.79318,1.19617c1.07199,0.52017 1.58984,0.80676 2.61081,1.38916c0.50839,0.29001 1.00934,0.59067 2.51083,1.48935c0.50119,0.29999 1.00256,0.603 2.02069,1.19998c0.51428,0.30154 1.03009,0.61124 2.64581,1.5c0.5524,0.30386 1.116,0.60001 1.68152,0.89999c1.13098,0.59998 1.6936,0.89438 2.242,1.20001c1.58563,0.88373 2.06946,1.19574 2.53915,1.49866c0.90378,0.58286 1.32452,0.88721 2.16165,1.44418c1.20264,0.80017 1.60553,1.04184 2.40903,1.50449c0.79657,0.45865 1.60309,0.90002 2,1.13669c1.20972,0.72137 2.00198,1.27032 2.39999,1.55197c0.80405,0.56897 1.60065,1.16449 2.39999,1.76401c0.80063,0.60049 1.2048,0.89835 2,1.52084c0.8049,0.6301 1.21133,0.95154 2.40051,2.00067c0.40741,0.35944 0.8078,0.74149 1.66199,1.49933c0.44281,0.39288 0.88129,0.81998 2.4375,1.97916c0.55493,0.41336 1.15363,0.80499 1.77151,1.2045c0.63406,0.40997 1.29068,0.81686 1.96048,1.23151c0.68118,0.42169 1.37772,0.84036 2.76801,1.73068c0.70291,0.45013 1.40091,0.91595 2.10001,1.38599c0.70093,0.47128 1.39954,0.948 2.10001,1.422c0.69952,0.47333 1.3938,0.95087 2.79999,1.85867c0.69666,0.44974 1.39594,0.88232 2.091,1.30499c0.68625,0.4173 1.3667,0.82111 2.03699,1.215c0.65704,0.38611 1.30206,0.75879 2.53867,1.48001c0.59052,0.34442 1.16129,0.68011 1.71451,1.005c1.05618,0.62024 1.55869,0.91986 2.53082,1.47501c0.91873,0.52463 1.8002,1.00098 2.22183,1.22949c0.80402,0.43573 1.5715,0.81494 2.53284,1.45715c0.83679,0.55902 1.47601,1.12802 2.16669,1.66669l0.80499,0.3815" id="svg_12" stroke-width="2" stroke="#000" fill="none"/>
  <path t="31141,31219,31243,31243,31260,31260,31299,31323,31323,31323,31363,31363,31387,31387" d="m243,257.89999c-2.364,2.36401 -3,3 -3.60001,3.60001c-0.59999,0.60001 -1.24142,1.16199 -1.89999,1.92084c-0.53534,0.61685 -1.02654,1.48297 -1.21466,2.08051c-0.30762,0.97711 -0.28084,1.79865 -0.28534,2.79865l0,0.80002" id="svg_13" stroke-width="2" stroke="#000" fill="none"/>
  <path t="32260,32341,32341,32360,32360,32360,32379,32379,32379,32380,32395,32395,32419,32419,32419,32435,32435,32435,32459,32475,32515" d="m284,253.89999c-3.54285,1.3 -4.19553,1.58768 -5.20016,2.10034c-0.61438,0.31351 -1.28439,0.67908 -2.22101,1.44232c-0.54364,0.44302 -1.06137,0.95386 -1.569,1.452c-0.87289,0.85657 -1.49173,1.48178 -2.17648,2.17203c-0.66138,0.66669 -1.22293,1.20605 -1.81168,2.03314c-0.40518,0.56918 -0.73502,1.31485 -1.01099,2.38953l-0.01068,0.91064l0.01068,0.89999" id="svg_14" stroke-width="2" stroke="#000" fill="none"/>
  <path t="33180,33259,33259,33283,33283,33299,33299,33299,33299,33323,33323,33323,33323,33343,33343,33343,33363,33363,33363,33403,33403" d="m319,253.89999c-1.39999,0.87201 -1.79422,1.60561 -2.20132,2.40134c-0.42862,0.83777 -0.96426,1.76602 -1.28268,2.284c-0.51425,0.83658 -0.90601,1.39761 -1.49448,2.61469c-0.2854,0.59024 -0.50928,1.19699 -0.82019,2.09998c-0.41141,1.19479 -0.6185,1.78156 -0.84415,2.64285c-0.26917,1.02747 -0.32117,1.72116 -0.35583,2.55582l-0.00134,0.99686l0,0.91916" id="svg_15" stroke-width="2" stroke="#000" fill="none"/>
  <path t="34092,34171,34187,34187,34187,34211,34211,34211,34211,34227,34227,34267,34267" d="m356,254.89999c-1.52084,1.52084 -2.18936,2.14542 -2.82535,2.84668c-0.5419,0.5975 -1.04031,1.30402 -1.41748,2.10599c-0.37964,0.80725 -0.55585,1.36334 -1.05267,2.59018l-0.26849,0.64648l-0.31451,1.0105l-0.10065,0.77936" id="svg_16" stroke-width="2" stroke="#000" fill="none"/>
  <path t="34916,34995,35011,35011,35011,35035,35035,35035,35051,35051,35051,35075,35075,35075,35096,35096,35096" d="m399,256.89999c-2.5,0.54169 -3.17456,1.15897 -3.65268,1.65717c-0.70651,0.73615 -1.33237,1.5387 -1.72198,2.14285c-0.38431,0.59595 -1.11624,1.59564 -1.62534,2.22083c-0.35214,0.43246 -1.01807,1.38351 -1.35333,2.21515c-0.22751,0.56436 -0.48001,1.76401 -0.58951,2.65503l-0.04648,0.83698" id="svg_17" stroke-width="2" stroke="#000" fill="none"/>
  <path t="38517,38652,38675,38675,38675,38691,38691,38691,38691,38691,38715,38715,38715,38715,38715,38715,38731,38731,38731,38731,38731,38731,38731,38731,38755,38755,38755,38755,38755,38755,38755,38755,38755,38771,38771,38771,38771,38771,38771,38771,38771,38771,38795,38795,38795,38795,38795,38795,38796,38796,38796,38814,38814,38814,38814,38814,38814,38814,38814,38814,38835,38835,38835,38835,38835,38835,38835,38835,38835" d="m435,313.89999c1.672,0 2.77335,0 3.58334,0c0.63998,0 1.75,0 2.58731,0c0.90134,0 1.371,0 2.33835,0c1.491,0 1.99133,0 3,0c0.51233,0 1.56299,0 2.10532,0c1.71902,0 2.32886,0 2.95767,0c0.64685,0 1.99051,0 2.68533,0c0.70883,0 1.43066,0 2.90933,0c0.755,0 1.52002,0 2.29501,0c0.785,0 1.57999,0 2.38501,0c0.81497,0 1.63998,0.00015 3.31998,0c0.85486,-0.00009 1.71869,0.00015 2.59052,-0.00449c0.87881,-0.00467 1.76373,-0.01337 2.6535,-0.03149c0.89389,-0.01822 1.79135,-0.03528 3.58932,-0.13068c0.90057,-0.04779 1.80161,-0.11533 2.7045,-0.19049c0.90643,-0.07547 1.8165,-0.16199 2.73151,-0.25351c0.92136,-0.09216 1.84924,-0.1915 3.73065,-0.38934c0.95499,-0.10043 1.91995,-0.20047 2.89502,-0.29999c0.98492,-0.10052 1.97992,-0.2005 2.98499,-0.30002c1.01495,-0.10049 2.03989,-0.2012 4.12,-0.39999c1.05463,-0.10077 2.11746,-0.20004 3.186,-0.3045c1.07278,-0.10486 2.14734,-0.21631 3.22202,-0.33148l1.07266,-0.12119l1.06866,-0.12814" id="svg_18" stroke-width="2" stroke="#000" fill="none"/>
  <path t="39558,39635,39635,39636,39636,39636,39651,39651,39651,39651,39651,39652,39652,39652,39676,39676,39676,39676,39676,39676,39676,39676,39676,39692,39692,39692,39692,39692,39692,39692,39692,39692,39715,39715,39715,39715,39715,39715,39715,39715,39715,39731,39731,39731,39731,39731,39731,39731,39731,39731,39747,39747,39747,39747,39747,39747,39747,39747,39747,39771,39771,39771,39771,39771,39771,39771,39771,39771,39787,39787,39787,39787,39787,39787,39787,39787,39787,39811,39811,39812,39812,39812,39812,39812,39812,39812" d="m437,248.89999c5.50034,0.22134 6.509,0.3526 7.02133,0.42534c1.05069,0.14919 1.59009,0.25116 3.31201,0.408c0.60931,0.0555 1.24118,0.08519 1.8945,0.1095c0.67603,0.02516 2.1015,0.04807 2.85266,0.05267c0.77817,0.00478 2.41949,0.00449 3.28415,0.00449c0.89267,0 1.81134,0 2.754,0c0.96469,0 1.94934,0 2.95203,0c1.01865,0 3.09598,0 4.15067,0c1.06265,0 2.13132,0 3.20398,0c1.07468,0 2.14935,0 3.22202,0c1.06866,0 3.186,0 4.23132,0c1.03732,0 2.06866,0 3.09601,0c1.02533,0 2.05066,0 3.078,0c1.03134,0 3.11398,0 4.16882,0c1.06384,0 2.13568,0 3.21451,0c1.08484,0 2.17465,0 3.26849,0c1.09683,0 3.2955,-0.0005 4.39551,0.00017c1.10001,0.00067 2.19998,0.00235 3.29999,0.01051c1.10004,0.00818 2.20007,0.02184 3.30002,0.04649c1.10007,0.02467 3.30023,0.10504 4.40015,0.16434c1.10141,0.05937 2.20456,0.13283 3.31052,0.21449c1.11038,0.08199 2.22543,0.17348 3.34647,0.26851c1.1283,0.09564 3.40955,0.2953 4.56403,0.39566c1.1615,0.10098 2.32721,0.20226 3.49347,0.3105c1.16473,0.10811 2.32446,0.22125 3.47552,0.3465c1.14093,0.12415 3.37738,0.40344 4.46619,0.56433c1.06854,0.1579 2.1123,0.33025 3.12897,0.51451c0.99066,0.17955 1.94934,0.37466 2.87701,0.5685l0.89368,0.19682" id="svg_19" stroke-width="2" stroke="#000" fill="none"/>
  <path t="44045,44148,44168,44168,44187,44187,44204,44204,44204,44227,44227,44227,44243,44243,44243,44267,44267,44267,44284,44284,44284,44284,44307,44307,44307,44307,44323,44323,44323,44350,44350,44350,44350,44350,44367,44368,44368,44368,44368,44387,44387,44387,44387,44387,44387,44387,44403,44403,44403,44403,44403,44403,44403,44427,44427,44427,44427,44427,44427,44443,44443,44443,44443,44443,44467,44467,44467" d="m203,254.89999c0,1.75717 0.05319,2.66348 -0.05716,3.40451c-0.15044,1.01016 -0.54501,1.79968 -0.94284,2.59549c-0.40211,0.80435 -0.70845,1.43735 -1.48534,2.39999c-0.50507,0.62582 -0.91803,1.00113 -1.71466,1.80002c-0.59915,0.60086 -1.19312,1.20694 -2.00017,1.99982c-0.60539,0.59476 -0.99098,1.0314 -1.96651,1.63351c-0.75935,0.46869 -1.36235,0.64841 -2.23466,1.05066c-0.90758,0.41852 -1.79692,0.94434 -2.39867,1.29068c-0.59828,0.34433 -1.79617,0.953 -2.41066,1.18933c-0.62041,0.23859 -1.95589,0.63644 -2.67467,0.83734c-0.75053,0.20978 -1.53091,0.4176 -2.31601,0.68399c-1.20815,0.40994 -1.60042,0.60086 -2.42,0.94c-0.84972,0.35162 -1.74095,0.71732 -2.71199,1.008c-1.03056,0.3085 -1.58371,0.41418 -2.14934,0.51999c-1.17126,0.21909 -1.78229,0.29581 -2.40533,0.36002c-1.93001,0.19888 -2.59457,0.20468 -3.26016,0.23398c-0.66641,0.02936 -1.33125,0.04694 -2.642,0.10535c-0.64064,0.02853 -1.8782,0.09848 -3.03917,0.23267c-0.55725,0.06439 -1.10013,0.14209 -2.14934,0.32535c-0.51308,0.08963 -2.02162,0.38785 -3.01733,0.58932c-0.49065,0.09927 -1.4415,0.29999 -2.3325,0.5l-1.17149,0.29999l-0.64267,0.20001l-0.774,0.29999" id="svg_20" stroke-width="2" stroke="#000" fill="none"/>
  <path t="47555,47635,47635,47635,47635,47659,47659,47659,47659,47659,47659,47675,47675,47675,47675,47675,47675,47675,47699,47699,47699,47699,47699,47699,47699,47699,47699,47715,47715,47715,47715,47715,47715,47715,47715,47715,47739,47739,47739,47739,47739,47739,47739,47739,47739,47755,47755,47755,47755,47755,47755,47755,47755,47755,47779,47779,47779,47779,47779,47779,47779,47779,47779,47795,47795,47795,47795,47795,47795,47795,47795,47795,47819,47819,47819,47819,47819,47819,47819,47819,47819,47837,47837,47837,47837,47837,47837,47837,47837,47837,47859,47859,47859,47859,47859,47859,47859,47859,47859,47874,47875,47875,47875,47875,47875,47875,47875,47875,47899,47899,47899,47899,47899,47899,47899,47899,47899,47915,47915,47916,47916,47916,47916,47916,47916,47916,47939,47939,47939,47939,47939,47939,47939,47939,47939,47955,47955,47955,47955,47955,47955,47955,47955,47955" d="m222,284.89999c3.88667,-0.284 4.64537,-0.43246 5.44667,-0.57465c0.8387,-0.14883 1.71864,-0.27585 2.64133,-0.34003c0.96825,-0.06735 1.47444,-0.06961 2.53084,-0.08081c0.55315,-0.00586 2.32433,-0.00452 2.95317,-0.00452c0.64682,0 1.31065,0 1.99049,0c0.69484,0 2.1255,0 3.60417,0c0.75499,0 1.51999,0 2.295,0c0.785,0 1.58,0 2.38499,0c0.815,0 1.64,0 3.32001,0c0.855,0 1.72,0 2.595,0c0.88499,0 1.78,0 2.685,0c0.91499,0 1.83998,0 3.71999,0c0.9545,0 1.91602,0 2.8815,0c0.96652,0 1.931,0 2.8905,0c0.95151,0 1.892,0 3.728,0c0.89035,0 1.76266,0 2.61902,0c0.84232,0 1.67267,0 2.49298,0c0.81235,0 1.61868,0.00015 3.22134,0c0.80017,-0.00009 1.60132,0.00018 2.40451,-0.00449c0.80615,-0.00467 1.61639,-0.0134 2.43149,-0.03149c0.82123,-0.01822 1.65002,-0.0361 3.33066,-0.13068c0.85507,-0.04813 1.71762,-0.11536 2.586,-0.19049c0.87299,-0.07553 1.74756,-0.16159 2.62201,-0.25351c0.87289,-0.09177 1.74161,-0.18829 3.45868,-0.38934c0.84531,-0.09897 1.68158,-0.19943 2.50949,-0.3045c0.82141,-0.10425 1.63678,-0.21307 2.4465,-0.33148c0.80664,-0.11795 1.61182,-0.23569 3.21066,-0.53067c0.80127,-0.14783 1.6004,-0.3154 2.39999,-0.48599c0.80042,-0.17075 1.59979,-0.3483 2.39999,-0.522c0.7998,-0.17361 1.5975,-0.35419 3.20001,-0.65866c0.7988,-0.15176 1.5997,-0.28461 2.39999,-0.414c0.79971,-0.12927 1.60016,-0.25171 2.39999,-0.37802c0.80017,-0.12634 1.60236,-0.24576 3.20001,-0.54132c0.80106,-0.14819 1.59915,-0.31509 2.39551,-0.48599c0.79431,-0.17044 1.58359,-0.34766 2.3685,-0.522c0.77878,-0.17297 1.54855,-0.35165 3.06934,-0.65866c0.74414,-0.15024 1.48083,-0.28418 2.2095,-0.40952c0.72067,-0.12396 1.43607,-0.23798 2.14648,-0.3465c0.70593,-0.10782 1.40924,-0.2099 2.81067,-0.41068c0.69998,-0.10028 1.39999,-0.19998 2.10001,-0.29999c0.69998,-0.10001 1.39999,-0.20001 2.10001,-0.30002c0.69998,-0.09998 1.39999,-0.19995 2.79999,-0.39999c0.69983,-0.10001 1.39871,-0.19977 2.09549,-0.29999c0.69388,-0.09979 1.38373,-0.19958 2.06851,-0.30002c0.67889,-0.09955 1.35098,-0.19797 2.66934,-0.39999c0.64499,-0.09885 1.27856,-0.19916 1.90048,-0.2955c0.6088,-0.0943 1.20367,-0.18365 1.78351,-0.26849l0.56384,-0.07883l0.54681,-0.07184" id="svg_21" stroke-width="2" stroke="#000" fill="none"/>
  <path t="48388,48467,48467,48484,48484,48484,48484,48484,48507,48507,48507,48507,48507,48508,48508,48508,48508,48523,48523,48523,48523,48523,48523,48524,48524,48524,48547,48547,48547,48547,48547,48547,48547,48547,48548,48563,48563,48563,48563,48563,48563,48563,48564,48564,48587,48587,48587,48587,48587,48587,48587,48587,48587,48606,48606,48606,48606,48606,48606,48606,48606,48606,48627,48627,48627,48627,48627,48627,48627,48627,48627,48643,48643,48643,48643,48643,48643,48643,48643,48643,48667,48667,48667,48667,48667,48667,48667,48667,48667,48687,48687,48687,48687,48687,48687,48687,48688,48688,48707,48707,48707,48707,48707,48707,48707,48707,48707" d="m363,272.89999c2.60901,0.94284 3.51434,0.99774 4.64383,1c0.69299,0.00137 1.50201,0 1.95749,0c1.02802,0 2.23203,0 2.90686,0c0.72382,0 1.49567,0 2.31448,0c0.86484,0 1.77466,0 2.72852,0c0.99683,0 3.11548,0 4.23532,0c1.15884,0 2.35568,0 3.58951,0c1.26984,0 2.57465,0 3.91348,0c1.37186,0 4.21051,0 5.67502,0c1.49149,0 3.00699,0 4.54349,0c1.5545,0 3.12399,0 4.70551,0c1.59048,0 4.7865,0.00049 6.38718,-0.00015c1.60464,-0.00067 3.21732,-0.00238 4.84198,-0.0105c1.64069,-0.00818 3.30136,-0.02206 4.98602,-0.04651c1.71271,-0.02484 5.2381,-0.10562 7.05731,-0.16434c1.85547,-0.05988 3.74277,-0.13321 5.65802,-0.21451c1.93942,-0.08234 3.89871,-0.17346 5.87399,-0.26849c1.9874,-0.09561 5.98199,-0.29547 7.98166,-0.39551c1.99768,-0.09995 3.99133,-0.19977 5.979,-0.29999c1.97968,-0.09979 3.94937,-0.19965 5.90701,-0.29999c1.9437,-0.09964 5.78101,-0.29962 7.67166,-0.40002c1.87469,-0.09958 3.73734,-0.19986 5.59198,-0.29999c1.85068,-0.09991 3.70135,-0.20023 5.556,-0.29999c1.86267,-0.10022 5.62799,-0.30051 7.53769,-0.40002c1.92761,-0.10046 3.87128,-0.20029 5.82898,-0.29999c1.96964,-0.10031 3.94934,-0.20013 5.93701,-0.29999c1.99365,-0.10013 5.991,-0.30002 7.991,-0.40002c2,-0.09998 4,-0.19998 6,-0.29999c2,-0.10001 4,-0.20001 6,-0.29999c2,-0.10001 6,-0.30045 7.99969,-0.39984c1.99762,-0.09927 3.99127,-0.19748 5.97894,-0.28949c1.97961,-0.09164 3.94922,-0.17792 5.90704,-0.25351c1.94354,-0.07504 5.78088,-0.19476 7.67084,-0.23566c1.86877,-0.04044 3.71558,-0.06726 5.53949,-0.08551c1.7998,-0.01801 3.57465,-0.02533 5.32349,-0.03149l1.72186,-0.00317" id="svg_22" stroke-width="2" stroke="#000" fill="none"/>
 </g>
 <g display="none">
  <title>muse_image</title>
  <image xlink:href="http://farm3.static.flickr.com/2305/2038084165_f1e070bd57.jpg" id="muse" height="480" width="640" y="0" x="0"/>
 </g>
 <g display="none">
  <title>bbox</title>
  <rect stroke="#f00" fill="none" stroke-width="3" height="139.52" width="358.4" y="194.56" x="120.32" id="bbox"/>
 </g>
</svg>
