<svg width="640" height="480" xmlns="http://www.w3.org/2000/svg" xmlns:svg="http://www.w3.org/2000/svg" xmlns:xlink="http://www.w3.org/1999/xlink">
 <!-- Sketchy ANNOTATION
  ImageNet ID: n02691156_1074
  URL: http://farm3.static.flickr.com/2326/2485485020_55f5f2ab3a.jpg
  Image Width: 500
  Image Height: 375
  BBox X: 61
  BBox Y: 115
  BBox Width: 357
  BBox Height: 121
  Exposure: 2000ms
  Synset Label: airplane
  Synset ID: n02691156
  Worker Tag: white airplane flying
  Sanity Check: 
   Context
   Saved
   Shading
  Comment: 
   {}
  Worker ID: AXD2DZ7U6CK35
  Assignment ID: 37KGEN7NJ3QBOJ2SQ2XFJ0E2K42PPV
  HIT ID: 3QX22DUVOOHGLG4HUW9KJ4E409MMV8
  Work Time: 56s
  Worker Score: 0.8667
 END ANNOTATION -->
 <g display="inline">
  <title>Layer 1</title>
  <path t="0,21,21,27,43,59,59,75,93,93,110,110,110,110,125,125,125,126,142,143,143,143,159,159,160,176,176,176,176,192,192,192,193,193,209,210,210,210,210,210,210,226,226,226,226,226,243,243,243,243,243,260,260,260,260,260,260,276,276,276,276,276,276,276,276,276,292,293,293,293,293,293,293,293,293,310,310,310,310,310,310,310,326,326,326,326,326,326,343,343,343,343,343,343,343,360,360,360,360,360,360,360,361,361,376,376,376,376,376,376,376,376,376,393,393,393,393,393,393,393,410,410,410,410,410,410,410,428,429,429,429,429,429,429,429,443,443,443,443,443,443,443,460,460,460,460,476,476,476,476,535,545,562,562" d="m170,200c1.38933,1.82533 1.65846,2.53447 2,3.47917c0.30374,0.84016 0.72469,1.56337 1.084,2.32083c0.41051,0.86537 1.14169,1.38139 1.67317,2.01433c0.59273,0.70586 1.08417,1.4604 1.5255,1.97101c0.47266,0.54686 1.34853,1.31 2.02266,1.75749c0.68347,0.45369 1.411,0.81915 2.36134,1.45717c0.84375,0.56645 1.28403,1.0188 2.01599,1.51466c0.96797,0.65573 1.55765,0.85023 2.42184,1.23801c0.9001,0.40388 1.80441,0.89525 2.39549,1.289c0.60954,0.40604 1.50623,1.11787 2.10266,1.64499c0.62529,0.55261 1.26505,1.1647 1.968,1.8c0.75809,0.68512 1.59669,1.39838 2.03917,1.76151c0.44952,0.36893 1.37302,1.09383 1.842,1.442c0.46307,0.3438 1.82245,1.27359 2.68651,1.8c0.41309,0.25166 1.22797,0.70406 1.97499,1.19249c1.08514,0.70952 1.40437,1.00089 2.07201,1.54266c0.67638,0.54887 1.35803,1.13222 2.55833,1.85367c0.42368,0.25465 1.37018,0.71872 1.88133,0.96268c0.53947,0.25748 1.72391,0.80302 3.04167,1.45833c0.72139,0.35873 1.47064,0.75084 2.24399,1.16251c0.79204,0.42162 1.59027,0.85663 2.388,1.2975c0.79161,0.43748 1.5672,0.87004 3.03467,1.70667c0.6817,0.38864 1.32607,0.76237 1.9425,1.1145c0.59026,0.33717 1.15984,0.65968 1.7175,0.96149c0.54407,0.29445 1.07657,0.59093 2.17334,1.09067c1.10756,0.50467 1.68552,0.71521 2.25867,0.94135c1.14838,0.45308 1.72568,0.66916 2.29066,0.90933c1.67378,0.7115 2.20181,0.99532 2.72684,1.27316c1.04269,0.55179 1.54811,0.85074 2.05266,1.14734c1.50937,0.88727 2.00414,1.19742 2.50984,1.49683c1.0352,0.61292 1.57645,0.92224 2.13866,1.23466c0.58308,0.32402 2.5211,1.33388 3.2415,1.68533c0.75021,0.36601 1.52898,0.7328 2.32651,1.104c0.80814,0.37614 1.6227,0.74928 2.43449,1.12199c0.80287,0.36862 2.35403,1.08487 3.089,1.431c0.70901,0.33391 1.3927,0.66061 2.0565,0.97501c0.64522,0.30559 1.27486,0.60245 1.89449,0.88499c0.60841,0.27744 1.81218,0.79826 2.41335,1.04033c0.59753,0.2406 1.19623,0.46719 2.37932,0.92134c0.58511,0.22461 1.17737,0.42105 2.85419,1.16666c0.55002,0.24457 1.08743,0.50958 2.14133,1.06934c0.52777,0.2803 1.04953,0.57669 2.10934,1.16534c1.08151,0.60071 1.63623,0.901 2.20132,1.19867c1.14816,0.6048 1.73511,0.90079 2.32532,1.19998c0.59344,0.30081 1.19086,0.59964 2.98883,1.49985c0.59659,0.29871 1.18771,0.5943 1.76852,0.8895c1.12537,0.57199 1.66278,0.84921 2.17599,1.12534c1.3978,0.75204 2.18341,1.22546 2.89349,1.64368c0.64801,0.38165 1.55704,0.8869 2.15982,1.15631c0.85361,0.3815 1.63202,0.68402 2.57935,1.18085l0.35135,0.65784l-0.84152,-0.31952l-0.55798,-0.45267" id="svg_1" stroke-width="2" stroke="#000" fill="none"/>
  <path t="1373,1399,1408,1427,1444,1475,1475,1610,1640,1647,1679,1684,1813,1835,1851,1851,1862,1875,1892,1893,1909,1910,1926,1926,1943,1943,1943,1960,1976,1976,1992,1992,2010,2010,2026,2043,2043,2060,2060,2061,2083,2103,2127,2143,2155,2155,2187,2211,2247,2263,2282,2322,2406,2426,2443,2464,2476,2493,2493,2511,2511,2530,2530,2543,2543,2563,2563,2563,2576,2576,2576,2576,2593,2593,2593,2593,2610,2610,2610,2629,2629,2629,2645,2645,2645,2662,2662,2662,2662,2662,2676,2676,2676,2693,2693,2693,2710,2710,2710,2710,2728,2729,2729,2743,2743,2743,2743,2762,2762,2762,2763,2763,2776,2776,2776,2776,2793,2793,2793,2793,2793,2810,2810,2810,2810,2826,2826,2826,2826,2843,2843,2843,2843,2843,2860,2860,2860,2860,2860,2878,2878,2878,2878,2893,2893,2893,2893,2893,2910,2910,2910,2926,2926,2926,2943,2943,2943,2943,2960,2960,2960,2960,2960,2976,2976,2976,2993,2993,2993,3010,3010,3010,3010,3026,3026,3026,3044,3044,3044,3044,3062,3062,3063,3063,3076,3076,3076,3093,3093,3093,3093,3112,3112,3112,3126,3126,3126,3143,3143,3143,3160,3160,3176,3193,3369,3583" d="m170,199c-3.004,-1.564 -3.8007,-1.99838 -3.99867,-2.80133c-0.20001,-0.81122 -0.31732,-1.66988 -0.64867,-2.54601c-0.33257,-0.87935 -0.73074,-1.62637 -1.35266,-1.15266c-0.67712,0.51576 -1.36971,0.92911 -1.87849,1.7215c-0.47917,0.74628 -0.12151,1.7785 -0.12151,2.57851c0,0.89999 0,1.72083 0,2.68399c0,0.86334 -0.00156,1.76784 0,2.48534c0.00226,1.0405 -0.03381,1.8271 0.16667,2.864c0.13841,0.71587 0.50722,1.49699 0.808,2.54134c0.27074,0.94006 0.58557,1.6037 0.85866,2.45866c0.24796,0.77631 0.48596,1.63664 0.81401,2.51401c0.33174,0.88727 0.35266,1.81934 0.35266,2.67349c0,0.97917 0,1.76851 0,2.49384c0,1.07468 -0.00067,1.88533 0,2.78534c0.00067,0.89999 0.32613,1.73666 0.716,2.5c0.38454,0.75288 0.28174,1.7 0.284,2.59999c0.00226,0.89552 0.71941,1.39668 1,1.95717c0.42006,0.83908 0.38783,1.65752 1.02533,2.2175c0.55501,0.48753 1.37199,0.86417 2.07484,1.52534c0.53381,0.50215 1.39018,1.08919 2.07449,1.5c0.81175,0.48732 1.42218,1.04306 2.31067,1.59999c0.52008,0.326 1.51947,0.79065 2.32533,1.21066c0.65047,0.33902 1.61345,0.90669 2.1465,1.24651c0.85779,0.54684 1.44281,0.9462 2.34283,1.54266c0.59909,0.39703 1.49095,0.98013 2.09999,1.31483c0.88728,0.48759 1.79675,0.84364 2.36401,1.11067c1.0844,0.51047 1.77962,1.02634 2.42532,1.54933c0.81168,0.65742 1.41106,1.08818 2.08267,1.45067c1.04845,0.56587 1.696,0.85866 2.37866,1.2c0.69867,0.34933 1.38748,0.67856 2.57867,1.29066c0.73285,0.37659 1.38972,0.73999 2.172,1.36934c0.63802,0.51329 1.26926,1.1346 2.02,1.71449c0.78899,0.60944 1.34755,0.97327 1.89465,1.31483c0.98981,0.61797 1.68947,0.97577 2.36801,1.36934c1.01234,0.58717 1.56885,0.95959 2.19865,1.32666c0.68457,0.39899 1.8576,0.99455 2.72267,1.38934c0.44411,0.20268 1.3501,0.58682 2.22667,1c1.23386,0.5816 1.6049,0.78705 2.29601,1.19998c0.974,0.58197 1.87079,1.20184 2.47333,1.60001c0.60811,0.40186 1.22929,0.80887 1.884,1.20001c1.02776,0.61401 1.76733,1 2.51466,1.39999c0.74733,0.39999 1.83762,0.9928 2.51466,1.39999c0.65355,0.39307 1.27652,0.79724 2.48534,1.60001c0.60225,0.39996 1.21239,0.80817 1.836,1.23599c0.65114,0.44672 1.68744,1.18225 2.41217,1.71667c0.36766,0.27112 1.0972,0.81354 1.7825,1.36334c0.93613,0.75104 1.4489,1.25146 2.256,1.87332c0.55374,0.42664 1.57185,1.02167 2.37134,1.40616c0.41524,0.19971 1.26611,0.56821 2.09,0.91919c1.08783,0.46341 1.95003,0.85989 2.69566,1.18082c0.97198,0.41837 1.79129,0.70752 2.367,0.90451c1.18721,0.40622 1.7941,0.59161 2.71016,0.92084c0.63881,0.22958 1.64891,0.63898 2.36183,0.96317c0.73524,0.33432 1.45694,0.68878 2.14801,1.03198c1.20161,0.59677 1.95529,0.97183 2.65199,1.36801c0.74632,0.42441 1.5464,0.953 2.12801,1.29065c1.1758,0.68256 1.78995,0.93689 2.66849,1.32535c0.56497,0.24979 1.61444,0.80188 2.2955,1.336c0.46118,0.36166 1.38525,1.17291 1.91068,1.564c0.82516,0.61417 1.41876,1.00058 2.31467,1.60001c0.59842,0.40039 1.48566,0.991 2.04285,1.39999c0.80002,0.58725 1.50928,1.19019 2.14648,1.80002c0.82281,0.78748 1.1908,1.22217 1.83151,1.77914c0.64407,0.55991 1.65729,1.14865 2.2045,1.38486c0.81375,0.35126 1.85446,0.7334 2.54932,1.03598c0.91083,0.39661 1.909,0.79749 2.44,1c0.77695,0.2963 1.94183,0.67618 2.41916,1.30002c0.57642,0.75333 1.07068,1.2955 2.009,1.29999l-0.2175,-0.03601" id="svg_2" stroke-width="2" stroke="#000" fill="none"/>
  <path t="4249,4269,4269,4269,4269,4269,4269,4280,4280,4280,4293,4293,4311,4311,4326,4326,4326,4343,4343,4343,4343,4360,4360,4360,4376,4376,4393,4393,4410,4410,4431,4443,4460,4476,4476,4493,4493,4510,4510,4526,4526,4527,4527,4543,4543,4543,4543,4560,4560,4560,4560,4560,4560,4577,4577,4577,4577,4593,4593,4593,4593,4611,4611,4611,4611,4626,4626,4626,4643,4643,4643,4644,4660,4661,4677" d="m283,265c13.83334,10.16666 14.71518,10.77155 15.48932,11.26132c0.65872,0.41675 1.71231,1.02325 2.13602,1.22134c1.19046,0.55655 1.90097,0.85657 2.77017,1.16016c0.79132,0.27637 1.80414,0.26996 2.58331,0.57867c0.73044,0.2894 1.56262,0.88239 2.29318,1.18918c0.83524,0.35074 1.73489,0.74329 2.32666,1.07333c0.8913,0.4971 1.43887,0.87213 2.47968,1.49466c0.6716,0.4017 1.5,0.84671 2.03632,1.50665c0.54672,0.6727 0.95224,1.73276 1.28534,2.29333c0.54745,0.92133 1.45355,1.26367 1.59866,2.02267c0.16876,0.88269 -0.07587,1.94421 -0.87067,2.17334c-0.70987,0.20465 -1.71545,0.41461 -2.52798,0.67267c-0.98813,0.31381 -1.62973,0.30011 -2.76666,0.51932c-0.79843,0.15393 -1.35599,0.3486 -2.23468,0.63467c-1.20517,0.39236 -1.83066,0.60931 -2.50665,0.83466c-0.74802,0.24933 -2.056,0.68533 -2.54401,0.84802c-1.02402,0.34137 -1.548,0.51599 -2.59,0.86331c-0.50601,0.16867 -1.89102,0.63928 -2.69101,0.89102c-0.72302,0.22751 -1.40225,0.45465 -2.78833,0.64032c-0.72803,0.09753 -1.47968,0.10855 -2.22601,0.17401c-1.0878,0.0954 -2.09573,0.29898 -2.73181,0.44733c-0.91986,0.21454 -1.81906,0.40271 -2.73151,0.46399c-0.62445,0.04193 -1.95599,0.03601 -2.67068,0.03601c-0.72266,0 -1.75165,0 -2.61865,0l-0.9375,0l-0.95184,0" id="svg_3" stroke-width="2" stroke="#000" fill="none"/>
  <path t="5466,5486,5486,5486,5486,5486,5486,5500,5501,5501,5501,5528,5528,5529,5529,5546,5546,5546,5546,5546,5546,5546,5546,5562,5562,5562,5562,5562,5562,5562,5562,5562,5578,5579,5579,5579,5579,5579,5579,5579,5595,5595,5595,5595,5595,5595,5595,5595,5612,5612,5612,5612,5612,5612,5613,5613,5628,5628,5628,5628,5628,5628,5628,5643,5643,5643,5643,5643,5644,5644,5644,5661,5661,5661,5661,5661,5661,5661,5661,5661,5676,5676,5676,5676,5677,5677,5677,5677,5677,5693,5693,5693,5693,5693,5694,5694,5694,5694,5710,5710,5710,5710,5710,5710,5711,5711,5711,5726,5726,5726,5726,5726,5727,5727,5747,5747,5747,5747,5747,5748,5748,5748,5761,5761,5761,5761,5761,5761,5761,5761,5777,5777,5777,5777,5778,5778,5778,5778,5778,5793,5793,5793,5794,5794,5794,5794,5794,5794,5810,5810,5810,5811,5811,5811,5811,5811,5811,5826,5826,5826,5827,5827,5827,5827,5827,5827,5843,5843,5843,5844,5844,5844,5860,5860,5860,5861,5861,5861,5876,5876,5877,5877,5877,5877,5898,5898,5898,5898,5898,5898,5898,5899,5899,5910,5911,5911,5911,5911,5911,5911,5931,5931,5931,5932,5932,5932,5943,5943,5944,5944,5944,5944,5962,5962,5962,5962,5963,5963,5976,5977,5977,5977,5977,5977,5978,5993,5993,5993,5993,5993,5993,6013,6013,6013,6013,6013,6026,6026,6026,6026,6026,6043,6043,6043,6043,6060,6060,6060,6060,6076,6076,6076,6076,6093,6093,6093,6110,6110,6128,6128,6191,6216,6228,6251,6252,6259,6276,6276,6298,6298,6312,6312,6329,6330,6330,6346,6346,6346,6360,6360,6360,6360,6378,6379,6379,6379,6379,6393,6393,6393,6410,6410,6410,6410,6426,6426,6426,6443,6443,6443,6460,6460,6460,6476,6476,6476,6493,6493,6493,6493,6510,6510,6510,6510,6526,6526,6526,6546,6546,6546,6563,6563,6563,6576,6576,6576,6596,6596,6596,6610,6610,6626,6646,6646,6663,6663,6676,6676,6693,6712,6726,6726,6743,6763,6763,6778,6779,6779,6796,6796,6796,6810,6810,6829,6843,6843,6860,6860,6878,6879,6893,6910,6928,6929,6943,6943,6943,6963,6964,6976,6976,6993,6993,7010,7026,7026" d="m245,250c14,0 14.94183,0 15.77466,0c1.38266,0 1.9545,0 2.91418,0c1.1445,0 1.82449,0 2.7695,0c0.85498,0 1.8696,0.01875 2.70831,-0.04167c0.74496,-0.05367 1.20212,-0.11519 3.026,-0.40117c0.76962,-0.12068 1.59952,-0.26599 2.478,-0.41849c0.91287,-0.15846 1.84537,-0.32381 2.78403,-0.49051c0.93069,-0.1653 2.71185,-0.48213 3.53799,-0.62666c0.78186,-0.13678 1.52588,-0.26512 2.23798,-0.3855c0.68588,-0.11594 1.3519,-0.22617 2.00403,-0.3315c0.64386,-0.10399 1.93188,-0.3051 2.58664,-0.40451c0.6626,-0.1006 1.33133,-0.20013 2.00403,-0.29999c0.67462,-0.10014 2.02209,-0.29927 2.69064,-0.40001c1.31757,-0.19855 1.96317,-0.29811 2.60135,-0.40134c1.26868,-0.20522 1.9039,-0.31731 2.54401,-0.43466c0.6489,-0.11896 1.31094,-0.23552 3.38132,-0.68533c0.72641,-0.15782 1.4628,-0.33083 2.20801,-0.504c0.74945,-0.17416 1.49841,-0.35036 2.24399,-0.522c0.73709,-0.16969 2.17145,-0.48866 2.86252,-0.63116c0.67297,-0.13876 1.98111,-0.38751 2.62198,-0.50067c0.63516,-0.11215 1.2681,-0.22218 3.1875,-0.52083c0.65454,-0.10184 1.31839,-0.20062 1.99051,-0.2955c0.67856,-0.09579 1.36249,-0.19408 2.74734,-0.34734c0.69626,-0.07706 2.09525,-0.19458 2.79614,-0.23582c0.70444,-0.04146 1.4173,-0.06995 2.14203,-0.09601c0.7406,-0.02664 1.50137,-0.04921 2.28598,-0.078c0.81274,-0.02983 2.53821,-0.11058 3.45667,-0.16882c0.95093,-0.0603 1.92557,-0.13303 2.91602,-0.21451c0.99887,-0.08217 1.99753,-0.17239 2.98798,-0.26849c0.97488,-0.09459 2.84427,-0.29341 3.72467,-0.39551c0.84491,-0.09798 1.65756,-0.19844 2.44202,-0.29999c0.76083,-0.0985 1.50143,-0.19917 2.22598,-0.3c0.7128,-0.09918 2.11801,-0.29994 2.81784,-0.40001c0.69885,-0.09993 1.39569,-0.19971 2.08951,-0.29999c0.68985,-0.09972 1.37473,-0.19949 2.0535,-0.3c0.67191,-0.0995 1.9906,-0.29939 2.63583,-0.40001c0.63742,-0.0994 1.896,-0.29999 2.52133,-0.39999c0.62534,-0.10001 1.25204,-0.20396 3.16666,-0.5c0.65445,-0.1012 1.31711,-0.20041 1.98602,-0.2955c0.67242,-0.09558 1.34622,-0.19302 2.69464,-0.34734c0.66815,-0.07646 1.98572,-0.19484 2.63184,-0.23599c1.28116,-0.08162 1.92764,-0.10446 2.58334,-0.142c0.67096,-0.03842 1.36243,-0.08038 2.07751,-0.1485c1.5285,-0.1456 2.34607,-0.26945 3.19733,-0.39867c0.87845,-0.13333 1.7746,-0.28307 2.6835,-0.43201c0.91376,-0.14973 1.82446,-0.30267 2.72849,-0.43201c1.74854,-0.25017 2.58572,-0.33034 3.39468,-0.39999c0.78409,-0.06752 1.548,-0.11682 2.29349,-0.168c0.73053,-0.05016 1.44998,-0.095 2.15851,-0.168c1.40625,-0.14487 2.10553,-0.26846 2.80667,-0.40134c0.70758,-0.13408 1.41895,-0.29068 2.13898,-0.45149c0.73065,-0.16318 1.47141,-0.33702 2.229,-0.49651c1.56012,-0.32841 2.37094,-0.46567 3.19467,-0.59734c0.83029,-0.13271 1.66376,-0.25113 2.49301,-0.3645c0.81876,-0.11194 1.62222,-0.21452 2.40298,-0.31949c1.47247,-0.19795 2.79773,-0.39902 3.41,-0.50134c0.58502,-0.09778 1.68634,-0.29822 2.21066,-0.39999c1.51901,-0.29485 2.01801,-0.40001 3.01801,-0.60001c0.5,-0.09999 1.5,-0.3 2.5,-0.5c1,-0.2 2.005,-0.40181 2.51801,-0.5c1.06464,-0.20377 1.62524,-0.30463 2.21066,-0.39999c1.93555,-0.31531 2.65637,-0.4023 3.40732,-0.49867c0.77435,-0.09937 1.56506,-0.19315 2.36401,-0.2805c0.7984,-0.08731 1.5889,-0.16826 2.36401,-0.23549c1.4686,-0.12738 2.14999,-0.16696 2.79599,-0.20134c1.20639,-0.06419 1.77777,-0.07845 2.87915,-0.13667c0.54099,-0.02859 2.18262,-0.16527 2.74484,-0.23267c0.56912,-0.06822 1.71649,-0.2325 2.29068,-0.32533c1.1423,-0.18469 2.25888,-0.38815 2.80383,-0.48933c1.06476,-0.19769 1.58572,-0.29877 2.61081,-0.5c0.50632,-0.0994 2.0105,-0.40094 3.01334,-0.59999c0.50626,-0.10048 1.5387,-0.30168 2.06934,-0.40001c1.09802,-0.20346 2.26108,-0.40164 2.87051,-0.49983c0.6239,-0.10052 1.89719,-0.29163 2.53665,-0.37933c0.63391,-0.08694 1.25623,-0.18416 3.02084,-0.35416c0.53513,-0.05156 1.53305,-0.11281 2.45834,-0.16667c0.88538,-0.05154 1.32584,-0.05859 2.66299,-0.22133c0.93365,-0.11363 1.87842,-0.28032 2.35333,-0.35333c0.94083,-0.14462 2.30341,-0.30923 2.73999,-0.34001c0.84866,-0.05983 1.67465,-0.07883 2.48401,-0.084c1.20114,-0.00768 1.99725,0.00824 2.78049,-0.02216c1.13647,-0.0441 2.20151,-0.19073 2.86816,-0.33183c0.98117,-0.20767 1.63217,-0.39525 2.67386,-0.526c0.72455,-0.09094 1.8204,-0.11879 2.50949,-0.20534c1.20578,-0.15146 1.91736,-0.44934 2.56665,-0.632c0.98962,-0.2784 1.80267,-0.28174 2.80136,-0.284c0.94415,-0.00212 1.84415,-0.00009 2.80133,0c0.89999,0.00009 1.77411,0.2076 2.39999,0.57466c0.77151,0.45248 1.68738,0.80585 2.28534,1.22667c0.75146,0.52884 1.51462,0.90784 2.31467,1.29851c0.79556,0.3885 1.80035,0.73151 2.61066,0.8855c0.64679,0.12291 1.61911,0.4418 2.42532,0.87599c0.58084,0.31281 1.75668,0.98827 2.36667,1.25334c0.61176,0.26584 1.60721,0.59772 2.73068,0.88533c0.8302,0.21252 1.26801,0.29779 2.14581,0.5c0.85883,0.19783 2.02905,0.47554 2.95386,0.8c0.53043,0.1861 1.73135,0.70604 2.25235,0.89999c0.83191,0.30971 1.71637,0.59865 2.61444,0.90001c0.88995,0.29865 1.47119,0.48164 2.53351,0.89999c0.71906,0.28316 1.60693,0.70132 2.58801,0.87866c0.79681,0.14403 1.63947,0.10606 2.65753,0.34283c0.71912,0.16725 1.42139,0.51166 2.56396,0.87834c0.66187,0.2124 1.37366,0.40002 2.10901,0.543c1.41949,0.27599 2.09125,0.30177 2.72736,0.35716c0.91986,0.08008 2.12152,0.28084 2.72083,0.42534c0.90112,0.21727 2.099,0.46083 2.6955,0.52199c0.86743,0.08893 1.94366,0.19804 2.65186,0.40533c0.9137,0.26744 1.87286,0.53575 2.67798,0.62201c0.82104,0.08797 1.85803,0.231 2.53864,0.45067c0.84119,0.27147 1.84406,0.45517 2.57886,0.62733c0.9278,0.21738 1.82227,0.7883 2.48248,0.922c1.00568,0.20366 1.63898,0.56232 2.37469,1.224c0.58838,0.52917 1.65051,0.84392 1.79547,1.563c0.17609,0.87343 0.00452,1.75433 0.00452,2.73833c0,0.98534 0,1.71066 0,2.70016c0,0.82066 0,1.48517 0,2.48384c0,0.81599 0,1.63199 0,2.85432c0,0.8 0,1.709 0,2.62834c0,0.83333 0,1.812 0,2.58598c0,0.90002 0.00562,1.76337 0,2.7265c-0.00537,0.9209 -0.26465,1.74216 -0.88666,2.40619c-0.5788,0.61792 -1.10968,1.14355 -1.71466,1.63065c-0.96204,0.77463 -1.59473,1.08112 -2.59851,1.58383c-0.58722,0.2941 -1.63348,0.73352 -2.38953,0.92551l-0.81067,0.41068l-0.69995,0.664l-0.5,0.5" id="svg_4" stroke-width="2" stroke="#000" fill="none"/>
  <path t="8366,8376,8376,8376,8376,8376,8376,8376,8376,8376,8376,8376,8376,8376,8376,8376,8376,8376,8376,8393,8393,8393,8393,8393,8393,8393,8393,8393,8409,8409,8409,8426,8426,8426,8426,8443,8443,8443,8443,8443,8459,8459,8459,8476,8476,8476,8493,8493,8493,8509,8509,8548,8548,8555,8584,8600,8600,8609,8626,8643,8643,8643,8659,8659,8659,8676,8676,8676,8676,8693,8693,8693,8693,8693,8709,8709,8709,8709,8726,8726,8726,8743,8743,8759,8759,8759,8824,8836,8849,8860,8860,8878,8878,8893,8893,8893,8908,8909,8909,8928,8928,8928,8943,8943,8943,8961,8961,8961,8976,8976,8976,8993,8993,8993,9008,9009,9009,9009,9026,9026,9026,9044,9044,9044,9044,9044,9058,9059,9059,9076,9076,9076,9076,9076,9093,9093,9093,9093,9109,9109,9109,9132,9132,9132,9155,9175,9191,9207,9215,9225,9242,9243,9259,9275,9276,9293,9293,9293,9309,9309,9326,9326,9343,9359,9359,9376,9376,9463,9484,9524,9544,9568,9568,9746" d="m314,283c2.83334,-0.33334 3.99142,-0.44345 5.33865,-0.56799c1.49509,-0.13821 3.09726,-0.28378 4.7655,-0.43201c1.69308,-0.15042 3.37006,-0.29788 4.99051,-0.43201c2.90488,-0.24042 4.1178,-0.32834 5.16666,-0.39734c0.90048,-0.05923 1.66919,-0.10184 2.32202,-0.129c0.55255,-0.02301 1.0213,-0.03503 1.422,-0.039c0.66129,-0.00656 0.95166,-0.00174 1.224,-0.004c0.25632,-0.00214 0.49881,-0.0065 0.729,-0.0195c0.22052,-0.01245 0.43365,-0.02975 0.63898,-0.06448c0.40506,-0.06848 0.99655,-0.3187 1.91702,-0.56201c1.11386,-0.29443 1.7999,-0.30136 2.52731,-0.35266c0.76724,-0.05411 1.96027,-0.1543 2.75702,-0.284c0.79276,-0.12906 1.56235,-0.30765 2.31598,-0.43201c1.39517,-0.23022 2.04898,-0.26144 2.98083,-0.27951c0.90436,-0.01755 1.80002,-0.00449 2.66852,-0.00449c1.06934,0 1.77884,0 2.6315,0c1.00449,0 1.8045,0 2.80432,0c0.77933,0 2.01602,-0.44772 2.63351,0.16666c0.60245,0.59943 0.16666,1.63333 0.16666,2.53336c0,0.97198 0,1.84299 0,2.57199c0,0.83701 0,2.02798 0,2.62799c0,0.89999 0,2.10001 0,2.70267c0,0.939 0,1.61166 0,2.73068c0,0.83466 0,1.71732 0,2.616c0,0.88266 0,2.10767 0,2.83633c0,0.67267 0,1.61166 0,2.51416c0,0.8895 0,1.74301 0,2.77866c0,0.90067 0,1.92151 0,2.71085c0,0.72534 -0.11716,1.67856 -0.64734,2.26334c-0.62976,0.69464 -1.35266,0.94543 -2.10983,0.94733c-0.90448,0.00226 -1.71143,0.02081 -2.66434,0.22134c-0.82166,0.17291 -1.67639,0.46115 -2.57849,0.612c-0.89038,0.1489 -1.77475,0.12628 -2.83334,0.33331c-0.72409,0.1416 -1.37335,0.49414 -2.58798,0.71185c-0.79587,0.14264 -1.35336,0.10635 -2.65735,0.12164c-0.69601,0.00815 -1.61121,0.05753 -2.60666,0.28384c-0.55435,0.12604 -1.41049,0.41385 -2.61465,0.59451c-0.59677,0.08954 -1.49997,0.11615 -2.70001,0.12149c-0.60001,0.00266 -1.5,-0.00006 -2.39999,0c-0.90018,0.00009 -1.81244,-0.01721 -2.75717,0.05716c-1.01227,0.07968 -1.72745,0.22375 -2.46817,0.36816c-0.74994,0.14621 -1.48575,0.32867 -2.892,0.49066c-0.66617,0.07675 -1.34686,0.08206 -2.81601,0.25067c-0.41028,0.04709 -1.272,0.186 -2.16666,0.33334c-0.89465,0.14734 -2.16534,0.34668 -2.92801,0.41467c-0.68835,0.06137 -1.60583,0.08307 -2.65067,0.08533c-0.69598,0.0015 -1.60532,0 -2.604,0c-0.79648,0 -1.54797,0.00253 -2.64532,0c-0.9675,-0.00226 -1.65399,-0.43546 -1.672,-1.29999c-0.01874,-0.89984 0,-1.80002 0,-2.70001c0,-0.79999 0,-1.75717 0,-2.66165c0,-0.80002 0,-1.75967 0,-2.56369c0,-0.82199 0,-1.853 0,-2.733c0,-0.875 -0.11502,-1.74866 0.03601,-2.67764c0.142,-0.87332 0.62354,-1.55249 0.8425,-2.56384c0.16629,-0.76801 -0.21072,-1.91943 0.28815,-2.63351c0.50052,-0.71646 0.83334,-1.26666 0.83334,-2.16666l0,-0.79999l-0.08533,-0.91467" id="svg_5" stroke-width="2" stroke="#000" fill="none"/>
  <path t="11943,11953,11953,11953,11953,11953,11953,11953,11953,11970,11970,11970,11993,11993,11993,12009,12009,12009,12009,12009,12009,12009,12026,12026,12026,12026,12026,12043,12043,12043,12043,12059,12059,12059,12059,12076,12076,12076,12076,12076,12093,12093,12093,12093,12110,12110,12110,12110,12126,12126,12126,12143,12143,12144,12144,12159,12159,12159,12176,12176,12193,12193,12193,12193,12209,12209,12209,12226,12226,12244,12244,12259,12259,12259,12276,12276,12293,12293,12293,12309,12309,12329,12423" d="m116,263c20,-0.16666 21.31297,-0.2132 22.46001,-0.284c0.99796,-0.06158 1.86064,-0.13525 2.60249,-0.216c0.63809,-0.06946 1.18304,-0.16101 2.4375,-0.33334c0.64307,-0.08835 1.43744,-0.1496 2.5,-0.16666c0.85329,-0.0137 1.68698,-0.04581 2.83333,-0.16666c0.4742,-0.04999 1.53899,-0.18613 2.11467,-0.25867c0.59366,-0.0748 1.80243,-0.22736 2.40266,-0.29068c1.68333,-0.17761 2.19322,-0.2019 3.14134,-0.25867c0.87589,-0.05243 1.70781,-0.07932 2.90782,-0.24667c0.79871,-0.11139 1.57779,-0.28693 2.343,-0.42599c1.08842,-0.19781 1.77422,-0.27228 2.778,-0.35266c0.68881,-0.05518 1.81422,-0.15506 2.64717,-0.28534c0.88467,-0.13837 1.33444,-0.22397 2.22667,-0.41916c1.27571,-0.27908 2.03381,-0.49734 2.73334,-0.68484c0.96184,-0.25784 1.86873,-0.47531 2.77199,-0.5535c0.89786,-0.0777 1.50008,-0.04443 2.70134,-0.0585c0.91963,-0.01077 1.55972,-0.02444 2.56534,-0.16531c1.08676,-0.15225 1.81081,-0.3418 2.5235,-0.48068c1.26399,-0.24634 2.04298,-0.29178 2.70084,-0.40533c1.02264,-0.17654 1.86823,-0.5816 2.94232,-0.78067c0.62915,-0.11661 1.31702,-0.14398 2.36134,-0.16217c0.97186,-0.01691 1.791,-0.00449 2.69633,-0.00449c1.00899,0 1.80908,0.01282 2.80899,-0.00017c0.8002,-0.01039 1.80556,-0.1499 2.60001,-0.42517c0.60449,-0.20946 1.59906,-0.52184 2.43599,-0.564c0.92957,-0.04683 1.71567,0.03392 2.50267,-0.04666c1.12769,-0.11545 1.84001,-0.53867 2.76134,-0.94318l0.87866,-0.02083" id="svg_6" stroke-width="2" stroke="#000" fill="none"/>
  <path t="13313,13323,13323,13323,13323,13323,13323,13323,13323,13347,13347,13347,13359,13359,13359,13376,13376,13376,13393,13393,13393,13393,13393,13409,13409,13409,13409,13426,13426,13426,13443,13443,13459,13459,13476,13476,13476,13476,13493,13493,13493,13509,13509,13526,13526,13526,13543,13559,13588,13679" d="m92,252c20.66666,7.66666 21.96801,8.13266 23.09067,8.51599c0.9556,0.32629 1.76617,0.59134 2.451,0.79651c0.57152,0.1712 1.04671,0.33203 2.125,0.52084c0.8145,0.14264 1.74262,0.15076 2.73467,0.452c0.63416,0.19257 1.27825,0.5307 2.28667,0.91599c0.86973,0.33228 1.53355,0.54852 2.64533,0.96533c0.83541,0.31317 1.27264,0.47833 2.14584,0.85419c0.86357,0.3717 2.03412,0.95844 2.66483,1.37784c0.56041,0.37265 1.21054,0.98734 2.056,1.5798c0.77287,0.5416 1.3902,0.84045 2.40001,1.31702c0.59445,0.28055 1.60002,0.58414 2.42082,0.7045c1.14565,0.168 1.93524,0.35693 2.5,0.5c0.87885,0.22266 2.07684,0.42838 2.6685,0.46399c0.85254,0.0513 1.88918,0.03601 2.78984,0.03601c1.02083,0 1.81017,0 2.53549,0c1.07468,0 1.98534,0 2.87466,0.01068l0.569,0.48932" id="svg_7" stroke-width="2" stroke="#000" fill="none"/>
  <path t="14273,14283,14283,14283,14283,14308,14308,14316,14316,14316,14316,14328,14328,14328,14345,14345,14345,14361,14361,14361,14361,14378,14378,14378,14378,14393,14393,14393,14409,14409,14426,14426,14426,14444,14444,14459,14459,14459,14476,14495,14511,14511,14526,14543,14559,14576,14576,14576,14594,14594,14594,14609,14609,14609,14626,14626,14626,14643,14643,14659,14659,14676,14676,14676,14703,14704,14711,14747,14763,14780,14780,14795,14803,14819" d="m93,252c2.42117,9.88483 2.88867,10.7887 3.47916,11.27084c0.46992,0.3837 1.56789,0.59479 2.38334,0.83899c0.92079,0.27573 1.50317,0.59341 2.4975,1.0755c0.67552,0.32751 1.59312,0.80145 2.37867,1.17868c0.70594,0.33899 1.6843,0.7323 2.49733,1.04666c0.57572,0.2226 1.76894,0.7468 2.364,1.07333c0.60517,0.33209 1.48534,0.89148 2.4,1.34933c0.88222,0.44162 1.49711,0.62979 2.31467,1.05066c0.78256,0.40283 1.44279,0.94937 2.08083,1.46332c0.7963,0.64145 1.65916,1.06589 2.43784,1.81934c0.4592,0.44434 0.86486,1.23648 1.36666,2.23334c0.30163,0.59918 0.80764,1.59628 1.0955,2.1955c0.35686,0.74283 0.48662,1.86838 0.98983,2.60318c0.54005,0.7886 1.41466,0.79907 2.31467,0.80133c0.9,0.00223 1.81076,0.01263 2.72183,-0.00015c0.74088,-0.01041 1.45572,-0.05444 2.64617,-0.28519c0.68631,-0.13303 1.39191,-0.29117 2.69867,-0.71466c0.56764,-0.18396 1.49495,-0.62296 2.33333,-0.83334c0.78796,-0.19772 1.62207,-0.17996 2.60001,-0.52383c0.82275,-0.28931 1.59999,-0.74283 2.39999,-1.14282c1,-0.5 1.60004,-0.79993 2.39999,-1.20001c0.7997,-0.39993 1.68944,-0.6568 2.35718,-1.39981c0.60603,-0.67435 1.03331,-1.24438 1.46432,-2.00018c0.38158,-0.6691 1.1785,-1.28934 1.97717,-1.81598l0.74866,-0.43668" id="svg_8" stroke-width="2" stroke="#000" fill="none"/>
  <path t="15843,15853,15853,15853,15853,15868,15868,15868,15895,15895,15896,15911,15911,15911,15911,15911,15926,15926,15926,15926,15943,15943,15943,15943,15959,15959,15959,15959,15976,15976,15976,15976,15976,15993,15993,15993,15993,16009,16009,16009,16009,16026,16026,16026,16026,16043,16043,16043,16043,16043,16059,16059,16059,16059,16076,16076,16076,16093,16093,16093,16093,16109,16109,16110,16126,16126,16126,16126,16143,16144,16159,16159,16160,16176,16176,16193,16209,16209,16349,16349,16359,16377,16394,16394,16409,16409,16409,16426,16426,16427,16427,16445,16445,16446,16460,16460,16460,16476,16476,16476,16493,16493,16508,16509,16509,16526,16543,16559,16580,16580,16592,16609,16626,16642,16642,16659,16659,16676,16676,16692,16692,16692,16692,16709,16709,16709,16709,16725,16726,16742,16742,16742,16759,16759,16759,16776,16776,16792,16792,16792,16809,16809,16826,16826,16842,16859,16876,16876,16893,16911,16911,16926,16942,16959,16979,16979,16992,16992,17023,17116,17116" d="m133,263c-1.48399,-1.42267 -1.82953,-2.14618 -2.17467,-2.94534c-0.1748,-0.40475 -0.66267,-1.55292 -1.06366,-2.48315c-0.31819,-0.73813 -0.64059,-1.77199 -0.74701,-2.4035c-0.1246,-0.73949 -0.44942,-2.03491 -0.7245,-2.83051c-0.14719,-0.42567 -0.47675,-1.29703 -0.8075,-2.17082c-0.46293,-1.22301 -0.72832,-1.95134 -0.96183,-2.625c-0.21899,-0.63176 -0.61362,-1.84424 -0.82533,-2.44167c-0.32037,-0.90404 -0.54924,-1.51628 -1.18084,-2.70267c-0.33418,-0.62772 -0.73857,-1.2621 -1.116,-1.968c-0.62048,-1.16051 -0.99763,-2.03317 -1.188,-2.48c-0.38164,-0.89575 -0.56284,-1.34045 -1.04401,-2.61601c-0.28691,-0.76059 -0.64792,-1.79094 -0.86217,-2.42433c-0.40849,-1.20766 -0.60449,-1.80899 -0.9045,-2.709c-0.2,-0.59999 -0.59914,-1.80341 -0.81067,-2.42133c-0.22301,-0.65146 -0.47098,-1.35071 -0.9105,-2.52133c-0.32428,-0.86369 -0.66286,-1.75565 -0.8175,-2.20668c-0.30152,-0.87946 -0.63889,-2.10423 -0.7515,-2.83632c-0.15216,-0.98915 -0.14712,-1.62021 -0.39516,-2.81567c-0.12752,-0.61459 -0.42542,-1.55402 -0.71467,-2.56534c-0.20442,-0.71474 -0.39167,-1.45035 -0.6,-2.172c-0.38467,-1.33252 -0.69813,-2.15228 -1,-2.87599c-0.39753,-0.95305 -0.69946,-1.7382 -0.9,-2.28534c-0.29919,-0.81628 -0.73126,-1.80351 -0.97916,-2.5c-0.40884,-1.14865 -0.44733,-1.9505 -0.54617,-2.73866c-0.11679,-0.93141 -0.57793,-1.67268 -0.922,-2.56584c-0.3198,-0.83015 -0.65952,-1.66034 -0.886,-2.52882c-0.20486,-0.78555 0.63467,-1.166 1.46934,-1.16667c1.02567,-0.00081 1.82569,0.0061 2.7855,-0.00017c0.81455,-0.00533 1.6886,-0.0182 2.5785,-0.1665c0.90742,-0.15123 1.50258,-0.34601 2.4,-0.63466c0.90267,-0.29034 1.79212,-0.61783 2.7,-0.84151c0.89323,-0.22008 1.79733,-0.28633 2.664,-0.38249c1.07206,-0.11894 1.77467,-0.33984 2.42533,-0.54933c1.00462,-0.32344 1.82616,-0.35013 2.81067,-0.59201c0.80666,-0.19818 1.53334,-0.49228 2.47917,-0.83333c0.84042,-0.30304 1.61472,-0.93912 2.52083,-1c0.7982,-0.05363 1.63408,0.06242 2.084,0.80133c0.42854,0.70378 1.15675,1.36589 1.616,1.95584c0.66212,0.85059 0.97411,1.60762 1.50134,2.3615c0.41478,0.59308 0.97069,1.37831 1.45583,2.24384c0.36774,0.65607 0.71635,1.35643 1.34283,2.30417c0.38026,0.57527 0.99652,1.27751 1.51466,1.93066c0.62263,0.7849 1.02997,1.64322 1.80684,2.38133c0.47067,0.44719 1.31053,0.86665 2.07716,1.50667c0.60626,0.50613 1.14777,1.09303 1.71733,1.91466c0.54031,0.77942 1.03352,1.61443 1.53667,2.19551c0.5052,0.58347 1.32561,1.38322 1.82651,1.88367c0.72049,0.71983 1.33804,1.19438 2.12083,1.54616c0.82022,0.36859 1.5,1.07468 2.09999,1.67467c0.60001,0.60001 1.22842,1.38748 1.90001,1.864c0.72565,0.51489 1.22832,1.06218 1.75716,1.73151c0.58556,0.74112 1.54803,0.73805 2.2955,1.06166c0.89098,0.38574 1.58566,0.94284 2.18066,1.64284l0.16534,0.8" id="svg_9" stroke-width="2" stroke="#000" fill="none"/>
  <path t="18279,18289,18289,18312,18328,18344,18371,18431,18447,18463,18467,18476,18492,18509,18526,18526,18542,18542,18559,18559,18560,18576,18576,18576,18576,18592,18592,18592,18592,18592,18610,18610,18610,18610,18626,18626,18627,18627,18627,18642,18642,18642,18642,18659,18660,18660,18660,18660,18660,18676,18676,18676,18677,18692,18693,18693,18693,18710,18710,18710,18711,18726,18726,18727,18727,18727,18742,18742,18743,18743,18743,18743,18760,18760,18760,18760,18760,18777,18777,18777,18777,18777,18792,18792,18792,18793,18793,18810,18810,18811,18811,18811,18826,18827,18827,18843,18843,18843,18843,18843,18860,18860,18860,18861,18861,18877,18877,18877,18877,18877,18877,18877,18892,18892,18893,18893,18893,18910,18910,18910,18910,18911,18926,18927,18927,18927,18943,18943,18943,18944,18961,18962,18962,18962,18976,18977,18977,18978,18992,18993,18993,19010,19010,19010,19026,19027,19028,19042,19043,19060,19060,19060,19076,19077,19077,19093,19093,19093,19110,19110,19110,19130,19130,19142,19143,19160,19160,19177,19177,19177,19192,19193,19212,19227,19243,19259,19260,19288,19331,19532" d="m122,280c0,2.78934 0,3.51468 0,4.47916c0,0.92084 -0.19807,1.84323 0.00134,2.71951c0.18303,0.80429 1.19866,0.80133 2.09866,0.80133c0.9,0 1.50716,-0.48322 2.18533,-0.91467c0.7762,-0.4938 1.88134,-0.08533 2.54,-0.08533c1.008,0 1.836,0 2.71783,0c0.7395,0 1.623,0 2.6235,0c1.0905,0 1.85416,0 2.63783,0c1.1955,0 1.9955,0 2.7955,0c0.79999,0 1.59999,0 2.79999,0c0.8,0 1.60001,0 2.40001,0c1.2,0 1.99866,0 2.78934,0c0.77466,0 1.52539,-0.0108 2.58966,0.00034c1.01717,0.01065 1.7226,0.04318 2.47566,0.17032c1.31866,0.22263 1.79996,0.38962 2.82133,0.69067c0.52539,0.15488 1.56641,0.48929 2.07201,0.65601c1.3886,0.45782 2.1805,0.72549 2.8895,0.96182c0.649,0.21634 1.85957,0.63052 2.467,0.81635c0.92702,0.2836 1.57567,0.45605 2.617,0.58316c1.11038,0.13553 1.89049,0.13083 2.67984,0.20535c1.20151,0.11343 2.00821,0.27036 2.42,0.35199c0.85184,0.16885 1.74756,0.37421 3.22133,0.664c0.52472,0.10318 1.06261,0.20035 2.15733,0.39999c0.5493,0.10019 1.63339,0.29294 2.66667,0.5c0.96533,0.19345 1.87222,0.39902 2.748,0.60001c0.43359,0.09952 1.75107,0.40436 2.66933,0.59866c0.4682,0.09906 1.41331,0.29684 2.36333,0.44415c1.38251,0.21439 1.83029,0.24905 2.69551,0.30002c0.83568,0.04922 1.65266,0.05389 2.85716,0.05716c0.79866,0.00217 1.58986,-0.00208 2.364,0.03601c0.75139,0.03696 2.15303,0.24329 2.81067,0.38931c0.65172,0.14471 1.99026,0.4252 2.71201,0.48935c0.75861,0.06741 1.55997,0.07889 2.39999,0.08398c1.33498,0.00809 1.8,0.00134 2.75999,0.00134c1,0 1.515,0 3.12001,0c0.55466,0 1.68599,0 2.25867,0c0.57466,0 1.722,0 2.29066,0c1.66232,0 2.19733,0 3.23734,0c0.50499,0 1.485,0 2.87999,0c0.44501,0 1.30501,0 2.125,0c0.78,0 2.22041,-0.00607 2.88901,0.00449c0.65279,0.01028 1.64017,0.05637 2.674,0.21686c0.73424,0.11398 1.47624,0.2916 2.226,0.42599c1.42712,0.25586 2.09937,0.3118 3.078,0.34198c0.65842,0.02029 1.69583,0.01068 2.42284,0.01068c1.0905,0 1.7825,0 2.9825,0c0.7485,0 1.452,0 2.45467,0c0.83549,0 1.716,0 2.91333,0c0.59067,0 1.44417,0 2.47984,0c0.90067,0 1.92149,0 2.73216,0c0.87466,0 1.87466,0 2.71016,0c0.58368,0 1.77901,0 2.6685,0c0.8535,0 1.88918,0 2.57468,0c0.83466,0 1.836,0 2.63599,0c1,0 1.80002,0 2.80002,0c0.79999,0 1.80106,0.03186 2.59998,-0.01068c0.80237,-0.04272 1.78723,-0.36389 2.54285,-0.63666c0.89099,-0.32162 1.85718,-0.35266 2.75717,-0.35266c0.89999,0 1.69998,0 2.60001,0l0.89999,0l0.85834,0" id="svg_10" stroke-width="2" stroke="#000" fill="none"/>
  <path t="20599,20599,20599,20599,20599,20599,20599,20599,20599,20609,20609,20609,20609,20628,20642,20659,20676,20676,20692,20692,20692,20709,20709,20726,20726,20726,20742,20742,20759,20759,20776,20776,20776,20792,20809,20809,20826,20826,20826,20842,20842,20842,20865,20865,20865,20876,20876,20892,20892,20909,20909,20926,20926,20942,20942,20959,20959,20976,20976,20976,20992,20992" d="m271,299c-3.95667,3.31332 -4.241,4.03558 -4.47665,4.82666c-0.245,0.82236 -0.4476,1.67166 -0.63,2.52002c-0.1774,0.8251 -0.32751,1.61203 -0.56,2.98666c-0.0932,0.55099 -0.64468,1.47449 -0.26718,2.2645c0.33792,0.70721 1.39688,0.97586 2.23383,1.34949c0.77249,0.34485 1.49567,0.77859 2.46936,0.96866c0.74216,0.14487 1.56213,0.10712 2.54532,0.36801c0.89087,0.23639 1.67899,0.59698 2.48532,0.67999c0.79657,0.082 1.8067,0.09473 2.60001,-0.02115c1.01492,-0.14825 1.80316,-0.54709 2.60001,-0.94284c0.79254,-0.39362 1.55914,-0.74155 2.36401,-1.39999c0.67676,-0.55362 1.27139,-1.21152 1.73615,-1.92166c0.45663,-0.69775 0.78342,-1.36609 1.38251,-2.36368c0.33102,-0.55124 0.87885,-1.3924 1.18399,-2.31467c0.28821,-0.87109 0.32266,-1.72781 0.33334,-2.66666c0.00922,-0.81244 0.04843,-1.82275 -0.03601,-2.54401c-0.11703,-0.99957 -0.42316,-1.80615 -0.96399,-2.62268c-0.45102,-0.68094 -1.16953,-1.40445 -1.75717,-1.86667c-0.69366,-0.54562 -1.42859,-0.95709 -2.44299,-1.1785c-0.8078,-0.1763 -1.48517,-0.12015 -2.74802,-0.12149l-0.7905,0" id="svg_11" stroke-width="2" stroke="#000" fill="none"/>
  <path t="21436,21456,21456,21456,21456,21461,21481,21481,21492,21492,21509,21526,21526,21526,21542,21542,21559,21559,21576,21576,21591,21592,21592,21609,21609,21626,21626,21641,21641,21658,21675,21676,21691,21692,21708,21725,21726,21741,21741,21758,21775,21775,21791,21791,21808,21825,21842,21859,21859,21875,21891,21891,21909,21927,21927,21943,21959,21976,21991" d="m294,304c-8.56351,9.22784 -9.0368,9.66098 -9.20401,10.50134c-0.19571,0.98355 0.51587,1.9968 1.30417,2.37732c0.7309,0.35284 1.534,0.52164 2.41583,0.83734c0.85394,0.30573 1.81924,0.44394 2.48935,0.63666c0.74615,0.21457 1.84625,0.582 2.74283,0.64285c0.90692,0.06155 1.65634,0.00449 2.65317,0.00449c0.83466,0 1.7655,0.01334 2.54684,-0.00449c0.79092,-0.01804 1.89835,-0.24063 2.66647,-0.57019c0.85831,-0.36823 1.62524,-0.27936 2.5,-0.71066c0.76849,-0.37891 1.42444,-1.20706 1.88535,-1.88132c0.54843,-0.80231 1.0307,-1.64499 1.47916,-2.3125c0.47003,-0.69965 0.82813,-1.57269 1.16818,-2.27802c0.41016,-0.85071 0.34052,-1.61603 0.77798,-2.61749c0.35663,-0.81641 0.56424,-1.62518 0.57468,-2.60382c0.00763,-0.71698 0.00241,-1.64139 -0.42532,-2.42151c-0.4512,-0.82291 -0.68658,-1.82217 -1.27917,-2.24283c-0.71997,-0.51108 -1.77951,-0.35501 -2.64282,-0.35718c-0.89551,-0.00226 -1.68393,-0.33691 -2.45267,-0.716c-0.84525,-0.41684 -1.80002,-0.284 -2.70001,-0.26315l-0.79999,0.33182" id="svg_12" stroke-width="2" stroke="#000" fill="none"/>
  <path t="23886,24042,24064,24080,24094,24110,24126,24126,24126,24142,24142,24142,24142,24142,24159,24159,24159,24159,24159,24159,24175,24176,24176,24176,24176,24192,24192,24192,24192,24192,24192,24192,24208,24208,24208,24208,24208,24225,24225,24226,24226,24226,24242,24242,24242,24242,24242,24259,24259,24259,24259,24259,24276,24276,24276,24276,24291,24292,24292,24292,24292,24292,24292,24308,24308,24308,24309,24309,24309,24326,24326,24326,24326,24326,24326,24341,24342,24342,24342,24342,24359,24359,24359,24359,24359,24359,24359,24376,24376,24376,24376,24376,24392,24392,24392,24392,24392,24408,24409,24409,24409,24409,24426,24426,24426,24426,24426,24441,24442,24442,24442,24459,24459,24459,24476,24476,24476,24476,24476,24491,24492,24492,24492,24509,24509,24509,24509,24509,24526,24526,24526,24541,24542,24542,24559,24559,24559,24576,24576,24576,24576,24591,24592,24592,24592,24592,24609,24609,24609,24609,24626,24626,24626,24626,24642,24642,24642,24642,24642,24659,24659,24659,24659,24676,24676,24676,24676,24691,24692,24709,24709,24709,24709,24726,24726,24726,24726,24742,24742,24742,24759,24759,24776,24776,24776,24792,24792,24792,24809,24809,24809,24826,24826,24826,24842,24842,24859,24876,24876,24892,24892,24909,24909,24925,24942,24959,24959,24975,25142,25152" d="m364,292c1.70001,0 2.70001,0 3.60001,0c0.89999,0 1.72571,0.07822 2.72198,-0.2215c0.56177,-0.16901 1.24362,-0.51852 2.54251,-0.87851c0.80121,-0.22205 1.24249,-0.30472 2.16751,-0.5c0.97095,-0.20496 1.96808,-0.39954 2.96664,-0.60001c0.49689,-0.09976 1.48093,-0.29797 2.44418,-0.5c0.47205,-0.099 1.83472,-0.40634 2.7135,-0.59549c0.88391,-0.19025 1.33798,-0.28912 2.29834,-0.41916c1.04251,-0.14114 2.1972,-0.20358 2.80331,-0.23267c0.61792,-0.02966 1.86609,-0.07568 2.48401,-0.10535c0.60611,-0.02908 2.29431,-0.16223 2.802,-0.23132c0.94971,-0.12927 1.82166,-0.30515 2.65201,-0.43201c1.20114,-0.1835 2.00809,-0.237 2.82483,-0.26315c0.83606,-0.02676 1.2645,-0.02017 2.60049,-0.02084c0.93134,-0.00046 1.87866,0 2.35333,0c0.94131,0 2.30386,0.00403 3.16815,-0.00449c0.4212,-0.00415 1.24808,-0.01056 2.05585,-0.08084c1.20477,-0.10483 2.00977,-0.27063 2.84299,-0.41467c0.8721,-0.15079 2.29117,-0.33957 2.80118,-0.37866c1.06607,-0.0817 1.61859,-0.09421 2.74249,-0.14667c0.56653,-0.02643 1.13474,-0.02905 2.79333,-0.19617c0.53839,-0.05423 1.59656,-0.21118 2.12134,-0.29935c1.0538,-0.177 1.5831,-0.28546 3.22116,-0.57898c0.56119,-0.10056 1.12607,-0.20163 2.258,-0.37933c0.55905,-0.08777 1.64993,-0.25043 2.6875,-0.35419c0.96539,-0.09656 1.89334,-0.14111 2.35419,-0.16666c0.94168,-0.05222 2.47943,-0.16397 3.04315,-0.22134c0.58832,-0.05988 1.81201,-0.20398 2.436,-0.27866c0.62399,-0.07468 1.84705,-0.22583 3,-0.33334c0.5351,-0.0499 1.52863,-0.11212 2.4375,-0.16666c0.84909,-0.05093 2.06497,-0.15112 2.86249,-0.28534c0.8028,-0.1351 1.60095,-0.32141 2.40002,-0.51599c1.2016,-0.2926 2.00363,-0.49792 2.41064,-0.58801c0.8237,-0.18228 1.67111,-0.35757 3.0105,-0.48932c0.92508,-0.091 1.39383,-0.09097 2.3175,-0.14667c0.8923,-0.0538 2.12231,-0.17633 2.84702,-0.33185c0.67688,-0.14526 1.60999,-0.44931 2.5145,-0.74265c0.90881,-0.29471 1.52557,-0.52112 2.86649,-0.73352c0.71451,-0.11319 1.46957,-0.13791 2.24402,-0.19199c0.79089,-0.05521 1.99063,-0.18823 2.78934,-0.32733c0.80139,-0.13956 1.59564,-0.32513 2.79999,-0.48068c0.79633,-0.10284 1.58966,-0.13641 2.36401,-0.19199c0.75101,-0.05392 2.1514,-0.24957 2.78931,-0.39999c0.88809,-0.20941 1.92453,-0.45941 2.62134,-0.54935c0.90836,-0.11725 1.91138,-0.31189 2.47202,-0.45065c0.91394,-0.2262 1.91861,-0.42114 2.63867,-0.49066c0.74945,-0.07236 1.92242,-0.10651 3.11465,-0.25067c0.8027,-0.09708 1.20001,-0.186 2,-0.33334c0.79999,-0.14734 1.99887,-0.34494 2.79868,-0.41599c0.7897,-0.07016 1.94852,-0.10074 3.03467,-0.25067c0.68616,-0.09473 1.33688,-0.27914 2.31934,-0.48068c1.00986,-0.20715 1.73294,-0.26718 2.48331,-0.33798c0.77496,-0.07312 1.57962,-0.12762 2.76385,-0.45734c0.80719,-0.22473 1.57364,-0.57251 2.34299,-0.85202c1.08295,-0.39346 2.09457,-0.60233 2.71552,-0.68448c0.85379,-0.11295 1.86584,-0.28418 2.767,-0.6315c0.9505,-0.36636 1.73389,-0.6965 2.31635,-0.88934c0.94122,-0.31161 1.97784,-0.60593 2.70648,-0.7955c0.72943,-0.18979 1.43549,-0.38553 2.7088,-0.58316c0.76782,-0.11917 1.65192,-0.16376 2.44305,-0.40533c0.81409,-0.24857 1.79657,-0.63345 2.64166,-0.69516c0.72736,-0.05313 1.92645,-0.0145 2.60901,-0.03152c0.69885,-0.01746 2.02197,-0.13037 2.57861,-0.27332c0.96167,-0.24695 1.97003,-0.59924 2.77069,-0.716c0.59949,-0.08743 1.58502,-0.38086 2.34283,-0.64734c1.00861,-0.35468 1.9729,-0.31393 2.62781,-0.43799c1.04999,-0.19891 1.76636,-0.53806 2.69604,-0.74802c0.90253,-0.20383 1.83331,-0.16666 2.63782,-0.16666c1.01685,0 1.6955,0 2.67401,0l1.02148,0l0.52802,0" id="svg_13" stroke-width="2" stroke="#000" fill="none"/>
  <path t="26174,26184,26184,26184,26184,26184,26184,26184,26184,26184,26194,26194,26194,26194,26194,26194,26194,26194,26194,26227,26227,26227,26227,26227,26227,26227,26227,26227,26243,26243,26243,26243,26243,26243,26243,26260,26260,26260,26260,26274,26274,26274,26291,26291,26291,26308,26308,26324,26324,26341,26341,26366,26366,26378,26418,26434,26441,26458,26458,26474,26474,26491,26508,26508,26524,26524,26542,26542,26559,26574,26574,26614" d="m360,304c4.16666,1 5.30542,1.10562 6.60001,1.19733c1.4137,0.10016 2.91306,0.18668 4.46249,0.26102c1.56393,0.07504 3.10803,0.13876 4.5975,0.17099c2.67297,0.05786 3.79599,0.03799 4.772,0.00134c0.8447,-0.03171 1.57144,-0.08417 2.19299,-0.15152c0.53308,-0.05777 0.98901,-0.12909 1.383,-0.1965c0.65921,-0.11282 0.94955,-0.16492 1.22934,-0.19733c0.27493,-0.03186 0.55453,-0.05215 0.84601,-0.06448c0.31119,-0.01318 0.65067,-0.01776 1.026,-0.0195c1.41882,-0.00662 1.996,-0.00134 2.61115,-0.00134c0.64218,0 1.9635,0 2.62067,0c0.64017,0 2.35135,0 2.83218,0c0.84665,0 1.90417,0.00232 2.82666,0c0.89551,-0.00226 1.77524,0.03574 2.83334,-0.16666c0.72043,-0.13779 1.54672,-0.54352 2.36667,-0.71185c0.78983,-0.16214 1.8042,-0.04926 2.77914,-0.14233c0.86261,-0.08237 1.60831,-0.67221 2.50485,-0.89383c0.67438,-0.16669 2.02469,0.21494 2.45883,-0.4425c0.52048,-0.78821 0.10568,-1.84415 0.05701,-2.74298c-0.04272,-0.78864 -0.40369,-1.53271 -0.71585,-2.41583c-0.29785,-0.84268 -0.284,-1.80551 -0.284,-2.50485c0,-0.97916 0,-1.95831 0,-2.8125c0,-0.86215 0,-1.80264 0,-2.65067l0,-0.86331l0,-0.89551" id="svg_14" stroke-width="2" stroke="#000" fill="none"/>
  <path t="27771,27781,27781,27799,27799,27799,27799,27815,27815,27826,27843,27860,27874,27891,27908,27925,27925,27941,27941,27958,27958,27974,27974,27991,27991,28008,28008,28008,28024,28046,28066,28066,28090,28098,28114,28126,28141,28158,28174,28191,28192,28208,28208,28208,28225,28270,28286,28294" d="m509,272c0.70532,0.12866 1.23926,0.80652 1.66666,2c0.20926,0.58438 0.28098,1.48367 0.41602,2.31467c0.16342,1.00555 0.50363,1.83447 0.79599,2.66367c0.29999,0.85089 0.79065,1.57007 1.47852,1.96451c0.8194,0.46985 1.84418,0.10568 2.74298,0.05701c0.78864,-0.04272 1.56183,-0.34686 2.30432,-0.70435c1.00085,-0.4819 1.61041,-0.73965 2.57416,-1.39551c0.54327,-0.36972 1.31641,-1.05325 2.04218,-1.37915c0.94989,-0.42651 1.78851,-0.40326 2.49384,-0.60486c1.00995,-0.28867 1.8324,-0.75241 2.58533,-1.13733c0.76318,-0.39017 1.60461,-0.37546 2.46405,-0.81467c0.6969,-0.35614 1.36481,-0.89542 1.91516,-1.48483c0.68518,-0.7338 0.52081,-1.78366 0.52081,-2.64581c0,-0.85419 0,-1.83334 0,-2.62268c0,-0.72534 0,-1.79999 -0.02081,-2.68982l-0.58984,-0.47418l-0.77869,0.38934" id="svg_15" stroke-width="2" stroke="#000" fill="none"/>
  <path t="28701,28711,28711,28711,28711,28711,28734,28734,28750,28766,28766,28778,28794,28810,28834,28834,28846,28878,28894,28898,28898,28908,28924,28941,28958,28958,28982,28982,29006,29018,29050" d="m513,279c-3.52084,1.98532 -4.24609,2.7045 -4.59332,3.10132c-0.68726,0.7854 -1.0423,1.14716 -1.74002,2.23203c-0.57361,0.89188 -0.8555,1.93118 -0.5,2.66666c0.36475,0.75461 1.36539,0.93478 2.13333,1.35266c0.84091,0.45758 1.70001,0.64734 2.5,0.64734c0.90002,0 1.86761,0.07742 2.60004,-0.436c0.78998,-0.55374 1.24469,-1.26315 1.59998,-2.064c0.35455,-0.79916 0.93909,-1.59387 1,-2.5c0.05078,-0.75546 -0.00452,-1.65268 -0.08533,-2.51599l-0.34003,-0.84802l-0.49066,-0.83466l-0.36932,-0.71732" id="svg_16" stroke-width="2" stroke="#000" fill="none"/>
 </g>
 <g display="none">
  <title>muse_image</title>
  <image xlink:href="http://farm3.static.flickr.com/2326/2485485020_55f5f2ab3a.jpg" id="muse" height="480" width="640" y="0" x="0"/>
 </g>
 <g display="none">
  <title>bbox</title>
  <rect stroke="#f00" fill="none" stroke-width="3" height="154.88" width="456.96" y="147.2" x="78.08" id="bbox"/>
 </g>
</svg>
