<svg width="640" height="480" xmlns="http://www.w3.org/2000/svg" xmlns:svg="http://www.w3.org/2000/svg" xmlns:xlink="http://www.w3.org/1999/xlink">
 <!-- Sketchy ANNOTATION
  ImageNet ID: n02691156_7692
  URL: http://farm4.static.flickr.com/3013/2661847151_b4e84393cc.jpg
  Image Width: 500
  Image Height: 332
  BBox X: 24
  BBox Y: 101
  BBox Width: 450
  BBox Height: 129
  Exposure: 2000ms
  Synset Label: airplane
  Synset ID: n02691156
  Worker Tag: an airplane
  Sanity Check: 
   Context
   Saved
   Shading
  Comment: 
   {}
  Worker ID: A1R959DUXT5S4I
  Assignment ID: 3SBEHTYCWN3DGB7P4U3ENU623IUYIH
  HIT ID: 3QGHA0EA0J0XHE0PTHO7RQMOVRFWBE
  Work Time: 69s
  Worker Score: 0.9286
 END ANNOTATION -->
 <g display="inline">
  <title>Layer 1</title>
  <path t="0,101,108,108,134,134,134,150,150,150,150,150,150,150,151,167,167,167,167,167,167,167,167,184,184,184,184,184,184,184,184,184,200,200,200,200,200,200,200,200,201,217,218,218,218,218,218,218,218,218,234,234,234,234,234,234,235,235,235,250,250,251,251,251,251,251,251,251,267,267,267,268,268,268,268,268,268,284,285,285,285,285,285,285,285,285,300,300,301,301,301,301,301,301,301,317,317,318,318,318,318,318,318,318,334,334,335,335,335,335,335,335,335,350,351,351,351,351,351,351,351,367,368,368,368,368,368,368,384,384,385,385,385,385,386,400,400,401,401,401,401,418,418,418,418,418,418,434,434,435,435,435,455,456,456,456,456,458,468,468,468,468,468,498,499,499,499,499,517,517,517,517,518,518,518,518,518,534,534,534,534,535,535,535,535,535,550,550,550,551,551,551,551,567,567,567,568,584,584,584,584,600,600,600,601,601,618,618,618,618,634,635,635,635,635,635,635,650,651,651,651,651,651,651,651,667,667,668,668,668,668,684,685,685,685,685,685,700,701,701,701,701,702,717,717,718,718,718,718,736,736,736,736,768,768,768,768,768,784,784,785,785,785,786,786,800,801,801,801,818,818,818,818,819,834,834,835,835,851,851,851,851,851,852,852,867,868,868,868,868,884,885,885,885,901,901,901,902,918,918,919,919,934,935,935,935,935,935,950,951,951,951,967,967,968,968,968,984,984,985,985,986,1001,1001,1001,1001,1002,1002,1019,1019,1020,1020,1020,1035,1035,1035,1036,1036,1036,1051,1051,1052,1052,1052,1052,1068,1068,1068,1068,1069,1085,1085,1086,1086,1086,1101,1102,1102,1102,1102,1102,1118,1118,1119,1119,1119,1119,1135,1135,1136,1136,1136,1136,1151,1151,1151,1152,1152,1152,1168,1168,1168,1168,1169,1185,1186,1186,1186,1186,1202,1202,1202,1202,1203,1203,1218,1218,1219,1219,1219,1219,1235,1235,1236,1236,1236,1236,1237,1237,1237,1251,1252,1252,1252,1252,1253,1253,1268,1268,1268,1269,1269,1269,1285,1285,1286,1286,1287,1301,1301,1301,1302,1318,1318,1319,1335,1335,1351,1351,1351,1368,1368,1368,1385,1385,1402,1403,1403,1403,1418,1418,1419,1435,1435,1436,1451,1452,1452,1452,1478,1479,1479,1519,1520,1520,1520,1520,1539,1539,1540,1540,1565,1566,1566,1566,1567,1591,1592,1616,1616,1617,1641,1666,1667,1692,1692,1722,1742,1743,1770,1794,1823,1824,1848,1875,1875,1900,1900,1901,1928,1929,1930,1954,1955,1980,1980,1981,2008,2009,2010,2031,2032,2032,2032,2057,2058,2058,2058,2081,2082,2082,2083,2109,2109,2109,2110,2110,2134,2134,2135,2135,2135,2159,2160,2160,2185,2185,2186,2213,2213,2214,2238,2238,2239,2239,2239,2264,2265,2265,2265,2291,2291,2292,2292,2318,2318,2319,2319,2343,2344,2344,2371,2371,2372,2394,2394,2395,2420,2449,2450,2450,2473,2474,2474,2500,2500,2526,2526,2527,2562,2563,2563,2588,2589,2589,2590,2590,2617,2618,2618,2618,2642,2642,2643,2643,2668,2668,2669,2694,2694,2695,2695,2720,2721,2722,2722,2722,2723,2750,2751,2752,2752,2752,2753,2773,2774,2774,2775,2775,2775,2776,2801,2802,2802,2803,2803,2803,2804,2804,2829,2829,2830,2830,2831,2831,2833,2834,2853,2854,2854,2855,2855,2855,2856,2856,2857,2884,2885,2885,2886,2886,2887,2887,2888,2888,2910,2911,2911,2912,2912,2913,2913,2914,2914,2941,2941,2942,2942,2943,2943,2944,2944,2944,2968,2969,2969,2970,2970,2970,2971,2971,2972,3044,3044,3045,3045,3045,3046,3046,3047,3047,3063,3063,3064,3064,3065,3065,3066,3066,3087,3087,3088,3088,3089,3089,3090,3090,3091,3114,3115,3115,3116,3116,3117,3118,3118,3118,3141,3141,3142,3142,3143,3143,3144,3144,3144,3170,3170,3171,3171,3172,3172,3173,3173,3174,3197,3198,3198,3199,3199,3202,3202,3203,3203,3223,3224,3224,3225,3225,3226,3226,3227,3227,3253,3253,3254,3254,3255,3255,3256,3256,3257,3278,3279,3279,3280,3280,3281,3282,3282,3283,3306,3307,3307,3308,3309,3309,3309,3310,3310,3333,3335,3335,3336,3336,3337,3337,3338,3338,3359,3360,3361,3362,3362,3363,3363,3364,3364,3386,3387,3387,3388,3388,3389,3389,3412,3413,3413,3414,3414,3415,3415,3442,3443,3444,3444,3445,3445,3446,3446,3446,3476,3477,3477,3478,3478,3479,3479,3480,3480,3503,3504,3505,3505,3506,3506,3507,3508,3508,3528,3529,3530,3530,3531,3531,3532,3533,3534,3557,3557,3558,3558,3559,3559,3560,3560,3591,3592,3593,3593,3597,3598,3598,3599,3617,3618,3619,3619,3620,3620,3621,3622,3646,3646,3647,3647,3648,3649,3649,3650,3651,3674,3674,3675,3676,3676,3677,3677,3678,3678,3701,3703,3704,3704,3705,3706,3706,3728,3729,3729,3730,3730,3731,3755,3756,3757,3757,3758,3758,3759,3783,3783,3784,3785,3787,3788,3789,3789,3790,3810,3811,3811,3812,3813,3813,3814,3839,3840,3841,3842,3842,3843,3843,3865,3866,3866,3867,3867,3868,3869,3894,3894,3895,3895,3896,3897,3898,3922,3923,3923,3924,3924,3925,3925,3926,3927,3957,3958,3958,3959,3959,3960,3961,3983,3983,3984,3985,3985,3988,3989,3989,4010,4011,4011,4012,4013,4013,4039,4040,4040,4041,4042,4043,4043,4092,4093,4093,4114,4130,4131,4132" d="m181.50346,214.88889c2.62534,0 3.49699,0.10213 4.34734,-0.05717c0.96475,-0.18074 1.55937,-0.55263 2.21933,-0.65883c1.5153,-0.24387 2.19585,-0.20285 2.92984,-0.22684c0.7847,-0.02563 1.60765,-0.03838 2.45549,-0.04649c0.85983,-0.00824 1.71867,-0.00999 3.38135,-0.01067c0.78099,-0.00031 1.528,0 2.24699,0c0.69701,0 1.37801,0 2.049,0c0.66701,0 2.70401,0 3.41383,0c0.72884,0 1.47566,0 2.2395,0c0.77983,0 1.57466,0 2.3835,0c0.82184,0 2.5005,0 3.3555,0c0.86501,0 1.74001,0 2.625,0c0.895,0 1.8,0 2.715,0c0.925,0 2.80501,0 3.75951,0c0.9615,0 1.927,0 2.89349,0c0.96451,0 1.92401,0 2.8755,0c0.94051,0 2.7765,0 3.6675,0c0.87701,0 1.746,0 2.61301,0c0.871,0 1.752,0 2.649,0c0.91899,0 2.847,0 3.86549,0c1.0495,0 2.121,0 3.20551,0c1.0885,0 2.172,0 3.2415,0c1.04649,0 3.0345,0 3.96033,0c0.88084,0 1.72166,0 2.52751,0c0.77583,0 1.52666,0 2.25749,0c0.71584,0 2.12251,0 2.82216,0c0.69766,0 1.39133,0 2.07901,0c0.67966,0 1.34933,0 2.00699,0c0.64368,0 1.88101,0 2.47183,0c0.57584,0 1.14166,0 1.70251,0c0.56082,0 1.12665,0 1.70248,0c0.59085,0 1.83752,0 2.50183,0c0.69034,0 1.40268,0 2.13303,0c0.74432,0 1.49866,0 2.259,0c0.76233,0 2.27698,0 3.02197,0c0.73502,0 1.46002,0 2.17502,0c0.70499,0 1.39999,0 2.08499,0c0.67502,0 1.995,0 2.64017,0c0.63617,0 1.26434,0 1.8855,0c0.61517,0 1.83151,0 2.43466,0c1.20135,0 2.40268,0 3.00583,0c0.60617,0 1.83151,0 2.45267,0c0.62817,0 1.90952,0 3.22552,0c0.6655,0 1.332,0 1.99649,0c0.65948,0 1.95151,0 3.1875,0c0.59033,0 1.71899,0 2.26132,0c1.05069,0 1.56302,0 3.07202,0c1,0 1.5,0 2.5,0c0.5,0 1.5,0 3,0c0.5,0 1.5,0 2,0c1,0 2.5,0 3,0c1,0 1.5,0 2.5,0c1,0 2,0 2.99731,0c0.49368,0 1.461,0 2.38834,0c1.28101,0 2.05301,0 2.81702,0c0.82797,0 1.28848,0 2.96399,0c0.68332,0 1.42667,0 2.22,0c0.83334,0 1.69666,0 2.57999,0c0.89334,0 1.78668,0 3.53336,0c0.83533,0 1.64267,0 2.42398,0c0.75735,0 1.49268,0 2.20801,0c0.69733,0 1.37866,0 2.70132,0c0.64484,0 1.90051,0 2.50934,0c0.59485,0 1.73849,0 2.28534,0c1.52884,0 2.45316,0 3.30951,0c0.79633,0 1.89581,0 2.57983,0c0.668,0 1.69247,0 2.81598,0c0.83469,0 1.71735,0 2.16669,0c0.89465,0 2.16666,0 2.93332,0c0.72665,0 1.82916,0 3.06668,0c0.46481,0 1.4805,0 2.02933,0c1.17465,0 1.79849,0 2.44531,0c1.35867,0 2.06784,0 2.79202,0c1.47333,0 2.21249,0 2.94666,0c0.72418,0 1.43335,0 2.78668,0c0.6355,0 1.82849,0 2.392,0c1.07599,0 1.59448,0 3.108,0c1,0 1.5,0 2.5,0c0.5,0 1.5,0 3.00015,0c0.50116,0 1.5105,0 2.02066,0c1.03635,0 1.56451,0 3.20016,0c0.56033,0 1.68301,0 2.23734,0c1.07468,0 1.58701,0 2.97736,0c0.79733,0 1.52264,0 2.54565,0c1.04083,0 1.79382,0 2.62283,0c0.92899,0 1.43851,0 2.5625,0c1.26666,0 1.935,0 2.61334,0c0.67831,0 1.34665,0 2.61331,0c1.10669,0 1.99869,0 3.04419,0c0.60699,0 1.92667,0 2.72498,0c0.42416,0 1.29752,-0.00006 2.17084,0c1.22433,0.00009 1.97058,-0.00455 2.70834,0.02083c0.77838,0.02678 2.12555,0.14096 3.19568,0.26317c0.57813,0.06602 1.17441,0.14336 2.39731,0.29066c0.61172,0.07368 1.21295,0.16051 2.90067,0.304c0.5069,0.04311 1.44644,0.08932 2.29669,0.14667c0.77908,0.05255 1.84912,0.18428 2.84265,0.40001c0.65237,0.14165 1.30374,0.33479 2.70935,0.49066c0.73914,0.08195 1.49234,0.09094 2.23199,0.168c1.06607,0.11107 2.0802,0.35112 2.78131,0.52667c0.7576,0.1897 2.06592,0.49301 2.55469,0.588c1.02246,0.19872 1.54681,0.28821 2.59,0.44417c0.50543,0.07556 1.89389,0.23521 2.6955,0.30899c0.74173,0.06827 1.83789,0.1824 3.00534,0.491c0.43008,0.11368 1.3194,0.41592 2.24249,0.74251c0.46695,0.16521 1.84454,0.6591 2.73065,0.92799c0.42972,0.1304 1.27896,0.37097 2.13669,0.52501c1.30746,0.2348 2.23114,0.28029 2.69998,0.30899c0.94705,0.05798 1.89529,0.09743 2.36334,0.13667c1.36496,0.11444 2.2373,0.26553 3.10483,0.43683c0.89059,0.17586 1.34641,0.29106 2.82202,0.57901c0.52576,0.1026 1.61783,0.29384 2.17798,0.37933c1.1297,0.17244 1.69492,0.25136 2.8125,0.35416c1.08002,0.09935 1.61026,0.1077 2.64584,0.1875c1.01721,0.0784 1.52969,0.0975 3.02066,0.422c0.50287,0.10944 1.49081,0.41457 1.97934,0.578c0.96628,0.32326 2.35315,0.81567 2.79932,0.95784c0.86243,0.2748 1.70468,0.50874 2.51703,0.774c1.21075,0.39534 2.00903,0.72964 2.41348,0.909c0.8367,0.37105 1.70587,0.79889 2.16168,1.02499c1.47379,0.73106 1.99731,0.99734 2.53467,1.26601c1.09467,0.54732 1.64398,0.82201 2.18933,1.09467c1.57199,0.78598 2.06165,1.0329 2.99548,1.4955c0.44812,0.22198 1.32156,0.65279 2.1925,1.05583c0.88107,0.40773 1.80011,0.80301 2.27002,0.99684c0.94482,0.38972 1.41711,0.58188 2.36334,0.91916c1.35577,0.48328 2.22687,0.73241 2.64795,0.86c0.82556,0.25017 1.64764,0.47533 2.836,0.94717c0.80951,0.32143 1.60516,0.73158 2,0.96083c0.81104,0.47092 2.00336,1.35614 2.40137,1.68533c0.81592,0.6748 1.21057,1.04286 2.05585,1.72667c0.42377,0.34282 1.76062,1.26953 2.22949,1.53999c0.95239,0.54938 1.4588,0.80022 1.95996,1.088c1.04828,0.60191 2.1261,1.33601 2.67487,1.76283c0.57031,0.44362 1.13733,0.92775 1.71448,1.4265c0.58655,0.50688 1.17181,1.02603 1.76849,1.5345c0.59399,0.5062 1.78625,1.46655 2.3952,1.88884c1.17407,0.81419 1.77582,1.1515 2.35864,1.48134c0.56671,0.32071 1.12451,0.61816 2.70831,1.41666c0.48969,0.24689 1.42206,0.71249 2.3125,1.14584c0.43481,0.21162 1.30103,0.62512 2.1875,1.02083c0.91211,0.40714 1.84052,0.804 2.29169,1.02083c0.88104,0.42339 2.06689,1.11583 2.68567,1.66185c0.57269,0.50537 0.9704,1.10696 1.85602,1.98398c0.56335,0.55789 1.23328,0.87527 1.97864,1.65451c0.58032,0.60663 1.16315,1.41852 1.86804,1.61749c0.82019,0.23154 1.85278,0.30051 2.63245,0.603c0.77094,0.29913 1.57471,0.92508 2,1.47919c0.72852,0.94907 1.17035,1.59109 1.5625,1.97916c0.62616,0.61966 1.64252,1.39804 2.17303,1.79999c0.52545,0.3981 1.47382,1.18146 1.97998,1.80002c0.47723,0.58325 1.12061,1.42102 1.81519,2c0.49847,0.4155 1.33081,0.97159 2.06848,1.60031c0.69806,0.59497 1.31158,1.285 1.755,2.13303c0.32275,0.61722 0.53973,1.33279 0.828,2.052c0.29547,0.73712 0.85712,1.81125 1.35303,2.45749c0.50311,0.65561 1.09125,1.25601 1.98566,2.15717c0.59509,0.59958 1.17865,1.17868 1.72797,1.728c0.50134,0.50134 1.56738,1.3967 1.90588,2.07733c0.44672,0.89822 0.29474,1.70645 0.45013,2.42667c0.2428,1.12524 1.02936,1.68326 1.47998,2.40399c0.48651,0.77811 0.32544,1.71872 0.44055,2.60684c0.11365,0.87683 0.84705,1.52582 0.99097,2.45718c0.12537,0.81122 0.00598,1.784 0.00452,2.47464c-0.00226,1.06818 -0.19147,1.95154 -0.76166,2.58252c-0.53296,0.58978 -1.25195,1.28 -1.92505,1.75882c-0.70728,0.50314 -1.53345,0.83545 -2.30347,1.1795c-0.87366,0.39035 -1.63318,0.95676 -2.55267,1.40451c-0.70001,0.34088 -1.51227,0.59152 -2.29053,0.89999c-0.95612,0.37897 -1.66785,0.68484 -2.5,0.83334c-0.96448,0.17212 -1.68225,0.14078 -2.36133,0.33365c-1.3053,0.37076 -1.78827,0.90457 -2.55597,1.55701c-0.5097,0.43317 -1.37677,0.98703 -2.43201,1.168c-0.76715,0.13156 -1.18341,0.10126 -2.48401,0.108c-0.9173,0.00476 -1.85864,0 -2.33331,0c-0.94733,0 -2.33337,0 -3.21204,0c-0.83063,0 -1.60529,0 -2.31598,0c-1.20398,0 -1.97198,0 -2.73999,0c-1.20001,0 -1.88269,0 -2.58136,0c-1.31732,0 -1.88263,0 -2.90131,0c-1.0827,0 -1.72003,0 -2.42133,0c-0.74933,0 -1.5307,0 -2.72784,0c-0.79565,0 -1.96417,0 -2.71484,0c-1.06396,0 -1.73267,0 -2.71063,0c-0.65869,0 -1.69604,0 -2.80005,0c-0.74933,0 -1.49066,0 -2.55298,0c-0.97498,0 -1.57501,0 -2.90033,0c-0.69598,0 -1.60535,0 -2.604,0c-0.79651,0 -1.54797,0 -2.51202,0c-1.13867,0 -1.81512,0 -2.59064,0c-1.04803,0 -1.98395,-0.03638 -2.61017,0.05716c-1.02008,0.15237 -1.83392,0.5697 -2.77118,0.94284c-0.77625,0.30902 -1.55951,0.61151 -2.5,0.83334c-0.70709,0.16681 -1.55731,0.16599 -2.54034,0.16666c-0.86533,0.00058 -1.83466,0 -2.33832,0c-1.00534,0 -2.39032,0 -3.18765,0c-0.72534,0 -1.41068,0 -2.43369,0c-1.08148,0 -1.8125,0 -2.5235,0c-1.26715,0 -2.05917,0 -2.81516,0c-1.138,0 -1.81799,0 -2.578,0c-0.84,0 -2.25,0 -2.75934,0c-1.06265,0 -1.608,0 -2.70667,0c-0.54532,0 -2.11734,0 -2.60815,0c-0.94168,0 -1.86334,0 -2.32916,0c-0.96667,0 -2.01334,0 -3.16934,0c-0.61551,0 -1.25201,0 -1.90649,0c-1.35101,0 -2.0415,0.00034 -3.4375,0c-0.70001,-0.00018 -1.40009,0.00232 -2.10001,-0.009c-1.40018,-0.02267 -2.10046,-0.05603 -2.80002,-0.10532c-0.7005,-0.04938 -2.10129,-0.21094 -2.80032,-0.32852c-0.70374,-0.11838 -1.40988,-0.26144 -2.84134,-0.578c-0.73096,-0.16165 -1.47137,-0.33701 -2.229,-0.49649c-1.56009,-0.3284 -2.37134,-0.46518 -3.19733,-0.59866c-0.83673,-0.13522 -1.68265,-0.25867 -2.53198,-0.384c-0.84933,-0.12534 -1.69571,-0.24612 -2.53201,-0.384c-1.63684,-0.26987 -2.42642,-0.43237 -3.20001,-0.60132c-0.76379,-0.16681 -1.51791,-0.34833 -2.26797,-0.53552c-0.75125,-0.18747 -1.50504,-0.38489 -2.26801,-0.58051c-1.5647,-0.40115 -2.37424,-0.60101 -3.20135,-0.79733c-0.83987,-0.19937 -1.69135,-0.39355 -2.55148,-0.58047c-0.86389,-0.18774 -1.72995,-0.36905 -2.5965,-0.53552c-1.71399,-0.32928 -2.56049,-0.46698 -3.396,-0.59998c-0.82452,-0.13126 -1.63977,-0.25113 -2.44501,-0.3645c-0.79477,-0.11191 -1.57999,-0.21661 -2.35501,-0.31952c-1.51993,-0.20184 -2.26523,-0.30081 -3.00131,-0.40134c-0.72824,-0.09946 -1.4494,-0.19965 -2.16452,-0.29999c-0.71021,-0.09967 -1.41635,-0.19983 -2.11951,-0.29999c-1.40137,-0.19962 -2.10132,-0.30002 -2.80133,-0.40002c-0.69998,-0.09998 -1.39999,-0.19998 -2.09998,-0.29999c-0.70001,-0.10001 -1.40002,-0.20001 -2.10001,-0.29999c-1.39999,-0.19998 -2.1012,-0.31119 -3.57199,-0.49551c-0.79791,-0.10001 -1.66077,-0.19025 -2.604,-0.26849c-1.03809,-0.08609 -2.18851,-0.17123 -4.89069,-0.26935c-1.5741,-0.05716 -3.27594,-0.08517 -5.0715,-0.1095c-1.85641,-0.02515 -3.741,-0.03824 -5.62048,-0.04648c-1.84149,-0.00809 -3.612,-0.01001 -6.80801,-0.01068c-1.36749,-0.00027 -2.57999,0 -3.6525,0c-0.94751,0 -1.785,0 -2.5275,0c-0.66251,0 -1.26001,0 -2.32001,0c-0.49081,0 -0.96664,0 -1.4325,0c-0.46082,0 -0.92166,0 -1.38748,0c-0.47586,0 -0.96667,0.00015 -2.01334,0c-0.56433,-0.00009 -1.15469,0.00009 -1.767,-0.00449c-0.63034,-0.00473 -1.27475,-0.01346 -1.92902,-0.03152c-0.66043,-0.01822 -1.32367,-0.03439 -2.63733,-0.13065c-0.64609,-0.04733 -1.28421,-0.11533 -1.91849,-0.186c-0.63376,-0.07065 -1.26886,-0.14877 -1.90952,-0.22202c-0.64835,-0.07413 -1.30679,-0.15634 -2.672,-0.25867c-0.70862,-0.05313 -1.43326,-0.08475 -2.16751,-0.11398c-0.73907,-0.02942 -1.47836,-0.05148 -2.21249,-0.078c-0.72418,-0.02615 -1.43448,-0.04153 -2.78665,-0.14133c-0.63632,-0.04697 -1.24615,-0.1138 -1.83301,-0.19501c-0.57053,-0.07895 -1.1264,-0.17459 -1.67099,-0.285c-0.54077,-0.10965 -1.08011,-0.22952 -2.16269,-0.51999c-0.55646,-0.14929 -1.12015,-0.31686 -1.69498,-0.48602c-0.58517,-0.17218 -1.17938,-0.34958 -1.785,-0.522c-0.61438,-0.17493 -1.23615,-0.35736 -2.52002,-0.65866c-0.65347,-0.15335 -1.32178,-0.28604 -2.004,-0.40948c-0.69647,-0.12601 -1.41214,-0.23981 -2.14798,-0.3465c-0.75684,-0.10974 -1.53799,-0.21487 -3.18134,-0.41068c-0.86368,-0.10291 -1.75195,-0.20065 -2.65802,-0.29999c-0.91794,-0.10065 -1.84201,-0.19968 -2.76599,-0.30002c-0.91803,-0.09967 -1.82455,-0.19534 -3.57599,-0.39999c-0.83545,-0.09763 -1.64139,-0.19849 -2.41953,-0.2955c-0.75119,-0.09366 -1.47614,-0.18524 -2.17648,-0.26849c-0.67599,-0.08035 -1.32831,-0.16211 -2.57068,-0.26935c-0.59003,-0.05093 -1.164,-0.08417 -1.72348,-0.1185c-0.54852,-0.03366 -1.62579,-0.09708 -2.15802,-0.15799c-1.62326,-0.18576 -2.17526,-0.32596 -2.73984,-0.4595c-1.17285,-0.2774 -1.7742,-0.45251 -2.39465,-0.616c-0.63589,-0.16754 -2.64948,-0.65399 -3.36032,-0.79318c-0.72653,-0.14227 -1.47073,-0.26816 -2.229,-0.3855c-0.7691,-0.11902 -1.5491,-0.22717 -2.33701,-0.33148c-0.79343,-0.10504 -2.39111,-0.30359 -3.19116,-0.40485c-0.8013,-0.10141 -1.60486,-0.20502 -2.41052,-0.32098c-0.81067,-0.11667 -1.6264,-0.24454 -2.44647,-0.39301c-0.82935,-0.15015 -2.51105,-0.51285 -3.36401,-0.72818c-0.8631,-0.2179 -1.72705,-0.45807 -2.59351,-0.69748c-0.86456,-0.23892 -1.7225,-0.4791 -2.5755,-0.69751c-0.83905,-0.21484 -2.47464,-0.57391 -3.26666,-0.69818c-0.76953,-0.12076 -1.52374,-0.20367 -2.2605,-0.267c-0.71964,-0.06186 -1.42529,-0.10196 -2.11649,-0.14099c-0.67816,-0.0383 -1.99994,-0.11813 -2.64484,-0.17783c-0.63779,-0.05905 -1.26974,-0.12772 -2.52133,-0.29935c-0.62589,-0.08585 -1.25272,-0.18341 -1.884,-0.28049c-1.93781,-0.29803 -2.60278,-0.39929 -3.27768,-0.50317c-0.68512,-0.10547 -1.38034,-0.21423 -2.08499,-0.33148c-0.71536,-0.11905 -1.44202,-0.23892 -2.92001,-0.53067c-0.75574,-0.14917 -2.28574,-0.48267 -3.05865,-0.64801c-0.77441,-0.16565 -1.5484,-0.32895 -2.32199,-0.47549c-0.76776,-0.14542 -2.28513,-0.38409 -3.03168,-0.46716c-0.73888,-0.08221 -1.47719,-0.13953 -2.217,-0.19202c-0.74551,-0.05289 -1.50159,-0.09808 -2.27101,-0.15601c-0.78792,-0.05933 -2.43384,-0.22159 -3.29649,-0.33731c-0.88541,-0.11877 -1.7814,-0.26025 -2.6805,-0.40802c-0.89391,-0.14691 -1.77179,-0.29987 -2.62651,-0.444c-0.8213,-0.13849 -2.3288,-0.37732 -3.00082,-0.46249c-0.61873,-0.0784 -1.19414,-0.13947 -2.24533,-0.22198c-0.4911,-0.03854 -1.44728,-0.09006 -2.41667,-0.1875c-1.03754,-0.10431 -1.57747,-0.18411 -2.6875,-0.35419c-0.565,-0.08655 -1.69719,-0.2767 -2.8125,-0.47916c-1.08867,-0.19763 -1.63217,-0.30365 -2.18401,-0.41068c-1.15234,-0.22351 -1.76404,-0.34625 -2.40799,-0.47467c-1.40811,-0.28079 -2.18115,-0.43674 -2.99467,-0.59732c-0.84315,-0.16644 -1.70622,-0.33441 -2.58,-0.49649c-0.87289,-0.16193 -1.73547,-0.31836 -2.58,-0.45151c-1.58453,-0.24982 -2.31203,-0.33261 -2.99466,-0.39868c-0.64345,-0.06229 -1.25552,-0.11111 -2.408,-0.14932c-0.55183,-0.01828 -2.18399,-0.02133 -2.73883,-0.02133c-1.13567,0 -1.71449,0 -2.29933,0c-1.18367,0 -1.7805,0.00067 -2.97917,0c-1.20132,-0.00067 -1.80455,-0.00131 -2.41066,-0.01068c-1.22546,-0.01892 -1.84679,-0.04065 -2.47467,-0.07465c-1.28203,-0.06943 -2.60052,-0.19684 -3.27184,-0.27634c-0.67938,-0.08044 -1.36436,-0.17545 -2.0535,-0.285c-0.69458,-0.11041 -2.79008,-0.51666 -3.48933,-0.6745c-0.70076,-0.15817 -1.39977,-0.32794 -2.10001,-0.4935c-0.69977,-0.16544 -1.39888,-0.32928 -2.09999,-0.47549c-0.69891,-0.14575 -2.79939,-0.47311 -3.5,-0.54184c-0.69943,-0.0686 -1.40001,-0.11734 -2.10001,-0.168c-0.7,-0.05066 -1.40591,-0.05624 -3.5,-0.33334c-0.70203,-0.0929 -1.39822,-0.23019 -2.091,-0.37198c-0.68857,-0.14093 -1.36691,-0.29651 -2.03699,-0.444c-1.30057,-0.28625 -2.53731,-0.5267 -3.12917,-0.608c-1.13069,-0.1553 -1.68193,-0.18756 -2.75751,-0.29333c-0.53372,-0.05249 -2.15344,-0.27557 -2.70616,-0.392c-0.56075,-0.11813 -1.67316,-0.40564 -2.21667,-0.55734c-1.03961,-0.29016 -1.50829,-0.49423 -3.11983,-0.82935c-0.58372,-0.1214 -1.452,-0.168 -2.44267,-0.23315l-0.8215,-0.60165l-0.5145,-0.62253l-0.37466,-0.47333" id="svg_1" stroke-width="2" stroke="#000" fill="none"/>
  <path t="6147,6250,6258,6258,6299,6299,6299,6299,6312,6313,6313,6313,6313,6313,6313,6313,6313,6331,6331,6331,6331,6331,6331,6331,6331,6331,6348,6349,6349,6349,6349,6349,6349,6349,6349,6365,6365,6365,6365,6365,6365,6365,6366,6366,6382,6382,6382,6382,6382,6382,6382,6382,6382,6398,6398,6398,6398,6398,6398,6398,6399,6399,6415,6415,6415,6415,6416,6416,6416,6416,6416,6432,6432,6432,6432,6432,6432,6432,6432,6432,6448,6448,6448,6448,6449,6449,6449,6449,6449,6465,6465,6466,6466,6466,6466,6466,6466,6466,6482,6482,6482,6482,6482,6482,6482,6482,6482,6499,6499,6499,6499,6499,6500,6500,6500,6500,6515,6515,6515,6515,6515,6515,6515,6515,6515,6533,6533,6533,6533,6533,6533,6533,6533,6533,6551,6551,6551,6551,6551,6551,6551,6551,6552,6569,6570,6570,6570,6570,6570,6570,6570,6570,6587,6587,6587,6587,6587,6587,6588,6588,6588,6604,6604,6605,6605,6605,6605,6605,6605,6605,6621,6621,6621,6621,6621,6622,6622,6622,6623,6645,6645,6645,6645,6645,6647,6647,6647,6648,6667,6667,6667,6667,6668,6668,6668,6668,6669,6703,6703,6704,6704,6704,6704,6704,6704,6705,6727,6727,6728,6728,6728,6728,6728,6728,6728,6741,6741,6741,6741,6741,6742,6742,6742,6742,6768,6769,6769,6769,6769,6770,6770,6770,6770,6786,6786,6787,6787,6787,6787,6787,6787,6788,6808,6808,6808,6809,6809,6809,6810,6810,6810,6832,6832,6832,6832,6833,6833,6833,6833,6833,6850,6851,6851,6851,6851,6852,6852,6852,6852,6879,6880,6880,6880,6880,6881,6881,6882,6882,6910,6910,6911,6911,6911,6911,6911,6911,6912,6940,6940,6940,6941,6941,6941,6941,6941,6942,6967,6967,6967,6967,6967,6968,6968,6968,6968,6994,6995,6996,6996,6996,6996,6996,6996,6997,7024,7025,7025,7025,7026,7026,7026,7026,7026,7052,7052,7052,7052,7053,7053,7053,7053,7053,7081,7081,7081,7082,7082,7082,7083,7083,7083,7113,7114,7114,7114,7114,7115,7115,7115,7116,7144,7144,7144,7145,7145,7145,7146,7146,7146,7170,7170,7171,7171,7171,7171,7172,7172,7172,7226,7227,7227,7227,7227,7228,7228,7228,7228" d="m144.50346,275.88889c1.75717,0 2.65273,-0.00961 3.51601,0c0.80798,0.009 1.72179,0.14145 2.2085,0.22867c0.61075,0.10947 2.27565,0.43726 3.3605,0.65668c1.23517,0.24982 2.58963,0.52719 4.035,0.81598c1.50461,0.30063 3.03905,0.60242 4.575,0.888c1.50407,0.27966 4.30359,0.75394 5.54849,0.92517c1.14328,0.15726 2.21057,0.2746 3.2205,0.3735c0.9731,0.09528 1.93228,0.17419 2.8965,0.2655c0.99181,0.09393 3.14049,0.33948 4.3325,0.51083c1.27209,0.18286 2.60855,0.39932 3.99899,0.633c1.43358,0.24091 2.89607,0.4982 4.377,0.759c1.48708,0.26187 4.43066,0.77899 5.86617,1.02216c1.40584,0.23813 2.78419,0.46524 4.1355,0.68552c1.32504,0.216 2.6254,0.42499 3.9015,0.6315c1.25323,0.20282 3.69467,0.60349 4.88484,0.80432c1.1725,0.19785 2.32849,0.39664 3.47099,0.58951c1.13017,0.1908 2.2502,0.37762 3.36301,0.5535c1.10587,0.17477 3.30856,0.49374 4.40849,0.63599c1.09608,0.14175 2.18721,0.27127 3.26849,0.40652c1.06972,0.13379 2.12503,0.26901 3.16051,0.4245c1.01656,0.15265 2.97394,0.51288 3.90717,0.73282c0.91217,0.215 1.7984,0.45895 2.66701,0.70801c0.85674,0.24567 1.70033,0.50208 2.541,0.74399c0.83669,0.24075 2.521,0.68121 3.37732,0.86234c0.85843,0.18158 1.7218,0.33408 2.58301,0.47101c0.8535,0.13571 1.69843,0.25247 2.52899,0.36301c0.81212,0.10809 2.36725,0.30725 3.10284,0.409c0.71106,0.09833 1.40176,0.19925 2.0775,0.29999c0.66594,0.09927 1.3266,0.20038 1.9875,0.30002c0.66577,0.10037 2.03232,0.30127 2.74232,0.39999c0.72865,0.10132 1.47552,0.20099 2.2395,0.29999c0.77969,0.10104 1.57457,0.20081 2.3835,0.30002c0.82175,0.10077 2.50044,0.30038 3.355,0.39999c0.86145,0.1004 1.72702,0.19986 2.59351,0.29999c0.8645,0.09988 1.72406,0.19937 2.5755,0.30002c0.84055,0.09937 2.47668,0.29868 3.26767,0.40015c0.77835,0.09985 1.55051,0.20294 2.32349,0.31052c0.7814,0.10873 1.57751,0.22403 2.39551,0.3465c0.84735,0.12686 2.65671,0.4082 3.62967,0.56433c1.01239,0.16248 2.05273,0.33325 3.1095,0.5145c1.0636,0.1824 2.12207,0.3707 3.16351,0.56851c1.0159,0.19296 2.92191,0.58951 3.79181,0.7955c0.82068,0.19434 1.59567,0.39633 2.33401,0.59998c0.71231,0.19647 1.40283,0.39948 2.082,0.60001c0.67548,0.19946 2.04517,0.60297 2.75534,0.79968c0.72449,0.20068 1.46161,0.39554 2.20798,0.57898c0.74832,0.18393 1.49744,0.35535 2.24402,0.50702c0.73615,0.14957 2.17105,0.3884 2.86234,0.4715c0.67151,0.08072 1.3284,0.1366 1.97101,0.18149c0.63007,0.04404 1.25067,0.07532 1.86298,0.1095c0.60638,0.03384 1.80945,0.11395 2.41019,0.17352c0.60864,0.06036 1.23071,0.13702 1.87347,0.22498c0.6716,0.09192 1.37753,0.19888 2.12552,0.315c0.79733,0.12378 2.56644,0.40536 3.54916,0.55966c1.0386,0.16309 2.11932,0.33142 3.228,0.504c1.12268,0.17474 2.24536,0.34915 3.354,0.522c1.08069,0.16849 3.10205,0.48557 4.01834,0.63116c0.85437,0.13574 1.65466,0.26431 2.409,0.38553c0.71634,0.11511 1.40259,0.22568 2.06699,0.33148c0.65027,0.10355 1.94104,0.30435 2.59616,0.40485c0.6662,0.10217 1.34482,0.20593 2.03552,0.32098c0.70563,0.11755 1.4263,0.24564 2.1615,0.39301c0.75418,0.15118 2.3157,0.51428 3.12415,0.72818c0.82895,0.21933 1.67093,0.45984 2.52902,0.69748c0.86923,0.24072 1.74741,0.48108 2.63699,0.69751c0.89182,0.21695 2.6893,0.5744 3.59134,0.69849c0.90076,0.1239 1.80835,0.20935 2.72098,0.28802c0.92007,0.07932 1.85117,0.1467 2.793,0.23398c0.95688,0.08865 2.92078,0.33145 3.92767,0.50601c1.02258,0.17728 2.04623,0.38986 3.06601,0.612c1.00958,0.21991 1.99692,0.44986 2.95801,0.66599c0.92426,0.20782 2.63254,0.56668 3.405,0.6937c0.7157,0.11768 1.38544,0.20258 2.013,0.267c0.59052,0.06061 1.15195,0.10165 1.689,0.14099c0.51895,0.03799 1.52747,0.11905 2.02701,0.17767c0.50049,0.05872 1.00015,0.13034 1.5,0.20398c0.50015,0.0737 0.99973,0.15131 1.5,0.22202c0.49973,0.07062 1.49963,0.1904 1.99966,0.23117c0.49731,0.04056 0.99121,0.0672 1.479,0.08548c0.47955,0.01797 0.94928,0.02679 1.40698,0.03152c0.44366,0.00458 1.28101,0.00449 1.67166,0.00449c0.37466,0 0.73734,0 1.09201,0c0.35068,0 0.70132,0 1.056,0c0.36267,0 1.12799,0 1.53818,0c0.43115,0 0.88431,0 1.36047,0c0.50018,0 1.02536,0 1.57651,0c0.57819,0 1.81952,0 2.48383,0c0.69034,0 1.40268,0 2.13303,0c0.74432,0 1.49866,0 2.259,0c0.76233,0 2.27698,0 3.02264,0c0.73969,0 1.47736,0 2.21701,0c0.74567,0 1.50134,0 2.271,0c0.78766,0 2.43301,0 3.298,0c0.89499,0 1.82001,0 2.77499,0c0.98502,0 2,0 3.04501,0c1.07498,0 3.315,0 4.47998,0c1.19501,0 2.42001,0 3.67502,0c1.285,0 2.60001,0 3.94498,0c1.375,0 4.21503,0 5.67902,0c1.48801,0 2.99399,0 4.51199,0c1.52402,0 3.048,0 4.56601,0c1.50598,0 4.45801,0 5.89334,0c1.40732,0 2.78867,0 4.146,0c1.33533,0 2.65067,0 3.948,0c1.28134,0 3.80399,0 5.04868,0c1.23267,0 2.45132,0 3.65399,0c1.18466,0 2.34933,0 3.492,0c1.11865,0 3.276,0 4.31198,0c1.01199,0 2.00601,0 2.98801,0c0.97601,0 1.952,0 2.93399,0c0.99402,0 3.04202,0 4.10602,0c1.08798,0 2.194,0 3.31198,0c1.12402,0 2.24802,0 3.366,0c1.10602,0 3.25803,0 4.29419,0c1.01315,0 2.01031,0 2.9985,0c0.98615,0 1.97733,0 2.9805,0c1.02216,0 3.15149,0 4.27032,0c1.15182,0 2.32965,0 3.52649,0c1.20883,0 2.42267,0 3.63452,0c1.20282,0 3.5535,0 4.68796,0c1.1015,0 2.16705,0 3.19354,0c0.9845,0 1.92401,0 2.81549,0c0.84052,0 2.35651,0.00058 3.02686,-0.00015c0.6123,-0.00067 1.1687,-0.00177 1.67096,-0.01053c0.45038,-0.00787 0.85071,-0.02533 1.203,-0.04648l0.30634,-0.02817" id="svg_2" stroke-width="20" stroke="#fff" fill="none"/>
  <path t="8532,8619,8627,8627,8644,8652,8652,8669,8669,8669,8669,8669,8685,8685,8685,8685,8685,8685,8701,8701,8701,8701,8702,8702,8702,8702,8719,8719,8719,8719,8719,8719,8719,8719,8719,8735,8735,8735,8735,8735,8735,8735,8735,8735,8766,8766,8766,8766,8766,8766,8766,8766,8766,8783,8783,8783,8783,8783,8784,8784,8784,8784,8800,8800,8801,8801,8801,8801,8801,8801,8801,8818,8818,8818,8818,8818,8818,8818,8834,8834,8834,8834,8834,8834,8834,8850,8850,8851,8851,8851,8851,8851,8851,8851,8868,8868,8868,8868,8868,8868,8868,8868,8869,8888,8889,8889,8889,8889,8889,8889,8890,8890,8902,8902,8902,8902,8902,8902,8902,8902,8902,8927,8927,8927,8927,8927,8927,8927,8927,8928,8939,8940,8940,8940,8940,8940,8940,8940,8940,8956,8956,8956,8956,8957,8957,8957,8957,8957,8972,8972,8972,8973,8973,8973,8973,8973,8973,8989,8989,8990,8990,8990,8990,8990,8990,8990,9003,9003,9003,9003,9004,9004,9004,9004,9004,9024,9025,9025,9025,9025,9025,9025,9026,9026,9037,9037,9037,9038,9038,9038,9038,9038,9038,9055,9056,9056,9056,9056,9057,9057,9057,9057,9071,9071,9073,9073,9073,9073,9074,9074,9074,9087,9087,9088,9088,9088,9088,9089,9089,9089,9103,9104,9104,9104,9104,9104,9104,9106,9106,9120,9120,9121,9121,9121,9121,9121,9122,9122,9138,9138,9138,9138,9139,9139,9139,9139,9139,9154,9154,9154,9154,9154,9155,9155,9155,9155,9179,9179,9179,9179,9179,9180,9180,9180,9180,9315,9316,9316,9316,9316,9317,9317,9317,9318,9332,9332,9333,9333,9333,9348,9348,9348,9364,9365,9365,9365,9365,9366,9381,9381,9381,9381,9381,9382,9382,9382,9398,9398,9398,9398,9398,9399,9399,9399,9399,9413,9414,9414,9414,9414,9415,9415,9415,9415,9430,9431,9431,9431,9431,9432,9432,9432,9432,9447,9448,9448,9448,9448,9449,9449,9449,9449,9464,9464,9464,9465,9465,9465,9466,9466,9466,9481,9481,9481,9481,9482,9482,9482,9482,9482,9498,9498,9498,9498,9499,9499,9499,9499,9499,9515,9515,9515,9515,9516,9516,9516,9516,9517,9531,9531,9531,9532,9532,9532,9532,9533,9533,9548,9548,9549,9549,9549,9549,9550,9550,9550,9565,9566,9566,9566,9566,9566,9567,9567,9567,9581,9582,9582,9582,9583,9583,9583,9583,9584,9598,9598,9598,9599,9599,9599,9599,9600,9600,9615,9615,9615,9615,9617,9617,9618,9618,9618,9631,9632,9632,9633,9633,9633,9633,9634,9634,9648,9649,9649,9649,9649,9650,9650,9650,9651,9714,9714,9715,9715,9716,9716,9717,9717,9717,9724,9724,9725,9725,9726,9726,9727,9727,9727,9747,9747,9747,9748,9748,9748,9748,9749,9749,9765,9765,9766,9766,9766,9767,9767,9767,9767,9782,9782,9782,9783,9783,9783,9783,9784,9784,9815,9816,9816,9817,9817,9818,9818,9819,9819,9832,9832,9833,9833,9833,9834,9834,9835,9835,9849,9849,9849,9850,9850,9850,9851,9851,9851,9865,9866,9866,9866,9867,9867,9867,9868,9868,9882,9883,9883,9883,9884,9884,9884,9885,9885,9899,9900,9900,9901,9901,9901,9902,9902,9902,9921,9921,9921,9922,9922,9922,9923,9923,9923,10010,10011,10011,10012,10012,10013,10014,10015,10016,10022,10023,10024,10024,10025,10026,10027,10027,10028,10046,10047,10047,10047,10048,10048,10049,10049,10049,10065,10065,10066,10066,10067,10067,10067,10068,10068,10082,10082,10082,10083,10083,10083,10084,10084,10085,10105,10106,10106,10106,10107,10107,10107,10108,10110,10118,10119,10119,10119,10120,10121,10121,10122,10122,10134,10135,10135,10136,10136,10137,10137,10138,10138,10152,10153,10153,10154,10154,10155,10155,10156,10156,10167,10168,10168,10169,10170,10170,10170,10171,10171,10184,10185,10185,10185,10186,10186,10186,10187,10187,10379,10380,10381,10382,10382,10383,10384,10385,10385,10393,10394,10395,10395,10396,10396,10397,10398,10399,10413,10414,10414,10415,10415,10416,10416,10417,10418,10432,10432,10433,10433,10433,10434,10435,10435,10435,10449,10449,10450,10450,10451,10451,10451,10452,10452" d="m440.50348,297.88889c-1.70001,0.11432 -2.27924,0.72308 -2.80002,1.51733c-0.48111,0.73373 -1.19128,1.35364 -1.944,1.508c-0.9144,0.1875 -1.98538,0.33276 -2.39999,0.42133c-0.90033,0.19229 -1.86597,0.42407 -2.85599,0.72c-1.00766,0.30121 -1.5079,0.48929 -2.54169,0.83334c-0.52979,0.17633 -1.06284,0.38348 -2.79166,0.83334c-0.60684,0.1579 -1.23859,0.28867 -1.89001,0.40948c-1.35724,0.25171 -2.06958,0.3493 -2.79999,0.45267c-0.7496,0.10608 -2.30984,0.30563 -3.11984,0.40451c-0.82867,0.10117 -1.67557,0.20087 -2.53949,0.29999c-0.87973,0.10092 -1.77457,0.20071 -2.6835,0.30002c-0.92175,0.10071 -2.80057,0.29938 -3.755,0.40033c-0.96155,0.10172 -1.92749,0.20459 -2.89349,0.32098c-0.965,0.11627 -1.9252,0.24295 -2.87549,0.39301c-0.94177,0.14871 -2.77887,0.50928 -3.66684,0.72833c-0.87476,0.21579 -1.72971,0.45917 -2.57101,0.70801c-0.83136,0.24588 -1.64981,0.50153 -2.46298,0.74399c-0.80548,0.24017 -2.40704,0.68036 -3.20868,0.86234c-0.79584,0.18066 -1.59042,0.33386 -2.379,0.47101c-0.77878,0.13547 -1.54907,0.25262 -2.30701,0.36301c-0.74338,0.10825 -2.18115,0.30801 -2.871,0.40881c-0.67014,0.0979 -1.31989,0.1962 -1.94998,0.28952c-0.60995,0.09033 -1.19971,0.17679 -1.77002,0.25348c-0.54971,0.07391 -1.58966,0.1944 -2.08066,0.23569c-0.47437,0.03989 -0.93704,0.07227 -1.84265,0.10065c-0.45059,0.01413 -1.36801,0.02017 -2.84369,0.02084c-0.53232,0.00024 -1.67099,0 -2.28131,0c-0.64035,0 -1.31268,0 -2.01901,0c-1.52267,0 -2.34332,0 -3.20801,0c-0.91266,0 -1.87732,0 -2.89798,0c-1.08069,0 -2.22534,0 -3.43802,0c-2.64532,0 -4.08301,0 -5.58667,0c-1.55566,0 -3.14932,0 -4.767,0c-1.62766,0 -3.25131,0 -4.85699,0c-3.10132,0 -4.57233,0 -5.98932,0c-1.36902,0 -2.69601,0 -3.987,0c-1.26102,0 -2.49802,0 -3.71701,0c-2.40799,0 -3.60751,0 -4.80402,0c-1.19049,0 -2.37198,0 -3.54147,0c-1.15451,0 -2.29102,0 -3.40652,0c-2.15598,0 -3.19183,0 -4.20267,0c-0.99081,0 -1.96664,0 -2.9325,0c-0.96082,0 -1.92166,0 -2.88748,0c-1.96667,0 -2.97617,0 -4.00269,0c-1.0405,0 -2.09198,0 -3.15149,0c-1.06451,0 -2.13101,0 -3.1965,0c-2.116,0 -3.16217,0.00168 -4.20532,-0.00266c-1.04718,-0.00433 -2.10544,-0.01401 -3.18152,-0.039c-1.10129,-0.02557 -2.23483,-0.06256 -3.40649,-0.129c-2.49063,-0.14124 -3.81818,-0.26553 -5.19467,-0.40134c-1.41589,-0.13968 -2.85822,-0.30362 -4.31549,-0.49051c-1.46408,-0.18774 -2.92233,-0.39117 -4.3605,-0.62549c-2.7894,-0.45447 -4.11264,-0.72632 -5.392,-0.996c-1.24231,-0.26187 -2.44733,-0.53851 -3.6225,-0.81601c-1.15152,-0.27188 -2.28088,-0.55069 -3.39749,-0.81601c-2.20511,-0.52396 -3.30542,-0.76672 -4.40402,-0.99731c-1.09276,-0.22937 -2.18057,-0.44397 -3.26099,-0.64502c-1.06895,-0.19891 -2.12645,-0.38541 -3.17101,-0.55499c-2.03564,-0.33051 -3.02711,-0.4679 -3.99866,-0.60132c-0.9528,-0.13086 -1.88914,-0.25092 -2.80951,-0.3645c-0.90498,-0.11169 -1.7963,-0.21658 -2.6745,-0.31952c-1.72128,-0.20178 -2.56638,-0.29974 -3.39999,-0.40265c-0.82205,-0.10147 -1.63118,-0.20584 -2.42551,-0.31952c-0.78033,-0.11169 -1.5452,-0.22769 -2.2905,-0.3645c-1.44182,-0.26465 -2.13026,-0.43149 -2.80267,-0.59866c-0.66061,-0.16425 -1.30818,-0.3407 -1.94849,-0.51599c-0.6357,-0.17404 -1.26756,-0.35287 -1.9035,-0.51599c-1.28117,-0.32858 -1.93774,-0.4679 -2.60268,-0.59735c-0.67076,-0.13062 -1.34988,-0.24524 -2.03549,-0.345c-0.68909,-0.10028 -1.38289,-0.18753 -2.08051,-0.255c-1.39729,-0.13513 -2.09807,-0.16733 -2.79466,-0.20398c-0.69041,-0.03632 -1.37216,-0.06506 -2.0415,-0.10352c-0.65466,-0.03763 -1.29248,-0.07529 -1.90649,-0.1485c-1.15938,-0.13821 -1.69411,-0.26404 -2.20134,-0.39999c-0.49019,-0.13141 -0.95869,-0.28818 -1.41299,-0.45151c-0.44704,-0.16074 -0.8838,-0.33508 -1.323,-0.49649c-0.88234,-0.32425 -1.33853,-0.46512 -1.8,-0.59732c-0.46123,-0.13211 -0.92238,-0.25052 -1.377,-0.3645c-0.44405,-0.11133 -0.87547,-0.21313 -1.287,-0.31952c-0.75621,-0.19547 -1.09102,-0.29803 -1.39734,-0.39999c-0.2823,-0.09396 -0.53915,-0.18942 -0.77399,-0.28049c-0.21581,-0.08368 -0.4118,-0.16592 -0.59401,-0.2355c-0.32117,-0.12265 -0.46709,-0.16681 -0.604,-0.20001c-0.12752,-0.03094 -0.24905,-0.05157 -0.36449,-0.06448c-0.10995,-0.0123 -0.21631,-0.01758 -0.3195,-0.0195c-0.20131,-0.00372 -0.30133,-0.00134 -0.40134,-0.00134c-0.10001,0 -0.2,0 -0.3,0c-0.09999,0 -0.2,0 -0.3,0c-0.2,0 -0.29984,0.00085 -0.39867,-0.00134c-0.09686,-0.00217 -0.19102,-0.00647 -0.28049,-0.0195c-0.08528,-0.01242 -0.16733,-0.02835 -0.2355,-0.06448c-0.12712,-0.06735 -0.16951,-0.13312 -0.19734,-0.19867c-0.02817,-0.06631 -0.16528,-0.306 0.35567,-0.59451c0.60251,-0.33368 1.50034,-0.12082 2.6425,-0.12149c0.94701,-0.00055 1.46851,0 2.01801,0c1.17101,0 1.7865,0 3.0625,0c0.65649,0 2.03549,0 2.776,0c0.7865,0 1.62799,0 2.53349,0c0.9785,0 3.19051,0 4.43884,0c1.33833,0 2.75667,0 4.245,0c1.54834,0 3.14667,0 4.785,0c1.66833,0 5.05499,-0.00052 6.75533,0.00015c1.70233,0.00067 3.40869,0.00238 5.121,0.01053c1.72035,0.00818 3.45071,0.02194 5.19301,0.04648c1.75638,0.02475 5.31915,0.10486 7.12883,0.16452c1.82899,0.0603 3.67587,0.13541 5.53949,0.22498c1.88007,0.09036 3.77496,0.19543 5.6835,0.315c1.92215,0.12039 5.8009,0.39993 7.75534,0.56018c1.96426,0.16107 3.93631,0.33771 5.91449,0.53549c1.9855,0.19852 3.97565,0.41714 5.96851,0.6615c1.99786,0.24496 5.9968,0.80634 7.99466,1.12384c1.99548,0.31714 3.97897,0.659 5.94751,1.008c1.9498,0.3457 3.87317,0.69946 5.76749,1.04401c1.85904,0.33813 5.45154,0.97778 7.17853,1.26215c1.68106,0.27682 3.3251,0.53043 4.93799,0.76053c1.58514,0.22614 3.15128,0.43127 4.70401,0.61649c1.54327,0.18408 4.63159,0.50378 6.18649,0.64484c1.5611,0.14163 3.12692,0.26959 4.69348,0.396c1.56445,0.12625 3.12424,0.2482 4.67551,0.37799c1.54071,0.12891 4.57715,0.40787 6.06766,0.56918c1.47885,0.16006 2.95117,0.33798 4.42352,0.53549c1.48203,0.19879 2.97827,0.41934 4.49548,0.6615c1.54816,0.24707 4.75723,0.81055 6.43002,1.12384c1.71524,0.32126 3.46112,0.66205 5.2305,1.008c1.7836,0.34872 3.57147,0.70132 5.35648,1.04401c1.771,0.34 5.23856,0.9776 6.91968,1.26233c1.64026,0.2778 3.24384,0.53186 4.81049,0.771c1.52969,0.23349 3.02527,0.45129 4.48651,0.66299c1.42807,0.20691 4.18982,0.60699 5.52499,0.80902c1.30881,0.19803 2.59323,0.39856 3.85651,0.59998c1.24573,0.19861 2.47614,0.39929 3.69449,0.60001c1.20963,0.19928 3.61349,0.60025 4.81302,0.79984c1.19647,0.19907 2.38684,0.39667 3.56848,0.58951c1.16937,0.19083 2.32373,0.3765 3.46051,0.5535c1.11523,0.17365 3.2713,0.49203 4.30682,0.63599c1.00714,0.14001 1.98904,0.27048 2.94601,0.40652c0.9357,0.13303 1.85181,0.26926 2.74799,0.4245c0.88251,0.15286 2.60617,0.51498 3.44867,0.73267c0.8349,0.21573 1.6521,0.45581 2.45401,0.69748c0.7854,0.23669 1.54825,0.47702 2.29199,0.69751c0.71765,0.21274 2.07385,0.57312 2.71133,0.698c0.60544,0.11859 1.18781,0.20099 1.746,0.2565c0.53464,0.05316 1.05051,0.08035 1.548,0.09451c0.48123,0.0137 1.40399,0.01349 1.84866,0.01349c0.43268,0 0.85135,0 1.254,0c0.38467,0 0.74933,0 1.09201,0c0.31866,0 0.87601,0 1.11084,0c0.20383,0 0.37564,0 0.5145,0c0.10483,0 0.2085,0.03384 0.2085,0c0,-0.00317 -0.12451,0 -0.24402,0c-0.15649,0 -0.34698,0 -0.56848,0c-0.24951,0 -0.52402,0 -0.8205,0c-0.31552,0 -0.99152,0.00226 -1.35019,-0.00082c-0.39069,-0.00336 -0.83572,-0.01575 -1.35599,-0.05252c-0.6192,-0.04376 -1.35812,-0.1203 -2.23801,-0.23248c-1.04562,-0.1333 -3.71475,-0.54297 -5.37448,-0.8215c-1.86435,-0.31287 -3.90338,-0.672 -6.09152,-1.06201c-2.31085,-0.4119 -4.71603,-0.84772 -7.18948,-1.29599c-2.51456,-0.45572 -7.55795,-1.371 -10.03967,-1.81268c-2.44763,-0.43561 -4.86902,-0.85916 -7.2735,-1.254c-2.38989,-0.39246 -4.7756,-0.76169 -7.1655,-1.09198c-2.39548,-0.33105 -7.24524,-0.88953 -9.71085,-1.11185c-2.48914,-0.22446 -5.00229,-0.4071 -7.53299,-0.57748c-2.54398,-0.1713 -5.09882,-0.32425 -7.659,-0.48752c-2.5625,-0.16339 -7.6778,-0.52316 -10.224,-0.74234c-2.54984,-0.21948 -5.11261,-0.46973 -7.70102,-0.73947c-2.62762,-0.27383 -5.30423,-0.57245 -8.043,-0.88351c-2.81326,-0.31955 -8.70886,-1.00146 -11.81165,-1.35535c-3.19855,-0.36481 -6.47934,-0.73569 -9.828,-1.11447c-3.40268,-0.38489 -6.84543,-0.7739 -10.314,-1.16852c-3.48077,-0.39603 -10.42224,-1.19333 -13.85434,-1.59534c-3.38657,-0.3967 -6.71112,-0.7919 -9.957,-1.18948c-3.1528,-0.38617 -6.19543,-0.76877 -9.11099,-1.1535c-2.77512,-0.36621 -7.83429,-1.08231 -10.09283,-1.43567c-2.10007,-0.32855 -4.06627,-0.66092 -5.9295,-0.9855c-1.79042,-0.31189 -3.53423,-0.62787 -5.2635,-0.93149c-1.74139,-0.30576 -5.37946,-0.91135 -7.32634,-1.20401c-2.01978,-0.30362 -4.09088,-0.5929 -6.1875,-0.8685c-2.09506,-0.27539 -4.16594,-0.53024 -6.1875,-0.7605c-1.94516,-0.22156 -5.51186,-0.57907 -7.08899,-0.70718c-1.43495,-0.11655 -2.73877,-0.20135 -3.91951,-0.267c-1.0663,-0.0593 -2.02805,-0.10022 -2.89349,-0.14099c-0.77855,-0.03668 -2.11127,-0.11554 -2.68083,-0.17767c-0.51311,-0.05597 -0.96986,-0.12503 -1.371,-0.20398c-0.35146,-0.06918 -0.65221,-0.1442 -0.903,-0.22202c-0.20769,-0.06442 -0.49344,-0.17886 -0.5695,-0.23117c-0.04662,-0.03204 -0.0574,-0.07004 -0.03149,-0.08548c0.04448,-0.02649 0.1239,-0.0271 0.2205,-0.03152c0.11542,-0.00528 0.39149,-0.00449 0.54849,-0.00449c0.179,0 0.392,0 0.651,0c0.317,0 0.70399,0 1.173,0c0.56299,0 2.019,0 2.93266,0c1.03566,0 2.18533,0 3.44099,0c1.35367,0 2.79733,0 4.323,0c1.59967,0 4.98901,0 6.7635,0c1.8215,0 3.687,0 5.59351,0c1.9445,0 3.924,0 5.9355,0c2.0405,0 6.1965,0 8.31099,0c2.1615,0 4.397,0 6.73351,0c2.46449,0 5.084,0 7.88551,0c3.0105,0 9.76648,0 13.55283,0c4.02432,0 8.23465,0 12.57901,0c4.42633,0 8.88266,0 13.31699,0c4.36032,0 12.651,0 16.48917,0c3.62717,0 7.06235,0 10.32449,0c3.10818,0 6.08133,0 8.93851,0c2.76016,0 8.06549,0 10.64432,0c2.53186,0 5.00967,0 7.42651,0c2.34885,0 4.62268,0 6.81451,0c2.10281,0 6.01349,0 7.80948,0c1.69202,0 3.28601,0 4.78799,0c1.41602,0 2.75201,0 4.01401,0c1.194,0 3.40201,0 4.42719,0c0.97617,0 1.90433,0 2.78549,0c0.83517,0 1.62534,0 2.37149,0c0.70319,0 1.9845,0 2.56384,0c0.53534,0 1.02267,0 1.45801,0c0.37933,0 0.69867,0 0.95398,0c0.18735,0 0.34201,0.00012 0.30334,-0.00015c-0.11066,-0.00082 -0.28537,-0.00323 -0.51599,-0.01053c-0.27872,-0.00882 -0.5975,-0.02274 -0.948,-0.04648c-0.37488,-0.02539 -1.16443,-0.10651 -1.56717,-0.16434c-0.42264,-0.0607 -0.88199,-0.13806 -1.39951,-0.21451c-0.59277,-0.08755 -1.28073,-0.17999 -2.0835,-0.26849c-0.93451,-0.10303 -3.28018,-0.30063 -4.72134,-0.39551c-1.60547,-0.10571 -3.35153,-0.20227 -5.21249,-0.29999c-1.95071,-0.10242 -3.96664,-0.20038 -6.02249,-0.30002c-2.07083,-0.10034 -6.15753,-0.29919 -8.12918,-0.39981c-1.92169,-0.09808 -3.80325,-0.1972 -5.655,-0.28952c-1.8316,-0.09131 -3.65332,-0.17465 -5.47501,-0.25348l-1.83167,-0.07184" id="svg_3" stroke-width="20" stroke="#fff" fill="none"/>
  <path t="12894,12922,12931,12951,12967,12967,12984,13001,13001,13018,13018,13018,13034,13051,13051,13067,13084,13100,13100,13116,13116,13133,13150,13150,13166,13166,13184,13200,13201,13201,13216,13217,13217,13233,13233,13233,13250,13250,13250,13250,13266,13266,13266,13266,13266,13283,13283,13284,13284,13284,13300,13300,13300,13300,13301,13316,13316,13316,13316,13333,13333,13333,13333,13333,13350,13350,13350,13350,13350,13350,13368,13369,13369,13369,13369,13369,13388,13388,13388,13388,13388,13388,13401,13402,13402,13402,13402,13402,13402,13402,13402,13417,13418,13418,13418,13418,13418,13434,13434,13434,13434,13434,13434,13450,13451,13451,13451,13451,13451,13451,13451,13451,13466,13467,13467,13467,13467,13467,13467,13467,13467,13484,13484,13484,13484,13484,13484,13484,13501,13501,13501,13501,13501,13502,13502,13502,13516,13517,13517,13517,13517,13517,13517,13533,13534,13534,13534,13534,13534,13534,13534,13534,13551,13551,13551,13551,13552,13552,13552,13552,13566,13567,13567,13567,13567,13567,13567,13567,13584,13585,13585,13585,13585,13585,13585,13601,13601,13602,13602,13602,13602,13602,13602,13634,13634,13634,13634,13634,13634,13635,13635,13635,13651,13651,13651,13651,13651,13651,13651,13652,13652,13683,13684,13684,13684,13684,13684,13684,13685,13685,13700,13701,13701,13701,13701,13701,13702,13702,13702,13717,13717,13718,13718,13718,13718,13719,13719,13719,13734,13735,13735,13735,13735,13735,13735,13735,13736,13751,13751,13752,13752,13752,13752,13753,13753,13753,13787,13787,13787,13787,13787,13788,13788,13788,13788,13801,13801,13801,13802,13802,13802,13802,13802,13803,13834,13834,13834,13834,13834,13835,13835,13835,13835,13851,13851,13851,13852,13852,13852,13852,13852,13853,13883,13884,13884,13884,13884,13885,13885,13885,13885,13902,13902,13902,13902,13903,13903,13903,13903,13903,13935,13936,13936,13936,13936,13936,13937,13937,13937,13960,13961,13961,13962,13962,13962,13962,13962,13963,13985,13985,13985,13986,13986,13986,13986,13986,13987,14002,14002,14002,14002,14003,14003,14003,14003,14003,14034,14035,14035,14035,14035,14035,14036,14036,14036,14051,14052,14052,14052,14052,14052,14053,14053,14053,14085,14085,14085,14086,14086,14086,14086,14087,14087,14102,14102,14102,14103,14103,14103,14103,14104,14104,14139,14140,14140,14140,14140,14141,14141,14141,14141,14153,14153,14153,14153,14154,14154,14154,14154,14155,14185,14185,14186,14186,14186,14202,14202,14202,14203,14203,14203,14235,14235,14235,14236,14236,14252,14253,14253,14253,14253,14284,14285,14285,14285,14286,14286,14302,14302,14302,14302,14319,14320,14337,14337,14337,14354,14355,14355,14371,14371,14387,14387,14403,14403,14419,14420,14440,14440,14441,14457,14457,14475,14476,14476,14493,14494,14494,14494,14495,14511,14511,14541,14543,14544,14544,14571,14572,14572,14572,14573,14573,14603,14603,14603,14604,14604,14604,14605,14605" d="m540.50348,312.88889c-1.70001,0 -2.60004,0 -3.52087,0c-0.96313,0 -1.65381,0 -2.7265,0c-0.91931,0 -1.7735,0 -2.75262,0c-0.78937,0 -1.51465,0 -2.5,0c-0.98401,0 -1.67468,-0.00009 -2.74286,0c-0.85718,0.00009 -1.72144,0.22852 -2.39313,0.57468c-0.81213,0.41855 -1.71136,0.42307 -2.73871,0.42532c-0.94666,0.00208 -1.62665,-0.05054 -2.60382,0.00015c-0.82349,0.04269 -1.52625,0.61755 -2.56451,0.87851c-0.71313,0.17923 -1.57104,0.13956 -2.45697,0.28799c-0.90204,0.15115 -1.75388,0.45428 -2.83334,0.66669c-0.71313,0.14032 -1.42798,0.16132 -2.5,0.16666c-0.98099,0.00488 -1.70834,0 -2.47568,0c-1.19098,0 -1.99112,-0.00665 -2.79099,0.01068c-0.80023,0.01733 -1.6037,0.04529 -2.80017,0.21066c-0.80728,0.11157 -1.61957,0.2851 -2.457,0.42599c-0.42761,0.07196 -1.76328,0.24545 -2.6955,0.2955c-0.94666,0.05084 -1.42197,0.05069 -2.36334,0.05582c-1.36246,0.00742 -2.22684,0.00134 -3.06317,0.00134c-0.81631,0 -2.02081,0 -2.42117,0c-0.80865,0 -1.64133,0 -2.51398,0c-1.41901,0 -1.92834,0 -2.991,0c-0.54535,0 -1.64401,0 -2.18933,0c-1.57202,0 -2.06268,0 -3,0c-0.90533,0 -1.81067,0 -2.27335,0c-1.47568,0 -2.008,0 -3.14667,0c-0.61032,0 -1.25067,0 -1.923,0c-2.229,0 -3.04715,0 -3.89432,0c-0.86517,0 -1.73734,0 -2.6055,0c-0.85318,0 -1.68036,0 -2.47052,0c-1.42532,0 -2.04199,0 -2.59866,0c-0.50665,0 -1.41,0 -2.23334,0c-1.25998,0 -2.21732,0 -2.73599,0c-1.10733,0 -1.69199,0 -2.29468,0c-1.896,0 -2.55133,0 -3.21866,0c-0.68134,0 -1.37866,0 -2.09399,0c-0.73532,0 -1.49268,0 -2.27399,0c-1.64267,0 -2.50635,0 -3.39203,0c-0.89966,0 -1.80533,0 -2.70898,0c-0.89368,0 -1.76935,0 -2.61899,0c-1.58936,0 -2.31552,0 -2.99869,0c-0.64716,0 -1.86148,0 -2.44266,0c-0.57318,0 -2.31467,0 -2.92416,0c-0.6265,0 -1.267,0 -2.578,0c-0.66449,0 -1.33099,0 -1.99649,0c-1.96152,0 -2.60001,0 -3.2345,0c-0.63351,0 -1.90952,0 -2.55801,0c-0.65952,0 -2.0235,0 -2.73315,0c-0.72769,0 -1.47134,0 -2.229,0c-0.76968,0 -1.54935,0 -2.33701,0c-0.79367,0 -2.39099,0 -3.19083,0c-0.79886,0 -1.59567,0 -3.17935,0c-0.78482,0 -1.56366,0 -2.33548,0c-1.51868,0 -2.26367,0 -2.99869,0c-0.72501,0 -1.44,0 -2.14499,0c-0.69501,0 -2.05499,0 -3.375,0c-0.64532,0 -1.28265,0 -2.54132,0c-0.62534,0 -1.25067,0 -1.87802,0c-1.914,0 -2.569,0 -3.23398,0c-0.67502,0 -1.36002,0 -2.05502,0c-1.41998,0 -2.14499,0 -3.625,0c-0.75583,0 -1.52667,0 -2.3175,0c-0.81583,0 -1.66165,0 -2.54248,0c-0.92084,0 -1.88669,0 -3.97333,0c-1.12836,0 -2.30667,0 -3.52502,0c-1.24832,0 -2.51666,0 -3.79498,0c-1.27835,0 -2.54666,0 -5.01334,0c-1.18149,0 -2.332,0 -3.46051,0c-1.11548,0 -2.22699,0 -3.34351,0c-1.13049,0 -2.284,0 -4.69598,0c-1.27283,0 -2.58267,0 -3.9165,0c-1.34482,0 -2.68765,0 -4.0155,0c-1.29984,0 -2.55865,0 -4.90134,0c-1.06165,0 -2.05331,0 -2.98499,0c-0.88168,0 -1.72333,0 -2.535,0c-0.79166,0 -1.57333,0 -3.14667,0c-0.80933,0 -1.63467,0 -2.47202,0c-0.84531,0 -1.69464,0 -2.54398,0c-0.84534,0 -1.68268,0 -3.31735,0c-0.79031,0 -1.56265,0 -2.319,0c-0.74234,0 -1.47266,0 -2.19299,0c-0.71234,0 -1.41867,0 -2.82132,0c-0.70068,0 -1.40533,0 -2.11801,0c-0.72467,0 -1.46533,0 -2.22601,0c-0.78467,0 -1.59732,0 -3.32266,0c-0.91833,0 -1.86667,0 -2.83499,0c-0.97833,0 -1.95667,0 -2.92499,0c-0.94833,0 -1.86667,0 -3.57333,0c-0.77167,0 -1.49335,0 -2.17502,0c-0.65167,0 -1.28333,0 -1.905,0c-0.62167,0 -1.25333,0 -2.58667,0c-0.71866,0 -1.46933,0 -2.24399,0c-0.79068,0 -1.58932,0 -2.388,0c-0.79068,0 -1.56534,0 -3.03467,0c-0.681,0 -1.328,0 -1.94699,0c-0.59702,0 -1.17801,0 -1.74902,0c-0.56699,0 -1.13599,0 -2.30399,0c-0.60934,0 -1.23468,0 -1.87201,0c-0.64532,0 -1.29465,0 -1.944,0c-0.64532,0 -1.28265,0 -2.51733,0c-0.59116,0 -1.16931,0 -1.74149,0c-0.57318,0 -1.15433,0 -1.75052,0c-0.61816,0 -1.26532,0 -2.67465,0c-0.77335,0 -1.58667,0 -2.43001,0c-0.86333,0 -1.73666,0 -2.61,0c-0.86333,0 -1.70667,0.00015 -3.29332,0c-0.72633,-0.00009 -1.41069,0.00031 -2.061,-0.00449c-0.62434,-0.00461 -1.23076,-0.01334 -1.827,-0.03152c-0.59445,-0.01813 -1.19542,-0.03854 -2.44534,-0.13065c-0.66444,-0.04895 -1.35213,-0.11597 -2.058,-0.186c-0.71814,-0.07126 -1.44193,-0.14804 -2.166,-0.22202c-0.71793,-0.07336 -1.42311,-0.15195 -2.776,-0.25867c-0.63579,-0.05017 -1.24918,-0.08469 -1.8465,-0.1095c-0.58804,-0.02444 -1.1743,-0.03836 -1.7655,-0.04648c-0.60313,-0.00827 -1.22533,-0.0097 -2.55466,-0.01068c-0.71918,-0.00052 -1.47337,0.00015 -2.25751,-0.009c-0.80922,-0.00943 -1.63857,-0.02692 -2.4825,-0.06299c-0.85445,-0.03653 -1.71637,-0.06943 -3.42667,-0.26135c-0.84692,-0.09503 -1.68237,-0.23004 -2.50951,-0.3765c-0.82224,-0.14557 -1.6366,-0.30963 -2.4465,-0.47549c-0.80643,-0.16513 -1.60695,-0.34433 -3.21066,-0.64801c-0.79819,-0.15115 -1.59404,-0.28403 -2.382,-0.405c-0.77473,-0.11896 -1.53421,-0.22354 -2.27399,-0.315c-0.71492,-0.08841 -1.40178,-0.17004 -2.67734,-0.28c-0.58095,-0.05008 -1.13068,-0.08398 -1.65601,-0.1185c-0.50932,-0.03348 -1.01097,-0.0654 -1.51199,-0.1095c-0.50967,-0.04483 -1.03734,-0.09055 -2.16533,-0.272c-0.62012,-0.09976 -1.26852,-0.23212 -1.93951,-0.37198c-0.68503,-0.14279 -1.37289,-0.29514 -2.05649,-0.444c-0.66942,-0.14578 -1.3103,-0.31433 -3.03033,-0.60785c-0.48291,-0.0824 -1.35867,-0.18512 -2.16167,-0.25751c-0.79436,-0.07159 -2.11105,-0.19632 -3.10783,-0.34698c-0.52505,-0.07938 -1.0616,-0.16458 -2.13667,-0.39999c-0.5359,-0.11734 -2.06104,-0.55096 -2.991,-0.88651c-0.45001,-0.16238 -1.31564,-0.51825 -2.1925,-0.7825c-0.87604,-0.26398 -1.80115,-0.41415 -2.75333,-0.508c-0.48418,-0.0477 -1.47046,-0.08691 -2.964,-0.228c-0.50061,-0.04727 -1.49628,-0.18582 -1.98933,-0.26935c-0.97629,-0.16537 -1.9263,-0.36087 -2.84399,-0.564c-0.8783,-0.1944 -1.69768,-0.39365 -2.448,-0.564c-1.2171,-0.27634 -2.03978,-0.34412 -3.04034,-0.65735c-0.73677,-0.23065 -1.35503,-0.55371 -2.36232,-0.69333c-0.81081,-0.1124 -1.632,-0.08466 -2.85434,-0.08533c-0.8,-0.00043 -1.72093,0.04562 -2.431,-0.08533c-1.05219,-0.19403 -1.76805,-0.53629 -2.69733,-0.74802c-0.82486,-0.18796 -1.87617,-0.16666 -2.59468,-0.16666c-0.7905,0 -1.81715,0 -2.71782,0c-1.02084,0 -1.85284,0 -2.59235,0c-0.9285,0 -1.67928,0.00653 -2.49382,-0.01068c-0.82289,-0.0174 -1.63194,0.06836 -3.01501,-0.34198c-0.74228,-0.22021 -1.69441,-0.57834 -2.23433,-0.61133c-1.02158,-0.06244 -1.42934,-0.03387 -2.87117,-0.03616c-0.55415,-0.00089 -1.74754,-0.00821 -2.37666,-0.02069c-0.64421,-0.01279 -1.30016,-0.00714 -3.27083,-0.14581c-0.64626,-0.04547 -1.28491,-0.11264 -1.9185,-0.19501c-1.271,-0.16522 -1.9095,-0.285 -2.558,-0.39999l-0.6595,-0.125" id="svg_4" stroke-width="2" stroke="#000" fill="none"/>
  <path t="15603,15723,15732,15746,15746,15759,15770,15770,15787,15787,15787,15804,15804,15804,15820,15820,15820,15837,15837,15837,15854,15854,15854,15854,15869,15869,15869,15869,15869,15886,15886,15886,15903,15903,15903,15919,15919,15919,15938,15938,15938,15957,15972,15972,15986,15986,16004,16005,16005,16005,16019,16019,16019,16036,16036,16036,16036,16053,16053,16053,16053,16068,16069,16069,16069,16086,16086,16086,16102,16102,16102,16102,16102,16124,16124,16124,16125,16149,16149,16150,16150,16150,16191,16192,16192,16192,16192,16192,16230,16231,16231,16231,16231,16268,16268,16268,16268,16268,16306,16307,16344,16382,16422,16423,16438,16439,16439,16439,16482,16486,16486,16486,16521,16521,16521,16521,16521,16562,16562,16562,16563,16563,16563,16603,16603,16603,16603,16604,16604,16604,16644,16644,16644,16644,16645,16645,16684,16684,16685,16685,16685,16685,16685,16725,16725,16725,16725,16725,16725,16725,16726,16767,16767,16767,16767,16768,16768,16768,16768,16768,16808,16808,16808,16809,16809,16809,16809,16809,16810,16847,16848,16848,16848,16848,16848,16848,16849,16849,16887,16887,16887,16887,16887,16887,16887,16888,16888,16926,16926,16927,16927,16927,16927,16966,16967,16967,16967,17307,17307,17338,17363,17364,17400,17400,17442,17442,17477,17477,17478,17478,17478,17516,17517,17517,17517,17517,17559,17559,17559,17559,17560,17560,17560,17594,17594,17594,17595,17595,17595,17636,17636,17637,17677,17677,17677,17678,17716,17716,17716,17717,17717,17754,17754,17793,17793,17832,17833,17868,17910,17910,18010,18053,18054,18076,18116,18153,18153,18227,18339,18339,18371,18371,18443,18699,18747,18787,18802,18803,18834,19070,19085,19086,19098,19137,19156,19156,19197,19198,19215,19215,19230,19231,19248,19249,19269,19269,19287,19287,19304,19304,19321,19338,19339,19339,19355,19356,19373,19374,19392,19392,19410,19427,19427,19444,19445,19445,19463,19464,19484,19484,19503,19504,19504,19504,19521,19522,19539,19539,19556,19557,19557,19574,19574,19574,19593,19593,19610,19610,19627,19627,19628,19646,19646,19647,19666,19666,19666,19666,19687,19687,19706,19706,19706,19726,19745,19745,19764,19765,20082,20110,20133,20143,20386,20387,20387,20419,20419,20419,20426,20443,20461,20461,20479,20479,20479,20496,20515,20516,20534,20534,20555,20573,20591,20592,20610,20626,20627,20643,20698,20771,20771,20826,20867,20938,20964,20983,21010,21022,21022,21098,21106,21144,21174,21174,21216,21216,21216,21217,21217,21218,21232,21233,21233,21233,21234,21234,21276,21276,21276,21277,21277,21316,21316,21317,21317,21317,21317,21318,21318,21318,21337,21338,21338,21338,21339,21339,21339,21340,21354,21355,21355,21374,21374,21395,21395,21395,21396,21414,21414,21414,21430,21459,21460,21489,21555,21555,21594,21650,21658,21723,21738,21757,21785,21785,21814,21814,21844,21845,21845,21883,21908,21908,21935,21966,21966,21995,21995,21995,22024,22025,22025,22053,22053,22083,22083,22084,22114,22114,22114,22141,22142,22142,22171,22175,22223,22224,22224,22224,22243,22243,22243,22244,22244,22244,22276,22276,22277,22277,22303,22304,22334,22334,22335,22365,22366,22366,22366,22393,22394,22394,22422,22422,22423,22423,22424,22453,22454,22454,22454,22483,22484,22484,22485,22485,22514,22514,22515,22515,22543,22543,22544,22576,22576,22577,22603,22603,22603,22604,22604,22633,22634,22634,22662,22662,22663,22693,22693,22693,22724,22724,22754,22754,22783,22784,22784,22813,22814,22843,22872,22872,22873,22905,22905,22906,22938,22939,22970,22971,22971,22999,22999,23000,23000,23031,23031,23062,23062,23063,23091,23092,23092,23092,23093,23093" d="m186.50346,215.88889c-1.7,0 -2.636,0 -3.48399,0c-0.86334,0 -1.89067,0 -2.83751,0c-0.69933,0 -1.6785,0 -2.48917,0c-0.87466,0 -1.87466,0 -2.71016,0c-0.58366,0 -1.77917,0 -2.67917,0c-0.60001,0 -1.8,0 -2.6955,0c-0.8685,0 -1.93784,0 -2.66534,0c-0.77249,0 -1.37917,0 -2.52449,0c-0.92534,0 -1.91467,0 -2.41333,0c-0.96535,0 -2.2155,0 -2.87717,0c-1.06334,0 -2.04567,0 -2.86017,0c-0.57468,0 -1.76401,0 -2.6595,0c-0.8685,0 -1.93784,0 -2.64284,0c-0.8,0 -1.85773,-0.06924 -2.783,0.22133c-0.69995,0.21982 -1.50192,0.68532 -2.37599,0.76801c-1.06232,0.10049 -1.66968,0.01067 -2.34433,0.01067c-1.07701,0 -2.13696,-0.00871 -2.80118,0.0045c-0.94684,0.01884 -2.1595,0.15076 -2.7585,0.2795c-0.92343,0.19847 -1.54907,0.40472 -2.56532,0.54933c-1.08064,0.15376 -1.83322,0.15245 -2.58067,0.16217c-1.08592,0.01411 -2.0955,0.0045 -2.73183,0.0045c-0.91951,0 -1.82101,0 -2.73151,0c-0.9465,0 -1.956,0 -2.67467,0c-0.75066,0 -1.52533,0 -2.316,0c-1.19866,0 -1.99866,0 -2.79867,0c-0.8,0 -2,0 -2.80267,0c-0.81866,0 -1.66933,0 -2.568,0c-0.96266,0 -1.99733,0 -2.53466,0c-1.09467,0 -1.644,0 -2.72667,0c-1.03467,0 -1.99866,0 -2.90667,0c-0.876,0 -1.744,0 -2.628,0c-0.91333,0 -1.82667,0 -2.7,0c-0.79333,0 -2.08936,0.32344 -2.75817,-0.05717c-0.69794,-0.39719 -1.33084,-1.02798 -2.02333,-1.66615c-0.55299,-0.50961 -1.04971,-1.60277 -1.1825,-2.246c-0.14161,-0.68591 -0.13248,-1.42233 -0.336,-2.864c-0.09692,-0.68657 -0.23483,-1.36383 -0.65217,-2.31934c-0.45512,-1.04201 -0.94792,-1.73346 -1.1865,-2.10451c-0.4921,-0.76532 -1.03064,-1.52504 -1.66133,-2.74283c-0.20393,-0.39375 -0.54466,-1.20569 -0.79166,-2.0625c-0.25991,-0.90158 -0.35488,-1.39059 -0.6415,-3.00166c-0.10464,-0.58817 -0.20384,-1.19717 -0.37933,-2.45667c-0.08898,-0.63861 -0.171,-1.27754 -0.2355,-1.91251c-0.18506,-1.82182 -0.20347,-2.39722 -0.23267,-2.95683c-0.05681,-1.08879 -0.06667,-1.62518 -0.13667,-2.6925c-0.07115,-1.08482 -0.19855,-2.20435 -0.27316,-2.77899c-0.076,-0.58539 -0.25279,-1.78511 -0.34734,-2.40001c-0.09612,-0.62511 -0.39651,-2.56018 -0.4955,-3.22766c-0.10103,-0.68118 -0.20133,-1.37848 -0.3,-2.09399c-0.10137,-0.73515 -0.20239,-1.49237 -0.3,-2.274c-0.20504,-1.64204 -0.3013,-2.50703 -0.4,-3.39867c-0.10133,-0.91534 -0.20077,-1.85193 -0.3,-2.8065c-0.10078,-0.96942 -0.20037,-1.95097 -0.3,-2.9415c-0.20075,-1.99593 -0.30063,-2.99559 -0.39867,-3.99333c-0.09763,-0.99359 -0.19272,-1.98116 -0.2805,-2.961c-0.08686,-0.96948 -0.16908,-1.92694 -0.2355,-2.871c-0.12921,-1.83662 -0.1675,-2.7272 -0.2,-3.59734c-0.03175,-0.84988 -0.0517,-1.67996 -0.0645,-2.49001c-0.01248,-0.78996 -0.01757,-1.56 -0.0195,-2.31c-0.00371,-1.44 -0.00134,-2.13 -0.00134,-2.8c0,-0.64999 0,-1.28 0,-1.89c0,-0.59 0,-1.15999 0,-1.70999c0,-1.04001 0,-1.53033 0,-2.00267c0,-0.45633 0,-1.32899 0,-2.16167c0,-1.209 0,-2.005 0,-2.77699c0,-0.72401 0.21354,-1.96478 -0.01067,-2.71335c-0.23241,-0.77596 -1.31066,-0.71866 -2.164,-0.71866c-0.94133,0 -1.71227,-0.05724 -2.68266,0.02133c-0.66582,0.05391 -1.78851,0.41484 -2.4615,0.68851c-0.7467,0.30363 -1.54405,0.65062 -1.96916,0.8075c-1.32384,0.48854 -2.26945,0.73352 -2.748,0.868c-0.97523,0.27403 -1.48497,0.37962 -2.964,0.948c-0.5061,0.19449 -1.50346,0.67441 -2,0.93867c-1.00719,0.53604 -1.50118,0.83498 -2,1.13066c-1.50309,0.89098 -1.99548,1.19554 -2.968,1.776c-0.46925,0.28008 -1.35903,0.80952 -1.776,1.05067c-1.39781,0.80844 -1.95412,1.13367 -2.75684,1.46165c-1.12306,0.45888 -1.81218,0.61388 -2.54083,0.80901c-0.76598,0.20512 -1.95785,0.50194 -2.75566,0.69867c-0.78087,0.19255 -1.52737,0.38159 -2.232,0.51599c-1.19372,0.22769 -2.11505,0.22768 -3.08667,0.28667c-0.77116,0.04681 -1.51687,0.40251 -2.4,0.71468c-0.84267,0.29787 -1.80534,0.284 -2.65867,0.284c-0.94,0 -1.82533,0 -2.62533,0c-0.9,0 -1.85148,-0.01184 -2.684,0.284c-0.70608,0.2509 -1.63164,0.62009 -2.61617,0.71617c-0.78604,0.07671 -1.53323,0.40219 -2.41583,0.71584c-0.83252,0.29584 -1.784,0.284 -2.684,0.284c-0.9,0 -1.80087,-0.0372 -2.6,0c-0.91764,0.04271 -1.26076,0.89522 -1.55267,1.65266c-0.33683,0.87402 -0.6555,1.67561 -1.14733,2.36816c-0.47644,0.67087 -0.49933,1.58183 -0.5,2.57918c-0.00053,0.79999 -0.00054,1.79866 0,2.564c0.00067,0.952 0.07144,1.72508 0.42533,2.672c0.21366,0.57169 0.46761,1.56749 0.6,2.364c0.16705,1.00508 0.53738,1.75761 0.85333,2.7785c0.21814,0.70482 0.69501,1.50665 1.22117,2.343c0.42365,0.6734 0.6948,1.26488 0.843,2.2785c0.11598,0.79329 -0.0619,1.81357 0.11433,2.74283c0.17729,0.93488 0.69666,1.53159 0.9175,2.4825c0.23213,0.99951 0.58562,1.64822 1.12533,2.49617c0.43259,0.67964 0.7256,1.26753 1.1955,2.2785c0.3676,0.79088 0.54456,1.60782 0.72533,2.42082c0.25779,1.15938 0.52162,1.67769 1,2.45834c0.47061,0.76797 1.11534,1.53467 1.5685,2.1355c0.64057,0.8493 1.04003,1.61533 1.244,2.552c0.16899,0.77603 0.12374,1.61937 0.33333,2.66666c0.14416,0.72035 0.53093,1.5656 0.93333,2.3665c0.39328,0.78276 0.9,1.6335 1.4,2.30017c0.5,0.66667 0.9017,1.35179 1.38533,2.18666c0.42827,0.73929 0.93918,1.54668 1.32533,2.08801c0.76686,1.07504 1.1769,1.54883 1.7685,2.18365c0.52579,0.56421 1.33607,1.24286 1.8195,2.011c0.47577,0.756 0.71015,1.52179 0.916,2.26266c0.30433,1.09531 0.50976,2.08807 0.78534,2.76801c0.33712,0.8318 0.49775,1.69548 0.5,2.60001c0.00224,0.89999 0,1.79999 0,2.709c0,1.02432 0,1.70082 0,2.47633c0,1.04799 0.0082,1.96803 0,2.728c-0.01042,0.966 -0.25063,1.95256 -1.10033,2.36533c-0.66103,0.32111 -1.66767,0.40533 -2.39967,0.62134c-0.732,0.216 -1.86782,0.37944 -2.70134,0.784c-0.72781,0.35324 -1.64309,0.60518 -2.31466,0.8c-1.00762,0.29231 -1.83107,0.75241 -2.584,1.13733c-0.7632,0.39017 -1.53595,0.77333 -2.384,0.77867c-0.86332,0.00543 -1.88608,-0.0993 -2.716,0.00133c-0.91976,0.11153 -1.45409,0.80855 -2.4,0.98801c-0.88429,0.16777 -1.83484,-0.23221 -2.6955,0.01517c-0.76789,0.22072 -1.24898,0.92183 -2.18717,0.99817c-0.8125,0.06612 -1.11615,0.8405 -1.684,1.664c-0.47306,0.68605 -1.0384,1.31168 -1.35417,1.91666c-0.54811,1.05014 -0.68931,1.75827 -0.87917,2.582c-0.10566,0.4584 -0.30374,1.46634 -0.4,2.01067c-0.31197,1.76407 -0.40006,2.38779 -0.4955,3.01584c-0.09522,0.62662 -0.27196,1.84904 -0.34733,2.43134c-0.19966,1.54234 -0.28395,2.36009 -0.32117,3.08217c-0.03757,0.72879 -0.03533,1.57066 -0.036,2.62799c-0.0004,0.63817 0,1.34534 0,2.1105c0,0.81216 0,1.66034 0,2.53349c0,0.88718 0,1.77734 0,3.52267c0,0.83466 0,1.63733 0,2.40601c0,0.73267 0,1.42734 0,2.69467c0,0.56866 0,1.99182 0,2.7135c0,0.83249 0,1.88599 0,2.70667c0,1.14581 0,1.93631 0,2.5c0,0.88049 0,2.07648 0,2.9375c0,0.771 0,1.72733 0,2.74298c0,0.68402 -0.03572,1.62463 0,2.63202c0.0286,0.80652 0.83644,1.30777 0.97917,2.1875c0.15338,0.94534 0.19187,1.79196 1.02083,1.97916c0.88386,0.19958 1.28906,0.91171 1.972,1.08398c1.03949,0.26221 1.80298,0.53699 2.86133,0.74936c0.69951,0.14038 1.50499,0.16434 2.54133,0.16666c0.9465,0.00214 1.81156,-0.05051 2.57467,0.42532c0.6727,0.41946 1.31697,0.55267 2.472,0.79602c0.81165,0.17099 1.34171,0.40665 2.412,0.612c0.92296,0.17706 1.76596,0.13531 2.76667,0.17114c0.80122,0.02869 1.80435,0.27634 2.44167,0.51636c0.73097,0.2753 1.92501,0.67917 2.59834,0.87915c0.67334,0.20001 1.87134,0.57684 2.493,0.89551c0.76329,0.39127 1.72381,0.68283 2.38583,0.70001c1.12413,0.02917 1.80539,-0.00296 2.5645,0.04614c0.84138,0.05444 2.25206,0.2825 2.759,0.40118c1.05866,0.24786 1.59026,0.40811 2.635,0.74249c0.50462,0.1615 1.85796,0.64297 2.58133,0.92801c0.86038,0.33902 1.52513,0.65317 2.54583,0.83398c0.84598,0.14984 1.82117,0.25891 2.6315,0.48868c0.57784,0.16385 1.76226,0.56931 2.364,0.76266c0.89748,0.28842 1.79375,0.55502 2.70016,0.67984c0.90595,0.12473 1.53581,0.1149 2.8665,0.12149c0.71732,0.00354 1.45918,-0.00156 2.208,0.03601c0.74204,0.0372 2.14595,0.24081 2.82133,0.39999c0.70348,0.1658 1.45513,0.38126 2.768,0.66382c0.48676,0.10477 1.51139,0.29318 2.036,0.37933c1.04083,0.17093 2.49957,0.35858 2.93533,0.39951c1.14498,0.10754 1.80788,0.07693 2.898,0.28799c0.72438,0.14023 1.60629,0.54459 2.58833,0.71185c0.81763,0.13928 1.42497,0.11493 2.745,0.12149c0.71732,0.00357 1.45918,-0.00156 2.208,0.03601c0.74204,0.0372 2.14376,0.22913 2.77866,0.39999c0.89306,0.24033 1.92017,0.67654 2.62134,0.95334c0.67326,0.26578 1.64423,0.51639 2.45066,0.57465c0.82047,0.05927 2.08933,0.03601 2.75384,0.03601c1.02083,0 1.91215,-0.21426 2.85416,0.33334c0.64735,0.37631 0.9752,1.26233 1.81934,1.55234c0.8233,0.28284 1.86819,0.1069 2.89017,0.11447c0.71856,0.00531 1.5219,-0.00967 2.53567,0.22119c0.69735,0.15878 1.50958,0.54681 2.52599,0.72598c0.84611,0.14914 1.81733,0.27338 2.64217,0.478c0.60012,0.1489 1.9187,0.42023 2.63467,0.49066c0.72156,0.07098 1.44068,-0.0061 2.61866,0.25067c0.82397,0.1796 1.66087,0.69992 2.37867,0.80801c0.75005,0.11298 1.78887,0.18573 2.66267,0.31067c1.00372,0.14349 1.54201,0.2355 2.10133,0.32532l1.16267,0.19067" id="svg_5" stroke-width="2" stroke="#000" fill="none"/>
  <path t="25308,25443,25451,25470,25470,25488,25488,25488,25488,25500,25500,25500,25500,25500,25500,25518,25518,25518,25518,25518,25518,25538,25538,25538,25538,25538,25538,25563,25563,25563,25563,25563,25584,25584,25584,25584,25584,25606,25606,25629,25630,25706,25755,25763,25778,25793,25815,25815,25827,25827,25848,25848,25869,25869,25893,25894,25915,25915,25915,25915,25915,25927,25927,25927,25927,25927,25946,25946,25946,25946,25958,25958,25958,25958,25959,25971,25972,25972,25972,25987,25987,25987,26000,26000,26018,26034,26035,26035,26052,26052,26068,26088,26088,26100,26100,26100,26117,26117,26118,26134,26150,26150,26167,26167,26184,26185,26202,26202,26202,26218,26218,26235,26235,26251,26251,26268,26268,26285,26303,26303,26328,26336,26351,26351,26367,26384,26385,26400,26400,26418,26435,26435,26451,26472,26499" d="m468.50348,317.88889c0.03598,2.58932 0.52191,3.34827 0.91733,4.20267c0.33951,0.73352 0.65546,1.57077 0.95465,2.10132c0.35187,0.62393 0.75806,1.3425 1.328,2.66034c0.21021,0.48605 0.60162,1.53244 0.80002,2.07733c0.20163,0.55377 0.59576,1.67853 1,2.79169c0.39322,1.08282 0.59549,1.60788 0.77866,2.13065c0.35818,1.02228 0.68649,2.02686 0.888,3.03601c0.19812,0.99222 0.23859,1.49426 0.29166,2.47916c0.05188,0.96283 0.04034,1.43552 0.04169,2.79968c0.00085,0.87299 0,1.742 0,2.63098c0,0.4595 0,1.93234 0,2.45419c0,1.05466 0,1.57349 0,2.55914c0,1.2435 0,2.091 0,3.07684c0,0.79999 0.01682,1.70016 0,2.60001c-0.01801,0.96451 -0.71329,1.29868 -1.52084,1.42084c-0.98792,0.14944 -1.72879,0.54547 -2.45767,1.30032c-0.435,0.45047 -0.9726,1.50024 -1.77866,1.66983c-0.88077,0.1853 -1.64734,0.009 -2.64551,0.009c-0.86932,0 -1.93082,0.01059 -2.56934,-0.004c-0.71103,-0.01624 -1.49576,-0.0542 -2.31601,-0.25201c-1.35535,-0.32687 -1.7999,-0.58459 -2.72665,-1.01999c-0.92941,-0.43665 -1.34964,-0.72934 -2.65201,-1.224c-0.75089,-0.28519 -1.48441,-0.37573 -2.48151,-0.65799c-1.03375,-0.29263 -1.74503,-0.67975 -2.46649,-1.13934c-0.37009,-0.23575 -1.09195,-0.73877 -2.052,-1.53601c-0.83365,-0.69226 -1.29672,-1.14063 -1.93066,-1.76532c-0.80652,-0.79477 -1.42365,-1.35706 -1.832,-2.00134c-0.47818,-0.75446 -0.48956,-1.7468 -0.57516,-2.64734c-0.08835,-0.92932 -0.47452,-1.57037 -0.71149,-2.354c-0.29514,-0.97604 -0.28333,-1.91333 -0.284,-2.77332c-0.00073,-0.94699 0,-1.66699 0,-2.79199c0,-0.78601 0,-1.608 0,-2.66669c0,-0.70499 -0.17514,-1.69986 0.02081,-2.64581c0.18079,-0.87271 0.80133,-1.39304 1.27917,-2.17352c0.41855,-0.68362 1.03998,-1.57257 1.39999,-2.15717c0.56708,-0.92078 0.75552,-1.72647 1.18533,-2.42215c0.5235,-0.84735 1.27423,-1.35107 2.23068,-1.68533c0.6279,-0.21942 1.52414,-0.80316 2.05865,-1.23199c0.78607,-0.63065 1.67426,-0.86163 2.32535,-1.37152c0.76788,-0.60135 1.24567,-1.34009 1.89999,-1.8685c0.74515,-0.60175 1.66296,-0.88965 2.29999,-1.258c0.8576,-0.49591 1.40421,-1.0065 2.05716,-1.64734c0.64398,-0.63202 1.59781,-0.59244 2.48569,-0.70981c0.87653,-0.11588 1.55716,-0.71152 2.39999,-1.04819l0.52649,-0.66333l0.8515,-0.26315" id="svg_6" stroke-width="2" stroke="#000" fill="none"/>
  <path t="27027,27187,27195,27195,27212,27212,27229,27229,27229,27236,27236,27236,27250,27251,27251,27272,27272,27272,27272,27285,27285,27285,27285,27285,27285,27301,27301,27301,27301,27322,27322,27322,27322,27344,27345,27345,27345,27345,27358,27359,27359,27359,27359,27370,27370,27370,27370,27371,27371,27371,27384,27384,27384,27384,27384,27385,27416,27416,27416,27416,27416,27416,27434,27434,27434,27434,27434,27434,27434,27434,27434,27450,27450,27450,27450,27450,27450,27450,27466,27467,27467,27467,27467,27483,27483,27483,27484,27484,27484,27484,27516,27517,27517,27517,27517,27517,27517,27517,27551,27552,27552,27552,27552,27552,27552,27552,27552,27583,27583,27583,27583,27583,27584,27584,27584,27584,27616,27616,27616,27616,27617,27617,27617,27617,27617,27650,27650,27650,27650,27650,27650,27650,27650,27650,27667,27667,27667,27667,27667,27668,27668,27668,27668,27699,27700,27700,27700,27700,27700,27700,27700,27700,27717,27717,27717,27718,27718,27718,27718,27718,27749,27749,27783,27783,27783,27802,27802,27802,27828,27828,27866,27866,27883,27922,27939,27956,27956,27987,27987,28003,28019,28046,28075,28075,28115,28123,28139,28155,28181,28242,28243" d="m473.50348,356.88889c-2.62534,0.03601 -3.54993,0.18478 -4.13867,0.64667c-0.72028,0.56506 -0.79962,1.659 -1.52567,2.33182c-0.54364,0.50375 -1.3956,0.70804 -2.41434,1.12134c-0.69855,0.28339 -1.36038,0.60843 -2.34283,0.77869c-0.80695,0.13986 -1.68301,0.11508 -2.879,0.12164c-0.61301,0.00336 -1.60858,0.02173 -2.3555,0.08517c-1.31036,0.1113 -1.79633,0.19641 -2.82001,0.34c-0.52414,0.07352 -1.5654,0.22665 -2.07199,0.29068c-1.38611,0.1752 -2.18451,0.23807 -2.91034,0.26315c-1.02258,0.03534 -2.06332,0.02084 -2.80334,0.02084c-0.78,0 -1.59998,0 -2.905,0c-0.91733,0 -1.38599,0 -2.33331,0c-0.94736,0 -2.33334,0 -2.77884,0c-0.87302,0 -1.742,0 -2.63101,0c-1.42349,0 -1.93298,0 -3,0c-0.55148,0 -1.11099,0 -2.242,0c-0.56549,0 -2.22665,0 -2.76282,0c-1.04935,0 -1.56451,0 -2.58084,0c-0.50317,0 -2.00549,0 -3.03149,0c-0.53702,0 -1.09799,0 -2.31601,0c-0.66901,0 -2.15698,0.00049 -2.98483,-0.00015c-0.87482,-0.00067 -1.78366,-0.00238 -2.7135,-0.01053c-0.93787,-0.00821 -1.87076,-0.02133 -2.78549,-0.04648c-0.88397,-0.02429 -2.50711,-0.10199 -3.22266,-0.16434c-0.65381,-0.05698 -1.25128,-0.1293 -1.79852,-0.21451c-0.50711,-0.07895 -1.42151,-0.26434 -2.65198,-0.564c-0.80469,-0.19595 -1.62964,-0.40176 -2.50803,-0.564c-0.46234,-0.08539 -1.99161,-0.27402 -2.5563,-0.315c-1.202,-0.08725 -1.83334,-0.11246 -2.47736,-0.16266c-0.65469,-0.05103 -1.9856,-0.17078 -3.29166,-0.45834c-0.6506,-0.14325 -1.28748,-0.34692 -1.923,-0.5625c-0.64191,-0.21774 -1.93924,-0.70248 -2.61066,-0.93668c-0.68591,-0.23926 -2.13034,-0.67847 -2.89767,-0.858c-0.7901,-0.18484 -1.61035,-0.33859 -2.45401,-0.48148c-0.86371,-0.14627 -1.74924,-0.27667 -2.65198,-0.40952c-0.91858,-0.13516 -2.79678,-0.41391 -3.75085,-0.57367c-0.96463,-0.16153 -1.93689,-0.3382 -2.91449,-0.53549c-0.98608,-0.19901 -1.97653,-0.41766 -2.96851,-0.6615c-0.99875,-0.24548 -2.9982,-0.80588 -3.99548,-1.12433c-1.00281,-0.32019 -2.00259,-0.66867 -3,-1.03952c-1.00266,-0.3728 -2.00229,-0.76913 -3,-1.1835c-1.00232,-0.41629 -3.00131,-1.29764 -3.99966,-1.75482c-0.99899,-0.45749 -1.99091,-0.92361 -2.979,-1.383c-0.97925,-0.45526 -1.94711,-0.90366 -2.90701,-1.32901c-0.94153,-0.41721 -2.77798,-1.17514 -3.67032,-1.5025c-0.86249,-0.31641 -1.70172,-0.59592 -2.50803,-0.85648c-0.76843,-0.24832 -1.49963,-0.47296 -2.18399,-0.69452c-0.63828,-0.20663 -1.75656,-0.60303 -2.22318,-0.81351c-0.42252,-0.19058 -0.79495,-0.39246 -1.12347,-0.59998c-0.30566,-0.19308 -0.57947,-0.39728 -0.83551,-0.60001c-0.24927,-0.19736 -0.73538,-0.60144 -0.99084,-0.80002c-0.25919,-0.20145 -0.52377,-0.39853 -0.78299,-0.59998c-0.25546,-0.19855 -0.51266,-0.38495 -0.729,-0.60001c-0.75513,-0.75064 -0.88364,-1.66647 -1.40033,-2.43335c-0.43094,-0.63962 -1.14114,-0.90561 -2.08783,-1.48798c-0.80069,-0.49255 -1.33734,-0.82629 -2.24551,-1.51202c-0.67667,-0.51093 -1.42621,-1.09125 -1.89734,-1.76666c-0.51169,-0.73358 -0.43597,-1.69998 -0.43597,-2.60132c0,-0.96533 0,-1.79868 0,-2.63202c0,-0.86215 -0.00531,-1.76669 0,-2.66666c0.00534,-0.90005 0.34653,-1.80963 0.80133,-2.29999c0.66263,-0.71442 1.0802,-1.54697 1.62399,-2.17468c0.57251,-0.66086 1.42532,-1.01065 2.24133,-1.35867l0.3125,-0.66666" id="svg_7" stroke-width="2" stroke="#000" fill="none"/>
  <path t="29852,29987,29995,29996,30010,30010,30010,30025,30026,30026,30037,30037,30037,30037,30052,30052,30052,30052,30052,30052,30069,30069,30069,30084,30084,30084,30084,30101,30101,30101,30228,30237,30254,30254,30268,30268,30284,30284,30284,30284,30301,30301,30301,30317,30317,30317,30333,30333,30333,30350,30350,30350,30367,30383,30400,30400,30429,30429,30435,30435,30467,30483,30515,30547,30571,30571,30611,30627,30787,30795,30811,30824,30838,30851,30851,30868,30884,30884,30901,30901,30901,30919,30919,30936,30937,30951,30968,30968,30968,30968,30984,30984,30984,31003,31003,31003,31019,31020,31020,31020,31034,31034,31035,31035,31051,31051,31051,31052,31068,31068,31068,31068,31084,31084,31084,31084,31084,31101,31101,31118,31118,31118,31134,31134,31134,31134,31151,31152,31170,31170,31184,31185,31185,31201,31218,31218,31234,31234,31251,31419,31445,31463,31469,31469,31483,31500,31500,31517,31517,31533,31550,31550,31567,31583,31583,31600,31600,31627,31699,31716,31741,31756,31756,31771,31771,31787,31787,31800,31818,31818,31833,31833,31834,31850,31851,31851,31851,31851,31867,31867,31868,31868,31868,31883,31883,31884,31884,31884,31884,31900,31900,31900,31901,31901,31901,31918,31918,31918,31935,31935,31935,31950,31950,31950,31967,31968,31968,31983,31983,32000,32000,32018,32018,32019,32019,32033,32034,32034,32050,32051,32051,32051,32067,32067,32067,32083,32083,32100,32117,32139,32139,32140,32155,32156,32171" d="m480.50348,242.88889c0,1.75717 0,2.66167 0,3.46167c0,0.95966 0,1.76366 0,2.58566c0,1.03149 -0.00006,1.9735 0,2.722c0.00009,0.87399 0.00363,1.92426 0.03598,2.724c0.0174,0.43018 0.12274,1.84096 0.24802,2.87199c0.06458,0.53152 0.21606,1.59302 0.29065,2.112c0.14142,0.98401 0.29648,2.23773 0.37717,2.8985c0.09998,0.81873 0.36584,1.7984 0.75351,2.58133c0.42691,0.86218 0.819,1.41736 1.12399,2.64017c0.1427,0.57214 0.16617,1.38831 0.17068,2.57935c0.00064,0.16599 0,-0.66199 0,-1.58118c0,-0.99683 0,-1.61633 0,-2.76215c0,-0.7905 0,-1.64401 0,-2.23468c0,-1.19867 0,-2.09866 0,-2.69867c0,-1.19983 0,-2.08932 0,-2.94284c0,-1.03583 0,-1.73181 0,-2.64116c0,-0.99866 0,-1.79517 0,-2.54666c0,-1.09734 0,-1.97067 0,-2.936c0,-0.83333 0,-1.812 0,-2.586c0,-0.89999 0,-1.76334 0,-2.7265c0,-0.82083 0.22964,-1.75072 -0.00034,-2.62067c-0.22891,-0.86594 -1.21075,-0.83098 -1.97885,-1.40016c-0.6575,-0.48723 -0.73511,-1.46094 -1.1875,-2.16667c-0.48709,-0.75984 -1.18903,-1.30473 -2.03333,-1.33333c-0.89966,-0.03047 -1.68533,0 -2.62534,0c-1.008,0 -1.69553,-0.00749 -2.71732,0.00017c-0.70807,0.00531 -1.72287,-0.0143 -2.64752,0.35249c-0.72693,0.28836 -1.63504,0.61389 -2.32584,0.64601c-1.00467,0.04671 -1.81787,0.33363 -2.49832,0.70667c-0.80768,0.44278 -1.35815,0.83287 -2.58435,1.12399c-0.86581,0.20557 -1.71597,0.16933 -2.71866,0.17067c-0.70349,0.00093 -1.45203,-0.00734 -2.65332,0.00133c-0.70135,0.00505 -1.45218,0.01508 -2.23199,0.084c-1.20023,0.10608 -1.99542,0.26004 -2.77652,0.4355c-0.76636,0.17213 -1.85281,0.48386 -2.86816,0.77467c-0.65179,0.18668 -1.29721,0.40057 -2.67416,0.58316c-0.73245,0.09712 -1.50015,0.11038 -2.28299,0.17401c-1.19696,0.09727 -1.99411,0.2244 -2.77417,0.37267c-0.75061,0.14267 -1.44601,0.32101 -2.65067,0.49066c-0.94629,0.13326 -1.7713,0.24866 -2.59201,0.50934c-0.69354,0.22029 -1.81973,0.47012 -2.47949,0.51749c-1.01099,0.07257 -1.64584,0.0565 -2.83667,0.05717c-0.82916,0.00046 -1.87433,-0.02782 -2.64783,0.036c-1.05255,0.08684 -1.74832,0.32977 -2.55301,0.61134c-0.89948,0.31473 -1.71274,0.66153 -2.41882,1c-0.85034,0.40762 -1.75888,0.34636 -2.72202,0.35266c-0.91019,0.00597 -1.51041,0.52065 -1.52081,1.41066c-0.01065,0.91061 0,1.76401 0,2.70401c0,0.88533 0,1.6425 0,2.53799c0,0.86334 0,1.84734 0,2.83133c0,0.69066 -0.01147,1.76341 0,2.68266c0.01041,0.83353 0.1846,1.65729 0.57465,2.42267c0.40836,0.80127 0.2251,1.73355 0.42667,2.60934c0.18546,0.80576 1.32428,0.74341 1.99869,0.82217c0.99225,0.11591 1.7236,0.73709 2.65265,0.922c0.68326,0.13599 1.72211,0.04324 2.66885,0.05731c0.69952,0.01041 1.68335,0.15192 2.5105,0.43585c0.74411,0.25543 1.66464,0.57718 2.42267,0.76266c0.8392,0.20535 1.74011,0.37271 2.20166,0.44415c1.37375,0.21262 2.26038,0.28394 3.129,0.32117c0.87558,0.03754 1.32449,0.03375 2.74799,0.03601c1.03601,0.00162 1.57651,0 2.6875,0c0.56451,0 1.13101,0 2.8125,0c0.54483,0 1.60049,0 2.10934,0c0.97467,0 1.88535,0 3.11417,0c0.72433,0 1.68582,0 2.77649,0c0.71402,0 1.392,0 2.58801,0c0.80399,0 1.62601,0 2.65717,0c0.68549,0 1.52017,0 2.52148,0c0.80002,0 1.80267,0 2.672,0c1.06134,0 1.69601,0 2.72803,0c0.69464,0 1.66666,0 2.49466,0c1.01065,0 1.83865,0 2.81067,0c0.69467,0 1.72665,0 2.65167,0c0.771,0 1.64032,0 2.63849,0c0.91916,0 1.88367,0 2.7135,0c1.02432,0 1.69632,0 2.44034,0l1.10767,0l0.94034,0l0.90265,0" id="svg_8" stroke-width="2" stroke="#000" fill="none"/>
  <path t="32830,32867,32884,32884,32884,32902,32920,32920,32950,32950,32967,32967,32967,32983,32983,32983,33004,33004,33019,33019,33059,33083,33259,33275,33276,33304,33335,33335,33335,33335,33369,33369,33369,33369,33369,33370,33402,33402,33402,33402,33402,33403,33436,33436,33436,33436,33436,33436,33436,33436,33453,33453,33453,33453,33453,33453,33453,33476,33476,33476,33476,33491,33491,33507,33534,33534,33551,33551,33567,33568,33584,33584,33600,33601,33601,33618,33618,33634,33650,33651,33651,33675,33676,33707,33939,33948,33970,34000,34000,34018,34018,34019,34019,34034,34034,34050,34050,34068,34099,34196,34252,34277,34277,34286,34300,34317,34333,34333,34350,34350,34367,34367,34383,34383,34400,34400,34417,34417,34433,34433,34433,34433,34450,34450,34450,34467,34468,34468,34484,34484,34500,34501,34501,34517,34517,34517,34548,34548,34567,34567,34567,34583,34583,34583,34583,34600,34600,34600,34676,34732,34757" d="m393.50348,261.88889c0,-1.672 0,-2.76801 0,-3.5c0,-0.73199 0,-1.83865 0,-2.82133c0,-0.67867 0,-1.6575 0,-2.48849c0,-0.96083 0,-1.73184 0,-2.59283c0,-0.89717 0,-1.78667 0,-2.64017c0,-1.03551 0,-1.9155 0,-2.93567c0,-0.82016 0.02133,-1.72176 0,-2.62151c-0.02084,-0.87991 -0.7084,-1.37012 -1.51733,-1.39867c-0.86746,-0.03062 -1.81628,-0.01564 -2.78668,0.00934c-0.62564,0.0161 -1.35654,0.05798 -2.66034,0.21083c-0.49109,0.05757 -1.53336,0.21213 -2.07733,0.29933c-1.11545,0.1788 -1.67755,0.27751 -3.33716,0.57901c-0.5387,0.09785 -1.60605,0.29231 -2.142,0.37933c-0.54004,0.08768 -1.64697,0.25145 -2.8125,0.35416c-0.60916,0.05368 -1.88544,0.1153 -2.54935,0.14134c-0.67975,0.02666 -1.37473,0.04895 -2.0835,0.078c-0.72189,0.02959 -2.20132,0.10385 -3.71115,0.23132c-0.7533,0.0636 -1.49481,0.14001 -2.21851,0.216c-0.69894,0.07338 -1.36465,0.15689 -3.10416,0.33333c-0.47076,0.04774 -1.58359,0.14427 -2.37302,0.16217c-0.82663,0.01874 -1.79099,0.0045 -2.74167,0.0045c-0.88531,0 -1.64249,0 -2.54248,0c-0.74734,0 -1.74286,0.00006 -2.54285,0c-1,-0.00009 -1.81573,0.0625 -2.79999,-0.16667c-0.81888,-0.19067 -1.58554,-0.62642 -2.59552,-0.77617c-0.74106,-0.10988 -1.78983,-0.05716 -2.73782,-0.05716c-0.672,0 -1.66135,0 -2.69601,0c-0.76797,0 -1.46542,-0.67671 -1.97064,-0.528c-0.89023,0.26202 -0.11459,1.87025 0.2215,2.62849c0.29236,0.65956 0.87888,1.66342 1.08298,2.25751c0.33185,0.96588 0.45383,1.67836 1.1795,2.586c0.44589,0.55768 1.48355,0.92439 2.06934,1.65601c0.56204,0.70195 0.27896,1.71603 0.448,2.59866c0.14511,0.75774 1.02991,1.13823 1.79868,1.51733c0.84521,0.41681 1.81882,0.12051 2.70001,0.30482c0.85587,0.17903 1.4563,0.77513 2.50531,0.92201c0.73828,0.10336 1.66135,0.05716 2.60934,0.05716c0.87067,0 1.59619,-0.01831 2.58517,0.00015c0.96466,0.01801 1.75034,0.28708 2.4975,0.57452c1.03543,0.39835 1.66904,0.38474 2.69867,0.41464c0.72241,0.02097 1.78232,0.01068 2.75732,0.01068c0.60001,0 1.67999,0 2.61066,0c0.83469,0 1.84052,0 2.47202,0c1.18533,0 1.98932,0 2.81134,0c1.03116,0 1.71664,0 2.55133,0c1.00583,0 1.85849,0 2.823,0c0.82498,0 1.73999,0 2.745,0c0.716,0 1.448,0 2.5235,0c0.9765,0 1.79099,0 2.64368,0l1.03015,0l0.836,0l0.89999,0" id="svg_9" stroke-width="2" stroke="#000" fill="none"/>
  <path t="37026,37107,37123,37134,37150,37150,37167,37167,37167,37167,37183,37183,37183,37183,37200,37200,37200,37200,37200,37217,37217,37217,37217,37217,37217,37233,37234,37234,37234,37234,37234,37234,37234,37250,37250,37250,37250,37250,37250,37250,37250,37250,37267,37267,37267,37267,37267,37267,37267,37267,37267,37283,37283,37284,37284,37284,37284,37284,37284,37284,37300,37300,37300,37300,37301,37301,37301,37301,37301,37316,37316,37316,37317,37317,37317,37317,37317,37317,37333,37333,37333,37333,37333,37333,37333,37333,37333,37351,37351,37351,37351,37351,37351,37351,37351,37351,37396,37397,37397,37397,37397,37397,37397,37397,37397,37438,37438,37439,37439,37439,37439,37439,37439,37439,37481,37481,37481,37481,37481,37482,37482,37482,37482,37610,37610,37610,37610,37610,37611,37611,37611,37611,37627,37627,37627,37627,37627,37628,37628,37628,37628,37662,37663,37663,37663,37663,37663,37663,37663,37710,37710,37710,37710,37751,37751,37751,37752,37752,37752,37752,37752,37794,37794,37795,37795,37795,37795,37795,37795,37795,37836,37837,37837,37837,37837,37837,37837,37837,37838,37879,37879,37879,37879,37879,37879,37880,37880,37880,37921,37921,37921,37922,37922,37922,37922,37962,37963,38218,38218,38242,38278,38293,38294,38294,38294,38294,38294,38318,38318,38319,38319,38319,38319,38334,38334,38334,38334,38335,38335,38335,38335,38335,38356,38356,38356,38356,38357,38357,38357,38375,38375,38375,38375,38375,38376,38376,38376,38376,38394,38394,38394,38394,38395,38395,38413,38413,38413,38413,38413,38432,38433,38433,38434,38453,38454,38454,38454,38454,38475,38475,38475,38475,38476,38493,38494,38494,38494,38494,38494,38494,38495,38512,38513,38513,38513,38514,38514,38514,38531,38531,38532,38532,38532,38532,38554,38554,38554,38554,38554,38555,38555,38555,38573,38574,38574,38574,38574,38674,38674,38674,38706,38714,38714,38728,38747,38766,38767,38787,38788,38788,38808,38809,38809,38809,38809,38810,38827,38828,38828,38828,38828,38847,38847,38847,38847,38847,38848,38867,38867,38867,38867,38868,38868,38888,38888,38888,38889,38889,38889,38890,38909,38910,38910,38910,38910,38929,38929,38929,38929,38930,38930,38948,38949,38949,38949,38967,38968,38968,38988,38988,39010,39010,39029,39029,39048,39048,39071,39071,39089,39089,39090,39110,39110,39129,39129,39148,39149,39149,39168,39168,39169,39169,39170,39189,39189,39189,39189,39210,39211,39211,39211,39212,39212,39229,39229,39230,39230,39230,39230,39231,39248,39248,39249,39249,39250,39267,39267,39289,39308,39309,39329,39330,39347,39348,39348,39367,39367,39367,39389,39389,39389,39390,39390,39410,39410,39410,39411,39411,39411,39428,39429,39429,39429,39448,39448,39449,39449,39450,39450,39468,39468,39468,39468,39469,39490,39491,39491,39491,39492,39510,39510,39510,39531,39532,39532,39532,39549,39550,39550,39569,39570,39570,39590,39591,39612,39613,39613,39635,39635,39635,39636,39664,39665,39683,39684,39710,39710,39729,39730,39730,39750,39750,39751,39770,39770,39791,39813,39813,39814,39832,39832,39833,39851,39852,39875,39875,39894,39895,39895,39926,39926,39987" d="m103.50346,215.88889c0,-1.7 0,-2.60001 0,-3.5c0,-0.94267 0,-1.64133 0,-2.83867c0,-0.784 0,-1.632 0,-2.065c0,-1.263 -0.0164,-2.02881 0.02084,-3.09633c0.02461,-0.70584 0.13544,-1.83487 0.2645,-2.67067c0.13946,-0.90314 0.23162,-1.37175 0.41917,-2.33833c0.28952,-1.49217 0.39626,-1.99101 0.5955,-2.9955c0.10038,-0.50609 0.30138,-1.53123 0.4,-2.05267c0.30425,-1.6087 0.40208,-2.16463 0.5,-2.73349c0.20435,-1.18726 0.30202,-1.8132 0.4,-2.464c0.1021,-0.67818 0.20667,-1.38715 0.39999,-2.912c0.10375,-0.81839 0.20097,-1.67072 0.3045,-2.54849c0.10579,-0.89688 0.21325,-1.80606 0.3315,-2.7195c0.1181,-0.91223 0.22869,-1.81812 0.53067,-3.56534c0.14494,-0.83861 0.31564,-1.6553 0.4905,-2.46451c0.17579,-0.81348 0.36551,-1.63925 0.5535,-2.49149c0.19576,-0.88742 0.40881,-1.81924 0.78933,-3.87733c0.21004,-1.13602 0.40308,-2.34218 0.60001,-3.6015c0.20318,-1.29935 0.40015,-2.62766 0.6,-3.9705c0.20015,-1.34482 0.38957,-2.6803 0.8,-5.26134c0.19505,-1.22662 0.39693,-2.4072 0.60001,-3.5475c0.19703,-1.10637 0.39812,-2.18201 0.6,-3.2325c0.19817,-1.03117 0.39935,-2.04678 0.8,-4.05333c0.19968,-1.00006 0.4,-2 0.60001,-3c0.2,-1 0.39999,-2 0.6,-3c0.2,-1 0.39996,-2.00002 0.8,-4c0.19998,-0.99983 0.39972,-1.99873 0.60001,-2.9955c0.19971,-0.9939 0.39941,-1.9838 0.6,-2.96851c0.19942,-0.97895 0.3967,-1.95135 0.8,-3.86933c0.19871,-0.94501 0.39803,-1.87839 0.609,-2.796c0.20777,-0.90372 0.42417,-1.78964 0.663,-2.652c0.23402,-0.84501 0.45902,-1.67623 1.06133,-3.21867c0.29073,-0.74451 0.63232,-1.45712 0.981,-2.1645c0.35261,-0.71535 0.73122,-1.43771 1.10699,-2.19151c0.39174,-0.78582 0.81717,-1.60767 1.57867,-3.47733c0.41922,-1.02929 0.80428,-2.13412 1.18201,-3.2835c0.38515,-1.17198 0.74303,-2.35995 1.074,-3.54449c0.32352,-1.15791 0.63354,-2.27445 1.07733,-4.33867c0.19421,-0.90336 0.33485,-1.72796 0.438,-2.4765c0.09329,-0.67703 0.15215,-1.29388 0.186,-1.8555c0.0309,-0.51283 0.03999,-0.98532 0.04266,-1.83466c0.00122,-0.39001 0,-0.76 0,-1.11c0,-0.33 0,-0.64 0,-0.93c0,-0.27 -0.00019,-0.52 0,-0.96c0.00008,-0.19034 -0.00047,-0.36272 0.0045,-0.519c0.00452,-0.1424 0.01268,-0.27319 0.0315,-0.393c0.01774,-0.11293 0.03753,-0.22381 0.13067,-0.42133c0.04867,-0.10321 0.11666,-0.20178 0.186,-0.3045c0.07198,-0.10664 0.14936,-0.21504 0.22201,-0.3315c0.07477,-0.11987 0.26845,-0.52859 0.42133,-1.27467c0.18272,-0.89168 0.23453,-1.29458 0.66867,-2.83984c0.18256,-0.64975 0.40771,-1.35084 0.65399,-2.10149c0.26086,-0.7951 0.54562,-1.62399 0.85201,-2.4795c0.31487,-0.87921 0.99246,-2.66991 1.35083,-3.56884c0.36028,-0.90375 0.73453,-1.80914 1.1145,-2.721c0.3837,-0.92081 0.77586,-1.85017 1.1685,-2.793c0.39804,-0.95583 1.19865,-2.91776 1.595,-3.9275c0.39969,-1.01825 0.78967,-2.04 1.1685,-3.0555c0.37212,-0.99752 0.72661,-1.97107 1.0605,-2.9115c0.31798,-0.89562 0.87462,-2.52348 1.10699,-3.24067c0.21133,-0.65225 0.39574,-1.24953 0.5565,-1.7985c0.14801,-0.50544 0.27766,-0.97689 0.3945,-1.4205c0.11108,-0.42175 0.31267,-1.23171 0.41367,-1.631c0.10034,-0.39671 0.20084,-0.78799 0.3105,-1.1685c0.10678,-0.37049 0.21069,-1.14095 0.91049,-2.1675c0.41896,-0.61458 1.17412,-1.40424 1.72701,-1.90733c0.6161,-0.56062 1.556,-0.35717 2.78517,-0.35717c0.79199,0 1.24799,0 2.25,0c0.534,0 1.638,-0.00137 2.75,0c1.08665,0.00134 1.62794,-0.00391 2.72916,0.04167c0.57115,0.02364 1.16631,0.03489 3.10417,0.29166c0.72066,0.09549 1.47003,0.23217 2.244,0.3765c0.79141,0.14758 1.58969,0.30923 2.388,0.4755c0.79103,0.16475 1.56506,0.33319 3.03467,0.648c0.68103,0.14589 1.32936,0.28253 1.95149,0.414c1.1944,0.2524 1.78098,0.37584 2.36867,0.50533c1.84801,0.4072 2.51059,0.56882 3.19983,0.73c0.70909,0.16582 1.43269,0.3349 2.16751,0.4965c0.73853,0.16241 1.47658,0.32052 2.21249,0.4515c1.43016,0.25454 2.79158,0.40458 3.43883,0.4595c0.62349,0.05291 1.79884,0.11931 2.34734,0.158c1.48155,0.1045 2.32965,0.21915 3.08318,0.38784c0.70529,0.15789 1.37579,0.3755 2.41882,0.66383c0.73373,0.20283 1.49565,0.39813 2.283,0.543c1.1906,0.21906 1.99617,0.28406 2.80617,0.32117c0.82486,0.03779 1.67467,0.03235 3.01117,0.03617c0.94434,0.0027 1.43571,0.00293 2.46083,0.03583c0.5363,0.01721 2.25096,0.12754 2.86017,0.18533c0.6268,0.05946 1.267,0.13134 2.578,0.27867c0.66449,0.07467 1.33054,0.15196 1.99649,0.216c1.31516,0.12647 2.59587,0.20199 3.22101,0.22683c0.61487,0.02444 1.81497,0.04797 2.39999,0.05267c0.57498,0.00461 2.24066,0.0045 2.78033,0.0045c1.07733,0 1.623,0 2.74834,0c0.58766,0 1.83299,0 2.49683,0c1.38966,0 2.1015,0 2.81534,0c0.70883,0 1.40567,0 2.0835,0c1.85117,0 2.39467,0 3.38268,0c0.87599,0 1.664,-0.00579 2.73267,0.00017c0.95404,0.00533 2.34059,-0.54121 2.64149,0.3525c0.21817,0.648 -1.1924,0.80373 -1.86766,1.29467c-0.66373,0.48254 -1.61372,0.69987 -2.35634,1.05717c-0.80122,0.38549 -1.67139,0.85988 -2.16701,1.22417c-0.95567,0.70245 -1.68237,1.40666 -2.08649,1.7865c-0.41998,0.39476 -1.26714,1.21836 -1.68401,1.63134c-1.16116,1.15032 -1.4872,1.49615 -2.10001,2.0865c-0.55194,0.5317 -1.40005,1.26189 -2.058,1.73367c-0.74507,0.53425 -1.60667,1.07146 -2.0625,1.35417c-0.94826,0.58811 -1.44173,0.8801 -2.4375,1.47916c-0.99889,0.60094 -1.49788,0.9007 -1.98933,1.21066c-0.97948,0.61777 -1.4763,0.91579 -2.84399,1.956c-0.45296,0.3445 -0.88469,0.71212 -1.73067,1.44801c-0.41682,0.36259 -1.22406,1.0845 -1.63467,1.41599c-1.18051,0.95305 -2.00041,1.46544 -2.40132,1.71867c-0.7982,0.50419 -1.61647,0.99606 -2.40001,1.584c-0.81512,0.61165 -1.20033,0.96182 -1.95833,1.66666c-0.73654,0.6849 -1.07352,1.02948 -1.99867,1.95717c-0.53011,0.53156 -1.23486,1.24602 -1.64034,1.72549c-0.82758,0.97865 -1.23317,1.51286 -1.68832,2.36467c-0.53426,0.99985 -0.67831,1.7042 -0.71434,2.786c-0.02635,0.79156 -0.04845,1.6561 0.036,2.37733c0.11703,0.99958 0.42137,1.80735 0.964,2.62267c0.46872,0.70428 1.16667,1.33333 1.82533,1.992c0.522,0.522 1.41275,1.20569 1.813,1.92733c0.46498,0.83833 0.35941,1.70899 0.36166,2.66901c0.00194,0.825 0.00122,1.425 0,2.745c-0.00067,0.71734 0.00157,1.45918 -0.036,2.208c-0.03722,0.74204 -0.22978,2.14995 -0.42134,2.82133c-0.2021,0.70837 -0.49751,1.46628 -1.08583,2.76817c-0.2224,0.49213 -0.46202,1.00546 -1.01933,2.05667c-0.28784,0.54293 -0.55901,1.10775 -1.60416,2.64583c-0.34009,0.50049 -0.71233,0.96587 -1.43735,1.872c-0.35318,0.44141 -1.04883,1.29591 -1.34132,1.744c-0.84947,1.30133 -1.02527,1.78764 -1.34666,2.71066c-0.30118,0.86497 -0.44121,1.68899 -0.80783,2.62067c-0.32509,0.82613 -0.87157,1.68908 -0.90018,2.55267c-0.02759,0.83288 0,1.81217 0,2.64317c0,0.96083 0,1.73184 0,2.59283c0,0.89751 0,1.808 0,2.43333c0,1.33067 0,2.052 0,2.82133c0,0.82533 0,1.71466 0,2.67599c0,1.03334 0,1.5675 0,2.64584c0,0.53416 0.00365,1.56749 -0.00017,2.95683c-0.00221,0.80602 -0.00549,1.56488 -0.05699,2.32199c-0.08461,1.24394 -0.15518,1.70746 -0.3,2.7045c-0.15395,1.0598 -0.24973,1.59818 -0.34734,2.13667c-0.28452,1.56953 -0.49455,2.53009 -0.591,2.9865c-0.18439,0.87251 -0.38052,1.70058 -0.53783,2.91434c-0.10318,0.79613 -0.13853,1.58913 -0.15601,2.364c-0.01692,0.75053 -0.00102,2.15225 -0.02133,2.81067c-0.0302,0.97864 -0.14587,1.99373 -0.27333,2.70799c-0.13097,0.73393 -0.32715,1.44942 -0.54933,2.78401c-0.13652,0.82007 -0.1485,1.55547 -0.33333,2.5c-0.15448,0.78941 -0.36948,1.60764 -0.93317,2.69049c-0.3364,0.64624 -0.81924,1.46057 -0.87933,2.22617c-0.06058,0.77188 -0.02084,1.7805 -0.02084,2.57018c0,0.82567 0.03401,1.63177 -0.00034,2.96049c-0.02077,0.80347 -0.61481,1.53053 -1.149,2.022c-0.67415,0.62024 -0.84,1.57449 -0.85066,2.56416c-0.00885,0.82062 0,1.48517 0,2.48384c0,0.81599 0,1.63199 0,2.62933c0,0.84 0.0072,1.93402 0,2.85333c-0.00534,0.68005 -0.05443,1.52664 -0.284,2.51733c-0.19055,0.82231 -0.48781,1.6225 -0.63066,2.63066c-0.12315,0.86917 -0.08534,1.88533 -0.08534,2.68533c0,1 -0.01067,1.8 -0.08533,2.60001l-0.26733,0.9955l-0.222,0.5685l-0.36816,1.07883" id="svg_10" stroke-width="2" stroke="#000" fill="none"/>
  <path t="40883,40962,40962,40962,40973,40973,40973,40973,40983,40983,40983,40983,40999,41000,41000,41000,41000,41000,41000,41016,41016,41016,41016,41016,41016,41016,41016,41016,41031,41031,41031,41032,41032,41032,41032,41032,41032,41048,41048,41048,41048,41048,41048,41048,41048,41048,41064,41065,41065,41065,41065,41065,41065,41065,41065,41082,41082,41082,41082,41082,41082,41082,41082,41082,41098,41098,41098,41099,41099,41099,41099,41099,41099,41120,41121,41121,41121,41121,41121,41121,41121,41121,41143,41143,41143,41143,41143,41143,41143,41143,41143,41166,41167,41167,41167,41167,41167,41167,41167,41167,41189,41190,41190,41190,41190,41190,41190,41190,41190,41213,41214,41214,41214,41214,41214,41214,41214,41214,41238,41238,41238,41238,41238,41238,41239,41239,41261,41261,41262,41262,41262,41286,41286,41287,41287,41287,41287,41313,41313,41313,41313,41314,41314,41335,41336,41336,41336,41336,41336,41336,41358,41358,41358,41358,41359,41359,41382,41382,41382,41382,41382,41382,41382,41405,41406,41406,41406,41406,41406,41429,41429,41429,41430,41452,41453,41453,41474,41474,41497,41497,41497,41522,41523,41586,41626,41634,41634,41653,41653,41653,41653,41653,41669,41669,41669,41670,41670,41670,41707,41708,41708,41708,41708,41708,41708,41708,41709,41724,41725,41725,41725,41725,41725,41726,41726,41726,41746,41747,41747,41747,41747,41747,41747,41748,41748,41772,41772,41772,41773,41773,41773,41773,41773,41773,41798,41798,41798,41798,41798,41799,41799,41799,41799,41815,41815,41815,41816,41816,41816,41816,41816,41816,41832,41832,41832,41833,41833,41833,41834,41834,41834,41853,41853,41854,41854,41854,41854,41854,41854,41855,41873,41873,41873,41873,41874,41874,41874,41874,41874,41890,41890,41890,41890,41890,41906,41906,41906,41906,41922,41922,41923,41923,41939,41940,41940,41967,41967,41983,41984,41997,42016,42016,42138,42146,42167,42167,42189,42189,42190,42190,42206,42206,42206,42207,42207,42207,42223,42224,42224,42224,42224,42240,42240,42240,42241,42257,42258,42258,42274,42274,42290,42290,42291,42307,42307,42307,42324,42324,42340,42341,42341,42357,42358,42358,42374,42374,42390,42391,42391,42411,42412,42428,42429,42429,42429,42429,42446,42446,42446,42446,42449,42463,42463,42466,42466,42480,42480,42481,42481,42501,42501,42502,42502,42516,42517,42517,42517,42517,42518,42536,42536,42537,42538,42538,42538,42556,42556,42556,42557,42557,42574,42575,42575,42575,42575,42576,42576,42591,42591,42592,42592,42592,42608,42608,42609,42609,42626,42626,42627,42642,42642,42643,42643,42643,42659,42660,42660,42660,42676,42676,42676,42677,42677,42677,42712,42712,42712,42713,42727,42727,42728,42728,42746,42747,42747,42748,42751,42751,42762,42763,42763,42764,42764,42780,42780,42780,42781,42796,42797,42797,42817,42818,42818,42832,42833,42833,42852,42852,42852,42870,42870,42871,42889,42890,42909,42929,42930,42946,42947,42947,42968,42968,42987,42988,43003,43004,43023,43024,43024,43043,43044,43061,43061,43077,43078,43094,43094,43111,43127,43147,43187" d="m95.50346,301.88889c-0.35716,2.01883 -0.61447,2.8562 -0.80133,3.48801c-0.30506,1.03149 -0.49402,1.76736 -0.7195,2.51199c-0.22716,0.75018 -0.62877,1.84167 -1.13184,2.85184c-0.33603,0.67474 -0.73328,1.34207 -1.18066,2.48151c-0.15926,0.40564 -0.4282,1.30914 -0.66667,2.35416c-0.13329,0.58408 -0.2559,1.22107 -0.384,1.91251c-0.28999,1.56531 -0.43797,2.45007 -0.60133,3.39465c-0.17233,0.99643 -0.35034,2.03607 -0.5355,3.1095c-0.1895,1.09857 -0.38181,2.21335 -0.58051,3.3345c-0.39497,2.22867 -0.59738,3.31876 -0.79866,4.392c-0.19875,1.05975 -0.39954,2.10809 -0.60001,3.1485c-0.19954,1.03561 -0.40069,2.06888 -0.6,3.10352c-0.4014,2.08371 -0.60133,3.1384 -0.79867,4.20132c-0.19834,1.06839 -0.39309,2.1409 -0.5805,3.216c-0.18726,1.07425 -0.36903,2.14648 -0.5355,3.216c-0.3293,2.11572 -0.46606,3.16171 -0.60133,4.19467c-0.13337,1.01837 -0.25739,2.02148 -0.384,3.00598c-0.12408,0.96484 -0.24464,1.90854 -0.384,2.82602c-0.26729,1.75974 -0.43241,2.59418 -0.6,3.40399c-0.16386,0.79184 -0.34079,1.56677 -0.51601,2.33249c-0.17413,0.76096 -0.35382,1.52026 -0.516,2.28751c-0.33058,1.56393 -0.4671,2.37595 -0.6,3.20667c-0.13587,0.8493 -0.26002,1.71982 -0.384,2.61002c-0.12671,0.90982 -0.24989,1.84039 -0.384,2.78998c-0.27693,1.96085 -0.43504,2.96939 -0.6,3.992c-0.16637,1.03137 -0.3405,2.06415 -0.51601,3.09302c-0.17384,1.01913 -0.34849,2.02182 -0.516,3.00299c-0.31953,1.87164 -0.46307,2.75259 -0.6,3.59732c-0.13172,0.81262 -0.25703,1.59763 -0.384,2.358c-0.12373,0.74094 -0.24687,1.46643 -0.384,2.17801c-0.27124,1.40759 -0.4338,2.10565 -0.6,2.80133c-0.16516,0.69135 -0.33947,1.3725 -0.51601,2.0415c-0.17284,0.655 -0.34719,1.29102 -0.516,1.90649c-0.31708,1.15607 -0.46273,1.6911 -0.59866,2.19733c-0.12839,0.47812 -0.24846,0.9296 -0.3645,1.35452c-0.10934,0.40036 -0.21281,0.77737 -0.3195,1.12949c-0.19492,0.64331 -0.29858,0.93311 -0.40267,1.20667c-0.10036,0.26376 -0.20725,0.51825 -0.3195,0.76801c-0.11308,0.25162 -0.23531,0.50583 -0.3645,0.76801c-0.27913,0.56644 -0.43674,0.87463 -0.59866,1.20267c-0.16945,0.34326 -0.34323,0.70044 -0.51601,1.07098c-0.17661,0.37878 -0.54287,1.15097 -0.97833,2.35867c-0.14395,0.39923 -0.39835,1.21585 -0.575,2.07166c-0.18453,0.89398 -0.29127,1.86053 -0.36267,2.89734c-0.0372,0.54013 -0.08204,1.65161 -0.10933,2.216c-0.05474,1.1322 -0.13053,2.24924 -0.25867,3.332c-0.06333,0.53519 -0.14466,1.06754 -0.29066,2.14401c-0.07436,0.54828 -0.26358,2.27167 -0.30383,2.88116c-0.0412,0.62387 -0.08796,1.89743 -0.10067,2.53665c-0.01261,0.63416 -0.01859,1.25833 -0.02084,3.02084c-0.00069,0.53601 0,1.54199 0,2.5c0,0.47601 0,1.452 0,2.5c0,1.15466 0,1.767 0,2.39734c0,0.64432 0,1.95898 0,2.62134c0,1.31467 0,1.95932 0,3.21066c0,0.60266 0,1.18732 0,2.29465c0,1.47601 0,1.91135 0,3.05734c0,0.65067 0,1.75201 0,2.46152c0,0.85266 0,1.85849 0,2.69315c0,0.93066 0.0001,1.71219 0,2.75418c-0.00008,0.86682 -0.11063,1.79282 -0.5,2.50983c-0.47408,0.87299 0.0725,1.42163 0.79333,1.52533c1.03886,0.14948 2.03029,0.33051 2.79,0.49551c0.41016,0.08908 1.28801,0.29047 2.75983,0.57916c0.52814,0.10361 1.63928,0.30121 2.21933,0.39999c0.59462,0.10126 1.82517,0.30209 3.10417,0.5c0.65649,0.10159 1.33353,0.20273 2.04,0.31351c0.74688,0.11713 1.54379,0.24628 2.39999,0.3945c0.92719,0.16052 1.93531,0.33789 4.22667,0.79199c1.30232,0.25809 2.68938,0.55045 4.1415,0.85349c1.49321,0.31161 3.00371,0.62872 4.5105,0.93451c1.47756,0.29984 2.9004,0.60291 5.51466,1.04535c1.14031,0.19299 2.17752,0.33539 3.123,0.43799c0.86538,0.0939 1.6683,0.15271 2.42101,0.186c0.71606,0.03168 1.41065,0.03998 2.78933,0.04266c0.7095,0.00137 1.436,0 2.1765,0c0.7515,0 1.511,0 2.27551,0c0.76649,0 1.532,0 3.048,0c0.7455,0 1.484,0 2.2185,0c0.73351,0 1.469,0 2.2095,0c0.7485,0 1.508,0 3.072,0c0.809,0 1.632,0 2.46301,0c0.83299,0 1.662,0 2.481,0c0.80299,0 1.584,0 3.056,0c0.68083,0 1.32666,0 1.94249,0c0.59084,0 1.16167,0 1.7175,0c0.54584,0 1.08667,0 2.17334,0c0.55467,0 1.11732,0 1.686,0c0.57266,0 1.14732,0 1.722,0c0.57266,0 1.14133,0 2.25867,0c0.54517,0 1.08133,0 1.6095,0c0.52116,0 1.03633,0 1.54649,0c0.50616,0 1.00934,0 2.51033,0c0.99133,0 1.479,0 2.42834,0c0.90132,0 2.12923,-0.00638 2.86217,0.00449c0.68912,0.01022 1.69609,0.05573 2.73099,0.21686c0.72998,0.11365 1.45499,0.29388 2.50951,0.49466c0.92389,0.1759 1.69682,0.26474 2.56667,0.28265c1.00246,0.02066 1.80267,0.00134 2.80133,0.00134c0.76534,0 1.84418,0 2.70151,0c0.78516,0 1.9574,0.44427 2.65683,-0.2215c0.66039,-0.6286 0.16953,-1.6134 -0.32899,-2.55316c-0.28763,-0.54221 -0.69328,-1.15002 -1.11601,-1.884c-0.74728,-1.29749 -0.99866,-1.7926 -1.26016,-2.30383c-0.53926,-1.05417 -0.79834,-1.5939 -1.04199,-2.13669c-0.69916,-1.5575 -0.8764,-2.05432 -1.20001,-2.98199c-0.29767,-0.85333 -0.51904,-1.66827 -0.97649,-2.75217c-0.29155,-0.69083 -0.67061,-1.3082 -1.1235,-2.20499c-0.39655,-0.78522 -0.61717,-1.73169 -0.7925,-2.56033c-0.17102,-0.80835 -0.56693,-1.58157 -0.79601,-2.6015c-0.18179,-0.80945 -0.17491,-1.49176 -0.40533,-2.48383c-0.19096,-0.82224 -0.48781,-1.62253 -0.63066,-2.63068c-0.12317,-0.86917 -0.02779,-1.89047 -0.127,-2.70618c-0.08173,-0.67194 -0.5235,-1.66464 -0.95834,-2.47916c-0.29276,-0.54837 -0.83836,-1.56409 -0.95833,-2.47916c-0.13281,-1.01303 -0.04167,-1.82083 -0.04167,-2.62085c0,-1.01349 0,-1.70801 0,-2.89999c0,-0.75467 0,-1.59732 0,-2.04166c0,-0.91467 0,-2.29169 0,-3.17169c0,-0.84 0,-1.63998 0,-2.39999c0,-1.06534 0,-2.06134 0,-2.71201c0,-0.65866 0,-2.05865 0,-2.79999c0,-0.74933 0,-1.49066 0,-2.55383c0,-1.0275 0,-1.75415 0,-2.56082c0,-0.92667 0.00099,-1.99738 -0.0045,-2.57516c-0.01147,-1.20575 -0.02299,-1.81989 -0.05266,-2.43134c-0.08513,-1.75485 -0.14885,-2.29141 -0.3,-3.2865c-0.07152,-0.47083 -0.25125,-1.37149 -0.44417,-2.24835c-0.29506,-1.34109 -0.40845,-1.80319 -0.588,-2.76532c-0.18622,-0.99792 -0.28313,-1.51178 -0.444,-3.12c-0.05537,-0.55359 -0.09081,-1.11563 -0.13068,-2.24802c-0.01987,-0.56433 -0.03284,-1.67551 -0.03465,-2.216c-0.00513,-1.52634 -0.00134,-2.45499 -0.00134,-2.89734c0,-0.85065 0,-1.66931 0,-2.87164c0,-0.79135 0,-1.55869 0,-2.62967c0,-0.92816 0,-1.73068 0,-2.53317c0,-1.30167 0,-2.10001 0,-2.95834c0,-0.43915 0,-1.3125 0,-2.53665c0,-0.74167 -0.00005,-1.82916 0,-2.59583c0.00009,-1.31067 -0.00394,-1.79874 0.01067,-2.82269c0.00748,-0.52402 0.03587,-1.56668 0.07468,-2.07199c0.10677,-1.39023 0.26663,-2.18515 0.48933,-3.25598c0.14088,-0.67743 0.31329,-1.71689 0.37267,-2.45767c0.06245,-0.77927 0.07735,-1.60275 0.21933,-2.905c0.10028,-0.91971 0.17589,-1.38986 0.375,-2.33334c0.20082,-0.95157 0.30907,-1.42801 0.7795,-2.7785c0.30399,-0.87268 0.66307,-1.69873 0.8175,-2.11084c0.30193,-0.80566 0.63873,-2.00717 0.7515,-2.80167c0.10855,-0.7648 0.14311,-1.84705 0.33118,-2.76614c0.16193,-0.79132 0.54221,-1.71719 0.69466,-2.72684c0.12247,-0.81113 0.05756,-1.38034 0.368,-2.63202c0.17267,-0.6962 0.48076,-1.35947 0.632,-2.36932c0.12437,-0.83044 0.12885,-1.72287 0.3055,-2.61435c0.17587,-0.88754 0.40671,-1.72565 0.97717,-2.72964c0.39369,-0.6929 0.75786,-1.50482 1.02267,-2.29218c0.23999,-0.71353 0.62764,-1.6759 0.75333,-2.47849c0.12492,-0.79773 0.36276,-1.80887 0.72983,-2.60001c0.37555,-0.80939 0.73958,-1.61444 1.2955,-2.43335c0.47517,-0.69995 1.17517,-1.32504 1.64816,-1.81934c0.65396,-0.68341 1.1992,-1.4599 1.43451,-2.31665c0.21823,-0.79456 0.36034,-1.56577 0.91733,-2.69733c0.34299,-0.69681 0.78508,-1.51141 1,-2.3125c0.23259,-0.86694 0.94284,-1.37802 1.00134,-2.21951l0.35133,-0.74866" id="svg_11" stroke-width="2" stroke="#000" fill="none"/>
 </g>
 <g display="none">
  <title>muse_image</title>
  <image xlink:href="http://farm4.static.flickr.com/3013/2661847151_b4e84393cc.jpg" id="muse" height="424" width="640" y="28" x="0"/>
 </g>
 <g display="none">
  <title>bbox</title>
  <rect stroke="#f00" fill="none" stroke-width="3" height="164.74699" width="576" y="156.98795" x="30.72" id="bbox"/>
 </g>
</svg>
