<svg width="640" height="480" xmlns="http://www.w3.org/2000/svg" xmlns:svg="http://www.w3.org/2000/svg" xmlns:xlink="http://www.w3.org/1999/xlink">
 <!-- Sketchy ANNOTATION
  ImageNet ID: n02691156_4134
  URL: http://farm2.static.flickr.com/1385/548896275_db0585f740.jpg
  Image Width: 500
  Image Height: 333
  BBox X: 50
  BBox Y: 0
  BBox Width: 387
  BBox Height: 333
  Exposure: 2000ms
  Synset Label: airplane
  Synset ID: n02691156
  Worker Tag: airplane
  Sanity Check: 
   Context
   Saved
   Shading
  Comment: 
   {}
  Worker ID: AIH9VLD92GHFH
  Assignment ID: 3BDCF01OGXUF6CFVPX0RFAYUJEJYL9
  HIT ID: 3QTFNPMJC6I3CIUR7UDNHPG0TA2NZ9
  Work Time: 56s
  Worker Score: 0.8667
 END ANNOTATION -->
 <g display="inline">
  <title>Layer 1</title>
  <path t="12716,12878,12878,12878,12895,12896,12896,12896,12896,12913,12913,12913,12913,12913,12913,12913,12913,12930,12931,12931,12931,12931,12931,12931,12931,12931,12950,12950,12950,12950,12950,12950,12950,12970,12970,12970,12970,12970,12970,12984,12984,12984,12984,12984,12984,12984,12999,12999,12999,12999,12999,12999,13017,13018,13018,13018,13018,13018,13034,13034,13034,13034,13034,13034,13051,13051,13051,13051,13052,13052,13072,13073,13073,13073,13073,13073,13073,13084,13084,13084,13084,13084,13101,13101,13102,13102,13118,13119,13119,13119,13119,13119,13135,13136,13136,13136,13136,13136,13136,13153,13153,13153,13153,13153,13153,13153,13172,13172,13172,13172,13172,13172,13172,13187,13187,13187,13187,13187,13187,13204,13204,13204,13205,13205,13205,13205,13222,13222,13222,13222,13222,13222,13240,13240,13240,13240,13240,13240,13240,13241,13257,13257,13257,13257,13257,13257,13257,13257,13274,13275,13275,13275,13275,13275,13275,13275,13275,13292,13292,13292,13292,13292,13292,13292,13292,13292,13309,13309,13309,13309,13309,13309,13310,13310,13310,13326,13326,13326,13326,13326,13326,13326,13326,13326,13349,13349,13349,13349,13349,13349,13349,13349,13350,13361,13361,13361,13361,13362,13362,13362,13362,13362,13377,13377,13377,13377,13378,13378,13378,13395,13395,13395,13395,13396,13396,13396,13411,13412,13412,13412,13412,13412,13412,13429,13429,13430,13430,13430,13430,13430,13430,13447,13447,13447,13448,13448,13448,13464,13464,13464,13465,13465,13465,13465,13481,13481,13481,13482,13482,13482,13482,13482,13499,13499,13499,13499,13499,13499,13500,13500,13516,13516,13516,13517,13517,13517,13517,13517,13535,13535,13536,13536,13536,13536,13536,13536,13553,13553,13553,13553,13553,13553,13553,13575,13575,13575,13575,13575,13575,13576,13585,13585,13585,13585,13585,13585,13585,13603,13603,13603,13603,13603,13603,13619,13619,13619,13619,13619,13620,13636,13636,13636,13636,13636,13653,13654,13654,13654,13654,13672,13673,13673,13673,13688,13688,13688,13688,13688,13705,13705,13705,13705,13722,13722,13722,13722,13722,13739,13739,13740,13740,13756,13756,13756,13757,13773,13773,13773,13773,13790,13791,13791,13791,13791,13807,13807,13807,13807,13808,13808,13824,13824,13824,13824,13824,13824,13825,13841,13842,13842,13842,13842,13842,13842,13842,13859,13859,13859,13859,13859,13860,13860,13860,13878,13878,13878,13878,13879,13879,13879,13879,13879,13894,13894,13894,13894,13895,13895,13895,13911,13912,13912,13912,13937,13937,13953" d="m104,234c2.05466,0 3.04166,0 3.75633,0c1.077,0 1.765,0 2.827,0c0.798,0 1.242,0.00281 2.82433,-0.00034c0.62033,-0.00124 1.28273,-0.00513 1.98299,-0.021c0.73443,-0.01663 1.49903,-0.04446 2.289,-0.093c0.81275,-0.04994 2.48799,-0.21152 3.34117,-0.32834c0.86023,-0.11778 1.71881,-0.25986 2.57249,-0.40799c0.84466,-0.14656 1.67303,-0.30042 2.48251,-0.444c0.78387,-0.13904 2.25661,-0.37889 2.93817,-0.46234c0.64389,-0.07884 1.84167,-0.17755 2.40266,-0.20132c1.06487,-0.04514 1.57799,-0.03719 3.08366,-0.04184c1.00867,-0.00311 1.52121,-0.00267 2.57167,-0.03583c0.54247,-0.01712 1.10051,-0.02715 2.87067,-0.1855c0.62607,-0.056 1.26315,-0.13176 1.90799,-0.21451c1.29971,-0.16679 1.94456,-0.26485 2.58134,-0.36533c1.82668,-0.28822 2.39764,-0.39687 2.95366,-0.49867c1.0733,-0.19652 1.59331,-0.29846 2.61166,-0.5c1.00298,-0.19849 2.0038,-0.40102 3.01334,-0.59999c0.51006,-0.10052 1.5462,-0.30156 2.07466,-0.40001c1.63512,-0.30464 2.1982,-0.40149 2.76733,-0.4955c1.14641,-0.18936 1.72108,-0.27545 2.29468,-0.34734c1.68355,-0.21097 2.23116,-0.23853 3.29999,-0.30899c0.52727,-0.03476 1.57925,-0.09743 2.10535,-0.158c1.6187,-0.1864 2.17146,-0.32039 3.29549,-0.5955c0.56808,-0.13905 1.12949,-0.30045 2.242,-0.58932c0.53978,-0.14015 2.06526,-0.47375 2.9955,-0.60001c0.44165,-0.05994 1.29852,-0.12241 2.11166,-0.27333c1.21295,-0.22513 2.00607,-0.53323 2.80267,-0.85283c0.80353,-0.32237 1.99733,-0.82011 2.4005,-0.9575c0.80794,-0.27534 1.65843,-0.49908 2.571,-0.66c0.48282,-0.08513 2.09262,-0.24388 2.68317,-0.27766c0.61214,-0.03502 1.88704,-0.08311 2.54134,-0.10933c0.66037,-0.02646 1.32494,-0.02931 3.2825,-0.19617c0.63705,-0.05431 1.26495,-0.13091 1.8855,-0.21451c1.22664,-0.16527 1.83174,-0.26695 2.43466,-0.36533c1.80211,-0.29405 2.40134,-0.39867 3.00134,-0.49867c1.2,-0.2 1.8,-0.3 2.39999,-0.39999c0.60001,-0.10001 2.40001,-0.40001 3,-0.5c0.60001,-0.10001 1.8,-0.3 2.40001,-0.40001c0.59999,-0.09999 2.40001,-0.39992 2.99983,-0.5c0.59885,-0.09991 1.78957,-0.29958 2.37933,-0.39999c0.5849,-0.09959 1.73628,-0.29558 2.85416,-0.5c1.08479,-0.19838 1.62115,-0.2971 2.6875,-0.54167c0.54193,-0.1243 1.09924,-0.23979 2.8125,-0.79166c0.61356,-0.19763 1.23779,-0.43346 1.88101,-0.67201c0.65811,-0.24408 1.32306,-0.50662 2.69466,-0.98932c0.69156,-0.24338 2.08873,-0.68057 2.79117,-0.86234c0.69902,-0.18088 1.40314,-0.33482 2.1105,-0.47101c0.709,-0.13651 1.42447,-0.25627 2.1465,-0.36299c2.20703,-0.3262 2.96442,-0.40964 3.72949,-0.509c0.77493,-0.10065 1.55994,-0.20061 2.35501,-0.3c0.80492,-0.10063 1.61989,-0.20088 2.44499,-0.3c1.67979,-0.2018 2.53474,-0.29953 3.39734,-0.40134c0.86874,-0.10252 1.74165,-0.20686 2.616,-0.31949c0.87498,-0.11272 1.74838,-0.22945 2.616,-0.3645c1.71951,-0.26767 2.56297,-0.43193 3.396,-0.59866c0.82265,-0.16466 1.63103,-0.33974 2.42551,-0.51601c0.78018,-0.1731 1.54324,-0.34921 2.2905,-0.51601c1.43787,-0.32094 2.12906,-0.46562 2.80667,-0.59866c0.6684,-0.13124 1.33545,-0.25255 2.00699,-0.3645c0.68045,-0.11343 1.37744,-0.22046 2.09702,-0.31949c1.52679,-0.21013 2.34637,-0.30348 3.19733,-0.40001c0.87439,-0.0992 1.76508,-0.19315 2.664,-0.2805c0.89844,-0.08731 1.78897,-0.16846 2.664,-0.23549c1.66867,-0.12782 2.44989,-0.16631 3.19467,-0.20134c0.71255,-0.03352 1.39734,-0.05827 2.05798,-0.084c0.64069,-0.02495 1.26566,-0.04735 1.87802,-0.084c1.20599,-0.07219 2.40576,-0.19789 3.00531,-0.27316c0.60046,-0.07539 1.80026,-0.25204 2.40002,-0.34734c0.60022,-0.09537 2.40012,-0.39566 3.00131,-0.4955c0.60315,-0.10016 1.81943,-0.30049 2.43466,-0.40001c0.62109,-0.10048 1.24872,-0.20409 3.18552,-0.5c0.6636,-0.10139 1.3356,-0.20042 2.0145,-0.29999c0.68478,-0.10043 1.37457,-0.20058 2.76532,-0.40001c1.39859,-0.20056 2.09854,-0.2989 2.79602,-0.40134c0.69385,-0.1019 1.3822,-0.20404 2.061,-0.31949c1.32913,-0.22603 1.97577,-0.34418 3.20831,-0.64584c0.5928,-0.1451 1.72122,-0.48399 2.26135,-0.66933c1.05508,-0.36201 1.56439,-0.56496 3.07199,-1.164c0.50079,-0.19899 1.50912,-0.60417 2.02133,-0.81067c0.52045,-0.20982 1.59335,-0.64558 2.14932,-0.87466c1.16348,-0.47942 2.39969,-0.99945 3.04367,-1.26733c0.65735,-0.27345 1.32645,-0.54956 2.00702,-0.82201c0.68677,-0.27492 1.37686,-0.55348 2.77866,-1.05865c0.69766,-0.25142 1.39816,-0.48419 2.09549,-0.714c1.38266,-0.45569 2.06949,-0.67513 2.74734,-0.90533c0.67282,-0.2285 1.99261,-0.70871 2.63583,-0.96883c0.63947,-0.25861 1.89694,-0.81244 2.52133,-1.09933c0.62628,-0.28777 1.25223,-0.58456 1.884,-0.88051c1.28183,-0.60046 1.93518,-0.90294 3.26416,-1.49416c0.66553,-0.29607 1.33054,-0.58476 1.99051,-0.86852c0.65103,-0.27989 1.2908,-0.55353 2.52798,-1.06932c1.16422,-0.48537 1.72794,-0.71416 2.28268,-0.94135c1.1012,-0.45096 1.65631,-0.67726 2.21866,-0.90933c1.16595,-0.48116 2.3996,-0.99965 3.03732,-1.26416c0.64493,-0.2675 1.29358,-0.5338 1.944,-0.7905c0.64426,-0.25427 2.51563,-0.93341 3.10785,-1.1185c0.57187,-0.17874 1.68094,-0.48361 2.22198,-0.62201c1.06793,-0.27316 1.60648,-0.39241 2.6875,-0.6875c1.12051,-0.30588 1.68619,-0.48535 2.83334,-0.83333c0.57477,-0.17435 1.14249,-0.36449 2.83334,-0.83333c0.54349,-0.1507 1.07831,-0.28845 2.12,-0.53067c0.99844,-0.23216 1.48627,-0.32574 2.88,-0.636c0.88214,-0.19637 1.31003,-0.29768 2.14581,-0.5c0.81689,-0.19774 2.02084,-0.5 2.82083,-0.7c0.80002,-0.2 1.60001,-0.40005 2.40002,-0.60001c1.19995,-0.29991 1.99786,-0.50507 2.79999,-0.67917c0.79797,-0.1732 1.99854,-0.37007 2.79999,-0.4355c0.79889,-0.06522 1.59998,-0.07889 2.40002,-0.084c1.19995,-0.00766 2,-0.00133 2.79999,-0.00133c0.79999,0 2.00003,0.004 2.79999,-0.00133c0.80005,-0.00534 1.60153,-0.01418 2.40002,-0.084c1.20291,-0.10519 1.99585,-0.26547 2.77914,-0.41467c0.76401,-0.14552 1.85226,-0.3515 2.53683,-0.41467c0.98193,-0.09062 1.63669,-0.08307 2.65067,-0.08533c1.09052,-0.00243 1.85419,0 2.63785,0c1.1955,0 1.99695,0.00642 2.80615,-0.01067c0.82556,-0.01743 1.6763,-0.0587 2.556,-0.15601c0.92203,-0.10197 1.88037,-0.26724 2.375,-0.35416c1.02078,-0.17937 1.54443,-0.28372 3.18018,-0.57935c0.56595,-0.10228 1.14487,-0.20151 2.34067,-0.42065c0.62045,-0.11371 1.25699,-0.23306 1.90948,-0.3645c1.36276,-0.27451 2.79626,-0.59764 3.53336,-0.76733c0.74557,-0.17165 1.49454,-0.34784 2.24399,-0.522c0.74521,-0.17317 1.48114,-0.34837 2.91733,-0.65866c0.68994,-0.14906 1.36609,-0.28191 2.02802,-0.423c1.30679,-0.27856 1.95795,-0.43369 2.61066,-0.61067c0.6647,-0.18024 2.03091,-0.62534 2.73734,-0.897c0.72842,-0.28012 1.46344,-0.59219 2.20801,-0.91199c0.75012,-0.32219 1.4971,-0.6517 2.24399,-0.966c0.73581,-0.30965 2.16757,-0.8714 2.86185,-1.09351c1.30783,-0.41838 1.93808,-0.56247 2.53934,-0.702c1.12112,-0.26015 1.64996,-0.33861 3.03949,-0.66234c0.79138,-0.18437 1.48132,-0.37933 2.37534,-0.61482l1.00134,-0.20134l0.80533,-0.10933l0.88266,-0.4955" id="svg_6" stroke-width="2" stroke="#000" fill="none"/>
  <path t="14249,14445,14445,14462,14462,14462,14479,14479,14479,14479,14497,14498,14514,14514,14514,14531,14531,14531,14549,14549,14549,14567,14567,14567,14567,14584,14584,14584,14584,14600,14600,14600,14600,14618,14618,14618,14618,14634,14634,14634,14654,14654,14654,14654,14676,14676,14676,14687,14687,14687,14705,14705,14705,14721,14738,14738,14738,14738,14754,14754,14754,14754,14754,14775,14776,14776,14776,14788,14788,14788,14788,14805,14805,14805,14805,14805,14823,14823,14823,14823,14823,14823,14839,14839,14839,14839,14855,14856,14856,14877,14877,14890,14890,14907,14924,14924,14942,14958,14958,14975,14992,15031,15063,15080,15096,15113,15113,15131,15148,15148,15165,15165,15181,15199,15199,15199,15215,15216,15216,15233,15233,15233,15250,15250,15250,15268,15268,15268,15268,15285,15285,15285,15285,15303,15303,15303,15319,15319,15319,15319,15336,15337,15337,15337,15356,15356,15376,15377,15377,15389,15389,15406,15406,15423,15423,15423,15439,15440,15440,15456,15456,15478,15479,15479,15491,15492,15492,15492,15492,15509,15509,15526,15526,15526,15543,15543,15543,15561,15561,15561,15561,15578,15578,15578,15596,15596,15596,15612,15612,15612,15629,15630,15630,15630,15648,15648,15648,15648,15664,15664,15664,15664,15682,15682,15706,15706,15706,15706,15717,15717,15717,15717,15734,15734,15734,15734,15753,15753,15753,15753,15771,15771,15771,15788,15788,15788,15804,15804,15822,15822,15839,15839,15839,15856,15856,15878,15878,15892,15892,15893,15909,15909,15926,15944" d="m458,163c1.29733,0 2.05634,0 3.07883,0c0.70651,0 1.431,0 2.56384,0c0.66266,0 1.70667,0 2.38934,0c1.19864,0 1.94714,0 3.13464,0c0.78601,0 1.608,0 2.66669,0c0.71399,0 1.61932,0 2.58817,0c0.81448,0 1.38916,0 2.57849,0c0.90451,0 1.52084,0 2.48532,0c1.03601,0 1.76733,0 2.51468,0c1.116,0 2.17868,0 2.84732,0c0.97803,0 1.63669,0 2.67401,0c1.104,0 1.85333,-0.00006 2.59467,0c1.0625,0.00009 2.04919,-0.01027 2.67334,0.036c1.21436,0.09003 1.81067,0.248 2.71066,0.464c0.89999,0.216 1.7977,0.40475 2.68933,0.464c0.8522,0.05664 1.88934,0.036 2.58533,0.036c0.90933,0 1.90802,0 2.7045,0c0.7515,0 1.87018,0 2.85419,0c0.69,0 1.56,0 2.23999,0c1.16934,0 2.03201,0 2.92667,0c0.89465,0 1.33197,0 2.55719,0c1.08148,0 1.75745,0 2.42548,0c1.40399,0 2.164,0 2.96399,0c0.84003,0 1.72003,-0.00385 2.63867,0.00133c0.95074,0.00536 1.43628,0.00171 2.41919,0.05583c1.49719,0.08244 1.99744,0.14868 2.98651,0.3c0.96973,0.14836 1.43994,0.23997 2.33832,0.44417c1.23199,0.28001 1.95441,0.50119 2.62897,0.67784c0.93652,0.24525 2.1394,0.44923 2.73102,0.48483c0.85254,0.0513 1.89392,-0.0388 2.76898,0.05682c1.03357,0.11295 1.58582,0.64009 2.34167,1.27467c0.75818,0.63655 1.55481,0.71344 2.29999,1.31517c0.65436,0.52838 1.12421,1.27737 1.90002,1.8685c0.73419,0.5594 1.47137,0.87669 1.5,1.82083c0.02728,0.89958 0.04779,1.80127 0,2.7c-0.04272,0.80341 -0.49042,1.61349 -1.48401,1.916c-0.66895,0.20366 -1.58044,0.46033 -2.31464,0.8c-0.83057,0.38426 -1.74719,0.23856 -2.72217,0.32567c-0.53381,0.0477 -1.57623,0.37199 -2.25385,0.81966c-0.69818,0.46127 -1.63586,1.14056 -2.45068,1.50267c-0.5426,0.24112 -1.60864,0.63438 -2.32648,0.936c-0.71021,0.29842 -1.77887,0.70851 -2.41754,0.89999c-1.04736,0.31403 -1.78485,0.49165 -2.86395,0.8c-0.68152,0.19473 -1.6286,0.48988 -2.20502,0.7c-1.04736,0.38176 -1.73926,0.71938 -2.4715,1c-1.12195,0.43001 -1.79926,0.60255 -2.51099,0.8c-0.73029,0.20261 -2.15936,0.59415 -2.8175,0.8c-0.62177,0.19447 -1.48511,0.47566 -2.47632,0.89999c-0.88422,0.37852 -1.69244,0.78629 -2.47467,1.2c-0.73224,0.38728 -1.40662,1.0108 -2.18002,1.31467c-0.99234,0.38988 -1.82785,0.24074 -2.86401,0.45201c-0.72098,0.147 -1.39777,0.42126 -2.36649,1.15466c-0.61835,0.46815 -1.11911,1.0509 -1.91751,1.79333c-0.52872,0.49165 -1.41849,1.00409 -2.16531,1.28532c-0.56946,0.21445 -1.88345,0.60204 -2.60001,0.8c-0.73141,0.20207 -1.46021,0.38596 -2.14801,0.60001c-1.20657,0.3755 -1.93097,0.69316 -2.96933,1.2c-0.60645,0.29602 -1.45013,0.71735 -2.42151,1.10001c-0.53198,0.20956 -1.38861,0.5016 -2.57849,0.89999c-0.59973,0.20081 -1.5,0.50002 -2.10001,0.7c-1.19983,0.39989 -1.7887,0.61865 -2.664,0.864c-1.0618,0.29762 -1.78668,0.35773 -2.68866,0.48868c-0.97324,0.1413 -1.78522,0.37723 -2.358,0.558c-1.19342,0.37665 -1.78467,0.60844 -2.71017,0.8685c-0.63254,0.17773 -1.99936,0.41367 -2.73181,0.46367c-0.74649,0.05096 -1.49469,0.05247 -2.58069,0.05716c-1.005,0.00433 -1.63147,-0.03798 -2.47998,0.08533c-1.24951,0.18159 -1.89761,0.549 -2.85333,0.748c-0.78629,0.16373 -1.68134,0.17905 -2.32001,0.25067c-1.03741,0.11633 -2.14835,0.34657 -2.92401,0.49066c-0.78967,0.14668 -1.98819,0.31752 -2.78482,0.36818c-0.78293,0.04979 -1.54733,0.0549 -2.63785,0.05716c-0.68134,0.0014 -1.64581,-0.00005 -2.26215,0c-1.20435,0.00009 -2.09735,-0.03313 -2.94736,0.05716c-1.04272,0.11075 -1.70868,0.40691 -2.55582,0.65884c-0.79135,0.23534 -1.60147,0.26584 -2.60135,0.28416c-0.80011,0.01466 -1.80475,0.15224 -2.59998,0.42517c-0.80508,0.27631 -1.7988,0.54149 -2.60001,0.57016c-0.99939,0.03577 -1.81696,-0.03487 -2.80002,0.22583c-0.81882,0.21715 -1.39999,0.49467 -2.39548,0.72151l-0.91919,0.05583l-0.96448,0.00133l-0.82535,0" id="svg_7" stroke-width="2" stroke="#000" fill="none"/>
  <path t="16172,16368,16368,16368,16386,16387,16387,16387,16387,16404,16404,16404,16404,16404,16404,16421,16421,16421,16421,16421,16421,16438,16438,16438,16438,16438,16439,16439,16455,16455,16455,16455,16455,16471,16471,16471,16472,16472,16490,16490,16490,16490,16490,16507,16507,16507,16507,16524,16524,16524,16524,16545,16545,16545,16565,16565,16565,16576,16576,16576,16576,16594,16594,16594,16610,16610,16610,16610,16627,16627,16627,16644,16644,16644,16644,16662,16662,16663,16663,16678,16678,16678,16695,16695,16695,16713,16713,16713,16713,16730,16730,16730,16730,16748,16748,16748,16748,16748,16764,16764,16764,16764,16764,16781,16781,16781,16781,16781,16798,16798,16798,16798,16798,16798,16821,16821,16821,16821,16821,16834,16834,16834,16834,16834,16851,16851,16851,16867,16867,16867,16867,16885,16886,16886" d="m426,208c-2.056,0 -3.0625,0 -3.81351,0c-1.18649,0 -1.98917,0 -2.80783,0c-0.85065,0 -1.293,-0.00092 -2.71201,0c-1.03598,0.00067 -1.57651,0.00137 -2.12799,0.01067c-1.12411,0.01895 -1.69269,0.01669 -3.37201,0.15601c-0.5462,0.04532 -1.61523,0.18755 -2.14133,0.28c-1.05338,0.18512 -1.58344,0.29393 -3.19199,0.72c-0.55649,0.1474 -1.11725,0.31323 -2.24802,0.65866c-0.56512,0.17262 -1.12302,0.35246 -2.216,0.69067c-1.03506,0.32028 -1.99905,0.59857 -2.89734,0.85866c-0.43051,0.12465 -1.27319,0.34929 -2.47198,0.79201c-0.80734,0.29816 -1.59854,0.66203 -2.39999,1.008c-0.79858,0.34471 -1.59628,0.66946 -2.39999,0.94133c-0.79645,0.26941 -1.60489,0.49466 -2.40002,0.76801c-1.20767,0.41518 -1.99716,0.76488 -2.77914,1.116c-0.76535,0.34364 -1.85129,0.84041 -2.53418,1.11467c-0.63736,0.25597 -1.53247,0.5621 -2.56534,0.98534c-0.70129,0.28737 -1.36432,0.62428 -2.34283,0.99983c-0.80701,0.30972 -1.37753,0.52196 -2.57849,0.73349c-0.89343,0.15736 -1.50366,0.1339 -2.39999,0.25067c-1.20789,0.15738 -1.8118,0.34805 -2.75717,0.6205c-1.01071,0.29128 -1.72382,0.50079 -2.45749,0.68483c-0.72238,0.1812 -2.05038,0.4565 -2.87552,0.558c-0.72324,0.08897 -1.67798,0.21301 -2.4715,0.40533c-0.88675,0.21494 -1.52042,0.39566 -2.55966,0.526c-0.72882,0.09142 -1.85501,0.12825 -2.59467,0.20534c-1.06543,0.11104 -1.7326,0.23872 -2.63733,0.52667c-1.09396,0.34818 -1.80402,0.67412 -2.47202,1.02533c-0.95645,0.50287 -1.72507,1.0239 -2.2955,1.34317c-0.57709,0.323 -1.77429,0.80446 -2.38815,0.911c-0.95673,0.16605 -1.66403,0.17384 -2.83401,0.33116c-0.87329,0.11743 -1.79822,0.2814 -2.27832,0.35333c-0.9805,0.14691 -1.97751,0.27441 -2.97733,0.34001c-0.98975,0.06494 -1.48041,0.07111 -2.44418,0.08083c-1.39044,0.01402 -1.836,0.0045 -2.70898,0.0045c-0.86902,0 -1.758,-0.00023 -3.18152,0c-0.50934,0.00009 -1.57202,0.0013 -2.11731,0.01067c-1.09882,0.01888 -1.64661,0.01393 -3.216,0.15601c-0.49139,0.04448 -1.41959,0.18256 -2.29169,0.33333c-0.83322,0.14406 -2.04022,0.349 -2.84033,0.41467c-0.78952,0.06482 -1.56531,0.07886 -2.31598,0.084c-1.06381,0.00728 -2.04935,0.00133 -2.67468,0.00133c-1.21066,0 -1.81067,0 -2.71066,0c-0.89999,0 -1.79965,0 -2.67868,0l-0.80698,0" id="svg_8" stroke-width="2" stroke="#000" fill="none"/>
  <path t="17197,17379,17379,17396,17396,17396,17413,17414,17414,17430,17430,17430,17430,17430,17447,17447,17447,17447,17465,17465,17465,17465,17482,17482,17482,17482,17499,17499,17499,17499,17499,17517,17517,17517,17517,17534,17534,17534,17550,17550,17550,17550,17567,17567,17567,17584,17584,17584,17601,17601,17618,17618,17618,17637,17637,17637,17654,17654,17654,17670,17670,17670,17670,17689,17689,17689,17689,17706,17706,17706,17706,17723,17723,17723,17723,17741,17741,17741,17755,17755,17755,17755,17773,17773,17773,17773,17773,17790,17790,17790,17790,17790,17807,17807,17807,17807,17807,17823,17823,17823,17823,17823,17823,17841,17841,17841,17841,17841,17857,17857,17857,17875,17875,17875,17891,17892,17892,17909,17909,17909,17926,17926,17926,17943,17943,17943,17943,17960,17960,17960,17981,17981,17981,17982,17982,17998,17998,17998,17998,18013,18013,18013,18013,18014,18031,18031,18031,18031,18047,18047,18047,18047,18047,18065,18065,18065,18065,18066,18081,18081,18081,18081,18081,18081,18098,18098,18098,18098,18098,18098,18098,18116,18116,18116,18116,18116,18116,18116,18133,18133,18133,18133,18133,18133,18150,18150,18150,18150,18150,18150,18170,18170,18170,18170,18184,18184,18184,18201,18202,18202,18202,18219,18219,18237,18237,18255,18272" d="m308,229c-1.84668,0 -2.68668,0 -3.68533,0c-0.83551,0 -1.716,0 -2.61484,0c-0.91049,0 -1.53583,0 -2.86649,0c-0.71869,0 -1.46933,0 -2.24402,0c-0.79065,0 -1.98917,0 -2.78482,0c-0.78366,0 -1.54733,0 -2.98318,0c-0.66864,0 -1.32132,0 -2.30533,0c-1.03766,0 -1.77765,0 -2.55765,0c-0.82001,0 -2.125,0 -3.04102,0c-0.46548,0 -1.39648,0 -2.3075,0c-1.27649,0 -2.03915,0 -2.73782,0c-0.96301,0 -2.172,0 -2.772,0c-0.89999,0 -2.10001,0 -2.70001,0c-0.89999,0 -1.80002,-0.00522 -2.69983,0.00017c-0.88956,0.00533 -1.7561,-0.01097 -2.77866,0.22116c-0.69748,0.15834 -1.50613,0.56982 -2.526,0.72151c-0.62631,0.09315 -1.81726,0.03987 -2.62085,0.06783c-0.82281,0.02863 -1.86224,0.18382 -2.54932,0.42534c-0.68796,0.24182 -1.64386,0.67229 -2.46133,0.96399c-0.86542,0.30881 -1.76022,0.61186 -2.6685,0.89551c-0.61388,0.19171 -1.57578,0.45529 -2.617,0.58299c-0.73299,0.08989 -1.49922,0.10736 -2.283,0.117c-1.19542,0.01471 -1.99342,-0.00987 -2.77415,0.02583c-0.75027,0.03432 -2.10434,0.27609 -2.65201,0.54666c-0.77483,0.3828 -1.41344,0.98033 -2.45599,1.26134c-0.83488,0.22504 -1.47501,0.16225 -2.83484,0.17084c-0.73567,0.00465 -1.50035,0.00304 -2.283,0.05699c-1.19766,0.08258 -1.99725,0.22437 -2.80617,0.36818c-0.82579,0.1468 -1.67238,0.3094 -2.556,0.40799c-0.91536,0.10213 -1.85869,0.14081 -2.33333,0.16667c-0.94739,0.05162 -2.33524,0.15326 -3.21733,0.28534c-0.43555,0.06522 -1.30359,0.23506 -2.1925,0.41916c-1.42363,0.29483 -1.93166,0.40091 -2.991,0.591c-0.53867,0.09666 -1.61176,0.27368 -2.13667,0.34734c-1.46054,0.20494 -2.30719,0.28281 -3.06516,0.32117c-0.7009,0.03548 -1.37868,0.03532 -2.78,0.036c-0.73201,0.00035 -1.45601,0 -2.78401,0c-0.564,0 -1.54799,0 -2.5,0c-0.786,0 -1.60802,-0.006 -2.66666,0c-0.94139,0.00534 -1.62643,0.01971 -2.58817,0.22133c-0.82179,0.17227 -1.67638,0.46143 -2.57851,0.612c-0.89481,0.14935 -1.80232,0.1718 -2.39999,0.25067c-1.2074,0.15935 -1.80559,0.36421 -2.75717,0.56334c-1.00473,0.21025 -1.72745,0.27971 -2.47884,0.31667c-0.77414,0.03809 -1.56534,0.03532 -2.76399,0.036c-0.8,0.00044 -1.60001,0 -2.40001,0c-1.2,0 -2,0 -2.8,0c-0.79999,0 -1.59999,0 -2.80016,0c-0.80434,0 -1.62067,0 -2.457,0c-1.30951,0 -2.22684,0 -3.16817,0c-0.47467,0 -1.422,-0.00026 -2.808,0c-0.44534,0.00009 -1.31425,-0.00549 -2.16667,0.02083c-0.85303,0.02634 -2.16801,0.13582 -3.08667,0.26451c-0.47574,0.06665 -1.45525,0.23416 -1.95999,0.32533c-1.04051,0.18793 -2.11957,0.39185 -3.24001,0.58932c-0.57477,0.1013 -1.15961,0.20239 -2.36,0.40001c-0.61481,0.10121 -1.23969,0.20203 -2.52,0.39999c-1.31567,0.20343 -1.98183,0.30238 -2.64799,0.41066c-0.66486,0.10806 -1.32832,0.20395 -2.616,0.47467c-1.24051,0.2608 -1.82898,0.42688 -2.955,0.76283c-0.54364,0.16219 -1.06549,0.35588 -2.10533,0.642c-1.49953,0.41261 -2.00667,0.48441 -3.0045,0.60001c-0.49292,0.0571 -1.46922,0.1151 -2.41917,0.1925c-0.91943,0.07492 -1.79893,0.19225 -2.62799,0.34267c-0.77626,0.14084 -2.12152,0.42775 -2.68933,0.48933c-1.01546,0.11014 -2.10133,0.08533 -2.73466,0.08533c-1.01251,0 -1.67084,0 -2.76901,0c-0.86833,0 -1.74832,0 -2.61166,0l-0.8955,0l-0.95716,0" id="svg_9" stroke-width="2" stroke="#000" fill="none"/>
  <path t="19195,19310,19311,19327,19327,19327,19327,19345,19345,19345,19345,19361,19361,19361,19361,19361,19361,19362,19380,19380,19380,19380,19380,19380,19380,19380,19397,19397,19397,19397,19397,19397,19397,19414,19414,19414,19414,19414,19414,19414,19414,19430,19431,19431,19431,19431,19431,19431,19449,19449,19449,19449,19449,19449,19449,19449,19449,19464,19464,19465,19465,19465,19465,19465,19465,19465,19482,19483,19483,19483,19483,19483,19483,19483,19483,19502,19502,19502,19502,19502,19502,19502,19502,19502,19519,19519,19519,19519,19519,19519,19519,19519,19519,19533,19533,19534,19534,19534,19534,19534,19534,19551,19551,19551,19551,19551,19551,19551,19569,19569,19570,19570,19570,19570,19584,19584,19585,19585,19585,19602,19602,19602,19602,19619,19619,19619,19619,19636,19636,19636,19653,19653,19653,19653,19674,19674,19675,19675,19687,19687,19687,19687,19704,19704,19704,19704,19721,19721,19721,19721,19738,19738,19738,19738,19755,19755,19755,19772,19772,19790,19808,19895,19929,19929,19946,19946,19946,19962,19962,19962,19980,19980,19980,19998,19998,20023,20024,20103,20119,20137,20154,20154,20154,20171,20172,20172,20172,20172,20188,20189,20189,20189,20206,20206,20206,20206,20206,20222,20222,20222,20239,20240,20240,20257,20257,20257,20275,20275,20275,20275,20292,20292,20292,20308,20308,20308,20325,20326,20326,20342,20342,20342,20342,20342,20359,20360,20360,20360,20360,20376,20376,20376,20376,20376,20395,20395,20395,20395,20412,20413,20413,20413,20413,20413,20430,20430,20430,20431,20431,20446,20446,20446,20446,20447,20463,20463,20464,20464,20464,20482,20482,20482,20499,20499,20499,20500,20522,20522,20534" d="m225,216c-2.01433,-0.0045 -2.82774,0.0126 -4,-0.16667c-0.60434,-0.09242 -1.49648,-0.34848 -2.10001,-0.48067c-1.19444,-0.26163 -2.14372,-0.32866 -2.84399,-0.414c-0.79871,-0.09735 -1.72491,-0.26199 -2.79733,-0.508c-0.58862,-0.13503 -1.20256,-0.29243 -1.842,-0.45149c-1.33444,-0.33194 -2.01921,-0.50909 -3.41667,-0.8125c-0.69849,-0.15164 -1.39836,-0.28433 -2.0955,-0.414c-0.69353,-0.129 -2.06898,-0.37541 -2.74733,-0.50534c-0.67232,-0.12877 -1.99191,-0.4082 -2.63567,-0.569c-0.63763,-0.15927 -1.88719,-0.51973 -2.50067,-0.72c-0.61191,-0.19977 -1.22684,-0.39368 -3.02083,-1.125c-0.6035,-0.24602 -1.201,-0.51358 -1.7955,-0.7905c-1.18843,-0.55356 -1.76984,-0.85088 -2.34734,-1.14734c-0.57317,-0.29424 -2.23633,-1.1955 -2.77716,-1.4955c-0.54083,-0.29999 -1.08087,-0.61101 -2.21333,-1.2c-0.58788,-0.30576 -1.19789,-0.61977 -2.53334,-1.2c-0.71463,-0.31049 -1.47134,-0.60397 -2.25749,-0.89549c-0.80716,-0.2993 -1.63693,-0.58786 -2.4825,-0.86852c-0.85278,-0.28305 -1.71037,-0.56056 -3.42667,-1.06932c-0.84357,-0.25006 -1.67946,-0.48332 -2.505,-0.7095c-0.81447,-0.22314 -1.61983,-0.43698 -2.41499,-0.6465c-0.78484,-0.2068 -1.56091,-0.40596 -3.08,-0.81067c-0.74577,-0.19868 -1.48361,-0.39935 -2.214,-0.60899c-0.7283,-0.20905 -1.45432,-0.42757 -2.17799,-0.66301c-0.72903,-0.23718 -1.46623,-0.47914 -2.94135,-1.06133c-0.75851,-0.29936 -1.5174,-0.63152 -2.28149,-0.972c-0.76791,-0.34218 -1.53094,-0.69481 -2.2905,-1.04401c-0.75145,-0.34547 -1.48631,-0.69571 -2.92801,-1.31734c-0.68784,-0.29657 -1.36234,-0.567 -2.0235,-0.819c-0.6469,-0.24657 -1.28787,-0.47594 -1.9245,-0.69299c-0.6324,-0.21561 -1.26617,-0.42451 -2.552,-0.82133c-1.31549,-0.40598 -1.98592,-0.60028 -2.65866,-0.8c-0.67459,-0.20027 -1.3495,-0.39944 -2.022,-0.59999c-0.66884,-0.19946 -2.63145,-0.79854 -3.26599,-1c-0.62546,-0.19858 -1.24155,-0.39542 -2.44,-0.8c-0.58577,-0.19775 -1.16228,-0.39372 -2.82516,-0.99966c-0.53693,-0.19565 -1.06081,-0.40149 -2.10068,-0.75867c-0.50848,-0.17465 -1.51184,-0.50606 -2.52083,-0.70834c-0.991,-0.19867 -1.97847,-0.27438 -2.45834,-0.3125c-0.92697,-0.07362 -2.21209,-0.16542 -2.971,-0.30617c-0.70274,-0.13033 -1.66277,-0.41577 -2.57066,-0.71466c-0.90112,-0.29665 -1.5,-0.5 -2.4,-0.8c-0.9,-0.3 -1.8,-0.59999 -2.7,-0.89999c-0.9,-0.3 -1.80359,-0.60286 -2.42084,-0.8c-0.6354,-0.20294 -1.99854,-0.60732 -2.73183,-0.7955c-0.74541,-0.1913 -1.49014,-0.3752 -2.58067,-0.53783c-0.68029,-0.10146 -1.67212,-0.15398 -2.31933,-0.2765c-1.38401,-0.26202 -2.10357,-0.59158 -2.84734,-0.911c-0.75102,-0.32254 -1.82842,-0.82477 -2.51466,-1.0925c-0.64493,-0.25162 -1.57288,-0.56647 -2.48534,-0.72c-0.89407,-0.15045 -1.49985,-0.15509 -2.4,-0.16534c-1.19859,-0.01364 -2.07916,-0.00133 -2.64283,-0.00133c-1.2705,0 -1.9229,0.12247 -2.9355,-0.00017c-0.92038,-0.11147 -1.30181,-0.99796 -2.24367,-0.99966c-0.65648,-0.00119 -1.83289,0.27876 -2.46467,0.43584c-0.67506,0.16783 -1.98505,0.55031 -2.54266,0.76399c-0.73611,0.28209 -1.77067,0.8 -2.57067,1.2c-0.6,0.3 -1.6085,0.78169 -2.17916,1.10001c-1.0179,0.56776 -1.67342,0.95906 -2.41017,1.47467c-0.65859,0.46091 -0.6197,1.44672 -0.61066,2.35866c0.00675,0.68111 -0.01495,1.5363 0.5,2.66667c0.28895,0.63428 0.79041,1.20583 1.296,1.8c0.51567,0.60602 1.29727,1.48911 1.74683,2.10449c0.66886,0.91557 1.06777,1.57401 1.65717,2.61667c0.40833,0.72237 0.59301,1.09741 1,1.8175c0.39328,0.69585 1.18535,1.90279 1.60001,2.38933c0.58001,0.68056 1.39999,1.472 2,2.07201c0.6,0.59999 1.19999,1.2 1.8,1.8c0.6,0.59999 1.39999,1.39999 2,2c0.4,0.39999 0.98779,1.01244 1.80134,1.79866c0.61048,0.58998 1.25623,1.16473 2.28266,1.71733c0.52827,0.28441 1.39529,0.58221 2.39484,1.20534c0.49007,0.30551 1.14169,0.9249 2.2545,1.51199c0.61605,0.32501 1.3328,0.53972 2.05199,0.828c0.73714,0.29549 1.80915,0.85999 2.46201,1.353c0.66961,0.50566 1.30355,1.09668 1.63667,1.38834c1.03187,0.90344 1.76488,1.49771 2.516,2.07651c0.3728,0.28728 1.1076,0.84731 2.179,1.59933c0.67215,0.47179 1.34947,0.92453 2.088,1.31699c1.21264,0.64439 1.69453,0.81026 2.6865,1.20451c0.51067,0.20296 1.03388,0.37991 2.03133,0.79999c1.36026,0.57286 2.0894,0.98419 2.70317,1.41068c0.58888,0.40918 1.14783,0.89552 2.17616,1.61067c0.78731,0.54753 1.22089,0.80655 2.09583,1.35333c0.43837,0.27396 1.70673,1.05855 2.46934,1.53867c0.69872,0.4399 1.34032,0.85594 1.96799,1.2c0.89047,0.48811 1.7994,0.85954 2.40267,1.076c1.1938,0.42834 1.80284,0.59529 2.65833,0.91066c0.77626,0.28616 1.72734,0.8 2.339,1.3l0.70267,0.67917" id="svg_10" stroke-width="2" stroke="#000" fill="none"/>
  <path t="20958,21322,21322,21322,21340,21340,21340,21340,21340,21340,21340,21356,21356,21356,21356,21356,21356,21375,21375,21375,21375,21376,21390,21390,21390,21390,21390,21390,21407,21407,21407,21407,21407,21424,21424,21424,21424,21424,21440,21440,21440,21440,21440,21457,21457,21475,21475,21492,21492,21621,21640,21656,21656,21679,21679,21679,21679,21690,21690,21690,21690,21707,21707,21707,21707,21707,21725,21725,21725,21725,21725,21725,21725,21742,21742,21742,21742,21742,21742,21742,21742,21760,21760,21760,21760,21760,21760,21760,21760,21777,21778,21778,21778,21778,21778,21778,21794,21794,21794,21794,21794,21794,21794,21795,21811,21811,21811,21811,21811,21811,21812,21812,21828,21829,21829,21829,21829,21829,21829,21846,21846,21846,21846,21846,21846,21846,21863,21863,21863,21863,21863,21863,21880,21881,21881,21900,21900" d="m152,236c-0.72333,2.02333 -1.07437,2.58957 -1.52333,3.22333c-0.79431,1.12128 -1.11488,1.52322 -1.791,2.38651c-0.35516,0.45348 -0.72147,0.91586 -1.49467,1.842c-0.39072,0.46799 -1.18349,1.38838 -1.98965,2.26018c-0.3932,0.42522 -0.78015,0.84134 -1.56534,1.60533c-0.74088,0.72087 -1.46208,1.3582 -2.15201,1.91466c-0.65192,0.5258 -1.31841,1.00731 -1.96799,1.53601c-1.05255,0.85667 -1.40364,1.19884 -2.15201,1.89333c-0.38602,0.35822 -1.16495,1.09441 -1.56534,1.45601c-1.1879,1.07283 -1.59665,1.39653 -2.37732,2.04666c-0.74998,0.62457 -1.1394,0.89758 -2.08801,1.836c-0.58606,0.57977 -1.07803,1.20392 -1.584,1.79999c-0.51268,0.60397 -1.38445,1.50812 -2.05016,2.09552c-0.67099,0.59207 -1.03226,0.84656 -1.64583,1.41916c-1.03185,0.96295 -1.45311,1.6691 -2.05334,2.51868c-0.47128,0.66705 -1.09766,1.26901 -1.7,1.86667c-0.68668,0.68134 -1.34399,0.66019 -0.728,0.09866c0.59975,-0.54672 1.59902,-0.95837 2.38517,-1.45584c0.56685,-0.3587 1.147,-0.74786 2.04283,-1.34283c0.90417,-0.60052 1.5159,-1.00797 2.15717,-1.39999c1.00195,-0.61255 1.72841,-1.00339 2.4895,-1.41068c0.79886,-0.42749 1.21953,-0.63821 2.52,-1.35599c0.45677,-0.25211 1.40001,-0.7941 1.89066,-1.08002c1.02644,-0.59811 1.56126,-0.91541 2.11467,-1.23999c1.16081,-0.68088 1.77081,-1.03491 2.39734,-1.39868c0.64047,-0.37189 1.29367,-0.74777 2.616,-1.52531c0.66736,-0.39241 1.33578,-0.78447 2.64799,-1.58934c0.64688,-0.39677 1.28078,-0.79745 1.905,-1.1955c0.61577,-0.39265 1.22011,-0.78351 1.815,-1.1685c0.58511,-0.37866 2.2791,-1.47076 2.82533,-1.8145c0.53645,-0.33757 1.06538,-0.6698 2.12134,-1.30067c0.52371,-0.31288 1.04582,-0.62866 2.66667,-1.52083c0.55269,-0.30423 1.11844,-0.60301 1.69499,-0.89999c1.17685,-0.60617 1.78406,-0.90196 2.40001,-1.20001c0.62404,-0.30197 1.90421,-0.90172 2.55949,-1.19983c0.66071,-0.30057 1.32538,-0.59937 2.658,-1.17934c0.65871,-0.28667 1.31044,-0.56496 1.95149,-0.83549c1.23495,-0.52116 1.82623,-0.76508 2.964,-1.23267c0.55446,-0.22786 1.10565,-0.4519 2.21066,-0.90533c0.56282,-0.23096 1.72845,-0.71291 2.33717,-0.96866c1.25928,-0.52908 1.89789,-0.80309 2.53667,-1.07867c0.63455,-0.27376 1.26218,-0.53877 3.02083,-1.33333c0.53653,-0.2424 1.04294,-0.47943 1.98134,-0.92c0.85091,-0.39949 1.62173,-0.77785 2.69682,-1.22501c0.65125,-0.27087 1.53917,-0.575 2.48851,-0.855l0.79166,-0.16667" id="svg_11" stroke-width="2" stroke="#000" fill="none"/>
  <path t="22382,22473,22474,22474,22474,22474,22474,22493,22493,22493,22493,22493,22493,22493,22493,22509,22509,22509,22509,22509,22509,22509,22509,22528,22528,22528,22528,22528,22528,22528,22528,22528,22544,22544,22544,22544,22544,22544,22544,22544,22544,22561,22561,22561,22561,22561,22561,22561,22561,22561,22583,22583,22583,22583,22583,22583,22583,22583,22583,22593,22593,22593,22593,22593,22593,22593,22611,22611,22611,22611,22611,22628,22628,22628,22628,22628,22645,22645,22662,22753,22770,22786,22786,22786,22805,22805,22805,22805,22805,22822,22822,22822,22822,22839,22839,22839,22839,22839,22857,22857,22857,22872" d="m206,228c-2.62933,0 -3.09483,0 -4.14583,0c-0.5795,0 -1.19101,0 -1.83151,0c-2.06549,0 -2.79199,0 -3.53249,0c-0.75151,0 -1.511,0 -2.27551,0c-0.76649,0 -1.532,0 -3.04799,0c-0.7455,0 -1.48401,0 -2.21851,0c-0.73351,0 -2.2095,0 -2.95799,0c-0.75951,0 -2.3235,0 -3.1335,0c-0.83,0 -1.68001,0 -2.55,0c-0.89,0 -1.8,0 -2.73001,0c-0.95,0 -2.90999,-0.00049 -3.91916,0.00017c-1.02417,0.00067 -2.05835,0.00233 -3.0975,0.0105c-1.03918,0.00816 -2.07341,0.02162 -3.0975,0.04649c-1.00925,0.02451 -2.96283,0.10397 -3.89749,0.16434c-0.90536,0.05847 -1.78043,0.13116 -2.625,0.21451c-0.81544,0.08047 -1.60045,0.17122 -2.355,0.26849c-0.72543,0.09352 -2.08534,0.29335 -2.7205,0.39551c-0.60884,0.09793 -1.1933,0.19839 -1.7565,0.29999c-0.54579,0.09845 -1.07617,0.19916 -1.5945,0.3c-0.50967,0.09917 -1.51352,0.29991 -2.01334,0.40001c-0.49886,0.0999 -0.9958,0.19936 -1.4895,0.29999c-0.97493,0.19873 -1.92619,0.39613 -2.84399,0.60001c-0.88351,0.19626 -1.74112,0.40088 -2.59201,0.60001c-0.85844,0.2009 -1.74051,0.40382 -2.65466,0.59866c-0.91252,0.19449 -1.78539,0.37225 -2.58,0.51599c-0.95253,0.17232 -1.92543,0.25615 -2.73999,0.71068c-0.72795,0.40619 -1.01668,0.57466 -0.05684,0.57466c0.7395,0 1.623,0 2.6235,0c0.71866,0 1.46933,0 2.24399,0c0.79068,0 1.9895,0 2.79384,0c0.81633,0 1.65266,0 2.96217,0c0.91466,0 1.83733,0 2.29166,0c0.87466,0 2.04167,0 2.96567,0l0.90533,0l0.918,0" id="svg_12" stroke-width="2" stroke="#000" fill="none"/>
  <path t="23847,23931,23931,23931,23931,23931,23931,23931,23931,23931,23948,23948,23948,23948,23948,23948,23948,23948,23968,23968,23968,23968,23968,23981,23981,23981,23981,23981,23999,23999,23999,23999,23999,23999,23999,23999,24015,24015,24015,24015,24015,24015,24015,24015,24015,24032,24032,24032,24032,24032,24032,24032,24032,24032,24049,24050,24050,24050,24050,24050,24050,24050,24050,24066,24066,24066,24066,24066,24066,24066,24066,24066,24084,24084,24084,24085,24085,24085,24085,24085,24085,24101,24101,24101,24101,24101,24101,24101,24101,24101,24120,24120,24120,24120,24120,24120,24120,24120,24120,24135,24135,24135,24135,24135,24135,24135,24135,24135,24152,24152,24152,24152,24152,24152,24152,24152,24152,24169,24169,24169,24169,24169,24169,24169,24169,24169,24187,24187,24187,24187,24187,24188,24188,24188,24188,24204,24205,24205,24205,24205,24205,24205,24205,24205,24222,24222,24222,24222,24222,24222,24222,24222,24222,24239,24239,24239,24239,24239,24239,24240,24240,24240,24257,24257,24257,24257,24257,24257,24257,24257,24257,24273,24273,24274,24274,24274,24274,24274,24274,24274,24290,24291,24291,24291,24291,24291,24291,24291,24291,24307,24307,24307,24307,24307,24307,24307,24307,24308,24325,24325,24325,24325,24325,24325,24326,24326,24326,24342,24343,24343,24343,24343,24343,24365,24366,24376,24376,24376,24376,24394,24394,24394,24410,24410,24430,24430,24446,24539,24539,24570,24611,24635,24691,24708,24726,24744,24761,24761,24777" d="m409,173c-21.16666,0 -22.63434,0 -23.948,0c-1.17566,0 -2.22934,0 -3.177,0c-0.85767,0 -1.64133,0 -2.367,0c-1.34134,0 -1.98618,0 -2.62,0c-0.62183,0 -1.23065,0 -1.8255,0c-0.57983,0 -1.14368,0 -2.72916,0c-0.49036,0 -1.41901,0 -2.29169,0c-0.83264,0 -2.04169,0.00388 -2.84564,-0.00133c-0.82803,-0.00536 -1.70432,-0.02867 -2.16751,-0.05583c-1.52979,-0.08971 -2.09354,-0.1609 -2.68582,-0.22818c-1.26221,-0.14336 -1.92612,-0.23471 -2.61069,-0.32533c-0.70276,-0.09303 -1.42114,-0.19194 -2.89865,-0.38933c-0.75476,-0.10083 -1.5188,-0.20035 -2.2905,-0.3045c-0.77896,-0.10515 -1.56409,-0.21368 -2.35352,-0.3315c-0.79422,-0.11852 -1.59308,-0.23602 -3.18933,-0.53067c-0.80176,-0.14799 -1.60422,-0.31631 -2.41351,-0.48599c-0.8187,-0.17165 -1.64844,-0.35002 -2.49448,-0.522c-0.86298,-0.17542 -1.74478,-0.36073 -3.59201,-0.65866c-0.96292,-0.1553 -1.95541,-0.286 -2.9715,-0.4095c-1.03592,-0.12592 -2.09073,-0.23891 -3.16049,-0.34651c-1.08127,-0.10875 -2.17191,-0.21036 -4.36801,-0.41066c-1.10028,-0.10036 -2.20251,-0.20041 -3.30899,-0.2955c-1.11218,-0.09558 -2.23242,-0.18706 -3.36301,-0.26849c-1.14209,-0.08226 -2.29797,-0.16568 -4.66135,-0.26933c-1.20901,-0.05302 -2.4346,-0.08475 -3.672,-0.114c-1.24527,-0.02943 -2.49469,-0.05162 -3.74399,-0.078c-1.24536,-0.02629 -2.48322,-0.04416 -4.91733,-0.14134c-1.19116,-0.04756 -2.36679,-0.11517 -3.5325,-0.18599c-1.16095,-0.07053 -2.32159,-0.14864 -3.48752,-0.222c-1.17572,-0.07399 -2.366,-0.1561 -4.81332,-0.25867c-1.26337,-0.05295 -2.54929,-0.08473 -3.849,-0.114c-1.30563,-0.0294 -2.60938,-0.05147 -3.90302,-0.078c-1.2757,-0.02615 -2.52597,-0.04169 -4.91464,-0.14134c-1.12637,-0.047 -2.20847,-0.11368 -3.25201,-0.19499c-1.01248,-0.07889 -1.99863,-0.17424 -2.96399,-0.285c-0.95267,-0.10931 -1.89795,-0.22722 -3.784,-0.52c-0.95572,-0.14836 -1.91791,-0.31563 -2.88602,-0.49049c-0.97321,-0.17578 -1.94775,-0.36154 -2.922,-0.5535c-0.97308,-0.19171 -1.94202,-0.38725 -3.85867,-0.78934c-0.94534,-0.19832 -1.88022,-0.39896 -2.80499,-0.60001c-0.91522,-0.19897 -1.82025,-0.39893 -2.715,-0.59999c-0.88524,-0.19893 -1.76073,-0.39685 -3.48,-0.8c-0.84554,-0.19827 -1.68118,-0.39931 -2.50951,-0.5955c-0.82101,-0.19447 -1.63579,-0.38609 -2.4465,-0.5685c-0.80563,-0.18126 -1.6067,-0.36417 -3.21066,-0.66933c-0.79842,-0.1519 -1.59686,-0.2843 -2.39101,-0.4095c-0.7872,-0.1241 -1.56715,-0.23749 -2.33699,-0.34651c-0.75752,-0.10728 -1.50182,-0.20595 -2.93867,-0.41066c-0.69055,-0.09839 -1.36282,-0.19894 -2.019,-0.3c-0.6425,-0.09895 -1.27277,-0.19937 -1.89299,-0.3c-0.61244,-0.09937 -1.21869,-0.19994 -2.42134,-0.39999c-0.60001,-0.09981 -1.19977,-0.20013 -1.8,-0.2955c-0.59976,-0.09529 -1.19958,-0.1866 -1.8,-0.26849c-0.59959,-0.08177 -1.19868,-0.16472 -2.39999,-0.26933c-0.59927,-0.05219 -1.19852,-0.08479 -1.7955,-0.10951c-0.59369,-0.02458 -1.18364,-0.0383 -1.76849,-0.04649c-0.57881,-0.00812 -1.15067,-0.00999 -2.26933,-0.01067c-0.545,-0.00032 -1.08,0 -1.60501,0c-0.515,0 -1.01999,0 -1.515,0c-0.485,0 -0.95999,0 -1.87999,0c-0.44501,0 -0.88,0 -1.30501,0c-0.41499,0 -0.81999,0 -1.215,0c-0.38499,0 -0.75999,0 -1.48,0c-0.34517,0 -0.68134,0 -1.00951,0c-0.32117,0 -0.63634,0 -0.9465,0c-0.30617,0 -0.60933,0 -1.21066,0c-0.3,0 -0.60001,0 -0.89999,0c-0.3,0 -0.60001,0 -0.90001,0c-0.3,0 -0.59999,0 -1.2,0c-0.29984,0 -0.59866,0 -0.89549,0c-0.58368,0 -1.41917,0 -2.65634,0c-0.7095,0 -1.78149,0 -2.41617,0c-1.032,0 -1.72667,0 -2.69867,0c-1.06133,0 -1.72433,0 -2.73332,0c-0.8,0 -1.79984,0 -2.57918,0c-0.99933,0 -2.02083,0 -2.82083,0c-0.89999,0 -1.8,0 -2.67917,0c-0.87799,0 -1.82083,0 -2.72083,0c-0.90001,0 -1.8,0 -2.60001,0l-0.89999,0" id="svg_13" stroke-width="2" stroke="#000" fill="none"/>
  <path t="25973,26108,26108,26108,26108,26125,26125,26125,26125,26125,26142,26142,26142,26142,26142,26142,26142,26159,26159,26159,26159,26159,26159,26159,26177,26178,26178,26178,26195,26195,26195,26195,26212,26212,26212,26212,26230,26230,26230,26248,26248,26265,26386,26420,26420,26420,26437,26437,26437,26437,26455,26455,26455,26455,26455,26455,26455,26474,26474,26474,26474,26474,26488,26488,26488,26488,26488,26506,26506,26506,26506,26506,26523,26523,26523,26523,26523,26523,26540,26540,26540,26540,26540,26540,26558,26558,26559,26559,26575,26575,26575,26575,26575,26594,26595,26595,26595,26595,26611,26611,26611,26611,26611,26629,26629,26629,26629,26645,26645,26645,26646,26662,26662,26662,26679,26680,26680,26680,26697,26697,26697,26697,26698,26714,26715,26715,26715,26715,26730,26731,26731,26731,26731,26748,26749,26749,26749,26749,26749,26749,26765,26765,26765,26765,26765,26783,26783,26783,26783,26783,26800,26800,26800,26801,26816,26816,26817,26834,26834,26851,26851,26896" d="m190,151c-1.14,0.57201 -2.06847,1.05235 -2.76083,1.46617c-0.36235,0.21657 -1.43648,0.93385 -2.0865,1.5045c-0.67271,0.59058 -1.31384,1.2981 -1.63666,1.68666c-1.06633,1.28355 -1.40302,1.79576 -1.77768,2.30516c-0.38535,0.52391 -0.76822,1.0674 -1.59999,2.13667c-0.41911,0.53879 -1.29836,1.57376 -1.75934,2.0575c-0.45386,0.47626 -1.38017,1.35315 -1.83733,1.76001c-0.44164,0.39305 -1.29735,1.09802 -2.37733,2.0405c-0.60318,0.52638 -1.12613,1.01843 -1.608,1.491c-0.98497,0.96594 -1.50876,1.50943 -2.07716,2.05183c-0.57889,0.5524 -1.47072,1.34407 -2.07784,1.81334c-0.58273,0.45044 -1.1519,0.86162 -2.23466,1.51999c-0.69662,0.42358 -1.38382,0.66571 -2.28,1.36667c-0.57106,0.44667 -1.24966,1.16985 -1.60268,1.884c-0.33276,0.6732 0.80861,0.89886 1.48933,1.08533c1.22037,0.33429 1.92015,0.7023 2.31,0.87234c0.84035,0.36655 2.2486,0.96193 2.75934,1.15833c1.05981,0.40752 1.60812,0.59969 2.15733,0.8c1.09489,0.39935 1.63922,0.58197 3.157,1.19983c0.47466,0.19322 1.37065,0.5903 1.80133,0.77934c0.832,0.3652 2.03673,0.86862 2.84167,1.1355c0.79538,0.2637 1.59897,0.47859 2.39999,0.68399c1.19884,0.3074 2.0098,0.50279 2.84167,0.72217c0.43074,0.1136 1.33157,0.3559 2.80116,0.80051c0.52745,0.15958 1.0665,0.33296 2.17799,0.67867c0.56424,0.17549 1.12601,0.36499 2.8125,0.83333c0.54329,0.15088 1.60011,0.41118 2.10934,0.53067c0.97391,0.22855 1.88934,0.41875 3.11449,0.73601c0.73553,0.19048 1.42162,0.40135 2.091,0.59999c1.0179,0.30206 2.1138,0.60344 2.4985,0.71066c0.80063,0.22313 1.64543,0.45837 2.97467,0.91084c0.46463,0.15816 1.40649,0.50819 2.35333,0.88916c0.47394,0.19069 1.85957,0.78731 2.30367,0.98917c0.8618,0.39174 1.67726,0.78525 2.45999,1.14301c1.09126,0.49876 1.7733,0.77988 2.42567,1.02116c0.92734,0.34299 1.836,0.636 2.73599,0.936c0.60001,0.2 1.49846,0.50467 2.40001,0.79984c0.89848,0.29416 1.79318,0.57866 2.7,0.73349c0.90361,0.15428 1.54495,0.1655 2.21434,0.2765c1.12572,0.18669 1.95761,0.44781 2.83632,0.7515c0.90291,0.31204 1.34207,0.49564 2.61601,0.972c0.76419,0.28575 1.48302,0.54034 2.18399,0.79201c0.7177,0.25766 1.89101,0.69997 2.76817,1.02733c0.94208,0.35159 1.43576,0.53026 1.94733,0.69467c1.59244,0.51181 2.15245,0.64226 3.282,0.89549c0.56529,0.12674 1.13062,0.2384 2.242,0.45267c0.5403,0.10417 2.06882,0.39589 2.9955,0.60901c0.44333,0.10196 1.29977,0.31023 2.11166,0.58083c1.21362,0.4045 2.00267,0.76733 2.80267,1.11467c0.8,0.34734 1.18977,0.54346 2.39967,0.9785c0.7851,0.28229 1.56075,0.49379 2.286,0.717c1.27512,0.39244 2.04779,0.69272 2.70532,1.0045c1.01645,0.48195 1.77301,0.90001 2.58749,1.39984l0.61084,0.46416l0.86902,0.41518" id="svg_14" stroke-width="2" stroke="#000" fill="none"/>
  <path t="29050,29212,29212,29230,29231,29231,29231,29231,29249,29249,29249,29249,29249,29265,29265,29265,29265,29265,29266,29282,29282,29282,29282,29282,29282,29282,29282,29300,29300,29300,29300,29301,29301,29301,29301,29317,29317,29317,29317,29317,29317,29317,29317,29317,29333,29333,29333,29333,29333,29333,29333,29333,29333,29352,29352,29352,29352,29352,29352,29352,29352,29352,29368,29368,29368,29368,29368,29368,29368,29385,29385,29385,29385,29385,29402,29402,29402,29402,29402,29419,29419,29419,29419,29419,29419,29419,29437,29437,29437,29437,29437,29437,29437,29454,29455,29455,29455,29455,29455,29455,29472,29472,29472,29472,29472,29472,29472,29489,29489,29489,29489,29489,29489,29506,29506,29507,29507,29507,29507,29507,29507,29523,29523,29523,29523,29523,29523,29523,29523,29541,29541,29541,29541,29541,29541,29541,29558,29558,29558,29558,29558,29559,29559,29559,29574,29574,29574,29574,29574,29574,29575,29575,29595,29595,29595,29595,29595,29595,29595,29610,29610,29610,29610,29610,29610,29610,29629,29629,29629,29629,29629,29629,29629,29629,29644,29644,29644,29644,29644,29644,29644,29661,29661,29661,29661,29661,29661,29680,29680,29680,29680,29680,29694,29694,29694,29694,29694,29713,29713,29713,29713,29713,29728,29728,29728,29728,29728,29746,29746,29746,29746,29746,29762,29762,29762,29762,29781,29781,29781,29781,29797,29797,29797,29797,29813,29813,29813,29831,29831,29831,29848,29848,29865,29865,29882,29882,29901,29901,29917,29917,29935,29951,29968,30061,30061,30081,30094,30113,30113,30128,30128,30128,30128,30128,30145,30145,30145,30145,30145,30162,30162,30162,30162,30181,30181,30181,30181,30181,30197,30197,30197,30197,30214,30214,30214,30214,30230,30231,30231,30248,30248,30248,30266,30283,30475,30506,30531,30547,30564,30582,30582,30582,30597,30598,30598,30614,30615,30615,30615,30632,30632,30632,30632,30649,30649,30649,30649,30666,30666,30666,30667,30667,30684,30684,30684,30684,30702,30702,30702,30702,30719,30719,30720,30720,30720,30736,30736,30736,30736,30736,30753,30753,30753,30753,30769,30769,30770,30786,30786,30787,30787,30803,30804,30804,30821,30821,30821,30838,30838,30838,30856,30856,30856,30856,30874,30874,30874,30875,30890,30890,30890,30907,30907,30907,30908,30925,30925,30926,30926,30942,30942,30942,30960,30960,30961,30961,30977,30977,30977,30994,30994,30995,30995,31011,31012,31012,31028,31028,31028,31045,31045,31045,31065,31065,31065,31084,31084,31084,31084,31098,31098,31098,31116,31117,31117,31117,31132,31132,31132,31132,31148,31148,31148,31168,31168,31168,31182,31182,31200,31200,31200,31225,31226,31226,31258,31277,31277,31292,31309,31310" d="m429,207c-1.86801,0.02133 -2.58777,0.07124 -3.86417,0.44299c-0.39322,0.11453 -1.22806,0.41544 -2.09583,0.77834c-0.87918,0.36768 -1.71393,0.76512 -2.47202,1.18001c-0.72449,0.3965 -1.41867,0.83466 -2.13599,1.284c-1.17517,0.73616 -1.60178,1.00371 -2.51468,1.55066c-0.47867,0.28679 -0.97064,0.58176 -2.00534,1.16534c-1.07452,0.60605 -1.63434,0.8974 -2.76917,1.50766c-0.57925,0.31151 -1.16574,0.62901 -1.75348,0.963c-0.59595,0.33865 -1.21567,0.66118 -2.9895,1.87117c-0.61005,0.41612 -1.20743,0.87167 -1.81052,1.33951c-0.61334,0.47578 -1.22708,0.97252 -1.8465,1.48349c-0.62997,0.51967 -1.90976,1.60019 -2.564,2.155c-0.66177,0.56119 -1.32693,1.12709 -1.9935,1.69351c-0.66443,0.56459 -1.32358,1.1245 -1.97549,1.67549c-0.64008,0.541 -1.87555,1.57764 -2.46716,2.067c-0.57376,0.47459 -1.13617,0.93445 -1.69202,1.3815c-0.5495,0.44194 -1.10007,0.87761 -1.65601,1.30949c-0.5614,0.43613 -1.72748,1.31921 -2.33716,1.77335c-0.62366,0.46454 -1.25977,0.93375 -1.89749,1.41449c-0.64059,0.48293 -1.27701,0.97006 -1.89749,1.46851c-0.61285,0.49231 -1.76849,1.48915 -2.29785,1.995c-0.51321,0.49042 -1.44769,1.46693 -1.88132,1.938c-0.41699,0.45299 -1.17511,1.32503 -1.91669,2.0625c-0.66611,0.6624 -1.33401,1.21227 -1.992,1.70399c-0.65158,0.48695 -1.69647,1.2173 -2.06131,1.48134c-0.76031,0.55025 -1.55786,1.12839 -1.97501,1.41917c-1.29837,0.90504 -1.75845,1.19781 -2.6955,1.79999c-0.47815,0.30727 -0.96674,0.61166 -1.94733,1.25267c-0.49841,0.32581 -1.50021,1.00298 -2.49551,1.72684c-0.50241,0.36539 -0.99905,0.74261 -2,1.49066c-0.49951,0.37331 -0.99173,0.75301 -2,1.45866c-0.992,0.69426 -1.49954,1.01471 -2,1.34134c-0.99908,0.65207 -1.5033,0.97307 -2,1.30934c-1.51019,1.02243 -2.00119,1.39838 -2.5,1.76865c-1.00241,0.74411 -1.49902,1.12332 -2,1.49469c-0.49905,0.36996 -1.9986,1.43341 -2.5,1.76865c-0.49863,0.3334 -1.50046,0.98331 -2,1.30936c-0.50046,0.32663 -2.00217,1.33829 -2.50015,1.69632c-0.50339,0.36194 -1.51199,1.12311 -2.02069,1.51999c-0.51666,0.40308 -1.03775,0.81824 -1.56448,1.245c-1.6405,1.32916 -2.19885,1.79715 -2.76733,2.26602c-0.57285,0.47244 -1.14725,0.94742 -1.72202,1.422c-0.57257,0.47275 -1.14017,0.94272 -2.25867,1.85867c-0.54462,0.44598 -1.6102,1.31311 -2.13065,1.74133c-0.51587,0.42447 -1.02893,0.84641 -1.53152,1.27798c-1.51547,1.30133 -2.00568,1.76755 -2.50583,2.23135c-0.50418,0.46753 -1.00818,0.94257 -1.5195,1.41599c-0.51401,0.47592 -1.552,1.43091 -2.64581,2.33334c-0.54852,0.45255 -1.11423,0.88419 -1.686,1.30499c-0.56961,0.41919 -1.14188,0.82809 -2.29468,1.60001c-0.56601,0.379 -1.68512,1.09644 -2.23132,1.44016c-0.53644,0.33759 -1.59491,0.98734 -2.12134,1.30066c-0.52423,0.31201 -1.58081,0.92535 -2.66666,1.52084c-0.55307,0.30331 -1.121,0.59598 -2.25867,1.22134c-0.57654,0.31693 -1.15759,0.63724 -1.72202,0.99298c-1.71194,1.07895 -2.23636,1.52182 -2.76599,1.95502c-0.53046,0.43387 -1.04498,0.8866 -1.54501,1.3515c-0.98993,0.92041 -1.45581,1.39566 -2.375,2.3125c-0.44571,0.44458 -1.31195,1.3071 -1.74133,1.72c-0.42334,0.40707 -1.27002,1.19437 -1.70932,1.56c-1.31396,1.09366 -1.7963,1.40472 -2.26416,1.72949c-0.92636,0.64307 -1.39795,0.93573 -2.2825,1.55585c-0.84323,0.59116 -1.60938,1.18909 -2.29733,1.80133c-0.66116,0.58838 -0.96524,0.89774 -1.87201,1.79999c-0.6015,0.59851 -1.20001,1.20001 -1.79999,1.79999c-0.60001,0.60001 -1.50198,1.49823 -2.10001,2.10452c-0.30103,0.30518 -0.91003,0.92236 -1.5,1.58081c-0.91577,1.02209 -1.20197,1.39709 -1.80002,2.14001c-0.60196,0.74774 -0.88327,1.13608 -1.79999,2.20801c-0.58942,0.68921 -1.18976,1.33041 -1.79999,1.91998c-0.59027,0.57025 -1.49823,1.32742 -2.09552,1.79401c-0.58206,0.45468 -1.18463,0.86612 -1.93784,1.61932c-0.7532,0.7532 -1.16275,1.35724 -1.61932,1.93784c-0.70798,0.90027 -1.22107,1.50256 -1.77267,2.07419c-0.53946,0.55902 -1.60059,1.49796 -2.08798,1.85199c-0.63562,0.4617 -1.50299,1.15088 -2.07202,1.784c-0.56741,0.63129 -1.37979,1.03094 -2.11465,1.16449c-1.1626,0.21127 -1.85345,0.42834 -2.60001,1.12085c-0.5184,0.4809 -1.23975,1.17252 -1.69998,1.78534c-0.54996,0.73236 -0.83359,1.51016 -1.49551,2.353c-0.56689,0.72183 -1.21002,1.08966 -2.03784,1.595c-0.58246,0.35556 -1.71481,0.16666 -2.55331,0.16666c-0.78401,0 -1.68935,0 -2.61334,0c-0.75467,0 -1.59734,0 -2.496,0c-0.92267,0 -1.83734,0.00421 -2.71733,-0.00134c-0.84003,-0.00531 -1.64246,-0.00555 -2.39999,-0.08398c-1.41064,-0.14603 -2.07291,-0.34723 -2.748,-0.52533c-0.70897,-0.18704 -1.88046,-0.49393 -2.7485,-0.68933c-0.90993,-0.20483 -1.37607,-0.29742 -2.3075,-0.5c-1.36185,-0.2962 -2.2222,-0.49518 -3.041,-0.70001c-0.78116,-0.1954 -1.87518,-0.49936 -2.55634,-0.69867c-0.64952,-0.19006 -1.57349,-0.48318 -2.48534,-0.63467c-0.88997,-0.14786 -1.76399,-0.15793 -2.83333,-0.16666c-0.70499,-0.00577 -1.7123,-0.01364 -2.53067,-0.42532c-0.77216,-0.38843 -1.90996,-0.1214 -2.5145,-0.79617c-0.59166,-0.6604 0.25645,-1.47867 0.83032,-2.14017c0.58376,-0.67288 0.9223,-1.46353 1.40001,-2.04285c0.64442,-0.78146 1.02159,-1.40689 1.40083,-2.05264c0.56699,-0.96545 1.08144,-1.78009 1.45799,-2.35352c0.38872,-0.59195 0.98932,-1.48932 1.58934,-2.38934c0.39999,-0.59998 0.80237,-1.19843 1.39999,-2.10016c0.60239,-0.90891 1.00887,-1.53046 1.40001,-2.18515c0.61403,-1.02777 1.00041,-1.76712 1.39999,-2.51468c0.20021,-0.37454 0.58524,-1.12448 1.2,-2.1785c0.3907,-0.66986 0.99808,-1.61212 1.40001,-2.22018c0.59714,-0.90338 1.00447,-1.50296 1.39999,-2.12216c0.40459,-0.63342 0.99907,-1.64633 1.40266,-2.36316c0.41771,-0.74188 0.83464,-1.51523 1.368,-2.23199c0.82048,-1.10263 1.18356,-1.41235 1.88,-2.03732c0.68544,-0.61508 1.3945,-1.14435 2.30634,-1.92535c0.53658,-0.45959 1.02431,-0.90057 1.64034,-1.60532c0.62672,-0.71698 1.19781,-1.54492 1.60266,-2.09067c0.79059,-1.06573 1.18848,-1.5506 1.8,-2.2045c0.58908,-0.62991 1.20935,-1.21164 1.78934,-1.82083c0.56288,-0.59122 1.19263,-1.39789 1.71066,-2.20001c0.38647,-0.59842 0.99338,-1.39603 1.52083,-2.04166c0.58958,-0.72168 1.18604,-1.59692 1.57918,-2.26367c0.40714,-0.69049 0.76874,-1.40933 1.39999,-2.36133c0.38153,-0.57538 0.99081,-1.30045 1.60001,-1.93066c0.78827,-0.81549 1.21823,-1.1969 1.79999,-1.85983c0.82639,-0.94171 1.21005,-1.49036 1.57916,-2.06369c0.55786,-0.86652 1.00797,-1.77548 1.39551,-2.67917c0.25629,-0.5976 0.46729,-1.22202 1.11066,-2.39865c0.32956,-0.60272 0.69492,-1.18848 1.51468,-2.23468c0.38599,-0.49261 0.99557,-1.15012 1.60001,-1.76532c0.79422,-0.80838 1.41092,-1.41241 1.79999,-1.85849c0.82346,-0.94409 1.20801,-1.487 1.76401,-2.3175c0.35883,-0.53598 0.94177,-1.54602 1.336,-2.2045c0.37439,-0.62537 0.97339,-1.43173 1.52084,-2.02084c0.5683,-0.61154 1.37915,-1.39999 1.97916,-2c0.60001,-0.60001 1.4053,-1.39621 1.79999,-1.81067c0.60828,-0.63872 1.40381,-1.60783 1.80002,-2.142c0.40387,-0.54448 0.98303,-1.37697 1.60001,-2.12601c0.58423,-0.70927 1.21786,-1.35933 1.79999,-2.088c0.61942,-0.77538 1.00305,-1.35207 1.39999,-1.93784c0.60468,-0.89233 1.19525,-1.79428 1.60001,-2.37466c0.39536,-0.56691 1.19623,-1.60243 1.59549,-2.06366c0.56345,-0.65091 1.2634,-1.44052 1.64734,-2.05717c0.48584,-0.78029 0.95718,-1.79999 1.25717,-2.39999c0.5,-1 0.76535,-1.62347 1.25717,-2.39999c0.52359,-0.82669 0.99927,-1.43921 1.67349,-2.02934c0.73392,-0.64238 1.66934,-0.79216 2.26935,-1.27516l0.68933,-0.6955l0.48932,-0.70018l0.20535,-0.78516" id="svg_15" stroke-width="2" stroke="#000" fill="none"/>
  <path t="32065,32221,32221,32221,32221,32221,32221,32238,32238,32238,32238,32238,32239,32239,32239,32239,32255,32255,32255,32255,32255,32255,32255,32255,32255,32272,32272,32272,32273,32273,32273,32273,32273,32273,32289,32290,32290,32290,32290,32290,32290,32290,32290,32308,32308,32308,32308,32308,32308,32308,32308,32308,32325,32325,32325,32325,32325,32325,32325,32325,32342,32342,32342,32342,32342,32342,32342,32360,32360,32360,32360,32360,32375,32375,32375,32375,32375,32375,32394,32394,32394,32394,32394,32394,32410,32410,32410,32410,32410,32428,32428,32428,32428,32428,32428,32446,32446,32446,32446,32446,32462,32462,32462,32462,32463,32481,32481,32481,32481,32498,32498,32498,32516,32516,32590,32695,32736,32766,32783,32800,32817,32817,32834,32852,32873,32874,32887,32903,32903,32903,32922,32922,32922,32922,32938,32938,32938,32938,32938,32955,32955,32955,32955,32955,32973,32973,32973,32973,32973,32989,32989,32989,33006,33006,33006,33006,33006,33021,33021,33021,33021,33038,33038,33038,33038,33038,33056,33056,33056,33056,33056,33073,33073,33073,33073,33073,33073,33091,33091,33091,33091,33091,33107,33107,33107,33107,33107,33124,33124,33124,33124,33124,33141,33141,33141,33141,33141,33159,33159,33159,33160,33160,33160,33176,33176,33176,33176,33176,33195,33195,33195,33195,33195,33211,33212,33212,33212,33227,33227,33227,33227,33245,33245,33245,33245,33261,33261,33261,33262,33262,33278,33278,33278,33297,33297,33297,33297,33297,33314,33315,33315,33315,33315,33330,33330,33331,33331,33348,33348,33348,33348,33348,33364,33364,33364,33364,33381,33381,33381,33400,33401,33401,33418,33434,33434,33452,33468,33485,33485,33514,33514,33618,33635,33653,33653,33669,33669,33669,33687,33688,33688,33688,33706,33706,33706,33706,33724,33724,33724,33724,33724,33740,33740,33740,33740,33755,33755,33755,33775,33775,33775,33775" d="m272,266c2.42932,0 3.452,0 4.03732,0c0.62933,0 1.29868,0 2.74133,0c1.55469,0 2.36484,0 3.19601,0c0.85315,0 1.72934,0 2.62949,0c0.92517,0 1.87634,0 2.85452,0c2.04132,0 3.10516,0 4.19199,0c1.10284,0 2.21466,0 3.32849,0c1.10886,0 2.20569,0 3.28351,0c2.07068,0 3.05118,0 3.99466,0c0.90952,0 1.78799,0 2.63852,0c0.8255,0 1.629,0 2.41348,0c1.52402,0 2.26883,0 3.00269,0c0.72183,0 1.43066,0 2.12549,0c0.67984,0 1.34366,0 1.99051,0c1.23865,0 1.82916,0 2.40265,0c0.55951,0 1.108,0 1.6485,0c0.53552,0 1.069,0 1.60352,0c1.08398,0 1.63882,0 2.20267,0c0.57184,0 1.15067,0 1.7355,0c0.58981,0 1.78049,0 2.97916,0c0.59967,0 1.79099,0 2.37866,0c1.14935,0 1.707,0 2.25067,0c1.52798,0 2.46533,0 3.37067,0c0.45065,0 1.36801,0 2.84283,0c0.52649,0 1.6185,0 2.17801,0c1.13098,0 1.6965,0 2.8125,0c1.08133,0 1.6095,0 2.64581,0c1.01636,0 1.5195,0 3.02084,0c0.5,0 1.5,0 2.5,0c0.5,0 2,0 2.5,0c1,0 2,0 2.5,0c1,0 2,-0.00403 2.99866,0.00134c0.99069,0.00534 1.48145,-0.00021 2.44418,0.05582c1.39246,0.08102 1.83728,0.15399 2.69998,0.2955c0.83801,0.13745 1.64828,0.32581 2.85718,0.48068c0.79498,0.10187 1.5784,0.14032 2.328,0.15598c1.33841,0.02795 2.15765,0.01068 2.85068,0.01068c1.02115,0 1.80774,-0.12009 2.79965,0.00015c0.92026,0.11154 1.02167,1.09985 1.02167,1.99985c0,0.83334 0,1.64667 0,2.48401c0,0.86331 0.19711,1.98029 -0.28534,2.71466c-0.52481,0.79883 -1.4234,0.83868 -2.25632,1.32217c-0.80032,0.46457 -1.46066,0.8139 -2.27966,1.04315c-1.16431,0.3259 -1.77966,0.3559 -2.69952,0.436c-0.63608,0.05539 -2.00262,0.21207 -2.74081,0.35718c-0.78201,0.15372 -1.59982,0.34818 -2.02499,0.44415c-1.33408,0.30115 -2.26538,0.4975 -2.73868,0.58801c-0.94809,0.1813 -1.88788,0.35037 -3.25299,0.48917c-0.4343,0.04416 -1.27481,0.09323 -2.07501,0.11081c-0.75989,0.01669 -2.16266,0.01068 -2.82132,0.01068c-0.97803,0 -1.992,0 -2.71069,0c-0.75064,0 -1.52533,0 -2.31598,0c-1.19867,0 -1.99869,0 -2.79868,0c-0.79999,0 -2,0 -2.80133,0c-0.80933,0 -1.63467,0 -2.48401,0c-1.33615,0 -2.27182,0 -2.75067,0c-0.97467,0 -1.96533,0 -2.96399,0c-1,0 -1.5,0 -2.5,0c-1,0 -1.5,0 -2.99985,0c-0.49881,0 -1.48947,0 -2.46414,0c-0.47885,0 -1.86935,0 -2.75201,0c-0.85867,0 -1.70932,0 -2.13666,0c-1.314,0 -2.23135,0 -3.17267,0c-0.47467,0 -1.422,0 -2.80801,0c-0.88266,0 -1.74133,0 -2.16666,0c-0.85266,0 -2.16666,0 -3.08533,0c-0.47183,0 -1.43552,0 -2.41916,0c-0.49686,0 -1.99536,0 -2.99103,0c-0.4938,0 -1.46848,0 -2.41916,0c-0.91867,0 -1.80011,-0.00702 -2.64932,0.01068c-0.82556,0.01721 -1.63852,0.04419 -2.83585,0.21066c-0.79874,0.11105 -1.57776,0.28693 -2.34299,0.42599c-1.08844,0.19781 -2.104,0.30548 -2.75717,0.33182c-0.65234,0.02631 -2.02158,0.01529 -2.75717,0.02533c-0.76376,0.01044 -1.55075,0.02011 -2.74283,0.16217c-0.80157,0.09552 -1.58899,0.26035 -2.36401,0.40802c-0.75034,0.14297 -1.81293,0.32712 -2.81064,0.38931c-0.64993,0.04053 -1.99203,0.03226 -2.71201,0.03735c-0.76004,0.00537 -1.56125,0.01666 -2.39999,0.08398c-1.33713,0.10733 -1.79672,0.19412 -2.72803,0.34c-0.92471,0.14484 -1.81387,0.30688 -2.65198,0.40802c-1.12561,0.1358 -1.83411,0.15744 -2.53867,0.21933c-1.12943,0.09921 -1.9631,0.2287 -2.84534,0.37265c-0.89911,0.1467 -1.34024,0.24985 -2.616,0.40802c-1.11627,0.1384 -1.7934,0.14911 -2.42435,0.21933c-1.21304,0.13501 -2.09708,0.37753 -2.673,0.522c-1.06711,0.2677 -1.98874,0.40613 -2.74933,0.42398c-0.98639,0.02316 -1.97066,0.00134 -2.834,0.00134c-0.89549,0 -1.85266,0 -2.75284,0c-0.78516,0 -1.7254,0.01852 -2.41583,0c-1.0663,-0.02859 -0.79416,-0.7243 -0.17499,-1.3045c0.64246,-0.60202 1.45926,-1.18427 1.963,-1.53149c0.83307,-0.57425 1.728,-1.164 2.328,-1.564c0.59999,-0.39999 1.49924,-1.00116 2.39999,-1.60001c0.60083,-0.39944 1.19728,-0.81265 1.836,-1.164c1.30508,-0.71793 2.04636,-0.95679 2.78934,-1.21066c0.74771,-0.25549 1.50897,-0.46729 2.55301,-0.94684c0.67288,-0.30905 1.29999,-0.67093 2.13498,-1.27982c0.78503,-0.57245 1.43903,-1.21652 2.13934,-1.74152c0.69312,-0.51959 1.50449,-0.89999 2.358,-1.24649l0.59067,-0.20935" id="svg_16" stroke-width="2" stroke="#000" fill="none"/>
  <path t="34631,34771,34771,34771,34771,34788,34788,34788,34788,34788,34788,34788,34788,34788,34808,34808,34808,34808,34808,34808,34808,34808,34808,34826,34826,34827,34827,34827,34827,34827,34827,34827,34842,34842,34843,34843,34843,34843,34843,34843,34843,34860,34860,34860,34860,34860,34860,34860,34860,34860,34879,34879,34879,34879,34879,34879,34879,34879,34879,34891,34891,34891,34891,34891,34891,34891,34891,34891,34908,34908,34908,34908,34909,34909,34909,34909,34925,34925,34925,34925,34925,34925,34925,34942,34943,34943,34943,34943,34943,34959,34959,34959,34959,34977,34978,34978,34978,34978,34978,34994,34994,34994,34994,34994,35012,35012,35012,35028,35029,35029,35029,35046,35046,35062,35062,35079,35119,35119,35302,35320,35337,35337,35337,35337,35354,35354,35354,35354,35373,35373,35373,35373,35373,35389,35389,35389,35389,35389,35405,35405,35405,35406,35406,35406,35423,35424,35424,35424,35424,35440,35440,35441,35441,35441,35458,35459,35459,35459,35459,35459,35483,35483,35483,35483,35483,35483,35493,35493,35493,35493,35493,35510,35510,35510,35510,35510,35526,35526,35527,35543,35544,35544,35562,35562,35582,35582,35582,35595,35595,35595,35613,35614,35614,35614,35630,35631,35631,35631,35648,35648,35648,35648,35648,35664,35664,35664,35664,35664,35681,35681,35681,35681,35681,35700,35700,35700,35717,35718,35718,35740,35740,35757,35774,35794,35810,35829,35829,35829,35844,35862,35881,35916,35963,35988,36021,36038,36039,36056,36085" d="m199,180c2.06267,-0.00534 2.76559,-0.01178 3.612,-0.144c1.02516,-0.16014 2.22426,-0.51387 2.89566,-0.742c0.72362,-0.24588 1.48441,-0.53828 2.283,-0.858c0.83618,-0.33476 1.69914,-0.69753 2.589,-1.07399c0.91283,-0.38618 2.78644,-1.18335 3.742,-1.58217c0.96443,-0.40253 1.93996,-0.8044 2.92499,-1.21051c0.99498,-0.41022 2.0005,-0.82413 3.015,-1.24649c1.02551,-0.42696 3.10579,-1.30772 4.15901,-1.76384c1.05878,-0.45853 2.11403,-0.92261 3.16199,-1.383c1.03404,-0.45427 2.04724,-0.90042 3.03601,-1.32899c0.95526,-0.41405 2.74643,-1.17088 3.57416,-1.50267c0.78171,-0.31334 1.52936,-0.59995 2.2485,-0.867c0.69524,-0.25818 1.37708,-0.50206 2.05051,-0.741c0.67191,-0.2384 2.04195,-0.72176 2.75099,-0.97783c0.72697,-0.26256 1.46748,-0.53435 2.21851,-0.8145c0.75999,-0.28349 1.52457,-0.57321 2.2905,-0.86852c0.76607,-0.29536 2.282,-0.89426 3.02617,-1.19516c0.73315,-0.29645 1.45122,-0.59161 2.15399,-0.879c0.68457,-0.27994 1.34856,-0.5513 1.992,-0.80701c0.61792,-0.24556 1.77478,-0.68446 2.31151,-0.87149c0.50737,-0.17679 0.99266,-0.33406 1.4565,-0.48151c0.44519,-0.14151 0.87659,-0.27422 1.29449,-0.4095c0.4101,-0.13275 1.21487,-0.41498 1.61383,-0.57333c0.40378,-0.16028 0.80914,-0.33463 1.22101,-0.5145c0.42078,-0.18376 0.84915,-0.37813 1.293,-0.5685c1.41431,-0.60658 1.92636,-0.80127 2.99548,-1.19551c0.55042,-0.20297 1.11102,-0.39999 2.242,-0.79999c0.56552,-0.20001 2.22711,-0.79799 2.76016,-1c0.52261,-0.19804 1.52744,-0.59546 2.00534,-0.8c0.91443,-0.39136 2.14114,-0.99774 2.87735,-1.39551c0.70642,-0.38167 1.39102,-0.79518 2.53867,-1.23782c0.82336,-0.31757 1.27579,-0.41652 2.1875,-0.66667c0.9303,-0.25525 1.40945,-0.34552 2.75748,-0.82133c0.86908,-0.30676 1.68054,-0.67752 2.07501,-0.85333c0.76099,-0.33914 2.15616,-0.95317 2.81067,-1.17867c0.62073,-0.21387 1.83313,-0.50668 2.73151,-0.58951c0.58231,-0.05368 1.41916,-0.05649 2.64734,-0.05716c0.64648,-0.00035 1.65698,0 2.62115,0c0.95065,0 1.83685,-0.03719 2.63599,0c0.91766,0.04271 1.00867,0.85881 0.31433,1.54283c-0.50534,0.49785 -1.1575,0.9761 -1.81799,1.509c-0.96521,0.77873 -1.52963,1.2627 -2.04565,1.72284c-0.75793,0.67584 -1.5791,1.39809 -2.22,1.90933c-0.68683,0.5479 -1.04764,0.82121 -1.7825,1.36333c-1.0759,0.79369 -1.75787,1.28117 -2.44418,1.71667c-0.69257,0.43947 -1.44943,0.85471 -2.30399,1.23599c-0.94366,0.42104 -1.45917,0.6048 -2.52084,0.97917c-0.53751,0.18954 -1.07443,0.37622 -2.64581,0.85416c-0.95905,0.29169 -1.42062,0.39983 -2.27084,0.6875c-0.80246,0.2715 -1.90781,0.79419 -2.58118,1.24718c-0.69009,0.46423 -1.35718,1.01685 -2.13599,1.46399c-0.82434,0.47328 -1.79758,0.80786 -2.31235,0.96268c-1.06985,0.32175 -1.63184,0.44601 -2.18933,0.61066c-1.68616,0.49797 -2.22626,0.7271 -2.75565,0.96268c-1.03976,0.46272 -1.52524,0.73253 -2.46918,1.22665c-1.28513,0.67273 -1.66934,0.87805 -2.41351,1.19551c-1.04684,0.44658 -1.77524,0.68736 -2.94781,1.13116c-0.42487,0.16081 -1.29895,0.5004 -2.17084,0.85333c-0.83475,0.33791 -1.92468,0.79825 -2.51517,1.06816c-0.74274,0.33951 -1.7764,0.84741 -2.36084,1.15717c-0.73187,0.38789 -1.56691,1.04619 -2.17999,1.40001c-1.00336,0.57904 -1.57047,0.70544 -2.43333,1c-0.89543,0.30566 -1.79733,0.59999 -2.69734,0.89999c-0.89999,0.3 -1.80357,0.60286 -2.42082,0.8c-0.63541,0.20294 -2.00119,0.5983 -2.73634,0.8045c-0.76421,0.21437 -1.55553,0.42946 -2.74283,0.86217c-0.40292,0.14685 -1.2,0.48599 -2,0.83333c-0.8,0.34734 -1.99506,0.84779 -2.8,1.11467c-0.79538,0.2637 -1.59941,0.47685 -2,0.58083c-1.19832,0.31104 -1.99915,0.50255 -2.78934,0.7045c-0.77515,0.1981 -1.52773,0.39172 -2.924,0.79868c-0.64111,0.18686 -1.51602,0.48795 -2.56517,0.67999c-0.68088,0.12463 -1.5368,0.1498 -2.517,0.474c-0.7627,0.25226 -1.80168,0.56703 -2.37917,1.07268c-0.59647,0.52226 -1.29674,0.97878 -2.192,1.57466c-0.63693,0.42393 -1.32509,0.82863 -2.3125,0.97917c-0.9003,0.13727 -1.39474,0.74641 -2.1315,1.01016c-0.83736,0.29976 -1.88008,0.14836 -2.74649,0.00616c-0.87625,-0.1438 -1.44284,-0.7115 -2.34283,-1.04817l-0.8,-0.44733" id="svg_17" stroke-width="2" stroke="#000" fill="none"/>
 </g>
 <g display="none">
  <title>muse_image</title>
  <image xlink:href="http://farm2.static.flickr.com/1385/548896275_db0585f740.jpg" id="muse" height="426" width="640" y="27" x="0"/>
 </g>
 <g display="none">
  <title>bbox</title>
  <rect stroke="#f00" fill="none" stroke-width="3" height="426" width="495.36" y="27" x="64" id="bbox"/>
 </g>
</svg>
