<svg width="640" height="480" xmlns="http://www.w3.org/2000/svg" xmlns:svg="http://www.w3.org/2000/svg" xmlns:xlink="http://www.w3.org/1999/xlink">
 <!-- Sketchy ANNOTATION
  ImageNet ID: n02691156_11286
  URL: http://farm3.static.flickr.com/2412/2262418860_78bf5792e9.jpg
  Image Width: 500
  Image Height: 333
  BBox X: 29
  BBox Y: 53
  BBox Width: 409
  BBox Height: 228
  Exposure: 2000ms
  Synset Label: airplane
  Synset ID: n02691156
  Worker Tag: bottom view of airplane
  Sanity Check: 
   Context
   Saved
   Shading
  Comment: 
   {}
  Worker ID: A2JP8W265WCC35
  Assignment ID: 34S9DKFK73P5UCIG1AG6S22JNABYN4
  HIT ID: 3NSCTNUR2ZNYLLGDR2126FP5T4U5AZ
  Work Time: 65s
  Worker Score: 0.9286
 END ANNOTATION -->
 <g display="inline">
  <title>Layer 1</title>
  <path t="0,100,100,115,139,155,179,179,194,195,219,219,235,235,259,259,299,299,299,315,315,315,339,339,355,355,379,379,395,419,419,435,459,459,475,499,499,515,516,531,555,555,571,571,595,595,611,611,611,635,635,651,651,651,675,675,675,691,692,692,714,715,731,731,731,731,755,755,771,771,771,794,795,795,810,810,810,835,835,851,851,874,875,891,891,891,915,915,915,931,931,955,955,955,955,971,971,971,971,995,995,1011,1011,1011,1035,1035,1035,1051,1051,1075,1075,1075,1091,1091,1091,1107,1107,1131,1131,1131,1147,1147,1147,1170,1170,1186,1187,1187,1212,1212,1212,1227,1227,1250,1251,1266,1267,1267,1291,1291,1291,1307,1307,1331,1331,1347,1371,1371,1387,1387,1387,1411,1411,1427,1427,1451,1451,1467,1467,1467,1491,1491,1507,1507,1531,1531,1531,1547,1547,1571,1587,1587,1611,1611,1611,1627,1627,1651,1651,1667,1667,1691,1691,1691,1706,1707,1747,1748,1751,1752,1752,1762,1763,1787,1787,1803,1803,1827,1843,1843,1843,1867,1867,1883,1883,1907,1923,1923,1947,1947,1963,1963,1987,1987,2003,2027,2027,2043,2043,2066,2067,2083,2083,2107,2123,2123,2147,2163,2163,2187,2187,2203,2203,2226,2227,2242,2267,2267,2282,2283,2307,2307,2322,2323,2323,2347,2347,2363,2379,2379,2403,2403,2419,2419,2442,2443,2459,2459,2483,2483,2499,2499,2523,2523,2539,2539,2563,2563,2579,2579,2603,2604,2619,2619,2619,2643,2643,2659,2659,2683,2683,2699,2699,2722,2738,2763,2763,2779,2818,2858,2859,2906,2907,2923,2923,2962,2987,2987,3003,3003,3026,3027,3067,3083,3107,3211,3339,3443,3483,3483,3523,3562,3586,3651,4571,4611,4635,4651,4651,4675,4690,4691,4714,4730,4754,4770,4771,4787,4810,4811,4850,4874,4915,5210,5299,5338,5394,5395,5434,5483,5483,5499,5515,5603,5683,5827,5931,6083,6131,6171,6186,6212,6250,6267,6267,6290,6291,6307,6307,6362,6507,6587,6635,6635,6652,6690,6714,6730,6730,6754,6770,6771,6795,6810,6811,6834,6835,6874,6874,6891,6891,6914,6915,6915,6931,6931,6954,6970,6970,7011,7011,7035,7035,7091,7144,7219,7241,7282,7282,7298,7299,7338,7338,7362,7378,7379,7418,7442,7443,7458,7482,7499,7523,7523,7747,7762,7810,7850,7851,7851,7866,7867,7867,7891,7891,7906,7907,7931,7931,7946,7946,7947,7970,7971,7986,7987,7987,8010,8026,8050,8051,8066,8082,8083,8130,8131,8250,8291,8330,8331,8347,8347,8370,8371,8371,8386,8387,8410,8426,8427,8450,8451,8451,8466,8490,8682,8706,8722,8746,8762,8763,8763,8763,8786,8786,8787,8802,8803,8803,8803,8826,8827,8827,8842,8843,8866,8866,8882,8882,8906,8906,8906,8922,8922,8923,8946,8947,8962,8963,9002,9002,9218,9258,9274,9338,9362,9402,9442,9443,9458,9459,9498,9562,9626,9738,9786,9826,9842,9843,9866,9867,9882,9883,9883,9906,9907,9922,9923,9923,9939,9939,9940,9962,9962,9963,9978,9979,10002,10018,10018,10042,10042,10082,10083,10122,10122,10363,10402,10426,10427,10444,10466,10467,10482,10483,10498,10522,10523,10538,10539,10562,10562,10578,10602,10618,10619,10642,10642,10643,10658,10659,10682,10698,10698,10722,10722,10738,10762,10762,10778,10778,10778,10802,10802,10818,10818,10818,10842,10843,10843,10858,10858,10882,10882,10883,10898,10898,10899,10922,10922,10938,10938,10939,10939,10962,10962,10963,10979,10980,11003,11003,11004,11004,11019,11019,11020,11020,11043,11043,11059,11059,11060,11083,11083,11084,11084,11099,11100,11100,11115,11116,11116,11139,11139,11140,11155,11155,11156,11156,11179,11180,11180,11180,11195,11195,11219,11220,11220,11220,11235,11236,11236,11236,11259,11259,11259,11260,11275,11275,11276,11276,11299,11299,11300,11300,11315,11315,11316,11316,11339,11339,11340,11355,11355,11356,11356,11379,11379,11380,11395,11395,11396,11396,11419,11419,11420,11420,11435,11436,11436,11459,11459,11460,11460,11475,11476,11499,11499,11500,11500,11515,11516,11516,11539,11540,11555,11556,11556,11556,11579,11579,11595,11595,11619,11620,11620,11620,11635,11636,11636,11659,11659,11660,11675,11676,11676,11676,11699,11700,11700,11715,11715,11731,11731,11732,11755,11755,11756,11771,11771,11795,11795,11796,11811,11811,11835,11835,11851,11875,11876,11876,11891,11892,11892,11892,11915,11915,11931,11931,11955,11955,11971,11971,11972,11995,11995,11996,12011,12011,12012,12035,12035,12036,12051,12052,12052,12052,12075,12075,12076,12091,12091,12092,12115,12115,12116,12116,12131,12131,12132,12155,12155,12156,12171,12171,12172,12195,12195,12211,12211,12212,12235,12235,12251,12275,12275,12292,12293,12315,12315,12316,12331,12331,12332,12347,12347,12371,12371,12387,12387,12411,12427,12427,12451,12467,12467,12491,12492,12492,12507,12508" d="m314.51135,156.09091c-0.42532,-1.82533 -0.42218,-2.65446 -1.02533,-3.55333c-0.41898,-0.62439 -1.33017,-1.00592 -2.29599,-1.32533c-0.65457,-0.21648 -1.62192,-0.41452 -2.43134,-0.76868c-0.86911,-0.38028 -1.64658,-0.28149 -2.49466,-0.70982c-0.69293,-0.34998 -1.55392,-1.05894 -2.18335,-1.3575c-1.04892,-0.49756 -1.63947,-0.63364 -2.36533,-0.89601c-1.04199,-0.37665 -1.95419,-0.81616 -2.59949,-1.03217c-0.98682,-0.33034 -1.80447,-0.35182 -2.80435,-0.35716c-0.77933,-0.00415 -1.77866,0 -2.59882,0c-0.83734,0 -1.854,0 -2.54868,0c-1.02734,0 -1.974,-0.0006 -2.82733,0c-0.94,0.00067 -1.85803,0.12563 -2.42532,0.61067c-0.7467,0.63844 -1.31241,1.09798 -1.87918,1.91016c-0.51199,0.73367 -0.40271,1.70583 -0.80615,2.59517c-0.31491,0.6942 -0.9278,1.36226 -1.31467,2.09467c-0.51773,0.98016 -0.80029,1.5892 -1.20001,2.38934c-0.40027,0.80119 -0.81842,1.62828 -1.20001,2.56667c-0.31534,0.77544 -0.54367,1.59834 -1,2.5c-0.35727,0.70596 -0.83908,1.28346 -1.29999,2.34315c-0.21887,0.5032 -0.48337,1.31433 -0.89999,2.30617c-0.38474,0.91589 -0.80563,1.84856 -1.10001,2.63667c-0.20392,0.5459 -0.4921,1.36653 -0.89865,2.362c-0.3584,0.87753 -0.68359,1.67896 -0.76535,2.496c-0.08716,0.871 -0.03601,1.87466 -0.03601,2.71016c0,0.88051 0,1.77884 0,2.65784c0,0.80701 0.0976,1.86765 -0.08533,2.70399c-0.17508,0.80043 -0.64899,1.50249 -0.82932,2.51868c-0.14642,0.8251 -0.07254,1.76552 -0.08984,2.55133c-0.0181,0.82239 -0.13116,1.88983 -0.42084,2.81133c-0.20074,0.63858 -0.52182,1.63507 -0.564,2.472c-0.04684,0.92957 -0.01068,1.72568 -0.01068,2.61067c0,0.64 0,2.036 0,2.76801c0,0.724 0,1.416 0,2.616c0,0.98399 0,1.936 0,2.722c0,0.82199 0,1.88066 0,2.59016c0,0.85266 0,1.85716 0,2.65717c0,1.00017 0,1.82083 0,2.48534c0,1.26733 0,1.81467 0,2.63066c0,1.23134 0,1.90933 0,3.1055c0,0.8145 0,1.38918 0,2.57851c0,0.89101 0,1.728 0,2.66667c0,0.83333 0,1.87616 0,2.59467c0,0.7905 0,1.81732 0,2.73866c0,0.68401 0,1.68266 0,2.47917c0,1.1875 0,1.87016 0,2.85416c0,0.92801 0,1.71851 0,2.74518c0,0.68549 0,1.52016 0,2.5215c0,0.79999 0,1.79866 0,2.564c0,1.08333 0,2.00267 0,2.672c0,1.164 0,1.964 0,2.76401c0,1 0,1.79999 0,2.79999c0,0.8 0,1.8 0,2.60001c0,1 0.0018,1.8 0,2.60001c-0.00226,1 -0.00443,1.81265 -0.22131,2.59999c-0.22498,0.81673 -0.65964,1.79366 -0.74268,2.59999c-0.08203,0.79657 -0.03601,1.7955 -0.03601,2.54285c0,1.03183 0,1.97867 0,2.67801c0,0.97916 0,1.77914 0,2.57916c0,1 0,1.79999 0,2.79999c0,0.80002 0,1.80002 0,2.60001c0,1 0,1.79999 0,2.60001c0,1 0,1.79999 0,2.80133c0,0.83466 0,2.01984 0,2.81332c0,0.77551 0,1.81601 0,2.53351c0,0.909 0,1.65634 0,2.65048c0,0.94418 0,1.85318 0,2.93469c0,0.672 0,1.41599 0,2.52383c0,0.89099 0,1.7955 0,2.49014c0,1.02734 0,1.97418 0,2.67352c0,0.97916 0,1.95831 0,2.8125c0,0.79199 0,1.81934 0,2.51398c0,1.02734 0,1.974 0,2.82733c0,0.94135 0,1.70935 0,2.66135c0,0.76532 -0.09766,1.7738 0.05719,2.50684c0.22437,1.06207 0.88068,1.75052 0.9415,2.54251c0.07196,0.93723 0.00131,1.948 0.00131,2.73999c0,0.85999 0,1.58533 0,2.57449c0,0.96417 0,1.91617 0,2.68417c0,0.94131 -0.09274,1.95905 0.03601,2.74133c0.14536,0.88315 0.62515,1.56281 0.8425,2.57468c0.16931,0.78833 0.12149,1.79999 0.12149,2.59998c0,0.80002 -0.08655,1.80756 0.05719,2.54285c0.18259,0.93387 0.82925,1.81549 0.90683,2.48248c0.11652,1.00192 0.03598,1.80002 0.03598,2.83185c0,0.74734 -0.00006,1.74283 0,2.54285c0.00009,0.99982 -0.12729,1.82071 0.22134,2.77866c0.25201,0.69247 0.73163,1.50409 0.77417,2.42584c0.04584,0.9931 -0.04669,1.76093 0.00583,2.71149c0.0426,0.77142 0.4552,1.7088 0.646,2.28851c0.32233,0.97943 0.30774,1.81189 0.57401,2.7955c0.22134,0.81769 0.62762,1.79739 0.75333,2.59998c0.12494,0.79773 0.39587,1.7937 0.60001,2.40002c0.33347,0.99039 0.28699,1.82019 0.64667,2.77866c0.25891,0.68991 0.72717,1.50284 0.77417,2.36865c0.05453,1.00464 0.68958,1.58508 0.94733,2.36252c0.25473,0.76831 0.05716,1.76932 0.05716,2.70084c0,0.91083 0,1.61017 0,2.58932c0,0.78934 -0.17395,1.86295 0.05719,2.6955c0.21518,0.77505 0.86404,1.62119 0.922,2.32535c0.08032,0.97607 0.02081,1.76849 0.02081,2.8125c0,0.86215 0,1.76666 0,2.66666c0,0.89999 0,1.7955 0,2.7215c0,0.87851 0,1.7785 0,2.57849c0,0.90002 -0.00192,1.81961 0.42535,2.60001c0.45038,0.82257 0.96408,1.94739 0.35315,2.47852c-0.66928,0.58185 -1.7785,0.12149 -2.57849,0.12149c-0.836,0 -1.85266,0 -2.54733,0c-1.01666,0 -1.95267,0 -2.85266,0c-0.90018,0 -1.68533,0 -2.62534,0c-1.008,0 -1.76401,0 -2.67468,0c-0.89999,0 -1.79999,-0.00009 -2.69998,0c-0.89984,0.00009 -1.28528,0.5256 -1.96667,1c-0.59091,0.41138 -1.65866,0 -2.66666,0c-0.86218,0 -1.66669,0 -2.56668,0c-0.89999,0 -1.89548,0 -2.76666,0c-0.83333,0 -1.80473,0.00296 -1.83333,0.80133c-0.03217,0.8981 0,1.79868 0,2.69867c0,0.91068 -0.07832,1.82825 0.036,2.67465c0.11044,0.81769 0.72412,1.54837 0.90683,2.47351c0.15199,0.76962 0.44424,1.56866 0.8905,2.35184c0.44435,0.77982 1.16666,1 1.96667,1c0.89999,0 1.79999,0 2.72083,0c0.96317,0 1.65384,0 2.72202,0c0.85733,0 1.64249,0 2.58249,0c1.008,0 1.79999,0 2.66,0c0.91916,0 1.91467,0 2.71466,0c1,0 1.79999,0 2.79999,0c0.80002,0 1.60001,0 2.59552,0c0.74731,0 1.77917,0 2.72598,0c0.69934,0 1.6785,0 2.46783,0c1.04401,0 1.90622,-0.00858 2.71066,0c0.97934,0.01044 1.33038,0.63071 1.52084,1.5c0.18661,0.85178 0.80133,1.37219 1.27917,2.15268c0.41855,0.68362 0.98575,1.6033 1.5,2.146c0.68155,0.71924 1.39999,1.40134 1.89999,1.90134c0.70001,0.69998 1.50092,1.32211 1.94284,2c0.47845,0.73392 0.90036,1.5033 1.23566,2.39999c0.31805,0.85065 -0.08795,1.73846 0.17868,2.60001c0.26804,0.86615 1.24631,1.26111 2.1095,1.29999c0.87436,0.03937 1.52664,0.05444 2.51733,0.284c0.8223,0.19055 1.62573,0.46625 2.62933,0.63199c0.83575,0.13803 1.76895,0.43481 2.43933,0.73135c0.87411,0.38666 1.70898,0.3504 2.66867,0.35266c0.80399,0.00189 1.62598,0 2.65717,0c0.90067,0 1.92148,0 2.71082,0c0.72534,0 1.80002,0 2.73151,0c0.80051,0 1.65384,0 2.59384,0c0.9855,0 1.77066,0 2.71066,0c0.69067,0 1.93735,0.11908 2.17465,-0.54166c0.31894,-0.88812 0,-1.66901 0,-2.65836c0,-0.79999 0,-1.79999 0,-2.59998c0,-0.80002 0.00385,-1.7955 0,-2.54285c-0.00534,-1.03186 -0.23929,-1.97177 -0.5,-2.67801c-0.35822,-0.97031 -0.48087,-1.76788 -0.49866,-2.49384c-0.02634,-1.07431 -0.30612,-2.04309 0.00934,-2.87466c0.27658,-0.72913 1.3923,-0.54163 2.29834,-0.61514c1.03369,-0.08389 1.70209,-0.36029 2.51233,-0.57019c0.57913,-0.15002 1.77881,-0.36038 2.69949,-0.40448c0.63583,-0.03046 1.64584,-0.02084 2.72733,-0.02084c0.73102,0 1.44202,0 2.70883,0c0.77103,0 1.64035,0 2.64301,0c0.80002,0 1.80002,0 2.60001,0c1,0 1.79999,0 2.79999,0c0.81067,0 1.45718,0 2.42136,0c0.80399,0 1.62598,0 2.65698,0c0.88,0 1.90033,0 2.67435,0c0.89999,0 1.87915,0.44165 2.80066,-0.03601c0.64041,-0.33194 0.44666,-1.52798 0.44666,-2.39999c0,-0.96399 0,-1.76532 0,-2.73065c0,-0.83334 0,-1.81186 0,-2.63202c0,-0.90134 0.0054,-1.80136 0,-2.70132c-0.00534,-0.8894 -0.49982,-1.4895 -1.36166,-1.5c-0.95959,-0.01169 -1.84253,0.06326 -2.61716,-0.22134c-0.72137,-0.26505 -1.56314,-0.66296 -2.52118,-0.77866c-0.73148,-0.08832 -1.65921,-0.44043 -2.46799,-0.716c-1.01431,-0.34561 -1.57703,-0.25467 -2.43466,-0.36801c-1.20346,-0.15903 -1.79193,-0.3645 -2.69733,-0.56332c-1.19333,-0.26205 -1.79474,-0.267 -2.62802,-0.37799c-1.13586,-0.15128 -1.7901,-0.72156 -2.68265,-0.93866c-0.88556,-0.21539 -1.76401,-0.03601 -2.70535,-0.03601c-0.76797,0 -1.72879,0.05231 -2.48532,-0.08533c-1.01285,-0.18427 -1.79199,-0.44022 -2.63699,-0.862c-0.78815,-0.3934 -0.76169,-1.37399 -0.76169,-2.22736c0,-0.93997 0,-1.82532 0,-2.58249c0,-0.89551 -0.00067,-1.75882 0,-2.74283c0.00067,-0.98401 -0.08154,-1.71381 0.28403,-2.616c0.33093,-0.81665 0.68613,-1.53534 0.71466,-2.39999c0.03177,-0.96265 -0.01694,-1.89487 0.0015,-2.80551c0.01801,-0.88971 0.21497,-1.88065 0.42517,-2.47849c0.28235,-0.80298 0.4455,-1.81033 0.62732,-2.54285c0.26428,-1.06476 0.78067,-1.82382 0.94733,-2.65717c0.16669,-0.83334 0.65384,-1.5553 0.97467,-2.41068c0.33139,-0.88354 0.60776,-1.58588 0.85867,-2.58932c0.19662,-0.78638 0.13727,-1.60056 0.17117,-2.60449c0.02884,-0.85379 0.21069,-1.81842 0.42084,-2.62085c0.2157,-0.82367 0.45636,-1.85272 0.54932,-2.53867c0.11304,-0.83417 0.39926,-1.8334 0.60001,-2.47198c0.28967,-0.92148 0.35703,-1.71832 0.45068,-2.53867c0.12112,-1.06119 0.42456,-1.98123 0.62198,-2.62085c0.3074,-0.99603 0.35129,-1.8804 0.51935,-2.93784c0.10129,-0.63739 0.26935,-1.31509 0.48065,-2.36133c0.19592,-0.97003 0.31982,-1.78989 0.34818,-2.69632c0.03159,-1.00986 0.00183,-1.845 0.00449,-2.77567c0.00226,-0.79501 0.01883,-1.68158 0.08536,-2.32001c0.10815,-1.03778 0.3407,-2.12784 0.48932,-2.85199c0.142,-0.69186 0.32532,-1.8927 0.42532,-2.61969c0.14374,-1.04507 0.46298,-1.85202 0.64734,-2.556c0.29178,-1.11423 0.29807,-1.79114 0.35266,-2.48566c0.08112,-1.03226 0.20447,-1.96176 0.42535,-2.73868c0.27014,-0.95007 0.4949,-1.94623 0.57465,-2.78217c0.05563,-0.58337 0.2059,-1.7829 0.35718,-2.37915c0.22992,-0.90631 0.64453,-2.09943 0.84283,-2.70135c0.30261,-0.91864 0.50894,-1.55319 0.79999,-2.56531c0.20499,-0.71289 0.4884,-1.78952 0.64285,-2.46634c0.25089,-1.09952 0.32504,-1.85333 0.57849,-2.91034c0.18121,-0.75583 0.37613,-1.34567 0.49466,-2.03c0.20148,-1.16309 0.23666,-2.02713 0.26318,-2.90582c0.02591,-0.85809 0.01407,-2.0209 0.02216,-2.66885c0.01062,-0.85214 0.06653,-1.70648 0.22018,-2.71616c0.12183,-0.80057 0.28928,-1.65884 0.483,-2.535c0.28098,-1.27078 0.48874,-2.03214 0.6955,-2.72882c0.19366,-0.65256 0.60526,-1.87027 0.79865,-2.47202c0.28842,-0.89749 0.50461,-1.48972 0.67984,-2.70016c0.13101,-0.90506 0.11615,-1.5358 0.12149,-2.86649c0.00287,-0.716 0,-1.448 0,-2.172c0,-1.328 0,-2.15601 0,-2.91202c0,-1.08267 -0.00873,-1.71887 0.01068,-2.41068c0.03061,-1.09103 0.13776,-2.17538 0.27335,-2.85199c0.19046,-0.95047 0.41998,-1.51437 0.63199,-2.80399c0.11493,-0.69913 0.14478,-1.45615 0.36801,-2.65067c0.12805,-0.6853 0.30435,-1.37866 0.43198,-2.06403c0.22266,-1.19577 0.27219,-1.96786 0.284,-3.30132c0.00562,-0.63464 -0.0246,-1.3195 0.05719,-2.36134c0.07657,-0.97514 0.3027,-1.78874 0.51749,-2.48399c0.31458,-1.0183 0.38043,-1.84959 0.59201,-2.98801c0.09692,-0.52155 0.36417,-1.32578 0.54932,-2.14932c0.27267,-1.21294 0.28174,-2.02232 0.284,-2.94484c0.00162,-0.66333 0,-1.72467 0,-2.45433c0,-0.80566 0,-1.63133 0,-2.78484c0,-0.933 0,-1.70399 0,-2.66667c0,-0.7905 0,-1.644 0,-2.83333c0,-0.60001 0,-1.5 0,-2.39999c0,-0.89984 0,-1.78934 0,-2.64284c0,-1.03568 0,-1.93634 0,-2.95717c0,-0.81067 0,-1.45717 0,-2.68401c0,-0.54134 0,-1.36333 0,-2.63066c0,-0.66451 0,-1.68533 0,-2.48534c0,-0.8 0,-1.8 0,-2.59999c0,-0.99867 0,-1.76401 0,-2.84734c0,-0.91934 0.02289,-1.61336 -0.08533,-2.52467c-0.10391,-0.87508 -0.34222,-1.87819 -0.48932,-2.57733c-0.14352,-0.68221 -0.37164,-1.87663 -0.41467,-2.79333c-0.04562,-0.97234 -0.08755,-1.74429 -0.36334,-2.519c-0.28592,-0.80316 -0.53574,-1.75858 -0.62198,-2.56367c-0.08795,-0.82098 -0.23825,-1.85585 -0.45068,-2.54933c-0.2796,-0.91278 -0.49496,-1.91023 -0.57468,-2.74615c-0.05563,-0.5834 -0.21188,-1.78137 -0.42532,-2.67917c-0.14301,-0.60155 -0.42117,-1.79834 -0.49066,-2.40001c-0.10373,-0.89793 -0.125,-1.80763 -0.30566,-2.69983c-0.1821,-0.89926 -0.49338,-1.76868 -0.94501,-2.53349c-0.43787,-0.74156 -1.08368,-1.33755 -1.5,-2.33334c-0.31735,-0.75905 -0.34668,-1.65266 -0.50134,-2.23466c-0.32434,-1.22043 -0.6825,-1.79433 -1.18381,-2.64149c-0.47137,-0.79657 -0.90051,-1.49504 -1.34369,-2.35268c-0.41336,-0.79996 -0.8045,-1.60449 -1.10449,-2.2045c-0.5,-1 -0.89999,-1.79999 -1.29999,-2.59999c-0.40002,-0.8 -0.71338,-1.39348 -1.1955,-2.39551c-0.3573,-0.74261 -0.517,-1.70285 -0.92603,-2.50467c-0.37054,-0.72638 -0.93118,-1.41695 -1.41449,-2.07449c-0.62576,-0.85132 -1.39658,-1.30814 -1.96533,-1.70934c-0.81628,-0.57582 -1.37808,-1.14096 -1.99866,-1.632c-0.96945,-0.76711 -1.60147,-1.07047 -2.59967,-1.584c-0.57986,-0.29832 -1.27951,-1.04932 -1.883,-1.61465c-0.55356,-0.51855 -1.55588,-0.67386 -2.26468,-0.93268c-1.00983,-0.36873 -1.97415,-0.35266 -2.67349,-0.35266c-0.97919,0 -1.77917,0 -2.57916,0l-0.991,0l-0.83835,0" id="svg_1" stroke-width="2" stroke="#000" fill="none"/>
  <path t="13966,14228,14245,14245,14269,14269,14284,14284,14307,14307,14307,14323,14347,14347,14347,14363,14363,14363,14387,14387,14403,14403,14403,14427,14427,14427,14427,14443,14443,14443,14443,14467,14467,14467,14467,14483,14483,14483,14507,14507,14507,14507,14523,14523,14523,14547,14547,14547,14563,14563,14563,14587,14587,14587,14603,14603,14627,14627,14627,14643,14643,14659,14659,14659,14683,14683,14683,14699,14699,14699,14723,14723,14723,14723,14739,14739,14739,14763,14763,14779,14779,14779,14779,14803,14803,14803,14819,14819,14819,14819,14842,14843,14859,14859,14859,14883,14883,14883,14883,14899,14899,14899,14923,14923,14923,14923,14923,14939,14939,14939,14963,14963,14963,14963,14979,14979,14979,15003,15003,15003,15019,15019,15019,15043,15059,15059,15083,15083,15083,15099,15099,15099,15123,15123,15123,15139,15139,15139,15163,15163,15163,15163,15179,15179,15179,15179,15179,15203,15203,15203,15203,15219,15219,15219,15219,15219,15219,15235,15235,15235,15235,15259,15259,15259,15259,15259,15275,15275,15275,15275,15299,15299,15299,15299,15315,15315,15315,15339,15339,15339,15339,15355,15355,15355,15379,15379,15379,15395,15395,15395,15419,15419,15419,15435,15435,15435,15459,15459,15459,15459,15475,15475,15475,15475,15499,15499,15499,15515,15515,15515,15515,15515,15539,15539,15539,15539,15555,15555,15555,15555,15579,15579,15579,15579,15595,15595,15595,15595,15619,15619,15619,15619,15619,15635,15635,15635,15635,15659,15659,15659,15675,15675,15675,15699,15699,15699,15715,15715,15715,15739,15739,15755,15755,15779,15779,15794,15835,15924,15979,16019,16019,16067,16067,16083,16083,16084,16107,16107,16107,16123,16123,16163,16227,16323,16419,16483,16507,16523,16523,16547,16548,16563,16564,16564,16587,16587,16587,16603,16603,16627,16627,16627,16643,16643,16643,16659,16659,16659,16683,16683,16683,16699,16699,16699,16699,16723,16723,16723,16739,16739,16739,16763,16763,16763,16779,16779,16779,16803,16803,16803,16819,16819,16843,16843,16843,16859,16859,16859,16859,16882,16883,16883,16898,16899,16899,16923,16923,16923,16939,16939,16939,16963,16963,16963,16979,16979,16980,17003,17003,17003,17019,17019,17020,17043,17043,17059,17059,17083,17083,17083,17099,17099,17123,17124,17139,17163,17219,17315,17355,17379,17419,17443,17459,17483,17483,17499,17500,17523,17523,17524,17524,17539,17539,17540,17555,17555,17555,17555,17556,17579,17579,17580,17580,17595,17595,17595,17596,17619,17619,17620,17620,17635,17635,17635,17635,17636,17659,17659,17659,17660,17675,17675,17675,17675,17676,17699,17699,17699,17700,17700,17714,17715,17715,17715,17716,17716,17739,17739,17739,17740,17740,17755,17755,17755,17755,17756,17779,17779,17780,17780,17780,17794,17795,17795,17795,17795,17818,17820,17821,17821,17821,17835,17835,17835,17835,17836,17836,17858,17859,17859,17859,17859,17860,17874,17875,17875,17875,17875,17876,17876,17899,17899,17899,17899,17900,17900,17915,17915,17915,17915,17916,17939,17939,17940,17940,17940,17955,17955,17955,17955,17956,17979,17979,17979,17980,17980,17994,17995,17995,17995,17995,18019,18019,18019,18019,18020,18020,18034,18035,18035,18035,18036,18036,18036,18059,18059,18059,18059,18060,18060,18060,18075,18075,18075,18076,18076,18076,18076,18076,18099,18099,18099,18099,18100,18100,18100,18115,18115,18115,18116,18116,18116,18116,18117,18130,18131,18131,18131,18132,18132,18132,18132,18154,18155,18155,18155,18156,18156,18171,18171,18171,18172,18172,18172,18172,18195,18195,18195,18195,18196,18196,18196,18211,18211,18211,18212,18212,18212,18235,18235,18235,18235,18236,18236,18251,18251,18252,18252,18252,18274,18275,18275,18275,18276,18291,18291,18292,18292,18292,18314,18315,18315,18332,18333,18333,18333,18355,18356,18371,18371,18372,18394,18395,18410,18411,18434,18450,18451,18474,18475,18475,18490,18491,18515,18531,18554,18555,18555,18571,18571,18595,18596,18596,18611,18612,18651,18652,18675,18676,18691,18731,18755,18756,18795" d="m343.51135,182.09091c1.75717,0 2.66345,-0.05272 3.40451,0.05716c1.00998,0.14975 1.77335,0.60338 2.7955,0.82133c0.78857,0.16814 1.80124,0.08638 2.58932,0.13217c0.72794,0.0423 1.55313,0.53404 2.54401,0.82266c0.65796,0.19165 1.452,0.15533 2.5,0.16667c0.93066,0.01007 1.77893,0.03883 2.76666,0.35266c0.60971,0.19373 1.59869,0.53801 2.44168,0.64734c0.72772,0.09439 1.92883,0.28476 2.63034,0.42534c0.74918,0.15013 1.52701,0.32002 2.72781,0.45332c0.79376,0.08812 1.58038,0.10786 2.34302,0.17401c1.09232,0.09474 2.10022,0.29897 2.73633,0.44733c0.91983,0.21452 1.81989,0.38969 2.73151,0.47467c0.62466,0.05823 1.95773,0.18187 2.672,0.30933c0.73392,0.13097 1.4494,0.32715 2.784,0.54933c0.82007,0.13652 1.55487,0.1517 2.5,0.33334c0.79318,0.15244 1.59772,0.45451 2.66666,0.66666c0.70853,0.14061 1.61932,0.16441 2.58783,0.16667c0.79352,0.00185 1.57007,-0.04594 2.61084,0.00133c0.93881,0.04263 1.73572,0.28833 2.48883,0.49867c0.79486,0.222 1.79309,0.44681 2.7045,0.48933c0.94037,0.04388 1.72733,0.01067 2.54935,0.01067c1.05865,0 2.00314,-0.02295 2.67798,0.05716c0.9758,0.11584 1.77853,0.38799 2.65186,0.59018c0.89102,0.2063 1.7948,0.31172 2.6955,0.342c0.59973,0.02016 1.79953,-0.01216 2.67917,0.03149c0.83694,0.04155 1.83389,0.27263 2.52081,0.47917c1.16199,0.3494 1.95724,0.44678 2.52084,0.5c0.88058,0.08315 2.08261,0.2722 2.67917,0.436c0.90567,0.24867 1.79724,0.57248 2.6955,0.8595c0.86594,0.27669 1.41159,0.46368 2.65182,0.65182c0.67477,0.10236 1.87512,0.27025 2.40985,0.40533c0.85501,0.216 2.04114,0.49385 2.64282,0.56334c0.89795,0.10371 1.8053,0.13702 2.70016,0.30533c0.91702,0.17247 1.52686,0.40491 2.86652,0.612c0.71359,0.11031 1.45895,0.13704 2.20801,0.192c0.74167,0.05441 2.14139,0.2523 2.78931,0.40001c0.93365,0.21284 1.83398,0.42529 2.73602,0.52199c0.59885,0.06419 1.50726,0.09708 2.69998,0.33667c0.60437,0.12141 1.49146,0.41316 2.69983,0.5945c0.5925,0.08891 1.46417,0.10997 2.53351,0.12151c0.92001,0.00992 1.698,0.04282 2.54135,0.42534c0.81134,0.36801 1.64606,0.5578 2.62531,0.57466c0.81061,0.01395 1.4657,0.01518 2.68533,0.284c0.55521,0.12238 1.41058,0.41341 2.6145,0.5945c0.59247,0.08913 1.46414,0.11617 2.53351,0.12151c0.952,0.00475 1.67651,0 2.80966,0c0.67136,0 1.39868,0 2.16602,0c1.19098,0 1.99112,-0.00667 2.79099,0.01067c0.80023,0.01733 1.60413,0.04224 2.80017,0.21083c0.80774,0.11386 1.62119,0.29692 2.457,0.483c1.31036,0.29173 1.76266,0.4026 2.6955,0.591c0.94586,0.19104 1.41925,0.28683 2.36334,0.41916c1.35904,0.19048 2.22687,0.23203 3.06317,0.28534c0.81635,0.05205 2.02261,0.15498 2.82083,0.284c0.80197,0.12962 1.19797,0.22736 2,0.36334c1.19724,0.20299 1.99847,0.27126 2.78934,0.32733c1.15323,0.08177 2.24673,0.17711 2.92532,0.30933c0.65225,0.12709 1.57294,0.40915 2.78534,0.59467c0.59698,0.09135 1.50647,0.09973 2.69998,0.28801c0.60287,0.09511 1.48703,0.33177 2.31467,0.63466c1.01169,0.37024 1.67117,0.72386 2.36935,0.91333c0.98569,0.2675 1.83954,0.2605 2.71732,0.36934c0.90219,0.11188 1.79462,0.35851 2.69867,0.56334c0.8963,0.20308 1.79733,0.28183 2.66403,0.37799c1.07208,0.11894 1.77814,0.34377 2.4613,0.54933c0.93481,0.28131 1.73645,0.37111 2.62134,0.45067c0.64014,0.05756 2.03864,0.24768 2.76801,0.41068c0.72687,0.16243 1.42065,0.35149 2.61865,0.76266c0.79071,0.27139 1.31909,0.50894 2.63098,0.67982c0.79852,0.104 1.67731,0.10345 2.13171,0.11084c0.92261,0.01498 2.28235,0.00444 3.14233,0.01517c0.82013,0.01022 1.60449,0.01411 2.69501,0.16217c0.68634,0.09319 1.66376,0.3466 2.31934,0.48067c1.01001,0.20654 1.73114,0.27132 2.84729,0.35266c0.74725,0.05446 1.83746,0.14531 2.51599,0.28534c0.99091,0.2045 1.6347,0.42621 2.6507,0.71466c0.71729,0.20364 1.46649,0.40231 2.24402,0.564c0.78802,0.16386 1.98834,0.32181 2.78033,0.38333c1.13623,0.08826 1.84814,0.08163 2.76611,0.274c1.0368,0.21727 1.71704,0.54337 2.72821,0.69467c0.83051,0.12427 1.42743,0.08586 2.6145,0.30533c0.89734,0.16591 1.45398,0.39987 2.53351,0.612c0.92365,0.1815 1.77875,0.20477 2.76666,0.51933c0.60956,0.19409 1.60406,0.50131 2.37915,0.64734c1.00586,0.18948 1.66919,0.80017 2.52081,0.97917c0.88104,0.18518 1.80652,-0.08612 2.70001,0.02216c0.91992,0.11148 1.5329,0.73285 2.46167,0.946c0.78644,0.1805 1.76123,0.26787 2.56366,0.47801c0.82367,0.21571 1.85022,0.48152 2.5387,0.53867c0.83252,0.06909 1.85315,-0.09286 2.75067,0.12132c0.88983,0.21234 1.57922,0.85312 2.48529,0.91467c0.9126,0.062 0.99817,0.80133 1,1.636c0.00226,1.02116 -0.00287,1.7841 0.284,2.76399c0.17914,0.61201 0.56897,1.59683 0.69067,2.41068c0.13037,0.87178 0.30334,1.87364 0.52533,2.6685c0.21033,0.7531 0.46857,1.71408 0.49866,2.48883c0.04059,1.04555 0.01422,1.85576 0.08667,2.43466c0.15076,1.20432 0.42987,2.09381 0.56201,2.69734c0.26135,1.19362 0.32642,2.08897 0.34198,2.66399c0.02887,1.069 0.01068,2.02135 0.01068,2.74583c0,1.13301 0,1.8 0,2.511c0,1.0965 0,2.1575 0,2.8175c0,0.91499 0,1.995 0,2.709c0,0.90533 0,1.87416 0,2.68866c0,0.8685 0,1.76401 0,2.6595c0,0.86852 0,1.93785 0,2.64735c0,0.85266 0,1.85849 0,2.69315c0,0.93066 0,1.72116 0,2.57468c0,1.18933 0,1.78934 0,2.68933c0,0.89999 0,1.79984 0,2.68933c0,0.85352 0,1.88934 0,2.81067c0,0.68399 0,1.68533 0,2.52084c0,0.88049 0,1.77899 0,2.66849c0,0.85352 0,1.88934 0,2.81067c0,0.68399 0,1.68533 0,2.52084c0,0.88049 0,1.77914 0,2.67917c0,0.89999 0,1.79999 0,2.69098c0,0.83701 0,1.96619 0,2.72366c0,0.87201 0,1.63202 0,2.80652c0,0.79349 0,1.569 0,2.6095c0,0.85199 0,1.79465 0,2.48532c0,1.07333 0.00208,1.96317 0,2.84119c-0.00226,0.93832 -0.4455,1.51309 -1.29999,1.64731c-0.81866,0.1286 -1.52069,0.91174 -2.34668,0.99551c-0.83435,0.08459 -1.56403,0.01239 -2.55347,-0.00015c-0.82086,-0.01041 -1.97107,-0.14835 -2.75702,-0.35703c-0.56726,-0.15063 -1.44226,-0.44989 -2.34302,-0.74265c-0.90857,-0.29532 -1.52557,-0.52109 -2.86646,-0.73352c-0.71454,-0.11319 -1.4696,-0.13794 -2.24402,-0.19199c-0.79089,-0.05521 -1.99072,-0.18716 -2.78485,-0.32733c-0.78522,-0.13861 -1.54242,-0.32584 -2.63782,-0.48068c-1.01031,-0.14282 -1.66888,-0.14377 -2.6507,-0.25067c-1.04041,-0.11328 -1.77472,-0.2659 -2.5368,-0.43683c-0.7854,-0.17618 -1.97827,-0.48294 -2.77917,-0.67783c-0.79907,-0.19446 -1.59644,-0.3855 -2.40002,-0.51599c-1.19543,-0.19412 -2,-0.23267 -2.79999,-0.28534c-0.79999,-0.05267 -2.00244,-0.15112 -2.79999,-0.28534c-0.80273,-0.1351 -1.60095,-0.32135 -2.40002,-0.51599c-1.20178,-0.29272 -1.60181,-0.40222 -2.42133,-0.59866c-0.84979,-0.2037 -1.74799,-0.40668 -2.71198,-0.60001c-1.03326,-0.20721 -1.57196,-0.30032 -2.66669,-0.5c-0.54926,-0.10019 -1.63318,-0.29364 -2.66663,-0.5c-0.96527,-0.19275 -1.87134,-0.39264 -2.3125,-0.47916c-0.8678,-0.17017 -2.18658,-0.36481 -3.10486,-0.43686c-0.46832,-0.03674 -1.41681,-0.07144 -2.36334,-0.13666c-1.38739,-0.09561 -1.83386,-0.15262 -2.6955,-0.3045c-0.83923,-0.14795 -1.65302,-0.34586 -2.85718,-0.64282c-0.80157,-0.19769 -1.60791,-0.40298 -2.43597,-0.564c-0.84674,-0.16464 -1.72986,-0.27844 -2.64935,-0.35333c-0.94995,-0.07739 -1.43848,-0.07498 -2.41913,-0.1925c-1.5014,-0.17996 -1.99902,-0.31982 -2.99554,-0.59549c-0.50186,-0.13882 -1.49719,-0.45398 -2,-0.58936c-1.49231,-0.40176 -1.99756,-0.48529 -3.00897,-0.59549c-1.03043,-0.11227 -1.56314,-0.12256 -2.10535,-0.15799c-1.71942,-0.11234 -2.32849,-0.16992 -2.95233,-0.23584c-1.27408,-0.13464 -1.91245,-0.21643 -2.54666,-0.29068c-0.62411,-0.07309 -2.38635,-0.26288 -2.92233,-0.30399c-0.99677,-0.07648 -1.923,-0.116 -2.80801,-0.17401c-0.43784,-0.02869 -1.77908,-0.15924 -2.70898,-0.3045c-0.47348,-0.07397 -1.42331,-0.24716 -2.36334,-0.44415c-0.91864,-0.1925 -1.79849,-0.40424 -2.65866,-0.58801c-0.84924,-0.18146 -1.70624,-0.35309 -3.04666,-0.48932c-0.46179,-0.04694 -1.40414,-0.09387 -2.35333,-0.14667c-0.47275,-0.02628 -1.86133,-0.12299 -2.74002,-0.26001c-0.85229,-0.13293 -1.67584,-0.32037 -2.48398,-0.51599c-1.20349,-0.29132 -1.60315,-0.40222 -2.42267,-0.59866c-0.84979,-0.2037 -1.74808,-0.40634 -2.71201,-0.60001c-1.03601,-0.20816 -1.5817,-0.30084 -2.70834,-0.52084c-0.58002,-0.11325 -1.17313,-0.21173 -2.95834,-0.64581c-0.60205,-0.14639 -1.20102,-0.31369 -2.39999,-0.65869c-0.60052,-0.17282 -1.19858,-0.35428 -1.79999,-0.52197c-1.79596,-0.50079 -2.3989,-0.63702 -3.00134,-0.76733c-1.20685,-0.26105 -1.81906,-0.36694 -2.43466,-0.47467c-0.62073,-0.10864 -2.53052,-0.41174 -3.18533,-0.5105c-0.66251,-0.09991 -1.33087,-0.19901 -2.004,-0.28952c-1.34845,-0.18134 -2.02142,-0.25922 -2.69067,-0.32532c-1.31625,-0.12997 -1.96231,-0.17068 -3.23132,-0.23267c-0.6272,-0.03064 -1.25278,-0.05075 -1.87799,-0.078c-1.25885,-0.05484 -2.54169,-0.1373 -3.19617,-0.19617c-0.66422,-0.05975 -2.0148,-0.21237 -2.69934,-0.29935c-0.69012,-0.08768 -1.38382,-0.18262 -2.08051,-0.28049c-1.39899,-0.19656 -2.09909,-0.2937 -3.48965,-0.50317c-0.68808,-0.10364 -1.36804,-0.21234 -2.03702,-0.33148c-0.65836,-0.11725 -1.31039,-0.21295 -3.12933,-0.68518c-0.57779,-0.14999 -1.69131,-0.49579 -2.24268,-0.65799c-0.54999,-0.1618 -1.66223,-0.48209 -2.83331,-0.6875c-0.60678,-0.10645 -1.8717,-0.22763 -2.51733,-0.272c-0.64908,-0.04462 -1.29922,-0.06644 -2.58133,-0.14401c-1.23526,-0.07474 -1.82684,-0.12549 -2.95819,-0.27451c-0.54938,-0.07236 -1.62473,-0.25211 -2.15799,-0.34732c-0.53473,-0.09546 -2.17276,-0.39767 -2.73584,-0.49417c-1.14053,-0.19543 -1.71536,-0.28488 -2.29065,-0.36533c-1.14014,-0.15939 -2.258,-0.27859 -3.34,-0.35202c-0.52789,-0.03583 -1.56464,-0.08182 -2.07468,-0.10931c-1.00958,-0.05441 -2.51129,-0.19028 -3.00934,-0.26001c-0.99237,-0.13895 -1.48248,-0.22537 -2.44415,-0.41916c-1.39355,-0.28082 -1.8364,-0.39233 -2.70001,-0.59549c-0.83707,-0.19693 -1.65262,-0.40018 -2.85718,-0.70001c-0.79861,-0.19879 -1.58731,-0.39853 -2.36398,-0.564c-0.74884,-0.15955 -1.81375,-0.32269 -2.79999,-0.41068c-0.62491,-0.05576 -1.84018,-0.173 -2.73151,-0.37799c-0.58667,-0.13492 -1.40952,-0.42068 -2.4205,-0.56201c-0.90359,-0.12631 -1.85068,-0.08533 -2.63217,-0.08533c-0.7905,0 -1.909,0 -2.79999,0c-0.90451,0 -1.77353,0.08844 -2.62653,-0.01068c-0.96347,-0.11197 -1.62186,-0.57178 -2.62534,-0.82266c-0.78638,-0.19662 -1.59998,-0.16599 -2.59549,-0.16666c-0.74731,-0.00052 -1.77277,0.08505 -2.70898,-0.00449c-0.87332,-0.08353 -1.70319,-0.53482 -2.29684,-0.71152c-0.98575,-0.29343 -1.85587,-0.27542 -2.81982,-0.28415c-0.79355,-0.00717 -1.60623,0.07327 -2.6095,-0.28384c-0.89996,-0.32034 -1.62531,-0.6861 -2.57068,-0.71466c-0.99371,-0.03003 -1.74149,-0.0007 -2.64151,-0.00134c-0.95715,-0.00067 -1.85715,-0.22134 -2.45715,-0.64734l-0.89999,-0.34201" id="svg_2" stroke-width="2" stroke="#000" fill="none"/>
  <path t="19725,19907,19932,19932,19932,19932,19948,19948,19948,19948,19948,19971,19971,19971,19987,19987,19987,19987,19987,20003,20003,20003,20003,20003,20027,20027,20027,20027,20027,20027,20043,20043,20043,20043,20043,20043,20066,20066,20066,20067,20067,20067,20082,20082,20083,20083,20083,20106,20106,20107,20107,20107,20107,20107,20122,20123,20123,20123,20146,20146,20146,20147,20147,20165,20165,20165,20165,20165,20186,20187,20187,20187,20187,20202,20203,20203,20203,20227,20227,20227,20227,20227,20227,20242,20242,20242,20242,20242,20266,20266,20266,20266,20267,20283,20283,20283,20283,20283,20283,20306,20306,20306,20307,20307,20323,20324,20324,20324,20324,20324,20346,20347,20347,20347,20347,20363,20363,20363,20363,20363,20386,20386,20387,20387,20387,20402,20403,20403,20403,20403,20426,20426,20427,20427,20427,20443,20443,20443,20443,20443,20466,20467,20467,20467,20483,20483,20483,20484,20506,20506,20507,20523,20523,20523,20546,20547,20547,20568,20568,20568,20587,20587,20587,20603,20603,20603,20603,20619,20619,20619,20620,20642,20642,20658,20659,20682,20682,20683,20698,20699,20699,20723,20739,20739,20739,20762,20762,20763,20763,20779,20779,20779,20804,20804,20804,20821,20821,20821,20821,20843,20843,20843,20859,20882,21099,21123,21139,21139,21164,21178,21179,21180,21203,21203,21203,21203,21219,21219,21219,21243,21243,21243,21259,21259,21259,21259,21283,21283,21283,21283,21298,21299,21299,21299,21323,21323,21323,21323,21323,21339,21339,21339,21339,21362,21363,21363,21363,21363,21379,21379,21379,21379,21379,21394,21395,21395,21395,21419,21419,21419,21419,21435,21435,21435,21435,21435,21459,21459,21459,21475,21475,21475,21475,21499,21499,21499,21499,21515,21515,21515,21539,21539,21555,21555,21579,21579,21595,21595,21619,21771,21789,21810,21826,21827,21850,21851,21851,21866,21867,21867,21867,21867,21867,21892,21892,21892,21893,21893,21893,21906,21907,21907,21907,21907,21908,21908,21908,21931,21931,21931,21931,21931,21931,21932,21932,21947,21947,21947,21947,21947,21948,21948,21948,21948,21962,21963,21963,21963,21963,21964,21964,21964,21964,21987,21987,21987,21987,21987,21988,21988,21988,22002,22003,22003,22003,22003,22003,22004,22004,22026,22027,22027,22027,22027,22028,22028,22028,22042,22043,22043,22043,22044,22044,22044,22045,22066,22067,22067,22067,22067,22067,22082,22083,22083,22083,22083,22083,22084,22106,22107,22107,22107,22107,22122,22123,22123,22123,22146,22146,22147,22147,22147,22147,22162,22163,22163,22163,22163,22163,22186,22187,22187,22187,22187,22202,22203,22203,22203,22203,22226,22227,22227,22227,22227,22242,22243,22243,22243,22243,22266,22267,22267,22267,22267,22282,22283,22283,22283,22306,22307,22307,22307,22308,22308,22322,22323,22323,22323,22323,22346,22347,22347,22347,22347,22347,22362,22363,22363,22363,22363,22387,22387,22387,22387,22388,22403,22403,22403,22403,22404,22427,22427,22427,22428,22443,22443,22443,22443,22467,22467,22467,22483,22507,22523,22547,22547,22563,22587,22588,22603,22603,22643,22683" d="m266.51135,184.09091c-2.54166,0 -3.5,0 -4.37149,0c-0.69101,0 -1.44199,-0.00099 -2.62851,0c-0.79865,0.00067 -1.58984,-0.00209 -2.36398,0.036c-0.75137,0.03696 -2.15286,0.24411 -2.81067,0.38934c-0.97929,0.21622 -1.99026,0.42517 -2.71201,0.48933c-0.75861,0.06743 -1.55997,0.07892 -2.39999,0.084c-1.33481,0.00809 -1.79866,0.00133 -2.74933,0.00133c-0.97467,0 -1.46851,-0.00099 -2.964,0c-1,0.00067 -1.50014,-0.0025 -2.5,0.02083c-0.50009,0.01167 -1.50253,0.03903 -3.00017,0.2005c-0.50215,0.05414 -1.51035,0.20505 -2.02066,0.27867c-1.03604,0.14946 -1.56194,0.24438 -3.20033,0.37849c-0.56079,0.0459 -1.69345,0.08797 -2.25801,0.10068c-0.55945,0.0126 -1.65149,0.02016 -2.6875,0.02083c-0.96666,0.00063 -1.89333,0 -2.81999,0c-0.47583,0 -2.01334,0 -2.57716,0c-1.18967,0 -1.80151,0 -2.41534,0c-0.60883,0 -1.78349,0 -2.85416,0c-0.92801,0 -1.744,0 -2.86301,0c-1.13699,0 -1.97302,-0.00104 -2.4135,0.0045c-0.91107,0.01144 -1.84467,0.02295 -3.2235,0.16217c-0.44624,0.04506 -1.30981,0.18423 -2.14584,0.33333c-0.81664,0.14563 -2.01936,0.34924 -2.82083,0.41467c-0.79886,0.06522 -1.59995,0.07889 -2.39999,0.084c-1.20013,0.00768 -2.0045,0.00133 -2.82083,0.00133c-0.83633,0 -2.14584,0 -2.60068,0c-0.93567,0 -1.89932,0 -2.38916,0c-0.99066,0 -2.48917,0 -2.98801,0c-0.99066,0 -1.4805,0 -2.44417,0c-1.39049,0 -2.27316,0 -3.13182,0c-0.42534,0 -1.278,0 -2.59201,0c-0.91866,0 -1.3905,0 -2.35416,0c-0.98367,0 -1.4805,0 -2.97917,0c-1,0 -1.5,0 -2.5,0c-0.5,0 -2,0 -3,0c-0.5,0 -1.5,0 -2,0c-1,0 -2.49983,0 -2.99867,0c-0.99066,0 -1.4805,0 -2.44417,0c-1.39049,0 -2.27316,0 -3.13182,0c-0.42534,0 -1.278,0 -2.59201,0c-0.91733,0 -1.85866,0 -2.33333,0c-0.94733,0 -2.33333,0 -2.77867,0c-0.86867,0 -1.72133,0 -2.57399,0c-1.31401,0 -2.23001,0 -2.69551,0c-0.931,0 -1.842,0 -3.1185,0c-0.76534,0 -1.48267,0 -2.18399,0c-0.71735,0 -1.892,0 -2.75467,0c-0.89467,0 -1.78934,0 -3.06134,0c-0.76132,0 -1.45067,0 -2.36716,0c-1.04485,0 -1.74084,0 -2.65018,0c-1.00133,0 -1.83682,0 -2.71733,0c-0.8985,0 -1.78799,0 -2.64149,0c-1.03584,0 -1.73183,0 -2.64117,0c-1.00267,0 -1.85767,0 -2.47767,0c-1.35966,0 -2.091,0 -2.83833,0c-0.74734,0 -1.83334,0 -2.83833,0c-0.62,0 -1.475,0 -2.7045,0c-0.85267,0 -1.65717,0 -2.45717,0c-1,0 -1.81067,0 -2.68533,0c-0.99734,0 -1.79383,0 -2.54533,0c-1.11867,0 -2.10267,0 -2.78817,0c-0.8385,0 -2.14783,0 -2.86383,0c-0.732,0 -1.456,0 -2.784,0c-0.8235,0 -1.548,0 -2.5,0c-0.7905,0 -1.644,0 -2.83334,0c-0.6,0 -1.5,0 -2.4,0c-0.89967,0 -1.77866,0 -2.58566,0c-1.04367,0 -2.22455,-0.57005 -2.89284,0.00017c-0.58662,0.50053 -0.1215,1.6525 -0.1215,2.51584c0,0.86932 0,1.81732 0,2.756c0,0.54933 0,1.728 0,2.62799c0,0.60001 0,1.5 0,2.70001c0,0.59999 0,1.5 0,2.7c0,0.59999 -0.00134,1.5 0,2.7c0.00067,0.60133 0.0009,1.52228 0.05717,2.15717c0.1213,1.36864 0.2955,2.0955 0.44283,2.84283c0.14733,0.74733 0.35011,1.83159 0.44733,2.85184c0.06366,0.66803 0.08371,1.36041 0.21933,2.48149c0.10123,0.83678 0.26132,1.71689 0.408,2.616c0.14394,0.88225 0.27345,1.71596 0.37267,2.84534c0.0619,0.70459 0.08263,1.41319 0.21933,2.53867c0.10181,0.83823 0.26395,1.72903 0.444,2.65201c0.09111,0.46703 0.38882,1.84811 0.58801,2.728c0.19018,0.8401 0.38169,1.63693 0.516,2.39999c0.18685,1.06157 0.22814,1.73438 0.31066,2.71201c0.05562,0.65892 0.1856,1.6982 0.33183,2.43184c0.15267,0.76593 0.34645,1.54755 0.64284,2.74283c0.19807,0.79881 0.39851,1.58731 0.564,2.364c0.15955,0.74884 0.36469,2.15111 0.4,2.81067c0.05231,0.97711 0.03216,1.99202 0.03734,2.70934c0.00536,0.74138 -0.02444,1.49716 0.16533,2.94933c0.08958,0.68553 0.27929,1.326 0.48067,2.26218c0.25787,1.19876 0.26703,1.79922 0.378,2.63249c0.15128,1.13602 0.66948,1.84886 0.88934,2.75734c0.17151,0.70869 0.08533,1.71449 0.08533,2.49382c0,0.99933 -0.24886,1.85397 0,2.7355c0.22652,0.8024 1.22874,1.0701 2.10983,1.3425c0.81786,0.25287 1.56982,0.70639 2.57816,0.85883c0.56592,0.08557 1.53314,0.11603 2.64534,0.25067c0.84069,0.10178 1.74901,0.26074 2.22916,0.33334c1.00301,0.15167 1.52289,0.24481 3.15916,0.37851c0.56428,0.04611 1.13978,0.07257 2.32,0.10065c0.60492,0.01437 1.21999,0.01859 3.125,0.02084c0.65484,0.00076 1.31866,0 1.9905,0c0.67883,0 2.0535,0 2.74733,0c0.69684,0 2.0955,0 2.79584,0c0.70233,0 1.40867,0 2.84133,0c0.73033,0 1.47267,0 2.229,0c1.56267,0 2.37199,0 3.19733,0c0.83733,0 1.68266,0 2.532,0c0.84933,0 1.69467,0 2.532,0c1.63467,0 2.425,0 3.19734,0c0.75633,0 1.49866,0 2.22899,0c0.72034,0 1.43268,0 2.13901,0c1.40266,0 2.10266,0 2.80266,0c1.40001,0 2.10001,0 2.8,0c0.7,0 1.40001,0 2.8,0c0.70016,0 2.10449,0 2.81067,0c0.71016,0 1.42532,0 2.1465,0c0.72816,0 2.2095,0 2.96416,0c0.76268,0 1.53134,0 2.304,0c0.77467,0 1.54933,0 2.32201,0c2.286,0 3.03084,0 3.76466,0c0.72183,0 1.43066,0 2.1255,0c0.67982,0 1.99049,0.00015 3.22917,0c0.5905,-0.00009 1.72354,-0.00113 2.27199,-0.01068c1.07614,-0.01874 1.6114,-0.02139 3.22801,-0.15598c0.55527,-0.04623 1.11731,-0.10916 2.248,-0.26935c0.5652,-0.08008 1.67627,-0.26422 2.21599,-0.36533c1.52866,-0.28638 1.99805,-0.4003 2.89734,-0.58801c0.85008,-0.17746 1.66557,-0.35565 2.87216,-0.48932c0.80235,-0.0889 1.62135,-0.11133 2.457,-0.17401c1.31078,-0.0983 1.76517,-0.16293 2.7,-0.29999c0.96455,-0.14142 1.45183,-0.23428 2.44417,-0.36334c0.99715,-0.1297 1.99825,-0.20816 2.99867,-0.24799c0.49983,-0.0199 1.5,-0.03284 2,-0.03467c1.49982,-0.00546 2.49554,-0.0025 2.98933,-0.01202c0.97482,-0.01877 1.92734,-0.05453 2.84399,-0.15598c0.88504,-0.09796 1.74055,-0.26321 2.59201,-0.40802c0.85789,-0.1459 1.74028,-0.27136 2.65866,-0.34134c0.94043,-0.07166 1.89104,-0.10358 2.36333,-0.13666c1.38728,-0.09717 2.26836,-0.22531 3.11667,-0.37265c0.82637,-0.14352 1.63106,-0.32013 2.836,-0.45334c0.79808,-0.08823 1.60014,-0.11935 2,-0.14667c0.80029,-0.05469 2.0013,-0.1893 2.8045,-0.32733c0.81754,-0.1405 1.64821,-0.32932 2.96217,-0.48068c0.91618,-0.10556 1.39015,-0.11963 2.35416,-0.14581c0.98344,-0.0267 1.4805,-0.02017 2.97917,-0.02084c0.5,-0.00021 1.5,0 2.5,0c0.5,0 2,0 2.5,0c1,0 2,0 2.5,0c1,0 2.00002,0.00403 2.99867,-0.00134c0.99069,-0.00534 1.48145,0.00021 2.44415,-0.05582c1.39246,-0.08102 2.27364,-0.22397 2.70451,-0.2955c0.85362,-0.14169 1.70093,-0.32895 3.01933,-0.48068c0.91357,-0.10513 1.38116,-0.11929 2.3125,-0.14581c0.91077,-0.02594 2.1875,-0.02084 2.95149,-0.02084c0.70801,0 1.384,0 2.73601,0c0.716,0 1.448,0 2.172,0c1.328,0 2.14249,0 2.99518,0c0.909,0 1.92621,0.10794 2.61798,-0.35266c0.69501,-0.46274 1.39999,-0.64508 2.42285,-0.64734c0.79199,-0.00174 1.62531,0 2.60382,0l0.82016,0l0.90134,0l0.94284,-0.05716" id="svg_3" stroke-width="2" stroke="#000" fill="none"/>
  <path t="23395,23474,23474,23474,23474,23492,23493,23493,23493,23493,23515,23515,23515,23515,23515,23515,23531,23531,23531,23531,23531,23555,23555,23555,23555,23555,23555,23555,23571,23571,23571,23571,23571,23571,23595,23595,23595,23595,23595,23595,23611,23611,23611,23611,23611,23611,23611,23635,23635,23635,23635,23635,23635,23635,23635,23651,23651,23651,23651,23651,23651,23651,23675,23675,23675,23675,23675,23675,23692,23692,23692,23692,23692,23692,23714,23715,23715,23715,23715,23730,23731,23731,23731,23731,23754,23754,23755,23755,23770,23770,23771,23794,23795,23795,23795,23810,23810,23811,23811,23839,23839,23839,23839,23851,23852,23852,23852,23874,23875,23875,23875,23875,23892,23893,23893,23893,23914,23914,23914,23914,23930,23930,23954,23954,23954,23970,23970,23994,23994,24010,24010,24011,24035,24035,24035,24035,24051,24051,24051,24051,24051,24051,24075,24075,24075,24075,24075,24091,24091,24091,24092,24092,24092,24107,24107,24107,24108,24131,24131,24131,24147,24147,24147,24171,24171,24171,24171,24187,24187,24188,24188,24211,24211,24212,24212,24212,24212,24227,24227,24227,24228,24228,24228,24251,24251,24251,24251,24251,24251,24251,24267,24267,24267,24267,24267,24267,24268,24290,24291,24291,24291,24291,24291,24291,24292,24307,24307,24307,24307,24307,24308,24308,24308,24331,24331,24331,24331,24331,24331,24331,24332,24346,24347,24347,24347,24347,24347,24347,24347,24371,24371,24371,24371,24371,24371,24372,24372,24372,24386,24387,24387,24387,24387,24387,24387,24387,24411,24411,24411,24411,24411,24412,24412,24427,24427,24427,24427,24427,24427,24427,24451,24451,24451,24451,24451,24452,24452,24467,24467,24467,24467,24467,24492,24492,24492,24492,24492,24493,24507,24507,24507,24507,24531,24531,24531,24531,24547,24547,24547,24547,24571,24571,24571,24586,24587,24587,24587,24587,24610,24611,24611,24611,24611,24626,24627,24627,24627,24627,24650,24651,24651,24651,24651,24651,24651,24666,24667,24667,24667,24691,24691,24691,24707,24707,24722,24723,24723" d="m234.51137,166.09091c-1.77066,2.68533 -2.26782,3.24001 -2.82133,3.81067c-0.57701,0.59489 -1.48262,1.48579 -2.07866,2.09833c-0.30202,0.31038 -0.91942,0.94678 -1.5,1.66167c-0.93152,1.14702 -1.21117,1.5898 -1.77867,2.49066c-0.28671,0.45514 -0.81876,1.38454 -1.05067,1.856c-0.66177,1.34534 -0.81689,1.79463 -1.10933,2.668c-0.29161,0.87093 -0.53885,1.78555 -0.828,2.748c-0.31177,1.03769 -0.48657,1.57632 -0.65866,2.12801c-0.35051,1.12363 -0.52722,1.68896 -0.69067,2.256c-0.47763,1.657 -0.61093,2.19568 -0.83733,3.25734c-0.11172,0.52394 -0.29556,1.57661 -0.36,2.10933c-0.19763,1.6339 -0.21107,2.20096 -0.25067,3.35201c-0.02011,0.58467 -0.02934,1.17464 -0.03467,2.36533c-0.00537,1.19865 0.00246,1.79884 -0.00583,3.00317c-0.00417,0.60617 -0.00681,1.21664 -0.05267,2.45267c-0.02332,0.62836 -0.10594,1.90981 -0.16415,2.56433c-0.05907,0.66417 -0.20428,2.01447 -0.27867,2.69933c-0.07494,0.6898 -0.1524,1.38319 -0.216,2.08051c-0.12749,1.39778 -0.16934,2.09801 -0.23134,3.48967c-0.03062,0.68753 -0.05141,1.36737 -0.07799,2.037c-0.02611,0.6577 -0.1364,2.53914 -0.196,3.129c-0.05788,0.57283 -0.20352,1.67107 -0.27867,2.20132c-0.14638,1.03281 -0.33972,2.54114 -0.37849,3.0415c-0.07707,0.99477 -0.09338,1.48933 -0.11084,2.46417c-0.01701,0.95056 -0.01067,2.31467 -0.01067,2.752c0,0.85866 0,1.70934 0,2.56799c0,1.33717 0,1.79868 0,2.73067c0,0.924 0,1.81601 0,3.04233c0,0.72867 0,1.40134 0,2.34035c0,1.20399 0,1.81332 0,2.75983c0,1.00951 0,1.72684 0,2.46817c0,1.12199 -0.00623,2.20804 0.00133,2.88933c0.0107,0.96465 0.00465,1.58894 0.22017,2.78551c0.10979,0.60956 0.39078,1.53535 0.57983,2.18517c0.30124,1.03542 0.50107,1.77122 0.69867,2.53551c0.20245,0.78302 0.49626,1.9801 0.70134,2.77914c0.20558,0.80099 0.4162,1.60599 0.68399,2.40002c0.40794,1.20959 0.76791,1.99335 1.09384,2.77914c0.31592,0.76166 0.70772,1.84958 0.85283,2.53284c0.1954,0.9201 0.19365,1.80496 0.73866,2.51868c0.53062,0.69489 1.44374,1.11887 2.02484,1.62201c0.58345,0.50519 1.34656,1.36707 2.02983,1.93665c0.66318,0.55283 1.39264,0.91629 2.37466,1.41068c0.60277,0.30344 1.45,0.71774 2.422,1.10016c0.54485,0.21436 1.49626,0.53708 2.23534,0.78519c0.84219,0.28271 1.79578,0.59937 2.30516,0.76733c1.05785,0.34879 1.59583,0.52731 2.67084,0.86331c1.03175,0.32248 1.99551,0.60974 2.916,0.83734c0.44922,0.11108 1.35179,0.31879 2.784,0.48001c0.50797,0.05719 1.56735,0.11371 2.10667,0.13065c1.0731,0.03369 1.5975,0.03607 3.06,0.03601c0.84267,-0.00003 1.59248,0.05792 2.52933,-0.11435c0.81955,-0.15073 1.55734,-0.54648 2.12401,-1.10699c0.91028,-0.90042 1.24643,-1.58398 1.54218,-2.293c0.46149,-1.10638 0.60703,-1.7948 0.80447,-2.5065c0.20261,-0.73029 0.5007,-1.81229 0.80002,-2.83548c0.20044,-0.68521 0.41656,-1.40677 0.69998,-2.64368c0.10608,-0.46295 0.30014,-1.46622 0.38934,-1.99734c0.18427,-1.09711 0.27908,-1.65628 0.444,-3.336c0.05347,-0.54456 0.11374,-1.61383 0.13068,-2.14133c0.03375,-1.05042 0.03372,-1.578 0.03598,-3.19199c0.00076,-0.55484 0,-1.69052 0,-2.26935c0,-0.58482 0,-1.76849 0,-2.36533c0,-1.19867 0,-2.40134 0,-3.00768c0,-0.61234 0,-1.23267 0,-2.50533c0,-0.65634 0,-2.019 0,-2.7285c0,-0.7265 0,-1.46701 0,-2.21851c0,-0.75949 0,-2.2905 0,-3.056c0,-1.51599 0,-2.26117 0,-2.99733c0,-0.72816 0,-1.44934 0,-2.16451c0,-0.71016 0.00024,-1.41634 0,-3.52083c-0.00009,-0.7 0.00018,-1.40001 -0.00449,-2.10001c-0.00467,-0.70001 -0.01157,-1.40012 -0.03149,-2.09999c-0.03986,-1.40031 -0.1257,-2.80042 -0.18567,-3.5c-0.06003,-0.70044 -0.1351,-1.40062 -0.22501,-2.10001c-0.09009,-0.70065 -0.18069,-1.40344 -0.44,-2.8c-0.26062,-1.40373 -0.43283,-2.10054 -0.59601,-2.80133c-0.16382,-0.70357 -0.3349,-1.40866 -0.49649,-2.11949c-0.16241,-0.71452 -0.32764,-1.43332 -0.45151,-2.16451c-0.37738,-2.22781 -0.40552,-2.99692 -0.4595,-3.76283c-0.05402,-0.76613 -0.08981,-1.53098 -0.12448,-2.2905c-0.0343,-0.75148 -0.05322,-1.49295 -0.15201,-2.92801c-0.04755,-0.69084 -0.11115,-1.36334 -0.25867,-2.66133c-0.07169,-0.63068 -0.1604,-1.24944 -0.29065,-2.46933c-0.12827,-1.20155 -0.17346,-1.80214 -0.22684,-3.00267c-0.02667,-0.59978 -0.04132,-1.19994 -0.05267,-2.39999c-0.00568,-0.59999 -0.00198,-1.8 -0.00583,-2.99867c-0.00192,-0.59683 -0.00052,-1.19089 -0.03467,-2.36533c-0.01685,-0.57898 -0.02039,-1.15329 -0.18533,-2.8145c-0.05334,-0.53719 -0.20401,-1.58551 -0.27869,-2.10068c-0.14732,-1.01633 -0.33864,-2.52037 -0.37865,-3.02049c-0.07924,-0.99054 -0.09045,-1.47931 -0.14667,-2.42833c-0.05341,-0.90166 -0.17781,-2.13281 -0.33183,-2.86217c-0.14632,-0.6929 -0.45096,-1.69058 -0.74284,-2.73117c-0.20477,-0.73001 -0.39699,-1.47948 -0.59999,-2.226c-0.29564,-1.08719 -0.58377,-2.09863 -0.82083,-2.711c-0.33554,-0.86679 -0.74374,-1.66969 -1.3365,-2.29501c-0.60751,-0.64088 -1.46306,-1.11208 -2.457,-1.49399c-0.71875,-0.27617 -1.49657,-0.49982 -1.88834,-0.63667c-1.20354,-0.42044 -2.00034,-0.7722 -2.81816,-1.116c-0.83482,-0.35095 -1.25143,-0.55566 -2.60085,-0.9785c-0.93178,-0.29196 -1.42296,-0.39468 -2.42499,-0.61084c-0.51401,-0.11089 -2.11971,-0.4124 -2.6745,-0.5105c-1.1264,-0.19919 -1.69301,-0.29276 -2.25801,-0.37933c-1.11003,-0.17009 -1.64841,-0.26736 -3.17749,-0.39917c-0.91855,-0.07918 -1.7614,-0.11012 -2.52,-0.06c-0.99339,0.06564 -1.87616,0.17365 -2.65717,0.70001c-0.88283,0.59499 -1.14534,1.25916 -1.66617,2.23833l-0.2955,0.61349l-0.26849,0.6945" id="svg_4" stroke-width="2" stroke="#000" fill="none"/>
  <path t="25245,25323,25324,25340,25340,25340,25363,25363,25363,25363,25379,25379,25379,25379,25379,25403,25403,25403,25403,25403,25419,25419,25419,25419,25419,25419,25443,25444,25444,25444,25444,25444,25444,25458,25458,25458,25458,25458,25458,25458,25459,25483,25483,25483,25483,25483,25483,25483,25499,25499,25499,25499,25499,25499,25499,25499,25523,25523,25523,25523,25523,25523,25523,25523,25539,25539,25539,25539,25539,25539,25539,25539,25563,25563,25563,25563,25563,25563,25563,25563,25579,25579,25579,25579,25579,25579,25579,25603,25603,25603,25603,25603,25603,25619,25619,25619,25619,25619,25619,25619,25642,25643,25643,25643,25643,25659,25659,25659,25659,25659,25683,25683,25683,25683,25683,25699,25699,25699,25699,25699,25699,25722,25723,25723,25723,25723,25738,25739,25739,25739,25762,25763,25763,25779,25779,25779,25779,25802,25803,25803,25818,25819,25819,25819,25842,25843,25843,25858,25859,25859,25859,25859,25859,25859,25882,25883,25883,25883,25883,25883,25898,25899,25899,25899,25899,25899,25899,25923,25923,25923,25923,25938,25939,25939,25954,25955,25955,25955,25978,25979,25979,25994,25995,25995,25995,26018,26019,26019,26019,26019,26034,26035,26035,26035,26035,26035,26035,26058,26058,26059,26059,26059,26059,26059,26059,26059,26074,26075,26075,26075,26075,26075,26075,26075,26098,26099,26099,26099,26099,26099,26099,26099,26115,26115,26115,26115,26115,26115,26115,26115,26116,26139,26139,26139,26139,26139,26139,26139,26140,26154,26155,26155,26155,26155,26155,26155,26155,26179,26179,26179,26179,26179,26179,26179,26180,26195,26195,26195,26195,26195,26195,26196,26196,26196,26218,26219,26219,26219,26219,26235,26235,26235,26235,26235,26236,26259,26259,26259,26259,26260,26260,26275,26275,26276,26276,26276,26299,26299,26299,26299,26315,26315,26315,26315,26339,26339,26339,26355,26355,26355,26379,26379,26379,26395,26419,26419,26419,26434,26435,26459,26459,26459" d="m284.51135,164.09091c-4.228,1.20134 -5.0304,1.40843 -5.83331,2.16667c-0.63678,0.60133 -0.94974,1.31604 -1.70935,2.25499c-0.44724,0.55284 -0.98383,1.09978 -1.452,1.74001c-0.71362,0.97589 -1.05374,1.71661 -1.34399,2.47433c-0.29416,0.76794 -0.52197,1.57362 -0.98282,2.76416c-0.15643,0.40411 -0.51248,1.21144 -0.88919,2.03584c-0.38855,0.8503 -0.79468,1.72836 -1.18933,2.65067c-0.20273,0.47382 -0.60251,1.45403 -0.79999,1.95999c-0.40512,1.03801 -0.80234,2.11917 -1,2.675c-0.40479,1.13831 -0.60223,1.72426 -0.80002,2.32001c-0.40454,1.21851 -0.6041,1.84372 -1,3.125c-0.20209,0.65402 -0.40067,1.31712 -0.59998,1.98599c-0.40137,1.34694 -0.59946,2.02216 -0.80002,2.69467c-0.19946,0.66882 -0.60028,1.98592 -0.79965,2.63133c-0.39185,1.26849 -0.58365,1.89468 -0.75867,2.52133c-0.17432,0.62407 -0.38388,1.24228 -0.70834,3.16667c-0.10992,0.65187 -0.16959,1.31828 -0.228,1.99049c-0.05896,0.67847 -0.15216,2.05382 -0.21066,2.74733c-0.05881,0.69717 -0.21973,2.09685 -0.33749,2.7955c-0.11823,0.70145 -0.25842,1.40193 -0.578,2.8c-0.16022,0.70099 -0.33456,1.39915 -0.49652,2.10001c-0.32312,1.39836 -0.46503,2.09924 -0.59732,2.79999c-0.13202,0.6993 -0.25568,1.399 -0.47467,2.8c-0.10934,0.69951 -0.20999,1.39992 -0.41068,2.8c-0.10031,0.69978 -0.19962,1.39871 -0.29999,2.0955c-0.19931,1.38377 -0.29947,2.06857 -0.39999,2.74733c-0.09949,0.67191 -0.30017,1.99046 -0.49866,3.27049c-0.09692,0.62498 -0.19357,1.23958 -0.28052,1.845c-0.16934,1.17921 -0.25964,1.75281 -0.39951,3.4205c-0.0451,0.5379 -0.0957,1.60652 -0.12134,2.142c-0.05212,1.08904 -0.07004,1.64957 -0.16666,2.8125c-0.10257,1.23465 -0.185,1.86761 -0.25867,2.50667c-0.07367,0.6393 -0.22528,1.89714 -0.29065,2.50667c-0.1236,1.15268 -0.2074,2.19826 -0.24802,3.15601c-0.01932,0.45551 -0.03473,1.34099 -0.03601,2.664c-0.00089,0.91733 -0.00549,1.38623 0.02084,2.33333c0.02634,0.94766 0.13763,2.33444 0.20084,2.77866c0.12396,0.87112 0.30026,1.72668 0.54001,2.57401c0.37436,1.32306 0.55573,1.77008 0.89099,2.70001c0.17065,0.47339 0.52899,1.41949 0.86334,2.36331c0.32413,0.91498 0.59796,1.79797 0.85867,2.63736c0.24869,0.8006 0.4707,1.57666 0.94666,2.62515c0.30685,0.67599 0.6958,1.29123 1.19467,2.22015c0.47928,0.89246 0.70624,1.50821 1.10931,2.36536c0.51004,1.08463 0.81467,1.59265 1.41635,2.19434c0.60165,0.60168 1.63635,1.1731 2.19434,1.40567c0.85806,0.35764 1.76004,0.64832 2.664,0.93149c0.89624,0.28076 1.49249,0.47125 2.70398,0.61917c0.62531,0.07635 1.66751,0.08307 2.896,0.08533c0.46451,0.00085 1.47153,0 2.00803,0c1.12399,0 1.70547,0 2.29599,0c1.79599,0 2.396,0 2.996,0c1.19998,0 1.79999,0 2.39999,0c1.79999,0 2.39951,0 2.996,0c1.172,0 1.74149,0 2.83249,0c0.5155,0 1.90747,0.01932 2.70001,-0.009c1.04074,-0.0372 1.70102,-0.0723 2.87018,-0.56168c0.61166,-0.25604 1.19199,-0.6153 2.23465,-1.42932c0.49319,-0.38504 1.17792,-0.98001 1.67999,-1.68533c0.6767,-0.95062 0.86676,-1.54468 1.18219,-2.41916c0.32095,-0.88974 0.61389,-1.80063 0.78366,-2.43716c0.17838,-0.66891 0.37201,-1.79016 0.43549,-2.63034c0.0687,-0.90942 0.07706,-1.88531 0.08084,-2.39417c0.01193,-1.60046 0.00449,-2.15567 0.00449,-3.30002c0,-0.59116 0,-1.19632 0,-1.8165c0,-1.28934 0,-2.65067 0,-3.36017c0,-0.7265 0,-1.46698 0,-2.21848c0,-0.75952 0,-1.52402 0,-2.29051c0,-0.7655 0,-2.28149 0,-3.76283c0,-0.72816 0,-1.44934 0,-2.16451c0,-0.71016 0,-1.41634 0,-2.11949c0,-1.40134 0,-2.80267 0,-3.50584c0,-0.70616 0,-1.41632 0,-2.1315c0,-0.72116 0,-1.44933 0,-2.93066c0,-0.75482 0,-1.51866 0,-2.2905c0,-0.77884 0,-1.56366 0,-2.3535c0,-0.79384 0,-1.59067 0,-3.18933c0,-0.79984 0,-1.59866 0,-2.39551c0,-0.79382 0,-2.3685 0,-3.14732c0,-0.77184 0,-2.2905 0,-3.03568c0,-0.73616 0,-1.46432 0,-2.1855c0,-0.71516 0,-1.42532 0,-2.1315c0,-2.10449 0,-2.80466 0,-3.50583c0,-0.70317 0,-1.40933 0,-2.11949c0,-0.71518 0,-1.43634 0,-3.64584c0,-0.75417 0,-1.51334 0,-2.27249c0,-0.75417 0,-1.49834 0,-2.22751c0,-0.70917 0.00189,-1.39333 -0.00015,-3.2475c-0.00061,-0.54584 -0.0061,-1.55263 -0.02066,-2.02333c-0.02792,-0.90198 -0.13309,-2.23093 -0.26584,-3.14783c-0.06845,-0.47284 -0.242,-1.43849 -0.47501,-2.41917c-0.11841,-0.49843 -0.55414,-1.99724 -0.72366,-2.49417c-0.33932,-0.9946 -0.52765,-1.48366 -0.91916,-2.44417c-0.19299,-0.47342 -0.78757,-1.83923 -1.1955,-2.6955c-0.39243,-0.82367 -0.58914,-1.22083 -1,-1.97499c-0.58484,-1.07352 -0.97195,-1.74837 -1.63602,-2.64001c-0.42886,-0.57584 -1.17349,-1.33907 -1.71667,-1.78949c-0.80499,-0.66754 -1.37573,-1.04054 -2.36331,-1.85583c-0.46463,-0.38358 -1.10056,-1.00296 -2.10535,-1.57983c-0.51468,-0.29549 -1.35895,-0.59666 -2.41199,-1.0215c-0.70892,-0.28601 -1.46298,-0.84264 -2.414,-0.93834c-0.92068,-0.09265 -1.63754,0.30318 -2.26868,0.82501c-0.81631,0.67496 -1.1795,1.51782 -1.58398,2.31349l-0.40002,0.82066l-0.29999,0.66451" id="svg_5" stroke-width="2" stroke="#000" fill="none"/>
  <path t="26932,27011,27011,27011,27011,27040,27040,27040,27040,27051,27051,27051,27051,27074,27074,27074,27074,27074,27091,27091,27091,27091,27091,27091,27115,27115,27115,27115,27115,27115,27115,27131,27131,27131,27131,27131,27131,27131,27131,27155,27155,27155,27155,27155,27155,27155,27155,27155,27171,27171,27171,27171,27171,27171,27171,27171,27171,27195,27195,27195,27195,27195,27195,27195,27195,27195,27211,27211,27211,27211,27211,27211,27211,27211,27212,27227,27227,27227,27227,27227,27227,27227,27227,27227,27251,27251,27251,27251,27251,27251,27251,27251,27267,27267,27267,27267,27267,27267,27267,27267,27291,27291,27291,27291,27291,27291,27291,27307,27307,27307,27307,27307,27307,27331,27331,27331,27331,27331,27331,27331,27331,27347,27347,27347,27347,27347,27347,27347,27371,27371,27371,27371,27371,27371,27387,27387,27387,27387,27387,27411,27411,27411,27411,27411,27427,27427,27427,27451,27451,27451,27451,27451,27467,27467,27467,27467,27467,27491,27491,27492,27492,27492,27492,27507,27507,27507,27507,27507,27544,27545,27545,27545,27545,27545,27549,27549,27549,27549,27549,27550,27571,27571,27571,27571,27571,27587,27587,27587,27587,27587,27610,27611,27611,27611,27611,27611,27626,27627,27627,27627,27627,27627,27651,27651,27651,27651,27651,27651,27651,27666,27667,27667,27667,27667,27667,27667,27691,27691,27691,27691,27691,27691,27692,27692,27707,27707,27707,27707,27707,27707,27707,27708,27731,27731,27731,27731,27731,27731,27747,27747,27747,27747,27747,27747,27747,27748,27771,27771,27771,27771,27771,27771,27787,27787,27787,27787,27787,27787,27811,27811,27812,27812,27812,27812,27826,27827,27827,27827,27828,27828,27828,27843,27843,27843,27844,27844,27844,27866,27867,27867,27867,27867,27883,27883,27883,27883,27907,27907,27907,27923,27923,27947,27947,27947,27962,27962,27986,27986,27987,28002,28002,28003,28026,28027,28027,28042,28043,28043,28067,28067,28067,28067,28067,28083,28083,28083,28083,28107,28107,28107,28108,28108,28108,28123,28123,28123,28123,28124,28147,28147,28147,28147,28147,28162,28163,28163,28163,28163,28187,28187,28187,28227,28227,28243,28243,28243" d="m336.51135,171.09091c-6.814,0.22166 -7.68149,0.32384 -8.41666,0.54167c-0.99432,0.29462 -1.89984,0.75279 -2.47882,1.1245c-0.89627,0.57538 -1.46576,1.06708 -2.18317,1.9765c-0.50269,0.63725 -0.90207,1.37029 -1.37402,2.052c-0.68649,0.99162 -1.22711,1.54456 -1.78333,2.06532c-0.56903,0.53275 -1.19098,1.0705 -1.76401,1.74001c-0.62775,0.73343 -1.1955,1.61488 -1.47916,2.08333c-0.2912,0.48087 -0.85306,1.49773 -1.35416,2.58334c-0.2543,0.55093 -0.71652,1.69402 -0.94135,2.28c-0.22791,0.59402 -0.44675,1.20145 -0.90933,2.44c-0.47864,1.28151 -0.73544,1.93564 -1.00134,2.59866c-0.26974,0.67265 -0.54944,1.35118 -0.83548,2.03549c-0.28857,0.69035 -0.58301,1.38394 -1.47919,3.47917c-0.29959,0.70042 -0.60098,1.40169 -0.89548,2.10899c-0.2962,0.71138 -0.58826,1.43091 -0.8685,2.16301c-0.28348,0.74057 -0.57153,1.49188 -1.06934,3.06133c-0.25577,0.80634 -0.48636,1.63568 -0.70502,2.481c-0.22144,0.85603 -0.42557,1.72612 -0.61499,2.60699c-0.19061,0.88649 -0.37476,1.77878 -0.67999,3.57867c-0.1524,0.89861 -0.2847,1.79802 -0.405,2.6955c-0.11972,0.89322 -0.22467,1.78319 -0.315,2.6685c-0.08963,0.87837 -0.17401,1.74976 -0.28,3.46933c-0.05206,0.8446 -0.08469,1.6799 -0.1095,2.505c-0.02451,0.81491 -0.0383,1.61998 -0.04651,2.41499c-0.00809,0.78499 -0.01001,1.56001 -0.01068,3.08c-0.00034,0.74501 0,1.48001 0,2.205c0,0.715 0,1.42 0,2.11501c0,0.685 -0.00018,1.36 0,2.67999c0.00009,0.64534 -0.00018,1.28268 0.00452,1.914c0.00467,0.62735 0.01337,1.25275 0.03149,1.87801c0.01819,0.62743 0.12662,2.54169 0.18552,3.196c0.05969,0.66304 0.13159,1.33182 0.21448,2.004c0.16653,1.35037 0.26657,2.02229 0.36536,2.69067c0.19479,1.3179 0.29242,1.96338 0.50314,3.22232c0.10303,0.61554 0.20358,1.22263 0.45267,2.40001c0.12195,0.57635 0.39365,1.69983 0.72952,2.77899c0.16714,0.53702 0.552,1.60464 0.75998,2.14401c0.21194,0.54968 0.91946,2.27222 1.17468,2.88132c0.26212,0.62558 0.53119,1.26273 0.80399,1.90802c0.27454,0.64938 0.82269,1.9437 1.09067,2.58133c0.51868,1.2341 0.76196,1.82526 1,2.39734c0.45737,1.09921 0.67603,1.63254 1.13666,2.66165c0.22745,0.50812 0.96487,2.01077 1.23267,2.50635c0.26791,0.49579 0.82913,1.465 1.12534,1.93066c0.57834,0.9093 1.1731,1.75171 1.78934,2.50131c0.58487,0.7114 1.19763,1.35162 1.5,1.66168c0.89307,0.9158 1.49182,1.51486 2.10001,2.08768c0.59216,0.55774 1.15817,1.11542 2.10016,1.67816c0.87595,0.52328 1.52271,0.75443 2.86652,0.9765c0.71487,0.11813 1.47977,0.13885 2.28,0.15598c0.83984,0.01797 2.17487,0.01373 2.63867,0.00803c0.95078,-0.01172 1.92682,-0.0546 2.41916,-0.11169c1.50137,-0.17416 2.0014,-0.30728 2.991,-0.59998c0.4971,-0.14703 1.47369,-0.49432 2.41916,-0.88834c0.92389,-0.38501 1.80179,-0.79639 2.23267,-0.99734c0.85355,-0.3981 1.70129,-0.80896 3.01935,-1.39999c0.45328,-0.20325 1.38702,-0.60214 1.85867,-0.81067c0.95142,-0.42062 1.43921,-0.61383 2.80798,-1.35599c0.45074,-0.24438 1.31567,-0.77454 2.10416,-1.375c0.38757,-0.29517 1.13562,-0.90619 2.01968,-1.97968c0.28876,-0.35065 0.78256,-1.10333 1.25751,-1.85333c0.46902,-0.74066 1.19873,-1.81067 1.74249,-2.47717c0.27481,-0.33682 0.86844,-0.99725 1.44415,-1.7175c0.92288,-1.1546 1.20969,-1.59335 1.78802,-2.50266c0.2962,-0.46567 0.5903,-0.9407 1.12531,-1.93066c0.53445,-0.98898 1.0051,-1.9964 1.22818,-2.50183c0.44659,-1.0119 0.65106,-1.52975 0.85266,-2.05267c0.61847,-1.60419 0.80667,-2.16342 1.2045,-3.2955c0.20111,-0.57227 0.39938,-1.14755 0.60001,-1.72202c0.39877,-1.14175 0.80057,-2.25844 1.19867,-3.34399c0.19714,-0.53755 0.40375,-1.07297 0.76532,-2.17867c0.18558,-0.5675 0.39233,-1.14769 0.81451,-3.067c0.15115,-0.68719 0.26831,-1.40202 0.3855,-2.133c0.11923,-0.7437 0.22696,-1.49844 0.33151,-2.259c0.10477,-0.76212 0.30374,-2.2771 0.40448,-3.02184c0.09927,-0.73392 0.19849,-1.45587 0.30002,-2.16449c0.19702,-1.37511 0.29782,-2.03885 0.39999,-2.68533c0.19586,-1.23933 0.39914,-2.40416 0.5,-2.96667c0.19827,-1.10564 0.30179,-1.65569 0.39999,-2.21066c0.3056,-1.72702 0.40271,-2.3369 0.49866,-2.96268c0.19653,-1.28177 0.28323,-1.93164 0.36536,-2.58133c0.08151,-0.64499 0.1749,-1.28065 0.31448,-3.10783c0.04376,-0.57297 0.08896,-1.68141 0.10068,-2.222c0.02316,-1.06888 0.02014,-1.6035 0.02081,-3.24216c0.00021,-0.56267 0,-1.13133 0,-2.27867c0,-0.57466 0,-1.716 0,-2.83333c0,-1.08267 0,-1.614 0,-2.66667c0,-0.52533 0.00064,-1.584 0,-2.66667c-0.00067,-1.11867 -0.00134,-1.69054 -0.01065,-2.26933c-0.01892,-1.17479 -0.03802,-1.76895 -0.07468,-2.36533c-0.1106,-1.80009 -0.1944,-2.39671 -0.27182,-2.98967c-0.15265,-1.16882 -0.24371,-1.73874 -0.44418,-2.83833c-0.18942,-1.03906 -0.39465,-1.99992 -0.50314,-2.45183c-0.20621,-0.85884 -0.40152,-1.67311 -0.86218,-2.75217c-0.43829,-1.0267 -0.83167,-1.62602 -1.18066,-2.205c-0.62811,-1.04201 -1.02237,-1.72272 -1.34818,-2.35718c-0.51349,-0.99991 -0.89807,-1.80772 -1.3045,-2.60449c-0.4043,-0.7926 -0.65414,-1.45546 -1.48666,-2.11333c-0.689,-0.54446 -1.67743,-0.73946 -2.466,-0.834c-0.81982,-0.09828 -1.89169,-0.18192 -2.59467,-0.40984c-0.92239,-0.29906 -1.87299,-0.74551 -2.40533,-0.94284c-0.82047,-0.30412 -1.88132,-0.69838 -2.59915,-1c-0.71017,-0.2984 -1.77893,-0.70839 -2.41882,-0.89999c-0.69867,-0.2092 -1.45016,-0.40201 -2.23203,-0.60001c-1.19672,-0.30305 -2.00128,-0.50226 -2.81815,-0.7c-0.83578,-0.20232 -2.14554,-0.50133 -2.60068,-0.60001c-0.93509,-0.20273 -1.8992,-0.40053 -2.38916,-0.5c-0.99045,-0.20108 -1.9895,-0.39922 -2.98801,-0.59999c-0.99081,-0.19923 -1.48129,-0.29622 -2.44415,-0.5c-1.39166,-0.29454 -1.83493,-0.40393 -2.7045,-0.5955c-0.85181,-0.18767 -1.70142,-0.37686 -3.01935,-0.53783c-0.45319,-0.05534 -1.37665,-0.11914 -2.29166,-0.14584c-0.87445,-0.02553 -2.04169,-0.02083 -2.68567,-0.02083c-1.02402,0 -1.85602,0 -2.83517,0.04167l-0.85416,0.29166l-0.53067,0.53867l-0.43466,0.73067" id="svg_6" stroke-width="2" stroke="#000" fill="none"/>
  <path t="29413,29532,29532,29532,29532,29532,29532,29548,29548,29548,29548,29548,29548,29548,29548,29548,29571,29571,29571,29571,29571,29571,29571,29571,29571,29588,29588,29588,29588,29588,29588,29588,29588,29588,29612,29612,29612,29612,29612,29612,29612,29612,29612,29628,29628,29628,29628,29628,29628,29628,29628,29628,29652,29652,29652,29652" d="m493.51135,244.09091c3.96503,1.10001 4.98459,1.30249 5.54001,1.39999c0.58453,0.10262 1.84454,0.30307 2.52002,0.40001c1.43906,0.20653 2.20462,0.30168 2.99866,0.39999c0.82162,0.10173 1.6705,0.20137 2.5455,0.3c0.89969,0.10141 1.82349,0.20164 2.77051,0.3c1.95831,0.2034 2.96783,0.30138 3.99335,0.39867c1.03717,0.09839 2.08246,0.19316 3.13196,0.2805c1.04919,0.08733 2.0943,0.16931 3.13202,0.23549c2.034,0.12973 3.02454,0.16754 3.99469,0.20001c0.94983,0.03178 1.87988,0.05171 2.78998,0.0645c0.89001,0.0125 1.76001,0.01756 2.60999,0.0195c1.64001,0.00372 2.42999,0.00044 3.20001,0.00266c0.75,0.00215 1.48004,0.00662 2.19,0.0195c0.69006,0.01253 1.36035,0.02911 2.01001,0.0645c1.24084,0.06758 1.83044,0.13182 2.39996,0.19867c0.55054,0.06462 1.08026,0.13985 1.59003,0.216c0.49023,0.07323 0.95959,0.15019 1.40997,0.216c0.83929,0.12263 1.23004,0.16249 1.95001,0.22682l0.92999,0.04651" id="svg_7" stroke-width="2" stroke="#000" fill="none"/>
  <path t="30373,30476,30476,30494,30494,30494,30494,30494,30494,30510,30510,30510,30510,30510,30510,30510,30510,30510,30531,30531,30531,30531,30532,30532,30532,30532,30532,30548,30548,30548,30548,30548,30548,30548,30548,30548,30571,30572,30572,30572,30572,30572,30572,30572,30572,30587,30588,30588,30588,30588,30588,30588,30588,30588" d="m110.51137,227.09091c1.868,0 2.576,0 3.86533,0c0.82867,0 1.296,0 2.34666,0c0.58733,0 1.21867,-0.00015 2.62134,0c0.7745,0.00009 1.596,-0.00003 2.46149,0.0045c0.90651,0.00475 1.85105,0.01367 2.83051,0.03149c1.01155,0.01842 2.05251,0.03677 4.20799,0.13068c1.10997,0.04836 2.23753,0.11565 3.381,0.19049c1.15787,0.07579 2.32747,0.162 3.507,0.25351c1.18781,0.09215 2.38138,0.19008 4.77867,0.38933c1.19969,0.09972 2.39735,0.19975 3.591,0.3c1.18768,0.09975 2.36737,0.19949 3.537,0.3c1.1577,0.09949 2.30157,0.19736 4.53867,0.39999c1.08995,0.09872 2.15877,0.1989 3.20549,0.3c1.02394,0.09891 2.0238,0.19865 2.9985,0.3c0.94897,0.09868 1.87125,0.1949 3.62933,0.39999c0.83513,0.09743 1.63875,0.19809 2.41049,0.2955c0.73892,0.09328 1.44368,0.18367 2.11351,0.26849l0.63383,0.07884l0.59683,0.07182" id="svg_8" stroke-width="2" stroke="#000" fill="none"/>
  <path t="31309,31388,31388,31388,31412,31412,31412,31412,31412,31427,31428,31428,31428,31428,31428,31428,31452,31452,31452,31452,31452,31452,31452,31467,31468,31468,31468,31468,31468,31468,31492,31492,31492,31492,31492,31492,31492,31507,31508,31508,31508,31508,31508,31508,31524,31524,31524,31524,31524,31524,31524,31548,31548,31548,31548,31549,31549,31563,31563,31563,31563,31587,31587,31587" d="m311.51135,322.09091c0,3.60132 0,4.52084 0,5.15717c0,1.36484 0,2.11349 0,2.92618c0,0.43533 -0.0015,1.37399 0.00018,2.98099c0.00061,0.59033 0.00128,1.2027 0.0105,1.83301c0.01901,1.29877 0.04013,1.95929 0.07468,2.62134c0.06866,1.3154 0.19629,2.59625 0.26733,3.22415c0.07031,0.62146 0.15167,1.23581 0.29465,2.45267c0.07083,0.60294 0.19858,1.80371 0.26733,3.00583c0.03448,0.60284 0.05594,1.20923 0.07468,2.43466c0.00949,0.62115 0.00998,1.24936 0.01065,2.53067c0.00067,1.31735 0,1.98602 0,2.65866c0,0.67468 0,1.34933 0,2.69067c0,1.31735 0,1.96249 0,2.59866c0,1.24936 0,1.8645 0,2.47467c0,0.60617 0,2.41068 0,3.0105c0,0.59885 0,1.78952 0,2.37933c0,1.16367 0.00067,1.7355 0,2.85419c-0.00067,1.07999 0.00626,1.60519 -0.02081,2.625c-0.02603,0.98032 -0.02838,1.45908 -0.2005,2.81982c-0.10861,0.85883 -0.27869,1.65933 -0.42599,2.40298l-0.23117,1.27567l-0.08551,0.76053l-0.03467,0.79465" id="svg_9" stroke-width="2" stroke="#000" fill="none"/>
 </g>
 <g display="none">
  <title>muse_image</title>
  <image xlink:href="http://farm3.static.flickr.com/2412/2262418860_78bf5792e9.jpg" id="muse" height="426" width="640" y="27" x="0"/>
 </g>
 <g display="none">
  <title>bbox</title>
  <rect stroke="#f00" fill="none" stroke-width="3" height="291.67568" width="523.52" y="94.8018" x="37.12" id="bbox"/>
 </g>
</svg>
