<svg width="640" height="480" xmlns="http://www.w3.org/2000/svg" xmlns:svg="http://www.w3.org/2000/svg" xmlns:xlink="http://www.w3.org/1999/xlink">
 <!-- Sketchy ANNOTATION
  ImageNet ID: n02691156_58
  URL: http://farm2.static.flickr.com/1265/881876881_74d9da360b.jpg
  Image Width: 500
  Image Height: 333
  BBox X: 140
  BBox Y: 21
  BBox Width: 282
  BBox Height: 80
  Exposure: 2000ms
  Synset Label: airplane
  Synset ID: n02691156
  Worker Tag: airplane over highway
  Sanity Check: 
   Context
   Saved
   Shading
  Comment: 
   {}
  Worker ID: A1Z2FSZNWACZ9O
  Assignment ID: 3IX2EGZR7BJ0ELF98HWKRZS5C1XJRM
  HIT ID: 36JW4WBR06K5X5HG3KO39D3MV1TFHE
  Work Time: 46s
  Worker Score: 0.6988
 END ANNOTATION -->
 <g display="inline">
  <title>Layer 1</title>
  <path t="0,116,122,135,135,135,151,151,151,151,154,155,162,162,162,169,169,169,182,182,186,186,195,195,195,201,201,201,217,227,227,233,233,233,246,257,257,265,265,274,274,289,290,297,297,305,313,313,321,345,345,353,362,362,369,369,369,379,379,385,385,396,396,401,401,401,413,413,413,413,417,417,417,425,425,425,425,433,433,433,433,442,442,442,442,449,449,449,458,458,458,465,473,473,482,482,482,489,489,497,497,505,505,513,514,521,529,529,529,537,546,546,553,553,563,563,569,569,581,586,586,596,596,601,610,617,617,617,626,626,626,633,633,641,642,649,649,649,657,657,657,665,665,665,673,673,681,681,681,681,689,689,689,697,697,697,705,705,705,705,713,714,714,721,721,730,730,730,737,737,748,748,749,753,753,769,778,778,785,793,793,809,810,817,817,827,827,833,833,833,842,842,842,849,849,849,860,860,860,865,865,865,873,873,873,882,897,897,898,905,905,905,915,915,915,921,931,931,937,937,937,949,949,953,964,969,969,969,982,982,982,985,985,985,994,994,1001,1001,1001,1009,1010,1010,1017,1017,1025,1033,1033,1050,1050,1057,1058,1058,1066,1066,1066,1073,1073,1097,1116,1116,1133,1153,1161,1161,1169,1178,1185,1201,1201,1209,1209,1225,1226,1226,1234,1241,1241,1241,1250,1267,1298,1298,1306,1306,1306,1326,1326,1326,1340,1341,1341,1359,1359,1393,1393,1393,1393,1425,1473,1473,1506,1521,1521,1529,1529,1545,1556,1561,1562,1577,1592,1593,1625,1641,1659,1659,1673,1673,1697,1769,1777,1797,1798,1812,1812,1825,1825,1849,1881,1882,1882,1922,1922,1937,1945,1945,1945,1954,1955,1961,1961,1963,1971,1971,1971,1977,1977,1977,1987,1988,1988,1993,1994,1994,1994,2009,2009,2009,2009,2009,2025,2025,2025,2039,2039,2039,2039,2041,2041,2041,2055,2055,2055,2057,2057,2058,2065,2065,2065,2073,2073,2073,2089,2089,2089,2090,2098,2098,2098,2099,2099,2105,2105,2106,2106,2113,2113,2114,2121,2122,2122,2122,2129,2129,2138,2138,2145,2145,2145,2155,2156,2156,2161,2161,2162,2171,2171,2172,2177,2177,2177,2189,2189,2193,2194,2194,2206,2206,2209,2209,2225,2225,2238,2239,2239,2241,2241,2242,2256,2256,2256,2256,2258,2258,2258,2258,2265,2265,2265,2266,2266,2273,2273,2273,2274,2274,2274,2281,2282,2282,2282,2282,2291,2291,2291,2291,2292,2297,2297,2298,2298,2305,2305,2306,2306,2313,2313,2313,2314,2314,2323,2323,2329,2329,2329,2339,2339,2345,2345,2357,2357,2361,2362,2372,2373,2373,2390,2390,2393,2394,2394,2406,2406,2407,2407,2409,2409,2409,2423,2423,2423,2423,2425,2425,2426,2433,2433,2433,2441,2441,2441,2441,2450,2450,2450,2450,2458,2458,2458,2459,2465,2466,2466,2473,2473,2473,2481,2481,2482,2490,2490,2491,2497,2497,2497,2498,2505,2506,2506,2506,2513,2513,2513,2524,2524,2524,2524,2529,2529,2530,2530,2530,2540,2541,2541,2541,2545,2545,2545,2546,2557,2557,2558,2561,2562,2562,2562,2572,2573,2573,2577,2577,2577,2578,2590,2591,2593,2594,2594,2601,2602,2602,2602,2609,2609,2609,2610,2610,2610,2618,2618,2618,2618,2626,2626,2627,2633,2634,2634,2634,2641,2641,2642,2649,2650,2650,2658,2658,2659,2665,2673,2674,2674,2681,2681,2682,2682,2690,2691,2691,2697,2697,2698,2698,2698,2698,2706,2707,2707,2707,2713,2713,2713,2724,2725,2725,2725,2729,2730,2730,2740,2741,2741,2745,2745,2745,2759,2760,2760,2762,2762,2762,2770,2771,2771,2778,2786,2793,2794,2804,2804,2811,2812,2812,2818,2826,2826,2843,2843,2843,2849,2850,2850,2850,2858,2859,2865,2866,2866,2876,2876,2876,2876,2881,2882,2882,2891,2892,2897,2897,2897,2910,2910,2910,2911,2911,2925,2925,2925,2929,2929,2943,2943,2943,2945,2945,2961,2961,2977,2993,2993,3001,3002,3017,3017,3025,3026,3033,3043,3050,3058,3059,3059,3065,3065,3077,3077,3092,3121,3143,3145,3146,3158,3159,3161,3161,3169,3170,3178,3179,3179,3185,3185,3193,3193,3202,3202,3202,3212,3212,3212,3220,3228,3233,3233,3245,3246,3253,3260,3278,3279,3279,3279,3282,3282,3282,3283,3283,3293,3293,3297,3297,3298,3311,3311,3312,3314,3314,3326,3326,3326,3349,3350,3350,3354,3354,3355,3355,3364,3364,3403,3404,3404,3433,3434,3434,3435,3435,3464,3465,3465,3465,3466,3467,3468,3468,3468,3469,3498,3498,3499,3499,3528,3529,3529,3542,3543,3543,3543,3545,3576,3577,3580,3580,3580,3629,3629,3656,3656,3657,3657,3658,3658,3658,3670,3671,3671,3671,3672,3673,3674,3674,3686,3687,3687,3698,3699,3699,3705,3706,3714,3731,3732,3732,3737,3738,3749,3754,3801,3814,3814,3817,3817,3832,3848,3848,3849,3938,3939,3968,3970,3970,4017,4017,4032,4032,4033,4048,4050,4050,4064,4065,4066,4067,4073,4073,4082,4083,4090,4090,4090,4101,4101,4101,4105,4116,4117,4121,4122,4169,4196,4197,4204,4206,4207,4211,4223,4225,4226,4237,4241,4241,4251,4258,4258,4259,4269,4273,4274,4283,4290,4300,4301,4315,4321,4334,4337,4369,4370,4370,4383,4401,4402,4402,4416,4417,4417,4434,4435,4457,4458,4505,4505,4506,4521,4535,4536,4536,4549,4550,4553,4568,4570,4584,4585,4601,4601,4618,4626,4626,4641,4651,4657,4669,4669,4683,4684,4684,4705,4722,4723,4737,4738,4738,4751,4751,4753,4753,4769,4785,4785,4794,4794,4805,4805,4810,4819,4825,4826,4826,4837,4838,4851,4852,4873,4885,4885,4889,4889,4905,4919,4921,4936,4937,4939,4939,4953,4953,4953,4970,4971,4978,4978,4987,4988,4994,4994,5017,5037,5065,5065,5089,5129,5130,5170" d="m461,78c-2.58932,0 -3.43021,-0.03449 -4.33334,0.16666c-0.95035,0.21167 -1.4776,0.46094 -2.66666,0.66667c-0.88953,0.15391 -1.48532,0.11903 -2.31467,0.25066c-1.246,0.19776 -1.89587,0.55224 -2.85199,0.74934c-0.77725,0.16022 -1.60797,0.16133 -2.66669,0.16666c-0.93066,0.00468 -1.56216,0 -2.56665,0c-0.80002,0 -1.80017,0 -2.62085,0c-1.14581,0 -1.9339,-0.03019 -2.75381,0.036c-1.06326,0.08583 -1.75815,0.33215 -2.56369,0.61133c-0.90314,0.31299 -1.82831,0.35267 -2.6825,0.35267c-0.97916,0 -1.76849,0 -2.49384,0c-0.98532,0 -1.97064,0 -2.69598,0c-0.98917,0 -1.76849,0 -2.76801,0c-0.90533,0 -1.85733,0 -2.62265,0c-0.99417,0 -1.74152,0 -2.77335,0c-0.94666,0 -1.62534,0 -2.60382,0c-1.02151,0 -1.8215,0 -2.6575,0c-0.85068,0 -1.61069,0 -2.78519,0c-0.79349,0 -1.569,0 -2.6095,0c-0.85199,0 -1.80533,0 -2.57065,0c-1.00317,0 -1.63467,0 -2.82019,0c-0.81448,0 -1.38916,0 -2.57849,0c-0.89999,0 -1.5,0 -2.39999,0c-1.20132,0 -1.81067,0 -2.75717,0c-1.00949,0 -1.72684,0 -2.84283,0c-0.74734,0 -1.83334,0 -2.51599,0c-0.98401,0 -1.63669,0 -3.00519,0c-0.72699,0 -1.45798,0 -2.16898,0c-1.267,0 -2.04852,0 -2.75803,0c-1.2345,0 -2.03098,0 -2.78247,0c-0.9595,0 -1.936,0 -2.79019,0c-0.97916,0 -1.77914,0 -2.57916,0c-1,0 -1.79999,0 -2.79999,0c-0.80002,0 -1.79984,0 -2.57916,0c-0.99933,0 -1.81952,0 -2.69284,0c-0.87067,0 -1.57867,0 -2.56,0c-0.95816,0 -1.93466,0 -2.76801,0c-0.97867,0 -1.75266,0 -2.65717,0c-0.74734,0 -1.74152,0 -2.68567,0c-0.90451,0 -1.82382,0 -2.65717,0c-0.97849,0 -1.79868,0 -2.70001,0c-0.84164,0 -1.84283,0 -2.56131,0c-0.7905,0 -1.81735,0 -2.73868,0c-0.68399,0 -1.68268,0 -2.47916,0c-1.1875,0 -2.02084,0 -2.85419,0c-0.92798,0 -1.71848,0 -2.74533,0c-0.69598,0 -1.60532,0 -2.60532,0c-0.81601,0 -1.63202,0 -2.63202,0c-0.90933,0 -1.85065,0 -2.64114,0c-0.85352,0 -1.44418,0 -2.64285,0c-0.89999,0 -1.5,0 -2.69998,0c-0.90002,0 -1.5,0 -2.70001,0c-0.89999,0 -1.5,0 -2.39999,0c-1.19867,0 -2.07916,0 -2.64285,0c-1.27182,0 -1.93631,0 -2.95715,0c-0.79999,0 -1.60001,0 -2.60449,0c-0.85266,0 -1.81668,0 -2.61017,0c-0.77551,0 -1.97549,0 -2.668,0c-0.94269,0 -1.95074,-0.01088 -2.81284,0c-0.82553,0.01042 -1.80679,0.24908 -2.47916,0.61066c-0.82889,0.44574 -1.40799,1.08555 -2.31067,1.304c-0.89685,0.21705 -1.91763,0.05724 -2.53552,0.10617c-1.15146,0.09119 -1.9292,0.34177 -2.75381,0.55383c-1.05548,0.27143 -1.77158,0.38837 -2.45068,0.41467c-1.19513,0.04627 -2,0.01067 -2.82199,0.01067c-1.03134,0 -1.72733,-0.00121 -2.63666,0c-1,0.00134 -1.83536,-0.04807 -2.63202,0.17067c-1.03525,0.28424 -1.61264,0.87045 -2.19733,1.26133c-0.83398,0.55756 -1.82001,0.568 -2.74799,0.568c-0.7905,0 -1.81735,0 -2.51334,0c-0.90933,0 -1.90802,0 -2.7045,0c-0.7515,0 -1.85962,-0.01443 -2.84235,0.00017c-0.69955,0.01039 -1.68326,0.15223 -2.47849,0.42516c-0.80508,0.27631 -1.79416,0.54217 -2.54285,0.57017c-1.02048,0.03816 -1.85849,0.0045 -2.82382,0.0045c-0.68002,0 -1.52032,-0.02195 -2.51868,0.00267c-0.83615,0.02062 -1.73734,0.10558 -2.61433,0.43999c-0.90549,0.34527 -1.37576,0.81657 -2.55766,1.31434c-0.62067,0.26141 -1.68567,0.243 -2.41467,0.243c-0.83699,0 -2.02766,0 -2.619,0c-0.83699,0 -1.99445,-0.16625 -2.79999,0.05717c-0.77896,0.21605 -1.62534,0.86433 -2.30901,0.922c-1.11363,0.09393 -1.82869,0.09725 -2.76933,0.58884c-0.50288,0.26282 -1.24799,0.81254 -2.30917,1.18916c-0.66829,0.23718 -1.53668,0.27059 -2.517,0.5955c-0.76253,0.25273 -1.83636,0.47947 -2.60449,0.93266c-0.68158,0.40213 -1.25439,1.27728 -2,1.63067c-0.85872,0.40701 -1.27144,1.03075 -1.85268,1.72683c-0.4935,0.59101 -1.44189,0.91615 -2.26866,1.45717c-0.65918,0.43136 -1.57115,0.83416 -2.15784,1.42084c-0.58667,0.58666 -0.88708,1.32516 -1.32083,1.99516c-0.56789,0.87721 -1.36253,1.49088 -2.02533,1.884c-0.68648,0.40717 -1.47775,1.10149 -2.37466,1.516c-0.76102,0.3517 -1.43187,0.7349 -2.12167,1.40533c-0.52188,0.50722 -1.10414,1.08421 -2.0995,1.65733c-0.76852,0.4425 -1.38869,0.53983 -2.2455,1.188c-0.74451,0.56321 -1.16861,1.35378 -1.995,1.73251c-0.76566,0.35089 -1.7782,0.74139 -2.282,1.16333c-0.79027,0.66187 -1.31883,1.09636 -1.88933,2.12317c-0.42741,0.76928 -0.83005,1.36668 -1.46251,2.11433c-0.63945,0.75594 -0.765,1.59396 -1.05716,2.35266c-0.33659,0.87411 -0.50807,1.72156 -0.65184,2.64734c-0.1272,0.81908 -0.85777,1.44581 -1.38483,2.1c-0.60045,0.74529 -0.36696,1.83174 -0.89467,2.516c-0.48804,0.63281 -0.88268,1.25066 -1.216,2.084c-0.33333,0.83333 -0.49774,1.69548 -0.5,2.60001c-0.00224,0.89999 0,1.81065 0,2.72133c0,0.85333 -0.00435,1.79468 0,2.56267c0.00534,0.94138 -0.06512,1.71695 0.54167,2.616c0.51122,0.75745 1.11095,1.15271 1.80566,1.84734c0.63112,0.63104 1.3582,1.27003 2.17349,1.67349c0.81119,0.40143 1.30098,0.85745 1.88367,1.33101c0.97264,0.79047 1.5632,1.20766 2.5955,1.48149c0.79369,0.21054 1.45728,0.15042 2.68401,0.168c0.81615,0.01169 1.64764,0.01743 2.63199,0.28401c0.69826,0.18912 1.35768,0.54309 2.36934,0.91333c0.82764,0.30289 1.40872,0.50543 2.61501,0.67982c0.91544,0.13234 1.57161,0.11511 2.27032,0.12018c1.17197,0.0085 2.03467,0.00133 2.92934,0.00133c0.89467,0 1.332,0 2.92934,0c0.69867,0 1.34933,0 2.57066,0c0.89999,0 1.5,0 2.39999,0c1.19867,0 1.78934,0 2.64284,0c1.036,0 1.978,0 2.7265,0c1.19867,0 1.88133,0 2.58,0c1.31734,0 2.13634,0 2.82933,0c1.02167,0 1.86301,0 2.592,0c1.20134,0 1.912,0 2.68668,0c0.83066,0 2.164,0 2.62666,0c0.94133,0 1.89067,0 2.36333,0c1.386,0 2.26334,0 3.08467,0c0.74934,0 1.968,0 2.80266,0c0.80267,0 1.65067,0 2.37601,0c0.78934,0 1.57867,0 2.9035,0c0.82333,0 1.87115,0 2.5965,0c0.9895,0 1.81018,0 2.47467,0c1.27182,0 1.83551,0 2.716,0c1.19733,0 1.78799,0 2.64151,0c1.03583,0 1.95715,0 2.64114,0c1.26868,0 1.81601,0 2.63202,0c1.23132,0 1.90933,0 3.10532,0c0.80402,0 1.62601,0 2.65701,0c0.67499,0 1.755,0 2.547,0c0.86133,0 1.62134,0 2.79599,0c0.80402,0 1.62601,0 2.6575,0c0.70651,0 1.431,0 2.564,0c0.66702,0 1.74252,0 2.47452,0c1.06149,0 1.7345,0 2.74399,0c0.70801,0 1.88168,0 2.75299,0c0.92734,0 1.40701,0 2.38834,0c0.99734,0 1.99734,0 2.99734,0c0.5,0 1.5,0 2,0c1.49985,0 2.49551,0 2.98932,0c0.97467,0 1.92535,0 2.84402,0c0.88132,0 1.73065,0 2.556,0c0.80933,0 2.0105,0 2.80615,0c0.78366,0 1.54733,0 2.63785,0c1.01849,0 1.6875,0 2.3765,0c1.5325,0 1.95551,0 2.81949,0c0.84799,0 1.63202,0 2.832,0c0.935,0 1.91125,0.0381 2.65952,-0.04167c0.80231,-0.08554 1.80594,-0.50687 2.4375,-0.95833c0.8949,-0.63971 1.54175,-0.95628 2.52698,-1.00133c0.7254,-0.03316 1.71283,-0.22539 2.51468,-0.49867c0.99774,-0.34004 1.79944,-0.4808 2.60001,-0.49867c1.00424,-0.02242 1.63599,-0.00133 2.8215,-0.00133c0.81448,0 1.38916,0.00598 2.57849,0c0.89554,-0.0045 1.77658,-0.01765 2.31467,-0.17067c1.03857,-0.29535 1.69202,-0.90282 2.54001,-1.26134c0.9765,-0.41286 1.79733,-0.47319 2.62448,-0.52632c0.80466,-0.0517 1.85419,-0.04167 2.79819,-0.04167c0.68799,0 1.74149,0 2.57999,0c0.63068,0 1.66418,0 2.77866,0c0.77469,0 1.56534,0 2.76385,0c0.79565,0 1.57932,0 2.34299,0c1.09052,0 1.77185,0 2.73633,0c0.91953,0 1.82068,0 2.71017,0c0.85352,0 1.88934,0 2.58533,0c0.90933,0 1.91068,0 2.74619,0c0.88049,0 1.77914,0 2.67917,0c0.89999,0 1.79999,0 2.7045,0c0.61633,0 1.58081,0 2.61682,0c0.73132,0 1.47867,0 2.59467,0c1.0625,0 1.72684,0 2.67334,0c1.21066,0 1.81332,0 2.75232,0c0.67267,0 1.79169,0 2.62634,0c0.88266,0 1.78134,0 2.22665,0c1.272,0 2.39551,0 3.0845,0c0.66901,0 2.04202,0 2.76901,0c0.73099,0 1.44199,0 2.70917,0c0.79199,0 1.548,0 2.68549,0c0.66702,0 1.37802,0 2.47452,0c1.06116,0 1.72549,0 2.672,0c1.21066,0 1.80933,0 2.68982,0c0.83551,0 1.83685,0 2.74619,0c0.94131,0 1.73181,0 2.58533,0c1.18933,0 1.79333,0 2.75183,0c0.70901,0 1.9375,0 2.8895,0c0.50601,0 1.548,0 2.07199,0c1.02402,0 1.97601,0 2.82001,0c1.09351,0 1.74249,0 2.95599,0c0.90002,0 1.5,0 2.70001,0c0.89999,0 1.5,0 2.39999,0c1.20001,0 1.80002,0 2.70001,0c1.19983,0 1.7955,0 2.664,0c1.06934,0 1.98932,0 2.74933,0c1.00751,0 1.82001,0 2.75867,0c0.83701,0 1.728,0 2.62799,0c0.89999,0 1.5,0 2.70401,0c0.62799,0 1.66751,0 2.896,0c0.46399,0 1.45801,0 1.97601,0c1.04797,0 2.07199,0 3.02399,0c0.84399,0 1.59201,0 2.58649,0c1.2135,0 1.81351,0 2.7135,0c1.20001,0 1.80002,0 2.70001,0c0.89999,0 1.79984,0 2.68933,0c0.85352,0 1.88934,0 2.58533,0c0.90933,0 1.91068,0 2.74619,0c0.88049,0 1.77899,0 2.66849,0c0.85352,0 1.88934,0 2.58533,0c0.90933,0 1.90802,0 2.7045,0c0.7515,0 1.84885,0 2.82535,0c0.86215,0 1.6955,0 2.67432,0c0.83102,0 1.78918,0 2.52118,0c0.73199,0 1.828,0 2.80899,0c0.66168,0 1.71436,0 2.58435,0c0.67999,0 1.849,0 2.703,0c0.862,0 1.68399,0 2.73697,0c0.74249,0 1.83337,0 2.52405,0c0.91461,0 1.78546,0 2.80396,0c0.724,0 1.45599,0 2.51685,0c0.96448,0 1.80298,0 2.6792,0c0.948,0 1.91595,0 2.72595,0c0.64001,0 1.75,0 2.58337,0c0.87329,0 1.74664,0 2.57996,0c1.08887,0 1.94537,0 2.63983,0c1.01483,0 1.84955,0 2.78021,0c1.04797,0 1.82349,0 2.69049,0c0.89099,0 1.79547,0 2.65881,0c0.98401,0 1.80548,0 2.6947,0c0.98914,0 1.76849,0 2.76794,0c0.77405,0 1.67401,0 2.53735,0c0.9632,0 1.88403,0 2.78851,0c0.86218,0 1.73718,0 2.38214,0c0.99603,0 1.79266,0.01604 2.98004,0c0.771,-0.01042 1.34241,-0.5986 2.03784,-1.05267c0.75787,-0.49484 1.22449,-1.26038 1.37946,-1.918c0.24451,-1.03735 0.33942,-1.86975 1.01599,-2.66516c0.56921,-0.66919 1.23596,-1.06483 1.60004,-1.83034c0.44476,-0.9351 0.72009,-1.75029 0.94281,-2.58116c0.27386,-1.02153 0.29236,-1.70734 0.35718,-2.786c0.04987,-0.82964 0.44208,-1.70985 0.85065,-2.428c0.29828,-0.52425 0.88287,-1.55463 1.03503,-2.277c0.20227,-0.9603 0.04797,-1.9817 0.46698,-2.76167c0.40186,-0.74803 0.64508,-1.45715 0.64734,-2.35266c0.0022,-0.86333 0,-1.8265 0,-2.77934c0,-1.068 -0.02631,-1.62554 0.04169,-2.6305c0.05096,-0.75278 0.26617,-1.94545 0.52631,-2.7335c0.25769,-0.78069 0.59174,-1.49159 0.86401,-2.148c0.41321,-0.99622 0.56348,-1.8568 0.56799,-2.82667c0.00354,-0.77099 0,-1.632 0,-2.52917c0,-0.8895 -0.01178,-1.74306 0.00018,-2.77866c0.01038,-0.90084 0.15088,-1.92657 0.35248,-2.5215c0.27362,-0.80744 0.58612,-1.80209 0.62653,-2.4625c0.04846,-0.79226 0.02081,-1.80133 0.02081,-2.591c0,-0.82566 0,-1.63133 0,-2.96066c0,-0.82333 0,-1.87517 0,-2.46917c0,-0.77399 0,-1.78117 0,-2.58817c0,-0.891 0,-1.842 0,-2.3325c0,-1.496 0,-2.496 0,-2.996c0,-1 0,-1.5 0,-3c0,-0.996 0,-1.4865 0,-2.4375c0,-0.891 0,-2.0625 0,-2.70917c0,-0.8325 0,-1.62 0,-2.82266c0,-0.692 0,-1.416 0,-2.86401c0,-0.67867 0,-1.60416 0,-2.39466c0,-0.95766 0.0545,-1.87882 -0.05719,-2.58633c-0.15289,-0.96827 -0.46515,-1.67944 -0.65881,-2.41766c-0.30481,-1.16194 -0.38239,-1.86162 -0.61731,-2.93467c-0.22504,-1.0278 -0.37573,-1.61568 -0.52802,-2.24266c-0.15869,-0.65337 -0.32312,-1.32157 -0.65601,-2.65867c-0.31506,-1.26555 -0.4632,-1.84512 -0.72101,-2.89433c-0.11597,-0.47209 -0.35773,-1.31503 -0.59497,-2.70433c-0.13922,-0.8151 -0.0957,-1.53531 -0.38837,-2.53333c-0.24243,-0.82682 -0.64478,-1.41546 -1.26099,-2.2c-0.48108,-0.61246 -1.10602,-1.142 -1.40302,-2.1955c-0.25122,-0.89118 -0.07458,-1.79952 -0.28101,-2.73783c-0.14984,-0.68098 -0.53387,-1.6488 -0.71179,-2.52367c-0.16785,-0.82528 -0.11987,-1.76245 -0.54688,-2.543c-0.45062,-0.82372 -0.57465,-1.76667 -0.57465,-2.6c0,-0.83333 0.03741,-1.75891 -0.54169,-2.52083c-0.54382,-0.71551 -1.1109,-1.13187 -1.80566,-1.8265c-0.6311,-0.63103 -1.17566,-1.40093 -2.17346,-1.63183c-0.78033,-0.18057 -1.68988,-0.02083 -2.6792,-0.02083c-0.79999,0 -1.79999,0 -2.58929,0c-0.72534,0 -1.71124,-0.0311 -2.6947,0.00133c-0.86469,0.02852 -1.82404,0.29896 -2.31464,0.88533c-0.58746,0.70214 -0.84033,1.50482 -1.50586,2.36067c-0.41644,0.53555 -1.1795,1.23667 -1.6955,1.75267c-0.83331,0.83333 -1.36737,1.39603 -1.96936,1.884c-0.77515,0.62833 -1.53467,1.08547 -1.96814,1.46333c-0.95465,0.83216 -1.23016,1.65197 -1.67316,2.28867c-0.58936,0.84708 -1.07867,1.50103 -1.30402,2.47866c-0.19977,0.86671 -0.0733,1.69976 -0.08667,2.65334c-0.01025,0.73219 0.03949,1.51024 -0.42401,2.56c-0.36157,0.81889 -0.38892,1.7145 -0.65997,2.472c-0.32245,0.9011 -1.24463,1.30846 -1.62933,2c-0.44446,0.79892 -0.25378,1.74388 -0.30615,2.7c-0.04022,0.73373 -0.44348,1.62995 -0.85785,2.6c-0.28656,0.67086 -0.76416,1.47007 -1.32001,2.1c-0.6756,0.76571 -0.79907,1.49999 -0.80133,2.4c-0.00226,0.9 0.15729,1.81537 -0.00897,2.7045c-0.16931,0.90546 -0.8739,1.49507 -1.28571,2.04283c-0.6485,0.86256 -0.83057,1.83823 -1.15198,2.48867c-0.39111,0.79144 -1.04999,1.55269 -1.53253,2.164c-0.46521,0.5894 -0.89581,1.60313 -1.06897,2.4c-0.2182,1.00431 -0.55389,1.80425 -0.95184,2.6c-0.3916,0.78294 -0.70544,1.58781 -1.54169,1.97916c-0.9328,0.43655 -1.72321,0.42026 -2.453,0.72533c-1.05792,0.44224 -1.64813,1.09325 -2.50531,1.27467c-0.88074,0.18641 -1.82214,-0.17622 -2.69867,0.02217c-0.80847,0.18299 -0.9751,1.34092 -1.60266,1.71333c-0.85669,0.50842 -1.85132,0.28533 -2.54602,0.28533c-1.01666,0 -1.95264,0 -2.85397,0c-0.96533,0 -1.65207,-0.08732 -2.79868,0.16666c-0.6091,0.13492 -1.31052,0.61698 -2.37466,0.79733c-0.93436,0.15836 -1.66699,0.036 -2.79199,0.036c-0.78152,0 -1.57202,0 -2.5,0c-0.948,0 -1.81735,0 -2.68066,0c-0.89551,0 -1.85535,0 -2.62335,0c-1.03467,0 -1.77866,0 -2.69598,0c-0.91202,0 -1.83334,0 -2.75467,0c-0.91202,0 -1.5885,0 -2.36401,0c-1.293,0 -1.96799,0 -3.048,0c-0.75598,0 -1.7074,-0.04631 -2.48798,0.2215c-0.70163,0.24072 -1.6156,0.93884 -2.26801,1.34251c-0.76874,0.47564 -1.71066,0.436 -2.61069,0.436c-0.90015,0 -1.68646,-0.03726 -2.64667,0.01067c-0.84225,0.04205 -1.83777,0.27163 -2.65332,0.48933c-0.54764,0.14619 -1.81268,0.44007 -2.47916,0.47916c-1.01932,0.05978 -1.81018,0.02084 -2.85419,0.02084c-0.79199,0 -1.65067,0 -2.51398,0c-1.01669,0 -1.85269,0 -2.75284,0c-0.78519,0 -1.72519,0 -2.73318,0l-0.75598,0l-0.91068,0" id="svg_1" stroke-width="2" stroke="#000" fill="none"/>
  <path t="6353,6436,6436,6444,6444,6451,6452,6462,6462,6463,6466,6466,6474,6474,6482,6482,6490,6490,6490,6497,6497,6509,6513,6523,6523,6529,6540,6540,6546,6556,6556,6561,6593,6609,6618,6618,6634,6634,6649,6649,6649,6657,6665,6666,6681,6681,6697,6697,6708,6708,6714,6737,6746,6756,6756,6761,6761,6785,6785,6793,6793,6802,6809,6809,6819,6819,6834,6834,6841,6841,6857,6857,6874,6874,6874,6881,6913,6913,6953,6953,6953,6984,6984,7033,7033,7073,7100,7101,7118,7118,7134,7135,7151,7168,7185,7185,7201,7201,7218,7233,7234,7234,7257,7265,7265,7281,7281,7282,7297,7297,7321,7321,7321,7329,7329,7345,7346,7354,7354,7354,7361,7372,7380,7380,7386,7386,7386,7401,7401,7418,7418,7418,7433,7433,7433,7434,7434,7434,7451,7451,7467,7467,7467,7467,7484,7485,7485,7500,7500,7500,7500,7518,7518,7518,7518,7521,7521,7521,7521,7533,7533,7533,7551,7552,7554,7565,7566,7569,7570,7585,7585,7598,7601,7601,7633,7633,7657,7657,7678,7678,7694,7706,7707" d="m347,78c-0.97916,-1.0625 -0.99933,-1.688 -1,-2.94817c-0.00043,-0.7905 0,-1.7185 0,-2.55183c0,-1.04266 0,-1.75066 0,-2.49467c0,-1.036 0,-1.888 0,-2.84133c0,-0.76534 -0.04111,-1.77254 0.05716,-2.62117c0.11249,-0.97141 0.3425,-1.77106 0.64734,-2.533c0.35391,-0.88455 1.03659,-1.52389 1.25949,-2.40984c0.22089,-0.87785 -0.0672,-1.93264 0.05685,-2.57917c0.1835,-0.95633 0.93246,-1.58713 0.97467,-2.37267c0.05487,-1.02137 0.00443,-1.9695 0.00449,-2.64817c0.00009,-0.97833 0.39752,-1.66962 0.91599,-2.28533c0.56049,-0.66563 0.84644,-1.44205 1.02686,-2.37634c0.15201,-0.78719 0.05716,-1.7595 0.05716,-2.553c0,-0.7755 -0.09732,-1.97623 0.00034,-2.8855c0.08578,-0.79884 0.69919,-1.56209 1.185,-2.0745c0.77695,-0.8195 1.29382,-1.30449 2.01468,-2.02533c0.5,-0.5 1.39749,-1.09702 1.71466,-2c0.29959,-0.85295 -0.00784,-1.81288 0.14249,-2.55717c0.18698,-0.92572 0.6113,-1.61508 1.24283,-2.49017c0.47375,-0.65644 1.04401,-1.38313 1.34283,-2.1c0.36557,-0.87698 0.47452,-1.84206 0.87802,-2.65267c0.42834,-0.86055 1.02969,-1.44043 1.39648,-2.20133c0.31653,-0.65664 0.78018,-1.46294 1.43451,-2.146c0.61542,-0.64245 1.27713,-1.27439 1.96933,-1.974c0.49612,-0.50142 1.17264,-1.15991 1.61749,-2.04267c0.40808,-0.80976 0.82187,-1.39428 1.54535,-2.12c0.5152,-0.5168 1.03198,-1.032 1.89066,-1.89067c0.50934,-0.50933 1.29977,-1.25451 1.76401,-1.8c0.65726,-0.77228 1.01331,-1.73756 1.68018,-1.82083c0.94186,-0.11761 1.68115,-0.0045 2.84781,-0.0045c0.79169,0 1.73334,0 2.63785,0c0.86215,0 1.6955,0 2.67398,0c0.82019,0 1.69351,0 2.56418,0c0.95734,0 1.72589,-0.26015 2.78534,0.02133c0.85016,0.22588 1.17883,1.0168 1.672,1.97867c0.30423,0.59335 0.68259,1.35457 1.29999,2.25183c0.38919,0.56561 0.90002,1.51617 1.20001,2.24817c0.29999,0.732 0.81674,1.67837 1.29999,2.38267c0.52295,0.76217 0.79163,1.36026 1.52118,2.31717c0.46613,0.61138 1.1857,1.03248 1.56451,2.043c0.30356,0.80975 0.35364,1.71811 0.689,2.42917c0.39343,0.8342 0.40366,1.58889 0.42084,2.37983c0.0274,1.26254 0.00449,1.92733 0.00449,2.94817c0,0.81067 0,1.68533 0,2.68533c0,0.8355 0,1.41917 0,2.61433c0,0.879 0,1.686 0,2.73367c0,0.82917 0,1.731 0,2.664c0,0.69867 0,1.42133 0,2.48133c0,0.996 0,1.64667 0,2.988c0,0.716 0,1.448 0,2.172c0,1.328 0,2.1605 0,2.948c0,0.56667 0,1.96533 0,2.78933c0,0.424 0,1.266 0,2.7595c0,0.593 0,1.551 0,2.56317c0,0.76534 0,1.716 0,2.70167c0,0.714 0,1.66766 0,2.39967c0,1.16666 0,1.95834 0,2.8045c0,1.01684 0,1.6955 0,2.67417c0,0.90533 0,1.85733 0,2.62267c0,0.99416 0,1.7415 0,2.77333l0,0.94667l0,0.67867" id="svg_2" stroke-width="2" stroke="#000" fill="none"/>
  <path t="8621,8698,8706,8706,8706,8723,8723,8739,8739,8739,8749,8750,8750,8750,8753,8763,8769,8769,8785,8785,8793,8793,8809,8809,8817,8817,8827,8827,8827,8833,8833,8841,8841,8849,8850,8857,8857,8865,8865,8873,8873,8873,8883,8883,8889,8889,8889,8898,8898,8905,8905,8905,8917,8917,8917,8917,8921,8921,8921,8921,8931,8931,8937,8937,8937,8949,8949,8953,8953,8965,8965,8977,8978,8985,8985,8994,8994,8994,9009,9017,9017,9025,9025,9032,9033,9041,9041,9041,9041,9049,9049,9049,9057,9057,9057,9065,9073,9073,9073,9083,9083,9083,9089,9089,9089,9090,9100,9100,9100,9105,9105,9121,9121,9121,9133,9133,9133,9137,9137,9161,9161,9168,9169,9193,9193,9225,9225,9225,9225,9241,9241,9264,9273,9313,9321,9321,9321,9329,9329,9329,9336,9337,9337,9345,9345,9345,9352,9353,9353,9353,9353,9361,9361,9361,9361,9361,9362,9368,9369,9377,9377,9385,9385,9385,9385,9401,9401,9402,9409,9409,9425,9425,9425,9425,9433,9434,9441,9441,9441,9452,9452,9458,9458,9458,9468,9469,9469,9469,9473,9473,9473,9486,9486,9486,9489,9489,9501,9501,9505,9505,9519,9519,9521,9521,9529,9529,9536,9537,9537,9545,9545,9546,9546,9553,9553,9553,9553,9553,9561,9562,9562,9562,9569,9569,9569,9569,9577,9578,9578,9588,9588,9588,9593,9593,9607,9607,9608,9608,9609,9609,9626,9640,9640,9659,9660,9660,9660,9673,9673,9674,9674,9674,9692,9693,9693,9693,9693,9697,9697,9697,9705,9706" d="m357,111c0,1.672 0,2.768 0,3.5c0,0.732 0,1.86 0,2.55334c0,1.00133 0,1.644 0,2.703c0,1.077 0,1.75567 0,2.68117c0,0.7905 0,1.8905 0,2.76383c0,0.96533 -0.03589,1.79933 0.00015,2.77734c0.02859,0.77557 0.34726,1.68312 0.70435,2.42583c0.38486,0.80045 0.86475,1.54266 1.12885,2.42883c0.24063,0.80746 0.16666,1.7095 0.16666,2.6875c0,0.79651 0,1.79251 0,2.63251c0,0.96266 -0.08087,1.73593 0.02133,2.68266c0.08371,0.77527 0.55005,1.5601 1.12799,2.328c0.61127,0.81215 0.84,1.49713 0.85068,2.37883c0.01184,0.97792 -0.01355,1.77461 0.00134,2.77316c0.01022,0.6842 0.14966,1.85457 0.35132,2.63217c0.20612,0.7948 0.54279,1.70999 0.6265,2.55183c0.08249,0.8295 0.02084,1.772 0.02084,2.60899c0,0.89101 -0.048,1.79959 0.108,2.69101c0.10654,0.60873 0.52982,1.51843 1.168,2.38933c0.43069,0.58775 1.021,1.05045 1.46799,2.12534c0.34668,0.83368 0.25601,1.8855 0.25601,2.70616c0,0.66451 0,1.66183 0,2.45834c0,1.1875 0,2 0,2.84216c0,0.85333 0,1.79466 0,2.56267c0,0.96266 0,1.80266 0,2.79866c0,0.79651 0,1.548 0,2.64534c0,0.981 0,1.64267 0,2.67734c0,0.74399 -0.1636,1.89223 0.108,2.64532c0.35672,0.98906 0.95276,1.36501 1.43365,1.87016c0.76721,0.80595 1.54141,1.55304 1.99667,2.022c0.62152,0.64023 1.32706,1.43658 1.70001,2.05267c0.43896,0.72513 0.64951,1.82959 1.095,2.57117c0.439,0.73079 1.05884,1.20764 1.64532,2.03366c0.42639,0.60054 0.77576,1.31311 1.34265,2.44234c0.3324,0.66214 0.67868,1.35733 1.026,2.052c0.48599,0.97202 0.85928,1.80675 1.34818,2.63916c0.47174,0.80319 1.07333,1.40752 1.62567,1.98784c0.67245,0.70651 1.20969,1.3304 1.50949,2.36099c0.22632,0.77798 0.08218,1.61473 0.53101,2.50751c0.39032,0.77641 1.12234,1.29382 1.63834,1.80983c0.83334,0.83334 1.36401,1.364 2.10034,2.10033c0.57166,0.57167 1.22855,1.23753 1.905,1.90051c0.49142,0.48164 0.89975,1.06482 1.85165,1.63466c0.7764,0.46477 1.76202,0.20015 2.64301,0.38533c0.85165,0.179 1.65775,0.88756 2.35733,0.93251c0.91367,0.0587 1.78687,-0.16644 2.78268,-0.37868c0.67453,-0.14375 1.87427,-0.34929 2.49298,-0.53099c0.77298,-0.22701 1.53427,-1.11551 1.90866,-1.627c0.42648,-0.58267 1.11798,-1.5885 1.64502,-2.30067c0.55267,-0.74681 0.83499,-1.13306 1.47498,-1.86333c0.97525,-1.11281 1.3522,-1.4389 2.082,-2.091c0.3569,-0.31891 1.07901,-0.89285 1.70169,-1.47501c1.03168,-0.96451 1.53815,-1.61618 1.888,-2.51999c0.25931,-0.66992 0.65408,-1.51067 1.22916,-2.1765c0.4487,-0.5195 0.99142,-0.99864 1.79434,-2.06868c0.49564,-0.66054 0.82959,-1.30362 1.06049,-2.32283c0.18713,-0.82605 0.39575,-1.77524 0.78799,-2.55133c0.2804,-0.55479 0.83652,-1.3264 1.12402,-2.36333c0.24622,-0.888 0.17065,-1.85068 0.17065,-2.63217c0,-0.7905 0,-1.90916 0,-2.7025c0,-0.8925 0,-1.632 0,-2.5155c0,-1.0005 0,-2.082 0,-2.813c0,-0.711 0,-1.978 0,-2.75949c0,-0.7095 0,-1.68268 0,-2.48666c0,-0.82201 0,-1.85318 0,-2.75385c0,-1.02083 0,-1.81017 0,-2.85416c0,-0.79201 0,-1.65067 0,-2.51401c0,-0.9045 0,-1.62199 0,-2.66249c0,-0.77551 0.05344,-1.82623 -0.02133,-2.76485c-0.05432,-0.68217 -0.40707,-1.65482 -0.85068,-2.48267c-0.33832,-0.63135 -0.75027,-1.30486 -1.32782,-2.48515c-0.2059,-0.42081 -0.59225,-1.29633 -0.96417,-2.17084c-0.18015,-0.4236 -0.67133,-1.58582 -1.07883,-2.52417c-0.34818,-0.80177 -0.58044,-1.32123 -0.95718,-2.53183c-0.21405,-0.68779 -0.39673,-1.4169 -0.59998,-2.14801c-0.29529,-1.06232 -0.59015,-2.03937 -0.80002,-2.63599c-0.38217,-1.08644 -0.76874,-2.01712 -1.10001,-2.58501c-0.55386,-0.94942 -1.08344,-1.51268 -1.62115,-2.42567c-0.34409,-0.58426 -0.68842,-1.22209 -1.1095,-2.18399c-0.43021,-0.98279 -0.56409,-1.73846 -0.56934,-2.688c-0.0047,-0.85065 0.01959,-1.62082 -0.22168,-2.78583c-0.11398,-0.55037 -0.41794,-1.46332 -0.66498,-2.15018c-0.42267,-1.1752 -0.76688,-2.03749 -0.93869,-2.48933c-0.35107,-0.92332 -0.54291,-1.3833 -1.008,-2.772c-0.29327,-0.87566 -0.53503,-1.71639 -0.72,-2.52c-0.17422,-0.75687 -0.32516,-1.82484 -0.3895,-2.4805l-0.04648,-0.8835l-0.01068,-1.13967l0,-0.834" id="svg_3" stroke-width="2" stroke="#000" fill="none"/>
  <path t="10764,10817,10833,10845,10915,10915,10948,10948,10961,10985,10986,11017,11040,11040,11049,11080,11081,11097,11121,11153,11161,11161,11176,11201,11201,11282,11331,11331,11338,11354,11354,11401,11401,11417,11450,11450,11490,11506,11522,11537,11537,11549,11549,11549,11553,11553,11564,11564,11569,11580,11580,11585,11585,11601,11614,11633,11649,11649,11672,11673,11694,11721,11761,11761,11787,11850,11870,11871,11887,11887,11889,11889,11905,11921,11961,11969,11969,12009,12033,12047,12049,12049,12090,12099,12170,12170,12170,12188,12189,12204" d="m263,95c-1.70001,0 -2.66754,-0.07732 -3.39999,0.436c-0.79022,0.55379 -1.1994,1.21954 -2.08401,1.76267c-0.66583,0.40881 -1.68214,0.57896 -2.51599,0.96799c-0.65755,0.30679 -1.61279,0.73504 -2.19867,1.40267c-0.47238,0.5383 -0.53796,1.6172 -0.968,2.43066c-0.39172,0.74097 -1.36546,0.93464 -2.13333,1.35267c-0.84085,0.45776 -1.60606,0.97051 -1.68933,1.83266c-0.08936,0.92509 0.15262,1.8495 -0.09599,2.61467c-0.25697,0.7909 -0.86317,1.68118 -0.90401,2.37466c-0.06305,1.07086 -0.01067,1.992 -0.01067,2.65067c0,1.008 0.0434,2.02477 0.76167,2.17017c1.04253,0.21104 1.75433,0.0045 2.7175,0.0045c0.92082,0 1.82533,0 2.8425,0c0.72,0 1.845,0 2.6265,0c0.79051,0 1.71849,0.00054 2.53099,0c1.00351,-0.00067 1.88672,0.04197 2.52084,-0.52084c0.66281,-0.58827 1.21021,-1.04223 2.11465,-1.67783c0.59827,-0.42042 1.50314,-0.79292 2.28534,-1.22666c0.82016,-0.45478 1.71487,-0.48638 2.48535,-0.66c0.79269,-0.17863 1.63882,-0.60524 2.47867,-0.88934c0.84363,-0.28538 1.3782,-1.05981 1.72,-1.82533c0.33197,-0.74353 0.88739,-1.50329 0.91599,-2.52133c0.01904,-0.6784 0,-1.65733 0,-2.56267c0,-0.94133 0,-1.632 0,-2.70533c0,-0.91067 0,-1.71516 0,-2.732c0,-0.67867 0.46707,-1.93654 -0.2215,-2.55717c-0.65875,-0.59377 -1.7785,-0.1215 -2.57849,-0.1215c-0.90002,0 -1.77258,0.02822 -2.74268,-0.44267c-0.73514,-0.35683 -1.20667,-0.70667 -2.12399,-1.224l-0.91202,-0.312l-0.92133,-0.02133" id="svg_4" stroke-width="2" stroke="#000" fill="none"/>
 </g>
 <g display="none">
  <title>muse_image</title>
  <image xlink:href="http://farm2.static.flickr.com/1265/881876881_74d9da360b.jpg" id="muse" height="426" width="640" y="27" x="0"/>
 </g>
 <g display="none">
  <title>bbox</title>
  <rect stroke="#f00" fill="none" stroke-width="3" height="102.34234" width="360.96" y="53.86486" x="179.2" id="bbox"/>
 </g>
</svg>
