<svg width="640" height="480" xmlns="http://www.w3.org/2000/svg" xmlns:svg="http://www.w3.org/2000/svg" xmlns:xlink="http://www.w3.org/1999/xlink">
 <!-- Sketchy ANNOTATION
  ImageNet ID: n02691156_6120
  URL: http://farm2.static.flickr.com/1072/860435251_f230e4646c.jpg
  Image Width: 500
  Image Height: 333
  BBox X: 1
  BBox Y: 62
  BBox Width: 499
  BBox Height: 162
  Exposure: 2000ms
  Synset Label: airplane
  Synset ID: n02691156
  Worker Tag: a jet plane
  Sanity Check: 
   Context
   Saved
   Shading
  Comment: 
   {}
  Worker ID: AKDCGQKFLU04S
  Assignment ID: 3X87C8JFV6BT1NJZIWGYEA9NCADSQ3
  HIT ID: 359AP8GAGGK114RUZ9CQAUTPKL67CU
  Work Time: 3716s
  Worker Score: 0.8571
 END ANNOTATION -->
 <g display="inline">
  <title>Layer 1</title>
  <path t="0,380,381,381,381,381,381,381,407,407,407,407,407,407,407,428,428,428,428,428,428,452,452,452,452,452,484,484,484,484,484,484,513,513,513,513,532,532,532,532,532,556,556,557,557,557,584,585,585,612,612,612,612,636,636,636,660,660,660,660,684,684,708,708,740,741,764,764,764,788,788,788,816,817,817,836,868,868,892,892,916,916,940,940,964,964,1020,1020,1092,1092,1124,1124,1148,1148,1172,1172,1172,1196,1196,1220,1220,1220,1252,1252,1252,1279,1279,1279,1279,1279,1280,1280,1300,1300,1300,1300,1300,1324,1324,1324,1324,1324,1325,1348,1348,1348,1348,1380,1380,1380,1380,1406,1406,1406,1406,1406,1428,1428,1428,1428,1428,1454,1454,1454,1454,1454,1454,1476,1476,1476,1476,1477,1508,1508,1508,1508,1532,1532,1532,1532,1556,1556,1556,1580,1580,1580,1604,1604,1636,1636,1636,1660,1660,1660,1661,1685,1685,1685,1708,1708,1709,1709,1738,1739,1739,1764,1764,1764,1765,1788,1788,1789,1789,1812,1812,1812,1836,1836,1837,1837,1860,1861,1861,1893,1893,1893,1916,1916,1916,1940,1940,1964,1964,1988,1988,2020,2020,2020,2045,2045,2046,2068,2068,2068,2093,2094,2094,2116,2116,2116,2117,2117,2172,2172,2172,2172,2222,2222,2222,2223,2223,2224,2224,2224,2244,2244,2245,2245,2245,2245,2245,2246,2246,2277,2277,2278,2278,2278,2279,2279,2279,2279,2315,2315,2316,2316,2316,2316,2316,2317,2317,2339,2339,2339,2340,2340,2340,2340,2340,2341,2363,2363,2363,2363,2364,2364,2364,2364,2364,2387,2388,2388,2388,2388,2388,2389,2389,2389,2411,2411,2411,2412,2412,2412,2412,2412,2413,2439,2439,2439,2440,2440,2440,2440,2440,2441,2463,2463,2464,2464,2464,2464,2464,2465,2465,2488,2489,2489,2489,2489,2490,2490,2490,2491,2515,2515,2516,2516,2516,2516,2516,2517,2517,2540,2540,2541,2541,2541,2541,2542,2542,2542,2565,2565,2566,2566,2566,2566,2567,2567,2567,2592,2592,2592,2593,2593,2594,2594,2595,2595,2619,2620,2620,2620,2621,2621,2621,2621,2622,2651,2651,2651,2652,2652,2652,2653,2653,2653,2684,2684,2685,2685,2685,2686,2687,2687,2687,2691,2691,2692,2692,2692,2693,2693,2693,2693,2727,2728,2728,2729,2729,2730,2730,2731,2731,2737,2737,2738,2739,2777,2778,2778,2810,2811,2814,2837,2838,2838,3048,3049,3049,3069,3116,3117,3155,3155,3168,3169,3169,3197,3220,3244,3244,3245,3245,3268,3268,3269,3292,3292,3325,3325,3326,3348,3348,3349,3349,3372,3372,3373,3373,3373,3396,3396,3397,3397,3397,3398,3420,3420,3421,3421,3422,3452,3452,3453,3453,3453,3476,3476,3477,3503,3504,3504,3505,3524,3524,3525,3525,3525,3548,3548,3549,3549,3549,3550,3580,3580,3581,3581,3604,3604,3605,3628,3629,3629,3652,3652,3653,3653,3653,3679,3680,3680,3680,3681,3681,3681,3708,3708,3709,3709,3710,3710,3710,3741,3741,3742,3742,3742,3743,3756,3757,3757,3757,3758,3758,3758,3780,3780,3781,3781,3782,3782,3808,3809,3809,3809,3810,3810,3810,3811,3837,3837,3838,3838,3839,3840,3840,3841,3841,3860,3861,3861,3862,3862,3863,3863,3863,3884,3884,3885,3885,3886,3886,3886,3887,3908,3909,3910,3910,3910,3911,3911,3912,3932,3933,3933,3933,3934,3934,3935,3935,3935,3964,3964,3965,3965,3966,3966,3967,3967,3967,3993,3993,3994,3994,3995,3995,3995,3996,3996,4016,4017,4017,4018,4018,4019,4019,4019,4020,4037,4038,4038,4039,4039,4039,4040,4040,4041,4060,4060,4061,4061,4062,4062,4063,4063,4063,4101,4102,4102,4103,4104,4105,4106,4106,4107,4131,4132,4132,4133,4134,4135,4136,4136,4137,4159,4159,4160,4160,4160,4161,4161,4162,4162,4165,4165,4166,4166,4167,4168,4168,4169,4169,4188,4188,4189,4189,4190,4190,4191,4191,4192,4220,4220,4221,4221,4222,4222,4223,4223,4224,4244,4244,4245,4246,4246,4246,4268,4269,4269,4270,4270,4271,4301,4302,4302,4303,4303,4304,4304,4318,4318,4319,4319,4320,4321,4321,4348,4348,4349,4349,4350,4350,4351,4351,4352,4372,4373,4373,4373,4374,4374,4375,4396,4397,4397,4398,4398,4399,4420,4421,4421,4422,4422,4423,4444,4444,4445,4446,4446,4446,4476,4477,4477,4478,4479,4479,4500,4501,4501,4502,4502,4533,4534,4534,4535,4535,4555,4556,4556,4557,4572,4572,4573,4573,4604,4604,4605,4635,4636,4652,4652,4676,4677,4677,4700,4700,4732,4732,4780,4780,4804,4932,4932,4956,5012,5060,5444,5445,5468,5548,5652,5780,5780,5815,5816,5817,5817,5818,5818" d="m198,218.5c2.65016,0 3.19467,0 4.43066,0c0.67351,0 1.37201,0 2.0865,0c0.7215,0 2.14951,0 3.51216,0c0.65634,0 1.29868,0 1.929,0c1.23267,0 1.839,0 3.04167,0c1.19733,0 1.791,0 2.37866,0c1.14934,0 1.707,0 3.28801,0c0.49049,0 1.42349,0 2.3125,0c0.86899,0 2.1875,0 2.642,0c0.927,0 1.858,0 2.769,0c0.44051,0 2.04184,0 2.75917,0c0.70132,0 1.41866,0 2.59366,0c0.87134,0 1.79868,0 2.27834,0c0.98134,0 2.47816,0 2.97467,0c0.972,0 1.896,0 2.3325,0c1.50732,0 2.10899,0 2.9115,0c1.09332,0 2.06532,0 2.75999,0c0.69467,0 1.95734,0 2.74933,0c0.75601,0 1.89334,0 2.556,0c1.04401,0 1.72667,0 2.92401,0c0.72899,0 1.77066,0 2.56,0c1.04401,0 1.74023,0.01947 2.75366,-0.22133c0.73651,-0.175 1.55936,-0.46141 2.457,-0.612c0.89029,-0.14935 1.77509,-0.12468 2.83334,-0.33334c0.71533,-0.14105 1.47479,-0.59799 2.40948,-0.77617c0.9433,-0.17981 1.64587,-0.13324 2.59317,-0.4825c0.76813,-0.28319 1.77011,-0.48294 2.564,-0.62733c1.00888,-0.18349 1.61865,-0.4048 2.57867,-1.04733c0.54608,-0.36548 1.32077,-1.04195 2.02133,-1.37917c0.95245,-0.45847 1.76129,-0.54858 2.65717,-0.87349c0.75522,-0.2739 1.74512,-0.54774 2.54285,-0.67267c0.80258,-0.12569 1.60629,-0.39714 2.39999,-0.776c0.80664,-0.38503 1.59488,-0.80904 2.60016,-1.29851c0.60748,-0.29579 1.47769,-0.65625 2.48917,-0.81749c0.57538,-0.09172 1.59277,-0.16132 2.81067,-0.416c0.46683,-0.09763 1.46341,-0.37341 1.98666,-0.528c1.07523,-0.31766 1.61194,-0.49225 2.14667,-0.65601c1.52249,-0.46628 2.46121,-0.73041 2.91602,-0.85733c0.90109,-0.25148 1.82053,-0.50302 2.784,-0.79201c1.03537,-0.31055 1.56827,-0.48361 2.64581,-0.83333c0.53458,-0.17349 1.56757,-0.51579 2.52084,-0.83333c0.84406,-0.28116 1.59201,-0.53067 2.26801,-0.75601c1.23199,-0.41068 1.8317,-0.61565 2.75284,-0.91066c0.63522,-0.20345 1.99954,-0.60481 2.74081,-0.8c0.77869,-0.20505 1.18375,-0.30528 2.02499,-0.5c1.33292,-0.30853 2.271,-0.50233 2.74936,-0.61066c0.97568,-0.22093 1.47705,-0.31639 2.96399,-0.75601c1.00485,-0.29709 1.49661,-0.48288 2.47916,-0.83333c0.48538,-0.17313 1.43192,-0.52666 2.35419,-0.83333c0.87668,-0.2915 1.71936,-0.53299 2.51999,-0.75601c0.7594,-0.21153 1.8262,-0.50784 2.82132,-0.81065c0.65125,-0.19817 1.30664,-0.40962 2.34653,-0.69984c0.72516,-0.20238 1.81406,-0.48085 2.50949,-0.61482c1.19479,-0.23016 1.9523,-0.25787 2.65201,-0.36934c1.00836,-0.16064 1.81094,-0.44167 2.63333,-0.632c0.99329,-0.22989 1.9093,-0.27866 2.85065,-0.284c0.7905,-0.00447 1.64401,0 2.83334,0c0.60001,0 1.5,0 2.39999,0c0.89999,0 1.80002,0 2.70001,0c0.89999,0 1.79999,0 2.69998,0c0.60001,0 1.80002,0 2.70001,0c0.60001,0 1.80017,0 2.71066,0c0.62534,0 1.27466,0 2.67334,0c0.74133,0 1.49066,0 2.23199,0c1.39868,0 2.048,0 2.97949,0c0.90451,0 1.8045,0 2.7045,0c0.60001,0 1.80002,0 2.70001,0c0.60001,0 1.79984,0 2.68933,0c0.57468,0 1.64401,0 2.57468,0c0.83466,0 1.836,0 2.63599,0c0.99869,0 1.76401,0 2.71735,0c0.85199,0 1.897,0 2.42432,0c0.86102,0 2.05786,-0.02283 2.9375,0.02083c0.83698,0.04155 1.84393,0.2449 2.52084,0.5c0.69177,0.26068 1.68292,0.69006 2.54166,0.97917c0.6174,0.20786 1.6239,0.50397 2.34369,0.7c0.74951,0.20413 1.52509,0.40103 2.31598,0.60001c1.19861,0.30154 2.00665,0.50435 2.84033,0.7c0.87161,0.20456 2.29153,0.50079 2.80234,0.60049c0.53452,0.10432 1.69266,0.32849 2.32266,0.46201c0.67139,0.14227 1.38724,0.3013 2.14801,0.4935c1.68973,0.42691 2.61465,0.7043 3.59067,0.99733c1.01639,0.30516 2.05783,0.63179 3.11551,0.9675c1.06366,0.33762 2.12,0.67941 3.16049,1.01251c1.98468,0.63536 2.91122,0.92578 3.79733,1.19733c0.85291,0.26138 1.6835,0.50964 2.50049,0.7485c0.81104,0.23712 1.62662,0.47037 2.45551,0.70349c1.7312,0.48689 2.65118,0.73775 3.60266,1.004c0.97821,0.27373 1.97583,0.55611 2.98352,0.85501c1.01498,0.30107 2.0293,0.60896 3.0285,0.94499c1.95804,0.65848 2.88892,1.02782 3.79465,1.39734c0.88724,0.36198 1.74927,0.73853 2.59351,1.116c0.83176,0.3719 1.64774,0.75009 2.4585,1.116c1.60156,0.72279 2.40253,1.0652 3.20132,1.39867c0.79254,0.33086 1.58118,0.64975 2.36102,0.96451c0.7695,0.31058 1.52872,0.61293 2.271,0.91949c1.44006,0.59474 2.129,0.89908 2.80267,1.20134c0.66367,0.29776 1.31732,0.59999 1.96799,0.89999c0.65067,0.3 1.30368,0.60367 1.96799,0.89999c1.36203,0.60754 2.07394,0.90346 2.80536,1.20001c0.74857,0.30351 1.51877,0.60324 2.31,0.89999c0.80875,0.30333 1.6384,0.60457 2.48999,0.89999c1.75677,0.60944 2.66876,0.90176 3.59467,1.20001c0.93677,0.30176 1.88266,0.59999 2.832,0.89999c0.94934,0.3 1.8956,0.59703 2.832,0.89999c1.83655,0.59419 2.72623,0.89708 3.59866,1.20134c0.86057,0.30011 1.70914,0.60631 2.54849,0.91949c0.83664,0.31216 1.67062,0.63226 2.50351,0.96451c1.68732,0.67308 2.53967,1.03421 3.40268,1.39999c0.87265,0.36987 1.75116,0.74948 2.6355,1.1355c0.89035,0.38864 1.78391,0.7831 2.68048,1.18051c1.79919,0.7975 2.6983,1.19933 3.59866,1.59732c0.89966,0.39767 1.7991,0.79279 2.70001,1.18051c0.89908,0.38693 1.79779,0.76903 2.70001,1.1355c1.79568,0.72937 2.69873,1.06767 3.60132,1.39999c0.90176,0.33202 1.80829,0.65233 2.71951,0.96451c0.91409,0.31317 1.83536,0.61928 2.7645,0.91949c1.87946,0.60728 2.83527,0.90234 3.79602,1.2c0.96191,0.298 1.92236,0.59158 2.87695,0.88051c0.94409,0.28575 1.87439,0.56465 2.78705,0.83549c1.75409,0.52055 2.58984,0.76373 3.396,1c0.7782,0.22806 1.52966,0.4482 2.25446,0.66451c0.7005,0.20906 1.3775,0.41269 2.02954,0.61949c1.24353,0.39441 1.83209,0.59888 2.40131,0.8c0.55078,0.19463 1.08044,0.38956 1.59003,0.58051c0.49042,0.18376 0.95978,0.36415 1.40997,0.53549c0.83966,0.31958 1.23041,0.46474 1.60535,0.60133c0.36243,0.13203 0.71735,0.25867 1.06799,0.384c0.35065,0.12534 0.70575,0.25151 1.06799,0.384c0.76624,0.28023 1.17462,0.43739 1.60004,0.59866c0.43726,0.16574 0.88184,0.33421 1.33197,0.49651c0.44855,0.16171 0.89221,0.31874 1.33197,0.45149c0.83044,0.25072 1.22455,0.33165 1.60138,0.40134c0.36499,0.0675 0.72656,0.11768 1.08746,0.168c0.36578,0.05101 0.7428,0.09872 1.13251,0.168c0.84937,0.15099 1.31177,0.27063 1.79871,0.40134c0.5072,0.13614 1.02466,0.2897 1.54797,0.45149c0.52472,0.16222 1.04236,0.3298 1.54797,0.49651c1.38861,0.45786 2.18054,0.72551 2.88953,0.96184c0.9585,0.3195 1.86023,0.62674 2.74115,0.91016c0.80524,0.25906 1.84729,0.5667 2.61871,0.60934c0.87329,0.04828 1.97333,0.00133 2.74432,0.00133c0.56732,0 1.7583,-0.02109 2.62634,0.01067c0.76141,0.02786 1.82715,0.60306 1.11761,0.93666c-0.6358,0.29895 -1.69696,0.31152 -2.48566,0.66335c-0.8125,0.36244 -1.56641,0.8354 -2.31464,1.10399c-0.94135,0.33791 -1.91736,0.28406 -2.98535,0.28534c-0.55334,0.00067 -1.52271,-0.00505 -2.19916,0.05716c-1.26318,0.11618 -2.03876,0.35561 -2.69183,0.64734c-1.02582,0.45825 -1.58282,0.85971 -2.60901,1.12885c-0.79596,0.20877 -1.69147,0.22223 -2.68933,0.452c-0.5827,0.13419 -1.58557,0.42371 -1.96802,0.51599c-1.30316,0.31439 -2.30554,0.50131 -2.82935,0.60934c-1.0741,0.22153 -1.62323,0.3075 -3.17999,0.75598c-0.4942,0.14236 -1.4245,0.48334 -1.87201,0.65869c-0.87805,0.34406 -1.73358,0.72183 -3.08264,1.15314c-0.45935,0.14685 -1.4032,0.38873 -1.87866,0.50067c-0.94586,0.22272 -2.33362,0.51941 -3.21198,0.71951c-0.42206,0.09613 -1.60284,0.37756 -2.31604,0.51599c-0.92639,0.17981 -1.9718,0.27365 -2.73999,0.284c-0.87494,0.01178 -1.90399,0.00134 -2.65332,0.00134c-0.78131,0 -1.979,0 -2.78766,0c-0.8327,0 -1.263,-0.00006 -2.16168,0c-1.47186,0.00009 -1.99603,-0.00409 -3.06934,0.01068c-0.53925,0.00742 -1.59821,0.03571 -2.10669,0.07465c-1.39136,0.10657 -2.18304,0.26166 -3.22131,0.48935c-0.62875,0.13788 -1.82968,0.3537 -2.42133,0.38931c-0.85257,0.0513 -2.12933,0.03601 -2.85233,0.03601c-0.81302,0 -1.82303,-0.005 -2.63434,0.00449c-0.90744,0.01059 -1.39276,0.0177 -2.41333,0.08084c-1.07834,0.06671 -2.19769,0.19724 -2.77234,0.27185c-0.58536,0.07599 -1.78513,0.25278 -2.39999,0.34732c-0.62512,0.09613 -1.90448,0.29901 -3.22101,0.49417c-0.66522,0.0986 -1.33173,0.19281 -1.99649,0.28049c-0.65924,0.08694 -1.95041,0.2475 -3.1875,0.35419c-0.59006,0.0509 -1.72336,0.11362 -2.272,0.13065c-1.07581,0.03339 -1.6095,0.03375 -3.228,0.03601c-0.55469,0.00076 -1.686,0 -2.25867,0c-0.57468,0 -1.72202,-0.00003 -2.29068,0c-1.66299,0.00009 -2.20273,-0.00403 -3.28,0.01068c-0.54568,0.00745 -1.10196,0.01224 -2.25867,0.07465c-1.24619,0.06723 -1.9101,0.13339 -2.60132,0.20001c-0.71579,0.06897 -2.20667,0.23422 -2.97601,0.32532c-0.78165,0.09256 -1.57202,0.19043 -3.168,0.38934c-0.79987,0.0997 -1.59851,0.19998 -2.39551,0.2955c-0.79367,0.09512 -1.58337,0.18634 -2.3685,0.26849c-0.77856,0.08148 -1.54968,0.16391 -3.06934,0.26935c-0.74472,0.05167 -1.4812,0.08475 -2.2095,0.1095c-0.72107,0.02451 -1.43628,0.03827 -2.14648,0.04648c-0.70615,0.00815 -2.81067,0.01068 -3.51068,0.01068c-0.69998,0 -1.39999,0 -2.09998,0c-0.70001,0 -1.40002,0 -2.80002,0c-1.39999,0 -2.10016,0 -2.80133,0c-0.70316,0 -1.40933,0 -2.11951,0c-0.71515,0 -2.16449,0 -3.64581,0c-0.75519,0 -1.52133,0 -2.2995,0c-0.79117,0 -1.59634,0 -2.4165,0c-0.83618,0 -1.68933,0 -3.45068,0c-0.90982,0 -1.83865,0 -2.78549,0c-0.96384,0 -1.94366,0 -2.93851,0c-1.00882,0 -2.03067,0 -4.10931,0c-1.05484,0 -2.11868,0 -3.19052,0c-1.07883,0 -2.16367,0 -3.25348,0c-1.09384,0 -2.19067,0 -4.38934,0c-1.09967,0 -2.19733,0 -3.29099,0c-1.08768,0 -2.16736,0 -3.23703,0c-1.05765,0 -2.10132,0 -4.13864,0c-0.99036,0 -1.96268,0 -2.91901,0c-0.94235,0 -1.87268,0 -2.793,0c-0.91232,0 -1.81866,0 -3.62134,0c-0.89999,0 -1.79999,0 -2.70001,0c-0.89999,0 -1.79999,0 -2.69998,0c-0.89999,0 -1.80002,0 -3.60001,0c-0.89999,0 -1.79999,0 -2.70001,0c-0.89999,0 -1.79999,0 -2.69998,0c-0.89999,0 -1.80002,0 -3.60001,0c-0.89932,0 -1.79468,0 -2.68201,0c-0.87534,0 -1.73465,0 -2.57401,0c-0.81531,0 -1.60266,0 -3.07733,0c-0.68048,0 -1.32397,0 -1.9335,0c-0.57849,0 -1.129,0 -1.65448,0c-0.50351,0 -0.98801,0 -1.91202,0c-0.44531,0 -0.88266,0 -1.314,0c-0.42734,0 -0.85266,0 -1.27798,0c-0.42734,0 -0.85867,0 -1.74133,0c-0.45502,0 -0.92001,0 -1.39502,0c-0.48499,0 -0.97998,0 -1.48499,0c-0.51501,0 -1.04001,0 -2.12,0c-0.55469,0 -1.11734,0 -1.686,0c-0.57266,0 -1.14734,0 -1.72202,0c-0.57266,0 -1.14133,0 -2.25867,0c-1.08264,0 -1.61398,0 -2.66666,0c-0.52533,0 -1.58401,0 -2.66666,0c-1.11734,0 -1.686,0 -2.25867,0c-1.14935,0 -1.72202,0 -3.40802,0c-0.5455,0 -1.6185,0 -2.15198,0c-1.07602,0 -1.62451,-0.00003 -2.18402,0c-1.77383,0.00009 -2.40265,-0.00009 -3.0495,0.00449c-0.66382,0.0047 -1.34393,0.00714 -2.74731,0.05267c-0.72202,0.02344 -2.20078,0.10583 -2.95502,0.16418c-0.76181,0.05896 -1.5271,0.13022 -2.29349,0.20398c-0.76459,0.07358 -1.52386,0.15082 -2.27551,0.22202c-0.74036,0.07013 -2.17584,0.1973 -3.53784,0.26733c-0.65289,0.03357 -1.28925,0.05267 -1.90948,0.06448c-1.19623,0.0228 -1.77451,0.02017 -3.44116,0.02084c-0.53732,0.00021 -1.59601,0 -2.12134,0c-1.05267,0 -1.58401,0 -3.22134,0c-0.56265,0 -1.13132,0 -2.27866,0c-0.57468,0 -1.716,0 -2.83334,0c-1.08264,0 -1.61398,0 -2.66666,0c-0.52533,0 -1.58401,0 -2.66666,0c-0.5545,0 -1.68152,0 -2.24802,0c-1.12399,0 -1.67551,0 -3.25198,0c-0.49036,0 -1.41901,0 -2.29169,0c-0.83264,0 -2.04166,0 -2.84164,0c-0.80002,0 -1.60001,0 -2.40002,0c-1.19983,0 -1.99548,0 -2.77914,0c-0.76367,0 -1.85419,0 -2.86368,0c-0.63632,0 -1.55585,0 -2.75449,0c-0.58136,0 -1.63202,0 -2.59735,0c-0.77332,0 -1.81516,0 -2.59067,0c-1.048,0 -1.75751,-0.00058 -2.61015,0c-1.0045,0.00067 -1.82253,-0.04333 -2.80434,0.22134c-0.79913,0.21545 -1.62239,0.69037 -2.49567,0.77417c-0.82156,0.07886 -1.7885,0.00449 -2.65184,0.00449c-0.89549,0 -1.85266,0 -2.75267,0c-0.89999,0 -1.7,0 -2.59999,0c-0.90001,0 -1.84003,0.2291 -2.60451,-0.02249c-0.67215,-0.22122 -1.19592,-1.42261 -1.37067,-1.83984c-0.45467,-1.0856 -0.67949,-1.80301 -0.95799,-2.63199l-0.30951,-0.96301" id="svg_1" stroke-width="2" stroke="#000" fill="none"/>
  <path t="6726,6932,6932,6932,6963,6963,6963,6963,6982,6982,6982,7004,7004,7004,7028,7028,7028,7060,7060,7060,7060,7084,7084,7084,7084,7108,7108,7108,7108,7108,7108,7108,7132,7132,7132,7132,7132,7132,7156,7156,7156,7156,7156,7188,7188,7188,7188,7212,7212,7212,7212,7236,7236,7236,7236,7236,7236,7260,7260,7260,7260,7260,7284,7284,7284,7284,7284,7316,7317,7317,7317,7340,7340,7340,7364,7364,7364,7364,7364,7364,7364,7388,7388,7388,7388,7388,7388,7388,7388,7388,7412,7412,7412,7412,7412,7412,7412,7413,7413,7444,7444,7444,7444,7444,7444,7444,7445,7445,7468,7468,7468,7468,7468,7468,7468,7469,7469,7492,7492,7492,7492,7492,7492,7493,7493,7493,7516,7516,7516,7516,7516,7516,7517,7517,7517,7540,7540,7540,7540,7540,7541,7541,7541,7541,7564,7564,7564,7564,7564,7564,7565,7565,7565,7596,7596,7596,7596,7596,7596,7597,7597,7597,7620,7620,7620,7620,7620,7620,7621,7621,7621,7644,7644,7644,7644,7644,7668,7668,7668,7700,7724,7828,7828,7900,7900,7900,7926,7926,7956,7956,7956,7986,7987,8004,8004,8004,8028,8028,8028,8052,8052,8052,8086,8086,8108,8108,8132,8132,8156,8156,8180,8212,8212,8237,8237,8260,8260,8289,8290,8308,8308,8340,8366,8367,8436" d="m197,216.5c-2.96167,0 -3.54167,0 -4.48666,0c-1.03467,0 -1.76601,0 -2.51334,0c-0.74733,0 -2.17833,0 -2.83833,0c-0.91499,0 -1.99539,0.01962 -2.7045,-0.0045c-0.85379,-0.02905 -1.86153,-0.27629 -2.49884,-0.51633c-0.73097,-0.2753 -1.92648,-0.68326 -2.61966,-0.87917c-0.72281,-0.20428 -1.45874,-0.39049 -2.51784,-0.70018c-1.03024,-0.30125 -1.75354,-0.53784 -2.56084,-0.78516c-0.92596,-0.28366 -1.99835,-0.59973 -2.57967,-0.76733c-0.60268,-0.17377 -1.22073,-0.35199 -2.48399,-0.69467c-0.63037,-0.17099 -1.86227,-0.48903 -2.45317,-0.63116c-1.12296,-0.27011 -1.66008,-0.38737 -2.68584,-0.61084c-0.96895,-0.21109 -1.89169,-0.40614 -2.77066,-0.61066c-0.84102,-0.19568 -1.64172,-0.39354 -2.39999,-0.60001c-1.06786,-0.29076 -1.72845,-0.51662 -2.71201,-0.76399c-0.65526,-0.16481 -1.69609,-0.31752 -2.82133,-0.42134c-0.39491,-0.03644 -1.22528,-0.07106 -2.52,-0.34799c-0.92625,-0.19812 -1.38899,-0.36754 -2.33333,-0.6875c-0.95042,-0.32202 -1.41,-0.51459 -2.77867,-0.95784c-0.86504,-0.28014 -1.72171,-0.52005 -2.14667,-0.64667c-0.85944,-0.25607 -2.19684,-0.69318 -2.65733,-0.85866c-0.93405,-0.33565 -1.85587,-0.69101 -2.3075,-0.86334c-1.27614,-0.48694 -2.03391,-0.77759 -2.72717,-1.006c-0.91158,-0.30034 -1.96213,-0.52341 -2.68933,-0.632c-0.81784,-0.12215 -1.86366,-0.33499 -2.73999,-0.58932c-0.50221,-0.14575 -1.62175,-0.52478 -2.24001,-0.75467c-0.6619,-0.24612 -1.36613,-0.515 -2.88,-1.17067c-0.82291,-0.3564 -1.67614,-0.75304 -2.56651,-1.16251c-0.92164,-0.42386 -1.86918,-0.86238 -2.8455,-1.2975c-0.99467,-0.4433 -2.00082,-0.90173 -4.088,-1.70667c-1.04891,-0.40453 -2.11224,-0.76874 -3.177,-1.1145c-1.05796,-0.34355 -2.11333,-0.66096 -3.159,-0.96149c-1.02902,-0.29573 -2.04155,-0.57355 -3.99733,-1.09067c-0.93547,-0.24734 -1.84789,-0.48309 -2.742,-0.714c-0.8819,-0.22775 -1.75806,-0.45245 -2.634,-0.67799c-0.88206,-0.22713 -1.77669,-0.45605 -3.624,-0.94135c-0.9642,-0.2533 -1.95087,-0.5166 -2.9535,-0.786c-1.01203,-0.27193 -2.02583,-0.54674 -3.0345,-0.82201c-0.99699,-0.27208 -1.97509,-0.53981 -3.84534,-1.05865c-0.8812,-0.24446 -1.72788,-0.48175 -2.547,-0.7095c-0.79688,-0.22157 -1.57764,-0.4377 -2.349,-0.6465c-0.76663,-0.20752 -1.53438,-0.41574 -3.104,-0.81067c-0.80867,-0.20346 -1.63603,-0.40118 -2.47649,-0.60451c-0.85154,-0.20601 -1.71165,-0.41374 -2.5755,-0.63148c-0.86716,-0.21858 -1.73672,-0.43282 -3.44801,-0.93068c-0.84675,-0.24635 -1.67591,-0.51221 -2.487,-0.78149c-0.79156,-0.2628 -1.55533,-0.52913 -2.289,-0.7905c-0.70097,-0.24973 -1.36208,-0.49361 -2.55733,-0.92801c-0.52608,-0.19119 -1.01037,-0.36484 -1.461,-0.5235c-0.42405,-0.14929 -0.83046,-0.2896 -1.227,-0.4245c-0.39413,-0.13409 -0.79458,-0.26825 -1.64533,-0.552c-0.46412,-0.1548 -0.95319,-0.31775 -1.4625,-0.48599c-0.52402,-0.17311 -1.05804,-0.34824 -1.5975,-0.522c-0.53888,-0.17357 -1.07173,-0.3466 -2.10667,-0.65866c-0.48975,-0.14767 -0.96348,-0.2832 -1.4235,-0.4095c-0.448,-0.12299 -0.88858,-0.23801 -1.3245,-0.34651c-0.43309,-0.1078 -0.86728,-0.21251 -1.752,-0.41066c-0.4538,-0.10164 -1.37403,-0.29321 -2.27083,-0.5c-0.83982,-0.19365 -1.91906,-0.44756 -2.63383,-0.7955c-0.75167,-0.36591 -1.5386,-0.58679 -2.4495,-0.72533c-0.98874,-0.15038 -1.69089,-0.58771 -2.47917,-0.97917c-0.80108,-0.39783 -1.39162,-0.71718 -2.4,-1.19867c-0.79363,-0.37895 -1.59366,-0.6823 -2.4,-0.76534c-0.79654,-0.08202 -1.80853,0.005 -2.65717,-0.09315c-0.97173,-0.1124 -1.77401,-0.38799 -2.64733,-0.59018c-0.89104,-0.2063 -1.7902,-0.31441 -2.6595,-0.342c-1.06885,-0.03392 -1.77883,-0.01067 -2.6315,-0.01067c-1.0045,0 -1.8045,0 -2.8045,0c-0.8,0 -1.8,0 -2.58933,0c-1.044,0 -1.8,0 -2.7315,0c-0.96317,0 -1.65383,0 -2.5965,0c-0.852,0 -1.89048,-0.03235 -2.632,0.036c-0.92268,0.08504 -1.68358,0.59109 -2.572,0.8425c-0.82799,0.23431 -1.79333,0.12151 -2.67867,0.12151l-0.8,0l-0.9,0" id="svg_2" stroke-width="2" stroke="#000" fill="none"/>
  <path t="10438,10820,10845,10868,10868,10869,10869,10892,10892,10892,10916,10916,10948,10972,10972,10997,10997,10998,10998,11020,11020,11020,11044,11044,11044,11044,11044,11044,11076,11076,11076,11076,11076,11103,11103,11103,11103,11124,11124,11124,11124,11148,11148,11148,11148,11148,11148,11148,11148,11172,11172,11172,11172,11172,11172,11172,11172,11204,11204,11204,11204,11204,11204,11204,11204,11204,11228,11228,11228,11228,11228,11228,11228,11564,11564,11588,11588,11588,11612,11612,11612,11612,11636,11636,11636,11684,11684,11740,11740,11768,11768,11768,11788,12100,12124,12124,12124,12148,12148,12148,12148,12148,12174,12174,12174,12175,12175,12196,12196,12196,12196,12228,12228,12228,12228,12254,12255,12255,12277,12278,12278,12300,12300,12300,12300,12324,12324,12324,12356,12356,12532,12612,12612" d="m195,211.5c0.291,-1.64284 -0.61847,-2.00844 -0.87883,-2.88583c-0.243,-0.81888 -0.14604,-1.52731 -0.2905,-2.23416c-0.21884,-1.07082 -0.66772,-2.03705 -1.01601,-2.59734c-0.60681,-0.97618 -1.28413,-1.54332 -1.69333,-2.38268c-0.41409,-0.8494 -0.78099,-1.56198 -1.28801,-2.23332c-0.50359,-0.66681 -1.0352,-1.45857 -1.43466,-1.98401c-0.58627,-0.77116 -1.20082,-1.47752 -1.91299,-2.13533c-0.79816,-0.73723 -1.45439,-1.23563 -1.8045,-1.5c-0.73688,-0.55644 -1.54108,-1.10477 -1.96916,-1.36333c-1.31451,-0.79396 -1.79085,-1.00383 -2.716,-1.44801c-0.89629,-0.43033 -1.3531,-0.58705 -2.496,-1.23599c-0.66025,-0.37488 -1.4576,-1.00089 -1.94366,-1.39999c-0.97687,-0.80212 -1.52354,-1.21394 -2.13966,-1.64168c-0.68884,-0.47823 -1.91689,-1.29134 -2.38116,-1.6015c-0.49173,-0.32849 -1.54457,-1.03793 -2.09801,-1.41933c-0.57062,-0.39323 -1.15382,-0.79974 -1.7415,-1.22549c-1.20183,-0.87068 -1.79793,-1.33102 -2.396,-1.79733c-0.60196,-0.46935 -1.20171,-0.94856 -1.8,-1.4355c-1.20345,-0.97945 -1.80031,-1.48013 -3,-2.47917c-0.59999,-0.49965 -1.19855,-0.99883 -1.7955,-1.4955c-0.5937,-0.49397 -1.18341,-0.98398 -1.76849,-1.46851c-0.57858,-0.47914 -1.14941,-0.95219 -2.26933,-1.86932c-0.5439,-0.44542 -1.07579,-0.87759 -2.08801,-1.69867c-0.47438,-0.3848 -0.92676,-0.74596 -1.73599,-1.41068c-0.96013,-0.78867 -1.52444,-1.51025 -2.50934,-1.89066c-0.6557,-0.25325 -1.60533,-0.166 -2.47617,-0.16667c-1.01849,-0.00078 -1.74249,0 -2.4745,0c-1.06099,0 -2.036,0 -2.92099,0c-1.04001,0 -1.715,0 -2.795,0c-0.828,0 -1.70934,0 -2.41734,0c-0.98132,0 -1.97562,-0.26895 -2.84917,0.0005c-0.84799,0.26157 -0.87457,1.31778 -0.8895,1.86749c-0.03525,1.29825 -0.01067,2.01868 -0.01067,2.77867c0,0.8 -0.00159,1.64 0.00017,2.9745c0.00061,0.4615 -0.00237,1.39394 0.03583,2.31749c0.03691,0.89261 0.16714,2.12213 0.32117,2.8515c0.14632,0.6929 0.35559,1.35565 0.74284,2.731c0.20436,0.72578 0.38878,1.46126 0.59999,2.16901c0.37994,1.27316 0.60269,1.79889 1,2.758c0.40274,0.9722 0.6058,1.50699 0.90001,2.3625c0.40805,1.18658 0.59445,1.7899 0.89999,2.6685c0.19644,0.56491 0.58517,1.60606 1,2.5c0.28973,0.62436 0.7955,1.61633 1.14284,2.36366l0.30449,0.89999l0.27434,0.85651l0.66501,0.35933" id="svg_3" stroke-width="2" stroke="#000" fill="none"/>
  <path t="15330,15452,15481,15481,15481,15481,15482,15504,15505,15505,15524,15524,15548,15580,15580,15580,15628,15628,15652,15676,15676,15708,15732,15733,15804,15804,15987,16035,16091,16115,16116,16116,16116,16139,16140,16140,16140,16163,16164,16219,16419,16420,16523,16572,16572,16600,16601,16628,16628,16628,16652,16652,16676,16676,16676,16700,16700,16700,16723,16724,16755,16756,16756,16779,16780,16803,16803,16827,16827,16828,16851,16852,16852,16883,16884,16884,16908,16909,16933,16933,16956,16956,16956,16980,16980,16980,17012,17012,17012,17037,17037,17037,17060,17060,17084,17084,17084,17084,17084,17108,17108,17108,17108,17108,17164,17164,17164" d="m181,186.5c-1.02533,-1.744 -1.16161,-2.66759 -1.28534,-3.33867c-0.14474,-0.78511 -0.31567,-1.63419 -0.51599,-2.496c-0.28481,-1.22527 -0.49525,-1.9417 -0.67784,-2.582c-0.35628,-1.2494 -0.43414,-2.0462 -0.52533,-2.88783c-0.0945,-0.87218 -0.53423,-1.70335 -0.7115,-2.29683c-0.29185,-0.97707 -0.28333,-1.91333 -0.284,-2.89867c-0.00055,-0.82133 0.10236,-1.6804 -0.00133,-2.61467c-0.11137,-1.0036 -0.75676,-1.61328 -0.94151,-2.53799c-0.13649,-0.68317 -0.33287,-1.75447 -0.05266,-2.64284c0.24469,-0.77579 1.49553,-0.70921 2.0515,-0.70317c1.00662,0.01096 1.76091,0.02367 2.944,0.16534c0.7989,0.09567 1.56856,0.25594 2.29201,0.40799c1.20895,0.2541 1.9994,0.40733 2.808,0.42534c0.89977,0.02003 1.83037,-0.39297 2.61465,0.08533c0.80394,0.49028 1.20782,1.03661 1.9425,1.62901c0.5843,0.47116 1.34283,1.28566 1.93834,1.88116c0.5685,0.5685 1.27975,1.19962 1.88367,1.9045c0.67003,0.78204 0.89825,1.35764 1.40616,2.10133c0.56291,0.82425 1.13498,1.38177 1.63068,1.99867c0.62636,0.77951 1.07724,1.62267 1.65067,2.39999c0.4567,0.61909 1.11568,1.12431 1.5905,2.19983c0.32727,0.74132 0.32376,1.69228 0.8895,2.42551c0.59221,0.76755 1.23346,1.17587 1.64349,1.83633c0.56297,0.9068 0.60666,1.77539 0.81517,2.58566c0.27036,1.05057 0.76482,1.69171 1.18933,2.291c0.62958,0.88878 0.83594,1.57327 1.41518,2.31883c0.44768,0.57623 1.26292,1.54698 1.67549,2.14284c0.4184,0.60426 1.14931,1.40959 1.86534,2c0.49323,0.40668 1.44016,1.1796 1.9395,1.7955c0.44682,0.55112 1.12721,1.38835 1.80983,1.9045c0.51306,0.38792 1.24596,1.16582 1.66133,1.74667c0.6627,0.92671 1.1062,1.44279 1.61067,2c0.54597,0.60306 1.14523,1.22752 2.02783,2.27449c0.60577,0.7186 0.88905,1.09386 1.46417,1.8175c0.55023,0.69234 1.31433,1.61816 1.77432,2.1425l0.61501,0.6615" id="svg_4" stroke-width="2" stroke="#000" fill="none"/>
  <path t="18004,18132,18132,18164,18164,18164,18188,18188,18212,18212,18212,18236,18236,18236,18260,18260,18292,18292,18292,18321,18321,18321,18321,18340,18340,18340,18364,18364,18364,18388,18388,18420,18420,18420,18444,18444,18444,18468,18468,18468,18468,18492,18492,18492,18516,18516,18516,18516,18547,18547,18547,18547,18571,18571,18571,18571,18571,18571,18595,18595,18595,18619,18619,18619,18619,18643,18643,18643,18643,18675,18675,18675,18676,18676,18699,18699,18700,18700,18700,18723,18723,18724,18724,18724,18747,18747,18748,18748,18748,18771,18772,18772,18772,18772,18772,18803,18804,18804,18804,18804,18804,18804,18827,18827,18827,18828,18828,18828,18828,18851,18851,18851,18852,18875,18931,18957,19107,19131,19131,19157,19157,19187,19187,19187,19188,19211,19211,19212,19212,19212,19212,19238,19238,19239,19239,19239,19259,19259,19260,19260,19283,19283,19284,19284,19315,19316,19316,19339,19339,19339,19340,19340,19340,19363,19363,19363,19364,19364,19364,19387,19387,19387,19388,19388,19388,19388,19388,19411,19411,19411,19412,19412,19412,19412,19412,19443,19443,19443,19444,19444,19444,19444,19444,19470,19470,19470,19470,19471,19471,19471,19471,19471,19491,19491,19492,19492,19492,19492,19492,19492,19492,19515,19516,19516,19516,19516,19516,19516,19517,19517,19539,19540,19540,19540,19540,19540,19540,19541,19541,19571,19572,19572,19572,19572,19572,19572,19573,19573,19595,19596,19596,19596,19596,19596,19597,19597,19597,19622,19622,19622,19623,19623,19623,19623,19623,19644,19644,19644,19644,19667,19668,19668,19699,19700,19723,19724,19724,19724,19724,19747,19748,19748,19748,19778,19778,19778,19795,19796,19819,19820,19851,19852,19875,19876,19902,19903,19924,19924,19924,19948,19948,19948,19949,19979,19980,19980" d="m243,270.5c-2.00983,-0.00449 -2.79628,0.03302 -3.83333,-0.16666c-0.72025,-0.13867 -1.5473,-0.54419 -2.56667,-0.74933c-0.79158,-0.1593 -1.8,-0.30585 -2.41068,-0.50934c-0.87444,-0.29138 -1.87187,-0.51181 -2.68933,-0.55383c-0.81516,-0.04193 -1.81599,-0.02084 -2.72533,-0.02084c-0.94135,0 -1.73184,0 -2.58534,0c-1.18933,0 -1.78934,0 -2.68933,0c-0.89999,0 -1.79984,0 -2.68933,0c-0.8535,0 -1.88918,0 -2.57468,0c-0.83466,0 -1.8405,0 -2.69316,0c-0.96432,0 -1.77882,0 -2.64734,0c-1.1955,0 -1.79549,0 -2.6955,0c-1.2,0 -1.79953,0.0228 -2.67917,-0.02084c-0.83694,-0.04153 -1.83636,-0.26913 -2.54166,-0.47916c-0.74664,-0.22235 -1.9494,-0.4216 -2.65117,-0.47467c-0.74892,-0.05664 -1.53471,-0.07779 -2.72816,-0.24683c-0.80763,-0.11441 -1.6212,-0.29694 -2.457,-0.483c-1.31036,-0.29172 -1.76273,-0.40149 -2.69101,-0.591c-0.92976,-0.18982 -1.38803,-0.28384 -2.2825,-0.41916c-1.22333,-0.18506 -2.2984,-0.24783 -2.948,-0.31067c-1.22377,-0.11841 -1.82231,-0.26013 -2.74216,-0.47467c-0.63611,-0.14835 -1.644,-0.3526 -2.73634,-0.44733c-0.7626,-0.06613 -1.5507,-0.07431 -2.74283,-0.21933c-0.80414,-0.09781 -1.61162,-0.26492 -2.436,-0.444c-0.42166,-0.09158 -1.72935,-0.39551 -2.64799,-0.58801c-0.94003,-0.19699 -1.41331,-0.29684 -2.36333,-0.44415c-1.38251,-0.21439 -1.83064,-0.24292 -2.69551,-0.3045c-0.83588,-0.05951 -1.65594,-0.0748 -2.85716,-0.21933c-0.80539,-0.09692 -1.62004,-0.26624 -2.472,-0.40802c-0.89737,-0.14932 -1.86049,-0.27005 -2.89867,-0.34131c-0.54329,-0.03729 -1.67104,-0.08319 -2.25067,-0.10934c-0.58769,-0.02652 -2.37907,-0.13693 -2.97884,-0.19617c-0.60162,-0.05942 -1.81078,-0.21243 -2.42065,-0.29935c-0.61548,-0.08771 -1.23604,-0.18564 -3.14584,-0.47916c-0.65388,-0.10049 -1.3118,-0.20007 -1.968,-0.2955c-1.2816,-0.1864 -1.89558,-0.27167 -2.48399,-0.34732c-1.54695,-0.19888 -2.35515,-0.25549 -3.25633,-0.35718c-0.63452,-0.07159 -1.52863,-0.68521 -2.425,-0.94284c-0.86552,-0.24878 -1.51994,-0.52087 -2.14284,-1.15717c-0.4917,-0.50229 -1.53844,-0.99701 -2.07799,-1.42082c-0.81622,-0.64113 -1.49606,-1.14645 -2.0625,-1.5c-0.63301,-0.3951 -1.74603,-0.98758 -2.586,-1.37917c-0.43848,-0.20442 -1.3515,-0.59999 -2.2825,-1c-0.4655,-0.20001 -1.82716,-0.7984 -2.26151,-0.99867c-0.84129,-0.38791 -1.63627,-0.77353 -2.4,-1.116c-1.06028,-0.47543 -1.73502,-0.73004 -2.712,-1.11067c-0.65936,-0.2569 -1.69624,-0.69492 -2.42284,-1.02283c-0.73141,-0.33009 -1.42429,-0.69162 -2.4185,-1.01851c-0.81998,-0.26961 -1.63124,-0.33948 -2.83334,-0.66666c-0.76418,-0.20799 -1.6078,-0.52858 -2.0625,-0.6875c-0.95057,-0.33223 -1.43517,-0.51756 -2.93784,-0.95818c-0.50032,-0.1467 -1.52259,-0.41141 -2.04133,-0.56267c-1.0761,-0.31378 -1.63889,-0.48801 -2.79167,-0.95833c-0.61506,-0.25095 -1.87769,-0.86012 -2.528,-1.18666c-0.66071,-0.33176 -1.32309,-0.67514 -1.99049,-1.01251c-0.6646,-0.33595 -1.97897,-0.97319 -2.62684,-1.258c-0.6349,-0.2791 -1.89516,-0.78369 -2.52133,-1.022c-0.6245,-0.23769 -1.25369,-0.46625 -1.884,-0.70349c-1.94102,-0.73058 -2.6048,-1.00201 -3.28217,-1.27901c-0.69199,-0.28297 -1.3969,-0.57866 -2.1165,-0.88499c-0.73676,-0.31363 -1.49014,-0.63817 -3.05067,-1.32001c-0.80991,-0.35388 -1.63638,-0.71779 -2.47649,-1.0905c-0.8519,-0.37794 -1.71159,-0.76237 -2.5755,-1.15349c-0.86709,-0.39255 -1.73452,-0.78529 -3.44801,-1.58934c-0.84608,-0.39702 -1.67871,-0.79724 -2.5005,-1.19099c-0.80888,-0.38757 -1.60279,-0.76918 -2.3835,-1.13701c-0.76299,-0.35948 -1.50489,-0.71452 -2.94933,-1.33867c-0.68764,-0.29713 -1.36279,-0.56636 -2.019,-0.83249c-0.64246,-0.26054 -1.27513,-0.51598 -1.893,-0.78751c-0.61485,-0.2702 -1.23586,-0.53568 -2.42133,-1.21333c-0.60958,-0.34846 -1.20517,-0.74965 -1.809,-1.16251c-0.6149,-0.42043 -1.23074,-0.86111 -1.863,-1.2975c-0.64039,-0.442 -1.2799,-0.90482 -2.66133,-1.70667c-0.70036,-0.40652 -1.4323,-0.77048 -2.1765,-1.11899c-0.74786,-0.35023 -1.50943,-0.67644 -2.2755,-0.99301c-0.76495,-0.3161 -1.53328,-0.61545 -3.048,-1.22133c-0.74564,-0.29825 -1.48019,-0.59819 -2.205,-0.89549c-0.71519,-0.29337 -1.41966,-0.58452 -2.115,-0.86852c-0.68467,-0.27965 -1.35712,-0.55806 -2.68,-1.06932c-0.64329,-0.24861 -1.27665,-0.4819 -1.896,-0.705c-0.60201,-0.21684 -1.18636,-0.42287 -2.29467,-0.8c-0.51822,-0.17635 -1.91426,-0.6319 -2.7,-0.909c-0.69534,-0.24522 -1.61914,-0.58528 -2.59067,-1.23534c-0.68941,-0.46129 -1.24533,-1.03725 -2.088,-1.34933c-0.84061,-0.31133 -1.93725,-0.48439 -2.56667,-0.73866c-0.69982,-0.2827 -1.42227,-0.63887 -2.148,-1.032c-1.07053,-0.57991 -1.72204,-0.99117 -2.341,-1.37651c-0.85644,-0.53319 -1.83969,-1.17238 -2.54167,-1.47916c-0.6689,-0.29231 -1.68423,-0.444 -2.47917,-0.54167c-1.19019,-0.14624 -1.85008,-0.43456 -2.621,-1.09984c-0.5367,-0.46315 -1.3898,-0.78796 -2.30433,-0.95284c-0.80031,-0.14429 -1.59812,-0.46272 -2.5955,-0.94733c-0.61062,-0.29669 -1.26029,-0.63258 -2.33333,-1c-0.96239,-0.32953 -1.66667,-0.5 -2.36133,-0.7l-0.972,-0.3l-0.8145,-0.3l-0.85267,-0.39999" id="svg_5" stroke-width="2" stroke="#000" fill="none"/>
  <path t="21414,21587,21587,21587,21611,21611,21611,21611,21643,21643,21643,21643,21667,21667,21667,21667,21667,21667,21691,21691,21691,21691,21691,21691,21715,21715,21715,21739,21739,21739,21819,21819,21867,21867,22123,22155,22155,22182,22182,22182,22182" d="m200,269.5c2.11333,2.68668 2.49197,3.53287 2.63834,4.16165c0.31302,1.34479 0.3145,2.09058 0.34084,2.83835c0.02632,0.74707 0.03101,1.83344 0.01633,2.85184c-0.00964,0.66913 -0.02744,1.36075 -0.16217,2.48151c-0.10112,0.84113 -0.27513,1.75031 -0.375,2.22916c-0.20979,1.00586 -0.3278,1.53018 -0.7795,3.15833c-0.15559,0.56085 -0.49373,1.67245 -0.658,2.21667c-0.15971,0.52911 -0.4933,1.51236 -0.778,2.77667c-0.213,0.94592 -0.25479,1.73209 -0.46416,2.70715c-0.17413,0.811 -0.47499,1.61624 -0.65717,2.65701c-0.11731,0.6702 0.03386,1.77875 -0.1575,2.51099c-0.22615,0.86539 -1.22029,1.48154 -1.93468,1.15335c-0.90579,-0.41611 -1.26933,-1.06134 -1.74266,-1.61069l-0.43333,-0.62131" id="svg_6" stroke-width="2" stroke="#000" fill="none"/>
  <path t="23101,23228,23252,23252,23277,23309,23309,23335,23335,23357,23379,23379,23403,23404,23459,23459,23483,23483,23507,23507,23538,23555,23555,23555,23611,23611,23611,23683,23683,23683,23915,23939,23971,23971,23995,23995,24019,24171" d="m216,269.5c1.991,0.76166 2.00914,1.65274 2,2.51599c-0.01042,0.98416 -0.23468,1.79993 -0.57466,2.65866c-0.31633,0.79901 -0.29987,1.63977 -0.4825,2.58252c-0.18042,0.93137 -0.64229,1.64987 -1.04285,2.44266c-0.39503,0.78186 -0.89999,1.63351 -1.39999,2.30017c-0.5,0.66666 -1.04396,1.47534 -1.33333,2.33334c-0.24927,0.73907 -0.71738,1.52505 -1.0455,2.48831c-0.23663,0.69467 -0.22951,1.39169 -0.69051,2.36234c-0.4001,0.84241 -0.80269,1.35135 -1.409,2.39435c-0.38806,0.66757 -0.67577,1.45459 -1.02167,2.40082c-0.30594,0.83688 -1.09337,1.45868 -1.88533,1.5195c-0.93724,0.07196 -1.63068,0.00134 -2.70401,0.00134l-0.88983,-0.02084" id="svg_7" stroke-width="2" stroke="#000" fill="none"/>
  <path t="25476,25659,25683,25683,25683,25707,25707,25763,25763,25787,25811,25811,25859,25859,25859,25891,25915,25939,25997,25997,26036,26068,26069,26069,26074,26074,26101,26115,26115,26139,26139,26171,26171,26171,26195,26195,26220,26243,26243,26267,26299,26299,26347,26347,26371,26371,26395,26395,26427,26427,26453,26454,26454,26454,26499,26499,26523,26523,26579,26579,26608,26627,26659,26659,26683,26683,26683,26707,26707,26731,26731,26755,26755,26779,26835,26835,26860,26860,26883,26884,26884,26907,26907,26939,26939,26963,26963,26987,26987,26987,27011,27011,27011,27035,27035,27067,27067,27091,27091,27115,27139,27139,27163,27163,27195,27195,27220,27220,27243,27267,27267,27267,27291,27291,27323,27323,27323,27475,27475,27499,27499" d="m211,290.5c0.81883,-0.88116 1.77649,-0.44412 2.5,0.02084c0.5007,0.32178 1.38019,0.93124 2.07866,1.56848c0.6436,0.58719 1.33377,1.11929 1.90051,1.93152c0.51202,0.73383 0.44301,1.51648 0.6875,2.47916c0.20531,0.80835 0.6537,1.5018 1.22266,2.36401c0.54381,0.8241 0.61067,1.73599 0.61067,2.63599c0,0.79999 0.00636,1.67203 -0.00017,2.54266c-0.00531,0.70807 0.0769,1.75131 -0.35699,2.64301c-0.33075,0.67972 -1.18802,1.30322 -1.74284,2.13565c-0.4369,0.65552 -0.89999,1.51202 -1.39999,2.17868c-0.5,0.66666 -0.84172,1.3782 -1.38533,2.01599c-0.68349,0.80191 -1.34576,1.24084 -2.06401,1.87335c-0.70789,0.62338 -1.44456,0.56454 -2.41466,1.03598c-0.7776,0.3779 -1.53746,0.61786 -2.472,1.01068c-0.57959,0.24362 -1.54918,0.79236 -2.328,1.12799c-0.80197,0.34561 -1.72,0.43533 -2.50217,0.436c-0.85266,0.00073 -1.97633,0 -2.63466,0c-1.01251,0 -1.64584,0 -2.83217,0c-0.74834,0 -1.703,0 -2.46834,0c-0.99417,0 -1.99269,0.35852 -2.85699,-0.02084c-0.74916,-0.32883 -0.97589,-1.4162 -1.51367,-1.8645c-0.76505,-0.63776 -1.5327,-1.10806 -2.02266,-1.46198c-1.04488,-0.75476 -1.62317,-1.25034 -2.10535,-1.974c-0.43681,-0.65558 -1.05861,-1.61667 -1.46399,-2.26801c-0.48523,-0.77963 -0.66435,-1.72916 -0.936,-2.41068c-0.38858,-0.97485 -0.48096,-1.66147 -0.50133,-2.76935c-0.01382,-0.75162 -0.0257,-1.56137 -0.28267,-2.54532c-0.17656,-0.67606 -0.60072,-1.67853 -0.68001,-2.47467c-0.10353,-1.03949 -0.04236,-1.87204 -0.03583,-2.75351c0.00531,-0.71854 -0.04433,-1.53156 0.28517,-2.77182c0.18102,-0.68134 0.5023,-1.29095 1.01466,-2.28082c0.38965,-0.75278 0.92625,-1.50073 1.39999,-2.15717c0.63156,-0.87509 0.95099,-1.59192 1.24733,-2.49017c0.28195,-0.85464 0.70863,-1.51062 1.47401,-2.15717c0.5191,-0.43851 1.57619,-0.91821 2.32799,-1.164c0.90874,-0.29709 1.70883,-0.42557 2.67201,-0.436c0.91194,-0.00986 1.584,0 2.57332,0c1.03734,0 1.81067,0 2.77467,0c0.7515,0 1.548,0 2.54533,-0.00134l0.87466,-0.03467l1.0105,-0.18533l0.77934,-0.27866" id="svg_8" stroke-width="2" stroke="#000" fill="none"/>
  <path t="28294,28419,28419,28443,28475,28475,28499,28547,28547,28547,28571,28603,28603,28603,28627,28627,28627,28627,28651,28651,28651,28699,28731" d="m238,270.5c0.42534,1.82535 0.83577,2.49155 0.97917,3.5c0.13855,0.97443 -0.07045,1.67892 0.02533,2.74734c0.08334,0.92978 0.39471,1.59875 0.79683,2.26865c0.54016,0.89987 1.04475,1.81525 1.1505,2.49835c0.12459,0.80478 0.35237,1.99799 0.61751,2.58432c0.40768,0.90161 0.80176,1.43277 1.409,2.47968c0.38742,0.66794 0.735,1.435 0.98567,2.28568l0.036,0.93597" id="svg_9" stroke-width="2" stroke="#000" fill="none"/>
  <path t="29340,29491,29523,29523,29523,29523,29523,29523,29547,29547,29547,29547,29571,29571,29571,29619,29619,29619,29651,29651,29675,29675,29704,29747,29747,29803,29803,29827,29875,29875,29907,29907,29931,29931,29955,29955,29979,29979,30004,30004,30035,30035,30059,30059,30059,30083,30107,30107,30131,30163,30187,30187,30211,30238,30291,30315,30315,30339,30363,30363,30363,30387,30387,30419,30443,30467,30492,30492,30492,30515,30515,30515,30571,30571,30643,30643,30747,30747,30771,30803,30803,30875,30903,30955,30955,30979,30979,31003,31003" d="m247,288.5c1.78,0 2.83333,0 3.62399,0c0.45284,0 1.43851,0 2.48418,0c0.52783,0 2.04852,-0.00348 2.51849,0.00266c0.88011,0.01151 1.71452,-0.07053 3.03999,0.33069c0.58282,0.17642 1.28275,0.67456 2.16669,1.5c0.55966,0.52258 1.12308,0.9921 1.93332,1.36667c0.93286,0.43127 1.78952,0.75977 2.27701,1.5c0.4465,0.67795 0.99615,1.44467 1.34567,2.12534c0.50311,0.97983 0.60532,1.76392 0.61066,2.6955c0.00552,0.96313 0.12848,1.66263 -0.009,2.7265c-0.0842,0.65143 -0.68857,1.41687 -1.34283,2.09998c-0.6153,0.6424 -1.27307,1.25327 -1.74817,1.974c-0.43356,0.65775 -0.93896,1.71683 -1.53598,2.26801c-0.62808,0.57986 -1.38348,0.91336 -2.36401,1.41068c-0.59467,0.30161 -1.35281,0.68521 -2.24283,1.2955c-0.76596,0.52524 -1.55716,0.70383 -2.45717,0.7045c-0.82083,0.00061 -1.784,0 -2.64734,0c-0.89549,0 -1.85266,0 -2.75267,0c-0.89999,0 -1.75037,-0.0141 -2.42082,-0.54166c-0.7063,-0.55576 -1.30473,-1.28345 -1.82651,-1.80566c-0.76634,-0.767 -1.1395,-1.43787 -1.65266,-2.13184c-0.48712,-0.65872 -1.45351,-0.92609 -2,-1.6875c-0.45789,-0.63797 -0.84622,-1.46567 -1.48534,-2.23203c-0.5058,-0.60651 -1.10466,-1.13132 -1.912,-1.71732c-0.72081,-0.52319 -1.4597,-1.18542 -1.58133,-2.05865c-0.1299,-0.93259 -0.02133,-1.70935 -0.02133,-2.6507c0,-1.008 -0.16731,-1.78339 0.02083,-2.67465c0.17888,-0.84741 0.70781,-1.68341 1.1485,-2.29999c0.53667,-0.75085 1.34801,-1.08536 2.0735,-1.84818l0.45267,-0.642" id="svg_10" stroke-width="2" stroke="#000" fill="none"/>
  <path t="31903,31979,31979,31979,32003,32003,32003,32027,32027,32027,32051,32051,32083,32083,32179,32307" d="m247,270.5c1.3045,1.0715 1.62105,1.83875 1.88533,2.40399c0.56572,1.20996 0.95679,1.7706 1.40483,2.63885c0.40152,0.77808 0.61638,1.72736 0.79251,2.55582c0.17162,0.80725 0.528,1.56534 1.11732,2.51599l0.5,0.58084l0.68933,0.7045l0.48917,0.69949" id="svg_11" stroke-width="2" stroke="#000" fill="none"/>
  <path t="33643,33899,33899,33923,33923,33923,33923,33947,33947,33947,33976,33976,33976,33976,33995,33995,33995,34027,34027,34027,34027,34051,34051,34051,34051,34075,34075,34099,34099,34123,34123,34155,34179,34179,34203,34203,34227,34227,34251,34251,34283,34283,34306,34307,34307,34331,34331,34331,34354,34355,34355,34438,34438,34461,34461" d="m323,205.5c1.85733,0 2.51883,0 3.64282,0c0.66702,0 1.74252,0 2.47452,0c1.06116,0 2.04666,0 2.672,0c1.21066,0 2.11066,0 2.71066,0c0.89999,0 2.10132,0 2.71066,0c0.9465,0 1.95599,0 2.67334,0c0.74133,0 1.86334,0 2.94934,0c0.67999,0 1.625,0 2.20499,0c1.27499,0 2.11499,0 3.07767,0c0.76801,0 1.70935,0 2.39999,0c0.98401,0 1.96933,0.00006 2.69467,0c0.98917,-0.00009 1.98709,0.07567 2.76801,-0.22133c0.82578,-0.31406 1.67715,-0.74612 2.42584,-0.77417c0.99478,-0.03726 1.7955,-0.0045 2.79565,-0.0045c0.82068,0 1.48517,0 2.48517,0c0.83551,0 1.716,0 2.91333,0c0.59067,0 1.44418,0 2.47968,0l0.88,0l1.02014,0l0.82019,0" id="svg_12" stroke-width="2" stroke="#000" fill="none"/>
  <path t="37093,37171,37171,37171,37171,37171,37171,37171,37171,37171,37219,37219,37219,37219,37219,37219,37219,37219,37219,37251,37251,37251,37251,37251,37251,37251,37251,37251,37275,37277,37277,37277,37277,37277,37277,37277,37277,37324,37324,37324,37324,37324,37324,37325,37325,37325,37347,37348,37348,37348,37348,37348,37348,37379,37379,37379,37379,37379,37379,37379,37379,37380,37403,37403,37403,37403,37403,37403,37403,37475,37475,37507,37507,37507,37530,37531,37531,37531,37602,37731,37731,37731,37731,37763,37763,37763,37763,37763,37763,37764,37764,37764,37787,37787,37787,37787,37787,37787,37788,37788,37788,37811,37811,37811,37811,37811,37812,37812,37812,37812" d="m377,212.5c-36.5,-8.5 -39.34805,-9.22559 -41.98532,-9.936c-2.43991,-0.65726 -4.67868,-1.28726 -6.72302,-1.8765c-1.8569,-0.53522 -3.52466,-1.03326 -5.013,-1.4715c-2.44421,-0.7197 -3.41165,-0.98985 -4.22131,-1.20667c-0.66245,-0.1774 -1.19382,-0.30832 -1.599,-0.42601c-0.2984,-0.08667 -0.5394,-0.12938 -0.60901,-0.246c-0.08783,-0.14719 0.05203,-0.2883 0.18799,-0.40799c0.17551,-0.15454 0.42343,-0.30986 0.73352,-0.47101c0.36536,-0.18987 0.80396,-0.38118 1.31848,-0.56099c1.23282,-0.43083 1.97998,-0.60468 2.78668,-0.79468c0.85693,-0.20184 1.75751,-0.38747 2.68649,-0.56099c0.94171,-0.1759 1.88626,-0.33682 2.8215,-0.47101c1.78015,-0.25542 2.60681,-0.33351 3.38,-0.39999c0.7182,-0.06177 1.38113,-0.10254 1.98599,-0.129c0.54453,-0.02382 1.02731,-0.03496 1.44601,-0.039c0.6373,-0.00615 0.85263,-0.01315 0.99332,0.00267c0.06628,0.00746 0.05374,0.04164 -0.04349,0.07799c-0.44205,0.16528 -1.81299,0.58189 -2.45984,0.802c-0.73187,0.24904 -1.53003,0.52718 -2.38202,0.81601c-0.88669,0.30058 -1.79288,0.60295 -2.70599,0.888c-0.89761,0.28021 -2.59549,0.75504 -3.36832,0.92482c-0.71017,0.15602 -1.36774,0.2682 -1.97101,0.35251c-0.54953,0.0768 -1.51419,0.09866 -2.59201,0.3c-0.73099,0.13655 -0.72595,0.77292 -0.0625,0.8125c0.88513,0.05281 1.91684,0.02083 2.6395,0.02083c1.05902,0 1.71451,-0.17296 2.87585,0c0.56573,0.08426 1.31738,0.44952 2.04715,0.61067c0.46402,0.10246 2.33292,0.39282 3.12769,0.48982c0.87985,0.10738 1.84283,0.21136 2.883,0.33151c1.11453,0.12874 2.29947,0.26997 3.54898,0.4395c1.31323,0.17818 4.10861,0.61972 5.58051,0.89282c1.5162,0.28133 3.06213,0.59743 4.63052,0.933c1.58463,0.33905 3.17255,0.69629 4.7565,1.05901c1.57202,0.35997 4.63953,1.0769 6.11816,1.42183c1.43069,0.33374 2.80566,0.65419 4.116,0.96451c1.23898,0.29343 2.39734,0.57466 3.46799,0.8385l0.97467,0.24683" id="svg_13" stroke-width="20" stroke="#fff" fill="none"/>
  <path t="40316,40443,40444,40475,40475,40475,40475,40499,40499,40499,40499,40523,40523,40523,40523,40547,40547,40571,40571,40603,40603,40629,40730,40906,40907,40930,40930,40955,40955,40955,40987,40987,41015,41035,41035,41083,41115,41139,41139,41163,41211,41211,41267,41267,41290,41291,41291,41314,41315,41315,41339,41339,41395,41395,41419,41443" d="m302,204.5c1.85733,-0.97467 2.52283,-1.02783 3.64301,-1.22133c0.67407,-0.11644 1.39621,-0.29204 2.16599,-0.42601c1.18759,-0.20668 1.9895,-0.27126 2.78033,-0.32733c1.15323,-0.08179 2.24744,-0.17374 2.92401,-0.30933c0.95047,-0.19048 1.51431,-0.41814 2.565,-0.5945c0.87354,-0.14664 1.91299,-0.028 2.67432,-0.17867c0.92926,-0.1839 1.56244,-0.72328 2.61136,-0.90685c0.82559,-0.14449 1.80399,-0.19925 2.46133,-0.46133c1.0101,-0.40274 1.69543,-0.55675 2.71732,-0.57483c0.70798,-0.01253 1.73257,0.03745 2.64301,-0.35249c0.65399,-0.28011 1.5715,-0.64508 2.46701,-0.64734c0.69464,-0.00174 1.72226,0.13811 2.64731,-0.0045c0.93143,-0.14359 1.46844,-0.84 2.336,-0.98483c1.00735,-0.16818 1.78821,0.00548 2.76401,-0.29601c0.61584,-0.19028 1.58615,-0.74492 2.41068,-1.10399c0.63666,-0.27725 1.60956,-0.49908 2.41467,-0.58534c0.82098,-0.08795 1.86133,-0.22157 2.733,-0.52533c0.88419,-0.30814 1.63098,-0.48933 2.54166,-0.5l0.91068,-0.01067" id="svg_14" stroke-width="2" stroke="#000" fill="none"/>
  <path t="42340,42674,42675,42698,42698,42722,42723,42723,42746,42747,42747,42770,42771,42802,42803,42803,42803,42827,42827,42850,42851,42874,42899,42899,42931,43002,43003,43027,43083,43083,43154,43155,43187,43187,43210,43259,43283,43283,43338,43339,43362,43362,43387,43387,43414,43414,43443,43467,43491,43491,43515,43539,43571,43594,43595,43595,43642,43643,43667,43699,43699,43722,43723,43747,43747,43794,43827,43852,43875,43875,43902,43902,43923,43924,43954,43955,43980,44002,44003,44030,44030,44050,44051,44051,44082,44083,44106,44130,44164,44164,44178,44179,44179,44210,44211,44234,44235,44258,44259,44290,44290,44306,44307,44338,44362,44386,44419,44434,44467,44467,44514,44515,44542,44542,44562,44562,44563,44594,44595,44595,44595,44595,44618,44618,44619,44619,44619,44647,44647,44666,44666,44690,44690,44691,44722,44722,44723,44746,44746,44747,44747,44770,44770,44770,44771,44796,44796,44796,44796,44797,44818,44818,44819,44819,44819,44819,44850,44850,44850,44874,44874,44874,44900,44900,44900,44946,44946,44978,45002,45130,45130,45263,45290,45290,45306,45306,45306,45307,45307,45330,45330,45331,45331,45354,45354,45354,45355,45386,45386,45386,45419,45420,45420,45420,45434,45434,45435,45435,45458,45458,45458,45485,45485,45485,45485,45514,45515,45546,45546,45546,45546,45569,45569,45569,45569,45587,45587,45587,45587,45610,45610,45610,45611,45611,45642,45643,45643,45643,45668,45668,45668,45668,45669,45699,45699,45699,45714,45715,45715,45715,45715,45738,45739,45739,45770,45771,45771,45771,45794,45795,45795,45795,45818,45819,45842,45842,45843,45843,45866,45867,45867,45898,45899,45899,45899,45899,45932,45932,45933,45933,45948,45948,45948,45970,45971,45971,45971,45994,45995,45995,46026,46026,46027,46051,46051,46051,46074,46074,46075,46098,46098,46122,46123,46154,46154,46184,46184,46185,46185,46202,46203,46203,46226,46226,46250,46251,46251,46282,46283,46283,46310,46310,46310,46333,46333,46333,46333,46355,46355,46355,46378,46378,46379,46410,46410,46434,46435,46435,46458,46458,46459,46488,46506,46507,46538,46539,46666,46690" d="m307,213.5c0.10016,-0.2215 0.72668,-0.75272 1.48532,-1.19867c0.70013,-0.41156 1.71362,-0.68863 2.53552,-0.80133c0.66357,-0.09099 1.66315,-0.284 2.47916,-0.5c0.81601,-0.216 1.81821,-0.40855 2.76132,-0.52533c1.07309,-0.13287 1.70645,-0.25362 2.71783,-0.47467c0.65909,-0.14406 1.75186,-0.42085 2.47919,-0.47917c1.02261,-0.082 1.77036,0.08783 2.78448,-0.37349c0.81635,-0.37135 1.66815,-0.28236 2.39999,-0.7045c0.81113,-0.46788 1.24701,-0.87552 2.18253,-0.95351c1.01648,-0.08473 1.64557,-0.5538 2.49597,-1.08917c0.65796,-0.41423 1.54407,-0.63292 2.37418,-0.95284c0.74368,-0.28661 1.5051,-0.856 2.40466,-0.94749c0.78574,-0.07993 1.72009,-0.47064 2.50116,-0.71584c0.78555,-0.24658 1.61938,-0.22369 2.59851,-0.50549c0.80228,-0.2309 1.58524,-0.84978 2.3895,-1.3425c0.77081,-0.47224 1.76074,-0.30432 2.51068,-0.65733c0.77551,-0.36504 1.51761,-0.77055 2.29999,-1.20401c0.82129,-0.45503 1.76666,-0.57466 2.436,-0.57466c0.76532,0 1.75949,0 2.67868,0c0.98532,0 1.80682,0 2.69598,0c0.98917,0 1.76849,0 2.76782,0c0.82019,0 1.72153,0 2.62152,0c0.92084,0 1.7215,0 2.61066,0c0.98935,0 1.78934,0 2.78934,0c0.78934,0 1.83334,0 2.58932,0c0.93152,0 1.73218,0 2.62134,0c0.98935,0 1.78934,0 2.78934,0c0.79999,0 1.60001,0 2.59549,0c0.74734,0 1.76852,0 2.70901,0c0.86215,0 1.71634,0 2.6955,0c0.79999,0 1.60001,0 2.60001,0c0.79999,0 1.79868,0 2.564,0c0.95334,0 1.80533,0 2.84134,0c0.74399,0 1.66132,0 2.57333,0c0.92133,0 1.82132,0 2.72131,0c0.90002,0 1.84891,-0.16998 2.70001,0.16667c0.70264,0.27792 1.49911,0.67496 2.34732,0.886c0.92343,0.22975 1.52301,0.84816 2.142,1.43266c0.58148,0.54909 1.05728,0.96881 2.37485,1.71483c0.38123,0.21585 1.22534,0.60469 2.09583,1.03583c0.44064,0.21825 1.72449,0.90535 2.46667,1.44667c0.69754,0.50877 1.2858,1.04993 1.79999,1.548c0.81332,0.78784 1.35349,1.40549 2.25867,1.68666c0.70621,0.21938 1.73108,0.50294 2.31467,0.944c0.61829,0.46727 1.38943,1.13466 2.22086,1.63867c0.65628,0.39784 1.66241,0.98965 2.22583,1.32533c0.59647,0.35536 1.22253,0.7319 2.27484,1.15334c1.09796,0.43971 1.50208,0.51292 2.28299,0.774c1.19986,0.40114 2.00284,0.72078 2.80615,1.09399c0.83179,0.38643 1.25247,0.60408 2.556,1.32001c0.45645,0.25069 1.37744,0.78078 1.83734,1.04799c0.89951,0.52261 1.73654,1.0244 2.83151,1.64233c0.59045,0.33322 1.32965,0.72734 2.36465,1.24301c0.60886,0.30334 1.25073,0.6154 2.22101,1c0.7886,0.31259 1.60748,0.52664 2.60815,1.09866c0.69186,0.39551 1.47794,0.69301 2.38135,0.812c0.9267,0.12206 1.65021,0.35931 2.56732,0.868c0.49973,0.27718 -0.27121,0.76176 -1.31134,1.12134c-0.63132,0.21825 -1.33765,0.40384 -2.08798,0.60001c-0.7803,0.20399 -1.97745,0.50418 -2.77417,0.6955c-0.78265,0.18794 -1.54172,0.3828 -2.63785,0.53783c-1.0054,0.1422 -1.64566,0.15457 -2.56534,0.16534c-1.20123,0.01407 -1.80408,-0.02591 -2.70132,0.05849c-1.20602,0.11343 -1.80237,0.30466 -2.73599,0.5175c-0.64792,0.14771 -1.68405,0.3208 -2.41666,0.36818c-1.12064,0.07248 -1.86334,0.05649 -2.92584,0.05716c-0.9855,0.00061 -1.61084,0 -2.8215,0c-0.59866,0 -1.47916,0 -2.31467,0c-1.00134,0 -1.91068,0 -2.85199,0c-0.79501,0 -1.68002,0 -2.32001,0c-1.39868,0 -2.14932,0 -2.92401,0c-0.79065,0 -1.98932,0 -2.78934,0c-0.79999,0 -1.59998,0 -2.79999,0c-0.79999,0 -1.60001,0 -2.39999,0c-0.80002,0 -2,0 -2.80002,0c-0.79999,0 -1.59998,0 -2.79999,0c-0.79868,0 -1.58932,0 -2.36401,0c-0.75064,0 -1.81467,0 -2.81064,0c-0.6507,0 -1.992,0 -2.70935,0c-0.74133,0 -1.49066,0 -2.23199,0c-1.39999,0 -2.05865,0 -3.03668,0c-1.01398,0 -1.73132,0 -2.47266,0c-0.74933,0 -2.20801,0 -2.888,0c-0.94501,0 -1.52499,0 -2.80267,0c-0.68399,0 -1.85065,0 -2.64114,0c-0.56369,0 -1.44418,0 -2.64551,0c-0.61868,0 -1.61166,0 -2.73068,0c-0.83466,0 -1.71732,0 -2.16666,0c-0.89465,0 -2.16666,0 -2.92932,0c-1.02902,0 -1.66168,0.00429 -2.87067,-0.00017c-0.60001,-0.00221 -1.50665,0.01508 -2.70001,-0.1665c-0.60312,-0.09177 -1.47342,-0.35684 -2.31467,-0.54933c-0.99664,-0.22804 -1.70871,-0.26398 -2.45468,-0.368c-1.20355,-0.16782 -1.8801,-0.34717 -2.57999,-0.49066c-1.31512,-0.26964 -2.13986,-0.38734 -2.86533,-0.41467c-0.95139,-0.03583 -1.73352,-0.01067 -2.77551,-0.01067c-0.867,0 -1.75864,0.02971 -2.66699,-0.0045c-0.74866,-0.0282 -1.73529,-0.30635 -2.57883,-0.57016c-0.92191,-0.28831 -1.72147,-0.36931 -2.57468,-0.45067c-0.59088,-0.05635 -1.78937,-0.2532 -2.66849,-0.47467c-0.83682,-0.21082 -1.83713,-0.40402 -2.5,-0.5c-1.02368,-0.14822 -1.82166,-0.45641 -2.478,-0.64734c-0.95224,-0.27702 -1.7811,-0.30539 -2.64734,-0.40533c-1.19937,-0.13837 -1.79233,-0.31331 -2.6955,-0.52199c-1.19608,-0.27635 -1.79889,-0.3391 -2.67917,-0.42534c-0.83572,-0.08188 -1.84247,-0.27287 -2.54169,-0.52083c-0.75336,-0.26715 -1.94376,-0.6853 -2.61917,-0.8685c-0.67133,-0.1821 -1.86099,-0.43831 -2.67331,-0.58534c-1.02133,-0.18486 -1.69254,-0.3923 -2.47202,-0.59999c-1.04306,-0.27792 -1.75174,-0.39276 -2.55301,-0.42084c-1.03568,-0.0363 -1.99179,0.0871 -2.8363,-0.0405c-0.96124,-0.14523 -1.52084,-0.61134 -2.42535,-0.95334l-0.94165,-0.01067" id="svg_15" stroke-width="2" stroke="#000" fill="none"/>
 </g>
 <g display="none">
  <title>muse_image</title>
  <image xlink:href="http://farm2.static.flickr.com/1072/860435251_f230e4646c.jpg" id="muse" height="426" width="640" y="27" x="0"/>
 </g>
 <g display="none">
  <title>bbox</title>
  <rect stroke="#f00" fill="none" stroke-width="3" height="207.24324" width="638.72" y="106.31532" x="1.28" id="bbox"/>
 </g>
</svg>
