<svg width="640" height="480" xmlns="http://www.w3.org/2000/svg" xmlns:svg="http://www.w3.org/2000/svg" xmlns:xlink="http://www.w3.org/1999/xlink">
 <!-- Sketchy ANNOTATION
  ImageNet ID: n02691156_12022
  URL: http://farm3.static.flickr.com/2316/2332596185_4fccef9984.jpg
  Image Width: 500
  Image Height: 333
  BBox X: 2
  BBox Y: 79
  BBox Width: 497
  BBox Height: 142
  Exposure: 2000ms
  Synset Label: airplane
  Synset ID: n02691156
  Worker Tag: Plane
  Sanity Check: 
   Context
   Saved
   Shading
  Comment: 
   {}
  Worker ID: AIH9VLD92GHFH
  Assignment ID: 3B3WTRP3DB2U4PLF7FQ61X6U31S92I
  HIT ID: 3NQUW096N68YIR9TRJ39R9AI9CC9LC
  Work Time: 112s
  Worker Score: 0.8571
 END ANNOTATION -->
 <g display="inline">
  <title>Layer 1</title>
  <path t="6477,6642,6642,6642,6642,6658,6658,6658,6658,6675,6676,6676,6676,6676,6692,6692,6692,6693,6693,6693,6708,6709,6709,6709,6709,6709,6709,6725,6725,6725,6725,6726,6726,6742,6742,6742,6742,6743,6759,6759,6759,6759,6759,6775,6776,6776,6776,6776,6792,6792,6792,6793,6793,6808,6809,6809,6809,6809,6825,6825,6825,6825,6825,6825,6841,6842,6842,6842,6842,6842,6858,6858,6858,6858,6858,6859,6875,6876,6876,6876,6876,6892,6892,6892,6893,6893,6893,6908,6909,6909,6909,6909,6925,6925,6925,6925,6925,6942,6942,6943,6943,6943,6958,6959,6959,6959,6959,6975,6975,6976,6976,6976,6992,6993,6993,6993,6993,7008,7008,7008,7009,7025,7025,7025,7025,7026,7026,7042,7043,7043,7043,7043,7058,7059,7059,7059,7059,7059,7059,7075,7075,7076,7076,7076,7092,7092,7092,7092,7092,7108,7109,7109,7109,7110,7125,7125,7126,7126,7142,7142,7143,7143,7143,7158,7159,7159,7159,7175,7176,7176,7176,7176,7199,7199,7199,7199,7200,7200,7211,7211,7212,7212,7212,7225,7226,7226,7226,7226,7242,7243,7243,7243,7243,7258,7258,7259,7259,7275,7276,7276,7276,7292,7292,7293,7309,7309,7310,7310,7325,7325,7325,7342,7343,7343,7344,7344,7358,7358,7359,7359,7375,7375,7375,7392,7393,7393,7393,7393,7408,7408,7408,7409,7425,7425,7425,7425,7442,7443,7443,7458,7458,7459,7459,7475,7475,7492,7493,7493,7493,7508,7508,7509,7509,7525,7525,7525,7525,7542,7543,7543,7543,7558,7558,7559,7559,7575,7575,7576,7592,7593,7593,7593,7608,7608,7609,7625,7625,7625,7625,7642,7642,7658,7659,7659,7675,7675,7675,7692,7693,7693,7708,7709,7709,7709,7725,7725,7725,7742,7743,7743,7758,7759,7759,7759,7759,7775,7775,7775,7776,7791,7792,7792,7808,7809,7809,7809,7825,7826,7842,7843,7843,7843,7858,7859,7859,7859,7875,7875,7875,7892,7893,7893,7908,7909,7909,7909,7925,7925,7925,7926,7942,7943,7943,7958,7959,7959,7975,7975,7975,7976,7992,7992,7992,8008,8008,8025,8025,8025,8042,8043,8043,8058,8059,8059,8082,8082,8082,8096,8096,8108,8109,8110,8125,8125,8125,8142,8143,8143,8158,8159,8159,8175,8175,8175,8192,8193,8193,8208,8208,8209,8225,8226,8226,8242,8258,8258,8291,8292,8293,8308,8308,8309,8325,8326,8343,8343,8344,8358,8359,8375,8375,8392,8393,8393,8394,8408,8408,8409,8425,8425,8425,8442,8442,8458,8458,8459,8475,8475,8475,8476,8492,8493,8508,8509,8525,8525,8542,8543,8558,8559,8575,8608,8625,8625,8642,8674,8692,8708,8709,8741,8742,8758,8759,8775,8792,8824,8858,8858,8908,8945,8945,8945,8957,8991,9008,9025,9041,9075,9075,9108,9157,9158,9191,9192,9208,9209,9225,9242,9258,9275,9308,9308,9325,9374,9375,9408,9408,9441,9442,9541,9592,9593,9691,9724,9725,9742,9758,9759,9791,9808,9825,9842,9858,9859,9859,9875,9876,9876,9892,9892,9908,9909,9909,9925,9926,9926,9942,9942,9943,9958,9959,9975,9975,9992,9992,10025,10041,10042,10057,10075,10092,10092,10109,10124,10125,10142,10158,10159,10175,10175,10176,10192,10192,10208,10225,10242,10242,10258,10259,10259,10275,10275,10292,10308,10325,10325,10326,10342,10342,10358,10358,10375,10392,10392,10392,10408,10408,10425,10442,10442,10442,10458,10459,10459,10475,10475,10476,10492,10492,10493,10508,10509,10509,10509,10525,10525,10526,10526,10542,10542,10559,10559,10559,10560,10575,10575,10576,10576,10592,10608,10609,10609,10625,10625,10626,10626,10642,10642,10658,10658,10659,10675,10675,10676,10692,10692,10692,10693,10708,10709,10709,10709,10710,10725,10726,10726,10726,10742,10742,10742,10743,10758,10759,10759,10784,10785,10785,10798,10798,10799,10814,10826,10827,10842,10843,10843,10858,10859,10875,10876,10892,10892,10908,10909,10925,10925,10926,10942,10942,10943,10958,10959,10959,10975,10975,10976,10992,10992,10993,11008,11009,11026,11027,11042,11042,11043,11058,11059,11059,11074,11074,11091,11107,11107,11108,11125,11126,11142,11142,11143,11158,11175,11175,11176,11192,11192,11208,11209,11225,11225,11241,11242,11258,11259,11291,11324,11391,11392,11541,11542,11627,11791,11792,11857,11907,11925,11925,11957,11958,11975,11992,11992,12008,12027,12040,12041,12057,12058,12073,12091,12092,12107,12108,12125,12125,12141,12142,12158,12159,12159,12174,12192,12192,12193,12208,12209,12225,12225,12226,12242,12243,12258,12259,12259,12275,12275,12292,12292,12308,12309,12325,12325,12326,12342,12342,12358,12359,12359,12375,12375,12376,12376,12392,12392,12393,12408,12409,12409,12424,12424,12425,12425,12426,12441,12441,12442,12442,12457,12458,12458,12459,12473,12474,12492,12492,12493,12507,12507,12525,12526,12526,12567,12571,12575,12576,12576,12580,12581,12581,12595,12596,12617,12618,12619,12634,12635,12635,12653,12653,12654,12668,12669,12669,12683,12684,12697,12697,12698,12698,12711,12712,12713,12726,12729,12743,12744,12744,12757,12758,12775,12776,12776,12791,12792,12792,12807,12808,12808,12823,12824,12825,12841,12842,12843,12843,12843,12856,12857,12857,12858,12874,12874,12875,12892,12892,12893,12893,12906,12907,12907,12925,12926,12926,12926,12940,12941,12942,12957,12957,12958,12958,12973,12974,12975,12992,12992,12993,12993,13008,13008,13009,13009,13024,13025,13025,13043,13044,13044,13045,13061,13062,13062,13063,13064,13082,13082,13083,13083,13099,13100,13100,13101,13116,13116,13117,13131,13132,13132,13146,13146,13147,13160,13161,13161,13162,13175,13176,13176,13190,13191,13192,13192,13208,13209,13210,13210,13223,13224,13224,13225,13240,13241,13242,13257,13258,13259,13259,13274,13274,13275,13276,13291,13291,13292,13307,13308,13334,13335,13336,13352,13352,13353,13367,13368,13368,13382,13383,13383,13397,13398,13398,13399,13399,13414,13414,13415,13429,13429,13430,13430,13445,13446,13446,13447,13461,13461,13462,13476,13476,13477,13478,13492,13492,13493,13507,13507,13508,13524,13524,13525,13542,13542,13543,13543,13557,13558,13558,13574,13575,13576,13592,13593,13593,13610,13610,13611,13627,13628,13629,13644,13645,13646,13646,13661,13662,13663,13663,13678,13678,13693,13694,13708,13709,13724,13724,13765,13793,13794,13857,13907,13908,13940,13956,14307,14357,14690,14773,14774,14791,14807,14824,14825,14842,14907,14924,14942,14957,14958,14992,15006,15023,15042,15059,15060,15092,15093,15110,15111,15112,15126,15127,15127,15143,15144,15144,15160,15160,15161,15162,15177,15178,15178,15194,15195,15195,15196,15211,15212,15212,15213,15228,15228,15229,15244,15245,15246,15261,15261,15262,15263,15278,15278,15279,15293,15294,15295,15295,15311,15312,15313,15313,15329,15329,15330,15345,15346,15346,15347,15362,15363,15364,15364,15379,15380,15381,15381,15382,15397,15398,15398,15399,15415,15416,15417,15432,15433,15434,15434,15435,15451,15452,15452,15453,15454,15470,15471,15472,15473,15477,15477,15478,15479,15479,15483,15483,15484,15485,15502,15502,15503,15508,15509,15510,15537,15539,15539,15540,15556,15557,15558,15574,15574,15575,15590,15591,15592,15592,15608,15609,15609,15610,15627,15628,15628,15644,15645,15646,15646,15666,15666,15667,15684,15684,15700,15701,15702,15718,15719,15737,15739,15756,15757,15758,15774,15807,15809,15824,15857,15858,15891,15892,15924,16094,16111,16112,16131,16132,16133,16134,16152,16153,16154,16155,16173,16174,16175,16175,16176,16196,16197,16198,16198,16215,16215,16216,16217,16217,16234,16235,16236,16236,16237,16252,16253,16255,16255,16256,16260,16261,16262,16262,16263,16267,16268,16268,16284,16285,16286,16302,16303,16303,16320,16322,16322,16338,16339,16340,16355,16356,16357,16373,16374,16375,16376,16391,16392,16408,16409,16436,16437,16458,16459,16491,16492,16524,16540,16541,16574,16607,16642,16643,16675,16676,16691,16740,16742,16790,16824,16873,16875,16907,16909,16957,16973,16974,17007,17024,17050,17051,17074,17075,17094,17115,17116,17135,17152,17173,17175,17192,17192,17210,17240,17242,17259,17292,17324,17325,17373,17375,17407,17441,17442,17506,17590,17723,17725,17858,17859,18023,18090,18092,18108,18128,18157,18158,18174,18175,18195,18196,18214,18232,18233,18251,18253,18273,18274,18278,18279,18295,18296,18313,18313,18331,18332,18348,18374,18376,18380,18380,18397,18414,18415,18431,18432,18449,18450,18467,18485,18486,18487,18503,18504,18520,18537,18539,18540,18556,18557,18574,18575,18575,18592,18593,18594,18611,18617,18634,18635,18636,18653,18653,18655,18672,18673,18677,18678,18678,18679,18683,18684,18685,18701,18702,18703,18704,18722,18723,18724,18740,18741,18758,18759,18760,18761,18789,18790,18791,18808,18809,18809,18814,18815,18815,18819,18820,18821,18822,18840,18841,18842,18846,18847,18864,18865,18883,18883,18902,18903,18922,18923,18940,18941,18958,18976,18977,18995,18996,19024,19025,19057,19059,19081,19082,19107,19112,19113,19133,19135,19157,19158,19177,19178,19196,19197,19226" d="m156,182c3.88533,1.82933 4.63512,1.94417 5.41066,1.97867c0.79012,0.03516 1.98933,0.02133 2.78934,0.02133c0.8,0 1.60001,0 2.8,0c0.80133,0 1.61067,0 2.436,0c0.84933,0 1.73067,0 2.65199,0c0.96933,0 1.4745,0 2.53084,0c0.55316,0 2.32384,0 2.94916,0c0.63734,0 1.28267,0 2.58134,0c0.64532,0 1.28267,0 2.51733,0c1.16266,0 1.71899,0 2.79166,0c0.52034,0 1.539,-0.00067 2.54167,0c0.99867,0.00067 1.98944,0.00652 2.47917,0.02083c0.96394,0.02817 2.3558,0.13411 3.23549,0.26317c0.42906,0.06294 1.26271,0.22636 2.08084,0.36334c1.20204,0.20125 2.00552,0.27313 2.81517,0.32733c0.82504,0.05522 1.67705,0.08784 3.01067,0.24666c0.46361,0.05521 1.40373,0.20564 2.35333,0.35333c0.47253,0.07349 1.85738,0.27414 2.74266,0.34001c0.867,0.06451 1.74397,0.07704 2.1925,0.08083c1.42345,0.01204 2.4595,0.0045 3,0.0045c0.5515,0 1.67549,0 2.242,0c1.68149,0 2.22676,-0.00792 3.291,0.009c0.52124,0.00829 1.54802,0.04756 2.05266,0.10533c1.51048,0.17293 2.50467,0.44836 3,0.591c0.98676,0.28415 1.46107,0.47031 2.41917,0.72667c1.35469,0.36247 1.80026,0.4214 2.67065,0.49599c0.87427,0.07492 1.78401,0.07066 2.748,0.07201c1.03467,0.00143 1.57201,0 2.66667,0c0.54933,0 1.632,0 2.66667,0c0.96266,0 1.86133,0 2.71199,0c0.81866,0 2.0215,0 2.82584,0c0.81633,0 1.65266,0 2.08084,0c1.336,0 2.26733,0 3.21466,0c0.47467,0 1.416,0 2.77867,0c0.86867,0 1.72133,0 2.14667,0c0.85866,0 2.196,0 3.12733,0c0.47266,0 1.422,-0.00006 2.36331,0c1.36252,0.00009 1.7988,-0.00703 2.64801,0.01067c0.82556,0.01721 1.63831,0.04568 2.83633,0.21066c0.81161,0.11177 1.63876,0.29482 2.51401,0.42601c1.41534,0.21216 1.92752,0.24254 2.98651,0.2955c0.53891,0.02696 1.61246,0.04877 2.13666,0.05266c1.46246,0.01085 2.31183,0.0045 3.09717,0.0045c0.77731,0 1.60266,0 2.53198,0c1.07068,0 1.6485,0 2.24533,0c1.22269,0 1.8345,0 2.43735,0c1.68634,0 2.68365,0 3.15332,0c0.90134,0 1.77869,0 3.11868,0c0.46268,0 1.40399,0 2.35333,0c0.47266,0 1.85867,0 2.73999,0c0.84933,0 1.67468,0 2.48401,0c1.20132,0 2.00134,0 2.80133,0c0.79999,0 2,0 2.79999,0c0.80002,0 1.60001,0 2.40002,0c1.19998,0 2,0 2.79999,0c0.79999,0 2,0 2.80267,0c0.81866,0 1.66931,0 2.11166,0c1.41901,0 2.45367,0 2.991,0c1.09467,0 1.64401,0 2.72665,0c1.03467,0 1.99734,0 2.89603,0c0.43033,0 1.26297,0 2.47198,0c0.80133,0 1.61066,0 2.436,0c0.84933,0 2.18515,0 3.11215,0c0.46652,0 1.3905,0 2.2825,0c1.2265,0 1.9595,0 2.98401,0c0.668,0 1.70651,0 2.4335,0c1.09048,0 1.7825,0 2.98383,0c0.76801,0 1.53601,0 2.41083,0c1.01852,0 1.74252,0 2.47452,0c1.39865,0 2.05731,0 2.70801,0c1.34131,0 2.06,0 2.81064,0c0.77469,0 1.56534,0 2.76367,0c0.79135,0 1.55869,0 2.62967,0c0.92834,0 1.74133,0 2.59033,0c1.047,0 1.91635,0 2.88168,0c0.49866,0 1.48798,0 2.832,0c0.728,0 1.625,0 2.43198,0c0.8775,0 1.89603,0 2.62003,0c0.73199,0 1.79315,0 2.77866,0c0.62534,0 1.836,0 2.73151,0c0.58365,0 1.41916,0 2.65631,0c0.7095,0 1.78152,0 2.41751,0c1.05151,0 1.7825,0 2.86401,0c0.68265,0 1.66666,0 2.31934,0c1.36865,0 2.09998,0 2.84732,0c0.74734,0 1.83334,0 2.84732,0c0.65268,0 1.63669,0 2.67386,0c0.72699,0 1.45798,0 2.50949,0c0.92667,0 1.71866,0 2.73734,0c0.87482,0 1.89334,0 2.61734,0c0.73199,0 1.79315,0 2.77866,0c0.62534,0 1.836,0 2.73151,0c0.58365,0 1.41916,0 2.65182,0c0.67801,0 1.61932,0 2.40533,0c0.82199,0 1.88068,0 2.82199,0c0.67801,0 1.91068,0 2.46133,0c0.8685,0 2.06418,0 2.97467,0c0.62534,0 1.27466,0 2.672,0c0.73199,0 1.45599,0 2.784,0c0.56534,0 1.58401,0 2.66669,0c0.63733,0 1.33865,0 2.08798,0c0.78134,0 1.97852,0 2.77417,0c0.78366,0 1.91916,0 2.983,0c0.66434,0 1.61084,0 2.8215,0c0.59866,0 1.47916,0 2.31467,0c1.00134,0 1.91068,-0.00267 2.85199,0c0.79501,0.00226 1.68158,0.01881 2.32001,0.08533c1.03796,0.10814 2.13806,0.34312 2.888,0.48933c0.74075,0.14442 1.80237,0.31917 2.46368,0.36818c0.91367,0.06772 1.995,0.05716 2.94699,0.05716c0.72449,0 1.85748,0 2.52451,0c0.711,0 1.44202,-0.00914 2.86865,0.00034c0.66437,0.00441 1.62061,0.02353 2.22018,0.17033c1.22778,0.30063 1.77774,0.70576 2.64417,1.12399c1.02167,0.49316 1.74057,0.66187 2.46698,0.69633c1.13174,0.05371 1.80042,0.00078 2.51102,0.02983c1.09747,0.04486 2.16071,0.18465 2.81299,0.33183c0.88864,0.20052 1.8241,0.54483 2.66617,0.62651c1.03818,0.10069 1.76462,-0.00787 2.55182,0.07799c1.03375,0.11275 1.93735,0.48077 2.63217,0.65884c0.98889,0.25343 1.8367,0.27211 2.71735,0.28267c0.89825,0.01077 1.79971,-0.09468 2.58432,0.11566c1.10156,0.2953 1.40802,1.04642 2.34769,1.55234c0.62607,0.33708 1.45184,0.32266 2.5,0.33333c0.94125,0.00958 1.61938,-0.00978 2.85199,0.00133c0.55072,0.00496 1.42673,0.00786 2.6145,0.22c0.60046,0.10725 1.4548,0.39577 2.53351,0.612c0.70892,0.14211 1.62613,0.18407 2.58817,0.388c0.82138,0.17412 1.67682,0.45862 2.57849,0.612c0.88611,0.15074 1.79666,0.05486 2.66666,0.5c0.7475,0.38246 1.05301,1.23061 1.96933,1.68134c0.79953,0.39328 1.55453,0.63565 2.56418,0.864c0.80917,0.18301 1.49774,0.15112 2.48251,0.408c0.80923,0.21109 1.60315,0.5322 2.3493,1.196c0.67371,0.59938 1.49969,1.32877 2.21869,1.44533c0.73706,0.11949 1.79578,-0.02628 2.63202,0.15733c0.81,0.17783 1.62866,0.64082 2.45062,0.91467c0.96387,0.32112 1.66309,0.49539 2.36133,0.64284c1.25647,0.26532 2.06366,0.23398 2.90271,0.52649c0.84686,0.29523 1.38593,0.87242 2.00262,1.34801c0.97913,0.7551 1.6178,1.10605 2.56671,1.31599c0.77979,0.17253 1.65015,0.14737 2.83331,0.33334c0.60266,0.09473 1.47339,0.35718 2.31464,0.54933c0.99396,0.22704 1.87463,0.27866 2.88519,0.284c0.77936,0.00412 1.84644,-0.21059 2.49567,0.11433c0.75891,0.37982 1.12683,1.44531 1.95715,1.77583c0.82184,0.32713 1.6272,0.72171 2.54736,1.02451c0.76422,0.25148 1.68958,0.00665 2.61462,0.09599c0.86218,0.08327 1.50647,0.7296 2.18536,1.32266c0.63715,0.55658 1.13452,1.4369 1.82532,1.59467c0.98523,0.22499 1.95288,-0.26358 2.73871,0.108c0.74091,0.35033 1.29791,0.91383 2.26929,0.964c0.86292,0.04457 1.58447,0.43922 2.33337,1.16667c0.49072,0.47665 1.15503,1.16182 1.94666,1.664c0.77802,0.49353 0.69855,1.47577 1.17065,2.08533c0.53076,0.68527 1.41101,0.73679 2.14801,1.25333c0.70233,0.49223 0.65625,1.71367 1.08881,2.30984c0.58167,0.80168 1.20544,1.40265 1.43103,2.16899c0.22931,0.77911 1.30688,0.96194 1.8775,1.63718c0.59991,0.70985 0.71838,1.53362 1.08667,2.284c0.34998,0.7131 0.57776,1.60059 0.9173,2.43066c0.29315,0.71669 -0.01251,1.71034 0.33734,2.51601c0.35938,0.82764 1.49261,1.16135 1.78766,2.00482c0.31836,0.90999 0.04169,1.65384 0.04169,2.722c0,0.85735 0.15143,1.65846 -0.02136,2.57184c-0.16864,0.89151 -1.19318,1.09361 -1.9173,1.61067c-0.65393,0.46695 -1.4115,0.64247 -2.10303,1.07466c-0.77594,0.48495 -1.53137,0.47 -2.3623,0.66933c-0.91064,0.21844 -1.77405,0.6825 -2.32404,0.98001c-1.12805,0.61021 -1.77997,0.79773 -2.81482,1.07216c-0.72479,0.1922 -1.51434,0.46935 -2.53583,0.87834c-0.69977,0.28018 -1.36285,0.59444 -2.34247,0.77899c-0.7868,0.14822 -1.67053,0.04823 -2.6095,0.68916c-0.6806,0.46457 -1.28894,1.19516 -2.14404,1.44667c-0.93811,0.27591 -1.59229,0.83083 -2.4613,0.97467c-0.83673,0.1385 -1.71136,0.01067 -2.72803,0.01067c-0.836,0 -1.73615,0 -2.5213,0c-0.94,0 -1.96979,-0.14769 -2.70404,0.036c-0.88171,0.22058 -1.72729,0.88522 -2.43146,0.94318c-0.97614,0.08034 -1.77917,0.02083 -2.57916,0.02083c-0.99554,0 -1.74286,0 -2.76404,0c-0.94049,0 -1.80267,0 -2.6568,0c-0.97919,0 -1.77917,0 -2.57916,0c-0.99554,0 -1.74286,0 -2.76404,0c-0.94501,0 -1.9693,0 -2.6413,0c-0.74402,0 -1.85187,0 -2.74286,0c-0.90448,0 -1.59918,0 -2.63715,0c-0.948,0 -1.86536,0 -2.60938,0c-1.03467,0 -1.80267,0 -2.67731,0c-0.871,0 -1.86966,0 -2.43701,0c-1.19083,0 -2.08032,0 -2.93384,0c-1.03583,0 -1.73181,0 -2.64114,0c-1.00269,0 -1.85767,0 -2.47766,0c-1.005,0 -2.091,0 -2.83835,0c-0.74734,0 -1.83334,0 -2.83835,0c-0.62,0 -1.47498,0 -2.47897,0c-0.944,0 -2.01602,0 -2.65201,0c-0.69202,0 -1.7825,0 -2.86401,0c-0.67865,0 -1.60416,0 -2.39465,0c-1.12134,0 -2.10535,0 -2.78635,0c-0.80698,0 -1.98566,0 -2.58432,0c-0.88049,0 -1.716,0 -2.71735,0c-0.90933,0 -1.85065,0 -2.63666,0c-0.82199,0 -1.88068,0 -2.83267,0c-0.72449,0 -1.85767,0 -2.52899,0c-0.72733,0 -1.49466,0 -2.68567,0c-0.79999,0 -1.60001,0 -2.39999,0c-0.80002,0 -1.99985,0 -2.7955,0c-0.78366,0 -1.54733,0 -2.983,0c-0.66434,0 -1.61084,-0.00067 -2.22018,0c-1.19998,0.00134 -2.10019,-0.05113 -2.91599,0.17067c-1.03955,0.28264 -1.65524,0.88112 -2.36932,1.26134c-0.71112,0.37863 -1.52896,0.52924 -2.54666,0.56534c-0.95889,0.034 -1.936,0.00266 -2.60535,0.00266c-1.164,0 -1.97189,-0.04935 -2.76401,0.08533c-0.81137,0.13797 -1.52966,0.60806 -2.51733,0.82935c-0.83542,0.18716 -1.888,0.08533 -2.63199,0.08533c-0.91733,0 -1.75067,0 -2.79352,0c-0.71848,0 -1.50897,0 -2.53583,0c-0.92133,0 -1.60532,0 -2.60666,0c-0.83551,0 -1.716,0 -2.91333,0c-0.59067,0 -1.44418,0 -2.48001,0c-0.92133,0 -1.60532,0 -2.604,0c-0.79648,0 -1.98782,-0.06165 -2.81732,0.02084c-0.84186,0.08371 -1.76849,0.41809 -2.32132,0.55383c-1.17194,0.28772 -2.06885,0.38663 -2.90668,0.41464c-0.9382,0.03137 -1.73035,0.01068 -2.69333,0.01068c-0.91202,0 -1.58401,0 -2.57333,0c-1.03735,0 -1.81067,0 -2.77335,0c-0.73199,0 -1.47861,-0.1601 -2.58133,0.02133c-1.01859,0.1676 -1.6506,0.69315 -2.39999,1.12799c-0.91092,0.52856 -1.57669,0.81467 -2.55966,0.85068c-0.66122,0.02423 -1.69635,0 -2.44034,0c-1.10785,0 -1.86533,0 -2.90335,0c-0.69464,0 -1.71133,0 -2.65182,0c-0.86215,0 -1.6955,0 -2.67398,0c-0.82019,0 -1.6575,0 -2.67419,0c-0.69464,0 -1.71133,0 -2.65182,0c-0.86215,0 -1.6955,0 -2.67398,0c-0.82019,0 -1.6575,0 -2.67419,0c-0.69464,0 -1.71133,0 -2.65182,0c-0.86215,0 -1.6955,0 -2.67398,0c-0.82019,0 -1.6575,0 -2.67868,0c-0.74734,0 -1.74283,0 -2.54285,0c-0.99982,0 -1.77914,0 -2.77881,0c-0.83102,0 -1.78918,0 -2.52118,0c-0.73199,0 -1.84933,0 -2.83334,0c-0.672,0 -1.66132,0 -2.52399,0c-0.948,0 -1.91202,0 -2.66351,0c-0.79648,0 -1.79846,-0.06052 -2.66849,0.03601c-1.02127,0.11331 -1.79858,0.50113 -2.41068,0.67999c-0.98425,0.28763 -1.79999,0.28174 -2.79999,0.284c-0.80002,0.0018 -1.80017,0 -2.62085,0c-1.14581,0 -1.92734,0 -2.71783,0c-0.92798,0 -1.76132,0 -2.80447,0c-0.7395,0 -1.62302,0 -2.6235,0c-0.716,0 -1.448,0 -2.5235,0c-0.9765,0 -1.80002,0 -2.75803,0c-0.97348,0 -1.79849,0 -2.3985,0c-1.31998,0 -2.03867,0 -2.78931,0c-0.77469,0 -1.56534,-0.00317 -2.76385,0.00015c-0.79565,0.00223 -1.58093,-0.00461 -2.34299,0.05701c-1.44019,0.11649 -2.09659,0.29111 -2.71552,0.44284c-0.85648,0.20996 -2.08795,0.46222 -2.767,0.48932c-0.94061,0.03754 -1.74542,-0.11514 -2.76483,0.125c-0.90253,0.21262 -1.40402,1.04547 -2.34317,1.55234c-0.62198,0.33569 -1.41583,0.32266 -2.52399,0.33334c-0.7933,0.00763 -1.68567,0 -2.41467,0c-0.83701,0 -2.02765,0 -2.90668,0c-0.80698,0 -1.67883,0 -2.508,0c-1.07733,0 -1.67133,0 -2.63733,0c-1.17599,0 -1.81351,-0.00177 -2.64267,0c-1.04767,0.00226 -1.85709,0.01282 -2.436,0.08533c-1.20297,0.1507 -2.07065,0.43863 -2.91199,0.63068c-0.99527,0.22717 -1.68518,0.27356 -2.85199,0.284c-0.79047,0.00705 -1.35419,0 -2.23468,0c-1.19733,0 -2.07782,0 -2.64151,0c-1.27182,0 -1.93631,0 -2.95715,0c-0.79999,0 -1.60001,0 -2.60449,0c-0.85266,0 -1.81683,0 -2.62085,0c-0.82199,0 -1.85333,0 -2.77466,0c-0.68399,0 -1.68533,0 -2.52084,0c-0.88049,0 -2.08047,0 -2.68982,0c-0.9465,0 -1.95599,0 -2.67468,0c-0.75064,0 -1.52533,0.00006 -2.31598,0c-1.19833,-0.00009 -1.9906,0.01965 -3.12668,-0.03601c-0.70221,-0.03442 -1.90399,-0.24799 -2.672,-0.46399c-0.76801,-0.216 -1.64105,-0.40335 -2.66133,-0.46399c-0.72316,-0.04297 -1.45607,-0.0242 -2.51717,-0.03635c-0.98566,-0.01129 -1.63577,0.02481 -2.8215,-0.33301c-0.61559,-0.18576 -1.47031,-0.68427 -2.04283,-0.96133c-1.02118,-0.4942 -1.97726,-0.68195 -2.7265,-0.70267c-0.87317,-0.02414 -1.8925,-0.00165 -2.616,-0.03867c-0.73271,-0.03748 -1.79637,-0.17041 -2.77867,-0.38931c-0.62753,-0.13986 -1.83369,-0.42743 -2.43733,-0.48935c-0.91695,-0.09406 -1.884,-0.08163 -2.91983,-0.08548c-0.72702,-0.00269 -1.46167,0.02365 -2.50951,-0.08517c-0.93158,-0.09677 -1.70992,-0.37228 -2.47467,-0.56201c-1.12682,-0.27957 -1.80975,-0.29691 -2.53633,-0.3735c-0.76822,-0.08096 -1.965,-0.29086 -2.75833,-0.54715c-0.80739,-0.26083 -1.58995,-0.61151 -2.39999,-0.86401c-1.1868,-0.36993 -1.99452,-0.46716 -2.77917,-0.54715c-0.76282,-0.07776 -1.85728,-0.17059 -2.53549,-0.30484c-0.96959,-0.19193 -1.57132,-0.42007 -2.78517,-0.59451c-0.88451,-0.12711 -1.743,-0.11923 -2.77884,-0.12149c-0.696,-0.0015 -1.60541,0.01077 -2.60799,-0.00134c-0.85516,-0.01031 -1.47887,-0.02481 -2.48001,-0.16531c-1.08673,-0.1525 -1.81081,-0.34177 -2.5235,-0.48068c-1.26434,-0.24646 -2.06636,-0.3002 -2.81517,-0.46249c-0.83817,-0.18167 -1.80307,-0.59897 -2.51549,-0.89017c-0.72955,-0.29822 -1.80513,-0.7014 -2.49384,-0.82933c-0.95673,-0.1777 -1.58081,-0.16617 -2.78551,-0.17067c-0.91049,-0.0034 -1.53583,0.00031 -2.18517,0c-1.39732,-0.00067 -2.13049,0.01216 -2.85333,-0.036c-1.33147,-0.08871 -1.89333,-0.248 -2.66133,-0.464c-0.76801,-0.216 -1.96892,-0.4211 -2.66133,-0.47467c-0.7236,-0.05598 -1.46487,-0.05508 -2.85066,-0.30933c-0.63571,-0.11664 -1.46817,-0.36729 -2.52,-0.63333c-0.7726,-0.1954 -1.73508,-0.65712 -2.24001,-0.93333c-0.83122,-0.45471 -1.71541,-0.87608 -2.62349,-1.035c-0.8604,-0.15059 -1.93819,-0.09584 -2.65184,-0.11884c-0.90639,-0.02919 -1.87448,-0.2162 -2.69934,-0.42084c-0.6001,-0.14886 -1.91864,-0.42084 -2.63733,-0.49066c-0.74016,-0.07191 -1.49297,-0.08525 -2.23199,-0.168c-1.4032,-0.15712 -2.05952,-0.3062 -2.92233,-0.67767c-0.81949,-0.35283 -1.50253,-0.90625 -2.22301,-1.41299c-0.5006,-0.3521 -1.70064,-0.96104 -2.39999,-1.17867c-0.71719,-0.22318 -1.45171,-0.39055 -2.51717,-0.52533c-0.98235,-0.12427 -1.61923,-0.08743 -2.8215,-0.28801c-0.90398,-0.15082 -1.50661,-0.31488 -2.31467,-0.72c-1.0423,-0.52257 -1.6723,-1.13101 -2.138,-1.46066c-0.94365,-0.66798 -1.7704,-1.02231 -2.59467,-1.34816c-0.78389,-0.30989 -1.72525,-0.73378 -2.46249,-0.94734c-0.81187,-0.23518 -1.79655,-0.29912 -2.49017,-0.37799c-0.69586,-0.07912 -1.97911,-0.38255 -2.728,-0.82983c-0.68506,-0.40915 -1.46124,-0.95183 -2.29284,-1.12851c-0.65783,-0.13977 -1.66858,-0.29213 -2.5,-0.54166c-0.8851,-0.26564 -1.77532,-0.59056 -2.6685,-0.8685c-0.85014,-0.26454 -1.89063,-0.48225 -2.596,-0.59601c-0.72575,-0.11705 -1.85986,-0.45143 -2.5245,-0.72c-0.71359,-0.28835 -1.42295,-0.65018 -2.52351,-0.96133c-0.98649,-0.2789 -1.6155,-0.24718 -2.39466,-0.416c-1.14594,-0.24831 -1.72843,-0.6933 -2.77734,-0.86465c-0.7383,-0.12061 -1.84775,-0.28331 -2.47383,-0.55267c-0.99854,-0.42961 -1.69546,-0.49466 -2.63551,-0.5c-0.98548,-0.00558 -1.78662,0.15147 -2.7,-0.02133c-0.89151,-0.16867 -0.98795,-1.07552 -1.538,-1.86884c-0.50674,-0.73085 -1.09393,-1.27405 -1.75716,-1.75717c-0.65916,-0.48015 -1.72424,-0.31702 -2.58567,-0.35266c-0.87074,-0.03604 -1.01054,-1.03938 -1.63783,-1.66667c-0.62727,-0.62727 -1.44689,-1.00081 -2.1875,-1.3125c-0.80103,-0.33711 -1.44144,-0.62544 -2.18449,-0.97266c-0.68719,-0.32111 -1.05887,-1.16278 -1.57867,-1.87885c-0.49586,-0.68309 -1.18665,-1.07098 -2.03717,-1.39082c-0.84746,-0.3187 -1.48975,-0.99074 -1.84683,-1.74918c-0.38049,-0.80815 -0.84863,-1.54893 -1.241,-2.02399c-0.74528,-0.90233 -1.45357,-1.27791 -2.10567,-1.97334c-0.68548,-0.73102 -0.97492,-1.56981 -1.18084,-2.14099c-0.42657,-1.18323 -0.57008,-1.80595 -0.97649,-2.65501c-0.27046,-0.56505 -1.09123,-1.55705 -1.57867,-2.01067c-0.73688,-0.68573 -1.46073,-1.36414 -1.93951,-2.1825c-0.31986,-0.54674 -0.66865,-1.45621 -1.13116,-2.34267c-0.3153,-0.60429 -0.85776,-1.46146 -1.19466,-2.01483c-0.60668,-0.99649 -0.98158,-1.67703 -1.28267,-2.36934c-0.43063,-0.99016 -0.71126,-1.85272 -1.01566,-2.4205c-0.66138,-1.23363 -1.18598,-1.79527 -1.68567,-2.37466c-0.48978,-0.5679 -1.20419,-1.32834 -1.68567,-2.06816c-0.42745,-0.65681 -0.8027,-1.62398 -1.12333,-2.40984c-0.35037,-0.85876 -0.62031,-1.47188 -1.23367,-2.34267c-0.43433,-0.61662 -0.97151,-1.16713 -1.68933,-2.01483c-0.63795,-0.75337 -1.10979,-1.45813 -1.51617,-2.138c-0.57762,-0.96635 -0.92363,-1.498 -1.4265,-2.394c-0.355,-0.63252 -0.80847,-1.67308 -1.07717,-2.40601c-0.27339,-0.74573 -0.49498,-1.52736 -1.0815,-2.58066c-0.39373,-0.70708 -0.92436,-1.33601 -1.416,-1.992c-0.48972,-0.65343 -1.13241,-1.68515 -1.43633,-2.42284c-0.2972,-0.72137 -0.48067,-1.45015 -0.81433,-2.4185c-0.2879,-0.83556 -0.643,-1.60225 -1.33333,-2.66666c-0.42,-0.64758 -0.93573,-1.33023 -1.20834,-1.6875c-0.56131,-0.73564 -1.4562,-1.81436 -1.758,-2.15767c-0.58721,-0.66798 -1.17814,-1.28453 -1.686,-1.91701c-0.70887,-0.88281 -1.21288,-1.80708 -1.51433,-2.42532c-0.30933,-0.6344 -0.81741,-1.65579 -1.26933,-2.36183c-0.47548,-0.74284 -1.00488,-1.46469 -1.548,-2.14801c-0.74609,-0.93867 -1.2271,-1.45808 -1.66183,-1.9485c-0.6218,-0.70146 -1.23446,-1.43222 -1.81017,-2.24615c-0.38398,-0.54288 -1.06135,-1.59833 -1.4535,-2.32201c-0.36276,-0.66943 -0.75765,-1.61916 -1.06167,-2.40984c-0.21667,-0.56352 -0.55243,-1.45851 -1.01683,-2.34267c-0.47541,-0.90511 -0.87017,-1.45398 -1.512,-2.53349c-0.42064,-0.7075 -0.77666,-1.38326 -1.16667,-2.33334c-0.32169,-0.78366 -0.49489,-1.36534 -0.88533,-2.23466c-0.40918,-0.91103 -0.76139,-1.49776 -1.28933,-2.36267c-0.33755,-0.55299 -0.96649,-1.54022 -1.3045,-2.25682c-0.34719,-0.73607 -0.73064,-1.94553 -0.91017,-2.6405c-0.18627,-0.7211 -0.34848,-1.45267 -0.4895,-2.51684c-0.12748,-0.96195 -0.08298,-1.87466 -0.56383,-2.67916c-0.43643,-0.73019 -1.27679,-1.46069 -1.4475,-2.148c-0.18183,-0.73211 -0.28251,-1.87898 -0.7205,-2.60934c-0.44212,-0.73724 -0.82058,-1.46322 -1.556,-2.21867c-0.58424,-0.60014 -1.39637,-0.88713 -1.848,-1.80267c-0.39362,-0.79794 -0.59425,-1.52692 -0.90133,-2.47867c-0.28255,-0.87568 -0.78386,-1.48132 -0.99867,-2.36933c-0.20387,-0.8428 -0.37368,-1.92869 -0.07633,-2.8115c0.23203,-0.68888 1.24833,-0.69402 2.15767,-0.7045c0.795,-0.00916 1.68733,-0.03259 2.32,-0.17067c1.42057,-0.31004 2.14855,-0.68202 2.53417,-0.82933c0.78211,-0.29877 1.97405,-0.69395 2.77917,-0.83067c0.79587,-0.13514 1.60112,-0.17191 2.4,-0.252c1.20213,-0.12051 2.00419,-0.27171 2.82083,-0.41734c0.83603,-0.14908 2.14495,-0.34378 3.06184,-0.416c0.46511,-0.03664 1.39743,-0.06974 2.3075,-0.13667c1.27813,-0.09399 2.04293,-0.22586 2.75917,-0.37267c0.70245,-0.14398 1.41472,-0.32228 2.5935,-0.4535c0.86473,-0.09626 1.77862,-0.13541 2.2425,-0.1825c0.93344,-0.09476 2.29848,-0.364 3.153,-0.644c0.41785,-0.13692 1.20433,-0.47454 1.975,-0.72667c1.38437,-0.4529 2.04924,-0.52284 2.98217,-0.559c0.90387,-0.03503 1.8,-0.009 2.6685,-0.009c1.06933,0 1.78333,0 2.68867,0c0.96867,0 1.77267,0 2.59467,0c1.03133,0 1.95267,0 2.63667,0c1.00267,0 1.85767,0.00004 2.47767,0c1.35934,-0.00008 2.0825,0.01064 2.79667,-0.02084c0.98814,-0.04356 1.96756,-0.30933 2.78533,-0.6265c0.89514,-0.34717 1.66083,-0.35042 2.65633,-0.35267c0.8,-0.00181 1.79984,0 2.57916,0c0.99934,0 1.8195,0 2.65684,0c1.01666,0 1.71133,0 2.728,0c0.9405,0 1.80267,0 2.636,0c0.9785,0 1.79867,0 2.636,0c1.01666,0 1.71133,0 2.728,0c0.9405,0 1.80267,0 2.636,0c0.9785,0 1.79867,0 2.636,0c1.01666,0 1.71133,0 2.728,0c0.9405,0 1.80267,0 2.636,0c0.9785,0 1.79867,0 2.636,0c1.01666,0 1.71133,0 2.728,0c0.9405,0 1.80267,0 2.636,0c0.9785,0 1.79867,0 2.636,0c1.01666,0 1.71133,0 2.728,0c0.9405,0 1.80267,0 2.636,0c0.9785,0 1.79867,0 2.636,0c1.01666,0 1.71133,0 2.728,0c0.9405,0 1.80267,0 2.636,0c0.9785,0 1.79866,0 2.636,0c1.01666,0 1.77194,-0.3334 2.71733,0.01067c0.78629,0.28617 0.81807,1.33534 1.25734,2.164c0.4408,0.83154 0.99083,1.46458 1.71066,1.92516c0.81825,0.52355 1.9183,0.46857 2.51199,1.23351c0.43375,0.55885 0.2291,1.81686 0.92834,2.305c0.77327,0.53981 1.67088,0.23257 2.48116,0.72333c0.65398,0.39609 1.12421,1.49541 1.51434,1.98567c0.65811,0.82702 1.43919,1.20934 2.22133,1.75249c0.73874,0.51302 1.62335,0.8513 1.97333,1.61c0.35028,0.75938 0.71532,1.60699 1.40001,1.9285c0.96544,0.45334 1.86797,0.62754 2.40533,1.12333c0.75244,0.69422 1.3351,1.1567 1.9095,2.07167c0.44249,0.70486 0.80136,1.55446 1.33333,2.33333c0.43777,0.64096 0.83398,1.40736 1.64816,2.07617c0.60699,0.49862 1.24384,1.18365 1.57333,2.07867c0.26282,0.71386 0.56093,1.28958 1.08301,2.2785c0.32002,0.60619 1.01164,1.60439 1.52083,2.2c0.51678,0.60449 1.17543,1.38626 1.53867,2c0.46371,0.78352 0.80258,1.61989 1.272,2.39999c0.49498,0.82257 1.02487,1.39296 1.53867,2c0.66948,0.79097 1.24872,1.57204 1.53867,2.40001c0.27341,0.78073 0.28624,1.68469 0.78667,2.56667c0.47517,0.83746 1.01378,1.3192 1.49916,1.8235c0.84604,0.879 1.35069,1.35864 1.96884,1.97783c0.80067,0.802 1.29492,1.29312 1.78133,1.85333c0.49538,0.57054 1.2952,1.76845 1.57867,2.35733c0.38382,0.79732 0.70143,1.73544 1.21367,2.30051c0.70421,0.77682 1.47513,1.16292 2.20766,1.73149c0.49054,0.38074 1.28267,1.18933 1.75067,1.78934c0.468,0.60001 1.26601,1.40244 2,2c0.49333,0.40164 1.3685,1.19101 1.84933,1.8c0.467,0.59146 1.19168,1.40207 1.90134,2.01067c0.49751,0.42667 1.06485,0.81317 1.78,1.87199c0.51163,0.75751 0.60701,1.39505 1.452,2.34801c0.44391,0.50063 1.23283,1.11929 1.49651,1.96933c0.29865,0.96281 0.62611,1.59462 1.32533,2.3045c0.57642,0.58521 1.20772,1.15257 1.83417,1.87016c0.55516,0.63593 0.85904,1.55058 1.29733,2.23599c0.50813,0.79463 1.01559,1.38948 1.39732,2.42267c0.27367,0.74071 0.90453,1.43385 1.51851,1.92384c0.65906,0.52596 1.09348,1.26497 1.64816,2.07616c0.53239,0.77858 0.94063,1.4713 1.00034,2.48801c0.03986,0.67876 0.40804,1.69998 1.02049,2.15784c0.77298,0.57785 1.52,0.99745 2.07901,1.84216c0.42906,0.64836 0.73349,1.51199 0.95284,2.317l0.709,0.35716" id="svg_2" stroke-width="2" stroke="#000" fill="none"/>
  <path t="21459,21522,21523,21523,21523,21554,21555,21555,21555,21593,21593,21606,21606,21606,21606,21606,21606,21606,21606,21626,21626,21627,21627,21627,21627,21627,21627,21627,21644,21644,21644,21644,21644,21644,21644,21644,21644,21662,21662,21662,21662,21662,21662,21663,21663,21663,21681,21681,21681,21681,21681,21681,21681,21681,21682,21700,21700,21700,21700,21700,21700,21700,21700,21700,21718,21718,21719,21719,21719,21719,21719,21719,21719,21756,21756,21757,21757,21757,21757,21757,21757,21757,21774,21774,21774,21774,21774,21774,21774,21774,21774,21793,21793,21793,21793,21793,21794,21794,21794,21794,21827,21827,21827,21827,21827,21827,21827,21827,21828,21830,21830,21830,21830,21830,21830,21830,21830,21830,21851,21851,21852,21852,21852,21852,21853,21853,21853,21870,21871,21871,21871,21871,21871,21872,21872,21872,21893,21893,21893,21893,21894,21894,21894,21894,21895,21911,21912,21912,21912,21912,21912,21912,21912,21913,21934,21934,21935,21935,21935,21935,21935,21935,21935,21956,21956,21956,21956,21956,21956,21957,21957,21957,21959,21959,21959,21960,21960,21960,21960,21960,21960,21980,21980,21980,21980,21980,21981,21981,21981,21981,22000,22000,22001,22001,22001,22001,22001,22001,22002,22019,22019,22019,22020,22020,22020,22020,22020,22020,22038,22038,22038,22038,22039,22039,22039,22039,22039,22056,22056,22057,22057,22057,22057,22057,22057,22058,22075,22075,22075,22075,22075,22076,22076,22076,22076,22096,22096,22096,22096,22096,22096,22097,22097,22097,22117,22117,22117,22117,22117,22118,22118,22118,22118,22156,22156,22157,22157,22157,22158,22158,22158,22158,22177,22177,22177,22177,22178,22178,22178,22178,22178,22200,22200,22200,22200,22201,22201,22201,22201,22201,22223,22223,22223,22223,22224,22224,22224,22224,22225,22227,22227,22227,22228,22228,22228,22228,22229,22229,22252,22253,22253,22253,22254,22254,22254,22254,22255,22274,22274,22275,22275,22275,22275,22276,22276,22276,22297,22298,22298,22298,22298,22298,22299,22299,22299,22320,22321,22321,22321,22321,22322,22322,22322,22323,22343,22344,22344,22344,22345,22345,22345,22345,22346,22348,22348,22348,22349,22349,22349,22350,22350,22350,22382,22383,22383,22384,22384,22384,22384,22384,22385,22387,22388,22388,22388,22389,22389,22389,22389,22389,22408,22408,22408,22409,22409,22409,22409,22410,22410,22412,22412,22413,22413,22413,22414,22414,22414,22414,22433,22434,22434,22434,22434,22435,22435,22435,22435,22456,22456,22456,22456,22457,22457,22457,22458,22458,22460,22460,22461,22461,22461,22462,22462,22462,22462,22482,22483,22483,22483,22484,22484,22484,22484,22485,22505,22506,22506,22506,22507,22507,22507,22508,22508,22510,22511,22511,22511,22512,22512,22512,22512,22513" d="m136,83c-5.27834,-2.63567 -6.13585,-2.85054 -6.95833,-2.95834c-0.778,-0.10197 -1.88056,-0.1806 -2.8755,-0.39433c-0.60753,-0.13051 -1.60101,-1.09045 -2.58283,-0.41817c-0.54442,0.37277 -0.24944,1.9873 -0.20467,2.63084c0.05113,0.73506 0.14425,1.55533 0.28799,2.4525c0.15646,0.97655 0.3597,2.02472 0.648,3.1275c0.62968,2.40858 1.09827,3.67333 1.6,4.984c0.5204,1.35944 1.10911,2.74082 1.752,4.1385c0.65557,1.42524 1.35648,2.8552 2.11201,4.2735c1.51836,2.8503 2.35649,4.22571 3.18933,5.59467c0.82986,1.36407 1.68153,2.70872 2.532,4.0485c0.84821,1.33622 1.70357,2.66346 2.532,4.0035c1.65251,2.67306 2.43083,4.03445 3.196,5.39467c0.75914,1.34949 1.48988,2.69437 2.2095,4.0185c0.7057,1.29854 1.38725,2.57073 2.07449,3.7935c1.30417,2.3204 1.95831,3.38684 2.60268,4.39867c0.62032,0.97406 1.24388,1.89978 1.8645,2.787c0.60487,0.86472 1.21352,1.70007 1.81949,2.517c1.19582,1.61211 1.80133,2.40685 2.39601,3.20267c0.58798,0.78685 1.16443,1.56137 1.722,2.32201c0.54105,0.73808 1.05995,1.45094 1.54199,2.142c0.88443,1.2679 1.25885,1.85278 1.60001,2.39732c0.31593,0.5043 0.59824,0.97813 0.858,1.41901c0.2415,0.40985 0.46095,0.7953 0.67799,1.149c0.39738,0.64761 0.60135,0.9342 0.79733,1.19733c0.1783,0.23938 0.34291,0.44357 0.483,0.612c0.10815,0.13004 0.2486,0.21904 0.213,0.252c-0.08995,0.08327 -0.21863,-0.21506 -0.408,-0.40799c-0.25082,-0.25552 -0.56143,-0.57733 -0.92999,-0.96901c-0.43167,-0.45876 -0.92334,-0.98965 -1.47,-1.599c-1.2879,-1.43561 -2.01125,-2.27927 -2.79066,-3.192c-0.83041,-0.97246 -1.69705,-2.00334 -2.59351,-3.084c-0.9263,-1.11662 -1.86977,-2.26602 -2.8185,-3.444c-1.91898,-2.38266 -2.85832,-3.58739 -3.79199,-4.78932c-0.93066,-1.19807 -1.85092,-2.3988 -2.76451,-3.60001c-0.91174,-1.19879 -1.81712,-2.3994 -2.7195,-3.6c-1.80293,-2.3988 -2.70036,-3.59982 -3.59866,-4.79467c-0.89302,-1.18781 -1.77966,-2.36393 -2.661,-3.522c-0.86803,-1.14059 -1.72285,-2.25816 -2.571,-3.342c-1.62877,-2.08141 -2.4239,-3.05766 -3.19734,-3.996c-0.74669,-0.9059 -1.47702,-1.77188 -2.18999,-2.59949c-0.68715,-0.79764 -1.35635,-1.55961 -2.01,-2.2845c-1.23315,-1.36755 -1.82905,-1.99709 -2.39733,-2.60267c-0.54308,-0.57873 -1.06323,-1.12757 -1.551,-1.6545c-0.46146,-0.4985 -0.89588,-0.96905 -1.281,-1.4295c-0.69296,-0.82851 -0.96382,-1.22772 -1.20534,-1.60133c-0.22414,-0.34673 -0.41534,-0.68039 -0.597,-0.99c-0.17037,-0.29037 -0.32546,-0.56895 -0.507,-0.81001c-0.34507,-0.4582 -0.5712,-0.63708 -0.796,-0.8c-0.21661,-0.15698 -0.43451,-0.28274 -0.63451,-0.39c-0.17225,-0.09238 -0.32772,-0.13841 -0.4095,-0.21c-0.03674,-0.03216 0.0584,-0.03416 0.21201,0.00933c0.22735,0.06437 0.52375,0.17709 0.88499,0.3465c0.4398,0.20625 0.95,0.4783 1.515,0.8415c1.3856,0.89071 2.1498,1.51505 2.98933,2.19601c0.90636,0.73516 1.84868,1.54282 2.829,2.39999c1.01714,0.88937 2.05069,1.81516 3.099,2.76c2.11208,1.90363 3.15488,2.853 4.19733,3.79333c1.04355,0.94134 2.09529,1.88747 3.162,2.8425c1.08527,0.97165 2.19664,1.9632 3.34201,2.9775c2.40514,2.12989 3.6808,3.24539 4.99199,4.39467c1.33681,1.17173 2.68895,2.35492 4.041,3.54449c1.34395,1.18243 2.66776,2.34879 3.951,3.4995c2.43115,2.18005 3.54268,3.2115 4.59601,4.19467c1.00558,0.9386 1.96364,1.84703 2.89049,2.72249c0.90117,0.8512 1.78217,1.68692 2.66551,2.4975c1.76239,1.6172 2.67828,2.41003 3.60666,3.20534c0.9343,0.80038 1.88142,1.59215 2.832,2.38051c0.94812,0.78632 1.89566,1.56245 2.832,2.33549c1.83662,1.51631 2.72485,2.26407 3.60001,2.99733c0.86218,0.7224 1.71364,1.43521 2.56799,2.1255c0.84703,0.68437 1.69525,1.35735 2.56799,1.99049c1.74559,1.26636 2.66899,1.83687 3.59468,2.39867c0.91974,0.55818 1.8434,1.08344 2.754,1.59001c0.8868,0.49335 1.75121,0.95656 2.57399,1.40999c1.51283,0.83371 2.18394,1.22462 2.79733,1.604c0.57242,0.35403 1.09991,0.70244 1.58701,1.04851c0.46478,0.33023 0.90285,0.66299 1.317,1.00349c0.81775,0.67232 1.2085,1.03778 1.608,1.39867c0.4005,0.36179 0.7975,0.72551 1.2,1.077c0.39755,0.34717 0.79131,0.68613 1.2,0.987c0.78395,0.57713 1.19514,0.79869 1.59601,0.99867c0.38646,0.19279 0.77039,0.35216 1.14149,0.4935c0.35303,0.13446 0.69197,0.24623 1.0065,0.35851c0.55777,0.19911 0.79317,0.29988 0.99867,0.40132c0.18301,0.09033 0.33911,0.18056 0.474,0.261c0.11572,0.06902 0.20876,0.13556 0.29399,0.17101c0.11839,0.04924 0.17551,0.03392 0.2,-0.004c0.03056,-0.04733 0.02748,-0.13046 0.00601,-0.22951c-0.02756,-0.12711 -0.08609,-0.27946 -0.17401,-0.4545c-0.22607,-0.45006 -0.40413,-0.70825 -0.60133,-0.99866c-0.21814,-0.32123 -0.46771,-0.66359 -0.7455,-1.026c-0.29671,-0.3871 -0.61925,-0.79103 -0.97049,-1.20601c-0.74934,-0.88531 -1.16635,-1.33464 -1.59868,-1.79866c-0.4476,-0.48041 -0.91864,-0.97066 -1.40999,-1.4745c-0.50861,-0.52155 -1.03938,-1.05696 -1.59001,-1.6095c-1.15866,-1.16266 -1.76999,-1.77133 -2.39999,-2.40134c-0.64999,-0.64999 -1.31999,-1.31999 -2.00999,-2.00999c-0.71001,-0.71001 -1.44,-1.44 -2.19,-2.19c-1.56,-1.56 -2.37,-2.36919 -3.196,-3.19734c-0.84099,-0.84317 -1.69322,-1.70012 -2.5515,-2.571c-0.86574,-0.87845 -1.73421,-1.76425 -2.59651,-2.661c-1.7224,-1.79118 -2.56218,-2.69572 -3.396,-3.59334c-0.82619,-0.88939 -1.63893,-1.77298 -2.44499,-2.64149c-0.79395,-0.85548 -1.57442,-1.69633 -2.35501,-2.5065c-1.50926,-1.56641 -2.26068,-2.29636 -3.00266,-3c-0.72682,-0.68929 -1.45493,-1.35225 -2.18401,-1.9935c-0.72163,-0.63472 -1.44881,-1.25367 -2.18401,-1.8585c-1.47498,-1.21342 -2.23517,-1.80585 -2.99733,-2.4c-0.7605,-0.59285 -1.52084,-1.17442 -2.27699,-1.7415c-0.74255,-0.55688 -1.47162,-1.09525 -2.18701,-1.6065c-1.34895,-0.96404 -1.98891,-1.39236 -2.59332,-1.8c-0.57129,-0.38531 -1.1129,-0.74476 -1.61551,-1.0935c-0.47195,-0.32747 -0.91389,-0.6363 -1.30049,-0.9585c-0.69789,-0.58167 -0.96748,-0.89706 -1.20534,-1.2c-0.2235,-0.28465 -0.40877,-0.57068 -0.5775,-0.8415c-0.15781,-0.25328 -0.29117,-0.49824 -0.4425,-0.7065c-0.26869,-0.36976 -0.43158,-0.505 -0.59467,-0.58933c-0.14035,-0.07257 -0.29094,-0.10194 -0.3795,-0.03751c-0.092,0.06693 -0.11867,0.24664 -0.0645,0.4575c0.17268,0.67221 0.48416,1.08998 0.80133,1.60133c0.3672,0.59203 0.80533,1.24268 1.28401,1.962c0.51865,0.77935 1.07773,1.60928 1.644,2.502c1.20735,1.90335 1.7955,2.9306 2.39067,3.98933c0.60931,1.08389 1.2115,2.2015 1.81949,3.342c0.61739,1.15815 1.23355,2.33614 1.8645,3.522c1.27571,2.39767 1.93098,3.59674 2.60001,4.78799c0.66667,1.18709 1.34323,2.3578 2.03549,3.5025c0.68254,1.12862 1.36789,2.22888 2.08051,3.27751c1.36868,2.01404 2.09016,2.92615 2.79733,3.80266c0.68878,0.85373 1.38837,1.66734 2.08051,2.4615c0.68256,0.78316 1.37033,1.54858 2.03549,2.32651c1.33211,1.55792 1.96925,2.37482 2.60133,3.20532c0.63664,0.83649 1.25986,1.69115 1.884,2.5515c0.62653,0.86363 1.24763,1.73471 1.884,2.59651c1.27263,1.72345 1.9325,2.56438 2.59866,3.39333c0.66089,0.82239 1.32848,1.62434 1.99651,2.40601c0.65605,0.76762 1.30716,1.51076 1.95149,2.226c1.22873,1.36392 1.8244,1.99432 2.39734,2.59999c0.55147,0.58296 1.08815,1.13982 1.6095,1.67401c0.50403,0.51645 0.99573,1.01328 1.4745,1.49399c0.92014,0.92384 1.36668,1.36716 1.8,1.80267c0.42235,0.4245 0.83205,0.83864 1.22549,1.245c0.3812,0.39369 0.74759,0.77641 1.0905,1.155c0.64612,0.71332 0.93092,1.06297 1.2,1.39734c0.25516,0.31708 0.48933,0.62134 0.7095,0.90601l0.20517,0.26466l0.19116,0.24266l0.17816,0.21867" id="svg_3" stroke-width="20" stroke="#fff" fill="none"/>
  <path t="24425,24705,24705,24705,24725,24726,24726,24726,24726,24749,24749,24749,24749,24749,24749,24771,24772,24772,24772,24772,24774,24774,24774,24774,24774,24794,24794,24794,24794,24794,24794,24814,24815,24815,24815,24815,24833,24833,24833,24833,24852,24852,24852,24852,24852,24870,24870,24870,24870,24889,24889,24889,24889,24908,24908,24908,24908,24927,24927,24927,24927,24945,24945,24946,24964,24964,24964,24964,24982,24982,24983,24983,25001,25001,25019,25019,25019,25019,25039,25039,25039,25039,25039,25058,25058,25058,25058,25059,25059,25059,25059,25060,25061,25061,25061,25080,25080,25080,25080,25099,25099,25099,25121,25121,25123,25123,25123,25144,25144,25144,25164,25189,25272,25293,25314,25336,25336,25359,25360,25389,25389,25557,25557,25672,26291,26292,26888" d="m99,97c-0.224,0.13316 0.26353,0.88177 0.68933,1.49067c0.7246,1.03616 1.26713,1.76702 1.54667,2.14533c0.57321,0.77574 1.16566,1.56509 1.764,2.364c0.59898,0.79977 0.90212,1.19521 1.47916,2c0.57025,0.79533 0.85783,1.18607 1.5995,2.4c0.48338,0.79119 0.91982,1.60085 1.14667,2c0.45564,0.80172 1.19222,2.00263 1.46,2.4c0.54273,0.8054 1.12383,1.60111 1.41917,2c0.89097,1.20337 1.19923,1.59711 1.791,2.39999c0.58755,0.79716 0.8829,1.19028 1.41917,2c0.78534,1.18581 0.99718,1.59978 1.46,2.37867c0.44668,0.75172 0.8584,1.49353 1.64684,2.37867c0.50466,0.56655 1.10767,1.0332 1.683,1.548c0.90891,0.81327 1.51019,1.44978 2.07417,2.156c0.56712,0.71014 0.84513,1.06741 1.488,2.172c0.38888,0.66818 0.81243,1.65665 1.13867,2.26218c0.49676,0.92203 0.95332,1.51093 1.44533,2.09383c0.73032,0.86523 1.43208,1.63239 1.944,2.358c0.47102,0.66765 0.75072,1.15518 1.57333,2.138c0.46999,0.56152 1.00445,1.10718 1.464,1.716c0.6595,0.87373 1.09312,1.80136 1.41867,2.36267c0.63647,1.09744 1.10765,1.56429 1.87016,2.23599c0.52357,0.46123 1.33047,1.15051 1.79251,1.68266c0.67194,0.77391 0.98929,1.33519 1.804,2.34933c0.38699,0.48174 1.21353,1.3038 1.65332,1.73734c0.76675,0.75584 1.32231,1.30115 2.22934,2.064c0.58853,0.49498 1.19604,0.93292 1.76401,1.392c0.55736,0.45052 1.56015,1.45331 2.01067,2.01067c0.45908,0.56796 0.88925,1.18222 1.64682,2.06384c0.52209,0.60759 1.08687,1.19254 1.68301,1.743c0.87758,0.81033 1.49994,1.26428 2.07416,1.73184c0.81732,0.66551 1.51662,1.37341 2.01601,2.17349c0.32433,0.51962 0.68483,1.38211 1.57333,2.0825c0.67419,0.53145 1.33804,0.58203 2.26132,1.45467c0.49866,0.47131 0.95717,1.52171 1.27518,2.11467c0.43443,0.81003 1.01457,1.60158 1.51016,2.18933c0.61342,0.72751 1.08733,1.59454 1.61067,2.18533c0.56264,0.63515 1.20753,1.14194 1.56,1.87599c0.43948,0.9153 1.45648,0.84543 1.94266,1.58534c0.47878,0.72864 0.18936,1.7534 0.59283,2.564c0.42834,0.86055 0.95834,1.47917 1.42201,2.3045l0.05716,0.86217l0,0.83333l-0.00017,0.97833" id="svg_4" stroke-width="2" stroke="#000" fill="none"/>
  <path t="27468,27639,27639,27639,27639,27655,27655,27655,27655,27674,27674,27674,27674,27674,27691,27692,27692,27692,27692,27710,27710,27710,27710,27710,27710,27727,27727,27727,27727,27727,27745,27745,27745,27745,27745,27745,27745,27761,27761,27762,27762,27762,27777,27777,27777,27778,27778,27778,27795,27795,27795,27796,27796,27796,27796,27811,27811,27811,27811,27811,27826,27826,27826,27827,27827,27862,27862,27862,27862,27862,27863,27864,27864,27864,27864,27900,27900,27900,27900,27902,27902,27902,27902,27936,27937,27938,27938,27938,27973,27973,27975,28055,28092,28093,28093,28093,28095,28095,28095,28095,28095,28135,28135,28135,28135,28135,28135,28135,28137,28137,28137,28137,28137,28138,28138,28158,28159,28159,28159,28159,28159,28159,28159,28159,28161,28161,28161,28161,28161,28162,28162,28182,28182,28182,28182,28182,28182,28183,28183,28183,28199,28200,28200,28200,28200,28200,28200,28217,28217,28217,28217,28217,28217,28218,28218,28218,28233,28233,28234,28234,28234,28234,28234,28262,28262,28262,28262,28262,28263,28263,28279,28279,28279,28279,28280,28283,28283,28283,28299,28299,28299,28299,28300,28300,28315,28316,28316,28316,28316,28332,28332,28332,28348,28348" d="m78,113c-3.884,-1.82933 -4.62443,-1.94388 -5.37466,-1.97867c-0.74077,-0.03436 -1.80417,-0.02133 -2.81067,-0.02133c-0.676,0 -1.384,0 -2.55766,0c-0.87134,0 -1.79867,0 -2.27834,0c-0.98133,0 -2.47869,0.00316 -2.97867,-0.00267c-1.00011,-0.01167 -1.50329,-0.00283 -2.5,-0.11166c-1.50695,-0.16454 -2.00475,-0.31078 -2.9955,-0.5955c-0.49646,-0.14267 -1.4684,-0.47581 -1.94733,-0.642c-1.39019,-0.48239 -2.27191,-0.77205 -3.1425,-1.01217c-0.43425,-0.11977 -1.32193,-0.34379 -2.748,-0.636c-0.50862,-0.10422 -1.57584,-0.29946 -2.128,-0.38934c-1.12272,-0.18273 -1.68955,-0.26138 -2.256,-0.32533c-1.65872,-0.18728 -2.19747,-0.20052 -3.24667,-0.27067c-0.51524,-0.03445 -1.53997,-0.07345 -3.036,-0.348c-0.5036,-0.09242 -1.50567,-0.37264 -2.01067,-0.528c-1.02777,-0.31618 -1.53834,-0.51868 -3.156,-0.972c-0.55188,-0.15466 -1.11309,-0.29417 -2.248,-0.52c-0.56314,-0.11205 -1.67443,-0.29311 -2.216,-0.36c-1.52385,-0.1882 -1.99981,-0.20573 -2.908,-0.26134c-0.87583,-0.05362 -1.74637,-0.08789 -3.08283,-0.24667c-0.46478,-0.05522 -1.41406,-0.20689 -2.38917,-0.35333c-0.49362,-0.07413 -1.98896,-0.26299 -2.489,-0.30416c-0.99067,-0.08157 -1.9594,-0.13421 -2.42833,-0.1825c-0.903,-0.093 -2.13738,-0.35944 -2.86217,-0.644c-0.69754,-0.27386 -1.32711,-0.69397 -2.73117,-1.05167c-0.71958,-0.18333 -1.47821,-0.21456 -2.226,-0.23399c-1.08567,-0.02821 -2.091,-0.009 -2.711,-0.009c-0.855,0 -2.09115,0.02647 -2.767,-0.036c-0.94632,-0.08748 -1.7219,-0.32003 -2.51333,-0.53867c-1.11703,-0.30859 -1.95233,-0.42308 -2.89733,-0.42533c-0.84133,-0.00201 -1.23483,0 -0.53733,0c0.67333,0 1.46667,-0.00298 2.795,0.00017c0.94001,0.00223 1.42534,-0.00053 2.425,0.03584c1.04048,0.03786 2.12081,0.12309 2.67483,0.18583c1.13753,0.12881 1.71873,0.21446 2.88917,0.46083c0.59618,0.12549 1.20086,0.2571 2.38933,0.65067c1.21397,0.40202 1.80914,0.67165 2.42133,0.91733c0.62047,0.24899 1.23967,0.52937 2.54933,0.98134c1.35206,0.46661 2.07016,0.63306 2.79733,0.79867c0.73556,0.16751 1.48222,0.31041 2.232,0.44849c0.74889,0.13792 1.4957,0.26348 2.232,0.4035c1.43675,0.27323 2.12786,0.42863 3.46267,0.77c0.65594,0.16775 1.30495,0.34876 1.956,0.522c0.65429,0.1741 2.68151,0.66445 3.392,0.80383c0.7242,0.14207 1.46215,0.26756 2.208,0.3855c0.74883,0.11841 1.49854,0.22626 2.244,0.3315c0.7372,0.10408 2.17239,0.30187 2.86267,0.40466c1.3381,0.19925 1.99242,0.30807 2.64267,0.42067c0.65109,0.11274 1.30851,0.22091 3.33333,0.64583c0.71049,0.1491 1.43459,0.31638 2.172,0.48151c0.74525,0.16688 1.49394,0.33443 2.244,0.49049c0.74463,0.15493 1.479,0.31548 2.91734,0.528c0.68876,0.10177 2.01873,0.2271 2.66133,0.272c0.6301,0.04403 1.25117,0.06747 2.46933,0.144c1.20322,0.07558 1.80355,0.13224 3.00717,0.27c0.60654,0.06943 1.21563,0.15334 2.45267,0.29466c0.62783,0.07172 1.90919,0.1907 2.56417,0.23117c0.66239,0.04092 2.00394,0.08799 2.67867,0.10066c0.67462,0.01266 1.34733,0.01766 2.016,0.0195c1.96216,0.00539 2.59602,0.00003 3.21783,0.00584c1.20373,0.01123 1.78391,0.02264 2.34734,0.05267c1.58702,0.08456 2.54754,0.22231 3,0.2955c0.85776,0.13876 1.64629,0.33875 3.097,0.52583c0.6534,0.08427 1.53916,0.11083 2.48849,0.1215l0.8125,0" id="svg_5" stroke-width="2" stroke="#000" fill="none"/>
  <path t="30550,30736,30737,30737,30754,30774,30774,30791,30791,30809,30810,30886,30903,30903,30920,30937,30937,30937,30955,30955,30974,30975,30991,30991,30991,31009,31009,31009,31009,31026,31026,31043,31043,31043,31061,31061,31061,31061,31078,31079,31079,31103,31220,31270,31270,31286,31286,31286,31303,31303,31303,31303,31322,31322,31323,31323,31340,31340,31341,31341,31358,31359,31359,31376,31403,31403" d="m464,214c0.91467,3.59734 0.98843,4.45815 0.99866,5.22934c0.01471,1.10924 0.00134,2.09216 0.00134,2.79149c0,0.97917 -0.07358,1.7711 0,2.8125c0.05731,0.81107 0.86084,1.14867 1.83334,1.16667c0.862,0.01596 1.70831,0 2.70932,0c0.70801,0 1.452,0 2.65201,0c0.77332,0 1.81714,0.02783 2.59067,-0.036c1.05255,-0.08684 1.77817,-0.2899 2.44,-0.61067c0.96771,-0.46904 1.72678,-1.00006 2.25381,-1.35333c0.75723,-0.50755 1.52231,-1.15736 2.17151,-1.58934c0.85596,-0.56955 1.61847,-0.81877 2.45834,-1.11066c0.88803,-0.30862 1.79285,-0.58813 2.37015,-0.82083c0.84546,-0.34079 1.86517,-0.9263 2.45834,-1.47917c0.52078,-0.48541 0.98251,-1.60107 1.76782,-1.94733c0.90222,-0.39781 1.18454,-0.88739 0.43869,-1.53534c-0.65189,-0.56633 -1.2243,-0.90279 -2.44418,-1.27451c-0.59192,-0.18037 -1.53687,-0.2482 -2.18515,-0.3255c-1.03809,-0.12379 -2.14969,-0.3479 -2.92535,-0.49199c-0.78967,-0.14668 -1.9884,-0.31113 -2.78033,-0.37267c-0.76682,-0.05959 -1.50232,-0.05217 -2.47565,-0.21935c-0.82343,-0.14142 -1.66718,-0.48067 -2.57169,-0.78516l-0.67899,-0.61751l-0.1925,-0.7825" id="svg_6" stroke-width="2" stroke="#000" fill="none"/>
  <path t="31868,32120,32120,32137,32137,32137,32155,32155,32155,32155,32155,32181,32181,32181,32181,32200,32201,32201,32201,32220,32220,32220,32220,32238,32239,32239,32257,32257,32257,32275,32276,32276,32293,32320,32320" d="m494,210c2.60449,2.82851 3.45709,2.99324 4.42166,3c0.82498,0.00577 1.42502,0 2.745,0c0.71869,0 1.46933,0 2.24402,0c0.79065,0 1.98932,0 2.78934,0c0.79999,0 1.59998,0 2.79999,0c0.79868,0 1.58932,0 2.36401,0c1.4693,0 2.14929,0 2.78931,0c0.88501,0 1.92535,0 2.84668,0c0.68402,0 1.68536,0 2.52081,0c0.88049,0 2.07654,0 2.65784,0c1.05066,0 2.00702,0 2.92151,0l0.78516,0" id="svg_7" stroke-width="2" stroke="#000" fill="none"/>
  <path t="32566,32870,32886,32886,32886,32886,32904,32904,32904,32904,32904,32904,32904,32922,32922,32922,32922,32922,32942,32942,32942,32942,32942,32959,32959,32959,32959,32959,32977,32977,32977,32977,32977,32995,32995,32995,32995,32995,33012,33012,33012,33012,33012,33012,33030,33030,33030,33047,33047,33047,33047,33064,33064,33080,33080" d="m498,222c-4.44968,-0.9955 -3.35666,-1 -2.67667,-1c0.76001,0 1.60001,0 3.01001,0c0.50934,0 1.57199,0 2.11731,0c0.54935,0 1.64401,0 2.18134,0c1.52518,0 2.45819,0 3.34717,0c0.86902,0 1.3035,0 2.64233,0c0.93567,0 1.41452,0 2.38919,0c0.99066,0 1.98932,0 2.98798,0c0.99066,0 1.48053,0 2.44415,0c1.3905,0 1.83569,0 2.70001,0c0.83636,0 1.65265,0 2.85718,0c0.80267,0 1.62134,0 2.47198,0c0.89868,0 1.86133,0 2.89337,0c0.53101,0 1.59296,0 2.112,0c0.98395,0 2.237,0 3.19995,0c0.81903,0 1.96533,0 2.62805,0c0.69464,0 1.72662,0 2.65149,0l0.98065,0l0.89581,0l0.86218,0" id="svg_8" stroke-width="2" stroke="#000" fill="none"/>
  <path t="33500,33653,33653,33669,33669,33669,33669,33669,33687,33687,33687,33687,33687,33705,33705,33705,33705,33723,33723,33723,33723,33741,33741,33741,33741,33759,33759" d="m521,208c3.55182,1.89917 4.29205,2.01448 5.33331,2.5c0.65985,0.30769 1.33276,0.78601 2.08801,1.224c0.38477,0.22314 1.56708,0.81766 2.37866,1.02133c0.79077,0.19846 1.60083,0.25064 2.40002,0.336c1.20117,0.1283 2.00067,0.25897 2.77917,0.46034c0.76941,0.19904 1.86316,0.60626 2.53546,0.94232c0.97845,0.48911 1.56482,0.89452 2.48535,1.34933c0.88116,0.43535 1.47919,0.625 2.31464,0.88l0.99872,0.20267l0.83997,0.10933" id="svg_9" stroke-width="2" stroke="#000" fill="none"/>
  <path t="34298,34470,34470,34470,34470,34487,34487,34487,34488,34508,34527" d="m492,206c1.75751,7.6925 1.87949,8.61749 2.02084,9.39583c0.12442,0.68503 0.62152,1.91884 1.03717,2.49518c0.42065,0.5833 1.09,1.33833 1.68732,2.13699l0.42133,0.80533" id="svg_10" stroke-width="2" stroke="#000" fill="none"/>
  <path t="34812,34986,34986,34986,34986,35003,35003,35003,35003,35003,35021,35022,35022,35022,35042,35042,35042,35042,35042,35072,35072,35075,35075,35093,35093,35120" d="m494,210c6.15701,0 7.08566,0 7.95834,0c0.83264,0 2.04166,0 2.84164,0c0.80002,0 1.60001,0 2.40002,0c1.19998,0 2,0 2.79999,0c0.79999,0 2,0 2.79736,0c0.78131,0 1.53064,0 2.23199,0c1.19995,0 1.92896,0 2.97064,0c0.78931,0 1.83331,0 2.6955,0l0.82532,0" id="svg_11" stroke-width="2" stroke="#000" fill="none"/>
  <path t="37048,37186,37186,37186,37186,37205,37205,37205,37226,37226,37226,37243,37243,37243,37243,37262,37279,37279,37279,37295,37295,37295,37310,37310,37325,37325,37341,37341,37341,37356,37356,37356,37356,37371,37371,37371,37387,37387,37387,37402,37402,37402,37419,37420,37420,37436,37436,37469,37470,37485,37503,37503,37520,37520,37538,37538,37538" d="m427,226c-7.6925,-5.271 -8.60696,-5.68289 -9.01999,-5.784c-1.04349,-0.25543 -1.98172,-0.25931 -2.871,-0.2025c-0.84061,0.0537 -1.8634,0.41832 -2.29016,1.058c-0.46732,0.70047 -0.67032,1.92632 -0.73352,2.52583c-0.09052,0.85864 -0.08466,1.632 -0.08533,2.752c-0.00058,0.98399 0,1.66499 0,2.472c0,1.17867 0,2.06967 0,2.90666c0,0.93867 -0.22028,1.879 0.37067,2.5675c0.52396,0.61047 1.68314,0.63216 2.32666,0.6685c0.69803,0.03943 2.13602,0.036 2.81735,0.036c0.96448,0 1.58081,0 2.78516,0c0.8895,0 1.46423,0.01212 2.53351,0c0.9415,-0.01067 1.65366,-0.02672 2.58765,-0.44316c0.8201,-0.36566 1.61441,-0.95129 2.07901,-1.72351c0.43793,-0.72791 0.3775,-1.60419 0.72134,-2.69049c0.20569,-0.6498 0.70819,-1.45909 0.76797,-2.3175c0.06522,-0.93643 -0.27917,-1.73393 -0.9613,-1.90933c-1.03632,-0.26646 -1.77734,-0.56267 -2.69467,-1.08267l-0.5325,-0.48149l-0.66333,-0.642" id="svg_12" stroke-width="2" stroke="#000" fill="none"/>
  <path t="37998,38135,38136,38136,38136,38152,38152,38152,38152,38170,38170,38170,38170,38191,38191,38191,38191,38208,38208,38209,38209,38235,38235,38253,38253,38253,38268,38268,38285,38302,38319,38319,38319,38336,38336,38336,38354,38354,38354,38372,38372,38372,38402,38403,38421,38421,38437,38437" d="m340,229c4.39984,3.51401 5.1893,3.80991 5.97916,3.91667c0.75955,0.10266 2.19952,0.08333 2.86816,0.08333c0.97803,0 1.63669,0 2.67419,0c0.73566,0 1.49933,0 2.67981,0c1.19852,0 1.99417,0 2.77783,0c0.76367,0 1.85437,0.01295 2.53284,-0.00267c0.92609,-0.02133 1.84131,0.00937 2.67368,-0.71167c0.48486,-0.42001 0.94186,-1.4731 1.29349,-2.28566c0.25598,-0.59155 0.49094,-1.59425 0.5195,-2.51466c0.02991,-0.96405 0.13486,-1.85793 -0.332,-2.65201c-0.43054,-0.73232 -1.08249,-1.24504 -2.08817,-1.59033c-0.78714,-0.27026 -1.68295,-0.23849 -2.57849,-0.243c-0.89551,-0.0045 -1.76401,0 -2.83334,0c-0.7095,0 -1.56479,-0.06877 -2.564,0.004c-0.73605,0.0536 -1.43201,0.84933 -1.561,1.51683l-0.04166,1.14584l0,0.8125" id="svg_13" stroke-width="2" stroke="#000" fill="none"/>
  <path t="38914,39002,39002,39024,39024,39024,39024,39047,39047,39047,39047,39071,39071,39071,39071,39071,39073,39073,39073,39073,39091,39091,39091,39120,39120,39122,39122,39122,39149,39149,39149,39149,39176,39176,39177,39177,39177,39209,39209,39209,39209,39211,39211,39211,39243,39243,39243,39243,39243,39243,39245,39245,39245,39245,39282,39282,39282,39282,39284,39284,39284,39284,39284,39314,39315,39315,39315,39315,39316,39316,39316,39316,39344,39344,39345,39346,39373,39373,39373" d="m287,230c2.60449,3.18567 3.22195,3.61115 4.16666,4c0.7843,0.32285 1.36563,0.52058 2.32001,0.71466c1.02673,0.20879 1.77008,0.23839 2.53418,0.26451c0.78339,0.02679 1.97916,0.02083 2.77914,0.02083c0.80002,0 1.60001,0.00006 2.40002,0c1.19983,-0.00009 1.99576,0.00597 2.77914,-0.02083c0.7641,-0.02612 2.20459,-0.17606 2.85468,-0.33633c0.89246,-0.22003 1.95197,-0.49991 2.48349,-1.06416c0.71851,-0.76276 0.64508,-1.59212 0.672,-2.40001c0.03925,-1.17805 0.01068,-1.77733 0.01068,-2.65784c0,-0.83549 0.00031,-1.83549 0,-2.71016c-0.00034,-1.01067 0.02536,-1.87022 -0.34134,-2.41068c-0.63364,-0.93387 -1.37875,-1.20549 -2.06534,-1.528c-0.70087,-0.32922 -2.10754,-0.72537 -2.77866,-0.79999c-0.67374,-0.07491 -2.14801,-0.07201 -2.5575,-0.07201c-0.867,0 -1.77802,0 -2.70901,0c-0.46548,0 -1.82654,-0.00623 -2.68649,0.0045c-0.8201,0.01022 -1.60675,-0.00131 -2.69501,0.16217c-1.02283,0.15366 -1.68707,0.37485 -2.31934,0.70934c-1.0524,0.55675 -1.7471,1.159 -2.44064,1.83199c-0.35461,0.34409 -1.06982,1.05411 -1.74002,2.29201c-0.20895,0.38597 -0.47742,1.19383 -0.58331,2c-0.10452,0.79584 -0.08334,2 -0.08334,2.79601c0,0.77199 0,1.83249 0,2.93967c0,0.72266 0.00534,1.74699 0.14401,2.403l0.74167,0.61833l0.83698,0.17099l0.64801,0.05067" id="svg_14" stroke-width="2" stroke="#000" fill="none"/>
  <path t="39714,39819,39819,39819,39835,39835,39835,39835,39835,39835,39853,39853,39853,39853,39853,39870,39871,39871,39871,39871,39888,39888,39888,39888,39906,39925,39925,39941,39941,39941,39959,39959,39959,39976,39976,39993,39993,39993,40010,40010,40010,40010,40011,40011,40027,40028,40028,40045,40045,40045,40060,40060,40076,40076,40076,40092,40092,40092" d="m217,221c0.29201,5.42667 0.38646,6.17056 0.79066,6.70667c0.85326,1.13168 1.40102,1.19516 2.28616,1.4745c0.97124,0.30652 1.50117,0.3837 2.55917,0.53084c1.02789,0.14296 1.99289,0.21149 2.892,0.252c0.43016,0.01938 1.263,0.03374 2.472,0.036c0.8,0.0015 1.60001,0 2.39999,0c0.8,0 1.99951,0 3.168,0c0.72401,0 1.38341,0.12784 2.5605,-0.0045c0.98914,-0.11121 1.56174,-0.64529 1.78618,-1.76616c0.15192,-0.75864 0.08307,-1.33833 0.08533,-2.52917c0.00168,-0.8895 0.01593,-1.74312 -0.00034,-2.7785c-0.0106,-0.67523 -0.25046,-1.86557 -0.91434,-2.27499c-0.66145,-0.40794 -1.75075,-0.4948 -2.62132,-0.56134c-0.47412,-0.03624 -1.46394,-0.06935 -2.45334,-0.08083c-0.47466,-0.00551 -2.07066,-0.0045 -2.67734,-0.0045c-0.77249,0 -2.01695,-0.02301 -2.8125,0.02083c-0.75311,0.0415 -1.74815,0.29514 -2.40349,0.86584c-0.64059,0.55788 -1.11734,1.155 -1.63335,1.79999l-0.59732,0.99867l-0.345,0.83549l-0.18001,0.58368" id="svg_15" stroke-width="2" stroke="#000" fill="none"/>
  <path t="41917,42051,42052,42052,42052,42052,42069,42069,42069,42069,42069,42069,42069,42069,42088,42088,42088,42088,42088,42088,42088,42088,42088,42107,42107,42107,42107,42107,42107,42107,42107,42139,42139,42139,42139,42139,42139,42139,42141,42141,42141,42141,42141,42141,42141,42142,42142,42171,42171,42172,42172,42172,42172,42172,42172,42172,42173,42174,42174,42174,42174,42174,42174,42174,42174,42201,42201,42202,42202,42202,42202,42202,42202,42202,42203,42203,42203,42203,42203,42203,42204,42204,42204,42234,42234,42234,42234,42234,42234,42235,42235,42235,42264,42264,42264,42264,42264,42264,42264,42264,42265,42266,42266,42266,42266,42266,42296,42296,42296,42297,42297,42298,42298,42298,42298,42298,42325,42325,42326,42327,42327" d="m282,249c4.62183,1.757 5.56546,1.89465 6.05734,1.92799c1.02423,0.06941 1.56146,0.06703 3.276,0.07201c0.60983,0.00177 1.23883,-0.0076 2.54932,0.02133c0.67999,0.01501 1.37509,0.0442 2.0835,0.093c0.72232,0.04974 2.20157,0.21184 2.95517,0.32834c0.76382,0.11807 1.53168,0.26091 2.30402,0.40799c0.77499,0.14758 1.54868,0.30219 2.32199,0.444c0.76804,0.14084 2.28473,0.38321 3.03101,0.46251c1.45782,0.15491 2.17487,0.18373 2.88,0.222c0.69485,0.0377 1.38037,0.06247 2.05499,0.1035c1.96707,0.11963 2.60684,0.19962 3.2475,0.26999c0.64603,0.07095 1.97217,0.22517 2.66333,0.29468c0.71552,0.07196 2.24225,0.19067 3.06116,0.23132c0.85046,0.04221 1.72531,0.06978 2.616,0.09601c0.89865,0.02646 1.79742,0.04839 2.68802,0.078c0.87476,0.0291 2.5444,0.10864 3.32516,0.16866c0.7486,0.05754 1.47052,0.12971 2.17349,0.20401c0.69135,0.07307 1.37711,0.15175 2.06549,0.222c0.69693,0.07112 2.14624,0.19107 2.91086,0.23116c0.79007,0.04143 1.6026,0.06747 2.43298,0.08551c0.84427,0.01834 1.69867,0.02682 2.55902,0.03149c0.8623,0.00467 2.577,0.0045 3.422,0.0045c0.83499,0 1.66,0 2.47498,0c0.80502,0 1.60001,0 2.38501,0c0.77499,0 2.29501,0 3.0405,0c0.73849,0 1.47299,0 2.20651,0c0.7355,0 1.47598,0 2.22449,0c0.75952,0 2.32352,0 3.13266,0c0.82419,0 1.65836,0 2.49753,0c0.83914,0 1.67331,0 2.4975,0c0.80914,0 2.36249,0 3.09799,0c0.7085,0 1.39301,0 2.702,0c0.63049,0 1.24899,0 1.85849,0c1.80368,0 2.40134,0 3.58267,0c0.57968,0 1.14935,0 2.25067,0c1.03732,0 2.00052,-0.01472 2.89868,0.02133c0.85147,0.03419 1.68381,0.09171 2.87183,0.42134c0.80737,0.22401 1.18832,0.41101 1.96417,0.70665c0.74954,0.28561 2.14798,0.68002 2.77866,0.77869l0.8385,0.06299l1.2135,0.009l0.77332,0" id="svg_16" stroke-width="2" stroke="#000" fill="none"/>
  <path t="46319,46545,46546,46546,46565,46565,46565,46565,46565,46565,46587,46587,46587,46588,46588,46607,46607,46607,46607,46607,46607,46626,46626,46626,46626,46627,46645,46645,46645,46663,46663,46663,46663,46678,46679,46679,46679,46679,46695,46695,46695,46695,46734,46734,46734,46734,46734,46755,46755,46755,46755,46755,46756,46756,46756,46756,46758,46758,46758,46759,46759,46778,46778,46778,46779,46780,46780,46780,46780,46780,46780,46800,46800,46800,46821,46821,46822,46822,46822,46843,46843,46843,46843,46864,46865,46865,46865,46883,46884,46884,46905,46905,46905,46905,46928,46928,46928,46928,46949,46949,46949,46949,46949,46951,46951,46951,46951,46951,46951,46952,46952,46952,46986,46986,46986,46986,46988,46988,46988,46988,47021,47021,47021,47022,47023,47055,47055,47055,47057,47057,47057,47088,47089,47089,47090,47090,47091,47091,47122,47123,47125,47125,47157,47157" d="m394,258c-4.51733,0.00134 -5.18689,-0.01584 -6.20984,0.05716c-1.12598,0.08035 -1.96054,0.22369 -2.39999,0.3045c-0.9133,0.16797 -1.84506,0.38916 -2.3075,0.52499c-1.37128,0.40277 -2.23401,0.76721 -3.10352,1.11334c-0.44025,0.17526 -1.34048,0.54144 -2.3125,0.83334c-1.02692,0.30841 -1.57028,0.41754 -2.66666,0.64581c-0.54852,0.1142 -1.63348,0.31201 -2.66666,0.52084c-0.96146,0.19434 -1.84698,0.38724 -2.64001,0.63599c-0.72702,0.22806 -1.65475,0.67865 -2.44266,1.17868c-0.504,0.31985 -1.57681,0.88266 -2.22,1.01733c-1.04224,0.21823 -1.79913,0.20526 -2.86401,0.50134c-0.69632,0.1936 -1.34698,0.52826 -1.992,0.888c-0.6647,0.3707 -1.69073,0.98877 -2.43182,1.37415c-0.75824,0.39429 -1.53516,0.77811 -2.74283,1.23785c-0.79251,0.3017 -1.59796,0.53812 -2.39999,0.75598c-0.79803,0.21677 -1.60123,0.40591 -2.39868,0.612c-0.79187,0.20465 -1.57629,0.40387 -2.31598,0.68402c-1.42621,0.54019 -2.06592,0.9494 -2.74667,1.28931c-0.70322,0.3511 -1.87994,0.80798 -2.30533,0.94269c-0.87091,0.27582 -1.76852,0.49036 -2.58002,0.85199c-1.12454,0.50113 -1.69568,1.04086 -2.27417,1.53067c-0.59015,0.49966 -1.63248,1.20041 -2.51517,1.52933c-0.46829,0.1745 -1.46317,0.43253 -1.96265,0.54935c-0.96378,0.22543 -2.22375,0.4968 -2.88168,0.72583c-0.86075,0.29962 -1.95084,0.86655 -2.58899,1.17816c-0.6897,0.33676 -1.40479,0.68591 -2.14801,0.948c-1.04724,0.36926 -2.05682,0.51236 -2.70801,0.58401c-0.6582,0.07242 -2.06088,0.26013 -2.79999,0.42133c-0.75174,0.16397 -1.49591,0.34726 -2.55301,0.66415c-0.98013,0.29382 -1.60925,0.4711 -2.655,1.0665c-0.50232,0.28598 -1.14896,0.88361 -1.936,1.26401c-0.83975,0.40585 -1.90213,0.51337 -2.65198,0.58401c-0.78082,0.07358 -1.98096,0.19556 -2.78769,0.3425c-0.83484,0.15204 -1.26212,0.25751 -2.16165,0.44415c-1.47034,0.30508 -1.9938,0.40222 -3.05865,0.58801c-0.52859,0.09222 -1.55023,0.25903 -2.03201,0.32532c-1.59756,0.21979 -2.21829,0.23898 -3.035,0.33801c-1.15045,0.1395 -1.81769,0.29324 -2.52451,0.48898c-0.73569,0.20374 -2.16135,0.77213 -2.82199,1.10651c-0.63995,0.32388 -1.22128,0.73276 -2.45682,1.10901c-0.57983,0.17657 -1.46088,0.12488 -2.55768,0.46417c-0.82968,0.25665 -1.68396,0.66971 -2.40399,0.75333c-0.78903,0.09161 -1.83453,0.19955 -2.51334,0.47198c-0.9375,0.37625 -1.63922,0.88736 -2.46133,1.36801c-0.56952,0.33298 -1.75653,0.8822 -2.36267,1.01599c-0.87195,0.19244 -1.73175,0.18549 -2.71466,0.45334c-0.8576,0.2337 -1.80267,0.63199 -2.57068,0.80002l-0.76868,0.26865l-0.86331,0.36334" id="svg_17" stroke-width="2" stroke="#000" fill="none"/>
  <path t="51207,51428,51428,51428,51428,51445,51445,51445,51445,51467,51467,51467,51467,51467,51467,51486,51486,51486,51486,51486,51486,51504,51504,51504,51504,51504,51504,51504,51523,51523,51523,51523,51523,51523,51523,51541,51542,51542,51542,51542,51542,51558,51558,51559,51559,51559,51559,51575,51575,51575,51575,51575,51575,51575,51576,51576,51592,51592,51592,51592,51592,51592,51592,51593,51609,51609,51609,51609,51609,51609,51609,51609,51610,51627,51627,51627,51627,51627,51627,51627,51627,51645,51645,51645,51646,51646,51646,51646,51663,51663,51663,51663,51663,51663,51663,51663,51680,51681,51681,51681,51681,51681,51681,51681,51681,51698,51698,51699,51699,51699,51699,51699,51699,51699,51717,51717,51717,51717,51717,51718,51718,51718,51735,51736,51736,51736,51736,51736,51736,51754,51754,51754,51754,51754,51754,51755,51755,51755,51773,51773,51773,51773,51774,51774,51774,51774,51774,51792,51792,51792,51792,51792,51793,51793,51793,51810,51811,51811,51811,51811,51811,51811,51811,51813,51813,51813,51813,51813,51813,51814,51814,51814,51844,51844,51844,51844,51845,51845,51845,51845,51847,51847,51847,51848,51848,51848,51848,51865,51866,51866,51866,51866,51866,51866,51866,51868,51868,51868,51868,51869,51869,51869,51887,51887,51888,51888,51888,51888,51888,51907,51907,51907,51907,51907,51907,51925,51926,51926,51926,51926,51926,51945,51945,51945,51946,51946,51946,51946,51965,51965,51965,51965,51966,51966,51966,51984,51985,51985,51985,51985,51985,52003,52004,52004,52004,52004,52023,52023,52024,52024,52024,52042,52043,52043,52043,52043,52062,52062,52062,52064,52064,52064" d="m283,242c-2.97067,2.744 -3.66992,2.91649 -4.42133,2.968c-0.78,0.05348 -1.97885,0.032 -2.78317,0.032c-0.81635,0 -1.65268,-0.00095 -2.96216,0c-0.92001,0.00067 -1.39514,-0.00204 -2.375,0.02083c-0.5051,0.0118 -1.54639,0.04797 -2.625,0.14584c-1.11902,0.10155 -1.68713,0.18282 -2.83334,0.35416c-0.57526,0.086 -1.14856,0.17683 -2.83334,0.47917c-0.5459,0.09796 -1.61905,0.30183 -2.15198,0.41066c-1.07715,0.21996 -1.62555,0.34209 -2.18402,0.47467c-1.7767,0.42178 -2.39853,0.59782 -3.036,0.76283c-0.6452,0.16701 -1.29181,0.34317 -2.58932,0.642c-0.636,0.14647 -1.86974,0.39343 -3.03467,0.54184c-0.55536,0.07076 -1.62947,0.16341 -2.14934,0.21866c-1.01965,0.10835 -2.02663,0.26128 -3.02533,0.52c-0.51247,0.13277 -1.55881,0.47009 -2.104,0.65067c-0.5638,0.18672 -2.39084,0.78258 -3.05634,0.9785c-0.68915,0.20288 -1.40173,0.39922 -2.133,0.58951c-0.74341,0.19345 -1.49785,0.3782 -2.259,0.5535c-0.76152,0.17537 -2.27629,0.49413 -3.02232,0.63567c-0.73666,0.13976 -1.46802,0.26833 -2.19601,0.3855c-1.4494,0.23329 -2.17773,0.33339 -2.90933,0.43466c-1.48215,0.20517 -2.23755,0.30011 -3,0.40401c-0.76888,0.10477 -1.5421,0.21381 -2.31599,0.339c-0.77548,0.12546 -1.55009,0.25963 -2.31599,0.429c-1.52327,0.33685 -2.26413,0.56552 -2.996,0.79599c-0.72382,0.22794 -1.43069,0.47324 -2.1255,0.71249c-0.67987,0.2341 -1.9817,0.69992 -3.22917,1.02084c-0.5871,0.15103 -1.73167,0.33994 -2.29333,0.40268c-0.56009,0.06256 -1.70259,0.13962 -2.29332,0.17865c-1.24687,0.0824 -2.60307,0.2016 -3.31818,0.28033c-0.73692,0.08115 -1.49156,0.17596 -2.2605,0.285c-0.78209,0.1109 -1.57449,0.2262 -3.168,0.51999c-0.80132,0.14774 -1.60042,0.31543 -2.39999,0.48602c-0.80042,0.17075 -1.59979,0.34827 -2.40001,0.52197c-0.7998,0.17361 -1.59746,0.35434 -3.2,0.65869c-0.79846,0.15164 -1.59686,0.28427 -2.39101,0.40948c-0.7872,0.12411 -1.56715,0.23746 -2.33699,0.3465c-0.75752,0.1073 -1.50185,0.20584 -2.93867,0.41068c-0.69073,0.09848 -1.36458,0.19766 -2.0235,0.3045c-1.29018,0.2092 -1.92514,0.32822 -2.558,0.45267c-0.63515,0.12491 -2.57356,0.56305 -3.23717,0.72549c-0.67207,0.16452 -1.34998,0.3349 -2.03549,0.49649c-0.68915,0.16245 -1.37503,0.3627 -3.47917,0.6875c-0.69789,0.10773 -1.40221,0.16968 -2.10899,0.22351c-0.71193,0.05423 -1.43262,0.09027 -2.16301,0.12451c-0.74226,0.03479 -1.49928,0.0571 -3.06133,0.15198c-0.80971,0.04919 -1.63495,0.1156 -2.472,0.19052c-0.84563,0.07571 -1.69492,0.16147 -2.54401,0.25348c-0.84558,0.09164 -1.6832,0.18628 -3.31734,0.38934c-0.79042,0.09821 -1.56194,0.19846 -2.3145,0.30899c-0.73677,0.10822 -1.45769,0.22549 -2.1615,0.36301c-0.69257,0.13531 -2.69341,0.65308 -3.33617,0.87067c-0.64134,0.21713 -1.27354,0.46127 -1.90649,0.70801c-0.63605,0.24792 -1.92023,0.75623 -2.584,0.98132c-1.35574,0.45978 -2.07161,0.6333 -2.8,0.79868c-0.73868,0.16772 -1.49149,0.31085 -2.2515,0.44849c-0.76399,0.13837 -1.53177,0.26471 -2.29651,0.4035c-1.51756,0.27545 -2.26224,0.4332 -2.996,0.60135c-1.44249,0.3306 -2.14506,0.51575 -2.84,0.69064c-0.68506,0.17242 -1.35767,0.3512 -2.68,0.65869c-0.64423,0.14981 -1.91315,0.40967 -2.54133,0.51999c-0.62453,0.10968 -1.24819,0.22092 -2.50934,0.36002c-1.28049,0.14124 -1.93728,0.16956 -2.60133,0.20264c-1.35026,0.06729 -2.03554,0.0831 -2.72533,0.10934c-0.69387,0.0264 -1.39153,0.04507 -2.78933,0.14133c-0.70017,0.04822 -2.0917,0.18954 -2.77866,0.28c-0.6804,0.0896 -1.3517,0.18723 -2.007,0.315c-1.88853,0.36826 -2.47335,0.55273 -3.04366,0.72235c-1.10273,0.32797 -1.6285,0.51749 -2.66167,0.86331c-0.50609,0.1694 -2.00763,0.63696 -2.51034,0.76733c-1.00639,0.26099 -1.51813,0.37119 -2.55583,0.58084c-0.5275,0.10657 -2.16438,0.40439 -2.72816,0.50583c-0.57189,0.10291 -1.736,0.31702 -2.32533,0.43466c-0.59435,0.11865 -2.39018,0.5274 -2.98933,0.68518c-0.60087,0.15823 -1.79937,0.49582 -2.4,0.65799c-0.59938,0.16183 -1.19009,0.36194 -3,0.6875c-0.59704,0.10739 -1.19756,0.17706 -2.38934,0.272c-0.58935,0.04697 -1.17525,0.06686 -2.32533,0.14401c-1.1193,0.07507 -2.19952,0.19659 -2.72366,0.27451c-1.02183,0.15186 -1.51689,0.24417 -2.475,0.44415c-1.36817,0.28555 -2.23483,0.49988 -2.66134,0.60934c-0.85237,0.21875 -1.71394,0.46078 -3.04666,0.91049c-0.46432,0.15668 -1.40101,0.50241 -2.35334,0.8175c-0.47122,0.15591 -1.85439,0.55286 -2.73866,0.69199c-0.83662,0.13162 -1.64153,0.1687 -2.4,0.25201c-1.06758,0.11728 -1.725,0.27451 -2.64,0.52798l-1.08,0.38934l-0.7095,0.2955l-0.6465,0.26849" id="svg_19" stroke-width="2" stroke="#000" fill="none"/>
  <path t="52480,52694,52695,52695,52711,52711,52711,52711,52727,52728,52728,52728,52728,52748,52748,52748,52748,52748,52762,52762,52762,52762,52763,52763,52778,52778,52778,52778,52779,52779,52794,52794,52794,52794,52794,52794,52812,52812,52812,52812,52812,52828,52828,52829,52829,52829,52829,52845,52845,52845,52845,52845,52845,52846,52862,52862,52862,52862,52862,52862,52863,52877,52877,52877,52878,52878,52878,52878,52895,52895,52895,52895,52895,52895,52896,52912,52912,52912,52912,52913,52913,52913,52928,52928,52928,52929,52929,52929,52953,52953,52953,52953,52953,52953,52953,52967,52967,52967,52968,52968,52968,52980,52981,52981,52981,52981,52981,52997,52997,52997,52997,53012,53012,53012,53028,53029,53029,53177,53178,53227,53228,53245,53245,53262,53262,53262,53278,53278,53279,53293,53294,53294,53294,53312,53312,53312,53312,53328,53328,53328,53328,53328,53345,53345,53345,53345,53345,53361,53362,53362,53362,53363,53363,53378,53378,53378,53378,53378,53378,53395,53395,53395,53396,53396,53412,53412,53413,53413,53413,53428,53428,53429,53429,53429,53445,53445,53446,53446,53446,53462,53462,53462,53463,53463,53478,53478,53478,53478,53478,53478,53494,53495,53496,53496,53496,53511,53512,53512,53512,53513,53513,53528,53528,53529,53529,53529,53545,53545,53546,53546,53546,53562,53562,53563,53563,53578,53579,53579,53580,53580,53594,53595,53595,53596,53612,53612,53613,53613,53628,53628,53629,53629,53645,53645,53645,53646,53661,53662,53662,53678,53678,53694,53695,53696,53711,53712,53712,53728,53744,53745,53781,53811,53812,54111" d="m286,287c-2.01883,0 -2.85733,0 -3.48801,0c-1.03366,0 -2.15866,0 -2.95865,0c-0.41501,0 -1.72,-0.00388 -2.63736,0.00134c-0.94135,0.00537 -1.4169,0.00031 -2.36331,0.05582c-1.38794,0.08139 -2.27008,0.22177 -2.70001,0.3045c-0.85574,0.16467 -1.71121,0.38141 -3.01932,0.80499c-0.45715,0.14804 -1.39178,0.49121 -2.375,0.8125c-0.50342,0.16449 -1.53909,0.48038 -2.625,0.6875c-0.55188,0.10526 -1.68112,0.22858 -2.24802,0.272c-1.12326,0.08606 -1.67789,0.08115 -3.25198,0.228c-0.49142,0.04584 -1.4238,0.18436 -2.3125,0.33334c-0.86928,0.14572 -1.30002,0.24796 -2.64235,0.37866c-0.93375,0.09094 -1.89941,0.11951 -2.38916,0.14667c-0.99088,0.05496 -1.9911,0.12732 -2.992,0.26132c-0.50734,0.06793 -1.54005,0.24982 -2.06934,0.36002c-1.10097,0.22922 -2.26195,0.51752 -2.87067,0.67465c-1.26399,0.32626 -1.90799,0.50403 -2.55733,0.67868c-0.64934,0.17465 -1.29153,0.35956 -3.16667,0.83334c-0.58971,0.14899 -1.16368,0.28882 -2.28267,0.53067c-0.54987,0.11884 -1.65547,0.33438 -2.21866,0.43466c-1.16428,0.20731 -2.40013,0.40182 -3.03734,0.50583c-0.64546,0.10535 -1.29564,0.21097 -1.944,0.33148c-1.28468,0.23877 -2.51952,0.52258 -3.108,0.68533c-1.14177,0.31573 -1.69177,0.50476 -2.24266,0.67868c-1.10486,0.34882 -1.66161,0.54044 -2.83333,0.83334c-1.2285,0.3071 -1.8714,0.41275 -2.51733,0.53067c-0.64874,0.11844 -1.94406,0.33112 -2.58134,0.43466c-1.23479,0.20062 -1.82506,0.30273 -2.96266,0.49683c-0.55453,0.0946 -1.65482,0.27719 -2.21066,0.34732c-1.72479,0.21759 -2.33704,0.23828 -2.96133,0.27451c-0.63405,0.0368 -1.9128,0.09915 -2.54666,0.14401c-0.6245,0.04419 -2.38989,0.25726 -2.9225,0.38132c-1.00854,0.23492 -1.47658,0.41092 -2.40417,0.70667c-0.46037,0.14679 -1.8898,0.54138 -2.92667,0.68134c-0.53264,0.0719 -1.61249,0.14868 -2.14667,0.18402c-1.03329,0.06836 -1.98976,0.1315 -2.83066,0.26932c-0.75122,0.12311 -1.73586,0.39966 -2.65601,0.54935c-0.89046,0.14487 -1.76396,0.16132 -2.83333,0.16666c-0.70949,0.00354 -1.56216,0 -2.56534,0c-0.94417,0 -1.85316,0 -2.57066,0c-1.0405,0 -1.81601,0 -2.864,0c-0.714,0 -1.61934,0 -2.58817,0c-0.8145,0 -1.68301,0 -2.57851,0c-0.9045,0 -1.836,0 -2.48534,0c-1.03616,0 -2.15067,0 -2.92532,0c-0.79068,0 -1.9895,0 -2.79384,0c-0.81633,0 -1.23151,0 -2.08084,0c-1.33617,0 -2.27182,0 -2.75066,0c-0.97467,0 -1.96533,0 -2.964,0c-1.00133,0 -1.5045,0 -2.52083,0c-1.03633,0 -1.5645,0 -3.20033,0c-0.56151,0 -1.127,0 -2.25801,0c-0.55949,0 -1.65149,0 -2.6875,0c-0.96399,0 -1.87199,0 -2.748,0c-0.43349,0 -1.752,0 -2.66933,0c-0.94133,0 -1.416,0 -2.36333,0c-1.386,0 -2.26733,0 -2.69551,0c-0.83633,0 -1.65266,0 -2.85716,0c-0.80133,0 -1.61067,0 -2.436,0c-0.84933,0 -2.18552,0.00372 -3.12116,-0.00449c-0.47886,-0.00421 -1.45387,-0.02405 -1.94733,-0.05267c-1.49699,-0.08682 -2.49539,-0.22177 -2.991,-0.3045c-0.98635,-0.16467 -1.47627,-0.25607 -2.41917,-0.52499c-1.3768,-0.39264 -2.23614,-0.76422 -2.67067,-0.92801c-0.87396,-0.32947 -1.77493,-0.65674 -2.748,-0.85199c-1.0269,-0.20605 -1.57105,-0.23508 -2.66666,-0.29169c-0.54897,-0.02838 -1.632,-0.03961 -2.66666,-0.04166c-0.96267,-0.00189 -1.86166,-0.00156 -2.71201,-0.03601c-0.41254,-0.01672 -1.62313,-0.11896 -2.42133,-0.24799c-0.80197,-0.12964 -1.59731,-0.30682 -2.39999,-0.43201c-1.19649,-0.18661 -1.99961,-0.23682 -2.8,-0.26315c-0.79974,-0.02634 -2.00002,-0.01685 -2.8,-0.02219c-0.80003,-0.00534 -1.60152,-0.01416 -2.39999,-0.08398c-1.20309,-0.10519 -2,-0.26733 -2.8,-0.41467c-0.8,-0.14734 -1.99927,-0.34058 -2.79733,-0.41733c-0.78069,-0.07507 -1.5631,-0.01633 -2.86933,-0.41602c-0.58531,-0.17911 -1.30187,-0.72809 -2.10133,-1.09866c-0.84671,-0.39246 -1.89239,-0.51205 -2.61733,-0.54666c-0.73141,-0.03491 -1.79284,-0.02133 -2.75734,-0.02133c-0.83849,0 -1.88933,0 -2.66267,0c-0.96533,0 -1.73633,0 -2.59733,0c-0.897,0 -1.776,0.00052 -2.583,0c-1.04367,-0.00067 -1.96629,-0.24551 -2.71433,-0.64734c-0.77996,-0.41898 -1.784,-0.35266 -2.47467,-0.35266l-1.06367,-0.00449" id="svg_20" stroke-width="2" stroke="#000" fill="none"/>
  <path t="54965,55327,55328,55328,55328,55345,55345,55345,55345,55345,55345,55361,55361,55361,55361,55361,55361,55361,55378,55378,55378,55378,55378,55378,55378,55378,55378,55394,55395,55395,55395,55395,55396,55396,55396,55396,55415,55415,55415,55415,55415,55415,55437,55437,55437,55437,55437,55437,55437,55459,55459,55459,55459,55459,55459,55480,55480,55480,55480,55480,55502,55503,55503,55522,55522,55522,55541,55541,55711,55711,55732,55754,55775,55775,55797,55797,55797,55818,55818,55819,55819,55838,55838,55839,55858,55858,55858,55858,55877,55877,55877,55877,55896,55897,55897,55898,55898,56011,56011,56031,56031,56032,56053,56053,56054,56075,56075,56075,56075,56075,56097,56097,56097,56097,56097,56119,56119,56119,56119,56119,56120,56139,56139,56139,56139,56170,56170,56170,56170,56170,56190,56190,56190,56190,56190,56190,56192,56193,56193,56193,56193,56194,56194,56194,56195,56195,56195,56196,56196,56196,56197,56197,56197,56216,56216,56216,56216,56216,56216,56235,56235,56236,56236,56236,56236,56236,56236,56256,56256,56257,56257,56257,56257,56257,56257,56278,56278,56279,56279,56279,56279,56279,56279,56281,56281,56281,56281,56281,56281,56282,56282,56302,56302,56302,56302,56302,56303,56325,56325,56326,56326,56326,56326,56326,56329,56329,56329,56329,56329,56329,56351,56351,56352,56352,56352,56373,56373,56373,56373,56374,56401,56401,56401,56401,56426,56426,56426,56449,56450,56450" d="m78,292c-4.51466,-0.57468 -5.19016,-0.86789 -5.78933,-1.32935c-0.63947,-0.49249 -1.51938,-1.52881 -1.81067,-1.92798c-0.61878,-0.84793 -0.91072,-1.31958 -1.5,-2.31335c-0.3056,-0.51538 -0.90191,-1.59494 -1.20016,-2.15082c-0.60824,-1.13361 -0.9096,-1.715 -1.22067,-2.29935c-0.31424,-0.5903 -0.61649,-1.19495 -1.64583,-2.97916c-0.3485,-0.60406 -0.71741,-1.2038 -1.0995,-1.8045c-0.3872,-0.6087 -0.79237,-1.21906 -1.2165,-1.83148c-0.43215,-0.62399 -0.87821,-1.25778 -1.85067,-2.53067c-0.50328,-0.65875 -1.03089,-1.31555 -1.563,-1.97702c-0.53189,-0.66119 -1.06348,-1.31348 -1.581,-1.95898c-0.50444,-0.62918 -1.00059,-1.23035 -1.856,-2.39734c-0.38861,-0.53018 -1.05038,-1.53085 -1.344,-2.00266c-0.55846,-0.89734 -0.79675,-1.35535 -1.656,-2.664c-0.30194,-0.45984 -0.97773,-1.38852 -1.33867,-1.85867c-0.36636,-0.47723 -1.13306,-1.42532 -1.53067,-1.89066c-0.78957,-0.92404 -1.59359,-1.79837 -1.98833,-2.22235c-0.76525,-0.82193 -1.14491,-1.20778 -1.83833,-1.97499c-0.64476,-0.71336 -1.20993,-1.39383 -1.69867,-2.05067c-0.46013,-0.61841 -0.86178,-1.23976 -1.672,-2.43333c-0.39632,-0.58385 -0.73273,-1.19243 -1.6,-2.06934c-0.55547,-0.56165 -1.39159,-0.95731 -2.11467,-1.53467c-0.62823,-0.50163 -1.15214,-1.25087 -1.52817,-2.146c-0.36356,-0.86545 0.05531,-1.48587 0.8455,-1.93933c0.6717,-0.38547 1.32534,-1.0574 2.06933,-1.528c0.53899,-0.34093 1.72053,-0.88222 2.32667,-1.01601c0.87195,-0.19246 1.73706,-0.16759 2.71867,-0.45732c0.72427,-0.21378 1.45876,-0.67378 2.3255,-1.2545c0.67234,-0.45047 1.36016,-0.96643 2.109,-1.395c1.05801,-0.60551 1.75511,-0.84645 2.72733,-1.02083c0.61244,-0.10985 1.8255,-0.24298 2.41183,-0.39883c0.8452,-0.22467 1.76503,-0.66087 2.56733,-1.12201c0.83996,-0.48279 1.51325,-0.5563 2.556,-0.51183c0.80872,0.0345 1.42434,0.06712 2.58434,0.563c0.61366,0.26233 1.47924,0.85648 2.23467,1.59467c0.50743,0.49585 0.94807,1.075 1.392,1.67999c0.46581,0.63483 1.19034,1.67928 1.73634,2.41051c0.57373,0.76837 0.87521,1.1615 1.52499,1.94417c0.67002,0.80705 1.39475,1.59848 1.76151,1.99416c0.72852,0.78598 1.1011,1.15886 1.7825,1.91917c0.94151,1.05055 1.45388,1.73204 1.96933,2.34366c0.49574,0.58823 1.32006,1.39296 1.96933,1.85901c0.67866,0.48715 1.06681,0.68135 1.7825,1.19249c1.10619,0.79002 1.76916,1.45471 2.0955,1.8c0.66294,0.70142 1.29852,1.44829 1.63667,1.80751c1.01721,1.08063 1.39628,1.40288 2.14133,2.05731c0.74563,0.65494 1.1524,0.94641 2.208,1.992c0.70354,0.69687 1.01506,1.08508 1.66666,1.83334c0.32586,0.37421 0.95873,1.14127 2.0215,2.17883c0.35558,0.34717 1.1152,1.00571 1.49934,1.34201c0.7851,0.68735 1.20656,1.02246 2.37917,2.22217c0.40929,0.41876 0.80779,0.86465 1.6,1.79865c0.404,0.47632 0.80215,0.96561 2,2.45834c0.40089,0.49957 0.80116,1.00146 1.2045,1.50449c0.406,0.50632 1.23111,1.53183 1.65267,2.05267c0.42776,0.5285 1.30853,1.61029 1.76433,2.164c0.46286,0.56229 0.92812,1.13348 1.89934,2.258c0.48607,0.56277 0.97729,1.11694 1.4805,1.65152c0.98631,1.04776 1.49483,1.53076 2,2c0.49925,0.46375 1.51777,1.35052 2.03467,1.784c0.51943,0.43558 1.05012,0.86703 2.13066,1.75198c0.55457,0.45419 1.12063,0.90881 2.22667,1.85867c0.54781,0.47046 1.0783,0.94406 1.5825,1.422c0.48904,0.46356 1.37637,1.3707 2.08817,2.26733c0.33434,0.42117 0.92112,1.27585 1.54666,2.08084c0.31788,0.40906 1.4682,1.61203 1.928,2.00183c0.47413,0.40192 0.97298,0.797 2.032,1.53067c0.52763,0.36554 1.05698,0.71283 2.096,1.33865c0.95632,0.57602 1.86361,1.0788 2.29167,1.33334c0.83718,0.4978 1.27097,0.72568 2.44134,1.64282c0.81462,0.63837 1.18971,1.0076 1.92833,1.74252c0.36301,0.36121 1.34811,1.44028 1.90266,2.12933c0.51689,0.64227 0.97437,1.28217 1.452,1.884c0.72426,0.9126 1.25972,1.50241 1.81734,2.05966c0.5376,0.53723 1.31183,1.23904 2.04283,1.72733c0.62914,0.42023 1.657,0.91449 2.43634,1.33517l0.53549,0.3645" id="svg_21" stroke-width="2" stroke="#000" fill="none"/>
  <path t="56965,57144,57144,57144,57144,57163,57163,57163,57163,57163,57163,57163,57163,57185,57185,57185,57185,57185,57185,57206,57206,57206,57206,57206,57206,57228,57228,57228,57228,57228,57229,57229,57230,57230,57230,57252,57252,57252,57252,57273,57294" d="m59,255c0.004,3.88934 0.01125,4.6701 0.108,5.51868c0.05231,0.45874 0.38327,1.98395 0.5565,2.54532c0.18235,0.59091 0.63713,1.81464 0.898,2.436c0.26311,0.62671 0.53868,1.24808 0.8415,1.84799c0.861,1.70578 1.19257,2.19913 1.487,2.68951c0.56588,0.94254 0.87024,1.38528 1.33833,2.32916c0.47139,0.95053 0.80953,1.99896 0.96084,2.53867c0.30563,1.09015 0.41087,1.64749 0.6925,2.72665c0.27093,1.03818 0.59477,2.0004 0.7745,2.45367c0.34846,0.87888 0.74383,1.70706 1.34283,2.91434c0.19868,0.40042 0.59975,1.19342 0.97916,1.97916c0.36781,0.76169 0.86591,1.84946 1.13417,2.53284c0.36091,0.91943 0.6,1.716 0.834,2.66916l0.33933,0.73352" id="svg_22" stroke-width="2" stroke="#000" fill="none"/>
  <path t="57834,58027,58027,58027,58044,58044,58044,58044,58044,58044,58061,58062,58062,58062,58062,58062,58077,58078,58078,58078,58078,58078,58078,58078,58094,58094,58094,58094,58094,58094,58094,58094,58111,58112,58112,58112,58112,58112,58112,58127,58128,58128,58128,58128,58128,58128,58144,58144,58144,58144,58162,58162,58162" d="m122,296c1.43317,-0.93832 2.10501,-0.97958 2.87517,-0.93832c1.2939,0.06934 2.21122,0.21863 2.682,0.29999c0.966,0.16696 1.45794,0.26736 2.44416,0.52499c1.00351,0.26215 2.00198,0.59814 2.51218,0.76151c1.04759,0.33542 1.58604,0.526 2.74249,0.7825c1.23615,0.27417 1.90755,0.33435 2.59866,0.39999c0.71162,0.0676 1.44254,0.11072 2.18701,0.1485c0.7542,0.03827 2.2778,0.08997 3.79166,0.1875c0.74547,0.04803 1.48026,0.11487 2.205,0.186c0.71524,0.07022 1.41995,0.1478 2.11501,0.22202c0.68495,0.07312 2.67975,0.26239 3.32516,0.30399c0.63594,0.04099 1.2643,0.06934 2.50067,0.12134c0.61015,0.02567 1.21809,0.02756 3.02083,0.16666c0.60037,0.04633 1.19798,0.112 2.37866,0.25867c0.58,0.07205 1.14787,0.16125 2.25067,0.29068c1.52548,0.17902 1.9968,0.20938 2.87733,0.24799c0.79964,0.03506 2.16,0.03601 2.72267,0.03601l0.94933,0" id="svg_23" stroke-width="2" stroke="#000" fill="none"/>
  <path t="60616,60854,60854,60854,60872,60872,60872,60904,60904,60904,60904,60906,60906,60906,60906,60906,60929,60929,60929,60929,60948,60948,60971,60971,60971,61854,61854,61903,61904,61920,61953,61954,62003,62003,62037,62070,62104,62104,62220,62236,62237,62237,62254,62254,62254,62271,62271,62271,62271,62288,62288,62288,62305,62305,62305,62305,62323,62323,62353,62354,62421,62421" d="m411,184c-0.12866,-0.70984 -0.83151,-1.20506 -1.40533,-1.51733c-1.17322,-0.63844 -1.79034,-0.85869 -2.69467,-1.17816c-0.89584,-0.31648 -1.80713,-0.6017 -2.42084,-0.82533c-0.96875,-0.35301 -2.00345,-0.79466 -2.73633,-1.13634c-0.76663,-0.35741 -1.15433,-0.55183 -1.94415,-0.94417c-1.19943,-0.59581 -1.98288,-0.99437 -2.73618,-1.35699c-0.68893,-0.33165 -1.80548,-0.77811 -2.54166,-1.04167c-0.86325,-0.30907 -1.52078,-0.71451 -2.27017,-1.14934c-0.91092,-0.52856 -1.58734,-0.81464 -2.57199,-0.85066c-0.85275,-0.0312 -1.79333,0 -2.67868,0c-0.75717,0 -1.65268,0 -2.51599,0c-0.96317,0 -1.89468,0 -2.80533,0c-0.85333,0 -2.05789,-0.24712 -2.51202,0.5c-0.4118,0.67749 -0.14871,1.61093 0.49768,2.35733c0.52484,0.60605 1.43616,0.88823 2.16901,1.476c0.76489,0.61346 1.12534,1.20761 1.85065,1.89867c0.69998,0.66692 1.5502,1.11047 2.12668,1.38268c1.18567,0.55984 1.79416,0.85683 2.36801,1.21066c0.81808,0.50443 1.69751,1.13097 2.27966,1.65384c0.76944,0.69112 1.29883,1.16367 2.18982,1.47266l0.7825,0.2175" id="svg_24" stroke-width="2" stroke="#000" fill="none"/>
  <path t="65542,65763,65763,65763,65781,65781,65781,65781,65802,65803,65803,65803,65803,65820,65820,65820,65820,65820,65837,65837,65837,65837,65837,65863,65864,65864,66013,66029,66029,66029,66046,66046,66046,66046,66063,66063,66063,66080,66080,66097,66163,66179,66179,66196,66196,66196,66196,66213,66213,66230,66230,66247,66247,66264,66264,66264,66281,66281,66281,66296,66296,66296,66312,66312,66329,66329,66346,66346,66396,66529,66530,66596,66645,66679,66696,66729,66745,66746,66763,66781,66781,66798,66798,66816,66816,66846,66846,66863,66863,66863,66898" d="m463,265c0.02133,-1.14801 0.03854,-0.52005 0.17065,0.20932c0.21768,1.20187 0.52692,1.99774 0.871,2.79068c0.35043,0.80753 0.95914,1.9996 1.15817,2.39999c0.39728,0.79922 0.79486,1.59314 1.14301,2.39999c0.51361,1.19031 0.7764,1.99857 0.89999,2.40002c0.24545,0.79724 0.45361,1.59973 0.75717,2.79999c0.20197,0.79852 0.39612,1.59372 0.63599,2.36401c0.23517,0.75522 0.64746,1.83499 1.18936,2.76797c0.32697,0.56293 1.77859,1.21472 1.508,1.86801c-0.26331,0.63565 -1.50851,0 -2.5,0c-1.08151,0 -1.8125,0 -2.5235,0c-1.26685,0 -2.03784,0 -2.90717,0c-0.99817,0 -1.74551,-0.00162 -2.76669,0c-0.83466,0.00134 -1.5654,0.43823 -1.62531,1.29333c-0.07269,1.03751 -0.01068,1.67334 -0.01068,2.68582c0,0.65836 -0.10132,1.76669 0.03601,2.62485c0.14453,0.90317 0.47604,1.64053 1.16666,2.51065c0.41498,0.52286 1.32883,1.01602 2.06934,1.27469c0.82562,0.28839 2.02631,0.50531 2.6235,0.5535c0.86691,0.06995 1.93784,0.05716 2.64734,0.05716c0.85266,0 1.85715,0 2.65717,0c1,0 1.80002,0.00687 2.79999,0c0.77872,-0.00534 1.87738,-0.19681 2,-1.10016c0.10562,-0.77805 -0.3143,-1.85342 0.22134,-2.65701c0.44632,-0.66959 1.38974,-0.98343 1.74265,-1.68948c0.39139,-0.78302 0.12198,-1.73206 0.03467,-2.668c-0.08365,-0.89676 -0.5376,-1.5657 -1.30765,-2.18085c-0.612,-0.48886 -1.6954,-0.66623 -2.44034,-0.69382c-0.91675,-0.03397 -1.90134,-0.01068 -2.79333,-0.01068l-0.70801,0l-0.98132,0l-0.95816,0" id="svg_25" stroke-width="2" stroke="#000" fill="none"/>
  <path t="68899,69078,69079,69079,69095,69096,69096,69112,69112,69162,69163,69179,69179,69278,69296,69296,69312,69313,69313,69329,69329,69362,69362,69379,69379,69379,69396,69396,69412,69412,69412,69429,69429,69445,69445,69463,69463,69463,69480,69480,69481,69481,69481,69496,69496,69496,69496,69513,69513,69513,69513,69529,69530,69545,69546,69563,69563,69579,69579,69579,69612,69613,69645,69645,69662,69679,69679,69679,69712,69712" d="m261,291c0,4.51334 0,5.15332 0,6.03833c0,1.04034 -0.00046,1.96167 0,2.64566c0.00067,0.99869 -0.17258,1.83536 0.16666,2.98267c0.24304,0.82205 1.1496,1.25562 1.83334,1.3125c1.10571,0.09198 1.06,0.02084 0.19333,0.02084c-1.02667,0 -1.73618,0 -2.58884,0c-1.00449,0 -1.80484,-0.02563 -2.8045,0.00034c-0.80078,0.02081 -1.8438,0.2724 -2.39099,0.71399c-0.76451,0.61697 -1.24887,1.4693 -1.36732,2.28568c-0.14372,0.99051 -0.04167,1.79999 -0.04167,2.60001c0,1 -0.06538,1.8024 0.004,2.79868c0.05367,0.77048 0.63168,1.63385 1.31467,1.96533c0.82245,0.39917 1.84595,0.64352 2.56668,0.83466c0.7486,0.19852 1.52164,0.38611 2.31598,0.51599c1.19382,0.19522 1.99377,0.23795 2.77783,0.2645c0.7634,0.02585 1.85419,0.02084 2.85919,0.02084c0.91498,0 1.47562,0.03568 2.7045,-0.00449c0.85382,-0.02789 1.87375,-0.24081 2.43631,-0.51636c1.03745,-0.50815 1.57349,-0.97708 2.02084,-1.8125c0.47043,-0.87851 0.70206,-1.64728 0.87851,-2.52383c0.17734,-0.88098 0.25549,-1.81992 0.03616,-2.65881c-0.23175,-0.88647 -1.24802,-1.31735 -1.92001,-1.43134l-0.74399,-0.078l-1.10751,-0.1965l-0.68582,-0.46085" id="svg_26" stroke-width="2" stroke="#000" fill="none"/>
  <path t="70016,70128,70129,70129,70129,70146,70146,70146,70146,70146,70163,70163,70163,70163,70195,70195,70195,70278,70279,70312,70333,70333,70347,70347,70347,70362,70363,70395,70395,70413,70413,70413,70428,70429,70429,70446,70446,70463,70463,70463,70479,70479,70479,70495,70496,70496,70496,70513,70513,70513,70529,70529,70529,70546,70546,70563,70579,70596,70596,70613,70613,70629,70646,70646,70646,70663,70663,70679,70679,70679" d="m307,283c1.75699,5.2785 1.90521,6.14136 1.95834,6.97916c0.0517,0.81537 0.04166,2.02084 0.04166,2.82083c0,0.80002 -0.00006,1.60001 0,2.40002c0.00009,1.19983 -0.00595,1.99576 0.02084,2.77914c0.02612,0.7641 0.11807,1.85974 0.33182,2.85468c0.13052,0.60754 1.31967,2.26151 0.6265,2.58282c-0.38538,0.17865 -1.14871,-0.36401 -2,-0.4375c-0.9863,-0.08514 -1.5665,-0.3688 -2.37915,-0.6265c-0.98669,-0.3129 -1.79999,-0.36017 -2.80002,-0.35251c-0.80023,0.00613 -1.85458,0.04907 -2.57864,0.45718c-0.72272,0.40735 -1.09641,1.30557 -1.17969,2.06351c-0.08713,0.79266 -0.11426,2.03525 0.03033,2.66849c0.23962,1.04944 0.76236,1.63919 1.33701,2.1535c0.93695,0.83859 1.61566,1.17059 2.36166,1.37051c0.85742,0.22977 1.89044,0.2587 2.61469,0.27597c0.73184,0.01746 1.79315,0.01068 2.77866,0.01068c0.93149,0 1.836,0 2.72699,0c0.83701,0 1.77573,0.01056 2.68768,0c0.90067,-0.01044 1.36951,-0.58557 1.86398,-1.32132c0.48987,-0.72888 1.35123,-1.46857 1.51569,-2.15784c0.21887,-0.91733 0.04166,-1.85419 0.04166,-2.77151c0,-0.74399 0,-1.78134 0,-2.55466l-0.00266,-0.96533l-0.039,-0.771l-0.129,-0.86102" id="svg_27" stroke-width="2" stroke="#000" fill="none"/>
  <path t="71942,72362,72362,72362,72387,72387,72411,72411,72411,72411,72412,72412,72412,72412,72434,72434,72434,72455,72456,72456,72478,72478,72478,72478,72479,72479,72479,72479,72498,72498,72499,72518,72518,72536,72536,72554,72554,72572,72572,72572,72595,72615,72662,72662,72683,72683,72704,72726,72748,72748,72748,72771,72771,72771,72793,72793,72812,72830,72831,72849" d="m230,262c3.59866,0 4.47917,0 5.31467,0c1.00133,0 1.91066,0 2.85201,0c0.795,0 1.67999,0 2.31999,0c1.03467,0 2.13867,0 2.888,0c0.74133,0 1.80367,0 2.77867,0c0.59999,0 1.67999,0 2.632,0c0.72449,0 1.8575,0 2.52449,0c0.711,0 1.80751,0 2.86867,0c0.66434,0 1.61084,0 2.22018,0c1.19998,0 2.08047,0 2.91599,0c1,0 1.87466,0 2.88516,0c0.77933,0 1.77899,0 2.46152,0c1.10666,0 1.83865,0 2.57065,0c1.09601,0 2.07251,0 2.93466,0c0.83334,0 1.81183,0 2.63202,0c0.90134,0 1.74298,0 2.74432,0c0.729,0 1.56601,0 2.75665,0c0.59134,0 1.42834,0 2.55734,0c0.83401,0 1.66385,0 2.62701,0l0.86331,0l0.89551,0" id="svg_28" stroke-width="20" stroke="#fff" fill="none"/>
  <path t="73567,73699,73700,73700,73724,73725,73725,73725,73725,73754,73754,73754,73754,73754,73785,73785,73785,73785,73788,73788,73788,73788,73788,73790,73790,73790,73790,73830,73830,73830,73830,73830,73830,73869,73869,73869,73869,73869,73869,73869,73869,73869,73871,73871,73871,73871,73871,73904,73904" d="m282,267c2.02335,-0.94284 2.89331,-0.99359 3.57333,-0.99866c1.16946,-0.0087 2.0365,-0.00134 2.48801,-0.00134c0.92398,0 1.85599,0 3.21716,0c0.86432,0 1.28549,0 2.11084,0c0.80933,0 2.01065,0 2.81067,0c0.79999,0 1.59998,0.00101 2.79999,0c0.79999,-0.00067 1.60046,0.00128 2.39999,-0.03601c0.80066,-0.03735 2.00131,-0.17755 2.80002,-0.31665c0.80139,-0.13956 1.59567,-0.32495 2.79999,-0.48068c0.80695,-0.10434 1.67508,-0.14679 2.65201,-0.228c0.5484,-0.04559 1.147,-0.0946 2.51465,-0.272c0.78354,-0.10165 1.6203,-0.2327 2.4975,-0.37198c0.90286,-0.14334 1.81494,-0.29501 2.7225,-0.444c0.88745,-0.14569 1.73825,-0.29456 3.28,-0.51733c0.66031,-0.09543 1.24802,-0.16269 2.224,-0.26135l0.75201,-0.05066l1.02399,-0.02133l0.91202,0" id="svg_29" stroke-width="20" stroke="#fff" fill="none"/>
  <path t="76144,76321,76321,76321,76321,76322,76342,76342,76346,76346,76346,76369,76369,76369,76369,76389,76390,76390,76390,76411,76411,76411,76431,76431,76431" d="m330,263c8.79251,-4.39267 9.366,-4.60675 10.42001,-4.83066c0.47299,-0.10049 1.36023,-0.18076 2.57999,-0.336c0.80206,-0.10208 1.5993,-0.26254 2.39999,-0.40802c0.79932,-0.1452 1.99973,-0.30563 2.7955,-0.37717c0.78354,-0.07043 1.5675,-0.07565 2.63785,-0.3815c1.0304,-0.29443 1.61755,-0.68179 2.20499,-0.96132c1.02802,-0.48917 1.96167,-0.66367 2.64566,-0.70267l1.00134,-0.00267l0.83551,0l0.88049,0" id="svg_30" stroke-width="20" stroke="#fff" fill="none"/>
  <path t="77324,77459,77459,77459,77459,77460,77501,77501,77501,77501,77501,77501,77502,77503,77503,77503,77503,77503,77542,77542,77542,77542,77542,77543,77579,77579,77579,77579,77579,77579,77579,77579,77580,77580,77580,77580" d="m309,265c6.15732,-2.6355 7.09213,-2.8522 8,-2.9375c0.44971,-0.04227 1.36801,-0.06049 2.84283,-0.0625c0.52649,-0.0007 1.6185,0 2.17801,0c0.56448,0 1.6965,0 2.8125,0c1.08133,0 1.6095,0 2.64581,0c0.51016,0 1.5195,0.00171 3.02133,-0.00015c0.50351,-0.00061 1.53162,-0.00693 2.06201,-0.02069c1.10922,-0.02878 1.69424,-0.05396 2.9375,-0.14581c0.66409,-0.04907 2.04913,-0.18491 2.75467,-0.25867c0.7038,-0.07358 1.39728,-0.14996 2.073,-0.22202c0.6496,-0.06924 2.36499,-0.23151 3.29099,-0.3045l0.798,-0.069l0.71802,-0.08899" id="svg_31" stroke-width="20" stroke="#fff" fill="none"/>
  <path t="78974,79221,79221,79221,79254,79638,79638" d="m237,269c-8.34933,-2.6355 -9.19533,-2.82849 -10.08934,-2.96799l-1.02533,-0.03201l-0.88533,0l-0.75717,0" id="svg_32" stroke-width="20" stroke="#fff" fill="none"/>
  <path t="82408,82587,82588,82588,82588,82608,82608,82608,82608,82630,82630,82630,82631,82651,82651,82651,82651,82671,82671,82671,82671,82691,82691,82691,82691,82710,82710,82727,82727,82744,82744,82762,82781,82781,82800" d="m210,258c9.22833,-0.87851 10.15123,-0.95303 10.875,-0.97916c0.88463,-0.03195 1.76801,-0.02084 2.797,-0.02084c0.74934,0 1.53067,0 2.72783,0c0.79567,0 1.57935,0 2.343,0c1.0905,0 2.10634,0.01718 2.75717,-0.04166c0.98839,-0.08936 2.02547,-0.38977 2.75267,-0.66367c0.75177,-0.28314 1.47818,-0.64145 2.58066,-0.96135c0.67149,-0.19484 1.62436,-0.31001 2.48001,-0.33066c1.00104,-0.02415 1.87599,-0.00267 2.68666,-0.00267c0.97917,0 1.83333,0 2.6955,0c0.94051,0 1.78717,-0.00133 2.59467,-0.05716l0.7245,-0.5175" id="svg_33" stroke-width="2" stroke="#000" fill="none"/>
  <path t="83324,83490,83490,83490,83490,83490,83508,83509,83531,83531,83532,83532,83551,83551,83551,83571,83571,83571,83572,83573,83594,83594,83614,83614,83638,83638,83657,83688,83688,83707,83737,83738,83757,83777,83777,83813,83815,83815,83850,83850,83852,83852,83882,83882,83883,83914,83914,83915,83915,83946,83946,83948,83948,83978,83979,83979,84010,84011,84012,84043,84043,84044,84085,84117,84117,84148,84148,84180,84180,84181,84181,84214,84245,84246,84277,84277,84279,84279,84310,84342,84342,84344,84344,84376,84376,84411,84411,84413,84446,84446,84448,84448,84482,84519,84519,84519" d="m269,245c7.91367,0.87849 8.45554,0.92476 9.43466,0.964c0.85037,0.03409 1.58954,0.01476 2.79599,0.03732c0.98444,0.01842 1.93823,0.15611 2.7265,0.35133c0.85605,0.21201 1.43958,0.39308 2.64151,0.56467c0.87766,0.12529 1.48828,0.0779 2.47983,0.52534c0.72714,0.32813 1.47318,1.10324 2.3215,1.38666c0.77191,0.25787 1.80002,0.17067 2.60001,0.17067c1,0 1.78934,0 2.83334,0c0.75598,0 1.6875,0 2.65067,0c0.69064,0 1.75882,0 2.61615,0c0.78519,0 1.72519,0 2.73318,0c0.75598,0 1.6875,0 2.65067,0c0.69064,0 1.77527,-0.04561 2.48532,0.08533c1.05222,0.19403 1.76901,0.5321 2.69733,0.748c0.78409,0.18236 1.74402,0.16667 2.65466,0.16667c0.85333,0 1.79602,0 2.48853,0c0.95816,0 1.93948,0 2.85681,0c0.79169,0 1.7641,-0.06245 2.65466,0.22133c0.69904,0.22275 1.65063,0.71646 2.47736,0.77734c0.87097,0.06413 1.74399,0.00133 2.70132,0.00133c0.73199,0 1.69016,0 2.66666,0c0.83334,0 1.88446,-0.22017 2.52884,0.11433c0.91104,0.47293 1.11426,1.4814 1.95718,1.77133c0.82318,0.28314 1.82648,0.11433 2.74731,0.11433c0.90451,0 1.76666,0 2.60001,0c0.97849,0 1.79868,-0.00185 2.63599,0c1.01669,0.00226 1.73657,-0.01109 2.61584,0.35266c0.74316,0.30745 1.75253,0.60977 2.4975,0.63667c1.10699,0.03998 1.83408,0.03668 2.66135,0.436c0.91602,0.44217 1.58917,0.56424 2.56781,0.57466c0.82013,0.00873 1.69351,0 2.56451,0l0.99866,0l0.56735,0" id="svg_34" stroke-width="2" stroke="#000" fill="none"/>
 </g>
 <g display="none">
  <title>muse_image</title>
  <image xlink:href="http://farm3.static.flickr.com/2316/2332596185_4fccef9984.jpg" id="muse" height="426" width="640" y="27" x="0"/>
 </g>
 <g display="none">
  <title>bbox</title>
  <rect stroke="#f00" fill="none" stroke-width="3" height="181.65766" width="636.16" y="128.06306" x="2.56" id="bbox"/>
 </g>
</svg>
