<svg width="640" height="480" xmlns="http://www.w3.org/2000/svg" xmlns:svg="http://www.w3.org/2000/svg" xmlns:xlink="http://www.w3.org/1999/xlink">
 <!-- Sketchy ANNOTATION
  ImageNet ID: n02691156_12022
  URL: http://farm3.static.flickr.com/2316/2332596185_4fccef9984.jpg
  Image Width: 500
  Image Height: 333
  BBox X: 2
  BBox Y: 79
  BBox Width: 497
  BBox Height: 142
  Exposure: 2000ms
  Synset Label: airplane
  Synset ID: n02691156
  Worker Tag: Landed Airplane
  Sanity Check: 
   Saved
  Comment: 
   Good
  Worker ID: A38PRTG7K1LRPS
  Assignment ID: 33F859I566DH783UOK79F77MD8ZBH7
  HIT ID: 311HQEI8RSGE9X24RNWYLSUASW97ZV
  Work Time: 90s
  Worker Score: 0.7857
 END ANNOTATION -->
 <g>
  <title>Layer 1</title>
  <path t="0,102,102,102,138,138,138,138,157,157,157,157,157,173,173,173,219,227,227,240,257,257,274,274,274,274,274,290,390,390,406,424,440,440,440,457,457,473,538,538,562,571,578,579,635,635,651,651,667,667,682,683,770,786,804,823,823,840,857,857,857,873,873,890,890,890,907,907,907,923,923,923,923,923,940,940,986,986,1042,1042,1066,1090,1090,1098,1106,1107,1107,1123,1123,1123,1123,1140,1140,1140,1140,1140,1140,1140,1140,1140,1157,1157,1157,1157,1157,1157,1157,1157,1157,1173,1173,1173,1173,1173,1173,1173,1173,1173,1190,1190,1190,1190,1190,1190,1190,1190,1190,1207,1207,1223,1240,1240,1257,1257,1257,1257,1338,1338,1338,1353,1353,1375,1375,1390,1390,1390,1407,1407,1407,1407,1407,1423,1423,1423,1423,1423,1440,1440,1440,1457,1457,1457,1473,1473,1490,1491,1491,1507,1507,1538,1538,1562,1571,1579,1590,1590,1607,1607,1607,1607,1623,1623,1623,1623,1623,1623,1623,1623,1623,1639,1640,1640,1640,1640,1640,1640,1640,1640,1657,1657,1657,1657,1657,1657,1657,1658,1658,1673,1673,1673,1673,1673,1673,1673,1674,1674,1690,1690,1690,1690,1690,1707,1707,1707,1707,1723,1723,1723,1723,1723,1723,1740,1740,1740,1740,1757,1757,1757,1757,1773,1773,1773,1790,1807,1823,1823,1823,1840,1840,1840,1857,1857,1857,1857,1873,1873,1873,1873,1873,1890,1890,1890,1890,1890,1890,1907,1907,1907,1907,1907,1908,1908,1908,1923,1923,1923,1923,1923,1924,1924,1924,1924,1940,1940,1940,1940,1940,1941,1957,1957,1957,2002,2003,2018,2019,2026,2040,2040,2040,2057,2057,2057,2057,2057,2073,2073,2073,2073,2074,2074,2074,2090,2090,2091,2091,2091,2092,2092,2092,2107,2107,2108,2108,2108,2108,2109,2109,2123,2123,2123,2123,2123,2140,2140,2140,2157,2157,2157,2157,2173,2173,2190,2190,2207,2207,2223,2223,2223,2223,2240,2240,2240,2240,2257,2257,2257,2257,2274,2274,2274,2275,2290,2290,2290,2307,2307,2307,2323,2323,2323,2323,2324,2324,2324,2340,2340,2340,2341,2341,2341,2357,2357,2357,2357,2358,2358,2373,2373,2373,2373,2374,2402,2403,2403,2410,2423,2440,2440,2457,2457,2457,2473,2473,2473,2473,2474,2474,2474,2490,2490,2490,2491,2491,2492,2492,2507,2507,2507,2507,2508,2523,2523,2523,2540,2557,2573,2573,2573,2590,2590,2590,2590,2591,2591,2607,2607,2607,2608,2609,2609,2609,2623,2623,2623,2624,2624,2624,2625,2626,2640,2640,2641,2641,2641,2641,2657,2658,2659,2659,2659,2673,2673,2673,2674,2746,2747,2747,2747,2754,2755,2773,2773,2790,2790,2790,2791,2791,2791,2791,2807,2807,2807,2809,2809,2872,2872,2872,2888,2907,2908,2940,2941,2941,2942,3178,3178,3178,3178,3178,3211,3211,3224,3224,3242,3243,3243,3243,3244,3244,3273,3274,3274,3275,3275,3275,3296,3297,3297,3297,3298,3323,3371,3371,3379,3407,3407,3407,3408,3440,3440,3440,3441,3441,3441,3442,3459,3460,3460,3460,3460,3461,3461,3490,3490,3491,3508,3540,3540,3541,3558,3559,3559,3559,3560,3560,3560,3590,3590,3591,3643,3643,3667,3675,3676,3691,3726,3727,3728,3757,3757,3758,3811,3811,3819,3840,4000,4120,4120,4120,4120,4162,4162,4181,4182,4182,4182,4323,4354,4410,4418,4432,4449,4468,4468,4468,4469,4485,4486,4486,4486,4486,4487,4503,4503,4538,4643,4644,4667,4687,4688,4706,4707,4724,4725,4836,4836,4938,4938,4953,4975,4975,4976,4997,4997,4997,4998,5015,5015,5016,5016,5016,5017,5017,5032,5033,5033,5034,5034,5050,5051,5051,5068,5069,5069,5087,5088,5104,5105,5105,5122,5140,5140,5159,5160,5177,5177,5178,5195,5196,5196,5216,5216,5216,5217,5217,5233,5234,5234,5235,5252,5252,5253,5253,5270,5271,5271,5288,5289,5289,5311,5312,5312,5328,5329,5348,5349,5368,5369,5369,5370,5385,5385,5386,5386,5387,5403,5404,5404,5404,5438,5482,5483,5490,5506,5525,5526,5543,5544,5544,5545,5562,5563,5563,5581,5581,5582,5599,5599,5600,5600,5601,5617,5617,5636,5636,5654,5672,5672,5690,5691,5711,5711,5712,5729,5730,5730,5731,5731,5756,5756,5757,5758,5758,5759,5759,5759,5767,5767,5768,5768,5768,5769,5769,5785,5786,5786,5787,5787,5809,5810,5810,5811,5811,5812,5812,5826,5827,5827,5827,5828,5828,5844,5845,5880,5890,5891,5910,5929,5929,5930,5930,5931,5947,5948,5948,5949,5949,5950,5950,5950,5966,5966,5967,5967,5967,5968,5968,5969,5969,5984,5985,5986,6004,6005,6021,6022,6022,6039,6040,6041,6041,6042,6060,6061,6061,6062,6062,6062,6063,6079,6079,6080,6080,6080,6081,6081,6082,6082,6097,6098,6098,6099,6099,6100,6100,6100,6101,6138,6139,6139,6140,6141,6141,6142,6142,6146,6147,6165,6183,6201,6202,6203,6203,6204,6204,6220,6221,6221,6221,6222,6222,6223,6223,6224,6239,6240,6241,6242,6242,6243,6243,6244,6244,6259,6260,6260,6260,6261,6261,6262,6262,6263,6277,6278,6278,6279,6279,6280,6280,6280,6281,6297,6297,6298,6299,6299,6299,6300,6300,6301,6320,6321,6321,6322,6335,6336,6336,6337,6337,6338,6354,6355,6355,6356,6356,6357,6357,6358,6358,6374,6375,6376,6376,6377,6377,6378,6378,6394,6395,6395,6396,6396,6397,6397,6440,6443,6444,6449,6450,6451,6468,6469,6470,6470,6470,6487,6488,6488,6489,6489,6491,6492,6492,6507,6508,6509,6509,6510,6510,6511,6511,6527,6528,6529,6529,6530,6530,6531,6547,6548,6548,6549,6549,6566,6567,6567,6568,6585,6585,6586,6587,6587,6588,6603,6604,6605,6605,6606,6606,6623,6624,6625,6626,6627,6627,6628,6644,6645,6645,6646,6646,6647,6647,6666,6667,6668,6668,6669,6682,6683,6703,6704,6704,6721,6740,6741,6742,6760,6761,6762,6762,6763,6763,6779,6780,6781,6781,6782,6782,6783,6799,6800,6801,6801,6802,6839,6841,6862,6873,6874,6875,6895,6896,6896,6897,6898,6898,6899,6915,6916,6916,6917,6917,6918,6919,6920,6946,6947,6948,6948,6949,6949,6959,6960,7002,7003,7011,7012,7030,7031,7032,7049,7050,7051,7051,7052,7052,7068,7069,7070,7070,7071,7098,7099,7126,7140,7141,7160,7180,7181,7199,7199,7218,7237,7238,7258,7259,7260,7277,7278,7279,7298,7299,7319,7336,7355,7375,7376,7395,7414,7415,7415,7434,7435,7452,7498,7499,7571,7572,7572,7617,7638,7638,7639,7661,7662,7662,7682,7683,7699,7700,7700,7701,7719,7720,7720,7739,7740,7741,7742,7760,7761,7761,7762,7779,7780,7781,7826,7827,7828,7834,7835,7852,7853,7871,7872,7874,7892,7893,7911,7912,7931,7932,7932,7950,7951,7971,7972,7972,7992,7993,7994,7994,7995,7995,8012,8013,8013,8032,8033,8033,8052,8053,8098,8099,8106,8125,8145,8165,8166,8167,8185,8186,8187,8188,8205,8207,8234,8235,8236,8259,8261,8298,8299,8306,8330,8347,8348,8367,8386,8387,8408,8409,8410,8411,8429,8430,8430,8431,8450,8451,8452,8452,8538,8538,8619,8627,8628,8644,8645,8663,8664,8684,8685,8705,8726,8727,8764,8788,8819,8843,8891,8986,9001,9035,9036,9091,9092,9092,9093,9122,9124,9138,9154,9155,9253,9355,9355,9370,9413,9414,9415,9493,9508,9619,9620,9651,9659,9770,9902,9938,9939,9940,10037,10037,10053,10265,10299,10370,10371,10372,10406,10420,10421,10444,10522,10571,10709,10724,11024" d="m137.51137,118.09091c0,-0.02666 -0.02429,1.01598 0.036,1.82133c0.08852,1.18258 0.23958,1.78384 0.48483,2.72033c0.17665,0.67455 0.48352,1.79064 0.67917,2.625c0.20454,0.87228 0.28987,1.31493 0.5,2.17084c0.28624,1.16596 0.60249,2.08389 0.864,2.7945c0.36034,0.97917 0.26245,1.90625 0.52133,2.668c0.30176,0.88791 0.85579,1.52513 1.02451,2.18584c0.31305,1.22588 0.59419,2.07341 0.74083,2.53017c0.29604,0.92218 0.52937,1.79753 0.90651,2.75516c0.36082,0.9162 0.91954,1.54652 1.26816,2.32884c0.36989,0.83006 0.99393,1.55553 1.37466,2.23599c0.42168,0.75362 0.71681,1.61348 1.20001,2.29201c0.60045,0.84317 1.1494,1.49229 1.45265,2.16666c0.37361,0.83078 1.30943,1.23756 2.11401,1.53867c0.79997,0.29938 1.66666,0.5 2.33333,1.16667c0.66667,0.66667 1.32341,0.96397 2.33333,1c0.7915,0.02823 1.65067,0 2.51401,0c1.01666,0 1.85643,-0.08212 2.75267,0.00017c0.91144,0.08368 1.43105,0.68947 2.2045,1.29533c0.79996,0.62663 1.56183,0.59212 2.29683,0.87383c1.06035,0.4064 1.57437,1.04721 2.39867,1.664c0.58366,0.43674 1.4162,0.89719 2.2005,1.48801c0.64534,0.48615 1.06256,0.94217 2.2995,1.51199c0.72812,0.33542 1.56482,0.53256 1.97917,0.64584c0.80467,0.22 2.1389,0.61229 2.95833,1c0.73274,0.34669 1.56233,0.51041 2.54117,0.52083c0.77396,0.00824 1.7802,-0.32277 2.688,0.16667c0.65462,0.35294 1.39001,0.76266 2.33333,1c0.82841,0.20842 1.44904,0.55829 2.42267,0.93365c0.88103,0.33966 1.63937,0.57362 2.082,0.714c1.65968,0.52635 2.34569,0.72913 3.09267,0.95633c0.80267,0.24416 1.65459,0.50159 2.54849,0.77101c0.92876,0.27992 1.88564,0.56744 2.86351,0.86099c1.99059,0.59756 2.98976,0.89775 3.98532,1.19467c0.98712,0.2944 1.96211,0.5833 2.92201,0.86099c0.93878,0.27159 1.85315,0.53293 2.74199,0.77101c1.67189,0.44785 2.45436,0.63193 3.20001,0.79999c0.71176,0.16042 1.39674,0.30168 2.058,0.429c0.64011,0.12325 1.26505,0.23428 1.87799,0.339c1.2048,0.20584 1.80447,0.30267 2.39867,0.40134c0.58414,0.097 1.15326,0.19113 1.7025,0.2805c0.52409,0.08528 1.01791,0.1665 1.47751,0.23549c1.39873,0.20996 2.30258,0.34114 3.03732,0.71068c0.90907,0.45721 1.63901,0.52757 2.75601,0.74133c0.79761,0.15263 1.34657,0.36699 2.23466,0.54933c1.1889,0.24409 1.7876,0.26189 2.64149,0.2795c1.03529,0.02135 1.9155,0.0045 2.936,0.0045c0.83099,0 1.79449,0 2.60449,0c0.64,0 1.75,0 2.586,0c0.892,0 1.81601,0 2.2825,0c1.3815,0 2.26151,0 3.1015,0c0.8,0 1.56,0 2.625,0c0.97501,0 1.575,0 2.655,0c0.93066,0 1.76534,0 2.77116,0c0.85268,0 1.81683,0 2.62083,0c0.82201,0 1.853,0 2.733,0c0.875,0 1.73718,0 2.64166,0c0.89999,0 1.80002,0 2.7135,0c0.74249,0 1.74918,0 2.44785,0c0.85065,0 1.33798,0 3.07199,0c0.67468,0 1.39734,0 2.16602,0c0.81265,0 1.66733,0 2.56198,0c0.93268,0 1.90134,0 3.93866,0c1.06369,0 2.14935,0 3.24902,0c1.10565,0 2.20932,0 3.30298,0c1.07568,0 2.12534,0 4.11469,0c0.92566,0 1.80533,0 2.64301,0c0.79965,0 1.56531,0 2.30099,0c0.70966,0 1.39734,0 2.72266,0c0.64468,0 1.27734,0 1.896,0c0.60266,0 1.18735,0 1.75201,0c0.54266,0 1.06134,0 2.01865,0c0.43552,0 0.84402,0 1.59201,0c0.99451,0 1.90799,0 2.8215,0c0.64899,0 1.358,0 2.58649,0c0.95203,0 1.45801,0 2.5,0c1.04202,0 1.548,0 2.93567,0c0.79733,0 1.52267,0.00008 2.54568,0c1.04001,-0.00009 1.77161,0.00549 2.51865,-0.02083c0.74777,-0.02635 2.18195,-0.18234 2.82935,-0.33183c0.85785,-0.19809 1.81183,-0.49565 2.61734,-0.658c0.88242,-0.17786 1.60321,-0.53621 2.32532,-0.70534c1.18045,-0.27647 1.87842,-0.25783 2.57733,-0.27333c1.31708,-0.02921 2.15079,0.00328 2.93735,-0.04666c0.56766,-0.03604 1.97098,-0.24754 2.38934,-0.32117c0.90802,-0.15977 1.89447,-0.34828 2.41333,-0.44417c1.63162,-0.30151 2.19547,-0.40054 2.76782,-0.49417c1.16263,-0.19019 1.75253,-0.27631 2.34735,-0.34734c1.79282,-0.21408 2.39581,-0.24168 3.00082,-0.27184c1.23679,-0.06165 1.87796,-0.0666 2.53867,-0.07466c0.68463,-0.00835 1.39734,-0.00999 2.92267,-0.01067c0.81833,-0.00035 1.66666,0 2.535,0c0.87833,0 1.75665,0 2.625,0c0.84833,0 1.66666,0 3.17331,0c0.67084,0 1.28668,0 2.37335,0c0.92667,0 1.73334,0 2.80484,0c0.96448,0 1.53915,0 2.67899,0c0.89099,0 1.7955,0 2.49017,0c1.03799,0 1.98599,0 2.67151,0c0.8385,0 2.14783,0 2.87048,0c0.77866,0 1.62933,0 2.08667,0c1.52399,0 2.0885,0 3.2955,0c0.63651,0 1.29099,0 1.96051,0c0.68149,0 2.76797,0 3.46799,0c0.70001,0 1.39999,0 2.10001,0c0.69998,0 1.39999,0 2.79999,0c1.39999,0 2.09952,0 2.79602,0c0.69049,0 1.37198,0 2.69598,0c0.63651,0 1.25201,0 2.94333,0c0.50735,0 1.44601,0 2.29666,0c0.77869,0 1.84653,0 2.832,0c0.62534,0 1.83612,0.01027 2.73151,-0.0045c0.58383,-0.00963 1.4368,-0.00981 2.64734,-0.34816c0.65833,-0.18401 1.65274,-0.5679 2.43634,-0.62651c0.99725,-0.07458 1.71817,-0.02083 2.78534,-0.02083c0.60699,0 1.66748,0 2.43948,0c1.19583,0 1.99152,0 2.77518,0c0.76367,0 1.85416,0 2.53683,0c0.98398,0 1.63666,0 3.00516,0c0.72699,0 1.45801,0 2.16901,0c1.26682,0 2.03784,0 2.90717,0c1.02966,0 1.81866,0 2.51465,0c1.41635,0 1.99469,0 2.61301,0c0.64835,0 1.995,0 2.67334,0c0.66833,0 1.935,-0.00276 3.06433,0.00133c0.52216,0.00189 1.51691,0.01009 2.49084,0.05583c0.49741,0.02336 2.11053,0.16211 2.69717,0.22684c0.60306,0.06654 1.82846,0.21626 2.43732,0.29066c0.5968,0.07294 2.24493,0.26318 2.72601,0.30383c0.85669,0.07239 1.94327,0.11516 2.58066,0.12018c1.20264,0.00948 2.06366,0.00133 2.83466,0.00133c0.95633,0 1.97067,0 2.871,0c0.71402,0 1.67566,0 2.52466,0c0.71268,0 2.04169,0 2.56085,0c1.13834,0 1.7475,0 2.37665,0c0.6442,0 1.95752,0 3.27084,0c0.64499,0 1.28,0 2.51999,0c0.60501,0 1.20001,0 2.36002,0c1.12,0 2.19733,0 2.716,0c0.98734,0 1.89465,0 3.07065,0c0.64136,0 1.59601,0 2.54819,0c0.77066,0 1.7269,-0.01118 2.556,0.02083c0.67679,0.02612 1.89648,0.14063 2.85049,0.26317c0.5127,0.06586 1.58682,0.21736 2.14133,0.29066c0.56015,0.07405 2.23685,0.26492 2.78302,0.30383c1.07654,0.07668 1.61685,0.09221 2.71832,0.11084c0.56961,0.00963 1.15732,0.00848 3.06683,0.01083c0.68915,0.00085 1.39835,0.00241 2.1225,0.0105c0.73419,0.00821 1.47345,0.02173 2.21249,0.04649c0.73428,0.0246 2.85785,0.15918 3.52618,0.22818c0.64737,0.06683 1.27261,0.13792 2.44531,0.32533c0.5498,0.08786 2.03201,0.3784 2.87466,0.58932c0.75983,0.19019 1.45807,0.4021 2.13599,0.60001c1.03925,0.30338 1.77771,0.49806 2.53955,0.72083c0.78558,0.22972 1.98431,0.63313 2.7738,0.96184c0.76794,0.31972 1.47565,0.62784 2.5387,1.18401c0.75732,0.39621 1.31604,0.91429 2.06531,1.22c1.22638,0.50038 1.79254,0.6002 2.38348,0.76599c0.62634,0.17572 1.94824,0.52304 2.62067,0.69467c0.66492,0.16971 1.93085,0.48468 3.05316,0.76733c0.50647,0.12756 1.4223,0.35286 2.21167,0.58083c1.00342,0.28976 1.80219,0.62923 2.6662,0.94734c0.89825,0.33075 1.83057,0.21246 2.48047,0.58583c0.85083,0.48882 1.20264,1.19333 1.72736,1.83383c0.57019,0.696 1.45465,1.77406 1.758,2.11549c0.58429,0.65764 1.11969,1.28247 1.92969,1.96468c0.76544,0.6447 1.59851,0.71655 2.37482,0.9615c0.66858,0.21095 1.60413,1.00111 2.01984,1.31715c0.93726,0.71255 1.4361,1.10268 1.95734,1.48801c0.52441,0.38771 2.07776,1.43765 2.57568,1.705c0.91541,0.49149 1.37048,0.66423 2.22162,1.015c0.81818,0.33719 2.02844,0.90039 2.80786,1.37151c0.38531,0.23291 1.09186,0.73366 1.75751,1.14583c1.16199,0.71953 2.05664,0.82039 2.85596,0.85333c0.87421,0.03604 1.75427,0.42561 2.49335,0.89333c0.60938,0.38562 1.28448,0.87399 2.04004,1.44c0.84363,0.632 1.28772,0.98267 2.22913,1.72917c0.49603,0.39334 1.00446,0.80269 1.52551,1.22549c1.08032,0.87665 1.63037,1.33568 2.75116,2.24667c0.55298,0.44948 1.0957,0.88538 1.6275,1.29601c0.50665,0.39122 1.84381,1.37946 2.58936,1.74399c0.7973,0.38985 1.60437,0.72888 2.27734,1.42534c0.50641,0.52409 1.2702,0.96149 2.16663,1.83333c0.37372,0.36345 0.75684,0.78114 1.56537,1.69334c0.41705,0.4705 0.82312,0.94626 1.59729,1.85333c0.67114,0.78632 1.37482,1.67435 1.93066,2.16666c0.68445,0.60622 1.61816,0.73636 2.1637,1.55334c0.51764,0.77528 0.32343,1.7029 0.76385,2.44167c0.47388,0.79482 0.80658,1.45784 1.04315,2.24367c0.31195,1.03612 0.41675,1.97812 0.43463,2.81332c0.02136,0.99661 0.00134,1.74417 0.00134,2.76534c0,0.83467 0,1.80267 0,2.636c0,0.75717 0,1.65717 0,2.60133c0,1.00766 0,1.67067 0,2.73199c0,0.963 0,1.625 0,2.528c0,1.07617 0.46808,2.00183 -0.05713,2.78151c-0.46088,0.68416 -1.52527,0.46889 -2.16705,1.11884c-0.60925,0.61703 -1.21039,0.89978 -1.85913,1.32166c-0.74158,0.48224 -1.9256,1.40714 -2.31598,1.78033c-0.80145,0.76619 -1.16656,1.18362 -1.85669,1.98834c-0.31927,0.37228 -1.0387,1.34752 -1.73737,2.13066c-0.58624,0.6571 -1.20667,1.21735 -1.80664,1.81734c-0.70001,0.70001 -1.2605,1.34657 -1.95715,1.89999c-0.6908,0.54877 -1.44403,0.85976 -2.2215,1.40001c-0.67126,0.46646 -1.51172,1.0892 -2.19604,1.5c-0.8114,0.48712 -1.40729,1.21741 -2.27197,1.39999c-0.85632,0.18082 -1.61871,-0.0054 -2.32532,0.08533c-1.20929,0.1553 -1.9317,0.35211 -2.75732,0.52533c-0.45099,0.09464 -1.97021,0.39203 -2.53467,0.48935c-1.19305,0.20569 -1.81201,0.29999 -2.43604,0.39999c-0.62396,0.10001 -1.84967,0.29044 -3,0.5c-1.04291,0.19 -1.51959,0.29498 -2.39581,0.47916c-0.77649,0.16321 -2.05896,0.42462 -2.84283,0.48483c-0.70813,0.05441 -1.94531,0.03601 -2.76135,0.03601c-0.81598,0 -1.81677,-0.03598 -2.47913,0.02084c-1.02747,0.08817 -1.79645,0.44144 -2.53552,0.69516c-1.05768,0.36313 -1.80066,0.63394 -2.37067,1.17065c-0.79175,0.74551 -1.3028,1.37048 -2.28131,1.78c-0.75269,0.315 -1.60803,0.31274 -2.66669,0.33334c-0.71851,0.01398 -1.4613,0.02667 -2.5,0.5c-0.66254,0.30191 -1.32953,0.79169 -2.08801,1.224c-0.77234,0.44019 -1.97449,0.92764 -2.37732,1.01999c-0.78406,0.17972 -1.94409,0.2482 -3.03467,0.25601c-0.68134,0.00488 -1.64764,-0.00275 -2.26215,0.05716c-1.20978,0.11792 -2.09265,0.37305 -2.66852,0.51752c-1.06708,0.26773 -2.01019,0.40344 -2.68866,0.42084c-0.96838,0.02481 -1.77612,-0.02646 -2.59467,0.06165c-1.03802,0.11172 -1.88391,0.52527 -2.78601,0.77618c-0.84589,0.23529 -1.9314,0.1619 -2.54266,0.17114c-0.70746,0.01068 -1.49738,0.02475 -2.79068,0.16217c-0.9183,0.09756 -1.38174,0.18442 -2.3125,0.33334c-0.91125,0.14578 -2.18622,0.34634 -2.94751,0.41467c-0.67905,0.06094 -1.54999,0.08307 -2.60266,0.08533c-0.97067,0.00208 -1.77066,0 -2.67065,0c-0.89999,0 -1.75195,-0.01691 -2.44135,0.17065c-1.21606,0.33087 -1.97012,0.68155 -2.37949,0.82935c-0.82458,0.29773 -1.96884,0.7164 -2.90768,0.88565c-0.73349,0.13223 -1.77216,0.11435 -2.65482,0.11435c-0.858,0 -2.00183,0 -2.45132,0c-0.95602,0 -1.92801,0 -2.39752,0c-1.56033,0 -2.28781,0 -3.26917,0c-0.68399,0 -1.66019,-0.14313 -2.63199,0.16666c-0.71017,0.22638 -1.48331,0.76233 -2.37735,0.82266c-0.98764,0.06665 -1.85184,0.01068 -2.64532,0.01068c-1.00882,0 -1.82449,0 -2.74817,0c-0.49982,0 -1.5705,0 -2.72916,0c-0.60968,0 -1.23734,0 -2.53867,0c-0.66968,0 -1.34933,0 -2.03702,0c-0.69366,0 -2.79031,0 -3.48566,0c-0.68735,0 -1.36267,0 -2.022,0c-1.25467,0 -1.84201,0 -3.39801,0c-0.44931,0 -1.284,0 -2.08664,0c-0.83469,0 -2.28452,-0.00073 -2.83868,0.00134c-0.58417,0.0022 -1.82257,0.01666 -2.46667,0.03467c-0.65424,0.01828 -1.3157,0.01849 -3.271,0.18549c-0.63123,0.05389 -1.24484,0.12085 -2.39734,0.29935c-0.53543,0.08295 -1.5166,0.21469 -2.61749,0.57898c-0.74335,0.24597 -1.60135,0.83929 -2.50751,0.90018c-0.79819,0.05362 -1.74399,0 -2.66666,0c-0.67734,0 -1.49866,0 -2.448,0c-0.51767,0 -2.21866,0 -2.82867,0c-0.63,0 -1.28,0 -2.63998,0c-0.70999,0 -1.44,0 -2.19,0c-1.56,0 -2.3685,0 -3.18802,0c-0.82147,0 -1.63599,0 -2.43448,0c-0.7735,0 -1.513,-0.00003 -2.2095,0c-1.74399,0.00009 -2.5921,-0.03348 -3.228,0.02084c-1.0069,0.086 -1.75244,0.68005 -2.65601,0.89383c-0.81033,0.19171 -1.36801,0.08466 -2.76801,0.08533c-0.41867,0.00021 -1.32599,0 -2.31332,0c-0.51868,0 -2.15182,0 -2.72266,0c-0.59085,0 -1.85251,0 -2.53336,0c-0.72083,0 -1.48666,0 -3.17334,0c-0.92816,0 -1.9053,0 -2.92047,0c-1.04218,0 -2.10034,0 -3.16351,0c-1.05716,0 -2.09732,0 -4.08267,0c-0.92551,0 -1.80399,0 -2.63849,0c-0.79352,0 -1.54901,0 -2.2695,0c-0.68851,0 -1.34799,0 -2.59201,0c-0.58966,0 -1.15732,0 -1.70099,0c-0.51767,0 -1.00735,0 -1.46701,0c-0.82132,0 -2.02399,0 -2.95999,0c-0.84818,0 -1.716,0.00204 -2.53534,-0.00015c-0.84,-0.00226 -1.35013,-0.00482 -2.54999,-0.03586c-0.69009,-0.01785 -1.44046,-0.04028 -3.12003,-0.13065c-0.92993,-0.05002 -1.91754,-0.11713 -2.961,-0.19501c-1.0979,-0.08194 -2.24756,-0.17725 -3.44699,-0.285c-1.24792,-0.11212 -2.54218,-0.23169 -5.25867,-0.51999c-1.41812,-0.15051 -2.86176,-0.31509 -4.31699,-0.49051c-1.4541,-0.17526 -2.89206,-0.35864 -4.29901,-0.5535c-1.36435,-0.18896 -2.67386,-0.36459 -5.05066,-0.78934c-1.05365,-0.18829 -2.01358,-0.39175 -2.8905,-0.59549c-0.80701,-0.1875 -1.54785,-0.38049 -2.23349,-0.56851c-0.64133,-0.17587 -1.24179,-0.3587 -2.37601,-0.66934c-0.54346,-0.14883 -1.07538,-0.28265 -1.59149,-0.405c-0.49591,-0.11755 -0.97058,-0.22211 -1.4205,-0.315c-0.42111,-0.08694 -0.81107,-0.16553 -1.48801,-0.28c-0.28064,-0.04745 -0.52774,-0.08362 -0.74701,-0.1095c-0.19675,-0.02322 -0.3779,-0.03824 -0.54901,-0.04651c-0.1669,-0.00806 -0.336,-0.00757 -0.70398,-0.01065c-0.69003,-0.00577 -1.56479,-0.04333 -2.24002,-0.17065c-1.18079,-0.22263 -2.05939,-0.54245 -2.54132,-0.70135c-1.05154,-0.34668 -1.62134,-0.54224 -2.22934,-0.73065c-1.31918,-0.40878 -2.04068,-0.60046 -2.79333,-0.79733c-0.77701,-0.20325 -1.57449,-0.40057 -2.38348,-0.60001c-0.81369,-0.20059 -1.6265,-0.39667 -2.4285,-0.60001c-1.55234,-0.39359 -2.28662,-0.59866 -2.996,-0.79733c-0.68796,-0.19269 -2.01172,-0.56595 -2.65866,-0.73065c-0.63846,-0.16257 -1.26868,-0.35754 -3.21667,-0.629c-0.65561,-0.09137 -1.31366,-0.13434 -1.96201,-0.17102c-0.63373,-0.03586 -1.83597,-0.06564 -2.392,-0.06934c-1.41797,-0.00943 -2.45599,-0.00253 -3.26001,-0.00266c-0.98682,-0.00018 -1.80945,0.03622 -2.66983,-0.11435c-0.90808,-0.15894 -1.81772,-0.60056 -2.49966,-0.92731c-0.37567,-0.17999 -1.21231,-0.58792 -2.22916,-0.95834c-1.181,-0.43024 -1.84659,-0.60059 -2.53601,-0.78934c-0.71255,-0.1951 -1.44702,-0.37885 -2.19598,-0.5535c-0.75504,-0.17606 -2.26724,-0.49454 -3.01318,-0.6355c-0.73544,-0.13898 -1.46231,-0.27368 -2.90067,-0.48001c-0.70923,-0.10175 -1.41559,-0.18732 -2.11951,-0.255c-1.40002,-0.13461 -2.10037,-0.17065 -2.79599,-0.20132c-1.36224,-0.06006 -2.02197,-0.06638 -2.66135,-0.07468c-0.6153,-0.008 -2.27734,-0.00595 -3.20398,-0.01199c-0.8067,-0.00525 -1.53506,-0.01468 -2.22,-0.08398c-1.04523,-0.10574 -1.78281,-0.2666 -2.56168,-0.43552c-0.82123,-0.1781 -2.12445,-0.48172 -3.04367,-0.67917c-0.47156,-0.10129 -1.43527,-0.30099 -2.41916,-0.5c-0.49672,-0.10046 -1.9957,-0.40067 -2.49817,-0.5c-1.0184,-0.20132 -1.53836,-0.3035 -2.61166,-0.5c-0.556,-0.10181 -1.71844,-0.30344 -2.955,-0.5c-0.64023,-0.10178 -1.29193,-0.20041 -1.95149,-0.29999c-1.33087,-0.2009 -1.99681,-0.298 -3.3125,-0.5c-0.64499,-0.09903 -1.27922,-0.19666 -2.50934,-0.39999c-0.59511,-0.09839 -1.1759,-0.1933 -2.28534,-0.39999c-1.03986,-0.19373 -2.00085,-0.39055 -2.87866,-0.60001c-0.80211,-0.19139 -1.52975,-0.37172 -2.72267,-0.79868c-0.73541,-0.26321 -1.7644,-0.68076 -2.56,-0.76534c-0.72209,-0.07677 -1.75262,-0.00116 -2.53284,-0.47884c-0.59383,-0.36357 -1.28268,-0.97511 -2.3445,-1.39049c-0.85527,-0.33458 -1.35806,-0.42476 -2.41666,-0.625c-0.55746,-0.10545 -1.13165,-0.20993 -2.91667,-0.375c-0.599,-0.05539 -1.19849,-0.08644 -2.38933,-0.14134c-0.58977,-0.02719 -1.17542,-0.03754 -2.32533,-0.10933c-1.11954,-0.0699 -2.19531,-0.19531 -2.71017,-0.26866c-0.97229,-0.1385 -1.84029,-0.30476 -2.90849,-0.48067c-0.91063,-0.14995 -1.52763,-0.7086 -2.1105,-1.26701c-0.59875,-0.57364 -1.24738,-0.72203 -2.3895,-1.23299c-0.99023,-0.44301 -1.5517,-0.67841 -2.14667,-0.92801c-0.62334,-0.26151 -1.27081,-0.53044 -1.9425,-0.7905c-2.0699,-0.80141 -2.77615,-1.02968 -3.47484,-1.26283c-0.69267,-0.23116 -1.38106,-0.4502 -2.06099,-0.66451c-0.66942,-0.211 -1.33211,-0.40173 -3.20834,-1.02083c-0.5912,-0.19507 -1.15862,-0.39378 -2.21866,-0.77867c-0.49026,-0.17801 -1.36505,-0.54243 -2.448,-0.888c-0.91357,-0.29152 -1.86806,-0.32565 -2.552,-0.33333c-0.95085,-0.01067 -1.74721,-0.11328 -2.52,-0.57066c-0.71043,-0.42047 -1.52267,-1.05734 -2.26134,-1.42934c-0.85626,-0.43123 -1.34935,-0.60246 -2.35416,-1.02083c-0.51428,-0.21413 -1.54842,-0.62706 -2.47917,-1.14584c-0.86247,-0.48073 -1.5811,-1.03761 -2.23199,-1.536c-0.57848,-0.44293 -1.56145,-1.13747 -2.42134,-1.26534c-0.95145,-0.14149 -1.81676,-0.24655 -2.44667,-0.60666c-0.8642,-0.49403 -1.68706,-0.80629 -2.28532,-1.22667c-0.74678,-0.52472 -1.60704,-1.01595 -2.47867,-1.16267c-0.93295,-0.15706 -1.63152,-0.16162 -2.64584,-0.75034c-0.52484,-0.30461 -1.32344,-0.86853 -2.0685,-1.48549c-0.69026,-0.57158 -1.24223,-1.16132 -2.03633,-1.9135c-0.56842,-0.53841 -1.45084,-0.76573 -2.18083,-1.23933c-0.77922,-0.50554 -1.39426,-1.04843 -2.22183,-1.36334c-0.83989,-0.3196 -1.67058,-0.59186 -2.308,-1.14532c-0.54086,-0.46964 -1.18433,-1.39886 -1.97333,-1.85201c-0.77185,-0.4433 -1.75838,-0.59831 -2.38667,-0.86133c-0.91325,-0.38229 -1.94768,-0.46457 -2.4575,-1.12984c-0.5472,-0.71404 -0.77936,-1.63538 -1.39883,-2.31633c-0.54323,-0.59715 -1.15816,-1.179 -1.74767,-1.76851c-0.5535,-0.5535 -1.35616,-1.302 -1.96333,-2.02049c-0.59897,-0.70877 -1.08522,-1.46089 -1.45799,-2.01151c-0.39267,-0.57999 -0.99252,-1.47629 -1.57867,-2.368c-0.37683,-0.57326 -1.04639,-1.64261 -1.46249,-2.3625c-0.27055,-0.46809 -0.70506,-1.22578 -1.29083,-2.09084c-0.45316,-0.6692 -0.96217,-1.35391 -1.45201,-2.052c-0.67874,-0.9673 -1.16177,-1.8094 -1.62,-2.448c-0.51546,-0.71835 -1.25138,-1.18097 -1.90133,-1.74133c-0.64122,-0.55284 -1.07577,-1.27672 -1.40134,-2.23334c-0.28625,-0.84109 -0.65636,-1.64876 -1.08266,-2.40349c-0.29868,-0.52876 -0.83868,-1.54274 -0.95834,-2.4375c-0.13538,-1.01236 -0.06528,-1.86011 -0.327,-2.811c-0.20898,-0.75929 -0.40327,-1.28876 -0.8145,-2.30917c-0.3653,-0.90645 -0.7217,-1.92407 -0.861,-2.53499c-0.15908,-0.69769 -0.69057,-1.89629 -1.17651,-2.6385c-0.26948,-0.41161 -0.88271,-1.24858 -1.19733,-1.672c-0.61313,-0.82515 -1.41549,-1.90204 -1.79383,-2.5045c-0.4575,-0.7285 -0.87149,-1.5715 -1.2715,-2.37151c-0.3,-0.59999 -0.77391,-1.61287 -1.2,-2.364c-0.47152,-0.83121 -1.15544,-1.36049 -1.37917,-2.336c-0.20124,-0.87746 -0.0008,-1.80473 -0.02084,-2.66667c-0.02084,-0.89656 -0.1351,-1.61726 -0.44283,-2.47583c-0.2397,-0.66875 -0.72471,-1.68048 -1.0745,-2.30417c-0.57012,-1.01654 -1.12239,-1.68233 -1.64933,-2.38666c-0.49524,-0.66196 -1.04288,-1.37871 -1.5,-2.33334c-0.3114,-0.65031 -0.33273,-1.65466 -0.33334,-2.508c-0.00067,-0.93866 -0.46407,-1.50772 -0.8785,-2.26801c-0.4116,-0.7551 -0.1215,-1.72533 -0.1215,-2.64066c0,-0.69 0.00585,-1.88748 -0.01067,-2.58867c-0.01765,-0.74956 -0.0445,-1.53448 -0.21067,-2.72784c-0.11121,-0.79872 -0.28693,-1.57777 -0.42599,-2.34299c-0.19779,-1.08842 -0.30658,-2.09496 -0.33183,-2.7155c-0.03477,-0.85452 0.07401,-2.09282 -0.078,-2.88c-0.18041,-0.93428 -0.85487,-1.649 -0.93833,-2.41884c-0.09701,-0.89476 -0.0045,-1.64732 -0.0045,-2.64282c0,-0.8 0,-1.79984 0,-2.57918c0,-0.99933 0,-2.02083 0,-2.82083c0,-0.9 0,-1.8 0,-2.7c0,-0.9 -0.2589,-1.93899 0.22133,-2.50017c0.52339,-0.61162 0.71953,-1.21717 0.89301,-1.87133c0.24377,-0.91927 0.73883,-1.80865 1.071,-2.4525c0.32407,-0.62815 1.00729,-1.56987 1.453,-2.3625c0.4457,-0.79263 0.55807,-1.84837 0.97234,-2.45216c0.57693,-0.84089 1.43855,-1.16524 2.08933,-1.50867c0.88889,-0.46908 1.8,-0.35267 2.58667,-0.35267c0.94666,0 1.899,0 2.81333,0c0.9,0 1.7,0 2.6,0c0.9,0 1.81927,-0.16625 2.71067,0.02133c0.80032,0.16842 1.42141,0.83292 1.93667,1.3305c0.77765,0.75096 1.60568,1.10761 2.29549,1.70084c0.65886,0.5666 0.87273,1.45248 1.55717,2.14733c0.59546,0.60452 1.13953,1.29533 2,1.716c0.85387,0.41744 1.56181,0.73225 2.18933,1.484c0.54723,0.65556 0.83217,1.47866 1.71068,1.82133l0.59999,0.426l0.82083,0.33183" id="svg_1" stroke-width="2" stroke="#000" fill="none"/>
  <path t="11804,11988,11988,11988,11988,12004,12024,12024,12040,12040,12040,12040,12040,12056,12056,12056,12056,12073,12073,12073,12073,12090,12090,12090,12111,12111,12131,12131,12151,12151,12151,12173,12173,12173,12173,12173,12193,12193,12193,12193,12212,12212,12233,12233,12233,12254,12275,12275,12275,12275,12275,12295,12295,12295,12295,12316,12316,12316,12345,12345,12368,12368,12394,12394,12418,12447,12447,12447,12473,12473,12474,12474,12474,12496,12497,12530,12562,12562,12622,12638,12638,12657,12658,12658,12690,12690,12690,12691,12691,12713,12713,12714,12714,12725,12741,12756,12757,12773,12773,12773,12773,12790,12790,12790,12790,12806,12807,12807,12807,12823,12823,12823,12823,12840,12840,12840,12856,12857,12857,12857,12857,12873,12873,12873,12873,12873,12874,12874,12874,12891,12891,12891,12891,12891,12891,12891,12907,12907,12907,12907,12908,12908,12924,12924,12924,12924,12940,12940,12940,12957,12957,12957,13022,13022,13022,13022,13022,13037,13058,13058,13074,13074,13074,13089,13090,13090,13090,13090,13090,13107,13107,13107,13107,13108,13108,13108,13108,13124,13124,13124,13124,13155,13156,13163" d="m120.51137,121.09091c-1.672,0 -2.76894,-0.02107 -3.5,0.02084c-0.73363,0.04205 -1.7916,0.47314 -2.6005,0.85816c-0.74314,0.35372 -1.66499,0.78368 -2.271,1.1835c-0.69212,0.45663 -1.43523,0.94835 -1.8325,1.17083c-1.1768,0.65902 -1.98941,0.96257 -2.77516,1.24583c-0.76168,0.27458 -1.86288,0.66949 -2.53417,1.00484c-0.64887,0.32415 -1.51893,0.87341 -2.32,1.34933c-0.70427,0.41842 -1.56384,0.85886 -2.3665,1.26667c-0.78097,0.39679 -1.58958,0.97015 -2.321,1.37917c-0.7736,0.43259 -1.50269,0.4413 -2.3365,0.58215c-1.3186,0.22273 -2.03157,0.49585 -2.768,0.8c-0.75455,0.31163 -1.48417,0.67125 -2.553,1.11717c-0.65614,0.27374 -1.28383,0.49062 -2.13499,0.82016c-1.006,0.3895 -1.87597,0.80141 -2.68667,1.20134c-0.78931,0.38939 -1.51568,0.71141 -2.396,0.98534c-1.10527,0.34392 -1.66252,0.57991 -2.312,0.88666c-0.72688,0.34331 -1.49614,0.73039 -2.69167,1.32784c-0.79143,0.39549 -1.179,0.58951 -1.92834,0.96417c-1.33866,0.66933 -1.90972,0.93233 -2.6095,1.31517c-0.90908,0.49734 -1.5277,1.07162 -2.38383,1.62067c-0.65446,0.41971 -1.50469,0.77885 -2.37417,0.89566c-0.9352,0.12564 -1.65301,0.41885 -2.34616,1.08783c-0.43769,0.42242 -1.13392,1.24287 -1.63967,1.88467c-0.53215,0.67529 -1.05979,1.35788 -1.464,2.064c-0.66386,1.15971 -0.62993,1.90956 -0.85917,2.86267c-0.20728,0.86183 -0.77937,1.42453 -0.9595,2.48c-0.1594,0.93401 -0.08985,1.66023 0.13066,2.62534c0.19408,0.8494 0.52106,1.56432 0.66667,2.5c0.11655,0.74898 0.13619,1.5882 0.228,2.45999c0.09216,0.87515 0.34414,2.11159 0.6485,2.81218c0.27768,0.63919 0.62421,1.65129 1.65417,2.11983c0.76729,0.34904 1.74072,0.14951 2.5075,0.05083c0.90044,-0.11589 1.83017,-0.37492 2.5245,-0.58949c0.72753,-0.22484 1.78874,-0.66243 2.44684,-1.006c0.64265,-0.33549 1.53858,-0.89864 2.4575,-1.32584c0.90536,-0.4209 1.56767,-0.62468 2.27033,-0.82016c1.1655,-0.32425 2.02474,-0.50124 2.88767,-0.68051c0.41856,-0.08696 1.87379,-0.36252 2.631,-0.46815c0.82012,-0.11441 1.89919,-0.26331 2.64383,-0.42334c0.42294,-0.0909 1.35748,-0.31412 2.35751,-0.68666c1.09029,-0.40617 1.63582,-0.69751 2.19466,-0.99734c1.16137,-0.62311 1.7363,-0.98569 2.32533,-1.34132c0.59464,-0.35901 1.18302,-0.73566 2.38934,-1.43733c1.19125,-0.69292 1.79386,-1.00812 2.38934,-1.32001c0.58822,-0.30807 1.16972,-0.61028 2.32533,-1.16c1.11399,-0.52992 1.66096,-0.77087 2.71916,-1.22499c0.50763,-0.21783 1.48241,-0.61778 1.94733,-0.8c1.28252,-0.50267 2.05109,-0.7666 2.73617,-1.03633c0.92246,-0.3632 1.97533,-0.92805 2.4255,-1.2825c0.66868,-0.52649 1.45716,-1.34283 2.05717,-1.94284c0.6,-0.59999 1.40431,-1.39575 1.79733,-1.79866c0.73885,-0.75745 1.04778,-1.584 1.65083,-2.23967c0.55854,-0.60728 1.62454,-0.68135 2.29917,-1.06616c0.80016,-0.45641 1.41735,-1.00969 1.878,-1.3515c0.97253,-0.72166 1.85996,-1.31628 2.35467,-1.65201c0.5236,-0.35533 1.07297,-0.72455 1.64249,-1.1055c1.77637,-1.1882 2.37701,-1.58617 2.9735,-1.98383c0.5905,-0.39366 1.172,-0.78134 1.7415,-1.161c1.09102,-0.72733 1.60626,-1.07135 2.5625,-1.70834c0.84113,-0.56032 1.57066,-1.03999 2.196,-1.44l0.97067,-0.56l0.79166,-0.29166l0.931,-0.04167" id="svg_2" stroke-width="2" stroke="#000" fill="none"/>
  <path t="14729,14804,14820,14820,14820,14839,14839,14839,14856,14856,14856,14856,14856,14856,14856,14856,14873,14873,14873,14873,14873,14873,14873,14873,14873,14906,14906,14906,14906,14906,14906,14906,14906,14906,14939,14939,14939,14939,14939,14939,14939,14939,14939,14973,14973,14973,14973,14973,14973,14973,14973,14973,15006,15006,15006,15006,15006,15039,15039,15039,15073,15073,15089,15089,15089,15089,15089,15147,15148,15162,15162,15189,15189,15371,15371,15371,15371,15371,15386,15386,15418,15442,15466,15475,15490,15514,15515,15523,15546,15556,15573,15589,15606,15623,15623,15639,15639,15656,15656,15656,15656,15673,15673,15673,15673,15689,15689,15689,15689,15707,15708,15708,15730,15731,15731,15740,15740,15757,15757,15774,15774,15796,15796" d="m129.51137,111.09091c1.04167,0 2,0 2.8,0c0.8,0 1.84032,0.03368 2.616,-0.18c0.7119,-0.19611 1.59122,-0.63998 2.69867,-1.24667c0.6416,-0.35148 1.32303,-0.75272 2.052,-1.1775c0.76971,-0.44852 1.57246,-0.92216 2.41199,-1.4025c1.75011,-1.00134 2.66272,-1.49541 3.58801,-1.99333c0.93303,-0.50209 1.87389,-0.99895 2.8125,-1.5c0.93471,-0.49896 1.86223,-0.99297 2.76749,-1.5c1.76105,-0.98637 2.59271,-1.49396 3.39734,-2.00134c0.78835,-0.49712 1.55162,-1.00409 2.2935,-1.5195c0.73412,-0.51001 1.45335,-1.03055 2.15849,-1.5645c1.41281,-1.06981 2.10469,-1.63403 2.8,-2.19466c0.69168,-0.55771 1.37131,-1.1142 2.0415,-1.6575c0.65381,-0.53001 1.2863,-1.04437 1.90649,-1.5225c1.14742,-0.88458 1.68747,-1.25937 2.19734,-1.59734c0.47476,-0.31469 0.92694,-0.59211 1.35449,-0.8385c0.39798,-0.22935 0.77509,-0.43141 1.1295,-0.61349c0.63913,-0.32836 0.93123,-0.46989 1.20401,-0.604c0.25592,-0.12583 0.93025,-0.50388 1.77066,-0.72c0.78679,-0.20233 1.61882,-0.1894 2.61349,-0.52834c0.71059,-0.24213 1.88614,-0.80585 2.25034,-0.95966c0.78889,-0.33318 1.6201,-0.66782 2.42101,-1.026c1.05496,-0.4718 1.69099,-1.34822 2.71516,-1.31933c0.79411,0.0224 1.30515,0.97052 1.88533,1.55199c0.59801,0.59933 1.36601,1.26065 1.78134,2.11467c0.36807,0.75684 0.33199,1.6 0.33333,2.5955c0.00101,0.74734 0,1.7685 0,2.7045c0,0.9 0.32314,1.97955 -0.2215,2.57867c-0.63435,0.6978 -1.54031,0.76959 -2.16783,1.52134c-0.54723,0.65556 -0.89267,1.55727 -1.71051,1.6c-0.92422,0.04829 -1.67451,0.02136 -2.55283,0.35267c-0.70602,0.26632 -1.75423,0.59734 -2.40201,0.81667c-1.02014,0.3454 -1.64209,0.69325 -2.34132,1.016c-0.72208,0.33329 -1.77591,0.8111 -2.77867,1.17867c-0.64651,0.23698 -1.30721,0.44209 -2.3465,0.736c-0.72556,0.20518 -1.82077,0.48902 -2.50951,0.7c-0.93115,0.28523 -1.70509,0.60693 -2.65199,1c-0.73613,0.30557 -1.5784,0.50994 -2.25034,0.95717c-0.90816,0.60445 -0.99736,1.47262 -1.2885,2.44267c-0.23999,0.79961 -0.7785,1.63351 -1.2785,2.27934l-0.70134,0.71951l-0.55583,0.44416" id="svg_3" stroke-width="2" stroke="#000" fill="none"/>
  <path t="16758,16822,16822,16853,16853,16853,16873,16873,16889,16889,16889,16906,16906,16906,16922,16922,16922,16922,16922,16923,16939,16939,16939,16939,16939,16939,16939,16939,16939,16956,16956,16956,16956,16956,16956,16956,16956,16956,16972,16972,16972,16972,16972,16972,16973,16973,16989,16989,16989,16989,17006,17006,17006,17022,17022,17022,17039,17039,17039,17039,17056,17056,17056,17056,17056,17056,17073,17073,17073,17073,17073,17073,17073,17073,17089,17089,17089,17089,17089,17089,17089,17089,17089,17106,17106,17106,17107,17107,17107,17107,17107,17107,17123,17123,17123,17123,17123,17123,17123,17124,17124,17139,17139,17139,17139,17139,17139,17139,17140,17140,17156,17157,17157,17157,17157,17157,17157,17157,17157,17173,17173,17174,17174,17174,17174,17174,17174,17174,17195,17195,17196,17196,17196,17196,17196,17196,17196,17206,17206,17206,17206,17206,17206,17206,17206,17207,17223,17223,17223,17223,17223,17224,17224,17224,17224,17239,17239,17239,17239,17240,17240,17240,17240,17240,17256,17256,17256,17257,17257,17257,17257,17257,17257,17273,17273,17273,17273,17274,17274,17274,17274,17274,17289,17290,17290,17290,17291,17291,17291,17291,17291,17307,17307,17307,17307,17307,17307,17307,17308,17308,17325,17325,17325,17325,17326,17326,17326,17326,17340,17340,17357,17374,17374,17389,17389,17389,17389,17389,17389,17389,17390,17406,17406,17406,17406,17406,17406,17406,17423,17423,17423,17423,17439,17439,17456,17456,17473,17473,17489,17506,17506,17506,17539,17539,17578,17587,17605,17623,17623,17639,17639,17656,17656,17673,17673,17673,17707,17707,17770,17770,17786,17806,17807,17822,17823,17823,17839,17839,17891,17915,17915,17931,17931,17931,17939,17939,17939,17940,17956,17956,17973,17973,17973,17973,17989,17989,17989,18051,18059,18059,18059,18072,18089,18089,18106,18106,18106,18106,18107,18155,18155,18253,18355,18355,18371,18396,18396,18418,18418,18482,18506,18506,18586,18618,18643,18651,18659,18672,18689,18689,18689,18706,18706,18707,18707,18723,18723,18723,18723,18724,18739,18739,18739,18739,18740,18740,18740,18756,18756,18756,18757,18757,18773,18773,18773,18773,18789,18789,18811,18811,18887,18903,18918,18919,18924,18924,18939,18940,18940,18956,18956,18956,18957,18957,18957,18973,18973,18973,19018,19018,19042,19042,19050,19050,19050,19058,19058,19072,19072,19089,19090,19106,19170,19170,19195,19205,19223,19223,19223,19239,19239,19239,19240,19240,19255,19256,19256,19256,19257,19272,19272,19273,19273,19273,19288,19289,19289,19289,19290,19305,19306,19306,19306,19324,19324,19324,19324,19339,19340,19340,19340,19340,19340,19356,19356,19356,19356,19357,19372,19373,19373,19402,19403,19434,19442,19450,19450,19458,19458,19458,19458,19459,19473,19473,19473,19474,19489,19489,19490,19490,19506,19507,19507,19507,19507,19507,19508,19523,19523,19523,19524,19524,19524,19524,19524,19539,19539,19540,19540,19578,19670,19670,19723,19724,19724,19724,19740,19740,19740,19740,19741,19741,19741,19741,19742,19757,19757,19757,19758,19758,19758,19758,19758,19759,19773,19774,19774,19774,19774,19775,19790,19791,19807,19823,19823,19824,19840,19840,19840,19840,19841,19857,19857,19857,19858,19858,19889,19890,19890,19890,19890,19906,19907,19907,19907,19907,19923,19923,19924,19939,19940,19940,19956,19956,19957,19957,19973,19973,19973,19974,19989,19990,19990,19990,20006,20006,20007,20023,20023,20023,20039,20040,20040,20056,20056,20057,20057,20057,20083,20084,20084,20169,20169,20185,20223" d="m356.51135,205.09091c-0.70981,1.65266 -1.36023,2.33908 -1.97833,2.9785c-0.58304,0.60315 -0.95215,1.55591 -1.37881,2.33051c-0.38449,0.69804 -0.83398,1.46474 -1.16367,2.21182c-0.35364,0.80139 -0.76114,1.59041 -1.33652,2.25383c-0.62064,0.71561 -1.47031,1.39912 -2.12,1.91335c-0.35641,0.2821 -1.16501,0.87952 -1.62399,1.19466c-1.02039,0.70059 -2.23032,1.45341 -2.90549,1.86017c-0.71277,0.42941 -1.46097,0.86708 -2.2305,1.3185c-0.78348,0.45958 -1.57352,0.92149 -2.35651,1.3905c-0.77301,0.46303 -2.24243,1.37704 -2.9205,1.82651c-0.64984,0.43076 -1.26627,0.8596 -1.86301,1.27499c-0.58127,0.40462 -1.14935,0.80392 -1.71899,1.185c-0.56641,0.37892 -1.73334,1.10153 -2.34583,1.44c-0.61823,0.34164 -1.24847,0.66245 -1.87653,0.97501c-0.61765,0.30739 -1.80917,0.87576 -2.35733,1.16c-1.42929,0.74113 -1.80927,0.98476 -2.74066,1.64499c-0.52411,0.37152 -1.49387,1.04359 -2.30865,1.40567c-0.5426,0.24112 -1.61078,0.62949 -2.32202,0.936c-0.90894,0.39171 -1.87326,0.80344 -2.41882,1.0045c-0.91449,0.33702 -1.60797,0.57509 -2.77716,1.01717c-0.43079,0.16289 -1.35049,0.52376 -1.84,0.72c-1.04108,0.41737 -1.59094,0.6427 -2.75,1.125c-1.24371,0.51753 -1.89874,0.79568 -2.58133,1.07999c-0.71005,0.29573 -1.45004,0.60159 -2.22302,0.91501c-0.80566,0.32666 -2.52802,1.00754 -3.44882,1.35983c-0.95782,0.36647 -1.95453,0.73874 -2.9895,1.1145c-1.06866,0.388 -2.1734,0.77832 -3.31351,1.1685c-1.17053,0.40059 -3.60916,1.19975 -4.875,1.59532c-1.29016,0.40317 -2.60574,0.7999 -3.94348,1.1895c-1.35327,0.39413 -2.72281,0.77905 -4.1055,1.1535c-1.38931,0.37625 -4.18536,1.09521 -5.58652,1.4355c-1.39886,0.33972 -2.79892,0.66478 -4.19998,0.97501c-1.39899,0.30977 -2.79904,0.6048 -4.20001,0.88499c-1.39905,0.27982 -4.19922,0.79962 -5.59949,1.04001c-1.39572,0.23961 -2.78641,0.464 -4.16852,0.67499c-1.3689,0.20897 -2.72351,0.40355 -4.06049,0.58501c-1.31503,0.17848 -3.87126,0.49709 -5.106,0.64034c-1.20128,0.13936 -2.36716,0.26726 -3.4935,0.396c-1.08466,0.12398 -2.12473,0.24521 -3.11551,0.37801c-0.94119,0.12614 -2.65849,0.40437 -3.42683,0.5685c-0.71429,0.15257 -1.37042,0.32076 -1.97099,0.4935c-0.55202,0.15878 -1.05142,0.32181 -1.50301,0.47549c-0.40701,0.13852 -1.08804,0.37949 -1.36983,0.46701c-0.24504,0.07611 -0.46129,0.13452 -0.6525,0.18149c-0.1705,0.04187 -0.32692,0.07495 -0.4725,0.1095c-0.14108,0.03348 -0.42844,0.11594 -0.58217,0.17334c-0.1637,0.06113 -0.33229,0.13364 -0.504,0.21451c-0.17567,0.08273 -0.35045,0.17264 -0.522,0.26849c-0.16978,0.09485 -0.48689,0.29422 -0.632,0.39566c-0.1429,0.09988 -0.28474,0.20618 -0.43799,0.31052c-0.16467,0.11215 -0.34988,0.2291 -0.56401,0.3465c-0.24168,0.13251 -0.85022,0.41385 -1.2265,0.56415c-0.41957,0.16757 -0.88545,0.33594 -1.39349,0.504c-0.54289,0.1796 -1.1225,0.35477 -1.7355,0.522c-0.63898,0.17435 -1.99547,0.49112 -2.70633,0.6315c-0.72783,0.14374 -1.4756,0.27341 -2.2395,0.40652c-0.77977,0.13589 -1.57542,0.27191 -2.3835,0.4245c-0.82263,0.15533 -2.5024,0.51593 -3.35567,0.73331c-0.86816,0.22116 -1.74594,0.47034 -2.6355,0.7395c-0.90683,0.27441 -1.82642,0.57141 -2.76151,0.88351c-0.95427,0.31851 -2.91492,0.9993 -3.92316,1.35501c-1.0211,0.36026 -2.04572,0.72595 -3.06601,1.09348c-1.00903,0.36346 -1.9977,0.72299 -2.95799,1.0755c-0.92502,0.33954 -2.63419,0.97601 -3.40466,1.26651c-0.71484,0.26953 -1.37671,0.52167 -1.992,0.75c-0.57008,0.21155 -1.09987,0.40433 -1.59601,0.57001c-0.46133,0.15405 -1.3065,0.39673 -1.698,0.48032c-0.3687,0.07874 -0.71941,0.13364 -1.05,0.17102c-0.30951,0.035 -0.59982,0.05542 -0.87,0.06299c-0.87985,0.02466 -1.63342,0.17075 -2.19266,0.81033c-0.64268,0.73502 -1.20239,0.89627 -2.49734,1.69867c-0.42143,0.26114 -0.87627,0.55353 -1.87733,1.20801c-0.54019,0.35318 -1.09891,0.72363 -1.674,1.1055c-0.58757,0.39014 -2.38055,1.58725 -2.978,1.98117c-0.58957,0.38873 -1.16956,0.76657 -1.7415,1.12198c-0.55217,0.34314 -1.5863,0.98508 -2.5625,1.41669c-0.8259,0.36514 -1.9111,0.57217 -2.47217,0.763c-1.09645,0.37296 -1.56581,1.11728 -2.12784,1.88214c-0.46742,0.63611 -1.2,1.3215 -1.7,1.8215c-0.72084,0.72086 -1.3914,1.34357 -2.01466,2.03601c-0.49583,0.55087 -1.02557,1.34695 -1.14366,2.14316c-0.14671,0.98923 -0.25073,1.70609 -0.75768,2.27686c-0.55634,0.6264 -0.28174,1.74316 -0.284,2.60117c-0.00233,0.89099 0.00008,1.80447 0,2.60449c-0.00009,0.95966 0.03091,1.76709 -0.05717,2.58566c-0.11171,1.03799 -0.51402,1.88712 -0.77615,2.78601c-0.21609,0.74106 -0.16667,1.6875 -0.16667,2.65332c0,0.76001 0,1.67999 0,2.46149c0,0.79053 -0.17751,1.94052 0.05716,2.74286c0.2589,0.88519 0.8839,1.62369 1.02684,2.36499c0.19289,1.00034 0.34518,1.64307 0.52667,2.34c0.37526,1.44107 0.57785,2.11975 0.78932,2.74667c0.28465,0.84384 0.78653,1.90002 1.23601,2.508c0.51402,0.69528 1.04512,1.34454 1.50267,2.17065c0.31522,0.56909 0.72049,1.77173 0.78932,2.35736c0.12292,1.04575 -0.03142,2.03568 0.23868,2.98798c0.19417,0.6846 0.57469,1.39502 1.23332,2.19736c0.64485,0.78555 1.17384,1.18942 1.76668,2.30264c0.34792,0.65332 0.6512,1.43335 0.8125,1.83334c0.31731,0.78683 0.59473,2.19116 1,2.89584c0.40399,0.70245 1.50482,0.60416 2.36816,0.60416c0.89999,0 1.82445,0.0737 2.65266,-0.02084c0.99225,-0.11325 1.36021,-0.72589 2.02083,-1.45831c0.55792,-0.61859 1.56715,-0.46698 2.3325,-0.94617c0.79628,-0.49857 1.42482,-1.09192 2.12584,-1.57468c0.67372,-0.46396 1.41479,-0.85162 2.35416,-1.16666c0.76857,-0.25775 1.29698,-0.66367 2.15234,-0.9335c0.72661,-0.22922 1.56166,-0.40094 2.418,-0.65701c1.27206,-0.38037 2.0372,-0.71707 2.767,-1.08951c0.75867,-0.38718 1.13995,-0.63254 2.496,-1.31998c0.5153,-0.26123 1.64296,-0.78381 2.23466,-1.048c0.59763,-0.26682 1.1958,-0.52762 1.78799,-0.77551c1.63985,-0.68646 2.12457,-0.86725 2.98199,-1.19998c0.74527,-0.28922 1.7379,-0.66364 2.62851,-1.13116c0.90523,-0.47519 1.46147,-0.85773 2.01483,-1.19467c0.99393,-0.60522 1.80112,-1.16028 2.80133,-1.39868c0.75153,-0.17914 1.71193,0.07211 2.64134,-0.08548c0.8493,-0.14401 1.44389,-0.64902 2.44266,-0.87851c0.7886,-0.18118 1.80859,-0.26334 2.64267,-0.56799c0.50699,-0.18518 1.82324,-0.72211 2.24266,-0.87466c0.92368,-0.336 1.41652,-0.50256 2.41335,-0.85336c0.96584,-0.3399 1.83699,-0.65271 2.87267,-1.06366c0.54659,-0.21689 1.62186,-0.64636 2.418,-0.72565c1.03947,-0.10352 1.73149,-0.03601 2.75349,-0.03601c0.71851,0 1.50908,0.01199 2.53551,-0.00015c0.88017,-0.01041 1.94127,-0.1633 2.51099,-0.6105c0.7789,-0.61139 1.27406,-1.21042 2.23601,-1.35333c0.99768,-0.14822 1.89798,0.15344 2.77467,-0.07202c0.86623,-0.22278 1.34401,-1.04065 2.00417,-1.46399c0.58168,-0.37302 1.60049,-0.61124 2.47266,-0.79999c0.983,-0.21271 1.50493,-0.29776 2.55917,-0.5c1.0311,-0.19781 1.99428,-0.39581 2.892,-0.60001c0.43079,-0.09799 1.26344,-0.29825 2.472,-0.60001c0.80162,-0.20016 1.61285,-0.4028 2.436,-0.63599c0.85167,-0.24124 1.73347,-0.52264 2.64665,-0.84802c0.93497,-0.33316 1.39642,-0.5162 2.3075,-0.86331c1.2764,-0.4863 2.03802,-0.77063 2.73785,-1.01669c0.6496,-0.22839 1.87424,-0.62936 2.47467,-0.83865c0.94269,-0.32861 1.6218,-0.59036 2.73065,-1.13068c0.41345,-0.20145 1.2753,-0.67419 2.1875,-1.16666c0.4639,-0.25046 1.38559,-0.75577 2.3125,-1.16666c0.86902,-0.38522 1.70755,-0.66696 2.48401,-0.91202c0.70908,-0.22379 1.63794,-0.52567 2.64099,-0.90048c0.63794,-0.23837 1.63614,-0.48151 2.38449,-0.51636c1.11459,-0.05191 1.56921,-0.63049 2.2305,-1.20581c0.63452,-0.55203 1.75928,-0.9668 2.39603,-1.28268c0.69119,-0.34293 1.41177,-0.69983 2.14798,-1.03198c1.05515,-0.47604 1.73856,-0.69867 2.63602,-1.14536c0.57214,-0.28476 1.55911,-1.11594 2.064,-1.58932c0.54266,-0.50882 1.17081,-1.06418 2.49017,-1.60684c0.50693,-0.2085 1.07703,-0.34656 2.29666,-0.66333c0.6485,-0.16843 1.32208,-0.32861 2.0025,-0.5325c1.40158,-0.41998 2.0961,-0.70224 2.78799,-0.99731c0.69086,-0.29465 1.3634,-0.61313 2.66132,-1.23734c0.61572,-0.29611 1.1864,-0.61371 2.27734,-1.04535c0.90897,-0.35965 1.70966,-0.45477 2.57718,-0.70581c1.02271,-0.29593 1.71689,-0.87552 2.11484,-1.60751c0.42517,-0.78201 0.70444,-1.51944 1.30798,-2.10083c0.39395,-0.37952 1.49567,-1.2583 2.202,-1.78067c0.78922,-0.58368 1.65967,-1.19571 2.586,-1.8345c0.95959,-0.66171 1.9425,-1.32355 2.92801,-1.97849c0.96655,-0.64236 2.78271,-1.82748 3.59982,-2.35101c0.74969,-0.48032 1.43997,-0.91577 2.07751,-1.30649c0.58426,-0.35806 1.1246,-0.67963 1.6275,-0.96451c0.46396,-0.26282 1.31058,-0.70749 1.70248,-0.89368c0.36823,-0.17496 0.71719,-0.33136 1.05002,-0.46048c0.8631,-0.33484 1.96295,-0.46924 2.69064,-0.76669c0.91669,-0.37473 1.52594,-1.01392 2.26517,-1.45764c0.71091,-0.4267 1.58582,-0.99371 2.24734,-1.47269c0.71701,-0.51913 1.08447,-0.79587 1.8075,-1.38834c1.07492,-0.88083 1.72882,-1.49414 2.05734,-1.78665c0.64835,-0.5773 1.28415,-1.1608 2.34683,-1.88934c0.71942,-0.49323 1.49951,-0.92102 1.88916,-1.14667c0.79102,-0.45804 1.99292,-1.19003 2.78033,-1.72284c0.38962,-0.26361 1.13269,-0.79672 1.83835,-1.2825c0.92194,-0.63467 1.72446,-1.05777 2.3045,-1.51749c0.84381,-0.66879 1.15994,-1.31879 1.72083,-1.85316c0.92642,-0.88266 1.63736,-1.20093 2.30533,-1.63467c0.67892,-0.44086 1.61911,-1.16452 2.12567,-1.72116c0.49509,-0.54405 0.91046,-1.14388 1.71417,-2.34267c0.39822,-0.59396 0.78943,-1.17294 1.31482,-2.01483c0.47314,-0.75819 0.82059,-1.47472 1.36932,-2.284c0.56226,-0.82924 1.13214,-1.4059 1.71735,-2.00134c0.79367,-0.80757 1.20932,-1.21066 1.85583,-1.85716c0.7095,-0.7095 1.23068,-1.2244 1.76816,-1.77884c0.55334,-0.57082 1.12503,-1.13753 2.08667,-2.36133c0.44699,-0.56886 0.80533,-1.13066 1.35468,-2.06934l0.31198,-0.912l0.03201,-0.82132l0.34201,-0.90001" id="svg_4" stroke-width="2" stroke="#000" fill="none"/>
  <path t="21418,21524,21524,21524,21524,21532,21532,21532,21532,21532,21532,21532,21556,21556,21556,21556,21556,21556,21556,21556,21572,21573,21573,21573,21573,21573,21573,21573,21573,21589,21589,21590,21590,21590,21590,21590,21590,21590,21606,21606,21606,21606,21606,21606,21606,21606,21606,21621,21621,21621,21621,21621,21622,21622,21622,21622,21638,21638,21638,21638,21638,21638,21638,21639,21639,21655,21655,21655,21655,21655,21655,21656,21656,21656,21671,21671,21671,21672,21672,21672,21672,21672,21672,21690,21690,21690,21690,21690,21690,21690,21690,21690,21739,21739,21739,21739,21739,21739,21740,21740,21740,21772,21772,21772,21772,21773,21773,21773,21773,21773,21806,21806,21806,21806,21806,21806,21806,21806,21806,21905,21905,21905,21905,21905,21905,21905,21905,21905,21962,21962,21962,21962,21962,21963,21963,21963,21963,21972,21972,21972,21972,21972,21972,21972,21972,21973,22005,22005,22005,22005,22005,22005,22005,22005,22006,22021,22021,22021,22021,22021,22021,22022,22022,22022,22038,22038,22038,22038,22038,22038,22038,22039,22039,22058,22058,22058,22058,22059,22059,22059,22059,22059,22071,22071,22071,22071,22071,22071,22088,22122,22130,22138,22155,22155,22155,22171,22171,22171,22172,22172,22172,22172,22188,22188,22188,22188,22188,22188,22205,22205,22205,22205,22205,22205,22221,22221,22221,22221,22221,22243,22243,22243,22255,22255,22306,22314,22314,22323,22323,22338,22338,22338,22355,22355,22355,22355,22371,22371,22371,22371,22372,22454,22454,22454,22470,22470,22470,22489,22505,22505,22521,22521,22570,22570,22586,22602,22610,22610,22621,22638,22638,22638,22639,22655,22655,22655,22656,22671,22671,22671,22672,22672,22672,22689,22689,22689,22690,22707,22707,22707,22708,22722,22722,22739,22739,22739,22755,22755,22756,22771,22772,22772,22772,22772,22788,22788,22789,22789,22789,22789,22805,22805,22806,22806,22806,22806,22806,22821,22821,22822,22822,22822,22838,22838,22839,22839,22839,22855,22855,22856,22871,22871,22872,22872,22888,22888,22905,22906,22921,22922,22922,22938,22939,22939,22955,22956,22995,23035,23035,23043,23059,23075,23075,23138,23138,23138,23138,23172,23189,23189,23189,23190" d="m372.51135,156.09091c0.01352,-1.44217 0.04199,-2.14873 0.17151,-2.9895c0.073,-0.47375 0.48447,-2.07741 0.68585,-2.66251c0.20966,-0.60916 0.44873,-1.22951 0.72598,-1.84799c0.56201,-1.25368 0.8754,-1.86656 1.58334,-3c0.34146,-0.54668 1.11813,-1.58107 1.54401,-2.10933c0.45197,-0.56062 0.95325,-1.15366 1.49399,-1.806c0.59537,-0.71822 1.96606,-2.41486 2.74484,-3.41985c0.84421,-1.08942 1.72601,-2.25591 2.63849,-3.47549c0.93524,-1.25003 1.87201,-2.51767 2.80051,-3.78149c0.91016,-1.23886 2.61203,-3.5741 3.38217,-4.63534c0.71518,-0.98547 1.37756,-1.90149 1.992,-2.7525c0.57086,-0.79067 1.10117,-1.52679 1.59598,-2.21249c0.46252,-0.64095 1.3071,-1.80817 1.69852,-2.343c0.37262,-0.50914 0.73117,-0.99439 1.08148,-1.4565c0.33875,-0.44685 0.67349,-0.87801 1.00952,-1.29449c0.332,-0.4115 1.01672,-1.21509 1.37347,-1.61417c0.36322,-0.4063 0.74121,-0.81626 1.125,-1.242c0.39624,-0.43956 0.80389,-0.89803 1.21503,-1.386c0.42908,-0.50925 1.3111,-1.63356 1.75983,-2.25783c0.47028,-0.65425 0.94159,-1.35184 1.41449,-2.0895c0.491,-0.76591 0.98059,-1.57121 1.46851,-2.4135c0.50296,-0.8683 1.49994,-2.70821 1.996,-3.67517c0.50806,-0.99034 1.01257,-2.01154 1.53149,-3.054c0.53006,-1.06488 1.07101,-2.15189 1.6395,-3.252c0.57944,-1.1213 1.82083,-3.40044 2.49234,-4.55c0.67911,-1.16254 1.38577,-2.31641 2.1015,-3.462c0.70999,-1.13641 1.42212,-2.24834 2.11951,-3.336c0.67731,-1.05634 1.95105,-3.04639 2.52933,-3.97383c0.54828,-0.87932 1.06232,-1.72128 1.55249,-2.5275c0.47147,-0.77545 0.92511,-1.52761 1.3725,-2.2575c0.43933,-0.71677 1.32321,-2.12531 1.78366,-2.82366c0.46881,-0.71106 0.96463,-1.43443 1.4985,-2.1735c0.56021,-0.77551 1.17136,-1.58205 1.84052,-2.42551c0.71579,-0.90225 2.36734,-2.8701 3.30981,-3.95033c1.00397,-1.1507 2.07602,-2.35027 3.19501,-3.6015c1.15762,-1.29445 2.34906,-2.62054 3.55499,-3.9795c1.22076,-1.37569 3.65082,-4.16359 4.83435,-5.56767c1.17111,-1.38934 2.30881,-2.7734 3.40799,-4.1475c1.07538,-1.34436 2.10568,-2.66801 3.08401,-3.9675c0.94412,-1.25407 2.65958,-3.64732 3.42233,-4.77683c0.71951,-1.0655 1.37256,-2.0802 1.97098,-3.033c0.55399,-0.88206 1.05002,-1.69908 1.50302,-2.439c0.40573,-0.66271 1.08026,-1.74318 1.36966,-2.14317c0.23761,-0.32839 0.44519,-0.58383 0.642,-0.7485c0.15207,-0.12724 0.30093,-0.19908 0.42599,-0.1905c0.11578,0.00794 0.32224,0.17477 0.41785,0.288c0.10358,0.12264 0.19882,0.26508 0.28949,0.4185c0.09314,0.1576 0.1774,0.32274 0.25351,0.4905c0.07452,0.16431 0.19333,0.48065 0.23584,0.627c0.04001,0.13775 0.06979,0.27277 0.09598,0.4065c0.02649,0.13528 0.0498,0.27617 0.078,0.4245c0.03036,0.15969 0.11258,0.52388 0.16867,0.73317c0.06113,0.22809 0.13196,0.47116 0.20401,0.729c0.07529,0.26949 0.15189,0.5487 0.22198,0.837c0.07126,0.29305 0.18936,0.89051 0.23151,1.19083c0.04187,0.29839 0.07178,0.59581 0.10651,0.8895c0.0343,0.28998 0.06995,0.57579 0.12448,0.8535c0.05362,0.27306 0.215,0.79449 0.33286,1.0355c0.117,0.23925 0.25891,0.46259 0.40799,0.675c0.14569,0.20759 0.29871,0.39996 0.444,0.585c0.13736,0.17496 0.3768,0.49213 0.46234,0.64c0.07669,0.13256 0.13278,0.25856 0.17099,0.375c0.03406,0.10385 -0.10889,0.59729 0.12918,1.35117c0.27185,0.86092 1.37106,1.08287 2.04315,1.73917c0.58081,0.56716 0.71548,1.19326 1.233,2.223c0.4386,0.87271 0.6785,1.35877 1.20834,2.39584c0.27835,0.54484 0.5639,1.10013 0.86099,1.6575c0.88687,1.66394 1.19641,2.1937 1.48834,2.72284c0.57074,1.03446 0.84866,1.54073 1.09467,2.05267c0.71527,1.48851 0.88995,1.99834 1.2045,3c0.30716,0.97815 0.41263,1.47193 0.6925,2.41917c0.27246,0.92215 0.59055,1.80313 0.94266,2.63867c0.33902,0.80443 0.70779,1.55272 1.15298,2.62484c0.27048,0.65141 0.62503,1.52582 0.85501,2.48849c0.18704,0.78296 0.16666,1.744 0.16666,2.65467c0,0.85333 -0.0007,1.796 0,2.64799c0.00067,0.80267 -0.0076,1.5956 0.08536,2.51867c0.10446,1.03721 0.26025,1.77313 0.45633,2.53284c0.2034,0.78813 0.61526,1.98309 0.94098,2.7765c0.32242,0.78534 0.67587,1.52271 0.94803,2.232c0.35233,0.91827 0.5462,1.94904 0.56665,2.65333c0.02902,0.99958 0.00266,1.7965 0.00266,2.548c0,1.108 0,2.09084 0,2.79017c0,0.97916 0,1.95833 0,2.8125c0,0.86216 -0.0217,1.8468 -0.86133,2.14133c-0.93491,0.32796 -1.63129,0.50179 -2.44315,0.98167c-0.87747,0.51865 -1.34583,1.12038 -1.75803,1.56451c-0.68402,0.73697 -1.56937,1.35957 -2.25183,1.67383c-0.71649,0.32994 -1.51801,0.5609 -2.68567,1.13867c-0.81506,0.40331 -1.20724,0.65809 -1.95831,1.20833c-0.74411,0.54514 -1.10751,0.82473 -1.99869,1.75833c-0.55215,0.57845 -1.22739,1.49605 -1.64032,2.10001c-0.61118,0.8939 -0.98132,1.50672 -1.60266,2.328c-0.38696,0.51147 -1.20316,1.29691 -1.77917,1.75117c-0.86096,0.67896 -1.34448,1.38689 -1.90482,2.03683c-0.55652,0.64552 -1.40192,1.14027 -1.888,1.45333c-0.87692,0.56477 -1.54913,1.04057 -2.26968,1.59317c-0.77472,0.59415 -1.1731,0.91164 -2.35867,1.959c-0.40652,0.35913 -1.21997,1.11561 -1.64133,1.49934c-0.42929,0.39096 -1.31836,1.19353 -2.29166,1.97916c-0.50357,0.40648 -1.02777,0.80313 -2.09601,1.57867c-0.52692,0.38254 -1.04965,0.74702 -1.55099,1.107c-1.35751,0.97475 -2.09406,1.52995 -2.68634,2.06366c-0.54019,0.48676 -1.0253,1.00866 -1.75467,1.89333c-0.54031,0.65537 -1.07687,1.35877 -1.62601,2.05201c-0.26776,0.33803 -1.26266,1.54144 -1.72733,2.04399c-0.44501,0.48129 -1.39395,1.42607 -1.90665,1.944c-0.52469,0.53003 -1.11609,0.98236 -1.8187,1.98401c-0.53571,0.7637 -0.67389,1.67873 -1.04166,2.35416c-0.55551,1.0202 -1.08902,1.60173 -1.66901,2.14317c-0.7565,0.70622 -1.3927,1.06607 -2.13214,1.53149c-0.7804,0.4912 -1.45615,1.1042 -2.05719,1.7045c-0.70035,0.69948 -1.42599,1.03529 -2.164,1.62534c-0.60443,0.48326 -0.70773,1.46625 -1.04666,2.18533c-0.47049,0.99818 -0.879,1.54149 -1.22266,2.62267c-0.22314,0.7021 -0.42267,1.50667 -1.02133,2.30534l-0.44269,0.584l-0.49866,0.64799l-0.52267,0.664" id="svg_5" stroke-width="2" stroke="#000" fill="none"/>
  <path t="25062,25130,25130,25130,25130,25130,25130,25130,25174,25174,25174,25174,25236,25237,25237,25238,25238,25272,25272,25272,25289,25289,25289,25289,25305,25305,25305,25305,25305,25305,25305,25321,25321,25321,25321,25321,25451,25451,25451,25487,25487,25487,25505,25505,25521,25521,25539,25555,25571,25571,25588,25588,25605,25605,25627,25651,25659,25671,25671,25688,25688,25705,25705,25706,25721,25721,25721,25738,25738,25738,25787,25787,25795,25805,25822,25822,25838,25838,25838,25838,25891,25891,25891,25907,25915,25928,25946,25946,25963,25963,25963,25963,25980,25980,25980,25980,26052,26075,26091,26155,26187,26195,26207,26207,26251,26305,26425,26483,26515,26523,26540,26540,26636,26636,26669,26669,26669,26681,26681" d="m488.51135,179.09091c0.01068,1.868 0.03381,2.57919 0.22134,3.86417c0.11682,0.8006 0.20792,1.22185 0.35333,2.09583c0.1452,0.8727 0.30054,2.09737 0.37717,2.82567c0.10455,0.99355 0.13235,1.64351 0.61749,2.81168c0.24951,0.6008 0.75906,1.40567 1.40918,2.25983c0.48358,0.63538 1.14133,1.45366 1.42151,1.9895c0.43112,0.82446 0.79877,1.84604 1.03198,2.43201c0.26999,0.67842 0.6106,1.47054 1.06799,2.388c0.53772,1.0786 0.86121,1.64922 1.18668,2.24533c0.33282,0.60956 0.67517,1.22165 1.34668,2.43733c0.63507,1.1497 0.92319,1.68567 1.44781,2.66116c0.23605,0.4389 0.53564,1.30257 1.35217,2.32283c0.46542,0.58154 1.36801,0.66667 2.33334,0.66667c0.875,0 1.51999,0 2.51599,0c0.79651,0 1.98401,0 2.77567,0c0.84167,0 1.74167,0 2.64185,0c0.78516,0 1.73581,0 2.50113,0c0.9942,0 1.91339,0 2.87787,0c0.8208,0 1.72083,0 2.62097,0c0.78522,0 1.74652,0 2.58655,0c0.99866,0 1.83417,0 2.41779,0c1.1955,0 2.09552,0 2.6955,0c1.20001,0 2.091,0 2.92804,0c0.93866,0 1.85065,0 2.672,0c0.89996,0 1.8053,0 2.52869,0c1.05682,0 1.7865,0 2.59216,0c0.82562,0 1.97913,0 2.90314,0c0.90533,0 1.81885,0 2.67584,0c0.92102,0 1.79352,0 2.42352,0c1.11963,0 1.79095,0 2.89795,0c0.78137,0 1.97803,0 2.76068,0c0.73468,0 1.38934,0 2.59381,0c0.83484,0 1.72418,0 2.62421,0c0.89996,0 1.79999,0 2.70013,0c0.78522,0 1.76404,0.31198 2.73053,-0.00133c0.81,-0.26259 1.46332,-0.97008 2.27917,-0.99867c0.91046,-0.03192 1.90857,0.15573 2.64282,-0.11433c0.80798,-0.29718 1.49481,-1.0434 1.914,-1.88567c0.37646,-0.75647 0.41602,-1.60001 0.69049,-2.591l0.34735,-0.69467" id="svg_6" stroke-width="2" stroke="#000" fill="none"/>
  <path t="27656,27767,27767,27767,27767,27767,27767,27767,27767,27767,27767,27767,27802,27802,27802,27802,27802,27814,27814,27814,27814,27827,27827,27827,27891,27891,27899,27899,27899,27907,27907,27923,27987,27988" d="m525.51135,182.09091c0.44287,3.743 0.70673,4.61539 1.02087,5.54167c0.16284,0.48021 0.51196,1.45621 0.8125,2.45833c0.29816,0.99416 0.4115,1.49614 0.66663,2.47917c0.25024,0.96429 0.34332,1.44923 0.82153,2.79933c0.30957,0.87401 0.50482,1.28995 0.88916,2.11082c0.3811,0.81387 0.99231,2.00871 1.38031,2.80167c0.18927,0.38687 0.61462,1.10832 1.07568,2.47568c0.26984,0.80034 0.24567,1.51027 0.61731,2.45065c0.28741,0.72729 0.65369,1.65039 0.69519,2.4035c0.04382,0.79555 0.02081,1.79251 0.02081,2.63251l0,1.09399l0,0.91934l0,0.8125" id="svg_7" stroke-width="2" stroke="#000" fill="none"/>
  <path t="29100,29214,29230,29230,29259,29283,29307,29347,29347,29363,29363,29379,29438,29438,29505,29505,29505,29520,29520,29520,29520,29544,29544,29556,29556,29556,29810,29825,29845,29845,29861,29883,29884,29884,29907,29923,29939,29939,29954,29954,29954,29954,29971,29971,29971,29971,29971,29971,29971,30003,30003,30003,30003,30003,30035,30043,30054,30054,30071,30107,30147,30155,30155,30155,30171,30171,30171,30171,30171,30188,30188,30188,30188,30188,30188,30269,30269,30269,30269,30269,30269,30304,30304,30321,30321,30339,30339,30339,30339,30339,30354,30354,30411,30411,30427,30435,30435,30435,30443,30443,30454,30475,30475,30515,30515,30515,30555,30563,30563,30571,30571,30588,30604,30621,30621,30621,30638,30638,30683,30683,30699,30699,30715,30715,30723,30723,30739,30739,30739,30755,30755,30771,30788,30804,30804,30821,30821,30821,30821,30838,30854,30854,31197,31197,31197,31197,31197,31258,31258,31258,31258,31259,31259,31259,31259,31259,31266,31266,31267,31267,31267,31267,31267,31267,31267,31274,31274,31274,31274,31288,31304,31304,31321,31321,31321,31321,31339,31339,31339,31354,31354,31354,31371,31371,31388,31404,31421,31421,31421,31421,31421,31438,31438,31438,31454,31454,31484" d="m360.51135,280.09091c0,1.75717 0,2.65268 0,3.51599c0,0.96317 0.11038,1.99948 -0.52081,2.48401c-0.6814,0.52307 -1.28391,0.88358 -1.77917,1.64816c-0.50485,0.77939 -1.28824,1.25775 -1.89999,1.91983c-0.5986,0.64789 -1.43216,1.19531 -1.76401,1.91068c-0.27979,0.60318 -0.03601,1.85733 -0.03601,2.62265c0,0.79733 0,1.56268 0,2.76001c0,0.76801 0,1.68118 0,2.61783c0,0.66751 -0.35928,1.62772 -1.2215,1.52069c-0.89905,-0.1116 -1.44339,-0.74213 -2.18915,-1.39984c-0.72388,-0.6384 -1.38925,-1.04996 -2.10535,-1.31467c-0.93686,-0.34634 -1.89465,-0.28534 -2.80548,-0.28534c-0.69934,0 -1.67853,0 -2.55319,0c-0.57733,0 -1.32266,0 -2.87482,0c-0.63983,0 -1.32367,0 -2.03851,0c-0.73282,0 -1.47067,0 -2.90933,0c-1.30267,0 -1.87332,0 -2.85065,0c-0.78534,0 -1.72272,-0.31479 -2.76935,0.01065c-0.74475,0.23157 -0.51752,1.33484 -0.71866,2.12802c-0.21872,0.8624 -0.95868,1.47192 -0.96402,2.28265c-0.00601,0.91199 0,1.86133 0,2.436c0,1.30933 0,2.03067 0,2.79999c0,0.82535 -0.00125,1.71469 0,2.67603c0.00134,1.03598 -0.00449,1.57697 0.04169,2.6875c0.02347,0.56482 0.09906,1.70129 0.29166,2.8125c0.09482,0.54706 0.3541,1.59457 0.6875,2.54166c0.15421,0.43808 0.24051,1.40793 1.2265,2.34366c0.53052,0.50348 1.63147,0.71643 2.27151,1.15735c0.84497,0.58206 1.45383,1.16827 2.11047,1.79999c0.33276,0.32013 1.00729,0.91971 1.70401,1.82401c0.58276,0.75635 0.86145,1.80896 1.46802,2.21466c0.75125,0.50247 1.68558,0.85278 2.21948,1.30618c0.58224,0.49445 1.55453,1.24594 2.26483,1.61749c0.85934,0.44949 1.77588,0.73306 2.51035,0.93634c1.03036,0.28516 1.74124,0.38864 2.54233,0.42084c1.03561,0.04163 1.98175,0.22891 2.66165,0.50449c0.83182,0.33713 1.69553,0.49774 2.60001,0.5c0.94168,0.00235 1.94324,0.01569 2.66135,-0.01068c0.79132,-0.02905 1.82428,-0.18793 2.492,-0.41464c1.0932,-0.37119 1.88684,-0.55499 2.73065,-0.85867c0.70508,-0.25375 1.64661,-0.57547 2.39999,-0.80002c0.97632,-0.29099 1.55045,-0.63733 2.31586,-1.2373c0.81332,-0.63754 1.31516,-1.19434 2.043,-1.92151c0.55609,-0.55557 1.29849,-1.17282 2.05264,-1.70901c0.62158,-0.44196 0.69687,-1.32904 1.03784,-2.21481c0.31094,-0.80777 0.84109,-1.55844 1.09866,-2.06403c0.55106,-1.08163 0.56799,-2.09064 0.56799,-2.76932c0,-0.97852 0.07343,-2.02246 -0.12799,-2.54935c-0.22583,-0.59079 -0.8833,-1.45465 -1.87201,-2.784c-0.64807,-0.87134 -1.40701,-1.84421 -2.241,-2.89951c-0.88049,-1.11417 -1.79581,-2.25031 -2.72699,-3.3765c-0.90961,-1.1001 -1.76181,-2.15918 -3.36533,-3.89066c-0.63867,-0.68964 -1.19977,-1.23428 -1.69052,-1.64249c-0.39594,-0.32932 -0.73822,-0.56274 -1.03348,-0.69751c-0.23444,-0.10699 -0.44354,-0.14999 -0.776,-0.16c-0.14511,-0.00436 -0.28134,0 -0.64584,0c-0.93149,0 -1.86215,0.11414 -2.54166,-0.0625c-1.03799,-0.26981 -1.5744,-1.00446 -2,-1.4375c-0.6506,-0.66199 -1.65277,-1.30453 -2.5,-1.4375c-0.57864,-0.09082 -1.77884,-0.0625 -2.65784,-0.0625c-0.80701,0 -1.85068,0 -2.61868,0c-0.90265,0 -1.78598,0 -2.86932,0c-0.67065,0 -1.44534,0 -2.26801,0c-0.81467,0 -1.90082,0 -2.75732,0c-0.90399,0 -1.9035,0 -2.65082,0l-1.01053,0" id="svg_8" stroke-width="2" stroke="#000" fill="none"/>
  <path t="32850,32919,32919,32919,32919,32953,32953,32971,32971,32988,32988,33004,33020,33021,33037,33038,33038,33561,33561,34083,34130,34154,34162,34163,34178,34188,34188,34203,34204,34220,34221,34221,34308,34308,34340,34340,34355,34421,34421,34421,34421,34455,34455,34472,34472,34530,34530,34547,34555,34555,34571,34571,34654,34654,34654,34670,34670,34688,34704,34704,34720,34721,34721,34721,34721,34819,34819,34819,34819,34835,34835,34835,34855,34883,34899,34915,34923,34939,34939,34953,34954,34971,34987,34988,35011,35071,35071,35086,35115,35250,35250,35304,35304,35320,35320,35338,35339,35339,35354" d="m376.51135,280.09091c0,1.5625 0.02148,2.5433 -0.01065,3.25067c-0.04465,0.98315 -0.42337,1.90256 -0.70532,2.63199c-0.35516,0.91882 -0.28336,1.71866 -0.28403,2.71283c-0.00052,0.74734 0,1.77917 0,2.72601c0,0.69934 0,1.6785 0,2.47849c0,0.80002 -0.00992,1.79556 0,2.71469c0.01044,0.96466 0.23019,1.99628 1.10001,2.36383c0.83655,0.35349 1.70001,0.12149 2.53601,0.12149c0.84933,0 1.76874,-0.02087 2.76401,0.00134c0.80054,0.01788 1.80966,0.19485 2.39999,0.43466c0.81479,0.33099 1.78546,0.89468 2.39999,1.12799c0.97977,0.37198 1.96008,0.11285 2.69016,0.79318c0.68149,0.63504 0.91461,1.50745 1.05267,2.29999c0.16232,0.93176 0.05716,1.94284 0.05716,2.74283c0,1 0,1.80002 0,2.79968c0,0.75867 0,1.69498 0,2.51465c0,0.88834 0,1.89017 0,2.52167c0,1.18518 0,1.97867 0,2.75418c0,1.03915 0.11496,1.82098 -0.05716,2.767c-0.13721,0.75409 -0.57953,1.54959 -0.77615,2.74283c-0.12323,0.74792 -0.1478,1.58704 -0.1875,2.02084c-0.08047,0.87915 -0.26941,2.16064 -0.54984,2.90582c-0.26193,0.69611 -0.76419,1.62274 -1.62918,2.43018c-0.54681,0.51041 -1.29004,0.96301 -2.16415,1.10715c-0.92422,0.1524 -1.83466,0.03601 -2.72,0.03601c-0.73483,0 -1.68399,0 -2.66534,0c-0.91733,0 -1.7865,0.04227 -2.31198,0.61066c-0.64026,0.69257 -1.2576,1.16684 -2.31335,1.35333c-0.78073,0.13791 -1.60452,0.04233 -2.62534,0.03601c-0.86139,-0.00534 -1.83749,-0.15866 -2.47916,-0.5c-0.82181,-0.43716 -1.39685,-1.03345 -2.09015,-1.70132c-0.54297,-0.52307 -1.40918,-1.12 -1.79468,-1.62402l-0.43466,-0.69064l-0.60135,-0.84802" id="svg_9" stroke-width="2" stroke="#000" fill="none"/>
  <path t="36139,36189,36222,36225,36239,36239,36267,36267,36367,36367,36419,36443,36443,36451,36498" d="m365.51135,303.09091c0.16669,-1.83334 1.05331,-1.7655 1.70453,-2.11435c0.90659,-0.48566 0.96255,-1.31204 1.49683,-2.28299c0.40985,-0.74484 1.1001,-1.45969 1.97333,-1.58133c0.93124,-0.12973 1.82532,-0.02133 2.62534,0.064l0.69998,0.41467l0.88934,0.47467" id="svg_10" stroke-width="2" stroke="#000" fill="none"/>
  <path t="38049,38129,38161,38171,38187,38203,38212,38222,38238,38238,38255,38352,38352,38367,38388,38477,38493,38509,38509,38509,38525,38525,38541,38541,38556,38572,38619,38635,38651,38667,38683,38683,38691,38709,38723,38723,38771,38837,38852,38852,38875,38883,38883" d="m262.51135,199.09091c-1.69998,0.9955 -2.64957,1.05293 -3.05264,1.7045c-0.4762,0.76976 -1.39603,1.08078 -1.922,1.73151c-0.59283,0.73346 -0.94034,1.55138 -1.02402,2.364c-0.09805,0.95213 -0.00134,1.85266 -0.00134,2.54733c0,1.01666 -0.00027,1.95267 0,2.85266c0.00027,0.89984 0.49356,1.68178 1.29733,1.76401c0.75571,0.07732 1.78101,0.036 2.66101,0.036c0.875,0 1.73718,0 2.64166,0c0.89999,0 1.80002,0 2.70001,0c0.89999,0 1.86612,0.21063 2.69998,-0.16667c0.65399,-0.29591 0.92706,-1.36964 1.35269,-2.13333c0.41339,-0.74171 0.64664,-1.5 0.64731,-2.39999c0.00067,-0.936 -0.00131,-1.784 -0.05716,-2.64734l-0.29999,-0.89549l-0.64285,-0.75717l-0.564,-0.60001" id="svg_11" stroke-width="2" stroke="#000" fill="none"/>
  <path t="39484,39584,39599,39599,39621,39621,39638,39638,39638,39656,39656,39691,39691,39737,39753,39753,39772,39772,39772,39788,39788,39788,39788,39805,39805,39805,39805,39805,39822,39843,39843,39867,39891,39891,39899,39923,39931,39948,39971,39971,39971" d="m293.51135,204.09091c-1,0 -1.89819,0.32271 -1.97916,1.02083c-0.11041,0.95186 -0.04446,1.79761 -0.30615,2.7485c-0.20898,0.75931 -0.50079,1.55421 -0.91333,2.54401c-0.2706,0.64922 -0.78,1.65587 -0.79684,2.38216c-0.02209,0.95343 0.87762,1.28531 1.6835,1.30318c0.99841,0.02214 1.85367,0.00133 2.47366,0.00133c1.35999,0 2.10001,0 2.88,0c0.82001,0 2.125,0 2.57898,0c0.914,0 1.79602,0.00006 2.59802,0c1.17398,-0.00009 2.09427,-0.15445 2.49731,-0.80133c0.46014,-0.73853 1.04831,-1.42326 1.57867,-1.89867c0.76215,-0.68315 0.70532,-1.73601 0.70532,-2.60001c0,-0.90134 0,-1.86667 -0.01065,-2.536l-0.07468,-0.76534" id="svg_12" stroke-width="2" stroke="#000" fill="none"/>
  <path t="40673,40768,40783,40783,40852,40885,40931,40947,40955,40971,40971,40988,41004,41021,41021,41037,41037,41104,41137,41141,41141,41155,41155,41172,41187,41187,41187,41187" d="m332.51135,204.09091c0,2.62534 -0.0022,3.48399 0,4.34734c0.00226,0.89101 0.42484,1.63466 1.35718,1.65266c0.84268,0.01627 1.74411,0.04779 2.64282,0c0.80341,-0.04272 1.5379,-0.74707 2.41068,-0.964c0.88461,-0.21988 1.61017,-0.036 2.58932,-0.036c0.95834,0 2.04071,0.353 2.64734,-0.11433c0.65381,-0.50371 0.3819,-1.50481 0.70535,-2.48117c0.25262,-0.76256 0.63266,-1.78983 0.98065,-2.73782l0.37201,-0.67201l0.29465,-0.49466l0.43201,-0.73199" id="svg_13" stroke-width="2" stroke="#000" fill="none"/>
  <path t="42235,42334,42334,42350,42350,42350,42350,42367,42367,42367,42367,42387,42387,42387,42435,42518,42534,42553,42553,42571,42571,42571,42571,42587,42587,42611,42611,42628,42637,42654,42654,42671,42671,42691,42691,42691,42691,42723,42771,42786,42786" d="m374.51135,204.09091c0,2.01433 0.00259,2.82133 0,4c-0.00134,0.60001 0.02591,1.51231 -0.17065,2.39999c-0.20328,0.91797 -0.68649,1.79681 -0.97867,2.40001c-0.28912,0.59689 -0.72238,1.79204 -0.80899,2.65833c-0.07678,0.76817 -0.11383,1.72992 -0.04169,2.74034c0.05731,0.80295 0.89334,0.80133 1.77335,0.80133c0.86932,0 1.87735,0 2.57599,0c0.68268,0 1.88,0.00008 2.82935,0c1.021,-0.00009 1.89816,0.22781 2.65201,-0.284c0.70065,-0.47569 1.35941,-1.01669 1.92648,-1.4205c0.88315,-0.62889 1.50604,-0.90947 2.24283,-1.62883c0.64032,-0.62518 1.16028,-1.39729 1.42935,-1.89867c0.5694,-1.06099 0.57065,-1.968 0.57065,-2.86784l0,-0.92099" id="svg_14" stroke-width="2" stroke="#000" fill="none"/>
  <path t="43389,43454,43454,43454,43488,43504,43504,43522,43522,43538,43579,43595,43595,43604,43621,43667,43667,43667,43683,43707,43707,43722,43731,43747,43770,43819" d="m401.51135,208.09091c1.70535,0.0045 2.65677,-0.0598 2.99103,0.7045c0.36029,0.82382 0.72601,1.58418 1.36081,1.9955c0.90152,0.58412 1.36935,1.19044 2.14816,1.77917c0.73761,0.5576 1.70135,0.52083 2.38535,0.52083c0.92932,0 1.948,0 2.77884,0c0.85666,0 1.58249,0.15999 2.66382,-0.01067c0.90393,-0.14265 1.55118,-0.72856 2.48666,-0.964c0.84698,-0.21317 1.40668,-0.90399 2.12817,-1.37799l0.05716,-0.86884" id="svg_15" stroke-width="2" stroke="#000" fill="none"/>
  <path t="44440,44532,44532,44540,44540,44558,44572,44572,44572,44587,44587,44604,44604,44659,44659,44683,44691,44691,44707,44707,44721,44721,44737,44737,44754,44771,44787,44787,44804,44804,44871,44907,44907,44915" d="m439.51135,204.09091c0,2.00533 0,2.74933 0,3.85699c0,0.834 0,1.68468 0,2.68584c0,0.71851 0,1.509 0,2.53568c0,0.90067 -0.05313,1.92401 0.01068,2.71083c0.08533,1.05212 0.4155,1.87378 1.28934,2.15349c0.86142,0.27573 1.67093,0.07681 2.70532,0.05267c0.74448,-0.01736 1.72806,-0.04028 2.453,-0.51633c0.84061,-0.552 1.17773,-1.25078 1.94168,-1.8685c0.74478,-0.60223 1.69608,-0.83786 2.23599,-1.22134c0.84039,-0.59691 1.50266,-0.95332 2.36133,-1.47333l0.00266,-0.916l0,-0.8l0,-0.91466" id="svg_16" stroke-width="2" stroke="#000" fill="none"/>
  <path t="46244,46303,46303,46318,46318,46354,46354,46354,46354,46354,46354,46354,46354,46370,46370,46370,46370,46370,46370,46370,46370,46370,46387,46387,46387,46387,46387,46387,46387,46387,46387,46404,46404,46404,46404,46404,46404,46404,46404,46404,46443,46443,46443,46443,46443,46443,46443,46443,46443,46451,46451,46451,46451,46451,46451,46451,46451,46451,46459,46459,46459,46459,46459,46459,46459,46459,46459,46470,46470,46470,46470,46470,46470,46470,46470,46470,46487,46487,46487,46487,46487,46487,46487,46487,46487,46504,46504,46504,46504,46504,46504,46504,46504,46505,46539,46539,46539,46539,46539,46539,46539,46539,46539,46547,46547,46547,46547,46547,46547,46547,46547,46547,46570,46570,46570,46570,46570,46570,46571,46571,46571,46604,46604,46604,46604,46604,46604,46605,46605,46605,46620,46620,46620,46620,46620,46620,46621,46621,46621,46637,46637,46637,46637,46637,46637,46637,46638,46638,46654,46654,46654,46654,46654,46654,46655,46655,46655,46670,46670,46670,46670,46670,46671,46671,46671,46671,46687,46687,46687,46687,46687,46688,46688,46688,46688,46705,46705,46705,46705,46705,46705,46705,46706,46706,46720,46720,46720,46720,46721,46721,46721,46721,46721,46737,46737,46737,46737,46738,46738,46738,46738,46738,46754,46754,46754,46755,46755,46755,46755,46755,46755,46770,46770,46771,46771,46771,46771,46771,46771,46771,46787,46787,46788,46788,46788,46788,46788,46788,46788,46804,46804,46804,46805,46805,46805,46805,46805,46805,46820,46821,46821,46821,46821,46821,46821,46821,46821,46837,46837,46837,46838,46838,46838,46838,46838,46838,46854,46854,46854,46855,46855,46855,46855,46855,46855,46923,46923,46923,46923,46924,46924,46924,46924,46924,46931,46931,46931,46931,46931,46931,46932,46932,46932,46954,46955,46955,46955,46955,46955,46955,46955,46956,46970,46971,46971,46971,46971,46971,46971,46971,46972,46987,46987,46987,46988,46988,46988,46988,46988,46988,47027,47027,47027,47027,47027,47027,47028,47028,47028,47036,47036,47036,47037,47037,47037,47037,47037,47037,47054,47054,47054,47055,47055,47055,47055,47055,47055,47070,47070,47071,47071,47071,47071,47071,47071,47072,47087,47087,47088,47088,47088,47088,47088,47088,47089,47104,47104,47105,47105,47105,47105,47105,47105,47106,47120,47120,47121,47121,47121,47121,47121,47122,47122,47137,47137,47138,47138,47138,47138,47139,47139,47139,47154,47155,47155,47155,47155,47155,47156,47156,47156,47171,47171,47171,47171,47171,47172,47172,47172,47172" d="m189.51137,361.09091c-1,1 -0.85661,1.82169 -0.07466,1.96399c0.75771,0.13788 1.90814,0.04724 2.93599,0.02802c0.64168,-0.01199 1.39661,-0.04782 2.2845,-0.117c1.0443,-0.08139 2.26471,-0.20419 3.6795,-0.38699c3.51259,-0.45383 5.63329,-0.8092 7.98,-1.20001c2.53743,-0.42258 5.22533,-0.89673 8.028,-1.41299c2.88539,-0.53152 5.81464,-1.08884 8.748,-1.68301c5.75728,-1.1662 8.50671,-1.78009 11.16667,-2.39731c2.58769,-0.60046 5.10663,-1.22229 7.5645,-1.87802c2.42084,-0.64584 4.80724,-1.32077 7.1595,-2.05798c4.71033,-1.47626 7.04999,-2.33252 9.38666,-3.18668c2.31232,-0.84528 4.56512,-1.70636 6.74551,-2.547c2.08759,-0.80484 4.05319,-1.58133 5.8905,-2.27701c3.16553,-1.19861 4.46982,-1.64713 5.59067,-1.99332c0.9407,-0.29056 1.72733,-0.49997 2.37299,-0.62552c0.51004,-0.09915 0.90991,-0.15787 1.203,-0.13049c0.3439,0.0321 0.43057,0.12335 0.42267,0.19733c-0.01117,0.10468 -0.13037,0.22672 -0.27151,0.39151c-0.1824,0.21295 -0.41855,0.46826 -0.67648,0.79651c-0.65558,0.83432 -1.0087,1.38403 -1.392,2.008c-0.42465,0.69128 -0.86111,1.46585 -1.30652,2.3205c-0.47934,0.91977 -0.96692,1.91653 -1.4415,2.99551c-1.03082,2.34363 -1.50394,3.63907 -1.996,4.98532c-0.50821,1.39038 -1.00302,2.82562 -1.5,4.29001c-0.50305,1.4823 -0.99695,2.97769 -1.5,4.47c-0.99399,2.9487 -1.50143,4.38354 -1.99731,5.80664c-0.49545,1.42191 -0.99222,2.85651 -1.461,4.32751c-0.48087,1.50897 -0.9548,3.07785 -1.371,4.73251c-0.89682,3.56555 -1.24313,5.53268 -1.59601,7.58398c-0.36328,2.11172 -0.68201,4.26648 -0.97049,6.4335c-0.2861,2.14905 -0.53729,4.25757 -0.74551,6.29849c-0.38376,3.76154 -0.50195,5.43948 -0.60266,6.97202c-0.09158,1.39352 -0.15372,2.65579 -0.19351,3.79199c-0.03558,1.01584 -0.05249,1.91797 -0.05847,2.71201c-0.0097,1.28796 -0.00754,1.79422 0,2.21732c0.0062,0.34723 0.01346,0.6279 0.05847,0.84152c0.03452,0.16388 0.0936,0.29785 0.19351,0.3465c0.22379,0.10898 0.41348,0.05118 0.61066,-0.008c0.24667,-0.07404 0.53601,-0.22781 0.86252,-0.4635c0.40305,-0.29099 0.85834,-0.6962 1.35748,-1.22852c1.29111,-1.37695 1.9946,-2.33997 2.828,-3.43066c0.95673,-1.25208 2.02658,-2.6954 3.25201,-4.32001c1.37958,-1.82898 2.92834,-3.87341 4.69199,-6.12c4.11127,-5.23706 6.54294,-8.18695 9.15735,-11.33334c2.73709,-3.29404 5.57953,-6.65073 8.48398,-10.00497c2.87973,-3.32568 5.70554,-6.54791 8.48401,-9.55502c4.96204,-5.37033 7.17197,-7.52875 9.15866,-9.35999c1.7308,-1.59537 3.29654,-2.90915 4.71152,-3.95999c1.2193,-0.90552 2.32114,-1.61938 3.3165,-2.16c1.63693,-0.8891 2.37527,-1.17453 3.03333,-1.44534c0.59708,-0.24573 1.15158,-0.44727 1.67099,-0.603c0.48367,-0.14502 0.94855,-0.25717 1.401,-0.33301c0.88708,-0.14868 1.34717,-0.17981 1.82669,-0.19867c0.5127,-0.02017 1.07312,-0.00656 1.689,0.05252c0.68857,0.06604 1.45972,0.18332 2.319,0.36749c2.06589,0.44278 3.27164,0.80692 4.60001,1.20132c1.43994,0.42752 2.97043,0.91531 4.58099,1.452c1.68555,0.56165 3.4277,1.16437 5.211,1.81201c3.67178,1.33347 5.5184,2.06128 7.37332,2.78265c1.8504,0.7196 3.68304,1.44199 5.49899,2.13452c1.78146,0.67938 3.52078,1.33798 5.229,1.90948c3.21393,1.07526 4.73929,1.46402 6.18668,1.79599c1.36447,0.31296 2.65915,0.55023 3.87601,0.73203c1.13278,0.16922 2.1864,0.28793 3.15601,0.37198c1.6759,0.14526 2.38333,0.18051 3.008,0.20267c0.55011,0.01953 1.03668,0.02167 1.461,-0.03299c0.37888,-0.0488 0.72781,-0.13284 1.01099,-0.30301c0.57239,-0.34393 0.78732,-0.67133 1.01199,-0.99866c0.24078,-0.35083 0.45612,-0.74997 0.66452,-1.17749c0.21729,-0.4458 0.41956,-0.91699 0.61951,-1.4025c0.40796,-0.99063 0.59927,-1.49478 0.80664,-1.996c0.20996,-0.50748 0.43121,-1.02155 0.67801,-1.539c0.25439,-0.53339 0.53271,-1.07999 0.858,-1.629c0.69855,-1.17899 1.13477,-1.7796 1.60535,-2.39468c0.48917,-0.6394 1.0271,-1.27612 1.62,-1.89301c0.60709,-0.63165 1.25772,-1.24991 1.97998,-1.80298c1.47678,-1.13086 2.32867,-1.57056 3.18402,-1.99335c0.85309,-0.42169 1.72336,-0.78165 2.586,-1.09949c0.83365,-0.30716 1.64084,-0.56714 2.40601,-0.78452c1.33875,-0.38031 1.90256,-0.51779 2.40265,-0.58667c0.44199,-0.06088 0.86267,-0.05618 1.233,0.0795c0.3891,0.14255 0.77402,0.4353 1.14301,0.84451c0.96927,1.07498 1.43567,1.89511 2.00134,2.78534c0.6189,0.974 1.24689,2.02997 1.8765,3.14099c0.64124,1.13159 1.26425,2.27225 1.83148,3.41101c1.05374,2.11545 1.45233,3.08585 1.79068,3.97464c0.30643,0.8049 0.54684,1.54492 0.73199,2.21851c0.16574,0.60291 0.28619,1.14749 0.37201,1.63351c0.14154,0.8017 0.17355,1.12964 0.21066,1.40933c0.03152,0.23764 0.05591,0.43774 0.08398,0.603c0.0231,0.13605 0.04242,0.24969 0.08401,0.33301c0.06708,0.13434 0.13477,0.17859 0.20667,0.20132c0.08191,0.02591 0.18979,0.01968 0.31351,-0.01349c0.15332,-0.04111 0.33307,-0.12152 0.53848,-0.23853c0.53534,-0.3049 0.84476,-0.54565 1.22,-0.80264c0.43655,-0.29898 0.9469,-0.63907 1.55402,-1.00052c0.69629,-0.41455 1.50647,-0.8631 2.45398,-1.31549c2.27411,-1.08578 3.66742,-1.61221 5.17734,-2.18933c1.60428,-0.61319 3.28772,-1.21921 5.0145,-1.82849c1.73856,-0.61343 3.46628,-1.2059 5.14951,-1.78351c3.12122,-1.07108 4.5079,-1.54926 5.76935,-1.992c1.1445,-0.4017 2.17612,-0.76901 3.10199,-1.09949c0.82611,-0.29489 1.55704,-0.55908 2.202,-0.78452c1.04645,-0.36578 1.46225,-0.50433 1.82001,-0.60132c0.30173,-0.08179 0.56351,-0.13593 0.7905,-0.13501c0.20206,0.00082 0.39423,0.04468 0.56549,0.13501c0.39157,0.20654 0.58386,0.401 0.80536,0.59332c0.23709,0.20584 0.4758,0.43082 0.71249,0.66751c0.23666,0.23669 0.46362,0.47369 0.66748,0.71249c0.36301,0.42526 0.49393,0.62134 0.60135,0.79999c0.09824,0.16336 0.17691,0.32623 0.25198,0.48752c0.07697,0.16541 0.15335,0.34402 0.25201,0.5325c0.23691,0.45264 0.4054,0.7175 0.61865,1.00131c0.24048,0.32001 0.54248,0.65616 0.92102,0.987c0.42322,0.3699 0.93396,0.74387 1.55099,1.077c1.45468,0.78537 2.38812,1.07773 3.39734,1.392c1.08731,0.33859 2.26324,0.63672 3.50998,0.90601c1.29999,0.28076 2.65338,0.52942 4.05002,0.72601c2.86066,0.40265 4.32031,0.50742 5.784,0.59732c1.4678,0.09015 2.94125,0.13501 4.41599,0.13501c1.47476,0 2.9487,-0.0372 4.41602,-0.13501c2.92072,-0.19467 4.36343,-0.38632 5.784,-0.60266c1.3963,-0.21265 2.75317,-0.47214 4.04999,-0.80399c1.25012,-0.31992 2.44165,-0.6741 3.51001,-1.164c1.95819,-0.89795 2.73337,-1.54327 3.39734,-2.18933c0.63065,-0.61365 1.14081,-1.29044 1.55099,-1.98001c0.39188,-0.65878 0.69278,-1.32849 0.92099,-1.98001c0.41095,-1.17331 0.51425,-1.71091 0.61469,-2.19467c0.09189,-0.44254 0.1546,-0.85526 0.19348,-1.24197c0.03674,-0.36542 0.05276,-0.71793 0.0585,-1.06201c0.01147,-0.6879 0.004,-1.04251 0.004,-1.40399c0,-0.36551 0,-0.73199 0,-1.0965l0,-0.3595l0,-0.3515l0,-0.34052" id="svg_17" stroke-width="2" stroke="#000" fill="none"/>
 </g>
 <g display="none">
  <title>muse_image</title>
  <image xlink:href="http://farm3.static.flickr.com/2316/2332596185_4fccef9984.jpg" id="muse" height="426" width="640" y="27" x="0"/>
 </g>
 <g display="none">
  <title>bbox</title>
  <rect stroke="#f00" fill="none" stroke-width="3" height="181.65766" width="636.16" y="128.06306" x="2.56" id="bbox"/>
 </g>
</svg>
