<svg width="640" height="480" xmlns="http://www.w3.org/2000/svg" xmlns:svg="http://www.w3.org/2000/svg" xmlns:xlink="http://www.w3.org/1999/xlink">
 <!-- Sketchy ANNOTATION
  ImageNet ID: n02691156_6120
  URL: http://farm2.static.flickr.com/1072/860435251_f230e4646c.jpg
  Image Width: 500
  Image Height: 333
  BBox X: 1
  BBox Y: 62
  BBox Width: 499
  BBox Height: 162
  Exposure: 2000ms
  Synset Label: airplane
  Synset ID: n02691156
  Worker Tag: fighter plane on the ground
  Sanity Check: 
   Saved
  Comment: 
   {}
  Worker ID: A1P7U2ULSAE7YL
  Assignment ID: 326O153BMIYY2VACCFQ9PUY9ZUQEDH
  HIT ID: 3EKTG13IZU3DPBSNGS7EWVG2CCWML6
  Work Time: 94s
  Worker Score: 0.7143
 END ANNOTATION -->
 <g display="inline">
  <title>Layer 1</title>
  <path t="0,351,367,391,415,423,431,447,463,463,472,472,479,487,487,495,503,511,511,520,520,527,537,543,551,551,559,568,575,583,583,591,599,599,607,615,615,623,623,631,639,639,647,647,655,663,663,663,671,671,671,679,679,687,687,687,695,695,703,704,711,711,720,720,727,727,736,736,736,743,743,751,751,751,759,767,767,775,783,783,791,792,792,799,799,807,815,815,823,823,831,839,840,840,847,847,856,856,863,863,873,873,879,879,890,890,890,895,895,896,907,907,907,911,911,911,919,919,920,927,927,927,936,936,943,943,943,951,951,951,959,959,959,967,967,975,976,983,983,991,991,991,999,999,1007,1007,1015,1015,1015,1024,1024,1031,1031,1039,1039,1039,1047,1056,1056,1063,1073,1073,1074,1079,1089,1090,1090,1095,1106,1106,1111,1119,1127,1136,1143,1143,1153,1159,1167,1175,1192,1199,1215,1223,1247,1271,1271,1280,1288,1479,1479,1495,1505,1505,1527,1536,1544,1552,1569,1576,1576,1583,1598,1599,1608,1615,1615,1626,1631,1647,1647,1663,1663,1663,1673,1679,1703,1712,1712,1735,1744,1752,1769,1776,1776,1792,1799,1807,1839,1855,1855,1863,1872,1872,1879,1895,1907,1911,1928,1935,1936,1944,1944,1952,1960,1960,1968,1968,1977,1977,1977,1984,1993,1993,1999,1999,2002,2002,2009,2015,2024,2024,2031,2040,2047,2047,2057,2057,2063,2071,2071,2091,2095,2095,2105,2135,2135,2144,2144,2152,2152,2160,2168,2175,2176,2185,2185,2199,2207,2215,2224,2231,2231,2240,2255,2263,2273,2279,2290,2295,2311,2311,2324,2327,2335,2335,2352,2352,2360,2360,2368,2385,2392,2392,2407,2415,2424,2431,2439,2447,2457,2479,2479,2490,2527,2536,2543,2575,2615,2631,2639,2656,2695,2727,2743,2743,2815,2831,2855,2871,2895,2904,2904,2911,2921,2928,2943,2953,2960,2976,2992,3023,3035,3063,3079,3095,3107,3107,3111,3135,3143,3159,3175,3199,3199,3215,3231,3231,3239,3255,3274,3274,3290,3295,3295,3311,3319,3327,3343,3343,3356,3356,3359,3373,3373,3376,3383,3400,3408,3409,3417,3417,3423,3432,3439,3439,3447,3456,3463,3479,3495,3495,3511,3511,3522,3522,3527,3536,3543,3555,3559,3559,3572,3576,3583,3592,3592,3600,3609,3617,3624,3624,3631,3632,3640,3663,3672,3679,3689,3689,3695,3706,3711,3727,3727,3743,3752,3759,3770,3776,3791,3792,3800,3808,3808,3823,3831,3840,3847,3855,3863,3871,3879,3895,3906,3911,3927,3927,3936,3944,3944,3951,3983,3999,4015,4023,4023,4040,4055,4064,4072,4103,4103,4127,4143,4155,4159,4169,4169,4185,4199,4208,4224,4239,4240,4263,4271,4288,4303,4303,4321,4335,4343,4359,4372,4399,4423" d="m202.51137,230.09091c0.16667,-1.83333 0.97467,-2 1.80133,-2c0.89867,0 1.79869,0.00526 2.69867,0c0.91071,-0.00534 1.81853,-0.22826 2.5,-0.5c0.97459,-0.38863 1.75797,-0.45888 2.5,-1.02083c0.77678,-0.58827 1.31721,-1.15273 2.10001,-1.5045c0.82022,-0.36859 1.43272,-1.16632 2.036,-1.53867c0.78088,-0.48196 1.71133,-0.43375 2.728,-0.436c0.936,-0.00208 1.88446,0.15353 2.636,-0.16667c0.78119,-0.33284 1.43857,-0.99669 2.10983,-1.48067c0.66148,-0.47691 1.7235,-0.35266 2.47949,-0.35266c0.9315,0 1.90199,0.07011 2.58534,-0.036c0.96065,-0.14917 1.8302,-0.78119 2.5825,-1.01668c0.8972,-0.28085 1.52927,-0.60223 2.41083,-1.03133c0.87006,-0.42349 1.42609,-0.67255 2.42751,-0.86333c0.91284,-0.1739 1.7256,-0.60539 2.57117,-0.886c0.84192,-0.2794 1.52008,-0.15475 2.51733,-0.168c0.81616,-0.01083 1.65683,0.01056 2.85883,-0.35583c0.66425,-0.20248 1.6483,-0.76181 2.25717,-1.03217c0.78931,-0.35048 1.806,-0.51958 2.59999,-0.66335c1.00998,-0.18288 1.78432,-0.57675 2.60001,-0.78065c0.77795,-0.19447 1.82298,-0.35489 2.5,-0.66667c0.97148,-0.44739 1.72981,-0.44579 2.7,-0.7215c0.82162,-0.23351 1.38675,-0.60773 2.40451,-1.07401c0.62384,-0.28581 1.55814,-0.57166 2.33917,-0.64734c0.98611,-0.09555 1.97397,-0.058 2.76614,-0.40982c0.6456,-0.28671 1.6647,-0.61543 2.61166,-0.64751c0.69925,-0.02368 1.68326,-0.15224 2.47852,-0.42517c0.80505,-0.27631 1.79434,-0.53825 2.54282,-0.57016c1.02036,-0.04349 1.80249,-0.39363 2.54251,-0.7205c0.89182,-0.39392 1.68063,-0.26942 2.61465,-0.80482c0.71231,-0.40831 1.31079,-0.93585 2.10135,-1.19383c0.97482,-0.3181 1.81659,-0.27101 2.79733,-0.56934c0.78323,-0.23825 1.72925,-0.58466 2.48532,-0.8c0.78867,-0.22464 1.5148,-0.6322 2.51602,-1.11467c0.59665,-0.28751 1.5936,-0.68359 2.41064,-0.76534c0.871,-0.08714 1.87668,0.00574 2.68933,-0.07767c0.82184,-0.08435 1.82703,-0.5114 2.5,-0.97916c0.46048,-0.32007 1.40436,-0.99724 2.23602,-1.3325c0.56433,-0.22749 1.76077,-0.51059 2.65948,-0.58951c0.86642,-0.07608 1.93823,-0.03752 2.64734,-0.06166c0.85379,-0.02905 1.85464,-0.28665 2.45715,-0.4955c0.99597,-0.34521 1.81018,-0.48018 2.68533,-0.49867c0.99979,-0.02113 1.83725,-0.0005 2.41919,-0.0585c1.20044,-0.11964 2.07318,-0.37178 2.88116,-0.59016c0.8703,-0.23523 1.73062,-0.36342 2.4935,-0.85266c0.71359,-0.45763 1.58783,-0.5 2.31683,-0.5c1.03732,0 1.97623,0.05341 2.80267,-0.08533c0.81293,-0.13646 1.55807,-0.51083 2.65317,-0.8665c0.71307,-0.2316 1.51425,-0.62187 2.26898,-1.04817c0.52878,-0.29866 1.55594,-0.7634 2.4375,-0.97917c1.01877,-0.24936 1.67734,-0.68379 2.58435,-0.89949c0.69507,-0.1653 1.73193,-0.08461 2.64297,-0.474c0.86951,-0.37164 1.52118,-0.56126 2.48636,-0.68333c0.883,-0.11166 1.62408,-0.28362 2.47464,-0.76534c0.84811,-0.48033 1.51385,-1.11565 2.37418,-1.17784c0.71091,-0.05139 1.85541,0.09926 2.57916,-0.24216c0.77524,-0.36571 1.51779,-0.77025 2.30002,-1.20401c0.82013,-0.45477 1.69998,-0.57466 2.59998,-0.57466c0.80002,0 1.70007,0.01041 2.60001,0c0.90018,-0.01042 1.65887,-0.42131 2.49985,-0.87866c0.7475,-0.40652 1.25586,-1.09274 2.10016,-1.12134c0.89948,-0.03047 1.79999,0 2.60001,0c0.89999,0 1.59457,-0.30351 2.36667,-0.83333c0.60913,-0.41798 1.65866,-0.16667 2.66666,-0.16667c0.72,0 1.6875,0 2.56668,0c0.89999,0 1.80377,-0.08212 2.69998,0.00017c0.91144,0.08368 1.4379,0.7469 2.31067,0.96384c0.88431,0.2198 1.733,-0.06531 2.75601,0.036c0.84567,0.08374 1.53296,0.64816 2.33331,1c0.80414,0.3535 1.65833,0.88788 2.33603,0.964c1.15726,0.12999 1.95331,0.036 2.67865,0.036c0.96451,0 1.93744,-0.15099 2.77066,0.284c0.79904,0.41716 1.41476,0.70334 2.31467,0.716c0.90015,0.01266 1.6033,0.54318 2.5,0.87849c0.85062,0.31808 1.70001,0.12151 2.60001,0.12151c0.89999,0 1.77917,0 2.74667,0c0.87466,0 1.73206,-0.08598 2.668,0.00133c0.89673,0.08366 1.42297,0.75984 2.38531,0.97784c0.87802,0.1989 1.80002,0.02083 2.70001,0.02083c0.89999,0 1.79999,0 2.55716,0c0.89551,0 1.75885,0 2.74283,0c0.8215,0 1.71078,-0.0127 2.70001,0.00017c0.8002,0.01041 1.82712,0.09813 2.57867,0.43584c0.68066,0.30585 1.20825,1.30171 2.09332,1.528c0.70871,0.1812 1.73465,-0.02245 2.52802,0.09315c1.01208,0.14746 1.65546,0.7247 2.61066,0.94284c0.73215,0.16721 1.642,0 2.50534,0c0.96317,0 1.91473,-0.06247 2.80533,0.22133c0.69901,0.22275 1.65063,0.71645 2.47733,0.77734c0.83508,0.06152 1.854,0.00133 2.54868,0.00133c1.02734,0 1.99869,-0.16725 2.79132,0.036c0.85254,0.21861 1.19467,0.964 2.04666,0.964c0.93201,0 1.78418,-0.01393 2.58136,0.00133c0.94711,0.01813 1.67615,0.46649 2.45499,0.87717c0.8428,0.4444 1.77832,0.12151 2.61166,0.12151c0.88,0 1.79633,-0.16313 2.66666,0.02083c0.84738,0.17911 1.65054,0.7319 2.5,1.14584c0.65225,0.31784 1.39948,0.81532 2.30002,0.83333c0.89981,0.01799 1.79999,0 2.69998,0c0.94736,0 1.77438,0.02135 2.65268,0.35266c0.70602,0.26633 1.5889,0.61874 2.54733,0.64734c0.89978,0.02686 1.68533,0 2.63602,0c0.76532,0 1.75949,0 2.50681,0c1.02118,0 2.00723,-0.13167 2.75717,0.22133c0.77554,0.36505 1.60001,0.77641 2.5,0.77867c0.89999,0.00224 1.79703,0.00122 2.39999,0.5c0.65585,0.54253 1.05182,1.35638 2,1.5c0.79099,0.11981 1.3273,0.28731 2.00018,0.87849c0.55975,0.49179 0.91232,1.07593 1.6105,1.6855c0.6666,0.58199 1.711,0.24112 2.58798,0.43733c0.80707,0.18057 1.35483,0.77753 2.09683,1.35583c0.74481,0.58049 0.70383,1.44284 0.7045,2.47617c0.00049,0.77734 0.15903,1.68275 -0.01065,2.56667c-0.18182,0.94711 -1.05704,1.54297 -1.46851,2.10001c-0.60486,0.81886 -0.9469,1.57758 -1.54617,2.07466c-0.61496,0.5101 -1.62424,0.47827 -2.02731,1.12984c-0.4762,0.76976 -1.38342,1.03625 -1.94867,1.5795c-0.53833,0.5174 -1.284,0.716 -2.19867,0.716c-0.89999,0 -1.80002,0 -2.60001,0c-0.89999,0 -1.79999,0 -2.70001,0c-0.89999,0 -1.79999,0 -2.70132,0c-0.68399,0 -1.66513,-0.15826 -2.63199,0.16667c-0.81433,0.27367 -1.56613,0.81532 -2.46667,0.83333c-0.90115,0.01802 -1.58533,0 -2.52533,0c-1.008,0 -1.87024,-0.01047 -2.77466,0c-0.90021,0.01042 -1.64017,0.4928 -2.56668,0.83333c-0.63028,0.23166 -1.69836,-0.01479 -2.52884,0.22383c-0.7688,0.2209 -1.31525,1.16164 -2.00449,1.58568c-0.82138,0.50534 -1.83478,0.30424 -2.60001,0.70982c-0.8461,0.44843 -1.46951,0.66534 -2.35266,1c-0.70563,0.26738 -1.72153,0.50816 -2.64734,0.65184c-0.81906,0.12711 -1.47168,0.82874 -2.39999,0.991c-0.88745,0.15512 -1.64627,0.52629 -2.39999,0.88316c-0.8541,0.40439 -1.50235,0.78381 -2.384,1.32001c-0.66757,0.40601 -1.66461,0.61421 -2.31467,0.88533c-0.86722,0.36169 -1.60083,0.89734 -2.50134,0.916c-0.90115,0.01868 -1.87592,0.14462 -2.51468,0.42534c-0.95746,0.42076 -1.56274,1.10616 -2.38531,1.49066c-0.75949,0.35503 -1.45261,0.88419 -2.30002,1.06317c-0.8808,0.18605 -1.82431,-0.05765 -2.66666,0.1875c-0.86179,0.25081 -1.65555,0.74513 -2.52884,0.82883c-0.86456,0.08286 -1.74048,0.00209 -2.7045,0.0045c-0.89999,0.00226 -1.63663,0.32613 -2.39999,0.716c-0.75287,0.38454 -1.71558,0.12762 -2.60001,0.29466c-0.95016,0.17946 -1.46332,0.81142 -2.41467,0.95334c-1.00549,0.15001 -1.89752,-0.3576 -2.74933,0.07199c-0.69879,0.35243 -1.15561,1.20546 -1.60532,1.76534c-0.56866,0.70799 -1.65253,1.1051 -2.42001,1.188c-0.90546,0.09781 -1.81067,0.01067 -2.71066,0.01067c-0.89865,0 -1.66208,0.17616 -2.40451,0.64734c-0.72775,0.46185 -1.6955,0.35266 -2.59549,0.35266c-0.89999,0 -1.85345,-0.18137 -2.70001,0.16667c-0.67105,0.27588 -1.41071,0.79547 -2.32117,0.8335c-0.81754,0.03415 -1.479,0.72794 -2.11481,0.99983c-0.7944,0.33974 -1.82129,-0.1637 -2.664,0.22133c-0.66931,0.3058 -1.51794,0.76996 -2.30002,1.20401c-0.81897,0.45453 -1.65796,0.53625 -2.60001,0.57466c-0.70172,0.02861 -1.3732,0.73938 -2.28531,1c-0.87817,0.25092 -1.47595,0.36165 -1.93619,1.09984c-0.44711,0.71715 -1.47858,0.8875 -2.37848,0.90016c-0.90018,0.01266 -1.60947,0.52718 -2.5,0.87849c-0.66071,0.26065 -1.50433,0.25496 -1.95718,0.76884c-0.51956,0.58957 -1.59549,0.35266 -2.45883,0.35266c-0.96317,0 -1.884,-0.00067 -2.784,0c-0.89865,0.00067 -1.64734,0.35266 -2.13599,0.964l-0.96402,0.036" id="svg_1" stroke-width="2" stroke="#000" fill="none"/>
  <path t="6599,6774,6786,6802,6807,6807,6819,6823,6823,6835,6835,6839,6849,6855,6865,6871,6872,6879,6880,6887,6896,6912,6912,6919,6919,6927,6935,6943,6943,6951,6970,7400,7400,7416,7424,7436,7436,7440,7440,7449,7449,7456,7456,7466,7466,7466,7466,7472,7472,7472,7472,7480,7480,7480,7488,7488,7488,7488,7496,7496,7496,7496,7504,7504,7512,7512,7520,7520,7520,7532,7532,7532,7536,7536,7544,7552,7553,7560,7560,7568,7576,7592,7600,7600,7616,7841,8640,8672,8672,8680,8698,8698,8704,8720,8729,8736,8745,8752,8776,8784,8784,8801,8832,8848,8856,8865,8867,8896,8896,8912,8912,8920,8920,8928,8936,8944,8952,8961,8968,8976,8984,8984,8992,9008,9024,9024,9032,9048,9056,9064,9072,9072,9084,9088,9088,9104,9114,9114,9120,9144,9144,9151,9168,9183,9207,9224,9448,9456,9479,9479,9496,9535,9736,9752,9768,9783,9793,9815,9815,9832,9848,9856,9879,9895,9896,9900,9901,9927,9944,9959,10183,10192,10199,10224,10247,10264,10271,10280" d="m353.51135,184.09091c0,-1.7 0,-2.60001 0,-3.52083c0,-0.96184 0,-1.76933 0,-2.76584c0,-0.88 0,-1.71333 0,-2.69183c0,-0.82016 0.00531,-1.62152 0,-2.5215c-0.00534,-0.90004 -0.49768,-1.72002 -0.83331,-2.5c-0.30606,-0.71129 -0.03754,-1.67584 -0.25201,-2.51601c-0.2594,-1.01605 -0.87195,-1.68251 -0.91467,-2.65067c-0.02951,-0.66867 0,-1.83333 0,-2.612c0,-0.888 0.03183,-1.76358 -0.00131,-2.70399c-0.0285,-0.80893 -0.76614,-1.44139 -0.98801,-2.164c-0.29401,-0.95749 0.06238,-2.03979 -0.71518,-2.34433c-0.76013,-0.29771 -1.78082,-0.009 -2.50616,-0.009c-0.98917,0 -1.95331,0 -2.90533,0c-0.76797,0 -1.74133,0 -2.40283,0c-1.12415,0 -1.7955,0 -2.52283,0c-0.76733,0 -1.95834,0 -2.75568,0c-1.16098,0 -1.88831,0 -2.86932,0c-0.828,0 -1.58398,0 -2.66666,0c-0.9765,0 -1.6875,0 -2.41852,0c-1.08148,0 -2.08649,0 -2.70648,0c-0.85501,0 -2.0845,0 -2.73102,0c-1.01083,0 -1.83148,0 -2.97733,0c-0.78601,0 -1.608,0 -2.66666,0c-0.7095,0 -1.56216,0 -2.56534,0c-0.76532,0 -1.716,0 -2.70151,0c-0.78516,0 -1.72516,0 -2.41583,0c-1.07333,0 -2.01874,-0.0529 -2.784,0.35266c-0.84589,0.4483 -1.63065,0.25369 -2.41467,0.73267c-0.80316,0.49066 -1.28534,0.82935 -1.28534,-0.08533c0,-0.75717 -0.43607,-1.8298 0.16669,-2.66667c0.41824,-0.58069 1.53333,-0.3905 2.33331,-0.83333c0.80002,-0.44284 1.80066,-0.33716 2.44736,-0.85266c0.60684,-0.48372 1.46182,-0.52751 2.25266,-0.93134c0.65848,-0.33623 1.24271,-1.06378 2.02133,-1.5945c0.677,-0.46144 1.32632,-0.88257 2.27866,-1.10068c0.86713,-0.19861 1.83334,-0.02083 2.54169,-0.02083c0.95831,0 1.79019,0.16699 2.79166,-0.16667c0.81503,-0.27155 1.63248,-0.67409 2.36533,-1.11732c0.77289,-0.46745 1.50592,-0.70564 2.40134,-0.716c0.90018,-0.01042 1.60947,-0.52718 2.5,-0.87849c0.66071,-0.26065 1.60001,-0.12151 2.53601,-0.12151c0.84799,0 1.71133,0 2.71732,0c0.93201,0 1.84521,0.19786 2.56403,-0.284c0.65906,-0.4418 1.43448,-0.71375 2.3255,-0.716c0.9585,-0.00243 1.64249,0 2.58249,0c1.008,0 1.87018,0 2.73868,0c0.87881,0 1.78781,0 2.67883,0c0.95715,0 1.86154,0.08868 2.75714,0c0.8457,-0.08374 1.21527,-0.9391 2.10001,-1c0.89786,-0.0618 1.70001,0 2.61469,0c0.896,0 1.91129,-0.00867 2.31067,0.61067c0.47955,0.74368 0.8497,1.59396 0.97482,2.48933c0.12665,0.90646 0.76102,1.43765 0.979,2.39999c0.19888,0.87799 0.02081,1.7955 0.02081,2.7215c0,0.87866 0,1.66383 0,2.59317c0,0.94234 0,1.79601 0,2.68533c0,0.89999 0.25467,2.06891 -0.43597,2.464c-0.75061,0.42941 -1.76401,0.036 -2.66385,0.036l-0.90018,0l-0.80133,0l-0.91333,0.08533" id="svg_2" stroke-width="2" stroke="#000" fill="none"/>
  <path t="11480,11535,11544,11551,11552,11561,11561,11568,11568,11580,11580,11584,11584,11584,11596,11596,11596,11596,11600,11600,11600,11608,11608,11616,11616,11616,11616,11625,11625,11625,11632,11632,11632,11641,11648,11648,11648,11656,11664,11664,11671,11672,11672,11680,11681,11688,11688,11688,11698,11698,11704,11712,11712,11719,11720,11728,11728,11728,11743,11752,11775,11955,11983,11991,11999,12014,12014,12016,12031,12031,12031,12033,12042,12042,12042,12049,12049,12049,12056,12056,12056,12056,12064,12064,12064,12064,12071,12072,12072,12072,12072,12080,12080,12080,12080,12088,12088,12088,12088,12097,12097,12097,12097,12104,12104,12104,12104,12113,12113,12113,12113,12120,12120,12120,12120,12129,12129,12136,12136,12148,12148,12151,12152,12160,12160,12168" d="m202.51137,226.09091c-0.05717,-1.7 -0.49779,-2.52316 -1.20134,-3.2c-0.53879,-0.51833 -1.38268,-0.8772 -2.08882,-1.55717c-0.65303,-0.62883 -0.61836,-1.51085 -1.27785,-2.36017c-0.4883,-0.62885 -1.15073,-1.20186 -1.38133,-2.15466c-0.13139,-0.54292 -0.35486,-1.74031 -0.62,-2.32666c-0.4077,-0.90163 -0.79907,-1.43431 -1.40916,-2.47984c-0.39636,-0.67928 -0.82689,-1.51683 -1.2215,-2.32283c-0.40698,-0.8313 -0.79733,-1.76637 -1.10451,-2.55133c-0.21446,-0.54807 -0.53673,-1.39102 -1.17816,-2.36333c-0.46544,-0.70552 -1.05966,-1.33038 -1.34666,-2.36667c-0.21536,-0.77762 -0.09273,-1.55153 -0.17517,-2.50751c-0.08505,-0.98622 -0.39278,-1.65707 -0.79683,-2.32584c-0.53816,-0.89073 -1.04231,-1.64871 -1.19867,-2.50482c-0.17847,-0.9771 -0.4238,-1.78479 -0.7045,-2.37917c-0.47633,-1.00862 -0.86597,-1.82167 -1.46217,-2.43333c-0.58936,-0.60464 -1.45378,-0.97276 -1.76132,-1.992c-0.20052,-0.66455 -0.07678,-1.77858 -0.42467,-2.48367c-0.334,-0.67696 -0.58157,-1.70226 -0.67267,-2.47633c-0.1236,-1.05023 -0.15244,-1.86292 -0.776,-2.64265c-0.54564,-0.6823 -1.19333,-1.18263 -1.19867,-2.07201c-0.00533,-0.88931 -0.35716,-1.5 -1.2,-1.5c-0.90001,0 -1.8,0 -2.60001,0c-0.87199,0 -1.74266,0 -2.7,0c-0.73199,0 -1.83867,0 -2.66667,0c-0.875,0 -1.51999,0 -2.51999,0c-0.85501,0 -1.8,0 -2.83467,0c-0.73134,0 -1.47867,0 -2.226,0c-1.4315,0 -2.10451,0 -2.7735,0c-1.04851,0 -2.22183,0 -3.0845,0c-0.44534,0 -1.34401,0 -2.22667,0c-1.22517,0 -1.95816,0 -2.98267,0c-0.668,0 -1.70683,0 -2.4425,0c-0.76366,0 -1.54733,0 -2.74283,0c-1.1955,0 -1.97917,0 -2.74283,0c-1.0905,0 -1.77318,0 -2.75717,0c-0.65266,0 -1.66667,0 -2.75267,0c-0.74733,0 -1.49466,0 -2.58066,0c-1.005,0 -1.625,0 -2.48001,0c-1.00133,0 -1.87599,0 -2.88666,0c-0.8,0 -1.8,0 -2.58934,0c-1.044,0 -1.836,0 -2.69466,0l-0.86333,0l-1.006,0" id="svg_3" stroke-width="2" stroke="#000" fill="none"/>
  <path t="13039,13119,13127,13135,13144,13144,13151,13151,13151,13160,13160,13167,13167,13167,13175,13175,13175,13183,13183,13183,13192,13192,13192,13199,13199,13199,13207,13207,13207,13215,13223,13231,13231,13231,13247,13247,13271,13487,13495,13503,13511,13511,13519,13519,13527,13527,13535,13535,13535,13544,13551,13560,13560,13560,13568,13568,13568,13568,13575,13576,13584,13584,13591,13591,13591,13600,13600,13608,13608,13615,13616,13616,13623,13623,13624,13632,13632,13639,13639,13639,13647,13647,13647,13655,13655,13664,13664,13664,13672,13672,13672,13672,13679,13679,13689,13689,13696,13696,13697,13697,13704,13704,13704,13713,13713,13713,13719,13720,13729,13729,13735,13736,13745,13746,13751,13751,13759,13759,13759,13767,13778,13778,13778,13783,13784,13792,13792,13799,13799,13799,13810,13815,13815,13829,13829,13833,13833,13845,13848,13848,13855,13855,13872,13889,13889,13912,13912,14014,14167,14178,14183,14183,14194,14194,14194,14199,14200,14211,14211,14215,14215,14215,14228,14228,14232,14232,14232,14245,14245,14248,14248,14255,14256,14265,14274,14288,14288,14305,14305,14312,14329,14338,14345,14351,14367,14379,14379,14392,14399,14447,14471,14471,14480,14496,14527,14527,14536,14551,14552,14552,14559,14560,14568,14583,14655,14855,14864,14873,14896,14904,14904,14912,14920,14928,14929,14937,14937,14951,14952,14959,14967,14975,14975,14983,14991,14991,14999,15007,15015,15015,15025,15031,15041,15048,15048,15058,15058,15063,15064,15064,15075,15075,15075,15080,15080,15090,15096,15096,15103,15104,15112,15112,15120,15121,15129,15137,15137,15143,15152,15152,15159,15167,15175,15175,15184,15184,15191,15191,15199,15199,15208,15208,15215,15216,15224,15225,15225,15231,15232,15241,15241,15248,15248,15263,15263,15275,15275,15280,15280,15291,15291,15296,15296,15296,15304,15304,15320,15329,15329,15337,15343,15359,15368,15383,15407,15407,15647,15656,15663,15674,15674,15674,15680,15680,15690,15691,15691,15696,15696,15707,15707,15708,15713,15713,15713,15713,15720,15728,15728,15736,15737,15737,15744,15753,15753,15768,15783,15783,15791,15791,15815,15831,15847,15857,15863,15879" d="m196.51137,230.09091c-2.58934,0 -3.5,0 -4.41068,0c-0.91083,0 -1.61015,0 -2.58932,0c-0.8,0 -1.60001,0 -2.60451,0c-0.85266,0 -1.81683,0 -2.62083,0c-0.82199,0 -1.85466,0.03279 -2.77466,-0.02083c-0.68588,-0.03998 -1.68401,-0.26837 -2.52083,-0.47917c-0.87915,-0.22147 -1.77702,-0.40541 -2.67917,-0.464c-0.89867,-0.05836 -1.8,-0.036 -2.69551,-0.036c-0.8685,0 -1.93782,0 -2.64282,0c-0.8,0 -1.82567,0 -2.77068,0c-1.02432,0 -1.69633,0 -2.44032,0c-1.10767,0 -2.05161,0.44409 -2.89351,0c-0.61586,-0.32486 -1.03264,-0.91951 -1.75716,-1.436c-0.78575,-0.56013 -1.20964,-1.20311 -2.084,-1.76399c-0.6718,-0.43095 -1.51823,-0.87296 -2.14134,-1.436c-0.72473,-0.65488 -1.2,-1.18933 -1.89067,-1.88c-0.72232,-0.72232 -1.30519,-1.33392 -1.98399,-1.81732c-0.7838,-0.55817 -1.31491,-0.86343 -2.33333,-1.66667c-0.49072,-0.38705 -1.12767,-1.00095 -1.76534,-1.51466c-0.77873,-0.62737 -1.60077,-1.02211 -2.38,-1.58551c-0.68057,-0.49205 -1.33476,-1.22954 -1.85733,-1.72516c-0.56,-0.53111 -1.358,-1.16235 -2.14317,-1.65384c-0.84799,-0.53082 -1.50871,-1.07881 -2.35416,-1.52083c-0.65422,-0.34204 -1.4407,-0.61259 -2.5,-0.83333c-0.70349,-0.14659 -1.59232,-0.11525 -2.56534,-0.45334c-0.79892,-0.2776 -1.58722,-1.02934 -1.98666,-1.54933c-0.43221,-0.56265 -1.14282,-1.3817 -1.86534,-1.95334c-0.48915,-0.38701 -1.43962,-1.01591 -2.088,-1.58533c-0.86093,-0.75609 -1.29587,-1.31009 -1.908,-1.8c-0.88338,-0.707 -1.69954,-1.07263 -2.2325,-1.3045c-0.74879,-0.32579 -1.69955,-0.8371 -2.4035,-1.32083c-0.76693,-0.52701 -1.38963,-0.83772 -2.284,-1.53333c-0.53338,-0.41484 -1.32658,-1.17426 -1.88067,-1.66135c-0.77667,-0.68275 -1.49908,-1.19008 -2.142,-1.62c-0.81528,-0.54518 -1.41771,-1.02577 -2.1535,-1.73267c-0.64598,-0.62061 -1.22156,-1.26802 -1.96167,-1.95267c-0.56259,-0.52043 -1.32648,-1.05853 -2.1,-1.34283c-0.96804,-0.3558 -1.85124,-0.26465 -2.57417,-0.8c-0.62552,-0.46323 -1.15823,-1.42973 -1.84666,-1.92116c-0.66419,-0.47412 -1.59386,-1.00349 -2.17467,-1.80267c-0.45633,-0.6279 -0.68062,-1.26122 -1.484,-1.948c-0.63702,-0.54456 -1.49358,-0.98711 -2.17733,-1.52133c-0.87956,-0.68723 -1.3365,-1.01656 -2.052,-1.50267c-0.91868,-0.62416 -1.73971,-1.06389 -2.3075,-1.38216c-0.97627,-0.54723 -1.57115,-1.07649 -2.17917,-1.67917c-0.60264,-0.59735 -1.27113,-1.40018 -2.12133,-1.67867c-0.82282,-0.26953 -1.82549,-0.36539 -2.37417,-0.82584c-0.75261,-0.63158 -1.415,-1.13808 -2.18983,-1.3795c-0.95477,-0.2975 -1.60526,-0.75114 -2.573,-0.89517c-0.88928,-0.13235 -1.84617,-0.02083 -2.70833,-0.02083c-0.85417,0 -1.83334,0 -2.63334,0c-0.8,0 -1.8,-0.00053 -2.6,0c-1,0.00067 -1.81696,-0.03937 -2.8,0.22133c-0.81884,0.21715 -1.38938,0.54691 -2.4045,0.726c-0.84608,0.14928 -1.81841,0.26787 -2.62083,0.47801c-0.82367,0.21571 -1.84936,0.49289 -2.733,0.55383c-0.87318,0.06021 -1.667,0.02083 -2.69433,0.02083c-0.69467,0 -1.71133,0 -2.65183,0c-0.86217,0 -1.74035,-0.13358 -2.674,0.22133c-0.65961,0.25075 -1.52132,0.76825 -2.4215,0.77867c-0.89994,0.01041 -1.79867,0 -2.66133,0c-0.8,0 -1.77217,-0.01715 -2.63417,0c-0.90504,0.01801 -1.62244,0.58914 -2.4045,0.87849c-0.85174,0.31512 -1.7,0.12151 -2.6,0.12151c-0.94283,0 -1.86934,0 -2.65183,0c-1.0335,0 -1.9815,0 -2.6535,0c-0.744,0 -1.85167,0 -2.68567,0c-0.909,0 -1.85147,-0.28525 -2.78817,0c-0.60529,0.18433 -1.6703,0.89461 -1.45917,1.64734c0.22913,0.81691 1.64821,0.34392 2.45567,0.35266c0.962,0.01042 1.72283,0.4928 2.64933,0.83333c0.63028,0.23166 1.66667,0.16667 2.45867,0.16667c1.02733,0 1.73562,-0.15553 2.73867,0.01067c0.86688,0.14365 1.20968,1.1855 1.80533,1.70399c0.67254,0.58542 1.8372,0.13596 2.52617,0.3425c0.87965,0.2637 1.65711,0.77376 2.5045,1.22684c0.652,0.3486 1.59146,0.36301 2.364,0.752c0.77084,0.38812 1.0951,1.35252 1.868,1.67867c0.96794,0.40843 1.82696,0.26445 2.568,0.61867c0.86764,0.41473 1.41178,1.07121 2.42117,1.42384c0.76845,0.26846 1.61189,0.14879 2.60817,0.52682c0.70576,0.26781 1.50604,0.67062 2.456,1c0.73829,0.25598 1.71032,0.63518 2.49383,0.69518c0.85193,0.06523 1.77422,-0.01096 2.6735,0.02533c0.6961,0.02809 1.71958,0.42233 2.34734,0.9955c0.60812,0.55524 1.4736,0.83432 2.3,1.35716c0.56518,0.35757 1.16275,1.19244 2,1.59016c0.86909,0.41284 1.5704,0.82616 2.35717,1c0.93154,0.20584 1.75449,0.3107 2.54283,0.66335c1.01606,0.4545 1.55771,0.86195 2.63334,1.22266c0.65153,0.21848 1.65807,0.4388 2.37733,0.77734c0.79633,0.37482 1.59763,0.75673 2.304,1.18933c0.89658,0.54909 1.44288,0.97534 2.49067,1.14732c0.7382,0.12117 1.88335,0.21805 2.53733,0.62733c0.83729,0.52402 1.50591,0.90196 2.29067,1.42534c0.69329,0.46237 1.48957,1.09735 2.16666,1.5c0.83529,0.49673 1.47472,1.03561 2.16666,1.5c0.64745,0.43452 1.44869,0.77316 2.42433,1.3c0.70534,0.38087 1.14015,1.08833 1.69434,1.89867c0.41194,0.60234 1.43118,0.8264 2.19383,1.30133c0.75975,0.47311 1.81868,0.18091 2.43684,0.78534c0.62205,0.60825 0.51652,1.5452 1.10933,2.27866c0.52595,0.65073 1.47206,0.99071 2.29617,1.53616c0.50111,0.33167 1.30524,0.75276 2.07716,1.38383c0.60131,0.49159 1.43467,1.34933 1.976,1.89067c0.50934,0.50934 1.26691,1.29504 1.836,1.8c0.76897,0.68233 1.40429,1.06148 2.02534,1.48666c0.9472,0.64848 1.45457,1.09538 2.22234,1.81784c0.48053,0.45218 1.31528,1.24895 1.76333,1.96365c0.45442,0.72487 1.08261,1.55907 1.60367,1.92117c0.67013,0.46571 1.54749,1.02682 2.27467,1.73601c0.60746,0.59242 1.10554,1.35443 2.00016,1.77866c0.73331,0.34773 1.52583,0.52618 2.33051,0.83734c0.90106,0.34843 1.56934,0.784 2.18001,1.30933l0.77866,0.41068l0.52667,0.76266l0.44116,0.74866" id="svg_4" stroke-width="2" stroke="#000" fill="none"/>
  <path t="16744,16863,16872,16880,16888,16895,16904,16904,16911,16919,16928,16928,16938,16952,16952,16969,16969,16969,16975,16985,16991,16992,17000,17023,17032,17032,17040,17058,17080,17103,17106,17168,17191,17200,17208,17224,17255,17264,17287,17296,17305,17305,17321,17328,17336,17344,17367,17376,17423,17439,17448,17463,17479,17495,17505,17505,17521,17522,17527,17544,17544,17555,17559,17559,17568,17568,17576,17584,17592,17592,17607,17608,17624,17631,17631,17640,17648,17656,17672,17672,17687,17696,17696,17705,17721,17721,17727,17727,17743,17783,17789,17823,17943,17954,17975,17999,18007,18017,18024,18049,18056,18088" d="m124.51137,180.09091c1.8,0 2.70002,-0.006 3.60001,0c0.80003,0.00534 1.6188,0.50049 2.39999,0.83333c0.75154,0.32021 1.76265,0.12955 2.5,0.6875c0.77776,0.58853 1.12285,1.26886 1.91066,1.8685c0.69765,0.53101 1.62518,0.5387 2.58934,0.77734c0.8063,0.19957 1.53334,0.49228 2.47917,0.83333c0.84042,0.30304 1.51299,0.87729 2.32083,0.99867c0.90855,0.13651 1.42052,0.8871 2.3,1.0015c0.69926,0.09096 1.43716,0.74678 2.29999,0.96384c0.8735,0.21976 1.8,0.036 2.69984,0.036c0.92549,0 1.64674,0.31763 2.18416,0.916c0.57343,0.63846 1.21584,1.07358 2.15201,1.084c0.86394,0.00961 1.76776,-0.08212 2.664,0.00017c0.91144,0.08368 1.55371,0.79482 2.39999,0.979c0.86954,0.18924 1.58253,0.43672 2.14734,1.0735c0.62218,0.70145 0.92111,1.19977 1.51933,1.78065c0.6097,0.59203 1.58289,0.48164 2.11732,1.08267c0.57448,0.64607 0.90176,1.41678 1.716,1.91733c0.64117,0.39415 1.38319,1.03854 1.8,1.68401c0.47661,0.73805 0.9283,1.66632 1.36932,2.28267c0.52831,0.73831 1.64041,1.14803 1.80934,1.836c0.24146,0.98328 0.20853,1.72147 0.66867,2.46933c0.43172,0.70164 0.44037,1.77808 0.87349,2.37384c0.58237,0.80106 1.27914,1.32086 1.87917,1.92082c0.69997,0.69989 1.43044,1.02979 2.164,1.62534c0.64957,0.52736 0.86282,1.38348 1.53601,2.07468c0.59203,0.60785 1.35637,1.123 1.73332,2.06667c0.30768,0.77025 0.55032,1.54845 1.16667,2.16666c0.59166,0.59346 0.91501,1.48853 0.99867,2.38c0.08727,0.92992 -0.02318,1.85013 0.64867,2.28217c0.66669,0.42873 1.18073,1.11276 1.35266,2.0045c0.17155,0.88972 0.9572,1.28236 1,2.2c0.04192,0.89886 0.22133,1.67867 0.94283,2.15717l0.05717,0.84283l0,0.89984" id="svg_5" stroke-width="2" stroke="#000" fill="none"/>
  <path t="19280,19383,19391,19391,19399,19407,19407,19415,19423,19423,19432,19432,19439,19455,19463,19463,19471,19471,19479,19479,19488,19495,19503,19503,19511,19527,19527,19535,19535,19543,19543,19551,19551,19559,19567,19575,19575,19591,19599,19607,19615,19615,19631,19639,19648,19671,19671,19679,19687,19727,19815,19823,19823,19831,19849,19871,19911,19911,19919,19935,19943,19959,19991,19991,19999,20015,20039,20047,20055,20191,20223,20247,20255,20279,20319,20335,20359,20383,20407,20423,20455,20479,20495,20495,20503,20583,20591,20607,20639,20639,20703,20711,20735,20735,20744,20751,20751,20759,20767,20775,20785,20791,20799,20807,20815,20823,20831,20831,20839,20839,20847,20847,20855,20855,20863,20864,20871,20871,20871,20878,20878,20878,20881,20887,20896,20896,20903,20903,20911,20911,20919,20919,20919,20927,20935,20951,20999,21055,21199,21199,21223,21255,21271,21287,21303,21311,21327,21343,21359,21367,21383,21423,21431,21447,21463,21471,21479,21480,21487,21496,21503,21513,21513,21527,21527,21527,21535,21535,21543,21543,21551,21567,21575,21575,21584,21584,21591,21599,21607,21617,21617,21623,21623,21639,21639,21639,21647,21647,21655,21655,21666,21671,21671,21679,21696,21703,21719,21727,21743,21759,21767,21785,21791,21799,21807,21817,21831,21831,21839,21863,21879,21895,21903,21903,21907,21927,21943,21951,21967,22007,22015,22175,22191,22199,22207,22207,22215,22215,22223,22223,22231,22231,22239,22239,22239,22247,22247,22255,22255,22255,22263,22263,22271,22271,22284,22284,22284,22287,22287,22287,22295,22295,22303,22303,22312,22312,22312,22319,22328,22335,22335,22343,22343,22343,22351,22351,22360,22360,22367,22367,22375,22375,22375,22383,22383,22383,22391,22391,22400,22400,22401,22407,22407,22415,22415,22423,22423,22423,22431,22431,22439,22439,22447,22455,22463,22463,22471,22479,22487,22495,22503,22511,22512,22519,22531,22535,22546,22554,22567,22583,22583,22599,22600,22607,22607,22616,22623,22632,22649,22649,22655,22665,22671,22682,22682,22687,22703,22703,22703,22711,22719,22735,22751,22751,22767,22767,22775,22783,22791,22799,22807,22815,22831,22831,22839,22848,22855,22865,22882,22882,22895,22911,22919,22919,22935,22939,22967,22983,22999,23007,23015,23023,23032,23039,23048,23048,23066,23066,23071,23079,23079,23087,23103,23103,23119,23128,23135,23145,23151,23159,23168,23184,23184,23199,23207,23215,23232,23249,23255,23279,23303,23312,23335,23351,23351,23368,23375,23383,23399,23407,23407,23423,23439,23448,23479,23488,23511,23511,23535,23687,23703,23895,23904" d="m135.51137,232.09091c-1.75717,0 -2.65266,0 -3.51601,0c-0.85866,0 -1.80533,0 -2.65866,0c-0.94,0 -1.82533,0 -2.71067,0c-0.93999,0 -1.63068,-0.00697 -2.70399,0c-0.82139,0.00534 -1.72917,0.22833 -2.41067,0.5c-0.97472,0.38855 -1.75266,0.49774 -2.65266,0.5c-0.86333,0.00215 -1.83307,-0.10031 -2.758,0.01067c-0.92789,0.11133 -1.56956,0.48717 -2.484,0.93666c-0.82063,0.40338 -1.49553,0.78328 -2.504,0.96735c-0.75647,0.13808 -1.73392,-0.00897 -2.48534,0.17065c-0.96729,0.23123 -1.36163,0.90619 -2.22133,1.55751c-0.65472,0.49602 -1.728,0.35716 -2.533,0.35716c-0.8825,0 -1.77218,-0.13271 -2.66167,0.0045c-0.93138,0.14368 -1.47337,0.81931 -2.4,0.991c-0.92903,0.17213 -1.36076,0.81073 -2.3,1.0045c-0.78795,0.16255 -1.42173,0.68701 -2.2955,0.94283c-0.8904,0.26068 -1.8045,0.05717 -2.7045,0.05717c-0.8,0 -1.42947,0.36978 -2.22134,0.87849c-0.73408,0.47159 -1.81971,-0.06012 -2.57867,0.20683c-0.76109,0.2677 -0.98811,1.5632 -1.72083,1.89384c-0.79185,0.35733 -1.61307,0.3688 -2.28049,0.73683c-0.82415,0.45444 -1.8187,0.28128 -2.59867,0.70934c-0.82174,0.45096 -1.46342,0.90071 -2.02533,1.54933c-0.50931,0.58789 -0.57467,1.42532 -0.57467,2.32533c0,0.89999 0,1.79984 0,2.72533c0,0.776 0,1.67467 0,2.57468c0,0.89999 -0.094,1.84708 0.35267,2.69998c0.39395,0.75223 0.25375,1.63058 0.73267,2.41467c0.49065,0.80328 0.58623,1.56973 1.13616,2.164c0.56378,0.60922 1.43095,0.9223 2.2785,1.10049c0.95844,0.20151 1.71811,0.42114 2.38667,0.73685c0.87791,0.41455 1.94667,0.284 2.70267,0.284c0.91067,0 1.81067,0 2.71066,0c0.9,0 1.8,0 2.7,0c0.87866,0 1.7045,0 2.636,0c0.84933,0 1.57466,0 2.56383,0c0.96417,0 1.91617,0 2.68417,0c0.952,0 1.71733,0 2.7205,0c0.85267,0 1.817,0 2.6315,0c0.8685,0 1.764,0 2.6505,0c0.8055,0 1.85883,0 2.65517,0c0.94234,0 1.80567,0 2.71017,0c0.7175,0 1.758,0 2.5335,0c1.048,0 1.968,0 2.728,0c0.96583,0 1.88667,0 2.78666,0c0.89867,0 1.784,0 2.7,0c0.8,0 1.7,0 2.6,0c0.9,0 1.8,0 2.7,0c0.89999,0 1.8,0 2.7,0c0.87866,0 1.7045,0 2.60001,0c0.89999,0 1.79999,0 2.7,0c0.89999,0 1.8,0 2.7,0c0.8,0 1.74434,-0.01309 2.47917,0.5c0.74126,0.51758 1.39525,0.95474 2.20883,1.30133c0.98654,0.42029 1.52847,0.61874 2.35933,0.84149c1.02153,0.27386 1.91084,0.34674 2.93117,0.35718c0.82011,0.00839 1.71855,0.0629 2.43216,0.42532c0.907,0.46066 1.63591,0.42456 2.56784,0.79602c0.77473,0.30878 1.62146,0.77332 2.5215,0.77866c0.80449,0.00476 1.82561,-0.05795 2.5,0.02084c0.99191,0.11591 1.6718,0.77701 2.5,1.14581c0.75648,0.33688 1.49156,0.51178 2.53067,0.74933c0.84656,0.19351 1.6022,0.48785 2.48534,0.80002c0.84267,0.29785 1.80533,0.284 2.65866,0.284c0.93866,0 1.82533,0 2.62666,0c0.89867,0 1.84825,0.05295 2.25133,0.7045c0.4762,0.76974 1.24599,1.26685 2.14734,1.2955c0.89938,0.02859 1.47026,0.54678 2.15717,0.94284c0.81854,0.47195 1.88148,0.16019 2.3575,0.85849c0.51077,0.7493 0.83975,1.6163 1.50684,2.07718c0.72968,0.50412 1.74675,0.33929 2.37851,0.69617c0.84261,0.47598 1.41029,0.85095 1.89999,1.42532c0.55223,0.64771 1.20468,0.98105 2.10001,1c0.96445,0.02042 1.39874,0.82001 2.27866,1c0.75243,0.1539 1.7785,0 2.52583,0c0.99417,0 1.75951,0 2.71283,0c0.85201,0 1.8925,0 2.66801,0c1.04799,0 1.75749,0.00058 2.61015,0c1.0045,-0.00067 1.82146,0.03934 2.8045,-0.22134c0.81885,-0.21713 1.39003,-0.54309 2.40001,-0.72598c0.79399,-0.14377 1.79253,-0.35809 2.59999,-0.62735c0.99171,-0.33072 1.83487,-0.3934 2.48534,-0.59467c1.02606,-0.31747 1.78685,-0.84311 2.30482,-1.12534c1.02727,-0.55969 1.8925,-0.70398 2.85651,-0.70532c0.61501,-0.00085 1.836,0 2.63251,0c0.7515,0 1.7065,0 2.72083,0c0.90033,0 1.61443,0.01172 2.56934,-0.00134c0.75168,-0.01028 1.56226,-0.02246 2.54533,-0.28265c0.89102,-0.23584 1.88762,-0.57977 2.66451,-0.716c0.85719,-0.1503 1.65364,-0.66602 2.56366,-1.09982c0.69926,-0.33334 1.49837,-0.59543 2.53568,-0.77869c0.68027,-0.12018 1.52016,-0.12082 2.52599,-0.12149c0.85268,-0.00058 1.81668,0 2.61017,0c0.7755,0 1.81601,0 2.668,0c0.964,0 1.5791,0.01392 2.80135,-0.00134c0.81616,-0.01019 1.65007,-0.00876 2.62933,-0.284c0.66103,-0.18579 1.47173,-0.78592 2.27599,-1.27866c0.77083,-0.47223 1.76074,-0.30435 2.51068,-0.65735c0.77551,-0.36505 1.49992,-0.77332 2.39998,-0.77866c0.89999,-0.00531 1.80002,0.00006 2.70001,0c0.90018,-0.00009 1.7027,-0.04117 2.61465,-0.42532c0.87061,-0.36673 1.07669,-1.29959 1.79602,-1.56403c0.83478,-0.30685 1.82379,0.06317 2.71066,-0.23215c0.70374,-0.23434 1.47357,-0.83707 2.17865,-1.25766c0.78433,-0.4679 1.67465,-0.5155 2.61469,-0.52084c0.98514,-0.00558 1.83887,0.04614 2.74667,-0.01068c0.65891,-0.04126 1.54227,-0.67456 2.43866,-0.93216c0.86682,-0.24908 1.65448,-0.29794 2.39999,-0.7045c0.80118,-0.43692 1.85031,-0.5502 2.54001,-0.78867c0.70633,-0.24423 1.44464,-1.01398 2.11716,-1.51132c0.72971,-0.53967 1.63016,-0.96472 2.39999,-1.04819c0.89029,-0.09653 1.75885,-0.00244 2.60684,-0.00449c0.93149,-0.00226 1.50989,-0.72562 2.24667,-0.98935c0.83734,-0.29974 1.84827,0.16803 2.61084,-0.23199c0.67493,-0.35406 1.47849,-0.7764 2.37848,-0.77866c0.89999,-0.00223 1.90134,0.11331 2.5,-0.44266c0.63434,-0.58908 1.08798,-1.47165 2,-1.55734c0.89606,-0.0842 1.89539,0.48608 2.61469,-0.08533c0.70764,-0.56213 0.72537,-1.62042 1.68533,-1.87866c0.86978,-0.23399 1.80859,0.08801 2.69983,-0.03616c0.80188,-0.11172 1.25589,-0.97125 2.1015,-0.99985c0.96478,-0.03262 1.83273,0.11072 2.63199,-0.16667c0.81158,-0.28168 1.57739,-0.79547 2.48782,-0.8335c0.81757,-0.03415 1.52661,-0.59258 2.24817,-0.91583c0.72491,-0.32477 1.71671,-0.67178 2.53067,-0.96249c0.85526,-0.30547 1.44495,-0.57179 2.18533,-1.03618c0.7771,-0.48741 1.76733,-0.08533 2.71466,-0.08533c0.80002,0 1.70001,0 2.60001,0c0.89999,0 1.80002,0 2.70001,0c0.89999,0 1.80438,0.08868 2.69998,0c0.8457,-0.08374 1.21527,-0.9391 2.10019,-1c0.78329,-0.05391 1.84384,0.29971 2.65698,-0.22133c0.73386,-0.47023 1.34283,-0.77867 2.24283,-0.77867c0.80002,0 1.70053,-0.05621 2.5,-0.5c0.79602,-0.44188 1.72153,-0.5 2.60001,-0.5c0.89999,0 1.70001,0 2.60001,0c0.89999,0 1.79999,0 2.70001,0l0.89999,0" id="svg_6" stroke-width="2" stroke="#000" fill="none"/>
  <path t="25072,25184,25184,25193,25200,25200,25210,25210,25216,25216,25225,25225,25233,25233,25233,25233,25240,25241,25241,25249,25249,25256,25256,25256,25264,25264,25272,25272,25272,25281,25281,25281,25288,25288,25288,25297,25297,25297,25297,25304,25304,25312,25312,25320,25320,25320,25328,25328,25336,25336,25336,25344,25344,25344,25352,25352,25352,25360,25360,25368,25368,25368,25381,25381,25381,25381,25384,25384,25392,25400,25400,25400,25409,25409,25410,25416,25416,25416,25424,25424,25432,25440,25440,25440,25449,25449,25449,25456,25456,25465,25465,25465,25472,25472,25480,25488,25488,25497,25497,25497,25504,25504,25513,25520,25520,25530,25530,25536,25536,25552,25552,25563,25563,25568,25568,25580,25584,25600,25616,25640,25696,25760,26029,26408,26408,26417,26425,26425,26432,26441,26441,26448,26456,26465,26465,26472,26481,26481,26488,26488,26496,26504,26504,26504,26513,26513,26520,26520,26520,26528,26528,26536,26536,26536,26544,26544,26544,26552,26553,26562,26562,26562,26568,26568,26568,26576,26576,26577,26577,26584,26584,26595,26595,26596,26600,26600,26600,26600,26608,26608,26616,26616,26624,26625,26625,26632,26632,26641,26641,26648,26649,26649,26656,26656,26656,26664,26672,26680,26680,26688,26696,26704,26704,26712,26720,26736,26759,27060,27087,27104,27112,27112,27120,27128,27136,27145,27152,27168,27179,27179,27216,27456,27464,27473,27480,27496,27504,27504,27512,27512,27520,27520,27528,27528,27536,27536,27544,27552,27552,27561,27562,27562,27568,27568,27578,27584,27584,27596,27596,27596,27611,27616,27616,27627,27628,27632,27632,27645,27648,27648,27648,27657,27664,27673,27680,27688,27688,27696,27696,27704,27704,27712,27713,27720,27728,27736,27745,27745,27752,27761,27762,27768,27768,27777,27778,27784,27784,27795,27795,27800,27812,27812,27812,27816,27816,27828,27828,27832,27832,27832,27840,27848,27848,27856,27856,27856,27864,27864,27873,27873,27880,27880,27888,27888,27897,27904,27904,27912,27912,27920,27920,27928,27928,27936,27936,27944,27952,27961,27968,27968,27976,27977,27984,27994,28000,28009,28016,28025,28032,28044,28044,28064,28073,28089,28091,28097,28111,28113,28113,28120,28120,28128,28136,28136,28144,28144,28152,28168,28178,28200,28200,28210,28216,28232,28244,28244,28248,28280,28368,28400,28416,28428,28445,28448,28712,28721,28728,28745,28745,28752,28752,28761,28761,28768,28768,28777,28778,28784,28784,28794,28795,28800,28800,28800,28811,28816,28816,28825,28825,28825,28832,28832,28844,28844,28845,28848,28848,28860,28864,28864,28876,28877,28880,28880,28888,28889,28896,28905,28920,28920,28929,28936,28952,28960,28968,28968,28976,28984,28994,29032,29040,29048,29072,29088,29096,29118,29120,29152,29184,29193,29209,29224,29243,29264,29264,29336,29345,29361,29384,29408,29488,29520,29728,29737,29744,29744,29752,29752,29760,29760,29768,29768,29768,29776,29776,29784,29784,29793,29794,29794" d="m320.51135,228.09091c-2.59549,0.94283 -3.51465,0.99867 -4.5,1c-0.98398,0.00133 -1.72705,-0.11226 -2.616,0.28534c-0.69583,0.31122 -1.51773,1.06589 -2.28848,1.3575c-0.77625,0.29369 -1.64532,0.28644 -2.76218,0.69049c-0.5347,0.19344 -1.33371,0.6869 -1.88068,1.01851c-1.03183,0.62555 -1.71323,1.01877 -2.55133,1.44682c-0.79813,0.40765 -1.60132,0.80135 -2.40134,1.20134c-0.79999,0.39999 -1.59332,0.81363 -2.39999,1.19867c-0.79367,0.37885 -1.81339,0.62456 -2.60001,0.843c-0.61343,0.17035 -1.39612,0.81532 -2.02081,1.45833c-0.43277,0.44548 -1.38235,1.19986 -2.21518,1.40266c-0.85489,0.20818 -1.7717,0.23083 -2.65948,0.4545c-0.87732,0.22104 -1.4256,0.42845 -2.41785,0.84151c-0.84567,0.35202 -1.80722,0.7019 -2.49649,0.854c-0.96313,0.21254 -1.73544,0.40593 -2.42218,0.834c-1.04102,0.64893 -1.284,1.38695 -2.08966,2.09166c-0.65134,0.5697 -1.358,0.77283 -2.36234,0.939c-0.81152,0.13426 -1.68088,0.14676 -2.63068,0.65201c-0.70926,0.37729 -1.25372,0.99091 -2.08533,1.54533c-0.77396,0.51601 -1.6048,0.87599 -2.41064,1.29599c-0.65048,0.33902 -1.60846,0.91414 -2.14203,1.2375c-0.81863,0.49611 -1.31989,0.92288 -2.58566,1.2375c-0.78305,0.19464 -1.70926,0.09247 -2.62833,0.11433c-0.87573,0.02084 -1.54077,0.12195 -2.51868,0.56799c-0.85574,0.39032 -1.3941,0.79387 -2.31467,1.09868c-0.87204,0.28874 -1.75269,0.23764 -2.66666,0.5c-0.82562,0.237 -1.69244,0.68011 -2.5,1.16666c-0.73022,0.43996 -1.19977,1.07011 -2.03333,1.645c-0.76802,0.52969 -1.39436,0.76013 -2.40451,0.97351c-0.84845,0.17923 -1.82564,0.47382 -2.61015,0.89883c-0.5303,0.28729 -1.46498,0.78372 -2.36401,1.164c-0.73741,0.31192 -1.57956,0.88211 -2.44215,0.96448c-0.97496,0.09308 -1.78706,-0.02853 -2.57918,0.10617c-0.81136,0.13797 -1.52774,0.61661 -2.51599,0.82935c-1.03053,0.22183 -1.7565,-0.09036 -2.71733,0.25198c-0.82588,0.29428 -1.283,1.17023 -2.052,1.548c-0.8846,0.43457 -1.73949,0.29498 -2.71017,0.64252c-0.58603,0.20981 -1.44647,0.95557 -2.20316,1.35748c-0.74812,0.39737 -1.76567,0.23749 -2.22667,0.896c-0.50204,0.71716 -1.24797,1.1947 -1.89067,1.67334c-0.68657,0.51129 -1.4669,0.46741 -2.25067,0.88266c-0.6721,0.35608 -1.14056,1.39438 -1.9335,1.71185c-0.7374,0.29523 -1.72516,0.12149 -2.73315,0.12149c-0.75601,0 -1.73624,-0.11142 -2.46667,0.35718c-0.79991,0.51318 -1.26236,1.2916 -2.11067,1.61749c-0.88075,0.33838 -1.61932,0.49741 -2.42265,1.02533c-0.78824,0.51801 -1.48338,0.914 -2.5,1.16666c-0.67787,0.16849 -1.44781,0.37625 -2.33334,0.83334c-0.84775,0.43759 -1.47701,1.04254 -2.16933,1.38934c-0.74353,0.37247 -1.77144,0.53653 -2.62117,0.66333c-0.96812,0.14447 -1.77522,0.36264 -2.59016,0.65182c-1.04068,0.36929 -1.72838,0.65561 -2.466,1.09549c-0.76382,0.45551 -1.44397,0.97751 -2.50099,1.14734c-0.52325,0.08408 -1.39905,0.08127 -2.58568,0.33932c-0.60678,0.13196 -1.51483,0.44354 -2.39999,0.88c-0.91191,0.44965 -1.45462,0.86124 -2.31467,1.26401c-0.97537,0.45679 -1.68155,0.47208 -2.68533,0.73599c-0.82947,0.21808 -1.46616,0.5798 -2.42134,1.15466c-0.53651,0.32291 -1.34935,0.85974 -1.89465,1.19467c-0.99158,0.60907 -1.85548,1.0957 -2.68401,1.31735c-0.77654,0.20773 -1.87093,0.46402 -2.37466,1.02798c-0.55325,0.61942 -1.25385,1.43381 -1.836,1.69202c-0.95197,0.42224 -1.78926,0.42966 -2.78934,0.44666c-0.81062,0.01376 -1.69339,0.04849 -2.68134,0.284c-0.78447,0.18701 -1.4886,0.36981 -2.48534,0.79999c-0.71501,0.30859 -1.64468,0.94714 -2.3125,1.39517c-0.69937,0.46918 -1.6221,0.47305 -2.52083,0.52084c-0.80341,0.04272 -1.6539,0.48254 -2.38933,0.97467c-0.66948,0.448 -1.2213,1.01999 -2.17467,1.02533c-0.87199,0.00488 -1.74063,0.0159 -2.75717,-0.00015c-0.65825,-0.01041 -1.57387,-0.34796 -2.17883,-0.99985c-0.52963,-0.57071 -1.23244,-0.81039 -2.10001,-1.03601c-0.86562,-0.2251 -1.49956,-1.06409 -2.04283,-1.60681c-0.64217,-0.64151 -1.71054,-0.87909 -1.83633,-1.37802c-0.20091,-0.79684 1.02206,-1.20471 1.70067,-1.858c0.64943,-0.62518 1.09315,-1.31583 1.87866,-1.87814c0.56711,-0.40598 1.55701,-0.24017 2.30434,-0.24301c1.19104,-0.00452 2.03049,0.01471 2.71017,-0.56799c0.56978,-0.48846 1.28995,-1.19885 1.98549,-1.87485c0.51265,-0.49823 1.01889,-1.4584 1.73584,-1.91049c0.53792,-0.3392 1.57855,-0.47931 2.50684,-0.69934c0.9231,-0.21881 1.65451,-0.7908 2.4715,-1c0.94939,-0.2431 1.65781,-0.47043 2.33234,-0.66333c1.12955,-0.32306 2.04703,-0.11374 2.8325,-0.32565c0.84518,-0.22803 0.87953,-1.33966 1.73067,-1.84851c0.71249,-0.42596 1.64159,-0.57999 2.45683,-1.10983c0.64154,-0.41696 1.32509,-0.82858 2.3125,-0.97916c0.9003,-0.13727 1.32568,-0.6676 1.88249,-1.31635c0.63055,-0.73465 1.67758,-0.56845 2.47166,-0.87115c0.81923,-0.31232 1.43823,-1.17438 2.052,-1.63333c0.73152,-0.547 1.42868,-0.97888 2.47867,-1.164c0.82407,-0.14529 1.79028,0.14728 2.636,-0.20267c0.78462,-0.32468 1.52122,-0.79944 2.48399,-0.83469c0.69109,-0.0253 1.63129,-0.2851 2.26868,-0.70316c0.90347,-0.59256 1.63751,-0.99344 2.44716,-1.17416c0.95184,-0.21246 1.82251,-0.28339 2.49567,-0.82584c0.77101,-0.62131 1.46335,-1.17966 2.15117,-1.25949c0.83511,-0.09692 1.83791,0.00153 2.63251,-0.05685c1.19321,-0.08765 1.84184,-0.44199 2.6875,-0.97916c0.64584,-0.41025 1.32484,-0.83374 2.33333,-0.97916c0.97552,-0.14069 1.76471,0.0278 2.7,-0.46368c0.64757,-0.3403 1.16606,-0.95493 1.99983,-1.53549c0.75114,-0.52304 1.72014,-0.66425 2.49567,-1.1315c0.72957,-0.43958 0.96886,-1.35638 1.95717,-1.78033c0.65471,-0.28085 1.59714,-0.45889 2.34734,-1.10983c0.64204,-0.5571 1.48267,-0.94803 2.21066,-0.98935c0.98764,-0.05603 1.76918,0.026 2.76801,-0.0108c0.77557,-0.02859 1.76048,-0.22552 2.452,-0.80118c0.68034,-0.56635 1.28665,-1.03699 2.23601,-1.19867c0.79568,-0.13551 1.54292,-0.57335 2.31183,-1.09984c0.74211,-0.50813 1.52132,-0.88974 2.42149,-0.90016c0.89995,-0.01041 1.8,0 2.70001,0c0.89999,0 1.67003,-0.27083 2.06667,-1c0.38354,-0.70511 1.26933,-1 2.23332,-1c0.90001,0 1.79874,0.01056 2.62083,0c0.83003,-0.01067 1.6483,-0.48613 2.02983,-1.14934c0.427,-0.74223 1.37325,-0.74017 2.19217,-1.20782c0.86252,-0.49255 1.23174,-1.16928 1.95717,-1.84151c0.58046,-0.53789 1.5,-0.854 2.3,-1.30133c0.8,-0.44733 1.62799,-0.68866 2.2,-1.2045c0.7272,-0.65581 0.98248,-1.67529 1.58534,-2.2115c0.65007,-0.5782 1.48146,-0.93019 2.31467,-1.07333c0.95013,-0.16324 1.29134,-0.73558 2.01067,-1c0.83478,-0.30685 1.82416,0.23221 2.68481,-0.01517c0.76788,-0.22072 1.31519,-0.98489 2.2045,-0.9955c0.90002,-0.01073 1.64706,-0.38525 2.38535,-0.716c0.89236,-0.39978 1.72519,-0.34531 2.35751,-0.99384c0.5484,-0.56244 0.98495,-1.66949 1.72781,-2.00349c0.9675,-0.435 1.80576,-0.19081 2.69601,-0.45334c0.83185,-0.24532 1.46793,-1.1454 2.14767,-1.47617c0.89166,-0.43388 1.68552,-0.34212 2.41766,-0.35583c1.10654,-0.02074 2.08258,-0.2406 2.78882,-0.50133c0.97034,-0.35822 1.77866,-0.47902 2.57916,-0.49867c1.00424,-0.02466 1.64633,0.01964 2.82117,-0.22266c0.80243,-0.1655 1.55658,-0.47894 2.43585,-0.65717c0.82538,-0.1673 1.77899,-0.12151 2.62833,-0.12151c0.91916,0 1.92114,0.07852 2.67865,-0.036c0.97275,-0.14706 1.56705,-0.6864 2.48868,-0.91133c0.84918,-0.20724 1.55371,-0.74742 2.43134,-1.05135c0.86554,-0.29974 1.75043,0.19461 2.616,-0.0585c0.87762,-0.25664 1.60623,-0.82335 2.5,-0.94415c0.80954,-0.10942 1.45261,-0.79886 2.29999,-0.97784c0.88083,-0.18605 1.88934,-0.02074 2.78534,-0.02083c0.81451,-0.00009 1.3913,-0.56886 2.15067,-0.964c0.76712,-0.39917 1.76401,-0.036 2.66385,-0.036c0.89883,0 1.67877,-0.12453 2.50015,-0.57466c0.78024,-0.42758 1.6955,-0.42534 2.56668,-0.42534c0.93332,0 1.83331,0 2.63333,0c0.89999,0 1.79999,0 2.69998,0c0.90002,0 1.80002,0 2.70001,0c0.89984,0 2.11154,0.18391 1.62933,0.716c-0.62442,0.68901 -1.51764,0.2605 -2.7775,0.2885c-0.79092,0.01758 -1.73975,0.11354 -2.40115,0.4315c-1.02219,0.49141 -1.66028,0.85365 -2.40002,1.164c-0.92282,0.38716 -1.5289,0.93655 -2.57214,1.27866c-0.67444,0.22118 -1.67853,0.28801 -2.46783,0.55734l-0.72534,0.36533" id="svg_7" stroke-width="2" stroke="#000" fill="none"/>
  <path t="30656,30792,30800,30801,30801,30801,30808,30808,30808,30808,30808,30816,30816,30816,30816,30816,30824,30824,30824,30824,30824,30824,30831,30831,30831,30831,30831,30832,30832,30840,30840,30840,30840,30848,30848,30848,30848,30848,30848,30856,30856,30856,30856,30856,30856,30856,30863,30864,30864,30864,30864,30864,30873,30873,30873,30873,30873,30880,30881,30881,30881,30892,30892,30892,30892,30892,30892,30896,30896,30896,30896,30906,30906,30906,30906,30912,30912,30912,30913,30913,30924,30925,30925,30928,30928,30928,30936,30936,30936,30945,30945,30945,30953,30953,30953,30961,30962,30962,30962,30969,30969,30969,30969,30978,30978,30978,30983,30984,30984,30984,30994,30994,30994,30994,31000,31000,31010,31010,31015,31015,31023,31023,31031,31031,31031,31043,31048,31063,31072,31072,31072,31080,31094,31110,31113,31113,31136,31160,31171,31176,31208,31216,31216,31225,31231,31245,31247,31247,31261,31263,31279,31295,31319" d="m313.51135,196.09091c-0.87598,-1.10983 -1.76563,-1.44026 -2.37149,-1.70984c-0.69232,-0.30804 -1.43094,-0.67021 -2.62851,-1.12349c-0.79312,-0.30019 -1.5979,-0.53813 -2.39999,-0.75601c-0.798,-0.21677 -1.99988,-0.5125 -2.80899,-0.71066c-0.41211,-0.10092 -1.26123,-0.30812 -2.16168,-0.5c-1.46936,-0.31311 -1.99802,-0.4023 -2.53915,-0.4955c-1.10974,-0.19113 -1.67361,-0.28345 -2.8075,-0.41916c-1.11435,-0.13338 -2.19046,-0.20435 -2.703,-0.22818c-0.95435,-0.04439 -1.79013,-0.01358 -2.97284,-0.05733c-0.81442,-0.03012 -1.75015,-0.28793 -2.37216,-0.43584c-0.74854,-0.17799 -1.60941,-0.37151 -2.56799,-0.564c-1.03604,-0.20804 -1.5817,-0.30081 -2.70834,-0.52083c-0.58002,-0.11327 -1.17319,-0.21146 -2.95834,-0.64584c-0.60193,-0.14647 -1.20172,-0.30841 -2.38931,-0.66933c-0.59143,-0.17973 -1.17621,-0.37016 -1.75351,-0.5685c-1.69507,-0.58234 -2.23468,-0.79739 -3.2955,-1.18651c-0.51459,-0.18875 -1.51135,-0.54861 -2,-0.69467c-1.3855,-0.41415 -2.27264,-0.56622 -3.11499,-0.64232c-0.79837,-0.07211 -1.56,-0.07066 -2.62567,-0.07201c-0.67734,-0.00085 -1.71832,0.00005 -2.47568,0c-1.30933,-0.00009 -1.79739,0.00394 -2.82132,-0.01067c-0.52405,-0.00748 -1.56671,-0.03583 -2.07199,-0.07466c-1.39024,-0.10684 -2.18893,-0.25531 -2.91034,-0.4355c-1.02914,-0.25706 -2.06226,-0.5826 -2.79884,-0.77917c-0.76273,-0.20355 -1.54709,-0.401 -2.74283,-0.7c-0.79716,-0.19934 -1.57718,-0.39586 -2.328,-0.564c-0.69998,-0.15675 -1.90399,-0.35201 -2.672,-0.436c-0.76801,-0.084 -1.96846,-0.28181 -2.65067,-0.42534c-0.69914,-0.14709 -2.01276,-0.4361 -2.83951,-0.5175c-0.72249,-0.07114 -1.6765,-0.05716 -2.46249,-0.05716c-0.82201,0 -1.88127,0.02518 -2.83267,-0.01067c-0.72546,-0.02733 -1.85815,-0.20735 -2.52449,-0.342c-0.71172,-0.14381 -1.43533,-0.3405 -2.86867,-0.52583c-0.66194,-0.08559 -1.30054,-0.10941 -2.22017,-0.12018c-1.20259,-0.01408 -1.81378,0.01588 -2.7585,-0.0585c-1.0123,-0.0797 -1.72954,-0.21544 -2.46817,-0.37883c-1.12645,-0.24918 -2.21008,-0.55705 -2.88666,-0.76399c-0.63269,-0.19353 -1.49838,-0.44269 -2.51868,-0.99867c-0.74098,-0.40378 -1.62517,-0.7688 -2.37383,-0.79683c-0.99481,-0.03726 -1.7955,-0.0045 -2.7955,-0.0045c-0.8,0 -1.8,0 -2.58934,0c-0.72533,0 -1.80006,0.01067 -2.71066,0c-0.91086,-0.01067 -1.67552,-0.32225 -2.32533,-0.85066c-0.70042,-0.56956 -1.53635,-1.1133 -2.37466,-1.14934c-0.89919,-0.03865 -1.8,0 -2.60001,0c-0.89999,0 -1.8,0 -2.7,0c-0.97917,0 -1.86179,0.01497 -2.82117,-0.00017c-0.65825,-0.01039 -1.44687,-0.48598 -2.11484,-0.9745c-0.7612,-0.55672 -1.55444,-0.91457 -2.364,-1.024c-0.89377,-0.12082 -1.7,-0.50133 -2.5,-0.94417l-0.89867,-0.05716l-0.88533,0" id="svg_8" stroke-width="2" stroke="#000" fill="none"/>
  <path t="32568,32648,32657,32664,32664,32672,32680,32680,32690,32690,32695,32695,32695,32704,32704,32712,32712,32721,32721,32721,32728,32737,32737,32744,32744,32744,32754,32754,32760,32760,32771,32771,32771,32776,32776,32776,32776,32784,32784,32792,32792,32792,32800,32800,32800,32807,32808,32808,32817,32817,32817,32817,32824,32824,32832,32832,32832,32841,32841,32848,32848,32848,32856,32856,32856,32856,32864,32864,32864,32872,32872,32873,32879,32879,32880,32880,32888,32888,32888,32888,32891,32891,32891,32892,32904,32904,32904,32912,32912,32912,32921,32921,32928,32928,32928,32937,32938,32944,32944,32944,32954,32954,32961,32968,32968,32968,32976,32976,32984,32984,32994,33000,33026,33026" d="m185.51137,185.09091c1.8,0 2.636,0 3.48399,0c0.86334,0 1.979,-0.11722 2.61617,0.44267c0.6662,0.5854 1.20946,1.35619 1.92067,1.5365c0.96638,0.245 1.78561,0.44304 2.57918,0.82216c0.80544,0.38478 1.57597,0.77966 2.37883,1.29851c0.69322,0.44798 1.56273,0.78726 2.27184,0.87483c0.97995,0.12102 1.88051,0.48541 2.74933,0.85866c0.64214,0.27586 1.55255,0.35822 2.5,0.6875c0.74045,0.25734 1.52702,0.68445 2.24817,1.17917c0.73482,0.50409 1.48175,0.92973 2.4185,1.13333c0.78046,0.16962 1.65016,0.14737 2.83333,0.33334c0.60265,0.09473 1.4735,0.35663 2.31467,0.54933c0.99405,0.22772 1.89169,0.23602 2.8855,0.50549c0.62454,0.16934 1.48009,0.5928 2.48384,0.9785c0.53868,0.20699 1.36719,0.49017 2.39482,0.89984c0.70924,0.28273 1.42046,0.60104 2.56384,0.77882c0.65829,0.10236 1.70955,0.11949 2.38933,0.20534c1.20436,0.1521 1.90796,0.48009 2.968,0.74933c0.59195,0.15034 1.41396,0.1656 2.40134,0.45067c0.84914,0.24516 1.76263,0.56996 2.55583,0.66333c0.85118,0.1002 2.04704,0.19977 2.64149,0.33801c0.88776,0.20647 1.72301,0.49881 2.71733,0.91466c0.68907,0.28818 1.36087,0.61841 2.37067,1c0.55624,0.21021 1.47208,0.51001 2.48001,0.8c0.71532,0.2058 1.45482,0.40677 2.20799,0.564c1.45203,0.30312 2.1391,0.36433 2.78934,0.40001c0.93063,0.05106 2.1355,0.036 3.004,0.036c0.7605,0 1.77242,-0.00945 2.49651,0.2215c0.90179,0.28763 1.44858,0.48428 2.63516,0.87834c0.59113,0.1963 1.41547,0.51466 2.55768,0.77882c0.78604,0.18179 1.68518,0.3437 2.40399,0.54668c0.79019,0.22313 1.81354,0.49419 2.71783,0.55383c1.0188,0.0672 1.82083,0.02083 2.62082,0.02083c0.99551,0 1.74667,-0.07957 2.78534,0.01067c0.95715,0.08316 1.61758,0.35025 2.36401,0.564c1.10437,0.31625 1.88074,0.40364 2.73465,0.70934c0.70551,0.25256 1.75885,0.65883 2.616,0.71617l0.89999,0.1665l0.60001,0.40799" id="svg_9" stroke-width="2" stroke="#000" fill="none"/>
  <path t="34583,34743,34775,34783,34799,34815,34824,34847,34895,34911,34952,34967,34999,35007,35023,35039,35040" d="m183.51137,171.09091c-1.436,0.42534 -2.21671,0.80759 -3.09984,1.00017c-0.84427,0.1841 -1.30872,0.99347 -1.90016,1.49983c-0.59444,0.50893 -1.42963,0.67368 -2.05267,1.14734c-0.71484,0.54346 -1.38876,1.03844 -2.24733,1.29549c-0.86273,0.2583 -1.64734,0.41434 -1.98534,1.25584l-0.51599,0.51599" id="svg_10" stroke-width="2" stroke="#000" fill="none"/>
  <path t="37304,37367,37376,37376,37383,37383,37383,37383,37391,37391,37399,37400,37400,37400,37407,37407,37407,37407,37415,37415,37423,37423,37423,37432,37432,37432,37439,37447,37455,37463,37471,37471,37484,37484,37504,37504" d="m178.51137,268.09091c1.82533,0.01065 2.86472,0.11411 3.52083,0.54166c0.85883,0.55963 1.47945,1.12173 2,1.4375c0.78282,0.47485 1.81543,0.79028 2.7045,1.10751c0.96831,0.34549 1.47223,0.75195 2,1.21066c0.84444,0.73395 1.60802,1.53601 2.08801,2.01599c0.645,0.64499 1.19998,1.20001 1.93399,1.93402c0.50533,0.50531 1.23799,1.23798 1.7735,1.7735c0.58049,0.58051 1.36484,1.39026 1.95834,1.9375c0.52429,0.4834 1.53131,0.9585 2.32083,1.39432c0.83809,0.46262 1.43523,0.97287 2.03333,1.64734c0.43948,0.49561 1.5,1 2.14584,1.5l0.62083,0.60001l0.59999,0.60001" id="svg_11" stroke-width="20" stroke="#fff" fill="none"/>
  <path t="39792,39911,39927,39935,39943,39951,39967,39983,40007,40031,40047,40055,40071,40087,40099,40100,40114,40130,40159,40183,40191,40231,40263,40271,40271,40287,40327,40336,40351,40362,40375,40392,40399,40408,40432" d="m198.51137,264.09091c-1.7,0.05716 -2.52361,0.46042 -3.2955,0.94733c-0.70244,0.44308 -1.39421,0.71017 -2.18367,1.07352c-0.68402,0.31482 -1.04166,0.97696 -1.92082,0.97916c-0.89552,0.00226 -1.47707,0.71698 -2.21068,0.98932c-0.83426,0.30972 -1.68933,0.35846 -2.3685,0.98984c-0.63574,0.591 -1.42029,1.00284 -2.32083,1.02084c-0.89848,0.01797 -1.29819,0.36896 -1.98534,0.91467c-0.64145,0.50943 -1.71553,0.04813 -2.51466,0.08533c-0.91763,0.04272 -1.43773,0.79269 -2.29984,1.00015c-0.84013,0.20218 -1.25587,0.97125 -2.10016,0.99985c-0.89949,0.03046 -1.8,0 -2.6785,0.22134l-0.12151,0.86264" id="svg_12" stroke-width="2" stroke="#000" fill="none"/>
  <path t="41175,41263,41271,41279,41287,41295,41303,41327,41335,41335,41343,41359,41359,41367,41375,41391,41399,41415,41447,41447,41479,41511,41519,41543,41559,41567,41567,41575,41583,41591,41591,41599,41599,41607,41615,41623,41623,41631,41631,41640,41640,41647" d="m208.51137,274.09091c-1.564,0.61066 -1.86427,1.7135 -2.61067,1.98932c-0.83424,0.30829 -1.92009,-0.11084 -2.3685,0.51068c-0.49318,0.68356 -0.96819,1.56183 -1.52083,1.97916c-0.7397,0.55859 -1.63835,0.90692 -2.3,1.23685c-0.84335,0.42056 -1.81961,0.28204 -2.59999,0.70932c-0.82257,0.45038 -1.70001,0.57468 -2.60001,0.57468c-0.8,0 -1.38715,0.31448 -2.16667,0.83334c-0.70746,0.47089 -1.50302,0.56409 -2.11867,1.08264c-0.66534,0.56042 -1.15567,1.08112 -1.82449,1.72684c-0.58795,0.56763 -1.7235,0.35718 -2.5155,0.35718c-0.85866,0 -1.722,0 -2.73866,0c-0.836,0 -1.74492,-0.06339 -2.60667,0.08533c-0.80974,0.13974 -1.52933,0.41467 -2.696,0.74802l-0.79166,0.14581l-0.84167,0.02084" id="svg_13" stroke-width="2" stroke="#000" fill="none"/>
  <path t="42800,42843,42846,42872,42880,42880,42896,42912,42912,42928,42936,42936,42952,42968,42976,42992,43000,43008,43008,43016,43024,43040,43048,43064,43072,43089,43106,43106,43120,43120,43128,43136,43160,43184,43184,43200,43224,43232,43256,43288,43328,43344,43344,43368,43384,43400,43400,43416,43432,43440,43448,43456,43488,43512,43536,43560,43576,43576,43584,43608,43624,43632,43656,43688,43697,43706,43706,43712,43722,43722,43728,43728,43736,43744,43744" d="m346.51135,248.09091c-1.81467,0 -2.86737,-0.047 -3.52081,0.52083c-0.61816,0.53717 -1.134,1.28555 -2.11517,1.46851c-0.83371,0.15546 -1.75455,-0.04019 -2.60684,0.36333c-0.81061,0.38377 -1.737,0.18117 -2.47183,0.73267c-0.61606,0.46236 -0.65604,1.34363 -1.16382,2.13617c-0.47845,0.74675 -0.12152,1.7785 -0.12152,2.57851c0,0.90001 0,1.8 0,2.7c0,0.89999 -0.00009,1.79999 0,2.70001c0.00009,0.89999 0.22791,1.76465 0.57468,2.43597c0.41898,0.81107 0.47662,1.65515 1,2.37869c0.508,0.7023 1.19913,1.00418 2.078,1.33798c0.70541,0.26791 1.69888,0.62418 2.34732,1.14734c0.60904,0.49136 1.5,0.50208 2.38934,0.5c0.96783,-0.00226 1.763,-0.35941 2.41068,-0.716c0.86368,-0.47552 1.42953,-0.9903 2.19998,-1.45065c0.71951,-0.42993 0.98734,-1.33319 1,-2.23334c0.0126,-0.89542 0.67123,-1.40656 0.97919,-2.12085c0.37949,-0.88022 0.02081,-1.83633 0.02081,-2.67917c0,-0.89999 0,-1.79999 0,-2.59998c0,-0.90002 0,-1.80002 0,-2.70001c0,-0.89999 0.07452,-1.8028 0,-2.7955c-0.05731,-0.76361 -0.88187,-1.10583 -1.51733,-1.50583c-0.87756,-0.55238 -1.5155,-1.39015 -2.11865,-1.76266c-0.77972,-0.48155 -1.79468,-0.43468 -2.61734,-0.52133l-0.81815,-0.26733l-0.76053,-0.222" id="svg_14" stroke-width="2" stroke="#000" fill="none"/>
  <path t="44280,44320,44336,44352,44361,44368,44376,44376,44384,44400,44409,44409,44424,44432,44448,44464,44464,44480,44496,44512,44512,44521,44528,44528,44544,44553,44561,44568,44584,44584,44592,44600,44608,44616,44624,44664,44704,44744,44769,44784,44800,44824,44840,44848,44856,44872,44880,44896,44904,44936,44960,44960,44976,44992,45000,45016,45040,45048,45048,45056,45064,45080,45090,45090,45096,45096,45104,45112,45112,45120,45121,45128,45128,45137,45137" d="m322.51135,252.09091c-1.69998,0 -2.59998,0 -3.5,0c-0.89999,0 -2.06586,-0.10553 -2.41599,0.56799c-0.40598,0.78096 -0.84241,1.39635 -1.48401,1.86801c-0.77728,0.5714 -1.39655,1.21906 -1.58932,2.164c-0.17999,0.88239 -0.53784,1.60944 -0.88916,2.5c-0.26062,0.66068 -0.12152,1.60001 -0.12152,2.53598c0,0.84802 -0.15457,1.72479 0.01068,2.72803c0.14294,0.86786 0.81314,1.40933 0.98483,2.336c0.17215,0.92902 0.6203,1.4581 1.17383,2.10132c0.59686,0.69357 1.34171,1.00778 2.19467,1.58801c0.73068,0.49704 1.63727,0.56201 2.552,0.61066c0.80338,0.04272 1.29926,0.93912 2.18399,1c0.89786,0.0618 1.77887,0.0173 2.60452,0c0.86008,-0.01801 1.34421,-0.85605 2.21149,-1c0.77786,-0.12909 1.87418,-0.00323 2.08267,-0.80133c0.22763,-0.87134 0.62241,-1.50787 0.91599,-2.39734c0.30457,-0.92279 -0.0882,-1.83957 0.17068,-2.60132c0.30176,-0.88791 0.89664,-1.59946 0.91464,-2.5c0.01794,-0.8985 -0.05038,-1.75449 -0.42532,-2.56134c-0.30237,-0.6507 -0.50397,-1.65195 -0.92734,-2.43866c-0.45374,-0.84311 -0.77292,-1.7327 -1.258,-2.30002c-0.63843,-0.7467 -1.18866,-1.20065 -1.88934,-1.89999c-0.70065,-0.69933 -1.23273,-1.22781 -2.15717,-1.44733c-0.73428,-0.17436 -1.74149,-0.33667 -2.50681,-0.62733l-0.95203,-0.34001l-0.76797,-0.084" id="svg_15" stroke-width="2" stroke="#000" fill="none"/>
  <path t="45936,46047,46056,46064,46072,46080,46091,46096,46096,46104,46104,46104,46112,46120,46120,46128,46136,46136,46144,46152,46160,46160,46160,46169,46169,46169,46176,46176,46176,46186,46186,46192,46192,46200,46200,46200,46208,46208,46216,46216,46224,46248,46248,46256,46264,46264,46296,46312,46320,46328,46632,46640,46656,46672,46673,46673,46680,46680,46688,46696,46708,46708,46712,46712,46724,46724,46728,46728,46728,46736,46736,46744,46744,46752,46752,46760,46760,46768,46768,46768,46776,46776,46776,46785,46785,46792,46792,46801,46801,46802,46808,46808,46816,46816,46825,46825,46832,46832,46840,46840,46847,46856,46856,46872,46880,46888,46912,46920,46960,46965,47120,47136,47152,47160,47176,47192,47192,47201,47208,47232,47248,47280,47303,47456,47464,47480,47480,47488,47496,47496,47512,47512,47520,47528,47536,47544,47544,47584,47592,47656,47680" d="m366.51135,193.09091c1.70001,0 2.70001,0 3.60001,0c0.89999,0 1.80002,0 2.60135,0c0.96533,0 1.81952,-0.00662 2.79865,0c0.7894,0.00534 1.52176,0.06889 2.5,0.5c0.82758,0.3647 1.49985,0.48958 2.61469,0.5c0.88528,0.00827 1.68539,-0.01114 2.58533,0c0.84186,0.01042 1.84253,0.22237 2.56134,0.42534c0.79019,0.22313 1.8165,0.4594 2.51334,0.54933c0.90836,0.11725 1.90964,0.30333 2.7045,0.52533c0.75311,0.21034 1.72134,0.4175 2.48883,0.584c1.05145,0.22812 1.80685,0.53746 2.86533,0.74933c0.70395,0.1409 1.56216,0.16441 2.56668,0.16667c0.79999,0.00179 1.80905,-0.10002 2.55832,0.02083c0.90079,0.14528 1.49323,0.81902 2.22699,1.0045c1.07327,0.2713 1.93579,0.58827 2.52936,1.05867c0.73859,0.58531 1.38971,0.82732 2.28531,0.916c0.8457,0.08374 1.35904,0.93169 1.29102,1.05716c-0.44553,0.82191 -1.59241,1.08228 -2.31183,1.42201c-0.56647,0.2675 -1.59698,0.36156 -2.49384,0.60483c-0.88342,0.23962 -1.68231,0.87329 -2.58551,0.916c-0.78427,0.03709 -1.73584,0 -2.50116,0c-1.00317,0 -1.85583,0 -2.82001,0c-0.80399,0 -1.62601,0 -2.65698,0c-0.88,0 -1.755,0 -2.547,0c-1.03186,0 -1.77917,0 -2.776,0c-0.83469,0 -1.76535,0 -2.55136,0c-0.82199,0 -1.88065,0 -2.59015,0c-0.85266,0 -1.85718,-0.00006 -2.65717,0c-1.00018,0.00009 -1.83026,-0.04027 -2.96667,0.16667c-0.79031,0.14392 -1.56085,0.45198 -2.5,0.66666c-0.80472,0.18394 -1.65482,0.16667 -2.54401,0.16667c-0.98917,0 -1.76917,-0.03664 -2.76797,0.00017c-0.77557,0.02858 -1.6615,0.38394 -2.36868,0.64717c-1.00098,0.37259 -1.80136,0.73424 -2.53799,1.06866c-0.72467,0.32899 -1.78137,0.27875 -2.6355,0.284c-0.86856,0.00534 -1.4158,0.7747 -2.18369,0.9955c-0.82605,0.23752 -1.2955,-0.4315 -1.2955,-1.39549c0,-0.90001 0,-1.8 0,-2.70001c0,-0.89999 0,-1.7 0,-2.59999c0,-0.864 0,-1.73601 0,-2.7c0,-0.90001 0,-1.8 0,-2.70001c0,-0.89999 0.15271,-1.81494 0.88669,-1.89867c0.93262,-0.10638 1.94666,-0.00133 2.75165,-0.00133c0.931,0 1.7135,0 2.60452,0c0.95715,0 1.85715,0 2.75714,0c0.80002,0 1.70001,0 2.56403,-0.036l0.51999,-0.68001l0.86334,-0.284" id="svg_16" stroke-width="2" stroke="#000" fill="none"/>
  <path t="50504,50551,50559,50568,50575,50591,50607,50615,50615,50639,50647,50655,50671,50671,50680,50687,50697,50703,50719,50735,50735,50743,50759,50767,50767,50775,50783,50783,50800,50807,50815,50823,50831,50839,50847,50847,50855,50855,50871,50895,50895,50903,50919,50935,50943,50959,50975,50983,50983,51007,51023,51055,51063,51071,51080,51096,51120,51120,51136,51144,51168,51168,51176,51359" d="m356.51135,154.09091c0.03601,2.55333 0.88235,2.552 1.64285,3.11433c0.64938,0.48018 0.75217,1.47095 1.27316,2.17101c0.51935,0.69786 0.90341,1.38637 1.68399,1.73999c0.81049,0.36717 1.18903,1.2283 1.62134,2.07468c0.33472,0.6553 0.93369,1.33357 1.42599,1.95267c0.51474,0.64729 0.50427,1.7198 1.21402,1.922c0.95285,0.27145 1.72656,0.6185 2.11331,1.42532c0.42093,0.87811 1.01471,1.49747 1.82535,1.59868c0.83038,0.10368 1.8385,0.37602 2.49017,0.64867c0.91861,0.38432 1.45743,0.98038 2.23065,1.33183c0.8006,0.36391 1.9371,-0.15999 2.45383,0.45683c0.52948,0.63206 0.98572,1.33197 1.79202,1.48c0.93729,0.17207 1.84271,0.32408 2.39999,1.084c0.42447,0.57883 1.25848,1.05666 1.85867,1.57466c0.62872,0.54265 1.39722,1.11087 2.27466,1.36816c0.86545,0.25377 1.83798,0.09261 2.34283,0.76167c0.56665,0.75096 1.17548,0.90221 1.92117,1.3315c0.68954,0.39697 0.6716,1.41722 1.15198,2.048c0.55408,0.72757 0.6749,1.60965 0.93134,2.26784c0.3862,0.9912 0.63669,1.84816 1.186,2.64816l0.16217,0.7l0.00449,0.94284l0,0.93182" id="svg_17" stroke-width="2" stroke="#000" fill="none"/>
 </g>
 <g display="none">
  <title>muse_image</title>
  <image xlink:href="http://farm2.static.flickr.com/1072/860435251_f230e4646c.jpg" id="muse" height="426" width="640" y="27" x="0"/>
 </g>
 <g display="none">
  <title>bbox</title>
  <rect stroke="#f00" fill="none" stroke-width="3" height="207.24324" width="638.72" y="106.31532" x="1.28" id="bbox"/>
 </g>
</svg>
