<svg width="640" height="480" xmlns="http://www.w3.org/2000/svg" xmlns:svg="http://www.w3.org/2000/svg" xmlns:xlink="http://www.w3.org/1999/xlink">
 <!-- Sketchy ANNOTATION
  ImageNet ID: n02691156_10504
  URL: http://farm4.static.flickr.com/3073/2455044316_7a60dc6bfc.jpg
  Image Width: 500
  Image Height: 319
  BBox X: 102
  BBox Y: 54
  BBox Width: 369
  BBox Height: 223
  Exposure: 2000ms
  Synset Label: airplane
  Synset ID: n02691156
  Worker Tag: airplane flying
  Sanity Check: 
   Context
   Saved
   Shading
  Comment: 
   {}
  Worker ID: AXD2DZ7U6CK35
  Assignment ID: 3X65QVEQI0N239EQT5I2IJ6BGM5CLB
  HIT ID: 34YWR3PJ28ABMR2556N49S4CDHU0XF
  Work Time: 76s
  Worker Score: 0.9286
 END ANNOTATION -->
 <g display="inline">
  <title>Layer 1</title>
  <path t="0,18,18,18,41,41,57,57,73,73,90,90,106,107,122,122,123,123,140,140,140,156,156,156,172,173,173,173,189,190,190,206,206,207,222,222,223,239,239,239,256,257,257,257,273,273,273,273,290,290,290,290,306,307,307,307,307,323,323,323,340,340,340,357,357,357,357,372,373,373,373,389,390,390,390,407,407,407,407,422,423,423,423,439,439,440,440,456,457,457,457,457,473,473,473,473,473,489,490,490,490,490,506,507,507,507,507,522,523,523,523,523,523,540,540,540,540,557,557,557,557,557,573,573,573,573,573,573,590,590,590,590,607,607,607,607,622,623,623,623,640,640,640,640,657,657,657,673,673,673,673,673,690,690,690,690,706,707,723,723,723,740,740,740,757,757,757,757,757,773,773,773,790,790,806,807,822,823,840,840,857,857,857,873,873,890,890,890,906,907,923,940,957,977,1053,1078,1093,1109,1109,1123,1140,1141,1157,1157,1173,1174,1174,1190,1190,1191,1207,1207,1223,1223,1223,1241,1241,1241,1257,1257,1258,1258,1273,1273,1274,1274,1290,1291,1291,1307,1307,1308,1308,1323,1323,1340,1341,1341,1341,1341,1357,1357,1357,1357,1357,1373,1373,1373,1373,1390,1390,1390,1407,1407,1407,1407,1423,1423,1423,1423,1423,1440,1440,1440,1457,1457,1457,1473,1473,1473,1473,1490,1490,1490,1507,1507,1507,1507,1523,1523,1540,1540,1557,1557,1557,1573,1573,1573,1590,1607,1607" d="m311,68c-0.284,5.42667 -0.42224,6.10745 -0.64734,6.97667c-0.22821,0.88131 -0.34329,1.79481 -0.70984,2.67599c-0.29828,0.71709 -0.86984,1.44302 -1.34283,2.10001c-0.63272,0.87885 -0.94461,1.43589 -1.17865,2.44749c-0.18698,0.80824 -0.26733,1.97179 -0.47852,2.7525c-0.14917,0.55146 -0.41605,1.37503 -0.84415,2.36333c-0.30008,0.69275 -0.67599,1.37283 -1.28268,2.36933c-0.33691,0.55339 -0.8942,1.40308 -1.34933,2.31467c-0.43985,0.88098 -0.6387,1.48192 -0.96533,2.31467c-0.3941,1.00473 -0.70523,1.69463 -1.08667,2.36933c-0.57358,1.0146 -0.94492,1.53823 -1.46198,2.36333c-0.49072,0.78308 -0.92661,1.48511 -1.34818,2.40533c-0.43729,0.9545 -0.61029,1.50248 -0.90451,2.358c-0.40805,1.18658 -0.60001,1.78934 -0.89999,2.68933c-0.20001,0.6 -0.5954,1.8018 -0.8045,2.4045c-0.3241,0.93409 -0.56442,1.5879 -1.017,2.61683c-0.32397,0.73659 -0.68918,1.48397 -1.08301,2.226c-0.58063,1.09402 -0.99475,1.76698 -1.38483,2.41667c-0.37524,0.62498 -0.76413,1.21603 -1.32532,2.43466c-0.26819,0.58237 -0.55652,1.45401 -0.9855,2.48c-0.29401,0.70313 -0.64313,1.38223 -1.22134,2.343c-0.32785,0.54478 -0.89673,1.42043 -1.27982,2.06499c-0.61069,1.02753 -1.0022,1.76195 -1.37784,2.51334c-0.37164,0.74339 -0.85901,1.83134 -1.13684,2.51466c-0.26324,0.64749 -0.46967,1.29321 -1.05066,2.48534c-0.29736,0.61015 -0.67242,1.19217 -1.18066,2.10001c-0.49963,0.8925 -0.90576,1.79605 -1.13184,2.39999c-0.33481,0.89442 -0.61725,1.80162 -0.93152,2.72133c-0.22266,0.65158 -0.46942,1.3513 -0.91064,2.5215c-0.32745,0.86848 -0.50723,1.31731 -0.85333,2.24251c-0.17429,0.4659 -0.66519,1.84593 -0.94135,2.72932c-0.26492,0.84741 -0.37143,1.26851 -0.63666,2.08084c-0.39532,1.21075 -0.72275,2.00893 -1.08334,2.8045c-0.36469,0.80458 -0.76505,1.60011 -1.164,2.39999c-0.39972,0.80147 -0.80328,1.60909 -1.20001,2.436c-0.20166,0.42035 -0.80481,1.72858 -1.19867,2.64667c-0.19925,0.46446 -0.58231,1.39577 -0.76532,1.85599c-0.35419,0.89063 -0.81461,2.11852 -1.08334,2.8515c-0.25262,0.68903 -0.4826,1.36763 -1.07416,2.73151c-0.32333,0.74547 -0.51556,1.1245 -0.88916,1.925c-0.39178,0.83948 -0.99207,2.17343 -1.18802,2.63733c-0.39655,0.93886 -0.58765,1.41328 -0.94415,2.36333c-0.17538,0.46736 -0.63751,1.83049 -0.90451,2.69101c-0.25427,0.81949 -0.46484,1.61615 -0.91931,2.69499c-0.29178,0.69267 -0.66217,1.32874 -1.008,1.95601c-0.66541,1.20699 -0.95752,1.80377 -1.3045,2.71066c-0.22794,0.5957 -0.62085,1.8 -0.82083,2.39999c-0.29999,0.90001 -0.50259,1.49915 -0.90002,2.70134c-0.20129,0.6089 -0.50769,1.55357 -0.79999,2.56534c-0.20679,0.71577 -0.39856,1.46242 -0.63599,2.20799c-0.23734,0.74527 -0.66107,1.81659 -1.18936,2.77867c-0.33417,0.60855 -0.71161,1.14775 -1.28931,2.16133c-0.49277,0.86459 -0.9156,1.67148 -1.27467,2.496c-0.27725,0.63667 -0.48668,1.61136 -0.59601,2.436c-0.12137,0.91542 -0.32622,1.92755 -0.584,2.63599c-0.26949,0.74059 -0.61082,1.45851 -0.948,2.14801c-0.58835,1.20311 -0.96298,1.92709 -1.28133,2.56667c-0.49863,1.00179 -0.84137,1.58183 -1.08,2.60249c-0.17957,0.76802 -0.32393,1.7906 -0.73201,2.42551c-0.56369,0.87701 -0.99147,1.58426 -1.38933,2.37466c-0.40215,0.79892 -0.8,1.60001 -1.2,2.39999c-0.40001,0.8 -0.8,1.60001 -1.2,2.40001c-0.3,0.59999 -0.83424,1.58267 -1.164,2.364c-0.39401,0.93355 -0.11423,1.97389 -0.60268,2.66933c-0.50232,0.71518 -0.94418,1.27353 -0.83333,2.16667c0.1116,0.89909 1.13184,0.85995 1.8,1.08533c0.91788,0.3096 1.68268,0.8627 2.41066,0.90401c0.98798,0.05606 1.81017,0.01067 2.95601,0.01067c0.786,0 1.608,-0.00336 2.66666,0c0.70952,0.00226 1.57808,-0.00438 2.56667,0.284c0.61218,0.17857 1.59363,0.59827 2.41068,0.68001c0.871,0.08714 1.87521,0.0211 2.71017,0.05682c0.58426,0.02499 1.78076,0.19414 2.68982,0.40451c0.62637,0.14494 1.26822,0.343 2.67334,0.48933c0.73898,0.07697 1.49063,0.07881 2.23199,0.084c1.06247,0.00745 2.05023,-0.02086 2.97949,0.05849c0.90781,0.07751 1.80045,0.29384 2.38367,0.44284c0.83612,0.21362 2.0762,0.46278 2.81818,0.48933c1.20193,0.043 1.9574,0.00703 2.79999,0.02133c0.4444,0.00754 1.36252,0.0089 2.73602,0.15601c0.88293,0.09457 1.30792,0.17647 2.125,0.35416c0.78302,0.17029 2.22137,0.57516 2.88449,0.77917c0.63751,0.19614 1.55591,0.49982 2.45715,0.8c0.90009,0.2998 1.49973,0.50079 2.70001,0.89999c0.60254,0.20039 1.539,0.50912 2.21432,0.7c1.11487,0.31511 1.95068,0.50633 2.82568,0.68933c0.87177,0.18231 1.29291,0.28477 2.79565,0.48933c0.59579,0.0811 1.61469,0.13908 2.586,0.34267c0.83179,0.17433 1.41589,0.40536 2.745,0.612c0.71222,0.11072 1.44904,0.12825 2.172,0.192c1.33035,0.11729 1.90378,0.2263 2.87601,0.58534c0.96484,0.35631 1.73419,0.69659 2.28534,0.8685c0.81079,0.2529 1.81885,0.4075 2.68933,0.54616c1.01669,0.16194 1.79041,0.54306 2.81067,0.808c0.5954,0.15462 1.46451,0.18167 2.42117,0.388c0.80087,0.17273 1.569,0.42601 2.60815,0.69467l0.97067,0.25067l0.63599,0.40799" id="svg_1" stroke-width="2" stroke="#000" fill="none"/>
  <path t="2610,2638,2645,2657,2673,2674,2674,2690,2690,2707,2707,2707,2707,2723,2723,2723,2723,2741,2741,2741,2757,2757,2757,2773,2773,2773,2773,2790,2853,2869,2870,2889,2945,3073,3396,3421,3445,3461,3461,3477,3490,3506,3523,3523,3540,3556,3556,3573,3573,3590,3590,3590,3606,3606,3623,3623,3623,3640,3640,3656,3657,3657,3673,3673,3673,3690,3690,3690,3706,3706,3706,3706,3723,3723,3740,3740,3740,3756,3756,3756,3756,3773,3773,3773,3773,3790,3790,3790,3806,3806,3806,3806,3823,3823,3823,3823,3840,3840,3840,3840,3856,3856,3856,3873,3873,3873,3873,3890,3890,3890,3890,3890,3906,3906,3906,3906,3906,3923,3923,3923,3923,3940,3940,3940,3940,3956,3956,3956,3956,3973,3973,3973,3973,3973,3990,3990,3990,3990,3990,3990,4006,4006,4006,4006,4006,4023,4023,4023,4023,4040,4040,4040,4040,4056,4056,4056,4056,4056,4073,4073,4073,4090,4090,4090,4106,4106,4106,4106,4123,4123,4123,4140,4140,4156,4156,4173,4173,4190,4190,4206,4206,4223,4223,4240,4240,4240,4256,4256,4256,4273,4273,4273,4273,4290,4290,4290,4290,4290,4306,4306,4306,4306,4323,4323,4323,4323,4340,4340,4340,4356,4356,4356,4356,4357,4374,4374,4374,4390,4390,4391,4391,4406,4406,4423,4423,4423,4440,4440,4456,4473,4473,4490,4490,4549,4557" d="m311,67c2.47916,0.5 3.29861,0.97141 4.20132,1c0.96484,0.03056 1.63467,0 2.39999,0c1.00769,0 1.91302,0 3.0415,0c0.66702,0 1.37802,0 2.10901,0c1.42667,0 2.091,0 3.03751,0c0.60934,0 1.81122,-0.01613 2.71066,0.02084c0.60059,0.02468 1.80176,0.1926 2.39999,0.33183c0.90283,0.21012 2.09781,0.49879 2.69733,0.562c0.85867,0.09054 1.65158,-0.11329 2.86102,0.10617c0.77432,0.1405 1.52905,0.89413 2.34164,0.97783c0.89529,0.09222 1.77557,0.03009 2.19867,0.71734c0.43878,0.71268 0.95862,1.48096 1.00134,2.384c0.04251,0.89899 -0.1243,1.67743 -0.57468,2.5c-0.42728,0.78039 -0.29367,1.75006 -0.64667,2.5c-0.36505,0.77552 -0.76791,1.54784 -1.06265,2.38534c-0.2594,0.7371 -0.58884,1.71557 -0.716,2.51466c-0.15933,1.00119 -0.42429,1.80539 -0.7045,2.4c-0.47577,1.00954 -0.89981,1.79787 -1.2955,2.6c-0.39362,0.7979 -0.70877,1.38428 -0.91599,2.4c-0.16141,0.79114 -0.28522,1.80785 -0.60486,2.62083c-0.26392,0.67126 -0.69901,1.65768 -0.95831,2.5c-0.17834,0.57935 -0.40942,1.77816 -0.49551,2.67916c-0.05728,0.59941 -0.173,1.80415 -0.37799,2.6955c-0.13492,0.58666 -0.39996,1.41254 -0.56332,2.41917c-0.1412,0.87009 -0.29474,1.88949 -0.52002,2.50667c-0.34875,0.95554 -0.66971,1.81981 -0.86398,2.48849c-0.20609,0.70927 -0.49414,1.80918 -0.79984,2.86867c-0.19199,0.66541 -0.48761,1.60551 -0.61484,2.22017c-0.24719,1.19408 -0.24573,1.81329 -0.33801,2.7585c-0.09872,1.01111 -0.22214,1.72906 -0.38333,2.46817c-0.16397,0.75174 -0.56335,2.20819 -0.76266,2.88933c-0.19006,0.64952 -0.4812,1.57381 -0.63467,2.48534c-0.1506,0.8946 -0.17178,1.80232 -0.25067,2.4c-0.15936,1.20739 -0.36417,1.80558 -0.56332,2.75716c-0.21027,1.00473 -0.27246,1.72789 -0.35266,2.86366c-0.05533,0.78349 -0.15451,1.98106 -0.28534,2.77917c-0.06573,0.40105 -0.22919,1.20148 -0.41916,2c-0.28601,1.20229 -0.5018,1.99821 -0.68484,2.8c-0.18225,0.79829 -0.35522,1.59628 -0.48932,2.79982c-0.08844,0.79372 -0.10297,1.58084 -0.17401,2.343c-0.13419,1.43948 -0.2941,2.10721 -0.46817,2.75717c-0.26471,0.98836 -0.58258,2.02058 -0.77914,2.75717c-0.20355,0.76273 -0.401,1.54709 -0.70001,2.74283c-0.20068,0.80251 -0.40173,1.62093 -0.5,2.04167c-0.20361,0.87183 -0.50201,2.29126 -0.60001,2.80099c-0.20416,1.06187 -0.29929,1.60812 -0.5,2.70667c-0.09964,0.54539 -0.3981,2.11772 -0.49982,2.6075c-0.19211,0.92508 -0.39175,1.77821 -0.543,2.57701c-0.20761,1.09639 -0.27545,1.78197 -0.35718,2.76616c-0.0542,0.65254 -0.21094,2.02353 -0.35718,2.75717c-0.15268,0.76593 -0.34644,1.54755 -0.64282,2.74283c-0.19809,0.79881 -0.39853,1.58733 -0.564,2.364c-0.15955,0.74884 -0.3208,1.81372 -0.38333,2.47433c-0.08652,0.91423 -0.20319,1.99937 -0.40533,2.7135c-0.27301,0.96439 -0.50067,1.77936 -0.59467,2.75349c-0.06693,0.69345 -0.02634,1.40245 -0.27402,2.65167c-0.15512,0.78229 -0.55521,1.62773 -0.69333,2.44299c-0.13422,0.79219 -0.08533,1.79984 -0.08533,2.76401c0,0.952 0,1.72 0,2.672c0,0.76534 0,1.76401 0,2.564c0,1 0,1.8 0,2.80017c0,0.82066 -0.01074,1.48524 0.00134,2.4865c0.01031,0.85516 0.06024,1.80341 0.22,2.83484c0.11438,0.73849 0.29102,1.4971 0.42599,2.283c0.2048,1.19241 0.27264,1.99521 0.32733,2.7955c0.05466,0.79973 0.07962,1.60376 0.24667,2.79982c0.11154,0.79868 0.28693,1.57779 0.42599,2.343c0.19781,1.08842 0.29727,2.10023 0.35266,2.73634c0.08008,0.91985 0.20288,1.82559 0.436,2.73149c0.1618,0.62878 0.57062,1.95421 0.76266,2.67334c0.19751,0.73955 0.38287,1.48732 0.51599,2.23199c0.18921,1.05833 0.2395,2.05258 0.34668,2.67334c0.21115,1.22275 0.64117,2.10759 0.93866,2.68983c0.42795,0.83757 0.84338,1.83278 0.97916,2.5c0.20697,1.01706 0.47424,1.81117 0.66818,2.42082c0.31339,0.98518 0.2738,1.94664 0.35715,2.84734c0.086,0.92957 0.49551,1.75267 0.82886,2.586l0.15598,0.75601l0.04669,0.97466l0.61133,0.48868" id="svg_2" stroke-width="2" stroke="#000" fill="none"/>
  <path t="6926,6936,6936,6936,6936,6957,6969,6969,6981,6981,6981,6993,6993,6993,7005,7005,7022,7022,7022,7040,7040,7040,7055,7055,7055,7055,7055,7073,7073,7073,7073,7090,7090,7090,7090,7090,7090,7106,7106,7106,7106,7106,7106,7122,7122,7122,7123,7123,7140,7140,7140,7140,7155,7156,7156,7156,7156,7172,7172,7172,7172,7173,7190,7190,7190,7190,7190,7190,7205,7206,7206,7206,7206,7222,7222,7223,7223,7240,7240,7240,7240,7256,7256,7256,7256,7256,7272,7272,7273,7273,7273,7273,7290,7290,7290,7290,7290,7306,7306,7306,7306,7306,7323,7323,7323,7323,7323,7323,7340,7340,7340,7340,7340,7340,7340,7355,7356,7356,7356,7356,7356,7373,7373,7373,7373,7373,7373,7390,7390,7390,7390,7390,7390,7390,7406,7406,7406,7406,7406,7423,7423,7423,7423,7423,7423,7440,7440,7440,7440,7459,7459,7459,7459,7459,7459,7476,7476,7476,7476,7476,7476,7476,7490,7490,7490,7490,7491,7491,7491,7491,7491,7509,7509,7509,7509,7509,7509,7526,7527,7527,7527,7527,7543,7543,7543,7543,7559,7559,7559,7559,7559,7575,7575,7575,7576,7576,7576,7592,7593,7593,7593,7593,7593,7606,7606,7606,7606,7606,7623,7623,7623,7623,7623,7640,7640,7640,7640,7640,7641,7655,7656,7656,7656,7656,7673,7673,7673,7673,7673,7690,7690,7690,7690,7690,7690,7727,7727,7727,7727,7727,7727,7728,7728,7739,7740,7740,7740,7740,7740,7740,7740,7740,7756,7756,7756,7756,7756,7756,7773,7773,7773,7773,7773,7790,7790,7790,7790,7790,7806,7806,7806,7806,7806,7806,7806,7823,7823,7823,7823,7823,7823,7823,7840,7840,7840,7840,7840,7840,7856,7856,7856,7856,7856,7873,7873,7873,7873,7873,7873,7892,7892,7892,7893,7893,7893,7908,7908,7908,7908,7908,7909,7925,7925,7925,7926,7926,7942,7942,7942,7943,7943,7943,7958,7958,7959,7959,7959,7975,7975,7975,7975,7992,7992,7992,7992,8008,8008,8008,8009,8009,8025,8025,8025,8042,8042,8043,8043,8043,8058,8058,8059,8075,8075,8075,8076,8092,8092,8092,8092,8108,8109,8109,8109,8109,8125,8125,8126,8126,8140,8140,8140,8140,8158,8158,8158,8159,8175,8175,8176,8176,8192,8193,8193,8208,8209,8226,8226,8226,8226,8226,8242,8242,8242,8242,8258,8258,8258,8259,8275,8276,8276,8276,8292,8292,8292,8292,8293,8308,8309,8309,8309,8309,8309,8310,8325,8325,8326,8326,8326,8326,8342,8343,8343,8343,8343,8359,8359,8359,8359,8373,8373,8373,8374,8374,8392,8393,8393,8393,8393,8394,8408,8408,8409,8409,8409,8409,8410,8425,8426,8426,8426,8426,8442,8443,8443,8443,8458,8459,8459,8459,8459,8475,8475,8476,8476,8476,8493,8493,8493,8493,8494,8509,8509,8509,8546,8546,8546,8570,8575" d="m90,235c3.7355,9.22783 3.91383,9.73009 4.4375,10.8125c0.33922,0.70116 0.96597,1.54825 1.5625,2.1875c0.50294,0.53894 1.00488,1.33119 1.41067,2.26134c0.22808,0.52281 0.71377,1.60326 1.242,2.27249c0.48507,0.61456 1.35291,1.16899 2.10001,1.5715c0.76411,0.41168 1.27227,0.93211 1.84866,1.49733c0.80712,0.79147 1.42361,1.41797 1.913,1.79733c1.09332,0.8475 1.79389,1.20731 2.52733,1.57916c0.37663,0.19095 1.15072,0.56299 2.35834,0.99951c0.79365,0.28687 1.60339,0.51083 2.4,0.77399c1.20534,0.39819 2.00281,0.73102 2.409,0.90002c0.83296,0.34662 1.70129,0.70602 2.16167,0.86331c1.46008,0.49887 1.99492,0.60938 3.08,0.84802c0.54816,0.12057 1.64428,0.33005 2.18134,0.43466c1.52579,0.29724 2.4541,0.49942 2.896,0.60132c0.85152,0.19635 1.66941,0.39969 2.872,0.70001c0.80004,0.1998 1.6,0.39999 2.4,0.60001c1.2,0.29999 2,0.49997 2.8,0.69998c0.79999,0.19998 1.59991,0.4003 2.39999,0.60001c0.8026,0.20032 1.62016,0.40509 2.472,0.60001c0.89746,0.20535 1.86064,0.40363 2.896,0.60001c0.53699,0.10187 1.63213,0.29929 2.18134,0.39999c1.08293,0.19858 2.11897,0.39227 3.07867,0.60001c0.8909,0.19284 1.71667,0.39243 2.48399,0.59998c1.06956,0.28931 1.73184,0.50839 2.388,0.67917c0.97917,0.25482 2.02072,0.40842 2.75717,0.46817c0.76297,0.06192 1.55067,0.07446 2.74283,0.21933c0.80548,0.09787 1.62192,0.26654 2.472,0.444c0.89929,0.18771 1.86064,0.39297 2.896,0.58936c0.53699,0.10187 1.63213,0.29929 2.18134,0.39999c1.08293,0.19858 2.11844,0.39478 3.08,0.60001c0.45686,0.0975 1.32974,0.29688 2.16167,0.5c1.21011,0.29547 2.00821,0.5079 2.81967,0.68933c0.82329,0.18405 1.67218,0.34552 2.556,0.444c0.91922,0.10242 1.89056,0.13431 2.39583,0.14581c1.05618,0.02402 1.6095,0.01855 3.38017,0.021c0.62532,0.00085 1.26271,0.00113 1.90799,0.01053c1.29878,0.01889 1.94434,0.03958 2.58134,0.07465c1.23547,0.06799 2.39781,0.19485 2.95366,0.26733c1.07365,0.13998 1.59155,0.23291 2.61166,0.36334c1.00136,0.12805 2.0051,0.20453 3.024,0.25867c0.52022,0.02765 1.59325,0.07391 2.14934,0.10934c1.16324,0.0741 2.39618,0.19827 3.03017,0.26865c0.63936,0.07095 1.27802,0.15005 2.53667,0.29468c0.60901,0.06998 1.76181,0.19525 2.80783,0.26865c0.95679,0.06714 1.41377,0.0723 2.29834,0.13669c1.32439,0.09644 2.24063,0.22925 2.709,0.29999c0.94797,0.14316 1.89378,0.30096 2.36333,0.36334c1.36037,0.18073 2.23097,0.23682 3.084,0.26315c0.85242,0.02634 2.16667,0.02084 2.62167,0.02084c0.93999,0 1.92,0 2.42499,0c1.04001,0 2.12001,-0.00235 3.24268,0.00134c0.58133,0.00192 1.17883,0.00189 2.42934,0.03467c0.65744,0.01724 1.33931,0.03839 2.78133,0.13065c0.76424,0.04889 1.5508,0.11575 2.3535,0.186c0.81197,0.07104 1.62563,0.1478 2.43449,0.22202c0.7968,0.07312 1.57394,0.15097 3.04533,0.25867c0.68021,0.04977 1.9335,0.11404 2.51201,0.14133c1.07599,0.05075 1.5829,0.04169 2.98799,0.19199c0.88406,0.09457 1.73021,0.2612 2.556,0.40802c0.8089,0.1438 2.01003,0.31195 2.81067,0.37265c0.79944,0.06061 1.6026,0.08069 2.8,0.21933c0.4012,0.04645 1.20419,0.18771 2.02083,0.33334c0.83603,0.14908 2.14493,0.34424 3.06584,0.41599c0.47458,0.03696 1.45522,0.07993 2.47501,0.13669c0.52512,0.02924 2.15979,0.16595 2.72098,0.23132c0.56586,0.06592 1.69635,0.2171 2.25601,0.29068c1.09174,0.14349 2.1272,0.26849 3.09067,0.34131c0.89804,0.06787 1.74976,0.10361 2.16165,0.13669c1.21048,0.09717 2.0119,0.23016 2.83035,0.37265c0.85086,0.14813 1.7471,0.31073 2.71201,0.40802c1.03271,0.10413 1.57193,0.11508 2.66666,0.16666c0.54932,0.02588 1.63391,0.06259 2.66666,0.16666c0.96625,0.09735 1.87146,0.26193 2.74802,0.40802c0.86746,0.14456 1.75092,0.27158 2.67065,0.34131c0.94977,0.07202 1.43619,0.07291 2.41916,0.13669c1.4967,0.09711 1.99719,0.15927 3.00452,0.3045c0.51306,0.07397 1.56293,0.25378 2.10532,0.34732c1.71887,0.29645 2.32892,0.39624 2.95901,0.49683c0.6499,0.10376 1.32056,0.2059 2.72,0.43466c0.73032,0.11938 1.48151,0.24115 3.04001,0.53067c0.80963,0.15039 1.63107,0.31534 2.4585,0.48602c0.82724,0.17065 1.64597,0.34595 2.44949,0.52197c0.78214,0.17133 1.53522,0.3389 2.92532,0.65869c0.6261,0.14404 1.20712,0.27945 2.25336,0.53067c0.47604,0.11429 1.35739,0.33191 2.57999,0.63599c0.79993,0.19894 1.59756,0.40088 2.39999,0.564c0.79776,0.16217 1.99982,0.32373 2.81351,0.38333c0.84836,0.06213 1.29526,0.06693 2.24249,0.13669c1.60983,0.11853 2.19879,0.19904 2.811,0.26865c0.63046,0.07169 1.9288,0.22409 2.58932,0.29468c0.66214,0.07074 1.97662,0.19211 2.62201,0.23117c1.25934,0.07623 1.87494,0.08887 2.48001,0.10065c1.17987,0.02298 1.755,0.02017 3.42017,0.02084c0.53616,0.00021 1.58548,0 2.10065,0c1.01636,0 1.5195,-0.00317 3.02084,0.00015c1,0.00223 1.50024,0.00204 2.5,0.03586c0.50015,0.01691 2.00116,0.12115 3.00134,0.24799c0.50378,0.06387 1.51913,0.2186 2.03467,0.29068c1.04858,0.14661 2.12991,0.26917 3.24799,0.34131c0.56836,0.03668 1.14142,0.05658 2.29068,0.10934c0.57272,0.02631 2.25946,0.13397 2.80365,0.19617c1.06174,0.12134 1.57666,0.20541 2.57501,0.38916c0.48581,0.08942 1.8804,0.3876 2.76401,0.58936c0.86838,0.19827 1.30215,0.30603 2.19247,0.5c1.42145,0.30966 1.93173,0.40604 2.99551,0.59549c0.54477,0.09702 1.64316,0.27475 2.18933,0.34732c1.5697,0.20856 2.06137,0.24823 2.98651,0.30002c0.85574,0.04791 1.65265,0.05249 2.75217,0.05716c1.01398,0.0043 1.66928,-0.01105 2.65067,0.08533c1.04138,0.10226 1.77283,0.26913 2.53683,0.41467c0.78329,0.1492 1.97803,0.34494 2.77783,0.41599c0.7897,0.07016 1.56705,0.09042 2.31598,0.16803c1.06717,0.1106 2.0618,0.3454 2.71069,0.52664c1.34518,0.37573 2.05652,0.59647 2.79999,0.77869c0.74728,0.18317 1.48581,0.36072 2.55316,0.48917c0.98212,0.11819 1.61081,0.11615 2.8215,0.12149c0.90451,0.004 1.52084,0 2.48532,0c1.03619,0 1.77185,0 2.53552,0c0.78366,0 1.97916,0 2.77914,0c0.80002,0 1.60001,0 2.40002,0c1.19983,0 1.99548,0 2.77914,0c0.76367,0 2.19952,0 2.86816,0c0.97803,0 1.63669,0 2.67419,0c0.73566,0 1.49933,0 2.28299,0c1.1955,0 1.99283,0 3.15384,0c0.72733,0 1.70831,0 2.52731,0c0.90533,0 1.91702,0 2.78635,0c1.06134,0 1.69867,0 2.39999,0c0.74933,0 1.53067,0.00317 2.728,-0.00015c0.80002,-0.00223 1.60104,-0.00244 2.39999,-0.05701c1.20221,-0.08209 1.99966,-0.22147 2.78934,-0.36816c0.7757,-0.1441 2.2424,-0.423 2.92667,-0.48935c0.65741,-0.06375 1.63669,-0.08215 2.65067,-0.08533c0.72269,-0.00226 1.50168,-0.00101 2.35202,-0.03601c0.93915,-0.03864 1.98224,-0.1221 3.13464,-0.24933c0.60971,-0.06732 1.23376,-0.14758 1.86752,-0.2355c1.27921,-0.17746 1.91357,-0.2738 3.14581,-0.47916c1.16241,-0.19373 1.71536,-0.29559 2.77084,-0.5c0.50555,-0.0979 1.47543,-0.29565 2.39584,-0.5c0.88223,-0.19586 1.73111,-0.39813 2.556,-0.60001c0.80978,-0.19815 2.01065,-0.49997 2.81067,-0.69998c0.79999,-0.19998 1.59991,-0.40024 2.79999,-0.70001c0.8013,-0.20016 1.20395,-0.30225 2.02084,-0.5c0.83578,-0.20233 2.14505,-0.50354 3.06717,-0.70001c0.47775,-0.10181 1.47406,-0.30215 1.99466,-0.39999c1.08847,-0.20453 2.25043,-0.40155 2.85983,-0.5c1.25781,-0.20319 1.89755,-0.29959 2.53665,-0.39999c0.63425,-0.09964 1.86935,-0.28973 3.02084,-0.5c1.0444,-0.1907 1.52612,-0.29068 2.41666,-0.5c0.81473,-0.1915 1.91779,-0.49628 2.59933,-0.70001c0.98563,-0.29462 1.63422,-0.50848 2.65067,-0.79999c0.71832,-0.20602 1.47888,-0.40451 2.28,-0.60001c0.83887,-0.20471 2.17438,-0.5014 3.10602,-0.69998c0.4725,-0.10071 1.42224,-0.29892 1.89465,-0.40002c1.38672,-0.29678 2.26715,-0.49527 3.10602,-0.69998c0.80112,-0.1955 1.5621,-0.39267 2.625,-0.69983c0.66135,-0.19113 1.56393,-0.51321 2.655,-0.73352c0.69931,-0.1412 1.67999,-0.16531 2.625,-0.1875l0.45898,-0.55383" id="svg_3" stroke-width="2" stroke="#000" fill="none"/>
  <path t="10216,10413,10423,10443,10443,10456,10456,10474,10474,10474,10491,10491,10491,10491,10491,10506,10506,10506,10506,10523,10523,10523,10523,10540,10540,10540,10540,10560,10560,10560,10560,10560,10577,10577,10577,10577,10577,10594,10594,10594,10594,10594,10595,10610,10610,10610,10610,10610,10627,10627,10627,10627,10627,10644,10644,10644,10644,10644,10644,10644,10644,10660,10660,10660,10660,10660,10660,10677,10677,10677,10677,10692,10692,10692,10692,10692,10708,10708,10708,10708,10708,10708,10708,10725,10725,10725,10725,10725,10742,10742,10742,10742,10742,10742,10758,10758,10758,10758,10759,10775,10775,10775,10775,10792,10792,10792,10792,10792,10792,10808,10808,10808,10808,10809,10809,10809,10825,10825,10825,10825,10826,10826,10842,10842,10842,10842,10842,10842,10859,10859,10859,10859,10859,10859,10875,10875,10875,10876,10876,10876,10876,10892,10892,10892,10892,10892,10893,10893,10893,10893,10908,10908,10909,10909,10909,10909,10925,10925,10925,10925,10926,10926,10942,10942,10942,10942,10942,10942,10942,10958,10958,10958,10958,10958,10975,10975,10975,10992,11013,11014" d="m251,281c0.05716,1.70001 0.53384,2.48761 1.2,3.20132c0.51015,0.54654 1.01309,1.27692 1.40001,2.00934c0.51801,0.98053 0.80449,1.62048 1.21432,2.30368c0.49879,0.83145 0.95207,1.45706 1.44699,2.147c0.52094,0.72623 1.06479,1.44974 1.81702,2.51715c0.46545,0.66052 0.89609,1.29102 1.26001,1.91699c0.51825,0.89139 0.90131,1.81012 1.1825,2.40451c0.43002,0.90897 1.00888,1.81042 1.48898,2.39999c0.49765,0.61111 1.05905,1.18549 1.82352,2.10001c0.49387,0.59082 0.93878,1.2019 1.392,1.79999c0.45612,0.60193 1.19138,1.50476 1.73633,2.10901c0.5748,0.63736 1.20288,1.3027 1.52499,1.66168c1.04413,1.16357 1.39893,1.59601 2.13867,2.47998c0.37546,0.44867 0.74432,0.90289 1.49066,1.78134c0.71259,0.83871 1.39413,1.60156 2.048,2.29599c0.31299,0.3324 0.93088,0.96362 1.836,1.87201c0.60226,0.6044 1.22311,1.23029 1.54166,1.5625c0.67642,0.70541 1.7933,1.93607 2.20102,2.40167c0.42703,0.48767 0.86395,0.99722 1.30798,1.52249c0.45065,0.53308 1.34576,1.61105 1.78134,2.14667c0.83807,1.03055 1.22852,1.5206 1.94916,2.44785c0.33792,0.43481 0.96371,1.25989 1.25269,1.65265c0.80563,1.09503 1.28345,1.77905 1.73016,2.43018c0.42786,0.62363 1.2316,1.83899 1.63998,2.43866c0.42346,0.6218 0.89148,1.27936 1.452,1.96802c0.63013,0.77417 1.39539,1.59915 1.80652,2.03467c0.42218,0.4472 1.29675,1.34473 1.73666,1.78931c0.43344,0.43805 1.65878,1.66156 2.03015,2.03601c0.70044,0.70624 1.03873,1.03943 1.66168,1.7175c0.92358,1.00528 1.51022,1.73486 1.80899,2.10449c0.60248,0.74536 1.19638,1.49765 1.5,1.86334c0.88947,1.07132 1.49493,1.73163 2.10001,2.36316c0.59506,0.62109 0.90125,0.91827 1.79999,1.82101c0.60083,0.60352 1.20895,1.21237 1.80002,1.85699c0.914,0.99683 1.20285,1.36243 1.80899,2.10449c0.63535,0.77783 0.95453,1.19214 1.66168,2.02499c0.75369,0.8877 1.16971,1.33679 1.59732,1.79736c0.87799,0.94568 1.33255,1.41547 1.78134,1.89066c0.44586,0.47214 1.72028,1.85608 2.10767,2.30383c0.37521,0.43369 1.07364,1.28339 1.40134,1.70065c0.63788,0.81229 1.54102,2.02133 1.84183,2.42084c0.60306,0.80096 0.9032,1.20578 1.53583,2c0.64197,0.80594 1.32388,1.60614 2.04935,2.39999c0.36841,0.40317 0.74731,0.80325 1.52533,1.60001c0.39215,0.40161 1.58932,1.60001 1.98965,2.00034c0.80869,0.80869 1.22101,1.22101 1.64133,1.64133c0.43033,0.43033 1.3291,1.32892 2.29169,2.29169c0.50922,0.50931 1.03406,1.03394 1.5675,1.57199c0.53992,0.54459 1.0799,1.09314 1.61249,1.64401c0.52576,0.54379 1.05106,1.06668 2.42233,2.60748c0.4151,0.4664 0.79584,0.92563 1.52267,1.78067c0.34494,0.40579 1.00473,1.19229 1.70831,1.89584c0.70224,0.70221 1.47913,1.35306 1.875,1.6875c0.81815,0.69119 1.25421,1.03799 2.125,1.8125c0.92596,0.82361 1.383,1.27045 1.84802,1.71732c0.46597,0.44778 1.3761,1.34338 1.81598,1.78134c0.83716,0.8335 1.59921,1.59286 2.276,2.28534c0.31149,0.31873 1.15079,1.17035 1.75034,1.961c0.49731,0.65585 0.94034,1.435 1.44299,2.16l0.80002,0.64017l0.69998,0.12015" id="svg_4" stroke-width="2" stroke="#000" fill="none"/>
  <path t="11909,11919,11934,11957,11957,11973,11973,11974,11990,11990,11990,11990,11990,12006,12006,12006,12006,12006,12023,12023,12023,12023,12023,12039,12039,12039,12039,12039,12056,12056,12056,12056,12056,12073,12073,12073,12073,12073,12089,12089,12089,12089,12089,12090,12107,12107,12107,12107,12107,12107,12123,12123,12123,12123,12123,12139,12139,12139,12139,12139,12139,12156,12156,12156,12156,12156,12156,12173,12173,12173,12173,12189,12189,12189,12189,12190,12206,12206,12206,12206,12223,12223,12223,12223,12224,12224,12224,12239,12239,12239,12239,12239,12256,12256,12256,12256,12273,12274,12274,12274,12274,12289,12289,12290,12290,12306,12306,12306,12306,12307,12323,12323,12323,12324,12324,12339,12339,12339,12356,12356,12356,12357,12373,12373,12373,12374,12389,12389,12389,12389,12390,12406,12406,12406,12423,12423,12423,12424,12439,12439,12439,12439,12459,12460,12477,12477,12477,12491,12491,12508,12508,12525,12525,12525,12541,12541,12541,12558,12558,12581,12581,12656,12666,12681,12689,12706,12706,12723,12723,12723,12739,12739,12739,12739,12756,12756,12756,12773,12773,12773,12789,12789,12789,12806,12806,12806,12823,12823,12823,12839,12839,12839,12856,12856,12873,12873,12889,12906,12906,12923,12923,12939,12965,12993,12993,13009,13022,13039,13056,13073,13073,13089,13106,13129,13130,13149" d="m329,288c0.01068,2.77866 0.31967,3.51044 0.83334,4.16666c0.43665,0.5578 0.73401,1.60733 1.03867,2.116c0.53122,0.88699 1.13458,1.88037 1.52798,2.60269c0.40683,0.74695 0.60266,1.13416 1,1.91916c0.60406,1.19345 0.99997,1.99548 1.39999,2.7955c0.20001,0.39999 0.60001,1.19998 1.20001,2.39999c0.39999,0.79999 0.79999,1.60001 1,2c0.39999,0.79999 0.99701,2.00153 1.40134,2.79868c0.20166,0.39758 0.59766,1.19339 1.05582,1.94415c0.67773,1.11053 1.2225,1.77673 1.76819,2.43182c0.54501,0.6543 0.85736,0.95157 1.608,1.992c0.50717,0.70297 0.94611,1.47733 1.392,2.28c0.2298,0.41364 0.93951,1.72101 1.19598,2.17468c0.52765,0.93341 0.80463,1.40363 1.35333,2.35333c0.27298,0.47247 1.061,1.85742 1.30383,2.30383c0.46884,0.86191 0.90265,1.69965 1.31702,2.517c0.20413,0.40268 0.80917,1.60254 1.2045,2.41351c0.40479,0.83032 0.61127,1.25806 1,2.16165c0.41199,0.95761 0.80161,1.99673 1,2.53467c0.40329,1.09344 0.59644,1.64532 0.79999,2.18933c0.58969,1.5759 0.79453,2.06464 1.1955,2.991c0.37866,0.87485 0.5835,1.28674 0.91919,2.11166c0.48587,1.194 0.73267,2.00269 0.98532,2.80267c0.25266,0.79999 0.65723,2.00381 0.98401,2.79868c0.16397,0.3988 0.51889,1.17917 0.86331,1.94415c0.49014,1.08865 0.78094,1.77133 1.15268,2.79883c0.26132,0.72226 0.66611,1.95853 0.8215,2.42252c0.33447,0.99872 0.51218,1.52332 0.69934,2.05667c0.37897,1.07996 0.56,1.6207 1.17917,3.13599c0.1936,0.47382 0.58841,1.36621 1,2.18585c0.38913,0.77487 1.00079,1.83542 1.39548,2.50464c0.38461,0.65213 0.78583,1.28763 1.23785,2.31934c0.30942,0.70621 0.5365,1.4603 0.79199,2.20801c0.25388,0.74298 0.67358,1.81601 1.21066,2.79999c0.35974,0.65906 0.77853,1.30185 1.36401,2.34686c0.4093,0.73053 0.80109,1.49875 1,1.88916c0.40225,0.78952 1.00229,1.98795 1.39548,2.78482c0.38608,0.78247 0.58063,1.16296 0.91919,1.91916c0.62241,1.3902 0.85522,2.04727 1.07465,2.67468c0.42203,1.20676 0.59671,1.81625 0.93152,2.71066c0.22607,0.60394 0.79941,1.8009 1.13184,2.409c0.34619,0.63327 0.74216,1.28586 1.18066,2.42435c0.31613,0.82074 0.53381,1.70587 0.75598,2.57999c0.1077,0.42377 0.48816,1.93057 0.71518,2.51968c0.30179,0.78311 0.86578,1.73141 1.34818,2.52866c0.34998,0.5784 0.73291,1.18237 1.18066,2.20499c0.30807,0.70358 0.51727,1.44177 0.86215,2.46634c0.29315,0.87091 0.73438,1.64969 1.3045,2.53366c0.42264,0.65527 0.79337,1.43802 1.20001,2.23203c0.39362,0.76862 0.94049,1.55225 1.39999,2.26266c0.55038,0.85095 0.79651,1.60132 1.10001,2.39047c0.39545,1.02826 0.6575,1.72543 1.09998,2.46152c0.45755,0.7612 1.04257,1.34482 1.49551,2.13934c0.38461,0.67471 0.9259,2.10571 0.18365,2.30566c-0.81006,0.2182 -1.64017,-0.69022 -2.47916,-1.125c-0.70746,-0.36661 -1.30649,-1.17096 -1.84668,-1.65869c-0.59872,-0.54056 -1.56854,-1.16626 -2.11047,-1.422c-0.84421,-0.39838 -1.45901,-0.60785 -2.64151,-1.23532c-0.59854,-0.3176 -1.41614,-0.87317 -2.23468,-1.18399c-0.91602,-0.34781 -1.62741,-0.34116 -2.58798,-0.55484c-0.81229,-0.18069 -1.63428,-0.46207 -2.65735,-0.87851c-0.70197,-0.28574 -1.36508,-0.62228 -2.34265,-0.99982c-0.79718,-0.30786 -1.61636,-0.59012 -2.65717,-0.77884c-0.89423,-0.16214 -1.53339,-0.16019 -2.52151,-0.474c-0.81253,-0.25806 -1.79617,-0.59497 -2.564,-0.63666c-0.95065,-0.05161 -2.00266,-0.01068 -2.66135,-0.01068c-1.008,0 -1.87161,-0.05447 -2.67465,-0.5c-0.80148,-0.44467 -1.73865,-0.60303 -2.21466,-1.30133c-0.51077,-0.7493 -0.96283,-1.30377 -1.36935,-2c-0.48239,-0.82617 -1.12054,-1.39417 -1.71597,-1.99866c-0.68445,-0.69485 -1.14734,-1.5 -1.42136,-2.30002l-0.49466,-0.69998l-0.27332,-0.80002" id="svg_5" stroke-width="2" stroke="#000" fill="none"/>
  <path t="15063,15073,15073,15073,15091,15091,15109,15109,15125,15139,15139,15139,15156,15156,15173,15173,15173,15190,15190,15190,15206,15206,15223,15223,15239,15256,15256,15274,15290,15290,15290,15306,15306,15323,15339,15356,15356,15373,15389,15406,15423,15506,15546,15574,15574,15589,15617,15729" d="m241,322c1.41966,-0.59018 2.04062,-0.47372 2.70367,-0.34818c1.25127,0.23694 2.01321,0.33017 3.12965,0.34818c0.75592,0.01221 1.70834,0 2.7095,0c0.71851,0 1.509,0 2.53568,0c0.90067,0 1.92215,-0.02374 2.73216,0.01068c0.64758,0.02753 1.61224,0.2045 2.41467,0.41464c0.82367,0.2157 1.84924,0.49438 2.733,0.55383c1.01807,0.06848 1.74869,-0.09439 2.67764,0.05685c0.87207,0.14197 1.52081,0.59268 2.48001,0.87997c1.03473,0.30994 1.70169,0.56305 2.48532,0.80002c0.97607,0.29517 1.74152,0.28094 2.7627,0.284c0.836,0.0025 1.67264,0.32614 2.43597,0.716c0.7529,0.38452 1.70001,0.284 2.60001,0.284c0.89999,0 1.80002,0 2.70001,0c0.89999,0 1.69998,0 2.60001,0l0.94281,0l0.89584,0" id="svg_6" stroke-width="2" stroke="#000" fill="none"/>
  <path t="16406,16466,16490,16508,16525,16539,16556,16556,16572,16573,16573,16589,16589,16589,16605,16622,16622,16638,16655,16655,16673,16692,16729,16741,16741,16757,16773,16789,16805,16822,16822,16838,16838,16855,16855,16873,16888,16889,16906,16906,16906,16923,16923,16939,16939,16956,16956,16956,16973,16973,16989,17006,17023,17057,17098,17098,17110,17137,17137,17156,17173,17189,17189,17206,17206,17206,17223,17239,17239,17256,17256,17273,17273,17289,17306,17323,17323,17339,17356,17356,17381,17382" d="m239,322c0,1.79999 0,2.70001 0,3.60001c0,0.89999 0,1.7045 0,2.7215c0,0.69934 0,1.6785 0,2.48917c0,0.87466 0,1.87201 0,2.66849c0,0.7515 0,1.8595 0,2.84216c0,0.67868 0,1.65717 0,2.67868c0,0.79999 -0.18231,1.71948 0,2.564c0.18269,0.84628 1.13324,1.22406 1.8,1.52002c0.85777,0.38077 1.55203,0.93283 2.22533,1.49066c0.59105,0.48969 1.47908,0.67044 2.14934,1.03598c0.97441,0.5314 1.55475,1.11234 2.478,1.33667c0.68274,0.16589 1.66898,0.60373 2.51401,0.88602c0.82187,0.27454 1.83333,0.16666 2.63333,0.16666c0.8,0 1.8,-0.00055 2.59999,0c1,0.00067 1.81601,-0.03568 2.80002,0.22134c0.61313,0.16016 1.3848,0.57666 2.39548,0.7215c0.91156,0.13065 1.76852,0.05716 2.7045,0.05716c0.90002,0 1.80002,0 2.70001,0c0.79999,0 1.85568,-0.0528 2,-1c0.12048,-0.79086 0.06293,-1.69705 0.42532,-2.41068c0.46069,-0.90714 0.50269,-1.62518 0.74133,-2.58932c0.19955,-0.8063 0.66843,-1.49039 0.8125,-2.5c0.13922,-0.97568 -0.02072,-1.72839 0.24219,-2.69983c0.21622,-0.79892 0.69058,-1.62238 0.77417,-2.49567c0.08621,-0.90039 0.00449,-1.82535 0.00449,-2.62582c0,-0.85333 0,-1.79333 0,-2.77884l0,-0.78519l0,-0.94l0,-0.69064" id="svg_7" stroke-width="2" stroke="#000" fill="none"/>
  <path t="17854,17864,17864,17889,17889,17906,17923,17923,17939,17956,17956,17973,17989,18006,18006,18023" d="m271,339c7.604,0 8.375,0 9.32132,0c0.85333,0 1.79459,-0.04703 2.67868,0c0.80338,0.04272 1.47168,0.62921 2.32132,0.87851c0.82568,0.24228 1.79333,0.12149 2.77869,0.12149l0.89999,0l0.79999,0l0.90002,0" id="svg_8" stroke-width="2" stroke="#000" fill="none"/>
  <path t="22849,22859,22872,22872,22889,22906,22906,22925,22925,22925,22942,22942,22942,22959,22959,22959,22976,22991,22991,22991,23006,23006,23006,23022,23022,23045,23101,23133,23153,23153,23169,23177,23189,23206,23206,23222,23239,23239,23256,23256,23256,23256,23272,23272,23272,23289,23289,23306,23306,23306,23322,23322,23322,23339,23339,23356,23356,23372,23389,23389,23406,23406,23422,23516,23538,23557,23573,23590,23590,23607,23607,23607,23623,23623,23640,23640,23657,23658,23673,23673,23690,23690,23707,23707,23707,23734,23778,23794,23810,23823,23823,23840,23857,23857,23873,23873,23890,23890,23907,23907,23907,23923,23923,23923,23923,23940,23940,23957,23957,23957,23973,23973,23973,23990,23990,23990,23990,24007,24007,24007,24007,24007,24023,24023,24023,24040,24040" d="m217,178c0,1.82533 0,2.83333 0,3.6955c0,0.82533 0,1.79117 0,2.55118c0,0.92 0,1.70599 0,2.528c0,1.05865 0,2 0,2.67799c0,1.23 0,2.0265 0,2.778c0,0.9595 0,1.936 0,2.811c0,0.64499 0,1.64233 0,2.45833c0,0.81599 -0.09485,2.05115 0.05716,2.83833c0.1804,0.93428 0.41949,1.92104 1.10951,2.495c0.65335,0.54346 1.66777,-0.02928 2.53333,0.22383c0.87764,0.25664 1.59865,0.91425 2.50134,0.94284c0.68365,0.02165 1.62421,-0.02098 2.63199,0c0.86456,0.01801 1.6674,0.16331 2.52917,0.35266c0.65889,0.14478 1.66681,0.38821 2.5945,0.526c0.99771,0.14819 1.65067,0.16922 2.64751,0.474c0.86272,0.26376 1.81441,0.55307 2.62082,0.61134c0.82047,0.05928 1.85403,0.01085 2.53868,0.04666c0.83684,0.04378 1.82338,0.37885 2.63599,0.63667c0.98543,0.31267 1.76396,0.34732 2.71468,0.35266c0.88531,0.00496 1.77066,0 2.71066,0c0.69067,0 1.84875,0.35873 2.65384,-0.02083c0.7054,-0.33257 0.52083,-1.47917 0.52083,-2.38983c0,-0.91084 0,-1.61017 0,-2.58934c0,-0.8 0,-1.60001 0,-2.60001c0,-0.79999 0,-1.79999 0,-2.59999c0,-1 0,-1.8 0,-2.8c0,-0.78934 0,-1.83333 0,-2.66133c0,-0.88133 0,-1.83867 0,-2.57066c0,-1.09601 0.1241,-1.97662 -0.00017,-2.86784c-0.1118,-0.80191 -1.0582,-1.18724 -1.69983,-1.5475c-0.77899,-0.43738 -1.77689,-0.65417 -2.47467,-0.92732c-0.93242,-0.36499 -1.71965,-0.4816 -2.487,-0.7825c-0.81195,-0.31839 -1.75717,-0.75017 -2.57433,-1.04283c-0.57286,-0.20517 -1.76282,-0.60361 -2.36267,-0.79868c-0.87881,-0.28578 -1.70921,-0.55328 -2.716,-0.71733c-0.87,-0.14175 -1.88533,-0.30583 -2.496,-0.50934c-0.87442,-0.2914 -1.87334,-0.50986 -2.71016,-0.55383c-0.5831,-0.03064 -1.77968,-0.02083 -2.71117,-0.02083c-0.67601,0 -1.42401,0 -2.73184,0c-0.48683,0 -1.5015,0 -2.52417,0c-0.49683,0 -1.84532,0 -2.56932,0.00133l-1.06401,0.03467l-0.85716,0.18533l-0.717,0.42601" id="svg_9" stroke-width="2" stroke="#000" fill="none"/>
  <path t="24799,24896,24906,24926,24941,24956,24972,24972,24994,24994,25007,25025,25062,25089" d="m250,186c1.7,0.05716 2.42236,0.6862 3.3,0.94284c0.86555,0.25311 1.84889,-0.11282 2.7,0.22383c0.70264,0.27792 1.48126,0.78645 2.34732,0.82883c1.0155,0.04968 1.85269,0.0045 2.75269,0.0045l0.89999,0" id="svg_10" stroke-width="2" stroke="#000" fill="none"/>
  <path t="25819,25829,25851,25870,25929,25929" d="m251,200c4.29201,0 5.20001,0 6.10001,0l0.89999,0l0.79999,0" id="svg_11" stroke-width="2" stroke="#000" fill="none"/>
  <path t="27269,27522,27557,27576,27593,27609,27626,27641,27660,27672,27766,27766,27786,27805,27822,27822,27839,27856,27872,27872,27872,27889,27889,27905,27905,27905,27905,27922,27922,27923,27939,27939,27954,27955,27955,27972,27972,27972,27989,27989,27989,28004,28004,28022,28022,28022,28022,28039,28039,28039,28039,28055,28055,28055,28071,28072,28072,28092,28092,28092,28092,28108,28108,28108,28108,28125,28125,28125,28125,28142,28142,28142,28158,28158,28158,28175,28175,28175,28189,28189,28205,28205,28205,28224,28224,28225,28239,28239,28239,28255,28255,28271,28272,28272,28288,28289,28289,28289,28305,28305,28305,28322,28322,28322,28322,28338,28339,28339,28357,28357,28357,28358,28358,28374,28374,28374,28375,28391,28392,28392,28408,28408,28408,28408,28408,28424,28424,28425,28425,28442,28442,28442,28442,28457,28458,28458,28458,28475,28475,28475,28491,28492,28492,28508,28508,28508,28525,28525,28525,28542,28542,28542,28557,28557,28574,28575,28592,28592,28607,28625,28625,29003,29154,29166,29188,29201,29210,29225,29241,29258,29292,29292,29292,29308,29308,29308,29308,29324,29325,29342,29342,29358,29358,29358,29375,29392,29392,29408,29408,29408,29425,29425,29442,29442,29458,29477,29477,29477,29493,29508,29525,29542,29558,29558,29575,29592" d="m91,236c-1.22134,-0.87866 -1.7893,-1.38222 -2.00134,-2.19867c-0.20788,-0.80045 -1.07624,-1.2274 -1.57333,-1.82666c-0.5101,-0.61494 -0.66737,-1.42302 -1.14133,-2.05867c-0.57326,-0.76881 -0.34191,-1.83305 0.23684,-2.39517c0.65205,-0.63332 1.69466,-0.78868 2.27917,-1.32216c0.7197,-0.65688 1.41942,-1.05321 2.36666,-1.36534c0.68525,-0.2258 1.43799,-0.62808 2.23467,-1.03467c0.83821,-0.42778 1.76751,-0.96181 2.28266,-1.28265c0.81951,-0.51042 1.35184,-0.88251 2.3945,-1.49451c0.67825,-0.3981 1.51336,-0.83409 2.3215,-1.22017c0.79356,-0.37912 1.79872,-0.68967 2.41067,-0.776c0.87283,-0.12315 1.87949,-0.29028 2.68933,-0.54616c0.82278,-0.25996 1.81876,-0.67026 2.47916,-0.97917c0.62348,-0.29164 1.61883,-0.8141 2.25684,-1.10001c1.17427,-0.52621 1.72214,-0.71062 2.61066,-1c0.63756,-0.20764 1.6745,-0.5 2.4015,-0.7c1.0905,-0.3 1.78896,-0.48071 2.709,-0.79984c0.78738,-0.2731 1.71684,-0.66415 2.72816,-0.81616c0.83039,-0.1248 1.42767,-0.0847 2.61483,-0.30566c0.60987,-0.11351 1.54117,-0.41103 2.18517,-0.66501c1.04514,-0.41219 1.76733,-0.76599 2.51466,-1.11333c0.74733,-0.34734 1.82915,-0.84367 2.51466,-1.11467c0.95888,-0.37906 1.58083,-0.58089 2.78517,-0.98534c0.59564,-0.20003 1.47282,-0.47758 2.53349,-0.89999c0.71565,-0.285 1.35358,-0.60493 2.36667,-1.09984c0.59859,-0.29242 1.38486,-0.69669 2.40451,-0.843c0.84563,-0.12134 1.81683,-0.05716 2.62082,-0.05716c0.82201,0 1.85333,0 2.54935,0c0.90933,0 1.90933,0 2.72533,0c0.81599,0 1.81599,0 2.72533,0c0.94135,0 1.73184,0 2.58534,0c1.18933,0 1.78934,0 2.68933,0c0.89999,0 1.8,0 2.7,0c0.90001,0 1.8,0 2.7,0c0.90001,0 1.5,0 2.70267,0c0.61867,0 1.61168,0 2.73067,0c0.83467,0 1.71733,0 2.16667,0c0.89467,0 2.16667,0 2.92934,0c1.02899,0 1.66167,0 2.87083,0c0.91049,0 1.53583,0 2.8665,0c0.71733,0 1.45866,0 2.20799,0c0.74133,0 2.14267,0 2.81067,0c0.67599,0 1.384,0 2.55733,0c0.86267,0 1.75734,0 2.65201,0c1.272,0 2.03467,0 2.73334,0c0.963,0 1.87199,0 2.76749,0c0.86852,0 1.93784,0 2.65184,0c0.90533,0 1.87416,0 2.68866,0c0.86852,0 1.76401,0 2.6595,0c0.86852,0 1.93784,0 2.64734,0c0.85266,0 1.85716,0 2.65717,0c0.99983,0 1.77917,0 2.7785,0c0.82016,0 1.6575,0 2.67416,0c0.69467,0 1.73589,-0.25229 2.63133,0.00133c0.77977,0.22086 1.31848,0.63019 2.19518,1.0195c0.71089,0.31569 1.2254,0.9668 2.12083,0.97917c0.92097,0.01273 1.7207,0.2243 2.46249,0.52083c0.70844,0.28319 1.90295,0.68719 2.58817,0.8685c0.69621,0.1842 1.37376,0.37761 2.57867,0.52534c0.94518,0.11589 1.9733,0.03796 2.77066,0.10616c1.0069,0.08612 1.57918,0.37621 2.51466,0.69518c0.84715,0.28885 1.80894,0.24812 2.52701,0.30482c1.13089,0.08931 1.90628,0.33261 2.69699,0.55383c0.92775,0.25957 1.74034,0.41492 2.74533,0.42534c0.69064,0.00716 1.78407,-0.08629 2.68268,0.16667c0.68115,0.19176 1.32451,0.6785 2.42267,0.82266c0.90297,0.11855 1.81882,-0.10582 2.71066,0.01517c0.82135,0.11142 1.5,0.7115 2.3,0.98483l0.89999,0.01067" id="svg_12" stroke-width="2" stroke="#000" fill="none"/>
  <path t="30599,30655,30665,30680,30705,30722,30722,30722,30722,30740,30740,30740,30740,30740,30755,30755,30755,30755,30755,30772,30772,30772,30772,30772,30789,30789,30789,30789,30789,30805,30805,30805,30805,30805,30805,30822,30822,30822,30822,30822,30839,30839,30839,30839,30839,30855,30856,30856,30873,30873,30873,30873,30889,30889,30889,30889,30905,30905,30905,30905,30905,30922,30922,30922,30922,30939,30939,30939,30939,30955,30955,30956,30972,30972,30972,30972,30989,30989,30989,30990,30990,30990,31005,31005,31005,31005,31023,31023,31023,31023,31023,31039,31039,31039,31039,31039,31055,31055,31055,31055,31073,31073,31089,31090,31090,31090,31108,31108,31108,31108,31108,31123,31123,31123,31145,31145,31145,31160,31160,31160,31177,31177,31177,31177,31194,31194,31194,31195,31208,31208,31208,31209,31209,31225,31226,31226,31226,31242,31242,31242,31242,31242,31258,31258,31258,31258,31275,31276,31276,31276,31276,31292,31292,31292,31308,31308,31308,31325,31326,31326,31326,31342,31342,31342,31357,31357,31375,31375,31392,31392,31408,31408,31408,31425" d="m320,220c1.79999,0 2.70004,-0.00584 3.60001,0c0.82138,0.00534 1.73471,0.16179 2.42334,0.35716c0.87177,0.24733 1.54593,0.46054 2.71948,0.74268c0.8642,0.20776 1.31628,0.30177 2.24249,0.46416c0.92993,0.16302 2.29303,0.31837 2.73068,0.35201c0.85815,0.06595 1.71045,0.0947 2.56799,0.168c1.33948,0.1145 2.2688,0.26785 2.74133,0.34134c0.94958,0.14769 1.88879,0.30626 2.80801,0.40799c0.88248,0.09767 1.75217,0.13838 2.62799,0.192c0.90817,0.0556 1.87286,0.134 2.90668,0.25867c0.53781,0.06485 1.63181,0.21745 2.18134,0.29066c1.08228,0.1442 2.11652,0.26852 3.07999,0.34134c0.89804,0.06787 1.32993,0.07117 2.16165,0.13667c1.21063,0.09535 2.00867,0.22598 2.79834,0.37267c0.77567,0.14409 1.52054,0.3278 2.92667,0.49066c0.65689,0.07608 1.63986,0.11128 2.65067,0.25067c0.72006,0.0993 1.45715,0.26662 2.20801,0.40799c1.45587,0.27411 2.14233,0.34521 2.81067,0.40001c1.02405,0.08395 2.14932,0.18301 2.98267,0.31067c0.43811,0.06711 1.33444,0.22397 2.22665,0.41916c1.2757,0.27908 2.03381,0.49731 2.73334,0.68483c0.96185,0.25784 1.87,0.46132 2.772,0.558c0.59888,0.06419 1.50897,0.08897 2.70001,0.33801c0.60553,0.12662 1.49936,0.42114 2.39999,0.71466c0.91287,0.2975 1.55701,0.50516 2.27151,0.64284c1.2207,0.23521 2.1803,0.27603 2.68649,0.30449c1.04169,0.05858 1.56741,0.05676 2.59,0.13667c1.39038,0.10866 2.1922,0.26131 2.93115,0.43683c0.72452,0.17209 1.85278,0.48514 2.69019,0.67917c0.89056,0.20634 1.35172,0.29897 2.2825,0.5c1.38184,0.29846 1.82758,0.3954 2.68649,0.60001c0.82108,0.19559 1.60284,0.38985 2.69501,0.7c1.00769,0.28616 1.61722,0.50949 2.47998,0.71466c0.99496,0.2366 1.91837,0.27336 2.85333,0.45201c0.80627,0.15405 1.71182,0.43018 2.40533,0.54933c1.16467,0.20012 2.02878,0.23225 2.46802,0.25867c0.8732,0.05251 1.72086,0.02745 3.10532,0.30933c0.82431,0.16783 1.52753,0.48062 2.54001,0.632c0.83051,0.12418 1.42838,0.08089 2.61465,0.3055c0.90909,0.17213 1.50119,0.38556 2.70001,0.7785c0.60062,0.19685 1.49448,0.50096 2.10001,0.64284c1.19101,0.27905 2.12149,0.32985 2.772,0.38249c0.69885,0.05655 1.87149,0.19167 2.73782,0.32733c0.91174,0.14278 1.37335,0.23679 2.3075,0.36334c1.35843,0.18404 2.22513,0.23663 3.06183,0.26317c0.8161,0.02588 2.02087,0.01677 2.81952,0.02216c0.79068,0.00533 1.5672,0.01157 2.31598,0.084c1.06787,0.10332 1.73938,0.26326 2.74667,0.52534c0.70959,0.18463 1.87988,0.4958 2.74402,0.68483c0.44458,0.09724 1.34143,0.28439 2.22665,0.41916c1.22168,0.18599 1.95129,0.20966 2.91068,0.31067c1.09375,0.11517 1.80981,0.32999 2.51865,0.58534c1.07303,0.38655 1.70352,0.59967 2.38934,0.77866c1.03952,0.27129 2.01248,0.47472 2.83499,0.55351c0.90274,0.08649 1.91873,0.00262 2.71436,0.09315c1.01031,0.11496 1.56424,0.46053 2.63333,0.79733c0.67471,0.21255 1.70932,0.388 2.41733,0.59201l0.74399,0.222l1.03467,0.26866" id="svg_13" stroke-width="2" stroke="#000" fill="none"/>
  <path t="32609,32633,32633,32633,32633,32634,32641,32641,32641,32641,32655,32655,32655,32672,32672,32672,32689,32689,32689,32689,32705,32705,32705,32705,32705,32705,32705,32722,32722,32722,32722,32722,32739,32739,32739,32755,32755,32755,32755,32772,32772,32772,32772,32772,32789,32789,32789,32789,32805,32805,32805,32822,32822,32822,32822,32839,32839,32839,32855,32855,32872,32889,32889,32913,32922,32973,32986,32993,33009,33022,33022,33039,33055,33055,33072,33072,33072,33072,33089,33090,33090,33090,33105,33105,33105,33123,33123,33123,33123,33140,33140,33155,33155,33173,33205,33241,33258,33258,33275,33291,33307,33307,33307,33307,33324,33325,33325,33341,33341,33341,33357,33357,33357,33374,33374,33374,33374,33374,33389,33389,33389,33389,33405,33405,33405,33405,33421,33422,33422,33422,33438,33439,33439,33439,33454,33455,33455,33455,33472,33472,33472,33472,33489,33489,33489,33489,33505,33505,33505,33505,33522,33522,33522,33522,33539,33539,33554,33555,33571,33572,33572,33645,33653,33674,33691,33691,33692,33706,33706,33723,33723,33723,33740,33740,33740,33756,33756,33756,33756,33773,33773,33773,33789,33789,33789,33789,33805,33805,33805,33822,33822,33822,33838,33839,33855,33855,33873,33873,33890,33890,33906,33906,33906,33923,33923,33940,33940,33956,33956,33973,33973,33990,33990,34006,34006,34023,34023,34042,34042,34042,34056,34082,34098,34106,34123,34150,34150,34233,34295,34307,34331,34345,34356,34374,34374,34390,34390,34406,34423" d="m500,251c5.93549,-4.83566 6.72845,-5.43303 7.09201,-5.70267c0.67596,-0.50137 1.31989,-0.95964 2.20782,-1.71851c0.90613,-0.77443 1.45386,-1.32927 2.01483,-1.80949c0.7504,-0.64238 1.43906,-1.11604 2.28403,-1.56667c0.7934,-0.42311 1.65106,-0.85495 2.08667,-1.17334c1.03601,-0.75728 1.5683,-1.31572 2.16132,-1.92265c0.31885,-0.32631 1.3222,-1.4381 1.67468,-1.84933c0.73596,-0.8587 1.10321,-1.30862 1.85333,-2.20668c0.37225,-0.44565 0.72644,-0.89575 1.80365,-2.1075c0.65106,-0.73236 0.97113,-1.06422 1.57501,-1.68582c0.55646,-0.57278 1.56128,-1.57202 2.01062,-2.02135c0.63153,-0.6315 1.44012,-1.43251 1.84052,-1.84499c0.63776,-0.657 1.09326,-1.15137 1.81683,-2.03384c0.54065,-0.65942 1.08197,-1.37555 1.62604,-2.10899c0.27026,-0.3643 1.03656,-1.42262 1.49097,-2.0865c0.62274,-0.90976 0.97961,-1.47223 1.57898,-2.47766c0.40668,-0.68214 0.83179,-1.3842 1.42535,-2.10533c0.44775,-0.54398 1.21796,-1.34349 1.68933,-1.89467c0.64081,-0.74927 1.03766,-1.49182 1.6507,-2.19734c0.69354,-0.7982 1.53406,-1.08388 2.05597,-1.88666c0.47522,-0.73099 0.95032,-1.32466 1.54053,-2.10001c0.55908,-0.73447 0.95624,-1.48199 1.8208,-1.5c0.89984,-0.01874 1.79999,0 2.70001,0c0.79999,0 1.63635,-0.02403 2.66614,0.0045c0.61707,0.01711 1.6687,0.1543 2.64368,0.34816c0.71216,0.1416 1.43713,0.32578 2.5235,0.48067c1.00134,0.14278 1.63037,0.1235 2.48004,0.25067c1.01294,0.1516 1.71271,0.44649 2.45599,0.80267c0.87958,0.42151 1.87341,0.93336 2.54401,1.28799c0.63599,0.33633 1.59167,1.00592 2.29065,1.37866c0.83984,0.44788 1.78619,0.39326 2.63885,0.79933c0.80969,0.3856 1.6734,0.80164 1.75714,1.64734c0.07886,0.79611 0.05609,1.70319 -0.02081,2.5625c-0.08453,0.94501 -0.32953,1.80174 -0.5,2.45833c-0.17664,0.68022 -0.56616,1.94147 -0.87921,2.71783c-0.28809,0.71442 -0.71863,1.67616 -0.98932,2.48666c-0.27252,0.81589 -0.48499,1.85435 -0.59601,2.57068c-0.11963,0.77177 -0.33539,1.70804 -0.58398,2.45732c-0.27802,0.8381 -0.61584,1.70674 -0.78247,2.14584c-0.48102,1.26768 -0.78546,2.02246 -1.10651,3.05916c-0.19458,0.62834 -0.42151,1.84172 -0.49353,2.44617c-0.11096,0.93132 -0.1701,1.59451 -0.49097,2.61684c-0.23315,0.74284 -0.57788,1.47873 -0.909,2.226c-0.48126,1.08609 -0.89679,2.0934 -1.12738,2.73184c-0.22186,0.61435 -0.63049,1.81792 -0.81628,2.42532c-0.28357,0.92703 -0.45569,1.57571 -0.58319,2.61684c-0.1347,1.09995 -0.12823,1.85503 -0.20532,2.59467c-0.11102,1.06577 -0.34564,2.06041 -0.52667,2.70934c-0.18427,0.66049 -0.49139,1.69543 -0.68933,2.42734c-0.30316,1.12114 -0.48993,1.86623 -0.79999,2.92567c-0.19373,0.66187 -0.48883,1.5791 -0.70001,2.13498c-0.47076,1.2392 -0.85431,1.85223 -1.07849,2.88669c-0.17078,0.78799 -0.08643,1.80124 -0.1322,2.58932c-0.0423,0.72794 -0.41547,1.87378 -1.28931,2.1535c-0.86017,0.27536 -1.8667,0.05716 -2.53601,0.05716c-0.76532,0 -1.76849,0 -2.62115,0c-0.96436,0 -1.77887,0 -2.64734,0c-1.1955,0 -1.79553,0 -2.6955,0c-1.20001,0 -1.79999,0 -2.70001,0c-0.90002,0 -1.80042,0.013 -2.71069,-0.01068c-0.62561,-0.0163 -1.9577,-0.14587 -2.672,-0.27332c-0.73395,-0.13095 -1.44946,-0.32669 -2.784,-0.54935c-0.81561,-0.13608 -1.52893,-0.11823 -2.53333,-0.388c-0.81812,-0.21973 -1.38995,-0.54312 -2.39996,-0.72598c-0.79407,-0.14377 -1.79584,-0.34433 -2.56403,-0.62735c-0.94861,-0.34949 -1.72113,-0.38736 -2.68268,-0.436c-0.84222,-0.04263 -1.84467,-0.24704 -2.63251,-0.51016c-0.7608,-0.25412 -1.50531,-0.76291 -2.26898,-1.12198c-0.86365,-0.40607 -1.80176,-0.36688 -2.63715,-0.79318c-0.61365,-0.31311 -1.61218,-0.8822 -2.36401,-1.12799c-0.90875,-0.29709 -1.72968,-0.42557 -2.73599,-0.436c-0.72531,-0.00751 -1.71735,0.04736 -2.51468,-0.02084c-1.0069,-0.08612 -1.77386,-0.44656 -2.51468,-0.69516c-0.94778,-0.31805 -1.88531,-0.284 -2.78531,-0.284c-0.90002,0 -1.85349,0.18137 -2.70001,-0.16666c-0.67108,-0.27591 -1.7135,-0.69763 -1.98932,-1.444c-0.30832,-0.83426 -0.01068,-1.78934 -0.01068,-2.68935c0,-0.89999 0,-1.80017 0,-2.58533c0,-0.94 0,-1.63068 0,-2.70401l0,-0.91066" id="svg_14" stroke-width="2" stroke="#000" fill="none"/>
  <path t="35636,35770,35780,35806,35823,35823,35823,35840,35840,35840,35856,35856,35873,35873,35873,35890,35890,35890,35906,35906,35906,35923,35923,35923,35940,35940,35956,35956,35973,35973,35973,35990,35990,36006,36006,36023,36023,36023,36040,36040,36056,36056,36073,36073,36073,36090,36090,36090,36106,36106,36123,36123,36123,36123,36140,36140,36140,36156,36156,36173,36173,36190,36190,36190,36206,36206,36206,36223,36223,36239,36239,36239,36256,36273,36289,36306,36306,36326,36326,36354,36394,36402,36425,36446,36462,36474,36490,36522,36522,36539,36556,36573,36589,36589,36606,36623,36623,36639,36639,36656,36656,36673,36674,36689,36690,36690,36706,36706,36724" d="m502,284c0.61066,-1.564 1.40372,-1.91296 2.30899,-2.00449c1.03186,-0.10434 1.70602,-0.33731 2.47635,-0.60617c1.05554,-0.36841 1.73853,-0.72031 2.55301,-1.03217c0.89923,-0.3443 1.63385,-0.43033 2.67599,-0.70984c0.52887,-0.14185 1.3822,-0.40417 2.58563,-0.56332c0.59772,-0.07904 1.50739,-0.09045 2.69983,-0.30536c0.60034,-0.10818 1.45422,-0.39859 2.53351,-0.612c0.70428,-0.13928 1.5625,-0.14334 2.56671,-0.168c0.80048,-0.01965 1.79816,-0.22537 2.59998,-0.49866c0.99774,-0.34006 1.79944,-0.48077 2.59998,-0.49866c0.99976,-0.02234 1.80029,0.01965 2.80005,-0.00269c0.80054,-0.01788 1.80212,-0.21378 2.39996,-0.42398c0.80298,-0.28235 1.79877,-0.54205 2.60004,-0.57019c1.00067,-0.03516 1.836,-0.00183 2.76666,-0.00449c0.78595,-0.00226 1.61908,0.03436 2.66663,-0.16666c0.72034,-0.13824 1.54633,-0.5495 2.56934,-0.74933c0.85992,-0.16797 1.93195,-0.2439 2.56537,-0.36801c0.68414,-0.13403 1.7218,-0.39072 2.69867,-0.54935c0.81555,-0.13245 1.7243,-0.1644 2.73334,-0.16666c0.79999,-0.00177 1.79999,0 2.59998,0c1,0 1.60852,0.04102 2.45715,-0.05716c0.97156,-0.1124 1.76361,-0.38599 2.59021,-0.59018c1.02588,-0.25342 1.93164,-0.34222 2.95264,-0.35266c0.78925,-0.00806 1.51465,0 2.47919,0c0.92084,0 1.84515,0.07852 2.6875,-0.16666c0.86176,-0.25082 1.65552,-0.74527 2.52881,-0.82886c0.90039,-0.08618 1.73633,-0.07642 2.32983,-0.57916c0.63373,-0.53683 1.64948,-0.85919 1.91748,-1.72531c0.2666,-0.86154 0.05719,-1.80002 0.05719,-2.70001c0,-0.79999 -0.05548,-1.70096 -0.5,-2.5c-0.44562,-0.80096 -0.68866,-1.62799 -1.20453,-2.20001c-0.65582,-0.7272 -1.50647,-1.18073 -2.18079,-1.384c-0.9671,-0.29153 -1.70123,-0.7113 -2.71466,-0.85883c-0.7934,-0.11548 -1.80353,-0.01117 -2.60004,-0.09317c-0.80634,-0.08301 -1.59998,-0.38931 -2.39996,-0.67999l-0.99554,-0.22684l-0.74731,-0.05267l-1.0105,-0.00449" id="svg_15" stroke-width="2" stroke="#000" fill="none"/>
  <path t="37606,37616,37616,37616,37616,37616,37616,37616,37616,37616,37639,37639,37639,37639,37639,37639,37639,37639,37639,37658,37659,37659,37659,37676,37676,37692,37692,37709,37758,37782,37802,37822" d="m470,242c4.16666,0.83333 5.30557,1.10565 6.59601,1.42c1.40494,0.34222 2.88531,0.70667 4.40399,1.08c1.51868,0.37334 2.99884,0.73862 4.40399,1.08c2.42853,0.59004 3.38712,0.81433 4.17468,0.99466c0.63486,0.14536 1.13748,0.25536 1.52548,0.34201c0.2933,0.06551 0.51285,0.10971 0.6705,0.16199c0.22961,0.07614 0.32675,0.1407 0.42667,0.20534c0.2121,0.13721 0.95667,0.61295 1.79868,0.69518c0.97409,0.09514 1.77628,0.14487 2.60001,0.59549c0.78055,0.427 1.69998,0.42534 2.59866,0.42534l0.85849,0" id="svg_16" stroke-width="2" stroke="#000" fill="none"/>
  <path t="39236,39309,39319,39319,39334,39358,39358,39375,39375,39375,39375,39391,39391,39391,39406,39406,39406,39406,39423,39423,39423,39423,39423,39439,39439,39439,39439,39456,39456,39456,39456,39473,39473,39473,39474,39489,39489,39489,39489,39506,39506,39506,39506,39506,39523,39523,39523,39523,39523,39523,39540,39540,39540,39556,39556,39556,39556,39573,39573,39573,39573,39589,39589,39589,39606,39606,39606,39623,39623,39679,39687,39695,39706,39706,39723,39739,39739,39739,39739,39756,39756,39756,39756,39773,39773,39773,39773,39789,39789,39789,39789,39806,39806,39806,39823,39823,39823,39839,39839,39856,39895,39911" d="m506,284c0.87866,1.2215 1.19101,2.12589 1.7045,2.70001c0.56354,0.63007 1.2955,1.29999 1.83716,1.84164c0.79169,0.79169 1.23474,1.2196 1.95834,1.97919c0.50055,0.52545 1.18628,1.29846 1.69019,2.022c0.44202,0.63464 0.96429,1.46729 1.4715,2.06616c0.57141,0.67468 1.03394,1.15417 1.75983,2.03366c0.54242,0.65714 1.09143,1.36401 1.68298,2.052c0.29297,0.3407 1.18616,1.27289 1.79102,1.7955c0.85577,0.73944 1.45056,1.16132 2.18317,1.93134c0.4906,0.51566 0.90961,1.10855 1.60535,1.97983c0.72522,0.90826 1.26355,1.49896 1.81598,2.07782c0.54242,0.56842 1.33331,1.35419 1.81598,1.83685c0.68402,0.68399 1.13873,1.13461 1.85071,1.85065c0.79272,0.79724 1.35852,1.39191 1.64398,1.716c0.59998,0.68121 1.49323,1.85699 1.78802,2.284c0.599,0.86765 0.87823,1.314 1.44415,2.17084c0.27069,0.40988 1.02075,1.51016 1.72113,2.36517c0.41663,0.50861 1.24353,1.45828 1.63605,1.98267c0.40784,0.54486 1.00055,1.41879 1.59998,2.31467c0.40039,0.59842 0.78455,1.20041 1.40002,2.04285c0.58545,0.8013 1.20563,1.49124 1.76398,2.14648c0.68182,0.80017 1.0661,1.41406 1.53149,2.1535c0.49115,0.78036 0.93878,1.42599 1.70453,2.04651c0.74359,0.60254 1.75342,0.79205 2.59998,0.444c0.67108,-0.27591 1.4353,-0.79047 2.5,-1c0.55658,-0.10953 1.54321,-0.34839 2.25635,-0.53784c1.07935,-0.28674 1.75531,-0.50995 2.74365,-0.77466c0.64996,-0.17407 1.66473,-0.37399 2.38397,-0.43552c1.11383,-0.09525 1.86334,-0.08307 2.94934,-0.08533c0.68134,-0.0014 1.64587,0 2.26221,0c1.20428,0 2.09381,0 2.94733,0c1.03564,0 1.72113,0 2.55585,0c0.99683,0 1.91595,0 2.88049,0l0.91016,-0.01068l0.58984,-0.51016" id="svg_17" stroke-width="2" stroke="#000" fill="none"/>
  <path t="40483,40504,40504,40504,40504,40504,40504,40504,40504,40504,40511,40511,40511,40525,40525,40525,40539,40539,40539,40556,40556,40556,40556,40556,40573,40573,40573,40573,40573,40589,40589,40589,40606,40606,40623,40639,40639,40656,40656,40673,40727" d="m550,276c9.5,18.33334 10.11035,19.55356 10.63068,20.63068c0.45386,0.93948 0.83777,1.75989 1.16101,2.47348c0.27899,0.61597 0.51111,1.15216 0.711,1.6185c0.47693,1.11255 0.74756,1.70706 1.08667,2.48135c0.41986,0.95868 0.70599,1.75037 1.01062,2.57065c0.39404,1.06094 0.69653,1.78094 1.03601,2.48666c0.51855,1.07794 0.84937,1.70935 1.20001,2.41068c0.37469,0.74933 0.76556,1.53055 1.164,2.328c0.39893,0.79855 0.79456,1.58682 1.164,2.36401c0.35571,0.74826 0.82587,1.80969 1.07434,2.46982c0.33044,0.87787 0.66089,1.82397 0.75098,2.74484c0.08105,0.82831 0.23901,1.73981 0.51068,2.42133c0.38849,0.97455 0.49866,1.79868 0.55719,2.70001l0.44281,0.75833" id="svg_18" stroke-width="2" stroke="#000" fill="none"/>
  <path t="42246,42266,42266,42266,42284,42291,42291,42291,42291,42307,42323,42323,42323,42340,42340,42356,42356,42356,42374,42374,42374,42374,42389,42389,42389,42406,42406,42423,42423,42423,42423,42439,42439,42439,42456,42456,42456,42473,42473,42489,42489,42489,42507,42507,42523,42523,42539,42539,42539,42556,42556,42573,42573,42574,42589,42590,42590,42606,42607,42607,42623,42623,42624,42639,42639,42657,42657,42657,42673,42673,42674,42690,42690,42707,42707,42723,42723,42739,42740,42756,42773,42789,42807,42835,42867" d="m457,240c5.71384,-2.85683 6.62814,-3.35721 7.32483,-3.63383c1.03839,-0.41231 2.0145,-0.6889 2.68051,-1.0715c0.49927,-0.2868 1.18958,-0.81708 2.33331,-1.23332c0.80704,-0.2937 1.68402,-0.57841 2.26266,-0.86267c1.00189,-0.49219 1.59534,-0.80544 2.59903,-1.29868c0.61893,-0.30417 1.30481,-0.62694 2.44232,-1c0.65771,-0.2157 1.70959,-0.49025 2.38934,-0.7c0.9292,-0.28673 1.70187,-0.5874 2.56531,-1c0.80972,-0.38695 1.62283,-0.82639 2.56934,-1.03333c0.78088,-0.17073 1.65305,-0.1868 2.23468,-0.336c1.22238,-0.31358 1.77512,-0.70699 2.64151,-1.12534c1.02139,-0.49319 1.7291,-0.60384 2.55582,-0.78801c1.01343,-0.22578 1.80222,-0.62003 2.60135,-1.01733c0.80087,-0.39819 1.39343,-0.71338 2.39548,-1.1955c0.74261,-0.35732 1.66144,-0.62733 2.37384,-0.7885c1.04926,-0.23737 1.81985,-0.5163 2.34799,-0.71733c1.23495,-0.47008 1.85068,-0.84187 2.88284,-1.07733c0.80881,-0.18451 1.49353,-0.16747 2.48517,-0.40668c0.84387,-0.20357 1.71509,-0.51874 2.6145,-0.8145c0.88861,-0.29221 1.45248,-0.51578 2.53351,-0.73349c0.92276,-0.18584 1.77682,-0.20932 2.56668,-0.45067c0.81403,-0.24872 1.79895,-0.60332 2.62079,-0.716c0.66364,-0.09099 1.66321,-0.284 2.47919,-0.5c0.81598,-0.216 1.82245,-0.36053 2.65332,-0.52533c0.979,-0.19417 1.63818,-0.69901 2.61469,-0.89067c0.72302,-0.14191 1.91815,-0.20552 2.56,-0.50934c0.90381,-0.42781 1.77185,-0.57483 2.55066,-0.79599l0.47852,-0.72151l0.84149,-0.05849l0.74866,-0.35133" id="svg_19" stroke-width="2" stroke="#000" fill="none"/>
  <path t="43706,43706,43706,43706,43706,43706,43706,43734,43734,43734,43734,43742,43742,43742,43755,43773,43773,43788,43805,43805,43806,43822,43822,43838,43878,43906,43923,43939,43956,43972,43972,43989,44006,44022,44023,44038,44039,44039,44055,44073,44073,44089,44089,44106,44106,44122,44147,44156,44206,44238,44275,44298,44314,44334,44335,44350,44358,44373,44389,44406,44406,44423,44439,44456,44456,44473,44473,44489,44489,44489,44506,44506,44506,44523,44523,44523,44523,44539,44539,44539,44539,44539,44556,44556,44556,44556,44572,44572,44572,44572,44589,44589,44589,44589,44606,44606,44606,44606,44622,44622,44622,44622,44639,44639,44639,44639,44656,44656,44656,44656,44672,44673,44673,44673,44689,44689,44689,44689,44706,44706,44706,44706,44722,44722,44722,44739,44739,44739,44756" d="m561,205c2.42816,-0.8855 2.90747,-1.13336 3.96265,-1.71201c0.55933,-0.30673 1.12103,-0.6232 2.21869,-1.23734c0.98511,-0.55115 1.79602,-0.98877 2.43866,-1.35333c0.76239,-0.4325 1.5816,-1.01642 2.16931,-1.51199c0.72754,-0.61343 1.63995,-0.99632 2.41071,-1.47067c0.67395,-0.41476 1.17572,-1.19043 2.1333,-1.71466c0.64551,-0.35341 1.44464,-0.53987 2.33337,-1c0.82172,-0.42546 1.62463,-0.78624 2.28064,-1.35266c0.59235,-0.51147 1.35266,-0.64734 2.25269,-0.64734c0.89996,0 1.80042,-0.02536 2.59998,0c0.90137,0.02859 1.68127,0.59836 2.52148,0.87883c0.86102,0.28743 1.70422,0.41728 2.46783,0.97183c0.57416,0.41698 1.50488,0.92909 2.31085,1.37083c0.71509,0.39192 1.3902,0.96773 2.07452,1.37851c0.81158,0.48717 1.52032,1.04388 2.32532,1.39999c0.7995,0.3537 1.7298,0.67094 2.37866,1.22133c0.66119,0.56084 0.95087,1.2307 1.13202,2.17867c0.15869,0.83038 0.75177,1.6263 1.04199,2.3c0.36261,0.84178 0.9187,1.59865 0.94733,2.5c0.02856,0.89955 0,1.8 0,2.60001c0,0.89999 0,1.836 0,2.68533c0,0.72533 0.09204,1.72484 -0.04169,2.51466c-0.17389,1.02704 -0.82593,1.79494 -1.31012,2.39999c-0.63513,0.79361 -1.02161,1.41141 -1.40088,2.05717c-0.56708,0.96561 -0.90094,1.50987 -1.49396,2.3895c-0.43414,0.64398 -1.17401,1.67517 -1.43738,2.03734c-0.53992,0.74237 -1.09283,1.48907 -1.63196,2.23199c-0.51947,0.71581 -1.00177,1.39653 -1.448,2.048c-0.63599,0.92848 -1.23883,1.83414 -1.6347,2.436c-0.39343,0.59816 -0.80676,1.1778 -1.43463,2.39999c-0.3031,0.58998 -0.65356,1.50571 -0.91937,2.10001c-0.54224,1.21222 -0.89728,1.8044 -1.26813,2.39999c-0.3764,0.60457 -1.1792,1.80002 -1.57916,2.39999c-0.40002,0.60002 -0.80005,1.20001 -1.40002,2.10001c-0.59998,0.89999 -1,1.49998 -1.40002,2.10001c-0.59998,0.89998 -1.19995,1.79999 -1.59998,2.39999c-0.40002,0.60001 -0.99731,1.50182 -1.40002,2.09866c-0.59595,0.88322 -0.97229,1.46617 -1.80017,2.48c-0.39148,0.47943 -1.03369,1.14877 -1.48517,1.60535c-0.73248,0.74077 -1.26727,1.26866 -2.08929,2.09067c-0.54132,0.54132 -1.30841,1.29918 -1.76367,1.76817c-0.62152,0.64023 -1.29498,1.45715 -1.815,2.24649l-0.35999,0.72534l-0.26135,0.84933" id="svg_20" stroke-width="2" stroke="#000" fill="none"/>
 </g>
 <g display="none">
  <title>muse_image</title>
  <image xlink:href="http://farm4.static.flickr.com/3073/2455044316_7a60dc6bfc.jpg" id="muse" height="408" width="640" y="36" x="0"/>
 </g>
 <g display="none">
  <title>bbox</title>
  <rect stroke="#f00" fill="none" stroke-width="3" height="285.2163" width="472.32" y="105.06583" x="130.56" id="bbox"/>
 </g>
</svg>
