<svg width="640" height="480" xmlns="http://www.w3.org/2000/svg" xmlns:svg="http://www.w3.org/2000/svg" xmlns:xlink="http://www.w3.org/1999/xlink">
 <!-- Sketchy ANNOTATION
  ImageNet ID: n02691156_47926
  URL: http://static.flickr.com/1233/528361063_bedebe89b7.jpg
  Image Width: 500
  Image Height: 375
  BBox X: 194
  BBox Y: 177
  BBox Width: 129
  BBox Height: 78
  Exposure: 2000ms
  Synset Label: airplane
  Synset ID: n02691156
  Worker Tag: an airplane
  Sanity Check: 
   Saved
  Comment: 
   {}
  Worker ID: AI16JQPI42EKR
  Assignment ID: 3JRJSWSMQHL0K38FJQKXCLCY90J3EV
  HIT ID: 30Z7M1Q8UYKH83ZFP085IZZWYVA8AO
  Work Time: 120s
  Worker Score: 0.7857
 END ANNOTATION -->
 <g display="inline">
  <title>Layer 1</title>
  <path t="0,129,145,162,168,168,184,184,200,200,200,217,217,234,234,250,267,284,300,300,317,334,350,350,350,350,367,367,367,384,384,384,400,400,400,417,417,417,434,434,434,450,450,450,467,467,484,484,500,500,517,517,559,560,575,599,600,616,625,634,634,650,667,667,684,684,700,700,717,717,734,734,750,750,767,767,784,784,800,800,823,834,834,855,879,880,887,888,900,917,934,934,950,950,950,967,967,967,984,984,984,984,1000,1000,1000,1000,1000,1000,1017,1017,1017,1034,1034,1034,1050,1050,1067,1067,1084,1084,1100,1100,1100,1117,1117,1134,1150,1150,1167,1167,1184,1184,1184,1200,1200,1200,1200,1200,1200,1217,1217,1217,1234,1234,1234,1250,1250,1250,1250,1267,1267,1267,1267,1284,1284,1284,1284,1300,1300,1300,1317,1317,1317,1317,1334,1334,1334,1350,1350,1350,1367,1367,1367,1384,1384,1384,1400,1400,1417,1417,1417,1434,1450,1467,1467,1484,1484,1500,1517,1517,1517,1534,1534,1534,1551,1551,1567,1584,1584,1600,1632,1632,1671,1672,1703,1727,1751,1752,1775,1783,1800,1817,1817,1834,1834,1834,1850,1850,1867,1867,1867,1884,1884,1884,1884,1900,1900,1900,1900,1917,1917,1917,1917,1934,1934,1934,1934,1950,1950,1950,1967,1967,1967,1984,1984,1984,2000,2000,2000,2000,2017,2034,2034,2110,2161,2169,2184,2201,2201,2217,2218,2218,2234,2234,2234,2250,2250,2250,2267,2284,2284,2300,2317,2317,2334,2334,2334,2350,2350,2350,2367,2384,2384,2385,2400,2400,2417,2417,2417,2434,2434,2434,2450,2450,2450,2450,2467,2467,2484,2484,2484,2500,2500,2517,2517,2534,2534,2534,2550,2550,2550,2567,2567,2567,2567,2584,2584,2600,2600,2600,2617,2617,2634,2634,2634,2650,2650,2667,2667,2667,2684,2684,2700,2717,2717,2734,2750,2750,2767,2767,2784,2784,2800,2800,2800,2817,2817,2817,2834,2834,2850,2850,2850,2850,2867,2867,2884,2884,2884,2884,2900,2900,2900,2900,2917,2917,2934,2934,2951,2951,2967,2967,2968,2968,2984,2984,2984,3000,3000,3000,3000,3017,3017,3034,3034,3034,3050,3050,3067,3067,3084,3084,3100,3100,3100,3117,3117,3134,3134,3134,3150,3150,3151,3167,3167,3167,3167,3184,3184,3184,3184,3200,3200,3200,3201,3217,3217,3217,3234,3234,3234,3234,3250,3250,3250,3267,3267,3267,3267,3284,3284,3284,3284,3300,3300,3300,3317,3317,3317,3334,3334,3334,3350,3350,3350,3367,3367,3384,3384,3384,3400,3400,3400,3401,3417,3417,3417,3417,3434,3434,3450,3450,3450,3467,3487,3487,3511,3511,3639,3639,3664,3687,3727,3735,3735,3760,3783,3799,3800,3815,3831,3839,3839,3855,3855,3871,3887,3887,3900,3917,3917,3934,3934,3950,3950,3950,3951,3967,3967,3984,3984,3984,3985,4000,4000,4000,4001,4001,4017,4017,4017,4018,4034,4034,4034,4050,4050,4050,4051,4067,4067,4068,4068,4084,4084,4100,4100,4100,4117,4117,4134,4134,4150,4150,4167,4167,4184,4184,4200,4200,4217,4217,4234,4234,4234,4250,4250,4267,4267,4295,4295,4296,4303,4424,4496,4504,4554,4568,4585,4585,4585,4600,4600,4600,4617,4617,4618,4634,4635,4635,4650,4650,4667,4684,4700,4824,4839" d="m231,213c0,1.8 0,2.7 0,3.52083c0,0.96451 0,1.68983 0,2.67917c0,0.8 0,1.8 0,2.60001c0,0.8 0,1.8 0,2.59999c0,0.99867 0,1.94284 0,2.84283c0,0.95717 0,1.85718 0,2.75717c0,0.8 -0.12675,1.71597 0.04167,2.54167c0.16862,0.82664 0.68414,1.46173 1.10767,2.27966c0.29723,0.57402 0.70131,1.7742 0.82983,2.65784c0.08174,0.56195 0.28656,1.84389 0.54166,2.52083c0.26068,0.6918 0.69904,1.67851 0.95834,2.52083c0.17836,0.57936 0.40678,1.77824 0.4955,2.6685c0.08499,0.85283 0.21982,1.89824 0.46133,2.58534c0.24182,0.68796 0.68259,1.64015 0.95332,2.45065c0.27254,0.81589 0.47766,1.85478 0.58534,2.528c0.17326,1.08316 0.58978,1.71759 1.12517,2.56801c0.41422,0.65796 0.71188,1.51756 0.92549,2.304c0.23506,0.86542 0.62814,1.71994 0.922,2.61749c0.28003,0.85529 0.82751,1.39468 1.442,2.15717c0.60103,0.74579 0.84811,1.55637 1.25801,2.30002c0.43124,0.78241 0.5873,1.61591 0.92732,2.47464c0.31645,0.79919 0.46291,1.72748 0.7825,2.47803c0.30426,0.71457 0.97255,1.57242 1.44284,2.23132c0.53491,0.74942 0.89674,1.52216 1.3,2.31583c0.3968,0.78094 0.9585,1.59512 1.37917,2.30017c0.46797,0.78433 0.38416,1.73538 0.80617,2.61465c0.30994,0.64575 1.11465,1.28534 1.81467,1.98535c0.5,0.5 1.2,1.19998 1.89999,1.89999c0.5,0.5 1.2027,1.19733 1.8,1.79999c0.59203,0.59735 0.97984,1.45844 1.42168,2.30035c0.33102,0.63074 1.09705,1.44434 1.43549,1.905c0.54901,0.74728 1.32428,1.6832 1.94284,2.18933c0.58325,0.47723 1.41397,1.12622 1.80267,1.57733c0.66351,0.77002 1.09619,1.40704 1.93066,2.39465c0.30359,0.35928 0.96719,1.08182 1.64581,1.8125c0.33401,0.35965 1.00107,1.02396 1.7565,1.97784c0.59418,0.75027 0.9733,1.45993 1.58566,2.24283c0.47784,0.61093 1.04242,1.12704 1.79333,1.91617c0.59409,0.6243 1.07452,1.37439 1.48535,2.05865c0.48743,0.8118 1.03329,1.45334 1.72131,2.14667c0.50208,0.50598 1.19467,1.19467 1.92151,1.92151c0.55585,0.55585 1.25717,1.25717 1.85718,1.85718c0.60001,0.60001 1.20367,1.20532 1.78534,1.78534c0.78418,0.78195 1.19241,1.18326 1.69064,1.63348c0.91391,0.82584 1.67426,1.44998 2.082,1.78201c0.83841,0.68274 1.25732,1.02396 2.09,1.64581c1.07651,0.80399 1.68704,1.17621 2.42001,1.65735c0.83966,0.55118 1.43201,1.05832 2.06799,1.60666c0.92422,0.79688 1.44684,1.19092 1.98935,1.58932c0.82025,0.60239 1.61551,1.19119 2.32199,1.80002c0.45761,0.39435 1.11859,1.02316 2.138,1.79999c0.54135,0.41251 1.12408,0.80185 1.716,1.20001c1.19482,0.80371 1.79492,1.19022 2.36267,1.60001c1.08286,0.78159 1.56125,1.18845 2.21515,1.79999c0.62991,0.58908 1.22086,1.20001 1.82083,1.79999c0.60001,0.60001 1.39081,1.40936 2,1.98935c0.59122,0.56287 1.39679,1.19427 2,1.58533c0.79581,0.5159 1.60001,1.10934 2.20001,1.62534c0.60001,0.51599 1.38583,1.13937 2.20001,1.58932c0.78705,0.43497 1.66226,0.69897 2.22931,1.21066c0.71457,0.64478 1.24402,1.15332 2.22336,1.55719c0.71799,0.29608 1.48022,0.82239 2.04282,1.34283c0.74011,0.68466 1.46518,1.47275 1.96167,1.95267c0.547,0.52878 1.32922,1.20148 2.13217,1.71133c0.54465,0.34583 1.40048,1.03577 2.09467,1.35065c0.88937,0.40344 1.95273,0.4455 2.59515,0.78534c0.8298,0.43896 1.71024,0.61734 2.52084,1.02084c0.86057,0.42834 1.4003,1.1297 2.20001,1.39383c0.85843,0.28351 1.79999,0.08533 2.59998,0.08533c0.90002,0 1.8028,-0.0303 2.61069,-0.42532c0.914,-0.4469 1.62473,-0.50461 2.58932,-0.74133c0.81653,-0.20038 1.58939,-0.60159 2.60449,-0.78067c0.62662,-0.11053 1.81989,-0.26334 2.35266,-0.40985c0.85849,-0.23611 2.04285,-0.64282 2.64285,-0.84283c0.89999,-0.29999 1.50128,-0.49615 2.69998,-0.90015c0.60065,-0.20242 1.50888,-0.51544 2.10001,-0.78519c1.2211,-0.55722 1.80627,-0.94797 2.436,-1.28931c0.64493,-0.34958 1.6799,-0.81882 2.41217,-1.06818c1.08313,-0.36884 1.78879,-0.53714 2.70898,-0.85699c0.78723,-0.27362 1.71732,-0.66116 2.72818,-0.81616c0.54739,-0.08395 1.42709,-0.08777 2.61465,-0.30551c0.60507,-0.11093 1.50143,-0.38474 2.70001,-0.7785c0.59805,-0.19647 1.45187,-0.50153 2.22934,-0.71466c0.94922,-0.26019 1.98459,-0.40317 2.41348,-0.98984c0.55521,-0.75946 1.25958,-1.33188 1.35583,-2.09683c0.11307,-0.89868 -0.72269,-1.48862 -1.40765,-1.95584c-0.80273,-0.54755 -1.39792,-1.07159 -1.991,-1.64734c-0.80942,-0.78577 -1.41177,-1.37552 -1.94284,-1.99548c-0.66464,-0.77591 -0.99387,-1.40643 -1.45584,-2.11469c-0.56854,-0.87161 -1.30133,-1.58533 -1.80133,-2.08533c-0.69998,-0.69998 -1.39999,-1.39999 -1.92084,-1.92084c-0.64581,-0.64581 -1.32529,-1.29675 -1.82648,-1.88367c-0.65936,-0.77213 -0.99146,-1.40054 -1.45135,-2.11017c-0.57071,-0.88058 -1.18674,-1.66132 -1.612,-2.31067c-0.45914,-0.70108 -1.25894,-1.39966 -1.76398,-1.79999c-0.83353,-0.66071 -1.32532,-1.41635 -1.70935,-2.06134c-0.43744,-0.73468 -0.94052,-1.54666 -1.32666,-2.08798c-0.76688,-1.07507 -1.18976,-1.53851 -1.76849,-2.2045c-0.53714,-0.6181 -1.16022,-1.40668 -1.61017,-2.22086c-0.43497,-0.78705 -0.77307,-1.61136 -1.21066,-2.31467c-0.55396,-0.89035 -1.01099,-1.36237 -1.61069,-2.32132c-0.353,-0.56448 -0.90549,-1.36838 -1.41467,-1.96399c-0.51678,-0.60449 -1.30878,-1.59213 -1.67465,-2.24167c-0.40439,-0.7179 -0.81903,-1.60199 -1.15268,-2.25919c-0.34497,-0.6795 -0.8338,-1.66388 -1.32581,-2.43481c-0.47296,-0.74112 -1.13647,-1.57748 -1.52151,-2.28519c-0.31226,-0.57397 -0.79999,-1.57916 -1.10001,-2.17917c-0.5,-1 -0.8989,-1.80054 -1.19998,-2.39999c-0.50272,-1.00092 -0.78375,-1.63791 -1.52133,-2.59982c-0.47195,-0.61551 -1.02487,-1.14413 -1.79333,-1.91483c-0.47397,-0.47537 -1.31152,-1.10208 -1.71869,-1.88535c-0.38669,-0.74384 -0.73508,-1.48849 -1.26648,-2.32132c-0.41821,-0.65546 -0.67691,-1.6955 -1.01001,-2.43134c-0.35666,-0.78787 -0.95956,-1.22986 -1.72351,-2.24734c-0.43839,-0.58386 -0.77893,-1.2262 -1.16666,-2.16666c-0.31906,-0.77393 -0.5437,-1.59836 -1,-2.5c-0.35727,-0.70596 -1.01642,-1.65964 -1.29999,-2.34317c-0.31863,-0.76804 -0.45999,-1.32468 -1.00452,-2.53751c-0.30911,-0.68851 -0.86108,-1.62 -1.1795,-2.138c-0.51425,-0.83658 -0.8942,-1.40308 -1.34933,-2.31467c-0.43985,-0.88098 -0.63879,-1.48187 -0.96533,-2.31467c-0.39291,-1.00201 -0.75531,-1.86835 -1.30133,-2.664c-0.46252,-0.67398 -1.12167,-1.49681 -1.39999,-2.063c-0.54309,-1.10484 -0.70685,-1.64124 -1,-2.47916c-0.30719,-0.87802 -0.60001,-1.77917 -0.89999,-2.67917c-0.20001,-0.60001 -0.60361,-1.79881 -0.79868,-2.39867c-0.28577,-0.8788 -0.55328,-1.70921 -0.71732,-2.716c-0.14175,-0.87 -0.23639,-1.69009 -0.50934,-2.48534c-0.27631,-0.80508 -0.45572,-1.80789 -0.62735,-2.54283c-0.21768,-0.93214 -0.72537,-1.61462 -0.89465,-2.66699c-0.12381,-0.76953 -0.19238,-1.83112 -0.40533,-2.533c-0.26193,-0.86328 -0.52017,-1.65808 -0.64734,-2.45717c-0.15933,-1.00119 -0.43744,-1.81007 -0.7045,-2.45717c-0.39767,-0.96361 -0.70776,-1.78557 -0.99551,-2.7045c-0.31342,-1.0009 -0.49896,-1.72128 -0.69998,-2.453c-0.19897,-0.72429 -0.59305,-2.0545 -0.80002,-2.61867c-0.29025,-0.79112 -0.62305,-1.61343 -0.89981,-2.63049c-0.21359,-0.78502 -0.38766,-1.61369 -0.543,-2.42101c-0.20135,-1.04646 -0.27689,-1.80432 -0.44119,-2.76582c-0.17249,-1.00937 -0.34744,-1.64781 -0.52664,-2.34534c-0.18597,-0.72389 -0.58585,-2.11975 -0.78934,-2.76801c-0.19662,-0.6264 -0.60175,-1.83543 -0.80002,-2.43733c-0.30261,-0.91862 -0.5112,-1.55258 -0.79999,-2.56534c-0.30743,-1.07816 -0.49112,-1.80986 -0.64282,-2.5235c-0.20688,-0.97316 -0.27484,-1.80373 -0.40985,-2.758c-0.1384,-0.97809 -0.39246,-1.783 -0.59467,-2.65634c-0.2063,-0.89104 -0.28183,-1.7928 -0.37799,-2.6595c-0.11893,-1.07204 -0.33984,-1.77466 -0.54935,-2.42532c-0.32346,-1.00461 -0.35001,-1.82617 -0.59198,-2.81067c-0.20633,-0.83939 -0.56378,-1.50557 -0.93335,-2.64284c-0.21521,-0.66223 -0.39871,-1.37834 -0.60001,-2.10899c-0.2981,-1.08202 -0.59213,-2.0891 -0.79999,-2.7065c-0.28912,-0.85875 -0.72055,-1.84752 -0.97916,-2.52084c-0.38739,-1.0087 -0.40598,-1.82944 -0.60486,-2.53549c-0.28998,-1.0295 -0.8443,-1.80167 -0.9053,-2.66c-0.06674,-0.93904 -0.03046,-1.73593 -0.36786,-2.4735c-0.3743,-0.81822 -1.2601,-1.50656 -2.14282,-1.33101c-0.84946,0.16895 -1.63324,0.76723 -2.29999,1.06317c-0.85779,0.38075 -1.66406,0.75984 -2.40002,1.20134c-0.67859,0.40709 -1.24289,1.30977 -2.10449,1.66199c-0.82346,0.33664 -1.78461,0.44946 -2.45282,1.15251c-0.50937,0.53592 -1.30685,0.76079 -2.22116,1.12149c-0.65643,0.25897 -1.56894,0.68681 -2.32602,1.13583c-0.62891,0.373 -1.3609,0.9408 -2.15717,1.40001c-0.96426,0.55609 -1.48056,0.90892 -2.31299,1.3815c-0.53488,0.30367 -1.54779,0.66808 -2.45068,0.91199c-0.94882,0.25633 -1.73871,0.66324 -2.33716,0.97017c-0.65408,0.33546 -1.76547,0.82884 -2.60416,1.09517c-0.86813,0.27568 -1.31989,0.36014 -2.17084,0.63667c-1.17361,0.38139 -2.10181,0.89069 -2.62085,1.24733c-0.73209,0.50302 -1.7197,1.13145 -2.27765,1.364c-0.85806,0.35764 -1.76599,0.6302 -2.66852,0.94051c-0.61771,0.21237 -1.5867,0.56709 -2.61649,1.01666c-0.72696,0.31737 -1.43256,0.66858 -2.112,0.96899c-1.09541,0.48434 -1.87032,0.65359 -2.70033,1.04317c-0.69533,0.32635 -1.38263,0.88026 -2.33334,1.33334c-0.76831,0.36615 -1.6207,0.71384 -2.21866,1.13466c-0.75148,0.52885 -1.52193,0.8932 -2.51334,1.39867c-0.58215,0.2968 -1.43153,0.8042 -2.10133,1.3c-0.81755,0.60516 -1.5229,0.96368 -2.33333,1.5c-0.70891,0.46915 -1.49463,1.01234 -2.17201,1.3c-0.73837,0.31357 -1.84134,0.81671 -2.45299,1.17917c-0.8372,0.49612 -1.52669,0.66269 -2.30968,1.08882c-0.74657,0.40631 -1.4864,0.82021 -2.41316,1.32217c-0.78691,0.42622 -1.54442,0.98375 -1.80817,1.7205c-0.29976,0.83736 -0.01067,1.81067 -0.01067,2.72266c0,0.6765 0,1.45201 0,2.74533c0,0.69601 0,1.60535 0,2.60667c0,0.83549 0,1.41917 0,2.61433c0,0.879 0,1.686 0,2.72966c0,0.76801 0,1.67067 0,2.57068l0,0.89999l-0.01067,0.88933l-0.51016,0.58984" id="svg_1" stroke-width="2" stroke="#000" fill="none"/>
  <path t="5527,5779,5794,5824,5836,5836,5852,5868,5885,5903,5903,5927,5927,5943,5943,5975,6007,6047,6071,6071,6087,6143,6143,6143,6185,6201,6208,6208,6231,6239,6250,6267,6284,6284,6284,6300,6300,6317,6334,6334,6350,6350,6367,6383,6383,6383,6400,6400,6417,6417,6439,6439,6439,6450,6467,6483,6483,6503,6503,6527,6527,6536,6552,6567,6583,6583,6607,6617,6617,6634,6650,6683,6683,6700,6700,6717,6736,6736,6750,6750,6767,6783,6800,6817,6833,6850,6867,6867,6883,6900,6917,6917,6933,6933,6952,6952,6967,6983,7000,7017,7033,7033,7050,7050,7067,7083,7102,7117,7133,7150,7167,7183,7183,7200,7217,7233,7233,7250,7267,7267,7283,7283,7300,7300,7317,7317,7333,7333,7350,7367,7367,7383,7383,7400,7400,7417,7417,7433,7433,7433,7450,7467,7467,7503,7527,7527,7631,7631,7646,7675,7691,7702,7719,7734,7734,7751,7751,7768,7768,7784,7784,7784,7801,7801,7833,7833,7850,7850,7850,7850,7867,7868,7883,7900,7900,7917,7917,7933,7950,7967,7983,8000,8000,8017,8018,8033,8050,8050,8067,8070,8083,8083,8083,8100,8100,8117,8117,8117,8118,8133,8150,8150,8167,8168,8183,8183,8207,8325,8340,8340,8340,8356,8356,8356,8356,8380,8380,8380,8380,8380,8381,8381,8381,8381" d="m234,249c-1,1 -1.61226,1.35674 -2.28534,1.916c-0.66916,0.556 -1.37096,0.88255 -2.31467,1.07333c-0.86229,0.17432 -1.40932,0.71521 -2.27199,0.98534c-0.70505,0.22076 -1.74852,0.33308 -2.47084,0.72983c-0.80328,0.44122 -1.47977,0.95213 -2.35716,1.34818c-0.72279,0.32625 -1.55363,0.73634 -2.40001,1.16867c-0.6553,0.33472 -1.56633,0.69467 -2.29999,1.21466c-0.78708,0.55783 -1.30038,1.20596 -2.10001,1.564c-0.79588,0.35635 -1.28806,1.13324 -1.584,1.79999c-0.38075,0.85779 -0.77864,1.71219 -1.43683,2.20001c-0.69012,0.51151 -1.49707,1.15628 -1.87917,1.836c-0.31499,0.56036 -0.72775,1.60583 -1.20001,2.29199c-0.52394,0.76126 -1.24976,1.32114 -1.42532,2.05734c-0.22356,0.93747 -0.90755,1.3298 -1.67467,1.98166c-0.64709,0.54987 -0.76941,1.36752 -1.10001,2.06635c-0.46257,0.97778 -1.09174,1.64304 -1.68399,2.25198c-0.6983,0.71799 -1.38139,1.49411 -1.75433,2.11017c-0.43896,0.72516 -0.55553,1.75659 -1.11884,2.35635c-0.6096,0.64905 -1.20543,1.25833 -1.74284,2.02682c-0.46846,0.66986 -0.9346,1.38629 -1.5,2.16c-0.53986,0.73877 -1.2648,1.15277 -1.40132,2.06134c-0.12138,0.80783 -0.74915,1.45795 -1.29417,2.09998c-0.6407,0.75473 -0.82355,1.47952 -1.27916,2.30002c-0.43422,0.78195 -0.80629,1.68704 -1.22667,2.28534c-0.52472,0.74677 -0.87119,1.45285 -1.17334,2.48932c-0.27379,0.93918 -0.60785,1.59689 -0.85866,2.45868c-0.24515,0.84232 -0.16667,1.76666 -0.16667,2.66666c0,0.89999 0,1.79999 0,2.70001c0,0.89999 0,1.79999 0,2.59998c0,0.90002 -0.01186,1.85147 0.284,2.68402c0.2509,0.70605 0.58153,1.64481 0.8,2.39999c0.27827,0.96188 0.75122,1.60712 0.89517,2.59515c0.13278,0.91144 0.02075,1.82083 0.02083,2.72086c0.00009,0.90015 0.06134,1.69437 0.42534,2.62534c0.27286,0.69788 0.49608,1.69223 0.92732,2.47464c0.4099,0.74365 0.93115,1.37991 1.56334,1.98401c0.57596,0.55035 1.43269,0.89218 1.91733,1.716c0.38402,0.65277 0.93356,1.14798 1.80267,1.57468c0.82011,0.40262 1.71512,0.34686 2.61133,0.42981c0.92957,0.08603 1.5508,0.49585 2.586,0.82886c0.7758,0.24954 1.64055,0.48105 2.37733,0.74133c0.97568,0.3447 1.76834,0.41489 2.76784,0.42532c0.82011,0.00854 1.6575,0 2.67867,0c0.74733,0 1.7415,0 2.50684,0c0.95334,0 1.80533,0 2.84583,0c0.77551,0 1.8235,0 2.5285,0c0.8,0 1.83633,0 2.783,0c0.67867,0 1.79333,0 2.67867,0c0.75717,0 1.65266,0 2.51601,0c0.96317,0 1.88399,0 2.784,0c0.89999,0 1.8,0 2.7,0c0.75717,0 1.65717,0.00049 2.4045,0c0.99684,-0.00067 1.83868,0.00766 2.76218,-0.16666c0.78938,-0.14902 1.55579,-0.47562 2.69049,-0.71185c0.7495,-0.15604 1.80901,-0.12149 2.42551,-0.12149c1.05066,0 2.01866,0.00992 2.6965,-0.02084c0.96864,-0.04395 1.95146,-0.29184 2.70732,-0.6265c0.82103,-0.36349 1.80482,-0.28256 2.48817,-0.38867c0.96065,-0.14917 1.59265,-0.81583 2.52533,-0.9595c0.88953,-0.13702 1.82086,0.0213 2.60451,-0.35715c0.88889,-0.42926 1.5723,-0.44257 2.52884,-0.814c0.78854,-0.30621 1.02734,-1.40887 1.73734,-1.74933c0.76587,-0.36725 1.84061,-0.34283 2.62933,-0.69467c0.81253,-0.36243 1.59988,-0.78949 2.19998,-1.08936c1.00119,-0.50027 1.61014,-0.82529 2.76666,-1.29999c0.51154,-0.20996 1.30463,-0.50598 2.064,-0.71466c1.08743,-0.2988 1.91638,-0.67059 2.65469,-1.00134c0.89236,-0.39975 1.72296,-0.3522 2.47867,-1.13467c0.50424,-0.52213 1.26642,-0.94797 2.15683,-1.19098c0.8638,-0.23575 1.31467,-0.80914 1.99515,-1.47568c0.7746,-0.7587 1.13333,-1.16714 1.63684,-1.74985c0.33081,-0.38284 1.18085,-1.3992 1.71985,-2.04831c0.61572,-0.74152 1.30154,-1.57059 2.05798,-2.4765c0.81815,-0.97983 1.69867,-2.02267 2.634,-3.12451l0.98734,-1.15283" id="svg_2" stroke-width="2" stroke="#000" fill="none"/>
  <path t="9169,9296,9311,9311,9338,9338,9339,9352,9352,9352,9352,9369,9369,9369,9369,9385,9385,9385,9385,9385,9402,9402,9403,9403,9403,9419,9419,9435,9435,9435,9452,9452,9468,9468,9468,9484,9484,9484,9501,9501,9501,9518,9518,9518,9534,9534,9534,9551,9551,9568,9568,9568,9584,9584,9584,9601,9601,9618,9618,9634,9634,9651,9651,9651,9668,9668,9684,9684,9684,9701,9701,9718,9718,9718,9734,9734,9734,9751,9751,9751,9767,9767,9783,9783,9800,9817,9817,9833,9833,9833,9850,9867,9867,9883,9883,9900,9900,9917,9918,9933,9933,9933,9950,9950,9967,9967,9967,9984,9984,10000,10001,10017,10017,10033,10033,10050,10051,10083,10083,10100,10100,10117,10133,10150,10167,10167,10183,10200,10217,10233,10255,10287,10287,10311,10351,10392" d="m311,218c0.19601,-0.036 1.08313,-0.35844 1.80984,-0.64734c0.92862,-0.36917 1.75754,-0.34502 2.35632,-0.46249c1.36926,-0.26865 2.09143,-0.58423 2.81299,-0.93184c0.72098,-0.34734 1.69196,-0.95207 2.25418,-1.35699c0.79388,-0.57175 1.30066,-1.00302 2.26666,-1.43466c0.73575,-0.32875 1.59705,-0.5423 2.496,-0.79201c0.46021,-0.12782 1.845,-0.52089 2.71466,-0.85866c0.8291,-0.32202 1.22244,-0.4845 2.23199,-1.03201c0.80713,-0.43773 1.505,-1.01871 2.39069,-1.48399c0.65149,-0.34225 1.45584,-0.51971 2.52383,-1.10001c0.64978,-0.35306 1.46838,-0.99348 2.16367,-1.42082c0.58395,-0.35892 1.37177,-0.97385 2,-1.47917c0.65555,-0.5273 1.65729,-1.12781 2.2045,-1.364c0.81375,-0.35124 1.8548,-0.73267 2.54932,-1.036c0.67944,-0.29674 1.65405,-0.68153 2.44,-1.01067c0.78348,-0.32811 1.63333,-0.91933 2.2645,-1.56851c0.67776,-0.6971 1.38327,-0.91673 2.20752,-1.18883c1.01968,-0.33662 1.54352,-0.66957 2.3035,-1.18384c0.88599,-0.59953 1.45822,-1.17137 2.33115,-1.74817c0.65726,-0.4343 1.49326,-0.92688 2.19952,-1.39999c0.7926,-0.53096 1.48874,-0.78966 2.22849,-1.10001c0.92282,-0.38716 1.70801,-0.93147 2.41733,-1.39999c0.65063,-0.42975 1.43454,-0.80026 2.43335,-1.3c0.59991,-0.30016 1.59604,-0.80852 2.21066,-1.09999c0.86902,-0.41212 1.61548,-0.68799 2.41467,-1.01067c0.82718,-0.33397 1.85843,-0.90315 2.3175,-1.2375c0.86276,-0.62834 1.65271,-1.12456 2.43631,-1.33101c0.99432,-0.26198 1.57617,-0.67459 2.43152,-0.9955c0.88354,-0.33148 1.6109,-0.54463 2.58932,-1.02533c0.78995,-0.38809 1.49072,-0.82126 2.37466,-0.964c0.93521,-0.15103 1.79999,-0.036 2.74268,-0.036c0.6925,0 1.6525,0.03441 2.38266,-0.02083c1.17239,-0.08868 1.80975,-0.51756 2.83334,-0.8125c0.65494,-0.18872 1.68582,-0.12317 2.52399,-0.388c0.82809,-0.26166 1.68271,-0.68547 2.40399,-0.74268c0.78864,-0.06255 1.81717,-0.036 2.71783,-0.036c1.02084,0 1.81046,0.02371 2.85419,0c0.7926,-0.01801 1.64337,-0.30196 2.34131,-0.57466c0.93222,-0.36424 1.71072,-0.38374 2.66135,-0.436c0.76779,-0.04221 1.74899,-0.37018 2.50684,-0.63667c1.00861,-0.35468 1.85718,-0.35266 2.75717,-0.35266c0.89999,0 1.70016,0.01799 2.60001,0c0.90054,-0.01801 1.61032,-0.61813 2.5,-0.91467c0.85764,-0.28587 1.79999,-0.08533 2.59998,-0.08533l0.90002,0l0.89999,0l0.92084,-0.02083" id="svg_3" stroke-width="2" stroke="#000" fill="none"/>
  <path t="11624,11737,11737,11744,11745,11769,11769,11783,11783,11783,11783,11783,11800,11800,11800,11817,11817,11817,11833,11833,11850,11850,11887,11887,11895,11903,11917,11917,11992,12032,12032,12039,12050,12067,12083,12083,12100,12100,12100,12117,12117,12133,12133,12133,12150,12150,12150,12167,12167,12183,12183,12183,12183,12183,12200,12200,12200,12200,12217,12217,12217,12217,12233,12233,12233,12250,12250,12250,12250,12267,12267,12283,12283,12283,12300,12300,12300,12300,12317,12317,12317,12333,12333,12350,12519,12519,12535,12562,12562,12582,12582,12582,12582,12596,12596,12596,12597,12597,12611,12611,12611,12625,12625,12625,12625,12639,12639,12639,12639,12639,12653,12653,12668,12668,12683,12683,12700,12700,12719,12884,12899,12933,12933,12950,12950,12965,12965,12965,12974,12975,12975,12983,12983,13000,13000,13000,13017,13017,13017,13034,13034,13050,13050,13050,13051,13067,13067,13067,13083,13083,13100,13100,13100,13117,13117,13117,13133,13133,13150,13150,13150,13151,13167,13167,13167,13183,13183,13183,13183,13183,13200,13200,13200,13217,13217,13217,13233,13233,13233,13250,13250,13250,13267,13267,13283,13283,13300,13300,13317,13317,13333,13350,13367,13367,13383,13447,13479,13503,13511,13511,13519,13535,13551,13567,13583,13600,13600,13617,13617,13633,13633,13650,13650,13667,13667,13683,13700,13719,13719,13733,13733,13750,13767,13783,13783,13783,13800,13800,13817,13817,13833,13833,13850,13850,13867,13867,13883,13883,13900,13900,13917,13917,13917,13933,13933,13950,13950,13967,13967,13983,13983,13983,14000,14000,14017,14017,14039,14039,14063,14063,14079,14079,14087,14111,14111,14127,14127,14127,14135,14135,14151,14167,14167,14183,14200,14200,14217,14217,14233,14250,14250,14279,14279,14287,14311,14319,14333,14350,14350,14369,14369,14383,14384,14384,14384,14400,14400,14417,14417,14417,14433,14433,14450,14450,14450,14467,14467,14467,14483,14483,14483,14483,14500,14500,14517,14517,14517,14533,14533,14550,14550,14567,14567,14583,14583,14600,14600,14617,14633,14633,14633,14650,14650,14667,14667,14683,14683,14703,14703,14703,14716,14716,14716,14733,14733,14750,14750,14766,14766,14783,14783,14800,14800,14801,14816,14816,14833,14833,14850,14850,14866,14866,14867,14883,14883,14900,14900,14916,14916,14933,14950,14966,14966,14983,14983,15000,15000,15016,15016,15017,15039,15039,15063,15063,15071,15083,15100,15116,15133,15133,15150,15151,15166,15183,15200,15200,15201,15201,15216,15233,15233,15250,15266,15295,15577" d="m418,178c2.00534,-0.35266 2.73697,-0.62335 3.66666,-0.83333c0.90253,-0.20384 1.78668,-0.16667 2.56,-0.16667c0.98019,0 1.84119,0 2.79419,0c0.48849,0 1.44452,0.00681 2.69333,-0.00017c0.95251,-0.00531 1.73297,-0.01492 2.707,-0.22116c0.80151,-0.16971 1.55292,-0.49908 2.6095,-0.69334c0.71014,-0.13057 1.63275,-0.0325 2.37384,-0.14249c1.00867,-0.1497 1.72375,-0.64218 2.71014,-0.85751c0.96628,-0.21094 1.9151,0.06734 2.58536,-0.14249c0.88242,-0.27623 1.63083,-1.0508 2.01465,-1.74284c0.45728,-0.82449 0.28534,-1.8 0.28534,-2.61066c0,-0.91101 0,-1.83601 0,-2.75601c0,-0.78149 0,-1.57199 0,-2.69066c0,-0.79333 0,-1.68567 0,-2.41467c0,-0.83699 0,-2.02766 0,-2.90666c0,-0.80701 0.08029,-1.6895 -0.07199,-2.54401c-0.17188,-0.96431 -0.49405,-1.61723 -0.78934,-2.39999c-0.32043,-0.84937 -0.66,-1.71049 -0.97202,-2.54401c-0.28497,-0.76131 -0.64786,-1.79095 -0.86215,-2.42433c-0.40857,-1.20752 -0.58286,-1.81493 -0.94049,-2.673c-0.23257,-0.55797 -0.87225,-1.53596 -1.34317,-2.25682c-0.47809,-0.73181 -0.81326,-1.61612 -0.9595,-2.62984c-0.10034,-0.69559 -0.05792,-1.39912 -0.34668,-2.57867c-0.18216,-0.74411 -0.72467,-1.76582 -1.01465,-2.37965c-0.31085,-0.658 -0.70712,-1.72214 -0.90002,-2.35901c-0.31152,-1.02858 -0.47729,-1.73398 -0.79999,-2.69867c-0.27621,-0.8257 -0.65201,-1.48894 -0.87851,-2.53316c-0.16656,-0.76796 -0.12149,-1.77867 -0.12149,-2.80017c0,-0.8 -0.06613,-1.78733 0.46799,-2.41067c0.49237,-0.57464 1.58524,-1.07986 2.24002,-1.42533c0.72101,-0.38041 1.49561,-0.76614 2.29199,-1.164c0.79694,-0.39813 1.57346,-0.7901 2.328,-1.128c0.69666,-0.31197 1.90399,-0.704 2.672,-0.872c0.76801,-0.168 1.64841,-0.43003 2.31433,-0.71433c0.73355,-0.31316 1.49576,-0.69246 2.68567,-1.28567c0.79672,-0.39719 1.57098,-0.78359 2.29199,-1.164c0.65479,-0.34547 1.61307,-1.0166 2.31201,-1.38934c0.83984,-0.44788 1.63452,-0.31081 2.64334,-0.80383c0.69745,-0.34085 1.38013,-0.99412 2.09998,-1.28566c0.98825,-0.40025 1.86563,-0.50912 2.7525,-0.357c0.85175,0.1461 0.89951,0.97183 0.90018,2.00967c0.00049,0.7755 0,1.8235 0,2.5375c0,0.90533 0,1.87383 0,2.66734c0,0.7755 0,1.98 0,2.75333c0,0.80267 0,1.57366 0,2.43466c0,1.196 0,2.0765 0,2.64017c0,1.27316 0,1.95717 0,3.12384c0,0.7905 0,1.35416 0,2.23466c0,1.196 0,2.05699 0,2.828c0,0.96533 -0.01819,1.73889 0.00449,2.78499c0.01749,0.80743 0.03558,1.39674 0.27951,2.58434c0.1824,0.88808 0.46964,1.70921 0.63199,2.71733c0.10956,0.68037 0.24097,1.85303 0.43668,2.64117c0.14041,0.56543 0.3974,1.43895 0.56467,2.64549c0.08548,0.6165 0.08786,1.28091 0.41602,2.73067c0.09348,0.41292 0.3656,1.26521 0.66666,2.125c0.28857,0.82417 0.69931,1.86606 0.89017,2.62651c0.19104,0.76112 0.38876,1.97005 0.54584,2.60182c0.16782,0.67508 0.54797,1.98596 0.76401,2.54268c0.37268,0.96039 0.82141,1.76059 1.18933,2.57066c0.26935,0.59303 0.55826,1.5976 0.59998,2.39999c0.05191,0.99854 -0.11807,1.82126 0.23203,2.77867c0.30341,0.82976 0.66644,1.68567 0.83133,2.36867c0.22162,0.91803 0.88644,1.74655 0.94733,2.65266c0.05362,0.7982 0.0347,1.71228 0.42532,2.39999c0.4632,0.81543 0.57468,1.70001 0.57468,2.60001c0,0.8 0,1.7 0,2.60001c0,0.89999 0.08173,1.80409 -0.00449,2.7045c-0.08359,0.87329 -0.46658,1.72617 -0.99551,2.52882c-0.45856,0.69583 -1.05081,1.30612 -1.47916,2.16667c-0.4035,0.81061 -0.4866,1.62599 -0.52219,2.48267c-0.0336,0.80873 -0.71451,1.53073 -1.05133,2.27901c-0.38651,0.85861 -0.62372,1.60451 -1.146,2.353c-0.4903,0.70265 -0.76691,1.64114 -1.24799,2.29599c-0.6181,0.84137 -1.24915,1.20084 -1.84351,1.93668c-0.59045,0.731 -0.73328,1.56108 -1.14584,2.478c-0.32059,0.71254 -0.89584,1.39821 -1.36398,2.05867c-0.64551,0.91072 -0.9516,1.66789 -1.50452,2.36333c-0.53635,0.67458 -1.17947,1.23668 -1.87015,1.92734c-0.65869,0.65868 -1.24545,1.15807 -1.82535,1.992c-0.44516,0.64018 -0.7934,1.438 -1.20001,2.23199c-0.39365,0.76863 -0.87268,1.60359 -1.5,2.29683c-0.57578,0.63628 -1.13058,1.26054 -1.5,2.07251c-0.32761,0.72006 -0.50085,1.52313 -1.10449,2.42216c-0.50385,0.75038 -1.17947,1.29384 -1.87015,1.9845c-0.65869,0.65868 -1.31531,1.2939 -1.92535,1.92551c-0.50916,0.52713 -1.03671,1.42557 -1.5,2.0385c-0.62125,0.82191 -1.44846,1.16283 -1.89999,1.903c-0.56293,0.92278 -0.76889,1.57132 -1.20001,2.30116c-0.46713,0.79085 -1.18839,1.21152 -2,1.767c-0.70023,0.47925 -0.88562,1.3313 -1.59998,2.12849c-0.6131,0.6842 -1.47314,0.80637 -2,1.47151c-0.58972,0.74451 -0.98529,1.54686 -1.70001,2.29016c-0.49011,0.5097 -1.1955,1.20456 -1.79999,1.8c-0.69485,0.68445 -1.41681,1.00717 -2.29984,1.20016c-0.84586,0.18488 -1.18637,1.07582 -1.92102,1.479c-0.91013,0.49948 -1.68906,0.54759 -2.47916,0.85416c-0.87354,0.33893 -1.50748,0.67337 -2.142,1.01851c-1.10727,0.60229 -1.79233,1.1617 -2.52466,1.64816c-0.64951,0.43144 -1.42999,0.80949 -2.43784,1.3c-0.62863,0.30595 -1.56,0.70576 -2.34818,1c-0.81976,0.30602 -1.88351,0.6933 -2.59467,1c-0.68079,0.29361 -1.61716,0.70576 -2.40533,1c-0.81976,0.30602 -1.37323,0.47617 -2.362,0.89999c-0.884,0.37892 -1.68533,0.8 -2.48532,1.2c-0.80002,0.40001 -1.57898,0.84872 -2.40002,1.164c-0.97852,0.37575 -1.81635,0.30276 -2.63333,0.60268c-0.85233,0.3129 -1.46609,0.97523 -2.16666,1.31248c-0.9523,0.45844 -1.81723,0.57553 -2.52084,1.04169c-0.82379,0.54578 -1.49783,0.9834 -2.08047,1.27914c-0.99051,0.50278 -1.72305,0.90485 -2.65051,1.14734c-0.70663,0.18475 -1.76318,0.39447 -2.53351,0.66333c-1.05554,0.36841 -1.76126,0.68134 -2.40399,0.98935c-1.01678,0.48727 -1.58765,0.85291 -2.41068,1.11465c-0.97424,0.30981 -1.7951,0.21289 -2.64734,0.64252c-0.69318,0.34943 -1.58566,1.04855 -2.15717,1.34283c-0.99042,0.50998 -1.59549,0.79999 -2.59549,1.29999c-0.79999,0.39999 -1.40323,0.69363 -2.39868,1.20001c-0.5824,0.29626 -1.53021,0.97849 -2.22665,1.36398c-0.81299,0.45001 -1.60449,0.38177 -2.57468,0.6575c-0.82162,0.23352 -1.40027,0.57928 -2.39999,1.07849c-0.60016,0.29968 -1.58881,0.82336 -2.37915,1.17917c-0.8432,0.37961 -1.72855,0.5513 -2.42084,0.94617c-0.81522,0.46497 -1.69119,0.80862 -2.35718,1.27917c-0.71872,0.50778 -1.43182,0.93826 -2.44284,1.17416c-0.78796,0.18387 -1.81384,0.24991 -2.59998,0.55734c-0.61218,0.23941 -1.61292,0.73792 -2.36401,1.164c-0.83121,0.4715 -1.35992,1.14105 -2.23599,1.36398c-0.87289,0.22211 -1.9223,-0.15231 -2.55185,0.39319c-0.67282,0.58301 -1.02673,1.24429 -2.02664,1.52133c-0.79886,0.22131 -1.7579,0.11774 -2.44284,0.56815c-0.97086,0.63843 -1.33609,1.05197 -2.07867,1.5325c-0.72205,0.46725 -1.73853,0.79102 -2.60001,1.24219c-0.65186,0.3414 -1.5,0.80399 -2.28934,1.21466l-0.52664,0.76266l-0.36935,0.716" id="svg_4" stroke-width="2" stroke="#000" fill="none"/>
  <path t="21663,21767,21783,21783,21783,21783,21783,21807,21831,21831,21855,21855,21871,21883,21900" d="m279,299c1.52084,1.52084 2.16666,2.16666 2.82535,2.82535c0.52197,0.52197 1.28931,1.28931 1.76398,1.76398c0.71066,0.71066 1.44327,1.38123 1.91068,1.93152c0.64755,0.76236 1,1.45831 1.59982,2.23633l0.77884,0.46417l0.474,0.72598" id="svg_6" stroke-width="20" stroke="#fff" fill="none"/>
  <path t="25531,25584,25592,25602,25618,25634,25634,25634,25649,25649,25667,25684,25684,25700,25700,25717,25717,25734,25734,25749,25749,25767,25784,25784,25784,25800,25817,25817,25817,25834,25834,25849,25867,25867,25884,25884,25884,25899,25899,25916,25916,25934,25934,25950,25950,25967,25984,25984,26000,26000,26017,26017,26034,26034,26034,26049,26049,26066,26066,26084,26084,26100,26116,26116,26134,26134,26150,26167,26200,26200,26232,26232,26264,26264,26311,26312" d="m235,254c1.7,0.05716 2.52686,0.45529 3.2955,0.94733c0.71724,0.45912 1.13075,1.38824 1.56583,1.87802c0.6326,0.71216 1.37906,1.41992 1.93733,1.97333c0.60934,0.604 1.38042,1.18188 2.01601,1.60132c0.86977,0.57394 1.13036,1.26218 1.5425,2.25269c0.29836,0.71704 0.86453,1.44687 1.34283,2.09998c0.52299,0.71417 0.98456,1.5816 1.24733,2.49469c0.26138,0.90826 0.44716,1.60162 0.854,2.26865c0.54507,0.89365 1.2412,1.62769 1.588,2.32001c0.37245,0.74353 0.396,1.79993 0.66335,2.44968c0.36029,0.87564 1.24382,1.43396 1.58333,1.93567c0.66956,0.98941 1.23262,1.53958 1.65416,2.17865c0.62527,0.94794 0.60149,1.80557 0.93134,2.57867c0.35803,0.83914 0.96768,1.51172 1.37851,2.19598c0.48727,0.81161 1.1463,1.47849 1.6955,2.12534c0.6409,0.75485 0.76254,1.49387 1.40982,2.35269c0.41245,0.54724 1.0376,1.33231 1.40002,2.15717c0.32452,0.73859 0.7677,1.42792 1.18933,2.18481c0.56796,1.01953 0.75134,1.79443 1.27466,2.48935c0.5567,0.73926 1.33279,1.28922 1.88901,1.99515c0.52844,0.67068 0.76855,1.61713 1.15231,2.15683c0.59781,0.84073 0.91699,1.57678 1.68484,2.25418c0.60132,0.53046 0.97061,1.32941 1.46616,1.867c0.69452,0.75348 1.23834,1.24283 2.07169,2.07617l0.53067,0.53067l0.63599,0.63599l0.60001,0.60001" id="svg_7" stroke-width="20" stroke="#fff" fill="none"/>
  <path t="27251,27364,27364,27364,27380,27380,27402,27402,27417,27417,27417,27417,27417,27434,27434,27434,27580,27580,27595,27595" d="m285,302c-2.00534,0.70984 -2.51242,1.00302 -3.23199,1.51733c-0.97559,0.69727 -1.49405,1.19583 -2.43866,1.43451c-0.63718,0.16101 -1.83377,0.36783 -2.58136,0.61749c-0.82916,0.27692 -1.67325,0.61285 -2.09,0.7825c-1.16156,0.47281 -2.07202,0.92288 -2.82599,1.20151c-1.01477,0.375 -1.81116,0.42581 -2.66534,0.44666l-0.828,0" id="svg_8" stroke-width="20" stroke="#fff" fill="none"/>
  <path t="31736,31848,31848,31881,31890,31890,31890,31900,31917,31933,31933,31959,31959,31999,32015,32047,32095,32119,32135,32135,32143,32159,32167,32167,32183,32200,32200,32223,32223,32247,32247,32263,32287,32320,32345,32359,32359,32375,32407,32440,32440,32456,32457,32487,32503,32503,32519,32543,32559,32567,32615,32615,32632,32648,32671,32687,32711,32727,32784,32784,32983,33097" d="m219,259c0,1.79999 0,2.70001 0,3.54166c0,1.00101 0,1.70901 0,2.453c0,1.19101 0,2.10535 0,3.00534c0,0.75717 0,1.65268 0,2.51599c0,0.96317 0,1.884 0,2.784c0,0.90002 0,1.80002 0,2.70001c0,0.79999 -0.24539,1.43784 -0.83333,2.16666c-0.56354,0.69858 -0.75201,1.42838 -1.16667,2.33334c-0.36665,0.80023 -0.82216,1.37219 -1.3,2.15268c-0.41855,0.68362 -0.98985,1.59946 -1.5,2.146c-0.66615,0.71371 -0.98528,1.65005 -1.636,2.17599c-0.73346,0.5928 -1.55446,0.91458 -2.364,1.02399c-0.89377,0.12079 -1.57843,0.48334 -2.36667,1.00134c-0.80333,0.52792 -1.69234,0.75143 -2.42267,1.02533c-0.85088,0.31909 -1.43277,1.17554 -2.11066,1.61749c-0.73392,0.47849 -1.55891,0.77841 -2.39984,1.23584c-0.74751,0.40662 -1.08881,1.24933 -1.60466,1.82135c-0.65579,0.7272 -1.52928,0.97983 -2.2115,1.58398c-0.59454,0.52649 -0.87453,1.26053 -1.44116,2.01151c-0.50484,0.66907 -1.44284,0.78851 -2.24284,1.27917l-0.79999,0.38931" id="svg_9" stroke-width="2" stroke="#000" fill="none"/>
  <path t="36520,36613,36613,36629,36629,36659,36659,36659,36674,36674,36674,36674,36684,36684,36684,36684,36700,36700,36717,36717,36717,36733,36733,36750,36767,36767,36783,36800,36800,36817,36817,36833,36833,36850,36850,36867,36867,36883,36900,36900,36917,36917,36933,36933,36950,36967,36983,37000,37000,37017,37017,37017,37056,37072,37072,37104,37144,37326" d="m308,225c0.22134,0.10017 0.73022,0.73367 0.94733,1.65717c0.1727,0.7347 0.33923,1.74641 0.57352,2.40533c0.28195,0.79298 0.59082,1.79886 0.77466,2.60001c0.19632,0.85551 0.37326,1.73303 0.53784,3.00417c0.09814,0.75815 0.08603,1.44675 0.21933,2.31c0.16492,1.06801 0.60934,1.64771 1.04715,2.56599c0.32919,0.69046 0.62579,1.43375 0.81485,2.48801c0.15112,0.84268 0.06134,1.79495 0.08533,2.80266c0.01801,0.75665 0.55334,1.52116 0.83334,2.33334c0.28241,0.8192 0.16666,1.83333 0.16666,2.62267c0,1.04399 -0.02704,1.83647 0.00134,2.69466c0.02859,0.86467 0.43369,1.72295 0.71466,2.40001c0.37421,0.90166 0.46124,1.94415 0.784,2.616c0.39163,0.81522 0.39008,1.72284 0.784,2.61465c0.32687,0.74005 0.70712,1.50339 1.14133,2.28534c0.4556,0.8205 0.76834,1.72363 1.22134,2.23599c0.63693,0.7204 1.38916,1.31946 1.784,1.88c0.64874,0.92099 0.79083,1.80518 1.17999,2.62268l0.58801,0.69199l0.71732,0.45334l0.47867,0.59735" id="svg_10" stroke-width="2" stroke="#000" fill="none"/>
  <path t="38651,38716,38716,38732,38749,38758,38768,38768,38783,38783,38800,38800,38817,38817,38817,38817,38833,38833,38833,38850,38850,38850,38867,38883,38899,38900,38917,38917,38933,38933,38950,38982,38982,38982,38999,38999,39016,39016,39016,39032,39032,39049,39066,39066,39082,39082,39099,39099,39099,39116,39116,39133,39133,39149,39166,39166,39166,39183,39183,39199,39216,39216,39216,39232,39249,39249,39266,39282,39282,39299,39299,39316,39586,39602" d="m307,220c-1,1 -1.01801,1.80019 -1,2.7c0.01801,0.90054 0.56525,1.62973 0.91599,2.50267c0.29309,0.72949 0.32718,1.57935 0.60486,2.2765c0.41727,1.04765 1.1727,1.57986 1.57916,2.40666c0.39664,0.80679 0.49896,1.52112 0.69998,2.23416c0.29849,1.05876 0.59015,2.03671 0.80002,2.63333c0.38217,1.08644 0.58685,1.85316 1.10001,2.52785c0.57669,0.75821 1.2677,1.26083 1.30133,2.20416c0.02588,0.72569 0.16467,1.73813 0.5195,2.49384c0.41626,0.88652 1.0723,1.44505 1.42648,2.32533c0.33209,0.82532 0.4819,1.53476 0.854,2.29683c0.48978,1.00305 0.80566,1.5952 1.29849,2.59866c0.2937,0.59798 0.65582,1.39131 0.8475,2.39551c0.17422,0.91278 0.59155,1.70967 0.93134,2.50467c0.31894,0.74626 0.56375,1.74373 0.82584,2.3615c0.40527,0.95532 0.70789,1.74582 0.93832,2.5285c0.30383,1.03195 0.3735,1.77087 0.70984,2.66251c0.26633,0.70599 0.55203,1.74304 0.86884,2.66882c0.24631,0.71973 0.59293,1.27341 1.07401,2.27399c0.35712,0.74271 0.53503,1.71216 1.03784,2.57117c0.4231,0.72284 1.06235,1.12115 1.55682,2.07617c0.42252,0.81604 0.79791,1.44174 1.13516,2.39316c0.29636,0.83603 0.5452,1.56451 1.07449,2.3425c0.50592,0.74362 0.90018,1.52151 1.24835,2.31702l0.11017,0.68365" id="svg_11" stroke-width="20" stroke="#fff" fill="none"/>
  <path t="40373,40525,40540,40540,40568,40568,40582,40583,40599,40599,40599,40631" d="m329,272c-0.61066,1.60001 -1.3385,2.27347 -1.79999,2.88535c-0.55298,0.73318 -0.89328,1.52786 -1.68402,2.23065c-0.48077,0.42728 -1.34933,1.05066 -1.88,1.69867l-0.43466,0.616l-0.84415,0.61749" id="svg_12" stroke-width="20" stroke="#fff" fill="none"/>
  <path t="43567,43741,43756,43790,43801,43801,43815,43832,43832,43850,43880,43880,43904,43944,44031,44031,44046,44096,44166,44200,44216,44240,44263,44263,44279,44303,44327,44343,44343,44665,44681,44704,44715,44725,44751,44791,44791,44815,44831,44839,44871,44903,44943,44984,45016,45016,45056,45088,45128" d="m353,244c0.05716,1.7 0.4856,2.5083 0.95184,3.3c0.47626,0.80875 1.31955,0.96913 1.8775,1.89999c0.42053,0.70161 0.23148,1.61591 0.78131,2.436c0.46887,0.69934 0.76306,1.46483 1.58801,2.19467c0.63608,0.56274 0.90872,1.39793 1.50583,1.81216c0.78894,0.54732 1.7955,0.35716 2.6955,0.35716c0.89999,0 1.80002,0 2.70001,0c0.89999,0 1.73441,0.19595 2.60001,-0.05716c0.87762,-0.25664 1.64703,-0.77924 2.39999,-1.16417c0.76318,-0.39017 1.74142,-0.76613 1.89865,-1.58c0.17078,-0.88405 -0.6167,-1.50902 -0.91333,-2.39867c-0.28595,-0.85765 -0.32745,-1.75377 -0.73267,-2.5c-0.4133,-0.76112 -0.10977,-1.73483 -0.35715,-2.5955c-0.2207,-0.7679 -0.9957,-1.31706 -1.70001,-1.75717c-0.67346,-0.42084 -1.39551,-1.04716 -1.99551,-1.59016l-0.89999,-0.3465l-0.89999,-0.01067l-0.91068,0" id="svg_13" stroke-width="2" stroke="#000" fill="none"/>
  <path t="46004,46160,46176,46204,46216,46239,46263,46271,46295,46295,46311,46351,46367,46415" d="m360,242c0,1.8 -0.14597,2.72275 0.436,3.38933c0.60956,0.6982 1.37552,1.09984 2,1.58534c0.74597,0.57993 1.49243,1.11281 2.164,1.58932c0.72568,0.51489 1.39999,0.936 2.01065,1.42534l0.88934,0.01067" id="svg_14" stroke-width="2" stroke="#000" fill="none"/>
  <path t="46914,47061,47061,47076,47076,47106,47117,47117,47133,47150,47165,47183,47200,47200,47215,47216,47239,47255,47271,47287,47303,47303,47327,47343,47351,47391,47407,47407,47415,47432,47463,47479,47479,47488,47612,47697,47713,47729,47751,47766,47783,47800,47816,47833,47833,47850,47850,47866,47866,47866,47883,47904,47904,47904,47974,47974,48103,48103,48136,48136,48160,48208,48208,48248" d="m371,241c1,-1 1.75824,-1.03954 2.65268,-0.9955c0.86603,0.04263 1.71188,0.43089 2.44733,1.09534c0.60046,0.5425 1.39981,0.88974 2.29999,0.90016c0.89993,0.01041 1.8494,-0.14589 2.70016,0.22133c0.71893,0.31032 1.55109,0.74628 2.24716,0.77417c1.0159,0.0407 1.95267,0.0045 2.85269,0.0045c0.89999,0 1.79999,0 2.59998,0c0.90002,0 1.7168,-0.16196 2.28403,-0.716c0.67374,-0.65808 1.15811,-1.23776 1.56332,-1.98399c0.4133,-0.76112 0.25864,-1.7471 0.70532,-2.60001c0.39395,-0.75223 0.64667,-1.5 0.64734,-2.39999c0.00067,-0.90001 0.06708,-2.06174 -0.61066,-2.28934c-0.93793,-0.31497 -1.88934,-0.01067 -2.78934,-0.01067c-0.89999,0 -1.80862,-0.12404 -2.69983,0.00017c-0.80225,0.1118 -1.11087,0.882 -1.96716,1.29533c-0.69965,0.33771 -1.76569,0.54224 -2.68634,0.67917c-0.75949,0.11296 -1.59937,0.49353 -2.41333,1.02533c-0.65277,0.4265 -1.43802,0.79338 -2.23203,1.2c-0.76862,0.39362 -2.40012,0.63655 -2.22931,1.51466c0.14932,0.76767 1.51334,0.28534 2.45334,0.28534l1.008,0l0.75598,0l0.91068,0" id="svg_15" stroke-width="2" stroke="#000" fill="none"/>
  <path t="48929,49016,49032,49032,49055,49055,49066,49082,49083,49098,49116,49116,49133,49149,49149,49168,49183,49199,49216,49233,49233,49233,49249,49249,49249,49266,49266,49266,49283,49283,49283,49299,49299,49299,49316,49316,49333,49333,49349,49349,49366,49366,49383,49383,49399,49399,49416,49416,49433,49433,49433,49433,49449,49449,49449,49466,49466,49498,49499,49499,49515,49516,49516,49516,49532,49533,49533,49548,49548,49565,49565,49566,49583,49583,49599,49599,49615,49616,49616,49632,49632,49632,49632,49648,49648,49648,49648,49648,49665,49665,49665,49682,49682,49682,49682,49682,49698,49698,49698,49698,49698,49715,49715,49715,49732,49732,49748,49748,49765,49765,49782,49782,49798,49798,49815,49815,49832,49832,49848,49849,49865,49882,49882,49882,49898,49915,49915,49915,49932,49948,49948,49965,49965,49982,49982,49998,49998,50015,50032,50055,50055,50116,50132,50169,50199,50232,50232,50353,50353" d="m311,218c0.87866,1.22133 1.48917,1.81151 1.97467,2.436c0.57993,0.74597 0.82632,1.36433 1.52533,2.064c0.69968,0.70033 1.20001,1.2 1.89999,1.89999c0.70001,0.70001 1.20001,1.20001 1.89999,1.90001c0.70001,0.70001 1.16251,1.36174 1.67468,2.08932c0.46274,0.65735 1.42532,0.61067 2.32983,0.61067c0.86215,0 1.73715,0 2.38217,0c0.99866,0 1.83417,0 2.71466,0c1.19733,0 1.78799,0 2.64151,0c1.03583,0 1.95715,0.00046 2.64114,0c1,-0.00067 1.82227,0.03433 2.63202,-0.08533c1.24213,-0.18356 1.8548,-0.55962 2.88382,-0.79333c0.76913,-0.1747 1.79053,-0.32404 2.42551,-0.73201c0.87555,-0.56256 1.52777,-1.01523 2.35333,-1.26799c0.75854,-0.23224 1.6633,-0.51595 2.42584,-0.76868c0.98032,-0.32491 1.85623,-0.34042 2.76215,-0.68599c0.81808,-0.31206 1.34464,-0.70483 2.23468,-1.18401c0.8891,-0.47867 1.49313,-0.71718 2.32666,-1.07201c0.94269,-0.40131 1.73312,-0.93648 2.43866,-1.41066c0.66394,-0.44623 1.32004,-0.78249 2.25467,-1.54266c0.5466,-0.44456 1.06927,-0.96794 1.62601,-1.452c1.0144,-0.88199 1.70734,-1.3501 2.34818,-1.69633c0.99072,-0.53528 1.60184,-0.81438 2.60449,-1.30901c0.79788,-0.39362 1.38956,-0.68411 2.39868,-0.91733c0.75876,-0.17535 1.70825,-0.65961 2.22665,-1.26801c0.68469,-0.80356 1.22263,-1.20621 1.89349,-1.56734c1.10922,-0.59711 1.79294,-0.90076 2.50201,-1.26816c0.733,-0.37981 1.81494,-0.97501 2.49384,-1.37784c0.6517,-0.38669 1.2648,-0.78304 1.884,-1.116c1.18478,-0.63708 1.81937,-0.85451 2.43732,-1.14667c1.34769,-0.63718 1.69278,-0.87006 2.41666,-1.3485c0.75528,-0.49919 1.49219,-1.04552 2.58069,-1.8235c0.34436,-0.24612 0.99661,-0.7253 1.95599,-1.32001c0.60153,-0.37289 1.50583,-0.83553 2.38934,-1.21066c0.80301,-0.34096 1.68817,-0.72134 2.30048,-1.136c0.85617,-0.57982 1.54224,-0.96594 2.35419,-1.5c0.68591,-0.45117 1.49631,-0.8365 2.34131,-1.02533c0.95309,-0.21298 1.561,-0.70525 2.30936,-1.17467c0.67612,-0.4241 1.57495,-1.09442 2.26865,-1.44284c0.84778,-0.4258 1.78421,-0.18889 2.62201,-0.37849c1.01062,-0.22873 1.4071,-0.88544 2.14133,-1.41068c0.81534,-0.58325 1.65952,-0.89023 2.30936,-1.41866c0.70041,-0.56955 1.43854,-0.98953 2.34131,-1.31601c0.8515,-0.30794 1.6283,-0.89183 2.33334,-1.3125c0.78433,-0.46797 1.55746,-0.34453 2.47849,-0.74232c0.79367,-0.34279 1.35617,-1.27808 2.12152,-1.65717c0.84677,-0.41942 1.65543,-0.66571 1.87915,-1.62134c0.2052,-0.87654 0.02084,-1.8 0.02084,-2.70134c0,-0.96533 0,-1.62399 0,-2.63199l-0.05716,-0.86217" id="svg_16" stroke-width="2" stroke="#000" fill="none"/>
  <path t="50843,50915,50964,50964,50982,50982,50982,50982,50982,50982,50998,50998,50998,50998,51015,51015,51015,51032,51032,51032,51048,51048,51048,51256,51256" d="m338,206c0.61066,1.564 1.46594,1.97806 1.98584,2.22417c1.25516,0.59418 1.64008,0.90738 2.55148,1.4985c0.48599,0.31522 0.97946,0.63739 1.92801,1.312c0.875,0.6223 1.60455,1.1815 2.19067,1.69333c0.74054,0.6467 1.53976,1.47617 1.944,1.86751c0.59384,0.57492 1.59586,1.38954 2.19998,1.77916c0.59598,0.38434 1.39969,0.94667 2.15836,1.62534l0.47098,0.51601l0.54984,0.94232l0.54169,0.5" id="svg_17" stroke-width="2" stroke="#000" fill="none"/>
  <path t="51728,51815,51815,51815,51815,51815,51851,51851,51851,51866,51866,51866,51866,51866,51866,51884,51885,51885,51899,51899,52069,52085,52085,52100,52100" d="m362,194c0.71432,1.65717 1.21719,2.2148 2,3c0.59686,0.59866 1.17084,1.20052 2,1.83333c0.58945,0.44986 1.30099,0.82706 2.33334,1.66667c0.65247,0.53064 0.97742,0.85243 1.64581,1.52083c0.66843,0.66843 1.00717,0.98042 1.96619,2.20717c0.37317,0.47736 0.87595,1.35312 1.70734,2.01483c0.4902,0.39017 1.46066,0.9545 2.18066,1.42384l0.25067,-0.64l0.27316,-1.02751l0.25348,-0.71249" id="svg_18" stroke-width="2" stroke="#000" fill="none"/>
  <path t="52414,52490,52498,52498,52517,52517,52517,52533,52533,52533,52533,52533,52549,52549,52549,52573,52573,52573,52584,52584,52584,52584,52616,52616,52738,52738" d="m382,182c-0.9375,1.02083 -0.56918,1.99232 0.02084,2.5c0.79669,0.68549 1.23633,1.16264 1.6405,1.78267c0.68106,1.0448 1.10153,1.69005 1.59998,2.368c0.51733,0.70363 0.77301,1.05833 1.57202,2.01601c0.69009,0.82715 1.11975,1.27599 2,2.16666c0.54874,0.55524 1.13599,1.136 1.70932,1.70934c0.70801,0.70801 1.20609,1.20723 1.68933,1.68933c0.95255,0.9503 1.56534,1.48001 2.41083,1.70634l0.35269,-0.70001" id="svg_19" stroke-width="2" stroke="#000" fill="none"/>
 </g>
 <g display="none">
  <title>muse_image</title>
  <image xlink:href="http://static.flickr.com/1233/528361063_bedebe89b7.jpg" id="muse" height="480" width="640" y="0" x="0"/>
 </g>
 <g display="none">
  <title>bbox</title>
  <rect stroke="#f00" fill="none" stroke-width="3" height="99.84" width="165.12" y="226.56" x="248.32" id="bbox"/>
 </g>
</svg>
