<svg width="640" height="480" xmlns="http://www.w3.org/2000/svg" xmlns:svg="http://www.w3.org/2000/svg" xmlns:xlink="http://www.w3.org/1999/xlink">
 <!-- Sketchy ANNOTATION
  ImageNet ID: n02691156_14912
  URL: http://farm3.static.flickr.com/2200/2002198357_585adf1007.jpg
  Image Width: 500
  Image Height: 334
  BBox X: 0
  BBox Y: 0
  BBox Width: 473
  BBox Height: 332
  Exposure: 2000ms
  Synset Label: airplane
  Synset ID: n02691156
  Worker Tag: underside of a bi-plane
  Sanity Check: 
   Context
   Saved
   Shading
  Comment: 
   {}
  Worker ID: AV05BXQORIXZR
  Assignment ID: 32EYX73OY099S1Q3KG0YY11GTQRRU4
  HIT ID: 3VQTAXTYN3LKPABKYH96921RA37UB0
  Work Time: 5509s
  Worker Score: 0.8571
 END ANNOTATION -->
 <g display="inline">
  <title>Layer 1</title>
  <path t="0,272,272,289,306,323,323,340,340,357,357,357,374,374,374,374,391,391,391,408,408,408,408,425,425,442,443,443,460,460,460,476,477,495,495,511,511,528,528,546,546,546,565,565,565,582,582,598,598,599,615,615,631,632,632,649,649,649,649,666,666,666,666,683,683,683,683,683,700,700,700,700,716,716,716,716,733,733,733,733,733,750,750,750,750,766,767,767,783,783,783,783,800,800,800,800,817,817,818,818,834,835,835,852,852,852,852,852,869,869,869,869,869,885,885,886,886,902,903,903,903,919,919,919,920,936,936,937,937,953,953,953,953,953,970,970,970,970,970,987,987,987,987,1004,1004,1004,1004,1021,1021,1021,1021,1038,1038,1038,1055,1055,1055,1055,1072,1072,1072,1072,1089,1089,1089,1089,1106,1107,1107,1124,1124,1124,1142,1142,1142,1159,1159,1176,1176,1176,1193,1193,1193,1211,1211,1211,1211,1230,1230,1230,1230,1230,1247,1247,1247,1247,1247,1262,1262,1262,1262,1262,1280,1280,1280,1281,1297,1297,1297,1297,1313,1313,1313,1330,1330,1330,1330,1346,1347,1347,1364,1364,1380,1381,1381,1397,1397,1397,1414,1414,1414,1431,1431,1431,1431,1431,1447,1448,1448,1448,1465,1465,1465,1465,1465,1482,1482,1482,1482,1483,1498,1499,1499,1499,1499,1499,1516,1517,1517,1517,1517,1533,1533,1533,1533,1549,1550,1550,1550,1550,1566,1567,1567,1567,1583,1583,1583,1583,1583,1584,1600,1600,1601,1601,1601,1601,1617,1618,1618,1618,1618,1618,1618,1635,1635,1635,1636,1636,1636,1651,1651,1652,1652,1652,1652,1668,1668,1668,1668,1668,1685,1685,1686,1686,1686,1701,1702,1702,1702,1719,1719,1719,1719,1736,1736,1736,1752,1753,1769,1769,1770,1787,1803,1803,1820,1836,1837,1853,1854,1870,1870,1887,1887,1904,1904,1921,1922,1938,1938,1938,1955,1955,1971,1972,1989,1990,2006,2006,2023,2023,2040,2040,2040,2040,2057,2058,2058,2075,2075,2075,2092,2092,2111,2111,2112,2128,2128,2144,2145,2161,2161,2178,2178,2195,2195,2212,2229,2229,2246,2263,2281,2298,2316,2334,2334,2351,2368,2385,2385,2402,2418,2436,2453,2454,2470,2494,2495,2527,2545,2562,2580,2580,2597,2614,2637,2661,2686,2719,2736,2737,2753,2771,2771,2788,2789,2805,2822,2839,2839,2856,2874,2874,2893,2910,2927,2928,2959,2959,2976,2992,3013,3030,3048,3065,3082,3083,3100,3118,3118,3118,3134,3135,3151,3152,3152,3168,3169,3185,3186,3202,3203,3203,3219,3220,3220,3236,3236,3254,3271,3271,3288,3305,3322,3339,3359,3359,3374,3374,3392,3392,3408,3409,3425,3425,3425,3441,3442,3442,3458,3475,3476,3492,3509,3509,3526,3526,3543,3560,3560,3576,3593,3594,3611,3611,3611,3611,3628,3628,3629,3629,3646,3646,3663,3663,3663,3663,3680,3680,3680,3680,3697,3697,3697,3714,3715,3715,3731,3732,3732,3749,3749,3750,3766,3783,3784,3801,3801,3817,3818,3818,3835,3835,3853,3853,3853,3870,3870,3870,3886,3887,3887,3887,3904,3904,3904,3904,3921,3921,3921,3921,3938,3939,3939,3939,3939,3956,3956,3956,3956,3957,3974,3974,3974,3990,3990,3991,3991,4007,4007,4007,4007,4024,4024,4025,4025,4041,4041,4042,4042,4058,4059,4059,4075,4076,4076,4076,4092,4092,4092,4093,4109,4109,4109,4126,4126,4126,4143,4143,4143,4143,4159,4160,4160,4176,4177,4177,4194,4194,4195,4195,4211,4211,4212,4227,4228,4228,4228,4244,4245,4245,4245,4261,4262,4262,4262,4262,4262,4278,4278,4279,4279,4295,4295,4296,4296,4296,4296,4312,4312,4312,4312,4329,4329,4330,4330,4330,4346,4346,4346,4347,4347,4347,4347,4363,4364,4364,4364,4364,4365,4365,4365,4381,4381,4381,4382,4382,4382,4382,4398,4398,4398,4398,4399,4399,4415,4415,4415,4415,4416,4431,4432,4432,4432,4432,4449,4449,4449,4465,4466,4466,4466,4466,4483,4483,4484,4484,4500,4501,4501,4501,4502,4518,4518,4518,4519,4519,4535,4535,4535,4536,4552,4552,4553,4568,4569,4569,4569,4586,4586,4587,4587,4587,4604,4604,4604,4604,4622,4623,4623,4638,4639,4639,4639,4655,4656,4656,4672,4672,4673,4673,4673,4688,4689,4689,4690,4706,4706,4707,4707,4723,4723,4724,4724,4740,4740,4741,4741,4756,4757,4757,4757,4773,4774,4774,4774,4775,4790,4790,4791,4791,4791,4791,4807,4807,4808,4808,4808,4809,4824,4824,4825,4825,4825,4841,4842,4842,4842,4858,4859,4859,4859,4875,4876,4876,4876,4892,4892,4892,4892,4893,4909,4910,4910,4910,4926,4927,4927,4927,4928,4943,4944,4944,4945,4960,4961,4961,4961,4962,4977,4977,4977,4978,4994,4994,4995,4995,5010,5011,5011,5012,5027,5027,5027,5044,5044,5045,5060,5061,5061,5077,5078,5094,5095,5095,5111,5112,5112,5128,5129,5129,5130,5145,5146,5146,5162,5162,5162,5163,5163,5179,5179,5179,5196,5196,5197,5197,5213,5214,5214,5214,5215,5230,5231,5231,5232,5247,5248,5248,5248,5248,5264,5265,5265,5265,5266,5266,5282,5282,5282,5283,5283,5283,5283,5299,5300,5300,5300,5300,5317,5317,5318,5318,5334,5335,5335,5335,5336,5351,5351,5352,5352,5352,5368,5368,5369,5369,5369,5386,5386,5387,5387,5404,5405,5405,5406,5420,5421,5421,5437,5438,5454,5471,5471,5487,5488,5505,5506,5522,5522,5539,5539,5540,5556,5556,5557,5573,5574,5590,5591,5607,5608,5624,5625,5642,5642,5643,5658,5659,5675,5676,5676,5692,5693,5693,5709,5710,5727,5727,5727,5743,5743,5760,5761,5777,5777,5794,5795,5795,5811,5812,5828,5828,5845,5846,5862,5862,5879,5895,5896,5913,5913,5931,5948,5965,5965,5983,6002,6019,6036,6036,6053,6077,6095,6112,6129,6147,6147,6164,6165,6182,6182,6199,6199,6200,6215,6234,6235,6251,6252,6268,6269,6284,6285,6301,6319,6319,6336,6337,6337,6353,6354,6354,6370,6371,6371,6388,6388,6389,6406,6406,6422,6423,6439,6440,6456,6457,6457,6457,6473,6474,6490,6491,6508,6508,6509,6524,6525,6551,6551,6568,6569,6584,6600,6601,6618,6618,6635,6636,6636,6652,6653,6669,6686,6702,6719,6736,6737,6738,6753,6754,6771,6788,6788,6804,6821,6838,6855,6855,6872,6872,6889,6905,6906,6922,6939,6939,6955,6956,6973,6997,7021,7022,7038,7056,7073,7090,7107,7124,7141,7141,7158,7158,7175,7192,7192,7209,7209,7210,7225,7226,7243,7269,7293,7317,7349,7366,7383,7400,7421,7422,7438,7439,7456,7473,7473,7501,7519,7541,7558,7575,7592,7592,7609,7626,7627,7644,7662,7679,7709,7710,7726,7749,7783,7805,7806,7822,7846,7877,7895,7941,7965,7989,8007,8007,8024,8053,8109,8110,8127,8145,8165,8182" d="m325,115c-1.16666,1 -1.60129,1.58723 -1.97467,2.4c-0.4075,0.88704 -0.84253,1.60487 -1.078,2.35716c-0.2851,0.91081 -0.66333,1.69984 -1.04749,2.66417c-0.21069,0.52885 -0.46664,1.39094 -1.0665,2.412c-0.4375,0.74471 -0.8699,1.14056 -1.34933,1.85066c-0.65295,0.9671 -0.96936,1.83627 -1.29385,2.36333c-0.66321,1.07727 -1.19162,1.49998 -1.93948,2.142c-0.48019,0.41223 -1.31808,1.18517 -1.70901,1.81067c-0.60272,0.96442 -0.86108,1.59566 -1.24167,2.45717c-0.42175,0.95468 -0.67572,1.76732 -1,2.533c-0.37231,0.87914 -0.90033,1.44157 -1.17865,2.33133c-0.26904,0.86008 -0.28735,1.90196 -0.64218,2.65767c-0.41626,0.88652 -0.91867,1.36705 -1.47916,2.1875c-0.44296,0.64841 -0.85294,1.46005 -1.48401,2.23199c-0.49158,0.60132 -1.0528,1.09593 -1.76334,1.85316c-0.65637,0.69951 -1.24353,1.51062 -1.56732,1.99884c-0.48801,0.73584 -1.02838,1.77795 -1.23349,2.55466c-0.25388,0.9614 -0.47388,1.74434 -0.7135,2.30367c-0.51822,1.20961 -0.88171,1.79881 -1.28,2.37018c-0.40198,0.57666 -1.37009,1.6109 -1.9155,2.06816c-0.55402,0.46446 -1.16211,0.88721 -2.04285,1.61934c-0.60913,0.50633 -1.19949,1.05934 -1.76401,1.644c-0.56091,0.58093 -1.32101,1.48447 -2.01065,2.38933c-0.4549,0.59683 -0.89047,1.21581 -1.64685,2.10001c-0.52283,0.61119 -1.09595,1.20331 -1.68298,1.8c-0.89041,0.90504 -1.19534,1.19981 -1.79102,1.79549c-0.58365,0.58366 -1.14731,1.14737 -2.18298,2.18301c-0.46436,0.46434 -1.11066,1.11099 -1.52017,1.52016c-0.80234,0.80167 -1.40729,1.41826 -2.08667,2.00134c-0.72064,0.6185 -1.5473,1.2014 -2.08932,1.63599c-0.54889,0.44009 -1.32962,1.16449 -1.98935,2c-0.44305,0.56111 -0.83304,1.16643 -1.436,2.06384c-0.59836,0.89058 -0.98703,1.47383 -1.39999,2.01483c-0.77866,1.02011 -1.20215,1.48018 -1.91434,2.138c-0.79816,0.73723 -1.45511,1.23087 -2.13632,1.78333c-0.3501,0.28392 -1.07681,0.83417 -2.01599,1.76401c-0.58517,0.57936 -1.07449,1.19806 -1.548,1.8c-0.47046,0.59807 -1.19931,1.50648 -1.73801,2.09549c-0.54004,0.59044 -1.09354,1.14845 -2.12601,2.18317c-0.46814,0.46918 -1.14667,1.14667 -1.60532,1.60535c-0.73734,0.73735 -1.26868,1.26866 -1.81601,1.81599c-0.81601,0.81599 -1.57458,1.58296 -2.05182,2.04733c-0.70334,0.68439 -1.20856,1.14745 -2.09102,1.87416c-0.66037,0.54382 -1.37903,1.09804 -1.74249,1.38918c-0.73412,0.58804 -1.79578,1.48643 -2.12933,1.78934c-0.65451,0.59435 -1.27675,1.19791 -1.884,1.79999c-0.90443,0.89673 -1.49626,1.50075 -2.10133,2.07918c-0.59508,0.56886 -1.49359,1.36224 -2.09866,1.83549c-0.58458,0.45723 -1.1843,0.85027 -2.23466,1.68533c-0.48909,0.38884 -1.15585,0.97287 -1.68001,1.60001c-0.64351,0.76996 -0.98047,1.43988 -1.45599,2.08533c-0.75948,1.03087 -1.29297,1.54987 -1.85201,2.08934c-0.57159,0.55159 -1.47687,1.30608 -2.07416,1.77266c-0.58209,0.45471 -1.19533,0.85645 -2.18301,1.87384c-0.48924,0.50395 -0.86502,1.08885 -1.52016,1.80949c-0.76167,0.83784 -1.41237,1.23256 -2.00134,1.65199c-0.81586,0.58101 -1.40433,1.13373 -2,1.71867c-0.80589,0.79137 -1.37775,1.40385 -2,1.91333c-0.77373,0.6335 -1.59782,1.07892 -2.39999,1.48534c-0.79787,0.40424 -1.41872,0.66446 -2.39999,1.20399c-0.61247,0.33676 -1.25072,0.81329 -2.00267,1.85068c-0.45015,0.62102 -0.85896,1.34851 -1.11166,1.70166c-0.78735,1.10034 -1.44412,1.77013 -2.147,2.40767c-0.35411,0.3212 -1.09914,0.92126 -2.172,1.836c-0.34801,0.29671 -1.01431,0.89494 -1.64584,1.5c-0.62109,0.59508 -1.51883,1.50201 -2.12083,2.09866c-0.59801,0.59268 -0.89066,0.89063 -1.5,1.44417c-0.88664,0.80544 -1.79424,1.50169 -2.37917,1.93634c-0.56245,0.41795 -1.61108,1.20789 -2.06366,1.62534c-0.66429,0.61275 -1.07069,1.06906 -1.85851,2.0795c-0.4173,0.5352 -1.02228,1.39497 -1.76534,2.14932c-0.49588,0.50342 -1.05882,0.93047 -1.88066,1.56218c-0.78615,0.60428 -1.47833,1.21036 -2.106,1.73248c-0.66692,0.55478 -1.52148,0.84848 -2.332,1.44269c-0.57513,0.42166 -1.11633,1.03165 -1.91466,1.82932c-0.60025,0.59976 -0.99323,1.00684 -1.80034,1.80002c-0.61588,0.60522 -1.29396,1.22833 -2.133,1.79999c-0.62057,0.42282 -1.32495,0.7984 -2.01601,1.23599c-0.69049,0.43723 -1.62022,1.17325 -2.14532,1.71667c-0.51765,0.53571 -0.95779,1.15619 -2.14818,2.12616c-0.31345,0.2554 -1.02452,0.69745 -1.74249,1.1825c-0.73833,0.49881 -1.80009,1.37466 -2.13068,1.70801c-0.67271,0.67838 -1.30492,1.41998 -1.63666,1.7825c-1.00087,1.09369 -1.72682,1.76831 -2.10451,2.08652c-0.75226,0.63379 -1.14027,0.93411 -1.94417,1.47498c-1.17976,0.79373 -1.9931,1.23141 -2.388,1.45068c-0.77261,0.42902 -1.53513,0.81766 -2.58916,1.43616c-0.67075,0.39362 -1.31158,0.80566 -1.91701,1.25699c-0.92166,0.68707 -1.50647,1.22467 -2.10449,1.76819c-0.60199,0.54715 -1.18246,1.11188 -2.10034,1.85333c-0.59756,0.48273 -1.5696,1.14981 -1.914,1.37399c-1.11243,0.72415 -1.95515,1.23239 -2.39549,1.50449c-0.91135,0.56314 -1.37965,0.84702 -2.3075,1.44418c-0.92017,0.59222 -1.80069,1.19714 -2.23001,1.50317c-0.85672,0.61069 -1.28123,0.92725 -2.13666,1.58081c-0.88603,0.67694 -1.33807,1.03506 -2.26868,1.76733c-0.47302,0.37219 -0.94679,0.74802 -1.89465,1.49469c-0.46841,0.36899 -1.83002,1.43289 -2.26868,1.76733c-0.85608,0.65271 -1.27994,0.97012 -2.13666,1.58081c-0.42932,0.30603 -1.76747,1.20596 -2.23001,1.50317c-0.46446,0.29846 -1.39622,0.88092 -1.85599,1.16534c-0.89149,0.55151 -2.12082,1.311 -2.49068,1.55331c-0.70343,0.46082 -1.37045,0.91931 -1.968,1.45203c-0.93752,0.83578 -1.49677,1.54108 -2.12349,2.20981c-0.62611,0.66809 -0.90559,1.05154 -2.0005,1.75635c-0.69812,0.44937 -1.47377,0.71719 -2.226,0.95099c-1.07942,0.33548 -2.09359,0.60565 -2.71101,0.81351c-0.85873,0.28912 -1.87027,0.67383 -2.52083,1.02084c-0.63419,0.33829 -1.59662,1.15854 -2.22083,1.61783c-0.77206,0.56808 -1.61069,0.71756 -2.31467,0.944c-1.00848,0.3244 -1.50349,1.12433 -2.18533,1.56015c-0.82398,0.52667 -1.71889,0.79514 -2.18533,1.24384c-0.78138,0.75168 -1.28934,1.28799 -2.09317,2.09183c-0.50066,0.50067 -1.18738,1.26401 -1.77866,1.72153c-0.8535,0.66043 -1.43183,0.94275 -2.44283,1.17865c-0.78799,0.18387 -1.83269,0.20892 -2.58933,0.56799c-0.76644,0.36371 -1.30003,1.0578 -1.83601,1.728c-0.66402,0.83029 -1.34358,1.36227 -2.208,1.65869c-0.77087,0.26434 -1.67104,0.41187 -2.34133,0.77731c-0.97709,0.53271 -1.49742,1.04718 -2.58933,1.4895c-0.58221,0.23584 -1.27103,0.34018 -2.184,0.78519c-1.04664,0.51016 -1.48843,1.15869 -2.01867,1.63065c-0.74796,0.66574 -1.55452,0.96228 -2.35067,1.28268c-0.99777,0.40155 -1.69965,0.66595 -2.68266,1.36798c-0.62605,0.44711 -1.14009,1.07651 -2,1.5c-0.74899,0.36887 -1.82813,0.51062 -2.5,0.83334c-0.81539,0.39166 -1.72937,0.44742 -2.69967,0.7215c-0.5942,0.16785 -1.27075,0.93732 -1.883,1.49316c-0.65508,0.59473 -1.55312,0.68106 -2.43333,1.00134c-0.82355,0.29968 -1.42519,0.86136 -2.09467,1.30933c-0.73544,0.49213 -1.65639,0.7384 -2.48933,1.19617c-0.67503,0.37097 -1.20444,1.34656 -2,1.65701c-0.84603,0.33014 -1.84979,0.0376 -2.464,0.73215c-0.58943,0.66653 -0.63799,1.69662 -1.436,2.22269c-0.65934,0.43466 -0.8665,1.22681 -1.16667,2c-0.33931,0.87402 -1.22041,1.38348 -1.66666,2.16666c-0.44435,0.77982 -1.07272,1.32318 -1.156,2.18533c-0.08923,0.92377 -0.01067,1.78934 -0.01067,2.616c0,0.89868 0.05504,1.8714 -0.35266,2.55585c-0.46583,0.78201 -0.64667,1.52817 -0.64734,2.46817c-0.00072,1.008 0,1.79999 0,2.65866c0,0.86331 0,1.75882 0,2.716c0,0.90015 0,1.68533 0,2.62534c0,1.008 0,1.76398 0,2.67465c0,0.91068 -0.0916,1.83014 0.036,2.67465c0.14524,0.96124 0.80021,1.59265 0.95333,2.42535c0.16287,0.88568 0.43197,1.65884 0.88933,2.49982c0.40652,0.7475 0.93525,1.32407 1.40667,2.10019c0.41082,0.67636 1.15847,1.17789 1.71467,1.96664c0.44733,0.63437 0.8179,1.42838 1.65717,2.07617c0.51694,0.39902 1.53027,0.8847 2.34283,1.23633c0.59155,0.25598 1.60619,0.42874 2.4,0.57352c1.01035,0.18427 1.82824,0.55295 2.6,1.11398c0.62456,0.45404 1.16903,1.04752 2,1.66669c0.7627,0.5683 1.34179,0.86374 2.24733,1.46216c0.63594,0.42026 1.57752,0.68649 2.58601,0.7045c0.75587,0.01349 1.66666,0 2.56667,0c0.9,0 1.80133,0 2.76666,0c0.83334,0 1.812,0 2.58601,0c0.9045,0 1.65183,0 2.64867,0c0.83466,0 1.76533,0 2.55133,0c0.822,0 1.88067,0 2.80067,0c0.76,0 1.74667,0 2.73067,0c0.69067,0 1.7634,0.01151 2.68266,0c0.83353,-0.01044 1.65934,-0.18054 2.42267,-0.57468c0.80322,-0.41473 1.66869,-0.86588 2.296,-1.14133c0.89267,-0.392 1.93147,-0.48831 2.65633,-0.784c0.9395,-0.38324 1.51186,-0.43558 2.5,-0.47916c0.71416,-0.03149 1.79178,-0.00983 2.79667,-0.02533c0.62015,-0.00955 1.49698,0.00787 2.47767,-0.28217c0.93784,-0.27737 1.85372,-0.87509 2.36933,-1.19867c0.84057,-0.52753 1.4186,-0.92004 2.31467,-1.51468c0.59962,-0.39792 1.48074,-0.99643 2.1,-1.28568c1.16807,-0.54559 1.80251,-0.57407 2.664,-0.76498c1.07987,-0.23932 1.77142,-0.66565 2.42533,-1.09866c0.80182,-0.53094 1.62407,-0.77362 2.496,-0.93335c1.00079,-0.18335 1.78989,-0.43155 2.54533,-0.63333c0.95038,-0.25385 1.73463,-0.64597 2.29016,-1.284c0.6095,-0.70004 1.40347,-0.75269 2.3125,-1.33334c0.63727,-0.40707 0.99564,-1.2471 1.82384,-1.914c0.52203,-0.42038 1.36189,-0.89719 2.14284,-1.58865c0.41032,-0.36331 1.2,-1.164 1.8,-1.76401c0.59999,-0.60001 1.39514,-1.40494 2.0045,-2c0.41306,-0.40335 1.06874,-1.01514 1.81699,-1.60016c0.80188,-0.62698 1.39731,-1.02533 1.97984,-1.48517c0.91185,-0.71979 1.49884,-1.27222 2.11949,-1.81467c0.63199,-0.55234 1.63675,-1.34714 2.36317,-1.81601c0.73242,-0.47275 1.1245,-0.67026 1.86333,-1.13666c1.09901,-0.69379 1.77675,-1.21887 2.40601,-1.77267c0.61066,-0.53745 1.16068,-1.09 1.92517,-1.85315c0.68611,-0.68491 1.10782,-1.11386 1.92149,-1.92151c0.60677,-0.60226 1.25763,-1.21863 1.77066,-1.60001c0.84952,-0.6315 1.5329,-1.00732 2.25017,-1.37915c0.72487,-0.37576 1.8102,-0.85986 2.82201,-1.26819c0.6349,-0.25623 1.2739,-0.4624 2.457,-1.07416c0.60733,-0.31403 1.19637,-0.67557 2.01483,-1.27982c0.78088,-0.57651 1.45572,-1.20355 1.91066,-1.59869c0.93266,-0.81009 1.44576,-1.21973 2.2955,-1.77914c0.5744,-0.37814 1.47417,-0.8652 2.37466,-1.26819c0.58054,-0.2598 1.45251,-0.58423 2.4205,-1.23666c0.71049,-0.47888 1.34416,-1.07239 2.1055,-1.49466c0.79199,-0.4393 1.40604,-0.61105 2.57851,-1.18799c0.60796,-0.29916 1.47835,-0.83469 2.04283,-1.18066c1.03416,-0.63382 1.73596,-1.00366 2.35266,-1.40533c0.82565,-0.53775 1.39,-1.1055 2.06168,-1.59467c0.93172,-0.67856 1.49922,-0.90179 2.3535,-1.27802c0.59013,-0.25989 1.79454,-0.85126 2.38933,-1.21066c0.60542,-0.36584 1.79816,-1.16681 2.40001,-1.56268c0.59816,-0.39346 1.17723,-0.80786 2.39999,-1.43466c0.59236,-0.30365 1.21957,-0.54596 2.21434,-0.91931c1.11703,-0.41922 1.53087,-0.56238 2.39099,-0.90451c0.89737,-0.35693 1.35158,-0.5368 2.22667,-0.94415c1.23631,-0.57547 1.96541,-0.99139 2.64717,-1.41953c0.67639,-0.42474 1.68681,-1.14676 2.40616,-1.66183c0.37149,-0.26599 1.12717,-0.80948 1.91917,-1.3075c0.39281,-0.24701 1.58777,-0.8862 2.39549,-1.19998c0.79288,-0.30801 1.60927,-0.53235 2.8,-0.9765c0.80798,-0.30139 1.20651,-0.48602 2.02083,-0.85419c0.83842,-0.37906 2.14487,-0.98138 2.601,-1.17932c0.94235,-0.40894 1.43507,-0.61151 2.46085,-1.03583c0.53595,-0.22168 1.09047,-0.44659 2.86017,-1.18533c0.62691,-0.26169 1.26675,-0.53192 1.91849,-0.80402c0.65926,-0.27524 1.32338,-0.55087 1.99051,-0.82199c0.66487,-0.2702 2.62579,-1.03308 3.26149,-1.26733c0.62431,-0.23007 1.23962,-0.45041 2.44,-0.87466c0.58482,-0.2067 1.16338,-0.40009 2.825,-1.01068c0.5361,-0.19699 1.06209,-0.39474 2.08,-0.79999c0.49603,-0.19748 1.45917,-0.59061 2.82018,-1.19983c0.43752,-0.19583 1.28229,-0.59665 2.11082,-0.96417c0.80629,-0.35767 1.60612,-0.68262 2.40933,-0.95065c0.78644,-0.26242 1.56607,-0.47208 2.31599,-0.68402c1.40271,-0.39645 2.05917,-0.60406 2.71069,-0.80133c1.33963,-0.40561 2.05838,-0.60098 2.79999,-0.79999c0.74905,-0.20099 1.49365,-0.38962 2.5535,-0.70016c0.67496,-0.19775 1.68466,-0.52979 2.3905,-0.78519c1.17719,-0.42593 1.5993,-0.60046 2.492,-0.94c0.92328,-0.35117 1.38364,-0.54196 2.772,-1.008c0.87585,-0.29398 1.3038,-0.4136 2.125,-0.64581c0.7789,-0.22025 2.22137,-0.61682 2.88449,-0.82083c0.63751,-0.19614 1.55746,-0.49518 2.45715,-0.80017c0.90167,-0.30569 1.51956,-0.49359 2.70001,-1.0665c0.61224,-0.29715 1.2084,-0.6731 2.15717,-1.23785c1.00711,-0.59949 1.72626,-0.99652 2.09549,-1.1955c0.74622,-0.4021 1.50244,-0.78616 2.58069,-1.39999c0.68503,-0.38995 1.3183,-0.79202 2.20499,-1.34283c0.79352,-0.49292 1.51154,-0.90002 2.18701,-1.2825c0.94489,-0.53503 1.7226,-1.03906 2.2955,-1.35382c0.86725,-0.47647 1.77914,-0.77832 2.67917,-0.98083c0.89999,-0.20248 1.81879,-0.50995 2.39999,-0.89468c0.62173,-0.41156 1.19595,-0.94598 1.79999,-1.46399c0.89407,-0.76675 1.7962,-1.45074 2.39999,-1.87067c0.59631,-0.4147 1.5,-1.01068 2.10001,-1.41068c0.89999,-0.60001 1.5,-1 2.39999,-1.60001c0.60001,-0.39999 1.5,-1 2.10001,-1.39999c0.89999,-0.60001 1.5,-1 2.10001,-1.39999c0.89999,-0.60001 1.79837,-1.20273 2.40451,-1.60001c0.61453,-0.40277 1.24466,-0.81366 2.26215,-1.39999c0.7132,-0.41098 1.47247,-0.80499 2.24402,-1.23599c0.79395,-0.44351 1.59836,-0.91702 2.38931,-1.45068c0.80951,-0.5462 1.20718,-0.84583 2,-1.47498c0.40375,-0.3204 1.60263,-1.35666 1.99869,-1.72235c0.7963,-0.73526 1.18292,-1.11353 1.94415,-1.86334c0.37302,-0.36743 1.43353,-1.43314 2.10001,-2.091c0.32016,-0.31601 0.93561,-0.92706 1.55585,-1.47498c0.88608,-0.78275 1.79752,-1.45609 2.40131,-1.87601c0.59631,-0.4147 1.49399,-1.02011 2.10452,-1.40616c0.92236,-0.58319 1.5665,-0.95251 2.61682,-1.38333c0.72223,-0.29623 1.49084,-0.5123 2.22601,-0.83102c1.10611,-0.47955 1.7796,-0.94373 2.41666,-1.45148c0.638,-0.50851 1.21741,-1.07697 2.13617,-1.81717c0.59348,-0.47815 1.21249,-0.91342 1.85699,-1.31702c0.99725,-0.62448 1.72595,-1.00613 2.46817,-1.40448c0.74844,-0.40167 1.50058,-0.78281 2.55316,-1.40018c0.67084,-0.39346 1.31155,-0.80566 1.91699,-1.257c0.92166,-0.68709 1.5065,-1.22464 2.10452,-1.76816c0.60199,-0.54713 1.18494,-1.10876 2.09998,-1.85335c0.59055,-0.48053 1.20752,-0.91153 1.80002,-1.37399c1.21558,-0.94882 1.80029,-1.49495 2.37915,-2.04733c0.56842,-0.54242 1.34784,-1.33978 1.83685,-1.81334c0.67535,-0.65402 1.09515,-1.09274 2.10532,-1.66516c0.77576,-0.43959 1.63321,-0.69902 2.41202,-1.0215c0.93985,-0.38918 1.59006,-0.71935 2.36649,-1.32133c0.61295,-0.47523 1.11191,-1.05873 1.91751,-1.79333c0.66788,-0.60899 1.42633,-0.98363 2.14398,-1.29599c0.79141,-0.34445 1.83783,-0.8844 2.50269,-1.42534c0.43967,-0.35773 1.22946,-1.17064 1.84048,-1.76401c0.62491,-0.60686 1.06647,-1.0183 2.08084,-1.80133c0.54312,-0.41927 1.14832,-0.806 2.31467,-1.76534c0.61108,-0.50262 1.19318,-1.05466 1.76401,-1.608c0.55444,-0.53746 1.30569,-1.31297 1.78333,-1.76366c0.66577,-0.62822 1.60898,-1.3149 2.13934,-1.57767c0.83981,-0.41611 1.48071,-0.623 2.47998,-1.05067c0.72162,-0.30885 1.46271,-0.66135 2.20801,-1.04399c0.74545,-0.38274 1.81052,-0.97873 2.46817,-1.39384c0.64304,-0.40588 1.56961,-1.06427 2.45749,-1.81699c0.61847,-0.52432 0.91486,-0.82156 1.57169,-1.38918c0.69223,-0.59819 1.86813,-1.49361 2.29865,-1.79066c0.89548,-0.61792 1.37152,-0.91872 1.85068,-1.23466c0.98236,-0.64775 1.98193,-1.32611 2.47833,-1.68533c0.99799,-0.72221 1.48187,-1.10036 1.95868,-1.47867c0.93301,-0.74025 1.37814,-1.10774 2.20831,-1.83333c0.76935,-0.67242 1.45856,-1.32301 2.112,-1.92c0.61609,-0.56287 1.51743,-1.3304 2.12134,-1.79401c0.59619,-0.45769 1.21487,-0.88701 2.10001,-1.61934c0.61185,-0.50621 1.2092,-1.07091 1.836,-1.644c0.64783,-0.59232 1.32391,-1.19751 2.048,-1.78799c0.73459,-0.59904 1.11124,-0.88687 1.86334,-1.44417c1.07925,-0.7997 1.76425,-1.27837 2.42731,-1.72118c0.64645,-0.43173 1.30267,-0.84631 2.34653,-1.43599c0.72247,-0.40813 1.46582,-0.78638 2.16898,-1.2c0.98788,-0.58109 1.58295,-0.95319 2.24734,-1.62083c0.6196,-0.62265 1.06027,-1.39127 1.42651,-2.19383c0.35013,-0.76727 0.89432,-1.77831 1.27881,-2.47633c0.42667,-0.77461 0.67508,-1.65942 1.24384,-2.10901c0.87854,-0.69443 1.56375,-0.8622 2.22668,-1.68533c0.5321,-0.66072 0.71494,-1.72531 0.9075,-2.51466c0.24829,-1.01784 0.68579,-1.60255 1.16449,-2.2c0.64374,-0.80345 1.16663,-1.59674 1.51016,-2.14284c0.57996,-0.92192 1.07388,-1.61467 1.22049,-2.42517c0.17575,-0.97163 0.23724,-1.9043 0.58401,-2.71117c0.36465,-0.8485 0.42993,-1.5562 0.66666,-2.52083c0.20038,-0.81656 0.56769,-1.59586 0.78519,-2.60001c0.17261,-0.79697 0.48697,-1.60275 0.89883,-2.21066c0.43991,-0.64929 0.96017,-1.60106 1.07733,-2.41466c0.11752,-0.81599 0.07199,-1.85318 0.07199,-2.75385c0,-1.02083 0,-1.82083 0,-2.62083c0,-1 0,-1.79999 0,-2.79999c0,-0.8 0,-1.8 0,-2.60001c0,-1 0,-1.8 0,-2.60001c0,-1 0,-1.79999 0,-2.79999c0,-0.8 0,-1.79984 0,-2.57918c0,-0.99933 0,-1.81949 0,-2.65683c0,-1.02116 0,-1.76849 0,-2.76266c0,-0.76534 0,-1.84416 0,-2.70134c0,-0.89999 -0.1243,-1.67743 -0.57468,-2.5c-0.42728,-0.78038 -0.29367,-1.75006 -0.64667,-2.5c-0.36505,-0.77551 -0.37549,-1.60458 -0.81467,-2.46399c-0.35614,-0.69691 -0.93793,-1.32341 -1.50565,-1.936c-0.66873,-0.72159 -1.48938,-0.95157 -2.29169,-1.5c-0.67426,-0.46091 -1.36798,-1.20132 -1.92383,-1.75716c-0.72684,-0.72683 -1.24283,-1.24284 -1.75882,-1.75883c-0.72684,-0.72684 -1.48376,-1.48424 -1.98401,-1.984c-0.70099,-0.70033 -1.23734,-1.23072 -2.15268,-1.8c-0.68066,-0.42333 -1.48019,-0.87956 -2.04282,-1.39999c-0.72906,-0.67439 -1.37247,-1.43691 -1.94049,-1.9c-0.80719,-0.65806 -1.41858,-0.89944 -1.96533,-1.37067c-0.85489,-0.73678 -1.39011,-1.54198 -1.74152,-2.08117c-0.65933,-1.01166 -0.97955,-1.75283 -1.46701,-2.2865c-0.65634,-0.71853 -1.46329,-0.99504 -2.18481,-1.41434c-0.89316,-0.51904 -1.35452,-1.38762 -2.172,-1.91399c-0.74829,-0.48183 -1.73874,-0.39827 -2.33334,-0.89584c-0.78159,-0.65403 -1.15128,-1.44382 -1.67465,-2.18684c-0.34042,-0.48331 -1.01785,-1.4991 -1.70935,-2.048c-0.72232,-0.57335 -1.52005,-0.90356 -2.31601,-1.30267c-0.79953,-0.4009 -1.39999,-0.7 -2.39999,-1.2c-0.79999,-0.39999 -1.63382,-0.741 -2.35834,-1.2c-0.84396,-0.53466 -1.01416,-1.38622 -1.58331,-2c-0.66888,-0.72131 -1.42703,-1.06666 -2.43716,-1.37867c-0.66702,-0.20602 -1.57373,-0.31288 -2.52118,-0.64217c-0.74045,-0.25735 -1.48398,-0.76407 -2.24817,-1.12199c-0.8591,-0.40239 -1.91849,-0.35717 -2.77267,-0.35717c-0.90048,0 -1.8125,0 -2.4845,0c-0.98932,0 -2.02399,0 -2.79199,0c-0.83865,0 -1.85535,0.00368 -2.54999,0c-1.00604,-0.00533 -1.53223,-0.72636 -2.29935,-0.98933c-0.7934,-0.27198 -1.75784,-0.01067 -2.75201,-0.01067c-0.76532,0 -1.71597,0 -2.60132,0c-0.79999,0 -1.75717,0 -2.65717,0c-0.74734,0 -1.74152,0 -2.50684,0c-1.07883,0 -1.936,0 -2.836,0c-0.79999,0 -1.70001,0 -2.60001,0c-0.89999,0 -1.79999,0 -2.69998,0c-0.90134,0 -1.86667,-0.00007 -2.70001,0c-0.97849,0.00008 -1.68454,0.07825 -2.52084,0.5c-0.79095,0.39886 -1.52908,0.45147 -2.64581,0.66666c-0.78885,0.15201 -1.56,0.45585 -2.5,0.66667c-0.90283,0.20248 -1.78043,0.07266 -2.63333,0.51933c-0.75223,0.39395 -1.54581,0.69286 -2.22086,1.14733c-0.74203,0.49957 -1.32968,1.08282 -2.02081,1.5c-0.84296,0.50881 -1.66895,0.55598 -2.43683,1.1c-0.6441,0.45634 -1.23825,1.32617 -2.02151,1.73334c-0.74384,0.38667 -1.47214,0.83319 -1.97467,1.556c-0.46768,0.67268 -1.22861,1.15386 -2.12534,1.48917c-0.85065,0.31808 -1.75018,0.13496 -2.39999,0.64233c-0.76804,0.59967 -1.45407,0.94003 -2.14282,1.53183c-0.65912,0.56633 -0.84753,1.47833 -1.55719,2.146c-0.57635,0.54225 -1.61163,0.7 -2.27914,1.30133c-0.66119,0.59565 -0.63867,1.71394 -1.22534,2.14283c-0.75946,0.55521 -1.34702,1.17632 -2.09683,1.35583c-0.89221,0.21361 -1.24448,0.79607 -2,1.08667c-0.7684,0.29555 -1.31781,1.22603 -1.99866,1.62933c-0.82718,0.48997 -1.66574,0.79945 -2.36667,1.452c-0.52795,0.49151 -1.39734,0.85867 -1.91736,1.54934l-0.71732,0.28266l-0.91333,0.08667" id="svg_1" stroke-width="2" stroke="#000" fill="none"/>
  <path t="10726,11534,11558,11613,11646,11681,11698,11726,11743,11821,11861,11886,11941,11981,11998,12053,12072,12088,12110,12126,12150,12189,12253,12293,12333,12350,12382,12399,12436,12472,12503,12541,12581,12606,12638,12654,12672,12689,12689,12706,12722,12722,12739,12739,12757,12821" d="m430,106c-1.70001,0 -2.64282,0 -3.52084,0c-0.95831,0 -1.83737,-0.00266 -2.47916,0.5c-0.61606,0.48251 -1.71274,0.38151 -1.98932,1.11066c-0.31543,0.83158 -0.01068,1.78934 -0.01068,2.68934c0,0.89999 -0.39435,2.08238 0.28534,2.61466c0.72229,0.56566 1.3923,0.65221 2.15067,1.04933c0.76624,0.40124 1.64606,0.49494 2.39734,0.86934c0.71152,0.35459 1.66666,0.16666 2.56665,0.16666c0.89999,0 1.81259,0.14979 2.69983,-0.00017c0.85202,-0.144 1.57068,-0.80669 1.87933,-1.52067c0.34897,-0.80721 0.02084,-1.77917 0.02084,-2.67916c0,-0.9 0.3768,-1.97999 -0.16666,-2.63334c-0.57397,-0.69002 -1.51132,-0.87052 -2.35419,-1.16666c-0.7836,-0.27531 -1.65381,-0.61066 -2.45764,-1.09983l-0.61084,-0.46417l-0.81067,-0.39999l-0.89999,-0.036" id="svg_2" stroke-width="2" stroke="#000" fill="none"/>
  <path t="13366,13535,13553,13553,13553,13569,13569,13586,13586,13603,13603,13622,13622,13638,13656,13673,13690,13690,13707,13724,13724,13741,13741,13758,13775,13792,13792,13809,13825,13825,13842,13842,13842,13861,13878,13913,13931,13949,13949,13967,13982,14000,14021,14060,14077,14077,14101,14118,14141,14158,14204,14204,14244,14269,14404,14468,14485,14502,14519,14519,14536,14536,14553,14553,14571,14571,14588,14588,14605,14622,14622,14639,14656,14656,14673,14674,14690,14707,14708,14708,14725,14725,14725,14725,14742,14742,14742,14742,14742,14759,14759,14759,14759,14759,14776,14776,14776,14776,14776,14793,14793,14793,14793,14810,14811,14811,15148,15165,15182,15199,15199,15221,15221,15221,15260,15277,15296,15311,15312,15329,15330,15357,15374,15391,15391,15408,15425,15425,15447,15620,15653,15670,15670,15687,15687,15704,15704,15721,15721,15756,15774,15797,15821,15838,15855,15878,15895,15913,15913,15930,15948,15964,15965,15981,15999,15999,16015,16016,16033,16033,16050,16068,16068,16085,16102,16102,16119,16119,16119,16136,16137,16153,16153,16170,16188,16188,16205,16222,16223,16223,16240,16240,16257,16257,16274,16274,16294,16311,16328,16343,16362,16362,16377,16377,16377,16394,16412,16412,16429,16429,16446,16447,16464,16482,16499,16500,16516,16516,16516,16541,16558,16577,16594,16610,16611,16627,16642,16642,16661,16677,16694,16694,16728,16746,16763,16763,16779,16805,16806,16838,16862,16878,16902,16927,16943,16943,16966,17036,17069,17141" d="m427,107c-0.02084,-1.04166 -0.08759,-2.03268 -0.44666,-2.78933c-0.36371,-0.76644 -1.0578,-1.30006 -1.728,-1.83601c-0.83041,-0.66405 -1.26343,-1.40179 -1.82535,-2.208c-0.46704,-0.67006 -1.207,-1.18481 -1.64282,-1.86666c-0.52667,-0.82398 -0.97009,-1.61208 -1.27185,-2.5c-0.25888,-0.76175 -0.14621,-1.61588 -0.69598,-2.436c-0.4689,-0.69948 -0.84811,-1.39017 -1.38934,-2.19733c-0.5253,-0.78338 -0.88385,-1.608 -1.284,-2.36666c-0.45273,-0.85838 -0.67703,-1.56122 -1.23685,-2.3c-0.58963,-0.77815 -1.20135,-1.2951 -1.39514,-2.268c-0.14395,-0.72261 0.0528,-1.56017 -0.50934,-2.54934c-0.4451,-0.78324 -1.43329,-0.90714 -1.57483,-1.78266c-0.14606,-0.90354 -0.60114,-1.48724 -0.97452,-2.3c-0.4075,-0.88704 -0.61087,-1.74934 -1.19199,-2.43333c-0.56659,-0.66691 -1.13422,-1.21749 -1.48068,-1.86666c-0.45334,-0.84937 -0.29974,-1.83475 -0.70532,-2.60001c-0.4483,-0.84589 -0.64734,-1.7 -0.64734,-2.5c0,-0.89999 0,-1.764 0,-2.72083c0,-0.87917 0,-1.77916 0,-2.6805c0,-0.96534 0.14313,-1.66019 -0.16666,-2.632c-0.22638,-0.71015 -0.71112,-1.65781 -0.85867,-2.34134c-0.20596,-0.95425 -0.74316,-1.69545 -0.922,-2.478c-0.19473,-0.85212 -0.47,-1.72863 -1.15268,-2.44733c-0.58438,-0.61522 -1.3587,-1.12207 -1.73334,-2.06667c-0.31329,-0.78997 -0.34918,-1.65832 -0.74133,-2.42266c-0.41702,-0.81282 -0.64963,-1.73137 -0.94617,-2.47317c-0.28317,-0.70843 -0.59094,-1.57714 -0.87915,-2.6095c-0.20856,-0.747 -0.39969,-1.53074 -0.60001,-2.328c-0.20102,-0.80008 -0.39966,-1.60319 -0.63599,-2.4c-0.23828,-0.80337 -0.6738,-2.00502 -1.02118,-2.8c-0.35187,-0.80526 -0.74628,-1.60053 -0.94415,-2c-0.59528,-1.20161 -1.00238,-1.99611 -1.37784,-2.8c-0.37186,-0.79623 -0.56354,-1.18954 -0.99933,-2.39967c-0.28268,-0.78497 -0.49384,-1.56074 -0.71701,-2.286c-0.39233,-1.27492 -0.73553,-2.01585 -1.01917,-2.82633c-0.29321,-0.83791 -0.49149,-1.98245 0.16132,-2.46267c0.7323,-0.5387 1.57343,-0.60945 2.72,-0.85867c0.76678,-0.16667 1.5361,-0.15009 2.46902,-0.16667c0.86444,-0.01536 1.43848,-0.74775 2.23633,-0.97467c0.7106,-0.2021 1.71521,-0.39992 2.47083,-0.67267c0.89099,-0.32162 1.91446,-0.18897 2.75717,-0.574c0.66931,-0.3058 1.42065,-0.76825 2.384,-0.77867c0.86325,-0.00933 1.75433,0 2.73749,0c0.87851,0 1.79126,-0.09261 2.53568,0.05717c0.93002,0.18713 1.65207,0.63796 2.4425,1.04283c0.76334,0.391 1.51743,1.02007 1.883,1.7c0.44476,0.8272 0.75668,1.66666 1.20132,2.39867c0.49634,0.81709 1.40247,1.24257 1.65884,2.10133c0.258,0.86413 0.05716,1.8 0.05716,2.7c0,0.8 0,1.7 0,2.636c0,0.848 -0.07623,1.71495 0.00449,2.61133c0.08371,0.92977 0.57437,1.7253 0.82886,2.586c0.22888,0.77409 0.16666,1.81934 0.16666,2.514c0,1.02734 0,1.974 0,2.65267c0,1.11467 0,2 0,2.81433c0,0.955 0,1.7065 0,2.503c0,0.996 0,1.836 0,2.79867c0,0.768 0,1.70933 0,2.71733c0,0.86217 0,1.70834 0,2.7095c0,0.7185 0,1.509 0,2.5355c0,0.88 0,1.90033 0,2.67433c0,0.9 0,1.76333 0,2.7265c0,0.92083 -0.09085,1.82557 0.00134,2.72083c0.08368,0.81261 0.67569,1.44279 0.87717,2.34267c0.2103,0.93936 0.12082,1.68934 0.12149,2.64751c0.00067,0.97649 0,1.80983 0,2.7885c0,0.774 0,1.674 0,2.53733c0,0.96317 0,1.89467 0,2.8055c0,0.69933 0,1.6785 0,2.4785c0,0.8 -0.2077,2.0033 0,2.86666c0.18137,0.75384 0.93912,1.42722 1,2.33334c0.05362,0.7982 -0.03622,1.63681 0.00449,2.65266c0.02789,0.69611 0.51312,1.66193 0.87418,2.44733c0.39468,0.85859 0.82449,1.44266 1.54666,1.91067c0.65805,0.42646 1.20322,1.11111 1.86935,1.68933c0.71829,0.6235 1.07272,1.448 1.42133,2.10001c0.45306,0.84739 0.97018,1.62236 1.22684,2.5c0.25311,0.86555 0.05716,1.8 0.05716,2.7c0,0.8 0,1.71467 0,2.61066l0,0.88934l0,0.9" id="svg_3" stroke-width="2" stroke="#000" fill="none"/>
  <path t="17989,18118,18136,18152,18169,18169,18186,18187,18204,18204,18223,18223,18241,18241,18256,18256,18274,18290,18290,18307,18324,18342,18342,18359,18359,18375,18375,18393,18393,18409,18426,18426,18426,18442,18442,18460,18460,18476,18476,18476,18493,18493,18493,18509,18509,18509,18526,18526,18543,18543,18560,18577,18577,18595,18595,18595,18612,18612,18630,18630,18630,18647,18647,18663,18663,18680,18680,18680,18680,18697,18698,18715,18716,18716,18732,18732,18732,18750,18750,18767,18767,18784,18784,18801,18818,18818,18836,18836,18836,18852,18852,18852,18852,18869,18869,18888,18888,18888,18888,18902,18903,18921,18921,18938,18938,18955,18955,18971,18988,19013,19052,19052,19071,19093,19110,19133,19150,19188,19205,19223,19223,19240,19270,19293,19310,19327,19327,19349,19373,19405,19444,19484,19509,19541,19558,19576,19593,19594,19610,19628,19645,19646,19662,19662,19663,19680,19680,19696,19714,19714,19731,19731,19748,19748,19766,19766,19783,19800,19800,19819,19819,19819,19835,19854,19869,19870,19887,19887,19903,19920,19937,19937,19954,19954,19971,19988,19988,20005,20006,20006,20022,20022,20039,20039,20039,20056,20057,20073,20073,20090,20090,20091,20091,20107,20107,20107,20124,20124,20142,20142,20159,20159,20175,20176,20192,20193,20193,20209,20210,20227,20227,20244,20262,20262,20278,20279,20296,20296,20313,20330,20330,20348,20366,20366,20382,20402,20402,20419,20434,20434,20451,20451,20452,20468,20469,20469,20485,20502,20503,20519,20536,20536,20553,20570,20570,20587,20605,20606,20622,20622,20639,20656,20656,20673,20690,20690,20707,20707,20724,20751,20766,20821,20845,20845" d="m433,112c0,1.8 -0.00137,2.6193 0.42532,3.4c0.45087,0.82491 0.57401,1.57066 0.57468,2.60533c0.00049,0.744 -0.08661,1.86097 0.03601,2.60934c0.14636,0.89339 0.62354,1.57382 0.8425,2.58517c0.16629,0.76801 0.12149,1.77866 0.12149,2.59883c0,0.83733 -0.08914,1.86754 0.05716,2.54867c0.22705,1.05716 0.69034,1.80576 1.1095,2.65266c0.34406,0.69518 0.98743,1.29398 1.39734,2.17467c0.36432,0.78275 0.45319,1.59062 0.78867,2.478c0.26685,0.70583 0.552,1.74307 0.86884,2.66884c0.24631,0.71973 0.60489,1.26781 1.07401,2.2785c0.36716,0.79108 0.60489,1.80228 0.72983,2.59999c0.1257,0.80261 0.41208,1.61009 0.67917,2.25717c0.39761,0.9633 0.68726,1.77121 0.99551,2.59016c0.38962,1.03514 0.69299,1.72006 1.09998,2.55133c0.39331,0.80333 0.7608,1.59074 1.29984,2.37984c0.50732,0.74268 0.84686,1.55904 1.12167,2.343c0.25165,0.71786 0.79993,1.66843 1.16785,2.4785c0.26935,0.59303 0.50354,1.60349 0.63599,2.39999c0.16714,1.00525 0.48901,1.80309 0.776,2.40001c0.48331,1.00529 0.9079,1.78419 1.11465,2.80133c0.12454,0.61263 0.23834,1.76836 0.43668,2.55133c0.20908,0.82539 0.40729,1.35588 0.59467,2.59467c0.10208,0.67479 0.26831,1.87546 0.40533,2.40533c0.21317,0.82434 0.4902,1.87927 0.62201,2.81134c0.11786,0.8335 0.3165,1.63197 0.60001,2.39999c0.35022,0.94876 0.48566,1.72893 0.85065,2.66133c0.27313,0.6978 0.54138,1.67502 0.57602,2.66c0.02551,0.72571 0.2334,1.71068 0.49866,2.55634c0.22757,0.72546 0.39005,1.59998 0.47467,2.60899c0.05853,0.69806 0.04041,1.3949 0.30933,2.58c0.17239,0.75974 0.57776,1.93257 0.65884,2.722c0.05603,0.54567 0.0209,1.36398 0.06165,2.59016c0.02838,0.85382 0.20963,1.65962 0.49551,2.43634c0.36917,1.00298 0.45801,1.77466 0.50449,2.67349c0.04477,0.86597 0.61279,1.62543 0.91019,2.54733c0.27756,0.86038 0.08533,1.8 0.08533,2.60001c0,0.89999 -0.16519,1.8192 0.02084,2.7c0.17899,0.8474 0.52167,1.86581 1.20065,2.37849c0.70776,0.53442 1.7785,0.12151 2.57849,0.12151c0.90002,0 1.80002,0 2.70001,0c0.91068,0 1.82132,0 2.5,0c1.11334,0 1.97467,0 2.80133,0c0.89868,0 1.88245,0.35429 2.67783,-0.02083c0.70535,-0.33267 0.48438,-1.59583 1.22617,-1.9265c0.9006,-0.40147 1.09399,-0.88971 1.35184,-1.75267c0.26987,-0.90329 1.0961,-1.59506 1.422,-2.32083c0.42651,-0.94989 0.48822,-1.57794 0.51636,-2.37917c0.03506,-0.99806 0.00449,-1.94284 0.00449,-2.84734c0,-0.91934 0,-1.7735 0,-2.75267c0,-0.78934 0,-1.83333 0,-2.62534c0,-0.85866 0,-1.722 0,-2.62199c0,-0.91934 0.06122,-1.78928 -0.16666,-2.75267c-0.19119,-0.80833 -0.49228,-1.53334 -0.83334,-2.47917c-0.30304,-0.84042 -0.91013,-1.50838 -0.99551,-2.278c-0.09875,-0.89008 -0.03427,-1.7847 -0.50449,-2.722c-0.37317,-0.74388 -0.80887,-1.57191 -1.14734,-2.278c-0.40762,-0.85034 -0.26349,-1.76457 -0.36334,-2.61749c-0.11279,-0.96344 -0.50598,-1.64822 -0.98932,-2.62534c-0.29742,-0.60129 -0.68762,-1.40631 -1.10016,-2.19983c-0.40851,-0.78578 -1.05026,-1.65388 -1.72519,-2.17484c-0.51016,-0.39378 -1.30197,-1.1008 -1.76398,-1.8c-0.52524,-0.79491 -1.06265,-1.49879 -1.41068,-2.32533c-0.35437,-0.84163 -0.49283,-1.52298 -0.70001,-2.19917c-0.38666,-1.26199 -0.6882,-2.03427 -1,-2.69183c-0.48196,-1.01642 -0.74097,-1.62558 -1.29999,-2.44232c-0.54517,-0.79646 -1.24146,-1.33334 -1.70001,-1.92384c-0.66342,-0.85431 -0.90213,-1.45242 -1.39999,-2.44283c-0.4017,-0.79913 -0.68707,-1.4066 -1.19998,-2.39551c-0.39026,-0.75247 -0.87961,-1.53738 -1.40002,-2.09999c-0.67438,-0.72905 -1.43759,-1.37192 -1.89999,-1.94051c-0.65494,-0.80533 -1.01596,-1.52022 -1.27866,-2.3425c-0.25729,-0.80537 -0.75766,-1.63986 -1.22134,-2.34267c-0.42407,-0.64276 -1.31638,-1.31914 -1.73334,-2.01216c-0.44656,-0.74217 0.00986,-1.83397 -0.33331,-2.66667c-0.27646,-0.67087 -0.7565,-1.5462 -1.05518,-2.32133c-0.27301,-0.70859 -1.09509,-1.5399 -1.78351,-1.92599c-0.72784,-0.4082 -1.70041,-0.88036 -2.18033,-1.40083c-0.55383,-0.60066 -1.39624,-1.19209 -1.76166,-2.06168c-0.25204,-0.59978 -0.46988,-1.67134 -1.05267,-2.29016c-0.58176,-0.61772 -1.42618,-1.21675 -1.83334,-2c-0.38669,-0.74385 -0.67657,-1.54367 -1.48782,-2.1c-0.63504,-0.4355 -1.50745,-0.97938 -1.67618,-1.7c-0.20691,-0.88367 -0.72391,-1.48204 -1.51999,-2c-0.73642,-0.47913 -1.58231,-0.8571 -2.28265,-1.36933c-0.73367,-0.5366 -0.67667,-1.45654 -1.20001,-2.289c-0.46771,-0.74398 -1.08401,-1.25767 -1.87885,-1.763l-0.56381,-0.65733l-0.70667,-0.14666" id="svg_4" stroke-width="2" stroke="#000" fill="none"/>
  <path t="21413,21598,21617,21617,21633,21633,21649,21667,21667,21684,21701,21701,21718,21718,21734,21734,21734,21751,21768,21768,21785,21785,21802,21802,21818,21818,21818,21818,21835,21835,21835,21835,21852,21852,21852,21870,21870,21887,21887,21887,21904,21904,21920,21921,21921,21938,21938,21938,21938,21938,21955,21955,21955,21972,21972,21972,21989,21990,22006,22006,22006,22023,22023,22023,22024,22041,22041,22041,22058,22058,22058,22076,22076,22094,22094,22110,22110,22127,22127,22144,22145,22161,22161,22180,22180,22180,22196,22214,22214,22214,22231,22231,22246,22246,22246,22263,22264,22264,22281,22281,22298,22315,22315,22332,22349,22350,22366,22367,22383,22383,22400,22417,22434,22434,22453,22470,22487,22532,22549,22596,22669,22686,22724,22742,22766,22799,22821,22846,22862,22862,22879,22901,22918,22935,22953,22970,22989,23006,23023,23041,23084,23101,23125,23142,23159,23212,23245,23279,23301,23318,23335,23352,23369,23386,23386,23386,23403,23403,23403,23421,23421,23438,23438,23438,23455,23455,23455,23455,23472,23472,23472,23472,23489,23490,23507,23507,23507,23524,23524,23524,23524,23542,23542,23542,23558,23558,23558,23558,23576,23577,23577,23593,23593,23610,23610,23610,23627,23627,23645,23645,23660,23660,23660,23660,23677,23677,23677,23694,23694,23711,23711,23711,23727,23728,23744,23745,23745,23762,23762,23762,23762,23778,23778,23778,23795,23795,23795,23812,23812,23812,23829,23829,23829,23846,23846,23862,23863,23863,23863,23879,23879,23896,23896,23913,23913,23930,23947,23947,23963,23964,23980,23997,24014,24037,24069,24086,24103,24121,24139,24159,24159,24181,24198,24215,24215,24232,24250,24267,24285,24404,24421,24445,24462" d="m432,111c0.05716,-1.75716 0.31961,-2.67276 0.7045,-3.34734c0.45267,-0.79336 1.09515,-1.45167 1.6955,-2.05267c0.69962,-0.70039 1.30002,-1.3 1.89999,-1.9c0.70001,-0.70001 1.23599,-1.19509 1.80017,-2.02133c0.45026,-0.65941 1.04791,-1.53556 1.71451,-2.04266c0.60004,-0.45646 1.15491,-1.31705 1.75467,-1.836c0.70224,-0.6076 1.5304,-1.02145 2.18332,-1.5c0.71692,-0.52547 1.50146,-0.92329 2.414,-1.46667c0.52304,-0.31145 1.35519,-0.85262 1.93784,-1.23784c0.89709,-0.59312 1.78937,-1.1935 2.37466,-1.57466c0.56213,-0.36608 1.59323,-1.0104 2.28485,-1.38483c0.82758,-0.44803 1.63599,-0.83599 2.436,-1.236c0.79999,-0.39999 1.60849,-0.76706 2.31467,-1.2c0.75937,-0.46556 1.43933,-1.03223 2.25732,-1.40133c0.77716,-0.35068 1.40048,-0.54075 2.39465,-0.96533c0.72073,-0.30781 1.45493,-0.65623 2.172,-1.04401c0.69901,-0.37801 1.89682,-1.1803 2.38934,-1.57866c0.67151,-0.54314 1.45502,-1.21743 2.272,-1.68983c0.58847,-0.34027 1.59897,-0.83275 2.23599,-1.12083c0.92297,-0.4174 1.73083,-0.67136 2.53867,-1.036c1.07938,-0.4872 1.54135,-0.848 2.22534,-1.364c0.68399,-0.516 1.6821,-1.11999 2.22534,-1.37466c0.81918,-0.38404 1.87561,-0.91774 2.52798,-1.45067c0.60721,-0.49602 1.18427,-1.19981 1.87201,-1.764c0.81403,-0.6678 1.52777,-1.03659 2.35333,-1.28934c0.75854,-0.23223 1.69559,-0.43835 2.36865,-0.82583c0.93314,-0.53719 1.52139,-1.07538 2.49936,-1.27017c0.83075,-0.16547 1.83765,-0.30334 2.63248,-0.52533c0.75311,-0.21034 1.70999,-0.46362 2.6875,-0.5c0.66898,-0.0249 1.44498,-0.04926 2.43784,-0.35267c0.86276,-0.26366 1.81573,-0.53575 2.62085,-0.622c0.82098,-0.08795 1.86591,-0.20969 2.53867,-0.46133c0.85336,-0.31918 1.61868,-0.79825 2.39999,-1.12801c0.93353,-0.394 1.87177,-0.26984 2.63599,-0.52133c0.92014,-0.3028 1.68805,-0.81402 2.41068,-0.93999c0.99359,-0.17321 1.76819,-0.54655 2.78934,-0.80801c0.76666,-0.1963 1.46167,-0.55569 2.16669,-1c0.71893,-0.4531 1.61072,-0.29097 2.43329,-0.74133c0.78046,-0.4273 1.72168,-0.23044 2.59869,-0.42667c0.80707,-0.18058 1.41211,-1.19438 2.08533,-0.71333c0.7334,0.52405 0.99823,1.38672 1.59467,1.936c0.63501,0.5848 1.56714,0.57452 2.06866,1.13584c0.60474,0.67677 0.9505,1.63096 1.04816,2.34283c0.12244,0.89256 0.43903,1.69444 0.92053,2.49867c0.44519,0.74361 0.9386,1.24947 1.0885,2.10133c0.16309,0.92688 1.02429,1.26704 1.64282,1.75716c0.61591,0.48804 -0.13544,1.71558 0.35266,2.6095c0.32739,0.59956 0.99774,1.03783 1,1.93333c0.00226,0.9 0,1.8 0,2.7c0,0.89867 0.04346,1.82285 -0.61066,2.27467c-0.8111,0.56029 -1.63104,0.91393 -2.55603,1.25867c-0.65082,0.24255 -1.52649,0.2204 -2.51733,0.45066c-0.8222,0.19107 -1.62329,0.48197 -2.63062,0.63067c-0.66052,0.0975 -1.68768,0.04126 -2.50671,0.10667c-0.69696,0.05566 -1.82385,0.41543 -2.48846,0.684c-0.71356,0.28835 -1.42279,0.65071 -2.5235,0.96133c-0.99084,0.27963 -1.62964,0.27937 -2.48004,0.416c-1.0097,0.16223 -1.89713,0.55395 -2.8533,0.75067c-0.78168,0.16082 -1.64398,0.16133 -2.83334,0.16666c-0.60001,0.00269 -1.5,0 -2.39999,0c-0.89999,0 -1.80002,0 -2.70001,0c-0.89999,0 -1.79999,0 -2.69998,0c-0.60001,0 -1.79868,0 -2.67917,0c-0.83551,0 -1.83551,0 -2.5,0c-1.02084,0 -1.82993,-0.05626 -2.62085,0.08533c-1.01892,0.18241 -1.78445,0.62856 -2.80133,0.83067c-0.82562,0.16409 -1.76755,0.24144 -2.55582,0.43667c-0.85605,0.21201 -1.43637,0.41818 -2.64151,0.562c-0.87662,0.10461 -1.44418,0.08308 -2.716,0.08533c-0.66449,0.00117 -1.6864,-0.03188 -2.48532,0.01067c-0.80237,0.04272 -1.7912,0.38381 -2.65717,0.63667c-0.95197,0.27796 -1.77966,0.31863 -2.35352,0.378c-1.19135,0.12327 -2.08893,0.32891 -2.68933,0.47467c-0.89941,0.21836 -2.09845,0.41833 -2.68933,0.47467c-0.85321,0.08135 -1.89105,0.24107 -2.81067,0.52533c-0.6853,0.21184 -1.68707,0.39541 -2.5,0.52084c-0.8197,0.12648 -1.82178,0.53644 -2.47916,0.97916c-0.62643,0.42188 -1.62732,0.90457 -2.29285,1.01466c-1.0578,0.17498 -1.70004,0.2487 -2.70715,0.50617c-0.6622,0.1693 -1.7778,0.54288 -2.47919,0.97916c-0.8924,0.55511 -1.51706,1.04379 -2.375,1.33334c-0.8429,0.28448 -1.54822,0.64395 -2.33331,1.16666c-0.6369,0.42405 -1.69092,0.75529 -2.42267,1.02533c-0.84808,0.31298 -1.70795,0.74178 -2.32666,1.25867c-0.65695,0.54884 -1.43246,0.64514 -2.05869,1.14133c-0.66507,0.52696 -1.12738,1.15928 -1.72983,1.6845c-0.76593,0.66776 -1.05545,1.38153 -1.89551,1.90483c-0.76743,0.47807 -1.42212,1.18622 -2.10001,1.62817c-0.73392,0.47846 -1.55884,0.77848 -2.39981,1.23584c-0.7475,0.40652 -1.18417,1.03733 -1.87485,1.54666l-0.52533,0.57467l-0.55267,0.64733" id="svg_5" stroke-width="2" stroke="#000" fill="none"/>
  <path t="24886,25166,25182,25199,25199,25216,25216,25216,25233,25233,25251,25251,25268,25268,25286,25286,25286,25302,25303,25303,25319,25319,25319,25337,25337,25337,25337,25337,25354,25354,25371,25371,25371,25371,25390,25390,25390,25406,25406,25406,25423,25423,25439,25439,25439,25456,25456,25456,25456,25473,25473,25474,25474,25491,25491,25491,25508,25508,25524,25525,25525,25541,25541,25558,25575,25575,25592,25592,25592,25609,25625,25625,25642,25642,25642,25658,25658,25675,25692,25692,25709,25709,25726,25726,25743,25743,25759,25776,25794,25794,25823,25854,25933,25950,25950,25967,25984,26001,26001,26001,26019,26019,26036,26036,26052,26071,26093,26110,26148,26181,26182,26198,26222,26255,26278,26278,26295,26318,26334,26351,26373,26413,26437,26470,26487,26564,26582,26598,26621,26656,26656,26673,26674,26691,26691,26708,26743,26743,26760,26760,26777,26777,26777,26794,26794,26812,26812,26813,26830,26830,26846,26847,26864,26864,26881,26881,26881,26898,26898,26915,26915,26915,26933,26933,26950,26950,26950,26966,26966,26966,26966,26984,26984,26984,27000,27000,27019,27019,27019,27036,27036,27052,27053,27069,27086,27086,27102,27102,27119,27119,27119,27135,27152,27152,27169,27186,27203,27203,27220,27220,27237,27238,27254,27254,27271,27288,27288,27288,27307,27307,27320,27341,27359,27376,27393,27410,27428,27428,27445,27446,27463,27480,27480,27498,27516,27532,27532,27552,27552,27613,27630,27648,27664,27709,27734,27757,27804,27822,27845,27900,27917,27949" d="m423,115c-1.70001,0.05717 -2.48132,0.59836 -3.3215,0.87883c-0.86099,0.28741 -1.69519,0.42956 -2.47849,0.97184c-0.61371,0.42487 -1.39828,0.91245 -2.36401,1.16399c-0.81339,0.21186 -1.56696,0.72355 -2.32132,1.18533c-0.70648,0.43246 -1.52509,0.78036 -2.31467,1.21067c-0.6084,0.33156 -1.59567,1.08022 -2.22086,1.58933c-0.43243,0.35215 -1.39761,0.98502 -2.21515,1.38533c-0.57257,0.28035 -1.7782,0.92916 -2.36133,1.38267c-0.59647,0.46387 -1.13437,0.97753 -1.63202,1.464c-0.97263,0.95078 -1.56033,1.53691 -2.31366,2.08933c-0.71469,0.52409 -1.26724,0.87294 -1.85968,1.19467c-1.17532,0.63828 -1.78696,0.84724 -2.64017,1.17949c-1.03601,0.40343 -1.69986,0.75487 -2.55582,1.01917c-0.98642,0.3046 -1.65134,0.23956 -2.82266,0.50717c-0.81674,0.1866 -1.41742,0.36653 -2.41202,1.1115c-0.5206,0.38994 -1.15759,1.19536 -1.61932,1.71851c-0.70047,0.79364 -1.21173,1.28711 -2.04733,1.90649c-0.53528,0.39679 -1.573,1.03011 -2.26401,1.40567c-0.62665,0.34058 -1.61813,0.87659 -2.436,1.2c-0.78497,0.31039 -1.59946,0.41499 -2.39999,0.43468c-0.99521,0.02448 -1.93259,0.04445 -2.77466,0.42667c-0.81125,0.36823 -1.66119,0.50269 -2.62534,0.74133c-0.8063,0.19957 -1.58075,0.3894 -2.47916,0.85416c-0.80643,0.41716 -1.12207,1.2457 -1.85419,1.8125c-0.62042,0.4803 -1.3952,0.80174 -2.52365,1.04517c-0.82324,0.17758 -1.68054,0.08746 -2.62833,0.4055c-0.74081,0.2486 -1.71033,0.63518 -2.49384,0.69518c-0.85196,0.06523 -1.78668,0.04047 -2.67352,0.37349c-0.70639,0.26526 -1.59677,0.52205 -2.54733,0.64867c-0.80975,0.10786 -1.61819,0.44682 -2.36398,1.024c-0.62555,0.48413 -1.18118,1.18228 -1.60266,1.97467c-0.34073,0.64061 -0.82291,1.4998 -0.83334,2.30901c-0.01318,1.02423 0,1.69633 0,2.68565c0,0.8625 0,1.75351 0,2.658c0,0.86334 0,1.82651 0,2.74733c0,0.90001 0,1.8 0,2.70001c0,0.89999 0,1.7 0,2.59999c0,0.864 0.48215,1.5807 0.87866,2.40001c0.31781,0.65663 0.86603,1.43774 1.08533,2.29999c0.22095,0.86876 0.75287,1.47079 1.02533,2.17467c0.34174,0.88286 0.30066,1.81847 1.1105,2.304c0.72977,0.43753 1.28241,0.91064 2.09885,1.12267c0.80045,0.20787 1.30115,0.98825 2.24432,0.99867c0.77829,0.00859 1.75684,0 2.53616,0c0.99933,0 1.84653,0.21179 2.66367,0c0.8902,-0.23071 1.23383,-0.89688 2.01434,-1.65266c0.54657,-0.52925 1.32202,-1.21347 2.14282,-1.71133c0.58609,-0.3555 1.62323,-0.79634 2.17917,-1.15683c0.8985,-0.58261 1.36124,-1.33112 1.7735,-1.82651c0.67807,-0.8148 1.44641,-1.20544 2.22601,-1.75267c0.66904,-0.46964 1.49979,-1.11273 2.23199,-1.5c0.78223,-0.41373 1.58957,-0.79951 2.18933,-1.09999c0.99908,-0.50055 1.827,-0.86505 2.43335,-1.46667c0.60043,-0.59575 0.8844,-1.41429 1.58798,-2.20799c0.49695,-0.56059 1.34695,-1.11412 1.85068,-1.46133c0.8331,-0.57422 1.72983,-1.16127 2.32666,-1.564c0.88324,-0.59598 1.46011,-0.97958 2.23468,-1.60001c0.72028,-0.57692 1.328,-1.15594 2,-1.83333c0.65372,-0.65894 1.15207,-1.34267 1.57733,-1.992c0.45914,-0.70108 1.24292,-1.41608 1.93665,-1.87016c0.76837,-0.50294 1.42081,-1.13733 2.06335,-1.7045c0.72357,-0.63872 1.38596,-1.06131 2.42267,-1.43333c0.65182,-0.2339 1.50583,-0.58917 2.16666,-1.1875c0.53082,-0.48062 1.14801,-1.36368 2,-1.8125c0.74173,-0.39073 1.56512,-0.82159 2.41068,-1.14134c0.88251,-0.33372 1.62,-0.49638 2.42267,-1.02533c0.69583,-0.45854 1.46854,-1.13696 2.16666,-1.47917c0.81305,-0.39854 1.72598,-0.52135 2.41068,-0.95683c0.79584,-0.50618 1.46918,-0.90379 2.10532,-1.44933c0.79999,-0.68602 1.13257,-1.45854 1.43134,-2.3575c0.28375,-0.85384 0.80823,-1.61507 1.08868,-2.36784c0.30725,-0.82474 0.71408,-1.70164 1.29733,-2.38933c0.539,-0.63553 1.30176,-1.01723 1.74933,-1.8c0.40991,-0.7169 1.12003,-1.39732 1.71732,-2c0.59201,-0.59735 0.92087,-1.49216 1.42169,-2.29983c0.40356,-0.65082 1.51364,-0.60013 2.20898,-0.98417c0.73184,-0.40421 0.75812,-1.40776 1.28534,-2c0.53607,-0.60218 1.03094,-1.45318 1.24799,-2.316c0.21973,-0.8735 -0.1138,-1.81258 0.03616,-2.69983c0.14401,-0.85204 0.96384,-1.33617 1.00433,-2.19567l0.42084,-0.6685" id="svg_6" stroke-width="2" stroke="#000" fill="none"/>
  <path t="29981,30151,30168,30185,30185,30202,30221,30221,30257,30274,30292,30317,30436,30454,30500,30540,30571,30583,30668,30788,30806,30829" d="m456,160c-0.05716,-1.7 -0.54181,-2.4803 -1.19867,-3.2c-0.53348,-0.58452 -0.77374,-1.45403 -1.08533,-2.28267c-0.31165,-0.82881 -1.21072,-1.20576 -1.65884,-1.8745c-0.46957,-0.70076 -0.41928,-1.57927 -1.05716,-2.14284c-0.5835,-0.51552 -0.55066,-1.35052 -1.05716,-2.14284c-0.39703,-0.62111 -1.58566,-0.41432 -2.1095,-1.19049l-0.71185,-0.38817l-0.12164,-0.87834l-0.28384,-0.81483" id="svg_7" stroke-width="2" stroke="#000" fill="none"/>
  <path t="33381,33535,33554,33554,33570,33570,33570,33587,33587,33587,33603,33603,33603,33620,33620,33788,33788,33844,33900,33917,33948" d="m456,163c-0.01068,-1.82533 -0.08932,-2.88319 -0.54166,-3.5c-0.54041,-0.73691 -1.30447,-1.3176 -1.80566,-1.9045c-0.65955,-0.77229 -0.9968,-1.4158 -1.53668,-2.19551c-0.56866,-0.82127 -1.11212,-1.38293 -1.63199,-1.91466c-0.7215,-0.73793 -1.33038,-1.34052 -1.77951,-2.138c-0.47095,-0.83623 -0.66849,-1.71133 -0.7045,-2.64734l-0.00134,-0.89867l-0.35132,-0.74417" id="svg_8" stroke-width="20" stroke="#fff" fill="none"/>
  <path t="35957,36031,36049,36071,36083,36100,36117,36117,36134,36150,36181,36205,36222,36247" d="m451,154c0,-1.7 0.17804,-2.62201 -0.02084,-3.5c-0.21799,-0.96233 -0.73187,-1.65054 -1.14581,-2.5c-0.31787,-0.65227 -0.76813,-1.53206 -1.186,-2.3c-0.45758,-0.84091 -0.64734,-1.7 -0.814,-2.53333l-0.71201,-0.38817" id="svg_9" stroke-width="20" stroke="#fff" fill="none"/>
  <path t="38757,38894,38894,38912,38912,38929,38947,38947,38965,38981,38982,39005,39023,39059,39100,39117,39141,39188,39221,39269,39301,39301,39333,39389,39406,39423,39440" d="m441,142c0.97467,1.836 1.02896,2.61787 1.35266,3.5955c0.2525,0.7626 0.42822,1.77121 1.09,2.5045c0.45963,0.50929 1.42847,1.09221 1.55734,1.89999c0.12677,0.79449 0.61276,1.58208 0.97467,2.39999c0.34656,0.78323 1.117,1.1568 1.74133,1.68533c0.58752,0.49736 -0.12723,1.73724 0.34116,2.55751c0.46432,0.81317 0.94284,1.35716 0.94284,2.15717c0,0.91466 0,1.81067 0,2.7l0.01068,0.88933l0.48932,0.61067" id="svg_10" stroke-width="2" stroke="#000" fill="none"/>
  <path t="40421,40606,40623,40639,40639,40657,40657,40674,40674,40692,40709,40756,40804,40821,40845,40862,40878,40895,40913,40930,40930,40947,40947,40965,40982,40998,41015,41016,41033,41052,41069,41086,41123,41157,41174,41190,41228,41268,41301,41333,41333,41357,41391,41414,41431" d="m468,166c-1.05267,-1.7 -1.55899,-2.49457 -2.10001,-3.32133c-0.43137,-0.65918 -0.86545,-1.5403 -1.39999,-2.15784c-0.56497,-0.65269 -0.93774,-1.34486 -1.52533,-2.08482c-0.53763,-0.67705 -0.89215,-1.38477 -1.58533,-2c-0.65842,-0.58437 -1.32944,-0.98683 -1.742,-1.73601c-0.46179,-0.83855 -1.07028,-1.34956 -1.56332,-1.98666c-0.56,-0.72363 -0.63962,-1.69319 -0.91736,-2.54666c-0.24136,-0.74173 -0.58423,-1.58374 -1.36533,-2.08267c-0.73233,-0.46777 -1.18741,-1.22235 -1.51733,-1.884c-0.42056,-0.84335 -0.47278,-1.69177 -1,-2.284c-0.53607,-0.60217 -1.02869,-1.45375 -1.24799,-2.31599c-0.22095,-0.86876 -0.55853,-1.49535 -1.06134,-2.21068c-0.50885,-0.72394 -0.91379,-1.48322 -0.97467,-2.38933c-0.05362,-0.7982 -0.08533,-1.71466 -0.87851,-2.2215l-0.12149,-0.87834l0,-0.87483" id="svg_11" stroke-width="2" stroke="#000" fill="none"/>
  <path t="44341,44646,44664,44680,44697,44698,44715,44732,44732,44749,44766,44766,44783,44783,44783,44801,44801,44818,44818,44818,44818,44835,44836,44836,44853,44853,44853,44870,44870,44870,44887,44887,44903,44903,44904,44921,44921,44921,44938,44939,44939,44955,44955,44972,44972,44972,44973,44973,44990,44990,44990,44990,45007,45007,45007,45024,45024,45024,45024,45041,45041,45041,45060,45060,45060,45076,45076,45092,45092,45092,45109,45126,45143,45143,45160,45160,45177,45193,45210,45227,45245,45245,45269,45286,45304,45320,45338,45338,45338,45355,45355,45372,45372,45372,45372,45389,45389,45390,45406,45406,45406,45406,45425,45425,45425,45441,45441,45459,45459,45475,45475,45492,45492,45508,45508,45525,45525,45543,45543,45543,45560,45576,45577,45593,45593,45610,45610,45610,45626,45626,45643,45644,45661,45661,45661,45677,45677,45695,45712,45712,45712,45729,45729,45729,45746,45746,45763,45763,45764,45781,45781,45781,45798,45798,45798,45798,45815,45815,45815,45815,45832,45833,45850,45850,45850,45867,45867,45883,45883,45883,45901,45901,45918,45918,45935,45935,45935,45953,45953,45953,45969,45969,45986,45986,46003,46003,46021,46037,46038,46057,46072,46072,46090,46106,46107,46123,46123,46140,46140,46157,46174,46191,46191,46212,46229,46253,46285,46341,46341,46372,46397,46414,46437,46453,46485,46517,46549,46549,46604,46651,46707,46724,46741,46804,46829,46863,46884,46916,46916,46933,46956,46981,47220,47239,47254,47271,47272,47272,47287,47288,47288,47305,47305,47322,47322,47322,47339,47339,47355,47355,47372,47389,47389,47406,47406,47424,47441,47441,47458,47458,47458,47475,47475,47475,47493,47493,47510,47510,47527,47527,47527,47544,47544,47544,47561,47561,47579,47579,47596,47596,47596,47613,47613,47613,47614,47630,47630,47630,47630,47647,47647,47647,47647,47664,47665,47665,47681,47681,47681,47699,47699,47715,47715,47733,47733,47733,47749,47749,47767,47768,47786,47786,47803,47803,47818,47818,47818,47836,47837,47837,47853,47853,47853,47869,47869,47870,47886,47887,47887,47904,47904,47904,47904,47905,47921,47921,47921,47921,47921,47937,47937,47938,47938,47938,47954,47954,47954,47954,47955,47971,47971,47971,47971,47988,47988,47988,47988,48005,48005,48005,48005,48021,48022,48022,48022,48022,48038,48038,48038,48038,48055,48055,48055,48072,48072,48072,48090,48090,48107,48108,48108,48125,48125,48142,48142,48159,48176,48193,48193,48194,48210,48228,48228,48229,48245,48246,48262,48263,48263,48285,48285,48302,48302,48319,48336,48336,48336,48353,48353,48370,48412,48437,48454,48471,48488,48505,48505,48522,48523,48540,48565,48589,48613,48637,48655,48708,48725" d="m236,217c0,-1.7 0.11195,-2.60939 -0.02083,-3.52083c-0.14395,-0.98804 -0.58807,-1.64211 -0.89517,-2.59384c-0.28255,-0.87567 -0.83099,-1.42326 -1.048,-2.29599c-0.21997,-0.88463 0.00551,-1.81773 -0.25749,-2.78934c-0.16649,-0.61507 -0.58853,-1.39574 -1.07851,-2.40451c-0.30545,-0.62888 -0.69461,-1.56427 -1.0045,-2.34816c-0.32585,-0.82426 -0.52827,-1.39673 -1.17949,-2.36333c-0.47874,-0.71059 -1.07845,-1.34085 -1.49434,-2.10533c-0.42395,-0.7793 -0.70927,-1.61575 -0.90033,-2.65718c-0.16399,-0.89389 -0.13435,-1.54228 -0.4785,-2.5215c-0.28917,-0.8228 -0.73154,-1.60614 -1.16367,-2.42082c-0.35515,-0.66956 -0.96883,-1.65895 -1.29384,-2.2045c-0.48602,-0.81583 -0.97282,-1.84587 -1.12399,-2.53868c-0.18057,-0.82751 -0.38243,-1.86519 -0.744,-2.47198c-0.58128,-0.97552 -1.09038,-1.44637 -1.56801,-2.01068c-0.50401,-0.59549 -1.04131,-1.20604 -1.60649,-2.27449c-0.3739,-0.70685 -0.5997,-1.46686 -0.89101,-2.16901c-0.53288,-1.28445 -0.91144,-1.79504 -1.4265,-2.52449c-0.66772,-0.94568 -1.07762,-1.73402 -1.3045,-2.28534c-0.3335,-0.81038 -0.72083,-1.81599 -1.02083,-2.5c-0.3,-0.68401 -0.7,-1.68401 -1,-2.5c-0.3,-0.81599 -0.68961,-1.81946 -1,-2.47917c-0.48392,-1.02855 -0.84491,-1.59529 -1.14284,-2.36366c-0.38699,-0.99808 -0.28134,-1.98073 -0.52383,-2.82384c-0.1956,-0.68005 -0.73976,-1.6552 -0.82266,-2.42267c-0.09781,-0.90546 -0.00999,-1.81065 -0.01067,-2.71066c-0.00067,-0.89999 -0.30084,-1.75082 -0.64734,-2.39999c-0.45335,-0.84938 -0.35042,-1.8 -0.35266,-2.7c-0.00226,-0.90453 -0.1458,-1.77547 -0.436,-2.436c-0.34113,-0.77643 -0.87592,-1.76299 -1.164,-2.39999c-0.41742,-0.923 -0.70493,-1.71947 -1,-2.57468c-0.2034,-0.58951 -0.59181,-1.79274 -0.81065,-2.38933c-0.33214,-0.90541 -0.7433,-1.80692 -1.07333,-2.39867c-0.4971,-0.89133 -0.88766,-1.42973 -1.49434,-2.47984c-0.39088,-0.67657 -0.78465,-1.50984 -0.96899,-2.5215c-0.14465,-0.79382 -0.27939,-1.59813 -0.55267,-2.39999c-0.34004,-0.99773 -0.48199,-1.78886 -0.5,-2.83334c-0.01364,-0.79189 0.04839,-1.65609 -0.036,-2.37733c-0.11697,-0.99972 -0.54379,-1.76618 -0.79733,-2.78933c-0.19244,-0.77659 -0.16515,-1.51466 -0.16667,-2.62534c-0.00117,-0.86 0.03761,-1.60201 -0.22133,-2.57466c-0.21794,-0.81863 -0.65964,-1.79366 -0.74268,-2.60001c-0.08202,-0.79653 -0.03546,-1.8 -0.036,-2.6c-0.00067,-1 0.03571,-1.81598 -0.22133,-2.8c-0.16017,-0.61317 -0.57666,-1.38481 -0.72151,-2.3955c-0.13065,-0.91154 0.00273,-1.79767 -0.27849,-2.72617c-0.22379,-0.7389 -0.54854,-1.35634 -0.726,-2.631c-0.07582,-0.54461 -0.07449,-1.37857 -0.40533,-2.59467c-0.18729,-0.6884 -0.50012,-1.61675 -0.59467,-2.40533c-0.09828,-0.81982 -0.18935,-1.88931 -0.40984,-2.59917c-0.2235,-0.71951 -0.65451,-1.77799 -0.94284,-2.758c-0.20847,-0.70857 -0.39261,-1.44408 -0.7,-2.52351c-0.19402,-0.68134 -0.49786,-1.62005 -0.64284,-2.20499c-0.31398,-1.26691 -0.2807,-1.9563 -0.52383,-2.96167c-0.19763,-0.81722 -0.59544,-1.58988 -0.74933,-2.40134c-0.15685,-0.82705 -0.29018,-2.02401 -0.44116,-2.54683c-0.23033,-0.79757 -0.69388,-1.94446 -1.14284,-2.51017c-0.63518,-0.80035 -1.23938,-1.33572 -1.60001,-2.0845c-0.33784,-0.70149 -0.57904,-1.51742 -1,-2.53567c-0.28587,-0.69151 -0.68973,-1.52538 -1.2,-2.517c-0.29411,-0.57157 -0.92169,-1.50404 -1.39999,-2.15717c-0.52298,-0.71415 -0.90302,-1.4083 -1.216,-2.362c-0.28693,-0.87426 -0.74701,-1.43771 -1.3795,-2.18533c-0.6394,-0.7558 -0.71466,-1.55383 -1.31517,-2.3c-0.52789,-0.65595 -1.12375,-1.19287 -1.304,-2.168c-0.13358,-0.7226 -0.08533,-1.89867 -0.08533,-2.69033c0,-0.94167 0.13167,-1.89173 -0.22133,-2.64167c-0.36504,-0.77553 -0.59038,-1.62746 -0.81467,-2.5c-0.21912,-0.85242 -0.96175,-1.45266 -0.964,-2.4c-0.00191,-0.8 0,-1.7 0,-2.6c0,-0.9 0,-1.8 0,-2.7c0,-0.9 0,-1.8 0,-2.7c0,-0.8 -0.01067,-1.70007 0,-2.6c0.01042,-0.87935 0.39168,-1.60892 1.084,-2.116c0.70924,-0.51947 1.34586,-0.65462 2.1375,-1.1625c0.74646,-0.47889 1.7789,-0.09613 2.57851,-0.1215c0.90135,-0.0286 1.62222,-0.68533 2.4955,-0.94283c0.8374,-0.24692 1.90915,-0.28437 2.5835,0.16433c0.82909,0.55166 1.18469,1.08667 1.91701,1.3785c1.03279,0.41157 1.79346,0.62415 2.54233,1.15717c0.69528,0.49488 1.07872,1.31659 1.82834,2.07616c0.59888,0.60682 1.26044,0.84387 1.948,1.65067c0.54358,0.63785 0.86397,1.62971 1.58533,2.15433c0.71004,0.51638 1.65271,0.67776 2.10001,1.24833c0.68732,0.87674 0.94914,1.66708 1.5,2.35617c0.64388,0.80544 1.2012,1.28427 2.02133,1.8575c0.66353,0.46378 1.27382,0.81672 1.79333,1.669c0.43472,0.71318 0.65361,1.56078 1.08533,2.544c0.37404,0.85188 0.873,1.68886 1.436,2.312c0.65491,0.72486 1.21016,1.19223 1.71133,1.77917c0.65941,0.77225 1.13869,1.5919 1.45132,2.1955c0.51263,0.98973 0.84758,1.78047 1.40268,2.516c0.50911,0.67461 1.27808,1.37695 1.84033,1.90483c0.41472,0.38936 1.3806,1.17812 1.911,1.58367c0.82346,0.62962 1.39676,1.04771 2.12584,1.817c0.48764,0.51453 1.11563,1.38586 1.52016,1.97984c0.6086,0.89359 0.9911,1.50133 1.60133,2.36266c0.39346,0.55537 0.99661,1.31728 1.58934,2c0.55052,0.6341 1.19263,1.43386 1.71066,2.236c0.38647,0.59841 0.97067,1.41079 1.5,1.97916c0.81329,0.87328 1.33479,1.43796 2.16667,2.02084c0.6311,0.4422 1.40352,0.72975 2.07616,1.3045c0.61121,0.52225 0.91934,1.47295 1.6425,2.12617c0.66658,0.60211 1.54866,0.5174 2.51334,0.856c0.79805,0.28011 1.59793,1.02152 1.976,1.54933c0.53535,0.74737 1.09871,1.5749 1.64616,2.164c0.56831,0.61156 1.38358,1.39448 1.76851,1.8c0.56198,0.59206 1.31317,1.61024 1.73149,2.2c0.4334,0.611 1.2468,1.40341 1.74051,1.81067c0.78777,0.64982 1.58003,1.34857 2.05733,1.87333c0.48563,0.53391 0.94624,1.12619 1.536,1.632c0.96037,0.82368 1.80531,1.23617 2.66617,1.684c0.4379,0.22781 1.33047,0.65421 2.14584,1.16666c0.7809,0.49078 1.4726,1.05682 2.112,1.644c0.63002,0.57856 1.52321,1.48732 2.11684,2.08933c0.29483,0.299 0.88263,0.88734 1.41916,1.5c1.02899,1.17501 1.4516,1.79602 1.91068,2.364c0.4505,0.55735 1.1817,1.33195 2.01065,2.01067c0.56506,0.46266 1.18088,0.89081 2.064,1.64684c0.61102,0.52308 1.20331,1.09595 1.80002,1.683c0.90503,0.8904 1.49866,1.49416 1.7955,1.791c0.58365,0.58366 1.14969,1.14499 2.18298,2.18317c0.46542,0.46761 1.12317,1.13597 1.52017,1.60533c0.82758,0.97839 1.19254,1.54782 1.80133,2.36333c0.59152,0.7924 1.1886,1.49741 1.57916,1.911c0.83957,0.88904 1.43799,1.37645 2.02084,2.20833c0.4422,0.63111 0.71634,1.41635 1.41068,2.19733c0.42764,0.48101 1.48663,0.93104 2.01999,1.436c0.71927,0.68098 1.04196,1.58469 1.56934,2.36666c0.43088,0.63889 0.7836,1.36102 1.39999,2.208c0.58469,0.80339 1.00574,1.45834 1.30002,2.02983c0.51001,0.99042 0.89999,1.7955 1.29999,2.5955c0.39999,0.8 0.69135,1.40439 1.20001,2.39867c0.39331,0.76878 0.95523,1.54144 1.36398,2.19067c0.49182,0.78116 0.86359,1.74507 1.29733,2.23599c0.47427,0.5368 1.38419,1.19296 1.85202,1.97333c0.49521,0.82602 0.72113,1.59578 1.20264,2.40001c0.44522,0.74362 0.86298,1.35474 1.44119,2.09683c0.58051,0.74504 1.53183,0.80698 2.03217,1.56583c0.40308,0.61131 0.53992,1.65199 0.96332,2.43867c0.4537,0.84296 0.86868,1.57866 1.59467,2.05266l0.478,0.62201l0.60001,0.59999l0.62201,0.47801" id="svg_12" stroke-width="2" stroke="#000" fill="none"/>
  <path t="50677,50799,50799,50815,50815,50815,50815,50815,50815,50832,50833,50833,50833,50833,50833,50850,50850,50850,50850,50850,50850,50868,50868,50868,50868,50885,50885,50885,50885,50902,50902,50902,50902,50919,50919,50919,50919,50919,50937,50937,50937,50954,50954,50954,50972,50972,50972,50972,50989,50989,50989,50989,51006,51006,51006,51006,51023,51023,51023,51023,51040,51041,51041,51041,51041,51041,51057,51057,51057,51057,51074,51074,51074,51074,51092,51092,51092,51092,51110,51110,51110,51110,51110,51126,51126,51126,51126,51145,51145,51145,51145,51160,51161,51161,51161,51178,51178,51178,51178,51195,51195,51195,51211,51212,51212,51212,51228,51229,51229,51229,51246,51246,51246,51262,51263,51263,51263,51263,51279,51279,51279,51279,51296,51296,51296,51296,51296,51313,51313,51313,51313,51331,51331,51331,51331,51348,51348,51348,51365,51365,51382,51382,51382,51399,51399,51399,51399,51417,51417,51434,51452,51452,51469,51485,51502,51519,51519,51537,51537,51537,51554,51554,51555,51572,51572,51572,51572,51588,51588,51589,51605,51605,51622,51622,51639,51657,51657,51692,51710,51711,51726,51727,51756,51756,51773,51790,51791,51807,51837,51837,51853,51870,51887,51887,51905,51923,51923,51949,51982,52000,52000,52021,52037,52055,52072,52090,52090,52106,52107,52123,52143,52143,52158,52158,52176,52192,52192,52209,52209,52227,52227,52244,52262,52279,52279,52296,52427,52444,52461,52478,52496,52496,52514,52514,52542,52579,52627,52660,52715,52741,52757,52775,52792,52792,52809,52809,52826,52843,52860,52860,52877,52894,52894,52911,52928,52928,52928,52946,52946,52946,52963,52963,52981,52981,52981,52998,52998,52998,53015,53015,53015,53015,53032,53032,53050,53050,53050,53067,53085,53085,53101,53102,53102,53118,53118,53135,53135,53152,53152,53152,53169,53170,53187,53187,53206,53207,53222,53222,53222,53240,53240,53257,53257,53258,53273,53274,53274,53291,53291,53308,53308,53308,53308,53325,53325,53341,53341,53358,53358,53374,53391,53408,53408,53425,53425,53425,53442,53442,53442,53459,53476,53476,53493,53509,53510,53526,53527,53544,53544,53561,53561,53578,53579,53595,53596,53613,53613,53630,53630,53630,53647,53647,53647,53665,53665,53665,53682,53682,53699,53699,53699,53716,53716,53733,53733,53733,53750,53750,53767,53767,53767,53784,53784,53784,53784,53800,53801,53801,53801,53818,53818,53818,53818,53837,53837,53837,53853,53853,53869,53870,53886,53887,53887,53906,53906,53922,53940,53940,53940,53956,53973,53973,53989,53989,54006,54006,54022,54022,54023,54040,54040,54040,54056,54056,54073,54073,54073,54090,54090,54090,54106,54106,54106,54106,54123,54123,54123,54123,54139,54139,54140,54140,54157,54157,54157,54173,54174,54190,54190,54191,54207,54207,54224,54224,54241,54241,54241,54258,54258,54258,54276,54276,54276,54293,54293,54310,54328,54344,54344,54366,54366,54397,54429,54446,54463,54463,54480,54480,54497,54497,54525,54549,54566,54583,54583,54660,54677,54795,54845,54871" d="m314,284c0.90399,1.43201 1.59204,1.85495 2.5,2.5c0.76328,0.54227 1.17004,0.86224 2.02084,1.5625c0.44312,0.36472 0.90521,0.7229 2.14581,1.9375c0.39935,0.39099 1.12488,1.19427 1.47202,1.58932c0.67868,0.77234 0.97729,1.18448 2.02798,2.24402c0.69662,0.70251 1.08163,1.01468 1.83334,1.64581c0.37253,0.31277 1.12997,0.90332 2.17834,1.82068c0.66907,0.58545 1.28323,1.17603 1.85999,1.74301c0.7995,0.78595 1.26868,1.28122 1.96167,1.93631c0.44693,0.42249 1.42209,1.22043 1.95715,1.62985c0.56433,0.43182 1.1777,0.87332 2.04285,1.72433c0.62131,0.61115 1.18625,1.3093 1.76401,1.97998c0.54776,0.63583 1.29196,1.45071 2,1.98935c0.61301,0.46634 1.45715,0.99573 2.03598,1.54401c0.62378,0.59085 1.20209,1.31839 1.8045,2.10599c0.41779,0.54623 0.81461,1.13077 1.56216,1.88068c0.74969,0.75204 1.34787,1.14963 1.88068,1.61932c1.06137,0.93567 1.5,1.5 1.95267,2.04733c0.45267,0.54733 1.41248,1.58954 1.96167,2.05182c0.57065,0.48035 1.21295,0.94244 2.20499,1.78152c0.35931,0.30392 1.08893,0.96893 1.8125,1.6875c0.36325,0.36075 1.06415,1.08548 1.6875,1.8125c0.57449,0.67004 1.05661,1.32355 1.72433,2.20499c0.60474,0.79828 1.20737,1.51474 1.62985,1.96167c0.65509,0.69299 1.40335,1.41867 1.93182,1.95715c0.55032,0.56076 1.11517,1.12973 1.88068,2.04285c0.49484,0.59024 0.94162,1.20337 1.35599,1.836c0.42056,0.64209 1.01401,1.68353 1.41068,2.41666c0.40338,0.74551 0.7854,1.50287 1.39999,2.58069c0.39078,0.68533 0.78525,1.33005 1.20001,1.91998c0.77301,1.09949 1.19998,1.56268 1.79999,2.24667c0.60001,0.68399 1.20471,1.41785 1.79999,2.22534c0.40323,0.54697 0.77377,1.11227 1.60135,2.09067c0.397,0.46936 1.05469,1.13779 1.76532,1.85065c0.51651,0.51816 1.33334,1.33334 1.88068,1.88068c0.78601,0.78601 1.26733,1.26733 1.93182,1.93182c0.41635,0.41635 1.23804,1.20505 1.82083,1.84216c0.61871,0.67639 1.20758,1.50729 1.60135,2.14667c0.41742,0.67776 0.80438,1.40225 1.284,2.06403c0.69382,0.95734 1.26273,1.46884 1.83551,1.94714c0.57474,0.47992 1.78455,1.43637 2.37915,1.978c0.3028,0.27582 0.9021,0.85138 1.5,1.44418c0.90302,0.89529 1.49551,1.49417 2.07916,2.07782c0.56369,0.56369 1.35419,1.35419 2.06369,2.06369c0.43631,0.43631 1.04956,1.06213 1.85715,1.85583c0.59543,0.58517 1.17795,1.14651 2,1.71732c0.58514,0.40631 1.61493,1.03296 2.20001,1.54117c0.61627,0.53531 1.39703,1.34583 1.79999,1.74152c0.59567,0.58493 1.17996,1.1441 2.19101,1.84415c0.6817,0.47198 1.20633,1.10379 1.69299,1.95718c0.36624,0.64224 0.31152,1.63922 0.78799,2.36398c0.48636,0.73981 1.60095,0.76633 1.92801,1.45685c0.45172,0.95374 1.05045,1.46661 1.60266,1.86316c0.81204,0.58316 1.40808,1.14859 2.08267,1.71732c0.72537,0.61154 1.54141,1.19678 2.08932,1.59869c0.54272,0.3981 1.56165,1.17618 2.18369,1.79999c0.57712,0.57874 1.15445,1.39984 1.63098,2.164c0.5087,0.81573 0.97452,1.46317 1.61069,2.03467c0.75964,0.68243 1.29309,1.08182 2.02148,1.67999c0.72879,0.59848 1.45886,0.84647 2.08301,1.42133c0.56372,0.51923 1.53598,1.07492 2.21149,1.5c0.74454,0.46851 1.52655,0.92474 2.284,1.28403c0.86539,0.41049 1.39551,1.12054 2,1.71597c0.69485,0.68445 1.54706,1.03644 2.30002,1.42136c0.76318,0.39017 1.53662,0.74478 2.38266,0.78c0.80872,0.03366 1.40564,0.71353 1.95334,1.43466c0.56796,0.7478 1.12125,1.20984 1.86398,1.8595c0.66446,0.58121 1.29059,1.08899 1.98666,1.62048c0.72723,0.5553 1.51331,0.57874 2.54669,0.91736c0.74121,0.24289 1.57547,0.59348 2.26666,1.26666c0.50656,0.49335 1.13959,1.30472 1.78534,1.61465c0.87927,0.422 1.97156,0.41083 2.61465,0.80618c0.85605,0.52628 1.4754,1.02295 2.33334,1.3125c0.8429,0.28448 1.6297,0.74033 2.46664,1.11398c0.77219,0.34476 1.46686,0.89853 2.30002,1.04199c0.88699,0.15274 1.79999,0.01068 2.69998,0.01068c0.90134,0 1.86667,0 2.70001,0c0.97849,0 1.6955,0 2.60001,0c0.89999,0 1.79999,0.00067 2.69998,0c0.89868,-0.00067 1.68567,-0.32272 2.20001,-1.02084c0.48502,-0.65833 0.70117,-1.60663 1.2045,-2.0845c0.73975,-0.70236 1.12875,-1.38702 1.27466,-2.37381c0.12076,-0.81674 0.02084,-1.84216 0.02084,-2.52084c0,-0.97849 0.03436,-2.00073 0,-2.79999c-0.03604,-0.83832 -0.55823,-1.69653 -1.04166,-2.22086c-0.54721,-0.59351 -1.35703,-1.37784 -1.9375,-1.95831c-0.53552,-0.53552 -1.2897,-1.25394 -1.7735,-1.83069c-0.59619,-0.71075 -1.0567,-1.46194 -1.65186,-2.18481c-0.57071,-0.69318 -1.2247,-1.16351 -1.99548,-1.81067c-0.83322,-0.69958 -1.21497,-1.19058 -1.76401,-1.98001c-0.3638,-0.5231 -0.91583,-1.55093 -1.336,-2.173c-0.61569,-0.91159 -1.38831,-1.31665 -1.93066,-1.84033c-0.65237,-0.62988 -0.84146,-1.69272 -1.17999,-2.41199c-0.37482,-0.79633 -0.78906,-1.58948 -1.18933,-2.38934c-0.39975,-0.79883 -0.74374,-1.60135 -1.30017,-2.37866c-0.48883,-0.68289 -1.22116,-1.34265 -1.72519,-1.84668c-0.69064,-0.69064 -1.33997,-1.24789 -1.87015,-1.92731c-0.66776,-0.85571 -0.96002,-1.43344 -1.18301,-2.44736c-0.17319,-0.78748 -0.12149,-1.79999 -0.12149,-2.59998c0,-0.80002 0.10724,-1.82413 -0.11432,-2.60001c-0.30185,-1.05707 -0.953,-1.58163 -1.31769,-2.28534c-0.49478,-0.95468 -0.51764,-1.81894 -0.65067,-2.63068c-0.16495,-1.00665 -0.49969,-1.66354 -0.75067,-2.85065c-0.16415,-0.77643 -0.15363,-1.33319 -0.16531,-2.14935c-0.01758,-1.22672 -0.00183,-2.09317 -0.22269,-2.88382c-0.22266,-0.79715 -0.69034,-1.77448 -0.77731,-2.59885c-0.09479,-0.89825 -0.62466,-1.67477 -0.87985,-2.52283c-0.20358,-0.67657 -0.12149,-1.6785 -0.12149,-2.48917c0,-0.87466 0,-1.87201 0,-2.66849c0,-0.7515 0,-1.8595 0,-2.84216c0,-0.85333 0,-1.79333 0,-2.67868c0,-0.75717 0.05331,-1.66351 -0.05716,-2.40451c-0.15039,-1.00888 -0.52487,-1.77737 -1.04266,-2.57416c-0.51517,-0.79279 -0.789,-1.68546 -0.95285,-2.36865c-0.22223,-0.9267 -0.70651,-1.61316 -0.89917,-2.66251c-0.14145,-0.77032 -0.33066,-1.85294 -0.758,-2.53302c-0.42697,-0.6795 -1.14905,-1.44049 -1.53299,-2.05716c-0.48584,-0.7803 -0.85718,-1.60001 -1.25717,-2.39999c-0.29999,-0.60001 -0.79999,-1.60001 -1.10001,-2.20001c-0.5,-1 -0.89999,-1.79999 -1.19998,-2.39999c-0.5,-1 -0.80002,-1.60001 -1.30002,-2.60001c-0.29999,-0.59998 -0.68134,-1.40964 -1.2045,-2.39999c-0.32019,-0.60611 -0.85806,-1.40329 -1.34818,-2.00449c-0.5177,-0.63501 -1.20499,-1.5499 -1.59467,-2.35266c-0.26974,-0.55573 -0.61255,-1.45633 -1.07416,-2.34302c-0.31921,-0.61319 -0.8949,-1.53241 -1.27982,-2.18515c-0.6076,-1.03036 -0.99356,-1.75867 -1.37784,-2.47302c-0.3631,-0.67496 -0.83032,-1.55795 -1.38486,-2.34433c-0.41708,-0.59146 -0.94513,-1.34967 -1.336,-2.10184c-0.5134,-0.98798 -0.72806,-1.65347 -1.46664,-2.42883c-0.58237,-0.61139 -1.39209,-0.98737 -1.72351,-1.81934c-0.32733,-0.82172 -0.57513,-1.7019 -1.10983,-2.51398c-0.4238,-0.64365 -0.80881,-1.34329 -1.38934,-2.19736c-0.49692,-0.73105 -0.65384,-1.53748 -1.04666,-2.47198c-0.24362,-0.57959 -0.73056,-1.58389 -1.19998,-2.36401c-0.49496,-0.82257 -1.02487,-1.39297 -1.53867,-2c-0.66949,-0.79099 -1.08701,-1.38962 -1.52084,-2.19998c-0.42313,-0.79034 -0.806,-1.59927 -1.3045,-2.60001c-0.3009,-0.60403 -0.71271,-1.452 -1.10016,-2.42133c-0.2113,-0.52863 -0.46445,-1.39221 -1.0665,-2.41202c-0.44037,-0.74594 -0.86163,-1.1604 -1.43466,-1.85065c-0.60681,-0.73099 -1.20557,-1.55481 -1.63467,-2.12668c-0.44543,-0.59363 -1.18106,-1.49283 -1.71219,-2.08484c-0.52692,-0.58731 -1.09207,-1.10739 -1.90881,-2.18298c-0.50299,-0.66241 -0.83673,-1.31564 -1.34302,-2.3215c-0.30161,-0.59918 -0.79996,-1.60001 -1.09998,-2.20001c-0.39999,-0.79999 -0.88486,-1.80676 -1.20001,-2.37915c-0.47739,-0.86703 -1.02087,-1.52081 -1.66666,-2.1875c-0.65872,-0.67999 -1.22504,-1.26642 -1.66669,-2c-0.45712,-0.75928 -0.73895,-1.61478 -1.16666,-2.66667c-0.28857,-0.70975 -0.5061,-1.38553 -1.20001,-2.28c-0.4444,-0.57283 -1.46518,-0.80432 -2.19998,-1.32268c-0.67288,-0.47469 -1.20001,-1.164 -1.89999,-1.864c-0.5,-0.5 -1.37329,-1.11549 -1.64285,-2c-0.26294,-0.86279 -0.37173,-1.72688 -1.078,-2.2c-0.7926,-0.53096 -1.56442,-0.96611 -1.85782,-1.82117c-0.26956,-0.7856 -0.64627,-1.53372 -1.12134,-2.19966c-0.56992,-0.79889 -1.09399,-1.40302 -1.564,-2.07918c-0.56012,-0.8058 -1.01068,-1.42532 -1.43466,-2.116l-0.03735,-0.85866l-0.67999,-0.50934" id="svg_13" stroke-width="2" stroke="#000" fill="none"/>
  <path t="59685,59838,59839,59839,59855,59855,59855,59873,59873,59892,59892,59892,59892,59908,59908,59908,59925,59925,59925,59925,59941,59941,59941,59941,59958,59958,59958,59958,59975,59975,59975,59992,59992,60008,60008,60009,60026,60026,60026,60042,60042,60059,60059,60077,60077,60093,60093,60110,60110,60127,60127,60144,60144,60161,60178,60195,60212,60229,60229,60247,60264,60299,60315,60316,60332,60332,60332,60349,60349,60366,60366,60383,60400,60400,60417,60435,60435,60453,60453,60470,60470,60489,60508,60525,60542,60558,60576,60593,60593,60610,60626,60626,60643,60661,60678,60678,60695,60712,60729,60729,60747,60747,60764,60765,60781,60798,60815,60815,60832,60832,60875,60908,60925,60964,60981,60981,60998,61015,61044,61076,61111,61128,61128,61145,61163,61180,61197,61197,61221,61253,61276,61308,61459,61476,61493,61510,61510,61528,61548,61565,61565,61582,61582,61599,61599,61616,61616,61634,61634,61653,61670,61670,61686,61702,61702,61702,61720,61720,61720,61736,61736,61736,61753,61753,61770,61770,61770,61787,61787,61804,61804,61821,61821,61837,61837,61837,61860,61860,61877,61877,61894,61894,61911,61911,61929,61929,61946,61946,61964,61964,61981,61981,61998,61998,62015,62015,62032,62033,62033,62049,62049,62066,62066,62083,62083,62083,62102,62102,62102,62119,62119,62119,62135,62135,62135,62152,62152,62152,62152,62152,62168,62169,62169,62169,62185,62185,62185,62202,62203,62203,62203,62219,62220,62220,62220,62237,62237,62237,62254,62254,62254,62254,62271,62271,62271,62288,62288,62305,62305,62305,62323,62323,62323,62323,62339,62340,62340,62357,62357,62357,62374,62374,62374,62391,62391,62409,62426,62443,62462,62462,62478,62495,62495,62512,62512,62528,62529,62546,62668,62668,62708,62742,62742,62760,62760" d="m79,335c-1.3045,-2.00983 -1.60871,-2.79901 -1.88533,-3.31732c-0.54747,-1.02582 -1.10418,-1.67575 -1.716,-2.19601c-0.76222,-0.64813 -1.62524,-1.07465 -2.39867,-1.65332c-0.6228,-0.46597 -1.21358,-1.06802 -1.6,-1.52002c-0.83135,-0.97244 -1.19378,-1.55219 -1.636,-2.08798c-0.89725,-1.08713 -1.43962,-1.55029 -1.98933,-1.98935c-0.80994,-0.64688 -1.62057,-1.22144 -2.322,-1.84048c-0.46113,-0.40695 -1.137,-1.08051 -1.874,-1.81683c-0.53158,-0.5311 -1.07867,-1.07867 -1.626,-1.62601c-0.786,-0.78601 -1.49101,-1.491 -2.106,-2.10599c-0.68001,-0.68002 -1.21952,-1.22314 -2.01334,-2.01334c-0.48938,-0.48715 -1.01097,-1.04971 -1.83333,-1.66669c-0.76082,-0.5708 -1.56888,-0.89508 -2.24283,-1.47116c-0.61111,-0.52237 -1.03463,-1.36166 -1.45717,-2.04282c-0.57019,-0.91919 -1.13235,-1.51669 -1.6,-2.30984c-0.43052,-0.73019 -0.77858,-1.55405 -1.2,-2.32199c-0.47616,-0.86771 -0.96873,-1.5318 -1.7,-2.21951c-0.57648,-0.54214 -1.5901,-0.80042 -1.79866,-1.60266c-0.2266,-0.87161 -0.41119,-1.62442 -1.10133,-2.29849c-0.57891,-0.56543 -1.34176,-1.03741 -1.984,-1.61618c-0.64957,-0.58536 -1.04214,-1.31671 -1.56267,-1.91998c-0.62827,-0.72812 -1.25274,-1.13895 -1.784,-1.96533c-0.4824,-0.7504 -0.41423,-1.62845 -0.85466,-2.51334c-0.38179,-0.76706 -1.22976,-1.37064 -1.8145,-1.98535c-0.55774,-0.58633 -0.8209,-1.5636 -1.34683,-2.31067c-0.37259,-0.52924 -1.22783,-1.21844 -1.692,-1.76398c-0.6572,-0.77237 -0.42206,-1.83499 -1.032,-2.54001c-0.57383,-0.66327 -1.60278,-0.61865 -2.182,-1.23267c-0.59346,-0.62909 -1.07758,-1.30673 -1.52617,-2.15268c-0.35505,-0.66956 -1.12159,-1.13712 -1.78783,-1.89999c-0.5244,-0.60046 -0.85077,-1.35034 -1.24933,-2.20001c-0.40361,-0.86041 -0.69713,-1.51514 -1.10933,-2.39999c-0.37972,-0.81512 -1.07547,-1.49921 -1.57467,-2c-0.70113,-0.70337 -1.2213,-1.27188 -1.7,-2.05267c-0.41896,-0.68338 -1.08883,-1.53186 -1.53333,-2.34732c-0.42956,-0.78806 -1.05656,-1.10294 -1.556,-1.86133c-0.40273,-0.61154 -0.50681,-1.80692 -1.036,-2.52802c-0.51612,-0.70328 -1.34835,-0.88071 -1.796,-1.71066c-0.34933,-0.64764 -0.93367,-1.33356 -1.426,-1.95267c-0.51473,-0.64728 -0.64062,-1.43581 -1.23133,-2.16882c-0.52085,-0.64632 -0.63016,-1.55751 -1.12133,-2.25768c-0.51902,-0.73987 -0.8285,-1.42287 -1.16667,-2.35416c-0.2514,-0.69235 -1.03484,-1.3625 -1.66667,-2c-0.59469,-0.60002 -1.12395,-1.36365 -1.16667,-2.26668c-0.04252,-0.89899 0.15994,-1.77145 1,-1.89999c0.79528,-0.12169 1.53791,-0.74707 2.41067,-0.964c0.88446,-0.21985 1.764,-0.036 2.70533,-0.036c0.768,0 1.72,0 2.48533,0c0.99867,0 1.79867,0 2.79733,0c0.76533,0 1.91017,-0.17331 2.70133,0.2215c0.68921,0.34393 1.1566,1.14203 2.06667,1.7785c0.63898,0.44688 1.23155,0.71274 2.236,1.2c0.63513,0.30811 1.35918,0.6275 2.564,0.99867c0.66879,0.20604 1.34044,0.39441 2.53333,0.63466c0.79897,0.16092 1.67712,0.30911 2.52083,0.6875c0.58827,0.26382 1.57918,0.77916 2.17917,1.07918c0.99985,0.49997 1.80901,0.85219 2.63333,1.39999c0.69405,0.46124 1.3222,1.01926 2.00267,1.39999c0.75362,0.42168 1.77144,0.8784 2.328,1.20001c0.97433,0.563 1.55759,1.14903 2.32133,1.59866c0.69986,0.41203 1.71876,0.65524 2.49384,0.80133c1.00587,0.18958 1.61544,0.60527 2.32533,1.3045c0.58522,0.57642 1.15258,1.20773 1.87017,1.83417c0.63593,0.55515 1.45976,0.73434 2.4735,0.87482c0.6549,0.09076 1.21798,1.056 1.4025,1.74652c0.24518,0.91748 0.79823,1.60608 1.552,2.03732c0.7743,0.44296 1.59869,0.7464 2.376,1.30283c0.68288,0.48883 1.33474,1.22955 1.85733,1.72519c0.55998,0.5311 1.564,1.29065 2.164,1.67465c0.6,0.384 1.39259,0.99469 2.02084,1.5c0.65557,0.52728 1.66065,1.12753 2.22583,1.37466c0.90707,0.39664 1.92384,0.78348 2.63734,1.11066c0.74545,0.34183 1.49625,0.71494 2.23199,1.116c1.07068,0.58365 1.72857,0.9892 2.34234,1.39868c0.58608,0.39102 1.62765,1.1915 2.0845,1.60001c0.65749,0.58795 1.45717,1.39999 2.06167,2.00449c0.6315,0.6315 1.08084,1.08084 1.81683,1.81683c0.53133,0.53134 1.07866,1.07867 1.89467,1.89468c0.76249,0.76248 1.22683,1.22684 1.87333,1.87332c0.81068,0.81067 1.41067,1.41068 1.81067,1.81067c0.60001,0.60001 1.38846,1.41086 2,1.97916c0.58912,0.54745 1.40719,1.12573 2.2,1.64618c0.80749,0.53009 1.40938,1.02182 2,1.58533c0.81314,0.77579 1.4,1.38934 1.8,1.78934c0.60001,0.60001 1.4,1.39999 2,2c0.6,0.60001 1.2,1.20001 1.8,1.79999c0.60001,0.60001 1.39983,1.39984 1.98933,1.98935c0.5535,0.5535 1.32426,1.32642 1.90617,1.90616c0.60338,0.60114 1.59438,0.91162 2.18317,1.526c0.65237,0.68073 0.87238,1.33591 1.62133,1.79935c0.75622,0.46796 1.08265,1.17587 1.69867,2.09515c0.43214,0.64487 0.52461,1.60693 0.88533,2.31467c0.41235,0.80902 1.27869,1.30502 2.06533,1.59467c0.82148,0.30249 1.07233,1.19617 1.61234,1.67917l0.88651,0.59549l0.642,0.40002" id="svg_15" stroke-width="2" stroke="#000" fill="none"/>
  <path t="64029,64173,64173,64173,64190,64190,64190,64190,64207,64207,64207,64207,64207,64207,64224,64224,64224,64224,64224,64224,64241,64241,64241,64241,64241,64241,64258,64258,64258,64258,64258,64275,64275,64275,64275,64275,64293,64293,64293,64293,64310,64310,64310,64310,64327,64327,64327,64344,64344,64344,64363,64363,64363,64379,64379,64379,64398,64398,64413,64413,64413,64431,64431,64431,64447,64447,64447,64463,64463,64463,64480,64480,64480,64481,64497,64497,64497,64515,64515,64515,64532,64532,64532,64549,64549,64566,64566,64566,64583,64583,64599,64599,64617,64617,64635,64635,64635,64652,64669,64686,64686,64703,64703,64720,64720,64738,64755,64755,64772,64772,64789,64789,64806,64806,64823,64823,64840,64857,64874,64892,64892,64910,64926,64945,64963,64979,64995,64996,65012,65012,65029,65029,65045,65045,65045,65062,65062,65079,65079,65096,65235,65235,65262,65302,65319,65336,65354,65354,65371,65371,65388,65388,65405,65406,65423,65441,65458,65478,65478,65493,65516,65533,65550,65567,65585,65602,65602,65619,65619,65636,65637,65637,65654,65654,65670,65670,65670,65687,65687,65703,65704,65720,65720,65720,65738,65738,65755,65755,65755,65772,65773,65789,65789,65790,65806,65807,65823,65841,65841,65841,65860,65860,65876,65877,65877,65892,65893,65910,65910,65927,65927,65943,65943,65960,65960,65977,65977,65977,65994,65994,65994,66011,66011,66028,66028,66028,66028,66045,66045,66045,66062,66062,66079,66079,66096,66096,66114,66114,66114,66131,66131,66149,66149,66166,66166,66183,66183,66183,66201,66201,66218,66218,66234,66234,66252,66269,66286,66286,66303,66303,66303,66320,66320,66337,66355,66355,66373,66396,66413,66430,66448,66448,66465,66465,66465,66483,66500,66500,66517,66552,66569,66569,66627,66628,66645,66661,66796,66813,66829,66847,66847,66865,66883" d="m124,387c0.71433,2.01434 1.03832,2.54382 1.409,3.10901c0.78429,1.1958 1.19178,1.80136 1.63267,2.41183c0.4641,0.64261 1.28774,1.64926 1.60134,2.00067c0.66312,0.74307 1.39763,1.50034 1.77834,1.88916c0.38661,0.39487 1.57866,1.58932 1.97849,1.98917c0.79565,0.79565 1.1895,1.18951 1.96417,1.96417c0.37883,0.37881 1.46985,1.46881 1.8145,1.81467c0.66533,0.66763 1.30583,1.3165 1.91701,1.974c0.30576,0.32895 1.2079,1.36588 1.80449,2.09998c0.30173,0.37128 0.89404,1.12689 1.5,1.86334c0.59419,0.72217 1.18977,1.4071 1.8,2.03732c0.59026,0.60959 1.18719,1.17532 2.09984,1.92551c0.58759,0.483 1.20851,0.91028 1.743,1.431c1.09933,1.07098 1.50229,1.78952 1.72118,2.13019c0.63818,0.99323 1.19791,1.8981 1.8315,2.49298c0.53822,0.50534 1.40108,1.1752 1.77916,1.703c0.53534,0.74734 1.09871,1.57489 1.64616,2.164c0.56831,0.61157 1.37784,1.39868 1.76851,1.78934c0.72534,0.72534 1.51019,1.42093 1.90616,2.02051c0.59708,0.90414 0.7605,1.7262 1.18983,2.42215c0.52504,0.8511 1.16196,1.23697 1.716,1.73599c0.83997,0.75656 1.21053,1.27805 1.7415,2.08383c0.66455,1.00851 1.02426,1.72711 1.40984,2.40085c0.55795,0.97498 0.89122,1.50909 1.45799,2.32199c0.38182,0.54764 0.97546,1.31622 1.58934,1.98935c0.58698,0.64362 1.40704,1.42899 1.98933,2.03598c0.37943,0.39551 1.21144,1.38629 1.57466,2c0.46373,0.78354 0.836,1.60001 1.23601,2.40002c0.39999,0.79999 0.79984,1.60007 1.09999,2.19998c0.49974,0.99881 0.85687,1.79211 1.40001,2.57867c0.46446,0.67264 0.96532,1.36554 1.42082,2.02133c0.60146,0.86594 1.3181,1.34311 1.99518,1.79868c0.8553,0.57547 1.21985,1.36029 1.65067,2.20132c0.3403,0.66434 1.17438,1.27155 1.63333,1.88535c0.547,0.73151 0.88136,1.45032 1.17467,2.48932c0.22139,0.78427 0.49025,1.6601 1.02533,2.45868c0.45462,0.67853 1.0605,1.31323 1.75717,1.86667c0.69075,0.54877 1.47942,0.81268 2.35616,1.5c0.57057,0.4473 1.01685,1.2482 1.60268,1.884c0.575,0.62405 1.12062,1.36081 1.80133,1.63065c0.91411,0.36234 1.48473,0.89493 2.18716,1.33801c0.7719,0.48691 1.61732,0.83527 2.46217,1.11398c0.67578,0.22293 1.63959,0.87405 2.20799,1.22269c0.90846,0.55722 1.64609,0.59369 2.62534,0.61066c0.79996,0.01385 1.61331,0.03976 2.60001,0.35266c0.81265,0.25769 1.79616,0.59497 2.564,0.63666c0.94933,0.05154 1.836,0.01068 2.636,0.01068c0.91466,0 1.2,-0.7045 1.2,-1.60001c0,-0.81067 0,-1.72131 0,-2.57465c0,-0.94135 0,-1.70935 0,-2.66135c0,-0.76532 0,-1.75949 0,-2.67868c0,-0.96448 0,-1.88531 0,-2.78983c0,-0.86215 0,-1.67465 0,-2.64484c0,-0.90134 0,-1.80783 0,-2.66132c0,-0.88934 0,-1.80002 0,-2.71066c0,-0.67868 0.00058,-1.6575 0,-2.48853c-0.00067,-0.9595 0.02568,-1.71613 -0.08533,-2.50748c-0.1413,-1.00735 -0.52324,-1.87302 -0.91467,-2.68268c-0.38725,-0.80099 -0.76375,-1.58984 -0.94733,-2.60001c-0.14427,-0.79388 -0.31631,-1.80896 -0.5735,-2.39999c-0.44244,-1.01678 -0.77917,-1.60001 -1.17917,-2.39999c-0.5,-1 -0.80301,-1.59851 -1.3,-2.60001c-0.2973,-0.59912 -0.7088,-1.38428 -0.916,-2.39999c-0.16139,-0.79117 -0.30119,-1.80148 -0.584,-2.60001c-0.21289,-0.6011 -0.33786,-1.61856 -0.584,-2.51468c-0.24612,-0.89606 -0.92287,-1.64786 -1.31599,-2.31067c-0.40717,-0.68646 -1.04068,-1.53412 -1.40001,-2.14398c-0.45343,-0.76959 -0.66098,-1.54791 -1,-2.26266c-0.53947,-1.13739 -1.05299,-1.6192 -1.4955,-2.42517c-0.39662,-0.72241 -0.59738,-1.74634 -0.72983,-2.54285c-0.16713,-1.00507 -0.44009,-1.81268 -0.97467,-2.63333c-0.45485,-0.69824 -1.09349,-1.49222 -1.52083,-2.1875c-0.35892,-0.58395 -0.96317,-1.37915 -1.47917,-1.97916c-0.51601,-0.60001 -1.12482,-1.39603 -1.62534,-2.23599c-0.55112,-0.9249 -0.858,-1.44843 -1.37466,-2.26401c-0.34689,-0.54761 -0.9783,-1.57846 -1.364,-2.25333c-0.43443,-0.76013 -1.06285,-1.60135 -1.436,-2.13068c-0.64838,-0.91974 -0.90089,-1.52005 -1.39999,-2.51599c-0.30055,-0.59973 -0.8,-1.60001 -1.2,-2.39999c-0.3,-0.60001 -0.78169,-1.60852 -1.10001,-2.17917c-0.56792,-1.0181 -1.13661,-1.62131 -1.60001,-2.34235c-0.43556,-0.67776 -0.89265,-1.68225 -1.2,-2.27399c-0.39072,-0.75223 -1.02882,-1.63022 -1.5,-2.28851c-0.53372,-0.74567 -0.87346,-1.48123 -1.39867,-2.23065c-0.49174,-0.70166 -0.68401,-1.59711 -0.83733,-2.52133c-0.14487,-0.87323 -0.57254,-1.57574 -0.964,-2.36401c-0.39783,-0.80106 -0.80705,-1.59653 -1.19867,-2.39868c-0.37206,-0.76208 -0.57896,-1.76746 -0.968,-2.60132c-0.30678,-0.65753 -0.70956,-1.56735 -1.18599,-2.2955c-0.50424,-0.77066 -1.25365,-1.20599 -1.56467,-2.18982c-0.2229,-0.70511 -0.50478,-1.72928 -0.93333,-2.30402c-0.42416,-0.56885 -0.93663,-1.5007 -1.37067,-2.31067c-0.40486,-0.75549 -0.66844,-1.61154 -1.21468,-2.336c-0.56534,-0.74979 -1.2581,-1.15723 -1.47867,-2.048c-0.2084,-0.84167 -0.07597,-1.88498 -0.58533,-2.51599c-0.50595,-0.6268 -1.02177,-1.34625 -1.37866,-2.10001c-0.40437,-0.85406 -0.73201,-1.5 -1.41684,-2.19998l-0.53783,-0.70001" id="svg_16" stroke-width="2" stroke="#000" fill="none"/>
  <path t="68653,68782,68782,68799,68799,68799,68816,68816,68833,68833,68833,68850,68850,68867,68867,68886,68886,68902,68918,68918,68940,68964,68981,68998,69015,69033,69052,69052,69068,69068,69085,69102,69118,69135,69135,69153,69153,69169,69185,69185,69203,69228,69245,69245,69269,69302,69320,69320,69337,69356,69388,69389,69468,69508,69525,69724,69758,69758,69776,69776,69793,69810,69810,69828,69828,69845,69863,69908,69948,69965,69981,70004,70021,70044,70068,70093,70125,70142,70284,70301,70317,70317,70334,70351" d="m56,371c0,-1.84668 0.01125,-2.68677 -0.00134,-3.68399c-0.0103,-0.81619 -0.02227,-1.6463 -0.28267,-2.63068c-0.23571,-0.89105 -0.59698,-1.67899 -0.68,-2.48532c-0.08202,-0.79657 -0.036,-1.80002 -0.036,-2.60001c0,-1 0,-1.80002 0,-2.79984c0,-0.77933 0,-1.77866 0,-2.80017c0,-0.79999 0,-1.70001 0,-2.60001c0,-0.89999 0,-1.79999 0,-2.69998c0,-0.90002 0,-1.80017 0,-2.58536c0,-0.94 -0.01228,-1.63071 0,-2.70398c0.01042,-0.91086 0.49281,-1.65085 0.83333,-2.57733c0.23166,-0.63031 0.16667,-1.66669 0.16667,-2.52884c0,-0.82535 0,-1.78851 0,-2.65182c0,-0.89551 -0.05437,-1.85434 0.00017,-2.75269c0.04273,-0.70386 0.56366,-1.47003 1.00883,-2.25717c0.42344,-0.74872 1.37162,-1.05475 1.82034,-1.84283c0.45325,-0.79605 0.17067,-1.79999 0.17067,-2.59998c0,-0.90002 0,-1.80002 0,-2.70001c0,-0.87866 -0.09149,-0.48746 0.05717,0.25717c0.18461,0.92474 0.72645,1.55771 0.90683,2.61749c0.15896,0.93393 -0.10302,1.67227 0.25733,2.60382c0.3009,0.77783 0.76825,1.52133 0.77867,2.42151c0.01041,0.89993 -0.14979,1.81259 0.00017,2.69983c0.144,0.85202 0.98322,1.31766 1.49983,1.90018c0.53448,0.60266 0.93131,1.38373 1.55267,2.05267c0.60049,0.64645 1.01699,1.35638 1.59467,2c0.53385,0.59479 1.058,1.24731 1.78467,1.74731l0.54667,0.80002l0.04217,0.87915" id="svg_17" stroke-width="2" stroke="#000" fill="none"/>
  <path t="71341,71532,71549,71567,71584,71605,71956,71956,71973,71996,71997" d="m58,369c0,1.70001 -0.35489,2.79266 0.036,3.564c0.35378,0.69812 0.98285,1.20978 1.31667,2.08868c0.26792,0.70538 0.622,1.71133 0.93267,2.54599l0.516,0.51599" id="svg_18" stroke-width="2" stroke="#000" fill="none"/>
 </g>
 <g display="none">
  <title>muse_image</title>
  <image xlink:href="http://farm3.static.flickr.com/2200/2002198357_585adf1007.jpg" id="muse" height="427" width="640" y="26.5" x="0"/>
 </g>
 <g display="none">
  <title>bbox</title>
  <rect stroke="#f00" fill="none" stroke-width="3" height="424.44311" width="605.44" y="26.5" x="0" id="bbox"/>
 </g>
</svg>
