<svg width="640" height="480" xmlns="http://www.w3.org/2000/svg" xmlns:svg="http://www.w3.org/2000/svg" xmlns:xlink="http://www.w3.org/1999/xlink">
 <!-- Sketchy ANNOTATION
  ImageNet ID: n02691156_24584
  URL: http://farm3.static.flickr.com/2281/2261571183_aa2961268a.jpg
  Image Width: 500
  Image Height: 333
  BBox X: 44
  BBox Y: 90
  BBox Width: 427
  BBox Height: 138
  Exposure: 2000ms
  Synset Label: airplane
  Synset ID: n02691156
  Worker Tag: rear view of airplane on landing strip
  Sanity Check: 
   Saved
  Comment: 
   {}
  Worker ID: A2HM35CWB7IIFM
  Assignment ID: 39L1G8WVWQR102E372PI51T4PFM13Y
  HIT ID: 3ICOHX7ENCB2GRBOA1XCL3J54Q30ER
  Work Time: 284s
  Worker Score: 0.7857
 END ANNOTATION -->
 <g display="inline">
  <title>Layer 1</title>
  <path t="0,382,417,444,478,495,527,527,563,613,613,624,637,655,662,673,687,687,703,704,710,734,748,759,759,771,788,797,798,820,820,837,837,846,846,858,870,871,871,894,894,895,907,922,939,957,980,981,994,1017,1031,1031,1042,1042,1054,1070,1079,1080,1080,1092,1092,1103,1104,1120,1120,1120,1128,1140,1153,1170,1178,1178,1202,1220,1220,1227,1227,1240,1261,1262,1263,1266,1267,1267,1276,1277,1278,1288,1288,1303,1313,1314,1326,1337,1353,1487,1488,1523,1524" d="m217.78334,260.5c1.8,0 2.7,0 3.59999,0c0.8,0 1.7045,0 2.72134,0c0.67867,0 1.65717,0 2.67867,0c0.8,0 1.7,0 2.59999,0c0.90001,0 1.8,0 2.60133,0c0.96533,0 1.84352,-0.13358 2.77718,0.22134c0.65961,0.25073 1.52135,0.76596 2.42149,0.77866c0.89993,0.01266 1.64455,0.31104 2.40001,0.716c0.75595,0.40521 1.51277,0.89563 2.40266,1.19867c0.73134,0.24902 1.80266,0.08533 2.54666,0.08533c0.91733,0 1.86534,0 2.73466,0c0.86334,0 1.7634,-0.01096 2.68266,0c0.87518,0.01044 1.52733,0.05161 2.51601,0.284c0.80338,0.18881 1.52977,0.53455 2.64534,0.67999c0.96449,0.12573 1.87199,0.03601 2.77199,0.03601c0.89999,0 1.6944,0.09494 2.39999,0.5c0.79831,0.45828 1.8201,0.72443 2.5,1c0.83182,0.33713 1.6958,0.47733 2.60001,0.5c0.92148,0.02313 1.71237,0.45432 2.42084,1c0.57327,0.44156 1.5791,0.89041 2.17917,1.01468c0.99991,0.20706 1.77682,0.56516 2.79999,0.81866c0.77658,0.19241 1.51468,0.16599 2.58936,0.16666c0.91064,0.00058 1.85522,-0.09546 2.61066,0.284c0.86719,0.43558 1.22583,1.08963 2.02167,1.59451c0.80453,0.51041 1.60367,0.12149 2.61166,0.12149c0.86218,0 1.70834,0 2.7095,0c0.71851,0 1.509,0 2.53583,0c0.92133,0 1.60535,0 2.60535,0c0.81598,0 1.63199,0 2.85431,0c0.80002,0 1.70901,0 2.62836,0c0.83331,0 1.95224,-0.33173 2.66666,0.16666c0.71738,0.50043 1.33334,0.83334 2.16666,0.83334l0.97852,0l0.71701,0" id="svg_1" stroke-width="2" stroke="#000" fill="none"/>
  <path t="9227,9560,9572,9594,9620,9637,9644,9644,9657,9657,9670,9670,9670,9670,9687,9687,9692,9693,9693,9705,9705,9705,9719,9719,9719,9719,9736,9736,9742,9753,9779,9779,9791,9791,9803,9804,9830,9830,9844,9853,9853,9869,9869,9877,9877,9878,9890,9890,9890,9890,9902,9902,9902,9919,9919,9919,9927,9927,9927,9938,9938,9954,9954,9970,9977,9977,9987,10004,10004,10004,10019,10019,10025,10025,10025,10037,10037,10037,10061,10062,10062,10067,10067,10067,10080,10080,10089,10089,10103,10103,10103,10112,10112,10124,10136,10136,10152,10160,10161,10173,10173,10186,10186,10202,10203,10203,10209,10209,10209,10210,10221,10222,10222,10235,10235,10235,10247,10247,10259,10270,10296,10320,10321,10345,10345,10357,10358,10369,10394,10406,10406,10432,10432" d="m327.78333,150.5c0,3.45834 0,4.3 0,5.2c0,0.90001 -0.35825,1.965 0.16669,2.63335c0.49078,0.62485 1.52579,0.84959 2.008,1.424c0.72192,0.85997 1.07764,1.69135 1.3045,2.24266c0.3335,0.81039 0.7525,1.80159 1.08484,2.68933c0.2995,0.80002 0.37891,1.6259 0.51999,2.496c0.16342,1.00795 0.36658,1.55559 0.56332,2.47633c0.21356,0.99951 0.30502,2.08157 0.33185,2.79668c0.0253,0.67439 -0.17438,1.80949 0.078,2.72816c0.21271,0.7742 0.80133,1.53162 1.1095,2.48016c0.21866,0.673 0.73868,1.65584 0.82266,2.45866c0.08936,0.8541 -0.02109,1.75624 0.36334,2.62199c0.29749,0.66995 0.48544,1.61391 0.814,2.58601c0.23865,0.7061 0.76233,1.48331 0.82266,2.37733c0.06665,0.98747 0.01065,1.61066 0.01065,2.56c0,0.87216 0,1.89066 0,2.61465c0,0.73201 0,1.79301 0,2.76801c0,0.88499 0,1.92534 0,2.62134c0,0.90933 0,1.90933 0,2.72533c0,0.81601 -0.13837,1.83716 0.07202,2.65334c0.2258,0.87596 1.19925,1.10011 1.75732,2.04666c0.41547,0.70465 0.09744,1.60612 0.20667,2.472c0.11142,0.88333 0.48053,1.84453 0.61133,2.37984c0.3064,1.25394 0.34225,1.92719 0.35266,2.94817c0.00827,0.81062 0,1.68533 0,2.68533c0,0.83551 0,1.41917 0,2.6145c0,0.8895 0,1.743 0,2.77867c0,0.6855 0,1.52016 0,2.5215c0,0.8 -0.03949,1.80403 0.03601,2.636c0.08493,0.93594 0.32004,1.71123 0.53867,2.50267c0.30856,1.11703 0.41998,1.83995 0.42532,2.78217c0.00543,0.96315 -0.1297,1.66228 0.00452,2.722c0.11111,0.87732 0.75589,1.48479 0.93832,2.41432c0.14429,0.73517 0.05716,1.74284 0.05716,2.54283c0,1.00034 0,1.84167 0,2.57068c0,1.19865 0,1.89066 0,2.61465c0,0.73201 -0.01077,2.1283 0.01068,2.76801c0.02972,0.88571 0.19501,1.93002 0.41467,2.61067c0.27145,0.84109 0.54468,1.83025 0.57333,2.75066c0.02643,0.84892 0.00131,1.78534 0.00131,2.68533c0,0.90034 0,1.77068 0,2.56801c0,0.98132 0,1.89865 0,2.69034c0,0.94165 0.00452,1.84167 0.284,2.74298l0.43201,0.68402l0.22684,0.77182l0.05585,0.94418" id="svg_3" stroke-width="2" stroke="#000" fill="none"/>
  <path t="11738,11884,11898,11898,11910,11925,11926,11970,12045,12045,12081,12105,12126,12142,12143,12167,12179,12179,12191,12203,12227,12230,12264,12264,12278,12278,12288,12288,12288,12305,12305,12321,12321,12338,12355,12371,12376,12387,12387,12404,12405,12405,12412,12412,12412,12424,12424,12436,12437,12437,12452,12452,12462,12462,12485,12503,12503,12510,12510,12522,12522,12542,12551,12565,12575,12575,12588,12602,12602,12609,12609,12609,12621,12621,12635,12635,12636,12652,12659,12683,12683,12683,12696,12696,12719,12745,12745,12756,12768,12769,12787,12787,12787,12787,12794,12794,12794,12806,12806,12819,12819,12835,12836,12844,12844,12868,12892,12904,12919,12919,12936,12941,12953,12953,12969,12969,12978,12979,12979,12990,12991,12991,13002,13019,13019,13027,13027,13052,13089,13089,13126,13163,13176,13200,13200" d="m325.78333,155.5c-1.75714,0 -2.65265,0 -3.51599,0c-0.85867,0 -1.80533,-0.00061 -2.65866,0c-0.94,0.00067 -1.96964,0.03076 -2.46817,0.7045c-0.51373,0.69427 -0.22446,1.70602 -0.36166,2.5955c-0.14368,0.93138 -0.84189,1.46815 -0.98483,2.336c-0.16522,1.0032 -0.01068,1.71133 -0.01068,2.728c0,0.94051 0,1.80267 0,2.636c0,0.97867 0,1.75267 0,2.66167c0,0.8 0,1.75967 0,2.56367c0,0.82199 0,1.853 0,2.733c0,1.02016 0,1.84033 0,2.74165c0,0.90001 0,1.8 0,2.71068c0,0.911 0,1.631 0,2.756c0,0.786 0,1.608 0,2.66667c0,0.70949 0,1.56216 0,2.56799c0,0.83467 0,1.76534 0,2.54683c0,0.79051 0.0022,1.90901 0,2.8c-0.00226,0.90451 0.00958,1.6256 -0.42532,2.6265c-0.35504,0.81711 -0.56424,1.62514 -0.57468,2.45868c-0.01151,0.91925 0,1.81932 0,2.68266c0,0.84799 0,1.784 0,2.68399c0,0.90018 0,1.68533 0,2.62534c0,1.00801 0.00638,1.83603 -0.00015,2.7175c-0.00531,0.71857 0.01517,1.52318 -0.22116,2.53568c-0.21429,0.91812 -0.65808,1.91524 -0.74268,2.71083c-0.07675,0.72209 -0.03601,1.68983 -0.03601,2.632c0,0.912 0,1.82933 0,2.57333c0,1.03467 0,1.80266 0,2.7625c0,0.89549 0,1.59016 0,2.61749c0,0.94701 0,1.66701 0,2.79201c0,0.7905 0,1.644 0,2.23466c0,1.19733 0.00055,2.07784 0,2.91333c-0.00067,1 0.02713,1.88739 -0.16666,2.68533c-0.19604,0.80717 -0.73929,1.82245 -0.82266,2.62534c-0.08868,0.85414 -0.01068,1.722 -0.01068,2.61751c0,0.95715 0.18137,1.91063 -0.16666,2.75716c-0.27588,0.67108 -0.82291,1.49982 -0.83334,2.40001c-0.00928,0.8026 0,1.57066 0,2.60983c0,0.7755 0,1.8235 0,2.53749c0,0.90533 0,1.87384 0,2.66734c0,0.7755 0,1.97099 0,2.88548c0,0.78519 0,1.72519 0,2.41583c0,0.98401 0,1.96802 0,2.83136c0,0.89548 0,1.85266 0,2.75266l0,0.89999l0,0.75717" id="svg_4" stroke-width="2" stroke="#000" fill="none"/>
  <path t="18677,18911,18960,18984,18996,19009,19009,19009,19021,19021,19021,19021,19036,19037,19058,19058,19070,19070,19086,19095,19106,19106,19106,19118,19143,19143,19156,19156,19168,19168,19185,19185,19192,19193,19205,19205,19205,19219,19219,19235,19242,19242,19242,19254,19254,19254,19269,19291,19315,19339,19340,19352,19370,19378,19389,19390,19402,19402,19402,19418,19418,19418,19426,19426,19438,19438,19452,19452,19468,19468,19476,19488,19502,19502,19518,19525,19537,19538,19538,19551,19551,19568,19574,19574,19586,19586,19586,19602,19602,19611,19611,19623,19624,19624,19624,19635,19635,19652,19660,19672,19672,19748,19777,19797,19797" d="m350.78333,270.5c1.70001,0 2.62039,0.00339 3.40002,-0.42532c0.82358,-0.45288 1.60632,-1.07123 1.909,-1.63718c0.37082,-0.69339 0.97919,-1.66898 1.70084,-2.12317c0.73578,-0.46307 1.30939,-0.60706 2.53299,-1.10983c0.64749,-0.26605 1.65302,-0.62485 2.45715,-0.68365c0.99756,-0.07294 1.89398,0.27704 2.66669,-0.1875c0.77371,-0.46515 1.51404,-0.96796 2.15866,-1.26935c0.70779,-0.33093 1.46814,-1.08124 2.27484,-1.44266c0.74063,-0.33182 1.72449,-0.57813 2.30432,-0.76868c0.97803,-0.32138 1.93997,-0.3017 2.84732,-0.35715c0.7207,-0.04407 1.75406,-0.36249 2.53351,-0.57019c1.04306,-0.27792 1.75635,-0.39255 2.61017,-0.42081c1.00262,-0.03317 1.78387,0.16315 2.71918,-0.00717c0.92978,-0.16931 1.2345,-0.92661 1.85599,-1.51468c0.72305,-0.6842 1.51639,-0.98175 2.26135,-1.19598c1.08051,-0.3107 2.07272,-0.19583 2.96799,-0.28802c0.81259,-0.08368 1.45261,-0.79881 2.29999,-0.97781c0.88083,-0.18607 1.80002,-0.02084 2.70267,-0.02084c0.76801,0 1.81259,0.01392 2.61868,-0.036c0.58231,-0.03606 1.77896,-0.24136 2.65784,-0.464c0.56476,-0.14307 1.83212,-0.44026 2.47916,-0.47916c1.01871,-0.06125 1.927,0.0201 2.87766,-0.03151c0.76785,-0.04167 1.75125,-0.36392 2.50684,-0.63666c0.89102,-0.32162 1.75845,-0.30489 2.65717,-0.35268c0.80341,-0.04272 1.5387,-0.74699 2.42136,-0.96399c0.88632,-0.21788 1.58978,0.02608 2.57333,-0.09317c0.87143,-0.10565 1.67484,-0.64574 2.52615,-0.94284c0.7843,-0.27371 1.67349,-0.63123 2.47916,-0.83333c0.78799,-0.19766 1.61316,-0.20575 2.60001,-0.51933c0.81253,-0.25819 1.81531,-0.50945 2.42084,-0.689c1.1832,-0.35083 1.67169,-0.79839 2.45834,-1.45834c0.51761,-0.43423 1.32855,-1.27565 2.09949,-1.468c0.89539,-0.2234 1.62766,-0.56726 2.52151,-0.91049c0.74152,-0.28473 1.71448,-0.13217 2.65698,-0.343l0.40952,-0.7785l0.40799,-0.59999" id="svg_5" stroke-width="2" stroke="#000" fill="none"/>
  <path t="23651,23870,23908,23908,23930,23967,23986,23993,23993,24004,24028,24043,24053,24090,24115,24152,24152,24168,24227,24239,24239,24264,24265,24301,24301,24326,24348,24362,24374,24399,24436,24454,24471,24670,24706,24725,24830,24843,24844,24866,24866,24952,25137,25199,25234,25298,25324,25371,25391,25391,25395,25457,25483,25511,25531,25531,25533,25534,25543,25567,25567,25593,25603,25641,25678,25678,25715,25728,25728,25752,25776,25780,25797,25807,25807,25820,25820,25837,25838,25852" d="m334.78333,255.5c0.16669,1.83334 0.73782,2.36191 1.02533,3.14932c0.3035,0.83124 0.85443,1.57642 1.62134,1.84003c0.79068,0.27176 1.59515,0.13583 2.40152,0.65799c0.62363,0.40384 1.57144,0.35071 2.35184,0.77798c0.82257,0.45038 1.75424,0.39139 2.59998,0.74133c0.78464,0.32465 1.60852,0.65344 2.2955,1.19052c0.74408,0.58173 0.85999,1.45868 1.55518,2.0535c0.57025,0.48792 1.09906,1.41284 1.14667,2.10532c0.07123,1.03561 0.82181,1.53552 1.00134,2.28534c0.21362,0.89221 0.74789,1.51633 1.28531,2.11469c0.57343,0.63846 1.44162,0.95789 1.70535,1.69464c0.29977,0.83737 0.13284,1.79089 0.58533,2.48669c0.4519,0.69492 0.41492,1.42334 0.42532,2.56931c0.0072,0.79166 0.00067,1.73334 0,2.63336c-0.00067,0.89865 -0.36212,1.63641 -1,2.19998c-0.58347,0.5155 -0.99466,1.14664 -1,2.15268c-0.00369,0.69467 0.20435,1.97144 -0.52081,2.32648c-0.78986,0.38669 -1.78366,0.02084 -2.80051,0.02084c-0.67868,0 -1.65717,0 -2.47733,0c-0.9585,0 -1.854,0 -2.71735,0c-0.96317,0 -1.784,0 -2.68399,0c-0.90018,0 -1.68533,0 -2.62534,0c-1.008,0 -1.76401,0 -2.67468,0c-0.89999,0 -1.79999,0 -2.69998,0c-0.90033,0 -1.77066,0 -2.56799,0c-0.98135,0 -1.89868,0 -2.81067,0l-0.82135,0" id="svg_6" stroke-width="2" stroke="#000" fill="none"/>
  <path t="28931,29112,29137,29160,29163,29198,29199,29223,29223,29247,29309,29310,29346,29359,29359,29376,29392,29392,29394,29394,29407,29407,29418,29418,29444,29468,29468,29503,29504,29508,29518,29545,29565,29585,29665,29665,29681,29727,29779" d="m360.78333,264.5c0,-1.69998 0.40997,-2.70859 -0.03598,-3.564c-0.35382,-0.67868 -1.55612,-0.57285 -2.25418,-1.19766c-0.67224,-0.60168 -0.58929,-1.46564 -1.0625,-2.48117c-0.37878,-0.81293 -0.9343,-1.245 -1.526,-1.97867c-0.52109,-0.64612 -0.87183,-1.43643 -1.41684,-2.07851c-0.64075,-0.75484 -0.75217,-1.59915 -1.06165,-2.35716c-0.31149,-0.76297 -0.87112,-1.72806 -1.20685,-2.50684c-0.34567,-0.80183 -0.44751,-1.68538 -0.95682,-2.336c-0.60178,-0.76874 -1.20135,-1.25626 -2.13184,-1.7955c-0.67197,-0.38943 -1.88226,-0.37807 -2.31134,-1.14049c-0.42203,-0.74986 -0.61926,-1.41425 -1.03601,-2.10567c-0.50806,-0.84293 -0.57465,-1.63301 -0.91599,-2.57167l-0.30533,-0.76534l-0.7215,-0.4785" id="svg_7" stroke-width="2" stroke="#000" fill="none"/>
  <path t="31013,31182,31193,31193,31207,31217,31218,31240,31252,31278,31278,31301,31317,31326,31339,31339,31352,31352,31367,31387,31387,31400,31401,31417,31462,31474,31485,31511,31534,31535,31552,31572,31596,31610,31611,31658,31695,31708,31708,31720,31734,31734,31751,31757,31781,31793,31793,31805,31830,31867,31867,31891,31942,31954,31979,32003,32027,32039,32039,32064,32065,32089,32113,32113,32150,32176,32201,32201" d="m314.78333,211.5c-1.06131,-2.58932 -1.62616,-3.12453 -2.29465,-3.7c-0.72635,-0.62529 -1.17526,-1.36356 -1.85468,-1.89999c-0.71185,-0.56206 -1.27454,-1.21393 -2.05066,-1.68533c-0.67639,-0.41083 -1.18518,-1.1272 -1.99869,-1.63068c-0.74026,-0.45815 -1.40817,-0.8867 -2.15314,-1.19383c-0.82269,-0.33917 -1.03561,-1.3147 -1.95267,-1.77583c-0.77704,-0.39072 -1.69553,-0.11433 -2.67401,-0.11433c-0.82016,0 -1.4505,-0.37062 -2.24301,-0.87849c-0.74655,-0.47844 -1.46176,-0.51936 -2.13565,-1.06883c-0.7034,-0.57353 -1.58157,-0.52841 -2.35751,-1.13667c-0.61273,-0.48032 -1.35162,-0.77129 -2.26382,-1.13733c-0.77402,-0.31059 -1.52133,-0.76825 -2.43216,-0.77867c-0.91061,-0.01042 -1.76807,0.08598 -2.70401,-0.00133c-0.89676,-0.08365 -1.56665,-0.43536 -2.3645,-0.99867c-0.66824,-0.4718 -1.38379,-0.93358 -2.35416,-1c-0.72189,-0.04941 -0.8002,-1.02438 -1.38818,-1.75716c-0.55051,-0.68608 -1.17502,-0.96031 -1.7785,-1.722c-0.49417,-0.62369 -1.5,-0.52084 -2.39999,-0.52084c-0.89999,0 -1.80133,0 -2.76666,0c-0.65866,0 -1.66666,0 -2.52884,0c-0.94049,0 -1.78848,0 -2.65182,0c-0.89551,0 -1.85266,0.00134 -2.75284,0.22134l-0.65698,0.42599" id="svg_8" stroke-width="2" stroke="#000" fill="none"/>
  <path t="32832,33062,33086,33109,33110,33113,33134,33135,33154,33196,33211,33226,33247,33248,33260,33276,33307,33307,33307,33344,33357,33367,33443,33887,33948,33960,33984,34002,34003,34058,34058,34082,34082,34095,34106,34428,34452,34501,34502,34563,34563,34613,34711,34747,34760,34783,34803,34803,34810,34821,34835,34835,34850,34851,34882,34882,34921,34921,34944,34969,34993,35041,35054,35078,35141,35265,35279,35314,35342,35343,35362,35386,35411,35411,35435,35485,35501,35534,35552,35596,35608,35608,35659,35682" d="m261.78333,189.5c-1.2215,0.87851 -2.10614,0.89474 -3,1c-0.72971,0.08592 -0.81223,1.08484 -1.2215,1.97833c-0.34061,0.74356 -1.40274,1.00418 -1.80382,1.63234c-0.47623,0.74583 -0.76369,1.64296 -1.19601,2.48933c-0.33472,0.6553 -0.58269,1.52965 -0.82033,2.42084c-0.23068,0.86508 -0.86989,1.25752 -1.39034,1.99516c-0.56636,0.8027 -0.5507,1.79533 -1.06799,2.48399c-0.46999,0.62569 -0.5,1.5 -0.5,2.40001c0,0.89999 0,1.79999 0,2.70016c0,0.78516 0,1.73582 0,2.50116c0,0.99417 0,1.7415 0,2.76266c0,0.936 0,1.836 0,2.73601c0,0.89999 0,1.65717 0,2.55266c0,0.86334 0,1.82651 0,2.74734c0,0.89999 0,1.79999 0,2.7c0,0.89999 0.09645,1.69353 0.5,2.39999c0.45549,0.79739 0.49983,1.82133 0.5,2.5c0.00026,0.9785 0.21362,1.87514 1.0625,2.2955c0.66977,0.33167 1.72076,0.25279 2.48016,0.72983c0.74309,0.4668 1.38914,0.58162 2.17201,1.06001c0.80322,0.49083 1.04486,1.22833 1.28665,2.11333c0.21796,0.79778 1.03522,1.17059 1.57333,1.82666c0.47375,0.57758 0.33621,1.64087 0.48251,2.32201c0.22705,1.05716 0.88193,1.74655 0.94281,2.65266c0.05362,0.7982 0.09634,1.68608 0.85068,1.97467c0.95901,0.36688 1.03857,1.13217 1.14932,2.02533c0.11151,0.89938 0.87869,1.44267 1.02533,2.14934l0.41068,0.78934l0.8595,0.4185" id="svg_9" stroke-width="2" stroke="#000" fill="none"/>
  <path t="46265,46648,46661,46672,46696,46696,46720,46720,46744,46744,46756,46793,46843,46843,46879,46903,46928,46942,46942,46952,46953,46977,47002,47028,47040,47051,47052,47076,47076,47089,47113,47113,47134,47134,47186,47212,47212,47224,47260,47274,47285,47310,47322,47323,47323,47335,47335,47350,47366,47367,47372,47385,47401,47409,47409,47421,47421,47483,47507,47508,47518" d="m84.78334,251.5c1.7,0.9955 2.61955,0.99817 3.39999,1.42534c0.82523,0.45168 1.57507,0.64188 2.368,0.85866c0.98724,0.2699 1.88954,0.6131 2.69033,0.69518c0.93699,0.09604 1.89172,-0.11082 2.64167,0.24217c0.77552,0.36504 1.37198,0.97855 2.06667,1.612c0.59927,0.54645 1.3367,0.88828 1.98267,1.228c0.86879,0.45688 0.79835,1.60834 1.652,1.936c0.84084,0.32275 1.62504,0.66544 2.39867,0.91733c0.8598,0.27994 1.70998,0.1106 2.62534,0.52133c0.71285,0.31989 1.48598,1.09277 2.34133,1.39734c0.79697,0.28378 1.7924,-0.20929 2.54667,0.25198c0.80374,0.49155 1.24494,1.14862 1.98666,1.56201c0.76368,0.42563 1.55886,0.77396 2.39983,1.23132c0.74749,0.40652 1.26507,1.09274 2.2335,1.12134c0.67171,0.01984 1.416,0 2.52367,0c0.834,0 1.82352,-0.00696 2.443,0.70532c0.46742,0.53745 1.19934,1.27158 2.1,1.29468c0.89972,0.02307 1.65211,0.30676 2.35717,0.64734c0.84655,0.40894 1.6735,0.43668 2.40949,1.186l0.83334,0.33331l0.59999,0.40802l0.8,0.39999" id="svg_10" stroke-width="2" stroke="#000" fill="none"/>
  <path t="48101,48271,48271,48291,48291,48291,48296,48296,48306,48319,48343,48343,48356,48371,48389,48394,48394,48405,48405,48417,48433,48434,48442,48442,48442,48454,48454,48466,48466,48466,48483,48483,48491,48491,48502,48503,48516,48540,48540,48552,48553,48567,48567,48583,48583,48590,48601,48601,48616,48616,48626,48626,48638,48638,48638,48651,48651,48651,48666,48666,48666,48676,48676,48687,48687,48688,48700,48700,48716,48749,48749,48766,48774,48786,48786,48800,48800,48800,48817,48836,48836,48849,48849,48866,48866,48866,48873,48885,48885,48885,48900,48900,48909,48933,48949,48960" d="m133.78334,272.5c1.84666,0.42532 2.4474,0.72388 3.68399,0.91467c0.53722,0.08289 1.36334,0.08307 2.62933,0.08533c0.645,0.00113 1.77557,-0.26425 2.56551,0.22134c0.73775,0.45352 1.326,0.59033 2.2345,0.78c0.88588,0.18494 1.34891,0.92358 2.20801,1.22c0.69353,0.23929 1.65613,0.66446 2.47733,0.77731c0.90027,0.12372 1.4153,0.80383 2.01567,1.29602c0.84689,0.69431 1.71059,0.6568 2.50301,0.78799c1.00507,0.16641 1.66302,0.49588 2.84932,0.75067c0.77217,0.16586 1.59814,0.07291 2.5,0.33331c0.85155,0.24588 1.47803,0.87317 2.15868,1.22269c0.97983,0.50311 1.76039,0.70483 2.2845,1.31516c0.55283,0.64377 1.30147,0.99097 2.28883,1.49551c0.58186,0.29733 1.6272,0.84949 2.08049,1.32083c0.7021,0.73007 0.851,1.62589 1.62083,2.23633c0.77477,0.61435 1.45187,0.90674 2.2045,1.53833c0.54869,0.46045 1.54648,0.65005 2.38217,0.78851c1.00507,0.1665 1.552,0.34351 2.41783,0.62048c1.19916,0.38361 1.78418,0.61414 2.6595,0.8595c1.06181,0.29764 1.77769,0.40268 2.6315,0.43152c1.00395,0.03391 1.82146,-0.03485 2.8045,0.22583c0.81885,0.21713 1.39273,0.52832 2.39101,0.72598c0.83322,0.16498 1.52557,0.70535 2.409,1.21933c0.62717,0.36487 1.40511,0.73367 2.30449,0.83786c0.87146,0.10095 1.69231,0.57684 2.69551,0.82883c0.77596,0.19489 1.56827,-0.11163 2.47916,0.20831c0.84387,0.29642 1.06107,1.23785 1.84235,1.93668c0.6322,0.56549 1.67224,0.90109 2.46782,0.98566c0.72211,0.07675 1.73152,0.03128 2.54401,0.03601c0.91737,0.00534 1.70619,-0.0932 2.696,0.284c0.82341,0.31381 1.57066,0.70535 2.47067,0.716l0.88933,0.01068l0.61067,0.51016" id="svg_11" stroke-width="2" stroke="#000" fill="none"/>
  <path t="49553,49723,49723,49723,49739,49739,49739,49740,49756,49757,49757,49762,49762,49773,49773,49783,49800,49808,49820,49820,49833,49833,49833,49849,49849,49849,49849,49857,49857,49857,49857,49869,49869,49869,49882,49883,49883,49883,49906,49919,49919,49932,49949,49956,49967,49967,49983,50004,50004,50016,50017,50032,50032,50032,50042,50042,50042,50042,50054,50054,50054,50066,50066,50066,50083,50083,50091,50091,50091,50103,50103,50116,50116,50116,50133,50133,50140,50141,50141,50151,50151,50151,50166,50167,50167,50183,50183,50183,50189,50190,50190,50200,50200,50200,50217" d="m211.78334,301.5c4.51466,0 5.164,0 6.09549,0c1.20467,0 1.80901,0 2.74051,0c0.64934,0 1.68523,-0.01419 2.76799,0.01068c0.69894,0.01605 1.93748,0.05203 2.52451,0.3465c0.96799,0.48553 1.40529,1.38394 2.2715,1.60681c0.87231,0.22443 1.83978,-0.09634 2.60001,0.20267c0.73161,0.28775 1.54019,0.74072 2.272,0.79733c0.83508,0.06458 2.0284,0.02301 2.93866,0.04669c0.62564,0.01627 1.27975,0.04163 2.67334,0.27332c0.74446,0.12375 1.48822,0.30417 2.23199,0.43201c1.05937,0.1821 2.05258,0.23816 2.67332,0.34534c1.22276,0.21112 1.8181,0.48709 2.66901,0.93866c0.78065,0.41428 1.77281,0.78137 2.54167,1.16666c0.75917,0.38043 1.60849,0.65347 2.2955,1.19052c0.744,0.5816 1.02715,1.5416 1.72533,1.62198c1.08688,0.12515 1.98148,0.1842 2.61517,0.6315c0.68802,0.48563 1.35574,0.96265 2.36398,1.22269c0.80533,0.2077 1.51434,0.1644 2.64285,0.16666c0.66699,0.00131 1.74249,0 2.47449,0c1.061,0 2.03601,0 2.63602,0c1.07999,0 2.01065,0 2.84531,0c1.00586,0 1.63736,0 2.82251,0c0.79352,0 1.569,0 2.61084,0c0.77335,0 1.73816,-0.01926 2.48883,0.02084c0.79797,0.04263 1.78937,0.28195 2.7045,0.55383c0.93582,0.27802 1.72647,0.38727 2.54935,0.41467c1.05814,0.03525 1.77264,0.01056 2.67798,0.01065c0.96869,0.00009 1.77609,-0.03104 2.59467,0.05716c1.03836,0.11188 1.742,0.35971 2.40533,0.7045c0.99258,0.51593 1.76163,1.07251 2.32202,1.37701c1.03946,0.56485 1.76364,0.74701 2.73865,0.85867l0.85068,0.01334" id="svg_12" stroke-width="2" stroke="#000" fill="none"/>
  <path t="50839,52098,52110,52111,52123,52145,52145,52160,52170,52195,52208,52219,52244,52244,52269,52269,52294,52294,52330,52330,52344,52429,52441,52441,52465,52483,52503,52518,52518,52539,52539" d="m296.78333,317.5c1.2215,0.87851 2.10019,1 2.88535,1c0.94,0 1.948,0 2.70401,0c0.91064,0 1.81067,-0.00067 2.71066,0c0.89865,0.00067 1.51993,0.46371 2.14282,1.10001c0.4917,0.50229 1.53113,1.0062 2.05716,1.39999c0.81418,0.6095 1.45895,1.10019 2.47852,1.37851c0.79965,0.21829 1.45935,0.36688 2.18817,0.95483c0.69855,0.56351 1.37097,0.92783 2.33331,1.14581c0.87802,0.19888 1.8045,0.02084 2.66669,0.02084l0.83331,0l0.97852,0l0.82016,0" id="svg_13" stroke-width="2" stroke="#000" fill="none"/>
  <path t="54436,54657,54690,54694,54708,54729,54754,54779,54792,54792,54804,54817,54817,54842,54842,54852,54877,54904,54904,54939,54950,54989,54989,55013,55026,55026,55049,55071,55071,55075,55087,55087,55099,55099,55116,55116,55117,55123,55123,55123,55135,55136,55149,55150,55165,55165,55172,55185,55199,55215,55222,55222,55246,55246,55259,55260,55271,55283,55300,55300,55308,55308,55320,55321,55333,55333,55333,55349,55357,55381,55382" d="m357.78333,322.5c2.08267,-0.80133 2.57233,-1.39822 3.38934,-1.97467c0.65817,-0.46439 1.23822,-1.01898 2.01068,-1.45065c0.81924,-0.45782 1.55194,-0.82016 2.29999,-1.22202c0.77997,-0.41898 1.79132,-0.28256 2.47467,-0.38867c0.96066,-0.14917 1.59912,-0.77872 2.52533,-0.95947c0.88651,-0.173 1.52518,-0.76828 2,-1.29919c0.70184,-0.78479 1.53638,-1.16727 2.29999,-1.53867c0.75391,-0.36667 1.47787,-0.78506 2.48267,-1.08264c0.78531,-0.23257 1.43063,-0.68799 2.08536,-1.284c0.52182,-0.47504 1.19354,-1.16824 1.71732,-2c0.42169,-0.66965 1.14383,-1.20587 1.60001,-1.77069c0.62747,-0.77692 1.12396,-1.55875 1.57632,-2.02399c0.89923,-0.92487 1.46359,-1.24149 2.27701,-1.548c1.09286,-0.41183 1.89786,-0.41846 2.74533,-0.74268c0.71304,-0.2728 1.57312,-1.00095 2.21152,-1.35748c0.84564,-0.47229 1.84335,-0.29654 2.60449,-0.70984c0.74622,-0.40521 1.4061,-0.92007 1.95465,-1.44867c0.68192,-0.6571 1.48605,-0.84009 2.60236,-1.07718c0.82376,-0.17496 1.6763,-0.07513 2.543,-0.54681c0.73257,-0.39868 1.49063,-0.49326 2.43597,-0.59601c0.77521,-0.08426 1.54852,-0.56863 2.36401,-1.12799c0.78564,-0.53888 1.60867,-0.71329 2.31467,-0.93335c1.0033,-0.31274 1.78983,-0.86017 2.65201,-0.91733l0.83331,0" id="svg_14" stroke-width="2" stroke="#000" fill="none"/>
  <path t="56087,56269,56304,56304,56306,56342,56378,56402,56403,56441,56452,56466,56484,56490,56501,56501,56517,56517,56532,56550,56588,56588,56599,56600,56615,56625,56636,56649,56649,56674,56686,56686,56699,56716,56724,56724,56735,56735,56748,56765,56765,56765,56772,56785" d="m413.78333,294.5c1.82535,-0.01065 2.97238,0.00418 3.55334,-0.61066c0.60806,-0.64352 1.03271,-1.27225 1.74667,-1.74652c0.79163,-0.52585 1.23434,-1.38171 2.10001,-1.60681c0.86755,-0.22562 1.47412,-0.57739 2.12082,-1.03601c0.70099,-0.4971 1.63718,-0.89694 2.47916,-0.97916c0.97412,-0.09512 1.69797,-0.07361 2.5,-0.52084c0.80246,-0.44748 1.61566,-0.93231 2,-1.52084c0.52164,-0.7988 1.15106,-1.44833 1.88934,-1.95383c0.66467,-0.45508 1.2579,-0.99362 2.09467,-1.02667c0.86447,-0.03412 1.70255,-0.45435 2.51599,-0.832c0.76041,-0.35303 1.56509,-0.82166 2.41068,-1.14133c0.88254,-0.33365 1.55539,-0.62863 2.56784,-0.90384c0.70105,-0.19055 1.70251,-0.1192 2.564,-0.34299c0.7063,-0.18347 1.60416,-0.57983 2.36017,-1.16785l0.53333,-0.57465" id="svg_15" stroke-width="2" stroke="#000" fill="none"/>
  <path t="57489,57658,57670,57695,57707,57707,57732,57732,57748,57758,57768,57769,57782,57782,57798,57799,57799,57806,57806,57806,57806,57818,57818,57818,57818,57832,57833,57850,57850,57855,57855,57867,57883,57892,57893,57904,57904,57929,57929,57929,57942,57942,57953,57953,57972,57989,57989,57992,57992,57992,57992,58003,58003,58003,58016,58032,58033,58052,58052,58076,58076,58077,58089,58089,58113,58131,58138,58138,58150,58166,58175,58175,58175,58187,58187,58187,58199,58200,58216,58216,58216,58225,58225,58225,58236" d="m448.78333,278.5c1.71469,-0.17065 1.70139,-1.17459 2.28534,-1.83066c0.6008,-0.67502 1.44159,-0.93256 2.36734,-1.11218c0.8493,-0.16479 1.73322,-0.1691 2.40866,-0.63184c0.74576,-0.51089 1.56158,-0.44397 2.53867,-0.7825c0.61545,-0.21326 1.61041,-0.72437 2.21066,-1.06415c0.65842,-0.37274 1.61267,-1.11923 2.14651,-1.58401c0.56561,-0.49243 1.10083,-1.05774 2.3425,-1.85184c0.57172,-0.36563 1.45596,-0.71118 1.92966,-1.02548c1.02542,-0.68039 1.3493,-1.32803 1.87067,-2.31702c0.39996,-0.7587 0.90903,-1.45087 1.60001,-1.84848c0.78992,-0.45453 1.09756,-1.37015 1.74283,-2.05185c0.48322,-0.5105 1.59872,-0.93774 2.03635,-1.44165c0.62137,-0.71548 0.85745,-1.7403 1.27798,-2.39584c0.48465,-0.75552 1.45441,-0.9595 2.22134,-1.28384c0.76816,-0.32483 1.55206,-0.74738 2.50949,-1.06265c0.80371,-0.26468 1.84332,-0.56691 2.48001,-0.63066c0.68103,-0.06819 1.72665,-0.0804 2.69867,-0.08534c0.81448,-0.00414 1.74136,0.11128 2.57617,-0.35716c0.86618,-0.48604 1.35107,-1.33479 2.2438,-1.5575c0.74097,-0.18484 1.68021,-0.07204 2.46152,-0.08984c0.79092,-0.01802 1.90848,-0.21759 2.63049,-0.57016c0.82092,-0.40088 1.74219,-0.76051 2.42133,-1.42534c0.49487,-0.48447 0.98767,-1.3799 1.42535,-1.996c0.46774,-0.65839 0.49435,-1.57338 0.82932,-2.23732c0.44913,-0.8902 1.30295,-1.18687 1.97867,-1.64934c1.0101,-0.69135 1.39993,-1.30173 1.64536,-2.3175c0.19482,-0.80638 0.20532,-1.48517 0.40665,-2.4825l0.2355,-0.79649l0.28049,-0.75151l0.49417,-0.955" id="svg_16" stroke-width="2" stroke="#000" fill="none"/>
  <path t="58906,59087,59107,59107,59111,59111,59111,59112,59127,59128,59137,59137,59152,59152,59152,59152,59165,59166,59166,59172,59172,59184,59185,59199,59199,59215,59233,59233,59249,59249,59249,59258,59270,59270,59283,59283,59283,59299,59299,59308,59308,59319,59319,59319,59332,59332,59332,59349,59349,59349,59357,59357,59380,59399,59399,59405,59429,59430,59430,59455,59455,59472,59472,59489,59489,59492,59493,59504,59504,59517,59541,59541,59542,59578,59578" d="m505.78333,236.5c2.36401,-1.39999 3.06638,-2.14156 3.70801,-2.636c0.75513,-0.58192 1.33633,-0.86159 2.29199,-1.34315c0.63708,-0.32103 1.73303,-0.78674 2.45837,-1c0.86017,-0.2529 1.59955,-0.50795 2.54163,-1.1875c0.63135,-0.45541 1.22821,-1.05321 1.68536,-1.43468c0.97961,-0.81738 1.5506,-1.14833 2.24762,-1.7415c0.85413,-0.72681 1.02991,-1.44261 1.42871,-2.30983c0.3349,-0.72827 1.14465,-1.43086 1.77698,-1.93666c0.7207,-0.57652 1.05493,-1.53433 1.508,-2.04668c0.63708,-0.72044 1.17755,-1.19041 1.86932,-1.87999c0.72577,-0.72346 1.47882,-1.33646 2.15601,-1.50934c0.86475,-0.22076 1.84247,-0.46033 2.56,-0.776c0.81708,-0.35947 1.48578,-0.9469 2.25336,-1.39734c0.70044,-0.41103 1.71124,-0.71877 2.55634,-0.78049c0.72736,-0.05312 1.92633,-0.02084 2.60901,-0.02084c0.69867,0 2.01624,0.01712 2.83051,-0.0045c0.66199,-0.01758 1.67047,-0.23514 2.3175,-0.79683c0.74756,-0.64894 1.23419,-1.3835 1.90131,-1.84149c0.83124,-0.57066 1.39319,-1.0248 1.82086,-1.87801c0.35864,-0.71544 0.9375,-1.54242 1.65381,-2.05783c0.77777,-0.55962 1.45233,-1.03081 1.92535,-1.74268c0.43597,-0.65613 0.97321,-1.68015 1.5,-2.26799c0.57074,-0.63684 1.16779,-1.19354 1.42529,-2.08267c0.24829,-0.85725 0.41071,-1.57866 0.776,-2.56l0.39868,-0.79601l0.59998,-0.68399" id="svg_17" stroke-width="2" stroke="#000" fill="none"/>
  <path t="73413,73756,73768,73768,73795,73798,73809,73817,73841,73853,73865,73866,73890,73914,73932,73976,74000,74000,74038,74038,74062,74062,74086,74137,74161,74175,74185,74197,74215,74235,74236,74236,74258,74258,74284,74297,74321,74372,74421,74458,74475,74475,74493,74493,74506,74517,74531,74531,74547,74555,74566,74566,74566,74581,74582,74599,74599,74616,74616,74752,74753,74777,74825,74825,74900,74924,75085,75085" d="m232.78334,289.5c2.10533,-0.7045 2.82042,-1.18433 3.43199,-1.88531c0.58754,-0.67343 0.44159,-1.75409 1.004,-2.46802c0.5865,-0.74451 1.41252,-0.9407 1.56534,-1.84665c0.15411,-0.9136 0.79721,-1.4563 0.98801,-2.40002c0.17432,-0.86227 0.50436,-1.4931 1.09467,-2.116c0.66783,-0.70468 0.70433,-1.38022 1.13766,-2.26233c0.37599,-0.76538 1.49591,-0.75568 2.209,-1.10565c0.75037,-0.36826 1.37067,-0.91534 2.26933,-0.91602c0.89999,-0.00067 1.8,0 2.7,0c0.909,0 1.93333,0 2.60533,0c0.744,0 1.85167,0 2.68567,0c0.909,0 1.80899,0 2.70901,0c0.89999,0 1.79999,0 2.69998,0c0.89999,0 1.65717,0 2.55267,0c0.86334,0 1.86322,-0.05844 2.64734,0.35266c0.84793,0.44458 1.48438,0.75778 2.29999,1.22202c0.7858,0.44727 1.51584,1.08212 1.80002,1.71201c0.3179,0.70468 0.72025,1.82028 1.35715,2.40433c0.65454,0.60022 1.50888,0.85049 2.22116,1.63034c0.56061,0.61377 0.92822,1.50052 1.01102,2.26797c0.09991,0.92621 0.01065,1.89468 0.01065,2.58536c0,1.06815 0,1.92532 0,2.82532l0,0.80002" id="svg_18" stroke-width="2" stroke="#000" fill="none"/>
  <path t="84168,84414,84414,84425,84425,84425,84439,84439,84456,84456,84474,84474,84498,84537,84560,84584,84609,84634,84634,84646,84646,84665,84671,84671,84683,84683,84697,84714,84714,84721,84731,84732,84756,84756,84769,84781,84806,84830,84868,84955,84955,84992,84993,85066,85067,85089,85103" d="m73.78334,209.5c0,2.60451 0,3.45717 0,4.42117c0,0.7935 0,1.80949 0,2.7735c0,0.77333 0,1.81067 0,2.55467c0,0.91733 0,1.82933 0,2.75066c0,0.90001 0,1.8 0,2.7c0,0.90001 -0.00056,1.8 0,2.61433c0.00066,0.95235 -0.29449,1.76334 0.16666,2.68567c0.42164,0.84328 0.8941,1.39522 1.186,2.15266c0.33683,0.87402 0.53616,1.74826 0.93134,2.54868c0.35813,0.7254 0.698,1.6235 0.716,2.632c0.01414,0.79187 0,1.65067 0,2.51399c0,1.01666 -0.1498,1.86525 0.00016,2.7525c0.144,0.85202 0.8711,1.29181 1.28384,2.1015c0.36739,0.72075 0.69508,1.63412 0.71467,2.39999c0.02531,0.98936 0.08666,1.828 0.64867,2.504l0.31667,0.75601" id="svg_20" stroke-width="2" stroke="#000" fill="none"/>
  <path t="86100,86408,86438,86438,86456,86467,86467,86480,86480,86480,86497,86497,86505,86505,86505,86529,86529,86548,86548,86566,86603,86615,86629,86652,86677,86677,86714,86739,86789,86805,86820,86837,86849,86864,86873,86874,86885,86886,86898,86913,86923,86934,86935,86947,86947,86966,86966,86972,87009,87009,87037,87058,87058,87071,87083,87096,87096,87113,87119,87132,87132,87132,87147,87163,87164,87181,87198,87198,87218,87267,87307,87330,87330,87378,87415,87415,87432,87432,87452,87489" d="m72.78334,207.5c0.05716,1.75717 0.38206,2.64091 0.64733,3.34734c0.333,0.88681 0.35267,1.81934 0.35267,2.67351c0,0.97916 0,1.77916 0,2.57916c0,1.0045 -0.00622,1.85718 0.00016,2.82133c0.00532,0.80405 -0.01247,1.63948 0.22117,2.657c0.15781,0.68727 0.39058,1.85506 0.804,2.47501c0.48323,0.72464 0.974,1.24799 0.97467,2.14665c0.00067,0.90001 -0.03747,1.83775 0.22133,2.62134c0.28965,0.877 0.64862,1.7988 0.77867,2.67867c0.12426,0.84071 0.76698,1.30803 1.35266,1.94734c0.53432,0.58325 1.02168,1.33826 1.48067,2.05266c0.52531,0.81763 1.23296,0.85529 2.14516,1.22134c0.77401,0.31061 1.55356,0.71344 2.3215,1.13133c0.8409,0.45758 1.80062,0.41864 2.4,0.81883c0.70229,0.4689 0.67509,1.71878 1.4,2.46399c0.4847,0.49828 1.55148,0.35266 2.384,0.6485c0.70609,0.25092 1.82352,0.51105 2.616,0.9375c0.67828,0.36499 1.08144,1.28802 2,1.65701c0.84271,0.33852 1.7,0.12149 2.6,0.12149c0.84167,0 1.84267,0 2.55067,0c0.744,0 1.99329,-0.16623 2.84933,0.22134c0.67035,0.3035 1.42159,0.73572 2.38267,0.78c0.80856,0.03725 1.44882,0.75874 2.22183,0.99416c0.89193,0.27162 1.77261,0.30544 2.47016,0.57918c0.93137,0.36549 1.83161,0.75388 2.22533,1.276c0.60981,0.80869 1.3,1.19749 2.10001,1.64932l0.8,0.44284" id="svg_21" stroke-width="2" stroke="#000" fill="none"/>
  <path t="88157,88363,88376,88376,88388,88389,88400,88415,88434,88434,88437,88486,88547,88547,88572,88583,88609,88609,88621,88634,88658,88670,88682,88682,88682,88695,88713,88731,88748,88763,88769,88793,88806,88830,88830,88846,88855,88855,88867,88880,88896,88905,88905,88916,88931,88953,88977,88977,89003,89019,89019,89037,89040,89041,89076,89090,89090,89100,89114,89114,89114,89131,89132,89139,89139,89149,89163" d="m116.78334,250.5c1.82533,0 2.84306,-0.09288 3.62533,0.03601c0.88187,0.14529 1.69195,0.72627 2.6175,0.90683c0.84318,0.16449 1.75717,0.05716 2.55717,0.05716c0.9,0 1.836,0 2.684,0c0.86334,0 1.88608,-0.0993 2.716,0.00134c0.91975,0.11154 1.45409,0.80853 2.39999,0.98799c0.88429,0.16777 1.8,0.01067 2.709,0.01067c1.02434,0 1.70024,-0.07755 2.40434,0.03601c1.14873,0.18527 1.64253,0.93539 2.58667,0.96399c0.89958,0.02724 1.80437,-0.08868 2.7,0c0.8457,0.08374 1.21523,0.93912 2.10016,1c0.78333,0.05389 1.72517,0 2.73317,0c0.756,0 1.70142,-0.0529 2.46667,0.35268c0.84589,0.4483 1.7,0.64732 2.5,0.64732c0.89999,0 1.80801,-0.10223 2.72083,0.02084c0.81784,0.11028 1.65421,0.55286 2.4575,0.85782c0.90074,0.34195 1.00493,1.05273 1.45766,1.936c0.46606,0.90927 0.94632,1.49359 1.73067,2.01868c0.70621,0.47278 1.63626,0.24707 2.375,0.6875c0.79485,0.47388 1.45476,0.80075 2.20767,1.04315c1.09621,0.35294 1.99884,0.43152 2.90334,0.436l0.69467,0l1.006,0.01068l0.6675,0.48932" id="svg_22" stroke-width="2" stroke="#000" fill="none"/>
  <path t="89769,89940,89956,89956,89965,89965,89965,89981,89988,89999,89999,90032,90043,90043,90063,90084,90103,90123,90142,90161,90161,90181,90181,90197,90198,90198,90223,90223,90224,90246,90246,90246,90246,90249,90249,90268,90268,90271,90271,90286,90307,90308,90321,90322,90332,90346,90358,90358,90369,90369,90369,90384,90384,90384,90397,90397,90405,90406,90430,90430,90446,90467,90467,90480,90480,90517,90542,90555,90591,90591,90615" d="m173.78334,263.5c1.75716,0 2.66167,0 3.46167,0c0.95949,0 1.75299,0 2.52849,0c1.19551,0 2.10983,0 3.00984,0c0.8,0 1.63686,-0.03671 2.48267,0.00134c0.95074,0.04279 1.50743,0.81677 2.31866,0.99731c0.87721,0.19522 1.81812,-0.00034 2.59866,0.42667c0.82373,0.45062 1.4865,0.53677 2.44667,0.58536c0.84222,0.04263 1.84808,0.24384 2.65334,0.53098c0.55563,0.19812 1.59473,0.75879 2.27466,1.29434c0.69508,0.54749 1.37968,1.18066 2.17351,1.755c0.5231,0.37848 1.24097,0.93787 2.24649,1.29916c0.75,0.26947 1.58313,0.36664 2.30534,0.63068c1.18454,0.43304 1.772,0.97073 2.59999,1.35782c0.85603,0.40021 1.5042,0.78909 2.38268,1.03735c0.7881,0.22275 1.349,0.82932 1.96399,1.47333c0.5842,0.61176 1.59161,0.52905 2.55334,0.77731c0.82068,0.21185 1.42241,0.56424 2.2,1.15451c0.61879,0.46973 1.35962,1.20309 2.19867,1.50949c0.7394,0.27002 1.71216,0.46246 2.48534,0.97067c0.76363,0.50192 1.45027,0.88321 2.36333,1.146c0.90826,0.26138 1.72423,0.63519 2.586,0.88602c0.84233,0.24515 1.79184,0.15469 2.56667,0.59198c0.72629,0.40988 1.60001,0.74133 2.3,1.22202l0.8,0.33182" id="svg_23" stroke-width="2" stroke="#000" fill="none"/>
  <path t="91713,91921,91921,91937,91938,91951,91951,91965,91970,91994,91994,92006,92030,92031,92046,92046,92056,92066,92080,92096,92105,92116,92129,92129,92147,92147,92153,92154,92165,92190,92203,92227,92227,92264,92302,92326,92339,92339,92375,92400,92400,92424,92425,92437,92448,92463,92464,92486,92487" d="m278.78333,284.5c2.00534,0 2.74936,0 3.85718,0c0.75751,0 1.80905,-0.08911 2.49017,0.05716c1.05716,0.22702 1.74652,0.88196 2.65265,0.94284c0.79822,0.05362 1.74338,0.07303 2.3045,0.70532c0.49326,0.55582 1.34247,1.22977 2.04285,1.28568c1.01349,0.0809 1.97433,-0.18588 2.85132,0.01035c0.80707,0.18057 1.23682,0.98065 2.20135,0.99866c0.80249,0.01498 1.57065,0 2.60532,0c0.74402,0 1.85168,0 2.68567,0c0.909,0 1.84787,-0.06064 2.60901,0.35266c0.74622,0.40521 1.5,0.64667 2.39999,0.64734c0.89999,0.00067 1.82114,-0.02347 2.784,0.00134c0.69131,0.01782 1.56406,0.40842 2.51599,0.832c0.72021,0.32047 1.64111,0.54819 2.34735,0.814c0.88257,0.33215 1.85266,0.35266 2.75284,0.35284l0.78516,0.08514l0.77182,0.27185l0.74734,0.34732" id="svg_24" stroke-width="2" stroke="#000" fill="none"/>
  <path t="94434,94715,94727,94755,94755,94774,94800,94813,94813,94849,94949,94986,95004,95035,95035,95058,95071,95082,95098,95119,95120,95156,95156,95171,95194,95218,95231,95231,95248,95267,95316,95345,95390,95390,95439,95476,95477,95502,95521,95533,95563,95588,95600,95624,95624,95637,95637,95637,95649,95673,95673,95686,95686,95809,95846" d="m374.78333,291.5c0,-2.58932 0,-3.52084 0,-4.32132c0,-0.85333 0,-1.79333 0,-2.77869c0,-0.89999 0,-1.69998 0,-2.59998c0,-0.90002 0,-1.80002 0,-2.71069c0,-0.91064 -0.13028,-1.77325 0.00134,-2.70267c0.11166,-0.78845 0.86984,-1.25189 1,-2.08664c0.14276,-0.91553 0.74597,-1.52139 1.48132,-2c0.64398,-0.41913 1.1825,-1.37589 1.95334,-1.76401c0.77255,-0.38898 1.70236,-0.42209 2.36401,-0.75201c0.84335,-0.42053 1.79999,-0.284 2.69998,-0.284c0.91068,0 1.82135,0 2.67468,0c0.94,0 1.82532,0 2.62534,0c0.89999,0 1.71674,0.16199 2.284,0.716c0.67374,0.65799 1.29471,1.09207 1.90134,1.72c0.56033,0.57999 1.23489,1.16614 2.01465,1.564c0.78824,0.40216 1.55267,0.74875 2.24286,1.30002c0.80569,0.64349 1.32117,1.336 1.67316,2.18265l0.13666,0.8075l0.44733,0.689l0.52533,0.6315" id="svg_25" stroke-width="2" stroke="#000" fill="none"/>
  <path t="97252,97435,97435,97448,97470,97486,97498,97499,97513,97514,97521,97558,97571,97586,97619,97631,97655,97655,97680,97705,97705,97705,97717,97717,97732,97747,97755,97778,97814,97852,97852,97863,97913" d="m373.78333,283.5c-1,1 -1.78812,1.10608 -2.5,1.5c-0.88596,0.49023 -1.70163,0.47528 -2.66666,0.5c-0.81329,0.02084 -1.47635,0.49063 -1.8815,1.29468c-0.3743,0.74283 -1.21069,1.12662 -2.05167,1.58398c-0.7475,0.40652 -1.26535,0.99265 -2.10016,1.12268c-0.91547,0.14261 -1.47183,0.72266 -2.34167,0.99866c-0.9772,0.31009 -1.72321,0.39941 -2.453,0.7045c-1.05792,0.44223 -1.64932,1.08798 -2.50534,1.27466c-0.86945,0.18961 -1.4436,0.5946 -2.11066,1.04617c-0.73682,0.49878 -1.48932,1.07449 -2.08932,1.61749l-0.86401,0.41852l-0.38782,0.64398" id="svg_26" stroke-width="2" stroke="#000" fill="none"/>
  <path t="99813,100079,100111,100130,100130,100147,100154,100166,100166,100179,100179,100196,100203,100228,100228,100255,100256,100277,100277,100301,100313,100313,100351,100351,100363,100380,100389,100400,100400,100414,100414,100430,100430,100437,100437,100448,100448,100449,100464,100480,100486,100486,100510,100529,100547,100564,100564,100575,100575,100595,100600,100659,100683,100683,100697,100698,100714,100722,100745,100745,100745,100770,100770" d="m397.78333,273.5c1.71469,-1.08398 2.27344,-1.76526 3,-2.16666c0.77271,-0.42688 1.18146,-1.34286 2.10001,-1.71185c0.84271,-0.33853 1.6701,-0.142 2.55267,-0.47415c0.70624,-0.26581 1.61295,-0.43399 2.54733,-0.64999c0.84338,-0.19498 1.13614,-1.16309 1.90018,-1.75452c0.56821,-0.43982 1.57452,-0.55908 2.24716,-0.94733c0.92926,-0.53638 1.63998,-1.20752 2.40982,-1.29099c0.89029,-0.09653 1.75888,0.00107 2.72202,-0.00452c0.9209,-0.00534 1.64355,-0.41837 2.52081,-0.83334c0.71259,-0.3371 1.64075,-0.54926 2.34735,-0.814c0.89105,-0.33386 1.62198,-0.35199 2.66251,-0.35266c0.77548,-0.00049 1.8248,0.0397 2.7435,-0.01065c0.76248,-0.04181 1.56512,-0.5022 2.44666,-0.90533c0.86429,-0.39526 1.4563,-0.88254 2.39999,-1.07333c0.8623,-0.17435 1.42422,-0.66757 2.26135,-0.996c0.63425,-0.24881 1.42627,-0.93121 1.93732,-1.44669c0.67722,-0.68311 1.26443,-1.32986 1.96301,-1.62067c0.8732,-0.36346 1.64755,-0.64244 2.43799,-1.04732c0.76334,-0.39101 1.26379,-1.28131 2.022,-1.7785c0.79675,-0.52248 1.61432,-0.12151 2.37967,-0.12151l1.18799,0l0.72534,0" id="svg_27" stroke-width="2" stroke="#000" fill="none"/>
  <path t="101340,101533,101557,101571,101606,101606,101618,101630,101654,101654,101667,101667,101679,101695,101705,101705,101716,101729,101729,101747,101747,101753,101765,101765,101779,101795,101803,101814,101839,101853,101853,101876,101876,101897,101901,101913,101930,101931,101940,101957,101958,101969,101980,101980,101987,101999,101999,102013,102029,102029,102035,102035,102060,102085,102085,102097,102097,102114,102114,102114,102132,102132,102132,102135,102135,102148,102148,102148,102164,102164,102165,102165,102172,102172" d="m448.78333,253.5c1.70001,-0.9955 2.60941,-0.88805 3.52084,-1.02083c0.98804,-0.14395 1.65924,-0.53932 2.5925,-0.89517c0.76999,-0.29359 1.00024,-1.31888 1.64835,-1.72682c0.79453,-0.50011 1.79092,-0.45071 2.177,-1.20784c0.43137,-0.84595 1.0932,-1.27586 1.66132,-1.75999c0.74536,-0.63518 1.50912,-1.23639 2.28534,-1.47334c0.77759,-0.23738 1.67059,-0.52901 2.47867,-0.90134c0.78699,-0.36261 1.15842,-1.24091 1.83466,-1.84532c0.68051,-0.60823 1.19977,-1.17218 1.82666,-1.744c0.56241,-0.51302 1.26154,-1.14355 1.67468,-1.77716c0.58606,-0.89879 1.18298,-1.36996 2.11465,-1.62285c0.94022,-0.2552 1.45538,-0.79901 2.28534,-1.24666c0.64764,-0.34932 1.43817,-0.72539 2.384,-1.06267c0.70581,-0.25169 1.62759,-0.67328 2.51599,-0.716c0.7991,-0.03842 1.7579,0.03162 2.65268,-0.0045c0.69611,-0.02809 1.67307,-0.53461 2.51401,-0.82883c0.80215,-0.28064 1.65833,-0.34917 2.42267,-0.74133c0.81281,-0.41704 1.72916,-0.6537 2.41064,-0.92534c0.97488,-0.3886 1.81076,-0.46155 2.76801,-0.504c0.73361,-0.03253 1.58261,-0.12006 2.26135,-0.84933c0.54059,-0.58083 0.61783,-1.47749 1.27966,-2.33234c0.55164,-0.71248 1.46289,-1.01273 2.23267,-1.33516c0.86237,-0.36122 1.76379,-0.79056 2.35382,-1.13184c0.87714,-0.50735 1.41916,-0.86333 2.41916,-1.46201l0.66452,-0.36449" id="svg_28" stroke-width="2" stroke="#000" fill="none"/>
  <path t="103012,103194,103207,103220,103220,103220,103239,103239,103257,103274,103274,103283,103283,103304,103328,103345,103365,103380,103380,103402,103415,103439,103439,103452,103476,103489,103501,103501,103501,103513,103513,103529,103538,103539,103539,103549,103550,103562,103562,103579,103587,103599,103623,103623,103637,103637,103648,103661,103679,103687,103698,103698,103722,103723,103736,103746,103746,103761,103762,103762,103772,103772,103783,103783,103796,103812,103812,103821" d="m506.78333,222.5c1.70001,-0.05716 2.50681,-0.5995 3.33334,-0.83333c0.8931,-0.25266 1.70416,-0.07613 2.69601,-0.45067c0.70618,-0.26666 1.6532,-0.69347 2.17065,-1.28534c0.61121,-0.6991 0.88959,-1.67996 1.59998,-2.144c0.71893,-0.46962 1.59381,-0.72223 2.39868,-1.20267c0.74756,-0.44624 1.42163,-0.83339 2.09601,-1.13666c0.83075,-0.3736 1.11523,-1.37309 1.80536,-2.04716c0.57892,-0.56541 1.34863,-1.04985 2.00983,-1.5475c0.65417,-0.4924 1.60358,-0.83722 1.83948,-1.62868c0.19537,-0.65552 0.76587,-1.54126 1.40253,-1.76765c1.03217,-0.36705 1.79181,-0.99887 2.48413,-1.34567c0.74353,-0.37245 1.77252,-0.48897 2.50684,-0.66333c0.92444,-0.21951 1.3808,-0.83612 2.15717,-1.4265c0.73474,-0.55875 1.34406,-1.09 2.07068,-1.71951c0.56403,-0.48862 1.64081,-0.62119 2.3877,-0.80133c0.89178,-0.21509 1.39752,-0.97 2.34161,-1c0.89825,-0.02855 1.41956,-0.50446 1.76135,-1.14932c0.45953,-0.86694 1.45599,-0.84927 2.31335,-0.85068c0.94696,-0.00156 1.67615,0.03787 2.79199,-0.16666c0.79016,-0.14484 1.56085,-0.45201 2.5,-0.66667c0.80475,-0.18394 1.81732,-0.16522 2.508,-0.16667c1.06818,-0.00226 1.92535,-0.22133 2.62531,-0.716l0.80005,-0.27333" id="svg_29" stroke-width="2" stroke="#000" fill="none"/>
  <path t="110174,110406,110406,110432,110454,110454,110457,110473,110473,110483,110483,110483,110496,110497,110504,110504,110528,110545,110545,110603,110626,110645,110652,110652,110675,110725,110725,110738,110738,110749,110750,110750,110774,110786,110786,110786,110799,110823,110848,110861,110879,110972" d="m553.78333,160.5c-0.42529,1.82533 -0.83575,2.49158 -0.97913,3.5c-0.13855,0.97443 -0.02087,1.67467 -0.02087,2.74733c0,0.91934 0,1.77351 0,2.75267c0,0.8 0,1.60001 0,2.60001c0,0.8 0,1.79866 0,2.564c0,0.95067 0,1.836 0,2.636c0,0.89999 0,1.8 0,2.72084c0,0.96317 0,1.65382 0,2.722c0,0.85733 0,1.64249 0,2.60382c0,0.84001 0,1.836 0,2.63251c0,0.7515 0.00336,1.87016 0,2.85417c-0.00226,0.66751 0.14465,1.69846 -0.35266,2.49966c-0.45282,0.72955 -0.64734,1.467 -0.64734,2.36699l-0.00018,0.89984l-0.28381,0.81616" id="svg_30" stroke-width="2" stroke="#000" fill="none"/>
  <path t="111995,112203,112203,112221,112239,112240,112301,112301,112325,112339,112400,112401,112425,112425,112437,112453,112497,112514,112529,112530,112547,112548,112622,112622,112645,112646,112668,112706,112719,112743,112744,112818,112818,112818,112837,112847,112867" d="m552.78333,160.5c0.94287,3.53833 0.90247,4.34389 1.01068,5.37466c0.08429,0.80281 0.5719,1.59688 0.82269,2.45868c0.24512,0.84233 0.1665,1.76666 0.16663,2.6875c0.00012,0.80049 -0.10406,1.70248 0.284,2.59383c0.32294,0.74176 0.71375,1.58531 0.716,2.48534c0.00226,0.89999 -0.05292,1.8018 0.00452,2.709c0.04211,0.66525 0.35382,1.69467 0.57019,2.44034c0.26563,0.91534 0.41992,1.86528 0.42529,2.73466c0.00531,0.86331 0,1.75883 0,2.71599c0,0.90001 0,1.8 0,2.61433c0,0.95367 0,1.68567 0,2.41768l0,1.09599l0,0.972l0,0.89999" id="svg_31" stroke-width="2" stroke="#000" fill="none"/>
  <path t="116836,117287,117337,117337,117347,117435,117497,117545,117545,117573,117609,117639,117656,117656,117667,117667,117680,117704,117716,117741,117778,117802,117814,117829,117829,117864,117901,117925,117947,117947,117962,117987,117999,118012,118029,118029,118048,118110,118111,118137,118159,118196,118234,118234,118271,118271,118305,118305,118324,118324" d="m322.78333,160.5c0,1.82533 -0.18549,2.86623 0.05719,3.69551c0.25793,0.88133 0.90009,1.50146 0.94281,2.4045c0.04251,0.89899 0.1243,1.67744 0.57468,2.5c0.42728,0.7804 0.42532,1.7045 0.42532,2.56667c0,0.83333 0,1.81183 0,2.632c0,0.90132 0,1.80133 0,2.70132c0,0.90001 -0.19388,1.82146 0.00134,2.69867c0.18054,0.81125 0.95197,1.36763 0.99417,2.15317c0.05432,1.01071 0.00449,1.84816 0.00449,2.74817c0,0.89999 0,1.7 0,2.59999c0,0.90001 0,1.8 0,2.71068c0,0.91066 0,1.76399 0,2.70399c0,0.88533 0.1243,1.66278 0.57468,2.48534c0.42728,0.7804 0.42532,1.7045 0.42532,2.56667c0,0.85417 0,1.83333 0,2.62267c0,1.04401 0,1.836 0,2.69467l0,0.86333" id="svg_32" stroke-width="2" stroke="#000" fill="none"/>
  <path t="118949,119107,119132,119155,119204,119205,119229,119292,119341,119370,119389,119403,119414,119428,119428,119445,119445,119451,119475,119487,119512,119537,119587,119587,119611,119629,119646,119646,119672,119696,119696,119711,119711,119734,119745,119762,119783,119795,119796,119833,119833,119856,119886,119919,119930,119931,119956,119981,120018,120031,120031,120055,120078" d="m326.78333,205.5c0,1.8 0,2.7 0,3.52084c0,0.96317 0,1.65382 0,2.722c0,0.95715 -0.08868,1.86154 0,2.75716c0.08374,0.84572 0.93912,1.21523 1,2.10001c0.0618,0.89787 0,1.65717 0,2.55266c0,0.86334 0,1.82651 0,2.74734c0,0.89999 0,1.79999 0,2.7c0,0.89999 0,1.7 0,2.59999c0,0.936 0,1.78401 0,2.64734c0,0.89999 -0.07361,1.82445 0.02084,2.65266c0.11319,0.9924 0.77933,1.64836 0.95834,2.5c0.18518,0.881 0.02081,1.8 0.02081,2.70134c0,0.96533 0,1.62399 0,2.632c0,0.86217 0.03174,1.81841 0.85068,2.14133c0.87387,0.34459 1.14932,1.02533 1.14932,1.82533c0,0.89999 0,1.8 0,2.72084c0,0.96317 0,1.65382 0,2.722l0,0.85716" id="svg_33" stroke-width="2" stroke="#000" fill="none"/>
  <path t="123970,124313,124313,124351,124373,124373,124397,124412,124429,124429,124446,124483,124509,124529,124558,124558,124583,124606,124607,124620,124631,124643,124661,124669,124692,124711,124711,124729,124730,124754,124792,124816,124841,124865,124889,124889,124914,124914,124927,124927,124943,124964,124964,124977,124977,125001,125001,125012,125012,125029,125049,125062,125078,125098,125098,125111,125111,125128,125128,125136,125147,125161,125178,125178,125197,125211,125260,125300,125320,125333,125333,125358,125370,125370,125383,125394,125413,125413,125420,125431,125431,125431,125455,125455,125456,125469,125481,125493,125542,125568,125586,125599,125616,125616,125629,125629,125629,125716" d="m220.78334,256.5c1,-1 1.81042,-0.89957 2.636,-1.036c0.87169,-0.14406 1.68129,-0.72627 2.60683,-0.90683c0.84317,-0.16449 1.75717,-0.05717 2.55717,-0.05717c0.89999,0 1.79999,0 2.7,0c0.91066,0 1.82133,0 2.67467,0c0.94,0 1.82533,0 2.62534,0c0.89999,0 1.79999,0 2.7,0c0.89999,0 1.8,0 2.70132,0c0.96533,0 1.79868,0 2.77718,0c0.717,0 1.62149,0 2.5215,0c0.89999,0 1.8,0 2.7,0c0.90033,0 1.77066,0 2.56799,0c0.98134,0 1.89867,0 2.81067,0c0.832,0 1.74283,0 2.63202,0c0.98917,0 1.76849,0 2.76797,0c0.77402,0 1.67401,0 2.53735,0c0.96317,0 1.784,0 2.68399,0c0.89999,0 1.79999,0 2.55716,0c0.89999,0 1.84418,0 2.83835,0c0.74731,0 1.76849,0 2.60449,0c0.89999,0 1.79999,0 2.60001,0c0.89999,0 1.58716,0.31451 2.36667,0.83334c0.70743,0.47086 1.45804,0.56145 2.16666,1c0.73651,0.45581 1.78259,0.11963 2.66666,0.16666c0.80341,0.04272 1.62253,0.53348 2.40002,0.98535c0.7229,0.42014 1.00946,1.40018 1.80133,1.84399c0.85513,0.47928 1.64532,0.17065 2.48532,0.17065c0.996,0 1.79251,0 2.54401,0c1.09732,0 2.11951,-0.07303 2.74399,0.42532c0.60797,0.48517 1.52533,0.57468 2.42535,0.57468c0.90448,0 1.76666,0 2.62082,0c0.97916,0 1.76849,0 2.49384,0l1.07468,0" id="svg_34" stroke-width="2" stroke="#000" fill="none"/>
  <path t="149693,149936,149959,149984,149984,150008,150008,150046,150083,150083,150094,150094,150131,150144,150193,150243,150259,150279,150303,150303,150317,150328,150342,150358,150365,150378,150392,150415,150427,150451,150489,150489,150501,150512,150537,150562,150587,150587,150599,150599,150611,150636,150636,150660,150660,150676,150693,150693,150698,150710,150735,150747,150770,150771,150784,150808,150835,150835,150870,150870,150909,150926,150932,150944,150968,150980,150980,150993,151009,151018,151018,151018,151029,151030,151043,151067" d="m354.78333,281.5c1.60001,-0.57468 2.42789,-0.91824 3.32135,-1.22134c0.69473,-0.23569 1.70251,-0.52426 2.47733,-0.86264c0.76746,-0.33514 1.34326,-1.21548 1.68051,-1.91602c0.4584,-0.95215 0.74625,-1.54099 1.39951,-2.22134c0.55701,-0.58011 1.1058,-1.19516 1.62131,-1.77866c0.56357,-0.63788 1.26169,-0.99774 2.15268,-1c0.86334,-0.0022 1.74854,-0.08612 2.37265,-0.57468c0.62912,-0.49249 1.57471,-0.41992 2.47467,-0.42532c0.8894,-0.00534 1.44119,-0.7594 2.2045,-0.99548c0.85638,-0.26489 1.6506,-0.55618 2.46219,-0.83786c0.79919,-0.27737 1.96381,0.18124 2.66666,-0.33331c0.65421,-0.47897 1.39322,-0.59863 2.16666,-1.16669c0.52707,-0.38712 1.11926,-1.17548 1.71469,-1.74933c0.61234,-0.59012 1.12991,-1.37695 1.888,-1.63199c0.96649,-0.32516 1.78021,-0.23734 2.64017,-0.638c0.91153,-0.42468 1.55734,-0.62866 2.45715,-0.64734c0.90051,-0.01868 1.79956,-0.37076 2.216,-1.19998c0.42648,-0.84921 0.91379,-1.23712 1.64801,-1.82535c0.60394,-0.48386 0.68604,-1.70767 1.19766,-2.26483c0.61017,-0.66449 1.62811,-0.65387 2.48117,-1.0625c0.80884,-0.38745 1.30472,-1.09348 2.04248,-1.562c0.69147,-0.43913 1.71466,-0.08534 2.51468,-0.08534c0.89999,0 1.88055,0.0005 2.74265,-0.2215c0.7164,-0.18449 1.45203,-0.483 2.48669,-0.97717l0.66165,-0.44415l0.80899,-0.33633l0.90002,-0.02084" id="svg_37" stroke-width="2" stroke="#000" fill="none"/>
  <path t="154221,154540,154552,154570,154612,154613,154636,154650,154685,154701,154702,154748,154765,154783,154809,154826,154846,154882,154895,154944,154995,154995,155031,155118" d="m277.78333,273.5c1.83334,0.16666 2.26291,0.82007 2.95184,1.35266c0.66052,0.51065 1.34146,0.70178 2.09634,1.29468c0.6666,0.52356 0.9035,1.37451 0.952,2.33118c0.03641,0.71832 0.53745,1.47394 1.29532,1.96881c0.6954,0.45407 1.30701,0.68417 2.18369,1.07352c0.71088,0.3157 1.22537,0.96677 2.12082,0.97916c0.92099,0.01273 1.72116,0.2215 2.53867,0.61066l0.69202,0.58801l0.52649,0.74417" id="svg_38" stroke-width="2" stroke="#000" fill="none"/>
  <path t="156998,157248,157296,157296,157344,157358,157375,157392,157417,157418,157443,157443,157480,157480,157504,157541,157566,157590,157608,157652,157652,157664,157689,157689,157703,157703,157722,157751,157751,157762,157800,157812,157861,157874,157923,157958,157975,157993,157993,158008" d="m350.78333,266.5c-1.82532,0 -2.83331,0 -3.6955,0c-0.90448,0 -1.8045,0 -2.7045,0c-0.90448,0 -1.76666,0 -2.60001,0c-0.97867,0 -1.75266,0 -2.65265,0c-0.86334,0 -1.82651,0 -2.74734,0c-0.89999,0 -1.79999,0 -2.69998,0c-0.90002,0 -1.73645,-0.18253 -2.53601,0.07199c-0.93677,0.29819 -1.36502,0.94781 -2.19733,1.76135c-0.53131,0.51932 -1.33884,0.87762 -2.16669,1.33331c-0.73425,0.40417 -0.93799,1.39099 -1.61066,1.85867c-0.72281,0.50253 -1.2226,1.18616 -1.3895,2.07449c-0.14951,0.79572 -0.94266,1.25735 -0.99985,2.1015l0,0.96533l-0.02081,0.8125l-0.26318,0.8515" id="svg_39" stroke-width="2" stroke="#000" fill="none"/>
  <path t="164216,164423,164423,164435,164484,164520,164556,164606,164631,164642,164680,164717,164717,164729,164729,164741,164757,164790,164853,164865,164882,164900,164905,164923,164938,164938,164963,164988,165050,165051,165074,165098,165149,165165,165185,165198,165234,165259,165346,165346,165394,165394,165414,165468,165480" d="m273.78333,198.5c1.83334,0.16667 1.9028,0.89288 2.01068,1.81467c0.11224,0.95909 1.12723,0.86354 1.82266,1.35201c0.71518,0.50232 1.46503,0.65579 2.08267,1.11732c0.69098,0.51633 1.41415,0.62442 2.25867,0.75201c0.96124,0.14523 1.76245,0.444 2.46817,1.01666c0.61859,0.50197 1.43796,0.38808 2.19049,1.114c0.61163,0.59 0.61273,1.38097 1.08133,2.11867c0.43912,0.6913 0.59216,1.45645 0.96384,2.1575c0.42929,0.80974 0.02478,1.80504 0.12283,2.75716c0.08368,0.81262 0.44678,1.61821 1.02399,2.36401c0.48413,0.62555 1.14401,1.15199 1.97467,1.43599c0.83069,0.284 1.42606,0.97389 2,1.5c0.61145,0.5605 1.29266,1.21448 1.70001,1.85184c0.49118,0.76854 1.10001,1.44684 1.68933,2.04817l0.52533,0.79999l0.08533,0.90001" id="svg_40" stroke-width="2" stroke="#000" fill="none"/>
  <path t="183132,183339,183364,183382,183424,183474,183496,183522,183540,183547,183584,183608,183623,183623,183641,183641,183694,183732,183806,183817,183830,183830,183842,183842,183867,183880,183891,183891,183916,183928,183929,183940,183955,183965,183988,184005,184005,184005,184015,184015,184015,184026,184026,184026,184039,184039,184039,184056,184056,184056,184056,184064,184064,184075,184075,184089,184089,184105,184106,184113,184113,184113,184124,184124,184124,184124,184139,184139,184139,184139,184139,184155,184156,184156,184156,184156,184162,184162,184162,184173,184173,184198,184223,184223,184223,184240,184240" d="m309.78333,328.5c2.58936,0 3.38174,0.12656 4.05267,0.64734c0.58377,0.45313 1.67297,-0.08856 2.51135,0.38867c0.69147,0.39359 0.6362,1.36481 1.15198,2.048c0.46454,0.61533 0.24182,1.71356 0.64566,2.56415c0.32443,0.68332 1.17395,1.03943 1.92853,1.39999c0.80807,0.38614 1.13892,1.32156 1.9313,1.83035c0.74628,0.47916 1.7785,0.12149 2.53568,0.12149c0.89551,0 1.75885,0 2.72202,0c0.82532,0 1.84216,0 2.52081,0c0.97852,0 2,0 2.80002,0c0.89999,0 1.79999,0 2.69998,0c0.80902,0 1.83334,0 2.50986,0c0.77548,0 1.82349,0 2.76483,0c0.67798,0 1.91064,0 2.46133,0c0.8685,0 2.064,0 2.664,0c0.89999,0 2.09998,0 2.69864,0c0.88052,0 1.716,0 2.94418,0c0.64648,0 1.65701,0 2.43634,0c0.99948,0 1.90482,0 2.86749,0c0.61499,0 1.84,0 2.39999,0c0.91501,0 1.92001,0 2.63867,0c1.1355,0 1.91916,0.00198 3.11465,0c0.80002,-0.00134 1.60187,0.00244 2.40002,-0.07199c0.80258,-0.07483 2.00351,-0.35962 2.39731,-0.49866c0.78967,-0.27878 1.54816,-0.62015 2.23203,-1.03201c1.23257,-0.74237 1.70145,-1.17206 2.30447,-1.74017c0.79913,-0.75287 1.26334,-1.47296 2.08752,-2.04651c0.83258,-0.57938 1.58398,-0.5535 2.328,-0.59998l1.10767,-0.01083l0.83398,-0.05701" id="svg_42" stroke-width="2" stroke="#000" fill="none"/>
  <path t="185137,185382,185401,185493,185517,185763,185786,185786,185787,185805,185805,185822,185840,185848,185848" d="m381.78333,330.5c0.61069,-1.564 1.7045,-1.86768 1.98935,-2.61066c0.31113,-0.81146 0.71368,-1.44128 0.92532,-2.24402c0.1759,-0.66721 0.08466,-1.46399 0.08533,-2.68365c0.00043,-0.79999 0,-1.82565 -0.00131,-2.66165l-0.22,-0.90002l-0.49469,-0.69998" id="svg_43" stroke-width="2" stroke="#000" fill="none"/>
 </g>
 <g display="none">
  <title>muse_image</title>
  <image xlink:href="http://farm3.static.flickr.com/2281/2261571183_aa2961268a.jpg" id="muse" height="426" width="640" y="27" x="0"/>
 </g>
 <g display="none">
  <title>bbox</title>
  <rect stroke="#f00" fill="none" stroke-width="3" height="176.54054" width="546.56" y="142.13514" x="56.32" id="bbox"/>
 </g>
</svg>
