<svg width="640" height="480" xmlns="http://www.w3.org/2000/svg" xmlns:svg="http://www.w3.org/2000/svg" xmlns:xlink="http://www.w3.org/1999/xlink">
 <!-- Sketchy ANNOTATION
  ImageNet ID: n02691156_11286
  URL: http://farm3.static.flickr.com/2412/2262418860_78bf5792e9.jpg
  Image Width: 500
  Image Height: 333
  BBox X: 29
  BBox Y: 53
  BBox Width: 409
  BBox Height: 228
  Exposure: 2000ms
  Synset Label: airplane
  Synset ID: n02691156
  Worker Tag: airplane
  Sanity Check: 
   Context
   Saved
   Shading
  Comment: 
   {}
  Worker ID: AQ9ISCTDF9B48
  Assignment ID: 3EICBYG644WW8JQQQK6P24TJBI6CJK
  HIT ID: 3NSCTNUR2ZNYLLGDR2126FP5T4U5AZ
  Work Time: 203s
  Worker Score: 0.9286
 END ANNOTATION -->
 <g display="inline">
  <title>Layer 1</title>
  <path t="0,127,135,148,148,164,182,198,198,214,214,214,231,232,248,248,248,248,265,265,281,281,298,298,314,314,331,331,331,331,348,348,367,367,367,383,383,398,399,414,431,448,448,464,482,498,498,567,575,599,639,887,903,927,951,959,967,967,981,998,1014,1014,1031,1031,1031,1031,1048,1048,1048,1048,1048,1049,1049,1064,1064,1064,1064,1064,1064,1065,1065,1081,1081,1081,1081,1081,1081,1081,1082,1082,1098,1098,1098,1098,1099,1099,1099,1099,1099,1114,1114,1114,1114,1114,1115,1115,1131,1131,1131,1131,1131,1132,1148,1148,1148,1149,1164,1164,1164,1181,1181,1181,1181,1198,1199,1199,1199,1214,1215,1215,1215,1215,1215,1232,1232,1232,1248,1248,1248,1264,1264,1281,1281,1298,1298,1298,1299,1314,1314,1314,1331,1331,1331,1332,1348,1348,1348,1349,1349,1364,1364,1364,1365,1381,1381,1381,1382,1398,1399,1399,1399,1399,1399,1414,1415,1415,1415,1415,1432,1432,1432,1432,1432,1448,1448,1449,1449,1464,1464,1465,1465,1481,1481,1481,1482,1498,1498,1499,1514,1514,1515,1532,1533,1533,1548,1548,1549,1564,1565,1565,1581,1581,1582,1598,1599,1614,1615,1615,1615,1632,1632,1632,1632,1648,1649,1649,1649,1664,1664,1665,1665,1681,1681,1682,1682,1698,1699,1699,1715,1715,1715,1732,1732,1732,1748,1749,1764,1765,1765,1781,1782,1799,1799,1814,1815,1815,1815,1832,1832,1832,1848,1849,1871,1886,1887,2062,2254,2286,2790,2814,2822,2823,2839,2847,2864,2865,2881,2897,2898,2898,2898,2915,2915,2915,2915,2915,2932,2932,2932,2932,2932,2947,2948,2948,2948,2948,2964,2965,2965,2965,2981,2982,2998,2998,3015,3015,3015,3054,3055,3118,3310,3494,3758,3790,3790,3806,3838,3838,3847,3870,3870,3886,3886,3897,3914,3915,3931,3932,3932,3947,3948,3964,3965,3965,3981,3982,3998,3998,3998,4015,4015,4015,4031,4032,4032,4048,4048,4048,4065,4065,4065,4082,4082,4082,4098,4098,4098,4114,4115,4115,4131,4132,4132,4132,4147,4164,4181,4182,4198,4215,4239,4239,4248,4278,4278,4302,4326,4342,4382,4382,4422,4422,4446,4478,4494,4510,4510,4518,4550,4574,4590,4590,4614,4614,4622,4622,4631,4648,4665,4682,4697,4698,4714,4742,4742,4766,4774,4790,4791,4830,4854,4854,4864,4887,4898,4918,4942,4942,4943,4958,4974,4990,5014,5038,5055,5055,5070,5070,5082,5098,5114,5131,5132,5148,5148,5164,5165,5182,5182,5198,5198,5198,5215,5215,5215,5232,5232,5232,5248,5248,5264,5281,5282,5298,5298,5298,5314,5331,5347,5364,5382,5382,5398,5398,5415,5415,5432,5432,5432,5448,5448,5464,5465,5486,5487,5502,5503,5514,5515,5533,5548,5564,5581,5582,5598,5615,5638,5639,5639,5654,5655,5678,5679,5694,5710,5711,5718,5731,5748,5764,5765,5782,5782,5798,5798,5814,5815,5831,5832,5832,5848,5848,5864,5881,5882,5882,5898,5898,5914,5915,5931,5948,5948,5964,5965,5982,5982,5982,5998,5998,6015,6015,6031,6032,6048,6048,6064,6065,6081,6082,6098,6098,6114,6115,6115,6131,6132,6132,6148,6164,6182,6182,6198,6198,6222,6238,6262,6326,6326,6390,6414,6454,6486,6926,6942,6966,7014,7014,7038,7054,7070,7081,7102,7134,7150,7166,7190,7190,7198,7238,7262,7262,7270,7294,7334,7334,7350,7366,7382,7422,7422,7430,7454,7502,7502,7510,7550,7550,7582,7614,7974,7974,7982,7991,8006,8021,8039,8059,8060,8078,8079,8079,8079,8099,8099,8099,8100,8100,8118,8119,8119,8138,8138,8139,8139,8139,8139,8158,8159,8159,8159,8177,8178,8178,8178,8197,8198,8198,8198,8198,8199,8217,8217,8217,8218,8235,8236,8236,8236,8237,8256,8257,8257,8257,8275,8276,8276,8276,8276,8294,8295,8295,8295,8316,8316,8316,8317,8317,8317,8336,8336,8336,8337,8337,8354,8355,8355,8355,8355,8374,8375,8375,8375,8393,8394,8394,8394,8395,8412,8413,8413,8413,8433,8434,8434,8434,8453,8454,8454,8454,8455,8455,8473,8474,8474,8474,8474,8494,8494,8494,8495,8495,8514,8515,8515,8515,8535,8535,8535,8553,8554,8554,8554,8573,8574,8592,8592,8593,8612,8614,8614,8633,8634,8653,8654,8654,8673,8673,8674,8674,8693,8693,8694,8694,8694,8714,8714,8714,8734,8734,8735,8735,8753,8753,8753,8772,8773,8773,8773,8792,8792,8792,8793,8812,8812,8813,8813,8813,8833,8833,8833,8834,8852,8853,8853,8854,8854,8854,8872,8872,8872,8873,8873,8873,8893,8893,8894,8914,8914,8915,8915,8935,8936,8936,8955,8955,8956,8956,8975,8975,8975,8994,9022,9022,9327,9647,9663,9671,9689,9708,9728,9729,9729,9729,9748,9749,9749,9749,9768,9769,9769,9789,9790,9790,9809,9809,9809,9828,9829,9829,9850,9850,9851,9851,9869,9870,9871,9871,9891,9891,9892,9892,9911,9911,9911,9912,9930,9931,9931,9950,9951,9971,9991,10103,10103,10143,10143,10159,10191,10207,10231,10247,10567,10567,10575,10615,10631,10656,10671,10695,10704,10727,10751,10764,10764,10784,10807,10823,10843,10871,10884,10885,10911,11007,11007,11119,11151,11175,11215,11223,11247,11256,11257,11279,11298,11318,11337,11357,11383,11383,11415,11446,12023,12023,12070,12102,12103,12111,12144,12167,12167,12199,12215,12255,12255,12382,12446,12591,12606,12615,12634,12654,12674,12675,12696,12715,12716,12716,12736,12756,12757,12757,12777,12777,12778,12799,12819,12820,12840,12841,12861,12861,12882,12902,12924,12944,12945,12965,12990,13023" d="m54,284c1.05267,-1.70001 1.54178,-2.48032 2.19867,-3.20001c0.53348,-0.5845 0.81193,-1.40744 1.22667,-2.21066c0.39412,-0.76331 0.39651,-1.70181 1.0175,-2.56799c0.45353,-0.6326 1.14742,-0.84283 1.8045,-1.68298c0.42909,-0.54865 0.9104,-1.51062 1.40533,-2.28653c0.34122,-0.53491 0.84748,-1.29468 1.59016,-2.24197c0.44333,-0.56546 1.03848,-1.47363 1.45716,-2.15717c0.47897,-0.78195 1.02965,-1.38596 1.50134,-2.13934c0.46461,-0.7421 0.95929,-1.68375 1.28267,-2.19601c0.5066,-0.80249 1.01369,-1.56201 1.632,-2.34933c0.49494,-0.63022 1.20757,-1.50906 1.53667,-1.97333c0.52558,-0.74146 1.19604,-1.64951 1.70067,-2.32266c0.49535,-0.66077 0.76572,-1.45154 1.22134,-2.272c0.43422,-0.78194 0.69318,-1.61548 1.22666,-2.2c0.65688,-0.7197 1.01178,-1.55946 1.42017,-2.3c0.37196,-0.67448 1.18998,-1.28583 1.6945,-2.09866c0.45707,-0.73637 0.89085,-1.47186 1.60484,-1.7805c0.80722,-0.34895 1.77917,-0.02083 2.67916,-0.02083c0.9,0 1.80041,0.02536 2.60001,0c0.90135,-0.02859 1.63901,-0.63564 2.5135,-0.94733c0.71115,-0.25348 1.74523,-0.33775 2.41583,-0.48868c0.77473,-0.17436 1.64381,-0.3728 2.604,-0.564c1.03842,-0.20677 1.58832,-0.30646 2.75,-0.47917c0.60918,-0.09058 1.23921,-0.17116 1.89,-0.23549c1.35854,-0.13431 2.79863,-0.20354 3.5455,-0.23717c0.76379,-0.03439 1.54385,-0.06544 2.33849,-0.10951c0.80904,-0.04488 1.63332,-0.08275 3.30933,-0.27199c0.85589,-0.09665 1.71558,-0.2305 2.577,-0.37651c0.86128,-0.14598 1.71512,-0.30869 2.559,-0.47549c0.83079,-0.16423 1.64178,-0.33643 3.19733,-0.64799c0.73524,-0.14726 1.445,-0.28314 2.133,-0.4095c0.66934,-0.12292 1.32508,-0.23781 1.97099,-0.34651c0.63943,-0.1076 1.27673,-0.21329 3.21717,-0.51067c0.66129,-0.10135 1.32703,-0.19984 1.9935,-0.29999c0.66452,-0.09985 1.97578,-0.29823 2.616,-0.40001c1.23655,-0.19658 1.82623,-0.29857 2.946,-0.4955c0.53011,-0.09323 1.52785,-0.28229 2.45,-0.41916c1.22775,-0.18224 1.9585,-0.23935 2.63167,-0.26451c0.93855,-0.03508 2.14194,-0.01134 2.74167,-0.03149c0.9007,-0.03026 2.10152,-0.20464 2.7045,-0.342c0.93367,-0.21269 1.57655,-0.39349 2.61734,-0.52617c0.7419,-0.09457 1.54333,-0.11928 2.397,-0.231c1.41992,-0.18584 1.92644,-0.32129 2.97749,-0.5955c0.53456,-0.13947 1.58008,-0.44725 2.084,-0.58932c1.35056,-0.38075 2.07251,-0.58237 2.93634,-0.66367c1.07936,-0.10158 1.88333,-0.04167 2.68333,-0.04167c1,0 1.79999,0 2.80266,0c0.86934,0 1.93068,0.00368 2.56534,-0.00133c0.68271,-0.00539 1.73405,-0.00316 2.69867,-0.16534c0.83687,-0.1407 1.57187,-0.46545 2.66666,-0.66666c0.6321,-0.11617 1.70912,-0.15636 2.47568,-0.21935c1.19241,-0.09798 1.99063,-0.22598 2.78033,-0.37267c0.77565,-0.14407 1.52122,-0.32031 2.58932,-0.45332c0.99295,-0.12366 1.64848,-0.129 2.30533,-0.20534c1.40758,-0.16359 2.16333,-0.34904 2.96268,-0.52667c0.41534,-0.09229 1.71854,-0.39626 2.63866,-0.588c0.9492,-0.19781 1.43381,-0.29099 2.41917,-0.44417c0.49603,-0.07712 1.99469,-0.24646 2.991,-0.3c0.49358,-0.02652 1.46848,-0.05048 2.41917,-0.05583c0.91864,-0.00517 1.79999,-0.00133 2.64932,-0.00133c0.82533,0 1.63467,0 2.83583,0c0.79567,0 1.57935,0 2.343,0c1.0905,0 2.10451,0 2.75717,0c0.98399,0 2.02116,0 2.74817,0c0.731,0 1.78255,0.00928 2.709,-0.00017c1.02216,-0.01042 1.73161,-0.05647 2.72816,-0.28383c0.84135,-0.19194 1.40953,-0.42047 2.6145,-0.5945c0.88441,-0.12773 1.743,-0.11925 2.77882,-0.12151c0.69601,-0.00151 1.60535,0 2.60667,0c0.83549,0 1.41917,0 2.61433,0c0.879,0 1.686,0 2.73367,0c0.65332,0 1.73116,0 2.33817,0c1.0605,0 1.83249,0 3.02832,0c0.79567,0 1.57935,0 2.343,0c1.0905,0 1.77318,0 2.75717,0c0.65266,0 2.02133,0 2.75267,0c0.74733,0 1.49466,0.00243 2.58066,0c1.00951,-0.00226 1.64989,0.02223 2.56534,-0.08533c1.20934,-0.14209 1.79727,-0.35718 2.70134,-0.56201c0.89629,-0.20308 1.79468,-0.31441 2.664,-0.342c1.06883,-0.03392 1.77882,-0.01067 2.63148,-0.01067c1.00584,0 1.8405,0 2.77118,0c0.78149,0 1.57199,0 2.69049,0c0.89101,0 1.81056,0.01788 2.42549,-0.036c1.05475,-0.09241 2.02267,-0.31667 2.71735,-0.464c0.69467,-0.14734 1.95447,-0.40576 2.728,-0.464c0.86755,-0.06532 1.87967,0.05113 2.61484,-0.09315c0.92953,-0.18243 1.74954,-0.88069 2.45715,-0.94151c0.89673,-0.07709 1.81961,0.00061 2.60001,-0.42667c0.82257,-0.45038 1.70129,-0.52687 2.60001,-0.57466c0.80338,-0.04272 1.58224,-0.61238 2.39999,-0.97467c0.78467,-0.34763 1.33636,-0.90106 2.14166,-1.52533c0.74005,-0.57367 1.48343,-0.79491 2.31567,-1.172c0.63562,-0.28799 1.66556,-0.8683 2.39984,-1.32884c0.37952,-0.23804 1.1301,-0.75822 1.94415,-1.14583c1.16904,-0.55664 2.00131,-0.70201 2.81952,-0.8325c0.83459,-0.1331 1.27673,-0.13379 2.60031,-0.46382c0.93719,-0.23369 1.40115,-0.40944 2.3175,-0.77834c0.8999,-0.36227 1.73328,-0.76872 2.48935,-1.17601c1.01675,-0.54771 1.57123,-0.97404 2.65033,-1.35983c0.65817,-0.23531 1.77856,-0.3683 2.42166,-0.76366c0.85626,-0.52641 1.51868,-0.98343 2.10132,-1.27917c0.99051,-0.50276 1.78607,-0.73439 2.63702,-1.14732c0.78979,-0.38326 1.28961,-0.94662 2.17233,-1.06334c0.92651,-0.12251 1.73743,-0.3345 2.3465,-1.08934c0.62091,-0.7695 0.82819,-1.49504 1.24283,-2.39999c0.36667,-0.80023 0.84369,-1.35966 1.2955,-2.15266c0.38449,-0.6748 0.60916,-1.74307 0.92599,-2.66884c0.24631,-0.71973 0.793,-1.67157 1.07401,-2.2785c0.36642,-0.79141 0.59744,-1.80348 0.72983,-2.59999c0.16708,-1.00523 0.45111,-1.58324 0.69067,-2.40001c0.28983,-0.98816 0.26935,-1.85727 0.28433,-2.82132c0.01251,-0.80418 0.00174,-1.66873 0.44232,-2.65735c0.3284,-0.73692 0.96289,-1.32848 1.31451,-2.34265c0.26999,-0.77875 0.2301,-1.63809 0.46417,-2.65735c0.16232,-0.70688 0.48306,-1.36212 0.65732,-2.34282c0.14349,-0.8075 0.12823,-1.69037 0.34268,-2.87834c0.10834,-0.60027 0.39908,-1.45413 0.612,-2.53349c0.1398,-0.70869 0.1521,-1.61945 0.16699,-2.58817c0.01251,-0.81467 0.04504,-1.70274 0.33301,-2.57851c0.30161,-0.91722 0.69302,-1.44414 1.09866,-2.22934c0.48581,-0.94041 0.5202,-1.87193 0.56799,-2.77066c0.04272,-0.80341 0.74707,-1.53792 0.96399,-2.41066c0.21985,-0.88448 0.03601,-1.76401 0.03601,-2.70401c0,-0.88533 -0.02725,-1.68575 0,-2.58533c0.02859,-0.94414 0.82077,-1.35788 1,-2.3c0.14191,-0.74594 0.38748,-1.6389 0.64734,-2.34734c0.3667,-0.99971 0.35266,-1.85266 0.35266,-2.75267c0,-0.89999 -0.39294,-1.83035 0.08533,-2.61465c0.49008,-0.80365 0.88077,-1.38599 0.91467,-2.28534c0.02859,-0.75879 0.31625,-1.67468 0.7045,-2.34734c0.53638,-0.92924 1.14664,-1.41968 1.29102,-2.35266c0.13763,-0.88943 -0.10693,-1.86957 0.36166,-2.60001c0.51318,-0.79991 1.2489,-1.27977 1.61749,-2.09999c0.35178,-0.78279 0.91528,-1.32394 1.50449,-2.10001c0.56052,-0.73825 0.78433,-1.7195 1.32217,-2.3c0.57605,-0.62173 1.4006,-1.22142 1.84149,-1.89999c0.5148,-0.79233 1.08569,-1.12599 1.95718,-1.336c0.75272,-0.18138 1.57129,-0.9566 2.21466,-1.364c0.62054,-0.39293 1.16772,-1.41186 1.88983,-1.5955c0.86789,-0.22073 1.81635,0.02129 2.60001,-0.35717c0.88885,-0.42927 1.69534,-0.63691 2.67398,-0.64733c0.71698,-0.00763 1.62152,0 2.52151,0c0.91068,0 1.82132,0 2.67465,0c0.94135,0 1.70935,0 2.66135,0c0.76532,0 1.76849,0 2.62115,0c0.96417,0 1.76819,0 2.59018,0c1.03134,0 1.95267,0 2.63666,0c1,0 1.81601,0 2.63202,0c1.22232,0 2.02234,0 2.93134,0c0.91931,0 1.7735,0 2.75266,0c0.78934,0 1.51468,0 2.58932,0c0.81067,0 1.71066,-0.00008 2.61069,0c0.90015,0.00008 1.68869,0.07608 2.63599,0.42533c0.76813,0.2832 1.77023,0.50903 2.39999,0.6c1.18896,0.17175 1.72617,0.29182 2.50269,0.58533c1.14185,0.4316 1.71164,0.89796 2.46265,1.58933c0.55005,0.50638 1.27695,1.01308 2.00934,1.40001c0.97989,0.51767 1.87033,0.7607 2.45599,1.39999c0.55859,0.60974 1.19064,1.00764 1.93335,1.61067c0.76022,0.61723 1.14221,1.42381 1.48401,2.18933c0.33197,0.74353 0.81076,1.51961 1.08264,2.36667c0.28024,0.87303 0.59787,1.42465 0.78067,2.43333c0.14389,0.79396 0.34415,1.79587 0.62735,2.564c0.34924,0.94731 0.25177,1.87425 0.51065,2.636c0.30176,0.88792 0.89667,1.59946 0.91467,2.5045c0.01715,0.862 -0.12222,1.7361 0.22134,2.67416c0.25342,0.69196 0.73102,1.50414 0.77417,2.42583c0.04657,0.99443 -0.03119,1.81148 0.22583,2.7955c0.16016,0.61316 0.57666,1.38481 0.7215,2.39551c0.13065,0.91154 0.05716,1.78983 0.05716,2.73782c0,0.91734 0,1.66133 0,2.69734c0,0.7175 0,1.62199 0,2.48534c0,0.98399 0,1.96933 0,2.69466c0,0.98933 0,1.78934 0,2.78934c0,0.8 0,1.60001 0,2.60001c0,0.79999 0,1.79999 0,2.59999c0,1 0,1.8 0,2.8c0,0.78934 0,1.83333 0,2.62534c0,0.86 0,1.77916 0,2.776c0,0.61949 0,1.76534 0,2.55133c0,0.82201 0,1.88066 0,2.58566c0,0.97501 0,1.82567 0,2.76617c0,0.86217 0.13901,1.74243 -0.22134,2.674c-0.3009,0.77783 -0.76599,1.52135 -0.77866,2.42149c-0.01266,0.89993 -0.38608,1.73836 -0.716,2.40001c-0.42056,0.84335 -0.27866,1.80002 -0.284,2.7c-0.00534,0.90004 -0.54575,1.57314 -0.83334,2.5c-0.24695,0.7959 0.80508,1.2117 1.43335,1.57466c0.84564,0.48856 1.05624,1.11562 1.42084,1.90451c0.35632,0.771 1.08429,1.19832 1.78049,1.60483c0.82617,0.48239 1.39606,1.38176 2.19867,1.74933c0.74271,0.34015 1.75568,0.13539 2.39999,0.60268c0.78094,0.56639 1.31445,1.17451 2.20001,1.58932c0.81433,0.38145 1.39902,0.97563 2,1.57468c0.69885,0.69662 1.59869,0.93201 2.23334,1.56667c0.63464,0.63464 0.59134,1.5233 1.16666,2.3125c0.49701,0.68176 1.27365,1.05212 1.64282,1.87267c0.38635,0.85867 0.66824,1.69272 1.07318,2.44817c0.40524,0.75597 0.69385,1.62576 1.384,2.29984c0.57892,0.56543 1.33356,1.05516 1.95267,1.5475c0.64728,0.51474 1.65585,0.25375 2.46817,0.37349c0.99069,0.14603 1.71707,0.61125 2.64581,0.97917c0.79245,0.31393 1.39017,0.50392 2.05219,0.64284c1.10657,0.23219 1.94724,0.28381 2.82117,0.32117c0.87289,0.03731 1.70667,0.03532 2.79617,0.036c0.8985,0.00055 1.77899,0 2.83047,0c0.87067,0 1.34851,0 2.35419,0c1.02567,0 1.5285,-0.00368 2.91483,0.00017c0.79733,0.00221 1.52542,-0.01366 2.54565,0.08516c1.04434,0.10115 1.78146,0.26657 2.56033,0.4355c0.82123,0.17812 2.12479,0.4801 2.5795,0.57918c0.92661,0.20189 1.85831,0.39856 2.3175,0.5c0.89261,0.1972 2.11768,0.50368 2.85602,0.6955c1.0546,0.27399 1.76898,0.45406 2.948,0.58316c0.86026,0.09421 1.30826,0.09149 2.20667,0.14667c0.88293,0.05423 2.11133,0.17923 2.84534,0.33183c0.70889,0.14738 1.77148,0.45137 2.53867,0.64284c0.83273,0.20782 1.71771,0.39827 2.616,0.60001c0.88303,0.1983 1.72177,0.38385 2.84982,0.7045c0.7247,0.20599 1.46381,0.45132 2.70084,0.86217c0.46417,0.15416 1.45801,0.48599 1.97601,0.65866c1.04797,0.34933 1.56601,0.5219 3.02399,1.008c0.43582,0.14531 1.23889,0.4099 1.97916,0.66667c1.08963,0.37798 1.85385,0.66757 2.68884,0.98267c0.88229,0.33295 1.77838,0.66496 2.22665,0.8075c1.26419,0.40195 2.03647,0.54739 2.75467,0.65918c1.05475,0.16417 2.18765,0.37141 3.01868,0.61865c0.43936,0.13072 1.32718,0.4471 2.22665,0.72667c1.26556,0.39336 2.03278,0.54898 2.73334,0.644c0.64914,0.08804 1.87894,0.19818 2.78101,0.423c0.63824,0.15907 1.3085,0.39134 2.42435,0.80501c0.83844,0.31082 1.72745,0.66008 2.1875,0.83333c0.92993,0.3502 1.38922,0.53793 2.75781,0.9785c0.86432,0.27824 1.71988,0.50652 2.57401,0.717c0.43063,0.10611 1.76837,0.40514 2.6955,0.60451c0.46646,0.10031 1.39249,0.29138 2.2825,0.5c1.22919,0.28812 1.95706,0.49321 2.62766,0.7c0.94202,0.2905 1.83771,0.61243 2.7417,0.88933c0.59747,0.18301 1.79803,0.46042 2.6955,0.558c0.58264,0.06335 1.43665,0.06627 2.64734,0.40533c0.6582,0.18434 1.65356,0.56398 2.47797,0.62651c0.6629,0.05028 1.66406,-0.00027 2.47919,0.04166c0.81744,0.04204 2.04218,0.34827 2.72534,0.55383c0.93481,0.28131 1.73529,0.32846 2.54932,0.48668c1.07294,0.20854 1.78168,0.65298 2.52271,1.15999c0.55731,0.38132 1.56116,0.98969 2.36066,1.37418c0.41522,0.19968 1.26611,0.56822 2.08997,0.91917c1.08795,0.46344 1.96039,0.86121 2.492,1.07465c1.0838,0.43512 1.72766,0.612 2.76001,0.91068c0.6944,0.2009 1.67865,0.46936 2.49017,0.8045c0.73639,0.30411 1.67676,0.86176 2.46698,1.34818c0.56384,0.34705 1.12848,0.73175 2.34302,1.32614c0.59564,0.29147 1.54578,0.66238 2.18518,0.99051c1.05341,0.54056 1.76648,1.03284 2.13995,1.27066c0.74768,0.47607 1.45593,0.99066 2.55371,1.396c0.99152,0.36609 1.72363,0.41849 2.47565,0.61603c0.85205,0.22382 1.80151,0.59592 2.30786,0.81497c1.06451,0.46054 1.59882,0.72623 2.13666,0.98935c1.57153,0.76886 2.05634,1.02466 2.98199,1.48199c0.8551,0.42249 1.25568,0.62759 2.03082,0.97501c1.39264,0.62415 2.04993,0.85657 2.67731,1.07599c1.20679,0.42206 1.81995,0.58429 2.68988,0.93152c0.84656,0.33789 1.60083,0.79883 2.30615,1.3045c0.72571,0.52029 1.53754,1.03284 2.18268,1.28931c1.01703,0.4043 1.73364,0.5593 2.69867,0.88535c0.8208,0.27731 1.6651,0.64911 2.57617,0.94733c0.85522,0.27994 1.41345,0.8512 2.35712,1.04199c0.8623,0.17435 1.39465,0.62128 1.40002,1.51068c0.00543,0.89996 0.00336,1.80899 0,2.83334c-0.00226,0.69 -0.02124,1.56122 -0.08533,2.23999c-0.1106,1.17169 -0.26385,2.02362 -0.41467,2.88501c-0.14404,0.82257 -0.36206,1.87137 -0.44281,2.6265c-0.08191,0.76608 -0.05719,1.67932 -0.05719,2.60184c0,0.67331 0.01563,1.98022 -0.00452,2.8035c-0.01776,0.72495 -0.15295,1.67871 -0.34814,2.46698c-0.21198,0.85605 -0.50006,2.04053 -0.56201,2.64417c-0.09412,0.91696 -0.08307,1.55585 -0.08533,2.92001c-0.00122,0.73132 0,1.47867 0,2.22601c0,1.086 0.00873,2.10043 -0.02081,2.75266c-0.04456,0.98511 -0.19318,2.02255 -0.33185,2.74817c-0.13995,0.73242 -0.33917,1.43466 -0.52582,2.70883c-0.11243,0.76752 -0.12085,1.64032 -0.12152,2.63849c-0.00049,0.74734 0,1.76852 0,2.70901c0,0.86215 0,1.6955 0,2.67398c0,0.82019 -0.05719,1.72153 -0.5,2.52151c-0.44281,0.79999 -0.41791,1.7038 -0.50018,2.60001c-0.08368,0.91144 -0.39893,1.60925 -0.99982,2.37915c-0.48956,0.62729 -1.5,0.5231 -2.40002,0.52084c-0.89545,-0.00226 -1.40869,-0.66617 -2.12079,-0.97916c-0.80542,-0.354 -1.698,-0.52136 -2.47919,-0.85419c-0.75153,-0.32019 -1.70001,-0.16666 -2.59998,-0.16666c-0.90002,0 -1.8446,0.09546 -2.60004,-0.284c-0.86719,-0.43558 -1.64996,-0.72861 -2.29999,-1.23685c-0.76764,-0.60019 -1.26831,-1.33029 -2.20001,-1.47467c-0.88934,-0.13782 -1.79999,-0.00449 -2.70001,-0.00449c-0.89996,0 -1.80164,0.05438 -2.69995,-0.00015c-0.70386,-0.04272 -1.43719,-0.7468 -2.30005,-0.96384c-0.87347,-0.21973 -1.79999,-0.03601 -2.69995,-0.03601c-0.90002,0 -1.7547,-0.01022 -2.5,-0.61066c-0.65424,-0.52707 -1.6051,-0.91309 -2.11469,-1.47336c-0.55634,-0.61169 0.11194,-1.55121 0.43066,-2.43198c0.3017,-0.83368 0.69287,-1.61133 1.11731,-2.48401c0.3667,-0.75391 0.7287,-1.46835 1.11401,-2.29999c0.40399,-0.87189 0.70135,-1.52814 1.10535,-2.40002c0.38531,-0.83163 1.16412,-1.86285 0.51135,-2.26398c-0.73676,-0.45273 -1.76404,-0.03601 -2.664,-0.03601c-0.90002,0 -1.70001,0 -2.57202,0c-0.87067,0 -1.828,0 -2.56,0c-1.11731,0 -2.10132,0 -2.77783,0c-0.77551,0 -1.82483,-0.03967 -2.74353,0.01068c-0.76245,0.04181 -1.56433,0.56082 -2.56799,0.86783c-0.65607,0.20068 -1.65729,0.11636 -2.56262,0.12149c-0.94141,0.00534 -1.65753,0.03043 -2.59521,0.5c-0.74353,0.37238 -1.62079,0.5 -2.52081,0.5c-0.79999,0 -1.70001,0.05716 -2.5,0.5l-0.79999,0.44284" id="svg_1" stroke-width="2" stroke="#000" fill="none"/>
  <path t="16247,16463,16471,16495,16519,16551,16727,16727,16806,16815,16815,16886,16918,16919,16974,16975,16990,16991,16998,17015,17038,17048,17048,17078,17110,17158,17206,17222,17262,17294,17303,17319,17342,17366,17375,17375,17406,17470,17486,17542,17654,17694,17718,17718,17734,17750,17790,17822,17822,17854,17854,17870,17894,17894,17918,17982,18006,18070,18190,18190,18270,18270,18310,18334,18342,18366,18406,18558,18558,18622,18638,18654,18670,18686,18790,18790,18822,18910,18966,19166,19198,19294,19294,19558,19598,20054,20078,20102,20142,20158,20174,20174,20238,20262,20270,20281,20302,20318,20331,20331,20348,20348,20364,20364,20381,20381,20381,20398,20398,20398,20398,20414,20414,20414,20431,20431,20431,20448,20448,20448,20448,20448,20464,20464,20464,20464,20481,20481,20481,20498,20498,20498,20514,20514,20514,20514,20532,20532,20532,20532,20532,20548,20548,20548,20548,20548,20548,20564,20564,20564,20564,20564,20564,20581,20581,20581,20581,20581,20581,20598,20598,20598,20598,20598,20614,20614,20614,20614,20631,20631,20631,20631,20631,20631,20648,20648,20648,20648,20664,20664,20664,20664,20681,20681,20681,20698,20698,20714,20714,20731,20750,20750,20766,20766,20790,20798,20798,20830,20870,20902,20910,20926,20974,20990,21022,21023,21046,21062,21070,21086,21098,21114,21131,21148,21148,21164,21181,21198,21214,21231,21334,21414,21454,21462,21486,21518,21550,21566,21566,21606,21686,21686,21702,21734,22094,22118,22118,22158,22206,22222,22238,22262,22278,22294,22318,22358,22358,22422,22422,22462,22462,22558,22558,22790,22822,22910,22918,22982,22982,23006,23030,23046,23070,23070,23086,23102,23118,23131,23148,23166,23182,23198,23198,23214,23231,23231,23254,23270,23294,23302,23318,23318,23342,23350,23366,23390,23406,23654,23678,23678,23686,23698,23714,23731,23750,23750,23764,23781,23798,23814,23870,23894,23894,23902,23934,23950,23966,24030,24078,24118,24142,24174,24518,24558,24606,24606,24630,24638,24678,24694,24710,24710,24750,24774,24790,24806,24854,24854,24902,24918,24982,24990,25062,25302,25454,25550,25622,25686,25726,25742,25782,25806,25806,25822,25838,25862,25870,25881,25898,25914,25931,25958,25958,25990,26006,26022,26022,26062,26070,26142,26150,26358,26374,26390,26422,26470,26486,27191,27255,27271,27335,27335,27423,28014,28023,28054,28063,28081,28097,28114,28131,28147,28147,28164,28164,28181,28197,28214,28215,28239,28247,28247,28270,28286,28297,28318,28334,28350,28366,28382,28383,28398,28414,28431,28447,28464,28486,28487,28502,28502,28514,28532,28547,28563,28581,28582,28596,28597,28597,28613,28614,28631,28631,28631,28647,28647,28663,28664,28686,28702,28702,28734,28742,28742,28763,28780,28796,28813,28814,28830,28831,28847,28870,28886,28902,28902,28926,28966,28998,28998,29030,29062,29070,29086,29126,29174,29174,30070,30094,30094,30118,30150,30150,30166,30190,30206,30214,30231,30247,30247,30263,30264,30281,30282,30310,30310,30326,30350,30382,30398,30446,30446,30494,30526,30574,30614,30630,30702,30702,30718,30750,31206,31350,31350,31406,31406,31422,31422,31534,31630,31782,31782,31846,31886,31958,31990,31990,32030,32366,32454,32686,32742,32830,32990,32990,33054,33166,33174,33214,33246,33310,33486,33486,33710,33821,33909,33910,33941,33973,34045,34062,34093,34189,34190,34237,34238,34245,34301,34334,34365,34389,34390,34413,34430,34446,34462,34478,34478,34494,34501,34518,34534,34558,34558,34559,34573,34589,34597,34614,34637,34685,34686,34725,34726,34733,34734,34757,34789,34797,34821,34837,34862,34869,34881,34902,34902,34926,34933,34957,34973,34974,34981,34998,35014,35031,35047,35063,35064,35086,35102,35126,35149,35165,35213,35214,35253,35262,35278,35293,35333,35373,35397,35414,35414,35461,35485,35493,35526,35533,35565,35605,35606,35637,35654,35718,35758,35766,35766,35806,35822,35838,35862,35902,35942,36046,36110,36110,36334,36582,36654,36710,36798,36798,36862,36902,36958,36998,37014,37014,37054,37126,37142,37182,37214,37254,37286,37286,37550,37614,37662,37662,37734,37830,37998,38022,38054,38102,38102,38126,38150,38206,38230,38261,38294,38342,38429,38477,38501,38502,38605,38629,38693,38710,38749,38758,38790,38813,38831,38853,38893,38910,38941,38942,38966,39037,39061,39085,39125,39181,39213,39237,39254,39278,39279,39293,39310,39334,39358,39359,39373,39374,39389,39390,39403,39422,39709,39765,39773,39774,39789,39807,39829,39829,39848,39870,39888,39889,39989,40021,40054,40341,40397,40421,40422,40461,40509,40517,40541,40565,40613,40653,40670,40725,40789,40790,40814,40981,41029,41037,41077,41101,41102,41125,41149,41150,41157,41173,41192,41192,41211,41232,41251,41270,41291,41310,41311,41330,41350,41350,41373,41405,41413,41414,41446,41486,41509,41518,41538,41558,41605,41606,41607,41637,41653,41765,41861,41933,42021,42022,42077,42078,42133,42197,42198,42245,42277,42301,42341,42469,42477,42621,42813,42814,42861,43021,43189,43245,43269,43301,43333,43334,43357,43381,43382,43406,43406,43437,43469,43485,43509,43533,43573,43589,43589,43621,43637,43650,43669,43690,43710,43710,43732,43773,43837,43877,43893,43918,43949,43973,44350,44574,44574,44662,44670,44703,44719,44733,44753,44782,44806,44806,44814,44835,44855,44875,44926,44966,44966,44990,45110,45142,45182,45262,45382,45382,45446,45510,45622,45662,45758,45838,45894,46038,46062,46158,46158,46278,46326,46326,46350,46374,46438,46774,46838" d="m57,283c1.8,0 2.7,0 3.6,0c0.9,0 1.7045,0 2.72134,0c0.67867,0 1.65717,0 2.67867,0c0.8,0 1.65491,-0.02115 2.48534,0.28534c0.74577,0.27524 1.70684,0.83063 2.30399,1.104c1.03154,0.47223 1.8,0.59991 2.71067,0.61066c0.9,0.01062 1.60719,0.45297 2.5,0.83334c0.75154,0.32019 1.79689,-0.1965 2.564,0.20267c0.75937,0.39514 1.23733,0.96332 2.13599,0.96399c0.9,0.00067 1.8,0 2.7,0c0.9,0 1.8,0 2.7,0c0.9,0 1.7,0 2.6,0c0.9,0 1.8,0 2.7,0c0.9,0 1.85729,0.1637 2.7,-0.22134c0.6693,-0.30579 1.34177,-0.91589 1.984,-1.49466c0.64957,-0.58536 1.08368,-1.28329 1.52666,-1.91998c0.58936,-0.84708 1.07863,-1.50104 1.304,-2.47867c0.19981,-0.86673 -0.11062,-1.71976 0.1425,-2.58536c0.25665,-0.87762 0.90012,-1.49698 0.94283,-2.39999c0.04253,-0.89899 0.0201,-1.81183 0.35717,-2.54816c0.37451,-0.81812 1.14211,-1.33099 2.04283,-1.35184c0.89976,-0.02081 1.8,0 2.7,0c0.9,0 1.85352,-0.08719 2.464,0.61066c0.58265,0.66602 0.436,1.68933 0.436,2.58936c0,0.89999 0,1.79999 0,2.59998c0,0.90002 0.00194,1.81961 -0.42533,2.60001c-0.45038,0.82257 -0.57467,1.70001 -0.57467,2.60001c0,0.79999 0,1.70001 0,2.60001c0,0.89999 -0.11266,1.91849 0.52084,2.39999c0.6809,0.51755 1.57304,0.93912 2.47916,1c0.7982,0.05362 1.7,0 2.6,0c0.9,0 1.8,0 2.7,0c0.90133,0 1.86666,0 2.52533,0c1.008,0 1.8,0 2.83633,0c0.8,0 1.75983,0 2.57433,0c0.8685,0 1.764,0 2.664,0c0.9,0 1.5,0 2.69866,0c0.88051,0 1.716,0 2.72,0c0.72301,0 1.536,-0.00266 2.54567,0.00015c0.80269,0.00223 1.67778,0.01102 2.592,0.05701c0.46262,0.02328 1.82384,0.15176 2.67751,0.2955c0.80573,0.13565 1.54124,0.33121 2.82333,0.526c0.77844,0.11829 1.49788,0.13821 2.46432,0.34268c0.82147,0.1738 1.67592,0.46417 2.57851,0.612c0.90353,0.14798 1.87195,0.16025 2.57066,0.16531c1.1723,0.00851 2.04367,0.00134 2.50134,0.00134c0.94933,0 1.93066,0 2.92799,0c1.00133,0 1.5045,0 2.52083,0c1.03633,0 1.5645,0 2.64584,0c1.11732,0 1.68599,0 2.83333,0c0.57466,0 1.14734,0 2.83333,0c0.54517,0 1.60951,0 2.13068,0c1.02533,0 2.03467,0 3.036,0c0.99733,0 1.491,0 2.45833,0c0.92734,0 2.20834,0 2.97368,0c0.71733,0 1.41866,0 2.90132,0c0.4095,0 1.2765,0 2.1875,0c0.931,0 1.3965,0 2.75751,0c0.86,0 1.67999,0 2.45999,0c1.095,0 2.10451,0 2.74084,0c0.91949,0 2.11949,0 2.71016,0c0.8535,0 2.12401,0 2.769,0c1.02017,0 1.85562,-0.12268 2.79884,0.05716c0.9305,0.17743 1.63069,0.6579 2.44266,0.82135c0.95143,0.19153 1.91484,0.12149 2.80017,0.12149c0.8,0 1.7,0 2.60001,0c0.89999,0 1.79999,0 2.7,0c0.89999,0 1.8,0 2.7,0c0.8,0 1.7,0 2.60001,0c0.89999,0 1.79999,0 2.7,0c0.89999,0 1.8,0 2.7,0c0.8,0 1.7,0 2.60001,0c0.89999,0 1.79999,0 2.7,0c0.89999,0 1.93216,-0.24426 2.616,0.284c0.62749,0.48471 1.53851,0.51965 2.03133,1.07318c0.6035,0.67786 0.66626,1.76395 1.13667,2.35748c0.58545,0.73868 1.15099,1.24304 1.56334,1.98535c0.45796,0.8244 0.74052,1.61121 1.51933,2.13333c0.70589,0.47324 1.63333,0.16666 2.53333,0.16666c0.90001,0 1.85973,0.30988 2.68933,-0.01068c0.79291,-0.3064 1.24655,-1.0488 1.69467,-1.79065c0.42604,-0.70529 1.1534,-1.3685 1.616,-1.95584c0.54652,-0.69391 0.89696,-1.45505 1.40001,-2.44266c0.39758,-0.78055 0.91933,-1.61987 1.28932,-2.16418c0.55505,-0.81656 0.21889,-2.01514 0.89601,-2.55066c0.64246,-0.50812 1.66843,0.1568 2.41466,0.56201c0.76112,0.4133 1.74454,0.2572 2.5,0.63666c0.86722,0.43558 1.60001,0.71533 2.5,0.716c0.90001,0.00067 1.8,0 2.7,0c0.89999,0 1.80002,0 2.70001,0c0.89999,0 1.69998,0 2.53598,0c1.01669,0 1.71133,0 2.72803,0c0.93597,0 1.836,0 2.73599,0c0.89999,0 1.69998,0 2.60001,0c0.89999,0 1.79999,0 2.69998,0c0.89999,0 1.87964,-0.20914 2.69983,0.2215c0.64343,0.33783 0.88168,1.40198 1.3255,2.1785c0.41376,0.72394 1.07449,1.34558 1.45319,2.04285c0.35828,0.6597 0.00055,1.87238 0.47415,2.50449c0.50928,0.67975 0.55188,1.49722 0.93134,2.25269c0.43558,0.86719 0.71533,1.59998 0.716,2.5c0.00067,0.89999 -0.00226,1.79999 0,2.69998c0.00226,0.89551 0.4165,1.5845 1,2.10001c0.63788,0.56357 0.87729,1.34268 1.52084,1.97916c0.64304,0.63593 1.81604,0.34384 2.19382,-0.28049c0.48743,-0.80554 0.28293,-1.81854 0.71066,-2.59866c0.4512,-0.82291 0.8168,-1.55377 1.22202,-2.30002c0.41327,-0.76111 0.35199,-1.69998 0.35266,-2.59998c0.00067,-0.90002 0.32614,-1.73666 0.716,-2.5c0.38452,-0.7529 0.28174,-1.70001 0.284,-2.60001c0.00226,-0.89551 0.67334,-1.42154 0.98932,-2.21066c0.32306,-0.80679 0.62128,-1.384 1.51068,-1.38934c0.89996,-0.0054 1.79999,0 2.70001,0c0.89999,0 1.79999,0 2.59998,0c0.90002,0 1.80005,-0.0054 2.70001,0c0.8894,0.00534 1.43661,0.77481 2.2045,0.99551c0.86069,0.24738 1.70618,0.00449 2.61682,0.00449c0.85333,0 1.79333,0 2.77869,0c0.89999,0 1.60001,0.05716 2.39999,0.5c0.79999,0.44284 1.71259,0.35019 2.59982,0.50015c0.85202,0.14401 1.31668,0.98434 1.90018,1.49985c0.63788,0.56357 0.80807,1.23306 1.03601,2.10001c0.22501,0.8558 1.16098,1.35727 2.064,1.39999c0.89899,0.04251 1.73328,0.19199 2.60001,-0.05716c0.85159,-0.24478 1.29773,-0.23383 1.29999,0.65717c0.00226,0.89999 0,1.79999 0,2.69998c0,0.90002 0,1.80002 0,2.70001c0,0.88535 0,1.82535 0,2.51599c0,1.07333 0,1.89468 0,2.80533c0,0.85333 0,1.79333 0,2.67868c0,0.79999 0,1.70001 0,2.60001c0,0.89999 0,1.79999 0,2.69998c0,0.90002 0,1.80002 0,2.70001c0,0.79999 0,1.70001 0,2.60001c0,0.89999 0,1.79999 0,2.7045c0,1.01682 0,1.6955 0,2.67398c0,0.82019 -0.01041,1.72159 0,2.62152c0.01044,0.90018 0.57813,1.72211 0.87851,2.50034c0.26053,0.67499 0.08337,1.67224 0.16315,2.4205c0.08554,0.80231 0.52567,1.79425 0.95834,2.45831c0.66562,1.02151 0.87543,1.6239 1.04816,2.42084c0.21738,1.00287 0.64001,1.7308 0.86652,2.716c0.1731,0.75293 0.04962,1.70999 0.08533,2.71735c0.02859,0.80652 0.74518,1.37424 1.16666,2.16666c0.34073,0.64063 0.82068,1.49985 0.83334,2.39999c0.01273,0.90442 0.16324,1.76801 0.42532,2.42535c0.40277,1.0101 0.56372,1.78293 1,2.57465c0.45261,0.82135 0.57468,1.70001 0.57468,2.60001c0,0.79999 0.33102,1.45148 0.83334,2.16666c0.48846,0.69543 0.16666,1.63333 0.16666,2.53336c0,0.89999 -0.1571,1.8157 0.01068,2.69998c0.17947,0.94589 0.73645,1.63232 1.07333,2.39999c0.33444,0.76212 0.86301,1.68127 0.9053,2.37466c0.06506,1.06631 0.31152,1.87619 0.65802,2.52536c0.45334,0.84937 0.35266,1.79999 0.35266,2.69998c0,0.89999 -0.15643,1.84973 0.16666,2.60001c0.30676,0.7124 1.09067,1.45865 1.39734,2.21066c0.39194,0.96112 0.42557,1.76831 0.436,2.62268c0.01053,0.86209 0,1.76666 0,2.66666c0,0.89999 -0.13657,1.85663 0.284,2.70001c0.32993,0.66162 0.71375,1.5 0.716,2.39999c0.00223,0.89999 -0.11652,1.80814 0.00449,2.69998c0.11142,0.82135 0.82877,1.47168 0.99103,2.40002c0.15512,0.88745 0.42273,1.71716 1.00449,2.29999c0.61771,0.61884 1.29395,1.15414 2.17465,1.564c0.78256,0.3642 1.66116,0.2305 2.52536,0.49316c0.8847,0.26889 1.60757,1.06424 2.01465,1.74283c0.4415,0.73596 0.80273,1.55035 1.20132,2.40002c0.40363,0.86041 0.69473,1.51627 1.10934,2.39999c0.37793,0.80554 1.20605,1.08252 1.89066,1.68399c0.59567,0.52335 1.46075,0.89948 2.18384,0.49451c0.73737,-0.41296 0.88727,-1.47861 0.90018,-2.37851c0.0126,-0.8793 0.44937,-1.53836 1.08401,-2.116c0.64667,-0.58856 0.95227,-1.4209 1.62048,-1.92682c0.69522,-0.52637 1.59924,-0.7103 2.2955,-1.35718c0.60327,-0.56049 1.51532,-0.86032 2,-1.52084c0.50598,-0.68951 0.65488,-1.7229 1.2215,-2.358c0.60013,-0.67267 1.35117,-1.10736 1.61185,-1.9545c0.258,-0.83847 0.1647,-1.78629 0.59198,-2.56665c0.45038,-0.8226 0.57468,-1.70001 0.57468,-2.60001c0,-0.79999 -0.18372,-1.7265 0.03601,-2.60001c0.21704,-0.86279 0.85507,-1.49838 0.96399,-2.39999c0.0965,-0.79871 0.74695,-1.5372 0.96399,-2.39999c0.21973,-0.8735 -0.06036,-1.82327 0.20267,-2.76666c0.19006,-0.68167 0.6785,-1.32449 0.82266,-2.42267c0.11856,-0.90298 0.01932,-1.80167 0.51068,-2.41068c0.52316,-0.64844 0.81439,-1.47388 1.07468,-2.21066c0.34467,-0.97568 0.36331,-1.7702 0.42548,-2.76782c0.0513,-0.823 0.68536,-1.44409 0.94269,-2.3215c0.25345,-0.8642 0.68484,-1.44763 1.03632,-2.22086c0.36389,-0.80057 -0.08612,-1.78568 0.02219,-2.67917c0.11148,-0.91977 0.79758,-1.45624 0.98798,-2.39999c0.1781,-0.88275 0.53787,-1.60944 0.88919,-2.5c0.26062,-0.66068 -0.06223,-1.6265 0.1575,-2.5c0.21704,-0.86279 0.92126,-1.59698 0.96399,-2.5c0.04251,-0.89899 -0.01801,-1.70016 0,-2.60001c0.01801,-0.90054 0.6181,-1.61032 0.91467,-2.5c0.28586,-0.85764 0.08533,-1.79999 0.08533,-2.59998c0,-0.90002 -0.146,-1.92276 0.436,-2.58936c0.60956,-0.69818 1.52127,-0.89301 1.564,-1.81067c0.04184,-0.89902 -0.16815,-1.83643 0.08533,-2.59998c0.25635,-0.77219 0.65427,-1.63913 0.91916,-2.49551c0.23608,-0.76331 0.84586,-1.2395 1.0062,-2.10449c0.15414,-0.8317 0.88089,-1.32269 1.46848,-2.10001c0.55759,-0.73761 0.52084,-1.70001 0.52084,-2.60001c0,-0.89999 0.11768,-1.68106 0.57468,-2.5c0.43121,-0.77274 1.15091,-1.27393 1.41464,-2.01065c0.29977,-0.83737 -0.08331,-1.83643 0.36334,-2.68933c0.39395,-0.75226 0.75259,-1.48779 1.14734,-2.20001c0.49084,-0.88562 0.40912,-1.80472 0.50134,-2.70001c0.08368,-0.81259 0.79883,-1.45261 0.97781,-2.29999c0.18604,-0.8808 -0.08612,-1.80652 0.02219,-2.70001c0.11148,-0.91977 0.8085,-1.4541 0.98798,-2.39999c0.16779,-0.88428 0.01068,-1.79999 0.01068,-2.69998c0,-0.90002 0,-1.80002 0,-2.70001c0,-0.79999 0.20776,-2.20673 0.87866,-1.7785c0.69968,0.44659 0.94272,1.22629 1.68533,1.80383c0.58829,0.45755 0.76456,1.57278 1.63602,1.88934c0.8497,0.30865 1.79999,0.08533 2.59998,0.08533c0.90002,0 1.82004,0.00272 2.60001,-0.42532c0.82175,-0.45096 1.41199,-1.06323 2.03601,-1.54935c0.74216,-0.57813 1.09601,-1.22403 1.73065,-1.85867c0.63464,-0.63464 1.62418,-0.65906 2.3125,-1.16666c0.69604,-0.51331 1.22534,-0.99774 2.12085,-1c0.89999,-0.00226 1.81735,-0.08948 2.42532,-0.57468c0.62451,-0.49838 1.57471,-0.43066 2.47467,-0.42532c0.90005,0.00534 1.60721,0.45297 2.5,0.83334c0.75153,0.32019 1.70001,0.16666 2.60001,0.16666c0.89999,0 1.78934,0.01068 2.39999,0.5c0.61066,0.48932 1.5,0.49777 2.39999,0.5c0.89999,0.00226 1.73837,0.38608 2.39999,0.716c0.84338,0.42056 1.80804,0.18179 2.72086,0.30484c0.81799,0.11026 1.47598,0.56052 2.47916,0.8125c0.77597,0.19492 1.83334,0.16666 2.6955,0.16666c0.90451,0 1.81766,-0.14297 2.7045,0.01068c0.83218,0.14417 1.51212,0.97565 1.59552,1.68933c0.10446,0.89392 0.00449,1.82083 0.00449,2.784c0,0.69064 0,1.75882 0,2.616c0,0.89999 0.11768,1.68106 0.57468,2.5c0.43121,0.77274 0.75192,1.60315 1.478,2.04733c0.68457,0.41879 1.16791,-0.61401 1.522,-1.24734c0.48151,-0.86124 0.18243,-1.83481 0.42981,-2.6955c0.2207,-0.76788 0.98508,-1.22516 0.99551,-2.10449c0.01068,-0.89993 0,-1.80002 0,-2.70001c0,-0.89999 -0.39304,-1.83038 0.08533,-2.61465c0.4902,-0.80362 1.19702,-1.24261 2.11469,-1.28534c0.89902,-0.04184 1.80017,-0.01721 2.59998,0c0.83658,0.01801 1.67023,0.31866 2.54733,0.64734c0.88303,0.3309 1.75269,0.35266 2.65268,0.35266c0.79999,0 1.7265,-0.18372 2.60001,0.03601c0.86279,0.21704 1.59698,0.92126 2.5,0.96399c0.89899,0.04251 1.67725,0.12762 2.42084,0.5c0.93762,0.46957 1.65378,0.49466 2.72198,0.5c0.85718,0.00427 1.75717,0 2.55716,0c0.90002,0 1.80002,0 2.70001,0c0.89999,0 1.80328,-0.07568 2.70132,0.00134c0.9758,0.08368 1.60431,0.4762 2.31467,0.71466c1.05002,0.35248 1.98401,0.28174 2.884,0.284c0.89551,0.00226 1.46964,0.53287 2.04285,1.10001c0.63632,0.62958 1.55841,0.97342 2.14648,1.5c0.74078,0.66333 1.39807,1.31497 2.21066,1.39865c0.89529,0.09222 1.80002,0.00134 2.70001,0.00134c0.89999,0 1.79999,0.00009 2.70001,0c0.89999,-0.00009 1.91806,-0.04819 2.36398,-0.61066c0.60971,-0.7691 0.18518,-1.82651 0.44049,-2.68484c0.22684,-0.76263 1.2955,-0.7045 2.19553,-0.7045c0.90015,0 1.68848,-0.06674 2.62534,0.01068c1.01654,0.08398 1.63895,0.52631 2.37466,1.18799c0.58838,0.52917 1.39993,0.79599 2.29999,0.80133c0.89996,0.00534 1.79999,0 2.70001,0c0.89999,0 1.79999,0 2.59998,0c0.90002,0 1.80005,-0.00534 2.70001,0c0.90005,0.00534 1.71878,0.50052 2.5,0.83334c0.75153,0.32019 1.70001,0.22382 2.5,0.66666c0.79999,0.44284 1.70862,0.37598 2.59982,0.50015c0.80188,0.11172 1.25589,0.97125 2.10019,0.99985c0.89948,0.03046 1.79999,0 2.59998,0c0.90002,0 1.79999,0 2.70001,0c0.90002,0 1.79999,0 2.70001,0c0.89996,0 1.80042,-0.02536 2.59998,0c0.90137,0.02859 1.62238,0.68619 2.5,0.94284c0.8656,0.25311 1.79999,0.05716 2.70001,0.05716c0.79999,0 1.70001,0.05716 2.5,0.5c0.79999,0.44284 1.70001,0.5 2.59998,0.5c0.90002,0 1.73444,-0.19595 2.60004,0.05716c0.87762,0.25665 1.49695,0.90012 2.39996,0.94284c0.89905,0.04251 1.5072,0.48318 2.18536,0.91467c0.77502,0.49316 1.81592,0.13312 2.71466,0.08533c0.80341,-0.04272 1.53101,-0.49036 2.19867,-1.20001c0.54224,-0.57635 0.79681,-1.5 0.80133,-2.39999l0,-0.89999l0,-0.89999l0.00452,-0.90451" id="svg_2" stroke-width="2" stroke="#000" fill="none"/>
  <path t="50230,50285,50293,50293,50293,50302,50302,50311,50312,50329,50329,50346,50347,50347,50347,50365,50365" d="m541,304c-1.05267,0.81885 -1.28967,1.76773 -1.5,2.52084c-0.22198,0.79483 -0.44611,1.79028 -0.48932,2.63248c-0.04932,0.96152 -0.16064,1.74539 -0.72052,2.51285c-0.45886,0.62897 -1.14709,1.65726 -1.4035,2.30051c-0.26471,0.664 -0.52496,1.67084 -0.71997,2.53333l-0.14587,0.9375" id="svg_3" stroke-width="20" stroke="#fff" fill="none"/>
  <path t="53060,53501,53541,53604,53636,53876,53876,53884,53894,53894,53911,53928,53944,53944,53962,53962,53962,53979,54004,54316,54317,54364,54420,54444,54484,54501,54517,54517,54530,54545,54562,54562,54579,54579,54620,54621,54676,54708,54709,54788,54820,54876,54876,54892,54940,54956,54980,54995,55052,55084,55084,55188,55364" d="m545,313c0.57465,-1.60001 0.71478,-2.44717 1.00452,-3.2955c0.27832,-0.81506 0.9975,-1.14017 0.99548,-0.34818c-0.00226,0.88651 -0.33691,1.67493 -0.716,2.44366c-0.41681,0.84521 -0.23145,1.74405 -0.56934,2.68533c-0.26862,0.7482 -0.72919,1.50769 -1.104,2.30402c-0.33856,0.71927 -0.4798,1.76022 -0.96783,2.51065c-0.51813,0.79672 -1.10535,1.36176 -1.61749,2.08936c-0.46271,0.65732 -1.42535,0.61066 -2.32532,0.61066c-0.90137,0 -1.87714,0.11081 -2.6792,-0.02084c-0.87946,-0.14435 -1.38123,-0.95056 -2.34216,-0.97916c-0.67834,-0.02017 -1.67456,0.11032 -2.56262,-0.08533c-0.7962,-0.17545 -1.47363,-0.60391 -2.35889,-1.21017c-0.76624,-0.52478 -1.5517,-0.79776 -2.25714,-1.2045c-0.79401,-0.45782 -1.65234,-0.85944 -2.29999,-1.216c-0.86365,-0.47552 -1.41522,-1.22311 -2.29999,-1.284c-0.89789,-0.0618 -1.51282,-0.34283 -2.12152,-0.87866c-0.70782,-0.62305 -1.47852,-0.76868 -2.34253,-1.14667l-0.48865,-0.62201" id="svg_4" stroke-width="2" stroke="#000" fill="none"/>
  <path t="61076,61147,61156,61156,61163,61163,61178,61195,61195,61212,61212,61212,61228,61228,61228,61228,61228,61245,61245,61245,61262,61262,61278,61295,61295,61312,61328,61328,61345,61345,61363,61363,61379,61395,61412,61428,61428,61445,61445,61468,61468,61484,61500,61515,61532,61548,61548,61564,61580,61604,61612,61628,61645,61662,61678,61678,61709,61717,61733,61765,61797,61806,61829,61853,61853,61869,61878,61901,61956,61980" d="m230,231c-1.83333,0.16667 -2,1 -2,1.75717c0,0.89549 0,1.75883 0,2.722c0,0.95284 0,1.57683 0,2.57683c0,1.0065 0,1.75751 0,2.944c0,0.79866 0,1.58934 0,2.364c0,0.75067 0,1.81416 0,2.77867c0,0.8385 0,1.88666 0,2.65466c0,0.83867 0,1.85533 0,2.55c0,1.02733 0,1.974 0,2.82733c0,0.94133 0,1.70934 0,2.65068c0,0.69064 0,1.76398 0,2.67465c0,0.91068 0,1.82132 0,2.67465c0,0.94135 0,1.70935 0,2.6507c0,0.69064 0.00452,1.7847 -0.42534,2.57465c-0.44824,0.82373 -0.57466,1.70001 -0.57466,2.60001c0,0.79999 0,1.70001 0,2.60001c0,0.89999 0,1.79999 0,2.69998c0,0.90002 0,1.80002 0,2.70001c0,0.79999 0,1.70001 0,2.60001c0,0.89999 0,1.79999 0,2.69998c0,0.90002 0,1.80002 0,2.70001c0,0.79999 0,1.70001 0,2.60001l0,0.89999l0,0.89999l0,0.89999" id="svg_5" stroke-width="2" stroke="#000" fill="none"/>
  <path t="62989,63060,63076,63092,63101,63116,63128,63145,63162,63162,63178,63195,63195,63212,63228,63228,63245,63262,63262,63278,63295,63295,63312,63328,63345,63362,63378,63378,63395,63395,63412,63412,63428,63445,63468,63468,63478,63478,63495,63512,63529,63545,63562,63578,63578,63596,63596,63613,63613,63629,63645,63662,63663,63678,63679,63695,63741,63781,63797,63821,63877,63909,63941,63989,64037,64093,64157" d="m248,230c-0.9955,1.7 -1,2.60001 -1,3.5c0,0.89999 0,1.8 0,2.7c0,0.90001 0,1.8 0,2.60001c0,0.95717 0,1.85266 0,2.716c0,0.85866 0,1.80533 0,2.65866c0,0.94 0,1.82533 0,2.62534c0,0.95717 0,1.85266 0,2.716c0,0.84799 0,1.784 0,2.68399c0,0.90001 0,1.8 0,2.55717c0,0.89999 0,1.84415 0,2.83832c0,0.74734 0,1.76852 0,2.60583c0,0.96533 0,1.79868 0,2.63202c0,0.86215 0,1.76666 0,2.66666c0,0.89999 0,1.79999 0,2.70132c0,0.96533 0,1.79868 0,2.63202c0,0.91931 0,1.81934 0,2.68265c0,0.84802 0,1.78851 0,2.65067c0,0.83334 0,1.81183 0,2.63202c0,0.90134 0.0027,1.82135 -0.42534,2.60132c-0.45097,0.82175 -1.18298,1.33884 -1.53867,2.03601c-0.39104,0.76645 -0.536,1.564 -1.02533,2.17465l-0.03149,0.88934l-0.33183,0.79999l-0.52583,0.80002" id="svg_6" stroke-width="2" stroke="#000" fill="none"/>
  <path t="65300,65452,65484,65516,65548,65564,65578,65620,65636,65676,65708,65724,65756,65820,65820,65892,65916,65964,65988,65996,66044,66124" d="m247,232c-1.7,0 -2.60001,0 -3.5,0c-0.89999,0 -1.88933,0.01067 -2.5,0.5c-0.61067,0.48933 -1.5,0.5 -2.39999,0.5c-0.90001,0 -1.8,0 -2.70001,0c-0.89999,0 -1.7,0 -2.59999,0c-0.90001,0 -1.8,0 -2.7,0l-0.90001,0l-0.89999,0l-0.90001,0" id="svg_7" stroke-width="2" stroke="#000" fill="none"/>
  <path t="73205,73332,73348,73372,73396,73420,73428,73452,73468,73468,73478,73495,73511,73532,73545,73572,73588,73604,73604,73627,73659,73683,73699,73731,73763,73763,73772,73803,73843,73859,73875,73884,73907,73931,73955,73964,73987,74003,74003,74051,74051,74083,74083,74099,74123,74123,74139,74163,74187,74211,74227,74275,74275,74315,74315,74331,74379,74451,74491,74524,74531,74683,74747,74787,74787,74851,74883,74979,75027,75067,75123,75163,75179,75188,75227,75275,75307,75339,75371,75371,75411,75435,75475,75524,75547,75611,75651,75675,75675,75699,75731,75763,75771,75795,75811,75835,75859,75875,75907,75939,75939,75971,76011,76019,76051,76099,76115,76131,76179,76180,76203,76259,76299,76315,76363,76364,76419,76467,76468,76539,76555,76627,76675,76691,76692,76739,76779,76811,76835,76891,76931,76979,77035,77035,77107,77147,77219,77267" d="m275,289c0,-1.70001 0,-2.60001 0,-3.5c0,-0.89999 0,-1.79999 0,-2.70001c0,-0.89999 0,-1.79999 0,-2.59998c0,-0.90002 0,-1.80002 0,-2.70001c0,-0.89999 0,-1.79999 0,-2.70001c0,-0.89999 -0.17355,-1.83823 0.08533,-2.59998c0.30176,-0.88794 0.89667,-1.59946 0.91467,-2.5c0.01801,-0.89984 0,-1.80002 0,-2.70001c0,-0.79999 0,-1.70001 0,-2.60001c0,-0.89999 0.06696,-1.74356 0.57468,-2.42532c0.4772,-0.64081 0.42532,-1.57468 0.42532,-2.47467c0,-0.89999 -0.00006,-1.79999 0,-2.70001c0.00009,-0.90016 0.06912,-1.69113 0.35266,-2.45715c0.27887,-0.75337 0.5939,-1.73906 0.63666,-2.50684c0.06,-1.07727 0.11371,-2.07465 0.81201,-2.55066c0.7493,-0.51079 1.18607,-0.98991 1.19867,-1.88535c0.01266,-0.90015 0.48935,-1.62531 0.87866,-2.50017c0.32996,-0.74147 0.44705,-1.79504 0.92267,-2.33049c0.63794,-0.71817 1.42429,-1.11217 2.07733,-1.79066c0.55774,-0.57947 0.99597,-1.31937 1.64218,-1.77867c0.69708,-0.49548 1.57303,-0.93912 2.47916,-1c0.79819,-0.05363 1.70007,-0.01067 2.60001,0c0.87933,0.01042 1.40909,0.5986 2.10449,1.05267c0.75787,0.49486 1.26685,1.24597 1.2955,2.14732c0.02859,0.89938 0.54596,1.47075 0.94284,2.15717c0.42285,0.73132 0.05716,1.74284 0.05716,2.64284c0,0.8 0,1.7 0,2.60001c0,0.89999 0,1.79999 0,2.7c0,0.89999 0,1.8 0,2.7c0,0.8 0,1.7 0,2.60001c0,0.89999 0.00067,1.79999 0,2.69998c-0.00067,0.89868 -0.62302,1.44977 -0.97916,2.22086c-0.36887,0.79865 -0.42972,1.60648 -0.85419,2.47916c-0.3667,0.75391 -0.85217,1.42258 -1.1095,2.29999c-0.25345,0.8642 -0.68484,1.44763 -1.03632,2.22086c-0.36389,0.80057 0.11084,1.82919 -0.24219,2.57916c-0.36505,0.77551 -0.59271,1.62686 -0.81467,2.5c-0.21921,0.86227 -0.90311,1.49387 -0.96399,2.39999c-0.05362,0.79819 0,1.75717 0,2.65268c0,0.86331 0,1.71133 0,2.64731c0,0.90002 0,1.80002 0,2.70001c0,0.79999 0,1.70001 0,2.60001c0,0.89999 0,1.79999 0,2.69998c0,0.90002 0,1.80002 0,2.70001c0,0.79999 0,1.70001 -0.03601,2.60001l-0.38931,0.79999l-0.49066,0.80002" id="svg_9" stroke-width="2" stroke="#000" fill="none"/>
  <path t="94348,94595,94619,94619,94635,94651,94675,94699,94739,94755,94795,94827,94875,94923,94923,94955,94955,94971,94995,95027,95043,95083,95115,95147,95147,95163,95179,95211,95219,95243,95275,95275,95283,95315,95323,95339,95363,95372,95395,95411,95434,95450,95474,95506,95506,95522,95530,95594,95618,95618,95658,95690,95714,95730,95754,95763,95786,95794,95826,95842,95858,95890,95899,95922,95970,95994,96003,96042,96082,96122,96122,96178,96226,96235,96274,96346,96402,96402,96474,96474,96498,96522,96538,96578,96634,96643,96731,96771,96795,96827,96827,96851,96899,96915,96947,96971,96995,97027,97059,97059,97099,97108,97131,97163,97172,97203,97227,97251,97251,97260,97299,97331,97355,97364,97387,97427,97428,97428,97451,97467,97468,97492,97500,97516,97516,97527,97544,97563,97577,97577,97594,97611,97636,97644,97660,97684,97684,97694,97716,97739,97740,97779,97780,97803,97812,97843,97883,97884,97899,97915,97955,97956,97971,98011,98043,98044,98123,98187,98283,98315,98339" d="m430,307c0,-1.82535 -0.01785,-2.83353 0,-3.6955c0.01801,-0.86905 0.85425,-1.34848 0.99866,-2.10583c0.16833,-0.88278 0.00134,-1.79868 0.00134,-2.69867c0,-0.89999 0,-1.79999 0,-2.70132c0,-0.96533 0,-1.79868 0,-2.63202c0,-0.86215 0,-1.76666 0,-2.66666c0,-0.89999 0,-1.79999 0,-2.70001c0,-0.89999 0,-1.79999 0,-2.59998c0,-0.90002 -0.00195,-1.81964 0.42532,-2.60001c0.45038,-0.8226 0.57468,-1.70001 0.57468,-2.60001c0,-0.79999 -0.01068,-1.70007 0,-2.60001c0.01044,-0.87933 0.81427,-1.38809 0.99551,-2.10449c0.21964,-0.86816 0.00449,-1.7955 0.00449,-2.6955c0,-0.89999 0,-1.80002 0,-2.70001c0,-0.89999 -0.02725,-1.70041 0,-2.60001c0.02859,-0.94412 0.91626,-1.45428 1,-2.29999c0.07883,-0.79608 0,-1.70001 0,-2.60001c0,-0.89999 -0.00067,-1.79999 0,-2.69998c0.00067,-0.89868 0.6102,-1.4379 0.96399,-2.13602c0.3909,-0.77133 -0.03705,-1.91417 0.46133,-2.53867c0.4852,-0.60796 0.57468,-1.42532 0.57468,-2.32533c0,-0.89999 -0.08868,-1.80438 0,-2.7c0.08374,-0.84569 0.79047,-1.34421 1.2215,-2.10001c0.38156,-0.66908 1.37073,-1.19888 1.69318,-2.09999c0.27106,-0.75751 0.42023,-1.52808 1.00266,-2.08534c0.70038,-0.6701 1.06125,-1.31613 2.06116,-1.59315c0.79886,-0.22133 1.72153,-0.12151 2.62152,-0.12151c0.89999,0 1.79999,-0.00067 2.69998,0c0.89868,0.00067 1.67142,0.35571 1.70001,1.2c0.03046,0.89949 0,1.8 0,2.60001c0,0.89999 0,1.8 0,2.7c0,0.89999 0,1.8 0,2.7c0,0.90001 0,1.8 0,2.60001c0,0.89999 0,1.8 0,2.7c0,0.89999 0,1.79999 0,2.70001c0,0.89999 0,1.79999 0,2.59998c0,0.90002 0,1.80002 0,2.70001c0,0.89999 0.07568,1.80328 -0.00134,2.70132c-0.08368,0.9758 -0.47195,1.60574 -0.71466,2.31467c-0.32993,0.96368 -0.284,1.96802 -0.284,2.83133c0,0.89551 0.15353,1.90115 -0.16666,2.65268c-0.33282,0.78122 -0.66592,1.51724 -0.84402,2.39999c-0.1904,0.94376 -0.87857,1.59045 -0.98798,2.39999c-0.12079,0.8938 -0.68753,1.62238 -0.94418,2.5c-0.25311,0.8656 0.12421,1.85349 -0.22382,2.70001c-0.27591,0.67108 -0.71829,1.44318 -1.186,2.29999c-0.40686,0.74533 -0.60556,1.45834 -0.65182,2.35269c-0.0448,0.86594 -0.61279,1.62543 -0.91019,2.54733c-0.27756,0.86038 -0.08533,1.79999 -0.08533,2.59998c0,0.90002 0.00696,1.88052 -0.70532,2.5c-0.53745,0.46744 -1.12598,1.11353 -1.29916,2c-0.18069,0.92493 -0.82877,1.47168 -0.99103,2.40002c-0.15512,0.88745 -0.42981,1.69998 -0.91916,2.5l-0.08548,0.89999" id="svg_12" stroke-width="2" stroke="#000" fill="none"/>
  <path t="101323,101395,101395,101404,101411,101427,101444,101460,101460,101460,101477,101477,101494,101494,101510,101510,101510,101527,101527,101527,101544,101560,101560,101560,101577,101577,101577,101594,101610,101610,101627,101627,101644,101660,101660,101677,101677,101694,101694,101710,101727,101743,101759,101759,101779,101795,101795,101811,101811,101826,101843,101843,101859,101859,101876,101892,101909,101931,101931,101955,101971,101987,102075,102075,102115,102131,102131,102243,102275,102307,102347,102371,102411,102467,102523,102523,102571,102595,102651,102691,102691,102723,102747,102747,102755,102771,102795,102819,102835,102859,102859,102883,102899,102923,102963,102979,103003,103019,103027,103027,103043,103067,103083,103093,103093,103115,103131,103155,103187,103187,103195,103195,103227,103251,103275,103275,103283,103283,103293,103310,103331,103343,103360,103360,103378,103393,103410,103427,103443,103444,103467,103467,103484,103484,103499,103515,103531,103547,103547,103561,103579,103595,103611,103643,103667,103667,103683,103692,103723,103762,103786,103787,103826" d="m474,308c0.42532,-1.82535 0.83521,-2.49112 0.97916,-3.47916c0.13278,-0.91144 -0.05484,-1.82413 0.02219,-2.72217c0.08368,-0.9758 0.47641,-1.61676 0.71466,-2.39999c0.29834,-0.98074 0.25867,-1.8201 0.56934,-2.79868c0.26132,-0.82315 0.74493,-1.58615 1.104,-2.41068c0.27725,-0.63666 0.51566,-1.60809 0.57465,-2.40399c0.05737,-0.77402 0.03601,-1.97549 0.03601,-2.952c0,-0.68002 -0.01151,-1.52011 0.00134,-2.51602c0.01028,-0.79666 -0.00354,-1.5787 0.42398,-2.65598c0.34048,-0.85797 0.53668,-1.66196 0.57468,-2.49469c0.0394,-0.86316 0.63138,-1.63773 0.87851,-2.48816c0.25003,-0.86044 0.12149,-1.87833 0.12149,-2.65765c0,-0.85419 -0.01047,-1.7164 0,-2.62085c0.01044,-0.90018 0.53528,-1.60629 0.87851,-2.50015c0.28473,-0.74155 0.12149,-1.72519 0.12149,-2.73318c0,-0.79199 -0.10764,-1.6647 0.05716,-2.51398c0.17963,-0.92575 0.76059,-1.65738 0.99551,-2.40985c0.28143,-0.90152 0.72855,-1.55777 0.91132,-2.60684c0.14362,-0.82437 0.03601,-1.73599 0.03601,-2.63599c0,-0.79999 -0.01019,-1.70007 0,-2.60001c0.01044,-0.92101 0.30182,-1.87675 0.57468,-2.57466c0.36398,-0.93097 0.25717,-1.86177 0.51065,-2.62534c0.25635,-0.77217 0.88934,-1.58932 1.41467,-2.2c0.52533,-0.61067 0.82852,-1.5981 1.70001,-1.91467c0.8497,-0.30867 1.79999,-0.08533 2.59998,-0.08533c0.90002,0 1.92358,-0.14693 2.58936,0.436c0.69839,0.6115 0.60999,1.44933 0.61066,2.38933c0.00073,1.008 0,1.87016 0,2.67467c0,0.89999 0,1.8 0,2.7c0,0.90001 0,1.8 0,2.59999c0,0.90002 0,1.80002 0,2.70001c0,0.89999 0,1.79999 0,2.70001c0,0.89999 0.0372,1.80084 0,2.59998c-0.04272,0.91766 -0.93912,1.41525 -1,2.30002c-0.0618,0.89786 -0.1243,1.6774 -0.57468,2.5c-0.42728,0.78036 -0.34949,1.72357 -0.59198,2.56665c-0.19562,0.68008 -0.73978,1.65524 -0.82266,2.42267c-0.09781,0.90546 0.05176,1.84143 -0.23203,2.73199c-0.22275,0.69904 -0.71646,1.65063 -0.77731,2.47736c-0.06616,0.8989 0.00061,1.82095 -0.42667,2.60132c-0.45038,0.8226 -0.57468,1.60001 -0.57468,2.39999c0,0.90002 0.00528,1.80005 0,2.70001c-0.00534,0.91074 -0.22833,1.81848 -0.5,2.5c-0.38855,0.97473 -0.45801,1.75381 -0.50449,2.65268c-0.04477,0.86594 -0.61279,1.62543 -0.91019,2.54733c-0.27756,0.86038 -0.08533,1.79999 -0.08533,2.59998c0,0.90002 0.00195,1.81964 -0.42532,2.60001c-0.45038,0.8226 -0.52689,1.70129 -0.57468,2.60001c-0.04272,0.80338 -0.68619,1.42236 -0.94284,2.29999c-0.25311,0.8656 -0.05731,1.80002 -0.22382,2.70001l-0.48068,0.70001l-0.33182,0.79999" id="svg_13" stroke-width="2" stroke="#000" fill="none"/>
  <path t="109315,109442,109450,109450,109459,109459,109459,109492,109492,109526,109526,109526,109526,109526,109526,109561,109561,109561,109561,109561,109561,109561,109561,109593,109593,109593,109593,109593,109593,109593,109627,109627,109627,109627,109627,109627,109627,109660,109660,109660,109660,109660,109693,109693,109693,109727,109727,109760,109760,109760,109793,109834" d="m362,127c0.16666,-1.83334 0.85428,-2.32874 1,-3.04166c0.19479,-0.95301 0.47665,-1.72914 0.716,-2.473c0.3371,-1.0477 0.28101,-1.71068 0.28415,-2.69317c0.00284,-0.88701 0.00375,-1.39368 0.03586,-2.5175c0.01746,-0.61161 0.03397,-1.25301 0.13065,-2.608c0.10245,-1.43591 0.18777,-2.17229 0.26935,-2.91733c0.08209,-0.74964 0.17267,-1.49892 0.26849,-2.244c0.09488,-0.73759 0.29419,-2.17219 0.39551,-2.86234c0.09872,-0.67252 0.29919,-1.97112 0.39999,-2.60133c0.09924,-0.62045 0.29993,-1.839 0.5,-3.04166c0.09979,-0.59984 0.20325,-1.19794 0.38934,-2.38934c0.09207,-0.58948 0.259,-1.75283 0.32532,-2.32533c0.12946,-1.11747 0.20456,-2.19577 0.22818,-2.71467c0.04495,-0.98697 0.0549,-1.89465 0.05716,-3.07066c0.00177,-0.9285 0,-1.668 0,-2.7c0,-0.8 0,-1.8 0,-2.58933l0,-0.72533l0,-1.07467l0,-0.91067" id="svg_14" stroke-width="2" stroke="#000" fill="none"/>
  <path t="112946,113066,113074,113082,113093,113093,113093,113110,113126,113126,113126,113126,113143,113143,113143,113143,113160,113160,113160,113160,113176,113176,113176,113176,113176,113193,113193,113193,113193,113193,113210,113210,113210,113210,113210,113227,113227,113227,113227,113227,113227,113244,113244,113244,113244,113244,113244,113260,113260,113260,113260,113276,113276,113276,113277,113294,113294,113294,113294,113294,113310,113311,113311,113311,113327,113327,113327,113327,113344,113344,113344,113344,113344,113361,113361,113361,113361,113361,113361,113377,113377,113377,113377,113377,113377,113394,113394,113394,113394,113394,113394,113411,113411,113411,113411,113411,113411,113427,113427,113427,113444,113482,113482,113882,113914,113914,113962,114018,114057,114081,114105,114178,114178,114218,114258,114282,114314,114370,114666,114682,114683,114706,114730,114730,114746,114746,114759,114775,114775,114776,114792,114809,114809,114825,114825,114826,114843,114843,114859,114859,114875,114875,114893,114893,114893,114910,114910,114910,114926,114926,114926,114926,114943,114943,114960,114960,114976,114976,114993,115010,115010,115010,115010,115026,115026,115043,115043,115043,115060,115060,115060,115083,115083,115093,115110,115110,115126,115126,115126,115143,115143,115143,115160,115160,115160,115160,115176,115176,115193,115193,115210,115210,115226,115226,115226,115243,115243,115260,115260,115260,115276,115276,115293,115293,115310,115310,115326,115326,115343,115360,115360,115376,115393,115393,115410,115410,115426,115426,115426,115443,115443,115460,115460,115482,115483,115493,115510,115526,115526" d="m329,374c-1.70001,-0.99551 -2.63986,-1.03622 -3.41068,-0.564c-0.80426,0.49271 -1.39221,1.00604 -2.10532,1.27866c-0.99982,0.38223 -1.98804,0.60944 -2.53735,0.85468c-0.97491,0.43524 -1.6452,0.78372 -2.61331,1.26401c-0.82748,0.41052 -1.3226,0.67294 -2.10135,0.96533c-1.18774,0.44595 -1.90945,0.60687 -2.65332,0.87332c-0.78748,0.28207 -1.98282,0.86368 -2.37866,1.09735c-0.80878,0.47745 -1.59863,1.01807 -2,1.28247c-1.19592,0.78778 -1.99713,1.26559 -2.39551,1.49103c-0.78064,0.44171 -1.55411,0.84061 -2.63785,1.45715c-0.68973,0.39236 -1.35626,0.8114 -2.064,1.20001c-0.75073,0.41223 -2.0658,1.00305 -2.55734,1.20132c-0.51111,0.20618 -1.58759,0.61792 -2.14133,0.83466c-0.56097,0.21957 -2.24088,0.92319 -2.78198,1.18518c-1.05847,0.51248 -1.55579,0.79025 -2.03867,1.05798c-0.91074,0.50494 -2.07706,1.19897 -2.73001,1.55017c-0.8248,0.44363 -1.34348,0.69287 -2.49634,1.07068c-0.66565,0.21814 -1.39783,0.40317 -2.16599,0.60001c-1.18976,0.3049 -1.99228,0.49176 -2.78033,0.71066c-0.77734,0.21591 -1.54153,0.43707 -2.58936,0.91064c-0.68002,0.30734 -1.63693,0.8728 -2.30533,1.19467c-1.0235,0.49289 -1.77222,0.73425 -2.53683,0.98401c-0.78268,0.25565 -1.98309,0.65689 -2.78049,0.98532c-0.40524,0.1669 -1.21887,0.5369 -2.05585,0.91919c-1.3085,0.59766 -1.76263,0.79941 -2.69998,1.1955c-0.478,0.202 -1.45319,0.6008 -1.94733,0.79999c-1.49454,0.60245 -1.99414,0.80328 -2.99551,1.1955c-0.49933,0.19559 -1.49759,0.57538 -2,0.74734c-1.49313,0.51105 -1.99826,0.6424 -3,0.90451c-0.49915,0.13062 -1.5013,0.37302 -2,0.50531c-1.50406,0.39902 -2.49762,0.72672 -2.9865,0.90002c-0.95425,0.33829 -1.40891,0.51361 -2.25751,0.86331c-1.09583,0.45157 -1.91312,0.89926 -2.76666,1.19736c-0.96713,0.33777 -1.81067,0.28604 -2.664,0.28665c-0.94,0.00067 -1.9696,0.03073 -2.46817,0.7045c-0.51373,0.69427 -0.35716,1.6955 -0.35716,2.59549c0,0.90002 0,1.80002 0,2.70001c0,0.79999 0,1.70001 0,2.60001c0,0.89999 -0.00134,1.79999 0,2.69998c0.00134,0.89868 0.43684,1.63159 1.18533,1.68933c1.05887,0.0817 1.9827,-0.15256 2.64,-0.41464c1.0101,-0.40277 1.79396,-0.37625 2.6955,-0.61633c0.86517,-0.23041 1.44553,-1.00204 1.99518,-1.39035c0.81429,-0.57526 1.81329,-0.77188 2.50482,-1.08884c0.99098,-0.45422 1.59435,-0.74438 2.32201,-1.17917c0.93176,-0.55673 1.50952,-1.15323 2.31433,-1.59549c0.72223,-0.39691 1.74634,-0.59738 2.54285,-0.72983c1.00525,-0.16714 1.60635,-0.39703 2.39999,-0.776c1.01746,-0.48584 1.67194,-0.83478 2.17065,-1.08401c1.19586,-0.59763 1.8667,-0.93488 2.54266,-1.25333c0.63089,-0.29721 1.82941,-0.71698 2.56802,-0.944c0.96951,-0.298 1.70547,-0.71045 2.71414,-0.86017c0.74109,-0.10999 1.82269,0.00763 2.73785,-0.3905c0.70792,-0.30798 1.16345,-0.71432 1.98398,-1.09866c0.9722,-0.45538 1.87204,-0.54465 2.88284,-0.56815c0.82071,-0.01907 1.49185,-0.05411 2.48383,-0.28384c0.82236,-0.19043 1.62274,-0.48611 2.62933,-0.63068c0.83475,-0.11987 1.8454,0.06961 2.68668,-0.25198c0.73434,-0.28073 1.54132,-0.72589 2.272,-0.80801c0.83536,-0.0939 2.02975,-0.23877 2.62799,-0.37799c0.90283,-0.21011 2.09839,-0.49329 2.69867,-0.56332c0.87854,-0.10251 1.73026,-0.10672 2.716,-0.36801c0.89093,-0.23618 1.67853,-0.60071 2.47467,-0.67999c1.03949,-0.10352 1.87897,-0.04156 2.75351,-0.25735c0.72513,-0.17892 1.49982,-0.47122 2.53564,-0.65732c0.89447,-0.16071 1.92706,-0.27139 2.7215,-0.54666c0.60449,-0.20947 1.59763,-0.52234 2.40002,-0.564c0.99854,-0.05182 1.77914,-0.01068 2.77866,-0.01068c0.90533,0 1.84671,0.00732 2.53732,0c0.98416,-0.01044 1.96078,-0.30182 2.65866,-0.57468c0.93097,-0.36401 1.83768,-0.33493 2.58252,-0.48248c0.93338,-0.18491 1.69159,-0.65256 2.664,-0.82135c0.78632,-0.13647 1.569,-0.11923 2.6095,-0.12149c0.85199,-0.00183 1.81412,0.05231 2.57065,-0.08533c1.01285,-0.18427 1.74152,-0.56201 2.64151,-0.85751l0.85718,-0.05716l0.89999,0l0.79999,-0.08533" id="svg_15" stroke-width="2" stroke="#000" fill="none"/>
  <path t="116627,116882,116892,116892,116898,116910,116910,116926,116943,116943,116960,116960,116960,116976,116976,116976,116993,116993,117010,117010,117026,117026,117043,117066,117066,117066,117082,117082,117098,117098,117110,117110,117126,117143,117143,117160,117160,117176,117176,117193,117193,117210,117226,117226,117243,117243,117260,117260,117260,117276,117276,117276,117293,117293,117310,117310,117326,117326,117343,117343,117360,117360,117376,117376,117393,117410,117410,117426,117426,117426,117443,117443,117461,117461,117479,117479,117510,117510,117527,117545,117545,117576,117794,117794,117818,117842,117866,117882,117882,117895,117926,117926,117926,117926,117946,117946,117961,118002,118098,118098,118258,118354,118354,118610,118618,118644,118659,118690,118698,118725,118743,118761,118761,118792,118809,118827,118850,118850,118874,118875,118890,118890,118906,118922,118938,118954,118954,118970,118986,119002,119014,119032,119048,119049,119065,119065,119082,119082,119099,119116,119116,119133,119133,119149,119166,119183,119183,119199,119215,119234,119234,119251,119251,119268,119284,119301,119301,119317,119317,119338,119338,119363,119378,119402,119418,119427,119474,119474,119482,119570,119587,119674,119730,119747,119794,119834,119834" d="m367,373c0.16666,1.83334 1.10486,2.05893 1.564,2.61066c0.62772,0.7543 1.16644,1.24637 1.95334,1.47336c0.88101,0.25415 1.56284,1.03851 2.15466,1.55197c0.64047,0.55569 1.33621,1.01263 2.07733,1.53867c0.92093,0.65366 1.41409,1.10321 2.13333,1.62402c0.7442,0.53888 1.46399,0.90237 2.36469,1.49683c0.63617,0.41989 1.59491,0.60141 2.26865,0.78851c0.90372,0.25095 1.81198,0.92831 2.48935,1.21597c0.73837,0.31357 1.68002,0.67014 2.33331,1.10001c0.85422,0.56207 1.45331,1.07455 2.49469,1.43335c0.73743,0.25409 1.52203,0.67343 2.36798,1.08398c0.65582,0.31827 1.43417,0.80902 1.97333,1.23199c0.91367,0.7168 1.711,0.80405 2.6507,0.86136c0.69339,0.0423 1.6517,0.54416 2.49597,1.08932c0.6618,0.42734 1.51443,0.89676 2.05334,1.29999c0.79556,0.59525 1.45993,1.02643 2.31201,1.39999c0.983,0.43094 1.54041,0.56967 2.3035,0.90002c1.05939,0.45862 1.72757,1.04825 2.49515,1.49866c0.70044,0.41104 1.71698,0.66513 2.49384,0.80133c0.85721,0.1503 1.62192,0.64713 2.34216,1.09982c0.65826,0.41376 1.69342,0.66745 2.47736,0.98419c0.77274,0.31219 1.68936,0.81528 2.41199,0.94131c0.99362,0.17331 1.79294,0.48795 2.38934,0.776c1.00623,0.48596 1.59738,0.80399 2.59982,1.29849c0.77731,0.38345 1.63907,0.71191 2.42551,0.92551c0.86545,0.23505 1.54144,0.5719 2.48932,0.89066c0.97778,0.3288 1.56613,0.77997 2.40619,1.08401c0.94214,0.341 2.18536,0.5455 1.97116,1.38934c-0.23773,0.93652 -1.64627,0.42737 -2.492,0.77731c-0.78464,0.32468 -1.56543,0.79965 -2.33334,1.16669c-0.69696,0.33313 -1.44272,0.85641 -1.89865,1.26932c-1.01797,0.92197 -1.27612,1.59848 -2.06351,2.28751c-0.60342,0.52805 -0.96796,1.32938 -1.50583,1.90982c-0.67224,0.72543 -1.4006,1.22144 -1.84149,1.90002c-0.51477,0.79233 -1.06168,1.29773 -1.95718,1.29999c-0.89999,0.00226 -1.79999,0 -2.69998,0c-0.90002,0 -1.80002,0 -2.70001,0c-0.79999,0 -1.70007,0.01019 -2.60001,0c-0.92102,-0.01044 -1.71362,-0.24051 -2.57465,-0.57468c-0.93347,-0.36227 -1.72748,-0.46292 -2.47803,-0.7825c-0.71454,-0.30426 -1.53183,-1.03168 -2.34732,-1.47617c-0.78806,-0.42957 -1.03629,-1.30356 -1.7045,-1.80948c-0.69522,-0.52637 -1.49878,-0.90036 -2.39551,-1.23569c-0.85065,-0.31808 -1.61478,-0.34601 -2.06665,-1.12149c-0.38687,-0.66388 -1.12732,-1.15405 -2.008,-1.564c-0.78259,-0.36429 -1.67844,-0.44534 -2.42535,-1.04666c-0.65512,-0.5274 -1.26447,-1.20346 -2.22534,-1.35333c-0.68326,-0.10657 -1.77927,-0.03955 -2.47916,-0.38867c-0.8833,-0.44061 -1.79089,-0.41647 -2.52615,-0.93134c-0.69373,-0.48578 -1.31464,-1.10513 -2.05469,-1.43201c-0.89182,-0.39392 -1.64966,-0.32651 -2.59381,-0.784c-0.83932,-0.40671 -1.73105,-0.44904 -2.49152,-0.58533c-0.80914,-0.14502 -1.56638,-0.35376 -2.69598,-0.91467c-0.68738,-0.34131 -1.56113,-0.67328 -2.21201,-1.22134c-0.66226,-0.55762 -1.50089,-0.53189 -2.06866,-1.13583c-0.62112,-0.66071 -1.0098,-1.09698 -1.76733,-1.72684c-0.72464,-0.60251 -1.51025,-0.65973 -2.164,-1.13733c-0.69907,-0.51071 -1.32135,-0.77866 -2.22134,-0.77866l-0.89999,0l-0.79999,0" id="svg_16" stroke-width="2" stroke="#000" fill="none"/>
  <path t="123538,123754,123770,123786,123818,123858,123874,123874,123906,123938,123962,123970,123994,124018,124042,124042,124058,124058,124066,124076,124093,124109,124126,124143,124143,124170,124170,124186,124194,124209,124226,124243,124386,124386,124394,124570,124738,124794,124905,124906,124969,125057,125113,125241,125289,125290,125409,125713,125753,125754,125777,125825,125865,125897,125921,125937,125953,125993,125993,126017,126026,126026,126043,126066,126066,126076,126093,126109,126126,126143,126159,126176,126193,126233,126234,126249,126249,126273,126313,126401,126410,126705,126793,126793,126905,126905,127105,127177,127201" d="m325,184c-1.70001,0.05716 -2.44852,0.54019 -2.94733,1.2955c-0.46109,0.6982 -1.52127,0.94986 -1.88602,1.7045c-0.3555,0.73549 -0.16666,1.7 -0.16666,2.60001c0,0.89999 0,1.79999 0,2.7c0,0.90134 0,1.86667 0,2.7c0,0.83333 0,1.6955 0,2.60001c0,0.89999 0.04251,1.76247 0.57468,2.42532c0.48053,0.59853 0.67023,1.47919 1.03598,2.14934c0.53116,0.97325 1.19684,1.47395 1.37866,2.42534c0.16898,0.88405 0.01932,1.79097 0.51068,2.39999c0.52316,0.64842 0.80533,1.4754 1.07468,2.17467c0.40512,1.05173 0.78104,1.79674 1.62534,1.82533c0.89948,0.03047 1.79999,0 2.59998,0c0.90002,0 1.81967,0.16733 2.70001,-0.02083c0.84863,-0.18138 1.42712,-1.06848 2.10001,-1.54317c0.7348,-0.51836 1.80475,-0.58168 2.23334,-1.436c0.3663,-0.73018 0.16666,-1.7 0.16666,-2.60001c0,-0.89999 0,-1.79999 0,-2.7c0,-0.89999 0.19818,-1.86058 -0.16666,-2.7c-0.29755,-0.68456 -1.25952,-1.21675 -1.66669,-2c-0.38669,-0.74385 -0.70847,-1.4803 -1.36533,-2.2c-0.53348,-0.58452 -0.4361,-1.59775 -0.83734,-2.364c-0.39713,-0.75835 -0.96332,-1.23734 -0.96399,-2.136c-0.00067,-0.90001 0.09793,-1.80644 -0.01068,-2.71066c-0.11145,-0.92805 -0.55063,-1.56778 -0.86798,-2.56784c-0.25574,-0.80588 -0.82697,-1.44244 -1.08533,-2.42149c-0.22983,-0.87091 0.29364,-2.05183 -0.32266,-2.51468c-0.70697,-0.53093 -1.76602,-0.23874 -2.69183,0.13617c-0.67133,0.27185 -1.31702,1.07851 -1.85486,1.7785l-0.33331,0.83333" id="svg_17" stroke-width="2" stroke="#000" fill="none"/>
  <path t="128930,129249,129265,129265,129289,129298,129309,129309,129337,129353,129353,129369,129385,129385,129409,129418,129441,129481,129505,129553,129577,129577,129593,129649,129689,129705,129705,129737,129890,129897,130105,130105,130201,130281,130305,130361,130401,130410,130426,130442,130466,130530,130530,130561,130617,130641,130665,130681,130697,130713,130753,130769,130769,130809,130849,130849,130865,130873,130969,130993,131025,131025,131057,131097,131106,131129,131153,131162,131185,131233,131233,131249,131297,131345,131433,131449,131521,131521,131530,131585,131682" d="m383,186c-0.16666,-1.83333 -1.03348,-1.87531 -1.60001,-1.38933c-0.74326,0.63756 -0.96664,1.55516 -1.56665,2.22266c-0.48007,0.53407 -1.31174,0.99207 -1.66669,2c-0.25909,0.73572 -0.61087,1.55899 -1.26648,2.26668c-0.54996,0.59363 -0.60114,1.45506 -0.91086,2.28932c-0.27234,0.73361 -0.98297,1.23822 -1.41464,2.01067c-0.45782,0.81924 -0.86438,1.65691 -1.22202,2.3c-0.47443,0.85312 -0.87445,1.64624 -1.23132,2.40001c-0.40436,0.85406 -0.76868,1.59999 -1.12134,2.39999c-0.35266,0.8 -0.93912,1.59389 -1,2.5c-0.05362,0.7982 -0.36316,1.79689 0.03601,2.564c0.39514,0.75938 0.87646,1.39043 1.57465,2c0.6666,0.582 1.68933,0.436 2.58936,0.436c0.89999,0 1.79999,0 2.59998,0c0.90002,0 1.80002,0 2.70001,0c0.89999,0 1.8548,0.07878 2.47467,-0.42534c0.61508,-0.50021 1.3494,-0.90654 2.02533,-1.57466c0.58566,-0.57889 0.84387,-1.46405 1.28534,-2.2c0.4071,-0.67862 1.38922,-1.2151 1.6575,-2.10001c0.26163,-0.86302 0.05716,-1.8 0.05716,-2.7c0,-0.8 0,-1.7 0,-2.60001c0,-0.89999 0,-1.79999 0,-2.7c0,-0.89999 0,-1.8 0,-2.7c0,-0.8 0,-1.7 0,-2.60001c0,-0.89999 0.13351,-1.81062 -0.00449,-2.7c-0.14438,-0.93039 -0.79684,-1.41466 -1.69553,-1.75267l-0.79999,-0.44733l-0.79999,-0.44733" id="svg_18" stroke-width="2" stroke="#000" fill="none"/>
  <path t="134402,134554,134570,134578,134578,134592,134610,134634,134634,134658,134666,134666,134682,134698,134709,134730,134746,134770,134770,134786,134802,134818,134826,134857,134890,134906,134922,134922,134938,134954,134961,134977,134993,135018,135050,135082,135082,135122,135138,135178,135210,135226,135274,135274,135362,135394,135466,135498,135538,135554,135569,135577,135578,135602,135625,135650,135681,135721,135722,135753,135769,135777,135809,135818,135834,135842,135866,135889,135937,135938,135946,135977,136017,136041,136073,136098,136098,136146,136146,136178,136194,136210,136234,136250,136250,136259,136282,136299,136309,136325,136325,136342,136359,136375,136392,136392,136409,136409,136425,136425,136442,136459,136459,136475,136492,136492,136522,136522,136546,136559,136577,136641,136642,136737,136849,136921,136985,136986,137001,137025,137026,137057,137081,137193,137194" d="m336,204c0.61066,1.60001 1.46579,2.1974 1.83334,3c0.34015,0.74272 0.06799,1.70848 0.1875,2.52083c0.14529,0.98784 0.67416,1.61868 0.89383,2.59384c0.19547,0.86769 0.06732,1.68552 0.08533,2.58533c0.01801,0.90054 0.61813,1.61032 0.91467,2.5c0.28589,0.85765 0.08533,1.8 0.08533,2.60001c0,0.89999 0,1.8 0,2.7c0,0.89999 0,1.8 0,2.7c0,0.90001 0,1.8 0,2.60001c0,0.89999 0,1.8 0,2.7c0,0.89999 0,1.8 0,2.7c0,0.90001 0,1.8 0,2.60001c0,0.89999 0,1.8 0,2.7c0,0.89999 0.13165,1.85007 -0.22134,2.60001c-0.36505,0.77551 -0.7764,1.59998 -0.77866,2.5c-0.00223,0.89999 0,1.79999 0,2.7c0,0.89999 0.04779,1.80127 0,2.7c-0.04272,0.80341 -0.68619,1.42236 -0.94284,2.3c-0.25311,0.86555 -0.05716,1.8 -0.05716,2.7c0,0.8 0.01041,1.70006 0,2.60001c-0.01044,0.90018 -0.40189,1.66971 -0.87866,2.49982c-0.45386,0.79022 -1.09268,1.25592 -1.12134,2.10019c-0.03055,0.89948 -0.24213,1.75375 -0.64734,2.5c-0.41327,0.76111 -0.35266,1.69998 -0.35266,2.59998c0,0.90002 0.03391,1.80066 0,2.70001c-0.02859,0.75879 -0.38748,1.63892 -0.64734,2.34732c-0.3667,0.99973 -0.35266,1.95267 -0.35266,2.85269c0,0.89999 0,1.79999 0,2.59998c0,0.90002 0.00195,1.81964 -0.42532,2.60001c-0.45038,0.8226 -0.54932,1.6004 -0.57468,2.39999c-0.02859,0.9014 -0.68491,1.62314 -0.94284,2.50452c-0.24268,0.82925 -0.05716,1.6955 -0.05716,2.67416c0,0.77399 0.00916,1.67407 0,2.53732c-0.01044,0.98416 -0.24084,1.79752 -0.57468,2.65866c-0.3613,0.93204 -0.33383,1.83789 -0.48248,2.58252c-0.1846,0.92474 -0.72406,1.55777 -0.90683,2.60684c-0.14362,0.82437 -0.03601,1.73599 -0.03601,2.63599c0,0.79999 -0.05545,1.70096 -0.5,2.5c-0.44562,0.80093 -0.69086,1.62604 -1.2045,2.20001c-0.65802,0.73532 -1.49637,1.32211 -1.93832,2c-0.47849,0.73392 -0.71436,1.59998 -1.35718,2.29999l-0.60001,0.60001" id="svg_19" stroke-width="2" stroke="#000" fill="none"/>
  <path t="138161,138473,138489,138497,138509,138526,138543,138543,138559,138559,138575,138592,138592,138609,138609,138625,138625,138642,138642,138659,138675,138675,138692,138709,138709,138725,138725,138742,138761,138761,138777,138777,138792,138809,138825,138842,138859,138875,138875,138892,138909,138925,138942,138942,138959,138975,138975,138992,138992,139009,139025,139025,139042,139042,139042,139059,139059,139059,139075,139075,139092,139092,139109,139125,139125,139142,139142,139159,139175,139192,139192,139209,139225,139225,139242,139242,139259,139259,139259,139275,139275,139292,139292,139309,139309,139325,139325,139342,139342,139359,139359,139375,139375,139392,139392,139409,139409,139409,139425,139425,139442,139442,139459,139459,139459,139475,139475,139492,139509,139525,139543,139543,139559,139559,139575,139575,139592,139609,139625,139642,139659,139675,139692,139692,139709,139725,139742,139777,139809,140009" d="m321,192c-1.564,0.61067 -1.98199,1.39946 -2,2.3c-0.01801,0.89981 0,1.8 0,2.7c0,0.88533 0,1.82533 0,2.51601c0,0.98399 0.0484,1.97342 -0.03601,2.69466c-0.11697,0.99956 -0.5498,1.73981 -0.79733,2.62267c-0.25201,0.89888 -0.16666,1.81934 -0.16666,2.51401c0,1.02733 0.00061,1.974 0,2.82733c-0.00067,0.94 -0.22852,1.78966 -0.57468,2.46133c-0.41852,0.8121 -0.42307,1.71132 -0.42532,2.61133c-0.00229,0.91934 0,1.75267 0,2.73117c0,0.82016 0,1.7215 0,2.62151c0,0.89999 0.09546,1.84453 -0.284,2.59999c-0.43558,0.86722 -0.71533,1.60001 -0.716,2.5c-0.00067,0.90001 0,1.82083 0,2.62134c0,0.85333 0,1.79333 0,2.77884c0,0.78516 0,1.72516 0,2.41583c0,1.10933 0,1.97066 0,2.73067c0,0.92 0,1.71049 0,2.564c0,1.18933 0,2.08034 0,2.64766c0,1.20834 0,2.02084 0,2.86301c0,0.85333 0,1.79466 0,2.84534c0,0.65866 -0.18552,1.69954 0.05716,2.52882c0.25793,0.88136 0.91425,1.60315 0.94284,2.50584c0.02167,0.68365 -0.02289,1.62425 0,2.63199c0.01801,0.79262 0.31894,1.64088 0.57468,2.41335c0.30035,0.90723 0.34302,1.70499 0.45065,2.492c0.15387,1.12506 0.66949,1.83817 0.88934,2.74664c0.17151,0.70871 0.08533,1.71451 0.08533,2.49384c0,1.13684 0,1.90485 0,2.85684c0,0.76532 0,1.76401 0,2.564c0,1 0,1.80002 0,2.80002c0,0.79999 0,1.79999 0,2.59998c0,0.80002 0,1.80002 0,2.60001c0,1.00134 0,1.836 0,2.76666c0,0.78152 0,1.57202 0,2.69034c0,0.83401 0,1.74301 0,2.64301c0,0.91068 0,1.82132 0,2.5c0,1.116 0,1.884 0,2.82535c0,0.69064 0,1.76398 0,2.67465c0,0.89999 0,1.79999 0,2.70001c0,0.89999 0,1.79999 0,2.59998c0,0.90002 0,1.80002 0,2.70001l0,0.89999l0,0.89999l0,0.90002" id="svg_20" stroke-width="2" stroke="#000" fill="none"/>
  <path t="141433,141585,141593,141608,141624,141625,141642,141642,141658,141658,141658,141675,141675,141692,141692,141709,141709,141725,141725,141725,141742,141742,141759,141759,141775,141775,141792,141792,141792,141809,141809,141825,141825,141842,141842,141859,141859,141875,141875,141875,141892,141892,141909,141909,141925,141925,141942,141959,141959,141975,141975,141992,141992,142009,142009,142009,142025,142025,142025,142042,142042,142059,142059,142075,142075,142092,142092,142092,142109,142109,142125,142125,142125,142142,142142,142142,142159,142159,142159,142175,142175,142175,142192,142192,142209,142209,142209,142225,142225,142225,142225,142242,142242,142259,142259,142275,142275,142292,142292,142292,142309,142309,142325,142325,142342,142359,142375,142375,142392,142409,142409,142425,142442,142442,142466,142489,142489,142505,142521,142553,142561,142577,142609,142609,142617,142673,142681,142705,142753,142793,142793" d="m386,194c0,1.8 0,2.7 0,3.52083c0,0.96451 0,1.68983 0,2.67917c0,0.8 0,1.8 0,2.60001c0,0.8 0,1.8 0,2.59999c0,1 0,1.8 0,2.8c0,0.8 0,1.8 0,2.60001c0,0.8 0,1.8 0,2.59999c0,1 0,1.8 0,2.8c0,0.8 0,1.8 0,2.60001c0,0.8 0,1.8 0,2.59999c0,0.99867 0,1.94284 0,2.85184c0,0.7175 0,1.758 0,2.53351c0,1.04799 0.06366,1.76445 -0.05716,2.61015c-0.14563,1.01944 -0.60175,1.7827 -0.82135,2.80434c-0.16513,0.76826 -0.12149,1.6335 -0.12149,2.49567c0,0.94051 0,1.78984 0,2.709c0,0.9955 0,1.7955 0,2.7955c0,0.8 0,1.8 0,2.61067c0,0.6465 0,1.61067 0,2.41466c0,0.82201 0,2.08934 0,2.75385c0,1.02083 0,1.81017 0,2.85416c0,0.828 0,1.7095 0,2.42801c0,0.7905 0,2.05333 0,2.71783c0,1.02083 0,1.8315 0,2.70616c0,1 0,1.83551 0,2.41916c0,1.19534 0,2.08484 0,2.93835c0,1.03564 0,1.72116 0,2.55582c0,1.00583 0,1.85849 0,2.823c0,0.82501 0,1.73999 0,2.745c0,0.71469 0,1.43735 0,2.46634c0,1.10266 0,1.82535 0,2.85233c0,0.72534 0,1.71469 0,2.51468c0,1 0,1.79999 0,2.60001c0,1 0,1.79999 0,2.79868c0,0.76532 0,1.84415 0,2.70132c0,0.89999 0,1.69998 0,2.65717c0,0.89551 0,1.75882 0,2.61749c0,0.94666 0,1.79999 0,2.73999c0,0.88535 0,1.68533 0,2.58536c0,0.89999 0.00223,1.79999 0,2.69998c-0.00226,0.89999 -0.3674,1.74802 -0.716,2.39999c-0.45309,0.84741 -0.76462,1.71121 -1.23132,2.49551c-0.39374,0.66168 -1.25269,0.98849 -2.05267,1.53784l-0.70001,0.16217" id="svg_21" stroke-width="2" stroke="#000" fill="none"/>
  <path t="143594,143688,143688,143697,143708,143725,143742,143742,143742,143758,143758,143758,143758,143775,143775,143792,143792,143792,143808,143808,143808,143808,143825,143825,143842,143842,143842,143842,143858,143858,143858,143858,143875,143875,143892,143892,143892,143892,143908,143908,143908,143925,143925,143925,143942,143942,143942,143958,143958,143975,143975,143992,144008,144008,144025,144025,144025,144042,144042,144058,144058,144075,144075,144092,144108,144108,144125,144125,144142,144158,144158,144175,144175,144192,144192,144208,144225,144225,144242,144242,144258,144258,144275,144292,144292,144308,144325,144325,144342,144342,144358,144358,144358,144375,144392,144408,144425,144425,144442,144442,144442,144458,144458,144475,144475,144492,144508,144508,144525,144525,144545,144545,144561,144577,144601,144617,144617,144649,144681,144776,144776,144777,144832" d="m369,201c0,2.78934 0,3.51466 0,4.47917c0,0.92082 0,1.82983 0,2.85416c0,0.681 0,1.48801 0,2.66667c0,0.59866 0,1.47917 0,2.31467c0,1.00133 0,1.91066 0,2.85201c0,0.7905 0,1.644 0,2.83333c0,0.59866 0,1.47917 0,2.31467c0,1.00267 0,1.94667 0,3.01866c0,0.636 0,1.328 0,2.4185c0,1.0815 0,1.76151 0,2.7065c0,0.85501 0,1.85767 0,2.54167c0,1.16667 0,1.95717 0,2.81067c0,0.59067 0,1.78934 0,2.68933c0,0.60001 0,1.8 0,2.7c0,0.60001 0,1.8 0,2.69101c0,0.83699 0,1.77567 0,2.58817c0,1.00482 0,1.6955 0,2.76816c0,0.91934 0,1.58867 0,2.75267c0,0.8 0,1.60001 0,2.60001c0,0.79999 0,1.79866 0,2.564c0,0.952 0,1.72 0,2.66135c0,1.008 0,1.79999 0,2.65866c0,0.86331 0,1.76334 0,2.68265c0,0.83334 0,1.81201 0,2.586c0,0.90002 0,1.76334 0,2.74734c0,0.98532 0,1.71066 0,2.69983c0,0.77933 0,1.77866 0,2.59885c0,0.83731 0,1.854 0,2.54865c0,1.02734 -0.00061,1.974 0,2.82733c0.00067,0.94269 0.03116,1.64172 0.284,2.59335c0.19598,0.73761 0.53458,1.44574 0.67999,2.56c0.12589,0.96448 -0.10068,1.91748 0.25735,2.77234c0.25961,0.61987 0.66629,1.44144 0.77866,2.4205c0.09131,0.79568 0.23737,1.81207 0.52084,2.4375c0.41183,0.90863 1.22028,1.56638 1.44315,2.45233c0.22232,0.88382 -0.08765,1.63046 0.25735,2.56799c0.30511,0.82913 0.65689,1.68808 0.83133,2.36865c0.26886,1.04892 0.55444,1.94257 1.16882,2.53134c0.68073,0.65237 1.38535,0.84207 1.80383,1.72134c0.38855,0.81641 1.14133,1.39999 1.80002,1.79999l0.69064,0.39999l0.84802,0.58936" id="svg_22" stroke-width="2" stroke="#000" fill="none"/>
  <path t="145865,145929,145953,145977,146017,146041,146057,146105,146137,146137,146153,146161,146201,146305" d="m326,306c-1.70001,0 -2.60001,0 -3.5,0c-0.89999,0 -1.79999,0 -2.70001,0c-0.89999,0 -1.84543,0.19379 -2.59998,-0.08533c-0.8696,-0.32169 -1.17468,-1.30402 -1.77469,-1.94l-0.42084,-0.67917" id="svg_23" stroke-width="2" stroke="#000" fill="none"/>
  <path t="149074,149178,149178,149186,149202,149210,149210,149225,149225,149242,149258,149258,149258,149258,149275,149275,149275,149275,149292,149292,149292,149292,149308,149308,149308,149325,149325,149325,149342,149342,149342,149342,149358,149358,149358,149375,149375,149375,149392,149392,149408,149408,149441,149441,150153,150217,150266,150281,150353,150369,150369,150441,150657,150673,150689,150697,150713,150729,150745,150758,150785,150785,150809,150825,150850,150882,150929,150938,151010,151081,151082,151097,151121,151161,151177,151242,151257,151258,151282,151298,151308,151325,151353,151354,151377,151425,151441,151465,151497,151497,151508,151529,151553,151569,151577,151593,151617,151625,151625,151642,151665,151675,151692,151708,151708,151729,151745,151745,151758,151777,151809,151825,151842,151858,151882,151937,151953,151969,151969,152001,152033,152153,152153,152201,152321,152361,152377,152417,152425,152425,152457,152489,152529,152585,152585,152601,152625,152649,152673,152697,152753,152833,152833,152841,152889,152945,152969,153001,153049,153257" d="m311,302c-1,1 -0.98859,1.80005 -1,2.70001c-0.01044,0.82104 -0.24905,1.80228 -0.61066,2.47464c-0.44571,0.82874 -1.1272,1.48755 -1.38934,2.38785c-0.2662,0.91422 -0.35263,1.80563 -0.52084,2.47916c-0.1788,0.71591 -0.47543,1.79279 -0.67917,2.47433c-0.29462,0.98563 -0.50864,1.63419 -0.79999,2.65067c-0.20474,0.71429 -0.49112,1.80984 -0.64282,2.5235c-0.20688,0.97318 -0.27484,1.80374 -0.40985,2.75803c-0.1384,0.97809 -0.38422,1.78494 -0.522,2.36249c-0.28247,1.1839 -0.371,2.08948 -0.42532,2.68933c-0.08154,0.90021 -0.27222,2.10345 -0.436,2.70001c-0.24869,0.90567 -0.56839,1.79855 -0.8595,2.69098c-0.27261,0.83566 -0.51569,1.78052 -0.7045,2.58817c-0.19824,0.8479 -0.61154,1.48471 -0.87851,2.49933c-0.21094,0.80167 -0.00122,1.85956 -0.64233,2.50067c-0.64111,0.64111 -1.67917,0.52084 -2.57916,0.52084c-0.89999,0 -1.70016,0.01874 -2.60001,0c-0.86453,-0.01801 -1.29773,-0.7045 -1.29999,-1.60001c-0.00226,-0.89999 0,-1.79999 0,-2.69998c0,-0.90002 0,-1.80002 0,-2.70001c0,-0.79999 0,-1.70001 0,-2.60001c0,-0.89999 0,-1.79999 0,-2.69998c0,-0.90002 0.21066,-1.86615 -0.16666,-2.70001c-0.2959,-0.65396 -1.33316,-0.98956 -2.23334,-1c-0.89993,-0.01041 -1.8038,-0.08212 -2.70001,0.00015c-0.91144,0.08368 -1.32117,0.69839 -1.89999,1.479c-0.47223,0.63684 -0.9624,1.28589 -1.52084,2.02084c-0.50443,0.66391 -1.09436,1.21225 -1.50449,2.10001c-0.37509,0.81195 -0.93195,1.59698 -0.97467,2.5c-0.04251,0.89899 0,1.69998 0,2.60001c0,0.89999 0,1.79999 0,2.69998c0,0.89999 0,1.80002 0,2.70001c0,0.89999 0,1.69998 0,2.60001c0,0.89999 0,1.79999 0,2.60449c0,1.01682 0,1.6955 0,2.67398c0,1.02151 0,1.8215 0,2.72153c0,0.89999 -0.28909,1.85196 0.01068,2.68933c0.26373,0.73672 0.82089,1.24112 1.01016,2.11066c0.18417,0.84625 0.73187,1.65054 1.14581,2.5c0.31787,0.65228 0.69147,1.70316 1.375,1.97916c0.87402,0.35294 1.80566,0.02084 2.70117,0.02084c0.95718,0 1.86157,0.08868 2.75717,0c0.8457,-0.08374 0.97464,-1.0004 1,-1.79999c0.02859,-0.9014 0.57367,-1.66306 0.94733,-2.5c0.34476,-0.77219 0.89853,-1.46686 1.04199,-2.30002c0.15274,-0.88699 0.01068,-1.79999 0.01068,-2.69998c0,-0.90002 0,-1.80002 0,-2.70001c0,-0.79999 0,-1.70001 0,-2.60001c0,-0.89999 0,-1.79999 0,-2.69998l0,-0.90002l0,-0.89999" id="svg_24" stroke-width="2" stroke="#000" fill="none"/>
  <path t="154298,154425,154441,154457,154457,154476,154476,154491,154508,154508,154508,154525,154542,154543,154558,154558,154575,154575,154591,154608,154625,154625,154641,154641,154641,154658,154675,154675,154691,154713,154713,154725,154741,154758,154775,154791,154791,154825,154841,154858,154985,154985,155001,155041,155089,155465,155465,155489,155497,155521,155521,155537,155545,155569,155585,155625,155657,155657,155681,155713,155753,155849,155849,156025,156057,156073,156081,156091,156091,156113,156129,156161,156185,156209,156233,156257,156289,156289,156297,156329,156353,156385,156401,156425,156457,156475,156475,156491,156513,156525,156553,156577,156593,156617,156657,156657,156705,156721,156777,156809,156833,156865,156865,156913,156945,156969,156985,157041,157113,157185,157185,157225,157225,157240,157241,157258,157289,157313,157345,157377,157392,157393,157433,157481,157512,157536,157584,157664,157665,157689,157736,157800,157840,157856,157880,157952,157976,157977,158016,158064,158096,158144,158176,158224,158272,158336,158360,158416,158417,158472,158624,158632" d="m388,305c0.05716,1.70001 0.56842,2.48849 1.09982,3.32132c0.41821,0.65546 0.63068,1.54495 0.95285,2.37418c0.29385,0.75635 0.95419,1.46704 1.34732,2.12985c0.40714,0.68646 1.1217,1.49188 1.47885,2.49597c0.23236,0.65329 0.55267,1.66986 1.12115,2.15784c0.74298,0.63776 1.12039,1.29883 1.57468,2.12085c0.43726,0.7912 0.62921,1.72931 0.94617,2.42084c0.45419,0.99097 0.82043,1.55502 1.12198,2.32199c0.39291,0.99927 0.73834,1.798 1.07318,2.45715c0.39835,0.78418 0.284,1.85269 0.284,2.54733c0,1.01669 0,1.95267 0,2.85269c0,0.89999 -0.16815,1.83643 0.08533,2.59998c0.25635,0.77219 0.78021,1.60986 0.91916,2.5c0.12784,0.81897 0.84137,1.46686 0.98483,2.30002c0.15274,0.88699 -0.08362,1.84155 0.23218,2.72101c0.2951,0.82178 1.22458,1.31924 1.65717,0.57898c0.47675,-0.81586 0.91632,-1.55374 1.10049,-2.39999c0.18927,-0.86954 0.5946,-1.4436 1.04617,-2.11066c0.49878,-0.73682 1.07581,-1.48822 1.67468,-2.08936c0.59662,-0.59885 0.9071,-1.58987 1.52148,-2.17865c0.68088,-0.65247 1.43643,-0.87186 2.07849,-1.41684c0.75452,-0.64041 1.63913,-0.48926 1.70001,0.39551c0.0618,0.89786 0,1.69998 0,2.60001c0,0.89999 0,1.79999 0,2.69998c0,0.89999 0,1.80002 0,2.70001c0,0.89999 0,1.69998 0,2.60001c0,0.89999 0,1.79999 0,2.69998c0,0.89999 0,1.80002 0,2.70001c0,0.89999 0,1.69998 0,2.60001c0,0.89999 0,1.79999 0,2.69998c0,0.89999 0,1.80002 0,2.70001c0,0.89999 0.01801,1.70016 0,2.60001c-0.01801,0.90054 -0.61804,1.61032 -0.91467,2.5c-0.28595,0.85764 -0.29703,1.77173 -0.66,2.39999c-0.48856,0.84564 -0.85559,1.56006 -1.50934,2.116c-0.61417,0.52228 -1.45389,1.03113 -2.32666,1.24799c-0.88446,0.21976 -1.82724,0.17783 -2.56766,-0.18567c-0.76547,-0.37579 -0.73862,-1.50455 -1.10568,-2.20898c-0.40451,-0.77631 -1.59079,-1.00317 -1.85883,-1.86932c-0.26663,-0.86151 -0.00937,-1.8013 -0.05716,-2.70001c-0.04272,-0.80338 -0.74695,-1.5372 -0.96399,-2.39999c-0.21973,-0.8735 -0.03601,-1.80002 -0.03601,-2.70001c0,-0.89999 0,-1.69998 0,-2.60001c0,-0.89999 0,-1.79999 0,-2.69998c0,-0.89999 0,-1.80002 0,-2.70001c0,-0.89999 0,-1.69998 0,-2.60001c0,-0.89999 -0.14297,-1.81314 0.01068,-2.69998c0.14417,-0.83218 1.15155,-1.17068 1.82266,-1.76666c0.60629,-0.53842 0.95224,-1.2753 1.452,-2.03201c0.40216,-0.60892 1.42932,-0.88535 1.88132,-1.63467l0.74933,-0.452" id="svg_25" stroke-width="2" stroke="#000" fill="none"/>
 </g>
 <g display="none">
  <title>muse_image</title>
  <image xlink:href="http://farm3.static.flickr.com/2412/2262418860_78bf5792e9.jpg" id="muse" height="426" width="640" y="27" x="0"/>
 </g>
 <g display="none">
  <title>bbox</title>
  <rect stroke="#f00" fill="none" stroke-width="3" height="291.67568" width="523.52" y="94.8018" x="37.12" id="bbox"/>
 </g>
</svg>
