<svg width="640" height="480" xmlns="http://www.w3.org/2000/svg" xmlns:svg="http://www.w3.org/2000/svg" xmlns:xlink="http://www.w3.org/1999/xlink">
 <!-- Sketchy ANNOTATION
  ImageNet ID: n02691156_9966
  URL: http://farm1.static.flickr.com/32/64831538_31889a4190.jpg
  Image Width: 500
  Image Height: 333
  BBox X: 25
  BBox Y: 125
  BBox Width: 170
  BBox Height: 73
  Exposure: 2000ms
  Synset Label: airplane
  Synset ID: n02691156
  Worker Tag: Fighter jet flying fast in the air
  Sanity Check: 
   Context
   Saved
   Shading
  Comment: 
   {}
  Worker ID: A1P7U2ULSAE7YL
  Assignment ID: 3L4D84MILZSNPR16CCKQDVQZOHFJHI
  HIT ID: 311HQEI8RSGE9X24RNWYLSUATVVZ78
  Work Time: 132s
  Worker Score: 0.8571
 END ANNOTATION -->
 <g display="inline">
  <title>Layer 1</title>
  <path t="0,255,272,280,289,296,303,312,327,327,335,343,352,352,360,376,391,392,399,415,416,423,432,439,448,455,464,472,472,480,495,505,512,528,543,551,567,583,608,768,975,983,992,1000,1000,1000,1008,1016,1023,1024,1032,1032,1040,1040,1048,1048,1055,1056,1064,1064,1072,1072,1072,1080,1080,1088,1088,1096,1096,1096,1105,1105,1112,1112,1121,1121,1121,1128,1128,1135,1136,1143,1144,1144,1151,1151,1160,1160,1160,1167,1168,1168,1168,1176,1176,1176,1184,1184,1192,1192,1192,1200,1200,1200,1208,1208,1208,1216,1216,1223,1224,1224,1224,1231,1232,1232,1239,1240,1240,1248,1248,1248,1248,1255,1256,1256,1256,1264,1264,1264,1272,1272,1272,1279,1280,1280,1280,1288,1288,1288,1296,1296,1296,1305,1305,1305,1312,1312,1312,1312,1321,1322,1322,1328,1328,1328,1328,1338,1338,1339,1339,1344,1344,1344,1344,1352,1352,1352,1352,1352,1352,1360,1360,1360,1360,1360,1360,1360,1367,1368,1368,1368,1368,1375,1376,1376,1376,1376,1376,1384,1384,1384,1384,1384,1384,1384,1391,1392,1392,1392,1392,1392,1400,1400,1400,1400,1400,1400,1400,1408,1408,1408,1408,1408,1408,1409,1409,1416,1416,1416,1416,1416,1416,1423,1424,1424,1424,1424,1424,1431,1432,1432,1432,1439,1440,1440,1440,1440,1440,1448,1448,1448,1448,1455,1456,1456,1456,1456,1464,1464,1464,1464,1464,1471,1472,1472,1472,1480,1480,1480,1488,1488,1488,1488,1496,1496,1496,1505,1505,1512,1512,1521,1521,1528,1528" d="m55.01137,209.09091c1.8,0 2.72274,0.14598 3.38933,-0.436c0.69818,-0.60957 1.01171,-1.27829 1.90617,-1.5685c0.75138,-0.24379 0.84914,-1.32463 1.50583,-1.7115c0.82685,-0.48711 1.7038,-0.79955 2.29867,-1.384c0.60527,-0.59467 1.20445,-1.46803 2,-1.77849c0.84603,-0.33015 1.75471,-0.13173 2.5,-0.73218c0.65419,-0.52704 1.38593,-0.80852 2.11467,-1.47333c0.59606,-0.54376 0.82951,-1.65498 1.68533,-1.88c0.86695,-0.22795 1.48853,-0.63161 2.30533,-0.98332c0.67912,-0.29243 1.17245,-0.89153 1.81551,-1.53185c0.64139,-0.63867 1.2891,-1.18433 2,-1.5c0.87669,-0.3893 1.61752,-0.47018 2.19516,-1.10483c0.58858,-0.64665 0.63896,-1.23637 1.284,-1.89517c0.56081,-0.57277 1.7,-0.02083 2.54166,-0.02083c1.001,0 1.709,0 2.453,0c1.191,0 2.10533,0 3.00533,0c0.75716,0 1.65717,0 2.4045,0c0.99417,0 1.93834,0 2.84734,0c0.7175,0 1.7535,0 2.4975,0c1.108,0 1.90134,0 2.79333,0c0.95734,0 1.68934,0 2.652,0c0.77334,0 1.81517,0 2.59067,0c1.048,0 1.97867,0 2.61017,0c1.0045,0 1.80458,0.01283 2.8045,-0.00017c0.8002,-0.01039 1.80476,-0.15224 2.6,-0.42517c0.80508,-0.27631 1.79877,-0.54202 2.60001,-0.57016c1.00072,-0.03516 1.836,-0.0045 2.76666,-0.0045c0.7815,0 1.572,0 2.69067,0c0.79333,0 1.68584,0 2.42534,0c0.8835,0 1.884,0 2.6,0c1.0965,0 1.8075,0 2.784,0c1.06133,0 1.72433,0 2.73466,0c0.83466,0 1.76534,0 2.55133,0c0.82199,0 1.88066,0 2.82199,0c0.67801,0 1.90935,0 2.45067,0c0.82201,0 2.09067,0 2.77467,0c1.16667,0 1.95717,0 2.52083,0c0.88051,0 2.07784,0 2.95834,0c0.56366,0 1.83949,0 2.5625,0c0.81299,0 1.82249,0 2.62083,0c0.85832,0 1.73666,0 3.00417,0c0.76132,0 1.45065,0 2.36716,0c1.04483,0 1.74083,0 2.65018,0c1.00266,0 1.85767,0 2.47766,0c1.3595,0 2.0865,0 2.8175,0c0.711,0 1.978,0 2.75949,0c0.7095,0 1.94667,0 2.49733,0c0.8685,0 2.06401,0 2.664,0c0.90001,0 2.10001,0 2.70001,0c0.89999,0 1.79999,0 2.7,0c0.89999,0 1.8,0 2.7,0c0.9045,0 1.836,0 2.48534,0c1.036,0 2.14,0 2.88933,0c0.74133,0 1.80434,0 2.48167,0c1.041,0 1.79832,0 3.10815,0c0.4915,0 1.5435,0 2.09801,0c1.151,0 1.7415,0 2.9375,0c1.19867,0 1.7955,0 2.38933,0c1.17467,0 1.75351,0 2.32533,0c1.66383,0 2.20001,0 3.24934,0c0.51517,0 1.53149,0 3.036,0c0.50034,0 1.509,0 2.02133,0c1.05067,0 1.593,0 3.312,0c0.60918,0 1.23334,0 2.50667,0c0.63918,0 1.27333,0 1.89751,0c1.7625,0 2.29832,0 3.3,0c0.94167,0 1.4025,0 2.32916,0c1.47684,0 2.008,0 3.13733,0c0.60017,0 1.22534,0 1.8765,0c0.67818,0 2.88318,0 3.66884,0c0.79967,0 1.60533,0 2.409,0c0.79367,0 1.56934,0 2.319,0c1.38934,0 2.0155,0 3.14584,0c0.51816,0 1.4955,0 1.96866,0c1.4415,0 2.47484,0 3.009,0c1.07834,0 1.6125,0 2.64583,0c0.95334,0 1.80133,0 2.57733,0c1.134,0 2.37601,0 2.84001,0c0.99399,0 1.51199,0 2.56,0c0.51801,0 1.97598,0 2.82266,0c0.76666,0 1.49335,0 2.98666,0c0.836,0 1.27649,0 2.1875,0c0.931,0 2.3125,0 2.75751,0c0.85999,0 1.67999,0 2.45999,0c1.44019,0 2.10449,0 3.05099,0c0.60934,0 1.81201,0 2.42136,0c0.9465,0 1.95599,0 2.672,0c1.0965,0 1.8075,0 2.784,0c1.06134,0 1.72433,0 2.73334,0c0.79999,0 1.79999,0 2.59998,0c1,0 1.78934,0 2.83334,0l0.86218,0" id="svg_1" stroke-width="2" stroke="#000" fill="none"/>
  <path t="2632,2711,2719,2736,2743,2743,2753,2759,2769,2769,2784,2799,2815,2815,2815,2824,2826,2831,2863,2872,2873,2879,2895,2903,2911,2943,2959,2959,2975,2990,2995,3063,3367,3375,3385,3386,3391,3399,3399,3407,3407,3415,3415,3423,3423,3423,3423,3431,3431,3431,3440,3440,3440,3447,3447,3447,3447,3455,3455,3455,3463,3464,3471,3471,3479,3480,3488,3488,3495,3496,3496,3503,3503,3511,3512,3512,3512,3512,3519,3527,3528,3535,3536,3536,3543,3544,3544,3544,3552,3552,3552,3552,3559,3560,3560,3569,3569,3569,3575,3576,3576,3576,3576,3585,3585,3585,3591,3592,3599,3599,3600,3607,3607,3608,3615,3615,3616,3623,3623,3631,3631,3639,3640,3640,3647,3648,3655,3656,3663,3671,3671,3680,3680,3680,3687,3688,3688,3695,3696,3703,3711,3712,3719,3719,3720,3720,3728,3728,3728,3735,3743,3751,3751,3759,3760,3768,3769,3775,3785,3785,3791,3792,3799,3807,3807,3815,3815,3816,3823,3824,3824,3832,3832,3840,3841,3847,3848,3856,3856,3863,3864,3864,3871,3871,3872,3880,3887,3887,3896,3896,3903,3903,3911,3912,3919,3919,3927,3928,3935,3935,3943,3944,3951,3952,3959,3968,3968,3975,3976,3984,3991,4001,4001,4001,4007,4015,4015,4023,4023,4031,4039,4040,4047,4055,4063,4064,4071,4079,4080,4087,4095,4103,4103,4111,4112,4119,4119,4127,4128,4135,4135,4143,4144,4151,4151,4160,4160,4168,4168,4176,4185,4185,4192,4201,4207,4208,4215,4224,4231,4232,4239,4240,4240,4255,4272,4272,4279,4287,4296,4305,4305,4311,4327,4336,4359,4399,4415,4431,4447,4448,4455,4472,4479,4542" d="m55.01137,209.09091c1.7,0.05716 2.42315,0.68491 3.3045,0.94283c0.82928,0.24269 1.97625,-0.33994 2.58117,0.41434c0.53225,0.66367 0.21476,1.88533 0.91566,2.3575c0.71074,0.47879 1.58335,0.75795 2.36533,1.28534c0.63889,0.43088 1.3433,0.80879 2.19733,1.38933c0.73074,0.49673 1.27209,0.84401 1.8575,1.48933c0.55771,0.61479 1.59625,0.57005 2.3425,1.14667c0.58974,0.45569 0.9626,1.32085 1.35067,2.17334c0.34803,0.76453 1.22334,0.83678 1.72816,1.50583c0.56664,0.75098 1.07135,0.89694 1.92117,1.3315c0.69683,0.35632 0.98357,1.41016 1.72134,1.87868c0.69162,0.43921 1.6,0.08533 2.54,0.08533c1.008,0 1.8,0 2.66,0c0.91917,0 1.916,0 2.53551,0c1.14583,0 1.93633,0 2.78983,0c0.59066,0 1.78933,0 2.68933,0c0.6,0 1.8,0 2.7,0c0.6,0 1.8,0 2.7,0c0.6,0 1.5,0 2.69733,0c0.861,0 1.632,0 2.59733,0c0.77334,0 1.81067,0 2.55466,0c1.10783,0 1.86533,0 2.73734,0c0.76,0 1.9345,0 2.728,0c0.7755,0 1.81599,0 2.668,0c0.779,0 1.57899,0 2.53833,0c1.03734,0 1.72433,0 2.737,0c0.909,0 1.638,0 2.67534,0c0.952,0 1.6765,0 2.80949,0c0.667,0 1.37801,0 2.4745,0c1.06116,0 1.7255,0 2.672,0c0.60934,0 1.81068,0 2.71067,0c0.60001,0 1.80017,0 2.71066,0c0.62534,0 1.95601,0 2.67334,0c0.74133,0 1.49066,0 2.23199,0c1.39734,0 2.03734,0 2.92233,0c1.04018,0 1.94084,0 2.96167,0c0.81067,0 1.45717,0 2.42149,0c0.8145,0 1.683,0 2.87817,0c0.59134,0 1.42833,0 2.5575,0c0.89101,0 1.8045,0 2.60451,0c0.95966,0 1.76366,0 2.58566,0c1.03101,0 1.911,0 2.93117,0c0.717,0 1.6575,0 2.50816,0c0.75999,0 1.93466,0 2.73866,0c0.82201,0 1.85318,0 2.53867,0c0.83467,0 1.83151,0 2.75067,0c0.86,0 1.80701,0 2.52701,0c1.125,0 1.9155,0 2.769,0c0.59067,0 1.78667,0 2.64766,0c0.77101,0 1.86967,0 2.74167,0c0.90016,0 1.68533,0 2.636,0c0.76534,0 1.75951,0 2.67867,0c0.86,0 1.80667,0 2.66,0c0.94133,0 1.70934,0 2.65067,0c1.008,0 1.836,0 2.71767,0c0.729,0 1.56599,0 2.75667,0c0.59134,0 1.42833,0 2.5575,0c0.89101,0 1.8,0 2.54733,0c0.9955,0 1.7955,0 2.7955,0c0.8,0 1.8,0 2.61067,0c0.87466,0 1.87199,0 2.6685,0c0.7515,0 1.8595,0 2.84216,0c0.67867,0 1.6575,0 2.48849,0c0.95818,0 1.69017,0 2.85684,0c0.8125,0 1.65466,0 2.508,0c0.94133,0 1.70934,0 2.66133,0c0.76534,0 1.76401,0 2.564,0c0.99867,0 1.76401,0 2.84734,0c0.91934,0 1.75267,0 2.73117,0c0.717,0 1.62151,0 2.56317,0c1.00099,0 1.709,0 2.45299,0c1.19101,0 2.00534,0 2.89067,0c0.94,0 1.63068,0 2.61467,0c0.98399,0 1.67467,0 2.74283,0c0.85718,0 1.75717,0 2.55717,0c0.95717,0 1.85266,0 2.716,0c0.96317,0 1.784,0 2.68666,0c0.76801,0 1.80266,0 2.54666,0c1.10783,0 1.86534,0 2.73601,0c0.91916,0 1.91333,0 2.67865,0c0.95203,0 1.72,0 2.67203,0c0.76532,0 1.76398,0 2.564,0c0.99866,0 1.76398,0 2.84732,0c0.91934,0 1.73184,0 2.69135,0c0.823,0 1.71399,0 2.57733,0c0.96317,0 1.78848,0 2.80566,0c0.72,0 1.845,0 2.62201,0c0.75897,0 1.69214,0 2.62564,0c0.7825,0 1.79468,0 2.63068,0c0.89999,0 1.79999,0 2.60001,0c0.89999,0 1.79999,0 2.69998,0c0.97919,0 1.85718,0 2.70001,0c0.89999,0 1.79999,0 2.60001,0c0.89999,0 1.79999,0 2.69998,0l0.97919,0" id="svg_2" stroke-width="2" stroke="#000" fill="none"/>
  <path t="5496,5631,5639,5655,5655,5663,5679,5679,5687,5687,5687,5695,5711,5719,5719,5727,5727,5735,5735,5743,5751,5751,5759,5775,5783,5791,5807,6119,6127,6135,6143,6151,6151,6159,6175,6175,6183,6191,6271,6319,6343,6375,6375,6567,6583,6591,6591,6599,6603,6615,6615,6631,6648,6671,6671,6711,6751,6807,6839,6887,7039,7047,7047,7055,7055,7064,7071,7071,7071,7080,7087,7087,7095,7095,7103,7103,7104,7111,7111,7119,7119,7127,7135,7143,7151,7159,7168,7184,7184,7200,7207,7207,7223,7231,7247,7599,7615,7630,7633,7639,7655,7655,7663,7663,7680,7681,7697,7703,7703,7727,7783,7791,7815,7831,7847,7847,7871,7903,7927,7943,7975,8039,8095,8303,8303,8527,8575,8662,8823,8864,8872,8920,8936,8960,9000,9072,9072,9088,9128,9160,9176,9200,9224,9240,9264,9264,9288,9320,9456,9466,9472,9480,9488,9496,9496,9512,9513,9520,9529,9536,9546,9546,9552,9560,9560,9568,9568,9576,9592,9600,9608,9624,9624,9632,9632,9640,9648,9672,9680,9736,9760,9808,9856,9864" d="m291.01135,190.09091c1.61069,0 2.52084,0 3.48401,0c0.69067,0 1.76334,0 2.68268,0c0.85416,0 1.83331,0 2.62265,0c0.72534,0 1.68985,0 2.62134,0c0.91083,0 1.80002,0 2.78918,0c0.77933,0 1.63348,0 2.49567,0c0.94049,0 1.78848,0 2.65182,0c1.00598,0 1.87418,0 2.75266,0c0.89999,0 1.81601,0 2.60452,0c0.89548,0 1.81104,-0.15639 2.6955,0.01067c0.95016,0.17946 1.46362,0.81111 2.42532,0.95334c0.99777,0.14757 1.76401,0.036 2.67465,0.036c0.90002,0 1.80002,0 2.70001,0c0.89999,0 1.80084,-0.0372 2.60001,0c0.91766,0.04271 1.19931,0.88667 1.19998,1.82533c0.00049,0.69067 0,1.76399 0,2.65384c0,0.96365 0,1.70616 0,2.6355c0,0.98534 0,1.88533 0,2.68533c0,0.89999 0.20023,1.6008 0.716,2.284c0.46457,0.61536 0.11609,1.52011 -0.59482,2.13733c-0.65402,0.56783 -1.354,0.67162 -2.23584,1.06267c-0.73953,0.32796 -1.56351,0.71568 -2.42801,0.93733c-0.71368,0.18298 -1.43091,0.53006 -2.64297,0.7215c-0.80637,0.12735 -1.69968,0.05717 -2.47601,0.05717c-0.79999,0 -1.75967,0 -2.56366,0c-0.82202,0 -2.08801,0 -2.733,0c-1.02017,0 -1.84033,0 -2.74167,0c-0.89999,0 -1.80002,0 -2.70001,0c-0.89999,0 -1.79999,0 -2.70016,0c-0.78516,0 -1.72516,0 -2.73315,0c-0.75601,0 -1.66669,0 -2.56668,0c-0.89999,0 -1.79599,0 -1.70267,0c1.08099,0 1.936,0 2.74933,0c0.83868,0 1.75784,0 2.75201,0c0.76532,0 1.71735,0 2.48532,0c0.94135,0 1.94934,0 2.70535,0c0.97467,0 1.84665,0 2.71066,0c0.89999,0 1.79999,0 2.69998,0c0.80002,0 1.70001,0 2.60001,0c0.89999,0 1.80002,0 2.6955,0c0.98984,0 1.8045,0 2.7045,0c0.80002,0 1.70001,0 2.60001,0c0.96402,0 2.08133,-0.15302 2.38934,0.61067c0.32489,0.80551 0.01065,1.74649 0.01065,2.68933c0,0.89999 0,1.8 0,2.7c0,0.8 0,1.7 0,2.60001c0,0.89999 0,1.79999 0,2.7c0,0.89867 0,1.75267 0,2.7c0,0.8 0.01065,1.70006 0,2.60001c-0.01041,0.87935 -0.6106,1.39465 -1.5,1.39999c-0.89996,0.0054 -1.80447,0 -2.66666,0c-0.83334,0 -1.81183,0 -2.63199,0c-0.90134,0 -1.80133,0 -2.72217,0c-0.96317,0 -1.65384,0 -2.7265,0c-0.91934,0 -1.578,0 -2.586,0c-0.86218,0 -1.80951,0 -2.6875,0c-0.87918,0 -1.78366,0 -2.64584,0c-0.83334,0 -1.81183,0 -2.63199,0c-0.90134,0 -1.80133,0 -2.70135,0c-0.88931,0 -1.784,-0.00133 -2.47464,-0.42534l-0.54617,-0.55383l-0.97919,-0.02083l-0.88931,-0.01067" id="svg_3" stroke-width="2" stroke="#000" fill="none"/>
  <path t="11329,11480,11489,11496,11504,11504,11513,11513,11520,11520,11530,11536,11536,11546,11552,11560,11576,11576,11584,11584,11593,11600,11610,11610,11616,11616,11624,11624,11632,11640,11640,11648,11648,11648,11656,11664,11664,11672,11672,11680,11688,11688,11697,11697,11704,11704,11713,11713,11720,11720,11730,11730,11736,11736,11746,11746,11746,11749,11752,11763,11768,11768,11776,11777,11777,11784,11784,11793,11793,11793,11800,11800,11810,11810,11816,11816,11824,11824,11832,11840,11840,11848,11856,11856,11864,11872,11880,11888,11897,11897,11904,11914,11914,11929,11936,11944,11944,11952,11960,11960,11968,11968,11968,11976,11984,11993,11993,12000,12010,12024,12032,12040,12040,12048,12056,12064,12072,12088,12112,12136,12136,12384,12392,12400,12416,12416,12426,12426,12432,12432,12432,12440,12440,12440,12448,12448,12456,12456,12456,12464,12464,12464,12464,12472,12472,12472,12472,12480,12480,12480,12481,12488,12488,12488,12488,12496,12496,12496,12497,12504,12504,12504,12512,12512,12512,12512,12520,12520,12520,12520,12521,12528,12528,12528,12528,12536,12536,12536,12546,12546,12546,12552,12552,12552,12552,12562,12563,12563,12568,12568,12568,12569,12576,12576,12576,12584,12584,12584,12592,12592,12593,12593,12600,12600,12600,12609,12609,12609,12609,12616,12616,12616,12616,12626,12626,12632,12632,12632,12641,12641,12641,12641,12648,12648,12649,12656,12656,12656,12664,12664,12665,12672,12672,12672,12680,12680,12681,12688,12688,12688,12696,12696,12696,12697,12704,12704,12704,12705,12705,12712,12713,12713,12713,12720,12720,12720,12721,12721,12729,12730,12730,12736,12736,12736,12746,12746,12747,12747,12752,12752,12752,12762,12763,12763,12763,12763,12768,12768,12768,12769,12779,12780,12780,12782,12782,12784,12785,12793,12793,12793,12800,12800,12800,12801,12808,12809,12816,12816,12825,12826,12826,12832,12833,12833,12842,12856,13376,13400,13416,13424,13432,13432,13441,13448,13458,13472,13481,13488,13496,13520,13520,13536,13544,13568,13814,13920,14016,14032,14040,14048,14048,14057,14064,14074,14074,14080,14081,14088,14088,14096,14104,14112,14120,14120,14128,14136,14144,14160,14160,14168,14178,14194,14211,14211,14216,14224,14241,14248,14248,14257,14273,14288,14297,14297,14320,14328,14328,14344,14376,14384,14495" d="m121.01137,190.09091c1.2215,-0.87849 2.19855,-0.80209 2.91734,-1.284c0.65915,-0.44193 1.31925,-0.60086 2.19866,-1.00134c0.69371,-0.31592 1.59097,-0.93295 2.17416,-1.41466c0.73572,-0.60768 0.96892,-1.52362 1.51117,-2.10001c0.66766,-0.70967 1.57547,-1.04918 2.18401,-1.636c0.69221,-0.66753 1.22218,-1.13042 1.99316,-1.66383c0.73964,-0.51173 1.53592,-0.7473 2.42149,-0.91083c0.83302,-0.15382 1.47218,-0.81151 2.25267,-1.28934c0.68365,-0.41855 1.60332,-0.98575 2.146,-1.5c0.71925,-0.68158 1.30147,-1.3002 1.83734,-1.836c0.6853,-0.6852 1.32127,-1.39726 1.88,-1.79466c0.90323,-0.64244 1.77106,-0.95029 2.36932,-1.37067c0.74678,-0.52472 1.45291,-0.87109 2.48933,-1.17334c0.93904,-0.27385 1.78635,-0.36031 2.38251,-1.1255c0.52237,-0.67049 0.52654,-1.60364 1.0045,-2.24716c0.62834,-0.84601 1.43741,-1.20544 2.217,-1.75267c0.66905,-0.46964 1.51172,-1.08914 2.196,-1.5c0.8118,-0.48743 1.44975,-1.03693 2.14667,-1.72116c0.50334,-0.49417 1.14598,-1.20258 2.032,-1.60683c0.7016,-0.3201 0.93184,-1.10054 1.81334,-1.73868c0.58058,-0.4203 1.69009,-0.64319 2.20799,-1.18399c0.53458,-0.55823 1.30214,-0.98386 2.02983,-1.25467c1.02876,-0.38284 1.61205,-0.90291 2.11017,-1.49733c0.7908,-0.94371 1.01123,-1.60475 1.58549,-2.37584c0.48534,-0.65169 1.39021,-1.21066 2.07451,-1.62151c0.81161,-0.48727 1.3744,-1.04367 2.12534,-1.6955c0.66664,-0.57866 1.55484,-0.71341 2.3,-1.31517c0.6543,-0.52838 1.12421,-1.27739 1.89999,-1.8685c0.73419,-0.55942 1.34921,-0.88882 1.5045,-1.82083c0.13623,-0.81764 0.69887,-1.40112 1.39549,-2.09999c0.69872,-0.70097 1.23341,-1.26392 2.03601,-1.61067c0.85455,-0.36919 1.62466,-0.93755 2.04317,-1.48933c0.56151,-0.74034 0.97272,-1.588 1.54166,-2.02083c0.82603,-0.62843 1.32716,-1.31483 1.77783,-1.99518c0.57071,-0.86156 0.93719,-1.64296 1.36801,-2.48399c0.3403,-0.66434 1.0278,-1.47226 1.83333,-1.83333c0.81613,-0.36581 1.53983,-0.66911 2.09984,-1.26668c0.63708,-0.67979 0.88943,-1.5 0.90016,-2.39999c0.0106,-0.88934 0.62798,-1.48792 1.02533,-2.11066c0.47861,-0.75009 1.17664,-1.41075 1.61751,-2.08934c0.51479,-0.79234 1.06165,-1.29774 1.92116,-1.3c1.00667,-0.00264 1.65733,0 2.636,0c0.8,0 1.8,0 2.61067,0c0.87466,0 1.87334,0 2.68933,0c0.81599,0 1.81467,0 2.68933,0c1.011,0 1.85234,0 2.58133,0c0.87234,0 1.90134,0 2.65067,0c0.78134,0 1.9785,0 2.77417,0c0.78368,0 1.54733,0 2.63783,0c1.01401,0 1.66667,0 2.65067,0c1.03734,0 1.76868,0 2.51601,0c0.74733,0 2.1785,0 2.84283,0c0.9465,0 1.55583,0 2.7585,0c0.60933,0 1.55583,0 2.56534,0c1.0905,0 1.85416,0 2.63783,0c1.1955,0 1.99416,0 2.78482,0c0.77467,0 1.52534,0 2.58934,0c0.996,0 1.64667,0.00031 2.30533,0c1.39867,-0.00067 2.13184,0.01215 2.85468,-0.036c1.33147,-0.08871 1.88887,-0.2588 2.87599,-0.53867c0.94911,-0.26909 1.74178,-0.38466 2.59601,-0.41467c0.59038,-0.02074 1.79066,-0.01067 2.71016,-0.01067c0.63635,0 1.64584,0 2.72733,0c0.73102,0 1.44202,0 2.70901,0c0.78149,0 1.491,0 2.46451,0c0.82498,0 1.73999,0 2.745,0c0.716,0 1.448,0 2.5235,0c0.9765,0 1.79999,0 2.758,0c0.97366,0 1.80917,0 2.43451,0c0.68933,0 1.85965,0 2.71365,0c0.862,0 1.68399,0 3.01801,0c0.66299,0 1.71899,0 2.39999,0c0.80701,0 1.98566,0 2.88568,0c0.59998,0 1.5,0 2.69867,0c0.59067,0 1.44415,0 2.47998,0c0.92133,0 1.60535,0 2.60666,0c0.83551,0 1.716,0 2.91467,0c0.60001,0 1.5,0 2.69983,0c0.59567,0 1.46417,0 2.53351,0c0.71851,0 1.67651,0 2.80966,0c0.67136,0 1.39868,0 2.16602,0c1.19098,0 1.991,0 2.79099,0c0.80002,0 1.60001,0 2.80002,0c0.79999,0 1.59998,0 2.39999,0c1.19998,0 1.99866,0 2.78934,0c0.77466,0 1.52533,0 2.92532,0c0.64932,0 1.58084,0 2.78534,0c0.60001,0 1.5,0 2.69998,0c0.60001,0 1.5,0 2.40002,0c0.90015,0 1.81067,0 2.436,0c1.33066,0 2.04932,0 2.79999,0c0.77466,0 1.56534,0 2.76367,0c0.79132,0 1.55865,0 2.62967,0c0.92783,0 1.70932,0 2.65332,0c0.99866,0 1.77567,0 2.81732,0c0.84134,0 1.64001,0 2.5625,0c0.69833,0 1.77084,0 2.77585,0c0.62,0 1.47501,0 2.7045,0c0.64651,0 1.65735,0 2.478,0c1.14584,0 1.93182,0 2.75385,0c1.05865,0 1.76367,0 2.56366,0c1.01498,0 1.96976,-0.20131 2.86032,0.00134c0.80429,0.18302 0.80133,1.19866 0.80133,2.09866c0,0.9 0,1.7 0,2.6c0,0.9 0,1.8 0,2.7c0,0.90001 0,1.79868 0,2.68401c0,0.916 0.19595,1.75044 -0.05716,2.616c-0.25665,0.87764 -0.86655,1.60143 -0.94284,2.49867c-0.06827,0.80296 -0.60898,1.30855 -1.35715,1.74416c-0.73013,0.42511 -1.67947,0.3833 -2.44284,0.77318c-0.75287,0.38454 -1.72113,0.26051 -2.68399,0.28532c-0.69131,0.01782 -1.58511,0.37944 -2.39999,0.71468c-0.90283,0.37141 -1.65735,0.31364 -2.59518,0.784c-0.74335,0.37282 -1.6221,0.45221 -2.52084,0.5c-0.80338,0.04272 -1.58194,0.61298 -2.39999,0.97467c-0.78445,0.34685 -1.5874,0.94029 -2.39999,1.024c-0.89526,0.09222 -1.71136,0.05757 -2.24167,0.50133c-0.61475,0.5144 -1.57117,0.09993 -2.51166,0.536c-0.75,0.34775 -1.34454,0.80424 -2.28,1.13068c-0.68622,0.23946 -1.46533,0.80464 -2.36667,0.83333c-0.89954,0.02863 -1.83441,0.12379 -2.44284,0.64734c-0.76093,0.65477 -1.44952,1.29051 -2.15717,1.35133c-0.8967,0.07707 -1.79999,0.00133 -2.70001,0.02216l-0.88931,0.40451" id="svg_4" stroke-width="2" stroke="#000" fill="none"/>
  <path t="15144,15248,15256,15256,15264,15273,15273,15280,15280,15289,15296,15312,15312,15320,15320,15328,15344,15352,15352,15360,15368,15376,15384,15392,15392,15408,15416,15424,15440,15448,15456,15473,15489,15496,15496,15520,15528,15568,15808,15824,15832,15840,15848,15848,15856,15864,15864,15872,15872,15872,15880,15889,15889,15896,15896,15896,15905,15905,15905,15912,15922,15928,15929,15929,15936,15936,15936,15944,15952,15952,15968" d="m353.01135,141.09091c-0.52081,1 -1.26578,1.58047 -1.71466,2.168c-0.54596,0.71461 -0.54645,1.79047 -0.85999,2.45734c-0.39261,0.8351 -0.53592,1.62277 -1.07266,2.42284c-0.45718,0.68144 -0.603,1.6846 -1.11435,2.24199c-0.60916,0.66402 -1.81747,0.52628 -2.21698,1.32051c-0.40942,0.81396 -0.21875,1.92352 -0.63202,2.528c-0.57382,0.83931 -1.36075,1.21719 -1.38934,2.16133c-0.02725,0.89958 0.15717,1.83784 -0.08533,2.5c-0.32913,0.8987 -1.45114,1.3252 -1.82932,2.116c-0.34216,0.7155 -0.0834,1.70361 -0.51068,2.48399c-0.45038,0.82256 -0.57468,1.70001 -0.57468,2.60001c0,0.8 0.34854,1.77342 0,2.564c-0.27322,0.61972 -0.93661,1.21078 -1.7045,1.4315c-0.86066,0.24738 -1.81631,0.0045 -2.77948,0.0045c-0.69067,0 -1.76334,0 -2.68268,0c-0.66934,0 -1.83459,-0.03513 -2.62265,0.01067c-0.72794,0.0423 -1.52716,0.56499 -2.53235,0.86783c-0.69611,0.20972 -1.845,0.12151 -2.63101,0.12151c-0.82199,0 -1.88065,0 -2.58566,0c-0.79999,0 -1.82565,0 -2.66299,0c-0.96533,0 -1.6506,-0.03465 -2.48532,0.08533c-1.00528,0.1445 -1.78751,0.43292 -2.54401,0.63068c-1.09073,0.28514 -1.96933,0.56799 -2.56934,1l-0.89999,0.2795" id="svg_5" stroke-width="2" stroke="#000" fill="none"/>
  <path t="16545,16624,16632,16640,16648,16656,16656,16656,16664,16672,16680,16696,16712,16728,16738,16760,16944,16968,16968,16976,16992,17000,17104" d="m332.01135,171.09091c0,0.80133 0.18613,1.7271 -0.03598,2.60001c-0.2229,0.87605 -0.99527,1.54918 -1.35333,2.22533c-0.3573,0.6747 -0.43875,1.67157 -0.62134,2.57466c-0.18997,0.93958 -0.79916,1.5798 -1.04651,2.3045c-0.2941,0.86165 -0.91425,1.59415 -0.94284,2.4955c-0.02856,0.89955 0,1.8 0,2.60001c0,0.89999 -0.05716,1.84283 -0.71597,2.284l-0.28403,0.916" id="svg_6" stroke-width="2" stroke="#000" fill="none"/>
  <path t="18464,18583,18591,18592,18602,18602,18608,18608,18615,18616,18616,18619,18619,18623,18631,18632,18640,18640,18640,18648,18648,18656,18656,18664,18664,18664,18672,18672,18673,18680,18680,18680,18689,18689,18696,18696,18696,18705,18705,18712,18712,18722,18722,18728,18728,18740,18740,18744,18744,18752,18752,18760,18760,18768,18776,18776,18785,18785,18792,18801,18801,18801,18808,18808,18815,18816,18816,18824,18824,18824,18832,18832,18840,18840,18848,18848,18855,18856,18856,18863,18864,18872,18872,18880,18889,18896,18896,18905,18912,18912,18923,18923,18928,18928,18938,18939,18944,18944,18955,18955,18960,18968,18985,18985,18992,19008,19008,19016,19016,19024,19032,19040,19040,19056,19079,19089,19089,19643,19807,19816,19833,19848,19848,19856,19871,19872,19880,19888,19888,19896,19903,19903,19912,19912,19919,19928,19935,19944,19944,19951,19960,19960,19967,19968,19976,19984,19984,19992,20000,20008,20008,20017,20017,20024,20024,20024,20033,20034,20040,20048,20048,20056,20056,20056,20064,20064,20072,20079,20088,20088,20095,20104,20112,20112,20121,20128,20128,20143,20144,20159,20175,20176,20191,20200,20208,20208,20223,20224,20233,20233,20240,20248,20248,20256,20271,20272,20288,20288,20304,20311,20320,20328,20335,20336,20344,20351,20360,20367,20375,20383,20384,20391,20407,20408,20416,20424,20447,20463,20472,20488,20504,20520,20520,20528,20528,20537,20543,20556,20576,20589,20592,20593,20600,20608,20616,20617,20624,20625,20633,20633,20640,20640,20650,20650,20650,20657,20657,20657,20664,20664,20664,20674,20674,20678,20678,20679,20690,20696,20706,20735,20751,20760,20783,20799,20800,20810,20810,20816,20816,20824,20824,20833,20840,20840,20849,20856,20856,20864,20879,20880,20903,20913,20938,20939,20944,20959,20976,20989,21399,21455,21480,21490,21490,21496,21511,21522,21528,21538,21555,21555,21706,21831,21841,21856,21865,21865,21872,21888,21903,21921,21938,21944,21944,21959,21970,21986,22004,22018,22024,22040,22071,22295,22311,22321,22328,22338,22344,22354,22360,22360,22370,22370,22376,22391,22404,22408,22421,22424,22424,22434,22434,22440,22449,22449,22450,22456,22464,22464,22472,22473,22481,22497,22498" d="m119.01137,224.09091c1.2215,0.87883 2.02689,1.31456 2.5,2.02083c0.53096,0.79262 0.99473,1.46349 1.60017,2.07933c0.53125,0.54039 1.20666,1.23663 1.92067,1.89984c0.56907,0.52858 1.36188,1.13857 2.10716,1.55333c0.83527,0.46484 1.20167,1.18044 1.63367,1.85567c0.52213,0.8161 1.05664,1.38704 1.58566,1.93384c0.75742,0.78288 1.37201,1.39394 1.854,2.1425c0.45778,0.71095 0.93721,1.53899 1.45583,2.11017c0.71045,0.78247 1.55313,1.36856 2.13217,1.78983c0.56406,0.41037 1.34392,1.3737 1.68983,2.11467c0.33786,0.72369 0.6801,1.56534 1.278,2.24817c0.68134,0.77812 1.24283,1.25183 1.75883,1.76784c0.73132,0.73132 1.368,1.368 1.96799,1.96799c0.69067,0.69067 1.34933,1.34933 1.88,1.88c0.73601,0.73601 1.31511,1.3578 1.94051,1.936c0.56274,0.52028 1.39186,0.94365 2.04283,1.45717c0.8298,0.65459 1.19472,1.44955 1.75267,2.22131c0.46248,0.63971 1.2,1.3215 1.89999,2.02151c0.5,0.5 1.20267,1.19736 1.8,1.79999c0.60269,0.60803 1.18541,1.37601 1.61066,2.02533c0.45915,0.70108 1.25891,1.39972 1.76401,1.80002c0.83348,0.66058 1.30814,1.40726 1.70934,1.97598c0.57582,0.81628 1.13937,1.37933 1.632,1.99869c0.76894,0.96674 1.02116,1.6485 1.80533,2.37848c0.61728,0.57465 1.5406,0.98685 2.17867,1.54236c0.70004,0.6095 1.19582,1.09067 1.79016,1.82648c0.59047,0.73102 0.73329,1.5611 1.14584,2.478c0.3206,0.71252 1.05963,1.47818 1.44266,2.27469c0.40952,0.85159 0.86722,1.26871 1.60051,1.92084c0.62436,0.55524 0.51347,1.42111 1.22617,2.2265c0.51445,0.58136 1.08675,1.24731 1.34283,2.09998c0.27292,0.90869 0.82452,1.47339 1.60449,1.95267c0.68298,0.41968 1.60721,0.98169 2.146,1.5c0.70357,0.67685 0.9223,1.58542 1.36801,2.36667c0.37691,0.66064 1.35435,1.18079 1.66666,2c0.30273,0.7941 0.41504,1.79697 0.74133,2.42267c0.46475,0.8912 0.88727,1.64706 1.25867,2.41068c0.36667,0.75391 0.74178,1.63724 1.36667,2.19867c0.75963,0.6825 1.0881,1.18536 1.8,1.74417c0.55598,0.43643 1.60001,0.05716 2.52083,0.05716c0.96317,0 1.65384,0 2.7175,0c0.92834,0 1.64835,0 2.58701,0c1.008,0 1.87016,0 2.6955,0c0.96451,0 1.68983,0 2.679,0c0.77934,0 1.7785,0 2.7475,0c0.81435,0 1.70534,0 2.56868,0c0.85866,0 1.80533,0 2.65866,0c0.94133,0 1.70934,0 2.65067,0c1.008,0 1.87016,0 2.67467,0c0.91066,0 1.8215,0 2.71066,0c0.98933,0 1.78934,0 2.78934,0c0.8,0 1.60001,0 2.5955,0c0.74733,0 1.77916,0 2.726,0c0.69933,0 1.6785,0 2.4785,0c0.8,0 1.7955,0 2.71466,0c0.96451,0 1.79008,-0.02222 2.8065,0.00015c0.8181,0.01801 1.3764,0.61417 2.1255,0.96384c0.79324,0.37027 1.728,0.03601 2.668,0.03601c0.98549,0 1.77066,0 2.71066,0c0.69067,0 1.8,0 2.65733,0c0.8075,0 1.80267,0 2.71867,0c0.96533,0 1.62399,0 2.63199,0c0.79201,0 1.81934,0 2.51401,0c1.02733,0 1.97383,0 2.79134,0c0.944,0 1.86133,0 2.6185,0c0.89549,0 1.75883,0 2.722,0c0.92084,0 1.82083,0 2.72217,0c0.96533,0 1.61331,0 2.62933,0c0.87384,0 1.76932,0 2.66931,0c0.91068,0 1.82135,0 2.5,0c1.11469,0 2,0 2.80002,0c0.89999,0 1.73062,0.03268 2.22083,0.5c0.55472,0.52881 1.47916,0.5 2.37918,0.5c0.90448,0 1.92133,-0.00006 2.59998,0c0.97852,0.00009 1.77628,0.12405 2.60001,0.57468c0.78055,0.427 1.6955,0.42532 2.62152,0.42532c0.87848,0 1.77847,0 2.57849,0c0.89999,0 1.836,0 2.68533,0c0.91916,0 1.91467,0 2.71466,0c0.99985,0 1.77939,-0.01855 2.63333,0c0.82858,0.01801 1.70923,0.22235 2.42801,0.42532c0.79019,0.22311 1.8168,0.4574 2.73865,0.57468c0.68365,0.08698 1.68402,0.284 2.5,0.5c0.81601,0.216 1.8125,0.44733 2.68936,0.48932c1.00922,0.04834 1.76898,0.01068 2.83148,0.01068c0.78052,0 1.67917,0 2.57916,0c0.89999,0 1.80002,0 2.6955,0c0.92618,0 1.87119,0 2.7045,0c0.83334,0 1.75269,0 2.6572,0c0.74731,0 1.74149,0 2.50681,0c1.07886,0 1.93619,0 2.72134,0c0.94,0 1.948,0 2.70401,0c0.93149,0 1.89465,0 2.58533,0c1.06818,0 1.92532,0 2.82532,0c0.80002,0 1.70001,0 2.60001,0c0.89999,0 1.80002,0 2.70001,0c0.89999,0 1.79999,0 2.69998,0c0.80002,0 1.70001,0 2.60001,0c0.89999,0 1.84454,-0.09546 2.60001,0.284c0.86719,0.43561 1.75507,1.22552 2.51468,0.716c0.54776,-0.36743 -0.3327,-1.31036 -0.62933,-2.20001c-0.28595,-0.85764 -0.20963,-1.57742 -0.66,-2.39999c-0.42728,-0.7804 -0.42535,-1.69998 -0.42535,-2.60001c0,-0.89999 0,-1.79999 0,-2.59998c0,-0.90002 0,-1.80002 0,-2.70001c0,-0.89999 0,-1.79999 0,-2.70001c0,-0.89981 0.17917,-1.86682 -0.08533,-2.60132c-0.32388,-0.89941 -0.9491,-1.61688 -1.79333,-2.07718c-0.74185,-0.40445 -1.56995,-0.72394 -2.32266,-1.03751c-0.92065,-0.38351 -1.59122,-0.60214 -2.63199,-0.91733c-0.7388,-0.22375 -1.70142,-0.11374 -2.46667,-0.51932c-0.84589,-0.4483 -1.71423,-0.49411 -2.53333,-0.64734c-0.77591,-0.14514 -1.53665,-0.67755 -2.28134,-1.19867c-0.702,-0.49121 -1.55728,-0.79599 -2.42801,-0.80133c-0.95731,-0.00586 -1.68933,0 -2.64749,0c-0.9765,0 -1.86252,0.15341 -2.78833,-0.2215c-0.67133,-0.27185 -1.3215,-1.07401 -2.02151,-1.61185l-0.79999,-0.16531" id="svg_7" stroke-width="2" stroke="#000" fill="none"/>
  <path t="23032,23200,23200,23448,23455,23472,23480,23488,23496,23504,23504,23512,23512,23512,23520,23520,23529,23536,23536,23544,23544,23552,23552,23552,23560,23560,23568,23568,23575,23584,23600,23608,23765,23775,23784,23791,23791,23800,23808,23808,23815,23816,23824,23824,23831,23832,23832,23840,23840,23840,23847,23848,23856,23856,23863,23864,23880,23880" d="m332.01135,283.09091c1,0 1.97955,0.46558 2.71469,-0.08533c0.61639,-0.46191 0.2944,-1.74808 0.28531,-2.52533c-0.01041,-0.88953 -0.54861,-1.72348 -0.87866,-2.48969c-0.29074,-0.67493 -0.38672,-1.67438 -0.64215,-2.39966c-0.26041,-0.73938 -0.87753,-1.63751 -1.19385,-2.38266c-0.38101,-0.89758 -0.19205,-1.96048 -0.32132,-2.74268c-0.146,-0.88342 -0.57944,-1.58298 -1.06384,-2.57468c-0.29239,-0.59857 -0.69476,-1.38507 -0.84299,-2.39999c-0.11588,-0.7933 -0.05719,-1.79868 -0.05719,-2.564c0,-1.07434 0.09024,-1.92447 0,-2.836c-0.08374,-0.8457 -0.54718,-1.56131 -1.16666,-2c-0.76169,-0.5394 -1.83334,0 -2.63333,0c-0.836,0 -1.68533,0 -2.60449,0c-0.99551,0 -1.79559,0.01285 -2.7955,-0.00015c-0.80023,-0.01041 -1.80328,-0.15619 -2.40451,-0.35251c-0.85757,-0.28003 -1.81439,-0.55307 -2.62082,-0.61133c-0.8205,-0.0593 -1.853,-0.03601 -2.733,-0.03601c-1.02032,0 -1.79434,0 -2.69885,0l-0.74731,0l-0.99417,0l-0.94415,0" id="svg_8" stroke-width="2" stroke="#000" fill="none"/>
  <path t="24312,24391,24400,24407,24415,24415,24424,24432,24440,24455,24471,24487,24511,24512,24520,24551,24575,24591,24591,24600,24608,24616,24616,24624,24639,24647,24656,24656,24664,24682,24688,24703,24719,24735,24736,24745,24783,24792,24807,24816,24831,24855,24864,24880,24896" d="m317.01135,256.09091c1.70001,-1.05267 2.50833,-1.48555 3.30002,-1.95183c0.80862,-0.47624 0.8031,-1.39391 1.68533,-1.97617c0.72549,-0.47882 1.45438,-0.49957 2.23618,-0.9505c0.7681,-0.44304 1.59192,-0.45306 1.99982,-1.22151c0.345,-0.64995 0.77332,-1.49995 0.77866,-2.39999c0.0054,-0.91066 0.00061,-1.82133 0,-2.67467c-0.00067,-0.93866 -0.48141,-1.58112 -0.87866,-2.26801c-0.43533,-0.75276 -0.7464,-1.37273 -1.41681,-1.91449c-0.73447,-0.59352 -0.53098,-1.68109 -0.78986,-2.44284c-0.30176,-0.88791 -0.89667,-1.59946 -0.91467,-2.5c-0.01801,-0.89981 0.18137,-1.85347 -0.16666,-2.7c-0.27588,-0.67108 -0.53894,-1.53151 -0.83783,-2.35266c-0.27322,-0.75061 -0.76248,-1.11681 -1,-1.94284c-0.22079,-0.76787 -0.97467,-1.22533 -1.01633,-2.18367l-0.55383,-0.54616l-0.42084,-0.67917" id="svg_9" stroke-width="2" stroke="#000" fill="none"/>
  <path t="27288,27408,27416,27426,27432,27442,27442,27448,27449,27456,27456,27464,27465,27472,27472,27481,27481,27488,27488,27488,27497,27497,27497,27504,27504,27512,27512,27512,27520,27520,27520,27528,27529,27539,27539,27552" d="m62.01137,209.09091c1.8,0 2.7,0 3.6,0c0.81067,0 1.72134,0 2.57467,0c0.94133,0 1.70934,0 2.66133,0c0.76534,0 1.764,0 2.564,0c1,0 1.8,0 2.80016,0c0.82067,0 1.9665,0 2.7525,0c0.822,0 1.88067,0 2.59016,0c0.85267,0 1.8585,0 2.69317,0c0.93066,0 1.71667,0 2.53867,0c1.05867,0 1.76817,0 2.62083,0c1.00183,0 1.89017,0 2.93784,0l0.66666,0l1.036,0" id="svg_10" stroke-width="2" stroke="#000" fill="none"/>
 </g>
 <g display="none">
  <title>muse_image</title>
  <image xlink:href="http://farm1.static.flickr.com/32/64831538_31889a4190.jpg" id="muse" height="426" width="640" y="27" x="0"/>
 </g>
 <g display="none">
  <title>bbox</title>
  <rect stroke="#f00" fill="none" stroke-width="3" height="93.38739" width="217.6" y="186.90991" x="32" id="bbox"/>
 </g>
</svg>
