<svg width="640" height="480" xmlns="http://www.w3.org/2000/svg" xmlns:svg="http://www.w3.org/2000/svg" xmlns:xlink="http://www.w3.org/1999/xlink">
 <!-- Sketchy ANNOTATION
  ImageNet ID: n02691156_9491
  URL: http://farm1.static.flickr.com/92/232444751_a428324572.jpg
  Image Width: 500
  Image Height: 369
  BBox X: 23
  BBox Y: 88
  BBox Width: 337
  BBox Height: 205
  Exposure: 2000ms
  Synset Label: airplane
  Synset ID: n02691156
  Worker Tag: an airplane flying
  Sanity Check: 
   Saved
  Comment: 
   {}
  Worker ID: AKDCGQKFLU04S
  Assignment ID: 34X6J5FLPTY02K09V27KM9I1O0SJQY
  HIT ID: 3MNJFORX8B4THCXL2INUKG0WTLLF55
  Work Time: 3015s
  Worker Score: 0.7857
 END ANNOTATION -->
 <g display="inline">
  <title>Layer 1</title>
  <path t="0,429,430,430,430,464,464,464,464,491,491,491,491,526,533,533,560,560,560,560,560,597,597,597,661,662,685,686,717,717,746,746,782,782,782,782,789,789,790,790,790,816,816,856,856,891,891,891,891,1021,1021,1021" d="m121.5,105.5c0.28533,3.88533 0.43024,4.63732 0.61066,5.41067c0.18478,0.79206 0.4879,1.98952 0.68934,2.78484c0.19859,0.78402 0.39111,1.54982 0.7,2.63783c0.19313,0.68026 0.49138,1.60063 0.64283,2.14783c0.33141,1.19739 0.54627,2.00483 1.00384,2.76284c0.54733,0.90672 0.84468,1.58967 1.168,2.368c0.16906,0.40697 0.52086,1.22066 0.852,2.388c0.25944,0.91457 0.2545,1.8824 0.69051,2.74733c0.34943,0.69321 0.95243,1.40477 1.34283,2.15717c0.40999,0.79015 0.83934,1.55267 1.17883,2.57434c0.22278,0.67043 0.56129,1.56615 0.99316,2.3145c0.34703,0.60133 0.75562,1.26759 1.32767,2.44901c0.40939,0.84549 0.58913,1.28288 0.92834,2.13499c0.31065,0.78035 0.68498,1.98734 0.88666,2.716c0.24899,0.89961 0.61424,1.64583 0.98534,2.57333c0.31564,0.78893 0.5,1.375 0.8,2.31999l0.29984,1.03383l0.19566,0.70967l0.26849,0.96451" id="svg_1" stroke-width="2" stroke="#000" fill="none"/>
  <path t="1838,2069,2069,2117,2117,2150,2176,2177,2197,2198,2224,2224,2260,2260,2295,2329,2329,2370,2370,2370,2370,2429,2430,2432,2433,2477,2525,3069,3118,3142,3167,3201,3235,3236,3250,3251,3251,3290,3290,3293,3341,3341,3363,3363,3380,3403,3404,3438,3473,3473,3473,3473,3526,3527,3527,3560,3560,3560,3560,3560,3561,3561,3561,3602,3602,3602,3602,3602,3602,3605,3605,3605,3641,3641,3676,3677,3679,3679,3761,3794,3805,3863,3886,3989,3989,3989,4317,4317" d="m123.5,104.5c1,-0.83334 1.59599,-0.30014 2.484,-0.08533c0.8428,0.20387 1.78487,-0.00379 2.68267,0.252c0.86317,0.24593 1.67236,0.64449 2.45866,0.85867c0.86563,0.23578 1.57796,0.54189 2.48933,1.17334c0.60103,0.41642 1.43105,0.72796 2.37199,1.088c0.78543,0.30053 1.67973,0.88045 2.19734,1.196c0.81557,0.4972 1.32182,0.9129 2.39433,1.27434c0.85545,0.28829 1.90016,0.243 2.61716,0.243c0.90451,0 1.8045,-0.00226 2.7045,0c0.89552,0.00225 1.54361,0.57377 2.21068,1.02533c0.73682,0.49878 1.4895,1.07484 2.02533,1.61067c0.68533,0.68533 1.18956,1.1891 1.71133,1.71133c0.76633,0.767 1.3909,1.44247 1.67799,2.28867c0.28497,0.83994 0.51622,1.58572 1.17467,2.47867c0.45483,0.61684 1.20935,1.27612 1.8,1.88533c0.57321,0.59121 0.92091,1.44859 1.33333,2.33334c0.3271,0.70172 0.85704,1.44889 1.18401,1.984c0.61079,0.99962 1.02715,1.7854 1.34967,2.42116c0.63855,1.2587 0.89716,1.78984 1.18633,2.36818c0.30917,0.61833 0.63333,1.26666 0.9675,1.935c0.33917,0.67833 0.67813,1.35677 1.64584,3.29166c0.29027,0.58037 0.55743,1.12535 1.06133,2.10133c0.22797,0.44156 0.62343,1.25824 1.272,2.23201c0.55785,0.83755 1.21771,1.41458 1.66667,2.16666c0.44342,0.7428 0.57825,1.67119 0.944,2.34134c0.53117,0.97324 1.19684,1.47395 1.37866,2.42534c0.16896,0.88406 0.01001,1.79999 0.01067,2.7c0.00067,0.90134 0.16667,1.86667 0.436,2.536l0.36533,0.76534l0.396,0.79466l0.38834,0.8325" id="svg_2" stroke-width="2" stroke="#000" fill="none"/>
  <path t="5702,7053,7181,7181,7261,7261,7300,7517,7693,7749,7749,7773,7773,7799,7799,7799,7799,7847,7847,7847,7869,7869,7869,7869,7869,7931,7931,7973,7973,7973,7997,7997,7997,8029,8029,8029,8101,8101,8101,8125,8125,8157,8157,8182,8229,8229,8316,8316,8357,8357" d="m135.5,149.5c-1.58566,-0.64734 -1,-1 -0.24283,-1c0.89549,0 1.75885,-0.00571 2.722,0c0.89954,0.00534 0.86143,0.79218 1.52083,1c0.72421,0.22826 1.67065,0.34392 2.24667,0.64667c0.93546,0.49165 1.70126,1.01775 2.27415,1.3325c0.86723,0.47649 1.77507,0.79971 2.68983,0.97017c0.62277,0.11604 1.9628,0.36421 2.67067,0.61865c0.73024,0.26248 1.41464,0.59709 2.064,0.86401c1.18515,0.48718 1.91527,0.60312 2.81883,0.78932c0.92534,0.19069 1.58983,0.38577 2.90251,0.612c0.56044,0.09659 1.52931,0.11694 2.53349,0.38817c0.62471,0.16873 1.48009,0.5928 2.48384,0.9785c0.53868,0.20699 1.37053,0.48192 2.39433,0.89984c0.67998,0.27757 1.74449,0.79813 2.511,0.8895c0.92546,0.11032 1.72658,0.24538 2.58533,0.58533c0.79915,0.31636 1.70934,0.42401 2.65067,0.42534l0.69067,0" id="svg_3" stroke-width="2" stroke="#000" fill="none"/>
  <path t="10389,10668,10694,10694,10694,10725,10725,10725,10741,10741,10741,10741,10766,10766,10801,10801,10845,10845,10845,10845,10870,10870,10903,10903,10954,10954,10973,10973,10998,11048,11059,11059,11060,11103,11103,11139,11175,11230,11533,11533,11564,11565,11589,11589,11589,11624,11625,11637,11637,11637,11661,11661,11736,11736,11749,11749,11765,11765,11792,11821,11821,11917,11917,11917,11917,12100,12101,12124,12125,12157,12157,12191,12192,12230,12230,12286,12287,12287,12287,12287,12332,12332,12332,12332,12332,12332,12356,12356,12357,12357,12892,12997,13068,13124,13172,13173,13196,13197,13221,13262,13278,13313,13313,13313,13313,13328,13329,13329,13330,13354,13354,13354,13401,13401,13401,13405,13406,13406,13434,13434,13434,13434,13473,13473,13474,13474,13474,13477,13478,13478,13478,13478,13508,13509,13509,13543,13577,13577,13581,13581,13581,13610,13610,13660,13687" d="m158.5,173.5c0.64667,-1.636 1.3215,-2.3215 1.836,-2.836c0.5685,-0.5685 1.36417,-1.36417 1.97467,-1.97467c0.42532,-0.42532 1.35406,-1.35796 1.87199,-1.87067c0.53001,-0.52467 0.99422,-1.09947 1.98401,-1.81866c0.62637,-0.45512 1.54109,-0.78328 2.20483,-1.31883c0.63213,-0.51004 1.48166,-1.18855 2.12849,-1.66034c0.6373,-0.46483 1.51154,-0.99944 2.29201,-1.43416c0.71916,-0.40057 1.07884,-1.21005 1.808,-1.84401c0.61244,-0.53249 1.20775,-1.16904 1.7,-1.67467c0.69038,-0.70914 1.58778,-1.03603 2.36667,-1.56799c0.64096,-0.43777 1.40735,-0.83398 2.07616,-1.64816c0.49861,-0.60699 1.26651,-1.18631 1.75717,-1.87267c0.49609,-0.69395 1.18153,-1.21045 1.8,-1.6485c0.75894,-0.53754 1.12514,-1.41402 1.968,-1.94667c0.69876,-0.44159 1.5316,-0.68724 2.26266,-1.368c0.50034,-0.46591 1.10623,-1.38858 1.79466,-1.88c0.6642,-0.47414 1.43521,-0.92633 2.05867,-1.52133c0.78572,-0.74986 1.29066,-1.28934 1.94933,-1.948c0.64584,-0.64584 1.18483,-1.3737 1.86667,-1.80951c0.82399,-0.52666 1.6221,-0.70934 2.27068,-1.32916c0.58421,-0.55832 1.28477,-1.28494 1.81467,-1.77733c0.52621,-0.48897 1.47519,-1.38242 2.17299,-1.66734c0.97052,-0.39629 1.77286,0.14449 2.69434,0.364c0.68349,0.16283 1.58646,0.42184 2.23134,0.854c0.7726,0.51775 1.63489,0.95572 2.44933,1.36534c0.63872,0.32124 1.35585,0.679 2.12401,1.116c0.83797,0.47672 1.71692,1.03986 2.62399,1.68533c0.46631,0.33182 0.92809,0.67575 1.82133,1.38133c0.43298,0.34201 1.60045,1.31378 2.24001,1.87733c0.54132,0.47701 1.35527,0.85544 2.09117,1.6635c0.41119,0.45151 -0.72252,0.73248 -1.17668,1.4715c-0.42255,0.68758 -0.05716,1.63834 -0.05716,2.61684c0,0.82016 0.00974,1.72154 0,2.62151c-0.01042,0.96266 -0.16507,1.90034 -0.35266,2.767c-0.14609,0.67494 -0.32628,1.38434 -0.48067,2.46632c-0.14351,1.00574 -0.13907,1.64879 -0.25067,2.56534c-0.11018,0.90489 -0.3562,1.78694 -0.56334,2.64417c-0.24928,1.03165 -0.29231,1.73674 -0.43666,2.64117c-0.16115,1.00963 -0.43164,1.85416 -0.56334,2.47766c-0.21121,1 -0.27248,1.72339 -0.35266,2.85916c-0.05531,0.78349 -0.15186,1.98151 -0.28534,2.7805c-0.13565,0.812 -0.23308,1.22003 -0.41916,2.05583c-0.29173,1.31035 -0.49609,2.22377 -0.591,2.68651c-0.18745,0.91389 -0.37296,1.78543 -0.53783,2.95633c-0.12973,0.92137 -0.16133,1.63196 -0.16667,2.74283c-0.00412,0.85748 0,1.5715 0,2.5265c0,0.7515 0,1.548 0,2.769l0,0.8l0,0.9045l-0.00133,0.95717" id="svg_4" stroke-width="2" stroke="#000" fill="none"/>
  <path t="20437,20564,20564,20591,20591,20629,20692,20692,20765" d="m212.5,188.5c0,1.836 0,2.60133 0,3.5955c0,0.91916 0,1.9045 0,2.72583l0,0.85333l0,0.94" id="svg_5" stroke-width="2" stroke="#000" fill="none"/>
  <path t="22558,22708,22709,22709,22732,22732,22732,22732,22769,22802,22837,22837,23020,23020" d="m214.5,191.5c-1.89017,2.01883 -2.00647,2.85826 -2.08267,3.48801c-0.12521,1.0347 -0.26477,1.75676 -0.49199,2.81467c-0.13817,0.64334 -0.39674,1.82455 -0.42534,2.79733c-0.02644,0.89961 0,1.71432 0.00133,2.664l0.0195,0.67349" id="svg_6" stroke-width="2" stroke="#000" fill="none"/>
  <path t="23757,24012,24012,24036,24075,24075,24109,24109,24109,24150,24150,24150,24150,24187,24188,24188,24188,24188,24188,24188,24218,24218,24218,24218,24218,24218,24218,24220,24221,24221,24221,24221,24221,24252,24253,24253,24253,24316,24316,24316,24316,24316,24316,24345,24345,24345,24346,24346,24346,24346,24346,24346,24349,24349,24349,24349,24349,24349,24349,24349,24349,24380,24380,24380,24380,24380,24380,24397,24397,24397,24432,24432,24432,24432,24432,24455,24455,24455,24455,24455,24456,24504,24504,24504,24504,24504,24545,24545,24545,24545,24545,24545,24545,24548,24548,24548,24549,24549,24574,24574,24574,24574,24574,24588,24588,24588,24612,24612,24612,24613,24658,24658,24658,24658,24661,24661,24698,24698,24735,24783,24783,24844,24844,24844,24917,24917,25100,25172,25172" d="m213.5,195.5c0.5,0 -0.46359,-0.19524 -0.828,-1.19867c-0.2476,-0.68178 0.8,-0.80066 1.84683,-0.80133c0.8385,-0.00053 1.46918,-0.00291 2.50317,0.00017c0.74867,0.00223 1.562,0.00681 2.45399,0.05699c1.52551,0.08583 2.08882,0.15887 2.67734,0.22951c1.23482,0.14821 1.86832,0.25015 2.50667,0.36c0.64001,0.11014 2.50826,0.51405 3.09717,0.67467c0.57512,0.15686 1.68163,0.50357 2.222,0.67867c1.06927,0.34648 1.59773,0.53641 2.6875,0.83333c1.10918,0.30222 1.67592,0.41466 2.79166,0.64584c0.54382,0.11269 1.07903,0.19608 2.54167,0.52083c0.84802,0.18829 1.60344,0.39729 2.304,0.60001c1.3642,0.39474 2.09129,0.6053 2.91733,0.82133c0.46579,0.12183 1.54044,0.3933 2.16267,0.54933c1.44914,0.36339 2.28722,0.57195 3.192,0.79866c0.95889,0.24026 1.9588,0.49144 2.9865,0.7515c1.04298,0.26393 2.08809,0.52934 3.12151,0.79651c1.98347,0.51279 2.90819,0.7596 3.78398,0.996c0.82855,0.22366 1.60971,0.43872 2.34451,0.64499c0.69049,0.19382 1.33679,0.3784 1.93951,0.55501c1.08218,0.31711 1.56219,0.46397 2.00531,0.60133c0.40985,0.12706 0.79169,0.23854 1.46402,0.47467c1.11844,0.39281 1.83426,0.70718 2.53998,1.04666c1.07794,0.51854 1.70929,0.85214 2.42136,1.2c0.77316,0.37772 1.17828,0.58003 2.48398,1.164c0.91245,0.40808 1.38245,0.59781 2.3125,1c0.45996,0.19891 1.36432,0.57451 2.57852,1.20016c0.75427,0.38867 1.48282,0.82271 1.86499,1.03583c0.8136,0.4537 1.74057,0.93779 2.81332,1.44801c0.57288,0.27248 1.1655,0.54097 1.76401,0.81599c1.18964,0.54665 1.77148,0.80083 2.83334,1.33333c0.93341,0.46809 1.73505,0.92778 2.45999,1.356c0.68829,0.40659 1.72479,1.01648 2.45932,1.40617c0.37109,0.19687 1.11584,0.58182 1.86334,0.91916c1.3877,0.62627 2.05304,0.84778 2.67334,1.11067c1.22104,0.51749 1.8121,0.85616 2.41068,1.2c0.90216,0.51823 1.79358,1.02209 2.39865,1.28934c0.8717,0.38501 1.72195,0.66943 2.71466,1.084c0.64905,0.27104 1.65948,0.72256 2.38217,0.79683c0.93643,0.09622 1.79608,0.27623 2.51517,0.61517c0.99838,0.4706 1.5892,0.7896 2.38934,1.18933c0.79855,0.39894 1.564,0.76399 2.51465,1.116l0.88535,0.25067l0.70001,0.48067" id="svg_7" stroke-width="2" stroke="#000" fill="none"/>
  <path t="27885,28012,28036,28037,28037,28037,28037,28037,28060,28060,28060,28061,28061,28140,28140,28140,28164,28164,28420,28446,28468,28468,28468,28500,28500,28565,28574,28628,28679,28679,28724,28756,28756,28786,28852,28932,28932,28980,29012,29060,29085,29085,29108,29108,29108,29108,29140,29140,29164,29164,29164,29197,29197,29238" d="m136.5,149.5c-1.78,0 -2.83333,0 -3.62534,0c-0.45599,0 -1.45799,0 -1.992,0c-1.10399,0 -2.21599,0 -3.29333,0c-0.51867,0 -1.506,0 -2.41333,0c-1.176,0 -2.10001,0 -2.80801,0c-0.98399,0 -1.75818,-0.09694 -2.68266,0.01067c-0.9592,0.11163 -1.18533,1.15601 -1.18533,1.82533c0,0.76534 0,1.75951 0,2.67867c0,0.96451 0.11658,1.89349 -0.0045,2.78534c-0.11151,0.82138 -0.69883,1.40115 -1.3955,2.09999c-0.69883,0.701 -1.25027,1.40288 -2.1,1.57918c-0.89173,0.18501 -1.85669,-0.13246 -2.47916,-0.5c-0.83511,-0.49309 -1.53212,-1.08743 -1.96367,-1.84084c-0.478,-0.8345 -0.06361,-1.68002 -0.05717,-2.80501c0.0045,-0.78604 -0.04787,-1.35263 0.17067,-2.14932c0.28433,-1.03651 0.96223,-1.58781 1.49599,-2.68401c0.36992,-0.7597 0.3815,-1.39999 0.61867,-2.39734l0.32533,-0.73067l0.68484,-0.76216" id="svg_8" stroke-width="2" stroke="#000" fill="none"/>
  <path t="29772,29876,29900,29900,29933,29956,29956,29957,29980,29980,29980,30028,30028,30028,30028,30028,30060,30060,30060,30085,30085,30085,30085,30119,30119,30119,30119,30212,30251,30284,30364,30388,30748,30772,30804" d="m113.5,157.5c0.88667,0.99867 1.84436,0.90787 2.516,1.08533c1.05882,0.27977 1.80626,0.94145 2.49384,1.21017c0.76436,0.29872 1.8252,0.52827 2.542,0.66083c0.71131,0.13155 1.78944,0.52969 2.4175,0.89568c0.7012,0.4086 1.39687,0.90689 2.148,1.29599c1.03705,0.5372 1.72832,0.67677 2.672,0.892c1.21451,0.27699 1.81755,0.51559 2.41066,0.82133c0.91107,0.46965 1.78888,0.99742 2.69101,1.377c0.56085,0.23599 1.41675,0.25388 2.42633,0.73634c0.77721,0.37143 1.29329,1.01999 2.18266,1.02533c0.89998,0.0054 1.7955,0.0045 2.47467,0.42534l0.54616,0.55383" id="svg_9" stroke-width="2" stroke="#000" fill="none"/>
  <path t="33182,33276,33313,33313,33314,33342,33342,33342,33342,33342,33377,33377,33377,33377,33377,33377,33377,33411,33411,33411,33412,33445,33445,33445,33445,33480,33481,33612,33612,33740,33740" d="m113.5,158.5c1.75716,1.05267 2.49107,1.28268 3.31866,1.64667c0.53981,0.23741 1.54597,0.67509 2.35734,1.015c0.9073,0.3801 1.39474,0.57869 2.41333,1.02499c1.08028,0.47333 1.633,0.73167 2.75433,1.26151c0.561,0.26508 1.1134,0.53369 2.18933,1.04201c0.51173,0.24178 1.90075,0.87144 2.31234,1.03915c0.75391,0.30719 1.79495,0.67303 2.82133,0.97067c0.71242,0.20659 1.4342,0.40236 2.46632,0.64284c0.86453,0.20143 1.82533,0.35716 2.68851,0.57866l0.69933,0.29933l0.97917,0.47917l0.74667,0.38933" id="svg_10" stroke-width="2" stroke="#000" fill="none"/>
  <path t="34199,34404,34404,34434,34434,34467,34467,34508,34508,34508,34536,34556,34580,34612,34708,34708,34754,34754,34764,34803,34838,34838,34889,34889,34917,34917,34964,34996,34996,35022,35348" d="m113.5,161.5c1.82533,1.39999 2.50054,1.82378 3.25183,2.2955c0.70374,0.44188 1.75943,0.63873 2.5335,0.72983c1.05025,0.12361 1.82531,0.20006 2.49583,0.67917c0.77245,0.55194 1.26962,1.23569 2.01884,1.64816c0.83865,0.4617 1.7,0.64734 2.45716,0.64734c0.8955,0 1.75886,-0.00558 2.72201,0c0.92087,0.00534 1.70287,0.31198 2.40616,0.80133c0.75229,0.52344 1.49971,0.92671 2.51334,1.11334c0.75626,0.13924 1.716,0.08665 2.60133,0.252l0.7,0.48067l0.8,0.33183l0.88933,0.03149" id="svg_11" stroke-width="2" stroke="#000" fill="none"/>
  <path t="37294,37524,37558,37572,37604,37604,37632,37632,37652,37652,37676,37707,37742,37743,37777,37777,37826,37829,37829,37829,37829,37862,37862,37885,37885,37920,37920,37954,37954,37954,37954,37956,37956,37989,37989,38023,38058,38058,38061,38093,38149,38149,38176,38176,38176,38176,38176,38176,38176,38208,38208,38208,38208,38208,38241,38242,38284,38284,38299,38300,38316,38316,38340,38340,38376,38377,38432,38433,38483,38483,38483,38620,38620,38620,38724,38748,38780,38808,38843,38843,38843,38876,38877,38877,38877,38932,38932,38932,38932,38962,38962,38962,38989,39043,39044,39070,39070,39130,39133,39133,39164,39164,39236,39236,39292,39292,39420,39420,39448,39492,39492,39700,39796,39828,39828,39856,39856,39856,39893,39893,39893,39927,39927,39927,39976,39976,39976,39976,39981,39981,40028,40056,40056,40097,40133,40212,40900,40900,40924" d="m142.5,172.5c-1.5,1.47917 -2.29865,1.97141 -3.2,2c-0.89987,0.02855 -1.77068,0 -2.56801,0c-0.98132,0 -1.89867,0 -2.81065,0c-0.82133,0 -1.72585,0 -2.74268,0c-0.67867,0 -1.65717,0 -2.47733,0c-0.94534,0 -1.868,0 -2.53734,0c-0.76534,0 -1.56267,0 -2.99734,0c-0.738,0 -1.66666,0 -2.42383,0c-0.909,0 -1.76168,-0.00359 -2.88551,0.00017c-0.66267,0.00221 -1.36092,-0.0224 -2.38933,0.08516c-0.92971,0.09724 -1.88268,0.48398 -2.80134,0.748c-0.74189,0.21323 -1.6875,0.16667 -2.65067,0.16667c-0.69067,0 -1.75883,0 -2.616,0c-0.9,0 -1.71716,0.02597 -2.9,0.16667c-0.42895,0.05103 -1.42937,0.18698 -1.984,0.25867c-1.17173,0.15143 -1.7709,0.22748 -2.368,0.29066c-1.6816,0.17795 -2.18884,0.20906 -3.11867,0.248c-0.825,0.03455 -1.55466,0.03532 -2.75867,0.036c-0.94933,0.00052 -1.9705,0 -2.74983,0c-0.9995,0 -1.77351,0 -2.678,0c-0.74734,0 -1.74284,0 -2.54283,0c-0.99984,0 -1.77917,0 -2.77884,0c-0.83099,0 -1.79255,-0.01775 -2.56283,0.02083c-0.86234,0.04318 -1.76231,0.18279 -2.637,0.40451c-0.81132,0.20566 -2.29937,-0.01398 -2.69967,0.79599c-0.33755,0.683 0.79108,1.24524 1.1,2.10034c0.26771,0.74104 0.64962,1.37439 1.265,2.36499c0.3513,0.56551 0.75515,1.16336 1.2,1.8c0.72662,1.03989 1.25821,1.75946 1.7925,2.47166c0.50789,0.67702 1.19196,1.53804 1.702,2.17017c0.53555,0.66373 0.81464,1.55026 1.38683,2.3555c0.38981,0.54857 1.08652,1.35504 1.44666,2.10535c0.39737,0.82784 0.76189,1.59218 1.00617,2.41066c0.25453,0.85283 1.08967,1.36252 1.64583,2c0.54362,0.62311 1.1703,1.33246 1.33334,2.02083c0.22654,0.9565 0.70223,1.67691 1.3,2.27917c0.69736,0.70262 1.15574,1.36656 1.67467,2.08932c0.47717,0.66461 1.51199,0.61067 2.272,0.61067c0.92,0 1.70807,0.0302 2.528,-0.036c1.06325,-0.08583 1.98119,-0.41403 2.62083,-0.61134c0.99731,-0.30763 1.9134,-0.37012 2.4605,-0.43666c1.0097,-0.12282 1.79782,-0.26689 2.62316,-0.416c0.80598,-0.14561 2.20348,-0.15707 2.91667,-0.5c0.81401,-0.3914 1.13462,-1.27551 1.95599,-1.64284c0.85825,-0.38382 1.84817,-0.35716 2.74817,-0.35733l0.9,-0.1665l0.544,-0.54933l-0.6065,-0.26317" id="svg_12" stroke-width="2" stroke="#000" fill="none"/>
  <path t="44942,45011,45012,45012,45012,45012,45139,45140,45171,45172,45201,45201,45231,45231,45269,45304,45304,45304,45304,45304,45304,45338,45339,45339,45339,45339,45523,45523,45524,45569,45580,45708,45708" d="m119.5,198.5c-6.378,0 -7.42934,0 -7.932,0c-0.94933,0 -1.81069,-0.00705 -2.90266,0.00017c-0.80405,0.00531 -1.15378,0.3186 -0.384,0.57449c1.06088,0.35266 1.85681,0.38214 2.7,0.70934c0.77834,0.30203 0.67071,0.71066 -0.48133,0.716c-0.90799,0.0042 -1.4295,0 -2.5625,0c-0.5935,0 -1.193,0 -2.9375,0c-0.53516,0 -1.5195,0 -2.39584,0c-0.77633,0 -1.77164,-0.03212 -2.58083,0.0045c-0.95245,0.04309 -1.5715,0.64284 -2.22783,1.10533l-0.64217,0.7515l-0.02667,0.65601" id="svg_13" stroke-width="20" stroke="#fff" fill="none"/>
  <path t="47980,48188,48211,48212,48236,48291,48292,48315,48349,48350,48388,48389,48389,48447,48447,48496,48496,48595,48596" d="m88.5,201.5c1.82533,0 2.83334,0 3.6955,0c0.82533,0 1.7885,0 2.65183,0c0.89999,0 1.82224,-0.05266 2.6735,0.02083c0.9863,0.08514 1.78441,0.40376 2.37917,0.68367c1.00925,0.47498 1.6,0.77467 2.6,1.12883l0.78933,0.14134l1.04401,0.192l0.64583,0.33333" id="svg_14" stroke-width="20" stroke="#fff" fill="none"/>
  <path t="51028,51155,51180,51240,51240,51283,51283,51331,51331,51357,51357,51381,51416,51459,51459,51484,51484,51563,51588,51691,51692,51762,51762,51765,51765,51795,51796,51820,51820,51854,51854,51870,51870,51896,51896,51925,51925,51971,51971,52002,52002,52035,52035,52070,52071,52071,52104,52139,52140,52140,52181,52181,52214,52214,52214,52250,52250,52253,52253,52283,52283,52319,52352,52352,52407,52459,52459,52483,52483,52563,52616,52616,52659,52659,52716,52716,52739,52739,52739,52763,52764,52764,52798,52843,52843,53451,53451,53915,53995,54019" d="m88.5,202.5c1.8,0 2.636,0 3.48534,0c0.91917,0 1.91467,-0.00006 2.71466,0c0.99984,0.00009 1.82503,-0.13889 2.7785,0.22133c0.66013,0.24939 1.52696,0.68619 2.326,0.78317c1.03213,0.12527 1.67542,0.55092 2.52884,0.82883c0.84591,0.27547 1.58921,0.85226 2.46667,1.10951c0.86674,0.2541 1.58868,0.13324 2.536,0.4825c0.76813,0.2832 1.7724,0.45352 2.50684,0.62733c0.92872,0.21979 1.52151,0.78053 2.31433,1.24733c0.73044,0.43007 1.73203,0.91916 2.322,1.17917c0.98491,0.43407 1.77419,0.48903 2.678,0.52533c0.74859,0.03008 1.76591,0.22855 2.50684,0.60617c0.84663,0.43149 1.56445,1.11687 2.49316,1.33665c0.73444,0.17381 1.75181,0.31633 2.34283,0.5735c1.01678,0.44244 1.76798,0.92104 2.51466,1.19383c0.85068,0.31079 1.81866,0.28534 2.73601,0.28534c0.74399,0 1.78133,0 2.55466,0c0.964,0 1.7155,0 2.51201,0c0.99733,0 1.87199,0 2.88249,0c0.77934,0 1.77867,0 2.59883,0c0.95851,0 1.854,0 2.54868,0c1.02733,0 1.974,0 2.82733,0c0.94133,0 1.70934,0 2.65067,0c1.008,0 1.8,0 2.66,0c0.91916,0 1.91812,-0.04602 2.71466,0.036c0.80634,0.08304 1.61008,0.40144 2.25717,0.6685c0.96312,0.39748 1.75023,0.70824 2.533,0.93834c1.03052,0.30293 2.02237,0.26567 2.767,0.41432c0.92474,0.18462 1.59016,0.59018 2.60683,0.90685l0.936,0.036l0.90134,0" id="svg_15" stroke-width="2" stroke="#000" fill="none"/>
  <path t="54988,55171,55171,55200,55200,55200,55200,55200,55243,55243,55243,55273,55475,55499,55499,55523,55564" d="m142.5,180.5c1.85733,-0.50667 2.52948,-0.19328 3.33333,0.33333c0.64346,0.42155 1.31622,0.9189 2.01601,1.416c0.68159,0.48418 1.58894,1.13965 2.368,1.56801c0.7775,0.42751 1.7766,0.52615 2.68266,0.69333c0.8318,0.15347 1.40001,0.79066 2.10001,1.46851l0.7955,0.46815" id="svg_16" stroke-width="2" stroke="#000" fill="none"/>
  <path t="56292,56443,56475,56475,56547,56547,56603,56603,56658,56699,56699,56732,56732,56755,56755,56786,56786,56821,56822,56827,56883,56914,56914,56940,56940,56974,56975,57011,57035,57059,57115,57163,57187,57187,57224,57256,57289,57292,57325,57383,57383,57408,57408,57423,57423,57443,57523,57523,57595,57651,57681,57682,57723,57723,57755,57755,57779,57779,57803,57803,57849,57850,57850,57875,57876,57877,57877,57922,57922,57922,57933,57955,57955,57979,58009,58042,58042,58079,58079,58094,58131,58131,58188,58188,58235,58259,58291,58291,58340,58371,58388,58419,58419,58419,58443,58443,58470,58470,58470,58470,58502,58502,58502,58539,58539,58540,58574,58574,58574,58574,58574,58574,58608,58608,58608,58608,58623,58624,58650,58651,58651,58696,58696,58700,58738,58738,58738,58771,58771,58773,58773,58773,58773,58805,58805,58805,58805,58839,58839,58839,58840,58855,58855,58855,58855,58885,58923,58923,58955,58988,59004,59004,59235,59435,59435,59467,59524,59595,59595,59595,59619,59619,59643,59643,59675,59676,59676,59710,59710,59711,59760,59760,59760,59761,59792,59792,59792,59792,59793,59793,59795,59796,59796,59796,59796,59827,59827,59827,59827,59860,59860,59860,59861,59897,59897,59897,59898,59900,59900,59900,59933,59934,59934,59968,59968,60006,60006,60006,60006,60045,60045,60045,60045,60045,60061,60061,60061,60090,60090,60090,60107,60107,60107,60108,60108,60144,60145,60145,60145,60145,60181,60182,60182,60182,60182,60182,60221,60221,60221,60221,60221,60221,60222,60222,60222,60238,60239,60239,60239,60239,60239,60239,60265,60265,60266,60285,60285,60286,60286,60333,60333,60333,60387,60412,60412,60412,60447,60447,60447,60479,60479,60517,60517,60552,60552,60552,60588,60588,60637,60638,60677,60677,60677,60728,60729,60729,60729,60729,60784,60784,60784,60833,60833,60872,60872,60919,60994,60995,61027,61027,61027,61075,61075,61075,61124,61125,61227,61227,61283,61283,61331,61355,61355,61403" d="m158.5,191.5c1.2215,0.87883 2.02689,1.31456 2.5,2.02083c0.53096,0.79262 1.01021,1.44864 1.59984,2.07918c0.55272,0.59105 0.84222,1.46758 1.34283,2.22133c0.48586,0.73154 1.2294,1.50941 1.5365,2.15784c0.38936,0.82211 0.91803,1.39584 1.66899,2.17349c0.49757,0.51526 1.19981,1.3045 1.34917,2.146c0.15787,0.88942 0.44528,1.59512 1.10268,2.30151c0.60614,0.65132 1.08913,1.39023 1.5,2.07449c0.48724,0.81146 1.22298,1.27798 1.87917,1.84616c0.62694,0.54285 0.80484,1.52156 1.39949,2.2005c0.53035,0.60555 1.24933,0.96733 1.82133,1.48317c0.7272,0.65581 1.06174,1.59732 1.584,2.2115c0.55592,0.65376 1.30029,0.97002 2.02051,1.44566c0.65332,0.43147 1.32465,1.31279 1.87016,1.77701c0.77242,0.65732 1.67426,0.8723 2.32533,1.38216c0.76788,0.60133 1.13606,1.25078 1.89999,1.8685c0.74478,0.60223 1.72493,0.80275 2.3,1.31517c0.63354,0.56451 1.16283,1.13275 2.136,1.6955c0.55646,0.32178 1.60587,0.72769 2.29201,1.20001c0.76274,0.52505 1.09529,1.25208 1.948,1.709c0.76791,0.41148 1.43193,0.62933 2.44499,1.23366c0.73694,0.43961 1.444,0.94836 2.112,1.452c0.8759,0.66037 1.44458,1.25774 2.0535,1.63918c0.85474,0.53543 1.43254,0.99712 2.0135,1.66083c0.62175,0.71031 1.62434,0.62686 2.46667,0.87201c0.86177,0.25081 1.70059,0.56122 2.52882,0.886c0.74667,0.29282 1.37192,1.08493 1.94051,1.54733c0.80533,0.65494 1.55165,0.93114 2.47733,1.31599c0.81647,0.33945 1.38536,0.78656 2.18134,1.13667c0.81404,0.35806 1.35297,0.90749 2.116,1.38333c0.80034,0.49911 1.42204,0.97037 2.19067,1.364c0.79665,0.40797 1.64296,0.82172 2.56534,1.36667c0.5235,0.30928 1.3455,0.8483 1.93784,1.18066c1.17871,0.66139 1.78999,0.88719 2.62349,1.242c0.94272,0.40131 1.64807,0.83601 2.19167,1.28217c0.75461,0.61934 1.41466,1.186 2.203,1.80449c0.41673,0.32693 1.27426,0.97574 1.71201,1.272c1.20404,0.81487 1.9438,1.18149 2.582,1.51033c0.8123,0.41855 1.61551,1.02438 2.198,1.71634c0.55344,0.65746 1.25781,1.14159 1.90134,1.70934c0.79083,0.69772 1.05629,1.57596 1.89465,2.05466c0.82825,0.47293 1.61226,0.57788 2.19067,0.86267c1.00687,0.49573 1.64467,0.81747 2.56534,1.36533c0.79947,0.47574 1.35522,0.85257 1.93784,1.23785c1.19769,0.79202 1.79092,1.19821 2.39549,1.57465c0.5956,0.37085 1.8,0.99966 2.39999,1.27267c0.90001,0.40952 1.52733,0.6767 2.39967,1.29068c0.6118,0.4306 1.12907,0.97244 1.92967,1.60416c0.9241,0.72916 1.74075,1.0679 2.37067,1.42801c0.8642,0.49405 1.6434,0.90939 2.56665,1.25867c0.62033,0.23468 1.51025,0.43597 2,1.16666c0.46664,0.69623 1.43958,0.90805 2.24402,1.01068c0.92755,0.11832 1.62698,0.51953 2.276,0.79065c0.98877,0.41306 1.87744,0.52106 2.81332,1.19867c0.58481,0.4234 1.14917,1.34097 1.79733,1.82535c0.4877,0.36444 1.52634,1.02536 2.25,1.41748c0.66946,0.36276 1.6228,0.74847 2.41882,1.07068c0.59903,0.24246 1.27576,0.51871 2.36719,1.18649c0.85516,0.52322 1.27811,0.86026 2.1875,1.52084c0.4653,0.33801 0.91537,0.70099 2.3125,1.64581c0.44003,0.29758 1.29935,0.82089 2.10416,1.29169c0.74261,0.43442 1.73572,1.0325 2.29449,1.44034c0.52362,0.38217 1.24277,0.99991 2.10135,1.43466c0.94254,0.47726 1.67371,0.64804 2.36133,0.91931c0.98279,0.3877 1.79703,0.89792 2.51999,1.422c0.46899,0.33997 1.46793,0.94437 2.28534,1.32535c0.54639,0.25467 1.60092,0.79242 2.25333,1.32535c0.60721,0.496 1.32095,1.34372 1.90802,1.76398c0.82886,0.59332 1.63428,0.82657 2.23199,1.08267c0.68268,0.29251 1.85342,0.86258 2.703,1.33334c0.4353,0.24121 1.28796,0.73282 2.065,1.22665c0.96182,0.6113 1.58633,1.14276 2.30399,1.56534c0.77795,0.45807 1.6048,0.72806 2.20084,1.017c1.01419,0.49167 1.72388,0.94601 2.45917,1.44699c0.75565,0.51486 1.11874,0.79504 2.20801,1.57202c0.68063,0.4855 1.34189,0.94049 1.992,1.392c0.65924,0.45782 1.6962,1.198 2.45883,1.74533c0.41531,0.29807 1.341,0.95016 1.86331,1.30533c0.56427,0.38367 1.85083,1.22665 2.58035,1.68765c0.77304,0.48849 1.58212,0.98785 2.41348,1.49103c0.8363,0.5062 1.66888,1.00043 2.4855,1.47299c0.78214,0.45261 2.20395,1.2439 2.82251,1.56482c0.54974,0.28522 1.04333,0.52744 1.48801,0.72751c0.74768,0.33643 1.37701,0.55164 2.37997,0.98132c0.71024,0.30429 1.45218,0.68375 2.32535,1.12c1.00815,0.50369 1.70667,0.85336 2.38934,1.19467c0.92484,0.46237 1.6629,0.8916 2.47998,1.19736c0.85379,0.31949 1.83411,0.41449 2.73868,0.73331c0.50671,0.17859 1.63107,0.85229 2.08798,1.37869c0.57629,0.66394 1.10141,1.3732 1.87201,1.728c0.94601,0.43555 1.80435,0.37338 2.78934,0.61331c0.81689,0.19897 1.5903,0.59326 2.39999,0.74933c0.79288,0.1528 1.81409,0.27029 2.60001,0.60486c1.02026,0.43433 1.60901,0.78366 2.272,1.11514c1.06134,0.53067 1.69913,0.84332 2.37866,1.20001c0.70197,0.36847 1.40829,0.7262 2.57867,1.56134c0.51099,0.36462 1.08987,1.05045 2.17065,1.43201c0.76743,0.27094 1.80908,0.07065 2.55835,0.1915c0.90079,0.14529 1.48312,0.86761 2.29898,1.00449c0.90756,0.15225 1.70239,0.31003 2.51733,0.58533c1.0687,0.36099 1.77197,0.68134 2.41467,0.98935c1.01663,0.48724 1.5596,0.89993 2.64401,1.23334c0.77158,0.23721 1.65067,0.16449 2.51398,0.16666c0.89551,0.00226 1.85269,0.284 2.45267,0.716l0.90002,0.27951" id="svg_17" stroke-width="2" stroke="#000" fill="none"/>
  <path t="67446,67652,67678,67678,67678,67710,67710,67710,67749,67750,67752,67752,67803,67803,67803,67875,67875,67931,68003,68003,68059,68059,68095" d="m314.5,229.5c1,-1.04167 1.11823,-2.01839 1.44666,-2.81067c0.27539,-0.66434 0.87451,-1.6105 1.20151,-2.1375c0.49051,-0.7905 1.05414,-1.70567 1.33099,-2.53101c0.27875,-0.83099 0.54044,-1.54227 1.02084,-2.52083c0.29474,-0.60039 0.72784,-1.38066 0.91467,-2.39867c0.13879,-0.75633 0.08533,-1.84866 0.08533,-2.76801c0,-0.83333 0,-1.66666 0,-2.52882l0,-0.90451" id="svg_18" stroke-width="2" stroke="#000" fill="none"/>
  <path t="81309,81506,81506,81530,81530,81562,81562,81610,81634,81691,81691,81738,81738,81763,81792,81826,81826,81860,81860,81866,81914,81914,81917,81917,81917,81949,81949,81949,81992,81992,81995,81995,81995,82040,82040,82043,82044,82074,82074,82074,82074,82110,82111,82177,82177,82202,82202,82250,82250,82281,82281,82301,82301,82354,82354,82378,82378,82378,82416,82450,82450,82450,82506,82506,82634" d="m317.5,222.5c0.35718,-2.5955 0.70294,-3.34386 1.2955,-4.24733c0.41806,-0.63739 0.59369,-1.59709 0.78851,-2.26868c0.29233,-1.00761 0.76746,-1.82353 1.13733,-2.58417c0.34241,-0.70418 0.62967,-1.57336 0.86267,-2.41583c0.24368,-0.88103 0.82465,-1.68459 0.91614,-2.58417c0.07993,-0.78571 0.3161,-1.57451 0.70435,-2.24716c0.53638,-0.92924 1.13882,-1.65004 1.34818,-2.467c0.24432,-0.95341 0.466,-1.72804 0.65182,-2.29466c0.39096,-1.19217 0.57108,-1.79117 0.89551,-2.619c0.37231,-0.95 0.93149,-1.72934 1.39999,-2.43867c0.42975,-0.65062 0.78735,-1.44112 1.29999,-2.42883c0.39047,-0.75237 0.91891,-1.51038 1.336,-2.10182c0.55453,-0.78638 1.0202,-1.6566 1.34317,-2.30267c0.31897,-0.63808 0.71286,-1.75853 1.03552,-2.56799c0.35239,-0.88405 0.83859,-1.37944 1.28082,-2.43735c0.30505,-0.72975 0.46274,-1.68094 0.7045,-2.45299c0.27444,-0.87651 0.85428,-1.39555 1.2955,-2.19884c0.39673,-0.72231 0.54807,-1.75969 0.76584,-2.54283c0.28668,-1.03096 0.83371,-1.55591 1.37067,-2.31467c0.50137,-0.70848 0.71719,-1.82385 0.92517,-2.49068c0.23401,-0.75034 0.64282,-1.66133 1.12198,-2.45299l0.43552,-0.74167" id="svg_20" stroke-width="2" stroke="#000" fill="none"/>
  <path t="91915,92067,92090,92090,92090,92090,92122,92122,92122,92122,92146,92146,92146,92194,92194,92224,92224,92265,92265,92299,92333,92333,92378,92378,92426,92426,92431,92452,92452,92452,92486,92487,92536,92537,92537,92553,92554,92554,92578,92578,92610,92610,92610,92610,92634,92634,92634,92658,92658,92682,92682,92682,92731,92731,92731,92764,92764,92764,92764,92764,92764,92799,92799,92799,92799,92799,92847,92847,92847,92901,92902,92902,92923,92923,92923,92939,92940,92986,92987,92987,92991,93020,93068,93069,93069,93104,93104,93104,93114,93114,93114,93137,93181,93181,93182,93182,93242,93242,93242,93279,93280,93280,93280,93280,93331,93331,93331,93345,93346,93374,93375,93394,93394,93426,93426,93457,93486,93523,93523,93558,93599,93656,93656" d="m338.5,170.5c0.52084,-1.5625 1.01193,-2.4959 1.3045,-3.367c0.22559,-0.67163 0.41434,-1.40469 0.86215,-2.46632c0.29144,-0.6909 0.67975,-1.30368 1.1235,-2.205c0.50366,-1.02293 0.60834,-1.73361 0.79251,-2.56033c0.2258,-1.01344 0.52899,-1.60083 1.01715,-2.60117c0.38013,-0.77896 0.65161,-1.65918 0.92551,-2.38951c0.31909,-0.85088 1.11197,-1.47832 1.57468,-2.04666c0.65585,-0.80557 0.94904,-1.57271 1.5,-2.3425c0.45944,-0.64191 1.34653,-1.2485 1.73334,-2.18817c0.26126,-0.63469 0.26529,-1.47597 0.87198,-2.43333c0.39954,-0.63048 1.00168,-1.38702 1.24402,-2.21066c0.18771,-0.63802 0.46262,-1.62756 0.91199,-2.40399c0.45966,-0.79419 1.15097,-1.61769 1.61783,-2.28534c0.56314,-0.80534 0.81207,-1.51564 1.15683,-2.28534c0.24017,-0.53621 0.85062,-1.5264 1.34317,-2.19383c0.45517,-0.61681 0.87546,-1.63625 1.12619,-2.478c0.29156,-0.97887 0.57788,-1.50763 1.07999,-2.28149c0.61606,-0.94951 1.11353,-1.438 1.56732,-2.23817c0.4693,-0.8275 0.73328,-1.64745 1.09402,-2.58184c0.19458,-0.50398 0.37869,-1.03181 0.84,-2.07733c0.45895,-1.04019 0.98975,-1.99357 1.25699,-2.44067c0.50543,-0.84559 1.0593,-1.5631 1.55634,-2.59c0.38443,-0.79427 0.45847,-1.51234 0.50034,-2.5335c0.03366,-0.82102 0.11688,-1.50813 0.56766,-2.48383c0.38724,-0.83817 0.83276,-1.32206 1.189,-2.3945c0.29092,-0.87584 0.24301,-1.9215 0.24301,-2.71083c0,-0.72533 -0.03922,-1.84112 0.436,-2.62134c0.49063,-0.80553 0.98224,-1.42742 1.26401,-2.051c0.4281,-0.94746 0.69177,-1.7667 1,-2.58566c0.3895,-1.03494 0.72906,-1.69019 1.01465,-2.466c0.3154,-0.85683 0.60449,-1.82809 0.99518,-2.4965c0.45905,-0.78535 0.823,-1.29838 1.4075,-2.30883c0.41458,-0.7167 0.68625,-1.25189 1.42517,-2.54533c0.22226,-0.38908 0.70465,-1.20803 1.17084,-2.06001c0.22766,-0.41609 0.84158,-1.5581 1.11966,-2.50449c0.21399,-0.72823 0.33301,-1.79498 0.68784,-2.55067c0.41626,-0.88653 1.00363,-1.47726 1.57898,-2.121c0.56799,-0.63551 0.77838,-1.56656 0.95285,-2.24717c0.26886,-1.0489 0.88644,-1.74654 0.94733,-2.65266c0.05362,-0.7982 0.05716,-1.7 0.5,-2.52084l0.37866,-0.8005l0.14667,-0.85333" id="svg_21" stroke-width="2" stroke="#000" fill="none"/>
  <path t="104754,105115,105137,105137,105137,105169,105169,105169,105169,105169,105193,105193,105193,105193,105193,105193,105222,105223,105290,105290,105290,105306,105308,105359,105777,105777,105929,105985,106040,106041,106137,106497" d="m380.5,71.5c1.75717,0.05717 2.67133,0.36012 3.31866,0.64667c0.53925,0.23871 1.54657,0.67323 2.35284,1.015c0.89182,0.37804 1.36584,0.57337 2.33249,1.025c1.00168,0.46801 1.99304,0.99167 2.478,1.2615c0.93936,0.52266 1.38153,0.77841 2.17667,1.2825c0.96503,0.6118 1.76395,1.29021 2.67468,1.76933c0.64969,0.34179 1.40714,0.59618 2.33331,0.83334c0.86877,0.22245 1.2948,0.88817 2.04318,1.46217c0.57919,0.44423 1.90311,0.68889 1.7485,1.22533c-0.26193,0.90889 -1.25833,1.27917 -1.84769,1.87917l-0.52533,0.8" id="svg_22" stroke-width="2" stroke="#000" fill="none"/>
  <path t="107594,107721,107745,107781,107929,108001,108040,108057,108105,108105,108185,108185,108209,108257,108281,108281,108313,108362,108362,108441,108465,108489,108523,108559,108559,108594,108633,108633,108669,108721,108721,108724,108724,108754,108754,108769,108799,108799,108832,108832,108832,108866,108866,108866,108903,108940,108940,108983,108983,108984,109013,109013,109013,109065,109065,109089,109089,109089,109139,109140,109140,109140,109153,109154,109154,109177,109177,109177,109251,109269,109269,109305,109305,109305,109337,109337,109337,109364,109364,109399,109399,109399,109432,109433,109433,109435,109435,109467,109467,109467,109467,109508,109508,109542,109542,109542,109577,109577,109592,109592,109592,109617,109617,109617,109617,109641,109641,109641,109669,109669,109669,109669,109721,109721,109721,109780,109781,109781,109781,109781,109781,109793,109793,109793,109824,109824,109859,109859,109859,109894,109894,109897,109898,109898,109928,109929,109963,109963,109996,109996,109996,110032,110033,110033,110067,110067,110067,110067,110068,110068,110101,110101,110102,110102,110142,110142,110142,110142,110142,110142,110142,110192,110193,110193,110193,110193,110193,110207,110207,110208,110237,110237,110237,110238,110257,110257,110258,110258,110258,110306,110307,110307,110356,110357,110357,110357,110409,110409,110458,110458,110483,110518,110518,110537,110538,110590,111073" d="m402.5,82.5c0,1.8 0,2.7 0,3.6c0,0.9 0,1.8 0,2.7c0,0.89999 0.10501,1.7165 -0.08533,2.58533c-0.17389,0.79375 -0.60605,1.63857 -0.88934,2.47867c-0.28482,0.84467 -0.94025,1.62341 -1.02399,2.436c-0.08569,0.8316 -0.00134,1.85266 -0.00134,2.54733c0,1.01666 0,1.95267 0,2.85266c0,0.9 0,1.8 0,2.60001c0,0.836 0,1.85266 0,2.54733c0,1.02733 0,1.97417 0,2.6735c0,0.97916 0,1.76849 0,2.8125c0,0.86217 0,1.6875 0,2.65333c0,0.76 0,1.68 0,2.466c0,0.822 0,1.88067 0,2.80067c0,0.76 0,1.74667 0,2.73333c0,0.76 0.01282,1.68018 -0.00449,2.466c-0.01813,0.8224 -0.13116,1.88985 -0.42084,2.81134c-0.20074,0.63857 -0.52182,1.63506 -0.564,2.47198c-0.04684,0.92957 -0.01068,1.72118 -0.01068,2.57468c0,1.18933 0.02109,1.7901 -0.02084,2.68933c-0.04202,0.90132 -0.17047,1.80766 -0.41516,2.68933c-0.23926,0.86215 -0.66406,1.8889 -0.95334,2.564c-0.32559,0.75989 -0.60022,1.72565 -0.61066,2.56018c-0.00928,0.74243 0,1.73982 0,2.70732c0,0.67834 0.02155,1.93677 -0.01068,2.70717c-0.0278,0.66406 -0.30017,1.66446 -0.564,2.508c-0.28833,0.92192 -0.35699,1.71831 -0.45065,2.53868c-0.12112,1.06116 -0.35757,1.7583 -0.62201,2.62082c-0.30527,0.9957 -0.27414,1.65718 -0.686,2.77118c-0.30154,0.81561 -0.71143,1.31116 -1.09866,2.14932c-0.45078,0.97572 -0.54034,1.6627 -0.56799,2.68401c-0.02167,0.79977 -0.02435,1.61853 -0.35718,2.60451c-0.29446,0.87233 -0.75488,1.81268 -0.93832,2.35266c-0.28781,0.84718 -0.55045,2.04123 -0.62048,2.64149c-0.10251,0.87854 -0.10587,1.73051 -0.36935,2.71867c-0.19113,0.71681 -0.54471,1.44286 -0.91333,2.65067c-0.20691,0.67792 -0.38297,1.37767 -0.51599,2.064c-0.23227,1.19841 -0.27832,2.03114 -0.36935,2.992c-0.07672,0.80991 -0.19818,1.79643 -0.27316,2.33932c-0.1571,1.1376 -0.23798,1.7128 -0.44415,2.81667c-0.18481,0.98936 -0.37357,1.79973 -0.67783,2.69501c-0.32874,0.96735 -0.52078,1.79236 -0.74219,2.66783c-0.18314,0.72411 -0.48288,1.49783 -0.65717,2.53568c-0.15009,0.89375 -0.08963,1.92255 -0.13217,2.7215c-0.04272,0.80234 -0.35989,1.79367 -0.564,2.39999c-0.3334,0.99052 -0.40823,1.79993 -0.42532,2.8c-0.01367,0.79996 -0.05322,1.60909 -0.35718,2.6225c-0.22946,0.76512 -0.46777,1.3989 -0.74283,2.68417c-0.10944,0.51141 -0.29999,1.62 -0.39999,2.19333c-0.10001,0.57333 -0.26221,1.68855 -0.60001,3.09334c-0.17996,0.74843 -0.41391,1.40262 -0.60001,2.06999c-0.3244,1.16347 -0.50241,2.16025 -0.59998,2.7135c-0.10254,0.58139 -0.30011,1.80449 -0.40002,2.43134c-0.10007,0.62782 -0.2973,1.85896 -0.49866,3.01849c-0.09555,0.55023 -0.28555,1.58916 -0.44415,2.55c-0.07422,0.44962 -0.2421,1.67979 -0.33185,2.75134c-0.05447,0.65036 -0.17657,1.87523 -0.31067,2.47466c-0.21133,0.94475 -0.43271,1.60818 -0.71466,2.73067c-0.20871,0.83089 -0.39529,1.70549 -0.564,2.58c-0.08173,0.42361 -0.3197,1.92195 -0.38333,2.52417c-0.08472,0.80182 -0.20776,1.89812 -0.40533,2.86333c-0.13922,0.68005 -0.31683,1.33223 -0.526,2.43484c-0.16412,0.8652 -0.43866,1.73505 -0.76868,2.61166c-0.33423,0.88785 -0.5159,1.82069 -0.77798,2.478c-0.40277,1.0101 -0.564,1.76401 -0.57468,2.67467l-0.01068,0.89999" id="svg_23" stroke-width="2" stroke="#000" fill="none"/>
  <path t="116906,117337,117361,117441,117465,117522,117522,117618,117619,117721,117721,117769,118105,118105,118259,118385,118465,118489,118527,118558,118606,118606,118606,118643,118643,118677,118712,118750,118796,118824,118824,118825,118865,118866,118901,118901,118901,118936,118936,118936,118936,118936,118936,118970,118970,118970,118977,118977,118977,119010,119010,119010,119045,119045,119045,119079,119079,119128,119128,119128,119154,119204,119204,119217,119233,119256,119257,119300,119300,119300,119334,119335,119335,119396,119396,119456,119536,119616,119616,119640,119640,119687,119727,119745,119792,119792,119842,119843,119880,119920,119980,120000,120049,120049,120104,120128,120152,120153,120203,120224,120294,120306,120352,120408,120432,120482,120482,120512,120513,120513,120536,120536,120561,120561,120562,120589,120589,120589,120589,120640,120640,120686,120686,120690,120690,120720,120746,120746,120746,120816,120817,120842,120843,120843,120878,120878,120912,120912,120912,120912,120913,120949,120949,120949,121018,121018,121018,121096,121097,121136,121149,121149,121200,121200,121252,121286,121353,121353,121377,121377,121457,121457,121529,121585,121585,121609,121609,121609,121643,121643,121643,121679,121679" d="m386.5,192.5c0.03601,2.55333 0.54303,3.22539 1.22134,3.87866c0.5806,0.55917 1.21097,1.237 1.7995,1.62134c0.7988,0.52164 1.46347,0.99472 2.17917,1.7c0.50366,0.49632 1.16443,1.23746 1.89999,1.89967c0.57385,0.51663 1.36935,0.22031 1.87466,-0.489c0.46643,-0.65472 1.42532,-0.61067 2.32532,-0.61067c0.90134,0 1.86667,0 2.53601,0c0.76532,0 1.95334,0 2.67868,0c0.96448,0 1.88531,-0.00066 2.78531,0c0.90134,0.00067 1.87546,0.14578 2.53601,0.436c0.7764,0.34111 1.564,0.76399 2.36401,1.164c0.79999,0.39999 1.6362,0.81351 2.37149,1.21432c0.93396,0.50911 1.68076,0.95325 2.08649,1.19101c0.84253,0.49376 1.68277,0.99146 2.09,1.22665c1.39313,0.80466 1.94427,1.11807 2.69568,1.459c0.96515,0.4379 1.79645,0.68652 2.60367,1.06618c0.802,0.3772 1.49631,0.89452 2.142,1.4175c0.81168,0.65742 1.4003,1.08699 2.21066,1.52083c0.79034,0.42311 1.60077,0.80299 2.60001,1.3045c0.59595,0.2991 1.43387,0.58252 2.23834,1.3c0.68564,0.6115 0.86655,1.37666 1.56299,1.784c0.82581,0.483 1.39999,1.11734 1.95584,1.67317c0.72815,0.72815 1.26367,1.26367 1.84415,1.84416c0.79733,0.79735 1.37784,1.37782 1.91336,1.91333c0.72815,0.72815 1.37317,1.20734 1.96448,1.98534c0.56088,0.73798 0.88004,1.65889 1.16818,2.25717c0.40918,0.84958 0.35199,1.75883 0.35266,2.722c0.00064,0.92082 0,1.82533 0,2.6875c0,0.83333 0,1.81183 0,2.63199c0,0.90134 0.14557,1.92374 -0.436,2.59067c-0.60965,0.69911 -1.32736,1.08751 -1.58932,1.76001c-0.35083,0.90059 -1.18411,1.37784 -2.07468,1.72916c-0.66068,0.26064 -1.60001,0.12151 -2.5,0.12151c-0.89999,0 -1.79999,0 -2.69998,0c-0.90002,0 -1.80002,0 -2.70001,0c-0.87149,0 -1.76401,0 -2.67599,0c-0.64801,0 -1.82669,0.05632 -2.63733,-0.01067c-1.02838,-0.08498 -1.69547,-0.36322 -2.508,-0.564c-1.17151,-0.28947 -1.77756,-0.3391 -2.65784,-0.42534c-0.83572,-0.08188 -1.83566,-0.28355 -2.5,-0.5c-1.02106,-0.33266 -1.84967,-0.32352 -2.85419,-0.66667c-0.68774,-0.23494 -1.48917,-0.71924 -2.33331,-1c-0.87744,-0.29182 -1.43478,-0.63438 -2.43335,-1.13333c-0.6001,-0.29984 -1.60001,-0.8 -2.39999,-1.2c-0.60001,-0.3 -1.60901,-0.8045 -2.272,-1.136c-1.06134,-0.53067 -1.69296,-0.85297 -2.37866,-1.17867c-0.69565,-0.33043 -1.3624,-0.67781 -2.57999,-1.01733c-0.73892,-0.20605 -1.48114,-0.26993 -2.45203,-0.73734c-0.82492,-0.39714 -1.55688,-0.93622 -2.34665,-1.54399c-0.6694,-0.51514 -1.57034,-0.7999 -2.17068,-1.45601c-0.49582,-0.54187 -1.08627,-1.48779 -1.44281,-2.12616c-0.47229,-0.84566 -0.35718,-1.71516 -0.35718,-2.62584c0,-0.85333 0.08911,-1.81004 -0.08533,-2.56267c-0.22598,-0.97501 -0.63925,-1.62956 -0.91467,-2.616c-0.22882,-0.81953 -0.48538,-1.55913 -1.16666,-2.5c-0.45453,-0.62772 -1.04132,-1.20265 -1.83334,-2c-0.39734,-0.40001 -0.97916,-0.97917 -1.83334,-1.83333l-0.54132,-0.53067" id="svg_24" stroke-width="2" stroke="#000" fill="none"/>
  <path t="125267,125497,125521,125521,125521,125566,125566,125566,125569,125569,125569,125607,125607,125607,125648,125648,125650,125650,125672,125672,125696,125696,125754,125800,125824,125856,125856,125856,125856,125902,125902,125902,125905,125905,125905,125905,125938,125938,125938,125938,125938,125952,125952,125952,125984,125984,126010,126010,126010,126036,126037,126073,126073,126073,126104,126104,126104,126138,126138,126138,126138,126193,126194,126194,126194,126194,126208,126208,126208,126208,126208,126244,126245,126245,126245,126264,126265,126265,126294,126294,126294,126332,126332,126332,126336,126419,126419,126419,126419,126440,126440,126440,126440,126440,126474,126474,126474,126506,126506,126507,126543,126543,126543,126543,126546,126546,126577,126578,126578,126578,126628,126628,126628,126648,126649,126649,126649,126672,126672,126696,126696,126720,126720,126752,126776,126776,126824,126848,126848,126904,126904,126928,127184,127184,127384,127440,127464,127493,127493,127592,127592,127592,127592,127641,127672,127696,127725,127725,127759,127768,127769,127800,127837,127873,127873,127873,127920,127920,127920,127952,127952,127986,127987,128024,128104,128132,128152,128152,128280,128360,128384,128384,128414,128414,128453,128454,128485,128489,128489,128489,128542,128542,128545,128546,128582,128582,128582,128592,128593,128593,128628,128629,128629,128629,128629,128662,128662,128662,128662,128663,128663,128675,128675,128700,128700,128744,128744,128744,128792,128792,128857,128857,128872,128872,128896,128920,128920,128920,128951,128951,128986,128986,129001,129038,129067,129068,129078,129078,129104,129132,129133,129152,129152,129152,129176,129176,129176,129220,129220,129267,129268,129280,129281,129281,129320,129320,129321,129339,129371,129371,129415,129416,129416,129448,129448,129448,129448,129449,129482,129482,129516,129516,129583,129584,129584,129584,129584,129587,129587,129587,129588,129640,129641,129670,129697,129698,129698,129750,129751,129751,129791,129792,129792,129792,129795,129795,129796,129796,129796,129796,129840,129841,129841,129896,129897" d="m377.5,248.5c1.672,0.07201 2.54877,0.43285 3.26132,0.86133c0.79727,0.47942 1.56235,0.98935 2.28601,1.3815c0.66946,0.36278 1.61716,0.76294 2.40533,1.05717c0.81976,0.30602 1.8902,0.67853 2.58566,1c0.81189,0.37529 1.5907,0.88377 2.15717,1.39999c0.74533,0.6792 1.26221,1.12767 2.30533,1.60001c0.70425,0.31889 1.50403,0.92036 2.08051,1.41466c0.61432,0.52673 1.49936,0.90118 2.34,1.27066c0.89368,0.39276 1.59018,0.7218 2.09952,1.03552c0.79913,0.49222 1.81067,1.06995 2.45831,1.5c0.63715,0.42307 1.41959,1.25311 1.85284,1.74048c0.47037,0.52908 0.98102,1.11652 2.03201,1.81717c0.76532,0.51019 1.63608,0.90048 2.06,1.11084c0.82416,0.40897 1.92862,0.9859 2.5,1.40616c0.73145,0.53799 1.51297,1.4325 2.09683,1.88367c0.76367,0.59012 1.49075,0.80573 2.22849,1.12085c1.1178,0.47748 1.73737,0.9129 2.41733,1.56665c0.67694,0.65088 1.20868,1.2193 2.03351,1.81201c0.59094,0.42465 1.26636,0.75839 2.22134,1.34299c0.54111,0.33124 1.3992,0.91183 1.97983,1.36502c0.91528,0.71442 1.50397,1.27466 2.14032,1.83417c0.66882,0.58807 1.01111,0.90433 2.20084,1.77899c0.41803,0.30734 1.29718,0.88998 1.73666,1.17932c0.8577,0.56467 2.03183,1.33981 2.66486,1.83551c0.55795,0.43689 1.24359,1.07974 1.85599,1.68533c0.60107,0.59439 1.16699,1.20557 2,1.83334c0.77139,0.58133 1.4231,0.88815 2.19983,1.48782c0.60855,0.46982 1.27789,1.17728 2.18552,1.62817c0.91602,0.45505 1.64014,0.75818 2.15631,1.134c0.58041,0.42261 1.47238,1.23703 2.05566,1.88333c0.59601,0.6604 1.12982,1.34732 1.63202,1.97998c0.62695,0.78983 1.2525,1.53268 1.73865,1.93469c0.77396,0.63998 1.56671,1.14334 2.08383,1.58032c0.80392,0.67932 1.49536,1.47961 1.90652,2.01749c0.56735,0.74219 1.11813,1.59244 1.703,2.1355c0.828,0.76883 1.35223,1.03729 2.12399,1.59601c0.53461,0.38705 1.53748,1.18317 1.98932,1.60001c0.68857,0.63522 1.392,1.35599 1.90802,1.87201c0.79648,0.79648 1.3075,1.3075 1.98398,1.98398c0.66135,0.66135 1.33334,1.33334 1.93335,1.93335c0.60001,0.60001 1.19998,1.19998 1.89999,1.89999c0.60001,0.60001 1.20001,1.20001 1.89999,1.89999c0.60001,0.60001 1.20001,1.20001 1.89999,1.89999c0.5,0.5 1.22644,1.17459 1.89868,1.90002c0.53787,0.58044 1.00122,1.27194 1.63467,1.96664c0.54645,0.59927 1.01706,1.28342 1.228,2.09067c0.23996,0.9183 0.63998,1.69308 0.93866,2.22183c0.42633,0.75473 0.96396,1.84662 1,2.72086c0.03705,0.89923 -0.16327,1.83481 0.08533,2.59998c0.25696,0.79092 0.71262,1.71371 0.94,2.33868c0.33359,0.91687 1.42703,1.13797 1.80801,2.02798c0.2742,0.64059 0.28296,1.54291 0.73465,2.51602c0.25363,0.54642 0.86227,1.24835 1.26135,2.34799c0.25092,0.69138 0.16132,1.62207 0.17065,2.48532c0.01044,0.96335 0.54318,1.68729 0.87851,2.58401c0.31808,0.85065 0.1329,1.70004 0.12149,2.60001c-0.01044,0.82104 -0.21378,1.82718 -0.64667,2.47464c-0.58322,0.87231 -1.44815,1.17966 -2.01999,1.82535c-0.54825,0.61905 -1.16006,1.02255 -2.10269,1.28534c-0.75861,0.21149 -1.55417,0.50079 -2.54398,0.91333c-0.64923,0.2706 -1.65909,0.73175 -2.34802,0.79065c-1.10535,0.09451 -1.88031,0.01065 -2.44766,0.01068c-1.19116,0.00009 -2.10263,-0.00726 -2.72699,0.03601c-1.33386,0.09241 -2.05316,0.2435 -2.82132,0.39999c-0.82666,0.1684 -1.71338,0.37177 -2.67603,0.564c-1.02933,0.20557 -1.55786,0.29919 -2.60416,0.47916c-0.50354,0.08661 -1.43564,0.25629 -2.55518,0.39935c-0.92194,0.1178 -1.99399,0.12149 -2.754,0.12149c-0.91998,0 -1.70151,0 -2.492,0c-1.1185,0 -2.00949,0 -2.91849,0c-0.74734,0 -1.74152,0 -2.50684,0c-1.08334,0 -2.00266,0 -2.672,0c-0.76532,0 -1.76401,0 -2.564,0c-1.1955,0 -1.94284,0 -2.84283,0c-0.9585,0 -1.92383,0 -2.58252,0c-1.008,0 -1.87015,0 -2.81064,0c-0.85068,0 -1.61069,0 -2.78552,0c-0.81448,0 -1.38916,0 -2.57849,0c-0.89099,0 -1.728,0 -2.66666,0c-0.79169,0 -1.77789,0.02374 -2.38934,-0.17065c-1.0224,-0.32504 -1.62662,-0.6778 -2.26801,-1.01468c-1.18872,-0.62436 -1.82132,-1.0379 -2.47198,-1.61334c-0.74475,-0.65863 -1.52533,-1.08112 -2.22485,-1.20132c-0.97888,-0.16821 -1.81549,-0.42987 -2.4935,-0.81885c-0.83893,-0.48129 -1.45233,-0.94778 -2.12567,-1.42114c-0.67331,-0.47333 -1.24289,-1.0311 -2.49298,-1.59302c-0.71918,-0.32327 -1.53708,-0.53 -2.44299,-0.92865c-0.9234,-0.40637 -1.67627,-0.72498 -2.51068,-1.06369c-0.43362,-0.17603 -1.30969,-0.52936 -2.57999,-1.008c-0.75836,-0.28574 -1.45151,-0.50192 -2.31,-0.86215c-0.89331,-0.37482 -1.53894,-1.04556 -2.44467,-1.26849c-0.88629,-0.21814 -1.59622,0.01804 -2.36401,-0.108c-1.06583,-0.17499 -1.75992,-0.64081 -2.44,-1.11334c-0.93848,-0.6521 -1.73962,-1.06918 -2.33716,-1.33551c-0.65503,-0.29196 -1.77512,-0.80441 -2.60416,-1.24716c-0.43646,-0.23309 -1.3132,-0.7308 -2.17084,-1.22665c-0.40952,-0.23676 -1.49802,-0.86218 -2.35449,-1.32266l-0.69452,-0.3165l-1.01083,-0.28217l-0.88834,-0.13669" id="svg_25" stroke-width="2" stroke="#000" fill="none"/>
  <path t="131993,132400,132424,132448,132448,132448,132481,132481,132528,132528,132528,132552,132552,132581,132581,132581,132617,132617,132651,132651,132686,132722,132722,132737,132738,132816,132816,132816,132832,132832,132832,132879,132879,132879,132909,132909,132909,132939,132939,132939,132978,132978,132978,132978,132978,132978,133012,133012,133012,133012,133012,133012,133030,133031,133031,133042,133042,133042,133064,133064,133064,133065" d="m284.5,282.5c-1.60001,0.57468 -2.46228,0.89447 -3.3215,1.44266c-0.55356,0.35318 -1.23706,1.09021 -2.07983,1.388c-0.80588,0.28476 -1.7692,0.32034 -2.54684,0.522c-0.7948,0.20612 -1.90372,0.57626 -2.70248,0.63666c-0.88971,0.06726 -1.61395,-0.01804 -2.40115,0.06784c-1.03345,0.11273 -1.88034,0.52197 -2.78152,0.77618c-0.84433,0.23819 -1.80264,0.16666 -2.65198,0.16666c-0.72534,0 -1.71469,0 -2.51468,0c-1,0 -1.81067,0 -2.68533,0c-1,0 -1.83551,-0.00006 -2.716,0c-0.8985,0.00009 -1.7915,-0.03317 -2.64149,0.05716c-1.04276,0.11084 -1.72989,0.35956 -2.55583,0.74417c-0.8157,0.37985 -1.47337,0.73318 -2.34267,0.99866c-1.13177,0.34564 -1.59955,0.4035 -2.60268,0.61069c-0.53908,0.11133 -1.67506,0.34167 -2.26132,0.47467c-1.19693,0.27151 -2.38992,0.59525 -2.97667,0.76282c-0.57591,0.16449 -1.67279,0.49469 -2.18933,0.642c-1.3589,0.38751 -2.08734,0.5405 -2.94534,0.689c-1.08333,0.1875 -1.90038,0.4682 -2.59766,0.72534c-1.12173,0.4137 -1.791,0.591 -2.48567,0.77466l-0.69467,0.16367" id="svg_26" stroke-width="2" stroke="#000" fill="none"/>
  <path t="134449,134576,134605,134645,134645,134645,134645,134648,134648,134649,134649,134649,134649,134694,134694,134694,134734,134735,134735,134768,134776,134777,134832,134832,134856,134887,134928,135032,135472,135496,135496,135544,135648,135648,135952,135952,136008,136056,136136,136264,136291,136291,136322,136356,136391,136391,136394,136445,136445,136475,136475,136475,136475,136544,136544,136544,136592,136592,136592,136637,136649,136649,136680,136681,136716,136717,136717,136751,136751,136751,136824,136824,136824,136824,136824,136848,136848,136904,136904,136928,136955,136955,137004,137005,137048,137048,137048,137048,137160,137184,137184,137233,137233,137273,137273,137273,137307,137347,137347,137398,137425,137426,137492,137492,137493,137511,137512,137512,137544,137544,137574,137574,137592,137592,137615,137616,137671,137672,137695,137696,137768,137768,137824,137824,137872,137896,137896,137935,138004,138004,138028,138073,138086,138087,138087,138104,138104,138104,138104,138128,138128,138128,138128,138128,138157,138157,138157,138157,138157,138193,138194,138194,138194,138194,138227,138227,138227,138242,138242,138242,138256,138336,138336,138360,138360,138360,138395,138395,138395,138408,138408,138409,138441,138441,138488,138488,138515,138516,138516,138920,138976,139328,139328,139432,139463,139488,139531,139531,139567,139567,139603,139636,139672,139672,139712,139792,139816,139896,139926,139963,139996,139996,139996,140036,140037,140037,140048,140049,140096,140121,140121,140172,140173,140185,140185,140228,140289,140289,140310,140310,140356,140356,140383,140384,140421,140421,140455,140458,140459,140480,140480,140504,140537,140575,140575,140590,140590,140590,140608,140609,140609,140609,140650,140650,140651,140666,140666,140666,140667,140695,140696,140696,140733,140733,140733,140742,140742,140742,140742,140788,140788,140788,140788,140819,140819,140819,140819,140819,140820,140917,140917,140917,140917,140917,140918,140918,140919,140919,140922,140922,140931,140932,140932,140932,140932,140932,140932,140957,140958,140958,140959,140960,140961,140961,140962,140962,140974,140974,140975,140975,140976,140976,140977,141009,141010,141011,141019,141020,141020,141077,141077,141077,141116,141117,141117,141117,141117,141145,141146,141146,141176,141177,141177,141177,141177,141223,141223,141224,141226,141227,141259,141259,141259,141275,141276,141276,141276,141276,141321,141322,141322,141322,141347,141348,141348,141401,141402,141479,141480,141480,141480,141480,141503,141504,141607,141759,141783,141815,141816,141816,141842,141842,141876,141877,141911,141912,141943,141943,141967,141968,141968,141993,141993,142039,142063,142575" d="m326.5,312.5c-1.70001,0 -2.56772,-0.00943 -3.5,0.16666c-0.88187,0.16656 -1.58679,0.36307 -2.37067,0.595c-1.302,0.38525 -1.75089,0.55835 -2.67749,0.88651c-0.9314,0.32983 -1.38266,0.51572 -2.2825,0.7825c-1.21649,0.36069 -1.94763,0.49203 -2.91202,0.548c-1.08905,0.0632 -1.80847,-0.07352 -2.59567,0.07849c-0.93427,0.18042 -1.755,0.88068 -2.547,0.9415c-0.93726,0.07196 -1.63065,0.00134 -2.70398,0.00134c-0.91068,0 -1.81067,0.00067 -2.71066,0c-0.90002,-0.00067 -1.73541,-0.12347 -2.40002,-0.7045c-0.63641,-0.55637 -1.87744,-1.0885 -1.828,-1.8595c0.04382,-0.68335 1.32202,-0.34039 2.02802,0.064c0.79343,0.45447 1.70001,0.5 2.60001,0.5c0.89999,0 1.69998,0 2.60001,0c0.93597,0 1.7984,-0.10956 2.64731,0.05716c0.92673,0.18201 1.5976,1.01276 2.21518,1.44284c0.87192,0.60718 1.49347,0.69345 2.45834,1.02084c0.68021,0.2308 1.67377,0.60153 2.46481,1.13184c0.72067,0.48309 1.49374,1.21274 2.10983,1.58566c0.72516,0.43896 1.66943,0.64523 2.57117,0.92831c0.67517,0.21198 1.69666,0.58075 2.45868,0.89468c0.73398,0.3024 1.37952,0.97882 1.97598,1.45599c0.78253,0.62604 1.46179,1.00244 2.25467,1.452c1.00861,0.57184 1.39368,0.79904 2.20935,1.27066c0.82166,0.4751 1.58063,0.94061 2.54868,1.39584c0.79001,0.37149 1.54236,0.96472 1.98599,1.51349c0.64078,0.7926 1.56619,1.00684 2.10001,1.61234c0.58267,0.66095 0.91394,1.50153 1.63333,2.23834c0.62518,0.64032 1.1402,1.00226 1.89865,1.42932c0.92462,0.52066 1.79489,0.88525 2.26801,1.59152c0.53094,0.7926 1.09158,1.45978 1.33334,2.3125c0.25275,0.89145 0.1644,1.66132 0.16666,2.69598c0.00211,0.97067 0.00369,1.77066 0,2.60666c-0.00452,1.02121 -0.01746,1.81586 -0.44299,2.56403c-0.49399,0.86853 -0.96375,1.20221 -1.75684,1.99982c-0.58783,0.59119 -1.12585,1.16058 -1.91617,1.91483c-0.62344,0.595 -1.36221,1.09851 -2.09467,1.48535c-0.97998,0.51758 -1.53827,0.89993 -2.62268,1.23334c-0.77158,0.23721 -1.65198,0.16666 -2.37732,0.16666c-0.98917,0 -1.95334,0 -2.90533,0c-0.76801,0 -1.70944,0.0112 -2.39999,0c-1.10977,-0.01801 -1.96097,-0.30139 -2.65866,-0.57468c-0.93115,-0.36475 -1.78363,-0.65927 -2.52536,-1.07266c-0.76367,-0.42563 -1.54431,-0.83435 -2.46664,-1.186c-0.65109,-0.24823 -1.5426,-0.28372 -2.52133,-0.73734c-0.58444,-0.27087 -1.18835,-0.66232 -1.884,-1.03198c-1.16064,-0.61676 -2.03589,-0.99744 -2.48935,-1.18668c-0.92014,-0.38403 -1.383,-0.57513 -2.772,-1.04401c-0.87814,-0.29642 -1.74142,-0.54102 -2.16666,-0.66666c-0.85284,-0.25201 -2.16843,-0.66159 -3.08133,-0.98267c-0.46326,-0.16293 -1.37253,-0.50946 -2.25168,-0.8075c-1.16132,-0.39371 -1.81024,-0.54459 -2.60449,-0.689c-1.06152,-0.19299 -1.83813,-0.48297 -2.57718,-0.73685c-0.96982,-0.33313 -1.83072,-0.45789 -2.50616,-0.82565c-1.0202,-0.55548 -1.57214,-1.1192 -2.17917,-1.633c-0.79099,-0.66949 -1.40884,-1.05902 -2,-1.45068c-1.01553,-0.67285 -1.59625,-1.19275 -2.14282,-1.72198c-0.78189,-0.75708 -1.33429,-1.36725 -1.96616,-1.95718c-0.64359,-0.60086 -1.46069,-1.17535 -1.931,-1.52084c-0.70209,-0.51581 -1.28632,-1.49088 -2.04535,-2.09064c-0.68253,-0.53931 -1.38635,-0.90341 -1.73999,-1.68402c-0.36716,-0.81049 -1.17526,-1.30865 -2.07483,-1.40015c-0.78574,-0.07993 -1.5336,-0.40125 -2.41583,-0.71585c-0.94583,-0.33728 -1.70279,-0.78452 -2.48401,-1.11734c-0.75153,-0.32019 -1.70001,-0.16666 -2.60001,-0.16666c-0.89999,0 -1.79999,0 -2.69998,0c-0.90134,0 -1.86667,0 -2.55734,0c-0.91467,0 -1.78516,0 -2.78268,0c-0.67331,0 -1.85999,0 -2.65198,0c-0.90933,0 -1.87466,0 -2.53336,0c-1.00798,0 -1.92732,0 -2.82732,0c-0.69467,0 -1.722,0 -2.66884,0c-0.69933,0 -1.6785,0 -2.65767,0c-0.85416,0 -1.7735,0 -2.67799,0c-0.74733,0 -1.7415,0 -2.50684,0c-1.08333,0 -2.00267,0 -2.66133,0c-1.008,0 -1.87016,0 -2.77467,0c-0.92082,0 -1.88666,0 -2.64667,0c-0.92,0 -1.71049,0 -2.564,0c-1.18933,0 -1.78934,0 -2.68933,0c-0.89999,0 -1.8,0 -2.7,0c-0.90001,0 -1.80017,-0.01352 -2.7,0.00449c-0.90038,0.01801 -1.50786,0.03809 -2.70001,0.27951c-0.90714,0.18372 -1.49139,0.41364 -2.7,0.59451c-0.59679,0.08932 -1.49997,0.11481 -2.7,0.12149c-0.60132,0.00336 -1.52228,0.00089 -2.15717,0.05716c-1.36882,0.12131 -2.09966,0.29733 -2.86366,0.44284c-0.78333,0.1492 -1.97791,0.34689 -2.78717,0.41599c-0.8549,0.073 -1.31709,0.08231 -2.33501,0.13669c-0.56905,0.0304 -1.85715,0.11191 -2.58699,0.16882c-0.79019,0.06161 -1.64003,0.13531 -2.55,0.21451c-0.97003,0.08444 -1.99991,0.17569 -3.09,0.26849c-1.14992,0.0979 -3.62985,0.29745 -4.95683,0.39532c-1.36769,0.10086 -2.75757,0.19717 -4.15051,0.28952c-1.37674,0.09128 -2.71858,0.17599 -4.0065,0.25348c-1.21475,0.07309 -3.3494,0.19223 -4.2365,0.23569c-0.76892,0.03766 -1.43193,0.06604 -2.00099,0.08548c-0.48695,0.01663 -0.90399,0.02661 -1.263,0.03152c-0.31299,0.00427 -0.849,0.00449 -1.09433,0.00449c-0.23734,0 -0.46867,0 -0.69601,0c-0.22533,0 -0.67799,0 -1.64682,0c-0.8145,0 -1.68301,0 -2.57851,0c-0.89549,0 -1.76401,0 -2.83333,0c-0.72301,0 -1.464,0 -2.66667,0c-0.752,0 -1.576,0 -2.424,0c-0.82401,0 -1.912,0 -2.8,0c-0.834,0 -1.776,0 -2.528,0c-0.82401,0 -1.672,0 -2.496,0c-1.08749,0 -1.944,0 -2.84799,0c-1.00851,0 -1.86118,0 -2.82567,0c-0.82501,0 -1.425,0 -2.74501,0c-0.71866,0 -1.46933,0 -2.24399,0c-0.79068,0 -1.98901,0 -2.78033,0c-0.76733,0 -1.83833,0 -2.76601,0c-1.00133,0 -1.64034,0 -2.65649,0c-0.95801,0 -1.88651,0 -2.63718,0c-0.81467,0 -1.63733,0 -2.412,0c-1.196,0 -2.13217,0.0181 -3.03732,0c-0.90054,-0.01801 -1.68282,-0.4754 -2.46667,-1c-0.64801,-0.43369 -1.44499,-0.78012 -2.232,-1.20132c-0.776,-0.41531 -1.58526,-1.11566 -1.96533,-1.61334c-0.64529,-0.84497 -1.31907,-1.16592 -2.12,-1.75467c-0.55244,-0.4061 -1.34933,-1.26401 -1.89066,-1.80533c-0.50934,-0.50934 -1.278,-1.2735 -1.8,-1.76401l-0.93867,-0.69199l-0.76534,-0.39069l-0.40533,-0.69464" id="svg_27" stroke-width="2" stroke="#000" fill="none"/>
  <path t="143449,143552,143552,143552,143576,143576,143576,143615,143615,143615,143626,143626,143626,143626,143656,143656,143689,143689,143728,143728,143728,143757,143791,143791,143808,143832,143832,143912,143912,143936,143936,143984,144008,144040,144040,144079,144115,144149,144149,144149,144149,144187,144187,144187,144187,144217,144217,144217,144258,144258,144258,144258,144258,144316,144316,144316,144317,144320,144321,144321,144344,144344,144344,144368,144369,144369,144369,144369,144392,144392,144392,144392,144437,144437,144474,144474,144474,144474,144497,144497,144498,144498,144498,144498,144498,144519,144519,144519,144520,144520,144567,144567,144567,144567,144568,144578,144578,144578,144610,144610,144610,144610,144646,144646,144646,144646,144649,144649,144649,144649,144703,144703,144703,144727,144727,144759,144759,144759,144806,144806,144821,144821,144821,144842,144843,144880,144933,144934,144985,144985,144985,145015,145015,145015,145055,145088,145088,145088,145123,145123,145159,145209,145279,145288,145367,145439,145440,145471,145519,145623,145671,145751,145751" d="m237.5,290.5c-2.95717,0 -3.52083,0 -4.40134,0c-1.19867,0 -1.79866,-0.00006 -2.69867,0c-1.2,0.00009 -1.80176,-0.02853 -2.7,0.03601c-1.20398,0.08652 -1.80002,0.24252 -2.67917,0.46399c-0.83682,0.21082 -1.83331,0.44733 -2.71016,0.48932c-1.00957,0.04834 -1.81067,0.01068 -2.81067,0.01068c-0.78934,0 -1.51466,-0.00067 -2.5,0c-0.98399,0.00067 -1.72179,-0.10052 -2.61467,0.284c-0.95695,0.41211 -1.64249,0.71375 -2.5425,0.716c-0.74733,0.00186 -1.7415,0 -2.50684,0c-1.07883,0 -1.936,0 -2.836,0c-0.8,0 -1.70317,-0.05603 -2.5625,0.02084c-0.94499,0.08453 -1.80563,0.33176 -2.47917,0.5c-0.71588,0.1788 -1.79196,0.47815 -2.79666,0.77466c-0.62018,0.18304 -1.46936,0.44952 -2.48167,0.62183c-0.73904,0.12579 -1.62604,0.22784 -2.76532,0.52533c-0.93069,0.24301 -1.41556,0.40948 -2.41335,0.70667c-0.49045,0.14609 -1.82893,0.54547 -2.56267,0.68002c-0.89136,0.16345 -1.70399,0.16931 -2.90666,0.17065c-0.68266,0.00076 -1.38133,0 -2.69867,0c-0.56532,0 -1.584,-0.00113 -2.66666,0c-0.63734,0.00067 -1.33913,-0.00027 -2.08801,0.03601c-0.78197,0.03787 -1.98027,0.1741 -2.76965,0.31665c-1.14005,0.20584 -1.83301,0.3974 -2.76601,0.52585c-0.99698,0.13724 -2.04315,0.11121 -2.67,0.12598c-0.78941,0.01859 -1.48586,0.07224 -2.90134,0.21686c-0.5787,0.05914 -1.19653,0.13251 -2.51334,0.27866c-0.67827,0.07529 -1.35632,0.1507 -2.02499,0.216c-1.26605,0.12369 -2.39163,0.20691 -3.38933,0.24799c-0.46054,0.01895 -1.326,0.03275 -2.54401,0.03601c-0.79866,0.00214 -1.58986,-0.00208 -2.364,0.03601c-0.75139,0.03696 -2.15208,0.24161 -2.8,0.38931c-0.93364,0.21283 -1.8327,0.44003 -2.74049,0.51752c-0.92928,0.07935 -1.58084,0.0535 -2.61684,0.05731c-0.73135,0.00269 -1.85518,0.01324 -2.59467,0.08517c-1.06616,0.1037 -1.73232,0.25223 -2.67334,0.52533c-0.61316,0.17795 -1.80545,0.59598 -2.66899,0.8685c-0.7688,0.24261 -1.74156,0.44135 -2.50967,0.60486c-0.8078,0.17197 -1.5446,0.44901 -2.34933,0.63199c-1.2196,0.27734 -1.90796,0.27594 -2.84933,0.284c-0.78148,0.00668 -1.85561,-0.0643 -2.69033,0.22134c-0.88605,0.30322 -1.64519,0.71814 -2.575,0.78934c-0.62662,0.048 -1.62072,0.27612 -2.58884,0.48932c-0.6779,0.14929 -1.64242,0.3627 -2.46033,0.44284c-0.85022,0.08331 -1.90417,0.05716 -2.85217,0.05716c-0.672,0 -1.66133,0 -2.696,0c-0.768,0 -1.67066,0 -2.57066,0c-0.9,0 -1.81052,-0.13272 -2.7,0.00449c-0.93138,0.14368 -1.68097,0.42719 -2.34283,1.04819c-0.60449,0.5672 -0.3,1.64734 0.14283,2.46817l0.37867,0.80032l0.14666,0.8175" id="svg_28" stroke-width="2" stroke="#000" fill="none"/>
  <path t="153450,153551,153579,153621,153655,153655,153697,153697,153708,153783,153831,153887,153935,153959,154111,154111,154295,154296" d="m373.5,250.5c-0.57468,1.60001 -0.84894,2.41261 -1.00449,3.3c-0.16299,0.9299 -0.71432,1.44777 -1.2955,2.34816c-0.41022,0.63553 -1.35049,1.11191 -1.67917,1.87268c-0.34875,0.80728 -0.02084,1.77914 -0.02084,2.67917c0,0.89999 0,1.79999 0,2.59998l0.22134,0.85684l0.49466,-0.54483" id="svg_29" stroke-width="2" stroke="#000" fill="none"/>
  <path t="154811,154883,154884,154903,154903,154904,154935,155023,155024,155035,155075,155135,155135,155159,155201,155263,155263,155319,155320" d="m375.5,253.5c-0.436,1.84666 -0.72424,2.45378 -1.09982,3.42117c-0.30569,0.78738 -0.54526,1.56842 -0.81616,2.60815c-0.25278,0.97012 -0.8288,1.50839 -1.048,2.37067c-0.22195,0.87314 -0.30386,1.81549 -0.83734,2.39999c-0.65689,0.7197 -1.11465,1.40134 -1.36533,2.36667l-0.25867,0.65869l-0.40802,1.008l-0.15598,0.79199" id="svg_30" stroke-width="2" stroke="#000" fill="none"/>
  <path t="156291,156392,156415,156415,156439,156439,156439,156471,156471,156471,156525,156525,156563,156563,156563,156610,156659,156723,156723,156727,156727,156871,156903,156951,156999,157043,157043,157079,157127,157127,157231" d="m315.5,227.5c-0.05716,1.75717 -0.38501,2.65039 -0.57468,3.24667c-0.3678,1.15628 -0.37222,1.98177 -0.478,2.80066c-0.13385,1.0363 -0.36569,1.72447 -0.65182,2.34816c-0.46707,1.01804 -0.89767,1.80342 -1.2955,2.60451c-0.39148,0.78828 -0.65915,1.53285 -1,2.47917c-0.30414,0.84442 -0.84097,1.68591 -0.97467,2.34616c-0.20364,1.00571 -0.77219,1.70198 -0.98932,2.57466c-0.21747,0.87408 -0.03601,1.8 -0.03601,2.70001c0,0.89999 0,1.7 0,2.536l0,1.01666l0,0.69467l0,1.01666" id="svg_31" stroke-width="2" stroke="#000" fill="none"/>
  <path t="159511,159583,159583,159615,159615,159615,159648,159648,159682,159740,159741,159747,159747,159747" d="m396.5,204.5c-0.35718,3.54283 -0.60425,4.19246 -1.10001,5.2c-0.29617,0.6019 -0.71027,1.39496 -1.1955,2.39551c-0.27435,0.5657 -0.51486,1.70395 -0.92618,2.50482c-0.32544,0.63365 -1.09964,1.44217 -1.431,1.90051l-0.52197,0.71249" id="svg_32" stroke-width="2" stroke="#000" fill="none"/>
  <path t="160304,160383,160383,160383,160409,160409,160409,160409,160410,160454,160454,160454,160454,160456,160456,160482,160483,160516,160517,160517,160551,160552,160559,160559,160559,160595" d="m409.5,203.5c0,2.96617 0,3.5625 0,4.21883c0,1.52383 0,1.94917 0,2.83183c0,0.89868 0,1.78134 0,3.00618c0,0.72433 0,1.68582 0,2.25516c0,1.23083 0.01517,2.08363 -0.00134,3.08934c-0.01016,0.61972 -0.13763,1.77261 -0.35583,2.54683c-0.22519,0.79901 -0.61295,1.73721 -1.04282,2.3905c-0.56207,0.8542 -0.98935,1.48666 -1.31467,2.17734l-0.31067,1.03732" id="svg_33" stroke-width="2" stroke="#000" fill="none"/>
  <path t="161912,162071,162095,162095,162119,162120,162149,162149,162149,162196,162196,162211,162241,162241,162289,162336,162336,162336,162336,162351,162352,162378,162378,162411,162411,162411" d="m297.5,321.5c-1.2215,0.87866 -2.1666,1.15582 -2.70001,1.76166c-0.58176,0.66074 -0.89999,1.47443 -1.46664,2.23834c-0.45792,0.61734 -0.99319,1.17889 -1.81183,1.97833c-0.60019,0.58612 -1.48557,0.86551 -2.22153,1.30701c-0.67859,0.40707 -1.3299,1.29642 -2.29999,1.548c-0.5401,0.14008 -1.49985,0.15289 -2.142,0.16217c-1.30322,0.01883 -2.10165,0.00449 -3.01965,0.00449c-0.80002,0 -1.75952,0 -2.55301,0l-0.77551,0" id="svg_34" stroke-width="2" stroke="#000" fill="none"/>
  <path t="164681,164775,164814,164814,164814,164814,164871,164871,164872,164872,164872,165007,165007,165007,165007,165007,165007,165007" d="m129.5,151.5c2.5,0.54167 3.18329,1.15102 3.65717,1.67067c0.57423,0.6297 0.98935,1.16116 1.5425,2.19417c0.42706,0.79753 0.76743,1.73645 0.92834,2.23917c0.16678,0.521 0.54773,2.22804 0.62917,2.838c0.08272,0.61951 0.18149,1.866 0.222,2.47467l0.03549,0.58867l0.06801,1.08533" id="svg_35" stroke-width="2" stroke="#000" fill="none"/>
 </g>
 <g display="none">
  <title>muse_image</title>
  <image xlink:href="http://farm1.static.flickr.com/92/232444751_a428324572.jpg" id="muse" height="472" width="640" y="4" x="0"/>
 </g>
 <g display="none">
  <title>bbox</title>
  <rect stroke="#f00" fill="none" stroke-width="3" height="262.22222" width="431.36" y="116.56369" x="29.44" id="bbox"/>
 </g>
</svg>
