<svg width="640" height="480" xmlns="http://www.w3.org/2000/svg" xmlns:svg="http://www.w3.org/2000/svg" xmlns:xlink="http://www.w3.org/1999/xlink">
 <!-- Sketchy ANNOTATION
  ImageNet ID: n02691156_6382
  URL: http://farm1.static.flickr.com/23/33041999_713888dc3c.jpg
  Image Width: 500
  Image Height: 280
  BBox X: 10
  BBox Y: 49
  BBox Width: 490
  BBox Height: 159
  Exposure: 2000ms
  Synset Label: airplane
  Synset ID: n02691156
  Worker Tag: an airplane landing
  Sanity Check: 
   Context
   Saved
   Shading
  Comment: 
   {}
  Worker ID: A1E9VI5RSZI31F
  Assignment ID: 369J354OFDAX10RO8N8JJR9TPO9G6T
  HIT ID: 3P888QFVX3UCGBTCLDUN5L41EPHQO8
  Work Time: 288s
  Worker Score: 0.9286
 END ANNOTATION -->
 <g display="inline">
  <title>Layer 1</title>
  <path t="5892,5997,5997,6013,6013,6013,6030,6045,6045,6062,6062,6062,6078,6078,6078,6095,6095,6112,6112,6128,6128,6145,6145,6162,6182,6182,6182,6198,6212,6228,6228,6246,6246,6262,6262,6278,6295,6295,6312,6312,6328,6345,6345,6345,6362,6362,6378,6378,6378,6395,6395,6395,6412,6412,6428,6445,6445,6462,6462,6462,6478,6478,6478,6495,6495,6512,6512,6528,6528,6528,6545,6545,6562,6562,6578,6578,6578,6578,6595,6595,6595,6612,6612,6612,6628,6628,6645,6645,6662,6662,6678,6678,6678,6678,6695,6712,6712,6712,6737,6737,6750,6750,6762,6762,6787,6787,6799,6799,6812,6812,6828,6828,6828,6828,6845,6845,6862,6862,6887,6887,6887,6887,6899,6899,6899,6899,6928,6928,6945,6945,6945,6945,6945,6962,6962,6962,6978,6978,6978,6995,6995,6995,7012,7028,7028,7028,7045,7045,7062,7062,7062,7078,7078,7078,7078,7078,7095,7095,7095,7095,7112,7112,7128,7128,7128,7145,7145,7162,7162,7162,7178,7195,7195,7212,7212,7228,7228,7228,7245,7245,7262,7262,7262,7278,7278,7278,7295,7295,7295,7312,7312,7328,7328,7328,7345,7345,7345,7362,7362,7378,7378,7395,7395,7412,7412,7428,7428,7428,7445,7445,7462,7462,7462,7478,7478,7478,7495,7495,7495,7495,7512,7512,7512,7528,7528,7528,7545,7545,7545,7562,7562,7562,7562,7578,7578,7595,7595,7612,7612,7612,7612,7628,7628,7628,7645,7645,7645,7645,7662,7662,7663,7663,7678,7679,7679,7679,7679,7695,7695,7695,7713,7713,7714,7714,7728,7728,7728,7728,7745,7745,7745,7745,7767,7768,7768,7768,7768,7779,7780,7780,7780,7795,7795,7796,7816,7816,7816,7830,7830,7830,7830,7830,7845,7845,7845,7846,7862,7862,7878,7878,7879,7895,7895,7912,7912,7912,7936,7936,7946,7946,7946,7965,7965,7965,7966,7981,7996,7997,7997,8012,8012,8012,8028,8028,8045,8045,8062,8062,8063,8063,8078,8078,8078,8079,8095,8095,8095,8112,8112,8112,8128,8128,8128,8129,8145,8145,8162,8162,8162,8163,8178,8178,8178,8179,8195,8195,8195,8212,8212,8212,8228,8228,8228,8245,8245,8246,8246,8262,8263,8263,8263,8278,8279,8279,8279,8279,8308,8308,8309,8309,8309,8312,8312,8313,8313,8328,8328,8328,8345,8345,8345,8362,8362,8362,8363,8363,8378,8378,8378,8379,8395,8395,8395,8415,8415,8416,8416,8416,8435,8436,8436,8436,8436,8455,8456,8456,8456,8456,8474,8474,8475,8475,8475,8493,8494,8494,8494,8494,8511,8512,8512,8512,8530,8531,8531,8531,8551,8551,8551,8552,8552,8570,8570,8571,8571,8571,8589,8589,8589,8590,8590,8590,8608,8608,8609,8609,8609,8626,8627,8627,8627,8627,8628,8647,8647,8647,8647,8665,8666,8666,8666,8667,8686,8686,8687,8705,8705,8706,8706,8724,8725,8725,8743,8744,8744,8762,8763,8763,8763,8782,8782,8803,8804,8804,8823,8824,8824,8824,8824,8853,8854,8854,8854,8870,8871,8871,8887,8888,8888,8906,8907,8907,8926,8926,8945,8946,8946,8964,8964,8965,8965,8985,9006,9006,9056,9056,9068,9069,9086,9086,9106,9106,9126,9145,9145,9164,9164,9185,9186,9186,9204,9205,9205,9224,9224,9225,9243,9244,9244,9263,9263,9283,9283,9284,9303,9303,9323,9323,9323,9343,9344,9374,9374,9374,9383,9384,9384,9401,9421,9440,9440,9461,9462,9479,9479,9499,9520,9521,9539,9539,9558,9578,9578,9598,9599,9618,9646,9646,9657,9676,9697,9697,9718,9718,9719,9738,9738,9757,9757,9777,9796,9797,9818,9845,9866,9894,9895,9950,10076,10092,10092,10134,10181" d="m57.5,260c0.80133,0.19733 1.44844,-0.37463 2,-1.16666c0.4404,-0.63239 0.83947,-1.32355 1.38933,-2.20801c0.47939,-0.7711 0.47051,-1.70508 0.944,-2.45866c0.40639,-0.64679 1.26248,-1.08301 1.78133,-1.936c0.43406,-0.71358 0.66994,-1.55377 1.084,-2.54401c0.27133,-0.6489 0.57822,-1.7034 0.91116,-2.43933c0.35571,-0.78627 1.12537,-1.36281 1.55683,-2.08066c0.48569,-0.80807 0.80594,-1.55136 1.33334,-2.33334c0.43089,-0.63889 0.81931,-1.33624 1.38934,-2.19733c0.54541,-0.8239 0.778,-1.63553 1.22133,-2.272c0.59023,-0.84737 0.91865,-1.58722 1.48933,-2.34233c0.5378,-0.71159 1.49967,-0.93491 2.1,-1.591c0.49581,-0.54187 1.06617,-1.49945 1.44283,-2.12616c0.46763,-0.77806 0.76561,-1.65797 1.39883,-2.3045c0.53334,-0.54456 1.38147,-1.08102 2.12234,-1.62534c0.69374,-0.50969 1.19729,-1.21979 1.58867,-1.77916c0.70754,-1.01123 1.24263,-1.57924 1.76333,-2.11017c0.72039,-0.73454 1.28267,-1.284 1.984,-1.98534c0.70133,-0.70134 1.25101,-1.26338 1.98666,-1.98534c0.55044,-0.54018 0.95416,-0.94499 1.9345,-1.71432c0.51639,-0.40524 1.2851,-0.98853 2.2455,-1.46701c0.76884,-0.38306 1.50502,-0.9247 1.96934,-1.51866c0.64566,-0.82594 1.23561,-1.13191 1.88,-1.69867c0.79424,-0.69855 1.15237,-1.54459 1.97066,-1.948c0.70932,-0.34969 1.69744,-0.46727 2.466,-0.88234c0.56114,-0.30305 1.37723,-0.871 2.12583,-1.48549c0.69884,-0.57364 1.29242,-1.1754 2.12134,-1.77884c0.75803,-0.55183 1.35294,-0.87053 2.04749,-1.66949c0.53603,-0.61661 1.24749,-1.14334 2.10001,-1.40001c0.91806,-0.2764 1.46307,-0.77008 2.19533,-1.49432c0.46304,-0.45798 1.18358,-1.19803 1.68934,-1.60417c0.91898,-0.73798 1.95355,-0.97856 2.604,-1.3c0.79144,-0.39111 1.55532,-1.04472 2.14317,-1.5325c0.84381,-0.70018 1.53693,-0.95219 2.50484,-1.30482c0.70406,-0.2565 1.6768,-0.52432 2.4,-0.88533c0.83844,-0.41853 1.22935,-1.071 2.09499,-1.58818c0.67832,-0.40526 1.52843,-0.73125 2.37901,-1.30049c0.64776,-0.43352 1.25557,-0.93036 2.142,-1.442c0.7695,-0.44415 1.69041,-0.80637 2.37151,-1.26167c0.8761,-0.58566 1.49519,-0.89606 2.17017,-1.25916c0.71434,-0.38426 1.79448,-0.97438 2.47032,-1.37651c0.63336,-0.37686 1.4433,-0.93993 2.3455,-1.36017c0.80869,-0.37668 1.64818,-0.73375 2.19583,-1.09583c0.64014,-0.42322 1.3004,-0.91573 1.98001,-1.38c1.18658,-0.81062 1.67157,-1.17715 2.64932,-1.47867c0.97679,-0.30121 1.82561,-0.26778 2.36467,-0.39783c1.05318,-0.25409 1.88417,-0.92705 2.466,-1.32217c0.82669,-0.5614 1.80209,-0.806 2.52834,-1.06799c0.63983,-0.23082 1.64925,-0.36656 2.4375,-0.52083c1.20506,-0.23586 1.67595,-0.74768 2.44049,-1.33101c0.70657,-0.53909 1.41505,-0.77644 2.203,-1.02283c0.84398,-0.2639 1.73059,-0.46049 2.93417,-0.9465c0.73691,-0.29758 1.37155,-0.67613 1.97699,-0.96899c1.03012,-0.49831 1.95914,-0.62523 2.96617,-0.87651c0.61079,-0.1524 1.3947,-0.54869 2.39999,-1.032c0.59694,-0.28699 1.59813,-0.64555 2.38934,-0.776c0.72375,-0.11932 1.68724,-0.58055 2.37733,-1.02533c0.80798,-0.52077 1.65623,-0.90584 2.49466,-0.98933c0.87706,-0.08734 1.60164,0.07591 2.57066,-0.09599c0.98494,-0.17473 1.54907,-0.6696 2.53867,-1.11467c0.75452,-0.33936 1.3383,-0.50008 2.52917,-0.90001c0.59564,-0.20004 1.47169,-0.48045 2.53349,-0.89999c0.7148,-0.28244 1.54567,-0.70906 2.36684,-0.87849c0.80975,-0.16708 1.96721,-0.09595 2.7525,-0.13051c0.82362,-0.03624 1.90836,-0.276 2.58566,-0.69633c0.6445,-0.39998 1.43114,-1.07626 2.08701,-1.30933c0.84796,-0.30133 1.6933,-0.7422 2.6265,-0.92818c0.7058,-0.14066 1.76572,-0.00311 2.53351,-0.12917c1.06581,-0.17497 1.75505,-0.63049 2.368,-1.07733c0.82831,-0.60384 1.6566,-0.83467 2.61732,-0.85199c0.77113,-0.0139 1.63846,-0.04672 2.52934,-0.22017c0.90816,-0.17682 1.50117,-0.38556 2.7,-0.7785c0.6006,-0.19685 1.49174,-0.51337 2.39999,-0.71466c0.89299,-0.19791 1.79262,-0.23001 2.64284,-0.33801c1.04114,-0.13225 1.73326,-0.37978 2.40984,-0.65182c0.97089,-0.39041 1.78194,-0.69955 2.65184,-0.9955c0.89409,-0.30417 1.78828,-0.60432 2.37466,-0.77917c0.83185,-0.24805 1.83331,-0.46817 2.71016,-0.51016c1.00974,-0.04836 1.83151,-0.0041 2.97734,-0.01067c0.78604,-0.0045 1.62036,-0.01913 2.14932,-0.17067c1.03563,-0.29669 1.67139,-0.89333 2.45334,-1.26134c0.84348,-0.39697 1.90215,-0.51199 2.65199,-0.58266c0.78084,-0.07358 1.98108,-0.19333 2.77867,-0.3425c0.80266,-0.15012 1.60065,-0.34474 2.8,-0.64284c0.79776,-0.19827 1.58038,-0.39365 2.328,-0.60001c0.703,-0.19405 1.63171,-0.49379 2.42133,-0.79999c0.75835,-0.29407 1.89041,-0.71072 2.5605,-0.89551c0.70792,-0.19522 1.43542,-0.3913 2.86884,-0.58316c0.66624,-0.08917 1.64809,-0.13249 2.30533,-0.20534c1.04024,-0.1153 1.77715,-0.2616 2.53685,-0.45767c0.78812,-0.20341 1.98389,-0.61331 2.77783,-0.94232c0.79556,-0.3297 1.56253,-0.69695 2.31598,-1.03201c1.05994,-0.47136 1.72571,-0.73358 2.3645,-0.96317c0.91608,-0.32922 1.81699,-0.63222 2.71017,-0.91016c0.85016,-0.26456 1.89035,-0.48499 2.60666,-0.59601c0.77176,-0.11963 1.70807,-0.33543 2.45734,-0.584c0.8381,-0.27803 1.70654,-0.61636 2.58002,-0.948c0.83319,-0.31635 1.5882,-0.61104 2.58331,-0.94099c0.80603,-0.26726 1.80176,-0.42207 2.55133,-0.711c0.83514,-0.32191 1.52902,-0.87787 2.34933,-1.26268c0.97238,-0.45616 1.6763,-0.48071 2.68268,-0.73466c0.81522,-0.20572 1.5903,-0.59328 2.39999,-0.74933c0.79288,-0.15282 1.80423,-0.2948 2.64166,-0.60483c0.73251,-0.27119 1.5968,-0.59332 2.59836,-0.8685c0.67075,-0.18428 1.30847,-0.31618 2.49298,-0.558c1.03531,-0.21136 1.71091,-0.4951 2.32867,-0.75717c0.95547,-0.40533 1.75482,-0.71559 2.58566,-0.93834c1.02151,-0.27386 1.91263,-0.29619 2.93167,-0.3575c0.72058,-0.04335 1.52524,-0.32338 2.388,-0.7095c0.67807,-0.30347 1.38214,-0.65848 2.46634,-1.12349c0.67697,-0.29036 1.63855,-0.65199 2.26215,-0.80501c1.19275,-0.29268 1.80844,-0.26004 2.66852,-0.423c1.08411,-0.2054 1.78125,-0.65146 2.46133,-1.12399c0.93848,-0.65208 1.72333,-1.06696 2.27466,-1.29384c0.81039,-0.3335 1.80353,-0.75211 2.5,-1c1.14862,-0.40884 1.9614,-0.4527 2.52084,-0.5625c0.88892,-0.17447 1.79041,-0.60568 2.37915,-1.01633c0.9183,-0.64053 1.45276,-1.18972 2.39984,-1.5775c0.85672,-0.35078 1.74301,-0.35003 2.77884,-0.36467c0.69598,-0.00984 1.61246,-0.05222 2.608,-0.28516c0.56467,-0.13213 1.47299,-0.426 2.47998,-0.71467c0.71463,-0.20486 1.452,-0.38602 2.5235,-0.7c0.98032,-0.28726 1.80539,-0.60975 2.5965,-0.9c0.56418,-0.20699 1.57687,-0.50412 2.38486,-0.7045c0.88992,-0.2207 1.36469,-0.31572 2.33249,-0.58083c1.50256,-0.41161 1.99585,-0.59158 2.97467,-0.94c0.48093,-0.17119 1.40491,-0.52756 2.68799,-1.008c0.76013,-0.28463 1.4523,-0.52621 2.07602,-0.756c1.09357,-0.40289 1.78979,-0.74722 2.48267,-0.97467c1.17535,-0.38584 2.02472,-0.39822 2.62134,-0.49733c1.3295,-0.22084 2.03946,-0.50112 2.77866,-0.78934c0.75156,-0.29304 1.47583,-0.63451 2.55316,-0.90649c0.65692,-0.16584 1.61298,-0.24052 2.22018,-0.3255c1.20782,-0.16903 2.1225,-0.43697 2.75848,-0.62183c1.01004,-0.29359 1.7301,-0.49464 2.4895,-0.70617c0.80063,-0.22302 1.64511,-0.45929 2.97449,-0.91067c0.46338,-0.15733 1.3942,-0.50224 2.3175,-0.85333c0.45184,-0.17181 1.72693,-0.66161 2.49335,-0.94133c0.71631,-0.26142 1.42001,-0.50568 2.13599,-0.76801c1.17725,-0.43133 2.04562,-0.77053 2.504,-0.94133c0.94791,-0.35321 1.92542,-0.70766 2.92801,-1.008c0.99109,-0.29689 1.48352,-0.41833 2.4375,-0.625c0.8884,-0.19246 2.06146,-0.3836 2.70917,-0.45766c0.8313,-0.09505 1.62631,-0.13345 2.82401,-0.37067c0.70563,-0.13976 1.45691,-0.34051 2.23199,-0.6c1.20782,-0.40437 1.99655,-0.76343 2.39734,-0.928c0.79843,-0.32785 1.58551,-0.67487 2.80032,-0.94267c0.80103,-0.17658 1.64221,-0.23553 2.51401,-0.348c0.45682,-0.05893 1.93011,-0.33038 2.45367,-0.464c1.08652,-0.27728 1.63284,-0.44868 2.72665,-0.78249c0.53775,-0.16412 2.06216,-0.62797 2.53601,-0.76417c0.90738,-0.26083 1.78519,-0.50533 2.2175,-0.63667c1.32227,-0.40175 2.2345,-0.73 2.69998,-0.89549c0.931,-0.331 1.8378,-0.65599 2.2825,-0.7825c1.58786,-0.45172 2.31964,-0.51214 3.02002,-0.62c0.71838,-0.11064 1.89542,-0.38055 2.75015,-0.65466c0.88217,-0.28291 1.30585,-0.46438 2.14584,-0.72667c1.38983,-0.43398 1.97464,-0.48141 2.75415,-0.67333c1.1561,-0.28465 1.8045,-0.6 2.49918,-0.89467c0.69467,-0.29467 1.9509,-0.78662 2.73868,-0.93867c0.7049,-0.13605 1.68756,-0.26564 2.49731,-0.49733c0.87399,-0.25006 1.76126,-0.57248 2.65952,-0.8595c0.86594,-0.2767 1.41205,-0.46053 2.64734,-0.65183c0.64349,-0.09966 1.66635,-0.25181 2.51965,-0.59433c0.51459,-0.20657 1.80054,-0.78228 2.19083,-0.941c0.83096,-0.33793 1.69806,-0.68311 2.58002,-0.948c1.21298,-0.36431 1.95352,-0.45671 2.625,-0.56934c0.94077,-0.15779 1.85181,-0.4209 2.73099,-0.85067c0.58185,-0.28442 1.63095,-0.86306 2.358,-1.0395c0.8931,-0.21674 1.87668,-0.32041 2.66733,-0.53516c0.77844,-0.21144 1.66806,-0.36691 2.59067,-0.6845c0.76529,-0.26344 1.46185,-0.75984 2.01599,-1.0755c1.16876,-0.66575 1.76578,-0.95472 2.63702,-1.273c0.76276,-0.27866 1.75146,-0.41489 2.70831,-0.70833c0.67657,-0.20748 1.67239,-0.6445 2.45868,-0.85867c0.86563,-0.23578 1.58197,-0.53612 2.49066,-1.17467c0.66235,-0.46544 1.34601,-1.04369 2.05865,-1.36401c0.91553,-0.41151 1.89651,-0.52521 2.42535,-1.08266c0.71024,-0.74868 0.87164,-1.40845 1.56665,-2.35333c0.4592,-0.62428 1.04434,-1.19966 1.83334,-2c0.59125,-0.59975 1.09509,-0.91601 1.66666,-2c0.3006,-0.57011 0.34604,-1.46422 0.55469,-2.42117c0.17453,-0.80049 0.431,-1.56772 0.69598,-2.61083c0.19623,-0.77241 0.65634,-1.7341 1.08267,-2.48884c0.29868,-0.52876 0.83838,-1.54326 0.95834,-2.45833c0.13281,-1.01302 0.00885,-1.8258 0.09882,-2.42084c0.15347,-1.01517 0.57977,-1.8209 0.77618,-2.76667c0.16135,-0.77701 0.15518,-1.60801 0.16666,-2.66666c0.00998,-0.92001 -0.12552,-1.80357 0.436,-2.52c0.58514,-0.74657 1.4935,-1.0841 1.55331,-1.868c0.07446,-0.97572 0.01068,-1.75784 0.01068,-2.75717c0,-0.82017 0,-1.77867 0,-2.67867c0,-0.74733 0,-1.7415 0,-2.50684c0,-1.08333 0,-2.00267 0,-2.836c0,-0.83333 0,-1.6955 0,-2.636c0,-0.848 0,-1.71133 0,-2.60683c0,-0.95717 0,-1.8575 0,-2.5715c0,-0.955 0,-1.7065 0,-2.503c0,-1.2255 0,-2.07817 0,-3.08133c0,-0.76533 0,-1.716 0,-2.60133c0,-0.8 0,-1.7 0,-2.6c0,-0.92083 0,-1.884 0,-2.57467c0,-1.06817 0,-1.92533 0,-2.82533l0,-0.8l0,-0.9l0,-0.936" id="svg_2" stroke-width="2" stroke="#000" fill="none"/>
  <path t="12285,12593,12593,12662,12670,12695,12757,12798,12814,12814,12846,12861,12861,12886,12926,12950,12950,12990,13014,13014,13141,13141,13190,13206,13206,13222,13222,13238,13263,13263,13331,13460,13560,13622,13630,13670,13701,13701,13741,13749,13797,13805,13822,13829,13845,13861,13861,13878,13895,13949,13949,13998,13998,14045,14061,14061,14117,14134,14134,14158,14166,14237,14329,14329,14389,14398,14422,14461,14462,14528,14543,14566,14566,14621,14645,14645,14678,14701,14701,14726,14726,14742,14749,14773,14797,14821,14821,14845,14845,14861,14861" d="m58.5,260c-0.42533,1.82535 -0.83522,2.49112 -0.97917,3.47916c-0.13279,0.91144 -0.02083,1.82083 -0.02083,2.72086c0,0.89999 0,1.79999 0,2.59998c0,0.95718 0.24678,1.91754 -0.08533,2.63068c-0.38297,0.8223 -0.914,1.45599 -0.91467,2.39468c-0.00049,0.69064 0.0311,1.67517 -0.00134,2.65866c-0.02852,0.86465 -0.43726,1.72147 -0.71466,2.39999c-0.36839,0.90106 -0.19111,1.95908 -0.32,2.74133c-0.1453,0.88187 -0.65899,1.51416 -0.87867,2.48932c-0.19547,0.86771 -0.08533,1.68533 -0.08533,2.58536c0,0.89999 0,1.79999 0,2.69998c0,0.89999 -0.22102,1.88602 0.2215,2.69983c0.40372,0.74246 1.29351,1.05859 1.8625,1.61618c0.67258,0.65909 0.65738,1.51062 1.13733,2.16266c0.51398,0.69827 1.24658,1.0304 2.09983,1.34283c0.67881,0.24857 1.30511,1.15884 1.96416,1.69449c0.67513,0.54871 1.47563,0.81427 1.6575,1.73669c0.16735,0.84879 0.05717,1.84732 0.05717,2.66864c0,0.85333 0.17838,1.84674 -0.16667,2.67868c-0.32532,0.78436 -0.94384,1.47171 -1.48067,2.05267c-0.63633,0.68863 -1.31934,1.16791 -1.95266,1.522c-0.86125,0.48151 -1.80817,0.5419 -2.7,0.42084c-0.82138,-0.11151 -1.47284,-0.6347 -2.08933,-1.39551c-0.60254,-0.74359 -0.47063,-1.73184 -0.696,-2.39999c-0.3096,-0.91788 -0.86754,-1.6813 -0.91016,-2.54733c-0.04425,-0.89896 -0.0045,-1.81934 -0.0045,-2.65268c0,-0.97849 -0.01876,-1.79886 0,-2.70001c0.01801,-0.86453 0.71701,-1.31714 1.05267,-2.06165c0.38876,-0.86227 0.65183,-1.64285 1.04717,-2.43817l0.37933,-0.77933l0.3995,-0.99918l0.20533,-0.73502" id="svg_3" stroke-width="2" stroke="#000" fill="none"/>
  <path t="15729,16004,16004,16020,16020,16061,16085,16085,16109,16109,16125,16149,16180,16181,16206,16238,16238,16278,16278,16310,16342,16342,16390,16391,16430,16430,16470,16502,16502,16534,16558,16558,16574,16574,16590,16590,16606,16622,16622,16630,16630,16646,16662,16662,16678,16678,16695,16711,16711,16734,16734,16758,16758,16781,16814,16814,16830,16854,16854,16862,16862,16910,16910,16926,16926,16942,16942,16950,16961,16978,16978,16995,17011,17011,17028,17045,17045,17062,17078,17105,17120,17120,17138,17138,17150,17166,17166,17182,17195,17195,17211,17228,17228,17228,17245,17245,17245,17261,17261,17261,17278,17278,17278,17278,17295,17295,17295,17295,17311,17311,17328,17328,17345,17345,17366,17366,17366,17382,17395,17418,17439,17439,17439,17475,17475,17519,17519,17519,17519,17535,17535,17536,17536,17536,17552,17552,17552,17568,17569,17580,17580,17603,17618,17619,17619,17636,17636,17653,17654,17654,17665,17665,17665,17686,17686,17686,17703,17704,17704,17717,17719,17719,17736,17736,17736,17751,17751,17769,17769,17769,17786,17786,17803,17804,17818,17819,17835,17836,17847,17847,17847,17869,17870,17870,17886,17903,17918,17918,17931,17931,17953,17953,17954,17968,17986,17986,18003,18003,18016,18016,18016,18030,18031,18045,18061,18061,18061,18078,18078,18078,18095,18095,18095,18111,18111,18111,18128,18128,18158,18158,18171,18171,18182,18183,18183,18195,18196,18196,18211,18212,18228,18229,18229,18246,18246,18261,18262,18262,18279,18279,18279,18279,18294,18295,18295,18311,18312,18328,18344,18345,18361,18362,18378,18394,18395,18411,18412,18428,18429,18444,18445,18461,18462,18478,18479,18496,18496,18516,18516,18516,18536,18536,18536,18548,18549,18549,18549,18549,18561,18562,18578,18594,18595,18595,18611,18612,18612,18628,18629,18629,18644,18645,18662,18678,18679,18679,18694" d="m60.5,308c0.16667,1.83334 0.88829,1.95416 1.82533,2.01068c0.69343,0.04181 1.64559,0.55377 2.496,1.08914c0.65796,0.41422 1.53624,0.65546 2.268,0.92551c0.84808,0.31296 1.60764,0.93195 2.51083,0.97467c0.78429,0.03708 1.72517,0 2.73317,0c0.792,0 1.65067,0 2.514,0c0.89999,0 1.81933,0 2.65266,0c0.97867,0 1.75267,0 2.65266,0c0.86333,0 1.84734,0 2.83134,0c0.69067,0 1.76333,0 2.68266,0c0.83334,0 1.66667,0 2.58601,0c0.89999,0 1.59467,0 2.62199,0c0.94667,0 1.8,0 2.74133,0c0.76801,0 1.70934,0 2.71734,0c0.792,0 1.65067,0 2.514,0c0.89999,0 1.81933,0 2.65266,0c0.97867,0 1.75267,0 2.65266,0c0.86333,0 1.84734,0 2.83134,0c0.69067,0 1.76333,0 2.68266,0c0.83334,0 1.76562,0.32895 2.54667,-0.08533c0.8583,-0.45526 1.30888,-0.85944 2.26534,-0.91483c0.90781,-0.05258 1.65655,-0.39713 2.53733,-0.71585c0.83366,-0.30167 1.59119,-0.73697 2.484,-1.11734c0.75154,-0.32019 1.63681,-0.13043 2.65266,-0.17114c0.69611,-0.02789 1.52818,-0.46603 2.44733,-0.87418c0.66673,-0.29605 1.4377,-0.86624 2.3,-1.08533c0.87752,-0.22296 1.81237,-0.1123 2.57917,-0.55685c0.83913,-0.48645 1.16035,-1.31488 2.04166,-1.45831c0.94547,-0.15387 1.82825,-0.03387 2.47917,-0.54169c0.76826,-0.59933 1.28285,-1.24698 2.172,-1.50449c0.85757,-0.24835 1.60138,-0.40643 2.437,-0.67917c1.19283,-0.38931 1.77968,-0.61414 2.65501,-0.8595c1.0618,-0.29764 1.78539,-0.3671 2.46132,-0.46133c1.2007,-0.16742 2.0219,-0.40878 2.62134,-0.58533c0.64059,-0.18866 2.03629,-0.58832 2.76801,-0.78934c0.72429,-0.19897 1.42743,-0.36719 2.61333,-0.79868c0.71695,-0.26086 1.59456,-0.70605 2.39734,-0.79065c0.85536,-0.09012 1.82195,-0.03616 2.57449,-0.45334c0.83798,-0.46454 1.22107,-1.22009 2.27934,-1.51569c0.88779,-0.24799 1.84541,0.03772 2.6875,-0.20831c0.69254,-0.20233 1.43935,-0.62543 2.43784,-1.13785c0.63452,-0.32562 1.56,-0.86575 2.0835,-1.1795c0.87093,-0.522 1.51103,-0.91147 2.64532,-1.34933c0.82053,-0.31674 1.26564,-0.4165 2.14584,-0.64581c0.85657,-0.22318 2.03473,-0.48099 2.94482,-0.82083c0.72037,-0.26898 1.50475,-0.87878 2.20134,-1.26401c0.81166,-0.44885 1.72578,-0.35754 2.62199,-0.44049c0.92957,-0.08603 1.60213,-0.38916 2.26868,-0.79684c0.90564,-0.55392 1.43648,-1.10727 2.25333,-1.68134c0.73691,-0.51788 1.24666,-0.89606 2.30934,-1.27466c0.89749,-0.31976 1.63206,-0.34961 2.60533,-0.81201c0.84235,-0.40021 1.35095,-0.80331 2.39467,-1.40915c0.68813,-0.39941 1.36423,-0.74124 2.34265,-1.12134c0.79654,-0.30945 1.61685,-0.58737 2.65718,-0.77884c0.68076,-0.12527 1.54059,-0.13922 2.5215,-0.47852c0.61555,-0.21292 1.59999,-0.74283 2.39999,-1.14282c0.60001,-0.29999 1.60001,-0.79999 2.2,-1.10001c0.99985,-0.49997 1.80359,-0.86044 2.63333,-1.39999c0.55902,-0.36349 1.48798,-0.87979 2.1875,-1c0.9789,-0.16824 1.78,-0.45636 2.43634,-0.64734c0.95174,-0.27695 1.79253,-0.12698 2.68817,-0.43668c0.952,-0.32916 1.23422,-1.43951 2.02133,-1.74933c0.79077,-0.31125 1.80998,-0.392 2.49466,-0.77731c0.87839,-0.49432 1.60878,-0.72726 2.27617,-1.08936c0.95073,-0.51581 1.35191,-1.37015 2.08333,-1.77914c0.77361,-0.43259 1.66376,-0.53241 2.52184,-0.9635c0.73019,-0.36685 1.41846,-0.9209 2.31433,-1.31451c0.80869,-0.35532 1.52098,-0.78372 2.47633,-1.07617c0.65672,-0.20102 1.48994,-0.11008 2.5,-0.5c0.74734,-0.28851 1.28171,-0.96149 2.36684,-1.42383c0.78212,-0.33325 1.49492,-0.28232 2.4825,-0.52817c0.806,-0.20065 1.58694,-0.4473 2.50751,-1.01465c0.72713,-0.44812 1.46191,-1.00964 2.21432,-1.40002c0.79028,-0.41 1.57108,-0.85767 2.5955,-1.13333c0.79646,-0.21432 1.48331,-0.20871 2.42117,-0.60931c0.82053,-0.35049 1.54266,-0.90515 2.43599,-1.31467c0.73843,-0.3385 1.62976,-0.81012 2.16367,-1.26352c0.58224,-0.49445 1.38637,-1.08401 2.17917,-1.60449c0.8075,-0.53011 1.40002,-1.03699 2.036,-1.58533c0.92422,-0.79689 1.43661,-1.20337 1.98935,-1.56801c0.80615,-0.53183 1.84583,-1.0088 2.53867,-1.15999c0.82751,-0.18057 1.82361,-0.43478 2.57883,-0.70868c0.89587,-0.32491 1.84146,-0.47969 2.48251,-0.78867c1.0405,-0.50151 1.61063,-1.12404 2.37466,-1.48c0.86163,-0.40144 1.52667,-0.83672 2.28531,-1.28267c0.70013,-0.41156 1.72943,-0.61432 2.49384,-0.82216c0.87769,-0.23863 1.24197,-1.01411 2.1875,-1.64584c0.58923,-0.39368 1.67639,-0.2406 2.45868,-0.36932c0.88315,-0.14532 1.56802,-0.60202 2.57483,-0.84283c0.81003,-0.19376 1.51767,-0.21765 2.48517,-0.69318c0.86951,-0.42737 1.43646,-0.87259 2.31467,-1.59467c0.60971,-0.50131 1.1824,-1.04411 1.728,-1.57199c0.50482,-0.48843 1.45206,-1.45268 1.96301,-1.95233c0.72247,-0.70645 1.64047,-1.15355 2.31882,-1.26083c0.77359,-0.12234 1.85294,-0.33066 2.53302,-0.75801c0.6795,-0.42699 1.42438,-1.17776 2.25714,-1.64349c0.57974,-0.32422 1.59625,-0.59325 2.36401,-0.636c1.08179,-0.06024 2.00266,-0.17734 2.66135,-0.44667l0.69064,-0.36533l0.84802,-0.59866" id="svg_4" stroke-width="2" stroke="#000" fill="none"/>
  <path t="19272,19326,19334,19335,19347,19347,19347,19364,19364,19364,19364,19378,19378,19378,19394,19394,19394,19394,19411,19411,19411,19411,19428,19428,19429,19429,19444,19444,19444,19444,19462,19462,19462,19462,19462,19462,19478,19479,19479,19479,19479,19494,19494,19494,19495,19495,19495,19511,19511,19511,19511,19528,19528,19544,19544,19544,19568,19568,19568,19585,19595,19595,19612,19628,19628,19669,19701,19702,19911,19926,19947,19947,19947,19964,19964,19964,19964,19978,19978,19978,19978,19978,19994,19994,19994,19995,20011,20011,20011,20011,20012,20028,20029,20029,20029,20029,20044,20045,20045,20062,20062,20062,20062,20062,20078,20078,20079,20079,20079,20079,20100,20101,20101,20101,20101,20101,20101,20119,20120,20120,20120,20120,20136,20137,20137,20137,20137,20137,20148,20148,20148,20148,20148,20169,20170,20170,20170,20170,20170,20170,20188,20188,20188,20188,20188,20189,20195,20195,20195,20195,20195,20195,20195,20196,20228,20228,20228,20228,20228,20228,20274,20274,20274,20274,20275,20275,20275,20275,20275,20287,20287,20288,20288,20288,20288,20288,20288,20288,20303,20303,20303,20303,20303,20303,20303,20303,20303,20320,20320,20320,20320,20320,20320,20320,20320,20321,20332,20333,20333,20333,20333,20333,20333,20333,20334,20344,20345,20345,20345,20345,20345,20345,20345,20345,20361,20362,20362,20362,20362,20362,20362,20362,20362,20378,20379,20379,20379,20379,20379,20379,20379,20379,20394,20395,20395,20395,20395,20395,20395,20395,20395,20411,20412,20412,20412,20412,20412,20412,20412,20413,20429,20429,20429,20429,20429,20429,20430,20430,20430,20444,20444,20444,20445,20445,20445,20461,20461,20462,20462,20462,20478,20478,20479,20479,20479,20479,20494,20494,20495,20495,20495,20495,20495,20495,20495,20511,20511,20511,20512,20512,20512,20528,20528" d="m277.5,210c0.01068,-1.82533 -0.00058,-2.97847 0.5625,-3.45833c0.81195,-0.69196 1.7247,-0.4451 2.48932,-0.70868c1.07858,-0.37181 1.49606,-0.89494 2.17352,-1.59299c0.45901,-0.47298 1.44562,-1.29753 2.01065,-1.56801c0.84906,-0.40642 1.76599,-0.6662 2.66852,-0.9765c0.61771,-0.21237 1.58679,-0.56686 2.61682,-1.01683c0.73575,-0.32141 1.4762,-0.68401 2.22601,-1.026c1.08249,-0.49373 1.76855,-0.76242 2.40598,-1.02733c0.88867,-0.36932 1.69623,-0.76915 2.40302,-1.287c0.49722,-0.3643 1.28503,-1.04366 2.30798,-1.75966c0.38547,-0.26981 1.23102,-0.80722 1.67734,-1.07867c0.91071,-0.55392 1.37082,-0.82713 2.737,-1.57867c0.86484,-0.47574 1.29678,-0.69455 2.14667,-1.14665c0.85947,-0.45721 1.74167,-0.94075 2.65735,-1.45601c0.46567,-0.26202 1.3931,-0.78346 1.85599,-1.02133c0.88571,-0.45514 2.11108,-0.96112 2.8425,-1.13033c0.651,-0.1506 1.55463,-0.15491 2.53351,-0.45367c0.90466,-0.27611 1.69397,-0.86952 2.28534,-1.366c0.6091,-0.51137 1.36981,-1.22968 2.18933,-1.70067c0.70209,-0.40349 1.60999,-0.54103 2.53183,-0.86816c0.68124,-0.24176 1.21375,-1.12987 2.01218,-1.61183c0.74152,-0.44762 1.83395,0.00983 2.66666,-0.33334c0.67084,-0.27646 1.49979,-0.82291 2.30899,-0.83333c1.02426,-0.01318 1.70535,0 2.51233,0c1.17868,0 1.78314,-0.02834 2.72034,0.04167c0.67471,0.0504 1.79706,0.27339 2.62634,0.52766c0.88885,0.27254 1.33325,0.44814 2.22665,0.7825c1.2738,0.47672 2.03723,0.75737 2.73334,1.02283c0.96664,0.36862 1.87674,0.78323 2.47467,1.11067c0.62375,0.34158 1.26212,0.73854 1.96802,1.116c1.16034,0.62045 2.02835,0.99829 2.90848,1.37784c0.43329,0.18686 1.27017,0.52933 2.35669,0.99933c0.87967,0.38052 1.6575,0.73831 2.4975,1.0215c0.97742,0.32951 1.73022,0.51723 2.53284,0.75717c0.42239,0.12627 1.75848,0.55635 2.6955,0.9045c0.48657,0.18079 1.48599,0.58258 2,0.8c0.52606,0.22252 2.16028,0.95801 2.72098,1.22234c0.56631,0.26698 1.6969,0.81522 2.25601,1.09067c0.55188,0.2719 1.09177,0.54179 2.6185,1.30383c0.47345,0.23631 1.37979,0.68904 2.25751,1.11082c0.43268,0.20792 1.75043,0.81425 2.66934,1.21066c0.46786,0.20184 1.41629,0.59927 1.89066,0.8c0.94193,0.39857 2.30457,0.99913 2.74268,1.2c0.86877,0.3983 1.74194,0.80463 2.19247,1c1.41727,0.61462 1.92966,0.80899 3,1.19551c0.54984,0.19855 1.10812,0.39279 2.242,0.74733c0.56412,0.17638 1.67953,0.49817 2.7655,0.77316c0.53357,0.13512 1.60361,0.38361 2.14401,0.50934c1.10818,0.25784 2.27261,0.53897 2.88116,0.69617c0.62482,0.16141 1.89838,0.51151 2.53665,0.69933c0.63507,0.18687 1.26114,0.37514 1.86752,0.58051c1.69806,0.57507 2.2066,0.79691 3.20932,1.20934c0.50714,0.20859 1.57135,0.65202 2.15201,0.87466c1.28735,0.49362 2.02164,0.73804 2.81198,1.00667c0.84964,0.28877 1.76135,0.59346 2.73001,0.933c1.03146,0.36154 2.12476,0.75302 3.26999,1.203c2.49066,0.97864 3.81055,1.57193 5.18002,2.192c1.40564,0.63644 2.82138,1.30373 4.23749,1.98c1.4039,0.67044 2.77441,1.33786 4.10251,1.98c2.45892,1.18889 3.56485,1.71516 4.58932,2.192c0.94595,0.44028 1.82428,0.83974 2.64151,1.203c0.76019,0.33791 1.47342,0.64748 2.14648,0.933c1.24765,0.52928 1.84018,0.77005 2.41333,1.00934c0.55984,0.23373 1.10934,0.46497 1.6485,0.70349c0.53687,0.2375 1.07266,0.4816 1.60352,0.7485c1.09171,0.54889 1.6405,0.87021 2.20132,1.19867c0.57053,0.33415 1.14133,0.68266 1.716,1.032c0.57468,0.34933 1.1442,0.70004 1.716,1.032c1.11133,0.64516 1.6604,0.93002 2.20132,1.19867c0.53217,0.2643 1.06665,0.511 1.60352,0.7485c0.53915,0.23853 1.08865,0.46977 1.6485,0.70349c1.16333,0.48564 1.77353,0.73863 2.39999,1.00134c0.64053,0.26862 1.29163,0.54219 1.95151,0.81599c0.66412,0.27556 1.32977,0.55038 1.99649,0.81599c1.31363,0.52335 1.96072,0.76434 2.59866,1c0.63074,0.233 1.25867,0.45868 1.884,0.68401c0.62534,0.22533 1.25366,0.44992 1.884,0.68401c1.28473,0.4771 1.93866,0.73477 2.60132,1.00266c0.67303,0.27208 1.35208,0.55675 2.03552,0.85501c0.69128,0.3017 1.38632,0.6144 2.08047,0.94499c1.40411,0.66872 2.09955,1.0325 2.79736,1.396c0.69785,0.36351 1.39017,0.73294 2.08047,1.09651c0.68436,0.36043 1.36035,0.71764 2.03552,1.0515c1.31235,0.64896 1.96149,0.93103 2.59732,1.19867c0.6199,0.26094 1.22995,0.50053 1.8255,0.72899c0.57913,0.22217 1.14462,0.43021 1.69049,0.63901c1.04047,0.39798 1.52951,0.60117 2.00134,0.8c0.89963,0.37912 1.73709,0.76628 2.56799,1.032c1.18756,0.37978 2.00775,0.46602 2.82352,0.59149c0.41547,0.0639 1.28473,0.17171 2.60132,0.64384c0.47684,0.17101 1.45792,0.6512 1.98199,0.91866c0.552,0.28172 1.73367,0.9156 3.0625,1.58334c0.71576,0.35968 1.46594,0.7175 2.23502,1.0815c0.77759,0.36803 1.55695,0.73044 2.32498,1.0905c0.7486,0.35095 1.47223,0.68073 2.77335,1.328c0.57333,0.28522 1.09293,0.55017 1.97333,1.05066c0.73199,0.41612 1.33334,0.79466 2.34,1.39734l0.64499,0.3645" id="svg_5" stroke-width="2" stroke="#000" fill="none"/>
  <path t="21676,21869,21889,21889,21914,21914,21914,21914,21914,21932,21932,21932,21932,21948,21948,21961,21961,21978,21978,21994,21994,21995,22011,22011,22028,22029,22045,22045,22045,22062,22062,22062,22078,22079,22095,22095,22095,22095,22111,22112,22112,22128,22128,22129,22129,22144,22145,22145,22161,22162,22162,22162,22178,22178,22194,22195,22195,22211,22212,22212,22212,22229,22229,22229,22230,22245,22245,22245,22245,22262,22262,22279,22279,22279,22280,22280,22280,22280,22295,22295,22295,22315,22315,22315,22315,22335,22335,22335,22335,22346,22346,22346,22346,22346,22346,22361,22362,22362,22378,22379,22379,22379,22394,22394,22394,22395,22395,22411,22411,22411,22412,22412,22412,22428,22428,22428,22429,22429,22429,22444,22444,22444,22444,22444,22444,22461,22461,22461,22461,22461,22462,22462,22478,22478,22479,22479,22479,22479,22494,22494,22494,22494,22494,22511,22511,22511,22511,22511,22528,22528,22528,22529,22529,22529,22544,22544,22544,22544,22561,22561,22561,22561,22561,22578,22578,22578,22578,22578,22594,22594,22594,22611,22611,22611,22611,22611,22628,22629,22629,22629,22629,22644,22644,22644,22644,22661,22661,22661,22662,22662,22679,22679,22679,22680,22694,22694,22694,22694,22695,22711,22711,22711,22711,22729,22729,22729,22749,22749,22749,22768,22768,22768,22797,22797,22797,22797,22811,22812,22812,22829,22844,22844,22845,22862,22863,22863,22879,22880,22880,22894,22895,22911,22911,22929,22944,22962,22962,22980,23005,23005,23005,23013,23029,23046,23077,23094,23125,23133,23144,23291,23306,23350,23351,23365,23365,23365,23385,23385,23395,23411,23412,23429,23429,23429,23445,23445,23462,23462,23479,23479,23479,23495,23495,23495,23512,23512,23529,23529,23529,23545,23562,23562,23579,23579,23595,23595,23595,23612,23612,23612,23629,23645,23645,23645,23662,23662,23701,23701,23773,23798,23820,23857,23878,23925,23973,23973,23989,24045,24054,24068,24086,24102" d="m282.5,213c1.75717,0.05716 2.68161,0.33174 3.24667,0.68266c0.95724,0.59448 1.44479,1.08134 1.98932,1.58934c0.5813,0.54231 1.16568,1.13033 2.06366,2.02766c0.59155,0.59113 1.15866,1.15869 1.686,1.686c0.87146,0.87138 1.46054,1.51733 2.181,2.01433c0.79996,0.55183 1.6691,0.99677 2.20801,1.39999c0.79556,0.59526 1.45804,1.00639 2.22665,1.40001c0.79401,0.40662 1.58499,0.76595 2.51602,1.39999c0.55811,0.38008 1.42068,0.91183 2.14398,1.2c0.78546,0.31293 1.82242,0.68826 2.50269,1c0.8414,0.38559 1.6293,0.81718 2.47198,1.20001c0.92227,0.41898 1.71686,0.69946 2.26401,0.89999c0.81631,0.29919 1.82169,0.69191 2.52084,1.02083c0.75333,0.3544 1.61871,0.8067 2.28448,1.12733c1.03925,0.5005 1.71304,0.8241 2.65201,1.10934c0.78217,0.23761 1.58124,0.33554 2.68515,0.90649c0.68149,0.35248 1.33295,0.84161 1.99503,1.278c0.8577,0.56532 1.67953,0.94673 2.69583,1.22467c0.67908,0.18571 1.48499,0.41821 2.5,1c0.50211,0.2878 1.15875,0.87776 1.936,1.34933c0.84506,0.51271 1.5394,0.73441 2.2515,0.98399c0.72989,0.25583 2.168,0.80083 2.8085,1.15266c0.59805,0.32852 1.30295,0.87366 2.03516,1.59917c0.57138,0.56616 1.46222,1.09615 2.40884,1.51483c0.5488,0.24272 1.13828,0.47771 1.7475,0.71251c1.21167,0.46703 1.78595,0.68706 3.22916,1.15683c0.66046,0.21498 1.41101,0.38757 2.25,0.864c0.89542,0.50847 1.5184,1.02431 2.19916,1.49916c0.96405,0.67247 1.53342,1.03764 2.0715,1.36084c0.84573,0.50798 1.89691,1.13853 2.31451,1.40384c0.92303,0.58643 1.40366,0.90437 2.3775,1.52415c0.4686,0.29823 1.68433,1.0851 2.31467,1.37201c0.85419,0.38879 1.72617,0.49158 2.59415,0.70166c0.69403,0.16798 1.45242,0.37074 2.62851,0.80501c0.80899,0.29871 1.61127,0.66795 2.02084,0.85417c0.83762,0.38086 2.14478,0.98151 2.60065,1.17917c0.93359,0.40482 1.4136,0.60226 2.38919,1c0.49335,0.20114 1.98932,0.79999 2.48932,1c1,0.39999 1.5,0.60001 2.5,1c0.5,0.19998 2,0.79999 2.5,1c1,0.39999 1.5,0.60001 2.5,1c0.5,0.19998 2.00021,0.79947 2.50015,1.00015c1.00476,0.40329 1.51227,0.60635 2.53586,1.03583c0.52203,0.21906 1.0542,0.4386 2.68515,1.18518c0.5632,0.25781 1.12579,0.52963 2.258,1.05798c0.5589,0.2608 1.09943,0.53867 2.6875,1.1875c0.48679,0.19888 1.4119,0.5274 2.27084,0.79169c0.40399,0.1243 1.89728,0.53687 2.58118,0.74298c0.6788,0.20459 1.37909,0.43335 2.13599,0.68402c1.31009,0.4339 1.79895,0.59528 2.82135,0.95065c0.52484,0.18243 1.56961,0.55939 2.07199,0.76532c1.39825,0.57315 2.18079,0.99811 2.91034,1.35703c0.68149,0.33527 1.70358,0.73022 2.427,0.875c0.74646,0.14938 1.53702,0.20523 2.31598,0.41998c1.22125,0.3367 1.99802,0.7955 2.75702,1.26752c0.37387,0.23251 1.04453,0.75406 2.27499,1.50848c0.51617,0.31647 1.3204,0.68961 2.26666,0.97067c0.74841,0.22229 1.59677,0.4025 2.496,0.60001c0.92212,0.20255 1.83838,0.39551 2.71735,0.60001c0.841,0.19568 1.64172,0.39346 2.39999,0.59998c1.06802,0.29086 1.73648,0.50687 2.74799,0.80002c0.70663,0.2048 1.8815,0.49951 2.74402,0.7045c0.4454,0.10583 1.35278,0.30225 2.22665,0.58084c1.23898,0.39499 1.96024,0.76321 2.64716,1.11465c0.67108,0.34332 1.68039,0.85226 2.40619,1.11465c0.74387,0.26892 1.52405,0.47961 2.31598,0.68402c1.19644,0.30881 1.99103,0.49619 2.75702,0.70132c0.72864,0.19513 2.00702,0.57935 2.76965,0.89999c0.67084,0.28204 1.45554,0.73813 2.29285,1.07916c0.65292,0.26593 1.66547,0.4408 2.52081,0.52084c0.94461,0.08841 1.98206,0.20853 2.70651,0.35718c0.7338,0.15057 1.45468,0.30872 2.70868,0.74265c0.76901,0.26611 1.54437,0.65417 2.4285,0.87485c0.93845,0.23422 1.62051,0.3923 2.39999,0.60001c1.04306,0.27792 1.99185,0.3804 2.66733,0.478c0.97299,0.14056 1.75916,0.38281 2.53751,0.59467c1.0369,0.28223 1.90128,0.41269 2.66251,0.70532c0.87427,0.33612 1.8649,0.56876 2.64731,1c0.74368,0.40991 1.5,0.64667 2.37201,0.64734c0.87067,0.00067 1.828,0 2.56,0c1.09601,0 1.98059,-0.14981 2.86783,0.00015c0.85202,0.14401 1.25607,0.97055 2.20016,0.99985c0.89825,0.02786 1.37662,0.56885 2.13602,0.96399c0.76709,0.39917 1.79337,0.12717 2.53467,-0.13464c0.84058,-0.29688 1.54092,-0.83353 2.26132,-1.34668c0.81079,-0.57755 1.50638,-1.03372 2.26801,-1.50351c0.75778,-0.46741 1.05902,-1.23813 1.82132,-1.95782c0.62228,-0.58749 1.26666,-0.84314 1.92151,-1.67401c0.51324,-0.65118 1.09732,-1.57245 1.45718,-2.15717c0.56741,-0.92194 0.7988,-1.72134 1.05716,-2.24197c0.52069,-1.04922 1.05341,-1.71503 1.59015,-2.28653c0.74857,-0.79703 1.27802,-1.28699 1.974,-1.98297c0.67868,-0.67868 1.23813,-1.15393 1.91702,-1.92151c0.638,-0.72131 0.81329,-1.55457 1.33099,-2.24118c0.55716,-0.73895 1.28036,-1.33377 1.80533,-1.90134c0.52618,-0.56888 1.12396,-1.37207 1.60449,-2.11465c0.46725,-0.72205 0.75693,-1.7937 1.35419,-2.5c0.43192,-0.51077 1.25583,-0.8233 1.90948,-1.65268c0.51321,-0.65118 0.86295,-1.57281 1.55716,-2.06067c0.76208,-0.53555 0.97894,-1.39929 1.48401,-2.11731c0.48523,-0.68982 0.716,-1.36935 0.716,-2.26935c0,-0.89999 0.05426,-1.70163 0,-2.60001c-0.05725,-0.948 -0.85065,-1.27466 -1.75714,-1.52133l-0.52686,-0.69464l-0.70135,-0.50934" id="svg_6" stroke-width="2" stroke="#000" fill="none"/>
  <path t="24786,24934,24974,25031,25063,25063,25080,25104,25104,25114,25115,25131,25145,25162,25178,25178,25194,25194,25211,25253" d="m292.5,240c1.95834,-2.47917 1.86649,-3.41063 2.00449,-4.3c0.14438,-0.93039 0.88312,-1.25868 1.69553,-1.80983c0.70221,-0.47638 0.96753,-1.34805 1.94815,-1.78033c0.73737,-0.32504 1.4483,-0.80008 2.15317,-1.19383c0.73486,-0.41051 1.52158,-1.01335 2.19867,-1.416c0.8353,-0.49672 1.47916,-0.97917 2.29999,-1.44284l0.90002,-0.05849" id="svg_7" stroke-width="2" stroke="#000" fill="none"/>
  <path t="26365,26505,26520,26539,26539,26539,26561,26561,26561,26561,26578,26578,26578,26579,26579,26579,26594,26594,26594,26611,26611,26612,26612,26627,26628,26644,26644,26661,26662,26677,26678,26678,26694,26694,26712,26712,26727,26728,26744,26744,26744,26761,26761,26777,26777,26777,26777,26794,26794,26794,26811,26811,26811,26827,26827,26827,26844,26844,26844,26862,26862,26878,26878,26894,26895,26895,26911,26911,26911,26927,26928,26928,26944,26944,26944,26966,26966,26966,26979,26979,26979,26997,26997,26998,27018,27018,27018,27027,27027,27027,27044,27044,27044,27062,27062,27077,27078,27094,27094,27111,27112,27112,27127,27127,27144,27144,27144,27161,27177,27177,27177,27194,27194,27211,27211,27212,27227,27227,27244,27244,27245,27261,27262,27262,27278,27278,27294,27295,27295,27311,27312,27312,27327,27328,27344,27344,27361,27361,27377,27377,27394,27394,27395,27411,27411,27427,27427,27444,27444,27462,27462,27462,27477,27478,27478,27478,27502,27502,27502,27513,27513,27513,27514,27514,27531,27531,27531,27531,27544,27544,27545,27545,27561,27561,27561,27561,27577,27577,27577,27594,27594,27594,27611,27611,27611,27627,27627,27627,27644,27644,27644,27661,27677,27677,27694,27694,27718,27718,27765,27766,27766,27789,27813,27813,27827,27827,27844,27861,27861,27877,27878,27878,27878,27894,27894,27894,27895,27911,27911,27911,27927,27927,27927,27928,27944,27944,27961,27961,27977,27977,27977,27994,27994,28011,28011,28011,28040,28040,28040,28049,28049,28064,28078,28094,28111,28127,28127,28149,28150,28161,28177,28194,28211,28211,28227,28227,28227,28244,28244,28261,28277,28277,28294,28294,28311,28311,28311,28327,28327,28344,28361,28361,28377,28377,28394,28394,28394,28411,28411,28427,28427,28444,28444,28461,28462,28477,28477,28494,28494,28511,28511,28527,28527,28551,28571,28571,28584,28597,28611,28611,28644,28644,28677,28711,28711,28944,28944,28994,29027,29027,29061,29061,29061,29099,29099,29100,29115,29116,29128,29128,29144,29161,29181,29194,29253,29253,29277,29294,29333,29333,29357,29365,29381,29397,29421,29437,29445,29445,29470,29470,29477,29477,29494,29511,29511,29533,29557" d="m377.5,197c-0.93832,-1.7 -0.48938,-2.54265 0.32166,-3.10033c0.50708,-0.34866 1.38019,-0.85136 2.10019,-1.44267c0.55643,-0.45697 1.12988,-1.01137 1.797,-1.56599c1.0972,-0.91222 1.51498,-1.20337 2.38199,-1.77751c0.43494,-0.28801 1.2966,-0.83611 2.14584,-1.25749c1.07037,-0.53111 1.69043,-0.67853 2.45734,-0.896c0.96817,-0.27454 1.76755,-0.63965 2.53467,-1.18134c0.50848,-0.35904 1.23239,-1.22792 1.87598,-1.90668c0.65103,-0.68658 1.44019,-0.68976 2.36401,-1.09366c0.70901,-0.30998 1.34265,-1.09966 2.02133,-1.77834c0.51599,-0.51601 1.17029,-1.36464 1.884,-1.71333c0.88702,-0.43336 1.73764,-0.30502 2.716,-0.64383c0.61551,-0.21315 1.60001,-0.74284 2.39999,-1.14284c0.60001,-0.3 1.60901,-0.8045 2.272,-1.136c1.06134,-0.53067 1.69308,-0.8499 2.36801,-1.17867c0.67175,-0.32722 1.85718,-0.86 2.4975,-1.08c0.82568,-0.28369 1.63556,-0.6685 2.38333,-1.12616c0.53369,-0.32663 1.54059,-0.99142 2.25381,-1.3325c0.66351,-0.31731 1.90829,-0.56018 2.7045,-0.64667c0.75174,-0.08165 1.7114,-0.35655 2.4035,-0.80133c0.77493,-0.498 1.52338,-0.89563 2.3175,-1.29884c0.82227,-0.41751 1.48849,-0.77963 2.48383,-1.38249c0.54318,-0.32899 1.33005,-0.88936 2.39468,-1.27467c0.67889,-0.2457 1.40201,-0.27637 2.3425,-0.6855c0.8226,-0.35785 1.58173,-0.89162 2.24548,-1.39049c0.69647,-0.52345 1.28125,-1.0786 2.104,-1.64934c0.75348,-0.52269 1.30719,-0.89638 2.52917,-1.27467c0.58395,-0.18079 1.50455,-0.17023 2.53351,-0.57599c0.74918,-0.29544 1.3624,-0.88139 2.16666,-1.66667c0.60486,-0.59058 0.95676,-1.03256 2,-1.83333c0.5733,-0.44005 1.35104,-0.84978 2.116,-1.36534c0.64374,-0.43385 1.54675,-0.71474 2.28851,-0.854c1.00378,-0.18848 1.83588,-0.51115 2.57416,-1.26866c0.44736,-0.45901 0.84988,-1.25813 1.6785,-1.92599c0.52185,-0.42061 1.54584,-1.07008 2.13217,-1.56734c0.55652,-0.47195 1.47144,-1.03424 2.37732,-1.35201c0.68082,-0.23882 1.43478,-0.63438 2.23334,-1.03333c0.80014,-0.39973 1.60001,-0.8 2.39999,-1.2c0.80002,-0.40001 1.6199,-0.76657 2.40002,-1.23601c0.82257,-0.49496 1.40936,-1.01117 2,-1.57466c0.81314,-0.77579 1.39548,-1.38484 1.96399,-1.95334c0.66934,-0.66933 1.30768,-1.35361 2.00266,-1.836c0.64511,-0.44777 1.46008,-0.85291 2.23203,-1.48399c0.60129,-0.49158 1.11633,-1.03168 1.84866,-1.76334c0.63696,-0.63638 1.23663,-1.23668 1.92731,-1.92734c0.65869,-0.65868 1.28421,-1.32549 1.92569,-1.92534c0.55472,-0.51872 1.44586,-0.99219 2.15033,-1.31065c0.74786,-0.33809 1.6308,-0.88896 2.20767,-1.56851c0.56644,-0.66724 1.33829,-1.0695 2.02567,-1.59016c0.7377,-0.55878 1.34933,-1.26399 1.90134,-1.81599c0.58398,-0.58399 1.38034,-1.38643 1.87598,-1.86533c0.5202,-0.50265 1.02188,-1.02596 2.056,-1.78133c0.68231,-0.49841 1.46164,-0.92168 2.3255,-1.511c0.67471,-0.46027 1.38037,-0.99563 1.74252,-1.27834c0.73682,-0.57519 1.79407,-1.4773 2.45749,-2.06966c0.32162,-0.28717 0.8949,-0.90762 2.15717,-1.77567c0.57825,-0.39766 1.20172,-0.6683 2.10001,-1.0815c0.9017,-0.41478 1.50443,-0.72611 2.37915,-1.25183c0.5675,-0.34107 1.60245,-0.97335 2.28485,-1.37466c0.63443,-0.37309 1.44894,-0.93212 2.03598,-1.46133c0.61392,-0.55345 1.39081,-1.37335 2,-1.95333c0.59122,-0.56288 1.39789,-1.19263 2.20001,-1.71067c0.59839,-0.38647 1.40918,-0.97242 1.97919,-1.5c0.54572,-0.50512 1.39417,-1.3548 2.02081,-2c0.60919,-0.6272 1.09735,-1.3229 1.5,-2c0.49677,-0.83528 1.01825,-1.50247 1.66669,-2.16666c0.64545,-0.66114 1.26263,-1.10209 1.72345,-2.08067c0.409,-0.86855 0.59845,-1.55467 0.94318,-2.58601c0.23627,-0.70673 0.92334,-1.23933 1.14136,-2.06c0.22766,-0.85703 0.23657,-1.75166 0.38251,-2.4165c0.23688,-1.07928 0.43774,-1.80933 0.74268,-2.86867c0.19159,-0.66551 0.48724,-1.60559 0.61481,-2.22017c0.24786,-1.19418 0.28113,-2.12617 0.3952,-2.7585c0.18353,-1.01752 0.44568,-1.72916 0.74078,-2.44683c0.42621,-1.03652 0.91571,-1.87016 1.07733,-2.69867c0.19556,-1.00249 0.07202,-1.71817 0.07202,-2.69733c0,-0.8 0,-1.6 0,-2.6045c0,-0.85267 -0.01727,-1.81725 0.01068,-2.62083c0.02863,-0.82281 0.1947,-1.85824 0.48932,-2.75383c0.20502,-0.62323 0.47009,-1.61508 0.49866,-2.5355c0.02991,-0.96404 0.00134,-1.88534 0.00134,-2.78534c0,-0.9 0,-1.80017 0,-2.58533c0,-0.94 0,-1.63066 0,-2.704c0,-0.91067 0,-1.82133 0,-2.73217c0,-0.69933 0,-1.6785 0,-2.4785c0,-0.8 0,-1.7955 0,-2.71467c0,-0.98533 0.00006,-1.80683 0,-2.696c-0.00012,-0.98933 0.0625,-1.80508 -0.16669,-2.78933c-0.19067,-0.81887 -0.56952,-1.38036 -0.74799,-2.39867c-0.16357,-0.9334 -0.08533,-1.84417 -0.08533,-2.7015c0,-0.78517 0.06329,-1.76603 -0.17065,-2.5865c-0.29401,-1.03123 -0.69171,-1.5214 -1.12402,-2.3035c-0.47534,-0.85994 -0.67114,-1.75873 -0.70984,-2.667c-0.03192,-0.74851 -0.30096,-1.73535 -0.57013,-2.54283c-0.33044,-0.99135 -0.41492,-1.779 -0.42535,-2.77867c-0.00806,-0.77396 0.0528,-1.68476 -0.05719,-2.42583c-0.14972,-1.00866 -0.63098,-1.7263 -0.85748,-2.7115c-0.1731,-0.75294 -0.08533,-1.70933 -0.08533,-2.71733c0,-0.756 0,-1.66667 0,-2.57733c0,-0.91067 0,-1.764 0,-2.70533c0,-0.768 0,-1.70933 0,-2.71733c0,-0.756 0.31299,-1.72759 -0.01068,-2.556c-0.28882,-0.73922 -1.47467,-0.61079 -2.20001,-0.61067c-0.9895,0.00017 -1.82507,-0.01979 -2.47467,0.17067c-1.03137,0.30239 -1.80432,0.8493 -2.362,1.124c-1.01355,0.49928 -1.91034,0.6845 -2.93115,0.70533c-0.81995,0.01674 -1.7215,0.05717 -2.52148,0.5c-0.79999,0.44283 -1.66058,0.30183 -2.5,0.66667c-0.68457,0.29753 -1.18143,1.34284 -2.10001,1.71183c-0.84271,0.33852 -1.69998,0.1215 -2.60001,0.1215c-0.89999,0 -1.79999,0 -2.69998,0c-0.89999,0 -1.80002,0 -2.60001,0c-0.88535,0 -1.836,0 -2.60132,0c-0.99417,0 -1.75504,-0.15528 -2.7627,0.01067c-0.86786,0.14293 -1.43597,0.70533 -2.336,0.98483l-0.89999,0.0405" id="svg_8" stroke-width="2" stroke="#000" fill="none"/>
  <path t="30138,30303,30303,30319,30334,30334,30356,30356,30381,30381,30381,30381,30381,30398,30398,30398,30398,30398,30398,30398,30398,30398,30412,30412,30412,30412,30412,30428,30428,30428,30428,30448,30448,30448,30448,30448,30448,30462,30462,30462,30478,30478,30495,30495,30495,30513,30528,30528,30545,30562,30562,30578,30578,30739,30739,30755,30774,30774,30794,30795,30812,30812,30812,30812,30827,30827,30828,30844,30845,30845,30862,30862,30862,30878,30878,30894,30895,30911,30927,30928,31028,31044,31044,31044,31078,31078,31078,31094,31095,31095,31095,31111,31112,31112,31112,31112,31112,31127,31128,31128,31128,31128,31144,31145,31145,31145,31145,31161,31161,31178,31178,31178,31195,31195,31195,31216,31217,31229,31246,31261,31277,31294,31311,31311,31327,31327,31344,31344,31361,31361,31377,31377,31394,31394,31411,31411,31427,31444,31444,31461" d="m487.5,30c1,1 0.84213,1.75609 -0.02084,2c-0.94601,0.26737 -1.56531,0.69916 -2.46716,0.91467c-0.77631,0.1855 -1.8454,0.07864 -2.48932,0.088c-0.74817,0.01088 -1.6261,0.04951 -2.65201,0.168c-1.20694,0.1394 -1.87787,0.26888 -2.59067,0.39734c-0.74393,0.13408 -1.50665,0.28267 -2.28,0.432c-0.77335,0.14933 -1.53516,0.30306 -2.28,0.432c-2.00854,0.34769 -2.59067,0.4128 -3.62933,0.496c-0.46518,0.03726 -1.31097,0.0675 -2.76965,0.072c-0.67734,0.00209 -1.36267,0 -2.08801,0c-1.233,0 -2.18365,0 -2.68649,0c-1.02567,0 -2.03134,0 -2.50919,0c-1.59598,0 -2.19333,0 -3.13199,0c-1.00983,0 -1.86249,0 -2.82651,0c-0.79349,0 -1.569,0 -2.60815,0c-0.97067,0 -1.77066,0 -2.60666,0c-1.02118,0 -1.7688,0.02183 -2.7627,-0.00134c-0.7659,-0.01785 -1.64639,-0.4204 -2.39999,-0.71466c-0.85358,-0.3333 -1.56668,0.3996 -1.84415,1.125c-0.36804,0.96219 -0.35071,1.86296 -0.35718,2.92433c-0.00388,0.63465 0.02463,1.3195 -0.05716,2.36134c-0.07654,0.97515 -0.3139,1.79012 -0.51752,2.52c-0.33441,1.19876 -0.39127,2.02217 -0.45065,2.596c-0.12326,1.19134 -0.32306,2.08146 -0.47467,2.64767c-0.32422,1.21082 -0.42789,2.03175 -0.784,2.743c-0.36221,0.72339 -0.698,1.62352 -0.716,2.632c-0.01349,0.75588 -0.0575,1.83994 0.70984,2.1095c0.76367,0.26828 1.811,0.05717 2.83316,0.05717c0.729,0 1.56601,0 2.457,0c0.91351,0 1.5625,0 2.65601,0c0.84399,0 1.79733,0 2.83066,0c0.53418,0 1.61249,0 2.14667,0c1.52383,0 1.99734,0 2.90533,0c0.87601,0 1.74399,0 3.08215,0c0.45917,0 1.37253,0 2.24585,0c0.79333,0 1.99466,0 2.76266,0c0.91367,0 1.91232,0 2.47968,0c1.19064,0 2.06967,0 2.87665,0c1.04367,0 1.81168,0 2.71436,0c0.89999,0 1.79999,0 2.69998,0c0.90451,0 1.76666,0 2.60001,0c0.97867,0 1.75266,0 2.65717,0c0.94415,0 1.94284,0 2.74283,0c1,0 1.80002,0 2.79984,0c0.77933,0 1.63351,0 2.49567,0c0.94049,0 1.78851,0 2.65182,0l1.02734,0" id="svg_9" stroke-width="2" stroke="#000" fill="none"/>
  <path t="31901,31961,31961,31976,31976,31998,32011,32011,32027,32027,32044,32044,32044,32044,32061,32061,32077,32077,32077,32094,32094,32094,32094,32111,32111,32111,32127,32127,32127,32144,32144,32166,32189,32240,32240,32342,32342,32358,32358,32389,32397,32411,32429,32429,32444,32461,32461,32477,32477,32494,32494,32511,32511,32533,32549,32549,32566,32566,32581,32582,32594,32611,32627,32645,32645,32645,32661,32661,32677,32741,32749,32761,32777,32794,32794,32794,32811,32811,32811,32827,32827,32827,32827,32844,32844,32844,32861,32861,32861,32861,32877,32877,32877,32877,32877,32894,32894,32894,32895,32911,32911,32911,32927,32944,32944,32961,33060,33076,33096,33113,33138,33138,33149,33149,33149,33166,33166,33177,33177" d="m524.5,27c1.836,-0.964 2.60242,-0.95799 3.59552,-1.0045c0.92169,-0.04316 1.68695,-0.6 2.60583,-0.91017c0.65289,-0.22038 1.6582,-0.07122 2.3175,-0.1425c1.12903,-0.12207 1.78821,-0.27622 2.79449,-0.5535c0.63763,-0.1757 1.8147,-0.70547 2.48749,-1.08933c0.7323,-0.41781 1.46826,-0.70812 2.30817,-1c0.88806,-0.30861 1.78534,-0.61533 2.69098,-0.864c0.59656,-0.16381 1.79846,-0.35433 2.38934,-0.41067c0.85321,-0.08136 1.90601,-0.20029 2.78986,-0.54617c0.6333,-0.24782 1.59784,-0.81755 2.36365,-1.122c0.88159,-0.35049 1.85718,-0.35717 2.75732,-0.35717c0.78516,0 1.73584,0 2.50116,0c0.9942,0 1.74152,0 2.7627,0c0.93597,0 1.91565,-0.20915 2.73584,0.2215c0.64343,0.33782 0.86737,1.29968 0.90149,2.26383c0.0257,0.72571 0.21277,1.71712 0.49866,2.49383c0.3692,1.00297 0.49774,1.77349 0.5,2.6735c0.00214,0.86333 -0.06927,1.7434 0.22131,2.66867c0.21979,0.69995 0.71356,1.65089 0.77417,2.43133c0.0697,0.89731 0.00452,1.76333 0.00452,2.7265c0,0.92083 0,1.82983 0,2.85416c0,0.672 0,1.416 0,2.52367c0,0.834 0,1.743 0,2.643c0,0.9 0.20612,1.99439 -0.44666,2.47467c-0.7323,0.5388 -1.591,0.55564 -2.23999,0.82667c-0.99274,0.41458 -1.84106,0.70319 -2.41785,0.95583c-1.21088,0.53036 -1.7948,0.89676 -2.39551,1.24283c-0.89893,0.51789 -1.79388,0.9928 -2.40002,1.24283c-0.89148,0.36774 -2.10077,0.75482 -2.70129,0.9585c-0.61017,0.20695 -1.56219,0.5405 -2.56537,0.96534c-0.72339,0.30635 -1.46649,0.66492 -2.24396,1.008c-0.7879,0.3477 -1.98706,0.80949 -2.38672,0.93867c-0.77771,0.25139 -1.88312,0.5531 -2.86932,0.72c-0.81085,0.13722 -1.711,0.1097 -2.57617,0.51933c-0.81055,0.38379 -1.55713,0.64667 -2.45715,0.64734c-0.89996,0.00067 -1.79999,0 -2.70001,0c-0.90448,0 -1.76959,-0.05265 -2.62079,0.02083c-0.98633,0.08515 -1.7652,0.44629 -2.57916,0.69517c-0.78864,0.24113 -1.60004,0.30933 -2.59985,0.50533l-0.77936,0.27867" id="svg_10" stroke-width="2" stroke="#000" fill="none"/>
  <path t="35070,35330,35330,35345,35345,35374,35375,35400,35400,35413,35413,35413,35433,35433,35445,35445,35461,35461,35461,35478,35478,35495,35495,35511,35528,35528,35528,35545,35545,35545,35560,35561,35561,35578,35578,35595,35595,35595,35611,35611,35611,35628,35628,35628,35628,35645,35646,35646,35646,35661,35661,35678,35678,35678,35695,35695,35695,35695,35711,35712,35712,35712,35728,35729,35729,35745,35745,35761,35761,35761,35778,35778,35778,35795,35795,35820,35820,35820,35831,35831,35831,35845,35845,35867,35867,35880,35880,35880,35880,35895,35895,35895,35912,35912,35912,35929,35929,35945,35961,35962,35990,35990,35990,36014,36014,36156,36172,36211,36211,36228,36228,36228,36245,36245,36245,36261,36262,36278,36279,36279,36279,36296,36296,36296,36296,36312,36312,36329,36329,36329,36329,36345,36345,36366,36366,36366,36378,36378,36378,36378,36396,36396,36411,36428,36428,36428,36448,36448,36448,36466,36466,36482,36482,36496,36496,36511,36511,36528,36528,36672,36688,36703,36728,36745,36745,36761,36778,36778,36778,36795,36795,36811,36811,36836,36836,36836,36861,36861,36878,36878,36878,36878,36899,36899,36899,36899,36899,36913,36913,36913,36928,36928,36929,36945,36945,36945,36961,36961,36961,36978,36978,36978,36995,36995,36995,36995,37011,37011,37011,37028,37028,37028,37045,37045,37061,37062,37062,37078,37078,37078,37095,37095,37095,37095,37111,37111,37112,37112,37128,37128,37145,37145,37145,37161,37178,37178,37178,37195,37195,37195,37211,37211,37228,37228,37228,37245,37245,37261,37261,37261,37278,37278,37278,37294,37295,37295,37311,37311,37311,37328,37328,37328,37328,37344,37345,37361,37361,37378,37378,37394,37411,37411,37411,37428,37428,37445,37461,37461,37478,37478,37478,37497,37497,37516,37545,37545,37561,37561,37577,37578,37594,37595,37611,37627,37645,37661,37661,37677,37678,37702,37733,37805,37806,37813,37837,37869,37893,37901,37902,37926,37926,37949,37950,37960,37960,37981,38013" d="m223.5,158c-0.87199,0 -1.60266,0 -2.60001,0c-0.79999,0 -1.79866,0.00107 -2.564,0c-0.95334,-0.00134 -1.82401,-0.13525 -2.604,-0.56934c-0.7515,-0.41821 -1.4762,-0.93202 -2.26266,-1.54533c-0.59344,-0.4628 -1.44778,-1.09807 -2.17999,-1.48534c-0.78223,-0.41373 -1.59845,-0.76605 -2.304,-1.2c-0.75555,-0.46471 -1.34088,-1.04723 -2.138,-1.4955c-0.83652,-0.47043 -1.77536,-0.59277 -2.66901,-1.14717c-0.56499,-0.35051 -1.09378,-0.9637 -2.09967,-1.3145c-0.77824,-0.27141 -1.63986,-0.2225 -2.65717,-0.46416c-0.91727,-0.21788 -1.52286,-0.4837 -2.5215,-0.735c-0.80225,-0.20189 -1.61304,-0.69514 -2.2,-1.31967c-0.61391,-0.6532 -1.37624,-1.42471 -2.02133,-1.62666c-0.6749,-0.21129 -1.82367,-0.30856 -2.48849,-0.4545c-1.07928,-0.23691 -1.81052,-0.43367 -2.8685,-0.74284c-0.66196,-0.19345 -1.57945,-0.48795 -2.13501,-0.7c-1.24001,-0.47331 -1.87875,-0.79445 -2.88683,-1.30017c-0.6122,-0.30713 -1.26463,-0.64415 -2.2215,-1.22133c-0.54445,-0.32841 -1.42043,-0.89676 -2.065,-1.27983c-1.02734,-0.61053 -1.75534,-1.00221 -2.49251,-1.35699c-0.70531,-0.33943 -1.67793,-0.7469 -2.5065,-0.93184c-0.89694,-0.2002 -1.72839,-0.29611 -2.51433,-0.63066c-1.02028,-0.43431 -1.59567,-0.7986 -2.45717,-1.17917c-0.9547,-0.42174 -1.76329,-0.68544 -2.28149,-0.90001c-1.13203,-0.46873 -1.74547,-0.91559 -2.42801,-1.56667c-0.68501,-0.65344 -1.26593,-1.2258 -2,-1.66666c-0.75458,-0.45317 -1.56554,-0.74237 -2.5,-1c-0.90627,-0.24985 -1.46165,-0.81007 -2.04132,-1.31601c-0.71271,-0.62206 -1.65315,-0.75154 -2.31284,-0.82983c-1.0107,-0.11994 -1.97017,-0.15101 -2.9375,-0.56249c-0.66824,-0.28426 -1.43036,-0.95499 -2.04167,-1.4375c-0.58942,-0.46523 -1.60896,-0.85712 -2.34283,-1.069c-1.04587,-0.30196 -1.77461,-0.78323 -2.4715,-1.06167c-0.98361,-0.393 -1.6947,-0.91252 -2.2375,-1.18484c-1.00621,-0.5048 -2.15341,-0.28383 -2.7775,-0.99066c-0.5509,-0.62395 -0.42967,-1.85111 0.08533,-2.51467c0.58707,-0.75641 1.56497,-0.83204 2.06267,-1.17066c1.05399,-0.71711 1.44502,-1.27197 2.01967,-2.024c0.65222,-0.85355 1.15486,-1.49117 1.82834,-2.172c0.49455,-0.49995 1.1091,-1.08779 1.60533,-1.52c0.85878,-0.74799 1.5226,-1.2653 2.20717,-1.77167c0.6525,-0.48265 1.52805,-1.02809 2.33417,-1.46567c1.0295,-0.55882 1.46451,-0.91869 2.18666,-1.59683c0.5016,-0.47104 1.35716,-1.33633 1.83867,-1.81783c0.828,-0.828 1.33289,-1.30972 1.87199,-1.908c0.81148,-0.90054 1.19817,-1.42794 1.56801,-1.968c0.5235,-0.76445 0.95399,-1.8541 1.304,-2.58266c0.36343,-0.75653 1.24289,-1.29617 1.93816,-1.7235c0.58397,-0.35892 1.39989,-0.94154 1.95834,-1.5c0.55844,-0.55845 1.25697,-1.57879 1.61017,-2.14317c0.5994,-0.9578 1.10953,-1.53263 1.82132,-2.24667c0.47392,-0.47541 1.24197,-1.24203 1.76401,-1.764c0.80379,-0.80371 1.26402,-1.35913 2.12534,-1.77267c0.86624,-0.41589 1.46696,-1.00438 2.336,-1.006c0.88057,-0.00164 1.72206,0.57065 2.61133,0.90517c0.93163,0.35045 1.41693,0.74567 2.10001,1.4c0.64227,0.61526 1.1967,1.2865 1.96167,1.94817c0.62726,0.54255 1.45161,0.91878 2.19099,1.17916c0.72528,0.25542 1.87244,0.46448 2.55333,0.69017c1.02516,0.33981 1.65628,0.69932 2.37868,1.052c0.77374,0.37775 1.96747,0.97921 2.36665,1.17733c0.78998,0.39207 1.56085,0.77509 2.31601,1.116c1.05756,0.47742 1.7121,0.75954 2.63866,1.03867c1.06828,0.32183 1.80933,0.32746 2.69934,0.5565c0.99193,0.25526 1.49113,0.61231 2.32201,1.0395c1.04791,0.53877 1.76834,0.78453 2.67799,0.84167c0.96696,0.06074 1.78775,-0.00642 2.358,0.081c1.20364,0.18452 2.08626,0.63051 2.6685,0.928c0.83757,0.42795 1.83244,0.85249 2.52083,0.97916c0.68037,0.1252 1.68401,0.30483 2.5,0.52084c0.81599,0.216 1.81883,0.38669 2.68933,0.52533c1.01685,0.16195 1.81999,0.51394 2.496,0.69067c0.9879,0.25827 1.85748,0.27198 2.47633,0.33666c1.36269,0.14243 2.09314,0.29503 2.83833,0.46817c0.7496,0.17416 1.83376,0.47771 2.51334,0.67783c0.94559,0.27847 1.79323,0.55322 2.80133,0.71733c0.87001,0.14164 1.70575,0.19698 2.47467,0.52c0.74875,0.31454 1.5457,1.08228 2.54399,1.39734c0.65495,0.2067 1.49142,0.10623 2.5,0.5c0.74451,0.29067 1.31226,0.86015 2.14551,1.64516c0.53705,0.50597 1.34912,1.03384 2.0265,1.3215c0.73837,0.31355 1.86147,0.78539 2.47383,1.2c0.85646,0.57989 1.35532,0.92666 2.20749,1.3c0.98425,0.43121 1.81534,0.69463 2.36067,0.89999c1.03522,0.38985 1.7206,0.71569 2.63667,1.10001c0.99431,0.41714 1.5506,0.60405 2.4205,0.89999c0.89409,0.30417 1.79338,0.59315 2.6595,0.9c0.55223,0.19565 1.53879,0.6239 2.38931,0.964c0.95175,0.38057 1.73959,0.49633 2.67203,0.86133c0.69775,0.27314 1.5596,0.55115 2.508,0.57467c0.91711,0.02274 1.71637,-0.11833 2.69598,0.28533c0.72421,0.29842 1.31378,1.24732 2.13733,1.548c0.814,0.29719 1.83441,0.13479 2.63333,0.17733c0.80237,0.04272 1.78723,0.36391 2.54285,0.63667c0.89099,0.32162 1.77365,0.2574 2.54251,0.438c0.98642,0.2317 1.51526,0.6271 2.51334,1.11333c0.76239,0.37141 1.57443,0.73391 2.48532,0.8c0.92831,0.06735 1.60895,0.34706 2.33749,0.88c0.66995,0.49008 1.51312,0.84705 2.43118,1.06866c0.68295,0.16487 1.50003,0.5937 2.44733,0.93117c0.8555,0.30476 1.73441,-0.07446 2.60001,0.17866c0.87762,0.25664 1.49698,0.90013 2.39999,0.94284c0.89899,0.04253 1.79935,0.04845 2.55716,0.35716c0.76321,0.31091 1.73206,0.86198 2.32199,1.12201c0.98474,0.43404 1.81952,0.5195 2.72086,0.57799l0.79999,0.44284" id="svg_11" stroke-width="2" stroke="#000" fill="none"/>
  <path t="39398,39490,39490,39490,39506,39506,39506,39533,39533,39533,39533,39544,39544,39544,39544,39544,39544,39560,39560,39560,39560,39560,39560,39560,39560,39577,39577,39577,39577,39577,39577,39577,39577,39594,39594,39594,39594,39594,39594,39594,39615,39615,39615,39616,39616,39616,39616,39631,39631,39631,39631,39631,39645,39645,39645,39645,39645,39661,39661,39661,39661,39661,39677,39677,39677,39677,39694,39694,39694,39694,39694,39710,39710,39710,39710,39711,39727,39727,39727,39728,39728,39744,39744,39744,39760,39760,39760,39760,39760,39777,39777,39777,39777,39794,39794,39794,39794,39810,39810,39810,39810,39827,39827,39827,39845,39845,39845,39845,39845,39861,39861,39861,39861,39878,39878,39878,39878,39895,39895,39911,39911,39911,39911,39928,39928,39928,39928,39945,39945,39945,39963,39963,39963,39963,39987,39988,39988,39988,40001,40001,40001,40002,40002,40002,40011,40011,40011,40011,40011,40028,40028,40028,40045,40045,40045,40045,40045,40061,40061,40061,40061,40078,40078,40078,40095,40095,40095,40111,40111,40111,40111,40128,40128,40144,40144,40145,40160,40161,40161,40177,40177,40194,40195,40195,40210,40211,40227,40228,40228,40244,40245,40245,40245,40245,40260,40261,40261,40278,40278,40305,40306,40306,40306,40319,40319,40319,40319,40319,40319,40335,40335,40335,40350,40350,40360,40361,40361,40377,40378,40378,40378,40394,40395,40395,40410,40411,40427,40428,40444,40445,40460,40461,40461,40461,40478,40478,40494,40495,40495,40510,40511,40511,40528,40528,40544,40545,40545,40545,40560,40561,40577,40578,40594,40595,40595,40610,40611,40628,40629,40648,40648,40671,40671,40681,40681,40682,40682,40696,40696,40696,40696,40712,40712,40712,40730,40730,40745,40746,40771,40771,40782,40803,40804,40811,40811,40811,40828,40828,40828,40847,40848,40870,40870,40888,40888,40888,40904,40905,40905,40916,40916,40917,40917,40938,40938,40955,40955,40961,40961,40961,40977,40978,41005,41022,41022,41039,41040,41040,41055,41055,41062,41078,41095,41095,41111,41111,41128,41144,41160,41177,41206,41206,41206,41214,41227,41244,41245,41260,41261,41278,41295,41295,41295,41311,41328,41328,41344,41345,41345,41360,41361,41377,41378,41378,41394,41395,41410,41411,41411,41427,41428,41428,41444,41445,41445,41460,41461,41478,41478,41494,41495,41495,41511,41511,41511,41511,41528,41528,41528,41528,41544,41545,41561,41582,41582,41582,41594,41595,41611,41628,41645,41645,41645,41661,41662,41678,41678,41695,41695,41695,41696,41711,41712,41712,41728,41729,41729,41756,41756,41756,41756,41786,41786,41786,41787,41787,41787,41815,41815,41815,41815,41816,41816,41816,41843,41843,41843,41844,41844,41844,41844,41844,41867,41867,41867,41868,41868,41868,41868,41893,41893,41893,41893,41919,41919,41920,41920,41920,41943,41943,41944,41944,41968,41968,41968,41993,41993,42018,42018,42018,42055,42055,42056,42056,42074,42074,42075,42075,42075,42075,42105,42106,42106,42106,42129,42129,42130,42130,42155,42156,42156,42156,42156,42178,42179,42179,42179,42203,42203,42204,42204,42227,42228,42228,42253,42254,42254,42254,42278,42278,42278,42303,42304,42328,42329,42354,42354,42379,42379,42404,42404,42429,42429,42454,42455,42455" d="m65.5,300c2.01434,-0.35266 2.81663,-0.59567 3.40266,-0.716c1.18932,-0.24423 2.10397,-0.26797 2.69733,-0.39383c1.21861,-0.25845 1.8127,-0.59744 2.44167,-0.93182c0.67673,-0.3598 1.78738,-0.96747 2.63167,-1.35968c0.44778,-0.20801 1.40948,-0.62076 1.92,-0.83466c1.07889,-0.452 2.24009,-0.93048 2.84967,-1.18533c0.62775,-0.26245 1.2694,-0.53604 2.59866,-1.07867c0.6787,-0.27707 1.36534,-0.55252 2.061,-0.81601c1.39342,-0.52777 2.09629,-0.76477 2.79466,-1c0.69297,-0.2334 1.3823,-0.45575 2.061,-0.68399c1.32925,-0.44699 1.97961,-0.66245 3.20833,-1.16666c0.59502,-0.24417 1.16624,-0.5141 2.28267,-1.048c0.55112,-0.26355 1.08783,-0.55591 2.21867,-1.01599c1.1525,-0.4689 1.77159,-0.63669 2.39733,-0.80002c1.25881,-0.32855 1.89349,-0.44629 2.512,-0.58398c1.18494,-0.26379 2.2661,-0.52405 3.18267,-0.87067c0.42085,-0.15915 1.18232,-0.52682 1.87917,-0.91919c1.03482,-0.58267 1.7436,-1.00034 2.49683,-1.39548c0.77206,-0.40503 1.56454,-0.80161 2.764,-1.39984c0.39974,-0.19937 1.1954,-0.59949 2,-0.96417c0.79557,-0.3606 1.99986,-0.81476 2.7955,-1.08783c0.78368,-0.26895 1.58025,-0.49435 2.63783,-1.08151c0.70854,-0.39337 1.01505,-0.6767 1.6875,-1.16666c0.68551,-0.49948 1.79935,-1.19843 2.64716,-1.53067c0.87041,-0.34109 1.33554,-0.43698 2.22667,-0.7175c1.27728,-0.40207 2.04587,-0.7135 2.72267,-1.08783c0.63791,-0.35281 1.19101,-0.76996 2.20132,-1.56134c0.72043,-0.56433 1.21912,-0.9697 2.18134,-1.26932c0.73639,-0.22931 1.58762,-0.27481 2.46001,-0.384c0.87434,-0.10944 2.11092,-0.35754 2.82565,-0.66367c0.68767,-0.29453 1.30704,-0.69208 2.21434,-1.28568c0.9062,-0.5929 1.50902,-1.00064 2.15717,-1.34283c0.99254,-0.52402 1.72163,-0.7793 2.44684,-1.02118c1.02553,-0.34207 1.93274,-0.57077 2.72,-1.05731c0.56401,-0.34857 1.43777,-1.12485 2.043,-1.5885c0.67186,-0.51471 1.38806,-1.04373 1.75166,-1.3075c1.05618,-0.7662 1.7224,-1.22812 2.3605,-1.66183c0.91696,-0.62326 1.81686,-1.22635 2.41632,-1.61185c0.58006,-0.37302 1.39816,-0.8949 2.4205,-1.24234c0.89375,-0.30374 1.86612,-0.64514 2.36801,-1.02133c0.55952,-0.4194 1.36449,-1.20049 2.14932,-1.97865c0.48338,-0.47928 1.14571,-1.15149 1.61934,-1.505c0.93066,-0.69464 1.78532,-1.0318 2.358,-1.287c1.19357,-0.53191 1.79729,-0.8448 2.37866,-1.21066c0.86795,-0.54619 1.64381,-1.16423 2.37151,-1.76851c0.50154,-0.41647 1.0424,-0.88441 2.10583,-1.56216c0.85463,-0.54468 1.34857,-0.79036 1.84532,-1.06932c1.02283,-0.5744 1.55754,-0.83214 2.98801,-1.76401c0.44275,-0.28842 1.22501,-0.88524 1.91667,-1.4375c0.61356,-0.48988 1.39047,-1.12505 2.13516,-1.39999c0.93202,-0.34412 1.79121,-0.47139 2.4175,-0.73451c1.0697,-0.44942 1.43216,-0.65898 2.14801,-1.116c1.08696,-0.69392 1.71921,-1.25783 2.34099,-1.77032c0.57834,-0.47668 1.6084,-1.2086 2.30568,-1.455c0.82242,-0.29062 1.65225,-0.64145 2.27766,-1.14917c0.74576,-0.60541 1.59512,-1.36577 2.25916,-1.88116c0.67265,-0.52208 1.31012,-1.03194 2.19917,-1.55634c0.61606,-0.36337 1.68556,-0.62523 2.336,-0.94667c0.79143,-0.39111 1.564,-1.03732 2.164,-1.55333c0.60001,-0.51601 1.38583,-1.13939 2.2,-1.58934c0.78705,-0.43497 1.60001,-0.81065 2.2,-1.11066c1,-0.5 1.60149,-0.79706 2.60001,-1.3c0.60991,-0.30721 1.28656,-0.6492 2.33333,-1.33333c0.64392,-0.42085 1.31622,-0.9189 2.01601,-1.416c0.68159,-0.48418 1.60228,-1.11621 2.368,-1.57867c0.6124,-0.36987 1.52875,-0.98367 2.0925,-1.42917c0.72638,-0.57401 1.49283,-1.10214 2.11951,-1.5255c0.72777,-0.49164 1.56995,-1.05174 2.52,-1.68266c0.49928,-0.33156 1.00243,-0.6685 2.00266,-1.312c0.4743,-0.30515 1.70105,-1.08269 2.32133,-1.38268c0.7581,-0.36664 1.62418,-0.81464 2.19734,-1.14133c1.00659,-0.57373 1.58078,-0.69722 2.43199,-1.084c0.90822,-0.41267 1.79414,-0.93945 2.36134,-1.32533c0.55823,-0.37978 1.54915,-1.18974 2.21516,-1.76851c0.61809,-0.53711 1.39706,-1.17503 2,-1.47916c0.96811,-0.48831 1.79469,-0.53787 2.6825,-0.90334c0.60175,-0.24771 1.50363,-0.80725 2.291,-1.2865c0.54639,-0.33257 1.3324,-0.87061 2.362,-1.18251c0.85542,-0.25914 1.90308,-0.34839 2.48534,-0.616c0.82959,-0.38129 1.58868,-1.04999 2.2,-1.5325c0.58942,-0.46523 1.61542,-0.87546 2.45717,-1.12616c0.97902,-0.2916 1.50166,-0.59399 2.31749,-1.08c0.54556,-0.32501 1.54825,-0.91278 2.37866,-1.40401c0.83545,-0.4942 1.47791,-1.06795 2.38934,-1.5105c0.68808,-0.33411 1.45242,-0.54138 2.48801,-0.81749c0.7178,-0.19138 1.4686,-0.63531 2.14398,-1.26801c0.67432,-0.6317 1.27496,-1.39102 2.147,-1.6935c0.69336,-0.24049 1.85336,-0.4369 2.36368,-0.69051c0.85046,-0.42265 1.40112,-0.81819 2.6145,-1.40933c0.58746,-0.28619 1.20139,-0.47655 2.01483,-0.90533c1.03104,-0.54349 1.62292,-1.15857 2.284,-1.54666c0.94656,-0.55571 1.79614,-0.49432 2.64868,-0.9265c0.69241,-0.351 1.37494,-1.00777 2.26865,-1.3575c0.83548,-0.32695 1.81332,-0.48921 2.50485,-0.80617c0.991,-0.45421 1.5748,-0.7986 2.43631,-1.17917c0.95471,-0.42175 1.49997,-0.57739 2.28152,-0.90001c1.13242,-0.46745 1.69861,-0.98312 2.58282,-1.27882c0.86084,-0.28789 1.69519,-0.42955 2.47849,-0.97183c0.61371,-0.42488 1.39407,-0.92961 2.24167,-1.14934c0.72418,-0.18773 1.93088,-0.55615 2.59836,-0.86133c0.67957,-0.3107 1.33307,-0.61391 2.30533,-1.25334c0.67831,-0.44612 1.51657,-1.13478 2.26532,-1.44933c0.76892,-0.32301 1.59827,-0.35815 2.38934,-0.52c1.01132,-0.20692 1.75378,-0.60414 2.64282,-1.2115c0.76688,-0.5239 1.45145,-0.71857 2.29984,-1.14717c0.72937,-0.36847 1.40671,-0.94882 2.31433,-1.31433c0.8035,-0.32358 1.76273,-0.24088 2.543,-0.66833c0.82407,-0.45145 1.49417,-0.63525 2.42535,-1c0.69769,-0.2733 1.65363,-0.56424 2.57465,-0.57466c0.89993,-0.01018 1.8251,0.10295 2.76666,-0.16667c0.68414,-0.19591 1.33624,-0.65398 2.19736,-1.22266c0.82391,-0.54411 1.75085,-0.52238 2.52133,-0.696c0.79269,-0.17862 1.64676,-0.58386 2.48932,-0.90001c0.80994,-0.30391 1.40228,-0.92822 2.14133,-1.44667c0.8118,-0.56949 1.80762,-0.53212 2.52567,-0.58882c1.13089,-0.08931 1.91391,-0.31404 2.4375,-0.5c1.2067,-0.42856 1.80499,-0.99019 2.6875,-1.3125c0.64258,-0.23468 1.453,-0.19052 2.43784,-0.52383c0.8721,-0.29515 1.81564,-0.74603 2.62085,-1.04283c0.54852,-0.20219 1.61392,-0.58636 2.3175,-0.90001c0.86023,-0.38347 1.67056,-0.77565 2.45715,-1.22083c0.61099,-0.34578 1.38547,-0.97757 2.164,-1.61784c0.65845,-0.54152 1.49716,-0.85066 2.379,-0.86133c0.72894,-0.00882 1.56604,0.00838 2.75717,-0.00034c0.6044,-0.00443 1.54343,-0.03055 2.18515,-0.17033c1.41858,-0.30901 2.12573,-0.67584 2.81735,-1.01466c0.6496,-0.31824 1.60904,-0.9778 2.26532,-1.368c0.81802,-0.48636 1.76718,-0.60681 2.43735,-0.79933c0.99216,-0.28503 1.88693,-0.40356 2.68567,-0.70001c0.86667,-0.32167 1.62814,-0.84351 2.47565,-1.114c0.68362,-0.21819 1.42465,-0.59785 2.43335,-0.78065c0.79398,-0.14388 1.80539,-0.32779 2.63599,-0.66335c0.93536,-0.37788 1.72403,-0.68651 2.28485,-0.91016c0.88516,-0.353 1.78098,-0.79675 2.37466,-1.12733c0.87146,-0.48526 1.92899,-1.04831 2.65182,-1.24651c0.67096,-0.18398 1.63055,-0.41592 2.41882,-0.81967c0.60547,-0.31012 1.24072,-0.71776 2.36719,-1.28566c0.8302,-0.41855 1.28439,-0.60703 2.22916,-1.02083c0.49426,-0.21648 1.52811,-0.65875 2.60416,-1.14584c0.55637,-0.25185 1.69525,-0.78999 2.28,-1.06932c0.59525,-0.28433 1.1991,-0.57661 1.815,-0.86852c1.90216,-0.90149 2.55881,-1.1969 3.22101,-1.49416c0.66479,-0.29842 1.33148,-0.59187 1.99649,-0.88051c0.659,-0.28603 1.30908,-0.56822 3.1875,-1.35416c0.58939,-0.24661 1.16113,-0.47865 2.24002,-0.93068c0.51053,-0.2139 1.47314,-0.62466 1.91998,-0.83466c1.2395,-0.58253 1.96609,-0.99692 2.6525,-1.40134c0.67157,-0.39568 1.68311,-1.00801 2.40485,-1.39867c0.73694,-0.3989 1.48544,-0.77658 2.23199,-1.116c1.05536,-0.47983 1.72342,-0.73767 2.67334,-1.07468c0.60721,-0.21542 1.81049,-0.60352 2.38934,-0.81065c0.81061,-0.29005 1.84103,-0.81972 2.47198,-1.20001c0.87613,-0.52805 1.62521,-0.80142 2.17065,-1.036c1.18747,-0.51069 1.77792,-0.85426 2.40002,-1.18933c0.98767,-0.53199 2.10922,-1.01607 2.52133,-1.15334c0.85724,-0.28554 1.75943,-0.51397 2.65198,-0.774c0.43842,-0.12772 1.67346,-0.54571 2.39102,-0.9045c0.68396,-0.34198 1.61142,-0.94455 2.5145,-1.54283c0.60416,-0.40025 1.21573,-0.80797 1.85699,-1.2c1.00192,-0.61253 1.72272,-1.0066 2.46817,-1.38933c0.7453,-0.38264 1.48441,-0.73996 2.55316,-1.18934c0.66058,-0.27776 1.61911,-0.62798 2.22018,-0.90533c1.21927,-0.56262 1.79959,-0.94434 2.40131,-1.29066c0.5983,-0.34434 1.7988,-0.94415 2.40002,-1.2c0.89819,-0.38223 1.80978,-0.77437 2.6955,-1.278c0.59042,-0.33572 1.1329,-0.719 2.18298,-1.32567c0.67657,-0.39088 1.50507,-0.81554 2.52151,-0.9645c0.79324,-0.11626 1.80658,0.02185 2.564,-0.09317c0.97296,-0.14775 1.57166,-0.69458 2.32001,-1.16399c0.67612,-0.4241 1.57623,-1.09184 2.26865,-1.44283c0.85254,-0.43217 1.65186,-0.467 2.65268,-0.92783l0.67801,-0.471l0.54532,-0.36733" id="svg_12" stroke-width="2" stroke="#000" fill="none"/>
  <path t="43585,43799,43799,43831,43831,43870,43870,43951,43951,43975,43975,43991,44016,44016,44031,44031,44047,44047,44062,44077,44094,44094,44116,44116,44128,44150,44150,44160,44161,44177,44193,44193,44210,44227,44227,44227,44246,44246,44261,44278,44278,44294,44294,44294,44318,44318,44334,44334,44343,44343,44361,44378,44378,44394,44394,44411,44411,44428,44428,44428,44444,44444,44444,44461,44461,44461,44478,44478,44478,44494,44494,44511,44511,44511,44511,44528,44528,44528,44528,44544,44544,44544,44561,44561,44578,44578,44578,44578,44578,44594,44594,44594,44611,44611,44628,44628,44628,44644,44644,44644,44644,44661,44661,44661,44678,44678,44678,44694,44694,44694,44711,44711,44711,44729,44729,44729,44744,44744,44761,44761,44761,44778,44778,44794,44794,44811,44811,44811,44828,44828,44828,44844,44844,44861,44861,44861,44861,44878,44878,44899,44901,44901,44901,44911,44911,44931,44931,44931,44944,44972,44973,44990,44990,44999,44999,45011,45028,45044,45044,45044,45061,45061,45078,45078,45094,45094,45094,45094,45094,45094,45111,45111,45111,45128,45128,45128,45156,45156,45156,45171,45172,45172,45185,45185,45194,45194,45194,45194,45211,45211,45211,45211,45211,45228,45228,45228,45244,45244,45244,45261,45261,45261,45278,45278,45278,45294,45294,45294,45294,45294,45311,45311,45311,45311,45328,45328,45328,45328,45344,45344,45344,45361,45361,45361,45378,45378,45378,45394,45394,45411,45411,45411,45428,45428,45444,45444,45444,45461,45461,45461,45461,45478,45478,45478,45494,45494,45494,45494,45511,45511,45528,45528,45528,45528,45544,45544,45544,45561,45561,45561,45578,45578,45594,45594,45594,45611,45611,45628,45628,45644,45661,45661,45678,45678,45694,45694,45694,45694,45711,45711,45711,45711,45728,45728,45728,45744,45744,45744,45744,45761,45761,45778,45778,45778,45779,45794,45794,45794,45794,45811,45811,45811,45811,45828,45828,45844,45844,45845,45845,45861,45861,45861,45878,45878,45879,45894,45894,45894,45895,45895,45911,45911,45911,45928,45929,45929,45929,45944,45944,45944,45961,45961,45983,46005,46006,46026,46026,46054,46055,46072,46073,46073,46090,46091,46091,46091,46110,46110,46128,46128,46147,46148,46175,46175,46190,46222,46223,46311,46335,46349,46367,46367,46385,46402,46421,46421,46438,46439,46457,46475,46475,46493,46512,46512,46534,46550,46550,46567,46590,46630,46638,46638,46654,46654" d="m85.5,291c-1.83334,-0.16666 -2.14335,-0.9054 -2.70533,-1.65717c-0.42485,-0.56833 -1.06214,-1.31635 -1.22267,-2.13217c-0.20204,-1.02679 -0.1086,-1.83682 -0.0675,-2.86334c0.02788,-0.69608 0.47966,-1.52225 0.87417,-2.44748c0.31832,-0.74655 0.40534,-1.60345 0.883,-2.24716c0.62743,-0.84558 1.61176,-1.05136 2.06767,-1.85269c0.45302,-0.79623 0.48556,-1.82559 1.03201,-2.19998c0.94232,-0.64563 1.63287,-1.07776 2.056,-1.80002c0.4558,-0.77802 1.08167,-1.33417 1.916,-1.63333c0.86131,-0.30884 1.26959,-1.05655 2.028,-1.556c0.61154,-0.40271 1.68699,-0.54837 2.46017,-1.0535c0.55521,-0.36273 1.24947,-1.11743 2.07716,-1.6705c0.56147,-0.37518 1.69569,-0.53574 2.43467,-1.05331c0.66518,-0.46588 1.30162,-1.04034 1.87866,-1.23334c0.93079,-0.31131 2.04656,-0.66119 2.74634,-1.10001c0.73454,-0.46063 1.50399,-0.73199 2.20833,-1.5c0.55892,-0.60944 1.12245,-1.0705 1.9905,-1.70532c0.57275,-0.41888 1.3283,-1.00787 2.13217,-1.23334c1.02891,-0.28857 1.70641,-0.62753 2.544,-1.06134c0.65876,-0.34119 1.48795,-0.57028 2.5,-1.16666c0.73874,-0.4353 1.06724,-0.94681 2.16666,-1.5c0.75794,-0.38136 1.45432,-0.33612 2.4,-0.90268c0.64414,-0.38591 1.17798,-0.97861 2,-1.54666c0.78021,-0.53915 1.60434,-1.04533 2.209,-1.54117c0.66785,-0.54764 1.1424,-0.97327 2.03383,-1.54266c0.65358,-0.41747 1.3716,-0.79251 2.109,-1.14301c1.07253,-0.5098 2.08556,-0.88087 2.66484,-1.13634c1.09982,-0.48503 1.56889,-1.12332 2.41666,-1.52083c0.89377,-0.41908 1.70966,-0.51634 2.112,-0.636c0.80807,-0.24034 2.21753,-0.81804 2.73601,-1.18933c0.67651,-0.48447 1.39294,-1.34377 1.98,-1.76401c0.82855,-0.59312 1.61746,-0.80536 2.44766,-1.16783c0.89868,-0.39236 1.49544,-0.71709 2.37018,-1.24283c0.56747,-0.34106 1.58989,-0.9964 2.2955,-1.364c0.66931,-0.34869 1.65146,-0.72398 2.45065,-1.04666c0.82718,-0.33397 1.62096,-0.73744 2.3175,-1.2375c0.65923,-0.47327 1.65187,-1.12749 2.26784,-1.30118c0.86775,-0.24467 1.87653,-0.61029 2.40399,-0.90132c0.78242,-0.4317 1.83034,-0.94701 2.59067,-1.25467c0.75169,-0.30417 1.45668,-0.73921 2.18933,-1.24651c0.87653,-0.6069 1.45377,-1.17137 2.32668,-1.74817c0.65724,-0.4343 1.52092,-0.88826 2.064,-1.31065c0.59404,-0.46204 1.37209,-1.08798 2.11467,-1.56851c0.72205,-0.46724 1.71764,-0.87755 2.3625,-1.18333c0.93211,-0.442 1.4955,-0.89549 2.1375,-1.33749c0.642,-0.442 1.72256,-1.16743 2.5,-1.47917c0.98465,-0.39484 1.55258,-0.58754 2.5,-1.02083c0.6424,-0.29379 1.75589,-0.70387 2.45833,-1c0.89375,-0.37677 1.32103,-0.91014 2.05768,-1.43201c0.81352,-0.57634 1.82222,-0.75381 2.48399,-1.08882c0.85764,-0.43416 1.48431,-0.97391 2.2,-1.67917c0.60439,-0.5956 1.09616,-1.40034 2.00134,-1.71468c0.91547,-0.3179 1.66566,0.0063 2.39999,-0.256c1.06305,-0.37971 1.51863,-1.04262 2.37784,-1.58716c0.72139,-0.4572 1.69081,-1.07169 2.00633,-1.34885c0.7375,-0.64784 1.12125,-1.02582 1.94916,-1.76666c0.40926,-0.36623 1.53519,-1.34535 2.20934,-1.70132c0.76408,-0.40347 1.87869,-0.5341 2.65601,-0.87201c0.62148,-0.27016 1.60971,-1.02797 2.2,-1.57416c0.40681,-0.37642 1.18121,-1.19894 1.8,-1.75784c0.58293,-0.5265 1.60571,-1.03725 2.43599,-1.27199c0.93597,-0.26463 1.72916,-0.65759 2.30568,-0.99101c0.62383,-0.36078 1.62148,-0.96472 2.34099,-1.35699c0.7285,-0.39717 1.45531,-0.76674 2.14801,-1.116c1.19745,-0.60376 1.94765,-0.95389 2.56667,-1.36934c0.83298,-0.55907 1.39871,-1.14958 2.088,-1.632c0.71214,-0.49843 1.53845,-0.85184 2.362,-1.17949c1.02959,-0.40964 1.75122,-0.70238 2.46249,-1.11884c0.84001,-0.49184 1.46158,-0.95209 2.1515,-1.44701c0.7262,-0.52095 1.45302,-1.06018 2.172,-1.57199c0.67987,-0.48398 1.31738,-0.96205 2.31934,-1.505c0.99208,-0.5376 1.72618,-0.78366 2.45134,-1.02567c0.69635,-0.23239 1.92117,-0.5881 2.53349,-0.94051c0.69603,-0.40057 1.39078,-1.03854 2.12384,-1.51016c0.7758,-0.49911 1.55952,-0.89841 2.49199,-1.12399c0.75185,-0.18188 1.63081,-0.5096 2.216,-0.94801c0.79839,-0.59816 1.53621,-1.12022 2.0825,-1.40349c1.0013,-0.5192 1.94438,-0.61259 2.94817,-0.87651c0.82947,-0.21809 1.46614,-0.57982 2.42133,-1.15466c0.53651,-0.32288 1.3495,-0.85951 1.89467,-1.19467c0.99445,-0.61136 1.70299,-0.98763 2.45334,-1.368c0.87102,-0.44154 1.53444,-0.763 2.20982,-1.116c0.97177,-0.5079 1.93719,-1.1701 2.52084,-1.45833c0.95761,-0.47289 1.86243,-0.48976 2.52084,-0.54167c0.67825,-0.05347 1.95654,-0.16092 2.70715,-0.44667c0.686,-0.26115 1.672,-1.03732 2.272,-1.55333c0.60001,-0.51601 1.3739,-1.16333 2,-1.45833c0.96613,-0.4552 1.80893,-0.46382 2.60001,-0.62567c1.01132,-0.20692 1.76236,-0.59125 2.51465,-1.11467c0.70331,-0.48936 1.53317,-0.7906 2.37067,-1.08533c0.73709,-0.2594 1.72534,-0.54427 2.51468,-0.73683c1.01785,-0.24831 1.60056,-0.70851 2.30801,-1.16451c0.53854,-0.34711 1.55017,-0.81068 2.34549,-1.0575c0.82022,-0.25453 1.65387,-0.38367 2.67984,-0.75717c0.98053,-0.35696 1.51385,-0.82227 2.43066,-1.5425c0.59,-0.46349 1.22702,-0.94951 1.87799,-1.395c0.84668,-0.57942 1.69702,-0.91818 2.69135,-1.39583c0.70142,-0.33694 1.19659,-0.70842 2.06934,-1.18401c0.88611,-0.48285 1.50061,-0.73299 2.43332,-1.108c0.6485,-0.26074 1.68643,-0.69266 2.40765,-1.02283c0.71616,-0.32785 1.37762,-0.67065 2.49219,-1.10934c0.89536,-0.35242 1.80743,-0.90617 2.2785,-1.30049c0.52762,-0.44164 1.3429,-1.18495 2.28549,-1.57767c0.85727,-0.35716 1.47723,-0.29811 2.53351,-0.53101c0.97903,-0.21587 1.46133,-0.48621 2.66666,-1c0.75037,-0.31987 1.57468,-0.65146 2,-0.8125c0.83945,-0.31784 1.99564,-0.70622 2.93301,-0.9155c0.76773,-0.17139 1.74728,-0.41139 2.51965,-0.81517c0.55789,-0.29166 1.35236,-0.82623 2.362,-1.40483c0.65756,-0.37685 1.27731,-0.69766 2.28082,-1.18083c0.74252,-0.35751 1.66943,-0.58807 2.57117,-0.87117c0.67517,-0.21198 1.65579,-0.7393 2.45868,-0.82266c0.85547,-0.08881 1.58563,0.01346 2.57501,-0.011c0.84207,-0.02081 1.58643,-0.12476 2.76633,-0.56766c0.68369,-0.25664 1.33963,-0.59766 1.97998,-0.86401c1.17422,-0.4884 1.95172,-0.60767 2.88934,-1.004c0.78113,-0.33018 1.54663,-0.79842 2.328,-1.12799c0.93478,-0.39429 1.72318,-0.36848 2.66135,-0.44667c1.01648,-0.08472 1.57806,-0.67525 2.47464,-0.93217c0.86694,-0.24843 1.80002,-0.05716 2.70001,-0.05716c0.79999,0 1.77176,-0.2874 2.60001,0.07201c0.86874,0.37697 1.02493,1.33481 1.60001,2.04132c0.53564,0.65808 1.59149,0.91783 2.09549,1.59651c0.43518,0.58601 0.53665,1.72203 0.98984,2.49016c0.40213,0.68158 1.22974,1.28529 1.81448,1.90001c0.55774,0.58632 1.02948,1.349 1.61618,1.98399c0.63916,0.6918 1.16266,1.35884 1.30933,2.10133l0.26001,0.92799l0.51599,0.60001" id="svg_13" stroke-width="2" stroke="#000" fill="none"/>
  <path t="47814,47993,48009,48009,48046,48046,48077,48110,48110,48133,48179,48179,48223,48272,48273,48310,48343,48366,48374" d="m98.5,270c1.83334,0.16666 2.22807,0.96457 2.57467,1.63599c0.41931,0.81229 0.37194,1.75418 0.778,2.60684c0.3856,0.80972 0.6596,1.60739 1.16817,2.25717c0.60114,0.76807 1.17921,1.19995 1.87917,1.89999c0.69988,0.69995 1.24283,1.30002 1.6,2.07916l0.61066,0.54617l0.77867,0.41068l0.52666,0.76401" id="svg_14" stroke-width="2" stroke="#000" fill="none"/>
  <path t="48992,49089,49105,49129,49130,49130,49144,49144,49163,49163,49163,49182,49182,49182,49198,49198,49210,49228,49260,49260,49276,49309,49348,49358" d="m117.5,258c1.22134,0.87866 1.89668,1.3772 2.16666,2.16666c0.29923,0.87494 0.6344,1.43478 1.13334,2.43335c0.29984,0.6001 0.79204,1.60437 1.11066,2.21066c0.46294,0.88092 0.91302,1.60895 1.404,2.40399c0.47797,0.77399 0.89936,1.65921 1.2,2.36401c0.36028,0.84464 0.77437,1.67496 1.20667,2.52133c0.33472,0.6553 0.80399,1.46399 1.48316,1.95267l0.77467,0.46817l0.43551,0.67917" id="svg_15" stroke-width="2" stroke="#000" fill="none"/>
  <path t="49992,50092,50108,50125,50125,50140,50141,50153,50164,50176,50176,50196,50225,50225,50239,50239,50261,50277,50292,50309,50326,50350" d="m135.5,249c1.99733,0.80133 2.0027,1.68054 2.56799,2.48399c0.38725,0.55038 1.24141,1.30843 1.423,2.2115c0.15871,0.78926 0.36211,1.60825 1.009,2.3045c0.5605,0.60327 0.90681,1.43185 1.2215,2.32132c0.24739,0.69928 0.93884,1.6156 1.3425,2.26801c0.47565,0.76874 0.44051,1.70618 0.86134,2.38535l0.55383,0.54617l0.03149,0.87915l0.3465,0.89551" id="svg_16" stroke-width="2" stroke="#000" fill="none"/>
  <path t="50930,51009,51025,51025,51049,51059,51059,51077,51077,51097,51115,51115,51132,51132,51150,51150,51165,51165,51176,51197,51197,51213,51239,51262,51317" d="m153.5,236c1.8,0 2.72322,-0.14651 3.38933,0.436c0.69934,0.61159 0.71684,1.75928 1.04668,2.37866c0.48026,0.90186 1.29128,1.25897 1.53867,2.04666c0.29688,0.94525 0.58014,1.61572 1.12534,2.46001c0.42735,0.66179 0.95847,1.47363 1.37917,2.17867c0.46793,0.78419 0.4037,1.73814 1.04166,2.5c0.56831,0.6787 1.04317,1.18533 1.39517,2.11333l0.368,0.80267l0.69067,0.52l0.30933,0.76399" id="svg_17" stroke-width="2" stroke="#000" fill="none"/>
  <path t="51849,51908,51923,51923,51944,51944,51959,51975,51975,51992,51992,51992,52009,52025,52025,52042,52059,52059,52075,52075,52092,52116,52141,52141" d="m169.5,227c1.75717,0 2.71034,-0.17918 3.51601,0.17067c0.82764,0.35939 1.15125,1.15576 1.88399,1.77867c0.77176,0.65607 1.20216,1.27089 1.60001,2.05066c0.40216,0.78824 0.8392,1.48907 1.38933,2.37466c0.47911,0.77127 0.35826,1.73654 0.89601,2.45734c0.52202,0.69969 1.17993,1.21124 1.71466,2.00133c0.45074,0.666 0.94733,1.46217 1.42534,2.15201l0.49066,0.584l0.13667,0.7825" id="svg_18" stroke-width="2" stroke="#000" fill="none"/>
  <path t="52714,52757,52782,52782,52789,52789,52789,52813,52813,52825,52825,52825,52842,52859,52859,52875,52875,52892,52892,52909,52990,52990" d="m192.5,214c1.7,0.11433 2.33585,0.70071 2.7,1.46617c0.44479,0.93498 0.6756,1.75838 1,2.524c0.37253,0.87923 0.93427,1.62619 1.62117,2.33116c0.49226,0.5052 1.1082,0.9474 1.569,1.92599c0.40898,0.86855 0.58907,1.77802 1.10983,2.586c0.44478,0.69009 0.87866,1.48784 1.02533,2.30534l0.33183,0.756l0.74284,0.54817l0.39999,0.57799" id="svg_19" stroke-width="2" stroke="#000" fill="none"/>
  <path t="54057,54125,54125,54125,54125,54162,54195,54195,54228,54228,54228,54228,54228,54262,54262,54262,54262,54295,54295,54295,54295,54295,54328,54328,54362,54362" d="m218.5,199c-1,1 -1,1.75717 -1,2.65266c0,0.86334 -0.01137,1.84741 0.00017,2.66917c0.01041,0.74088 0.15016,2.01483 0.28783,2.64749c0.15147,0.69614 0.35228,1.4342 0.68401,2.14801c0.50784,1.09279 1.02596,1.73943 1.56967,2.36183c0.5511,0.63087 1.46039,1.51878 2.05566,2.11949c0.58336,0.58867 1.1483,1.14978 1.632,1.716c0.83113,0.97292 1.22899,1.64366 1.77066,2.51866l0.39999,0.53067" id="svg_20" stroke-width="2" stroke="#000" fill="none"/>
  <path t="55555,55625,55625,55640,55640,55662,55662,55675,55675,55692,55692,55709,55709,55725,55725,55742,55742,55759,55775,55794,55813" d="m236.5,186c0.436,1.836 0.81467,2.59483 1.19867,3.39999c0.37859,0.79381 0.61432,1.81476 0.82216,2.57918c0.23863,0.87767 0.98911,1.22142 1.64584,2.02083c0.53821,0.65512 0.72087,1.64433 0.98067,2.4045c0.26787,0.78378 0.22188,1.81389 0.57416,2.57384c0.34396,0.742 1.3425,1.047 1.774,1.72617l0.06166,0.93834l0.65884,0.44116" id="svg_21" stroke-width="2" stroke="#000" fill="none"/>
  <path t="56461,56541,56556,56587,56599,56599,56616,56616,56627,56642,56642,56642,56660,56675,56692,56709,56733,56765,56765,56781" d="m257.5,177c2.58932,0 3.55649,-0.04306 4.06134,0.64667c0.45773,0.62535 1.04471,1.27858 1.60532,2.18666c0.43719,0.70819 0.64078,1.53441 1.5,2.16667c0.61334,0.45134 1.32828,0.75684 1.84802,1.60001c0.47186,0.76547 0.81848,1.6115 0.98547,2.49983c0.14957,0.79573 1.09967,1.12166 1.64267,1.60466l0.38251,0.89551" id="svg_22" stroke-width="2" stroke="#000" fill="none"/>
  <path t="57326,57375,57375,57375,57412,57445,57446,57475,57476,57476,57492,57492,57492,57492,57516,57517,57517,57548,57548,57572" d="m287.5,163c1.75717,0.05716 2.72446,0.24323 3.29016,0.7045c0.80518,0.65651 0.68082,1.61342 0.79517,2.3515c0.15594,1.00676 0.33759,1.64856 0.56134,2.34c0.47061,1.45425 0.81671,2.12871 1.18933,2.74667c0.35425,0.58748 1.13339,1.56137 1.75949,2.043c0.71506,0.55006 1.51785,1.01433 2.11786,1.61433l0.31198,0.8" id="svg_23" stroke-width="2" stroke="#000" fill="none"/>
  <path t="58120,58189,58197,58197,58212,58225,58242,58242,58242,58259,58259,58283,58283,58299,58299,58315,58315,58348,58348" d="m316.5,153c1.75717,0 2.65274,-0.00954 3.51599,0c0.94254,0.01042 1.44833,0.58881 1.92685,1.54266c0.23953,0.47748 0.71918,1.22359 1.3905,2.12401c0.50287,0.67445 0.94644,1.47765 1.336,2.21866c0.43677,0.83076 1.01599,1.28934 1.80914,2.09334l0.50067,0.52133l0.62067,0.82133l0.37933,0.67867" id="svg_24" stroke-width="2" stroke="#000" fill="none"/>
  <path t="59635,59695,59711,59711,59733,59749,59780,59781,59793,59810,59826,59826,59843,59843,59860,59876,59876,59876,59893,59910,59910,59926,59943,59943,59959,59997" d="m231.5,266c-0.83333,2.16666 -1,3 -1,3.79999c0,0.90002 0.01186,1.85147 -0.284,2.68402c-0.2509,0.70605 -0.67329,1.62787 -0.716,2.616c-0.03886,0.89914 0,1.65717 0,2.55267c0,0.86331 0.04849,1.89786 -0.44267,2.66864c-0.34848,0.54688 -1.19241,1.10596 -1.48532,2.05334c-0.28044,0.90701 -0.07201,1.79999 -0.07201,2.73999c0,0.88535 0,1.68533 0,2.58536l0,0.89999" id="svg_25" stroke-width="2" stroke="#000" fill="none"/>
  <path t="60611,60720,60736,60764,60764,60780,60794,60794,60794,60810,60810,60810,60826,60843,60843,60859,60877,60894,60933,60933,60943,60966,61279,61295,61314,61326,61342,61343,61343,61361,61361,61361,61380,61380,61399,61399,61410,61410,61461,61461,61501,61549,61549,61566,61579,61593,61593,61609,61625,61652,61653,61660,61675,61708,61733,61734,61749,61765,61765,61775,61807,61835,61849,61849,61872,61872,61878,61892,61892,61908,61925,61942,61958,61975,61992,62008,62008,62025,62025,62042,62042,62058,62058,62058,62075,62075,62076,62092,62108,62108,62125,62125,62142,62142,62158,62175,62192,62192,62208,62208,62226,62242,62258,62259,62276,62276,62276,62293,62309,62309,62309,62325,62342,62343,62359,62376,62393,62409,62409,62429,62429,62429,62461,62461,62476,62476,62493,62533,62557,62589,62597,62597,62613,62626,62626,62643,62659,62659,62659,62676,62676,62693,62693,62693,62709,62709,62709" d="m239.5,265c0,1.79999 0,2.63599 0,3.48401c0,0.86331 0.04185,1.9115 -0.16667,2.84933c-0.15254,0.68604 -0.42249,1.46024 -0.83333,2.5c-0.28091,0.71094 -0.64978,1.50269 -0.94733,2.40948c-0.28056,0.85504 -0.89853,1.52402 -1.04201,2.35718c-0.15276,0.88699 -0.01067,1.81067 -0.01067,2.72131c0,0.85333 0.24016,1.92429 -0.284,2.59467c-0.48917,0.62561 -1.23665,1.07358 -2.116,1.08401c-0.90445,0.01071 -1.76668,0 -2.64168,0c-0.64499,0 -1.64233,0 -2.45833,0c-0.81599,0 -2.04283,0 -2.68933,0c-1.01067,0 -1.81067,0 -2.81067,0c-0.78934,0 -1.86864,-0.19366 -2.6955,0.05716c-0.88858,0.26956 -1.40681,1.04056 -2.0045,1.64285c-0.692,0.69733 -1.23912,1.39386 -1.3,2.29999c-0.05363,0.79819 0,1.70001 0,2.63599c0,0.84802 0,1.71133 0,2.72803c0,0.836 0,1.73599 0,2.63599c0,0.79999 -0.04358,1.75845 0.0045,2.64816c0.04245,0.78552 0.5387,1.57544 1.21683,2.2305c0.57944,0.55972 0.86691,1.3269 1.2995,2.10049c0.40901,0.73141 1.32945,1.03192 1.97917,1.54169c0.76659,0.60144 0.93086,1.46017 1.55267,2.12198c0.5676,0.6041 1.74422,-0.00598 2.51132,0.39319c0.75938,0.39514 1.25482,0.96173 2.20401,0.96399c0.73199,0.00174 1.89867,0 2.71117,0c0.8425,0 1.5625,0 2.6875,0c0.786,0 1.608,0 2.66666,0c0.705,0 1.68001,0 2.54134,0c0.94667,0 1.80144,0.05057 2.74133,-0.00134c0.77141,-0.0426 1.6942,-0.46295 2.40001,-0.71466c0.94582,-0.33728 1.79784,-0.62643 2.48399,-1.284c0.61264,-0.5871 1.20456,-1.1955 1.8,-1.79999c0.68445,-0.69485 1.15729,-1.39853 1.2,-2.36667c0.03764,-0.85336 0,-1.83334 0,-2.62268c0,-0.72534 0,-1.73151 0,-2.75333c0,-0.70801 0,-1.452 0,-2.64301c0,-0.81433 0.01799,-1.6145 0,-2.51434c-0.01801,-0.90054 -0.5219,-1.64828 -0.91733,-2.50266c-0.33949,-0.73355 -0.62909,-1.58151 -1.12434,-2.29733c-0.35056,-0.50668 -1.15279,-1.36362 -1.91666,-1.95834c-0.7036,-0.54779 -0.62326,-1.48605 -1.09883,-2.18448c-0.46426,-0.68179 -1.63138,-0.43628 -2.46367,-0.85718c-0.79018,-0.39963 -1.65379,-0.49466 -2.59384,-0.5c-0.88531,-0.00504 -1.68533,0 -2.55733,0c-0.87083,0 -1.84883,0 -2.64534,0c-0.99733,0 -1.66183,0 -2.68266,0c-0.81067,0 -1.68533,0 -2.68401,0l-0.81599,0l-0.81599,0" id="svg_26" stroke-width="2" stroke="#000" fill="none"/>
  <path t="63167,63335,63350,63380,63421,63460,63469,63501,63501,63509,63533,63542,63558,63558,63575,63592,63608,63625,63642,63658,63675,63675,63692,63708,63709,63749,63757,63781,63799,63815,63830,63842,63858,63893,63893,63901,63908,63942,63973,63973,63989,64005,64005,64029,64068,64069,64109" d="m225.5,291c2.58934,0 3.5,0 4.39999,0c0.90001,0 1.8,0 2.70001,0c0.89999,0 1.68996,0.10275 2.39999,0.5c0.88799,0.4968 1.89458,0.65085 2.33333,1.5c0.32985,0.63837 0.16667,1.60001 0.16667,2.5c0,0.89999 0,1.79999 0,2.70001c0,0.89999 0.00381,1.79999 0,2.55716c-0.00534,1.05753 -0.10648,2.06891 -0.80133,2.24017c-0.87256,0.21506 -1.79868,0.00266 -2.69867,0.00266c-0.89999,0 -1.8,0.00009 -2.7,0c-0.89984,-0.00009 -1.59048,-0.34421 -2.0215,-1.10001c-0.38158,-0.6691 -1.2115,-1.27286 -1.6945,-2.09866c-0.40733,-0.69644 -1.34525,-0.88947 -1.79866,-1.60266c-0.47144,-0.74152 -0.28534,-1.85135 -0.28534,-2.54599c0,-1.02734 0,-1.974 0,-2.65268l0,-1.11465" id="svg_27" stroke-width="2" stroke="#000" fill="none"/>
  <path t="66480,66603,66619,66653,66677,66677,66677,66701,66701,66733,66733,66749,66749,66765,66789,66789,66805,66805,66821,66829,66843,66859,66859,66876,66876,66893,66925,66946,66946" d="m422.5,171c1.81467,0.01067 2.56503,0.42389 3.28665,0.916c0.75595,0.51553 1.55261,0.51323 2.31467,0.88533c1.00308,0.48979 1.60132,0.79344 2.59851,1.29868c0.7814,0.3959 1.61993,0.9192 2.16418,1.28932c0.81796,0.55626 1.83124,0.71683 2.45065,1.04668c0.90186,0.48026 1.05902,1.40149 1.70618,2.04317c0.64383,0.63838 1.7951,0.32368 2.47916,0.85416c0.65851,0.51068 1.07666,1.50732 1.79999,1.664c0.89807,0.19453 1.36667,0.836 2.20001,1.00267l0.79999,0.08533" id="svg_28" stroke-width="2" stroke="#000" fill="none"/>
  <path t="67980,68137,68153,68175,68200,68211,68226,68243,68259,68259,68276,68276,68292,68309,68326,68326,68342,68342,68359,68376,68405,68405,68430,68445,68469,68469,68493,68509,68509,68549,68688,68688,68688" d="m418.5,172c0.05716,1.7 0.53763,2.45247 1.2955,2.94733c0.6954,0.45407 1.33542,0.88217 2.2045,1.0735c0.84753,0.18658 1.49976,0.97942 2,1.47917c0.69968,0.69901 1.33597,1.13107 2.20001,1.55267c0.84265,0.41116 1.26904,1.13388 1.79999,1.9265c0.47311,0.70627 1.43149,0.62549 2.21466,1.10616c0.72287,0.44366 1.12115,1.36154 1.80267,1.62933c0.93375,0.3669 1.71378,0.76184 2.58267,1.164c0.66202,0.30641 1.50266,0.72931 2.10001,1.32133c0.60266,0.59731 1.32083,1.32083 1.96664,1.96667l0.48602,0.48149l0.69464,0.642" id="svg_29" stroke-width="2" stroke="#000" fill="none"/>
  <path t="69452,69508,69524,69524,69545,69561,69561,69576,69576,69592,69609,69626,69626,69642,69659,69678,69678,69692,69692,69709,69733,69733,69749,69765,69789,69789,69839,69839,69839,69861,69861,69957,69957" d="m418.5,171c-1.63599,0.61067 -2.35135,1.05415 -2.97916,1.5c-0.89789,0.63765 -0.91583,1.51649 -1.10617,2.38533c-0.17389,0.79375 -0.60605,1.63858 -0.88934,2.47867c-0.28482,0.84467 -0.78778,1.66229 -1.078,2.336c-0.36261,0.8418 -0.83853,1.62077 -1.11398,2.46667c-0.27792,0.85342 -0.74506,1.65555 -0.82886,2.52882c-0.07886,0.82156 -0.00449,1.7885 -0.00449,2.65184c0,0.89549 0.03577,1.85338 -0.00015,2.75299c-0.02859,0.71571 -0.28952,1.6674 -0.49985,2.4205c-0.22198,0.79486 -0.41467,1.79251 -0.48932,2.63251l-0.01068,0.96266l0,0.76801" id="svg_30" stroke-width="2" stroke="#000" fill="none"/>
  <path t="71032,71186,71186,71202,71230,71230,71242,71274,71275,71310,71310,71332,71351,71377,71390,71406,71430,71929,71944,71967,71968,71996,72030,72030,72063,72063,72064,72080,72100,72109,72166,72189,72258,72258,72296,72313,72330,72363,72383,72383,72383,72405,72405,72429,72453,72453,72477,72492,72509,72557,72573,72589,72589,72605,72655,72719,72838,72838,72903,72919,72926,72964,73004,73061,73062,73128,73128,73144" d="m405.5,177c-1.64816,1.65266 -2.36218,2.04584 -2.82935,3.11467c-0.36108,0.82616 0.1937,1.79608 -0.22781,2.52817c-0.46725,0.81151 -1.00369,1.25259 -1.36816,2.1825c-0.27347,0.69768 -0.56424,1.65366 -0.57468,2.57466c-0.01019,0.89995 0.12402,1.80861 -0.00015,2.69984c-0.11172,0.80188 -1.20987,1.28282 -0.99719,2.09883c0.20425,0.78371 1.18265,0.79599 2.24469,0.80133c0.91931,0.00462 1.58865,0 2.75266,0c0.78934,0 1.51468,0 2.47916,0c0.92084,0 1.82083,0 2.72086,0c0.89999,0 1.80038,-0.02536 2.59998,0c0.9014,0.02859 1.64746,0.54091 2.14734,1.2955c0.47031,0.70995 1.38708,1.13206 1.87802,1.56583c0.53677,0.47426 1.28931,1.25334 1.87015,1.83417c0.7045,0.7045 1.51285,1.32181 1.94733,2.0045c0.46594,0.73213 0.35718,1.7 0.35718,2.60001c0,0.89999 0,1.8 0,2.7c0,0.8 0.18842,1.72769 -0.03601,2.60001c-0.22287,0.86621 -0.98129,1.60834 -1.664,2.04283c-0.73212,0.46594 -1.69998,0.35716 -2.59998,0.35716c-0.90002,0 -1.80002,0 -2.70001,0c-0.79999,0 -1.70001,0 -2.60001,0l-0.89999,-0.02083" id="svg_31" stroke-width="2" stroke="#000" fill="none"/>
  <path t="73707,73760,73760,73776,73873,73910,73942,73942,73959,73976,73998,74014,74030,74030,74046,74069,74077,74117,74165,74197,74197,74230,74246,74266,74266,74293,74325,74357,74357,74381,74381" d="m401.5,190c-2.24283,1.64816 -2.85052,2.37195 -3.47916,2.97917c-0.60052,0.58006 -0.96506,1.41315 -1.62067,2.12083c-0.54996,0.59363 -0.75638,1.3644 -0.25284,1.95267c0.5636,0.65843 0.84302,1.47833 1.55267,2.146c0.57635,0.54225 1.59009,0.80042 1.79865,1.60266c0.22659,0.8716 0.4772,1.76253 1.30133,2.146c0.76669,0.35675 1.4704,0.8793 2.30002,1.04201c0.88467,0.17349 1.51904,0.6416 2.10001,1.30533c0.62173,0.7103 1.60449,0.70534 2.46664,0.70534l0.83334,0l0.97867,0l0.77399,0" id="svg_32" stroke-width="2" stroke="#000" fill="none"/>
  <path t="74737,74948,74964,75101" d="m410.5,200" id="svg_33" stroke-width="2" stroke="#000" fill="none"/>
  <path t="75690,75851,75867,75902,75910,75925,75950,75950,75974,75998,76030,76046,76070,76070,76094,76094,76126,76126,76142,76159,76176,76192,76214,76246,76261,76286,76302,76318,76334,76342,76342,76374,76390,76398,76429,76429,76442,76459,76476,76493,76494,76541,76542,76574,76574,76590,76606,76614,76638,76646,76659,76677,76694,76709,76725,76742,76742,76766,76790,76790,76814,76814,76838,76854,76878,76878,76926,76926,77006,77063,77063,77079,77111,77129,77146,77205,77244,77245,77284" d="m440.5,181c0.29099,1.64284 -0.60855,1.82007 -1.2955,2.35716c-0.7439,0.5816 -1.03146,1.37645 -1.7045,1.97617c-0.62216,0.5544 -1.2298,1.24898 -1.83334,1.83334c-0.6282,0.60823 -1.00043,1.28371 -1.60931,1.9335c-0.60638,0.64713 -1.3396,1.21347 -1.5365,1.89983c-0.27798,0.96895 -0.83069,1.64981 -1.01016,2.60001c-0.16705,0.88441 -0.01068,1.79999 -0.01068,2.7c0,0.89999 -0.08868,1.80438 0,2.7c0.08374,0.84569 0.79205,1.23788 1.00015,2.09984c0.20288,0.84041 1.0365,1.22629 1.79984,1.61617c0.7529,0.38455 1.76959,0.17255 2.5,0.64116c0.79993,0.5132 1.2338,1.38399 2.10001,1.60684c0.87231,0.22443 1.80133,0.036 2.76666,0.036c0.83334,0 1.66669,0 2.586,0c0.90002,0 1.68054,0.408 2.70569,-0.02083c0.7312,-0.30588 1.35974,-0.97346 1.54031,-1.7805c0.19623,-0.87698 0.00134,-1.79868 0.00134,-2.69867c0,-0.89999 0,-1.8 0,-2.7c0,-0.90018 0,-1.68533 0,-2.62534c0,-1.008 0,-1.8 0,-2.65866c0,-0.86334 0.14929,-1.86757 -0.436,-2.50134c-0.54709,-0.59238 -1.11603,-1.23236 -1.664,-1.99316c-0.46136,-0.64053 -1.11673,-1.44766 -1.89999,-1.85483c-0.74384,-0.38667 -1.53717,-0.91362 -2.39999,-1.13068c-0.8735,-0.21974 -1.80002,-0.036 -2.70001,-0.036l-0.89999,0l-0.79999,0l-0.836,0" id="svg_34" stroke-width="2" stroke="#000" fill="none"/>
  <path t="77671,77757,77757,77824,77824,77885,77909,77925,77956,77956,77996,78012,78012,78085,78175,78175,78191,78212,78212,78241,78241,78258,78258,78258,78300,78340,78340" d="m436.5,197c1.16666,-1 1.61044,-1.66718 2.48401,-1.916c0.84064,-0.23944 1.65475,-0.66705 2.51599,-0.91733c0.80023,-0.23256 1.2233,0.79851 1.57468,1.43333c0.48706,0.87994 0.42654,1.72133 0.42532,2.57466c-0.00134,0.93866 -0.43695,1.75534 -1.18533,1.81467c-1.05875,0.08394 -1.98132,0.01067 -2.64001,0.01067c-1.008,0 -1.84338,-0.00383 -2.71732,-0.22133c-0.715,-0.17793 -1.68933,-0.49467 -2.63849,-0.7305l-0.69736,-0.49101l-0.11081,-0.74249" id="svg_35" stroke-width="2" stroke="#000" fill="none"/>
  <path t="79873,80035,80050,80050,80066,80100,80100,80116,80116,80132,80146,80160,80181,80198,80198,80292,80292,80333,80349,80349,80365,80393,80423,80423,80449,80449,80458,80458,80476,80476,80476,80491,80508,80524,80542,80542,80559,80575,80591,80629,80629,80669,80669,80702,80718,80740,80772,80781,80812,80828,80828,80844,80868,80868,80885" d="m404.5,201c0.16666,-1.83333 1.00073,-1.96564 1.79999,-2c0.83832,-0.03604 1.67923,-0.57378 2.20001,-1c0.82587,-0.67592 1.58914,-0.98933 2.5,-1c0.89993,-0.01054 1.79999,0 2.70132,0c0.96533,0 1.83792,-0.12512 2.63202,0.16667c0.82294,0.3024 1.63245,1.03073 2,1.83333c0.34015,0.74272 0.43457,1.76355 0.09467,2.60001c-0.2934,0.72198 -1.30212,1.06747 -2.04401,1.59999c-0.65765,0.47206 -1.36224,1.01311 -2.09467,1.40001c-0.98001,0.5177 -1.60016,0.76331 -2.30402,1.2c-0.87845,0.54498 -1.68231,1.15729 -2.58533,1.2c-0.89899,0.04253 -1.69998,0 -2.60001,0c-0.89999,0 -1.82101,0.01671 -2.62131,-0.00017c-0.85388,-0.01801 -1.95676,-0.14026 -2.39203,-0.80116c-0.51807,-0.78665 -0.28665,-1.79868 -0.28665,-2.69867c0,-0.89999 0,-1.8 0,-2.70134c0,-0.96533 0.02084,-1.77783 0.28534,-2.62933l0.81448,-0.39082l0.543,-0.483l0.38251,-0.8595" id="svg_36" stroke-width="2" stroke="#000" fill="none"/>
 </g>
 <g display="none">
  <title>muse_image</title>
  <image xlink:href="http://farm1.static.flickr.com/23/33041999_713888dc3c.jpg" id="muse" height="358" width="640" y="61" x="0"/>
 </g>
 <g display="none">
  <title>bbox</title>
  <rect stroke="#f00" fill="none" stroke-width="3" height="203.29286" width="627.2" y="123.65" x="12.8" id="bbox"/>
 </g>
</svg>
