<svg width="640" height="480" xmlns="http://www.w3.org/2000/svg" xmlns:svg="http://www.w3.org/2000/svg" xmlns:xlink="http://www.w3.org/1999/xlink">
 <!-- Sketchy ANNOTATION
  ImageNet ID: n02691156_9099
  URL: http://farm3.static.flickr.com/2176/2165867961_d2caac80fd.jpg
  Image Width: 500
  Image Height: 375
  BBox X: 145
  BBox Y: 144
  BBox Width: 226
  BBox Height: 75
  Exposure: 2000ms
  Synset Label: airplane
  Synset ID: n02691156
  Worker Tag: an airplane
  Sanity Check: 
   Context
   Saved
   Shading
  Comment: 
   {}
  Worker ID: A1R959DUXT5S4I
  Assignment ID: 3PJUZCGDJ6G5Q4N4NWZ7BOJXPYX98S
  HIT ID: 3VIVIU06FKCBZAKHVPA14FOAS7OIM5
  Work Time: 92s
  Worker Score: 0.9286
 END ANNOTATION -->
 <g display="inline">
  <title>Layer 1</title>
  <path t="0,87,104,119,136,152,152,169,169,186,186,186,195,196,219,219,240,240,253,253,253,268,268,269,269,283,283,296,297,319,319,319,336,336,336,336,352,352,369,370,370,386,386,399,399,399,419,419,420,436,436,436,452,452,469,469,469,488,488,499,499,500,519,536,536,536,553,553,553,553,569,569,569,587,587,587,587,602,602,602,611,612,636,636,636,636,652,652,653,667,667,667,684,684,684,699,700,700,714,715,715,715,767,767,767,768,784,784,784,784,787,800,800,801,801,817,817,817,834,834,834,847,847,847,848,867,868,884,884,884,900,900,900,918,918,918,934,934,935,935,935,949,949,949,968,968,968,968,984,985,985,985,1000,1001,1001,1017,1017,1017,1034,1034,1034,1049,1050,1050,1067,1067,1068,1084,1085,1085,1100,1100,1100,1117,1117,1117,1117,1134,1134,1135,1151,1151,1151,1161,1161,1161,1162,1184,1187,1187,1200,1200,1200,1201,1217,1218,1239,1239,1249,1250,1267,1268,1268,1287,1287,1287,1306,1306,1307,1343,1344,1344,1345,1345,1363,1364,1364,1364,1364,1390,1390,1390,1391,1391,1391,1400,1400,1401,1401,1401,1420,1420,1440,1440,1459,1459,1459,1479,1479,1479,1495,1515,1515,1515,1533,1533,1533,1533,1533,1548,1548,1548,1548,1548,1569,1569,1570,1570,1589,1589,1589,1589,1590,1611,1612,1612,1612,1641,1642,1642,1700,1700,1700,1700,1701,1701,1723,1723,1723,1724,1724,1724,1724,1724,1725,1761,1761,1762,1762,1822,1823,1823,1823,1864,1865,1865,1865,1866,1866,1890,1890,1891,1891,1939,1939,1940,1949,2511,2614,2638,2638,2664,2665,2683,2712,2774,2790,2809,2846,2847,2914,2942,2942,2943,2943,2968,2968,2993,3022,3052,3083,3084,3156,3156,3174,3175,3175,3175,3176,3176,3226,3227,3264,3264,3265,3305,3306,3306,3324,3325,3358,3414,4374,4404,4428,4446,4472,4505,4549,4549,4550,4593,4593,4593,4636,4636,4637,4668,4669,4669,4670,4683,4683,4683,4713,4713,4714,4744,4745,4745,4746,4776,4776,4777,4777,4835,4836,4836,4836,4850,4850,4850,4851,4851,4876,4876,4876,4906,4907,4908,4909,4985,4985,4986,4986,5022,5023,5023,5024,5025,5025,5025,5054,5055,5055,5055,5056,5056,5057,5108,5110,5110,5110,5111,5111,5133,5134,5134,5134,5135,5135,5178,5178,5179,5179,5179,5209,5210,5210,5211,5211,5211,5257,5258,5259,5259,5259,5307,5308,5310,5311,5311,5312,5312,5312,5335,5336,5336,5336,5337,5337,5338,5350,5350,5351,5351,5392,5393,5434,5434,5434,5435,5435,5472,5473,5473,5473,5482,5504,5504,5505,5520,5521,5521,5522,5522,5522,5523,5553,5554,5554,5555,5555,5590,5591,5591,5592,5592,5593,5626,5627,5627,5628,5629,5630,5630,5630,5639,5662,5663,5663,5664,5664,5664,5696,5696,5697,5697,5698,5698,5698,5730,5731,5732,5732,5733,5733,5734,5734,5735,5765,5766,5766,5767,5767,5768,5816,5816,5817,5817,5822,5823,5823,5824,5824,5856,5856,5857,5857,5858,5858,5859,5859,5860,5885,5886,5886,5887,5887,5888,5888,5889,5889,5927,5928,5929,5929,5931,5931,5932,5932,5933,5969,5970,5970,5971,5971,5972,5972,6002,6003,6003,6004,6004,6047,6048,6048,6049,6049,6099,6100,6100,6102,6115,6116,6116,6135,6168,6169,6200,6200,6224,6225,6261,6290,6332,6333,6357,6358,6407,6407,6408,6418,6418,6465,6466,6467,6467,6504,6505,6506,6506,6507,6532,6533,6534,6534,6572,6572,6573,6574,6574,6595,6596,6597,6598,6599,6599,6645,6647,6647,6648,6649,6649,6651,6670,6671,6672,6672,6673,6673,6674,6721,6722,6723,6723,6724,6724,6759,6759,6760,6761,6761,6762,6762,6763,6802,6802,6803,6804,6804,6813,6835,6835,6836,6837,6838,6854,6854,6855,6856,6888,6889,6889,6890,6891,6926,6926,6927,6927,6928,6929,6929,6930,6935,6975,6976,6976,6977,6977,6978,6978,6979,6980,7033,7034,7034,7035,7035,7036,7037,7038,7039,7046,7047,7048,7049,7050,7051,7051,7053,7054,7130,7131,7132,7132,7133,7134,7135,7136,7136,7171,7172,7172,7174,7174,7175,7175,7176,7177,7216,7217,7217,7218,7219,7219,7220,7221,7222,7267,7268,7270,7270,7271,7272,7272,7273,7273,7314,7316,7317,7319,7320,7320,7321,7322,7322,7337,7337,7338,7339,7339,7340,7341,7341,7342" d="m221.50346,256.88889c2.58934,0 3.5,0 4.40001,0c0.9045,0 1.77177,0.07358 2.59999,-0.02084c0.99272,-0.11319 1.63397,-0.64948 2.54283,-0.85767c0.70531,-0.16156 1.509,-0.11923 2.77184,-0.12149c0.66451,-0.00119 1.68785,0.05315 2.47467,-0.01067c1.05214,-0.08533 1.69746,-0.58894 2.54401,-0.82266c0.91501,-0.25262 1.4951,-0.1418 2.66666,-0.33334c0.90263,-0.14758 1.47209,-0.36285 2.31467,-0.54933c1.21942,-0.2699 1.87462,-0.27866 2.88533,-0.284c0.79999,-0.00423 1.8006,0.02219 2.62134,-0.01067c0.69402,-0.02777 1.82227,-0.20607 2.48401,-0.342c1.0455,-0.21475 1.71996,-0.40909 2.924,-0.56201c0.72601,-0.09221 1.77068,-0.08533 2.57066,-0.08533c0.79999,0 1.8045,0 2.65717,0c0.96417,0 1.76816,0 2.59018,0c1.03131,0 1.72733,0 2.63666,0c1,0 1.81601,0 2.63199,0c1,0 1.90933,0 2.85068,0c0.78149,0 1.57199,0 2.69067,0c0.79333,0 1.68533,0 2.64267,0c0.73199,0 1.83871,0.00963 2.66666,0c0.89603,-0.01042 1.60919,-0.06317 2.80267,-0.284c0.69449,-0.12849 1.41339,-0.30489 2.14798,-0.43201c1.05783,-0.18304 2.04636,-0.2579 2.672,-0.27333c1.21036,-0.02985 2.11069,-0.01067 2.71069,-0.01067c0.89999,0 2.09866,0 2.68933,0c0.85349,0 2.12665,0 2.81067,0c1.16666,0 1.95715,0 2.52081,0c0.88049,0 2.07916,0 2.67917,0c0.89999,0 2.09985,0 2.6955,0c0.8685,0 1.93784,0 2.87918,0c0.67801,0 1.647,0 2.47198,0c0.91501,0 1.92001,0 2.63736,0c1.116,0 1.86331,0 2.94931,0c0.68402,0 1.6875,0 2.3765,0c1.1235,0 1.95819,0 2.84085,0c0.89865,0 1.34399,0 2.616,0c0.76266,0 1.79166,0 2.42432,0c1.20886,0 2.09836,0 2.95184,0c1.03601,0 1.74249,0 2.46701,0c1.13284,0 1.7955,0 2.83951,0c0.68265,0 1.87997,0 2.60898,0c1.04169,0 1.85236,0 2.72702,0c1,0 1.83548,0 2.41916,0c1.19565,0 2.10617,0 2.73151,0c1.33066,0 2.048,0 2.78934,0c0.74933,0 1.49066,0 2.88931,0c0.64935,0 1.58084,0 2.48535,0c0.90448,0 1.836,0 2.48532,0c1.03583,0 1.76285,0 2.85333,0c0.69199,0 1.89334,0 2.66135,0c0.76797,0 1.96799,0 2.65067,0c0.69867,0 2.01599,0 2.83948,0c0.72452,0 1.67651,0 2.46252,0c0.82199,0 1.88065,0 2.82199,0c0.67801,0 1.64682,0 2.46133,0c0.8685,0 2.06412,-0.00816 2.664,0.0045c0.90033,0.019 2.10294,0.14812 2.69867,0.2795c0.88531,0.19524 1.70703,0.48448 2.71866,0.63068c0.69919,0.10104 1.45203,0.07722 2.65201,0.08665c0.69202,0.00543 1.42245,-0.02374 2.86398,0.16534c0.6842,0.08975 1.31708,0.27066 2.20502,0.48067c1.03741,0.24538 2.00415,0.34494 2.52866,0.40533c1.29919,0.14958 2.08679,0.29822 2.91217,0.44733c0.80597,0.14561 1.84982,0.36835 2.59668,0.44283c1.08691,0.10838 1.78955,-0.09792 2.75748,0.22385c0.71637,0.23814 1.46442,0.98253 2.20834,1.31248c0.62766,0.27841 1.64346,0.43896 2.47916,0.52084c0.88028,0.08624 1.78741,0.19116 2.68985,0.44666c0.63171,0.17886 1.95633,0.71924 2.67465,1.03601c0.75104,0.33121 1.52081,0.6683 1.91916,0.8075c1.18326,0.41345 1.99609,0.55774 2.81683,0.6485c0.84888,0.09387 1.75058,0.13095 2.71201,0.228c1.03619,0.10461 1.57315,0.18304 2.66669,0.35419c0.54993,0.08606 1.63361,0.27222 2.66666,0.47916c0.96024,0.19235 1.83319,0.38565 2.604,0.60001c0.67426,0.1875 1.83115,0.75717 2.47299,1.04282c0.88364,0.39325 1.72586,0.37 2.67783,0.57867c0.82275,0.18036 1.68369,0.48099 2.57852,0.7785c0.89615,0.29797 1.48462,0.4852 2.31467,0.79999c1.01099,0.38342 1.72452,0.72644 2.53998,1.08536c1.00665,0.44308 1.81244,0.77158 2.24268,0.95065c0.8989,0.37415 1.36435,0.5563 2.73599,1.164c0.88217,0.39084 1.70999,0.78802 2.10419,0.97916c0.74487,0.36118 2.01685,1.00632 2.56616,1.26819c0.81424,0.38815 1.42972,0.65076 2.58167,1.07382c0.92123,0.33832 1.41364,0.50082 2.41333,0.8175c0.48953,0.15509 1.83191,0.54056 2.56134,0.69333c0.87448,0.18314 1.64078,0.28726 2.62799,0.73734c0.89551,0.40826 1.51227,0.82794 2.64532,1.26401c0.82913,0.31909 1.29504,0.42111 2.27084,0.70831c0.52548,0.15466 1.09064,0.28564 2.89584,0.95834c0.66928,0.24942 1.35104,0.54813 2.04898,0.858c0.70743,0.31409 1.40979,0.64099 2.103,0.966c0.67615,0.31702 1.31705,0.6423 3.0405,1.4115c0.47858,0.21359 1.3233,0.56781 2.05417,0.83249c1.24649,0.45142 1.85733,0.63333 2.81586,0.95285c0.70898,0.23633 1.9375,0.64581 2.40149,0.80048c0.99399,0.33136 1.51199,0.504 2.56,0.85333c0.51801,0.17267 1.97614,0.65836 2.41135,0.80383c0.78888,0.2637 1.80508,0.5889 2.89798,1.02151c0.71078,0.28134 1.33493,0.52567 2.28,0.91599c0.81555,0.33682 0.88669,1.28534 0.88669,2.25067c0,0.65866 0.44556,1.83972 -0.08536,2.54666c-0.46283,0.6163 -1.34366,0.65732 -2.13617,1.16519c-0.74655,0.47842 -1.50754,0.41727 -2,1.22131c-0.37958,0.61972 -1.35461,0.88275 -2.27847,1.23352c-0.56125,0.2131 -1.50595,0.67621 -2.142,1.01849c-0.86639,0.46625 -1.72333,0.95129 -2.23669,1.74799c-0.49326,0.76553 -1.22629,0.80579 -2.12131,0.90018c-0.81351,0.08582 -1.40707,0.92224 -1.98584,1.409c-0.79074,0.66504 -1.63058,0.99683 -2.07751,1.18201c-0.92947,0.38513 -1.87097,0.70209 -2.31665,0.83832c-1.3891,0.42459 -2.24448,0.561 -3.16299,0.79202c-0.73413,0.18463 -1.55902,0.46335 -2.457,0.612c-0.88568,0.14661 -1.728,0.16132 -2.85703,0.16666c-0.72165,0.00342 -1.64297,0 -2.543,0c-0.89999,0 -1.8811,-0.13733 -2.54733,0.35266c-0.6842,0.50323 -1.45267,0.64734 -2.35715,0.64734c-0.86218,0 -1.73718,-0.00043 -2.38217,0c-0.99866,0.00067 -1.83807,-0.01959 -2.71466,0.08533c-1.20795,0.14459 -1.81046,0.34683 -2.43466,0.52533c-1.33304,0.38116 -2.04498,0.59464 -2.77869,0.77869c-0.72238,0.18121 -2.04965,0.46234 -2.61465,0.52533c-0.94641,0.1055 -1.97211,0.05872 -2.81235,0.10617c-0.73068,0.04126 -1.60391,0.1886 -2.63031,0.41516c-0.75134,0.16586 -1.53018,0.36725 -2.72784,0.66382c-0.79538,0.19696 -1.57635,0.39392 -2.34302,0.543c-1.08664,0.2113 -1.77588,0.26163 -2.77798,0.37802c-0.69009,0.08014 -1.81635,0.29926 -2.64584,0.54715c-0.43631,0.1304 -1.30945,0.44104 -2.17084,0.72668c-1.15851,0.38419 -2.09186,0.62881 -2.86649,0.68399c-0.96048,0.06839 -1.75412,0.00604 -2.60666,0.05734c-0.59164,0.03561 -1.79517,0.25201 -2.44269,0.38931c-0.72571,0.15387 -1.57016,0.32541 -3.15381,0.45319c-0.61591,0.04968 -1.26959,0.06757 -1.95151,0.08548c-0.70374,0.01849 -1.42264,0.02933 -2.87735,0.03467c-1.43066,0.00525 -2.12067,0.00134 -2.79065,0.00134c-0.64999,0 -1.89001,0 -2.48001,0c-0.57001,0 -2.16,0 -3.12665,0c-0.46585,0 -1.38751,0 -2.32919,0c-0.49081,0 -2.10132,0 -2.68814,0c-0.60284,0 -1.82852,0 -2.43735,0c-0.59683,0 -2.24533,0 -3.17465,0c-0.82535,0 -1.60269,0 -2.388,0c-0.84933,0 -1.80267,0 -2.836,0c-0.53418,0 -1.61252,0 -2.14667,0c-1.52417,0 -2,0 -2.92667,0c-0.92667,0 -1.89334,0 -2.94,0c-0.56467,0 -1.776,0 -2.41867,0c-0.66467,0 -1.34933,0 -2.052,0c-0.71866,0 -2.94983,0 -3.70667,0c-0.75284,0 -1.49466,0 -2.21851,0c-0.69882,0 -1.36566,0 -3.10416,0c-0.47086,0 -1.57333,0 -2.31586,0c-1.1015,0 -1.90948,0 -2.89133,0c-0.86966,0 -1.3515,0 -2.37418,0c-0.52682,0 -2.08533,0 -3.04532,0c-0.45001,0 -1.29001,0 -2.39999,0c-0.93134,0 -1.76535,0 -2.70734,0c-1.26599,0 -1.79416,0 -2.37134,0c-1.25732,0 -1.9155,0 -2.57867,0c-0.65717,0 -2.48267,0 -3.00882,0c-0.93033,0 -1.74466,0 -2.49899,0c-1.14151,0 -1.98419,0 -2.92285,0c-0.51031,0 -1.62299,0 -2.22934,0c-1.32266,0 -2.04132,0 -2.79199,0c-0.77466,0 -1.56534,0 -2.36398,0c-0.79868,0 -1.58936,0 -2.36401,0c-1.46933,0 -2.79599,0 -3.41183,0c-0.59082,0 -1.7175,0 -2.26334,0c-1.6275,0 -2.18283,0 -3.33148,0c-0.59735,0 -1.21268,0 -1.84802,0c-1.33865,0 -2.78131,0 -3.54498,0c-0.78568,0 -1.58533,0 -2.39102,0c-0.80365,0 -1.59732,0 -2.37299,0c-0.74966,0 -2.13901,0 -2.7655,0c-1.13901,0 -1.66949,0 -2.69751,0c-1.04398,0 -2.17599,-0.00049 -2.79633,0.00015c-0.66232,0.00067 -1.36868,0.00266 -2.121,0.01053c-0.80035,0.00836 -1.65073,0.02261 -2.55298,0.04648c-0.95645,0.0253 -3.03912,0.10678 -4.16684,0.16418c-1.17499,0.05981 -2.3837,0.13055 -3.61349,0.20398c-1.23792,0.07391 -2.47061,0.15045 -3.68552,0.22202c-1.18378,0.06973 -3.40634,0.18924 -4.42215,0.23117c-0.94955,0.03918 -1.83728,0.0668 -2.66702,0.08548c-0.7756,0.01746 -1.50131,0.02676 -2.181,0.03152c-0.63766,0.00449 -1.80298,0.00449 -2.33884,0.00449c-0.51083,0 -1.00165,0 -1.47748,0c-0.46585,0 -0.92667,0 -1.38751,0c-0.46582,0 -1.4325,0 -1.94183,0c-0.52533,0 -1.06265,0 -2.15732,0c-0.54935,0 -1.63202,-0.00143 -2.66669,0c-0.96399,0.00134 -1.87317,0.004 -2.74799,0.07199c-0.43425,0.03375 -1.75638,0.24484 -2.668,0.496c-0.4679,0.12891 -1.39229,0.44537 -2.30751,0.72668c-1.2709,0.39063 -2.03772,0.55725 -2.74849,0.63333c-0.67406,0.07214 -2.02802,0.06805 -2.74268,0.07333c-0.72272,0.00534 -1.44073,-0.08603 -2.61867,0.16531c-0.82474,0.17596 -1.65799,0.73035 -2.5,0.8125c-0.97409,0.09503 -1.79866,0.02084 -2.7,0.02084c-0.936,0 -1.78943,-0.04837 -2.51067,0.03601c-0.99973,0.11697 -1.76758,0.53827 -2.78934,0.79733c-0.78748,0.19965 -1.60893,0.21906 -2.60899,0.51932c-0.66966,0.20105 -1.72197,0.50201 -2.36166,0.56201c-1.06825,0.10022 -1.83833,0.08307 -3.02934,0.08533c-0.79866,0.0015 -1.58932,0 -2.364,0c-0.75067,0 -1.81506,-0.01343 -2.82133,0.01068c-0.67627,0.0162 -1.38651,0.0546 -2.55766,0.21066c-0.87346,0.11639 -1.79825,0.2814 -2.27834,0.35333c-0.98051,0.14691 -1.97748,0.27499 -2.98134,0.34c-1.01773,0.06589 -1.53893,0.06964 -2.61166,0.08084c-0.55632,0.0058 -1.71899,0.00449 -2.955,0.00449c-0.64049,0 -1.29199,0 -1.95149,0c-0.66451,0 -1.99651,0 -3.3125,0c-0.64484,0 -1.27867,0 -2.50934,0c-0.59483,0 -1.73849,0 -2.28532,0c-1.52985,0 -2.00801,0 -2.95334,0c-0.97734,0 -1.4955,0 -2.04266,0c-1.88284,0 -2.59734,0 -3.34384,0c-0.7695,0 -1.55299,0 -2.34149,0c-0.7845,0 -1.556,0 -3.024,0c-0.6805,0 -1.9335,0 -2.51201,0c-1.07599,0 -1.5795,0 -2.98799,0c-0.88133,0 -1.73067,0 -2.556,0c-0.40617,0 -1.61067,0 -2.80617,0c-0.78366,0 -1.54733,0 -2.63783,0c-0.69067,0 -1.40533,0 -2.20801,0c-0.95467,0 -2.12532,0 -2.80899,0c-0.74567,0 -1.54533,0 -2.39101,0c-0.88367,0 -1.79733,0 -2.733,0c-0.94966,0 -2.85899,0 -3.80499,0c-0.942,0 -1.886,0 -2.838,0c-0.966,0 -1.95201,0 -2.964,0c-1.04401,0 -3.252,0.00049 -4.42551,-0.00015c-1.21449,-0.00067 -2.46101,-0.00241 -3.7305,-0.01053c-1.28351,-0.00821 -2.57205,-0.02167 -3.85649,-0.04648c-1.27158,-0.02457 -3.73975,-0.10431 -4.91884,-0.16418c-1.13559,-0.05765 -2.2229,-0.1282 -3.258,-0.20398c-0.97956,-0.07172 -1.89875,-0.14841 -2.75401,-0.22202c-0.78741,-0.06778 -2.14182,-0.1882 -2.70483,-0.23117c-0.49969,-0.03812 -0.95354,-0.06711 -1.37849,-0.08548c-0.41273,-0.01785 -0.83065,-0.02698 -1.2705,-0.03152c-0.47882,-0.00494 -1.62151,-0.00449 -2.31367,-0.00449c-0.76517,0 -1.58633,0 -2.4465,0c-0.88216,0 -1.76933,0 -2.6445,0c-0.84617,0 -2.3835,0 -3.04566,0c-0.59517,0 -1.13634,0 -1.63651,0c-0.47217,0 -0.92933,0 -1.3845,0c-0.46616,0 -1.4835,0 -2.058,0c-0.6215,0 -1.287,0 -1.9935,0c-0.7445,0 -1.524,0 -2.3355,0c-0.8405,0 -2.5965,0 -3.50517,0c-0.92067,0 -1.84534,0 -2.766,0c-0.90867,0 -1.79733,0 -2.658,0c-0.82466,0 -2.334,0.00058 -3.00466,-0.00015c-0.61467,-0.00067 -1.17738,-0.00186 -1.692,-0.01053c-0.47071,-0.0079 -0.90134,-0.02533 -1.296,-0.04648l-0.36267,-0.02817" id="svg_1" stroke-width="2" stroke="#000" fill="none"/>
  <path t="9281,9310,9327,9327,9339,9352,9368,9368,9384,9384,9401,9401,9401,9401,9417,9417,9417,9433,9433,9433,9433,9445,9445,9446,9446,9467,9467,9467,9467,9484,9484,9484,9484,9500,9500,9500,9500,9527,9527,9527,9527,9527,9539,9539,9539,9539,9539,9539,9539,9539,9539,9554,9555,9555,9555,9555,9555,9577,9578,9578,9578,9578,9601,9601,9602,9602,9602,9602,9602,9625,9625,9625,9625,9625,9625,9647,9648,9648,9648,9648,9671,9671,9671,9671,9671,9715,9715,9715,9715,9715,9715,9716,9744,9744,9744,9744,9744,9744,9744,9750,9750,9750,9771,9772,9772,9799,9799,9799,9799,9800,9800,9823,9823,9823,9823,9823,9824,9842,9842,9843,9843,9843,9843,9865,9865,9865,9865,9886,9886,9886,9886,9886,9908,9908,9909,9909,9929,9929,9929,9929,9951,9951,9951,9971,9971,9971,9990,10008,10008,10030,10062,10079,10079,10111,10111,10150,10174,10222,10239,10278,10296,10334,10334,10358,10379,10379,10422,10454,10471,10490,10510,10511,10534,10557,10576,10594,10595,10614,10632,10632,10649,10650,10669,10700,10701,10723,10723,10723,10741,10741,10752,10753,10776,10793,10794,10794,10814,10814,10815,10815,10823,10823,10823,10839,10839,10839,10857,10862,10862,10862,10881,10882,10882,10899,10900,10900,10900,10920,10920,10938,10939,10939,10958,10958,10958,10976,10977,11008,11008,11008,11026,11027,11027,11027,11027,11027,11057,11058,11058,11058,11058,11078,11079,11079,11079,11079,11080,11106,11106,11106,11106,11107,11107,11107,11118,11118,11118,11118,11118,11119,11119,11119,11133,11133,11133,11134,11134,11134,11134,11134,11152,11153,11153,11153,11153,11153,11154,11174,11174,11174,11175,11175,11175,11175,11176,11176,11200,11201,11201,11201,11201,11201,11202,11202,11202,11221,11221,11222,11222,11222,11222,11223,11223,11223,11241,11242,11242,11242,11242,11243,11243,11271,11271,11271,11272,11272,11272,11272,11273,11273,11301,11301,11302,11302,11302,11302,11303,11303,11303,11323,11324,11325,11325,11326,11326,11326,11326,11327,11345,11346,11346,11347,11363,11364,11364,11398,11398,11399,11399,11399,11400,11432,11433,11433,11434,11434,11454,11454,11454,11455,11455,11456,11474,11475,11475,11475,11503,11504,11504,11504,11523,11523,11523,11533,11534,11534,11534,11568,11568,11590,11590,11590,11593,11605,11605,11606,11606,11606,11620,11621,11621,11640,11640,11641,11661,11661,11662,11683,11683,11719,11720,11720,11739,11740,11740,11755,11756,11778,11779,11779,11807,11807,11822,11822,11823,11823,11823,11824,11836,11836,11837,11871,11872,11891,11892,11892,11893" d="m473.50348,299.88889c-2.05069,1.60001 -2.68179,2.35324 -3.35184,2.64282c-0.96848,0.41855 -1.46326,0.88419 -2.00983,1.65717c-0.41858,0.59198 -1.30032,1.01245 -1.92102,1.336c-1.04376,0.5441 -1.6889,0.84006 -2.35733,1.20001c-0.67844,0.36533 -1.89127,1.13171 -2.30533,1.564c-0.71683,0.74835 -1.1969,1.62103 -1.71634,2.20001c-0.5596,0.62375 -1.00357,1.02753 -2.02499,1.79999c-0.54889,0.4151 -1.15347,0.81064 -1.79999,1.20001c-1.02448,0.617 -1.76389,0.9957 -2.49252,1.39999c-0.71335,0.39581 -1.70981,0.9707 -2.51099,1.60449c-0.50369,0.39847 -1.19318,1.08017 -1.93118,1.81683c-0.5318,0.53085 -1.07864,1.07867 -1.62598,1.62601c-0.78601,0.78601 -1.5242,1.52612 -2.09851,2.03601c-0.32739,0.29068 -1.12897,0.95056 -2.1875,1.75c-0.6333,0.4783 -1.33643,0.9866 -2.0835,1.52548c-0.77423,0.55847 -1.56229,1.12042 -2.34451,1.6785c-0.7601,0.54227 -1.48483,1.05252 -2.73865,1.96268c-0.50861,0.3692 -0.93555,0.69177 -1.3035,0.96149c-0.84045,0.61609 -1.31516,0.9375 -2.53784,1.52652c-0.38409,0.18503 -1.24777,0.56287 -2.17667,1.03082c-0.49045,0.24707 -1.49399,0.79608 -2.48068,1.45184c-0.50311,0.33438 -1.00015,0.68912 -1.96533,1.45065c-0.48367,0.38162 -0.96204,0.76849 -2.31448,1.97833c-0.43994,0.39352 -0.86096,0.79507 -1.70068,1.55869c-0.40851,0.37149 -1.20105,1.09488 -2.02081,1.70831c-0.78308,0.586 -1.59695,1.06671 -2,1.29169c-0.79416,0.4433 -1.99921,1.04324 -2.80133,1.44165c-0.80856,0.40161 -1.21625,0.6069 -2.05585,1c-1.30453,0.61078 -1.76324,0.80353 -2.70901,1.2045c-0.49042,0.20792 -1.51648,0.6315 -2.05264,0.85266c-0.55316,0.22818 -2.32324,0.96371 -2.94385,1.22418c-0.62473,0.26221 -1.24481,0.52393 -1.854,0.77701c-1.14835,0.47705 -1.66336,0.71564 -2.95465,1.17749c-0.82764,0.29602 -1.5975,0.51859 -2.40201,0.93216c-0.81644,0.41971 -1.42816,0.79971 -2.56,1.09866c-0.8262,0.21823 -1.74902,0.27573 -2.22916,0.3125c-1.00311,0.07681 -1.52747,0.08215 -3.15884,0.24219c-0.56345,0.05527 -1.70401,0.20398 -2.27866,0.27866c-0.57468,0.07468 -1.71445,0.23175 -2.83334,0.33334c-1.07739,0.09784 -1.60059,0.1123 -2.60416,0.16666c-0.94376,0.05112 -1.39853,0.02762 -2.99451,0.284c-0.72189,0.11597 -1.41495,0.31116 -2.13602,0.43201c-1.16974,0.19604 -2.04172,0.23282 -2.95282,0.284c-0.46448,0.02609 -1.40045,0.04938 -2.75751,0.22134c-0.86304,0.10938 -1.67868,0.28586 -2.45999,0.42599c-1.09323,0.19608 -1.77524,0.28674 -2.74084,0.33182c-0.61588,0.02875 -1.82065,0.02084 -2.71014,0.02084c-0.57468,0 -1.64401,0 -2.56403,0c-0.75998,0 -1.87198,0 -2.73065,0c-0.86334,0 -1.75885,0 -2.716,0c-0.90018,0 -1.68533,0 -2.62534,0c-0.69067,0 -1.76401,0 -2.67465,0c-0.90002,0 -1.80002,0 -2.70001,0c-0.89999,0 -1.79999,0 -2.60001,0c-0.836,0 -1.85266,0 -2.54733,0c-1.01666,0 -1.95267,0 -2.85266,0c-0.89999,0 -1.79999,0 -2.60001,0c-0.89999,0 -1.79999,0 -2.72083,0c-0.80051,0 -1.65384,0 -2.59515,0c-1.05069,0 -1.70935,0 -2.71735,0c-0.86218,0 -1.6875,0 -2.65332,0c-0.76001,0 -1.68002,0 -2.72803,0c-0.77548,0 -1.65671,0.1113 -2.53348,-0.05716c-0.93445,-0.17957 -1.56824,-0.7113 -2.50366,-0.88568c-1.0647,-0.19846 -1.76416,-0.03287 -2.56952,-0.09317c-1.18256,-0.08853 -1.78369,-0.2309 -2.67865,-0.48483c-0.60367,-0.1713 -1.8013,-0.57486 -2.68933,-0.87915c-0.57562,-0.19724 -1.64688,-0.59329 -2.358,-0.89999c-0.68082,-0.29361 -1.61978,-0.69891 -2.40985,-1.00452c-0.85394,-0.33029 -1.46075,-0.54868 -2.64282,-1.1795c-0.60901,-0.32501 -1.17966,-0.72919 -2.39999,-1.34933c-0.58813,-0.29886 -1.44858,-0.65668 -2.22934,-0.88c-0.95499,-0.27316 -1.74405,-0.35037 -2.54135,-0.57199c-0.77673,-0.21588 -1.63153,-0.51736 -2.52899,-0.81448c-0.87854,-0.29086 -1.67587,-0.58533 -2.73233,-0.81619c-0.76721,-0.16766 -1.74133,-0.37408 -2.57217,-0.60483c-0.67526,-0.18753 -1.89493,-0.4834 -2.35999,-0.57898c-0.99652,-0.2048 -1.52112,-0.29819 -2.59583,-0.46417c-0.53854,-0.08316 -2.10599,-0.2778 -3.07068,-0.35202c-0.4592,-0.03534 -1.34927,-0.07281 -2.2175,-0.13666c-1.31985,-0.09705 -1.77505,-0.15845 -2.7135,-0.3045c-0.98175,-0.1528 -1.48508,-0.25317 -2.52499,-0.44415c-1.08008,-0.19836 -2.20117,-0.39975 -2.77951,-0.49866c-0.59097,-0.10107 -1.81628,-0.3013 -2.45267,-0.40002c-0.65295,-0.10129 -2.01447,-0.30011 -2.72382,-0.40033c-0.72531,-0.10248 -1.46323,-0.20505 -2.20801,-0.32098c-0.74991,-0.11673 -2.24719,-0.37878 -2.98135,-0.54935c-1.44141,-0.33487 -2.12738,-0.56482 -2.79733,-0.79599c-0.65874,-0.22729 -1.29787,-0.47543 -1.92899,-0.71249c-1.23112,-0.46243 -1.82515,-0.71863 -3.04167,-1.02084c-1.19122,-0.29593 -1.80821,-0.3403 -2.42133,-0.40268c-0.61963,-0.06305 -1.89311,-0.13928 -2.54933,-0.17865c-1.36288,-0.08176 -2.07288,-0.13629 -2.80135,-0.20535c-0.74724,-0.07083 -1.51115,-0.15604 -2.2905,-0.25497c-0.79535,-0.10098 -1.60458,-0.21411 -2.42549,-0.345c-1.68063,-0.26797 -2.5336,-0.43314 -3.39601,-0.59601c-0.86893,-0.16412 -1.74089,-0.33441 -2.616,-0.49649c-0.87422,-0.16193 -1.74571,-0.32135 -2.616,-0.45151c-1.7144,-0.25641 -2.56152,-0.33209 -3.39467,-0.40134c-0.81824,-0.06799 -1.62138,-0.11667 -2.40599,-0.168c-0.76472,-0.05002 -1.50851,-0.09305 -2.22601,-0.168c-1.35997,-0.14206 -1.99519,-0.26614 -2.60533,-0.40134c-0.59593,-0.13205 -1.75204,-0.45135 -2.328,-0.616c-0.58203,-0.16635 -2.42252,-0.655 -3.08865,-0.79318c-0.69121,-0.1434 -1.41061,-0.26889 -2.15401,-0.3855c-0.76395,-0.11984 -1.54901,-0.22778 -2.35201,-0.33148c-0.81834,-0.10568 -2.496,-0.30441 -3.35049,-0.40466c-0.86151,-0.10107 -1.72726,-0.20224 -2.59351,-0.31052c-0.86475,-0.10809 -1.72461,-0.22107 -2.5755,-0.3465c-0.84113,-0.12399 -2.4776,-0.4039 -3.26616,-0.564c-0.7688,-0.15607 -1.51186,-0.3248 -2.229,-0.4935c-0.69017,-0.16235 -1.349,-0.32541 -1.97699,-0.47549c-0.59335,-0.14182 -2.14941,-0.4812 -3.0045,-0.60001c-0.72743,-0.10107 -1.65508,-0.13763 -2.65317,-0.39517c-0.75426,-0.19461 -1.29681,-0.44647 -2.34666,-0.71466c-0.86653,-0.22137 -1.85519,-0.39413 -2.375,-0.47916c-1.06046,-0.17346 -1.59073,-0.25812 -3.11568,-0.39969c-0.93614,-0.08691 -1.39337,-0.09158 -2.29333,-0.1825c-0.91899,-0.09283 -1.88666,-0.25516 -2.916,-0.508c-0.53639,-0.13174 -1.61349,-0.44827 -2.14667,-0.616c-1.03532,-0.32571 -1.98666,-0.64798 -2.83066,-0.92932c-0.748,-0.24933 -1.74251,-0.58084 -2.65601,-0.88535c-0.89999,-0.29999 -1.49997,-0.50006 -2.39999,-0.79999c-0.89998,-0.2999 -1.79485,-0.60818 -2.40001,-0.76401c-1.19099,-0.30667 -2.09489,-0.39017 -2.67915,-0.41516c-0.83498,-0.03571 -2.07033,0.00562 -2.74617,-0.05685c-0.94632,-0.08749 -1.73705,-0.33292 -2.65733,-0.53867c-0.68672,-0.15353 -1.85904,-0.31845 -2.72267,-0.36816c-0.89392,-0.05145 -1.34396,-0.05066 -2.22667,-0.05582c-1.22481,-0.00714 -2.28532,-0.00134 -2.91066,-0.00134c-1.09067,0 -2.032,0 -2.71001,0c-0.96866,0 -1.77266,0 -2.59467,0c-1.03116,0 -1.93182,0 -2.95267,0c-0.81067,0 -1.68533,0 -2.68399,0c-0.81601,0 -1.632,0 -2.63068,0c-0.87466,0 -1.68533,0 -2.48534,0c-0.79999,0 -1.81799,0 -2.54399,0c-1.32267,0 -2.19209,0.00201 -2.66667,-0.009c-0.98961,-0.02295 -1.49507,-0.00891 -2.45333,-0.16165c-1.26314,-0.20135 -2.18471,-0.6749 -2.86083,-1.12402c-0.79785,-0.52997 -1.54217,-0.75348 -2.44,-0.92682l-0.9645,-0.21451l-0.77467,-0.17465l-0.42384,-0.09384" id="svg_2" stroke-width="2" stroke="#000" fill="none"/>
  <path t="13494,13645,13689,13689,13702,13702,13712,13713,13713,13713,13733,13734,13750,13766,13783,13886,13899,13899,13917,13935,13935,13951,13951,13951,13967,13967,13967,13967,13984,13984,13984,13984,13984,14000,14000,14000,14000,14000,14000,14017,14017,14017,14017,14017,14017,14033,14033,14033,14033,14051,14051,14051,14190,14190,14222,14242,14242,14263,14284,14284,14296,14296,14296,14296,14296,14314,14314,14314,14350,14350,14367,14367,14367,14379,14379,14379,14379,14397,14397,14397,14397,14417,14417,14417,14475,14475,14476,14476,14476,14476,14521,14521,14521,14521,14521,14521,14521,14521,14521,14567,14567,14567,14567,14567,14567,14567,14567,14568,14589,14589,14590,14590,14590,14590,14590,14590,14590,14638,14639,14639,14639,14639,14639,14639,14639,14639,14689,14689,14689,14689,14689,14690,14690,14690,14690,14738,14738,14738,14738,14739,14739,14739,14739,14766,14767,14767,14767,14767,14767,14836,14836,14836,14836,14883,14883,14883,15038,15039,15073,15098,15098,15147,15147,15147,15148,15148,15200,15200,15200,15200,15200,15241,15241,15242,15242,15242,15242,15242,15242,15242,15273,15273,15273,15273,15273,15274,15274,15274,15320,15320,15320,15337,15337,15337,15337,15337,15519,15519,15519,15551,15574,15590,15822,15823,15871,15901,15923,15943,15943,15944,15976,15977,15977,15977,16018,16019,16019,16019,16019,16073,16073,16074,16122,16123,16123,16123,16123,16123,16124,16161,16161,16162,16162,16192,16192,16193,16209,16209,16210,16242,16243,16243,16243,16276,16276,16276,16276,16277,16277,16311,16312,16312,16312,16312,16312,16364,16364,16364,16364,16365,16366,16366,16367,16412,16414,16414,16414,16414,16415,16415,16436,16437,16437,16437,16437,16438,16438,16438,16487,16488,16488,16488,16489,16523,16524,16524,16524,16525,16525,16553,16554,16554,16554,16623,16623,16623,16623,16624,16624,16624,16656,16657,16657,16657,16658,16767,16767,16768,16802,16802,16825,16842,16875,16876,16931,16931,16931,16932,16932,16951,16951,16952,16952,16953,17003,17004,17043,17044,17044,17044,17045,17088,17088,17088,17130,17130,17130" d="m81.50346,314.88889c0,-1.75717 0,-2.65268 0,-3.51599c0,-0.89069 0,-1.62402 0,-2.82001c0,-0.76535 0,-1.56268 0,-2.328c0,-1.19467 0,-2.01801 0,-2.836c0,-0.89999 -0.35314,-1.86816 0.009,-2.7955c0.30376,-0.77786 1.36864,-0.50021 2.23383,-0.7135c0.93284,-0.22998 1.14162,-1.15799 1.92384,-1.65765c0.79956,-0.51074 1.60796,-0.40039 2.4765,-0.55469c1.04299,-0.18527 1.81177,-0.36819 2.64483,-0.49466c0.87643,-0.13303 1.79688,-0.20844 2.748,-0.24799c0.48465,-0.02014 1.46849,-0.03375 2.964,-0.03601c0.50017,-0.00076 1.5045,0 2.01067,0c1.02534,0 1.5465,0 3.15601,0c0.55416,0 1.6725,0 2.22666,0c1.07333,0 1.5825,0 2.94,0c1.047,0 1.625,0 2.432,0c1.20133,0 1.87466,0.00006 2.87217,0c1.09783,-0.00009 2.10622,0.07565 2.35183,-0.64667c0.26959,-0.79282 -0.1437,-1.71408 0.02133,-2.71735c0.14365,-0.87329 0.73341,-1.55002 0.98933,-2.30264c0.35072,-1.03137 0.40018,-1.44312 0.564,-2.26801c0.16138,-0.81262 0.37191,-2.20926 0.41517,-3.02368c0.03836,-0.72223 0.02083,-1.72433 0.02083,-2.52081c0,-1.1875 0,-1.89151 0,-2.65952c0,-1.19998 0,-1.98401 0,-2.832c0,-0.43298 0,-1.69598 0,-2.815c0,-0.67267 0,-1.30533 0,-2.5145c0,-0.91049 0.00121,-1.53583 0,-2.86649c-0.00066,-0.72668 -0.0045,-1.53354 -0.036,-2.46002c-0.01771,-0.52094 -0.04165,-1.08719 -0.13067,-2.37332c-0.05048,-0.72931 -0.11707,-1.51215 -0.1905,-2.34299c-0.07716,-0.87317 -0.16284,-1.7821 -0.2535,-2.72101c-0.09299,-0.9631 -0.19006,-1.94406 -0.38934,-3.936c-0.10002,-0.99986 -0.19953,-1.99901 -0.309,-2.9955c-0.10921,-0.99419 -0.22636,-1.98453 -0.363,-2.96851c-0.13605,-0.97972 -0.26885,-1.95654 -0.66133,-3.86932c-0.19444,-0.94765 -0.42863,-1.87723 -0.6675,-2.7915c-0.23455,-0.89772 -0.47943,-1.77069 -0.7125,-2.6205c-0.22523,-0.82121 -0.46185,-1.60547 -0.78667,-3.088c-0.14861,-0.67825 -0.2532,-1.32681 -0.3285,-1.94701c-0.07236,-0.59599 -0.11492,-1.1777 -0.1395,-1.74899c-0.02438,-0.56677 -0.02985,-1.136 -0.03201,-2.304c-0.00113,-0.60966 0.00011,-1.23735 -0.00449,-1.88101c-0.00471,-0.65767 -0.01346,-1.32741 -0.0315,-2.00699c-0.01826,-0.68774 -0.03532,-1.38222 -0.13067,-2.77867c-0.04781,-0.70018 -0.11487,-1.39774 -0.1905,-2.091c-0.07507,-0.6881 -0.25101,-2.03737 -0.34734,-2.69466c-0.09439,-0.64404 -0.2928,-1.88148 -0.49416,-3.041c-0.09555,-0.55023 -0.28273,-1.58963 -0.36533,-2.08c-0.15485,-0.9193 -0.32209,-2.14989 -0.41067,-3.23201c-0.05531,-0.67563 -0.07367,-1.34956 -0.30933,-2.74266c-0.12283,-0.72604 -0.32692,-1.41408 -0.54933,-2.61867c-0.14353,-0.77736 0.27032,-1.4463 1.15133,-1.5045c0.6116,-0.04041 1.6677,-0.21759 2.40617,-0.34816c0.83818,-0.14821 1.73571,-0.30147 2.19584,-0.36334c1.35728,-0.18254 2.25853,-0.23575 3.22583,-0.26317c0.53139,-0.01506 1.107,-0.01857 3.1875,-0.02083c0.83733,-0.0009 1.73867,0 2.688,0c0.98133,0 1.97866,0 2.976,0c0.98133,0 1.93067,0 3.66933,0c0.761,0 1.448,0 2.067,0c0.55699,0 1.058,0 1.509,0c0.407,0 1.715,0 2.528,0c0.849,0 1.896,0 2.76399,0c0.95601,0 1.4445,0 2.39751,0c1.2345,0 2.082,0 2.86116,0c0.90666,0 1.80667,0 2.72751,0c0.96317,0 1.65382,-0.00011 2.722,0c0.85699,0.00009 1.54936,0.37473 2.0905,1c0.59192,0.68393 1.3091,1.02429 1.86682,1.76433c0.4368,0.57959 0.80846,1.28496 1.257,1.992c0.69087,1.08904 1.21774,1.76353 1.75751,2.397c0.51665,0.60632 1.04715,1.13586 1.81999,2.16533c0.35046,0.46683 0.86478,1.26489 1.632,2.18134c0.31062,0.37105 1.04492,1.16165 1.43466,1.58667c0.79924,0.87158 1.19934,1.30296 1.56267,1.74666c0.98146,1.19856 1.42343,1.94157 1.7735,2.60417c0.45782,0.86658 0.85399,1.6646 1.3985,2.32649c0.53983,0.65619 1.37076,1.42961 1.964,2.04668c0.40465,0.4209 1.20792,1.34998 1.60133,1.87599c0.63239,0.84554 1.04999,1.47916 1.76534,2.48001c0.51581,0.72168 0.78954,1.09468 1.375,1.85416c0.30219,0.39201 0.92947,1.19409 1.98,2.37933c0.35976,0.40588 0.73579,0.80838 1.52,1.62067c0.40285,0.41727 1.24451,1.265 2.125,2.14584c0.45457,0.45476 0.91623,0.91849 1.3905,1.3815c0.95877,0.93604 1.45006,1.39427 1.94733,1.842c0.49345,0.44429 1.99242,1.67154 2.49684,2.04184c0.49997,0.36703 1.0085,0.71855 2.03465,1.41866c0.52075,0.35529 1.05702,0.70659 2.13068,1.48267c0.55838,0.40363 1.67816,1.26604 2.23734,1.70667c0.55548,0.43773 1.09851,0.87352 1.629,1.2975c0.51219,0.40936 1.89616,1.50751 2.709,2.0955c0.37886,0.27406 1.12654,0.78333 1.91,1.24834c0.84021,0.49869 1.79678,1.00235 2.297,1.26683c1.00824,0.53308 1.50879,0.77975 2.42833,1.2825c1.12323,0.61412 1.68271,0.94942 2.34933,1.528c0.51216,0.44452 1.48032,1.44833 1.896,1.86401c0.44966,0.44965 0.92534,0.92532 1.41901,1.41898c1.00935,1.00934 1.50891,1.50909 2.45833,2.45834c0.43529,0.43521 1.22205,1.22153 1.58133,1.57068c0.64719,0.62897 1.73531,1.61932 2.23201,1.95731c0.81445,0.5542 1.65865,0.90982 2.48534,0.97067c0.8989,0.06616 1.83754,0.01926 2.68933,0c0.79521,-0.01797 1.84712,-0.15607 2.48399,-0.284c1.0938,-0.2197 1.48483,-0.32751 2.31601,-0.51599c1.33203,-0.30203 2.25087,-0.49561 2.70532,-0.58801c0.87277,-0.17743 1.66286,-0.35007 3.09601,-0.55798c0.61057,-0.08856 1.57784,-0.21655 2.62582,-0.40533c0.80606,-0.1452 1.21751,-0.23404 2.03418,-0.36334c1.3929,-0.22055 2.209,-0.284 2.93199,-0.36801l1.00133,-0.19998l0.79651,-0.216l0.7515,-0.216" id="svg_3" stroke-width="2" stroke="#000" fill="none"/>
  <path t="21585,21623,21639,21639,21654,21654,21669,21669,21669,21683,21683,21683,21683,21683,21683,21683,21701,21701,21701,21701,21701,21712,21712,21712,21712,21712,21712,21735,21736,21736,21736,21736,21736,21736,21751,21751,21751,21751,21751,21751,21775,21775,21775,21775,21775,21775,21775,21790,21790,21790,21791,21791,21791,21799,21799,21799,21799,21799,21828,21828" d="m233.50346,262.88889c1.75717,-1.05267 2.64131,-1.38101 3.34734,-1.64734c0.89162,-0.33633 1.63217,-0.40097 2.6805,-0.71884c0.58266,-0.17667 1.26013,-0.4353 2.47217,-0.96716c0.95944,-0.42102 1.46216,-0.67273 1.98666,-0.91733c1.07262,-0.50018 1.60913,-0.75174 2.14667,-0.98132c1.5148,-0.64697 2.45911,-0.961 2.916,-1.09601c0.89719,-0.26511 1.81703,-0.47729 2.78401,-0.672c1.03564,-0.20853 1.58052,-0.30267 2.70833,-0.5c0.57942,-0.10138 1.16722,-0.20067 2.95834,-0.5c0.59979,-0.10023 1.19882,-0.19908 2.38931,-0.39999c0.58994,-0.09955 1.17517,-0.19724 2.32535,-0.40001c1.11914,-0.1973 1.66354,-0.30321 2.73715,-0.4955c0.5332,-0.0955 1.60828,-0.27747 2.15802,-0.34734c1.72012,-0.21863 2.3324,-0.23987 2.95682,-0.27184c0.63397,-0.03246 1.91248,-0.06645 2.54666,-0.07466c0.62415,-0.00809 2.38669,-0.01067 2.92233,-0.01067c0.99734,0 1.92267,0 2.36835,0c0.87732,0 2.21701,0 3.13965,0c0.46036,0 1.35901,0 2.20169,0l1.39734,0l0.77399,0" id="svg_4" stroke-width="2" stroke="#000" fill="none"/>
  <path t="23272,23303,23319,23336,23336,23351,23351,23351,23369,23369,23369,23369,23369,23369,23369,23385,23386,23386,23386,23386,23386,23386,23386,23386,23393,23394,23394,23394,23394,23394,23394,23394,23394,23419,23419,23419,23419,23419,23419,23419,23419,23419,23434,23435,23435,23435,23435,23435,23435,23435,23435,23450,23451,23451,23451,23451,23451,23451,23451,23451,23467,23468,23468,23468,23468,23468,23468,23469,23469,23478,23478,23478,23478,23478,23478,23478,23478,23479,23492,23492,23492,23492,23492,23492,23492,23492,23514,23515,23515,23515,23515,23515,23515,23541,23542,23542,23542,23542,23542,23542,23557,23557,23558,23558,23558,23558,23579,23579,23579,23579,23600,23600,23600,23600,23600,23601,23620,23621,23621,23621,23641,23641,23695,23737,23747,23790,23847,23847,23847,23901,23901,23901,23902,23945,23945,24006,24006,24030,24030,24081,24081,24131,24131,24182,24182,24182,24182,24225,24225,24225,24282,24282,24282,24282,24331,24331,24378,24510,24646,24647,24682,24704,24720,24721,24721,24742,24742,24742,24805,24805,24805,24805,24806,24824,24824,24824,24824,24825,24825,24825,24825,24825,24846,24846,24846,24847,24847,24847,24868,24869,24869,24891,24891,24892,24892,24892,24892,24913,24913,24914,24914,24914,24914,24914,24915,24937,24937,24938,24938,24938,24938,24938,24938,24939,24976,24977,24977,24977,24977,24978,24978,24992,24992,24992,24992,24993,24993,24993,24993,25046,25046,25047,25047,25047,25047,25048,25075,25075,25075,25075,25076,25076,25076,25076,25076,25089,25090,25090,25090,25090,25091,25091,25091,25106,25107,25107,25107,25107,25128,25128,25129,25129,25156,25156,25156,25157,25157,25173,25174,25174,25174,25194,25194,25195,25219,25219,25219,25240,25240,25240,25262,25262,25262,25286,25286,25286,25286,25287,25327,25328,25328,25328,25342,25343,25343,25343,25343,25343,25355,25355,25376,25376,25398,25399,25422,25422,25443,25443,25467,26471,26471,26495,26527,26545,26546,26571,26573,26574,26595,26595,26595,26596,26616,26617,26617,26617,26618,26618,26618,26634,26635,26635,26635,26635,26636,26636,26636,26637,26659,26660,26660,26660,26660,26661,26661,26662,26662,26683,26684,26684,26684,26685,26685,26686,26686,26686,26708,26709,26710,26710,26710,26710,26711,26711,26711,26732,26733,26733,26734,26734,26734,26734,26735,26735,26758,26759,26759,26759,26760,26760,26760,26761,26761,26801,26801,26801,26802,26802,26802,26803,26803,26803,26820,26821,26822,26822,26822,26823,26823,26836,26836,26858,26859,26859,26880,26881,26882,26904,26905,26905,26928,26928,26950,26950,26973,26975,26975,26996,26997,26997,27019,27019,27019,27062,27063,27063,27063,27088,27088,27089,27089,27089,27090,27128,27129,27129,27129,27130,27130,27155,27155,27156,27156,27157,27158,27158,27159,27159,27194,27195,27195,27195,27196,27196,27196,27197,27198,27231,27231,27231,27232,27232,27232,27233,27233,27233,27268,27268,27269,27270,27270,27271,27271,27271,27272,27284,27285,27285,27286,27286,27287,27287,27287,27288,27323,27323,27324,27324,27325,27325,27326,27326,27326,27348,27349,27350,27350,27350,27351,27351,27352,27352,27376,27376,27376,27379,27380,27380,27381,27382,27382,27403,27404,27405,27405,27406,27406,27407,27407,27408,27424,27425,27425,27425,27426,27426,27427,27427,27427,27467,27467,27468,27469,27470,27470,27471,27471,27471,27492,27493,27494,27494,27513,27513,27514,27514,27515,27774,27775,27775,27776,27776,27776,27777,27777,27778,27824,27824,27825,27825,27826,27826,27827,27828,27828,27867,27869,27870,27870,27871,27871,27871,27872,27872,27926,27926,27927,27927,27928,27928,27929,27929,27930,27969,27970,27970,27971,27971,27971,27972,27973,27973,28054,28055,28055,28056,28056,28057,28057,28058,28058,28086,28087,28088,28088,28089,28089,28090,28090,28091,28114,28115,28115,28116,28116,28177,28178,28179,28180,28212,28213,28214,28214,28215,28216,28216,28216,28217,28252,28253,28254,28254,28255,28255,28256,28256,28257,28280,28281,28281,28292,28292,28293,28294,28294,28295,28323,28324,28324,28325,28326,28327,28327,28328,28329,28354,28355,28355,28356,28356,28357,28358,28358,28359,28404,28404,28405,28406,28407,28407,28408,28408,28409,28425,28426,28426,28427,28428,28429,28430,28431,28432,28477,28478,28479,28481,28482,28482,28483,28484,28484,28494,28495,28495,28496,28496,28497,28497,28498,28498,28553,28554,28554,28555,28555,28556,28557,28558,28559,28589,28590,28591,28591,28592,28592,28593,28594,28594,28620,28621,28622,28622,28623,28624,28624,28625,28626,28665,28666,28666,28667,28668,28670,28670,28671,28671,28695,28696,28697,28697,28698,28698,28699,28700,28700,28719,28719,28720,28721,28721,28722,28723,28723,28724,28754,28755,28756,28756,28766,28767,28768,28769,28770,28816,28817,28818,28818,28819,28819,28820,28821,28822,28832,28834,28834,28835,28836,28836,28837,28838,28839,28893,28894,28895,28895,28896,28897,28898,28899,28900,28905,28906,28907,28907,28910,28911,28911,28912,28913,28942,28943,28944,28945,28946,28947,28948,28949,28950,28982,28983,28984,28984,28985,28986,28986,28987,29009,29032,29033,29034,29034,29035,29036,29038,29038,29039,29079,29081,29082,29083,29084,29085,29086,29087,29088,29107,29108,29108,29109,29110,29111,29112,29112,29125,29155,29156,29158,29159,29161,29162,29164,29167,29168,29198,29199,29200,29201,29201,29202,29203,29203,29204" d="m331.50348,252.88889c2.58932,-0.036 3.3483,-0.5219 4.20267,-0.91733c0.73352,-0.33949 1.5704,-0.65373 2.09067,-0.95467c0.9296,-0.5377 2.03735,-1.13347 2.45065,-1.32834c0.89185,-0.42052 1.38913,-0.6281 2.49335,-1.07167c0.61307,-0.24628 1.27603,-0.50206 2.76266,-1.06133c0.82779,-0.3114 1.70779,-0.63651 2.62949,-0.9765c0.95432,-0.35202 1.93298,-0.71109 2.92651,-1.0755c0.99945,-0.36659 1.99658,-0.73044 3.944,-1.448c0.93561,-0.34474 1.84402,-0.68037 2.724,-1.01851c0.8587,-0.32996 1.6955,-0.66229 2.508,-1.00949c0.80017,-0.34193 1.59317,-0.67978 3.10132,-1.472c0.75302,-0.39555 1.48657,-0.83176 2.21851,-1.2765c0.73608,-0.44727 1.46832,-0.91208 2.2095,-1.3755c0.74783,-0.46758 1.49576,-0.95322 3.07199,-1.84799c0.80341,-0.45607 1.63348,-0.88632 2.4765,-1.30951c0.849,-0.42619 1.71005,-0.83835 2.5755,-1.24649c0.86557,-0.40819 1.73407,-0.80492 3.448,-1.61067c0.84589,-0.39766 1.67932,-0.7973 2.50052,-1.1955c0.80948,-0.39252 1.60406,-0.7829 2.38348,-1.1685c0.76419,-0.37807 1.5108,-0.7504 2.94934,-1.46933c0.69006,-0.34488 1.35999,-0.67999 2.01001,-1.005c0.62997,-0.31499 1.23999,-0.62001 1.82999,-0.91501c0.57001,-0.285 1.12,-0.55998 2.16,-1.07999c0.49033,-0.24516 0.96268,-0.48134 1.41901,-0.7095c0.44232,-0.22118 0.87265,-0.43633 1.293,-0.6465c0.41232,-0.20616 0.81876,-0.40912 1.62134,-0.81067c0.40021,-0.20023 0.80225,-0.40091 1.2045,-0.60899c0.40707,-0.21057 0.8223,-0.42224 1.65265,-0.90533c0.43134,-0.25095 1.76614,-1.12642 2.23083,-1.455c0.97244,-0.68764 1.47241,-1.05453 1.99466,-1.416c0.53406,-0.36963 1.06546,-0.77293 2.85983,-1.79317c0.6163,-0.3504 1.25717,-0.66675 1.89752,-0.9855c0.63797,-0.31757 1.27612,-0.61969 1.89749,-0.9315c1.77063,-0.8885 2.30179,-1.19727 2.80383,-1.50183c0.93719,-0.56856 1.75464,-1.13069 2.13083,-1.38834c0.99445,-0.68109 1.83102,-1.21434 2.36951,-1.53516c0.89618,-0.53391 1.6279,-0.97462 2.49432,-1.5325c0.47629,-0.30669 1.4653,-0.96562 1.96268,-1.30667c0.49194,-0.33733 1.84207,-1.29723 2.55865,-1.86667c0.59427,-0.47224 0.98389,-1.00192 1.92117,-1.5305c0.76859,-0.43344 1.50064,-0.90456 1.99615,-1.63216c0.45343,-0.66582 1.01855,-1.3013 1.24701,-2.15367c0.19751,-0.73692 0.51389,-1.57834 0.94501,-2.457c0.29819,-0.60773 0.83548,-1.46709 1.1235,-2.04283c0.50821,-1.01584 0.689,-1.91486 0.70984,-2.93584c0.01581,-0.77383 0,-1.6785 0,-2.42583c0,-0.9955 0,-1.7955 0,-2.79567c0,-0.82066 0,-1.96651 0,-2.757c0,-0.8535 0,-1.44417 0,-2.64417c0,-0.91949 0,-1.55583 0,-2.56534c0,-1.077 0,-1.79166 0,-2.46632c0,-1.10251 0.02164,-2.05377 0,-2.96701c-0.02084,-0.87991 -0.7084,-1.37018 -1.51733,-1.39867c-0.96124,-0.03386 -1.91348,-0.03833 -2.81601,0.16534c-0.68558,0.15471 -1.46042,0.42203 -2.5,0.83333c-0.72015,0.28491 -1.38742,0.61095 -2.33334,1c-0.81815,0.3365 -1.50763,0.61002 -2.33798,1.043c-0.49878,0.26009 -1.66504,0.95224 -2.34451,1.38516c-0.74081,0.472 -1.51709,0.98921 -2.3175,1.5345c-0.81467,0.55499 -1.62192,1.11864 -2.4075,1.6785c-0.75436,0.5376 -2.09488,1.5224 -2.65384,1.95117c-0.49142,0.37695 -0.91647,0.71507 -1.284,1.017c-0.60571,0.49763 -1.48376,1.23015 -2.09698,1.647c-0.65854,0.44765 -1.72946,1.23781 -2.36435,1.79967c-0.35287,0.31227 -1.10751,1.00925 -1.51999,1.37601c-0.87482,0.77786 -1.83694,1.5719 -2.34982,1.96832c-0.52576,0.40637 -1.07471,0.81 -1.6395,1.22101c-1.1727,0.85341 -1.78632,1.2892 -2.40533,1.74933c-1.28455,0.95482 -1.93524,1.4688 -2.59201,1.996c-0.66162,0.53111 -1.31522,1.07108 -1.95749,1.6125c-0.63104,0.53195 -1.24072,1.0556 -1.82251,1.56749c-1.07779,0.9483 -1.55518,1.38861 -2.004,1.8c-0.42581,0.3903 -1.23312,1.13573 -1.63733,1.49333c-0.82886,0.73331 -1.76343,1.49576 -2.284,1.90283c-0.54868,0.42906 -1.12817,0.86331 -2.31467,1.778c-0.60013,0.46265 -1.19577,0.92314 -1.76401,1.3965c-1.08182,0.90121 -1.55875,1.35391 -2.00134,1.80267c-0.85959,0.87155 -1.2565,1.34161 -1.672,1.81332c-0.43155,0.48993 -1.89291,2.13623 -2.46933,2.75168c-0.61008,0.6514 -1.25415,1.31915 -1.92001,1.995c-0.67078,0.68083 -1.34393,1.34946 -2.00998,1.995c-0.64075,0.62102 -1.82605,1.72948 -2.35617,2.19617c-0.47961,0.42224 -0.92657,0.79512 -1.34851,1.1235c-0.3927,0.30563 -0.76913,0.58961 -1.52267,1.08267c-1.16614,0.76305 -1.60089,1.00827 -2.47598,1.53732c-0.87158,0.52693 -1.29404,0.78156 -2.45999,1.45201c-0.64343,0.37 -1.49457,0.8082 -2.18134,1.38666c-0.78491,0.66112 -1.27505,1.30986 -1.83951,1.9675c-0.58286,0.67906 -0.8439,1.04956 -1.77917,1.936c-0.57834,0.54816 -1.17517,1.02155 -2.10001,1.55516c-0.87787,0.5065 -1.79117,0.83687 -2.328,1.11334c-0.96332,0.49614 -1.58475,1.23434 -2.07733,1.722c-0.68991,0.68301 -1.46768,1.0038 -2.24649,1.40533c-1.04343,0.53796 -1.51395,0.88824 -2.17349,1.49399c-0.96942,0.89037 -1.45239,1.44398 -2.01068,1.968c-0.56705,0.53223 -1.13586,1.0605 -2.06433,1.64284c-0.59134,0.3709 -1.58038,0.81302 -2.27032,1.19583c-0.77286,0.42882 -1.59772,0.9926 -2.02118,1.30467c-0.85471,0.62988 -1.64197,1.27213 -1.98416,1.59c-1.03339,0.95995 -1.47668,1.78874 -2.29599,2.02667c-0.7095,0.20604 -1.78186,0.29321 -2.47083,0.787c-0.85922,0.61583 -1.19925,1.44505 -1.75717,2.21683c-0.46246,0.63972 -1.09741,1.48726 -1.89999,1.85483c-0.74274,0.34016 -1.70001,0.16667 -2.52084,0.16667c-0.96451,0 -1.68991,0.01207 -2.6795,-0.00017c-0.84152,-0.01041 -1.57474,-0.06026 -2.77301,-0.28517c-0.72296,-0.1357 -1.51959,-0.3271 -1.94998,-0.41916c-1.40878,-0.30132 -2.45251,-0.49768 -3.009,-0.60001c-0.58218,-0.10704 -1.83307,-0.3311 -2.50534,-0.45267c-0.70639,-0.12775 -2.22922,-0.40831 -3.048,-0.56433c-0.85324,-0.1626 -1.73425,-0.33432 -2.63699,-0.5145c-0.91928,-0.18347 -1.84833,-0.37302 -2.78101,-0.5685c-0.93134,-0.19519 -2.76328,-0.59425 -3.65366,-0.79533c-0.87494,-0.1976 -1.737,-0.39716 -2.59201,-0.58951c-0.85031,-0.1913 -1.70047,-0.3788 -2.556,-0.5535c-0.86182,-0.17599 -2.62711,-0.49619 -3.53766,-0.63567c-0.92679,-0.14197 -1.87088,-0.26799 -2.82901,-0.3855c-0.96921,-0.11888 -1.94913,-0.22713 -2.93698,-0.3315c-0.9935,-0.10497 -2.99106,-0.30382 -3.99036,-0.40468c-0.99539,-0.10048 -1.98297,-0.20145 -2.95798,-0.31049c-0.95969,-0.10733 -1.89941,-0.21994 -2.814,-0.34651c-0.88809,-0.12291 -2.56342,-0.40251 -3.34283,-0.564c-0.74725,-0.15482 -1.46201,-0.32562 -2.15253,-0.4935c-0.67114,-0.16316 -1.32556,-0.32872 -1.97247,-0.47549c-0.6398,-0.14517 -1.92636,-0.38527 -2.582,-0.46701c-0.66046,-0.08234 -1.32675,-0.13692 -1.9935,-0.1815c-0.66428,-0.04442 -1.32404,-0.0752 -1.97552,-0.1095c-0.6405,-0.03372 -1.87701,-0.1131 -2.46698,-0.17332c-0.57407,-0.05859 -1.13351,-0.13213 -1.68152,-0.21451c-0.54105,-0.08133 -1.07623,-0.17329 -1.60948,-0.26849c-0.53474,-0.09546 -1.61835,-0.29633 -2.1725,-0.39534c-0.55785,-0.09967 -1.66179,-0.29077 -2.196,-0.37933c-1.00162,-0.16606 -1.45317,-0.27298 -2.85934,-0.4355c-0.84038,-0.09714 -1.767,-0.08533 -2.76566,-0.08533c-0.56734,0 -1.75818,0 -2.64767,0c-0.57466,0 -1.88916,0 -2.57466,0c-0.83467,0 -1.836,0 -2.636,0c-1.00134,0 -1.836,0 -2.76666,0c-0.78601,0 -1.608,0 -2.66667,0c-0.94133,0 -1.61934,0 -2.58817,0c-0.8145,0 -1.683,0 -2.87917,0c-0.61734,0 -1.28267,0 -2.44067,0c-0.92532,0 -1.99333,0 -2.56483,0c-0.5845,0 -1.7565,0 -2.32599,0c-1.5345,0 -2.36385,0 -3.16917,0c-0.44867,0 -1.548,0 -2.24266,0c-1.78934,0 -2.91951,0 -4.19067,0c-1.38316,0 -2.84933,0 -4.36949,0c-1.54518,0 -3.08633,0 -4.59451,0c-2.80133,0 -4.04382,0 -5.18132,0c-1.0475,0 -2.02,0 -2.93251,0c-0.86749,0 -1.705,0 -2.5275,0c-1.66,0 -2.52451,0 -3.416,0c-0.9155,0 -1.85201,0 -2.8065,0c-0.9695,0 -1.951,0 -2.9415,0c-1.996,0 -2.995,0 -3.98801,0c-0.98099,0 -1.94398,0 -2.883,0c-0.909,0 -1.782,0 -2.61299,0c-1.51201,0 -2.18451,0 -2.81201,0c-0.59749,0 -1.17999,0 -1.7625,0c-0.5975,0 -1.22499,0 -1.89749,0c-1.54001,0 -2.43434,0 -3.41467,0c-1.06233,0 -2.20267,0 -3.41699,0c-1.28435,0 -2.63467,0 -4.04701,0c-2.99466,0 -4.56715,0 -6.17467,0c-1.62749,0 -3.25999,0 -4.88249,0c-1.5975,0 -3.155,0 -4.6575,0c-2.78,0 -4.03267,0 -5.20134,0c-1.10066,0 -2.14932,0 -3.16199,0c-0.99268,0 -1.98134,0 -2.98201,0c-2.10133,0 -3.23167,0 -4.424,0c-1.25633,0 -2.57867,0 -3.969,0c-1.46033,0 -2.99267,0 -4.599,0c-3.44267,0 -5.27917,0 -7.17467,0c-1.9335,0 -3.884,0 -5.8305,0c-1.9215,0 -3.797,0 -5.6055,0c-3.332,0 -4.81883,0 -6.18667,0c-1.25983,0 -2.42267,0 -3.4995,0c-1.00183,0 -1.93967,0 -2.82449,0c-1.65467,0 -2.44417,0 -3.21067,0c-0.7405,0 -1.452,0 -2.1315,0c-0.6445,0 -1.251,0 -1.8165,0c-0.996,0 -1.42152,-0.00208 -1.8,0.00267c-0.33453,0.0042 -0.62868,0.01135 -0.8835,0.039c-0.22128,0.024 -0.41721,0.05333 -0.5685,0.129c-0.26228,0.13116 -0.34323,0.26747 -0.40667,0.39867c-0.0659,0.13628 -0.10386,0.29109 -0.129,0.45149c-0.02567,0.16376 -0.03513,0.33093 -0.039,0.49651c-0.00738,0.31592 -0.00267,0.4615 -0.00267,0.60001c0,0.13449 0,0.26799 0,0.40349c0,0.1405 0,0.289 0,0.4485c0,0.364 -0.00211,0.57407 0.00401,0.804c0.00665,0.25009 0.02206,0.52069 0.05849,0.81c0.03914,0.31087 0.09615,0.64336 0.1935,0.99001c0.21581,0.76848 0.40194,1.172 0.59734,1.59334c0.20274,0.43719 0.43034,0.87494 0.6675,1.3125c0.2362,0.43578 0.47788,0.85858 0.7125,1.2675c0.4325,0.7538 0.62376,1.08842 0.796,1.39465c0.15643,0.27812 0.29681,0.53043 0.429,0.7545c0.11867,0.20116 0.22575,0.38138 0.339,0.52951c0.19139,0.25037 0.29874,0.33743 0.40267,0.40399c0.09666,0.0619 0.19868,0.10339 0.3,0.129c0.09894,0.02501 0.19987,0.03517 0.3,0.039c0.19987,0.00766 0.3,0.00267 0.4,0.00267c0.1,0 0.5,0 1.392,0c0.656,0 1.137,0 1.744,0c1.66399,0 2.7495,0 3.988,0c1.36449,0 2.828,0 4.36349,0c1.58051,0 3.179,0 4.7685,0c3.044,0 4.45016,0.00093 5.77334,-0.00133c1.24716,-0.00214 2.42536,-0.00644 3.5415,-0.0195c1.0612,-0.01242 2.07457,-0.02905 3.0465,-0.0645c1.84989,-0.06746 2.73897,-0.13188 3.604,-0.19867c0.83765,-0.06468 1.64287,-0.13931 2.412,-0.216c0.72952,-0.07274 1.41458,-0.14812 2.052,-0.216c1.11452,-0.1187 1.5866,-0.16525 2.012,-0.19867c0.39098,-0.03072 0.76123,-0.0519 1.1235,-0.0645c0.36708,-0.01277 0.75233,-0.01762 1.1685,-0.0195c0.97733,-0.00439 1.56133,-0.00133 2.20933,-0.00133c0.706,0 1.464,0 2.26801,0c0.844,0 1.722,0 2.628,0c1.872,0 2.82767,0 3.79734,0c0.98766,0 1.99733,0 3.03299,0c1.06567,0 2.16533,0 3.30301,0c2.40533,0 3.67833,0 4.98933,0c1.33699,0 2.68799,0 4.041,0c1.34299,0 2.66399,0 3.95099,0c2.42401,0 3.54134,0 4.60268,0c1.01933,0 2.01067,0 2.98799,0c0.97734,0 1.96867,0 2.98801,0c2.17867,0 3.36099,0 4.59734,0c1.27432,0 2.57066,0 3.873,0c1.29233,0 2.55865,0 3.78299,0c2.25867,0 3.26851,0 4.21733,0c0.91684,0 1.83067,0 2.77051,0c0.99483,0 2.07367,0 3.2655,0c2.83867,0 4.53217,0 6.38666,0c1.9765,0 4.03601,0 6.13951,0c2.10849,0 4.183,0 6.18449,0c3.62801,0 5.18633,0.00104 6.57466,-0.00133c1.23834,-0.00211 2.34671,-0.00609 3.345,-0.0195c0.90839,-0.01221 1.74696,-0.02916 2.535,-0.0645c1.50735,-0.0676 2.26308,-0.13329 3.036,-0.20001c0.79742,-0.06885 1.62537,-0.15038 2.4915,-0.23549c0.91119,-0.08954 1.87404,-0.18692 2.8965,-0.2805c2.2487,-0.20581 3.48582,-0.30095 4.78267,-0.39734c1.33649,-0.09935 2.69321,-0.19252 4.05,-0.2805c1.33655,-0.08667 2.63318,-0.16641 3.87,-0.23549c2.21306,-0.1236 3.15672,-0.1664 4.00134,-0.20001c0.7664,-0.0305 1.47595,-0.05171 2.14949,-0.0645c0.65846,-0.0125 1.323,-0.01762 2.0145,-0.0195c1.548,-0.00421 2.44051,-0.00133 3.408,-0.00133c1.0275,0 2.10001,0 3.2025,0c1.11751,0 2.235,0 3.33751,0c2.09999,0 3.07216,0 3.99733,0c0.89116,0 1.76134,0 2.62349,0c0.86719,0 1.75235,0 2.66852,0c1.97733,0 3.05914,0 4.19199,0c1.16483,0 2.34268,0 3.5145,0c1.14685,0 2.24966,0 3.28952,0c1.81467,0 2.55914,0 3.21066,0c0.58548,0 1.13199,0 1.6665,0c0.5495,0 1.14099,0 1.80148,0c1.63602,0 2.65616,0 3.79733,0c1.23318,0 2.52933,0 3.8595,0c1.33517,0 2.64633,0 3.90451,0c2.24133,0 3.1745,0 3.98666,0c0.71017,0 1.33734,0 1.90051,0c0.51816,0 1.01031,0 1.49548,0c1.02533,0 1.59967,0 2.22,0c0.66232,0 1.36267,0 2.09702,0c0.76431,0 1.55466,0 2.36697,0c1.67468,0 2.52988,0.00244 3.39603,-0.004c0.87817,-0.00653 1.76959,-0.02089 2.6745,-0.0585c0.9205,-0.03827 1.85797,-0.09216 2.80948,-0.1935c1.96533,-0.2093 2.9715,-0.39854 3.98801,-0.59734c1.02026,-0.19952 2.02808,-0.42744 3.01501,-0.6675c0.95972,-0.23344 1.87781,-0.47411 2.745,-0.71251c1.54877,-0.42578 2.20801,-0.62286 2.79599,-0.79466c0.52231,-0.15262 0.98505,-0.29028 1.39651,-0.4095c0.36591,-0.106 0.69312,-0.2011 0.99149,-0.27451c0.52731,-0.12976 0.77487,-0.16974 1.01733,-0.20399c0.24356,-0.03442 0.49591,-0.05956 0.76199,-0.084c0.28592,-0.02628 0.59821,-0.05075 0.94202,-0.084c0.80844,-0.07817 1.28174,-0.13564 1.79599,-0.20134c0.54675,-0.06985 1.116,-0.15067 1.69949,-0.23549l0.5885,-0.08984l0.5845,-0.09383l0.5715,-0.09683" id="svg_5" stroke-width="2" stroke="#000" fill="none"/>
  <path t="31072,31127,31127,31144,31144,31161,31161,31161,31186,31186,31186,31186,31186,31186,31186,31203,31203,31203,31203,31203,31204,31204,31204,31204,31216,31216,31216,31216,31216,31216,31216,31216,31216,31226,31226,31226,31226,31226,31226,31237,31237,31237,31259,31260,31260,31260,31260,31260,31260,31260,31260,31278,31278,31278,31278,31278,31279,31279,31279,31279,31306,31306,31306,31306,31307,31307,31307,31307,31307,31330,31330,31330,31330,31330,31330,31330,31330,31330,31353,31353,31353,31353,31353,31353,31354,31354,31354,31402,31402,31402,31402,31402,31402,31402,31402,31402,31663,31663,31663,31663,31663,31663,31663,31663,31664,31688,31688,31688,31688,31688,31688,31688,31688,31689,31712,31712,31712,31712,31712,31713,31713,31713,31713,31734,31734,31734,31734,31735,31735,31735,31735,31735,31748,31748,31749,31749,31749,31749,31749,31749,31749,31773,31774,31774,31774,31775,31775,31775,31775,31775,31798,31798,31798,31799,31799,31799,31799,31799,31842,31843,31843,31843,31871,31871,31871,31872,31896,31896,31896,31896,31897,31923,31923,31923,31923,31936,31936,31937,31954,31954,31954,31978,31979,31979,32002,32002,32002,32003,32026,32026,32027,32051,32051,32051,32052,32052,32078,32079,32079,32079,32079,32102,32102,32102,32103,32103,32103,32127,32128,32128,32128,32128,32128,32151,32152,32152,32152,32152,32152,32177,32177,32178,32178,32178,32178,32178,32202,32203,32203,32203,32203,32203,32204,32228,32228,32228,32228,32252,32253,32253,32277,32278,32278,32279,32279,32279,32279,32305,32305,32306,32306,32306,32306,32306,32333,32333,32333,32333,32334,32334,32335,32357,32357,32357,32358,32358,32359,32359,32359,32384,32385,32385,32385,32385,32385,32458,32458,32459,32459,32459,32459,32460,32460,32480,32480,32480,32481,32482,32482,32482,32483,32483,32493,32494,32494,32495,32495,32496,32496,32496,32496,32521,32522,32522,32522,32522,32523,32523,32548,32548" d="m205.50346,251.88889c1.836,0 2.60187,-0.02869 3.60451,0.0045c0.85382,0.02826 1.82645,0.18541 2.6315,0.44217c0.88017,0.28072 1.76546,0.71724 2.38666,1.04666c0.76047,0.40327 1.22958,0.65636 1.78934,0.93333c0.65761,0.32539 1.43214,0.70137 3.42134,1.57333c1.2272,0.53793 2.6088,1.11194 4.1115,1.73849c1.6026,0.66821 3.28514,1.36374 5.02049,2.08951c1.769,0.73984 3.55347,1.47601 7.03467,3.00534c1.67548,0.73605 3.293,1.47781 4.8705,2.20499c1.54648,0.71286 3.06563,1.423 4.5735,2.11499c1.49915,0.68799 2.99297,1.3858 6.056,2.68002c1.55884,0.65866 3.15331,1.28745 4.767,1.91849c1.62895,0.63699 3.27562,1.26657 4.929,1.90952c1.66129,0.64603 3.33411,1.28052 6.63733,2.672c1.6525,0.69611 3.2948,1.43539 4.95001,2.18549c1.67816,0.7605 3.38174,1.54721 5.13,2.3385c1.79501,0.81247 3.64014,1.6619 7.58667,3.30933c2.08383,0.86987 4.24124,1.71738 6.43799,2.55002c2.20062,0.83411 4.39102,1.62909 6.54599,2.37c2.0806,0.71533 4.05981,1.40778 7.68268,2.41333c1.56107,0.43329 2.98178,0.75278 4.27051,0.99451c1.16919,0.2193 2.24927,0.36868 3.25348,0.48151c0.94626,0.10632 1.85938,0.16284 3.64267,0.35733c0.90967,0.09921 1.82867,0.23019 2.74951,0.37198c0.91519,0.14093 1.81314,0.29373 2.68649,0.444c0.83966,0.14447 1.63406,0.29498 3.064,0.51733c0.61505,0.09564 1.1662,0.16699 1.6575,0.21902c0.43546,0.04614 0.8215,0.07584 1.16251,0.09299c0.30072,0.01514 0.56668,0.01999 1.01334,0.02133c0.19034,0.00058 0.36267,0 0.51901,0c0.14233,0 0.27264,0 0.39297,0c0.11234,0 0.21869,0 0.42136,0c0.09964,0 0.19733,0 0.29099,0c0.08768,0 0.16733,0 0.237,0c0.05768,0 0.13837,0.03732 0.13867,0c0.00009,-0.00967 -0.03738,-0.00058 -0.08099,-0.00449c-0.05777,-0.00519 -0.12775,-0.01443 -0.207,-0.03152c-0.08817,-0.01901 -0.18607,-0.03864 -0.37866,-0.13065c-0.10284,-0.04913 -0.20093,-0.11603 -0.30002,-0.186c-0.10095,-0.07132 -0.19949,-0.14798 -0.29999,-0.22202c-0.09952,-0.0733 -0.19406,-0.15213 -0.39999,-0.25867c-0.09747,-0.05042 -0.19913,-0.08466 -0.30002,-0.1095c-0.09924,-0.02444 -0.1998,-0.0383 -0.29999,-0.04648c-0.09985,-0.00818 -0.20001,-0.00986 -0.39999,-0.01068c-0.10001,-0.00043 -0.20007,0.00018 -0.30002,-0.00449c-0.1001,-0.00467 -0.20047,-0.01346 -0.29999,-0.03152c-0.10059,-0.01825 -0.20499,-0.03799 -0.39999,-0.13065c-0.10315,-0.04901 -0.20245,-0.11713 -0.3045,-0.19052c-0.10736,-0.07721 -0.21619,-0.16385 -0.33151,-0.25348c-0.121,-0.09402 -0.24524,-0.19659 -0.53067,-0.38934c-0.15286,-0.10324 -0.31882,-0.20206 -0.495,-0.29999c-0.18381,-0.10217 -0.37909,-0.2019 -0.58499,-0.30002c-0.21405,-0.10199 -0.91577,-0.41147 -1.715,-0.69998c-0.57709,-0.20834 -1.52429,-0.50238 -2.55966,-0.80035c-0.73087,-0.21033 -1.49261,-0.40579 -2.22601,-0.71399c-1.10965,-0.46631 -1.7739,-0.94662 -2.42734,-1.43634c-0.65598,-0.49164 -1.27435,-1.04343 -2.3465,-1.60632c-0.70639,-0.37088 -1.45755,-0.60275 -2.16901,-0.83401c-1.26599,-0.4115 -1.80432,-0.58957 -2.70084,-1.009c-0.81757,-0.38248 -1.62338,-0.81467 -2.29431,-1.09998c-0.99231,-0.42197 -1.85419,-0.70685 -2.47635,-0.90002c-1.00165,-0.311 -1.72156,-0.49805 -2.453,-0.69998c-1.07629,-0.29715 -2.05664,-0.58752 -2.88,-0.89999c-0.76044,-0.28857 -1.83707,-0.70508 -2.47598,-0.90134c-0.69965,-0.2149 -1.45584,-0.41901 -2.23199,-0.68402c-1.20602,-0.4118 -2.00113,-0.76895 -2.81818,-1.11465c-0.41483,-0.17551 -1.25369,-0.54846 -2.60083,-0.97852c-0.46158,-0.14734 -1.42392,-0.39035 -1.92001,-0.50064c-1.01782,-0.22629 -1.54404,-0.32474 -3.17966,-0.62085c-0.56235,-0.10181 -1.70401,-0.29999 -2.27866,-0.39999c-0.57468,-0.10001 -1.71667,-0.29623 -2.83334,-0.5c-1.08334,-0.19769 -1.61545,-0.29764 -2.66666,-0.52084c-0.52609,-0.11172 -1.58652,-0.35501 -2.66669,-0.64581c-0.55634,-0.14978 -1.69485,-0.48645 -2.28,-0.65869c-0.59488,-0.17508 -1.81329,-0.52841 -2.44,-0.69064c-1.27667,-0.33051 -1.93298,-0.4675 -2.59198,-0.59866c-1.30209,-0.25919 -1.9382,-0.36343 -2.552,-0.47467c-1.14438,-0.20737 -2.14301,-0.38428 -2.944,-0.61069c-0.95135,-0.26892 -1.70142,-0.60651 -2.71335,-1.00266c-0.5679,-0.22232 -1.54062,-0.59113 -2.64532,-1.13068c-0.41365,-0.20203 -1.2863,-0.67957 -1.74933,-0.93866c-0.97635,-0.54633 -1.48199,-0.83972 -2.00534,-1.13068c-1.62883,-0.90558 -2.19598,-1.19858 -2.76917,-1.49283c-0.57748,-0.29645 -1.75188,-0.87195 -2.34734,-1.14734c-0.59525,-0.2753 -1.79311,-0.79645 -2.39566,-1.03564c-1.19969,-0.47626 -1.80946,-0.68851 -2.42067,-0.90067c-0.61414,-0.21317 -1.86313,-0.62393 -3.14583,-1.02084c-0.65366,-0.20227 -1.31474,-0.39972 -1.97701,-0.60001c-0.66042,-0.19971 -1.95985,-0.59732 -2.58934,-0.79999c-0.61317,-0.19742 -1.77144,-0.58856 -2.81366,-1c-0.493,-0.19461 -1.43172,-0.60181 -2.35417,-1c-0.46544,-0.20093 -1.94273,-0.80392 -2.4845,-1.004c-0.57718,-0.21317 -1.20303,-0.43088 -1.8855,-0.65851c-0.74547,-0.24866 -1.5661,-0.5119 -2.4705,-0.79349c-2.08992,-0.65071 -3.29308,-1.00737 -4.57866,-1.39734c-1.3461,-0.40833 -2.72807,-0.82889 -4.11751,-1.2675c-1.37723,-0.43477 -2.71742,-0.86186 -3.9825,-1.3125c-2.25729,-0.80408 -3.18552,-1.20894 -3.98399,-1.59201c-0.69724,-0.3345 -1.28642,-0.66231 -1.78351,-0.97049c-0.43172,-0.26765 -0.78976,-0.52736 -1.10849,-0.7455c-0.53313,-0.3649 -0.77888,-0.50204 -1.01733,-0.604c-0.22203,-0.09496 -0.44,-0.15733 -0.645,-0.213l-0.19501,-0.04567l-0.95999,-0.28134l-0.60001,-0.51599" id="svg_6" stroke-width="2" stroke="#000" fill="none"/>
  <path t="34489,34608,34626,34626,34640,34654,34654,34654,34666,34667,34667,34667,34667,34682,34682,34682,34682,34682,34699,34699,34699,34699,34699,34716,34716,34716,34716,34726,34727,34727,34749,34749,34766,34815,34815,34833" d="m457.50348,275.88889c0,1.75717 0,2.65268 0,3.51599c0,0.85867 0,1.806 0,2.56735c0,0.77399 -0.00507,1.78119 0.00449,2.58817c0.01056,0.89108 0.04453,1.84253 0.08084,2.33249c0.11105,1.49789 0.19357,1.99539 0.34,2.98532c0.14429,0.97543 0.24936,1.45013 0.40799,2.84402c0.09995,0.87817 0.13583,1.72037 0.19202,2.51999c0.05344,0.76041 0.1546,1.83563 0.42133,2.81067c0.17322,0.63327 0.40582,1.25226 1.03601,2.43332c0.31516,0.59067 0.90518,1.34268 1.27432,2.25967c0.32346,0.80356 0.315,1.74301 0.94833,2.44299l0.58932,0.40002l0.68451,0.77914" id="svg_7" stroke-width="2" stroke="#000" fill="none"/>
  <path t="36272,36359,36377,36377,36392,36392,36406,36406,36406,36406,36420,36420,36420,36421,36421,36434,36434,36434,36434,36434,36445,36446,36446,36446,36446,36446,36465,36466,36466,36575" d="m278.50348,343.88889c-1.60001,0.61066 -2.31082,1.28943 -2.80002,1.79999c-0.71613,0.74738 -1.02182,1.24747 -1.40399,2.25467c-0.24191,0.63757 -0.45419,1.36752 -0.85199,2.064c-0.63229,1.10709 -1.30255,1.73752 -1.98569,2.38135c-0.35007,0.32993 -1.10504,0.95612 -2.13666,2.02167c-0.3446,0.35593 -0.98334,1.11868 -1.28,1.51999c-0.59708,0.80768 -1.38229,2.12112 -1.62,2.57935c-0.47473,0.91519 -0.68179,1.38 -1.07501,2.28168c-0.3663,0.83994 -0.82532,1.9325 -1.09399,2.51682l-0.50534,0.85266l-0.72733,0.55719" id="svg_8" stroke-width="2" stroke="#000" fill="none"/>
  <path t="36928,37015,37016,37034,37034,37034,37050,37051,37067,37067,37067,37067,37067,37084,37084,37084,37084,37084,37084,37100,37100,37100,37100,37100,37111,37111,37111,37111,37134,37134,37157,37158,37158,37203,37271,37271,37335,37335,37351,37351,37366,37367,37384,37401,37417,37417,37428,37429,37429,37451,37451,37466,37503,37527,37527,37541,37541,37554,37568,37568,37584,37595,37595,37617,37617,37618,37637,37637,37676,37676,37698,37698,37698,37699,37699,37699,37699,37715,37715,37715,37715,37732,37732,37759,37759,37783,37783,37783,37809,37809,37809,37809,37826,37827,37827,37827,37827,37879,37879,37879,37892,37892,37916,37934,37952,37952,37952,37952,37967,37968,37977,37978,37999,38016,38016,38033,38033,38050,38050,38050,38065,38084,38085,38101,38102,38117,38134,38135,38151,38160,38167" d="m286.50348,345.88889c-0.00452,2.00983 0.03299,2.79626 -0.16669,3.83334c-0.13867,0.72025 -0.53204,1.54977 -0.75067,2.56934c-0.13574,0.6329 -0.39868,1.93741 -0.65466,2.56931c-0.2912,0.71887 -0.68088,1.48767 -0.89417,1.8942c-0.68625,1.30804 -1.21655,2.21722 -1.48648,2.68198c-0.27139,0.46725 -0.81815,1.39285 -1.36334,2.2825c-0.5137,0.83823 -1.01038,1.59146 -1.42667,2.30801c-0.38824,0.6683 -0.75925,1.32339 -1.0145,2.38232c-0.25732,1.06754 -0.21881,1.78696 -0.3255,2.42435c-0.20197,1.20657 -0.66312,1.83542 -1.11734,2.82266c-0.33066,0.71866 -0.55087,1.49118 -1.09549,2.41766c-0.49457,0.84131 -0.75125,1.70584 -1.7045,1.81433c-0.75446,0.08585 -1.67294,-0.31934 -2.34735,-0.7045c-0.79221,-0.45242 -1.29126,-1.12732 -1.70532,-1.99551c-0.39902,-0.83664 -1.12024,-1.34494 -1.64734,-2.11432c-0.46967,-0.68558 -0.65826,-1.46307 -1.05716,-2.18033c-0.50079,-0.90051 -1.34311,-1.34015 -2,-2.10516c-0.59064,-0.68787 -1.34302,-0.90463 -2.12817,-0.90018c-0.94003,0.00534 -1.71408,-0.06516 -2.59384,0.52084c-0.70651,0.47061 -1.28531,1.00473 -2.12082,1.5405c-0.66324,0.42529 -1.0242,1.18573 -1.39999,2.10532c-0.31607,0.77344 -0.63263,1.55496 -0.87851,2.69034c-0.15454,0.71359 -0.12149,1.61768 -0.12149,2.24316c0,1.0665 -0.00003,2.08926 0.01349,2.673c0.01425,0.61496 0.08273,1.88681 0.15799,2.51535c0.07309,0.61029 0.42416,2.22119 0.89102,2.96399c0.4025,0.64035 0.95819,1.03629 1.96683,1.86215c0.56171,0.45993 1.23621,1.24875 1.94131,1.68533c0.76096,0.47116 1.58493,0.70728 2.19553,0.84283c1.34314,0.29819 2.09506,0.31039 2.87549,0.33633c0.81973,0.02725 2.125,0.02084 2.57935,0.02084c0.92264,0 1.83731,0 2.71198,0c1.16702,0 1.81686,0.0878 2.79901,-0.03601c0.85962,-0.10837 1.67267,-0.62006 1.85733,-1.564c0.15976,-0.81659 0.01068,-1.89999 0.01068,-2.758c0,-0.642 0.03415,-1.59064 -0.00134,-2.58734c-0.02847,-0.79974 -0.37943,-1.69608 -0.646,-2.40198c-0.37851,-1.00232 -0.75909,-1.81757 -1.39435,-2.13184c-0.91574,-0.45303 -1.85187,-0.28159 -2.79166,-0.85419c-0.6329,-0.38562 -0.88788,-1.22986 -1.80267,-1.68134c-0.79822,-0.39395 -1.58569,-0.52689 -2.47867,-1.18533c-0.61685,-0.45483 -1.27612,-1.20935 -1.88531,-1.79999c-0.59122,-0.57321 -1.38934,-0.98532 -1.95184,-1.70532l-0.2175,-0.72668" id="svg_9" stroke-width="2" stroke="#000" fill="none"/>
  <path t="39320,39351,39375,39395,39447,39447,39448,39455,39473,39493,39513,39513,39537,39537,39538,39538,39538,39558,39558,39558,39558,39558,39559,39578,39578,39578,39578,39578,39601,39602,39602,39602,39602,39602,39602,39602,39602,39621,39622,39622,39622,39622" d="m398.50348,342.88889c1.59998,0.57468 2.47974,0.99936 3.04166,1.52084c0.62314,0.57828 1.47046,0.98645 2.19165,1.19382c0.93799,0.26968 1.64465,0.82132 2.28751,1.28534c0.70624,0.50977 1.30005,0.8707 2.02252,1.76434c0.48438,0.59912 1.0336,1.28299 1.34998,1.63165c0.66681,0.73486 1.42508,1.45609 2.27469,2.11734c0.42996,0.33463 1.32971,0.94852 1.78131,1.23999c0.8783,0.56686 2.11026,1.32288 2.48535,1.56668c0.73981,0.48087 1.49188,1.00812 1.88498,1.30417c1.36063,1.02466 1.86649,1.46036 2.41769,1.91183c0.57849,0.47385 1.17365,0.96655 1.78348,1.46399c0.61282,0.49988 1.22098,0.99536 1.82852,1.46399c1.14194,0.8808 2.19199,1.59201 2.67017,1.89835l0.87631,0.51266l0.77634,0.39267" id="svg_10" stroke-width="2" stroke="#000" fill="none"/>
  <path t="40088,40159,40174,40174,40187,40188,40188,40209,40209,40237,40237,40237,40237,40237,40237,40237,40245,40245,40245,40245,40245,40245,40245,40245,40246,40265,40266,40266,40266,40266,40266,40266,40266,40266,40287,40287,40287,40287,40287,40287,40321,40322,40322,40341,40341,40341,40341,40361,40361,40407,40439,40463,40476,40495,40531,40531,40583,40583,40606,40627,40645,40646,40663,40663,40663,40663,40663,40684,40684,40685,40705,40705,40705,40731,40731,40731,40731,40751,40751,40752,40752,40771,40771,40772,40772,40772,40795,40797,40797,40818,40818,40818,40818,40837,40838,40838,40838,40838,40858,40859,40859,40859,40859,40859,40880,40880,40880,40880,40880,40880,40880,40881,40881,40901,40901,40901,40901,40901,40901,40901,40901,40965,40965,40965,40965,40990,40990,40990,40991,40991,40999,40999,40999,40999,40999,40999,41034,41034,41034,41057,41057,41065,41066,41066,41098,41098,41098,41125,41126,41126,41143,41143,41143,41144,41144,41144,41162,41162,41162,41162,41163,41163,41184,41184,41203,41226,41245,41246,41268,41268,41289,41324,41471,41492,41522,41538,41548,41569,41569,41589,41589,41609,41629,41630,41666,41666,41675,41675,41699,41699,41720,41720,41720,41720,41745,41746,41746,41746,41746,41768,41769,41769,41769,41769,41790,41790,41791,41791,41827,41827,41827,41827,41857,41857,41858,41858,41858,41874,41874,41886,41886,41906,41906,41906,41926,41927,41974,41975,41975,42000,42001,42001,42001,42032,42032,42032,42033,42059,42060,42088,42088,42088,42088,42089,42105,42105,42105,42106" d="m389.50348,349.88889c1.75714,0.05716 2.67575,0.32816 3.21066,0.64667c1.02878,0.61255 1.58514,1.17184 2.13217,1.70065c0.78662,0.76038 1.37497,1.33612 2.32382,1.98602c0.6694,0.4585 1.08212,0.69565 2,1.29166c0.52121,0.33844 1.08301,0.70825 1.67999,1.11899c1.32681,0.91287 2.04016,1.43933 2.78934,1.992c0.77618,0.5726 1.56534,1.16534 2.36401,1.76401c0.79865,0.59866 1.5867,1.19287 2.36398,1.76401c1.46442,1.07605 2.14841,1.55197 2.79199,1.996c0.60519,0.41754 1.18005,0.80466 1.71902,1.17749c0.51163,0.35394 0.99994,0.69211 1.44897,1.04251c0.85696,0.66873 1.24234,1.03146 1.96167,1.75916c0.68164,0.68958 0.94272,1.08484 1.61166,1.62082c1.12811,0.90387 1.80899,1.03259 2.75986,1.17917c1.00565,0.15503 1.72556,0.23785 2.44681,0.38617c1.03113,0.21204 2.12671,0.49573 2.83353,0.55383c0.95947,0.07889 1.88489,0.21893 2.76117,0.0195c0.80429,-0.18304 0.80133,-1.19998 0.80133,-2.16531c0,-0.83334 0.44559,-1.83972 -0.08536,-2.54669c-0.46283,-0.61627 -1.61465,-0.28665 -2.51883,-0.28665c-0.6225,0 -1.60266,0 -2.46365,0c-0.953,0 -1.92599,-0.00009 -2.39749,0c-1.24869,0.00024 -2.25513,-0.15265 -3.12933,0.25601c-0.90979,0.42526 -1.22372,1.03864 -1.80536,1.85748c-0.61987,0.87271 -0.98892,1.49396 -1.41064,2.07584c-0.62833,0.86697 -1.35214,1.64813 -1.87067,2.12933c-0.51883,0.48148 -1.36362,1.1889 -1.81866,2.18134c-0.32953,0.71866 -0.41553,1.57422 -0.46802,2.42401c-0.05081,0.82288 -0.09628,1.91644 0,2.77866c0.08368,0.74936 0.61221,1.73483 1.03952,2.25c0.46942,0.56595 1.02115,1.11884 1.9285,1.88068c0.59082,0.49606 1.21548,0.94931 1.90799,1.31998c0.73187,0.39172 2.05493,0.83249 2.55066,0.96402c1.0668,0.28308 1.64606,0.40118 2.24533,0.54401c1.27185,0.3031 2.63068,0.66754 3.33884,0.88116c0.72791,0.21957 1.46664,0.45947 2.21851,0.69748c0.75912,0.24033 1.52203,0.48016 2.2905,0.69751c0.76361,0.21597 2.27936,0.57474 3.026,0.698c0.72961,0.12045 1.44601,0.20471 2.14349,0.2565c1.32254,0.09821 1.94543,0.09866 2.53601,0.104c1.55661,0.0141 2.42273,0.03986 3.15933,-0.10016c0.67758,-0.12878 1.89902,-0.98904 2.17932,-1.32251c0.60864,-0.72406 1.11923,-1.61566 1.33252,-2.09583c0.6431,-1.44778 0.74213,-1.9711 0.89548,-2.96851c0.07462,-0.48532 0.1456,-1.43869 0.08667,-2.33835c-0.08066,-1.23175 -0.24994,-1.95062 -0.48532,-2.87732c-0.24478,-0.96362 -0.37735,-1.84158 -0.92532,-2.45999c-0.49527,-0.55896 -1.28232,-1.03009 -2.33334,-1.66669c-0.70068,-0.42441 -1.35385,-0.76019 -2.16666,-1.16666c-0.82986,-0.41498 -1.56848,-0.76413 -2.5,-1.16666c-0.7536,-0.32565 -1.60904,-0.67761 -2.0625,-0.875c-0.95325,-0.41495 -1.45135,-0.62524 -2.93701,-1.37933c-0.49991,-0.25375 -1.46762,-0.78467 -1.93799,-1.03735c-0.88934,-0.47778 -1.27039,-0.7793 -2.70386,-1.28699c-0.73901,-0.26172 -1.4704,-0.80551 -2.22031,-1.19751c-0.71524,-0.37387 -1.63834,-0.05716 -2.61685,-0.05716c-0.82016,0 -1.72156,0.01068 -2.62149,0c-0.87936,-0.01044 -1.39993,-0.6106 -1.39999,-1.5c-0.00006,-0.90005 0.42645,-1.75467 0.83331,-2.5c0.41574,-0.7616 0.99915,-1.4556 1.68402,-1.71466c0.95181,-0.36005 1.96664,-0.28534 2.65732,-0.28534c0.94266,0 1.79495,-0.01968 2.83066,0.00449c0.74448,0.01736 1.72784,0.04294 2.47385,0.53717c0.77457,0.51315 1.19083,1.11673 1.76749,1.741c0.44653,0.4834 1.19244,1.34689 1.69702,2.03619c0.53418,0.72974 1.0137,1.53592 1.20166,1.96915c0.5654,1.30322 0.69586,2.26315 0.74667,2.73734c0.10144,0.94696 0.10599,1.89066 0.108,3.25299c0.00064,0.435 0,1.27502 0,2.07501c0,1.48001 0.02863,2.16486 -0.03201,2.82132c-0.09085,0.98373 -0.43933,2.0069 -0.82132,2.7067c-0.40372,0.73962 -0.89594,1.42938 -1.38,2.064c-0.61047,0.80035 -1.18011,1.61966 -2.08817,1.93332c-0.85184,0.29422 -1.88068,0.33646 -2.47852,0.54666c-0.80298,0.28235 -1.80334,0.54187 -2.65717,0.57019c-0.96399,0.03198 -1.78949,0.00449 -2.3895,0.00449c-1.32001,0 -2.03693,0.01956 -2.76801,-0.02133c-1.07782,-0.0603 -2.09061,-0.23853 -2.86649,-0.69299c-0.48459,-0.28384 -1.13391,-0.82172 -1.75717,-1.89917c-0.38187,-0.66013 -0.61325,-1.88477 -0.67633,-2.63983c-0.06949,-0.83191 -0.07114,-1.26743 -0.08084,-2.14584c-0.01401,-1.26743 -0.00317,-2.02884 0.01633,-3.03833l0.06451,-0.87451" id="svg_11" stroke-width="2" stroke="#000" fill="none"/>
  <path t="43400,43439,43456,43473,43473,43489,43489,43489,43504,43504,43504,43504,43504,43504,43518,43518,43518,43518,43518,43527,43527,43527,43527,43527,43552,43552,43552,43552,43567,43567,43567,43567,43584,43584" d="m301.50348,349.88889c2.55331,0.03601 3.03891,0.78635 3.71432,1.29999c0.63806,0.48523 1.69247,0.89728 2.34818,1.24167c0.51123,0.26849 1.44247,0.78326 2.19083,1.23035c0.83899,0.50125 1.27841,0.7749 2.14581,1.39417c0.43985,0.31403 1.66568,1.34729 2.03018,1.71783c0.71436,0.72623 1.34946,1.49057 1.66165,1.86334c0.90933,1.08572 1.50778,1.76605 2.08768,2.41666c0.28036,0.31454 1.09088,1.20789 1.67883,2.13583c0.36752,0.58008 0.58966,1.23111 1.19583,2.01483c0.63821,0.82516 1.30017,1.22818 1.92584,1.66449l0.88348,0.61951l0.79602,0.79999l0.258,0.58051" id="svg_12" stroke-width="2" stroke="#000" fill="none"/>
  <path t="44064,44159,44173,44173,44173,44186,44186,44186,44201,44201,44202,44217,44217,44217,44217,44218,44218,44235,44235,44235,44235,44235,44243,44244,44244,44244,44267,44267,44284,44351,44375,44391,44391,44407,44407,44423,44437,44443,44467,44486,44519,44519,44551,44559,44559,44591,44615,44639,44639,44655,44671,44695,44695,44712,44712,44718,44735,44750,44750,44765,44783,44783,44810,44810,44810,44834,44834,44855,44855,44871,44871,44871,44871,44887,44903,44903,44911,44911,44935,44952,44967,44983,44983,44983,45001,45002,45002,45002,45018,45018,45018,45018,45018,45035,45035,45035,45052,45053,45064,45065,45097,45097,45112,45112,45112,45112,45134,45134,45152,45152,45168,45168,45184,45202,45202,45218,45218,45235,45255,45256,45264,45264,45279,45279,45279,45302,45303,45327,45327,45328,45328,45351,45367,45384,45401,45415,45415,45434,45450,45450,45467,45467,45495,45495,45519,45543,45583,45639,45695,45719" d="m297.50348,352.88889c0.61066,1.63599 1.12607,2.30777 1.5,3.04166c0.32294,0.63385 0.69998,1.64233 1,2.45834c0.29999,0.81601 0.67844,1.83191 1.0625,2.54166c0.29007,0.53601 0.93344,1.46133 1.49081,2.21301c0.30695,0.41397 0.96997,1.28516 1.30667,1.74133c0.67831,0.91901 1.31824,1.83005 1.86932,2.71732c0.26187,0.42163 0.72858,1.24527 1.16168,2.02502c0.6084,1.09534 1.00037,1.77823 1.39832,2.40433c0.36801,0.57898 1.07578,1.50018 1.56403,2.18533c0.60184,0.84454 0.19061,1.94916 0.86832,2.55051c0.71268,0.63235 1.60367,0.12149 2.61166,0.12149c0.86218,0 1.76666,0 2.66669,0c0.89999,0 1.80655,0.10703 2.69998,-0.00134c0.9198,-0.11157 1.43973,-0.77188 2.10449,-1.29416c0.79907,-0.62778 1.92899,-0.31964 2.52484,-0.98984c0.55307,-0.62204 0.17068,-1.71466 0.17068,-2.51465c0,-0.90002 0.01276,-1.89188 -0.56934,-2.68268c-0.39783,-0.54047 -1.36554,-1.02505 -1.98401,-1.53201c-0.68018,-0.55753 -1.20834,-0.98306 -2.09933,-0.98532c-0.86334,-0.00217 -1.86206,0.03207 -2.66901,-0.22134c-0.73657,-0.23132 -1.84122,-0.64352 -2.6265,-0.7215c-0.78799,-0.07825 -1.72992,-0.17215 -2.6665,-0.02115c-0.89484,0.14426 -1.65054,0.58566 -2.38531,1.29733c-0.64282,0.62262 -1.00586,1.13818 -1.42935,1.89865c-0.51636,0.92719 -0.57065,1.93466 -0.57065,2.76801c0,0.83334 0,1.6955 0,2.60001c0,0.89999 -0.00909,1.82135 0,2.73334c0.00674,0.67657 -0.05774,1.53 0.5,2.5c0.45694,0.79471 1.0864,1.17374 1.72781,1.56216c1.07776,0.65268 1.93655,1.00522 2.3685,1.19998c0.86014,0.38782 1.7001,0.71423 2.737,1.23785c0.75497,0.38126 1.53143,0.93835 2.32385,1.11398c0.9314,0.20642 1.73825,0.34531 2.50684,0.62735c0.95212,0.3494 1.76266,0.37943 2.82132,0.20398c0.7272,-0.12051 1.51407,-0.28189 2.30399,-0.42599c1.04324,-0.19031 2.09598,-0.15451 2.81067,-0.7955c0.52328,-0.46933 0.97318,-1.55865 1.5,-2.14648c0.57077,-0.63687 1.31204,-1.39801 1.39551,-2.16785c0.09656,-0.89029 0.09305,-1.7645 -0.00616,-2.61749c-0.11206,-0.96335 -0.45248,-1.66125 -0.98932,-2.45868c-0.47244,-0.70178 -1.16666,-1.33334 -1.82535,-1.992c-0.522,-0.52197 -1.29199,-1.29199 -1.836,-1.836c-0.672,-0.672 -1.33893,-1.34479 -1.83865,-1.81781c-0.48978,-0.46359 -1.68515,-1.05038 -2.33334,-1.6875c-0.57825,-0.56836 -1.32013,-0.65198 -2.16666,-1c-0.67108,-0.27591 -1.53595,-0.78464 -2.32135,-1.05469c-0.87341,-0.30029 -1.65088,-0.71356 -2.43134,-0.77417c-0.89731,-0.06967 -1.76334,-0.00449 -2.7265,-0.00449c-0.92084,0 -1.82083,0 -2.72083,0l-0.89984,0.00015l-0.81482,0.28519" id="svg_13" stroke-width="2" stroke="#000" fill="none"/>
 </g>
 <g display="none">
  <title>muse_image</title>
  <image xlink:href="http://farm3.static.flickr.com/2176/2165867961_d2caac80fd.jpg" id="muse" height="480" width="640" y="0" x="0"/>
 </g>
 <g display="none">
  <title>bbox</title>
  <rect stroke="#f00" fill="none" stroke-width="3" height="96" width="289.28" y="184.32" x="185.6" id="bbox"/>
 </g>
</svg>
