<svg width="640" height="480" xmlns="http://www.w3.org/2000/svg" xmlns:svg="http://www.w3.org/2000/svg" xmlns:xlink="http://www.w3.org/1999/xlink">
 <!-- Sketchy ANNOTATION
  ImageNet ID: n02691156_3231
  URL: http://farm4.static.flickr.com/3130/2337923759_f53315f5a0.jpg
  Image Width: 500
  Image Height: 375
  BBox X: 46
  BBox Y: 116
  BBox Width: 413
  BBox Height: 142
  Exposure: 2000ms
  Synset Label: airplane
  Synset ID: n02691156
  Worker Tag: airplane
  Sanity Check: 
   Context
   Saved
   Shading
  Comment: 
   {}
  Worker ID: AIH9VLD92GHFH
  Assignment ID: 3SB5N7Y3O342NP596YS2AQZ2BWV0G5
  HIT ID: 34HEO7RUG6UNQ8EBO9E59GU1LUFARU
  Work Time: 35s
  Worker Score: 0.6500
 END ANNOTATION -->
 <g display="inline">
  <title>Layer 1</title>
  <path t="0,219,220,220,220,220,237,237,237,237,237,252,253,253,253,253,253,253,270,270,270,270,270,270,270,270,287,287,287,287,287,287,287,303,303,303,303,303,303,303,321,321,321,321,321,321,321,339,340,340,340,340,340,340,355,355,355,355,355,355,372,372,372,372,372,372,372,372,389,389,389,389,389,389,406,407,407,407,407,424,424,424,424,424,441,441,441,441,441,441,457,457,457,457,457,457,457,474,474,474,474,474,474,491,491,491,491,491,491,508,508,508,508,508,508,508,524,524,524,524,524,525,525,525,541,541,541,541,541,541,541,558,558,559,559,559,559,559,559,576,576,576,576,576,576,576,593,593,593,593,593,593,593,610,610,610,610,610,610,610,610,626,626,626,626,626,627,627,627,643,643,643,643,643,643,643,644,661,661,661,662,662,662,662,678,679,679,679,679,679,694,694,695,695,695,695,695,711,711,711,711,711,711,711,712,728,728,728,728,728,728,728,728,745,746,746,746,746,746,746,746,746,762,762,762,762,763,763,763,763,779,779,779,779,779,779,779,779,779,796,796,796,796,797,797,797,797,814,814,814,814,814,814,815,815,815,830,830,830,830,830,830,830,830,830,847,847,847,847,847,847,865,865,865,865,865,865,865,881,881,881,881,881,898,898,899,899,916,916,916,916,917,941,941,942,942,942,954,954,954,954,954,955,972,972,972,972,987,987,987,988,988,1004,1004,1004,1004,1024,1024,1024,1024,1039,1039,1039,1039,1039,1055,1055,1055,1055,1055,1072,1072,1072,1072,1088,1088,1088,1088,1088,1106,1106,1106,1106,1106,1121,1122,1122,1141,1141,1141,1141,1157,1157,1158,1158,1172,1173,1188,1188,1188,1206,1206,1206,1221,1221,1221,1239,1239,1258,1259,1273,1273,1273,1289,1289,1305,1305,1306,1323,1323,1340,1340,1358,1374,1374,1374,1391,1391,1391,1408,1408,1425,1425,1442,1443,1460,1460,1460,1476,1477,1493,1493" d="m109,249c2.624,0 3.07684,0 4.0625,0c0.51884,0 1.5735,0 2.60416,0c0.96667,0 1.89333,0 2.82,0c0.47584,0 2.01334,0.00093 2.57767,-0.00017c1.20267,-0.00235 1.83305,-0.00812 2.47733,-0.02066c0.65439,-0.01274 1.31647,-0.00752 3.29167,-0.14584c0.64606,-0.04524 1.28297,-0.11456 1.91399,-0.18599c1.2533,-0.14186 1.87776,-0.2242 2.50534,-0.29468c0.63109,-0.07088 2.56854,-0.23364 3.23132,-0.26999c0.66855,-0.03667 1.3416,-0.06349 2.01601,-0.1035c1.3479,-0.07997 2.01996,-0.11935 3.33333,-0.3125c0.64728,-0.0952 1.90625,-0.37152 2.52,-0.528c0.60628,-0.15457 1.19937,-0.32619 2.36,-0.65601c1.1194,-0.3181 2.20451,-0.60088 2.743,-0.72549c0.53886,-0.12471 1.64046,-0.34949 2.21068,-0.45267c0.58711,-0.10623 2.4968,-0.40485 3.18365,-0.50584c0.7028,-0.10335 1.41512,-0.20648 2.12851,-0.31949c0.70929,-0.11235 1.41718,-0.18491 3.35416,-0.64584c0.58507,-0.13922 1.13286,-0.30693 2.15468,-0.65866c0.49292,-0.16968 1.45325,-0.56285 3.01199,-1.008c0.56015,-0.15996 1.15198,-0.28796 1.7625,-0.4095c1.25569,-0.24998 1.89734,-0.34758 2.53667,-0.45267c0.634,-0.10422 2.45821,-0.40248 3.03017,-0.5045c1.09937,-0.19609 1.62936,-0.2981 2.66167,-0.5c0.50652,-0.09908 2.00891,-0.39966 2.50768,-0.5c0.9908,-0.19931 1.96567,-0.39842 2.44417,-0.5c1.39148,-0.29539 2.27388,-0.4984 2.7045,-0.60451c0.85413,-0.21048 1.71059,-0.43613 3.01933,-0.86217c0.45691,-0.14874 1.39175,-0.49121 2.375,-0.8125c0.50339,-0.16449 1.53908,-0.48041 2.625,-0.6875c0.55205,-0.10527 1.68556,-0.22878 2.25867,-0.27199c1.14857,-0.08659 1.72243,-0.10306 2.29066,-0.14401c1.66412,-0.11993 2.20145,-0.19276 3.25867,-0.35333c0.52611,-0.07991 1.578,-0.26845 2.10933,-0.36533c1.63751,-0.29855 2.20119,-0.39951 2.77316,-0.49867c1.16338,-0.20171 1.75345,-0.30038 2.34734,-0.39999c1.79532,-0.30113 2.39536,-0.40181 2.99684,-0.49867c1.20869,-0.19463 1.81879,-0.28574 2.43466,-0.36533c1.248,-0.16129 2.5304,-0.27354 3.18533,-0.31467c0.6624,-0.0416 1.33128,-0.0697 2.67867,-0.12134c0.67465,-0.02585 1.34761,-0.04738 2.01601,-0.084c1.31793,-0.07222 2.60042,-0.19763 3.23132,-0.27316c0.62779,-0.07515 1.25328,-0.15953 2.50534,-0.34734c0.63165,-0.09474 1.91402,-0.29535 2.56866,-0.39568c1.33138,-0.20403 2.00439,-0.30804 2.67867,-0.42065c0.67508,-0.11273 1.34929,-0.22658 2.01601,-0.3645c1.96866,-0.40726 2.59941,-0.5959 3.22682,-0.76733c0.62192,-0.16994 1.8461,-0.52347 2.45267,-0.69467c0.60275,-0.17012 1.80154,-0.49893 3.00717,-0.76733c0.60492,-0.13467 1.21707,-0.25839 2.46933,-0.47467c0.64156,-0.11081 1.29799,-0.21402 2.66133,-0.41066c0.70915,-0.10228 1.43573,-0.20082 2.1765,-0.2955c0.75124,-0.09601 1.51048,-0.18843 2.27551,-0.26849c1.53102,-0.16022 3.04778,-0.27307 3.793,-0.31467c0.7348,-0.04102 1.45996,-0.06949 2.17499,-0.09601c0.70497,-0.02614 1.40027,-0.04477 2.08502,-0.078c1.99591,-0.09685 2.64078,-0.16455 3.27765,-0.23267c0.63181,-0.06758 1.88428,-0.23369 2.50934,-0.32533c0.62759,-0.09201 1.25824,-0.19353 3.19583,-0.48933c0.66135,-0.10097 1.32703,-0.19984 1.9935,-0.29999c0.66452,-0.09985 1.97577,-0.29823 2.616,-0.40001c1.23654,-0.19658 2.40018,-0.39903 2.9595,-0.5c0.54868,-0.09904 1.62442,-0.30054 2.15799,-0.39999c1.61819,-0.30162 2.17374,-0.39896 3.31351,-0.60451c0.58511,-0.10553 1.1813,-0.20969 2.39999,-0.45267c0.6257,-0.12476 1.90564,-0.40677 2.55984,-0.56416c0.66449,-0.15988 1.33542,-0.33229 2.69934,-0.67867c0.6897,-0.17516 1.38248,-0.35236 2.08047,-0.51601c1.39636,-0.32738 2.09827,-0.46573 2.80002,-0.59999c0.70258,-0.13441 2.1196,-0.38354 2.83466,-0.50934c0.72125,-0.12688 1.45129,-0.24861 2.93066,-0.54134c0.75571,-0.14954 1.51767,-0.31584 2.28601,-0.48599c0.77301,-0.17119 1.54718,-0.34808 2.32199,-0.522c0.77252,-0.1734 1.53918,-0.35181 3.05869,-0.65866c0.74432,-0.15031 1.48215,-0.28441 2.21399,-0.4095c0.72681,-0.12422 1.45221,-0.23932 2.17801,-0.34651c1.45776,-0.2153 2.94125,-0.41118 3.69598,-0.51067c0.7626,-0.10052 1.53131,-0.20012 2.30402,-0.29999c0.77463,-0.10013 1.54935,-0.19975 2.32199,-0.3c0.76871,-0.09975 2.28607,-0.29948 3.03134,-0.40001c0.7374,-0.09947 1.46869,-0.19986 2.19598,-0.29999c0.72537,-0.09987 1.45047,-0.2016 2.90933,-0.40001c1.48245,-0.20161 2.23746,-0.30051 3.00134,-0.39999c0.77176,-0.10051 1.55063,-0.2003 2.33551,-0.3c0.78979,-0.10031 1.58362,-0.20015 2.38049,-0.3c1.59863,-0.20032 2.39807,-0.30046 3.19467,-0.39867c0.79044,-0.09744 1.57181,-0.19231 2.34149,-0.2805c0.7543,-0.08644 1.49054,-0.16823 2.20651,-0.23549c1.35519,-0.1273 2.60117,-0.20317 3.189,-0.22818c0.56955,-0.02423 1.67096,-0.04883 2.21066,-0.05266c1.62296,-0.01152 2.1777,-0.00075 3.30899,-0.009c0.57269,-0.00418 1.14771,-0.00609 2.29468,-0.05266c0.56888,-0.0231 2.23148,-0.15898 2.76465,-0.22684c1.03198,-0.13133 1.52469,-0.22128 2.46918,-0.36334c1.28442,-0.19318 2.04935,-0.27063 2.75751,-0.32733c1.00928,-0.08081 2.02933,-0.18396 2.74799,-0.30933c0.76154,-0.13284 1.55701,-0.30978 2.39999,-0.43201c1.33081,-0.19295 2.27045,-0.23254 2.74936,-0.25867c0.97455,-0.05315 1.96689,-0.09219 2.96399,-0.192c1.00052,-0.10016 1.49573,-0.18449 2.47916,-0.33333c0.9639,-0.14587 1.43259,-0.24292 2.79935,-0.37866c0.86279,-0.08569 1.70154,-0.10913 2.517,-0.17401c1.20605,-0.09596 2.00674,-0.22116 2.8045,-0.38333c0.80243,-0.16312 1.59985,-0.36589 2.79984,-0.66383c0.39877,-0.09901 1.18427,-0.31458 2.34299,-0.543c1.08612,-0.21411 1.77225,-0.28586 2.43182,-0.32117c0.97714,-0.05231 1.99203,-0.03224 2.71201,-0.03732c0.76004,-0.00537 1.56125,-0.01666 2.39999,-0.084c1.33713,-0.10735 2.26172,-0.26601 2.72803,-0.34001c0.92441,-0.1467 1.81265,-0.31808 3.04266,-0.45316c0.73572,-0.0808 1.44254,-0.10982 2.51065,-0.12018c1.17477,-0.01138 2.04184,-0.00133 2.49335,-0.00133c0.92398,0 1.85599,0 2.772,0c0.88,0 1.72,0 2.51999,0c0.76001,0 2.16266,0 2.82132,0c0.97803,0 1.992,0 2.70935,0c0.74133,0 1.86334,0 2.94934,0c0.67999,0 1.625,0 2.47998,0c1.00134,0 1.66586,-0.00671 2.68668,0c0.81073,0.00534 1.69452,0.04393 2.68399,0.28534c0.8251,0.20131 1.64108,0.49399 2.63068,0.91466c0.67096,0.28522 1.27194,0.62514 2.28534,1.0955c0.79108,0.36719 1.60092,0.57732 2.39999,0.7045c1.00119,0.15935 1.80667,0.42168 2.60001,0.80133c0.80573,0.38559 1.63855,0.75475 2.37866,1.52c0.44559,0.46074 0.84317,1.26665 1.67401,1.92149c0.65118,0.51323 1.48434,0.93259 2.146,1.55717c0.6232,0.58829 1.19971,1.36766 1.612,2.036c0.47284,0.76648 1.06177,1.57317 1.58932,2.14317c0.50513,0.54576 1.28726,1.23193 1.79868,1.90483c0.55679,0.7326 0.87454,1.55281 1.68665,2.23067c0.6655,0.55547 1.51468,0.88533 2.31467,1.28532c0.60001,0.3 1.59869,0.8 2.36401,1.20001l0.81448,0.49983l0.61084,0.46416" id="svg_1" stroke-width="2" stroke="#000" fill="none"/>
  <path t="1741,1909,1909,1926,1926,1943,1943,1943,1943,1943,1961,1961,1961,1961,1961,1977,1977,1977,1977,1994,1994,1994,1994,1994,1994,2011,2011,2011,2011,2011,2029,2030,2030,2030,2030,2046,2046,2046,2046,2046,2047,2063,2063,2063,2063,2063,2080,2080,2080,2097,2097,2115,2115,2131,2131,2149,2149,2166,2166,2182,2182,2200,2200,2200,2217,2235,2235,2235,2251,2252,2268,2268,2289,2289,2289,2307,2324,2324,2340,2340,2356,2356,2374,2375,2393,2393,2411,2424,2441,2441,2458,2475,2492,2509,2529,2529,2553,2553,2601,2633,2665,2682,2699,2699,2716,2716,2716,2732,2732,2732,2750,2750,2750,2766,2766,2766,2783,2783,2784,2784,2800,2801,2801,2801,2818,2818,2818,2835,2835,2836,2851,2852,2869,2869,2869,2885,2885,2902,2902,2902,2919,2919,2919,2936,2936,2936,2960,2960,2960,2975,2975,2992,2992,3011,3011,3012,3025,3025,3043,3043,3043,3059,3059,3059,3079,3080,3080,3093,3093,3093,3109,3109,3109,3109,3125,3125,3125,3146,3146,3159,3159,3159,3176,3176,3195,3195,3210,3210,3210,3226,3226,3226,3243,3244,3261,3261,3278,3278,3297,3297,3297,3313,3313,3313,3330,3330,3347,3347,3365,3365,3382,3382,3398,3398,3415,3432,3432,3449,3449,3467,3485,3485,3501,3501,3518,3518,3534,3552,3552,3568,3585,3603,3603,3629,3727,3744,3761,3777,3794,3812,3812,3829,3830,3830,3847,3865,3865,3865,3899,3899,3916,3933,3933,3952,3952,3968,3984,3985,4006,4028,4044,4060,4079,4097,4097,4112,4129,4129,4144,4144,4163,4164,4179,4179,4196,4196,4216,4216,4216,4228,4228,4246,4246,4263,4263,4279,4279,4297,4314,4314,4331,4349,4349,4365,4382,4382,4382,4399,4399,4399,4399,4416,4416,4416,4433,4433,4433,4433,4451,4451,4451,4469,4469,4469,4469,4485,4485,4485,4485,4485,4502,4503,4503,4503,4503,4519,4520,4520,4520,4520,4520,4536,4537,4537,4537,4537,4537,4537,4553,4553,4553,4553,4554,4554,4570,4570,4570,4570,4571,4571,4571,4588,4588,4588,4588,4588,4606,4606,4606,4606,4607,4607,4607,4607,4623,4623,4623,4623,4623,4623,4624,4624,4640,4640,4640,4640,4640,4640,4640,4662,4662,4662,4662,4662,4662,4662,4663,4663,4680,4680,4680,4680,4680,4680,4680,4680" d="m457,228c1.836,0 2.60132,0 3.61349,0c0.69452,0 1.88651,0 2.64117,0c0.84265,0 1.74133,0 2.20166,0c1.37701,0 2.25833,0 3.10767,0c0.82535,0 1.63467,0 2.83618,0c0.80432,0 1.62067,0 2.457,0c1.30948,0 1.76431,0 2.69998,0c0.96368,0 1.45352,0 2.44418,0c1.4985,0 1.99731,0 2.98798,0c0.48984,0 1.45352,0 2.84402,0c0.884,0 1.31848,0 2.1875,0c0.88898,0 2.3125,0 2.82184,0c1.06265,0 1.60797,0 2.70667,0c0.54532,0 2.11731,0 2.60733,0c0.91998,0 1.75998,0 2.51999,0c1.28033,0 2.05133,-0.00195 2.92065,0c1.00269,0.00226 1.82681,-0.03038 2.80136,0.28534c0.79111,0.25629 1.6022,0.78848 2.19064,1.31467c0.63889,0.57132 1.36972,1.16812 2.17868,1.31599c0.72479,0.13249 1.93173,0.17957 2.57065,0.52c0.88416,0.47112 1.5043,0.93504 2.17734,1.364c0.88336,0.56302 1.66003,1.18541 2.30933,1.61066c0.70111,0.45915 1.39972,1.2589 1.79999,1.76401c0.66052,0.83345 1.44586,1.245 2.20801,1.992c0.45178,0.44284 0.83667,1.17082 1.14136,2.20799c0.27576,0.93866 0.49023,1.66008 1.02533,2.45866c0.45465,0.67854 1.29968,1.30055 1.64282,1.92384c0.45685,0.82986 0.43018,1.84087 1.0625,2.48566c0.52032,0.53058 1.20923,1.29065 1.64734,2.05717c0.42133,0.73721 0.64667,1.5 0.64734,2.39999c0.00067,0.90001 -0.02582,1.82085 0.35266,2.60451c0.42926,0.88887 0.6369,1.6953 0.64734,2.52884c0.01099,0.87994 0,1.77731 0,2.66666c0,0.89999 0.18335,1.93973 -0.44318,2.59982c-0.49994,0.52676 -1.72095,0.75296 -2.50946,0.8475c-0.81982,0.0983 -1.8924,0.18015 -2.59021,0.40985c-0.65961,0.2171 -1.65326,0.75134 -2.26782,1.04282c-0.86902,0.41214 -1.87018,0.81232 -2.42535,0.98935c-0.86194,0.27484 -2.06403,0.49048 -2.66846,0.5625c-0.93134,0.11099 -1.59399,0.17184 -2.6167,0.49081c-0.73792,0.23016 -1.45181,0.57266 -2.16898,0.85202c-1.25677,0.48956 -2.05057,0.63141 -2.75803,0.75348c-1.23981,0.2139 -1.77255,0.39493 -2.59915,0.59918c-1.02594,0.25351 -1.94876,0.27014 -2.95267,0.51932c-0.81924,0.20334 -1.4071,0.52377 -2.39999,1.03467c-0.60446,0.31104 -1.59708,0.96902 -2.2045,1.44684c-0.62848,0.49435 -1.54959,1.0687 -2.34818,1.242c-0.81247,0.1763 -1.89236,0.2373 -2.59018,0.46701c-0.65958,0.21713 -1.64828,0.76181 -2.25714,1.03217c-0.78931,0.35049 -1.80612,0.51907 -2.60001,0.66333c-1.01016,0.18356 -1.80212,0.55371 -2.60001,0.94733c-0.80212,0.39569 -1.39999,0.70001 -2.39999,1.20001c-0.80002,0.39999 -1.59528,0.80969 -2.41068,1.19998c-0.64285,0.30771 -1.60959,0.70288 -2.41467,1c-0.82092,0.30295 -1.61099,0.59305 -2.54932,1c-0.68021,0.29498 -1.6442,0.70734 -2.46133,1c-0.57285,0.20517 -1.76462,0.59824 -2.36267,0.80002c-0.88138,0.29736 -1.72495,0.57831 -2.716,1c-0.67087,0.28546 -1.28415,0.5997 -2.28534,1.09998c-0.80011,0.39981 -1.60001,0.80002 -2.39999,1.20001c-0.60001,0.29999 -1.58017,0.84531 -2.39999,1.14282c-0.78403,0.28455 -1.61795,0.27213 -2.60001,0.52383c-0.82104,0.21045 -1.62103,0.69281 -2.39999,1.31735c-0.6174,0.49503 -1.16553,1.08112 -1.99869,1.62933c-0.73746,0.48526 -1.59348,0.71292 -2.48532,0.97067c-0.78775,0.22766 -1.51199,0.63806 -2.51733,1.11465c-0.6145,0.29132 -1.27521,0.57043 -2.55133,0.74866c-0.54459,0.07605 -1.39114,0.03326 -2.58566,0.40985c-0.6344,0.20001 -1.52219,0.93411 -2.21432,1.28564c-0.84845,0.43091 -1.68567,0.34824 -2.49469,1.0625c-0.58197,0.51379 -1.24619,1.09058 -2.09998,1.34283c-0.9071,0.26801 -1.64001,0.86389 -2.40985,0.94736c-0.89029,0.09653 -1.75882,0.00439 -2.74283,0.00449c-0.8215,0.00009 -1.72839,-0.04156 -2.69983,0.22134c-0.79892,0.21622 -1.62204,0.68518 -2.3895,0.76797c-0.92621,0.09991 -1.89468,0.01068 -2.58533,0.01068c-1.06818,0 -1.97961,-0.18329 -2.82535,0.16666c-0.78464,0.32468 -1.49982,0.82291 -2.39999,0.83334c-0.89993,0.01041 -1.89737,-0.15866 -2.54733,0.35266c-0.62689,0.49316 -1.38199,0.85123 -2.07352,1.16818c-0.99097,0.45419 -1.55063,0.83191 -2.49384,1.19382c-0.84174,0.32297 -1.67392,0.59232 -2.29999,1.13602c-0.6395,0.55536 -1.35199,1.31598 -1.88983,1.85382c-0.6955,0.6955 -1.32846,1.48676 -1.93149,1.8595c-0.78101,0.48276 -1.75418,0.3826 -2.60684,0.78867c-0.80972,0.38562 -1.55734,0.62866 -2.45718,0.64734c-0.90051,0.01868 -1.61032,0.61804 -2.5,0.91467c-0.85764,0.28595 -1.77121,0.29791 -2.39999,0.66c-0.77933,0.44876 -1.73013,0.33389 -2.57465,0.46133c-0.96255,0.14526 -1.54865,0.72424 -2.48251,0.90683c-0.73529,0.14374 -1.74283,0.0571 -2.54285,0.05716c-1.00015,0.00009 -1.83026,-0.04025 -2.96664,0.16666c-0.79034,0.14392 -1.56085,0.45203 -2.5,0.66669c-0.80472,0.18393 -1.65979,0.10248 -2.54401,0.20267c-1,0.11331 -1.80066,0.43155 -2.62268,0.96399c-0.67496,0.43716 -1.36365,0.95728 -2.26682,1c-0.7843,0.03708 -1.7634,-0.14935 -2.73318,0.16666c-0.69101,0.22516 -1.47446,0.80475 -2.5,0.83334c-0.68073,0.01898 -1.48798,0 -2.66666,0c-0.60001,0 -1.5,0 -2.39999,0c-0.89999,0 -1.80002,0 -2.70001,0c-0.89999,0 -1.79999,0 -2.69998,0c-0.60001,0 -1.80133,0 -2.72086,0c-0.63632,0 -2.00067,0 -2.73633,0c-0.76367,0 -1.54733,0 -2.74283,0c-0.80133,0 -1.61066,0 -2.436,0c-0.84933,0 -1.73065,0 -2.64932,0c-0.95068,0 -1.43552,0 -2.41916,0c-1.49551,0 -1.99567,0 -3,0c-0.5062,0 -1.53152,0 -2.05267,0c-1.6095,0 -2.16434,0 -3.30002,0c-0.57883,0 -1.75348,0 -2.34732,0c-0.59683,0 -2.39551,0 -2.99551,0c-0.59998,0 -1.79999,0 -2.39999,0c-0.60001,0 -2.39999,0.00052 -2.99966,-0.00015c-0.59766,-0.00067 -1.77905,-0.0079 -2.35867,-0.02069c-0.56973,-0.01257 -1.67303,-0.04172 -2.70831,-0.14581c-0.96906,-0.09744 -1.89407,-0.26544 -2.82001,-0.444c-0.47623,-0.09183 -2.01294,-0.39157 -2.57785,-0.48935c-0.59109,-0.10233 -1.84332,-0.30109 -2.49799,-0.39999c-0.66931,-0.10114 -1.35095,-0.20053 -2.0415,-0.29999c-1.39584,-0.20105 -2.79492,-0.39966 -3.49149,-0.50452c-0.69409,-0.10449 -1.38425,-0.21289 -2.06851,-0.33148c-0.67944,-0.11777 -1.3577,-0.2189 -3.31482,-0.68533c-0.64096,-0.15274 -1.2731,-0.33099 -1.90652,-0.50403c-1.27618,-0.3486 -1.9227,-0.52917 -2.58398,-0.69064c-1.36047,-0.33221 -2.07275,-0.46677 -2.80002,-0.60001c-0.73972,-0.13553 -1.49191,-0.25906 -2.2515,-0.384c-0.76443,-0.12573 -1.53195,-0.24716 -2.29648,-0.384c-1.51801,-0.27173 -2.26517,-0.42084 -3.72552,-0.77765c-0.72324,-0.17673 -1.43631,-0.38 -2.14648,-0.58502l-0.70618,-0.215l-0.70316,-0.22501" id="svg_2" stroke-width="2" stroke="#000" fill="none"/>
  <path t="4881,5006,5006,5006,5023,5023,5023,5040,5040,5040,5040,5057,5057,5057,5057,5074,5074,5074,5074,5074,5074,5074,5091,5091,5091,5091,5091,5091,5091,5091,5091,5116,5116,5116,5116,5116,5116,5116,5116,5130,5130,5130,5130,5130,5130,5130,5147,5147,5147,5147,5147,5147,5147,5163,5163,5163,5163,5163,5163,5180,5180,5180,5180,5180,5180,5197,5197,5197,5197,5197,5197,5215,5215,5215,5215,5215,5230,5230,5230,5230,5230,5246,5246,5246,5246,5246,5266,5266,5266,5266,5266,5266,5283,5283,5283,5283,5283,5296,5296,5296,5296,5296,5296,5296,5314,5314,5314,5314,5314,5331,5331,5331,5331,5331,5348,5348,5348,5348,5348,5348,5348,5365,5365,5365,5365,5365,5365,5383,5383,5383,5383,5383,5383,5400,5400,5400,5400,5400,5400,5400,5417,5418,5418,5418,5418,5418,5418,5433,5434,5434,5434,5434,5435,5435,5451,5451,5451,5451,5451,5451,5451,5468,5468,5468,5468,5468,5485,5485,5485,5485,5485,5502,5502,5502,5502" d="m270,304c-3.60001,0 -4.5,0 -5.10001,0c-1.19998,0 -2.10001,0 -2.69998,0c-1.20001,0 -2.10452,0 -2.72086,0c-0.96448,0 -2.00098,0 -2.74533,0c-0.79633,0 -1.65266,0 -3.06715,0c-0.51018,0 -1.5945,0 -2.17067,0c-0.60017,0 -1.8765,0 -2.55467,0c-1.44133,0 -2.20549,0 -2.99466,0c-0.80917,0 -1.63333,0 -2.4675,0c-0.83917,0 -1.67834,0 -2.51251,0c-1.63333,0 -2.42349,0 -3.19466,0c-0.75317,0 -1.48933,0 -2.2095,0c-0.70517,0 -1.39633,0 -3.39583,0c-0.64517,0 -1.28134,0 -1.9095,0c-1.23634,0 -1.84651,0 -2.45267,0c-1.8045,0 -2.40434,0.00159 -3.00317,-0.00134c-1.19067,-0.00586 -1.78065,-0.01456 -2.36533,-0.03467c-1.15105,-0.03958 -2.27063,-0.1192 -3.35068,-0.24799c-0.52887,-0.06308 -1.56427,-0.21759 -2.07466,-0.29068c-1.0089,-0.14447 -2.00949,-0.27481 -3.01199,-0.34c-1.00841,-0.06558 -1.51944,-0.06958 -2.55583,-0.08084c-0.52815,-0.00574 -2.164,-0.00449 -2.72551,-0.00449c-0.56549,0 -1.6965,0 -2.256,0c-1.092,0 -2.12801,0 -3.09067,0c-0.89867,0 -1.74933,0 -2.56799,0c-1.20284,0 -2.00717,0 -2.8235,0c-0.83633,0 -1.26451,0 -2.60068,0c-0.93565,0 -1.89932,0 -2.38916,0c-0.99066,0 -1.98933,0 -2.98933,0c-1,0 -1.5,0 -2.5,0c-0.5,0 -2.00017,0 -3.0045,0c-0.50616,0 -1.53149,0 -2.05266,0c-1.60951,0 -2.164,0 -3.291,0c-0.56651,0 -1.13101,0 -2.242,0c-0.5405,0 -2.067,0 -3,0c-0.88901,0 -1.32451,0 -2.1925,0c-1.339,0 -2.27899,0 -2.76399,0c-1,0 -1.515,0 -3.12001,0c-0.55466,0 -1.68599,0 -2.25867,0c-1.14932,0 -1.722,0 -2.29066,0c-1.66266,0 -2.2,0 -3.25867,0c-0.52533,0 -1.578,0 -2.10933,0c-1.6375,0 -2.20134,0 -3.35201,0c-0.58482,0 -1.17467,0 -2.36533,0c-1.19867,0 -1.79868,0 -2.99867,0c-0.59999,0 -1.2,0 -2.39999,0c-0.60001,0 -1.8,0 -3,0c-0.60001,0 -1.2,0 -2.40001,0c-0.59999,0 -1.2,0 -3.00017,0c-0.60117,0 -1.20433,0 -2.42065,0c-0.61517,0 -1.23634,0 -1.8645,0c-1.93567,0 -2.59601,0 -3.25833,0c-0.66034,0 -1.95901,0 -2.58934,0c-0.61234,0 -2.30267,0.00174 -2.81233,-0.00134c-0.95737,-0.0058 -1.85968,-0.01913 -2.736,-0.08398c-0.88663,-0.06561 -1.80197,-0.19452 -2.73333,-0.34c-0.46483,-0.0726 -1.3755,-0.22202 -2.652,-0.40802l-0.76,-0.08133l-0.99,-0.06448l-0.81001,-0.0195" id="svg_3" stroke-width="2" stroke="#000" fill="none"/>
  <path t="5672,5795,5795,5795,5816,5816,5832,5832,5832,5832,5849,5849,5849,5849,5849,5849,5865,5865,5865,5865,5865,5882,5882,5882,5882,5882,5882,5882,5898,5898,5898,5898,5898,5898,5918,5918,5918,5919,5919,5931,5931,5931,5931,5949,5949,5949,5949,5966,5966,5966,5982,5982,5982,5982,5999,5999,5999,6016,6016,6016,6033,6050,6074,6099,6127,6199,6223,6240,6257,6274,6274,6292,6292,6292,6309,6309,6309,6328,6343,6383,6432,6432,6453,6453,6453,6453,6466,6466,6466,6466,6482,6482,6482,6482,6482,6482,6499,6499,6499,6499,6499,6499,6499,6500,6516,6516,6516,6516,6517,6517,6517,6517,6517,6533,6533,6533,6533,6533,6533,6533,6533,6533,6550,6550,6550,6550,6550,6550,6550,6550,6550,6567,6567,6567,6567,6567,6567,6567,6568,6583,6583,6584,6584,6584,6600,6600" d="m111,302c-1.41517,-0.00449 -2.02689,0.03867 -2.94933,-0.08533c-1.00812,-0.13553 -1.83232,-0.6575 -2.59417,-1.01483c-0.74371,-0.34882 -1.38495,-0.53842 -2.11517,-0.78519c-1.30393,-0.44061 -1.79414,-0.60025 -2.828,-0.94c-0.53391,-0.17548 -1.61158,-0.5249 -2.14667,-0.69064c-1.52143,-0.47122 -2.00042,-0.59543 -2.916,-0.86935c-0.9031,-0.27017 -1.36626,-0.39734 -2.784,-0.948c-0.5134,-0.1994 -1.57587,-0.66891 -2.128,-0.90665c-0.55888,-0.24063 -1.68568,-0.71103 -2.256,-0.90668c-1.10727,-0.37982 -2.19553,-0.61035 -2.7255,-0.68634c-1.03331,-0.14816 -1.54718,-0.1626 -2.55583,-0.24832c-1.50211,-0.12766 -2.001,-0.18951 -2.98,-0.35468c-0.95181,-0.16058 -1.41128,-0.25052 -2.688,-0.564c-0.76539,-0.18793 -1.45364,-0.42062 -2.42434,-0.64282c-1.20074,-0.27484 -1.80944,-0.29953 -2.709,-0.38251c-0.60031,-0.05536 -1.80502,-0.24158 -2.7,-0.49551c-0.60365,-0.1713 -1.80001,-0.57916 -2.4,-0.77914c-0.90001,-0.29999 -1.50087,-0.49741 -2.69866,-0.90002c-0.59111,-0.1987 -1.4544,-0.47446 -2.47967,-0.89999c-0.68223,-0.28317 -1.42252,-0.71841 -2.28566,-1.28934c-0.82315,-0.54446 -1.59329,-0.89301 -1.636,-1.81067c-0.04184,-0.89883 0,-1.77466 0,-2.60132c0,-0.89868 0.03673,-1.85959 -0.28667,-2.68399c-0.29572,-0.75385 -0.85572,-1.53555 -1.3705,-2.11017c-0.52944,-0.59097 -1.31265,-1.28687 -2.13217,-1.75784c-0.70208,-0.4035 -1.62576,-0.69281 -2.236,-1.22134c-0.64868,-0.56183 -0.81917,-1.29874 -0.09867,-1.478c0.87748,-0.21832 1.82249,-0.37878 2.52,-0.55798c0.72389,-0.18597 1.78638,-0.47821 2.78933,-0.80002c0.67849,-0.21771 1.38581,-0.46982 2.558,-0.91083c0.43068,-0.16205 1.34854,-0.51843 2.35,-0.88916c0.52924,-0.19592 1.0757,-0.4035 2.85016,-0.98984c0.62968,-0.20807 1.28494,-0.41113 1.9605,-0.6315c0.70079,-0.22858 1.42708,-0.4711 2.1765,-0.7395c0.78002,-0.27936 2.42177,-0.92316 3.28384,-1.29251c0.89272,-0.38248 1.80261,-0.7941 2.733,-1.21198c0.94427,-0.42413 1.89632,-0.85345 2.859,-1.26602c0.96001,-0.41141 2.87344,-1.16815 3.8215,-1.4935c0.92813,-0.31851 1.84541,-0.59845 2.7435,-0.85648c0.87299,-0.25082 1.7239,-0.47638 2.5455,-0.69452c0.79041,-0.20987 2.26797,-0.60855 2.94733,-0.81351c0.64727,-0.19528 1.26274,-0.39685 1.8525,-0.59998c0.57189,-0.19696 1.12697,-0.3992 1.6725,-0.60001c0.54114,-0.19919 1.62695,-0.60153 2.182,-0.79984c0.56095,-0.20041 1.12649,-0.39716 1.6935,-0.58951c0.564,-0.19131 1.12186,-0.38141 2.216,-0.72534c1.03401,-0.32504 1.99394,-0.60129 2.4415,-0.72366c0.82236,-0.22485 1.86916,-0.47501 2.87183,-0.67633l0.852,-0.08398" id="svg_4" stroke-width="2" stroke="#000" fill="none"/>
  <path t="7061,7169,7170,7170,7186,7186,7186,7186,7186,7186,7202,7203,7203,7203,7203,7203,7222,7222,7222,7222,7222,7222,7222,7222,7222,7237,7237,7237,7237,7237,7237,7237,7237,7238,7255,7255,7255,7255,7255,7255,7255,7255,7255,7271,7272,7272,7272,7272,7272,7272,7272,7272,7289,7289,7289,7289,7289,7289,7289,7289,7289,7306,7307,7307,7307,7307,7307,7307,7307,7307,7325,7325,7325,7325,7325,7325,7342,7342,7343,7343,7343,7358,7358,7358,7358,7358,7375,7375,7375,7375,7391,7392,7410,7410,7426,7443,7443,7459,7477,7477,7494,7510,7527,7543,7544,7544,7560,7560,7560,7578,7578,7595,7595,7595,7612,7612,7612,7612,7629,7629,7629,7645,7645,7646,7646,7663,7663,7679,7680,7680,7696,7719,7736,7752,7768,7787,7803,7803,7851,7963,7980,7997,7997,7997,7997,8014,8014,8014,8014,8014,8031,8031,8031,8031,8031,8031,8031,8052,8052,8052,8052,8052,8052,8052,8052,8052,8070,8070,8070,8070,8070,8070,8070,8070,8070,8086,8086,8086,8086,8086,8086,8086,8086,8086,8103,8103,8103,8103,8103,8118,8118,8119,8119,8119,8119,8136,8136,8136,8152,8152,8152,8174,8175" d="m146,239c-1.076,-1.66617 -1.58907,-2.05521 -2.17067,-2.51883c-1.00609,-0.802 -1.71587,-1.44778 -2.082,-1.791c-0.75256,-0.70546 -1.12396,-1.0735 -1.86333,-1.80751c-0.71925,-0.71405 -1.40028,-1.40656 -2.10133,-2.07866c-0.3634,-0.3484 -1.16017,-1.07544 -1.608,-1.45866c-0.99953,-0.85533 -1.58109,-1.31174 -2.20267,-1.804c-0.66103,-0.5235 -1.36302,-1.07022 -2.097,-1.64551c-0.76469,-0.59937 -1.55763,-1.21996 -2.367,-1.8705c-1.68085,-1.351 -2.53054,-2.06638 -3.392,-2.79199c-0.8699,-0.73273 -1.7401,-1.47481 -2.616,-2.21251c-0.87344,-0.73563 -1.74125,-1.46585 -2.616,-2.1675c-1.7056,-1.36809 -2.55847,-1.99393 -3.396,-2.59734c-0.81824,-0.58951 -1.62955,-1.14963 -2.4255,-1.6935c-0.77874,-0.5321 -1.54637,-1.04504 -2.2905,-1.5585c-1.44397,-0.99635 -2.13133,-1.50009 -2.79867,-2.00133c-0.65263,-0.49019 -1.28143,-0.97952 -1.89,-1.461c-0.5914,-0.4679 -1.1598,-0.9276 -1.71,-1.371c-1.03961,-0.83783 -1.52999,-1.22826 -2.00267,-1.60133c-0.456,-0.35991 -0.89939,-0.70709 -1.329,-1.04851c-0.42104,-0.33461 -0.83553,-0.66554 -1.239,-1.00349c-0.80846,-0.67715 -1.20367,-1.0374 -1.60267,-1.39999c-0.401,-0.36441 -0.79874,-0.73338 -1.2,-1.09651c-0.39877,-0.36087 -0.79435,-0.71776 -1.2,-1.0515c-0.78922,-0.64932 -1.19542,-0.93333 -1.60001,-1.2c-0.79125,-0.52151 -1.6013,-0.98178 -2,-1.2175c-1.20397,-0.71182 -2.00063,-1.23296 -2.3955,-1.5045c-0.78762,-0.54163 -1.54362,-1.09984 -2.63783,-1.88066c-0.67904,-0.48456 -1.32944,-0.93248 -1.95599,-1.356c-0.60815,-0.41109 -1.50917,-1.01251 -2.10617,-1.40617c-0.86658,-0.57143 -1.41126,-0.93251 -2.41783,-1.51917c-0.64009,-0.37306 -1.62257,-1.04735 -2.276,-1.44933c-0.77811,-0.47868 -1.732,-0.436 -2.58533,-0.436c-0.94,0 -1.82533,0 -2.62534,0c-0.89999,0 -1.8,0 -2.62133,0c-0.912,0 -1.84,0 -2.6305,0c-1.02666,0 -1.92733,-0.00139 -2.54683,0c-1.00584,0.00226 -1.86674,0.01456 -2.82284,0.2215c-0.82321,0.17818 -1.68344,0.48164 -2.5785,0.7785c-0.90045,0.29865 -1.5,0.5 -2.4,0.8c-0.9,0.3 -1.8,0.59999 -2.4,0.8c-1.2,0.40001 -1.80115,0.5928 -2.67917,0.89999c-0.83792,0.29317 -1.86473,0.6459 -2.47916,1.02083c-0.92836,0.56647 -1.31133,1.37268 -1.84034,1.90984c-0.69576,0.70648 -1.64058,0.97319 -2.11733,1.76801c-0.41442,0.69089 -1.4595,0.53613 -2,1.08667c-0.6095,0.62082 -0.56604,1.65173 -1.13667,2.3575c-0.59108,0.73106 -0.94733,1.31799 -0.94733,2.24333c0,0.8685 -0.0002,1.5925 0,2.4045c0.00034,1.33084 -0.02523,1.79636 0.04267,2.74533c0.06993,0.97743 0.09129,1.49957 0.624,2.964c0.18673,0.51332 0.45478,1.0137 1.06667,2.02133c0.31958,0.52628 0.68743,1.04166 1.38667,2.14934c0.72813,1.15346 1.06464,1.76932 1.396,2.40134c0.33745,0.64365 0.66154,1.30928 0.984,1.99049c0.32826,0.69347 0.65187,1.40404 0.984,2.1255c0.68105,1.47942 1.03606,2.23393 1.4,2.996c0.36738,0.76927 0.74133,1.54132 1.116,2.31599c0.37467,0.77467 0.74949,1.54631 1.116,2.31599c0.72157,1.51532 1.06385,2.26132 1.39733,2.99467c0.32649,0.71799 0.64046,1.42111 0.945,2.106c0.29545,0.66446 0.57804,1.3082 0.855,1.92599c0.75998,1.69525 0.99432,2.20543 1.46133,3.14934c0.22139,0.44746 0.65687,1.30717 1.392,2.508c0.24746,0.40422 0.78237,1.1949 1.3125,1.97917c0.25993,0.38454 0.78918,1.11418 1.37783,2.19916c0.35161,0.64807 0.70823,1.58034 1.143,2.655c0.28669,0.70863 0.64283,1.505 0.91467,2.28801l0.08083,0.86" id="svg_5" stroke-width="2" stroke="#000" fill="none"/>
  <path t="9098,9221,9221,9239,9240,9240,9256,9256,9256,9256,9275,9275,9275,9275,9275,9275,9275,9290,9290,9290,9290,9290,9290,9290,9290,9309,9309,9309,9309,9309,9309,9309,9309,9309,9330,9330,9330,9330,9330,9330,9344,9344,9344,9344,9344,9360,9360,9360,9360,9378,9378,9393,9394,9394,9411,9411,9427,9444,9486,9513,9529,9545,9562,9579,9579,9596,9596,9613,9613,9629,9629,9646,9646,9662,9662,9662,9680,9680,9680,9680,9680,9696,9696,9696,9696,9696,9714,9714,9714,9714,9729,9729,9729,9729,9729,9746,9746,9746,9746,9746,9763,9763,9763,9763,9763,9763,9780,9780,9780,9780,9780,9796,9796,9796,9797,9797,9813,9814,9814,9814,9814,9831,9831,9831,9831,9831,9847,9847,9847,9847,9848,9864,9864,9864,9864,9864,9864,9882,9882,9882,9882,9882,9882,9899,9899,9899,9899,9899,9899,9899,9915,9915,9915,9915,9916,9916,9916,9932,9932,9932,9932,9932,9932,9932,9932,9932,9949,9949,9949,9949,9949,9949,9949,9949,9949,9966,9966,9966,9966,9966,9966,9966,9966,9966,9983,9983,9983,9983,9983,9983,9983,9983,9983,10000,10000,10000,10000,10000,10000,10000,10000,10000,10017,10017,10017,10017,10017,10017,10017,10017,10017,10036,10036,10036,10036,10037,10037,10037,10037,10037,10051,10051,10052,10052,10052,10052,10052,10052,10052,10068,10068,10068,10068,10068,10068,10068,10068,10068,10085,10085,10085,10085,10085,10085,10085,10085,10085,10101,10102,10102,10119,10119,10137,10137,10153,10170,10186,10204,10220,10238,10238,10255,10255,10255,10272,10273,10290,10290,10290,10314,10338,10354,10371,10388,10417,10442,10443,10475,10496,10515,10530,10548,10565,10565,10583,10583,10583,10595,10595,10595,10595,10595,10595,10617,10617,10618,10618,10618,10618,10618,10628,10629,10629,10629,10629,10629,10629,10629,10629,10648,10648,10648,10648,10648,10648,10648,10648,10648,10664,10665,10665,10665,10665,10665,10665,10665,10665,10682,10682,10682,10682,10682,10682,10682,10682,10682,10699,10699,10699,10699,10699,10699,10699,10699,10699,10715,10715,10715,10715,10715,10715,10715,10716,10716,10732,10733,10733,10733,10733,10733,10733,10733,10733,10752,10752,10752,10752,10752,10752,10752,10752,10752,10766,10767,10767,10767,10767,10767,10767,10767,10767,10785,10785,10785,10785,10785,10786,10786,10786,10786,10801,10801,10801,10801,10801,10801,10801,10801,10801,10818,10819,10819,10819,10819,10819,10819,10819,10819,10835,10836,10836,10836,10836,10836,10836,10836,10836,10853,10853,10853,10853,10854,10854,10854,10854,10854,10870,10870,10871,10871,10871,10871,10871,10871,10871,10888,10888,10888,10888" d="m260,230c1.84668,0 2.68668,0 3.68533,0c0.83551,0 1.716,0 2.61533,0c0.94202,0 1.64334,-0.00014 2.44067,0c1.44467,0.00026 2.00015,-0.00272 2.58734,0.0135c1.25516,0.03465 1.91498,0.08485 2.58932,0.15799c0.68848,0.07468 2.08493,0.31645 2.78217,0.49284c0.70435,0.17819 1.40683,0.39517 2.1105,0.633c1.43054,0.48349 2.14499,0.76315 2.87466,1.02133c1.47836,0.52309 2.23438,0.7635 2.99466,0.996c0.75809,0.23183 1.51324,0.44965 2.25751,0.66451c0.72906,0.21046 1.44003,0.41063 2.1225,0.61949c1.27664,0.39072 2.40247,0.79509 2.91583,1.00134c0.96646,0.38829 1.4169,0.60136 2.30417,1c1.34006,0.60207 1.80246,0.79741 2.724,1.2c0.4549,0.19873 1.35373,0.55415 2.496,1.2c0.65933,0.37279 1.43198,0.98611 1.88651,1.34283c1.00153,0.78598 1.58328,1.20889 2.61349,1.49049c0.78363,0.2142 1.61661,0.19539 2.59549,0.51933c0.76266,0.2524 1.66266,0.47624 2.50433,0.64751c0.84674,0.1723 1.3739,0.74931 2.19568,1.00433c0.76309,0.2368 1.24652,0.96211 2.18851,0.99683c0.69104,0.02547 1.58459,0.3806 2.39999,0.71468c0.91287,0.37401 1.73065,0.32256 2.716,0.63666c0.60953,0.19431 1.61066,0.4756 2.39999,0.66817c1.01785,0.24831 1.59186,0.71387 2.272,1.16451c1.03662,0.68683 1.69348,0.94873 2.41068,1.17867c0.76825,0.24629 1.60397,0.44063 2.93848,0.73601c0.46106,0.10205 1.39401,0.29779 2.3175,0.5c0.45175,0.09892 1.73032,0.39136 2.492,0.59999c1.05182,0.2881 1.71521,0.5079 2.73599,0.8c0.71841,0.20558 1.47891,0.4045 2.28,0.60001c0.83887,0.20473 2.17459,0.50116 2.63867,0.59999c0.9502,0.20236 1.92526,0.40045 2.41916,0.5c1.49524,0.30136 1.99551,0.39923 2.99103,0.60001c0.4939,0.09961 1.46918,0.29668 2.41916,0.5c0.91937,0.19678 1.80154,0.39909 2.66,0.59999c0.85086,0.19911 1.70853,0.40361 2.59198,0.60001c0.91653,0.20374 1.8587,0.3999 2.33334,0.5c0.94736,0.1998 2.33398,0.49725 3.21466,0.70001c0.42847,0.09863 1.26489,0.29843 2.08084,0.5c1.20508,0.2977 2.00647,0.4939 2.8045,0.71066c0.80203,0.21786 1.6095,0.44937 2.80017,0.91064c0.81116,0.31427 1.20734,0.51157 2.03583,0.85333c0.84619,0.34906 2.18323,0.81244 2.65067,0.93869c0.95532,0.258 1.45218,0.36172 2.47501,0.52499c0.52368,0.08359 2.15964,0.24307 2.72366,0.27899c1.15033,0.07324 1.73599,0.09705 2.32532,0.14401c1.19177,0.09494 2.39157,0.2605 2.98935,0.3815c1.2049,0.2439 1.8006,0.41617 2.39999,0.578c0.60065,0.16217 1.79684,0.5087 3,0.8125c0.599,0.15125 1.81274,0.41345 2.43201,0.53067c0.62973,0.1192 1.27515,0.2308 1.93948,0.33148c2.12592,0.32214 2.89307,0.40442 3.68451,0.50717c0.81555,0.1059 1.65256,0.21487 2.5065,0.33899c0.87009,0.12646 1.75308,0.26135 2.64151,0.42902c1.80048,0.33978 2.69827,0.56433 3.59732,0.80133c0.90536,0.23865 1.81122,0.50458 2.71951,0.7905c0.91711,0.2887 1.83835,0.5979 2.7645,0.92551c1.8855,0.66696 2.83673,1.03268 3.80267,1.396c0.97839,0.36801 1.96841,0.74377 2.97449,1.116c1.01926,0.37714 2.05338,0.75592 3.1095,1.116c2.15546,0.73489 3.26947,1.06732 4.39734,1.39999c1.13913,0.336 2.29181,0.6593 3.45151,0.98401c1.16431,0.32599 2.33261,0.64706 3.49649,0.98401c2.31927,0.67145 3.46252,1.0318 4.59332,1.40134c1.12054,0.36618 2.2233,0.74521 3.306,1.1355c1.06662,0.38449 2.11053,0.77554 3.12601,1.18048c1.96365,0.78302 2.89407,1.19437 3.79733,1.59601c0.87671,0.38983 1.72079,0.77966 2.535,1.16101c0.78577,0.36804 1.53925,0.72891 2.26501,1.07098c1.35858,0.64032 1.99445,0.92996 2.60397,1.20001c0.58353,0.25851 1.14734,0.50027 1.69351,0.729c0.52985,0.22189 1.04868,0.4335 1.5585,0.63898c1.00333,0.40436 1.504,0.60233 2.00266,0.80267c0.49701,0.19968 0.99103,0.39911 1.4805,0.60001c0.4852,0.19913 0.96466,0.39771 1.43552,0.60001c0.92059,0.39554 1.36414,0.59875 1.79868,0.79868c0.42548,0.19577 0.83994,0.39078 1.245,0.58047c0.39493,0.18497 0.7789,0.36612 1.155,0.53552c0.71793,0.32333 1.0643,0.46555 1.39999,0.59998c0.32434,0.12988 0.63977,0.24991 0.94501,0.3645c0.2948,0.11069 0.58054,0.2149 0.85498,0.31952c0.52106,0.19861 1.02106,0.3598 1.84,0.80133c0.84933,0.45789 1.43832,1.06107 2.32935,1.31598c0.78738,0.22525 1.44446,0.85901 2.22183,1.07953c0.86154,0.24438 1.7955,0.00455 2.70618,0.00449c0.91083,-0.00009 1.62689,0.06509 2.58932,-0.16666c0.82065,-0.1976 1.60025,-0.63416 2.39999,-1.03336c0.80029,-0.39948 1.59302,-0.81451 2.38934,-1.18933c0.71927,-0.33853 1.72397,-0.53992 2.51065,-0.96332c0.84296,-0.4537 1.30899,-1.15457 2.05719,-1.59018c0.73013,-0.42508 1.89532,-0.13354 2.35748,-0.77316c0.53696,-0.74313 1.01685,-1.13498 1.67468,-1.72c0.69284,-0.61615 0.64218,-1.66455 0.61066,-2.564c-0.02859,-0.81583 -0.24667,-1.7883 -0.58334,-2.54166c-0.26047,-0.58282 -0.88986,-1.48444 -1.47531,-2.05835c-0.64264,-0.62997 -1.44165,-1.20526 -1.86917,-1.5c-0.44308,-0.30548 -1.91397,-1.20303 -2.4455,-1.50266c-0.54843,-0.30914 -1.71024,-0.93857 -2.32001,-1.26935c-0.63025,-0.34189 -1.285,-0.68982 -2.64001,-1.46133c-0.7128,-0.40585 -1.44455,-0.83875 -2.19449,-1.3035c-0.77954,-0.48306 -1.5809,-1.00226 -2.40149,-1.56448c-0.85602,-0.58652 -1.74692,-1.20523 -3.57068,-2.63202c-0.97351,-0.76163 -1.95584,-1.58478 -2.95801,-2.439c-1.02194,-0.87106 -2.04379,-1.76727 -3.06598,-2.673c-1.01981,-0.90363 -2.02255,-1.80695 -3.97601,-3.55466c-0.93512,-0.83664 -1.84625,-1.64716 -2.73749,-2.4375c-0.87543,-0.77634 -1.74167,-1.54167 -2.60251,-2.30251c-0.86084,-0.76083 -1.72833,-1.52478 -3.49335,-3.09332c-0.91,-0.80872 -1.83566,-1.63477 -2.76749,-2.481c-0.94156,-0.85506 -1.88269,-1.72272 -2.8125,-2.60699c-0.92856,-0.88309 -1.85529,-1.76019 -3.58667,-3.57867c-0.84671,-0.8893 -1.64865,-1.79425 -2.4375,-2.68649c-0.7778,-0.87978 -1.53714,-1.75505 -2.30249,-2.60551c-0.75638,-0.8405 -1.4924,-1.68729 -3.09335,-3.20799c-0.79276,-0.75302 -1.62643,-1.4516 -2.47198,-2.11951c-0.83734,-0.66142 -1.68964,-1.28352 -2.54401,-1.8765c-0.84042,-0.5833 -1.67633,-1.13936 -3.31732,-2.17067c-0.78732,-0.49481 -1.56006,-0.96442 -2.319,-1.40999c-0.73981,-0.43434 -1.46936,-0.84621 -2.19302,-1.23001c-0.70911,-0.3761 -1.40768,-0.74455 -2.82132,-1.36c-0.69519,-0.30266 -1.40057,-0.56981 -2.10901,-0.8235c-0.71024,-0.25433 -1.43182,-0.49161 -2.16299,-0.72449c-0.74149,-0.23616 -1.49973,-0.46458 -3.06134,-0.95201c-0.80969,-0.25273 -1.63324,-0.51627 -2.4675,-0.78149c-0.83908,-0.26677 -1.67761,-0.53326 -2.51248,-0.7905c-0.82352,-0.25374 -1.62906,-0.50757 -3.18668,-0.92801c-0.73355,-0.19801 -1.44366,-0.36681 -2.12851,-0.528c-0.66315,-0.1561 -1.30978,-0.30203 -1.93948,-0.45599c-0.61929,-0.15143 -1.23578,-0.29257 -2.43201,-0.68266c-0.60385,-0.19691 -1.19913,-0.43019 -1.79099,-0.67201c-0.58951,-0.24088 -1.1676,-0.49413 -1.73703,-0.74399c-0.55789,-0.2448 -1.09564,-0.49649 -2.13864,-0.91734c-0.48779,-0.19682 -0.96124,-0.36694 -1.41901,-0.519c-0.44101,-0.14648 -0.87192,-0.27536 -1.293,-0.39299c-0.41159,-0.11497 -0.81842,-0.2196 -1.62134,-0.42134c-0.39987,-0.10046 -0.79999,-0.2 -1.20001,-0.3c-0.39999,-0.09999 -0.79999,-0.2 -1.19998,-0.3c-0.39999,-0.09999 -0.80005,-0.19991 -1.60001,-0.39999c-0.39966,-0.09996 -0.79752,-0.19928 -1.19101,-0.3c-0.38785,-0.09927 -0.76776,-0.19844 -1.13699,-0.3c-0.35809,-0.0985 -0.70416,-0.19116 -1.33865,-0.39999c-0.29156,-0.09596 -0.56256,-0.19693 -0.81451,-0.3c-0.23737,-0.09711 -0.45776,-0.1971 -0.6615,-0.3c-0.19257,-0.09727 -0.36932,-0.2 -0.69067,-0.39999l-0.14499,-0.09984l-0.13501,-0.09883l-0.23999,-0.19066" id="svg_6" stroke-width="2" stroke="#000" fill="none"/>
  <path t="12078,12184,12184,12184,12201,12201,12201,12201,12201,12201,12217,12217,12217,12217,12217,12234,12234,12234,12234,12234,12251,12252,12252,12252,12252,12252,12268,12268,12268,12268,12268,12285,12285,12285,12285,12302,12302,12302,12320,12320,12320,12336,12337,12337,12354,12354,12371,12371,12388,12388,12388,12405,12405,12405,12405,12423,12423,12439,12439,12439,12457,12457,12474,12474,12474,12474,12491,12491,12507" d="m270,223c0,-1.43317 0,-2.10417 0,-2.87517c0,-1.2915 0,-2.21016 0,-2.68199c0,-0.96367 0,-1.94734 0,-2.44417c0,-1.4985 0,-1.99734 0,-2.98801c0,-0.97467 0,-1.45351 0,-2.84399c0,-0.884 0,-1.752 0,-2.62801c0,-0.4485 0,-1.87199 0,-2.38133c0,-1.06267 0,-1.608 0,-2.70667c0,-0.54533 0,-2.11734 0,-3.08c0,-0.45633 0,-1.32899 0,-2.16167c0,-1.209 0,-2.00633 0,-2.78766c0,-0.74934 0.01566,-2.08824 -0.00449,-2.91151c-0.01773,-0.72496 -0.13818,-1.68271 -0.35269,-2.46249c-0.22818,-0.82939 -0.62134,-1.8902 -0.94281,-2.58566c-0.37531,-0.8119 -0.92477,-1.55899 -1.40002,-2.21434c-0.63867,-0.88069 -0.90085,-1.48279 -1.46664,-2.24733c-0.62137,-0.83961 -1.07257,-1.1935 -1.66669,-2.16667c-0.46179,-0.75644 -0.75244,-1.60939 -0.96533,-2.14932c-0.39478,-1.00128 -0.79919,-1.87439 -1.20132,-2.68401c-0.39789,-0.80106 -0.80646,-1.59682 -1.20001,-2.40134c-0.40671,-0.83141 -0.81412,-1.76016 -1.09549,-2.55133c-0.19345,-0.54395 -0.41916,-1.36333 -0.65182,-2.58566l-0.10535,-0.8l-0.29999,-0.9045" id="svg_7" stroke-width="2" stroke="#000" fill="none"/>
  <path t="13353,13467,13467,13467,13467,13486,13487,13487,13487,13487,13487,13500,13500,13500,13500,13500,13500,13500,13517,13517,13517,13517,13517,13517,13517,13517,13535,13535,13535,13535,13535,13535,13535,13535,13535,13552,13552,13552,13552,13552,13552,13552,13568,13568,13568,13568,13568,13568,13569,13585,13585,13586,13586,13586,13586,13586,13586,13602,13602,13602,13602,13602,13602,13602,13602,13620,13620,13620,13620,13620,13620,13620,13620,13620,13638,13638,13638,13638,13638,13638,13638,13638,13654,13654,13654,13654,13654,13654,13655,13655,13655,13672,13672,13672,13672,13672,13672,13688,13689,13689,13689,13689,13689,13689,13706,13706,13706,13706,13723,13723,13723,13723,13723,13723,13723,13740,13740,13740,13740,13740,13740,13740,13757,13757,13757,13758,13774,13774,13774,13774,13774,13791,13791,13791,13791,13808,13808,13808,13808,13825,13825,13825,13843,13843,13843,13860,13861,13877,13943,13960,13976,13976,13976,13994,13994,13994,13995,14014,14014,14014,14014,14014,14014,14014,14028,14028,14028,14028,14028,14028,14028,14028,14028,14045,14046,14046,14046,14046,14046,14046,14046,14063,14063,14063,14063,14063,14063,14063,14064,14080,14080,14080,14080,14080,14080,14080,14080,14080,14098,14098,14098,14098,14098,14098,14098,14115,14115,14115,14115,14115,14116,14116,14132,14132,14132,14132,14132,14133,14133,14133,14153,14153,14153,14153,14153,14153,14153,14153,14153,14169,14169,14169,14169,14170,14170,14170,14170,14170,14187,14187,14187,14187,14188,14188,14188,14188,14188,14201,14201,14201,14201,14201,14201,14202,14202,14202,14219,14219,14219,14219,14219,14219,14219,14219,14219,14236,14236,14236,14236,14236,14236,14236,14237,14237,14254,14254,14254,14254,14254,14254,14254,14254,14255,14270,14270,14270,14270,14270,14270,14271,14271,14271,14287,14287,14287,14287,14287,14287,14287,14288,14288,14304,14304,14304,14304,14304,14304,14304,14304,14304,14321,14321,14321,14321,14322,14322,14322,14322,14322,14338,14338,14338,14338,14338,14339,14339,14339,14339,14356,14356,14356,14356,14357,14357,14357,14357,14357,14373,14373,14374,14374,14374,14374,14374,14374,14375,14389,14389,14389,14389,14390,14390,14390,14390,14390,14406,14406,14407,14407,14407,14407,14407,14407,14407,14424,14424,14424,14424,14424,14425,14425,14442,14442,14442,14442,14442,14442,14458,14459,14459,14459,14459,14459,14459,14478,14478,14478,14478,14478,14478,14493,14493,14493,14493,14493,14493,14494,14512,14512,14512,14512,14512,14512,14528,14528,14528,14528,14546,14546,14564,14564" d="m280,217c-1.772,-1.77066 -2.27768,-2.27724 -2.85733,-2.82133c-0.62537,-0.58702 -1.66092,-1.48309 -2.03067,-1.77867c-0.76205,-0.60919 -1.59201,-1.20389 -2.03082,-1.5c-0.4505,-0.304 -1.9231,-1.20222 -2.45184,-1.50266c-0.54257,-0.30827 -1.67258,-0.93625 -2.25067,-1.26933c-0.58929,-0.33954 -1.19373,-0.67955 -2.37866,-1.46133c-0.60651,-0.40015 -1.20404,-0.8333 -1.79999,-1.28551c-0.60416,-0.45844 -1.80322,-1.43475 -2.40002,-1.94733c-0.60321,-0.51808 -1.8017,-1.59865 -2.39981,-2.15483c-0.60059,-0.55847 -1.19513,-1.12328 -1.78952,-1.68301c-0.58926,-0.5549 -1.17172,-1.10188 -1.75349,-1.629c-0.56897,-0.5155 -1.68571,-1.47304 -2.23549,-1.9025c-0.53046,-0.41437 -1.05637,-0.79822 -1.57501,-1.15649c-0.99313,-0.68607 -1.49083,-0.98567 -2.87999,-1.908c-0.44757,-0.29716 -1.32129,-0.90251 -1.76266,-1.2c-0.89789,-0.60516 -1.36488,-0.91019 -1.85867,-1.2c-1.59064,-0.93355 -2.19942,-1.20384 -2.81233,-1.509c-0.62975,-0.31354 -1.27646,-0.62915 -1.929,-0.963c-0.66217,-0.33878 -1.34309,-0.66447 -2.63733,-1.46133c-1.30281,-0.80214 -1.91245,-1.27248 -2.53067,-1.72801c-0.61815,-0.45547 -1.22566,-0.92358 -1.8315,-1.39049c-0.60349,-0.46509 -1.80217,-1.38467 -2.40468,-1.82668c-0.59886,-0.43932 -1.20229,-0.86729 -1.81049,-1.28549c-0.60814,-0.41815 -1.22362,-0.82797 -1.84651,-1.23151c-0.62643,-0.40584 -2.5638,-1.60526 -3.22682,-2.00583c-0.6683,-0.40376 -1.34245,-0.80751 -2.01601,-1.2195c-0.6758,-0.41335 -1.35167,-0.82964 -2.01601,-1.26451c-1.32611,-0.86806 -1.96593,-1.33067 -2.59467,-1.79866c-0.6226,-0.46342 -1.2254,-0.93636 -1.806,-1.416c-0.56871,-0.46983 -1.11424,-0.93979 -1.62599,-1.416c-0.97064,-0.90323 -1.80858,-1.79475 -2.19034,-2.23134c-0.73688,-0.8427 -1.07431,-1.27541 -1.74834,-2.13666c-0.68872,-0.88004 -1.03525,-1.34079 -1.77133,-2.25967c-0.37029,-0.46225 -0.73755,-0.92311 -1.49466,-1.78932c-0.36401,-0.41646 -1.41945,-1.51633 -2.10001,-2.10451c-0.64171,-0.55461 -1.31779,-1.04839 -2.31934,-1.89583c-0.35973,-0.30437 -1.09886,-0.98169 -1.49066,-1.33867c-0.82402,-0.75078 -1.25526,-1.1443 -1.71466,-1.53067c-1.45102,-1.22037 -1.99155,-1.59709 -2.52434,-1.98833c-0.53123,-0.39009 -1.06267,-0.76639 -2.084,-1.49467c-0.48132,-0.34322 -1.74416,-1.25894 -2.39551,-1.8045c-0.57091,-0.47818 -1.06557,-0.95573 -2.04565,-1.93132c-0.53691,-0.53444 -1.09933,-1.09933 -1.68301,-1.68301c-0.29683,-0.29683 -1.19247,-1.19838 -1.79549,-1.79099c-0.59703,-0.58672 -1.18303,-1.16711 -2.10001,-1.93784c-0.58804,-0.49425 -1.19437,-0.92393 -2.04283,-1.56216c-0.79527,-0.59822 -1.52414,-1.1765 -2.1105,-1.8045c-0.71655,-0.76744 -1.10504,-1.3913 -1.436,-2c-0.53621,-0.98619 -0.77524,-1.87675 -1.41066,-2.46667c-0.7122,-0.66121 -1.35822,-1.59454 -0.66667,-2.16666c0.5887,-0.48705 1.44,-0.166 2.64134,-0.16667c0.72932,-0.0004 1.55466,0 2.00583,0c1.5195,0 2.08401,0.00351 3.291,-0.0045c0.63652,-0.00423 1.29108,-0.01352 1.96049,-0.03149c0.68158,-0.01831 2.76833,-0.12674 3.46817,-0.18533c0.70151,-0.05873 1.40442,-0.13055 2.1105,-0.20401c0.71024,-0.07388 1.42509,-0.15164 2.1465,-0.222c0.72794,-0.071 2.96382,-0.23523 3.72549,-0.26733c0.76534,-0.03226 1.53195,-0.0518 2.29651,-0.0645c0.75946,-0.01262 1.511,-0.01758 2.2515,-0.0195c1.436,-0.00374 2.12683,-0.00133 2.80267,-0.00133c1.32666,0 1.98749,0 2.65332,0c0.67584,0 1.36667,0 2.81334,0c0.76401,0 1.552,0 2.358,0c0.81799,0 1.642,0 2.466,0c0.81799,0 1.62399,-0.00072 3.17599,0c1.444,0.00067 2.12852,0.00237 2.79201,0.01067c0.64552,0.00809 1.27678,0.00856 2.504,0.07466c1.20499,0.0649 1.80647,0.11845 3.0085,0.28084c0.60745,0.08206 1.22096,0.1749 2.45267,0.45267c0.63072,0.14224 1.91183,0.50735 2.56433,0.72433c0.66629,0.22157 1.33905,0.46712 2.0145,0.7395c1.38181,0.55725 2.07159,0.87686 2.76534,1.20534c1.40508,0.66528 2.09984,1.03139 2.8,1.396c0.70419,0.36671 1.4088,0.74236 2.11949,1.116c0.71461,0.3757 1.43311,0.75378 2.16451,1.116c1.47493,0.73042 2.23479,1.06633 3.00133,1.40134c0.77347,0.33804 1.56015,0.66766 2.35501,1.00349c0.80513,0.34016 1.62286,0.68248 2.44499,1.04851c1.686,0.75066 2.53685,1.16911 3.39734,1.59999c0.87088,0.43608 1.74237,0.89005 2.616,1.3515c0.8757,0.46254 1.74689,0.93184 2.616,1.3965c1.71646,0.91768 2.56213,1.36206 3.39868,1.79868c0.82779,0.43204 1.64987,0.85764 2.46448,1.284c0.81073,0.42432 1.61871,0.84827 2.41953,1.284c1.60614,0.8739 2.40253,1.33554 3.20264,1.8c0.80423,0.46687 1.6087,0.94241 2.41953,1.416c0.81451,0.47575 1.63272,0.95377 2.46448,1.416c1.67416,0.93036 2.53418,1.36665 3.40002,1.8c0.86984,0.43535 1.75018,0.85962 2.6355,1.284c0.88937,0.42632 1.78537,0.84912 2.68048,1.284c1.80215,0.87555 2.70038,1.33394 3.59735,1.80133c0.89868,0.46828 1.79227,0.94769 2.68048,1.4355c0.88651,0.48688 1.76578,0.98001 2.6355,1.4805c1.72287,0.99144 2.56482,1.49734 3.40134,1.99867c0.83212,0.49869 1.65866,1 2.48401,1.5c0.82535,0.5 1.65137,1.00218 2.48401,1.5c1.68002,1.00443 2.53702,1.50072 3.39999,2.00133c0.86835,0.50372 1.74243,1.00748 2.616,1.5195c0.87576,0.51331 1.7515,1.02956 2.616,1.5645c1.72574,1.06789 2.565,1.63167 3.396,2.19734c0.82468,0.56137 1.63202,1.1301 2.42551,1.6965c0.78119,0.55763 1.54303,1.11188 2.2905,1.65149c1.43744,1.03772 2.12753,1.52802 2.80002,1.99734c0.65189,0.45496 1.28815,0.89104 1.90948,1.30949c0.60403,0.40683 1.19489,0.79854 1.77451,1.1745c1.11859,0.72557 1.66583,1.06758 2.20267,1.40266c0.5275,0.32924 1.04889,0.65005 1.56448,0.96451c0.50974,0.31087 1.01614,0.6167 1.5195,0.91949c1.00089,0.60207 1.5011,0.90102 1.99869,1.2c0.49374,0.29668 0.98157,0.59027 1.461,0.88051c0.46991,0.28445 0.92801,0.56258 1.371,0.83549c0.83856,0.51662 1.22791,0.76401 1.60266,1c0.36258,0.22832 0.71619,0.45117 1.06799,0.66451c0.34958,0.21199 0.70255,0.42136 1.06799,0.61949c0.75974,0.4119 1.17365,0.60466 1.604,0.80133c0.44528,0.20348 0.90961,0.4026 1.3905,0.60001c0.49374,0.20267 1.00259,0.40285 1.52551,0.60001c1.07645,0.40587 1.63293,0.60062 2.19464,0.79999c0.56531,0.20064 1.13229,0.39922 1.6965,0.60001c0.55978,0.19922 1.11243,0.39621 1.65152,0.60001c1.03876,0.39272 1.52838,0.59563 1.99866,0.80266c0.45837,0.20178 0.91257,0.3934 1.74933,0.86934c0.83322,0.47392 1.63013,1.05038 2.42401,1.69733c0.41098,0.3349 1.2355,1.05565 1.66931,1.416c0.8916,0.74062 1.85687,1.45474 2.3707,1.79317c0.52084,0.34305 1.6069,0.9874 2.15732,1.30067c0.54828,0.31206 1.63876,0.90799 2.66666,1.52083c0.49399,0.29451 1.42862,0.89906 1.88269,1.2c0.90253,0.59816 1.3425,0.92175 2.784,1.8c0.50473,0.30753 1.03058,0.60623 2.11731,1.18933c0.5473,0.29367 1.09775,0.57651 1.64401,0.8535c1.56934,0.79578 2.06351,1.03302 2.98651,1.5c0.85757,0.43388 1.26654,0.63716 2.03082,1.05583c1.07358,0.58812 1.72736,0.99524 2.64133,1.56534c0.56061,0.34969 1.56,0.95067 2.20502,1.31517l0.875,0.52083l0.75598,0.564" id="svg_8" stroke-width="2" stroke="#000" fill="none"/>
  <path t="15494,15608,15608,15628,15628,15628,15628,15642,15642,15661,15677,15677,15694,15694,15694,15712,15712,15728,15791,15810,15828,15828,15842,15842,15842,15842,15861,15861,15861,15861,15861,15861,15875,15875,15875,15875,15875,15875,15875,15892,15892,15892,15892,15892,15892,15892,15892,15910,15910,15910,15910,15910,15910,15910,15910,15910,15929,15929,15929,15929,15929,15929,15929,15929,15929,15944,15944,15944,15944,15945,15945,15945,15945,15945,15961,15961,15961,15961,15961,15961,15962,15962,15962,15979,15979,15979,15979,15979,15980,15980,15980,15980,15995,15995,15996,15996,15996,15996,15996,15996,15996,16012,16012,16012,16012,16012,16012,16012,16012,16012,16030,16030,16030,16030,16030,16030,16030,16031,16031,16048,16048,16048,16048,16048,16048,16049,16049,16049,16065,16065,16065,16065,16066,16066,16066,16066,16082,16082,16082,16082,16082,16099,16100,16100,16100,16100,16117,16117,16117,16117,16117,16134,16134,16134,16134,16134,16151,16151,16151,16151,16151,16169,16169,16169,16169,16169,16185,16185,16185,16185,16203,16203,16203,16203,16203,16220,16220,16220,16220,16244,16244,16244,16244,16262,16262,16262,16262,16262,16276,16276,16276,16292,16292,16292,16292,16309,16309,16309,16329,16329,16342,16343,16343,16363,16363,16363,16363,16376,16376,16376,16396,16396,16396,16409,16409,16409,16409,16429,16429,16444,16444,16461,16461,16478,16495,16495,16512,16529,16549,16566,16600,16617,16634,16634,16652,16652,16670,16670,16671,16671,16687,16687,16687,16687,16687,16687,16704,16705,16705,16705,16705,16705,16722,16722,16722,16722,16722,16739,16740,16740,16740,16740,16764,16764" d="m238,309c-1.0715,0.35718 -1.83226,0.60986 -3,1c-0.59747,0.19962 -1.4761,0.45782 -2.22934,0.79999c-0.98253,0.44635 -1.56865,0.99933 -2.27066,1.70001c-0.60074,0.59961 -1.136,1.13599 -1.82133,1.82132c-0.67867,0.67868 -1.19467,1.19467 -1.92149,1.92151c-0.55583,0.55585 -1.43303,1.17191 -1.70001,2.05716c-0.25996,0.86197 0.38429,1.58847 1.20018,1.72534c0.90756,0.15225 1.71288,0.33356 2.32599,0.49551c1.07321,0.28348 1.91522,0.48618 2.87267,0.67917c0.51476,0.10376 1.60626,0.30136 2.17601,0.39999c1.17151,0.20282 2.36807,0.39951 2.968,0.50015c0.60007,0.10068 1.80043,0.30811 2.39999,0.42068c0.60046,0.11273 1.80313,0.35147 3,0.64581c0.60231,0.14813 1.81769,0.48712 2.44267,0.65869c0.64035,0.17578 1.30008,0.35431 1.98599,0.52197c0.71141,0.17389 2.23672,0.4935 3.05701,0.63101c0.85173,0.14279 1.73328,0.26584 2.63699,0.375c0.9183,0.11093 1.84758,0.2049 2.78101,0.285c0.93059,0.07986 2.7628,0.19867 3.65367,0.24033c0.87451,0.04089 1.7373,0.06961 2.59198,0.09601c0.85065,0.02628 1.70142,0.0488 2.556,0.078c0.86273,0.02948 2.62823,0.11057 3.53735,0.16867c0.92557,0.05917 1.86273,0.13046 2.80798,0.20398c0.9494,0.07382 1.89856,0.15106 2.84399,0.22202c0.93723,0.07034 2.77179,0.19016 3.66269,0.23117c0.87448,0.04025 1.73727,0.06729 2.59198,0.08548c0.85062,0.0181 1.70135,0.02686 2.556,0.03152c0.86267,0.0047 2.62802,0.00449 3.53735,0.00449c0.92532,0 1.86267,0 2.80798,0c0.94934,0 1.89868,0 2.84399,0c0.93735,0 2.772,0 3.66235,0c0.87231,0 1.72867,0 2.57098,0c0.83035,0 1.65067,0 2.46301,0c0.80634,0 2.409,0 3.20883,0c0.79883,0 1.59567,0 2.3895,0c0.78983,0 1.57468,0 2.35352,0c0.77182,0 2.2905,-0.00052 3.03549,0.00015c0.73499,0.00067 1.46002,0.00229 2.17499,0.01053c0.70505,0.00815 1.40012,0.02161 2.08502,0.04648c0.67514,0.02451 1.99539,0.10507 2.63998,0.16418c0.63544,0.05829 1.26019,0.12973 1.875,0.20398c0.60519,0.07309 1.19983,0.15073 1.785,0.22202c0.57486,0.07004 1.69473,0.18964 2.23999,0.23132c0.53473,0.04089 1.05997,0.06943 1.57501,0.09601c0.50497,0.02606 1.0004,0.04456 1.48499,0.078c1.39633,0.09641 2.27734,0.22531 3.12567,0.37265c0.82639,0.14352 1.63068,0.32355 2.83618,0.45319c0.80228,0.08627 1.62061,0.10345 2.03583,0.11081c0.84924,0.01508 2.18549,0.01068 3.12115,0.01068c0.47885,0 1.45352,0 2.44418,0c0.99866,0 1.99731,0 2.49417,0c0.98364,0 1.94733,0 3.33783,0c0.44516,0 1.30948,0 2.14581,0c0.81635,0 2.02084,0 2.82083,0c0.80002,0 1.60001,-0.00012 2.40002,0c1.19998,0.00018 2.00107,-0.01089 2.79999,0.04166c0.80154,0.05273 2.00668,0.27005 2.79999,0.52634c0.8074,0.26083 1.58997,0.61157 2.40002,0.86401c1.18677,0.36981 1.99393,0.47318 2.77914,0.52634c0.76263,0.05164 1.85419,0.04166 2.53818,0.04166c1.00351,0 1.6925,0 2.81601,0c0.83331,0 1.70667,0 2.57999,0c0.42416,0 1.92252,0 2.52417,0c1.06332,0 1.89584,0 2.86783,0c0.69467,0 1.38934,0 2.65167,0c0.771,0 1.64032,0 2.64749,0c0.85266,0 1.81738,0.01636 2.6315,-0.01068c0.86926,-0.02887 1.76761,-0.13937 2.664,-0.34198c0.60263,-0.13623 1.49286,-0.41272 2.70001,-0.56201c0.59747,-0.07388 1.5,-0.07883 2.69998,-0.08548c0.60001,-0.00333 1.50665,0.01508 2.70001,-0.1665c0.60312,-0.09177 1.47348,-0.35666 2.31467,-0.54935c0.99405,-0.22769 1.89105,-0.23837 2.88516,-0.50534c0.60245,-0.1618 1.65918,-0.53009 2.3895,-0.80399c0.85089,-0.31912 1.435,-1.17218 2.11069,-1.61749c0.71567,-0.47165 1.29388,-1.14981 2.00449,-1.35269c0.90421,-0.25815 1.63824,-0.61737 2.17416,-1.22598c0.62326,-0.70779 0.87485,-1.49045 1.60666,-1.98117c0.71756,-0.48117 1.53409,-1.11374 1.91602,-1.57068c0.65396,-0.78244 1.06241,-1.4458 1.76532,-2.56c0.25726,-0.40781 0.78839,-1.27335 1.06934,-1.71732c0.5704,-0.9014 0.84204,-1.36304 1.76401,-2.616c0.29193,-0.3967 0.89404,-1.133 1.52084,-1.8125c0.62601,-0.67865 0.96381,-1.00418 2.00049,-2.04218c0.36243,-0.36292 1.104,-1.104 1.85333,-1.85333c0.37268,-0.37268 1.45868,-1.45868 1.8035,-1.8035c0.65567,-0.65567 1.25934,-1.25934 1.80301,-1.80301l0.87582,-0.87601l0.47101,-0.48148" id="svg_9" stroke-width="2" stroke="#000" fill="none"/>
 </g>
 <g display="none">
  <title>muse_image</title>
  <image xlink:href="http://farm4.static.flickr.com/3130/2337923759_f53315f5a0.jpg" id="muse" height="480" width="640" y="0" x="0"/>
 </g>
 <g display="none">
  <title>bbox</title>
  <rect stroke="#f00" fill="none" stroke-width="3" height="181.76" width="528.64" y="148.48" x="58.88" id="bbox"/>
 </g>
</svg>
