<svg width="640" height="480" xmlns="http://www.w3.org/2000/svg" xmlns:svg="http://www.w3.org/2000/svg" xmlns:xlink="http://www.w3.org/1999/xlink">
 <!-- Sketchy ANNOTATION
  ImageNet ID: n02691156_7989
  URL: http://farm1.static.flickr.com/227/511419871_4b14eb3340.jpg
  Image Width: 500
  Image Height: 333
  BBox X: 99
  BBox Y: 59
  BBox Width: 272
  BBox Height: 237
  Exposure: 2000ms
  Synset Label: airplane
  Synset ID: n02691156
  Worker Tag: plane
  Sanity Check: 
   Context
   Saved
  Comment: 
   {}
  Worker ID: A21HRAFQT4OILB
  Assignment ID: 3MAOD8E57QAGU7S6WEU49OVAL1NNXN
  HIT ID: 3O2Y2UIUCQUWZVIO95R0M5JENA2KFC
  Work Time: 134s
  Worker Score: 0.7857
 END ANNOTATION -->
 <g display="inline">
  <title>Layer 1</title>
  <path t="0,106,107,107,107,107,126,126,126,126,126,126,126,126,126,142,142,142,142,142,142,142,142,142,216,216,216,216,216,216,216,216,216,223,223,223,223,223,223,223,223,223,243,243,243,243,243,244,244,244,244,260,260,260,260,260,260,260,260,260,278,278,278,278,278,278,278,278,278,292,292,292,292,292,292,292,292,292,310,310,310,310,310,310,310,310,310,327,327,327,328,328,328,328,328,328,390,390,390,390,390,390,390,391,391,410,410,410,410,410,410,410,410,411,426,426,426,427,427,427,427,427,427,443,443,443,443,443,443,443,443,443,461,461,461,461,461,461,461,462,462,477,477,477,477,477,478,478,478,478,495,495,495,495,495,495,495,495,495,511,511,511,511,512,512,512,512,512,528,528,528,528,528,529,529,529,529,545,545,545,545,545,545,545,545,545,564,564,564,565,565,565,565,565,565,578,578,578,578,578,579,579,579,579,594,594,594,594,595,595,595,595,595,611,611,611,612,612,612,612,612,612,628,628,628,628,628,644,645,645,645,645,645,645,661,662,662,662,662,662,662,662,663,678,678,678,679,679,679,679,679,679,694,694,695,695,695,695,695,695,695,712,712,712,712,712,712,712,713,713,728,728,728,728,728,728,728,728,729,745,745,745,745,746,746,762,762,762,762,763,763,778,778,778,779,779,779,779,779,779,856,856,856,856,856,856,856,856,857,870,870,871,871,871,871,871,871,871,957,957,957,957,957,958,958,958,958,978,978,978,978,978,978,979,979,979,994,994,994,994,994,995,995,995,995,1012,1012,1012,1012,1012,1012,1012,1012,1012,1029,1029,1029,1029,1029,1029,1030,1030,1045,1046,1046,1062,1062,1062,1080,1080,1095,1096,1096,1114,1115,1115,1115,1129,1129,1129,1130,1130,1145,1145,1145,1145,1161,1161,1178,1196,1196,1212,1213,1228,1229,1229,1246,1246,1246,1262,1263,1263,1264,1264,1278,1279,1279,1296,1296,1296,1296,1312,1312,1313,1313,1329,1329,1330,1346,1346,1362,1392,1392,1412,1429,1429,1450,1450,1463,1543,1543,1543,1543,1543,1543,1557,1557,1557,1557,1557,1558,1558,1558,1558,1579,1579,1579,1579,1579,1580,1580,1580,1580,1594,1595,1595,1595,1595,1595,1595,1595,1596,1613,1613,1613,1614,1614,1614,1614,1614,1615,1630,1631,1631,1631,1659,1659,1659,1659,1659,1659,1684,1685,1685,1685,1685,1685,1685,1686,1686,1694,1694,1694,1694,1694,1695,1695,1695,1695,1713,1713,1714,1714,1714,1714,1715,1715,1715,1760,1760,1760,1760,1760,1761,1761,1761,1761,1777,1777,2470,2471,2471,2471,2471,2471,2471,2471,2478,2478,2479,2479,2479,2479,2479,2479,2479,2581,2581,2581,2581,2581,2582,2582,2582,2582,2594,2595,2595,2595,2595,2595,2595,2596,2596,2613,2614,2614,2614,2614,2615,2615,2615,2615,2631,2631,2632,2632,2632,2632,2632,2633,2633,2692,2692,2692,2693,2693,2693,2693,2694,2694,2714,2714,2714,2714,2715,2715,2715,2715,2715,2729,2730,2730,2730,2730,2730,2731,2731,2731,2748,2748,2749,2749,2749,2749,2749,2750,2750,2763,2763,2764,2764,2764,2764,2764,2764,2765,2792,2792,2793,2793,2793,2793,2794,2794,2794,2814,2814,2814,2814,2815,2815,2815,2815,2816,2833,2834,2834,2834,2834,2835,2835,2835,2835,2891,2892,2892,2892,2892,2892,2893,2893,2893,2894,2894,2894,2895,2895,2895,2895,2895,2896,2926,2926,2926,2927,2927,2927,2927,2928,2928,2947,2947,2947,2948,2948,2948,2948,2949,2949,2964,2964,2964,2965,2965,2965,2965,2966,2966,2981,2982,2982,2982,2982,2983,2983,2983,2983,2997,2997,2997,2997,2997,2998,2998,2998,2998,3059,3059,3059,3059,3059,3060,3060,3060,3060,3080,3081,3081,3081,3081,3082,3082,3082,3083,3096,3097,3097,3097,3097,3098,3098,3098,3098,3115,3115,3116,3116,3116,3116,3117,3117,3117,3132,3132,3132,3133,3133,3133,3133,3134,3134,3148,3148,3149,3149,3149,3150,3150,3150,3150,3309,3309,3310,3310,3310,3311,3311,3311,3312,3392,3393,3393,3394,3394,3394,3395,3395,3395,3414,3414,3415,3415,3415,3416,3416,3416,3416,3431,3431,3432,3432,3432,3433,3433,3433,3434,3448,3448,3449,3449,3449,3449,3450,3450,3450,3759,3760,3760,3761,3761,3761,3762,3762,3762,3781,3782,3782,3782,3783,3798,3798,3799,3799,3799,3799,3800,3800,3826,3827,3893,3893" d="m168,192.08334c1.76067,0.33466 2.49982,0.42841 3.03867,0.43066c0.68077,0.00284 1.52834,-0.02548 3.79466,-0.26401c1.4617,-0.15384 3.11635,-0.38559 4.93651,-0.63449c1.95184,-0.26691 4.00044,-0.55705 6.11549,-0.84151c2.14595,-0.2886 4.28757,-0.59727 8.448,-1.024c1.95029,-0.20003 3.81659,-0.33781 5.60851,-0.438c1.72954,-0.09671 3.41217,-0.15315 5.05949,-0.18599c1.62503,-0.03239 3.24133,-0.04031 6.49867,-0.04266c1.66884,-0.00121 3.39069,-0.00003 5.18851,0.00899c1.89684,0.00951 3.91573,0.0282 6.0795,0.063c2.33191,0.03751 4.85513,0.0829 10.56532,0.26134c3.21979,0.10062 6.63617,0.23198 10.18651,0.3765c3.62166,0.14742 7.25117,0.30717 10.8255,0.47551c3.45667,0.1628 6.73303,0.31364 12.48801,0.64799c2.37128,0.13777 4.40738,0.27325 6.14249,0.414c1.4715,0.11935 2.71323,0.24039 3.75751,0.37799c0.88727,0.11691 1.65259,0.233 2.93332,0.54134c0.59329,0.14284 1.16388,0.31349 1.71902,0.48601c0.54352,0.1689 1.07278,0.34702 1.59299,0.52199c0.51242,0.17235 1.01495,0.35333 2.02133,0.65868c0.49808,0.15112 0.99789,0.28427 1.49551,0.4095c0.49307,0.12408 0.98337,0.23759 1.46848,0.3465c0.47858,0.10742 0.9512,0.20702 1.86935,0.41068c0.44574,0.09886 0.88403,0.19989 1.31848,0.29999c0.43353,0.0999 0.86884,0.20085 1.30951,0.3c0.4483,0.10086 0.90689,0.20532 1.87201,0.40001c0.50879,0.10263 1.0343,0.20078 1.57199,0.29549c0.54495,0.09599 1.09427,0.18633 1.64401,0.26851c0.54492,0.08147 1.08139,0.1622 2.11731,0.26933c0.4895,0.05063 0.95984,0.08434 1.41,0.1095c0.42984,0.02403 0.83997,0.03815 1.23001,0.04649c0.36996,0.0079 0.72,0.01001 1.35999,0.01068c0.29019,0.00031 0.56134,0 0.81451,0c0.23618,0 0.45633,0 0.6615,0c0.19116,0 0.36932,-0.00017 0.69067,0c0.146,0.00008 0.28802,-0.00002 0.43198,0.00449c0.15207,0.00476 0.31818,0.01465 0.50403,0.03151c0.21216,0.01924 0.45651,0.04562 1.064,0.13066c0.37433,0.0524 0.79193,0.11772 1.24799,0.186c0.48795,0.07306 1.00174,0.14923 1.53601,0.222c0.54773,0.0746 1.10275,0.15381 2.216,0.25867c0.54443,0.05128 1.07983,0.08463 1.60498,0.1095c0.51486,0.02438 1.01999,0.03825 1.51501,0.04649c0.48495,0.00807 0.95999,0.01001 1.88,0.01068c0.44482,0.00032 0.87866,0 1.30048,0c0.40884,0 0.80368,0 1.1835,0c0.36383,0 0.71069,0 1.34933,0c0.29019,0 0.56134,0 0.81451,0c0.23618,0 0.45633,0 0.6615,0c0.19116,0 0.36932,0 0.69067,0c0.14532,0 0.28265,0 0.414,0c0.12732,0 0.25266,0 0.37799,0c0.12732,0 0.25867,0 0.54132,0c0.15466,0 0.31735,0 0.48602,0c0.17267,0 0.34732,0 0.52197,0c0.17267,0 0.34134,0 0.65869,0c0.146,0 0.28799,0 0.43198,0c0.15201,0 0.31802,0 0.50403,0c0.21198,0 0.45599,-0.00012 1.064,0c0.37534,0.00008 0.80264,0.00014 1.284,0.00449c0.53732,0.00485 1.13272,0.01427 1.78799,0.03151c0.71741,0.01889 1.49905,0.04105 3.26132,0.13066c0.9841,0.05005 2.0307,0.11688 3.13351,0.186c1.15186,0.07219 2.34555,0.14914 3.57449,0.222c1.25671,0.07451 2.53409,0.15494 5.12534,0.25867c1.29877,0.05199 2.59195,0.08469 3.87299,0.1095c1.26294,0.02446 2.50201,0.03822 3.71103,0.04649c1.17297,0.00803 2.30399,0.01001 4.41599,0.01068c0.97,0.00031 1.88,0 2.73001,0c0.78998,0 1.51999,0 2.19,0c0.60999,0 1.15997,0 2.07999,0c0.371,0 0.68799,0 0.957,0c0.22699,0 0.418,0 0.57901,0c0.13699,0 0.25598,0 0.46399,0c0.10083,0 0.20667,0 0.32251,0c0.45749,0 1.51083,-0.00197 2.31348,0.00133c0.48135,0.00198 1.61407,0.01743 2.26935,0.03467c0.71741,0.01889 1.49905,0.04094 3.26132,0.13066c0.98508,0.05016 2.03876,0.1174 3.16052,0.19051c1.1889,0.07748 2.44366,0.16383 3.76349,0.25349c1.38382,0.09401 2.83035,0.19556 5.90933,0.38934c1.62717,0.1024 3.29858,0.20047 4.99799,0.29549c1.71124,0.09567 3.41858,0.18581 5.10602,0.26851c1.65125,0.08092 3.25031,0.16017 6.22934,0.26933c1.35016,0.04947 2.6026,0.08389 3.759,0.1095c1.06226,0.02351 2.03262,0.03798 2.91299,0.04649c0.79233,0.00766 1.49866,0.01001 2.66132,0.01068c0.46133,0.00026 0.85068,0 1.17603,0c0.26932,0 0.49066,0 0.672,0c0.14932,0 0.27466,0 0.48532,0c0.10034,0 0.20267,0 0.30899,0c0.11234,0 0.23267,0 0.36301,0c0.14233,0 0.29868,0 0.66135,0c0.20999,0 0.44,0 0.69,0c0.26999,0 1.19998,-0.00087 2.31,0c0.84399,0.00067 1.79202,0.00864 2.3125,0.02083c0.55554,0.013 1.78403,0.05556 3.1875,0.14583c0.7735,0.04974 1.58542,0.11607 2.42548,0.186c0.8573,0.07137 1.72031,0.14764 2.57852,0.222c0.84213,0.07297 1.65683,0.14796 3.16266,0.25867c0.67529,0.04964 1.32474,0.08557 1.97849,0.14999c0.69437,0.06844 1.46097,0.17216 2.32953,0.33c1.01093,0.1837 2.19434,0.42781 5.19199,1.18668c1.88095,0.47617 3.97531,1.05498 6.24451,1.6785c2.39349,0.65768 4.85895,1.34485 7.3515,2.0295c2.46716,0.67767 4.85413,1.35471 9.23734,2.45866c1.88892,0.47574 3.57791,0.86043 5.07748,1.17601c1.32074,0.27794 2.48416,0.49559 3.5025,0.672c0.88678,0.15361 1.66284,0.2583 2.92001,0.48534c0.5174,0.09344 0.97159,0.19304 1.36649,0.30449c0.35031,0.09886 0.65796,0.20816 0.92551,0.3315c0.24673,0.11374 0.47351,0.23781 0.87466,0.53067c0.20401,0.14893 0.39966,0.31471 0.591,0.48601c0.19,0.17009 0.37006,0.34474 0.53699,0.52199c0.16031,0.17023 0.31491,0.33162 0.53867,0.65868c0.09671,0.14137 0.16794,0.28146 0.228,0.414c0.05719,0.12624 0.104,0.25322 0.15601,0.37799c0.05331,0.12791 0.10532,0.26607 0.28268,0.54134c0.10272,0.15941 0.2345,0.3199 0.3765,0.49051c0.14993,0.18015 0.3114,0.36331 0.47549,0.5535c0.16693,0.19348 0.66116,0.78059 1.18933,1.58932c0.38776,0.59373 0.9415,1.40439 1.45068,2c0.51678,0.60449 1.22754,1.35977 1.633,2.20001c0.46417,0.96187 0.44211,1.61948 0.65149,2.51433c0.2681,1.14581 0.59885,1.80049 0.91101,2.52733c0.32977,0.76785 0.81799,1.95639 0.95764,2.35817c0.27524,0.79196 0.50125,1.57916 0.71701,2.343c0.4054,1.4352 0.60596,2.09377 0.78366,2.7155c0.24371,0.85269 0.46869,1.85271 0.51016,2.69499c0.0538,1.09274 0.01068,2.01334 0.01068,2.84668c0,0.97882 0,1.66133 0,2.77066c0,0.771 0,1.33833 0,2.5295c0,0.91051 0,1.53584 0,2.8665c0,0.71733 0,1.45866 0,2.20801c0,0.74133 0,2.14133 0,2.79999c0,0.97801 0,1.992 0,2.70935c0,0.74133 0.00143,1.49066 0,2.94931c-0.00067,0.68134 0.02914,1.33353 -0.05716,2.26218c-0.11249,1.21008 -0.29395,1.79593 -0.51752,2.63251c-0.30188,1.12958 -0.33426,1.92001 -0.86133,2.672c-0.55377,0.7901 -1.22052,1.34726 -1.86398,1.89551c-0.7536,0.64206 -1.58536,0.70383 -2.52536,0.7045c-0.69064,0.00049 -1.71631,0 -2.67465,0c-0.92999,0 -1.34668,0 -2.39999,0c-0.65668,0 -1.41333,0.00015 -3.26666,0c-1.11151,-0.00009 -2.332,0 -3.6405,-0.00452c-1.37552,-0.00476 -2.79703,-0.01337 -4.2435,-0.03149c-1.45053,-0.01819 -2.88461,-0.03082 -5.616,-0.13068c-1.26135,-0.04611 -2.44827,-0.11319 -3.56702,-0.18597c-1.05728,-0.06879 -2.05804,-0.14658 -3.009,-0.22202c-0.90704,-0.07193 -1.77521,-0.15283 -3.42398,-0.25867c-0.78934,-0.05066 -1.55722,-0.08444 -2.30103,-0.1095c-0.71756,-0.02417 -1.40729,-0.03818 -2.06699,-0.04651c-0.62762,-0.0079 -1.22134,-0.00998 -2.29868,-0.01065c-0.48032,-0.00031 -0.92267,0 -1.32898,0c-0.37234,0 -0.71268,0 -1.02301,0c-0.28235,0 -0.53867,0 -0.98132,0c-0.19067,0 -0.36536,0 -0.68268,0c-0.98401,0 -1.74707,-0.00571 -2.56732,-0.08334c-0.55353,-0.0524 -1.22232,-0.13864 -2.022,-0.258c-2.064,-0.30807 -3.34674,-0.54114 -4.78,-0.79733c-1.55249,-0.27753 -3.19116,-0.58151 -4.8855,-0.90302c-1.72034,-0.32645 -3.43454,-0.65775 -5.1105,-0.99298c-3.12027,-0.62411 -4.50549,-0.91974 -5.76935,-1.19202c-1.15079,-0.24792 -2.19467,-0.48001 -3.14099,-0.69c-0.85632,-0.19003 -1.62955,-0.36533 -2.33099,-0.50998c-1.2088,-0.24927 -1.73557,-0.33554 -2.216,-0.40268c-0.43704,-0.06107 -0.83704,-0.10275 -1.203,-0.129c-0.33542,-0.02408 -0.64529,-0.0351 -0.93301,-0.039c-0.5253,-0.00711 -0.77032,-0.00266 -1.00531,-0.00266c-0.22501,0 -0.44,0 -0.64502,0c-0.19498,0 -0.38,0 -0.55499,0c-0.608,0 -1.46814,0.0162 -2.32001,0c-1.01654,-0.01935 -2.0054,-0.11899 -3.52798,-0.30933c-2.22418,-0.27805 -5.30551,-0.72485 -9.40802,-1.34851c-5.28995,-0.80417 -20.06512,-3.16864 -29.79248,-4.76102c-11.06079,-1.81067 -23.11176,-3.80835 -35.81549,-5.92648c-13.01932,-2.17075 -26.01285,-4.35112 -38.64151,-6.4845c-11.92731,-2.01489 -32.31683,-5.49019 -40.18468,-6.86934c-6.33305,-1.11012 -11.31117,-1.99716 -15.10049,-2.7675c-2.80548,-0.57033 -4.80899,-1.01714 -6.13651,-1.50749c-0.91698,-0.33871 -2.05881,-1.19334 -2.65199,-1.67551c-0.66673,-0.54195 -1.3945,-1.12863 -2.1675,-1.74901c-0.80199,-0.64365 -1.61949,-1.29663 -2.4375,-1.94699c-0.802,-0.63763 -2.30147,-1.82233 -2.97334,-2.3465c-0.61488,-0.47972 -1.17963,-0.91571 -1.7025,-1.3065c-0.47899,-0.35799 -0.92374,-0.68027 -1.3425,-0.96451c-0.38817,-0.26347 -1.11499,-0.70808 -1.46216,-0.89383c-0.33035,-0.17674 -0.65062,-0.3302 -0.95401,-0.47099c-0.284,-0.13179 -0.55042,-0.24837 -0.79199,-0.36301c-0.21968,-0.10425 -0.58112,-0.3024 -0.71167,-0.40883c-0.11443,-0.09328 -0.20132,-0.19283 -0.267,-0.28951c-0.05939,-0.08742 -0.10068,-0.175 -0.14101,-0.25349c-0.03706,-0.07214 -0.1198,-0.19469 -0.17833,-0.23634c-0.06416,-0.04565 -0.14891,-0.08113 -0.246,-0.12749c-0.11563,-0.05521 -0.25276,-0.12315 -0.408,-0.2175c-0.18388,-0.11174 -0.62677,-0.43919 -0.88849,-0.66167c-0.29468,-0.25049 -0.60782,-0.53746 -0.9435,-0.8475c-0.35538,-0.32823 -0.72321,-0.67421 -1.10551,-1.0275c-0.38966,-0.36008 -1.18439,-1.07497 -1.586,-1.41734c-0.39444,-0.33626 -0.7859,-0.65701 -1.16849,-0.96449c-0.36847,-0.29613 -0.72388,-0.57486 -1.0605,-0.8385c-0.31538,-0.24701 -0.87228,-0.68456 -1.10701,-0.87567c-0.20918,-0.17033 -0.39272,-0.32466 -0.5565,-0.46049c-0.14525,-0.12045 -0.27437,-0.22748 -0.39449,-0.3165c-0.10809,-0.08012 -0.31201,-0.20296 -0.41351,-0.24484c-0.09866,-0.04071 -0.19975,-0.0696 -0.29999,-0.09599c-0.09976,-0.02626 -0.20053,-0.04883 -0.3,-0.078c-0.10057,-0.0295 -0.30154,-0.11127 -0.40018,-0.16867c-0.10284,-0.05986 -0.20416,-0.13158 -0.31049,-0.20399c-0.11,-0.07492 -0.22362,-0.15228 -0.34651,-0.222c-0.12646,-0.07175 -0.40807,-0.19128 -0.5645,-0.23117c-0.16367,-0.04173 -0.33965,-0.06769 -0.52499,-0.08549c-0.1947,-0.01871 -0.39996,-0.02692 -0.61501,-0.03151c-0.22496,-0.00481 -0.705,-0.004 -0.95982,-0.00465c-0.26384,-0.00067 -0.53572,-0.00246 -0.8145,-0.01051c-0.2849,-0.00824 -0.57494,-0.02199 -0.86852,-0.04649c-0.29713,-0.0248 -0.89624,-0.10558 -1.19615,-0.16434c-0.30548,-0.05984 -0.61757,-0.1347 -0.942,-0.21449c-0.34091,-0.08383 -0.70093,-0.17636 -1.086,-0.26851c-0.41225,-0.09865 -1.33751,-0.29813 -1.85634,-0.39549c-0.54782,-0.1028 -1.11667,-0.2 -1.69501,-0.3c-0.57832,-0.09999 -1.14719,-0.1972 -1.69499,-0.3c-0.51884,-0.09735 -1.42703,-0.29271 -1.79601,-0.39983c-0.31888,-0.09258 -0.5883,-0.19029 -0.813,-0.28951c-0.19308,-0.08525 -0.35283,-0.17323 -0.489,-0.25349c-0.11975,-0.07059 -0.32532,-0.19444 -0.42749,-0.23584c-0.10197,-0.04132 -0.21255,-0.07074 -0.33151,-0.09599c-0.13004,-0.0276 -0.27602,-0.05046 -0.4395,-0.078c-0.18454,-0.0311 -0.62888,-0.1122 -0.89316,-0.16901c-0.29309,-0.063 -0.61185,-0.13799 -0.95401,-0.22499c-0.3652,-0.09286 -0.75002,-0.1976 -1.15199,-0.315c-0.4194,-0.1225 -1.29681,-0.40265 -1.75017,-0.55949c-0.45999,-0.15913 -0.91861,-0.32625 -1.3725,-0.4935c-0.44444,-0.16377 -0.87303,-0.32483 -1.2825,-0.47551c-0.3839,-0.14127 -1.05655,-0.37949 -1.33833,-0.467c-0.24504,-0.07611 -0.46129,-0.13454 -0.6525,-0.1815c-0.1705,-0.04187 -0.32692,-0.07495 -0.4725,-0.1095c-0.14108,-0.03348 -0.42838,-0.1161 -0.58234,-0.17334c-0.16481,-0.06128 -0.33626,-0.13431 -0.5145,-0.21449c-0.18547,-0.08344 -0.37495,-0.17406 -0.5685,-0.26851c-0.19714,-0.09621 -0.59579,-0.29491 -0.79567,-0.39583c-0.20148,-0.10173 -0.40553,-0.2065 -0.6105,-0.321c-0.21141,-0.1181 -0.4274,-0.2475 -0.6465,-0.39301c-0.23039,-0.15302 -0.71216,-0.51582 -0.964,-0.7285c-0.26431,-0.22321 -0.52945,-0.46442 -0.79349,-0.71849c-0.26701,-0.25693 -0.52675,-0.52144 -0.77551,-0.7905c-0.24319,-0.26303 -0.68025,-0.77864 -0.86665,-1.0265c-0.17474,-0.23236 -0.32806,-0.4577 -0.46051,-0.675c-0.12367,-0.20291 -0.22884,-0.3983 -0.3165,-0.58501c-0.08145,-0.17348 -0.2019,-0.49426 -0.24483,-0.64c-0.03957,-0.13435 -0.06848,-0.26004 -0.09601,-0.375c-0.02516,-0.10504 -0.0471,-0.20122 -0.078,-0.28499c-0.02814,-0.07626 -0.11064,-0.19939 -0.16866,-0.24034c-0.05959,-0.04207 -0.13089,-0.06985 -0.20401,-0.09599c-0.07423,-0.02655 -0.1503,-0.0482 -0.222,-0.078c-0.0697,-0.02898 -0.1909,-0.11029 -0.23116,-0.16884c-0.04156,-0.06046 -0.06773,-0.13484 -0.08551,-0.21449c-0.01877,-0.08412 -0.02687,-0.17458 -0.03149,-0.26851c-0.00476,-0.09677 -0.00499,-0.29549 -0.00433,-0.39549c0.00067,-0.10001 0.00235,-0.20013 0.0105,-0.3c0.00818,-0.10017 0.02203,-0.20074 0.04649,-0.3c0.02486,-0.10086 0.10655,-0.30167 0.16417,-0.39999c0.05966,-0.10182 0.13069,-0.20047 0.20401,-0.3c0.07402,-0.10046 0.15067,-0.19904 0.222,-0.3c0.06999,-0.09906 0.18925,-0.29857 0.23132,-0.39983c0.04053,-0.09756 0.06908,-0.19554 0.09601,-0.28951c0.02573,-0.08972 0.04764,-0.17578 0.078,-0.25349c0.02853,-0.073 0.11061,-0.19495 0.16899,-0.23601c0.0618,-0.04346 0.13971,-0.07375 0.22501,-0.10649c0.09468,-0.03635 0.20113,-0.07343 0.315,-0.12451c0.12631,-0.05666 0.4071,-0.22063 0.73299,-0.46349c0.67645,-0.5041 1.30336,-0.96083 1.70401,-1.20001c1.52609,-0.91104 2.18553,-1.19563 2.86099,-1.5275c0.69518,-0.34155 1.39919,-0.67726 2.091,-1.0125c0.66684,-0.32314 1.29066,-0.63333 2.75616,-1.422l0.7905,-0.54601l0.636,-0.552l0.78,-0.15599" id="svg_1" stroke-width="2" stroke="#000" fill="none"/>
  <path t="4399,4561,4561,4561,4561,4561,4561,4561,4561,4561,4577,4577,4577,4577,4577,4577,4577,4577,4577,4597,4597,4597,4597,4597,4597,4597,4597,4597,4614,4614,4614,4614,4614,4615,4615,4615,4615,4661,4661,4661,4661,4661,4661,4661,4661,4661,4681,4681,4681,4681,4681,4681,4681,4681,4681,4697,4697,4698,4698,4698,4698,4698,4698,4698,4715,4716,4716,4716,4716,4716,4716,4716,4732,4732,4733,4761,4781,4782,4799,4799,4799,4799,4816,4816,4816,4816,4816,4832,4833,4833,4851,4851,4851,4878,4898,4898,4915,4933,4949,4966,4966,4982,4982,4982,4999,4999,4999,5016,5016,5045,5065,5065,5081,5082,5082,5111,5111,5144,5328,5349,5349,5349,5349,5349,5365,5365,5366,5366,5366,5366,5366,5528,5528,5529,5529,5549,5566,5566,5583,5583,5583,5583,5599,5599,5599,5599,5616,5616,5616,5616,5616,5632,5633,5700,5700,5700,5711,5712,5712,5712,5712,5712,5712,5712,5742,5742,5742,5742,5742,5759,5759,5776,5776,5793,5793,5810,5810,5824,5963,5963,5964,5988,5988,5988,5988,5988,5988,5988,5988,5988,6006,6006,6006,6006,6007,6007,6007,6007,6007,6057,6057,6057,6082,6083,6083,6083,6083,6089,6090,6090,6100,6100,6100,6118,6119,6119,6134,6134,6135,6135,6150,6151,6168,6186,6246,6247,6272,6282,6282,6282,6283,6412,6413,6463,6463" d="m168,189.08334c8.66667,-4.5 10.14273,-5.29147 11.75067,-6.16c1.71509,-0.92641 3.50829,-1.89946 5.3535,-2.9025c1.8708,-1.01695 3.73914,-2.03474 5.57849,-3.03751c3.48427,-1.89951 5.08101,-2.77007 6.576,-3.588c1.40398,-0.76813 2.72536,-1.49356 3.9705,-2.187c1.18279,-0.65869 2.31042,-1.29207 3.3855,-1.91701c2.05862,-1.19667 3.04413,-1.80368 4.00932,-2.40533c0.94612,-0.58977 1.8636,-1.17789 2.75101,-1.761c0.86186,-0.56633 1.69051,-1.12274 2.481,-1.67099c1.48332,-1.02875 2.15979,-1.52463 2.8,-1.99867c0.60835,-0.45044 1.1808,-0.8866 1.71899,-1.30949c0.51237,-0.4026 0.9957,-0.79271 1.44901,-1.17451c0.8484,-0.71457 1.23424,-1.06442 1.60266,-1.39999c0.35152,-0.32019 0.68108,-0.62953 0.99001,-0.92549c0.29102,-0.27879 0.56059,-0.54306 0.81,-0.79051c0.44106,-0.43759 0.62993,-0.62958 0.804,-0.80133c0.15898,-0.15686 0.30659,-0.30019 0.4485,-0.429c0.13419,-0.1218 0.26642,-0.23601 0.40349,-0.339c0.27893,-0.20959 0.43872,-0.30292 0.60133,-0.40532c0.16872,-0.10626 0.34364,-0.21539 0.51601,-0.339c0.17711,-0.12701 0.35573,-0.26407 0.51601,-0.429c0.33585,-0.3456 0.46782,-0.56912 0.59999,-0.79868c0.13673,-0.23746 0.25963,-0.49153 0.384,-0.7515c0.12631,-0.26402 0.32784,-0.83249 0.98267,-1.7925c0.45868,-0.67244 0.88364,-1.24095 1.51733,-2.16583c0.52023,-0.75929 1.24438,-1.1245 2,-1.6875c0.6293,-0.4689 1.267,-1.08574 1.77066,-1.52c0.86356,-0.74458 1.53467,-1.26599 2.22934,-1.81332c0.69467,-0.54735 1.03694,-0.8101 2.23067,-1.81201c0.51012,-0.42815 1.1698,-1.08253 2.19034,-1.44516c0.75735,-0.2691 1.57317,-0.15977 2.49232,-0.66817c0.71591,-0.39598 1.46175,-0.7281 2.13484,-1.222c0.7019,-0.51503 1.42787,-0.96738 2.27333,-1.23134c0.86023,-0.26857 1.88512,-0.32529 2.48917,-0.55733c0.88486,-0.33992 1.87296,-0.76147 2.40399,-0.964c0.77693,-0.29631 1.77496,-0.86444 2.47633,-1.24283c0.86795,-0.46826 1.72328,-0.81277 2.27968,-1.24384c0.78757,-0.61015 1.53397,-1.1068 2.02399,-1.46066c1.04346,-0.75356 1.71942,-1.17821 1.9845,-2.15266c0.23148,-0.85088 0.85687,-1.19398 1.81567,-1.08568c0.40796,0.04609 1.33035,0.20785 2.38251,0.38834c1.15585,0.19827 1.76462,0.29953 2.388,0.396c1.26328,0.19548 1.89261,0.28349 2.51199,0.36534c1.18326,0.15637 2.25549,0.27548 3.17734,0.35199c0.76892,0.06381 1.94144,-0.28801 2.57382,0.44568c0.63666,0.73866 0.21024,1.68933 0.00485,2.80499c-0.14801,0.804 -0.35776,1.37395 -0.63467,2.32001c-0.30258,1.03371 -0.50104,1.76987 -0.69867,2.53416c-0.20245,0.78304 -0.50192,1.9787 -0.69867,2.7765c-0.19257,0.78087 -0.38159,1.52736 -0.51599,2.23199c-0.22769,1.19373 -0.19522,1.91193 -0.28616,2.9505c-0.05881,0.6714 -0.41235,1.50807 -0.83252,2.3535c-0.57114,1.14922 -0.93637,1.79393 -1.31467,2.48c-0.39093,0.709 -0.79407,1.42189 -1.203,2.1225c-0.39651,0.67935 -1.14087,1.90288 -1.48431,2.4135c-0.57523,0.85521 -1.06696,1.49683 -1.49402,1.96201c-0.76041,0.82825 -1.38214,1.43053 -1.87198,2.17267c-0.44955,0.68108 -1.10123,1.52098 -1.79868,1.99516c-0.81268,0.55254 -1.43753,1.03403 -1.94733,1.81633c-0.45029,0.69096 -1.13559,0.93608 -1.96335,1.30051c-1.2626,0.55585 -2.0675,0.95197 -2.98267,1.392c-0.99654,0.47917 -2.04619,0.99033 -3.12749,1.51201c-1.08537,0.52365 -2.14848,1.03816 -3.1725,1.51199c-1.80113,0.8334 -2.5464,1.14325 -3.18134,1.39467c-0.53311,0.21109 -0.98343,0.37126 -1.35451,0.50999c-0.30746,0.11496 -0.57832,0.19267 -0.7695,0.33c-0.70677,0.50774 -1.03239,1.33781 -1.42549,1.86684c-0.6897,0.92819 -1.40096,1.49843 -2.17717,2.06517c-0.3933,0.28717 -1.20047,0.78825 -2.23199,1.48799c-0.75183,0.51001 -1.40808,1.07922 -1.98817,1.65483c-0.70204,0.69661 -1.08299,1.08301 -1.87866,1.87868c-0.6105,0.61049 -1.25746,1.25653 -1.96651,1.96649c-0.515,0.51567 -1.06621,1.02184 -1.76633,1.8235c-0.73392,0.84036 -1.02747,1.61298 -1.67767,2.03517c-0.74625,0.48454 -1.41649,1.16791 -2.08932,1.61749c-0.77443,0.51746 -1.64771,0.84044 -2.30534,1.41968c-0.50604,0.44572 -0.98932,0.93666 -1.85182,1.79433l-0.62201,0.58067l-0.842,0.44083l-0.8175,0.075" id="svg_2" stroke-width="2" stroke="#000" fill="none"/>
  <path t="7257,7348,7348,7348,7349,7349,7349,7349,7349,7349,7363,7363,7363,7363,7363,7363,7363,7363,7364,7383,7383,7383,7384,7384,7384,7384,7384,7384,7399,7400,7400,7400,7400,7400,7400,7400,7400,7418,7418,7418,7418,7418,7434,7451,7451,7451,7469,7469,7469,7469,7485,7485,7485,7485,7502,7502,7502,7502,7519,7519,7519,7535,7535,7552,7569,7569,7569,7585,7586,7601,7630,7651,7651,7668,7668,7702,7719,7735,7752,7752,7769,7769,7797,7818,7834,7853,7869,7869,8007,8007,8047,8047,8048,8073,8073,8084,8084,8084,8084,8084,8084,8084,8102,8103,8103,8103,8103,8103,8103,8103,8119,8119,8119,8119,8119,8119,8119,8136,8136,8136,8136,8154,8154,8156,8156,8168,8192,8193,8202,8202,8218,8219,8239,8239,8239,8254,8254,8255,8255,8275,8275,8275,8275,8275,8286,8286,8286,8286,8304,8304,8304,8304,8319,8337,8338,8355,8355,8356,8371,8371,8371,8371,8371,8393,8393,8393,8393,8393,8393,8393,8393,8403,8403,8403,8403,8403,8403,8403,8403,8421,8421,8421,8421,8421,8421,8422,8436,8437,8437,8437,8454,8454,8455,8455,8566,8566,8598,8598,8598,8598" d="m165,198.08334c-4.16667,2.66666 -5.30818,3.53899 -6.60001,4.54933c-1.41673,1.10803 -2.91527,2.29623 -4.46249,3.534c-1.56613,1.25287 -3.11215,2.49799 -4.5975,3.714c-2.68024,2.19424 -3.79944,3.14026 -4.77333,3.97733c-0.85068,0.73116 -1.58337,1.37895 -2.21249,1.9545c-0.55048,0.5036 -1.02739,0.95723 -1.44751,1.36951c-0.74425,0.73036 -1.08501,1.07965 -1.42,1.41466c-0.325,0.32501 -0.64,0.64 -0.94499,0.94501c-0.295,0.295 -0.58,0.58 -0.85501,0.855c-0.52,0.51999 -0.76463,0.76553 -1.00133,1c-0.22766,0.22552 -0.44798,0.44144 -0.66451,0.645c-0.20886,0.19638 -0.41304,0.38388 -0.61949,0.55499c-0.3952,0.32755 -0.59975,0.46701 -0.79868,0.60133c-0.19247,0.12996 -0.83067,0.38011 -1.49733,1.18533c-0.52682,0.63632 -1.18127,1.2227 -1.79333,1.67067c-0.75069,0.54942 -1.26961,1.03868 -1.83282,1.55017c-0.58414,0.53049 -1.76934,1.57062 -2.37917,2.0175c-0.59075,0.43291 -1.18327,0.83171 -2.1,1.295c-0.88051,0.44499 -1.50158,0.62123 -2.31467,1.05066c-1.0302,0.54408 -1.65267,1.10649 -2.19867,1.632c-0.74196,0.71411 -1.22114,1.35762 -2.02833,1.98401c-0.73974,0.57405 -1.46793,0.78963 -2.20767,1.09999c-0.92282,0.38716 -1.66986,0.91205 -2.198,1.6955c-0.47254,0.70097 -1.16398,1.13985 -1.65266,1.88985c-0.5118,0.78548 -1.15544,1.33914 -1.37917,2.31467c-0.20123,0.87746 -0.02084,1.80449 -0.02084,2.66666c0,0.83334 0,1.81183 0,2.632c0,0.90134 -0.00533,1.80135 0,2.70134c0.00533,0.90004 0.30672,1.6857 0.80133,2.38533c0.53114,0.75128 0.94627,1.54848 1.74133,2.093c0.66101,0.45271 1.43317,0.74463 2.49467,0.93633c0.74889,0.13524 1.96267,0.08534 2.39167,0.08534c1.014,0 1.587,0 2.196,0c1.302,0 1.983,0 3.375,0c0.7,0 1.4,0 2.1,0c1.4,0 2.1,0 2.8,0c0.70001,0 2.10001,0 2.79935,0c0.69533,0 2.058,0 2.71733,0c0.63933,0 1.25467,0 2.91666,0c0.92534,0 1.72267,0 2.42401,0c1.24266,0 1.84,0 2.70099,0c0.77101,0 1.90692,0.08832 2.86301,-0.22151c0.70563,-0.22865 1.54048,-0.74371 2.15784,-1.27849c0.76091,-0.65915 1.31561,-1.23915 2.29016,-1.70134c0.48311,-0.22911 1.32338,-0.48712 2.30949,-1.12033c0.74066,-0.47562 1.17935,-0.92868 1.69051,-1.36501c0.86819,-0.7411 1.54147,-1.26926 2.2515,-1.83417c0.73201,-0.5824 1.11081,-0.86388 2.1575,-1.77899c0.66931,-0.58519 1.28323,-1.17603 1.86,-1.74301c0.7995,-0.78593 1.27499,-1.27051 1.92,-1.9155c0.55501,-0.55499 1.4122,-1.3992 2.04167,-2.04166c0.50529,-0.51572 1.07117,-1.34135 1.5625,-2.04167c0.46645,-0.66483 1.19487,-1.38847 1.81351,-1.9245c0.6992,-0.60582 1.0977,-0.90976 1.91333,-1.60583c0.88358,-0.75407 1.33661,-1.16626 1.79466,-1.60001c0.951,-0.90054 1.41998,-1.3867 1.89067,-1.88533c0.47672,-0.50502 0.96097,-1.01427 1.85866,-2.10933c0.90273,-1.10121 1.31512,-1.68518 1.74133,-2.25867c0.42645,-0.57384 0.84843,-1.15102 1.278,-1.722c0.42909,-0.57036 1.30107,-1.69711 2.22867,-2.76334c0.45605,-0.5242 0.92027,-1.02359 1.377,-1.506c0.44203,-0.46687 1.28595,-1.32706 2.04167,-2.08333c0.64444,-0.64491 1.18575,-1.21051 1.94366,-1.88651c0.70764,-0.63116 1.50325,-1.21074 2.03551,-1.59267c0.74974,-0.53796 1.53555,-1.16167 2.20749,-1.64616c0.7925,-0.57143 1.67584,-1.03185 2.33417,-1.39551l0.67834,-0.38367" id="svg_3" stroke-width="2" stroke="#000" fill="none"/>
  <path t="10681,10751,10767,10767,10787,10787,10787,10787,10804,10804,10804,10804,10822,10822,10822,10822,10823,10823,10823,10839,10839,10839,10839,10855,10856,10856,10872,10872,10872,10872,10888,10889,10889,10889,10889,10905,10906,10906,10906,10906,10906,10925,10925,10925,10925,10925,10925,10925,10925,10949,10949,10949,10949,10959,10959,10960,10960,10960,10968,10968,10968,10968,10984,10984,10984,10984,10984,11004,11004,11005,11005,11005,11021,11021,11021,11021,11021,11039,11039,11039,11039,11055,11055,11055,11055,11072,11072,11072,11088,11089,11089,11105,11122,11122,11138,11138,11157,11184,11317,11318,11318,11338,11338,11354,11372,11372,11372,11389,11389,11406,11406,11406,11422,11422,11438,11438,11456,11456,11470,11470,11471,11471,11489,11490,11506,11506,11506,11534,11535,11535,11634,11654,11655,11655,11671,11672,11672,11672,11672,11672,11672,11689,11690,11690,11690,11690,11690,11690,11709,11709,11709,11710,11710,11710,11724,11724,11724,11724,12102,12102,12103,12103,12122,12122,12122,12122,12122,12123,12123,12123,12123,12150,12150,12151,12151,12151,12151,12151,12151,12151,12169,12169,12169,12169,12169,12169,12169,12169,12169,12421,12421,12421,12421,12421,12421,12421,12422,12422,12436,12436,12436,12436,12436,12436,12437,12437,12437,12583,12583,12583,12583,12583,12584,12584,12584,12584,12685,12685,12685,12685,12685,12685,12686,12686,12686,12687,12687,12687,12687,12688,12688,12688,12688,12688,12714,12715,12715,12715,12715,12715,12715,12715,12715,12742,12742,12742,12742,12742,12742,12742,12742,12742,12790,12790,12791,12791,12791,12791,12791,12791,12791,13003,13003,13003,13003,13003,13003,13004,13004,13004,13024,13024,13024,13024,13024,13024,13025,13025,13025,13041,13041,13041,13041,13041,13041,13042,13042,13042,13057,13057,13058,13058,13058,13058,13058,13058,13058,13077,13077,13077,13077,13077,13077,13077,13078,13078,13091,13091,13091,13092,13092,13092,13092,13092,13092,13109,13109,13109,13109,13109,13109,13110,13110,13110,13154,13154,13154,13154,13154,13155,13155,13155,13155,13178,13179,13179,13179,13179,13179,13179,13179,13180,13190,13190,13190,13190,13190,13191,13191,13191,13191,13209,13209,13209,13209,13210,13210,13210,13210,13210" d="m418,190.08334c0,-3.33867 0,-4.32167 0,-5.04167c0,-1.125 0,-1.92 0,-2.80501c0,-0.64 -0.0159,-1.67563 0.01349,-2.41949c0.03149,-0.79721 0.09912,-1.66765 0.48651,-3.06717c0.1427,-0.51559 0.55826,-1.56929 0.78665,-2.10666c0.22995,-0.541 0.71481,-1.59647 0.94669,-2.10667c0.62985,-1.38586 0.9567,-2.17563 1.22501,-2.87c0.3446,-0.89185 0.6138,-1.67532 1.0625,-2.58333c0.34338,-0.69485 0.78644,-1.43095 1.32584,-2.23601c0.38974,-0.58167 0.82202,-1.18033 1.57498,-2.06433c0.52762,-0.61945 1.12177,-1.23972 1.73999,-1.914c0.32593,-0.35548 1.36292,-1.52626 1.72369,-1.95767c0.75708,-0.9053 1.13763,-1.38882 1.52533,-1.88533c0.396,-0.50714 1.59174,-2.1076 1.98883,-2.66367c0.39893,-0.55861 0.78973,-1.1208 1.16849,-1.683c0.37222,-0.55252 1.06937,-1.62364 1.37601,-2.14133c0.81531,-1.37651 1.20428,-2.17957 1.4935,-2.91301c0.26749,-0.67833 0.5665,-1.70723 0.76251,-2.427c0.20413,-0.74954 0.40097,-1.52509 0.59998,-2.31599c0.30151,-1.1983 0.5,-1.99867 0.70001,-2.79866c0.20001,-0.8 0.5,-2 0.70001,-2.8c0.19998,-0.8 0.39993,-1.60002 0.59998,-2.40001c0.30008,-1.20003 0.39392,-1.60197 0.61069,-2.39999c0.21786,-0.80206 0.44827,-1.60994 0.91064,-2.8c0.3136,-0.80713 0.68289,-1.59818 1.026,-2.4c0.17078,-0.3991 0.64783,-1.59453 0.89102,-2.3955c0.23648,-0.77885 0.44522,-1.54049 0.64032,-2.98299c0.08951,-0.66185 0.08688,-1.30447 0.20535,-2.22017c0.15613,-1.20671 0.32654,-1.79909 0.62048,-2.64417c0.36414,-1.04688 0.73215,-1.69196 1.01016,-2.4705c0.3454,-0.96727 0.53439,-1.98895 0.896,-2.66133c0.44571,-0.82873 1.03406,-1.52 1.38934,-2.32533c0.35455,-0.80367 0.88303,-1.65886 0.96399,-2.336c0.09097,-0.7607 0.03601,-1.7595 0.03601,-2.67867c0,-1.00617 0,-1.81867 0,-2.736c0,-0.744 0,-1.78133 0,-2.55467c0,-0.964 0,-1.7155 0,-2.512c0,-1.22099 0,-2.021 0,-2.93449c0,-0.7175 0,-1.7625 0,-2.5695c0,-1.17867 0,-1.77733 0,-2.65783c0,-0.8355 0,-1.83684 0,-2.74617c0,-0.94133 0,-1.72733 0,-2.54933c0,-1.05867 0.01639,-1.97884 0,-2.73867c-0.02084,-0.9665 -0.55539,-1.73252 -1.14584,-1.98666c-0.85703,-0.36888 -2.16101,-0.60345 -2.68082,-0.7c-0.5585,-0.10372 -1.77728,-0.30146 -2.42667,-0.4c-0.66895,-0.1015 -1.35327,-0.20042 -2.74667,-0.4c-0.69965,-0.10021 -2.09109,-0.29943 -2.77866,-0.4c-0.67978,-0.09943 -1.3497,-0.19761 -2.00702,-0.3c-1.88205,-0.29317 -2.47147,-0.39731 -3.04099,-0.5c-1.08096,-0.1949 -1.59238,-0.28892 -2.55002,-0.5c-1.29337,-0.28507 -2.05179,-0.50182 -2.75131,-0.68934c-0.96185,-0.25784 -1.87051,-0.45641 -2.79449,-0.5625c-0.68069,-0.07816 -1.46753,-0.13242 -2.91086,-0.3815c-0.57736,-0.09963 -1.20441,-0.23676 -1.88849,-0.3855c-0.74396,-0.16176 -1.54889,-0.34421 -2.41949,-0.5385c-0.93839,-0.20941 -1.94626,-0.43884 -4.19202,-0.90933c-1.23621,-0.259 -2.5369,-0.51823 -3.88348,-0.7815c-1.37473,-0.26878 -2.76196,-0.53291 -4.1445,-0.7905c-1.35983,-0.25337 -2.68018,-0.4985 -5.13867,-0.92799c-1.10532,-0.1931 -2.12628,-0.36387 -3.0675,-0.5145c-0.86545,-0.1385 -1.66125,-0.25919 -2.39249,-0.3615c-0.67047,-0.0938 -1.28561,-0.17926 -2.37335,-0.29067c-0.48056,-0.04922 -0.9277,-0.08492 -1.34698,-0.10049c-0.39682,-0.01475 -0.77853,-0.01182 -1.14902,0.01649c-0.36768,0.0281 -0.74088,0.0676 -1.504,0.25067c-0.4133,0.09914 -0.84659,0.23622 -1.29898,0.4125c-0.48682,0.18969 -0.99911,0.42982 -1.53302,0.7275c-0.57959,0.32314 -1.2049,0.69173 -2.50131,1.69333c-0.73782,0.57003 -1.51468,1.25967 -2.34302,2.0865c-0.94495,0.94322 -1.96698,2.08578 -3.08099,3.4455c-1.27756,1.55934 -2.70084,3.37653 -5.90933,7.96799c-1.91296,2.73753 -3.91422,5.77914 -6.01651,9.015c-2.17682,3.35058 -4.34793,6.77024 -6.47549,10.18501c-2.06982,3.32211 -4.04724,6.47809 -7.34134,12.13333c-1.3493,2.31647 -2.46222,4.32999 -3.34198,6.096c-0.75934,1.52429 -1.35651,2.89249 -1.79401,4.152c-0.40506,1.1661 -0.7114,2.32207 -1.19733,4.75201c-0.27036,1.3519 -0.51813,2.79939 -0.77701,4.30499c-0.26385,1.53441 -0.51685,3.06966 -0.759,4.575c-0.23242,1.44467 -0.44778,2.79922 -0.79733,5.12001c-0.13751,0.91302 -0.2467,1.66629 -0.32849,2.28c-0.0657,0.49304 -0.11276,0.88632 -0.1395,1.2c-0.02158,0.25308 -0.03,0.46664 -0.03201,0.85333c-0.00107,0.20934 0,0.43466 0,0.672c0,0.24533 0,0.49467 0,0.744c0,0.24533 0.00018,0.48267 0,0.91733c-0.00009,0.19051 0.0004,0.36404 -0.00449,0.5235c-0.00455,0.14856 -0.01328,0.28938 -0.03152,0.4245c-0.0181,0.13394 -0.04071,0.27061 -0.13065,0.552c-0.04996,0.15627 -0.11636,0.31775 -0.186,0.48601c-0.07166,0.1731 -0.14783,0.34712 -0.22202,0.52199c-0.07315,0.17245 -0.14957,0.33841 -0.25867,0.65868c-0.04926,0.14461 -0.08502,0.28642 -0.1185,0.42749c-0.03455,0.1456 -0.06763,0.30202 -0.1095,0.4725c-0.04697,0.19122 -0.10022,0.40916 -0.272,0.93333c-0.10556,0.3221 -0.23981,0.68509 -0.39899,1.09351c-0.17917,0.45975 -0.38986,0.9702 -0.633,1.5345c-0.26923,0.62483 -0.57071,1.31171 -1.30133,2.87199c-0.41516,0.88663 -0.87567,1.83681 -1.371,2.8515c-0.52591,1.07738 -1.08649,2.21143 -1.677,3.4005c-0.61679,1.24194 -1.26117,2.53209 -2.61868,5.248c-0.70856,1.41754 -1.42993,2.8597 -2.15399,4.3125c-0.72128,1.4472 -1.43069,2.87431 -2.11801,4.2675c-0.66199,1.34184 -1.29462,2.61554 -2.39465,4.92c-0.4747,0.99443 -0.88956,1.88878 -1.24799,2.69101c-0.31842,0.71266 -0.59058,1.34857 -0.81601,1.91699c-0.19931,0.50252 -0.37454,0.94939 -0.60266,1.72534c-0.09796,0.33322 -0.16711,0.64201 -0.22351,0.924c-0.05133,0.25677 -0.0885,0.49274 -0.12451,0.70799c-0.03302,0.19742 -0.05093,0.38361 -0.15198,0.70134c-0.04703,0.14787 -0.1145,0.28377 -0.19052,0.4095c-0.0748,0.1237 -0.1615,0.23814 -0.25348,0.3465c-0.09171,0.10802 -0.19009,0.20992 -0.38934,0.41068c-0.09952,0.10028 -0.19946,0.19923 -0.2955,0.29999c-0.09464,0.09926 -0.18549,0.1985 -0.26849,0.3c-0.08063,0.09857 -0.16196,0.19371 -0.26935,0.40001c-0.05066,0.09732 -0.08466,0.19913 -0.1095,0.29999c-0.02444,0.09926 -0.03632,0.20001 -0.04648,0.3l-0.0062,0.10001l-0.00314,0.09999" id="svg_4" stroke-width="2" stroke="#000" fill="none"/>
  <path t="14209,14288,14288,14288,14288,14304,14304,14304,14304,14304,14304,14304,14304,14325,14325,14325,14325,14325,14325,14325,14325,14325,14341,14341,14341,14341,14341,14341,14341,14341,14341,14359,14359,14359,14359,14359,14359,14359,14359,14359,14376,14376,14376,14376,14376,14376,14376,14376,14376,14392,14392,14393,14393,14393,14393,14393,14393,14393,14417,14417,14417,14417,14417,14417,14417,14417,14417,14425,14425,14425,14425,14425,14425,14425,14425,14425,14442,14443,14443,14443,14443,14443,14443,14443,14443,14459,14459,14459,14459,14459,14459,14459,14459,14459,14475,14475,14475,14475,14475,14475,14492,14492,14492,14492,14492,14492,14492,14492,14509,14509,14509,14510,14510,14510,14525,14526,14526,14526,14526,14526,14526,14543,14543,14543,14543,14559,14559,14587,14609,14625,14625,14739,14740,14788,14788,14808,14808,14825,14825,14855,14880,14880,14890,14890,14890,14891,14891,14891,14891,14891,14915,14915,14915,14915,14915,14915,14915,14915,14915,14925,14926,14926,14926,14926,14926,14926,14926,14926,14992,14992,14992,14992,14993,14993,14993,14993,14993,15008,15008,15008,15009,15032,15032,15032,15032,15032,15043,15043,15043,15043,15043,15043,15043,15060,15060,15060,15060,15076,15076,15093,15093,15093,15093,15094,15094,15112,15112,15112,15112,15112,15113,15113,15126,15126,15126,15126,15126,15127,15127,15155,15155,15224,15225,15241,15265,15265,15265,15276,15276,15276,15293,15294,15317,15317,15328,15328,15424,15424,15424,15424,15425,15425,15426,15426,15426,15426,15426,15426,15442,15442,15442,15442,15442,15442,15443,15443,15443,15460,15460,15460,15460,15460,15460,15460,15460,15461,15507,15507,15507,15507,15507,15507,15507,15507,15508,15569,15569,15569,15569,15569,15569,15569,15569,15569,15600,15600,15600,15600,15600,15601,15601,15601,15601,15610,15611,15611,15611,15611,15611,15611,15611,15611,15622,15623,15623,15623,15623,15623,15623,15623,15624,15639,15639,15639,15640,15640,15640,15640,15640,15640,15661,15662,15662,15662,15662,15662,15662,15663,15663,15890,15890,15890,15890,15890,15890,15891,15891,15891,15912,15912,15912,15912,15912,15912,15912,15913,15913,15928,15928,15929,15929,15929,15929,15929,15929,15929,15944,15944,15944,15944,15944,15944,15944,15945,15945,15961,15962,15962,15962,15962,15962,15963,15963,15963" d="m301,252.08334c-1.77335,1.77333 -2.29333,2.29332 -2.89334,2.89333c-0.67999,0.67999 -1.44092,1.43907 -1.84982,1.85017c-0.87766,0.88239 -1.34177,1.35834 -1.81934,1.86066c-0.49719,0.52295 -1.00912,1.07144 -1.52551,1.65451c-1.0903,1.23111 -1.63593,1.9035 -2.19733,2.59467c-0.57434,0.70712 -1.15036,1.43356 -1.7355,2.16748c-0.58951,0.73941 -1.17856,1.48251 -1.78049,2.21252c-1.18866,1.44162 -1.79553,2.12646 -2.39734,2.79733c-0.59393,0.66211 -1.19077,1.30789 -1.78049,1.94849c-0.58493,0.63541 -1.16901,1.26422 -1.7355,1.9035c-1.12943,1.27454 -1.6702,1.93503 -2.20267,2.61066c-0.54068,0.68604 -1.07446,1.40207 -1.60352,2.1525c-0.54721,0.77615 -1.09808,1.59589 -1.6485,2.4675c-1.18369,1.87442 -1.77737,2.91266 -2.39865,3.99335c-0.64154,1.11594 -1.28479,2.2655 -1.93201,3.435c-0.65146,1.17715 -1.29504,2.35648 -1.93201,3.52499c-1.23535,2.26627 -1.82458,3.34729 -2.396,4.39069c-0.55292,1.00961 -1.08984,1.9877 -1.6095,2.93848c-0.50568,0.92523 -0.99844,1.82788 -1.47449,2.7135c-0.92548,1.7218 -1.36807,2.56769 -1.80002,3.40134c-0.42368,0.81769 -0.8327,1.62033 -1.22549,2.40601c-0.38181,0.7637 -0.74719,1.50562 -1.09052,2.22601c-0.64532,1.35416 -0.93164,1.99139 -1.19998,2.59998c-0.25583,0.5802 -0.49237,1.13745 -0.7095,1.67401c-0.20807,0.51419 -0.401,1.01096 -0.57449,1.49399c-0.33026,0.91953 -0.46768,1.36719 -0.604,1.80136c-0.13232,0.42151 -0.25644,0.83139 -0.384,1.22549c-0.12317,0.38052 -0.24323,0.74738 -0.384,1.09048c-0.26511,0.64615 -0.43184,0.9328 -0.60133,1.20401c-0.16635,0.26617 -0.34906,0.51852 -0.53549,0.76801c-0.18823,0.25189 -0.38748,0.50253 -0.58051,0.76801c-0.40678,0.55948 -0.60286,0.87299 -0.80133,1.20532c-0.42703,0.71509 -0.86653,1.52158 -1.11166,1.95001c-0.80977,1.41528 -1.12717,1.92023 -1.45367,2.44598c-0.33612,0.54126 -1.03389,1.65033 -1.38133,2.216c-0.34723,0.56534 -0.71379,1.11502 -1.60783,2.79333c-0.28346,0.53214 -0.5401,1.0654 -1.022,2.12134c-0.23901,0.52374 -0.45966,1.05685 -1.1875,2.66666c-0.25128,0.55579 -0.51448,1.11539 -1.04799,2.23734c-0.26376,0.55469 -0.53052,1.09561 -1.01601,2.14133c-0.44196,0.95193 -0.80081,1.79514 -1.09734,2.52533c-0.36566,0.90045 -0.81953,1.75781 -1.23599,2.508c-0.49474,0.8912 -0.91251,1.65247 -1.31467,2.52136c-0.30641,0.66202 -0.86841,1.4379 -1.08534,2.31064c-0.21989,0.88464 -0.0464,1.61023 -0.036,2.58936c0.01042,0.97931 -0.00885,1.97736 0.61067,2.55331c0.65166,0.60583 1.72475,0.43024 2.4895,0.561c1.07318,0.1835 1.55249,0.32352 2.72249,0.60901c0.68347,0.16678 1.42789,0.35788 2.23201,0.57001c0.86325,0.22772 1.78333,0.4729 3.77866,1.03998c1.07443,0.30536 2.18657,0.6337 3.33,0.9675c1.16322,0.33957 2.33572,0.6817 3.51001,1.01251c1.16241,0.32748 2.30069,0.65747 4.49332,1.18668c1.02252,0.2468 2.00018,0.44992 2.9295,0.62848c0.8801,0.16913 1.71594,0.31146 2.5065,0.43951c0.74582,0.12082 1.45065,0.22 2.73068,0.43201c0.58078,0.09619 1.12177,0.19653 1.62448,0.2955c0.46658,0.09183 0.89648,0.18298 1.2915,0.26849c0.3613,0.07822 0.68826,0.15588 1.25067,0.26932c0.23575,0.04755 0.44958,0.08093 1.21201,0.19202c0.95499,0.13913 2.02563,0.33191 2.45334,0.41068c0.94928,0.17484 1.46564,0.27631 3.168,0.564c0.60837,0.10281 1.23087,0.19864 2.48532,0.39999c0.61893,0.09933 1.22522,0.18597 2.35733,0.39999c0.99307,0.18774 1.80173,0.38467 2.71985,0.67917c0.70099,0.22485 1.72214,0.46838 2.44815,0.54617c1.32263,0.14172 1.74277,0.19098 2.68466,0.33182c1.05557,0.15784 1.61414,0.25275 2.18933,0.34735c1.78241,0.29315 2.38184,0.39731 2.98334,0.49417c1.20871,0.19464 1.81906,0.28381 2.43466,0.36533c0.62076,0.08218 2.53036,0.27386 3.18451,0.31448c0.65656,0.04077 1.30948,0.07178 2.57535,0.10068c0.59875,0.01367 1.16565,0.01859 2.60416,0.02084c0.957,0.0015 2.00073,0.03436 2.79999,0c0.83832,-0.03604 1.71463,-0.54172 2.20001,-1.0625c0.55286,-0.59317 1.11575,-1.6203 1.37466,-2.15216c0.37762,-0.7757 0.90387,-1.6944 1.62534,-2.24368c0.7908,-0.60205 1.48428,-1.03641 2.20132,-1.74301c0.55988,-0.55176 1.12555,-1.11639 1.67734,-1.68799c0.48013,-0.49738 1.06854,-1.13461 1.78799,-1.944c0.88565,-0.99637 1.38168,-1.57806 1.92001,-2.21066c0.58179,-0.68365 1.202,-1.42365 1.85999,-2.2215c0.70218,-0.85141 2.22223,-2.73273 3.03885,-3.763c0.85419,-1.07764 1.73172,-2.19943 2.6265,-3.3555c0.91092,-1.17691 1.8248,-2.37039 2.7345,-3.5715c0.90497,-1.19489 2.65591,-3.54272 3.48849,-4.67932c0.80734,-1.10214 1.58194,-2.17432 2.32501,-3.21451c0.71686,-1.00351 1.4014,-1.97369 2.05499,-2.90851c0.62634,-0.89587 1.7847,-2.57571 2.32184,-3.35733c0.51752,-0.75305 1.02399,-1.4903 1.5405,-2.21552c0.5231,-0.73447 1.07306,-1.48294 1.6665,-2.2515c0.62891,-0.81442 2.08499,-2.58838 2.9295,-3.57016c0.9151,-1.06387 1.91898,-2.19821 3,-3.41699c1.15894,-1.30661 2.40179,-2.69974 3.72,-4.19101c1.40192,-1.58597 4.4436,-5.06992 6.07584,-6.97284c1.69458,-1.97562 3.41406,-4.00363 5.13748,-6.0495c1.70822,-2.0278 3.3685,-4.01312 4.95752,-5.92349c1.49753,-1.80038 4.10434,-4.95898 5.1705,-6.26401c0.9176,-1.12317 1.69974,-2.08963 2.36398,-2.9205c0.56949,-0.71231 1.05685,-1.33133 1.48199,-1.8765c0.38278,-0.49088 1.08493,-1.40033 1.44086,-1.854c0.36273,-0.46234 0.73337,-0.92886 1.11447,-1.39349c0.38257,-0.4664 0.77109,-0.92715 1.16852,-1.37549c0.39328,-0.44366 1.19119,-1.28098 1.59549,-1.66699c0.39581,-0.37793 0.79803,-0.73529 1.20001,-1.08151c0.39804,-0.3428 0.80023,-0.67572 1.19998,-1.00949c0.40027,-0.33423 1.20218,-1.01608 1.59967,-1.37302c0.39987,-0.35904 0.79276,-0.72549 1.17902,-1.09351c0.38107,-0.36304 0.75003,-0.72327 1.10699,-1.0755c0.34436,-0.33978 0.98126,-0.97623 1.27118,-1.26682c0.27142,-0.27206 0.52551,-0.52753 0.7605,-0.771c0.22128,-0.22928 0.42752,-0.44873 0.61649,-0.66302c0.1803,-0.20447 0.50229,-0.60699 0.64465,-0.80881c0.13892,-0.19693 0.26566,-0.39487 0.38553,-0.58951c0.11642,-0.18906 0.22485,-0.37494 0.33148,-0.5535c0.10275,-0.17209 0.30283,-0.49167 0.40451,-0.63602c0.09839,-0.13965 0.20044,-0.27261 0.29999,-0.40649c0.10049,-0.13513 0.20245,-0.27438 0.30002,-0.4245c0.10257,-0.15784 0.3027,-0.52222 0.40015,-0.733c0.1041,-0.22516 0.20407,-0.4671 0.31052,-0.71851c0.10989,-0.25961 0.22226,-0.52539 0.3465,-0.7905c0.12512,-0.26697 0.40469,-0.78458 0.564,-1.02649c0.15683,-0.23816 0.32516,-0.46143 0.4935,-0.67499c0.16272,-0.20642 0.32401,-0.40002 0.47549,-0.58502l0.1405,-0.17499" id="svg_5" stroke-width="2" stroke="#000" fill="none"/>
  <path t="17583,17690,17691,17691,17691,17691,17691,17691,17691,17707,17707,17707,17707,17707,17727,17728,17745,17745,17763,17763,17763,17779,17779,17796,17824,17845,17861,17861,17879,17879,17896,17896,17913,17929,17930,17946,17963,17963,17980,17980,17980,17999,18013,18013,18030,18030,18030,18046,18046,18046,18046,18046,18046,18063,18063,18063,18063,18063,18063,18063,18063,18063,18108,18108,18108,18108,18108,18128,18128,18128,18147,18147,18147,18147,18147,18163,18163,18163,18163,18163,18163,18163,18163,18163,18275,18275,18275,18275,18275,18275,18275,18275,18275,18295,18295,18295,18295,18325,18325,18345,18345,18345,18362,18362,18379,18379" d="m431,205.08334c-1.54251,5.50648 -1.76682,6.21861 -2.00082,6.95883c-0.23932,0.75711 -0.48071,1.51959 -0.71252,2.27849c-0.22647,0.74147 -0.46179,1.44997 -0.78665,2.76268c-0.26755,1.0811 -0.37152,1.54808 -0.46799,2.7c-0.05069,0.60519 -0.03201,1.84283 -0.03201,2.48933c0,1.01083 0,1.8315 0,2.97733c0,0.78151 0,1.57201 0,2.5c0,0.912 0,1.83334 0,2.73334c0,0.89999 -0.00168,1.80266 0,2.57066c0.00226,1.03467 -0.08051,1.80298 0.16666,2.696c0.22913,0.82787 0.66977,1.68039 1.05469,2.43333c0.39017,0.76318 0.72092,1.63606 1.4975,2.1955c0.66864,0.48169 1.69992,0.60953 2.49582,0.6685c0.77402,0.05736 1.81467,0.03601 2.78534,0.03601c0.81433,0 1.77335,0 2.58334,0c0.63998,0 1.75,0 2.59265,0c0.93866,0 1.44901,0 2.56168,0c0.60632,0 1.92899,0 2.64749,0c0.74951,0 1.521,0 2.30551,0c0.78848,0 1.57199,0 2.34149,0c0.74649,0 2.76001,0 3.3385,0c1.02802,0 1.90399,0 2.65201,0c1.20932,0 1.97733,-0.00006 2.74533,0c0.8765,0.00008 1.58698,-0.00185 2.46115,0.02083c1.09457,0.0284 1.74185,0.05833 3.27084,0.14583c0.89255,0.05107 1.8587,0.11678 2.883,0.186c1.06638,0.07207 2.1586,0.14813 3.26102,0.222c1.09625,0.07346 2.17017,0.15018 4.18933,0.25867c0.91528,0.04918 1.76389,0.08394 2.54849,0.1095c0.72345,0.02357 1.38898,0.03804 1.99951,0.04649c0.55844,0.00774 1.06799,0.01001 1.952,0.01068c0.38049,0.00029 0.724,0 1.5625,0c0.9375,0 1.7655,0 2.64682,0c0.70801,0 1.68933,0 2.65201,0l0.77332,0l1.04184,0l0.77551,0" id="svg_6" stroke-width="2" stroke="#000" fill="none"/>
  <path t="19195,19244,19259,19259,19278,19278,19278,19298,19298,19299,19326,19326,19326,19346,19363,19380,19443,19443,19463,19463,19479,19479,19480,19480,19480,19498,19498,19498,19498,19498,19498,19498,19498,19498,19514,19515,19515,19515,19515,19515,19515,19515,19515,19543,19543,19543,19543,19543,19543,19543,19543,19544,19564,19564,19564,19564,19580,19580,19580,19580,19598,19599,19599,19599,19599,19599,19599,19599,19599" d="m442,203.08334c0,1.75716 -0.00006,2.66165 0,3.46165c0.00009,0.95967 -0.03091,1.76709 0.05716,2.58568c0.11172,1.03831 0.41998,1.71236 0.65884,2.63666c0.25476,0.98586 0.27243,1.79498 0.28265,2.54666c0.01489,1.09723 0.00134,1.96935 0.00134,2.86934c0,0.90001 -0.01639,1.83128 0.37067,2.55267c0.40616,0.75694 1.38492,1.34981 2.02335,1.59917c0.76205,0.29764 1.21802,0.40936 2.23666,0.7175c1.20273,0.36383 1.87726,0.57368 2.59998,0.8c0.76862,0.24069 1.58041,0.49513 2.436,0.7515c0.89371,0.26778 1.8248,0.54042 2.79602,0.79649c2.0322,0.5358 3.0993,0.76659 4.18265,0.996c1.08902,0.23062 2.17685,0.44258 3.25052,0.645c1.0477,0.19751 2.06052,0.37904 3.02548,0.55499c1.74564,0.31828 2.50671,0.46321 3.19333,0.60001c0.61935,0.12338 1.17609,0.23975 1.677,0.345c0.45108,0.09477 0.85736,0.18321 1.22702,0.255c0.64691,0.12564 1.21042,0.22314 1.96048,0.26582c0.70267,0.03998 1.71826,0.01683 2.35284,0.03151c0.80286,0.01857 1.83768,0.06943 3.168,0.15599c0.79239,0.05156 1.65735,0.11682 2.57849,0.186c0.96021,0.07211 1.94235,0.14734 2.9295,0.222l0.97516,0.07266l0.94617,0.06866" id="svg_7" stroke-width="2" stroke="#000" fill="none"/>
 </g>
 <g display="none">
  <title>muse_image</title>
  <image xlink:href="http://farm1.static.flickr.com/227/511419871_4b14eb3340.jpg" id="muse" height="426" width="640" y="27" x="0"/>
 </g>
 <g display="none">
  <title>bbox</title>
  <rect stroke="#f00" fill="none" stroke-width="3" height="303.18919" width="348.16" y="102.47748" x="126.72" id="bbox"/>
 </g>
</svg>
