<svg width="640" height="480" xmlns="http://www.w3.org/2000/svg" xmlns:svg="http://www.w3.org/2000/svg" xmlns:xlink="http://www.w3.org/1999/xlink">
 <!-- Sketchy ANNOTATION
  ImageNet ID: n02691156_8228
  URL: http://farm2.static.flickr.com/1252/667898487_003069fb9e.jpg
  Image Width: 500
  Image Height: 333
  BBox X: 1
  BBox Y: 0
  BBox Width: 454
  BBox Height: 333
  Exposure: 2000ms
  Synset Label: airplane
  Synset ID: n02691156
  Worker Tag: airplane flying
  Sanity Check: 
   Context
   Saved
   Shading
  Comment: 
   {}
  Worker ID: AXD2DZ7U6CK35
  Assignment ID: 37C0GNLMHF3UPGHX6X7BD66WBVC6DP
  HIT ID: 3EGKVCRQFWS16JVP8I6VCN746RKYB4
  Work Time: 69s
  Worker Score: 0.9286
 END ANNOTATION -->
 <g display="inline">
  <title>Layer 1</title>
  <path t="0,13,13,13,13,13,13,13,13,13,21,21,21,21,21,21,21,21,21,34,34,34,34,34,34,51,51,51,51,51,67,67,67,67,68,68,84,84,84,84,84,84,101,101,101,101,101,101,101,118,118,118,118,118,118,134,134,134,134,134,151,151,151,151,151,168,168,168,168,183,184,184,184,201,201,201,201,201,201,218,218,218,218,218,218,218,218,218,233,234,234,234,234,234,251,251,251,251,267,268,268,268,284,284,284,284,284,301,301,301,301,301,301,301,301,317,318,318,318,318,318,318,333,334,334,334,334,334,351,351,351,351,351,351,351,351,367,368,368,368,368,368,384,384,384,384,384,401,401,401,401,401,401,418,418,418,418,418,418,418,434,434,434,434,434,434,435,435,451,451,451,451,451,451,468,468,468,468,468,468,468,484,484,484,484,484,484,484,484,501,501,501,501,501,501,501,518,518,518,518,518,534,534,551,568" d="m138,4c0.5,2.5 0.66504,3.54834 0.85201,4.768c0.20715,1.35132 0.42508,2.79584 0.64799,4.2945c0.2251,1.51334 0.44484,3.00259 0.64799,4.4295c0.35698,2.5073 0.48972,3.52074 0.59734,4.372c0.08936,0.70679 0.15697,1.28804 0.213,1.761c0.04538,0.38303 0.07854,0.69509 0.123,0.951c0.07405,0.42612 0.1375,0.62536 0.20401,0.828c0.06906,0.21043 0.16972,0.42136 0.41916,1.1675c0.42871,1.28242 0.59987,2.10003 0.70616,2.5365c0.22505,0.92407 0.45879,1.90063 0.75601,2.892c0.3013,1.00494 0.48511,1.50031 0.83333,2.5c0.17422,0.50016 0.53273,1.49485 0.83333,2.5c0.298,0.9965 0.41856,1.50244 0.64584,2.52083c0.11475,0.51416 0.32336,1.56379 0.52083,2.64584c0.20401,1.11794 0.3007,1.69038 0.39999,2.26933c0.20142,1.17443 0.30022,1.76846 0.40001,2.36533c0.30064,1.79823 0.39917,2.39614 0.5,2.98967c0.19836,1.16761 0.29718,1.73751 0.39999,2.29467c0.29201,1.5825 0.49782,2.54415 0.60001,3c0.19583,0.87361 0.3987,1.70565 0.7,2.91433c0.19914,0.79888 0.39702,1.59011 0.60001,2.364c0.1971,0.75143 0.49718,1.81552 0.79999,2.81067c0.19817,0.65123 0.40909,1.30676 0.70001,2.347c0.20645,0.73822 0.40544,1.51868 0.59999,2.34c0.30865,1.30298 0.50066,2.22812 0.60901,2.709c0.22841,1.01364 0.34741,1.55221 0.66167,2.68667c0.34558,1.24752 0.56932,1.90755 0.79733,2.59467c0.23459,0.70692 0.48267,1.424 0.73199,2.148c0.24933,0.724 0.50162,1.4397 0.73199,2.148c0.64435,1.98109 0.80392,2.59264 0.94917,3.17599c0.27116,1.08908 0.38605,1.60406 0.53084,2.58667c0.20085,1.36307 0.23586,2.22763 0.26266,2.64267c0.05168,0.79993 0.17404,2.28336 0.31067,2.96266c0.13324,0.66241 0.42542,1.63486 0.71466,2.65067c0.2058,0.72275 0.41231,1.51158 0.636,2.388c0.12207,0.47827 0.53078,2.11197 0.68533,2.73083c0.16278,0.6518 0.33179,1.32955 0.504,2.0265c0.17513,0.70872 0.52368,2.1341 0.69067,2.83733c0.32056,1.34991 0.4644,1.98574 0.59866,2.59467c0.25293,1.14721 0.36638,1.69311 0.58083,2.7425c0.10408,0.50932 0.40402,2.01413 0.50584,2.51749c0.20799,1.02827 0.31624,1.5592 0.55583,2.6675c0.12643,0.58487 0.40829,1.82878 0.56416,2.49233c0.16141,0.68713 0.50342,2.10165 0.67867,2.81533c0.17409,0.70898 0.34705,1.40574 0.51601,2.0835c0.31679,1.2708 0.59932,2.39717 0.72682,2.91316c0.23756,0.96137 0.45461,1.86288 0.55583,2.30417c0.30742,1.34016 0.50368,2.27765 0.612,2.756c0.22093,0.97568 0.45859,1.97 0.75601,2.964c0.30112,1.00632 0.48723,1.50407 0.83333,2.52083c0.17529,0.51495 0.53189,1.55997 0.83333,2.64584c0.15346,0.5528 0.41597,1.69456 0.54134,2.28c0.12733,0.59457 0.37482,1.81569 0.50934,2.44c0.27612,1.28143 0.43411,1.93529 0.59999,2.59599c0.33484,1.33365 0.51595,1.99652 0.69067,2.65601c0.17261,0.6515 0.35493,1.2886 0.80383,3.1185c0.14043,0.57248 0.27022,1.13173 0.50067,2.222c0.11307,0.53488 0.32199,1.60304 0.52083,2.6875c0.20526,1.11952 0.30428,1.69592 0.42134,2.28c0.24092,1.202 0.38333,1.8175 0.54933,2.44c0.34279,1.28546 0.56186,1.93823 1.03467,3.26599c0.24019,0.67451 0.49609,1.3468 0.74399,2.022c0.24677,0.67215 0.51085,1.33237 0.91734,2.65866c0.38986,1.27197 0.5237,1.90393 0.66133,2.52c0.13493,0.60399 0.36388,1.78484 0.46933,2.36c0.30508,1.66403 0.40088,2.19609 0.592,3.20799c0.08963,0.47455 0.25351,1.3455 0.48933,2.6925l0.12134,0.782l0.57466,0.55751l0.34267,-0.636" id="svg_1" stroke-width="2" stroke="#000" fill="none"/>
  <path t="3334,3344,3344,3344,3344,3344,3344,3344,3358,3358,3358,3358,3370,3370,3384,3384,3384,3401,3401,3401,3401,3401,3417,3417,3417,3417,3417,3434,3434,3434,3434,3434,3434,3451,3451,3451,3451,3451,3451,3451,3451,3467,3467,3467,3467,3467,3467,3484,3484,3484,3484,3484,3501,3501,3501,3501,3501,3517,3517,3517,3517,3517,3517,3517,3534,3534,3534,3534,3534,3534,3551,3551,3551,3551,3551,3551,3567,3567,3567,3567,3567,3584,3584,3584,3584,3584,3601,3601,3601,3601,3617,3617,3617,3617,3634,3634,3634,3634,3634,3651,3651,3651,3651,3651,3651,3651,3667,3667,3667,3667,3667,3684,3684,3684,3701,3701,3701,3701,3701,3717,3717,3717,3734,3734,3734,3734,3734,3751,3751,3751,3751,3751,3767,3767,3767,3784,3784,3784,3801,3801,3801,3801,3817,3817,3817,3851,3851,3851,3867,3867,3867,3884,3884,3884,3901,3901,3917,3917,3934,4317,4414,4424,4454,4454,4469,4486,4486,4486,4501,4517,4517,4534,4551,4551,4551,4567,4567,4568,4584,4584,4601,4602,4617,4618,4618,4634,4635,4651,4651,4651,4667,4667,4684,4685,4701,4717,4717,4734,4734,4751,4751,4767,4784,4784,4806,4822,4834,4851,4851,4867,4868,4884,4884,4901,4918,4918,4934,5027" d="m33,4c0,17.33333 0,18.45583 0,19.43333c0,0.8475 0,1.58 0,2.2125c0,1.025 0,2.1875 0,3.1925c0,0.62 0,1.475 0,2.7045c0,0.6465 0,1.65767 0,2.51967c0,0.7935 0,1.802 0,2.609c0,0.891 0,1.3605 0,2.3325c0,1.496 0,1.996 0,2.996c0,0.5 0,1.5 0,3c0,0.5005 0,1.5135 0,2.032c0,1.076 0,1.6395 0,3.468c0,0.664 0,1.352 0,2.058c0,0.718 0,1.442 0,2.166c0,0.718 0,2.776 0,3.41133c0,0.60733 0,1.746 0,2.28133c0,1.01266 0,2.41666 0,2.86183c0,0.86433 0,1.70066 0,2.517c0,1.2045 0,2.0085 0,2.8365c0,0.876 0,1.33949 0,2.868c0,0.56416 0,1.7625 0,2.38667c0,0.63417 0,1.27334 0,2.54667c0,1.23333 -0.00408,1.82369 0.0045,2.95233c0.00412,0.54236 0.02352,1.59339 0.05267,2.10533c0.08599,1.51053 0.22402,2.50806 0.2955,3.0045c0.14175,0.98448 0.30079,1.94648 0.36333,2.41917c0.18018,1.36178 0.23683,2.2323 0.26317,3.08533c0.02632,0.85242 0.02016,1.284 0.02083,2.62133c0.00047,0.93134 0,1.87867 0,2.35334c0,0.94133 0,2.30367 0,3.16367c0,0.82 -0.00107,1.6 0,2.695c0.00067,0.68266 0.00389,1.66783 0.05717,2.31933c0.08313,1.0165 0.22908,1.73627 0.36817,2.51534c0.15179,0.85023 0.31176,1.78718 0.408,2.832c0.10593,1.15009 0.11512,1.75796 0.14133,2.376c0.05293,1.24791 0.06905,1.86652 0.10933,2.472c0.11239,1.68918 0.18859,2.19645 0.34134,3.13333c0.13897,0.85242 0.32565,1.6246 0.45317,2.69733c0.118,0.99268 0.11492,1.64664 0.1215,2.988c0.00352,0.71733 -0.00156,1.45918 0.036,2.208c0.03722,0.74204 0.17361,1.80647 0.38934,2.8c0.14165,0.65238 0.42517,1.99026 0.48933,2.71201c0.06743,0.75861 0.07886,1.55997 0.084,2.39999c0.00816,1.3343 -0.00566,1.79478 0.012,2.71733c0.01721,0.89886 0.01656,1.75017 0.21067,2.83167c0.15735,0.87668 0.48257,1.59633 0.65733,2.58583c0.14264,0.80763 0.13954,1.68808 0.288,2.57851c0.15114,0.90649 0.4282,1.79559 0.54933,2.39999c0.23876,1.19133 0.26224,1.78893 0.2795,2.64284c0.02576,1.27425 0.0045,1.978 0.0045,2.7265c0,1.19867 0,1.88133 0,2.58c0,1.31734 -0.00006,2.13634 0,2.82933c0.00008,1.02116 -0.14444,1.84848 0.22133,2.79984c0.2993,0.77844 0.76825,1.52132 0.77867,2.42149c0.01041,0.89995 0.1637,1.8573 -0.22133,2.70001c-0.3058,0.6693 -0.77428,1.57695 -1.2215,2.22133c-0.50827,0.73235 -1.07417,1.19501 -1.8,1.92149c-0.75682,0.75752 -1.34071,1.34732 -1.7425,2.16783c-0.36601,0.74745 -0.88877,1.41457 -1.3665,1.99384c-0.64438,0.78136 -1.12594,1.61032 -1.53217,2.19551c-0.56964,0.82059 -1.11498,1.38016 -1.94934,2.23332c-0.53002,0.54196 -1.17354,1.32921 -1.56667,1.992c-0.40717,0.68648 -0.91798,1.41579 -1.48533,2.144c-0.61345,0.78737 -0.93258,1.28661 -1.462,2.02533c-0.6225,0.86861 -1.12657,1.46883 -1.85267,2.20534c-0.59571,0.60426 -1.2846,1.14479 -1.71733,2.00134c-0.32869,0.65062 -0.78016,1.46294 -1.4345,2.146c-0.61527,0.64229 -1.28405,1.19859 -1.94367,1.95267c-0.5812,0.66443 -0.80469,1.49063 -1.2045,2.2c-0.49497,0.87819 -1.11453,1.4581 -1.45183,2.20984c-0.34235,0.76299 -0.75132,1.54262 -1.4,1.98566c-0.75523,0.51582 -1.44713,1.1042 -2.04817,1.7045c-0.70035,0.69949 -1.3,1.24284 -2.164,1.62534l-0.48867,0.67917" id="svg_2" stroke-width="2" stroke="#000" fill="none"/>
  <path t="5874,5884,5884,5884,5884,5884,5884,5884,5884,5897,5897,5897,5897,5897,5917,5917,5934,5934,5934,5951,5951,5951,5967,5967,5967,5967,5984,5984,5984,6001,6001,6001,6017,6017,6017,6017,6034,6034,6034,6034,6052,6052,6052,6052,6052,6067,6067,6067,6067,6084,6084,6084,6084,6101,6101,6101,6101,6101,6117,6117,6117,6117,6118,6134,6134,6134,6134,6134,6134,6134,6151,6151,6151,6151,6151,6151,6151,6151,6151,6167,6167,6167,6167,6167,6167,6167,6167,6184,6184,6184,6184,6184,6201,6201,6201,6201,6217,6217,6217,6217,6217,6217,6234,6234,6234,6234,6234,6234,6234,6251,6251,6251,6251,6251,6251,6267,6267,6267,6267,6267,6267,6284,6284,6284,6284,6284,6284,6301,6301,6301,6301,6301,6301,6301,6301,6317,6317,6317,6318,6318,6318,6334,6334,6334,6334,6334,6335,6351,6351,6351,6351,6351,6351,6367,6367,6367,6367,6367,6384,6384,6384,6401,6401,6401,6417,6417,6434,6434,6434,6451,6451,6451,6467,6467,6484,6629" d="m6,231c1.55667,0 2.21333,0 2.95,0c0.79667,0 1.63333,0 2.49,0c0.85667,0 1.69333,0 3.22667,0c0.661,0 1.767,0 2.625,0c0.658,0 1.74167,-0.00008 2.57083,0c0.90167,0.00009 1.82528,-0.01022 2.4975,0.036c1.31009,0.09006 1.88246,0.21565 2.85467,0.57468c0.96484,0.35631 1.7382,0.68878 2.28533,0.88933c0.8163,0.29919 1.816,0.7 2.5,1c0.684,0.3 1.68292,0.71089 2.54167,1c0.61741,0.20786 1.97912,0.60201 2.711,0.8c0.74678,0.20204 1.49702,0.3916 2.58067,0.7c0.68419,0.19472 1.66571,0.50316 2.31934,0.7c1.01254,0.30492 1.73313,0.49507 2.47266,0.71066c0.75122,0.21899 1.51379,0.42326 2.89067,1.07333c0.67085,0.31673 1.29956,0.71022 1.968,1.03201c1.02343,0.49269 1.76744,0.74329 2.53683,0.94232c0.77845,0.20137 1.978,0.38721 2.7805,0.45767c0.80835,0.07098 1.63577,0.09514 2.484,0.168c1.33844,0.11497 1.80148,0.19902 2.76133,0.34134c1.00015,0.1483 1.51208,0.24924 3.12,0.40799c0.55449,0.05475 1.12243,0.08774 2.30133,0.14134c0.61522,0.02797 1.25084,0.04671 1.908,0.078c2.12465,0.1012 2.88818,0.16644 3.676,0.23132c0.80619,0.06639 1.624,0.14134 2.448,0.216c0.824,0.07466 1.64168,0.15118 2.448,0.216c1.55142,0.12473 2.287,0.16591 2.99333,0.19867c0.67802,0.03145 1.32927,0.05258 1.95451,0.0645c1.17623,0.02243 1.7295,0.02016 3.26116,0.02083c0.92867,0.0004 1.80134,0 2.22167,0c0.81866,0 2.0215,0 2.82583,0c0.81634,0 1.65267,0 2.96217,0c0.92133,0 1.39951,0 2.39584,0c0.52016,0 1.6095,0 2.77084,0c1.23466,0 1.87199,0 2.51733,0c0.64933,0 1.944,0 2.58133,0c1.23466,0 1.825,0 2.95367,0c0.54234,0 1.593,0 2.61166,0c1.00267,0 2.00267,0 2.50267,0c1,0 2,0.00003 2.5,0c1.5005,-0.00009 2.00406,0.00385 3.032,-0.01067c0.53055,-0.00749 1.63976,-0.04149 2.224,-0.07466c1.24465,-0.07068 1.90887,-0.12756 3.302,-0.27184c0.71848,-0.0744 1.4423,-0.16132 2.166,-0.25351c0.7183,-0.09151 1.42538,-0.18153 2.776,-0.38933c1.24532,-0.19159 1.82891,-0.2977 2.392,-0.39999c1.07681,-0.19562 1.59491,-0.29793 3.108,-0.60001c1.0016,-0.19997 1.50562,-0.29932 2.52083,-0.52083c0.51575,-0.11253 1.56702,-0.35503 2.64584,-0.64584c0.55566,-0.1498 1.67778,-0.48349 2.23734,-0.65866c1.10022,-0.34442 1.62946,-0.52065 3.09599,-1.008c0.43564,-0.14478 1.2285,-0.40952 2.26801,-0.75601c0.62799,-0.20932 1.83182,-0.60725 2.42133,-0.81065c0.85521,-0.29507 1.89444,-0.68826 2.57468,-1c0.84142,-0.38559 1.63599,-0.8 2.43599,-1.20001c0.8,-0.39999 1.60461,-0.8134 2.25717,-1.09999c0.95555,-0.41966 1.75037,-0.71227 2.533,-0.94284c1.03065,-0.30363 1.80716,-0.44116 2.60983,-0.93182l0.78932,-0.40001" id="svg_3" stroke-width="2" stroke="#000" fill="none"/>
  <path t="7404,7430,7430,7430,7430,7438,7438,7438,7438,7446,7446,7446,7454,7454,7467,7467,7467,7484,7484,7484,7484,7502,7502,7502,7517,7517,7517,7517,7534,7534,7534,7553,7553,7553,7567,7567,7567,7584,7584,7601,7601,7601,7617,7617,7617,7634,7634,7634,7634,7651,7651,7651,7651,7651,7667,7667,7667,7667,7684,7684,7684,7684,7684,7701,7701,7701,7717,7717,7717,7717,7736,7736,7736,7751,7751,7751,7769,7769,7769,7770,7784,7784,7784,7785,7803,7804,7804,7817,7817,7834,7834,7853,7854,7854,7854,7867,7867,7867,7867,7886,7887,7901,7901,7901,7917,7918,7918,7934,7934,7951,7951,7951,7967,7967,7984,8067,8090,8118,8158,8178,8188,8201,8221,8234,8234,8251,8251,8268,8268,8284,8284,8284,8305,8305,8305,8318,8318,8318,8318,8334,8334,8334,8335,8351,8351,8351,8367,8367,8367,8368,8388,8388,8388,8388,8401,8401,8401,8418,8418,8418,8418,8434,8434,8435,8435,8451,8452,8452,8452,8467,8467,8468,8484,8484,8485,8501,8502,8502,8502,8517,8517,8517,8534,8534,8534,8534,8551,8551,8551,8551,8567,8567,8567,8584,8584,8601,8601,8601,8617,8617,8617,8634,8634,8651,8651,8651,8667,8667,8684,8684,8684,8701,8701,8719,8734,8734,8734,8751,8751,8751,8751,8767,8767,8784,8784,8784,8784,8801,8801,8801,8817,8817,8817,8818,8836,8836,8836,8837,8851,8851,8851,8851,8851,8851,8867,8867,8867,8867,8884,8884,8884,8884,8901,8901,8901,8917,8917,8917,8917,8918,8936,8937,8937,8937,8951,8951,8951,8967,8967,8967,8967,8984,8984,8984,8984,8984,8985,9001,9001,9001,9001,9017,9017,9017,9036,9036,9036,9037,9051,9051,9067,9067,9067,9084,9084,9103,9104,9117,9117,9134,9134,9154,9154,9154,9154,9168,9168,9184,9184,9184,9201,9201,9201,9217,9217,9236,9251,9251,9267,9286,9301,9319,9319,9336,9351,9367,9367,9384,9401,9437,9497,9498,9514,9537,9565,9584,10105,10115,10135,10154,10167,10184,10201,10217,10217,10234,10234,10251,10251,10267,10267,10284,10284,10301,10301,10301,10317,10317,10334,10334,10351,10351,10351,10367,10367,10367,10384,10401,10401,10417,10417,10434,10434,10451,10451,10469,10470,10484,10484,10501,10501,10519,10534,10534,10551,10551,10567,10584,10584,10601,10620,10620,10634,10654,10654,10678,10705,10757,10758,10834" d="m160,182c5.27834,0.22133 6.13901,0.34901 6.95833,0.5c0.78065,0.14386 1.87253,0.35912 2.88451,0.44284c0.63521,0.05255 1.55583,0.05649 2.75583,0.05716c0.59067,0.00032 1.44417,0 2.47984,0c0.90067,0 1.92149,0 2.74283,0c0.69299,0 1.8215,0 2.48849,0c0.711,0 1.80751,0 2.86867,0c0.66434,0 1.61084,0 2.8215,0c0.60001,0 1.5,0 2.39999,0c0.90001,0 1.8,0 2.70001,0c0.89999,0 1.79549,0 2.664,0c1.06932,0 1.77882,0 2.63148,0c1.00584,0 1.8405,0 2.77118,0c0.786,0 1.608,0 2.66666,0c0.71851,0 1.6765,0 2.80984,0c0.67566,0 1.41933,0 2.22299,0c1.30051,0 2.21651,0 2.68201,0c0.931,0 1.842,0 3.1185,0c0.76399,0 1.472,0 2.14799,0c1.35201,0 2.06934,0 2.81067,0c0.74933,0 1.49071,0.00926 2.89067,-0.00133c0.65871,-0.00497 1.64005,-0.02808 2.65067,-0.16534c0.71893,-0.09766 1.44632,-0.26692 2.5235,-0.48067c0.97505,-0.19348 1.80237,-0.28055 2.52449,-0.37799c1.21167,-0.1635 1.7382,-0.34457 2.59601,-0.54933c1.18388,-0.28259 1.79031,-0.34526 2.71016,-0.42534c0.63611,-0.05537 2.00169,-0.214 2.72734,-0.35266c0.73245,-0.13995 1.43469,-0.33917 2.70883,-0.52583c0.76753,-0.11244 1.64034,-0.12083 2.64301,-0.12151c0.79999,-0.00053 1.80266,0 2.44167,0c1.29166,0 1.92766,0 2.61966,0c0.724,0 2.172,0 2.85201,0c0.94499,0 1.52499,0 2.80133,0c0.66451,0 1.68533,0 2.496,0c0.87466,0 1.87332,0 2.68933,0c0.81601,0 1.81601,0 2.72534,0c0.94131,0 1.72284,0 2.51334,0c1.11832,0 1.95239,-0.01077 2.86133,0c0.87933,0.01042 1.34119,0.75941 2.10449,0.9955c0.85638,0.26488 1.67722,0.46091 2.49417,0.9205c0.70264,0.39529 1.3342,0.95363 1.90134,1.52684c0.62958,0.63634 1.01599,1.52377 1.5,2.1825c0.62091,0.84505 0.90414,1.39339 1.39999,2.37466c0.40338,0.79829 0.71191,1.39415 1.20001,2.40266c0.30753,0.63541 0.61963,1.36148 0.89999,2.24017c0.32275,1.01151 0.49677,1.74338 0.69998,2.4745c0.29532,1.06247 0.59766,2.04742 0.80002,2.672c0.19766,0.61008 0.61484,1.80579 0.87915,2.71066c0.17438,0.59698 0.40845,1.79922 0.46817,2.4045c0.09177,0.93025 0.10431,1.58585 0.33667,2.97951c0.12411,0.74442 0.30426,1.4882 0.43201,2.23199c0.18192,1.05934 0.25787,2.04768 0.27332,2.67334c0.02985,1.21034 0.01068,1.812 0.01068,2.73149c0,0.96451 0,2.0005 0,2.73184c0,0.74733 0,1.49466 0,2.92583c0,0.66434 0,1.61084 0,2.22017c0,1.20134 0,1.80133 0,2.70134c0,1.2 0,1.79999 0,2.7c0,1.2 0.02109,1.80077 -0.02084,2.7c-0.04202,0.90132 -0.19199,1.80197 -0.40448,2.7c-0.21347,0.90207 -0.4165,1.79893 -0.52652,2.7045c-0.0748,0.61566 -0.16922,1.5948 -0.491,2.61667c-0.2326,0.73872 -0.57007,1.46176 -0.909,2.16901c-0.47052,0.98184 -0.89096,1.79552 -1.23749,2.48849c-0.51065,1.02118 -0.85553,1.83528 -1.41068,2.65466c-0.38477,0.5679 -0.96146,1.06313 -1.76801,1.65067c-0.72388,0.52731 -1.48639,1.0033 -2.26266,1.632c-0.60217,0.4877 -1.28275,1.21371 -1.80533,1.70934c-0.56,0.53113 -1.5379,1.338 -2.164,1.633c-0.96613,0.4552 -1.80859,0.46548 -2.60001,0.62567c-1.01062,0.20456 -1.71271,0.68013 -2.64734,0.85884c-0.90469,0.17299 -1.60999,0.05716 -2.52466,0.05716c-0.87067,0 -1.87866,0 -2.57733,0c-0.68268,0 -1.88133,0 -2.86533,0c-0.95201,0 -1.74347,0.0153 -2.59601,-0.036c-0.59166,-0.0356 -1.7899,-0.24564 -2.68933,-0.464c-0.60039,-0.14577 -1.7986,-0.39551 -2.4045,-0.44284c-0.92982,-0.07265 -1.58087,-0.04865 -2.98351,-0.05849c-0.76936,-0.0054 -1.59502,-0.0284 -2.03084,-0.05583c-1.41592,-0.08914 -2.4481,-0.22472 -2.98199,-0.2955c-1.07892,-0.14305 -1.61157,-0.22897 -2.64583,-0.36334c-0.95253,-0.12375 -1.79733,-0.2 -2.54533,-0.25867c-0.99451,-0.078 -2.20979,-0.23877 -2.808,-0.37799c-0.90286,-0.21013 -1.4933,-0.40892 -2.70267,-0.56334c-0.93517,-0.11942 -1.61406,-0.11537 -2.73067,-0.25067c-0.83676,-0.10139 -1.71729,-0.25899 -2.16667,-0.33333c-0.89456,-0.14798 -2.16565,-0.34344 -2.92934,-0.416c-1.02779,-0.09764 -1.66904,-0.09033 -2.87067,-0.30533c-0.6046,-0.10817 -1.49101,-0.39928 -2.7,-0.612c-0.60042,-0.10564 -1.56302,-0.16016 -2.2715,-0.21935c-1.22949,-0.10271 -1.69312,-0.16414 -2.68649,-0.29999c-1.04266,-0.14259 -1.565,-0.22945 -2.59001,-0.36334c-0.95111,-0.12424 -1.79506,-0.21713 -2.8895,-0.26317c-0.64864,-0.02728 -1.86263,-0.01266 -2.46249,-0.02533c-0.90036,-0.019 -2.10422,-0.14259 -2.69867,-0.28084c-0.88776,-0.20647 -1.72028,-0.5054 -2.716,-0.91333c-0.66745,-0.27344 -1.679,-0.6823 -2.48534,-0.76534c-0.79654,-0.08202 -1.8,-0.036 -2.59999,-0.036c-1,0 -1.8,0 -2.79984,0c-0.77934,0 -1.77917,0 -2.4975,0c-1.06683,0 -1.66518,0 -2.66267,0c-0.67334,0 -1.87067,0 -2.61917,0c-1.1875,0 -1.9735,0 -2.7955,0c-1.05865,0 -1.76816,0 -2.62082,0c-1.00317,0 -1.77261,0.08698 -2.71918,-0.00133c-0.89674,-0.08365 -1.539,-0.79384 -2.38533,-0.97784c-0.87999,-0.19133 -1.6273,-0.4297 -2.5,-0.85416c-0.75392,-0.36668 -1.47435,-0.71889 -2.39999,-1.14134c-0.77962,-0.3558 -1.24332,-0.85683 -1.65268,-1.72533c-0.38306,-0.8127 -0.745,-1.59932 -1.16882,-2.39984c-0.34004,-0.64227 -1.17447,-1.09267 -1.8625,-1.61617c-0.6136,-0.46686 -1.77168,-0.33678 -1.916,-1.284c-0.1205,-0.79088 0,-1.7 0,-2.60001c0,-0.89999 0,-1.79999 0,-2.7045c0,-0.86217 0,-1.6955 0,-2.67416c0,-0.774 0,-1.6785 0,-2.42583c0,-0.9955 0,-1.7955 0,-2.7955c0,-0.8 0,-1.8 0,-2.60001c0,-0.8 0,-1.8 0,-2.59999c0,-1.00134 0,-1.836 0,-2.76668c0,-0.786 0,-1.608 0,-2.66666c0,-0.92 0,-1.68001 0,-2.79201c0,-0.86 0,-1.58533 0,-2.57466c0,-0.8 0,-1.8 0,-2.58934c0,-1.04399 0.03403,-1.83672 -0.0045,-2.86783c-0.02798,-0.74866 -0.28177,-1.74065 -0.57016,-2.50684c-0.30624,-0.8136 -0.42467,-1.63466 -0.42534,-2.59317c-0.00063,-0.89999 0,-1.64732 0,-2.64149c0,-0.76534 0,-1.84416 0,-2.70151c0,-0.78516 0,-1.72516 0,-2.73315c0,-0.75601 0,-1.6875 0,-2.65067c0,-0.69067 0,-1.75883 0,-2.61601l0,-0.89999l0,-0.8l-0.08533,-0.91466" id="svg_4" stroke-width="2" stroke="#000" fill="none"/>
  <path t="11261,11271,11271,11271,11271,11286,11306,11338,11374,11385,11418,11450,11502,11526,11546,11578,11585,11602,11618,11635,11635,11651,11652,11652,11652,11668,11668,11668,11685,11685,11734,11749,11749,11768,11785,11785,11800,11818,11818,11818,11835,11835,11835,11835,11851,11851,11851,11868,11868,11868,11885,11885,11901,11901,11918,11918,11936,11936" d="m156,195c-12.74167,2.63567 -13.37283,2.74844 -14.34666,2.90266c-0.65302,0.10342 -1.43161,0.76947 -2.17416,1.07651c-0.81268,0.33603 -1.80086,-0.17407 -2.67784,0.02216c-0.80704,0.18057 -1.47469,0.82021 -1.79066,1.60934c-0.32304,0.80679 -0.78545,1.32593 -1.00616,2.09383c-0.24738,0.86067 -0.0045,1.7955 -0.0045,2.70616c0,0.91101 0,1.63101 0,2.75601c0,0.7905 0,1.644 0,2.23466c0,1.19733 0,2.07784 0,2.91333c0,0.99867 -0.08795,1.84282 0.00133,2.8c0.08365,0.89674 0.6553,1.68372 1.5195,1.8645c0.94298,0.19727 1.65384,0.02083 2.59517,0.02083c1.05067,0 1.74469,-0.02287 2.65601,0.08533c0.87524,0.10393 1.53642,0.27423 2.61333,0.48933c0.73109,0.14603 1.79131,0.32593 2.76801,0.38934c0.59926,0.03891 1.67999,0.036 2.61067,0.036c0.83466,0 1.84146,-0.05 2.63599,0.05716c0.80934,0.10916 1.60001,0.44284 2.60001,0.77617l0.78934,0.13068l1.04399,0.036l0.80501,0.05716" id="svg_5" stroke-width="2" stroke="#000" fill="none"/>
  <path t="13374,13394,13394,13394,13403,13403,13419,13434,13434,13450,13450,13467,13467,13485,13485,13500,13517,13910,13920,13920,13955,13955,13970,13970,13985,13985,13985,14001,14001,14001,14001,14018,14018,14018,14035,14035,14036,14036,14051,14051,14051,14051,14068,14068,14068,14068,14068,14085,14085,14085,14085,14101,14101,14101,14118,14118,14118,14135,14135,14135,14151,14168,14168,14169,14184,14199,14200,14217,14217,14234,14234,14249,14250,14250,14267,14267,14267,14284,14284,14300,14300,14317,14317,14317,14334,14334,14334,14350,14350,14350,14366,14367,14367,14367,14384,14384,14384,14400,14400,14400,14417,14434,14434,14449,14450,14466,14467,14467,14483,14484,14500,14500,14517,14517,14534,14534,14534,14550,14550,14567,14567,14567,14584,14584,14584,14600,14600,14600,14616,14617,14617,14634,14634,14634,14650,14650,14650,14667,14667,14667,14684,14684,14684,14684,14700,14700,14700,14717,14717,14717" d="m47,244c0.22133,9.22783 0.31898,10.14642 0.5,10.8125c0.28163,1.03629 0.49775,1.883 0.5,2.70834c0.00263,0.96448 0,1.68982 0,2.67917c0,0.79999 -0.05314,1.80249 0.01067,2.58932c0.08533,1.05215 0.7362,1.73795 0.95333,2.61066c0.21748,0.87405 0.22487,1.86932 -0.1855,2.70001c-0.34116,0.69058 -1.08385,1.20364 -1.66383,1.78534c-0.76846,0.77069 -1.3296,1.2934 -1.948,2.11465c-0.43919,0.58328 -0.78126,1.22543 -1.26683,2.42151c-0.21565,0.53119 -0.51739,1.39728 -0.78517,1.97983c-0.55936,1.21686 -0.95378,1.7861 -1.25333,2.39865c-0.57595,1.17776 -0.73538,1.79474 -0.81966,2.70001c-0.08351,0.89697 -0.04167,1.80051 -0.04167,2.73199c0,0.67599 -0.00277,1.42401 0.00017,2.73199c0.00223,0.99402 0.00176,1.51227 0.03583,2.56c0.01685,0.51816 0.10934,1.97925 0.248,2.8187c0.12256,0.742 0.33583,1.37967 0.54933,2.49066c0.17963,0.93475 0.17682,1.62772 0.38817,2.58798c0.17887,0.81268 0.45636,1.63663 0.8785,2.65701c0.28238,0.68256 0.59917,1.51733 1.31067,2.28568c0.67125,0.72488 1.43173,1.00787 2.10533,1.43597c0.87156,0.55392 1.57736,1.13785 2.36934,1.19867c0.94788,0.07278 1.716,0.00134 2.71917,0.00134c0.85266,0 1.817,0 2.6315,0c0.8685,0 1.76419,0.01453 2.655,-0.00449c0.83741,-0.01788 1.78134,-0.14868 2.58817,-0.49551c0.84853,-0.36475 1.77356,-0.46103 2.52083,-0.83334c0.86324,-0.43008 1.40336,-1.07227 2,-1.66666c0.59888,-0.59662 1.20814,-1.16507 1.83334,-2c0.58427,-0.78027 0.90748,-1.46423 1.488,-2.42133c0.32475,-0.5354 0.85892,-1.34985 1.19466,-1.89468c0.61157,-0.99243 0.95761,-1.70026 1.45333,-2.28265c0.7321,-0.86011 1.52702,-1.35983 1.96817,-1.74417c0.84241,-0.73392 1.23042,-1.65631 1.67316,-2.29315c0.58967,-0.84818 1.02008,-1.55496 1.22267,-2.36401c0.1969,-0.78632 0.16599,-1.60001 0.16666,-2.60001c0.00053,-0.79999 0,-1.79999 0,-2.60001c0,-1 0.01333,-1.80008 0,-2.79999c-0.01067,-0.8002 -0.08503,-1.65115 -0.70983,-2.60001c-0.42104,-0.6394 -1.13577,-1.39172 -1.5375,-2c-0.52147,-0.78958 -1.05067,-1.62119 -1.58867,-2.18933c-0.54556,-0.57611 -1.3453,-1.22079 -1.97467,-1.57468c-0.85136,-0.4787 -1.87294,-0.83707 -2.41467,-1.03598c-0.82141,-0.30164 -1.85445,-0.69742 -2.54933,-1c-0.91082,-0.39661 -1.64015,-0.7186 -2.45067,-0.98935c-0.81588,-0.27252 -1.85022,-0.5271 -2.7955,-0.58981c-0.74711,-0.04956 -1.62206,-0.03369 -2.62983,-0.01016c-0.69894,0.01633 -1.40155,-0.02164 -2.58,0.27597c-0.76667,0.19363 -1.452,0.60001 -2.45467,1.19736l-0.55067,0.34134l-0.8685,0.52197" id="svg_6" stroke-width="2" stroke="#000" fill="none"/>
  <path t="15160,15170,15170,15170,15170,15170,15170,15186,15186,15186,15186,15186,15201,15201,15216,15217,15234,15234,15234,15249,15249,15266,15267,15284,15284,15284,15299,15299,15299,15317,15333,15349,15349,15349,15367,15384,15384,15399,15399,15417,15417,15417,15434,15450,15450,15467,15467,15484,15500,15517,15517,15534,15550,15550,15566,15584,15599,15617,15634,15634,15650,15650,15666,15666,15684,15700,15717,15734,15750,15750,15767,15785,15785,15805,15866" d="m38,278c-2.42117,2.4285 -2.69904,2.90005 -3.21467,3.98401c-0.27324,0.5744 -0.5322,1.16861 -0.7755,1.77148c-0.70024,1.73511 -0.88137,2.27478 -1.191,3.25952c-0.26917,0.85605 -0.48005,1.59433 -0.6975,2.72064c-0.13891,0.71951 -0.36061,1.57895 -0.62133,2.28519c-0.35822,0.97034 -0.4808,1.77859 -0.49867,2.57916c-0.02232,0.99976 -0.00133,1.79999 -0.00133,2.80133c0,0.83466 0,1.76532 0,2.55133c0,0.82199 -0.03969,1.88199 0.01067,2.80066c0.0418,0.76251 0.58976,1.67664 0.90533,2.448c0.37765,0.9231 0.47652,1.64883 0.88533,2.31467c0.54314,0.88461 1.26615,1.62152 1.83467,2.08401c0.80667,0.65625 1.57252,1.00427 2.364,1.39999c0.78722,0.39359 1.51205,0.72385 2.5,1c0.81924,0.22897 1.47844,0.56131 2.4785,0.87866c0.80588,0.25574 1.55942,0.86841 2.43217,1.08533c0.88447,0.21985 1.58933,0.03601 2.704,0.03601c0.88533,0 1.71977,0.19595 2.58533,-0.05716c0.87763,-0.25665 1.60443,-0.84122 2.4,-0.94299c0.90788,-0.11612 1.51244,-0.64594 2.384,-1.19986c0.6736,-0.4281 1.51726,-0.87341 2.10533,-1.39999c0.74079,-0.66333 1.56062,-0.98483 2.244,-1.56665c0.66667,-0.5676 1.01707,-1.28232 1.192,-2.01868c0.22297,-0.93854 0.808,-1.81467 0.97017,-2.51468l0.0045,-0.89999l0,-0.89999" id="svg_7" stroke-width="2" stroke="#000" fill="none"/>
  <path t="17294,17314,17314,17322,17338,17338,17338,17353,17353,17353,17367,17367,17367,17384,17384,17384,17384,17384,17384,17400,17400,17400,17400,17400,17417,17417,17417,17417,17434,17434,17434,17434,17435,17450,17450,17450,17450,17467,17467,17467,17484,17484,17484,17484,17500,17500,17500,17517,17517,17517,17517,17534,17534,17534,17534,17534,17534,17550,17550,17550,17550,17550,17567,17567,17567,17567,17584,17584,17585,17585,17585,17600,17600,17600,17600,17617,17617,17617,17617,17634,17634,17634,17650,17650,17650,17667,17667,17667,17684,17700,17721,17741,17757,17757,17767,17784,17800,17817,17817,17817,17834,17834,17850,17867,17867,17884,17884,17900,17917,17917,17917,17935,17935,17935,17935,17950,17950,17951,17967,17967,17967,17984,17984,18000,18000,18000,18000,18017,18017,18017,18017,18034,18034,18035,18035,18035,18050,18050,18050,18050,18067,18067,18067,18067,18068,18084,18084,18085,18085,18100,18101,18101,18101,18117,18117,18117,18118,18134,18135,18135,18135,18150,18150,18150,18151,18167,18167,18167,18168,18185,18185,18185,18200,18200,18201,18222,18222,18222,18222,18234,18234,18234,18235,18250,18250,18251,18251,18267,18267,18267,18268,18268,18268,18284,18285,18285,18300,18300,18301,18317,18317,18318,18318,18334,18335,18335,18335,18335,18350,18350,18351,18367,18367,18368,18385,18385,18385,18401,18401,18417,18417,18434,18434,18435,18450,18451,18452,18468,18489,18490,18597" d="m48,315c4.228,0 5.14267,0 6.116,0c1.05067,0 1.73592,0.03455 2.57067,-0.08533c1.0066,-0.14456 1.80687,-0.44077 2.62933,-0.63068c0.9985,-0.23056 1.76718,-0.27017 2.36533,-0.27951c1.15187,-0.01801 2.14,-0.00449 2.6865,-0.00449c1.153,0 1.7415,0 2.326,0c1.6395,0 2.56617,0 3.37283,0c0.72667,0 1.41335,-0.00479 2.455,0.00015c1.12504,0.00534 1.9254,0.02905 2.34,0.05701c1.30662,0.08807 2.22164,0.22269 3.153,0.36816c0.46483,0.0726 1.37216,0.24658 2.652,0.40802c0.76097,0.09598 1.79153,0.15283 2.42434,0.16217c1.20888,0.01788 1.809,0.00449 2.709,0.00449c1.2,0 1.8,0 2.7,0c0.9,0 1.8,0 2.7,0c0.9,0 1.8,0 2.7135,0c0.649,0 1.7425,0 2.5865,0c0.95333,0 1.98666,0 2.52084,0c0.53916,0 1.6125,0 3.13616,0c0.47234,0 1.371,0 2.22167,0c0.81866,0 2.02133,0 2.82133,0c0.8,0 1.60001,0 2.8,0c0.8,0 1.6,0 2.4,0c0.8,0 2,0 2.8,0c0.8,0 1.60001,-0.00101 2.8,0c0.79733,0.00067 1.57985,-0.01309 2.328,0.03601c1.34213,0.08807 2.1587,0.32828 2.88667,0.53867c0.94773,0.2739 1.73714,0.38724 2.56,0.41464c1.05814,0.03525 1.76366,0.01068 2.73867,0.01068c0.85066,0 1.78667,0 2.68666,0c0.90001,0 1.8,0 2.60001,0c0.89999,0 1.83984,0.03622 2.61066,-0.436c0.80428,-0.49274 1.39967,-1.02197 2.19067,-1.27866c0.97021,-0.31482 1.75529,-0.12808 2.76266,-0.29602c0.86884,-0.14484 1.50069,-0.80414 2.46133,-0.95331c0.68335,-0.10611 1.70584,-0.00989 2.71767,-0.25751c0.73813,-0.18063 1.56644,-0.48166 2.457,-0.7785c0.89595,-0.29865 1.4846,-0.48529 2.31467,-0.79999c1.00824,-0.38226 1.6804,-0.71152 2.36934,-1c0.99184,-0.41534 1.78755,-0.70502 2.54666,-0.91467c1.11942,-0.30914 1.83221,-0.43155 2.82401,-0.85468c0.64926,-0.27701 1.33803,-0.62326 2.064,-0.948c1.05533,-0.47208 2.0611,-0.85629 2.70667,-1.14401c0.66412,-0.29602 1.70345,-0.87006 2.42734,-1.34848c0.75528,-0.49918 1.12177,-0.77585 1.86333,-1.3075c1.06233,-0.76163 1.7267,-1.23254 2.384,-1.66183c0.64816,-0.42331 1.66391,-1.02582 2.384,-1.42084c0.73854,-0.40512 1.49455,-0.79288 2.23199,-1.20001c1.06824,-0.58975 1.72975,-0.99539 2.36317,-1.39999c0.61922,-0.39551 1.52266,-0.99728 2.11949,-1.39999c0.88324,-0.59598 1.45929,-0.98059 2.23466,-1.60001c0.72867,-0.58212 1.38365,-1.20978 1.85068,-1.60001c0.98418,-0.8223 1.55481,-1.20688 2.12666,-1.63599c0.59361,-0.44543 1.49327,-1.18094 2.08932,-1.71667c0.60402,-0.54291 1.18146,-1.11642 2.10001,-1.88068c0.87827,-0.73074 1.48265,-1.14114 2.04283,-1.56216c0.7955,-0.5979 1.49124,-1.21011 2.1465,-1.76849c0.80016,-0.68185 1.42563,-1.07214 2.04666,-1.49734c0.9472,-0.6485 1.45784,-1.09747 2.26401,-1.8595c0.55418,-0.52383 1.33018,-1.31567 1.81599,-1.79382c0.67964,-0.66895 1.11528,-1.10733 2.10583,-1.8855c0.53322,-0.41888 1.13638,-0.82718 1.797,-1.25699c1.10742,-0.72049 1.94717,-1.22662 2.382,-1.49103c0.87698,-0.53323 1.30977,-0.79517 2.14584,-1.28247c1.08531,-0.6326 1.96249,-1.0802 2.63983,-1.51752c0.83623,-0.53989 1.41765,-1.09531 2.07066,-1.65634c0.70259,-0.60364 1.49841,-1.20447 2.0845,-1.59549c0.61377,-0.40948 1.62314,-1.00336 2.34099,-1.39999c0.73013,-0.40341 1.46637,-0.78262 2.14801,-1.20001c0.94124,-0.57635 1.70671,-1.18967 2.14799,-1.60001c0.83963,-0.78076 1.40407,-1.41428 2.02133,-1.96399c0.77896,-0.69373 1.38966,-1.09763 2.2,-1.53149c0.79018,-0.42307 1.61446,-0.7486 2.43333,-1.3045c0.69995,-0.47519 1.32564,-1.17456 1.82384,-1.65268c0.73615,-0.70648 1.5352,-1.33746 2.13217,-1.71133c0.71664,-0.44882 1.57466,-1.03598 2.21066,-1.63599l0.60001,-0.564l0.87917,-0.436" id="svg_8" stroke-width="2" stroke="#000" fill="none"/>
  <path t="19814,19824,19824,19824,19824,19824,19824,19824,19838,19838,19838,19838,19838,19852,19853,19869,19870,19870,19870,19870,19884,19884,19884,19884,19884,19900,19900,19900,19901,19901,19901,19901,19917,19917,19917,19917,19917,19917,19934,19934,19934,19934,19934,19934,19950,19950,19950,19950,19950,19950,19950,19967,19967,19967,19967,19967,19967,19984,19984,19984,19984,19984,19984,20000,20000,20000,20000,20000,20000,20017,20017,20017,20017,20017,20017,20017,20033,20033,20033,20033,20033,20050,20050,20050,20050,20067,20067,20067,20067,20067,20067,20083,20083,20083,20083,20083,20083,20083,20100,20100,20100,20100,20100,20100,20117,20117,20117,20117,20117,20134,20134,20134,20134,20134,20134,20134,20150,20150,20150,20150,20150,20167,20167,20167,20167,20167,20183,20183,20183,20183,20183,20200,20200,20200,20200,20201,20201,20217,20217,20217,20217,20217,20217,20233,20233,20233,20233,20233,20233,20233,20233,20250,20250,20250,20250,20250,20250,20267,20267,20267,20267,20267,20286,20286,20286,20286,20300,20300,20300,20300,20300,20319,20319,20319,20320,20320,20320,20335,20336,20336,20336,20336,20336,20352,20352,20353,20353,20353,20353,20367,20367,20367,20367,20367,20367,20383,20383,20383,20383,20383,20383,20383,20400,20400,20400,20400,20400,20417,20417,20417,20417,20435,20435,20436,20436,20451,20451,20451,20451,20467,20467,20467,20467,20467,20483,20483,20483,20502,20502,20502,20503,20517,20517,20517,20535,20535,20535,20550,20550,20550,20550,20567,20567,20567,20585,20585,20586,20586,20600,20600,20600,20619,20620,20620,20620,20620,20633,20633,20633,20650,20650,20650,20650,20667,20667,20667,20667,20667,20667,20667,20685,20685,20685,20686,20702,20702,20703,20703,20703,20717,20717,20717,20733,20733,20733,20733,20733,20750,20750,20750,20750,20767,20767,20767,20767,20767,20785,20786,20786,20786,20786,20803,20803,20803,20803,20803,20803,20817,20817,20817,20817,20817,20833,20833,20833,20833,20833,20834,20834,20853,20853,20853,20853,20854,20854,20870,20870,20870,20871,20883,20883,20883,20883,20900,20900,20900,20900,20900,20920,20920,20920,20920,20921,20921,20933,20933,20933,20934,20934,20950,20950,20950,20950,20967,20967,20967,20967,20967,20968,20983,20983,20983,20983,21003,21003,21003,21017,21017,21017,21017,21017,21033,21033,21033,21033,21033,21034,21050,21050,21050,21050,21051,21051,21070,21070,21070,21071,21071,21071,21086,21086,21087,21087,21103,21103,21103,21103,21120,21120,21120,21136,21136,21136,21137,21153,21153,21167,21185,21186,21213" d="m152,313c2.871,0.44284 3.47495,0.56805 4.13034,0.70984c0.69395,0.15012 1.41235,0.30655 2.86266,0.642c0.70618,0.16333 2.00783,0.4783 2.57767,0.6265c0.97878,0.25452 1.75655,0.50235 2.65067,0.73502c0.97627,0.25406 1.69833,0.28439 2.76466,0.28665c0.74268,0.00156 1.59734,0 2.53201,0c0.48734,0 1.98216,0 2.48332,0c1.00934,0 2.03467,0 2.55583,0c1.60951,0 2.16417,-0.00156 2.72684,0.00134c1.14137,0.00589 1.71637,0.00925 2.86334,0.05582c0.56889,0.0231 1.68729,0.09805 2.76733,0.22684c0.52887,0.06308 1.56389,0.22025 2.58083,0.36334c0.50288,0.07077 2.00455,0.2355 2.50717,0.26865c1.01814,0.06714 1.5392,0.08014 2.61166,0.13669c0.55644,0.02933 2.32869,0.16553 2.95366,0.23267c0.63771,0.06848 1.28363,0.14371 2.58134,0.32532c0.64581,0.09039 1.28365,0.18469 2.51733,0.38934c1.1636,0.19302 1.71828,0.29977 2.79166,0.47916c0.52,0.08691 1.53706,0.25327 2.54167,0.35419c0.99838,0.10031 1.5,0.11398 2.5,0.16666c1,0.05267 1.50246,0.05942 3.00034,0.22134c0.5033,0.05441 1.52077,0.20554 2.04134,0.27866c1.07222,0.15057 1.62663,0.2442 3.40083,0.37866c0.62349,0.04724 1.25829,0.06961 1.89749,0.09601c1.27325,0.05255 1.89804,0.06894 2.50667,0.10934c1.6907,0.11221 2.19887,0.19009 3.14534,0.34131c0.8775,0.1402 1.70036,0.32028 2.90816,0.45334c0.80241,0.08838 1.62135,0.11133 2.457,0.17401c1.31078,0.0983 1.76524,0.16455 2.709,0.29999c0.49147,0.07053 1.51559,0.22916 2.05267,0.29468c1.71187,0.20883 2.32335,0.23715 2.94783,0.26733c1.2728,0.06152 1.91248,0.06641 2.54666,0.07465c0.62416,0.00809 2.38667,0.01068 2.92233,0.01068c0.99734,0 1.92267,0 2.80801,0c0.43765,0 1.77815,0 2.72249,0c0.49117,0 1.51651,0 2.05267,0c1.71449,0 2.32367,0 2.94783,0c1.27333,0 1.91251,0 2.54666,0c0.62418,0 2.38667,0 2.92216,0c0.99301,0 1.90201,0 2.75101,0c1.2135,0 2.01483,0 2.82416,0c0.82535,0 1.67468,0 2.556,0c0.91867,0 1.86935,0 2.35419,0c0.98364,0 2.47916,0 2.97916,0c1,0 1.5,0 2.5,0c1,0 2,0 3.004,0c0.50949,0 1.5585,0 2.104,0c1.14801,0 2.392,0 3.056,0c0.68799,0 1.39401,0 2.112,0c1.448,0 2.16599,0 2.87201,0c1.35199,0 1.98734,0 3.17599,0c0.55734,0 1.608,0 2.10532,0c1.40402,0 2.28534,0 3.13467,0c0.82535,0 1.63467,0 2.836,0c0.80002,0 1.60001,0 2.39999,0c1.20001,0 2.00269,0 2.82135,0c0.85065,0 1.293,0 2.71201,0c1.03598,0 1.57648,0 2.12799,0c1.12399,0 1.69049,0 3.37201,0c0.54517,0 1.6095,0 2.13065,0c1.02533,0 1.53152,0.00101 3.03601,0c1,-0.00067 1.50015,0.0025 2.5,-0.02084c0.50009,-0.01169 1.5025,-0.03925 3.00034,-0.2005c0.5033,-0.0542 1.52078,-0.20557 2.04132,-0.27866c1.0722,-0.15057 1.62714,-0.23621 2.79169,-0.33334c1.23175,-0.10272 1.8674,-0.11249 2.50665,-0.13065c0.63907,-0.01816 1.89749,-0.03287 2.50668,-0.03467c1.68866,-0.00504 2.19598,-0.00134 3.13464,-0.00134c0.85068,0 1.62933,0.00552 2.69751,-0.00015c1.00653,-0.00534 1.68381,-0.01962 2.3905,-0.08517c1.17596,-0.10907 2.03177,-0.26566 2.90982,-0.41467c0.85861,-0.14572 2.01904,-0.34933 2.66885,-0.41467c0.85013,-0.08548 1.70398,-0.08197 2.71616,-0.08548c0.79834,-0.00275 1.65717,-0.01038 2.535,-0.05701c0.43448,-0.02307 1.66183,-0.1442 2.72882,-0.36816c0.65335,-0.13715 1.86975,-0.42703 2.47202,-0.48935c0.89752,-0.0929 1.79999,-0.08466 2.69983,-0.08533c0.8895,-0.00067 1.74307,0.01129 2.77899,-0.00015c0.9422,-0.01041 1.69366,-0.06635 2.564,-0.22119c1.02271,-0.18195 1.73993,-0.36755 2.47452,-0.49466c1.0578,-0.18304 2.04633,-0.25787 2.672,-0.27332c1.21033,-0.02985 1.81143,0.01041 2.71066,-0.03152c0.90134,-0.04202 1.80164,-0.19412 2.71066,-0.40448c0.62637,-0.14496 1.95462,-0.42084 2.67334,-0.49066c0.74017,-0.0719 1.49289,-0.08603 2.23199,-0.16803c1.4043,-0.15582 2.04465,-0.35583 2.97949,-0.56332c0.90149,-0.20007 1.82306,-0.29935 2.48785,-0.3735c0.746,-0.08322 2.08472,-0.30606 2.60199,-0.422c1.12857,-0.25296 1.71689,-0.41519 2.31467,-0.578c1.19113,-0.32443 1.76517,-0.49261 3.31418,-0.95749c0.44617,-0.13391 1.24615,-0.39963 1.97916,-0.57501c1.3631,-0.32617 2.09033,-0.36691 2.832,-0.42133c0.74902,-0.05496 1.50009,-0.05209 2.89066,-0.31067c0.66428,-0.12354 1.30722,-0.33276 2.65067,-0.71466c0.71756,-0.20398 1.46884,-0.40192 2.24402,-0.60001c0.79016,-0.20193 1.98932,-0.49997 2.78934,-0.69998c0.79999,-0.19998 1.60022,-0.39908 2.79999,-0.70001c0.80014,-0.20068 1.20258,-0.29526 2,-0.52084c0.80267,-0.22705 2.00354,-0.63699 2.80133,-0.96317c0.81305,-0.3324 1.63184,-0.69775 2.05585,-0.86331c1.30112,-0.508 2.22543,-0.77261 2.6955,-0.89551c0.94461,-0.24695 1.89471,-0.45239 2.36331,-0.55585c1.36316,-0.3009 2.24292,-0.50076 3.12567,-0.74298c0.45706,-0.12543 1.418,-0.41501 2.45834,-0.79169c1.15775,-0.41916 1.75827,-0.6713 2.37601,-0.91733c0.62427,-0.24863 1.24445,-0.50775 2.47198,-0.98132c1.14874,-0.44318 1.68539,-0.63101 2.67599,-0.95816c0.89096,-0.29425 1.31842,-0.39603 2.08667,-0.6925c1.42657,-0.55054 2.06644,-0.94916 2.71469,-1.328c0.66116,-0.38638 1.69174,-0.9971 2.42731,-1.38483c0.74316,-0.39172 1.48712,-0.76443 2.58069,-1.23785c0.68079,-0.29471 1.36426,-0.54803 2.064,-0.828c0.75906,-0.30368 2.06818,-0.87827 2.55466,-1.108c1.02728,-0.48514 1.54956,-0.74844 2.07199,-1.01599c1.0271,-0.526 1.97839,-1.04382 2.82135,-1.52798c0.75949,-0.43625 1.44684,-0.86316 2.13599,-1.20001c1.02383,-0.50046 1.77783,-0.73291 2.53952,-1.00751c0.78577,-0.28326 1.98431,-0.80295 2.379,-1.022c0.80664,-0.44772 1.58267,-0.97324 2.34299,-1.50897c0.37347,-0.26315 1.43555,-1.02664 2.09552,-1.49103c0.62003,-0.43628 1.48886,-1.03857 2.24033,-1.65717c0.70944,-0.58398 1.12823,-1.02222 2.08798,-1.79999c0.51178,-0.41473 1.39673,-1.04044 2.05219,-1.51434c0.35361,-0.25568 1.52426,-1.12799 1.9505,-1.45364c0.89255,-0.68195 1.34668,-1.03851 2.2825,-1.72668c0.46313,-0.34058 1.37195,-0.98721 2.26416,-1.53598c0.84982,-0.52271 1.28284,-0.75061 2.13666,-1.21753c0.43076,-0.23557 1.76868,-0.97299 2.23135,-1.2345c0.94131,-0.53201 1.41077,-0.80627 2.36331,-1.3075c0.46616,-0.2453 1.82602,-0.88019 2.69101,-1.19998c0.81549,-0.30148 1.61569,-0.51907 2.69501,-0.9765c0.69092,-0.29282 1.32358,-0.65259 1.91998,-1.008c1.0867,-0.64761 1.79654,-1.06821 2.47202,-1.45068c0.94489,-0.53503 1.72678,-1.02142 2.25381,-1.37466c0.75723,-0.50754 1.56842,-1.09448 2.21185,-1.6955c0.73041,-0.68225 1.30899,-1.3045 1.909,-1.8685l0.85834,-0.41516" id="svg_9" stroke-width="2" stroke="#000" fill="none"/>
  <path t="22680,22701,22701,22701,22702,22702,22706,22706,22706,22706,22706,22706,22719,22719,22719,22733,22733,22750,22750,22750,22750,22750,22767,22767,22767,22767,22767,22767,22767,22783,22783,22783,22783,22783,22783,22783,22783,22800,22800,22800,22800,22800,22800,22800,22800,22817,22817,22817,22817,22817,22817,22817,22817,22833,22833,22833,22833,22833,22833,22833,22833,22833,22850,22850,22850,22850,22850,22850,22851,22867,22867,22867,22867,22867,22867,22883,22883,22883,22883,22883,22900,22900,22900,22900,22901,22901,22917,22917,22917,22917,22917,22917,22933,22933,22934,22934,22934,22934,22934,22950,22950,22950,22950,22950,22950,22967,22967,22967,22967,22967,22983,22983,22983,22983,22983,22983,23000,23000,23000,23000,23000,23000,23001,23017,23017,23017,23018,23018,23018,23018,23018,23018,23033,23033,23033,23033,23034,23034,23034,23050,23050,23050,23050,23050,23051,23067,23067,23067,23067,23068,23068,23083,23083,23083,23083,23083,23083,23084,23084,23100,23100,23100,23100,23101,23101,23101,23117,23117,23117,23117,23118,23118,23133,23133,23133,23133,23134,23134,23150,23150,23150,23151,23151,23151,23151,23151,23167,23167,23167,23167,23167,23168,23183,23183,23183,23183,23184,23200,23200,23201,23201,23201,23201,23217,23217,23217,23217,23218,23218,23233,23233,23233,23234,23234,23234,23234,23250,23250,23251,23251,23251,23267,23267,23267,23268,23283,23283,23283,23284,23300,23300,23301,23301,23301,23317,23317,23317,23318,23318,23318,23318,23334,23334,23334,23334,23335,23335,23350,23350,23351,23351,23351,23367,23367,23367,23368,23368,23368,23383,23383,23383,23384,23384,23400,23400,23400,23401,23417,23417,23417,23418,23433,23433,23433,23434,23434,23450,23451,23451,23451,23451,23467,23467,23468,23468,23483,23483,23484,23484,23501,23501,23501,23517,23517,23518,23518,23533,23533,23534,23534,23534,23550,23551,23551,23551,23551,23567,23567,23568,23583,23583,23584,23600,23601,23601,23601,23601,23617,23617,23618,23618,23618,23633,23634,23634,23634,23650,23651,23651,23651,23667,23667,23668,23668,23668,23683,23683,23684,23684,23700,23701,23701,23701,23717,23717,23718,23718,23718,23733,23734,23734,23734,23734,23735,23764,23765,23765,23765,23765,23780,23781,23781,23781,23784,23785,23785,23785,23801,23801,23801,23801,23817,23817,23817,23817,23857,23857,23857,23857,23860,23860,23861,23867,23867,23867,23883,23883,23902,23903,23917,23917,23933,23933,23933,23953,23953,23953,23967,23967,23967,23982,23983,24000,24000,24000,24017,24017,24033,24033,24050,24050,24067,24083,24083,24102,24102,24117,24117,24133,24133,24150,24150,24170,24183,24183,24202,24217,24217,24236,24236,24252,24252,24270" d="m172,154c1.08,-0.91333 1.54817,-0.9529 2.625,-0.95833c0.58835,-0.00296 1.19882,-0.01279 3.04167,0.125c0.59071,0.04416 1.16019,0.10622 2.22932,0.25867c0.97617,0.13919 1.41887,0.25482 2.9395,0.45316c0.59148,0.07715 1.55101,0.11925 2.56717,0.12151c0.63901,0.00142 1.93066,0 2.57066,0c0.72,0 1.52,0 2.40001,0c0.95999,0 2,0 2.55,0c1.15999,0 1.76999,0 2.39999,0c0.64999,0 2.7195,0 3.446,0c0.74049,0 1.492,0 2.2515,0c0.76451,0 1.53101,0 2.29651,0c1.51599,0 2.26117,0 2.99733,0c0.72816,0 1.44934,0 2.87466,0c0.70616,0 1.40933,0 2.81067,0c0.70033,0 1.40266,0 2.10899,0c1.43268,0 2.16301,0 2.90533,0c0.75633,0 2.319,0 3.12801,0c0.823,0 1.65399,0 2.487,0c0.82899,0 1.64799,0 2.451,0c0.78099,0 2.25299,0 2.93382,0c0.64584,0 1.85251,0 2.42334,0c0.55583,0 1.6425,0 2.72917,0c1.116,0 1.68149,0 2.8125,0c0.55949,0 1.11099,0 2.6875,0c0.96399,0 1.42349,0 2.3125,0c0.86899,0 2.1875,0 3.10616,0c0.47183,0 1.4355,0 2.41917,0c0.49683,0 1.99583,0 2.49817,0c1.01866,0 2.06934,0 2.61166,0c0.55634,0 2.32834,0 2.95366,0c0.63734,0 1.28267,0 2.58133,0c0.64536,0 1.28268,0 3.10767,0c0.57236,0 1.12869,0 2.20135,0c0.52032,0 1.539,0 3.04166,0c0.5,0 1.5,0 2,0c1,0 2.5,0 3.00015,0c1.00433,0 1.51053,0 2.53586,0c0.52115,0 2.13065,0 2.68597,0c1.14868,0 1.746,0 2.36136,0c1.29266,0 1.974,0 3.41666,0c0.76382,0 1.55066,0 2.35349,0c0.81186,0 1.62567,0 2.43451,0c0.79684,0 1.57468,0 3.04535,0c0.68082,0 1.9425,0 2.53333,0c0.57083,0 1.67249,0 2.21332,0c1.64136,0 2.20401,0 3.34534,0c0.57468,0 1.14935,0 2.29068,0c1.11734,0 2.20267,0 2.74033,0c1.08533,0 1.64099,0 2.21066,0c1.83301,0 2.49716,0 3.18634,0c0.70917,0 1.43332,0 2.16751,0c0.73917,0 1.47833,-0.00026 3.64581,0c0.69019,0.00009 1.36136,-0.00024 2.0145,0.0045c0.63617,0.00462 1.86188,0.02306 2.45267,0.05266c1.70093,0.08524 2.24576,0.15578 3.30902,0.2955c0.5217,0.06856 1.54578,0.22696 2.05267,0.29468c1.50259,0.20073 2.00449,0.23892 3.01797,0.29999c0.51831,0.03123 1.59473,0.07413 2.15802,0.10535c1.82922,0.10139 2.49252,0.16646 3.17917,0.23132c0.70303,0.06642 1.41467,0.14108 2.12848,0.216c0.70886,0.0744 2.08267,0.22519 3.35419,0.33333c0.58047,0.04936 1.64224,0.11696 2.60416,0.14584c0.45575,0.01369 1.3425,0.01714 2.68399,0.021c0.93567,0.00269 1.41476,0.00229 2.38919,0.03583c0.49396,0.017 1.99051,0.12083 2.98932,0.248c0.50064,0.06374 1.49973,0.21796 2,0.29066c0.99945,0.14525 2.50003,0.30818 3.00266,0.34134c1.01816,0.06715 1.53918,0.08015 2.61166,0.13667c0.55646,0.02933 1.72006,0.10361 2.95236,0.23267c0.63474,0.06648 1.2739,0.14651 1.91248,0.23549c1.25949,0.17549 1.87018,0.26579 3.55618,0.57901c0.50818,0.09441 1.44501,0.29433 2.29666,0.46416c0.77777,0.15509 1.84595,0.32228 2.51532,0.38333c0.97708,0.08913 1.6405,0.11047 2.67419,0.27417c0.73886,0.117 1.88956,0.38751 2.28299,0.483c1.19675,0.29045 1.99823,0.50069 2.82748,0.6955c0.87473,0.20549 1.82263,0.40724 2.86801,0.60001c0.56348,0.10391 1.76239,0.30077 2.38666,0.39999c0.63406,0.10078 1.27383,0.19685 2.54666,0.40001c1.23383,0.19693 1.82437,0.29532 2.94785,0.5c0.53659,0.09776 1.56201,0.29747 2.05267,0.39999c1.40103,0.29277 2.28345,0.50032 3.15149,0.7c0.43549,0.10017 1.32245,0.30986 2.74802,0.60001c0.50864,0.10353 1.57193,0.30035 2.11731,0.39999c1.09857,0.20071 1.6459,0.2903 3.216,0.60001c0.49078,0.0968 1.41373,0.29918 2.27084,0.47917c0.79562,0.16708 1.89453,0.36571 2.57718,0.43683c0.96292,0.10033 1.89001,0.13318 2.78564,0.3055c0.92865,0.17867 1.5701,0.39508 2.27036,0.57983c1.16959,0.30856 2.03876,0.5005 2.95016,0.69867c0.46426,0.10094 1.39777,0.29427 2.75766,0.60001c0.43658,0.09814 1.28595,0.29813 2.11084,0.5c0.80978,0.19817 2.01086,0.49857 2.80615,0.7c0.78403,0.19858 1.55127,0.38599 2.63785,0.7c1.00885,0.29155 1.64734,0.47237 2.47998,0.88533c0.78912,0.39137 1.44131,0.9671 2.13934,1.46201c0.94357,0.66899 1.50751,0.91479 2.42999,1.278c0.68509,0.26973 1.86087,0.69394 2.28534,0.86c0.88449,0.34604 1.78403,0.71927 2.22665,0.91916c1.28003,0.57808 2.03714,0.98978 2.73334,1.38484c0.65302,0.37056 1.2543,0.75635 2.47067,1.32666c0.58383,0.27374 1.48471,0.56841 2.48001,1.20551c0.72894,0.46661 1.1315,0.90762 2.08798,1.6785c0.51208,0.4127 1.08401,0.81604 1.68002,1.272c0.64438,0.49297 1.68002,1.36467 2.40149,2.03333c0.36932,0.34229 1.09247,1.04201 1.7825,1.72667c0.63782,0.63284 1.19019,1.20755 1.94849,1.92633c0.46313,0.439 1.43848,1.2473 1.98251,1.64618c0.57578,0.42213 1.20389,0.84717 2.20499,1.56216c0.71884,0.5134 1.45093,1.05481 2.172,1.608c0.35294,0.27078 1.33972,1.04535 2.15152,1.77266c0.49628,0.44464 1.19138,1.1378 1.93134,1.87401c0.53485,0.53214 1.09039,1.08835 1.68298,1.62599c0.88245,0.80063 1.49445,1.27498 2.11685,1.73801c0.64682,0.4812 1.35486,0.97664 2.52133,1.85733c0.42737,0.32265 0.86288,0.66238 1.75732,1.35733c0.44943,0.3492 1.32779,1.0376 2.16666,1.66667c0.75888,0.56908 1.46518,1.06679 2.112,1.54799c0.62241,0.46303 1.52786,1.1993 2.11685,1.73801c0.59042,0.54001 1.14722,1.09479 1.93784,1.88066c0.7139,0.70961 1.15082,1.1638 1.85065,1.76534c0.72165,0.62029 1.54947,1.20502 2.12668,1.60133c0.5881,0.40378 1.49567,0.99091 2.38934,1.61067c0.60434,0.41911 1.21725,0.85403 2.09964,1.61067c0.60349,0.51749 1.17682,1.06175 1.686,1.62599c0.90451,1.00235 1.23941,1.47865 1.59302,2.17799c0.58862,1.16411 0.73801,1.71596 0.98532,2.51334c0.34421,1.10973 0.39624,1.87683 0.44049,2.9185c0.0318,0.7485 0.25919,1.7518 0.51636,2.34283c0.44244,1.01677 0.87933,1.79991 1.17917,2.39999c0.50027,1.00121 0.81476,1.61436 1.09998,2.28534c0.42065,0.98961 0.71283,1.80569 0.91467,2.63066c0.24213,0.98958 0.24237,1.88901 0.50668,2.884c0.16269,0.61249 0.54309,1.39003 0.72598,2.40001c0.14377,0.79399 0.34433,1.79579 0.62735,2.564c0.34949,0.94856 0.42465,1.72 0.42532,2.66133c0.00073,1.008 0,1.8 0,2.65866c0,0.86334 -0.04562,1.77527 0.08533,2.48534c0.19403,1.0522 0.53806,1.76764 0.74802,2.69734c0.20383,0.90251 0.16666,1.85416 0.16666,2.65465c0,0.85333 0,1.79468 0,2.84534c0,0.65869 0,1.66669 0,2.45868l0,1.02734l0,0.69464l-0.01068,1.00601" id="svg_10" stroke-width="2" stroke="#000" fill="none"/>
  <path t="25410,25430,25430,25437,25453,25468,25484,25484,25500,25500,25518,25518,25533,25533,25551,25551,25567,25567,25583,25583,25601,25637,25661,25685,25713,25729,25729,25737,25751,25767,25767,25997" d="m40,149c-6.688,0.91467 -7.53595,0.99466 -8.4,1c-0.89998,0.00555 -1.80133,0 -2.76667,0c-0.83333,0 -1.812,0 -2.586,0c-0.9045,0 -1.65183,0 -2.64733,0c-0.8,0 -1.79983,0 -2.57917,0c-0.9995,0 -1.90483,0 -2.84617,0c-0.69067,0 -1.764,0 -2.57467,0c-0.9,0 -1.8,0 -2.7,0c-0.9,0 -1.70017,0.0173 -2.6,0c-0.93652,-0.01801 -1.784,-0.284 -2.47467,-0.57466l-1.05917,-0.36818" id="svg_11" stroke-width="2" stroke="#000" fill="none"/>
  <path t="27370,27390,27429,27580,27590,27619,27635,27635,27652,27652,27652,27669,27685,27685,27685,27685,27702,27702,27703,27719,27719,27719,27735,27735,27735,27750,27750,27750,27767,27767,27783,27783,27783,27813,27813,27893" d="m34,310c-1.564,0.61066 -2.10544,1.38629 -2.57467,2.02533c-0.45527,0.62006 0.42714,1.10275 0.98533,1.84668c0.38355,0.51117 1.07407,1.5249 1.5685,2.10715c0.4534,0.53391 0.90898,1.43335 1.35416,2.35419c0.33623,0.69547 0.86087,1.43872 1.26933,1.89865c0.75001,0.84454 1.42744,1.23178 1.99733,1.73599c0.84806,0.75034 1.39758,1.55469 1.8,2.08383c0.59643,0.78424 1.17199,1.51514 1.8,2.1015c0.76744,0.71655 1.43914,1.03482 2.14283,1.59933c0.83017,0.66595 1.0742,1.32111 1.82383,2.08069c0.59887,0.60681 1.34933,1.05066 1.948,1.65067l0.47467,0.69064l0.608,0.93869" id="svg_12" stroke-width="2" stroke="#000" fill="none"/>
  <path t="28473,28473,28473,28473,28473,28473,28473,28473,28495,28495,28495,28495,28501,28501,28517,28517,28532,28533,28533,28533,28533,28550,28550,28550,28550,28550,28566,28566,28566,28566,28566,28566,28583,28583,28583,28583,28599,28599,28600,28615,28615,28616,28616,28633,28633,28633,28649,28650,28650,28650,28666,28666,28666,28666,28683,28683,28683,28683,28700,28700,28700,28700,28700,28715,28716,28716,28716,28732,28733,28733,28749,28750,28750,28750,28765,28766,28766,28766,28766,28783,28783,28783,28800,28800,28800,28816,28816,28816,28833,28833,28849,28850,28878,28878,28918,28929,28938,28938,28950,28966,28983,28983,28999,29000,29000,29000,29016,29016,29016,29016,29016,29033,29033,29033,29049,29050,29050,29050,29066,29066,29066,29066,29066,29083,29083,29083,29083,29100,29100,29100,29116,29116,29116,29116,29133,29133,29133,29150,29150,29150,29150,29150,29168,29168,29168,29168,29169,29183,29183,29183,29183,29202,29202,29216,29216,29216,29216,29235,29235,29235,29250,29250,29250,29250,29266,29266,29266,29283,29283,29300,29300,29300,29316,29316,29316,29333,29333,29352,29352,29366,29366,29383,29383,29400,29416,29433,29433,29450,29450,29466,29466,29483,29483,29500,29500,29516,29516,29532,29533,29533,29550,29550,29550,29550,29566,29566,29566,29583,29583,29583,29583,29600,29600,29600,29600,29600,29618,29618,29618,29619,29619,29633,29633,29633,29633,29633,29650,29650,29650,29650,29650,29666,29666,29666,29666,29666,29666,29685,29686,29686,29686,29700,29700,29700,29700,29700,29716,29716,29716,29733,29733,29733,29733,29750,29750,29750,29766,29766,29766,29766,29766,29783,29783,29783,29783,29800,29800,29800,29800,29816,29816,29833,29833,29833,29833,29850,29850,29850,29866,29866,29883,29883,29900,29916,29916,29933,29950,29966,29983,30000,30000,30016,30033,30050,30050,30070,30085,30101,30116,30116,30133,30150,30150,30166,30166,30166,30166,30183,30183,30183,30183,30200,30200,30200,30216,30216,30216,30216,30216,30233,30233,30233,30233,30233,30250,30250,30250,30250,30266,30266,30266,30266,30266,30283,30283,30283,30283,30299,30300,30316,30316,30333,30333,30350,30350,30366,30366,30383,30383,30400,30416,30416" d="m17,337c1.114,-1.09982 1.64337,-1.21204 2.896,-1.38934c0.68634,-0.09714 1.39436,-0.17749 2.106,-0.25348c0.69904,-0.07465 2.56843,-0.23929 3.08333,-0.27185c0.87697,-0.05545 1.87333,-0.08307 2.94533,-0.08533c0.7175,-0.0015 1.64198,0.02258 2.54533,-0.05716c0.92686,-0.08182 1.67856,-0.22745 2.52133,-0.36816c0.89856,-0.15002 1.35547,-0.25031 2.736,-0.40802c0.88212,-0.10077 1.75208,-0.13995 2.628,-0.19199c0.44854,-0.02664 1.87289,-0.1337 2.90533,-0.25867c0.53466,-0.06473 1.61239,-0.2168 2.14667,-0.29068c1.03312,-0.14285 1.98553,-0.27142 2.83067,-0.34c0.74717,-0.06061 1.74249,-0.08307 2.956,-0.08533c0.6,-0.0011 1.5,0 2.7,0c0.6,0 1.5,0.00009 2.4,0c0.9,-0.00009 1.80215,0.02054 2.7,-0.05716c0.90326,-0.07819 1.80346,-0.29993 2.42083,-0.44284c0.96293,-0.2229 1.99938,-0.39285 2.73183,-0.44284c0.74648,-0.05096 1.49466,-0.0549 2.92617,-0.05716c0.673,-0.00107 1.342,0.00006 2.3905,0c1.17333,-0.00009 2.03605,-0.00131 2.48133,-0.01068c0.89883,-0.01892 1.78664,-0.03326 3.00633,-0.21066c0.7327,-0.10657 1.71765,-0.37222 2.34033,-0.49466c1.19607,-0.23517 1.80228,-0.26205 2.70267,-0.27951c1.20012,-0.02325 1.809,-0.00449 2.772,-0.00449c0.69866,0 1.87067,0 2.73333,0c0.89467,0 1.344,0 2.22667,0c1.22483,0 2.28533,0 2.91067,0c1.09067,0 2.032,-0.00006 2.71,0c0.96867,0.00009 1.77608,-0.03094 2.59467,0.05716c1.03799,0.11169 1.88341,0.52707 2.786,0.77618c0.89988,0.24838 1.83287,0.07751 2.514,0.22382c1.05717,0.22705 1.8032,0.69553 2.65266,1.1095c0.65226,0.31787 1.56783,0.70938 2.3,1.19052c0.79424,0.52191 1.22532,1.18423 2.03333,1.80948c0.66793,0.51685 1.22303,0.87814 1.77567,1.35217c0.91629,0.78595 1.50179,1.43793 2.06966,2.13184c0.56288,0.68781 0.83612,1.02438 1.6785,2.30649c0.34512,0.52527 0.74453,1.26514 1.30949,2.2095c0.47958,0.80164 0.86015,1.37134 1.23784,1.995c0.60513,0.99924 1.0021,1.71823 1.38483,2.46368c0.38264,0.7453 0.74289,1.48318 1.18917,2.55316c0.27524,0.65988 0.61342,1.60995 0.82017,2.22018c0.40643,1.19962 0.60133,1.80133 0.90133,2.70132c0.3,0.89999 0.6,1.79999 0.8,2.39999c0.3,0.89999 0.61603,1.79517 0.88934,2.71066c0.18573,0.62213 0.45743,1.95459 0.52666,2.67599c0.07282,0.75879 0.09555,1.56107 0.168,2.39999c0.11542,1.33658 0.19546,1.79672 0.34133,2.72803c0.14484,0.92468 0.25189,1.37149 0.408,2.65198c0.13552,1.11163 0.155,1.77069 0.16533,2.64536c0.01186,1.00394 0.00134,1.91333 0.00134,2.85464c0,0.7905 0,1.64401 0,2.23468c0,1.19998 0,2.11951 0,2.75583c0,1.36401 0,2.091 0,2.82199c0,0.711 0,1.97784 0,2.74884c0,0.86932 0.05859,1.87869 -0.05717,2.672c-0.14828,1.01624 -0.47005,1.61819 -0.74416,2.28534c-0.4082,0.99347 -0.65922,1.81079 -0.99867,2.54532c-0.45311,0.98044 -1.07121,1.58893 -1.85266,2.06934c-0.68289,0.4198 -1.5355,1.10345 -2.23134,1.41467c-0.88893,0.39758 -1.632,0.28467 -2.70533,0.28534c-0.82133,0.00052 -1.732,0 -2.58533,0c-0.94133,0 -1.70934,0 -2.66133,0c-0.76534,0 -1.764,0 -2.564,0c-1,0 -1.8,0 -2.8,0c-0.8,0 -1.8,0 -2.62134,0c-0.693,0 -1.82133,0 -2.82933,0c-0.69867,0 -1.38144,-0.01456 -2.58134,0.00134c-0.76818,0.01019 -1.53941,0.06427 -2.74,0.28265c-0.71288,0.12967 -1.48223,0.31033 -2.316,0.43201c-1.32912,0.19394 -1.79544,0.21075 -2.73733,0.24799c-0.94894,0.03751 -1.422,0.03271 -2.80801,0.03601c-0.88133,0.00211 -1.73114,-0.00177 -2.556,0.03601c-0.80998,0.03711 -2.01196,0.17862 -2.81516,0.31665c-0.81754,0.1405 -1.2286,0.24069 -2.08083,0.36334c-1.33245,0.19177 -2.27616,0.23126 -2.76134,0.24799c-0.99973,0.03445 -1.51499,0.03375 -3.12,0.03601c-0.55434,0.00076 -1.677,0 -2.23734,0c-1.09867,0 -1.629,0.00116 -3.096,0c-0.84534,-0.00067 -1.60373,0.01016 -2.304,-0.03601c-1.36595,-0.09006 -2.0806,-0.2449 -2.82133,-0.38931c-0.74995,-0.14621 -1.48595,-0.32703 -2.88934,-0.49066c-0.64759,-0.0755 -1.586,-0.10132 -2.48533,-0.25067c-0.9066,-0.15057 -1.49292,-0.36533 -2.4,-0.54935c-1.19484,-0.2424 -1.8223,-0.24719 -2.81433,-0.33667c-1.12024,-0.10104 -1.95433,-0.2287 -2.391,-0.3045c-0.89611,-0.15555 -1.79363,-0.32941 -3.06134,-0.64282c-0.76541,-0.18924 -1.46318,-0.39407 -2.112,-0.60001c-1.22493,-0.38882 -1.81541,-0.61353 -2.7005,-0.87915c-0.83142,-0.24951 -1.83477,-0.46765 -2.74617,-0.51016c-0.94037,-0.04388 -1.73279,0.00461 -2.58533,-0.04669c-0.59165,-0.03561 -1.79463,-0.2258 -2.6685,-0.48483c-0.56839,-0.16849 -1.59498,-0.58884 -2.47917,-0.95831c-0.87099,-0.36395 -1.73377,-0.58011 -2.45233,-0.94617c-0.90629,-0.4617 -1.79594,-0.48611 -2.528,-1c-0.65766,-0.46167 -1.50587,-0.47922 -2.26133,-0.85867c-0.86721,-0.43558 -1.5,-0.76868 -2.3,-1.216c-0.8,-0.44733 -1.72192,-0.76089 -2.3,-1.30133c-0.61366,-0.5737 -1.15729,-1.39566 -1.2,-2.29868c-0.04252,-0.89899 0.12108,-1.715 -0.05717,-2.65717c-0.17768,-0.93915 -0.57788,-1.51242 -0.77617,-2.57617c-0.11749,-0.63031 -0.15248,-1.68738 -0.16217,-2.41849c-0.01433,-1.08142 0.01818,-1.76364 -0.02533,-2.72733c-0.04158,-0.92084 -0.19413,-1.82248 -0.4045,-2.73151c-0.14495,-0.62637 -0.42518,-1.95425 -0.48933,-2.67599c-0.06743,-0.75861 -0.07891,-1.55997 -0.084,-2.39999c-0.00808,-1.33447 -0.00133,-1.79602 -0.00133,-2.72803c0,-0.92398 0,-1.81598 0,-3.04266c0,-0.73734 0,-1.44266 0,-2.14798c0,-1.12802 0,-1.96268 0,-2.84534c0,-0.89868 0,-1.78134 0,-3.00616c0,-0.72433 0,-1.38068 0,-2.25519c0,-1.00266 0,-1.87732 0,-2.888c0,-0.79999 0,-1.79999 0,-2.58932c0,-1.04401 0,-1.836 0,-2.69598c0,-0.91919 0,-1.91336 0,-2.67868l0,-0.95065l0,-0.88535l0,-0.79999" id="svg_13" stroke-width="2" stroke="#000" fill="none"/>
  <path t="31626,31683,31683,31693,31732" d="m11,378c-5.77333,0 -6.6775,0 -7.6,0l-0.964,0" id="svg_14" stroke-width="2" stroke="#000" fill="none"/>
  <path t="34980,34987,34987,34987,34987,35002,35002,35022,35074,35143,35246" d="m5,342c3.25067,0.91467 4.06513,0.97168 4.888,0.98932c0.77454,0.0166 1.726,0.01068 2.66933,0.01068c0.94267,0 1.84267,0 2.74267,0l0.89733,0" id="svg_16" stroke-width="2" stroke="#000" fill="none"/>
  <path t="37809,37829,37829,37850,37868,37885,37901,37918,37918,37935,37935,37950,37967,37983,37999,37999,38016,38033,38053,38053,38069,38083,38100,38100,38118,38133,38134,38150,38227,38251,38269,38347,38354,38368,38368,38385,38401,38401,38401,38401,38418,38418,38418,38418,38418,38435,38435,38435,38435,38435,38451,38452,38452,38452,38452,38452,38468,38468,38468,38468,38469,38469,38469,38483,38483,38483,38483,38483,38483,38499,38499,38499,38500,38500,38516,38516,38516,38516,38533,38534,38534,38549,38549,38593,38601,38616,38616" d="m352,321c-0.87833,8.12784 -1.36285,9.40793 -0.64282,9.94284c0.75821,0.56326 1.84283,0.05716 2.74283,0.05716c0.89999,0 1.65717,0 2.55267,0c0.86331,0 1.82648,0.00229 2.74731,0c0.89999,-0.00226 1.64456,-0.31107 2.39999,-0.716c0.75598,-0.40524 1.62576,-0.69385 2.29984,-1.384c0.56543,-0.57892 0.88974,-1.39981 0.90018,-2.31067c0.01041,-0.91058 0,-1.76398 0,-2.70398c0,-0.88535 0.20947,-1.72385 -0.05716,-2.58536c-0.26804,-0.86615 -1.50571,-1.51675 -1.90683,-0.86398c-0.45273,0.73676 -0.19876,1.82086 0.18533,2.664c0.35535,0.78 0.76025,1.46594 0.94531,2.39999c0.17337,0.87506 0.3526,1.5629 0.53784,2.31351c0.29297,1.1871 0.48941,1.98846 0.70618,2.7865c0.21786,0.80203 0.45264,1.60825 0.91064,2.80017c0.15527,0.40408 0.51157,1.20734 0.85333,2.03583c0.34906,0.84619 0.67572,1.72559 0.94135,2.65201c0.27649,0.96439 0.38486,1.47427 0.63666,2.53082c0.13181,0.55304 0.40961,1.71564 0.73135,2.94916c0.16641,0.63794 0.34134,1.28268 0.51599,1.93201c0.17465,0.64932 0.52228,1.93042 0.83334,3.16666c0.14832,0.58945 0.41223,1.71494 0.54132,2.25067c0.24728,1.02615 0.34531,1.52661 0.79199,2.91602c0.1442,0.44849 0.47855,1.3082 0.83334,2.125c0.34018,0.78314 0.84366,1.87082 1.11465,2.55634c0.37903,0.95886 0.58347,1.57993 0.98517,2.78497c0.19696,0.59091 0.51297,1.41571 0.73352,2.367c0.20096,0.86679 0.16666,0.8125 0.15598,-0.07733l-0.21082,-0.91064l-0.29935,-0.67868" id="svg_17" stroke-width="2" stroke="#000" fill="none"/>
  <path t="39001,39006,39006,39006,39006,39006,39006,39006,39006,39007,39018,39018,39018,39018,39018,39018,39018,39018,39018,39035,39035,39035,39051,39051,39068,39068,39090,39090,39110,39125,39133,39149,39166,39230,39230,39349,39436,39458,39468,39483,39483,39499,39516,39516,39533,39533,39549,39549,39549,39566,39566,39583,39583,39583,39599,39599,39599,39616,39616,39633,39633,39633,39649,39649,39666,39666,39683,39683,39683,39699,39699,39699,39716,39716,39716,39733,39733,39749,39749,39766,39766,39766,39783,39783,39783,39799,39799,39799,39816,39816,39833,39849,39849,39866,39866,39866,39883,39883,39883,39899,39899,39899,39916,39916,39933,39933,39949,39949,39949,39966,39966,39983,39983,39983,39983,39999,39999,39999,40016,40016,40033,40033,40049,40049,40066,40066,40066,40083,40083,40083,40099,40099,40099,40116,40116,40116,40133,40133,40133,40149,40149,40149,40149,40166,40166,40183,40183,40183,40183,40199,40199,40199,40229,40229" d="m357,332c0.83334,3.5 1.10507,4.42072 1.42133,5.46133c0.34457,1.13376 0.71445,2.32983 1.09952,3.55951c0.38693,1.23566 0.76959,2.44742 1.1445,3.60449c0.66202,2.04327 0.94604,2.87451 1.19199,3.57999c0.20746,0.59506 0.38773,1.09076 0.53851,1.50302c0.12524,0.34241 0.2345,0.62683 0.31348,0.87299c0.13339,0.41577 0.21329,1.22751 0.37469,2.01868c0.20721,1.01572 0.62289,1.7988 1.01581,2.59982c0.38168,0.77817 0.8121,1.62238 0.89569,2.49567c0.08621,0.90039 0.00449,1.8045 0.00449,2.7045c0,0.89999 -0.00797,1.80136 0,2.76666c0.00534,0.64807 0.34564,1.59399 0.94733,2.186c0.55197,0.54309 1.28903,0.18539 2.05267,-0.186c0.75391,-0.36667 1.48849,-0.73508 2.32132,-1.26648c0.65546,-0.41821 1.65109,-0.8306 2.34003,-0.8895c1.10403,-0.09439 1.8595,-0.01123 2.65598,-0.01068c0.99734,0.00067 1.88959,-0.04239 2.88284,0.2215c0.6254,0.16617 1.48389,0.58307 2.48251,0.97983c0.53131,0.21109 1.38528,0.45132 2.1745,1.12c0.70236,0.59509 1.28531,1.54257 1.7955,1.92151c0.66562,0.49438 1.71719,0.9754 2.06067,1.64252c0.45602,0.88571 0.33478,1.80927 0.57199,2.79865c0.13101,0.54645 0.40466,1.36902 0.81448,2.39468c0.27969,0.69998 0.67444,1.59521 0.81485,2.60532c0.1127,0.81076 0.08466,1.63202 0.08533,2.63068c0.00058,0.87466 0,1.88535 0,2.68533c0,1 0.00006,1.81067 0,2.45715c-0.00009,0.96417 0.03098,1.77161 -0.05716,2.59018c-0.11179,1.03818 -0.45285,1.93683 -0.74417,2.55133c-0.47659,1.00534 -0.75769,1.77747 -1.15051,2.64417c-0.40781,0.89981 -1.08554,1.26547 -2.04816,1.75717c-0.59738,0.30515 -1.39401,0.71222 -2.20016,1.09982c-0.81482,0.39175 -1.47507,0.67447 -2.48383,0.81485c-0.81073,0.11282 -1.63202,0.08466 -2.85886,0.08533c-0.64648,0.00037 -1.65717,0 -2.45715,0c-1,0 -1.81,0.06122 -2.60001,-0.08533c-1.02127,-0.18945 -1.84753,-0.68423 -2.60001,-1.45752c-0.4288,-0.44067 -0.99396,-1.24707 -1.39999,-1.77448c-0.59113,-0.76779 -1.18262,-1.44241 -1.74283,-2.02103c-0.76147,-0.7865 -1.38229,-1.38916 -1.60449,-2.31882c-0.17545,-0.73407 -0.31149,-1.75412 -0.66333,-2.54285c-0.36243,-0.81253 -0.82254,-1.59515 -1.03217,-2.25714c-0.29971,-0.94641 -0.3353,-1.77844 -0.35269,-2.64734c-0.02393,-1.1951 -0.00449,-1.79102 -0.00449,-2.65952c0,-1.06934 -0.02301,-2.01379 0.05716,-2.68866c0.11591,-0.97583 0.37064,-1.78589 0.64734,-2.65182c0.28702,-0.89825 0.59125,-1.79248 0.7955,-2.37466c0.29388,-0.83768 0.65033,-1.86276 1.13599,-2.71017c0.48178,-0.84064 1.02246,-1.41406 1.57468,-2.04666c0.39157,-0.44855 1.18802,-1.44669 1.57867,-1.97867l0.5535,-0.77551l0.63565,-0.86667l0.50067,-0.58066" id="svg_18" stroke-width="2" stroke="#000" fill="none"/>
 </g>
 <g display="none">
  <title>muse_image</title>
  <image xlink:href="http://farm2.static.flickr.com/1252/667898487_003069fb9e.jpg" id="muse" height="426" width="640" y="27" x="0"/>
 </g>
 <g display="none">
  <title>bbox</title>
  <rect stroke="#f00" fill="none" stroke-width="3" height="426" width="581.12" y="27" x="1.28" id="bbox"/>
 </g>
</svg>
