<svg width="640" height="480" xmlns="http://www.w3.org/2000/svg" xmlns:svg="http://www.w3.org/2000/svg" xmlns:xlink="http://www.w3.org/1999/xlink">
 <!-- Sketchy ANNOTATION
  ImageNet ID: n02691156_2196
  URL: http://farm4.static.flickr.com/3228/2725691508_f156a49e2a.jpg
  Image Width: 500
  Image Height: 333
  BBox X: 77
  BBox Y: 85
  BBox Width: 372
  BBox Height: 157
  Exposure: 2000ms
  Synset Label: airplane
  Synset ID: n02691156
  Worker Tag: an airplane flying
  Sanity Check: 
   Context
   Saved
   Shading
  Comment: 
   {}
  Worker ID: AKDCGQKFLU04S
  Assignment ID: 3VNXK88KKCI31GJHVPAH3235177V9F
  HIT ID: 3KTZHH2ONIFIA484M3YARQUWPJG8M0
  Work Time: 399s
  Worker Score: 0.9286
 END ANNOTATION -->
 <g display="inline">
  <title>Layer 1</title>
  <path t="0,151,152,152,230,286,286,302,302,382,440,441,462,462,462,462,516,516,534,535,535,593,594,594,621,621,621,621,621,639,639,639,639,690,690,690,718,719,719,719,719,719,770,770,770,770,770,770,770,790,791,791,791,791,791,791,791,814,814,814,814,815,815,815,815,878,878,878,878,878,878,894,894,894,894,895,895,895,895,895,964,964,965,965,965,965,984,984,984,984,984,984,1000,1000,1000,1001,1001,1001,1001,1023,1023,1023,1024,1024,1024,1080,1080,1080,1080,1080,1080,1080,1080,1102,1102,1102,1102,1103,1103,1103,1103,1103,1161,1161,1161,1161,1161,1161,1161,1161,1162,1174,1174,1175,1175,1175,1175,1175,1175,1175,1199,1199,1199,1199,1199,1199,1199,1200,1200,1256,1256,1256,1256,1256,1257,1257,1257,1257,1278,1278,1278,1279,1279,1279,1279,1279,1279,1337,1337,1337,1337,1337,1338,1338,1338,1338,1358,1358,1358,1359,1359,1359,1359,1359,1359,1408,1408,1408,1409,1409,1409,1409,1409,1409,1431,1432,1432,1432,1432,1432,1432,1433,1433,1486,1486,1486,1486,1487,1487,1487,1487,1487,1489,1490,1490,1490,1490,1490,1490,1491,1491,1511,1512,1512,1513,1513,1513,1513,1513,1514,1614,1614,1615,1615,1615,1615,1616,1616,1617,1671,1671,1671,1671,1671,1672,1672" d="m127,160.5c1.48267,1.76801 2.01915,2.47679 2.43066,3.23199c0.50558,0.92784 0.47266,1.88483 0.65466,2.65334c0.23122,0.97627 0.66472,1.66867 1.21468,2.3575c0.64337,0.80583 1.24413,1.2804 1.86667,2.0905c0.50534,0.65759 0.82037,1.17598 1.34933,1.89867c0.71405,0.97556 1.25456,1.55988 1.80516,2.31067c0.51038,0.69594 1.01399,1.42909 1.43649,2.315c0.31882,0.66849 0.55502,1.29837 1.12817,2.12784c0.51546,0.74599 1.17143,1.53973 1.52083,1.94916c0.70291,0.82367 1.41042,1.58295 2.10533,2.20801c0.61665,0.55466 1.21631,0.97473 2.15468,1.69066c0.54347,0.41464 1.24861,1.03888 2,1.66667c0.66945,0.55934 1.05605,0.8688 1.89583,1.54167c0.44341,0.35527 1.35574,1.07924 2.27083,1.79166c0.44498,0.34644 1.32407,1.01874 1.77335,1.34134c0.91974,0.66042 1.41319,0.98479 1.93332,1.30933c1.11765,0.69739 2.39706,1.40298 3.07967,1.76868c0.70137,0.37573 1.42119,0.74893 2.151,1.12199c0.73218,0.37427 1.46378,0.74179 2.89601,1.45866c0.68973,0.34523 1.35898,0.67937 2.00549,1.005c0.62416,0.31438 1.22482,0.61777 1.79851,0.91499c1.07283,0.55585 2.03159,1.07603 2.88399,1.56534c0.82489,0.47351 1.24527,0.73068 2.18918,1.24834c0.53246,0.29201 1.78801,0.936 2.52666,1.29683c0.79858,0.39011 1.64565,0.79115 2.5215,1.20151c0.88647,0.41533 1.76913,0.82309 2.6295,1.2195c0.82098,0.37825 2.27896,1.0475 2.8855,1.3295c0.5294,0.24614 0.99347,0.46298 1.401,0.66299c0.70659,0.34679 1.99271,1.05479 2.35651,1.26567c0.80855,0.46866 1.69818,0.99837 2.1675,1.27834c0.48169,0.28735 1.96756,1.1794 2.468,1.4785c0.99911,0.59714 1.49826,0.89252 2,1.17934c0.99658,0.56969 1.48917,0.85715 3.00017,1.59949c0.4977,0.24452 1.00282,0.47208 2.02066,0.92134c0.5144,0.22705 1.56703,0.67836 2.64584,1.16667c0.55766,0.25241 1.73068,0.80466 2.36533,1.10133c0.67601,0.31602 1.40161,0.65298 2.187,1.008c0.84921,0.38385 2.78006,1.22623 3.873,1.68817c1.16299,0.49155 2.38243,0.99728 3.636,1.52249c1.27245,0.53311 2.54596,1.0688 3.798,1.6125c1.21992,0.52975 3.47847,1.55843 4.48166,2.05833c0.93793,0.46738 1.81248,0.93604 2.64301,1.4025c0.81076,0.45535 1.60576,0.92595 2.409,1.4025c0.82611,0.49011 2.60503,1.54097 3.58984,2.10133c1.03775,0.59048 2.12202,1.19264 3.23849,1.8015c1.13118,0.61687 2.269,1.22583 3.4005,1.8195c1.10722,0.58093 3.20976,1.65204 4.18184,2.129c0.91071,0.44684 1.76794,0.85454 2.571,1.23151c0.74966,0.35191 1.45116,0.67494 2.103,0.97949c0.6068,0.28351 1.6908,0.80501 2.17033,1.05383c0.45107,0.23405 0.87518,0.46773 1.284,0.69601c0.40186,0.2244 0.80168,0.45245 1.21201,0.67799c0.4243,0.23322 1.35458,0.71692 1.875,0.96883c0.5515,0.26694 1.13374,0.53624 1.737,0.8145c0.61874,0.28542 1.24875,0.57306 1.881,0.86852c0.63174,0.29523 1.86476,0.89203 2.45418,1.19583c0.57993,0.29892 1.15109,0.60728 1.72348,0.92099c0.58194,0.31894 1.17691,0.65143 1.7955,0.99301c0.64673,0.35713 2.05521,1.12148 2.82968,1.528c0.81079,0.4256 1.65091,0.85678 2.50949,1.28699c0.86176,0.43181 1.71951,0.85184 2.56351,1.25101c0.81342,0.3847 2.31812,1.05878 2.99316,1.3345c0.6265,0.25587 1.22845,0.4814 1.81799,0.69449c0.59183,0.21391 1.20602,0.42616 1.854,0.65851c0.70139,0.2515 2.32346,0.86183 3.26917,1.23917c1.03177,0.41167 2.12714,0.86339 3.27151,1.341c1.17798,0.49167 2.36969,0.99643 3.55948,1.50299c1.17154,0.49881 3.3887,1.44855 4.40466,1.88467c0.95337,0.40924 1.85117,0.79541 2.69852,1.16699c0.80695,0.35385 1.5788,0.69812 2.3205,1.04102c0.7236,0.33453 2.13303,1.01999 2.83099,1.37732c0.69803,0.35736 1.38705,0.7225 2.06851,1.08301c0.66956,0.35422 1.32251,0.70157 1.96048,1.02899c0.61407,0.31516 1.7688,0.87329 2.30701,1.10266c0.50601,0.21564 0.99176,0.40076 1.45651,0.56702c0.44434,0.15897 0.87616,0.30084 1.29449,0.44098c0.40967,0.13724 1.21472,0.41992 1.61301,0.57736c0.39771,0.15723 0.7868,0.32306 1.16849,0.48297c0.36935,0.15475 0.72223,0.30331 1.06052,0.42902c0.3139,0.11667 0.86969,0.28275 1.10617,0.30167c0.20203,0.01617 0.37131,-0.02866 0.504,-0.09601l0.09467,-0.10532l0.06732,-0.33267" id="svg_1" stroke-width="2" stroke="#000" fill="none"/>
  <path t="2607,2807,2808,2818,2818,2818,2818,2839,2839,2865,2865,2918,2968,2990,2990,3060,3076,3118,3118,3187,3223,3224,3248,3248,3278,3279,3329,3330,3330,3350,3350,3350,3351,3351,3351,3390,3390,3390,3390,3390,3390,3405,3405,3405,3405,3430,3430,3430,3430,3431,3483,3483,3483,3483,3483,3502,3502,3502,3502,3503,3559,3559,3559,3613,3613,3630,3630,3630,3631,3690,3690,3690,3691,3711,3711,3711,3711,3711,3777,3777,3777,3777,3788,3789,3789,3789,3789,3838,3839,3888,3888,3942,3942,3942,3943,3992,3992,4038,4039,4039,4039,4166,4167,4216,4216,4294,4294,4294" d="m126,161.5c0.009,-2.60899 0.05727,-3.53253 0.44283,-4.6425c0.23311,-0.67108 0.56075,-1.34563 0.909,-1.995c0.5975,-1.11415 1.01344,-1.65337 1.74801,-2.46251c0.54393,-0.59915 0.77618,-1.46782 1.25732,-2.2c0.52193,-0.79425 1.29601,-1.17491 2.03217,-1.67467c0.69078,-0.46895 1.14793,-1.2845 1.79601,-1.58932c1.01648,-0.4781 1.9294,-0.34842 2.7,-0.52133c0.797,-0.17883 1.50012,-0.64714 2.51466,-0.82935c0.79083,-0.14203 1.80084,-0.08533 2.70418,-0.08533c0.58167,0 1.72916,0 2.71849,0c0.54967,0 1.71901,0 2.32268,0c0.60567,0 2.35466,0 2.89017,0c0.993,0 1.90199,0 2.33249,0c0.828,0 2.032,0 2.832,0c0.8,0 1.60001,-0.00099 2.8,0c0.80133,0.00067 1.6111,-0.00061 2.436,0.036c0.84993,0.03772 2.18625,0.1801 3.12115,0.31667c0.47923,0.07001 1.45273,0.22754 1.94734,0.29468c1.49332,0.20271 2.49138,0.27074 2.98199,0.29999c0.95078,0.05669 1.84796,0.05533 3.0135,0.21935c0.64716,0.09106 1.45294,0.29208 2.479,0.93333c0.58543,0.36588 1.51653,0.91281 2.07433,1.09999c0.96031,0.32225 1.65442,0.47363 2.61334,0.8c0.84064,0.2861 1.62451,0.66357 2.18666,0.97067c1.01926,0.55684 1.80757,1.03745 2.6675,1.52933c0.43837,0.25075 1.30537,0.74594 2.14584,1.16667c0.75778,0.37935 1.828,0.82536 2.48149,1.19583c1.04529,0.59258 1.38318,0.88889 2.0955,1.491c0.72542,0.61317 1.35345,1.27502 2.25633,1.97983c0.6059,0.47298 1.52924,0.79617 2.04167,1.22917c0.84399,0.71315 1.21762,1.21323 1.95833,1.91667c0.48898,0.46439 1.33701,1.20175 2.18666,1.56082c0.79642,0.33656 1.67134,0.66534 2.31334,0.96001c0.642,0.29466 1.71642,0.85489 2.604,0.97867c0.87453,0.12196 1.64267,0.09334 2.81717,0.464l0.52699,0.26266l0.7905,0.444" id="svg_2" stroke-width="2" stroke="#000" fill="none"/>
  <path t="5583,5990,5990,5990,5990,6014,6014,6014,6014,6014,6014,6014,6064,6064,6064,6064,6064,6064,6064,6086,6086,6087,6087,6087,6138,6138,6138,6138,6148,6148,6148,6148,6171,6171,6171,6171,6171,6190,6190,6190,6214,6214,6214,6266,6267,6276,6276,6276,6294,6294,6294,6294,6294,6325,6325,6325,6326,6326,6326,6342,6342,6342,6342,6342,6342,6374,6374,6374,6374,6374,6374,6374,6434,6435,6435,6435,6435,6435,6435,6435,6448,6448,6448,6448,6449,6449,6449,6449,6449,6470,6470,6470,6470,6470,6471,6471,6471,6548,6548,6549,6549,6549,6549,6549,6552,6552,6552,6552,6553,6553,6553,6553,6553,6574,6574,6574,6574,6574,6575,6575,6575,6575,6598,6598,6598,6598,6598,6599,6599,6630,6631,6631,6691,6691,6691,6691,6711,6711,6711,6711,6758,6809,6809,6854,6903,6913,6914,6914,6934,6934,6935,6935,6936,6959,6959,6959,6959,6959,7010,7011,7011,7011,7011,7021,7022,7022,7038,7038,7038,7038,7062,7062,7062,7088,7088,7089,7118,7118,7118,7118,7118,7142,7142,7143,7143,7143,7143,7194,7195,7195,7195,7196,7218,7218,7218,7218,7269,7270,7294,7294,7470,7470,7523,7534,7535,7535,7550,7550,7551,7551,7551,7574,7574,7574,7574,7574,7575,7642,7642,7642,7643,7643,7643,7643,7644,7661,7662,7662,7662,7662,7663,7663,7663,7664,7682,7683,7683,7683,7683,7702,7702,7702,7702,7761,7762,7762,7762,7782,7782,7782,7782,7783,7783,7783,7783,7847,7847,7847,7848,8086,8774,8854,8931,8958,9123,9166,9166,9166,9167,9167,9263,9263,9263,9338,9366,9494,9550,9551,9574,9574,9574,9646,9646,9646,9646,9647,9650,9650,9650,9651,9651,9651,9680,9681,9682,9709,9711,9711,9712,9739,9739,9739,9751,9782,9783,9830,9830,9958,9958,10030,10089,10154,10156,10157,10157,10167,10168,10168,10168,10202,10203,10238,10238,10927,10927,10950,10998,11011,11030,11054,11078,11110,11135,11135,11135,11158,11210,11238,11438,11498,11526,11526,11582,11598,11646,11646,11694,11762,11778,11798,11846,11974,11974,12006,12058,12058,12078,12078,12079,12079,12079,12140,12140,12159,12159,12159,12160,12182,12182,12234,12262,12262,12316,12334,12335,12335,12395,12414,12471,12489,12489,12570,12678,12694,12694,12718,12743,12774,12774,12837,12837,13614,13615,13638,13698,13742,13742,13768,13769,13829,14126,14177,14178" d="m207,171.5c2.97333,-1.20134 3.6935,-1.41005 4.49333,-1.636c0.88019,-0.24866 1.84129,-0.52649 2.87733,-0.84933c0.54436,-0.16963 1.10199,-0.34866 2.25067,-0.72533c0.588,-0.19281 1.18147,-0.39027 2.37866,-0.78934c1.19881,-0.3996 1.79584,-0.59901 2.38933,-0.8c1.17534,-0.39803 1.75447,-0.59724 2.32533,-0.8c1.66621,-0.59181 2.19757,-0.79459 3.21735,-1.18933c0.48541,-0.1879 1.39577,-0.54457 2.56799,-1.04399c0.64879,-0.27641 1.47365,-0.65967 2.00084,-0.86217c1.1311,-0.43448 1.81216,-0.60938 2.54083,-0.8045c0.76598,-0.20512 1.95979,-0.49426 2.75566,-0.70134c0.78282,-0.20369 1.547,-0.39281 2.23199,-0.68399c1.23528,-0.5251 1.9393,-1.12938 2.41884,-1.46201c0.95297,-0.66103 1.77199,-1.00409 2.54201,-1.34816c0.87363,-0.39035 1.48135,-0.85535 2.34315,-1.3045c0.66153,-0.34477 1.50514,-0.59947 2.66667,-1.16667c0.61365,-0.29965 1.2274,-0.67772 1.908,-1.04399c0.7431,-0.3999 2.05511,-0.99207 2.54533,-1.19067c0.50809,-0.20584 1.56931,-0.61497 2.10666,-0.83466c1.07706,-0.44032 2.11563,-0.91429 3.07199,-1.44801c0.46719,-0.26073 1.36606,-0.81921 1.81866,-1.09067c0.91348,-0.54785 1.87833,-1.06793 2.39233,-1.30399c1.06268,-0.48802 1.62823,-0.69794 2.19867,-0.92134c1.16583,-0.45659 1.76544,-0.67317 2.95834,-1.16667c0.60278,-0.24937 1.81363,-0.79025 2.43201,-1.06932c0.63062,-0.28459 1.27487,-0.57726 1.93948,-0.86852c0.68335,-0.29948 2.1268,-0.89989 2.89252,-1.19533c0.78625,-0.30336 1.59302,-0.59837 2.41199,-0.8895c0.82303,-0.29257 1.64755,-0.576 2.466,-0.8535c0.80557,-0.27313 2.35809,-0.79019 3.09317,-1.03568c0.70627,-0.23587 1.3848,-0.46301 2.03549,-0.6855c0.62561,-0.21391 1.22952,-0.41397 2.35468,-0.83466c1.04532,-0.39082 2.01492,-0.80342 2.49634,-1.01033c1.00385,-0.43146 1.54385,-0.6657 2.12665,-0.90533c0.63049,-0.25925 2.08377,-0.82243 2.92267,-1.12834c0.90234,-0.32904 1.85867,-0.66455 2.853,-1.008c1.017,-0.35127 2.04504,-0.69955 3.069,-1.04401c1.00537,-0.3382 2.90689,-0.97234 3.77783,-1.26216c0.81577,-0.27147 1.58124,-0.52571 2.30252,-0.7605c0.68039,-0.22147 1.3259,-0.42784 1.9425,-0.6165c0.59009,-0.18056 1.71677,-0.50227 2.26215,-0.64467c0.53198,-0.13889 1.05112,-0.2652 1.55402,-0.3855c0.94894,-0.22699 1.81921,-0.40524 2.90366,-0.73601c0.60254,-0.18378 1.36188,-0.51593 2.33099,-0.89999c0.78995,-0.31306 1.67798,-0.60665 2.32001,-0.8c1.03116,-0.31055 1.75461,-0.50506 2.81601,-0.764c0.6413,-0.15645 1.82718,-0.36108 2.69733,-0.436c0.80157,-0.06902 1.5387,-0.74701 2.42133,-0.964c0.88635,-0.2179 1.59888,-0.05744 2.436,0c1.31274,0.09007 2.03159,0.2347 2.77866,0.41066c0.77878,0.18344 1.57443,0.41567 2.76401,0.87484c0.40326,0.15565 1.20309,0.50801 2,0.88917c0.80316,0.38415 1.99948,0.98986 2.39868,1.188c0.78995,0.39207 1.56088,0.77501 2.31598,1.116c1.05765,0.47763 2.04767,0.83949 2.63867,1.11067c1.09802,0.50381 1.56268,0.85866 2.24667,1.37466c0.68399,0.51601 1.67813,1.12781 2.22534,1.364c0.81375,0.35124 1.85855,0.72488 2.56,1.04666c0.72995,0.33485 1.85889,0.90891 2.53351,1.25101c0.74484,0.37769 1.14212,0.5782 1.96915,1.02499c1.33932,0.72356 1.79443,0.99884 2.73734,1.528c0.47388,0.26595 1.41693,0.78568 1.89066,1.01601c1.34869,0.65573 1.79486,0.81071 2.64801,1.108c0.82181,0.28636 1.64453,0.51787 2.83551,0.9825c0.79395,0.30974 1.53436,0.66621 2.229,0.96899c1.10138,0.48009 1.84692,0.6114 2.68048,1.067c0.69931,0.38222 1.46411,0.82301 2.14935,1.12201c1.02081,0.44542 0.22507,0.97047 -0.31567,1.38216c-0.65524,0.49884 -1.45929,1.01479 -2.46152,1.3815c-0.73279,0.26813 -1.54645,0.45638 -1.96915,0.55583c-1.3313,0.31323 -2.28275,0.5056 -2.78,0.612c-1.05078,0.22482 -1.60852,0.34421 -2.18933,0.47467c-1.90906,0.42879 -2.60046,0.59944 -3.31866,0.77634c-0.74316,0.18304 -1.508,0.37758 -2.29202,0.58501c-0.80331,0.21252 -1.62396,0.43076 -3.29865,0.92c-0.85504,0.2498 -1.71014,0.5135 -2.55902,0.78149c-0.83643,0.26405 -1.65005,0.52884 -2.43298,0.7905c-0.74637,0.24944 -1.44803,0.4845 -2.67468,0.92801c-0.51764,0.18716 -0.97253,0.36125 -2.0625,0.79166c-0.58728,0.2319 -1.7439,0.65239 -2.414,0.83717c-0.70792,0.19521 -1.43637,0.38431 -2.86948,0.5835c-0.68378,0.09503 -1.40887,0.13496 -2.20203,0.28801c-1.46271,0.28224 -2.0267,0.49223 -2.63733,0.68633c-0.64185,0.20401 -1.30032,0.42506 -2.61865,0.90666c-0.64368,0.23514 -1.26025,0.46597 -2.36267,0.90668c-0.88904,0.35541 -1.83224,0.83022 -2.50665,1.04533c-1.05679,0.33708 -2.26837,-0.30013 -1.87201,-0.70134c0.61758,-0.62511 1.81641,-0.06122 2.396,0.44667c0.90042,0.78899 1.39999,1.31667 2.12,1.79333c0.38141,0.25252 1.1684,0.72594 2.19601,1.416c0.74686,0.50153 1.36093,0.93956 2.26666,1.35866c0.81174,0.37561 1.97998,0.53056 2.31067,1.26266c0.28992,0.64189 -0.75296,1.49321 -1.21869,1.96268c-0.50943,0.51352 -1.67853,1.43924 -2.29599,1.78133c-0.61548,0.34099 -1.30603,0.61389 -2.052,0.936c-1.31146,0.5663 -1.79654,0.79607 -2.80933,1.28267c-0.5148,0.24733 -1.0235,0.49696 -1.99734,0.98132c-1.25256,0.623 -1.92114,0.94315 -2.73065,1.38268c-0.98337,0.53392 -1.49109,0.86867 -2.30667,1.38533c-0.54761,0.34689 -1.57846,0.9783 -2.25333,1.364c-0.76013,0.43443 -1.42047,1.08383 -2.41333,1.46933c-0.62802,0.24384 -1.71655,0.25468 -2.3125,0.6875c-0.80063,0.58147 -1.28748,1.34167 -2.22086,1.47467c-0.83337,0.11874 -1.8468,-0.20584 -2.59332,-0.44217c-0.60297,-0.19089 -1.28214,-0.43427 -2.44901,-0.8745c-0.85559,-0.3228 -1.71475,-0.66133 -2.13498,-0.8175c-1.45178,-0.53954 -2.19156,-0.76892 -3.12268,-0.86133c-0.75562,-0.075 -1.61917,-0.48584 -2.34732,-0.59016c-1.00769,-0.14439 -1.87061,0.28839 -2.56866,0.87416c-0.65738,0.55164 -1.02637,1.29161 -1.69467,1.74133c-0.74606,0.50206 -1.53851,1.00591 -2.21469,1.364c-0.67468,0.35728 -1.60043,0.76483 -2.22733,1.25801c-0.64996,0.51132 -2.02649,0.47397 -1.77533,1.15399c0.3139,0.84993 1.36453,0.85522 2.30716,1.19867c0.84109,0.30646 1.44797,1.08931 2.12085,1.564c0.7348,0.51836 1.65121,0.86887 2.39999,1.26933c0.79147,0.42329 1.37927,0.90085 2.09967,1.38817c0.65048,0.44002 0.33084,1.43385 -0.41766,2.08301c-0.57428,0.49805 -1.34503,0.86995 -2.01801,1.17949c-0.76132,0.35017 -1.57031,0.67404 -2.328,1.03201c-1.21146,0.57236 -1.78482,1.02751 -2.836,1.48399c-0.53854,0.23386 -1.50504,0.48448 -2.142,0.7c-1.10287,0.37318 -1.75943,0.8528 -2.65799,1.24733c-0.77435,0.34 -1.36493,0.79495 -2.11069,1.45267c-0.72385,0.6384 -1.43173,0.97191 -2.10532,1.40001c-0.87155,0.55392 -1.677,0.92905 -2.40134,1.48399c-0.62985,0.48257 -1.36539,0.7856 -2.09735,1.29066c-0.62216,0.42929 -1.69791,0.66125 -2.41599,0.34001c-0.76218,-0.34097 -1.3486,-0.91975 -2.2265,-1.27184c-0.76489,-0.30676 -1.55405,-0.72142 -2.32199,-1.14284c-0.86771,-0.47615 -1.37976,-1.43124 -2.31635,-1.43834c-0.78482,-0.00595 -1.27118,1.14247 -1.88983,1.53835c-0.78964,0.50529 -1.453,1.09999 -1.84,1.96399l-0.62134,0.38934l-0.84,-0.24001l-0.76001,-0.36" id="svg_3" stroke-width="2" stroke="#000" fill="none"/>
  <path t="14945,15174,15174,15207,15207,15231,15231,15231,15293,15294,15294,15304,15304,15304,15304,15304,15334,15334,15387,15409,15409,15409,15471,15471,15472,15472,15510,15510,15510,15510,15565,15565,15565,15566,15566,15590,15590,15590,15590,15590,15590,15645,15645,15645,15662,15662,15662,15662,15662,15686,15687,15687,15687,15687,15739,15739,15739,15749,15766,15766,15816,15997,15998,16126,16126,16177,16197,16198,16246,16246,16255,16278,16278,16279,16327,16357,16358,16406,16407,16429,16430,16430,16485,16485,16487,16510,16570,16570,16582,16582,16614,16614,16666,16686,16738,16738,16750,16766,16838,16918,16918,16978,16979,16999,16999,16999,16999,16999,17033,17033,17034,17034,17034,17034,17050,17050,17094,17094,17198,17256,17381,17444,17454,17454,17455,17484,17484,17485,17534,17534,17534,17534,17626,17626,17662,17662,17662,17662,17696,17697,17697,17711,17735,17766,17824,17824,17918,17918,17977,18685,18757,18862,18922,18942,18942,19018,19018,19018,19045,19096,19096,19096,19117,19118,19118,19167,19179,19197,19252,19302,19397,19398,19477,19581,19582,19813,19814,19862,19885,19886,19936,19936,19946,19968,19968,19990,20040,20040,20117,20118,20168,20168,20197,20198,20198,20248,20248,20248,20274,20348,20348,20351,20351,20374,20374,20435,20477,20478,20861,20862,20934,20984,21349,21549,21613,21677,21738,21806,21909,21910,21989,22043,22043,22043,22065,22118,22118,22179,22192,22192,22245,22295,22341,22400,22400,22421,22422,22509,22526,22527,22592,22725,22786,22806,22829,22890,22909,22910,22934,22984,22984,23013,23014,23074,23074,23093,23093,23093,23093,23115,23115,23115,23144,23144,23144,23169,23170,23189,23190,23217,23217,23238,23238,23239,23290,23290,23302,23303,23319,23319,23319,23341,23365,23366,23446,23500,23625,23681,23701,23702,23702,23761,23761,23957,23958,24009,24009,24009,24133,24134,24134,24193,24193,24285,24286,24344,24366,24366,24446,24501,24502,24518,24598,24598,24653,24653,24678,24678,24750,24750,24816,24816,24831,24854,24854,24854,24854" d="m277,196.5c1.82535,1.41066 2.41495,1.69174 3.116,2.48399c0.5687,0.64268 1.19934,1.50241 1.70935,1.89067c0.6828,0.51981 1.41626,1.30307 1.90799,1.87201c0.39178,0.45329 1.23999,1.19138 1.97733,1.69699c0.77713,0.53291 1.57346,0.99879 1.95334,1.20168c1.17923,0.62978 2.14935,0.90654 2.85684,1.37549c0.82394,0.54613 1.53723,0.99712 2.16583,1.44984c0.75562,0.54422 1.26392,1.04224 1.83417,1.52933c0.87064,0.74368 1.77228,1.36984 2.37915,1.69467c0.59354,0.3177 1.52829,0.73129 2.40033,1.3485c0.63055,0.44627 1.24228,1.01826 1.914,1.623c0.35687,0.32127 1.5264,1.35674 1.95102,1.71516c0.86072,0.72655 1.29279,1.07726 2.11499,1.75166c0.38092,0.31245 1.57855,1.31982 2.01834,1.68034c0.60507,0.49605 1.68497,1.2327 2.42099,1.69649c0.40192,0.25327 1.25131,0.77499 1.68399,1.04201c1.26392,0.78 2.02878,1.2561 2.71368,1.71217c0.62949,0.41917 1.21188,0.81354 2.19598,1.63333c0.6568,0.54715 1.16504,1.09557 2.05069,1.54132c0.80841,0.40688 1.39319,0.9097 2.15683,1.56134c0.76089,0.64931 1.43781,1.09921 2.3125,1.33333c0.83899,0.22456 1.5451,-0.31534 2.33331,-0.83333c0.80334,-0.52792 1.65726,-0.8894 2.42267,-0.98933c0.92514,-0.12077 1.73465,-0.45012 2.41068,-1.01067c0.51804,-0.42955 1.51724,-0.92694 2.32132,-1.2215c0.6965,-0.25514 1.65994,-0.87553 2.19952,-1.29933c0.81625,-0.64111 1.46997,-1.1501 2.22849,-1.61784c0.90091,-0.55556 1.70718,-0.6683 2.25067,-1.38216c0.51791,-0.68022 1.16507,-1.32013 1.82535,-1.45384c1.00571,-0.20366 1.74771,-0.65338 2.37466,-1.224c0.58524,-0.53264 1.56128,-0.7623 2.29999,-1.32216c0.66452,-0.50365 1.15509,-1.27574 2.10001,-1.46851c0.88239,-0.18001 1.60629,-0.54593 2.50015,-0.88916c0.74155,-0.28474 1.77353,-0.13618 2.47583,-0.00717c0.93399,0.17155 1.68332,0.44719 2.53201,0.75766c0.9277,0.33939 1.40616,0.53532 2.892,1.12801c0.49954,0.19926 1.48276,0.59364 1.95734,0.78934c0.90012,0.37115 1.72717,0.67549 2.65668,1.18916c0.82797,0.45757 1.40329,1.22984 2.086,1.66434c0.73212,0.46594 1.74002,0.09683 2.59549,0.36166c0.7713,0.23877 0.75082,1.33107 0.68317,2.24617c-0.05527,0.74774 -0.39648,1.63045 -1.02032,2.27016c-0.54001,0.55377 -1.17487,1.23239 -1.55383,1.83717c-0.59518,0.9498 -0.86737,1.62315 -1.52185,2.58867c-0.37488,0.55304 -1.21854,1.38414 -1.65067,1.82266c-0.73633,0.74724 -1.25543,1.25865 -1.89865,2.064c-0.54407,0.68121 -1.00781,1.46585 -1.72269,2.10533c-0.57248,0.5121 -0.95309,1.37518 -1.61066,2.06134c-0.48926,0.51053 -1.30383,1.12363 -1.71466,1.8c-0.47141,0.77614 -1.45392,1.42305 -1.24933,1.61467c0.57245,0.53612 1.6189,-0.43584 2.44931,-0.12933c0.74579,0.27527 1.71957,0.8049 2.30402,1.11465c0.7319,0.38789 1.55688,1.03952 2.37732,1.60001c0.64841,0.44296 1.26657,0.71936 2.23203,1.48267c0.59918,0.47374 1.20291,0.82024 2.05966,1.49651c0.64539,0.50945 1.27234,0.83812 2.14166,1.05682c0.87213,0.21942 1.58368,0.7291 2.37915,0.964c0.94247,0.27832 1.45316,1.11566 2.04169,1.5c0.7988,0.52164 1.62762,1.15553 1.21298,1.60983c-0.57382,0.62869 -1.43491,1.03055 -1.99115,1.8685c-0.46564,0.70146 -1.30173,0.89098 -2.07602,1.18834c-0.81842,0.31432 -1.37903,1.26802 -2.16666,1.66667c-0.70334,0.35599 -1.64185,0.56161 -2.40451,0.814c-0.97888,0.32394 -1.81021,0.31396 -2.79565,0.57401c-0.62238,0.16422 -1.47534,0.55273 -2.48251,0.69333c-0.79141,0.11047 -1.54797,0.0838 -2.64532,0.08533c-0.87466,0.00122 -1.64783,0.06616 -2.67734,0.35266c-0.74799,0.20816 -1.65265,0.54004 -2.453,0.6265c-0.94733,0.10236 -1.86017,0.24911 -2.54166,0.52084c-0.97458,0.38861 -1.69507,0.55344 -2.5,1c-0.79956,0.4436 -1.80136,0.25177 -2.59967,0.72134c-0.71912,0.42297 -0.07373,1.26294 0.62051,1.77866c0.68478,0.5087 1.57031,1.12207 1.39249,1.79999c-0.21628,0.82455 -1.24634,1.50998 -1.728,2.02536c-0.6319,0.67615 -0.99631,1.60391 -1.47067,2.37466c-0.41476,0.67392 -1.09747,1.21759 -1.81467,1.89981c-0.58633,0.55774 -1.39981,0.88974 -2.29999,0.90018c-0.90445,0.01047 -1.92133,0 -2.60001,0c-0.97849,0 -1.79868,0 -2.75717,0c-0.89551,0 -1.75882,0 -2.72198,0c-0.82083,0 -1.80197,-0.13733 -2.46817,0.35266c-0.68423,0.50323 -1.46335,0.64734 -2.37399,0.64734c-0.85333,0 -1.84808,-0.18161 -2.67868,0.16666c-0.7153,0.29993 -1.3645,0.86859 -2.13867,1.43335c-0.74387,0.54266 -1.10074,1.21658 -1.96832,1.72116c-0.64084,0.37271 -1.42712,0.67841 -2.24402,0.96899c-1.13916,0.40521 -1.79327,0.53903 -2.81699,0.72452c-0.83221,0.15079 -1.63806,0.40833 -2.43201,0.78665c-0.80637,0.38425 -1.57919,0.83868 -2.59982,1.07733c-0.76801,0.17957 -1.77676,0.34677 -2.46152,0.73199c-0.87848,0.49423 -1.58072,0.80554 -2.33331,1.03217c-1.0256,0.30884 -1.75412,0.32715 -2.66699,0.36166c-0.80118,0.03027 -1.76236,0.20609 -2.55301,0.42084c-0.77847,0.21146 -1.81186,0.53198 -2.78534,0.57468c-0.79922,0.03506 -1.70001,0 -2.60001,0c-0.89999,0 -1.86087,0.07986 -2.56665,-0.33334c-0.73572,-0.43073 -1.20862,-1.0575 -2.03317,-1.64514c-0.75433,-0.5376 -1.66214,-0.98685 -2.30017,-1.54236c-0.70001,-0.6095 -1.13831,-1.15259 -1.71066,-1.65381c-0.95889,-0.83972 -1.59439,-1.16412 -2.30402,-1.62402c-0.88058,-0.57071 -1.35678,-1.02145 -2.31067,-1.60132c-0.68198,-0.41458 -1.87442,-0.79596 -1.83167,-1.70001c0.03955,-0.83649 1.05701,-1.29999 1.75702,-2c0.60001,-0.60001 1.18988,-1.21024 1.89999,-1.89999c0.6272,-0.60919 1.32291,-1.09735 2,-1.5c0.8353,-0.49673 1.47531,-1.03534 2.32117,-1.60001c0.64044,-0.42752 1.40921,-1.01309 1.76151,-1.69998c0.38837,-0.75723 0.79584,-1.74368 0.88132,-2.51468l0.02533,-0.65067l0.00934,-0.77866" id="svg_4" stroke-width="2" stroke="#000" fill="none"/>
  <path t="25670,25949,25949,25949,25949,25949,26181,26181,26285,26337,26365,26365,26365,26419,26419,26419,26438,26438,26438,26438,26493,26495,26517,26517,26570,26597,26597,26652,26669,26669,26721,26730,26731,26749,26749,26797,26797,26877,26878,27029,27079,27079" d="m352,240.5c-3.9635,-2.19983 -4.94427,-2.59607 -5.444,-2.78934c-0.97156,-0.37575 -1.48096,-0.44347 -2.556,-1.04399c-0.95361,-0.5327 -1.52469,-1.14844 -2.09732,-0.52c-0.59357,0.65143 -1.19223,1.19006 -1.69867,1.528c-1.02216,0.68202 -1.75388,1.06816 -2.42935,1.45067c-0.94489,0.53506 -1.72012,1.02721 -2.25381,1.35384c-0.74777,0.45766 -1.70117,0.96355 -2.62085,1.02083c-0.89825,0.05594 -1.69998,0 -2.65717,0c-0.89551,0 -1.75882,0 -2.61749,0c-0.94666,0 -1.79999,0 -2.73999,0c-0.88535,0 -1.77069,0 -2.72134,0c-0.76532,0 -1.76401,0 -2.564,0c-0.99869,0 -1.76401,0 -2.71466,0l-0.88535,0l-0.70001,-0.22867" id="svg_5" stroke-width="2" stroke="#000" fill="none"/>
  <path t="28718,28902,28927,28928,28984,28984,28984,28984,28997,28997,28997,28998,28998,29058,29058,29058,29058,29077,29078,29078,29078,29078,29132,29132,29161,29162,29162,29162,29181,29181,29182,29205,29205,29230,29254,29254,29303,29303,29333,29389,29390,29437,29438,29490,29490,29565,29618,29618,29637,29637,29638,29669,29669,29670,29693,29693,29717,29768,29768,29768,29797,29797,29797,29797,29797,29847,29848,29848,29848,29848,29848,29869,29869,29869,29921,29921,29921,29930,29931,29931,29949,29949,29949,29975,29975,30024,30024,30045,30096,30149,30253,30303,30333,30333,30403,30404,30406,30406,30429,30463,30463,30539,30539,30539,30557,30557,30558,30558,30589,30589,30590,30614,30638,30638,30702,30702,30702,30717,30717,30717,30741,30742,30742,30792,30792,30813,30813,30813,30813,30891,30892,30894,30894,31741,31941,32045,32096,32106,32125,32150,32173,32174,32226,32226,32236,32253,32253,32279,32279,32279,32301,32301,32350,32453,32453,32453,32637,32687,32733,32733,32797,32798,32813,32813,32813,32900,32901,32901,32920,32920,32920,32920,32920,32921,32921,32921,32941,32941,32941,32942,32942,32965,32965,32965,33021,33021,33121,33123,33183,33184,33184,33213,33229,33277,33278,33429,33533,34173,34325,34397,34450,34461,34477,34581,34652,34757,34757,34814,34815,34837,34888,34909,34909,34910,34962,34973,34989,35015,35015,35037,35089,35089,35100,35100,35117,35141,35141,35194,35194,35205,35205,35206,35293,35293,35355,35355,35397,35525,35629,35630,35757,35809,35809,35885,36013,36063,36063,36093,36093,36094,36143,36143,36143,36165,36165,36166,36218,36218,36219,36230,36245,36246,36297,36297,36317,36317,36318,36318,36371,36371,36375,36397,36397,36467,36501,36502,36566,36579,36579,36580,36677,36677,36742,36757,36758,36758,36811,36811,36812,36861,36861,37085,37086,37150,37151,37151,37169,37169,37169,37189,37215,37280,37281,37295,37295,37295,37296,37296,37341,37341,37400,37597,37650,37725,37854,37957,37957,38009,38020,38038,38038,38039,38213,38317,38341,38341,38365,38365,38366,38366,38366,38416,38416,38416,38416,38417,38417,38429,38430,38430,38430,38431,38448,38449,38449,38549,38603,38604,38604,38623,38623,38624,38624,38624,38781,38781,38831,38831,38831,38832,38832,38832" d="m171,201.5c-1.75717,0 -2.67607,-0.0699 -3.46167,0.11433c-0.98804,0.2317 -1.5045,0.60001 -2.42099,1.10699c-0.68935,0.38133 -1.85797,0.98289 -2.28534,1.17734c-0.87859,0.39975 -1.32875,0.58859 -2.22667,0.94417c-1.26753,0.50195 -2.03662,0.77145 -2.744,1.03183c-0.67659,0.24904 -2.03029,0.7869 -2.74266,1.108c-0.72504,0.32681 -1.41483,0.67078 -2.064,0.948c-0.99323,0.42416 -1.9227,0.64886 -2.81883,1.01201c-0.60562,0.24542 -1.24321,0.59035 -2.26918,0.98933c-0.91264,0.35492 -1.70294,0.46338 -2.564,0.65067c-1.01042,0.21977 -1.71512,0.68211 -2.64549,0.86017c-0.94318,0.18051 -1.65152,0.1185 -2.5825,0.4825c-0.69789,0.27286 -1.69069,0.52205 -2.496,0.79599c-0.87439,0.29744 -1.79152,0.73036 -2.56267,0.77734c-0.93967,0.05724 -1.65063,0.04582 -2.59517,0.50133c-0.85271,0.41122 -1.57906,0.57321 -2.57416,0.784c-0.63483,0.13448 -1.2999,0.32759 -2.61333,0.54933c-0.81096,0.1369 -1.70193,0.12907 -2.58067,0.51933c-0.66996,0.29753 -1.57841,0.60136 -2.58601,0.64734c-0.75037,0.03424 -1.39564,0.15787 -2.374,0.44284c-0.87741,0.25557 -1.36121,0.42104 -2.41,0.74249c-0.5476,0.16783 -2.21474,0.65283 -2.76067,0.793c-1.04899,0.26932 -1.55167,0.38638 -2.50333,0.575c-0.85936,0.17032 -1.95229,0.3494 -2.82133,0.41068c-0.73983,0.05217 -1.71922,0.01964 -2.53333,0.04666c-0.86926,0.02885 -2.06818,0.19301 -2.6595,0.3465c-0.87572,0.22731 -1.93768,0.6432 -2.64733,0.93834c-0.64636,0.26883 -1.65272,0.62506 -2.43633,0.68367c-0.99677,0.07455 -1.8195,0.02083 -2.72083,0.02083c-0.9,0 -1.8,-0.00224 -2.7,0c-0.9045,0.00226 -1.7894,0.11734 -2.6,0.52083c-0.86057,0.42834 -1.4843,0.97391 -2.1,1.57918c-0.60509,0.59485 -1.21027,1.18988 -1.9,1.89999c-0.60919,0.6272 -1.1158,1.31317 -1.52084,2.0625c-0.3793,0.70171 -0.8049,1.57794 -1.12733,2.24283c-0.33576,0.69238 -0.83152,1.7108 -1.10899,2.6515c-0.2212,0.74991 -0.28381,1.57423 -0.74284,2.52234c-0.4108,0.84851 -0.54276,1.50336 -0.86166,2.53516c-0.25272,0.81769 -0.50027,1.40074 -0.9595,2.28551c-0.46862,0.90285 -0.90423,1.42557 -1.3455,2.53349c-0.27475,0.68983 -0.29011,1.56314 -0.33601,2.56934c-0.03974,0.8712 -0.31722,1.93581 -0.56533,2.564c-0.26826,0.67921 -0.62938,1.32687 -1.09866,2.53334c-0.30357,0.78046 -0.67023,1.53125 -1.04934,2.3c-0.41681,0.84521 -0.25788,1.55399 0.51733,1.56799c0.80352,0.01453 1.18066,1.03146 1.19867,1.93201c0.01802,0.90114 0,1.86665 0,2.7c0,0.97849 0,1.6955 0,2.63599c0,0.85068 -0.00768,1.61072 0.00017,2.78519c0.0053,0.79355 -0.0894,1.61215 0.28383,2.60815c0.26488,0.70688 0.70558,1.51218 0.716,2.51334c0.00737,0.70798 -0.21378,1.47223 0.0045,2.63849c0.14426,0.77081 1.18372,0.51553 1.75266,0.11435c0.88502,-0.62408 1.48005,-0.918 2.4095,-1.2955c0.77409,-0.31442 1.56333,-0.59592 2.5,-0.83334c0.95065,-0.24097 1.48545,-0.32047 2.66667,-0.66666c0.53963,-0.15814 1.80165,-0.56204 2.50133,-0.78665c0.72799,-0.2337 1.47045,-0.47403 2.2155,-0.71252c0.73362,-0.23483 2.11549,-0.67081 2.74184,-0.85767c1.10692,-0.33023 1.59245,-0.4743 2.44667,-0.68582c1.25645,-0.3111 2.08006,-0.40363 2.728,-0.54135c1.04939,-0.22308 1.77071,-0.5376 2.7,-0.74933c0.82485,-0.18796 1.876,-0.16666 2.584,-0.16666c0.744,0 1.93501,0 2.84933,0c0.9,0 1.81828,0.05911 2.37917,-0.52084c0.63032,-0.65173 0.09383,-2.28143 0.94617,-2.4325c0.7179,-0.12726 0.6111,1.32355 1.07467,1.97418c0.47447,0.66595 0.78444,1.52115 1.37883,2.20065c0.59352,0.6785 0.9388,1.27979 1.95451,1.61185c0.7337,0.23987 1.66666,0.16666 2.588,0.16666c0.912,0 1.83328,0.09232 2.51617,-0.05716c1.00911,-0.22086 1.64854,-0.82574 2.3625,-1.30002c0.79164,-0.52585 1.27966,-1.24911 2.1,-1.61749c0.78403,-0.35205 1.45966,-0.86902 2.25266,-1.32083c0.6748,-0.38449 1.74826,-0.59332 2.54868,-0.98849c0.7254,-0.35812 1.46278,-0.64612 2.26033,-0.76868c0.96292,-0.14795 1.75015,-0.38281 2.5285,-0.59467c1.0369,-0.28223 1.90149,-0.41275 2.83516,-0.77798c0.69786,-0.27298 1.76566,-0.38629 2.47017,-0.93185c0.74661,-0.57816 0.82701,-1.45816 0.64734,-2.39999c-0.1767,-0.92628 -0.70834,-1.55949 -0.88568,-2.48566c-0.18033,-0.94176 -0.26297,-2.00339 0.28418,-2.55717c0.62695,-0.63455 1.38211,-0.59744 2.36232,-0.89999c0.96379,-0.29749 1.77646,-0.6244 2.511,-0.864c0.9406,-0.30681 1.73964,-0.36768 2.56001,-0.46133c1.06116,-0.12114 1.96848,-0.42815 2.73866,-0.69067c0.85124,-0.29016 1.82489,-0.46982 2.48666,-0.80482c0.85764,-0.43416 1.5105,-1.0441 2.5,-1.47917c0.53746,-0.23631 1.50505,-0.48448 2.142,-0.7c1.10289,-0.37318 1.7594,-0.85287 2.658,-1.24733c0.77431,-0.33989 1.49133,-0.79318 2.336,-1.078c0.84009,-0.28328 1.52135,-0.6035 2.61133,-0.922c0.90721,-0.26509 1.57037,-0.53172 2.354,-0.76868c0.97607,-0.29515 1.74802,-0.3893 2.77333,-0.27333c0.96391,0.10901 1.66545,0.50046 2.22667,0.87601c0.82953,0.5551 1.40349,1.12923 1.99867,1.71466c0.80389,0.79073 1.41838,1.33141 2.06667,2.23199c0.41544,0.57712 1.22211,0.84407 2.056,0.70534c0.6508,-0.10828 1.94093,-0.3979 2.7585,-0.48151c0.65968,-0.06746 1.83987,0.07149 2.46616,-0.40982c0.65416,-0.50273 1.28156,-0.72513 2.25934,-0.86867c0.8575,-0.12589 1.79327,-0.2791 2.26666,-0.35333c0.90656,-0.14217 2.01558,-0.34595 3.07333,-0.41467c0.85181,-0.05534 1.9472,-0.11719 2.28667,-1.01067c0.29597,-0.77899 -0.64674,-1.33156 -1.05466,-2.10001c-0.34502,-0.64995 -0.77342,-1.49995 -0.77867,-2.44167c-0.00558,-1.00081 -0.1076,-1.71648 0.05716,-2.39583c0.26227,-1.08139 0.9455,-1.76953 1.66617,-2.00983c0.76549,-0.25523 1.92003,-0.2747 2.60451,-0.40533c0.77618,-0.14813 1.65134,-0.30467 2.13083,-0.36334c1.60159,-0.19597 2.19312,-0.20389 2.79933,-0.22684c1.24165,-0.04701 1.86598,-0.04878 2.48401,-0.05266c1.75797,-0.01102 2.29317,-0.0045 3.2775,-0.0045c0.87633,0 1.65266,0.00275 2.64717,0c0.81451,-0.00226 1.72755,0.07935 2.70799,-0.436c0.86064,-0.45238 1.48688,-0.98816 2.20134,-1.32117c0.91606,-0.42697 1.67325,-0.729 2.48933,-1.0575c0.41312,-0.16629 1.2321,-0.44109 2.5475,-0.94234c0.59055,-0.22504 -0.41566,-0.24168 -0.83101,-0.2565c-1.01155,-0.03607 -1.60049,-0.0945 -2.24199,-0.15799l-0.69051,-0.0845" id="svg_6" stroke-width="2" stroke="#000" fill="none"/>
  <path t="39726,39981,40005,40005,40029,40085,40085,40142,40142,40142,40157,40158,40158,40158,40158,40209,40210,40210,40210,40210,40219,40240,40241,40241,40266,40266,40266,40290,40290,40319,40380,40517" d="m138,248.5c-1.5,-1.5 -2.2,-2.2 -2.7,-2.7c-0.7,-0.7 -1.40018,-1.40018 -1.936,-1.936c-0.68567,-0.68567 -1.21066,-1.21066 -1.82567,-1.82567c-0.705,-0.705 -1.22139,-1.22736 -1.785,-1.77432c-0.59621,-0.5786 -1.22964,-1.17738 -2.27416,-2.06367c-0.35569,-0.3018 -1.07726,-0.87321 -1.74583,-1.42833c-0.59763,-0.49622 -1.38214,-1.56464 -2.06667,-2.272c-0.47255,-0.48831 -1.35294,-0.80432 -2.34933,-1.20134c-0.5311,-0.21162 -1.38577,-0.45076 -2.17434,-1.11983c-0.6797,-0.57669 -1.24283,-1.436 -2.02167,-1.90016l-0.40533,-0.696" id="svg_7" stroke-width="2" stroke="#000" fill="none"/>
  <path t="41235,41365,41389,41389,41446,41446,41461,41461,41463,41527,41542,41542,41565,41565,41589,41589,41648,41669,41669,41693,41749,41749,41801,41801,41801,41845,41845,41845,41898,41899,41908,41973,41973,42032,42053,42133,42183,42205,42205,42256,42256,42285,42351,42374,42374,42413" d="m112,251.5c-1.00017,-0.10001 -1.12741,-1.03114 -1.61066,-1.60001c-0.64022,-0.75365 -1.22875,-1.35214 -1.58801,-2.168c-0.31591,-0.71742 -0.35903,-1.51518 -0.78667,-2.56c-0.33997,-0.83064 -1.10876,-1.11011 -1.848,-1.83867c-0.59653,-0.58791 -1.2847,-1.34918 -1.80949,-1.8815c-0.57767,-0.58595 -0.60892,-1.66943 -1.06167,-2.24199c-0.6613,-0.83629 -1.46718,-1.30121 -1.9315,-1.89517c-0.64581,-0.82613 -1.23396,-1.15799 -1.96533,-1.784c-0.62955,-0.53886 -1.21431,-1.25745 -1.68433,-2.02533c-0.51309,-0.83826 -0.67441,-1.7522 -1.15033,-2.40533c-0.56814,-0.77969 -1.37151,-1.2529 -1.55334,-2.20001c-0.1697,-0.88391 -0.09237,-1.80409 -0.00616,-2.7045c0.0836,-0.87329 0.48129,-1.49841 0.82883,-2.52882c0.26665,-0.79059 0.87116,-1.21935 1.66666,-1.6875l0.7,-0.67784l0.60001,-0.51599l0.8,-0.31067" id="svg_8" stroke-width="2" stroke="#000" fill="none"/>
  <path t="43101,43285,43285,43285,43309,43309,43309,43309,43333,43333,43333,43333,43382,43382,43382,43382,43391,43392,43413,43413,43437,43437,43496,43496,43517,43517,43573,43573,43589,43589,43642,43642,43669,43719,43719,43741,43741,43814,43814,43824,43825,43825,43825,43973,43973,44077,44137,44137" d="m134,247.5c-3.60001,0 -4.5,0 -5.10001,0c-1.20033,0 -2.12133,0 -2.772,0c-0.69866,0 -1.87086,-0.01108 -2.73333,0.009c-0.89502,0.02083 -1.80641,0.02248 -3.06133,0.32433c-0.7725,0.18581 -1.45975,0.47916 -2.00401,0.85201c-1.03061,0.70604 -1.28355,1.496 -2.03916,2.11467c-0.58526,0.47919 -1.46918,0.84109 -1.98567,1.45717c-0.69492,0.8289 -0.96547,1.42775 -1.183,2.44266c-0.2034,0.94897 -0.1215,1.91751 -0.1215,2.61002c0,0.95816 -0.01535,1.69025 0,2.85681c0.01042,0.7919 0.23348,1.83661 1.10017,2.21185c0.72892,0.31558 1.73583,0.12149 2.50117,0.12149c1.00767,0 1.67067,0 2.732,0c0.9675,0 1.64583,0 2.30416,0c1.3065,0 2.1585,0 2.9625,-0.03601l0.82133,-0.41064l0.54933,-0.44" id="svg_9" stroke-width="2" stroke="#000" fill="none"/>
  <path t="45561,45661,45685,45685,45685,45747,45747,45747,45747,45765,45765,45765,45765,45765,45765,45765,45828,45828,45829,45829,45917,45917,45917,45975,45975,45975,45997,45997,45997,46047,46048,46069,46069,46069,46126,46127,46149,46246,46308" d="m172,237.5c-1.06134,-1.636 -1.55069,-2.50566 -2.0625,-3.02083c-0.60146,-0.60539 -1.34763,-1.19647 -2.21617,-1.80051c-0.66701,-0.46387 -1.04906,-0.70189 -2.388,-1.51199c-0.51642,-0.31245 -1.06615,-0.63521 -1.6395,-0.96301c-1.16928,-0.66853 -1.75162,-0.99036 -2.326,-1.284c-1.52196,-0.77803 -1.9418,-0.9946 -2.99849,-1.28633c-0.79265,-0.21883 -1.79596,-0.33595 -2.59467,-0.56934c-0.55331,-0.16168 -1.61754,-0.54253 -2.32201,-0.8685c-0.91862,-0.42506 -1.6201,-0.86093 -2.40083,-1.34366c-0.79128,-0.48926 -1.70523,-1.05394 -2.3905,-1.2905c-0.96674,-0.33372 -1.68451,-0.57735 -2.26266,-0.86267c-0.99377,-0.49043 -1.68433,-0.89867 -2.37784,-1.67784l-0.59549,-0.54616l-0.47801,-0.67917" id="svg_10" stroke-width="2" stroke="#000" fill="none"/>
  <path t="46917,47069,47069,47069,47069,47069,47069,47069,47069,47069,47116,47116,47116,47116,47116,47116,47116,47116,47116,47253,47253,47253,47253,47253,47253,47253,47253,47253" d="m189,230.5c-3.83333,-3.5 -4.63496,-4.1931 -5.52933,-4.96133c-0.96761,-0.83115 -1.99269,-1.70854 -3.054,-2.62199c-1.0827,-0.93187 -2.16922,-1.86766 -3.23401,-2.802c-2.02213,-1.77438 -2.93362,-2.60454 -3.78267,-3.38268c-0.79251,-0.72633 -1.52577,-1.41029 -2.21249,-2.04449c-0.64001,-0.59106 -1.23492,-1.14401 -1.8075,-1.6395c-1.03468,-0.89539 -1.5327,-1.267 -2.004,-1.60667c-0.44034,-0.31737 -0.86134,-0.59734 -1.25101,-0.858l-0.35966,-0.24066l-0.32767,-0.22467l-0.29367,-0.21266" id="svg_11" stroke-width="2" stroke="#000" fill="none"/>
  <path t="48277,48405,48405,48405,48429,48429,48429,48429,48429,48429,48429,48482,48483,48483,48483,48483,48483,48557,48557,48557,48557,48557,48666,48666,48666,48666,48709,48709,48709,48709,48709,48709,48709,48709,48769,48769,48769,48769,48769,48769,48813,48813,48813,48813,48813,48903,48989" d="m290,182.5c-2.40533,-2.40134 -3.06732,-3.04166 -3.62866,-3.45717c-1.01056,-0.74805 -1.44949,-0.97792 -2.39551,-1.491c-0.50516,-0.27399 -1.58002,-0.79602 -2.13666,-1.04201c-0.55676,-0.24603 -2.21582,-0.87236 -2.7525,-1.04182c-1.03687,-0.32742 -1.54938,-0.45436 -2.52499,-0.77333c-0.47723,-0.15602 -1.85226,-0.71545 -2.6955,-1.2045c-0.41522,-0.24081 -1.19525,-0.76018 -1.8942,-1.30751c-0.94635,-0.74107 -1.47461,-1.24699 -2.05533,-1.70349c-0.63989,-0.50301 -1.91382,-1.31743 -2.44498,-1.62167c-0.57529,-0.32953 -1.19461,-0.66234 -1.845,-0.9975c-0.66623,-0.34331 -1.34244,-0.68234 -2.02502,-0.9975c-1.9234,-0.88805 -2.51324,-1.10455 -3.06033,-1.30783c-0.99307,-0.36897 -1.89981,-0.65517 -2.32333,-0.79834c-1.22144,-0.41292 -2.01642,-0.73335 -2.78598,-1.071c-0.72636,-0.3187 -1.37601,-0.616 -2.5605,-1.071l-0.97151,-0.11433" id="svg_12" stroke-width="2" stroke="#000" fill="none"/>
  <path t="49631,49813,49813,49813,49813,49813,49813,49837,49837,49837,49837,49837,49837,49837,49888,49888,49888,49888,49888,49888,49909,49909,49909,49909,49961,49961,49961,49971,49971,49971,49989,49989,49989,50013,50013,50037,50091,50091" d="m268,196.5c-1.98584,-2.86433 -2.72247,-3.66861 -3.13333,-4.09734c-0.42743,-0.44601 -0.87131,-0.90065 -1.78668,-1.82133c-0.91135,-0.91664 -1.35593,-1.36224 -1.79599,-1.79333c-0.85345,-0.83603 -1.26929,-1.24269 -2.13666,-1.96916c-0.42432,-0.35539 -1.76291,-1.28554 -2.23001,-1.54817c-0.92136,-0.51804 -1.39534,-0.73143 -2.3075,-1.16167c-0.43996,-0.2075 -1.67249,-0.79836 -2.39101,-1.2045c-0.66182,-0.3741 -1.52248,-0.93332 -2.53482,-1.52049c-0.67854,-0.39357 -1.37138,-0.76236 -2.10535,-1.20517c-0.80774,-0.48732 -1.59641,-1.0383 -2.41199,-1.3455c-0.90463,-0.34074 -1.76616,-0.29671 -2.75768,-0.33783c-0.69604,-0.02887 -1.45966,-0.60617 -2.11884,-1.291l-0.642,-0.34734" id="svg_13" stroke-width="2" stroke="#000" fill="none"/>
  <path t="50990,51117,51141,51141,51193,51193,51193,51193,51221,51221,51221,51221,51221,51221,51221,51221,51280,51280,51280,51293,51293,51317,51317,51317,51349,51349,51373,51373,51373,51426,51426,51426,51448,51448,51477,51529,51530,51530,51573,51573,51650,51650,51656,51656,51828,51828,51988,52039,52061,52061,52061,52084,52085,52116,52116,52165,52165,52188,52188,52189,52189,52213,52213,52213,52245,52246,52311,52326,52326,52372,52422,52468,52469,52548,52603,52628,52628,52629,52629,52692,52702,52702,52706,52706,52706,52706,52706,52706,52706,52706,52725,52725,52725,52725,52725,52784,52784,52784,52828,52828,52880,52880,52880,52892,52892,52892,52892,52909,52909,52909,52909,52909,52909,52984,52984,53013,53013,53067,53068,53108" d="m313,174.5c-2.36401,-1.38933 -3.20578,-1.90242 -3.97067,-2.084c-0.81021,-0.19234 -1.68112,-0.50697 -2.42416,-0.84917c-0.43814,-0.20178 -2.01297,-1.04945 -2.6225,-1.4015c-0.63855,-0.36882 -1.28821,-0.75563 -1.94101,-1.1445c-0.64319,-0.38315 -1.26074,-0.75851 -1.85098,-1.09949c-1.43265,-0.82765 -2.13858,-1.05891 -3.06668,-1.58534c-0.82666,-0.4689 -1.27829,-1.08377 -2.12399,-1.50267c-0.76028,-0.3766 -1.65073,-0.41669 -2.60001,-1.04317c-0.63898,-0.42169 -1.38333,-1.14903 -2,-1.53299c-0.78027,-0.48584 -1.60001,-0.85718 -2.39999,-1.25717c-0.60001,-0.3 -1.65402,-0.70647 -2.28568,-1.2c-0.7659,-0.59842 -1.37109,-1.41583 -2.00098,-1.7c-0.70471,-0.31792 -1.77579,-0.75897 -2.40436,-1.3c-0.65039,-0.55981 -1.18088,-1.12131 -1.96167,-1.60001c-0.68338,-0.41896 -1.61124,-0.97751 -2.146,-1.5c-0.68796,-0.6722 -0.73907,-1.62962 -0.03467,-2.36667c0.47269,-0.4946 0.9498,-1.05875 1.948,-1.66533c0.65128,-0.39577 1.26144,-1.04451 1.68533,-1.68533c0.58893,-0.8903 1.16626,-1.45645 1.74301,-2.02533c0.72351,-0.71364 1.25848,-1.2316 1.85968,-1.68933c0.86981,-0.66226 1.77658,-1.09476 2.32532,-1.34666c1.13004,-0.51877 1.62973,-0.97902 2.22385,-1.71684c0.54843,-0.68109 1.2836,-0.84111 2.09631,-1.35184c0.67221,-0.42242 1.60452,-0.35266 2.46783,-0.35266c0.96317,0 1.83075,-0.09225 2.81735,0.33333c0.71088,0.30666 1.1835,0.69398 1.98398,1.18401c0.99777,0.61078 1.50375,0.86722 2.30685,1.40683c1.06235,0.71381 1.46341,1.05907 1.91449,1.41451c0.98822,0.77867 1.50317,1.20277 2.03201,1.632c0.53317,0.43277 1.05814,0.87132 2.586,2.086c0.46823,0.37225 0.91486,0.72676 1.75998,1.36c0.75549,0.56609 1.74466,1.25839 2.31134,1.61266c0.70303,0.43951 1.63397,0.93597 2.272,1.4915c0.70004,0.6095 1.33862,1.32397 1.74667,1.68983c0.90256,0.8092 1.43225,1.20369 2.31583,1.81017c0.64981,0.44601 1.76993,1.14731 2.17984,1.40018c0.85214,0.5257 1.28262,0.79047 2.13498,1.28166c0.78009,0.44955 1.70178,1.05525 2.56018,1.23483c1.02625,0.21471 1.73715,0.0985 2.6785,0.3465l0.76801,0.43201l0.91998,0.25867" id="svg_14" stroke-width="2" stroke="#000" fill="none"/>
  <path t="53829,54036,54037,54037,54061,54061,54112,54112,54133,54133,54133,54183,54193,54193,54212,54213,54237,54237,54298,54298" d="m253,163.5c-2.95267,0 -3.5,-0.0015 -4.31599,0c-1.22684,0.00226 -2.09482,-0.00523 -2.884,0.2215c-0.82095,0.23587 -1.81055,0.75858 -2.39101,1.07851c-0.85486,0.47119 -1.30714,1.29697 -1.97833,1.89999c-0.54636,0.49088 -1.60429,0.94565 -2.12616,1.55717c-0.57384,0.67242 -0.8685,1.4175 -1.2205,2.35883l-0.168,0.76801" id="svg_15" stroke-width="2" stroke="#000" fill="none"/>
  <path t="55755,56053,56436,56436,56495,56516,56565,56565,56588,56589,56844,56844,56902,56948,56948,56948,56998,57260,57461,57461,57523,57588,57588,57749,57833,57833,57876,57943,58076,58146,58158,58158,58437,58438" d="m170,153.5c1.22166,0.87866 2.20879,1.08066 2.804,1.42534c0.75615,0.43788 -0.2058,0.62762 -1.11301,0.57016c-0.66525,-0.04213 -1.69467,-0.35381 -2.44032,-0.57016c-0.91536,-0.26561 -1.83305,-0.35406 -2.67201,-0.436c-0.92085,-0.08995 -1.82631,-0.42505 -2.57332,-0.63667c-0.85886,-0.2433 -1.9216,-0.50696 -2.00534,-1.35266c-0.07883,-0.79611 0.0489,-1.77295 0.70984,-2.3c0.5914,-0.4716 1.43866,-1.16251 2.29016,-1.53333c0.74898,-0.32616 1.70006,-0.17708 2.60001,-0.16667c0.90018,0.01042 1.7045,0.35266 2.56667,0.83333l0.65866,0.14134l1.008,0.192l0.68401,0.40799" id="svg_16" stroke-width="2" stroke="#000" fill="none"/>
  <path t="59077,59333,59381,59381,59444,59716,59716,59775,59791,59845" d="m188,162.5c1.2215,0.87866 2.12395,1.19318 2.7,1.7045c0.63226,0.56122 1.46667,1.12883 2.27917,1.2955l0.84883,0.284l-0.26401,0.69067l-0.76399,0.30933" id="svg_17" stroke-width="2" stroke="#000" fill="none"/>
 </g>
 <g display="none">
  <title>muse_image</title>
  <image xlink:href="http://farm4.static.flickr.com/3228/2725691508_f156a49e2a.jpg" id="muse" height="426" width="640" y="27" x="0"/>
 </g>
 <g display="none">
  <title>bbox</title>
  <rect stroke="#f00" fill="none" stroke-width="3" height="200.84685" width="476.16" y="135.73874" x="98.56" id="bbox"/>
 </g>
</svg>
