<svg width="640" height="480" xmlns="http://www.w3.org/2000/svg" xmlns:svg="http://www.w3.org/2000/svg" xmlns:xlink="http://www.w3.org/1999/xlink">
 <!-- Sketchy ANNOTATION
  ImageNet ID: n02691156_5740
  URL: http://farm4.static.flickr.com/3016/2585672732_7e7d9b5d05.jpg
  Image Width: 500
  Image Height: 375
  BBox X: 36
  BBox Y: 115
  BBox Width: 370
  BBox Height: 121
  Exposure: 2000ms
  Synset Label: airplane
  Synset ID: n02691156
  Worker Tag: airplane
  Sanity Check: 
   Context
   Saved
   Shading
  Comment: 
   {}
  Worker ID: AIH9VLD92GHFH
  Assignment ID: 3TU5ZICBRD1BI34Q4YATXJ9M0KP8QA
  HIT ID: 3FHTJGYT8N03OMBZXH2Q075PI75PGU
  Work Time: 35s
  Worker Score: 0.6500
 END ANNOTATION -->
 <g display="inline">
  <title>Layer 1</title>
  <path t="0,178,178,194,194,194,194,211,211,211,211,211,211,211,229,229,229,229,229,229,245,245,245,245,245,245,245,262,262,262,262,262,262,262,262,279,279,279,279,279,279,279,279,296,296,296,296,296,296,296,313,313,313,313,313,313,313,313,313,329,329,329,330,330,330,330,330,330,347,347,347,347,347,347,347,347,363,364,366,366,366,366,366,366,366,381,381,381,381,381,381,381,381,381,398,398,398,398,398,398,398,398,398,415,415,415,415,415,415,415,415,415,432,432,432,432,432,432,432,432,432,448,448,448,448,449,449,449,449,449,465,465,465,466,466,466,466,466,482,482,482,482,482,482,482,499,499,499,499,499,516,516,516,516,533,533,533,533,533,550,550,550,550,550,550,566,567,567,567,567,567,583,584,584,584,584,600,601,601,601,601,601,601,618,618,618,618,618,618,635,636,636,636,636,636,636,636,651,651,652,652,652,652,652,668,668,669,669,669,669,669,669,685,685,686,686,686,686,686,686,703,703,703,703,703,704,704,720,720,720,720,720,720,737,737,737,737,738,738,754,755,755,755,755,755,771,771,771,771,772,788,788,788,788,789,789,805,805,805,806,806,806,806,822,822,822,822,822,822,839,839,839,839,839,839,839,856,856,856,856,856,856,856,856,873,873,873,873,873,873,873,874,874,890,890,890,890,890,891,907,907,907,907,907,907,924,924,924,924,924,924,940,940,941,941,941,941,941,941,957,958,958,958,958,958,975,975,975,975,975,975,975,993,993,994,994,994,1011,1011,1011,1011,1012,1027,1027,1027,1027,1046,1046,1046,1060,1060,1079,1079,1079,1094,1094,1113,1113,1113,1128,1128,1129,1129,1145,1146,1146,1146,1162,1162,1162,1162,1162,1179,1179,1179,1179,1179,1195,1196,1196,1196,1213,1213,1213,1229,1229,1230,1247,1247,1264,1264,1264,1280,1297,1314,1337,1354,1366,1366,1385,1400,1400,1417,1434,1452,1468,1468,1485,1486,1486,1502,1503,1503,1519,1520,1536,1537,1537,1553,1553,1554,1572,1572,1572,1572,1588,1588,1588,1588,1605,1605,1605,1622,1622,1638,1655,1672,1672,1689,1689,1706,1706,1723,1723,1740,1757,1774,1774,1791,1791,1791,1807,1825,1825,1842,1842,1859,1859,1860,1876,1876,1893,1893,1910,1910,1927,1927,1954,1954,1969,1970,1986,1986,1986,2004,2004,2004,2020,2020,2021,2035,2035,2035,2053,2053,2054,2054,2070,2070,2070,2071,2088,2089,2089,2104,2105,2105,2122,2123,2123,2123,2131,2131,2131,2132,2153,2154,2154,2154,2169,2169,2169,2169,2169,2189,2189,2189,2189,2203,2203,2203,2203,2223,2223,2223,2223,2224,2232,2233,2233,2233,2254,2254,2254,2254,2269,2269,2270,2270,2287,2288,2288,2303,2303,2303,2323,2323,2324,2324,2334,2335,2335,2356,2356,2356,2356,2356,2368,2369,2369,2387,2388,2388,2388,2388,2402,2402,2403,2403,2423,2423,2424,2424,2424,2436,2436,2436,2455,2455,2455,2456,2456,2470,2470,2471,2471,2488,2488,2489,2489,2489,2506,2506,2506,2506,2522,2522,2522,2522,2539,2540,2540,2631,2632,2632,2632,2632,2647,2647,2647,2648,2648,2648,2648,2649,2649,2660,2660,2661,2661,2661,2662,2662,2662,2662,2677,2677,2678,2694,2694,2695,2695,2711,2712,2712,2712,2713,2729,2729,2729,2730,2730,2745,2746,2746,2746,2762,2763,2763,2763,2791,2791,2792,2799,2799,2799,2800,2822,2823,2823,2830,2831,2831,2855,2856,2856,2873,2874,2874,2883,2883,2883,2884,2905,2905,2906,2906,2924,2924,2924,2925,2933,2933,2934,2934,2956,2957,2957,2966,2967,2967,2967,2990,2990,2991,2991,3001,3001,3002,3002,3024,3024,3024,3025,3035,3035,3036,3036,3036,3036,3057,3057,3057,3058,3071,3071,3071,3071,3089,3090,3090,3090,3090,3103,3103,3103,3104,3122,3123,3123,3123,3123,3136,3137,3137,3137,3158,3158,3158,3159,3159,3170,3171,3171,3172,3172,3189,3190,3190,3190,3205,3205,3205,3206,3206,3223,3223,3223,3224,3224,3239,3239,3239,3239,3240,3260,3260,3260,3260,3273,3274,3274,3274,3275,3295,3296,3296,3297,3297,3308,3308,3308,3309,3309,3310,3329,3329,3330,3330,3330,3331,3331,3332,3341,3342,3342,3342,3342,3343,3359,3360,3360,3360,3375,3375,3375,3376,3376,3393,3394,3394,3394,3395,3409,3409,3410,3410,3410,3431,3431,3431,3445,3446,3446,3460,3460,3460,3477,3477,3478,3494,3494,3511,3512,3512,3532,3532,3532,3558,3559,3576,3593,3633,3658,3727,3784,3806,3824,3825,3834,3834,3859,3859,3859,3859,3860,3868,3868,3869,3869,3869,3892,3892,3893,3893,3893,3902,3902,3903,3903,3926,3927,3927,3927,3935,3936,3936,3961" d="m150,227c2.01433,0 2.82133,0 4,0c0.60533,0 1.58333,0 2.32866,0c1.33801,0 1.85701,0 2.41,0c1.18401,0 1.80301,0 2.43201,0c1.26399,0 2.496,0 3.0865,0c1.133,0 1.68149,0 2.75749,0c0.53351,0 2.15201,0 2.707,0c1.14,0 1.72501,0 2.32001,0c1.22,0 1.845,0 3.125,0c0.655,0 1.31999,0 2.67999,0c0.69501,0 1.40001,0 2.11501,0c0.72499,0 2.205,0 2.95934,0c0.76033,0 1.52266,0 2.28299,0c0.75433,0 2.229,0 2.94135,0c1.35466,0 1.99083,0 2.60399,0c1.18533,0 1.7715,0 2.96584,0c0.62216,0 1.95151,0.00047 2.6705,-0.00017c0.75301,-0.00067 1.53401,-0.00244 2.33701,-0.0105c0.81902,-0.00822 1.64809,-0.0218 2.48099,-0.04649c0.83112,-0.02464 2.46335,-0.10484 3.25351,-0.16417c0.77385,-0.05811 1.53314,-0.12996 2.28149,-0.20401c0.74065,-0.07329 1.4758,-0.15135 2.2095,-0.222c0.7343,-0.07069 2.97331,-0.23534 3.73849,-0.26733c0.77484,-0.03239 1.55997,-0.0519 2.35501,-0.0645c0.80496,-0.01276 1.62,-0.01759 2.44499,-0.0195c1.68001,-0.00389 2.53433,-0.00049 3.39467,-0.00266c0.86234,-0.00217 1.7227,-0.00674 2.577,-0.0195c0.84439,-0.0126 1.67494,-0.02917 2.487,-0.0645c1.55533,-0.06764 2.29117,-0.13225 3.00401,-0.19867c0.69751,-0.06499 1.3853,-0.14162 2.07149,-0.216c0.69115,-0.07494 1.39374,-0.15393 2.1165,-0.216c1.52821,-0.13126 2.34799,-0.1669 3.2,-0.19867c0.87769,-0.03271 1.77463,-0.05186 2.6835,-0.0645c0.9138,-0.01271 1.82567,-0.01758 2.7285,-0.0195c1.75067,-0.00374 2.5865,-0.00133 3.39734,-0.00133c0.79083,0 1.56667,0 2.3325,0c0.76083,0 1.52167,0 2.28749,0c1.56667,0 2.37601,0 3.20134,0c0.83733,0 1.68266,0 2.532,0c0.84933,0 1.69467,0 2.53201,0c1.63464,0 2.42499,0 3.19733,0c0.75632,0 1.49866,0 2.229,0c0.72034,0 1.43265,0 2.13898,0c1.40268,0 2.10251,0 2.80136,0c0.69681,0 1.39066,0 2.08047,0c1.36368,0 2.03552,0 3.35419,0c0.64484,0 1.27866,0 2.50934,0c0.59482,0 1.73849,0 2.28531,0c1.52902,0 2.00134,0 2.90002,0c0.85065,0 1.66934,0.00635 2.87198,-0.00034c0.80005,-0.00444 1.6041,-0.00545 2.39999,-0.114c1.20865,-0.16484 2.00549,-0.44377 2.81067,-0.74699c0.82977,-0.31248 1.23334,-0.52797 2.556,-0.972c0.91168,-0.30606 1.39133,-0.42212 2.375,-0.625c0.50327,-0.10379 1.543,-0.27484 2.625,-0.375c1.11429,-0.10313 1.68149,-0.11473 2.8125,-0.16667c0.55948,-0.0257 1.65353,-0.0619 2.6875,-0.16667c0.96765,-0.09804 1.42981,-0.18085 2.33334,-0.35416c0.90723,-0.17401 2.3331,-0.48042 2.84283,-0.57935c1.06647,-0.20695 1.61914,-0.30725 2.17801,-0.42065c1.13232,-0.22978 1.70465,-0.33455 3.35815,-0.80051c0.54251,-0.15288 1.07645,-0.33414 2.16266,-0.67867c0.55521,-0.1761 1.11517,-0.38748 2.95834,-0.83333c0.66068,-0.15981 1.35144,-0.28563 2.05801,-0.414c0.71744,-0.13034 1.44223,-0.25119 2.16599,-0.37801c0.71826,-0.12585 2.77771,-0.53447 3.41183,-0.696c0.61255,-0.15604 1.20282,-0.32758 2.34332,-0.67867c0.56143,-0.17282 1.68262,-0.53459 2.85419,-0.83333c0.60727,-0.15485 1.23502,-0.2937 2.53867,-0.53067c0.66852,-0.12152 1.34903,-0.22723 2.03699,-0.3315c0.69339,-0.10509 2.09088,-0.30534 2.79083,-0.40434c1.39542,-0.19736 2.08923,-0.29166 2.77933,-0.37933c0.68457,-0.08698 1.36288,-0.17146 2.03552,-0.23549c1.96176,-0.18675 2.59988,-0.20317 3.22815,-0.23267c0.62109,-0.02916 1.84659,-0.07594 2.45267,-0.10535c0.60327,-0.02927 2.40466,-0.16557 3.00317,-0.23132c0.59717,-0.0656 1.7803,-0.21739 2.36533,-0.29066c1.15033,-0.14407 2.26889,-0.26474 2.81451,-0.30383c1.06354,-0.0762 1.58533,-0.09343 2.61081,-0.11084c1.00925,-0.01714 2.01068,-0.00813 3.00934,-0.01199c0.49686,-0.00192 1.48096,-0.00893 2.44418,-0.05583c0.47211,-0.02299 1.83829,-0.15039 2.70898,-0.3c0.87152,-0.14975 1.75763,-0.34914 2.2175,-0.44417c1.47266,-0.30429 2.00116,-0.40639 3.11334,-0.588c0.57907,-0.09456 1.17261,-0.1927 2.40533,-0.32533c1.27679,-0.13737 1.9328,-0.16801 2.59332,-0.20134c1.3223,-0.06671 1.97708,-0.08269 2.62134,-0.10933c0.6304,-0.02606 2.39819,-0.13365 2.93317,-0.196c1.00345,-0.11694 1.4769,-0.2079 2.40417,-0.35333c0.92606,-0.14523 1.89233,-0.27266 2.93332,-0.34001c0.54959,-0.03555 1.70999,-0.06659 2.32001,-0.07466c0.62997,-0.00833 1.28,-0.00999 3.34967,-0.01067c0.72766,-0.00023 1.47134,0 2.229,0c0.76965,0 1.54932,0 2.33701,0c0.79367,0 2.39099,0 3.19049,0c0.79651,0 1.58701,0 2.3685,0c0.7695,0 1.52399,0 2.2605,0c0.71552,0 2.707,0 3.31549,0c0.5845,0 1.69351,0 2.224,0c1.02802,0 2.03201,0 3.03336,0c1.00934,0 1.5195,0 2.55582,0c0.52817,0 2.16452,0 2.72949,0c0.57501,0 1.755,0 2.36002,0c0.61499,0 2.51999,-0.00049 3.1745,0.00017c0.6615,0.00067 1.32703,0.00104 1.9935,0.0105c1.32413,0.01878 1.97601,0.03671 2.616,0.07466c1.82837,0.10841 2.40121,0.19279 2.9595,0.27634c1.09161,0.16335 1.62845,0.2681 2.6925,0.52501c1.08829,0.26277 2.20129,0.59607 2.76999,0.76149c0.57263,0.16658 1.72079,0.49521 2.29468,0.642c0.5675,0.14516 2.23004,0.47423 2.76599,0.54184c1.03836,0.13101 1.54828,0.14113 2.52499,0.27333c1.40076,0.18961 1.8486,0.3112 2.70001,0.60451c0.82916,0.28564 1.59518,0.65314 2.69501,1.12349c0.67709,0.28957 1.63687,0.64102 2.20499,0.91934c1.06451,0.52148 1.69843,1.10054 2.35718,1.53749c0.77521,0.51419 1.61996,0.61983 2.60449,0.87651c0.8168,0.21297 1.60028,0.63412 2.39999,1.03333c0.80029,0.39948 1.6048,0.79065 2.41068,1.21066c0.65045,0.339 1.60812,0.91539 2.151,1.242c0.88043,0.52969 1.50937,0.89998 2.55984,1.326c0.72577,0.29434 1.50208,0.51292 2.28299,0.774c1.19986,0.40114 1.99637,0.7292 2.39551,0.89999c0.80182,0.34309 1.58908,0.72247 2.79999,1.18066c0.79199,0.29968 1.58807,0.53499 2.36401,0.75601c0.74945,0.21349 1.81595,0.50584 2.47882,0.71066c0.94867,0.29312 1.55591,0.4998 2.75717,0.89999c0.60004,0.19991 1.50085,0.49744 2.69965,0.90001c0.59177,0.19873 1.45724,0.43802 2.367,0.89999c0.6973,0.35408 1.49588,1.00687 2.15869,1.39999c0.68646,0.40717 1.59412,0.95494 2.05331,1.69984c0.47821,0.77573 1.09274,1.25603 1.12134,2.20016c0.02728,0.90092 0,1.58533 0,2.52533c0,1.008 0,1.87016 0,2.77467c0,0.89999 0.02753,1.81108 -0.00034,2.72133c-0.02078,0.67961 -0.41339,1.69298 -1.04132,2.17867c-0.53775,0.41594 -1.37906,0.96239 -1.9375,1.52083c-0.55847,0.55847 -1.23462,1.59848 -1.64618,2.14317c-0.646,0.85497 -1.40439,1.34048 -2.06134,1.63466c-0.9823,0.43985 -1.83344,0.70346 -2.41782,0.90134c-1.19421,0.40436 -1.79813,0.60597 -2.73151,0.90001c-0.64804,0.20415 -1.68356,0.50592 -2.41217,0.6955c-0.72943,0.18979 -1.77838,0.44452 -2.70883,0.58316c-0.99765,0.14865 -1.65704,0.14957 -2.63849,0.474c-0.76276,0.25214 -1.80197,0.40428 -2.7045,0.65634c-0.87659,0.24483 -1.08472,1.15759 -1.86667,1.65767c-0.7438,0.47569 -1.81201,0.33333 -2.586,0.33333c-0.90002,0 -1.76337,-0.00552 -2.7265,0c-0.93158,0.00534 -1.83545,0.23929 -2.54169,0.5c-0.97034,0.35822 -1.76788,0.48083 -2.49384,0.49866c-0.98502,0.0242 -1.97473,-0.04703 -2.69598,0.03735c-0.99973,0.11697 -1.76758,0.53827 -2.78934,0.79733c-0.78745,0.19965 -1.61142,0.20953 -2.39999,0.45065c-0.814,0.2489 -1.79587,0.63635 -2.60001,0.69516c-0.99756,0.07294 -1.82678,-0.13049 -2.83334,0.1875c-0.71072,0.22452 -1.48331,0.76233 -2.37732,0.82266c-0.98715,0.06662 -1.78937,0.00409 -2.78934,0.01068c-0.81073,0.00534 -1.46417,0.02029 -2.42151,0.22134c-0.82172,0.17258 -1.67603,0.46338 -2.57849,0.612c-0.8902,0.14661 -1.76398,0.15799 -2.83334,0.16666c-0.71848,0.00583 -1.67987,0.03412 -2.5,0.16666c-0.98132,0.15857 -1.68546,0.34381 -2.41849,0.48068c-1.07874,0.20145 -2.08893,0.28558 -2.70651,0.3735c-0.85913,0.12228 -1.85767,0.54715 -2.54166,0.97916c-0.68399,0.43201 -1.68143,0.871 -2.54166,0.95834c-0.61768,0.06271 -1.97968,0.04166 -2.711,0.04166c-0.74734,0 -1.49469,-0.00241 -2.58069,0c-1.01398,0.00226 -1.66928,-0.01105 -2.65067,0.08533c-1.04138,0.10226 -1.77283,0.26913 -2.53683,0.41467c-0.78329,0.1492 -1.97772,0.349 -2.77783,0.41467c-0.78952,0.06479 -1.56531,0.07895 -2.31598,0.08398c-1.40265,0.0094 -2.07068,0.00134 -2.74667,0.00134c-0.70801,0 -1.88141,-0.00555 -2.74402,0.00449c-0.89474,0.01044 -1.79364,0.01059 -3.06131,0.16217c-0.76883,0.09192 -1.48154,0.26404 -2.18402,0.40802c-0.71622,0.14679 -1.89102,0.31845 -2.75467,0.36816c-0.89392,0.05145 -1.78931,0.0549 -3.06131,0.05716c-0.76266,0.00134 -1.46133,0 -2.112,0c-1.22134,0 -2.12134,0 -2.72134,0c-0.89999,0 -2.10001,0 -2.70001,0c-0.89999,0 -2.09998,0 -2.69998,0c-0.89999,0 -2.10004,-0.00583 -2.70001,0.00134c-0.90015,0.01077 -1.80533,0.05237 -2.70016,0.22c-0.91711,0.17178 -1.52664,0.40616 -2.86649,0.612c-0.71356,0.10962 -1.45847,0.13858 -2.20801,0.15598c-0.74118,0.01718 -2.14282,0.00418 -2.81067,0.02136c-0.67624,0.0174 -2.14853,0.15225 -2.55734,0.21066c-0.86383,0.12344 -1.75604,0.28671 -2.65198,0.42599c-1.27026,0.19745 -2.03531,0.27869 -2.74402,0.31665c-0.67551,0.03616 -2.02802,0.03217 -2.74533,0.03735c-0.74136,0.00537 -1.49301,0.00708 -2.23199,0.08398c-1.40643,0.14636 -2.05423,0.36047 -3.03668,0.56201c-1.00986,0.20715 -1.7323,0.27341 -2.48331,0.32733c-0.77435,0.05557 -1.56903,0.08026 -2.76401,0.24667c-0.80298,0.11182 -1.59799,0.29001 -2.39999,0.42599c-1.19727,0.203 -1.99973,0.27264 -2.80002,0.32733c-0.79971,0.05466 -1.60379,0.07962 -2.79984,0.24667c-0.79868,0.11154 -1.57776,0.28693 -2.34299,0.42599c-1.08844,0.19781 -2.09946,0.30688 -2.73633,0.33182c-0.91904,0.03595 -2.12112,0.01138 -2.72086,0.03152c-0.9007,0.03024 -2.10184,0.21069 -2.74948,0.3465c-0.77969,0.16351 -1.2435,0.27246 -2.38916,0.44415c-1.49118,0.22345 -2.39563,0.30249 -3.38535,0.39734c-1.05493,0.1011 -2.15448,0.19315 -3.276,0.28049c-1.12115,0.08731 -2.22049,0.16644 -3.276,0.2355c-1.89035,0.12366 -2.68741,0.1658 -3.38535,0.20001c-0.60974,0.02988 -1.14258,0.05115 -1.6095,0.06448c-0.4118,0.01178 -0.77966,0.01755 -1.1145,0.0195c-1.21463,0.00705 -1.81741,-0.02588 -2.71466,0.0585c-1.20618,0.11343 -1.8074,0.30243 -2.44165,0.44284c-1.02658,0.22726 -2.20056,0.38672 -3.06818,0.44733c-0.45123,0.03152 -1.37677,0.06046 -2.3075,0.13669c-1.36353,0.11166 -1.79834,0.19397 -2.64667,0.34131c-0.82639,0.14352 -1.63107,0.31985 -2.83585,0.45334c-0.79376,0.08795 -1.58035,0.10788 -2.34299,0.17401c-1.09235,0.09473 -2.10379,0.29044 -2.73633,0.46817c-0.92551,0.26004 -1.81686,0.59158 -2.72086,0.8685c-0.59747,0.18301 -1.79709,0.47131 -2.69998,0.5535c-0.59863,0.05447 -1.5,0.05649 -2.69867,0.05716c-0.59067,0.00034 -1.44418,0 -2.48001,0c-0.92133,0 -1.60532,0 -2.87848,0c-0.56369,0 -1.44418,0 -2.64417,0c-0.60934,0 -1.55585,0 -2.56534,0c-0.71735,0 -1.83334,0 -2.58069,0c-1.086,0 -1.76865,0 -2.75266,0c-0.65268,0 -1.66666,0 -2.75266,0c-0.74734,0 -1.49469,0 -2.58069,0c-1.00949,0 -1.64583,0 -2.56532,0c-0.9015,0 -1.812,0 -2.7585,0c-1.00951,0 -1.72684,0 -2.46817,0c-0.74933,0 -2.20799,0 -2.89067,0c-0.65866,0 -1.63666,0 -2.65067,0c-0.71733,0 -1.83333,0 -2.58066,0c-1.086,0 -1.77133,0 -2.79434,0c-0.72533,0 -1.95833,0 -2.42233,0c-0.99399,0 -1.51199,0 -2.56,0c-1.024,0 -1.976,0 -2.82133,0c-1.11299,0 -1.79832,0 -2.82133,0c-0.71866,0 -1.46933,0 -2.24399,0c-1.58934,0 -2.38934,0 -3.18935,0c-0.79999,0 -1.59999,0 -2.79999,0c-0.8,0 -1.60001,0 -2.40001,0c-1.2,0 -2,0 -2.8,0c-0.79999,0 -1.59999,0.00317 -2.79999,-0.00015c-0.80002,-0.00223 -1.60104,-0.00244 -2.40001,-0.05701c-1.20218,-0.08209 -1.6024,-0.15085 -2.39999,-0.30002c-0.80266,-0.15012 -1.60052,-0.34518 -2.8,-0.64282c-0.80035,-0.19861 -1.60001,-0.40002 -2.39999,-0.60001c-0.8,-0.20001 -2,-0.5 -2.8,-0.69998c-0.8,-0.20001 -1.60001,-0.40002 -2.8,-0.70001c-0.8,-0.20001 -1.60001,-0.40002 -2.39999,-0.60001c-0.8,-0.20001 -1.59978,-0.40094 -2.40134,-0.60001c-0.8091,-0.20093 -1.63365,-0.40439 -2.48401,-0.59998c-1.33426,-0.30692 -1.79752,-0.39917 -2.72932,-0.60001c-0.92418,-0.19919 -1.8187,-0.3891 -2.65201,-0.60001c-1.1273,-0.28531 -1.81209,-0.50137 -2.48149,-0.70001c-1.0179,-0.30206 -1.73729,-0.50467 -2.4985,-0.69998c-0.79875,-0.20493 -1.63858,-0.4064 -2.97467,-0.70001c-0.93036,-0.20444 -1.40408,-0.29959 -2.35333,-0.5c-0.4727,-0.09979 -1.85953,-0.39618 -2.74533,-0.60132c-0.88756,-0.20554 -1.3428,-0.31827 -2.30417,-0.55585c-0.51599,-0.1275 -2.26128,-0.56439 -2.91316,-0.72684c-0.67778,-0.16891 -1.37453,-0.34192 -2.0835,-0.51599c-0.7137,-0.17523 -1.42511,-0.34967 -2.12851,-0.51599c-1.98427,-0.46915 -2.59187,-0.59924 -3.17017,-0.72684c-1.07608,-0.23743 -2.0535,-0.44901 -2.50583,-0.55585c-1.23439,-0.29153 -1.97449,-0.48981 -3.02533,-0.83731c-0.72104,-0.23843 -1.89226,-0.68512 -2.31866,-0.84802c-0.8922,-0.34088 -1.81462,-0.69443 -2.2825,-0.86331c-1.37752,-0.49722 -2.26186,-0.77066 -2.69101,-0.89551c-0.83449,-0.2428 -1.65233,-0.45401 -2.85716,-0.75717c-0.79843,-0.2009 -1.59012,-0.39703 -2.364,-0.60001c-0.75143,-0.19708 -1.81789,-0.48868 -2.78934,-0.79999c-0.60228,-0.19302 -1.68277,-0.59348 -2.394,-0.89999c-0.90895,-0.39172 -1.873,-0.80267 -2.40533,-1c-0.8205,-0.30414 -1.87952,-0.70279 -2.59016,-0.99551c-0.8513,-0.35066 -1.65807,-0.57732 -2.45717,-0.7045c-1.00119,-0.15935 -1.8101,-0.43739 -2.45717,-0.7045c-0.96314,-0.39758 -1.76984,-0.66537 -2.533,-0.9955c-1.05789,-0.45761 -1.82025,-0.74178 -2.57384,-1.32533c-0.62541,-0.4843 -1.10934,-1.25568 -1.65733,-1.85333c-0.58509,-0.63811 -1.02575,-1.50124 -0.42149,-2.06866c0.66286,-0.62247 1.3739,-0.79871 2.309,-1.35718c0.60095,-0.35892 1.66575,-0.86504 2.3045,-1.17949c0.69979,-0.3445 1.44349,-0.70761 2.232,-1.03201c1.18707,-0.48837 1.99704,-0.73224 2.39733,-0.85866c0.79943,-0.25249 1.61077,-0.48087 2.8,-0.94684c0.80777,-0.3165 1.60196,-0.69528 2.40001,-1.08299c0.40099,-0.19481 1.5986,-0.79781 2.39549,-1.19101c0.78249,-0.38609 1.54001,-0.76396 2.63783,-1.23782c0.67566,-0.29164 1.32208,-0.52519 2.205,-0.86217c1.0425,-0.39789 1.715,-0.69383 2.47501,-1.01917l0.94499,-0.28534" id="svg_1" stroke-width="2" stroke="#000" fill="none"/>
  <path t="4488,4594,4594,4610,4610,4610,4628,4628,4628,4628,4628,4628,4644,4644,4644,4644,4644,4644,4644,4661,4661,4661,4662,4662,4678,4678,4678,4678,4678,4696,4696,4696,4696,4696,4713,4713,4713,4713,4713,4729,4729,4729,4729,4729,4729,4745,4746,4746,4746,4746,4763,4763,4763,4763,4763,4763,4780,4780,4780,4780,4780,4780,4795,4795,4795,4795,4795,4812,4812,4812,4812,4812,4829,4829,4829,4829,4829,4846,4846,4846,4863,4863,4863,4880,4880,4900,4932,4971,4988,5012,5031,5046,5046,5065,5081,5081,5081,5096,5096,5097,5112,5112,5132,5203,5227,5237,5262,5262,5262,5271,5271,5271,5271,5271,5288,5288,5288,5289,5289,5289,5289,5289,5305,5306,5306,5306,5306,5306,5306,5306,5322,5323,5323,5323,5323,5323,5323,5341,5341,5341,5341,5341,5342,5359,5359,5359,5359,5359,5377,5377,5377,5377,5393,5393,5411,5428,5428,5446" d="m178,232c-2.00983,-0.35266 -2.77655,-0.61333 -3.83333,-0.83333c-0.718,-0.14948 -1.48911,-0.19562 -2.66667,-0.66667c-0.77646,-0.31059 -1.1763,-0.56642 -2.08333,-1.04167c-0.48483,-0.25403 -1.49852,-0.79298 -2.58334,-1.29166c-0.5508,-0.25319 -1.67996,-0.70908 -2.248,-0.92c-0.56302,-0.20905 -1.67401,-0.58966 -2.21599,-0.76001c-1.52228,-0.47845 -1.9995,-0.59982 -2.89734,-0.86133c-0.85146,-0.24799 -1.67499,-0.49373 -2.472,-0.79201c-0.80605,-0.30165 -1.59854,-0.66203 -2.39999,-1.008c-0.79855,-0.34471 -1.9976,-0.81123 -2.8,-1.07266c-0.79768,-0.25989 -1.2049,-0.36331 -2,-0.63667c-1.20802,-0.41531 -2.00652,-0.76868 -2.82083,-1.13683c-0.83844,-0.37906 -1.26031,-0.58995 -2.60068,-1.17917c-0.4624,-0.20326 -1.41399,-0.60123 -1.89932,-0.8c-0.98267,-0.40247 -1.48064,-0.59967 -2.979,-1.2c-0.49889,-0.19989 -1.49008,-0.59859 -1.97934,-0.8c-0.96483,-0.3972 -2.35548,-0.99706 -2.7995,-1.20016c-0.87132,-0.39859 -1.72282,-0.81773 -2.14667,-1.03583c-0.86174,-0.44341 -1.74315,-0.92746 -2.65866,-1.44801c-0.46962,-0.26701 -1.41563,-0.81664 -1.89067,-1.09067c-0.9406,-0.54259 -1.85643,-1.06276 -2.73866,-1.53999c-0.8379,-0.45325 -1.24797,-0.659 -2.025,-1.08083c-1.09925,-0.59674 -1.78239,-0.99832 -2.43633,-1.41518c-0.65549,-0.41785 -1.31207,-0.87082 -2.34666,-1.6105c-0.73329,-0.52428 -1.47612,-1.06172 -1.85333,-1.31749c-0.73642,-0.49933 -1.79713,-1.13199 -2.77867,-1.60001c-0.59614,-0.28424 -1.6983,-0.80223 -2.38499,-1.30949c-0.63274,-0.46741 -1.30991,-0.98648 -2.15717,-1.40001c-0.71813,-0.35051 -1.50146,-0.90912 -2.40433,-0.95183c-0.92446,-0.04373 -1.7015,0 -2.65733,0c-0.8955,0 -1.76211,-0.06548 -2.62817,0.01067c-0.95706,0.08414 -1.62969,0.33113 -2.4,0.60001c-1.05553,0.36842 -1.7756,0.64699 -2.553,1.08932c-0.80197,0.45631 -1.68016,0.68343 -2.37634,1.384c-0.54382,0.54726 -0.28561,1.616 -0.28533,2.588c0.00025,0.871 -0.04597,1.61681 0.1715,2.437c0.24339,0.91791 0.89745,1.814 1.43266,2.45351c0.2936,0.35081 0.97459,1.08986 1.72917,1.9375c0.41174,0.46251 1.27853,1.46979 1.728,2.008c0.46161,0.55275 0.92649,1.12202 1.3905,1.70551c0.46802,0.58852 1.38419,1.78452 1.82667,2.38634c0.43884,0.59688 0.86565,1.19473 1.2855,1.78949c0.82793,1.17284 1.22936,1.75502 1.63467,2.32533c0.79713,1.12166 1.19865,1.66556 1.6,2.19867c0.78575,1.04372 1.1798,1.54555 1.56533,2.04001c0.74932,0.96104 1.46977,1.87965 1.8145,2.325c0.66518,0.85934 0.98058,1.27887 1.61083,2.075c0.60463,0.76375 1.20483,1.48517 1.80933,2.16133c0.58505,0.6544 1.17509,1.26601 1.716,1.884c0.77789,0.88875 1.22746,1.48955 1.64367,2.05966c0.56014,0.76729 1.27158,1.73921 1.73717,2.23267c0.68593,0.72697 1.4045,1.40901 1.9045,1.90901l0.7,0.7" id="svg_2" stroke-width="2" stroke="#000" fill="none"/>
  <path t="6073,6164,6164,6164,6164,6181,6181,6182,6182,6182,6198,6198,6198,6198,6215,6216,6216,6216,6232,6232,6232,6232,6233,6249,6249,6249,6266,6395,6411,6428,6429,6429,6445,6446,6446,6446,6462,6462,6462,6462,6462,6479,6479,6479,6496,6496,6496" d="m136,231c-2.05733,0 -3.08333,0 -3.87067,0c-0.41867,0 -1.7505,0 -2.67751,0c-0.931,0 -1.39049,0 -2.28249,0c-1.2265,0 -2.308,0 -2.984,0c-0.668,0 -2.072,0 -2.832,0c-0.8,0 -1.64,0 -2.52,0c-0.91467,0 -1.83733,0 -2.736,0c-0.43034,0 -1.93267,0 -2.77867,0c-0.64799,0 -2.60966,-0.927 -2.60966,0c0,0.11433 1.063,0 1.8535,0c0.60367,0 1.959,0 2.69466,0c0.76367,0 1.54733,0 2.74284,0c0.79867,0 1.58933,0 2.364,0c0.75067,0 2.15067,0 2.8,0c0.9315,0 1.836,0 2.7315,0l0.8685,0" id="svg_3" stroke-width="2" stroke="#000" fill="none"/>
  <path t="7425,7557,7557,7592,7592,7592,7592,7592,7592,7600,7600,7600,7600,7600,7600,7600,7600,7609,7609,7609,7609,7609,7609,7609,7626,7626,7626,7626,7626,7626,7626,7643,7643,7643,7643,7643,7660,7660,7660,7660,7677,7677,7677,7694,7694,7711,7711,7814,7840,7841,7841,7853,7853,7853,7853,7853,7876,7876,7876,7876,7876,7876,7890,7890,7890,7890,7890,7890,7890,7911,7911,7911,7911,7925,7925,7925,7925,7942,7942,7958,7958" d="m153,227c-1.5625,1.5625 -2.05721,2.05479 -2.76466,2.76483c-0.6124,0.61462 -0.9575,0.96115 -1.70334,1.73917c-0.40456,0.42201 -0.83138,0.86162 -2.1535,2.33867c-0.46739,0.52216 -0.93495,1.06328 -1.41449,1.608c-0.48413,0.54994 -0.97185,1.10123 -1.46851,1.644c-0.49403,0.5399 -1.48277,1.5854 -2.4955,2.53467c-0.49388,0.46294 -0.99751,0.90157 -1.5,1.32899c-0.49756,0.42323 -1.49925,1.23993 -2.5,2.04167c-0.49947,0.40013 -0.99538,0.80153 -1.98933,1.57867c-0.48822,0.38173 -0.96458,0.76321 -1.92534,1.45065c-0.9093,0.65062 -1.79614,1.20424 -2.22366,1.45634c-0.81526,0.48076 -1.60698,0.89294 -2.69499,1.51433c-0.68449,0.39091 -1.31937,0.79036 -1.92001,1.164c-1.07887,0.67116 -1.78539,1.08662 -2.436,1.42534c-1.00413,0.52277 -1.89166,0.77135 -2.47733,1.41066c-0.55859,0.60974 -0.75223,1.03708 0.156,0.71333c0.60889,-0.21704 1.3651,-0.60677 2.37517,-1.03484c0.80473,-0.34106 1.24293,-0.51591 2.1675,-0.88916c0.97141,-0.39215 1.96786,-0.78967 2.46817,-0.98933c1.00406,-0.4007 1.5094,-0.60284 2.53583,-1c0.52061,-0.20143 2.13034,-0.80095 2.685,-1c0.55998,-0.20096 1.68359,-0.59839 2.23734,-0.8c0.54492,-0.19841 1.60106,-0.56844 2.97717,-1.19983c0.41292,-0.18947 1.15234,-0.59703 2.151,-1.14301c0.90977,-0.49738 1.50749,-0.78333 2.39267,-1.13634c0.56079,-0.22365 1.59917,-0.62083 2.47916,-1.02083l0.875,-0.5l0.64584,-0.47917" id="svg_4" stroke-width="2" stroke="#000" fill="none"/>
  <path t="8985,9210,9211,9228,9228,9228,9244,9261,9262,9279,9279,9279,9296,9313,9313,9330,9744,9745,9761,9778,9795,9795,9812,9829,9846,9846,9863,9880,9897,9897,9914,9948,9966,9966,9982,10000,10000,10017,10034,10035,10035,10051,10051,10051,10067,10068,10068,10068,10068,10068,10084,10085,10085,10085,10085,10101,10101,10101,10101,10101,10101,10126,10126,10126,10126,10126,10126,10142,10142,10142,10142,10142,10142,10142,10161,10162,10162,10162,10162,10162,10162,10171,10171,10171,10171,10171,10172,10172,10172,10194,10195,10195,10195,10195,10195,10203,10203,10203,10203,10203,10203,10227,10227,10227,10227,10227,10227,10227,10237,10237,10237,10237,10237,10237,10237,10261,10261,10261,10261,10261,10276,10276,10276,10276,10276,10276,10294,10294,10294,10294,10294,10294,10304,10304,10304,10305,10305,10329,10329,10329,10329,10329,10339,10339,10339,10339,10340,10360,10360,10360,10360,10360,10360,10373,10373,10373,10373,10374,10393,10393,10393,10393,10393,10409,10409,10409,10409,10409,10409,10409,10422,10422,10422,10422,10422,10441,10441,10441,10441,10442,10442,10456,10456,10456,10456,10476,10476,10476,10476,10491,10491,10491,10507,10508,10932,10970" d="m299,228c-1.84668,0 -2.68668,0 -3.68268,0c-0.79648,0 -1.54797,-0.00009 -2.65598,0c-0.98285,0.00009 -1.69937,-0.06705 -2.66135,0.16667c-0.81046,0.19691 -1.48944,0.6734 -2.37466,1.22266c-0.77151,0.4787 -1.68945,0.4274 -2.45734,0.89467c-0.72818,0.44308 -1.3533,0.71066 -2.41083,0.716c-0.85718,0.00432 -1.75717,0 -2.55716,0c-0.90002,0 -1.85147,-0.01186 -2.68402,0.284c-0.70605,0.2509 -1.75739,0.68741 -2.616,0.716c-0.89951,0.02995 -1.8364,-0.40274 -2.61465,0.08533c-0.74042,0.46432 -1.28571,0.89082 -2.08533,0.91467c-0.95847,0.02859 -1.84152,0.38049 -2.54733,0.64734c-0.88739,0.33551 -1.82388,0.5081 -2.49936,0.78867c-0.84595,0.35136 -1.83786,0.77409 -2.41064,0.96399c-0.95605,0.31696 -2.07477,0.60535 -2.91333,0.8c-0.44302,0.10283 -1.37061,0.30194 -2.33835,0.5c-0.49344,0.101 -1.991,0.40001 -2.491,0.5c-1,0.2 -1.5,0.3 -2.5,0.5c-1.5,0.3 -2.00079,0.39635 -3,0.60451c-0.5004,0.10425 -1.5018,0.32433 -2,0.45267c-1.50574,0.38789 -2.00334,0.55452 -3,0.89999c-0.50174,0.17392 -1.50079,0.55148 -2,0.74733c-1.5024,0.58943 -2.00238,0.79044 -3.0045,1.2045c-0.50729,0.20961 -1.53352,0.65869 -2.05266,0.90533c-0.53027,0.25194 -2.16634,1.12508 -2.72818,1.455c-0.57388,0.33701 -1.15103,0.69139 -1.73549,1.0515c-1.18443,0.72977 -1.77464,1.10641 -2.97917,1.8125c-0.59697,0.34993 -1.19606,0.68483 -1.7955,1.005c-1.17863,0.62953 -1.76718,0.91768 -2.34734,1.2c-0.57054,0.27765 -2.23482,1.04208 -2.77184,1.27634c-0.52736,0.23004 -1.56392,0.66591 -2.07466,0.87466c-1.00821,0.41209 -2.01033,0.81152 -3.01199,1.21066c-0.50301,0.20044 -1.51889,0.60158 -2.03467,0.8c-1.04811,0.40321 -2.12994,0.80203 -2.6855,1c-1.1342,0.40416 -1.71414,0.60107 -2.29933,0.8c-1.18294,0.40215 -1.78047,0.6001 -2.97917,1c-0.59966,0.20004 -1.79143,0.59875 -2.37866,0.79999c-0.58009,0.19879 -1.70857,0.59579 -2.25067,0.80002c-1.04041,0.39194 -2.0036,0.79486 -2.90933,1.19998c-0.44162,0.19754 -1.30569,0.60843 -2.62801,1.20001c-0.45355,0.20291 -1.38988,0.60147 -1.86932,0.79999c-0.97343,0.40302 -1.46823,0.60068 -2.964,1.20001c-0.49974,0.20023 -1.49597,0.59885 -1.98933,0.79999c-0.9756,0.39774 -1.45879,0.58789 -2.84399,1.20001c-0.88478,0.39099 -1.30742,0.6001 -2.14584,0.97916c-0.81432,0.36816 -2.01711,0.86496 -2.82083,1.13684c-0.79645,0.26941 -1.20338,0.3735 -2,0.63666c-1.20534,0.39819 -2.00154,0.73083 -2.81067,1.07269c-0.82555,0.34879 -1.2332,0.55942 -2.556,1.008c-0.91025,0.30869 -1.38986,0.41641 -2.35416,0.66666c-0.98303,0.2551 -1.48813,0.35867 -2.97884,0.8215c-0.50037,0.15536 -1.48129,0.50864 -1.95866,0.69934c-0.93196,0.37228 -2.21053,0.97495 -2.59917,1.17917c-0.74594,0.39197 -1.45488,0.81607 -2.205,1.19998c-1.22427,0.62656 -1.69965,0.80521 -2.7,1.2045c-0.52313,0.2088 -1.59912,0.62762 -2.13667,0.85266c-0.5358,0.2243 -2.06215,0.95682 -2.53149,1.22684c-0.91632,0.52713 -1.34187,0.82669 -2.2175,1.36334c-1.30878,0.80209 -1.76804,1.04123 -2.70001,1.49551c-0.46407,0.2262 -1.39194,0.64334 -1.842,0.85266c-1.28067,0.59561 -2.04164,0.99878 -2.73784,1.39383c-0.65302,0.37054 -1.86588,1.05743 -2.472,1.32532c-0.59428,0.26266 -1.50018,0.58029 -2.69966,0.98535c-0.59143,0.19971 -1.42833,0.5 -2.367,0.89999l-0.66133,0.38934l-0.87067,0.52399l-0.73967,-0.26599" id="svg_5" stroke-width="2" stroke="#000" fill="none"/>
  <path t="11770,11943,11943,11943,11943,11963,11963,11963,11963,11963,11980,11980,11980,11980,11980,11996,11997,11997,11997,12012,12013,12013,12032,12032,12046,12046,12046,12064,12064,12076,12099,12099,12110,12111,12134,12145,12145,12165,12200,12248,12302,12336,12353,12353,12370,12370,12370,12370,12370,12387,12387,12387,12387,12387,12387,12403,12403,12404,12404,12404,12421,12421,12421,12421,12438,12438,12438,12439,12439,12439,12455,12455,12455,12455,12455,12455,12479,12479,12479,12479,12479,12501,12501,12501,12501,12501,12501,12509,12509,12509,12509,12509,12509,12532,12532,12532,12532,12532,12548,12548,12548,12549,12567,12567,12567,12567,12576,12576,12576,12599,12599,12599,12616,12616,12616,12631,12632,12647,12647,12665,12666,12682,12698,12699,12715,12715,12715,12733,12733,12749,12749,12749,12767,12767,12767,12768,12781,12781,12782,12782,12782,12803,12803,12803,12803,12803,12817,12817,12817,12817,12817,12817,12836,12836,12836,12836,12837,12837,12851,12851,12851,12851,12851,12851,12852,12852,12868,12868,12868,12868,12868,12868,12869,12884,12885,12885,12885,12885,12885,12885,12903,12903,12903,12903,12903,12904,12904,12918,12918,12919,12919,12919,12919,12919,12936,12936,12936,12936,12936,12952,12952,12953,12953,12969,12969,12969,12969,12987,12987,13003,13003,13021,13037,13038,13054,13071,13071,13089,13089,13106,13124,13140,13167,13184,13203,13220,13220,13238,13252,13253,13253,13270,13270,13270,13287,13287,13303,13304,13304,13321,13321,13351" d="m147,268c0.57333,2.05466 0.87038,2.71097 1.29333,3.396c0.45576,0.73816 1.34244,1.78931 1.67467,2.11868c0.66907,0.66333 1.39046,1.26459 2.064,1.884c0.64354,0.59183 1.2123,1.19153 1.70667,1.81198c0.48973,0.61462 0.93993,1.27759 1.68251,2.31052c0.52412,0.72906 1.06418,1.45358 1.569,2.16898c0.68492,0.97061 1.03915,1.53784 1.46815,2.24734c0.54167,0.89584 1.08829,1.5304 1.64168,2.384c0.43826,0.67603 0.67316,1.29385 1.2,2.2695c0.38087,0.70532 1.2009,1.23978 1.8,1.85184c0.62616,0.63971 0.97342,1.55841 1.5,2.14648c0.66331,0.74078 1.15198,1.44159 1.45267,2.11069c0.37259,0.8291 1.27824,1.20059 1.922,1.72531c0.63829,0.52026 1.47209,0.58682 2.34717,0.57452c0.74088,-0.01041 2.01541,-0.14767 2.64883,-0.28918c0.70631,-0.15781 1.47321,-0.38147 2.23199,-0.76801c1.23891,-0.6311 1.60574,-0.98553 2.39734,-1.62933c0.40436,-0.32886 1.19342,-1.02051 1.59999,-1.34665c1.18105,-0.94739 1.98756,-1.45795 2.75833,-1.92502c0.36806,-0.22302 1.09732,-0.60086 2.27634,-1.44299c0.5488,-0.392 1.07484,-0.85327 1.70399,-1.284c1.12466,-0.76996 1.59592,-1.00873 2.59468,-1.54001c0.52635,-0.28 1.06862,-0.55914 2.18666,-1.09067c1.10873,-0.5271 1.65665,-0.76633 2.71834,-1.22684c0.51419,-0.22302 1.51572,-0.64481 2,-0.85266c1.39708,-0.59964 2.27625,-1.00333 2.7045,-1.19998c0.8362,-0.38397 1.64352,-0.77042 2.85716,-1.23785c0.39748,-0.15308 1.20999,-0.41544 2.04167,-0.6875c0.87372,-0.2858 1.3389,-0.42371 2.80099,-1.02182c0.52907,-0.21643 1.608,-0.70801 2.15733,-0.95734c0.54933,-0.24933 1.62415,-0.75119 2.66667,-1.16666c0.95447,-0.38037 1.41129,-0.52933 2.27083,-0.79169c0.79349,-0.24222 1.89729,-0.53671 2.90984,-0.84164c0.65363,-0.19684 1.30219,-0.41095 2.67383,-0.80002c0.72539,-0.20578 1.46043,-0.39154 2.16901,-0.60001c0.98001,-0.28833 1.80078,-0.59811 2.52449,-0.89999c0.95303,-0.39755 1.72952,-0.72299 2.56001,-0.96399c1.0491,-0.30444 1.76701,-0.40268 2.62082,-0.43152c1.00395,-0.03391 1.82253,0.03885 2.80434,-0.22583c0.79913,-0.21545 1.62411,-0.67395 2.49567,-0.77417c0.93521,-0.10754 1.79591,-0.27661 2.51517,-0.61514c0.79634,-0.37482 1.56566,-0.84442 2.38934,-1.104c0.97827,-0.30829 1.80013,-0.26892 2.804,-0.28668c0.65868,-0.01166 1.45447,-0.06683 2.46016,-0.22015c0.80054,-0.12204 1.65883,-0.28931 2.535,-0.483c1.27081,-0.28094 2.03136,-0.49982 2.75017,-0.68484c0.69994,-0.18018 1.41396,-0.36349 2.59366,-0.48917c0.86879,-0.09256 1.79863,-0.10345 2.27834,-0.11081c0.98126,-0.01508 2.47882,-0.00912 2.98001,-0.01202c1.00937,-0.00586 1.51987,-0.01004 2.55582,-0.05582c0.52841,-0.02335 2.16492,-0.16101 2.72949,-0.22818c0.57544,-0.06845 1.75519,-0.23428 2.36002,-0.32532c0.61517,-0.09259 2.5199,-0.38992 3.17465,-0.48935c0.6626,-0.10062 1.33133,-0.20013 2.00403,-0.29999c1.34927,-0.20029 2.02209,-0.29926 2.69064,-0.39999c1.31757,-0.19852 1.96414,-0.29065 3.22684,-0.509c0.62204,-0.10757 1.23846,-0.22302 1.8465,-0.36301c1.21393,-0.27948 2.41318,-0.65427 3.01068,-0.87067c0.60263,-0.21823 1.79999,-0.70801 2.39999,-0.95734c0.60001,-0.24933 1.18365,-0.54019 3,-1.16666c0.59503,-0.20523 1.19461,-0.38477 2.39999,-0.65067c0.59756,-0.13184 1.1983,-0.23746 1.80002,-0.3165c1.79559,-0.23581 2.39944,-0.24866 2.99731,-0.28217c1.18094,-0.06619 1.76132,-0.07788 2.88834,-0.13669c0.54382,-0.02838 2.07242,-0.16135 2.54367,-0.23267c0.90097,-0.13638 1.75073,-0.31934 2.56799,-0.51599c1.20465,-0.28989 1.99881,-0.49622 2.78183,-0.69867c0.76428,-0.19763 1.85461,-0.49854 2.53418,-0.69867c0.94562,-0.27847 1.79361,-0.55072 2.79999,-0.71732c0.83572,-0.13834 1.64343,-0.34424 2.38217,-0.73135c0.8811,-0.46172 1.4263,-0.98119 2.00452,-1.64732c0.6235,-0.71831 1.48267,-1.01637 2.18533,-1.50667c0.7485,-0.52226 1.4288,-0.97668 2.47867,-1.16267c0.82269,-0.14574 1.3858,-0.65886 2.15683,-1.01517c0.78891,-0.36456 1.42365,-0.66975 2.189,-0.96815c0.76303,-0.2975 1.63358,-0.59416 2.6235,-0.886c0.65802,-0.19398 1.46414,-0.12057 2.5,-0.33334c0.9462,-0.19434 1.54675,-0.54695 2.56799,-0.74933c0.82571,-0.16364 1.7692,-0.23502 2.54684,-0.43666c0.7948,-0.20609 1.90881,-0.526 2.63049,-0.67267l0.81067,-0.41068" id="svg_6" stroke-width="2" stroke="#000" fill="none"/>
  <path t="13923,14086,14086,14086,14102,14102,14102,14102,14102,14102,14119,14119,14119,14119,14119,14119,14120,14136,14136,14136,14136,14136,14136,14153,14153,14153,14153,14171,14171,14235,14252,14252,14269,14269,14286,14286,14303,14303,14303,14320,14320,14320,14337,14337,14355,14355,14355,14355,14372,14372,14372,14391,14391,14391,14392,14408,14408,14408,14408,14424,14424,14424,14442,14442,14442,14458,14582,14583,14607,14615,14615,14615,14638,14638,14638,14638,14638,14647,14647,14647,14647,14647,14647,14668,14668,14668,14668,14668,14684,14684,14685,14685,14685,14701,14701,14717,14717,14779,14813,14813,14836,14836,14850,14850,14850,14850,14850,14850,14869,14869,14869,14869,14869,14885,14886,14886,14886,14886,14902,14902,14902,14902,14902,14902,14918,14918,14919,14919,14919,14919,14919,14939,14939,14939,14939,14950,14950,14950,14950,14972,14972,14972,14985,14985" d="m265,270c0,2.02783 0,2.92932 0,3.65866c0,1.306 0,1.79868 0,2.86002c0,0.56467 0,1.14932 0,2.37067c0,1.27731 0,1.93167 0,2.59198c0,1.32266 0,1.97702 0,2.62134c0,0.63034 0,2.39734 0,2.93283c0,0.99301 0,1.90201 0,2.33252c0,0.828 0,2.03165 0,2.823c0,1.13699 0,1.83832 0,3.03699c0,0.7095 -0.43893,1.97922 0.16666,2.60535c0.51358,0.53101 1.67862,0.22171 2.43466,0.08133c1.0188,-0.18918 1.64236,-0.50076 2.59851,-1.23618c0.62021,-0.47702 1.18481,-1.05133 1.77866,-1.87851c0.41592,-0.57932 0.82718,-1.39651 1.22153,-2.20132c0.40726,-0.83115 0.80859,-1.76212 1.09998,-2.55582c0.20612,-0.56149 0.50021,-1.44409 0.90002,-2.64285c0.2001,-0.59998 0.50269,-1.49911 0.79999,-2.39999c0.29819,-0.90363 0.5192,-1.51193 0.71466,-2.48532c0.20648,-1.0282 0.23956,-1.76236 0.2645,-2.49384c0.03586,-1.05109 0.02084,-1.978 0.02084,-2.75952c0,-0.944 0,-1.944 0,-2.74048c0,-0.7515 0,-1.8595 0,-2.84186c0,-0.78165 0,-0.85117 0,0.09436c0,0.81 0,1.44998 0,2.56c0,0.83731 0,1.73865 0,2.68799c0,0.48767 0,1.97867 0,2.97867c0,0.5 0,1.5 0,2c0,1 0,2.49985 0,2.99866c0,0.99066 0,1.4805 0,2.44418c0,1.3905 0.00757,2.26932 -0.01068,3.09982c-0.01703,0.77487 0.00375,1.50098 -0.27332,2.68533c-0.16895,0.72217 -0.43549,1.64264 -0.76868,2.4675c-0.33795,0.83667 -1.11398,1.3045 -1.83398,1.3045c-0.992,0 -1.74652,0 -2.78,0c-0.87201,0 -1.85602,0 -2.375,0c-1.06201,0 -1.59302,0.00183 -3.11551,-0.00015c-0.47351,-0.00061 -1.38193,0.00168 -2.25751,-0.03586c-0.86859,-0.03723 -2.20776,-0.17929 -2.67065,-0.25064c-0.95279,-0.14688 -1.92749,-0.35123 -2.41916,-0.47501c-1.5025,-0.37827 -1.99734,-0.5546 -3.00002,-0.89102c-0.50703,-0.1701 -1.52924,-0.52893 -2.05266,-0.69464c-1.60289,-0.50745 -2.16289,-0.63525 -2.72417,-0.76868c-1.12085,-0.26645 -1.6796,-0.37323 -2.75168,-0.63666c-0.51363,-0.12619 -1.91537,-0.53992 -2.6955,-0.90451c-0.72189,-0.33737 -1.36139,-0.74219 -2.2715,-1.34283c-0.60092,-0.39661 -1.48566,-0.991 -2.04283,-1.39999c-0.80002,-0.58725 -1.4955,-1.1955 -2.1105,-1.76401l-0.67999,-0.66934l-0.64584,-0.66666" id="svg_7" stroke-width="2" stroke="#000" fill="none"/>
  <path t="15602,15773,15773,15789,15789,15804,15804,15873,15873,15889,15907,15924,15924,15941,15941,15958,15958,15975,15975,15992,16009,16028,16028,16045,16062,16062,16078,16096,16096,16096,16113,16113,16113,16130,16130,16146,16274,16291,16308,16308,16325,16325,16325,16325,16341,16341,16341,16341,16358,16358,16375,16392,16463,16497,16497,16514,16514,16514,16530,16531,16531,16531,16547,16548,16548,16548,16548,16573,16573,16573,16573,16573,16590,16591,16591,16591,16591,16591,16591,16609,16609,16609,16609,16609,16609,16609,16622,16623,16623,16623,16623,16623,16623,16640,16640,16640,16640,16640,16640,16656,16656,16656,16656,16656,16674,16674,16674,16674,16674,16689,16689,16690,16708,16708,16724,16961,16993,17027,17050,17067,17084,17084,17101,17118,17146" d="m347,271c0,1.836 0,2.60132 0,3.60001c0,0.79999 -0.00006,1.79999 0,2.60001c0.00009,0.99966 -0.30475,2.22672 0.436,2.728c0.72174,0.48843 1.73065,0.07199 2.58484,0.07199c0.97916,0 1.76849,0 2.8125,0c0.79199,0 1.65067,0 2.51398,0c0.89551,0 1.922,0.18887 2.75269,-0.2215c0.69058,-0.34116 1.21088,-1.06775 1.89999,-1.7785c0.57321,-0.59122 0.98199,-1.41016 1,-2.32184c0.01462,-0.74051 0,-1.45016 0,-2.64484c0,-0.67334 0,-1.67084 0,-2.76883c0,-0.83249 0.89099,-2.55548 0,-2.55548c-0.05716,0 0.00006,0.95715 0,1.80981c-0.00009,1.12399 0.00497,1.79129 -0.02084,2.50201c-0.02658,0.73141 -0.1868,2.16037 -0.33182,2.8175c-0.20291,0.9194 -0.43558,1.46378 -0.59018,2.69998c-0.09949,0.79556 0.12473,1.84604 -0.0585,2.66034c-0.18066,0.80286 -1.332,0.80133 -2.04031,0.80133c-0.95834,0 -1.77966,-0.00006 -2.47269,0c-1.12866,0.00009 -1.80069,-0.01465 -2.90698,0.03601c-0.78207,0.0358 -1.97986,0.17923 -2.78317,0.31665c-0.40671,0.06958 -1.22861,0.24063 -2.08084,0.36334c-1.33246,0.19186 -2.27628,0.2327 -2.76132,0.25867c-0.99985,0.0535 -1.51675,0.05585 -3.12,0.19199c-0.55554,0.04718 -1.69086,0.18799 -2.26935,0.26935c-0.58521,0.08231 -1.76865,0.26749 -2.36533,0.36533c-1.19901,0.19662 -2.39868,0.39868 -2.99866,0.49866c-0.60001,0.10001 -1.80002,0.30002 -2.40002,0.40002c-0.59998,0.09998 -2.39999,0.39999 -3,0.5c-0.59998,0.09998 -1.19998,0.19998 -2.39999,0.39999c-0.60001,0.10001 -1.20035,0.19781 -2.99966,0.50015c-0.59778,0.10043 -1.19312,0.19492 -2.35867,0.42068c-0.57059,0.11053 -1.67889,0.33679 -2.70831,0.64581c-0.97083,0.29144 -1.42188,0.47888 -2.29169,0.83334c-0.83545,0.34048 -2.03711,0.84662 -2.84033,1.11465c-0.78641,0.26242 -1.56577,0.47318 -2.31598,0.68402c-1.06409,0.29904 -1.71674,0.50504 -2.60269,0.76532c-0.94678,0.27814 -1.74081,0.42795 -2.68265,0.436c-0.89548,0.00766 -1.582,-0.4248 -1.60001,-1.35718c-0.01627,-0.84268 0,-1.74283 0,-2.64282c0,-0.79999 0,-1.70001 0,-2.60001l0,-0.89999" id="svg_8" stroke-width="2" stroke="#000" fill="none"/>
  <path t="19239,19353,19353,19353,19370,19371,19371,19371,19387,19387,19387,19387,19387,19387,19387,19387,19404,19405,19405,19405,19405,19405,19405,19405,19421,19422,19422,19422,19422,19422,19438,19438,19438,19438,19438,19455,19455,19455,19455" d="m398,221c2.01883,0 2.85733,0 3.48801,0c1.034,0 2.17999,0 2.59534,0c0.89267,0 2.41666,0 2.98132,0c0.59268,0 1.854,0 2.51868,0c0.68466,0 1.38733,0 2.10599,0c1.47733,0 2.23166,0 2.992,0c0.76233,0 1.52267,0 3.02133,0c0.73035,0 1.44266,0 2.79733,0c0.63535,0 1.82401,0 2.38135,0c1.05066,0 1.54797,0 2.952,0c0.88132,0 1.73065,0 2.556,0c0.80933,0 2.01016,0 2.79715,0l0.75101,0l0.69101,0" id="svg_9" stroke-width="2" stroke="#000" fill="none"/>
 </g>
 <g display="none">
  <title>muse_image</title>
  <image xlink:href="http://farm4.static.flickr.com/3016/2585672732_7e7d9b5d05.jpg" id="muse" height="480" width="640" y="0" x="0"/>
 </g>
 <g display="none">
  <title>bbox</title>
  <rect stroke="#f00" fill="none" stroke-width="3" height="154.88" width="473.6" y="147.2" x="46.08" id="bbox"/>
 </g>
</svg>
