<svg width="640" height="480" xmlns="http://www.w3.org/2000/svg" xmlns:svg="http://www.w3.org/2000/svg" xmlns:xlink="http://www.w3.org/1999/xlink">
 <!-- Sketchy ANNOTATION
  ImageNet ID: n02691156_7473
  URL: http://farm4.static.flickr.com/3033/2624048094_4ee7c9c656.jpg
  Image Width: 500
  Image Height: 333
  BBox X: 85
  BBox Y: 149
  BBox Width: 398
  BBox Height: 89
  Exposure: 2000ms
  Synset Label: airplane
  Synset ID: n02691156
  Worker Tag: A airplane
  Sanity Check: 
   Context
   Saved
   Shading
  Comment: 
   {}
  Worker ID: A1R959DUXT5S4I
  Assignment ID: 36TFCYNS44AOKB6VTGZR44YE038XHB
  HIT ID: 31KSVEGZ34SKXLHEPEAXR5RSDDIRWM
  Work Time: 58s
  Worker Score: 0.8976
 END ANNOTATION -->
 <g display="inline">
  <title>Layer 1</title>
  <path t="0,139,140,140,153,153,153,153,153,153,170,170,170,171,171,171,172,172,188,188,190,190,190,191,191,191,191,202,202,203,203,203,203,203,203,203,217,218,218,219,220,220,220,220,221,234,234,234,234,234,235,235,235,235,250,251,251,251,252,252,253,253,253,265,266,266,266,267,267,267,267,267,281,282,283,283,283,284,284,285,285,298,298,298,299,299,299,299,299,299,313,314,314,315,315,316,317,317,318,329,330,330,330,331,331,331,331,331,343,344,345,345,346,346,347,348,348,362,362,364,364,364,365,365,365,365,379,380,380,380,381,382,383,383,383,397,398,398,398,399,399,400,400,400,415,415,416,416,416,417,417,417,418,427,428,429,430,432,433,433,433,434,443,443,443,444,444,444,445,445,445,460,462,462,463,463,463,464,464,464,476,481,482,482,483,483,483,489,490,498,499,499,500,502,502,505,506,507,508,509,509,519,520,521,521,522,522,522,522,535,536,536,536,537,537,538,539,540,550,551,552,552,553,553,553,554,554,567,568,568,569,570,571,571,572,573,582,583,584,584,585,585,586,586,587,599,600,600,601,601,602,603,604,605,617,617,618,618,619,619,619,620,620,630,631,632,632,633,633,634,634,635,647,648,648,649,649,649,650,651,652,662,663,664,664,664,665,665,666,666,678,679,679,680,681,682,683,684,684,694,694,695,695,696,696,697,697,698,709,710,711,711,712,713,714,714,715,724,725,726,726,727,727,728,729,730,741,742,743,744,744,745,746,746,747,756,757,758,758,759,760,761,761,762,772,773,774,774,775,775,776,777,778,789,790,791,791,792,793,794,794,795,804,805,806,806,807,820,821,836,852,853,854,868,869,870,884,885,899,901,915,916,917,931,933,934,947,948,964,965,966,979,981,996,997,998,998,1012,1013,1030,1031,1043,1044,1058,1059,1074,1090,1091,1106,1216,1233,1249,1264,1265,1281,1296,1297,1312,1359,1518,1519,1550,1788,1789,1804,1805,1806,1821,1822,1823,1836,1837,1838,1839,1853,1854,1855,1869,1871,1872,1885,1886,1888,1889,1900,1901,1902,1916,1918,1919,1919,1931,1933,1934,1948,1950,1951,1952,1953,1954,1963,1965,1966,1967,1968,1981,1982,1983,1984,1985,1986,1998,1999,2000,2001,2002,2003,2004,2013,2015,2016,2016,2017,2018,2018,2019,2031,2032,2034,2035,2036,2037,2038,2044,2045,2047,2048,2049,2050,2051,2059,2060,2061,2062,2063,2064,2065,2075,2077,2078,2079,2080,2081,2092,2093,2095,2096,2097,2097,2098,2109,2111,2112,2113,2125,2126,2128,2129,2130,2139,2141,2142,2158,2160,2161,2162,2175,2176,2177,2186,2187,2201,2203,2217,2219,2220,2233,2249,2251,2252,2265,2267,2268,2281,2283,2284,2285,2296,2298,2299,2300,2313,2315,2316,2317,2318,2319,2329,2330,2332,2333,2335,2336,2337,2346,2348,2349,2350,2351,2352,2353,2364,2366,2367,2368,2369,2371,2372,2373,2374,2383,2384,2386,2387,2388,2389,2390,2391,2393,2400,2402,2403,2404,2405,2408,2409,2410,2417,2419,2421,2422,2424,2425,2426,2431,2432,2434,2435,2437,2438,2440,2441,2448,2449,2450,2451,2452,2456,2458,2459,2461,2471,2473,2474,2487,2504,2505,2520,2537,2539,2552,2554,2567,2569,2583,2599,2601,2602,2616,2618,2619,2632,2634,2647,2649,2650,2652,2654,2664,2666,2667,2669,2670,2680,2683,2685,2686,2687,2689,2695,2697,2698,2700,2701,2702,2704,2705,2706,2714,2716,2717,2719,2720,2722,2725,2727,2735,2737,2741,2743,2744,2746,2747,2749,2759,2761,2762,2763,2764,2765,2767,2768,2774,2775,2777,2779,2780,2782,2783,2791,2793,2794,2795,2797,2798,2803,2804,2806,2808,2810,2812,2819,2821,2822,2827,2829,2830,2840,2855,2857,2869,2871,2873,2885,2887,2888,2902,2904,2906,2917,2919,2932,2934,2936,2948,2950,2951,2968,2982,2984,2996,2998,3000,3012,3014,3015,3017,3018,3031,3033,3035,3037,3044,3046,3048,3050,3052,3054,3062,3064,3065,3067,3069,3070,3076,3078,3080,3082,3084,3085,3087,3094,3096,3098,3099,3101,3102,3108,3110,3112,3114,3116,3124,3126,3128,3129,3131,3132,3139,3141,3143,3145,3147,3149,3157,3159,3160,3162,3164,3171,3174,3175,3177,3179,3187,3189,3191,3193,3205,3207,3209,3220,3222,3236,3252,3255,3256,3268,3282,3284,3297,3300,3317,3319,3331,3333,3345,3348,3363,3366,3368,3381,3384,3386,3394,3396,3398,3400,3410,3412,3413,3415,3426,3427,3429,3431,3433,3435,3443,3445,3447,3448,3457,3459,3462,3464,3465,3467,3475,3477,3478,3480,3482,3489,3491,3494,3496,3497,3499,3507,3509,3511,3513,3514,3516,3519,3521,3529,3532,3535,3537,3540,3542,3544,3546,3555,3557,3559,3561,3563,3566,3568,3577,3580,3583,3586,3588,3590,3592,3593,3599,3601,3603,3606,3608,3610,3612,3615,3617,3624,3626,3628,3631,3633,3635,3637,3638,3640,3647,3649,3651,3654,3656,3658,3660,3662,3665,3672,3674,3676,3678,3680,3682,3684,3686,3688,3699,3701,3703,3706,3708,3710,3713,3718,3720,3723,3726,3734,3736,3738,3900,3902,3916,3918,3920,3922,3924,3927,3929,3931,3940,3942,3944,3947,3950,3952,3954,3956,3958,3967,3970,3972,3974,3976,3980,3983,3985,3987" d="m213,306c2.40401,-2.39999 3.04459,-3.02393 3.5715,-3.39999c0.89981,-0.64221 1.68202,-1.00949 2.54716,-1.41068c0.46266,-0.21454 1.45305,-0.64413 1.97067,-0.87466c1.63617,-0.72873 2.20099,-1.00073 2.78583,-1.27182c0.60315,-0.27957 1.22749,-0.56711 1.8795,-0.85352c0.67696,-0.29736 1.38123,-0.60822 2.912,-1.18933c0.81631,-0.30991 1.6781,-0.60562 2.5755,-0.91351c0.93324,-0.32019 1.9046,-0.64624 2.90849,-0.99448c1.03983,-0.36069 2.1189,-0.72653 4.34933,-1.59201c1.16858,-0.45346 2.35648,-0.95007 3.5625,-1.47601c1.22742,-0.53528 2.46181,-1.10001 3.69749,-1.69199c1.24271,-0.59534 2.48561,-1.19824 4.90668,-2.49866c1.19649,-0.64267 2.36264,-1.31204 3.519,-1.96802c1.14232,-0.64801 2.26807,-1.29047 3.39301,-1.896c1.10788,-0.59634 2.19281,-1.20346 4.42133,-2.13599c1.08783,-0.4552 2.19266,-0.82202 3.29099,-1.14752c1.08328,-0.32104 2.16547,-0.58994 3.23703,-0.83249c1.05585,-0.23898 2.10184,-0.44406 4.13864,-0.85333c0.98993,-0.19891 1.95825,-0.39713 2.901,-0.60449c0.91858,-0.20206 1.80908,-0.40955 2.66702,-0.6315c0.82941,-0.21457 1.63202,-0.41763 3.09866,-0.93066c0.686,-0.23996 1.32846,-0.51028 1.93799,-0.78601c0.58777,-0.2659 1.14661,-0.54483 1.686,-0.82199c0.52591,-0.27023 1.03247,-0.5509 2.04266,-1.05869c0.4975,-0.25006 0.99817,-0.48373 1.49551,-0.71399c0.49332,-0.22839 0.98456,-0.45068 1.46848,-0.67801c0.47977,-0.22537 0.95953,-0.44217 1.86935,-0.94131c0.44983,-0.2468 0.88483,-0.51529 1.314,-0.7905c0.42953,-0.27545 0.85327,-0.56281 1.27798,-0.85352c0.42795,-0.29294 0.85486,-0.59631 1.74133,-1.18933c0.45276,-0.30289 0.91678,-0.60089 1.38602,-0.89999c0.47208,-0.3009 0.94763,-0.59955 1.422,-0.89999c0.47296,-0.29956 0.94547,-0.59369 1.85867,-1.20001c0.44769,-0.29724 0.88638,-0.60114 1.323,-0.909c0.44077,-0.31079 0.88574,-0.63208 1.341,-0.96301c0.47009,-0.34171 0.95633,-0.70004 2.00266,-1.46133c0.56378,-0.41022 1.15421,-0.83661 1.767,-1.27649c0.62988,-0.45215 1.27414,-0.91174 1.92902,-1.37549c0.65979,-0.46725 1.32025,-0.93549 2.63733,-1.84802c0.64447,-0.44653 1.28201,-0.88367 1.923,-1.30048c0.63641,-0.41385 1.28018,-0.81268 1.94098,-1.18352c0.66464,-0.37297 1.34079,-0.74948 2.80267,-1.34933c0.75665,-0.31047 1.55405,-0.57227 2.37601,-0.8145c0.83942,-0.24738 1.70541,-0.46483 2.59198,-0.6615c0.90079,-0.19983 1.81845,-0.38684 3.69867,-0.69066c0.95343,-0.15407 1.91818,-0.2852 2.8905,-0.4095c0.97836,-0.12506 1.96344,-0.23854 2.95352,-0.34651c0.99356,-0.10835 1.9906,-0.21004 3.98932,-0.41066c0.99997,-0.10037 2,-0.2 3,-0.3c1,-0.09999 2,-0.2 3,-0.3c1,-0.09999 2,-0.2001 4,-0.39999c0.99951,-0.0999 1.99591,-0.19974 2.98651,-0.2955c0.98138,-0.09488 1.95081,-0.18588 2.90549,-0.26849c0.93631,-0.08101 1.85123,-0.16248 3.608,-0.26933c0.83484,-0.05078 1.64124,-0.08446 2.41949,-0.10951c0.75107,-0.02417 1.47632,-0.03822 2.17651,-0.04649c0.67612,-0.008 1.32932,-0.00983 2.57065,-0.01067c0.59,-0.0004 1.16,0.00029 1.71002,-0.0045c0.53003,-0.00461 1.0401,-0.01288 1.53,-0.03149c0.47012,-0.01785 0.92191,-0.03146 1.75998,-0.13068c0.39142,-0.04634 0.76334,-0.11397 1.11902,-0.18599c0.34299,-0.06944 0.67267,-0.1474 0.99298,-0.222c0.31235,-0.07274 0.6163,-0.15433 1.22134,-0.25867c0.29929,-0.05161 0.60223,-0.08661 0.909,-0.10951c0.63196,-0.04718 1.30533,-0.05313 2.42435,-0.05716c0.84,-0.00302 1.76031,-0.0144 2.25,-0.04167c1.04089,-0.05795 1.59619,-0.09142 3.36066,-0.401c0.63721,-0.1118 1.297,-0.26427 1.992,-0.40799c0.73032,-0.15102 1.50003,-0.30627 2.31601,-0.444c0.86133,-0.14537 2.7471,-0.38281 3.77731,-0.46234c1.0845,-0.08371 2.22247,-0.13519 3.40802,-0.17099c1.22913,-0.03711 2.49863,-0.05374 3.80399,-0.063c1.33731,-0.00948 4.09201,-0.009 5.50183,-0.009c1.42883,0 2.87567,0 4.33951,0c1.47983,0 2.97467,0 4.48349,0c1.52185,0 4.60049,0 6.15485,0c1.56033,0 3.12265,0 4.68298,0c1.55435,0 3.09866,0 4.629,0c1.51233,0 4.46701,0 5.90167,0c1.40268,0 2.77133,0 4.104,0c1.29468,0 2.54935,0 3.76199,0c1.16867,0 3.366,0 4.39117,0c0.97617,0 1.90433,0 2.78549,0c0.83517,0 1.62534,0 2.37152,0c0.70316,0 1.9845,0 2.56497,0c0.54352,0 1.05301,0 1.53152,0c0.4505,0 0.87598,0 1.27948,0c0.38452,0 1.10852,0.0005 1.45401,-0.00017c0.3385,-0.00066 0.67303,-0.00237 1.0065,-0.0105c0.33557,-0.00818 0.67621,-0.02228 1.02451,-0.04649c0.35974,-0.02501 1.12393,-0.10634 1.53299,-0.16434c0.427,-0.06053 0.8674,-0.13348 1.31851,-0.21451c0.4599,-0.0826 0.92429,-0.17313 1.3905,-0.26849c0.46579,-0.09529 1.38156,-0.29523 1.827,-0.39534c0.43857,-0.09857 0.87253,-0.19777 1.30649,-0.28949c0.43509,-0.09196 0.87527,-0.17892 1.32449,-0.25351c0.4588,-0.07617 1.42316,-0.19466 1.93335,-0.23599c0.5285,-0.04282 1.07568,-0.07249 1.6395,-0.10651c0.57986,-0.03497 1.17508,-0.07117 1.78351,-0.1245c0.62228,-0.05455 1.90164,-0.21677 2.55566,-0.33284c0.66742,-0.11845 1.34442,-0.26216 2.03549,-0.40799c0.70529,-0.14882 1.42429,-0.30403 2.1615,-0.444c0.75217,-0.14281 2.31348,-0.38171 3.12418,-0.46234c0.82675,-0.08223 1.67105,-0.13486 2.52899,-0.17099c0.86942,-0.03662 1.7493,-0.0537 2.63699,-0.063c0.89365,-0.00937 2.69101,-0.009 3.59067,-0.009c0.89767,0 1.79135,0 2.67902,0c0.87967,0 1.74933,0 2.60699,0c0.84366,0 2.48099,0 3.27133,0c0.77234,0 1.52866,0 2.271,0c0.73035,0 1.45068,0 2.16299,0c0.70633,0 2.10901,0 2.80902,0c0.69998,0 1.39999,0 2.09998,0c0.70001,0 1.40002,0 2.10001,0c0.70001,0 2.10001,-0.00101 2.79953,0.00034c0.69647,0.00133 1.38702,0.00449 2.06848,0.021c0.66962,0.01624 1.32452,0.04276 1.96051,0.093c0.61615,0.04868 1.7738,0.20813 2.30682,0.32834c0.50977,0.11497 0.99036,0.25746 1.44598,0.40799c0.43701,0.14438 0.85028,0.29965 1.24799,0.444c0.38098,0.13829 1.10132,0.38301 1.44904,0.46234c0.65558,0.14955 1.57483,0.22935 2.13501,0.24033c1.22473,0.02399 2.05286,-0.01514 2.93396,0.35533c0.95636,0.40211 1.59882,0.62811 2.43933,0.64601c0.99713,0.02124 1.81335,0.00133 2.62933,0.00133c0.99866,0 1.87341,-0.01297 2.88403,0.00017c0.80017,0.01039 1.80328,0.15617 2.40448,0.35249c0.8576,0.28003 1.81439,0.55307 2.62085,0.61134c0.8205,0.05928 1.85315,0.036 2.75385,0.036c1.02081,0 1.8208,-0.00359 2.62079,0c1.00452,0.0045 1.66852,-0.01926 2.82135,0.44267c0.55017,0.22046 1.33649,0.74161 1.89465,0.98933c1.19562,0.53064 1.87354,0.53865 2.88385,0.56816c0.96442,0.02818 1.78772,0.20734 2.55286,0.70433c0.74017,0.48079 1.3833,0.98946 2.362,1.21017c0.96478,0.21758 1.83319,0.00313 2.44934,0.696c0.58502,0.65781 0.9848,1.33574 1.836,1.81467c0.72681,0.40895 1.48529,0.57399 2.42529,0.57466c1.008,0.00072 2.73871,0.97467 2.73871,0c0,-0.06403 -1.23584,0.81239 -0.56403,1.2375c0.39771,0.25168 1.00012,0.09583 1,0.98383c-0.00018,0.97884 0.02039,1.81462 -0.17065,2.464c-0.30396,1.03326 -0.68854,1.55869 -1.23834,2.41916c-0.5777,0.90414 -0.98041,1.50027 -1.39099,2.07419c-0.58508,0.81787 -1.38184,1.70206 -2,2.15997c-0.58374,0.43243 -1.40564,0.97647 -2.01068,1.49734c-0.6524,0.56168 -1.35803,1.16144 -2.13751,1.76849c-0.53235,0.41461 -1.34552,1.03152 -1.909,1.81683c-0.54639,0.76141 -0.69287,1.38965 -1.30951,2.41202c-0.4455,0.73859 -1.03961,1.36026 -1.43463,1.76532c-0.79254,0.81265 -1.44037,1.44299 -1.91302,1.91568c-0.81897,0.819 -1.45129,1.45886 -2.15765,2.13632c-0.36707,0.35205 -1.12866,1.05405 -1.53064,1.38135c-1.17346,0.95538 -1.59851,1.19757 -2.38672,1.728c-0.77716,0.52298 -1.55823,1.05856 -2.24396,1.73999c-0.72174,0.71719 -1.01685,1.16306 -1.70837,2c-0.35254,0.42664 -1.07599,1.29172 -1.95831,2c-0.4469,0.35873 -1.46704,0.94208 -2.008,1.20267c-0.55011,0.26498 -1.70587,0.74014 -2.29602,0.97867c-1.19666,0.48361 -1.7981,0.73563 -3.00049,1.27133c-0.60712,0.27048 -1.21545,0.54926 -1.83148,0.82199c-0.6203,0.27463 -1.23651,0.57471 -3.18536,1.30368c-0.65851,0.24634 -1.32977,0.46481 -2.00397,0.67499c-0.67322,0.20984 -1.34717,0.40814 -2.02203,0.58502c-1.97986,0.51895 -2.63055,0.64218 -3.26599,0.77765c-0.62463,0.13318 -1.8454,0.38202 -2.44,0.50934c-0.58539,0.12537 -2.28186,0.5347 -2.82532,0.69598c-1.07263,0.31833 -1.59583,0.50464 -2.12134,0.67868c-1.05231,0.34851 -1.57544,0.54742 -3.2215,0.97849c-0.56113,0.14694 -1.13385,0.2735 -2.29935,0.50067c-0.58893,0.11481 -1.18329,0.21854 -2.97916,0.52084c-0.59937,0.10089 -1.19754,0.19293 -2.36801,0.41068c-0.57025,0.10608 -1.66455,0.33115 -2.17599,0.47467c-1.40421,0.39404 -2.19138,0.76761 -2.93515,1.09381c-0.71967,0.31564 -1.84943,0.71414 -2.6875,0.85019c-0.43216,0.07016 -1.3121,0.142 -2.17084,0.16165c-1.16223,0.02661 -2.10001,0.009 -2.9025,0.009c-1.09335,0 -1.728,0 -2.76001,0c-0.69467,0 -1.957,0 -2.728,0c-0.66299,0 -1.672,0 -2.47202,0c-1.00015,0 -1.82083,0 -2.96664,0c-0.77701,0 -1.53601,0 -2.58133,0c-0.91635,0 -1.54935,-0.00067 -2.57068,0c-0.99866,0.00067 -1.70532,-0.00876 -2.45068,0.08533c-1.20697,0.15234 -1.89362,0.34412 -2.616,0.52533c-0.7337,0.18405 -1.78897,0.50613 -2.81067,0.77869c-0.69833,0.18628 -1.45517,0.35587 -2.76849,0.4895c-0.49045,0.04993 -1.54373,0.10281 -2.09799,0.142c-1.15155,0.08139 -1.74673,0.11395 -2.9375,0.3125c-1.20633,0.20114 -1.80093,0.37274 -2.39999,0.52798c-0.60098,0.15576 -1.79907,0.49402 -2.39999,0.65601c-1.19815,0.323 -2.40341,0.60147 -3.01352,0.73001c-0.61792,0.13019 -1.24884,0.25336 -2.55798,0.50531c-0.68445,0.13171 -2.12878,0.41272 -2.89285,0.56866c-0.79059,0.16135 -1.60257,0.33179 -2.43298,0.50403c-0.84424,0.17511 -1.69824,0.35141 -2.55902,0.52197c-0.86188,0.17078 -2.57648,0.48904 -3.42181,0.63135c-0.83334,0.14029 -1.6557,0.26855 -2.46451,0.396c-0.79486,0.12521 -1.57526,0.24725 -2.3385,0.37799c-0.74741,0.12802 -2.18683,0.40814 -2.87582,0.56866c-0.67371,0.15695 -1.32935,0.32889 -1.97101,0.50403c-0.63101,0.17224 -1.24814,0.35852 -2.46933,0.69064c-1.20023,0.32642 -1.80164,0.46869 -2.40533,0.59866c-1.21603,0.26184 -1.8385,0.3674 -2.46933,0.47467c-0.64185,0.10913 -2.66116,0.41202 -3.37018,0.5105c-0.72165,0.10022 -1.44946,0.19717 -2.17648,0.28952c-0.71866,0.09128 -1.42221,0.17877 -2.10452,0.25348c-1.84229,0.20169 -2.36877,0.24673 -3.29547,0.30002c-0.79752,0.04584 -1.86002,0.05951 -2.90253,0.05701c-0.72699,-0.00174 -1.46164,0.02371 -2.50949,-0.08517c-0.93109,-0.09674 -1.67435,-0.37619 -2.48132,-0.63068c-0.9751,-0.30753 -1.97202,-0.284 -2.83533,-0.284c-0.90002,0 -1.81934,0 -2.65268,0c-0.97882,0 -1.80984,0 -2.76666,0c-0.71249,0 -1.73334,0 -2.73334,0c-0.79733,0 -1.55634,0 -2.57849,0c-0.68552,0 -1.52017,0 -2.535,0c-0.69452,0 -1.88651,-0.00351 -2.64117,0.00134c-0.84268,0.00543 -1.74176,0.02698 -2.20166,0.05582c-1.37866,0.08646 -2.26364,0.20947 -3.11835,0.3895c-0.85507,0.18008 -1.28488,0.2933 -2.59198,0.72c-0.92917,0.30331 -1.4071,0.49448 -2.4375,0.85419c-0.54977,0.19193 -1.12097,0.41043 -3.0625,0.97916c-0.716,0.20975 -1.46979,0.40225 -2.2485,0.59549c-0.79596,0.19751 -1.60507,0.38632 -2.41949,0.56851c-0.81128,0.18149 -1.61346,0.3566 -3.16534,0.66934c-0.73511,0.14813 -1.44528,0.28296 -2.133,0.414c-0.66962,0.12759 -1.32587,0.25006 -1.97101,0.37799c-1.27838,0.25351 -2.56342,0.53812 -3.2175,0.69617c-0.66461,0.16058 -1.33643,0.33279 -2.0145,0.5145c-1.37625,0.36884 -2.06876,0.56769 -2.76532,0.76532c-1.39917,0.397 -2.09879,0.59738 -2.79602,0.80002c-0.69409,0.20172 -1.38321,0.40332 -2.061,0.61951c-1.33115,0.42456 -1.9798,0.64243 -3.20831,1.14581c-0.59479,0.24371 -1.71896,0.7771 -2.26135,1.03735c-0.53027,0.25443 -1.55475,0.74985 -2.06934,0.94131c-1.48154,0.55127 -2.00064,0.62323 -3.01334,0.75735c-0.50876,0.06738 -1.54675,0.13724 -2.07465,0.17865c-1.63644,0.12839 -2.1954,0.19705 -3.30801,0.34399c-0.54453,0.07193 -1.58191,0.22623 -2.06665,0.29068c-1.59824,0.21252 -2.20624,0.26465 -3.22,0.28265c-1.00253,0.01782 -1.79916,0.00134 -2.55066,0.00134c-1.108,0 -1.936,0 -2.79019,0c-0.97916,0 -1.83334,-0.11002 -2.57916,0.25601c-0.89651,0.43997 -1.38531,1.28214 -1.85715,1.68597c-0.90225,0.77222 -1.77872,0.87494 -2.47586,1.15884c-0.87061,0.35455 -1.11154,1.3725 -1.92166,2.01517c-0.61658,0.48911 -1.23557,0.57959 -2.22366,1.20502c-0.70129,0.44391 -1.22839,1.2601 -2.29633,1.18164c-0.858,-0.06305 -1.646,-0.51132 -2.62534,-0.50266c-0.8219,0.00726 -1.54782,0.10104 -2.64282,0.66415c-0.69092,0.35532 -1.37723,0.85791 -1.74252,1.09586c-0.73041,0.47577 -1.78244,1.12097 -2.47098,1.43015c-1.0256,0.46051 -1.79788,0.69385 -2.64368,0.9765c-0.95416,0.31888 -1.46573,0.48999 -2.54166,0.83334c-0.55371,0.1767 -1.10938,0.366 -2.79169,0.83334c-0.54367,0.15103 -1.61249,0.41202 -2.14133,0.51999c-1.04791,0.21396 -1.57449,0.3165 -3.19199,0.48001c-0.55371,0.05597 -1.68591,0.11252 -2.25867,0.13065c-0.57458,0.01819 -1.72202,0.03287 -2.29068,0.03467c-1.66251,0.00528 -2.19867,0.00134 -3.24799,0.00134c-0.51517,0 -1.53152,0 -2.03467,0c-1.50134,0 -2.50134,0 -3.00134,0c-1,0 -1.5,0 -3,0c-1.00134,0 -1.50449,0 -2.52084,0c-0.51517,0 -1.56448,0 -2.64581,0c-1.116,0 -1.68152,0 -2.24802,0c-1.12399,0 -1.67551,0 -3.25198,0c-0.964,0 -1.42351,0 -2.31252,0c-0.86899,0 -2.1875,0 -3.1035,0c-0.4655,0 -1.3965,0 -2.3075,0c-1.2765,0 -2.03783,0 -2.72717,0c-0.91649,0 -1.96117,0 -2.86183,0c-0.61949,0 -1.63708,-0.12503 -2.53549,0.08533c-0.91008,0.2131 -1.81378,0.78366 -2.48618,0.85751c-0.93254,0.10242 -1.92801,0.06287 -2.66316,-0.16418c-0.84198,-0.26004 -1.82262,-0.69354 -2.588,-0.77731c-0.80569,-0.0882 -1.75034,0.07687 -2.77867,-0.004c-0.72391,-0.05692 -1.44955,-0.57275 -2.17999,-1.18268c-0.78391,-0.65457 -1.37898,-1.07629 -2.18933,-1.51016c-0.7905,-0.42325 -1.627,-0.81433 -2.28534,-1.18985c-0.74332,-0.42398 -1.55717,-0.95215 -2.12534,-1.36133c-0.59767,-0.43045 -1.49904,-1.1644 -2.08932,-1.715c-0.61023,-0.56921 -1.21419,-1.18747 -2.10001,-2.20499c-0.30495,-0.35028 -0.89502,-1.08563 -1.5,-1.8125c-0.59514,-0.71506 -0.86346,-1.08847 -1.80034,-1.978c-0.58673,-0.55707 -1.23251,-1.03491 -1.914,-1.49103c-1.1051,-0.73965 -1.95305,-1.23773 -2.39549,-1.5c-0.90707,-0.53766 -1.36551,-0.80991 -2.3075,-1.28247c-0.90677,-0.4549 -1.79405,-0.8132 -2.65733,-1.108c-0.84634,-0.289 -1.28365,-0.39218 -2.59201,-0.828c-0.92415,-0.30783 -1.39801,-0.4873 -2.375,-0.875c-0.50659,-0.20105 -1.54811,-0.63806 -2.625,-1.125c-0.55646,-0.25162 -1.12485,-0.509 -2.26933,-1.09067c-0.58807,-0.29889 -1.17792,-0.61966 -1.76849,-0.96152c-0.60019,-0.34741 -2.39897,-1.51895 -2.99417,-1.9505c-0.60054,-0.43542 -1.19283,-0.88922 -1.7805,-1.3515c-0.58699,-0.46173 -1.16434,-0.93018 -1.73549,-1.39648c-1.12,-0.9144 -1.66281,-1.36243 -2.72818,-2.22549c-0.52066,-0.42178 -1.03613,-0.83658 -1.54649,-1.24652c-0.50597,-0.4064 -2.01144,-1.60968 -2.51083,-2.01132c-0.50194,-0.40369 -1.01491,-0.80505 -2.02066,-1.68268c-0.52072,-0.45438 -1.04533,-0.93619 -1.5645,-1.45798c-1.10077,-1.10632 -1.64099,-1.73975 -2.19734,-2.39603c-0.57082,-0.67334 -1.13475,-1.37247 -1.6965,-2.0835c-0.56226,-0.71167 -1.11143,-1.42532 -1.65149,-2.12848c-1.03687,-1.35004 -1.52806,-1.98657 -2.00267,-2.60535c-0.46704,-0.60892 -0.93089,-1.21957 -1.3875,-1.84949c-0.47021,-0.64871 -0.95085,-1.33365 -1.43251,-2.07452c-1.06717,-1.64151 -1.61455,-2.58917 -2.196,-3.59067c-0.60406,-1.04047 -1.20702,-2.11105 -1.80899,-3.189c-0.59534,-1.06604 -1.168,-2.10672 -1.71901,-3.099c-0.98694,-1.77734 -1.41187,-2.52966 -1.79733,-3.18933c-0.34094,-0.58347 -0.6514,-1.09625 -0.942,-1.54498c-0.26189,-0.40436 -0.51176,-0.76801 -0.76199,-1.095c-0.47633,-0.62247 -0.74176,-0.91382 -1.00267,-1.21335c-0.26175,-0.30048 -0.52779,-0.59573 -0.77699,-0.89999c-0.48479,-0.59186 -1.10933,-1.47778 -1.37466,-2.39999c-0.16948,-0.58905 -0.20399,-1.50836 -0.451,-2.69601c-0.11998,-0.57684 -1.06038,-1.7598 -0.49333,-2.40414c0.42346,-0.4812 1.94398,-0.1666 2.4285,-0.22119c1.16698,-0.13153 1.84323,-0.20654 2.578,-0.27866c0.78923,-0.07745 1.63048,-0.15436 2.5215,-0.216c1.91501,-0.13248 2.93597,-0.16858 3.99733,-0.19598c1.10301,-0.0285 2.24937,-0.03781 3.4395,-0.02551c1.23526,0.01276 2.51685,0.04471 3.8445,0.1095c2.80264,0.13678 4.27536,0.26199 5.78667,0.40268c1.54111,0.14346 3.09734,0.32932 4.66051,0.52948l1.55817,0.22519l1.54216,0.25116l1.51517,0.27817" id="svg_1" stroke-width="2" stroke="#000" fill="none"/>
  <path t="4510,4694,4694,4694,4694,4712,4712,4712,4712,4712,4728,4729,4729,4729,4729,4729,4729,4729,4743,4743,4743,4743,4743,4743,4743,4743,4743,4758,4759,4759,4759,4759,4759,4759,4759,4759,4774,4774,4774,4774,4774,4775,4775,4775,4775,4789,4789,4790,4790,4790,4790,4790,4790,4790,4796,4796,4796,4796,4796,4796,4797,4797,4797" d="m207,254c1.77066,1.14 2.27274,1.73274 2.82133,2.40668c0.28804,0.35385 1.17668,1.42841 1.77867,2.112c0.59802,0.67908 0.92224,1.00513 1.5,1.74832c0.93692,1.20517 1.20317,1.69595 1.50533,2.189c0.6427,1.04874 0.97237,1.61011 1.33867,2.17599c0.37888,0.5853 0.76472,1.19794 1.72267,2.36801c0.50276,0.61411 1.06837,1.20761 1.66649,1.79999c0.61378,0.60791 1.26627,1.20538 1.94551,1.80002c0.69171,0.60553 1.40535,1.20819 2.888,2.39999c0.75165,0.60419 1.51814,1.20239 2.295,1.79999c0.78314,0.60242 1.57823,1.20239 2.38499,1.80002c0.81323,0.60242 1.6349,1.20715 3.32001,2.39999c0.85226,0.6033 1.71617,1.20099 2.5905,1.79099c0.87636,0.59137 1.76035,1.17255 2.65349,1.73703c0.89058,0.56287 1.77829,1.12311 3.58934,2.13864c0.89435,0.5015 1.80045,0.96973 2.709,1.42801c0.91013,0.45908 1.83232,0.90604 2.763,1.35599c0.94199,0.45541 1.90363,0.90732 3.86133,1.88269c1.0106,0.50351 2.0249,1.02762 3.03601,1.55399c0.99687,0.51895 1.96399,1.02933 2.89198,1.51801l0.87601,0.46066l0.81201,0.42468" id="svg_2" stroke-width="2" stroke="#000" fill="none"/>
  <path t="5456,5536,5537,5537,5552,5552,5552,5552,5552,5570,5571,5571,5586,5586,5587,5587,5601,5602,5621,5621,5621,5621,5633,5633,5649,5649,5649,5649,5665,5665,5666,5666,5681,5682,5683,5683,5683,5684,5696,5697,5697,5697,5698,5698,5698,5698,5714,5715,5715,5715,5715,5715,5715,5715,5715,5727,5728,5728,5728,5728,5728,5728,5728,5729,5747,5747,5747,5748,5748,5748,5748,5748,5748,5762,5762,5763,5763,5763,5763,5763,5773,5774,5775,5775" d="m248,257c-2.056,0 -3.0625,0 -3.81351,0c-1.18649,0 -1.98529,-0.0069 -2.77583,0.01068c-0.77489,0.01724 -1.53226,0.0285 -2.58916,0.21082c-0.9939,0.17145 -1.61319,0.38193 -2.8215,0.7785c-0.59853,0.19644 -1.4745,0.46136 -2.22934,0.79999c-0.99367,0.44577 -1.61694,0.91714 -2.53482,1.07852c-0.91246,0.16043 -1.59579,0.11511 -2.26918,0.12015c-1.19862,0.00897 -2.21733,0.0036 -3.29999,0.00134c-0.636,-0.00134 -1.33182,0.01791 -2.052,-0.07199c-1.46005,-0.18231 -2.13425,-0.48782 -2.78934,-0.77869c-0.65433,-0.29053 -1.98494,-0.85153 -2.71733,-0.97867c-0.79158,-0.13742 -1.2327,-0.13962 -2.19833,-0.16165c-0.53757,-0.01227 -2.41718,-0.009 -3.13634,-0.009c-0.75917,0 -1.55333,0 -2.3775,0c-0.84917,0 -1.71832,0 -2.60249,0c-1.79333,0 -2.69333,-0.00082 -3.59334,0.00134c-0.89999,0.00217 -1.80003,0.00684 -2.7,0.0195c-0.90004,0.01266 -1.80022,0.03009 -2.7,0.06448c-1.80052,0.06885 -2.70006,0.1312 -3.59734,0.20132c-0.89407,0.06989 -1.78194,0.15448 -2.661,0.255c-0.87032,0.09955 -1.72879,0.2106 -2.571,0.345c-1.64037,0.26175 -2.42853,0.42862 -3.196,0.59866c-0.74821,0.16577 -1.47217,0.34509 -2.1705,0.53552c-0.67633,0.18442 -1.32617,0.37595 -1.94551,0.58047c-1.16353,0.38425 -1.69662,0.5918 -2.19865,0.80136c-0.47792,0.19949 -0.9292,0.40216 -1.33501,0.63898c-0.75839,0.4426 -1.625,1.29169 -2.06767,1.92502l-0.474,1.01248l-0.21266,0.65836" id="svg_3" stroke-width="2" stroke="#000" fill="none"/>
  <path t="7001,7141,7141,7160,7161,7161,7175,7176,7176,7177,7190,7190,7221,7221,7237,7267,7268,7268,7282,7283,7283,7299,7299,7299,7299,7299,7299,7314,7314,7315,7315,7315,7315,7315,7315,7315,7331,7331,7331,7331,7331,7331,7331,7331,7331,7346,7346,7347,7347,7347,7347,7347,7348,7348,7363,7363,7363,7363,7363,7363,7363,7364,7364,7378,7378,7379,7379,7380,7380,7380,7381,7381,7394,7394,7395,7395,7395,7395,7395,7395,7395,7409,7410,7410,7410,7410,7410,7410,7411,7411,7426,7427,7427,7428,7428,7428,7429,7429,7429,7442,7443,7443,7443,7443,7443,7444,7444,7444,7458,7459,7459,7460,7460,7460,7461,7461,7461,7473,7473,7474,7474,7474,7474,7474,7475,7475,7490,7491,7491,7492,7492,7492,7492,7492,7493,7508,7509,7509,7509,7509,7522,7523,7523,7537,7538,7553,7554,7572,7572,7573,7587,7633,7647,7664,7807,7822,7822,7838,7860,7861,7878,7879,7879,7889,7889,7889,7902,7903,7919,7921,7934,7968,7983,7984,8139,8156,8173,8174,8175,8175,8175,8187,8188,8188,8189,8189,8189,8190,8191,8204,8205,8206,8206,8207,8207,8207,8208,8208,8220,8220,8221,8221,8222,8222,8223,8224,8224,8236,8237,8238,8239,8239,8240,8241,8242,8242,8251,8252,8252,8252,8253,8253,8254,8254,8254,8271,8271,8272,8272,8273,8273,8273,8274,8274,8285,8286,8287,8288,8288,8289,8289,8290,8290,8306,8307,8308,8308,8309,8310,8310,8311,8312,8318,8319,8320,8320,8331,8332,8349,8350,8351,8366,8367,8381,8395,8396,8397,8410,8427,8428,8443,8458,8474,8475,8476,8477,8490,8491,8492,8493,8493,8505,8506,8507,8507,8508,8509,8510,8522,8524,8524,8525,8526,8527,8527,8528,8539,8540,8541,8542,8542,8543,8543,8544,8545,8554,8555,8556,8557,8558,8559,8559,8560,8561,8573,8575,8575,8576,8577,8578,8579,8579,8580,8586,8587,8588,8589,8590,8591,8592,8593,8593,8601,8602,8603,8604,8605,8605,8606,8607,8608,8616,8617,8618,8619,8620,8621,8622,8623,8623,8633,8634,8636,8637,8638,8638,8639,8640,8641,8657,8658,8658,8660,8661,8663,8665,8666,8667,8674,8675,8676,8676,8677,8678,8680,8681,8682,8685,8686,8687,8688,8688,8689,8690,8691,8692" d="m418,276c0.34268,-1.08401 -0.47961,-0.99161 -1.42151,-0.77832c-0.82413,0.18661 -1.40933,0.3811 -2.57849,0.94498c-0.60867,0.29355 -1.16589,0.67044 -1.98566,1.1235c-1.02972,0.56909 -1.79108,0.68481 -2.66251,1.06702c-0.66846,0.29318 -1.1666,1.20071 -1.68518,1.97617c-0.41516,0.62082 -1.11862,1.00607 -1.496,2.07199c-0.23035,0.6506 -0.16931,1.53601 -0.17065,2.68115c-0.0011,0.95569 0,1.4895 0,2.05936c0,1.24365 -0.00031,1.9155 0,3.35416c0.00018,0.76483 -0.00015,1.55869 0.009,2.38049c0.00943,0.84888 0.02722,1.72388 0.06299,2.6235c0.03674,0.92407 0.07373,1.87289 0.26135,3.82935c0.09695,1.01114 0.23163,2.03967 0.3855,3.08548c0.15668,1.06491 0.33817,2.14468 0.53848,3.23853c0.20325,1.10986 0.41867,2.23322 0.90933,4.50931c0.24911,1.15552 0.51462,2.31497 0.7995,3.4725c0.28448,1.15585 0.58618,2.30127 0.9165,3.42752c0.32617,1.11215 0.64413,2.21048 1.45068,4.26666c0.38809,0.98938 0.82596,1.93094 1.28098,2.83798c0.44659,0.89032 0.92084,1.74908 1.40701,2.586c0.48126,0.82843 0.97928,1.63861 1.97867,3.24268c0.49881,0.80063 0.99976,1.5993 1.49551,2.39999c0.4949,0.79935 0.98584,1.59866 1.46848,2.39999c0.48105,0.79871 0.96167,1.59375 1.86935,3.20001c0.45044,0.79712 0.88452,1.59894 1.30499,2.40451c0.41953,0.8038 0.82523,1.61383 1.215,2.43149c0.39026,0.8187 0.77731,1.64203 1.48001,3.33066c0.3541,0.85092 0.68457,1.71527 1.01398,2.58151c0.32925,0.86575 0.65048,1.73181 0.97803,2.59048c0.32513,0.85233 0.63721,1.70114 1.34131,3.328c0.34412,0.79507 0.71344,1.56525 1.08151,2.32352c0.36395,0.74976 0.73386,1.48758 1.09048,2.22449c0.35434,0.73215 0.7197,1.45645 1.328,2.952c0.30466,0.74899 0.56906,1.51474 0.828,2.28152c0.25839,0.76523 0.50232,1.53198 0.75601,2.2905c0.25168,0.7525 0.48413,1.50549 1.08267,2.92798c0.29321,0.69684 0.62662,1.36292 0.97198,2.00552c0.33755,0.62805 0.69022,1.22641 1.04401,1.79849c0.34106,0.55148 0.68115,1.07166 1.31732,2.02933c0.28949,0.43579 0.56174,0.84241 0.81451,1.224c0.23654,0.35709 0.45718,0.69211 0.6615,1.008c0.19196,0.29681 0.37347,0.57614 0.69067,1.10135c0.14728,0.24384 0.28195,0.48041 0.414,0.70499c0.12665,0.21539 0.2496,0.422 0.37799,0.61499c0.12439,0.18701 0.24408,0.3735 0.54132,0.68002c0.14774,0.15234 0.31522,0.28543 0.48602,0.414c0.34314,0.2583 1.21988,0.88956 1.71133,1.578c0.47412,0.66418 0.92676,1.43481 1.52133,2.05865c0.58542,0.61423 1.32883,1.29529 1.948,2.116c0.43372,0.57489 0.92664,1.31033 1.1095,2.23834c0.18033,0.91516 -0.19202,1.91772 0.40982,2.64734c0.48511,0.58807 1.08472,1.04892 1.99918,1.10983c0.88904,0.05923 1.85217,0.00455 2.51965,0.00449c0.89267,-0.00009 1.81628,0.01019 2.48849,-0.03601c1.31009,-0.09006 2.1441,-0.26794 2.78268,-0.57465c0.8732,-0.41937 1.47101,-1.00632 2.33865,-1.58936c0.61334,-0.41214 0.60574,-1.09875 0.60669,-1.99866c0.00079,-0.76663 1.52933,-0.98984 1.89066,-0.19067c0.37537,0.8302 -0.4592,1.5799 -1.07266,2.06c-0.55588,0.43503 -1.30396,0.90747 -1.73666,1.18668c-1.57251,1.01462 -2.19852,1.4007 -2.87317,1.80518c-0.71585,0.42917 -1.47894,0.86719 -2.29352,1.29749c-0.84897,0.44846 -1.7327,0.91599 -3.66931,1.70667c-1.01062,0.41263 -2.0722,0.77335 -3.1665,1.1145c-1.11777,0.34848 -2.26868,0.66547 -3.4455,0.96152c-1.19421,0.30045 -2.40826,0.58743 -4.888,1.09067c-1.25317,0.2543 -2.51926,0.48557 -3.79501,0.7095c-1.28427,0.22543 -2.57956,0.43903 -3.88501,0.64648c-1.31454,0.20889 -2.63953,0.41229 -5.31998,0.81067c-1.35364,0.20117 -2.71036,0.39954 -4.06351,0.591c-1.34152,0.18982 -2.66516,0.37128 -3.96451,0.53699c-1.26633,0.1615 -2.49261,0.32233 -4.80533,0.53867c-1.06949,0.10004 -2.08237,0.16843 -3.039,0.21902c-0.90207,0.04773 -1.75256,0.07626 -2.55301,0.09299c-0.75226,0.01572 -1.45865,0.01999 -2.74133,0.02133c-0.58066,0.00061 -1.12534,0 -1.638,0c-0.48465,0 -0.94531,0 -1.38599,0c-0.42468,0 -0.83734,0 -1.64267,0c-0.39932,0 -0.79468,0 -1.18201,0c-0.37534,0 -0.73465,0 -1.07401,0c-0.31531,0 -0.60266,0 -1.07733,0c-0.18115,0 -0.32932,0 -0.45148,0c-0.10318,0 -0.19434,0 -0.28052,0c-0.08817,0 -0.18533,0 -0.43466,0c-0.16434,0 -0.79733,0 -1.55634,0c-1.02216,0 -1.92282,0 -2.94366,0c-0.79999,0 -1.60001,0 -2.59549,0c-0.74734,0 -1.78986,0 -2.73785,0c-0.66748,0 -1.60416,0 -2.59067,0c-0.92798,0 -1.5762,0.02271 -2.71167,0c-0.80081,-0.01602 -1.47757,-0.65875 -1.78564,-1.32935c-0.26172,-0.5697 -0.52808,-1.25598 -1.12152,-2.41367c-0.45096,-0.8797 -0.72049,-1.32785 -1.24249,-2.27832c-0.26752,-0.48709 -1.05164,-1.9769 -1.29333,-2.479c-0.24097,-0.50058 -0.69843,-1.51996 -0.92133,-2.04132c-0.45767,-1.07053 -0.68262,-1.62958 -1.16666,-2.79169c-0.25412,-0.61014 -0.7908,-1.88538 -1.06934,-2.54932c-0.28516,-0.67972 -0.57568,-1.37427 -0.8685,-2.0835c-0.29785,-0.72141 -0.89661,-2.20007 -1.19601,-2.95618c-0.3046,-0.76923 -0.61224,-1.55765 -0.93149,-2.367c-0.32974,-0.83597 -0.67371,-1.70227 -1.03952,-2.60098c-0.38208,-0.93866 -1.22556,-2.94431 -1.69266,-4.01651c-0.48611,-1.11584 -0.9968,-2.26172 -1.52249,-3.43051c-0.53262,-1.1842 -1.07294,-2.37216 -1.61249,-3.55649c-0.53378,-1.17169 -1.56732,-3.43961 -2.05835,-4.52051c-0.47565,-1.04709 -0.93857,-2.06744 -1.4025,-3.06299c-0.45782,-0.98242 -0.92108,-1.95477 -1.4025,-2.91901c-0.48523,-0.97183 -1.53113,-2.94061 -2.10168,-3.94601c-0.58264,-1.0267 -1.19379,-2.05673 -1.82248,-3.08698c-0.62964,-1.0318 -1.27008,-2.05008 -1.91251,-3.05103c-0.63095,-0.98306 -1.86578,-2.85416 -2.45782,-3.73398c-0.57071,-0.84811 -1.12909,-1.66574 -1.67102,-2.46301c-0.5307,-0.78076 -1.05319,-1.55032 -1.56299,-2.319c-0.50888,-0.7673 -1.51291,-2.33459 -2.00885,-3.14633c-0.50278,-0.82291 -0.99802,-1.66129 -1.48947,-2.508c-0.49219,-0.84796 -0.97562,-1.69812 -1.45352,-2.54401c-0.47278,-0.83682 -1.38977,-2.47241 -1.83548,-3.26184c-0.4343,-0.76923 -0.85855,-1.51648 -1.27502,-2.2395c-0.40359,-0.70065 -0.79767,-1.37604 -1.185,-2.0235c-0.37277,-0.62317 -1.09229,-1.78226 -1.44,-2.31598c-0.3324,-0.51022 -0.65918,-0.99356 -0.97498,-1.45651c-0.30423,-0.44601 -0.60138,-0.87509 -0.88501,-1.29449c-0.27634,-0.4086 -0.79861,-1.2113 -1.03983,-1.61316c-0.23743,-0.39554 -0.45956,-0.78928 -0.66452,-1.17902c-0.19861,-0.37769 -0.37927,-0.74725 -0.53848,-1.10699c-0.15125,-0.34174 -0.39133,-0.97925 -0.47583,-1.271c-0.07776,-0.26849 -0.13312,-0.51923 -0.17102,-0.75c-0.03436,-0.20938 -0.05066,-0.39999 -0.06299,-0.57001l-0.00635,-0.14999" id="svg_4" stroke-width="2" stroke="#000" fill="none"/>
  <path t="13678,14063,14063,14063,14080,14081,14081,14081,14081,14081,14081,14097,14097,14098,14098,14098,14098,14098,14114,14114,14114,14115,14115,14115,14115,14115,14115,14129,14129,14129,14129,14129,14129,14129,14130,14130,14143,14144,14144,14144,14144,14144,14145,14159,14159,14160,14160,14160,14160,14160,14160,14160,14173,14174,14175,14175,14175,14175,14175,14176,14176,14190,14191,14191,14192,14192,14192,14192,14192,14193,14208,14208,14209,14209,14209,14209,14209,14209,14209,14224,14225,14225,14225,14225,14226,14226,14226,14226,14239,14240,14240,14240,14240,14241,14241,14241,14241,14257,14258,14258,14258,14258,14258,14259,14259,14259,14272,14272,14272,14272,14273,14273,14273,14273,14273,14303,14335,14335,14351,14353,14353,14353,14353,14354,14354,14354,14368,14369,14369,14370,14370,14370,14371,14371,14371,14381,14382,14382,14382,14382,14383,14383,14383,14383,14398,14398,14399,14399,14401,14401,14401,14402,14402,14412,14413,14413,14414,14414,14414,14414,14415,14415,14429,14430,14431,14432,14432,14432,14433,14433,14433,14444,14445,14445,14446,14446,14447,14447,14448,14448,14460,14460,14461,14461,14461,14462,14463,14463,14464,14479,14479,14480,14480,14481,14481,14482,14482,14483,14491,14492,14492,14492,14493,14493,14494,14494,14495,14512,14513,14514,14515,14515,14515,14516,14516,14517,14525,14525,14526,14526,14527,14527,14527,14528,14528,14539,14539,14540,14540,14541,14541,14542,14543,14543,14555,14556,14556,14557,14558,14559,14559,14560,14561,14572,14573,14574,14574,14574,14575,14575,14576,14576,14587,14588,14588,14589,14590,14591,14603,14604,14635,14653,14667,14668,14682,14683,14701,14702,14702,14703,14714,14715,14716,14717,14718,14719,14731,14732,14732,14732,14733,14733,14734,14734,14735,14746,14747,14748,14749,14749,14749,14750,14751,14752,14762,14763,14764,14765,14766,14767,14767,14768,14769,14778,14780,14780,14781,14781,14782,14782,14783,14783,14795,14796,14797,14798,14798,14799,14799,14800,14800,14810,14811,14812,14813,14814,14815,14816,14816,14817,14825,14826,14827,14828,14828,14829,14830,14830,14831,14844,14846,14846,14847,14847,14848,14849,14849,14850,14858,14859,14859,14860,14861,14862,14863,14864,14865,14873,14874,14875,14876,14877,14878,14878,14880,14880,14889,14890,14891,14892,14893,14894,14895,14895,14896,14905,14906,14907,14908,14909,14909,14910,14911,14911,14922,14923,14924,14924,14925,14925,14926,14927,14928" d="m313,264c-1.0715,-1.67517 -1.58871,-2.07813 -2.11349,-2.63318c-0.93542,-0.98941 -1.2063,-1.44031 -1.78201,-2.39099c-0.3045,-0.50284 -0.59561,-1.03229 -1.14734,-2.13666c-0.27786,-0.55618 -0.79282,-1.67146 -1.27582,-2.75784c-0.23883,-0.53716 -0.46912,-1.0811 -0.97867,-2.17867c-0.26541,-0.57167 -0.54269,-1.16504 -1.20267,-2.40266c-0.35645,-0.66843 -0.75128,-1.3553 -1.16699,-2.0625c-0.42688,-0.72621 -0.8725,-1.45966 -1.32901,-2.19749c-0.45816,-0.74051 -0.9191,-1.47562 -1.83734,-2.90668c-0.44345,-0.6911 -0.87912,-1.36147 -1.30948,-2.00999c-0.41904,-0.63144 -0.83292,-1.24239 -1.24652,-1.83c-0.40286,-0.57234 -0.78271,-1.14125 -2.01083,-2.65083c-0.39276,-0.48277 -0.80292,-0.94292 -1.62067,-1.86333c-0.41446,-0.46648 -0.84064,-0.93794 -1.2645,-1.43251c-0.89041,-1.03893 -1.33951,-1.60945 -1.80399,-2.20667c-0.48431,-0.62271 -0.97946,-1.2794 -1.49402,-1.965c-0.53613,-0.71437 -1.09076,-1.46143 -1.67398,-2.235c-1.23868,-1.64302 -1.90552,-2.50549 -2.59735,-3.39467c-0.71078,-0.91353 -1.44202,-1.84319 -2.18698,-2.787c-0.75366,-0.95485 -1.51498,-1.91441 -2.27701,-2.877c-1.51532,-1.91417 -2.25992,-2.85989 -2.99734,-3.79599c-0.73123,-0.92824 -1.45743,-1.85031 -2.18399,-2.76451c-0.72412,-0.91113 -1.44907,-1.81927 -2.18399,-2.7195c-1.47543,-1.80727 -2.23505,-2.70284 -2.99869,-3.59866c-0.76337,-0.89549 -1.53091,-1.78226 -2.29648,-2.661c-0.75845,-0.87059 -1.51117,-1.7272 -2.2515,-2.571c-1.43631,-1.63707 -2.12585,-2.42746 -2.79736,-3.196c-0.6528,-0.74713 -1.28726,-1.4725 -1.90948,-2.1705c-0.60318,-0.67662 -1.19012,-1.32948 -1.77451,-1.94551c-1.10971,-1.16982 -1.66165,-1.69827 -2.19867,-2.19865c-0.51453,-0.47945 -1.01797,-0.92395 -1.506,-1.33501c-0.46153,-0.38875 -0.90356,-0.74493 -1.32599,-1.065c-0.75073,-0.56883 -1.09033,-0.7991 -1.40134,-1.00267c-0.28227,-0.18477 -0.54535,-0.34358 -0.7935,-0.474c-0.22815,-0.1199 -0.44609,-0.22063 -0.65849,-0.29399c-0.39909,-0.13783 -0.60304,-0.17145 -0.80135,-0.20401c-0.19312,-0.03171 -0.38116,-0.05153 -0.56099,-0.0645c-0.16954,-0.01224 -0.33072,-0.0507 -0.47101,-0.0195c-0.62164,0.13831 -0.62247,0.76357 -0.39917,-0.04883c0.26704,-0.97153 0.68481,-1.86948 0.90901,-2.409c0.24625,-0.59259 0.52147,-1.23196 0.8235,-1.9155c0.32149,-0.72754 0.66307,-1.49554 1.42932,-3.12801c0.40683,-0.86673 0.8385,-1.76285 1.3125,-2.6805c0.49239,-0.95325 1.02885,-1.93129 1.6275,-2.92351c0.6226,-1.03194 1.27867,-2.10632 2.89333,-4.22932c0.85858,-1.12888 1.81866,-2.24416 2.82901,-3.37201c1.03479,-1.15514 2.12274,-2.30109 3.24301,-3.444c1.12903,-1.15184 2.27621,-2.29211 4.59467,-4.51733c1.14053,-1.09467 2.27731,-2.16289 3.405,-3.20999c1.11234,-1.03285 2.21725,-2.04306 3.315,-3.03c1.08228,-0.97302 2.15182,-1.92947 4.28,-3.76001c1.04053,-0.89499 2.07651,-1.76205 3.09149,-2.61899c0.99701,-0.84175 1.9751,-1.66795 2.9205,-2.49301c0.92554,-0.80774 1.83981,-1.59009 3.48801,-3.22133c0.79413,-0.78596 1.53052,-1.59018 2.23349,-2.38651c0.68491,-0.77588 1.33118,-1.54921 1.9545,-2.3055c0.60562,-0.73477 1.17685,-1.4613 2.31201,-2.808c0.53973,-0.6403 1.07904,-1.24753 1.60498,-1.83749c0.5141,-0.57666 1.02286,-1.13918 1.51501,-1.70251c0.48782,-0.55837 0.98154,-1.10999 1.88,-2.29333c0.4566,-0.60139 0.88754,-1.23495 1.31848,-1.881c0.4371,-0.65528 0.86804,-1.32796 1.30951,-2.007c0.44751,-0.68831 0.88998,-1.39393 1.87201,-2.77866c0.50107,-0.70654 1.03439,-1.40554 1.59448,-2.1c0.56918,-0.7057 1.16928,-1.40637 1.80151,-2.1c0.64404,-0.70657 1.30865,-1.42159 2.77066,-2.8c0.75354,-0.71045 1.54581,-1.40068 2.358,-2.0775c0.81189,-0.67657 1.63577,-1.32663 2.466,-1.9425c0.81198,-0.60234 1.60236,-1.18797 3.17599,-2.14667c0.72556,-0.44202 1.43686,-0.81572 2.11951,-1.1475c0.64703,-0.31448 1.27451,-0.58613 1.8765,-0.8325c0.57443,-0.2351 1.13239,-0.43897 2.17065,-0.85333c0.49164,-0.19621 0.96216,-0.39675 1.41452,-0.5955c0.43698,-0.19199 0.85641,-0.3835 1.26151,-0.5685c0.3912,-0.17867 0.76654,-0.35702 1.49066,-0.66933c0.3432,-0.14802 0.67554,-0.28114 0.99149,-0.405c0.29608,-0.11607 0.57114,-0.21968 0.8205,-0.315c0.22162,-0.08472 0.41833,-0.14642 0.68802,-0.28c0.08295,-0.04109 0.14081,-0.07722 0.14249,-0.1095c0.00119,-0.02303 -0.03781,-0.03884 -0.08249,-0.0465c-0.05374,-0.00922 -0.11334,-0.00999 -0.22668,-0.01067c-0.04565,-0.00027 -0.08533,0 -0.12299,0c-0.03967,0 -0.08533,0 -0.14099,0c-0.06967,0 -0.15735,-0.00025 -0.40268,0c-0.16415,0.00017 -0.35342,0.00009 -0.5625,0.009c-0.22427,0.00956 -0.80453,-0.16695 -1.79434,0.43366c-0.68808,0.41753 -1.07553,1.47106 -0.49649,1.55733c0.99503,0.14826 1.70258,-0.05382 2.74933,0.01067c0.66162,0.04076 1.66623,0.25731 2.31201,0.45734c0.73187,0.22669 1.53012,0.53458 2.69284,1.29683c0.41901,0.2747 1.25345,0.96333 1.70331,1.33933c0.47687,0.39859 1.51138,1.28469 2.72919,2.22917c0.66815,0.51819 1.3934,1.04255 2.1525,1.599c0.79425,0.58221 1.62228,1.18745 2.4675,1.833c0.87329,0.66698 1.78015,1.34763 3.54666,2.90133c0.91415,0.80402 1.80911,1.66962 2.70001,2.5755c0.90939,0.92468 1.80832,1.89628 2.69998,2.9085c0.90854,1.03137 1.82202,2.09314 3.60001,4.34933c0.91068,1.15563 1.80356,2.34957 2.68201,3.5715c0.88431,1.23009 1.74582,2.48367 2.57401,3.7605c0.82654,1.27429 1.64755,2.54701 3.07733,5.168c0.70276,1.28827 1.33743,2.59514 1.9335,3.9045c0.59189,1.30016 1.13953,2.61217 1.65448,3.9315c0.51407,1.31709 1.00745,2.64272 1.91202,5.33067c0.45477,1.35139 0.88513,2.71576 1.30499,4.086c0.42014,1.37111 0.82437,2.74608 1.215,4.12199c0.38937,1.37144 0.77045,2.73859 1.48001,5.45866c0.35049,1.34366 0.68335,2.67982 1.01398,4.005c0.32803,1.31482 0.65054,2.62053 0.97803,3.91499c0.32523,1.28554 0.64267,2.56439 1.34131,5.08c0.34644,1.24741 0.71463,2.48135 1.077,3.7095c0.36029,1.22119 0.72067,2.43465 1.05902,3.6465c0.33627,1.20451 0.68225,2.40053 1.19733,4.81067c0.25555,1.19579 0.4538,2.39755 0.63751,3.5955c0.18292,1.19276 0.34125,2.38371 0.5025,3.5685c0.16043,1.17888 0.29865,2.35527 0.69333,4.66933c0.19565,1.14713 0.42902,2.27887 0.67648,3.39601c0.2446,1.10422 0.50745,2.18823 0.77551,3.252c0.26297,1.04355 0.53311,2.06104 1.048,4.01866c0.24603,0.93536 0.48178,1.84457 0.71848,2.7285c0.23138,0.86407 0.46365,1.71057 0.7095,2.53951c0.24323,0.82008 0.48312,1.63696 1.07202,3.23199c0.29718,0.8049 0.63202,1.60362 0.98099,2.4045c0.35233,0.80852 0.72522,1.61732 1.10699,2.4315c0.38553,0.82217 0.78513,1.64754 1.57867,3.33067c0.40259,0.85393 0.80182,1.72034 1.21799,2.5905c0.42114,0.88054 0.85687,1.76811 1.32602,2.65349c0.47607,0.89844 0.95813,1.8158 2.12265,3.58934c0.59961,0.91321 1.26575,1.80664 1.96652,2.6955c0.71118,0.90207 1.47098,1.78368 2.24548,2.6685l0.79651,0.87883l0.81549,0.87184" id="svg_7" stroke-width="2" stroke="#000" fill="none"/>
 </g>
 <g display="none">
  <title>muse_image</title>
  <image xlink:href="http://farm4.static.flickr.com/3033/2624048094_4ee7c9c656.jpg" id="muse" height="426" width="640" y="27" x="0"/>
 </g>
 <g display="none">
  <title>bbox</title>
  <rect stroke="#f00" fill="none" stroke-width="3" height="113.85586" width="509.44" y="217.61261" x="108.8" id="bbox"/>
 </g>
</svg>
