<svg width="640" height="480" xmlns="http://www.w3.org/2000/svg" xmlns:svg="http://www.w3.org/2000/svg" xmlns:xlink="http://www.w3.org/1999/xlink">
 <!-- Sketchy ANNOTATION
  ImageNet ID: n02691156_10535
  URL: http://farm3.static.flickr.com/2144/2230003421_45623b4388.jpg
  Image Width: 500
  Image Height: 400
  BBox X: 79
  BBox Y: 162
  BBox Width: 312
  BBox Height: 127
  Exposure: 2000ms
  Synset Label: airplane
  Synset ID: n02691156
  Worker Tag: {}
  Sanity Check: 
   Context
   Saved
   Shading
  Comment: 
   {}
  Worker ID: A36ZLJKXCC5REN
  Assignment ID: 3X31TUMD7XMIG64SD8TI1NNKC3VL13
  HIT ID: 3TTPFEFXCTK9ECO52RLZF7Q922RH6E
  Work Time: 46s
  Worker Score: 0.6024
 END ANNOTATION -->
 <g display="inline">
  <title>Layer 1</title>
  <path t="0,111,119,127,135,135,143,144,144,151,151,161,161,161,161,167,167,167,168,177,177,177,183,183,184,184,191,191,191,191,199,199,199,199,206,206,207,215,215,215,222,222,222,230,230,231,238,238,247,247,255,255,263,263,263,271,271,279,280,287,295,296,296,302,302,311,326,334,334,342,350,359,359,366,366,374,382,390,391,398,399,414,414,422,423,431,431,439,447,470,479,495,504,527,543,791,807,807,816,823,823,831,832,839,847,847,847,855,855,863,863,871,872,879,879,887,888,888,888,895,895,896,903,904,904,911,911,911,911,919,920,920,927,927,928,935,936,936,944,944,944,951,951,951,958,958,958,966,967,967,974,975,975,982,983,983,990,990,999,999,999,1006,1006,1007,1015,1015,1015,1022,1022,1023,1030,1031,1031,1031,1038,1039,1046,1047,1054,1054,1055,1063,1063,1063,1070,1070,1079,1079,1087,1087,1097,1103,1103,1112,1119,1128,1128,1135,1136,1143,1151,1151,1159,1167,1183,1191,1207,1207,1223,1463,1471,1472,1479,1479,1487,1487,1495,1495,1503,1503,1511,1512,1519,1519,1519,1527,1528,1535,1535,1535,1536,1543,1544,1544,1545,1551,1551,1551,1559,1560,1560,1561,1567,1567,1568,1568,1575,1576,1576,1577,1583,1583,1584,1584,1591,1592,1592,1593,1593,1593,1599,1599,1600,1600,1601,1601,1607,1608,1608,1609,1615,1615,1616,1623,1624,1625,1631,1631,1632,1632,1639,1640,1640,1641,1647,1647,1648,1655,1656,1656,1657,1663,1663,1664,1665,1665,1671,1672,1672,1673,1679,1680,1680,1681,1687,1687,1688,1688,1688,1695,1695,1695,1696,1703,1703,1703,1704,1711,1711,1711,1712,1712,1720,1720,1721,1721,1721,1727,1727,1728,1728,1728,1736,1736,1743,1743,1753,1753,1759,1759,1759,1767,1767,1775,1775,1783,1783,1783,1791,1798,1799,1807,1807,1815,1823,1823,1823,1830,1831,1839,1839,1847,1847,1855,1855,1862,1863,1871,1871,1879,1879,1887,1887,1887,1894,1895,1903,1911,1911,1911,1919,1919,1926,1927,1935,1935,1950,1951,1966,2255,2271,2272,2290,2296,2311,2319,2327,2343,2383,2415,2423,2431,2447,2454,2455,2471,2487,2510,2527,2591,2767,2775,2783,2791,2799,2807,2808,2815,2816,2823,2824,2824,2831,2831,2832,2839,2840,2847,2847,2848,2855,2856,2857,2858,2863,2863,2864,2871,2872,2873,2879,2880,2880,2887,2888,2894,2895,2895,2903,2903,2910,2911,2919,2926,2927,2935,2935,2942,2958,2959,2974,2975,2985,2986,2991,3002,3007,3016,3032,3033,3047,3055,3071,3095,3111,3159,3223,3279,3287,3311,3327,3367,3392,3591,3592,3617,3631,3641,3647,3656,3663,3679,3679,3687,3688,3695,3703,3711,3712,3718,3727,3735,3735,3743,3751,3759,3766,3767,3775,3776,3783,3783,3792,3799,3799,3807,3808,3815,3823,3824,3831,3839,3840,3841,3847,3847,3855,3856,3863,3864,3865,3871,3872,3879,3879,3887,3888,3889,3895,3896,3904,3905,3905,3906,3911,3911,3920,3920,3921,3927,3927,3936,3952,3967,3975,3975,3982,3991,3991,3998,3999,4007,4014,4015,4023,4030,4031,4039,4039,4046,4047,4055,4055,4062,4063,4071,4071,4078,4079,4087,4087,4094,4095,4103,4103,4104,4110,4111,4119,4119,4126,4127,4135,4135,4142,4151,4151,4158,4159,4167,4167,4174,4175,4176,4183,4190,4191,4199,4199,4206,4207,4216,4223,4238,4239,4248,4264,4271,4302,4319,4559,4560,4583,4592,4608,4624,4631,4646,4663,4671,4687,4703,4719,4720,4735,4759,4760,4775,4783,4799,4800,4815,4839,4847,4862,5087,5095,5103,5111,5112,5119,5120,5127,5135,5136,5137,5143,5144,5154,5155,5156,5159,5160,5168,5169,5169,5175,5175,5176,5184,5184,5185,5191,5191,5192,5199,5200,5207,5207,5208,5208,5215,5215,5216,5222,5223,5230,5231,5231,5239,5239,5240,5246,5247,5247,5254,5255,5256,5256,5262,5263,5270,5271,5272,5278,5279,5286,5287,5294,5295,5303,5303,5310,5311,5311,5318,5319,5320,5326,5327,5327,5335,5342,5343,5343,5350,5351,5352,5358,5359,5367,5367,5368,5374,5375,5382,5383,5390,5391,5399,5399,5400,5406,5407,5414,5422,5431,5431,5454,5463,5482,5511,5558,5607,5608,5711,5734,5759,5766,5778,5799,5810,5815,5825,5841,5842,5848,5862,5872,5873,5879,5894,5903,5935,5951,5952,5974,5976,5982,6007,6038,6071,6095,6111,6126,6137,6153,6169,6170,6184,6185,6200,6214,6215,6230,6231,6239,6254,6270,6271,6278,6280,6287,6296,6303,6310,6311,6318,6319,6326,6327,6334,6335,6336,6342,6343,6343,6350,6351,6358,6359,6366,6367,6368,6374,6375,6375,6382,6383,6390,6391,6392,6398,6399,6406,6407,6416,6417,6423,6423,6424,6432,6433,6438,6439,6447,6448,6448,6455,6455,6463,6463,6464,6471,6471,6472,6473,6478,6479,6480,6486,6487,6488,6489,6494,6495,6496,6502,6503,6504,6504,6505,6510,6511,6512,6512,6513,6518,6519,6520,6520,6526,6527,6527,6534,6542,6543,6544,6550,6551,6558,6559,6559,6566,6567,6574,6575,6582,6583,6590,6591,6598,6599,6606,6615,6615,6622,6623,6630,6638,6646,6662,6663,6670,6671,6678,6679,6686,6694,6702,6703,6712,6718,6728,6750,6759,6782,6791,6798,6799,6822,6838,6847,6847,6855,6863,6871,6887,6918,6935,7054,7063,7078,7094,7096,7105,7121,7136,7159,7167,7175,7183,7184,7191,7193,7200,7207,7209,7214,7215,7222,7223,7230,7231,7238,7239,7246,7247,7248,7255,7255,7262,7263,7264,7270,7271,7278,7279,7280,7286,7287,7288,7294,7295,7296,7303,7304,7310,7311,7318,7326,7327,7336,7343,7343,7352,7374,8847,8878,8894,8895,8915,8917,8920,8930,8935,8943,8950,8951,8959,8975,8982,8983,8990,8991,8998,8999,9006,9007,9014,9015,9022,9023,9031,9032,9032,9038,9039,9040,9046,9047,9048,9054,9055,9056,9062,9063,9070,9071,9078,9079,9086,9087,9094,9095,9102,9103,9111,9112,9118,9119,9120,9126,9127,9134,9135,9142,9143,9144,9150,9151,9158,9159,9166,9167,9175,9176,9182,9183,9190,9191,9198,9214,9215,9216,9225,9230,9240,9241,9247,9256,9263,9271,9279,9279,9287,9288,9295,9302,9310,9311,9318,9326,9327,9342,9350,9351,9358,9359,9366,9374,9375,9382,9390,9398,9406,9414,9415,9422,9430,9446,9454,9462,9470,9471,9486,9487,9502,9503,9510,9526,9814,9823,9835,9839,9841,9849,9855,9865,9880,9896,9903,9904,9911,9927,9935,9942,9951,9952,9958,9967,9974,9983,9984,9990,9991,9999,10006,10007,10015,10016,10022,10024,10038,10047,10048,10054,10055,10063,10064,10070,10079,10086,10088,10097,10103,10104,10111,10111,10118,10127,10134,10145,10150,10160,10161,10166,10167,10176,10192,10193,10208,10208,10214,10215,10223,10224,10231,10238,10239,10246,10262,10263,10270,10278,10286,10287,10294,10295,10302,10303,10318,10319,10327,10327,10334,10335,10342,10343,10350,10351,10359,10360,10366,10367,10374,10382,10383,10390,10398,10414,10423,10430,10446,10462,10472,10473,10489,10494,10504,10519,10526,10527,10542,10543,10550,10551,10558,10559,10566,10567,10575,10582,10583,10590,10591,10598,10599,10607,10608,10614,10622,10630,10631,10638,10639,10654,10670,10671,10678,10686,10687,10694,10710,10718,10719,10726,10734,10742,10743,10751,10758,10759,10767,10768,10774,10775,10785,10790,10791,10806,10807,10816,10817,10831,10833,10847,10848,10854,10886,10942,10945,10998,11334,11350,11369,11399,11400,11426,11427,11429,11446,11448,11470,11646,11678,11702,11718,11727,11740,11755,11771,11773,11776,11786,11791,11806,11807,11814,11815,11822,11823,11830,11831,11838,11839,11840,11846,11847,11848,11854,11855,11856,11862,11863,11864,11865,11870,11871,11872,11874,11879,11880,11881,11882,11886,11887,11888,11889,11894,11895,11896,11902,11903,11904,11905,11910,11911,11912,11919,11920,11921,11926,11927,11934,11935,11942,11943,11944,11950,11951,11952,11958,11966,11974,11975,11976,11982,11990,11991,11998,11999,12006,12017,12018,12022,12023,12032,12034,12038,12040,12048,12049,12054,12055,12064,12065,12071,12079,12080,12086,12087,12095,12096,12102,12104,12111,12112,12118,12119,12134,12135,12142,12143,12150,12158,12166,12182,12198,12199,12214,12222,12230,12246,12254,12255,12262,12286,12294,12318,12342,12366,12390,12393,12399,12446,12449,12455,12478,12488,12495,12510,12514,12534,12551,12566,12582,12585,12607,12633,12657,12678,12718,12754,12830,12847,12855,12870,12918,12982,13006,13023,13070,13079" d="m152.40999,245.05998c1.8,0 2.70853,-0.09904 3.52083,0.02083c0.98941,0.14601 1.69089,0.58771 2.47917,0.97917c0.80109,0.39783 1.39699,0.70607 2.40134,1.2c0.61766,0.30376 1.76483,0.80132 2.284,1.00134c0.83469,0.32159 1.72783,0.6604 2.61467,1.12c0.60854,0.31537 1.49287,0.86618 2.09999,1.19467c0.88997,0.48154 1.79674,0.85687 2.40001,1.07333c1.1938,0.42834 1.80559,0.59669 2.7,0.93149c0.60396,0.22607 1.8046,0.79283 2.4045,1.13634c0.62102,0.35561 1.24492,0.76067 2.26218,1.34283c0.71069,0.40672 1.43716,0.80209 2.172,1.12801c1.31003,0.58102 1.89146,0.69864 2.84,0.88666c1.02237,0.20267 1.64383,0.40881 2.2785,0.74701c0.9838,0.52423 1.75713,1.07248 2.3175,1.37698c1.03946,0.56485 1.77228,0.73071 2.62082,0.90952c1.00867,0.21255 1.7892,0.5296 2.58318,1.05167c0.66512,0.43735 1.50938,0.79941 2.23199,0.92551c0.99361,0.17337 1.81323,0.47775 2.38934,0.86133c1.04326,0.69464 1.47256,1.39594 2.37849,1.87033c0.66815,0.34988 1.57401,0.21588 2.56418,0.46451c0.71751,0.18015 1.49069,0.40903 2.48666,0.97714c0.69223,0.39487 1.47794,0.69293 2.38133,0.81201c0.92659,0.12213 1.69286,0.3782 2.42001,1.18799c0.56744,0.63193 1.26071,1.03503 1.9265,1.50586c0.71759,0.50745 1.43074,0.82602 2.35616,1.21149c0.81674,0.34021 1.31897,1.19968 1.9075,1.58401c0.79877,0.52164 1.45068,1.04108 2.30051,1.59998c0.65819,0.43289 1.54071,0.86499 2.15784,1.40002c0.75845,0.65759 1.45908,0.9798 2.16367,1.55264c0.61812,0.50256 1.50612,0.61017 2.19049,1.11401c0.65298,0.48074 0.90379,1.44507 1.60268,1.79733c0.86142,0.4342 1.864,0.03601 2.76534,0.03601c0.68399,0 1.62399,0 2.63199,0c0.79201,0 1.65067,0 2.51401,0c1.03799,0 1.98599,0 2.658,0c0.98932,0 1.85182,0 2.74283,0c0.909,0 1.65633,0 2.65182,0c0.8,0 1.80017,0 2.62083,0c1.14584,0 1.93634,0 2.5,0c0.88051,0 2.07918,0 2.67917,0c0.90001,0 2.10001,0 2.7,0c0.90001,0 2.10001,0 2.70001,0c0.89999,0 1.79999,0 2.69983,0c0.8895,0 1.74301,0 2.77884,0c0.92133,0 1.60532,0 2.60666,0c0.83551,0 1.716,0 2.6145,0c0.8895,0 1.74301,0 2.77884,0c0.92133,0 1.60532,0 2.60666,0c0.83551,0 1.716,0 2.6145,0c0.8895,0 1.74301,0 2.77884,0c0.92133,0 1.60532,0 2.60532,0c0.81601,0 1.63202,0 2.86334,0c0.67801,0 1.61932,0 2.40533,0c0.82199,0 1.88068,0 2.82199,0c0.67801,0 1.91068,0 2.46133,0c0.8685,0 2.064,0 2.664,0c0.89999,0 2.10001,0 2.99551,0c0.58365,0 1.41916,0 2.64734,0c0.64648,0 1.65732,0 2.478,0c1.14581,0 1.93182,0 2.75381,0c1.05869,0 1.76819,0 2.62085,0c1.00449,0 1.8045,0 2.80432,0c0.77933,0 1.77866,0 2.59885,0c0.83731,0 1.68533,0 2.54865,0c1.01669,0 1.95718,0 2.81934,0c0.83334,0 1.81183,0 2.63202,0c0.83731,0 1.68533,0 2.54865,0c1.01669,0 1.95267,0 2.85269,0c0.89999,0 1.79999,0 2.59998,0c0.90002,0 1.72086,0 2.68533,0c0.72534,0 1.71451,0.00006 2.49384,0c0.99951,-0.00009 1.91074,-0.06894 2.67801,-0.35269c0.75345,-0.27866 1.74045,-0.59494 2.54285,-0.63666c0.99872,-0.05194 1.81573,0.05185 2.79999,-0.17734c0.81885,-0.19067 1.58954,-0.59744 2.40268,-0.74933c0.86127,-0.16089 1.93188,-0.24426 2.56665,-0.36801c1.05362,-0.20538 1.77808,-0.39124 2.86401,-0.54932c0.67902,-0.09885 1.64566,-0.15286 2.26215,-0.16217c1.20438,-0.01819 2.10452,-0.00449 2.7045,-0.00449c1.20001,0 2.10498,0.0079 2.72086,-0.02084c0.96558,-0.04507 2.00278,-0.18893 2.73181,-0.33633c0.74988,-0.15161 1.4982,-0.33475 2.58069,-0.64282c1.01291,-0.28827 1.64667,-0.49734 2.56534,-0.80002c0.90268,-0.29739 1.83075,-0.60892 2.50931,-0.79999c0.74533,-0.20984 2.05606,-0.5015 2.54669,-0.60135c1.04211,-0.2121 1.58881,-0.31104 2.70166,-0.55582c0.56326,-0.1239 1.68033,-0.39835 2.75699,-0.72552c0.52667,-0.16006 1.54373,-0.50055 2.04001,-0.65598c0.95758,-0.2999 2.32324,-0.62854 2.75867,-0.69067c0.82813,-0.11813 1.96915,-0.16345 2.95465,-0.17065c0.819,-0.00598 1.73798,-0.0004 2.53369,-0.22153c0.86035,-0.23911 1.56534,-0.59479 2.44247,-0.87866c1.01306,-0.32785 1.75052,-0.51346 2.47452,-0.78516c1.07388,-0.40302 1.72028,-0.76425 2.341,-1.09384c0.85397,-0.45343 1.85419,-0.87643 2.5625,-1c0.74438,-0.12985 1.95285,-0.29474 2.65115,-0.4675c0.75284,-0.18628 1.54062,-0.41351 2.728,-0.87466c0.80719,-0.31348 1.59927,-0.68036 2,-0.85333c0.79855,-0.34473 1.99625,-0.81494 2.7955,-1.06818c0.7803,-0.24722 1.54889,-0.44714 2.63785,-0.75714c1.01999,-0.29034 1.68253,-0.50174 2.3765,-0.64285c1.1167,-0.22705 1.95844,-0.27121 2.84082,-0.3425c0.89896,-0.07263 1.36063,-0.04477 2.616,-0.34799c0.77603,-0.18744 1.4653,-0.52029 2.42435,-1.01849c0.91284,-0.47418 1.50128,-0.79074 2.45065,-1.12735c0.66599,-0.23611 1.79028,-0.52676 2.62769,-0.72083c0.89056,-0.20636 1.35172,-0.29895 2.2825,-0.5c1.38184,-0.29846 2.26309,-0.49887 2.69098,-0.60001c0.83685,-0.19778 1.65271,-0.39993 2.85718,-0.69998c0.79733,-0.19864 1.57718,-0.39587 2.328,-0.56403c0.69998,-0.15677 1.91006,-0.28735 2.81467,-0.46133c0.98932,-0.19026 1.58401,-0.71999 2.34399,-1.17465c0.73703,-0.44093 1.67508,-0.81335 2.46152,-1.0955c0.7858,-0.28192 1.72519,-0.50789 2.53098,-0.7045c1.01602,-0.24792 1.73151,-0.61067 2.52084,-1c0.78934,-0.38933 1.49011,-0.8344 2.5,-0.97917c0.9743,-0.13968 1.74014,0.11928 2.61465,-0.30617c0.77048,-0.37483 1.25479,-1.17061 2.052,-1.71466c0.63959,-0.43649 1.43167,-0.72751 2.42883,-0.95183c0.74521,-0.16763 1.58743,-0.81549 2.15714,-1.34283c0.6662,-0.61667 1.47778,-0.64133 2.44717,-0.92683c0.80081,-0.23586 1.63034,-0.78275 2.30017,-1.2785c0.8175,-0.60504 1.47238,-1.05292 2.33334,-1.33333c0.8082,-0.26321 1.71515,-0.36978 2.41733,-0.60268c0.75073,-0.24901 1.72546,-0.85236 2.54666,-1.27866c0.70749,-0.36728 1.75116,-0.48845 2.45334,-0.72134c0.75073,-0.24901 1.78036,-0.76347 2.36398,-1.164c0.87122,-0.59789 1.57489,-1.03641 2.38535,-1.23332c0.96198,-0.23372 1.86624,0.01884 2.6955,-0.22383c0.88138,-0.25793 1.65155,-0.77924 2.40451,-1.16417c0.76318,-0.39017 1.52002,-0.60817 2.39999,-0.7995c0.84631,-0.18401 1.60431,-0.82928 2.5,-0.97917c0.8382,-0.14026 1.28238,-0.9572 2.20001,-1c0.89883,-0.04192 1.48328,-0.39786 2.15717,-0.94733c0.7034,-0.57353 1.41144,-0.9045 2.34283,-1.04817c0.8895,-0.13721 1.85196,0.28459 2.68933,-0.01517c0.73676,-0.26375 1.41055,-0.9812 1.60617,-1.69383c0.23727,-0.86444 0.52191,-1.64584 0.92047,-2.4955c0.40369,-0.86058 0.84644,-1.52739 1.02686,-2.46167c0.15201,-0.78719 0.03989,-1.76009 0.06784,-2.56366c0.02863,-0.82281 0.19498,-1.85805 0.41464,-2.53868c0.27145,-0.84111 0.50064,-1.84341 0.62735,-2.69316c0.14441,-0.96843 0.38785,-1.78593 0.522,-2.3895c0.29187,-1.31306 0.35184,-2.03529 0.38931,-2.76801c0.03702,-0.7235 0.02036,-2.05223 0.0405,-2.8755c0.01773,-0.72496 0.14984,-1.67952 0.34818,-2.46249c0.20908,-0.82539 0.51321,-1.8764 0.59018,-2.59016c0.09158,-0.84937 0.05716,-1.85716 0.05716,-2.65717c0,-1.00017 -0.00119,-1.82083 0,-2.48534c0.00226,-1.26283 -0.08258,-2.07793 0.16666,-2.98134c0.22845,-0.82803 0.69183,-1.55145 1,-2.5c0.21866,-0.673 0.73987,-1.65518 0.82266,-2.42267c0.09991,-0.92618 0.01068,-1.73216 0.01068,-2.62132c0,-0.98917 0,-1.76851 0,-2.76784c0,-0.82016 0.05716,-1.7215 0.5,-2.5215c0.44284,-0.8 0.5,-1.60001 0.5,-2.5c0,-0.8 0,-1.7 0,-2.60001c0,-0.89999 0,-1.79999 0,-2.7c0,-0.89999 0.11078,-1.80684 0,-2.7c-0.11151,-0.89923 -0.75635,-1.31454 -1.00134,-2.19867c-0.22028,-0.79492 -1.25595,-0.63763 -2.09866,-1.02266c-0.66931,-0.3058 -1.49994,-0.77873 -2.39999,-0.77867c-0.8894,0.00006 -1.32837,0.62613 -1.85718,1.2955c-0.58545,0.74104 -1.67551,0.83011 -2.24283,1.31517c-0.7467,0.63844 -1.12347,1.27834 -1.89999,1.8685c-0.73798,0.56085 -1.64801,0.88823 -2.29999,1.23683c-0.84741,0.45309 -1.69083,0.81451 -2.30002,1.38383c-0.59125,0.55254 -1.51804,0.89128 -2.29999,1.3255c-0.8205,0.45561 -1.67078,0.66428 -2.20001,1.22133c-0.70929,0.74657 -0.91998,1.65208 -1.72116,2.1105c-0.74393,0.42566 -1.5137,0.7818 -2.12167,1.34267c-0.64362,0.59373 -1.75433,0.65768 -2.35583,1.06949c-0.74985,0.51337 -1.20026,1.49933 -1.90134,1.87885c-0.72021,0.38988 -1.62796,0.96417 -2.30533,1.25183c-0.73837,0.31357 -1.74521,0.59071 -2.453,1.22083c-0.62958,0.56049 -0.78281,1.48187 -1.70831,2.14584c-0.59036,0.42354 -1.48145,0.41943 -2.23203,0.90266c-0.82605,0.53181 -1.40909,1.2914 -1.97598,1.79466c-0.75958,0.67436 -1.45804,1.04237 -2.22665,1.436c-0.79666,0.40797 -1.64359,0.82066 -2.56534,1.36667c-0.52121,0.30873 -1.31943,0.82336 -1.82352,1.18066c-1.05539,0.74808 -1.62714,1.27531 -2.33115,1.974c-0.50592,0.50208 -1.16803,1.22249 -1.92148,1.91699c-0.5376,0.49556 -1.46313,0.80385 -2.25717,1.26167c-0.70544,0.40674 -1.6221,0.69525 -2.20001,1.2045c-0.74045,0.6525 -1.46881,1.11833 -2.29999,1.2955c-0.9812,0.20914 -1.55219,0.65144 -2.29999,1.2955c-0.66888,0.57608 -1.51837,0.75952 -2.22086,1.22533c-0.82336,0.54596 -1.44934,1.04106 -2.45782,1.35783c-0.75684,0.23773 -1.68234,0.47029 -2.23199,0.73201c-0.99634,0.4744 -1.74362,0.93579 -2.62268,1.22266c-0.77472,0.25282 -1.67126,0.41148 -2.34131,0.77734c-0.97476,0.53224 -1.54694,1.13837 -2.31067,1.588c-0.69986,0.41203 -1.72943,0.61432 -2.49384,0.82216c-0.87769,0.23863 -1.3447,0.88333 -1.90485,1.49651c-0.71304,0.78052 -1.50452,1.1864 -2.51468,1.39867c-0.75656,0.15898 -1.71985,0.36552 -2.35397,0.7885c-0.73431,0.48978 -1.38275,0.99211 -2.36334,1.21017c-1.02899,0.22882 -1.74942,-0.06976 -2.71735,0.252c-0.71634,0.23813 -1.47888,0.95003 -2.1875,1.33333c-0.96704,0.52307 -1.55457,0.84244 -2.32199,1.14284c-1.00931,0.39508 -1.82382,0.52383 -2.65717,0.85716c-0.83334,0.33333 -1.6402,0.4803 -2.48401,0.784c-0.88132,0.3172 -1.76358,0.60919 -2.616,0.71617c-0.90814,0.11398 -1.55261,0.80002 -2.39999,0.979c-0.8808,0.18605 -1.9491,-0.15247 -2.47467,0.45683c-0.61447,0.71237 -1.01273,1.47896 -1.82532,1.56267c-0.89529,0.09222 -1.80002,0.00133 -2.70001,0.00133c-0.89999,0 -1.83386,0.05188 -2.47467,-0.42534c-0.68176,-0.50771 -1.42654,-0.69118 -2.08667,-1.14932c-0.73093,-0.50726 -1.772,-0.42534 -2.52798,-0.42534c-0.93152,0 -1.89468,0 -2.58533,0c-0.94,0 -1.92535,0 -2.82535,0c-0.79999,0 -1.70001,0 -2.60001,0c-0.89999,0 -2.04651,0.18449 -2.37915,-0.52083c-0.37512,-0.79539 -0.09933,-1.80351 0.14581,-2.64584c0.25082,-0.86177 0.55908,-1.70145 0.88602,-2.52882c0.30008,-0.75937 1.12665,-1.45906 1.59549,-1.96167c0.50446,-0.5408 1.0983,-1.5462 1.35184,-2.34283c0.3197,-1.00444 0.71704,-1.58653 1.14932,-2.164c0.70203,-0.93782 0.90479,-1.62379 1.42136,-2.32266c0.5947,-0.80455 1.0618,-1.17696 1.82666,-2.19734c0.39716,-0.52982 0.95093,-1.33595 1.26932,-2.14932c0.35455,-0.90575 0.43063,-1.80484 0.90268,-2.56667c0.39551,-0.63832 0.99344,-1.1685 1.67801,-2.20451c0.40573,-0.61403 0.9158,-1.56433 1.23666,-2.0795c0.51041,-0.81949 0.87308,-1.35741 1.49466,-2.39433c0.40234,-0.67122 0.86932,-1.4744 1.67401,-2.17349c0.50082,-0.4351 1.20859,-1.06508 1.59467,-1.75351c0.4082,-0.72786 0.89084,-1.69002 1.578,-2.34399c0.50208,-0.47781 1.16144,-1.18906 1.56,-1.912c0.4332,-0.78577 0.9118,-1.60837 1.62,-2.27699c0.47183,-0.44548 1.25119,-0.9438 2.02533,-1.57767c0.74219,-0.60771 1.4444,-1.37886 1.99017,-1.884c0.57001,-0.52756 1.40231,-1.08102 2.14316,-1.62534c0.69376,-0.50969 1.05765,-1.31706 1.836,-2.04134c0.52151,-0.48528 1.24942,-1.09489 1.81433,-1.68517c0.66446,-0.69432 1.46863,-0.98132 2.18033,-1.45799c0.70776,-0.47404 1.18689,-1.20049 1.62,-1.9395c0.54132,-0.92369 1.26788,-1.50093 1.81601,-2.048c0.66327,-0.66202 0.88336,-1.5472 1.27917,-2.20801c0.4537,-0.75746 1.12158,-1.66286 1.65417,-2.33333c0.43311,-0.54523 0.91376,-1.33536 1.39316,-2.06583c0.535,-0.81522 1.06015,-1.39258 1.75882,-2.11017c0.59192,-0.60796 1.21091,-1.2177 1.784,-2.138c0.42374,-0.68047 0.88135,-1.48135 1.45718,-2.10001c0.54575,-0.58633 1.24283,-1.24733 1.75882,-1.76334c0.72684,-0.72684 1.37186,-1.20599 1.96317,-1.98399c0.56088,-0.73798 0.78696,-1.7171 1.32217,-2.3c0.56818,-0.6188 0.98215,-1.49371 1.55133,-2.14732c0.51947,-0.59654 1.14786,-1.27147 1.48068,-2.05267c0.32019,-0.75154 0.16666,-1.7 0.16666,-2.60001c0,-0.89999 -0.04724,-1.7587 -0.57468,-2.42532c-0.51532,-0.65131 -0.95035,-1.44701 -1.72083,-1.922c-0.65543,-0.40405 -0.96356,-1.27629 -1.50583,-1.85268c-0.66766,-0.70967 -1.57468,-0.98448 -2.29849,-1.42149c-0.72348,-0.4368 -0.98648,-1.47986 -1.75085,-1.75317c-0.88461,-0.3163 -1.44913,-0.89909 -2.31598,-1.192c-0.67041,-0.22653 -1.79388,-0.39944 -2.47168,-0.886c-0.6492,-0.46603 -1.16299,-0.94666 -2.06168,-0.94733c-0.89999,-0.00067 -1.79999,0 -2.69998,0c-0.89999,0 -1.80002,0 -2.70001,0c-0.89999,0 -1.78696,-0.04524 -2.72534,0.01067c-0.69345,0.04132 -1.63315,0.59688 -2.49597,0.868c-0.65775,0.20668 -1.70306,0.28087 -2.37418,0.82584c-0.76273,0.61934 -1.44958,1.05965 -2.3045,1.46217c-0.68362,0.32187 -1.5397,0.55806 -2.29016,0.886c-0.83798,0.36618 -1.07574,1.4567 -1.90985,1.86333c-0.75357,0.36737 -1.41245,0.73007 -2.284,1.284c-0.67358,0.4281 -1.46695,0.94043 -2.17734,1.40001c-0.85083,0.55045 -1.61606,0.75826 -2.33331,1.15717c-0.9007,0.50093 -1.29279,1.11179 -1.888,1.75883c-0.71701,0.77943 -1.50906,1.16962 -2.31735,1.36282c-0.79022,0.18889 -1.82278,0.42039 -2.39999,0.83101c-0.83582,0.5946 -1.58627,1.29094 -2.19998,1.65416c-0.78354,0.46373 -1.64157,0.76927 -2.36401,1.272c-0.87384,0.60808 -1.15036,1.23814 -1.72,1.88c-0.70438,0.79367 -1.32605,1.07451 -2.31583,1.584c-0.77884,0.40092 -1.63593,0.89676 -2.17484,1.29999c-0.79556,0.59526 -1.45822,1.006 -2.22665,1.40001c-0.99023,0.50775 -1.59763,0.74786 -2.51602,1.40134c-0.56735,0.4037 -1.4201,1.12735 -1.888,1.44682c-0.73596,0.50249 -1.67801,0.98044 -2.47382,1.35184c-0.8627,0.40262 -1.36386,0.89012 -2.03967,1.409c-0.79819,0.61285 -1.44385,0.99911 -2.13184,1.38034c-0.69345,0.38425 -2.01874,1.03857 -2.57867,1.32666c-0.73267,0.37695 -1.77399,1.04657 -2.37515,1.53667c-0.63504,0.5177 -1.05206,0.91408 -2.08218,1.46468c-0.83377,0.44566 -1.49277,0.65965 -2.47998,1.21599c-0.73132,0.41212 -1.46024,0.92577 -1.83334,1.1875c-0.75052,0.5265 -1.83102,1.31581 -2.51468,1.79384c-0.64713,0.45248 -1.27402,0.87561 -1.884,1.284c-0.90024,0.60272 -1.79471,1.19556 -2.36533,1.60133c-0.55466,0.39444 -1.54593,1.20126 -2.19434,1.75833c-0.55212,0.47437 -1.58698,0.96634 -2.36316,1.48451c-0.55157,0.36823 -1.0433,0.96381 -2.07849,1.67183c-0.57947,0.39633 -1.60376,0.87799 -2.1955,1.18533c-0.75223,0.39072 -1.66376,0.99158 -2.15717,1.45717c-0.74994,0.70764 -1.24734,1.24283 -2.08069,2.07616c-0.53067,0.53067 -1.16666,1.16667 -1.76666,1.76668c-0.69998,0.7 -1.19931,1.20065 -1.89999,1.89999c-0.70065,0.69933 -1.23611,1.21336 -2.14816,1.44733c-0.76944,0.19737 -1.40097,0.75662 -1.85184,1.55267c-0.45282,0.79945 -0.93231,1.61566 -1.52084,2c-0.7988,0.52164 -1.57114,1.09731 -2.17917,1.7c-0.60263,0.59734 -1.25439,1.36261 -2,1.716c-0.8587,0.40698 -1.24899,1.05011 -1.85266,1.72684c-0.49335,0.55304 -1.42123,0.56046 -2.11398,1.19049c-0.59988,0.54558 -1.1813,1.12027 -1.81866,1.59201c-0.71481,0.52907 -1.52737,0.58783 -2.06284,1.27916c-0.56662,0.73157 -1.14993,1.49742 -1.65186,1.9955c-0.69733,0.69202 -1.59921,1.0648 -2.21597,1.584c-0.66141,0.55678 -1.22827,1.09166 -2.08401,1.54933c-0.79144,0.42329 -1.21524,1.10577 -2.10001,1.16667c-0.89786,0.0618 -1.69998,0 -2.60001,0c-0.89999,0 -1.79999,0 -2.69998,0c-0.89999,0 -1.80133,0 -2.76666,0c-0.83334,0 -1.66669,0 -2.52884,0c-0.94049,0 -1.78983,0 -2.51517,0c-1.18802,0 -1.95477,0.05116 -2.90533,-0.00133c-0.77142,-0.0426 -1.72281,-0.42883 -2.28851,-0.70317c-1.00055,-0.48521 -1.59283,-0.80087 -2.59549,-1.2955c-0.79788,-0.39362 -1.38373,-0.71155 -2.40134,-0.916c-0.82529,-0.16582 -1.77261,-0.22296 -2.54684,-0.44116c-0.79901,-0.22519 -1.69125,-0.69366 -2.55182,-1.12201c-0.81061,-0.40349 -1.51202,-0.44873 -2.28534,-0.54616c-1.29785,-0.16351 -1.98077,-0.42799 -2.66733,-0.62201c-0.95837,-0.27084 -1.77579,-0.29962 -2.59467,-0.40533c-1.0361,-0.13376 -1.88483,-0.52644 -2.78601,-0.78065c-0.84433,-0.23817 -1.68802,-0.13625 -2.65067,-0.168c-0.86465,-0.02853 -1.68469,-0.49541 -2.51599,-0.832c-0.75717,-0.30658 -1.70007,-0.15627 -2.60001,-0.16667c-0.90018,-0.01042 -1.80173,-0.28485 -2.27882,-1.10001c-0.38283,-0.65408 -0.95738,-1.34587 -1.6385,-1.61465c-1.00607,-0.39702 -1.54214,-0.92122 -2.284,-1.36934c-0.70531,-0.42604 -1.3223,-1.21985 -1.99867,-1.63066c-0.77614,-0.47142 -1.4102,-1.02567 -2.2,-1.45201c-0.68256,-0.36845 -1.49033,-1.02258 -2.17467,-1.43333c-0.81171,-0.48721 -1.41486,-1.06898 -2.31067,-1.31599c-0.70712,-0.19499 -1.73814,-0.25 -2.49384,-0.60483c-0.88652,-0.41624 -1.48534,-1.03108 -2.3425,-1.57918c-0.69391,-0.44371 -1.35927,-0.71455 -2.36234,-1.09999c-0.81154,-0.31184 -1.3709,-0.48102 -2.39465,-0.90001c-0.70143,-0.28708 -1.59839,-0.71788 -2.604,-1.09866c-0.5285,-0.20012 -1.29977,-0.47646 -2.50751,-0.74866c-0.68857,-0.1552 -1.62804,-0.53004 -2.41116,-0.76868c-0.97639,-0.29753 -1.77565,-0.2486 -2.646,-0.63666c-0.66953,-0.29852 -1.58813,-0.62643 -2.354,-0.64601c-0.99837,-0.02551 -1.82039,0.02162 -2.79866,-0.28667c-0.82368,-0.25958 -1.58748,-0.74155 -2.40001,-1.10399c-0.78871,-0.35182 -1.80464,-0.52734 -2.59999,-0.66335c-0.80589,-0.1378 -1.57658,-0.52821 -2.60001,-0.78065c-0.78702,-0.19412 -1.60001,-0.166 -2.60001,-0.16667c-0.79999,-0.00053 -1.80649,0.07854 -2.564,-0.036c-0.97272,-0.14706 -1.70511,-0.7374 -2.49316,-0.91133c-0.93159,-0.20563 -1.76842,-0.28085 -2.50685,-0.66335c-0.99257,-0.51413 -1.48517,-1.18799 -2.37767,-1.3685c-0.98134,-0.19849 -1.709,-0.02083 -2.45299,-0.02083c-1.19101,0 -2.15881,0.18134 -3.00534,-0.16667c-0.67108,-0.27589 -1.39946,-0.81532 -2.3,-0.83333c-0.89981,-0.01799 -1.80064,0.03391 -2.7,0c-0.75879,-0.02859 -1.63339,-0.40236 -2.51601,-0.716c-0.8325,-0.29584 -1.78857,-0.27295 -2.65067,-0.284c-0.8127,-0.01042 -1.59346,-0.57375 -2.40266,-0.91467c-0.72495,-0.30544 -1.67799,-0.08533 -2.59734,-0.08533c-0.83333,0 -1.81183,0 -2.63199,0c-0.83734,0 -1.854,0 -2.54868,0c-1.01666,0 -1.95267,0.00008 -2.85266,0c-0.90001,-0.00009 -1.76669,-0.2206 -2.40001,-0.57466c-0.86127,-0.48151 -1.79999,-0.42534 -2.7,-0.42534c-0.89999,0 -1.8,0 -2.7,0c-0.75717,0 -1.65717,0 -2.4045,0c-0.99417,0 -1.93834,0 -2.83833,0c-0.95717,0 -2.10455,-0.3894 -2.63567,0.2215c-0.58188,0.6693 -0.12151,1.7785 -0.12151,2.57851c0,0.89999 -0.00533,1.80002 0,2.7c0.00534,0.90004 0.45294,1.60721 0.83333,2.5c0.32021,0.75154 0.20137,1.71228 0.59201,2.39999c0.46318,0.81541 0.35164,1.77185 0.74133,2.60001c0.35686,0.75839 1.39473,0.93541 1.85866,1.61067c0.50922,0.74117 0.95525,1.56841 1.37466,2.20399c0.57394,0.86977 1.36072,1.14326 2.10001,1.70616c0.66359,0.50526 1.22858,1.21748 1.7,1.96317c0.42651,0.67464 0.87013,1.5206 1.5,2.2115c0.57382,0.62943 1.30034,1.30417 1.90001,1.90451c0.60033,0.601 1.2088,1.27962 1.7,2.04816c0.40735,0.63736 1.13853,1.21533 2,1.7045c0.7384,0.41928 1.55,0.65991 2.2,1.16817c0.76909,0.60138 1.24667,1.19507 2.14816,1.77917c0.63481,0.41132 1.1846,1.21173 1.87267,1.7c0.69749,0.49496 1.76901,0.60718 2.35783,1.2215c0.65248,0.68074 0.86176,1.49222 1.7695,1.72583c0.76929,0.19797 1.38722,0.83833 2.06618,1.35268c0.63895,0.48404 1.47221,0.82843 2.26483,1.17917c0.98431,0.43556 1.80223,0.49937 2.66899,0.87799c0.6689,0.29219 1.27287,1.2715 2.05717,1.59016c0.68503,0.27834 1.31963,0.85254 2.0045,1.34818c0.73705,0.53339 1.6987,0.57841 2.49016,0.98849c0.86165,0.44646 1.57991,0.70859 2.45267,1.07317c0.71664,0.29938 1.44385,0.8687 2.10001,1.34283c0.87978,0.63571 1.45953,0.89696 2.44716,1.40001c0.78058,0.39758 1.59511,0.95856 2.30019,1.37917c0.78432,0.46786 1.50754,0.39186 2.616,0.5235c0.78069,0.09271 1.52411,0.71786 2.05867,1.14667c0.78603,0.63052 1.62399,0.84691 2.5825,0.85066c0.89099,0.00349 1.58775,0.18819 2.3255,0.716c0.65665,0.46979 1.4545,1.03094 2.31732,1.248c0.8735,0.21976 1.80377,-0.04613 2.70001,0.03616c0.91144,0.08368 1.5526,0.80002 2.39999,0.979c0.8808,0.18605 1.8,0.02075 2.7,0.02083c0.90018,0.00009 1.69115,0.06912 2.45717,0.35266c0.75337,0.27885 1.74632,0.54028 2.54283,0.67267c1.00508,0.16705 1.75189,0.5555 2.63333,0.808c0.84337,0.24159 1.8157,0.16176 2.65201,0.45067c0.73857,0.25514 1.71021,0.63657 2.49384,0.69518c0.99693,0.07457 1.7735,0.02083 2.67349,0.02083c0.86334,0 1.84909,-0.03059 2.65184,0.35266c0.89078,0.42529 1.52034,0.62933 2.52882,0.64734c0.86203,0.01538 1.70689,-0.04195 2.65067,0.284c0.7083,0.24461 1.62759,0.67329 2.51601,0.716c0.79909,0.03842 1.7,0 2.636,0c0.84799,0 1.76286,-0.30733 2.71733,0.01067c0.78522,0.2616 1.35507,0.95953 2.164,0.98801c0.98206,0.03458 1.80417,0.00133 2.69333,0.00133c0.98917,0 1.76849,0 2.76782,0c0.82019,0 1.6579,-0.0251 2.50684,0.00133c0.92044,0.02864 1.91214,0.28983 2.51468,0.49867c0.99597,0.34521 1.78955,0.45828 2.83334,0.5c0.79218,0.03166 1.64343,0.3018 2.34131,0.57466c0.93097,0.364 1.92535,0.42534 2.82535,0.42534c0.79999,0 1.54852,0.2155 2.16666,0.83333c0.61685,0.61653 0.3689,1.08528 -0.48816,1.38817c-0.71722,0.25348 -1.68225,0.77116 -2.27399,1.07851c-0.75223,0.39072 -1.65665,0.98985 -2.20319,1.5c-0.71371,0.66615 -1.51575,1.03841 -2.30115,1.20016c-0.84634,0.1743 -1.3739,0.74931 -2.19568,1.00433c-0.76309,0.2368 -1.24597,0.98508 -2.18851,0.9955c-0.69061,0.00763 -1.75882,0 -2.716,0c-0.89999,0 -1.79999,0 -2.55716,0c-0.89999,0 -1.64734,0 -2.64282,0c-0.8,0 -1.8,0 -2.60001,0c-1,0 -1.81067,0 -2.68533,0c-1,0 -1.83549,0 -2.41917,0c-1.1955,0 -2.09549,0 -2.6955,0c-1.2,0 -2.10449,0 -2.72083,0c-0.96451,0 -2.0005,0 -2.73184,0c-0.74733,0 -1.86333,-0.00336 -2.92599,0.00017c-0.66869,0.00221 -1.6483,0.01753 -2.30533,0.08516c-1.04073,0.10712 -1.76791,0.27122 -2.89067,0.48933c-0.74084,0.14392 -1.80249,0.31963 -2.46817,0.36818c-0.94513,0.06894 -2.15717,0.05716 -2.75717,0.05716c-0.89999,0 -1.79999,0 -2.69983,0c-0.8895,0 -1.743,0 -2.77867,0c-0.6855,0 -1.52016,0 -2.5215,0c-0.79999,0 -1.80133,0 -2.63599,0c-1.18535,0 -1.71667,0 -2.53868,0c-1.05865,0 -1.97865,0 -2.73866,0c-1.076,0 -1.908,0 -2.81999,0c-0.91734,0 -1.66133,0 -2.696,0c-0.97067,0 -1.72784,0 -2.62334,0c-0.86334,0 -1.84734,0 -2.66869,0c-0.85333,0 -1.80449,0.06105 -2.64799,-0.08533c-0.81122,-0.14078 -1.5677,-0.35374 -2.69734,-0.91467c-0.68735,-0.34131 -1.4267,-0.9346 -2.14766,-0.9955c-0.9503,-0.08028 -1.71654,0.13272 -2.85234,-0.17117c-0.82977,-0.22202 -1.53246,-0.77853 -2.5,-0.83333c-0.83226,-0.04713 -1.69022,-0.12704 -2.45866,-0.61067c-0.72009,-0.4532 -1.36723,-0.95944 -2.37466,-1.22266c-0.77409,-0.20226 -1.84303,-0.07394 -2.62534,-0.20267c-0.88316,-0.14532 -1.56606,-0.61047 -2.57449,-0.84267c-0.76862,-0.17697 -1.76074,-0.37564 -2.38951,-0.696c-0.88786,-0.45236 -1.81065,-0.42467 -2.71066,-0.42534c-0.89999,-0.00067 -1.65378,-0.24214 -2.39999,-0.64734c-0.76112,-0.4133 -1.7,-0.35199 -2.60001,-0.35266c-0.89999,-0.00067 -1.75082,-0.30084 -2.39999,-0.64734c-0.84938,-0.45335 -1.8,-0.35266 -2.7,-0.35266c-0.90001,0 -1.8,0 -2.70001,0c-0.89999,0 -1.80257,-0.34407 -2.61465,0.08533c-0.85812,0.45374 -1.39047,0.71916 -2.17551,1.26733c-0.67195,0.46921 -1.60573,0.46423 -2.3085,0.93268c-0.7953,0.53012 -1.02608,1.25732 -1.67999,1.93599c-0.55772,0.57884 -1.40097,0.56953 -2.22118,1.00017c-0.64343,0.33783 -0.91667,1.44356 -1.75082,1.75317c-0.7859,0.29172 -1.65715,0.63396 -2.09218,1.38249c-0.42447,0.73038 -0.30409,1.87708 0.22684,2.55884c0.48795,0.62657 1.23665,1.07358 2.116,1.084c0.89995,0.01067 1.79868,0.00133 2.54733,0.35266l0.47801,0.62201l0.59999,0.59999" stroke-width="2" stroke="#000" fill="none" id="svg_1"/>
  <path t="13744,13855,13871,13887,13909,13928,13936,13959,13967,13975,13999,14023,14023,14032,14063,14072,14095,14095,14103,14111,14119,14143,14247,14287,14287,14313,14463,14480,14503,14519,14543,14551,14575,14591,14607,14623,14663,14695,14695,14704,14727,14727,14743,14759,14759,14767,14775,14783,14783,14792,14807,14807,14823,14823,14839,14839,14847,14855,14856,14863,14863,14871,14879,14888,14888,14903,14903,14920,14951,14951,15007,15047,15055,15079,15095,15111,15111,15127,15159,15207,15239,15248,15303,15311,15391,15407,15455" d="m175.40999,189.05998c1.8,0 2.70001,-0.006 3.60001,0c0.80003,0.00534 1.80341,0.2805 2.23332,1c0.46037,0.77046 1.40521,0.72563 2.04533,1.22133c0.63644,0.49284 1.35999,0.8817 1.836,1.58c0.51079,0.74933 0.8976,1.5554 1.57068,2.11467c0.66916,0.556 1.53883,0.52449 2.27866,1.10933c0.67822,0.53613 1.36778,0.58168 2.15067,1.06c0.80334,0.49081 1.23912,1.15681 1.98534,1.56201c0.76112,0.4133 1.73744,0.28731 2.32533,-0.222c0.64862,-0.56192 0.974,-1.22667 0.97467,-2.12534c0.00067,-0.90001 0,-1.8 0,-2.7c0,-0.90001 0,-1.8 0,-2.70001c0,-0.89999 -0.00981,-1.75505 -0.61067,-2.5c-0.528,-0.6546 -1.18929,-1.20004 -1.88933,-1.89999c-0.59996,-0.59988 -1.21443,-1.1105 -2.10001,-1.52533c-0.81433,-0.38145 -1.32585,-1.06578 -2,-1.53867c-0.74397,-0.52185 -1.74031,-0.61772 -2.39999,-0.95683c-1.01132,-0.51987 -1.58479,-1.16644 -2.48399,-1.39384c-0.67349,-0.17032 -1.78407,0.00096 -2.68268,-0.252c-0.68115,-0.19176 -1.65619,-0.73099 -2.42267,-0.82266c-0.90475,-0.10822 -1.61699,-0.54593 -2.51083,-0.88916c-0.74152,-0.28474 -1.72516,-0.12151 -2.41583,-0.12151c-0.98399,0 -1.96799,0 -2.83133,0c-0.89549,0 -1.86128,-0.12411 -2.7525,0.00017c-0.80174,0.1118 -0.90016,1.09984 -0.90016,1.99983c0,0.8 0,1.7 0,2.60001c0,0.89999 -0.24287,1.83482 0.0045,2.6955c0.22072,0.7679 1.02083,1.27916 1.7,1.7l0.89551,0.0045l0.89999,0" stroke-width="2" stroke="#000" fill="none" id="svg_2"/>
  <path t="16295,16398,16419,16454,16486,16486,16494,16526,16550,16582,16702,16711,16734,16734,16743,16759,16774,16790,16790,16798,16807,16814,16814,16823,16823,16838,16854,16854,16870,16870,16878,16879,16887,16894,16910,16920,16927,16951,16951,16974,16991,17022,17046,17062,17062,17071,17087,17094,17103,17103,17110,17126,17126,17135,17135,17142,17142,17151,17151,17158,17158,17167,17174,17183,17183,17199,17199,17214,17238,17247,17263,17264,17279,17287,17302,17310,17319,17334,17358,17358,17375,17375,17398,17398,17414,17438,17455,17463,17470,17470,17479,17486,17502,17511,17511,17534" d="m288.41,277.06c1.22134,0.87866 1.86465,1.36139 2.00015,2.2215c0.14099,0.89487 0.80969,1.43259 0.98917,2.37848c0.16779,0.88431 0.01135,1.80002 0.01068,2.70001c-0.00067,0.89865 -0.40442,1.54727 -1.20001,1.98401c-0.64807,0.35574 -1.5,0.71375 -2.39999,0.716c-0.92084,0.00232 -1.72131,0 -2.57465,0c-0.94,0 -1.92535,0 -2.82535,0c-0.75717,0 -1.65268,0 -2.51599,0c-0.98401,0 -1.80551,0 -2.69467,0c-0.98917,0 -1.76849,0 -2.76782,0c-0.82019,0 -1.72153,0 -2.62152,0c-0.89999,0 -1.80814,-0.11649 -2.69998,0.00449c-0.82135,0.11142 -1.47168,0.82874 -2.40002,0.991c-0.88745,0.15512 -1.86911,0.34 -2.1785,1.10449c-0.3407,0.84186 -0.00159,1.67987 0.45319,2.5c0.43375,0.78223 0.59348,1.76263 1.42532,2.23334c0.72964,0.41284 1.48761,0.70053 2.20132,1.36667c0.54654,0.51013 1.46246,1.0813 2.146,1.5c0.78195,0.47897 1.38718,1.02768 2.13669,1.5c0.67523,0.42551 1.57928,1.07541 2.21149,1.44284c0.84909,0.49347 1.69638,0.80191 2.3045,1.35718c0.62775,0.57315 1.48129,0.95282 2.34732,0.99548c0.89444,0.04404 1.85269,0.00452 2.75269,0.00452c0.89999,0 1.69998,0 2.60001,0c0.89999,0 1.85196,0.28909 2.68933,-0.01068c0.73672,-0.26373 1.28387,-0.94128 2.09467,-1.276c0.71991,-0.29718 1.52097,-1.0159 1.99515,-1.71332c0.55255,-0.81268 1.19516,-1.39633 1.46368,-2.30002c0.25684,-0.86444 0.27228,-1.89673 -0.16418,-2.57883c-0.46677,-0.72946 -0.73355,-1.31497 -1.27866,-2.10034c-0.46838,-0.67484 -0.936,-1.42084 -1.60001,-2.12067l-0.60001,-0.543l-0.79999,-0.35715" stroke-width="2" stroke="#000" fill="none" id="svg_3"/>
  <path t="18176,18271,18281,18287,18296,18303,18319,18334,18351,18351,18366,18406,18598,18630,18646,18654,18670,18702,18711,18727,18727,18734,18743,18751,18759,18759,18766,18766,18775,18775,18790,18790,18799,18799,18807,18807,18814,18814,18823,18823,18839,18839,18846,18846,18862,18873,18873,18888,18904,18904,18926,18936,18943,18958,18967,18967,18975,18975,18982,18982,18982,18991,18991,18998,18999,18999,19007,19007,19007,19015,19015,19015,19024,19024,19024,19031,19031,19031,19039,19039,19040,19047,19047,19048,19063,19063,19079,19079,19103,19127,19151,19167,19191,19199" d="m377.41,278.06c1.22134,0.87866 1.9079,1.38507 2.42532,1.97464c0.55972,0.63776 1.21057,1.08481 1.65869,1.82669c0.42603,0.70529 1.24683,1.30661 1.63065,1.99866c0.45728,0.82449 0.48557,1.6008 1.00134,2.284c0.46457,0.61536 0.284,1.616 0.284,2.51599c0,0.90002 0.15115,1.88046 -0.35718,2.70001c-0.50095,0.80765 -1.05286,1.24222 -1.61749,2.08932c-0.41336,0.62015 -1.32559,0.96753 -2.02533,1.61069c-0.52106,0.47894 -1.49124,0.87735 -2.17465,1.02533c-0.95447,0.20667 -1.55997,0.70737 -2.47803,1.27466c-0.68188,0.42136 -1.4068,0.99338 -2.09998,1.34283c-0.85223,0.42963 -1.66962,0.34363 -2.64603,0.64117c-0.78311,0.23865 -1.7139,0.67206 -2.48532,0.71466c-0.95056,0.05252 -1.71732,0.00134 -2.71149,0.00134c-0.91919,0 -1.77917,0 -2.72583,0c-0.85333,0 -1.79333,0 -2.67868,0c-0.79999,0 -1.7283,0.19077 -2.60001,-0.03601c-0.85638,-0.22278 -1.3573,-1.16254 -1.39999,-2.13068c-0.02902,-0.65802 -0.00015,-1.66666 0,-2.49466c0.00018,-0.88135 -0.07968,-1.87079 0.17065,-2.57068c0.37027,-1.03522 1.08289,-1.31284 1.80817,-2.08948c0.60391,-0.64667 0.9541,-1.31799 1.78918,-2.07852c0.46347,-0.42209 1.27133,-0.95343 1.89865,-1.59998c0.72754,-0.74985 1.0401,-1.4314 1.655,-2.19986c0.49319,-0.61636 1.10449,-1.20016 2.09967,-1.77881c0.51474,-0.29929 1.38879,-0.58234 2.41202,-1.18802c0.73788,-0.43677 1.29657,-1.077 2.16666,-1.5c0.75992,-0.36945 1.61789,-0.35535 2.39868,-0.61865c0.78799,-0.26572 1.65842,-1.00098 2.29681,-1.35751c0.84564,-0.47229 1.8045,-0.35715 2.7045,-0.35715l0.89999,0l0.90002,0l0.89981,0.00015" stroke-width="2" stroke="#000" fill="none" id="svg_4"/>
  <path t="19880,19991,20031,20065,20071,20103,20119,20129,20129,20144,20151,20167,20176,20192,20199,20215,20231,20231,20247,20255,20255,20264,20271,20279,20279,20287,20295,20303,20303,20319,20327,20343,20375,20415,20567,20583,20591,20591,20599,20639,20647,20687,20696,20727,20759,20768,20784,20791,20791,20800,20807,20815,20815,20823,20823,20831,20839,20847,20847,20863,20863,20871,20879,20887,20903,20903,20911,20927,20943,20951,20975,21007,21007,21023" d="m214.41,200.05998c0,1.61067 -0.00226,2.5 0,3.39999c0.00226,0.89552 0.50955,1.4395 1.3,1.95717c0.79506,0.52069 1.11465,1.3345 2.09999,1.60684c0.86403,0.23882 1.40686,0.70653 2.12083,1.01517c0.80722,0.34895 1.92694,-0.15132 2.45384,0.45683c0.61722,0.71242 0.89001,1.3851 1.85066,1.528c0.99767,0.14841 1.64375,0.27693 2.34399,0.752c0.73753,0.50035 1.84628,0.11095 2.62933,0.36932c0.77373,0.25529 1.55396,0.74561 2.40134,1.19867c0.65201,0.3486 1.52687,0.53003 2.40001,0.752c0.86227,0.21921 1.59697,0.9213 2.5,0.964c0.89899,0.04253 1.81625,-0.1543 1.89999,-1c0.07883,-0.79611 -0.3707,-1.42894 -0.87849,-2.2215c-0.47844,-0.74675 0.21567,-1.92746 -0.28818,-2.61183c-0.48073,-0.65297 -1.18904,-1.138 -2.03333,-1.16667c-0.89949,-0.03055 -1.75829,-0.23395 -2.5,-0.64734c-0.76369,-0.42563 -1.54018,-0.84546 -2.46667,-1.18599c-0.63028,-0.23166 -1.66682,-0.14952 -2.52882,-0.16667c-0.90504,-0.01801 -1.68977,-0.45189 -2.40468,-1.09984c-0.52527,-0.47607 -1.38107,-0.85329 -2.24716,-0.89566c-1.01546,-0.04968 -1.85266,-0.0045 -2.75267,-0.0045c-0.89999,0 -1.70018,0.01799 -2.59999,0c-0.90054,-0.01801 -1.61034,-0.61813 -2.5,-0.91467c-0.85765,-0.28587 -1.8,-0.08533 -2.60001,-0.08533l-0.91466,-0.08533" stroke-width="2" stroke="#000" fill="none" id="svg_5"/>
  <path t="21872,21975,21983,21991,22007,22015,22023,22031,22031,22039,22039,22047,22063,22063,22071,22071,22080,22103,22119,22120,22129,22136,22136,22155,22160,22160,22167,22175,22183,22183,22191,22207,22216,22216,22231,22231,22239,22239,22247,22255,22279,22311,22551,22567,22583,22599,22607,22615,22623,22631,22647,22656,22664,22687,22703,22719,22727,22737,22743,22759,22775,22791,22791,22799,22807,22823,22831,22839,22847,22871,22887,22887,22895,22919,22935,22959,22975,22983,22991,23015,23023,23034" d="m252.41,216.05998c0.61067,1.564 1.42517,2.05666 2.02533,2.57466c0.62872,0.54265 1.46284,0.94583 2.17468,1.34267c0.78757,0.43906 1.14154,1.24146 1.89999,1.83984c0.60605,0.47815 1.48395,0.87035 2.10132,1.44283c0.66718,0.61868 1.51126,1.01157 2.08884,1.5c0.79419,0.67162 1.26779,1.25064 2.19385,1.584c0.70502,0.2538 1.62756,0.67329 2.51599,0.716c0.79907,0.03842 1.75717,0 2.65268,0c0.69464,0 1.75876,-0.10558 2.54733,0.284c0.87006,0.42984 1.60016,0.69804 2.5,0.716c0.93649,0.01869 1.77689,0.30153 2.47464,0.57466c0.93243,0.36499 1.71826,0.48569 2.6507,0.85068c0.69775,0.27313 1.65363,0.56424 2.57465,0.57466c0.89993,0.01018 1.80002,0 2.69968,0c0.35867,0 -0.63855,0.06062 -1.39966,-0.35266c-0.74625,-0.40521 -1.44659,-0.96497 -1.98401,-1.56334c-0.57343,-0.63846 -1.09183,-1.21524 -1.76868,-1.73134c-0.65762,-0.50143 -1.67007,-0.20667 -2.33667,-0.78867c-0.69818,-0.60957 -1.01068,-1.28148 -1.90616,-1.5685c-0.76086,-0.24387 -1.23935,-0.84671 -2.10449,-1.00616c-0.83264,-0.15346 -1.48337,-0.71255 -2.41467,-0.964c-0.94055,-0.25395 -1.48587,-0.84708 -2.28516,-1.0255c-0.84335,-0.18826 -1.26816,-0.84915 -2.20016,-1.00433c-0.81763,-0.13614 -1.46863,-0.84732 -2.40002,-0.991c-0.8895,-0.13721 -1.79999,-0.0045 -2.69998,-0.0045c-0.89999,0 -1.79868,-0.00133 -2.51599,-0.284l-0.50934,-0.69067l-0.57468,-0.52533l-0.61066,-0.48933" stroke-width="2" stroke="#000" fill="none" id="svg_6"/>
 </g>
 <g display="none">
  <title>muse_image</title>
  <image xlink:href="http://farm3.static.flickr.com/2144/2230003421_45623b4388.jpg" height="480" width="600" y="0" x="20" id="muse"/>
 </g>
 <g display="none">
  <title>bbox</title>
  <rect height="152.4" width="374.4" y="194.4" x="114.8" stroke-width="3" stroke="#f00" fill="none" id="bbox"/>
 </g>
</svg>
