<svg width="640" height="480" xmlns="http://www.w3.org/2000/svg" xmlns:svg="http://www.w3.org/2000/svg" xmlns:xlink="http://www.w3.org/1999/xlink">
 <!-- Sketchy ANNOTATION
  ImageNet ID: n02691156_10718
  URL: http://farm2.static.flickr.com/1089/1427174685_590cbaa0d0.jpg
  Image Width: 500
  Image Height: 358
  BBox X: 12
  BBox Y: 76
  BBox Width: 465
  BBox Height: 201
  Exposure: 2000ms
  Synset Label: airplane
  Synset ID: n02691156
  Worker Tag: an airplane
  Sanity Check: 
   Context
   Saved
   Shading
  Comment: 
   {}
  Worker ID: A1R959DUXT5S4I
  Assignment ID: 3VHHR074H3HWRSJU2OAR2XEXEXK7LQ
  HIT ID: 32CXT5U14G31NCDDV5PWI0BQ2XN8UG
  Work Time: 109s
  Worker Score: 0.9286
 END ANNOTATION -->
 <g display="inline">
  <title>Layer 1</title>
  <path t="8150,8381,8398,8423,8437,8457,8474,8475,8492,8509,8509,8509,8509,8518,8518,8518,8542,8542,8542,8542,8543,8543,8559,8559,8559,8559,8560,8560,8560,8560,8560,8576,8576,8576,8576,8576,8576,8576,8576,8576,8592,8592,8592,8593,8593,8593,8593,8601,8601,8602,8602,8624,8624,8625,8625,8634,8634,8634,8655,8655,8677,8677,8677,8677,8677,8696,8696,8696,8696,8696,8696,8696,8728,8729,8729,8729,8729,8729,8729,8729,8729,8744,8744,8744,8745,8745,8745,8745,8745,8745,8759,8759,8759,8759,8759,8759,8759,8776,8776,8776,8776,8795,8795,8796,8796,8796,8796,8796,8815,8815,8815,8816,8816,8850,8850,8850,8850,8850,8850,8850,8850,8869,8869,8869,8870,8870,8870,8870,8870,8897,8898,8898,8898,8898,8898,8898,8898,8898,8904,8905,8905,8905,8905,8905,8905,8906,8926,8927,8927,8927,8927,8928,8928,8928,8928,8961,8961,8961,8962,8962,8962,8962,8962,8971,8972,8972,8972,8973,8973,8973,8973,8973,9004,9004,9005,9005,9005,9005,9005,9006,9006,9030,9030,9031,9031,9031,9031,9031,9031,9032,9044,9045,9045,9045,9045,9045,9045,9046,9046,9573,9573,9573,9574,9574,9709,9733,9752,9780,9789,9790,9806,9806,9826,9826,9826,9827,9827,9848,9848,9848,9848,9883,9883,9883,9883,9903,9903,9904,9920,9921,9921,9921,9944,9945,9968,9968,9968,9997,9998,9998,10005,10006,10006,10006,10006,10006,10023,10023,10024,10024,10024,10045,10046,10046,10046,10046,10064,10065,10065,10065,10065,10086,10086,10086,10087,10107,10107,10107,10129,10129,10130,10130,10159,10160,10181,10182,10200,10202,10202,10231,10231,10232,10250,10251,10251,10251,10251,10270,10271,10288,10289,10316,10317,10349,10349,10349,10350,10350,10359,10360,10360,10387,10388,10415,10415,10416,10416,10435,10435,10451,10478,10478,10478,10541,10563,10564,10637,10677,10677,10695,10717,10821,10910,11141" d="m71.50346,234.88889c2.58934,0 3.5,0 4.4,0c0.9,0 1.8573,0.16371 2.7,-0.22133c0.6693,-0.3058 1.46235,-0.76581 2.39999,-0.77867c0.86243,-0.01183 1.52435,0.02087 2.53333,-0.08533c0.92899,-0.09778 1.719,-0.36987 2.52917,-0.56201c0.92998,-0.22057 1.69838,-0.276 2.58817,-0.32733c1.02488,-0.05913 1.59167,-0.07481 2.19466,-0.10933c1.32175,-0.07567 2.04096,-0.13582 2.79733,-0.2c0.79063,-0.06709 1.61191,-0.1424 2.4615,-0.216c0.8744,-0.07574 1.77058,-0.15302 2.6865,-0.216c1.87524,-0.12895 2.8297,-0.16643 3.78667,-0.19867c0.95271,-0.03209 1.89462,-0.0517 2.8185,-0.0645c0.8988,-0.01247 1.76567,-0.01755 2.5935,-0.0195c1.51067,-0.00356 2.1815,-0.00133 2.79733,-0.00133c0.56583,0 1.08667,0 2.01334,0c0.80666,0 1.87867,0 2.54733,0c0.978,0 1.63667,0.00299 2.674,-0.00017c0.73134,-0.00223 1.85518,-0.01328 2.59467,-0.08516c1.06581,-0.10359 2.02714,-0.3382 2.60133,-0.48933c1.14128,-0.3004 1.82652,-0.41124 2.94933,-0.59201c0.67609,-0.10886 1.47639,-0.26448 2.37599,-0.40799c0.47487,-0.07574 1.95685,-0.26456 2.964,-0.34401c0.51561,-0.04068 1.59804,-0.11778 2.17334,-0.17867c0.60645,-0.06418 1.25136,-0.13179 2.65334,-0.40266c0.77667,-0.15007 1.59154,-0.34975 2.4435,-0.5625c0.88277,-0.22046 1.78542,-0.45929 2.7045,-0.69749c0.92657,-0.24014 1.85007,-0.49324 3.68533,-0.90668c0.88771,-0.19998 1.75778,-0.36752 2.6055,-0.519c0.82301,-0.14706 1.62337,-0.27467 2.3985,-0.39301c0.74855,-0.11427 1.47148,-0.21333 2.82933,-0.42133c0.63554,-0.09735 1.24147,-0.19789 1.8195,-0.2955c0.55128,-0.09309 1.57445,-0.28171 2.50583,-0.41916c1.22987,-0.18149 1.97824,-0.23401 2.71634,-0.28534c0.77791,-0.05409 2.12532,-0.16377 2.64366,-0.22133c1.12605,-0.12503 1.71597,-0.20425 2.31467,-0.27867c1.18927,-0.14783 1.76231,-0.23308 3.315,-0.37866c0.45122,-0.04231 1.3051,-0.09453 2.15834,-0.14667c0.93344,-0.05705 2.02679,-0.13969 2.65517,-0.196c0.67966,-0.0609 2.15543,-0.20471 2.93399,-0.27867c0.79344,-0.07538 1.59265,-0.15146 2.3895,-0.216c1.54738,-0.12534 2.28384,-0.16612 2.996,-0.19867c0.69385,-0.03171 1.37596,-0.05183 2.052,-0.0645c0.67596,-0.01266 2.052,-0.02016 3.5,-0.02083c0.76401,-0.00035 1.552,0 2.358,0c0.81801,0 1.642,0 2.466,0c0.81799,0 1.62399,0 3.17599,0c0.73584,0 1.44667,0 2.1375,0c0.67584,0 1.34167,0 2.66335,0c0.66583,0 2.0325,0 2.74216,0c0.72768,0 1.47134,0 2.229,0c0.76967,0 1.54933,0 2.33701,0c0.79366,0 2.39099,0 3.19083,0c0.79883,0 1.59567,0 2.3895,0c0.78984,0 1.57468,0 3.12534,0c1.51868,0 2.2645,0 3.00534,0c0.74083,0 1.48666,0 2.24249,0c0.77084,0 1.56168,0 2.3775,0c1.72667,0 2.64566,0 3.59866,0c0.981,0 1.98401,0 3.00301,0c1.02899,0 2.062,0 3.093,0c2.032,0 3.022,0 3.99199,0c0.95001,0 1.88,0 2.79001,0c0.89,0 1.75999,0 2.61,0c1.64,0 2.4295,0 3.196,0c0.74049,0 1.452,0 2.1315,0c0.6445,0 1.25099,0 1.8165,0c0.996,0 1.42149,0.00105 1.8,-0.00133c0.33452,-0.00211 0.99957,0.24883 1.86,-0.28267c0.77455,-0.47844 1.46933,-0.716 2.36932,-0.716c0.90018,0 1.68533,0 2.668,0c0.70801,0 1.63202,0 2.38535,0c0.83331,0 1.70667,0 2.57999,0c1.22385,0 1.95685,0 2.98135,0c0.668,0 1.70667,0 2.43799,0c1.12201,0 1.86334,0 2.92584,0c0.66434,0 1.61081,0 2.8215,0c0.59866,0 1.47916,0.00055 2.31467,0c1,-0.00067 1.89087,0.03725 2.8855,-0.22133c0.83878,-0.21806 1.4762,-0.5466 2.48917,-0.69467c0.88849,-0.12988 1.58813,-0.12178 2.81067,-0.25067c0.46478,-0.049 1.46243,-0.18637 2.52081,-0.33333c0.53915,-0.07486 1.07541,-0.17386 2.64584,-0.33333c0.96115,-0.0976 1.41867,-0.11911 2.29166,-0.14584c0.83243,-0.02548 2.04169,-0.02083 2.84302,-0.02083c0.80933,0 1.63464,0 2.48398,0c1.33585,0 2.26285,0 2.72934,0c0.92401,0 1.81601,0 3.04233,0c0.72867,0 1.40134,0 2.34033,0c1.20401,0 1.81335,0 2.75986,0c1.00949,0 1.72415,0 2.80115,0c0.67468,0 1.77734,0 2.64566,0c0.88269,0 1.64267,0 2.81735,0c0.80399,0 1.62601,0 2.65765,0c0.71701,0 1.48801,0 2.42102,0c0.75198,0 1.57599,0 2.42398,0c0.82401,0 2.21869,0 2.99268,0c0.91666,0 1.836,0 2.754,0c0.64801,0 1.82935,0 2.58133,0c0.82401,0 1.672,0 2.496,0c1.08749,0 1.944,0 2.84799,0c1.013,0 1.67599,0 2.73734,0c0.9675,0 1.64584,0 2.30417,0c1.30652,0 2.04901,0 3.03452,0c0.87067,0 1.57864,0 2.56,0c0.95367,0 1.86816,0 2.65332,0c0.94,0 1.948,0 2.70401,0c0.91068,0 1.81067,0 2.71066,0l0.89999,0l0.89984,-0.00034" id="svg_2" stroke-width="2" stroke="#000" fill="none"/>
  <path t="18421,18909,18941,18965,18977,18992,19008,19008,19017,19017,19017,19037,19037,19057,19080,19080,19091,19091,19102,19102,19102,19123,19141,19141,19165,19165,19165,19165,19178,19178,19178,19178,19187,19187,19187,19188,19202,19202,19202,19203,19223,19223,19223,19223,19240,19240,19240,19240,19240,19257,19258,19258,19258,19258,19258,19258,19270,19271,19271,19271,19286,19286,19286,19286,19286,19286,19305,19306,19306,19306,19306,19325,19325,19326,19326,19326,19347,19347,19348,19348,19367,19367,19367,19367,19386,19386,19386,19386,19386,19409,19409,19409,19409,19409,19440,19440,19440,19440,19441,19441,19463,19463,19464,19464,19474,19475,19475,19475,19488,19488,19488,19488,19489,19508,19508,19508,19508,19527,19528,19528,19528,19549,19549,19549,19549,19549,19550,19583,19583,19583,19583,19583,19583,19602,19602,19603,19603,19603,19603,19603,19619,19620,19620,19620,19620,19645,19646,19646,19646,19667,19667,19667,19667,19668,19698,19698,19698,19698,19699,19699,19718,19718,19718,19718,19719,19719,19747,19748,19748,19748,19748,19758,19758,19758,19758,19758,19758,19759,19790,19790,19807,19807,19807,19823,19837,19856,19857,19885,19886,19911,19911,19911,19931,19931,19931,19951,19951,19951,19952,19958,19958,19958,19976,19977,19977,19998,19998,20023,20023,20024,20024,20050,20050,20051,20051,20051,20098,20098,20098,20098,20123,20123,20124,20124,20136,20136,20136,20137,20137,20175,20175,20175,20176,20176,20176,20197,20197,20198,20198,20198,20212,20212,20212,20213,20238,20239,20286,20286,20287,20287,20317,20317,20317,20341,20341,20342,20381,20382,20394,20433,20451,20487,20487,20519,20520,20538,21478,21518,21534,21553,21592,21592,21592,21625,21625,21625,21625,21626,21684,21684,21685,21686,21686,21697,21697,21698,21698,21698,21698,21699,21750,21750,21750,21784,21785,21785,21785,21822,21823,21823,21823,21823,21824,21845,21846,21846,21846,21846,21881,21881,21882,21882,21882,21936,21936,21936,21947,21947,21981,21982,21982,21982,21982,21983,21998,21999,21999,22150,22197,22222,22222,22238,22271,22271,22299,22299,22349,22350,22350,22389,22390,22390,22390,22391,22428,22429,22430,22430,22471,22471,22471,22472,22505,22506,22506,22507,22507,22507,22521,22521,22521,22522,22574,22575,22575,22612,22613,22614,22614,22615,22616,22634,22634,22634,22635,22635,22635,22636,22678,22678,22679,22696,22696,22696,22697,22697,22697,22746,22746,22747,22747,22747,22748,22748,22757,22757,22758,22758,22759,22759,22759,22811,22814,22814,22814,22815,22815,22832,22832,22833,22833,22833,22833,22834,22834,22834,22869,22869,22870,22870,22870,22871,22871,22871,22914,22915,22915,22916,22916,22916,22917,22917,22945,22945,22946,22946,22947,22947,22947,22968,22968,22993,22993,22994,22994,22994,22995,22995,22996,22996,23008,23009,23009,23010,23010,23011,23011,23012,23012,23053,23054,23054,23054,23055,23056,23056,23057,23057,23070,23070,23071,23071,23071,23072,23072,23073,23073,23102,23103,23103,23104,23104,23105,23105,23106,23106,23145,23145,23146,23146,23146,23147,23147,23148,23148,23168,23169,23169,23169,23170,23170,23171,23171,23171,23195,23196,23198,23198,23198,23199,23199,23200,23200,23236,23237,23238,23238,23239,23239,23239,23240,23240,23273,23274,23274,23275,23275,23276,23276,23277,23279,23317,23318,23319,23319,23319,23320,23320,23321,23321,23348,23349,23350,23350,23351,23351,23352,23352,23394,23396,23397,23398,23414,23414,23415,23415,23416,23416,23417,23417,23418,23438,23439,23439,23440,23441,23472,23473,23473,23474,23525,23526,23526,23527,23528,23535,23536,23537,23537,23538,23538,23538,23568,23569,23569,23570,23571,23571,23572,23572,23604,23605,23606,23606,23607,23607,23608,23608,23609,23641,23641,23642,23642,23643,23643,23644,23700,23701,23702,23702,23703,23703,23717,23718,23719,23719,23720,23720,23721,23765,23767,23768,23769,23780,23781,23782,23782,23783,23783,23810,23811,23812,23813,23865,23865,23866,23867,23867,23909,23910,23911,23911,23920,23940,23941,23942,23942,23980,23982,23983,23983,24004,24005,24005,24047,24048,24080,24081,24082,24082,24131,24132,24133,24139,24139,24141,24141,24191,24192,24208,24209,24234,24235,24235,24260,24294,24320,24321,24321,24354,24355,24355,24356,24389,24390,24391,24391,24392,24447,24448,24448,24449,24482,24483,24484,24486,24486,24487,24488,24497,24498,24499,24500,24501,24547,24547,24549,24550,24551,24571,24571,24572,24573,24574,24575,24575,24598,24599,24600,24601,24602,24630,24631,24632,24680,24681,24682,24682,24697,24697,24698,24736,24737,24738,24757,24757,24758,24792,24793,24794,24794,24795,24830,24830,24831,24831,24832,24868,24869,24870,24871,24871,24872,24873,24922,24922,24923,24924,24925,24926,24926,24927,24927,24941,24942,24942,24943,24944,24944,24945,24945,24946,24979,24980,24981,24982,24982,24983,24999,25000,25000,25018,25019,25019,25020,25022,25022,25023,25024,25024,25053,25054,25054,25055,25056,25056,25057,25058,25058,25107,25108,25109,25110,25110,25111,25112,25112,25113,25121,25122,25122,25123,25124,25124,25125,25175,25175,25176,25177,25177,25178,25193,25194,25194,25195,25195,25196,25232,25233,25234,25244,25245,25247,25257,25258,25259,25260,25300,25301,25302,25303,25339,25342,25343,25391,25391,25392,25441,25442,25442,25443,25444,25445,25494,25495,25496,25497,25528,25529,25530,25531,25531,25532,25590,25591,25592,25593,25647,25648,25649,25664,25665,25665,25714,25750,25751,25751,25752,25794,25816,25817,25885,25886,25928,25929,25930,25931,25931,25966,25967,25968,25969,25972,25973,25989,25990,25991,25991,26052,26052,26078,26079,26080,26141,26163,26214,26215,26247,26248,26249,26286,26286,26288,26355,26356,26357,26358,26358,26391,26392,26393,26393,26394,26395,26396,26397,26420,26421,26422,26423,26424,26474,26475,26477,26511,26512,26512,26513,26572,26573,26574,26575,26618,26619" d="m355.50348,217.88889c1.69998,0 2.69998,0 3.59998,0c0.90002,0 1.7045,0 2.72153,0c0.69931,0 1.6785,0 2.47849,0c0.79999,0 1.81671,0.12692 2.71466,-0.08533c0.89999,-0.21272 1.64334,-0.81169 2.48535,-0.89384c0.97443,-0.09508 1.80981,-0.02083 2.76797,-0.02083c0.73203,0 1.47729,0.15973 2.56003,-0.01067c0.90646,-0.14265 1.52765,-0.7101 2.43649,-0.86783c0.93341,-0.16199 1.66745,-0.11508 2.43948,-0.12018c1.1958,-0.00789 1.99152,-0.00133 2.77518,-0.00133c0.76367,0 1.85416,0 2.86816,0c0.65268,0 1.63666,0 2.67401,0c0.73132,0 1.47867,0 2.22598,0c1.43134,0 2.10001,0 3.078,0c0.65866,0 1.69684,0 2.44983,0c0.82901,0 1.758,0 2.26752,0c1.74231,0 2.39066,0 3.05899,0c0.67834,0 1.35666,0 2.67334,0c0.61832,0 2.19666,0 3,0c0.68332,0 1.32666,0 2.39166,0c0.87332,0 1.86667,0 2.39584,0c1.09833,0 1.6575,0 3.31583,0c0.535,0 1.57498,0 2.07999,0c0.98001,0 2.375,0 2.82016,0c0.86435,0 1.70068,0 2.51703,0c1.2045,0 2.00314,0 2.79382,0c0.77466,0 2.24399,0 2.92801,0c0.668,0 1.69247,0 2.81598,0c0.836,0 1.27652,0 2.1875,0c0.931,0 2.3125,0 2.758,0c0.87302,0 1.742,0 2.63101,0c1.42349,0 1.9325,0 2.98651,0c0.53299,0 1.58099,0 2.08398,0c1.353,0 2.39999,0 2.978,0c0.80701,0 2.01367,0 2.72433,0c0.77469,0 1.60535,0 2.93851,0c0.46149,0 1.39349,0 2.3175,0c0.892,0 2.11856,-0.00635 2.8515,0.0045c0.68912,0.01021 1.69586,0.05724 2.73151,0.21683c0.7428,0.11447 1.51746,0.29355 2.34,0.42601c1.30142,0.20959 1.76007,0.22891 2.6955,0.30899c0.9639,0.08252 1.46356,0.08717 2.44415,0.29834c1.51895,0.32709 2.00317,0.59122 2.50317,0.80783c1.02301,0.44319 1.52164,0.71996 2.58084,1.17084c1.07184,0.45627 1.62888,0.64944 2.76733,0.94783c0.5694,0.14923 1.14426,0.27522 2.29465,0.45267c0.56729,0.08751 2.2305,0.24995 2.76468,0.28084c1.03012,0.05956 1.52542,0.07101 2.46918,0.08083c1.28543,0.01337 2.05002,-0.01286 3.09799,0.02533c0.66956,0.0244 1.68951,0.13422 2.4075,0.26451c0.76236,0.13835 1.55969,0.32664 2.39999,0.51599c1.33472,0.30075 2.27911,0.50069 2.77066,0.59866c1.02451,0.20421 1.56097,0.30304 2.11469,0.40001c1.76865,0.30972 2.39331,0.39999 3.02432,0.5c1.26199,0.2 1.88177,0.29543 2.48401,0.39999c1.65521,0.28743 2.13608,0.39255 3.009,0.60001c0.81235,0.19307 1.6174,0.41843 2.97733,0.7c0.51694,0.10703 1.63501,0.3 2.21332,0.39999c0.57834,0.10001 1.69711,0.28966 2.21335,0.40001c1.28357,0.27438 2.29224,0.71614 3.0733,1.2c0.65045,0.40295 1.32599,0.82312 2.3125,0.97917c0.91046,0.14403 1.72491,0.58759 2.12085,1.20616c0.50549,0.78973 1.04102,1.46767 1.94287,1.69333c0.70313,0.17595 1.53253,0.07057 2.77448,0.408c0.72211,0.1962 1.45239,0.59921 2.32532,1.03467c0.66296,0.33072 1.35736,0.67867 2.052,1.026c1.26233,0.63118 1.79102,0.89549 2.69635,1.34816c0.80902,0.40451 1.61011,0.80235 2.20898,1.10451c1.00183,0.50542 1.65076,0.81502 2.40002,1.53333c0.65704,0.62993 1.02039,1.20718 1.51434,1.71851c0.7865,0.81418 1.44507,1.27841 2.14697,1.71216c0.71429,0.44142 1.4649,0.8192 2.51703,1.436c0.66577,0.3903 1.58405,0.98756 2.13495,1.40001c0.77875,0.58304 1.47614,1.21707 1.948,1.672c0.51251,0.49408 1.37988,1.37267 2.05304,2.03783c0.35669,0.35248 1.10333,1.07942 1.49463,1.442c1.18005,1.09344 1.58405,1.43512 2.39105,2.091c0.79327,0.64471 1.19806,0.94904 2,1.55583c0.7981,0.60385 1.59528,1.20331 2.38928,1.78c0.38818,0.28194 1.13141,0.84373 2.24402,1.48801c0.66492,0.38503 1.61908,0.72374 2.30933,1.13066c0.74957,0.44193 1.15881,1.21112 1.99603,1.97067c0.5611,0.50906 1.22418,0.99225 1.896,1.46399c0.91193,0.64035 1.47748,0.92477 2.14398,1.41867c0.85809,0.63586 1.448,1.3302 1.94934,2.09866c0.58124,0.89093 0.67767,1.70886 1.39282,2.25067c0.67993,0.51514 1.12305,1.31448 1.8125,1.83334c0.55334,0.41644 1.57037,0.72427 1.65765,1.51849c0.09686,0.88129 0.68036,1.45465 0.98816,2.16901c0.38757,0.89944 0.02087,1.78366 0.02087,2.80115c0,0.76135 0.00262,1.53534 -0.00018,2.54233c-0.00226,0.80267 -0.01105,1.67776 -0.05701,2.59201c-0.02325,0.46262 -0.14594,1.82584 -0.3045,2.70001c-0.16119,0.88892 -0.27728,1.34296 -0.52496,2.29831c-0.27161,1.04758 -0.59589,2.19379 -0.76599,2.78986c-0.1712,0.59991 -0.51904,1.77243 -0.6947,2.32599c-0.16577,0.52243 -0.75714,2.12656 -1.13184,2.867c-0.3111,0.61484 -0.72699,1.61835 -0.93152,2.28116c-0.23071,0.74768 -0.4588,1.57599 -0.91083,2.90268c-0.15826,0.46457 -0.51129,1.40524 -0.69934,1.87866c-0.37732,0.94989 -0.56848,1.4213 -1.17914,2.77866c-0.3924,0.87216 -0.6015,1.29529 -1,2.14667c-0.40155,0.85794 -0.9989,2.19623 -1.20135,2.65601c-0.40674,0.9238 -0.58331,1.396 -1.05579,2.25168c-0.66016,1.19562 -1.21606,1.82684 -1.77887,2.39099c-0.56274,0.56412 -1.18951,1.10645 -1.76398,1.776c-0.62592,0.72952 -1.19141,1.57458 -1.47919,2c-0.56775,0.83926 -0.80664,1.26886 -1.599,2.33533c-0.64154,0.86353 -1.25885,1.45773 -1.7525,2.27802c-0.44305,0.73615 -1.26947,0.8822 -2.05469,0.88666c-0.94,0.00534 -1.95099,0.16089 -2.59381,0.5c-0.8338,0.43988 -1.49579,0.56802 -2.54413,0.85718c-0.5625,0.15515 -1.54688,0.45679 -2.71936,0.74265c-0.42426,0.10342 -1.30603,0.2998 -2.20667,0.46417c-0.88092,0.16077 -2.1073,0.32095 -2.84082,0.38333c-0.68854,0.05856 -1.69623,0.11084 -2.73151,0.27417c-0.74316,0.11722 -1.52026,0.29837 -2.34003,0.483c-1.30536,0.29398 -1.75812,0.40259 -2.69098,0.591c-0.94586,0.19104 -1.41925,0.28687 -2.36334,0.41916c-1.3587,0.19037 -2.21747,0.23749 -3.02148,0.2645c-0.74341,0.02496 -1.72937,0.00699 -2.56616,0.02533c-0.81946,0.01797 -2.16339,0.15945 -2.58234,0.21701c-0.94354,0.12961 -1.45837,0.21228 -2.5567,0.38916c-0.5755,0.09268 -2.3573,0.3894 -2.95648,0.48917c-0.59418,0.09891 -1.74738,0.29028 -2.29669,0.37933c-1.01807,0.16507 -1.47711,0.23825 -2.88547,0.43817c-0.73929,0.10495 -1.52692,0.24036 -2.64734,0.52551c-1.00806,0.25656 -1.56595,0.4187 -2.15466,0.578c-0.60861,0.1647 -1.85229,0.5032 -3.08334,0.8125c-0.58987,0.14819 -1.72708,0.40942 -2.28265,0.51999c-0.5498,0.10941 -1.65463,0.29617 -2.21866,0.35999c-1.77106,0.20035 -2.39987,0.20499 -3.03735,0.22952c-0.6452,0.02484 -1.944,0.04797 -2.58932,0.05267c-0.63733,0.00464 -1.87201,0.00449 -3.03867,0.00449c-0.56583,0 -1.6875,0 -2.25333,0c-0.57584,0 -2.41333,0 -3.07767,0c-0.69034,0 -1.40268,0 -2.133,0c-0.74435,0 -1.49869,0 -2.259,0c-0.76233,0 -3.02219,0 -3.75833,0c-0.72818,0 -1.44934,0 -2.16452,0c-0.71014,0 -1.41632,0 -2.11951,0c-2.10147,0 -2.80264,0 -3.50583,0c-0.70615,0 -1.41632,0 -2.1315,0c-0.72116,0 -1.44931,0.00049 -2.93066,0c-0.75531,-0.00024 -1.52271,0.00034 -2.30399,-0.01349c-0.79742,-0.0141 -1.61316,-0.04086 -2.448,-0.09451c-0.85791,-0.05515 -1.7435,-0.11398 -3.58133,-0.392c-0.9682,-0.14645 -1.96371,-0.34976 -2.99402,-0.56699c-1.06842,-0.22525 -2.17233,-0.4762 -3.31799,-0.729c-1.18701,-0.26193 -2.414,-0.54684 -5.02133,-1.03735c-1.36984,-0.25772 -2.77658,-0.4848 -4.19852,-0.70499c-1.41943,-0.21982 -2.82214,-0.4213 -4.18948,-0.61499c-1.31497,-0.18628 -2.56284,-0.34982 -4.77866,-0.68002c-0.94385,-0.14066 -1.78537,-0.27982 -2.5455,-0.405c-0.6972,-0.11481 -1.34967,-0.22452 -1.97852,-0.315c-0.62155,-0.08945 -1.25577,-0.17966 -2.64267,-0.28c-0.7821,-0.05658 -1.62262,-0.08508 -2.5065,-0.1185c-0.91479,-0.03461 -1.84784,-0.06479 -2.78549,-0.1095c-0.93005,-0.04434 -1.84277,-0.06973 -3.54132,-0.272c-0.77344,-0.0921 -1.49146,-0.22635 -2.1615,-0.3765c-0.63528,-0.14236 -1.23532,-0.30762 -1.81052,-0.47549c-0.55914,-0.16321 -1.1012,-0.34659 -2.19467,-0.64801c-0.55286,-0.1524 -1.11749,-0.28546 -1.69049,-0.405c-0.5777,-0.12051 -1.16284,-0.22516 -1.75351,-0.315c-0.59305,-0.09018 -1.18927,-0.1745 -2.38931,-0.28c-0.59995,-0.05273 -1.20398,-0.08475 -1.81351,-0.1185c-0.61847,-0.03424 -1.24921,-0.06567 -1.8945,-0.1095c-0.66376,-0.04507 -1.35052,-0.0871 -2.79199,-0.272c-0.76569,-0.09824 -1.5538,-0.23203 -2.36252,-0.37198c-0.82462,-0.1427 -1.65799,-0.2966 -2.4975,-0.444c-0.83884,-0.14728 -1.6702,-0.30582 -3.30667,-0.51733c-0.78946,-0.10202 -1.56647,-0.16898 -2.33249,-0.23251c-0.76065,-0.06308 -1.52206,-0.11719 -2.28751,-0.1875c-0.77625,-0.07129 -1.57178,-0.13461 -3.21332,-0.41333c-0.86655,-0.14713 -1.74927,-0.34668 -2.6445,-0.55801c-0.90079,-0.21265 -1.793,-0.44193 -2.67151,-0.66599c-0.85449,-0.21793 -1.67087,-0.44678 -3.18399,-0.776c-0.66925,-0.1456 -1.28952,-0.25223 -1.866,-0.32849c-0.53836,-0.07123 -1.05035,-0.11475 -1.54202,-0.1395c-0.4791,-0.02411 -0.95465,-0.03 -1.92532,-0.03201c-0.509,-0.00104 -1.03201,0 -1.56299,0c-0.53302,0 -1.06201,0 -1.58102,0c-0.50299,0 -1.85599,0 -2.59198,0c-1.01401,0 -1.77002,0 -3.26401,0c-0.63751,0 -1.34,0 -2.0925,0c-0.78751,0 -1.595,0 -2.4075,0c-0.80249,0 -1.58002,0 -3,0c-1.16934,0 -1.6665,0 -2.52084,0c-1.0365,0 -1.94617,0 -2.86716,0c-0.65067,0 -1.34933,0 -2.522,0c-0.88,0 -1.84,0 -2.35001,0c-1.07999,0 -2.23999,0 -2.84949,0c-1.267,0 -1.91852,0 -2.578,0c-0.66449,0 -1.33099,0 -3.3125,0c-0.64566,0 -1.28534,0 -1.923,0c-1.28534,0 -1.94101,0 -2.61066,0c-0.68768,0 -2.133,0 -2.897,0c-0.78799,0 -1.59399,0 -2.41202,0c-0.82397,0 -1.64798,0 -2.46597,0c-0.806,0 -2.358,0 -3.09335,0c-1.38867,0 -2.04599,0 -2.68134,0c-0.61533,0 -1.79401,0 -2.91666,0c-1.08401,0 -1.6185,0 -2.6875,0c-0.5405,0 -1.6485,0 -2.8125,0c-0.60883,0 -1.85849,0 -2.48532,0c-0.61884,0 -1.22269,0 -2.35736,0c-1.41733,0 -2.16064,0 -2.82397,0c-1.02002,0 -2.30667,0 -2.82001,0c-0.54333,0 -1.67999,0 -2.25333,0c-1.10669,0 -2.09335,0 -3.25885,0c-0.647,0 -1.60251,-0.00143 -2.75351,0.00015c-0.45297,0.00061 -1.43707,0.00674 -1.95599,0.02069c-1.06223,0.02856 -2.62589,0.13846 -3.11517,0.2005c-0.92618,0.11743 -1.77954,0.28479 -2.577,0.42599c-1.09802,0.19446 -1.78387,0.25491 -2.76614,0.3735c-0.65396,0.07895 -1.673,0.29401 -2.38269,0.54715c-0.73907,0.26361 -1.7897,0.77728 -2.784,1.09866c-0.80667,0.26074 -1.51205,0.30988 -2.53348,0.3335c-0.82071,0.01898 -1.96964,0.15363 -2.48517,0.28519c-0.84113,0.21463 -1.71411,0.52173 -2.61484,0.81448c-0.90866,0.29532 -1.52545,0.52188 -2.86652,0.73352c-0.71048,0.11212 -1.43704,0.1402 -2.13599,0.15598c-1.19708,0.02704 -2.17325,-0.03299 -3.01884,0.23203c-0.71835,0.22513 -1.67224,0.65808 -2.46783,0.74265c-0.72209,0.07675 -1.79999,0.03601 -2.63199,0.03601c-0.912,0 -1.85269,-0.01724 -2.68767,0.05716c-0.89417,0.07968 -1.80112,0.29578 -2.43266,0.46368c-0.67389,0.17914 -1.78964,0.48788 -2.62634,0.67783c-0.88062,0.19989 -1.77931,0.37762 -2.664,0.51599c-0.83293,0.13028 -1.97241,0.22955 -2.70966,0.30618c-0.77888,0.08093 -2.12587,0.30844 -2.64384,0.42181c-0.5528,0.121 -1.72636,0.4086 -2.33533,0.55734c-0.61369,0.1499 -1.82468,0.45163 -2.97917,0.66666c-0.53387,0.09943 -1.52719,0.23782 -2.4375,0.29169c-0.84814,0.0502 -2.0625,0.04166 -2.8665,0.04166c-0.828,0 -1.2585,0 -2.1675,0c-1.5285,0 -2.0925,0 -2.6805,0c-1.224,0 -1.84801,0 -2.472,0c-1.224,0 -2.37601,0 -3.41734,0c-0.47816,0 -1.35449,0 -2.13083,0c-1.28517,0 -2.07716,0 -2.83316,0c-1.13751,0 -1.8045,0 -2.88,0c-0.73199,0 -1.79329,0.01514 -2.76801,-0.01068c-0.60031,-0.0159 -1.69786,-0.10052 -2.61066,-0.42532c-0.6465,-0.23004 -1.63046,-0.78592 -2.29851,-1.064c-0.78317,-0.32602 -1.80128,-0.60162 -2.59999,-0.8045c-0.85794,-0.21793 -1.30592,-0.30368 -2.17084,-0.58084c-1.23766,-0.39661 -1.9669,-0.77472 -2.70833,-1.11465c-0.77449,-0.35507 -1.18272,-0.56332 -2.64433,-0.97882c-0.55054,-0.15649 -1.75809,-0.40616 -2.39734,-0.54202c-0.65941,-0.14014 -1.33691,-0.27963 -2.022,-0.44849c-1.39951,-0.34494 -2.09755,-0.56888 -2.80533,-0.80133c-0.72697,-0.23877 -1.47412,-0.50296 -2.256,-0.771c-0.82076,-0.28137 -1.68724,-0.57843 -2.61601,-0.86102c-2.04338,-0.62177 -3.18588,-0.90356 -4.38533,-1.19464c-1.2382,-0.30048 -2.50195,-0.58459 -3.7695,-0.86102c-1.25114,-0.27286 -2.46962,-0.52756 -3.63449,-0.771c-2.09457,-0.43774 -2.9928,-0.62512 -3.79468,-0.80267c-0.72307,-0.1601 -1.38107,-0.31302 -1.98749,-0.46799c-0.57356,-0.14658 -1.12677,-0.2995 -1.6725,-0.46799c-1.14383,-0.35315 -1.75999,-0.57263 -2.41335,-0.80267c-0.68504,-0.24121 -1.39404,-0.49942 -2.1225,-0.771c-0.74489,-0.27771 -1.49934,-0.56476 -2.25749,-0.86102c-1.51537,-0.59216 -2.25833,-0.89661 -2.992,-1.19464c-0.72198,-0.29327 -1.42996,-0.5831 -2.1255,-0.86102c-0.67914,-0.27136 -1.34114,-0.53409 -1.99049,-0.771c-1.23402,-0.45023 -1.82806,-0.63165 -2.40266,-0.80267c-0.55846,-0.16623 -1.10818,-0.31668 -1.6485,-0.46799c-0.53569,-0.15002 -1.07147,-0.29742 -1.6035,-0.46799c-1.08929,-0.34924 -1.64253,-0.56534 -2.77,-1.03735c-0.57468,-0.2406 -1.14619,-0.49731 -1.722,-0.74399c-1.1391,-0.48795 -2.2556,-0.92636 -2.80383,-1.10785c-1.05869,-0.35049 -1.58481,-0.48407 -2.61084,-0.75748c-0.50583,-0.1348 -2.01534,-0.53775 -3.00933,-0.87201c-0.49928,-0.16791 -1.48399,-0.54691 -1.96533,-0.76001c-0.95789,-0.42404 -1.87595,-0.90884 -2.75066,-1.436c-0.4315,-0.26004 -1.25907,-0.80527 -2.08083,-1.3075c-0.40057,-0.24481 -1.59531,-0.88959 -2.4,-1.1955c-0.7756,-0.29486 -1.54916,-0.49896 -2.63783,-0.81433c-0.68117,-0.19733 -1.63887,-0.48932 -2.205,-0.75717c-1.06962,-0.5061 -1.71906,-1.07626 -2.35717,-1.59015c-0.79688,-0.64172 -1.43486,-1.04089 -2.17599,-1.46252c-0.92648,-0.52707 -1.68317,-0.95724 -2.51517,-1.45148c-0.43488,-0.25833 -1.31351,-0.78885 -1.74667,-1.056c-1.22688,-0.75668 -1.96133,-1.23001 -2.66667,-1.68268c-0.70533,-0.45267 -1.83259,-1.16785 -2.2425,-1.42117c-0.8568,-0.52951 -1.29564,-0.7966 -2.17083,-1.3175c-0.83158,-0.49496 -1.59176,-0.9191 -2.51967,-1.45599c-0.77531,-0.44861 -1.2739,-0.74231 -2.24966,-1.57333c-0.54687,-0.46576 -1.05666,-0.98065 -1.984,-1.89865c-0.51936,-0.51413 -1.16472,-0.97583 -2.00533,-1.43066c-0.91367,-0.49435 -1.33024,-0.96417 -2.07733,-1.62668c-0.48068,-0.42627 -1.49217,-0.9964 -2.25067,-1.44266c-0.66226,-0.38965 -1.12286,-1.38461 -1.708,-2.00803c-0.70496,-0.7511 -1.34379,-0.9599 -2.02133,-1.19998c-0.76746,-0.27194 -1.64693,-0.50394 -2.604,-0.79199c-1.0351,-0.31152 -1.56828,-0.48361 -2.64584,-0.83334c-0.53455,-0.17349 -1.56748,-0.51602 -2.52084,-0.83334c-0.84132,-0.28003 -1.56398,-0.54208 -2.47216,-0.80499c-1.05271,-0.30478 -1.85908,-0.42081 -2.7945,-0.931c-0.48825,-0.2663 -1.25965,-0.69815 -1.97867,-1.54401c-0.62632,-0.73682 -1.42424,-0.83401 -2.2755,-0.9075c-0.98629,-0.08514 -1.58799,-0.31668 -2.37917,-0.68365c-1.0146,-0.47061 -1.6331,-0.81723 -2.37067,-1.09549c-0.86389,-0.3259 -1.56433,-0.51151 -2.37517,-0.72086c-0.94693,-0.24451 -1.48289,-0.36713 -2.6875,-0.64581c-1.38464,-0.32034 -2.12556,-0.48575 -2.88266,-0.65869c-0.76324,-0.17435 -1.5216,-0.34821 -2.2635,-0.52197c-0.71543,-0.16757 -2.02246,-0.47855 -3.1085,-0.76733c-0.46987,-0.12494 -1.28898,-0.35822 -1.985,-0.58084c-1.23044,-0.39359 -2.12667,-0.6904 -2.691,-0.94049c-1.0914,-0.48367 -1.78202,-1.02469 -2.25684,-1.36401c-0.73965,-0.52859 -1.61309,-1.0015 -2.61917,-1.36401c-0.66799,-0.24069 -1.30667,-0.43466 -2.4885,-0.93149l-0.6675,-0.41916" id="svg_4" stroke-width="2" stroke="#000" fill="none"/>
  <path t="27720,27887,27902,27903,27918,27932,27943,27958,27974,27990,28007,28008,28024,28024,28025,28040,28040,28056,28074,28086,28106,28107,28128,28144,28156,28156,28176,28177,28201,28225,28242,28256,28257,28276,28292,28293,28309,28310,28310,28318,28318,28319,28344,28344,28358,28376,28376,28391,28391,28391,28408,28419,28440,28457,28473,28496,28564,28576,28595,28629,28653,28654,28699,28730,28730,28750,28750,28750,28805,28853,28866,28891,28909,28925,28957,28970,28992,29015,29030,29046,29061,29077,29089,29089,29108,29142,29143,29230" d="m74.50346,234.88889c-1.82533,0 -2.83351,-0.01785 -3.6955,0c-0.86906,0.01801 -1.34846,0.85425 -2.10583,0.99867c-0.88276,0.16833 -1.79867,0.0007 -2.7195,0.00133c-0.96584,0.00067 -1.73286,-0.00642 -2.64584,0.16667c-0.78926,0.14964 -1.55664,0.47156 -2.69033,0.71182c-0.71426,0.15137 -1.67773,0.0686 -2.443,0.47417c-0.84589,0.4483 -1.7,0.64734 -2.5,0.64734c-0.9,0 -1.83784,-0.05316 -2.684,0.00267c-0.86864,0.05731 -1.60697,0.58551 -2.10533,1.14667c-0.67953,0.76517 -1.61067,0.85066 -2.51067,0.85066c-0.9,0 -1.7,-0.00183 -2.536,0c-1.02567,0.00226 -1.8329,0.01936 -2.78533,0.22133c-0.81144,0.17207 -1.61606,0.47597 -2.65717,0.65717c-0.68058,0.11845 -1.52017,0.12083 -2.517,0.12151c-0.74733,0.0005 -1.79907,-0.06445 -2.726,0.22133c-0.7194,0.2218 -1.67224,0.6581 -2.46783,0.74268c-0.72209,0.07677 -1.8,0.036 -2.71067,0.036c-0.9,0 -1.85017,-0.07304 -2.47467,0.42534c-0.60797,0.48518 -1.66489,0.39346 -2.0045,1.09549c-0.41774,0.86351 -0.72652,1.44786 -1.2195,2.04851c-0.57084,0.69551 -0.77274,1.67667 -0.80133,2.59734c-0.02652,0.85374 0,1.83333 0,2.62267c0,0.72533 -0.35873,1.88475 0.02083,2.68983c0.33256,0.70538 1.67851,0.40756 1.9685,1.1315c0.35492,0.88602 0.81245,1.02606 1.57467,1.42532c0.75831,0.3972 1.23776,0.93614 2.136,0.964c0.94411,0.0293 1.34796,0.85468 2.18667,0.99866c0.92514,0.15881 1.62933,0.00134 2.70267,0.07333l0.61067,0.496l0.5,0.72668l0.7,0.63333" id="svg_5" stroke-width="2" stroke="#000" fill="none"/>
  <path t="34639,34814,34829,34829,34829,34850,34850,34871,34872,34872,34872,34888,34889,34889,34889,34889,34889,34889,34889,34889,34906,34906,34906,34906,34906,34906,34907,34907,34907,34927,34927,34928,34928,34928,34928,34928,34928,34928,34952,34952,34952,34952,34952,34952,34952,34952,34952,35003,35003,35003,35003,35003,35003,35003,35003,35003,35080,35080,35080,35080,35081,35081,35081,35081,35081,35117,35118,35118,35118,35118,35118,35118,35118,35118,35154,35154,35154,35154,35154,35154,35154,35154,35155,35205,35205,35205,35205,35205,35205,35205,35205,35206,35256,35256,35256,35256,35256,35257,35257,35257,35257,35307,35307,35307,35307,35307,35307,35307,35307,35307,35326,35326,35326,35326,35327,35327,35327,35327,35327,35374,35374,35374,35374,35374,35375,35375,35375,35375,35446,35446,35447,35447,35447,35447,35447,35447,35447,35489,35489,35489,35489,35490,35490,35490,35490,35490,35781,35782,35782,35782,35782,35782,35782,35782,35782,35826,35853,35885,35924,35925,35945,35945,35945,35945,35945,35945,35959,35959,35959,35959,36000,36000,36000,36001,36001,36059,36059,36060,36060,36060,36069,36069,36070,36070,36070,36070,36121,36121,36121,36171,36173,36173,36173,36173,36201,36202,36202,36202,36232,36232,36232,36232,36243,36299,36300,36315,36315,36315,36315,36337,36338,36368,36368,36398,36399" d="m403.50348,251.88889c-0.85068,-1.41066 -1.73489,-2.14285 -1.93869,-2.836c-0.2197,-0.74713 -0.40207,-1.77121 -0.672,-2.364c-0.46191,-1.01443 -0.82114,-1.68109 -1.06131,-2.28801c-0.31238,-0.78938 -0.66269,-1.84488 -0.87152,-2.48433c-0.23267,-0.71251 -0.48193,-1.49478 -0.7605,-2.33701c-0.29764,-0.89983 -0.61957,-1.85005 -0.9765,-2.84099c-0.37216,-1.03319 -1.21185,-3.18622 -1.68365,-4.29234c-0.48141,-1.12866 -0.995,-2.26421 -1.52249,-3.40799c-0.53079,-1.15091 -1.07385,-2.29843 -1.61252,-3.444c-0.53467,-1.1371 -1.57196,-3.37003 -2.05768,-4.46217c-0.47552,-1.06923 -0.92831,-2.12265 -1.36047,-3.16049c-0.4241,-1.01854 -0.82883,-2.02399 -1.21652,-3.01651c-0.38156,-0.97684 -1.10141,-2.89879 -1.44482,-3.8445c-0.33926,-0.93431 -0.66797,-1.86024 -0.996,-2.77499c-0.32462,-0.90524 -0.64725,-1.80127 -0.978,-2.685c-0.32794,-0.87627 -1.0094,-2.59695 -1.36899,-3.44135c-0.36041,-0.84631 -0.73993,-1.6947 -1.125,-2.55899c-0.39493,-0.88638 -0.80405,-1.80093 -1.215,-2.757c-0.42923,-0.99854 -1.30917,-3.16942 -1.76135,-4.35651c-0.47873,-1.25684 -0.97012,-2.59471 -1.509,-4.0065c-0.57153,-1.49734 -1.1911,-3.08078 -1.88699,-4.74449c-0.7381,-1.76466 -2.46625,-5.57072 -3.47318,-7.60884c-1.04984,-2.12495 -2.17526,-4.28458 -3.3465,-6.45599c-1.17114,-2.1713 -2.35916,-4.29649 -3.54449,-6.34801c-1.13647,-1.96698 -3.27066,-5.49223 -4.24466,-6.99632c-0.87671,-1.35385 -1.69669,-2.55066 -2.47351,-3.597c-0.69897,-0.9415 -1.36493,-1.76556 -2.00549,-2.481c-0.586,-0.6545 -1.71973,-1.75078 -2.27133,-2.22366c-0.52747,-0.45221 -1.05234,-0.8618 -1.56451,-1.242c-0.49164,-0.36497 -0.97464,-0.70139 -1.43848,-1.026c-0.44681,-0.31271 -1.28949,-0.91292 -1.67584,-1.21834c-0.37625,-0.29742 -0.73346,-0.60347 -1.07101,-0.92099c-0.33517,-0.31528 -0.65573,-0.6461 -0.96298,-0.99301c-0.31155,-0.35178 -0.91281,-1.11623 -1.20883,-1.52817c-0.3028,-0.42137 -0.59705,-0.85741 -0.8895,-1.29749c-0.29123,-0.43826 -0.57367,-0.87401 -0.85352,-1.2975c-0.27084,-0.40984 -0.78656,-1.16541 -1.03549,-1.49768c-0.23141,-0.3089 -0.45621,-0.58763 -0.67502,-0.83549c-0.20151,-0.22827 -0.39633,-0.42926 -0.58499,-0.6015c-0.17175,-0.1568 -0.49225,-0.39908 -0.64017,-0.485c-0.13382,-0.07771 -0.26334,-0.13559 -0.3855,-0.1815c-0.11429,-0.04295 -0.22562,-0.07509 -0.33151,-0.1095c-0.10345,-0.03362 -0.30615,-0.11554 -0.40448,-0.17316c-0.10184,-0.05966 -0.2005,-0.13068 -0.30002,-0.20401c-0.10046,-0.07401 -0.19901,-0.15067 -0.29999,-0.222c-0.09909,-0.06999 -0.29858,-0.18925 -0.39984,-0.23132c-0.09756,-0.04053 -0.19553,-0.06908 -0.28949,-0.09601c-0.08972,-0.02573 -0.17581,-0.04764 -0.25351,-0.078c-0.073,-0.02853 -0.19489,-0.11064 -0.23584,-0.16866c-0.04208,-0.05959 -0.06985,-0.13091 -0.09598,-0.20401c-0.02655,-0.07423 -0.04822,-0.1503 -0.078,-0.222c-0.02896,-0.0697 -0.49258,-0.80247 -1.23267,-1.26733c-0.77802,-0.48869 -1.68854,-0.30093 -2.31885,-0.60616c-1.18738,-0.57497 -1.60156,-0.58467 -2.46817,-0.78368c-0.96799,-0.22229 -1.48117,-0.30057 -2.47833,-0.58083c-1.39777,-0.39285 -1.79721,-0.59154 -2.552,-0.92934c-1.04459,-0.4675 -2.05792,-0.88141 -2.78265,-1.01601c-0.74564,-0.13848 -1.52643,-0.17235 -2.31601,-0.25199c-1.20108,-0.12115 -2.01285,-0.27089 -2.86115,-0.43817c-0.44589,-0.08793 -1.39117,-0.29343 -3.00101,-0.57899c-0.58368,-0.10354 -1.18036,-0.19994 -2.37399,-0.37933c-0.57822,-0.08691 -1.13113,-0.17844 -2.5625,-0.35417c-0.97382,-0.11956 -1.67999,-0.16133 -2.66669,-0.16666c-0.67334,-0.00364 -1.46664,0 -2.34,0c-0.91333,0 -2.27173,0.00623 -3.13165,-0.0045c-0.8201,-0.01023 -1.60461,-0.01358 -2.69501,-0.16216c-0.68243,-0.09299 -1.60059,-0.34686 -2.39468,-0.54934c-0.95364,-0.24315 -1.87265,-0.284 -2.70065,-0.284c-1.05667,0 -1.78201,0 -2.57132,0c-0.78934,0 -1.83334,0 -2.76669,0c-0.89999,0 -1.73331,0 -2.71182,0l-0.82016,0" id="svg_6" stroke-width="2" stroke="#000" fill="none"/>
  <path t="38399,38838,38855,38874,38892,38910,38910,38925,38925,38932,38932,38959,38959,38975,38976,38993,38993,39009,39010,39010,39010,39010,39016,39016,39016,39043,39043,39043,39043,39059,39059,39059,39075,39075,39222,39223,39242,39262,39275,39292,39292,39306,39430,39444,39486,39487,39502,39524,39543,39598,39660,39675,39675,39692,39710,39725,39740,39740,39779,39879,39879,39903,39923,39923,39943,39961,39961,39974,39984,40008,40028,40044,40057,40057,40070,40070,40089,40089,40107,40122,40122,40137,40137,40154,40170,40186,40186,40202,40202,40202,40220,40242,40265,40296,40314,40331,40347,40357,40357,40382,40409,40409,40425,40486,40501,40525,40525,40543,40543,40543,40543,40558,40558,40558,40558,40558,40572,40572,40572,40572,40655,40671,40694,40708,40726,40740,40741,40750,40775,40791,40815,40816,40839,40872,40911,40928,40943,40959,40959,40976,40993,41009,41009,41009,41026,41026,41039,41057,41103,41118,41144,41263,41295,41319,41351,41367,41383,41383,41399,41416,41429,41430,41450,41450,41480,41495,41519,41519,41535,41536,41556,41576,41593,41623,41639,41695,41911,41926,41926,41944,41959,41977,41977,41977,41977,41990,41990,41990,41990,41990,42001,42002,42002,42002,42027,42029,42029,42030,42047,42047,42063,42063,42080,42096,42096,42112,42112,42112,42129,42129,42146,42147,42155,42156,42156,42156,42170,42171,42188,42188,42188,42188,42208,42208,42208,42225,42225,42225,42225,42225,42226,42242,42243,42243,42243,42260,42260,42260,42260,42277,42278,42278,42278,42278,42279,42303,42303,42304,42304,42304,42318,42318,42318,42319,42319,42319,42328,42329,42329,42329,42329,42356,42356,42356,42357,42357,42357,42358,42375,42375,42377,42377,42378,42378,42378,42396,42396,42397,42398,42409,42432,42464,42464,42480" d="m281.50348,125.88889c2.58932,0 3.71283,-0.11853 3.98932,0.61066c0.32272,0.8511 -0.03781,1.87878 0.04666,2.6c0.11707,0.99959 0.42944,1.80203 0.96402,2.62267c0.45486,0.69826 1.05081,1.30612 1.47916,2.16667c0.40347,0.81059 0.50513,1.63879 0.80615,2.48801c0.2869,0.80934 0.72211,1.84303 0.91467,2.48132c0.20807,0.68962 0.39484,1.41743 0.60001,2.14801c0.39282,1.3988 0.5517,2.07033 1.01434,2.92099c0.45361,0.83403 0.95718,1.27263 1.66483,1.96167c0.46155,0.4494 1.2178,1.4035 1.42349,2.22533c0.20248,0.80905 0.29593,1.86031 0.52267,2.528c0.37122,1.09319 0.91708,1.91347 0.55383,2.72585c-0.34671,0.77538 -1.11984,1.26236 -2.03717,1.46815c-0.65427,0.14677 -2.45267,0.1174 -2.29016,0.9955c0.02325,0.12569 1.00082,0.05717 1.86417,0.05717c0.96317,0 1.85391,0.03333 2.50934,0.57466c0.60483,0.49954 0.97241,1.187 0.97467,2.078c0.0022,0.86334 0.00232,1.82651 0,2.74733c-0.00226,0.90002 -0.33118,1.63411 -0.716,2.40001c-0.39487,0.78593 -0.284,1.85266 -0.284,2.54733c0,1.02733 0,1.974 0,2.65266c0,1.11467 0,2 0,2.8c0,0.89999 0,1.8 0,2.7c0,0.89999 0,1.8 0,2.70134c0,0.68399 -0.00174,1.63466 0,2.39999c0.00226,0.99417 0.04312,1.93124 0.42532,2.77333c0.36823,0.81126 0.42456,1.67191 0.79599,2.60384c0.30878,0.77473 0.67038,1.52875 0.78934,2.43216c0.12204,0.92688 0.57068,1.58615 0.82266,2.58934c0.19492,0.77597 -0.25958,1.62245 0.20267,2.55333c0.35107,0.70699 0.96335,1.248 0.96402,2.14667c0.00067,0.90001 0,1.8 0,2.71066c0,0.91068 0.08597,1.76807 -0.00134,2.70401c-0.08368,0.89674 -0.76556,1.42172 -0.97784,2.38533c-0.19363,0.87897 0.15289,1.85292 0.97919,2.33333c0.61346,0.35667 1.5607,0.58252 2.27197,1.06c0.56421,0.37875 1.15958,0.85112 2.02802,1.74934c0.62137,0.64268 1.198,1.35905 1.5,1.70667c0.59607,0.6861 1.48392,1.62579 2.091,2.12733c0.5535,0.45728 1.39978,0.83582 2.42633,1.46199c0.69647,0.42482 0.8576,1.51237 0.24667,2.03601c-0.71606,0.61372 -1.61041,0.74196 -2.36401,1.10933c-0.83411,0.40663 -1.21432,1.27432 -1.69998,1.93683c-0.48422,0.66058 -0.49933,1.49651 -0.5,2.45834c-0.00064,0.92082 0,1.82083 0,2.72083c0,0.90001 -0.02536,1.8004 0,2.60001c0.02859,0.90135 0.50095,1.58421 1,2.53333c0.34164,0.64975 0.61768,1.40192 0.83331,2.33334c0.20868,0.9014 0.16443,1.83333 0.16669,2.73332c0.00226,0.89552 0.66348,1.40994 0.97916,2.12083c0.38931,0.87669 0.49402,1.59238 1.10483,2.19518c0.55356,0.54633 0.90558,1.30466 0.91602,2.2625c0.00891,0.82011 0.26508,1.57903 0.71597,2.27617c0.45468,0.703 0.15738,1.88014 0.85202,2.49066c0.59003,0.51857 1.66751,0.70163 2.14798,1.33867c0.57748,0.76567 0.28403,1.67317 0.28403,2.56866c0,0.86334 0.08606,1.74855 0.57465,2.37267c0.49252,0.62914 0.42004,1.57469 0.42535,2.47467c0.00534,0.90004 0.24536,1.96857 1,2.33333c0.73547,0.35551 1.70316,0.11061 2.5625,0.1875c0.94501,0.08455 1.8096,0.33385 2.5,0.50002c0.75165,0.18091 1.93658,0.48294 2.73749,0.67783c0.79907,0.19446 1.59647,0.38556 2.39999,0.51599c1.19531,0.19406 1.99512,0.23795 2.77917,0.2645c0.7634,0.02585 1.85458,-0.0011 2.85916,0.02985c0.62057,0.0191 1.52264,0.05811 2.47501,0.55899c0.68707,0.36136 1.47589,1.24124 2.276,1.41068c0.80377,0.17023 1.73233,0.02133 2.45233,0.02133c1.125,0 1.90649,0 2.69699,0c1.1185,0 1.87601,0 2.74933,0c0.79468,0 1.84534,0 2.81284,0c0.67834,0 1.33667,0 2.64719,0c0.728,0 1.81616,0 2.41449,0c0.9975,0 1.67084,0 2.87216,0c0.80701,0 1.70401,0 2.85101,0c0.453,0 1.43698,0 1.95599,0c1.06201,0 1.59299,0 3.11517,0c0.92432,0 1.78067,0 2.577,0c1.09949,0 1.7865,0.0289 2.80783,-0.04166c0.72723,-0.05023 1.96008,-0.28458 2.42233,-0.40118c0.99796,-0.25174 1.51382,-0.41266 2.56,-0.74249c0.51892,-0.1636 1.97339,-0.65607 2.82401,-0.92801c0.77368,-0.24734 1.52234,-0.4704 2.30399,-0.60001c1.30472,-0.21637 1.80106,-0.20749 2.83469,-0.26132c0.53403,-0.02783 1.61304,-0.06964 2.14667,-0.10934c1.52597,-0.11356 2.00092,-0.18823 2.91599,-0.35199c0.90375,-0.16174 1.81729,-0.37219 2.784,-0.564c1.03857,-0.20605 1.58914,-0.30081 2.16,-0.38933c1.19833,-0.18582 1.82922,-0.261 2.48001,-0.32533c1.35852,-0.13431 2.06821,-0.17477 3.51401,-0.22818c0.72046,-0.02661 1.42929,-0.03819 2.11798,-0.04649c0.66064,-0.00795 2.39468,-0.01067 2.86551,-0.01067c1.10251,0 1.845,0.00252 2.89316,0c0.936,-0.00226 1.73599,-0.22133 2.436,-0.716l0.79999,-0.30933" id="svg_7" stroke-width="2" stroke="#000" fill="none"/>
  <path t="44009,44038,44060,44082,44096,44110,44110,44134,44134,44164,44164,44164,44183,44184,44209,44232,44258,44258,44258,44258,44281,44281,44281,44281,44281,44327,44327,44327,44327,44327,44327,44327,44327,44348,44348,44348,44348,44348,44348,44348,44359,44359,44359,44360,44360,44383,44383,44407,44428,44535,44535,44557,44557,44584,44584,44598,44598,44598,44598,44598,44614,44614,44614,44614,44614,44614,44614,44614,44614,44638,44638,44638,44639,44639,44639,44639,44639,44639,44663,44663,44663,44663,44664,44664,44664,44699,44699,44699,44734,44775,44776,44808,44808,44846,44847,44847,44847,44881,44881,44881,44881,44881,44881,44882,44882,44882,44933,44934,44934,44934,44934,44934,44934,44935,44935,44978,44978,44978,44984,44984,44984,44984,44984,44985,45023,45023,45024,45024,45024,45024,45024,45024,45024,45046,45047,45047,45047,45047,45047,45047,45047,45047,45067,45067,45067,45068,45068,45068,45068,45068,45068,45106,45106,45106,45106,45106,45106,45156,45207,45207,45207,45207,45222,45222,45222,45222,45222,45222,45260,45260,45260,45297,45297,45297,45297,45297,45334,45334,45334,45334,45335,45383,45384,45439,45439,45439,45480,45567,45596,45597,45628,45650,45651,45651,45709,45710,45710" d="m395.50348,252.88889c2.04816,-1.64284 2.83582,-1.80374 3.69998,-2.05717c0.87744,-0.25732 1.49948,-0.89558 2.27066,-0.9415c1.0329,-0.06149 1.84424,0.09459 2.69601,-0.33466c0.75732,-0.38165 1.13864,-1.28783 2.15866,-1.59467c0.66473,-0.19995 1.76401,-0.07201 2.60666,-0.07201c1.06802,0 1.62402,0 2.63052,0c0.75098,0 1.9375,0 2.74283,0c0.83734,0 1.73865,0 2.22333,0c1.638,0 2.25684,-0.00154 2.90866,0.00267c0.67786,0.00438 1.37537,0.00174 2.79733,0.06934c0.71231,0.03386 1.41925,0.06442 2.76535,0.26132c0.63806,0.09332 1.83017,0.37036 2.392,0.528c0.54721,0.15353 1.59314,0.49472 2.104,0.65601c1.49948,0.47339 1.9957,0.60822 2.96133,0.836c0.89606,0.21136 1.69513,0.40114 2.90131,0.56134c0.8201,0.10892 1.58728,0.23065 2.22534,0.80133c0.65176,0.58293 0.97687,1.17941 1.34134,2.10933c0.27344,0.69766 0.54218,1.58243 0.65866,2.31465c0.19226,1.20862 0.27444,1.60837 0.47852,2.52667c0.11578,0.521 0.3989,1.68298 0.77081,3c0.20355,0.72083 0.43448,1.47339 0.672,2.25751c0.24515,0.80923 0.49786,1.63742 0.74402,2.48251c0.24854,0.85324 0.50589,1.70758 0.91733,3.42667c0.20157,0.84216 0.3685,1.67734 0.5145,2.50049c0.14322,0.80762 0.2623,1.60287 0.36151,2.38351c0.09698,0.76309 0.1828,1.50958 0.29065,2.94931c0.05164,0.68921 0.08438,1.35721 0.1095,2.00101c0.02411,0.61755 0.04874,1.76697 0.05267,2.29468c0.01025,1.37097 0.00452,2.095 0.00452,3.159c0,0.85715 0.00571,1.87869 0,2.63583c-0.00677,0.8956 -0.02957,1.74878 -0.86801,2.35617c-0.47559,0.34454 -1.28326,0.47363 -2.30399,0.59998c-1.3233,0.16379 -2.12183,0.17032 -3,0.20135c-0.95584,0.03375 -1.98398,0.05209 -3.078,0.06448c-1.15399,0.01309 -2.362,0.01761 -3.61801,0.0195c-2.63199,0.00397 -3.99716,0.00375 -5.39334,-0.00266c-1.42819,-0.00653 -2.88947,-0.02103 -4.38449,-0.0585c-1.53036,-0.03836 -3.09729,-0.09244 -4.69949,-0.19351c-3.3237,-0.20966 -5.0394,-0.39853 -6.77734,-0.59732c-1.74414,-0.19952 -3.47284,-0.42734 -5.16901,-0.66751c-1.64783,-0.23334 -3.22672,-0.47375 -4.71899,-0.71249c-2.65732,-0.42514 -3.7879,-0.62213 -4.78934,-0.79468c-0.88187,-0.15195 -1.65344,-0.2887 -2.32498,-0.40948c-0.58176,-0.10464 -1.0831,-0.1976 -1.51501,-0.27451c-0.69296,-0.12338 -0.97391,-0.1673 -1.21866,-0.20401c-0.21259,-0.03189 -0.39761,-0.05692 -0.55801,-0.08398c-0.14093,-0.0238 -0.26724,-0.04645 -0.37799,-0.08401c-0.20959,-0.07108 -0.30667,-0.13525 -0.40533,-0.19998c-0.10144,-0.06656 -0.20001,-0.14133 -0.29999,-0.216c-0.10001,-0.07468 -0.19763,-0.15094 -0.30002,-0.216c-0.19568,-0.12436 -0.29895,-0.16507 -0.39865,-0.20001c-0.09604,-0.03366 -0.19882,-0.03885 -0.28052,-0.08398c-0.59711,-0.3299 -0.85483,-1.33298 -1.23065,-2.02783c-0.31155,-0.57602 -0.69711,-1.2323 -1.1235,-2.47217c-0.3223,-0.93716 -0.41873,-1.45065 -0.625,-2.47916c-0.10178,-0.50754 -0.27689,-1.48083 -0.42017,-2.73517c-0.07596,-0.66479 -0.11731,-1.51498 -0.12149,-2.61902c-0.00241,-0.63867 0.01218,-1.72958 0.05716,-2.53284c0.02362,-0.42209 0.1557,-1.75607 0.2955,-2.67749c0.13895,-0.91599 0.23218,-1.35736 0.36331,-2.20166c0.21689,-1.39618 0.1991,-2.20901 0.45068,-3.25467c0.19434,-0.80759 0.33783,-1.60651 0.83334,-2.45834c0.41882,-0.72 0.83734,-1.27805 1.08398,-2.05899c0.32077,-1.01572 1.06586,-1.51273 1.76266,-1.88266c0.82175,-0.43628 1.83469,-0.8 2.61166,-1.10001l0.68701,-0.3" id="svg_8" stroke-width="2" stroke="#000" fill="none"/>
  <path t="48120,48311,48311,48328,48328,48328,48343,48343,48343,48367,48367,48384,48384,48385,48385,48395,48395,48395,48395,48395,48395,48395,48395,48419,48419,48419,48419,48419,48419,48419,48419,48419,48443,48443,48452,48452,48452,48452,48452,48452,48452,48487,48487,48487,48487,48487,48487,48487,48487,48487,48512,48513,48513,48513,48513,48513,48513,48513,48513,48523,48523,48523,48523,48524,48524,48524,48524,48524,48547,48547,48547,48547,48547,48547,48547,48547,48547,48571,48571,48571,48572,48572,48572,48572,48572,48572,48613,48613,48613,48614,48614,48614,48614,48614,48614,48650,48650,48650,48650,48650,48650,48650,48650,48651,48674,48674,48674,48686,48686,48686,48686,48686,48686,48713,48713,48713,48714,48714,48714,48714,48714,48714,48731,48731,48731,48732,48732,48732,48732,48732,48732,48757,48758,48758,48758,48758,48758,48758,48758,48759,48782,48782,48782,48782,48782,48783,48783,48783,48783,48798,48798,48798,48798,48798,48799,48799,48799,48799,48870,48870,48870,48870,48871,48871,48871,48871,48871" d="m411.50348,324.88889c-0.436,1.84668 -0.72076,2.45514 -1.10001,3.42133c-0.31357,0.79883 -0.57819,1.63474 -1,2.65717c-0.28537,0.69174 -0.60522,1.31442 -1.10001,2.32285c-0.30319,0.61795 -0.80356,1.76395 -1.00266,2.28934c-0.34525,0.91113 -0.60312,1.64584 -1.13068,2.97598c-0.20651,0.52069 -0.43542,1.07605 -0.68552,1.66202c-0.53674,1.25763 -0.83545,1.91541 -1.14731,2.58932c-0.31876,0.68878 -0.99716,2.08371 -1.35535,2.78217c-0.36047,0.70291 -0.73419,1.40512 -1.1145,2.1105c-0.38333,0.71097 -0.77496,1.42514 -1.16849,2.14648c-0.39716,0.728 -1.19638,2.20905 -1.59586,2.96417c-0.4032,0.76221 -0.80597,1.53278 -1.22098,2.30402c-0.41763,0.77612 -0.84457,1.55283 -1.293,2.32199c-0.45023,0.77228 -1.41135,2.29129 -1.92984,3.03317c-0.52808,0.75562 -1.09918,1.51819 -1.70251,2.31149c-0.63821,0.83914 -1.32874,1.72775 -2.0625,2.68951c-0.79306,1.03946 -2.56161,3.4155 -3.54065,4.77515c-1.0466,1.45349 -2.13306,2.99283 -3.25949,4.59c-1.15393,1.63617 -2.31894,3.29504 -3.4935,4.95001c-1.16278,1.63837 -3.4252,4.77393 -4.51019,6.23035c-1.03262,1.38611 -2.02887,2.69055 -2.97897,3.92099c-0.89737,1.16214 -1.75018,2.25003 -2.54703,3.27301c-0.74445,0.95572 -2.06531,2.67578 -2.633,3.45099c-0.52805,0.72104 -1.01324,1.41113 -1.47598,2.07599c-0.45322,0.65115 -0.90167,1.30566 -1.36801,1.96802c-0.48557,0.6897 -1.58026,2.18683 -2.21268,3.01266c-0.6767,0.8837 -1.40359,1.8067 -2.16599,2.76599c-0.78687,0.99011 -1.59708,1.99753 -2.418,3.01801c-0.82443,1.02484 -2.45575,3.05261 -3.24533,4.04599c-0.78104,0.98264 -1.55765,1.9697 -2.33401,2.97601c-0.79437,1.02963 -1.60626,2.10132 -2.44199,3.228c-0.87912,1.18518 -2.76886,3.80194 -3.79468,5.25165c-1.08371,1.53152 -2.20621,3.13873 -3.366,4.80301c-1.18958,1.70703 -2.39645,3.44595 -3.61798,5.19901c-1.22379,1.75629 -3.65097,5.21918 -4.84351,6.89618c-1.16354,1.63626 -2.30307,3.22119 -3.41852,4.7475c-1.07571,1.47192 -2.11877,2.87729 -3.13049,4.20749c-0.96054,1.26294 -2.75537,3.53757 -3.58667,4.53867c-0.77051,0.92789 -1.5018,1.77255 -2.18549,2.54849c-0.63284,0.71823 -1.22729,1.37561 -1.77151,1.99051c-0.505,0.57056 -1.39215,1.61563 -1.76498,2.11185c-0.3508,0.46692 -0.66077,0.92386 -0.93152,1.37097c-0.25793,0.42593 -0.48267,0.84744 -0.6795,1.263c-0.19101,0.40332 -0.51175,1.20786 -0.65381,1.60867c-0.14056,0.39655 -0.26837,0.79144 -0.396,1.17902c-0.12506,0.37976 -0.24658,0.75082 -0.37802,1.10699c-0.12738,0.34515 -0.4071,0.98477 -0.56848,1.27115c-0.15497,0.27496 -0.32376,0.5267 -0.4935,0.76053c-0.16144,0.22241 -0.32425,0.42514 -0.47552,0.61649c-0.14069,0.17798 -0.3815,0.49649 -0.46683,0.64465c-0.07693,0.13361 -0.13345,0.26279 -0.17099,0.38553c-0.03482,0.11386 -0.05353,0.22501 -0.06299,0.33148c-0.00912,0.10297 -0.008,0.3045 -0.00934,0.40433c-0.00134,0.09888 -0.00436,0.19635 -0.021,0.28952c-0.0162,0.09067 -0.05069,0.17465 -0.09302,0.25348l-0.05634,0.07184" id="svg_9" stroke-width="2" stroke="#000" fill="none"/>
  <path t="50312,50623,50623,50643,50658,50676,50691,50708,50708,50725,50725,50734,50735,50758,50775,50793,50793,50808,50825,50825,50835,50835,50835,50835,50857,50857,50858,50874,50874,50874,50890,50890,50907,50907,50922,50922,50934,50934,50934,50950,51070,51086,51106,51124,51124,51140,51140,51157,51170,51170,51190,51190,51222,51222,51246,51263,51280,51290,51299,51299,51322,51323,51323,51338,51338,51355,51356,51372,51372,51386,51387,51406,51422,51438,51438,51456,51456,51477,51478,51478,51488,51488,51518,51518,51542,51558,51574,51575,51590,51591,51602,51603,51603,51624,51624,51625,51625,51625,51640,51640,51640,51641,51641,51657,51657,51657,51673,51673,51674,51689,51690,51702,51723,51740,51755,51755,51772,51772,51772,51791,51791,51791,51799,51800,51824,51825,51825,51840,51857,51857,51874,51874,51883,51884,51907,51907,51924,51924,51940,51940,51956,51957,51974,51986,51986,52008,52008,52024,52024,52038,52055,52055,52072,52083,52107,52107,52124,52124,52140,52141,52158,52171,52190,52190,52208,52208,52224,52224,52225,52240,52240,52257,52271,52271,52283,52283,52306,52306,52306,52322,52323,52338,52338,52355,52356,52368,52390,52390,52406,52406,52423,52423,52439,52456,52465,52489,52505,52523,52538,52694,52711,52723,52723,52739,52739,52756,52756,52775,52775,52776,52786,52787,52838,52838,52838,52870,52870,53102" d="m334.50348,313.88889c-1,1 -1.17743,1.69574 -2,2c-0.89801,0.33218 -1.58237,0.8508 -2,1.54166c-0.50955,0.84296 -0.57861,1.69296 -1.16669,2.29169c-0.58691,0.5975 -1.49472,1.16956 -1.8815,1.86667c-0.44574,0.80338 -0.76361,1.69705 -1.28516,2.29999c-0.54517,0.63025 -1.34521,1.14011 -1.83334,2c-0.32523,0.57294 -1.01038,1.32602 -1.48599,2.00983c-0.53378,0.76746 -0.87808,1.29877 -1.46332,2.30618c-0.39401,0.67828 -0.74969,1.37924 -1.36801,2.36533c-0.33163,0.5289 -0.74823,1.37842 -1.63199,2.06534c-0.57523,0.44711 -1.3833,0.80594 -2.05869,1.43866c-0.67432,0.63171 -1.39975,1.29141 -1.65866,2.14801c-0.26547,0.87836 -0.05164,1.68704 -0.59201,2.56934c-0.43347,0.70779 -0.6701,1.54184 -0.29065,2.29733c0.43558,0.86719 0.76068,1.57315 1.42581,2.09998c0.74454,0.58972 1.56195,0.96997 2.29019,1.70001c0.49982,0.50104 0.87766,1.49118 1.02533,2.17465c0.20587,0.95294 0.82648,1.59268 0.97015,2.52536c0.13705,0.8895 0.00674,1.79999 0.00452,2.69998c-0.00226,0.91351 -0.07251,1.65866 -0.28403,2.65201c-0.13324,0.62576 -0.40167,1.58258 -0.59448,2.68365c-0.12585,0.71872 -0.05151,1.75565 -0.1575,2.439c-0.1492,0.96198 -0.77881,1.68872 -0.92801,2.65067c-0.10599,0.68338 -0.13638,1.66043 -0.02533,2.58536c0.11142,0.92807 0.46039,1.62 0.98935,2.42267c0.45856,0.69583 1.0614,1.51495 1.54166,2.16666c0.39807,0.54019 1.22479,1.11505 1.9375,1.47916c1.02057,0.52139 1.53491,1.22086 1.52084,2.12085c-0.0141,0.90085 -0.62701,1.53198 -1.14935,2.03598c-0.78342,0.75592 -0.74451,1.63651 -1.29401,2.34283c-0.51498,0.66196 -1.33716,0.9798 -2.19965,1.56403c-0.67706,0.45862 -1.39728,0.98004 -1.77835,1.24249c-0.77844,0.53616 -1.97549,1.298 -2.76965,1.75751c-0.38629,0.22351 -1.14981,0.62531 -1.83835,1.05582c-1.22253,0.7644 -1.72522,1.16531 -2.30447,1.80133c-0.6918,0.75958 -1.11774,1.61746 -1.55017,2.11469c-0.69269,0.79648 -1.69073,1.01245 -2.07434,1.98532c-0.33069,0.83868 -0.43039,1.63742 -0.875,2.5c-0.36929,0.71649 -0.75473,1.47162 -1.16666,2.04166c-0.45471,0.62921 -0.82721,1.64206 -1,2.4375c-0.16345,0.7525 -0.78934,1.64438 -1.29468,2.32617c-0.6561,0.88519 -0.63565,1.70325 -0.78799,2.42667c-0.20514,0.97412 -0.80377,1.92633 -0.88135,2.59332c-0.11652,1.00192 -0.03598,1.80002 -0.03598,2.66c0,0.91919 0,1.91467 0,2.71469c0,0.99982 0,1.77914 0,2.77866c0,0.77399 0,1.67401 0,2.53732c0,0.98401 0,1.80551 0,2.69467c0,0.98917 0,1.76849 0,2.76782c0,0.82019 0,1.6575 0,2.67419c0,0.69464 0,1.71133 0,2.65182c0,0.86215 -0.12225,1.73611 0.22131,2.67416c0.25342,0.69196 0.73151,1.50262 0.77417,2.36865c0.04404,0.89444 0.00452,1.854 0.00452,2.81934c0,0.65866 0,1.66669 0,2.49469c0,0.8815 0,1.8595 0,2.65598c0,0.996 0,1.836 0,2.79733c0,0.88535 0,1.64252 0,2.547c0,0.80002 0,1.75967 0,2.56369c0,0.82199 0,1.853 0,2.733c0,1.02032 0,1.79431 0,2.69434c0,0.86331 0,1.84732 0,2.66882c0,0.88916 0,1.87833 0,2.65765c0,0.99933 0,1.81952 0,2.72086c0,0.89999 -0.10477,1.69919 -0.64734,2.35266c-0.49033,0.59055 -0.92639,1.41034 -1.30002,2.24731c-0.34464,0.77197 -0.68524,1.65729 0.15002,1.70001c0.76697,0.03922 1.80264,0 2.54666,0c1.108,0 1.90134,0 2.79349,0c0.71851,0 1.509,0 2.53568,0c0.90067,0 1.92151,0 2.7215,0c0.79999,0 1.7955,0 2.54285,0l1.02115,0" id="svg_10" stroke-width="2" stroke="#000" fill="none"/>
  <path t="54871,54982,55004,55031,55051,55051,55070,55166,55206,55206,55238,55256,55256,55282,55288,55288,55324,55324,55347,55347,55356,55357,55390,55390,55462,55502,55542,55582,55606,55606,55623,55648,55703,55735,55754,55754,55780,55780,55788,55788,55805,55806,55825,56007,56030,56030,56049,56080,56080,56087,56087,56087,56087,56105,56105,56105,56105,56140,56141,56141,56141,56160,56160,56160,56181,56181,56182,56182,56213,56213,56213,56213,56224,56224,56224,56249,56249,56280,56292,56293,56309,56331,56331,56331,56354,56354,56354,56408,56408,56408,56408,56408,56408,56444,56444,56444,56444,56444,56444,56444,56444,56444,56460,56460,56460,56460,56460,56460,56460,56460,56460,56481,56482,56482,56482,56482,56482,56482,56482,56482,56503,56504,56504,56504,56504,56523,56523,56523,56523,56524,56534,56534,56534,56534,56535,56556,56556,56556,56599,56599,56599,56618,56618,56647,56648,56664,56665,56686" d="m401.50348,345.88889c2.58932,-0.03601 3.34573,-0.52744 4.19998,-0.91602c0.76312,-0.34714 1.35233,-0.74701 2.10001,-1.37949c0.75577,-0.63931 1.70001,-0.7045 2.5,-0.7045c0.836,0 1.69803,0.10764 2.54733,-0.05716c0.92575,-0.17963 1.74603,-0.88068 2.53799,-0.9415c0.94791,-0.07278 1.71661,0.02924 2.71466,-0.00583c0.80127,-0.02814 1.79749,-0.28665 2.40002,-0.49551c0.99597,-0.34521 1.91495,-0.1655 2.75714,-0.72134c0.72745,-0.4801 1.44284,-0.77866 2.34283,-0.77866c0.90002,0 1.70001,0 2.60001,0c0.89999,0 1.80002,0 2.60449,0c1.01685,0 1.69553,0 2.67419,0c0.90533,0 1.85733,0 2.62265,0c0.99417,0 1.74152,-0.00244 2.76266,0c0.936,0.00226 1.89252,0.09119 2.35068,0.80133c0.45786,0.70972 0.26852,1.65057 0.45599,2.34c0.33099,1.21735 0.68274,1.98038 0.82935,2.40033c0.30026,0.86005 0.68967,2.12042 0.83066,2.88901c0.12921,0.70444 0.19379,1.72055 0.336,2.73599c0.10062,0.71854 0.26691,1.44632 0.48065,2.5235c0.19348,0.97504 0.315,1.80356 0.34201,2.56052c0.0386,1.08203 0.01068,1.71866 0.01068,2.77017c0,0.73099 0,1.8125 0,2.49384c0,0.96448 0,1.88397 0,2.78497c0,0.87903 0,1.686 0,2.73102c0,0.85199 0.14932,1.83282 -0.16669,2.80267c-0.22516,0.69101 -0.64847,1.60403 -1.33331,2.16666c-0.68927,0.56625 -1.56296,0.68341 -2.33334,1c-0.94995,0.39038 -1.61484,0.76498 -2.59033,1.32132c-0.58932,0.33609 -1.36383,0.69083 -1.85501,0.85333c-0.56454,0.18677 -1.22501,0.38031 -2.888,0.65869c-1.00781,0.1687 -2.1312,0.28796 -3.34048,0.405c-1.27472,0.12338 -2.59668,0.2251 -3.94351,0.315c-1.35016,0.09012 -2.6835,0.17068 -5.216,0.28c-1.16028,0.05008 -2.24393,0.08405 -3.25348,0.1095c-0.93845,0.02365 -1.80899,0.03806 -2.6145,0.04648c-0.7435,0.00778 -1.42801,0.01001 -2.63202,0.01068c-0.52582,0.00031 -1.00665,0 -1.44748,0c-0.40585,0 -0.78168,0 -1.13251,0c-0.33084,0 -0.64667,0 -1.25333,0c-0.30035,0 -0.90903,0 -1.87201,0c-0.69867,0 -1.871,0 -2.74234,0c-0.45767,0 -1.40698,0 -2.38834,0c-0.99731,0 -1.99338,0.00452 -2.96533,-0.01068c-0.46954,-0.00732 -1.36774,0.01401 -2.53198,-0.15598c-0.94141,-0.13745 -1.68991,-0.4678 -2.66669,-0.66669c-0.77325,-0.15744 -1.57361,-0.10593 -2.69016,-0.16681c-0.85812,-0.04678 -1.36484,-0.87851 -2.02985,-1.08386l-0.93866,-0.34131l-0.69067,-0.29068l-0.94232,-0.284" id="svg_11" stroke-width="2" stroke="#000" fill="none"/>
  <path t="65583,65719,65719,65728,65728,65743,65743,65743,65757,65757,65775,65775,65775,65775,65775,65775,65791,65791,65791,65791,65791,65791,65791,65791,65791,65803,65804,65804,65804,65804,65804,65804,65804,65804,65821,65822,65822,65822,65823,65823,65823,65823,65823,65839,65839,65839,65840,65840,65840,65840,65857,65857,65857,65857,65857,65874,65875,65875,65875,65875,65890,65891,65891,65891,65902,65903,65903,65903,65903,65923,65923,65923,65924,65940,65940,65940,65940,65957,65957,65957,65973,65973,65973,65973,65991,65991,65991,66007,66007,66007,66023,66023,66023,66023,66041,66041,66042,66057,66057,66057,66074,66075,66075,66089,66090,66090,66099,66100,66100,66123,66123,66139,66141,66431,66431,66431,66455,66471,66495,66518,66519,66531,66548,66549,66572,66589,66590,66606,66622,66623,66640,66640,66710,66711,66711,66830,66843,66862,66863,66879,66895,66906,66920,66932,66954,66954,66954,66971,66971,66971,66987,66988,66988,66988,66988,67004,67004,67019,67020,67020,67038,67039,67039,67039,67039,67039,67055,67055,67055,67055,67072,67072,67072,67088,67089,67089,67105,67105,67105,67105,67121,67121,67121,67121,67121,67137,67138,67153,67153,67172,67172,67172,67189,67189,67189,67206,67206,67207,67207,67217,67218,67218,67218,67239,67239,67239,67255,67255,67255,67272,67288,67289,67289,67306,67306,67317,67317,67317,67339,67343,67343,67355,67356,67371,67372,67388,67388,67406,67406,67415,67416,67439,67439,67439,67455,67465,67465,67487,67503,67524,67524,67538,67538,67556,67556,67556,67573,67595,67608,67608,67623,67624,67640,67681,67751,67792" d="m39.50347,241.88889c0,-2.00534 0,-2.74933 0,-3.85733c0,-0.79333 0,-1.68533 0,-2.64267c0,-0.73199 0.00009,-1.70367 0,-2.63867c-0.00008,-0.84833 0.00045,-1.61708 -0.02084,-2.56966c-0.0123,-0.55042 -0.03242,-1.15286 -0.0645,-1.80901c-0.0725,-1.48312 -0.1345,-2.31111 -0.19867,-3.18933c-0.0671,-0.91846 -0.14171,-1.86664 -0.216,-2.83501c-0.07505,-0.9783 -0.15121,-1.95639 -0.216,-2.925c-0.12482,-1.86617 -0.16594,-2.74719 -0.19867,-3.592c-0.03148,-0.81255 -0.05169,-1.59729 -0.0645,-2.358c-0.01247,-0.74063 -0.01758,-1.46533 -0.0195,-2.17799c-0.00379,-1.40533 -0.00133,-2.10533 -0.00133,-2.80533c0,-0.70001 0,-1.40001 0,-2.10001c0,-0.7 0,-1.39999 0,-2.10001c0,-1.39999 0,-2.79599 0,-3.4865c0,-0.6815 0,-1.351 0,-2.00549c0,-1.252 0,-2.408 0,-3.45201c0,-0.4845 0,-1.39349 0,-2.24249c0,-1.2135 0,-2.0135 0,-2.81351c0,-0.79999 0,-1.59999 0,-2.79999c0,-0.8 0,-1.60001 0,-2.40001c0,-1.2 0,-2 0,-2.8c0,-0.79999 0,-1.59999 0,-2.79984c0,-0.79565 0,-1.57933 0,-2.34299c0,-1.43567 0,-2.10001 0,-3.04651c0,-0.60933 0,-1.812 0,-2.42133c0,-0.9465 0,-1.95601 0,-3.03751c0,-0.731 0,-1.442 0,-2.709c0,-0.78149 0,-1.491 0,-2.46449c0,-0.82501 0,-1.74001 0,-2.74501c0,-0.71599 0,-1.448 0,-2.5235c0,-0.9765 0,-1.8 0,-2.758c0,-0.97318 0,-1.77716 0,-2.59917c0,-1.03134 0,-1.72734 0,-2.63667c0,-1.00133 0,-1.83682 0,-2.71733c0,-0.8985 0,-1.78799 0,-2.64149c0,-1.03551 0,-1.9155 0,-2.7905c0,-0.828 -0.0346,-1.71059 0.02083,-2.64584c0.03967,-0.66943 0.5894,-1.50482 1.47917,-1.52083c0.91052,-0.01637 1.82133,0 2.67467,0c0.94,0 1.82533,0 2.62533,0c0.95717,0 1.85266,0 2.716,0c0.85867,0 1.8055,0 2.69467,0c0.98933,0 1.78933,0 2.78933,0c0.78933,0 1.51496,-0.02515 2.58933,0c0.89056,0.02084 1.13371,0.7867 1.49467,1.43201c0.47278,0.84523 1.444,1.02148 2.2115,1.51532c0.69637,0.44807 0.61744,1.58229 1.36867,2.15283c0.55399,0.42073 1.41067,0.55609 2.19317,1.22168c0.55392,0.47116 0.93018,1.20889 1.68533,2.32066c0.45211,0.66562 0.70338,1.00095 1.20667,1.67084c0.4783,0.63664 1.26431,1.64749 1.86533,2.29066c0.68799,0.73624 1.25477,1.24484 1.847,1.972c0.73396,0.90117 0.9675,1.283 1.491,2.0865c0.5557,0.85292 0.82171,1.29768 1.36333,2.17082c0.51705,0.83353 0.99733,1.59467 1.43733,2.28401c0.58499,0.91649 1.07969,1.71617 1.494,2.42549c0.37772,0.64667 1.05944,1.67012 1.58867,2.25717c0.55344,0.61391 1.17641,1.188 1.76849,1.81349c0.64529,0.6817 1.10022,1.22864 1.81651,2.25034c0.26767,0.38181 0.79364,1.19514 1.28166,2.02417c0.45262,0.76889 0.96793,1.71332 1.25567,2.5495c0.30013,0.87215 0.55977,1.58467 1.04166,2.5625c0.29832,0.60533 0.62489,1.2258 1.10001,2.42149c0.21115,0.53137 0.50159,1.38864 0.89999,2.57851c0.20081,0.59973 0.49995,1.50002 0.7,2.10001c0.40006,1.19986 0.57836,1.80592 0.936,2.66399c0.23255,0.55797 0.86199,1.54114 1.34317,2.23601c0.46659,0.6738 0.87044,1.67937 1,2.47917c0.1213,0.74883 0.54584,1.81744 0.85416,2.6875c0.22926,0.64694 0.25124,1.48543 0.8765,2.43333c0.42154,0.63905 1.17046,1.37105 1.5285,2.00449c0.46345,0.81992 0.64834,1.81575 0.73634,2.61017c0.08582,0.77469 0.2884,1.8295 0.72984,2.53351c0.47087,0.75095 0.92739,1.40382 1.21149,2.36783c0.22224,0.7541 0.4829,1.73027 0.88534,2.40001c0.45782,0.7619 1.02904,1.43883 1.39867,2.252c0.32735,0.72017 0.58749,1.47057 1.0955,2.42216c0.525,0.98346 0.38477,1.75682 0.92583,2.567c0.48524,0.72658 1.24824,1.30954 1.77866,1.76366c0.70509,0.60365 0.91718,1.51393 1.16667,2.47917c0.20786,0.80421 0.49008,1.53412 0.83333,2.47917c0.3056,0.8414 1.0776,1.45889 1.47917,2.04166c0.50756,0.73656 0.54617,1.61784 1.04166,2.45834l0.77467,0.37799l0.58317,0.74268l0.34267,0.77882" id="svg_13" stroke-width="2" stroke="#000" fill="none"/>
  <path t="69337,69455,69474,69492,69508,69508,69508,69524,69524,69524,69524,69524,69541,69541,69541,69541,69541,69550,69550,69550,69550,69550,69574,69574,69574,69574,69592,69592,69592,69592,69592,69607,69607,69607,69607,69624,69624,69624,69624,69636,69655,69656,69672,69672,69689,69689,69705,69722,69722,69739,69739,69879,69879,69892,69899,69922,69939,69955,69955,69968,69968,69989,69991,70005,70022,70047,70079,70279,70295,70295,70309,70324,70325,70338,70361,70362,70369,70369,70392,70392,70392,70392,70405,70406,70406,70406,70422,70423,70423,70423,70423,70442,70442,70442,70456,70456,70456,70456,70466,70466,70493,70493,70504,70504,70504,70523,70523,70523,70543,70543,70543,70551,70552,70572,70573,70593,70593,70606,70606,70606,70622,70664,70664,70664,70695,70696,70743,70743" d="m60.50347,257.88889c0,-1.70001 0.1119,-2.60939 -0.02084,-3.52083c-0.14468,-0.9935 -0.52315,-1.5545 -0.7805,-2.3365c-0.32832,-0.99768 -0.50727,-1.80702 -0.67783,-2.68434c-0.17733,-0.91211 -0.2668,-1.3736 -0.39933,-2.737c-0.08428,-0.86696 -0.1057,-1.72125 -0.117,-2.57399c-0.00571,-0.4313 -0.0045,-1.76868 -0.0045,-2.70001c0,-0.94733 0,-1.422 0,-2.36333c0,-1.3625 0,-2.22684 0,-3.06317c0,-0.81633 0,-2.02083 0,-2.82083c0,-0.8 0,-1.59999 0,-2.39999c0,-1.19984 0,-1.9955 0,-2.77917c0,-0.76366 0,-1.85416 0,-2.53282c0,-0.92551 0,-1.716 0,-2.82668c0,-0.828 0,-1.68216 0,-2.66133c0,-0.78934 0,-1.83333 0,-2.58934c0,-0.93149 0.0484,-1.90009 -0.036,-2.62132c-0.11696,-0.99956 -0.58709,-1.73021 -0.79734,-2.62267c-0.20263,-0.86009 0.63467,-1.166 1.53334,-1.16667c0.9,-0.00067 1.82083,0 2.78533,0c0.72533,0 1.7145,0 2.49384,0c0.99933,0 1.8195,0 2.72083,0c0.9,0 1.8,0 2.7,0c0.9045,0 1.93301,-0.10513 2.57917,0.02083c0.95316,0.18581 1.37059,1.13692 1.73683,1.77917c0.48664,0.85339 1.02929,1.45799 1.63583,1.95717c0.81499,0.67072 1.16319,1.26859 1.64816,2.4095c0.21765,0.51202 0.49474,1.36542 0.88534,2.23466c0.4095,0.91129 0.76112,1.51216 1.17716,2.09866c0.43615,0.61484 1.25982,1.51187 1.90417,2.09866c0.66224,0.60307 1.36166,1.14856 1.98,1.716c0.80919,0.74258 1.36929,1.45155 1.797,2.138c0.59642,0.95723 0.91032,1.49918 1.431,2.32201c0.3422,0.54077 0.93276,1.54282 1.3045,2.18365c0.51094,0.88081 1.04915,1.52171 1.62116,2.36317c0.4649,0.6839 0.83362,1.31825 1.66767,2.07849c0.46329,0.42229 1.27174,0.95303 1.89867,1.60001c0.71661,0.73952 1.02746,1.34074 1.62883,2.24733c0.42136,0.63522 0.54816,1.63242 0.87383,2.26868c0.50554,0.98766 1.27099,1.19547 2.03033,1.80533c0.79365,0.63741 1.29817,1.1572 1.74966,2.064c0.45588,0.9156 0.76517,1.61459 1.2,2.364c0.52856,0.91092 0.8,1.56801 1.41866,2.16667l0.86401,0.168" id="svg_14" stroke-width="2" stroke="#000" fill="none"/>
  <path t="77361,77472,77472,77490,77490,77507,77508,77508,77524,77524,77524,77524,77546,77546,77546,77546,77546,77557,77557,77557,77557,77557,77557,77573,77573,77573,77573,77573,77609,77609,77609,77609,77609,77609,77628,77628,77628,77628,77628,77628,77628,77628,77628,77634,77634,77634,77634,77655,77655,77655,77675,77675,77675,77675,77675,77696,77696,77696,77696,77696,77696,77748,77748,77748,77748,77793,77793,77793,78279,78297,78316,78345,78345,78360,78383,78411,78430,78436,78436,78436,78469,78470,78495,78506,78506,78521,78549,78572,78582,78601,78601,78776,78808,78832,78832,78832,78864,78888,78912,78952,78977,79008,79032,79051,79051,79072,79089,79089,79104,79124,79159,79167,79167,79187,79209,79209,79210,79228,79259,79259,79281,79282,79313,79332,79332,79332,79362,79362,79373,79373,79390,79391,79412,79413,79413,79445,79445,79454,79490,79536,79545,79545,79571,79595,79605,79606,79623,79623,79623,79655,79674,79685,79706,79728,79729,79752,79769,79769,79769,79804,79823,79823,79835,79857,79880,79880,79900,79919,79976,80016,80016,80048,80048,80097,80136" d="m58.50347,265.88889c-1.4,0.87201 -1.76035,1.62393 -2.3045,2.591c-0.30946,0.54999 -1.18603,1.23453 -1.97817,1.49567c-0.49094,0.16183 -1.69523,0.75647 -2.37867,1.22134c-0.36419,0.24771 -1.10684,0.78592 -2.172,1.69199c-0.69218,0.58881 -1.01942,0.89444 -1.64583,1.52084c-0.62641,0.6264 -1.52244,1.64447 -1.821,2.00034c-0.60761,0.72424 -1.20766,1.46985 -1.857,2.16898c-0.32183,0.3465 -1.35216,1.28421 -2.1,1.80002c-0.37296,0.25723 -1.15775,0.71738 -1.94417,1.1925c-1.20578,0.72849 -1.60915,0.9975 -2.43066,1.58533c-0.43398,0.31055 -1.34186,1.005 -1.824,1.38931c-1.04917,0.83624 -1.60849,1.30573 -2.19467,1.79333c-0.60351,0.50201 -1.21447,1.01492 -1.8285,1.5285c-0.60864,0.50909 -1.20277,1.00919 -1.7835,1.48352c-1.54336,1.26056 -1.9889,1.60059 -2.772,2.18265c-0.64704,0.48093 -1.64701,1.16977 -2.16,1.60651c-0.62986,0.53625 -1.35339,1.2869 -1.82417,1.776c-0.54943,0.57083 -1.15411,1.24698 -1.46917,1.63083c-1.05605,1.28659 -1.39733,1.78912 -1.75567,2.29483c-0.72277,1.01996 -1.06283,1.53198 -1.38933,2.03134c-0.87734,1.3418 -1.31031,2.07504 -1.66967,2.67117c-0.43853,0.72748 -1.01641,1.54556 -1.512,2.13333c-0.61343,0.72751 -1.06672,1.62552 -0.61067,2.272c0.42889,0.60797 0.58622,1.61429 1.22667,2.02133c0.79168,0.50317 1.56113,0.92181 2.224,1.492c0.59834,0.51468 1.45167,1.00385 1.9955,1.42532c0.57195,0.44327 1.59676,0.80484 2.49383,1.08267c0.87872,0.27216 1.57933,0.84116 2.04933,1.51733c0.5601,0.80579 1.06328,1.3941 1.836,1.82532c0.81891,0.457 1.6,0.57468 2.4,0.57468c0.9,0 1.872,0 2.74267,0c0.708,0 1.71794,0.22684 2.6385,-0.00449c0.87111,-0.2189 1.36966,-0.93561 2.11883,-1.34818c0.83855,-0.46179 1.36965,-1.0448 1.98533,-1.56335c0.66548,-0.56049 1.44024,-0.974 2.12534,-1.47333c0.83533,-0.60883 1.67637,-0.4072 2.4795,-0.96332c0.67378,-0.46655 1.48534,-0.4754 2.30983,-0.93268c0.69205,-0.38382 1.20892,-1.12708 1.96666,-1.88132c0.48488,-0.48264 1.08474,-1.2962 1.948,-1.66269c0.82994,-0.35233 1.65544,-0.19116 2.538,-0.52332c0.70622,-0.26581 1.77024,-0.53888 2.514,-0.98068c0.72731,-0.43204 1.17519,-1.09903 2.23333,-1.49731c0.76828,-0.28918 1.80391,-0.37955 2.57917,-0.66934c0.85886,-0.32104 1.68218,-0.48819 2.5635,-0.50015c0.70801,-0.00961 1.75131,0.07687 2.643,-0.35703c0.67971,-0.33075 1.22964,-1.31674 2.11433,-1.58566c0.86292,-0.2623 1.75083,-0.35803 2.4,-0.7045c0.84937,-0.45334 1.73824,-0.26779 2.62133,-0.57434c0.70882,-0.24606 1.53556,-0.92639 2.04267,-1.59299c0.45646,-0.60004 1.25673,-1.00955 2.13599,-1.20618c0.84521,-0.189 1.59389,-0.91827 2.5,-0.97916c0.7982,-0.05362 1.67911,-0.00531 2.54267,-0.22134c0.71478,-0.1788 1.69582,-0.46936 2.643,-0.72598c0.9213,-0.2496 1.52623,-0.67285 2.41434,-1.078c0.82243,-0.37518 1.57808,-0.75974 2.37917,-0.97467c0.86695,-0.2326 1.38345,-0.88571 2.32533,-1.00449c0.87039,-0.10977 1.52083,-0.43152 2.52883,-0.99551l0.64584,-0.47916l0.72083,-0.43552l0.9,-0.08548" id="svg_16" stroke-width="2" stroke="#000" fill="none"/>
 </g>
 <g display="none">
  <title>muse_image</title>
  <image xlink:href="http://farm2.static.flickr.com/1089/1427174685_590cbaa0d0.jpg" id="muse" height="458" width="640" y="11" x="0"/>
 </g>
 <g display="none">
  <title>bbox</title>
  <rect stroke="#f00" fill="none" stroke-width="3" height="257.14525" width="595.2" y="108.22905" x="15.36" id="bbox"/>
 </g>
</svg>
