<svg width="640" height="480" xmlns="http://www.w3.org/2000/svg" xmlns:svg="http://www.w3.org/2000/svg" xmlns:xlink="http://www.w3.org/1999/xlink">
 <!-- Sketchy ANNOTATION
  ImageNet ID: n02691156_573
  URL: http://farm1.static.flickr.com/149/356218681_4174483173.jpg
  Image Width: 500
  Image Height: 500
  BBox X: 38
  BBox Y: 8
  BBox Width: 404
  BBox Height: 491
  Exposure: 2000ms
  Synset Label: airplane
  Synset ID: n02691156
  Worker Tag: airplane is flying
  Sanity Check: 
   Context
   Saved
   Shading
  Comment: 
   {}
  Worker ID: AV05BXQORIXZR
  Assignment ID: 3X31TUMD7XMIG64SD8TI1NNKBV8L1Z
  HIT ID: 35A1YQPVFEGDR3ZB3QTFNDDO6CY5I2
  Work Time: 5817s
  Worker Score: 0.9286
 END ANNOTATION -->
 <g display="inline">
  <title>Layer 1</title>
  <path t="0,175,191,208,208,225,242,242,258,258,276,292,310,327,327,344,361,378,395,396,412,429,429,446,463,463,481,481,498,515,515,532,532,550,550,567,584,602,602,602,619,619,636,653,653,671,671,688,689,705,722,738,738,755,755,772,789,789,789,806,806,822,823,840,840,857,857,873,873,890,890,908,908,925,942,942,959,959,959,976,976,993,1011,1011,1028,1028,1028,1045,1045,1063,1063,1079,1079,1079,1096,1097,1097,1114,1114,1132,1132,1132,1148,1148,1148,1166,1166,1182,1182,1183,1199,1199,1200,1216,1217,1233,1234,1251,1251,1251,1268,1268,1268,1287,1287,1304,1304,1304,1319,1319,1319,1337,1337,1337,1353,1353,1370,1370,1370,1387,1387,1387,1403,1404,1421,1421,1421,1438,1438,1438,1454,1455,1472,1472,1472,1488,1489,1489,1505,1506,1506,1523,1523,1523,1540,1540,1540,1558,1558,1574,1575,1575,1591,1592,1592,1608,1609,1609,1626,1626,1643,1643,1643,1660,1660,1677,1678,1694,1695,1695,1711,1711,1711,1712,1728,1728,1746,1746,1763,1763,1763,1780,1780,1798,1798,1814,1815,1832,1832,1832,1849,1849,1867,1885,1885,1885,1902,1902,1902,1919,1919,1935,1952,1952,1969,1969,1969,1986,1986,1986,1986,2003,2003,2020,2020,2037,2037,2037,2054,2054,2071,2071,2088,2088,2088,2105,2105,2122,2123,2140,2140,2158,2158,2158,2174,2174,2192,2192,2192,2209,2209,2209,2226,2226,2226,2244,2244,2244,2244,2261,2261,2261,2277,2277,2278,2294,2294,2295,2311,2312,2312,2328,2328,2328,2345,2346,2346,2363,2364,2364,2381,2381,2381,2398,2398,2415,2415,2415,2432,2432,2432,2449,2449,2467,2467,2484,2484,2485,2500,2500,2500,2519,2519,2534,2534,2534,2551,2551,2567,2567,2584,2584,2584,2601,2602,2602,2619,2619,2636,2636,2652,2653,2669,2669,2670,2686,2703,2703,2720,2721,2738,2738,2754,2755,2772,2772,2772,2790,2790,2790,2808,2808,2808,2824,2841,2842,2859,2875,2876,2894,2909,2909,2926,2943,2943,2960,2960,2976,2976,2993,2993,3010,3027,3027,3044,3061,3061,3078,3094,3094,3112,3112,3128,3128,3145,3145,3163,3180,3180,3180,3199,3199,3216,3216,3233,3249,3249,3266,3267,3267,3282,3283,3299,3299,3316,3316,3333,3333,3350,3350,3350,3367,3367,3367,3384,3401,3401,3401,3419,3419,3436,3436,3453,3454,3471,3472,3488,3505,3505,3522,3522,3539,3539,3556,3556,3574,3591,3608,3608,3626,3626,3653,3670,3693,3717,3734,3751,3751,3768,3785,3802,3822,3823,3839,3861,3861,3885,3924,3941,3965,3982,3999,4016,4033,4051,4068,4086,4103,4120,4137,4157,4189,4246,4269,4269,4286,4302,4325,4357,4381,4413,4430,4492,4532,4549,4567,4589,4607,4637,4663,4740,4758,4836,5124,5142,5161,5178,5194,5195,5211,5211,5227,5244,5261,5285,5285,5302,5319,5336,5354,5354,5371,5388,5405,5422,5439,5456,5474,5492,5492,5511,5533,5550,5566,5567,5584,5584,5601,5619,5619,5619,5636,5653,5670,5670,5688,5705,5726,5727,5743,5743,5765,5782,5805,5822,5839,5855,5873,5890,5909,5909,5926,5926,5965,5982,5999,5999,6016,6033,6051,6068,6085,6086,6102,6103,6120,6137,6137,6154,6171,6171,6188,6188,6188,6206,6222,6240,6240,6259,6259,6259,6276,6276,6276,6292,6292,6308,6308,6325,6342,6343,6360,6360,6377,6394,6411,6412,6429,6429,6446,6446,6464,6480,6480,6498,6514,6514,6532,6532,6550,6550,6566,6566,6567,6583,6583,6601,6601,6601,6618,6618,6618,6634,6635,6652,6652,6652,6670,6670,6670,6686,6687,6687,6687,6703,6704,6704,6721,6721,6721,6738,6738,6739,6739,6755,6756,6756,6772,6772,6772,6790,6791,6791,6807,6807,6808,6824,6824,6824,6825,6840,6840,6857,6857,6874,6874,6890,6891,6891,6907,6924,6924,6940,6941,6941,6957,6957,6974,6975,6991,7008,7025,7025,7042,7042,7059,7076,7094,7094,7110,7110,7128,7128,7145,7162,7162,7179,7180,7197,7214,7214,7231,7231,7231,7248,7248,7265,7265,7282,7300,7300,7317,7318,7318,7334,7334,7335,7352,7352,7369,7369,7370,7386,7387,7387,7387,7403,7403,7420,7420,7421,7439,7439,7439,7454,7454,7472,7473,7489,7489,7489,7506,7506,7522,7523,7539,7539,7556,7556,7556,7572,7572,7589,7590,7590,7606,7606,7606,7623,7623,7639,7640,7657,7657,7657,7674,7674,7674,7690,7691,7707,7707,7724,7724,7741,7742,7758,7759,7776,7776,7793,7793,7810,7811,7829,7829,7846,7846,7847,7864,7864,7879,7880,7880,7896,7896,7896,7912,7913,7930,7947,7947,7964,7965,7965,7981,7982,7982,7998,7998,8014,8014,8031,8032,8048,8048,8065,8065,8082,8082,8099,8100,8116,8116,8133,8133,8150,8150,8167,8167,8167,8183,8184,8184,8201,8201,8202,8218,8237,8238,8254,8255,8255,8270,8287,8287,8304,8304,8320,8321,8338,8339,8355,8372,8372,8389,8389,8405,8406,8406,8423,8423,8440,8441,8441,8458,8458,8475,8476,8492,8492,8510,8510,8526,8527,8543,8544,8544,8560,8561,8578,8578,8595,8596,8613,8613,8614,8630,8630,8647,8664,8664,8681,8681,8681,8698,8698,8699,8716,8716,8733,8733,8750,8751,8751,8767,8768,8768,8784,8802,8803,8803,8819,8820,8837,8837,8852,8853,8869,8869,8886,8886,8887,8903,8903,8920,8920,8937,8937,8953,8953,8971,8971,8971,8971,8987,8987,9004,9005,9021,9038,9038,9054,9071,9089,9106,9123,9140,9140,9157,9174,9191,9208,9225,9243,9260,9277,9278,9294,9311,9329,9346,9365,9382,9400,9418,9434,9435,9451,9468,9484,9485,9501,9518,9535,9535,9553,9569,9586,9604,9621,9638,9655,9673,9690,9709,9709,9743,9761,9778,9812,9837,9855,9872,9890,9906,9933,9950,9981,10020,10037,10069,10085,10103,10133,10236,10276,10294,10310,10345,10363,10380,10396,10397,10413,10437,10469,10469,10504,10521,10559,10576,10605,10622,10653,10717,10741,10806,10844,10877,10877,10909,10926,10964,11132,11188,11206,11237,11284,11324,11341" d="m298,443c-0.05716,-1.70001 -0.51556,-2.50516 -1.20001,-3.20001c-0.49622,-0.50375 -1.33096,-1.14371 -1.63333,-1.96664c-0.29178,-0.7941 -0.1647,-1.81201 -0.16666,-2.586c-0.00226,-0.89551 -0.32642,-1.75256 -0.83334,-2.414c-0.54596,-0.7124 -0.96179,-1.48703 -1.14581,-2.33334c-0.19135,-0.87997 -0.47382,-1.60721 -0.85419,-2.5c-0.32019,-0.75153 -0.16666,-1.63599 -0.16666,-2.65268c0,-0.69464 0.06921,-1.74338 -0.22134,-2.66864c-0.21982,-0.69995 -0.69992,-1.65149 -0.77417,-2.37418c-0.09622,-0.93643 -0.31888,-1.77838 -0.57916,-2.51517c-0.34467,-0.97568 -0.41489,-1.76834 -0.42532,-2.76782c-0.00854,-0.82016 -0.07578,-1.71234 -0.42532,-2.44284c-0.43127,-0.90128 -0.47903,-1.58954 -0.62735,-2.57333c-0.13098,-0.86887 -0.74744,-1.65057 -0.92648,-2.52618c-0.19302,-0.94388 0.06073,-1.69293 -0.30484,-2.59515c-0.33093,-0.81668 -0.68488,-1.70914 -0.71466,-2.39999c-0.04471,-1.03705 -0.78476,-1.55069 -0.96533,-2.35602c-0.16003,-0.71375 -0.03601,-1.72348 -0.03601,-2.64267c0,-1.00616 0,-1.81866 0,-2.73599c0,-0.74399 0,-1.78 0,-2.63199c0,-0.95334 0.03058,-1.71927 -0.00449,-2.71735c-0.02814,-0.80124 -0.2818,-1.79779 -0.57019,-2.564c-0.30627,-0.81375 -0.42465,-1.72 -0.42532,-2.672c-0.00055,-0.76532 0,-1.75949 0,-2.50684c0,-1.03183 0,-1.97867 0,-2.67801c0,-0.97916 0.0567,-1.78833 -0.08533,-2.57916c-0.18219,-1.01453 -0.6788,-1.71271 -0.85751,-2.64734c-0.173,-0.90469 -0.05716,-1.7735 -0.05716,-2.75266c0,-0.79999 0,-1.60001 0,-2.60001c0,-0.79999 0,-1.80133 0,-2.63599c0,-0.93066 0,-1.71667 0,-2.53867c0,-1.05869 0,-1.98935 0,-2.82401c0,-0.80267 0.00769,-1.63736 -0.00015,-2.82266c-0.00531,-0.80408 0.06003,-1.37061 -0.22119,-2.65717c-0.15274,-0.69873 -0.55676,-1.50729 -0.69333,-2.32285c-0.1384,-0.82648 -0.08533,-2.01999 -0.08533,-2.82401c0,-0.54932 0,-1.85315 0,-2.53867c0,-0.83466 0,-1.836 0,-2.63599c0,-1.00134 0,-1.836 0,-2.76666c0,-0.78601 0,-1.608 0,-2.66669c0,-0.93066 0,-1.56216 0,-2.56665c0,-0.80002 0,-1.80035 0,-2.64166c0,-0.729 0,-1.92633 0,-2.60901c0,-0.69867 0,-2.01599 0,-2.83499c0,-0.69302 0,-1.71451 0,-2.53519c0,-1.14581 0,-1.93182 0,-2.75381c0,-1.05869 0,-1.76819 0,-2.62085c0,-1.00583 0,-1.84048 0,-2.77115c0,-0.78601 0,-1.608 0,-2.66669c0,-0.93066 0.0202,-1.56241 -0.00134,-2.56799c-0.01788,-0.83517 -0.21429,-2.02142 -0.35132,-2.55133c-0.21317,-0.82434 -0.52383,-1.8757 -0.61133,-2.82199c-0.06247,-0.67587 -0.03601,-1.64685 -0.03601,-2.46133c0,-0.8685 0,-2.06384 0,-2.65952c0,-0.8685 0,-1.93784 0,-2.8685c0,-0.6315 0,-1.63733 0,-2.47198c0,-1.18533 0,-1.98935 0,-2.53867c0,-1.30402 0,-2 0,-2.90933c0,-1 0,-1.81601 0,-2.63202c0,-0.99866 0,-1.87332 0,-2.68399c0,-0.79999 0,-1.60001 0,-2.60001c0,-0.79999 0,-1.80133 0,-2.63599c0,-1.18552 0,-2 0,-2.57468c0,-1.18933 0,-2.08484 0,-2.66849c0,-0.83551 0,-2.06369 0,-2.91635c0,-0.80466 0.0033,-1.62534 0,-2.77115c-0.00226,-0.78152 0.07843,-1.59549 -0.16666,-2.5c-0.22968,-0.84766 -0.76233,-1.64999 -0.82266,-2.54401c-0.06662,-0.98715 -0.01068,-1.78934 -0.01068,-2.78934c0,-0.79999 0,-1.60001 0,-2.59549c0,-0.74734 0,-1.78986 0,-2.73785c0,-0.67648 0,-1.452 0,-2.49998c0,-0.93068 0,-1.76534 0,-2.76218c0,-0.74733 0,-1.77916 0,-2.726c0,-0.69933 0,-1.6785 0,-2.49983c0,-0.69299 0,-1.82133 0,-2.48399c0,-1.04401 0,-1.72667 0,-2.92267c0,-0.7095 0,-1.75084 0,-2.58183c0,-0.9595 0,-1.711 0,-2.50751c0,-0.99733 0,-1.87199 0,-2.88266c0,-0.8 0,-1.8 0,-2.60001c0,-0.8 0,-1.8 0,-2.59999c0,-1 0,-1.8 0,-2.8c0,-0.8 0,-1.8 0,-2.60001c0,-0.8 0,-1.8045 0,-2.65717c0,-0.96416 0,-1.76816 0,-2.59016c0,-1.03134 0,-1.95267 0,-2.63667c0,-1.00266 0,-1.85767 0,-2.47766c0,-1.3595 0,-2.0865 0,-2.8175c0,-0.711 0,-1.978 0,-2.75949c0,-0.944 0,-1.94534 0,-2.76134c0,-0.81599 0,-1.81734 0,-2.52083c0,-0.7485 0,-1.94717 0,-2.62984c0,-1.04401 0,-2.01601 0,-2.83951c0,-0.72449 0,-1.93115 0,-2.73515c0,-0.82201 0,-1.85335 0,-2.54935c0,-0.90933 0,-1.90933 0,-2.72533c0,-0.81599 0,-1.81467 0,-2.68933c0,-1.01083 0,-1.8315 0,-2.496c0,-0.99867 0,-1.81467 0,-2.63066c0,-0.99867 0,-1.87334 0,-2.88417c0,-0.82066 0,-1.96651 0,-2.7525c0,-0.82201 0,-1.88066 0,-2.59016c0,-0.85266 0,-1.85716 0,-2.65717c0,-1.00017 0,-1.82083 0,-2.48534c0,-0.99733 0,-1.79384 0,-2.98134c0,-0.68266 0.02191,-1.66716 -0.01068,-2.59467c-0.0278,-0.79137 -0.19498,-1.82204 -0.41464,-2.50267c-0.27145,-0.84111 -0.54205,-1.83476 -0.57019,-2.63599c-0.0351,-0.99939 -0.00449,-1.8 -0.00449,-2.8c0,-0.8 0,-1.8 0,-2.58934c0,-0.72533 0,-1.71066 0,-2.696c0,-0.72533 0,-1.71466 0,-2.51466c0,-1 0,-1.78934 0,-2.83333c0,-0.828 0,-1.70967 0,-2.43867c0,-0.83699 0,-2.02783 0,-2.62349c0,-0.86852 0,-1.93784 0,-2.85783c0,-0.76001 0,-1.74667 0,-2.73067c0,-0.69067 0,-1.75883 0,-2.61618c0,-0.78516 0,-1.72516 0,-2.73316c0,-0.756 0,-1.6875 0,-2.65067c0,-0.69067 0,-1.76783 0,-2.48533c0,-1.036 0,-1.78001 0,-2.88767c0,-0.72166 -0.02347,-1.66415 0.00134,-2.627c0.01782,-0.69131 0.43442,-1.55292 0.832,-2.516c0.27417,-0.66417 0.16174,-1.64903 0.45065,-2.48534c0.25516,-0.73859 0.63657,-1.71021 0.69516,-2.49383c0.07455,-0.99694 0.02084,-1.77351 0.02084,-2.6735c0,-0.86333 0,-1.86817 0,-2.68067c0,-0.91733 -0.0502,-1.66261 0.00134,-2.69733c0.0426,-0.85506 0.46494,-1.77882 0.71466,-2.48533c0.29785,-0.84267 0.284,-1.80566 0.284,-2.52567c0,-1.125 0,-1.9065 0,-2.69701c0,-1.1185 0,-1.876 0,-2.74667c0,-0.91917 0,-1.91467 0,-2.71466c0,-1 0,-1.8 0,-2.8c0,-0.81067 0,-1.45717 0,-2.68266c0,-0.7965 0,-1.548 0,-2.50751c0,-0.97649 -0.00043,-1.85149 0,-2.4965c0.00067,-0.99599 -0.12332,-1.81925 0.16666,-2.98c0.17453,-0.6986 0.73035,-1.49134 0.8125,-2.33334c0.09503,-0.9741 -0.07959,-1.80907 0.05685,-2.636c0.14404,-0.87299 0.62354,-1.55249 0.8425,-2.56384c0.16629,-0.76801 0.01349,-1.79562 0.20682,-2.68416c0.17303,-0.79522 0.73462,-1.60831 0.87866,-2.48c0.15347,-0.92878 0.20267,-1.80267 0.53601,-2.636c0.33334,-0.83333 0.49774,-1.69549 0.5,-2.6c0.00223,-0.9 -0.00067,-1.8 0,-2.7c0.00067,-0.9 0.23499,-1.6577 0.64734,-2.4c0.45798,-0.8244 1.0708,-1.31664 1.40533,-2.06166c0.38513,-0.85765 0.63434,-1.5734 0.89465,-2.48567c0.25934,-0.90886 0.42346,-1.8703 1.1525,-2.50983c0.63153,-0.554 0.57782,-1.39663 1.12152,-2.1215c0.4823,-0.64301 0.61932,-1.41922 1.13132,-2.06867c0.48453,-0.61461 0.59546,-1.38652 1.07266,-2.02733c0.50772,-0.68177 0.64658,-1.45716 1.14935,-2.05067c0.5368,-0.6337 1.11227,-1.39641 1.36816,-2.27017c0.26074,-0.89038 0.34213,-1.76406 0.7045,-2.4045c0.46442,-0.82079 0.99664,-1.35464 1.43668,-2.10133c0.41284,-0.70053 0.8815,-1.59599 1.41599,-2.19867c0.5166,-0.58252 1.33914,-0.8808 1.97916,-1.52083c0.64005,-0.64004 0.93735,-1.46365 1.52084,-1.97917c0.63788,-0.56356 0.98022,-1.30155 1,-2.21467c0.01865,-0.86055 0.67368,-1.39267 1.08401,-2.08667c0.44626,-0.75476 1.04208,-0.42041 1.49066,0.40133c0.43091,0.78935 0.33374,1.73017 0.46133,2.57467c0.14523,0.96125 0.5809,1.53416 0.98932,2.42533c0.37265,0.8131 0.77463,1.64609 1.14133,2.4c0.3714,0.76362 0.81839,1.49988 0.83334,2.4c0.01486,0.89542 0.66589,1.25065 1.43201,1.684c0.72693,0.41118 0.56799,1.516 0.56799,2.416c0,0.9 -0.18161,1.95888 0.436,2.47467c0.63208,0.52787 1.45325,1.01579 1.56265,1.82533c0.12079,0.89378 0.57669,1.6604 0.91733,2.4c0.39764,0.86337 0.80673,1.53535 1.03134,2.45267c0.20789,0.849 0.52283,1.69876 1.05267,2.514c0.41696,0.64154 0.8288,1.32506 0.97916,2.3125c0.1387,0.91087 0.2887,1.73632 0.82217,2.32083c0.65686,0.7197 1.08987,1.52076 1.36533,2.36667c0.27792,0.85342 0.73978,1.6552 0.82266,2.42266c0.09781,0.90546 -0.13794,1.88911 0.36334,2.70617c0.45984,0.7495 0.70544,1.40847 1.14734,2.2045c0.44379,0.79947 0.35413,1.74938 0.72134,2.60017c0.3103,0.71891 0.74887,1.54653 0.77731,2.3305c0.03647,1.00467 -0.13522,1.92597 0.28534,2.76933c0.32993,0.66165 0.70334,1.50008 0.716,2.4c0.01266,0.90015 0.53528,1.60632 0.87851,2.50017c0.28473,0.74152 0.12149,1.72517 0.12149,2.41583c0,0.984 -0.00217,1.968 0,2.83134c0.00226,0.89551 0.31927,1.70304 0.64734,2.467c0.39081,0.91006 0.34113,1.68548 0.35132,2.41767c0.01526,1.09589 0.00134,2.07249 0.00134,2.93466c0,0.85417 -0.02374,1.834 0.01068,2.644c0.02753,0.64758 0.25946,1.87653 0.42532,2.404c0.24615,0.78288 0.76871,1.81276 1.26401,2.5335c0.50345,0.73257 0.99661,1.38725 1.21466,2.36783c0.22882,1.02899 0.05197,1.70988 0.08533,2.71734c0.02859,0.86359 0.68491,1.5898 0.94284,2.47116c0.24268,0.82928 0.05716,1.6955 0.05716,2.67417c0,0.774 -0.11856,1.69453 0.08533,2.53733c0.21481,0.88801 0.87076,1.68151 0.91333,2.36933c0.05804,0.93821 -0.09137,1.95771 0.03735,2.74001c0.14532,0.88316 0.61243,1.56561 0.84265,2.57466c0.17999,0.78888 0.24991,1.81385 0.55734,2.60001c0.23938,0.61219 0.8046,1.58215 1.12799,2.39999c0.31042,0.78498 0.37872,1.61526 0.52002,2.48534c0.16327,1.00532 0.44104,1.80845 0.63199,2.63067c0.23041,0.99209 0.20349,1.67962 0.45065,2.684c0.20413,0.82949 0.56085,1.44805 0.93317,2.4215c0.30878,0.80738 0.58282,1.67545 0.73352,2.5785c0.14923,0.89427 0.15997,1.79996 0.16531,2.39999c0.01068,1.19997 -0.00043,2.10181 0.0585,2.70001c0.11877,1.20534 0.37769,2.0977 0.51752,2.7c0.27762,1.19576 0.36246,1.79868 0.40448,2.7c0.04193,0.89923 0.02084,1.8 0.02084,2.7c0,0.90001 0,1.8 0,2.6955c0,0.86852 -0.01849,1.93819 0.00449,2.65184c0.02921,0.9064 0.21326,1.87508 0.42084,2.68866c0.14679,0.57533 0.43863,1.76079 0.51752,2.6595c0.07608,0.86642 0.05649,1.41917 0.05716,2.64734c0.00046,0.85266 0,1.85716 0,2.65717c0,1 0,1.8 0,2.8c0,0.78934 0,1.51466 0,2.5c0,0.98666 0,1.74667 0,2.66667c0,0.78149 0,1.57199 0,2.69049c0,0.89101 0,1.7955 0,2.65884c0,0.96317 0,1.7885 0,2.80533c0,0.67867 0,1.65717 0,2.47733c0,0.90134 0,1.83734 0,2.68668c0,0.91916 0,1.91333 0,2.67867c0,0.952 0,1.72 0,2.66133c0,1.008 0,1.8 0,2.65866c0,0.86334 0,1.89067 0,2.83751c0,0.69933 0,1.6785 0,2.4785c0,0.8 0,1.8 0,2.59999c0,0.99867 0,1.76401 0,2.84734c0,0.91934 0,1.7735 0,2.75267c0,0.81067 0,1.45717 0,2.42134c0,0.80399 0,1.62599 0,2.89333c0,0.66451 0,1.68533 0,2.50667c0,0.69299 0,1.82133 0,2.48399c0,1.04401 0,1.72667 0,2.92401c0,0.72899 0,1.77066 0,2.58133c0,0.87466 0,1.87334 0,2.68933c0,0.81599 0,1.81467 0,2.68933c0,1.01067 0,1.81067 0,2.81067c0,0.8 0,1.60001 0,2.60001c0,0.79999 0,1.79999 0,2.59999c0,1 0,1.8 0,2.8c0,0.8 0,1.60001 0,2.60451c0,0.63148 0,1.81683 0,2.62082c0,0.82201 0.02515,1.85403 -0.01068,2.53868c-0.04379,0.83684 -0.37909,1.82329 -0.63666,2.63599c-0.31311,0.98799 -0.34222,1.6207 -0.35266,2.76668c-0.00714,0.78596 0,1.608 0,2.66666c0,0.7095 0,1.56216 0,2.56667c0,0.8 0,1.8 0,2.60001c0,1 0,1.78934 0,2.83334c0,0.79199 0,1.65198 0,2.57117c0,0.99417 0,1.75949 0,2.71149c0,0.76801 0.00345,1.72 0,2.48532c-0.00452,0.99872 -0.01764,1.84845 -0.56799,2.79868c-0.37054,0.6398 -1.00757,1.14685 -1.31769,2.2045c-0.1796,0.61252 -0.11432,1.81683 -0.11432,2.62085c0,0.82199 0,1.85315 0,2.53867c0,0.83466 0,1.83148 0,2.75067c0,0.98532 0,1.80698 0,2.73199c0,0.91998 0,1.70599 0,2.52798c0,1.05869 0,1.76819 0,2.62085c0,1.00449 0,1.8045 0,2.80432c0,0.77933 0,1.77884 0,2.68417c0,0.952 0,1.71732 0,2.716c0,0.79999 0,1.79868 0,2.564c0,0.952 0,1.72 0,2.672c0,0.76532 0,1.76401 0,2.564c0,1.00134 0,1.836 0,2.76666c0,0.78601 0,1.608 0,2.66669c0,0.94131 0,1.61932 0,2.84933c0,0.79648 0,1.54797 0,2.50748c0,0.9765 0,1.83069 0,2.80984c0,0.78934 0,1.51468 0,2.5c0,0.98532 0,1.71066 0,2.69983c0,0.77933 0,1.77884 0,2.68417c0,0.94135 0,1.63199 0,2.616c0,0.98532 0,1.71066 0,2.70001c0,0.79999 0,1.79999 0,2.59998c0,0.80002 0,1.8045 0,2.65717c0,0.96402 0,1.75751 0,2.53302c0,1.19998 0,1.89249 0,2.84583c0,0.76532 0,1.76401 0,2.564c0,1 0,1.80002 0,2.80002c0,0.79999 0,1.79999 0,2.59998c0,0.80002 0,1.80002 0,2.60001c0,1 0,1.80002 0,2.80002c0,0.79999 0,1.79999 0,2.59998c0,0.80002 0,1.7955 0,2.71469c0,0.98532 0,1.80698 0,2.73199c0,0.91998 0,1.70599 0,2.52798c0,1.05869 0,1.76819 0,2.62085c0,1.00449 0,1.8045 0,2.80466c0,0.82068 0,1.96649 0,2.7525c0,0.82199 0,1.88068 0,2.58566c0,0.80002 0,1.84702 0,2.79501c0,0.672 0,1.66132 0,2.52383c0,0.89099 0,1.79999 0,2.54733c0,0.99548 0,1.7955 0,2.7955c0,0.79999 0,1.79999 0,2.59998c0,0.80002 0,1.80002 0,2.60001c0,0.99869 0,1.94284 0,2.85184c0,0.7175 0,1.76251 0,2.56949c0,1.17868 0,1.77734 0,2.65784c0,0.83551 0,1.83417 0,2.67416c0,0.96268 0,1.73068 0,2.67203c0,1.008 0,1.87015 0,2.77466c0,0.89999 0,1.79999 0,2.69998c0,0.90002 0.14651,1.83405 -0.08533,2.5c-0.30835,0.88568 -0.896,1.59949 -0.91467,2.5c-0.01865,0.8985 -0.62317,1.44968 -0.97916,2.22086c-0.37317,0.80841 -0.17416,1.83585 -0.54169,2.45831c-0.49307,0.83511 -1.24615,1.32886 -1.83182,1.96817c-0.53433,0.58325 -1.08023,1.30386 -1.48068,2.05267c-0.42328,0.79144 -0.98007,1.33154 -1.388,2.10001c-0.34503,0.64996 -0.69467,1.56631 -1.21466,2.29999c-0.55783,0.78708 -1.20682,1.30002 -1.564,2.10001c-0.35718,0.79999 -1.08746,1.42844 -1.564,2.10001c-0.51489,0.72568 -1.15298,1.27707 -1.42532,2.01065c-0.30972,0.83426 -0.43198,1.64819 -0.88934,2.48917c-0.40652,0.7475 -0.99261,1.26541 -1.12268,2.10019c-0.14258,0.91528 -0.86246,1.25699 -1.57333,1.836c-0.61246,0.49887 -0.42532,1.564 -0.42532,2.46399c0,0.89999 0.07306,1.85016 -0.42532,2.47467c-0.4852,0.60797 -0.30682,1.46771 -0.57916,2.32083c-0.26193,0.82053 -0.98886,1.33218 -1.42084,2.10449c-0.45758,0.81808 -0.91147,1.45123 -1.54935,2.02533c-0.57874,0.52087 -1.01343,1.38895 -1.72983,1.57019c-0.86816,0.21964 -1.77112,-0.11414 -2.34818,-0.64285c-0.69131,-0.63342 -1.39252,-1.09137 -1.89465,-1.70984c-0.57205,-0.70459 -0.69281,-1.47495 -1.10535,-2.34283c-0.39792,-0.83716 -1.04822,-1.61993 -1.66199,-2.01465c-0.77219,-0.49658 -1.47095,-0.77408 -2.11868,-1.452c-0.60406,-0.6322 -1.11441,-1.18564 -1.66666,-1.83334c-0.48972,-0.57434 -0.98334,-1.12003 -1.55267,-1.64734c-0.6879,-0.63712 -1.21738,-1.12634 -2.04733,-1.57401c-0.64764,-0.34933 -1.3226,-0.93787 -1.98401,-1.49466c-0.61676,-0.5192 -1.56989,-0.76654 -2.30533,-1.25867c-0.66946,-0.44797 -1.22131,-1.01465 -2.11066,-1.02533l-0.88934,-0.01068l-0.63599,-0.564" id="svg_1" stroke-width="2" stroke="#000" fill="none"/>
  <path t="14070,14902,14936,14936,14955,14973,14973,15022,15039,15039,15056,15073,15073,15090,15108,15126,15126,15142,15142,15159,15176,15176,15193,15193,15209,15226,15226,15244,15244,15261,15278,15278,15295,15295,15312,15312,15330,15330,15347,15347,15364,15364,15381,15398,15398,15416,15416,15416,15433,15433,15450,15468,15468,15487,15503,15504,15520,15520,15535,15535,15553,15570,15586,15587,15604,15621,15638,15655,15655,15672,15690,15708,15725,15743,15760,15777,15777,15812,15829,15829,15846,15864,15881,15898,16124,16124,16165,16197,16236,16292,16318,16334,16357,16381,16416,16433,16433,16433,16451,16451,16451,16468,16468,16485,16485,16502,16502,16519,16536,16536,16553,16553,16553,16569,16569,16569,16586,16586,16586,16586,16604,16604,16621,16645,16645,16669,16710,16735,16750,16767,16785,16801,16829,16829,16876,16901,16925,16959,16975,16993,16993,17010,17010,17029,17029,17029,17077,17094,17111,17188,17228,17228,17246,17262,17279,17296,17364,17383,17399,17416,17416" d="m286,394c-0.97916,1.02084 -1.15317,1.91077 -1.88666,1.99866c-0.9321,0.11169 -1.94919,0.16364 -2.66669,0.57602c-0.73459,0.42221 -1.68301,0.53796 -2.08948,1.18698c-0.49753,0.7944 -0.46942,2.04245 -1.15851,2.23569c-0.86722,0.24319 -1.66754,0.55728 -2.39999,1.20132c-0.53433,0.46982 -1.47351,0.6478 -2.31467,0.88535c-0.88361,0.24954 -1.58401,1.01599 -2.08401,1.51599c-0.69998,0.69998 -1.15689,1.24728 -1.92084,1.89999c-0.7605,0.64975 -1.62271,0.8327 -2.23633,1.60001c-0.48215,0.60287 -0.74899,1.44919 -1.56415,2c-0.65274,0.44107 -1.54126,0.86438 -2.15784,1.39999c-0.75925,0.65955 -1.23343,1.24881 -1.82535,2.15268c-0.33875,0.51727 -0.99805,1.35229 -1.6955,1.82648c-0.81268,0.55252 -1.48587,0.98849 -2.29999,1.47269c-0.80685,0.47986 -1.20682,1.08627 -1.70001,2.04816c-0.30423,0.59335 -0.63658,1.38852 -1.3,2.24283c-0.45856,0.59052 -1.2,1.25717 -1.89999,1.95718c-0.5,0.5 -1.14743,1.32101 -1.96667,1.63333c-0.79408,0.3027 -1.94164,0.25369 -2.38666,0.81332c-0.56718,0.71326 -0.35933,1.77719 -1.05734,2.36801c-0.68294,0.57806 -1.41144,1.18619 -2.08932,1.62814c-0.73392,0.47849 -1.53609,0.82312 -2.40001,1.23584c-0.85265,0.40732 -1.59923,0.53354 -2.37917,1.12134c-0.65425,0.4931 -0.85585,1.57028 -1.62067,1.87851c-0.86163,0.34726 -1.7621,0.08704 -2.73349,0.12149c-0.80653,0.02859 -1.38945,0.71783 -2.16667,1.16666c-0.6216,0.35895 -0.9342,1.39648 -1.61067,1.85867c-0.73064,0.49918 -1.65793,0.7316 -2.38933,1.14133c-0.72881,0.40826 0.09984,0.83334 0.97467,0.83334c0.82666,0 1.72533,0 2.62534,0c0.89999,0 1.79999,0 2.6955,0c0.92616,0 1.87117,0 2.55116,0c0.84,0 1.83734,0 2.65334,0c0.81599,0 1.81467,0 2.68933,0c1.0105,0 1.78984,0 2.78917,0c0.82016,0 1.6575,0 2.68317,0c0.8,0 1.75967,0 2.56366,0c0.82201,0 1.8535,0 2.56001,0c0.72449,0 1.85733,0 2.86533,0c0.69867,0 1.38135,0 2.57733,0c0.91467,0 1.88666,0 2.772,0c0.79999,0 1.71466,0 2.61066,0c0.88934,0 1.78934,0 2.68933,0c0.90002,0 1.80002,0 2.70001,0c0.79999,0 1.70001,0 2.60001,0c0.87915,0 1.75717,0 2.69998,0c0.90268,0 1.67068,0 2.70984,0c0.77551,0 1.82352,0 2.52402,0c0.89417,0 1.82333,0 2.76614,0c0.90002,0 1.80002,0 2.70001,0c0.79999,0 1.70001,0 2.60001,0c0.89999,0 1.83481,-0.24289 2.6955,0.00449c0.76788,0.2207 1.24615,0.97467 2.18982,0.99551l0.72534,0" id="svg_2" stroke-width="2" stroke="#000" fill="none"/>
  <path t="18837,18957,18957,18974,18974,18974,18991,18991,19008,19008,19008,19008,19026,19026,19042,19043,19060,19078,19095,19095,19111,19128,19128,19145,19145,19163,19180,19180,19180,19197,19197,19213,19230,19230,19247,19247,19265,19285,19303,19320,19341,19358,19381,19420,19420,19437,19454,19472,19490,19510,19510,19527,19561,19578,19594,19594,19613,19661,19661,19685,19726,19742,19760,19777,19793,19810,19827,19845,19845,19862,19878,19896,19913,19958,19976,20020,20037,20069,20124,20188,20221,20239,20255,20277,20277,20294,20310,20327,20344,20344,20361,20361,20379,20396,20413,20413,20430,20430,20430,20447,20447,20447,20464,20464,20464,20464,20481,20481,20481,20481,20499,20499,20499,20516,20516,20516,20533,20533,20533,20550,20550,20550,20567,20567,20567,20584,20584,20584,20601,20601,20618,20618,20636,20636,20636,20653,20653,20671,20671,20693,20693,20732,20749,20774,20823,20884,20901,20964,20981,21013,21053,21070,21087,21104,21121,21121,21141,21156,21175,21190,21190,21207,21229,21229,21284,21324,21349" d="m340,389c0.87201,1.41068 1.62292,1.85928 2.39999,2.48401c0.61676,0.49585 1.18597,1.05112 2,1.63333c0.7869,0.56281 1.61588,1.20197 1.99869,1.65067c0.60638,0.71069 1.06433,1.5058 1.71732,2.26001c0.47394,0.54742 1.42517,0.69336 2.17416,1.02466c0.88107,0.38974 1.48361,0.96616 2.36252,1.29999c0.70538,0.26791 1.64569,0.45981 2.44748,0.86884c0.72638,0.37054 1.35321,1.04263 2.24716,1.42133c0.87488,0.37061 1.8447,0.4704 2.47803,0.80383c0.72461,0.38147 1.3497,1.25513 1.87015,1.84351c0.63962,0.72314 1.62302,0.93811 2.3045,1.20984c0.97458,0.38861 1.69507,0.55344 2.5,1c0.79956,0.4436 1.79788,0.34067 2.44733,0.85266c0.61462,0.48453 1.46082,0.53082 2.35266,0.65182c0.82135,0.11142 1.46857,0.83173 2.30002,0.98483c0.88565,0.16309 1.60327,0.55386 2.5,0.88919c0.85065,0.31808 1.83035,-0.27148 2.61465,0.20682c0.80365,0.49008 1.38608,0.87802 2.28534,0.91467c0.70175,0.02859 1.45621,0.52441 2.2215,1.22134c0.56351,0.51318 1.43756,0.74548 2.21451,1.20398c0.78137,0.46112 1.6684,0.48599 2.564,0.57468c0.8457,0.08374 1.21524,0.93912 2.10001,1c0.89786,0.0618 1.69998,0 2.60001,0c0.89999,0 1.7756,0.11862 2.35266,0.64734c0.69131,0.63342 1.16257,1.29178 2.04733,1.35266c0.89786,0.0618 1.5809,0.28284 2.18399,0.91599c0.54688,0.57413 0.91306,1.40616 0.71466,2.28268c-0.18298,0.80847 -1.21576,1.06744 -1.79865,1.60266c-0.6188,0.56821 -1.397,1.15594 -2.30002,1.19867c-0.89899,0.04251 -1.6701,0.02051 -2.55267,0.35266c-0.70621,0.26578 -1.71082,0.62933 -2.64731,0.64734c-0.90253,0.01736 -1.67068,0 -2.47067,0c-0.771,0 -1.63202,0 -2.83066,0c-0.60934,0 -1.55585,0 -2.56534,0c-0.71735,0 -1.83334,0 -2.58069,0c-1.086,0 -1.76733,0 -2.73181,0c-0.61633,0 -1.82068,0 -2.71017,0c-0.85352,0 -1.88934,0 -2.58533,0c-0.90933,0 -1.91068,0 -2.74619,0c-0.58365,0 -1.77899,0 -2.66849,0c-0.85352,0 -1.88934,0 -2.58533,0c-0.90933,0 -1.90933,0 -2.72534,0c-0.81601,0 -1.81467,0 -2.68933,0c-1.01068,0 -1.81067,0 -2.81067,0c-0.79999,0 -1.60062,-0.03061 -2.60001,0.00449c-0.80124,0.02814 -1.79782,0.28177 -2.564,0.57019c-0.81357,0.30624 -1.6351,0.39737 -2.53601,0.42532c-0.94409,0.0293 -1.50876,0.55945 -2.17865,1.22134c-0.61673,0.60938 -0.93127,1.44211 -1.64218,1.75781c-0.87668,0.38931 -1.35764,0.79547 -2,1.02084c-0.82956,0.29105 -1.78568,-0.10696 -2.67917,0.00134c-0.91977,0.11148 -1.4541,0.8085 -2.39999,0.98798c-0.88428,0.16779 -1.81067,0.01068 -2.72131,0.01068c-0.85333,0 -1.79333,0 -2.67868,0c-0.79999,0 -1.70001,0 -2.60001,0l-0.87915,0" id="svg_3" stroke-width="2" stroke="#000" fill="none"/>
  <path t="23629,23830,23847,23847,23847,23864,23864,23881,23881,23881,23899,23899,23899,23917,23917,23917,23934,23934,23934,23934,23950,23950,23950,23966,23966,23966,23985,23985,23985,23985,23985,24002,24002,24002,24002,24002,24020,24020,24020,24020,24020,24037,24037,24037,24037,24037,24037,24054,24054,24054,24054,24054,24071,24071,24071,24071,24071,24088,24088,24088,24088,24088,24105,24106,24106,24106,24106,24123,24123,24123,24123,24140,24140,24140,24140,24140,24157,24157,24157,24157,24174,24174,24174,24174,24174,24191,24191,24191,24191,24209,24209,24209,24209,24226,24226,24226,24226,24243,24243,24243,24243,24260,24260,24260,24260,24277,24277,24277,24277,24293,24293,24294,24311,24311,24311,24327,24327,24327,24327,24344,24344,24345,24361,24361,24361,24362,24379,24379,24379,24379,24395,24395,24395,24396,24413,24413,24413,24413,24430,24430,24448,24448,24466,24466,24466,24482,24482,24482,24499,24515,24533,24550,24550,24566,24567,24584,24584,24600,24618,24618,24635,24652,24652,24670,24686,24704,24721,24722,24739,24739,24755,24756,24773,24773,24791,24809,24809,24825,24842,24859,24876,24876,24892,24893,24909,24933,24949,24966,24983,25001,25001,25018,25035,25052,25069,25069,25085,25103,25125,25142,25142,25158,25175,25175,25197,25221,25245,25285,25302,25325,25325,25349,25382,25399,25399,25416,25433,25433,25451,25467,25485,25501,25501,25518,25535,25535,25553,25553,25570,25570,25587,25587,25605,25605,25605,25622,25622,25639,25639,25656,25656,25673,25673,25690,25690,25708,25708,25725,25725,25725,25743,25743,25743,25759,25759,25760,25776,25777,25777,25795,25795,25795,25795,25795,25812,25812,25812,25812,25828,25828,25829,25829,25845,25845,25845,25846,25862,25862,25862,25862,25878,25879,25879,25879,25879,25895,25895,25895,25895,25895,25912,25912,25912,25912,25912,25912,25928,25929,25929,25929,25929,25946,25946,25946,25963,25963,25963,25963,25980,25980,25980,25980,25997,25997,25997,25997,25997,26014,26014,26014,26014,26030,26031,26031,26031,26047,26048,26048,26048,26065,26065,26065,26065,26065,26065,26081,26081,26081,26082,26082,26099,26099,26099,26099,26099,26115,26116,26116,26116,26116,26132,26132,26132,26133,26149,26149,26150,26166,26166,26166,26183,26183,26184,26201,26201,26218,26218,26218,26235,26252,26253,26269,26286,26287,26287,26303,26304,26304,26321,26321,26321,26338,26338,26339,26339,26355,26355,26355,26371,26372,26389,26389,26389,26405,26405,26422,26452,26502,26519,26520,26536,26554,26554,26571,26572,26589,26606,26629,26684,26717,26751,26768,26812,26845,26845,26923,27036" d="m280,205c-1.672,0 -2.76801,0 -3.5,0c-0.73199,0 -1.85999,0 -2.55334,0c-1,0 -1.9675,0 -2.64581,0c-0.9675,0 -2.03952,0 -2.74902,0c-0.97333,0 -1.78781,0 -2.65631,0c-0.89551,0 -1.7955,0 -2.6955,0c-0.60001,0 -1.80002,0 -2.70001,0c-0.60001,0 -1.80017,0 -2.71066,0c-0.62534,0 -1.95601,0 -2.67601,0c-0.75999,0 -1.56,0 -2.39999,0c-1.33467,0 -1.79733,0 -2.73866,0c-0.94934,0 -1.422,0 -2.808,0c-0.884,0 -1.752,0 -2.62801,0c-0.4485,0 -1.87199,0 -2.90666,0c-0.53734,0 -1.632,0 -2.18134,0c-0.54533,0 -2.11734,0 -3.08133,0c-0.4595,0 -1.34851,0 -2.2175,0c-1.31851,0 -2.23584,0 -2.70451,0c-0.94733,0 -1.89465,0 -3.28065,0c-0.44518,0 -1.30951,0 -2.14584,0c-0.81633,0 -2.02083,0 -2.82083,0c-0.8,0 -1.59999,0 -2.39999,0c-1.2,0 -2,0 -2.8,0c-0.8,0 -2,0 -2.8,0c-0.8,0 -1.59999,0 -2.39999,0c-1.2,0 -2,0 -2.8,0c-0.8,0 -2,0 -2.8,0c-0.8,0 -1.59999,0 -2.39999,0c-1.19983,0 -1.9955,0 -2.77917,0c-0.76366,0 -2.19949,0 -2.86816,0c-0.65266,0 -1.63666,0 -2.674,0c-0.73134,0 -1.47867,0 -2.59467,0c-1.06267,0 -1.73134,0 -2.70934,0c-0.65866,0 -1.69617,0 -2.43184,0c-1.15349,0 -1.94417,0 -3.1425,0c-0.79132,0 -1.55865,0 -2.286,0c-0.981,0 -2.05299,0 -2.7625,0c-0.97333,0 -1.78783,0 -2.65634,0c-0.89549,0 -1.79549,0 -2.6955,0c-0.59999,0 -1.80183,-0.01514 -2.72083,0.02083c-0.63689,0.02493 -2.00165,0.19431 -2.73184,0.33183c-0.74855,0.14099 -1.49026,0.32243 -2.58066,0.48067c-0.68037,0.09872 -1.66653,0.15294 -2.31934,0.16217c-1.36855,0.01936 -2.10001,0.0045 -2.84734,0.0045c-0.74733,0 -1.83333,0 -2.83833,0c-0.62,0 -1.47501,0 -2.7045,0c-0.6465,0 -1.65733,0 -2.478,0c-1.14584,0 -1.93184,0 -2.75385,0c-1.05865,0 -1.76366,0 -2.56366,0c-1.02567,0 -1.96167,-0.00008 -2.86166,0c-0.90018,0.00009 -1.69115,0.06912 -2.45717,0.35266c-0.75337,0.27885 -1.73897,0.5955 -2.50684,0.63667c-1.07733,0.05777 -1.93617,0.01067 -2.72133,0.01067c-0.94,0 -1.948,0 -2.81017,0c-0.8045,0 -1.7516,-0.09401 -2.60451,0.35266c-0.75223,0.39395 -1.45715,0.64508 -2.35716,0.64734c-0.94417,0.00237 -1.94284,0 -2.74284,0c-0.99866,0 -1.764,0 -2.71467,0c-0.88533,0 -1.68533,0 -2.58533,0c-0.9,0 -1.82116,-0.02348 -2.784,0.00133c-0.69131,0.01782 -1.57999,0.37595 -2.31467,0.71468c-0.85697,0.39511 -1.82053,0.11877 -2.70133,0.30482c-0.8474,0.17899 -1.59839,0.87025 -2.5,0.97917c-0.79874,0.0965 -1.48519,0.65764 -1.97467,1.38933c-0.45675,0.68275 -0.8866,1.3399 -1.10933,2.12801c-0.24828,0.87846 -0.87328,1.67964 -0.916,2.58267c-0.04253,0.89899 0.28199,1.78391 -0.11433,2.59999c-0.36791,0.75758 -1.5474,0.97595 -1.844,1.8c-0.30511,0.84772 -0.04166,1.7955 -0.04166,2.7215c0,0.87851 0,1.7785 0,2.57851c0,0.91466 0,1.84666 0,2.68399c0,0.86334 -0.12313,2.06082 0.568,2.43201c0.65141,0.34985 1.27653,0.81454 1.868,1.47333c0.61993,0.69048 1.62236,0.89775 2.264,1.25801c0.779,0.43738 1.77391,0.66699 2.51067,0.92732c0.97571,0.34476 1.81421,0.26985 2.62267,0.59201c0.83189,0.3315 1.23199,1.17754 1.6875,1.83333c0.60146,0.86589 1.28172,1.43533 2.0805,1.71333c0.96872,0.33714 1.61935,0.22636 2.5985,0.50816c0.80227,0.2309 1.63033,0.78275 2.30016,1.2785c0.8175,0.60504 1.47018,1.06189 2.47867,1.37866c0.75686,0.23773 1.69702,0.44957 2.23199,0.76801c1.02902,0.61252 1.55925,1.2291 2.24651,1.64349c0.91745,0.55319 1.76836,0.64709 2.3175,0.7245c1.05904,0.14929 2.00142,0.4178 2.67799,0.68983c0.97105,0.39044 1.79131,0.70378 2.394,0.89551c1.31438,0.41814 2.03708,0.60098 2.77867,0.79999c0.74905,0.201 1.49301,0.3918 2.55333,0.70001c0.6702,0.19481 1.64536,0.50438 2.30533,0.7c1.03532,0.30688 1.76878,0.49957 2.51601,0.7c1.11617,0.29938 2.17766,0.6033 2.84734,0.7955c0.6517,0.18704 1.63196,0.45229 2.67416,0.58316c0.73311,0.09206 1.50014,0.11038 2.283,0.17401c1.19698,0.09727 1.99873,0.22276 2.80617,0.38333c0.82741,0.16454 1.67354,0.37039 3.01083,0.664c0.46344,0.10175 1.41423,0.30127 2.38916,0.5c0.4937,0.10063 1.98918,0.40077 2.48917,0.49983c0.99536,0.1972 1.48779,0.29932 2.46417,0.46416c0.9491,0.16023 1.86839,0.27988 2.74933,0.35201c0.83923,0.06873 1.64229,0.08482 2.39999,0.168c1.4084,0.1546 2.05692,0.36183 3.03934,0.56334c1.0099,0.20714 1.73102,0.27292 2.47267,0.32733c0.74902,0.05496 2.21136,0.17403 2.89067,0.31067c0.6624,0.13324 1.63489,0.42531 2.65067,0.71466c0.71744,0.20438 1.46884,0.40192 2.24399,0.60001c0.79018,0.20193 1.98811,0.50418 2.78484,0.6955c0.78265,0.18793 1.54256,0.37704 2.63783,0.53784c0.68022,0.09985 1.66653,0.15292 2.31934,0.16217c1.36887,0.01941 2.10901,0.00449 2.88901,0.00449c0.81999,0 2.125,0 2.57967,0c0.93134,0 1.87866,0 2.35333,0c0.94133,0 2.30405,-0.00601 3.17267,0.00449c0.85275,0.01031 1.7059,0.04489 2.13666,0.08084c1.33958,0.11182 2.2688,0.26651 2.74133,0.34c0.9496,0.14767 1.88797,0.31522 3.25317,0.45319c0.43544,0.04401 1.28529,0.09338 2.11082,0.11081c0.80922,0.01709 2.0105,0.01068 2.80617,0.01068c0.78368,0 1.91917,0 2.98283,0c0.66,0 1.575,0 2.655,0c0.714,0 1.61934,0 2.58801,0c0.80399,0 1.62599,0 2.65717,0c0.90067,0 1.92149,0 2.71083,0c0.72533,0 1.71066,0 2.69466,0c0.69067,0 1.76334,0 2.68268,0c0.67999,0 1.52007,-0.01099 2.51866,0.00134c0.83566,0.01031 1.72154,0.05142 2.61467,0.22c0.90681,0.17114 1.79308,0.46338 2.7,0.612c0.8947,0.14664 1.79996,0.16031 2.39999,0.16531c1.19862,0.01001 2.07918,0.00134 2.64284,0.00134c1.27316,0 1.95717,0 3.12384,0c0.78149,0 1.57201,0 2.49998,0c0.91202,0 1.83334,-0.00067 2.72269,0c0.896,0.00067 1.64474,0.33121 2.41064,0.716c0.78592,0.39487 1.68533,0.284 2.60452,0.284c0.99417,0 1.75949,0 2.70883,0c0.91199,0 1.68799,0 2.58667,0c0.94281,0 1.85358,-0.04742 2.59998,0.35266c0.84378,0.4523 1.70001,0.64734 2.5,0.64734l0.90002,0l0.89999,0" id="svg_4" stroke-width="2" stroke="#000" fill="none"/>
  <path t="28700,28830,28846,28847,28864,28864,28881,28881,28881,28881,28898,28898,28898,28898,28915,28915,28915,28915,28933,28933,28933,28933,28933,28950,28950,28950,28950,28950,28967,28967,28967,28967,28967,28984,28984,28984,28984,28985,29001,29001,29001,29001,29019,29019,29019,29019,29035,29036,29036,29054,29054,29071,29087,29087,29104,29104,29104,29121,29121,29137,29137,29154,29154,29172,29172,29188,29188,29205,29205,29205,29222,29222,29239,29239,29239,29239,29256,29256,29256,29272,29273,29290,29290,29307,29307,29307,29324,29324,29341,29358,29358,29376,29376,29393,29410,29410,29427,29427,29445,29445,29462,29462,29479,29479,29496,29514,29514,29514,29531,29531,29549,29566,29567,29584,29601,29601,29619,29636,29636,29655,29656,29669,29669,29686,29686,29686,29703,29703,29703,29720,29720,29736,29736,29753,29754,29754,29771,29771,29771,29771,29789,29789,29806,29806,29823,29823,29840,29840,29870,29885,29903,29920,29920,29936,29936,29936,29953,29953,29953,29970,29970,29988,30006,30006,30022,30023,30039,30039,30040,30040,30056,30056,30056,30073,30073,30090,30090,30107,30107,30125,30125,30142,30159,30160,30177,30194,30194,30212,30212,30229,30252,30253,30269,30286,30303,30320,30320,30337,30337,30337,30356,30374,30409,30426,30443,30443,30461,30461,30478,30478,30495,30511,30511,30529,30529,30547,30547,30564,30564,30581,30581,30581,30598,30598,30598,30615,30615,30632,30632,30651,30651,30668,30668,30684,30701,30701,30717,30718,30735,30735,30752,30752,30752,30769,30769,30769,30769,30786,30786,30786,30786,30802,30802,30802,30803,30820,30820,30820,30820,30820,30837,30837,30837,30837,30837,30854,30854,30854,30854,30854,30871,30871,30871,30871,30871,30871,30888,30888,30888,30888,30888,30906,30906,30906,30923,30923,30923,30939,30939,30939,30956,30956,30956,30973,30973,30973,30989,30990,31007,31007,31024,31024,31024,31041,31041,31041,31057,31058,31058,31058,31074,31075,31075,31075,31091,31091,31091,31108,31108,31108,31108,31124,31124,31125,31141,31141,31141,31142,31158,31158,31158,31158,31175,31175,31175,31192,31192,31192,31208,31208,31209,31209,31226,31226,31226,31242,31242,31242,31259,31259,31259,31276,31276,31276,31276,31292,31293,31293,31293,31309,31310,31310,31310,31327,31327,31327,31327,31327,31343,31344,31344,31344,31361,31361,31361,31361,31378,31378,31378,31394,31395,31395,31411,31412,31412,31429,31429,31429,31446,31446,31447,31447,31463,31463,31463,31480,31480,31480,31480,31498,31499,31516,31516,31516,31516,31532,31532,31532,31532,31549,31549,31549,31566,31566,31566,31583,31583,31600,31621,31653,31687,31687,31704,31704,31704,31704,31721,31721,31764,31764,31852,31940,31971" d="m343,203c1.75717,0 2.65717,0 3.40451,0c0.99683,0 1.83148,0 2.76215,0c0.79501,0 1.68002,0 2.32001,0c1.39868,0 2.14932,0 2.92401,0c0.79065,0 1.98932,0 2.78934,0c0.79999,0 1.59998,0 2.79999,0c0.80133,0 1.61066,0 2.436,0c0.84933,0 1.73065,0 2.64801,0c0.94131,0 1.89066,0 2.36331,0c1.38602,0 2.26868,0 3.12735,0c0.85065,0 1.27798,0 2.59198,0c0.91602,0 1.84802,0 2.3125,0c0.91101,0 2.1875,0 2.95151,0c1.04849,0 1.7175,0 2.73599,0c0.716,0 1.8125,0 2.5235,0c0.9765,0 2.03784,0 2.70084,0c1.00769,0 1.95184,0 2.85635,0c0.91931,0 1.77359,0.01323 2.75266,0c0.78955,-0.01067 1.57809,-0.09317 2.24734,-0.70534c0.71289,-0.65207 1.40454,-1.22946 2.15717,-1.28566c0.99146,-0.07404 1.75949,-0.009 2.84732,-0.009c0.7175,0 1.758,0 2.53351,0c1.048,0 1.75751,0 2.61017,0c1.00717,0 1.8765,0 2.93784,0c0.63464,0 1.66666,0 2.36133,0c0.97198,0 2.03333,0 2.69632,0c1.009,0 1.80911,0.01283 2.80902,-0.00017c0.8002,-0.01039 1.80475,-0.15224 2.59998,-0.42517c0.80508,-0.27631 1.79419,-0.54195 2.54285,-0.57016c0.90387,-0.03406 1.82382,-0.0045 2.65717,-0.0045c0.97849,0 1.79868,0 2.75717,0c0.89999,0 1.64734,0 2.64282,0c0.80002,0 1.80002,0 2.60001,0c1,0 1.78934,0 2.83334,0c0.75598,0 1.70831,0 2.70932,0c0.70801,0 1.452,0 2.48801,0c0.85199,0 1.79468,0 2.80267,0c0.75598,0 1.6875,0 2.65067,0c0.69064,0 1.76334,0 2.68265,0c0.83334,0 1.68118,-0.11517 2.586,0.05716c0.93893,0.17883 1.47485,0.60468 2.66867,0.82133c0.79556,0.14438 1.3533,0.11617 2.65717,0.12151c0.68552,0.00281 1.52017,0 2.52151,0c0.79999,0 1.80133,0 2.63599,0c0.93066,0 1.72116,0 2.57468,0c1.18933,0 1.78799,0 2.66849,0c0.83551,0 1.83551,0 2.71017,0c1.0105,0 1.78983,0 2.78934,0c0.77399,0 1.67401,0 2.53732,0c0.96317,0 1.884,0 2.78851,0c0.86215,0 1.71634,0 2.6955,0c0.81067,0 1.45715,0 2.68399,0c0.81601,0 1.63202,0 2.62933,0c0.84,0 1.80133,0 2.68668,0c0.75717,0 1.66617,-0.00012 2.51883,0c1.12384,0.00017 1.78827,-0.01784 2.48117,0.04167c1.03622,0.08899 1.9791,0.36171 2.728,0.80899c0.68506,0.40915 1.66321,1.03011 2.272,1.10767c0.99286,0.12648 1.97937,0.02228 2.83334,0.04167c0.7926,0.01801 1.63763,0.31668 2.51398,0.64734c0.88361,0.3334 1.77673,0.54573 2.35269,1.05716c0.73227,0.65021 1.41049,1.13806 2.18533,1.3795c0.95477,0.2975 1.60651,0.74966 2.61465,0.89517c0.81317,0.11737 1.67465,0.02075 2.61469,0.02083c0.98517,0.00009 1.75476,0.22279 1.88562,1.10033c0.10663,0.71513 0.56616,1.66856 0.99969,2.39967c0.29364,0.49527 0.823,1.52916 1,2.47467c0.16095,0.85976 0.95728,1.3089 1,2.192c0.04028,0.83235 0,1.812 0,2.586c0,0.89999 0,1.76334 0,2.62199c0,0.94667 0,1.8 0,2.74268c0,0.85199 0,1.65067 0,2.63199c0,0.91734 0,1.75067 0,2.79367c0,0.729 0.00226,1.56599 0,2.457c-0.00226,0.89102 0.10803,1.76131 -0.22131,2.85716c-0.19617,0.65274 -0.65649,1.63397 -0.80402,2.3175c-0.20593,0.95425 -0.74316,1.69545 -0.922,2.478c-0.1947,0.85213 -0.46997,1.72865 -1.15265,2.44734c-0.58441,0.61522 -1.17133,1.24141 -1.78534,1.7c-0.73987,0.55255 -1.56818,0.92021 -2.53619,1.3c-0.80801,0.317 -1.38861,0.5016 -2.57849,0.89999c-0.59973,0.20081 -1.5,0.50005 -2.10001,0.7c-1.20013,0.39993 -1.79776,0.6201 -2.73599,0.864c-0.64514,0.16769 -2.04996,0.36328 -2.81067,0.40001c-0.79947,0.03859 -1.215,0.03374 -2.51999,0.036c-0.91736,0.00159 -1.85867,0 -2.33334,0c-0.94733,0 -2.33337,-0.00418 -3.21466,0.00133c-0.84937,0.00531 -1.26556,0.00066 -2.08084,0.05583c-1.2067,0.08167 -2.00739,0.22569 -2.82584,0.36818c-0.85086,0.14813 -1.74704,0.31129 -2.71201,0.40799c-1.03268,0.10347 -1.57175,0.11755 -2.66666,0.14584c-0.54926,0.01419 -1.63199,0.02016 -2.66666,0.02083c-0.96133,0.00061 -1.85068,0 -2.67599,0c-0.76935,0 -1.83585,0 -2.82135,0c-0.62534,0 -1.83618,-0.01398 -2.73151,0.0045c-0.8689,0.01793 -1.94525,0.13591 -2.64734,0.34816c-0.6543,0.1978 -1.6561,0.53464 -2.478,0.64734c-0.66357,0.09099 -1.66315,0.284 -2.47916,0.5c-0.81601,0.216 -1.8125,0.44734 -2.68933,0.48933c-1.00958,0.04836 -1.8107,0.00409 -2.81067,0.01067c-0.81073,0.00534 -1.69138,0.05698 -2.68533,0.284c-0.84131,0.19215 -1.41043,0.41429 -2.61484,0.5945c-0.60107,0.08994 -1.53577,0.1152 -2.18515,0.12018c-1.39731,0.01071 -2.12933,0.00133 -2.85333,0.00133c-0.69202,0 -1.89423,-0.02109 -2.66135,0.02083c-0.76956,0.04205 -1.96945,0.2625 -2.66135,0.40451c-0.72415,0.14862 -1.45117,0.32793 -2.85464,0.49066c-0.65686,0.07616 -1.64001,0.1102 -2.65067,0.25067c-0.71887,0.09991 -1.45493,0.24295 -2.5235,0.53783c-0.98349,0.27139 -1.80319,0.59886 -2.56052,0.89551c-0.51645,0.20229 -1.71478,0.60802 -2.39999,0.78932c-0.69623,0.1842 -2.01266,0.47307 -2.84399,0.55351c-0.75391,0.07295 -1.83868,0.05716 -2.47333,0.05716c-0.68268,0 -1.72668,-0.00266 -2.69867,0c-0.82352,0.00226 -1.79025,0.0119 -2.75467,0.2215c-0.81314,0.17673 -1.63177,0.46806 -2.41202,0.7785c-0.95944,0.38174 -1.66907,0.72122 -2.5,1c-0.96848,0.32492 -1.68784,0.49872 -2.41849,0.70001c-1.08203,0.2981 -1.7598,0.51443 -2.74817,0.77914c-0.64996,0.17407 -1.66483,0.37344 -2.75717,0.46817c-0.76263,0.06613 -1.55063,0.07501 -2.74283,0.21933c-0.80139,0.09702 -1.58899,0.26035 -2.36401,0.40802c-0.75034,0.14297 -1.81345,0.32043 -2.48782,0.36816c-1.00803,0.07135 -1.7175,0.05359 -2.89066,0.05731c-0.85834,0.00272 -1.73788,-0.00146 -2.595,0.05701c-1.16495,0.07947 -1.81079,0.2117 -2.60001,0.44284c-1.06866,0.31299 -1.66583,0.46716 -2.51965,0.49551c-0.96365,0.03198 -1.76819,0.00443 -2.59018,0.00449c-1.03149,0.00009 -1.97659,-0.00833 -2.72202,0.08533c-1.20682,0.15164 -1.89105,0.3446 -2.616,0.48935c-0.73108,0.14597 -1.79144,0.32654 -2.77866,0.38931c-0.62457,0.0397 -1.836,0.03601 -2.73151,0.03601c-0.8685,0 -1.41949,-0.02521 -2.65631,0.00449c-0.70999,0.01706 -1.78275,0.15576 -2.41751,0.27951c-1.05365,0.20538 -1.77808,0.39127 -2.86401,0.54935c-0.67902,0.09885 -1.64566,0.15488 -2.56534,0.16531c-0.90125,0.01022 -1.80133,0.00134 -2.70132,0.00134c-0.89999,0 -1.79099,0 -2.62799,0c-0.93866,0 -1.92429,-0.33633 -2.75116,0.02084c-0.71408,0.30844 -1.23685,0.97849 -2.09418,0.97916c-0.72,0.00055 -1.76001,0 -2.73199,0c-0.69467,0 -1.38934,0 -2.65152,0c-0.7605,0 -1.8765,0 -2.68149,0l-0.88251,0l-0.87915,0l-0.89999,0" id="svg_5" stroke-width="2" stroke="#000" fill="none"/>
  <path t="33069,33230,33247,33264,33281,33281,33298,33315,33315,33331,33351,33351,33365,33382,33382,33399,33399,33420,33420,33445,33461,33485,33509,33549,33573,33590,33607,33625,33625,33642,33642,33661,33677,33700,33717,33734,33735,33752,33769,33788,33806,33824,33843,33860,33876,33876,33893,33910,33941,33958,33958,33976,33993,34009,34009,34026,34026,34045,34045,34093,34110,34133,34157,34173,34192,34212,34212,34254,34272,34289,34289,34305,34306,34324,34364,34406,34437,34475,34475,34501,34534,34535,34552,34552,34569,34569,34586,34603,34621,34639,34677,34677,34701,34724,34741,34776,34793,34793,34810,34810,34827,34845,34845,34845,34878,34896,34896,34913,34930,34947,34947,34964,34990,35007,35007,35024,35040,35057,35074,35091,35091,35108,35125,35149,35205,35223,35245,35245,35261,35262,35279,35279,35296,35316,35317,35334,35365,35365,35390,35445,35500,35547,35573,35590,35590,35613,35637,35656,35672,35693,35717,35741,35765" d="m231,259c0,1.79999 0,2.70001 0,3.52084c0,0.96317 0,1.65381 0,2.72198c0,0.85733 0,1.64252 0,2.58252c0,1.008 0,1.87015 0,2.6955c0,0.96317 0,1.65381 0,2.73099c0,0.7175 0,1.74899 0,2.46152c0,1.11966 0,1.89731 0,2.88666c0,0.87915 0,1.75717 0,2.69998c0,0.90002 0,1.80002 0,2.70001c0,0.75717 0,1.65268 0,2.51599c0,0.96317 0,1.884 0,2.784c0,0.90002 -0.17355,1.73825 0.08533,2.5c0.30176,0.88794 0.79854,1.64133 1.19867,2.40002c0.45271,0.85837 1.16208,1.34763 1.63068,2.08533c0.43921,0.69144 0.32745,1.66843 0.73267,2.41467c0.41328,0.76111 0.21996,1.71048 0.35716,2.59998c0.14368,0.9314 0.64804,1.52637 1.04817,2.40002c0.33232,0.72559 0.97824,1.50165 1.61932,1.86398c0.80583,0.45544 1.91985,0.10757 2.828,0.60266c0.64984,0.35425 0.1635,1.52063 0.52083,2.3125c0.33064,0.73273 1.28952,1.13889 2.17917,1.43552c0.85765,0.28595 1.93489,0.11115 2.44284,0.73267c0.54459,0.66632 0.89301,1.32086 1.66617,1.70532c0.67592,0.33609 1.69882,0.54623 2.40433,0.67267c1.04724,0.18765 1.63792,0.94608 2.50816,0.97467c0.87804,0.02884 1.7785,0 2.57851,0c0.91466,0 1.77782,0.06552 2.60899,-0.05716c1.00476,-0.14832 1.78284,-0.50989 2.56949,-1.04266c0.63519,-0.43024 1.58282,-0.83563 2.04684,-1.51083c0.49582,-0.72147 0.78787,-1.52777 1.14133,-2.38934c0.27539,-0.6713 0.66049,-1.47778 1.186,-2.2955c0.47525,-0.73947 1.5318,-0.86255 1.64734,-1.7045c0.10321,-0.75229 0.38187,-1.64099 0.64734,-2.34732c0.38049,-1.01236 0.65964,-1.84128 1.20334,-2.46735c0.55536,-0.6395 0.99133,-1.46265 1.37067,-2.28534c0.30811,-0.66824 0.77332,-1.49994 0.77866,-2.31067c0.00601,-0.91061 0,-1.76398 0,-2.70398c0,-0.98535 -0.16815,-1.92178 0.08533,-2.68533c0.25635,-0.77219 0.88608,-1.49863 0.91467,-2.40002c0.02853,-0.89954 0,-1.79999 0,-2.59998c0,-0.90002 0,-1.80002 0,-2.76401c0,-0.87201 -0.07849,-1.76035 0.16666,-2.60266c0.25082,-0.86179 0.74014,-1.6557 0.82266,-2.45868c0.10504,-1.022 0.01068,-1.72198 0.01068,-2.74933c0,-0.94666 0,-1.79999 0,-2.73999c0,-0.88535 0,-1.68533 0,-2.60001c0,-0.896 -0.14206,-1.79834 0.01068,-2.68533c0.14346,-0.83316 0.9043,-1.5874 0.98798,-2.39999c0.09222,-0.89529 0.20157,-1.6008 0.71735,-2.28403c0.46454,-0.61533 0.284,-1.616 0.284,-2.51599l0,-0.89999l0,-0.89999" id="svg_6" stroke-width="2" stroke="#000" fill="none"/>
  <path t="36997,37182,37198,37198,37216,37216,37235,37251,37251,37269,37269,37286,37308,37308,37342,37343,37365,37389,37405,37405,37429,37476,37589,37606,37624,37641,37659,37685,37717,37734,37751,37768,37785,37830,37847" d="m240,301c1.75717,0 2.65717,0 3.4045,0c0.99417,0 1.93834,0 2.84283,0c0.91934,0 1.75267,0 2.73117,0c0.82016,0 1.6575,0 2.50417,0c0.948,0 1.96017,0 2.70267,0c0.92934,0 1.91467,0 2.81467,0c0.79999,0 1.70004,-0.00537 2.564,0c0.86139,0.00534 1.0542,0.71909 1.47766,1.47916c0.39529,0.7095 1.50644,0.79575 2.125,1.35419c0.64902,0.58597 1.19547,1.10309 1.83334,1.66666c0.5835,0.5155 1.08401,1.216 1.87866,1.72134l0.40533,0.69464" id="svg_7" stroke-width="2" stroke="#000" fill="none"/>
  <path t="38685,38814,38832,38861,38861" d="m244,302c-1.5,1.47916 -2.3,1.94733 -3.19867,2.28534l-0.51599,0.51599" id="svg_8" stroke-width="2" stroke="#000" fill="none"/>
  <path t="40613,40814,40831,40831,40848,40848,40865,40865,40883,40883,40883,40899,40899,40917,40917,40934,40934,40950,40950,40967,40967,40984,41001,41018,41035,41052,41076,41094,41111,41128,41145,41162,41162,41179,41197,41214,41231,41248,41266,41266,41283,41283,41300,41341,41359,41376,41393,41412,41436,41453,41476,41517,41542,41559,41575,41635,41683,41747,41773,41791,41807,41823,41842,41868,41885,41923,41924,41941,42003,42021,42021,42040,42100,42155,42219,42253,42307,42333,42350,42367,42435,42475,42493,42510,42527,42545,42545,42563,42563,42563,42579,42579,42596,42614,42614,42631,42649,42649,42666,42667,42684,42684,42700,42717,42717,42733,42750,42768,42768,42785,42785,42785,42802,42802,42819,42820,42836,42855,42871,42888,42888,42906,42906,42925,42925,42941,42941,42958,42958,42976,42992,42992,43009,43009,43026,43044,43044,43085,43108,43133,43149,43173,43189,43207,43224,43245,43269,43293,43317,43334,43351,43396" d="m352,265c0,1.75717 0,2.65717 0,3.40451c0,0.99548 0,1.7955 0,2.7955c0,0.79999 0,1.79999 0,2.59998c0,0.80002 0,1.80002 0,2.60001c0,1 0,1.80002 0,2.79984c0,0.77933 0,1.77884 0,2.68417c0,0.94135 0,1.63199 0,2.70532c0,0.91068 0,1.81067 0,2.71066c0,0.90002 0.08868,1.80441 0,2.70001c-0.08374,0.8457 -0.93912,1.21524 -1,2.10001c-0.0618,0.89786 0,1.69998 0,2.60001c0,0.89999 0,1.79999 0,2.69998c0,0.90451 -0.07361,1.77176 0.02084,2.60001c0.11319,0.99237 0.77515,1.64807 0.95831,2.47916c0.20374,0.9245 0.74686,1.39459 1.01016,2.1315c0.33292,0.93173 0.10016,1.8067 0.58536,2.41467c0.49838,0.62451 0.41992,1.61752 0.42532,2.49551c0.00534,0.86856 0.37582,1.61041 1.05267,2.1265c0.65762,0.50143 1.64734,0.35266 2.54733,0.35266c0.89999,0 1.78934,0.01068 2.39999,0.5c0.61066,0.48932 1.51572,0.3429 2.39999,0.51068c0.94589,0.17947 1.59216,0.86661 2.39999,0.98798c0.90857,0.13651 1.35431,0.9176 2.20001,1.00134c0.79608,0.07883 1.25949,0.41968 2.02084,0.97916c0.62915,0.46234 1.67917,0.02084 2.57916,0.02084c0.89999,0 1.79999,0 2.69998,0c0.90002,0 1.80441,0.08868 2.70001,0c0.8457,-0.08374 1.4451,-0.73877 1.94733,-1.35718c0.57404,-0.70682 0.80069,-1.43576 1.25269,-2.41083c0.3327,-0.71771 0.54294,-1.49585 1.09549,-2.41766c0.38123,-0.63599 0.6868,-1.46466 0.98849,-2.29834c0.31873,-0.88077 0.59958,-1.78091 0.88266,-2.68265c0.21198,-0.67517 0.73868,-1.65585 0.82266,-2.45868c0.0892,-0.85275 0.00339,-1.71622 0.62134,-2.42532c0.62451,-0.71661 1.15195,-1.26947 1.33218,-2.19217c0.18387,-0.94119 0.34277,-1.82248 0.63184,-2.42917c0.39673,-0.83264 0.41315,-1.84869 0.42398,-2.64532c0.01352,-0.99591 -0.10651,-1.88513 0.28534,-2.79733c0.27042,-0.62952 0.70712,-1.50339 1.14133,-2.28534c0.4556,-0.8205 0.74258,-1.59915 1.18533,-2.23599c0.58966,-0.84818 1.04321,-1.55048 1.26785,-2.56384c0.17007,-0.76718 0.1192,-1.63351 0.12149,-2.55283c0.00226,-0.89551 0.21628,-1.59399 0.64734,-2.40985c0.4425,-0.83755 0.34732,-1.59747 0.35266,-2.69449c0.00406,-0.83401 0,-1.66385 0,-2.62567c0,-0.8075 0,-1.80267 0,-2.61734c0,-0.89999 0,-1.81732 0,-2.60532c0,-0.96133 0.04108,-1.84674 -0.42532,-2.69467c-0.40189,-0.73065 -0.25214,-1.7384 -0.74133,-2.43335c-0.50333,-0.71503 -1.26935,-1.13065 -2.12885,-1.17114l-0.66849,-0.43152" id="svg_9" stroke-width="2" stroke="#000" fill="none"/>
  <path t="44508,44615,44615,44632,44651,44651,44668,44668,44685,44701,44701,44718,44718,44735,44752,44769,44786,44802,44843,44843,44892,44931,44950,44965,44983,45000,45107,45236,45253,45270" d="m358,309c1,-1.16666 1.53793,-1.74698 2.41068,-1.96399c0.88443,-0.21991 1.82501,0.09482 2.70398,-0.32135c0.6474,-0.30652 1.23279,-1.23572 2.052,-1.548c0.7941,-0.30273 1.78287,-0.44101 2.52884,-0.814c0.77838,-0.38919 1.7045,-0.35266 2.60449,-0.35266c0.90002,0 1.80002,0 2.70001,0c0.79999,0 1.70001,0 2.60001,0c0.89999,0 1.79999,0.00067 2.69998,0c0.89868,-0.00067 1.64734,-0.35266 2.13602,-0.96399l0.96399,-0.03601l0.80133,0" id="svg_10" stroke-width="2" stroke="#000" fill="none"/>
 </g>
 <g display="none">
  <title>muse_image</title>
  <image xlink:href="http://farm1.static.flickr.com/149/356218681_4174483173.jpg" id="muse" height="480" width="480" y="0" x="80"/>
 </g>
 <g display="none">
  <title>bbox</title>
  <rect stroke="#f00" fill="none" stroke-width="3" height="471.36" width="387.84" y="7.68" x="116.48" id="bbox"/>
 </g>
</svg>
