<svg width="640" height="480" xmlns="http://www.w3.org/2000/svg" xmlns:svg="http://www.w3.org/2000/svg" xmlns:xlink="http://www.w3.org/1999/xlink">
 <!-- Sketchy ANNOTATION
  ImageNet ID: n02691156_47926
  URL: http://static.flickr.com/1233/528361063_bedebe89b7.jpg
  Image Width: 500
  Image Height: 375
  BBox X: 194
  BBox Y: 177
  BBox Width: 129
  BBox Height: 78
  Exposure: 2000ms
  Synset Label: airplane
  Synset ID: n02691156
  Worker Tag: private airplane
  Sanity Check: 
   Saved
  Comment: 
   {}
  Worker ID: AXD2DZ7U6CK35
  Assignment ID: 3B1NLC6UGZW5B69TNJ7SPR0AQ2PPGM
  HIT ID: 30Z7M1Q8UYKH83ZFP085IZZWYVA8AO
  Work Time: 53s
  Worker Score: 0.6940
 END ANNOTATION -->
 <g display="inline">
  <title>Layer 1</title>
  <path t="0,10,10,23,40,57,73,102,126,126,146,158,173,190,207,207,223,240,257,257,258,273,273,273,290,291,291,307,307,307,307,323,323,323,340,340,340,340,357,357,357,373,373,374,391,391,391,391,407,407,407,407,423,423,440,440,440,457,457,473,473,473,490,490,490,490,507,507,507,507,523,523,523,523,540,540,540,558,558,558,558,573,573,574,590,590,626,626" d="m220,88c-0.70984,1.64817 -1.32498,2.33015 -2.11333,2.83067c-0.77823,0.49411 -1.42583,1.04507 -1.88667,1.69017c-0.49825,0.69744 -1.0929,1.40377 -1.564,2.07916c-0.5117,0.7336 -0.24211,1.72147 -0.43733,2.59867c-0.18053,0.81123 -0.95197,1.36764 -0.99417,2.15317c-0.05432,1.01071 -0.01207,1.84953 -0.0045,2.81483c0.00534,0.68006 0.05444,1.52666 0.284,2.51733c0.19055,0.82232 0.47134,1.62495 0.632,2.63334c0.11147,0.69967 0.13918,1.45719 0.36934,2.65199c0.13397,0.69543 0.3172,1.41817 0.51599,2.148c0.38177,1.40166 0.61519,2.0397 0.84151,2.97816c0.21671,0.89858 0.30284,1.80465 0.35716,2.4045c0.08153,0.90023 0.26915,2.10303 0.436,2.68933c0.24492,0.86057 0.66718,1.88817 0.96399,2.596c0.30324,0.72315 0.70573,1.85581 0.90001,2.5245c0.20607,0.70927 0.39168,1.44434 0.7,2.52351c0.28777,1.00724 0.50949,1.61721 0.71466,2.48c0.23659,0.99492 0.27098,1.91881 0.45201,2.85333c0.15277,0.78867 0.45226,1.5609 0.71199,2.69066c0.14655,0.63739 0.33401,1.68832 0.55734,2.41467c0.25833,0.84018 0.57585,1.72421 0.8595,2.63249c0.19171,0.61388 0.45207,1.57617 0.58316,2.61684c0.0918,0.72879 0.10378,1.48012 0.17401,2.226c0.1351,1.43474 0.29042,2.09929 0.46815,2.73184c0.26004,0.92549 0.59555,1.81567 0.8685,2.72083c0.26996,0.89522 0.46132,1.79797 0.558,2.7c0.06419,0.59888 0.09512,1.50768 0.33667,2.69867c0.12073,0.59523 0.36334,1.44417 0.59467,2.47968l0.12134,0.87999l0.16667,0.875l0.48067,0.74783" id="svg_1" stroke-width="2" stroke="#000" fill="none"/>
  <path t="1288,1440,1440,1455,1483,1492,1492,1508,1524,1541,1559,1574,1603,1631,1647,1663,1674,1691,1708,1708,1731,1767,1799,1827,1841,1859,1965,2112,2128,2151,2167,2167,2174,2191,2208,2224,2224,2241,2241,2258,2258,2274,2274,2274,2291,2291,2308,2308,2308,2324,2324,2324,2341,2341,2341,2358,2358,2358,2374,2374,2392,2392,2392,2392,2408,2408,2408,2408,2424,2424,2424,2441,2441,2458,2458,2474,2474,2474,2491,2491,2491,2491,2508,2508,2508,2524,2524,2541,2541,2558,2558,2574,2574,2591,2608,2608,2624,2624,2624,2641,2641,2641,2658,2658,2674,2674,2691,2691,2719,2719,2795,2812" d="m221,87c1,1 1.93642,0.59727 2.71466,1.08533c0.74042,0.46433 1.28534,0.91467 2.08534,0.91467c0.89999,0 1.90257,-0.3982 2.76399,0.036c0.69888,0.35227 1.23734,0.96333 2.136,0.964c0.90001,0.00067 1.8,-0.00226 2.7,0c0.89552,0.00225 1.46764,0.61784 2.16934,0.91467c0.72452,0.30647 1.79466,0.08533 2.73067,0.08533c0.89999,0 1.8,0 2.7,0c0.87866,0 1.54413,0.22588 2.22133,0.87867c0.5787,0.55785 0.61496,1.37862 1,2.22133c0.3058,0.6693 0.76801,1.5 0.77867,2.4c0.01067,0.9 0.36682,1.66053 0.64734,2.31433c0.39067,0.91051 0.2146,1.71391 0.51933,2.85233c0.18719,0.69935 0.87585,1.47701 1.22266,2.16933c0.37245,0.74355 0.5192,1.77007 0.66335,2.564c0.18365,1.01147 0.47484,1.61805 0.74866,2.28533c0.40869,0.99595 0.70145,1.83456 0.99867,2.716c0.30266,0.89755 0.60326,1.78394 0.76399,2.36266c0.29509,1.06252 0.36267,2.00771 0.52,2.83466c0.15466,0.81296 0.5432,1.6306 0.916,2.568c0.31401,0.78957 0.51198,1.37128 0.8,2.32c0.3129,1.03062 0.50496,1.75919 0.67917,2.4925c0.24905,1.04838 0.39902,1.9779 0.4955,2.74883c0.1088,0.86941 0.41446,1.8595 0.67267,2.672c0.3136,0.98683 0.32623,1.8109 0.51933,2.60001c0.20468,0.83643 0.53676,1.50427 0.71199,2.64267c0.10135,0.65845 0.11951,1.70955 0.20535,2.38933c0.1521,1.20436 0.44931,1.91602 0.63199,2.56534c0.27838,0.98959 0.26077,1.80295 0.28534,2.80266c0.01968,0.80051 0.21274,1.80247 0.49866,2.57918c0.36917,1.00282 0.39828,1.83005 0.53601,2.65683c0.14545,0.87314 0.58273,1.57071 1.06381,2.56416c0.29449,0.60812 0.66315,1.47664 0.81616,2.48384c0.1232,0.811 0.10599,1.64645 0.36801,2.62933c0.1752,0.65724 0.55655,1.6749 0.76868,2.43933c0.25482,0.91824 0.59467,1.65182 0.862,2.646l0.07465,0.76534l0.01068,0.948l0,0.23067" id="svg_2" stroke-width="2" stroke="#000" fill="none"/>
  <path t="4332,4595,4600,4611,4626,4641,4658,4674,4674,4691,4691,4708,4708,4724,4741,4741,4758,4758,4774,4774,4791,4791,4791,4808,4808,4824,4824,4824,4841,4841,4858,4874,4874,4891,4908,4908,4924,4941,4958,4958,4974,4974,4991,5019,5060,5127,5395,5427,5447,5471,5499,5523,5547,5547,5575,5667" d="m221,143c-1.7,0 -2.60001,0 -3.5,0c-0.89999,0 -1.8,0 -2.70134,0c-0.96533,0 -1.79866,0 -2.77733,0c-0.774,0 -1.674,0 -2.53734,0c-0.85866,0 -1.80533,0 -2.65866,0c-0.94267,0 -1.79478,-0.01299 -2.59467,0.00133c-1.01643,0.01817 -2.0714,0.13908 -2.7735,0.35133c-0.65431,0.1978 -1.653,0.5677 -2.45717,0.62651c-0.99756,0.07295 -1.8,0.02083 -2.60001,0.02083c-0.9955,0 -1.91466,0 -2.77466,0c-0.94667,0 -1.8,0 -2.74001,0c-0.88533,0 -1.7749,-0.07869 -2.7,0.01067c-0.86215,0.08327 -1.41226,0.85167 -2.07201,1.07333c-0.94679,0.3181 -1.60446,0.75122 -2.5925,0.89517c-0.91144,0.13278 -1.9568,-0.20432 -2.52216,0.30482c-0.55779,0.50232 -0.98825,1.23665 -0.99867,2.116c-0.01067,0.89995 0,1.8 0,2.70001c0,0.89999 0,1.7 0,2.59999l0,0.90001" id="svg_3" stroke-width="2" stroke="#000" fill="none"/>
  <path t="6288,6319,6331,6341,6359,6375,6375,6395,6395,6409,6409,6424,6425,6441,6441,6441,6459,6474,6493,6510,6510,6524,6525,6525,6541,6541,6558,6559,6574,6574,6591,6591,6609,6609,6609,6624,6642,6642,6642,6659,6659,6659,6675,6675,6692,6692,6692,6709,6709,6791,6791" d="m180,158c1.60001,0.57466 2.39948,0.98134 3.3,1c0.8998,0.01865 1.75159,0.3078 2.45717,0.64734c0.85484,0.41136 1.66301,0.34596 2.64282,0.63666c0.81601,0.2421 1.79584,0.63637 2.60001,0.69518c0.99756,0.07295 1.78934,0.02083 2.51466,0.02083c0.96451,0 1.88533,0 2.78984,0c0.86217,0 1.71632,0 2.6955,0c0.8,0 1.60001,0 2.60001,0c0.79999,0 1.79866,0 2.564,0c1.08783,0 1.80533,0 2.84583,0c0.77551,0 1.82394,-0.02092 2.5285,0.0045c0.80121,0.0289 1.7863,0.5378 2.62834,0.82883c0.65445,0.2262 1.51999,0.166 2.51733,0.16667c0.81599,0.00055 1.63199,0 2.63199,0c0.90933,0 1.85068,0 2.63217,0c0.7905,0 1.909,0.00017 2.8,0.05716l0.89549,0.2955l0.70168,0.36334" id="svg_4" stroke-width="2" stroke="#000" fill="none"/>
  <path t="7481,7519,7527,7543,7563,7579,7591,7607,7624,7625,7642,7657,7675,7691,7707,7708,7725,7743,7757,7779,7803,7803,7819,7839,7857,7874,7874,7891,7891,7907,7907,7907,7924,7924,7925,7925,7941,7941,7942,7957,7957,7975,7975,7975,7991,7991,7991,8007,8007,8008,8025,8025,8025,8042,8042,8057,8057,8075,8075,8091,8091,8108,8108,8108,8125,8141,8142,8157,8174,8195,8528,8611,8611,8627,8643,8659,8675,8676,8691,8691,8707,8707,8707,8724,8724,8724,8741,8741,8757,8757,8757,8757,8774,8774,8774,8791,8791,8791,8791,8807,8807,8807,8807,8807,8824,8824,8824,8824,8841,8841,8841,8857,8857,8857,8857,8874,8874,8874,8874,8891,8891,8891,8907,8907,8907,8907,8908,8924,8924,8924,8941,8941,8941,8941,8957,8957,8957,8974,8974,8974,8974,8974,8991,8991,8991,9007,9007,9007,9007,9007,9024,9024,9091,9098" d="m180,157c0,5.07133 -0.32251,6.13841 0.16667,6.83333c0.50333,0.71503 1.45636,0.91641 1.8125,1.6875c0.36887,0.79866 0.27991,1.70279 0.82216,2.27917c0.66766,0.70967 1.77063,0.90662 2.16267,1.636c0.4095,0.76187 0.4034,1.71199 0.752,2.364c0.45306,0.84738 0.71671,1.5955 1.2,2.39867c0.44803,0.74457 1.23633,1.16075 1.884,1.51733c0.86366,0.47549 1.41522,1.2231 2.3,1.284c0.89787,0.0618 1.66435,0.03603 2.56166,0.35266c0.59006,0.20822 1.75777,0.55107 2.58501,0.61134c0.59894,0.04364 1.92001,0.03209 2.63599,0.03732c0.73206,0.00534 1.46678,-0.04817 2.78401,0.16534c0.82903,0.13438 1.49054,0.49265 2.53333,0.71182c0.78908,0.16585 1.8,0.12151 2.61067,0.12151c0.6465,0 1.61121,-0.01636 2.42532,0.01067c0.86928,0.02885 2.0661,0.20078 2.6595,0.342c0.87209,0.20753 1.93358,0.51321 2.64734,0.59018c0.84937,0.09158 1.85716,0.05716 2.65717,0.05716c1,0 1.80002,-0.00676 2.8,0c0.7894,0.00534 1.8233,0.18819 2.52083,0.5c0.80176,0.3584 1.72939,0.47765 2.47383,0.4955c1.03439,0.0248 1.97203,0.2251 2.60535,0.57916c0.86127,0.48151 1.83571,0.1794 2.6955,0.42984c0.75842,0.22092 1.03363,1.14014 1.4205,1.79683c0.48711,0.82684 0.8575,1.6618 1.23132,2.49867c0.34494,0.7722 0.80324,1.41638 1.53667,1.90134c0.68071,0.4501 1.51453,1.10579 2.01601,1.81949c0.40016,0.56949 0.98399,1.37917 1.5,1.97917c0.51601,0.60001 1.22243,1.62117 1.66133,2.2c0.63127,0.83252 1.3448,1.40477 1.8595,1.8c0.52727,0.40491 1.56143,1.19582 2.0265,1.60001c0.68335,0.59389 1.61548,1.40503 2.138,1.80133c0.54668,0.41463 1.4341,1.0374 2.31467,1.76534c0.61061,0.50478 1.198,1.06085 1.8,1.608c0.59801,0.54352 1.49518,1.30986 2.09549,1.76816c0.57924,0.44221 1.16618,0.82896 2.18317,1.65717c0.47778,0.38908 1.12842,1.02197 2.088,1.8c0.50793,0.41185 1.33755,0.99431 1.88068,1.39999c0.79224,0.59177 1.5033,1.19173 2.142,1.8c0.41446,0.3947 1.20581,1.20921 1.85233,1.82083c0.46732,0.44209 1.28821,1.15013 1.92633,1.66318c0.67902,0.54591 1.38647,1.08427 2.06403,1.63199c0.93228,0.75362 1.43311,1.25314 2.18265,1.83734c0.92276,0.71918 1.46933,0.96266 2.28534,1.34666c0.81601,0.384 1.60312,0.79074 2.27466,1.34666c0.70511,0.58372 1.392,1.32001 1.90933,1.83734c0.54135,0.54134 1.09033,1.09102 1.63202,1.63199c1.00067,0.99931 1.44354,1.47888 2.19382,2.0795c0.79752,0.63843 1.45685,1.0045 2.13019,1.40451c0.67331,0.39999 1.30664,0.8 2.30399,1.59734l0.62399,0.73067l0.63068,0.7l0.71466,-0.11467" id="svg_5" stroke-width="2" stroke="#000" fill="none"/>
  <path t="9904,9991,10015,10031,10041,10057,10074,10091,10091,10107,10107,10107,10124,10124,10124,10141,10141,10157,10157,10174,10174,10174,10191,10191,10191,10207,10207,10207,10224,10224,10241,10241,10257,10257,10274,10274,10291,10291,10307,10307,10324,10324,10341,10357,10374,10374,10391,10407,10407,10424,10424,10441,10458,10547,10563,10579,10592,10593,10607,10625,10625,10625,10647,10647,10675,10675,10692" d="m272,192c1.08401,1.71466 1.94876,1.91747 2.564,2.61067c0.58435,0.6584 1.02203,1.27225 1.73599,1.74649c0.79166,0.52586 1.33542,1.25436 1.80017,1.96451c0.45663,0.69775 0.77069,1.37386 1.38385,2.36099c0.33353,0.53693 0.8425,1.32306 1.49448,2.1745c0.48544,0.63396 1.11887,1.46574 1.52151,2.14284c0.49673,0.83528 0.91272,1.39355 1.47067,1.96933c0.78537,0.81044 1.28,1.28134 1.77866,1.78c0.91733,0.91734 1.48816,1.39832 2.048,2.13333c0.55716,0.73152 0.86816,1.48868 1.50266,2.36467c0.47488,0.65562 0.98132,1.41644 1.40002,2.10001c0.47897,0.78194 1.04083,1.37955 1.59998,2.30983c0.32434,0.53961 0.82333,1.53165 1.17917,2.32201c0.37961,0.84317 0.34613,1.63086 0.54169,2.52083c0.18625,0.84761 1.07028,1.42586 1.54315,2.10001c0.52185,0.74397 0.66428,1.71852 0.936,2.39999c0.38861,0.97459 0.60501,1.78662 1,2.5c0.49048,0.88583 0.66769,1.81604 0.49866,2.69867c-0.14511,0.75774 -1.0376,1.12302 -1.79865,1.51733c-0.82153,0.42566 -1.74255,0.50636 -2.46133,0.70934c-0.79016,0.22314 -1.81702,0.45316 -2.69702,0.55383l-1.02014,0.02083l-0.71701,0l-0.94733,0" id="svg_6" stroke-width="2" stroke="#000" fill="none"/>
  <path t="12108,12131,12139,12146,12158,12174,12191,12191,12191,12191,12207,12207,12207,12207,12224,12224,12224,12241,12241,12257,12274,12275,12275,12291,12291,12371,12379,12393,12409,12425,12426,12443,12443,12443,12457,12457,12474,12474,12492,12492,12492,12492,12507,12507,12507,12524,12524,12524,12541,12541,12541,12557,12557,12557,12574,12574,12574,12592,12592,12592,12592,12607,12607,12607,12624,12624,12641,12641,12641,12657,12657,12657,12674,12706,12739,12757,12775,12775,12791,12791,12807,12807,12807,12825,12825,12841,12841,12857,12857,12874,12874,12891,12891,12907,12962,12998,13011,13024,13024,13041,13064,13114" d="m176,156c0,-1.7 0,-2.60001 0,-3.5c0,-0.89999 0.0536,-1.81992 -0.16667,-2.83333c-0.15112,-0.69524 -0.44783,-1.52286 -0.63466,-2.15468c-0.30495,-1.03133 -0.49471,-1.76126 -0.69867,-2.49117c-0.29428,-1.05312 -0.60027,-1.97768 -0.88933,-2.74883c-0.32581,-0.86916 -0.49118,-1.88002 -0.66335,-2.61484c-0.21738,-0.92783 -0.83034,-1.81602 -0.91133,-2.49316c-0.09099,-0.7607 0.09682,-1.78212 -0.12132,-2.67867c-0.21161,-0.86972 -0.73769,-0.84203 -0.9355,0.01466c-0.22418,0.97092 -0.87598,1.65823 -0.95834,2.52083c-0.09309,0.97496 -0.01903,1.77917 -0.02083,2.57918c-0.00226,1 -0.00111,1.81436 -0.284,2.80133c-0.18076,0.63068 -0.57837,1.76186 -0.65884,2.55583c-0.05696,0.56195 -0.05649,1.44417 -0.05716,2.64284c-0.00034,0.59999 0,1.5 0,2.69983c0,0.59566 0,1.46417 0,2.53349c0,0.94135 0,1.61934 0,2.58801c0,0.80399 0,1.62599 0,2.89732c0,0.72301 0,1.536 0,2.54533c0,0.79401 0,1.636 0,2.478c0,1.158 0,2.0865 0,2.826c0,1.032 0,1.832 0,2.832c0,0.81067 -0.00951,1.45721 0.00017,2.42101c0.01042,1.03748 0.04161,1.75066 0.57449,2.58299c0.47202,0.73727 1.22313,0.72079 1.70934,0.07867c0.54872,-0.72469 0.67455,-1.31978 0.93733,-2.28267c0.22304,-0.81726 0.65964,-1.79367 0.74268,-2.60001c0.08202,-0.79654 -0.0222,-1.80661 0.09315,-2.59999c0.14755,-1.01474 0.52263,-1.57686 0.77617,-2.60001c0.19244,-0.7766 0.16667,-1.83333 0.16667,-2.62534c0,-0.85866 -0.00081,-1.722 0,-2.73866c0.00067,-0.83467 0.36798,-1.48532 1.3,-1.6405c0.81761,-0.13614 1.5,-0.7115 2.3,-0.98483l0.96399,-0.01067l0.87201,0" id="svg_7" stroke-width="2" stroke="#000" fill="none"/>
  <path t="14336,14419,14435,14447,14463,14483,14483,14495,14508,14524,14541,14541,14557,14558,14558,14574,14575,14575,14592,14592,14592,14592,14608,14608,14608,14625,14625,14642,14642,14657,14657,14675,14675,14691,14691,14692,14707,14707,14725,14725,14741,14741,14757,14758,14758,14775,14775,14775,14792,14792,14792,14808,14808,14808,14824,14824,14825,14842,14842,14843,14858,14858,14858,14858,14875,14875,14875,14892,14892,14892,14892,14907,14907,14907,14925,14925,14925,14941,14942,14942,14957,14958,14975,14975,14975,14991,14991,15007,15025,15025,15042,15057" d="m261,142c0.87866,1.22133 1.35571,1.97141 2.20001,2c0.89948,0.03047 1.79999,0 2.59998,0c0.90002,0 1.81915,-0.00108 2.60001,0.42534c0.82608,0.45111 1.4715,0.5724 2.65335,0.57466c0.63333,0.00121 1.30664,-0.00356 2.61331,0c0.828,0.00226 1.58881,0.00102 2.66669,0.16667c0.63815,0.09807 1.67014,0.34146 2.36133,0.53783c0.97723,0.27763 1.78189,0.61574 2.48401,0.8595c1.00955,0.35049 1.82126,0.41884 2.82132,0.436c0.78931,0.01355 1.82813,0.17732 2.5,0.5c0.81552,0.39168 1.75317,0.48811 2.66666,0.66667c0.78842,0.15411 1.5636,0.4404 2.5,0.66666c0.80621,0.19481 1.81018,0.46835 2.508,0.74133c0.93369,0.36525 1.64337,0.44659 2.5947,0.71068c0.75882,0.21065 1.55481,0.4993 2.54666,0.91466c0.68893,0.2885 1.36243,0.61414 2.36798,1c0.81171,0.31148 1.634,0.59509 2.63202,0.99867c0.68536,0.27715 1.35931,0.5654 2.36932,0.71733c0.83038,0.12491 1.7222,0.13235 2.61484,0.3055c0.9183,0.17812 1.53323,0.39816 2.86649,0.7785c0.71335,0.20349 1.43533,0.39763 2.13602,0.564c1.19406,0.28351 2.03342,0.40051 2.83466,0.52c0.84985,0.12674 1.57941,0.26573 2.38351,0.43683c0.8273,0.17604 1.98346,0.46596 2.91217,0.77467c0.77472,0.25752 1.73108,0.55728 2.51965,0.65182c0.81982,0.09828 1.88831,0.1924 2.59018,0.40533c0.86328,0.2619 1.86066,0.54024 2.65717,0.67267c1.00525,0.16714 1.60599,0.39777 2.39999,0.776c1.00336,0.47798 1.55087,0.80034 2.51465,1.11467c0.87479,0.28531 1.58536,0.73134 2.44934,1.10933l0.48868,0.62201" id="svg_8" stroke-width="2" stroke="#000" fill="none"/>
  <path t="16075,16171,16179,16195,16209,16226,16226,16240,16240,16256,16256,16256,16274,16274,16289,16290,16306,16307,16324,16324,16324,16339,16356,16356,16374,16374,16374,16390,16390,16407,16407,16407,16423,16424,16424,16424,16440,16440,16440,16456,16457,16457,16473,16474,16490,16490,16490,16506,16507,16507,16523,16524,16524,16540,16540,16540,16557,16557,16557,16573,16574,16574,16590,16590,16607,16607,16607,16624,16624,16624,16639,16657,16657,16674,16674,16690,16690,16706,16723,16787" d="m274,191c1.79999,0 2.71979,0.1571 3.5,-0.02083c0.96204,-0.21939 1.59335,-0.91704 2.38535,-0.97784c0.95853,-0.07359 1.80133,-0.00133 2.79865,-0.00133c0.81601,0 1.63202,0 2.62933,0c0.84,0 1.80267,0.00426 2.57068,0c0.96271,-0.00534 1.81,-0.05161 2.79868,-0.284c0.80334,-0.18883 1.53192,-0.51608 2.50748,-0.65884c0.96786,-0.14163 1.64587,-0.04941 2.80984,-0.05716c0.80005,-0.00534 1.60999,-0.04866 2.40134,-0.284c0.84714,-0.25194 1.76263,-0.56996 2.55582,-0.66333c0.8512,-0.1002 2.04547,-0.20663 2.64285,-0.33667c0.90439,-0.19685 1.49042,-0.42026 2.69983,-0.5945c0.88446,-0.12743 1.74304,-0.1114 2.77866,-0.12167c0.68558,-0.00679 1.5314,-0.04601 2.526,-0.35249c0.63971,-0.19713 1.81439,-0.55307 2.62085,-0.61134c0.82047,-0.05928 1.85333,-0.036 2.54932,-0.036c0.90933,0 1.91019,0.0211 2.72534,-0.02083c0.81747,-0.04204 1.81552,-0.26913 2.52084,-0.47917c0.74664,-0.22234 1.94638,-0.42694 2.62982,-0.464c0.69809,-0.03787 2.01599,-0.036 2.83499,-0.036c0.69302,0 1.71701,0.04736 2.51434,-0.02083c1.0069,-0.08612 1.80081,-0.43561 2.45715,-0.62651c0.9519,-0.27687 1.75708,-0.3333 2.7735,-0.35133c0.95486,-0.01695 1.86951,0.00308 2.65469,-0.00133c0.95068,-0.00534 1.73264,-0.02966 2.71014,-0.35266c0.76279,-0.25204 1.64734,-0.59018 2.60452,-0.64734l0.89966,0" id="svg_9" stroke-width="2" stroke="#000" fill="none"/>
  <path t="17464,17615,17615,17626,17642,17658,17674,17690,17707,17707,17724,17741,17757,17774,17791,17791,17830,17858,17959,17971,17979,17991,18008,18025,18025,18041,18041,18057,18057,18075,18075,18091,18107,18108,18130,18142,18142,18190,18356,18379,18399" d="m339,163c2,0 2,-0.8 2,-1.7c0,-0.90001 0.14206,-1.813 -0.01068,-2.7c-0.14346,-0.83315 -0.9043,-1.5874 -0.98798,-2.40001c-0.09219,-0.89526 0.00061,-1.81961 -0.42667,-2.59999c-0.45038,-0.82257 -0.57468,-1.60001 -0.57468,-2.40001c0,-0.89999 -0.44119,-1.92563 0.03601,-2.76399c0.39359,-0.69148 1.564,-0.436 2.46399,-0.436c0.91068,0 1.82132,0 2.5,0c1.116,0 1.884,0 2.836,0c0.76532,0 1.75949,0 2.50684,0c1.03183,0 1.97849,0 2.65717,0c1.11465,0 2.00085,-0.03719 2.79999,0c0.91766,0.04271 1.19867,0.80133 1.25717,1.7l0.44284,0.8" id="svg_10" stroke-width="2" stroke="#000" fill="none"/>
  <path t="19240,19256,19256,19263,19263,19273,19289,19307,19307,19324,19324,19339,19339,19339,19356,19356,19373,19373,19389,19406,19406,19406,19424,19424,19480,19504,19504,19511,19526,19540,19557,19574,19574,19590,19590,19607,19607,19624,19624,19640,19699,19735,19743,19757,19831,19847,19863,19863,19874,19890,19907,19907,19907,19924,19924,19924,19940,19940,19957,19957,19974,19974,19974,19990,19990,20007,20007,20007,20024" d="m347,184c1.29999,2.5955 1.6723,3.36147 2.19867,4.11467c0.49078,0.70229 0.7623,1.64659 1.32217,2.38533c0.50378,0.66472 1.21533,1.23361 1.67917,1.98534c0.43494,0.70493 0.89999,1.71466 1.19998,2.31467c0.39999,0.8 0.77386,1.61292 1.20001,2.364c0.47162,0.83125 1.16925,1.47075 1.6955,2.1405c0.62781,0.79904 0.6311,1.53992 0.78851,2.29683c0.2099,1.00941 0.50156,1.83318 1.21597,2.63699c0.61032,0.68671 1.40002,0.75941 2.30002,0.76167c0.89999,0.00224 1.79999,0 2.7045,0c1.017,0 1.71634,0 2.6955,0c0.78934,0 1.84308,0.0929 2.62534,-0.036c0.88187,-0.14529 1.51309,-0.66373 2.48932,-0.87868c0.96591,-0.21268 2.02356,0.23692 2.71869,-0.252c0.71426,-0.5024 1.16666,-1 1.16666,-1.93333c0,-0.89999 -0.09494,-1.6944 -0.5,-2.39999c-0.45828,-0.79831 -0.63571,-1.68025 -0.94666,-2.34666c-0.40094,-0.85933 -0.87704,-1.57294 -1.36801,-2.368c-0.47797,-0.77399 -0.95264,-1.63913 -1.20001,-2.40001c-0.28229,-0.8683 -0.6116,-1.62555 -0.98532,-2.552c-0.31317,-0.77631 -0.54059,-1.59991 -1,-2.5c-0.35553,-0.69655 -1,-1.5 -1.39999,-2.15866l-0.39999,-0.69067l-0.58936,-0.84799" id="svg_11" stroke-width="2" stroke="#000" fill="none"/>
  <path t="26064,26163,26163,26171,26180,26192,26207,26207,26223,26223,26240,26240,26258,26273,26290,26290,26307,26307,26323,26323,26340,26340,26340,26357,26357,26373,26373,26390,26411,26431,26440,26457,26488,26506,26522,26539,26556,26572,26572,26589,26606,26635,26687" d="m358,148c-1,1 -1.01801,1.80019 -1,2.7c0.01801,0.90054 0.6058,1.61465 0.91467,2.50134c0.22668,0.65077 0.03302,1.64345 0.17065,2.39999c0.18427,1.01286 0.69498,1.70943 0.87866,2.76266c0.14377,0.82439 0.26996,1.72719 0.74051,2.39317c0.50781,0.71872 0.93826,1.43181 1.17416,2.44283c0.18387,0.78798 0.24991,1.81384 0.55734,2.60001c0.23938,0.61218 0.79233,1.58519 1.12799,2.364c0.34558,0.80182 0.23904,1.66925 0.49316,2.536c0.25726,0.87746 0.84344,1.63092 1.36816,2.27467c0.52026,0.63829 0.62909,1.41237 1.14935,2.05066c0.52472,0.64375 1.00064,1.43507 1.34131,2.17467c0.39761,0.86324 0.80002,1.60001 1.07333,2.40001l0.01068,0.89999l0,0.89999l0,0.89101" id="svg_14" stroke-width="2" stroke="#000" fill="none"/>
  <path t="28128,28143,28151,28163,28175,28205,28223,28223,28239,28240,28256,28256,28256,28273,28290,28290,28307,28307,28323,28323,28340,28340,28356,28372,28373,28389,28390,28406,28407,28422,28422,28440,28440,28457,28457,28457,28472,28489,28490,28506,28523,28523,28540,28540,28557,28601" d="m368,180c0.03601,-2.55333 0.81915,-3.05151 0.99866,-3.80133c0.21359,-0.89223 0.78329,-1.46313 1.168,-2.19867c0.35947,-0.68732 1.04608,-1.47845 1.43335,-2.21066c0.41373,-0.78223 0.83862,-1.55852 1.11465,-2.304c0.34927,-0.94324 0.66586,-1.77271 1.08667,-2.37067c0.52884,-0.75148 0.90842,-1.51434 1.39734,-2.51334c0.3728,-0.76173 0.56024,-1.61951 0.88535,-2.39999c0.32452,-0.77911 1.01334,-1.52425 1.41599,-2.20134c0.49673,-0.83528 1.0813,-1.45773 1.37885,-2.32133c0.28424,-0.82504 0.5835,-1.63704 1.12115,-2.17867c0.78708,-0.79289 0.91129,-1.5363 1.16666,-2.5c0.21362,-0.8062 0.57581,-1.55937 1.23334,-2.364c0.55328,-0.67705 1.23505,-1.20299 1.79868,-1.836c0.67908,-0.76268 0.854,-1.55717 1.15399,-2.45267l0.29468,-0.69467l0.2955,-0.89549l0.05716,-0.95584" id="svg_15" stroke-width="2" stroke="#000" fill="none"/>
  <path t="29313,29318,29319,29319,29319,29319,29319,29335,29335,29351,29371,29387,29419,29424,29424,29440,29440,29456,29472,29472,29489,29506,29506,29522,29522,29539,29556,29572,29589,29606,29606,29622,29623,29623,29639" d="m360,152c1.10684,-2.2065 1.76511,-3.06104 2.13733,-3.51601c0.38077,-0.46542 1.14804,-1.3712 1.52802,-1.77866c0.92844,-0.99559 1.79584,-1.4048 2.63016,-1.70984c0.7504,-0.27435 1.23245,-0.88954 2.11517,-1.00616c0.92664,-0.12242 1.55319,-0.60086 2.56781,-0.86783c0.80167,-0.21094 1.65829,-0.08531 2.67419,-0.12601c0.69608,-0.02789 1.53555,-0.48404 2.51398,-0.82883c0.63336,-0.22319 1.69958,0.01884 2.52884,-0.22383c0.88138,-0.25793 1.60312,-0.91425 2.50452,-0.94284c0.89954,-0.02853 1.79999,0 2.47198,0c1.09601,0 1.828,0 2.56,0l1.09601,0" id="svg_16" stroke-width="2" stroke="#000" fill="none"/>
  <path t="31160,31459,31467,31476,31476,31493,31510,31510,31526,31526,31540,31540,31540,31540,31557,31557,31557,31573,31573,31590,31590,31608,31608,31623,31623,31640,31640,31657,31657,31673,31690,31690,31707,31707,31723,31723,31740,31740,31740,31757,31757,31757,31773,31773,31773,31790,31790,31790,31790,31807,31807,31807,31823,31823,31823,31840,31840,31840,31857,31857,31857,31857,31873,31873,31873,31890,31890,31907,31907,31907,31923,31923,31940,31940,31957,31973,31973,31973,31990,31990,31990,32007,32007,32007,32023,32024,32040,32040,32064" d="m267,161c1.2215,0.87849 2.10001,1 3,1c0.79999,0 1.63599,0 2.65268,0c0.69464,0 1.75647,-0.01065 2.48734,0.08533c0.84909,0.1115 1.57672,0.2644 2.38083,0.4355c0.8273,0.17604 1.9873,0.4548 2.90317,0.77467c0.71484,0.24965 1.70547,0.56764 2.45999,0.7885c0.97412,0.28514 1.71082,0.73067 2.51599,1.11467c0.79382,0.37859 1.79565,0.7205 2.57916,0.7805c0.85196,0.06523 1.78668,0.04047 2.67352,0.37349c0.70639,0.26526 1.59238,0.56085 2.54865,0.64867c0.68628,0.06302 1.61664,0.47682 2.39999,0.71468c0.98508,0.29912 1.64328,0.263 2.82001,0.50533c0.53607,0.1104 1.34271,0.40154 2.41202,0.612c0.93396,0.18382 1.62704,0.17982 2.58832,0.38817c0.8331,0.18056 1.73776,0.49071 2.745,0.7785c0.71445,0.20415 1.44492,0.40262 2.172,0.564c1.32285,0.29361 2.15323,0.3688 2.87601,0.46133c0.95465,0.12221 1.73538,0.33728 2.56,0.54933c1.05548,0.27142 1.77615,0.39188 2.73517,0.42084c0.82315,0.02486 1.79581,-0.00098 2.49017,0.02533c0.69513,0.02634 1.96393,0.17593 2.728,0.40451c0.87817,0.26271 1.87534,0.53784 2.508,0.564c1.1842,0.04895 1.98459,-0.03848 2.75418,0.06783c1.05493,0.14572 1.73553,0.66235 2.49384,0.85884c0.84613,0.21924 1.70322,0.57547 2.68265,0.91733c0.65378,0.2282 1.52011,0.15501 2.51868,0.168c0.83566,0.01086 1.72174,0.05031 2.6145,0.22c0.89655,0.17041 1.73334,0.47472 2.7785,0.65717c0.67026,0.117 1.755,0.12151 2.51099,0.12151l0.88983,0" id="svg_17" stroke-width="2" stroke="#000" fill="none"/>
  <path t="33385,33399,33399,33399,33399,33408,33408,33425,33425,33446,33446,33456" d="m339,162c4.39267,6.81383 4.75153,7.65869 4.91666,8.39583c0.20279,0.90532 0.35907,1.92043 0.65802,2.75751c0.29581,0.82829 0.478,1.59933 0.77798,2.49933l0.29468,0.69467l0.32733,1.006" id="svg_18" stroke-width="2" stroke="#000" fill="none"/>
 </g>
 <g display="none">
  <title>muse_image</title>
  <image xlink:href="http://static.flickr.com/1233/528361063_bedebe89b7.jpg" id="muse" height="480" width="640" y="0" x="0"/>
 </g>
 <g display="none">
  <title>bbox</title>
  <rect stroke="#f00" fill="none" stroke-width="3" height="99.84" width="165.12" y="226.56" x="248.32" id="bbox"/>
 </g>
</svg>
