<svg width="640" height="480" xmlns="http://www.w3.org/2000/svg" xmlns:svg="http://www.w3.org/2000/svg" xmlns:xlink="http://www.w3.org/1999/xlink">
 <!-- Sketchy ANNOTATION
  ImageNet ID: n02691156_8352
  URL: http://farm1.static.flickr.com/158/424904790_c3b90d8be0.jpg
  Image Width: 333
  Image Height: 500
  BBox X: 86
  BBox Y: 202
  BBox Width: 124
  BBox Height: 72
  Exposure: 2000ms
  Synset Label: airplane
  Synset ID: n02691156
  Worker Tag: Airplane flying in the sky
  Sanity Check: 
   Context
   Saved
   Shading
  Comment: 
   {}
  Worker ID: A1P7U2ULSAE7YL
  Assignment ID: 3ND9UOO81K2BH7KVAWI3UDDE8PUWLL
  HIT ID: 3N5YJ55YXG32BAMJV2XO0WPRKPVANV
  Work Time: 57s
  Worker Score: 0.8821
 END ANNOTATION -->
 <g display="inline">
  <title>Layer 1</title>
  <path t="0,246,261,262,278,309,341,357,366,375,375,381,391,391,398,406,421,437,446,469,485,494,501,517,517,527,527,534,544,558,565,574,582,582,597,598,606,622,637,637,645,653,662,662,669,670,678,678,685,685,694,701,701,709,709,718,718,726,733,743,757,758,765,774,781,782,791,791,798,798,807,813,813,821,830,830,837,837,837,845,846,853,869,869,877,894,925,942,960,981,991,991,997,1013,1045,1069,1078,1085,1117,1141,1253,1269,1269,1278,1278,1285,1294,1294,1302,1317,1349,1469,1469,1485,1494,1533,1565,1565,1589,1997,2013,2022,2023,2029,2045,2061,2069,2069,2078,2101,2101,2125,2141,2157,2181,2192,2213,2245,2245,2253,2262,2277,2294,2781,2789,2813,2813,2829,2845,2861,2877,2941,2981,2981,3029,3061,3078,3189,3213,3286,3301,3310,3341,3349,3645,3654,3654,3677,3741,3773,3789,3813,3829,3837,3845,3853,3861,3870,3887,3901,3917,3925,3941,3949,3973,3973,3981,3997,4021,4021,4045,4069,4077,4093,4109,4125,4133,4142,4149,4157,4174,4174,4190,4190,4206,4223,4223,4238,4245,4255,4270,4277,4278,4287,4293,4303,4309,4317,4333,4341,4341,4358,4358,4373,4374,4389,4407,4413,4429,4445,4461,4477,4509,4565,4581,4605,4629,4645,4653,4653,4670,4693,4709,4725,4733,4757,4773,4789,4789,4805,4845,4877,4901,5021,5030,5037,5056,5061,5069,5069,5085,5093,5109,5125,5149,5173,5173,5189,5197,5206,5229,5237,5245,5261,5271,5286,5302,5319,5325,5325,5349,5373,5397,5406,5413,5422,5437,5445,5485,5501,5509,5509,5525,5549,5557,5558,5573,5589,5606,5613,5621,5638,5645,5773,5789,5806,5933,5957,5989,6005,7317,7326,7326,7341,7373,7389,7437,7445,7453,7477,7501,7509,7509,7519,7549,7565,7573,7583,7597,7597,7605,7614,7637,7637,7637,7653,7654,7669,7677,7717,7717,7725,7765,7773,7805,7837,7845,7877,7909,7909,7925,7989,8037,8061,8093,8125,8157,8237,8237,8341,8405,8437,8525,8573,8573,8629,8645,8661,8765,8805,8965,8997,9101,9133,9149,9173,9173,9213,9245,9253,9277,9301,9341,9357,9381,9405,9421,9430,9431,9437,9461,9477,9517,9549,9549,9573,9621,9629,9677,9725,9725,9741,9765,9805,9813,9853,9917,9941,9957,9997,10005,10005,10037,10046,10133,10149,10229,10285,10285,10301,10341,10381,10573" d="m257.51135,232.09091c1.75717,0 2.65268,0 3.51602,0c0.96317,0 1.87332,0 2.76932,0c0.91467,0 1.81467,0 2.71466,0c0.80002,0 1.63602,0 2.48401,0c0.86334,0 1.88,0 2.81601,0c0.89865,0 1.64764,-0.13515 2.31067,-0.57466c0.8143,-0.53981 1.78934,-0.42534 2.68933,-0.42534c0.89999,0 1.80017,0 2.58533,0c0.94,0 1.63068,0 2.70401,0c0.91064,0 1.81067,0 2.71066,0c0.89999,0 1.80017,0 2.58533,0c0.94,0 1.63068,0 2.70401,0c0.82132,0 1.73181,0 2.54932,0c0.96667,0 1.88217,0 2.84,0c0.77402,0 1.67853,0 2.42584,0c0.99551,0 1.7955,0 2.79535,0c0.77933,0 1.77866,0 2.80014,0c0.75717,0 1.6572,0 2.40451,0c0.99417,0 1.93832,0 2.83835,0c0.95715,0 1.85843,0.04779 2.75714,0c0.80341,-0.04272 1.42184,-0.68935 2.3045,-0.94284c0.97888,-0.28113 1.6955,-0.05716 2.67416,-0.05716c0.90533,0 1.84668,0 2.53735,0c0.98398,0 1.96799,0 2.65866,0c1.07266,0 1.992,0 2.84616,0c0.97916,0 1.77917,0 2.57916,0c0.99551,0 1.74283,0 2.77469,0c0.94666,0 1.62531,0 2.60364,0c0.93768,0 1.83014,0.37585 2.66452,-0.05717c0.74854,-0.38849 1.37781,-0.9324 2.33566,-0.94283c0.8201,-0.00891 1.7215,0 2.62149,0c0.89999,0 1.83572,0.24593 2.6955,-0.0045c0.75842,-0.22092 1.06168,-0.9955 1.90451,-0.9955c0.89999,0 1.81299,-0.09373 2.55716,0.05716c0.92142,0.18684 1.58179,0.83327 2.24283,1.42201c0.63498,0.56554 1.54492,0.54308 2.36401,0.94617c0.86868,0.42751 1.44992,0.99854 1.92133,1.77466c0.41083,0.67639 1.10162,1.20967 1.91333,1.716c0.7373,0.45993 0.98932,1.40329 1.60269,1.79866c0.80701,0.52019 1.66174,0.85889 2.49866,1.23267c0.77203,0.3448 1.14267,1.04805 1.80981,1.69551c0.57944,0.56235 1.72363,0.31107 2.59552,0.36166c0.72992,0.04236 1.34515,0.85188 2.29465,0.9955c0.79102,0.11964 1.79691,-0.36317 2.56403,0.036c0.75937,0.39514 1.23734,0.96333 2.13599,0.964c0.94284,0.0007 1.91534,-0.20677 2.59467,0.05716c0.89215,0.34662 1.13443,1.31255 1.92685,1.82133c0.74625,0.47916 2.01089,-0.31276 2.61182,0.28818c0.60092,0.60092 0.5596,1.76369 0.08133,2.54799c-0.49005,0.80362 -0.65744,1.51094 -1.13599,2.164c-0.51395,0.70137 -1.03955,1.34325 -1.58002,1.92134c-0.5737,0.61365 -1.4809,0.99692 -2.146,1.55266c-0.65317,0.54578 -0.66565,1.31613 -1.07349,2.14734c-0.33759,0.68803 -1.38544,0.59637 -2.03183,1.14734c-0.6044,0.51517 -1.21741,1.12636 -2.04733,1.57401c-0.64764,0.34933 -1.52341,0.76025 -2.30002,1.20398c-0.72403,0.4137 -1.60001,0.57468 -2.51599,0.57468c-0.78851,0 -1.78656,-0.39822 -2.64801,0.03601c-0.69885,0.35226 -1.23734,0.96332 -2.13599,0.96399c-0.89999,0.00067 -1.80002,0 -2.70001,0c-0.89999,0 -1.79865,0 -2.65265,0c-0.94736,0 -1.88376,-0.40274 -2.66202,0.08533c-0.74042,0.46436 -1.28534,0.91467 -2.08533,0.91467c-0.89999,0 -1.79999,0 -2.70001,0c-0.89999,0 -1.81903,-0.2074 -2.72131,0.00015c-0.78653,0.18091 -1.29932,0.98941 -2.17868,0.99985c-0.90442,0.01071 -1.76666,0 -2.60001,0c-0.97849,0 -1.79865,0 -2.63599,0c-1.01218,0 -1.79468,0 -2.72116,0c-0.94284,0 -1.84283,0 -2.74283,0c-0.90002,0 -1.70001,0 -2.60001,0c-0.89999,0 -1.80002,0 -2.70001,0c-0.89548,0 -1.8215,0 -2.70016,0c-0.78516,0 -1.73584,0 -2.50116,0c-0.99417,0 -1.74149,0 -2.76266,0c-0.936,0 -1.836,0 -2.73584,0c-0.87482,0 -1.70151,0 -2.60016,0c-0.89999,0 -1.80002,0 -2.70001,0c-0.89999,0 -1.79999,0 -2.69998,0c-0.90002,0 -1.70001,0 -2.61469,0c-0.896,0 -1.78534,0 -2.68533,0c-0.89999,0 -1.79999,0 -2.69998,0c-0.90002,0 -1.83643,0.40274 -2.61469,-0.08533c-0.74042,-0.46436 -1.28595,-0.88153 -2.20132,-0.91467c-0.79007,-0.02859 -1.50638,-0.68619 -2.384,-0.94284c-0.86557,-0.25311 -1.79999,-0.05716 -2.70001,-0.05716c-0.79999,0 -1.69998,-0.05716 -2.5,-0.5c-0.79999,-0.44284 -1.69864,-0.5 -2.55264,-0.5c-0.94736,0 -1.74734,0 -2.64734,0c-0.89999,0 -1.80002,0 -2.70001,0c-0.89999,0 -1.79999,0 -2.69998,0c-0.90002,0 -1.45438,-0.41769 -2.12152,-0.87851c-0.72968,-0.50403 -1.7785,-0.12149 -2.57849,-0.12149c-0.89999,0 -1.79999,0 -2.70001,0c-0.89999,0 -1.83383,0.05188 -2.47464,-0.42532c-0.68179,-0.50775 -1.51608,-0.43698 -2.38251,-0.57916c-0.87625,-0.1438 -1.63098,-0.89337 -2.34283,-0.99101c-0.89255,-0.12242 -1.69232,-0.44872 -2.39999,-1.10434c-0.59363,-0.54996 -1.49994,-0.89482 -2.30002,-0.90016c-0.89998,-0.006 -1.95016,0.07304 -2.57466,-0.42534c-0.60796,-0.48518 -1.42532,-0.57399 -2.32533,-0.57466c-0.89867,-0.00067 -1.43712,-0.61172 -2.136,-0.964c-0.86142,-0.4342 -1.86407,-0.02461 -2.76266,-0.036c-0.82236,-0.01042 -1.73132,-0.33292 -2.23334,-0.80133c-0.72282,-0.67445 -0.98622,-1.61472 -1.76666,-2.11467c-0.72845,-0.46666 -0.63925,-1.38405 -1.15399,-2.03133c-0.49234,-0.61911 -1.14783,-1.27148 -1.48067,-2.05267c-0.32021,-0.75154 -0.39322,-1.54248 -1.04533,-2.22133c-0.55717,-0.58002 -1.01509,-1.25267 -1.40533,-1.97867c-0.45947,-0.85478 -0.52893,-1.63181 -0.77318,-2.5c-0.22066,-0.78432 -0.95517,-1.62796 -1.24283,-2.30534c-0.31357,-0.73837 -0.70497,-1.65834 -1.17917,-2.45299c-0.44014,-0.73759 -0.52083,-1.62567 -0.52083,-2.54167c0,-0.8 -0.37062,-1.429 -0.87849,-2.2215c-0.47845,-0.74658 -0.62932,-1.38713 -1.06435,-2.13567c-0.42447,-0.73038 -0.05716,-1.74284 -0.05716,-2.64284c0,-0.8 0,-1.71466 0,-2.61067c0,-0.88933 0,-1.78932 0,-2.68933c0,-0.89999 0,-1.8 0,-2.7c0,-0.8 0,-1.7 0,-2.60001c0,-0.89999 -0.1787,-1.85895 0.22133,-2.62149c0.35406,-0.67494 0.36386,-1.60281 0.83583,-2.42134c0.39607,-0.6869 0.91364,-1.35768 0.94284,-2.19049c0.02859,-0.81552 0.93176,-0.77373 1.71466,-1.252c0.80325,-0.49071 1.38535,-0.91467 2.28534,-0.91467c0.8,0 1.7,0 2.60001,0c0.89999,0 1.79999,0 2.6955,0c0.87117,0 1.93114,-0.25862 2.58316,0.22133c0.69826,0.51398 1.00987,1.37428 1.82668,1.726c0.67911,0.29242 1.39859,0.72983 2.09599,1.13667c0.82635,0.48209 1.2963,1.2713 2.19867,1.74933c0.64822,0.34338 1.51805,0.64212 2.00133,1.45067c0.38307,0.6409 0.85605,1.05898 1.28267,1.916c0.32948,0.66188 0.32056,1.61433 0.752,2.364c0.3969,0.68962 1.62384,0.4827 2.01666,1.1405c0.46793,0.78357 0.91873,1.59415 0.94733,2.4955c0.02853,0.89955 -0.19379,1.84544 0.08536,2.60001c0.32169,0.86958 1.56683,0.91959 1.91464,1.55716c0.40363,0.7399 0,1.74284 0,2.64284c0,0.8 0,1.7 0,2.60001l0,0.89999l0,0.89999" id="svg_1" stroke-width="2" stroke="#000" fill="none"/>
  <path t="12309,12397,12413,12437" d="m260.51135,227.09091" id="svg_2" stroke-width="2" stroke="#000" fill="none"/>
  <path t="13469,13605,13605,13613,13613,13621,13629,13629,13645,13653,13661,13669,13669,13685,13693,13701,13709,13717,13733,13742,13758,13758,13765,13781,13789,13797,13813,13829,13853,13853,13877,13901,13909,13941,13957,13973,13981,14005,14021,14021,14029,14061" d="m361.51135,240.09091c-2.00531,0 -2.74933,0 -3.85699,0c-0.83398,0 -1.77899,0 -2.62567,0c-0.8075,0 -1.80264,0 -2.71732,0c-0.89999,0 -1.80002,0 -2.60001,0c-0.89999,0 -1.79999,0 -2.70001,0c-0.89999,0 -1.79999,0 -2.69864,0c-0.88535,0 -1.80136,0 -2.60135,0c-0.89999,0 -1.79999,0 -2.70001,0c-0.89999,0 -1.79999,0 -2.70132,0c-0.96533,0 -1.77783,0 -2.68884,0c-0.81433,0 -1.70981,0 -2.60983,0c-0.89999,0 -1.79999,0 -2.69998,0c-0.89999,0 -1.80002,0 -2.60001,0l-0.89999,0l-0.94284,0" id="svg_3" stroke-width="2" stroke="#000" fill="none"/>
  <path t="15727,15878,15886,15902,15934,15942,15998,16046,16078,16102,16126,16294" d="m345.51135,228.09091c-0.87848,1.2215 -0.67484,2.30356 -1.284,2.91467c-0.53586,0.5376 -1.2644,0.75467 -1.65881,1.44249c-0.46988,0.81941 -0.05719,1.84283 -0.05719,2.74284l0,0.89999l0.16669,0.83333" id="svg_4" stroke-width="2" stroke="#000" fill="none"/>
  <path t="17039,17086,17094,17101,17110,17118,17126,17133,17141,17141,17160,17174" d="m333.51135,231.09091c0,1.8 0,2.7 0,3.60001c0,0.79999 0,1.7 0,2.59999c0,0.90001 0,1.8 0,2.60001l0,1.03333l0,0.77734" id="svg_5" stroke-width="2" stroke="#000" fill="none"/>
  <path t="21558,21789,21821,21829,21853,21885,21925,21942,22117,22133,22142,22261,22285,22325,22349,22437,22461,22470,22485,22485,23054,23117,23125,23333,23365,23374,23389,23405,23405,23415,23429,23453,23629,23645,23677,23686,23725,23725,23741,23805,23830,23830,23845,23869,23957,23981,23989,24005,24109,24117,24133,24134,24149" d="m284.51135,217.09091c1.80002,0 2.70001,0 3.60001,0c0.89999,0 1.80002,0 2.70001,0c0.89999,0 1.79984,0 2.64734,0c0.75717,0 1.75266,0 2.65265,0c0.89999,0 1.80002,0 2.70001,0c0.89999,0 1.79999,0 2.69998,0c0.80002,0 1.3273,0.28731 2.00018,0.87849c0.55975,0.49179 1.2319,0.93929 2.09967,1.12167c0.79233,0.16653 1.30457,0.84709 2.10016,1.28383c0.64813,0.35577 1.51468,0.71533 2.41068,0.716c0.88931,0.00066 1.78635,0.00122 2.38931,0.5c0.65585,0.54253 1.05182,1.35638 2,1.5c0.79099,0.11981 1.38718,0.31448 2.16669,0.83333c0.70743,0.47087 1.66776,-0.02928 2.53333,0.22383c0.87762,0.25664 1.59863,0.91425 2.5,0.94284c0.89938,0.02853 1.34937,0.29321 2.02151,0.87849c0.66882,0.58238 1.77847,0.12151 2.57849,0.12151l0.84283,0.05716" id="svg_6" stroke-width="2" stroke="#000" fill="none"/>
  <path t="25062,25157,25189,25189,25197,25197,25205,25229,25246,25269,25277,25309,25317,25333,25350,25357,25357,25365,25389,25437,25437,25485,25494,25541,25653,25653,25669,25701" d="m285.51135,219.09091c1.71469,1.084 2.32272,1.89825 3.02084,1.97917c0.95154,0.11029 1.77783,0.02083 2.67917,0.02083c0.89999,0 1.98489,-0.19386 2.65268,0.35716c0.70197,0.57922 0.87939,1.46062 1.74716,1.64301c0.79233,0.16653 1.30457,0.84709 2.10016,1.28383c0.64813,0.35577 1.25076,1.04607 1.96667,1.54933c0.69522,0.48872 1.61197,0.28877 2.43332,0.74133c0.77087,0.42474 1.40451,0.7825 1.68533,1.62401l0.51602,0.51599l0.89865,0.28084l0.89999,0.0045" id="svg_7" stroke-width="2" stroke="#000" fill="none"/>
  <path t="27557,27733,27749,27789,28117,28117,28125,28149" d="m325.51135,226.09091c1.83334,0.16667 2.21527,0.9391 3.10001,1c0.89786,0.0618 1.70001,0 2.60001,0l0.89999,0.036" id="svg_8" stroke-width="2" stroke="#000" fill="none"/>
  <path t="29101,29229,29245,29253,29277,29301,29317,29365,29397,29501,29517,29885" d="m308.51135,225.09091c1.83334,0.16667 2.21527,0.9391 3.10001,1c0.89786,0.0618 1.46371,0.18394 1.98535,0.716c0.67047,0.68387 1.74799,0.45067 2.13617,1.16249l0.87833,0.12167l0.81616,0.28383" id="svg_9" stroke-width="2" stroke="#000" fill="none"/>
  <path t="30653,30733,30749,30765,30781,30797" d="m304.51135,228.09091c1.80002,0 2.64285,0.05716 3.16669,0.83333l0.83331,0.16667l0.83334,0.16667" id="svg_10" stroke-width="2" stroke="#000" fill="none"/>
  <path t="31669,31772,31797,31805,31813,32101,32117" d="m327.51135,227.09091c1.80002,0 2.70001,0 3.5,0.02083l0.88934,0.41518l0.48935,0.66383l0.40533,0.81483" id="svg_11" stroke-width="2" stroke="#000" fill="none"/>
 </g>
 <g display="none">
  <title>muse_image</title>
  <image xlink:href="http://farm1.static.flickr.com/158/424904790_c3b90d8be0.jpg" id="muse" height="480" width="319" y="0" x="160.5"/>
 </g>
 <g display="none">
  <title>bbox</title>
  <rect stroke="#f00" fill="none" stroke-width="3" height="69.12" width="118.78679" y="193.92" x="242.88438" id="bbox"/>
 </g>
</svg>
