<svg width="640" height="480" xmlns="http://www.w3.org/2000/svg" xmlns:svg="http://www.w3.org/2000/svg" xmlns:xlink="http://www.w3.org/1999/xlink">
 <!-- Sketchy ANNOTATION
  ImageNet ID: n02691156_2377
  URL: http://farm4.static.flickr.com/3127/2585674156_18aeb07be7.jpg
  Image Width: 500
  Image Height: 375
  BBox X: 30
  BBox Y: 83
  BBox Width: 422
  BBox Height: 144
  Exposure: 2000ms
  Synset Label: airplane
  Synset ID: n02691156
  Worker Tag: Airplane flying in the sky
  Sanity Check: 
   Context
   Saved
   Shading
  Comment: 
   {}
  Worker ID: A1P7U2ULSAE7YL
  Assignment ID: 3M68NM076H7OQQ02OY2VIVN0QFXR6C
  HIT ID: 3I01FDIL6M84KV02TTQ6Y9UZUX12DY
  Work Time: 103s
  Worker Score: 0.9286
 END ANNOTATION -->
 <g display="inline">
  <title>Layer 1</title>
  <path t="0,357,365,373,389,413,421,429,429,445,461,469,485,494,501,517,527,541,541,541,549,549,557,565,565,573,573,573,581,589,589,597,597,605,613,613,621,621,629,629,637,645,645,653,653,653,661,661,669,677,677,685,685,685,693,693,701,701,710,710,710,717,717,727,727,727,733,733,741,741,741,749,749,749,757,757,765,765,773,773,773,781,781,781,789,789,797,797,805,805,805,813,813,813,813,821,821,821,829,829,829,837,837,845,845,845,853,853,861,861,861,869,869,877,877,877,885,885,885,893,893,901,901,910,910,910,917,917,917,926,933,933,933,941,941,941,941,949,949,949,957,957,965,965,973,973,973,981,981,981,989,989,989,997,998,998,1005,1005,1005,1013,1013,1013,1013,1021,1021,1021,1021,1029,1029,1029,1037,1037,1037,1037,1045,1045,1053,1053,1053,1053,1061,1061,1061,1061,1069,1069,1077,1077,1077,1085,1085,1085,1093,1093,1101,1101,1101,1109,1110,1110,1110,1117,1126,1127,1133,1133,1133,1143,1143,1149,1149,1157,1157,1157,1165,1165,1166,1173,1173,1181,1181,1189,1189,1197,1197,1205,1205,1205,1213,1213,1221,1229,1229,1230,1237,1237,1237,1245,1253,1261,1261,1269,1269,1270,1277,1277,1285,1285,1285,1293,1293,1301,1301,1309,1310,1317,1317,1317,1326,1326,1327,1333,1333,1343,1349,1349,1357,1357,1365,1365,1366,1373,1381,1381,1389,1389,1397,1398,1405,1405,1405,1413,1421,1421,1422,1429,1437,1438,1445,1445,1453,1453,1461,1461,1469,1469,1470,1477,1485,1485,1493,1493,1501,1501,1509,1509,1517,1541,1549,1581,1589,1589,1598,1598,1605,1613,1613,1621,1621,1629,1629,1637,1653,1661,1661,1661,1669,1669,1677,1685,1685,1693,1693,1701,1709,1726,1742,1743,1765,1773,1773,1789,1797,1814,1821,1829,1853,1861,1869,1885,1893,1893,1909,1917,1925,1933,1949,1949,1958,1973,1989,1989,2005,2013,2013,2021,2037,2045,2045,2053,2061,2077,2085,2085,2117,2125,2142,2150,2159,2173,2181,2189,2197,2205,2221,2221,2229,2245,2253,2285,2301,2341,2349,2373,2389,2413,2469,2479,2501,2512,2565,2597,2606,2661,2685,2733,2773,2805,2845,2909,3005,3021,3061,3116,3149,3165,3189,3221,3253,3357,3373,3413,3437,3437,3469,3485,3509,3533,3628,3661,3685,3701,3709,3741,3749,3773,3781,3805,3844,3869,3893,3909,3925,3925,3949,3973,3981,3997,4006,4029,4069,4085,4101,4109,4125,4125,4141,4165,4173,4181,4197,4228,4237,4245,4245,4261,4269,4269,4277,4277,4285,4301,4309,4309,4317,4325,4333,4341,4349,4357,4365,4373,4373,4381,4405,4413,4414,4423,4430,4445,4446,4446,4453,4453,4461,4469,4469,4477,4485,4485,4486,4493,4493,4501,4501,4509,4509,4517,4525,4525,4533,4533,4541,4541,4549,4549,4557,4565,4565,4573,4581,4582,4589,4597,4597,4605,4606,4613,4613,4622,4629,4630,4639,4645,4653,4653,4654,4661,4661,4661,4669,4677,4685,4693,4693,4693,4701,4701,4701,4709,4717,4725,4725,4733,4733,4734,4741,4741,4749,4757,4757,4757,4765,4765,4766,4773,4773,4781,4789,4789,4797,4798,4798,4805,4806,4813,4814,4822,4823,4829,4830,4830,4839,4839,4846,4853,4861,4861,4861,4869,4869,4870,4877,4877,4885,4886,4893,4901,4901,4909,4910,4917,4917,4925,4925,4933,4934,4941,4941,4949,4950,4957,4957,4965,4966,4973,4973,4981,4982,4992,4997,4997,5005,5005,5006,5013,5014,5021,5022,5029,5030,5038,5038,5039,5046,5046,5047,5058,5058,5059,5062,5063,5063,5072,5073,5077,5078,5085,5085,5093,5093,5101,5102,5109,5117,5117,5125,5125,5126,5133,5134,5141,5141,5142,5149,5157,5157,5165,5165,5173,5173,5174,5181,5181,5189,5189,5197,5198,5205,5205,5206,5213,5214,5214,5221,5222,5222,5237,5238,5246,5246,5255,5255,5261,5262,5269,5277,5277,5285,5286,5293,5293,5294,5301,5302,5309,5317,5318,5325,5325,5333,5334,5341,5341,5349,5356,5357,5358,5365,5366,5366,5373,5381,5382,5388,5389,5397,5398,5398,5405,5405,5406,5413,5421,5421,5429,5430,5430,5438,5438,5439,5445,5455,5462,5463,5469,5470,5476,5477,5485,5493,5501,5502,5509,5517,5525,5525,5533,5540,5557,5557,5565,5566,5581,5589,5589,5604,5621,5621,5629,5645,5646,5661,5669,5670,5685,5693,5717,5733,5733,5749,5749,5765,5765,5781,5788,5797,5813,5829,5853,5861,5861,5870,5885,5893,5901,5917,5917,5924,5933,5941,5957,5958,5965,5981,5981,5997,6004,6021,6022,6029,6045,6069,6077,6101,6117,6133,6141,6141,6157,6173,6181,6188,6213,6236,6253,6269,6269,6276,6293,6317,6333,6357,6381,6390,6398,6405,6421,6430,6430,6441,6446,6454,6463,6471,6487,6488,6502,6503,6510,6518,6526,6526,6534,6541,6558,6566,6574,6592,6605,6614,6624,6631,6646,6646,6654,6663,6671,6679,6688,6694,6695,6702,6710,6711,6718,6719,6719,6725,6726,6734,6735,6742,6742,6750,6750,6750,6757,6758,6766,6767,6767,6774,6775,6792,6792,6798,6799,6813,6837,6838,6853,6854,6861,6862,6871,6871,6879,6879,6880,6890,6895,6896,6902,6903,6910,6910,6911,6911,6918,6919,6919,6925,6926,6934,6934,6935,6941,6942,6950,6958,6959,6966,6967,6973,6974,6982,6983,6989,6990,6998,7005,7006,7014,7021,7030,7031,7037,7038,7046,7047,7047,7058,7058,7062,7063,7078,7079,7087,7088,7104,7126,7141,7157,7173,7221,7277,7285,7310,7311,7318,7325,7334,7373,7389,7413,7477,7509,7510,7525,7534,7541,7589,7590,7597,7613,7621,7637,7653,7654,7662,7685,7701,7718,7725,7741,7766,7789,7790,7805,7814,7829,7837,7847,7862,7877,7878,7882,7894,7902,7910,7934,7934,7950,7958,7966,7966,7973,7989,7998,8014,8029,8069,8165,8237,8333,8589,8613,8614,8630,8645,8656,8657,8662,8677,8688,8694,8704,8710,8721,8722,8726,8741,8751,8758,8768,8773,8774,8782,8798,8806,8822,8837,8846,8857,8857,8867,8868,8877,8894,8895,8905,8905,8921,8937,8942,8954,8955,8967,8973,8983,8997,9005,9006,9014,9021,9030,9493,9504,9512,9519,9535,9536,9542,9557,9573,9583,9605,9621,9632,9637,9646,9653,9662,9677,9688,9700,9725,9734,9751,9759,9782,9789,9799,9813,9837,9853,9862,9877,9893,9918,9942,9957,9958,9969,9989,9999,10021,10030,10045,10061,10069,10087,10087,10094,10103,10110,10125,10135,10154,10158,10182,10190,10198,10221,10253,10263,10286,10301,10310,10325,10326,10336,10353,10373,10421,10438,10501,10525,10541,10559,10582,10829,10853,10854,10861,10862,10870,10871,10877,10878,10886,10887,10893,10902,10903,10910,10910,10911,10918,10931,10934,10935,10935,10945,10950,10958,10966,10974,10989,10990,10999,11006,11016,11033,11034,11038,11061,11078,11079,11086,11094,11103,11120,11121,11134,11135,11149,11157,11166,11181,11191,11198,11199,11209,11222,11237,11238,11261,11270,11271,11278,11285,11286,11294,11309,11320,11326,11341,11353,11382,11383,11398,11411,11422" d="m176.51137,180.09091c2.58932,0 3.5,0 4.39999,0c0.89551,0 1.8215,0 2.70001,0c0.89999,0 1.7,0 2.59999,0c0.90001,0 1.8,0 2.7,0c0.90001,0 1.8,0 2.69984,0c0.85649,0 1.75482,0 2.44183,0c0.77699,0 1.99666,0 2.79666,0c0.909,0 1.82834,0 2.6825,0c0.97917,0 1.76851,0 2.49384,0c1.11067,0 1.97067,0 2.696,0c0.98917,0 1.95334,0 2.90401,0c0.88533,0 1.6425,0 2.5425,0c0.74733,0 1.7415,0 2.68567,0c0.9045,0 1.82384,0 2.67799,0c0.97917,0 1.77917,0 2.57918,0c0.9955,0 1.74283,0 2.77466,0c0.94684,0 1.64616,0 2.62534,0c0.8,0 1.60001,0 2.60001,0c0.79999,0 1.80133,0 2.63599,0c1.18518,0 1.97867,0 2.75417,0c1.04184,0 1.81517,0 2.77917,0c0.7515,0 1.548,0 2.54533,0c0.87466,0 1.8855,0 2.70616,0c0.66451,0 1.66318,0 2.47917,0c0.81599,0 2.04283,0 2.68933,0c1.01083,0 1.8315,0 2.97734,0c0.786,0 1.60799,0 2.66666,0c0.7095,0 1.56216,0 2.56534,0c0.76534,0 1.71866,0 2.57066,0c1.04951,0 1.59315,0 2.51866,0c1.03317,0 1.76016,0 2.85068,0c0.69199,0 1.892,0 2.6405,0c0.70349,0 1.70483,0 2.52081,0c0.81601,0 2.04733,0 2.72534,0c1.19583,0 1.98935,0 2.76483,0c1.04184,0 1.81519,0 2.77917,0c0.7515,0 1.548,0 2.54666,0c0.90933,0 1.85068,0 2.63666,0c0.82202,0 1.88068,0 2.81134,0c0.6315,0 1.63602,0 2.436,0c1,0 1.79999,0 2.79999,0c0.81067,0 1.68533,0 2.68268,0c0.79651,0 1.548,0 2.66666,0c0.98401,0 1.66501,0 2.47202,0c1.17865,0 2.07867,0 2.67865,0c0.90002,0 2.09735,0 2.67868,0c0.80701,0 2.01599,0 2.78934,0c1.04184,0 1.81732,0 2.86533,0c0.71399,0 1.61932,0 2.58801,0c0.80399,0 1.62598,0 2.65732,0c0.69601,0 1.60535,0 2.60666,0c0.83551,0 1.716,0 2.61469,0c0.89999,0 1.79999,0 2.69998,0c0.90451,0 1.52084,0 2.48535,0c1.03601,0 1.76733,0 2.51465,0c1.11603,0 2.17853,0 2.84283,0c0.9465,0 2.15717,0 2.75586,0c0.88049,0 1.71597,0 2.71732,0c0.90933,0 1.85068,0 2.64566,0c0.88501,0 1.52502,0 2.55951,0c1.09351,0 1.8175,0 2.50949,0c1.20001,0 1.94852,0 3.13602,0c0.78598,0 1.608,0 2.66666,0c0.7095,0 1.56216,0 2.56799,0c0.83469,0 1.76535,0 2.55585,0c0.85349,0 2.04282,0 2.64017,0c0.86099,0 1.63199,0 2.74133,0c0.983,0 1.703,0 2.828,0c0.78149,0 1.57199,0 2.5,0c0.948,0 1.82001,0 2.57999,0c1.17468,0 1.70599,0 2.52802,0c1.05865,0 1.98932,0 2.82401,0c1.00131,0 1.80133,0 2.79999,0c0.76532,0 1.71866,0 2.57068,0c1.0405,0 1.81598,0 2.86398,0c0.7095,0 1.56216,0 2.56534,0c0.76532,0 1.71735,0 2.76801,0c0.67999,0 1.51999,0 2.51599,0c0.79651,0 1.548,0 2.64532,0c0.9765,0 1.83868,0 2.69284,0c0.97916,0 1.77917,0 2.57916,0c1.00452,0 1.85718,0 2.82135,0c0.80399,0 1.62598,0 2.65698,0c0.88,0 1.755,0 2.547,0c1.03635,0 1.83633,0 2.79602,0c0.80399,0 1.62598,0 2.65717,0c0.68549,0 1.52017,0 2.517,0c0.91916,0 1.90448,0 2.72598,0c0.88919,0 1.87851,0 2.6785,0c1,0 1.78934,0 2.51468,0c1.11066,0 1.96933,0 2.83267,0c0.90451,0 1.62201,0 2.66251,0c0.77548,0 1.82349,0 2.7435,0c0.75998,0 1.76749,0 2.57999,0c0.91733,0 1.66135,0 2.69601,0c0.97064,0 1.72781,0 2.62784,0c0.74731,0 1.74283,-0.00006 2.54282,0c1,0.00009 1.81619,-0.06445 2.79999,0.16667c0.80862,0.18997 1.49026,0.66911 2.5,0.8125c0.97577,0.13857 1.71069,0.02083 2.70001,0.02083c0.79999,0 1.79999,0 2.58932,0c1.04401,0 1.90619,0 2.71066,0c0.90002,0 1.88934,0 2.78668,0c0.88,0 1.75818,-0.13359 2.69183,0.22133c0.65961,0.25075 1.44778,0.70152 2.34299,1c0.71417,0.23811 1.67169,0.66339 2.46783,0.74268c1.03949,0.10353 1.80002,0.03374 2.68985,0.036c0.88699,0.00226 1.85605,0.15997 2.52615,0.35266c0.74619,0.21457 1.8457,0.5822 2.68567,0.64284c0.94257,0.06805 1.79434,0.00444 2.51968,0.0045c0.98898,0.00009 1.98785,-0.08549 2.728,0.42534c0.66129,0.45642 1.47198,0.57466 2.38266,0.57466c0.85333,0 1.79459,-0.04701 2.67865,0c0.80341,0.04272 1.46594,0.6709 1.97467,1.38933c0.46454,0.65605 1.50378,0.46207 2.32083,0.96333c0.74951,0.45982 1.53107,0.23824 2.34735,0.7045c0.81311,0.46445 1.32382,1.16344 1.95715,1.5175c0.86127,0.48151 1.80002,0.42468 2.70001,0.42534c0.89999,0.00067 1.65048,0.24823 2.39999,0.64734c0.82019,0.43675 1.26495,0.99608 2.00534,1.29999c0.68402,0.28076 1.44897,0.96893 2.29465,1.05267c0.79611,0.07884 1.6015,0.16672 2.16669,0.83333c0.60605,0.71481 0.53564,1.60818 1.26932,2.09467c0.8064,0.5347 1.91269,0.2482 2.39734,1.07201c0.38403,0.65277 0.98434,1.2321 1.16684,2.09984c0.16663,0.79218 1.10422,0.81148 1.99982,0.90016c0.8457,0.08374 1.3313,0.85748 1.97467,1.42534c0.59439,0.52463 1.34943,0.90657 2.02533,1.57466c0.58566,0.5789 0.79596,1.49518 1.28534,2.19867c0.54581,0.78462 1.32288,1.14948 1.93604,1.67982c0.62793,0.54314 1.11542,0.97276 1.7533,1.54684c0.57874,0.52086 1.02563,1.37495 1.8587,1.57466c0.75665,0.1814 1.58545,0.41646 2.08264,1.19867c0.4649,0.73145 1.16156,1.22739 1.65869,1.82666c0.51013,0.61494 0.42529,1.57468 0.42529,2.47467c0,0.89999 0,1.8 0,2.7c0,0.90001 0.04462,1.80113 0,2.67867c-0.04272,0.84059 -0.54529,1.57109 -1.28534,2.03601c-0.77686,0.48802 -1.47424,0.399 -1.716,1.284c-0.21796,0.79776 -0.89673,1.32005 -1.60931,1.82666c-0.72516,0.51555 -1.48334,0.89853 -1.95331,1.57468c-0.56012,0.8058 -1.12628,1.05626 -1.91516,1.42082c-0.77103,0.35631 -1.22537,0.97691 -2.12085,0.97917c-0.90002,0.00226 -1.81738,0.08948 -2.42535,0.57466c-0.62451,0.49838 -1.57468,0.41994 -2.47467,0.42534c-0.88937,0.00534 -1.31628,0.72678 -1.93597,1c-0.88208,0.3889 -1.86874,-0.09088 -2.76401,0.00133c-0.81262,0.08371 -1.45261,0.79886 -2.30002,0.97784c-0.8808,0.18605 -1.82166,-0.17406 -2.69864,0.02216c-0.80707,0.18057 -1.30118,0.98825 -2.15851,0.99867c-0.94278,0.01146 -1.84283,0 -2.74283,0c-0.90002,0 -1.70001,0 -2.60001,0c-0.89999,0 -1.80002,0 -2.70001,0c-0.89548,0 -1.8215,0 -2.69998,0c-0.90002,0 -1.70001,0 -2.53601,0c-1.02118,0 -1.76849,0 -2.76266,0c-0.76532,0 -1.716,0 -2.70132,0c-0.90002,0 -1.70001,0 -2.60001,0c-0.89999,0 -1.80002,0 -2.70001,0c-0.89999,0 -1.79999,0 -2.69998,0c-0.90002,0 -1.70001,0 -2.61469,0c-0.827,0 -1.76932,0 -2.63266,0c-0.89551,0 -1.854,0 -2.81934,0c-0.66934,0 -1.43466,0 -2.42883,0c-0.91916,0 -1.90451,0 -2.72583,0c-0.85333,0 -1.79468,0 -2.84534,0c-0.66934,0 -1.43466,0 -2.43332,0c-0.80002,0 -1.80002,0 -2.60001,0c-0.99966,0 -1.92801,0 -2.85068,0c-0.82132,0 -1.552,0 -2.54932,0c-0.80002,0 -1.80002,0 -2.60001,0c-0.99985,0 -1.96399,0 -2.91467,0c-0.88535,0 -1.68533,0 -2.52133,0c-1.01666,0 -1.71133,0 -2.73868,0c-0.94666,0 -1.62534,0 -2.74133,0c-0.76797,0 -1.70932,0 -2.39999,0c-1.10931,0 -1.96799,0 -2.83133,0c-0.89551,0 -1.854,0 -2.81934,0c-0.67999,0 -1.51999,0 -2.51599,0c-0.79651,0 -1.548,0 -2.64532,0c-0.97202,0 -1.87335,0 -2.83868,0c-0.67999,0 -1.51999,0 -2.51599,0c-0.79651,0 -1.548,0 -2.64532,0c-0.9765,0 -1.83868,0 -2.69284,0c-0.97919,0 -1.77917,0 -2.57916,0c-0.99551,0 -1.74283,0 -2.78534,0c-0.948,0 -1.62451,0 -2.39999,0c-1.048,0 -1.97867,0 -2.81335,0c-0.99683,0 -1.74414,0 -2.776,0c-0.94681,0 -1.64618,-0.00653 -2.62534,0c-0.80005,0.00534 -1.61328,0.03978 -2.59998,0.35266c-0.81268,0.25771 -1.79761,0.59502 -2.60001,0.63667c-0.99872,0.05183 -1.80002,0.01067 -2.80002,0.01067c-0.79999,0 -1.59998,0 -2.59549,0c-0.74731,0 -1.76849,0 -2.70898,0c-0.86218,0 -1.73718,0 -2.38217,0c-0.99734,0 -1.81335,0 -2.62933,0c-1.22684,0 -1.87335,0 -2.88385,0c-0.77933,0 -1.77866,0 -2.80017,0c-0.75714,0 -1.65717,0 -2.40448,0c-0.99417,0 -1.93832,0 -2.84735,0c-0.7175,0 -1.75348,0 -2.4975,0c-1.10782,0 -1.86533,0 -2.73599,0c-0.91916,0 -1.91333,0 -2.67865,0c-0.95203,0 -1.72134,-0.04094 -2.67203,0.01067c-0.76782,0.04167 -1.75101,0.36449 -2.50681,0.63667c-0.89526,0.32242 -1.82385,0.35266 -2.67801,0.35266c-0.97919,0 -1.77917,0 -2.57916,0c-1,0 -1.80002,0 -2.80002,0c-0.79999,0 -1.80264,-0.04736 -2.60001,0.02083c-1.0069,0.08612 -1.80078,0.43561 -2.45715,0.62651c-0.95206,0.2769 -1.76773,0.33061 -2.59018,0.34816c-1.0311,0.022 -1.95267,0.0045 -2.63666,0.0045c-1,0 -1.81601,0 -2.63199,0c-1.22684,0 -2.0795,0 -3.08401,0c-0.79999,0 -1.79984,0 -2.57916,0c-0.85416,0 -1.78668,0.01965 -2.67349,0.35266c-0.70642,0.26527 -1.59332,0.61874 -2.51401,0.64734c-0.85376,0.02652 -1.83334,0 -2.63333,0c-0.79999,0 -1.8045,0 -2.436,0c-1.18515,0 -1.97867,0 -2.75415,0c-1.03918,0 -2.00986,-0.00188 -2.767,0c-0.90451,0.00226 -1.71173,0.01935 -2.66418,0.22133c-0.81143,0.17207 -1.61514,0.48129 -2.65698,0.65717c-0.87338,0.14745 -1.755,0.12151 -2.547,0.12151c-0.86136,0 -1.62134,0 -2.79617,0c-0.81451,0 -1.68301,0 -2.57852,0c-0.89548,0 -1.76398,0 -2.83331,0c-0.7005,0 -1.59467,0 -2.6095,0c-0.74252,0 -1.67319,0 -2.44116,0c-0.95203,0 -1.71735,0 -2.71152,0c-0.91916,0 -1.90451,0 -2.72598,0c-0.88919,0 -1.87851,0 -2.67853,0c-1,0 -1.79999,0 -2.59998,0c-0.99551,0 -1.74283,0 -2.77469,0c-0.94681,0 -1.64615,0 -2.62534,0c-0.78931,0 -1.83331,0 -2.62531,0c-1.02734,0 -1.72202,0 -2.76001,0c-0.948,0 -1.62451,0 -2.39999,0c-1.048,0 -1.96802,0 -2.72801,0c-0.98666,0 -1.972,0 -2.69733,0c-0.9895,0 -1.81017,0 -2.95601,0c-0.786,0 -1.608,0 -2.66666,0c-0.705,0 -1.505,0 -2.54134,0c-0.94684,0 -1.64616,0 -2.62534,0c-0.81067,0 -1.68533,0 -2.68266,0c-0.79651,0 -1.548,0 -2.64534,0c-0.972,0 -1.87466,0 -2.64267,0c-1.03467,0 -1.77866,0 -2.696,0c-0.912,0 -1.83333,0 -2.744,0c-0.91066,0 -1.58932,0 -2.70265,0c-0.8385,0 -1.59651,0 -2.40401,0c-1.07201,0 -1.89334,0 -2.804,0c-0.85333,0 -1.79466,0 -2.56267,0c-0.94133,0 -1.94933,0 -2.82933,0c-0.82834,0 -1.77066,0 -2.634,0c-0.89549,0 -1.854,0 -2.53799,0c-0.94,0 -1.948,0 -2.81017,0c-0.90451,0 -1.78368,0 -2.66617,0c-0.95967,0 -1.63834,0 -2.617,0c-0.90533,0 -1.84666,0 -2.53734,0c-1.07333,0 -1.98399,0 -2.88399,0c-0.90001,0 -1.8,0 -2.70001,0c-0.89999,0 -1.7,0 -2.59999,0c-0.90001,0 -1.8,0 -2.71068,0c-0.91066,0 -1.58932,0 -2.70399,0c-0.88533,0 -1.71866,0 -2.59517,0c-0.8075,0 -1.79016,0 -2.6115,0c-0.85333,0 -1.79333,0 -2.77867,0c-0.89999,0 -1.7,0 -2.59999,0c-0.864,0 -1.73601,0 -2.7,0c-0.90001,0 -1.8,0 -2.70001,0c-0.89999,0 -1.7,0 -2.59999,0c-0.90001,0 -1.8,0 -2.68933,0c-0.89601,0 -1.81067,0 -2.71068,0c-0.89999,0 -1.7,0 -2.59999,0c-0.90001,0 -1.8,0 -2.7,0c-0.89551,0 -1.7756,0.1286 -2.69984,-0.00017c-0.80186,-0.11172 -1.25587,-0.97124 -2.1015,-0.99983c-0.96478,-0.03262 -1.89284,0.2179 -2.62933,-0.284c-0.69693,-0.47493 -1.62332,-0.52011 -2.11667,-1.07317c-0.60367,-0.67673 -1.04021,-1.55293 -1.80983,-1.63834c-0.89008,-0.09877 -1.78635,-0.02797 -2.60683,-0.42984c-0.86993,-0.42609 -1.636,-0.57466 -2.436,-0.57466c-0.89999,0 -1.82002,0.0027 -2.59999,-0.42534c-0.82175,-0.45097 -1.33713,-1.18639 -2.03601,-1.53867c-0.86142,-0.4342 -1.87985,0.13074 -2.76266,-0.03732c-0.75862,-0.14441 -1.36765,-0.95172 -2.15317,-0.99417c-0.88971,-0.04808 -1.91293,0.27267 -2.70083,-0.06168c-0.80944,-0.34349 -1.53847,-0.86377 -2.14734,-1.51083c-0.48357,-0.5139 -1.10049,-1.35356 -1.96666,-1.43199c-0.85171,-0.07712 -1.85455,-0.30135 -2.42883,-0.70534c-0.77843,-0.54761 -1.52547,-1.11066 -2.28851,-1.37733c-0.9586,-0.33502 -1.53403,-0.59563 -2.51466,-1.11867c-0.7766,-0.41422 -1.45215,-0.95135 -1.976,-1.62399c-0.52729,-0.67706 -1.26864,-1.44069 -1.83601,-1.76401c-0.96719,-0.55115 -1.59943,-0.77512 -2.304,-1.21066c-0.8994,-0.556 -1.43864,-1.03465 -2.49066,-1.5c-0.73364,-0.32452 -1.74786,-0.5851 -2.312,-1.09999c-0.73803,-0.67358 -0.80825,-1.63271 -1.29333,-2.20001c-0.6426,-0.75153 -1.27467,-1.28532 -1.87334,-1.88399c-0.69067,-0.69067 -1.31596,-1.38568 -2.016,-1.99518c-0.63805,-0.55553 -1.3442,-0.88989 -2.016,-1.32083c-0.87436,-0.56088 -1.62091,-1.26797 -2.084,-1.836c-0.65806,-0.80717 -0.87044,-1.44698 -1.73334,-2.364c-0.40486,-0.43025 -1.17929,-0.99146 -1.7185,-1.34283c-1.01163,-0.65923 -1.75404,-0.96106 -2.4615,-1.54117c-0.6576,-0.53922 -1.02231,-1.3781 -1.80817,-2.0945c-0.63561,-0.57944 -1.27943,-0.82095 -2.2695,-1.317c-0.69438,-0.3479 -1.51545,-0.8132 -2.11883,-1.41434c-0.6432,-0.64081 -1.30984,-1.23228 -1.8795,-1.9155c-0.55273,-0.6629 -0.88499,-1.64653 -1.612,-2.20667c-0.60368,-0.46512 -1.42447,-0.90656 -2.146,-1.46266c-0.74136,-0.5714 -1.68613,-0.83003 -2.25266,-1.31601c-0.74325,-0.63756 -0.96667,-1.55516 -1.56667,-2.22266c-0.48007,-0.53407 -1.16199,-1.12166 -1.804,-1.59868c-0.71699,-0.53271 -1.82613,-0.57527 -2.34667,-0.73599c-1.02554,-0.31665 -1.79217,-1.04469 -2.516,-1.49867c-0.71834,-0.45053 -1.42549,-1.07794 -1.92383,-1.68517c-0.66785,-0.81378 -1.61633,-1.04683 -2.07217,-1.84816c-0.45288,-0.79611 -0.58128,-1.38188 -1.17067,-1.96667c-0.56884,-0.56442 -0.9707,-1.18921 -1,-2.13333c-0.02792,-0.89957 -0.11782,-1.91394 -0.7045,-2.34283c-0.75946,-0.55521 -1.33834,-1.06726 -1.7955,-1.85716c-0.40731,-0.70377 -1.0012,-1.3148 -1.47917,-2c-0.48197,-0.69093 -0.89812,-1.49216 -1.0195,-2.3c-0.13651,-0.90855 -1.00349,-0.70738 -1.716,-1.28532c-0.74412,-0.60359 0.14426,-1.86708 -0.3425,-2.55751c-0.51611,-0.73206 -0.90752,-1.12334 -1.46367,-1.85716c-0.58854,-0.77658 -0.92753,-1.46503 -1.53183,-2.14284c-0.49319,-0.55319 -1.42126,-0.56046 -2.114,-1.19049c-0.59986,-0.54556 -1.19855,-1.03789 -2.03333,-1.168c-0.91533,-0.14267 -1.62999,-0.76926 -1.78933,-1.59868c-0.18208,-0.94778 -0.80146,-1.40088 -1.00933,-2.20132c-0.21204,-0.81645 -0.7308,-1.41483 -1.168,-2.19867c-0.36359,-0.65187 -0.95992,-1.53015 -1.78067,-1.94284c-0.68414,-0.34399 -1.55782,-0.57272 -2.25267,-1.25716c-0.50376,-0.49622 -1.3055,-1.13463 -1.716,-2c-0.35931,-0.75746 -0.79465,-1.42944 -1.584,-1.8c-0.89658,-0.4209 -1.43845,-1.09393 -1.5,-2c-0.06199,-0.91257 -0.67205,-1.28221 -1.22133,-1.87866c-0.5848,-0.63503 -1.68275,-0.76428 -1.72133,-1.54668c-0.04102,-0.83179 1.30581,-0.41678 2.401,-0.57466c0.78648,-0.11337 1.52798,-0.91209 2.24167,-0.9955c0.89392,-0.10446 1.8,-0.0045 2.7,-0.0045c0.9,0 1.80377,0.08212 2.7,-0.00017c0.91144,-0.08368 1.55128,-0.80064 2.37917,-0.979c0.9356,-0.20155 1.82084,-0.02083 2.72084,-0.02083c0.9,0 1.8,0 2.6,0c0.9,0 1.8,0 2.7,0c0.88933,0 1.78533,0 2.70133,0c0.96533,0 1.79964,0.04025 2.632,0c0.88309,-0.04271 1.3819,-0.9391 2.26683,-1c0.78331,-0.05391 1.72517,0 2.41583,0c1.03733,0 1.96382,0.08409 2.784,-0.35266c0.7495,-0.39911 1.5,-0.64667 2.4,-0.64734c0.9,-0.00066 1.8,0.00009 2.71067,0c0.9105,-0.00009 1.79707,0.08194 2.528,-0.42534c0.66013,-0.45813 1.58337,-0.62329 2.072,-0.14932c0.54178,0.52551 0.90885,1.25014 1.42533,1.97466c0.56,0.78555 1.20599,1.30038 1.564,2.10001c0.35633,0.79588 1.09821,1.39114 2,1.5c0.80006,0.09657 1.47914,0.66171 1.97466,1.38933c0.45343,0.6658 1.07544,1.26216 1.72984,1.66335c0.77168,0.47307 1.26691,1.24597 1.2955,2.146c0.02811,0.88489 0.35194,1.62846 0.94733,2.15399c0.63814,0.56326 0.99631,1.39897 1.75716,1.64284c0.89548,0.28702 1.47158,0.52286 2.27016,1.01517c0.72231,0.4453 1.01073,1.3696 1.52534,1.98933c0.49991,0.60205 0.44704,1.53476 0.85267,2.3c0.4484,0.84593 0.86189,1.67009 1.222,2.3c0.49403,0.8642 0.93461,1.61513 1.25867,2.39999c0.3554,0.86079 0.72107,1.44633 1.46217,1.94733c0.74181,0.50148 1.44592,1.05258 1.6685,1.914c0.16434,0.63603 -0.01904,1.87825 0.7405,2.13417c0.89113,0.30026 0.87242,0.83885 1.35267,1.64734c0.39128,0.65871 1.46644,0.81757 2.23833,1.30449c0.70243,0.4431 1.09988,1.25658 1.7885,1.76868c0.67709,0.50352 1.28654,0.7139 1.7945,1.50549c0.4789,0.74629 0.39156,1.55217 1.2215,1.99983c0.64764,0.34933 1.64558,0.71831 1.8955,1.48317c0.29207,0.89386 0.83191,0.88431 1.64733,1.35266c0.81199,0.46638 1.12075,1.25398 1.70984,1.89017c0.53298,0.57559 1.22195,1.04733 2.14733,1.05267c0.94282,0.00543 1.68533,0 2.61733,0c0.852,0 1.888,0 2.632,0c0.91734,0 1.86533,0 2.73467,0c0.86333,0 1.76333,0 2.68266,0c0.85417,0 1.83334,0 2.62267,0c0.72533,0 1.8,0 2.632,0c0.912,0 1.82935,0 2.57333,0c1.03334,0 1.95267,0 2.80667,0c0.89867,0 1.7195,0 2.68266,0c0.86334,0 1.75883,0 2.716,0c0.90001,0 1.8,0 2.60001,0c0.91466,0 1.74167,0 2.68399,0c0.86334,0 1.75883,0 2.716,0c0.90001,0 1.8,0 2.55717,0c0.89549,0 1.75883,0 2.722,0c0.92082,0 1.82083,0 2.72083,0c0.90001,0 1.8,0 2.60001,0c0.89999,0 1.72083,0 2.68266,0c0.8075,0 1.80267,0 2.71867,0c0.68399,0 1.62399,0 2.63199,0c0.86217,0 1.76668,0 2.66667,0c0.89999,0 1.8,0 2.69867,0c0.85399,0 1.80133,0 2.60133,0l0.89999,0l0.90001,0l0.89999,0" id="svg_1" stroke-width="2" stroke="#000" fill="none"/>
  <path t="14511,14629,14638,14653,14661,14661,14670,14670,14678,14685,14695,14701,14711,14717,14717,14726,14742,14758,14782,14782,14790,14822,14846,14854,14870,14878,14878,14902,14911,14912,14917,14942,14950,14982,15006,15014,15030,15038,15046,15062,15078,15102,15111,15117,15126,15142,15150,15158,15166,15166,15182,15189" d="m77.51137,191.09091c0.61066,1.564 1.47794,1.82751 2.3,2.35716c0.79893,0.51476 1.17458,1.16928 1.9,1.84151c0.58045,0.53789 1.5901,0.80042 1.79867,1.60266c0.2266,0.8716 0.4772,1.76251 1.30133,2.146c0.76669,0.35675 1.69029,0.49944 2.34283,1.16251c0.56939,0.57857 0.60405,1.60234 1.35717,2.05684c0.72701,0.43874 1.53205,0.76811 2.3,1.18599c0.8409,0.45758 1.93241,0.21307 2.53334,0.81401c0.60092,0.60092 0.1795,1.68402 0.6875,2.33333c0.6004,0.76741 1.44313,0.94409 2.19383,1.584c0.66597,0.56769 0.95467,1.4644 1.64249,1.85883c0.8194,0.46988 1.84283,0.05717 2.74284,0.05717c0.9,0 1.5794,0.2843 2.184,0.916c0.54652,0.57101 1.06583,0.99321 1.69067,1.50934c0.6003,0.49585 0.87633,1.30617 1.46133,1.96399c0.61616,0.69284 1.66383,0.61101 2.44267,1.05334l0.14667,0.70667l0.4,0.78932l0.6,0.636" id="svg_2" stroke-width="20" stroke="#fff" fill="none"/>
  <path t="20957,21116,21126,21133,21142,21158,21166,21174,21190,21198,21198,21206,21230,21246,21262,21278,21287,21301,21325,21325,21342,21350,21365,21381,21390,21406,21406,21414,21421,21422,21430,21437,21446,21454,21462,21470,21494,21494,21501,21518,21533,21534,21550,21558,21565,21574,21574,21590,21598,22142,22157,22157,22166,22174,22197,22206,22213,22229,22229,22245,22246,22253,22262,22270,22286,22302,22310,22319,22319,22326,22333,22350,22358,22365,22366,22382,22389,22397,22405,22414,22422,22422,22429,22437,22445,22445,22453,22453,22461,22461,22469,22469,22469,22477,22477,22485,22485,22493,22493,22502,22502,22509,22509,22518,22525,22533,22533,22533,22549,22549,22557,22574,22590,22606,22606,22621,22638,22654,22670,22686,22686,22703,22703,22710,22718,22726,22726,22734,22757,22766,22774,22774,22782,22797,22806,22813,22829,22830,22837,22846,22861,22877,22893,22902,22902,22910,22925,22942,22950,22965,22989,23013,23013,23029,23053,23054,23062,23077,23309,23317,23318,23325,23334,23341,23349,23349,23357,23357,23357,23366,23366,23374,23382,23382,23389,23406,23406,23413,23437,23773,23799,23807,23814,23830,23831,23838,23854,23855,23863,23870,23879,23886,23895,23902,23918,23927,23942,23966,23975,23998,24022,24023,24046,24055,24070,24079,24086,24087,24106,24126,24142,24142,24174,24183,24190,24198,24214,24223,24239,24247,24254,24278,24286,24295,24310,24326,24335,24358,24368,24383,24406,24422,24439,24447,24447,24455,24470,24494,24510,24526,24558,24574,24574,24598,24653,24782,24791,24806,24902,24902,24918,24926,24958,25229,25238,25262,25262,25805,25837,25838,25877" d="m91.51137,194.09091c1.83334,0 2.61066,0 3.6,0c0.9,0 1.8,0 2.7,0c0.9,0 1.8,0 2.7,0c0.8,0 1.7,0 2.564,0c0.872,0 1.83601,0 2.736,0c0.9,0 1.8,0 2.7,0c0.8,0 1.7,0 2.6,0c0.9,0 1.8,0 2.7,0c0.80017,0 1.58533,0 2.52534,0c1.008,0 1.87016,0 2.77467,0c0.9,0 1.8,0 2.7,0c0.89867,0 1.75267,0 2.7,0c0.8,0 1.7,0 2.52084,0c0.96317,0 1.65383,0 2.72199,0c0.95717,0 1.85718,0 2.75717,0c0.8,0 1.7,0 2.60001,0c0.85832,0 0.35455,-0.1938 -0.40001,0.08533c-0.8696,0.32169 -0.99008,1.55887 -1.72083,1.89384c-0.79971,0.36659 -1.71158,0.49106 -2.47917,0.85416c-0.7126,0.33708 -1.64056,0.54968 -2.34734,0.81401c-0.99088,0.37057 -1.52972,1.06966 -2.26333,1.342c-0.83426,0.30971 -1.59264,0.55385 -2.48933,0.88916c-0.85064,0.31808 -1.7,0.12151 -2.60001,0.12151c-0.89999,0 -1.83887,-0.06064 -2.6,0.35266c-0.74622,0.4052 -1.53454,0.45073 -2.4,0.7045c-0.87744,0.25729 -1.59451,0.90353 -2.46933,0.94284c-0.8509,0.03822 -1.78021,0.27435 -2.52617,0.64734c-0.77837,0.38919 -1.71516,0.35266 -2.62583,0.35266c-0.85333,0 -1.84234,-0.14426 -2.56267,0.17067c-0.86366,0.37759 -1.29475,1.05562 -2.116,1.66266c-0.772,0.57065 -1.40234,0.85757 -2.39867,1.36667c-0.58187,0.29732 -1.4315,0.80424 -2.10133,1.3c-0.8175,0.60504 -1.47018,1.06189 -2.47867,1.37866c-0.75686,0.23773 -1.66244,0.50288 -2.36867,0.76868c-0.88256,0.33215 -1.854,0.35266 -2.81933,0.35266c-0.66933,0 -1.43571,-0.04134 -2.42883,0.0045c-0.92174,0.04254 -1.68262,0.6127 -2.60451,0.91017c-0.86036,0.27762 -1.9101,0.13992 -2.364,0.696c-0.61451,0.75284 -1.06627,1.22177 -1.936,1.41016c-0.85053,0.18422 -1.65833,0.8656 -2.32533,0.94318c-1.00189,0.11652 -1.89798,-0.15347 -2.77467,0.07199c-0.86625,0.22278 -1.41938,1.16911 -2.10001,1.60684c-0.71378,0.45906 -1.77753,0.27176 -2.5,0.64116c-0.86405,0.44179 -1.6,0.71533 -2.5,0.716c-0.89999,0.00066 -1.83887,-0.06064 -2.6,0.35266c-0.74622,0.4052 -1.53454,0.45073 -2.4,0.7045c-0.87744,0.25729 -1.59863,0.91425 -2.5,0.94284c-0.89955,0.02855 -1.8,0 -2.6,0c-0.9,0 -1.8,0 -2.7,0c-0.9,0 -1.80654,-0.10696 -2.7,0.00133c-0.91977,0.11148 -1.45362,0.79944 -2.32084,0.97784c-0.94363,0.19414 -1.8265,0.02083 -2.722,0.02083c-0.95716,0 -1.85717,0 -2.75716,0c-0.8,0 -1.72593,0.18149 -2.6,-0.036c-0.87271,-0.21713 -1.55823,-0.86081 -2.42083,-0.94318c-0.97495,-0.09309 -1.77916,-0.02083 -2.57917,-0.02083c-0.9955,0 -1.74283,0 -2.77467,0c-0.9465,0 -1.764,0 -2.708,0c-0.91733,0 -1.70545,-0.10608 -2.41733,-0.5c-0.88597,-0.49025 -2.14173,-0.51022 -1.95833,-1c0.30795,-0.8224 1.71563,-0.33629 2.55833,-0.72133c0.6693,-0.3058 1.46395,-0.77333 2.34283,-0.77867c0.74249,-0.0045 1.85965,0.09183 2.53183,-0.42534c0.61648,-0.47432 1.39526,-0.608 2.05067,-1.14932c0.60484,-0.49956 1.14133,-1.25867 1.97467,-1.42534c0.83333,-0.16667 1.30066,-0.82115 2.09983,-1.00017c0.84365,-0.18898 0.99136,-1.25633 1.7015,-1.71449c0.7097,-0.45787 1.69867,-0.2831 2.59867,-0.28534c0.90001,-0.00226 1.8155,-0.26785 2.4,-0.80133c0.71971,-0.65688 1.55941,-1.01186 2.29983,-1.42c0.69109,-0.38095 1.24422,-1.39253 2.10017,-1.69334c0.75903,-0.26675 1.40751,-0.56796 2.08533,-1c0.77364,-0.49312 1.45384,-0.69301 2.15067,-1.04933c0.84982,-0.43456 1.43792,-0.76158 2.17466,-1.02533c0.83736,-0.29976 1.90561,0.10033 2.38934,-0.53149c0.51857,-0.67732 1.10429,-1.32928 2,-1.47917c0.83819,-0.14026 1.28236,-0.95729 2.2,-1c0.89902,-0.04184 1.8,0 2.6,0c0.9,0 1.81983,0.16821 2.7,-0.02083c0.84442,-0.18137 0.9547,-1.27934 1.7215,-1.85767c0.70808,-0.53403 1.55836,-0.24139 2.3785,-0.69617c0.78222,-0.43376 1.73103,-0.61218 2.23334,-1.42534c0.47168,-0.76358 1.16707,-0.97462 1.96666,-1c0.90136,-0.02859 1.67261,-0.55327 2.49551,-0.94284c0.68483,-0.32422 1.10889,-0.90442 1.9045,-1.34116c0.64811,-0.35577 1.55717,-0.7115 2.45267,-0.716l0.69467,0l1.01666,0" id="svg_4" stroke-width="2" stroke="#000" fill="none"/>
  <path t="26854,27037,27046,27126,27175,27183,27190,27206,27230,27238,27262" d="m75.51137,194.09091c-1.564,-0.61067 -1.93637,-1.51825 -2.42533,-2.01067c-0.53183,-0.53558 -1.3022,-0.5656 -2.13867,-1.02533c-0.65577,-0.36041 -1.01067,-1 -1.52,-1.68001l-0.79484,-0.50533" id="svg_5" stroke-width="2" stroke="#000" fill="none"/>
  <path t="28654,28782,28790,28806,28838,28846,28846,28854,28862,28870,28886,28902,28909,28918,28942,28966,28982,28982,28997,29021,29021,29029,29046,29062,29070,29110,29134,29221" d="m112.51137,224.09091c-0.8785,-1.2215 -0.60554,-2.38158 -1.284,-2.91467c-0.69727,-0.54788 -1.84956,-0.12415 -2.35883,-0.78983c-0.51833,-0.67752 -0.87519,-1.45441 -1.44116,-2.01151c-0.67114,-0.66063 -1.30769,-1.18443 -1.89067,-1.70934c-0.58917,-0.53049 -1.46152,-0.84033 -1.904,-1.67467c-0.44274,-0.83481 -0.68674,-1.54797 -1.42133,-2.1955c-0.66221,-0.58372 -1.63059,-0.31091 -2.41467,-0.78983c-0.80328,-0.49065 -1.38516,-0.91484 -2.164,-1.136l-0.4785,-0.72151l-0.84283,-0.05716l-0.89983,0" id="svg_6" stroke-width="2" stroke="#000" fill="none"/>
  <path t="30607,30765,30774,30774,30782,30782,30782,30789,30789,30798,30806,30814,30814,30830,30830,30838,30854,30909,30918,30934,30950,30966,30974,31046,31262,31302,31326,31326,31342,31350,31374,31382,31390,31398,31422,31446,31454,31541,31597,31670,31702,31773" d="m62.51137,184.09091c-1.75717,-1.05267 -2.661,-1.34897 -3.21067,-1.61067c-0.99649,-0.47443 -1.7735,-0.91371 -2.38934,-1.10399c-0.9758,-0.30148 -1.93433,-0.11113 -2.87917,-0.30617c-0.86708,-0.179 -1.61419,-0.91702 -2.40617,-0.97784c-0.93724,-0.07198 -1.73807,0.42375 -2.668,-0.03732c-0.7072,-0.35065 -1.23563,-1.06952 -1.94667,-1.464c-0.88543,-0.49124 -1.80127,-0.45227 -2.69867,-0.5c-0.8034,-0.04272 -1.10209,-0.82074 -1.90117,-1.00017c-0.84109,-0.18886 -0.71151,-1.12782 -0.19567,-1.69983c0.6558,-0.7272 1.59278,-1.06711 2.2115,-1.584c0.65695,-0.54884 1.6504,-0.4628 2.048,-1.15201c0.47695,-0.82675 0.46207,-1.64157 1.06133,-2.13866c0.61495,-0.5101 1.57467,-0.42534 2.45383,-0.44617l0.5735,-0.62651l0.65183,-0.40533" id="svg_7" stroke-width="2" stroke="#000" fill="none"/>
  <path t="56974,57053,57053,57070,57085,57094,57094,57102,57109,57118,57118,57125,57141,57142,57149,57166,57173,57174,57181,57190,57190,57197,57206,57206,57213,57214,57221,57221,57225,57237,57246,57246,57246,57253,57254,57254,57262,57262,57263,57270,57270,57277,57277,57286,57286,57286,57294,57294,57294,57294,57302,57302,57310,57310,57318,57318,57325,57325,57334,57334,57341,57341,57341,57349,57350,57358,57358,57366,57373,57374,57374,57381,57389,57389,57397,57398,57406,57406,57413,57421,57422,57430,57430,57438,57438,57446,57447,57454,57454,57454,57462,57463,57463,57469,57479,57479,57485,57485,57485,57493,57493,57501,57509,57509,57509,57517,57517,57525,57525,57535,57536,57541,57549,57549,57549,57557,57557,57557,57565,57565,57573,57573,57581,57581,57581,57589,57589,57589,57590,57597,57597,57605,57606,57613,57613,57613,57613,57622,57622,57629,57629,57629,57637,57638,57645,57645,57646,57646,57653,57653,57661,57662,57669,57669,57669,57678,57685,57685,57693,57693,57701,57701,57709,57717,57725,57725,57733,57741,57749,57757,57765,57773,57781,57789,57789,57800,57805,57813,57821,57821,57829,57829,57839,57845,57853,57862,57869,57885,57894,57901,57901,57909,57917,57925,57933,57941,57957,57965,57981,57981,57989,58412,58429,58445,58453,58476,58485,58501,58525,58557,58573,58581,58589,58597,58605,58621,58644,58717,58733,58741,58757,58773,58781,58789,58789,58797,58806,58814,58933,58957,58966,58974,59141,59150,59174,59198,59198,59206,59213,59222,59229,59238,59246,59270,59277,59286,59294,59294,59302,59310,59318,59318,59327,59334,59342,59350,59365,59374,59374,59381,59390,59398,59413,59422,59429,59438,59445,59454,59454,59461,59470,59470,59477,59478,59486,59494,59494,59502,59502,59510,59527,59527,59534,59534,59542,59550,59550,59558,59558,59565,59574,59574,59582,59589,59597,59598,59606,59606,59613,59622,59622,59629,59630,59638,59645,59654,59661,59670,59670,59677,59686,59686,59694,59702,59702,59710,59710,59726,59727,59734,59734,59743,59743,59750,59750,59758,59758,59765,59766,59781,59782,59790,59790,59797,59798,59806,59813,59814,59822,59822,59829,59838,59845,59846,59854,59861,59885,59886,59894,59894,59902,59902,59910,59918,59926,59934,59934,59943,59944,59950,59958,59958,59965,59974,59982,59990,59997,60006,60029,60045,60054,60061,60077,60078,60086,60093,60102,60110,60118,60134,60134,60144,60145,60151,60151,60161,60161,60166,60167,60177,60182,60183,60193,60194,60198,60199,60211,60211,60214,60215,60227,60230,60231,60243,60254,60254,60270,60271,60271,60278,60286,60302,60303,60310,60318,60319,60327,60334,60335,60343,60350,60366,60367,60374,60375,60375,60382,60390,60398,60406,60414,60422,60438,60439,60454,60462,60478,60494,60495,60510,60527,60535,60566,60575,60582,60606,60606,60614,60615,60622,60630,60638,60654,60662,60663,60678,60679,60686,60694,60702,60703,60710,60711,60718,60727,60727,60734,60735,60743,60751,60760,60767,60782,60806,60814,60830,60839,60854,60886,60910,60942,60958,60974,61318,61334,61342,61359,61366,61367,61367,61380,61381,61383,61393,61393,61398,61409,61430,61438,61446,61447,61454,61462,61470,61478,61486,61494,61510,61526,61534,61547,61567,61583,61583,61592,61599,61613,61622,61623,61638,61646,61654,61670,61686,61694,61710,61718,61719,61734,61742,61750,61774,61782,61783,61799,61799,61815,61839,61839,61846,61862,61870,61894,61910,61911,61926,61934,61950,61966,61967,61982,61983,61991,61999,62046,62054,62079,62102,62126,62127,62142,62174,62198,62206,62238" d="m246.51137,205.09091c-1,0 -1.8,0 -2.71466,0c-0.93201,0 -1.76935,-0.00458 -2.63268,0c-1.00604,0.00534 -1.5412,0.59561 -2.358,0.94733c-0.67912,0.29243 -1.34518,0.90906 -2.29466,1.05267c-0.791,0.11964 -1.38716,0.31448 -2.16667,0.83333c-0.70746,0.47087 -1.64929,0.04065 -2.5905,0.22383c-0.92282,0.1796 -1.49875,0.68204 -2.19217,1.33217c-0.59357,0.5565 -1.45996,0.58669 -2.44933,0.612c-0.76587,0.01959 -1.6651,0.37645 -2.39999,0.71468c-0.87082,0.40077 -1.61635,0.7919 -2.53467,1.284c-0.6507,0.34869 -1.44139,0.60933 -2.5,0.83333c-0.70375,0.14891 -1.60278,0.19165 -2.36667,0.60934c-0.85547,0.46776 -1.36617,1.07051 -2.39551,1.452c-0.72806,0.26982 -1.51143,0.68227 -2.02983,1.29066c-0.68469,0.80356 -1.22264,1.20621 -1.89349,1.56734c-1.10892,0.59694 -1.78413,0.89584 -2.46034,1.24733c-0.66045,0.34329 -1.72618,1.02744 -2.47916,1.45833c-0.83316,0.47678 -1.58171,0.40837 -2.52034,0.763c-0.68935,0.26045 -1.51292,0.6577 -2.42583,0.83134c-1.00401,0.19098 -1.57375,0.52159 -2.5955,0.78065c-0.78748,0.19966 -1.6263,0.16847 -2.5955,0.52383c-0.77373,0.28369 -1.53604,0.82413 -2.20316,1.44284c-0.6284,0.58281 -1.36389,1.20686 -2.02667,1.59999c-0.68648,0.40717 -1.46533,1.12975 -2.37601,1.51601c-0.64841,0.27502 -1.67543,0.4588 -2.31467,0.97067c-0.65939,0.52802 -0.93779,1.40875 -1.784,2.00349c-0.80473,0.5656 -1.44557,0.79367 -2.35266,1.06166c-0.85384,0.25226 -1.51744,0.82971 -2.10001,1.34283c-0.81265,0.71577 -1.66928,0.68941 -2.64867,0.99068c-0.63345,0.19485 -1.28004,0.52602 -2.28133,0.91466c-0.79346,0.30798 -1.61099,0.49474 -2.50301,1.10001c-0.8886,0.60295 -1.3222,1.25801 -2.14766,1.7c-0.64879,0.34738 -1.45335,0.52435 -2.52367,1.09984c-0.62621,0.3367 -1.45091,0.86813 -2.47633,0.90016c-0.67171,0.02098 -1.46126,-0.1427 -2.52367,0.2215c-0.77562,0.26588 -1.38258,1.18323 -2.02834,1.49316c-0.87927,0.42201 -1.67819,0.27507 -2.61467,0.80617c-0.87445,0.49593 -1.33456,0.90562 -2.18666,1.27917c-0.983,0.43094 -1.80035,0.681 -2.30351,0.89999c-1.05849,0.46069 -1.72757,1.04823 -2.49516,1.49867c-0.70044,0.41103 -1.71751,0.66599 -2.55634,0.82216c-0.73138,0.13617 -1.61188,0.39658 -2.59833,0.8405c-0.68141,0.30666 -1.33307,0.61394 -2.30533,1.25334c-0.67833,0.44611 -1.34517,1.05138 -2.09634,1.3645c-1.08864,0.4538 -1.91495,0.44621 -2.733,0.58215c-0.54453,0.09048 -1.54044,0.50598 -2.2045,0.93867c-1.02151,0.66562 -1.8573,0.8304 -2.53549,1.168c-0.82227,0.40932 -1.29436,1.27638 -2.2495,1.81033c-0.56944,0.31834 -1.24841,0.51537 -2.26918,0.735c-0.91719,0.19734 -1.94347,0.14244 -2.8,0.45332c-0.719,0.26096 -1.321,1.01279 -1.992,1.64801c-0.51277,0.48544 -1.51469,0.94406 -2.17467,1.51868c-0.63805,0.55551 -1.13354,1.45538 -2,1.625c-0.81883,0.16031 -1.69698,0.09613 -2.5,0.54166c-0.80148,0.44467 -1.54234,0.81522 -2.3,1.216c-0.84939,0.44931 -1.59616,0.71564 -2.39867,1.19998c-0.74067,0.44705 -0.53733,1.62991 -1.1585,2.02686c-0.79617,0.50876 -1.67409,0.39404 -2.44283,0.77316c-0.84521,0.41681 -1.8664,0.20831 -2.6,0.72c-0.67539,0.4711 -1.20041,1.23047 -2.084,1.47998c-0.84119,0.23755 -1.9548,0.30197 -2.34933,1.08401c-0.40276,0.79837 -0.87122,0.98962 -1.76666,1c-0.90018,0.01044 -1.64127,0.48981 -2.56667,0.83334c-0.77757,0.28867 -1.44328,0.71844 -2.19051,1.1095c-0.74847,0.39169 -1.74967,-0.05362 -2.64283,0.05716c-0.89907,0.11151 -1.13966,0.8136 -2,1.16666c-0.67126,0.27548 -2.11828,0.7077 -1.93833,1.48068c0.16576,0.71204 1.53835,0.34671 2.50233,0.35266c0.86138,0.00534 1.3726,0.77481 2.1405,0.99551c0.86066,0.24738 1.80849,-0.1376 2.6955,0.01514c0.83315,0.14346 1.76215,0.56012 2.43333,1.15601c0.60633,0.5383 1.26666,0.83334 2.16666,0.83334c0.916,0 1.70397,0.05811 2.5,0.5c0.79947,0.44379 1.7,0.5 2.6,0.5c0.9,0 1.7002,-0.01874 2.6,0c0.86456,0.01801 1.36712,0.79965 2.3,0.97916c0.87437,0.16824 1.7045,0.02084 2.64283,0.02084c0.87801,0 1.76778,0.13333 2.65717,-0.00449c0.93169,-0.14438 1.44631,-0.85718 2.10001,-1.38486c0.74441,-0.60092 1.50789,-0.99573 2.02533,-1.58533c0.5597,-0.63776 1.29818,-1.01157 2.01067,-1.45065c0.77238,-0.47601 1.71748,-0.39331 2.564,-0.74133c0.67108,-0.27591 1.51447,-0.68027 2.39999,-0.84402c0.83174,-0.15381 1.32468,-0.8783 2.10001,-1.46848c0.73447,-0.55908 1.36613,-1.07465 2,-1.5c0.69952,-0.46942 1.4874,-0.93582 2.3,-1.0195c0.89526,-0.09219 1.80002,0.00464 2.76399,-0.00134c0.86139,-0.00534 1.3726,-0.77481 2.1405,-0.99551c0.86067,-0.24738 1.88936,0.05969 2.4955,-0.57248c0.48837,-0.50934 1.11806,-1.28302 1.96667,-1.59866c0.84866,-0.31567 1.64449,-0.86475 2.3125,-1.3125c0.70053,-0.46954 1.69133,-0.4592 2.52083,-0.54169c0.84184,-0.08371 1.55219,-0.63058 2.3,-1.27466c0.66887,-0.57608 1.46954,-0.7225 2.35266,-1.05716c0.70563,-0.2674 1.74826,-0.53616 2.54868,-0.93134c0.7254,-0.35812 1.45,-0.68616 2.31467,-0.71466c0.98346,-0.03244 1.96761,0.03775 2.77415,-0.00134c0.88094,-0.04272 1.53484,-0.52588 2.54317,-0.83334c0.77213,-0.23544 1.66508,-0.0571 2.51401,-0.22382c0.92671,-0.18201 1.58337,-1.03134 2.17349,-1.422c0.88187,-0.58383 1.72211,-0.36847 2.5925,-0.80484c0.86642,-0.43439 1.22897,-1.33487 2.08667,-1.63068c0.8548,-0.2948 1.68533,-0.08533 2.62534,-0.08533c1.008,0 1.8051,0.03922 2.58533,-0.436c0.80556,-0.49066 1.37512,-1.05698 2.42267,-1.39732c0.70065,-0.22765 1.62352,-0.3625 2.35201,-0.77734c0.80991,-0.4612 1.40419,-1.05832 2.3,-1.30533c0.70712,-0.19499 1.71713,-0.29803 2.49384,-0.584c1.00301,-0.36928 1.7916,-0.50327 2.66899,-0.85266c0.80153,-0.31918 1.68517,-0.64673 2.53717,-0.64734c0.93066,-0.00067 1.70778,-0.0611 2.64,-0.42534c0.69795,-0.27271 1.56808,-0.48616 2.496,-0.79599c0.69589,-0.23235 1.65089,-0.71355 2.43134,-0.77417c0.89281,-0.06935 1.91469,0.02939 2.81532,-0.00583c0.72826,-0.02847 1.51671,-0.48874 2.14801,-1.08267c0.70712,-0.66525 1.32559,-0.89911 2.284,-0.916c0.78929,-0.01392 1.83641,-0.16078 2.47917,-0.5c0.82484,-0.43532 1.84314,-0.31166 2.47266,-0.85716c0.67284,-0.58304 1.20244,-1.30075 2.02667,-1.52133c0.80074,-0.21429 1.77995,-0.07793 2.66966,-0.12601c0.78552,-0.04245 1.44934,-0.68388 2.15317,-1.0795c0.81712,-0.45929 1.64792,-0.62479 2.49417,-0.9205c0.79709,-0.27853 1.1405,-0.9955 2.0045,-0.9955c0.89999,0 1.8,0 2.7,0c0.8,0 1.70006,0.01041 2.60001,0c0.90018,-0.01042 1.6033,-0.54318 2.5,-0.87849c0.85063,-0.31808 1.65779,-0.0921 2.55716,-0.12601c0.74866,-0.02823 1.76593,-0.22849 2.50684,-0.60617c0.84668,-0.43159 1.42635,-1.04294 2.31999,-1.588c0.66705,-0.40686 1.67703,-0.59016 2.51601,-0.968c0.68896,-0.31027 1.49817,-0.67876 2.34734,-0.886c0.92163,-0.22493 1.51595,-0.76427 2.48866,-0.91133c0.75751,-0.11453 1.77455,0.06506 2.50684,-0.09317c1.06461,-0.23003 1.58054,-1.03749 2.25717,-1.50682c0.74278,-0.51521 1.72644,-0.37181 2.61066,-0.472c1.00002,-0.11331 1.60576,-0.35052 2.304,-0.76534c0.88812,-0.5276 1.68231,-1.15596 2.58551,-1.19867c0.78427,-0.03709 1.89752,0.27965 2.5665,-0.33333c0.54285,-0.49741 0.73093,-1.4799 1.53333,-1.95067c0.6377,-0.37413 1.51175,-0.59868 2.436,-0.752c0.87323,-0.14487 1.57748,-0.56908 2.56384,-1.06401c0.59116,-0.29663 1.30896,-0.70853 2.16415,-1.28932c0.73105,-0.49651 1.63727,-0.56203 2.552,-0.61067c0.80338,-0.04272 1.18692,-0.88988 1.94534,-1.38933c0.61151,-0.40271 1.74304,-0.46442 2.53867,-0.62134c0.94458,-0.18629 1.63687,-0.7262 2.39999,-1.07333c0.85425,-0.38858 1.59946,-0.89792 2.49548,-0.916c0.92566,-0.01868 1.44516,-0.61102 2.15118,-0.964c0.78299,-0.39146 1.77664,0.0681 2.668,-0.31999c0.74173,-0.32295 1.48532,-0.70534 2.38531,-0.716c0.90002,-0.01067 1.81384,-0.34244 2.5,-1c0.5759,-0.55188 1.21967,-1.22337 1.70453,-1.7045c0.69284,-0.68752 1.54022,-1.1024 2.39566,-1.51683c0.70468,-0.34138 1.6582,-0.49234 2.33051,-0.948c0.70883,-0.48039 0.87747,-1.56003 1.59015,-1.80984c0.93219,-0.32677 1.79358,-0.46715 2.54318,-1.04616c0.62601,-0.48354 1.23734,-0.974 2.13599,-0.97467c0.89999,-0.00067 1.85971,0.30989 2.68933,-0.01067c0.79294,-0.30638 1.31519,-0.98708 2.21066,-0.98933c0.89999,-0.00226 1.86783,0.13841 2.59866,-0.284c0.78201,-0.452 1.3334,-0.8642 1.96802,-1.54933c0.18326,-0.19785 -0.64584,-0.16667 -1.53284,-0.16667c-0.96716,0 -1.63916,0 -2.62851,0c-1.03467,0 -1.80267,0 -2.64133,0c-1.01666,0 -1.71133,0 -2.728,0c-0.93149,0 -1.85751,0 -2.73599,0c-0.90002,0 -1.70001,0 -2.60001,0c-0.89999,0 -1.80002,0 -2.70001,0c-0.89999,0 -1.79999,0 -2.69983,0c-0.87482,0 -1.70151,0 -2.60016,0c-0.936,0 -1.784,0 -2.64734,0c-0.89551,0 -1.85266,0 -2.75266,0c-0.90002,0 -1.70001,0 -2.60001,0c-0.89999,0 -1.80002,0 -2.70001,0c-0.89999,0 -1.79999,0 -2.69998,0c-0.90002,0 -1.70001,0 -2.60001,0c-0.89999,0 -1.77917,0 -2.66168,0c-0.95966,0 -1.81299,0 -2.75433,0c-0.76797,0 -1.70932,0 -2.71732,0c-0.75601,0 -1.66669,0 -2.56668,0c-0.89548,0 -1.87732,0.15797 -2.69998,-0.22133c-0.66824,-0.30811 -1.5,-0.76807 -2.40002,-0.77867c-0.91064,-0.01073 -1.82007,-0.22443 -2.5,-0.5c-0.83179,-0.33711 -1.69547,-0.49774 -2.59999,-0.5c-0.96399,-0.0024 -1.836,0 -2.7,0c-0.89999,0 -1.8,0 -2.7,0c-0.8,0 -1.7,0 -2.60001,0l-0.89999,0l-0.89999,0l-0.89551,0" id="svg_11" stroke-width="2" stroke="#000" fill="none"/>
  <path t="64430,64638,64647,64647,64655,64662,64672,64678,64678,64678,64686,64686,64694,64710,64718,64726,64734,64734,64742,64750,64758,64766,64774,64774,64782,64782,64790,64798,64798,64806,64806,64814,64814,64822,64830,64830,64838,64847,64847,64855,64862,64872,64878,64878,64886,64886,64894,64902,64902,64910,64918,64926,64926,64934,64942,64950,64958,64958,64966,64966,64974,64982,64982,64990,65006,65014,65022,65030,65038,65038,65046,65054,65062,65071,65079,65088,65094,65102,65110,65118,65126,65126,65134,65150,65150,65158,65174,65182,65190,65198,65214,65214,65222,65238,65238,65246,65262,65271,65278,65278,65287,65310,65310,65318,65326,65326,65334,65350,65358,65366,65374,65374,65382,65390,65390,65399,65399,65406,65406,65415,65422,65422,65431,65431,65438,65446,65447,65454,65455,65462,65471,65471,65478,65478,65487,65494,65502,65514,65518,65518,65526,65534,65542,65550,65566,65579,65579,65582,65590,65599,65614,65622,65631,65647,65654,65654,65662,65670,65678,65702,65726,65726,65838,65846,65862,65878,65887,65895,65895,65904,65904,65918,65934,65934,65942,65950,66230,66230,66247,66247,66262,66263,66270,66270,66278,66287,66294,66310,66320,66326,66334,66342,66350,66361,66366,66382,66390,66398,66398,66406,66415,66438,66446,66446,66454,66822,66870,66886,66886,66894,66904,66942,66958,66966,66974,66982,66990,66998,67011,67015,67029,67032,67038,67038,67047,67062,67063,67070,67078,67086,67102,67110,67119,67126,67136,67136,67143,67150,67158,67174,67174,67190,67190,67198,67198,67207,67215,67222,67222,67238,67248,67263,67270,67294,67303,67303,67319,67319,67328,67329,67342,67342,67352,67358,67358,67366,67374,67390,67399,67406,67415,67422,67422,67431,67446,67478,67486,67502,67502,67518,67519,67544" d="m327.51135,178.09091c-1.82532,0 -2.83331,0 -3.6955,0c-0.90448,0 -1.8045,0 -2.72583,0c-0.91199,0 -1.58398,0 -2.57333,0c-0.86234,0 -1.80267,0 -2.70532,0c-0.89999,0 -1.81299,0.14186 -2.70001,-0.01067c-0.83441,-0.14348 -1.47916,-0.72856 -2.41467,-0.964c-0.84695,-0.21315 -1.40057,-0.96443 -2.28531,-1.02533c-0.89789,-0.0618 -1.6701,-0.02051 -2.55267,-0.35266c-0.70624,-0.26579 -1.80756,-0.50558 -2.44751,-1.09001c-0.51559,-0.47086 -1.2016,-1.39905 -1.89984,-1.51566c-0.966,-0.16132 -1.79865,-0.03926 -2.75714,-0.04167c-0.89551,-0.00226 -1.83084,0.05377 -2.60684,-0.436c-0.83817,-0.52901 -1.17044,-1.31944 -2.13602,-1.54317c-0.87701,-0.20319 -1.80447,-0.02083 -2.66666,-0.02083c-0.83334,0 -1.81201,0.01761 -2.63199,0c-0.83792,-0.01801 -1.67157,-0.31865 -2.54868,-0.64734c-0.88303,-0.33092 -1.80692,-0.16937 -2.65268,-0.51933c-0.78461,-0.32466 -1.53204,-0.76811 -2.29999,-1.18599c-0.84088,-0.45758 -1.70001,-0.64543 -2.45715,-0.64734c-0.89551,-0.00226 -1.83084,0.05377 -2.60684,-0.436c-0.83817,-0.52901 -1.39297,-1.09747 -2.11517,-1.54317c-0.59055,-0.36444 -1.15131,-0.8524 -2.02084,-1.04166c-0.84628,-0.18419 -1.59235,-0.91702 -2.29999,-0.97784c-0.8967,-0.07707 -1.80002,0.004 -2.70001,-0.00133c-0.90005,-0.00534 -1.71609,-0.5069 -2.5,-0.83333c-0.82574,-0.34386 -1.83411,0.1739 -2.66666,-0.33334c-0.71164,-0.43358 -1.28531,-1.07883 -2.03333,-1.48067c-0.77997,-0.41899 -1.784,-0.35266 -2.47467,-0.35266c-1.06818,0 -1.92534,0 -2.82533,0c-0.87866,0 -1.66162,0.00983 -2.48399,-0.284c-0.88208,-0.31516 -1.81056,-0.53596 -2.61601,-0.93733c-0.76717,-0.38229 -1.52046,-0.60606 -2.39999,-0.7995c-0.84758,-0.1864 -1.42589,-1.07024 -2.10001,-1.54317c-0.72441,-0.50821 -1.73332,-0.436 -2.58533,-0.436c-0.92934,0 -1.85292,0.17355 -2.61467,-0.08533c-0.88791,-0.30176 -1.59947,-0.89601 -2.5,-0.91467c-0.90114,-0.01868 -1.87567,-0.14517 -2.51466,-0.42534c-0.86516,-0.37932 -1.6422,-0.77051 -2.37067,-1.18533c-0.80991,-0.46121 -1.4063,-1.05043 -2.29733,-1.30533c-0.7874,-0.22525 -1.57976,-0.86734 -2.38933,-1.048c-0.71393,-0.15932 -1.74516,0.09285 -2.64267,-0.12132c-0.88988,-0.21236 -1.59584,-0.75725 -2.37067,-0.99867c-0.95479,-0.2975 -1.62822,-0.64066 -2.61467,-0.916c-0.81935,-0.2287 -1.53503,-0.46533 -2.4785,-1.09984c-0.63661,-0.42813 -1.42096,-0.88216 -2.3215,-0.90016c-0.89981,-0.01799 -1.8,0 -2.7,0c-0.8,0 -1.7,-0.05717 -2.5,-0.5c-0.8,-0.44284 -1.7,-0.5 -2.60001,-0.5c-0.89999,0 -1.7002,0.01874 -2.59999,0c-0.86456,-0.01801 -1.52484,-0.54358 -2.17867,-1.22133c-0.55807,-0.57851 -1.32133,-0.77867 -2.22134,-0.77867c-0.89999,0 -1.7002,0.01874 -2.59999,0c-0.86456,-0.01801 -1.34297,-0.85121 -2.06168,-0.9955c-0.87358,-0.17537 -1.87567,0.44768 -2.79166,-0.0405c-0.66583,-0.35486 -0.78897,-1.58289 -1.64667,-1.87868c-0.85464,-0.29474 -1.8,-0.08533 -2.55717,-0.08533c-0.89549,0 -1.75883,0 -2.74283,0c-0.82133,0 -1.67467,0 -2.61333,0c-0.93935,0 -1.88667,-0.00189 -2.64384,0c-0.90001,0.00226 -1.67128,-0.0295 -2.64149,0.28534c-0.79102,0.25668 -1.60475,0.78609 -2.29683,1.41466c-0.62816,0.57051 -1.4088,1.15012 -2.3045,1.3c-0.83818,0.14026 -1.30556,0.76967 -1.94734,1.35266c-0.57932,0.52625 -1.44199,0.658 -2.05266,1.14734c-0.61067,0.48933 -1.53474,0.4471 -2.3,0.85266c-0.84589,0.4483 -1.70039,0.62198 -2.5,0.64734c-0.90135,0.02859 -1.59767,0.6501 -2.42149,1.00017c-0.7327,0.31134 -1.43262,0.80957 -2.37851,0.98917c-0.8638,0.164 -1.21948,0.46858 -0.39999,0.84399c0.74269,0.34023 1.86327,-0.30954 2.64284,0.22383c0.70515,0.48245 1.06261,0.99829 1.85716,1.44284c0.79646,0.44562 1.4845,0.91652 2,1.5c0.56355,0.63788 1.20457,0.9874 2.10001,1c0.90015,0.01268 1.70374,0.3531 2.39999,1c0.60327,0.5605 1.69861,0.81392 2.00017,1.44267c0.30598,0.63799 0.53569,1.3979 1.39983,1.56799c0.8295,0.16327 1.58826,0.90562 2.47867,0.98933c0.8222,0.07729 1.67195,-0.07016 2.604,0.28534c0.68417,0.26096 1.1825,1.29054 1.95334,1.67867c0.77254,0.38899 1.65567,0.26926 2.32117,0.74049c0.7179,0.50835 1.46265,0.83005 2.3575,1.4955c0.61499,0.45734 1.18422,1.39221 2.08533,1.71468c0.75749,0.27107 1.57744,0.20961 2.40001,0.65999c0.78038,0.42729 1.72194,0.22931 2.59866,0.42667c0.81265,0.18294 1.20775,1.16359 1.843,1.47784c0.91576,0.453 1.78497,0.35081 2.79166,0.6875c0.70686,0.23642 1.483,0.76164 2.34134,0.82266c0.93771,0.06665 1.78304,0.24565 2.52533,0.658c0.8244,0.45796 1.27591,1.03288 1.91068,1.38866c0.76776,0.43031 1.76904,0.64655 2.30533,1.24934c0.57822,0.64993 0.85667,1.54723 1.784,1.71016c0.88733,0.1559 1.67671,0.468 2.40001,0.88333c0.87434,0.50206 1.29999,0.97183 1.89999,1.78784l0.71466,0.416l0.28984,0.86015" id="svg_12" stroke-width="2" stroke="#000" fill="none"/>
  <path t="70566,70701,70717,70725,70733,70741,70749,70749,70757,70765,70765,70773,70781,70797,70822,70838,70861,70869,70869,70877,70893,70901,70925,70941,70957,70989,70989,70997,71014,71014,71031,71031,71038,71047,71054,71061,71061,71077,71093,71117,71117,71133,71134,71149,71165,71166,71173,71189,71205,71229,71253,71277,71285,71302,71302,71325,71341,71365,71389,71405,71437,71453,71453,71469,71485,71486,71493,71518,71533,71581" d="m169.51137,241.09091c1.8,0 2.7,0 3.60001,0c0.79999,0 1.7045,0 2.72133,0c0.67867,0 1.65717,0 2.67867,0c0.8,0 1.7,0 2.60001,0c0.87917,0 1.75716,0 2.7,0c0.8,0 1.8,0 2.5,0c0.89999,0 1.8,0 2.7,0c0.89999,0 1.8,0 2.7955,0c0.87117,0 1.59117,0 2.52983,0c1.008,0 1.8,0 2.65866,0c0.86334,0 1.88,0 2.716,0c0.90001,0 1.90001,0 2.60001,0c1.03333,0 1.84666,0 2.68533,0c0.91916,0 1.91333,0 2.67867,0c0.95067,0 1.836,0 2.636,0c0.89999,0 1.8,0 2.76399,0c0.87201,0 1.73601,0 2.636,0c0.90001,0 1.8,0 2.60001,0c0.89999,0 1.8,0 2.7,0c0.89999,0 1.88933,0 2.78534,0c0.81482,0 1.59999,0 2.53999,0c1.008,0 1.87016,0 2.67467,0l0.89999,0l0.90001,0l0.89999,0" id="svg_13" stroke-width="20" stroke="#fff" fill="none"/>
  <path t="75197,75284,75309,75372,75405,75413,75453,75453,75461,75477,75533,75565,75565,75637,75676,75717,75765,75781,75805,75813,75829,75837,75846,75893,75933,75941,75958" d="m184.51137,231.09091c-1.83333,0 -2.21542,0.54958 -2.83333,1.16667c-0.61839,0.61758 -1.43118,0.64449 -2.16667,1c-0.75462,0.36476 -1.1105,1.30504 -1.64734,1.886c-0.63634,0.68863 -1.35266,0.94733 -2.15266,0.94733c-0.89999,0 -1.81961,-0.00195 -2.59999,0.42534c-0.82257,0.45038 -1.70439,0.48598 -2.60001,0.57466c-0.8457,0.08374 -1.30556,0.76967 -1.94734,1.35266c-0.57932,0.52625 -1.45265,0.64734 -2.34816,0.65184l-0.67917,0.42084l-0.54616,0.55383" id="svg_14" stroke-width="2" stroke="#000" fill="none"/>
  <path t="76872,76917,76917,76934,76950,76958,76974,76990,77007,77007,77022,77030,77061,77078,77078,77094,77118,77126,77134,77158,77182,77190,77207,77207,77222,77245,77261,77262,77286,77294,77302,77318,77357,77366,77389,77414,77414,77438,77454,77462,77470,77478,77494,77518,77518,77534,77534,77566,77598,77606,77606,77623,77654,77662,77678,77710" d="m233.51137,240.09091c-1,0 -1.8,0 -2.7,0c-0.90001,0 -1.743,0.1709 -2.40984,0.64734c-0.66353,0.47408 -1.7235,0.35266 -2.47951,0.35266c-0.91066,0 -1.94469,-0.12355 -2.696,0.284c-0.79233,0.42979 -1.62566,0.35103 -2.3575,0.77316c-0.81113,0.46788 -1.49506,0.62106 -2.19049,1.10951c-0.71518,0.50232 -1.36667,0.83333 -2.26668,0.83333c-0.89999,0 -1.81075,-0.36436 -2.54283,0.05716c-0.81149,0.46724 -1.35716,0.94284 -2.15717,0.94284c-0.89999,0 -1.87857,-0.34306 -2.67917,0.02083c-0.77324,0.35146 -1.433,0.61481 -2.16367,1.03633c-0.81111,0.46793 -1.39813,0.76141 -2.15717,1.02817c-0.85594,0.30081 -1.57747,0.73222 -2.39867,0.916c-0.80705,0.18062 -1.27235,0.90172 -2.10133,1.35133c-0.84174,0.45654 -1.46954,0.66534 -2.35266,1c-0.70563,0.2674 -1.72154,0.50816 -2.64734,0.65184c-0.81906,0.12711 -1.69205,0.41557 -2.34283,1.04817c-0.64522,0.62718 -1.06166,0.94733 -2,1.00449l-0.44116,0.65884" id="svg_15" stroke-width="2" stroke="#000" fill="none"/>
 </g>
 <g display="none">
  <title>muse_image</title>
  <image xlink:href="http://farm4.static.flickr.com/3127/2585674156_18aeb07be7.jpg" id="muse" height="480" width="640" y="0" x="0"/>
 </g>
 <g display="none">
  <title>bbox</title>
  <rect stroke="#f00" fill="none" stroke-width="3" height="184.32" width="540.16" y="106.24" x="38.4" id="bbox"/>
 </g>
</svg>
