<svg width="640" height="480" xmlns="http://www.w3.org/2000/svg" xmlns:svg="http://www.w3.org/2000/svg" xmlns:xlink="http://www.w3.org/1999/xlink">
 <!-- Sketchy ANNOTATION
  ImageNet ID: n02691156_2173
  URL: http://farm1.static.flickr.com/86/273341574_86ca6a4eac.jpg
  Image Width: 500
  Image Height: 333
  BBox X: 0
  BBox Y: 103
  BBox Width: 493
  BBox Height: 116
  Exposure: 2000ms
  Synset Label: airplane
  Synset ID: n02691156
  Worker Tag: air plane on field
  Sanity Check: 
   Context
   Saved
   Shading
  Comment: 
   {}
  Worker ID: A1Z2FSZNWACZ9O
  Assignment ID: 3X73LLYYQ1EJ8HSRRACI627GY9LHN2
  HIT ID: 302OLP89DZ7JK6PS6COAKLVFLLHCAF
  Work Time: 54s
  Worker Score: 0.7714
 END ANNOTATION -->
 <g display="inline">
  <title>Layer 1</title>
  <path t="0,82,90,91,112,114,124,124,144,144,144,147,147,147,166,167,167,171,171,171,171,171,171,180,180,187,187,187,194,194,194,194,202,202,210,218,218,234,234,234,250,250,259,259,259,266,274,282,292,293,298,299,308,314,314,314,325,326,326,330,330,338,338,346,362,362,362,370,370,370,370,378,378,386,387,387,394,394,402,402,410,410,418,418,418,426,434,434,442,442,450,460,460,466,466,477,478,493,494,494,498,498,508,509,527,530,538,538,546,546,546,555,570,570,570,578,578,578,586,586,594,602,602,610,618,618,627,627,643,643,650,650,650,662,662,666,667,667,677,677,677,682,682,698,698,698,710,710,714,714,714,714,723,723,730,730,739,740,740,746,746,754,762,770,770,778,778,778,795,795,795,818,843,843,850,850,863,863,866,866,878,898,898,898,914,914,914,930,930,930,944,944,946,946,970,970,978,978,986,986,986,996,996,1002,1002,1012,1012,1018,1029,1029,1034,1035,1035,1035,1046,1046,1050,1050,1063,1063,1064,1074,1074,1074,1082,1082,1082,1091,1091,1106,1114,1114,1114,1122,1138,1138,1146,1146,1170,1170,1180,1180,1186,1186,1197,1202,1213,1231,1231,1234,1242,1242,1242,1250,1250,1250,1264,1266,1274,1274,1282,1282,1291,1298,1298,1306,1306,1306,1330,1338,1338,1354,1354,1370,1371,1371,1394,1394,1402,1403,1415,1416,1427,1427,1434,1434,1442,1454,1458,1459,1474,1474,1490,1490,1506,1507,1546,1546,1546,1554,1554,1566,1566,1570,1587,1605,1605,1626,1626,1638,1638,1652,1652,1658,1659,1659,1674,1674,1674,1685,1690,1690,1705,1705,1705,1718,1718,1718,1722,1722,1738,1754,1778,1778,1778,1802,1802,1810,1810,1810,1818,1818,1826,1827,1836,1836,1842,1842,1850,1850,1851,1851,1858,1858,1859,1871,1883,1883,1914,1914,1922,1933,1933,1938,1951,1951,1951,1951,1954,1954,1954,1954,1955,1968,1968,1969,1969,1969,1970,1971,1971,1971,1978,1978,1978,1978,1979,1986,1986,1986,1995,1995,1995,2003,2004,2004,2004,2018,2018,2026,2074,2084,2084,2084,2090,2090,2090,2102,2102,2103,2103,2107,2107,2107,2107,2107,2118,2119,2119,2119,2122,2122,2122,2135,2136,2136,2151,2152,2194,2203,2203,2204,2204,2204,2210,2211,2211,2211,2211,2211,2212,2219,2219,2219,2219,2220,2220,2226,2226,2227,2227,2227,2227,2228,2237,2237,2237,2237,2238,2238,2242,2242,2251,2252,2258,2258,2274,2274,2286,2286,2290,2290,2303,2303,2306,2307,2307,2307,2319,2320,2320,2320,2320,2322,2322,2322,2323,2337,2337,2339,2339,2339,2340,2346,2346,2346,2347,2354,2355,2355,2355,2370,2370,2371,2378,2379,2379,2386,2387,2404,2404,2410,2410,2411,2426,2437,2438,2438,2442,2442,2443,2454,2454,2472,2472,2475,2475,2475,2486,2486,2490,2490,2490,2504,2505,2506,2530,2538,2539,2554,2554,2563,2563,2573,2594,2594,2594,2604,2605,2610,2610,2611,2626,2626,2642,2642,2654,2658,2674,2674,2687,2688,2690,2706,2708,2714,2714,2859,2860,2888,2893,2894,2895,2896,2900,2900,2901,2914,2914,2915,2922,2922,2939,2939,2946,2947,2957,2957,2962,2962,2973,2974,2974,2988,2989,2994,2994,3007,3007,3010,3023,3023,3026,3026,3041,3041,3043,3043,3055,3056,3058,3058,3059,3074,3074,3082,3082,3083,3091,3091,3091,3099,3099,3099,3109,3109,3123,3124,3124,3130,3131,3146,3146,3147,3147,3157,3157,3158,3162,3162,3178,3179,3179,3189,3189,3190,3194,3194,3195,3208,3208,3211,3211,3226,3242,3250,3250,3251,3259,3259,3259,3260,3282,3296,3297" d="m399,259c-1.82535,-0.01068 -2.82391,-0.1846 -3.58932,-0.57468c-0.80127,-0.40833 -1.77408,-0.26672 -2.51083,-0.647c-0.75571,-0.39008 -1.37924,-1.27127 -1.9415,-1.79915c-0.41473,-0.38937 -1.37833,-1.18034 -1.90201,-1.57468c-0.75754,-0.57043 -1.57684,-1.22302 -2.09799,-1.967c-0.39694,-0.56667 -1.0585,-1.429 -1.72617,-2.14816c-0.36588,-0.39407 -0.75055,-0.79176 -1.526,-1.57867c-0.37036,-0.37582 -1.63986,-1.50793 -2.10202,-2.14816c-0.58981,-0.81706 -0.59399,-1.64267 -0.85883,-2.3345c-0.3439,-0.89836 -0.79868,-1.53189 -1.24533,-2.20717c-0.43744,-0.66136 -1.13489,-1.7567 -1.45834,-2.45833c-0.39786,-0.86296 -1.08289,-1.526 -1.64166,-2.1985c-0.5423,-0.65266 -0.89383,-1.40268 -1.28534,-1.96533c-0.71933,-1.03378 -1.32663,-1.56935 -1.948,-2.39867c-0.43182,-0.57634 -0.92661,-1.31049 -1.1095,-2.24283c-0.18433,-0.93973 -0.46063,-1.52573 -1.15717,-2.20001c-0.50504,-0.48889 -0.77454,-1.51709 -1.5,-2.11049c-0.70374,-0.57564 -1.49506,-0.89359 -1.94165,-1.48834c-0.42404,-0.56476 -1.22437,-1.36076 -1.95834,-1.95833c-0.49332,-0.40164 -1.36722,-1.19148 -1.828,-1.77867c-0.68747,-0.87607 -1.42722,-1.18402 -2.08267,-1.668c-0.83984,-0.62015 -1.24649,-1.21049 -1.79999,-1.76399c-0.78934,-0.78934 -1.38934,-1.38933 -1.98935,-1.98933c-0.39999,-0.40001 -1.19867,-1.19868 -1.77914,-1.77917c-0.85416,-0.85417 -1.37061,-1.43727 -1.99017,-1.81949c-0.76074,-0.46928 -1.56824,-0.62149 -2.69733,-1.20134c-0.68753,-0.35309 -1.33331,-1.00002 -1.85419,-1.52083c-0.80045,-0.80037 -1.26941,-1.33548 -1.82648,-1.76933c-0.85144,-0.6631 -1.82446,-0.63615 -2.65268,-0.73067c-0.9924,-0.11325 -1.5946,-0.58446 -2.29999,-1.27917c-0.70532,-0.69464 -1.1821,-1.21843 -1.90134,-1.89999c-0.54269,-0.51425 -1.4516,-1.10796 -2.00934,-1.40001c-0.98209,-0.51427 -1.61575,-0.76868 -2.38934,-1.28532c-0.82938,-0.55391 -1.28983,-1.22273 -2.23334,-1.78134c-0.70374,-0.41666 -1.70139,-0.28044 -2.46664,-0.68599c-0.84625,-0.44846 -1.52029,-0.67673 -2.46802,-0.93134c-0.73706,-0.19801 -1.46378,-0.43298 -2.57065,-0.69067c-0.82782,-0.19273 -1.71057,-0.55321 -2.34802,-0.912c-0.74368,-0.41859 -1.51501,-0.94983 -2.3035,-1.40349c-0.85345,-0.49103 -1.69693,-0.76558 -2.4205,-1.13518c-0.90585,-0.46269 -1.59494,-0.46219 -2.70398,-0.57599c-0.89594,-0.09193 -1.46375,-0.63216 -2.18985,-1.29868c-0.56461,-0.51826 -1.3439,-1.02769 -2.15717,-1.39999c-0.94522,-0.43271 -1.49545,-0.57741 -2.27701,-0.90001c-1.13257,-0.46748 -1.7222,-0.99104 -2.59467,-1.23332c-0.90295,-0.25075 -1.71851,-0.15665 -2.74515,-0.16684c-0.68558,-0.00681 -1.55173,0.01071 -2.52151,-0.3615c-0.83502,-0.32048 -1.59555,-0.96498 -2.19998,-1.453c-0.59564,-0.48093 -1.60291,-1.01167 -2.22086,-1.18533c-1.1488,-0.32285 -1.672,-0.5537 -2.47916,-1.02083c-0.55362,-0.3204 -1.56235,-0.98787 -2.25333,-1.3325c-1.05762,-0.52751 -1.76746,-0.62875 -2.78934,-0.64684c-0.70798,-0.01253 -1.51257,0.13164 -2.48666,-0.28517c-0.85065,-0.36398 -1.38885,-1.36813 -2.172,-1.62933c-0.91931,-0.30663 -1.81952,-0.08533 -2.79868,-0.08533c-0.81067,0 -1.45715,0 -2.42117,0c-0.79349,0 -1.80948,0 -2.7645,0c-0.91449,0 -1.69968,0 -2.65033,0c-0.76532,0 -1.76401,0 -2.564,0c-0.99869,0 -1.76831,0.09221 -2.84735,-0.0045c-0.92978,-0.08333 -1.58145,-0.47891 -2.43933,-0.7115c-0.98276,-0.26643 -1.83401,-0.27023 -2.41782,-0.2795c-1.19519,-0.01897 -2.08484,-0.0045 -2.93835,-0.0045c-1.03549,0 -1.71048,0 -2.7905,0c-0.79199,0 -1.65198,0 -2.37732,0c-0.9895,0 -1.81017,-0.0033 -2.95601,0c-0.78151,0.00226 -1.59941,-0.09256 -2.5,0.16667c-0.83342,0.2399 -1.50308,1.07085 -2.0905,1.53333c-0.69257,0.54526 -1.55919,1.05966 -2.48566,1.24284c-0.84311,0.1667 -1.60217,0.1861 -2.3,0.72133c-0.75433,0.57857 -1.23,1.11028 -1.77451,1.56917c-0.97432,0.82111 -1.59122,1.34447 -2.6615,1.64516c-0.80791,0.22697 -1.79761,0.0654 -2.54199,0.18401c-0.80946,0.12897 -1.59654,0.56219 -2.24318,1.23483c-0.45422,0.47249 -1.2233,1.54686 -1.63466,2.01466c-0.56352,0.64085 -1.39426,1.48064 -2.19067,1.66667c-0.90915,0.21236 -1.76524,0.42822 -2.38983,1.04216c-0.47859,0.47043 -0.88058,1.52502 -1.38249,2.28368c-0.43199,0.65297 -1.15776,1.14635 -1.77701,1.87016c-0.65942,0.77078 -0.84282,1.46176 -1.14532,2.31067c-0.2623,0.73605 -0.63754,1.71013 -0.69518,2.49384c-0.0833,1.13263 0.35596,2.20081 -0.1875,2.85416c-0.57396,0.69002 -1.50648,0.73073 -1.808,1.58801c-0.30922,0.87918 -0.3923,1.58453 -0.59999,2.364c-0.27791,1.04305 -0.30099,1.98897 -0.50934,2.728c-0.28535,1.01216 -0.80988,1.80656 -1.08267,2.65334c-0.217,0.67354 -0.73985,1.65518 -0.82266,2.42267c-0.09993,0.92618 0.08125,1.91136 -0.08267,2.62132c-0.23766,1.02925 -0.8051,1.55846 -1.22266,2.13217c-0.63727,0.87558 -0.87201,1.82384 -1.20534,2.65717c-0.33333,0.83333 -0.49466,1.66129 -0.5,2.54283c-0.00435,0.71849 0,1.509 0,2.77184c0,0.66451 0,1.68533 0,2.47467c0,1.04399 0.00041,1.88213 -0.56799,2.69466c-0.38576,0.55144 -1.24226,1.30501 -1.41068,2.10535c-0.18758,0.89139 -0.02133,1.82132 -0.02133,2.73199c0,0.85333 0,1.79466 0,2.56267c0,0.952 0,1.71733 0,2.7205c0,0.85266 0,1.81683 0,2.62082c0,0.82201 0,1.85301 0,2.733c0,0.875 -0.01047,1.73723 0,2.64168c0.01042,0.90018 0.38174,1.68649 0.80133,2.28532c0.52591,0.75058 0.90775,1.50331 1.11467,2.51466c0.16185,0.79108 0.21391,1.84418 0.62567,2.57916c0.5173,0.9234 1.12215,1.25848 1.86282,1.7735c0.80267,0.55811 1.33653,1.1239 2.11017,1.67801c0.80457,0.57626 1.66356,0.89279 2.29967,1.27383c0.92297,0.55289 1.70763,0.79251 2.2375,0.99551c1.02892,0.3942 1.92972,0.7951 2.54683,1.09998c0.99625,0.49216 1.94336,0.7319 2.32933,1.60001c0.36911,0.83017 0.54976,1.79395 1.13451,2.24817c0.6734,0.5231 1.57336,1.12079 2.28683,1.27985c0.96298,0.21466 1.65601,0.0719 2.64532,0.07199c0.8625,0.00009 1.77248,0.00485 2.66251,0.35718c0.76625,0.30331 1.53165,0.76614 2.32201,1.12198c0.84317,0.37961 1.72974,0.55014 2.52083,0.85419c0.87677,0.33701 1.51263,0.68628 2.19917,0.96133c1.24384,0.49829 2.01636,0.65851 2.81282,0.70267c0.98677,0.05472 1.80394,0.23734 2.66267,0.57733c0.799,0.31635 1.62399,0.42465 2.5825,0.42532c0.89549,0.00064 1.76132,-0.05637 2.63882,0.01068c1.11172,0.08493 1.66476,0.25345 2.64566,0.53098c0.71954,0.20358 1.80191,0.60403 2.47433,0.94501c0.66949,0.33948 1.31537,0.75113 1.96802,1.20001c1.04715,0.72021 1.76572,1.26123 2.14133,1.51733c0.74365,0.50708 1.45041,1.04025 2.5535,1.43149c0.97891,0.3472 1.6821,0.34528 2.3905,0.3605c1.17307,0.02521 2.03601,0.004 2.93066,0.004c0.89465,0 1.33203,-0.01013 2.92801,0.00134c0.68936,0.00497 1.61975,-0.01624 2.65082,0.22015c0.7197,0.16501 1.42313,0.50632 2.56366,0.87851c0.65411,0.21344 1.34402,0.3772 1.99503,0.60001c1.32306,0.45285 1.86719,1.03888 2.76248,1.26398c0.88245,0.22186 1.93744,0.18872 2.60983,0.39319c0.78058,0.23737 1.82639,0.63611 2.53751,0.94281c0.68082,0.29361 1.61694,0.70639 2.41882,1.00452c0.5946,0.22107 1.60736,0.57675 2.36719,0.86215c0.83636,0.31415 1.71869,0.66602 2.16666,0.85419c0.89749,0.37701 2.17154,0.96994 2.92801,1.3765c0.69391,0.37292 1.27615,0.81693 2.40533,1.26932c0.69449,0.27826 1.40286,0.29279 2.58783,0.55484c0.80258,0.17749 1.59961,0.42181 2.43582,0.87833c0.75314,0.41116 1.48004,0.78384 2.47635,1.23352c0.72726,0.32825 1.30411,0.70715 2.06149,1.01849c0.43005,0.17679 2.01086,0.63208 2.6265,0.7655c0.64539,0.13986 1.3168,0.26398 1.99951,0.4035c1.37466,0.28091 2.05722,0.40674 3.3125,0.8125c0.58774,0.18997 1.65375,0.66745 2.15466,0.91733c0.98181,0.48978 1.4386,0.80963 3.01199,1.41599c0.55548,0.21408 1.14978,0.37274 1.758,0.5235c1.23773,0.30682 1.86743,0.41803 2.48401,0.55801c1.76227,0.40005 2.29865,0.55688 3.2775,0.89999c0.45386,0.15909 1.26791,0.51291 2.00583,0.7825c1.19128,0.43524 1.9324,0.54849 2.97467,0.56934c0.78918,0.01578 1.84305,-0.09271 2.62534,0.03601c0.88315,0.14532 1.56314,0.62354 2.57449,0.8425c0.76801,0.16629 1.77884,0.11765 2.55283,0.12149c0.90903,0.00452 1.73627,0.04346 2.66901,0.44299c0.85477,0.36615 1.42239,0.78278 2.065,1.15967c1.0307,0.60449 1.7684,1.00137 2.53418,1.39734c0.78156,0.40411 1.17972,0.60156 2.37866,1.19968c0.78647,0.39233 1.53162,0.77252 2.229,1.086c1.09787,0.4935 1.87402,0.68051 2.87149,0.88098c0.86935,0.17471 1.53937,0.34491 2.25635,0.48068c1.07385,0.20337 2.0885,0.28796 2.72281,0.3735c0.9231,0.12451 1.83377,0.39523 2.72086,0.84048c0.60941,0.30588 1.17697,0.70477 2.39999,1.25201c0.58987,0.26395 1.49048,0.57874 2.69965,0.76517c0.58789,0.09064 1.42981,0.06308 2.55753,0.12183c0.75983,0.03958 1.61108,0.58972 2.16367,0.99966c0.95135,0.70578 1.59467,0.81161 2.49384,1.08267c0.88632,0.26721 1.64413,0.80997 2.52698,0.89648c0.64224,0.06293 1.64319,-0.00024 2.45834,0.04169c0.81747,0.04202 2.03766,0.33371 2.65332,0.55383c0.96295,0.34427 1.81961,0.49539 2.61603,0.70932c0.75516,0.20285 1.54095,0.47287 2.7735,0.66333c0.64352,0.09946 1.66965,0.24274 2.45715,0.57352c0.61066,0.2565 1.57703,0.8175 2.34283,1.12198c0.88156,0.35049 1.85849,0.30865 2.75732,0.35733c0.78864,0.04272 1.72452,0.45663 2.30435,0.64719c0.97803,0.32138 1.95236,0.20233 2.84283,0.36166c0.95963,0.17169 1.55969,0.88147 2.15717,1.28568c0.76227,0.51569 1.62375,0.64368 2.76215,0.87198c0.78766,0.15796 1.56085,0.45203 2.5,0.66669c0.80472,0.18393 1.65466,0.16666 2.508,0.16666c0.94,0 1.92535,0 2.82535,0c0.75717,0 1.65268,0 2.51599,0c0.96317,0 1.884,0 2.78851,0c0.86215,0 1.74817,-0.15341 2.67398,0.2215c0.67133,0.27185 1.54251,1.2309 1.90002,0.55002c0.28101,-0.53516 0.10727,-1.33389 0.117,-2.12701c0.01404,-1.14441 0.00449,-2.07751 0.00449,-2.84851c0,-1.21732 0,-2.02133 0,-2.57065c0,-1.30368 0,-1.97867 0,-3.05869c0,-0.79199 0,-1.65198 0,-2.37732c0,-1.18802 0,-1.95334 0,-2.90668c0,-0.6925 0,-1.65201 0,-2.4035c0,-0.79648 0,-2.022 0,-2.87466c0,-1.00317 0,-1.76849 0,-2.72049c0,-0.76801 0,-1.70935 0,-2.71735c0,-0.79199 0,-1.65198 0,-2.37732c0,-1.18802 0,-1.95334 0,-2.90533c0,-0.76801 0.03464,-1.73596 -0.08533,-2.57068c-0.1445,-1.00528 -0.42972,-1.78833 -0.63068,-2.54398c-0.25507,-0.95911 -0.4335,-1.7475 -0.85199,-2.54001c-0.41269,-0.78149 -0.81769,-1.30688 -1.18918,-2.52917c-0.17749,-0.58395 -0.18683,-1.47662 -0.40948,-2.53351c-0.19699,-0.93512 -0.55981,-1.67685 -0.81866,-2.56265c-0.1918,-0.65643 -0.58066,-1.65692 -0.86536,-2.28c-0.29654,-0.64899 -0.85812,-1.8111 -1.08798,-2.63733c-0.28012,-1.00696 -0.41345,-1.70264 -0.672,-2.508c-0.18701,-0.58255 -0.57764,-1.78018 -0.88934,-2.63702c-0.19281,-0.53 -0.65976,-1.60654 -1.25717,-2.28983c-0.52951,-0.60562 -1.25644,-1.28897 -1.9295,-1.76782c-0.70743,-0.5033 -1.54913,-0.8367 -2.36066,-1.23666c-0.79684,-0.39273 -1.50925,-0.87927 -2.10599,-1.422c-0.85223,-0.77509 -1.29965,-1.33173 -2.04669,-2.02402c-0.58041,-0.53787 -1.43829,-0.75851 -2.21066,-1.23734c-0.80164,-0.49695 -1.43466,-0.99194 -2.10815,-1.26401c-1.10577,-0.44669 -1.78259,-0.58377 -2.75851,-0.89999c-0.58722,-0.19028 -1.59998,-0.78932 -2.29333,-1.31732l-0.65067,-0.14401" id="svg_1" stroke-width="2" stroke="#000" fill="none"/>
  <path t="4154,4263,4269,4269,4269,4283,4283,4283,4283,4295,4295,4295,4295,4299,4299,4311,4311,4311,4315,4315,4324,4324,4324,4330,4330,4340,4340,4347,4347,4354,4362,4362,4371,4378,4379,4387,4387,4387,4394,4394,4403,4403,4412,4412,4412,4418,4418,4427,4427,4427,4434,4434,4434,4443,4443,4443,4450,4450,4460,4466,4466,4466,4478,4478,4482,4482,4483,4493,4493,4493,4498,4498,4498,4510,4510,4514,4514,4514,4522,4522,4530,4546,4570,4570,4627,4627,4700,4739,4755,4755,4764,4787,4787,4802,4802,4802,4813,4814,4814,4819,4948,4949,4957,4973,4973,4991,4991,4991,4991,5006,5006,5006,5006,5024,5024,5024,5024,5026,5026,5026,5026,5027,5027,5040,5040,5056,5056,5056,5075,5075,5075,5090,5090,5090,5090,5090,5090,5092,5092,5092,5105,5106,5106,5108,5108,5108,5123,5123,5123,5123,5140,5140,5140,5140,5157,5157,5157,5171,5171,5189,5189,5226" d="m426,271c-1.64282,-0.22867 -1.94507,-1.13922 -1.94266,-1.73334c0.00418,-1.02933 0.24588,-2.11121 0.51199,-2.78134c0.26276,-0.66168 0.81104,-1.56619 1.26401,-2.48532c0.43268,-0.8779 0.66083,-1.44739 0.88,-2.22934c0.3132,-1.1174 0.35175,-1.828 0.57199,-2.82266c0.13879,-0.62674 0.35156,-1.61685 0.81448,-2.68384c0.33215,-0.76558 0.75494,-1.59421 0.8475,-2.2695c0.10159,-0.74113 0.29849,-1.84088 0.62735,-2.60933c0.36774,-0.85931 0.41998,-1.59595 0.42532,-2.58516c0.00522,-0.96416 0,-1.91484 0,-2.80017c0,-0.8 -0.06693,-1.63879 0.009,-2.65717c0.05609,-0.75262 0.42746,-1.54718 0.991,-2.34283c0.42734,-0.60335 0.87567,-1.60301 1.04816,-2.39999c0.21762,-1.00546 0.53506,-1.59984 0.78519,-2.76668c0.16541,-0.77161 0.16132,-1.57195 0.16666,-2.5c0.00479,-0.83331 0,-1.87616 0,-2.59467c0,-0.7905 -0.06473,-1.82256 0.04166,-2.73866c0.08029,-0.69142 0.51797,-1.68719 0.80902,-2.21466c0.4317,-0.78242 1.061,-1.80119 1.14667,-2.58267c0.09531,-0.86946 0.00266,-1.7455 0.00266,-2.7235c0,-0.79651 0,-1.79384 0,-2.6685c0,-1.01083 0,-1.8315 0,-2.496c0,-1 0,-1.83549 0,-2.716c0,-0.8985 0,-1.78799 0,-2.64149c0,-1.03568 0,-1.93634 0,-2.95717c0,-0.8 0,-1.60001 0,-2.5955c0,-0.74733 0,-1.76849 0,-2.60583c0,-0.96533 0,-1.79866 0,-2.63199c0,-0.86217 0.00461,-1.97905 -0.76166,-2.16217c-0.86664,-0.20711 -1.75433,-0.0045 -2.73834,-0.0045c-0.82166,0 -1.74667,0 -2.66666,0c-0.78601,0 -1.608,0 -2.66669,0c-0.91998,0 -1.67999,0 -2.66666,0c-0.82132,0 -1.67871,-0.08598 -2.61465,0.00133c-0.89676,0.08366 -1.55252,0.69705 -2.052,1.49867c-0.33762,0.54179 -0.8392,1.53064 -1.1235,2.25633c-0.41617,1.0623 -0.54337,1.75807 -0.70984,2.72284c-0.10632,0.61617 -0.42136,1.83153 -0.71884,2.42982c-0.32056,0.64468 -0.74966,1.30388 -1.44781,2.42433c-0.51776,0.83092 -0.78046,1.26366 -1.3125,2.125c-0.259,0.41933 -0.69962,1.23935 -1.55151,2.40034c-0.42352,0.57718 -1.30362,1.22128 -1.96933,1.66216c-0.52673,0.34882 -1.26645,1.14789 -1.69733,1.83383c-0.366,0.58266 -1.06479,1.73172 -1.35468,2.18001c-0.61993,0.95863 -0.94617,1.44574 -1.272,1.92799c-0.62051,0.91837 -1.39624,2.04199 -1.80899,2.556c-0.5892,0.73376 -1.2038,1.28815 -1.867,2.00217c-0.52856,0.56908 -1.12561,1.37465 -1.5,2c-0.39423,0.65849 -0.98203,1.66885 -1.34668,2.22585c-0.39499,0.6033 -0.8335,1.24464 -1.57449,2.27432c-0.52243,0.72598 -1.05316,1.44101 -1.569,2.112c-0.67026,0.87183 -1.22696,1.47527 -1.70084,2.11067c-0.65408,0.87709 -1.009,1.60367 -1.509,2.371l-0.5,0.58083l-0.69998,0.69383" id="svg_2" stroke-width="2" stroke="#000" fill="none"/>
  <path t="6094,6211,6363,6363,6390,6406,6406,6406,6406,6410,6410,6411,6411,6411,6426,6426,6434,6450,6469,6469,6487,6487,6503,6503,6506,6506,6522,6538,6538,6547,6547,6562,6578,6594,6634,6634,6659,6660,6698,6698,6698,6706,6716,6739,6746,6746,6762,6770,6770,6802,6802,6822,6822,6822,6826,6827,6827,6838,6842,6842,6866,6874,6874,6898,6898,6914,6914,6914,6931,6938,6978,6978,6994,6994,7010,7026,7058,7074,7074,7083,7083,7155,7155,7163,7164,7181,7181,7197,7198,7204,7204,7215,7232,7232,7247,7247,7251,7251,7274,7298,7298,7314,7314,7322,7322,7338,7338,7362,7371,7371,7389,7418,7418,7426,7426,7434,7450,7450,7458,7466,7506,7514,7514,7531,7531,7548,7549,7567,7567" d="m256,192c-1.75717,0.05716 -2.98599,0.05266 -3.34534,0.80133c-0.33208,0.69185 0.84192,1.06406 1.72134,1.14151c0.70552,0.06213 1.49466,0.0549 2.79065,0.05716c0.91333,0.00159 1.3725,0 2.27084,0c0.83835,0 2.17651,0 2.97916,0c0.88333,0 1.78467,0 2.75,0c0.83334,0 1.81201,0 2.586,0c0.90451,0 1.65186,0 2.64603,0c0.76532,0 1.84866,0 2.76797,0c0.83334,0 1.81183,0 2.52884,0c0.90451,0 1.93463,-0.18599 2.69385,0.436c0.63806,0.52275 0.60999,1.44933 0.61066,2.41066c0.00058,0.84 0.02298,1.83696 -0.02084,2.63251c-0.0415,0.75311 -0.22922,1.83743 -1.07898,2.39949c-0.70975,0.46944 -1.02243,1.15782 -1.60468,1.82133c-0.55548,0.633 -1.42868,1.10054 -2.05267,1.40984c-0.97028,0.48093 -1.43408,1.15363 -2.40948,1.55684c-0.75406,0.31172 -1.60788,0.31927 -2.66669,0.33333c-0.70493,0.00935 -1.59265,-0.12582 -2.53067,0.436c-0.72925,0.43678 -1.17056,1.30519 -2.04666,1.528c-0.88324,0.22462 -1.82843,-0.10161 -2.70532,0.32266c-0.71503,0.34595 -1.35641,1.20834 -1.884,1.6925c-0.50516,0.46358 -1.51041,0.93782 -2.29999,1.37349c-0.83835,0.46257 -1.58536,0.64667 -2.52534,0.64734c-0.69067,0.00049 -1.76401,0 -2.67467,0c-0.91066,0 -1.82133,0 -2.5,0c-1.116,0 -1.884,0 -2.836,0c-0.76534,0 -1.77072,0.05894 -2.564,-0.05716c-1.01233,-0.14816 -1.8652,-0.42084 -2.43201,-1.14418c-0.47003,-0.59984 -0.90698,-1.42413 -1.46266,-2.146c-0.5705,-0.74109 -0.70534,-1.65266 -0.70534,-2.40984c0,-0.89999 0,-1.84416 0,-2.83833c0,-0.74733 0,-1.65182 0,-2.57117c0,-0.85416 0,-1.83333 0,-2.62267c0,-1.04399 0,-1.836 0,-2.69466c0,-0.86334 -0.01178,-1.76341 0,-2.68268c0.01042,-0.8127 0.36877,-1.7036 1.16667,-2c0.84134,-0.31255 1.70059,-0.56122 2.52882,-0.886c0.74667,-0.29282 1.31528,-1.16614 2.0045,-1.59016c0.8214,-0.50534 1.8,-0.35716 2.71066,-0.35716c0.91068,0 1.59027,0.04427 2.70668,-0.00133c0.69415,-0.02835 1.64932,-0.28401 2.36183,-0.5195l1.02083,-0.47917l0.53999,-0.60001" id="svg_3" stroke-width="2" stroke="#000" fill="none"/>
  <path t="8907,9004,9020,9020,9039,9039,9058,9059,9071,9071,9071,9071,9071,9071,9088,9088,9092,9092,9092,9092,9092,9103,9103,9103,9106,9108,9108,9108,9120,9120,9123,9123,9123,9139,9139,9139,9155,9155,9155,9172,9172,9187,9188,9188,9205,9220,9237,9242,9242,9253,9253,9270,9274,9287,9291,9304,9307,9320,9321,9323,9338,9338,9354,9354,9354,9370,9370,9387,9388,9403,9419,9436,9436,9437,9442,9442,9442,9453,9454,9548,9613,9621" d="m339,200c1.22168,-0.87849 2.16666,-1 2.82535,-1c1.008,0 1.79999,0 2.84982,0c0.6795,0 1.99149,0 2.41,0c0.92099,0 1.89398,0 2.3775,0c0.91599,0 2.31598,0 3.01648,0c1.1875,0 1.8595,0 2.64352,0c0.84799,0 1.71198,0 2.93433,0c0.72867,0 1.40134,0 2.34033,0c1.19998,0 1.78134,0 2.832,0c0.96533,0 1.73865,0 2.785,0c0.80698,0 1.38834,0 2.58566,0c0.89999,0 1.5,0 2.69965,0c0.87903,0 1.686,0 2.72968,0c0.76801,0 1.60666,0 2.62335,0c0.69464,0 1.71133,0 2.64731,0c0.90134,0 1.86667,0 2.52536,0c1.008,0 1.87015,0 2.77466,0c0.89999,0 1.79999,0 2.69998,0c0.90002,0 1.80002,0 2.70001,0c0.79999,0 1.63599,0 2.66165,0c0.80002,0 1.75967,0 2.56369,0c0.82199,0 1.853,0 2.733,0c0.875,0 1.73715,0 2.64166,0c0.94165,0 1.73334,0 2.66132,0c0.7905,0 1.81717,0 2.71783,0c0.61951,0 1.81018,0 2.53552,0l0.96448,0.02083l0.81635,0.33633l0.58301,0.74284" id="svg_4" stroke-width="2" stroke="#000" fill="none"/>
  <path t="10235,10330,10330,10331,10331,10339,10339,10339,10339,10339,10347,10347,10347,10347,10347,10347,10347,10359,10360,10360,10360,10360,10363,10363,10363,10363,10372,10373,10373,10373,10383,10384,10384,10384,10384,10384,10386,10386,10386,10386,10399,10399,10399,10399,10399,10402,10402,10402,10402,10410,10410,10410,10419,10419,10419,10426,10426,10434,10442,10442,10442,10452,10452,10458,10458,10467,10468,10474,10474,10474,10474,10485,10485,10485,10490,10490,10490,10490,10500,10500,10500,10501,10506,10506,10506,10506,10506,10506,10518,10519,10519,10522,10522,10522,10530,10530,10530,10530,10530,10530,10538,10538,10538,10538,10538,10546,10546,10546,10554,10554,10554,10562,10562,10562,10570,10570,10578,10578,10578,10586,10586,10586,10594,10594,10594,10601,10602,10602,10602,10610,10610,10610,10619,10619,10619,10619,10626,10626,10626,10634,10634,10634,10642,10642,10642,10642,10652,10652,10658,10887,10888,10888,10891,10891,10891,10892,10908,10908,10908,10922,10922,10922,10935,10935,10938,10938,10939,10978,10978,11018,11026,11074,11083,11084,11227,11227,11246,11266,11266,11269,11269,11270,11282,11282,11282,11299,11299,11299,11300,11317,11317,11317,11318,11318,11318,11331,11332,11332,11347,11347,11347,11347,11364,11364,11364,11364,11382,11382,11396,11396,11396,11396,11414,11415,11415,11415,11415,11418,11418,11418,11418,11429,11429,11429,11435,11435,11435,11435,11435,11448,11448,11448,11448,11448,11448,11450,11450,11450,11450,11464,11464,11464,11464,11466,11467,11467,11467,11481,11481,11481,11483,11483,11483,11497,11497,11497,11498,11498,11499,11514,11514,11530,11530,11530,11530,11530,11548,11548,11548,11548,11549,11549,11563,11563,11563,11563,11581,11581,11581,11582,11596,11596,11596,11596,11596,11614,11615,11615,11615,11615,11618,11618,11618,11629,11629,11629,11635,11635,11635,11635,11648,11648,11648,11650,11650,11650,11663,11663,11663,11666,11666,11666,11681,11681,11681,11682,11682,11683,11683,11683,11696,11696,11698,11698,11698,11698,11715,11715,11715,11729,11729,11729,11729,11729,11730,11731,11731,11731,11748,11748,11762,11762,11762,11762,11762,11781,11781,11781,11781,11796,11796,11814,11814,11814,11830,11830,11830,11834,11858,11877,11877,12018,12018,12026" d="m444,202c2.97198,0.00133 3.68307,0.00035 4.45734,0.036c0.83124,0.03827 2.16501,0.18066 3.10434,0.31667c0.48535,0.07027 1.48413,0.22839 2,0.29468c1.60254,0.2059 2.15891,0.24225 3.2865,0.2955c0.56625,0.02673 1.13092,0.04123 2.242,0.05266c0.54047,0.00555 2.06689,-0.00185 2.99548,0.009c0.87277,0.01019 1.29459,0.00999 2.11166,0.08083c1.20569,0.10452 2.00073,0.26004 2.78183,0.4355c0.76636,0.17213 2.19797,0.58557 2.87717,0.77467c0.68353,0.19029 1.405,0.38853 2.64368,0.53783c0.9487,0.11435 1.45795,0.11514 2.5,0.16667c0.52396,0.02591 1.5531,0.03984 2.93582,0.22133c0.80545,0.10571 1.54062,0.29263 2.26501,0.42601c1.12869,0.20782 1.96655,0.27954 2.84982,0.31667c0.89825,0.03775 1.34399,0.03119 2.616,0.036c1.11902,0.00423 1.79358,-0.00374 2.42435,0.05716c1.21429,0.11723 2.10327,0.36337 2.673,0.55351c1.07947,0.36026 1.75922,0.73755 2.6315,1.03217c0.98471,0.3326 1.76846,0.35182 2.72049,0.35716c1.05063,0.00589 1.72,0 2.48532,0c0.99869,0 1.79868,0 2.79868,0c0.80002,0 1.80017,0 2.62085,0c1.14581,0 1.93631,0 2.78983,0c0.59067,0 1.78934,0 2.68933,0c0.60001,0 1.80017,0 2.71069,0c0.62531,0 1.27466,0 2.67731,0c0.76935,0 1.59467,0 2.03082,0c1.41449,0 2.44653,-0.00116 2.97754,0.0045c1.06201,0.01134 1.58282,0.00296 2.56494,0.08083c1.2561,0.09959 1.90881,0.27165 2.92072,0.56201c0.81781,0.23465 1.72198,0.33885 2.30383,0.34816c1.14734,0.01836 2.13568,0.00165 2.68201,0.01801c1.1535,0.03453 1.74487,0.06839 2.32599,0.15799c1.65253,0.25479 2.14191,0.44829 2.97748,0.88651c0.7674,0.40248 1.36078,0.9758 2.32867,1.442c0.85938,0.41393 1.76361,0.48399 2.83331,0.5c0.71399,0.01068 1.61932,0 2.58783,0c0.79352,0 1.56903,0 2.61084,0c0.77338,0 1.73871,0 2.5097,0c0.86096,0 2.05829,0 2.65833,0c0.89996,0 2.09998,0 2.70001,0c0.89996,0 2.09998,0 2.69995,0c0.90002,0 1.80005,0 2.70001,0c0.90002,0 1.79999,0 2.70001,0c0.90002,0 1.79999,0 2.40002,0c1.19995,0 2.09998,0 2.69995,0c1.20001,0 2.10004,0 2.70001,0c1.20001,0 2.09552,0 2.6792,0c0.83545,0 2.05914,0 2.85913,0c0.91351,0 1.995,0 2.67603,0c0.80701,0 1.98566,0 2.58563,0c0.90002,0 1.80005,0 2.69983,0c0.88953,0 1.74304,0 2.77869,0c0.9007,0 1.5202,0 2.526,0c0.85266,0 1.81732,-0.02368 2.61017,0.01067c1.01776,0.04408 2.00342,0.30498 2.5827,0.79066c0.74811,0.62726 1.65674,0.96454 2.14996,1.55583c0.58246,0.6983 0.8623,1.5228 1.35266,2.291c0.40698,0.63762 1.42609,1.2459 1.63385,2.07066c0.18304,0.7265 -0.34973,1.71713 -0.79517,2.49583c-0.30591,0.53479 -0.92847,1.49023 -1.52399,2.12401c-0.54657,0.58167 -1.38782,1.14957 -1.90802,1.51866c-0.59979,0.4256 -1.28546,0.90738 -2.44916,1.78517c-0.42621,0.3215 -1.29694,0.99823 -1.73669,1.33667c-0.85724,0.65974 -1.25,0.99216 -2.35651,1.75633c-0.58832,0.40631 -1.35559,0.86203 -2.33099,1.2645c-0.78546,0.3241 -1.67798,0.60664 -2.32001,0.8c-1.03113,0.31053 -1.75458,0.50505 -2.81598,0.76399c-0.64124,0.15645 -1.84149,0.36974 -2.5553,0.48868c-0.90961,0.15157 -1.85052,0.38138 -2.57404,0.558c-0.77246,0.18857 -1.96802,0.48933 -2.76801,0.68933c-0.79999,0.2 -1.59998,0.40001 -2,0.5c-1.19965,0.29987 -1.98932,0.50261 -2.7583,0.67917c-1.06885,0.24539 -2.00165,0.38187 -2.79102,0.50616c-1.02258,0.16103 -1.89771,0.4485 -2.57397,0.729c-0.76434,0.31705 -1.59808,0.69926 -2.05005,0.88832c-1.46301,0.61197 -1.98956,0.80528 -3.06665,1.17601c-0.53741,0.18497 -1.0658,0.37633 -2.10669,0.65067c-1.38,0.36371 -2.18463,0.47528 -2.91162,0.52899c-0.68427,0.05055 -2.06329,0.03036 -2.79437,0.05067c-0.74774,0.02077 -1.51495,0.02162 -2.58063,0.32433c-1.03088,0.2928 -1.61755,0.68181 -2.20502,0.96133c-1.02802,0.48915 -1.96088,0.68225 -2.64569,0.70267c-1.00092,0.02985 -1.83679,0.00218 -2.71729,0.00267c-1.19739,0.00067 -1.79156,-0.03313 -2.64154,0.05716c-1.04272,0.11075 -1.92493,0.47899 -2.55585,0.65884c-1.00006,0.28508 -1.70929,0.27657 -2.90131,0.284c-0.75598,0.00471 -1.60895,0.00615 -2.53198,0.07201c-0.48212,0.03441 -1.97052,0.25046 -2.46771,0.37067c-0.99683,0.241 -1.95831,0.55826 -2.42828,0.70667c-0.90082,0.28445 -2.12604,0.62657 -2.86218,0.74083c-0.68652,0.10655 -1.6958,0.16971 -2.73132,0.33116c-0.73834,0.11513 -1.49713,0.29103 -2.28302,0.42601c-1.19244,0.20479 -1.99652,0.27313 -2.80615,0.32733c-0.82501,0.05522 -1.67731,0.08583 -3.01035,0.24683c-0.4614,0.05573 -1.38577,0.20081 -2.28168,0.38918c-0.84546,0.17776 -1.93405,0.48596 -2.79999,0.77866c-0.74191,0.25078 -1.71753,0.50133 -2.53333,0.58534c-0.57388,0.0591 -1.76761,0.17538 -2.664,0.37799c-0.60263,0.13622 -1.49295,0.41199 -2.69867,0.56201c-0.5882,0.07318 -1.44418,0.08307 -2.48016,0.08533c-0.94202,0.00204 -1.69052,0 -2.88785,0c-0.67334,0 -1.34665,0 -2.53333,0c-0.82401,0 -1.552,0 -2.556,0c-1.0065,0 -1.75751,0 -2.944,0c-0.79733,0 -1.57867,0 -2.328,0c-0.70132,0 -1.90265,0 -2.65115,0c-1.1875,0 -1.978,0 -2.83151,0c-0.59067,0 -1.79333,0 -2.42133,0c-1.03952,0 -2.26801,0 -2.73184,0c-0.98965,0 -1.5015,0 -2.52417,0c-0.97467,0 -2.22583,0 -2.87881,0c-0.95801,0 -1.8985,0 -2.6145,0c-1.22568,0 -1.64136,0 -2.56668,0c-0.99731,0 -1.50299,0 -2.952,0c-0.84134,0 -1.57068,0 -2.47217,0c-1.05984,0 -1.83316,0 -2.79849,0c-0.771,0 -1.63202,0 -2.82666,0c-0.58136,0 -1.38834,0 -2.58835,0c-0.91434,0 -1.81433,0 -2.5715,0l-0.89551,0.0045l-0.86331,0.08083l-0.84802,0.34001" id="svg_5" stroke-width="2" stroke="#000" fill="none"/>
  <path t="12796,12962,12963,12972,12972,12972,12988,12988,12988,12997,12998,12998,12998,13005,13005,13005,13005,13008,13008,13008,13008,13008,13015,13015,13015,13015,13015,13018,13018,13018,13029,13029,13029,13029,13034,13034,13034,13052,13052,13052,13052,13054,13054,13054,13061,13061,13066,13066,13075,13075,13082,13082,13082,13090,13090,13090,13098,13098,13098,13098,13107,13107,13107,13114,13114,13114,13114,13123,13123,13123,13130,13130,13130,13138,13139,13139,13146,13146,13146,13146,13146,13146,13154,13154,13154,13170,13170,13170,13180,13180,13180,13187,13187,13187,13196,13196,13196,13202,13202,13202,13213,13213,13213,13213,13218,13218,13218,13226,13226,13226,13233,13234,13234,13234,13250,13258,13258,13265,13266,13274,13275,13275,13282,13282,13282,13290,13290,13297,13298,13306,13306,13314,13314,13322,13330,13330,13338,13338,13347,13347,13347,13347,13347,13354,13354,13354,13363,13363,13363,13363,13370,13370,13370,13370,13380,13380,13380,13381,13381,13386,13386,13397,13397,13397,13402,13402,13402,13414,13414,13414,13418,13426,13426,13433,13434,13442,13443,13458,13458,13465,13466,13466,13466,13474,13474,13490,13490,13490,13497,13498,13506,13514,13514,13522,13522,13522,13531,13531,13531,13538,13548,13548,13548,13554,13555,13555,13564,13564,13570,13570,13581,13582,13582,13587,13587,13587,13594,13594,13594,13601,13602,13610,13611,13611,13611,13618,13626,13626,13642,13642,13642,13650,13650,13665,13697,13698,13706,13716,13722,13722,13737,13738,13749,13749,13756,13766,13766,13766,13770,13770,13770,13793,13794,13794,13801,13802,13810,13811,13822,13826,13836,13836,13842,13856,13858,13858,13871,13871,13874,13874,13874,13874,13889,13889,13889,13889,13889,13890,13891,13891,13891,13903,13903,13903,13903,13906,13906,13906,13906,13922,13922,13922,13922,13924,13924,13924,13924,13924,13937,13937,13938,13938,13938,13938,13956,13956,13956,13956,13962,13962,13962,13962,13962,13962,13970,13970,13970,13970,13978,13979,13979,13986,13987,13987,13987,13994,13994,13994,13994,14002,14002,14002,14010,14011,14011,14011,14023,14023,14023,14023,14026,14026,14026,14026,14036,14036,14036,14042,14042,14042,14052,14052,14052,14052,14058,14058,14058,14059,14069,14069,14069,14074,14074,14074,14085,14085,14086,14086,14090,14091,14091,14091,14091,14091,14102,14102,14102,14103,14106,14106,14106,14106,14119,14120,14120,14122,14122,14135,14135,14136,14138,14138,14153,14153,14155,14155,14162,14162,14163,14163,14163,14170,14170,14171,14171,14179,14179,14180,14180,14187,14188,14188,14188,14188,14188,14194,14194,14195,14195,14195,14195,14202,14202,14202,14203,14203,14203,14210,14210,14211,14211,14211,14211,14211,14220,14220,14220,14220,14220,14221,14226,14226,14226,14227,14227,14227,14235,14235,14236,14236,14236,14236,14242,14242,14242,14242,14243,14253,14253,14253,14254,14258,14258,14259,14269,14269,14269,14270,14270,14274,14274,14274,14274,14286,14290,14291,14337,14338,14347,14347,14354,14354,14362,14362,14362,14369,14370,14378,14386,14386,14386,14386,14394,14402,14402,14402,14410,14410,14420,14420,14426,14426,14442,14442,14453,14454,14458,14470,14470,14474,14474,14487,14488,14498,14498,14563,14584,14585,14588,14589,14590,14604,14605,14605,14618,14618,14619,14619,14641,14642,14642,14674,14674,14698,14698" d="m300,224c-1.84668,0 -2.68668,0 -3.68533,0c-0.83551,0 -1.716,0 -2.61465,0c-0.90002,0 -1.80002,0 -2.70001,0c-0.90451,0 -1.52084,0 -2.48532,0c-1.03635,0 -1.77634,0 -2.55634,0c-0.82001,0 -2.125,0 -3.04236,0c-0.46866,0 -1.41599,0 -2.36331,0c-1.38602,0 -1.83084,0 -2.68649,0c-0.80368,0 -1.8942,0 -2.82352,0c-0.79199,0 -1.548,0 -2.68549,0c-0.66702,0 -1.74252,0 -2.47452,0c-1.06116,0 -2.04666,0 -2.672,0c-1.21066,0 -2.11066,0 -2.71066,0c-0.89999,0 -2.09866,0 -2.68933,0c-0.85352,0 -1.88901,0 -2.76901,0c-1.02032,0 -1.79431,0 -2.70331,0c-0.80002,0 -1.75969,0 -2.56367,0c-0.82201,0 -1.8535,0 -2.7955,0c-0.7485,0 -1.62201,0 -2.6405,0c-0.724,0 -1.45601,0 -2.51717,0c-0.9855,0 -1.91701,0 -2.8215,0c-0.89999,0 -1.8,0 -2.39999,0c-1.20001,0 -2.10001,0 -2.70001,0c-1.19983,0 -2.08932,0 -2.664,0c-1.06932,0 -2.04266,0 -2.86015,0c-1.04251,0 -1.91183,0 -2.38651,0c-0.98933,0 -1.97867,0 -2.45334,0c-1.59599,0 -2.20267,0 -2.97516,0c-1.24617,0 -1.79683,0 -2.66534,0c-1.19533,0 -2.08482,0 -2.6595,0c-1.06932,0 -2.01067,0 -2.68866,0c-1.23267,0 -1.78333,0 -2.65184,0c-1.1955,0 -2.09549,0 -2.6955,0c-1.2,0 -2.09999,0 -2.7,0c-0.89999,0 -2.10001,0 -2.7,0c-0.90001,0 -2.10001,0 -2.7,0c-0.90001,0 -2.10001,0 -2.69734,0c-0.86099,0 -1.632,0 -2.74133,0c-0.98267,0 -1.66133,0 -2.77867,0c-0.69249,0 -1.65332,0 -2.42433,0c-0.86099,0 -2.05566,0 -2.63699,0c-0.80701,0 -2.01601,0 -2.78934,0c-1.03734,0 -1.78133,0 -2.69867,0c-0.948,0 -1.81732,0 -2.68066,0c-0.89999,0 -1.81934,0 -2.65266,0c-0.97917,0 -1.73334,0 -2.66667,0c-0.672,0 -1.45599,0 -2.304,0c-0.864,0 -2.08633,0 -2.81499,0c-0.99301,0 -2.21434,0 -2.81567,0c-0.91949,0 -1.55583,0 -2.92017,0c-0.73567,0 -1.49933,0 -2.283,0c-1.1955,0 -1.99283,0 -2.77415,0c-0.74934,0 -1.45067,0 -2.65201,0c-0.98399,0 -1.936,0 -2.722,0c-0.82201,0 -1.88066,0 -2.59467,0c-0.90533,0 -1.87384,0 -2.66733,0c-0.77551,0 -1.97551,0 -2.95201,0c-0.65866,0 -1.66666,0 -2.45866,0c-1.03183,0 -1.77916,0 -2.77733,0c-0.63901,0 -1.93068,-0.00372 -2.564,0.00133c-0.67339,0.00537 -1.69902,-0.07668 -2.76901,0.22017c-0.75372,0.20911 -1.57748,0.89348 -2.28516,1.2785c-0.57399,0.31229 -1.55598,0.83894 -2.32201,1.14284c-0.88579,0.35139 -1.83502,0.2549 -2.67799,0.39883c-1.00711,0.17197 -1.58171,0.66498 -2.17917,1.14366c-0.80344,0.64372 -1.56374,1.22501 -2.31467,1.528c-0.83646,0.33751 -1.66377,0.60541 -2.32133,1.14799c-0.57915,0.47789 -1.36186,1.12064 -2.164,1.63867c-0.59841,0.38647 -1.39132,0.99139 -1.97916,1.47917c-0.84381,0.70018 -1.69029,1.00354 -2.56367,1.24249c-0.72621,0.1987 -1.54462,0.47911 -2.53567,1.09967c-0.48347,0.30272 -1.0771,0.89717 -1.9215,1.51199c-0.77135,0.56163 -1.59262,0.91158 -2.40134,1.084c-0.82838,0.17662 -1.78358,0.38025 -2.54683,0.79251c-0.81165,0.43842 -1.27689,0.815 -2.2375,1.52849c-0.80965,0.60136 -1.51096,0.77112 -2.35699,1.20451c-0.73198,0.37497 -1.46643,0.8896 -2.31434,1.53549c-0.61206,0.46623 -1.50246,0.83478 -2.243,1.24316c-0.67448,0.37196 -1.4922,1.07739 -1.81467,1.9785c-0.27107,0.75749 -0.08533,1.68533 -0.08533,2.636c0,0.76534 0,1.75951 0,2.50684c0,1.0425 0,1.99049 0,2.66699c0,0.77551 0,1.82352 0,2.76483c0,0.67801 0,1.90933 0,2.45068c0,0.82199 -0.00005,2.08798 0,2.733c0.00008,1.02014 -0.08446,1.99045 0.61066,2.60565c0.6663,0.58969 1.60483,0.70386 2.18934,1.23734c0.7197,0.65686 1.55769,1.02042 2.40133,1.48401c0.61012,0.33527 1.45107,1.03345 2.04533,1.31467c0.90678,0.42911 1.72542,0.70529 2.33667,0.94165c0.6943,0.26849 1.91885,0.78693 2.866,1.22501c0.50083,0.23166 1.00411,0.47592 2.00267,0.94669c0.9242,0.43573 2.03076,0.95346 2.58016,1.11966c0.86053,0.26028 1.95352,0.38821 2.6875,0.51965c0.82202,0.14722 1.68053,0.31998 2.947,0.48068c0.76089,0.09656 1.46103,0.14047 2.112,0.15598c1.22104,0.02911 2.13149,0.00198 2.763,0.05234c0.67444,0.0538 1.7967,0.27457 2.62367,0.52634c0.86965,0.26477 1.70956,0.5882 2.49599,0.86401c0.9503,0.33328 1.8172,0.54715 2.83867,0.56799c0.86682,0.01767 1.54167,0 2.25633,0c1.42267,0 2.10001,0 2.78534,0c0.72533,0 1.95833,0 2.91032,0c0.506,0 1.548,0 2.59001,0c0.506,0 1.89349,0 2.68649,0c0.709,0 1.6675,0 2.87151,0c0.59999,0 1.5,0 2.70016,0c0.60432,0 1.53583,0 2.18517,0c1.03583,0 2.12933,0 2.85333,0c0.692,0 1.89333,0 2.66133,0c0.76801,0 1.97067,0 2.672,0c0.74934,0 1.53067,0 2.72783,0c0.79567,0 1.57935,0.00009 2.343,0c1.43567,-0.00018 2.10402,0.03543 3.04651,-0.07199c0.6133,-0.06992 1.81412,-0.48621 2.39999,-0.77869c0.86078,-0.42972 1.62425,-0.9032 2.59601,-1.07733c0.71582,-0.12827 1.85756,-0.06665 2.52449,-0.07648c0.71111,-0.0105 1.44977,0.00464 2.86867,-0.21686c0.66908,-0.10446 1.60663,-0.37289 2.22017,-0.49466c1.19437,-0.23703 1.80095,-0.26205 2.70134,-0.27951c1.19978,-0.02325 1.79999,-0.00449 2.7,-0.00449c1.2,0 1.80667,0.04211 2.74167,-0.0625c0.67722,-0.07578 1.80048,-0.41727 2.62633,-0.78949c0.89273,-0.40237 1.32793,-0.65634 2.22667,-1.09c0.43539,-0.21008 1.64897,-0.75934 2.744,-0.95001c0.67017,-0.1167 1.34402,-0.09784 2.74533,-0.10934c0.74136,-0.00607 1.49251,-0.01212 2.23199,-0.08398c1.06581,-0.10361 2.02658,-0.34036 2.86517,-0.56201c0.87605,-0.23154 1.82414,-0.3504 2.78816,-0.35266c0.7515,-0.00174 1.548,0 2.54401,0c0.84,0 1.8027,0.00833 2.57066,0c0.98416,-0.01068 1.70013,-0.08249 2.616,-0.33334c0.761,-0.20844 1.58424,-0.52454 2.46001,-0.81598c0.87097,-0.28986 2.09317,-0.63293 2.83015,-0.73636c0.68611,-0.09628 1.35799,-0.1098 2.73151,-0.11432c0.74001,-0.00241 1.52,0 2.34,0c1.30501,0 1.75984,0 2.6955,0c0.96367,0 1.45351,0 2.44417,0c1.49884,0 2,0 3.00934,0c0.51016,0 1.54649,0 2.07466,0c1.63617,0 2.20001,0 3.35068,0c0.58482,0 1.17467,0 2.36533,0c1.19867,0 1.79868,0 2.99867,0c0.59999,0 1.2,0 2.39999,0c0.60001,0 1.8,0 2.99733,0c0.59367,0 1.18134,0 2.33067,0c0.55766,0 2.13867,0 2.62933,0c0.93733,0 1.84267,0 2.748,0c0.46268,0 1.93735,0 2.46268,0c1.08264,0 1.63199,0 2.72665,0c0.53732,0 2.0625,0 2.99551,0c0.88898,0 1.32449,0.00006 2.19247,0c1.33817,-0.00009 2.25668,0.0032 3.15485,-0.02084c0.42929,-0.01151 1.90524,-0.1109 2.65634,-0.33182c0.65305,-0.19208 1.73825,-0.49335 2.5275,-0.56467c0.91476,-0.08267 1.40347,-0.06754 2.3725,-0.1925c1.34686,-0.17371 2.08539,-0.41656 2.65149,-0.74084c0.90363,-0.51761 1.61514,-0.99915 2.52133,-1.31598c0.84726,-0.2962 1.70175,-0.56866 2.45868,-0.89468c0.91568,-0.39438 1.29156,-1.05847 2.20801,-1.60532c0.64133,-0.38269 1.70996,-0.31189 2.41733,-0.34402c0.98315,-0.04465 1.89526,-0.41925 2.54666,-0.70532c0.87057,-0.38229 1.96667,-0.284 2.56067,-0.284c0.966,0 1.59375,0.08987 2.77499,-0.00449c1.04297,-0.08331 1.70599,-0.42529 2.46832,-0.79684c0.80188,-0.39084 1.57489,-0.85193 2.59851,-1.07718c0.76743,-0.16888 1.77884,-0.12149 2.55283,-0.12149c0.90451,0 1.65186,0 2.64603,0c0.94415,0 1.84866,0 2.76797,0c0.83334,0 1.81201,0 2.586,0c0.90451,0 1.65186,0 2.64603,0c0.94415,0 1.84866,0 2.76797,0c0.85419,0 1.83334,0 2.64401,0c0.64648,0 1.8757,0.01736 2.42532,-0.02133c0.87131,-0.06134 2.07016,-0.40768 2.664,-0.68399c0.90988,-0.42334 1.4729,-0.82043 2.69867,-1.12402c0.5813,-0.14398 1.44418,-0.16165 2.47968,-0.17065l0.88,0l1.02014,-0.00015l0.71701,-0.05701" id="svg_6" stroke-width="2" stroke="#000" fill="none"/>
  <path t="16957,17002,17026,17027,17029,17029,17029,17029,17043,17043,17057,17057,17075,17075,17075,17093,17093,17093,17093,17093,17109,17109,17109,17109,17125,17126,17126,17142,17142,17161,17162,17162,17162,17291,17310,17330,17330,17338,17339,17339,17357,17357,17357,17373,17374,17374,17374,17374,17374,17390,17390,17407,17407,17423,17423,17442,17458,17458,17506,17578,17587,17613,17613,17614,17614,17614,17631,17632,17632,17632,17632,17632,17632,17632,17632,17640,17640,17640,17640,17640,17640,17642,17644,17674" d="m193,237c1.82533,0 2.83333,0 3.69733,0c0.80267,0 1.66068,0 2.62668,0c0.62399,0 1.81349,0 2.64265,0c1.04317,0 1.81868,0 2.86667,0c0.72301,0 1.464,0 2.66667,0c0.75467,0 1.59734,0 2.496,0c0.46033,0 1.83733,0 2.71466,0c0.82133,0 1.57066,0 2.78934,0c0.81334,0 1.46666,0 2.51433,0c0.80701,0 1.98567,0 2.58301,0c0.86099,0 2.81934,1.18733 2.81934,0c0,-0.30467 -1.09274,-0.06987 -1.87834,0.11433c-0.98735,0.23151 -1.74641,0.74802 -2.5285,1.18033c-0.86078,0.47581 -1.59819,0.711 -2.31915,0.95866c-1.12703,0.38715 -1.59544,0.5968 -2.64267,1.02267c-0.5484,0.22302 -1.09198,0.4581 -2.144,0.87199c-1.27026,0.49976 -2.08751,0.74835 -3.00418,0.85217c-0.78474,0.08888 -1.53688,0.39206 -2.41583,0.71584c-0.83488,0.30756 -1.53435,0.76456 -2.084,1.43333c-0.64508,0.78488 -1.79582,0.5545 -1.79582,0.85066c0,0.89583 1.79433,0 2.58333,0c0.46049,0 1.5285,0 2.8125,0c0.72816,0 1.50534,0 2.3205,0c0.84218,0 1.70033,0 2.56351,0c0.85716,0 1.69733,0 3.28267,0c0.72516,0 1.40132,0 2.0295,0c1.11633,0 2.05267,0 3.13716,0l0.92267,0l0.84401,0" id="svg_7" stroke-width="20" stroke="#fff" fill="none"/>
  <path t="18236,18274,18285,18285,18285,18305,18305,18307,18307,18307,18321,18321,18321,18322,18346,18346,18362,18362,18394,18418,18426,18426" d="m208,237c1.672,0 2.76933,0 3.52083,0c0.79651,0 1.79517,0 2.7045,0c0.94135,0 1.72734,0 2.54935,0c1.05865,0 1.76366,0 2.73866,0c0.86133,0 1.80817,0 2.69733,0c0.98917,0 1.76851,0 2.76767,0.00017l0.855,0.1665l0.16667,0.83333l0,0.81433" id="svg_8" stroke-width="20" stroke="#fff" fill="none"/>
  <path t="18872,18947,18947,18947,18969,18969,18985,18985,18985,19010,19010,19042,19042,19084,19098,19107,19108" d="m213,253c2.68266,0.56799 3.46176,1.03181 4.23067,1.43201c0.94868,0.49377 1.63181,0.56349 2.53334,0.56799c0.91197,0.00455 1.87799,0 2.73599,0c0.95833,0 1.82133,0 2.67467,0c0.94,0 1.92534,0 2.82533,0l0.8,0" id="svg_9" stroke-width="20" stroke="#fff" fill="none"/>
  <path t="19707,19770,19787,19787,19811,19811,19818,19819,19819,19834,19847,19847,19850,19850,19850,19864,19864,19864,19866" d="m205,253c2.62534,0 3.48534,0.00006 4.21066,0c0.98933,-0.00009 1.80554,0.06445 2.78934,-0.16667c0.80862,-0.18997 1.49025,-0.66913 2.5,-0.8125c0.97708,-0.13873 1.74667,-0.02083 2.66667,-0.02083c0.786,0 1.608,0 2.66666,0l0.92,0l0.76001,0l1.076,0" id="svg_10" stroke-width="20" stroke="#fff" fill="none"/>
  <path t="22141,22236,22244,22263,22284,22284,22284,22301,22318,22318,22318,22334,22351,22352,22352,22368,22368,22368,22368,22384,22384,22410,22410,22410,22426,22426,22426,22450,22450,22524" d="m269,280c-0.5,2.47916 -0.89572,3.30429 -1.00134,4.20132c-0.11453,0.97266 -0.39313,1.64764 -0.79999,2.31467c-0.54507,0.89365 -1.22992,1.63318 -1.58801,2.30936c-0.35727,0.67465 -0.54752,1.72354 -1.05365,2.49631c-0.37149,0.5672 -0.98795,1.12234 -1.75684,2.09952c-0.4075,0.51791 -0.9567,1.32294 -1.31485,1.80948c-0.71783,0.97513 -1.25842,1.55936 -1.80649,2.31219c-0.513,0.70468 -0.9151,1.19879 -1.34549,2.2905c-0.35559,0.90204 -0.3815,1.56216 -0.61734,2.56534l-0.29068,0.76532l-0.34,0.95065" id="svg_11" stroke-width="2" stroke="#000" fill="none"/>
  <path t="23527,23570,23578,23595,23610,23610,23618,23618,23619,23626,23626,23634,23634,23642,23642,23650,23650,23658,23658,23666,23666,23666,23674,23675,23682,23682,23682,23691,23691,23691,23698,23698,23698,23698,23708,23708,23708,23708,23714,23714,23714,23714,23714,23714,23725,23725,23725,23725,23725,23725,23731,23731,23731,23731,23742,23742,23742,23746,23746,23746,23758,23758,23763,23763,23763,23778,23778,23778,23787,23787,23787,23794,23802,23810,23818,23819,23819,23826,23826,23834,23834,23842,23842,23852,23860,23860,23875,23875,23898,23898,23909,23909,23914,23946,23946,23946,23959,23970,23970,24002,24002,24002,24010,24010,24042,24060,24060,24060,24080,24080,24082,24082,24093,24098,24112,24112,24113,24114,24130,24130,24138,24154,24154,24154,24162,24162,24162,24170,24170,24170,24178,24179,24179,24195,24195,24195,24426,24436,24456,24456,24457,24457,24474,24474,24474,24495,24495,24495,24495,24546,24546,24562,24563" d="m256,304c2.58932,0 3.5,0 4.41068,0c0.91098,0 1.63098,0 2.75598,0c0.78152,0 1.57202,0 2.5,0c0.948,0 1.81866,0 2.54401,0c0.98917,0 1.95334,0 2.90533,0c0.76801,0 1.73068,0 2.34567,0c1.22101,0 2.01749,-0.00174 2.76898,0c0.96402,0.00226 1.74942,0.04303 2.78369,0.36166c0.8179,0.25198 1.39963,0.50244 2.28564,0.9595c0.91223,0.47058 1.46478,0.90619 2.70001,1.34549c0.5864,0.20856 1.50604,0.30338 2.10001,0.43869c1.21576,0.27698 1.81268,0.60193 2.44165,0.93631c0.67673,0.3598 1.78696,0.96841 2.63034,1.35968c0.9057,0.4202 1.39096,0.61844 2.39417,1.05582c0.52209,0.22763 1.60196,0.70636 2.71384,1.22418c0.55991,0.26074 1.11084,0.52808 2.18668,1.02133c0.508,0.23291 1.85968,0.81894 2.59332,1.04401c0.60147,0.18454 1.63843,0.37485 2.36133,0.69617c0.82828,0.36816 1.61865,0.9212 2.41202,1.3905c0.70316,0.41592 1.54968,0.85156 2.36667,1.0455c0.79053,0.18768 1.81009,0.43857 2.40448,0.82648c0.86801,0.5665 1.81113,1.07721 2.34818,1.18484c0.81516,0.16336 1.89343,0.2348 2.80066,0.53516c0.77246,0.25574 1.72565,0.56305 2.54666,0.57468c0.90125,0.01276 1.87619,0.32123 2.35269,0.70532c0.70926,0.57169 1.45248,1.20651 2.31665,1.29202c1.03098,0.10202 1.78018,-0.01544 2.69733,0.00266c0.91254,0.01801 1.66306,0.56525 2.53601,0.91599c0.72949,0.29309 1.57513,0.34085 2.29733,0.60486c1.18454,0.43304 1.76736,0.98083 2.60001,1.35782c0.66455,0.30087 1.54434,0.79144 2.44266,0.99985c0.6947,0.16116 1.452,0.11914 2.64301,0.12149c0.91467,0.0018 1.63422,0.03494 2.58368,0.284c0.75632,0.19839 1.5387,0.48618 2.54398,0.63068c0.83472,0.11996 1.80267,0.08533 2.85333,0.08533c0.66934,0 1.43527,-0.03058 2.43335,0.00449c0.80124,0.02814 1.79587,0.28699 2.564,0.57019c0.9473,0.34924 1.97797,0.11911 2.715,0.64682c0.56174,0.40222 1.17233,1.10504 1.88101,1.3425c1.08206,0.36258 1.931,0.43375 2.78165,0.436c1.00134,0.00266 1.73035,-0.00006 2.56735,0c1.19083,0.00009 1.78864,-0.0325 2.655,0.03601c1.07394,0.08493 1.77225,0.35312 2.68866,0.61133c0.95862,0.27008 1.78543,0.27191 2.59467,0.46249c1.05453,0.24835 1.69046,0.76208 2.29102,1.18484c0.87842,0.61835 1.58792,0.33414 1.82831,-0.62802c0.17111,-0.68491 0.42868,-1.48334 0.54935,-2.06934c0.2449,-1.18939 0.27023,-2.11163 0.45099,-2.69733c0.38297,-1.24094 0.88614,-1.79922 1.33301,-2.37915c0.43723,-0.56738 1.1355,-1.59918 1.4375,-2.47919l0.0625,-0.875l0,-0.86215" id="svg_12" stroke-width="2" stroke="#000" fill="none"/>
  <path t="25463,25556,25577,25577,25594,25594,25594,25594,25610,25610,25610,25610,25610,25618,25618,25626,25627,25634,25634,25650,25714,25852,25852,25860,25860,25878,25878,25878,25878,25889,25890,25890,25890,25890,25890,25892,25892,25892,25892,25904,25904,25904,25904,25907,25907,25907,25907,25907,25920,25920,25920,25920,25922,25922,25922,25922,25937,25937,25937,25937,25939,25939,25939,25939,25939,25953,25953,25953,25953,25953,25953,25955,25955,25955,25955,25955,25955,25963,25963,25963,25963,25963,25971,25971,25971,25971,25971,25978,25978,25978,25978,25978,25978,25989,25989,25989,25989,25989,25995,25995,25995,25995,25995,26007,26007,26007,26010,26010,26010,26022,26022,26022,26026,26026,26026,26040,26040,26040,26042,26042,26042,26055,26055,26055,26055,26058,26058,26058,26074,26074,26075,26075,26087,26087,26088,26090,26090,26090,26106,26106,26106,26107,26120,26120,26120,26121,26121,26121,26121,26122,26122,26122,26122,26139,26139,26139,26145,26146,26146,26146,26154,26155,26162,26162,26163,26170,26170,26178,26178,26178,26187,26188,26188,26194,26194,26194,26203,26203,26203,26210,26210,26225,26225,26226,26239,26239,26274,26354,26355,26380,26570,26571,26579,26598,26608,26608,26610,26610,26625,26638,26666,26666,26666,26674,26674,26739,26740,26787,26787" d="m259,304c-2.58932,0 -3.44267,-0.0004 -4.14133,0c-1.19867,0.00067 -1.99226,0.00302 -2.86534,0.03601c-0.45433,0.01715 -1.8289,0.11496 -2.70534,0.24799c-0.83305,0.12643 -1.60313,0.30222 -2.31599,0.43201c-1.19797,0.21811 -1.93018,0.27356 -2.972,0.284c-0.78929,0.0079 -1.83333,0 -2.58934,0c-0.91066,0 -1.8586,-0.11151 -2.73132,0.2215c-0.75647,0.28864 -0.49785,1.08273 0.138,1.41449c1.01622,0.53021 1.73468,1.02979 2.24516,1.36401c0.55249,0.36172 1.5968,0.85718 2.47484,1.116c0.96724,0.28513 1.48528,0.37683 2.50916,0.63666c0.50374,0.12784 1.89925,0.54514 2.68201,0.90002c0.71906,0.32599 1.34253,0.72491 2.2715,1.18066c0.89505,0.43912 1.53693,0.66116 2.21434,0.86215c1.11177,0.32986 1.95172,0.51236 2.83632,0.69385c0.89682,0.18399 1.77933,0.34042 2.616,0.444c1.12119,0.13879 1.81812,0.15234 2.48151,0.27649c1.38882,0.25992 2.10449,0.59549 2.85184,0.89017c0.74734,0.29468 1.82767,0.69241 2.51733,0.83066c0.66348,0.133 1.6947,0.19821 2.81601,0.336c0.83789,0.10297 1.27625,0.18756 2.1875,0.33334c0.93076,0.14893 2.3121,0.33743 2.758,0.37885c0.87228,0.08099 1.74338,0.12912 2.63098,0.23099c0.46033,0.05283 1.9342,0.32727 2.45819,0.45816c1.08557,0.27118 1.63013,0.439 2.72665,0.72668c0.53644,0.14075 2.06149,0.46927 2.53601,0.53732c0.90625,0.13 1.78851,0.18912 2.65198,0.336c1.34729,0.22919 1.80652,0.38699 2.74268,0.70401c0.47745,0.16168 1.42752,0.52423 2.80801,1.12799c0.44714,0.19556 1.30908,0.60266 2.16666,0.95834c0.42297,0.17542 1.27005,0.53424 2.62134,0.79898c0.92386,0.181 1.40494,0.18362 2.35333,0.29333c0.94232,0.10901 1.8678,0.25092 2.73868,0.51868c0.85004,0.26135 1.63943,0.61728 2.39999,0.948c1.06424,0.46277 1.71344,0.75687 2.63998,1.03601c1.0683,0.32184 1.79294,0.4097 2.47202,0.43597c1.19513,0.04626 2,0.01062 2.82199,0.01068c1.03134,0.00009 1.73306,-0.04099 2.63666,0.08533c1.01102,0.14133 1.83295,0.43115 2.4205,0.56201c1.18851,0.26471 1.79471,0.31473 2.6955,0.34198c1.19952,0.03629 1.80209,-0.03455 2.67917,0.05234c0.84128,0.08331 1.85382,0.50186 2.5,0.97919c0.63858,0.47171 1.38306,1.16959 2.22086,1.5325c0.965,0.418 1.84839,0.34171 2.79999,0.78c0.64337,0.29636 1.17151,0.88885 2,1.5c0.58554,0.43195 1.44662,0.85199 2.42218,1.04584c0.8493,0.16876 1.54178,0.2215 2.3205,0.46082c0.9368,0.2879 1.99545,0.79294 2.56799,1.07516c0.59293,0.2923 1.18954,0.60529 2.37866,1.23135c0.57477,0.30264 1.63699,0.86838 2.56799,1.29749c0.78232,0.3606 1.47,0.60892 2.57602,1.056c0.71802,0.29025 1.3847,0.61758 2.33331,1c0.7803,0.31458 1.61078,0.59268 2.14935,0.79999c1.004,0.38644 1.87225,0.80222 2.68399,1.20001c0.79892,0.39151 1.58575,0.79053 2.60449,0.94284c0.62625,0.09363 1.81683,0.05716 2.62085,0.05716c0.82199,0 1.85626,-0.04572 2.54932,0.02133c0.91724,0.08875 1.91132,0.54288 2.45068,0.82935c0.82507,0.43823 1.84158,0.96219 2.53867,1.07733c0.82632,0.13647 1.84451,0.03094 2.69315,0.12915c0.97141,0.1124 1.75552,0.37524 2.53302,0.59018c0.86469,0.23904 1.80716,0.35199 2.64581,0.35266c1.01669,0.00082 1.71133,0.00009 2.73868,0c0.94635,-0.00009 2.01605,0.03806 2.02933,-0.61066c0.0181,-0.88492 -0.63229,-1.70786 -0.90399,-2.38934c-0.38852,-0.97455 -0.47647,-1.79898 -0.5,-2.70001c-0.02145,-0.82159 -0.42252,-1.63916 -1.02084,-2.29999c-0.48062,-0.53082 -1.19098,-1.28638 -1.86316,-1.79868c-0.72885,-0.55548 -1.40616,-0.9585 -2.00616,-1.84949l-0.1925,-0.7825" id="svg_13" stroke-width="2" stroke="#000" fill="none"/>
  <path t="29778,29869,29873,29916,29916,29916,29922,29922,29922,29922,29922,29922,29922,29922,29922,29950,29950,29950,29950,29978,29978,29981,29981,29981,29981,30029,30029,30029,30029,30035,30035,30035,30035,30035,30035,30041,30042,30042,30054,30058,30058,30069,30069,30073,30074,30074,30087,30087,30087,30091,30091,30104,30105,30105,30106,30106,30106,30124,30124,30124,30129,30130,30130,30130,30146,30146,30146,30162,30162,30162,30209,30233,30233,30250,30250,30458,30478,30478,30513,30514,30534,30554,30562,30562,30562,30562,30570,30570,30570,30570,30578,30578,30578,30588,30588,30604,30604,30626,30626,30626,30626,30637,30637,30637,30641,30654,30654,30658,30658,30665,30690,30714,30714,30721,30730,30730,30737,30746,30746,30755,30762,30762,30771,30771,30771,30771,30788,30794,30794,30876,30916,30916" d="m426,280c2.00534,-0.93832 2.79852,-1.14841 3.85815,-0.7775c0.80957,0.28339 1.23331,0.82465 2.3085,1.7775c0.48279,0.42786 1.02118,0.90417 1.60202,1.41599c0.60849,0.53619 1.23141,1.08392 1.854,1.63202c0.60873,0.53592 1.19208,1.04489 2.21066,1.952c0.77142,0.68698 1.37445,1.14297 1.95734,1.87732c0.58215,0.73343 0.98654,1.56171 1.54266,2.12268c0.6366,0.64215 1.4566,1.19394 1.98398,1.60001c0.76852,0.59174 1.48285,1.22763 1.98001,1.70801c0.5621,0.54309 1.5665,1.55582 1.95334,1.94266c0.81467,0.81467 1.22849,1.22849 1.63733,1.63733c0.77466,0.77466 1.73843,1.71387 2.17883,2.18332c0.66193,0.70563 0.91348,1.6189 1.5025,2.41135c0.40033,0.5386 1.26923,1.17374 1.93066,1.51733c0.82825,0.43027 1.52533,1.03705 2.10132,1.60266c0.60324,0.59238 1.18802,1.18668 1.91336,1.91202c0.60132,0.60132 1.22543,1.25079 1.97198,1.96933c0.54599,0.52551 1.17471,1.07486 1.93466,1.49448c0.78058,0.431 1.63818,0.68726 2.65735,1.12186c0.70502,0.30066 1.40396,0.67575 2.3425,1.4425c0.54529,0.4455 1.0755,0.96167 1.569,1.50897c0.8999,0.99799 1.18317,1.50229 1.758,2.34369c0.55707,0.8154 1.03439,1.4313 1.59915,1.89017c0.83853,0.6813 1.70453,1.02161 2.40985,1.36166c0.85071,0.41016 1.90976,0.19806 2.59616,0.79932c0.76743,0.67224 0.63623,1.55319 0.64667,2.53183c0.00873,0.82013 -0.05347,1.82352 -0.87601,2.07419c-0.86508,0.26361 -1.49277,0.31342 -2.556,0.522c-0.77014,0.15109 -1.96667,0.31723 -2.759,0.36816c-0.7666,0.04929 -1.49466,0.0549 -2.76599,0.05716c-0.771,0.00137 -1.43399,0 -2.44168,0c-0.94415,0 -1.86215,0 -2.52548,0c-1.06134,0 -1.79102,0 -2.59668,0c-0.82565,0 -1.97916,0 -2.90317,0c-0.90533,0 -1.82333,0 -2.74265,0c-0.83334,0 -1.81183,0 -2.63202,0c-0.90134,0 -1.72217,0 -2.68533,0c-0.86331,0 -1.75882,0 -2.71732,0c-0.68402,0 -1.62402,0 -2.63202,0c-0.86215,0 -1.68857,0.0426 -2.65332,-0.00266c-0.76233,-0.03577 -1.69824,-0.29492 -2.46152,-0.70718c-0.81165,-0.43839 -1.27686,-0.815 -2.23749,-1.5285c-0.80963,-0.60135 -1.51434,-0.75717 -2.45032,-0.76166l-0.84802,0l-0.86331,0" id="svg_14" stroke-width="2" stroke="#000" fill="none"/>
 </g>
 <g display="none">
  <title>muse_image</title>
  <image xlink:href="http://farm1.static.flickr.com/86/273341574_86ca6a4eac.jpg" id="muse" height="426" width="640" y="27" x="0"/>
 </g>
 <g display="none">
  <title>bbox</title>
  <rect stroke="#f00" fill="none" stroke-width="3" height="148.3964" width="631.04" y="158.76577" x="0" id="bbox"/>
 </g>
</svg>
