<svg width="640" height="480" xmlns="http://www.w3.org/2000/svg" xmlns:svg="http://www.w3.org/2000/svg" xmlns:xlink="http://www.w3.org/1999/xlink">
 <!-- Sketchy ANNOTATION
  ImageNet ID: n02691156_359
  URL: http://farm1.static.flickr.com/203/489765227_0dd28b9dc8.jpg
  Image Width: 500
  Image Height: 342
  BBox X: 59
  BBox Y: 170
  BBox Width: 439
  BBox Height: 124
  Exposure: 2000ms
  Synset Label: airplane
  Synset ID: n02691156
  Worker Tag: airplane
  Sanity Check: 
   Context
   Saved
   Shading
  Comment: 
   {}
  Worker ID: AX7GXFVBO00TE
  Assignment ID: 37UEWGM5HT8TJ4Z5ISQENZWJISM1R5
  HIT ID: 3PKJ68EHDNWL273CMAFOOBVEO8BJHM
  Work Time: 84s
  Worker Score: 0.9286
 END ANNOTATION -->
 <g display="inline">
  <title>Layer 1</title>
  <path t="0,87,95,95,103,103,113,119,119,135,135,143,143,161,161,182,183,193,194,198,198,214,214,230,230,230,246,246,246,262,262,262,271,271,279,279,286,287,295,302,311,311,318,319,327,344,344,350,350,351,360,360,360,366,367,377,377,382,394,394,394,411,411,411,411,414,414,415,426,427,430,430,431,446,446,446,455,455,455,463,463,470,479,479,486,495,495,502,502,521,521,530,530,530,544,544,550,551,566,566,577,577,582,582,594,594,598,610,610,611,628,628,630,630,646,646,661,662,664,671,671,680,680,686,702,711,711,718,719,734,734,734,745,745,761,761,761,766,767,778,778,783,795,795,795,798,799,812,812,814,815,828,828,830,830,831,845,845,861,861,861,863,863,863,870,871,871,880,880,886,887,896,896,902,903,903,912,912,918,919,919,929,929,934,944,945,945,950,951,966,966,978,978,995,995,998,998,1014,1014,1028,1029,1045,1045,1047,1047,1062,1062,1062,1070,1071,1080,1080,1086,1087,1096,1096,1097,1102,1103,1112,1112,1113,1118,1128,1128,1134,1135,1146,1146,1146,1150,1151,1162,1162,1162,1166,1167,1179,1179,1179,1182,1183,1183,1195,1196,1198,1199,1199,1199,1213,1213,1213,1213,1215,1215,1216,1229,1229,1229,1231,1232,1232,1246,1246,1246,1262,1262,1262,1262,1265,1265,1265,1265,1265,1271,1271,1281,1282,1282,1286,1287,1297,1298,1302,1303,1313,1313,1318,1319,1330,1330,1334,1346,1346,1350,1351,1363,1366,1379,1380,1382,1397,1397,1399,1413,1413,1413,1415,1416,1430,1430,1446,1446,1447,1463,1463,1464,1464,1464,1470,1471,1471,1483,1483,1486,1487,1498,1498,1502,1514,1514,1518,1519,1530,1530,1534,1535,1547,1550,1551,1563,1564,1566,1567,1580,1581,1583,1597,1597,1599,1599,1614,1630,1647,1647,1648,1663,1664,1670,1702,1702,1703,1703,1718,1718,1731,1732,1734,1735,1747,1750,1751,1766,1766,1780,1781,1781,1798,1799,1799,1814,1815,1815,1815,1831,1832,1832,1847,1848,1848,1848,1864,1865,1865,1871,1871,1871,1883,1884,1886,1887,1899,1899,1914,1915,1915,1915,1931,1932,1932,1934,1935,1935,1948,1949,1951,1966,1967,1967,1982,1982,1983,1998,1998,2015,2031,2032,2048,2049,2049,2065,2082,2082,2087,2100,2100,2118,2131,2132,2148,2174,2175,2183,2198,2199,2215,2215,2215,2232,2232,2233,2233,2248,2248,2249,2255,2255,2270,2271,2271,2284,2286,2287,2302,2302,2318,2342,2398,2399,2430,2454,2486,2487,2510,2511,2542,2565,2582,2583,2599,2662,2663,2682,2702,2726,2726,2749,2749,2774,2799,2800,2816,2832,2854,2862,2883,2883,2886,2887,2910,2918,2982,2983,3006,3046,3047,3126,3334" d="m143,294c2.364,1.39999 3.01297,2.22729 3.75717,2.64282c0.82584,0.46112 1.66289,0.2478 2.48566,0.71436c0.864,0.48993 1.31764,1.28534 1.95851,1.84149c0.64711,0.56155 1.64308,0.72794 2.39999,0.88535c1.00941,0.2099 1.57945,0.50031 2.51466,1.11465c0.64882,0.42621 1.54665,0.71521 2.2885,0.854c1.00362,0.18777 1.78273,0.52124 2.57434,1.04733c0.70464,0.46829 1.55917,1.01181 2.2825,1.29999c0.78548,0.31293 1.57498,0.59305 2.51334,1c0.68019,0.29498 1.64169,0.71335 2.43999,0.98935c0.7711,0.2666 1.68761,0.35757 2.53351,0.72049c0.79659,0.34177 1.354,1.14966 2.23033,1.64734c0.67285,0.38211 1.44405,0.92841 2.3215,1.18567c0.86674,0.25412 1.59436,0.1185 2.52533,0.48248c0.69791,0.27286 1.68756,0.5314 2.49634,0.79602c0.73376,0.24008 1.84242,0.63144 2.631,0.72598c0.81982,0.0983 1.89639,0.16855 2.58566,0.40985c0.82315,0.28818 1.52141,0.93567 2.21434,1.28564c0.84808,0.42834 1.76897,0.42719 2.63266,0.7825c0.95447,0.39264 1.62994,0.51273 2.436,0.60001c1.18021,0.12778 1.77924,0.25632 2.67867,0.47467c0.60039,0.14575 1.79909,0.38412 2.67867,0.47467c0.8065,0.08301 1.83821,0.34399 2.472,0.60001c0.87398,0.35303 1.87816,0.40732 2.40117,0.53516c1.04854,0.25632 1.69458,0.78732 2.40083,1.18484c0.9353,0.52643 1.76912,0.60184 2.53751,0.75348c1.21033,0.23883 1.79865,0.69199 2.64583,0.97717c0.84024,0.28284 1.6813,0.73688 2.60683,0.91751c0.84335,0.16458 1.64586,0.13324 2.59317,0.48248c0.76813,0.2832 1.77661,0.47186 2.364,0.63602c1.03065,0.28802 1.60332,0.78485 2.31467,1.45599c0.74768,0.70541 1.35397,1.25464 2.1425,1.42999c0.93126,0.20709 1.7363,0.35074 2.50684,0.62735c1.0809,0.38803 1.8056,0.40497 2.84134,0.42981c0.74445,0.01785 1.67632,0.1286 2.45299,0.49551c0.86903,0.41052 1.88019,0.6492 2.54701,0.85718c0.75034,0.23401 1.6581,0.64819 2.45299,1.12198c0.74136,0.44186 1.51735,0.5863 2.54701,0.8735c0.74786,0.20859 1.65266,0.54004 2.45299,0.6265c0.94734,0.10236 1.86018,0.24918 2.54167,0.52084c0.97456,0.38852 1.82982,0.31503 2.7,0.55716c0.77107,0.21457 1.61635,0.8642 2.3,0.922c0.97559,0.08246 1.81844,0.04446 2.76933,0.30618c0.75929,0.20898 1.55696,0.49426 2.54533,0.91467c0.67091,0.28537 1.67841,0.81448 2.28534,1.09549c0.79141,0.36642 1.80692,0.57336 2.564,0.72983c0.96484,0.1994 1.60428,0.82013 2.508,0.96399c0.86008,0.13693 1.59351,-0.02563 2.37982,0.06784c1.27277,0.15131 1.89465,0.47644 2.92685,0.82169c0.76602,0.2562 1.49557,0.70093 2.19598,1.27048c0.64984,0.52841 1.49173,0.845 2.36819,1.07202c0.72302,0.18729 1.49982,0.47122 2.53564,0.65732c0.89447,0.16071 1.92477,0.27768 2.526,0.474c0.85757,0.28003 1.81573,0.53574 2.62085,0.62201c0.82098,0.08795 1.85822,0.23074 2.75381,0.52533c0.62323,0.20499 1.62695,0.40829 2.42084,0.55267c1.00888,0.1835 1.78723,0.52127 2.57883,1.04733c0.70465,0.46829 1.56125,1.0062 2.27185,1.29999c0.74133,0.30649 1.56616,0.77728 2.39999,1.164c0.85809,0.39798 1.60742,0.358 2.34399,0.48868c1.20932,0.21457 1.77234,0.79279 2.67734,0.93665c0.86011,0.13675 1.854,-0.01508 2.64532,0.09601c1.00601,0.14124 1.67737,0.37445 2.51602,0.91467c0.70056,0.45126 1.46606,1.142 2.16666,1.47916c0.95245,0.45837 1.75333,0.48904 2.65717,0.52533c0.7486,0.03006 1.73883,0.28668 2.50684,0.57019c0.94876,0.35022 1.72571,0.49347 2.49316,0.77798c0.75327,0.27924 1.7597,0.49084 2.54285,0.70868c1.03098,0.2868 1.60242,0.78558 2.14282,1.2905c0.79294,0.74088 1.38467,1.37329 2.31433,1.59549c0.73407,0.17545 1.75412,0.31149 2.54285,0.66333c0.81253,0.36243 1.57742,0.84091 2.39999,1.104c0.97888,0.31308 1.84271,0.30692 2.59982,0.728c0.83731,0.4657 1.25995,1.09695 2.17484,1.496c0.90558,0.39499 1.58847,0.67572 2.60416,0.93985c0.81219,0.21124 1.79135,0.10223 2.54202,0.14233c0.79794,0.04263 1.80963,0.22476 2.66849,0.58981c0.82767,0.35181 1.59528,0.81876 2.21066,1.03217c0.97974,0.33978 1.85403,0.29938 2.80002,0.80002c0.64655,0.34216 1.16812,0.95193 2,1.53564c0.77255,0.54205 1.39108,0.83853 2.409,1.3215c0.65747,0.31195 1.72305,0.7041 2.36032,0.90134c0.69067,0.21378 1.79819,0.5166 2.86401,0.96533c0.69107,0.29095 1.31354,0.66022 1.91998,0.97202c1.06912,0.54971 1.79346,0.7316 2.64218,0.90948c1.01242,0.21222 1.63431,0.49683 2.37515,0.66785c1.18155,0.27274 1.87296,0.22162 2.86685,0.33667c1.10419,0.12784 1.68176,0.41919 2.49982,0.74866c0.83447,0.33606 1.58734,0.50119 2.42517,0.71951c0.8989,0.23422 2.27341,0.63864 2.71552,0.80032c0.85648,0.3132 1.63608,0.66388 2.34598,0.96899c1.10794,0.47623 1.86246,0.659 2.91867,0.93118c0.7135,0.18387 1.44376,0.46005 2.48801,0.69464c0.71265,0.1601 1.61105,0.47931 2.37384,0.73135c0.97751,0.323 1.76117,0.29617 2.71149,0.354c0.77115,0.04694 1.70169,0.47769 2.48532,0.71466c0.97607,0.29517 1.74704,0.18695 2.77335,0.29468c0.8028,0.08426 1.65463,0.46246 2.45868,0.98932c0.67261,0.44073 1.47287,0.88055 2.36667,1.00134c0.80954,0.10941 1.45364,0.79941 2.32083,0.97781c0.94363,0.19412 1.65808,-0.07043 2.7265,0.02533c0.92978,0.08334 1.57034,0.47455 2.35397,0.71152c0.97607,0.29517 1.74353,0.22772 2.79468,0.29468c0.66153,0.04214 1.65894,0.27829 2.31201,0.41464c1.10376,0.23044 2.29126,0.41525 3.08932,0.492c0.7807,0.07507 1.5423,0.08524 2.23199,0.25201c1.22949,0.29733 1.70117,0.68863 2.36166,1.1825c1.01154,0.75638 1.54388,1.23331 2.58768,1.52667c0.75357,0.21179 1.69409,0.00476 2.53732,0.20682c0.8981,0.21521 1.642,0.81168 2.48401,0.89383c0.97427,0.09506 1.7533,-0.00873 2.65717,0.02533c0.74866,0.0282 1.73871,0.28699 2.50684,0.57019c0.9473,0.34924 1.8783,0.26517 2.59317,0.53964c1.00165,0.38458 1.32315,1.18588 2.2215,1.64267c0.72076,0.36649 1.69409,0.12628 2.53732,0.32834c0.8981,0.21521 1.642,0.81168 2.48401,0.89383c0.97409,0.09503 1.83041,-0.16592 2.70001,0.078c0.78448,0.22003 1.62369,0.96585 2.30533,1.23834c0.73444,0.29361 1.84705,0.61893 2.57333,0.69382c0.98001,0.10104 1.92438,0.33698 2.47333,0.57867c0.95346,0.41983 1.56262,0.7977 2.68365,1.189c0.70831,0.24722 1.59448,0.15143 2.439,0.27902c0.96124,0.14523 1.59253,0.80847 2.46133,0.95331c1.00739,0.16794 1.78455,0.00638 2.76401,0.29468c0.81656,0.24036 1.59683,0.56894 2.41068,0.69067c0.87177,0.1304 1.88327,0.28528 2.71017,0.56699c0.59042,0.20114 1.78,0.77798 2.37915,1.10651c0.60086,0.32947 1.47818,0.8504 2.39999,1.10901c0.884,0.24799 1.50742,0.20746 2.70001,0.40948c0.90268,0.15292 1.48694,0.33197 2.31467,0.63467c1.01291,0.37042 1.69171,0.73007 2.45468,0.91333c1.18057,0.28354 1.87311,0.23343 2.86816,0.33801c0.86523,0.09094 1.77139,0.50458 2.56381,0.86465c0.66367,0.30157 1.44431,0.81293 2.04535,1.26801c0.89716,0.67929 1.70486,1.07135 2.27417,1.29382c0.87244,0.34094 1.78091,0.6152 2.66849,0.92084c0.85541,0.29459 1.8866,0.70599 2.57468,0.98935c0.62921,0.25912 1.63242,0.55865 2.57883,0.60617c0.90347,0.04535 1.82996,0.3299 2.31882,0.71432c0.59262,0.466 1.48593,1.16263 2.28653,1.5285c0.77396,0.3537 1.74451,0.49774 2.63049,0.78699c0.7569,0.24713 1.58603,0.81833 2.44217,0.97467c0.97708,0.17844 1.55832,0.39703 2.49384,0.716c0.84714,0.28882 1.80664,0.284 2.65997,0.284c0.94,0 1.86459,-0.17645 2.62534,0.08533c0.77957,0.26825 1.31845,1.2272 2,1.62933c0.76813,0.45319 1.66998,0.60464 2.54733,0.93268c0.8873,0.33176 1.8223,0.30002 2.67349,0.3735c0.98633,0.08514 1.58478,0.34543 2.49353,0.68365c0.81598,0.30368 1.78857,0.60043 2.48566,0.77466c0.69238,0.17307 1.95465,0.42365 2.72803,0.48483c0.66162,0.05237 1.68848,-0.06781 2.47198,0.108c1.04047,0.23346 1.54712,0.83563 2.31464,1.36002c0.81976,0.56009 1.81555,0.47641 2.66003,0.604c0.96124,0.14523 1.4751,0.77399 2.42529,0.95331c0.90491,0.17078 1.88403,0.01068 2.57471,0.01068c1.06818,0 1.92529,0 2.82532,0c0.75714,0 1.65265,0 2.51599,0c0.9632,0 1.92151,-0.08124 2.68536,0.284c0.7298,0.34897 1.66199,0.54788 2.63196,0.88266c0.68707,0.23712 1.46533,0.80475 2.36804,0.83334c0.96484,0.03055 1.67114,-0.17566 2.63196,0.16666c0.82593,0.29425 1.26428,1.18866 2.16669,1.66669c0.64825,0.34338 1.42236,0.85284 2.29999,1.1095c0.8656,0.25311 1.79999,0.05716 2.70001,0.05716c0.75714,0 1.65265,0 2.51599,0c0.9632,0 1.92151,-0.08124 2.68536,0.284c0.7298,0.34897 1.62396,0.67999 2.63196,0.716l0.75604,0l0.91064,0l0.91064,0" id="svg_1" stroke-width="2" stroke="#000" fill="none"/>
  <path t="13808,13974,13974,13998,13998,14023,14023,14031,14031,14046,14060,14070,14070,14079,14079,14094,14126,14126,14182,14194,14194,14211,14211,14230,14286,14334,14334,14350,14366,14454,14454,15006,15046,15046,15078,15086,15086,15182,15182,15246,15286,15286,15326,15350,15350,15406,15438,15438,15462,15462,15494,15542,15542,15542,15598,15598,15611,15734,15790,15790,15862,15862,15862,15878,16374,16374,16438,16510,16558,16558,16578,16598,16598,16686,16686,16696,16696,16702,16742,16774,16814,16814" d="m567,426c2.00531,0.35718 2.78381,0.53772 3.66669,1c0.82947,0.43433 1.34625,1.22729 2.09045,1.64282c0.82587,0.46112 1.63,0.31027 2.48572,0.70984c0.91119,0.42545 1.72144,0.87585 2.39313,1.22202c0.81213,0.41855 1.71875,0.31461 2.60687,0.42981c0.87683,0.11374 1.38147,0.78839 2.16779,1.38486c0.69855,0.52988 1.58917,0.60022 2.56787,0.61066c0.82007,0.00873 1.7215,0 2.65747,0c0.84802,0 1.71136,0 2.60687,0c0.95715,0 1.8573,0.00446 2.64246,0c0.94006,-0.00534 2.05542,-0.02264 2.573,-0.52084c0.66382,-0.63895 0.6153,-1.65091 0.52087,-2.47916c-0.11316,-0.99237 -0.87598,-1.64099 -0.9375,-2.52084c-0.05719,-0.81839 0.65332,-1.61865 0.87299,-2.59381c0.1955,-0.86771 0.09875,-1.73557 0.60614,-2.38535c0.60083,-0.7695 1.23541,-1.22223 1.77466,-2.15268c0.3894,-0.67197 0.5379,-1.65332 1.03784,-2.51398c0.30878,-0.53162 1.03052,-1.16898 1.64502,-1.81183c0.6734,-0.70444 0.89771,-1.58932 1.37885,-2.3215c0.52191,-0.79425 1.16632,-1.2182 1.80951,-1.86667c0.6507,-0.65601 1.2262,-1.11981 1.72345,-2.07617c0.42395,-0.81531 1.13171,-1.52551 1.06317,-2.35718c-0.07312,-0.88666 -1.05328,-1.5 -1.65332,-2.10001c-0.59998,-0.59998 -1.27051,-1.33267 -1.8208,-1.79999c-0.76251,-0.64749 -1.43811,-1.10019 -2.4577,-1.37851c-0.79962,-0.21826 -1.62146,-0.1575 -2.42151,-0.54681l-0.79999,-0.49066l-0.90015,-0.30569l-0.53583,-0.42499" id="svg_3" stroke-width="2" stroke="#000" fill="none"/>
  <path t="24944,25111,25126,25155,25156,25174,25198,25210,25210,25227,25230,25230,25254,25254,25262,25278,25302,25302,25310,25342,25366,25366,25382,25382,25414,25427,25470,25470,25494,25494,25511,25511,25527,25582,25582,25630,25630,25630,25630,25678,25702,25702,25718,25718,25728,25766,25790,25790,25838,25870,25870,25879,25902,25918,25942,25942,25982,25982,26054,26054,26054,26182,26182,26182,26214,26214,26502" d="m599,402c-0.99548,-1.70001 -1.01184,-2.65146 -0.716,-3.48401c0.25092,-0.70605 0.58331,-1.63589 0.71619,-2.616c0.12299,-0.90698 0.74677,-1.43793 0.96381,-2.31067c0.21991,-0.88443 -0.06805,-1.81262 0.32001,-2.70398c0.32294,-0.74176 0.63202,-1.5517 1.15198,-2.28534c0.55786,-0.78711 1.20874,-1.29916 1.56403,-2.10001c0.35455,-0.79916 0.84253,-1.6105 1.08398,-2.38535c0.29749,-0.9548 0.74554,-1.60663 0.8952,-2.59381c0.13812,-0.91098 0.28717,-1.74017 0.78247,-2.27802c0.69354,-0.75311 1.34906,-1.14987 1.90503,-2.07617c0.4209,-0.7012 0.29529,-1.70459 0.55481,-2.48831c0.24512,-0.7402 0.78094,-1.84406 0.97852,-2.36102c0.30377,-0.79504 0.55048,-1.57532 1.09546,-2.50299c0.49432,-0.84146 0.70227,-1.5715 0.70453,-2.46701c0.0022,-0.86331 -0.11841,-1.8985 0.35718,-2.64731c0.50958,-0.80225 1.28864,-1.25726 1.93829,-2c0.58118,-0.66446 0.51715,-1.53189 0.76172,-2.40002c0.21442,-0.76126 0.80133,-1.5181 1.1095,-2.46664c0.21869,-0.67303 0.60089,-1.68878 0.85413,-2.33334c0.33771,-0.85974 1.03137,-1.51868 1.49652,-2.18668c0.49554,-0.71164 0.836,-1.52798 1.12097,-2.3035l0.27771,-1.03915l0.16797,-0.76801l0.43683,-0.74432" id="svg_5" stroke-width="2" stroke="#000" fill="none"/>
  <path t="28072,28366,28387,28406,28406,28470,28470,28494,28518,28518,28534,28598,28598,28622,28630,28630,28643,28643,28670,28678,28702,28702,28726,28743,28761,28790,28814,28814,29102,29102,29134,29150,29160,29161,29177,29177,29194,29210,29214,29214,29238,29286,29286,29286,29310,29310,29318,29334,29430,29430,29534,29534,29534,29534,29543,29544,29574,29574,29638,29678,29679,29687,29687,29718,29719,29728,29745,29745,29766,29766,29782,29798,29814,29814,29830,29863,29863,29934,30007,30007,30143,30190,30222,30223,30246,30246,30310,30311,30414,30415,30574,30575,30686,30734,30766,30828,30828,30870,30871,30926,31046,31070,31070,31102,31103,31118,31118,31128,31129,31135,31145,31166,31179,31183,31183,31198,31222,31231,31245,31245,31262,31294,31295,31295,31334,31335,31345,31345,31366,31367,31379,31395,31412,31412,31415,31430,31462,31463,31486,31487,31502,31526,31527,31535,31558,31559,31590,31591,31591,31614,31614,31630,31646,31662,31662,31679,31687,31702,31702,31712,31729,31729,31758,31759,31779,31779,31796,31796,31817,31838,31839,31847,31847,31847,31882,31887,31918,31919,31929,31929,31934,31958,31979,31979,31996,31999,31999,32022,32031,32046,32063,32063,32079,32079,32087,32097,32103,32103,32114,32119,32119,32142,32142,32151,32151,32166,32198,32199,32199,32213,32213,32216,32229,32229,32247,32247,32263,32263,32265,32265,32280,32287,32287,32287,32298,32298,32302,32313,32314,32319,32319,32330,32330,32335,32335,32335,32346,32347,32351,32351,32363,32363,32367,32367,32380,32382,32383,32398,32413,32413,32431,32446,32447,32455,32466,32466,32471,32471,32486,32502,32513,32514,32518,32529,32530,32534,32546,32566,32566,32580,32580,32582,32606,32606,32614,32630,32630,32647,32647,32663,32663,32671,32671,32686,32686,32697,32713,32718,32719,32734,32747,32747,32764,32780,32780,32797,32797,32799,32813,32813,32831,32831,32847,32863,32863,32870,32871,32882,32886,32897,32902,32902,32914,32918,32934,32947,32948,32950,32950,32974,32974,32982,32982,32997,32997,33014,33014,33030,33047,33047,33048,33063,33064,33086,33086,33102,33102,33115,33118,33134,33158,33158,33180,33180,33198,33222,33230,33231,33247,33247,33265,33265,33270,33271,33271,33294,33294,33313,33331,33332,33350,33350,33350,33364,33367,33380,33381,33383,33398,33400,33414,33414,33414,33431,33431,33447,33447,33464,33464,33470,33471,33482,33487,33502,33502,33515,33531,33534,33548,33548,33564,33567,33567,33582,33597,33600,33615,33632,33632,33632,33662,33662,33663,33663,33682,33682,33710,33710,33711,33732,33749,33766,33766,33782,33782,33799,33815,33815,33833,33833,33848,33849,33870,33871,33886,33886,33902,33915,33916,33932,33933,33935,33935,33950,33966,33982,33983,33999,33999,34016,34016,34032,34032,34049,34049,34065,34066,34082,34083,34086,34100,34102,34118,34118,34134,34134,34149,34167,34182,34183,34183,34183,34206,34206,34207,34214,34215,34215,34232,34249,34250,34266,34266,34270,34271,34285,34300,34300,34302,34303,34342,34342,34350,34366,34366,34383,34400,34400,34418,34418,34433,34433,34434,34450,34454,34455,34469,34470,34484,34487,34502,34502,34517,34519,34519,34535,34550,34550,34551,34567,34583,34600,34601,34616,34617,34634,34634,34650,34654,34655,34655,34670,34670,34672,34687,34718,34718,34719,34733,34734,34736,34751,34752,34767,34767,34784,34784,34800,34800,34801,34826,34830,34831,34850,34851,34867,34867,34870,34871,34886,34901,34902,34904,34919,34935,34936,34966,34966,34983,34984,35001,35001,35017,35017,35034,35034,35051,35052,35054,35071,35087,35103,35103,35119,35119,35135,35151,35167,35168,35184,35184,35200,35201,35218,35235,35251,35251,35270,35271,35286,35287,35310,35319,35319,35335,35351,35351,35368,35368,35384,35401,35401,35418,35418,35419,35435,35452,35452,35455,35478,35502,35502,35526,35526,35551,35551,35567,35584,35585,35601,35602,35622,35651,35654,35655,35671,35687,35718,35718,35750,35750,35768,35785,35842,35854,35855,35878,35878,35901,35918,35950,35951,35990,36018,36035,36035,36062,36062,36086,36166,36166,36190,36190,36238,36239,36326,36422,36451,36451,36468,36582,36583,36646,36734,36734,36735,36950,36982,36983,37166,37198,37199,37230,37254,37255,37278,37302,37319,37320,37337,37354,37354,37372,37388,37422,37422,37452,37455,37455,37478,37502,37534,37535,37558,37566,37585,37585,37654,37702,37726,37726,37758,37785,37806,37838,37839,37870,37871,37871,37887,37888,37905,37905,37922,37939,37939,37958,37958,37959,37986,37986,38006,38006,38007,38007,38036,38036,38062,38062,38086,38118,38118,38137,38137,38158,38186,38186,38203,38204,38246,38247,38270,38271,38271,38302,38302,38326,38326,38352,38370,38398,38399,38419,38436,38453,38454,38454,38471,38472,38489,38510,38511,38535,38536,38553,38554,38554,38571,38572,38590,38590,38608,38608,38626,38654,38655,38686,38686,38742,38743,38743,38790,38819,38820,38846,38847,38878,38879,38958,38967,38967,39014,39062,39102,39121,39138,39139,39157,39157,39182,39183,39215,39215,39236,39255,39310,39311,39311,39337,39355,39355,39382,39382,39404,39446,39447,39470,39471,39502,39526,39527,39558,39559,39590,39619,39654,39655,39678,39686,39704,39705,39723,39741,39743,39744,39744,39766,39767,39767,39790,39791,39820,39821,39846,39846,39847,39871,39872,39895,39895" d="m621,333c-0.03601,-2.58932 -0.3537,-3.53564 -1.20135,-3.91599c-0.64258,-0.28833 -1.60565,-0.55731 -2.31464,-0.80002c-0.96368,-0.32993 -1.96802,-0.28253 -2.65869,-0.284c-1.06818,-0.00226 -1.87982,-0.29404 -2.52533,-0.64734c-0.77661,-0.42505 -1.7984,-0.2431 -2.64734,-0.40982c-0.9267,-0.18201 -1.37555,-0.83255 -2.15265,-1.422c-0.73853,-0.56015 -1.63837,-0.90692 -2.29999,-1.23685c-0.84338,-0.42056 -1.81897,-0.11966 -2.70001,-0.30484c-0.85162,-0.17902 -1.6651,-0.82013 -2.32532,-0.95383c-1.00568,-0.20364 -1.70197,-0.77228 -2.57471,-0.98932c-0.87842,-0.21848 -1.76666,-0.03601 -2.59998,-0.03601c-0.97852,0 -1.79865,0 -2.70001,0c-0.8208,0 -1.784,-0.00217 -2.64734,0c-0.89996,0.00226 -1.8186,0.16861 -2.48865,0.42532c-0.76447,0.29291 -1.75861,0.53482 -2.67865,0.57333c-0.96393,0.04034 -1.78015,0.3642 -2.48535,1.00134c-0.55841,0.50455 -1.49451,1.01602 -2.052,1.19867c-0.93951,0.30777 -1.58496,0.46884 -2.68365,0.67999c-0.86481,0.1662 -1.74127,0.42273 -2.43903,0.69601c-0.93115,0.36475 -1.82483,0.59265 -2.4613,1.03598c-0.84741,0.59024 -1.57275,0.93839 -2.34253,1.48935c-0.64191,0.45944 -1.23383,1.33469 -2.02148,1.73334c-0.70331,0.35599 -1.64014,0.55075 -2.34735,0.814c-1.00098,0.37259 -1.77997,0.76154 -2.65265,1.186c-0.65967,0.32086 -1.50513,0.68222 -2.20001,1.36667c-0.50378,0.49622 -1.1828,1.21762 -1.89996,1.89981c-0.58636,0.55777 -1.41779,0.86218 -2.20453,1.25284c-0.88416,0.439 -1.52216,0.58365 -2.52881,0.64734c-0.7937,0.0502 -1.66302,0.5556 -2.16669,1.02084c-0.85492,0.78973 -1.35425,1.35306 -2,1.97916c-0.59119,0.57321 -1.49982,0.98956 -2.40002,1c-0.90442,0.01047 -1.76666,0 -2.59998,0c-0.97852,0 -1.79865,0 -2.70001,0c-0.8208,0 -1.78943,0.04843 -2.51068,-0.03601c-0.99957,-0.11703 -1.80615,-0.42319 -2.62262,-0.96399c-0.68097,-0.45105 -1.28015,-1.32111 -1.96667,-1.71466c-0.73383,-0.42065 -1.7334,-0.23886 -2.60004,-0.71066c-0.73242,-0.39874 -1.56665,-0.79529 -2.19995,-1.14935c-0.86127,-0.48154 -1.80823,-0.30875 -2.70001,-0.42981c-0.82135,-0.11151 -1.36493,-0.73782 -2.11066,-1.39551c-0.72388,-0.63843 -1.42169,-1.00714 -2.19067,-1.39999c-0.79498,-0.4061 -1.57788,-0.84006 -2.59851,-1.07867c-0.76801,-0.17957 -1.76733,-0.36304 -2.38953,-0.69601c-0.797,-0.42654 -1.71753,-0.77509 -2.41064,-1.42532c-0.50507,-0.47382 -1.30853,-0.86444 -2.20001,-1.00134c-0.91595,-0.14066 -1.53094,-0.74405 -2.284,-1.19733c-0.6694,-0.40292 -1.69376,-0.55493 -2.51599,-0.96799c-0.78885,-0.39627 -1.28613,-1.14746 -2,-1.83334c-0.53156,-0.51071 -1.32785,-1.01282 -2.25067,-1.39999c-0.73975,-0.31036 -1.58234,-0.73941 -2.328,-1.164c-0.79797,-0.45438 -1.53314,-0.87836 -2.42133,-1.26935c-0.65765,-0.28952 -1.66757,-0.08929 -2.39999,-0.60266c-0.7901,-0.55377 -1.25656,-1.31125 -1.89999,-1.8595c-0.75363,-0.64218 -1.59918,-0.75223 -2.35718,-1.06168c-0.76297,-0.31149 -1.73206,-0.86197 -2.32199,-1.12198c-0.98474,-0.43405 -1.85587,-0.33807 -2.65683,-0.59283c-0.93729,-0.29813 -1.30511,-1.06369 -2.36401,-1.59467c-0.74631,-0.37424 -1.54221,-0.35446 -2.36401,-0.75867c-0.86984,-0.42783 -1.68704,-0.88354 -2.39316,-1.22202c-0.85037,-0.40762 -1.60391,-0.19589 -2.60684,-0.36334c-0.86752,-0.14487 -1.66516,-0.74518 -2.336,-1.04199c-0.84766,-0.37503 -1.41342,-1.26843 -2.09998,-1.66199c-0.73383,-0.42065 -1.72086,-0.25955 -2.50452,-0.638c-0.88889,-0.42926 -1.7294,-0.52567 -2.52884,-0.814c-0.80811,-0.29147 -1.57919,-0.68271 -2.46664,-0.83783c-0.92834,-0.16226 -1.49414,-0.72784 -2.336,-1.02084c-1.01004,-0.35156 -1.73523,-0.64392 -2.48001,-1.17468c-0.65924,-0.46982 -1.33737,-1.06412 -2.23132,-1.44281c-0.87488,-0.37061 -1.8186,-0.52576 -2.48868,-0.7825c-0.76447,-0.29291 -1.77213,-0.45462 -2.50684,-0.62735c-0.92349,-0.2171 -1.79071,-0.74716 -2.41434,-1.05716c-0.96637,-0.48035 -1.39301,-1.14636 -2.24283,-1.55682c-0.74872,-0.36163 -1.86224,-0.16187 -2.6955,-0.3905c-0.78485,-0.21536 -1.6329,-0.81271 -2.30984,-0.88568c-0.98502,-0.10617 -1.89148,0.14139 -2.79199,-0.14249c-0.79535,-0.25073 -1.52664,-0.77905 -2.41333,-0.94c-0.99219,-0.18008 -1.74124,-0.55539 -2.62268,-0.80801c-0.80997,-0.23215 -1.7099,-0.15097 -2.42798,-0.17734c-0.79132,-0.02905 -1.84619,-0.13586 -2.69702,-0.51016c-0.91315,-0.4017 -1.49359,-1.07791 -2.36298,-1.35782c-0.82419,-0.26535 -1.74518,-0.49316 -2.47736,-0.83734c-0.79712,-0.37469 -1.69937,-0.17636 -2.54865,-0.34116c-0.92575,-0.17963 -1.64291,-0.83365 -2.45267,-0.9415c-0.95056,-0.12662 -1.84113,-0.3829 -2.54733,-0.64868c-0.88257,-0.33215 -1.86856,-0.27441 -2.53802,-0.43799c-0.97461,-0.2381 -1.62491,-0.72437 -2.47867,-1.30402c-0.73114,-0.4964 -1.67081,-0.44739 -2.43597,-0.69598c-0.79092,-0.25696 -1.68121,-0.86316 -2.37466,-0.90399c-1.06638,-0.06281 -1.97424,0.15933 -2.82535,-0.17734c-0.70264,-0.27795 -1.48138,-0.78406 -2.34732,-0.82886c-0.89435,-0.04626 -1.79352,-0.38565 -2.45267,-0.72049c-0.78418,-0.39835 -1.86353,-0.23068 -2.60452,-0.34116c-1.00888,-0.15039 -1.78958,-0.50659 -2.57416,-1.04285c-0.67487,-0.46124 -1.32077,-1.04196 -2.02133,-1.37915c-0.95227,-0.45834 -1.79868,-0.52017 -2.70001,-0.52084c-0.93597,-0.0007 -1.79803,0.10764 -2.64731,-0.05716c-0.92575,-0.17963 -1.64206,-0.8403 -2.45267,-0.9415c-0.83038,-0.10367 -1.67389,-0.31573 -2.41068,-0.57602c-0.97568,-0.34467 -1.7742,-0.31094 -2.90399,-0.42667c-0.89597,-0.09177 -1.43723,-0.66257 -2.18985,-1.29416c-0.54868,-0.46045 -1.52036,-0.68649 -2.52884,-0.7045c-0.79187,-0.01413 -1.65067,0 -2.51398,0c-0.89551,0 -1.85648,0.08212 -2.75269,-0.00015c-0.91144,-0.08368 -1.43765,-0.76102 -2.39999,-0.979c-0.87799,-0.19888 -1.79999,-0.02084 -2.70132,-0.02084c-0.68402,0 -1.64337,0.05188 -2.39999,-0.08533c-1.01727,-0.18448 -1.78009,-0.64487 -2.79736,-0.82935c-0.75662,-0.13721 -1.7327,0.00378 -2.48532,-0.17065c-0.97501,-0.22598 -1.62228,-0.6676 -2.63684,-0.91467c-0.80588,-0.19626 -1.7417,-0.40512 -2.47382,-0.7045c-0.87811,-0.3591 -1.54938,-0.93375 -2.20667,-1.49417c-0.65201,-0.55591 -1.62338,-0.78223 -2.31467,-0.79999c-1.07297,-0.02759 -1.99045,0.09659 -2.89468,-0.01202c-0.92801,-0.11145 -1.55542,-0.59262 -2.56781,-0.86783c-0.70105,-0.19058 -1.62427,-0.15182 -2.43219,-0.54681c-0.91382,-0.44678 -1.59253,-0.49295 -2.56799,-0.57501c-0.77957,-0.06558 -1.47974,-0.60294 -2.23199,-1.14899c-0.76376,-0.55441 -1.59631,-0.75479 -2.38934,-0.93335c-1.00626,-0.22656 -1.71271,-0.68146 -2.64734,-0.86017c-0.90469,-0.173 -1.78928,0.00403 -2.75266,-0.22382c-0.80835,-0.19119 -1.53336,-0.49228 -2.47916,-0.83334c-0.84042,-0.30304 -1.50824,-0.91498 -2.32083,-0.99866c-0.89529,-0.09222 -1.82883,0.1893 -2.72086,-0.043c-0.86655,-0.22568 -1.45828,-1.02094 -2.08047,-1.39035c-0.94125,-0.55887 -1.77524,-0.53003 -2.64603,-0.92065c-0.66882,-0.30002 -1.58807,-0.62814 -2.35397,-0.646c-0.9939,-0.02316 -1.92725,0.14124 -2.7627,-0.01202c-0.98013,-0.17981 -1.62338,-0.9043 -2.43597,-0.98798c-0.89529,-0.09222 -1.80002,-0.00134 -2.72086,-0.00134c-0.96317,0 -1.66226,0.12973 -2.72198,-0.00449c-0.87717,-0.11111 -1.41129,-0.80536 -2.35718,-0.98483c-0.88428,-0.16779 -1.79999,-0.01068 -2.7045,-0.01068c-0.86215,0 -1.76727,0.00171 -2.4675,-0.17065c-0.88556,-0.21799 -1.5303,-0.53137 -2.54132,-0.97867c-0.63425,-0.28061 -1.63223,-0.68567 -2.48752,-0.89883c-0.96594,-0.24075 -1.69257,-0.47552 -2.43115,-0.66785c-1.08746,-0.28317 -1.96933,-0.284 -2.93466,-0.284c-0.83334,0 -1.83987,0.14938 -2.52884,-0.05716c-0.87967,-0.2637 -1.61716,-0.87357 -2.27518,-1.02686c-1.04111,-0.24252 -1.7738,-0.50851 -2.69598,-0.74933c-0.94339,-0.24637 -1.65112,-0.61368 -2.33334,-1.16666c-0.82907,-0.672 -1.48703,-0.87889 -2.41068,-1.01067c-0.92551,-0.13203 -1.58615,-0.57068 -2.58932,-0.82266c-0.77597,-0.19492 -1.85559,-0.01714 -2.58932,-0.20267c-0.87189,-0.22046 -1.60956,-0.91347 -2.57733,-0.964c-0.65787,-0.03436 -1.65616,-0.18861 -2.33334,-0.5c-0.97125,-0.44661 -1.71078,-0.48164 -2.69983,-0.50017c-0.77945,-0.0146 -1.8205,-0.16237 -2.3895,-0.6105c-0.78033,-0.61459 -1.26736,-1.23679 -2.06335,-1.68483c-0.83632,-0.47075 -1.7108,-0.68649 -2.64732,-0.7045c-0.89983,-0.01729 -1.81592,0.09283 -2.58533,-0.08533c-0.97383,-0.22551 -1.60638,-0.746 -2.59384,-0.89384c-0.82108,-0.12292 -1.86038,-0.16695 -2.53516,-0.38249c-0.81528,-0.26042 -1.40704,-0.48892 -2.58434,-1.12233c-0.60077,-0.32323 -1.15538,-0.70714 -2.23466,-1.34933c-0.69872,-0.41576 -1.47333,-0.92398 -2.4095,-1.10951c-0.843,-0.16707 -1.72784,-0.05716 -2.52518,-0.05716c-0.98132,0 -1.91432,0.13722 -2.69032,-0.02083c-0.88652,-0.18056 -1.63539,-0.91258 -2.427,-0.97784c-0.94753,-0.07811 -1.73267,-0.03099 -2.71017,-0.35399c-0.76277,-0.25204 -1.71201,-0.44237 -2.5045,-0.86884c-0.67827,-0.36499 -1.24371,-1.30943 -2.06667,-1.61183c-0.79408,-0.29179 -1.81963,-0.09897 -2.64316,-0.22383c-0.97354,-0.1476 -1.685,-0.46123 -2.42216,-0.65884c-0.95209,-0.25523 -1.93604,-0.44725 -2.59334,-0.70934c-1.0101,-0.40276 -1.76401,-0.56393 -2.67467,-0.57466c-0.89999,-0.0106 -1.75659,-0.44386 -2.38533,-0.716c-0.89218,-0.38615 -1.94818,-0.26711 -2.70401,-0.284c-0.93219,-0.02084 -1.73465,-0.43947 -2.41066,-1c-0.51805,-0.42955 -1.47847,-0.97916 -2.41066,-1c-0.91061,-0.02036 -1.61018,0.00662 -2.58934,0c-0.7894,-0.00534 -1.82198,-0.18845 -2.58934,-0.57466c-0.82053,-0.41296 -1.74428,-0.40973 -2.416,-0.42984c-0.99028,-0.02965 -1.8347,-0.2518 -2.68565,-0.64284c-0.79454,-0.36511 -1.73935,-0.31767 -2.64233,-0.51933c-0.68051,-0.15198 -1.3988,-0.47964 -2.52367,-0.71182c-0.82478,-0.17024 -1.77901,-0.12151 -2.62834,-0.12151c-0.72533,0 -1.71449,0.00067 -2.67867,0c-0.95334,-0.00067 -1.65538,-0.02023 -2.604,-0.28534c-0.74057,-0.20697 -1.49139,-0.46635 -2.41766,-1.01016c-0.84158,-0.49409 -1.57219,-0.67285 -2.4715,-0.709c-0.74858,-0.03009 -1.73865,-0.28714 -2.50684,-0.57016c-0.94856,-0.34947 -1.72,-0.42467 -2.66133,-0.42534c-1.008,-0.00072 -1.87016,0 -2.77467,0c-0.81065,0 -1.72643,0.06412 -2.61066,-0.036c-0.99998,-0.11322 -1.74231,-0.54106 -2.62267,-0.79733c-0.77505,-0.22562 -1.65201,-0.16667 -2.57117,-0.16667c-0.99417,0 -1.76096,0.05116 -2.7115,-0.00133c-0.77141,-0.0426 -1.69171,-0.47006 -2.40001,-0.71468c-0.94377,-0.32594 -1.88399,-0.284 -2.7885,-0.284c-0.86217,0 -1.6955,0 -2.674,0c-0.82016,0 -1.7215,0 -2.54233,0c-0.96451,0 -1.69,0.01828 -2.679,-0.00017c-0.96468,-0.01801 -1.82455,-0.15936 -2.49567,-0.70433c-0.76271,-0.61934 -1.39839,-1.23462 -2.3045,-1.2955c-0.75546,-0.05077 -1.65717,0.00214 -2.60133,0c-0.99419,-0.00226 -1.78503,0.05205 -2.64149,-0.35266c-0.81088,-0.38318 -1.55717,-0.64667 -2.51434,-0.64734c-0.89999,-0.00063 -1.64732,0 -2.64149,0c-0.76534,0 -1.84866,0 -2.768,0c-0.66933,0 -1.83334,0 -2.62267,0c-0.72533,0 -1.71067,0 -2.69467,0c-0.69067,0 -1.75883,0 -2.616,0c-0.9,0 -1.71433,0 -2.668,0c-0.732,0 -1.89867,0 -2.69034,0c-0.84616,0 -1.70833,0 -2.54166,0c-0.9785,0 -1.79867,0 -2.7,0c-0.936,0 -1.784,0 -2.64734,0c-1.01666,0 -1.85398,-0.04852 -2.75283,0.00017c-0.78861,0.04271 -1.70754,0.47122 -2.41583,0.71584c-0.94377,0.32594 -1.884,0.284 -2.7885,0.284c-0.86217,0 -1.6955,0 -2.674,0c-0.82017,0 -1.7215,0 -2.54234,0c-0.96317,0 -1.8265,0 -2.722,0c-0.95716,0 -1.85733,0 -2.64249,0c-0.94,0 -1.64023,-0.11757 -2.61467,0.02083c-1.00974,0.1434 -1.6885,0.63867 -2.69984,0.85767c-0.76801,0.16631 -1.77866,0.12151 -2.49567,0.12151c-0.9045,0 -1.82533,0 -2.7885,0c-0.69067,0 -1.81287,-0.14844 -2.616,0.22133c-0.77859,0.35847 -1.44913,0.74728 -2.44267,1c-0.71407,0.18163 -1.45183,0.4267 -2.48667,0.69467c-0.9705,0.25131 -1.61864,0.64941 -2.26617,1.384c-0.58373,0.6622 -0.70383,1.5 -0.7045,2.336c-0.00081,1.01666 -0.00244,1.71133 0,2.728c0.00225,0.93602 0.18975,1.76357 0.80133,2.436c0.57029,0.62703 1.39956,1.22211 1.8415,1.89999c0.47848,0.73392 0.6996,1.61383 1.35717,2.3c0.5871,0.61263 1.08011,1.38992 2,1.83333c0.64727,0.312 1.66756,0.08931 2.4,0.60268c0.79008,0.55377 1.25655,1.31123 1.9,1.8595c0.75346,0.642 1.73643,0.53633 2.5,0.78983c0.77216,0.25635 1.5526,0.74561 2.39999,1.19867c0.65201,0.3486 1.52807,0.52534 2.4,0.752c0.86567,0.22502 1.45387,1.12276 2.072,1.56401c0.81718,0.58334 1.58656,0.7811 2.32267,1.09999c0.87226,0.37787 1.53747,0.95207 2.30983,1.5955c0.55033,0.45847 1.56503,0.51901 2.52884,0.87117c0.71844,0.2625 1.33333,1 1.992,1.65866c0.522,0.522 1.292,1.29201 1.836,1.83601c0.672,0.672 1.344,1.34399 1.83867,1.83865c0.49467,0.49466 1.35696,1.35706 1.95834,1.95834c0.64161,0.64154 1.22135,1.23535 2.0625,1.54166c0.94391,0.34372 1.68978,0.55597 2.45766,1.10001c0.6441,0.45633 1.31439,1.20715 2.0215,1.89999c0.5157,0.50528 1.32291,1.09735 2,1.5c0.83529,0.49673 1.48968,1.0546 2.33334,1.5c0.65079,0.3436 1.44905,0.53146 2.33333,1c0.82738,0.43839 1.43103,1.10233 2.03333,1.70001c0.69735,0.69202 1.45148,1.05075 2.3,1.46664c0.76249,0.37372 1.52077,0.65674 2.41067,0.85468c0.79835,0.17755 1.4214,0.83292 1.93667,1.33051c0.77765,0.75098 1.44247,1.38641 2.28867,1.67349c0.83994,0.28497 1.58427,0.51822 2.48,1.17599c0.5397,0.39633 1.20533,1.12 1.884,1.79868c0.51601,0.51599 1.21005,1.28867 1.884,1.79868c0.73177,0.55377 1.48126,0.87479 2.23067,1.39999c0.70163,0.49173 1.57016,0.78888 2.36932,1.37067c0.55432,0.40356 1.32378,1.29141 1.89067,1.79468c0.75961,0.67435 1.46649,1.00983 2.14134,1.43597c0.88058,0.55606 1.65067,1.03336 2.48399,1.20001c0.83333,0.16666 1.59459,0.60526 2.2,1.20001c0.6053,0.59464 1.28096,1.31964 1.90001,1.89981c0.67979,0.63708 1.52,0.72968 2.39999,0.92102c0.84631,0.18402 1.65897,0.715 2.5,1.14581c0.66434,0.3403 1.27251,1.1731 1.88533,1.63333c0.73235,0.54999 1.50691,0.83789 2.3575,1.5c0.58997,0.45923 1.23141,1.22601 2.06168,1.65186c0.8389,0.43027 1.31339,0.79712 2.04283,1.34283c0.86212,0.64499 1.82162,0.66016 2.478,0.716c1.01633,0.08646 1.74684,0.60086 2.57466,0.96399c0.78662,0.34506 1.47238,0.79413 2.42534,1c0.6835,0.14767 1.65173,0.58017 2.496,1.12534c0.66179,0.42734 1.49002,0.93112 2.15784,1.37915c0.69937,0.46918 1.67511,0.33755 2.52083,0.6875c0.78462,0.32468 1.53207,0.76807 2.3,1.186c0.84096,0.45767 1.47479,0.77505 2.3,1.22202c0.79922,0.43289 1.73383,0.40341 2.66133,0.436c0.79137,0.0278 1.84328,0.14374 2.49199,0.43597c0.80069,0.36069 1.36967,1.03171 1.83601,1.728c0.62457,0.93256 1.0486,1.47778 1.95332,1.92517c0.68567,0.33905 1.452,0.543 2.48801,0.8175l0.85199,0.25201l0.77,0.5405l0.522,0.47549" id="svg_6" stroke-width="2" stroke="#000" fill="none"/>
  <path t="41456,41630,41646,41654,41654,41669,41669,41672,41681,41695,41695,41726,41735,41735,41745,41762,41762,41779,41779,41795,41814,41814,41828,41845,41845,41862,41862,41871,41880,41880,41887,41887,41902,41918,41918,41928,41934,41935,41950,41950,41974,41996,41996,41996,42012,42012,42014,42014,42030,42030,42046,42046,42046,42054,42055,42064,42064,42079,42096,42096,42096,42102,42103,42118,42118,42134,42145,42146,42150,42163,42166,42167,42182,42182,42198,42198,42212,42212,42213,42215,42215,42230,42231,42246,42246,42246,42248,42248,42255,42255,42265,42265,42270,42271,42281,42281,42281,42286,42287,42297,42302,42303,42313,42314,42318,42329,42330,42347,42363,42363,42380,42380,42380,42383,42383,42398,42398,42414,42414,42416,42430,42430,42447,42447,42447,42463,42464,42494,42495,42495,42513,42513,42518,42529,42529,42534,42550,42563,42563,42566,42566,42580,42580,42597,42613,42613,42630,42646,42646,42654,42654,42670,42670,42681,42681,42686,42686,42710,42710,42729,42730,42750,42750,42766,42862,42862,42894,42918,42918,42942,42942,42950,42966,42966,42990,42990,42998,42998,43013,43014,43016,43038,43054,43070,43070,43081,43082,43086,43097,43098,43098,43113,43118,43130,43130,43134,43134,43146,43150,43164,43166,43166,43181,43181,43181,43183,43197,43197,43197,43199,43214,43214,43230,43231,43231,43231,43231,43247,43248,43248,43248,43248,43264,43264,43264,43264,43264,43270,43271,43271,43271,43282,43283,43286,43298,43298,43314,43318,43319,43331,43334,43334,43347,43350,43363,43364,43364,43366,43366,43382,43414,43431,43447,43448,43464,43465,43465,43470,43471,43486,43498,43514,43534,43534,43702,43702,43734,43758,43781,43783,43783,43798,43798,43815,43830,43831,43848,43848,43848,43854,43855,43855,43855,43870,43871,43886,43886,43886,43902,43902,43914,43915,43915,43931,43932,43932,43934,43934,43947,43951,43965,43965,43966,43981,43982,43984,43984,43999,43999,44015,44015,44015,44032,44032,44032,44049,44049,44050,44050,44055,44055,44068,44071,44084,44084,44087,44100,44100,44115,44132,44132,44135,44148,44148,44149,44165,44168,44168,44182,44183,44199,44215,44215,44215,44232,44232,44249,44249,44265,44266,44266,44271,44271,44284,44284,44299,44299,44303,44303,44316,44316,44332,44332,44350,44365,44365,44382,44398,44398,44422,44422,44423,44448,44465,44466,44471,44471,44484,44499,44499,44500,44515,44533,44533,44549,44551,44574,44575,44599,44599,44615,44646,44647,44655,44655,44678,44679,44699,44702,44703,44718,44719,44732,44749,44750,44766,44783,44783,44814,44815,44832,44850,44866,44866,44886,44900,44901,44903,44926,44927,44949,44949,44952,44966,44966,44982,44982,44999,45015,45016,45033,45033,45049,45066,45066,45067,45082,45082,45099,45116,45116,45143,45151,45151,45231,45295,45295" d="m313,348c-0.37866,1.60001 0.29999,2.29999 1,3c0.5,0.5 1.31137,1.11914 1.71466,1.79999c0.48996,0.82718 0.8009,1.70514 1.38535,2.30002c0.59467,0.60529 1.20721,1.46103 2.00015,1.7785c0.73743,0.29526 1.76743,-0.04004 2.73318,0.28815c0.69739,0.237 1.36667,1.03336 1.86667,1.53336c0.69998,0.69998 1.32211,1.50085 2,1.94281c0.73392,0.47849 1.586,0.73965 2.18533,1.15851c0.91348,0.6384 1.6684,0.94778 2.35748,1.49866c0.80545,0.64389 1.25717,1.20001 1.95718,1.90002c0.59998,0.59998 1.19998,1.19998 1.89999,1.89999c0.60001,0.60001 1.19998,1.19998 1.89999,1.89999c0.60001,0.60001 1.19736,1.20267 1.79999,1.79999c0.60803,0.60269 1.35553,1.21927 2.03601,1.60001c0.7536,0.42166 1.77151,0.8782 2.328,1.20001c0.97318,0.56277 1.51434,1.11792 2.14499,1.7045c0.64468,0.59964 1.45853,1.18018 2.19101,1.6955c0.49432,0.34778 1.38019,0.95209 2.07867,1.58932c0.64362,0.58719 1.22131,1.21066 1.832,1.82135c0.75598,0.75598 1.242,1.242 1.93665,1.93665c0.63116,0.63116 1.242,1.242 1.95267,1.95267c0.5,0.5 1.17459,1.22644 1.90002,1.89868c0.58044,0.53787 1.46637,0.71732 2.19998,1.23734c0.78714,0.55795 1.30002,1.26401 1.90451,1.8685c0.58084,0.58084 1.2327,1.13498 1.83417,1.90616c0.58405,0.74881 0.76376,1.59671 0.944,2.38934c0.22897,1.00693 0.58234,1.76962 1.11865,2.51733c0.40585,0.56583 1.12268,1.4234 1.62402,2.13333c0.3512,0.49731 0.98145,1.4382 1.53867,2.07733c0.60803,0.69739 1.27008,1.28439 1.73599,1.99332c0.43268,0.65833 0.97623,1.67761 1.42084,2.17868c0.76117,0.85785 1.3045,1.32535 1.82648,1.84732c0.76733,0.76733 1.34818,1.34818 2.05267,2.05267c0.60001,0.60001 1.20001,1.20001 1.89999,1.89999c0.5,0.5 1.20001,1.20001 1.90002,1.90002c0.5,0.5 1.19998,1.19998 1.90015,1.90015c0.53583,0.53583 1.22116,1.22116 1.72519,1.72519c0.52197,0.52197 1.3338,1.25275 1.87015,1.92731c0.55295,0.69547 0.83905,1.46713 1.50452,2.362c0.45734,0.61499 1.19998,1.28534 1.79999,1.88535c0.63599,0.63599 1.32132,1.32132 1.82535,1.82535c0.52197,0.52197 1.23911,1.35895 1.9845,1.87015c0.69031,0.47342 1.45126,0.67981 2.18481,1.00452c1.05081,0.46515 1.69858,0.99774 2.40533,1.69998c0.60193,0.59808 1.19333,1.1781 2.10001,1.60001c0.79431,0.36963 1.43073,1.0885 2.02084,1.47916c0.88187,0.5838 1.71906,0.37488 2.59381,0.80618c0.76849,0.37891 1.28534,1.11465 1.98535,1.81467c0.60001,0.60001 1.19998,1.19998 1.89999,1.89999c0.60001,0.60001 1.20132,1.20132 1.75717,1.75717c0.72684,0.72684 1.24283,1.24283 2.07617,2.07617c0.53067,0.53067 1.16666,1.16666 1.76666,1.76666c0.7045,0.7045 1.15717,1.15717 1.884,1.884c0.51599,0.51599 1.30408,1.39996 1.88,1.86932c0.78113,0.63663 1.66867,0.77225 2.23599,1.25732c0.7467,0.63843 1.39999,1.38934 1.89999,1.88934c0.70001,0.70001 1.29999,1.29999 1.89999,1.89999c0.70001,0.70001 1.30002,1.30002 1.90451,1.90451c0.58084,0.58084 1.32462,1.37 1.87015,1.83417c0.77237,0.6572 1.65604,0.673 2.52536,0.91849c0.76114,0.21494 1.4985,0.90015 2.46664,0.94284c0.83252,0.03671 1.81183,0 2.52884,0c0.9765,0 1.84717,0 2.55518,0c0.98132,0 1.935,0 2.84933,0c0.89999,0 1.78534,0 2.72534,0c0.69064,0 1.65381,0 2.57465,0c0.90451,0 1.92395,0.04114 2.62085,-0.02084c0.98605,-0.08771 1.75171,-0.45047 2.49384,-0.69516c0.9877,-0.32565 2.02798,-0.284 2.73599,-0.284c0.74399,0 1.77866,0 2.74933,0c0.74399,0 1.66666,0 2.72867,0c0.41534,0 1.314,0 2.27667,0c0.99466,0 1.99332,0 2.98398,0c0.48984,0 1.45352,0 2.84402,0c0.44516,0 1.30948,0 2.14581,0c0.81635,0 2.02084,0 2.81683,0c0.772,0 1.83252,0 2.93951,0c0.702,0 1.67517,0 2.58582,0c0.85333,0 1.79333,0 2.67868,0c0.79999,0 1.63599,0 2.65268,0c0.69464,0 1.71133,0 2.65631,0c1.02435,0 1.69635,0 2.44034,0c1.10767,0 1.94168,0 2.85068,0c0.89999,0 1.81076,-0.0134 2.7215,0.00015c0.69955,0.01041 1.68326,0.15222 2.47849,0.42517c0.80508,0.27631 1.79416,0.54221 2.54285,0.57019c1.02048,0.03815 1.95715,0.00449 2.85849,0.00449c0.96533,0 1.65924,-0.14005 2.63202,0.16666c0.80356,0.25336 1.76523,0.47363 2.08133,-0.36667c0.3183,-0.84613 0.17682,-1.81253 0.02817,-2.55716c-0.1846,-0.92474 -0.61774,-1.58176 -0.91751,-2.61749c-0.27203,-0.93991 -0.54053,-1.64896 -1.02533,-2.62534c-0.30103,-0.60623 -0.61835,-1.24628 -1.16666,-2.16666c-0.47104,-0.79065 -0.81488,-1.32553 -1.34933,-2.064c-0.70734,-0.97733 -1.24207,-1.51218 -1.96802,-2.25467c-0.5199,-0.53174 -1.06332,-1.09338 -1.63199,-1.91467c-0.53989,-0.77972 -1.04019,-1.60864 -1.53668,-2.20001c-0.51135,-0.60907 -1.19803,-1.38843 -1.59015,-1.99548c-0.47406,-0.73395 -1.04703,-1.65665 -1.55716,-2.20319c-0.66614,-0.71371 -1.04367,-1.56235 -1.53336,-2.36798c-0.43848,-0.72137 -1.03064,-1.16879 -1.78131,-1.94934c-0.4826,-0.50183 -1.07446,-1.37445 -1.48535,-2.05865c-0.48752,-0.81186 -1.05612,-1.47067 -1.73334,-1.992c-0.65717,-0.50589 -1.43188,-0.98642 -2.33331,-1.66669c-0.53778,-0.40585 -1.1398,-0.97537 -1.87601,-1.70932c-0.46338,-0.46198 -1.20645,-1.20688 -1.68933,-1.68933c-0.797,-0.79636 -1.45721,-1.40582 -2.26801,-1.76801c-0.79825,-0.3566 -1.63806,-0.7774 -2.29999,-1.08401c-0.86911,-0.40256 -1.40002,-1.116 -2,-1.71597c-0.70001,-0.70001 -1.29776,-1.30231 -1.90002,-1.90002c-0.70801,-0.70267 -1.46252,-1.30685 -2.12534,-1.69998c-0.68646,-0.40714 -1.54745,-0.99081 -2.17465,-1.60001c-0.60867,-0.59122 -1.19562,-1.20444 -1.79999,-1.79999c-0.7157,-0.70529 -1.37601,-1.18542 -2.02536,-1.61069c-0.70108,-0.45914 -1.38641,-1.26935 -1.92731,-1.93665c-0.5351,-0.66019 -1.29803,-1.11084 -2.24734,-1.81934c-0.616,-0.45975 -1.16666,-1.00531 -1.83334,-1.66669c-0.64841,-0.64322 -1.23428,-1.30396 -1.80264,-1.76666c-0.8056,-0.65585 -1.58218,-0.93604 -2.3425,-1.50015c-0.65256,-0.48416 -1.21069,-1.39023 -1.62152,-2.07449c-0.48727,-0.81161 -0.95407,-1.46338 -1.69998,-2.12085c-0.66223,-0.58371 -1.55026,-0.71677 -2.20001,-1.22534c-0.7695,-0.60229 -1.25717,-1.23633 -1.98401,-1.96317c-0.51599,-0.51599 -1.03198,-1.03198 -1.88,-1.88c-0.63599,-0.63599 -1.23599,-1.23599 -1.836,-1.836c-0.59998,-0.59998 -1.29361,-1.33728 -1.96664,-1.79999c-0.63504,-0.43658 -1.39484,-0.74036 -2.19736,-1.39999c-0.78458,-0.6449 -1.336,-1.24283 -2.13599,-1.60001c-0.79999,-0.35718 -1.5,-1 -2.10001,-1.60001c-0.60001,-0.60001 -1.15686,-1.24734 -1.92084,-1.89999c-0.76062,-0.64978 -1.51019,-0.95157 -2.3125,-1.5c-0.67426,-0.46091 -1.26666,-1.10001 -1.86667,-1.70001c-0.59998,-0.59998 -1.29999,-1.29999 -1.89999,-1.89999c-0.60001,-0.60001 -1.19998,-1.19998 -1.89999,-1.89999c-0.60001,-0.60001 -1.20001,-1.20001 -1.89999,-1.89999c-0.60001,-0.60001 -1.20001,-1.20001 -1.89999,-1.89999c-0.5,-0.5 -1.24887,-1.16312 -1.64734,-2c-0.4133,-0.86804 -0.85367,-1.50034 -1.45267,-2.10001c-0.69962,-0.70041 -1.30002,-1.30002 -1.89999,-1.89999c-0.70001,-0.70001 -1.30002,-1.30002 -1.90002,-1.90002c-0.59998,-0.59998 -1.33878,-1.14499 -1.67865,-2.12131c-0.22665,-0.65112 -0.27866,-1.70486 -0.82584,-2.37418c-0.53708,-0.65692 -1.2955,-1.3045 -1.89551,-1.90451c-0.60001,-0.60001 -1.19998,-1.19998 -1.92084,-1.92084c-0.64581,-0.64581 -1.13184,-1.13184 -1.82648,-1.82648c-0.63116,-0.63116 -1.28857,-1.19858 -1.94818,-1.95267c-0.58121,-0.66443 -0.71677,-1.55023 -1.22534,-2.20001c-0.60114,-0.76807 -1.27914,-1.29999 -1.87915,-1.89999l-0.70001,-0.70001l-0.60001,-0.60001" id="svg_7" stroke-width="2" stroke="#000" fill="none"/>
  <path t="46632,46758,46800,46830,46862,46863,46888,46895,46895,46926,46950,46991,46991,47055,47055,47055,47086,47087,47119,47129,47129,47146,47162,47179,47179,47183,47195,47195,47212,47215,47215,47215,47229,47231,47231,47246,47262,47262,47264,47279,47287,47287,47302,47303,47326,47326,47335,47335,47358,47359,47367,47367,47390,47391,47412,47413,47430,47430,47446,47455,47455,47465,47465,47479,47480,47480,47496,47497,47513,47513,47519,47519,47530,47535,47568,47568,47590,47591,47613,47630,47633,47647,47647,47663,47695,47718,47719,47759,47759,47759,47807,47807,47807,47838,47838,47895,47895,47895,47927,47983,47983,47983,47997,47997,48013,48030,48030,48046,48070,48086,48102,48103,48118,48119,48134,48183,48183,48197,48197,48214,48230,48247,48247,48270,48271,48286,48302,48318,48318,48330,48330,48335,48335,48358,48390,48390" d="m326,359c-1.5,-1.47916 -2.29861,-1.97141 -3.20001,-2c-0.89969,-0.02853 -1.68533,0 -2.62534,0c-1.008,0 -1.76401,-0.00534 -2.67465,0c-0.91074,0.00534 -1.8454,0.17389 -2.52084,0.54166c-1.0202,0.55548 -1.60675,1.07584 -2.10715,1.633c-0.68201,0.75937 -0.86749,1.52081 -0.87201,2.46133c-0.00406,0.84802 0,1.71133 0,2.72803c0,0.836 0,1.73615 0,2.52133c0,0.94 0,1.948 0,2.70398c0,0.95233 0,1.95334 0,2.66135c0,0.74399 0,1.935 0,2.74933c0,0.79999 0,1.75717 0,2.65268c0,0.86331 -0.06631,1.86734 0.35266,2.64731c0.40186,0.74805 0.60892,1.45816 0.65182,2.35718c0.04517,0.94653 0.28687,1.73877 0.57019,2.50684c0.35043,0.95001 0.49277,1.80966 0.70932,2.604c0.20074,0.73633 0.4725,1.91882 0.716,2.69034c0.27695,0.87753 0.89374,1.42004 1.48267,2.02567c0.66406,0.68289 1.22696,1.51566 1.56549,2.21149c0.41611,0.85526 0.95184,1.47116 1.45184,2.3045c0.5,0.83334 0.90152,1.38351 1.66666,2.16666c0.48035,0.49164 0.99667,1.01947 1.81201,1.81183c0.63794,0.61996 1.32077,1.16348 2.02133,1.50067c0.95227,0.45834 1.83206,0.328 2.70001,0.578c0.76483,0.22031 1.31201,1.17181 2.05716,1.58566c0.82562,0.45856 1.59015,0.35492 2.60684,0.35718c0.93597,0.00208 1.89328,0.16367 2.73599,-0.22134c0.66931,-0.30579 1.56519,-0.69629 2.29999,-1.21466c0.67288,-0.47467 1.23599,-1.19998 1.92151,-1.8855c0.5145,-0.5145 1.09003,-1.07605 1.87817,-1.87851c0.58423,-0.59485 1.19449,-1.14526 1.5575,-2c0.32452,-0.76416 0.38419,-1.80875 0.66815,-2.58932c0.26715,-0.73434 0.54532,-1.7381 0.74133,-2.54401c0.22525,-0.92612 0.55576,-1.64478 0.74802,-2.69598c0.13898,-0.75998 0.08533,-1.60666 0.08533,-2.62335c0,-0.69464 0,-1.71133 0,-2.64731c0,-0.90134 0,-1.86667 0,-2.52536c0,-1.008 0.03751,-1.93271 -0.52084,-2.67465c-0.50143,-0.66629 -1.20245,-1.23373 -1.42648,-2.15268c-0.16641,-0.68259 -0.64047,-1.63336 -0.93118,-2.44733c-0.30548,-0.85526 -0.142,-1.6701 -0.47415,-2.55267c-0.26578,-0.70621 -0.52124,-1.75589 -0.93134,-2.54733c-0.44647,-0.86163 -0.77707,-1.59027 -1.284,-2.284c-0.53262,-0.72888 -1.09866,-1.34933 -1.48016,-2.21149l-0.38785,-0.7045l-0.664,-0.70001l-0.60001,-0.60001" id="svg_8" stroke-width="2" stroke="#000" fill="none"/>
  <path t="50081,50150,50166,50178,50178,50182,50182,50195,50198,50211,50211,50214,50228,50244,50244,50247,50270,50286,50286,50302,50302,50311,50319,50328,50345,50345,50350,50361,50398,50398,50398,50414,50414,50430,50445,50461,50461,50464,50464,50471,50480,50486,50496,50496,50503,50503,50512,50512,50519,50519,50528,50528,50534,50534,50545,50561,50566,50566,50582,50598,50612,50612,50629,50646,51014,51015,51094,51126,51126,51150,51150,51166,51166,51182,51182,51206,51206,51230,51230,51255,51255,51263,51263,51263,51287,51297,51297,51319,51343,51343,51367,51380,51407,51407,51415,51455,51471,51503,51503,51519,51519,51535,51535,51575,51575,51575,51583,51623,51623,51646,51663,51703,51703,51735,51935,51959,51959,51991,51991,52023,52023,52046,52047,52055,52055,52079,52079,52097,52097,52097,52118,52199,52199" d="m293,348c-1.70001,0 -2.63599,0 -3.48532,0c-0.91919,0 -1.91336,0 -2.67868,0c-0.95065,0 -1.936,0 -2.836,0c-0.79999,0 -1.60001,0 -2.52084,0c-0.96317,0 -1.65381,0 -2.72198,0c-0.85718,0 -1.75717,0 -2.64252,0c-0.94,0 -1.63068,-0.00708 -2.70398,0c-0.81073,0.00534 -1.71753,0.34976 -2.41068,1c-0.50507,0.47382 -1.40381,0.91479 -2.20132,1.00134c-0.97366,0.10565 -1.61688,0.47601 -2.39999,0.71466c-0.97641,0.29755 -1.7843,0.2356 -2.7627,0.70932c-0.77792,0.37665 -1.63599,0.57468 -2.39316,0.57468c-0.89551,0 -1.75882,0 -2.72198,0c-0.92084,0 -1.84518,-0.07849 -2.68752,0.16666c-0.86177,0.25082 -1.65567,0.74014 -2.45866,0.82266c-1.02647,0.10547 -1.77916,0.01068 -2.77333,0.01068c-0.76534,0 -1.73358,-0.0929 -2.48534,0.08533c-0.97743,0.23172 -1.62625,0.7244 -2.48,1.30402c-0.73116,0.4964 -1.636,0.61066 -2.436,0.61066c-0.89999,0 -1.836,0 -2.68399,0c-0.86334,0 -1.75883,0 -2.716,0c-0.90018,0 -1.68533,0 -2.62534,0c-1.008,0 -1.8223,0.03079 -2.65866,-0.28534c-0.71414,-0.26993 -1.52061,-0.78479 -2.2115,-1.41467c-0.63411,-0.57813 -1.18982,-1.18533 -1.95717,-1.95267c-0.522,-0.52197 -1.18066,-1.18066 -1.82651,-1.82648c-0.621,-0.621 -1.15683,-1.15683 -1.84216,-1.84216c-0.67867,-0.67868 -1.23811,-1.15393 -1.91699,-1.92151c-0.63799,-0.72134 -0.72128,-1.51947 -1.2825,-2.25717c-0.58995,-0.77548 -1.29639,-1.17355 -2.07918,-1.52533c-0.82022,-0.36859 -1.4221,-1.17554 -2.09999,-1.61749c-0.73392,-0.47849 -1.64624,-0.87897 -2.40001,-1.23584c-0.85406,-0.40436 -1.47838,-0.75479 -2.2045,-1.42133c-0.56459,-0.51825 -1.36949,-0.97784 -2.09999,-1.45718c-0.81517,-0.53491 -1.33653,-1.11938 -2.11017,-1.67349c-0.80457,-0.57626 -1.70244,-0.83545 -2.28534,-1.37067c-0.6188,-0.56818 -1.47855,-0.94211 -2.29984,-1.42017c-0.62808,-0.3656 -0.89281,-1.39569 -1.3255,-2.1785c-0.45444,-0.82214 -0.5146,-1.57779 -0.28932,-2.36801c0.21082,-0.73947 0.65532,-1.93842 1.11465,-2.56c0.5354,-0.72452 1.19957,-1.34164 2.08534,-1.58798c0.7067,-0.19653 1.75883,-0.21393 2.49384,-0.62567c0.92339,-0.51727 1.26366,-1.11102 1.71632,-1.80566l0.60451,-0.89102l0.7,-0.595l0.8,-0.25067" id="svg_9" stroke-width="2" stroke="#000" fill="none"/>
  <path t="53936,54014,54014,54029,54029,54029,54031,54031,54045,54045,54047,54047,54047,54061,54061,54063,54063,54063,54070,54070,54070,54079,54079,54080,54080,54086,54087,54095,54095,54096,54102,54102,54102,54118,54118,54118,54128,54128,54145,54145,54145,54150,54150,54161,54161,54166,54166,54182,54182,54198,54198,54214,54214,54230,54230,54245,54247,54247,54262,54262,54270,54280,54286,54286,54326,54478,54478,54486,54502,54502,54512,54512,54528,54529,54529,54545,54546,54550,54550,54566,54566,54579,54595,54595,54595,54598,54614,54614,54630,54646,54662,54878,54950,54950,54974,54995,55012,55012,55028,55030,55031,55046,55071,55071,55081,55081,55096,55096,55102,55102,55126,55126,55134,55145,55146,55150,55166,55179,55179,55182,55182,55196,55198,55212,55212,55230,55230,55232,55246,55248,55248,55262,55270,55270,55281,55281,55286,55286,55297,55297,55302,55302,55318,55334,55334,55346,55366,55366,55382,55382,55396,55396,55398,55398,55414,55414,55429,55430,55446,55446,55447,55462,55462,55462,55470,55470,55481,55497,55502,55526,55526,55534,55558,55558,55566,55566,55567,55582,55596,55597,55599,55613,55613,55613,55638,55638,55663,55680,55680,55697,56078,56102,56102,56113,56118,56118,56118,56130,56130,56146,56146,56150,56150,56163,56163,56166,56166,56182,56182,56197,56197,56199,56199,56214,56230,56231,56254,56254,56255,56270,56270,56294,56294,56302,56302,56334,56334,56334" d="m126,250c0.44666,1.836 0.71369,2.44118 1.484,3.39867c0.48685,0.60515 1.00855,1.14035 1.76333,1.84416c0.61812,0.57639 1.40482,1.06668 2.15717,1.45718c0.79036,0.41022 1.61378,0.7923 2.19551,1.18533c0.82794,0.55939 1.36121,1.16354 2.39999,1.948c0.5797,0.43777 1.19107,0.77386 2.20033,1.26648c0.61575,0.30054 1.30342,0.60089 2.44217,0.77884c0.65396,0.10217 1.67615,0.10468 2.30417,0.20535c1.20636,0.19336 1.83691,0.65564 2.82266,1.11731c0.73952,0.34634 1.57233,0.64404 2.30933,1.12c0.72189,0.46619 1.33817,1.08478 2.34251,1.65701c0.51059,0.29092 1.3026,0.63144 2.43616,0.90033c0.78499,0.18622 1.68631,0.33932 2.39334,0.54666c0.74504,0.21848 1.93784,0.54492 2.63199,0.57333c0.95255,0.039 1.71928,-0.02924 2.71735,0.00583c0.80122,0.02814 1.82306,0.22855 2.564,0.60617c0.84663,0.43149 1.41864,1.08554 2.32133,1.30402c0.89682,0.21704 1.91333,0.08533 2.67867,0.08533c0.95067,0 1.836,0 2.59317,0c0.89549,0 1.75883,0 2.722,0c0.93149,0 1.84216,0 2.6955,0c0.94,0 1.86288,0.17148 2.62534,-0.08533c0.79813,-0.26883 1.5229,-1.01202 2.2,-1.41467c0.83528,-0.49673 1.50783,-1.01288 2.16667,-1.66666c0.65588,-0.65085 1.32909,-1.07486 1.71899,-2.08517c0.26144,-0.67743 0.073,-1.75687 0.15033,-2.4975c0.11664,-1.117 0.56158,-1.8179 0.91583,-2.55518c0.40831,-0.84979 0.93039,-1.49557 1.34283,-2.04282c0.64728,-0.85883 1.03146,-1.68935 1.42134,-2.45268c0.38454,-0.75288 0.23761,-1.73334 0.70934,-2.59999c0.39865,-0.73242 0.57466,-1.60001 0.57466,-2.40001c0,-0.89999 0,-1.836 0,-2.68399c0,-0.86334 0.1472,-1.94968 -0.28534,-2.716c-0.38898,-0.68916 -1.10271,-1.21216 -1.81483,-1.90001c-0.52713,-0.50916 -1.39015,-1.08925 -2.07449,-1.5c-0.81171,-0.48721 -1.4157,-1.06577 -2.30933,-1.31599c-0.84172,-0.2357 -1.72147,-0.5226 -2.40001,-0.8c-0.90106,-0.36838 -1.97964,-0.10745 -2.81149,-0.34116c-0.76527,-0.215 -1.50302,-0.90013 -2.47118,-0.94284c-0.83252,-0.03673 -1.69954,0.18553 -2.52882,-0.05716c-0.88136,-0.25793 -1.60759,-0.91425 -2.47118,-0.94284c-0.83287,-0.02757 -1.81183,0 -2.63199,0c-0.90134,0 -1.83734,0 -2.68533,0c-0.86334,0 -1.75883,0 -2.71867,0c-0.76801,0 -1.80267,0 -2.54666,0c-0.91734,0 -1.86534,0 -2.73601,0c-0.72533,0 -1.71449,0 -2.67867,0c-0.95067,0 -1.836,0 -2.636,0c-0.836,0 -1.85716,0 -2.60449,0c-0.9955,0 -1.7955,0 -2.79533,0c-0.77934,0 -1.81812,0.15446 -2.55284,-0.11433c-0.80821,-0.29568 -1.3324,-1.17671 -2.22617,-1.64267c-0.63631,-0.33173 -1.79234,-0.22942 -2.56284,-0.26382c-0.56792,-0.02536 -1.7623,-0.18279 -2.63699,-0.40451c-0.81133,-0.20566 -1.67264,-0.51242 -2.61867,-0.57333c-0.9008,-0.058 -1.80267,-0.00133 -2.61333,-0.00133c-0.91068,0 -1.76807,0.08598 -2.70401,-0.00133c-0.89674,-0.08366 -1.53027,-0.6662 -2.42799,-0.87733c-0.93936,-0.22093 -1.73195,-0.08459 -2.64301,-0.474c-0.86951,-0.37164 -1.62049,-0.57335 -2.48633,-0.68333c-0.88311,-0.11218 -1.5929,-0.36343 -2.32267,-0.6685c-1.05791,-0.44225 -1.65144,-1.10265 -2.64133,-1.28484c-0.83406,-0.1535 -1.71133,-0.01129 -2.60683,-0.01067c-0.95716,0.00067 -1.98839,0.10556 -2.39999,0.7045c-0.50671,0.73732 -0.15407,1.84399 0.07883,2.54617c0.249,0.75073 0.7271,1.80753 1.164,2.32799c0.64833,0.77235 1.22132,1.2932 1.7,2.07401c0.41897,0.6834 1.02882,1.57304 1.5,2.23134c0.53371,0.74565 0.83895,1.50749 1.50449,2.36333c0.41648,0.53555 1.19822,1.21809 1.67467,1.75267c0.7188,0.80649 0.92666,1.65596 1.45683,2.39999c0.56011,0.78604 1.21673,1.25893 1.73067,1.93333c0.50268,0.65964 0.9874,1.43115 1.66667,2.33334c0.39764,0.52814 1.19926,1.30389 1.66666,1.85416c0.64772,0.76254 1.02084,1.47917 1.66666,2.3125l0.486,0.4095l0.69467,0.45267" id="svg_10" stroke-width="2" stroke="#000" fill="none"/>
  <polyline timestamps="56831,56910,56926" startTime="1443006472345" id="svg_11" points="140,243 138.43599999999998,243.61066666666665 138.02533333333332,244.4 " stroke-linecap="round" stroke-width="2" stroke="#000" fill="none"/>
 </g>
 <g display="none">
  <title>muse_image</title>
  <image xlink:href="http://farm1.static.flickr.com/203/489765227_0dd28b9dc8.jpg" id="muse" height="437" width="640" y="21.5" x="0"/>
 </g>
 <g display="none">
  <title>bbox</title>
  <rect stroke="#f00" fill="none" stroke-width="3" height="158.44444" width="561.92" y="238.72222" x="75.52" id="bbox"/>
 </g>
</svg>
