<svg width="640" height="480" xmlns="http://www.w3.org/2000/svg" xmlns:svg="http://www.w3.org/2000/svg" xmlns:xlink="http://www.w3.org/1999/xlink">
 <!-- Sketchy ANNOTATION
  ImageNet ID: n02691156_6013
  URL: http://farm1.static.flickr.com/144/326758816_d8d468fa49.jpg
  Image Width: 500
  Image Height: 315
  BBox X: 64
  BBox Y: 115
  BBox Width: 420
  BBox Height: 175
  Exposure: 2000ms
  Synset Label: airplane
  Synset ID: n02691156
  Worker Tag: fighter plane in the sky
  Sanity Check: 
   Context
   Saved
   Shading
  Comment: 
   {}
  Worker ID: A1P7U2ULSAE7YL
  Assignment ID: 33IZTU6J811DAKKB4ABQ8I5G9QOSXE
  HIT ID: 3X4Q1O9UBHM2ATOXPELH5UN69RU7OG
  Work Time: 110s
  Worker Score: 0.8571
 END ANNOTATION -->
 <g display="inline">
  <title>Layer 1</title>
  <path t="0,347,347,363,397,405,406,415,438,453,465,478,478,495,517,533,533,550,550,562,562,581,595,615,615,629,629,647,647,665,665,681,681,695,695,695,711,711,711,731,745,745,761,761,781,781,796,796,813,813,813,827,827,844,845,862,862,881,881,881,882,882,902,902,902,911,927,927,944,945,945,945,969,969,969,969,977,978,978,994,995,995,995,995,1011,1012,1012,1012,1012,1012,1035,1035,1035,1035,1045,1045,1045,1045,1061,1062,1062,1062,1085,1085,1085,1085,1085,1086,1095,1095,1095,1095,1111,1128,1128,1128,1146,1146,1163,1163,1177,1178,1200,1200,1211,1212,1212,1227,1228,1228,1228,1245,1245,1262,1278,1278,1302,1302,1311,1333,1347,1361,1362,1385,1394,1412,1427,1428,1444,1445,1469,1470,1482,1482,1495,1495,1519,1520,1535,1535,1544,1569,1570,1577,1578,1578,1602,1603,1612,1613,1628,1645,1645,1661,1662,1685,1686,1696,1696,1696,1711,1712,1735,1745,1764,1765,1781,1805,1806,1822,1822,1829,1845,1869,1870,1885,1895,1912,1927,1928,1945,1945,1968,1968,1985,1994,2037,2037,2037,2117,2117,2240,2240,2293,2344,2360,2397,2413,2413,2428,2445,2470,2470,2478,2478,2495,2511,2512,2533,2533,2552,2553,2561,2562,2577,2578,2595,2595,2619,2620,2628,2645,2669,2670,2678,2678,2678,2695,2695,2714,2714,2728,2746,2746,2762,2762,2781,2781,2803,2830,2853,3284,3327,3327,3343,3343,3363,3386,3394,3411,3412,3436,3436,3453,3470,3470,3478,3478,3503,3503,3533,3545,3546,3570,3586,3587,3603,3619,3619,3636,3644,3645,3662,3685,3685,3702,3720,3758,3768,3769,3786,3805,3820,3833,3833,3853,3870,3870,3887,3887,3902,3902,3922,3942,3954,3981,3982,3997,4011,4036,4054,4077,4078,4101,4117,4134,4158,4189,4190,4205,4237,4250,4262,4262,4278,4295,4295,4320,4349,4350,4360,4374,4397,4429,4430,4478,4493,4533,4557,4659,4701,4777,4837,4838,4910,4977,5043,5059,5085,5097,5098,5118,5157,5157,5205,5205,5222,5223,5253,5266,5266,5279,5304,5312,5312,5312,5313,5328,5329,5352,5353,5370,5370,5378,5378,5404,5412,5412,5429,5429,5445,5445,5446,5471,5471,5472,5478,5479,5479,5498,5498,5512,5512,5512,5513,5537,5538,5538,5539,5539,5545,5545,5546,5570,5571,5572,5572,5587,5588,5588,5589,5589,5595,5595,5596,5612,5612,5613,5613,5629,5629,5629,5657,5657,5657,5659,5675,5676,5677,5677,5677,5677,5678,5678,5685,5685,5685,5686,5686,5686,5687,5709,5710,5710,5711,5711,5728,5729,5745,5746,5746,5746,5747,5747,5762,5762,5763,5763,5783,5784,5784,5813,5813,5814,5814,5814,5824,5825,5826,5827,5845,5846,5846,5847,5847,5865,5865,5866,5866,5888,5889,5889,5908,5910,5929,5929,5930,5949,5949,5949,5950,5950,5969,5970,5970,5971,5971,5971,6000,6001,6001,6001,6002,6002,6002,6016,6016,6016,6017,6017,6017,6047,6048,6048,6048,6049,6049,6049,6049,6061,6061,6062,6062,6063,6063,6087,6088,6088,6088,6089,6089,6117,6117,6118,6130,6130,6131,6150,6150,6151,6151,6187,6188,6189,6197,6198,6198,6198,6218,6219,6219,6219,6238,6238,6239,6275,6277,6278,6290,6290,6291,6291,6321,6322,6334,6353,6353,6353,6372,6373,6412,6413,6428,6429,6429,6465,6465,6466,6488,6489,6489,6489,6503,6503,6503,6523,6559,6676,6691" d="m322.01135,243.09091c-1,-1.16667 -1.53714,-1.74702 -2.39999,-1.964c-0.87787,-0.22075 -1.93274,0.06773 -2.57916,-0.05682c-0.95206,-0.18344 -1.45538,-1.04669 -2.04617,-1.55383c-0.5668,-0.48656 -1.69522,-0.17215 -2.40533,-0.51067c-0.78934,-0.3763 -1.06931,-1.47318 -1.89066,-2.01451c-0.64917,-0.42786 -1.51773,-0.71115 -2.30399,-0.92549c-0.86438,-0.23564 -1.6767,-0.66815 -2.31335,-1.364c-0.51776,-0.56589 -1.40799,-0.46425 -2.23599,-0.68268c-0.8559,-0.22578 -1.26874,-1.2446 -2.02667,-1.75867c-0.60327,-0.40916 -1.63766,-0.59912 -2.39999,-0.97066c-0.80188,-0.39082 -1.58005,-0.82944 -2.59885,-1.0775c-0.60211,-0.14661 -1.5127,-0.22783 -2.48114,-0.69051c-0.54022,-0.25809 -1.40704,-0.64522 -2.06403,-1.54533c-0.57803,-0.79196 -0.87329,-1.52655 -1.73865,-2.08533c-0.6705,-0.43295 -1.44513,-0.97806 -2.14133,-1.364c-0.81317,-0.45079 -1.6384,-0.3812 -2.57468,-0.87885c-0.64597,-0.34334 -1.16608,-0.95493 -1.99985,-1.53549c-0.75113,-0.52303 -1.63919,-0.83278 -2.42548,-1.047c-0.86969,-0.23695 -1.65842,-0.61922 -2.70801,-1.14134c-0.63531,-0.31604 -1.31735,-0.65866 -2.01599,-1.008c-0.68268,-0.34134 -1.8848,-0.92836 -2.5882,-1.3045c-0.57968,-0.30998 -1.42395,-0.92348 -2.16281,-1.621c-0.56976,-0.53789 -1.43973,-1.22551 -1.914,-1.55699c-0.80209,-0.56061 -1.38678,-0.94652 -2.28568,-1.54266c-0.59897,-0.39725 -1.49097,-0.9801 -2.10001,-1.31483c-0.88745,-0.48773 -1.8114,-0.84709 -2.39999,-1.14667c-1.22571,-0.62387 -1.80774,-1.10313 -2.42133,-1.61067c-0.65616,-0.54276 -0.97177,-0.86435 -2.112,-1.728c-0.81857,-0.62001 -1.26913,-0.89766 -2.14584,-1.5c-0.43497,-0.29884 -1.29027,-0.87247 -2.02083,-1.5c-0.66705,-0.57298 -1.18687,-1.19351 -1.70399,-1.728c-0.93492,-0.96632 -1.46809,-1.32828 -2.31683,-1.75117c-0.57523,-0.28662 -1.78737,-0.82912 -2.38817,-1.187c-0.64139,-0.38206 -1.31267,-0.8427 -2.42433,-1.66716c-0.41193,-0.30551 -1.26736,-0.96768 -1.70667,-1.30667c-0.87306,-0.67371 -1.28311,-1.01724 -2.46001,-1.86c-0.63509,-0.45479 -1.42903,-0.91779 -2.01067,-1.29601c-0.88376,-0.57468 -1.64487,-1.22325 -2.32533,-1.60399c-0.75362,-0.42168 -1.54298,-0.84872 -2.364,-1.164c-0.97852,-0.37575 -1.82489,-0.28052 -2.63333,-0.60268c-0.83189,-0.3315 -1.18398,-1.21854 -1.70834,-1.8125c-0.69392,-0.78603 -1.47632,-0.89761 -2.27966,-1.0715c-1.18465,-0.25642 -1.79416,-0.48561 -2.63699,-0.97015c-0.53978,-0.31032 -1.52856,-1.15147 -2.12035,-1.5325c-0.78413,-0.50487 -1.76164,-0.62837 -2.42133,-0.9675c-1.01118,-0.51984 -1.52394,-1.22025 -2.39999,-1.44318c-0.87291,-0.22212 -1.8573,0.12772 -2.70001,-0.25732c-0.6693,-0.3058 -1.49995,-0.77333 -2.39999,-0.77867c-0.89998,-0.00533 -1.70267,0 -2.47067,0c-1.03467,0 -1.77866,0 -2.88649,0c-0.75751,0 -1.62817,0 -2.54733,0c-0.9955,0 -1.7955,0 -2.79533,0c-0.77934,0 -1.77867,0 -2.59883,0c-0.83734,0 -1.688,0 -2.44801,0c-1.1745,0 -1.96799,0 -2.7435,0c-1.0405,0 -1.8925,0 -2.83516,0c-0.69067,0 -1.6752,-0.0311 -2.65866,0.00133c-0.86467,0.02852 -1.75392,0.36964 -2.40001,0.8c-0.76685,0.5108 -1.5652,0.89975 -2.53717,1.07733c-0.78625,0.14365 -1.62424,-0.00061 -2.60815,0.40668c-0.72371,0.29958 -1.30533,1.21423 -2.07068,1.59332c-0.84677,0.41942 -1.54965,0.60741 -2.39999,1.14217c-0.75301,0.47356 -1.02423,1.2849 -1.82117,1.73634c-0.74576,0.42245 -1.44716,0.78525 -2.036,1.53833c-0.51627,0.66028 -1.59637,0.27522 -2.3575,0.78983c-0.66742,0.45125 -0.93451,1.52477 -1.38518,2.23601c-0.41614,0.65674 -0.58249,1.7563 -1.06949,2.47733c-0.50864,0.75307 -1.49181,0.88591 -1.80934,1.80135c-0.30247,0.87201 -0.44385,1.73918 -1.04216,2.39999c-0.48062,0.53084 -1.26691,1.21075 -1.77783,1.884c-0.55251,0.72803 -0.93839,1.36639 -1.68051,2.09517c-0.57652,0.56615 -1.0215,1.28757 -1.6875,1.85416c-0.68361,0.58157 -1.487,0.96184 -2.33333,1.14584c-0.87999,0.19133 -1.68268,0.33188 -2.38533,0.82216c-0.74849,0.52228 -1.45035,0.88005 -2.48933,1.17334c-0.7843,0.22141 -1.65068,0.50456 -2.45866,1.02533c-0.69009,0.44478 -1.49634,0.8365 -2.34134,1.02533c-0.95308,0.21298 -1.56099,0.70526 -2.30933,1.17467c-0.67613,0.42412 -1.57574,1.09286 -2.26868,1.44284c-0.84808,0.42833 -1.63443,0.31029 -2.49016,0.70982c-0.91127,0.42548 -1.74773,0.8289 -2.29884,1.16817c-0.98483,0.60625 -1.71686,0.86037 -2.453,1.17917c-0.87236,0.37781 -1.58563,0.96506 -2.48932,1.216c-0.67378,0.1871 -1.57773,0.46434 -2.51601,0.91733c-0.60844,0.29375 -1.47424,0.74644 -2.17467,1.31601c-0.64981,0.52841 -1.5208,0.84616 -2.42533,0.85066c-0.89999,0.00449 -1.84454,-0.09546 -2.60001,0.284c-0.8672,0.43558 -1.65569,0.7675 -1.8,1.716c-0.12033,0.79091 0.06723,1.62628 0.80133,2.084c0.70875,0.44191 1.29601,1.23891 1.69867,1.916c0.49673,0.83528 0.95751,1.53583 1.8,1.94733c0.86539,0.4227 1.45171,0.8199 2.184,1.53534c0.51221,0.50043 1.35428,1.17282 2.06934,1.496c0.80963,0.36592 1.53059,0.95229 2.01067,1.62134c0.52162,0.72696 1.02078,1.24626 1.78784,1.45267c1.04153,0.28026 1.83182,0.67563 2.44817,1.11665c0.73831,0.52831 1.34932,1.30986 1.91466,1.91335c0.51854,0.55354 0.60078,1.59247 0.98984,2.26466c0.53557,0.92537 1.21046,1.56705 1.81633,2.17349c0.67818,0.67883 0.95,1.42482 1.53185,2.12201c0.49335,0.59114 1.47833,0.84749 2.146,1.55716c0.54225,0.57639 0.79156,1.47279 1.51117,2.10451c0.59035,0.51823 1.29515,0.99806 1.76933,1.6955c0.55252,0.81267 1.17679,1.4621 1.91016,1.97467c0.67151,0.46935 0.87102,1.47171 1.71068,1.90399c0.64859,0.33391 1.33113,0.81261 1.89999,1.60051c0.43115,0.59718 1.41772,0.93855 2,1.52083c0.58228,0.58228 0.93799,1.55765 1.61067,2.02533c0.72279,0.5025 1.15395,1.23901 1.556,1.97467c0.40196,0.73547 1.49554,0.90912 1.84399,1.436c0.51118,0.77298 1.03189,1.2887 1.78934,1.64798c0.86539,0.41049 1.40001,1.11603 2,1.716c0.70001,0.70001 1.22142,1.40195 1.89999,1.84283c0.79233,0.5148 1.26234,1.12228 1.82083,1.85718c0.50443,0.66376 0.9725,1.33414 1.51517,2.07468c0.45869,0.62595 1.13068,1.25867 1.964,1.42532c0.83333,0.16666 1.28932,0.88281 2.10001,1.00015c0.90582,0.1311 1.34778,0.82123 1.92532,1.56384c0.45755,0.58832 1.37019,0.86868 2.17334,1.35199c0.74457,0.44806 0.98865,1.40436 1.60266,1.79868c0.74939,0.48123 1.69026,0.5571 2.40933,0.896c0.9982,0.47046 1.74518,0.93103 2.62267,1.22269c0.74017,0.246 1.51759,0.7402 2.48801,1.04517c0.65453,0.20569 1.67766,-0.07202 2.59866,0.12415c0.79871,0.17014 1.49263,0.70792 2.10083,0.99734c0.92471,0.44003 1.93088,0.80847 2.72284,1.04816c0.92163,0.27893 1.6463,0.66028 2.655,0.86783c0.75725,0.15579 1.75093,0.32162 2.31467,0.80002c0.69281,0.58792 1.20209,1.39706 1.92267,1.84799c0.77936,0.48773 1.5927,0.38577 2.56416,0.6575c0.84126,0.23532 1.47978,0.59363 2.48384,0.97852c0.81178,0.31119 1.64084,0.57855 2.63066,1c0.67081,0.28561 1.267,0.63626 2.29433,1.09549c0.65303,0.29193 1.72209,0.55914 2.70534,0.65182c0.72603,0.06842 1.49806,0.07422 2.68567,0.21933c0.80017,0.09778 1.58197,0.25571 2.328,0.444c0.70468,0.17786 1.90399,0.58936 2.672,0.88934c0.76801,0.29999 1.64236,0.60229 2.31433,0.8045c0.72665,0.21866 1.50432,0.4256 2.68567,0.86215c0.80566,0.2977 1.58531,0.65778 2.364,0.97202c0.74693,0.30142 1.81042,0.64075 2.47884,0.7515c0.94182,0.15604 2.16104,0.25836 2.75717,0.39517c0.90672,0.2081 1.49983,0.41968 2.69983,0.81448c0.59557,0.19595 1.45398,0.50839 2.53349,0.73352c0.73531,0.15335 1.61147,0.24817 2.36267,0.42133c0.97562,0.22488 2.1965,0.59702 2.88617,0.80783c0.72769,0.22241 1.48016,0.45889 2.2485,0.69751c0.77199,0.23975 1.53415,0.48422 3.00266,0.90665c0.67923,0.19537 1.3241,0.36761 1.938,0.51901c1.1431,0.28189 1.68504,0.39758 2.72334,0.61166c1.00439,0.20709 1.99866,0.40137 2.952,0.59201c0.44916,0.08981 1.28738,0.16861 2.63467,0.52933c0.75323,0.20166 1.74619,0.74762 2.12799,0.93332c0.88278,0.42935 1.36719,0.66425 2.40332,1.09c0.52139,0.21423 2.0386,0.72125 2.96402,0.88651c0.42789,0.07642 1.59995,0.15939 2.59,0.17151c0.828,0.01013 1.60135,0.00836 2.66666,0.33334c0.64886,0.19794 1.32883,0.52618 2.052,0.85199c0.73282,0.33017 1.78961,0.80328 2.79999,1.18933c0.67352,0.25732 1.38525,0.50601 2.55734,0.9465c0.86359,0.32455 1.3038,0.50546 2.20667,0.8175c0.87869,0.30368 2.10461,0.63638 2.83633,0.7515c0.67029,0.10544 1.61755,0.15854 2.51401,0.33118c0.88608,0.17065 1.67801,0.45923 2.73099,0.69464c0.7128,0.15936 1.63916,0.45602 2.32401,0.69467c0.58374,0.2034 1.73029,0.49295 2.66501,0.69385c0.50259,0.10803 1.55304,0.32278 2.08398,0.45267c1.56949,0.38391 2.05753,0.5538 2.99551,0.89551c0.92545,0.33716 1.38007,0.54382 2.35416,0.86331c1.03925,0.34085 2.1983,0.60306 2.80469,0.73584c0.61761,0.13525 1.24625,0.25122 2.48398,0.55801c0.60825,0.15076 1.77081,0.49387 2.80734,0.95947c0.50378,0.22629 1.47058,0.75323 1.96268,1.01602c0.50223,0.26822 2.15085,1.05786 2.77332,1.29282c0.64688,0.24417 1.32312,0.4632 2.01602,0.66452c0.69647,0.20239 1.39166,0.40057 2.76266,0.68533c1.26456,0.26263 1.84909,0.3392 2.91632,0.46664c0.49649,0.0593 1.45184,0.13522 2.38501,0.27335c0.97144,0.14377 2.00122,0.39532 2.53101,0.53732c1.06454,0.28534 1.57742,0.45673 2.56497,0.72668c1.24854,0.34131 1.91553,0.45175 2.73203,0.58267c1.22974,0.19717 1.76743,0.33072 2.61731,0.59598c1.19461,0.37286 1.7905,0.58215 2.66852,0.88934c0.83789,0.29315 1.60611,0.586 2.54166,1.02084c0.49252,0.22891 1.62091,0.8027 2.289,1.13184c0.70984,0.3497 1.43445,0.71188 2.5235,1.18066c0.67548,0.29077 1.61774,0.65036 2.20502,0.80499c1.26437,0.33289 1.96524,0.33618 2.64566,0.44565c1.00943,0.16241 1.85321,0.43622 2.47766,0.56335c1.35129,0.27515 2.08606,0.30524 2.8175,0.33182c0.71072,0.02582 1.97751,0.02014 2.9375,0.02084c0.91666,0.00067 1.74493,0.22995 2.38065,0.42532c0.75592,0.2323 2.01398,0.51489 2.66101,0.55383c1.01889,0.06131 1.85919,0.04773 2.81235,0.30618c0.77808,0.211 1.33728,0.42227 2.52933,0.81448c0.59949,0.19724 1.48953,0.51605 2.69998,0.73352c0.59595,0.10706 1.49985,0.15488 2.40002,0.16531c0.8996,0.01041 1.77866,0.00134 2.58566,0.00134c1.04233,0 1.98898,0.01065 2.58899,0.53867l0.478,-0.30484" id="svg_1" stroke-width="2" stroke="#000" fill="none"/>
  <path t="17024,17109,17141,17144,17166,17179,17199,17199" d="m263.01135,278.09091c1.80002,0 2.70001,0 3.60001,0c0.89999,0 1.7045,0 2.72168,0l0.72,0" id="svg_3" stroke-width="2" stroke="#000" fill="none"/>
  <path t="17758,17889,17889,17905,17905,17932,17953,17953,17953,17953,17953,17968,17968,17968,17968,17968,17968,17968,17968,17987,17987,17987,17987,17988,17988,17988,17988,17988,18003,18003,18003,18003,18003,18003,18003,18003,18003,18011,18011,18011,18011,18011,18011,18011,18011,18011,18032,18032,18032,18032,18032,18032,18044,18044,18044,18044,18044,18044,18061,18061,18061,18061,18061,18061,18078,18078,18078,18078,18078,18103,18103,18104,18104,18104,18104,18104,18105,18105,18120,18120,18120,18121,18121,18122,18131,18131,18131,18131,18131,18131,18131,18150,18150,18150,18150,18150,18167,18167,18167,18167,18167,18167,18167,18167,18187,18189,18189,18189,18189,18189,18189,18189,18189,18209,18209,18209,18209,18209,18209,18209,18209,18210,18230,18230,18230,18230,18230,18230,18230,18251,18251,18251,18251,18251,18251,18272,18272,18272,18273,18296,18297,18297,18297,18297,18317,18317,18317,18317,18318,18318,18339,18339,18339,18340,18340,18360,18360,18360,18360,18361,18361,18397,18398,18398,18398,18398,18411,18411,18411,18411,18447,18448,18448,18461,18461,18461,18461,18483,18483,18483,18516,18517,18517,18527,18527,18527,18547,18547,18547,18568,18568,18568,18592,18593,18626,18659,18675,18675,18759,19140,19140,19155,19195,19196,19211,19211,19211,19234,19234,19234,19235,19257,19257,19301,19302,19302,19394,19394,19476,19492,19492,19656,19701,19728,19745,19745,19769,19769,19770,19770,19788,19788,19789,19811,19811,19832,19832,19832,19853,19854,19876,19902,19927,19927,20026,20026,20172,20206,20229,20245,20245,20266,20267,20267,20286,20287,20287,20319,20320,20331,20332,20354,20354,20376,20376,20376,20414,20414,20428,20428,20451,20451,20451,20451,20471,20471,20472,20495,20496,20496,20516,20517,20517,20539,20539,20539,20561,20562,20562,20598,20599,20599,20604,20604,20605,20642,20642,20650,20650,20651,20651,20671,20672,20672,20672,20672,20711,20711,20711,20712,20728,20729,20729,20729,20754,20754,20755,20755,20755,20782,20783,20783,20783,20794,20795,20816,20816,20816,20816,20839,20839,20840,20840,20875,20875,20875,20875,20893,20894,20894,20919,20944,20952,20952,20989,20990,20990,21011,21012,21012,21012,21043,21049,21071,21071,21102,21103,21116,21116,21116,21139,21181,21181,21196,21235,21253,21318,21318,21358,21380,21410,21429,21429,21429,21450,21451,21451,21472,21472,21473,21473,21510,21510,21511,21511,21538,21539,21539,21540,21540,21541,21560,21560,21561,21561,21561,21561,21562,21562,21590,21590,21591,21591,21593,21593,21593,21597,21598,21598,21598,21599,21599,21599,21620,21620,21620,21621,21621,21621,21644,21644,21645,21645,21645,21646,21646,21646,21666,21666,21666,21667,21667,21667,21667,21668,21668,21689,21689,21689,21690,21690,21690,21690,21691,21691,21712,21712,21712,21713,21713,21713,21713,21741,21743,21743,21743,21744,21745,21756,21757,21757,21757,21758,21783,21783,21784,21784,21784,21785,21805,21806,21806,21806,21806,21807,21832,21832,21833,21850,21851,21851,21878,21879,21918,21958,22006,22006,22029,22029,22030,22061,22096,22111,22134,22135,22170,22182,22183,22217,22217,22217,22249,22530,22563,22578,22579,22601,22602,22602,22628,22628,22629,22629,22653,22654,22654,22672,22672,22695,22696,22696,22725,22726,22761,22766,22797,22798,22845,22846" d="m276.01135,272.09091c1.83603,0 2.60135,0 3.59552,0c0.91916,0 1.80722,-0.03107 2.90448,0.16666c0.56293,0.10144 1.23694,0.27896 2.00403,0.552c0.88013,0.31329 1.83661,0.76785 2.87198,1.33734c0.56039,0.30823 1.13818,0.65286 1.74899,1.0065c0.63983,0.37042 1.30817,0.75928 2.01901,1.14151c1.51328,0.81372 2.33884,1.20151 3.19333,1.59467c0.87518,0.40268 1.77338,0.79364 2.6835,1.18048c0.91257,0.38788 1.82547,0.76419 2.72852,1.1355c1.75024,0.71967 2.58688,1.06149 3.392,1.40134c0.77921,0.32889 1.53149,0.65387 2.25449,0.98401c0.7023,0.32068 1.38196,0.64185 2.02951,0.98401c1.25253,0.66187 1.83493,1.03204 2.40399,1.39865c0.5596,0.3605 1.09912,0.73135 1.629,1.0965c0.52075,0.35886 1.02817,0.7178 1.539,1.05151c0.99405,0.64935 1.99777,1.20575 2.49817,1.45499c0.97687,0.48657 1.46814,0.69385 2.41916,1.11166c0.91833,0.40347 1.80453,0.80011 2.67068,1.21335c0.43643,0.20822 1.32477,0.64594 1.784,0.87466c1.47403,0.73413 1.99683,0.99832 2.53149,1.26282c1.07736,0.53296 1.60873,0.79849 2.64584,1.2825c0.94992,0.44333 1.80368,0.80676 2.60931,1.12933c0.82632,0.33087 1.27753,0.49268 2.84399,1.14001c0.62967,0.26022 1.30484,0.55145 2.01602,0.86249c0.73685,0.32224 1.48502,0.65607 2.23199,0.9975c0.73703,0.33691 1.45389,0.66138 2.75198,1.30667c0.57416,0.2854 1.57376,0.82242 2.01602,1.08267c0.83423,0.49091 1.6326,1.01776 2.48398,1.58401c0.9527,0.63364 1.45801,0.97198 1.97601,1.31732c0.52399,0.34933 1.56601,1.04401 2.07199,1.38135c0.952,0.63467 1.79614,1.20462 2.57602,1.70667c0.74832,0.48175 1.12439,0.72635 2.37598,1.42798c0.95551,0.53564 1.49365,0.80472 2.06134,1.10135c0.60495,0.3161 1.25089,0.65024 1.93802,1.008c0.73157,0.38086 2.33466,1.22278 3.20682,1.68784c0.91055,0.48553 1.8443,0.98846 2.78851,1.5015c0.94345,0.51263 1.87146,1.02121 2.77048,1.5195c0.85962,0.47644 2.4025,1.3468 3.06351,1.72934c0.59488,0.3443 1.13174,0.66211 1.62601,0.95248c0.46176,0.27127 0.90244,0.52942 1.33801,0.77252c0.43646,0.24359 1.37103,0.73361 2.44464,1.24615c0.57629,0.27512 1.17517,0.54959 1.78351,0.83551c0.61435,0.28876 1.83777,0.86298 2.97916,1.47916c0.53986,0.29144 1.52573,0.88828 1.98135,1.17868c0.85388,0.54425 1.22763,0.84113 2.35199,1.48798c0.67114,0.38611 1.67331,0.81955 2.31934,1.13867c1.02499,0.50635 1.73593,0.95908 2.48334,1.45599c0.38654,0.25699 1.15714,0.80814 2.36398,1.57202c0.39655,0.25101 1.1983,0.72137 2.02084,1.14581c0.83023,0.42841 1.26065,0.62814 2.60049,1.22101c0.46136,0.20416 1.40753,0.60272 2.35333,1.03583c0.47449,0.21729 1.86273,0.92368 2.30383,1.18533c0.87262,0.51764 1.28616,0.80307 2.11084,1.35333c0.80994,0.54044 1.60455,1.06894 2.40933,1.54001c0.78488,0.45941 1.56613,0.8732 1.94418,1.08084c1.09283,0.60025 2.09662,1.19815 2.71548,1.58365c0.58109,0.36197 1.61465,1.01016 2.327,1.39551c0.71875,0.38882 1.548,0.79202 2.18268,1.10934c0.68268,0.34134 1.72711,0.8624 2.69867,1.34933c0.56293,0.28214 1.33176,0.60779 2.33331,1.33331c0.6225,0.45093 1.15158,1.02087 1.83334,1.66669c0.69589,0.65921 1.20898,0.9975 2.22,1.36798c0.62631,0.22952 1.67035,0.50217 2.61334,0.96533c0.57819,0.284 1.19983,0.91653 2.16666,1.5c0.71255,0.43002 1.51242,0.86075 2.36667,1.24933c0.76309,0.34714 1.47794,0.78796 2.32083,1.08401c0.7836,0.27524 1.61868,0.69501 2.59384,0.91467c0.86768,0.19547 1.55774,0.0589 2.65601,0.08798c0.7717,0.02045 1.36673,0.02209 2.52914,0.44019c0.61426,0.22095 1.46375,0.74319 2.01483,1.07449c0.99792,0.59995 1.89688,1.04205 2.51868,1.64932c0.60406,0.58997 0.98727,1.405 1.992,1.772c0.66269,0.24207 1.63324,0.66864 2.49582,0.94c0.79227,0.24924 1.14807,0.74124 1.68335,1.41232c0.33847,0.42432 1.18112,-0.51147 1.66751,-0.92697c0.84265,-0.71985 1.59171,-1.19669 2.11331,-1.57468c0.53448,-0.3873 1.52783,-1.18973 2.19385,-1.76849c0.6181,-0.53714 1.44394,-1.10187 2.18481,-1.64618c0.69373,-0.50967 1.15967,-1.24072 1.72,-1.89066c0.55286,-0.64124 1.24643,-1.19183 2.35886,-1.42685c0.84052,-0.17758 1.75644,-0.22482 2.39316,-0.66782c0.84708,-0.58936 1.52054,-1.00424 2.34216,-1.26785c0.47162,-0.15131 -0.38519,-0.01736 -1.28717,-0.13049c-0.67581,-0.08475 -1.70251,-0.69812 -2.21182,-1.01184c-0.79913,-0.49225 -1.78925,-1.10233 -2.45834,-1.45831c-0.61539,-0.32739 -1.63364,-0.79004 -2.36365,-1.22086c-0.79202,-0.46741 -1.33093,-1.02292 -2.07852,-1.71066c-0.5343,-0.49152 -1.33487,-1.09247 -2.09949,-1.56848c-0.5224,-0.32523 -1.55365,-0.79388 -2.4375,-1c-0.87149,-0.20322 -1.55142,-0.57715 -2.375,-1.1875c-0.67218,-0.49814 -1.19232,-0.86105 -2.06934,-1.34933c-0.88196,-0.49103 -1.7941,-0.84232 -2.36133,-1.10934c-1.08441,-0.51047 -1.77963,-1.02637 -2.42535,-1.54935c-0.81168,-0.65741 -1.44196,-1.02341 -2.15347,-1.57797c-0.67291,-0.52448 -1.12573,-1.29788 -1.62653,-1.76334c-0.73187,-0.68024 -1.55176,-0.96246 -2.34799,-1.28268c-0.99902,-0.40176 -1.69208,-0.70505 -2.36667,-1.08667c-1.01343,-0.5733 -1.54044,-0.92581 -2.30615,-1.46198c-0.87866,-0.61526 -1.49228,-1.17529 -2.34317,-1.81934c-0.67212,-0.50873 -1.22363,-0.86307 -1.83282,-1.23785c-0.9917,-0.61008 -1.71695,-0.99713 -2.45917,-1.39548c-0.74847,-0.4017 -1.49774,-0.78772 -2.55319,-1.39984c-0.66885,-0.38791 -1.29224,-0.79398 -1.91699,-1.14301c-1.1893,-0.66443 -1.82285,-0.88535 -2.74051,-1.35449c-0.65991,-0.33737 -1.69028,-1.06073 -2.04797,-1.35602c-0.75192,-0.6207 -1.11288,-0.97098 -1.86334,-1.64581c-1.08151,-0.97253 -1.75461,-1.54102 -2.39532,-2.00751c-0.56604,-0.41211 -1.53888,-0.92755 -2.20667,-1.25333c-1.00879,-0.49213 -1.40948,-0.9064 -2.19235,-1.54001c-0.55902,-0.45242 -1.44153,-1.048 -2.35834,-1.34201c-0.59082,-0.18945 -1.53699,-0.33737 -2.39981,-0.82233c-0.62677,-0.35226 -1.1925,-0.8634 -2.01486,-1.65433c-0.77628,-0.74658 -1.18976,-1.25314 -1.83865,-1.79868c-0.91547,-0.76965 -1.54926,-1.31165 -2.28967,-1.76151c-0.6832,-0.4151 -1.58527,-0.41425 -2.36765,-0.99316c-0.44247,-0.32739 -1.34714,-1.13986 -2.13303,-1.71899c-0.509,-0.37512 -1.09256,-1.09164 -2.15717,-1.39999c-0.88412,-0.25607 -1.75607,-0.13596 -2.52448,-0.61966c-0.72015,-0.45331 -1.39413,-0.89203 -2.37469,-1.38934c-0.59467,-0.30161 -1.35278,-0.68518 -2.24283,-1.2955c-0.76596,-0.52524 -1.7186,-0.30948 -2.39999,-0.81885c-0.64688,-0.48355 -0.67865,-1.64847 -1.45715,-2.10699c-0.63406,-0.37344 -1.5,-0.76828 -2.40002,-0.77866c-0.80447,-0.00925 -1.66797,-0.33163 -2.336,-0.85068c-0.56961,-0.44257 -1.56079,-1.008 -2.20566,-1.12848c-0.72379,-0.13522 -1.92883,-0.30557 -2.63034,-0.44617c-0.74918,-0.15015 -1.52734,-0.31744 -2.72815,-0.45352c-0.80252,-0.09094 -1.6239,-0.11569 -2.457,-0.23099c-1.31592,-0.18213 -1.77158,-0.3107 -2.70901,-0.60901c-1.0043,-0.31958 -1.51822,-0.53409 -2.05264,-0.74731c-1.72021,-0.68637 -2.32367,-0.95578 -2.9505,-1.21652c-0.64017,-0.2663 -1.29007,-0.5369 -1.95151,-0.79648c-1.32718,-0.52087 -1.98962,-0.77295 -3.3125,-1.1875c-0.64185,-0.20114 -1.27924,-0.36829 -1.905,-0.52802c-1.21857,-0.31104 -1.81851,-0.4433 -2.39999,-0.61066c-1.70609,-0.49103 -2.24719,-0.7215 -3.3045,-1.20001c-0.52478,-0.23752 -1.03336,-0.50089 -2.05267,-0.98932c-0.50171,-0.24042 -2.00204,-0.87091 -2.50717,-1.03735c-1.01337,-0.33392 -1.5401,-0.46417 -2.61166,-0.77332c-0.55692,-0.16068 -1.72101,-0.52222 -2.32901,-0.73752c-1.28439,-0.4548 -1.94958,-0.71957 -2.63998,-0.978c-0.70956,-0.26563 -1.43729,-0.53879 -2.19,-0.79648c-1.55457,-0.53217 -2.36795,-0.76663 -3.19601,-0.99734c-0.83896,-0.23373 -1.69125,-0.45227 -2.55148,-0.66449c-0.86377,-0.2131 -1.73093,-0.41669 -2.5965,-0.61951c-1.71585,-0.40204 -2.56097,-0.59949 -3.392,-0.80133c-0.81598,-0.19818 -1.61282,-0.39688 -2.38651,-0.60001c-0.75031,-0.19699 -1.47324,-0.39249 -2.1615,-0.60001c-1.2803,-0.38605 -1.85837,-0.59604 -2.40402,-0.79868c-0.52032,-0.19321 -1.49554,-0.58414 -1.96799,-0.76532c-0.93326,-0.35794 -1.90042,-0.68274 -2.93732,-0.952c-0.53244,-0.13824 -1.61346,-0.38007 -2.14667,-0.50934c-1.03525,-0.25101 -1.99597,-0.51758 -2.83469,-0.85867c-0.78531,-0.31937 -1.51566,-0.72018 -2.30399,-1.03198c-1.29398,-0.51181 -1.80054,-0.6088 -2.84534,-0.85867c-0.54327,-0.12991 -1.10156,-0.2384 -2.22134,-0.50934c-1.11768,-0.27045 -2.19403,-0.59384 -2.71066,-0.76868c-0.99139,-0.33551 -1.45599,-0.51212 -2.31332,-0.86331c-1.09827,-0.44989 -1.95538,-0.85858 -2.70102,-1.1795c-0.97162,-0.41818 -1.76486,-0.7135 -2.54648,-0.94733c-0.86063,-0.25748 -1.83072,-0.19666 -2.60983,-0.39319c-0.87198,-0.21997 -1.72131,-0.84378 -2.42084,-0.96399c-0.97891,-0.16821 -1.75552,-0.46002 -2.49384,-0.716c-0.94998,-0.32938 -1.68863,-0.82721 -2.58533,-1.16251c-0.85065,-0.31808 -1.70001,-0.12149 -2.53601,-0.12149c-1.02567,0 -1.82565,0 -2.78516,0c-0.79352,0 -1.57736,0.13025 -2.60684,-0.00134c-0.87122,-0.11136 -0.56317,-0.48837 0.23065,-0.07999c0.74542,0.38348 1.56943,0.93158 2.05869,1.36798c0.52698,0.47003 1.56027,1.39609 2.05466,1.74402c0.66885,0.47073 1.37296,0.84384 2.36667,1.452c0.80054,0.48996 1.27219,0.88159 2.34933,1.34933c0.75235,0.32669 1.74176,0.72803 2.21866,1.02933c0.75339,0.47598 1.55026,1.1955 2.328,1.69202c0.77399,0.49414 1.72134,0.45114 2.52133,0.66815l0.60001,0.483l0.72134,0.6955l0.54932,0.39999" id="svg_4" stroke-width="2" stroke="#000" fill="none"/>
  <path t="24763,24857,24897,24916,24916,24916,24927,24927,24927,24927,24927,24927,24950,24950,24950,24950,24950,24950,24961,24962,24962,24962,24977,24977,24977,24997,24997,24997,24997,25017,25027,25027,25053,25063,25063,25083,25083,25099,25117,25117,25127,25127,25149,25161,25183,25183,25200,25200,25211,25227,25245,25245,25245,25267,25267,25268,25278,25278,25296,25296,25296,25314,25314,25314,25314,25329,25346,25347,25347,25368,25368,25383,25383,25400,25401,25415,25415,25427,25427,25427,25444,25444,25461,25477,25477,25499,25500,25500,25511,25511,25511,25511,25527,25527,25527,25544,25544,25544,25567,25567,25567,25567,25577,25577,25594,25594,25594,25611,25611,25611,25632,25633,25645,25645,25646,25661,25684,25685,25694,25694,25694,25711,25711,25711,25727,25727,25750,25767,25783,25800,25811,25811,25829,25830,25844,25844,25867,25883,25899,25911,25911,25927,25927,25944,25973,25973,25984,26437,26494,26525,26526,26542,26552,26553,26561,26577,26577,26600,26601,26601,26611,26611,26611,26611,26628,26628,26628,26628,26651,26651,26651,26651,26651,26661,26661,26661,26662,26683,26683,26700,26701,26701,26711,26711,26712,26726,26727,26727,26745,26745,26745,26789,26789,27858,27873,27873,27917,27958,27958,27958,27989,27990,28002,28003,28011,28027,28043,28044,28044,28061,28061,28077,28077,28077,28094,28094,28094,28094,28114,28114,28116,28116,28139,28140,28140,28144,28144,28160,28161,28187,28187,28203,28204,28204,28221,28222,28222,28228,28228,28254,28255,28255,28261,28261,28283,28304,28313,28313,28313,28628,28628,28643,28671,28672,28688,28688,28704,28705,28711,28711,28738,28738,28738,28766,28767,28767,28783,28783,28803,28810,28833,28844,28871,28877,28877,28896,28896,28912,28912,28912,28938,28938,28939,28944,28970,28997,29029,29053,29077,29077,29252,29252,29252,29267,29291,29307,29312,29338,29346,29346,29346,29370,29371,29371,29379,29379,29396,29396,29397,29412,29412,29412,29437,29437,29437,29446,29446,29447,29463,29463,29463,29463,29464,29478,29478,29478,29495,29495,29520,29521,29521,29528,29528,29545,29570,29571,29577,29578,29578,29599,29600,29600,29613,29613,29613,29628,29645,29645,29662,29662,29662,29662,29678,29678,29678,29679,29704,29704,29704,29720,29721,29728,29728,29745,29746,29746,29762,29762,29762,29779,29779,29814,29815,29815,29815,29835,29836,29836,29836,29863,29863,29864,29864,29864,29865,29877,29877,29877,29878,29897,29897,29897,29897,29919,29919,29919,29920,29939,29939,29940,29940,29940,29975,29976,30003,30003,30003,30004,30031,30032,30032,30032,30049,30049,30125,30209,30269,30309,30334,30382,30413,30414,30433,30620" d="m316.01135,240.09091c1.80002,0 2.68033,0.00064 3.54333,0.22166c0.75854,0.19426 1.35388,0.41435 2.79001,0.94501c0.4108,0.15179 1.28159,0.48904 2.20834,0.85416c0.47998,0.18909 1.461,0.58051 2.45831,0.97917c0.99734,0.39867 1.49051,0.5968 2.45834,0.97917c0.46942,0.18546 1.36957,0.53932 2.59851,0.9995c0.72348,0.27092 1.40652,0.46709 2.25516,0.90533c1.03983,0.53699 1.45975,0.95552 2.14066,1.52049c0.96439,0.80017 1.48306,1.20531 2.28601,1.72351c0.48477,0.31285 1.62534,0.73071 2.46268,1.15599c0.72128,0.36633 1.72626,0.4173 2.46533,0.88268c0.68439,0.43094 1.16837,1.28218 1.85065,1.54799c0.95346,0.37146 1.82861,0.45686 2.65735,0.89601c0.83145,0.44058 1.40054,0.98247 2.22534,1.364c0.88596,0.40982 1.6954,0.68823 2.39999,1.19467c0.73718,0.52988 1.07303,1.17355 1.84283,1.87881c0.58701,0.53778 1.43121,0.88712 2.18915,1.01318c0.57425,0.09549 1.77264,0.4921 2.34668,0.78934c0.81793,0.42352 1.84995,0.99237 2.62668,1.19748c0.9614,0.25388 1.74429,0.47397 2.30365,0.7135c1.20935,0.51788 1.78229,0.88605 2.34933,1.2175c0.77136,0.45087 1.89465,0.91275 2.70834,1.1875c0.68359,0.2308 1.42526,0.65411 2.43332,1.12885c0.5947,0.28006 1.6041,0.5585 2.37918,0.7045c1.00601,0.18951 1.74512,0.75595 2.6825,0.94284c0.5755,0.11475 1.75995,0.03879 2.55301,0.06781c0.77637,0.02841 1.79379,0.3143 2.47632,0.63669c0.80811,0.38171 1.79568,0.3526 2.55566,0.35266c1.17484,0.00009 1.71222,-0.02643 2.564,0.03601c1.1933,0.08746 2.08896,0.31824 2.68933,0.46399c0.89944,0.21838 1.7977,0.40472 2.68936,0.46399c0.85217,0.05664 1.89014,0.01468 2.59598,0.04666c0.98584,0.04468 1.85846,0.20517 2.86536,0.41467c0.69943,0.14554 1.37662,0.32114 2.57864,0.49066c0.72662,0.10248 1.77353,0.24179 2.58133,0.50934c0.6489,0.2149 1.60825,0.48041 2.41467,0.53867c0.82047,0.05927 1.85599,-0.0173 2.75385,0.05685c1.02768,0.0849 1.79401,0.44855 2.53549,0.69516c0.96774,0.32184 1.81006,0.23691 2.73199,0.32001c0.92548,0.08344 1.71304,0.29935 2.52802,0.57465c1.06866,0.36099 1.75653,0.71475 2.41467,0.95334c0.99484,0.36063 1.87955,0.22455 2.70081,0.78867c0.67554,0.46402 1.41315,0.57166 2.31119,0.64868c0.9758,0.08368 1.59311,0.51065 2.63199,0.832c0.65195,0.20166 1.65067,0.16666 2.51401,0.16666c0.89551,0 1.87628,-0.17319 2.71399,0.03601c0.8725,0.2179 1.53204,0.72433 2.53418,0.91132c0.74188,0.13843 1.57318,0.54944 2.40448,0.88602c0.7572,0.30658 1.42896,0.53735 2.22153,1.04517c0.74673,0.47842 1.80823,0.27417 2.47849,0.06433c0.88242,-0.27625 1.41086,-1.26852 2.10001,-1.6575c0.76633,-0.43256 1.70883,-0.16495 2.60449,-0.39969c0.83276,-0.21823 1.40454,-0.75961 2.05267,-1.29465c0.96176,-0.79395 1.49606,-1.19022 2.04282,-1.591c0.81689,-0.59882 1.57846,-1.20081 2.29602,-1.81067c0.50095,-0.42575 1.04315,-0.89639 2.06815,-1.61066c0.7868,-0.54828 1.2207,-0.80688 2.09586,-1.35333c0.87155,-0.54422 1.70932,-1.05453 2.46664,-1.53867c0.68243,-0.43625 1.29807,-0.81522 2.24002,-1.52002c0.68561,-0.51297 1.49387,-1.17697 2.17999,-1.57733c0.60968,-0.35574 1.57245,-0.91415 2.10599,-1.23749c0.81863,-0.49612 1.87183,-1.04828 2.59467,-1.24649c0.67096,-0.18399 1.63235,-0.41254 2.40085,-0.81067c0.80502,-0.41708 1.7207,-0.95581 2.51016,-1.27383c0.74377,-0.29965 1.57764,-0.75977 2.34167,-1.10486c0.76813,-0.34695 1.51312,-1.03098 2.22083,-1.41599c0.57397,-0.31229 1.59174,-0.76965 2.32199,-1.20001c0.79166,-0.46655 1.60577,-0.76537 2.30002,-1.35266c0.68503,-0.5795 0.78278,-1.50046 1.21851,-2.198c0.47211,-0.7558 1.06174,-1.65941 1.63864,-2.20766c0.75577,-0.71825 1.55438,-1.04134 2.10135,-1.51234c0.8573,-0.73824 1.20956,-1.30115 1.63467,-1.85066c0.44955,-0.58113 1.18097,-1.48222 1.71216,-2.07417c0.78436,-0.87405 1.30859,-1.39848 1.909,-2.18283c0.50397,-0.65839 0.97299,-1.49255 1.62683,-2.03633c0.64435,-0.53589 1.61615,-1.10622 2.26868,-1.58533c0.71469,-0.52477 1.48923,-0.86418 2.22617,-1.62134c0.4516,-0.464 0.94479,-1.26091 1.78915,-1.79466c0.6987,-0.44168 1.54437,-0.67401 2.26266,-1.36934c0.6691,-0.64769 1.11191,-1.53534 1.62201,-2.10567c0.49927,-0.55821 1.3045,-1.25696 2.146,-1.40633c0.8894,-0.15787 1.70193,-0.55252 2.52267,-1.10284c0.66315,-0.44467 1.25269,-0.73381 1.92151,-1.54799c0.49863,-0.60699 1.34451,-1.46097 2.05713,-0.99017c0.60492,0.39964 1.07306,1.48 1.5,2.15434c0.47522,0.75067 1.09033,1.36314 1.68402,1.96933c0.52032,0.53127 1.362,1.50615 1.76337,2.11467c0.39044,0.59196 1.05975,1.6123 1.57794,2.18933c0.50836,0.56607 1.39197,1.24608 1.81305,1.90616c0.46991,0.7366 0.24951,1.8223 0.88251,2.3045c0.67706,0.51579 1.50763,1.01332 2.04712,1.56934c0.58984,0.60789 1.185,1.41138 1.48267,2.092c0.3866,0.88397 0.81195,1.59923 1.30121,2.3905c0.48273,0.78073 0.94495,1.45984 1.2865,2.2865c0.40833,0.98824 0.73761,1.69014 1.38696,2.23633c0.63562,0.53464 1.51819,0.80214 1.85333,1.74684c0.2373,0.66893 0.26276,1.68724 0.54669,2.46783c0.26715,0.73431 0.93976,1.76727 0.55383,2.68982c-0.30017,0.71759 -0.88885,1.3313 -1.43652,1.92084c-0.72266,0.77789 -1.56647,0.86581 -2.29199,1.23599c-0.94397,0.48163 -1.41119,1.04156 -1.99884,1.71133c-0.70178,0.79987 -1.32855,1.06674 -2.08514,1.81934c-0.61029,0.60709 -0.86578,1.27963 -1.65198,2.23199c-0.50281,0.60907 -1.0899,1.1525 -1.91602,1.71735c-0.60168,0.41138 -1.29523,0.74979 -2.284,1.37067c-0.55719,0.34985 -1.15192,0.72668 -2.3147,1.67999c-0.61176,0.50156 -1.19586,1.05338 -1.72797,1.64401c-0.51855,0.57562 -1.14941,1.47812 -1.4577,2.08032c-0.42139,0.82309 -0.72351,1.84155 -1.22498,2.43701c-0.65155,0.77368 -1.46753,1.01373 -2.10535,1.55734c-0.80191,0.68347 -1.13571,1.45499 -1.884,2.064c-0.66446,0.54077 -1.07727,1.12314 -1.76666,2.05066c-0.46231,0.62201 -1.04266,1.20132 -1.83334,2c-0.39664,0.40067 -1.10721,0.9097 -1.66666,2c-0.38113,0.7428 -0.27747,1.58664 -0.76932,2.36401c-0.53027,0.83804 -1.23602,1.30798 -1.89734,1.96933c-0.67648,0.67651 -1.1875,1.1875 -1.71851,1.71848c-0.78152,0.78149 -1.50174,1.48184 -1.90649,1.94818c-0.57736,0.66522 -1.1655,1.67847 -1.40567,2.21466c-0.34476,0.76971 -0.79492,1.84781 -1.336,2.47635c-0.56396,0.65518 -1.2001,1.2688 -1.784,2.07831c-0.35031,0.48566 -0.88345,1.27042 -1.49451,2.30917c-0.39877,0.67789 -0.7056,1.32285 -1.22284,2.3215c-0.31262,0.60361 -0.95447,1.60901 -1.45584,2.2045c-0.35605,0.42288 -0.96951,1.06113 -1.74414,2.0835c-0.42346,0.5589 -0.84036,1.19101 -1.28403,1.884c-0.74557,1.16461 -0.9993,1.59561 -1.53998,2.47867c-0.27502,0.44916 -0.82071,1.34479 -1.09067,1.78134c-0.75885,1.22711 -1.21939,1.95416 -1.66318,2.6055c-0.40952,0.60104 -1.21216,1.64896 -1.62534,2.10983c-0.6185,0.68991 -1.08835,1.12921 -2.0795,2.13934c-0.5455,0.55594 -1.0986,1.15332 -1.36334,1.47498c-0.81079,0.98511 -1.27576,1.71381 -1.70599,2.44235c-0.40936,0.69321 -0.68457,1.39148 -1.4985,2.53351c-0.37619,0.52786 -1.09015,1.18741 -1.75348,1.87683c-0.50131,0.52103 -1.04166,1.05753 -1.66135,1.98566c-0.57382,0.85944 -0.75168,1.49338 -1.216,2.22934c-0.53357,0.84573 -1.30859,1.29794 -2.00751,2.06616c-0.58188,0.63959 -1.05103,1.28186 -1.72049,1.72983c-0.73544,0.49213 -1.58932,0.89066 -2.38934,1.14133l-0.64282,0.53784l-0.35718,0.7955l-0.36166,0.79999" id="svg_5" stroke-width="2" stroke="#000" fill="none"/>
  <path t="31532,31638,31638,31654,31654,31677,31677,31699,31699,31699,31699,31716,31716,31716,31716,31716,31732,31732,31732,31732,31750,31750,31750,31761,31761,31761,31782,31794,31795,31815,31815,31832,31849,31849,31861,31862,31877,31878,31899,31899,31913,31913,31913,31927,31927,31927,31944,31944" d="m377.01135,334.09091c0.16669,-1.83334 0.88669,-1.99933 1.83603,-2c0.76532,-0.00055 1.76849,-0.00015 2.62115,0c0.96484,0.00018 1.81247,0.00345 2.46149,0.07199c0.74112,0.07828 2.04642,0.36588 2.53201,0.496c1.01743,0.27267 1.52618,0.44 2.53415,0.72668c1.34552,0.38269 2.07013,0.57581 2.95267,0.66367c0.7399,0.07367 1.74985,-0.00009 2.5625,0.08331c0.82184,0.08435 1.82916,0.50363 2.45834,0.95834c0.57004,0.41196 1.54181,0.95517 2.52567,1.00134c0.6908,0.03244 1.58926,0.35654 2.31467,0.71466c0.80042,0.39517 1.69293,0.55573 2.41202,0.89465c0.9982,0.47046 1.74359,0.93582 2.62265,1.22269c0.77472,0.25284 1.6409,0.48563 2.41333,0.74133c0.90726,0.30035 1.70764,0.35699 2.52802,0.45065c1.06116,0.12112 1.76816,0.32733 2.62082,0.62201l1.00317,0.26865l0.76532,0.10934" id="svg_6" stroke-width="2" stroke="#000" fill="none"/>
  <path t="33141,33256,33271,33295,33310,33310,33310,33310,33327,33328,33328,33328,33328,33328,33328,33347,33347,33347,33347,33347,33360,33360,33360,33360,33360,33360,33360,33379,33379,33379,33379,33379,33379,33379,33394,33394,33394,33394,33394,33415,33415,33415,33432,33432,33432,33432,33449,33449,33449,33465,33465,33465,33477,33477,33477,33477,33499,33499,33499,33499,33500,33515,33515,33515,33515,33515,33516,33516,33532,33532,33533,33533,33544,33544,33544,33565,33565,33565,33565,33566,33577,33577,33577,33596,33596,33596,33615,33615,33632,33654,33665,33665,33682,33710,33719,33742,33751,33767,33790,33838,33854,33854,33865,33882,33899,33899,33915,33934,33951,33967,33967,34043,34079,34094,34095,34126,34126,34135,34136,34144,34160,34177,34194,34214,34230,34249,34250,34265,34266,34278,34278,34278,34294,34310,34310,34310,34335,34335,34335,34335,34356,34389,34395,34395,34426,34426,34444,34460,34460,34477,34477,34494,34494,34528,34529,34529,34529,34544,34544,34544,34544,34544,34545,34577,34577,34578,34605,34605,34623,34662,34742,34742" d="m159.01137,206.09091c1.8,0 2.71597,-0.12675 3.54167,0.04167c0.82664,0.16862 1.48331,0.6826 2.08333,0.97916c0.70444,0.34816 2.03867,0.82368 2.5605,0.95767c1.12373,0.28854 1.7258,0.38924 2.33533,0.50067c1.22433,0.22385 1.83011,0.31053 2.97917,0.52083c1.04819,0.19183 2.01344,0.39948 2.47917,0.5c0.92188,0.19897 2.35388,0.50142 2.86383,0.60016c1.07076,0.20732 1.62949,0.30801 2.19867,0.42067c1.16835,0.23125 1.76489,0.34837 2.95833,0.64584c1.20282,0.2998 1.79538,0.4819 2.38933,0.64799c0.58974,0.16492 1.75035,0.48903 2.32533,0.616c1.65518,0.36551 2.19447,0.41594 3.21733,0.49733c0.4841,0.03851 1.39203,0.06186 2.56801,0.07201c0.93752,0.00809 1.75798,0.0058 2.83333,0.33333c0.64655,0.19693 1.31979,0.50217 2.30417,1.01851c0.87476,0.45885 1.44295,1.00404 2.32916,1.3615c0.77017,0.31064 1.59781,0.26729 2.52135,0.37067c1.03615,0.11598 1.77313,0.2616 2.53282,0.45767c0.78815,0.20341 1.98351,0.61429 2.78183,0.94366c0.8233,0.33968 1.23581,0.54286 2.11168,0.91916c1.41393,0.60745 1.92628,0.80022 2.45233,0.99284c1.06961,0.39165 1.60851,0.5742 2.67084,0.88832c0.50732,0.15001 1.89542,0.48792 2.69099,0.60451c0.70702,0.10362 1.67604,0.14697 2.87283,0.39517c0.61461,0.12746 1.23221,0.33382 2.56534,0.71466c0.71605,0.20456 1.45894,0.399 2.20799,0.60001c0.74159,0.19901 1.8029,0.50243 2.77867,0.78932c0.59952,0.17627 1.67859,0.45354 2.61066,0.58534c0.83351,0.11787 1.62984,0.32242 2.40001,0.59999c1.07239,0.38651 1.936,0.42534 2.836,0.42534c0.8,0 1.44633,0.33842 2.16667,0.83333c0.78145,0.53688 1.83333,0.16667 2.66666,0.16667c0.77734,0 1.76668,0 2.57733,0c0.91068,0 1.7775,-0.15724 2.70267,0.00133c0.84,0.14397 1.45299,0.95172 2.23851,0.99417c0.88971,0.04808 1.85193,-0.07762 2.74817,0.00467c0.91144,0.08368 1.43796,0.75969 2.39999,0.979c0.78464,0.17888 1.82133,0.02083 2.49998,0.02083c0.97867,0 1.884,0 2.82535,0c0.69067,0 1.60919,0.15643 2.22733,0.64734c0.61856,0.49124 1.7308,-0.0132 2.61401,0.51933c0.71362,0.4303 1.34564,0.74294 2.09048,0.89049c0.93341,0.18491 1.69171,0.65184 2.66385,0.82133c0.77594,0.13528 1.72433,0.12083 2.59982,0.12151c0.86499,0.00066 1.71249,0 2.38583,0c1.42667,0 2.10535,0 3.03082,0c0.79053,0 1.75198,-0.08344 2.66251,0.00017c0.91144,0.08368 1.50296,0.67215 2.384,0.91583c0.84247,0.23302 1.68594,0.57776 2.51599,0.91733c0.71671,0.2932 1.66351,0.11359 2.40451,0.22383c1.01147,0.15048 1.82593,0.56717 2.76218,0.94284c0.79938,0.32074 1.42026,0.53268 2.10931,0.81433c1.23065,0.50302 1.68863,0.72649 2.67752,1.18651c0.51224,0.2383 1.53131,0.71964 2.03131,0.93666c1.3403,0.58177 2.0694,0.82047 2.91101,1.02083c0.93427,0.22243 1.69351,0.61633 2.50418,1.01634l0.89999,0.37799l0.69998,0.48067l0.80002,0.16534" id="svg_7" stroke-width="2" stroke="#000" fill="none"/>
  <path t="36250,36382,36382,36392,36392,36392,36416,36417,36417,36427,36428,36428,36428,36445,36445,36445,36461,36461,36477,36500,36501,36501,36511,36511,36511,36511,36511,36528,36528,36528,36544,36544,36544,36544,36566,36567,36567,36567,36578,36578,36578,36594,36594,36594,36617,36617,36617,36633,36633,36651,36651,36651,36661,36661,36661,36678,36678,36678,36678,36702,36702,36711,36711,36711,36728,36728,36728,36745,36745,36763,36763,36763,36784,36784,36784,36794,36794,36794,36794,36810,36810,36810,36833,36833,36844,36844,36861,36861,36861,36877,36877,36878,36878,36901,36901,36901,36901,36911,36911,36911,36911,36911,36911,36911,36933,36933,36934,36934,36934,36934,36934,36944,36944,36944,36944,36945,36945,36945,36945,36960,36961,36961,36961,36961,36961,36977,36977,36977,36977,36999,37000,37000,37643,37658,37658,37685,37700,37701,37711,37711,37728,37728,37728,37745,37767,37767,37778,37778,37800,37822,37822,37838,37838,37854,37902,37926,37926,37936,37936,37951,37961,37984,38137,38137,38209,38225,38247,38261,38284,38294,38295,38295,38313,38313,38313,38313,38334,38334,38334,38345,38345,38361,38361,38384,38384,38384,38385,38399,38399,38399,38411,38411,38411,38411,38428,38428,38428,38428,38428,38445,38445,38445,38445,38446,38446,38461,38461,38462,38478,38478,38478,38495,38495,38495,38495,38518,38519,38534,38552,38552,38567,38578,38602,38612,38612,38635,38635,38653,38654,38677,38694,38694,38710,38710,38726,38737,38765,38789,38801" d="m315.01135,235.09091c1.84668,0 2.68677,0.01125 3.68402,-0.00133c0.81616,-0.0103 1.64655,-0.02142 2.63333,-0.28401c0.71692,-0.19078 1.44226,-0.54666 2.65201,-0.91333c0.68692,-0.20821 1.41248,-0.38353 2.14798,-0.51599c1.05661,-0.19028 2.03943,-0.22781 2.92102,-0.33801c1.04529,-0.13066 1.66534,-0.4758 2.62833,-0.78065c0.81018,-0.2565 1.66266,-0.16667 2.56116,-0.16667c1.1055,0 1.93884,0 2.37302,0c0.87833,0 1.73666,0 2.89914,0c0.9375,0 1.74002,0.00114 2.83334,0c0.63602,-0.00067 1.68866,-0.00212 2.41852,-0.05717c1.08392,-0.08177 1.7644,-0.21991 2.72733,-0.44283c0.61737,-0.14291 1.81851,-0.40475 2.71017,-0.464c0.85217,-0.05664 1.88931,-0.036 2.58533,-0.036c0.90933,0 1.90933,0 2.72531,0c0.81601,0 1.81601,0 2.5,0c1.16669,0 1.96069,0.05873 2.77469,-0.07201c1.07663,-0.17291 1.75601,-0.65985 2.45065,-1.07733c0.92065,-0.55331 1.72476,-0.75943 2.27466,-0.80899c0.81363,-0.07332 2.04733,-0.04167 2.72534,-0.04167c1.19617,0 2.01068,0 2.58533,0c1.18933,0 2.08035,0 2.91736,0c0.93866,0 1.78018,0.02005 2.60532,-0.16667c0.93964,-0.21263 1.70947,-0.52527 2.74551,-0.71199c0.70166,-0.12645 1.43536,-0.14696 2.56381,-0.34267c0.66565,-0.11545 1.70398,-0.36699 2.38934,-0.49467c1.19446,-0.22255 1.94699,-0.27199 2.65067,-0.28267c0.99988,-0.01518 1.82327,0.12199 2.98401,-0.168c0.69858,-0.17453 1.49222,-0.71928 2.20132,-0.79733c0.98401,-0.10831 1.99606,-0.03064 2.79001,-0.0405c0.84207,-0.01047 1.68979,-0.00293 2.84198,-0.16217c0.65521,-0.09055 1.53864,-0.36496 2.17233,-0.53783c1.15579,-0.31529 2.15277,-0.49818 2.70901,-0.60001c0.58777,-0.10759 1.83649,-0.32889 2.48401,-0.45267c0.65652,-0.1255 1.96936,-0.40393 2.61331,-0.564c1.27145,-0.31602 1.89542,-0.49585 2.52133,-0.658c0.62473,-0.16185 1.87906,-0.48012 3.16669,-0.6875c0.65231,-0.10506 1.31537,-0.17145 1.98151,-0.2235c1.32993,-0.1039 1.99051,-0.1237 2.642,-0.158c0.64053,-0.03372 2.4671,-0.1691 3.03781,-0.23582c0.55368,-0.06473 1.60919,-0.21809 2.60583,-0.36334c0.47803,-0.06967 1.84348,-0.24394 2.70001,-0.2955c0.80301,-0.04834 1.54733,-0.0549 2.823,-0.05716c0.7605,-0.00134 1.55518,0 2.54315,0c0.98401,0 1.67896,-0.09126 2.74734,0.0045c0.92981,0.08334 1.55811,0.47394 2.586,0.82883c0.77902,0.26897 1.50583,0.58919 2.16666,1.1875c0.53085,0.48064 1.49402,1.26082 1.87869,2.07933c0.28909,0.61511 0.34189,1.64328 0.92267,2.33051c0.58173,0.68834 1.39926,1.13828 1.79865,1.75467c0.60092,0.9274 1.11261,1.42493 2,1.84c0.82315,0.38503 1.57907,0.95525 2.21466,1.37466c0.86978,0.57396 1.02576,1.32162 1.62134,1.98933c0.61694,0.69167 1.34134,1.03511 1.78534,1.83217c0.37091,0.66583 1.13977,1.57451 0.74268,2.3425c-0.39316,0.76041 -0.64569,1.36299 -1.1355,2.136c-0.45471,0.71762 -1.41339,0.81697 -1.99918,1.05717c-1.35403,0.55525 -2.07706,0.88728 -2.78766,1.24283c-0.67865,0.33954 -1.53696,0.84071 -2.34433,1.35333c-0.57535,0.3653 -1.54184,0.573 -2.29868,0.73067c-1.02325,0.21317 -1.67297,0.55795 -2.73199,1.08267c-0.63474,0.3145 -1.31165,0.64923 -1.98001,1.008c-1.19583,0.64191 -1.81522,1.0923 -2.54465,1.578c-0.89075,0.59309 -1.50797,0.91129 -2.20453,1.24733c-0.74521,0.35951 -1.93414,0.84305 -2.73883,1.116c-0.40155,0.1362 -1.22113,0.37865 -2.05582,0.63667c-1.31213,0.40561 -1.76688,0.5603 -2.68649,0.89999c-0.91779,0.33902 -1.36234,0.51392 -2.20169,0.86334c-1.40567,0.58517 -1.95273,0.85851 -2.69833,1.17949c-0.97198,0.41844 -1.79767,0.70203 -2.36697,0.94051c-1.20123,0.50319 -1.79785,0.82982 -2.64767,1.364c-0.53461,0.33603 -1.34387,1.05481 -2.12033,1.55334c-0.78476,0.50388 -1.77805,0.59995 -2.40051,0.9675c-0.83508,0.49307 -1.24533,1.3378 -2.12082,1.47931c-0.90356,0.14606 -1.51245,0.64594 -2.384,1.19986c-0.67361,0.4281 -1.45508,0.95688 -2.10535,1.36398c-0.77026,0.48221 -1.69916,0.81494 -2.29599,1.23734c-0.74393,0.52649 -1.48703,1.0502 -2.09384,1.67783c-0.58035,0.60025 -1.42084,0.94617 -2.22083,1.43552l-0.89984,0.08548" id="svg_8" stroke-width="2" stroke="#000" fill="none"/>
  <path t="42551,42701,42717,42717,42742,42742,42742,42760,42760,42760,42784,42785,42785,42799,42799,42810,42837,42869,42885,42901,43224,43292,43307,43334,43334,43352,43353,43360,43360,43377,43377,43400,43415,43438,43438,43493,43493,43730,43870,43886,43910,43910,43933,43933,43949,43950,43966,43966,43979,43979,43993,44037,44248,44292,44326,44374,44384,44400,44401,44410,44410,44427,44427,44450,44450,44450,44461,44461,44461,44461,44477,44477,44477,44477,44493,44493,44493,44517,44517,44517,44534,44534,44534,44543,44543,44561,44577,44577,44600,44601,44601,44617,44627,44654,44928,44966,44989,44989,45005,45021,45021,45035,45043,45061,45084,45084,45100,45117,45141,45141,45142,45166,45205,45306,45306" d="m458.01135,291.09091c0.91736,0.28534 1.31458,1.02689 2.02084,1.5c0.7926,0.53094 1.50461,1.0369 1.94852,1.47067c0.80713,0.78876 1.28131,1.28 2.02533,2.02399c0.672,0.672 1.31448,1.3699 1.888,1.80267c0.73102,0.55161 1.48969,1.0542 2.0965,1.68182c0.58035,0.60025 1.34207,1.10773 2.21948,1.43552c0.81107,0.30301 1.39197,0.90723 2.23734,1.08533c0.84546,0.17813 1.72433,-0.36725 2.37836,-0.64734c0.91043,-0.38992 1.68549,-0.34222 2.85233,-0.35266c0.81247,-0.00726 1.65466,0 2.508,0c0.94,0 1.92532,0 2.82532,0c0.75717,0 1.65268,0 2.51602,0c0.96317,0 2.13284,0.17996 2.46317,-0.54166c0.3923,-0.85703 0.08951,-1.66699 -0.26318,-2.57568c-0.28296,-0.72903 -0.62189,-1.65189 -0.716,-2.38266c-0.15054,-1.16885 -0.54495,-1.78979 -0.83331,-2.66666c-0.25787,-0.78418 -0.27463,-1.74564 -0.74133,-2.444c-0.48901,-0.73178 -0.17072,-1.95825 -0.86133,-2.35333c-0.75061,-0.42941 -1.76266,-0.03601 -2.73068,-0.03601c-0.72,0 -1.66934,0.00171 -2.43466,0c-1.00317,-0.00226 -1.86533,-0.00891 -2.82016,-0.22168c-0.8248,-0.18378 -1.4093,-0.38113 -2.57852,-0.94498c-0.61136,-0.29483 -1.19214,-0.67245 -2.09998,-1.18066c-0.89252,-0.49966 -1.79608,-0.90576 -2.40002,-1.13184c-0.89441,-0.33481 -1.80585,-0.60425 -2.68933,-0.93152c-0.5788,-0.21442 -1.65695,-0.73743 -2.35349,-1.23749c-0.65924,-0.47327 -1.43253,-1.11172 -2.25717,-1.27985c-0.7868,-0.1604 -1.7955,-0.07199 -2.54282,-0.07199c-1.03186,0 -1.98111,0.04114 -2.67801,-0.02084c-0.98608,-0.08771 -1.75476,-0.44144 -2.49384,-0.69516c-1.05771,-0.36313 -1.80325,-0.87317 -2.58517,-1.16251c-0.8519,-0.31522 -1.42957,0.10751 -1.06683,0.87851c0.3569,0.75858 0.77835,1.6626 1.64932,1.91599c0.78641,0.22876 1.61243,0.56766 2.16467,1.13669c0.55661,0.57355 1.27905,1.25507 1.78467,1.74731c0.70917,0.6904 0.97202,1.65524 1.73468,2.20001c0.62708,0.44791 1.34933,0.79999 2.18665,1.39999l0.52536,0.70001l0.28799,0.89999l0.444,0.564" id="svg_9" stroke-width="2" stroke="#000" fill="none"/>
  <path t="47003,47106,47106,47122,47144,47144,47167,47167,47184,47184,47193,47459,47475,47499,47510,47527,47527,47527,47527,47527,47549,47549,47549,47549,47549,47550,47560,47560,47560" d="m453.01135,268.09091c1.40002,-1.82535 1.74918,-2.55374 2.30002,-3.24283c0.64386,-0.80545 1.24518,-1.24606 1.79999,-2.07849c0.43692,-0.65552 0.80017,-1.60709 1.39999,-2.13702c0.6998,-0.61823 1.33914,-1.05109 1.85269,-1.83716c0.48074,-0.7359 1.4043,-0.68387 2.314,-0.53784c0.67657,0.10861 1.47919,0.27176 2.37601,0.48001c0.47635,0.11063 1.95996,0.51172 2.95465,0.836c0.49503,0.16138 1.45987,0.49982 1.93066,0.65601c0.89926,0.29834 2.12866,0.6185 2.84866,0.7515l0.93002,0.12451" id="svg_10" stroke-width="2" stroke="#000" fill="none"/>
  <path t="50865,50987,51003,51003,51003,51028,51028,51028,51028,51048,51049,51049,51060,51060,51060,51076,51094,51094,51111,51111,51156,51156,51174,51174,51174,51174,51193,51193,51211,51211,51227,51227,51243,51243,51260,51260,51286,51286,51317,51317,51318,51339,51339,51339,51339,51339,51339,51343,51344,51344,51344,51360,51361,51361,51395,51395,51410,51410,51427,51457,51476,51477,51500,51500,51501,51531,51531,51544,51544,51544,51579,51579,51579,51612,51612,51659,51660,51698,51698,51698,51698,51698,51719,51719,51719,51719,51746,51746,51782,51783,51783,51808,51821,51821,51871,51896,51959,51992,52010,52025,52025,52050,52051" d="m264.01135,279.09091c0.54169,1 1.13647,1.76779 1.85736,1.92801c0.89542,0.19901 1.78552,0.05911 2.79333,0.08264c0.69891,0.01633 1.39816,-0.00836 2.57999,0.27469c0.76309,0.18277 1.44431,0.53589 2.452,0.91333c0.7908,0.2962 1.54767,0.51746 2.65601,0.776c0.82776,0.19308 1.68668,0.50458 2.49466,1.02533c0.69006,0.44476 1.49426,0.8515 2.20834,1.02084c1.13608,0.26941 1.65683,0.52161 2.4375,1c0.76797,0.47061 1.48148,1.20483 2.26898,1.61749c0.84793,0.44434 1.68832,0.34769 2.36786,0.931c0.60648,0.5206 1.15878,1.4827 1.88397,1.88901c0.92892,0.52045 1.47104,0.84897 2.22168,1.42032c0.5538,0.42154 1.66183,0.58035 2.133,0.84c0.59433,0.32748 1.73215,1.04321 2.18134,1.33469c0.96854,0.62845 1.466,0.96454 1.96268,1.30664c0.9693,0.6676 1.84094,1.29865 2.56134,1.86801c0.88531,0.69971 1.33975,1.17029 2.36115,1.75049c0.76709,0.43573 1.36148,0.52383 2.43585,1.12152c0.6311,0.3511 1.25095,1.23083 1.94299,1.61465c0.82449,0.45728 1.75421,0.20612 2.68399,0.57199c0.72479,0.28519 1.51788,1.01761 1.88,1.53867c0.4657,0.67014 1.03177,1.5784 1.60666,2.05869c0.76663,0.64047 1.54535,1.12347 2.08118,1.46332c1.01773,0.64548 1.70929,1.02219 2.34366,1.34818c0.99875,0.51321 1.79846,0.8587 2.5835,1.40485c0.58701,0.40839 1.5195,1.23489 2.07434,1.66898c0.63165,0.49417 1.31219,1.00909 1.98001,1.548c0.9313,0.75159 1.46112,1.21201 1.90414,1.66183c0.59286,0.60196 1.26938,1.65158 1.72385,2.18484c0.6152,0.72189 1.36533,1.0289 2.27615,1.53149c0.83392,0.46014 1.09329,1.44876 1.76703,1.94733c0.69424,0.51373 1.6955,0.35651 2.59549,0.35718c0.89865,0.00067 1.65182,0.35718 2.14282,1.09982l0.578,0.37933l0.95767,0.39951l0.82016,0.20532" id="svg_11" stroke-width="2" stroke="#000" fill="none"/>
  <path t="53196,53304,53320,53339,53339,53356,53356,53356,53362,53362,53378,53378,53378,53395,53417,53427,53445,53469,53469,53494,53494,53560,53560,53613,53613,53637,53637,53669,53701,53701,53733,53744,53765,53766,53782,53799,53810,53832,53853,53877,53877,53925,54022,54076,54157" d="m266.01135,276.09091c-1.81467,0.01065 -2.59671,0.44742 -3.44315,0.87866c-0.73712,0.37555 -1.72739,0.27234 -2.505,0.474c-0.7948,0.20612 -1.74646,0.38574 -2.53101,0.66818c-0.8862,0.31906 -1.48401,1.0274 -2.03683,1.41116c-0.90996,0.63168 -1.68941,1.10556 -2.58383,1.4465c-0.80476,0.30676 -1.59607,0.52209 -2.30916,0.76883c-0.9691,0.33533 -1.80769,0.23163 -2.707,0.638c-0.69463,0.3139 -1.57298,0.9678 -2.23134,1.47183c-0.6721,0.51453 -0.96765,1.38803 -1.75267,2c-0.77982,0.60791 -1.49503,0.8381 -1.87466,1.64282c-0.41724,0.88443 -0.96831,1.66769 -1.52533,2.07916c-0.81886,0.60489 -1.37706,1.23782 -2.11067,1.51016c-0.83426,0.30972 -1.63275,0.49475 -2.556,0.84402c-0.62032,0.23468 -1.664,0.45065 -2.18599,1.11398l-0.62201,0.478l-0.59999,0.564" id="svg_12" stroke-width="2" stroke="#000" fill="none"/>
 </g>
 <g display="none">
  <title>muse_image</title>
  <image xlink:href="http://farm1.static.flickr.com/144/326758816_d8d468fa49.jpg" id="muse" height="403" width="640" y="38.5" x="0"/>
 </g>
 <g display="none">
  <title>bbox</title>
  <rect stroke="#f00" fill="none" stroke-width="3" height="223.88889" width="537.6" y="185.62698" x="81.92" id="bbox"/>
 </g>
</svg>
