<svg width="640" height="480" xmlns="http://www.w3.org/2000/svg" xmlns:svg="http://www.w3.org/2000/svg" xmlns:xlink="http://www.w3.org/1999/xlink">
 <!-- Sketchy ANNOTATION
  ImageNet ID: n02691156_9453
  URL: http://farm1.static.flickr.com/58/201055683_76e5149bec.jpg
  Image Width: 500
  Image Height: 332
  BBox X: 28
  BBox Y: 103
  BBox Width: 454
  BBox Height: 123
  Exposure: 2000ms
  Synset Label: airplane
  Synset ID: n02691156
  Worker Tag: airplane
  Sanity Check: 
   Shading
   Saved
   Context
  Comment: 
   {}
  Worker ID: ASU5AHY2I8O3D
  Assignment ID: 3LEIZ60CDJZKA0ORWMZKO8G1LY79ZF
  HIT ID: 3S37Y8CWI80DWFFGE2EKJCGIKSFW4A
  Work Time: 82s
  Worker Score: 0.9286
 END ANNOTATION -->
 <g>
  <title>Layer 1</title>
  <path t="0,461,470,470,477,493,518,518,558,590,598,622,646,646,670,702,702,742,742,758,766,766,790,790,798,814,823,823,830,854,862,870,870,886,886,894,894,910,910,918,918,926,934,934,942,950,950,958,966,966,974,974,990,990,998,1046,1054,1054,1110,1134,1135,1142,1151,1158,1174,1190,1200,1214,1246,1246,1254,1278,1286,1294,1295,1302,1318,1326,1334,1342,1350,1366,1382,1421,1422,1488,1489,1490,1501,1501,1501,1525,1526,1590,1590,1598,1615,1616,1630,1638,1638,1710,2046,2094,2118,2158,2493,2493,3038,3047,3054,3055,3056,3061,3063,3064,3065,3069,3070,3071,3072,3073,3077,3078,3080,3081,3082,3086,3087,3087,3087,3088,3093,3093,3094,3094,3102,3102,3103,3109,3109,3125,3125,3325,3327,3334,3336,3342,3349,3351,3374,3375,3392,3393,3414,3486,3488,3525,3525,3542,3558,3606,3607,3614,3622,3646,3654,3655,3662,3686,3687,3733,3735,3749,3751,3758,3759,3917,3919,3925,3927,3934,3936,3937,3941,3943,3944,3951,3952,3953,3957,3959,3960,3965,3965,4070,4078,4085,4088,4095,4096,4098,4104,4105,4107,4109,4112,4114,4119,4125,4125,4133,4141,4557,4559,4566,4567,4574,4575,4582,4590,4630,4631,4638,4646,4654,4655,4662,4678,4686,4742,4758,4814,4822,4838,4846,4854,4856,4862,4870,4894,4918,4933,4935,4942,4943,4957,4958,4965,4966,4981,4981,4989,4989,4997,4998,4998,5013,5014,5021,5029,5030,5037,5038,5045,5046,5053,5054,5054,5061,5062,5062,5069,5070,5077,5078,5086,5125,5126,5150,5152,5165,5167,5175,5176,5184,5197,5198,5198,5205,5206,5213,5221,5222,5229,5230,5237,5238,5245,5294,5296,5310,5318,5325,5333,5341,5343,5343,5349,5350,5351,5357,5358,5365,5366,5367,5373,5374,5375,5375,5381,5382,5383,5389,5390,5391,5392,5398,5399,5405,5406,5407,5408,5414,5415,5416,5417,5430,5431,5432,5437,5446,5447,5500,5503,5503,5504,5510,5517,5517,5525,5526,5527,5533,5533,5534,5534,5541,5541,5542,5549,5549,5550,5557,5565,5565,5581,5582,5605,5605,5622,5630,5633,5638,5645,5646,5653,5654,5661,5662,5677,5677,5685,5685,5693,5693,5694,5701,5701,5709,5725,5725,5741,5749,5749,5757,5765,5773,5773,5774,5781,5789,5789,5790,5797,5797,5798,5806,5807,5813,5814,5815,5822,5822,5823,5824,5829,5837,5838,5845,5845,5853,5854,5869,5869,5888,5891,5896,5899,5903,5912,5914,5915,5919,5920,5921,5922,5925,5926,5927,5928,5933,5934,5935,5941,5942,5949,5957,5957,5965,5966,5973,5989,5997,6005,6013,6013,6021,6021,6029,6029,6045,6045,6053,6061,6069,6069,6077,6085,6085,6093,6093,6101,6101,6102,6103,6109,6109,6110,6118,6125,6134,6157,6173,6173,6181,6189,6197,6197,6198,6199,6205,6205,6206,6207,6208,6209,6213,6213,6214,6215,6216,6217,6218,6221,6221,6222,6223,6224,6225,6226,6229,6230,6231,6232,6233,6237,6237,6239,6245,6246,6253,6269,6269,6318,6341,6345,6358,6367,6369,6374,6389,6390,6392,6397,6398,6413,6414,6416,6421,6423,6431,6432,6447,6449,6450,6453,6455,6456,6463,6469,6505,6506,6508,6512,6513,6514,6514,6515,6517,6518,6520,6520,6521,6522,6526,6527,6528,6542,6543,6544,6623,6626,6638,6662,6666,6672,6673,6685,6686,6688,6693,6694,6701,6725,6726,6733,6734,6741,6757,6765,6813,6825,6830,6834,6851,6853,6855,6857,6858,6859,6861,6869,6870,6878,6879,6926,6950,6954,6967,6971,6984,6998,7002,7015,7018,7024,7029,7037,7038,7040,7042,7043,7047,7048,7049,7050,7054,7055,7056,7057,7061,7062,7063,7064,7065,7069,7071,7077,7085,7086,7133,7138,7142,7166,7170,7181,7183,7197,7199,7206,7208,7210,7222,7224,7225,7227,7237,7238,7245,7253,7261,7277,7285,7293,7309,7325,7438,7442,7455,7460,7470,7499,7501,7502,7504,7509,7510,7512,7513,7515,7516,7519,7521,7526,7528,7533,7541,7551,7557,7558,7567,7568,7569,7573,7574,7582,7584,7585,7589,7598,7637,7651,7662,7664,7677,7679,7685,7687,7695,7709,7725,7727,7733,7735,7742,7744,7746,7748,7751,7754,7760,7763,7765,7767,7773,7774,7775,7777,7781,7790,7813,7854,7950,7964,7970,7984,7997,7999,8001,8003,8013,8015,8365,8370,8398,8446,8461,8590,8605,8622,8636,8639,8641,8648,8677,8679,8709,8711,8749,8765,8805,8813,8815,8829,8831,8833,8840,8842,8844,8950,8955,8971,8988,8993,9001,9003,9021,9022,9045,9061,9067,9117,9123,9138,9143,9155,9165,9166,9173,9175,9189,9245,9258,9277,9280,9287,9289,9296,9298,9300,9303,9307,9309,9310,9312,9313,9318,9320,9321,9322,9327,9328,9330,9331,9333,9334,9335,9337,9342,9343,9345,9346,9349,9350,9358,9359,9361,9362,9365,9366,9367,9373,9375,9376,9381,9382,9383,9389,9390,9392,9397,9421,9422,9429,9437,9445,9446,9453,9454,9461,9462,9464,9469,9471,9472,9477,9478,9485,9493,9517,9519,9525,9533,9541,9549,9550,9557,9558,9560,9565,9566,9568,9569,9571,9577,9578,9580,9581,9584,9586,9587,9589,9594,9596,9597,9599,9602,9604,9605,9613,9614,9629,9645,9646,9669,9670,9709,9710,9725,9733,9735,9741,9749,9750,9765,9766,9773,9782,9805,9815,9817,9821,9831,9832,9837,9838,9845,9846,9853,9854,9861,9869,9870,9885,9886,9901,9902,9909,9910,9917,9918,9933,9934,9981,9982,9989,9999,10005,10006,10029,10030,10045,10046,10069,10077,10085,10101,10102,10109,10117,10118,10125,10126,10133,10134,10136,10138,10143,10145,10146,10148,10151,10153,10154,10156,10158,10163,10165,10167,10168,10170,10172,10177,10179,10180,10182,10188,10190,10191,10193,10195,10196,10198,10200,10205,10207,10208,10210,10212,10213,10219,10221,10223,10224,10226,10228,10237,10238,10240,10242,10253,10254,10285,10293,10294,10317,10325,10341,10342,10349,10365,10374,10376,10381,10389,10391,10397,10398,10413,10414,10421,10422,10437,10439,10445,10446,10469,10480,10487,10519,10521,10527,10529,10541,10549,10557,10558,10565,10567,10568,10573,10581,10589,10597,10613,10614,10637,10653,10661,10671,10690,10692,10694,10697,10699,10701,10703,10706,10708,10710,10712,10715,10717,10719,10722,10724,10727,10729,10731,10734,10736,10738,10742,10743,10749,10751,10757,10758,10773,10781,10782,10784,10789,10790,10797,10798,10800,10804,10806,10808,10814,10816,10818,10820,10826,10828,10832,10833,10835,10839,10840,10853,10860,10869,10876,10878,10885,10887,10893,10894,10901,10908,10910,10917,10924,10940,10951,10953,10957,10972,10982,10998,11000,11005,11006,11021,11023,11024,11030,11037,11038,11040,11046,11048,11053,11055,11057,11063,11065,11069,11071,11073,11079,11081,11085,11087,11093,11101,11103,11109,11117,11118,11125,11127,11129,11133,11135,11137,11139,11145,11147,11150,11152,11164,11172,11181,11188,11191,11197,11199,11201,11206,11208,11210,11212,11218,11220,11222,11224,11228,11230,11232,11238,11241,11243,11245,11251,11253,11255,11257,11260,11262,11264,11271,11273,11275,11277,11279,11285,11287,11289,11291,11294,11299,11302,11304,11306,11308,11311,11316,11319,11397,11406,11426,11434,11443,11446,11450,11453,11462,11465,11467,11469,11475,11477,11479,11482,11484,11486,11488,11494,11496,11498,11500,11503,11509,11511,11513,11515,11517,11519,11521,11528,11530,11532,11534,11536,11562,11565,11613,11635,11644,11647,11651,11661,11664,11667,11673,11675,11677,11681,11683,11689,11700,11703,11733,11742,11761,11781,11790,11799,11805,11814,11818,11828,11831,11861,11882,11894,11901,11904,11908,11917,11920,11926,11929,11931,11937,11939,11943,11949,11956,11959,12021,12030,12051,12065,12068,12072,12082,12086,12090,12092,12099,12101,12104,12110,12113,12229,12238,12259,12485,12494,12556,12565,12573,12582,12593,12598,12602,12610,12628,12631,12639,12641,12654,12684,12687,12700,12703,12716,12732,12735,12741,12756,12759,12765,12767,12773,12775,12788,12791,12797,12805,12807,12828,12844,12847,12868,12871,12916,12932,12935,12948,12951,12957,12966,12982,13012,13028,13031,13060,13063,13092,13116,13132,13156,13196,13285,13294,13334,13349,13359,13373,13381,13385,13391,13394,13398,13404,13412,13428,13431,13438,13440,13445,13452,13468,13471,13474,13484,13487,13490,13497,13499,13508,13511,13524,13527,13561,13573,13589,13596,13604,13607,13610,13617,13619,13621,13628,13631,13644,13647,13649,13668,13671,13805,13825,13834,13909,14165,14175,14198,14209,14301,14311,14320,14340,14343,14352,14355,14709,14719,14735,14742,14746,14750,14754,14758,14761,14768,14770,14773,14776,14796,14799,14806,14808,14869,14917,14927,14936,14953,15021,15069,15093,15125,15129,15189,15221,15261,15293,15303,15307,15325,15335,15338" id="svg_1" d="m54,174c0.01067,1.82533 0.1846,2.82393 0.57467,3.58934c0.40833,0.80125 0.24188,1.78743 0.64684,2.5105c0.41295,0.73735 1.59418,0.89302 1.77716,1.70149c0.19838,0.8765 -0.0406,1.73889 0.28534,2.68266c0.24461,0.7083 0.47707,1.69009 0.88267,2.51601c0.32902,0.67 1.24148,1.23795 1.548,1.88533c0.41616,0.87897 -0.05991,2.05345 0.3425,2.75301c0.46817,0.81387 0.84562,1.25455 0.9535,2.17633c0.11226,0.95926 1.10741,1.23352 1.55333,1.79601c0.60973,0.76909 0.31945,1.79749 0.4405,2.68933c0.11151,0.82153 0.73458,1.4348 1.1955,2.18533c0.43347,0.70584 0.92335,1.70348 1.27917,2.49384c0.37959,0.84317 0.48845,1.64674 0.52217,2.50482c0.03397,0.86447 0.33334,1.77853 0.99866,2.51601c0.4639,0.51419 0.76514,1.39168 1.28533,2.19867c0.39536,0.61334 1.42567,0.88406 1.7,1.67332c0.24738,0.71172 0.7263,1.71864 1.16399,2.29201c0.61662,0.80774 0.45581,1.76567 0.936,2.55066c0.49118,0.80296 0.71293,1.46864 1.08533,2.08534c0.46878,0.77629 1.65051,1.14743 1.82033,1.89999c0.19813,0.87798 -0.28008,1.85197 0.01967,2.68933c0.26374,0.73676 0.98299,1.23822 1.41467,2.01067c0.45782,0.81924 0.86438,1.65691 1.222,2.3c0.47443,0.85312 0.94182,1.61792 1.23117,2.40001c0.31512,0.85173 -0.07445,1.73444 0.17867,2.59999c0.25665,0.87764 0.91424,1.59865 0.94283,2.5c0.02854,0.89955 -0.32206,1.9381 0.16666,2.63333c0.50326,0.71593 1.15237,1.21713 1.48067,1.981c0.39223,0.91264 0.33903,1.72878 0.40533,2.29466c0.13995,1.1944 0.37629,2.06868 0.59467,2.87668c0.23525,0.87044 0.369,1.77538 0.70534,2.66699c0.26633,0.70602 0.46178,1.64787 0.93133,2.54733c0.34215,0.65541 0.69833,1.45033 1,2.284c0.31873,0.88078 0.54491,1.77417 0.71617,2.61584c0.17229,0.84676 0.856,1.29976 1.28383,2.10017c0.45747,0.85583 0.59192,1.63858 1.23684,2.27914c0.64604,0.64169 1.64583,0.52084 2.54166,0.52084c0.7095,0 1.91,-0.0112 2.62016,0.02133c0.77551,0.03552 1.61144,0.11923 2.484,0.31201c0.9249,0.20435 1.85963,0.52515 2.33334,0.6875c0.9493,0.32535 2.33173,0.81754 2.7785,0.95749c0.86133,0.26978 1.6959,0.50314 2.517,0.66c1.19851,0.22894 2.00385,0.2883 2.8045,0.32565c0.79954,0.03729 1.6,0.03534 2.79984,0.03601c0.79567,0.00046 1.57933,0 2.343,0c1.0905,0 2.091,0 2.69466,0c1.22916,0 2.05983,-0.04413 2.88383,0.22134c0.6983,0.22498 1.65089,0.71356 2.43134,0.77417c0.8973,0.0697 1.76333,0.00449 2.74733,0.00449c0.98534,0 1.71067,0 2.69984,0c0.77933,0 1.77866,0 2.59883,0c0.90133,0 1.80134,0 2.72216,0c0.96317,0 1.65384,0 2.722,0c0.85718,0 1.75717,0 2.55717,0c0.89999,0 1.8,0 2.72083,0c0.96317,0 1.65384,0 2.7265,0c0.91934,0 1.578,0 2.586,0c0.91934,0 1.82384,0 2.57117,0c0.99417,0 1.75951,0 2.84734,0c0.7175,0 1.758,0 2.53351,0c1.04799,0 1.76199,0 2.66733,0c0.96883,0 1.78333,0 2.65184,0c0.89549,0 1.79099,0 2.6595,0c1.06932,0 1.77882,0 2.63148,0c1.00317,0 1.76851,0 2.84734,0c0.85718,0 1.75717,0 2.5715,0c0.95767,0 1.74817,0 2.35184,0c1.35483,0 2.0775,0 2.79216,0c0.987,0 1.98567,0 2.83768,0c0.84,0 1.85666,0 2.55133,0c1.01666,0 1.95717,0 2.81934,0c0.85416,0 1.83585,-0.05313 2.62267,0.01068c1.05212,0.08533 1.61427,0.67456 2.51067,0.93216c0.86681,0.24908 1.90392,0.18243 2.34283,0.76166c0.57738,0.76193 1.21799,1.2775 2.19049,1.2955c0.75589,0.01401 1.71864,-0.28906 2.556,0.01068c0.73674,0.26373 1.2213,0.98398 2.11067,0.98932c0.89998,0.0054 1.8,0 2.7,0c0.90001,0 1.8,0 2.60001,0c0.89999,0 1.8,0 2.7,0c0.91066,0 1.8215,0 2.71066,0c0.98917,0 1.76851,0 2.76801,0c0.774,0 1.6785,0 2.42583,0c0.9955,0 1.7955,0 2.7955,0c0.8,0 1.8,0 2.60001,0c0.8,0 1.7955,0 2.71466,0c0.86,0 1.80667,0 2.66,0c0.94133,0 1.70934,0 2.672,0c0.84,0 1.83867,0 2.67416,0c0.58368,0 1.77901,0 2.6685,0c0.8535,0 1.88901,0 2.564,0c1.08,0 1.83601,0 2.7675,0c0.96451,0 1.68983,0 2.679,0c0.77934,0 1.77884,0 2.68417,0c0.94133,0 1.632,0 2.63683,0c1.02184,0 1.72984,0 2.47383,0c1.03601,0 1.888,0 2.83067,0c1.008,0 1.8,0 2.66,0c0.91916,0 1.91333,0 2.67867,0c0.95067,0 1.836,0 2.63599,0c0.90002,0 1.80002,0 2.70001,0c0.92133,0 1.83334,0 2.76132,0c0.7905,0 1.81802,-0.02515 2.50269,0.01068c0.83685,0.04379 1.84235,0.34192 2.47198,0.59998c0.93347,0.38257 1.71088,0.72009 2.57468,0.95334c1.17728,0.3179 1.78912,0.35446 2.68933,0.436c0.59985,0.05432 1.80554,0.19937 2.70001,0.436c0.6041,0.15982 1.7988,0.5676 2.39865,0.76266c0.87878,0.28577 1.7113,0.54083 2.71735,0.71866c0.68121,0.12042 1.85904,0.39841 2.36932,0.65201c0.85046,0.42267 1.39685,0.82703 2.61465,1.409c0.59,0.28195 1.49323,0.60306 2.10001,0.73502c1.18661,0.25806 2.06793,0.2233 2.82935,0.37067c0.97525,0.18878 1.75806,0.83093 2.57065,0.91464c0.86743,0.08936 1.74268,0.00134 2.70001,0.00134c0.73199,0 1.82935,-0.04694 2.70267,0.00134c0.77139,0.04263 1.56989,0.28214 2.35983,0.5195c0.92618,0.27829 1.95706,0.58508 2.68567,0.77466c0.72943,0.18979 1.43405,0.39496 2.70898,0.58301c0.77777,0.11472 1.49103,0.11923 2.72552,0.12149c0.79648,0.00143 1.54797,0 2.50748,0c0.9765,0 1.80984,0 2.78851,0c0.77399,0 1.67401,0 2.53732,0c0.98401,0 1.80533,0 2.65866,0c0.94135,0 1.992,0 2.6507,0c1.008,0 1.79999,0 2.83182,0c0.74734,0 1.74283,0 2.54285,0c1,0 1.79999,0 2.79999,0c0.79999,0 1.60001,0 2.59549,0c0.74734,0 1.77917,0 2.72583,0c0.67868,0 1.79333,0 2.67868,0c0.79999,0 1.70001,0 2.54166,0c1.00101,0 1.70901,0 2.453,0c1.1955,0 2.172,0 2.85202,0c0.84,0 1.83731,0 2.65332,0c0.81601,0 1.81601,0 2.72534,0c0.94131,0 1.73181,0 2.58533,0c1.18933,0 1.78665,0 2.64767,0c0.771,0 1.88031,0 2.86298,0c0.67868,0 1.79602,0 2.48853,0c0.95816,0 1.69016,0 2.85681,0c0.8125,0 1.65485,0 2.54401,0c0.9895,0 1.81018,0 2.47467,0c1.00134,0 1.85632,0 2.80133,0c1.03485,0 1.77051,0 2.53418,0c0.78366,0 1.97916,0 2.77649,0c0.78134,0 1.53067,0 2.86932,0c0.819,0 1.51202,0 2.53317,0c0.96417,0 1.91483,0 2.80017,0c0.75717,0 1.65268,0 2.51599,0c0.96317,0 1.884,0 2.784,0c0.90002,0 1.80017,0 2.58536,0c0.95065,0 1.71597,0 2.71466,0c0.79999,0 1.79868,0 2.564,0c0.95065,0 1.936,0 2.836,0c0.79999,0 1.63599,0 2.65717,0c0.74734,0 1.74551,0 2.61484,0c1.06134,0 1.69598,0 2.37866,0c1.04401,0 2.01599,0 2.83051,0c0.85266,0 1.88284,0 2.81882,0c0.90002,0 1.80002,0 2.70001,0c0.79999,0 1.70001,0 2.54166,0c1.00183,0 1.76233,0 2.38766,0c0.72934,0 2.03519,0 3.04218,0c0.5365,0 1.66049,0 2.242,0c0.59048,0 2.38666,-0.00082 2.98782,0.00134c0.60318,0.00217 1.81961,0.0166 2.43466,0.03467c0.62128,0.01825 1.25131,0.02402 3.18503,0.18549c0.6611,0.05521 1.32306,0.13235 1.98297,0.21451c0.65479,0.08154 1.92969,0.26434 2.54135,0.36533c1.15598,0.19083 2.19754,0.39636 3.13599,0.58801c0.85086,0.17377 1.6257,0.35104 2.69684,0.48932c0.65384,0.08441 1.57855,-0.01318 2.67883,0.34268c0.76453,0.24728 1.55316,0.76065 2.46432,0.77866c0.67856,0.0134 1.65717,0 2.67868,0c0.79999,0 1.63599,0 2.65268,0c0.69464,0 1.73267,0 2.68066,0c0.672,0 1.66132,0 2.52399,0c0.948,0 1.91202,0 2.66351,0c0.79648,0 1.79248,0.00058 2.63248,0c0.96533,-0.00067 1.71683,-0.04077 2.61084,-0.22134c0.92609,-0.18707 1.5896,-0.38708 2.9025,-0.612c0.55905,-0.09576 1.49664,0.03137 2.44669,-0.168c0.89145,-0.18707 1.29477,-1.17661 2.05331,-1.47781c0.56491,-0.22433 1.83276,-0.36154 2.36136,-0.39951c1.18692,-0.08521 1.82397,-0.09601 2.47198,-0.12134c0.64801,-0.02533 1.89877,-0.05289 3,-0.16666c0.8923,-0.09219 1.8884,-0.36234 2.67734,-0.54935c0.99994,-0.23703 1.56091,-0.23669 2.42715,-0.33667c1.19904,-0.13837 1.7869,-0.29849 2.6235,-0.522c1.12955,-0.30179 1.96301,-0.42307 2.79285,-0.42532c0.96317,-0.00259 1.83249,0.09549 2.73099,-0.009c0.73056,-0.08496 1.51224,-0.56833 2.26901,-0.991c0.79108,-0.44183 1.78354,-0.89371 2.63248,-0.97867c0.95682,-0.09576 1.81131,-0.24924 2.48267,-0.59601c0.81107,-0.41895 1.63474,-0.5061 2.37869,-1c0.67322,-0.44693 1.58112,-0.47037 2.40665,-0.85065c0.90747,-0.418 1.58722,-0.49579 2.328,-0.60001c1.11456,-0.15677 1.76843,-0.56973 2.91736,-0.80801c0.66016,-0.1369 1.43445,-0.13843 2.23199,-0.15598c0.7652,-0.01682 1.9613,-0.01068 2.84052,-0.01068c0.91345,0 1.78491,0.10706 2.7608,-0.02084c0.83832,-0.10986 1.64661,-0.64221 2.47852,-0.85767c0.80243,-0.20782 1.80188,-0.11661 2.67413,-0.47867c0.71735,-0.29776 1.38379,-0.96628 2.146,-1.35748c0.83997,-0.43109 1.77991,-0.27969 2.70135,-0.61868c0.56738,-0.20874 1.56305,-0.70718 1.93201,-0.888c0.77313,-0.37894 1.96417,-0.98581 2.76349,-1.36966c0.78021,-0.37466 1.53021,-0.74777 2.63782,-1.07565c0.67383,-0.19946 1.35492,-0.23645 2.31934,-0.49585c1.03204,-0.27759 1.73724,-0.67526 2.45135,-1.11349c0.7074,-0.43408 1.2959,-0.95551 2.33997,-1.46933c0.82178,-0.40442 1.5412,-0.82837 2.3775,-1.35449c0.6734,-0.42365 1.67981,-0.72678 2.47852,-0.8855c0.60107,-0.11945 1.6037,-0.57602 2.1792,-1.01468c0.86176,-0.6568 1.66968,-0.94916 2.50616,-1.28667c0.75092,-0.30299 1.51794,-0.87592 2.11914,-1.366c0.63507,-0.5177 1.54785,-1.2095 2.34814,-1.59016c0.53839,-0.25609 1.3692,-0.5415 2.36072,-0.95584c0.84515,-0.35318 1.83044,-0.39975 2.56531,-1.02266c0.61353,-0.52007 0.93127,-1.44215 1.64215,-1.75784c0.87671,-0.38933 1.35504,-0.61504 1.91516,-1.42082c0.47003,-0.67618 1.164,-1.20001 1.86401,-1.90001c0.5,-0.5 1.24304,-1.22404 1.8667,-2.03333c0.33209,-0.43095 0.87976,-1.24689 1.29498,-1.89c0.71326,-1.10472 0.96405,-1.51616 1.48199,-2.373c0.51935,-0.85916 0.77814,-1.27048 1.20166,-2.065c0.63025,-1.18237 0.8092,-1.98248 1.56,-2.63867c0.53632,-0.46873 1.01471,-1.14294 1.29919,-1.9955c0.25757,-0.7718 1.2207,-1.26033 1.59546,-1.92583c0.42957,-0.76279 0.80005,-1.57869 1.20001,-2.37868c0.40002,-0.8 0.79785,-1.60107 1.20001,-2.39999c0.39789,-0.79041 0.80841,-1.50888 1.38934,-2.364c0.49658,-0.73096 1.00824,-1.3195 1.55798,-1.99316c0.57495,-0.70451 0.78632,-1.38132 1.35266,-2.2955c0.42218,-0.68144 0.99786,-1.39743 1.41467,-2.146c0.41815,-0.7509 0.72412,-1.59866 1.38531,-2.30151c0.50214,-0.53381 1.10168,-1.38631 1.42084,-1.9415c0.64648,-1.12463 0.95441,-1.64676 1.47919,-2.4375c0.34167,-0.51482 1.00159,-1.3609 1.5,-2.04166c0.69977,-0.95581 0.9856,-1.5303 1.32532,-2.15517c0.52448,-0.96468 0.97198,-1.84898 1.41754,-2.4525c0.51587,-0.69881 1.20435,-1.3912 1.70447,-2.16701c0.45001,-0.69806 0.88904,-1.2422 1.06335,-2.10449c0.1908,-0.9437 0.7251,-1.63737 1.0733,-2.40001c0.36194,-0.79282 1.09149,-1.52708 1.56866,-2.20982c0.35394,-0.50645 0.888,-1.29315 1.46069,-2.30351c0.36072,-0.63632 0.81592,-1.50737 0.88214,-2.38216c0.0683,-0.90248 -0.4519,-1.68622 -0.9115,-2.50317c-0.39526,-0.70265 -0.9726,-1.32254 -1.62567,-1.82216c-0.70398,-0.53857 -1.49023,-0.95671 -1.88898,-1.49651c-0.66406,-0.89905 -1.13605,-1.68678 -1.7547,-2.08267c-0.78961,-0.50528 -1.2207,-1.24788 -1.83997,-1.96399c-0.52631,-0.60867 -1.49664,-0.3914 -2.46002,-0.43867c-0.72778,-0.03572 -1.73102,-0.4176 -2.31464,-0.85866c-0.61829,-0.46729 -1.383,-1.14543 -2.20001,-1.61784c-0.58844,-0.34026 -1.57684,-0.85977 -2.34283,-1.16367c-0.8858,-0.35139 -1.82385,-0.35716 -2.65717,-0.35716c-0.97864,0 -1.75269,0 -2.65265,0c-0.86334,0 -1.84766,0.024 -2.83136,-0.00133c-0.69128,-0.01781 -1.63177,-0.28438 -2.26868,-0.70317c-0.8996,-0.59154 -1.56342,-1.05739 -2.49463,-1.23834c-0.90424,-0.1757 -1.75269,-0.05716 -2.7312,-0.05716c-0.82013,0 -1.7215,0 -2.62146,0c-0.81067,0 -1.73022,0.09172 -2.57471,-0.036c-0.96539,-0.146 -1.49835,-0.63153 -2.58984,-1.06418c-0.5954,-0.23601 -1.30127,-0.41039 -2.04895,-0.657c-1.19202,-0.39319 -1.98492,-0.72604 -2.77588,-1.0575c-0.77441,-0.32454 -1.51031,-0.66969 -2.58997,-0.94267c-0.67828,-0.17149 -1.40533,-0.23288 -2.20203,-0.34799c-1.45465,-0.21017 -2.02606,-0.33382 -2.63867,-0.46266c-1.30823,-0.27515 -1.9798,-0.43288 -2.65332,-0.58134c-0.66315,-0.14618 -1.30072,-0.31567 -3.0188,-0.608c-0.91022,-0.15488 -1.6922,-0.12845 -2.53052,-0.41066c-0.85675,-0.28841 -1.39331,-1.11441 -2.27734,-1.49867c-0.81714,-0.35518 -1.52216,-0.30046 -2.19916,-0.3815c-1.26086,-0.15094 -2.04279,-0.37929 -2.74902,-0.65633c-0.97784,-0.38358 -1.76831,-0.71556 -2.59918,-0.93834c-1.02185,-0.27399 -1.73224,-0.29646 -2.63666,-0.44116c-1.00568,-0.1609 -1.79077,-0.43193 -2.54663,-0.632c-0.94989,-0.25145 -1.8139,-0.59503 -2.56934,-1c-0.75592,-0.40523 -1.51282,-0.89565 -2.40265,-1.19867c-0.73132,-0.24905 -1.81494,-0.03128 -2.5827,-0.15733c-1.0658,-0.17497 -1.75012,-0.64432 -2.40399,-1.07733c-0.80182,-0.53096 -1.60852,-0.81041 -2.41064,-0.84799c-0.99451,-0.0466 -1.78333,0.0428 -2.64288,-0.35533c-0.91241,-0.42262 -1.75714,-0.64734 -2.55713,-0.64734c-0.90002,0 -1.79999,0 -2.70001,0c-0.93201,0 -1.556,0 -2.556,0c-1.0065,0 -1.75751,0 -2.944,0c-0.79999,0 -1.60001,0 -2.39999,0c-0.80002,0 -1.99985,0 -2.7955,0c-0.78366,0 -1.54733,0 -2.63785,0c-0.68265,0 -1.66666,0 -2.31934,0c-1.3685,0 -2.09549,0 -2.82648,0c-0.711,0 -1.97784,0 -2.74884,0c-0.86932,0 -1.86749,0 -2.61484,0c-1.03183,0 -1.97849,0 -2.83182,0c-0.94135,0 -1.70935,0 -2.6507,0c-0.69064,0 -1.79999,0 -2.65866,0c-0.86331,0 -1.76334,0 -2.68265,0c-0.83334,0 -1.81183,0 -2.63202,0c-0.90134,0 -1.80133,0 -2.72217,0c-0.80048,0 -1.65381,0 -2.59381,0c-0.9855,0 -1.77069,0 -2.72134,0c-0.76532,0 -1.76401,0 -2.564,0c-0.99869,0 -1.76401,0 -2.716,0c-1.05066,0 -1.70963,-0.02289 -2.71735,0c-0.7926,0.01801 -1.64053,0.31441 -2.37732,0.57466c-0.97586,0.3447 -1.78918,0.41492 -2.78934,0.42534c-0.78931,0.00822 -1.83334,0 -2.62534,0c-0.85867,0 -1.7735,-0.30733 -2.728,0.01067c-0.78522,0.2616 -1.36578,0.90883 -2.05566,1.04201c-0.99823,0.1927 -1.78241,0.51501 -2.56949,1.04716c-0.74509,0.50377 -1.52136,0.8875 -2.42151,0.90016c-0.8999,0.01266 -1.74741,0.36856 -2.39999,0.716c-0.78683,0.4189 -1.67389,0.59836 -2.41068,0.85866c-0.97601,0.34482 -1.81906,0.37282 -2.95599,0.59201c-0.79843,0.15393 -1.35593,0.34872 -2.23468,0.63466c-0.90082,0.29312 -1.81808,0.605 -2.47067,0.79868c-0.69669,0.20677 -1.87088,0.50067 -2.74231,0.7045c-0.92722,0.21687 -1.41037,0.3187 -2.38834,0.58083c-1.00095,0.26828 -1.996,0.59485 -2.48834,0.76733c-0.97,0.33984 -1.89441,0.69539 -2.33835,0.86334c-1.22772,0.46448 -1.97382,0.74347 -2.73315,0.96317c-0.80939,0.23418 -2.2702,0.5246 -2.84451,0.62067c-0.61499,0.10287 -1.26413,0.20482 -2.63464,0.37933c-0.70309,0.08952 -1.40881,0.16876 -2.10901,0.23549c-1.34842,0.12849 -1.98453,0.17375 -3.18234,0.22818c-0.56949,0.02588 -1.67096,0.04883 -2.21066,0.05266c-1.62296,0.01152 -2.17725,-0.00327 -3.2955,0.0135c-0.55423,0.00832 -1.62952,0.04344 -2.13666,0.10533c-1.36493,0.16658 -2.10568,0.41096 -2.94083,0.88567c-0.69891,0.39728 -1.48587,0.81535 -2.24734,1.01466c-0.95587,0.2502 -1.8623,0.74779 -2.53601,1.03801c-0.84177,0.36263 -1.64703,0.78372 -2.39999,1.16866c-0.76318,0.39017 -1.56631,0.6947 -2.29999,1.21468c-0.78708,0.55785 -1.27951,1.25824 -2.12085,1.564c-0.94379,0.34297 -1.63327,0.63773 -2.59515,0.916c-0.75519,0.21848 -1.52585,0.47894 -2.28851,0.73134c-0.97888,0.32394 -1.81299,0.30371 -2.79532,0.57399c-0.798,0.21956 -1.8085,0.56262 -2.49567,0.83134c-0.8573,0.33525 -1.61304,0.81183 -2.50452,0.94865c-0.91592,0.14058 -1.53461,0.72438 -2.45267,0.946c-0.68295,0.16487 -1.50003,0.5937 -2.44733,0.93117c-0.8555,0.30476 -1.71432,0.12151 -2.668,0.12151c-0.73199,0 -1.46399,0 -2.56,0c-0.97198,0 -1.87201,0 -2.772,0c-0.89999,0 -1.82358,-0.06422 -2.37915,0.52083c-0.68854,0.72508 -1.0415,1.46875 -1.93152,1.47917c-0.91125,0.01067 -1.67267,0 -2.44666,0c-1.00684,0 -1.80518,0 -2.66351,0c-0.87833,0 -2.14581,0 -2.90717,0c-0.68933,0 -1.60583,0 -2.65048,0c-0.68552,0 -1.52017,0 -2.526,0c-0.85266,0 -1.81683,0 -2.62085,0c-0.82199,0 -1.85333,0 -2.77466,0c-0.68399,0 -1.68268,0 -2.47916,0c-1.1875,0 -2,0 -2.84216,0c-0.85333,0 -1.79468,0 -2.84534,0c-0.66934,0 -1.43466,0 -2.43784,0c-0.85266,0 -1.81702,0 -2.6315,0c-0.8685,0 -2.064,0 -2.664,0c-0.89999,0 -2.10001,0 -2.69867,0c-0.88049,0 -1.716,0 -2.71735,0c-0.90933,0 -1.85065,0 -2.63217,0c-0.7905,0 -1.90881,0 -2.74283,0c-0.909,0 -1.80899,0 -2.71967,0c-0.91064,0 -1.76398,0 -2.70532,0c-0.76801,0 -1.70935,0 -2.39999,0c-1.10934,0 -1.96802,0 -2.83133,0c-0.89551,0 -1.85269,0 -2.75269,0c-0.89999,0 -1.69998,0 -2.60001,0c-0.89999,0 -1.82083,0 -2.62149,0c-0.88916,0 -1.87851,0 -2.6785,0c-1,0 -1.78934,0 -2.51468,0c-1.00616,0 -2.02817,0 -2.74664,0c-0.7905,0 -1.81717,0 -2.71783,0c-1.02084,0 -1.82083,0 -2.62085,0c-1.00449,0 -1.85715,0 -2.82132,0c-0.80402,0 -1.62601,0 -2.65701,0c-0.88,0 -1.755,0 -2.61716,0c-0.82535,0 -1.78851,0 -2.65182,0c-0.90002,0 -1.82224,0.05266 -2.67352,-0.02083c-0.9863,-0.08514 -1.78952,-0.44221 -2.4935,-0.62651c-1.11423,-0.29169 -1.79047,-0.3071 -2.48566,-0.33183c-1.03152,-0.03671 -1.95683,-0.02083 -2.9375,-0.02083c-0.89583,0 -1.758,0 -2.66251,0c-0.89999,0 -1.80144,0.04724 -2.7135,-0.0045c-0.74568,-0.04231 -1.74075,-0.2814 -2.38382,-0.42084c-0.69823,-0.1514 -2.13478,-0.41881 -2.81868,-0.49066c-0.65765,-0.06909 -1.63986,-0.11113 -2.65067,-0.25067c-0.71872,-0.09923 -1.44632,-0.26692 -2.5235,-0.48067c-0.97505,-0.19348 -1.80235,-0.28056 -2.52449,-0.37799c-1.21182,-0.16351 -1.74394,-0.33994 -2.632,-0.54933c-0.63792,-0.15042 -2.03664,-0.35213 -2.77867,-0.38934c-0.74881,-0.03757 -1.49066,-0.03532 -2.55333,-0.036c-0.996,-0.00063 -1.64667,0.00124 -2.98801,0c-0.72,-0.00067 -1.48041,0.00014 -2.28,-0.036c-0.84059,-0.03798 -2.17526,-0.18225 -2.63866,-0.248c-0.95158,-0.13503 -1.92456,-0.2962 -2.41917,-0.36334c-1.49332,-0.20271 -1.99422,-0.24445 -2.98199,-0.2955c-0.95042,-0.04913 -1.40547,-0.05077 -2.25751,-0.05583c-1.39996,-0.00833 -2.1935,-0.00133 -3.256,-0.00133c-0.78934,0 -1.83333,0 -2.54167,0c-0.95833,0 -1.82533,0 -2.5,0c-0.71466,0 -2.13766,0 -2.82365,0c-0.718,0 -1.51601,0 -2.968,0c-0.57317,0 -1.18533,0 -2.48267,0c-0.66318,0 -1.32133,0 -1.9635,0c-1.7205,0 -2.1925,0 -3.3685,0c-0.70401,0 -1.45601,0 -2.88034,0c-0.57834,0 -1.19667,0 -1.845,0c-1.34666,0 -2.02499,0 -2.69333,0c-1.26666,0 -2.388,0 -2.89117,0c-0.89633,0 -1.98082,0 -2.98616,0c-0.85201,0 -1.756,0 -2.59767,0c-1.00116,0 -1.71967,0 -2.51016,0c-1.02699,0 -1.96899,0 -2.7175,0c-1.19733,0 -1.87067,0 -2.54401,0c-1.18666,0 -1.97867,0 -2.99117,0c-0.86217,0 -1.6955,0 -2.674,0c-0.82016,0 -1.7215,0 -2.62151,0c-0.89999,0 -1.79999,0 -2.7045,0c-0.86217,0 -1.6955,0 -2.674,0c-0.82016,0 -1.7215,0 -2.62151,0c-0.82133,0 -1.73332,0 -2.65067,0c-0.74399,0 -1.78133,0 -2.55466,0c-0.964,0 -1.7155,0 -2.51201,0c-1.22099,0 -2.021,0 -2.92549,0c-0.95851,0 -1.92384,0 -2.5825,0c-1.008,0 -1.85921,0.07822 -2.6955,0.5c-0.79115,0.39902 -1.55148,0.47992 -2.25117,0.66933c-1.21852,0.32986 -1.89014,0.69019 -2.61333,1.01601c-0.73283,0.33017 -1.78838,0.80452 -2.4485,1.05299c-0.87785,0.33043 -1.82391,0.65912 -2.64533,0.74084c-1.00011,0.0995 -1.70396,-0.10889 -2.76367,0.02533c-0.87715,0.1111 -1.40923,0.81633 -2.35716,0.98483c-0.88617,0.15753 -1.79305,-0.27934 -2.27867,-1.08917c-0.43762,-0.72978 -1.15672,-1.02367 -1.82133,-1.60466c-0.63645,-0.55638 -1.3326,-1.26605 -1.8,-1.81633c-0.64756,-0.76237 -0.83017,-1.6259 -1.6,-2.23634c-0.77477,-0.61435 -1.53049,-0.86792 -2,-1.564c-0.53587,-0.79446 -1.14976,-1.40958 -1.9,-1.8455c-0.76326,-0.4435 -1.30718,-1.12622 -2,-1.83333c-0.50529,-0.5157 -1.09734,-1.32291 -1.5,-2c-0.49673,-0.83528 -0.99474,-1.48431 -1.7,-2.2c-0.49632,-0.50365 -1.21761,-1.18283 -1.89983,-1.90001c-0.55774,-0.58632 -0.83771,-1.4408 -1.12167,-2.22133c-0.32064,-0.88138 -0.78214,-1.75769 -1.3785,-2.23199c-0.77931,-0.61981 -1.20581,-1.21088 -1.56934,-1.964c-0.39211,-0.81233 -1.40772,-1.01195 -1.789,-1.98267c-0.32569,-0.82919 -0.67368,-1.4122 -1.06699,-2.14667c-0.41391,-0.77292 -0.54519,-1.55385 -1.0745,-2.33183c-0.50593,-0.74362 -1.01067,-1.49323 -1.5475,-2.07417c-0.63633,-0.68863 -1.03596,-1.34518 -1.70984,-1.89465c-0.7034,-0.57353 -1.41145,-0.9045 -2.34283,-1.04817c-0.88949,-0.13722 -1.8,-0.00443 -2.71067,-0.0045c-0.91067,-0.00009 -1.80217,0.08569 -2.56783,-0.22133c-0.7741,-0.31041 -1.64132,-0.60904 -2.5215,-0.7995c-0.85056,-0.18405 -1.65833,-0.8656 -2.32533,-0.94318c-1.00189,-0.11652 -1.87022,-0.026 -2.77467,-0.036c-0.94184,-0.01042 -1.73289,-0.1683 -2.672,-0.42534c-0.54907,-0.15028 -1.72617,-0.42329 -2.619,-0.52199c-0.83553,-0.09236 -1.78438,-0.19777 -2.44767,-0.47801c-0.9968,-0.42116 -1.66116,-0.56424 -2.63983,-0.57466c-0.82012,-0.00873 -1.748,0.18375 -2.6215,-0.036c-0.86283,-0.21706 -1.59851,-0.9213 -2.56667,-0.964c-0.67934,-0.02997 -1.52008,0.01125 -2.51733,-0.00133c-0.81617,-0.0103 -1.64485,-0.02771 -2.632,-0.28267c-0.92433,-0.23872 -1.84689,-0.58086 -2.63216,-0.65884c-0.78799,-0.07826 -1.90883,-0.05716 -2.6305,-0.05716c-0.92133,0 -1.82133,0 -2.72133,0c-0.9,0 -1.80017,0 -2.58533,0c-0.96133,0 -1.80141,0.01125 -2.79866,-0.00133c-0.81617,-0.0103 -1.64545,-0.0255 -2.63067,-0.28267c-0.67607,-0.17647 -1.67853,-0.60072 -2.47467,-0.68001c-1.03948,-0.10353 -2.11238,-0.5705 -2.62733,0.089c-0.54095,0.69278 0.34413,1.58746 0.75,2.44833c0.22235,0.47162 0.71798,1.4304 0.98667,1.89333c0.73283,1.26259 1.19801,1.92577 1.86934,2.69067c0.39513,0.45021 1.23045,1.22044 1.769,1.82184c0.74026,0.82664 0.86542,1.63315 1.063,2.43149c0.24106,0.97403 0.89022,1.36771 1.41067,2.10535c0.56636,0.8027 0.56792,1.784 0.568,2.68399c0.00008,0.90001 0.24213,1.75378 0.64734,2.5c0.41329,0.76112 0.35266,1.7 0.35266,2.60001c0,0.89999 0.00033,1.8 0.17067,2.5l0.68,0.59999l0.816,0.60001l0.384,0.636" stroke-width="2" stroke="#000" fill="none"/>
  <path t="18211,18840,18840,18848,18858,18858,18944,19008,19008,19056,19056,19072,19081,19120,19160,19160,19176,19177,19177,19192,19192,19256,19272,19288,19320,19320,19352,19352,19392,19392,19424,19472,19473,19473,19488,19496,19510,19510,19606,19621,19621,19645,19646,19646,19680,19720,19784,19784,19800,19808,19809,19832,19840,19856,20128,20138,20138,20148,20148,20149,20149,20155,20155,20156,20156,20156,20157,20160,20161,20161,20161,20161,20166,20166,20166,20166,20167,20174,20175,20175,20175,20182,20182,20182,20190,20190,20198,20198,20368,20369,20440,20449,20450,20459,20460,20466,20467,20467,20476,20493,20517,20518,20525,20628,20629,20638,20638,20639,20640,20641,20647,20648,20657,20658,20667,20674,20752,20753,20784,20816,20817,20818,20826,20827,20872" id="svg_2" d="m515,164c-1,1 -0.98688,1.85046 -0.47919,2.5c0.60065,0.76846 1.31232,1.26913 1.87921,1.91066c0.6391,0.72324 0.83203,1.55167 1.59998,2.25601c0.60944,0.55893 1.12146,1.11282 1.57465,1.93333c0.43707,0.79129 0.62921,1.72931 0.94617,2.42082c0.45422,0.991 0.74835,1.592 1.1792,2.32201c0.46741,0.79201 1.17828,1.38765 1.77917,2.15717c0.50739,0.64978 0.2804,1.73077 0.85413,2.5c0.49823,0.668 1.48608,0.95154 1.65771,1.75717c0.18658,0.87595 -0.00238,1.80499 0.44495,2.61749c0.46893,0.85176 0.93591,1.46774 1.36401,2.14134c0.55389,0.87157 1.09106,1.58238 1.20001,2.48399c0.0965,0.79874 0.56433,1.4911 1.09998,2.3215c0.43671,0.67702 0.88452,1.68661 1.20001,2.2695c0.38153,0.70497 1.41437,1.26183 1.68933,2.05566c0.27411,0.79129 -0.04016,1.74387 0.36334,2.59616c0.38373,0.81059 0.56421,1.70493 1.258,2.32117c0.6582,0.58463 1.04926,1.03448 1.41071,1.82533c0.31714,0.69388 1.27594,0.6093 2.31195,0.77734c0.98999,0.16058 1.72644,0.34914 2.53284,0.48067c1.29663,0.21149 1.75476,0.24005 2.69104,0.29999c0.96307,0.06166 1.45422,0.06639 2.44415,0.13667c0.99957,0.07097 1.99799,0.19528 2.98798,0.34134c0.49023,0.07233 1.45074,0.24362 2.84399,0.40799c0.44427,0.05241 1.30609,0.10634 2.125,0.1875c0.78125,0.07742 2.22797,0.40298 2.88452,0.68451c0.64453,0.27637 1.21661,0.69736 2.45697,1.05167c0.87097,0.24879 1.46405,0.23233 2.7785,0.243c0.67505,0.00548 1.755,0 2.547,0c0.8587,0 1.72205,0 2.62201,0c0.91937,0 1.75269,0 2.73151,0c0.83099,0 1.7901,0.02107 2.52118,-0.02083c0.73364,-0.04205 1.75385,-0.56548 2.59998,-0.85767c0.85846,-0.29645 1.73096,0.06216 2.60004,-0.17867c0.81726,-0.22646 1.51715,-0.85159 2.50665,-1.26401c0.40961,-0.17073 1.31781,-0.50002 2.26666,-0.8175c0.46228,-0.15468 1.70172,-0.49744 2.74664,-0.79999c0.88788,-0.25708 1.43799,-0.8118 2.08002,-1.35684c0.7547,-0.6407 1.67511,-0.91046 2.29999,-1.27916c0.78265,-0.46179 1.71729,-0.87338 2.23602,-1.276c0.75922,-0.58928 1.56134,-0.98001 2.44965,-1.19751l0.729,-0.52649" stroke-width="2" stroke="#000" fill="none"/>
  <path t="24241,24506,24506,24514,24514,24521,24768,24776,24785,24785,24785,24792,24792,24792,24792,24800,24800,24800,24801,25304,25304,25321,25344,25472,25545,25685,25685,25693,25693,25701,25701,25701,25701,25709,25709,25709,25710,25710,25717,25717,25718,25725,25725,25725,25733,25741,25960,25976,26000,26024,26040,26056,26104,26128" id="svg_3" d="m374,200c-1.836,0 -2.60132,0 -3.59549,0c-0.91919,0 -1.88367,0 -2.8045,0c-0.90451,0 -1.76666,0 -2.66251,0c-0.7095,0 -1.58051,0 -2.6095,0c-0.74933,0 -1.53067,0 -2.72751,0c-0.78699,0 -1.53799,-0.00067 -2.54449,0c-1,0.00067 -1.98077,-0.06996 -2.53516,0.52083c-0.68701,0.73212 -0.52109,1.77917 -0.52084,2.67917c0.00024,0.89984 0.23645,1.60213 1.0715,1.74284c0.75131,0.1266 1.93008,0.01843 2.83301,0.07516c0.61856,0.03886 1.61676,0.25981 2.61667,0.86749c0.37646,0.22881 1.09848,0.82074 1.81747,1.44917c0.6969,0.60912 1.30075,1.20255 2.147,1.79382c0.6727,0.47002 1.50735,0.88602 2.30368,1.26083c0.71927,0.33855 1.63644,0.76483 2.26334,1.25801c0.64996,0.51132 1.76294,0.35564 1.94598,-0.44867c0.1994,-0.87627 0.00134,-1.79868 0.02219,-2.67784l0.6265,-0.5735l0.40533,-0.65182" stroke-width="2" stroke="#000" fill="none"/>
  <path t="26795,26896,26896,26896,26905,26905,26905,26906,26906,26914,26914,26914,26914,26920,26920,26930,26930,26930,26936,26937,26937,26944,26944,26950,27440,27473,27473,27480,27488,27512,27805,27813,27829,27829,27845,27861,27872,27873,27880,27890,27891,28000,28000,28024,28024,28048,28080,28080,28248,28248,28257,28258,28258,28312,28312,28416,28464" id="svg_4" d="m339,206c-2.96616,0 -3.5625,0 -4.21884,0c-1.52383,0 -1.94916,0 -2.83182,0c-0.89868,0 -1.78134,0 -3.00616,0c-0.72433,0 -1.68585,0 -2.25519,0c-1.23532,0 -1.91333,0 -3.1095,0c-0.81448,0 -1.38916,0 -2.57849,0c-0.89099,0 -1.728,0 -2.66666,0c-0.79169,0 -1.74396,-0.1335 -2.63333,0.0045c-0.93042,0.14438 -1.55115,0.76511 -1.69553,1.6955c-0.138,0.88937 -0.14746,1.81316 0.0062,2.7c0.14417,0.83218 0.97672,1.51497 1.78931,1.59868c0.89529,0.09222 1.72086,0.00133 2.68402,0.00133c0.86331,0 1.76334,0 2.68265,0c0.83334,0 1.81201,0 2.586,0c0.90002,0 1.76334,0.00011 2.74734,0c0.82132,-0.00009 1.71976,0.09567 2.61734,-0.28534c0.74512,-0.3163 1.64417,-0.93533 2.4035,-1.19383c0.52597,-0.17906 1.79248,-0.4355 2.4375,-0.5l1.01999,-0.021l0.90018,-0.22133" stroke-width="2" stroke="#000" fill="none"/>
  <path t="29050,29114,29114,29114,29122,29122,29123,29123,29128,29129,29138,29141,29155,29160,29170,29176,29176,29184,29184,29184,29197,29198,29198,29198,29440,29440,29464,29480,29496,29520,29560,29560,29568,29568,29592,29712,29712,29768,29784,29792,29808,29818,29819,29840,29856,29857,29866,29866,29872,29872,29873,29879,29879,29880,29880,29885,29886,29886,29886,29886,29894,29895,29895,29895,29895,29896,29896,29896,29901,29902,29902,29902,29902,29903,29903,29909,29910,29910,29910,29911,29911,29911,30168,30168,30169" id="svg_5" d="m281,205c-2.01883,0 -2.85733,0.00005 -3.48801,0c-1.03317,-0.00009 -2.12723,0.00243 -2.85065,-0.036c-0.69281,-0.0368 -1.89532,-0.2292 -2.59885,-0.464c-1.05069,-0.35068 -1.86118,-0.49933 -2.76251,-0.5c-0.89999,-0.00066 -1.82083,0 -2.62164,0c-0.92502,0 -1.845,0 -2.6355,0c-0.85352,0 -2.04285,0 -2.64151,0c-0.88049,0 -1.716,0 -2.71466,0c-0.84,0 -2.10754,-0.3792 -2.62952,0.35716c-0.48853,0.68919 -0.05716,1.74284 -0.05716,2.64284c0,0.75717 0,1.65266 0,2.51601c0,0.98399 -0.00145,1.96799 0,2.65866c0.00226,1.06366 0.35571,1.79674 1.20001,1.82533c0.89948,0.03047 1.8425,0.18575 2.59998,-0.08533c0.90112,-0.32246 1.31384,-1.25662 2.08536,-1.62933c0.89426,-0.43201 1.57639,-0.27338 2.79999,-0.28667c0.55072,-0.00598 1.42627,-0.01047 2.61499,-0.22c0.61322,-0.10809 1.56766,-0.37503 2.27036,-0.49467c1.16708,-0.19872 2.05246,-0.23146 2.52264,-0.248c0.99969,-0.03517 1.53,-0.03374 3.24002,-0.036c0.60965,-0.00081 1.23734,0 2.53867,0c0.66965,0 1.34933,0 2.03699,0c0.69366,0 2.091,0 3.48969,0c0.69681,0 1.39066,0 2.08047,0c0.68484,0 1.36368,0 3.35419,0c0.6445,0 1.276,0 1.89148,0c1.17102,0 1.72052,0 2.73251,0l1.2565,-0.00017l0.93149,-0.0105l0.6795,-0.04649" stroke-width="2" stroke="#000" fill="none"/>
  <path t="31441,31725,31725,31727,31734,31749,31749,31757,31757,31816,31840,31840,31848,31857,31864,31872,31872,31888,31888,32024,32024,32056,32082,32083,32094,32095,32110,32184,32184,32280,32280,32344,32432,32461,32462,32472,32496,32496,32504,32512,32518,32518,32533,32534,32541,32542,32542,32549,32550,32558,32573,32581,32597,32605,32606,32613,32614,32629,32630,32648,32800,32800,32896,33016,33016,33032,33032,33056,33064,33088,33184,33184,33192" id="svg_6" d="m228,208c-1,-1 -1.8,-1 -2.7,-1c-0.82083,0 -1.78534,0 -2.51067,0c-0.98917,0 -1.95744,0.08698 -2.90401,-0.00133c-0.89674,-0.08365 -1.42299,-0.75984 -2.38533,-0.97784c-0.87799,-0.1989 -1.70134,-0.02083 -2.66667,-0.02083c-0.83333,0 -1.812,0 -2.586,0c-0.89999,0 -1.76334,0 -2.74733,0c-0.82133,0 -1.67467,0 -2.616,0c-0.76801,0 -1.70934,0 -2.71733,0c-0.79201,0 -1.89565,0.27029 -2.59734,-0.08533c-0.74487,-0.37752 -0.59976,-1.43602 -0.56801,-2.39867c0.02853,-0.86467 0.21982,-1.9485 0.99867,-2.34933c0.72636,-0.37381 1.7,-0.16667 2.636,-0.16667c0.84933,0 1.57466,0 2.56416,0c0.82066,0 1.96651,0 2.748,0c0.7905,0 1.71851,0 2.63049,0c0.92134,0 1.82133,0 2.72134,0c0.90134,0 1.86667,0 2.52533,0c1.008,0 1.8,0 2.82733,0c0.69467,0 1.722,0 2.66867,0c0.85333,0 1.79822,-0.09286 2.67867,0c0.81349,0.08582 1.4537,0.83316 1.71466,1.51733c0.3555,0.93205 0.29601,1.88266 0.56934,2.68266l0.54933,0.8l0.16534,0.8l0.05849,0.89999" stroke-width="2" stroke="#000" fill="none"/>
  <path t="34145,34242,34242,34249,34249,34249,34256,34264,34269,34277,34301,34302,34405,34432,34440,34440,34448,34448,34448,34457,34458,34464,34464,34470,34528,34544,34552,34552,34568,34568,34568,34896,34896,34897,34944,34960,34992,35016,35017,35032,35040,35088,35088,35112,35112,35184,35200,35209,35210,35224,35234,35256,35272,35282,35283,35289,35290,35360,35480,35480,35490,35490" id="svg_7" d="m182,207c-2.00983,-0.94284 -2.78529,-0.99466 -3.83333,-1c-0.91998,-0.00468 -1.68001,0 -2.64584,0c-0.92082,0 -1.82736,0.10696 -2.72083,-0.00133c-0.91978,-0.11148 -1.45421,-0.80792 -2.40001,-0.98801c-0.79642,-0.15164 -1.7215,-0.01067 -2.61066,-0.01067c-0.9895,0 -1.81017,0 -2.47467,0c-0.99733,0 -1.79384,0 -2.98134,0c-0.79166,0 -1.73332,0 -2.63333,0c-0.89999,0 -1.80678,-0.05432 -2.51433,0.05716c-0.97089,0.15297 -1.72063,0.47162 -2.58833,0.65884c-0.8911,0.19226 -1.77556,0.26251 -2.58301,0.2795c-1.0421,0.02191 -1.95343,-0.21072 -2.01433,-1.0955c-0.0618,-0.89787 -0.08389,-1.84978 0.61067,-2.46399c0.66653,-0.58943 1.57368,-0.74466 2.27466,-1.23734c0.74562,-0.52406 1.52069,-0.80693 2.05333,-1.59866c0.55176,-0.82014 1.04874,-1.51497 1.86134,-1.59868c0.89526,-0.09221 1.8,-0.00133 2.7,-0.00133c0.91066,0 1.82133,0 2.67467,0c0.94133,0 1.70934,0 2.65067,0c1.008,0 1.8,0 2.65866,0l0.86334,0" stroke-width="2" stroke="#000" fill="none"/>
  <path t="37609,37782,37782,37782,37789,37789,37789,37789,37789,37797,37797,37797,37797,37797,37797,37807,37807,37807,37807,37807,37808,37813,37813,37813,37813,37813,37822,37822,37829,37845,37845,37845,37861,37861,37874,37875,37881,37881,37886,37886,37903,37926,37926,37941,37942,37957,37973,37974,37992,37992,38011,38026,38029,38030,38036,38037,38043,38043,38052,38053,38062,38062,38078,38078,38082,38082,38082,38093,38094,38094,38117,38118,38118,38125,38141,38157,38158,38173,38174,38183,38183,38183,38189,38190,38199,38199,38205,38206,38206,38215,38216,38221,38222,38222,38231,38231,38237,38238,38238,38247,38247,38253,38254,38254,38262,38269,38270,38277,38285,38286,38293,38301,38302,38309,38317,38333,38334,38341,38342,38349,38350,38350,38351,38357,38358,38365,38366,38366,38367,38373,38397,38398,38414,38421,38430,38430,38437,38437,38445,38470,38471,38480,38489,38500,38502,38506,38508,38517,38518,38519,38525,38534,38566,38590,38591,38618,38619,38624,38626,38634,38634,38637,38660,38692,38692,38709,38725,38726,38790,38790,38804,38805,38805,38828,38829,38861,38862,38870,38872,38879,38885,38933,38934,38942,38944,38957,39061,39062,39213,39221,39237,39277,39285,39287,39301,39309,39311,39357,39653,39661,39671,39673,39674,39678,39680,39682,39684,39724,39725,39727,39728,39777,39778,39778,39796,39796,39805,39814,39824,39826,39830,39832,39838,39838,39840,39841,39844,39845,39852,39853,39868,39869,39870,39876,39884,39965,39981,39983,39991,39992,39996,40004,40020,40028,40029,40036,40037,40044,40052,40060,40061,40070,40071,40076,40077,40086,40092,40093,40094,40095,40095,40102,40103,40103,40104,40105,40106,40108,40109,40110,40110,40111,40112,40113,40114,40117,40118,40118,40119,40119,40120,40140,40140,40141,40142,40142,40143,40205,40207,40217,40219,40224,40225,40226,40230,40236,40237,40244,40245,40252,40268,40276,40284,40284,40293,40295,40301,40303,40313,40357,40359,40369,40379,40381,40385,40386,40388,40389,40399,40400,40401,40404,40405,40406,40407,40408,40414,40415,40416,40417,40418,40420,40422,40423,40424,40430,40431,40432,40436,40437,40501,40621,40631,40634,40636,40646,40647,40648,40653,40654,40655,40656,40657,40660,40661,40662,40668,40669,40676,40677,40678,40684,40685,40685,40686,40692,40693,40693,40700,40701,40701,40709,40710,40711,40712,40712,40716,40717,40717,40718,40725,40726,40727,40732,40733,40741,40742,40748,40749,40750,40776,40777,40780,40781,40782,40783,40784,40790,40791,40791,40796,40797,40798,40806,40813,40814,40829,40829,40845,40845,40853,40854,40861,40877,40877,40885,40885,40893,40901,40901,40909,40909,40910,40917,40925,40933,40933,40941,40941,40957,40957,40958,40965,40966,40967,40973,40974,40974,40981,40982,40989,40990,40997,40998,41013,41013,41014,41021,41022,41023,41029,41045,41046,41061,41077,41103,41121,41124,41135,41137,41138,41145,41146,41147,41149,41150,41157,41159,41163,41164,41173,41181,41182,41189,41197,41198,41199,41205,41206,41213,41214,41221,41222,41223,41229,41237,41245,41253,41261,41269,41279,41280,41285,41286,41293,41294,41301,41302,41317,41318,41319,41325,41333,41334,41341,41357,41358,41365,41366,41373,41374,41381,41389,41390,41391,41392,41399,41400,41405,41406,41416,41417,41418,41419,41431" id="svg_8" d="m351,191c-1.48666,1.76933 -2.02469,2.5347 -2.46167,3.05183c-0.67932,0.80391 -1.49625,1.51329 -2.12167,1.94817c-0.67935,0.47238 -1.06635,0.69771 -2.38083,1.42134c-0.48639,0.26776 -1.52197,0.80499 -2.05667,1.07866c-0.53864,0.27568 -1.61264,0.81569 -2.64581,1.33333c-0.96283,0.48239 -1.42346,0.70554 -2.29169,1.16667c-0.83701,0.44455 -1.25162,0.6638 -2.44131,1.42101c-0.80008,0.50922 -1.17307,0.79207 -1.92834,1.28166c-0.69592,0.45111 -1.90347,1.02763 -2.58865,1.25566c-0.92227,0.30693 -1.40192,1.06238 -2.125,1.5625c-0.55023,0.38057 -1.33685,0.98901 -1.95834,1.45834c-0.96841,0.73131 -1.89816,0.68755 -2.66666,1.1875c-0.67795,0.44106 -1.20883,1.21095 -1.85068,1.63333c-0.86685,0.57047 -1.48267,1.2 -2.08267,1.8c-0.60001,0.59999 -1.31238,1.10864 -1.87915,1.92082c-0.51199,0.73367 -0.4079,1.70085 -0.74234,2.45767c-0.34943,0.79074 -1.22974,1.39418 -1.7785,2.18817c-0.44333,0.64145 -0.70975,1.233 -1.19867,2.23199c-0.3728,0.76173 -0.55917,1.79831 -0.97067,2.39999c-0.52148,0.76253 -1.41632,1.02739 -2.07349,1.854c-0.38989,0.49043 -1.00165,1.43465 -1.45718,2.15717c-0.44537,0.70644 -0.67563,1.4678 -1.05716,2.242c-0.51782,1.05074 -1.05499,1.72523 -1.45349,2.1015c-0.93652,0.88429 -1.65387,1.10374 -2.21866,1.64532c-0.71628,0.68684 -1.00952,1.59866 -1.67068,2.30151c-0.50217,0.53381 -1.06186,1.41029 -1.53598,2.07449c-0.49142,0.68843 -1.23645,1.14165 -1.88,1.70934c-0.79565,0.70187 -1.03174,1.36504 -1.80533,2.09467c-0.62259,0.58719 -1.52255,1.17914 -1.92603,1.66949c-0.5191,0.63089 -1.44391,1.1692 -2.15717,1.51434c-0.84634,0.40955 -1.3688,1.12715 -1.93832,1.7795c-0.61893,0.70892 -1.33154,1.01515 -2.42517,1.34467c-0.74219,0.22362 -1.53204,0.51845 -2.26266,1.19733c-0.50082,0.46538 -1.10623,1.38857 -1.79468,1.88c-0.66418,0.47412 -1.49481,1.09872 -2.27466,1.51483c-0.66864,0.35677 -1.13712,1.1216 -1.89999,1.78784c-0.60046,0.5244 -1.3923,0.77753 -2.10001,1.43315c-0.59363,0.54996 -1.52344,0.88168 -2.29999,1.3255c-0.72427,0.41394 -1.51416,0.70514 -2.26166,1.289c-0.61011,0.47653 -1.50018,1.29199 -2.02103,1.68436c-0.52716,0.39713 -1.32327,0.92316 -2.17465,1.57999c-0.65521,0.50549 -1.46838,1.19882 -2.14801,1.66949c-0.48929,0.33887 -1.21295,0.81317 -2.32266,1.2905c-0.86203,0.37079 -1.4184,0.92288 -2.07199,1.45068c-0.74573,0.60223 -1.56534,0.97263 -2.12085,1.61066c-0.6095,0.70001 -1.63815,0.67899 -2.30981,1.28534c-0.67072,0.60547 -0.81757,1.47653 -1.56934,2.104c-0.6557,0.54727 -1.66676,0.7041 -2.20001,1.25732c-0.58282,0.60468 -0.83124,1.43121 -1.56667,2.18668c-0.58423,0.60016 -1.11531,1.09753 -1.8815,1.80948c-0.56685,0.5267 -1.47501,0.85495 -2.15182,1.5585c-0.51833,0.53879 -0.98576,1.29114 -1.40001,1.97333c-0.57901,0.95355 -1.11301,1.55713 -1.34732,2.47351c-0.19678,0.76959 -0.80602,1.41846 -1.13667,2.23849c-0.30357,0.75287 -0.73798,1.60559 -0.88,2.48801c-0.15054,0.9353 0.03793,1.8031 -0.03867,2.74268c-0.05701,0.69913 -0.57101,1.64877 -0.99733,2.4035c-0.29866,0.52875 -0.83571,1.54312 -0.95833,2.4375c-0.11899,0.86786 -0.00989,1.79504 -0.04617,2.69434c-0.02809,0.69608 -0.58328,1.63336 -0.87399,2.44733c-0.30547,0.85526 -0.11659,1.68042 -0.47867,2.55267c-0.29776,0.71729 -1.06332,1.51538 -1.47617,2.34732c-0.32608,0.6571 -0.85287,1.42236 -1.10951,2.29999c-0.25313,0.8656 -0.05716,1.80002 -0.05716,2.70001c0,0.79999 0.05792,1.67075 -0.35716,2.64816c-0.28532,0.67188 -1.29353,1.11179 -1.62201,1.87268c-0.35699,0.82697 -0.11153,1.82123 0.02184,2.72983c0.11136,0.75876 0.82286,1.64185 1.3815,1.93948c0.61841,0.3295 1.3539,0.5163 2.40916,0.9765c1.02328,0.44626 1.62599,0.8317 2.205,1.18066c1.04198,0.62802 1.69656,1.08289 2.56033,1.36603c0.97203,0.3186 1.74417,0.28439 2.76534,0.28665c0.836,0.00183 1.73628,-0.01306 2.52133,0c0.96173,0.01602 1.83252,0.20432 2.53601,0.664c0.84586,0.5527 1.32762,1.09503 1.89465,1.48401c0.95903,0.65787 1.87297,0.83597 2.88402,0.85199c0.7999,0.01266 1.79999,0 2.58932,0c0.72534,0 1.82629,-0.01459 2.61066,0.42532c0.72733,0.4079 1.60001,0.57468 2.48535,0.57468c0.94,0 1.63065,0 2.59381,0c0.92084,0 1.84518,0.07849 2.6875,-0.16666c0.86179,-0.25082 1.65555,-0.74527 2.52884,-0.82886c0.90039,-0.08621 1.84225,0.03296 2.62582,-0.22583c0.87698,-0.28964 1.65143,-0.71646 2.56268,-0.77731c0.93924,-0.06271 1.63199,-0.00134 2.65765,-0.00134c0.95834,0 1.83884,0 2.5625,0c0.82367,0 1.27051,0 2.73901,0c0.52884,0 1.6395,0 2.21933,0c1.20367,0 1.8255,0 3.10416,0c0.65466,0 1.98602,0 2.65869,0c0.67465,0 1.3493,0 2.02197,0c0.66867,0 2.63101,0 3.26602,0c0.625,0 1.845,0 2.44,0c0.58499,0 2.28,0 2.82449,0c1.047,0 1.54349,0 2.4675,0c0.81198,0 2.2305,0 3.03467,0c0.78165,0 1.58167,0 2.54117,0c1.05798,0 1.80948,0 2.76898,0c0.9765,0 1.81061,0.03873 2.78833,-0.00015c0.71872,-0.02859 1.44406,-0.68539 2.3215,-0.94269c0.86548,-0.25378 1.75082,-0.36655 2.45718,-0.7045c0.85449,-0.40881 1.64734,-0.3504 2.64151,-0.35266c0.76532,-0.00174 1.84415,0 2.70148,0c0.78519,0 1.72546,0.02289 2.73318,0c0.7926,-0.01801 1.64331,-0.30212 2.34131,-0.57468c0.9335,-0.3645 1.79468,-0.42465 2.59869,-0.42532c0.81,-0.00067 1.79999,0 2.96948,0c0.42651,0 1.31851,0 2.24249,0c0.93201,0 1.84802,0 2.72934,0c0.84933,0 1.67468,0 2.48401,0c1.20117,0 1.99683,0 2.78049,0c0.76367,0 2.19901,0 2.85468,0c0.88351,0 1.83282,0 2.74484,0c0.92133,0 1.8822,0.07986 2.58798,-0.33334c0.73572,-0.43073 1.20892,-1.0571 2.03384,-1.64548c0.61145,-0.43613 1.37402,-0.82571 2.2995,-1.35452c0.75314,-0.43036 1.56638,-0.91559 1.97916,-1.16666c0.80774,-0.49127 1.86496,-1.15155 2.59668,-1.68567c0.67355,-0.49164 1.42102,-0.99695 2.13483,-1.45032c0.80289,-0.50995 1.38934,-1.02634 2.02533,-1.57468c0.92422,-0.79688 1.44684,-1.19092 1.98935,-1.58932c0.82025,-0.60239 1.62149,-1.18439 2.31299,-1.7955c0.62756,-0.5546 1.29501,-1.23785 1.85767,-1.80051c0.65866,-0.65866 1.36816,-1.36816 1.96649,-1.96649c0.32419,-0.32419 0.99753,-0.99747 1.67084,-1.67084c0.92371,-0.9238 1.45999,-1.44955 1.92502,-1.94583c0.64984,-0.69351 1.24875,-1.43668 1.83099,-2.2355c0.37943,-0.52057 1.01746,-1.47421 1.57468,-2.11334c0.60803,-0.69739 1.28693,-1.31665 1.73599,-2.21451c0.33963,-0.67905 0.53534,-1.43842 1.10001,-2.2095c0.45132,-0.61627 0.90671,-1.57446 1.10449,-2.3685c0.22379,-0.8985 0.28574,-1.37747 0.58084,-2.26083c0.37833,-1.13242 0.95673,-1.8446 1.46198,-2.41049c0.6532,-0.7316 1.0481,-1.44406 1.29102,-2.20282c0.37515,-1.17184 0.58975,-1.96988 0.93634,-2.64133c0.41931,-0.81229 0.35416,-1.76324 0.7825,-2.61136c0.34998,-0.6929 1.00775,-1.37494 1.35748,-2.26865c0.32697,-0.83548 0.51364,-1.80252 0.78534,-2.48401c0.38852,-0.97455 0.49628,-1.6955 0.5,-2.63599c0.00336,-0.84933 0.02548,-1.81131 0.44266,-2.56384c0.46454,-0.83798 1.21735,-1.22186 1.51569,-2.27933c0.2244,-0.79535 -0.01633,-1.84644 0.0625,-2.52084c0.11597,-0.99243 0.64743,-1.63174 1.07898,-2.543c0.33572,-0.70892 0.5806,-1.55878 0.73352,-2.457c0.15152,-0.88992 0.12149,-1.77573 0.33331,-2.83334c0.1434,-0.71605 0.52121,-1.51581 1.03201,-2.28265c0.43036,-0.64609 0.71579,-1.54654 0.854,-2.2885c0.18716,-1.00473 0.59692,-1.77573 0.82599,-2.79567c0.18179,-0.80942 0.16153,-1.49503 0.40668,-2.4825c0.20013,-0.80612 0.466,-1.57558 1.01016,-2.50301c0.49387,-0.84172 0.68582,-1.61453 0.7045,-2.51433c0.01868,-0.90053 0.52188,-1.64828 0.91733,-2.50267c0.33951,-0.73354 0.6369,-1.5807 0.97601,-2.06934c0.59726,-0.86066 1.42838,-1.74059 2.07333,-2.32399c0.32837,-0.29704 0.99606,-0.86435 1.67084,-1.3325c1.07312,-0.74452 1.90024,-0.93983 2.5625,-1.6395c0.48511,-0.51248 1.15829,-1.20667 1.89999,-1.6535c0.77856,-0.46906 1.3089,-1.19095 2.06665,-1.94518c0.48489,-0.48264 0.9498,-1.05875 1.948,-1.66533c0.65128,-0.39577 1.28018,-1.05055 1.64252,-1.577c0.69571,-1.01083 1.27292,-1.53107 1.67349,-2.10567c0.63452,-0.91022 0.85931,-1.87846 1.66916,-2.364c0.72977,-0.43753 1.34784,-0.87199 1.87485,-1.55734c0.50351,-0.65479 0.82776,-1.44861 1.32983,-2.21666c0.45367,-0.69402 1.20166,-1.43112 1.83417,-1.93668c0.72318,-0.57802 1.08182,-1.33073 1.71332,-1.89465c0.61786,-0.55176 1.43088,-0.92897 2.05069,-1.88c0.50171,-0.76981 0.57938,-1.57307 1.14999,-2.27884c0.59109,-0.73108 1.08835,-1.19225 1.80865,-1.76782c0.63257,-0.50548 1.31396,-1.29091 1.83417,-1.8795c0.64932,-0.73466 1.64905,-1.02385 2.30984,-1.41968c0.75745,-0.45374 1.23892,-0.79156 2.18481,-1.53299c0.56552,-0.44327 1.47278,-1.05943 2.05652,-1.39317c0.92203,-0.52713 1.70151,-1.01216 2.23248,-1.34317l0.7515,-0.45149l0.95502,-0.4595" stroke-width="2" stroke="#000" fill="none"/>
  <path t="44367,44494,44518,44542,44542,44560,44590,44598,44606,44622,44654,44670,44694,44694,44702,44718,44734,44826,44828,44868,44894,44894,45054,45062,45078,45088,45089,45094,45094,45109,45581,45581,45581,45597,45597,45749,45765,45869,46021,46085,46085,46141,46157,46157,46158,46165,46166,46173,46173,46182,46183,46183,46197,46237,46237,46397,46397,46477,46493,46501,46501,46509,46541,46542,46549,46565,46565,46575,46576,46576,46591,46639,46653,46669,46677,46678,46685,46686,46693,46709,46710,46710,46733,46734,46766,46789,46805,46860,46861,46876,46876,46877,46877,46877,46877,46878,46884,46884,46885,46892,46892,46893,46893,46901,46901,46902,46908,46908,46909,46917,46917,46917,46973,46974,46981,46982,46997,46998,47005,47028,47028,47036,47036,47037,47044,47044,47052,47076,47141,47197,47205,47206,47215,47277,47301,47317,47333,47373,47374,47389,47413,47414,47429,47430,47437,47469,47485,47501,47502,47510,47511,47512,47542,47543,47568,47582,47590,47592,47599,47606,47607,47612,47622,47628,47629,47855,47855,47860,47861,47876,47877,47902,47903,47912,47927,47934,47958,47959,48014,48046,48054,48078,48080,48088,48090,48091,48099,48101,48110,48112,48120,48122,48136,48137,48140,48141,48142,48148,48149,48156,48157,48164,48196,48398,48414,48423,48436,48452,48460,48476,48477,48508,48517,48542,48566" id="svg_9" d="m488,153c1.71466,-0.17067 1.8287,-1.07745 2.2215,-1.97833c0.2775,-0.63644 1.27832,-1.01125 2.1785,-1.02167c0.89993,-0.01041 1.80862,0.12399 2.69983,-0.00017c0.80188,-0.11172 1.32407,-0.81375 2.10019,-1.28517c0.67636,-0.41081 1.09702,-1.31206 2,-1.62933c0.85275,-0.29962 1.53918,-0.52992 2.15717,-1.03265c0.70346,-0.57227 1.22955,-1.19612 1.72684,-1.76733c0.52979,-0.60852 1.56396,-0.85077 2.21149,-1.58534c0.58374,-0.66222 0.76105,-1.45805 1.40982,-2c0.67697,-0.56549 1.21045,-1.27361 1.73767,-2.02133c0.52151,-0.73961 1.13934,-1.22264 1.95435,-1.79333c0.71371,-0.49977 1.32864,-1.16916 1.95532,-1.83266c0.54315,-0.57506 1.14728,-1.1413 1.48065,-2.05267c0.27618,-0.75507 -0.36456,-1.5311 -1,-2.16667c-0.65869,-0.65881 -1.1676,-1.28036 -2.23199,-1.66266c-0.73386,-0.26358 -1.72488,-0.11957 -2.41116,-0.22783c-0.97263,-0.15343 -1.68427,-0.46391 -2.42215,-0.65884c-1.09879,-0.29028 -2.08652,-0.51231 -2.76801,-0.784c-0.97455,-0.38852 -1.81949,-0.08459 -2.64282,-0.55717c-0.81213,-0.46614 -1.35736,-0.92562 -2.15717,-0.94283c-0.83658,-0.01801 -1.66998,-0.31931 -2.54733,-0.64733c-0.8873,-0.33176 -1.81934,-0.35267 -2.67352,-0.35267c-0.97916,0 -1.76849,0 -2.49384,0c-0.96448,0 -1.88531,0 -2.78531,0c-0.90002,0 -1.81592,0.09283 -2.58536,-0.08533c-0.97385,-0.2255 -1.62094,-0.66759 -2.6355,-0.91467c-0.80588,-0.19625 -1.72583,-0.43918 -2.47382,-0.64733c-1.02954,-0.2865 -1.80267,-0.352 -2.70535,-0.35267c-0.89999,-0.00066 -1.79999,0 -2.6315,0c-0.76865,0 -1.83514,0 -2.85782,0c-0.58383,0 -1.19867,0 -1.83151,0c-1.26767,0 -1.8765,-0.00423 -3.45032,0.00017c-0.79034,0.00221 -1.43597,-0.05668 -2.6955,0.1665c-0.80066,0.14187 -1.35593,0.34876 -2.23468,0.63467c-0.90048,0.29297 -1.7908,0.61781 -2.69867,0.8415c-0.89322,0.22008 -1.79471,0.31891 -2.664,0.3465c-1.06885,0.03393 -1.78583,-0.05309 -2.6315,0.06783c-1.01813,0.14558 -1.54922,0.5507 -2.58316,0.82133c-0.75726,0.19822 -1.67407,0.11236 -2.53732,0.1215c-0.98416,0.01042 -1.79504,0.24887 -2.69467,0.57467c-0.78101,0.28284 -1.58878,0.40612 -2.38934,0.424c-0.99524,0.02222 -1.91467,0.00134 -2.87915,0.00134c-0.92084,0 -1.82556,-0.09088 -2.72086,0.00134c-0.81259,0.08369 -1.24719,0.8205 -1.82532,1.56266c-0.48611,0.62402 -1.14133,1.26933 -1.97467,1.436c-0.83334,0.16667 -1.12466,1.03346 -1.61066,1.60001c-0.63754,0.74324 -1.573,1.12831 -2.18933,1.56932c-0.73831,0.52831 -0.88876,1.50568 -1.90002,1.82167c-0.86011,0.26877 -1.65787,0.55278 -2.46664,0.84233c-0.81937,0.29335 -1.86108,0.26486 -2.62268,0.61334c-0.5791,0.26498 -1.28244,1.06927 -1.79999,1.692c-0.65903,0.79294 -1.51068,0.86133 -2.41068,0.86133c-0.79999,0 -1.75717,0 -2.65268,0c-0.86331,0 -1.74622,0.09352 -2.40866,0.57466c-0.60654,0.44054 -1.54193,0.39415 -2.53867,0.42984c-0.80121,0.02869 -1.79782,0.28172 -2.564,0.57016c-0.81378,0.30637 -1.62128,0.39508 -2.48416,0.7825c-0.82083,0.36855 -1.32767,1.26195 -1.96249,1.66817c-0.74948,0.47958 -1.41147,1.17557 -2.08936,1.61751c-0.73392,0.47845 -1.73618,0.62283 -2.17865,1.45717c-0.44275,0.83481 -0.76532,1.53867 -1.44266,2.22133c-0.50204,0.50598 -1.00894,1.04347 -1.79468,1.79333c-0.62344,0.59499 -1.46802,0.96252 -2.17416,1.6425c-0.65302,0.62883 -0.58307,1.54024 -1.28052,2.35883c-0.53589,0.62897 -1.4566,1.01955 -2.02032,1.54117c-0.56604,0.52376 -1.09311,1.56995 -1.409,2.30116c-0.36218,0.83839 -1.21344,0.95146 -1.93866,1.46701c-0.71265,0.50661 -0.66806,1.39294 -1.09735,2.13866c-0.39697,0.68956 -1.61737,0.48659 -2.01666,1.1405c-0.48102,0.7878 -1.26843,1.40894 -1.66199,2.0955c-0.42062,0.73383 -0.30618,1.7 -0.638,2.5l-0.526,0.79984" stroke-width="2" stroke="#000" fill="none"/>
 </g>
 <g display="none">
  <title>muse_image</title>
  <image xlink:href="http://farm1.static.flickr.com/58/201055683_76e5149bec.jpg" id="muse" height="424" width="640" y="28" x="0"/>
 </g>
 <g display="none">
  <title>bbox</title>
  <rect stroke="#f00" fill="none" stroke-width="3" height="157.08434" width="581.12" y="159.54217" x="35.84" id="bbox"/>
 </g>
</svg>
