<svg width="640" height="480" xmlns="http://www.w3.org/2000/svg" xmlns:svg="http://www.w3.org/2000/svg" xmlns:xlink="http://www.w3.org/1999/xlink">
 <!-- Sketchy ANNOTATION
  ImageNet ID: n02691156_12022
  URL: http://farm3.static.flickr.com/2316/2332596185_4fccef9984.jpg
  Image Width: 500
  Image Height: 333
  BBox X: 2
  BBox Y: 79
  BBox Width: 497
  BBox Height: 142
  Exposure: 2000ms
  Synset Label: airplane
  Synset ID: n02691156
  Worker Tag: Airplane on the runway
  Sanity Check: 
   Shading
   Saved
   Context
  Comment: 
   {}
  Worker ID: A1P7U2ULSAE7YL
  Assignment ID: 3HUTX6F6VUNXBCPL949OYN1JVQ52OT
  HIT ID: 311HQEI8RSGE9X24RNWYLSUASW97ZV
  Work Time: 107s
  Worker Score: 0.9286
 END ANNOTATION -->
 <g>
  <title>Layer 1</title>
  <path t="0,313,319,326,334,334,342,342,342,350,351,351,358,367,367,374,390,391,391,391,399,406,406,415,415,419,431,438,454,463,470,480,496,496,502,518,534,566,590,646,686,726,726,766,782,806,830,854,862,870,894,912,918,934,943,950,958,974,983,983,990,999,1016,1022,1031,1038,1054,1064,1070,1070,1086,1095,1095,1102,1114,1118,1134,1143,1166,1174,1190,1198,1206,1222,1238,1238,1254,1264,1278,1286,1313,1313,1334,1350,1350,1358,1374,1383,1406,1416,1438,1448,1463,1478,1478,1486,1502,1514,1514,1518,1544,1550,1623,1630,1647,1663,1663,1678,1686,1718,1727,1734,1766,1774,1783,1806,1822,1822,1862,1878,1894,1902,1943,1959,1959,1982,1998,2006,2022,2031,2038,2055,2070,2071,2080,2086,2096,2102,2118,2127,2127,2134,2150,2166,2182,2198,2198,2206,2206,2215,2215,2222,2231,2238,2247,2254,2255,2263,2263,2270,2271,2280,2280,2286,2287,2296,2296,2302,2303,2303,2313,2313,2318,2319,2327,2327,2327,2334,2335,2344,2350,2351,2351,2358,2359,2359,2366,2366,2383,2383,2383,2390,2391,2398,2406,2407,2415,2415,2415,2422,2423,2431,2432,2438,2439,2439,2447,2447,2454,2455,2463,2463,2463,2470,2471,2479,2479,2481,2487,2487,2498,2498,2503,2503,2511,2511,2512,2518,2519,2519,2528,2528,2528,2535,2535,2544,2544,2550,2551,2551,2551,2562,2562,2562,2566,2567,2574,2575,2575,2583,2583,2583,2583,2590,2591,2591,2591,2599,2599,2600,2600,2606,2607,2607,2607,2615,2615,2615,2615,2615,2616,2622,2622,2623,2631,2631,2631,2632,2638,2639,2646,2647,2647,2647,2654,2655,2655,2655,2663,2664,2664,2670,2671,2671,2678,2679,2679,2686,2687,2687,2694,2695,2695,2695,2696,2703,2703,2703,2712,2713,2713,2718,2719,2719,2726,2727,2727,2734,2735,2735,2735,2743,2744,2744,2744,2750,2751,2751,2751,2760,2760,2760,2760,2767,2767,2767,2767,2774,2775,2775,2776,2776,2783,2783,2784,2790,2791,2791,2791,2799,2799,2800,2807,2807,2807,2815,2815,2822,2823,2823,2831,2831,2838,2839,2846,2847,2854,2855,2862,2863,2863,2870,2871,2881,2882,2886,2887,2894,2902,2903,2903,2910,2911,2918,2919,2926,2927,2935,2935,2943,2950,2951,2960,2960,2966,2967,2977,2977,2982,2990,2991,2998,2999,3006,3007,3015,3015,3022,3023,3031,3031,3038,3039,3047,3054,3062,3063,3071,3071,3071,3081,3081,3086,3087,3096,3102,3103,3112,3113,3118,3130,3130,3134,3135,3144,3150,3159,3160,3167,3177,3177,3178,3183,3191,3191,3198,3206,3215,3215,3222,3230,3238,3247,3254,3255,3263,3263,3270,3278,3286,3296,3297,3302,3303,3314,3318,3330,3334,3335,3343,3351,3359,3359,3367,3377,3383,3383,3391,3391,3398,3406,3407,3415,3422,3423,3431,3431,3438,3439,3439,3447,3454,3455,3462,3470,3480,3486,3487,3496,3502,3507,3508,3519,3529,3534,3543,3543,3550,3566,3582,3592,3599,3614,3615,3638,3639,3646,3647,3654,3663,3663,3670,3680,3686,3696,3696,3702,3703,3712,3713,3729,3734,3743,3759,3776,3793,3799,3815,3822,3831,3847,3854,3870,3880,3926,3990,4083,4110,4142,4143,4206,4278,4302,4334,4342,4343,4368,4382,4392,4398,4408,4423,4430,4510,4535,4550,4574,4590,4599,4608,4631,4654,4678,4679,4694,4726,4750,4766,4798,4808,4816,4838,4855,4870,4926,4935,4958,4990,5046,5047,5086,5110,5134,5150,5160,5161,5175,5183,5207,5222,5223,5223,5238,5240,5247,5262,5263,5278,5294,5295,5302,5311,5328,5334,5345,5350,5360,5367,5384,5385,5387,5391,5391,5399,5399,5408,5415,5424,5431,5432,5441,5441,5447,5448,5455,5455,5462,5470,5478,5479,5486,5487,5487,5495,5495,5502,5503,5510,5511,5518,5519,5526,5527,5528,5534,5535,5542,5543,5543,5551,5551,5558,5559,5559,5567,5567,5567,5569,5569,5569,5574,5583,5583,5590,5591,5591,5598,5599,5599,5607,5608,5608,5616,5616,5616,5623,5624,5625,5625,5631,5631,5632,5632,5640,5641,5641,5647,5648,5649,5657,5657,5658,5658,5663,5664,5665,5665,5674,5674,5675,5675,5679,5680,5681,5690,5691,5691,5692,5692,5695,5695,5696,5697,5697,5698,5707,5708,5708,5709,5711,5712,5712,5723,5724,5724,5725,5725,5727,5728,5728,5729,5741,5741,5742,5742,5743,5744,5744,5745,5745,5757,5757,5758,5758,5759,5761,5761,5762,5762,5774,5774,5775,5776,5777,5778,5779,5792,5792,5793,5793,5800,5801,5801,5801,5808,5808,5809,5810,5816,5816,5817,5817,5823,5824,5824,5825,5831,5832,5832,5840,5841,5842,5842,5847,5848,5849,5856,5857,5863,5864,5865,5874,5874,5875,5876,5878,5879,5879,5890,5890,5895,5896,5896,5907,5908,5908,5911,5912,5912,5923,5924,5924,5927,5927,5928,5941,5941,5942,5943,5944,5950,5951,5958,5959,5959,5966,5967,5967,5974,5975,5982,5983,5990,5991,5999,5999,6007,6007,6008,6015,6016,6023,6030,6040,6041,6047,6056,6057,6063,6064,6074,6074,6079,6079,6094,6102,6110,6111,6118,6119,6126,6134,6142,6143,6151,6158,6174,6183,6183,6184,6190,6199,6206,6207,6215,6223,6231,6246,6247,6256,6257,6271,6278,6279,6286,6287,6294,6310,6319,6326,6327,6335,6335,6342,6351,6351,6358,6367,6374,6383,6390,6398,6399,6399,6406,6415,6415,6422,6423,6431,6439,6447,6462,6463,6473,6474,6479,6480,6481,6489,6495,6502,6518,6526,6527,6534,6535,6550,6558,6566,6582,6598,6599,6614,6622,6639,6656,6656,6679,6702,6703,6718,6726,6735,6750,6751,6774,6790,6814,6815,6830,6831,6846,6863,6873,6879,6902,6918,6926,6927,6958,6967,6976,6982,6992,6998,7006,7015,7026,7031,7032,7039,7047,7055,7063,7073,7095,7103,7118,7126,7134,7150,7151,7159,7166,7176,7182,7190,7191,7209,7226,7231,7231,7238,7255,7263,7263,7264,7272,7288,7303,7304,7311,7318,7326,7327,7334,7343,7359,7360,7366,7367,7376,7377,7382,7398,7409,7410,7425,7431,7431,7439,7447,7454,7463,7478,7479,7502,7511,7512,7518,7527,7542,7550,7551,7558,7560,7566,7574,7582,7592,7609,7629,7631,7638,7639,7646,7654,7662,7672,7679,7680,7695,7704,7718,7727,7728,7743,7750,7758,7782,7798,7810,7811,7816,7816,7825,7846,7854,7855,7878,7894,7905,7918,7926,7942,7958,7960,7966,7990,7998,8014,8030,8031,8038,8046,8086,8126,8158,8166,8182,8198,8230,8238,8270,8303,8326,8335,8350,8358,8366,8376,8390,8399,8409,8415,8416,8424,8430,8442,8447,8448,8458,8463,8478,8487,8495,8511,8520,8521,8535,8558,8574,8583,8598,8614,8654,8657,8710,8719,8742,8774,8806,8815,8894,8895,8934,8958,8990,9022,9054,9062,9070" d="m110.51137,190.09091c1.81467,0 2.79312,-0.05969 3.54166,-0.5c0.74728,-0.43956 1.49986,-0.48958 2.625,-0.5c0.78597,-0.00728 1.60801,0.00337 2.66667,0c0.705,-0.00226 1.54856,0.04691 2.53066,-0.42534c0.77908,-0.37462 1.52133,-0.57399 2.46133,-0.57466c1.008,-0.00072 1.8,0 2.65867,0c0.86333,0 1.76333,0 2.68267,0c0.83333,0 1.81183,0 2.63199,0c0.916,0 1.81201,0 2.70134,0c0.89999,0 1.8,0 2.7,0c0.90001,0 1.8,0 2.60001,0c0.89999,0 1.8,0 2.76399,0c0.87201,0 1.73601,0 2.636,0c0.90001,0 1.8,0 2.60001,0c0.89999,0 1.8,0 2.7,0c0.89999,0 2.06641,-0.2532 2.464,0.436c0.47694,0.82675 0.61072,1.27185 1.42532,1.57466c0.73351,0.27266 1.26216,1.03944 1.66333,1.69383c0.47308,0.77168 1.24799,1.2355 1.93268,1.72084c0.72552,0.51428 1.68239,0.52422 2.01199,1.37599c0.30446,0.78677 0.68356,1.48154 1.28667,2.11467c0.54688,0.57411 0.46867,1.46414 1.07317,2.03133c0.66187,0.62102 1.67201,0.80853 2.34283,1.10535c0.84766,0.37505 1.42139,1.2549 2.10001,1.66199c0.73595,0.44148 1.61882,0.7018 2.116,1.48401c0.46492,0.73145 0.90553,1.47469 1.69467,1.79066c0.80679,0.32304 1.04784,0.69989 1.41016,1.48984c0.33514,0.73068 1.38799,0.94765 2.07918,1.62083c0.50656,0.49336 1.08392,1.40337 1.99983,1.77849c0.79288,0.32474 1.39633,0.66798 2.10016,1.32018c0.58046,0.53789 1.46294,0.75127 2.28267,1.08667c0.84204,0.34453 1.2318,1.14806 1.51866,1.99866c0.25792,0.76474 1.32036,0.5211 2.19734,0.71733c0.80704,0.18057 1.4122,0.77876 2.08533,1.28401c0.7209,0.54111 0.59406,1.55107 1.23683,2.19383c0.64276,0.64276 1.79099,0.71371 2.19383,1.32216c0.54388,0.82144 1.1212,0.94989 2,1.19867c0.80223,0.22711 0.98303,1.38145 1.6425,1.94733c0.68877,0.59102 1.41621,0.87648 2.34283,1.04817c0.92905,0.17213 1.4095,0.67456 2.10133,1.0885c0.79535,0.47588 1.20622,1.27583 1.77333,1.94133c0.5088,0.59708 1.1548,1.19083 1.59201,1.97467c0.3636,0.65187 0.94513,1.561 1.78065,1.94283c0.69063,0.31561 1.43983,0.37166 2.21935,0.8905c0.70746,0.47087 1.63333,0.16667 2.53333,0.16667c0.90001,0 1.8,0 2.7,0c0.90001,0 1.79868,0 2.68401,0c0.916,0 1.716,0 2.616,0c0.90001,0 1.83475,-0.0529 2.60001,0.35266c0.84589,0.4483 1.7,0.64734 2.5,0.64734c0.89999,0 1.8,0 2.7,0c0.91066,0 1.82133,0 2.5,0c0.97867,0 1.884,0 2.82533,0c0.69067,0 1.76399,0 2.67467,0c0.89999,0 1.8045,0 2.66667,0c0.83333,0 1.812,0 2.586,0c0.9045,0 1.65182,0 2.64732,0c0.8,0 1.79984,0 2.57918,0c0.99966,0 1.83066,0 2.79016,0c0.7515,0 1.548,0 2.7735,0c0.6465,0 1.65717,0 2.45717,0c1,0 1.8,0 2.60001,0c0.9955,0 1.91466,0 2.78532,0c0.948,0 1.87601,0 2.6665,0c1.02667,0 1.71216,0 2.54684,0c0.99231,0 1.83066,0 2.90131,0c0.78668,0 1.49918,0 2.69019,0c0.6925,0 1.63516,0 2.64316,0c0.828,0 1.70935,0 2.66666,0c0.73203,0 1.69467,0 2.46802,0c1.04184,0 1.81732,0 2.86533,0c0.7095,0 1.56216,0 2.56668,0c0.79999,0 1.79999,0 2.59998,0c1,0 1.80002,0 2.60001,0c1,0 1.80002,0 2.79733,0c0.88834,0 1.85602,0 2.66516,0c0.93668,0 1.79468,0 2.68567,0c0.91351,0 1.7135,0 2.67334,0c0.81451,0 1.68301,0 2.87833,0c0.59567,0 1.46417,0 2.53351,0c0.7095,0 1.56216,0 2.56668,0c0.79999,0 1.80017,0 2.62082,0c1.14584,0 1.93634,0 2.5,0c0.88049,0 2.07651,0 2.9375,0c0.771,0 1.74084,0 2.595,0c1.00134,0 1.64401,0 2.34268,0c1.43732,0 2.11865,0 3.08316,0c0.61633,0 1.82098,0 2.42532,0c0.93152,0 1.58084,0 2.98083,0c0.75067,0 1.52533,0 2.31601,0c1.19882,0 2.00317,0 2.81949,0c0.83633,0 2.14584,0 2.60034,0c0.927,0 1.858,0 2.76898,0c0.44052,0 1.66684,0 2.73785,0c0.65067,0 1.87198,0 2.76749,0c0.58368,0 1.41916,0 2.65634,0c0.7095,0 1.78149,0 2.41751,0c1.05148,0 1.7825,0 2.86398,0c0.68134,0 1.64584,0 2.56534,0c0.90134,0 1.80133,0 2.70132,0c0.89999,0 1.7955,0 2.664,0c1.06934,0 1.78333,0 2.68866,0c0.96902,0 1.79401,0 2.39401,0c1.32001,0 2.03732,0 2.77866,0c0.74936,0 1.49069,0 2.888,0c0.64001,0 1.52502,0 2.56534,0c0.92133,0 1.60535,0 2.60666,0c0.83551,0 1.716,0 2.91602,0c0.60934,0 1.55585,0 2.56534,0c0.71732,0 1.45865,0 2.20801,0c1.45865,0 2.13998,0 3.10449,0c0.61633,0 1.82098,0 2.42532,0c0.93152,0 1.58084,0 2.98083,0c0.75067,0 1.52533,0 2.31601,0c1.19867,0 1.99866,0 2.79865,0c0.80002,0 2,0 2.79868,0c0.79068,0 1.56534,0 2.31601,0c1.06384,0 2.04932,0 2.98083,0c0.90448,0 1.8045,0 2.7045,0c0.60001,0 1.79999,0 2.69998,0c0.60001,0 1.79968,0 2.67868,0c0.80701,0 1.67868,0 2.62668,0c0.96399,0 1.71548,0 2.51199,0c0.99731,0 1.87201,0 2.88251,0c0.77933,0 1.77881,0 2.55283,0c0.909,0 1.70898,0 2.66849,0c0.79352,0 1.569,0 2.76901,0c0.6925,0 1.64584,0 2.41116,0c0.99417,0 1.91333,0 2.784,0c0.948,0 1.86533,0 2.60934,0c1.03598,0 1.888,0 2.84134,0c0.76532,0 1.76398,0 2.564,0c0.99866,0 1.76398,0 2.71466,0c0.9855,0 1.77066,0 2.72134,0c0.76532,0 1.76398,0 2.564,0c0.99866,0 1.76398,0 2.71466,0c0.9855,0 1.77066,0 2.72134,0c0.76532,0 1.76398,0 2.564,0c0.99866,0 1.76398,0 2.716,0c0.76797,0 1.72,0 2.48532,0c0.99417,0 1.91333,0 2.87784,0c0.93149,0 1.8425,0 2.5625,0c1.125,0 1.90649,0 2.69699,0c0.92801,0 1.74051,0 2.74399,0c0.80753,0 1.77069,0 2.57983,0c0.93668,0 1.79453,0 2.73483,0c0.83868,0 1.68802,0 2.60718,0c0.99417,0 1.75949,0 2.71017,0c0.98532,0 1.88531,0 2.68533,0c0.87201,0 1.74268,0 2.69998,0c0.73203,0 1.69019,0 2.66669,0c0.83331,0 1.81165,0 2.66666,0c0.8765,0 1.68399,0 2.64584,0c0.92084,0 1.82083,0 2.72083,0c0.90018,0 1.68533,0 2.62534,0c0.69067,0 1.76404,-0.00533 2.67465,0c0.91074,0.00534 1.8201,0.22443 2.5,0.5c0.83182,0.33713 1.7225,0.31302 2.60001,0.536c0.86234,0.21912 1.59854,0.9213 2.56668,0.964c0.81171,0.0358 1.72351,0 2.47998,0c1.00604,0 1.70068,-0.00243 2.71735,0c0.94049,0.00226 1.80267,0.16669 2.63599,0.5c0.83337,0.33334 1.5993,0.3813 2.52087,0.52083c0.98718,0.14946 1.64209,0.58807 2.59381,0.89517c0.87567,0.28255 1.49762,0.72968 2.20685,1.18401c0.67841,0.43457 1.67151,0.91449 2.46783,1.28932c0.7193,0.33855 1.60577,0.51712 2.5318,0.832c0.67657,0.23006 1.60638,0.56656 2.38336,0.83583c0.87,0.30151 1.41913,1.24669 2.09546,1.6575c0.77612,0.47142 1.23871,1.0715 1.90533,1.58084c0.66663,0.50931 1.76337,0.47435 2.59021,0.709c0.77734,0.2206 1.49176,0.71744 2.13647,1.0795c0.72821,0.40895 0.42139,1.63933 1.00403,2.30533c0.61047,0.69783 1.7196,0.42413 2.56396,0.77734c0.71558,0.29933 1.46442,1.07173 2.17468,1.39732c0.78473,0.35971 1.59027,0.58275 2.4613,1.01067c0.81934,0.40253 1.78821,0.32494 2.3432,0.94617c0.65375,0.73183 1.17395,1.22668 2.02081,1.64584c0.69513,0.34407 1.46442,1.07173 2.17468,1.39732c0.78473,0.35971 1.60492,0.55258 2.42535,1.01068c0.77258,0.4314 1.22833,1.05148 1.75714,1.72083c0.58533,0.74084 1.57568,0.80991 2.25348,1.27917c0.71973,0.49832 1.32593,1.20013 2.09387,1.42084c0.86066,0.24738 1.73291,0.06985 2.3208,0.57916c0.64862,0.56189 1.42505,0.97028 1.88934,1.71066c0.4881,0.77826 0.08533,1.81467 0.08533,2.71466c0,0.79999 0.36316,1.79691 -0.03601,2.564c-0.39514,0.75937 -1.18121,1.16351 -1.96399,1.60266c-0.70001,0.39273 -1.67218,0.68405 -1.98932,1.444c-0.33472,0.80203 -0.70093,1.04562 -1.48981,1.41019c-0.77106,0.35632 -1.28943,1.04807 -1.52087,1.95383c-0.21655,0.84747 -1.14221,0.70499 -1.83331,1.19199c-0.71478,0.50369 -0.91431,1.46103 -1.6875,1.8125c-0.8006,0.36389 -1.82922,-0.11081 -2.57916,0.24219c-0.77551,0.36505 -1.62872,0.58569 -2.5,0.81467c-0.8559,0.22491 -1.01764,1.42786 -1.68536,1.87866c-0.76025,0.51331 -1.80756,-0.08606 -2.51599,0.17065c-0.89874,0.32568 -1.59503,1.14761 -2.03198,1.91467c-0.44427,0.77988 -0.84998,1.39786 -1.52386,1.94733c-0.70343,0.57352 -1.47327,0.69641 -2.34283,1.10535c-0.81299,0.38232 -1.52148,0.94733 -2.39996,0.94733c-0.90002,0 -1.67743,0.1243 -2.5,0.57468c-0.7804,0.42728 -1.72296,0.35178 -2.56665,0.59198c-0.69019,0.19647 -1.42743,0.58313 -2.42438,0.78067c-0.83319,0.16507 -1.45947,0.90906 -2.409,1.05267c-0.79102,0.11963 -1.63599,0 -2.48401,0c-0.86328,0 -1.88,0 -2.81598,0c-0.90002,0 -1.79999,0 -2.70001,0c-0.83331,0 -1.71289,-0.09805 -2.52081,0.02084c-0.98785,0.14539 -1.61871,0.67416 -2.59381,0.89383c-0.86774,0.19547 -1.64252,0.08533 -2.53802,0.08533c-0.86334,0 -1.82648,0 -2.74731,0c-0.90454,0 -1.76666,0 -2.60004,0c-0.97864,0 -1.75266,0 -2.65717,0c-0.74731,0 -1.93832,0 -2.68564,0c-0.90002,0 -1.85718,0 -2.75751,0c-0.71402,0 -1.66983,-0.01926 -2.4205,0.02084c-0.79797,0.04263 -2.01782,0.34439 -2.66852,0.55383c-1.00458,0.32336 -1.81052,0.41489 -2.81067,0.42532c-0.78928,0.00824 -1.83331,0 -2.52081,0c-1.022,0 -1.74051,-0.00006 -2.53101,0c-1.02667,0.00009 -1.94351,-0.06573 -2.94818,0.16666c-0.81915,0.18945 -1.38501,0.54449 -2.39999,0.74933c-0.79147,0.15973 -1.79837,0.31073 -2.62082,0.58401c-0.66309,0.22034 -1.66306,0.43762 -2.5,0.47916c-0.87964,0.04364 -1.77869,0.02084 -2.64719,0.02084c-0.97598,0 -1.98999,0 -2.89899,0c-0.729,0 -1.76633,0 -2.48035,0c-0.90533,0 -1.87415,0 -2.68866,0c-0.8685,0 -1.76401,0 -2.65948,0c-0.8685,0 -1.9382,-0.01849 -2.65186,0.00449c-0.9064,0.02921 -1.87396,0.21896 -2.70999,0.42084c-0.62497,0.15091 -1.31012,0.3277 -2.48517,0.45319c-0.85587,0.0914 -1.73657,0.10718 -2.595,0.117c-1.16245,0.01331 -2.09549,0.00449 -2.86649,0.00449c-0.96268,0 -1.75317,0 -2.60666,0c-1.18936,0 -1.79068,0 -2.71017,0c-0.63635,0 -2.00052,0 -2.73184,0c-0.74734,0 -1.49466,0 -2.58066,0c-1.00949,0 -1.64584,0 -2.56534,0c-1.20267,0 -1.81201,0 -2.75851,0c-1.00949,0 -1.73083,0 -2.50015,0c-0.82535,0 -1.71466,0 -3.18533,0c-0.52533,0 -1.608,0 -2.15735,0c-0.54932,0 -1.63199,0 -3.15665,0c-0.47,0 -1.35001,0 -2.14999,0c-1.36002,0 -1.92535,0 -2.944,0c-1.08267,0 -1.72,0 -2.42136,0c-0.74933,0 -1.53067,-0.00317 -2.728,0.00015c-0.79999,0.00223 -1.60104,0.00244 -2.39999,0.05701c-1.20221,0.08209 -2.0007,0.22296 -2.79999,0.36816c-0.80072,0.14548 -1.59604,0.32336 -2.80002,0.45319c-0.79794,0.08606 -1.59988,0.10733 -2.39999,0.117c-1.19992,0.0145 -2,0.00449 -2.79999,0.00449c-0.80002,0 -1.60001,0 -2.80002,0c-0.79999,0 -1.60001,0 -2.39999,0c-1.20001,0 -1.99734,0 -2.77866,0c-1.10699,0 -2.08801,0 -2.9115,0c-0.72452,0 -1.93167,0 -2.47601,0c-0.9165,0 -1.60583,0 -2.77634,0c-0.85834,0 -1.73666,0 -2.595,0c-1.16251,0 -1.81049,0 -2.66251,0c-0.85199,0 -1.86417,0 -2.66248,0c-0.85834,0 -1.73666,0 -3.00418,0c-0.76132,0 -1.45065,0 -2.36716,0c-1.04501,0 -1.7515,0 -2.7355,0c-0.8735,0 -1.892,0 -2.616,0c-0.73199,0 -1.79285,0 -2.75732,0c-0.8385,0 -1.88934,0 -2.66269,0c-0.96664,0 -1.75717,0 -2.36081,0c-1.35501,0 -2.082,0 -2.81302,0c-0.711,0 -1.97784,0 -2.74884,0c-0.86932,0 -1.8765,0 -2.72916,0c-0.96432,0 -1.77884,0 -2.64734,0c-0.89551,0 -1.79099,0 -2.65948,0c-1.06934,0 -1.78336,0 -2.68869,0c-0.96866,0 -1.77264,0 -2.59467,0c-1.03131,0 -1.95267,0 -2.63666,0c-1,0 -1.81601,0 -2.63199,0c-0.99734,0 -1.83734,0 -2.93585,0c-0.7175,0 -1.76248,0 -2.56949,0c-0.58133,0 -1.77734,0 -2.65784,0c-0.83551,0 -1.83417,0 -2.67416,0c-0.96399,0 -1.65649,0 -2.61465,0c-0.98135,0 -1.89868,0 -2.73203,0c-1.04266,0 -1.75064,0 -2.49466,0c-1.03598,0 -1.888,0 -2.82001,0c-0.94266,0 -1.75464,0 -2.53714,0c-1.02286,0 -1.96967,0 -2.66901,0c-1.17902,0 -1.95834,0 -2.8125,0c-0.91934,0 -1.81485,0 -2.59735,0c-1.00531,0 -1.87381,0 -2.73599,0c-0.83334,0 -1.81183,0 -2.63199,0c-0.90134,0 -1.83734,0 -2.68533,0c-0.86334,0 -1.86942,0.00974 -2.68533,0c-0.87253,-0.01044 -1.83945,-0.14136 -2.62,-0.42532c-0.73434,-0.26715 -1.68967,-0.56424 -2.62134,-0.57468c-0.91061,-0.01019 -1.58936,0 -2.70401,0c-0.88535,0 -1.76416,0 -2.59967,0c-0.69467,0 -1.68433,0 -2.62848,0c-0.90451,0 -1.82385,0 -2.6572,0c-0.97849,0 -1.79865,0 -2.69998,0c-0.89999,0 -1.83774,0.03745 -2.62134,-0.22134c-0.87698,-0.28964 -1.65063,-0.71649 -2.47733,-0.77731c-0.9559,-0.07031 -1.854,-0.00134 -2.71735,-0.00134c-0.84799,0 -1.784,0 -2.68265,0c-0.91119,0 -1.69006,0.08194 -2.80136,-0.16666c-0.60883,-0.1362 -1.49097,-0.65527 -2.37466,-0.79733c-0.93533,-0.15036 -1.79999,-0.03601 -2.74133,-0.03601c-0.76799,0 -1.69865,0 -2.64116,0c-0.7845,0 -1.73225,0.04837 -2.45349,-0.03601c-0.99973,-0.11697 -1.76619,-0.54382 -2.78934,-0.79733c-0.7766,-0.19241 -1.51466,-0.16599 -2.58934,-0.16666c-0.91066,-0.00058 -1.81065,0 -2.71516,0c-0.86217,0 -1.6955,0 -2.674,0c-0.82016,0 -1.72806,-0.0455 -2.5215,-0.5c-0.70598,-0.40439 -1.60001,-0.5 -2.5,-0.5c-0.94734,0 -1.94147,0.35226 -2.64734,-0.05716c-0.80785,-0.46857 -1.35266,-0.94284 -2.15266,-0.94284c-0.836,0 -1.85266,0 -2.54733,0c-1.01666,0 -1.95921,0.10696 -2.85266,-0.00134c-0.91962,-0.11148 -1.46443,-0.76971 -2.15717,-1.35132c-0.69704,-0.58521 -1.64284,-0.64734 -2.40001,-0.64734c-0.89549,0 -1.83934,0.36084 -2.70116,-0.02084c-0.7896,-0.3497 -1.36908,-0.56796 -2.18451,-1.03632c-0.812,-0.4664 -1.10616,-1.22672 -1.57849,-2.04266c-0.39536,-0.68295 -1.22426,-0.9736 -1.83134,-1.54752c-0.61339,-0.57986 -0.56873,-1.60892 -1.23267,-2.18201c-0.70337,-0.60712 -1.78403,-0.06854 -2.56532,-0.18134c-1.00732,-0.14545 -1.25673,-1.2179 -1.85384,-1.63214c-0.78896,-0.54733 -1.73294,-0.42255 -2.32083,-0.93185c-0.64862,-0.56192 -0.93784,-1.22733 -0.97467,-2.25867c-0.02913,-0.81549 -0.67249,-1.44843 -1.22133,-2.04532c-0.58855,-0.64005 -1.12054,-1.28366 -1.49467,-1.92133c-0.47076,-0.8024 -1.26814,-0.90137 -2.11467,-1.48401c-0.6976,-0.48016 -1.48863,-0.90399 -1.88399,-1.51733c-0.5202,-0.80701 -0.72955,-1.59097 -1.38518,-2.29868c-0.54996,-0.59363 -0.85736,-1.5383 -1.33617,-2.31067c-0.49695,-0.80164 -1.00677,-1.39194 -1.27866,-2.10532c-0.35774,-0.93869 -0.8206,-1.69031 -1.16383,-2.58417c-0.28474,-0.74155 0.20499,-1.85446 -0.28818,-2.5665c-0.55333,-0.79892 -1.58313,-0.87903 -1.8125,-1.83334c-0.21045,-0.87561 -0.24869,-1.76523 -0.9075,-2.3c-0.71021,-0.57649 -1.51645,-0.8235 -2.22665,-1.39999c-0.65881,-0.53477 -1.1534,-1.29977 -1.72,-1.96667c-0.58113,-0.68399 -0.8203,-1.39375 -1.46217,-2.13333c-0.57861,-0.66669 -0.49442,-1.5386 -0.76167,-2.39999c-0.26868,-0.86597 -1.40012,-1.07845 -1.9175,-1.73601c-0.50998,-0.64816 -0.82632,-1.36433 -1.52533,-2.064c-0.69966,-0.70033 -1.27132,-1.13629 -1.88933,-1.89999c-0.60182,-0.74368 -0.96701,-1.36992 -1.71068,-1.82167c-0.6899,-0.41908 -1.16275,-1.23227 -1.54283,-2.12567c-0.36861,-0.86644 -0.8477,-1.46312 -1.33183,-2.08867c-0.57719,-0.7458 -0.50938,-1.82709 -1.24666,-2.44249c-0.63486,-0.52992 -1.11203,-1.05109 -1.58,-1.55351c-0.71086,-0.7632 -1.24963,-1.27345 -1.69867,-2.06799c-0.45012,-0.79646 -1.12166,-1.24644 -1.79466,-1.55267c-0.8737,-0.39755 -1.19409,-1.2343 -1.92683,-1.82599c-0.64581,-0.52148 -1.56813,-0.77872 -1.75768,-1.62134c-0.21509,-0.95616 -0.61786,-1.31387 -1.54166,-1.52083c-0.82814,-0.18552 -1.47942,-0.97893 -1.97917,-1.47917c-0.69901,-0.69966 -0.94409,-1.46397 -1.584,-2.21466c-0.56769,-0.66599 -0.95227,-1.42224 -1.6205,-1.92818c-0.69521,-0.52637 -1.80931,-0.5387 -2.27467,-1.35716c-0.4222,-0.74252 -1.30524,-0.67157 -1.89949,-1.2215c-0.60924,-0.56378 -0.7814,-1.52652 -1.42134,-2.07401c-0.75215,-0.64349 -1.38327,-1.10236 -2.05716,-1.65182c-0.7034,-0.57353 -1.59691,-0.51433 -2.28568,-1.10535c-0.65947,-0.56587 -0.98637,-1.47711 -1.74649,-1.91133c-0.63184,-0.36093 -1.27415,-0.84593 -1.58984,-1.55682c-0.38931,-0.87669 -0.71109,-1.13542 -1.5,-1.5c-0.77101,-0.35631 -1.22531,-0.97691 -2.12083,-0.97917c-0.89999,-0.00226 -1.79999,0 -2.7,0c-0.89999,0 -1.79984,0 -2.72533,0c-0.776,0 -1.73184,0 -2.62733,0c-0.86334,0 -1.82651,0.00061 -2.64734,0c-0.9,-0.00067 -1.73665,-0.32613 -2.5,-0.716c-0.75288,-0.38454 -1.7,-0.284 -2.6,-0.284c-0.9,0 -1.8,0 -2.7,0c-0.9,0 -1.67744,-0.12428 -2.5,-0.57466c-0.7804,-0.42729 -1.7,-0.42534 -2.60001,-0.42534c-0.89983,0 -1.91646,0.3345 -2.63333,-0.16667c-0.71571,-0.50037 -0.9521,-1.12198 -1.45067,-1.74933c-0.49332,-0.62074 -0.716,-1.384 -0.716,-2.284c0,-0.90001 0,-1.8 0,-2.60001c0,-0.89999 0.14532,-1.64594 0.716,-2.284c0.58293,-0.65176 1.38383,-0.916 2.23134,-0.916l0.75716,0" id="svg_1" stroke-width="2" stroke="#000" fill="none"/>
  <path t="11527,11702,11718,11734,11734,11758,12062,12094,12102,12126,12142,12152,12152,12334,12432" d="m109.51137,192.09091c-1.8,0 -2.636,0 -3.484,0c-0.86333,0 -1.89788,-0.2274 -2.8,0.00133c-0.72581,0.18404 -0.716,1.29868 -0.716,2.19867c0,0.90001 0,1.8 0,2.60001l0.08533,0.91466l0.82933,0.28534" id="svg_2" stroke-width="2" stroke="#000" fill="none"/>
  <path t="13158,13198,13198,13206,13214,13222,13222,13230,13230,13247,13248,13255,13255,13270,13278,13286,13302,13310,13319,13326,13326,13342,13353,13358,13389,13390,13414,13464,13582,13582,13598,13614,13622,13662,13678,13710,13726,13734,13750,13758,13758,13766,13766,13774,13774,13784,13790,13790,13800,13806,13806,13814,13833,13833,13854,13886,13926,13966,14062,14062,14142" d="m103.51137,195.09091c-1,0 -1.8,0 -2.7,0c-0.936,0 -1.78533,0 -2.7045,0c-0.9955,0 -1.7955,0 -2.79533,0c-0.77933,0 -1.6335,0 -2.49567,0c-0.9045,0 -1.8045,0 -2.7045,0c-0.9,0 -1.8,0 -2.7,0c-0.9,0 -1.70042,0.02725 -2.60001,0c-0.94413,-0.02859 -1.35179,-0.85638 -2.3,-1c-0.79099,-0.11981 -1.76706,-0.33374 -2.564,0c-0.5732,0.24004 -0.43662,1.35184 -0.436,2.24283c0.00067,0.95584 0.60831,1.49602 0.964,2.19318c0.39104,0.76646 0.4715,1.54599 1.436,1.564c0.89535,0.01671 1.76666,0 2.70016,0c0.78516,0 1.73583,0 2.50117,0c0.99416,0 1.7415,0 2.77333,0c0.94667,0 1.62534,0 2.60384,0c1.0215,0 1.8215,0 2.6575,0c0.848,0 1.71133,0 2.728,0c0.936,0 1.836,0 2.736,0l0.9,0l0.8,0l0.84283,0" id="svg_3" stroke-width="2" stroke="#000" fill="none"/>
  <path t="14422,14573,14582,14590,14598,14606,14616,14632,14632,14638,14638,14646,14662,14679,14686,14686,14702,14711,14718,14910,14910,15038,15046,15054,15070,15079,15086,15095,15102,15295,15319,15328,15336,15343,15351,15368,15384,15407,15407,15416,15423,15456,15456,15471,15487,15512,15519,15523,15567,15575,15607,15647,15647" d="m105.51137,200.09091c0,0.80133 0,1.7 0,2.60001c0,0.89999 0,1.79999 0,2.7045c0,0.86217 -0.13903,1.74243 0.22133,2.674c0.30089,0.77783 0.71346,1.55354 1.13134,2.3215c0.45758,0.84091 0.47918,1.73643 0.73267,2.5c0.25634,0.77216 0.77915,1.50854 0.916,2.39999c0.14058,0.91577 0.37603,1.67879 1.02399,2.364c0.53179,0.56236 0.88715,-0.51842 1.58533,-1.12799c0.6666,-0.58199 1.71786,-0.39659 2.38934,-0.936c0.60699,-0.48763 0.99775,-1.20448 1,-2.10001c0.00226,-0.89999 -0.06695,-1.74355 -0.57467,-2.42532c-0.47721,-0.64081 -0.42533,-1.57468 -0.42533,-2.38535c0,-0.91066 0,-1.76399 0,-2.70265c0,-0.93935 0,-1.88667 0,-2.68668c0,-0.89999 0.09346,-1.87837 -0.42533,-2.58932c-0.51421,-0.70468 -1.52949,-0.61115 -1.57467,-1.412c-0.04751,-0.8421 -0.83334,-1.36534 -1,-2.19867l-0.08533,-0.8" id="svg_4" stroke-width="2" stroke="#000" fill="none"/>
  <path t="19735,19871,19871,19879,19887,19902,19902,19915,19915,19919,19934,19937,19937,19943,19951,19951,19968,19970,19984,19992,19992,20008,20023,20031,20041,20063,20071,20094,20262,20271,20271,20271,20279,20286,20287,20302,20310,20329,20329,20566,20582,20582,20593,20598,20609,20614,20623,20631,20641,20647,20647,20657,20663,20670,20679,20686,20686,20695,20702,20702,20711,20718,20728,20743,20743,20751,20767,20783,20807,20823,20847,20857,20880,20887,20919" d="m103.51137,189.09091c-1.38934,-1.82533 -1.82901,-2.4917 -1.97916,-3.47917c-0.14011,-0.92145 -0.20667,-1.85905 -0.54167,-2.52083c-0.43416,-0.85764 -0.91985,-1.50249 -1.4265,-2.2955c-0.45514,-0.7124 -1.22812,-1.10512 -1.61667,-1.88983c-0.44076,-0.89015 -0.26244,-1.85292 -0.52133,-2.61467c-0.30177,-0.88791 -0.79853,-1.64133 -1.19867,-2.39999c-0.45272,-0.85838 -0.71375,-1.49998 -0.716,-2.44284c-0.0021,-0.87799 -0.08949,-1.77454 -0.57467,-2.38249c-0.49837,-0.6245 -0.73234,-1.30666 -1.14133,-2.05867c-0.38069,-0.69995 0.88583,-0.75726 1.54134,-0.49066c0.69412,0.2823 1.6745,0.56424 2.65867,0.57466c0.69063,0.00731 1.75883,0 2.616,0c0.9,0 1.93172,-0.38783 2.73334,0c0.65363,0.31624 0.82084,1.34956 1.114,2.24283c0.28056,0.85489 0.96886,1.57726 1.05267,2.36784c0.09374,0.88437 -0.11649,1.79749 0.0045,2.68933c0.11143,0.82135 0.6532,1.52402 1.04816,2.39999c0.32596,0.72293 0.8224,1.50464 0.9475,2.40001c0.12666,0.90646 0.65345,1.46042 1.29533,2.2c0.57861,0.66669 0.70383,1.5 0.7045,2.39999c0.00067,0.90001 0,1.82083 0,2.784c0,0.69067 0,1.75883 0,2.61584c0,0.92549 0.48316,1.50734 0.91467,2.1855c0.49315,0.77504 0.0855,1.8145 0.30666,2.59332l0.7215,0.4785l0.0585,0.84283" id="svg_6" stroke-width="2" stroke="#000" fill="none"/>
  <path t="32239,32302,32318,32318,32329,32334,32338,32342,32350,32350,32359,32366,32366,32376,32377,32383,32383,32383,32391,32399,32399,32407,32407,32407,32415,32415,32415,32422,32422,32432,32432,32438,32438,32438,32447,32447,32454,32454,32463,32463,32470,32470,32479,32479,32479,32486,32486,32486,32495,32495,32495,32502,32502,32502,32502,32511,32511,32511,32518,32518,32518,32527,32527,32527,32527,32527,32534,32534,32534,32543,32543,32543,32543,32550,32550,32550,32559,32559,32559,32566,32566,32566,32566,32577,32577,32577,32577,32583,32583,32583,32583,32590,32590,32590,32591,32599,32599,32599,32599,32599,32606,32606,32606,32606,32606,32606,32615,32616,32616,32616,32616,32622,32622,32622,32622,32622,32622,32632,32632,32632,32632,32632,32632,32638,32638,32638,32638,32638,32638,32638,32647,32647,32647,32647,32647,32654,32654,32654,32654,32654,32654,32663,32663,32663,32663,32663,32670,32670,32670,32670,32670,32682,32683,32683,32683,32687,32687,32687,32698,32698,32703,32703,32703,32703,32715,32715,32715,32719,32719,32732,32732,32735,32736,32744,32744,32744,32751,32751,32751,32760,32760,32767,32767,32778,32778,32778,32784,32784,32784,32792,32792,32800,32800,32807,32807,32817,32817,32817,32823,32823,32823,32833,32833,32833,32839,32839,32850,32850,32855,32855,32855,32864,32864,32871,32884,32884,32887,32887,32887,32899,32903,32903,32914,32914,32914,32919,32931,32932,32936,32936,32944,32944,32951,32951,32960,32967,32967,32978,32978,32984,32984,32993,33000,33016,33016,33023,33033,33033,33039,33048,33055,33055,33064,33072,33082,33082,33082,33087,33087,33096,33096,33103,33112,33112,33119,33119,33131,33131,33135,33135,33143,33143,33151,33151,33163,33163,33167,33167,33176,33177,33177,33183,33183,33183,33192,33192,33199,33199,33208,33208,33216,33216,33223,33223,33232,33239,33247,33255,33255,33255,33264,33271,33279,33279,33287,33301,33311,33319,33351,33367,33370,33407,33655,33671,33686,33687,33695,33703,33713,33719,33719,33732,33732,33735,33747,33752,33764,33776,33783,33784,33799,33831,34023,34039,34048,34048,34055,34055,34064,34071,34071,34079,34079,34079,34087,34087,34087,34095,34096,34096,34096,34103,34103,34103,34114,34115,34115,34115,34119,34119,34119,34130,34130,34135,34135,34135,34135,34145,34145,34146,34151,34151,34151,34159,34159,34160,34167,34168,34168,34175,34175,34175,34183,34183,34183,34191,34191,34199,34199,34199,34199,34208,34208,34209,34209,34215,34215,34216,34224,34224,34225,34225,34231,34232,34232,34239,34239,34239,34239,34248,34248,34248,34255,34255,34255,34256,34256,34262,34263,34263,34264,34271,34271,34271,34271,34279,34279,34279,34280,34287,34287,34287,34287,34295,34295,34295,34296,34303,34303,34303,34303,34311,34311,34311,34312,34312,34312,34319,34319,34319,34327,34327,34327,34328,34335,34335,34335,34335,34336,34343,34343,34343,34344,34351,34351,34351,34351,34352,34359,34359,34359,34360,34367,34367,34367,34367,34375,34375,34376,34376,34383,34383,34383,34391,34391,34391,34395,34396,34396,34408,34415,34416,34416,34416,34417,34417,34424,34424,34425,34425,34431,34431,34432,34432,34439,34440,34440,34447,34447,34448,34455,34455,34456,34456,34463,34463,34464,34471,34471,34471,34471,34479,34479,34479,34480,34487,34487,34487,34488,34495,34495,34495,34503,34503,34503,34503,34511,34511,34511,34512,34512,34519,34519,34520,34527,34527,34527,34535,34535,34535,34536,34543,34543,34551,34551,34551,34552,34559,34559,34559,34567,34568,34568,34575,34576,34583,34583,34584,34591,34592,34592,34593,34599,34599,34600,34608,34609,34609,34615,34616,34624,34625,34625,34631,34632,34642,34647,34648,34648,34658,34658,34664,34664,34664,34675,34675,34680,34680,34681,34691,34691,34696,34696,34697,34714,34715,34719,34719,34720,34720,34720,34727,34728,34729,34735,34735,34743,34751,34751,34759,34760,34760,34761,34767,34768,34768,34775,34776,34783,34783,34791,34792,34792,34799,34800,34800,34808,34809,34809,34815,34816,34816,34816,34826,34826,34827,34827,34828,34828,34842,34843,34843,34847,34848,34849,34849,34849,34850,34858,34858,34858,34859,34864,34864,34875,34876,34876,34876,34880,34880,34881,34891,34892,34895,34896,34896,34908,34909,34909,34912,34912,34924,34925,34925,34927,34941,34942,34944,34945,34957,34958,34958,34961,34961,34975,34978,34991,34992,34994,34994,35008,35009,35015,35015,35016,35016,35016,35024,35031,35031,35032,35041,35042,35048,35048,35057,35058,35064,35064,35075,35075,35076,35079,35091,35091,35095,35096,35108,35111,35112,35124,35124,35127,35142,35142,35144,35145,35157,35158,35160,35174,35175,35177,35191,35193,35194,35208,35209,35215,35216,35224,35224,35231,35241,35257,35257,35264,35274,35287,35303,35311,35319,35429,35479,35488,35495,35503,35503,35504,35512,35519,35519,35528,35529,35535,35536,35536,35546,35547,35551,35552,35552,35562,35562,35567,35567,35580,35581,35583,35583,35584,35595,35599,35599,35600,35613,35614,35615,35617,35618,35618,35626,35627,35631,35632,35632,35640,35641,35641,35642,35647,35648,35648,35656,35657,35663,35664,35665,35674,35675,35680,35680,35681,35690,35690,35691,35696,35696,35707,35708,35708,35711,35712,35713,35723,35724,35724,35727,35728,35740,35741,35743,35744,35745,35756,35757,35760,35761,35761,35774,35775,35775,35778,35779,35790,35790,35793,35794,35807,35808,35811,35811,35825,35825,35831,35832,35832,35841,35847,35848,35863,35873,35887,35896,35903,35919,35919,35928,35943,35967,35976,35999,36015,36103,36143,36152,36183,36199,36303,36391,36409,36434,36440,36447,36448,36463,36473,36479,36509,36513,36513,36520,36520,36521,36527,36528,36529,36551" d="m339.51135,253.09091c-2.10532,0.7045 -2.67026,1.38261 -3.51733,1.71466c-0.92874,0.36404 -1.9505,0.14688 -2.6813,0.56934c-0.78186,0.45198 -1.35117,1.04535 -2.15317,1.36334c-0.87265,0.34598 -1.86346,0.27689 -2.53351,0.43799c-0.99493,0.23923 -1.57141,0.63126 -2.53568,1.01468c-0.77914,0.30981 -1.54874,0.54764 -2.4165,1.1955c-0.76978,0.57471 -1.4198,0.69656 -2.32916,0.7045c-0.78598,0.00687 -1.6217,-0.04761 -2.66666,0.16666c-0.9491,0.19461 -1.55914,0.54404 -2.56534,1.03201c-0.76306,0.37006 -1.58304,0.66681 -2.41116,0.854c-0.96173,0.21741 -1.70676,0.42825 -2.42218,0.74866c-0.98392,0.44064 -1.62973,1.01489 -2.604,1.16266c-0.75745,0.1149 -1.77066,-0.02271 -2.564,0.09317c-1.01492,0.14825 -1.60278,0.45792 -2.60001,0.94284c-0.81293,0.39529 -1.45007,0.7175 -2.42133,1.10001c-0.79843,0.31445 -1.36035,0.48193 -2.41199,0.89999c-0.72354,0.28763 -1.66867,0.72244 -2.5,1c-0.96365,0.32175 -1.66306,0.49542 -2.36133,0.64282c-1.25665,0.26526 -2.04675,0.30988 -2.75351,0.40985c-0.97827,0.1384 -1.79492,0.38782 -2.3985,0.522c-1.31305,0.29187 -2.03662,0.35211 -2.77866,0.38931c-0.74884,0.03757 -1.49072,0.026 -2.88934,0.03735c-0.64935,0.00528 -1.58838,0.00778 -2.78534,0.22c-0.60477,0.10721 -1.49561,0.37354 -2.10001,0.49466c-1.19135,0.23874 -2.07901,0.27234 -2.91467,0.28265c-1.00259,0.01236 -1.70615,0.00092 -2.45465,0.00134c-1.20132,0.00067 -1.90314,-0.00027 -2.65201,0.03601c-0.78198,0.0379 -1.98114,0.17081 -2.77417,0.32117c-0.78656,0.14914 -1.55017,0.33701 -2.63782,0.64282c-1.01675,0.28589 -1.66101,0.50378 -2.31934,0.64282c-1.35901,0.28705 -2.10443,0.30518 -2.86816,0.35718c-0.7836,0.05334 -1.98151,0.15186 -2.78052,0.28534c-0.81198,0.13565 -1.63474,0.32495 -2.48399,0.51599c-0.88142,0.19827 -1.7986,0.40436 -2.75066,0.58801c-0.48416,0.09338 -1.46733,0.26212 -1.96533,0.32532c-1.49561,0.18982 -2.4985,0.23242 -2.99867,0.24933c-0.99976,0.03381 -1.5,0.03375 -3,0.03601c-1.00133,0.0015 -1.5045,0 -2.52083,0c-0.51517,0 -1.5645,-0.00064 -2.64584,0c-1.11867,0.00067 -1.69061,-0.00229 -2.85416,0.02084c-0.58992,0.01172 -1.18552,0.00937 -2.97917,0.14581c-0.60042,0.04568 -1.198,0.112 -2.37866,0.25867c-0.58,0.07205 -1.14832,0.15762 -2.25067,0.29068c-1.03642,0.12512 -2.00246,0.20352 -2.92,0.25867c-0.90114,0.05414 -1.35811,0.05417 -2.784,0.19199c-1.03516,0.10007 -1.56766,0.18484 -2.10667,0.25867c-1.07365,0.14703 -2.10526,0.30276 -3.06,0.40802c-0.84689,0.09338 -1.62422,0.13824 -2.37601,0.19199c-0.77623,0.05548 -2.08853,0.19202 -3.082,0.32733c-0.51828,0.07059 -1.56555,0.22525 -2.084,0.29468c-1.4568,0.1951 -2.29994,0.27969 -3.03932,0.31665c-0.94734,0.04736 -1.99718,0.03601 -2.68268,0.03601c-0.83466,0 -1.84499,0 -2.508,0c-1.06133,0 -2.03363,-0.00546 -2.728,0.02084c-0.69511,0.02634 -1.96393,0.17593 -2.728,0.40448c-0.8782,0.2627 -1.8804,0.45352 -2.61484,0.62735c-0.92873,0.21979 -1.50491,0.81094 -2.31883,1.24283c-0.7704,0.40878 -1.75725,0.61023 -2.56367,0.66849c-0.82045,0.05927 -1.85316,0.03601 -2.75383,0.03601c-0.61949,0 -1.62083,-0.00055 -2.42082,0c-1,0.00067 -1.81888,-0.04645 -2.80017,0.2215c-0.8427,0.2301 -1.476,0.6037 -2.48384,0.97717c-0.8091,0.2998 -1.62256,0.57077 -2.62933,0.716c-0.83467,0.12042 -1.81741,-0.00113 -2.57066,0.17065c-0.99538,0.22699 -1.5656,0.61957 -2.53749,0.79333c-0.80736,0.14435 -1.69037,0.12823 -2.87834,0.34268c-0.60028,0.10834 -1.4549,0.39523 -2.53349,0.612c-0.70451,0.14157 -1.58026,0.15152 -2.56534,0.45065c-0.78336,0.23788 -1.5742,0.65033 -2.41116,0.71152c-0.95697,0.06998 -1.71608,-0.02078 -2.50751,0.08981c-1.00584,0.14056 -1.82538,0.52087 -2.79733,0.83066c-0.87668,0.27942 -1.5312,0.74765 -2.42799,0.96268c-0.69479,0.1666 -1.73193,0.08459 -2.64301,0.474c-0.86952,0.37164 -1.48628,0.642 -2.58234,0.64734c-0.73198,0.00357 -1.47746,-0.16098 -2.56,0.01065c-0.90422,0.14334 -1.52588,0.84363 -2.32916,1.28485c-0.72231,0.39673 -1.739,0.65213 -2.50684,0.69382c-0.95065,0.05161 -1.72314,-0.05618 -2.66133,0.02133c-1.01654,0.08398 -1.62746,0.53946 -2.37601,1.18802c-0.53773,0.46591 -1.45,0.77145 -2.31467,0.79999c-0.96265,0.03177 -1.89467,0.00134 -2.80533,0.00134c-0.85333,0 -1.79333,0 -2.67867,0c-0.75716,0 -1.64817,0 -2.66666,0c-0.90267,0 -1.68517,0 -2.57617,0c-0.9585,0 -1.92383,0 -2.59316,0c-0.76534,0 -1.764,0 -2.564,0c-0.99866,0 -1.94283,0 -2.84283,0c-0.95983,0 -1.72783,0 -2.7625,0c-0.744,0 -1.67242,-0.11301 -2.60934,0.03601c-0.89406,0.14218 -1.57382,0.62354 -2.58517,0.8425c-0.76801,0.16629 -1.77883,0.12149 -2.55283,0.12149c-0.9045,0 -1.65206,-0.02002 -2.64867,0.00134c-0.83519,0.01791 -1.76835,0.15298 -2.55133,0.35132c-0.82539,0.20908 -1.8764,0.51321 -2.59016,0.59018c-0.84937,0.09158 -1.87075,-0.06189 -2.8,0.11432c-0.93489,0.17728 -1.52702,0.71805 -2.49316,0.91751c-0.75713,0.15631 -1.78452,0.3331 -2.50684,0.72983c-0.80328,0.44122 -1.42416,1.13098 -2.25716,1.28482c-0.88558,0.16354 -1.67142,0.41479 -2.56667,1.01068c-0.63695,0.42395 -1.3678,0.65848 -2.3125,1c-0.84017,0.30374 -1.50823,0.91498 -2.32084,0.99866c-0.89526,0.09219 -1.8,0.00134 -2.7,0.00134c-0.97916,0 -1.85717,0 -2.7,0c-0.89983,0 -2.08927,-0.43991 -2.6785,0.2215c-0.58994,0.6622 -0.30312,1.81955 -0.03616,2.57849c0.26771,0.76111 1.29203,1.04861 1.89999,1.63602c0.69174,0.66837 1.32039,1.08823 1.77184,1.88516c0.42245,0.74576 0.95992,1.53842 1.23217,2.28949c0.29616,0.81705 0.6862,1.30878 1.41067,1.82535c0.78547,0.56009 1.39777,1.21536 1.57916,2.064c0.18816,0.88034 -0.23051,2.07007 0.4675,2.46399c0.76239,0.43024 1.728,0.03601 2.66933,0.03601c0.76801,0 1.70934,0 2.71734,0c0.828,0 1.70966,0 2.43866,0c0.83701,0 2.028,0 2.62801,0c0.89999,0 2.1,0 2.7,0c0.9,0 1.8,0 2.7,0c0.9,0 1.8,0.00223 2.7,0c0.90001,-0.00226 1.80253,-0.01138 2.4,-0.08533c1.20582,-0.14923 2.07581,-0.42816 2.64283,-0.56201c1.2664,-0.29895 1.96483,-0.30579 3.12383,-0.51932c0.52297,-0.09634 1.34793,-0.3606 2.23466,-0.54935c0.89323,-0.19012 1.79829,-0.26151 2.69867,-0.27951c0.89983,-0.01801 1.7955,-0.00449 2.664,-0.00449c1.06934,0 1.78758,0.0451 2.68867,-0.05716c0.97638,-0.11081 1.77851,-0.38797 2.65183,-0.59018c0.89104,-0.20633 1.79019,-0.31442 2.6595,-0.34201c1.06885,-0.03394 1.77883,-0.01065 2.6315,-0.01065c1.00716,0 1.64616,0 2.93784,0c0.63599,0 1.328,0 2.05199,0c1.448,0 2.12801,0 3.073,0c0.58,0 1.85901,0 2.5625,0c0.7485,0 1.94864,0.00607 2.6405,-0.01068c0.72423,-0.01755 1.46587,-0.01489 2.85333,-0.27466c0.6552,-0.12268 1.58105,-0.41849 2.48534,-0.71466c0.90021,-0.29483 1.49171,-0.51346 2.39999,-0.71466c0.89331,-0.19788 1.81032,-0.26297 2.75717,-0.28085c1.00934,-0.01904 1.72816,-0.00449 2.47884,-0.00449c0.77466,0 1.56534,0 2.76399,0c0.8,0 1.60001,0 2.40001,0c1.2,0 1.99866,0 2.78932,0c0.77467,0 2.244,0 2.92534,0c0.96451,0 1.58084,0 2.78551,0c0.60432,0 1.53583,0 2.18517,0c1.39999,0 2.15067,0 2.92532,0c0.79068,0 1.98955,0.00574 2.79384,-0.00449c0.81642,-0.01038 1.65486,-0.0289 2.96217,-0.16217c0.45541,-0.04642 1.38181,-0.18408 2.3125,-0.33334c0.45964,-0.07373 1.34825,-0.24283 2.57782,-0.37851c0.7271,-0.08023 1.72165,-0.11481 2.94301,-0.12149c0.60266,-0.0033 1.54262,-0.0062 2.21432,-0.05716c1.12112,-0.08508 1.9541,-0.22421 2.83633,-0.36816c0.89911,-0.1467 1.34061,-0.24695 2.61601,-0.40802c0.76225,-0.09625 1.81236,-0.15253 2.48149,-0.16217c1.01842,-0.01468 2.11351,-0.00449 2.89351,-0.00449c0.81999,0 1.245,0 2.57933,0c0.92267,0 1.83733,0 2.71199,0c1.16701,0 1.81367,0 2.64618,0c0.78749,0 1.99016,0 2.68216,0c0.724,0 1.45604,0.00952 2.85201,-0.00134c0.64005,-0.00497 1.53931,0.01773 2.56532,-0.22015c0.70949,-0.16449 1.59962,-0.59448 2.60268,-0.97717c0.51981,-0.1983 1.4426,-0.5943 2.39333,-0.81201c1.07526,-0.24625 1.91591,-0.27393 2.403,-0.34198c1.06383,-0.14865 1.61627,-0.22772 2.705,-0.36334c0.98338,-0.1225 1.79216,-0.21954 2.75484,-0.26315c0.82588,-0.03741 1.70555,-0.00845 2.72383,-0.03152c0.72426,-0.01642 1.46217,-0.03299 2.517,-0.21066c0.98228,-0.16544 1.84991,-0.47736 2.9005,-0.65717c0.70146,-0.12006 1.431,-0.11923 2.56401,-0.12149c0.66699,-0.00131 1.37799,0.00009 2.47449,0c1.06117,-0.00009 1.72733,0.03061 2.67201,-0.03601c1.21468,-0.08566 1.8157,-0.2309 2.71066,-0.48483c0.60365,-0.1713 1.79707,-0.58884 2.4045,-0.77466c0.92702,-0.2836 1.57571,-0.45566 2.61684,-0.58316c1.09995,-0.13474 1.85503,-0.12827 2.59467,-0.20535c1.06541,-0.11105 2.04311,-0.33325 2.63733,-0.52664c1.09167,-0.35529 1.79608,-0.72031 2.58,-0.95334c0.59918,-0.17813 1.7511,-0.32965 2.67734,-0.37885c0.98859,-0.05249 1.48798,-0.05066 2.45334,-0.05582c1.25012,-0.00668 1.91183,-0.00128 2.72934,-0.00134c1.22815,-0.00009 2.04379,0.00809 2.61731,-0.03601c1.19296,-0.09171 2.08527,-0.31497 2.66852,-0.46399c0.83609,-0.21359 1.8475,-0.36118 2.74615,-0.56134c0.95642,-0.21304 1.72812,-0.65121 2.2955,-0.93866c0.87491,-0.44324 1.77292,-0.79004 2.66852,-0.93866c0.84888,-0.14084 1.90189,-0.24573 2.57465,-0.49734c0.85339,-0.31918 1.63596,-0.76413 2.436,-1.164c1.00027,-0.49997 1.60486,-0.84 2.31433,-1.04282c1.10834,-0.31683 1.79425,-0.28171 2.83499,-0.41852c0.68527,-0.09009 1.63876,-0.3287 2.37869,-0.79999c0.69562,-0.44305 1.45499,-1.14542 2.27197,-1.61783c0.58847,-0.34027 1.58701,-0.86203 2.23602,-1.08484c1.15973,-0.39816 1.97824,-0.41357 2.75415,-0.43152c1.03891,-0.02402 1.77875,-0.14551 2.55151,-0.50449c0.9707,-0.45093 1.71924,-0.47791 2.51016,-0.49551c1.02625,-0.02286 1.99146,0.13815 2.78149,-0.33783c0.64139,-0.38641 0.98428,-1.25247 2.01334,-1.60532c0.59088,-0.20261 1.83795,-0.34305 2.37866,-0.48666c0.82291,-0.21857 1.85495,-0.44077 2.75385,-0.57468c1.02304,-0.1524 1.83331,-0.39325 2.53549,-0.80133c0.77917,-0.45282 1.45383,-0.93799 2.31866,-1.19867c0.77808,-0.23453 1.70328,-0.39346 2.1875,-0.47916c0.97156,-0.17194 2.31119,-0.36691 3.0365,-0.43552c0.83725,-0.07919 1.95667,0.08273 2.74133,-0.17065c0.79245,-0.25592 1.68854,-0.82706 2.448,-0.94c0.92068,-0.13693 1.70837,-0.33572 2.564,-0.54935c0.58926,-0.14713 1.78717,-0.33649 2.64767,-0.42532c0.77145,-0.07965 1.69452,-0.43503 2.42435,-0.716c0.92892,-0.3576 1.80408,-0.27234 2.80264,-0.28534c0.83566,-0.01086 1.42889,0.00372 2.6145,-0.22015c0.89914,-0.16977 1.47238,-0.36731 2.53351,-0.7785c0.72443,-0.2807 1.66745,-0.68741 2.5,-0.83334c0.97769,-0.17136 1.73218,-0.16345 2.53284,-0.27649c1.30661,-0.18445 1.76169,-0.30997 2.673,-0.60001c0.90585,-0.2883 1.33871,-0.44986 2.12082,-0.8075c1.22556,-0.56042 1.86905,-1.02579 2.64667,-1.452c1.10449,-0.60535 1.59674,-0.80161 2.11383,-1.03149c1.09634,-0.48743 1.66031,-0.7207 2.22067,-0.93668c1.51712,-0.58475 2.32202,-0.86359 3.25467,-1c0.6926,-0.10129 1.71481,-0.04218 2.37616,-0.09851c1.06549,-0.09079 2.03336,-0.31665 2.728,-0.46399c0.69467,-0.14734 1.95706,-0.37817 2.72803,-0.47467c0.86938,-0.1088 1.66449,-0.33087 2.47198,-0.60001c0.99167,-0.33054 1.82062,-0.41388 2.48532,-0.42398c1.26718,-0.01926 1.81467,-0.00134 2.63068,-0.00134c1.23132,0 1.90933,0 3.10501,0c0.78299,0 1.53745,0.2095 2.55817,-0.02084c0.7868,-0.17755 1.41458,-0.69092 2.42084,-0.89517c0.79129,-0.16064 1.81247,-0.27405 2.59998,-0.60483c0.61066,-0.2565 1.57706,-0.81754 2.34283,-1.12198c0.88159,-0.35049 1.85718,-0.35718 2.75735,-0.35718c0.78516,0 1.74432,0.05063 2.50116,-0.08533c1.0304,-0.18509 1.69485,-0.55154 2.89865,-0.74802c0.74405,-0.12143 1.55515,-0.13443 2.35202,-0.19199c0.72583,-0.05243 1.81244,-0.4165 2.64798,-0.97467c0.52835,-0.35294 1.24142,-0.63809 2.35718,-0.87851c0.74838,-0.16125 1.80002,-0.12149 2.54733,-0.12149c0.99551,0 1.79559,0.01285 2.7955,-0.00015c0.8002,-0.01041 1.8204,-0.11282 2.58932,-0.43585c0.74875,-0.31454 1.45267,-0.86493 2.21066,-1.564c0.52026,-0.4798 1.48117,-0.94852 2.17468,-0.98935c1.07086,-0.06305 1.992,-0.01065 2.82532,-0.01065c0.83334,0 1.68454,-0.07828 2.52084,-0.5c0.79077,-0.39874 1.49985,-0.48956 2.67902,-0.5c0.7793,-0.0069 1.63348,0 2.49567,0c0.94049,0 1.78848,0 2.65182,0c0.89551,0 1.85266,0 2.75284,0c0.78516,0 1.73584,0 2.50116,0c0.99866,0 1.79868,0 2.79733,0c0.76532,0 1.84418,0 2.70132,0c0.89999,0 1.70001,0 2.60001,0c0.89999,0 1.85971,0.30988 2.68933,-0.01068c0.79294,-0.3064 2.03976,-1.07901 1.61066,-1.86783c-0.34161,-0.62799 -1.59998,-0.12149 -2.42133,-0.12149c-0.91199,0 -1.82932,0 -2.57333,0c-1.03467,0 -2.00534,0 -2.76248,0c-0.90451,0 -1.7045,0 -2.66418,0c-0.80399,0 -1.62601,0 -2.65717,0c-0.90067,0 -1.92151,0 -2.7215,0c-0.79999,0 -1.79999,0 -2.60001,0c-1,0 -1.79999,0 -2.79999,0c-0.80002,0 -1.80002,0 -2.58932,0c-0.72534,0 -1.73151,0 -2.75351,0c-0.71851,0 -1.50906,-0.01144 -2.53583,0.00015c-0.92154,0.01041 -1.61206,0.05396 -2.60535,0.28384c-0.82239,0.19034 -1.6225,0.48782 -2.63068,0.63068c-0.86917,0.12314 -1.88565,0.08533 -2.72699,0.08533c-0.729,0 -1.92767,0 -2.61966,0c-0.724,0 -1.45599,0 -2.85068,0c-0.63065,0 -1.46915,0 -2.51999,0c-0.77335,0 -1.73734,0 -2.48883,0c-0.79651,0 -2.02652,0 -2.7045,0c-1.19601,0 -2,0 -2.54935,0c-1.30383,0 -1.98932,0 -2.82401,0c-1.00583,0 -1.85849,0 -2.82281,0c-0.81451,0 -1.68301,0 -2.57852,0c-0.89548,0 -1.76398,0 -2.83331,0c-0.7095,0 -1.56216,0 -2.56668,0c-0.79999,0 -1.79999,0 -2.60001,0c-1,0 -1.79999,0 -2.59998,0c-1.00452,0 -1.85718,0 -2.82135,0c-0.80399,0 -1.62601,0 -2.65717,0c-0.90067,0 -1.52017,0 -2.52148,0c-0.80002,0 -1.80002,0 -2.60001,0c-0.99985,0 -1.96399,0 -2.91733,0c-0.6925,0 -1.65067,0 -2.38269,0c-1.16666,0 -2,0 -2.83331,0c-0.91733,0 -1.66135,0 -2.69601,0c-0.97067,0 -1.80508,-0.19595 -2.67065,0.05716c-0.87766,0.25665 -1.59863,0.91425 -2.5,0.94284c-0.89954,0.02853 -1.80002,0 -2.60001,0c-0.89999,0 -1.79999,0 -2.70001,0c-0.88931,0 -1.78531,0 -2.69998,0c-0.89999,0 -1.94891,0.33707 -2.63333,-0.16666c-0.65302,-0.48062 -1.54575,-0.44162 -2.08133,-1.11868c-0.50818,-0.64243 0.36789,-1.98856 -0.30685,-2.59317c-0.66049,-0.59183 -1.7785,-0.12149 -2.57849,-0.12149c-0.91467,0 -1.81067,0 -2.70001,0c-0.89999,0 -1.81775,-0.02817 -2.556,0.08533c-1.0051,0.15451 -1.62787,0.35315 -2.64316,0.56201c-0.965,0.19852 -1.7775,0.2955 -2.57748,0.34818l-1.00867,0.00449" id="svg_8" stroke-width="2" stroke="#000" fill="none"/>
  <path t="38567,38590,38598,38608,38608,38615,38615,38615,38623,38623,38630,38630,38630,38639,38639,38639,38646,38646,38646,38655,38655,38662,38662,38662,38671,38671,38671,38671,38678,38678,38678,38687,38687,38687,38694,38694,38694,38706,38706,38706,38710,38710,38710,38710,38720,38720,38720,38720,38727,38727,38727,38727,38736,38736,38736,38736,38743,38743,38743,38743,38743,38753,38753,38753,38753,38764,38764,38764,38765,38768,38768,38768,38768,38778,38778,38778,38778,38778,38778,38783,38783,38783,38783,38783,38792,38792,38792,38792,38792,38799,38799,38800,38800,38800,38800,38810,38810,38810,38810,38816,38816,38816,38816,38816,38816,38831,38831,38831,38831,38831,38833,38833,38833,38839,38839,38839,38847,38847,38847,38848,38855,38855,38855,38863,38863,38864,38864,38864,38871,38871,38871,38879,38879,38887,38887,38888,38896,38896,38896,38903,38903,38903,38911,38911,38911,38920,38920,38920,38928,38928,38928,38928,38936,38936,38936,38936,38943,38943,38943,38953,38953,38954,38960,38960,38960,38967,38968,38968,38975,38976,38983,38984,38991,38991,38999,38999,39009,39009,39015,39023,39031,39039,39039,39047,39055,39056,39056,39064,39071,39071,39079,39079,39087,39088,39095,39112,39112,39120,39128,39136,39136,39153,39153,39161,39167,39175,39176,39184,39184,39191,39199,39200,39208,39208,39215,39223,39239,39247,39247,39264,39264,39271,39279,39287,39304,39312,39327,39352,39383,39423,39439,39458,39458,39471,39495,39503,39512,39535,39548,39550,39575" d="m222.51137,168.09091c0.80133,1.16933 1.21608,2.0253 2,2.66667c0.57343,0.46916 1.54388,0.30432 2.52083,0.35416c0.79808,0.04071 1.80621,0.23215 2.45834,0.5c1.04314,0.42845 1.62085,0.77914 2.42082,1.17917c0.80019,0.40013 1.62787,0.8083 2.28534,1.18533c1.00847,0.57832 1.51631,0.95125 2.30482,1.40483c0.85374,0.49112 1.66847,0.69278 2.55284,0.9315c0.73657,0.19884 1.58084,0.50882 2.457,0.94501c0.91209,0.45409 1.47684,0.83713 2.31467,1.34933c0.76189,0.46579 1.4317,0.91922 2.36934,1.19733c0.97946,0.2905 1.83833,0.27196 2.42049,0.33934c1.19922,0.13879 2.0976,0.36055 2.6595,0.59399c1.09807,0.45621 1.75624,1.04132 2.46133,1.492c0.90941,0.58128 1.73615,0.75708 2.31635,0.86133c0.9447,0.16975 1.98853,0.41994 2.70648,0.71432c0.74109,0.30386 1.46329,0.66089 2.41852,1.28568c0.57892,0.37866 1.31339,1.00859 1.83865,1.34283c1.09955,0.69969 1.80701,0.91042 2.53635,1.15717c0.76526,0.2589 1.96106,0.65981 2.75833,0.98267c0.80283,0.3251 1.59579,0.66766 2,0.8075c1.18857,0.41115 1.99768,0.54866 2.78934,0.65916c0.77374,0.108 2.25519,0.35388 2.92532,0.62001c0.66168,0.26277 1.25793,0.64824 2.48532,1.26399c0.595,0.29851 1.21957,0.54599 2.21436,0.91934c1.11703,0.41924 1.52603,0.57555 2.39999,0.89549c0.92462,0.3385 1.39911,0.51851 2.38834,0.7825c0.9902,0.26425 1.99387,0.40808 2.97598,0.51866c0.47931,0.05397 1.42337,0.07802 2.68802,0.384c0.77966,0.18864 1.49158,0.53191 2.22,0.85201c0.76486,0.33612 2.07553,0.79991 2.56534,0.93066c1.02042,0.2724 1.55005,0.37564 2.59,0.63667c0.50702,0.12726 1.89923,0.55553 2.6955,0.89549c0.74695,0.31892 1.44162,0.71494 2.59583,1.01851c0.8252,0.21704 1.28,0.23485 2.20834,0.3125c0.9664,0.08083 1.46442,0.07053 2.95782,0.24232c0.98975,0.11386 1.47156,0.19914 2.39252,0.38918c0.85504,0.17644 1.94473,0.48598 2.81064,0.77866c0.74194,0.25078 1.71759,0.50064 2.53336,0.58534c0.86734,0.09004 1.76984,0.16611 2.664,0.38249c0.60446,0.14629 1.50122,0.44052 2.40015,0.743c0.91177,0.30681 1.54608,0.51086 2.86652,1.06651c0.72186,0.30377 1.44952,0.65552 2.172,1.008c0.69345,0.33833 1.61832,0.80383 2.38934,1.18933c0.66299,0.3315 1.672,0.836 2.27197,1.136c1,0.50002 1.58133,0.85904 2.45718,1.14284c0.94424,0.30597 1.77127,0.30408 2.59015,0.40984c1.03647,0.13385 1.72787,0.38203 2.63669,0.74866c0.73776,0.29762 1.54437,0.59047 2.36331,0.89867c1.03546,0.38968 1.73029,0.71936 2.46252,1c1.12195,0.42999 1.79929,0.60255 2.51099,0.8c0.73029,0.20261 1.81903,0.4792 2.8175,0.8045c0.62436,0.20341 1.50665,0.53073 2.47766,1.17949c0.4754,0.31763 1.09326,0.93559 2.1055,1.49434c0.78503,0.43333 1.37735,0.631 2.57849,0.855c0.59283,0.11055 1.48679,0.02397 2.66669,0.33334c0.70987,0.18613 1.27832,0.6862 2.33865,1.12883c0.72995,0.3047 1.6662,0.51569 2.47385,0.7045c0.8479,0.19823 1.66602,0.66866 2.49948,0.87849c0.88565,0.22298 1.84677,0.10992 2.53735,0.12151c1.07379,0.01801 1.80194,0.58914 2.58398,0.87849c0.85175,0.31512 1.70615,0.04826 2.57202,0.1575c0.88318,0.11142 1.82291,0.48199 2.56,0.68001c0.94769,0.25459 1.83334,0.56949 2.44,0.85866c0.83234,0.39673 1.89343,0.14873 2.82797,0.59201c0.65567,0.311 1.26169,0.83107 2.15268,0.83333c0.86334,0.00218 1.86316,-0.05836 2.64734,0.35266c0.84805,0.4445 1.58533,0.64667 2.52533,0.64734c0.69067,0.00049 1.79031,-0.0146 2.57468,0.42534c0.72748,0.40804 1.5098,0.59917 2.42532,1.01067c0.71265,0.32033 1.34549,1.01953 2.34134,1.39732c0.62784,0.23817 1.66684,0.14952 2.52884,0.16667c0.90503,0.01801 1.61484,0.61813 2.50449,0.91467c0.85782,0.28592 1.68533,0.08533 2.62534,0.08533c0.69067,0 1.76404,-0.00546 2.67465,0c0.8894,0.00534 1.37393,0.72559 2.11069,0.98933c0.83734,0.29974 1.78934,0.01067 2.68481,0.01067c0.92603,0 1.80579,-0.04779 2.7045,0c0.80341,0.04272 1.53717,0.74695 2.40002,0.964c0.8735,0.21974 1.79999,0.036 2.69998,0.036l0.89999,0l0.87851,0l0.83749,0" id="svg_9" stroke-width="2" stroke="#000" fill="none"/>
  <path t="40734,40816,40822,40831,40831,40846,40870,40894,40910,40910,40942,40974,40982,41006,41078,41110,41126,41142,41150,41158,41182,41190,41206,41217,41238,41286,41334,41374,41486,41503,41511,41527,41543,41543,41552,41552,41559,41570,41575,41583,41583,41602,41603,41617,41617,41617,41623,41623,41623,41633,41633,41640,41640,41648,41648,41656,41656,41656,41663,41663,41671,41672,41679,41679,41687,41687,41688,41695,41695,41705,41705,41711,41711,41711,41719,41719,41727,41727,41735,41743,41743,41754,41759,41759,41759,41769,41769,41775,41775,41784,41784,41791,41791,41791,41801,41801,41807,41807,41807,41821,41821,41821,41824,41824,41834,41834,41834,41839,41839,41848,41848,41856,41863,41864,41864,41879,41879,41879,41895,41895,41911,41911,41911,41928,41935,41944,41944,41952,41975,41983,41991,42015,42031,42063,42071,42079,42095,42103,42111,42119,42159,42199,42247,42248,42287,42310,42343,42527" d="m221.51137,167.09091c-1.5,1.47917 -2.39168,1.76514 -3.19867,2.28534c-0.61334,0.39537 -0.90375,1.28076 -1.44867,1.77182c-0.69376,0.62518 -1.38533,1.06847 -1.95267,1.55351c-0.74188,0.63428 -0.98825,1.45567 -1.48532,2.10533c-0.48918,0.63936 -1.65366,0.82819 -1.87868,1.68399c-0.22797,0.86696 -0.42358,1.61497 -1.06133,2.17467c-0.5896,0.51746 -0.61819,1.42494 -1.06,2.14134c-0.49373,0.80061 -1.48146,0.96169 -1.87868,1.72c-0.39926,0.76221 -0.42358,1.57896 -1.06133,2.13866c-0.5896,0.51746 -1.40686,1.38277 -0.88934,2.14c0.42664,0.62424 1.59004,0.6004 2.26201,0.98984c0.93045,0.53925 1.37386,1.18593 2.15266,1.77467c0.73761,0.5576 1.75731,0.34727 2.5,0.6875c0.81949,0.37541 1.57445,0.79109 2.22133,0.86932c0.98909,0.11961 1.81029,0.48566 2.464,0.85068c1.01501,0.56676 1.53906,0.92448 2.30482,1.46066c0.87848,0.6151 1.46219,1.16997 2.33101,1.75267c0.63953,0.42891 1.32262,1.10826 1.8985,1.59999c0.79472,0.6786 1.49654,0.68724 2.42683,1c0.85753,0.2883 1.65227,0.69209 2.3535,1.3c0.64229,0.55682 1.5004,0.85551 2.21066,1.06133c1.0183,0.29506 1.59422,0.7832 2.304,1.45601c0.61514,0.5831 1.21103,1.22061 2.1425,1.78267c0.53905,0.32526 1.54283,0.79999 2.14284,1.09999c0.8,0.39999 1.80754,0.87823 2.364,1.20001c0.97318,0.56274 1.53262,1.09886 2.23599,1.79999c0.60097,0.59904 0.96048,1.34631 1.64168,2.07918c0.50363,0.54184 1.51001,0.43509 2.19167,0.69016c1.02719,0.38435 1.42374,1.28096 2.252,1.66135c0.85835,0.39421 1.74629,0.32112 2.51466,0.711c1.05162,0.5336 1.58043,1.12453 2.164,1.597c0.79507,0.64371 1.50545,0.84404 2.37883,1.08299c0.72623,0.1987 1.54822,0.4734 2.53549,1.0995c0.70615,0.44781 1.1763,1.1217 2.17352,1.569c0.67783,0.30403 1.76038,0.4597 2.26898,0.63066c0.80045,0.26907 1.8136,0.6376 2.63251,1.07918c0.84915,0.45789 1.49637,1.1962 2.38834,1.37917c0.77579,0.15913 1.73233,0.00357 2.56732,0.07799c0.89417,0.0797 1.79559,0.25887 2.61902,0.55351c0.95679,0.34236 1.58694,0.82347 2.43866,1.38933c0.64185,0.42644 1.4502,0.67978 2.18665,1.39999c0.6257,0.61191 1.00858,1.33783 1.79602,1.62534c0.83124,0.30348 1.37134,0.96205 2.25067,0.97467c0.89539,0.01286 1.4129,0.67656 2.17465,0.98933c0.79703,0.32726 1.81836,0.30069 2.30402,1.1105c0.43759,0.72963 1.34729,0.64247 2,1.12149c0.69595,0.51076 1.34283,0.77867 2.22131,0.77867c0.89999,0 1.70001,0 2.61469,0.08533l0.50665,0.79333l0.69333,0.40533l0.30685,0.716" id="svg_10" stroke-width="2" stroke="#000" fill="none"/>
  <path t="44983,45078,45087,45095,45102,45102,45112,45119,45127,45135,45158,45167,45167,45174,45190,45222,45222,45231,45231,45247,45263,45271,45279,45286,45302,45327,45358,45366,45380,45422,45430,45454,45478,45478,45502,45519,45528,45534,45551,45558,45582,45591,45606,45630,45646,45655,45678,45678,45694,45711,45734,45758,45767,45774,45807,45846,45870,45910,45950,45966,45966,45990,46014,46046,46118,46214,46238,46294,46411,46413,46478,46487,46626" d="m211.51137,282.09091c1.83333,0.16666 2.39722,0.68381 2.94733,1.35718c0.57373,0.70227 0.82228,1.49396 1.75267,1.63834c0.88937,0.138 1.8,0.00449 2.7,0.00449c0.90451,0 1.78065,-0.13065 2.57918,0.02084c0.95256,0.18069 1.47571,0.83948 2.35416,1.14581c0.72145,0.25159 1.63821,0.76837 2.36217,0.82886c0.90138,0.07532 1.88422,-0.36221 2.78368,0.02533c0.71434,0.3078 1.22383,1.03448 2.02083,1.47916c0.79852,0.44553 1.69867,0.5 2.55266,0.5c0.89017,0 1.50171,0.41769 2.16884,0.87851c0.72971,0.50406 1.7785,0.12149 2.57851,0.12149c0.89999,0 1.87859,-0.34305 2.67917,0.02084c0.77321,0.35147 1.35416,0.97916 2.16817,0.97916c0.87349,0 1.85266,0 2.75266,0c0.90001,0 1.8,0 2.70001,0c0.89999,0 1.7,0 2.59999,0c0.90001,0 1.77917,-0.00211 2.65717,0c0.93835,0.00226 1.44969,0.6705 2.16367,0.97916c0.80722,0.34897 1.77917,0.02084 2.67917,0.02084c0.89999,0 1.79999,0 2.60001,0c0.89999,0 1.84283,0 2.72083,0c0.87918,0 1.77917,0 2.67917,0c0.89999,0 1.79999,0 2.6785,0l0.82602,0l0.89548,0l0.89999,0" id="svg_11" stroke-width="20" stroke="#fff" fill="none"/>
  <path t="48359,48478,48487,48502,48502,48512,48512,48518,48529,48546,48550,48550,48598,48608,48798,48862,48871,48879,48886,48902,48914,48918,48929,48934,48950,48950,48974,48990" d="m273.51135,291.09091c1.02136,0 1.86136,0 2.83334,0c0.79199,0 1.65067,0 2.51401,0c1.01666,0 1.85645,-0.08212 2.75266,0.00015c0.91144,0.08368 1.50418,0.68872 2.18533,1.28384c0.6788,0.59308 1.73563,0.86642 1.71466,1.716c-0.02237,0.90582 -0.78384,1.34799 -1.22131,2.09982c-0.48047,0.82568 -1.40833,0.73706 -2.27869,0.92102c-0.84735,0.17911 -1.59998,0.85767 -2.5,0.97916l-0.79999,0l-0.89999,0l-0.89999,0.03601" id="svg_12" stroke-width="20" stroke="#fff" fill="none"/>
  <path t="50199,50239,50247,50247,50256,50263,50272,50272,50281,50287,50295,50303,50303,50327,50359,50383,50393,50399,50399,50407,50415,50415,50431,50431,50440,50440,50440,50447,50456,50463,50463,50479,50503,50530,50607,50623,50631,50647,50663,50672,50679,50679,50687,50695,50711,50751,50775,50783,50799,50814,50815,50855,50855,50887,50927,50951,50975,50984,51063,51079,51087,51105,51111,51127,51127,51143,51151,51159,51239,51263,51335,51351,51351,51360,51367,51367,51379,51393,51423,51423,51447,51447" d="m276.51135,291.09091c0.97919,1.02084 1,1.97849 1,2.79868c0,0.90134 0,1.83731 0,2.68533c0,0.86331 0,1.88 0,2.716c0,0.89999 0,1.79999 0,2.59998c0,0.90002 0.01285,2.02567 -0.7045,2.19553c-0.90695,0.21475 -1.78534,-0.26398 -2.58566,-0.64285c-0.82281,-0.38953 -1.58182,-0.78867 -2.3125,-1.15399c-0.79733,-0.39868 -1.59558,-0.80219 -2.59717,-1.29849c-0.58847,-0.2916 -1.34863,-0.51559 -2.3895,-0.92551c-0.84555,-0.33298 -1.3345,-1.06866 -2.01065,-1.53867c-0.80582,-0.56012 -1.39468,-1.0466 -1.40002,-1.91516c-0.0054,-0.87799 0,-1.82083 0,-2.72086c0,-0.89999 -0.43427,-2.03241 0.16669,-2.63333c0.60092,-0.60089 1.61075,-0.29095 2.43332,-0.74133c0.7804,-0.42728 1.70001,-0.42542 2.60001,-0.42532c0.89984,0.00009 1.58017,0.2962 2.15268,0.94733c0.56204,0.63919 1.38873,1.05258 1.61133,1.914c0.16434,0.63602 0.03598,1.728 0.03598,2.63867c0,0.89999 -0.00009,1.79999 0,2.70001c0.00009,0.89981 0.2175,1.88721 1.09985,1.79984c0.85989,-0.08514 1.30457,-0.84711 2.10016,-1.28384c0.64813,-0.35577 1.61844,-0.76718 1.79868,-1.51733c0.21432,-0.89206 0.94043,-1.41391 1.00131,-2.29868c0.0618,-0.89786 -0.15222,-1.81909 -0.88666,-1.89865c-0.93326,-0.10107 -1.94974,0.15942 -2.5925,0.49866c-0.82483,0.43533 -1.72217,0.5 -2.6875,0.5l-0.83334,0l-0.83331,0l-0.88,0.08533" id="svg_13" stroke-width="20" stroke="#fff" fill="none"/>
  <path t="52424,52519,52535,52559,52588,52623,52655,52664,52687,52687,52720,52895,52911,52920,52951,52999,53039,53063,53087,53095,53127,53167,53167,53191,53199,53214,53230,53255,53311,53311,53494,53511,53519,53527,53559" d="m207.51137,285.09091c0,-1.70001 0,-2.60001 0,-3.564c0,-0.936 0,-1.79318 0,-2.63602c0,-0.89999 0,-1.79999 0,-2.59998c0,-0.90002 0.03261,-1.80545 -0.42534,-1.22534c-0.5267,0.66721 -0.66414,1.44269 -1.14932,2.05066c-0.49838,0.62451 -0.82355,1.67725 -0.38934,2.53867c0.35228,0.69888 1.11832,1.35226 1.964,1.436c0.79611,0.07883 1.70006,0.01041 2.60001,0c0.90018,-0.01044 1.91093,-0.23019 2.27849,-1.10001c0.3535,-0.83655 0.95085,-2.52731 0.12151,-2.52933c-0.92485,-0.00226 -0.42534,1.604 -1,2.12933l-0.64734,0.55267" id="svg_14" stroke-width="20" stroke="#fff" fill="none"/>
  <path t="56775,56838,56838,56854,56870,56870,56879,56887,56887,56895,56895,56904,56904,56910,56919,56919,56927,56935,56935,56942,56942,56953,56958,56982,57006,57022,57031,57031,57047,57062,57078,57110,57166,57182,57206,57230,57294,57326,57389,57655" d="m192.51137,280.09091c1,-1 1.8,-1 2.636,-1c1.01666,0 1.71133,0 2.73866,0c0.94684,0 1.64616,0 2.62534,0c0.78934,0 1.83333,0 2.6955,0c0.82533,0 1.7885,0.00217 2.65184,0c0.89551,-0.00226 1.70374,-0.30887 2.40984,-0.64734c0.85034,-0.40759 1.75883,-0.35199 2.722,-0.35266c0.92082,-0.00064 1.82083,0 2.72083,0c0.90001,0 1.8,0 2.60001,0c0.89999,0 1.8,0 2.7,0c0.89999,0 1.82169,0.19489 2.69867,-0.00134c0.80704,-0.18057 1.22667,-0.96265 2.15849,-0.99866l0.84283,0l0.89984,0l0.92099,0" id="svg_15" stroke-width="2" stroke="#000" fill="none"/>
  <path t="58848,58950,58966,58974,58990,59006,59017,59022,59039,59071,59071,59080,59142" d="m196.51137,270.09091c1.01067,0.97467 1.47263,1.67218 1.97467,2.38934c0.461,0.65851 1.46986,0.51517 2.22533,0.89465c0.8672,0.43561 1.63333,0.88266 1.96667,1.716l0.40799,0.60001l0.40451,0.87915l0.45683,0.52084" id="svg_16" stroke-width="2" stroke="#000" fill="none"/>
  <path t="60584,60622,60638,60649,60654,60670,60682,60682,60686,60698,60702,60702,60711,60718,60718,60734,60744,60750,60766,60766,60774,60774,60785,60790,60801,60816,60822,60846,60854,60870,60887,60900,60900,60911,60927,60935,60944,60967,60974,60974,60982,61006,61030,61038,61049,61054,61070,61094,61103,61110,61126,61143,61150,61167,61183,61191,61214,61238,61278,61310,61359,61414" d="m250.51137,302.09091c0.88667,-0.99866 1.81467,-1 2.75717,-1c0.8535,0 1.76366,0 2.56416,0c0.85333,0 1.79333,0 2.77866,0c0.89999,0 1.75021,-0.01349 2.39999,-0.52084c0.76801,-0.59967 1.328,-1.12708 2.20001,-1.53183c0.83136,-0.38589 1.6012,-0.87555 2.40018,-0.94748c0.78659,-0.0708 1.79993,-0.3201 2.33051,-0.80118c0.77322,-0.70108 1.4025,-1.01163 2.26932,-1.25583c0.76129,-0.21448 1.49878,-0.8714 2.39984,-0.94284c0.89468,-0.07095 0.46588,-1.23242 1.06683,-1.83334c0.60092,-0.60089 1.63333,-0.16666 2.53333,-0.16666c0.89999,0 1.83475,0.05292 2.60001,-0.35266c0.84589,-0.4483 1.69998,-0.64734 2.5,-0.64734c0.89999,0 1.78055,0.15869 2.63599,-0.01068c0.90741,-0.17966 1.53809,-0.97131 2.36536,-0.98932c0.89844,-0.01956 1.79865,0 2.69864,0c0.90002,0 1.80002,0 2.70001,0c0.89984,0 1.77466,0 2.60135,0c0.89865,0 1.81827,0.00195 2.59866,-0.42532c0.82257,-0.45038 1.69998,-0.57468 2.59998,-0.57468l0.83334,-0.16666" id="svg_17" stroke-width="2" stroke="#000" fill="none"/>
  <path t="62063,62102,62110,62118,62134,62147,62160,62166,62182,62182,62198,62207,62222,62238,62254,62286,62310,62319,62319,62334,62350,62367,62376,62383,62399,62406,62422,62438,62454,62463,62470,62482,62486,62502,62526,62534,62534,62542,62567,62583,62614,62638,62648,62679,62687,62719,62751,62767,62808,62808" d="m259.51135,298.09091c1.70001,0.99551 2.60001,1 3.56403,1c0.87198,0 1.73599,0 2.63599,0c0.89999,0 1.79999,0 2.60001,0c0.89999,0 1.79999,0 2.69998,0c0.90002,0 1.7955,0 2.72153,0c0.87848,0 1.77847,0 2.57849,0c0.89999,0 1.79999,0 2.69998,0c0.90002,0 1.80002,0 2.70001,0c0.89984,0 1.82535,0 2.60135,0c0.89865,0 1.79865,0 2.69864,0c0.90002,0 1.80002,0 2.70001,0c0.89999,0 1.84097,0.18143 2.60001,-0.08533c0.85596,-0.30081 0.97815,-1.52206 1.63599,-1.87866c0.84808,-0.45975 1.87991,0.13098 2.76266,-0.03735c0.75739,-0.14441 1.23679,-0.98065 2.10135,-0.99866c0.89981,-0.01874 1.79999,0 2.69998,0l0.80002,0" id="svg_18" stroke-width="2" stroke="#000" fill="none"/>
  <path t="64911,64990,65006,65014,65014,65024,65030,65039,65039,65046,65062,65072,65072,65086,65110,65118,65174,65230,65246,65254,65278,65294,65310,65350,65390,65439,65439,65494,65510,65518,65518,65526,65534,65542,65542,65550,65558,65558,65566,65566,65575,65575,65582,65582,65590,65591,65598,65607,65607,65614,65627,65654,65671,65687,65710,65710,65718,65742,65750,65790,65950,65974,65990,66006,66006,66014,66030,66040,66046,66062,66071,66078,66104,66174,66286,66294,66294,66305,66310,66326,66326,66334,66358,66390,66430,66462,66510,66510,66518,66542,66558,66598,66606,66638,66659" d="m522.51135,243.09091c0.87854,1.22133 1.10602,2.06982 1.86133,2.42534c0.64917,0.30557 1.68823,0.44379 2.43866,0.93182c0.79669,0.51816 1.28491,1.23778 2.10004,1.61751c0.88483,0.41219 1.63684,0.76222 2.39996,1.10933c0.85431,0.3886 1.62042,0.85774 2.1792,1.416c0.47406,0.47362 1.41632,0.44725 1.99548,0.92534c0.65436,0.54019 1.23975,1.12364 1.8587,1.74133c0.61859,0.61732 1.54211,0.56813 2.08264,1.11867c0.6095,0.62082 1.38019,1.56268 1.02234,2.35748c-0.32184,0.71472 -1.591,0.35718 -2.45435,0.35718c-0.96313,0 -1.89465,0 -2.8053,0c-0.85339,0 -1.79333,0 -2.67871,0c-0.75714,0 -1.65717,0 -2.40448,0c-0.99548,0 -1.79553,0 -2.79553,0c-0.79999,0 -1.79999,0 -2.7583,0c-0.87366,0 -1.75153,0 -2.55902,0c-0.96179,0 -1.87201,0 -2.76801,0c-0.91467,0 -1.81464,0 -2.71466,0c-0.79999,0 -1.54822,0.21576 -2.16663,0.83334c-0.61792,0.61713 -1.05487,1.16666 -1.93335,1.16666c-0.90002,0 -1.6452,-0.20758 -2.06668,-1c-0.34073,-0.64059 -0.82291,-1.49982 -0.83334,-2.39999c-0.01041,-0.89995 0,-1.8 0,-2.70001c0,-0.89999 -0.04785,-1.74422 -0.5,-2.42082c-0.49796,-0.74515 -0.68887,-1.74847 -0.27847,-2.57918c0.34116,-0.69057 1.08295,-1.46803 1.87848,-1.77849c0.84601,-0.33015 1.70016,-0.10315 2.61465,-0.12151c0.89655,-0.01801 1.5957,-0.61804 2.48535,-0.91467c0.85767,-0.28596 1.77173,-0.29701 2.40002,-0.65999c0.84564,-0.48856 1.33655,-1.20013 2.10449,-1.42084c0.86066,-0.24738 1.77466,-0.02533 2.34814,-0.65184l0.7807,-0.35266" id="svg_19" stroke-width="2" stroke="#000" fill="none"/>
  <path t="67385,67438,67446,67456,67456,67462,67475,67475,67478,67478,67490,67490,67490,67495,67495,67495,67506,67506,67511,67511,67511,67520,67520,67520,67527,67527,67536,67536,67550,67550,67566,67582,67663,67720,67743,67743,67768,67776,67799,67815,67824,67864,67879,67895,67907,67928,67936,67954,67976,67992,68008,68015,68023,68047,68057,68057,68063,68071,68091,68091,68108,68108,68111,68127,68136,68136,68144,68153,68153,68160,68167,68176,68183,68184,68199,68215,68231,68240,68247,68271,68280,68359,68372,68375,68415,68426,68447,68464,68472,68495,68507,68512,68535,68575" d="m499.51135,246.09091c-1.69998,0 -2.63599,0 -3.48398,0c-0.86334,0 -1.88,0 -2.71869,0c-0.76797,0 -1.80716,0 -2.58264,0c-1.048,0 -1.76202,0 -2.66736,0c-0.96866,0 -1.77264,0 -2.59467,0c-1.03116,0 -1.93182,0 -2.95267,0c-0.81064,0 -1.45715,0 -2.68399,0c-0.54132,0 -1.36334,0 -2.63068,0c-0.66449,0 -1.68784,-0.05315 -2.47464,0.01067c-1.05215,0.08533 -1.61246,0.69487 -2.61069,0.95334c-0.87195,0.22577 -1.79999,0.036 -2.69998,0.036c-0.90002,0 -1.84384,-0.41721 -2.54285,0.05716c-0.68253,0.4632 -0.35718,1.64284 -0.35718,2.54285c0,0.87917 0.38708,1.61682 0.83334,2.39999c0.44434,0.77982 0.9884,1.30054 1.16684,2.09984c0.18826,0.84335 0.80667,1.57068 1.52066,1.87932c0.80722,0.34897 1.82001,-0.04028 2.45383,0.44617c0.65326,0.50137 1.47202,0.57468 2.34668,0.57468c0.85333,0 1.79333,0 2.77866,0c0.89999,0 1.65717,0 2.55267,0c0.86334,0 1.82651,0 2.65182,0c1.01685,0 1.6955,0 2.67401,0c1.02148,0 1.82169,0.01801 2.7215,0c0.90054,-0.01801 1.70001,-0.436 2.29999,-1c0.60001,-0.564 1.49982,-0.98958 2.38934,-1c0.89594,-0.01048 1.91132,0.18057 2.52667,-0.284c0.6832,-0.51579 1.384,-0.716 2.284,-0.716c0.89984,0 1.79999,-0.01067 1.79999,-0.80133c0,-0.89867 -0.05515,-1.87149 0.35269,-2.55583c0.46591,-0.78178 0.93134,-1.55884 1.59467,-1.9955l0.55264,-0.64734l0.48935,-0.61067l0.01065,-0.88933" id="svg_20" stroke-width="2" stroke="#000" fill="none"/>
  <path t="69313,69351,69360,69367,69367,69375,69375,69386,69386,69392,69392,69399,69404,69423,69431,69431,69439,69440,69457,69463,69471,69488,69519,69543,69551,69576,69607,69631,69631,69647,69703,69751,69784,69807,69807,69818,69823,69831,69847,69847,69856,69856,69863,69872,69872,69879,69879,69888,69888,69888,69895,69895,69904,69911,69935,69935,69967,69967,69984,69999,70039,70079,70135,70151,70160,70175,70192,70223,70279,70295,70343,70367" d="m453.51135,247.09091c-1.61066,0 -2.52081,0 -3.48398,0c-0.69067,0 -1.76785,0 -2.48535,0c-1.03598,0 -1.78,0 -2.88766,0c-0.72165,0 -1.64301,0 -2.53232,0c-0.97235,0 -1.93201,-0.00006 -2.61069,0c-0.97849,0.00009 -1.77625,0.12405 -2.59998,0.57466c-0.78058,0.427 -1.70001,0.42534 -2.60001,0.42534c-0.89984,0 -1.80042,-0.02545 -2.60135,0c-0.90002,0.02859 -1.7038,0.51556 -2.29865,1.10001c-0.60526,0.59468 -1.56839,1.11572 -1.89551,1.95267c-0.34485,0.88234 0.15546,1.81879 0.99548,1.94733c0.79529,0.12169 1.5372,0.74686 2.40002,0.964c0.86911,0.21872 1.69037,0.31671 2.36166,0.68333c0.82385,0.44994 1.58566,0.3504 2.61301,0.35266c0.94681,0.00208 1.64615,0 2.82532,0c0.79999,0 1.79999,0 2.60001,0c0.79999,0 1.7955,0 2.54282,0c0.90002,0 1.85852,0 2.82385,0c0.83331,0 1.66684,0.01715 2.52884,0c0.90503,-0.01801 1.6507,-0.52661 2.50314,-0.91467c0.76453,-0.34804 1.10779,-0.87306 2,-1.08665c0.74985,-0.17952 1.23367,-0.96608 1.78052,-1.49867c0.52765,-0.5139 1.01016,-1.11067 1.02081,-2l0,-0.89999l-0.00449,-0.89551" id="svg_21" stroke-width="2" stroke="#000" fill="none"/>
  <path t="73360,73423,73423,73432,73439,73439,73453,73453,73455,73455,73463,73471,73487,73496,73503,73520,73767,73783,73815,73840,73855,73871,73887,73887,73927,74223,74239,74263,74287,74303,74319,74327,74335,74344,74359,74367,74367,74399,74431,74447,74463,74495,74503,74535,74553,74575,74599,74615,74639,74663,74679,74703,74727,74751,74751,74760,74775,74807,74815,74839,74855,74863,74879,74887,74895,74903,74919,74943,74975,74983,75023,75023,75047,75055,75079,75111,75144,75191,75215,75231,75231,75263,75303,75343,75407,75416,75584" d="m422.51135,294.09091c2.59552,0.35266 3.35046,0.62442 4.36401,0.97467c0.84412,0.29172 1.50153,0.85876 2.29318,1.32532c0.73026,0.43036 1.54272,0.79938 2.30115,1.17917c0.87128,0.43631 1.25775,1.06979 1.875,1.6875c0.61807,0.61853 0.90909,1.46036 1.66666,1.8125c0.849,0.39462 1.80002,0.02084 2.70001,0.02084c0.89999,0 1.97998,-0.3768 2.63333,0.16666c0.69003,0.57397 0.98953,1.28842 1.64584,1.83334c0.61063,0.50699 -0.28052,0.99933 -1.17917,1c-0.89999,0.00067 -1.80002,-0.00226 -2.70001,0c-0.89548,0.00226 -1.41074,0.66168 -2.12082,0.97916c-0.79379,0.35492 -1.22281,0.79642 -1.56317,1.45285c-0.41754,0.80524 -1.39914,1.17517 -1.83066,1.85333c-0.49316,0.77505 -0.08536,1.81448 -0.08536,2.68933c0,0.82666 0.07919,1.62775 0.57468,2.06134c0.63934,0.55951 1.26117,0.7677 2.12534,1.02115c0.87741,0.25732 1.59863,0.91425 2.5,0.94284c0.89954,0.02853 1.79999,0 2.60001,0c0.89999,0 1.92282,0.34134 2.69998,-0.02084c0.75723,-0.35291 1.33997,-0.85916 1.97919,-1.5c0.64194,-0.64355 0.62491,-1.8931 1.39951,-2.35767c0.67676,-0.40588 1.17664,-0.82449 1.62131,-1.62149c0.4455,-0.79849 0.5,-1.70001 0.5,-2.60001c0,-0.89999 0,-1.69998 0,-2.60001c0,-0.89999 0.29764,-1.85507 -0.01065,-2.68933c-0.27582,-0.7464 -1.30725,-1.1998 -2.08932,-1.48917c-0.85175,-0.31512 -1.70001,-0.12149 -2.60001,-0.12149c-0.94284,0 -1.65717,0.35266 -2.39984,0.87851l-0.92551,0.12149l-0.88931,0" id="svg_22" stroke-width="2" stroke="#000" fill="none"/>
  <path t="76503,76647,76663,76663,76679,76687,76695,76711,76727,76727,76735,76735,76743,76767,76791,76791,76823,76831,77062,77095,77103,77111,77127,77143,77407,77438,77495,77495,77518,77551,77566,77598,77623,77641,77649,77670,77686,77695,77703,77726,77727,77742,77751,77766,77782,77799,77822,77846,77870,77870,77894,77894,77904,77918,77934,77966,77982,77990,78007,78007,78014,78023,78038,78062,78062,78070,78078,78086,78103,78126,78143,78158,78167,78191,78207,78287,78302,78326,78366,78390,78399,78399,78430,78456,78486,78495,78511,78527,78534,78551,78575,78599" d="m429.51135,296.09091c-0.83331,0.16666 -1.2421,0.9538 -1.64731,1.70001c-0.4133,0.76111 -0.2128,1.76865 -0.63669,2.49866c-0.48099,0.8284 -1.26917,1.38684 -1.73682,1.80133c-0.7865,0.69711 -1.69235,0.83575 -2.3685,1.436c-0.69394,0.61606 -0.72852,1.77792 -1.31519,2.20682c-0.75946,0.55521 -1.5105,0.90555 -2.12881,1.52383c-0.61832,0.61829 -1.15115,1.24985 -1.66669,1.83334c-0.56354,0.63788 -0.92908,1.36972 -1.7215,1.87851c-0.74625,0.47916 -1.7785,0.12149 -2.57849,0.12149c-0.91467,0 -1.81067,0 -2.70001,0c-0.89999,0 -1.79999,0 -2.69864,0c-0.854,0 -1.93976,-0.32251 -2.63467,0.16666c-0.71503,0.50333 -1.01395,1.23776 -1.45068,2.03336c-0.35574,0.64807 -0.72443,1.50003 -0.716,2.39999c0.00821,0.87936 0.51804,1.5589 1.08401,2.116c0.67114,0.66064 1.29156,1.18561 2.08267,1.45065c0.85101,0.2851 1.65552,0.74527 2.52884,0.82886c0.90036,0.08618 1.80447,0.00449 2.69382,0.00449c0.896,0 1.81067,0 2.71066,0c0.89999,0 1.69403,-0.09561 2.39999,-0.5c0.79346,-0.4545 1.75729,-0.33633 2.60001,-0.72134c0.66931,-0.30579 1.58578,-0.41943 2.37918,-0.7995c0.70331,-0.33691 0.20923,-1.60562 0.53149,-2.40448c0.30807,-0.76367 0.98706,-1.27917 0.98932,-2.17468c0.00226,-0.89999 0.00064,-1.78934 0,-2.68533c-0.00067,-0.91333 -0.35126,-1.68607 -1.2215,-1.71466c-0.87799,-0.02884 -1.7785,0 -2.57849,0c-0.89999,0 -1.79999,0 -2.70001,0c-0.89999,0 -1.79999,0 -2.69998,0c-0.89984,0 -1.80002,0 -2.60135,0l-0.89865,0" id="svg_23" stroke-width="2" stroke="#000" fill="none"/>
 </g>
 <g display="none">
  <title>muse_image</title>
  <image xlink:href="http://farm3.static.flickr.com/2316/2332596185_4fccef9984.jpg" id="muse" height="426" width="640" y="27" x="0"/>
 </g>
 <g display="none">
  <title>bbox</title>
  <rect stroke="#f00" fill="none" stroke-width="3" height="181.65766" width="636.16" y="128.06306" x="2.56" id="bbox"/>
 </g>
</svg>
