<svg width="640" height="480" xmlns="http://www.w3.org/2000/svg" xmlns:svg="http://www.w3.org/2000/svg" xmlns:xlink="http://www.w3.org/1999/xlink">
 <!-- Sketchy ANNOTATION
  ImageNet ID: n02691156_11257
  URL: http://farm4.static.flickr.com/3239/2337490984_291b01312b.jpg
  Image Width: 500
  Image Height: 361
  BBox X: 22
  BBox Y: 130
  BBox Width: 455
  BBox Height: 150
  Exposure: 2000ms
  Synset Label: airplane
  Synset ID: n02691156
  Worker Tag: Airplane
  Sanity Check: 
   Context
   Saved
   Shading
  Comment: 
   {}
  Worker ID: AIH9VLD92GHFH
  Assignment ID: 3OSWBBLG1EX78V1T7KG1DJJG7XVDX5
  HIT ID: 36MUZ9VAE62WFBCIMDL70A3OR0QEDB
  Work Time: 128s
  Worker Score: 0.9286
 END ANNOTATION -->
 <g display="inline">
  <title>Layer 1</title>
  <path t="0,178,180,181,181,193,194,194,211,211,211,233,233,233,244,245,245,245,261,261,261,277,277,277,294,294,294,310,310,310,327,327,327,328,344,344,344,345,360,364,376,376,376,394,394,394,409,410,410,427,428,428,428,444,444,444,460,461,461,477,477,478,494,494,494,495,509,510,510,510,527,527,527,543,543,544,560,561,561,579,579,580,594,594,594,610,610,611,627,627,627,643,644,644,660,661,661,661,677,677,694,694,694,695,710,711,711,711,728,728,728,728,743,743,760,761,761,777,777,794,795,795,810,810,811,826,827,844,844,860,860,860,876,877,893,894,894,910,911,927,928,928,943,944,960,961,976,994,994,994,1009,1009,1042,1043,1060,1077,1077,1094,1127,1127,1492,1608,1609,1627,1643,1659,1692,1693,1758,1759,1759,1794,1794,1842,1843,1860,1876,1877,1893,1909,1910,1925,1926,1942,1960,1961,1977,1978,2009,2010,2025,2026,2026,2043,2044,2060,2061,2061,2076,2077,2093,2094,2109,2109,2126,2127,2143,2144,2161,2177,2193,2209,2210,2226,2227,2254,2254,2266,2278,2278,2294,2294,2310,2310,2327,2344,2345,2345,2361,2362,2362,2376,2377,2393,2394,2409,2443,2444,2444,2459,2459,2460,2476,2477,2494,2510,2526,2527,2544,2544,2560,2625,2626,2643,2643,2676,2692,2693,2726,2775,2776,2793,2810,2844,2876,2877,2909,2943,2944,2958,2959,2976,2993,3026,3027,3042,3043,3076,3092,3126,3127,3159,3175,3176,3209,3210,3225,3275,3292,3293,3310,3310,3344,3358,3359,3394,3408,3426,3427,3443,3444,3459,3476,3476,3493,3526,3527,3542,3543,3560,3561,3576,3577,3593,3610,3610,3611,3626,3627,3643,3644,3672,3684,3685,3696,3697,3726,3727,3743,3744,3744,3776,3777,3809,3810,3844,3845,3858,3876,3909,3910,3943,3958,4008,4025,4026,4043,4092,4108,4109,4125,4192,4492,4559,4560,4608,4692,4824,4875,4875,4958,4959,4975,5009,5025,5026,5044,5045,5076,5077,5092,5093,5126,5159,5160,5160,5193,5194,5225,5226,5242,5259,5293,5294,5308,5309,5326,5359,5360,5375,5376,5403,5404,5417,5417,5430,5444,5444,5459,5477,5509,5510,5544,5544,5544,5558,5559,5576,5577,5625,5659,5708,5709,5743,5743,5776,5809,5810,5843,5892,5926,5927,5959,5975,5975,5993,6042,6043,6076,6109,6158,6208,6209,6225,6225,6243,6275,6277,6292,6293,6309,6309,6326,6327,6359,6360,6374,6375,6394,6425,6426,6442,6443,6491,6492,6526,6526,6559,6560,6641,6642,6658,6692,6717,6791,6874,6875,7041,7042,7441,7624,7625,7724,7760,7792,7793,7808,7809,7824,7842,7843,7859,7860,7875,7875,7876,7892,7893,7894,7909,7910,7925,7926,7927,7942,7959,7960,7960,7976,7977,7992,7993,8009,8010,8010,8026,8042,8043,8059,8060,8092,8093,8108,8108,8130,8130,8146,8161,8175,8192,8207,8225,8226,8243,8282,9157,9158,9174,9191,9192,9207,9208,9224,9241,9241,9242,9257,9258,9273,9274,9274,9275,9292,9293,9307,9308,9325,9326,9342,9343,9344,9357,9358,9373,9393,9393,9394,9408,9409,9424,9425,9458,9459,9474,9474,9492,9511,9527,9542,9543,9559,9592,9625,9641,9642,9658,9659,9688,9704,9725,9726,9726,9758,9792,9793,9825,9841,9842,9858,9874,9874,9875,9890,9891,9892,9908,9909,9909,9925,9925,9926,9941,9942,9958,9958,9959,9974,9974,9975,9992,9993,10007,10008,10025,10041,10042,10042,10058,10059,10075,10076,10092,10093,10109,10109,10110,10124,10125,10142,10143,10143,10157,10158,10173,10174,10174,10192,10193,10208,10209,10209,10227,10228,10245,10245,10246,10246,10262,10263,10263,10280,10280,10297,10298,10298,10299,10316,10316,10317,10332,10333,10333,10348,10348,10349,10364,10365,10365,10381,10381,10381,10397,10397,10398,10413,10413,10413,10414,10430,10430,10431,10431,10461,10462,10462,10466,10466,10482,10483,10483,10498,10499,10499,10514,10515,10516,10531,10532,10547,10548,10548,10565,10566,10581,10582,10582,10583,10598,10599,10599,10614,10614,10615,10615,10631,10632,10647,10648,10648,10664,10664,10665,10665,10681,10682,10682,10698,10698,10713,10714,10714,10730,10745,10746,10761,10762,10762,10779,10779,10795,10811,10811,10812,10828,10828,10843,10844,10845,10860,10861,10876,10876,10877,10892,10893,10907,10908,10909,10924,10925,10940,10941,10942,10957,10958,10974,10975,10990,10991,11007,11026,11026,11043,11061,11061,11079,11108,11109,11124,11143,11144,11164,11164,11182,11208,11209,11210,11242,11243,11244,11275,11276,11276,11298,11317,11318,11319,11337,11355,11356,11356,11374,11375,11391,11408,11408,11424,11439,11454,11455,11474,11476,11492,11510,11510,11543,11558,11558,11575,11576,11577,11608,11624,11625,11642,11643,11660,11661,11679,11697,11698,11716,11734,11734,11735,11751,11752,11766,11767,11767,11784,11801,11802,11803,11819,11819,11834,11835,11835,11852,11866,11867,11868,11885,11885,11902,11902,11917,11918,11935,11936,11952,11952,11967,11968,11997,11998,12003,12004,12005,12021,12021,12022,12036,12054,12055,12070,12071,12087,12088,12088,12106,12107,12124,12125,12141,12142,12159,12160,12180,12180,12198,12198,12199,12228,12229,12248,12248,12249,12253,12254,12255,12271,12272,12289,12290,12308,12308,12326,12327,12343,12343,12359,12360,12377,12378,12378,12394,12395,12395,12413,12413,12429,12429,12447,12464,12465,12493,12509,12509,12528,12529,12558,12575,12640,12642,12691,12692,12731,12758,12759,12776,12808,12809,12826,12826,12845,12865,12885,12886,12904,12924,12925,12958,13007,13041,13043,13059,13107,13108,13124,13125,13173,13208,13241,13243,13274,13276,13307,13307,13357,13374,13374,13423,13456,13457,13507,13590,13592,13623,13673,13675,13691,13710,13711,13745,13750,13751,13770,13789,13789,13806,13824,13824,13842,13843,13860,13861,13877,13878,13895,13913,13914,13931,13932,13949,13950,13968,13968,13985,13986,14003,14021,14022,14022,14040,14041,14045,14049,14049,14067,14068,14086,14086,14102,14103,14121,14122,14139,14140,14140,14158,14176,14177,14177,14200,14201,14220,14220,14221,14237,14238,14243,14244,14245,14245,14249,14250,14251,14269,14269,14286,14287,14287,14307,14307,14326,14327,14344,14345,14346,14364,14365,14383,14384,14416,14417,14436,14437,14437,14441,14442,14445,14446,14447,14447,14451,14452,14453,14472,14473,14494,14495,14513,14514,14515,14535,14554,14555,14572,14573,14574,14606,14607,14608,14641,14643" d="m149,286c3.884,0 4.62534,0 5.37466,0c0.74133,0 2.13896,0.01077 2.77867,-0.01068c0.88571,-0.02972 1.92786,-0.20221 2.62134,-0.41464c0.9128,-0.2796 1.91135,-0.48663 2.46132,-0.56c0.86969,-0.11603 2.07492,-0.43405 2.6595,-0.72452c0.88673,-0.44058 1.40506,-0.83182 2.4205,-1.40482c0.67502,-0.38089 1.35718,-0.71228 2.36934,-1.08401c0.82729,-0.30383 1.41109,-0.48962 2.6145,-0.68018c0.88483,-0.14011 1.77072,-0.14948 2.53349,-0.4545c0.74948,-0.29971 1.35602,-0.90765 2.33334,-1.5c0.76491,-0.46359 1.37692,-0.64536 2.23466,-1.13599c0.92506,-0.52914 1.49875,-1.02579 2.05699,-1.53067c0.53624,-0.48499 1.32153,-1.45627 2.04167,-1.9375c0.76706,-0.5126 1.76428,-0.5116 2.55183,-0.61517c1.0316,-0.13565 1.74818,-0.33157 2.54683,-0.83398c0.84714,-0.53293 1.4157,-1.13861 1.91566,-1.4035c1.07909,-0.57169 1.78984,-0.61017 2.83501,-0.72452c0.68198,-0.07462 1.88319,-0.26297 2.62984,-0.48532c0.70529,-0.21002 1.70595,-0.41812 2.54166,-0.5c0.88029,-0.08624 1.78137,-0.21188 2.67917,-0.42532c0.60155,-0.14301 1.80034,-0.40558 2.7,-0.53101c0.60023,-0.08368 1.53539,-0.22812 2.40001,-0.70782c0.62975,-0.3494 1.48563,-1.11469 2.09999,-1.56918c0.8801,-0.65109 1.474,-1.00455 2.36401,-1.30933c1.04836,-0.35901 1.79866,-0.33804 2.68866,-0.56717c0.99182,-0.25534 1.51213,-0.57339 2.286,-1.0755c0.94951,-0.61606 1.56236,-1.26819 2.22934,-1.52802c0.99814,-0.38882 1.57352,-0.2746 2.43466,-0.28531c1.19591,-0.01489 2.08195,0.02838 2.912,-0.08667c1.01169,-0.14023 1.69778,-0.43268 2.36934,-0.80133c1.0215,-0.56073 1.52869,-0.9733 2.4205,-1.4035c0.87494,-0.42206 1.78979,-0.60818 2.37466,-0.689c0.83397,-0.1152 2.063,-0.38992 2.74615,-0.59552c0.93483,-0.28131 1.73648,-0.37109 2.62134,-0.45065c0.64011,-0.05756 1.68188,-0.16345 2.77867,-0.42133c0.75497,-0.17752 1.50693,-0.40219 2.55299,-0.87451c0.67131,-0.3031 1.25699,-0.70453 2.13501,-1.1095c0.97981,-0.45192 1.68617,-0.54514 2.85333,-0.56934c0.78134,-0.0162 1.59702,0.08409 2.5,-0.16667c0.87245,-0.24228 1.6657,-0.83545 2.33867,-1.13783c0.74294,-0.33383 1.68784,-0.83575 2.33333,-1.51016c0.56824,-0.5937 1.32054,-1.06609 2.06583,-1.23351c0.99974,-0.22458 1.60823,-0.49255 2.76216,-0.95183c0.77631,-0.30898 1.30072,-0.52139 2.5,-0.83333c0.67688,-0.17606 1.67282,-0.48915 2.33868,-0.87201c0.7511,-0.43187 1.6427,-1.01376 2.34399,-1.23332c0.96393,-0.3018 1.65359,-0.42226 2.39999,-0.636c1.1044,-0.31625 1.88074,-0.40363 2.73468,-0.70934c0.88184,-0.3157 1.81943,-0.55382 2.68265,-1.04933c0.53391,-0.30649 1.18652,-1.06377 2.03317,-1.42384c0.7457,-0.31714 1.75208,-0.51248 2.49567,-0.89017c0.80023,-0.40645 1.62048,-0.58716 2.47916,-0.92732c0.79892,-0.3165 1.61157,-0.77225 1.82535,-1.42534c0.29761,-0.90919 1.32132,-1 2,-1c1.11465,0 2.11438,0.28644 2.83334,-0.16667c0.70499,-0.44431 1.22238,-0.76645 2.16666,-1c0.81616,-0.20186 1.59723,-0.56142 2.59549,-0.78516c0.74536,-0.16705 1.45898,-0.66864 2.10001,-1.34283c0.65823,-0.69232 1.62582,-0.70474 2.47916,-0.70534c0.94,-0.00067 1.78967,-0.22853 2.46133,-0.57466c0.81213,-0.41853 1.71133,-0.42247 2.60684,-0.42534c0.9585,-0.00307 1.64587,-0.07608 2.59317,-0.42534c0.76813,-0.28319 1.76733,-0.5378 2.39999,-0.564c1.1842,-0.04904 1.99564,0.06125 2.75418,-0.125c0.90042,-0.22108 1.40833,-0.98227 2.17648,-1.71899c0.61172,-0.5867 1.22128,-0.87338 2.23334,-1.08267c0.79071,-0.16351 1.80252,-0.29796 2.57916,-0.584c1.00287,-0.36935 1.76001,-0.56824 2.32535,-1.20534c0.49323,-0.55582 1.42133,-0.98672 2.12616,-1.37733c0.79504,-0.4406 1.38693,-0.78946 2.32651,-0.97449c0.92804,-0.18275 1.64764,-0.64571 2.22131,-1.26401c0.56238,-0.60612 1.20822,-1.58659 1.90686,-1.67616c0.93246,-0.11955 1.99765,-0.09096 2.59381,-0.5235c0.80167,-0.58167 1.25531,-1.19948 2.17352,-1.4265c0.84851,-0.20979 1.69168,-0.59097 2.68066,-0.886c0.65811,-0.19633 1.49045,-0.10873 2.5,-0.5c0.74326,-0.28806 1.23251,-0.96053 2.28265,-1.49734c0.59906,-0.30623 1.52216,-0.55888 2.23132,-0.81667c1.01996,-0.37076 1.98621,-0.34119 2.66251,-0.35716c0.77594,-0.01833 1.8327,-0.13116 2.75418,-0.42084c0.63858,-0.20074 1.6322,-0.52734 2.57883,-0.57016c0.89908,-0.04066 2.06226,0.20993 2.53601,-0.44717c0.42685,-0.59203 0.89908,-1.26945 1.55316,-1.64c0.79004,-0.44757 1.58054,-0.82584 2.32516,-0.97449c0.92474,-0.18462 1.69897,-0.3613 2.59616,-0.92818c0.68475,-0.43265 0.47394,-1.60698 1.29333,-1.99333c0.75763,-0.35722 1.75461,0.29324 2.70667,-0.032c0.7674,-0.26216 1.18896,-0.94916 2.13068,-0.99066c0.86429,-0.03809 1.68591,-0.49243 2.51599,-0.832c0.71671,-0.29318 1.65289,-0.1476 2.51599,-0.16667c0.94305,-0.02084 1.05548,-0.88052 1.65067,-1.66667c0.40903,-0.54028 1.65869,-0.33333 2.34933,-0.33333c0.96317,0 1.89468,0 2.80533,0c0.85333,0 1.84143,0.16531 2.67868,-0.16667c0.70239,-0.27852 1.48126,-0.78645 2.34732,-0.82883c1.0155,-0.04968 1.854,-0.0045 2.81934,-0.0045c0.83334,0 1.81183,0 2.52884,0c0.94049,0 1.78851,0 2.65182,0c1.01669,0 1.854,0 2.81934,0c0.83334,0 1.81183,0 2.52884,0c0.94049,0 1.78851,0 2.65182,0c1.01669,0 1.86337,-0.05367 2.62335,0.08533c1.05121,0.19226 1.76718,0.53423 2.69598,0.748c0.80444,0.18515 1.81735,0.16376 2.508,0.16667c1.06821,0.0045 1.80991,0.34578 2.367,1.02083c0.41766,0.5061 1.20557,1.14056 1.95834,1.4375c1.13995,0.44966 1.96289,0.45499 2.8045,0.54617c0.87216,0.0945 1.6817,0.53229 2.52884,0.82883c0.74527,0.26088 1.41599,0.92834 1.98099,1.51851c0.66437,0.69394 1.42255,1.04054 2.18033,1.2865c1.02017,0.33113 1.91544,0.37892 2.65802,0.72333c0.72717,0.33727 1.43118,1.14442 1.93665,1.77701c0.57559,0.72032 1.21783,1.43503 1.98001,1.776c0.71808,0.32124 1.81461,-0.0947 2.62933,0.08665c0.81122,0.18057 1.45792,0.71104 2.09601,1.10851c0.83319,0.519 0.89908,1.76727 1.70532,1.89017c0.74854,0.11411 1.78345,-0.36586 2.66666,0.16667c0.71362,0.4303 1.33334,0.82825 2.21869,0.83333c0.92938,0.00534 1.55429,0.42766 2.33615,0.87849c0.76843,0.4431 1.66385,0.12151 2.60385,0.12151c0.69064,0 1.76984,-0.0878 2.58533,0.01067c0.92795,0.11205 1.55249,0.6037 2.56815,0.86783c0.81219,0.21123 1.78918,0.12151 2.52118,0.12151c1.16666,0 1.95834,0 2.80899,0c1.02435,0 1.69635,0 2.44034,0c1.10785,0 1.99884,0 2.90335,0c0.69464,0 1.71133,0 2.65182,0c0.86215,0 1.6955,0 2.67398,0c0.82019,0 1.77933,0.0294 2.67868,-0.0045c0.74866,-0.02821 1.73535,-0.30098 2.54285,-0.57016c0.99133,-0.33046 1.77975,-0.38666 2.63333,-0.42534c0.86316,-0.03912 1.63834,-0.62918 2.48798,-0.87849c0.82568,-0.24229 1.88898,0.0703 2.59601,-0.4055c0.65848,-0.44312 1.33994,-0.71066 2.24933,-0.716c0.78152,-0.00458 1.57202,0 2.69052,0c0.89099,0 1.7955,0 2.65881,0c0.84802,0 1.78851,0 2.80533,0c0.67868,0 1.65717,0 2.47736,0c0.9585,0 1.854,0 2.71732,0c0.84802,0 1.78851,0 2.80533,0c0.67868,0 1.90549,0.35518 2.51202,-0.33333c0.45425,-0.51564 0.52322,-1.60941 1.48798,-1.66667c0.67749,-0.04022 1.91409,0.24808 2.55734,-0.22133c0.70139,-0.51181 1.28799,-0.77867 2.12134,-0.77867c0.97849,0 1.81491,-0.12764 2.75717,0.05716c0.92819,0.18204 1.65222,0.64151 2.22131,1.26418c0.56897,0.62251 0.95013,1.57675 1.54236,2.15784c0.72308,0.70947 1.52017,0.95807 2.3125,1.52083c0.66324,0.4711 0.92197,1.35324 1.19199,2.13867c0.29395,0.85504 1.31293,1.04715 1.97467,1.38216c0.8576,0.43416 1.66064,1.07693 1.91602,1.96317c0.1936,0.67194 0.2934,1.70358 0.84564,2.2115c0.79163,0.7281 1.67413,0.97319 2.06903,1.78717c0.36505,0.7524 0.92084,1.45148 1.16479,2.22183c0.28394,0.89648 0.81213,1.34018 1.48718,1.86484c0.71051,0.55222 1.38635,1.38188 1.50836,2.12616c0.15216,0.92816 0.00897,1.7885 0.00897,2.65184c0,0.89549 0,1.854 0,2.81934c0,0.65866 0,1.66666 0,2.52882c0,0.94051 0.26086,1.89243 -0.17151,2.59467c-0.4566,0.74159 -1.65503,0.60028 -2.49518,1.04317c-0.76923,0.4055 -1.09326,1.12061 -1.87598,1.86633c-0.43872,0.41798 -1.17084,0.99461 -2.12402,1.46701c-0.78687,0.38998 -1.65729,0.77278 -2.33331,1.33333c-0.51801,0.42955 -1.41199,0.88916 -2.33331,1.33333c-0.69034,0.33279 -1.46454,0.76131 -2.16669,1.50002c-0.55402,0.58286 -1.07269,1.36496 -1.72134,1.80264c-0.7811,0.52707 -1.34335,1.04987 -2.12149,1.65417c-0.7442,0.57794 -1.6217,0.93793 -2.29315,1.28452c-0.81229,0.41931 -1.79654,0.29623 -2.60684,0.78699c-0.65399,0.39609 -0.95135,1.38068 -1.51434,1.9285c-0.77075,0.75 -1.65408,0.3671 -2.59616,0.72052c-0.82141,0.30814 -1.1329,1.20947 -1.81601,1.70532c-0.71606,0.51978 -1.46786,0.77759 -1.87881,1.57867c-0.37192,0.72498 -1.36252,0.70532 -2.27316,0.70532c-0.85333,0 -1.79333,0 -2.67868,0c-0.75717,0 -1.84216,-0.08353 -2.51599,0.08533c-0.9093,0.22787 -1.80771,0.93768 -2.48935,1.21017c-0.73444,0.29361 -1.69501,0.4324 -2.49466,0.74615c-0.88538,0.34738 -1.50433,1.01749 -2,1.45834c-0.7305,0.64969 -1.52661,1.25583 -2.38266,1.58133c-0.76199,0.28973 -1.6214,0.76501 -2.01651,1.57135c-0.3269,0.66708 -0.94043,1.48837 -1.62167,1.82648c-0.69946,0.34714 -1.80585,0.72009 -2.19116,1.40619c-0.47934,0.85355 -0.57034,2.00415 -1.14932,2.47867c-0.60864,0.49881 -1.54309,1.0126 -1.93735,1.52133c-0.68707,0.8866 -0.88196,1.54251 -1.68533,2.22931c-0.63699,0.54456 -1.6261,0.86661 -2.15433,1.58536c-0.5087,0.69217 -1.01825,1.40567 -1.34698,2.15067c-0.35812,0.81158 -1.22922,1.05762 -1.95334,1.57465c-0.65393,0.46692 -1.50143,0.48453 -2.38251,0.79636c-0.68973,0.24411 -1.3342,0.9494 -1.65799,1.75748c-0.36533,0.91171 -1.24594,0.91788 -2.1875,1.1875c-0.68414,0.19589 -1.34357,0.6431 -2.19736,1.22269c-0.73126,0.49643 -1.53738,0.4585 -2.45065,0.63199c-0.89139,0.16931 -0.88757,1.42487 -1.64267,1.90668c-0.74097,0.47278 -1.55508,0.03705 -2.328,0.108c-1.30109,0.11945 -1.99072,0.39648 -2.66733,0.66849c-0.97089,0.39029 -1.77451,0.71729 -2.65182,0.93832c-0.88782,0.22366 -1.78568,0.31848 -2.6235,0.3465c-0.9382,0.03137 -1.80051,-0.01898 -2.60535,0.34402c-0.70218,0.31668 -1.42776,0.83563 -2.33331,1.5c-0.69189,0.50763 -1.28665,0.96118 -2.33868,1.1095c-0.73813,0.10406 -1.85168,0.04935 -2.57333,0.05716c-0.96317,0.01044 -1.75665,0.1597 -2.672,0.42532c-0.74564,0.21637 -1.77835,0.52682 -2.55466,0.57019c-0.95987,0.05362 -1.8201,-0.2641 -2.69467,0.33783c-0.68646,0.47244 -0.97495,1.42816 -1.79733,1.59467c-0.74646,0.15115 -1.78397,0.01868 -2.68182,0.09283c-1.02771,0.0849 -1.8111,0.43277 -2.42084,0.6265c-0.98776,0.31384 -1.83594,0.34732 -2.76666,0.35266c-0.78152,0.00449 -1.82352,0 -2.69067,0c-0.948,0 -1.91202,0 -2.66351,0c-0.79648,0 -1.79803,-0.04398 -2.7045,0.03601c-0.94666,0.08353 -1.72968,0.32504 -2.58533,0.53867c-0.58926,0.14713 -1.78531,0.3613 -2.64767,0.40448c-0.77026,0.03857 -1.7601,-0.05075 -2.595,0.1915c-1.03461,0.3002 -1.63943,0.69092 -2.34265,0.97867c-0.71817,0.29388 -1.77567,0.6514 -2.75732,0.77869c-0.59714,0.07742 -1.68073,0.04514 -2.62134,0.08267c-0.67905,0.0271 -1.91061,0.27359 -2.46133,0.41464c-0.86841,0.22244 -2.06232,0.46933 -2.65952,0.51752c-0.86691,0.06995 -1.93784,0.05716 -2.87915,0.05716c-0.67801,0 -1.64722,-0.01636 -2.46133,0.01068c-0.86926,0.02887 -2.06552,0.20462 -2.66852,0.34198c-0.93365,0.21268 -1.57666,0.39233 -2.61667,0.52618c-0.72467,0.09326 -1.82883,0.1254 -2.50949,0.2905c-1.22763,0.29776 -1.67538,0.716 -2.36032,1.12534c-0.98019,0.58582 -1.80884,0.69464 -2.80917,0.70532c-0.82062,0.00876 -1.48523,-0.01099 -2.48517,0.00134c-0.83566,0.01031 -1.72372,0.04196 -2.91333,0.28265c-0.59528,0.12045 -1.4332,0.41974 -2.47983,0.59451c-0.89389,0.14926 -1.92151,0.12149 -2.7215,0.12149c-0.80002,0 -1.60269,0 -2.47202,0c-1.06134,0 -1.69644,-0.01587 -2.728,0.02084c-0.69519,0.02472 -1.96088,0.18723 -2.74933,0.40448c-0.75964,0.20929 -1.58118,0.43719 -2.556,0.51752c-0.69327,0.05713 -1.3895,0.03766 -2.65152,0.0575c-0.76068,0.01196 -1.87973,0.32953 -2.43915,0.85034c-0.47375,0.44107 -1.36157,0.94571 -2.30133,1.08798c-0.69489,0.10519 -1.43011,0.09058 -2.81467,0.34534c-0.63565,0.11697 -1.45258,0.44016 -2.52002,0.63068c-0.76544,0.13663 -1.73599,0.08533 -2.46799,0.08533c-0.73199,0 -1.8598,-0.07104 -2.8215,0.22134c-0.72025,0.21899 -1.67215,0.65964 -2.47849,0.74265c-0.79657,0.082 -1.7955,0.03601 -2.54285,0.03601c-1.04251,0 -1.99164,-0.0311 -2.66251,0.009c-0.99313,0.05939 -1.84106,0.4465 -2.49466,0.991c-0.81995,0.68307 -1.50653,0.88327 -2.24933,1.01468c-1.10986,0.19635 -1.71439,0.60641 -2.79333,0.86383c-0.6937,0.1655 -1.452,0.11923 -2.48935,0.12149c-0.77332,0.00168 -1.73734,0 -2.48883,0c-0.79648,0 -2.02914,-0.03183 -2.7045,0.03601c-1.20404,0.12094 -1.72192,0.31992 -2.51334,0.53867c-1.11722,0.30881 -1.92194,0.41495 -2.74533,0.99332c-0.55069,0.38681 -1.30496,1.24246 -2.10532,1.41068c-0.91183,0.19165 -1.89468,0.02133 -2.58533,0.02133c-1.06818,0 -1.92551,-0.00446 -2.71069,0c-0.94003,0.00534 -1.95068,0.1615 -2.59381,0.5c-0.82886,0.43625 -1.84644,0.44205 -2.52084,0.52084c-0.99207,0.11591 -1.65039,0.78018 -2.54166,0.95831c-0.98215,0.19629 -1.73035,0.02084 -2.56735,0.02084c-0.89099,0 -1.7865,0 -2.655,0c-1.06934,0 -1.77438,-0.01208 -2.74933,0c-0.86151,0.01068 -1.81192,0.43784 -2.31201,0.85068c-0.69617,0.57468 -1.55795,1.11331 -2.508,1.14932c-0.67151,0.02545 -1.66132,0 -2.69598,0c-0.76801,0 -1.60666,0 -2.62335,0c-0.69464,0 -1.71133,0 -2.65182,0c-0.86215,0 -1.6955,0 -2.67398,0c-0.82019,0 -1.65829,-0.03622 -2.67418,0.00449c-0.69611,0.02789 -1.6497,0.54108 -2.44766,0.87418c-0.67818,0.28311 -1.66768,0.40533 -2.39967,0.62134c-0.73199,0.216 -1.83978,0.44101 -2.82133,0.50034c-0.85478,0.05167 -1.66978,0.43124 -2.15784,0.99966c-0.63782,0.74286 -1.40616,0.99866 -2.34616,1c-1.008,0.00143 -1.76401,0 -2.71634,0c-0.79166,0 -1.71472,-0.04599 -2.45299,0.05716c-1.05164,0.14694 -1.79027,0.67926 -2.77335,0.85751c-0.72304,0.1311 -1.46399,0.08466 -2.58133,0.08533c-0.98399,0.00058 -1.65601,0 -2.64532,0c-0.86267,0 -1.81067,0 -2.77335,0c-0.73199,0 -1.46399,0 -2.58133,0c-0.98399,0 -1.65601,0 -2.64532,0c-0.8625,0 -1.75351,0 -2.66251,0c-0.74733,0 -1.74283,0 -2.54283,0c-0.99983,0 -1.77917,0 -2.77884,0c-0.83099,0 -1.791,-0.03439 -2.52116,0.02084c-1.17239,0.08865 -1.80864,0.52142 -2.83333,0.8125c-0.65923,0.18726 -1.45197,0.16132 -2.5,0.16666c-0.91998,0.0047 -1.68001,0 -2.66667,0c-0.98534,0 -1.71066,0 -2.7,0c-0.8,0 -1.8,0 -2.60001,0c-0.8,0 -1.8,0 -2.59999,0c-1,0 -1.8,0 -2.8,0c-0.8,0 -1.8,0 -2.58934,0c-1.04399,0 -1.87199,0 -2.75333,0c-0.70801,0 -1.69487,-0.09448 -2.65201,0.009c-0.78546,0.08493 -1.56937,0.56833 -2.32616,0.991c-0.79109,0.44183 -1.79079,0.85248 -2.47917,0.97916c-0.68037,0.12521 -1.68362,0.30133 -2.47917,0.52084c-1.18896,0.32809 -1.85901,0.48199 -2.84216,0.5c-0.8532,0.01563 -1.80225,-0.05109 -2.48849,0.05716c-0.97264,0.15341 -1.67647,0.49521 -2.85684,0.77618c-0.67616,0.16095 -1.66666,0.16666 -2.34315,0.16666c-0.77551,0 -2.06868,0 -2.75418,0c-0.83466,0 -1.87263,-0.15192 -2.57883,0.11432c-1.00748,0.37982 -1.18863,1.44006 -2.06783,1.81369c-0.84074,0.3573 -1.76401,0.07199 -2.70401,0.07199c-0.88533,0 -1.6425,0 -2.53799,0c-0.86334,0 -1.84911,-0.03061 -2.65184,0.35266c-0.89079,0.42529 -1.6953,0.6369 -2.52882,0.64734c-0.86211,0.01077 -1.81816,-0.01184 -2.65067,0.284c-0.7061,0.25092 -1.62791,0.67331 -2.61618,0.716c-0.78442,0.03391 -1.72516,0 -2.41583,0c-1.07333,0 -2.00482,0 -2.80533,0c-0.85333,0 -2.03949,-0.27231 -2.55733,0.44266c-0.42336,0.5845 -0.64143,1.5365 -1.532,1.55734c-0.91043,0.0213 -1.76401,0 -2.70401,0c-0.88533,0 -1.64357,-0.03955 -2.53799,0.00449c-0.86607,0.04263 -1.62462,0.61569 -2.54867,0.91019c-0.92334,0.29428 -1.79964,0.04507 -2.632,0.08533c-0.88309,0.04272 -1.3803,0.93787 -2.05333,0.99866c-0.93486,0.08444 -1.94667,0.00134 -2.80884,0.00134c-0.82533,0 -1.7885,0 -2.65183,0c-0.8955,0 -1.854,0 -2.53799,0c-0.94,0 -1.94801,0 -2.81017,0c-0.82533,0 -1.7885,0 -2.65183,0c-0.8955,0 -1.854,0 -2.53799,0c-0.94,0 -1.94801,0 -2.81017,0c-0.82533,0 -1.78983,0 -2.51517,0c-0.98933,0 -1.78935,0.00677 -2.78933,0c-0.78938,-0.00534 -1.82499,-0.18253 -2.58933,-0.57468c-0.81281,-0.41702 -1.73074,-0.64975 -2.41067,-0.92532c-0.83181,-0.33713 -1.73917,-0.56824 -2.3045,-1.20532c-0.49323,-0.55585 -1.3868,-1.08926 -2.04284,-1.40002c-0.97414,-0.46146 -1.26621,-1.29205 -2.06333,-1.84399c-0.69713,-0.4827 -1.42184,-0.90448 -1.93667,-1.4025c-0.77699,-0.75162 -1.3903,-1.43817 -1.67799,-2.28415c-0.28571,-0.84012 -0.53106,-1.62405 -1.29601,-2.3425c-0.61473,-0.57736 -1.57115,-0.95569 -2.15783,-1.54236c-0.58666,-0.58667 -0.76392,-1.47916 -1.6875,-2.14581c-0.58118,-0.41949 -1.70862,-0.62689 -2.19733,-1.18402c-0.47867,-0.54568 -1.32987,-1.17358 -1.95734,-1.81348c-0.56078,-0.57187 -1.01418,-1.34384 -1.65717,-2.19318c-0.49172,-0.64954 -1.04449,-1.46637 -1.317,-2.14801c-0.29362,-0.73444 -0.48105,-1.67615 -0.72533,-2.49466c-0.25453,-0.85284 -0.69449,-1.51114 -1.1645,-2.32132c-0.33595,-0.5791 -0.93381,-1.77411 -1.17867,-2.35736c-0.33769,-0.80441 -0.8964,-1.8208 -1.2,-2.47198c-0.3997,-0.85727 -0.32661,-1.61307 -0.52,-2.58133c-0.19454,-0.97403 -0.81306,-1.55011 -1.56866,-2.077c-0.70464,-0.49133 -1.36926,-1.21225 -1.70067,-1.94168c-0.32956,-0.72534 -0.51616,-1.79044 -0.69933,-2.4975c-0.24006,-0.92664 -0.63809,-1.64557 -0.86467,-2.65182c-0.17856,-0.79303 -0.51345,-1.80826 -0.93333,-2.39999c-0.43195,-0.60873 -1.03139,-1.59268 -1.10767,-2.22086c-0.1382,-1.13821 -0.04167,-1.93631 -0.04167,-2.78983c0,-0.59067 0.02484,-1.78763 -0.02083,-2.64767c-0.04103,-0.77261 -0.42088,-1.70044 -0.69517,-2.50964c-0.34229,-1.00983 -0.27867,-1.81732 -0.284,-2.86536c-0.00359,-0.70499 0.10785,-1.51175 -0.01067,-2.54132c-0.11093,-0.96362 -0.56002,-1.62491 -0.82267,-2.62534c-0.20943,-0.79776 -0.20872,-1.48331 -0.60933,-2.42117c-0.35048,-0.82053 -0.852,-1.569 -1.31433,-2.436l-0.22167,-0.75748" id="svg_1" stroke-width="2" stroke="#000" fill="none"/>
  <path t="15234,15440,15441,15455,15475,15492,15492,15509,15526,15526,15556,15556,15590,15605,15641,15642,15656,15656,15673,15691,15691,15708,15725,15725,15742,15742,15759,15759,15773,15774,15774,15791,15807,15807,15807,15823,15823,15824,15840,15857,15858,15858,15874,15874,15874,15891,15891,15891,15907,15907,15922,15923,15941,15941,15957,15957,15957,15974,15974,15991,15991,16008,16008,16025,16025,16025,16042,16042,16042,16059,16059,16059,16074,16074,16074,16090,16090,16090,16106,16106,16106,16122,16122,16122,16141,16142,16157,16157,16157,16175,16175,16175,16175,16192,16212,16212,16212,16229,16229,16246,16262,16277,16277,16277,16306,16306,16323,16324,16324,16356,16373,16373,16406,16406,16406,16422,16423,16423,16440,16458,16458,16476,16476,16493,16493,16493,16510,16511,16527,16543,16543,16543,16559,16559,16559,16575,16575,16605,16618,16648,16648,16648,16649,16678,16678,16678,16680,16707,16707,16709,16709,16724,16724,16740,16740,16757,16757,16772,16773,16791,16792,16808,16808,16808,16826,16827,16844,16845,16862,16862,16880,16897,16913,16913,16913,16928,16928,16945,16945,16973,16973,16989,16989,17007,17008,17039,17073,17073,17106,17122,17156,17156" d="m164,278c-1.82533,2.892 -2.51601,2.99799 -3.58934,3c-0.82132,0.00153 -1.73199,-0.00061 -2.58533,0c-0.94,0.00067 -1.78966,0.22852 -2.46133,0.57468c-0.8121,0.41852 -1.71133,0.42307 -2.728,0.42532c-0.83734,0.00186 -1.80267,0 -2.636,0c-0.9785,0 -1.6955,0 -2.636,0c-0.84799,0 -1.71133,0 -2.728,0c-0.83867,0 -1.60667,0 -2.64134,0c-0.74399,0 -1.85738,0.06302 -2.64532,-0.03601c-0.90395,-0.11359 -1.59575,-0.40411 -2.34399,-0.61133c-1.18474,-0.32809 -1.99913,-0.69101 -2.42667,-1.21399c-0.54156,-0.66245 -1.32954,-1.29099 -2.07867,-1.59702c-0.71758,-0.29315 -1.85893,-0.47238 -2.83333,-0.70831c-0.68008,-0.16467 -1.48122,-0.37891 -2.33334,-1c-0.57993,-0.4227 -1.07365,-1.26572 -1.876,-1.81168c-0.66238,-0.45071 -1.44327,-0.69492 -2.48801,-0.93765c-0.84588,-0.19653 -1.67273,-0.36829 -2.31667,-0.84567c-0.84813,-0.62878 -1.24339,-1.49374 -1.986,-2.07169c-0.62103,-0.48331 -1.44305,-0.70023 -2.33333,-1.16666c-0.81969,-0.42944 -1.57209,-0.83273 -2.21867,-1.16934c-0.8335,-0.43393 -1.46552,-1.2334 -2.31483,-1.58783c-0.78458,-0.32742 -1.49345,-0.28827 -2.48517,-0.52817c-0.84372,-0.2041 -1.7188,-0.50772 -2.61433,-0.81482c-0.88182,-0.3024 -1.52341,-0.39932 -2.55766,-1.22116c-0.55145,-0.4382 -0.87051,-1.13522 -1.912,-1.79202c-0.46302,-0.29199 -1.27187,-0.57608 -2.30933,-0.76532c-0.91421,-0.16675 -1.61794,-0.15094 -2.604,-0.40799c-0.80928,-0.21097 -1.61155,-0.5231 -2.34933,-1.19736c-0.68444,-0.62552 -1.27039,-1.40662 -1.98234,-1.75433c-0.77841,-0.38019 -1.98412,-0.60703 -2.583,-0.67764c-0.85914,-0.10132 -1.7562,0.09302 -2.73067,-0.53067c-0.82952,-0.53091 -0.97512,-1.46848 -1.55733,-1.98401c-0.66788,-0.59142 -1.65023,-0.3956 -2.59383,-0.59016c-0.87122,-0.17963 -1.68319,-0.83473 -2.35683,-0.95384c-0.7613,-0.1346 -1.79548,-0.32942 -2.564,-0.787c-0.8387,-0.49936 -1.33846,-1.11848 -2.11466,-1.66899c-0.80281,-0.56938 -1.688,-0.56934 -2.456,-0.56934c-1.04367,0 -1.85067,0 -2.432,0c-1.19467,0 -2.05567,0 -2.82667,0c-1.09867,0 -1.97334,0 -2.74133,0c-1.03917,0 -1.81467,0 -2.86267,0c-0.7095,0 -1.56217,0 -2.56533,0c-0.76534,0 -1.98923,-0.15977 -2.60133,0.5c-0.43503,0.46892 -0.53225,1.32932 -1.16667,2.16667c-0.56375,0.74408 -1.39198,1.15285 -1.7235,1.98599c-0.32703,0.82185 -0.65502,1.65181 -1.02583,2.54866c-0.38108,0.92166 -0.55914,1.6051 -0.8,2.31467c-0.3339,0.98361 -0.284,2.02667 -0.284,2.73468c0,0.74399 0,1.935 0,2.74933c0,0.88535 0,1.836 0,2.60132c0,0.99869 0,1.79868 0,2.79736c0,0.76532 0,1.71866 0,2.57065c0,0.79868 0,1.78 0,2.69733c0,0.83334 0,1.87601 0,2.58401c0,0.74399 0,1.944 0,2.71732c0,0.80002 0,1.78134 0,2.69867c0,0.91202 0,1.73334 0,2.64233c0,1.02435 0,1.69635 0,2.44034c0,1.10785 0,1.99884 0,2.90784c0,0.74734 0,1.74283 0,2.54285c0,0.99982 0,1.77914 0,2.77847c0,0.82019 0,1.77869 0,2.67419c0,0.86331 0,1.82648 0,2.65182l0,1.01682l0,0.67868" id="svg_2" stroke-width="2" stroke="#000" fill="none"/>
  <path t="19276,19439,19440,19440,19440,19440,19440,19473,19473,19473,19473,19473,19473,19473,19473,19475,19475,19475,19475,19475,19475,19475,19475,19499,19499,19499,19499,19499,19499,19499,19499,19500,19523,19523,19523,19523,19524,19524,19524,19524,19542,19542,19542,19542,19543,19543,19543,19562,19562,19562,19562,19562,19562,19581,19581,19581,19581,19622,19623,19623,19623,19640,19660,19660,19660,19660,19660,19660,19660,19700,19701,19701,19701,19701,19701,19701,19701,19703,19703,19703,19703,19703,19703,19704,19723,19724,19724,19724,19724,19724,19724,19724,19724,19726,19726,19726,19726,19726,19726,19726,19726,19726,19745,19746,19746,19746,19746,19746,19746,19746,19746,19763,19763,19763,19763,19764,19764,19764,19764,19764,19782,19782,19782,19782,19782,19782,19806,19806,19807,19872,19873,19890,19890,19911,19911,19911,19911,19911,19911,19931,19931,19932,19932,19932,19952,19952,19953,19953,19953,19956,19956,19956,19956,19957,19957,19976,19976,19976,19976,19977,19977,19996,19996,19996,19996,19996,19996,20014,20014,20015,20015,20032,20033,20033,20033,20052,20052,20052,20072,20072,20072,20072,20074,20074,20074,20108,20109,20126,20126,20126,20144,20144,20163,20163,20181,20181,20199,20199,20221,20221,20239,20242" d="m59,285c2.636,3.30734 2.84653,4.38074 2.924,4.96933c0.08073,0.6134 0.11773,1.25311 0.328,2.552c0.21338,1.31808 0.40219,1.96039 0.60133,2.59467c0.19923,0.63455 0.66783,1.88388 0.90667,2.50934c0.2395,0.6272 0.50085,1.24969 0.90667,2.54132c0.20447,0.65079 0.52831,1.99396 0.672,2.68002c0.14536,0.69397 0.27641,1.3999 0.4095,2.11499c0.13492,0.72491 0.41454,2.20581 0.57349,2.95966c0.161,0.76352 0.33553,1.53244 0.525,2.30402c0.19051,0.77579 0.39484,1.55078 0.61501,2.32199c0.21986,0.77017 0.70029,2.28763 0.9595,3.03101c0.25685,0.73663 0.52651,1.46017 0.7935,2.17499c0.52305,1.40036 0.78336,2.08228 1.016,2.76001c0.45132,1.31485 0.63191,1.96341 0.80133,2.59866c0.32751,1.22803 0.46103,1.82736 0.61867,2.40533c0.30394,1.11441 0.65614,2.16174 1.11733,3.112c0.22459,0.46274 0.7351,1.32718 1.22667,2.16165c0.23885,0.40546 0.87971,1.60187 1.1955,2.40451c0.3058,0.77725 0.51964,1.56284 0.97649,2.63785c0.29186,0.68677 0.49782,1.40869 1.1235,2.03348c0.56028,0.55948 0.70983,-0.86682 0.70983,-1.29581c0,-1.01401 0,-1.58701 0,-2.19601c0,-1.302 0.00034,-1.983 0,-3.375c-0.00017,-0.69983 0.00239,-1.39874 -0.009,-2.09549c-0.02262,-1.38388 -0.05575,-2.069 -0.10533,-2.74734c-0.04916,-0.67239 -0.18866,-1.99655 -0.459,-3.27451c-0.13493,-0.63788 -0.31166,-1.27057 -0.51,-1.9035c-0.20156,-0.64322 -0.40944,-1.30151 -1.25,-3.3125c-0.29855,-0.71426 -0.634,-1.43762 -0.972,-2.181c-0.34464,-0.75797 -0.69781,-1.52591 -1.044,-2.30698c-0.3485,-0.78629 -0.7066,-1.57205 -1.31733,-3.17868c-0.30242,-0.79556 -0.56901,-1.59839 -0.8235,-2.39999c-0.25349,-0.79846 -0.48993,-1.59973 -0.7245,-2.39999c-0.23443,-0.79974 -0.45656,-1.60352 -0.952,-3.20001c-0.24877,-0.80164 -0.51509,-1.59897 -0.7815,-2.39551c-0.2656,-0.79413 -0.53374,-1.58273 -0.7905,-2.3685c-0.25421,-0.77795 -0.51399,-1.54453 -0.92799,-3.06934c-0.20141,-0.74182 -0.36746,-1.47684 -0.528,-2.19598c-0.15675,-0.70221 -0.30093,-1.38834 -0.456,-2.052c-0.15041,-0.64368 -0.27872,-1.27423 -0.68267,-2.41867c-0.19126,-0.54187 -0.6618,-1.52521 -0.91733,-1.97067c-0.47978,-0.83646 -1.00127,-1.5416 -1.60633,-2.48633c-0.48727,-0.7608 -0.8154,-1.44366 -1.24284,-2.24216c-0.44503,-0.83136 -0.86347,-0.60703 -0.8895,0.12448c-0.05008,1.40717 -0.02154,1.81769 -0.00167,2.68451c0.02089,0.91135 0.08746,1.84451 0.16167,2.3075c0.21973,1.37079 0.52959,2.23557 0.871,3.08267c0.1726,0.42825 0.56907,1.28043 1.15833,2.62134c0.20279,0.46146 0.59982,1.40405 0.8,1.87866c0.39964,0.94748 0.99914,2.33374 1.19984,2.77884c0.39397,0.87375 0.78568,1.73938 0.96416,2.1825c0.36368,0.90286 0.68105,1.86887 0.95333,2.90668c0.14056,0.53577 0.39616,1.63391 0.544,2.18134c0.29347,1.08667 0.63922,2.13293 1.10934,3.07733c0.22803,0.4581 0.75997,1.29813 1.05067,1.67999c0.56052,0.73633 1.46989,1.66025 2.07417,2.1835c0.57561,0.49844 1.19436,0.91025 2.183,1.931c0.48866,0.50452 0.86474,1.08911 1.52016,1.80948c0.76394,0.83963 1.44584,1.26495 2.172,1.73734c0.87529,0.5694 1.53372,1.0325 2.2085,1.53201c0.66186,0.48993 1.54527,1.13864 2.14934,1.69016c0.58278,0.53207 1.0106,1.34161 1.5435,1.9845c0.59569,0.7186 1.31648,1.10693 2.07734,1.37869c1.08733,0.38837 2.02174,0.43677 2.73466,0.73331c0.71913,0.29913 1.48686,1.04041 1.99516,1.6925c0.61189,0.785 1.40617,1.01819 2.34617,1.02084l0.69067,0l1.07333,0l0.9315,0.02084" id="svg_3" stroke-width="20" stroke="#fff" fill="none"/>
  <path t="23883,24214,24214,24254,24254,24255,24255,24292,24293,24294,24294,24294,24296,24296,24296,24315,24315,24333,24333,24333,24351,24369,24369,24386,24386,24386,24417,24418,24419,24419,24419,24420,24480,24481,24483,24483,24483,24515,24515,24515,24533,24533,24533,24533,24533,24558,24558,24577,24577,24583,24604,24622,24622,24642,24642,24661,24679,24682,24712,24730,24750,24751,24778,24778,24798,24828,24828,24846,24846,24846,24867,24867,24889,24889,24910,24912,24912,24931,24932,24932,24951,24969,24969,24970,24987,24987,24987,24988,25008,25008,25008,25026,25026,25026,25045,25045,25063,25063,25063,25083,25083,25083,25101,25101,25102,25121,25121,25121,25139,25139,25139,25160,25161,25179,25179,25181,25181,25181,25182,25182,25182,25200,25220,25220,25244,25244,25245,25265,25265,25265,25284,25304,25304,25323,25323,25343,25343,25343,25364,25383,25402,25402,25421,25421,25442,25461,25461,25463,25511,25511" d="m55,262c-4.57333,6.68799 -4.94781,7.37012 -5,8.20267c-0.04805,0.76651 0,1.80267 0,2.54666c0,1.108 0,1.90134 0,2.79367c0,0.729 0,1.56601 0,2.75665c0,0.87903 0,1.686 0,2.55768c0,0.79333 0,1.91068 0,2.64267c0,0.73199 0,1.83865 0,2.82166c0,0.72 0.01331,1.84518 -0.0045,2.62653c-0.01803,0.79092 -0.0727,1.76483 -0.53717,2.55182c-0.52945,0.89709 -0.95697,1.25742 -1.4375,2c-0.46725,0.72205 -0.96119,1.68872 -1.01817,2.46799c-0.07629,1.04358 -0.00267,1.85333 -0.00267,2.43469c0,1.19998 0,2.13898 0,2.81165c0,1.11902 0,1.95102 0,2.815c0,0.84799 0,1.63202 0,2.83066c0,0.73334 0,1.62402 0,2.48734c0,1.01669 0,1.854 0,2.81934c0,0.83334 0,1.81183 0,2.52884c0,0.94049 0,1.78851 0,2.65182c0,1.01669 0,1.854 0,2.81934c0,0.83334 0,1.81183 0,2.52884c0,0.94049 -0.12036,1.81329 0.11433,2.70901c0.21814,0.83255 0.76546,1.38068 1.403,2.1955c0.6141,0.78485 1.01852,1.34998 1.36133,2.37848c0.26735,0.80212 0.62329,1.59006 1.44267,1.90051c0.82368,0.31207 1.68832,0.76645 2.04266,1.397c0.36446,0.64853 0.94071,1.5705 1.96933,1.89066c0.66932,0.20834 1.51755,0.39249 2.33334,1.16669c0.61733,0.58585 0.71603,1.24585 1.30133,1.81332c0.89841,0.87106 1.85491,0.84631 2.43467,0.93466c1.19835,0.18262 2.08145,0.40659 2.583,0.68033c1.11442,0.60822 1.35942,1.38507 2.181,1.905c0.78513,0.49686 1.52824,0.37897 2.51867,0.61868c0.8437,0.20422 1.7188,0.50772 2.61433,0.81482c0.88182,0.3024 1.50014,0.4252 2.367,1.0665c0.75668,0.55981 1.25191,1.38467 2.10267,1.66269c0.72478,0.23685 1.54823,0.15024 2.54533,0.172c0.87514,0.0191 1.88348,0.22537 2.68533,0.49866c0.99774,0.34006 1.81013,0.47824 2.45717,0.49551c0.96366,0.02573 1.7575,0.00449 2.7735,0.00449c0.9595,0 1.936,0 2.76933,0c0.83334,0 1.6955,0 2.54166,0c1.001,0 1.709,0 2.69034,0c0.95817,0 1.93466,0 2.768,0c0.83334,0 1.66133,0 2.54266,0c0.95734,0 1.68934,-0.00085 2.78534,0c0.87333,0.00067 1.84002,0.16324 2.49733,0.42532c1.01012,0.40277 1.76395,0.56934 2.58533,0.57468c0.91064,0.00592 1.764,0 2.704,0l0.9855,0l0.78516,0" id="svg_4" stroke-width="2" stroke="#000" fill="none"/>
  <path t="27457,27527,27528,27528,27528,27545,27545,27545,27545,27545,27545,27566,27567,27567,27567,27567,27567,27567,27567,27587,27587,27587,27587,27587,27587,27608,27609,27609,27609,27609,27609,27609,27609,27630,27630,27630,27630,27630,27630,27630,27650,27650,27650,27650,27650,27650,27651,27670,27670,27670,27670,27670,27670,27670,27670,27699,27699,27699,27699,27699,27699,27699,27700,27719,27719,27719,27719,27719,27719,27720,27721,27721,27721,27721,27721,27721,27721,27722,27722,27723,27723,27723,27723,27744,27744,27744,27744,27744,27746,27746,27747,27747,27766,27767,27767,27799,27800,27801,27801,27837,27869,27869,27944,27944,28127,28260,28477,28511,28546,28546,28547,28570,28570,28595,28595,28617,28640,28640,28640,28662,28662,28664,28664,28686,28686,28686,28686,28709,28709,28709,28728,28729,28729,28748,28748,28749,28749,28768,28768,28768,28788,28788,28808,28809,28809,28828,28828,28828,28829,28830,28830,28831,28831,28831,28850,28851,28851,28870,28871,28889,28889,28890,28910,28910,28910,28910,28912,28912,28912,28912,28932,28932,28932,28932,28952,28952,28953,28953,28953,28973,28973,28973,28973,28993,28993,28994,28995,28995,28995,28996,28996,29015,29015,29015,29015,29036,29036,29036,29056,29056,29056,29076,29076,29077,29078,29079,29079,29098,29099,29118,29118,29118,29149,29149,29151,29151,29172,29173,29193,29193,29193,29195,29228,29510,29511,29530,29531,29553,29576,29576,29600,29601,29601,29601,29625,29625,29625,29645,29645,29665,29665" d="m120,304c-3.95766,3.29984 -4.48833,3.91003 -5.04166,4.47916c-0.5628,0.57886 -1.61202,1.37839 -2.49834,1.83817c-0.47754,0.24771 -1.52316,0.70206 -2.06667,0.944c-0.55484,0.24701 -2.23148,1.06369 -2.77184,1.3815c-0.54111,0.31824 -1.07115,0.6572 -2.10066,1.37802c-0.51362,0.35962 -1.01396,0.73428 -1.5195,1.0965c-1.49471,1.07095 -2.0003,1.40314 -2.51034,1.72549c-1.02534,0.64804 -1.55853,0.95456 -2.10533,1.25266c-1.70546,0.92981 -2.32686,1.20746 -2.95367,1.50317c-0.63585,0.29999 -1.28175,0.59274 -1.932,0.88049c-0.64841,0.28693 -1.93098,0.83795 -3.16666,1.35419c-0.59001,0.24649 -1.16458,0.48126 -2.272,0.94131c-0.54078,0.22467 -1.07906,0.4436 -2.144,0.90933c-1.08718,0.47546 -1.64315,0.72839 -2.77,1.27768c-0.57499,0.28027 -1.15089,0.57336 -1.722,0.88501c-1.14864,0.62677 -2.26156,1.31558 -2.80416,1.67465c-0.54143,0.35831 -1.60569,1.10516 -2.14201,1.47867c-0.53968,0.37585 -1.08347,0.75586 -1.6485,1.116c-1.153,0.73489 -2.39702,1.4032 -3.036,1.73132c-0.64369,0.33057 -1.29547,0.65109 -1.944,0.97803c-0.64614,0.32574 -1.29884,0.63022 -2.51733,1.34131c-1.1803,0.68881 -1.72429,1.08032 -2.272,1.448c-0.54128,0.36334 -1.06091,0.74786 -2.144,1.41602c-1.06963,0.65985 -1.63105,0.94254 -2.7655,1.4595c-0.56291,0.25653 -1.13333,0.48349 -2.242,0.95801c-0.54165,0.23181 -1.58855,0.69675 -2.53783,1.23715c-0.45924,0.26144 -1.31924,0.82245 -2.10583,1.41916c-0.38301,0.29056 -1.4454,1.1947 -2.1135,1.79102c-0.65322,0.58304 -0.96139,0.88901 -1.63667,1.41916c-1.01304,0.79532 -1.76072,1.22647 -2.47433,1.66449c-0.67567,0.41473 -1.58195,0.98074 -2.17467,1.61633c-0.65821,0.70584 -1.16957,1.40948 -1.867,1.88367c-0.81267,0.55252 -1.5249,1.2464 -2.3045,1.46368c-0.9809,0.27341 -2.03157,-0.06784 -2.52617,0.62515c-0.44065,0.61743 -0.64688,1.52875 -1.25333,2.14801c-0.32876,0.33569 0.49467,0.284 1.40533,0.284c0.85333,0 1.79333,0 2.67867,0c0.75717,0 1.67544,0.12759 2.516,-0.08533c0.89355,-0.22635 1.4361,-1.11514 1.90533,-1.72934c0.50106,-0.65585 1.5839,-1.07611 2.328,-1.20001c0.91721,-0.15274 1.72747,-0.54898 2.584,-0.98532c0.6647,-0.33862 1.49559,-0.61899 2.06934,-0.88535c1.2131,-0.5632 1.7877,-0.93829 2.36133,-1.28931c1.07128,-0.65552 1.77307,-1.08905 2.46133,-1.41467c0.92836,-0.43924 1.73673,-0.70282 2.58533,-1.04666c0.59422,-0.24075 1.50076,-0.66537 2.368,-1.18936c0.55718,-0.33664 1.48445,-1.01251 2.16,-1.53867c0.82371,-0.64154 1.51122,-1.04102 2.123,-1.39316c0.96466,-0.55527 1.4954,-0.88226 2.277,-1.41748c0.93896,-0.64297 1.41447,-1.13104 2.22933,-1.62402c0.76833,-0.46484 1.57945,-0.70871 2.141,-0.9585c1.20377,-0.53546 1.77769,-0.89841 2.619,-1.3815c0.93395,-0.53629 1.62851,-0.771 2.60534,-1.02798c0.6821,-0.17944 1.51379,-0.42569 2.5,-1.16669c0.51929,-0.39017 0.91331,-0.94385 1.61933,-1.66132c0.68772,-0.69885 1.4967,-1.21887 2.089,-1.46368c0.92783,-0.38351 1.98036,-0.63992 2.7155,-0.84616c0.76422,-0.21439 1.55756,-0.42395 2.74284,-0.86215c0.80608,-0.298 1.19719,-0.48224 1.97916,-0.83334c0.76534,-0.34363 1.84958,-0.84479 2.85917,-1.24283c0.61728,-0.24335 1.48898,-0.52271 2.479,-0.95984c0.71438,-0.31543 1.20547,-0.59186 2.32549,-1.34c0.67503,-0.4509 1.3759,-0.96045 1.7425,-1.20667c0.72787,-0.48886 1.78616,-1.12222 2.4575,-1.44083c0.93715,-0.44476 1.57423,-0.6571 2.75583,-1.29385c0.60056,-0.32364 1.15601,-0.70602 2.23467,-1.34933c0.70356,-0.41962 1.35845,-0.75116 2.36666,-1.26682c0.60149,-0.30765 1.42076,-0.75839 2.2,-1.38385c0.61715,-0.49536 1.16915,-1.07559 2,-1.63065c0.77349,-0.51675 1.58746,-0.91223 2.4,-1.27469c0.7887,-0.35181 1.64412,-0.37289 2.54283,-0.72049c0.83778,-0.32404 1.16618,-1.13345 1.7575,-1.8685c0.50823,-0.63177 1.44195,-0.90204 2.37883,-1.02167c0.66735,-0.08524 1.56339,-0.64908 2.2825,-1.10983c0.71989,-0.46124 1.62353,-0.93427 1.995,-1.8685c0.27281,-0.6861 -0.77788,-0.98743 -1.73567,-1.02182c-0.71877,-0.02582 -1.78519,-0.2218 -2.38799,-0.35251c-1.02878,-0.22305 -1.74764,-0.39221 -2.81117,-0.52585c-0.65367,-0.08212 -1.53916,-0.11081 -2.67883,-0.12183l-0.834,-0.11398l-0.6045,-0.59552l-0.34733,-0.642" id="svg_5" stroke-width="2" stroke="#000" fill="none"/>
  <path t="32521,32709,32710,32710,32710,32710,32710,32727,32727,32727,32727,32727,32746,32746,32746,32746,32746,32747,32747,32764,32764,32764,32764,32780,32780,32780,32796,32796,32796,32796,32812" d="m390,316c3.08533,2.64267 3.53448,2.97012 4.50134,3.65067c0.49789,0.35043 1.00247,0.69144 1.96265,1.38135c0.87411,0.62808 1.59647,1.2049 2.24533,1.70667c0.62338,0.48206 1.29501,0.97437 2.59735,1.68283c0.50699,0.27582 1.05737,0.53424 1.62,0.81448c1.1481,0.57184 1.72012,0.85065 2.25333,1.16534c1.44168,0.85086 2.14258,1.48096 2.73666,2.03616c0.52145,0.48734 1.22058,1.14349 2.0405,1.39551c0.83206,0.25577 2.04285,0.33365 2.63885,0.45233l0.84149,0.2355l0.70651,0.28049l0.85999,0.76266" id="svg_6" stroke-width="2" stroke="#000" fill="none"/>
  <path t="34187,34393,34393,34393,34409,34409,34410,34410,34410,34426,34426,34426,34426,34443,34444,34444,34444,34444,34460,34460,34460,34460,34478,34478,34478,34478,34478,34497,34497,34497,34514,34514,34643,34658,34658,34678,34693,34693,34710,34710,34727,34727,34744,34744,34760,34760,34777,34777,34794,34794,34809,34809,34827,34828,34843,34861,34861,34861,34878,34878,34879,34896,34896,34896,34913,34913,34930,34931,34931,34947,34947,34947,34963,34978,34978,34994,35009,35009,35027,35028,35044,35044,35044,35061,35061,35061,35079,35079,35080,35080,35080,35097,35097,35097,35097,35114,35114,35114,35114,35131,35132,35132,35132,35148,35148,35148,35148,35164,35164,35164,35164,35179,35179,35195,35195,35195,35195,35210,35211,35211,35211,35226,35226,35243,35243,35244,35261,35262,35262,35278,35278,35295,35295,35311,35311,35311,35327,35327,35343,35343,35369,35369,35386,35386,35386,35386,35400,35401,35401,35401,35418,35418,35418,35418,35434,35434,35450,35450,35450,35466,35466,35467,35483,35483,35500,35516,35516,35516,35532,35532,35547,35563,35563,35579,35579,35595,35595,35611,35644,35693,35693,35743,35743,35743,35809,35809,35825,35826,35875,35959,36025,36026" d="m429,299c0,2.056 0,3.0625 0,3.81351c0,1.18649 0,1.98648 0,2.7865c0,0.79999 0,1.60001 0,2.79999c0,0.80002 0,1.60001 0,2.39999c0,1.20001 0,2 0,2.80002c0,0.79999 0,1.60001 0,2.79999c0,0.80002 0,1.60001 0,2.39999c0,1.20001 0,1.99869 0,2.78934c0,0.77469 0,1.52533 0,2.58884c0,0.96451 0,1.80301 0,2.85251c0,0.7175 0.4361,1.79913 -0.16666,2.63599c-0.41824,0.58072 -1.62909,0.27548 -2.31735,-0.23599c-0.55032,-0.40897 -1.3035,-1.31537 -1.88,-1.784c-0.78308,-0.63657 -1.60666,-0.646 -2.64133,-0.64667c-0.74399,-0.00049 -1.66132,0 -2.60931,0c-0.87067,0 -1.59601,0 -2.58536,0c-0.79999,0 -1.79999,0 -2.77914,0c-0.85419,0 -1.77344,-0.03302 -2.43152,0.44666c-0.84366,0.61493 -1.30682,1.15613 -1.87949,1.95786c-0.53622,0.75073 -0.67377,1.6189 -0.79251,2.28082c-0.17972,1.00174 -0.3949,1.81143 -0.71866,2.54532c-0.43723,0.99115 -0.97842,1.72388 -1.11334,2.54001c-0.12619,0.76334 -0.08466,1.63202 -0.08533,2.82666c-0.00049,0.86102 0,1.63202 0,2.58835c0,1.01566 0,1.69968 0,2.63968c0,1.008 -0.05026,1.94193 0.45734,2.58533c0.43365,0.54965 1.31378,1.07217 2.06351,1.61017c0.53223,0.38193 1.54962,1.18918 2.03098,1.57016c0.69769,0.55222 1.77353,1.11099 2.41885,1.23834c0.69482,0.13712 1.4505,0.15781 2.23199,0.168c1.19708,0.01563 1.99283,0.00266 3.16135,0.00266c0.75064,0 1.81467,0 2.48331,0c0.97803,0 1.63669,0 2.67419,0c1.11447,0 1.88916,0 2.67981,0c1.19852,0 1.99417,0 2.77783,0c0.76367,0 1.85431,0.01102 2.85919,-0.00449c0.62015,-0.00955 1.49072,-0.01382 2.47766,-0.28085c0.6983,-0.18893 1.85016,-0.71594 2.36932,-0.91599c0.83472,-0.32159 1.73047,-0.6554 2.61432,-1.12018c0.60181,-0.3165 1.45322,-0.85916 1.92969,-1.27982c0.84741,-0.74814 1.35355,-1.5965 1.77066,-2.39868c0.41486,-0.79782 0.72784,-1.42148 1.32117,-2.20001c0.47089,-0.61789 1.22409,-1.35251 1.50818,-2.19998c0.25867,-0.77164 0.17065,-1.80002 0.17065,-2.60001c0,-1 0,-1.79999 0,-2.60001c0,-1 0.05743,-1.80179 -0.00266,-2.79868c-0.05719,-0.94901 -0.5723,-1.71359 -1.21869,-2.26266c-0.78391,-0.66589 -1.17255,-1.11304 -1.7995,-1.83865c-0.43124,-0.49908 -1.38077,-1.39243 -1.94083,-1.68567c-0.85788,-0.44916 -1.522,-0.62207 -2.55933,-0.91415c-0.72064,-0.20291 -1.77872,-0.47742 -2.42435,-0.61484c-1.18723,-0.25266 -2.02164,-0.26569 -2.82532,-0.28799c-0.7717,-0.02142 -1.66071,-0.09036 -2.82666,-0.56534c-0.59866,-0.24387 -1.3439,-0.82251 -2.25967,-1.189c-0.8042,-0.32184 -1.68466,-0.24301 -2.68567,-0.24301c-0.70801,0 -1.452,0 -2.64749,0c-0.6925,0 -1.63739,-0.06641 -2.64319,0c-0.8678,0.05728 -1.42548,0.7446 -1.92383,1.35184c-0.66785,0.81375 -1.47495,1.14548 -2.07349,1.84683c-0.55203,0.64688 -1.25732,1.25323 -1.69019,1.82217c-0.62842,0.82602 -1.31473,1.3273 -1.99515,1.77783c-0.73834,0.48889 -1.33063,1.05768 -1.77951,1.854c-0.47125,0.836 -0.66849,1.71133 -0.7045,2.65182l0,0.86215l0,0.83334" id="svg_7" stroke-width="2" stroke="#000" fill="none"/>
  <path t="36979,37158,37159,37159,37159,37175,37175,37175,37175,37194,37194,37194,37194,37212,37212,37212,37212,37212,37230,37230,37230,37248,37248,37248,37248" d="m436,330c3.02802,-4.51599 3.34409,-5.16599 3.54266,-5.82535c0.19611,-0.65118 0.36472,-2.05991 0.45334,-2.79999c0.0899,-0.75079 0.1702,-1.52914 0.66815,-2.55334c0.34033,-0.69995 0.87326,-1.30951 1.33502,-1.974c0.69275,-0.99689 1.03821,-1.72766 1.35016,-2.46198c0.30664,-0.72177 0.51865,-1.48907 1.41867,-2.616c0.43732,-0.54755 0.98132,-0.98401 1.89865,-1.936l0.36136,-0.51602l0.40948,-0.79648l0.27451,-0.7515" id="svg_8" stroke-width="2" stroke="#000" fill="none"/>
  <path t="37476,37609,37609,37609,37609,37625,37625,37625,37643,37643,37643,37643,37643,37662,37662,37662,37662,37693,37694,37694" d="m432,322c1.48401,-2.96799 1.82535,-3.65067 2.17465,-4.34933c0.34134,-0.68268 0.76736,-1.62872 1.22134,-2.38934c0.43646,-0.73126 1.09937,-1.43292 1.65466,-1.948c0.60965,-0.56549 1.29352,-1.11368 1.81201,-1.79999c0.73697,-0.97549 0.92108,-1.75726 1.11649,-2.47168c0.27005,-0.9874 0.68484,-1.77731 1.29684,-2.34433l0.66599,-0.44098" id="svg_9" stroke-width="2" stroke="#000" fill="none"/>
  <path t="38004,38158,38159,38159,38159,38159,38175,38175,38175,38175,38175,38175,38193,38194,38194,38194,38194,38212,38212,38213,38213,38213,38213,38230,38231,38231,38248,38248" d="m437,300c3.52151,3.30017 4.25742,3.90421 5.02084,4.52084c0.38995,0.315 1.18863,0.95502 1.97916,1.64581c0.80844,0.70645 1.19702,1.08481 2,1.8125c0.3985,0.36115 1.18204,1.07483 2,1.6875c0.78342,0.58679 1.59869,1.07422 2,1.3125c0.79739,0.47342 2.00232,1.18387 2.39984,1.44202c0.80042,0.51978 1.57535,1.06396 2.34299,1.569c0.36993,0.24338 1.43518,0.867 2.38916,1.34848l0.54935,0.276l0.95435,0.70651l0.32266,0.65799" id="svg_10" stroke-width="2" stroke="#000" fill="none"/>
  <path t="39837,40092,40092,40093,40093,40109,40109,40109,40109,40109,40129,40130,40130,40130,40130,40130,40147,40147,40147,40147,40147,40147,40164,40164,40164,40164,40164,40181,40181,40181,40198,40198,40198,40474,40492,40492,40492,40508,40525,40525,40543,40543,40560,40560,40560,40578,40578,40595,40595,40612,40612,40627,40627,40642,40642,40643,40658,40658,40658,40674,40674,40693,40694,40710,40710,40710,40739,40756,40756,40775,40775,40775,40793,40793,40810,40810,40810,40810,40826,40826,40826,40826,40826,40843,40843,40843,40843,40858,40858,40858,40858,40874,40874,40874,40875,40890,40891,40891,40891,40906,40906,40906,40922,40922,40923,40923,40938,40939,40954,40955,40955,40955,40971,40971,40971,40971,40987,40988,40988,40988,40988,41004,41004,41004,41022,41022,41022,41038,41038,41039,41055,41056,41056,41072,41072,41072,41088,41089,41089,41089,41105,41105,41105,41106,41122,41122,41122,41122,41122,41138,41138,41138,41154,41155,41155,41155,41171,41171,41172,41188,41188,41188,41188,41204,41205,41221,41221,41221,41238,41238,41238,41239,41255,41255,41256,41275,41275,41292,41292,41292,41310,41310,41327" d="m453,299c0.11966,0.48584 0.55252,1.09729 1.00366,1.82251c0.23679,0.38065 0.86444,1.57324 1.1955,2.38199c0.3324,0.81204 0.64853,1.65961 0.85419,2.08084c0.664,1.35999 0.98795,1.80795 1.64398,2.73999c0.33752,0.47952 0.69531,0.9519 1.42133,1.89066c0.71143,0.91989 1.06403,1.35922 1.7197,2.22684c0.31708,0.41959 0.92703,1.23831 1.47498,2.05585c0.53183,0.79352 1.01791,1.58984 1.42935,2.39066c0.39325,0.76541 0.73224,1.5119 1.01483,2.58884c0.17026,0.64883 0.14417,1.64349 0.74249,2.48849c0.44037,0.62195 1.94125,0.63464 2.23999,1.53201c0.21432,0.6438 -1.02618,0.78198 -1.97333,0.79999c-0.95215,0.0181 -1.867,0.00034 -2.58099,0.00134c-0.95367,0.00134 -1.76974,-0.19031 -2.85233,0.33334c-0.76343,0.36929 -1.15399,1.22433 -1.98602,1.55682c-0.66153,0.26437 -1.77979,0.51642 -2.146,1.08182c-0.62332,0.96237 -0.79495,1.76917 -1.03467,2.69467c-0.21417,0.82687 -0.48068,1.67789 -0.8765,2.33868c-0.45374,0.75748 -1.15137,1.64108 -1.5285,2.18933c-0.51437,0.74771 -0.70792,1.57144 -0.75098,2.55466c-0.04016,0.9165 -0.01068,1.75067 -0.01068,2.79333c0,0.70801 0,1.452 0,2.64301c0,0.81433 0.11584,1.62805 0.85333,2.29834c0.62436,0.56747 1.142,0.86853 2.17999,1.63065c0.65097,0.47794 1.45724,0.91476 2.33817,1.18085c0.68445,0.20676 1.43701,0.38165 2.62851,0.53784c0.79599,0.10434 1.58911,0.13849 2.36401,0.15598c0.75052,0.01694 2.15332,0.01068 2.82132,0.01068c0.67599,0 1.384,0 2.55734,0c0.86267,0 1.75732,0 2.65198,0c1.272,0 2.03467,0 2.73334,0c0.96301,0 1.87201,0 2.772,0c0.89999,0 1.50006,0.01205 2.70132,-0.00134c0.91968,-0.01025 1.56009,-0.02203 2.56534,-0.16531c1.08276,-0.15433 1.79944,-0.32773 2.46634,-0.53784c1.1174,-0.35205 1.86667,-0.80203 2.53366,-1.62885c0.33926,-0.42056 0.85104,-1.19785 1.18066,-1.77567c0.66803,-1.17108 0.89722,-1.79874 1.17352,-2.41183c0.43701,-0.96973 1.01596,-2.00397 1.47998,-2.72733c0.23627,-0.36835 0.7468,-1.07019 1.14584,-1.7825c0.65512,-1.16943 0.81866,-1.94672 0.84933,-2.65201c0.04358,-1.00171 0.004,-1.83817 0.004,-2.71866c0,-1.19733 0.00015,-1.78799 0,-2.64151c-0.00018,-1.03583 0.02386,-1.97284 -0.17065,-2.64114c-0.30133,-1.03534 -0.86472,-1.84085 -1.23834,-2.4205c-0.5813,-0.90182 -0.96362,-1.51425 -1.61185,-2.35385c-0.41824,-0.54175 -1.12,-1.24939 -1.94083,-1.73633c-0.56372,-0.33441 -1.5387,-0.7493 -2.55966,-1.34784c-0.3678,-0.21561 -1.09595,-0.71045 -1.85333,-1.17084c-0.73376,-0.44601 -1.79398,-0.95914 -2.46817,-1.11966c-0.93567,-0.22278 -2.15979,-0.32095 -2.75717,-0.45099c-0.90436,-0.19687 -1.49033,-0.42096 -2.69998,-0.59451c-0.8949,-0.12839 -1.49997,-0.11615 -2.70001,-0.12149c-0.89551,-0.004 -1.76401,0 -2.31467,0c-1.23267,0 -1.91071,-0.00766 -3.10684,0.00015c-0.81454,0.00531 -1.39822,-0.02985 -2.57849,0.1665c-0.90067,0.14984 -1.52682,0.28708 -2.22934,0.80533c-0.90817,0.66995 -1.21039,1.53693 -1.56799,2.26001c-0.48236,0.97534 -0.97629,1.56104 -1.52383,2.31067c-0.50903,0.69693 -0.96899,1.452 -1.436,2.31418l-0.29099,0.77698l-0.66785,0.53552" id="svg_11" stroke-width="2" stroke="#000" fill="none"/>
  <path t="43386,43524,43524,43524,43524,43545,43545,43545,43545,43545,43545,43568,43568,43568,43568,43568,43568,43591,43591,43591,43591,43591,43591,43592,43592,43592,43592,43592,43610,43610,43610,43610,43627,43627,43627,43627,43807" d="m278,254c0.91467,2.05865 0.9725,2.7291 0.98932,3.504c0.01889,0.87051 0.00616,2.3389 0.01468,2.86533c0.01764,1.09222 0.02899,1.65475 0.16751,2.7825c0.0697,0.56754 0.2977,1.69202 0.68048,2.76285c0.19083,0.53384 0.64981,1.56369 0.87201,2.07465c0.21979,0.50543 0.8092,2.00311 1.02133,3.00934c0.10406,0.49368 0.21609,1.48022 0.25867,1.96533c0.08337,0.95016 0.1955,2.31839 0.35767,3.17883c0.15845,0.8407 0.39066,1.6557 0.52499,2.05585c0.40649,1.21094 0.76657,1.99472 1.0925,2.78049c0.31592,0.76166 0.6875,1.85419 0.85019,2.53284l0.129,0.92551l0.039,0.7905l0.01334,1.08932" id="svg_12" stroke-width="2" stroke="#000" fill="none"/>
  <path t="46744,46990,46991,46991,46991,46991,47006,47006,47006,47006,47024,47024,47024,47024,47046,47046,47046,47046,47063,47063,47063,47063,47093,47093,47093,47094,47094,47094,47094,47122,47122,47122,47147,47147,47171,47171,47195,47196,47196,47220,47220,47222,47222,47222,47223,47223,47224,47224,47224,47249,47249,47249,47249,47275,47275,47275,47275,47276,47276,47301,47301,47301,47301,47327,47327,47327,47328,47328,47328,47356,47356,47356,47384,47384,47386,47411,47412,47413,47413,47438,47438,47463,47464,47488,47488,47514,47514,47514,47515,47515,47515,47541,47541,47542,47542,47542,47567,47567,47568,47568,47594,47594,47594,47595,47596,47596,47596,47623,47623,47623,47623,47624,47624,47649,47675,47675,47675,47677,47677,47677,47677,47702,47729,47729,47730,47731,47757,47758,47759,47784,47784,47810,47812,47838,47839,47864,47864,47891,48541,48542,48573,48573,48601,48602,48632,48632,48632,48634,48634,48634,48666,48666,48666,48668,48668,48668,48699,48699,48699,48699,48701,48729,48729,48731,48731,48731,48757,48758,48784,48784,48811,48813,48813,48840,48890,48891,48940" d="m283,279c7.91382,1.75665 8.45493,1.86664 9.44534,1.90668c0.87527,0.03537 1.68427,-0.00955 2.73334,-0.34952c0.68491,-0.22195 1.63879,-0.75864 2.30533,-1.07449c1.02579,-0.48611 1.7634,-0.73975 2.51599,-0.94101c0.74261,-0.19861 1.83167,-0.39093 2.84732,-0.48898c0.65176,-0.06293 1.64114,-0.10654 2.67386,-0.27435c0.73077,-0.11874 1.47189,-0.27917 2.16898,-0.53998c1.29727,-0.48535 1.79507,-0.89795 2.52451,-1.41299c0.94568,-0.66772 1.45956,-0.96661 2.30618,-1.3045c0.86993,-0.3472 1.79248,-0.58475 2.64716,-0.93152c0.77441,-0.31421 1.38968,-0.95401 1.87201,-1.728c0.46164,-0.74078 1.22757,-0.82492 2.38116,-1.08282c0.80215,-0.17932 1.34912,-0.32242 2.43616,-0.87833c0.66443,-0.33978 1.47614,-0.73276 2.39334,-0.8855c0.74408,-0.1239 1.76636,-0.59949 2.24933,-1.01468c0.80927,-0.69571 1.51285,-0.90021 2.32132,-1.01468c1.1767,-0.16663 1.78366,-0.25677 2.69952,-0.50616c0.63904,-0.17401 1.9989,-0.58365 2.72281,-0.77466c0.7135,-0.18826 1.38715,-0.35785 2.49234,-0.58334c0.93823,-0.19144 1.76657,-0.44861 2.6265,-0.82648c0.66034,-0.29016 1.31918,-0.63849 2.30417,-0.96133c0.80673,-0.2644 1.73694,-0.33276 2.73602,-0.61734c0.64868,-0.18478 1.36014,-0.48691 2.564,-0.63068c0.67038,-0.08005 1.67099,-0.06699 2.76883,-0.08548c0.70221,-0.01184 1.51004,-0.47836 2.43115,-0.83319c0.63083,-0.24298 1.70309,-0.46512 2.19736,-1.01733c0.68997,-0.77084 1.28253,-1.13272 2.12131,-1.43332c0.7356,-0.26361 1.71561,-0.58884 2.51468,-0.716c1.00119,-0.15933 1.8237,-0.40509 2.39999,-0.76166c1.04837,-0.64865 1.55515,-1.28429 2.20001,-1.66901c0.9451,-0.56384 1.81277,-0.56645 2.60034,-0.79083c0.8588,-0.24467 1.56274,-0.60298 2.44247,-0.87834c1.01053,-0.3163 1.73901,-0.48232 2.47452,-0.61482c1.05676,-0.19038 2.05124,-0.2395 2.672,-0.34668c1.22275,-0.21112 1.81079,-0.5092 2.73151,-0.93866c0.6355,-0.29642 1.63934,-0.6983 2.3605,-0.82933c0.71762,-0.13039 1.75198,-0.14255 2.85416,-0.17084c0.83298,-0.02138 1.64139,-0.54434 2.59784,-0.83316c0.66101,-0.1996 1.49408,-0.14815 2.66666,-0.33334c0.60129,-0.09497 1.45306,-0.35312 2.22934,-0.54933c1.09195,-0.27602 2.01422,-0.16444 2.65601,-0.45467c0.85214,-0.38536 1.40179,-1.22261 2.22931,-1.66c0.83722,-0.4425 1.48132,-0.86919 2.36935,-1.084c0.84277,-0.20386 1.88306,-0.01506 2.71732,-0.08665c0.9758,-0.08374 1.59125,-0.51683 2.63202,-0.832c0.73877,-0.22372 1.6875,-0.16667 2.48798,-0.16667c0.85333,0 1.84235,0.14426 2.56268,-0.17067c0.86365,-0.37759 1.28653,-1.0675 2.31601,-1.80783c0.57898,-0.41635 1.20212,-0.71281 2.20132,-1.22284c0.62085,-0.31689 1.29941,-0.65909 2.28134,-1.284c0.80969,-0.51529 1.36957,-0.8564 2.17465,-1.71483c0.53638,-0.57191 0.91803,-1.28069 1.68518,-2.22101c0.4415,-0.54115 0.95474,-1.04234 1.39499,-1.569c0.84351,-1.00905 1.27515,-1.77193 1.82416,-2.17683c0.80191,-0.59142 1.23221,-1.35831 1.75433,-2.06633c0.59177,-0.80247 1.12875,-1.34502 1.68268,-2.25066c0.40768,-0.66655 0.46719,-1.85342 1.13467,-2.34933c0.67288,-0.49992 1.55234,-0.52834 1.66681,-1.48784l0.03586,-0.8175l0.38931,-0.79999" id="svg_14" stroke-width="2" stroke="#000" fill="none"/>
  <path t="49308,49473,49474,49474,49474,49489,49490,49490,49490,49508,49508,49508,49508,49508,49528,49528,49528,49528,49528,49528,49546,49546,49546,49547,49547,49565,49565,49565,49565,49565,49583,49583,49583,49583,49600,49600,49600,49600,49600,49616,49616,49616,49632,49632,49632,49648,49648,49648,49664,49665" d="m366,210c0.00266,2.97067 -0.00043,3.67378 0.07199,4.42134c0.07593,0.78386 0.33969,1.99011 0.64685,2.77415c0.31213,0.79675 0.70493,1.57574 1.44781,2.63783c0.49139,0.70256 0.78488,1.01889 1.35419,1.66667c0.578,0.65767 1.48254,1.66385 2.08047,2.384c0.30493,0.36723 0.9158,1.11917 1.23468,1.49066c0.64188,0.74779 1.68277,1.80641 2.04535,2.14134c0.71826,0.66347 1.43512,1.29597 1.75165,1.63666c0.90811,0.97737 1.33163,1.72272 1.68033,2.47267c0.34464,0.74124 0.59436,1.52483 1.22952,2.55333c0.42856,0.69392 0.98663,1.31441 1.50897,1.974c0.7948,1.00363 1.26538,1.7271 1.49103,2.091c0.44125,0.71161 0.76422,1.45961 1.65698,2.49217c0.53973,0.62427 1.22665,1.00082 1.77866,1.80699c0.46069,0.67279 0.7045,1.51402 1.12134,2.53568c0.28113,0.689 0.61484,1.52016 0.85202,2.517l0.15799,0.74733" id="svg_15" stroke-width="2" stroke="#000" fill="none"/>
  <path t="50018,50173,50173,50173,50173,50190,50190,50190,50190,50207,50208,50208,50208,50208,50228,50228,50228,50228,50228,50228,50246,50247,50247,50247,50247,50247,50265,50265,50265,50266,50266,50284,50285,50285,50285,50285,50304,50304,50304,50304,50319,50320,50320,50523,50523,50523,50557,50606,50606,50740" d="m368,210c2.11734,3.884 2.37012,4.63113 2.66135,5.37466c0.29279,0.74747 0.86404,1.81619 1.34399,2.46817c0.47781,0.64909 1.03302,1.22179 1.66132,2.15717c0.39362,0.58598 0.68881,1.22929 0.98401,1.908c0.32407,0.7451 0.88956,2.05739 1.11868,2.54533c0.48642,1.03595 0.7504,1.56802 1.01599,2.10666c0.52979,1.07442 1.04797,2.10669 1.52933,3.06934c0.22818,0.45633 0.66449,1.32899 0.87466,1.74933c0.40933,0.81866 1.01068,2.02133 1.41068,2.82133c0.39999,0.8 0.60001,1.2 1,2c0.60001,1.2 1,2.00002 1.39999,2.8c0.20001,0.39999 0.59872,1.20064 1.19983,2.39951c0.39481,0.78741 0.76962,1.54318 1.14301,2.22899c0.47818,0.87833 1.0614,1.65981 1.45584,2.33817c0.4502,0.77425 0.60031,1.59532 1.08667,2.18001c0.76611,0.92099 1.78131,1.02 2.112,1.65466l0.08798,0.91333" id="svg_16" stroke-width="2" stroke="#000" fill="none"/>
  <path t="53532,53629,53629,53676,53676,53676,53676,53678,53678,53678,53678,53707,53707,53708,53708,53709,53709,53709,53709,53738,53738,53738,53738,53741,53741,53741,53741,53765,53765,53766,53766,53766,53767,53767,53767,53795,53796,53796,53796,53797,53797,53797,53797,53824,53824,53824,53852,53852,53853,53854,53854,53854,53854,53883,53883,53883,53884,53884,53884,53884,53915,53915,53915,53915,53916,53916,53916,53916,53944,53945,53945,53972,53972,53973,53999,54000,54000,54000,54000,54028,54029,54029,54029,54030,54030,54030,54030,54030,54031,54031,54031,54032,54033,54033,54033,54033,54062,54062,54062,54062,54090,54090,54090,54091,54120,54120,54120,54120,54150,54151,54151,54151,54151,54152,54152,54152,54152,54154,54154,54154,54154,54156,54157,54157,54157,54188,54188,54188,54189,54189,54190,54190,54190,54221,54221,54221,54222,54223,54223,54223,54223,54253,54253,54254,54254,54256,54256,54256,54298,54299,54299,54301,54301,54301,54333,54333,54334,54335,54335,54367,54367,54402,54434,54434" d="m302,198c1.65717,2.25183 2.44708,2.76616 3.20016,3.54283c0.42999,0.44347 0.79193,1.00288 1.48517,1.77451c0.70776,0.7878 1.26819,1.23456 1.83551,1.68266c0.87494,0.69109 1.79132,1.408 2.37015,1.95717c0.5802,0.55043 1.1413,1.11372 1.77567,2.04283c0.39548,0.57921 0.79947,1.49889 1.13867,2.04283c0.67285,1.07896 1.20105,1.50844 1.71552,1.95717c0.7912,0.69009 1.5755,1.4068 2.022,1.96167c0.45502,0.56546 0.86884,1.19044 1.45715,2.205c0.41141,0.70949 0.793,1.4519 1.20001,2.172c0.39328,0.69583 1.19116,1.89906 1.59998,2.39999c0.58752,0.71988 1.21277,1.41849 1.80002,2.21851c0.409,0.55717 0.79895,1.14804 1.39999,2.04283c0.59897,0.89171 0.97577,1.47763 1.39999,1.98567c0.75833,0.90814 1.4223,1.33571 2,1.81966c0.83411,0.69873 1.39999,1.45601 1.80002,1.98001c0.80002,1.04797 1.18845,1.53992 1.79999,2.19383c0.58908,0.6299 1.39621,1.42613 1.81067,1.82083c0.6387,0.60828 1.61264,1.3974 2.13751,1.8045c0.53314,0.41353 1.34042,1.03517 1.90933,1.81699c0.56311,0.77382 0.79617,1.41096 1.19583,1.97984c0.65845,0.93727 1.29453,1.50134 1.94666,2.05699c0.63239,0.53883 1.53418,1.17009 2.30267,1.89101c0.46265,0.43399 1.17609,1.42709 1.55466,1.912c0.41531,0.53197 1.46524,1.58641 2.10934,2.056c0.6626,0.48308 1.04388,0.66382 1.67084,1.19249c0.91162,0.76874 1.33783,1.44545 1.84164,2.511c0.34137,0.72202 0.84271,1.81973 1.06369,2.15767c0.4444,0.67964 0.97754,1.30106 1.50897,1.91699c0.78088,0.90509 1.49271,1.79877 1.92734,2.38367c0.41797,0.5625 1.21667,1.60312 1.62085,2.06818c0.5939,0.68335 1.01797,1.12253 1.80133,2.138c0.4191,0.54327 0.82407,1.13354 1.284,1.716c0.71985,0.91162 1.26175,1.50406 1.83551,2.07782c0.57376,0.57376 1.48355,1.34879 2.37015,2.07266c0.57019,0.46555 1.16684,0.90332 1.77567,1.78152c0.41788,0.60278 0.67737,1.33023 0.98401,2.052c0.31195,0.73431 0.87119,1.80841 1.35916,2.45749c0.49042,0.65231 1.0575,1.23947 1.82352,2.15717c0.4928,0.59036 1.15051,1.49252 1.61932,2.04285c0.69077,0.81085 1.22372,1.28421 2.06818,1.95715c0.57764,0.46033 1.48679,1.15796 2.07782,1.68399c0.59851,0.53265 1.16745,1.08853 1.716,1.63202c0.76678,0.7597 1.45969,1.4491 1.87466,1.90933c0.83188,0.92264 1.21988,1.45346 1.81067,2.2955c0.40637,0.57922 0.99329,1.48373 1.40134,2.07782c0.60953,0.88742 1.02197,1.47592 1.76532,2.23468c0.49445,0.50473 1.33276,1.14474 1.82352,1.61932c0.70703,0.68375 1.18277,1.505 1.62448,2.28601c0.53156,0.93985 1.06613,1.42569 1.56,1.91199c0.85559,0.8425 1.1821,1.60327 1.52084,2.34399c0.39621,0.86642 0.81473,1.49472 1.62582,2.32666c0.49759,0.51038 1.04526,1.00723 1.79202,1.79333c0.53925,0.56766 0.86581,1.40619 0.88666,2.36935l0,0.86331" id="svg_17" stroke-width="2" stroke="#000" fill="none"/>
  <path t="56680,56828,56828,56828,56828,56828,56878,56878,56878,56880,56880,56880,56880,56881,56881,56881,56913,56913,56913,56913,56915,56915,56915,56946,56947,56947,56947,56948,56948,56948,56948,56977,56977,56977,56977,56979,56979,56979,56979,57010,57010,57011,57011,57011,57011,57041,57042,57042,57071,57071,57072,57072,57072,57073,57073,57073,57073,57104,57104,57104,57106,57107,57107,57107,57150,57150,57150,57150,57152,57152,57152,57152,57182,57182,57182,57213,57213,57213,57213,57213,57213,57213,57214,57215,57215,57215,57215,57247,57247,57247,57247,57248,57248,57248,57280,57280,57281,57282,57282,57282,57282,57314,57314,57314,57315,57316,57316,57316,57316,57350,57350,57350,57350,57351,57351,57352,57352,57387,57387,57387,57390,57390,57390,57425,57425,57425,57427,57427,57427,57427,57460,57460,57460,57460,57461,57462,57462,57494,57494,57494,57494,57527,57527,57527,57527,57527,57529,57529,57529" d="m307,194c3.95685,7.6925 4.22568,8.17468 4.71735,9.02c0.42334,0.72783 0.81854,1.36162 1.39999,2.57866c0.2796,0.58527 0.62723,1.49152 1.216,2.23466c0.60889,0.76852 1.19037,1.14204 1.66132,1.61934c0.91095,0.92325 1.32571,1.77974 1.65601,2.286c0.62949,0.96487 1.362,1.44426 2.09866,1.912c0.48764,0.30963 1.32645,1.09593 1.70901,1.89101c0.26587,0.55254 0.62744,1.7636 0.85065,2.35832c0.34097,0.90858 0.62146,1.52687 1.23367,2.40001c0.435,0.62036 1.22803,1.48343 1.68933,2.09999c0.65656,0.8775 0.9548,1.50403 1.41867,2.40001c0.31204,0.60275 0.87643,1.51216 1.35468,2.091c0.4794,0.58026 1.22601,1.33899 2.02667,2.14099c0.46759,0.46838 1.3031,1.29959 1.73599,1.73734c0.48465,0.49007 1.2558,1.25836 1.89865,2.064c0.55386,0.69414 0.95078,1.41702 1.66669,2.33334c0.41718,0.53394 0.92975,1.06772 1.452,1.644c0.53378,0.58904 1.29236,1.48978 1.76199,2.08034c0.45172,0.56807 1.09418,1.39189 1.87384,1.96649c0.75607,0.55722 1.64676,0.93147 2.24548,1.6425c0.42639,0.50635 0.79922,1.51736 1.13867,2.142c0.48105,0.88519 1.19904,1.5114 1.73633,1.83717c0.84607,0.513 1.77051,1.04794 2.34933,1.52617c0.58029,0.47942 1.36108,1.20459 2.14233,2.032c0.50253,0.53221 0.84583,0.98586 1.46667,1.96266c0.57013,0.89702 0.8663,1.42542 1.19733,1.97333c0.34363,0.56877 1.05258,1.72917 1.42133,2.29333c0.70248,1.07477 1.04016,1.56265 1.7197,2.40018c0.60297,0.74313 1.19659,1.36136 1.995,2.1665c0.47931,0.48334 1.14581,1.14581 1.56216,1.56216c0.8045,0.8045 1.40451,1.40445 2.00449,2.00449c0.80005,0.80014 1.40961,1.40182 1.80002,1.836c0.82059,0.91254 1.2092,1.44281 1.79999,2.28485c0.40637,0.57922 0.99048,1.48566 1.40134,2.07648c0.60562,0.87085 1.00156,1.4498 1.76532,2.06934c0.73444,0.59576 1.39398,0.75473 2.064,1.38669c0.93298,0.87997 1.11639,1.64499 1.42001,2.34265c0.31494,0.72369 0.87177,1.797 1.35468,2.44235c0.47519,0.63504 1.01593,1.17822 1.66132,1.995c0.54663,0.69183 0.89908,1.39203 1.65485,2.36667c0.48431,0.62457 1.08298,1.20001 1.6785,1.79999c0.59998,0.60452 1.2244,1.21558 2,2.16666c0.41327,0.50677 0.7912,1.06516 1.39999,1.88068c0.59155,0.79239 1.19406,1.50104 1.60001,1.93182c0.59146,0.62769 1.39999,1.42084 2,2.02084c0.60001,0.60001 1.41553,1.39246 1.81067,1.84268c0.6713,0.76489 0.9046,1.07996 1.6105,2.24249c0.55075,0.90701 0.79446,1.40494 1.05798,1.89398c0.51294,0.95197 1.1875,2.1875 1.55151,2.79419l0.44849,0.6225" id="svg_18" stroke-width="2" stroke="#000" fill="none"/>
  <path t="59521,59694,59694,59694,59694,59710,59710,59711,59711,59728,59728,59728,59728,59745,59745,59745,59745,59745,59763,59763,59764,59781,59781,59781,59781,59800,59800,59800,59800,59816,59816,59816,59832,59832,59832,59832,59832,59849,59849,59849,59849,59849,59866,59866,59866,59884,59884,59884,59884,59884,59918,59918,59918,59918,59953,59953,59953,59953,59953,59985,59985,59985,59985,59986,59987,59987,59987,59987,59990,59990,59990,59991,59991,59991,59992,59992,60034,60034,60034,60034,60034,60036,60037,60037,60037,60039,60039,60039,60039,60039,60072,60072,60072,60072,60072,60074,60074,60074,60074,60074,60107,60107,60107,60107,60108,60109,60109,60109,60109,60144,60144,60145,60145,60145,60177,60178,60178,60178,60178,60178,60178,60178,60178,60180,60180,60180,60180,60180,60180,60180,60214,60214,60214,60215,60216,60216,60216,60216,60252,60252,60252,60252,60254,60254,60254,60254,60254,60290,60291,60291,60291,60292,60293,60293,60328,60328,60328,60328,60363,60363,60363,60363,60363,60363,60398,60399,60399" d="m262,233c6.814,1.75751 7.67615,1.87257 8.41666,2.02083c0.98569,0.19734 1.89685,0.62369 2.48334,1.04167c0.61487,0.4382 1.15399,1.00496 2.40018,1.79483c0.58456,0.37053 1.2338,0.61655 2.18515,1.11067c1.0513,0.54604 1.39752,0.80046 2.14001,1.272c0.74817,0.47514 1.4613,0.97621 2.55301,1.396c0.64532,0.24814 1.63846,0.30469 2.655,0.864c0.52408,0.28836 1.146,1.04126 1.61932,1.49916c0.93005,0.89973 1.48999,1.21964 2.358,1.57951c0.58182,0.24123 1.79617,0.60913 2.39999,0.84267c0.95584,0.36969 1.9613,0.90334 2.67468,1.34666c0.37466,0.23283 1.12314,0.75212 1.91916,1.22665c1.17798,0.70226 1.99088,1.04089 2.38651,1.19551c0.7637,0.29848 1.86407,0.64169 2.76633,1.13116c0.55487,0.30103 1.25281,0.92508 2.37601,1.51199c0.61636,0.32208 1.32544,0.53909 2.052,0.75601c0.72952,0.2178 2.13599,0.59787 2.78931,0.832c0.65643,0.23524 1.3295,0.51424 2.34668,1.12166c0.74701,0.44609 1.48203,0.9942 1.85333,1.27832c0.7482,0.57248 1.80148,1.4812 2.47266,2.06967c0.65024,0.57013 0.9523,0.87274 1.63669,1.33835c1.00232,0.68192 1.75653,0.97815 2.85464,1.34933c0.68753,0.23239 1.62772,0.49939 2.41068,0.832c0.76544,0.32516 1.89368,0.91083 2.565,1.24649c0.72733,0.36368 1.10699,0.5535 1.88834,0.94415c1.19733,0.59866 1.99734,0.99869 2.79733,1.39868c0.39999,0.20001 1.19937,0.60129 2.39984,1.19983c0.79523,0.39651 1.57541,0.78766 2.34299,1.14301c1.08511,0.50235 1.77017,0.78372 2.4425,1.02118c0.67188,0.2373 1.38171,0.44373 2.5575,0.73633c0.86536,0.21533 1.78049,0.43286 2.24249,0.57166c0.93732,0.28159 2.29953,0.85892 2.72803,1.09866c0.8537,0.47766 1.26065,0.75009 2.02499,1.33835c1.11874,0.86102 1.77625,1.4899 2.10898,1.78198c0.64993,0.5705 1.26556,1.15805 2.31934,1.77567c0.69244,0.40585 1.44479,0.67081 2.172,0.91202c1.32239,0.43863 1.91437,0.60013 2.78635,1.02548c0.73508,0.35855 1.15723,0.61865 2.20834,1.22919c0.63904,0.37119 1.34143,0.78781 2.09698,1.2345c0.79379,0.4693 1.61096,0.95361 2.439,1.4415c0.8233,0.48511 1.62582,0.9621 3.13068,1.82401c0.6691,0.38321 1.28427,0.72592 1.84799,1.03348c0.51373,0.28027 1.41504,0.75641 1.81067,0.95801c1.2955,0.6601 1.836,0.92252 2.59201,1.30051c1.08267,0.54132 1.72015,0.85706 2.41068,1.21066c0.72559,0.37158 1.46371,0.75183 2.51733,1.36401c0.67368,0.39142 1.31824,0.80505 1.974,1.19998c1.00931,0.60785 1.73044,1.00165 2.47266,1.39999c0.74844,0.40167 1.5,0.78378 2.55301,1.40002c0.66608,0.3898 1.29053,0.78513 1.85999,1.19998c1.06067,0.77267 1.72253,1.40662 2.18701,1.76401c0.91541,0.70438 1.74283,1.0882 2.33716,1.37766c0.6586,0.32077 1.77783,0.94794 2.60416,1.509c0.43793,0.29736 1.31027,0.93167 1.74667,1.23734c0.82913,0.58072 1.92184,1.22617 2.50616,1.48785l0.85266,0.26331" id="svg_19" stroke-width="2" stroke="#000" fill="none"/>
  <path t="60855,60927,60927,60927,60927,60927,60944,60944,60944,60945,60966,60966,60966,60966,60966,60985,60985,60985,60985,60985,60985,60985,61006,61006,61006,61006,61006,61006,61028,61028,61028,61028,61029,61029,61029,61029,61029,61030,61066,61066,61066,61067,61067,61067,61068,61068,61068,61068,61068,61104,61104,61104,61105,61105,61108,61108,61108,61108,61143,61143,61143,61144,61144,61179,61179,61179,61179,61179,61179,61179,61179,61179,61181,61181,61181,61181,61181,61181,61181,61181,61181,61216,61216,61216,61216,61217,61217,61217,61218,61218,61255,61255,61255,61255,61256,61256,61257,61292,61292,61292,61294,61294,61294,61329,61330,61330,61330,61330,61366,61366,61366,61366,61367,61367,61367,61367,61368,61368,61368,61368,61368,61407,61407,61407,61407,61409,61409,61409,61409,61449,61449,61449,61449,61487,61488,61488,61488,61488,61488,61488,61488,61491,61491,61491,61491,61491,61529,61529,61529,61566,61566,61566,61567,61647" d="m275,235c7.035,5.71417 7.53854,6.06221 8.45999,6.66667c0.41437,0.27182 1.23233,0.6875 2.04001,1.5c0.71796,0.72221 0.97928,1.36739 1.358,1.93784c0.60944,0.91797 1.17651,1.52277 1.87134,2.08482c0.74991,0.60661 1.1741,0.89848 2.604,1.644c0.50131,0.26137 1.03204,0.48889 2.11731,0.94135c0.54803,0.22849 1.64752,0.66998 2.18134,0.90933c1.04178,0.46713 1.99997,0.99419 2.45367,1.26416c0.87787,0.52238 1.69897,1.05307 2.11166,1.2825c1.1853,0.65894 2.00269,0.964 2.80267,1.26933c0.79999,0.30533 2.0051,0.8239 2.40018,1.043c0.81528,0.45213 1.6217,0.9971 2.03583,1.27832c0.8515,0.57819 1.72549,1.18668 2.64801,1.776c0.46609,0.29773 1.41235,0.86752 1.89066,1.13068c0.93439,0.51413 1.85233,0.95435 2.73999,1.30402c0.84357,0.33231 1.27322,0.44556 2.08084,0.77332c1.21863,0.49457 2.00827,0.95444 2.79382,1.44534c0.39243,0.24524 1.13409,0.77658 2.24402,1.41599c0.66888,0.38531 1.3465,0.63449 2.20499,1.13867c0.82297,0.48331 1.53537,1.22952 2.14917,1.75717c0.35394,0.30426 1.24258,0.96631 2.47916,1.60416c0.7348,0.379 1.57263,0.72318 2.46902,1.077c0.93552,0.36926 1.90421,0.71973 2.883,1.05902c0.96729,0.3353 1.90942,0.65073 3.64798,1.19733c0.76025,0.23901 1.45001,0.44629 2.07602,0.62851c0.56873,0.16556 1.09021,0.31064 1.57199,0.43948c0.44894,0.12006 0.87622,0.22186 2.08517,0.53235c0.79669,0.20462 1.59409,0.40302 2.34299,0.71399c1.11539,0.46317 1.77454,0.95041 2.43182,1.42566c0.65207,0.47147 1.27292,0.9928 2.34634,1.396c0.70346,0.26422 1.81146,0.35452 2.42435,0.61603c1.07471,0.45856 1.474,1.32645 2.10666,1.896c0.64145,0.57745 1.62747,0.74872 2.272,0.892c1.18314,0.26303 1.82724,0.66107 2.31601,1.18134c0.71387,0.75986 1.3851,1.40857 2.02664,1.7995c0.76718,0.46747 1.23868,0.68616 2.33334,1.14581c1.29346,0.54312 2.01559,0.78708 2.75201,1.05869c0.74759,0.27573 1.4968,0.54709 2.23199,0.82199c0.7128,0.26654 2.0199,0.77713 2.58701,1.03101c0.99304,0.44455 1.41394,0.67322 2.16498,1.07498c1.26559,0.67703 1.87177,0.94473 2.74316,1.36752c0.56992,0.27652 1.60785,1.01331 2.06818,1.47998c0.6907,0.70023 1.07526,1.26273 2.14465,1.74985c0.57175,0.26044 1.30893,0.36786 2.13602,0.672c1.01926,0.37482 2.19446,0.99411 2.83533,1.34515c0.66592,0.36478 1.33707,0.75235 2.01001,1.14151c0.66373,0.38382 1.29672,0.77399 2.49332,1.42401c0.99728,0.54175 1.44327,0.74194 2.20834,1.10416c0.93332,0.44186 1.71112,0.87369 2.39966,1.38785c0.68558,0.51199 1.64633,1.15314 2.16901,1.41748l0.759,0.3465l1.04266,0.60934l0.47601,0.68018" id="svg_20" stroke-width="2" stroke="#000" fill="none"/>
  <path t="79166,79303,79321,79321,79339,79339,79340,79356,79356,79374,79393,79412,79412,79412,79428,79428,79445,79445,79461,79461,79479,79479,79479,79497,79498,79498,79498,79513,79513,79529,79529,79544,79544,79544,79559,79559,79574,79575,79591,79591,79609,79610,79610,79625,79625,79625,79642,79642,79658,79658,79675,79675,79691,79691,79691,79707,79708,79708,79708,79724,79724,79741,79741,79741,79758,79758,79758,79774,79774,79774,79791,79792,79792,79807,79808,79808,79824,79824,79841,79842,79842,79858,79858,79858,79874,79891,79891,79891,79907,79908,79924,79924,79924,79941,79942,79958,79958,79958,79975,79975,79975,79992,79992,79992,80008,80008,80008,80024,80024,80041,80041,80041,80057,80057,80074,80074,80091,80091,80091,80108,80108,80125,80125,80142,80142,80159,80177,80177,80195,80196,80212,80212,80212,80229,80229,80246,80246,80263,80263,80281,80315,80316,80318,80318,80318,80318,80335,80336,80338,80360,80360,80379,80398,80398,80418,80419,80437,80437,80457,80457,80475,80476,80476,80495,80495,80495,80512,80512,80512,80565,80566,80566,80621,80622,80624,80624,80624,80624,80625,80625,80625,80625,80678,80678,80678,80678,80678,80678,80679,80679,80679,80735,80735,80735,80735,80736,80736,80736,80736,80736,80789,80789,80789,80790,80790,80790,80790,80790,80790,80792,80792,80792,80792,80794,80794,80846,80847,80847,80899,80899,80899,80899,80899,80899,80900,80953,80953,80953,80955,80957,80958,81011,81011,81011,81012,81013,81013,81066,81084,81084,81136,81136,81189,81241,81241,81241,81241,81293,81293,81293,81294,81346,81346,81346,81346,81347,81364,81364,81364,81365,81365,81365,81365,81365,81417,81418,81418,81418,81418,81418,81419,81471,81471,81472,81472,81472,81500,81500,81500,81500,81501,81501,81518,81518,81518,81518,81519,81521,81521,81523,81523,81523,81544,81544,81545,81563,81563,81582,81602,81602,81603,81623,81624,81624,81643,81644,81644,81664,81664,81665,81682,81683,81683,81704,81704,81705,81707,81707,81709,81710,81710,81730,81730,81750,81750,81750,81770,81772,81772,81792,81793,81813,81813,81813,81833,81833,81834,81853,81853,81875,81875,81875,81897,81898,81898,81921,81921,81961,81961,81961,81963,81963,81963,81965,81965,81966,81967,81968,81970,81970,81970,82010,82011,82011,82011,82013,82053,82054,82054,82093,82094,82094,82094,82094,82095,82097,82097,82098,82098,82139,82139,82139,82179,82179,82180,82180,82180,82180,82181,82181,82183,82183,82184,82224,82224,82225,82264,82265,82265,82265,82265,82266,82268,82268,82268,82319,82319,82360,82360,82360,82361,82400,82400,82400,82403,82403,82405,82406,82447,82448,82448,82448,82489,82489,82491,82492,82494,82494,82494,82535,82536,82536,82576,82576,82577,82577,82579,82620,82621,82663,82663,83085,83086,83252,83253,83452,83753,83754,83868,83869,83914,83963,83966,83966,83969,83969,83971,84015,84015,84018,84020,84020,84063,84063,84063,84065,84066,84066,84107,84107,84108,84148,84148,84149,84149,84149,84149,84150,84150,84150,84153,84153,84153,84154,84156,84157,84157,84199,84199,84200,84200,84202,84203,84203,84205,84206,84206,84249,84249,84250,84252,84253,84253,84295,84296,84296,84296,84338,84339,84339,84339,84340,84340,84344,84344,84344,84345,84347,84348,84400,84401,84401,84402,84402,84442,84442,84443,84443,84443,84444,84444,84444,84489,84489,84490,84490,84490,84494,84495,84497,84498,84539,84540,84540,84540,84541,84541,84541,84582,84583,84583,84583,84584,84584,84584,84627,84627,84628,84630,84630,84631,84631,84633,84634,84634,84637,84637,84640,84640,84641,84699,84699,84700,84757,84758,84758,84758,84759,84818,84818,84819,84819,84875,84876,84876,84877,84933,84934,84934,84935,84935,84992,84992,84993,84993,85051,85051,85054,85054,85054,85113,85113,85170,85253,85257" d="m264,245c-3.33865,-1.92799 -4.3215,-2 -5.02084,-2c-0.97916,0 -1.77914,0 -2.57916,0c-0.9955,0 -1.91466,0 -2.87917,0c-0.82983,0 -1.85416,0 -2.52617,0c-0.98932,0 -1.85182,0 -2.74283,0c-0.909,0 -1.65633,0 -2.65317,0c-0.83466,0 -1.76534,0 -2.55583,0c-0.8535,0 -2.04294,0.01027 -2.93832,-0.0045c-0.58383,-0.00963 -1.4335,-0.01889 -2.41917,-0.2795c-0.89108,-0.2356 -1.88116,-0.63637 -2.68533,-0.69518c-0.99756,-0.07295 -1.8,-0.02083 -2.60001,-0.02083c-1,0 -1.79999,0 -2.79999,0c-0.8,0 -1.80264,0.04736 -2.60001,-0.02083c-1.0069,-0.08612 -1.59117,-0.37369 -2.45717,-0.62651c-0.95161,-0.27782 -1.75705,-0.33073 -2.533,-0.34816c-1.04156,-0.02339 -1.97783,-0.0045 -2.77783,-0.0045c-0.98132,0 -1.89867,0.00014 -2.73199,0c-1.043,-0.00017 -1.77983,0.03297 -2.60899,-0.11433c-0.90338,-0.16051 -1.78793,-0.58818 -2.37018,-0.88567c-0.83759,-0.42795 -1.82707,-0.89211 -2.71016,-0.97867c-0.80708,-0.07912 -1.62134,-0.02133 -2.496,-0.02133c-1,0 -1.83549,0 -2.716,0c-0.89867,0 -1.79866,0 -2.69867,0c-0.89999,0 -1.79762,0.03253 -2.664,-0.036c-1.07393,-0.08493 -1.77132,-0.33934 -2.63148,-0.61134c-0.7981,-0.25238 -1.60443,-0.33566 -2.60451,-0.35266c-0.81062,-0.01378 -1.69269,-0.05144 -2.68266,-0.284c-0.80341,-0.18872 -1.56557,-0.36951 -2.50751,-0.66783c-0.99945,-0.31654 -1.61685,-0.93866 -2.21432,-1.34283c-0.7621,-0.51555 -1.59485,-0.68449 -2.5955,-0.70534c-0.79984,-0.01666 -1.60054,0.02872 -2.60451,-0.0045c-0.85382,-0.02826 -1.81747,-0.21486 -2.63148,-0.42084c-0.86905,-0.21991 -1.76205,-0.42459 -2.6595,-0.52199c-0.86693,-0.09407 -1.94391,-0.19745 -2.65184,-0.40533c-0.68451,-0.20102 -1.87143,-0.55237 -2.66733,-0.61134c-0.77403,-0.05736 -1.67026,0.10371 -2.59067,-0.15033c-0.77805,-0.21475 -1.43536,-0.75349 -2.18933,-1.18033c-0.85168,-0.48215 -1.77141,-0.70517 -2.66251,-1.0625c-0.76489,-0.30672 -1.55621,-0.71849 -2.34283,-1.16367c-0.61099,-0.34578 -1.4108,-0.94983 -1.97917,-1.47917c-0.87326,-0.81328 -1.55907,-1.26233 -1.89932,-2.10017c-0.29887,-0.73593 0.02162,-1.76134 -0.28818,-2.73315c-0.22638,-0.71014 -0.65506,-1.50183 -0.89467,-2.37733c-0.22038,-0.80527 -0.81741,-1.55727 -1.23332,-2.13217c-0.63551,-0.87846 -0.70399,-1.6265 -0.70534,-2.66251c-0.00096,-0.74399 0,-1.85165 0,-2.68565c0,-0.82983 0,-1.79701 0,-2.59167c0,-1.05066 0,-1.68399 0,-2.6965c0,-0.65833 0,-1.75633 0,-2.70732c0,-0.83434 -0.00436,-1.79752 0,-2.66084c0.0045,-0.89102 0.58301,-1.50562 1.35184,-1.70534c0.90865,-0.23604 1.33075,-0.84381 1.64417,-1.77266c0.23579,-0.69881 1.05984,-1.44202 1.8,-1.76401c1.02304,-0.44505 1.76526,-0.68144 2.39333,-1.04666c0.8376,-0.48706 1.40363,-1.02487 2.01067,-1.53867c0.79097,-0.66948 1.59845,-1.21434 2.25717,-1.52083c0.9478,-0.44098 1.7506,-0.71599 2.533,-0.94734c1.03752,-0.30679 1.78789,-0.45306 2.84315,-1.02383c0.38216,-0.2067 1.26859,-0.77615 1.77867,-1.12c0.55751,-0.37582 1.15244,-0.79578 1.782,-1.25999c0.672,-0.49551 2.10983,-1.61533 2.86967,-2.239c0.78966,-0.64815 1.58971,-1.32901 2.39099,-2.037c0.80811,-0.714 1.6031,-1.44194 2.373,-2.181c0.75537,-0.72511 2.14674,-2.15607 2.765,-2.85316c0.58946,-0.66464 1.13014,-1.32104 1.638,-1.96051c0.49002,-0.617 0.95137,-1.2258 1.40401,-1.8165c0.44339,-0.57864 1.32701,-1.7037 1.78633,-2.244c0.45541,-0.53571 0.91869,-1.05072 1.383,-1.5435c0.4505,-0.47813 0.89514,-0.92763 1.32899,-1.34549c0.40904,-0.39395 1.16136,-1.07338 1.50233,-1.347c0.57933,-0.46489 1.29352,-0.91505 2.14317,-1.26517c0.7144,-0.29439 1.19473,-0.99944 1.6465,-1.70433c0.38899,-0.60695 1.36716,-1.59303 1.80299,-1.9375c0.46783,-0.36977 1.52061,-1.07797 2.07201,-1.41667c0.54471,-0.33459 1.58461,-0.9449 2.5,-1.39583c0.94582,-0.46593 1.66048,-0.72966 2.52083,-1.16667c0.78979,-0.40117 1.5829,-0.3954 2.47917,-1c0.67926,-0.45822 0.93277,-1.06946 1.60001,-1.64799c0.9102,-0.7892 1.64471,-0.96016 2.45065,-1.42667c0.78667,-0.45535 1.552,-0.42467 2.54485,-0.42534c0.74733,-0.0005 1.82156,0.06227 2.73782,-0.33333c0.71605,-0.30916 1.20271,-0.72861 2.15468,-1.09868c1.00981,-0.39256 1.76799,-0.46893 2.53282,-0.54716c0.78262,-0.08005 1.98055,-0.17842 2.7845,-0.30482c0.83888,-0.1319 1.73746,-0.29935 2.22334,-0.36334c1.63441,-0.21527 2.25674,-0.23573 2.90999,-0.26733c0.68079,-0.03294 1.3839,-0.05591 2.832,-0.07466c0.73297,-0.00949 1.464,-0.00999 2.89601,-0.01067c0.68983,-0.00032 1.35866,0 2.00549,0c1.22366,0 1.79851,0 2.86917,0c1.39484,0 2.20517,0 2.97949,0c0.79434,0 1.21651,-0.00143 2.66467,0.00017c0.55183,0.00061 1.72655,0.00806 2.33533,0.02066c0.61391,0.01271 1.83046,0.0405 2.97917,0.14584c1.04222,0.09558 1.51733,0.17293 2.375,0.33333c1.06816,0.19978 2.08897,0.35057 2.76501,0.56134c0.93564,0.2917 1.60678,0.81625 2.4118,1.23332c0.76852,0.39816 1.71008,0.66685 2.54684,0.70267c0.99591,0.04263 1.74802,-0.0769 2.78668,0.01334c0.95715,0.08316 1.62051,0.35631 2.39999,0.564c1.04306,0.27792 1.76093,0.39232 2.66733,0.42084c0.9682,0.03047 1.77609,-0.02641 2.59467,0.06166c1.03833,0.11171 1.71231,0.42023 2.63666,0.65884c0.98846,0.25516 1.8367,0.27023 2.4205,0.2795c1.19501,0.01897 2.07419,0.00348 2.88116,0.0045c1.04636,0.00134 1.84091,0.07176 2.78235,0.56799c0.49481,0.26082 1.17773,0.83441 2.26401,1.26268c0.74734,0.29465 1.73599,0.45332 2.46799,0.66933c0.73199,0.216 1.86755,0.37444 2.60016,0.72133c0.7077,0.3351 1.57928,0.64812 2.30435,0.8885c1.04187,0.34543 1.59164,0.94588 2.28082,1.4075c0.96533,0.64658 1.51694,0.87231 2.30484,1.121c1.02789,0.32442 1.97791,0.35152 2.78049,0.36299c0.77115,0.01103 1.6438,0.02359 2.82666,0.28534c0.58875,0.13028 1.45715,0.38007 2.26001,1.0345c0.71292,0.58115 1.45801,1.41196 2.1525,1.5645c0.76288,0.16757 1.82352,0.11433 2.53751,0.11433c0.90533,0 1.8743,-0.01834 2.66733,0.01067c0.7764,0.0284 1.81644,0.27637 2.59067,0.69383c0.73682,0.39729 1.47345,0.6902 2.30368,1.05267c0.89868,0.39236 1.78226,0.89053 2.34933,1.222c0.77136,0.45087 1.77716,0.79691 2.64267,1.24283c0.5658,0.2915 1.20386,0.84673 2.327,1.54201c0.47302,0.29283 0.98773,0.59439 2.07199,1.23599c0.54788,0.3242 1.09494,0.62422 2.5,1.5c0.6962,0.43393 1.15109,0.89561 1.96268,1.21066c1.02722,0.39874 1.68738,0.30797 2.43216,0.45634c1.44809,0.28848 2.01315,0.49196 2.6225,0.68633c0.63876,0.20374 1.94238,0.6638 2.58398,0.90666c0.62238,0.23558 1.22598,0.43338 2.64853,1.09683c0.93198,0.43466 1.5141,0.85428 2.52481,1.0605c0.81906,0.16711 1.51187,0.16173 2.72534,0.416c0.46646,0.09775 1.45496,0.37164 1.96533,0.528c1.02573,0.31424 2.00204,0.64337 2.86801,0.972c1.03934,0.39442 1.81183,0.71719 2.5,1.16667c0.73608,0.48079 1.66333,1.17253 2.21866,1.48399c0.62033,0.34793 1.29355,0.65358 2.448,1.34933c0.64569,0.38914 1.20938,0.91763 2.15268,1.46217c0.67261,0.38828 1.63113,0.5957 2.40198,0.95917c0.74084,0.34932 1.30804,0.80133 1.94534,1.26616c0.64682,0.47179 1.70404,1.3779 2.30267,1.79651c0.82471,0.57671 1.71823,0.65919 2.69733,0.68266c0.80005,0.01918 1.63309,0.11005 2.40268,0.56934c0.67184,0.40096 1.3439,0.99675 2.23981,1.409c0.64304,0.29588 1.66663,0.59268 2.30417,0.735c1.17502,0.2623 2.15369,0.28667 2.86768,0.28667c0.95367,0 1.68567,0 2.85233,0c0.8125,0 1.65466,-0.0006 2.508,0c0.94,0.00067 1.8764,0.30887 2.58252,0.64734c0.85034,0.40762 1.59015,0.3504 2.60684,0.35266c0.94049,0.00208 1.80264,0.00008 2.63599,0c0.97849,-0.00009 1.78275,-0.11438 2.52084,-0.5c0.78479,-0.41003 1.66006,-0.39236 2.59381,-0.50133c1.00314,-0.11707 1.53232,-0.65773 2.42834,-0.8775c0.71555,-0.17551 1.59332,-0.14539 2.75665,-0.56384c0.60886,-0.21901 1.39969,-0.76247 2.367,-1.224c0.7276,-0.34717 1.48755,-0.53773 2.66669,-1c0.54044,-0.21187 1.14182,-0.4695 1.797,-0.74849c0.69418,-0.29561 1.41125,-0.60579 2.13901,-0.91951c0.7236,-0.31195 1.42407,-0.62727 3.30148,-1.40083c0.51443,-0.21196 1.40268,-0.55606 2.12918,-0.83249c1.13361,-0.43132 1.85733,-0.7168 2.52533,-1.06801c0.95645,-0.50287 1.72916,-1.02101 2.2955,-1.364c0.58096,-0.35182 1.77518,-0.98676 2.37015,-1.24283c0.83209,-0.35814 1.79993,-0.7193 2.45834,-1.16783c0.64444,-0.43901 1.42178,-1.0722 2.17151,-1.61017c0.53223,-0.38191 1.56512,-1.17064 2.022,-1.57918c0.65747,-0.58792 1.43927,-1.41899 2.07516,-2c0.453,-0.41391 0.98376,-0.84914 2.04865,-1.39999c0.85104,-0.44023 1.34705,-0.60371 2.35419,-1c0.51309,-0.20189 1.53757,-0.57909 2.47916,-1c0.84995,-0.37996 1.59122,-0.75719 2.47217,-1.34283c0.9075,-0.60332 1.33099,-1.09903 2.36118,-1.65717c0.67719,-0.36688 1.31409,-0.55867 2.06149,-0.87151c0.43546,-0.18227 2.01328,-0.88982 2.62515,-1.18317c0.64487,-0.30917 1.30869,-0.63873 1.98001,-0.987c0.67538,-0.35039 1.34427,-0.70151 1.98001,-1.077c1.73358,-1.0239 2.2005,-1.37906 3.01865,-2.01334c0.35992,-0.27904 1.16037,-1.10687 2.03067,-1.61333c0.72455,-0.42163 1.56866,-0.84621 2.19733,-1.312c0.97147,-0.7198 1.39621,-1.00304 2.35333,-1.64c0.52209,-0.34746 1.07169,-0.70129 1.64252,-1.05901c0.58249,-0.36502 1.77234,-1.08618 2.97217,-1.75566c0.58487,-0.32634 1.16132,-0.63324 1.72198,-0.92551c1.05219,-0.54849 1.54257,-0.78941 2.79752,-1.41966c0.66193,-0.33243 1.48978,-0.73918 2.45248,-1.30951c0.79507,-0.47102 1.32858,-0.84096 2.14935,-1.34933c0.75815,-0.46957 1.6604,-0.96855 2.28265,-1.28265c1.0015,-0.50554 1.62109,-0.82961 2.56799,-1.03467c0.77191,-0.16718 1.60977,-0.03964 2.69116,-0.3885c0.7449,-0.24031 1.3569,-0.76643 2.34903,-1.32083c0.85324,-0.47679 1.32977,-0.7094 1.814,-0.95734c0.97156,-0.49745 2.31412,-1.16345 2.69315,-1.35733c0.94617,-0.48399 1.71484,-0.89914 2.48636,-1.68567c0.43683,-0.44534 0.82764,-1.01035 1.314,-1.56599c0.79709,-0.91066 1.44632,-1.49823 2.13632,-2.08034c0.69144,-0.58334 1.388,-1.11734 2.30649,-1.88884c0.53696,-0.45102 1.22858,-1.08795 1.72552,-1.34982c0.95416,-0.50279 1.87109,-0.3736 2.98398,-0.90533c0.57947,-0.27687 0.98981,-1.13219 1.98602,-1.55684c0.65533,-0.27934 1.59015,-0.46249 2.44748,-0.98833l0.78519,-0.12018" id="svg_24" stroke-width="2" stroke="#000" fill="none"/>
  <path t="85877,86019,86019,86019,86019,86036,86036,86036,86036,86036,86060,86060,86061,86061,86075,86075,86075,86075,86075,86099,86099,86100,86100,86123,86123,86123,86124,86124,86147,86147,86171,86171" d="m370,197c6.15701,0.87849 7.08533,0.95244 7.95834,0.97917c0.8324,0.02548 2.04166,0.02083 2.84164,0.02083c0.80002,0 1.60001,-0.00011 2.40002,0c1.19998,0.00017 2.00107,-0.01089 2.79999,0.04167c0.80154,0.05273 2.00552,0.27356 2.79999,0.52632c0.40305,0.12823 1.19257,0.45303 2,0.72667c1.18988,0.40326 1.99481,0.5574 2.77869,0.63333c0.74753,0.07242 2.08798,0.07201 2.90698,0.07201c0.69302,0 1.71436,0 2.51434,0c1,0 1.78934,0 2.83334,0l0.80499,0.05716" id="svg_25" stroke-width="2" stroke="#000" fill="none"/>
  <path t="86542,86702,86706,86706,86706,86728,86728,86728,86728,86752,86752,86752,86752,86753,86753,86754,86754,86778,86779,86804" d="m386,196c2.96933,2.39867 3.65567,2.80052 4.38535,3.164c0.7265,0.36189 1.78958,0.82423 2.46198,1.07883c0.64917,0.24579 1.63513,0.56123 2.67401,0.85735c0.73026,0.20815 1.48535,0.40045 2.22601,0.657c1.09671,0.37987 1.76993,0.71567 2.39532,1.0575c0.84583,0.46231 1.88666,1.01466 2.65466,1.18266l0.91733,0.088" id="svg_26" stroke-width="2" stroke="#000" fill="none"/>
  <path t="88875,89084,89085,89105,89105,89105,89105,89129,89129,89129,89129,89151,89152,89152,89152,89152,89154,89154,89154,89175,89175,89176,89197,89197,89197,89218,89218,89218,89219,89219,89219,89241,89241,89241,89241,89259,89259,89259,89279,89279,89279,89279,89299,89299,89299,89299,89318,89318,89319,89320,89320,89320,89338,89338,89338,89338,89358,89358,89375,89376,89376,89396,89396,89396,89414,89415,89434,89434,89434,89436,89436,89453,89454,89454,89474,89474,89496,89496,89496,89515,89515,89515,89536,89536,89536,89556,89556,89556,89574,89575,89575,89595,89595,89614,89614,89614,89614,89634,89634,89634,89666,89666,89666,89668,89668,89668,89670,89670,89670,89671,89671,89691,89710,89710,89731,89731,89731,89731,89751,89751,89752,89753,89773,89774,89794,89794,89794,89794,89817,89817,89817,89837,89837,89837,89857,89857,89876,89876,89876,89897,89917,89917,89919,89919,89919,89939,89967,89968,89989,89989,90011,90035,90084,90217,90351,90352,90423,90425" d="m408,202c3.55182,-0.0045 4.26599,-0.00221 5.33334,-0.16667c0.6394,-0.09853 1.68942,-0.34665 2.41849,-0.53783c1.0845,-0.28438 1.76965,-0.48041 2.74817,-0.81633c0.65656,-0.22539 1.66907,-0.64046 2.384,-0.96317c0.74387,-0.33575 1.48712,-0.69844 2.23199,-1.03201c1.05746,-0.47357 1.7226,-0.72621 2.63733,-1.07333c1.08029,-0.40994 1.80795,-0.68144 2.436,-1.04666c0.83759,-0.48706 1.37976,-1.0526 2.01068,-1.50267c0.9574,-0.68298 1.83368,-0.81683 2.48532,-1.02933c1.0249,-0.33421 1.55869,-0.69121 2.41916,-1.241c0.90414,-0.5777 1.4924,-0.99234 2.08484,-1.38034c0.85101,-0.55734 1.87637,-1.21425 2.59601,-1.57466c0.71237,-0.35678 1.54697,-0.63939 2.52451,-0.94051c0.71024,-0.21878 1.45819,-0.41219 2.5235,-0.86217c0.69012,-0.2915 1.32739,-0.63069 2.14783,-1.18066c0.89694,-0.60127 1.48431,-1.19164 2.35217,-1.65266c0.66241,-0.35188 1.52689,-0.62878 2.15466,-0.88533c1.0379,-0.42413 1.7597,-0.75911 2.47034,-1.11467c0.67862,-0.33954 1.75333,-1.01846 2.35498,-1.35333c0.98502,-0.54825 1.71964,-0.49858 2.436,-0.744c1.17719,-0.40329 1.54395,-1.2088 1.99884,-1.84467c0.52362,-0.73192 1.29071,-0.94469 2.25183,-1.22467c0.79797,-0.23245 1.51437,-0.76753 1.83334,-1.59999c0.35065,-0.9151 0.6185,-1.8461 1.45331,-2.136c0.68616,-0.23828 1.74448,-0.38429 2.51868,-0.80183c0.73651,-0.39722 1.47205,-0.65379 2.18933,-1.05267c0.90085,-0.50096 1.45792,-1.29021 1.97333,-1.75883c0.74011,-0.67293 1.55313,-0.96245 2.34933,-1.28265c0.99905,-0.40178 1.69208,-0.70505 2.36667,-1.08667c1.01346,-0.57332 1.54037,-0.92584 2.30618,-1.46201c0.8786,-0.61513 1.47586,-1.19058 2.34317,-1.65266c0.65836,-0.35077 1.49557,-0.61897 2.06934,-0.88533c1.2131,-0.56316 1.78726,-0.93901 2.64017,-1.46201c0.79108,-0.48508 1.49423,-0.91637 2.1825,-1.242c0.92834,-0.43922 1.7446,-0.66743 2.51334,-1.04666c0.95871,-0.47293 1.53885,-1.23907 2.00949,-1.65416c0.81406,-0.71796 1.6853,-0.58177 2.61584,-1.14584c0.72693,-0.44064 1.16156,-1.10504 1.96933,-1.73067c0.65488,-0.5072 1.42651,-0.99788 1.81332,-1.43466c0.80188,-0.9055 0.90454,-1.85904 1.70667,-2.22934c0.83997,-0.38777 1.85968,-0.24652 2.64667,-0.711c0.89709,-0.52945 1.50601,-1.11665 2.02084,-1.45833c0.79074,-0.52478 1.54303,-1.00674 2.47916,-1.47917c0.67395,-0.34013 1.68756,-0.71016 2.21466,-0.93149c0.78317,-0.32884 1.6604,-0.89471 2.26453,-1.58934c0.70898,-0.81516 1.35022,-1.35762 1.86816,-1.6955c0.90283,-0.58897 1.72015,-1.01433 2.40979,-1.47151c0.83246,-0.55188 1.21661,-1.35497 1.59021,-1.77499c0.8396,-0.94386 1.78778,-1.10085 2.21667,-1.70467c0.62189,-0.87558 0.42767,-1.81079 1.28662,-2.29199c0.82837,-0.4641 1.69855,-0.73184 2.09216,-1.423c0.47565,-0.83525 0.02118,-1.77701 -0.29547,-2.5285l-0.65399,-0.53517" id="svg_27" stroke-width="2" stroke="#000" fill="none"/>
  <path t="91671,92084,92084,92084,92084,92157,92157,92157,92159,92159,92159,92159,92159,92229,92229,92229,92229,92229,92229,92229,92229,92229,92235,92235,92235,92235,92235,92235,92235,92235,92235,92301,92301,92301,92301,92301,92301,92302,92318,92318,92334" d="m526,139c9.00568,-7.47067 9.55127,-7.79239 10.02264,-8.56267c0.48181,-0.78731 -0.50171,-1.34479 -1.10596,-1.39566c-0.68036,-0.05728 -2.09705,-0.04167 -2.80902,-0.04167c-0.81598,0 -1.29303,0 -2.44501,0c-1.49597,0 -2.39813,0 -3.39331,0c-1.07117,0 -2.20135,0 -3.37354,0c-1.19714,0 -2.40228,0 -3.59845,0c-2.29736,0 -3.36737,0 -4.37738,0c-0.95001,0 -1.83997,0 -2.66998,0c-0.76999,0 -1.48001,0 -2.13,0c-1.12,0 -1.59082,0 -2.00665,0c-0.36584,0 -0.68668,0 -0.9675,0c-0.24585,0 -0.97919,0 -1.73517,0l-0.95233,0" id="svg_28" stroke-width="2" stroke="#000" fill="none"/>
  <path t="94548,94715,94716,94716,94737,94737,94737,94761,94761,94761,94783,94783,94783,94783,94784,94784,94784,94805,94805,94805,94806,94806,94830,94830,94830,94849,94849,94849,94849,94849,94868,94868,94868,94886,94886,94904" d="m508,222c0.91467,4.51334 0.97778,5.15295 0.99551,6.03833c0.02084,1.04013 -0.01028,1.96597 0.08981,2.64568c0.1488,1.01047 0.42255,1.85081 0.80133,2.71733c0.39981,0.91463 0.74911,1.50816 1.32401,2.36267c0.37686,0.56018 0.97519,1.3275 1.60001,2.01067c0.63226,0.69128 1.35223,1.39581 1.87469,1.90799c0.54675,0.53601 1.09991,1.08815 1.71594,1.548c1.1557,0.86276 1.80634,1.11504 2.43469,1.384c1.3244,0.56689 2.04895,0.86449 2.77869,1.21066c0.72632,0.34454 1.41357,0.69543 2.34229,1.153c0.7691,0.37895 1.43402,0.66 2.44171,0.93634l0.94415,0.08083l0.90002,0.0045" id="svg_29" stroke-width="2" stroke="#000" fill="none"/>
  <path t="95310,95515,95516,95516,95535,95535,95535,95557,95557,95557,95577,95599,95599,95599,95601,95601,95601,95621,95622,95641,95641,95641,95659,95659,95700,95749,95749,95867,95888,95933,95965,95986,95986,96009,96009,96031,96052,96052,96073,96094,96094,96094,96114,96114,96132,96132,96133,96133,96134,96134,96154,96154,96174,96199,96200,96200,96220,96220,96241,96242" d="m512,223c5.42798,0 6.11731,0 7.03381,0c1.04486,0 1.74084,0 2.65021,0c0.99866,0 1.79517,0 2.54663,0c1.11865,0 2.10266,0 2.78369,0c0.80701,0 1.98566,0 2.58301,0c0.86096,0 2.06934,0 2.75195,0c0.98401,0 1.90137,0 2.64539,0c1.03467,0 1.80267,-0.00485 2.76245,0c0.89111,0.0045 1.78192,0.10182 2.18152,0.85066c0.4892,0.91672 1.03271,1.50505 1.06134,2.35068c0.03265,0.96478 0,1.79866 0,2.63199c0,0.86217 0.01184,1.81815 -0.284,2.65067c-0.25092,0.70609 -0.43842,1.75203 -1.04932,2.51601c-0.41772,0.52243 -1.25586,0.82326 -1.90955,1.65266c-0.51318,0.6512 -0.90063,1.52351 -1.51428,2.04283c-0.82666,0.6996 -1.65778,0.99422 -2.22119,1.62584c-0.55334,0.6203 -0.7962,1.69078 -1.07434,2.37416c-0.36163,0.88857 -1.10272,1.48285 -1.78333,2.12984c-0.55939,0.53175 -1.36365,1.15317 -1.94269,1.53867l-0.888,0.636l-0.43866,0.64284" id="svg_30" stroke-width="2" stroke="#000" fill="none"/>
 </g>
 <g display="none">
  <title>muse_image</title>
  <image xlink:href="http://farm4.static.flickr.com/3239/2337490984_291b01312b.jpg" id="muse" height="462" width="640" y="9" x="0"/>
 </g>
 <g display="none">
  <title>bbox</title>
  <rect stroke="#f00" fill="none" stroke-width="3" height="191.96676" width="582.4" y="175.37119" x="28.16" id="bbox"/>
 </g>
</svg>
