<svg width="640" height="480" xmlns="http://www.w3.org/2000/svg" xmlns:svg="http://www.w3.org/2000/svg" xmlns:xlink="http://www.w3.org/1999/xlink">
 <!-- Sketchy ANNOTATION
  ImageNet ID: n02691156_4134
  URL: http://farm2.static.flickr.com/1385/548896275_db0585f740.jpg
  Image Width: 500
  Image Height: 333
  BBox X: 50
  BBox Y: 0
  BBox Width: 387
  BBox Height: 333
  Exposure: 2000ms
  Synset Label: airplane
  Synset ID: n02691156
  Worker Tag: airplane flying in the sky
  Sanity Check: 
   Context
   Saved
   Shading
  Comment: 
   {}
  Worker ID: A1P7U2ULSAE7YL
  Assignment ID: 3QXNC7EIPIVN8FI1SSMSI9DF71890V
  HIT ID: 3QTFNPMJC6I3CIUR7UDNHPG0TA2NZ9
  Work Time: 192s
  Worker Score: 0.9286
 END ANNOTATION -->
 <g display="inline">
  <title>Layer 1</title>
  <path t="0,313,329,329,352,352,360,372,372,395,395,395,412,412,427,445,460,475,495,495,512,512,522,522,522,522,545,545,562,575,577,592,595,607,607,627,627,642,642,662,662,662,677,677,695,695,710,712,727,727,727,727,727,742,742,742,742,762,762,762,762,777,777,777,777,777,795,795,795,795,812,812,812,812,827,827,827,827,827,845,845,845,845,862,862,862,862,862,875,875,875,875,895,895,895,895,912,912,912,912,927,927,927,927,927,945,945,945,962,962,962,962,962,962,977,977,977,977,977,995,995,995,995,1012,1012,1012,1022,1022,1022,1022,1047,1047,1047,1047,1067,1067,1067,1067,1067,1085,1085,1085,1085,1090,1090,1090,1090,1117,1117,1117,1117,1117,1132,1132,1132,1132,1150,1150,1150,1150,1160,1160,1160,1160,1200,1200,1200,1200,1200,1210,1210,1210,1210,1210,1210,1210,1212,1227,1227,1227,1227,1227,1227,1227,1242,1242,1242,1242,1242,1242,1267,1267,1267,1267,1267,1267,1267,1267,1272,1272,1272,1272,1272,1272,1272,1297,1300,1300,1300,1300,1312,1312,1312,1312,1312,1312,1332,1332,1332,1332,1332,1332,1332,1340,1340,1367,1367,1367,1367,1377,1377,1377,1390,1390,1390,1390,1390,1390,1417,1417,1417,1417,1432,1432,1432,1432,1440,1440,1440,1440,1467,1467,1467,1467,1472,1472,1472,1472,1472,1472,1497,1497,1497,1500,1500,1512,1512,1512,1512,1512,1512,1532,1532,1532,1532,1532,1532,1532,1547,1547,1547,1547,1562,1562,1562,1562,1562,1562,1562,1562,1565,1607,1607,1607,1607,1607,1607,1607,1607,1622,1622,1622,1622,1622,1622,1622,1622,1622,1660,1660,1660,1660,1660,1660,1660,1660,1662,1690,1690,1690,1690,1690,1692,1692,1692,1692,1727,1727,1727,1727,1727,1727,1727,1730,1730,1745,1747,1747,1747,1747,1747,1747,1747,1747,1787,1790,1790,1790,1790,1790,1790,1790,1790,1810,1810,1810,1810,1810,1812,1812,1812,1812,1842,1842,1842,1842,1842,1845,1845,1845,1845,1867,1867,1867,1867,1867,1867,1867,1870,1870,1910,1912,1912,1912,1912,1947,1947,1962,2007,2027,2027,2027,2027,2027,2057,2057,2057,2057,2090,2090,2142,2165,2217,2257,2295,2295,2307,2362,2362,2382,2417,2457,2460,2591,2634,2756,2826,2853,2871,2908,2911,3003,3033,3053,3053,3086,3103,3118,3153,3156,3178,3231,3231,3231,3253,3253,3261,3261,3286,3286,3321,3343,3343,3378,3381,3381,3393,3396,3433,3443,3466,3466,3466,3486,3488,3526,3526,3526,3546,3546,3546,3548,3561,3561,3561,3563,3586,3588,3588,3588,3588,3588,3621,3621,3621,3621,3621,3623,3623,3623,3653,3653,3653,3653,3656,3656,3668,3668,3668,3668,3668,3671,3706,3708,3708,3708,3708,3708,3708,3726,3726,3726,3726,3726,3753,3753,3756,3771,3771,3808,3808,3808,3808,3846,3846,3846,3846,3848,3848,3858,3858,3858,3903,3903,3903,3903,3906,3906,3906,3911,3911,3913,3913,3916,3916,3916,3953,3953,3953,3953,3956,3956,3956,3956,3988,3991,3991,3991,3991,3991,3991,3993,3993,4011,4011,4011,4013,4013,4013,4013,4013,4013,4033,4036,4036,4036,4036,4036,4036,4038,4038,4053,4053,4053,4053,4053,4056,4056,4056,4056,4101,4101,4101,4101,4103,4103,4103,4103,4103,4111,4111,4111,4113,4113,4113,4113,4113,4116,4146,4146,4148,4148,4148,4148,4148,4148,4151,4181,4183,4183,4183,4183,4183,4186,4193,4196,4231,4231,4231,4231,4231,4233,4251,4251,4251,4251,4251,4253,4253,4253,4253,4291,4291,4291,4291,4291,4293,4293,4298,4298,4298,4301,4301,4301,4301,4301,4303,4328,4328,4331,4331,4331,4331,4331,4333,4333,4348,4348,4348,4348,4351,4351,4351,4351,4353,4391,4391,4391,4391,4393,4393,4393,4393,4396,4428,4428,4431,4431,4431,4431,4431,4433,4448,4448,4448,4451,4451,4451,4451,4451,4453,4491,4491,4491,4493,4493,4493,4493,4493,4496,4501,4501,4501,4501,4503,4503,4503,4538,4538,4538,4541,4541,4541,4541,4541,4576,4576,4576,4576,4578,4578,4578,4588,4588,4588,4588,4591,4591,4638,4638,4641,4641,4641,4643,4646,4648,4648,4648,4651,4691,4691,4691,4691,4693,4693,4693,4693,4723,4723,4723,4723,4726,4726,4726,4726,4728,4753,4753,4753,4756,4756,4756,4756,4758,4793,4796,4796,4796,4798,4798,4806,4806,4806,4808,4808,4808,4833,4836,4836,4836,4838,4866,4866,4868,4868,4883,4883,4883,4883,4913,4913,4946,4948,4948,4948,4948,4978,4978,4981,4981,4981,5011,5011,5011,5013,5013,5026,5026,5028,5028,5028,5066,5066,5066,5068,5068,5103,5103,5106,5106,5121,5121,5121,5123,5123,5123,5146,5148,5148,5148,5151,5151,5151,5151,5171,5171,5171,5171,5173,5173,5173,5176,5176,5203,5203,5203,5206,5206,5206,5231,5233,5233,5233,5268,5268,5268,5271,5298,5298,5341,5341,5343,5343,5351,5351,5353,5353,5353,5356,5381,5381,5381,5383,5383,5408,5408,5411,5451,5451,5466,5468,5498,5498,5498,5501,5501,5543,5543,5543,5543,5593,5666,5721,5751,5758,5806,5816,5858,5858,5893,5916,5946,5953,5996,5998,6033,6033,6036,6036,6051,6051,6051,6086,6118,6118,6128,6131,6131,6163,6163,6208,6208,6226,6266,6298,6298,6301,6306,6306,6353,6353,6371,6371,6408,6433,6456,6456,6503,6533,6538,6541,6591,6651,6651,6726,6741,6757,6840,6856,6874,6874,6901" d="m165.51137,235.09091c1.82533,0 2.83333,0.00174 3.62534,0c1.02733,-0.00226 1.76207,0.04417 2.61749,-0.35266c0.91261,-0.42337 1.62866,-0.64508 2.52116,-0.64734c0.912,-0.0023 1.56009,0.01335 2.73601,0c0.91685,-0.01042 1.37706,-0.717 2.11067,-0.98933c0.83426,-0.30971 1.69307,-0.36377 2.38933,-1.01067c0.60327,-0.5605 1.44327,-0.97095 2.14133,-1.084c1.19572,-0.19363 1.95982,-0.34235 2.75734,-0.49066c0.76515,-0.1423 1.71123,-0.34732 2.65866,-0.41467c0.85146,-0.06053 1.783,-0.19234 2.44267,-0.53149c1.01137,-0.51997 1.4753,-1.01453 2.32117,-1.57918c0.64046,-0.42754 1.27379,-1.1783 1.93216,-1.61465c0.70541,-0.46754 1.81728,-0.26714 2.82518,-0.50684c0.69878,-0.16618 1.32271,-0.47159 2.32016,-0.9785c0.76985,-0.39125 1.59935,-0.87708 2.19066,-1.40001c0.75934,-0.67152 1.38345,-1.13982 2.244,-1.39999c0.77789,-0.23518 1.70326,-0.39346 2.1875,-0.47917c0.97157,-0.17197 2.31337,-0.34703 3.0405,-0.4395c0.89816,-0.11421 1.72429,-0.29507 2.58168,-0.74533c0.68915,-0.36191 1.38069,-0.86879 2.166,-1.278c1.16638,-0.60779 1.5843,-0.72154 2.38649,-0.89549c0.77829,-0.16876 1.93999,-0.25877 2.983,-0.60551c0.68097,-0.22638 1.30879,-0.58536 1.91701,-0.96599c1.22156,-0.76448 1.80188,-1.19817 2.42532,-1.57018c0.62939,-0.37556 1.63872,-0.87311 2.3645,-1.1355c0.74387,-0.26894 1.52405,-0.47957 2.31601,-0.68399c1.19676,-0.30891 2.00122,-0.4966 2.79866,-0.72217c0.80269,-0.22707 2.00275,-0.63898 2.8,-0.96184c0.80283,-0.32512 1.59576,-0.66766 2,-0.8075c1.18858,-0.41115 1.99675,-0.55554 2.78932,-0.64851c0.77309,-0.09068 2.24756,-0.20912 2.92534,-0.34666c0.65327,-0.13257 1.58195,-0.41579 2.48534,-0.71466c0.91013,-0.3011 1.54321,-0.51648 2.21432,-0.75717c1.12163,-0.40225 1.95068,-0.72632 2.815,-1.0575c0.8477,-0.32481 1.24207,-0.50186 2.58551,-0.94301c0.69016,-0.22662 1.37129,-0.42902 2.59216,-1.12799c0.42229,-0.24178 1.34178,-0.83578 1.83467,-1.15601c0.50449,-0.32774 1.50827,-0.99408 2.45831,-1.625c0.8447,-0.56096 1.21542,-0.84039 1.95834,-1.25c1.00104,-0.5519 2.05917,-0.86229 2.78983,-0.9735c0.72803,-0.11081 1.45734,-0.06935 2.70917,-0.3315c0.80588,-0.16876 1.54865,-0.5387 2.37601,-0.94501c0.97726,-0.47993 1.67746,-0.83723 2.41852,-1.12349c1.06821,-0.41263 1.76419,-0.54945 2.43347,-0.65918c1.02267,-0.16765 2.15253,-0.36861 2.98135,-0.62c0.43671,-0.13245 1.31665,-0.44095 2.17084,-0.7825c1.1683,-0.46715 1.81281,-0.75632 2.64166,-1.14816c0.52402,-0.24774 1.65961,-0.82997 2.33517,-1.14816c0.72293,-0.3405 1.47696,-0.70345 2.68564,-1.01851c0.7905,-0.20605 1.60104,-0.27483 2.40002,-0.384c0.80109,-0.10947 2.00238,-0.38373 2.39731,-0.51733c0.78708,-0.26628 1.50943,-0.64006 2.86935,-1.09866c0.55899,-0.18851 1.62061,-0.34317 2.18665,-0.416c1.01199,-0.1302 1.81067,-0.26689 2.66751,-0.43816c0.87991,-0.17587 2.14981,-0.46472 2.91516,-0.68317c0.74948,-0.21393 1.52557,-0.49678 1.94086,-0.66751c1.46716,-0.60315 2.03055,-0.89169 2.64581,-1.1805c0.65005,-0.30515 1.32446,-0.62589 2.01901,-0.948c0.70279,-0.32593 1.392,-0.68465 3.45831,-1.5c0.63049,-0.24879 1.2417,-0.45274 1.82852,-0.633c1.10477,-0.33934 1.64139,-0.46413 2.66748,-0.74834c1.00589,-0.27861 2.00803,-0.60265 2.51752,-0.77133c1.04898,-0.34731 1.59134,-0.53261 2.15799,-0.69467c1.81903,-0.52023 2.49161,-0.63583 3.18051,-0.76866c0.70511,-0.13596 1.42398,-0.25867 2.14798,-0.384c0.72403,-0.12534 1.45084,-0.21106 3.5,-0.66667c0.63837,-0.14192 1.24567,-0.30884 1.82401,-0.49049c1.09869,-0.34509 1.61453,-0.53755 2.58667,-0.94417c1.37762,-0.57622 1.80603,-0.79712 2.664,-1.19867c0.85138,-0.39847 1.27295,-0.61118 2.59201,-1.2c0.91653,-0.40913 1.3952,-0.60397 2.375,-1.02083c0.50513,-0.2149 1.02505,-0.42499 2.625,-1.14584c0.55579,-0.2504 1.11261,-0.51338 2.216,-1.03732c0.5343,-0.25371 1.53268,-0.73624 1.992,-0.94135c1.39301,-0.62206 2.08487,-0.80699 3.12531,-1.02133c0.55402,-0.11414 1.51859,-0.34413 2.19919,-0.48067c1.25449,-0.25165 2.07376,-0.29637 2.86331,-0.51967c0.95734,-0.27075 1.69415,-0.68005 2.52417,-1.11966c0.43591,-0.23088 1.30981,-0.71754 1.74667,-0.94667c1.21634,-0.63797 1.95337,-0.95444 2.94534,-1.38133c0.61929,-0.26651 1.53149,-0.68944 2.42133,-1.22133c0.60718,-0.36293 1.194,-0.77448 2.10016,-1.36366c0.90463,-0.5882 1.51791,-0.97052 2.18518,-1.22968c1.01321,-0.39349 1.77512,-0.47241 2.55634,-0.54984c0.81891,-0.08116 2.12674,-0.17477 3.04367,-0.3075c0.47284,-0.06845 1.43848,-0.24202 2.41916,-0.47501c0.49844,-0.11842 1.99615,-0.55693 2.49417,-0.72099c0.99234,-0.3269 1.47336,-0.51959 2.44415,-0.8075c1.38113,-0.40959 1.83456,-0.47768 2.7135,-0.60901c0.88385,-0.13206 1.8139,-0.24736 2.29834,-0.35417c1.62164,-0.35756 2.1962,-0.59428 2.79434,-0.80466c0.60724,-0.21356 1.80261,-0.66699 2.37866,-0.884c0.54929,-0.20694 1.96335,-0.70386 2.71799,-0.9045c1.0495,-0.27904 1.44247,-0.33768 2.82101,-0.82018c0.58777,-0.20572 1.22488,-0.46852 1.91098,-0.74849c0.72192,-0.29459 1.46381,-0.60617 2.21701,-0.91951c0.75079,-0.31233 1.47626,-0.6454 3.50034,-1.40149c0.595,-0.22226 1.18512,-0.41533 1.785,-0.59851c0.62674,-0.19139 1.30606,-0.37959 2.05499,-0.58049c0.83768,-0.2247 2.86505,-0.7513 4.08701,-1.07068c1.35406,-0.35391 2.82193,-0.73851 4.38599,-1.14749c1.64194,-0.42935 3.34387,-0.87392 5.08801,-1.3275c1.76785,-0.45975 5.30377,-1.37335 7.03867,-1.8175c1.70245,-0.43584 3.37131,-0.86017 5.004,-1.27499c1.59464,-0.40515 3.14948,-0.79942 4.66202,-1.185c1.46881,-0.37444 4.26645,-1.09331 5.59131,-1.44017c1.27777,-0.33453 2.50937,-0.66174 3.69601,-0.9855c1.146,-0.31267 2.25168,-0.62184 3.31799,-0.9315c1.03232,-0.29979 2.99533,-0.90031 3.92932,-1.2045c0.90869,-0.29594 1.78992,-0.59648 2.64603,-0.89999c0.83655,-0.29659 1.65167,-0.59732 2.448,-0.90001c0.78232,-0.29736 2.30438,-0.89902 3.04849,-1.19949c0.7319,-0.29555 1.44644,-0.58838 2.14349,-0.8685c0.67395,-0.27083 1.32239,-0.52826 1.9455,-0.7605c0.58902,-0.21954 1.66428,-0.57965 2.14734,-0.70717c0.44391,-0.11719 0.86075,-0.2027 1.2525,-0.267c0.37003,-0.06073 0.72656,-0.10205 1.07251,-0.14101c0.34073,-0.03836 1.02805,-0.11961 1.38184,-0.17766c0.3609,-0.05922 0.72296,-0.12978 1.08298,-0.20401c0.35464,-0.07314 0.69867,-0.14934 1.02902,-0.222c0.31232,-0.06868 0.86661,-0.18791 1.10315,-0.23132c0.21286,-0.03906 0.41022,-0.06952 0.59851,-0.09601c0.18604,-0.02617 0.37741,-0.05002 0.58051,-0.078c0.22226,-0.03062 0.75168,-0.11296 1.07031,-0.16866c0.35205,-0.06152 0.72964,-0.13144 1.1265,-0.20401c0.40881,-0.07477 0.82248,-0.15053 1.23453,-0.222c0.40262,-0.06984 1.15317,-0.18825 1.48883,-0.23132c0.30707,-0.0394 0.59634,-0.01665 1.29666,-0.14667c0.99905,-0.18547 1.63681,-0.80284 2.46799,-0.964c0.94629,-0.18349 1.90234,-0.33855 2.45599,-0.58c0.65485,-0.28558 1.36981,-0.63077 2.14801,-0.948c1.18649,-0.48369 1.97858,-0.73487 2.73349,-0.941c1.00162,-0.2735 2.00345,-0.49765 2.85852,-0.54033c0.90286,-0.04507 1.81656,0.14685 2.68317,-0.00134c0.8425,-0.14407 1.50821,-0.91492 2.32083,-0.99866c0.8316,-0.0857 1.85266,-0.00134 2.54733,-0.00134c1.01666,0 1.95715,0 2.81934,0c0.83331,0 1.81281,-0.0457 2.71198,0c0.84058,0.04272 1.12067,0.80133 1.12134,1.7c0.00067,0.90001 0,1.8 0,2.68933c0,0.96783 0.1637,1.86797 -0.22131,2.71068c-0.30579,0.66931 -0.76801,1.5 -0.77869,2.39999c-0.01068,0.89999 -0.2677,1.71562 -0.80133,2.3c-0.67688,0.7413 -1.31363,1.51314 -1.69867,2.22083c-0.31229,0.57397 -0.79996,1.57919 -1.09998,2.17917c-0.49994,0.99969 -0.78604,1.85449 -1.40002,2.46667c-0.61819,0.61638 -0.75635,1.46281 -1.28665,2.16666c-0.44073,0.58496 -1.371,1.22542 -1.71335,1.6875c-0.52371,0.70686 -1.3353,1.60059 -1.71332,2.2765c-0.4707,0.84164 -0.72244,1.62386 -1.45334,2.36934c-0.47894,0.48849 -1.12195,1.21843 -1.95065,1.66533c-0.65527,0.35338 -1.65924,0.72714 -2.14401,1.03999c-0.80295,0.5182 -1.57974,1.11891 -2.28601,1.72801c-0.68561,0.59126 -1.11685,1.02548 -2.14066,1.80133c-0.55887,0.42351 -1.19104,0.84029 -1.884,1.284c-1.16513,0.74602 -1.6022,0.99918 -2.51065,1.57201c-0.48102,0.30331 -0.9834,0.61244 -2.00534,1.31467c-1.08813,0.74773 -1.63464,1.16878 -2.19601,1.59467c-0.56998,0.43242 -1.1391,0.87627 -1.716,1.3125c-1.14288,0.86418 -1.70074,1.29057 -2.83331,2.02083c-0.53781,0.34677 -1.59909,0.93565 -2.10934,1.20267c-0.4935,0.25824 -1.46295,0.69914 -2.724,1.464c-0.39902,0.242 -1.13773,0.78856 -1.85416,1.375c-0.36856,0.3017 -1.1218,0.95854 -1.97919,1.625c-0.94049,0.73105 -1.45651,1.08357 -1.97598,1.448c-0.52255,0.36659 -1.56537,1.07645 -2.07199,1.416c-1.38577,0.92877 -1.79172,1.20396 -2.54401,1.68666c-0.67221,0.4313 -1.28156,0.84183 -2.50668,1.396c-0.5809,0.26277 -1.43619,0.56233 -2.47983,0.7655c-0.89499,0.17422 -1.9371,0.43057 -2.53949,0.84c-0.47845,0.32518 -1.31204,0.98676 -2.04868,1.44785c-0.85535,0.53539 -1.33475,0.78607 -2.3125,1.29166c-0.4812,0.24883 -1.38672,0.7171 -2.51434,1.17784c-0.7822,0.3196 -1.53714,0.55757 -2.5065,1.0305c-0.92075,0.4492 -1.43686,0.74718 -2.00531,1.03467c-0.59717,0.30202 -1.20425,0.64157 -2.51733,1.16266c-1.29401,0.51352 -1.95331,0.66119 -2.59067,0.8c-0.62283,0.13565 -1.84583,0.33122 -2.44,0.43733c-0.58585,0.10463 -2.28955,0.54291 -2.82584,0.78467c-1.10324,0.49736 -1.62985,0.85419 -2.18335,1.19733c-0.5733,0.35541 -1.15747,0.74139 -1.7775,1.12201c-1.31793,0.80905 -2.0419,1.20149 -2.79865,1.592c-0.77722,0.40108 -1.58127,0.78732 -2.40302,1.161c-0.82629,0.37573 -1.65863,0.7356 -2.49298,1.071c-1.62561,0.65349 -2.42139,0.9312 -3.19601,1.20267c-0.75839,0.26579 -1.50824,0.51657 -2.2485,0.76801c-0.73575,0.24991 -1.47174,0.4978 -2.20349,0.76801c-1.48972,0.55008 -2.24075,0.87079 -3.004,1.20132c-0.77679,0.3364 -1.56009,0.6918 -2.35501,1.0515c-0.80508,0.3643 -1.61743,0.73685 -2.44501,1.0965c-1.6749,0.72787 -2.53253,1.0657 -3.39465,1.39601c-0.86053,0.3297 -1.72162,0.64288 -2.577,0.94499c-0.84332,0.29785 -1.67419,0.5815 -2.487,0.85501c-1.55374,0.52284 -2.29074,0.76563 -3.004,1.00266c-0.69708,0.23164 -1.3851,0.45941 -2.0715,0.68401c-0.69092,0.22607 -1.39386,0.45422 -2.11652,0.68401c-1.52829,0.48595 -2.3483,0.73804 -3.20267,1.00133c-0.88397,0.27242 -1.7934,0.55048 -2.7225,0.83549c-0.94421,0.28966 -1.89877,0.58217 -2.85748,0.88051c-1.91425,0.59569 -2.85757,0.89798 -3.78668,1.19466c-0.90921,0.29033 -1.79276,0.57388 -2.64749,0.84151c-0.8186,0.2563 -1.59613,0.49864 -2.33249,0.7065c-1.30957,0.36964 -1.88339,0.49719 -2.40268,0.60266c-0.47119,0.0957 -0.90524,0.16714 -1.30649,0.23251c-0.3761,0.06126 -0.73608,0.11304 -1.08151,0.1875c-0.69327,0.14944 -1.41821,0.39641 -2.21201,0.71599c-0.90546,0.36453 -1.39954,0.58708 -1.93866,0.80534c-1.20212,0.48666 -1.87762,0.73643 -2.59332,0.99466c-0.74527,0.26891 -1.51498,0.535 -2.2995,0.79651c-0.78751,0.26251 -1.57141,0.5162 -2.34451,0.7515c-1.46503,0.44588 -2.79855,0.80302 -3.42398,0.96851c-0.60925,0.16119 -1.21436,0.3089 -2.42136,0.66333c-0.62732,0.18422 -1.95801,0.63211 -2.67484,0.90166c-0.75397,0.28352 -1.53055,0.59619 -2.32648,0.9225c-0.80975,0.33197 -1.62247,0.67389 -2.43451,1.01251c-0.80261,0.33469 -2.35229,0.97061 -3.08966,1.25816c-0.71201,0.27766 -1.40982,0.53876 -2.09851,0.79199c-0.68564,0.25211 -1.3775,0.50085 -2.08051,0.756c-0.72235,0.26218 -2.25201,0.82663 -3.06998,1.13718c-0.85007,0.32274 -1.72076,0.659 -2.6055,0.9975c-0.88828,0.33984 -1.77094,0.67624 -2.64151,0.9975c-0.84546,0.312 -2.43274,0.868 -3.16083,1.09834c-0.68274,0.216 -1.33401,0.40402 -1.95901,0.5775c-0.60568,0.16812 -1.20309,0.3251 -1.797,0.48749c-0.60077,0.16426 -1.85269,0.52722 -2.51584,0.74217c-1.41934,0.46007 -2.16467,0.72844 -2.93933,0.99867c-0.80005,0.27908 -1.62271,0.57002 -2.47049,0.86099c-1.75674,0.60295 -2.66656,0.89938 -3.58801,1.19467c-0.92389,0.29607 -1.84479,0.58313 -2.754,0.86099c-0.88812,0.27142 -1.74869,0.52951 -2.57401,0.77101c-1.50818,0.4413 -2.18051,0.62895 -2.80133,0.80133c-0.57822,0.16055 -1.12387,0.30846 -1.64551,0.4485c-0.50638,0.13594 -1.00726,0.26794 -1.5105,0.40349c-1.6174,0.43564 -2.2085,0.6022 -2.82349,0.77901c-0.63705,0.18314 -1.29388,0.37083 -2.642,0.8c-0.69202,0.22029 -2.08792,0.70114 -2.78616,0.95966c-0.6991,0.25883 -1.39224,0.52908 -2.07901,0.804c-0.68057,0.27243 -1.3497,0.54842 -2.00699,0.82201c-1.88211,0.7834 -2.47037,1.03362 -3.04501,1.26466c-0.55844,0.22453 -1.64493,0.63649 -2.18399,0.80533c-1.06143,0.33244 -2.14917,0.56985 -3.26801,0.71468c-0.56424,0.07303 -1.13245,0.11232 -2.25601,0.21866c-0.55173,0.05222 -2.13177,0.26698 -2.61832,0.39233c-0.93692,0.24138 -1.80679,0.58652 -2.634,0.966c-0.40915,0.1877 -1.60315,0.80458 -2.427,1.18651c-0.85876,0.39812 -1.31558,0.59966 -2.32333,0.91916c-1.1149,0.35347 -1.74365,0.4691 -2.39999,0.60266c-0.68631,0.13966 -2.14246,0.40112 -2.90134,0.54401c-0.77579,0.14607 -1.5686,0.28287 -3.15735,0.672c-0.80301,0.19669 -1.59988,0.43059 -2.39548,0.672c-0.7951,0.24127 -1.58337,0.49564 -2.36852,0.744c-0.77852,0.24628 -1.54462,0.50439 -3.06932,0.91734c-0.74188,0.20093 -1.47624,0.36781 -2.196,0.519c-0.70163,0.14737 -1.38698,0.27467 -2.052,0.39299c-0.64233,0.11427 -2.41911,0.41901 -2.9545,0.52118c-1.00252,0.19131 -1.47539,0.30115 -2.40417,0.46416c-0.9247,0.16229 -1.8925,0.28044 -2.92799,0.35199c-0.53697,0.03711 -1.63211,0.08182 -2.18134,0.10934c-1.0829,0.05429 -2.12015,0.12045 -3.08,0.26001c-0.90173,0.1311 -1.75009,0.32202 -2.16167,0.41916c-1.21132,0.28586 -2.00626,0.50006 -2.79834,0.68484c-0.77333,0.18042 -2.24217,0.46088 -2.92265,0.52533c-0.92361,0.08746 -1.71675,0.05109 -2.69168,0.08981c-0.71736,0.0285 -1.78203,0.21762 -2.52049,0.34818c-0.83818,0.14819 -1.7357,0.30142 -2.19583,0.36334c-1.35614,0.18246 -2.22697,0.23682 -3.08,0.26315c-0.85242,0.02634 -1.284,0.02017 -2.62151,0.02084c-0.93567,0.00046 -1.89932,0 -2.38916,0c-0.99066,0 -1.9894,-0.00809 -2.98801,0.00266c-0.99078,0.01065 -1.48422,0.00006 -2.44417,0.11166c-1.39821,0.16257 -1.84213,0.30753 -2.6955,0.591c-0.8269,0.27469 -1.58366,0.64145 -2.69499,0.96133c-0.6769,0.19485 -1.70786,0.30536 -2.43367,0.32434c-1.23262,0.03223 -2.189,0.009 -2.7045,0.009c-1.091,0 -1.66051,0 -2.242,0c-1.7865,0 -2.38699,0 -2.99049,0c-1.22801,0 -1.85851,0 -2.50401,0c-0.6635,0 -1.34799,0 -2.79199,0c-0.76384,0 -1.55067,0 -2.3535,0c-0.81183,0 -1.62567,0 -2.43449,0c-0.79684,0 -1.57468,0 -3.72585,0c-0.64349,0 -1.25299,0 -2.38199,0c-0.52551,0 -1.5135,0 -2.88251,0c-0.86,0 -1.67999,0 -2.45999,0c-1.095,0 -1.77501,0 -2.72,0c-0.85501,0 -1.85767,0 -2.54167,0c-1.16667,0 -1.97067,0 -2.58333,0c-0.69267,0 -1.91667,0 -2.87001,0c-0.50916,0 -1.56749,0 -2.10666,0c-1.07333,0 -2.59683,0 -3.06801,0c-0.88933,0 -1.71466,-0.00037 -2.48399,0c-1.40134,0.00067 -2.04495,-0.03531 -2.92633,0.05716c-1.04713,0.10986 -1.68524,0.45792 -2.795,0.77618c-0.7148,0.20499 -1.83334,0.16666 -2.50667,0.16666c-0.79333,0 -1.66667,0 -2.12083,0c-1.3725,0 -2.2485,0 -3.0605,0c-0.724,0 -2.21182,0.16269 -2.47867,-0.42532c-0.38509,-0.84857 -0.14978,-1.78726 0.00017,-2.6745c0.144,-0.85205 0.80516,-1.37854 1.44266,-2c0.62701,-0.61124 1.70099,-0.4986 2.43584,-1.12151c0.61351,-0.52007 1.01524,-1.33995 1.69334,-1.69734c0.82097,-0.43268 1.86023,-0.73134 2.38066,-1.14383c0.55946,-0.44344 1.05504,-0.98666 2.12567,-1.79433c0.65231,-0.4921 1.41092,-0.95901 2.28566,-1.10718c0.93279,-0.158 1.6293,-0.1653 2.64133,-0.74583c0.50684,-0.29074 1.22388,-0.81125 2.02534,-1.40349c0.71503,-0.52837 1.70403,-0.58775 2.39999,-0.97067c0.8493,-0.46729 1.07198,-1.47047 1.89084,-2.01601c0.67047,-0.44667 1.28627,-0.68739 2.274,-1.2c0.75237,-0.39046 1.50072,-0.92624 2.15717,-1.39999c0.87508,-0.63155 1.56363,-1.05992 2.49016,-1.24284c0.84282,-0.1664 1.79543,0.11639 2.55717,-0.14249c0.88791,-0.30176 1.6339,-0.81282 2.40134,-1.19867c0.72278,-0.36339 1.66202,-0.5479 2.63199,-0.88268c0.68703,-0.23712 1.49174,-0.71164 2.33334,-1c0.83849,-0.28729 1.5,-0.83333 2,-1.66666l0.83333,-0.33334l0.60001,-0.40799l0.81065,-0.40001" id="svg_1" stroke-width="2" stroke="#000" fill="none"/>
  <path t="8920,9316,9354,9354,9379,9379,9379,9394,9394,9412,9412,9427,9427,9444,9540,9540,9571" d="m207.51137,221.09091c-3.4375,0 -4.33333,-0.16666 -5.04167,-0.52083c-0.95833,-0.47916 -1.55832,-0.77921 -2.35832,-1.17917c-0.79982,-0.39987 -1.55377,-0.84805 -2.43333,-1.13333c-0.89905,-0.2916 -1.80838,-0.54662 -2.51401,-0.81401c-0.88312,-0.33466 -1.7525,-0.57416 -2.36732,-1.15399l-0.33801,-0.84151" id="svg_2" stroke-width="2" stroke="#000" fill="none"/>
  <path t="57584,57798,57798,57798,57798,57798,57814,57814,57814,57814,57834,57834,57834,57834,57834,57844,57844,57844,57844,57862,57862,57877,57877,57877,57877,57877,57889,57889,57889,57889,57889,57889,57889,57912,57912,57912,57939,57939,57939,57939,57954,57954,57954,57974,57977,57977,57977,57992,57992,57992,57992,58012,58012,58012,58012,58027,58027,58027,58042,58064,58064,58077,58077,58077,58077,58094,58097,58097,58097,58119,58119,58119,58162,58162,58162,58162,58162,58162,58202,58202,58202,58202,58202,58202,58222,58222,58222,58222,58222,58222,58222,58222,58257,58257,58257,58259,58259,58259,58259,58259,58259,58297,58297,58297,58297,58297,58347,58347,58633,58672,58699,58739,58759,58817,58817,58817,58889,58922,58922,58962,58972,59370,59441,59441,59466,59479,59491,59509,59509,59526,59526,59541,59541,59559,59559,59559,59576,59576,59576,59594,59594,59609,59609,59624,59624,59641,59641,59659,59676,59676,59676,59694,59694,59694,59726,59726,59741,59741,59741,59754,59754,59776,59776,59776,59794,59794,59794,59794,59794,59809,59809,59809,59809,59826,59826,59841,59856,59856,59856,59876,59876,59876,59891,59894,59909,59909,59909,59926,59926,59941,59941,59941,59959,59959,59986,59986,60004,60026,60026,60041,60059,60076,60076,60099,60099,60104,60104,60104,60121,60121,60141,60141,60154,60171,60194,60194,60219,60367,60418,60428,60440,60508,61696,61712,61730,61730,61730,61755,61755,61775,61775,61775,61792,61795,61807,61810,61822,61842,61845,61857,61870,61870,61895,61895,61895,61905,61905,61905,61905,61925,61925,61945,61945,61960,61960,61975,61975,61990,62005,62005,62025,62025,62025,62042,62057,62070,62092,62110,62127,62267,62313,62361,62361,62393,62411,62433,62451,62461,62461,62473,62491,62491,62521,62538,62538,62561,62561,62578,62578,62593,62611,62621,62641,62673,62975,62991,63019,63019,63019,63044,63047,63047,63059,63077,63094,63104,63104,63124,63149,63149,63157,63179,63179,63192,63192,63192,63192,63204,63204,63204,63229,63229,63247,63247,63267,63279,63279,63289,63312,63324,63324,63324,63324,63347,63347,63347,63347,63362,63362,63362,63364,63379,63379,63404,63432,63444,63462,63462,63462,63479,63479,63479,63479,63497,63499,63499,63507,63509,63509,63509,63529,63529,63529,63539,63539,63559,63562" d="m179.51137,231.09091c-1.70667,-1.48534 -2.12503,-1.6571 -3.04167,-2.02083c-0.47835,-0.1898 -1.45341,-0.52457 -2.67284,-1.17917c-0.68777,-0.36922 -1.25613,-0.81255 -1.83899,-1.2c-0.93327,-0.62038 -1.69627,-1.00461 -2.52251,-1.40001c-0.84573,-0.40472 -1.29376,-0.54919 -2.424,-1.2c-0.95381,-0.54921 -1.39574,-1.02301 -2.09601,-1.42934c-0.9642,-0.55946 -1.69119,-0.56943 -2.73732,-0.90399c-0.65103,-0.20821 -1.36726,-0.54579 -2.16,-0.96001c-0.88843,-0.46422 -1.84219,-1.03639 -2.34883,-1.34917c-1.05431,-0.65088 -1.57819,-0.99495 -2.09534,-1.33667c-0.98891,-0.65346 -1.44556,-0.9576 -2.5555,-1.75633c-0.76392,-0.54973 -1.3365,-0.99719 -2.27116,-1.36467c-0.90585,-0.35616 -1.60725,-0.50696 -2.26918,-0.78516c-0.94182,-0.39583 -1.71005,-0.94481 -2.41483,-1.51917c-0.7234,-0.58954 -1.50575,-1.20013 -2.07266,-1.5955c-0.58038,-0.40475 -1.47917,-1.00002 -2.37917,-1.60001c-0.60001,-0.39999 -1.19966,-0.80051 -2.10001,-1.39999c-0.89516,-0.59602 -1.47513,-0.98552 -2.04283,-1.34283c-1.02832,-0.64723 -1.73219,-0.98526 -2.4705,-1.45583c-0.87848,-0.55991 -1.45073,-1.24307 -2.04916,-1.72217c-0.88872,-0.71149 -1.48816,-0.96815 -2.12416,-1.3045c-0.67056,-0.35463 -1.97867,-1.0107 -2.54401,-1.28934c-0.74675,-0.36807 -1.44954,-0.69017 -2.45734,-1.088c-0.8724,-0.34438 -1.54077,-0.59082 -2.64533,-1.13066c-0.4132,-0.20195 -1.27842,-0.67026 -2.16666,-1.20834c-0.45267,-0.27423 -1.3454,-0.8427 -2.16666,-1.45833c-0.78114,-0.58554 -1.50411,-1.22121 -1.875,-1.54167c-0.77822,-0.67241 -1.18948,-1.03825 -2.125,-1.79166c-0.51508,-0.41481 -1.6568,-1.28195 -2.26667,-1.73868c-0.62844,-0.47064 -1.27387,-0.94861 -1.9275,-1.437c-0.65971,-0.49294 -1.97386,-1.48924 -2.61733,-1.99049c-0.63518,-0.49478 -1.25543,-0.98729 -1.8645,-1.46851c-0.5946,-0.46979 -1.1727,-0.92654 -1.7385,-1.3605c-0.54494,-0.41797 -1.57719,-1.18404 -2.54283,-1.81416c-0.43996,-0.28709 -1.2632,-0.75433 -1.93833,-1.18666c-0.97017,-0.62126 -1.48313,-1.5255 -2.385,-1.67067c-0.84314,-0.13573 -1.75267,0 -2.65266,0c-0.87917,0 -1.72055,0.34671 -2.26134,0.85066c-0.64124,0.59756 -1.54832,0.99344 -2.33867,1.43333c-0.64602,0.35956 -1.5,0.76868 -2.3,1.216c-0.8,0.44733 -1.75651,0.59117 -2.21467,1.30133c-0.45787,0.7097 -0.38335,1.70511 -0.27467,2.60933c0.11153,0.92792 0.39451,1.67494 1.18933,2.42267c0.53344,0.50183 1.09676,1.23058 1.4,1.92667c0.39578,0.90852 0.81406,1.58675 1.28533,2.20801c0.60436,0.79671 1.11481,1.54877 1.51917,2.02666c0.75776,0.89555 1.70808,1.35507 2.26216,2.17201c0.4,0.58977 0.42104,1.71672 0.85417,2.3125c0.58237,0.80106 1.21816,1.18442 1.87917,1.93149c0.63956,0.72285 1.00498,1.43924 1.35716,2.05101c0.55525,0.96452 1.04368,1.76041 1.4175,2.241c0.75634,0.97235 1.50914,1.31042 2.14667,1.9615c0.56037,0.57228 1.01612,1.34235 1.657,2.19299c0.47278,0.62752 0.85305,1.47816 1.08417,2.20534c0.23077,0.72604 0.8116,1.58955 1.35267,2.24733c0.59334,0.72131 0.94196,1.05721 1.53416,1.8075c0.81812,1.03651 1.18456,1.71602 1.509,2.32018c0.42417,0.78987 1.04336,1.56987 1.68033,2.14116c0.78021,0.69975 1.18008,1.59978 1.72267,2.25734c0.47788,0.57915 1.15855,1.33995 1.492,1.964c0.41343,0.77374 0.51962,1.81972 0.7565,2.59999c0.25169,0.82903 0.90227,1.58742 1.4075,2.11467c0.71778,0.74907 1.25422,1.2809 1.80383,2.028c0.51141,0.69518 1.04867,1.41341 1.436,2.3145c0.37016,0.86115 0.50323,1.85371 0.94733,2.433c0.58302,0.76047 1.47027,1.11078 1.8595,1.89517c0.44118,0.88907 0.7674,1.54333 1.436,2.14799c0.6305,0.57019 1.02689,1.48123 1.5,2.1875c0.53096,0.79262 0.7654,1.49559 1.1,2.1925c0.45414,0.94592 1.2886,1.38699 1.78934,2.14799c0.4025,0.61171 0.47977,1.68825 0.96783,2.43867c0.51816,0.79671 1.30458,1.16251 2.03217,1.67467c0.65733,0.46272 0.36295,1.46156 0.61517,2.32083c0.22662,0.77208 1.62309,0.89418 1.87383,1.80432c0.20847,0.75671 -1.05379,0.75439 -1.71432,0.46417c-0.77643,-0.34113 -1.58389,-0.73058 -2.364,-1.2c-0.82257,-0.49498 -1.36911,-1.0526 -2.00001,-1.50267c-0.95709,-0.68279 -1.81913,-0.70886 -2.63333,-1.028c-0.81627,-0.31995 -1.24678,-1.22325 -2.16666,-1.66666c-0.64728,-0.312 -1.65491,-0.14551 -2.48534,-0.45201c-0.74577,-0.27527 -1.73699,-0.77762 -2.31467,-1.14667c-0.62676,-0.40041 -1.41449,-1.32249 -1.79549,-1.92599c-0.39926,-0.63242 -0.68708,-1.32133 -1.38317,-2.3775c-0.48119,-0.7301 -1.32321,-1.40146 -2.02133,-1.74367c-0.81304,-0.39854 -1.67091,-0.50227 -2.3,-1.22617c-0.46721,-0.53761 -1.23544,-1.22998 -2.0215,-1.51616c-0.7148,-0.26024 -1.67151,-0.79301 -2.46783,-1.16783c-0.71926,-0.33855 -1.61674,-0.33543 -2.50616,-0.61517c-0.76758,-0.24142 -0.98502,-1.39891 -1.7045,-1.82883c-0.77046,-0.46037 -1.32006,-0.91658 -2.09983,-1.16701c-0.85251,-0.27379 -1.18168,-1.47267 -0.37933,-1.95799c0.7531,-0.45554 1.77916,-0.04167 2.6805,-0.04167c0.96533,0 1.79686,0.18123 2.69334,-0.0045c0.86797,-0.17982 1.42671,-0.75986 2.35266,-0.93834c0.90446,-0.17433 1.86679,0.10936 2.73117,-0.49983c0.61238,-0.43159 1.09167,-1.43175 1.8215,-1.55466c0.8875,-0.14946 1.90258,0.39554 2.764,-0.03867c0.69888,-0.35228 1.22992,-1.06071 1.936,-1.464c0.80085,-0.45741 1.83334,-0.5 2.50983,-0.5c0.7755,0 1.8235,0 2.7435,0c0.76,0 1.90071,-0.31296 2.72583,0.02083c0.68336,0.27644 1.05129,1.25468 1.87267,1.62201c0.85825,0.3838 1.8495,0.35716 2.5335,0.35716c0.94,0 1.948,0 2.812,0c0.80267,0 1.67007,-0.00751 2.34435,0.02083c1.07797,0.0453 2.13986,0.18465 2.79216,0.33183c0.88863,0.20052 1.82391,0.54478 2.64534,0.62651c1.00011,0.0995 1.86816,0.02083 2.76816,0.02083c0.91934,0 1.84561,-0.21606 2.58334,0.284c0.70567,0.47832 1.50209,0.88478 2.18816,1.06866c0.83781,0.22456 1.46411,0.3997 2.50267,0.526c1.11044,0.13504 1.89049,0.13084 2.67984,0.20534c1.20067,0.11331 1.98639,0.26253 2.73616,0.416c0.69217,0.14168 1.79283,0.429 2.63049,0.48933c0.92966,0.06696 1.832,0.01067 2.74101,0.01067c1.02432,0 1.70532,0 2.51233,0c1.17867,0 1.77867,0 2.67867,0c0.89999,0 1.8,0 2.7,0c0.90001,0 1.8,0 2.7,0c0.90001,0 1.5,0 2.69867,0c0.88051,0 1.716,0 2.71468,0l0.84,0l0.96399,0l0.85201,0" id="svg_4" stroke-width="2" stroke="#000" fill="none"/>
  <path t="64744,64998,65032,65032,65032,65054,65054,65074,65074,65119,65119,65119,65154,65154,65154,65187,65187,65204,65204,65204,65237,65237,65237,65269,65269,65289,65334,65334,65334,65349,65349,65349,65387,65387,65387,65417,65459,65492,65574,65765,65804,65804,65821,65831,65844,65869,65906,65926,65926,65944,65979,65996,66011,66029,66044,66061,66079,66079,66079,66089,66089,66089,66109,66109,66109,66109,66126,66126,66362,66378,66404,66426,66444,66444,66444,66461,66461,66461,66476,66476,66489,66489,66511,66511,66526,66544,66559,66576,66591,66591,66611,66611,66636,66659,66689,66716,66746,66764,66764,66887,66887,66955,66973" d="m184.51137,261.09091c-0.04167,2.52084 -0.43671,3.54614 -0.85066,4.25067c-0.29445,0.50116 -0.78024,1.43045 -1.164,2.328c-0.31787,0.74347 -0.88829,1.38007 -1.46933,2.19064c-0.53111,0.74094 -0.88345,1.27042 -1.49451,2.30917c-0.39877,0.67789 -0.70558,1.32285 -1.22284,2.3215c-0.31264,0.60361 -0.94762,1.61493 -1.45583,2.20001c-0.53531,0.61627 -1.34283,1.39999 -1.7415,1.79865c-0.58051,0.58051 -1.44284,1.42664 -1.95467,1.95468c-0.65733,0.67816 -0.93199,1.50266 -1.1675,2.20917c-0.28049,0.84149 -0.57352,1.73926 -0.87917,2.62683c-0.29457,0.85541 -0.57089,1.65723 -1,2.564c-0.28122,0.59424 -0.98883,1.43121 -1.43333,2.24667c-0.42957,0.78806 -1.34665,0.6232 -2,1.16666c-0.69003,0.57397 -0.82225,1.63113 -1.66667,1.8125c-0.88016,0.18906 -1.7955,0.02084 -2.7215,0.02084c-0.87851,0 -1.7785,0 -2.57851,0c-0.89999,0 -1.8192,0.16519 -2.7,-0.02084c-0.8474,-0.17899 -1.59389,-0.91827 -2.5,-0.97916c-0.87701,-0.05893 -1.66451,0 -2.5625,0c-0.84151,0 -1.73767,0 -2.64816,0c-0.62534,0 -1.95601,0 -2.67067,0c-0.72267,0 -1.75166,0 -2.61867,0c-0.9375,0 -2.14563,0.19 -2.47917,-0.5c-0.40746,-0.84293 -0.03108,-1.80457 -0.02083,-2.66666c0.01042,-0.87518 0.05444,-1.52667 0.284,-2.51733c0.19055,-0.82233 0.46626,-1.62576 0.632,-2.62933c0.13802,-0.83575 0.46907,-1.754 0.8,-2.57068c0.36559,-0.90222 0.28333,-1.63199 0.284,-2.59515c0.00064,-0.92084 -0.00008,-1.82083 0,-2.72086c0.00009,-0.90033 0.06558,-1.77585 0.284,-2.56665c0.19821,-0.71765 0.63234,-1.72229 0.716,-2.66934c0.07603,-0.86063 0,-1.76401 0,-2.664c0,-0.89999 0,-1.69998 0,-2.60001l0,-0.89999l0,-0.89999l0,-0.89999" id="svg_5" stroke-width="2" stroke="#000" fill="none"/>
  <path t="70509,70666,70666,70682,70702,70702,70730,70730,70742,70742,70760,70760,70780,70795,70812,70827,70845,70845,70855,70892,70892,70955,70980,70980,70995,71020,71060,71082,71115" d="m115.51137,234.09091c1,-1 1.75601,-0.8421 2,0.02083c0.26744,0.94588 0.60526,1.57378 1.3045,2.28368c0.57642,0.58521 1.1795,1.17949 1.87017,1.87016c0.65867,0.65866 1.29761,1.29582 1.74133,2.024c0.451,0.74011 0.92349,1.31088 1.44116,2.10133c0.52069,0.79506 1.1917,1.1631 1.59017,2c0.41328,0.86801 0.85367,1.50032 1.45267,2.09999c0.69962,0.70039 1.36108,1.24469 1.98933,2c0.54611,0.65656 0.61067,1.60001 0.77734,2.43333l0.82883,0.22383" id="svg_6" stroke-width="20" stroke="#fff" fill="none"/>
  <path t="98487,98666,98819,98851,98952,98996,98996,98996,99118,99118,99134,99134,99157,99394,99409,99435,99485,99523,99523,99571,99581,99628,99741,99741,99781,99791" d="m109.51137,232.09091c1.7,-0.05717 2.42175,-0.68695 3.2955,-0.94284c0.89053,-0.2608 1.87994,-0.20296 2.5405,-0.49316c0.77643,-0.34113 1.57688,-0.7379 2.328,-1.164c0.83121,-0.47153 1.48309,-1.19777 2.336,-1.37917c0.88055,-0.18727 1.8,-0.02083 2.7955,-0.02083c0.87116,0 1.7045,0 2.50449,0c0.9,0 1.86757,-0.07736 2.60001,0.436c0.79009,0.55377 1.3,1.26399 1.9,1.8595l0.8,0.58299" id="svg_7" stroke-width="2" stroke="#000" fill="none"/>
  <path t="101082,101265,101281,101324,101364,101379,101404,101404,101451,101456,101497,101497,101554,101554,101652,101652,101652,101896,101911" d="m119.51137,251.09091c1.8,0 2.70002,-0.006 3.6,0c0.80006,0.00534 1.63638,0.46193 2.4,0.83333c0.75391,0.36668 1.58212,0.77928 2.4,1.14134c0.7859,0.3479 1.47218,0.8475 2.25266,1.32533c0.68365,0.41855 1.46201,0.89867 2.146,1.41466l0.916,0.36932l0.28401,0.71735l0.05849,0.89868" id="svg_8" stroke-width="2" stroke="#000" fill="none"/>
  <path t="103629,104099,104130,104158,104210,104210,104228,104275,104509,104525,104563,104581,104618,104686,104732,104732" d="m116.51137,231.09091c-0.2,0 -1.27953,0.32312 -1.87867,-0.2215c-0.6977,-0.63422 -0.94915,-1.21809 -1.68533,-1.80383c-0.67653,-0.53827 -1.1169,-1.25754 -1.72,-1.89067c-0.54688,-0.57411 -0.716,-1.384 -0.716,-2.284l0,-0.90001l0,-0.89999l0,-0.8" id="svg_9" stroke-width="2" stroke="#000" fill="none"/>
  <path t="106259,106399,106399,106414,106437,106437,106485,106540,106606,106606,106667,106667" d="m113.51137,243.09091c0.16666,1 0.75077,1.55783 1.5,2.02083c0.75581,0.46706 0.89352,1.40607 1.8,1.86484c0.80947,0.40968 1.80017,0.1145 2.58533,0.19966l0.95067,0.35068l0.5685,0.26849" id="svg_10" stroke-width="2" stroke="#000" fill="none"/>
  <path t="109480,109601,109616,109642,109652,109652,109652,109677,109677,109695,109695,109710,109710,109720,109720,109805,109821,109821,109846,109869" d="m191.51137,210.09091c1.564,0.61067 1.96448,1.51569 2.54167,2.04167c0.73743,0.672 1.28545,1.24368 1.633,1.71832c0.66208,0.90419 1.19345,1.5641 1.92534,2.34016c0.50284,0.53317 1.08916,1.39021 1.5,2.07451c0.48727,0.81161 0.95407,1.46335 1.7,2.12083c0.66223,0.58371 1.53333,0.87117 1.92133,1.58316l0.726,0.483" id="svg_11" stroke-width="20" stroke="#fff" fill="none"/>
  <path t="112512,112758,112774,112774,112802,112804,112804,112827,112852,112877,112899,112932,112949" d="m203.51137,222.09091c-2.5,1 -3.49141,1.27213 -4.21066,1.61067c-0.79633,0.37482 -1.5558,0.8354 -2.304,1.10399c-0.94131,0.33791 -1.88533,0.29601 -2.68533,0.56934l-0.8,0.54933l-0.83333,0.16667l-0.6875,0.5" id="svg_12" stroke-width="2" stroke="#000" fill="none"/>
  <path t="113952,114193,114208,114237,114259,114259,114259,114279,114279,114279,114279,114279,114279,114287,114287,114287,114287,114287,114287,114287,114302,114302,114302,114302,114302,114329,114329,114329,114329,114339,114339,114339,114352,114352,114352,114372,114372,114372,114387,114389,114389,114389,114409,114409,114409,114409,114409,114429,114429,114429,114429,114447,114447,114447,114447,114462,114462,114462,114462,114462,114462,114479,114479,114479,114487,114487,114487,114507,114507,114507,114529,114529,114529,114529,114529,114529,114547,114547,114547,114547,114547,114552,114552,114552,114552,114552,114552,114552,114572,114572,114572,114572,114572,114572,114572,114587,114587,114587,114587,114587,114587,114587,114609,114609,114609,114609,114609,114644,114644,114644,114644,114644,114644,114667,114667,114667,114667,114667,114667,114667,114667,114702,114702,114702,114702,114702,114702,114702,114702,114737,114737,114737,114737,114737,114737,114737,114737,114737,114764,114764,114764,114764,114764,114764,114764,114764,114764,114782,114782,114782,114782,114782,114782,114782,114782,114782,114809,114809,114809,114809,114809,114809,114809,114809,114809,114839,114839,114839,114839,114839,114839,114839,114839,114839,114859,114859,114859,114859,114859,114859,114859,114859,114859,114907,114907,114907,114907,114907,114907,114907,114907,114907,114944,114944,114944,114947,114947,114947,114947,114947,114947,114949,114949,114949,114949,114952,114952,114952,114952,114952,114987,114987,114987,114987,114987,114987,114987,114989,114989,115024,115024,115024,115024,115024,115024,115024,115024,115024,115042,115044,115044,115044,115044,115044,115044,115044,115044,115082,115082,115082,115082,115082,115082,115082,115082,115082,115109,115109,115109,115109,115109,115109,115109,115109,115109,115139,115139,115139,115139,115139,115139,115142,115142,115142,115164,115164,115164,115164,115164,115164,115164,115164,115164,115189,115189,115189,115189,115189,115189,115189,115189,115189,115227,115227,115227,115227,115227,115227,115227,115227,115262,115262,115262,115262,115299,115299,115299,115299,115299,115299,115810,115810,115810,115810,115810,115810,115854,115854,115859,115887,115924,115924,115942,115942,115942,115982,115982,115997,115997,116034,116042,116107,116132,116235,116251,116251,116542,116596,116619,116639,116639,116669,116686,116719,116719,116729,116729,116731,116731,116756,116756,116756,116759,116786,116786,116786,116804,116829,116829,116869,116869,116876,116876,116876,116876,116899,116899,116899,116924,116924,116924,116924,116949,116949,116949,116991,116991,116991,116991,116994,116999,117001,117001,117001,117044,117044,117044,117046,117046,117056,117056,117056,117056,117056,117076,117076,117076,117076,117101,117101,117101,117101,117141,117141,117141,117141,117141,117141,117141,117169,117169,117171,117171,117171,117171,117176,117176,117176,117179,117179,117179,117179,117179,117179,117219,117219,117221,117221,117221,117221,117221,117221,117246,117246,117246,117246,117246,117246,117246,117249,117249,117261,117261,117261,117261,117261,117261,117264,117264,117264,117291,117291,117294,117294,117294,117294,117294,117294,117294,117311,117311,117314,117314,117314,117314,117314,117314,117314,117341,117341,117341,117386,117386,117386,117386,117394,117394,117394,117431,117431,117431,117431,117434,117434,117466,117466,117466,117466,117484,117484,117499,117501,117529,117529,117529,117549,117549,117549,117549,117571,117571,117574,117574,117616,117616,117621,117621,117621,117644,117646,117646,117676,117676,117676,117704,117704,117704,117704,117706,117751,117751,117751,117751,117751,117751,117756,117756,117801,117801,117801,117804,117831,117834,117834,117834,117839,117839,117839,117839,117839,117881,117881,117881,117884,117884,117891,117891,117891,117939,117939,117946,117946,117971,117971,117974,117974,117974,118016,118016,118016,118016,118021,118024,118024,118024,118066,118074,118074,118126,118126,118136,118136,118136,118174,118196,118318,118333,118357,118399,118414,118644" d="m406.51135,153.09091c-1.59998,-0.57466 -2.44318,-0.88495 -3.29999,-1.35266c-0.74533,-0.40686 -1.51743,-0.70224 -2.01199,-0.81667c-1.12012,-0.25916 -2.12253,-0.54318 -2.68268,-0.70267c-0.5892,-0.16776 -1.81915,-0.53326 -2.44266,-0.73067c-1.23169,-0.38997 -1.82361,-0.58665 -2.94833,-1.00185c-0.54428,-0.20093 -1.07788,-0.40416 -2.10535,-0.85266c-0.50897,-0.22217 -2.00986,-0.96126 -2.50497,-1.22417c-0.97473,-0.51758 -1.4325,-0.79434 -2.33252,-1.25166c-1.16031,-0.58958 -1.80829,-0.84819 -2.62982,-1.02533c-0.71689,-0.15459 -1.73184,-0.30663 -2.54169,-0.5625c-0.82275,-0.25995 -1.81598,-0.67917 -2.5,-0.97917c-0.68399,-0.3 -1.67853,-0.71986 -2.52081,-0.97917c-0.57935,-0.17836 -1.77957,-0.39912 -2.7005,-0.50616c-0.6507,-0.07562 -1.35977,-0.14264 -2.52133,-0.4575c-0.87158,-0.23627 -1.75809,-0.57602 -2.20667,-0.74249c-0.88416,-0.32813 -2.10428,-0.80272 -2.83633,-1.05299c-0.66968,-0.22894 -1.60727,-0.50117 -2.51501,-0.64067c-0.9382,-0.14418 -1.65042,-0.186 -2.44067,-0.37567c-1.45914,-0.3502 -1.99332,-0.5937 -2.56033,-0.80333c-0.57968,-0.21429 -1.72443,-0.66742 -2.27332,-0.884c-1.42355,-0.56169 -2.10992,-0.82462 -3.03299,-1.062c-0.92957,-0.23906 -1.65891,-0.41615 -2.44385,-0.7005c-1.03491,-0.37491 -1.74265,-0.70956 -2.51517,-1.05267c-0.93121,-0.41359 -1.68503,-0.73587 -2.54099,-1.0575c-0.45248,-0.17001 -1.40128,-0.49124 -1.89603,-0.616c-1.48495,-0.37447 -2.50058,-0.46767 -3.00665,-0.52934c-1.02554,-0.12497 -1.56149,-0.13762 -3.15601,-0.53999c-0.56104,-0.14157 -1.1232,-0.34146 -2.26932,-0.78667c-0.58722,-0.2281 -1.17151,-0.48135 -1.76852,-0.71249c-1.78635,-0.69164 -2.3938,-0.86348 -2.99414,-1.03284c-0.59537,-0.16795 -1.78119,-0.46538 -2.36536,-0.61867c-0.57953,-0.15207 -2.27414,-0.67051 -2.81433,-0.89201c-1.0701,-0.43879 -1.57608,-0.70577 -2.07999,-0.95733c-0.98218,-0.49033 -1.43713,-0.77261 -2.82034,-1.35734c-0.85831,-0.36284 -1.72238,-0.63979 -2.14667,-0.79333c-0.86081,-0.31151 -2.19916,-0.88699 -2.66266,-1.12c-0.97504,-0.49016 -1.47409,-0.77181 -1.99466,-1.05067c-1.08844,-0.58304 -2.24915,-1.18178 -2.86002,-1.47867c-0.62381,-0.30318 -1.2623,-0.60076 -1.90799,-0.9c-1.29797,-0.60154 -1.94586,-0.89605 -2.58133,-1.2c-1.23837,-0.59233 -1.82623,-0.89959 -2.40533,-1.2c-1.15509,-0.59919 -1.74341,-0.90536 -2.35733,-1.2c-0.63669,-0.30557 -1.30432,-0.62635 -2.80536,-1.2c-0.82309,-0.31455 -1.70645,-0.60471 -2.62949,-0.9c-0.95294,-0.30487 -1.93277,-0.60082 -2.92651,-0.9c-0.99924,-0.30083 -1.99951,-0.5886 -3.944,-1.2c-0.93771,-0.29485 -1.84958,-0.59811 -2.74197,-0.909c-0.88361,-0.30782 -1.75961,-0.62846 -2.634,-0.963c-0.88367,-0.33809 -1.77985,-0.68944 -3.62402,-1.46133c-0.96603,-0.40434 -1.95197,-0.83341 -2.95798,-1.2675c-1.01797,-0.43925 -2.04068,-0.88152 -3.06601,-1.3125c-1.01666,-0.42734 -2.0152,-0.85647 -3.97601,-1.58666c-0.93195,-0.34705 -1.84677,-0.6517 -2.74197,-0.942c-0.88086,-0.28564 -1.75861,-0.55615 -2.634,-0.834c-0.8826,-0.28014 -1.78387,-0.55396 -3.62402,-1.224c-0.96841,-0.35262 -1.95483,-0.74957 -2.96249,-1.1625c-1.02576,-0.42034 -2.05832,-0.85834 -3.09749,-1.2975c-1.03917,-0.43917 -2.06775,-0.88708 -4.10667,-1.70667c-0.98767,-0.39701 -1.96121,-0.7666 -2.91899,-1.119c-0.94092,-0.3462 -1.87186,-0.67503 -2.793,-0.993c-0.91153,-0.31467 -1.81837,-0.61951 -3.62134,-1.22133c-0.90002,-0.30042 -1.80118,-0.60045 -2.7045,-0.9c-0.90602,-0.30045 -1.81604,-0.60088 -2.73151,-0.9c-0.92087,-0.30089 -1.84805,-0.60405 -3.73067,-1.2c-0.95369,-0.30189 -1.91432,-0.59976 -2.877,-0.8955c-0.95999,-0.29491 -1.91441,-0.5845 -2.85899,-0.8685c-0.9301,-0.27965 -1.84213,-0.55246 -3.59734,-1.06934c-0.83542,-0.24602 -1.6451,-0.48218 -2.433,-0.7095c-0.76942,-0.22199 -1.52502,-0.43741 -2.271,-0.6465c-0.73936,-0.20724 -1.47639,-0.41286 -2.96268,-0.81067c-0.75452,-0.20195 -1.52003,-0.40116 -2.295,-0.6045c-0.78505,-0.20599 -1.58041,-0.4148 -2.38499,-0.6315c-0.81543,-0.21962 -1.64261,-0.44031 -3.32001,-0.93066c-0.85602,-0.25024 -1.71815,-0.51607 -2.586,-0.7905c-0.87349,-0.27622 -1.74803,-0.56157 -2.62199,-0.8535c-0.87337,-0.29173 -1.74306,-0.58575 -3.45866,-1.18933c-0.84537,-0.29742 -1.67665,-0.59691 -2.4915,-0.8955c-0.79715,-0.29211 -1.57181,-0.58157 -2.32051,-0.8685c-0.72227,-0.27681 -1.4155,-0.54211 -2.68799,-1.06934c-0.58231,-0.24126 -1.1264,-0.47893 -1.638,-0.7095c-0.4857,-0.21889 -0.94608,-0.43481 -1.386,-0.6465c-0.42538,-0.2047 -0.83757,-0.40887 -1.64267,-0.81067c-0.40028,-0.19977 -0.80104,-0.4006 -1.2045,-0.6c-0.40588,-0.2006 -0.81578,-0.40116 -1.23151,-0.60001c-0.42059,-0.20117 -0.84694,-0.40533 -1.73067,-0.8c-0.45361,-0.20258 -0.91762,-0.40116 -1.3905,-0.5955c-0.47778,-0.19636 -0.96243,-0.38694 -1.45349,-0.5685c-0.49263,-0.18214 -0.98654,-0.36388 -1.98933,-0.66933c-0.49821,-0.15176 -1.00041,-0.28497 -1.5045,-0.4095c-0.50528,-0.12482 -1.01579,-0.23883 -1.53149,-0.3465c-0.52066,-0.1087 -1.04877,-0.21236 -2.13068,-0.41067c-0.55405,-0.10155 -1.1147,-0.19983 -1.677,-0.3c-0.56036,-0.09982 -1.1149,-0.19872 -1.659,-0.3c-0.53056,-0.09875 -1.04463,-0.19085 -1.99733,-0.4c-0.43645,-0.09582 -0.84471,-0.19731 -1.2285,-0.3c-0.36418,-0.09744 -0.70953,-0.19827 -1.03951,-0.3c-0.31902,-0.09834 -1.53311,-0.49785 -2.14099,-0.70451c-0.96425,-0.32782 -1.6636,-0.57568 -2.83417,-1.017c-0.42955,-0.16195 -1.33894,-0.51598 -2.31416,-0.88917c-0.50854,-0.1946 -1.02745,-0.39951 -2.66335,-0.989c-0.55692,-0.20068 -1.66148,-0.58053 -2.196,-0.75867c-0.5135,-0.17113 -1.44179,-0.53276 -2.85666,-0.871c-0.76604,-0.18313 -1.76221,-0.40066 -2.62666,-0.14933c-0.78471,0.22814 -1.10829,1.01606 -1.60001,1.97867c-0.40688,0.79652 -0.70889,1.39561 -1.19867,2.39867c-0.3721,0.76206 -0.53748,1.62939 -0.88533,2.4c-0.38223,0.84676 -1.5602,0.99141 -1.89517,1.72217c-0.36659,0.79971 -0.48276,1.71555 -0.85416,2.47916c-0.36668,0.75391 -1.03134,1.39618 -1.12001,2.4c-0.07335,0.83034 0.94147,1.49786 1.65334,1.5955c0.89256,0.12242 1.67719,0.46542 2.4005,1.1045c0.58963,0.52096 1.3923,0.92178 2.27101,1.2c0.68581,0.21714 1.442,0.39996 2.62849,0.7c0.79602,0.2013 1.58176,0.37044 2.29199,0.636c1.23586,0.4621 1.82639,1.02142 2.276,1.50266c0.7162,0.76658 1.48384,1.16861 2.18918,1.50867c0.86353,0.41632 1.77483,0.41914 2.57616,0.686c0.98654,0.32855 1.66339,0.67851 2.30417,1.07566c0.8887,0.55081 1.49495,1.19527 2.0025,1.791c0.68655,0.80583 1.35394,1.41416 1.88083,1.75834c0.7747,0.50606 1.80022,0.86605 2.52084,1.0625c0.81581,0.2224 1.82721,0.63403 2.62083,1.04166c0.42676,0.21919 1.29346,0.70501 2.17082,1.17083c0.82961,0.44046 1.60141,0.78697 2.625,1.26667c0.63611,0.29811 1.55319,0.81787 2.14301,1.26933c0.62189,0.47601 1.22084,1.03334 1.884,1.548c1.01553,0.78811 1.75876,1.23664 2.51466,1.64101c0.73926,0.39546 1.10645,0.57767 2.51601,1.15766c0.6544,0.26926 1.31262,0.50109 1.96799,0.76801c1.04292,0.42477 1.78304,0.76374 2.53683,1.1785c0.79453,0.43716 1.9845,1.26408 2.37933,1.58033c0.81557,0.65323 1.20908,1.02014 2.03584,1.7425c0.42043,0.36733 0.82512,0.76323 2.18582,1.79317c0.45827,0.34687 1.43236,0.9906 1.94067,1.30067c0.51703,0.31538 1.60345,0.93131 2.77083,1.52084c0.60658,0.30633 1.23666,0.60278 1.881,0.9045c0.65698,0.30764 1.32777,0.61541 2.007,0.9315c0.68811,0.32023 1.38829,0.63524 2.77867,1.33067c1.40585,0.70316 2.09637,1.08439 2.78934,1.45867c0.6907,0.37306 1.37463,0.74939 2.0535,1.12199c0.6718,0.36873 1.98949,1.08789 2.63617,1.43134c0.63867,0.3392 1.27631,0.67067 1.91699,0.996c0.64465,0.32735 1.30042,0.65255 1.97101,0.978c0.68674,0.33327 2.13245,1.0152 2.89766,1.369c0.7921,0.36623 1.61131,0.74002 2.45399,1.125c0.86465,0.39502 1.74983,0.79893 2.65201,1.215c0.91917,0.42391 2.79678,1.30336 3.74966,1.75917c0.95647,0.45753 1.90547,0.91805 2.841,1.3725c0.9138,0.44389 1.79677,0.87451 2.64301,1.2825c0.79912,0.38527 2.22746,1.06088 2.84515,1.33817c0.55182,0.24771 1.04904,0.46051 1.4985,0.642c0.40503,0.16354 0.77658,0.30339 1.1205,0.42599c0.32149,0.11461 1.53709,0.50404 2.4315,0.83884c0.60396,0.22607 1.5098,0.62822 2.39549,1.13184c0.59044,0.33572 1.4126,0.87437 2.1835,1.32617c0.71109,0.41675 1.49208,0.82381 2.42101,1.35449c0.75536,0.43152 1.57961,0.93309 2,1.20834c0.84943,0.55615 1.28978,0.81261 2.33549,1.75783c0.619,0.55951 1.04169,1.19946 1.7605,1.8445c0.74724,0.67056 1.62347,0.78445 2.60385,1.0775c0.79987,0.23909 1.64471,0.7639 2.19617,1.19983c0.67282,0.53189 1.36325,1.12802 1.97098,1.584c0.66919,0.50209 1.36789,1.02499 2.46634,1.66135c0.66638,0.38605 1.33652,0.62044 2.14783,1.0815c0.91006,0.51718 1.37897,1.37556 2.18552,1.9185c0.60272,0.40573 1.47812,0.42761 2.43784,1.04317c0.66537,0.42679 1.05237,0.85771 2.08215,1.40749c0.83401,0.44527 1.49295,0.65941 2.48001,1.216c0.73279,0.41322 1.47141,0.93573 1.85416,1.20834c0.78799,0.56128 1.97928,1.45816 2.37866,1.758c0.78726,0.59102 1.5387,1.15773 1.89252,1.42833c0.65329,0.49963 1.63162,1.33444 2.384,1.88667c0.79953,0.58684 1.37305,0.87744 2.34482,1.38533c0.67542,0.353 1.64713,0.83081 2.21249,1.11732c0.78931,0.39999 1.62283,0.84705 2.63101,1.42551c0.39142,0.22458 1.23218,0.71992 2.13165,1.24251c0.45993,0.26721 1.83633,1.04982 2.28201,1.293c0.84943,0.46349 1.64276,0.87245 2.34601,1.25999c0.88123,0.48561 1.44913,1.01111 2.25732,1.375c0.89578,0.40334 1.70023,0.38097 2.51468,1.15866c0.5166,0.49327 1.35486,1.34956 1.97549,1.72351c0.67697,0.40788 1.43826,0.75604 1.83249,0.91916c1.18524,0.49043 1.99249,0.72968 2.77518,0.98534c0.76462,0.24976 1.87442,0.62718 2.85016,1.15266c0.60077,0.32355 1.4437,0.75874 2.00366,1.59016c0.52567,0.78052 0.91125,1.45604 1.82419,1.709c0.73611,0.20396 1.75003,0.60492 2.32199,1.04817c0.54382,0.42145 1.53128,0.91695 2.32083,1.35266c0.83817,0.46254 1.69998,0.64734 2.53333,0.64734l0.6875,0.5l0.77917,0.44283l0.89865,0.0585" id="svg_13" stroke-width="2" stroke="#000" fill="none"/>
  <path t="119799,119989,120004,120004,120022,120030,120045,120060,120075,120075,120087,120107,120107,120107,120127,120127,120127,120140,120140,120160,120160,120160,120177,120177,120177,120190,120190,120190,120190,120210,120210,120210,120210,120227,120227,120227,120227,120227,120227,120240,120240,120240,120240,120240,120257,120257,120257,120257,120257,120257,120275,120275,120275,120275,120275,120290,120290,120290,120292,120292,120292,120292,120305,120305,120305,120305,120325,120325,120325,120340,120340,120340,120340,120340,120340,120357,120360,120360,120360,120360,120360,120375,120375,120375,120375,120377,120377,120392,120392,120392,120392,120392,120392,120392,120422,120422,120422,120425,120425,120425,120425,120425,120427,120427,120427,120427,120427,120427,120427,120427,120465,120465,120465,120465,120465,120465,120465,120465,120470,120470,120470,120470,120470,120470,120505,120505,120505,120505,120505,120505,120505,120505,120510,120510,120510,120510,120510,120510,120532,120532,120532,120532,120532,120565,120565,120567,120567,120567,120567,120580,120580,120580,120580,120595,120595,120595,120610,120610,120610,120610,120635,120635,120635,120667,120667,120667,120672,120672,120700,120700,120700,120715,120715,120730,120732,120732,120760,120792,120792,120797,120797,120815,120815,120852,120852,120855,120875,120875,120875,120897,120907,120935,120935,120952,120952,120980,120980,121881,121940,121975,121977,121995,121995,121995,122032,122050,122070,122097,122105,122105,122132,122155,122155,122182,122200,122227,122292,122320,122322,122345,122345,122345,122355,122355,122385,122385,122395,122395,122691,122724,122749,122779,122797,122799,122824,122824,122829,122869,122892,122897,122897,122937,122937,122937,122944,122944,122944,122944,122981,122996,122996,122996,123016,123018,123018,123038,123038,123038,123038,123078,123078,123078,123081,123093,123093,123093,123093,123093,123126,123126,123128,123128,123128,123131,123133,123133,123133,123173,123173,123173,123191,123191,123218,123218,123221,123238,123238,123238,123238,123238,123266,123266,123266,123266,123291,123291,123291,123291,123291,123291,123298,123298,123298,123338,123338,123338,123343,123346,123346,123346,123346,123346,123366,123366,123368,123388,123391,123391,123391,123428,123428,123428,123438,123438,123438,123476,123476,123476,123486,123486,123486,123486,123486,123486,123523,123523,123523,123523,123523,123528,123528,123528,123553,123553,123553,123553,123578,123578,123596,123596,123596,123598,123598,123598,123621,123621,123621,123621,123661,123661,123663,123666,123668,123668,123668,123688,123688,123688,123688,123716,123716,123716,123753,123753,123753,123753,123758,123758,123758,123761,123761,123798,123798,123798,123798,123813,123813,123813,123853,123853,123853,123853,123853,123868,123868,123868,123868,123871,123871,123903,123903,123903,123921,123921,123921,123923,123953,123953,123953,123953,123971,123971,124006,124006,124006,124023,124023,124023,124056,124056,124056,124056,124056,124076,124076,124076,124076,124108,124108,124108,124111,124111,124128,124128,124131,124131,124161,124161,124161,124161,124161,124181,124181,124183,124183,124183,124183,124211,124211,124211,124216,124218,124258,124258,124258,124258,124278,124308,124308,124318,124318,124318,124363,124371,124371,124408,124411,124431,124431,124458,124483,124483,124511,124538,124563,124563,124603,124626,124651,124651,124668,124668,124698,124698,124716,124786,124817" d="m346.51135,225.09091c0,1.75717 0,2.65266 0,3.51601c0,0.96317 0.00009,1.88399 0,2.784c-0.00009,0.8 -0.24075,1.65451 -0.64731,2.39999c-0.43692,0.80119 -0.49854,1.63963 -0.78867,2.56134c-0.25067,0.79634 -0.53494,1.58519 -0.96402,2.49199c-0.28119,0.59427 -1.00009,1.44687 -1.31467,2.216c-0.3129,0.76505 -0.24136,1.58606 -0.45465,2.43333c-0.30817,1.2242 -0.69202,1.79733 -1.01602,2.39734c-0.64798,1.2 -0.9335,1.7988 -1.18933,2.39999c-0.38223,0.89822 -0.77985,1.80667 -1.2825,2.709c-0.35513,0.6375 -0.76685,1.29514 -1.34283,2.42433c-0.20706,0.40596 -0.60327,1.27507 -1,2.1875c-0.20166,0.46376 -0.59207,1.40001 -1.19983,2.75783c-0.19626,0.43851 -0.59738,1.29257 -0.96414,2.14667c-0.1828,0.42566 -0.67886,1.73843 -0.95334,2.65866c-0.13937,0.46725 -0.3884,1.42075 -0.6925,2.36334c-0.15201,0.47116 -0.72452,1.836 -0.9595,2.27002c-0.47504,0.87738 -1.02368,1.7395 -1.2825,2.19247c-0.80566,1.40997 -1.03311,1.92966 -1.26285,2.45551c-0.46237,1.05838 -0.65793,1.5957 -1.08081,2.61502c-0.20007,0.48227 -0.77045,1.75562 -1.2045,2.39099c-0.55777,0.8165 -1.02881,1.19592 -1.79868,2.034c-0.60382,0.65732 -1.01007,1.19467 -1.43466,2.26132c-0.33932,0.85245 -0.41589,1.35501 -0.70834,2.375c-0.15198,0.53009 -0.45428,1.62039 -0.95834,2.625c-0.49826,0.99304 -0.84866,1.43347 -1.54166,2.29169c-0.34537,0.4277 -1.08691,1.23026 -1.79166,2.04166c-0.68982,0.79425 -1.02139,1.19702 -1.625,2.04166c-0.30338,0.4245 -0.87759,1.31717 -1.375,2.29169c-0.25714,0.50378 -0.71692,1.5798 -0.94135,2.13864c-0.2283,0.56848 -0.67456,1.73834 -0.90933,2.33069c-0.47568,1.2001 -0.72989,1.8009 -1.27316,3.00183c-0.27499,0.60791 -0.56317,1.21655 -0.85349,1.83148c-0.29337,0.6214 -0.59851,1.24573 -1.4895,3.18533c-0.30386,0.66147 -0.60309,1.33194 -0.91052,2.004c-0.3089,0.67526 -0.6217,1.35107 -0.9465,2.022c-0.32455,0.67044 -1.00443,1.98883 -1.36398,2.63086c-0.35654,0.63663 -1.09195,1.86542 -1.45801,2.45932c-0.35797,0.58078 -0.71436,1.1416 -1.05148,1.69049c-0.93597,1.52383 -1.20645,2.0025 -1.71869,2.93201c-0.2532,0.45947 -0.75504,1.40302 -1.01865,1.89334c-0.56329,1.04776 -1.19977,2.19955 -1.54184,2.80466c-0.34988,0.61893 -0.70892,1.24323 -1.0755,1.866c-0.36447,0.61923 -0.71414,1.23535 -1.793,2.9115c-0.32959,0.51205 -0.65903,0.99368 -1.28,1.90201c-0.29456,0.43085 -0.8746,1.24625 -1.62051,2.46249c-0.48587,0.79227 -0.69495,1.207 -1.1825,2c-0.49634,0.80731 -1.05768,1.61163 -1.70667,2.39734c-0.33017,0.39972 -1.02704,1.1658 -1.72665,1.88834c-0.33499,0.34595 -1.26721,1.26672 -1.79102,1.8045c-0.69952,0.71817 -1.14069,1.16998 -1.91299,2.19516c-0.40625,0.53925 -0.80988,1.10135 -1.43466,2.31467c-0.30338,0.58917 -0.65213,1.49777 -0.86218,2.10001c-0.41699,1.19553 -0.59351,1.79938 -0.90448,2.664c-0.38641,1.07434 -0.65704,1.7973 -1.10001,2.57431c-0.45825,0.80383 -1.06931,1.4025 -1.78268,2.147c-0.50525,0.52728 -1.0383,1.07883 -1.41199,2.11469c-0.28073,0.77817 -0.50638,1.6326 -1.12616,2.37915c-0.46649,0.56189 -1.37296,1.16403 -1.8125,2.02084c-0.3598,0.70139 -0.5141,1.66177 -0.87119,2.40451c-0.38489,0.8006 -0.84824,1.57242 -1.12881,2.59549c-0.16177,0.58981 -0.16504,1.45926 -0.73599,2.39865c-0.38196,0.62845 -1.01746,1.05286 -1.78403,1.96536c-0.58163,0.69235 -0.80997,1.63834 -1.25732,2.27197c-0.48569,0.68793 -0.82428,1.40701 -1.48932,2.3425c-0.45737,0.64337 -1.89743,1.23288 -1.48569,1.96436c0.43536,0.77341 1.80896,-0.03922 2.75235,0.22382c0.68164,0.19006 1.32452,0.67834 2.42267,0.82266c0.88229,0.11597 1.76782,0.01068 2.61066,0.01068c0.90018,0 1.68533,0 2.62534,0c1.008,0 1.76404,-0.0054 2.67465,0c0.90009,0.00534 1.7149,0.50983 2.5,0.83334c0.86084,0.35471 1.68268,0.16666 2.54285,0.16666c0.978,0 1.77451,0 2.77051,0c0.84,0 1.85016,-0.14383 2.57065,0.17065c0.85815,0.37457 1.16833,1.19199 2.22934,1.65869c0.77924,0.34277 1.7244,0.35281 2.52267,0.09866c0.93674,-0.29825 1.36499,-0.94781 2.19733,-1.76135c0.53131,-0.51932 1.39996,-0.84705 2.08267,-1.45065c0.59964,-0.53018 1.19003,-1.15494 1.60483,-1.75766c0.65515,-0.952 1.15582,-1.54373 1.65384,-2.19434c0.69302,-0.90536 0.97144,-1.43326 1.28366,-2.24316c0.28546,-0.74051 0.4187,-1.91388 0.875,-2.6875c0.43311,-0.73431 1.05566,-1.20993 1.64532,-2.03351c0.42361,-0.59167 0.75937,-1.26578 1.34283,-2.22134c0.50204,-0.82224 0.88818,-1.38983 1.27985,-1.97983c0.59732,-0.89984 1.20682,-1.81104 1.63467,-2.43466c0.44672,-0.65112 1.18542,-1.68546 1.448,-2.04935c0.5415,-0.75049 1.0954,-1.52209 1.36331,-1.91916c0.80026,-1.186 1.27225,-1.99139 1.71667,-2.78482c0.21759,-0.38849 0.61713,-1.16159 1.23599,-2.24402c0.39102,-0.6839 0.97183,-1.62607 1.40002,-2.14783c0.75244,-0.91687 1.39771,-1.33411 2.11465,-1.81616c0.74158,-0.49863 1.25891,-1.00134 1.97067,-1.97333c0.36145,-0.49362 0.72565,-1.05045 1.51465,-2.22934c0.40149,-0.59991 0.80289,-1.2056 1.23602,-1.79999c0.44147,-0.6058 1.18668,-1.49918 1.71664,-2.10901c0.54874,-0.63144 1.14496,-1.27164 1.88068,-2.42435c0.51773,-0.81119 0.71402,-1.26526 1.14584,-2.14581c0.2124,-0.43311 0.56671,-1.29837 1.22067,-2.35635c0.54666,-0.8844 1.00299,-1.30267 1.63348,-2.16449c0.58957,-0.80582 0.82162,-1.31165 1.5,-2.5c0.43063,-0.75433 0.672,-1.15799 1.16666,-2c0.49469,-0.84201 0.73511,-1.24622 1.35736,-2.33566c0.49442,-0.8656 0.92072,-1.62875 1.47598,-2.33099c0.64142,-0.81116 1.17426,-1.32657 1.66135,-1.88068c0.68277,-0.77667 1.21387,-1.48215 1.58398,-2.142c0.5564,-0.99194 0.84183,-1.61224 1.22134,-2.496c0.42587,-0.9917 0.58911,-1.57587 1.01434,-2.47635c0.48297,-1.02277 0.95184,-1.72665 1.19998,-2.09549c0.51804,-0.77002 1.0936,-1.54813 1.38834,-1.94415c0.89374,-1.20078 1.48947,-1.98886 1.776,-2.37735c0.55151,-0.74774 1.07062,-1.43747 1.6785,-2.37848c0.49808,-0.77106 0.87698,-1.49942 1.46417,-2.46402c0.32367,-0.53174 0.84332,-1.32458 1.19467,-1.80951c0.71576,-0.98785 1.16626,-1.47742 1.81732,-2.43597c0.45071,-0.66357 0.93015,-1.46539 1.1875,-1.89584c0.53549,-0.89569 0.80695,-1.35172 1.5575,-2.71552c0.46655,-0.84775 0.66806,-1.25775 1.07501,-2.00333c0.66861,-1.22495 1.10333,-1.85419 1.47198,-2.39465c0.55557,-0.81448 1.03513,-1.68704 1.37466,-2.36566c0.35556,-0.71063 0.8367,-1.79031 1.11603,-2.47168c0.26181,-0.6387 0.57468,-1.56137 1.20547,-2.56534c0.3067,-0.48813 0.90857,-1.13074 1.6785,-2.08798c0.41052,-0.51041 1.00308,-1.35208 1.40002,-1.93784c0.60471,-0.89233 0.99954,-1.49805 1.41064,-2.10617c0.42355,-0.62656 0.86829,-1.27921 1.6105,-2.31033c0.52255,-0.72592 1.05316,-1.44104 1.569,-2.112c0.67026,-0.87186 1.23459,-1.48914 1.62451,-2.07901c0.60809,-0.91992 0.87061,-1.62863 1.23199,-2.42133c0.39847,-0.87402 0.58398,-1.34387 1.32001,-2.70001c0.24451,-0.4505 0.77469,-1.30829 1.33331,-2.10416c0.26929,-0.38367 0.80087,-1.10315 1.57852,-2.01965c0.67258,-0.79266 1.13492,-1.23752 1.92148,-2.2095c0.41153,-0.50854 0.81842,-1.05148 1.34283,-1.93784c0.51993,-0.87875 0.90573,-1.78874 1.13635,-2.37468c0.32761,-0.83234 0.66675,-1.86473 1.04166,-2.47916c0.56647,-0.92836 1.34406,-1.38252 1.82651,-1.8515c0.69385,-0.67448 1.01233,-1.47569 1.46249,-2.29916c0.4957,-0.90677 0.95026,-1.49872 1.45151,-2.091c0.51462,-0.60806 1.07526,-1.18407 1.81732,-2.10017c0.48135,-0.59425 0.92218,-1.22005 1.37399,-1.85699c0.71539,-1.00854 1.23074,-1.72498 1.76202,-2.4575c0.52472,-0.72348 1.02921,-1.40721 1.64282,-2.34267c0.34927,-0.53244 0.81235,-1.30566 1.19583,-1.81067c0.68185,-0.8979 1.31256,-1.54735 1.98834,-2.27367c0.35376,-0.3802 1.08759,-1.15163 1.79166,-1.95833c0.68918,-0.78963 1.01538,-1.18427 1.60416,-1.97917c0.55795,-0.75328 0.84592,-1.10515 1.59186,-2.53282c0.32315,-0.61848 0.60025,-1.50056 1.07083,-2.34534c0.37378,-0.67102 1.06693,-1.47569 1.55249,-2.14351c0.34763,-0.4781 0.82202,-1.19417 1.71133,-1.91249c0.70541,-0.56978 1.14166,-1.1254 1.63599,-2.08667c0.40469,-0.78696 0.74878,-1.55264 1.30002,-2.24283c0.64352,-0.80571 1.31216,-1.22815 1.616,-2.24117c0.2009,-0.6698 0.32376,-1.66756 0.88535,-2.31467c0.55615,-0.64085 1.29977,-1.30022 1.89865,-1.90134c0.59662,-0.59888 1.05273,-1.45055 1.46667,-2.3c0.31784,-0.65225 0.80063,-1.5126 1.35416,-2.02083c0.64368,-0.591 1.08862,-1.19572 1.57901,-2.179c0.38684,-0.77565 0.73349,-1.6335 0.95282,-2.43851l0.74869,-0.36034l0.84149,-0.0585l0.44116,-0.74416" id="svg_14" stroke-width="2" stroke="#000" fill="none"/>
  <path t="159204,159258,159258,159298,159308,159320,159338,159363,159363,159388,159388,159388,159405,159405,159425,159438,159438,159455,159470,159470,159488,159488,159505,159515,159515,159570,159588,159588,159608,159623,159640,159658,159670,159670,159693,159723,159730,159730,159755,159768,159795,159850,159868,159868,159886,159906,159936,159979,159979,160004,160004,160021,160064,160084,160131,160131,160151,160186,160186,160216,160234,160236,160256,160256,160256,160274,160291,160291,160306,160306,160316,160316,160364,160364,160409,160411,160431,160456,160501,160539,160539,160564,160584,160594,160596,160631,160666,160674,160694,160719,160719,160746,160746,160761,160761,160761,160761,160761,160781,160781,160781,160806,160806,160841,160841,160866,160983" d="m467.51135,132.09091c1,-1 1.80002,-1 2.70001,-1c0.89999,0 1.79999,0 2.68933,0c0.944,0 1.65234,0 2.61066,0c0.80002,0 1.60001,0 2.59552,0c0.91916,0 1.90448,0 2.72583,0c0.85333,0 1.79333,0 2.77884,0c0.78516,0 1.72516,0 2.41583,0c1.10931,0 1.96799,0 2.83133,0c0.89999,0 1.81934,0.00008 2.65265,0c0.97833,-0.00009 1.54758,-0.44615 2.28534,-0.91467c0.69147,-0.43912 1.71466,-0.08533 2.51468,-0.08533c0.89999,0 1.83652,0.02856 2.68265,-0.00133c0.80896,-0.02858 1.50592,-0.81354 2.27902,-0.99417c0.86328,-0.20169 1.905,-0.0045 2.68115,-0.0045c0.909,0 1.80002,0 2.75717,0c0.89999,0 1.79999,0 2.55716,0c0.89551,0 1.77856,-0.17421 2.72202,0.02083c0.86298,0.17839 1.48322,0.90762 2.22614,1.33633c0.73767,0.42569 1.27386,1.16299 1.29468,2.12683c0.01489,0.69051 0,1.76334 0,2.68268c0,0.85416 0,1.83333 0,2.62267c0,0.72533 0,1.71066 0,2.696c0,0.72533 0,1.71466 0,2.51466c0,1 0,1.78934 0,2.83333c0,0.79201 0,1.65067 0,2.51401c0,1.01666 0.18176,1.88136 -0.05713,2.7625c-0.22021,0.81226 -0.76331,1.39453 -1.33221,2.25417c-0.54529,0.82397 -0.8446,1.59427 -1.258,2.336c-0.42566,0.76367 -0.77393,1.5589 -1.23132,2.39984c-0.40665,0.74765 -1.11258,1.24016 -1.62134,1.90016c-0.59024,0.7657 -1.2204,1.11441 -1.83331,1.83333c-0.4744,0.55643 -0.91937,1.30267 -1.41602,2.076c-0.48468,0.75471 -1.09857,1.71149 -1.57864,2.35733c-0.46072,0.61984 -0.94867,1.39998 -1.37201,2.08067c-0.56927,0.91534 -1.10001,1.45132 -1.80002,2.13184l-0.77597,0.51016" id="svg_15" stroke-width="20" stroke="#fff" fill="none"/>
  <path t="164504,164724,164770,164778,164793,164869,164869,164884,164937,164947,164955,165012,165042,165067,165067,165082,165122,165200,165216,165242,165274,165329,165355,165355,165377,165395,165417,165457,165507,165537,165570,165570,165620,165635,165666,165678,165688,165703,165738,165778,165793,165833,165851,165873,165891,165906,165906,166158,166158,166174,166174,166234,166257,166282,166282,166299,166314,166347,166527,166527,166565" d="m469.51135,136.09091c1.70001,0 2.79266,0.35492 3.56403,-0.036c0.69812,-0.35379 1.23734,-0.96333 2.13599,-0.964c0.89999,-0.00067 1.79999,0 2.70001,0c0.89999,0 1.79999,0 2.69998,0c0.89999,0 1.70001,0 2.61469,0c0.896,0 1.78531,0 2.68533,0c0.89999,0 1.79999,0 2.69998,0c0.89999,0 1.70001,0 2.60001,0c0.89999,0 1.77917,0 2.73599,0c0.86401,0 1.82129,-0.1637 2.664,0.22133c0.66931,0.3058 1.57379,0.44553 2.37918,0.7995c0.7121,0.31297 1.22534,1.03185 2.02081,1.47917c0.7955,0.44733 1.49362,0.90857 2,1.5c0.50894,0.59444 0.45203,1.73692 1.20453,1.9955c0.81607,0.28041 1.12399,0.90654 1.46216,1.83783c0.2514,0.69234 1.13678,1.29849 1.47617,1.92384c0.44775,0.82504 0.15485,1.5722 -0.47617,2.4095c-0.48816,0.64774 -1.1579,1.17332 -1.66669,1.83333c-0.58975,0.76505 -1.33331,1.16667 -1.54166,2l-0.80899,0.436l-0.58133,0.36533l-0.54666,0.83467" id="svg_16" stroke-width="2" stroke="#000" fill="none"/>
 </g>
 <g display="none">
  <title>muse_image</title>
  <image xlink:href="http://farm2.static.flickr.com/1385/548896275_db0585f740.jpg" id="muse" height="426" width="640" y="27" x="0"/>
 </g>
 <g display="none">
  <title>bbox</title>
  <rect stroke="#f00" fill="none" stroke-width="3" height="426" width="495.36" y="27" x="64" id="bbox"/>
 </g>
</svg>
