<svg width="640" height="480" xmlns="http://www.w3.org/2000/svg" xmlns:svg="http://www.w3.org/2000/svg" xmlns:xlink="http://www.w3.org/1999/xlink">
 <!-- Sketchy ANNOTATION
  ImageNet ID: n02691156_7473
  URL: http://farm4.static.flickr.com/3033/2624048094_4ee7c9c656.jpg
  Image Width: 500
  Image Height: 333
  BBox X: 85
  BBox Y: 149
  BBox Width: 398
  BBox Height: 89
  Exposure: 2000ms
  Synset Label: airplane
  Synset ID: n02691156
  Worker Tag: airplane taking off
  Sanity Check: 
   Context
   Saved
   Shading
  Comment: 
   {}
  Worker ID: A1Z2FSZNWACZ9O
  Assignment ID: 3VZLGYJEYLAABW6PZ25Y4B2JWUBZXR
  HIT ID: 31KSVEGZ34SKXLHEPEAXR5RSDDIRWM
  Work Time: 33s
  Worker Score: 0.6381
 END ANNOTATION -->
 <g display="inline">
  <title>Layer 1</title>
  <path t="0,152,152,152,152,153,153,153,158,158,158,169,169,169,169,174,174,174,174,174,174,186,187,187,187,187,187,187,187,190,190,190,190,190,190,203,204,204,207,207,207,215,215,215,221,221,253,253,262,301,302,310,318,326,336,336,342,342,351,351,352,358,358,358,369,369,370,374,374,374,374,382,382,389,389,390,398,399,399,406,406,406,406,415,415,416,421,421,422,422,430,430,430,438,438,448,449,449,449,454,454,454,454,463,463,471,471,471,471,481,481,481,481,487,488,488,494,494,494,504,505,510,510,510,521,522,526,526,538,538,538,542,542,553,554,558,558,571,571,574,574,586,590,590,590,590,598,598,607,607,607,607,615,615,615,621,621,622,622,622,630,630,630,631,631,640,640,640,640,649,650,650,656,656,656,656,663,663,663,672,672,673,673,679,681,687,687,694,694,694,705,705,710,710,710,710,710,721,721,726,726,726,740,740,740,743,744,757,758,766,767,776,782,782,789,790,790,806,806,815,816,816,822,822,831,831,831,831,840,840,840,840,848,848,849,849,849,856,856,856,856,856,856,862,862,862,862,862,863,873,873,874,874,874,874,878,879,879,879,888,888,889,889,894,894,894,894,894,894,907,907,907,907,910,910,910,911,929,929,930,930,948,948,948,948,948,949,950,950,950,951,951,962,962,963,963,981,982,982,983,983,983,983,984,984,997,997,997,997,997,999,999,999,999,1015,1016,1016,1016,1016,1029,1029,1029,1029,1029,1030,1030,1030,1030,1031,1032,1032,1032,1032,1049,1049,1049,1064,1065,1065,1066,1066,1066,1082,1082,1082,1082,1083,1083,1097,1097,1097,1097,1098,1116,1116,1118,1119,1134,1134,1142,1157,1158,1181,1183,1183,1221,1230,1230,1242,1243,1243,1246,1247,1247,1262,1262,1262,1262,1279,1279,1279,1279,1280,1280,1280,1296,1296,1296,1296,1296,1297,1297,1297,1298,1308,1308,1309,1309,1309,1309,1310,1310,1310,1312,1312,1312,1312,1312,1313,1328,1328,1328,1334,1334,1334,1335,1349,1350,1430,1431,1451,1451,1451,1452,1452,1452,1454,1454,1455,1455,1456,1456,1457,1471,1471,1472,1472,1472,1473,1481,1481,1482,1482,1482,1482,1482,1483,1493,1493,1493,1494,1495,1495,1495,1496,1496,1513,1513,1557,1558,1558,1582,1594,1594,1598,1610,1610,1614,1614,1614,1628,1628,1630,1630,1647,1647,1647,1661,1662,1662,1662,1679,1679,1679,1693,1694,1702,1713,1719,1719,1719,1734,1735,1735,1746,1747,1747,1750,1750,1760,1761,1766,1766,1779,1782,1782,1797,1814,1828,1848,1861,1879,1879,1886,1887,1887,1896,1896,1914,1914,1915,1919,1920,1933,1934,1948,1948,1966,1966,2029,2030,2030,2270,2293,2302,2302,2314,2330,2331,2348,2350,2351,2365,2365,2382,2382,2383,2397,2398,2419,2420,2433,2433,2438,2449,2449,2465,2486,2486,2498,2498,2502,2502,2518,2532,2534,2549,2551,2551,2567,2567,2590,2591,2600,2600,2606,2607,2618,2618,2646,2646,2646,2664,2665,2670,2683,2690,2691,2691,2701,2702,2726,2726,2758,2759,2766,2766,2766,2783,2784,2814,2814,2822,2823,2837,2839,2850,2854,2856,2866,2866,2870,2870,2886,2886,2888,2888,2888,2907,2907,2907,2908,2911,2911,2911,2912,2912,2926,2926,2926,2927,2928,2928,2928,2939,2940,2942,2943,2958,2972,2972,2976,2976,2977,2988,2990,2991,2992,2992,3006,3006,3009,3010,3024,3025,3040,3040,3041,3041,3057,3058,3058,3058,3059,3071,3072,3073,3073,3079,3079,3080,3080,3093,3093,3093,3094,3095,3110,3111,3111,3118,3118,3119,3126,3136,3136,3142,3142,3143,3155,3158,3159,3160,3160,3171,3171,3174,3175,3190,3191,3192,3193,3204,3204,3205,3206,3207,3226,3237,3238,3240,3240,3253,3255,3255,3257,3258,3258,3259,3270,3271,3279,3279,3280,3280,3280,3291,3292,3292,3293,3294,3295,3295,3295,3305,3306,3306,3306,3319,3319,3320,3320,3326,3327,3327,3328,3328,3328,3329,3329,3339,3339,3339,3340,3342,3354,3355,3370,3371,3391,3422,3435,3435,3438,3438,3454,3455,3455,3456,3481,3482,3482,3483,3483,3484,3484,3488,3488,3489,3489,3489,3490,3490,3491,3491,3501,3502,3502,3504,3505,3505,3513,3514,3514,3518,3520,3520,3554,3554,3555,3555,3560,3560,3560,3561,3561,3593,3594,3594,3595,3595,3596,3598,3599,3599,3599,3600,3600,3600,3601,3601,3634,3634,3634,3635,3635,3636,3636,3637,3637,3639,3639,3640,3640,3640,3641,3641,3642,3643,3677,3677,3678,3678,3678,3680,3680,3681,3681,3682,3682,3682,3686,3687,3687,3687,3719,3719,3720,3720,3720,3754,3755,3755,3756,3756,3757,3757,3758,3758,3760,3761,3761,3762,3762,3762,3763,3763,3764,3795,3796,3796,3797,3797,3798,3798,3799,3799,3800,3801,3801,3802,3802,3802,3803,3803,3804,3838,3838,3838,3839,3839,3840,3840,3841,3841,3857,3857,3858,3858,3858,3859,3859,3860,3860,3862,3862,3863,3863,3864,3864,3864,3865,3902,3903,3904,3941,3941,3942,3942,3943,3943,3944,3944,3946,3947,3947,3948,3948,3949,3950,3951,4020,4021,4022,4022,4031,4032,4032,4033,4033,4033,4034,4034,4035,4048,4048,4049,4049,4050,4050,4069,4141,4142,4142,4178,4179,4180,4181,4182,4182,4186,4187,4188,4189,4190,4191,4192,4192,4193,4196,4197,4198,4199,4199,4200,4201,4202,4202,4214,4215,4215,4216,4216,4217,4217,4218,4218,4226,4226,4228,4228,4229,4229,4230,4230,4270,4271,4278,4279,4279,4291,4292,4293,4295,4296,4296,4297,4297,4308,4309,4310,4310,4312,4312,4313,4313,4325,4326,4326,4328,4328,4329,4334,4334,4335,4373,4374,4374,4446,4447,4448,4518,4518,4540,4541,4566,4576,4577,4599,4600,4614,4615,4629,4630,4650,4667,4667,4683,4684,4685,4687,4702,4703,4724,4750,4766,4767,4777,4782,4806,4806,4815,4837,4968,4975,4977,4984,4984,4986,5003,5004,5008,5009,5010,5010,5011,5023,5024,5024,5024,5038,5039,5039,5040,5040,5041,5041,5042,5054,5054,5055,5056,5056,5057,5057,5058,5073,5073,5074,5074,5075,5088,5089,5090,5090,5103,5103,5104,5118,5119,5119,5126,5127,5144,5173,5197,5197,5198,5213,5213,5214,5216,5217,5231,5232,5246,5246,5248,5249,5249,5267,5268,5283,5284,5287,5288,5288,5301,5302,5302,5303,5303,5314,5315,5316,5319,5320,5334,5335,5337,5338,5358,5358,5359,5378,5379,5398,5399,5411,5412,5430,5477,5497,5512,5513,5529,5529,5546,5550,5566,5567,5568,5579,5579,5580,5582,5584,5584,5585,5600,5600,5601,5602,5602,5614,5615,5616,5616,5617,5617,5618,5632,5633,5634,5634,5646,5647,5648,5648,5649,5665,5666,5667,5667,5670,5670,5681,5702,5702,5726,5727,5728,5734,5736,5747,5748,5769,5769,5781,5782,5783,5783,5784,5784,5785,5791,5792,5793,5793,5806,5806,5807,5829,5830,5831,5831,5846,5847,5847,5848,5848,5861,5862" d="m161,312c5.06351,-0.88535 5.65076,-1.13007 6.24451,-1.41068c0.60236,-0.28467 1.77179,-0.88745 2.32599,-1.17865c0.52177,-0.27417 1.77574,-0.99429 2.65617,-1.27734c0.88672,-0.2851 1.75993,-0.35074 2.4975,-0.49051c0.83922,-0.15903 1.73799,-0.34119 3.10916,-0.64282c0.44627,-0.09818 1.32797,-0.30255 2.22917,-0.52084c0.47108,-0.11411 1.47757,-0.36423 2.60417,-0.64581c0.61888,-0.15469 1.94885,-0.48917 2.64532,-0.66934c0.70918,-0.18347 1.42337,-0.37213 2.13451,-0.56851c0.70354,-0.19431 2.05539,-0.58957 2.68849,-0.79532c1.18364,-0.38464 1.72804,-0.58151 2.72501,-0.96417c0.45642,-0.17517 1.97275,-0.82111 2.573,-1.07434c0.76738,-0.32373 1.73109,-0.61444 2.51967,-0.70898c0.81982,-0.0983 1.89639,-0.16855 2.58566,-0.40985c0.82315,-0.28818 1.68642,-0.97299 2.34567,-1.44281c0.74477,-0.53076 1.46494,-0.83817 2.35883,-1.14734c0.95891,-0.33167 1.52579,-0.90451 2.45717,-1.04819c0.8895,-0.13721 1.82101,0.01224 2.62134,-0.00464c0.8539,-0.01801 1.78587,-0.3024 2.48849,-0.70435c0.72302,-0.41364 1.46774,-0.67126 2.242,-1.05267c1.05081,-0.51764 1.68491,-1.09604 2.34366,-1.53299c0.77551,-0.51437 1.65337,-0.68121 2.37517,-0.87784c0.882,-0.24026 1.875,-0.68182 2.54268,-1.01733c0.63893,-0.32108 1.58931,-1.00659 2.32666,-1.36801c0.86176,-0.42242 1.63356,-0.37024 2.41183,-0.55649c1.04999,-0.25128 1.7177,-0.7757 2.45799,-1.242c0.80716,-0.50842 1.7899,-0.90506 2.49017,-1.10651c0.68964,-0.19839 1.96306,-0.38644 2.73866,-0.53766c0.71632,-0.13965 1.69359,-0.65399 2.214,-1.0665c0.55946,-0.44345 1.3349,-1.20734 2.12584,-1.79434c0.66313,-0.49216 1.51262,-0.88724 2.32283,-1.06049c0.82826,-0.17709 1.77498,-0.3963 2.56033,-0.79251c0.58759,-0.29645 1.50867,-0.84601 2.55933,-1.26849c0.71257,-0.28653 1.43336,-0.49557 2.112,-0.66c1.09717,-0.26584 2.0562,-0.38586 2.867,-0.69501c0.88321,-0.33673 1.53949,-0.69226 2.25633,-1.01849c1.07376,-0.48865 1.76186,-0.75244 2.70201,-1.14816c0.58307,-0.24542 1.6347,-0.80209 2.30566,-1.32535c0.64606,-0.50385 1.41196,-1.19455 2.03598,-1.52798c0.77374,-0.41345 1.81369,-0.55475 2.436,-0.70801c1.20889,-0.29773 1.71149,-0.64523 2.50269,-1.08798c0.92715,-0.5188 1.75351,-0.78836 2.58282,-1.07202c0.71231,-0.24362 1.68155,-0.59668 2.47849,-0.76398c0.80341,-0.16864 1.62766,-0.54965 2.36401,-1.20001c0.69827,-0.61673 1.10971,-1.33444 2.03867,-1.73065c0.72314,-0.30844 1.58685,-0.3092 2.51068,-0.69467c0.81003,-0.33798 1.34402,-1.15222 2.00531,-1.45068c1.01419,-0.45776 1.63895,-0.64487 2.28134,-0.93866c0.94742,-0.43329 1.93744,-0.89627 2.67599,-0.97867c1.08167,-0.12067 1.68994,0.01071 2.68399,-0.09332c0.67682,-0.07083 1.88611,-0.47568 2.38934,-0.80002c0.77945,-0.50238 1.57321,-1.14584 2.22266,-1.52667c0.69958,-0.41022 1.47449,-0.7923 2.31601,-1.116c1.31735,-0.50674 1.79315,-0.60193 2.716,-0.85999c0.89853,-0.25125 1.36066,-0.29776 2.496,-0.79199c0.96457,-0.41989 1.43799,-0.8631 2.18134,-1.34933c0.97882,-0.64026 1.55899,-0.84891 2.42316,-1.23666c0.90012,-0.40388 1.7937,-0.89552 2.37466,-1.24734c0.56635,-0.34299 1.57959,-1.01889 2.30618,-1.35333c0.70721,-0.32552 1.85629,-0.53424 2.5155,-0.59399c1.01132,-0.09167 1.70206,0.04283 2.83215,-0.40984c0.80783,-0.32358 1.51941,-0.96162 2.11368,-1.24284c0.90677,-0.42909 1.69464,-0.7166 2.492,-0.96399c1.11023,-0.34447 1.81393,-0.41974 2.92798,-0.76933c0.67676,-0.21237 1.43399,-0.51917 2.23203,-0.81601c0.76468,-0.28442 1.71161,-0.6237 2.55966,-0.82983c1.07977,-0.26245 1.79749,-0.4668 2.59348,-0.66817c1.02029,-0.25812 1.74548,-0.22478 2.54684,-0.52199c1.06116,-0.39359 1.48816,-1.10025 2.38,-1.58784c0.72552,-0.39665 1.66226,-0.62491 2.36865,-0.89017c0.88684,-0.33302 1.83054,-0.25038 2.67352,-0.39433c1.00708,-0.17197 1.56512,-0.67612 2.14316,-1.10767c0.93832,-0.70055 1.64594,-0.83438 2.60535,-0.85199c0.75162,-0.01379 1.56326,-0.02139 2.77798,-0.35133c0.68848,-0.18701 1.6181,-0.48904 2.40982,-0.59917c0.85229,-0.11855 1.47021,-0.14645 2.64551,-0.61751c0.63501,-0.25452 1.2583,-0.64029 1.96802,-0.948c1.15588,-0.50116 2.04401,-0.73961 2.99182,-0.94099c0.49289,-0.10472 1.52344,-0.27554 2.60416,-0.375c1.11426,-0.10255 1.68137,-0.11371 2.24802,-0.13068c1.12378,-0.03365 1.67551,-0.0332 3.25198,-0.036c0.49066,-0.00087 1.42896,0.01091 2.33334,-0.04167c0.90671,-0.05272 1.37561,-0.09058 2.8425,-0.401c0.52725,-0.11159 1.5976,-0.40764 2.13666,-0.55733c1.05853,-0.29396 1.55701,-0.48071 2.95651,-0.757c0.79236,-0.15643 1.52216,-0.21942 2.54565,-0.24033c1.04013,-0.02124 1.78058,0.00194 2.56033,-0.0235c0.82037,-0.02675 2.1261,-0.13747 3.04236,-0.26317c0.46927,-0.06438 1.41534,-0.22018 2.36331,-0.36334c0.46835,-0.07072 1.83154,-0.22563 2.69101,-0.30899c0.82059,-0.07959 1.63474,-0.11273 2.69501,-0.54367c0.71045,-0.28876 1.31931,-0.7923 1.95599,-1.224c1.19022,-0.80701 1.80411,-1.08276 2.77316,-1.2135c0.70432,-0.09502 1.9375,-0.0625 2.40167,-0.0625c0.99832,0 1.52249,0 2.59583,0c0.53915,0 2.10666,0 3.06799,0c0.88934,0 1.30951,0 2.48401,0c1.0665,0 1.73083,0 2.67734,0c0.60934,0 1.81631,0.02676 2.77316,-0.04167c0.71091,-0.05084 1.93896,-0.28564 2.40167,-0.401c1.00165,-0.24971 1.5213,-0.41235 2.59583,-0.70667c0.53857,-0.14751 2.10513,-0.52603 2.59683,-0.608c0.92178,-0.15367 1.78503,-0.21368 2.577,-0.34799c1.10709,-0.18774 1.78442,-0.45757 2.76617,-0.89467c0.65421,-0.29128 1.65961,-0.70221 2.392,-0.82933c0.79156,-0.13739 1.69858,-0.15421 2.19833,-0.16167c1.74283,-0.026 2.41632,-0.00746 3.12967,-0.01167c0.74335,-0.00438 1.50681,-0.01367 2.28,-0.039c0.77353,-0.02534 1.53864,-0.05086 2.28,-0.129c2.01929,-0.21281 2.59424,-0.38412 3.12518,-0.53467c0.95599,-0.27106 1.74161,-0.63692 2.76147,-0.96133c0.82556,-0.2626 1.65735,-0.33655 3,-0.5c0.41965,-0.05109 1.35718,-0.18839 2.39584,-0.33333c0.54398,-0.07591 1.09595,-0.1703 2.77084,-0.33333c0.54431,-0.05298 1.60516,-0.11569 2.12,-0.15201c1.0004,-0.07056 1.96774,-0.14525 2.88,-0.34799c0.88779,-0.19731 1.71091,-0.51324 2.48398,-0.81601c0.71219,-0.27892 1.90497,-0.72951 2.64102,-0.80899c1.03647,-0.11191 1.83099,-0.04167 2.875,-0.04167c0.75598,0 1.66666,0 2.56665,0c0.89999,0 1.80002,0 2.70016,0c0.78519,0 1.72519,0 2.73318,0c0.6875,0 1.70966,0 2.43866,0c0.83701,0 2.02798,0 2.62799,0c0.89999,0 2.10001,0 2.70401,0c0.9585,0 1.66751,0 2.896,0c0.96133,0 1.4895,0 2.05066,0c1.22534,0 1.89151,0 2.59467,0c1.52133,0 2.34052,-0.00156 3.19467,0.00267c0.88416,0.00438 1.79346,0.01392 2.7225,0.039c0.94431,0.0255 1.89917,0.06013 2.85751,0.129c1.91528,0.13763 2.85867,0.26381 3.78665,0.39867c0.9104,0.13231 1.79443,0.28619 2.64749,0.45149c0.82028,0.15894 1.59958,0.32573 2.33252,0.49651c1.31555,0.30653 1.88449,0.45911 2.39865,0.59599c0.46313,0.12331 0.8768,0.24193 1.57867,0.44c1.00189,0.28275 1.88998,0.45653 2.47467,0.70134c0.86743,0.36319 1.57202,0.80333 2.36133,1.24533c0.78931,0.442 1.79974,1.08923 2.57135,1.32851c0.90198,0.27971 1.69891,0.27164 2.59534,0.83817c0.69666,0.44028 1.06244,0.75685 1.91663,1.39583c0.45959,0.34381 1.41565,1.06647 2.41669,1.77083c0.4967,0.34949 1.49377,1.00771 1.98932,1.32001c0.48822,0.30766 1.45129,0.88884 1.92535,1.16c1.35803,0.77673 1.8053,1.00291 2.68134,1.48267c0.44635,0.24445 1.37494,0.76436 1.85864,1.05865c1.62262,0.98726 2.19653,1.39467 2.79437,1.80334c0.60754,0.41528 1.21094,0.83968 1.80298,1.26599c0.57733,0.41574 1.1366,0.80948 2.54102,1.91133c0.74066,0.58107 1.34113,1.11826 1.95599,1.494c0.9184,0.56123 1.69806,0.79744 2.5163,1.03467c0.81927,0.23752 1.61639,0.38005 2.54901,0.73584c0.86456,0.32982 1.71362,0.77913 2.63635,0.86417c0.74152,0.06834 1.836,-0.16525 2.74933,0.20267c0.67297,0.27112 1.40686,0.72214 2.31348,0.84233c0.75336,0.09987 1.74261,0.54922 2.35187,0.85233c0.62848,0.31265 1.60364,1.04375 2.29297,1.597c0.70325,0.56442 1.508,0.52744 2.46338,0.54201c0.82513,0.01259 1.75281,0.06186 2.745,0.33299c0.72601,0.19839 1.44769,0.50656 2.13599,0.85201c1.2168,0.61067 1.78412,1.13445 2.44098,1.453c0.86255,0.41833 1.77234,0.35548 2.73553,0.36166c0.93152,0.00598 1.86041,0.18469 2.54163,0.54167c0.59814,0.31345 1.37177,0.95302 2,1.45833c0.65558,0.52731 1.65698,1.12549 2.45837,1.47916c0.74707,0.32968 1.50507,0.80518 2.26898,1.16367c0.86786,0.40726 1.67407,0.34363 2.65051,0.64117c0.78308,0.23865 1.78156,0.46481 2.60132,0.88266c0.63953,0.32599 0.86426,1.54684 1.61066,1.82266c0.83429,0.30832 1.78937,0.0087 2.68933,0.01068c0.90265,0.00201 1.69476,0.22501 2.46802,0.85199c0.49902,0.40463 1.1842,1.14554 1.89868,1.64801c0.77155,0.5426 1.66022,0.93625 2.16931,1.36133c0.77374,0.64609 1.54028,1.29285 2.14319,1.59702c0.96808,0.4884 1.81445,0.59198 2.50482,1.11099c0.73975,0.55612 1.3493,1.26398 1.89069,1.80533c0.79199,0.79196 1.23669,1.32126 1.97266,1.9155c0.72968,0.58914 1.87537,0.48154 1.88562,0.71432c0.0332,0.75525 -1.61426,0.41284 -2.33295,1.09552c-0.61523,0.58441 -1.11761,1.37015 -2.06671,1.73334c-0.7901,0.30237 -1.70068,-0.00204 -2.45862,0.23865c-0.9469,0.30069 -1.37628,0.97226 -1.97601,1.44534c-0.96912,0.7645 -1.59473,1.07977 -2.59851,1.58249c-0.58722,0.2941 -1.62201,0.8067 -2.38953,0.8895c-0.92615,0.09991 -1.93079,-0.1817 -2.70081,0.06784c-0.7959,0.25793 -1.42902,0.86234 -2.11884,0.99551c-0.99823,0.19272 -1.78241,0.51498 -2.56952,1.04715c-0.74506,0.50375 -1.45508,1.05518 -2.07416,1.54752c-0.64728,0.51474 -1.62787,0.35532 -2.43134,0.92065c-0.55035,0.38724 -1.3313,1.14294 -2.1413,1.44669c-0.84387,0.31644 -1.56323,0.64487 -2.57452,0.86383c-0.76801,0.16629 -1.79126,0.02908 -2.55286,0.17865c-0.93793,0.18417 -1.69714,0.64627 -2.66846,0.8215c-0.78662,0.14191 -1.61206,0.02969 -2.60822,0.40533c-0.7063,0.26633 -1.57428,0.64655 -2.39197,0.72668c-0.92084,0.09024 -1.84125,0.39444 -2.57336,0.69382c-0.87811,0.35907 -1.54938,0.93372 -2.20667,1.49417c-0.65198,0.55588 -1.64478,0.7796 -2.26031,0.79684c-1.22052,0.03418 -2.02704,-0.04584 -2.76898,0.08981c-0.98102,0.17938 -1.62091,0.76852 -2.42651,1.21017c-0.7226,0.39618 -1.73901,0.65213 -2.50684,0.69382c-0.95068,0.05161 -1.71997,0.01068 -2.66132,0.01068c-1.008,0 -1.82227,-0.03082 -2.65869,0.28534c-0.71411,0.26993 -1.57446,1.0101 -2.26868,1.35748c-0.85602,0.42834 -1.70898,0.35492 -2.66882,0.35718c-0.81451,0.00189 -1.68298,-0.0022 -2.57849,0c-0.909,0.00226 -1.54376,-0.00638 -2.57068,0.08533c-1.17517,0.10495 -2.03479,0.26669 -2.47998,0.34c-0.89893,0.14804 -1.77802,0.31757 -3.00635,0.45319c-0.72705,0.08029 -1.72162,0.11478 -2.34033,0.12015c-1.20129,0.01041 -2.08484,-0.00967 -2.64551,0.0585c-1.28137,0.15582 -1.95038,0.40482 -2.79047,0.94284c-0.67719,0.43375 -1.46997,0.97141 -2.48834,1c-0.71973,0.0202 -1.84503,0 -2.62653,0c-0.79047,0 -1.72308,-0.06857 -2.55182,0.02084c-1.05585,0.11392 -1.7558,0.42523 -2.55182,0.6265c-1.02011,0.25793 -1.70105,0.33466 -2.78152,0.35266c-0.75589,0.0126 -1.75,0 -2.30798,0c-1.19867,0 -1.992,0 -2.86533,0c-0.45419,0 -1.82669,0 -2.70801,0c-0.84933,0 -1.67468,-0.00006 -2.48401,0c-1.20117,0.00009 -1.9971,-0.00595 -2.78049,0.02084c-0.7641,0.02612 -1.85867,0.12299 -2.86368,0.33182c-0.6395,0.13287 -1.54999,0.40018 -2.45682,0.52585c-0.87482,0.12122 -1.686,0.11923 -2.73236,0.12149c-0.77332,0.00165 -1.73865,0 -2.50964,0c-0.86102,0 -1.758,0 -2.63702,0c-0.80698,0 -2.00699,0 -2.92166,0c-0.71399,0 -1.67032,0 -2.44131,0c-0.86102,0 -1.75818,0 -2.64767,0c-0.85352,0 -1.88901,0 -2.76901,0c-1.02032,0 -1.79431,0 -2.69882,0c-0.74734,0 -1.74283,0 -2.54285,0c-1,0 -1.79999,0 -2.79999,0c-0.79999,0 -1.60001,0 -2.59549,0c-0.91919,0 -1.90451,0 -2.72601,0c-0.88916,0 -1.87851,0 -2.6785,0c-1,0 -1.82132,0 -2.51434,0c-1.12814,0 -1.7865,0 -2.79898,0c-0.63333,0 -1.83768,0 -2.659,0c-0.86102,0 -1.65036,0 -2.57568,0c-0.49365,0 -1.50299,0 -2.952,0c-0.84399,0 -1.59201,0 -2.26801,0c-1.23199,0 -1.83331,0 -2.75284,0c-0.96448,0 -2.00034,0 -2.72733,0c-0.73099,0 -1.7825,0 -2.71017,0c-0.85498,0 -1.50833,0 -2.32166,0c-1.05334,0 -2.392,0 -3.14133,0c-0.78134,0 -1.57867,0 -2.37601,0c-0.78134,0 -1.53067,0 -2.86932,0c-1.04935,0 -1.83469,0 -2.64017,0c-0.94052,0 -1.86493,-0.07361 -2.69318,0.02084c-0.99237,0.11319 -1.52899,0.73453 -2.5,0.95831c-0.87753,0.20224 -1.71259,0.29193 -2.29999,0.82217c-0.64621,0.58331 -1.24109,1.03815 -2.25867,1.39999c-0.66199,0.23541 -1.44617,0.43182 -2.31601,0.68402c-0.95959,0.2782 -1.9996,0.60001 -2.55316,0.76733c-0.57574,0.17404 -1.8002,0.52701 -2.45267,0.69464c-0.67685,0.17389 -2.1185,0.49136 -2.88333,0.6315c-0.78586,0.14401 -1.58978,0.27222 -2.40152,0.40652c-0.81393,0.13467 -1.62402,0.26883 -2.41949,0.4245c-0.77924,0.1525 -2.25266,0.51047 -2.9285,0.73267c-0.64417,0.21179 -1.80377,0.68942 -2.32001,0.93665c-0.927,0.44397 -1.96951,1.10092 -2.74249,1.34933c-0.78204,0.25131 -1.74951,0.17151 -2.75751,0.17151c-0.6875,0 -1.71014,0 -2.47064,0c-0.62534,0 -1.35468,-0.00278 -2.66,0.00015c-0.99402,0.00223 -1.51227,0.0018 -2.56,0.03586c-0.51816,0.01685 -1.97934,0.10898 -2.832,0.25064c-0.83578,0.13885 -1.26865,0.25656 -2.24503,0.47501c-0.56277,0.12592 -1.89859,0.40698 -2.69131,0.56c-0.86591,0.16718 -1.79114,0.33768 -2.75702,0.52502c-0.99277,0.19257 -1.99625,0.39282 -2.991,0.61499c-0.97592,0.21799 -2.79694,0.69266 -3.60983,0.9595c-0.76169,0.25003 -1.46915,0.52328 -2.1405,0.79349c-0.64828,0.26089 -1.27631,0.52997 -1.90649,0.77551c-0.63254,0.24646 -1.96637,0.6886 -2.68765,0.86667c-0.74417,0.18372 -1.51105,0.33179 -2.28452,0.46048c-0.76697,0.12759 -1.52081,0.22968 -2.2485,0.3165c-0.68967,0.08231 -1.91547,0.20004 -2.89282,0.28351c-0.8013,0.06842 -1.53351,0.12558 -2.29199,0.25201c-1.4317,0.23865 -2.0029,0.39774 -2.61783,0.53598c-0.6424,0.14441 -1.96304,0.44611 -2.62067,0.58936c-0.63974,0.13937 -1.82224,0.39371 -2.83084,0.53467c-0.83502,0.1167 -1.84836,0.15778 -2.90933,0.17099c-0.53802,0.00671 -1.25247,0.03497 -2.28601,0.11398c-0.68234,0.05215 -2.46616,0.21744 -3.5975,0.32867c-1.28067,0.12592 -2.68915,0.26993 -4.2045,0.42902c-1.60165,0.16815 -3.26819,0.34763 -4.97849,0.53699c-1.7337,0.19196 -5.18573,0.58926 -6.8645,0.79068c-1.63321,0.19595 -3.21399,0.39136 -4.737,0.57898c-1.45901,0.17972 -2.84772,0.35153 -4.16101,0.50702c-1.23074,0.14572 -3.42261,0.38513 -4.375,0.47165c-0.86365,0.07846 -1.65201,0.13739 -2.37601,0.19202c-0.672,0.05072 -1.30444,0.09653 -1.90799,0.15601c-0.58847,0.05798 -1.7652,0.22153 -2.37283,0.33731c-0.62311,0.11871 -1.25031,0.25989 -1.8765,0.40802c-0.61951,0.14658 -1.22256,0.29904 -1.8045,0.444c-0.55273,0.1377 -1.5426,0.37619 -1.96967,0.46249c-0.38245,0.07727 -0.72998,0.13544 -1.04849,0.18149c-0.29587,0.04279 -0.57739,0.07544 -0.85049,0.1095c-0.27225,0.03394 -0.84189,0.11639 -1.15134,0.17319c-0.32925,0.06042 -0.67557,0.13187 -1.03952,0.20398c-0.3797,0.07526 -0.77414,0.15231 -1.1835,0.22202c-0.4213,0.07172 -1.30002,0.1907 -1.75482,0.23117c-0.45993,0.04092 -0.92255,0.06723 -1.383,0.08548c-0.45425,0.01801 -0.89865,0.02881 -1.74133,0.03467c-1.40665,0.0098 -2.01489,-0.01398 -2.98416,0.11566c-1.27786,0.17093 -1.79929,0.32706 -2.37851,0.45367c-0.6218,0.13593 -1.95398,0.43451 -2.64801,0.58133c-0.69897,0.14786 -1.39139,0.31097 -2.74399,0.51733c-1.2363,0.18863 -1.81448,0.22635 -2.35999,0.26135c-0.99924,0.06412 -1.88,0.07065 -2.97534,0.07199c-0.84601,0.00104 -2.00066,-0.03519 -2.65668,0.03201c-0.89568,0.09174 -1.3318,0.21857 -2.508,0.46799c-0.75691,0.16052 -1.60939,0.35172 -2.5365,0.55801c-0.97823,0.21768 -1.98412,0.44296 -2.9955,0.66599c-0.99295,0.21896 -1.94304,0.43527 -3.63467,0.776c-0.69574,0.14014 -1.29262,0.24841 -1.79999,0.32849c-0.42609,0.06723 -1.32661,0.16476 -2.408,0.17151c-0.94716,0.00592 -1.68784,0 -2.39734,0c-1.22266,0 -1.62334,0 -2.64467,0c-0.65266,0 -1.42133,0 -2.32199,0c-2.26134,0 -3.64517,0 -5.172,0c-1.63284,0 -3.33467,0 -5.06851,0c-1.72882,0 -3.41566,0 -5.0235,0c-2.83066,0 -3.989,0 -4.97733,0c-0.83833,0 -1.54668,0 -2.145,0c-0.50833,0 -0.94667,0 -1.33501,0c-0.70667,0 -1.06149,0 -1.42532,0c-0.37184,0 -0.75067,0 -1.1355,0c-0.38983,0 -0.78368,0 -1.18051,0c-0.79866,0 -1.19833,0 -1.59599,0c-0.39366,0 -0.78133,0 -1.161,0c-0.36967,0 -1.071,0 -2.27101,0c-0.94933,0 -1.97083,0 -2.79149,0c-0.66451,0 -1.66718,0 -2.54167,0c-0.65633,0 -1.77083,0 -2.6055,0c-0.88266,0 -1.78134,0 -2.664,0c-1.22516,0 -1.95816,0 -2.64717,0c-1.00349,0 -2.04216,0 -2.7735,0c-0.74733,0 -1.49466,0 -2.92566,0c-0.66,0 -1.575,0 -2.655,0c-0.714,0 -1.392,0 -2.58817,0c-0.8145,0 -1.38918,0 -2.57851,0c-0.89549,0 -1.76401,0 -2.83333,0c-0.7095,0 -1.56216,0 -2.56534,0c-0.76534,0 -1.71733,0 -2.48534,0c-0.94133,0 -1.94933,0 -2.74133,0c-0.86,0 -1.77916,0 -2.77333,0c-0.76534,0 -1.71733,0 -2.48534,0c-0.94133,0 -1.95505,0.06763 -2.77733,-0.03601c-0.89354,-0.11261 -1.58435,-0.40677 -2.33333,-0.61133c-1.18378,-0.3233 -2.00574,-0.3273 -2.80534,-0.35266c-0.90135,-0.02859 -1.67168,-0.62921 -2.52133,-0.87851c-0.82568,-0.24228 -1.98698,0.18954 -2.59467,-0.40683c-0.62085,-0.60931 -0.90057,-1.39267 -1.68401,-1.73999c-0.81766,-0.36252 -1.69196,-0.69592 -2.49983,-1.1965c-0.556,-0.34451 -0.83728,-1.54456 -0.87933,-2.27817c-0.0419,-0.73105 -0.02083,-1.70816 -0.02083,-2.47684c0,-1.23001 0,-2.091 0,-2.56049c0,-0.97202 0,-1.92801 0,-3.17786c0,-0.68765 0,-1.34732 0,-2.06699c0,-1.38449 0,-1.96783 0,-2.61118c0,-1.42667 0,-2.19 0,-2.97333c0,-0.79333 0,-1.58667 0,-3.13333c0,-0.73532 0,-1.44266 0,-2.12399c0,-0.65735 0,-1.90802 0,-2.50534c0,-0.58133 0,-2.24884 0,-2.78265c0,-1.03067 0,-2.00534 0,-2.46918c0,-1.28549 0,-2.04816 0,-3.07718c0,-0.63266 0,-1.84164 0,-2.74167c0,-0.59998 0,-1.79999 0,-2.69098c0,-0.83701 0,-1.77567 0,-2.56735c0,-0.94165 0,-1.85065 0,-2.875c0,-0.681 0,-1.48798 0,-2.66666c0,-0.59732 0,-1.45834 0,-2.66666c0,-0.672 0,-1.65485 0,-2.54401c0,-0.98935 -0.01334,-1.78943 0,-2.78934c0.01067,-0.8002 0.1012,-1.63852 0.56799,-2.39868c0.37865,-0.61661 1.24142,-1.39417 1.41068,-2.26266c0.16875,-0.86597 -0.00145,-1.63745 0.13567,-2.56198c0.16597,-1.11917 0.44916,-1.94348 0.591,-2.37302c0.28564,-0.86502 0.62059,-1.67346 0.96133,-2.737c0.29974,-0.93555 0.39734,-1.63702 0.68599,-2.672c0.20857,-0.74786 0.54425,-1.65245 0.62651,-2.47383c0.10028,-1.0014 -0.0386,-1.75426 0.24249,-2.72083c0.24062,-0.82736 0.63182,-1.42595 1.26233,-2.19867c0.49103,-0.60178 1.34933,-1.43466 1.88,-1.96533c0.73601,-0.73601 1.28185,-1.19327 1.9315,-1.936c0.58118,-0.66444 0.8588,-1.61626 1.7045,-1.7c0.88103,-0.08723 1.82533,0 2.51601,0c1.07333,0 1.96619,-0.10738 2.80516,0.44316c0.55251,0.36255 1.07234,0.97905 1.43634,1.97833c0.28726,0.7886 0.31555,1.72205 0.74249,2.57851c0.47285,0.94858 1.03139,1.48874 1.55634,2.04283c0.76231,0.80466 1.28419,1.25772 1.96449,2.0405c0.50673,0.58305 0.77,0.9276 1.62184,2.22334c0.33386,0.50783 0.66342,1.05618 1.35733,2.19333c0.34972,0.57309 0.68816,1.14075 1.032,1.67999c0.90793,1.42386 1.45154,2.14484 1.92633,2.75751c0.43074,0.55582 1.0536,1.38849 1.44167,2.03183c0.41284,0.68445 0.79466,1.41895 1.20001,2.14801c0.59222,1.06519 0.98087,1.72961 1.39999,2.32016c0.57439,0.8093 1.4025,1.58517 1.95833,2.02084c0.80644,0.63208 1.16782,1.57437 1.68834,2.17764c0.62827,0.72812 1.22717,1.15536 1.64349,1.76852c0.63593,0.93665 0.69917,1.79532 0.70984,2.79532c0.00832,0.7793 0,1.77966 0,2.6055c0,1.19467 -0.00327,1.62305 0.0045,2.61966c0.00427,0.54837 0.02776,1.69516 0.05266,2.27335c0.02449,0.56851 0.13075,2.12173 0.3045,2.96851c0.15092,0.73557 0.47336,1.67499 1.12233,2.64917c0.31697,0.4758 0.93243,1.095 1.49467,2.10599c0.45399,0.81635 0.65175,1.4949 0.90533,2.23532c0.4463,1.30313 0.59502,1.79239 0.94133,2.78668c0.1722,0.49435 0.522,1.42651 1.008,2.556l0.405,0.6615" id="svg_1" stroke-width="2" stroke="#000" fill="none"/>
  <path t="7225,7302,7302,7316,7316,7316,7318,7318,7318,7326,7326,7326,7326,7340,7340,7340,7344,7345,7354,7354,7354,7358,7358,7358,7372,7372,7372,7374,7374,7385,7385,7401,7401,7406,7407,7407,7407,7417,7417,7417,7421,7422,7422,7434,7434,7434,7438,7438,7438,7438,7453,7453,7453,7453,7454,7454,7454,7454,7454,7473,7473,7473,7486,7486,7486,7486,7486,7505,7505,7505,7505,7505,7505,7511,7511,7511,7511,7511,7511,7519,7519,7519,7519,7526,7526,7526,7526,7538,7538,7538,7538,7539,7544,7544,7544,7551,7551,7551,7551,7557,7558,7558,7558,7567,7568,7568,7568,7574,7574,7574,7574,7586,7586,7586,7586,7589,7590,7590,7590,7603,7603,7606,7607,7619,7619,7619,7621,7622,7622,7636,7636,7636,7638,7638,7638,7638,7638,7652,7653,7654,7654,7670,7671,7671,7678,7678,7678,7694,7694,7703,7710,7718,7719,7737,7737,7744,7745,7752,7752,7757,7771,7771,7774,7786,7786,7822,7823,7837,7902,7902,8013,8021,8022,8022,8022,8035,8036,8036,8036,8036,8036,8036,8038,8038,8038,8039,8039,8039,8052,8052,8052,8052,8052,8052,8052,8053,8054,8054,8054,8054,8054,8054,8054,8061,8062,8062,8062,8062,8062,8062,8062,8062,8070,8070,8070,8070,8070,8070,8071,8071,8078,8078,8078,8078,8078,8086,8086,8086,8094,8094,8094,8094,8106,8106,8106,8110,8110,8120,8120,8120,8126,8126,8126,8138,8139,8139,8139,8143,8143,8143,8154,8154,8155,8157,8158,8158,8172,8172,8173,8173,8173,8186,8186,8189,8190,8204,8204,8204,8206,8206,8220,8220,8220,8221,8222,8230,8230,8230,8230,8230,8241,8241,8241,8246,8247,8247,8247,8247,8256,8256,8256,8256,8257,8262,8262,8262,8263,8263,8273,8273,8273,8274,8274,8282,8282,8282,8282,8282,8292,8292,8292,8292,8293,8294,8294,8295,8295,8296,8296,8308,8308,8308,8308,8309,8311,8311,8311,8311,8323,8323,8323,8323,8323,8327,8327,8327,8327,8340,8341,8342,8343,8343,8343,8343,8355,8356,8356,8356,8356,8356,8356,8358,8358,8358,8358,8359,8373,8374,8374,8374,8374,8376,8376,8382,8382,8383,8383,8391,8391,8392,8398,8398,8399,8416,8416,8517,8518,8540,8542,8542,8542,8557,8557,8558,8558,8558,8572,8572,8573,8574,8574,8574,8589,8590,8590,8598,8599,8599,8599,8599,8610,8610,8610,8618,8618" d="m317,272c-0.71432,1.65717 -1.22015,2.21185 -2,3c-0.59457,0.60092 -1.20325,1.16876 -1.83334,2c-0.4426,0.58389 -0.91028,1.46249 -1.33331,2.16666c-0.47592,0.79218 -0.84311,1.32724 -1.34933,2.14935c-0.6105,0.99146 -0.96579,1.6618 -1.28268,2.28265c-0.51004,0.99921 -0.92133,1.82889 -1.52283,2.60135c-0.4856,0.6236 -1.08401,1.19897 -1.87833,2c-0.39615,0.39951 -1.00958,0.96411 -1.63351,1.79999c-0.57425,0.76932 -0.85526,1.4035 -1.36667,2.39868c-0.39468,0.76807 -0.91144,1.57129 -1.39999,2.22665c-0.51233,0.68726 -0.87549,1.42697 -1.56665,2.37466c-0.45706,0.62668 -1.0329,1.21814 -1.34933,1.68533c-0.65335,0.9646 -0.9646,1.82404 -1.23666,2.362c-0.53143,1.05084 -1.08072,1.71011 -1.59467,2.34818c-0.64163,0.7966 -1.01599,1.43018 -1.46252,2.06165c-0.69931,0.98889 -1.19476,1.50043 -1.711,2.04285c-0.52573,0.5524 -1.564,1.57303 -2.02649,2.05634c-0.45886,0.47949 -1.15005,1.28854 -1.61932,1.94366c-0.53003,0.73993 -1.04123,1.56299 -1.29169,1.97916c-0.48218,0.80121 -1.0473,1.85168 -1.46567,2.80884c-0.33252,0.76071 -0.72928,1.48438 -1.15198,2.0835c-0.4942,0.70047 -1.08936,1.44641 -1.41333,1.83252c-1.01553,1.21021 -1.39526,1.5968 -2.13602,2.40665c-0.37494,0.40991 -1.12796,1.24146 -1.49066,1.67468c-0.72946,0.87131 -1.40292,1.7926 -1.71783,2.26282c-0.61743,0.92194 -0.90411,1.37903 -1.39417,2.2825c-0.65717,1.21158 -0.96341,1.95447 -1.25116,2.62769c-0.2702,0.63214 -0.83047,1.84875 -1.1825,2.44617c-0.36758,0.62381 -0.79254,1.25793 -1.505,2.26215c-0.51068,0.71982 -1.04883,1.44739 -1.3125,1.8125c-0.51263,0.70984 -1.21466,1.67099 -1.70651,2.51102c-0.41644,0.71127 -0.80692,1.67941 -1.12332,2.46698c-0.22736,0.56586 -0.61652,1.47461 -1.23401,2.34268c-0.44031,0.61899 -0.98297,1.19556 -1.56601,1.74301c-0.86832,0.81534 -1.48666,1.27576 -2.08032,1.72116c-0.84927,0.63718 -1.67139,1.20566 -2.349,1.845c-0.43857,0.41382 -1.02338,1.13754 -1.44034,2.034c-0.30496,0.65564 -0.51501,1.40076 -0.77399,2.16599c-0.40417,1.19437 -0.71512,1.99316 -1.07269,2.74835c-0.33429,0.70599 -0.97061,1.81516 -1.53867,2.31998c-0.69386,0.61664 -1.13916,1.16269 -1.63599,2.12268c-0.41331,0.79861 -0.72389,1.42453 -1.32133,2.20001c-0.47821,0.62073 -1.0795,1.16113 -1.79601,2.20398c-0.43733,0.63654 -0.68779,1.17017 -1.21599,2.09601c-0.42952,0.75287 -0.90993,1.56348 -1.38,2.388c-0.22572,0.39594 -1.00725,1.69882 -1.17867,2.37866c-0.22162,0.87894 -0.03915,1.77179 -0.27467,2.73334c-0.20404,0.83304 -0.58086,1.46552 -1.1545,2.42117c-0.3192,0.53177 -0.89545,1.27731 -1.3455,2.24548c-0.35565,0.76508 -0.33333,1.73334 -0.33333,2.63333c0,0.90268 0,1.67068 0,2.70535c0,0.74399 0,1.66132 0,2.60931c0,0.86935 0,1.73267 0,2.62817c0,0.9585 -0.06676,1.64566 0.01067,2.58252c0.084,1.01654 0.4995,1.664 1.18933,2.37466c0.591,0.60886 1.18283,1.21759 1.90001,1.89981c0.58632,0.55774 1.4415,0.88974 2.44383,0.90018c0.78145,0.00812 1.45749,0 2.28549,0c1.004,0 2.19202,0.00009 2.8385,-0.00449c0.66951,-0.00473 1.35313,-0.01141 2.04149,-0.03152c1.35632,-0.03961 2.62488,-0.12231 3.20502,-0.18533c1.06778,-0.116 1.56256,-0.20673 2.51498,-0.35333c0.93561,-0.14401 1.90347,-0.26569 2.944,-0.34399c0.54974,-0.04138 1.71057,-0.11716 2.32001,-0.17865c0.63065,-0.06363 1.28836,-0.11478 2.64001,-0.40268c1.44638,-0.30807 2.17752,-0.55905 2.92798,-0.78665c0.76059,-0.23068 1.52335,-0.47549 2.2905,-0.71252c0.76483,-0.2363 2.27985,-0.67413 3.02686,-0.85815c0.73575,-0.18124 1.46829,-0.33905 2.19598,-0.492c0.72498,-0.15237 1.45142,-0.29794 2.17801,-0.45599c0.73209,-0.15924 2.21591,-0.52118 2.96799,-0.73734c0.76004,-0.21844 1.51532,-0.45874 2.26202,-0.70801c0.73529,-0.24545 1.44919,-0.49536 2.79199,-0.98132c1.19305,-0.43176 1.71671,-0.6282 2.6395,-0.95367c0.78073,-0.27539 1.46487,-0.50079 2.68567,-0.91449c0.59644,-0.20212 1.49915,-0.47052 2.53351,-1.0665c0.50015,-0.28818 1.15485,-0.8447 1.76532,-1.43466c0.81223,-0.78491 1.38049,-1.37784 1.91602,-1.91336c0.73267,-0.73267 1.36932,-1.36932 1.97064,-1.97064c0.53552,-0.53552 1.12207,-1.10999 1.91467,-1.91602c0.60468,-0.61493 1.02554,-1.03519 1.79984,-2.01999c0.40945,-0.52078 0.97327,-1.34753 1.31485,-1.89468c0.61795,-0.98981 0.97549,-1.68961 1.36932,-2.36798c0.58551,-1.00854 0.94812,-1.53711 1.46332,-2.36334c0.63995,-1.02628 1.02988,-1.74283 1.31403,-2.21399c0.65344,-1.08344 1.09406,-1.71457 1.59998,-2.36801c0.51019,-0.65897 0.97763,-1.33643 1.81702,-1.88483c0.81754,-0.53412 1.80627,-0.57324 2.42166,-1.0275c0.9111,-0.67255 1.32535,-1.28369 1.84732,-1.80566c0.76868,-0.76868 1.41397,-1.39682 1.97385,-1.97418c0.66846,-0.68933 1.19131,-1.24567 1.578,-2.28751c0.23975,-0.64594 0.5827,-1.73477 0.95416,-2.35898c0.41348,-0.69485 0.9111,-1.3783 1.38,-2.06403c0.62997,-0.92126 1.11066,-1.72058 1.41733,-2.21866c0.67105,-1.0899 1.11618,-1.72046 1.61066,-2.41068c0.25821,-0.36044 0.79608,-1.08649 1.57202,-2.172c0.48618,-0.68015 0.94049,-1.34189 1.392,-1.992c0.45782,-0.65924 1.19476,-1.69687 1.72733,-2.42731c0.27206,-0.37314 0.82501,-1.11981 1.36334,-1.86334c0.76715,-1.05957 1.22934,-1.73602 1.70483,-2.384c0.48248,-0.6575 0.72668,-1.00278 1.62198,-2.02118c0.65143,-0.741 1.01102,-1.10107 1.74252,-1.81747c0.36279,-0.35532 1.44452,-1.33221 2.12933,-1.89468c0.64606,-0.53067 1.30179,-1.02545 1.884,-1.62c0.94754,-0.96762 1.20944,-1.39423 1.80133,-2.23334c0.3042,-0.43124 0.89362,-1.31699 1.19998,-1.74667c0.88168,-1.23663 1.49133,-1.95151 1.78934,-2.284c0.56683,-0.63245 1.1293,-1.19073 2.12799,-2.20132c0.46988,-0.47549 0.95126,-0.97214 1.45203,-1.53601c0.88629,-0.99796 1.53625,-1.80307 1.88132,-2.22131c0.69925,-0.84753 1.03531,-1.27338 2.01599,-2.42401c0.28766,-0.33749 1.04562,-1.18616 1.47601,-1.63199c0.82654,-0.8562 1.37817,-1.38885 2.19067,-2.20135c0.44,-0.44 0.95999,-0.95999 1.56,-1.56c0.67999,-0.67999 1.44,-1.44 1.84933,-1.84933c0.86267,-0.86267 1.30798,-1.30798 1.75732,-1.75732c0.44934,-0.44934 1.33237,-1.33163 2.16666,-2.16666c0.763,-0.76367 1.12451,-1.11816 1.79169,-1.8125c0.63797,-0.66394 1.54404,-1.68549 1.84131,-2.04169c0.59616,-0.71432 1.14545,-1.42783 1.686,-2.05499c0.66501,-0.77158 1.47961,-1.22168 2.01434,-2.09082c0.42563,-0.6918 0.49451,-1.38501 0.75717,-2.03702c0.51364,-1.27493 0.86884,-1.80804 1.45349,-2.47501c0.75089,-0.8566 1.40924,-1.39084 1.91733,-1.98532c0.6687,-0.78241 0.86749,-1.58862 0.87201,-2.48868c0.00348,-0.69464 -0.04352,-1.74319 0.16666,-2.68066c0.15186,-0.67734 0.37668,-1.72882 1.03601,-2.41464c0.51035,-0.53085 1.35199,-0.90277 2.048,-1.53867c0.5076,-0.46375 1.41599,-1.38 1.93948,-1.9035c0.55801,-0.55801 1.30472,-1.28491 1.80984,-1.83069c0.52756,-0.57001 1.0997,-1.39639 1.5625,-2.02081c0.5538,-0.74719 1.41885,-1.60516 1.7735,-1.92502c0.75699,-0.68271 1.16245,-1.01434 1.95334,-1.67084c1.04199,-0.86493 1.57065,-1.30649 2.30399,-1.93048l0.72784,-0.53201l0.65799,-0.39999" id="svg_2" stroke-width="2" stroke="#000" fill="none"/>
  <path t="9561,9678,9678,9679,9687,9687,9687,9687,9687,9696,9697,9697,9697,9697,9702,9702,9702,9703,9703,9712,9712,9712,9712,9712,9712,9718,9718,9718,9718,9718,9726,9734,9734,9743,9743,9743,9743,9743,9750,9759,9759,9766,9776,9782,9782,9792,9792,9797,9797,9797,9811,9811,9811,9811,9811,9811,9815,9815,9815,9815,9815,9826,9826,9826,9827,9827,9829,9829,9830,9843,9843,9843,9843,9846,9846,9846,9846,9853,9854,9854,9854,9861,9861,9870,9870,9870,9870,9878,9878,9878,9886,9886,9887,9894,9894,9894,9902,9902,9912,9912,9912,9918,9918,9926,9926,9926,9933,9934,9934,9945,9945,9945,9950,9950,9960,9966,9966,9966,9977,9977,9977,9982,9982,9993,9993,9993,9993,9997,9997,9998,10012,10012,10014,10014,10014,10027,10027,10029,10030,10030,10030,10044,10044,10054,10054,10054,10054,10070,10070,10070,10070,10070,10078,10078,10078,10079,10086,10086,10094,10191,10191,10191,10213,10277,10286,10286,10294,10295,10301,10302,10302,10312,10312,10312,10317,10318,10329,10329,10329,10329,10334,10347,10347,10350,10350,10365,10380,10381,10382,10406,10407,10430,10430,10438,10438,10438,10447,10447,10454,10454,10463,10463,10481,10481,10481,10486,10486,10496,10496,10501,10502,10502,10515,10516,10516,10518,10518,10518,10530,10530,10531,10531,10533,10548,10548,10550,10550,10550,10564,10564,10566,10566,10575,10575,10575,10584,10584,10585,10585,10599,10599,10600,10600,10608,10609,10609,10619,10619,10645,10645,10645,10645,10647,10647,10647,10647,10647,10647,10664,10664,10664,10664,10666,10666,10676,10676,10676,10679,10679,10679,10692,10692,10692,10695,10695,10695,10710,10710,10712,10727,10727,10740,10741,10766,10766,10775,10798" d="m322,246c1.48401,-5.14667 1.84796,-5.69881 2.34732,-6.50084c0.50949,-0.81833 0.77426,-1.46822 1.03802,-2.17116c0.28055,-0.74767 0.53192,-1.55704 1.15765,-2.72783c0.43591,-0.81561 0.7128,-1.20126 1.27832,-1.96417c0.5654,-0.76276 1.47754,-1.81583 1.77869,-2.15334c0.59778,-0.66998 1.21329,-1.33293 1.79999,-2.052c0.61414,-0.75269 1.2023,-1.59709 1.5,-2.036c0.60468,-0.89151 0.88846,-1.35196 1.5,-2.22667c0.58899,-0.84247 1.18973,-1.59999 1.76801,-2.27467c0.5184,-0.60483 1.09647,-1.0461 1.73468,-2.22133c0.3989,-0.7345 0.78885,-1.37282 1.43066,-2.172c0.43942,-0.54715 0.91443,-1.17038 1.38,-1.82401c0.44073,-0.61877 1.2005,-1.79196 1.28665,-2.67599c0.07761,-0.79623 -0.20813,-1.74001 0.07199,-2.636c0.29315,-0.93764 1.04199,-1.28441 1.59467,-2.19733c0.44803,-0.74005 0.59628,-1.66982 0.91669,-2.25c0.43875,-0.79451 1.17871,-1.78241 1.47,-2.17c0.62881,-0.83675 0.9682,-1.26695 1.64581,-2.14584c0.3345,-0.43388 1.26141,-1.65552 1.79102,-2.39099c0.25012,-0.34735 0.72211,-1.02617 1.1925,-1.6925c0.73495,-1.04111 1.26645,-1.76817 1.81732,-2.49651c0.27292,-0.36082 0.79849,-1.06619 1.57849,-1.97783c0.67072,-0.78392 1.10968,-1.22279 1.92151,-2.043c0.59915,-0.60535 1.21161,-1.22594 1.60001,-1.68533c0.82791,-0.97922 1.21103,-1.55888 1.672,-2.12534c0.48792,-0.59956 1.36252,-1.49776 2.02432,-2.08034c0.65442,-0.57608 1.34186,-1.03571 2.03702,-1.77567c0.59766,-0.63618 0.98691,-1.6741 1.3765,-2.34315c0.30103,-0.51695 0.8158,-1.30257 1.40616,-2.30484c0.38953,-0.66129 0.73453,-1.31024 1.36932,-2.08533c0.50958,-0.62219 1.12198,-1.19409 1.91336,-2c0.58493,-0.59566 1.16003,-1.16879 1.71597,-2c0.51715,-0.77322 0.88535,-1.60002 1.28534,-2.40001c0.30002,-0.59999 0.7764,-1.61395 1.12085,-2.2c0.60321,-1.02626 1.14001,-1.59297 1.65381,-2.2c0.66949,-0.79099 1.05099,-1.41412 1.578,-2.2c0.54657,-0.81508 1.06543,-1.39627 1.59467,-1.94284c0.75708,-0.78189 1.38745,-1.31599 2.05267,-2.06783c0.63959,-0.72284 0.99112,-1.43773 1.35718,-1.99384c0.53613,-0.81447 1.23813,-1.57925 1.75882,-2.11017c0.72931,-0.74364 1.29385,-1.29517 2.02686,-2.02817c0.46698,-0.467 0.978,-0.97801 1.50897,-1.509c1.02649,-1.02652 1.48651,-1.4865 2.1015,-2.1015c0.82535,-0.82535 1.34976,-1.3436 2.01334,-2.01334c0.48376,-0.48827 1.21078,-1.19263 1.59085,-2.03333c0.34695,-0.76746 0.71259,-1.82951 1.30051,-2.39551c0.42166,-0.40591 1.25409,-0.8 1.85532,-1.80049c0.36349,-0.60489 0.64151,-1.66821 0.98001,-2.30133c0.37958,-0.70996 0.83554,-1.45943 1.74948,-2.481c0.31192,-0.34865 1.00931,-0.98631 1.74252,-1.575c0.36203,-0.29065 1.44644,-1.0822 2.12665,-1.56001c0.62924,-0.44203 1.49557,-0.99036 2.34485,-1.66516c0.60028,-0.47696 0.9917,-1.37958 1.4765,-2.18817c0.3143,-0.52422 0.90683,-1.34058 1.90948,-1.71899c0.80905,-0.30535 1.79642,-0.26635 2.51434,0c0.80463,0.29851 1.45853,1.07404 2.07617,1.88567c0.43991,0.57808 0.86395,1.39908 1.26666,2.2c0.40179,0.7991 0.69098,1.40457 1.2045,2.40451c0.32581,0.63443 0.86011,1.56342 1.34366,2.34366c0.32962,0.53186 0.94437,1.22134 1.23752,2.242c0.27139,0.94496 -0.01926,1.85468 0.33566,2.78833c0.25073,0.65962 0.76822,1.52132 0.77866,2.43216c0.01041,0.91061 0,1.58934 0,2.70534c0,0.76801 0,1.73067 0,2.34567c0,1.22234 0,2.03833 0,2.58566c0,1.26601 0,2.106 0,3.06866c0,0.76801 0,1.73067 0,2.34567c0,1.22234 0,2.03833 0,2.58566c0,1.26601 0,2.106 0,3.07001c0,0.69249 0,1.65332 0,2.42433c0,0.86099 0,2.05833 0,2.65833c0,0.90001 0,2.10001 0,2.7c0,0.90001 0,2.10001 0,2.69734c0,0.86099 0.0025,1.632 0,2.73067c-0.00226,0.98552 -0.07248,1.73065 -0.284,2.724c-0.13324,0.62576 -0.4017,1.58258 -0.59451,2.68367c-0.12585,0.7187 -0.12128,1.58583 -0.12149,2.47499c-0.00024,0.9895 0.02026,1.84009 -0.25601,2.47467c-0.46542,1.06903 -1.04004,1.55403 -1.504,2.16133c-0.48325,0.63255 -1.12173,1.66382 -1.42566,2.4015c-0.29721,0.72137 -0.47565,1.45197 -0.91415,2.70883c-0.2713,0.77759 -0.61115,1.418 -0.81616,2.44434c-0.16489,0.82549 -0.22144,1.77321 -0.4502,2.56483c-0.17429,0.60313 -0.5918,1.61264 -0.96716,2.36716c-0.41916,0.84256 -0.91766,1.71715 -1.16666,2.16667c-0.49533,0.89429 -0.76022,1.31799 -1.35699,2.55684c-0.34518,0.71661 -0.7157,1.68816 -0.94034,2.25516c-0.48969,1.23605 -0.79623,1.88054 -1.20267,2.688c-0.4043,0.80324 -0.71692,1.43053 -1.48401,2.39999c-0.49103,0.62059 -1.05893,1.18048 -1.63333,2.00134c-0.42386,0.60574 -0.83041,1.30132 -1.42517,2.01984c-0.67365,0.81383 -1.25153,1.25473 -1.95749,2.2455c-0.44614,0.6261 -0.40421,1.53847 -0.50034,2.4335c-0.08578,0.79883 -0.69922,1.56206 -1.185,2.07449c-0.77686,0.81946 -1.36801,1.41467 -1.77866,2.22533l-0.0495,0.90001" id="svg_3" stroke-width="2" stroke="#000" fill="none"/>
  <path t="11608,11638,11638,11652,11652,11654,11654,11673,11673,11673,11685,11766,11766,11773,11783,11813,11813,11821,11821,11837,11837,11869,11869,11926,11950,11997,11997,12006,12017,12017,12017,12021,12021,12021,12022,12034,12034,12035,12037,12037,12037,12038,12046,12046,12046,12053,12053,12054,12054,12062,12062,12062,12069,12069,12069,12078,12078,12078,12086,12086,12094,12101,12109,12109,12120,12120,12126,12126,12134,12134,12152,12173,12188,12201,12202,12206,12206,12225,12253,12277,12277,12277,12287,12294,12294,12318,12326,12327,12336,12341,12341,12342,12354,12354,12358,12358,12370,12373,12374,12390,12390,12390,12405,12414,12415,12422,12440,12441,12454,12477,12477,12494,12494,12494,12494,12504,12504,12509,12509,12521,12521,12526,12537,12556,12566,12566,12566,12582,12589,12599,12599,12606,12606,12614,12614,12622,12622,12645,12646,12646,12656,12656,12671,12671,12671,12797,12798,12798" d="m473,235c-2.74399,2.68266 -2.96875,3.47794 -3,4.66667c-0.02136,0.81223 0.06418,1.65976 -0.03601,2.54399c-0.11331,1 -0.34756,1.60754 -0.76532,2.304c-0.53448,0.89111 -1.40701,1.50264 -1.84149,2.18533c-0.46594,0.73213 -0.35718,1.71066 -0.35718,2.62151c0,0.88916 0,1.87833 0,2.65767c0,0.85416 -0.04382,1.7748 0.00449,2.66899c0.04245,0.78552 0.69998,1.34734 1.6315,1.35184c0.84802,0.00409 1.71133,0 2.74936,0c0.948,0 1.629,0 2.43597,0c1.17868,0 1.77869,0 2.67868,0c0.89999,0 1.80017,0 2.71066,0c0.9465,0 1.95599,0 2.672,0c0.73199,0 1.8075,0 2.784,0c0.828,0 1.58401,0 2.66669,0c0.97198,0 1.66666,0 2.36133,0c1.26248,0 2.04401,0 2.75351,0c1.23715,0 1.78781,0 2.65631,0c1.19516,0 2.07419,0 2.88116,0c0.87134,0 1.81168,0 2.61435,0c0.92084,0 1.88531,0 2.61066,0c0.98935,0 1.78934,0 2.78934,0c0.78934,0 1.83334,0 2.6955,0c0.8045,0 1.7045,0 2.60901,0c1.01685,0 1.6955,0 2.67401,0c0.82013,0 1.7215,0.00009 2.69348,0c0.87048,-0.00009 1.84424,0.14331 2.47467,-0.08533c0.93524,-0.33919 0.96289,-1.41309 0.79614,-2.26201c-0.18201,-0.9267 -0.86865,-1.74379 -1.54279,-2.21666c-0.74396,-0.52187 -1.73962,-0.6207 -2.42084,-0.97768c-0.59814,-0.31345 -1.36469,-0.95671 -2.14319,-1.597c-0.65845,-0.54152 -1.58673,-0.82281 -2.23599,-1.29733c-0.77914,-0.56944 -1.23599,-1.20001 -1.92133,-1.88533c-0.50403,-0.50401 -1.15393,-1.23811 -1.92151,-1.91699c-0.72134,-0.63799 -1.4447,-0.83804 -2.27802,-1.26167c-0.78931,-0.40126 -1.65829,-0.40869 -2.59381,-0.50133c-0.89627,-0.08875 -1.57245,-0.64938 -2.38535,-0.832c-0.84827,-0.19057 -1.52072,-0.15503 -2.53333,-0.16534c-1.19461,-0.01216 -1.90417,-0.00133 -2.94534,-0.00133c-0.77399,0 -1.67401,0 -2.53732,0c-0.96317,0 -1.89938,0.15727 -2.78851,-0.009c-0.90543,-0.16933 -1.49484,-0.87418 -2.04282,-1.28566c-0.85797,-0.64429 -1.75269,-0.70534 -2.65268,-0.70534c-0.75717,0 -1.65717,0 -2.60132,0c-0.99869,0 -1.79892,0.02098 -2.79868,-0.00133c-0.80057,-0.01787 -1.60477,-0.15108 -2.39999,-0.42401c-0.80508,-0.27631 -1.80334,-0.54182 -2.65717,-0.57016c-0.96384,-0.03198 -1.77884,-0.0045 -2.64734,-0.0045l-0.89551,0l-0.89099,0l-0.83701,0" id="svg_4" stroke-width="2" stroke="#000" fill="none"/>
 </g>
 <g display="none">
  <title>muse_image</title>
  <image xlink:href="http://farm4.static.flickr.com/3033/2624048094_4ee7c9c656.jpg" id="muse" height="426" width="640" y="27" x="0"/>
 </g>
 <g display="none">
  <title>bbox</title>
  <rect stroke="#f00" fill="none" stroke-width="3" height="113.85586" width="509.44" y="217.61261" x="108.8" id="bbox"/>
 </g>
</svg>
