<svg width="640" height="480" xmlns="http://www.w3.org/2000/svg" xmlns:svg="http://www.w3.org/2000/svg" xmlns:xlink="http://www.w3.org/1999/xlink">
 <!-- Sketchy ANNOTATION
  ImageNet ID: n02691156_4000
  URL: http://farm1.static.flickr.com/34/73548780_045db11599.jpg
  Image Width: 500
  Image Height: 375
  BBox X: 56
  BBox Y: 39
  BBox Width: 444
  BBox Height: 264
  Exposure: 2000ms
  Synset Label: airplane
  Synset ID: n02691156
  Worker Tag: Plane
  Sanity Check: 
   Context
   Saved
   Shading
  Comment: 
   {}
  Worker ID: AIH9VLD92GHFH
  Assignment ID: 3HMVI3QICJS2G5BRWNI8VVPGK301YH
  HIT ID: 38B7Q9C28G5GZ66M4FX72QSLJHN691
  Work Time: 119s
  Worker Score: 0.8571
 END ANNOTATION -->
 <g display="inline">
  <title>Layer 1</title>
  <path t="0,159,159,161,161,174,174,191,191,213,214,214,242,242,257,257,258,274,274,290,290,291,307,307,324,324,340,340,357,361,374,374,374,390,390,407,424,424,440,457,457,474,474,490,490,507,507,524,524,524,540,540,557,557,574,574,574,590,590,591,607,607,624,640,640,640,657,657,674,674,674,690,690,690,707,707,726,726,726,742,742,742,757,757,757,774,774,791,791,791,806,807,807,824,824,840,840,856,857,874,874,902,902,902,908,908,909,924,924,940,940,957,957,957,974,974,990,990,1007,1007,1024,1024,1040,1040,1040,1056,1074,1074,1090,1090,1090,1091,1107,1124,1124,1140,1140,1174,1174,1190,1224,1224,1306,1307,1307,1324,1374,1440,1456,1506,1606,1607,2106,2256,2374,2456,2457,2490,2556,2573,2640,2673,2674,2741,2774,2839,2856,2889,2906,2907,2940,2973,2974,2989,2990,3006,3023,3039,3040,3056,3057,3073,3089,3090,3091,3106,3107,3123,3124,3139,3140,3156,3157,3173,3189,3240,3240,3256,3257,3289,3323,3356,3357,3406" d="m327,204c7.47083,-7.47067 7.88065,-7.89146 8.57333,-8.56267c0.52219,-0.506 1.4939,-1.05185 2.22534,-1.60533c0.73682,-0.55753 1.12994,-1.36208 1.96933,-1.664c0.7067,-0.2542 1.55502,-0.1992 2.42667,-0.87784c0.69913,-0.54431 1.33325,-1.29707 2.056,-1.65416c0.73022,-0.36078 1.56619,-0.81322 2.39999,-1.2c0.85809,-0.39806 1.63522,-0.28636 2.58133,-0.60533c0.84531,-0.28497 1.26959,-1.07245 1.86816,-1.80901c0.58734,-0.72272 1.5647,-0.90744 2.24716,-1.07434c0.92847,-0.22707 1.61066,-0.8495 2.42068,-1.42999c0.47617,-0.34125 1.16449,-0.94893 2.26132,-1.34666c0.73907,-0.26801 1.74078,-0.19116 2.62335,-0.52333c0.70621,-0.26579 1.58887,-0.61874 2.54865,-0.64734c0.68372,-0.02037 1.64337,0.05188 2.39999,-0.08533c1.01724,-0.18448 1.77975,-0.64694 2.79868,-0.82935c0.79092,-0.14159 1.80017,-0.08533 2.62085,-0.08533c0.66449,0 1.66183,0 2.45831,0c1.1875,0 2,0 2.84268,0c0.74066,0 1.45016,0 2.64484,0c0.67334,0 1.67084,0 2.76883,0c0.83249,0 1.68582,0 2.59784,0c0.91733,0 1.66132,0 2.69867,0c0.77332,0 1.73865,0 2.50964,0c0.86102,0 1.75845,-0.01987 2.63702,0.01067c0.80783,0.02808 1.85245,0.27634 2.62665,0.69383c0.73666,0.39726 1.47226,0.6712 2.24649,1.05267c1.05084,0.51775 1.70557,1.07626 2.34369,1.59016c0.79639,0.64137 1.39777,1.02927 2.2045,1.45132c0.79358,0.41518 1.62613,0.79991 2.39999,1.36801c0.62244,0.45692 1.16904,1.04752 2,1.66666c0.7627,0.56828 1.38998,0.79739 2.24734,1.47118c0.67758,0.53252 1.19217,1.2327 1.96332,1.83417c0.74881,0.58405 1.74503,0.53853 2.45599,1.19466c0.55478,0.51198 0.9938,1.43591 1.62,1.62668c0.70859,0.21587 1.77084,0.87607 2.1925,1.56082c0.28775,0.46729 0.95834,1.57385 1.52084,1.91667c0.91666,0.55867 1.76239,0.68491 2.20132,1.41583c0.38098,0.63443 0.58707,1.4666 1.45135,2.33684c0.47412,0.47737 1.39926,1.08467 1.80566,1.80983c0.52069,0.92914 0.66638,1.75839 1.39365,2.20134c0.61703,0.37582 1.74939,0.91321 2.05069,1.62399c0.27841,0.65683 0.60748,1.66397 1.19766,2.27499c0.56165,0.5815 1.23752,1.22855 1.90048,1.90501c0.48163,0.49144 1.21255,1.1806 1.74451,2.02266c0.48541,0.7684 1.17639,1.09477 1.90735,1.68184c0.55051,0.44214 1.41693,1.19411 1.90067,1.8795c0.53226,0.75417 0.60123,1.7679 0.98831,2.41066c0.53738,0.89235 1.25336,1.41873 1.97433,1.71333c0.9118,0.37257 1.12958,0.88304 1.50485,1.76584c0.31436,0.73947 0.69635,1.54926 1.3125,2.1875c0.51138,0.52971 1.42795,0.71721 1.668,1.532c0.23486,0.79718 0.68692,1.44713 1.08267,2.23334c0.37537,0.74571 1.08582,1.28259 1.91599,1.56799c0.82983,0.28528 0.86935,1.18065 1.02084,1.97917c0.18069,0.95256 0.97672,1.42412 1.55383,2.04616c0.55807,0.60153 1.28983,0.88817 2.25867,0.97467c0.80984,0.07231 0.78967,1.03302 1.38834,1.75717c0.47174,0.57063 1.58606,0.71422 2.29431,0.95883c0.94376,0.32594 1.91476,0.22154 2.80533,0.50533c0.69904,0.22275 1.65063,0.71646 2.47736,0.77734c0.87097,0.06413 1.74399,0.00133 2.70132,0.00133c0.73199,0 1.69467,0 2.46799,0c1.03735,0 1.78134,0 2.88919,0c0.75748,0 1.7955,0 2.49014,0c1.01669,0 1.95718,0 2.81934,0c0.83334,0 1.81183,0 2.63202,0c0.90134,0 1.72217,0 2.68533,0l0.86331,0l0.89551,0" id="svg_1" stroke-width="2" stroke="#000" fill="none"/>
  <path t="5292,5505,5506,5523,5523,5541,5541,5556,5573,5589,5589,5623,5623,5639,5656,5656,5673,5689,5689,5706,5706,5723,5723,5739,5739,5756,5756,5774,5775,5775,5790,5790,5807,5807,5823,5823,5823,5839,5839,5855,5856,5873,5873,5873,5889,5889,5907,5907,5923,5923,5939,5940,5940,5955,5956,5956,5973,5973,5973,5989,5989,5989,5990,5990,6005,6006,6006,6006,6023,6023,6023,6023,6023,6039,6039,6039,6039,6040,6040,6055,6056,6056,6056,6056,6057,6073,6073,6073,6073,6073,6073,6089,6089,6089,6090,6090,6090,6105,6106,6106,6106,6106,6106,6123,6123,6123,6123,6123,6124,6124,6139,6139,6139,6140,6140,6140,6140,6140,6155,6156,6156,6156,6156,6157,6157,6173,6173,6173,6173,6174,6174,6189,6189,6190,6190,6190,6190,6205,6206,6206,6206,6207,6207,6223,6223,6223,6224,6224,6224,6239,6239,6240,6240,6240,6255,6256,6256,6256,6257,6257,6273,6273,6273,6273,6289,6289,6289,6290,6290,6306,6306,6307,6322,6323,6323,6323,6339,6339,6339,6355,6356,6356,6357,6373,6373,6373,6374,6389,6389,6390,6390,6405,6406,6406,6407,6423,6423,6423,6424,6439,6439,6439,6455,6456,6472,6473,6489,6489,6489,6505,6506,6522,6523,6523,6539,6540,6555,6556,6572,6573,6589,6589,6605,6606,6622,6623,6623,6655,6656,6665,6676,6676,6676,6689,6705,6706,6723,6723,6723,6739,6739,6756,6756,6773,6773,6773,6790,6807,6807,6822,6823,6839,6839,6856,6856,6872,6873,6873,6889,6905,6906,6922,6923,6939,6955,6956,6972,6973,6989,7005,7006,7022,7023,7039,7055,7089,7089,7090,7105,7106,7122,7123,7123,7139,7155,7173,7205,7206,7222,7223,7255,7256,7289,7289,7290,7305,7338,7339,7355,7356,7372,7389,7407,7407,7422,7423,7439,7454,7455,7472,7489,7504,7505,7522,7523,7539,7555,7556,7556,7572,7588,7589,7590,7605,7622,7623,7624,7639,7640,7640,7656,7657,7672,7672,7672,7689,7689,7690,7705,7706,7707,7723,7724,7739,7739,7756,7757,7757,7774,7775,7775,7775,7791,7791,7791,7806,7807,7807,7822,7823,7824,7824,7839,7839,7840,7855,7856,7857,7872,7873,7874,7874,7889,7890,7890,7905,7906,7907,7907,7922,7923,7924,7924,7938,7939,7940,7940,7941,7955,7956,7957,7957,7972,7973,7974,7974,7988,7989,7990,7991,8005,8006,8007,8007,8007,8022,8023,8024,8024,8038,8039,8040,8041,8055,8056,8057,8057,8057,8073,8074,8074,8075,8108,8109,8109,8109,8109,8112,8113,8113,8114,8114,8126,8127,8127,8127,8140,8141,8141,8141,8142,8156,8156,8157,8157,8158,8172,8173,8174,8174,8174,8189,8189,8190,8190,8191,8191,8206,8206,8206,8207,8207,8207,8222,8223,8224,8224,8238,8239,8240,8240,8240,8241,8255,8256,8257,8257,8257,8258,8272,8273,8274,8274,8275,8275,8288,8288,8289,8289,8289,8290,8304,8305,8305,8305,8306,8322,8323,8324,8324,8325,8338,8338,8338,8339,8339,8339,8355,8356,8357,8357,8372,8373,8374,8374,8375,8387,8388,8388,8389,8389,8405,8406,8407,8422,8423,8424,8424,8438,8440,8440,8440,8455,8456,8472,8473,8474,8488,8489,8504,8505,8505,8522,8524,8539,8540,8541,8555,8557,8572,8573,8574,8589,8590,8590,8604,8622,8623,8624,8639,8640,8641,8654,8655,8672,8673,8674,8689,8690,8705,8706,8722,8723,8724,8725,8738,8740,8755,8756,8756,8771,8772,8789,8790,8790,8807,8808,8822,8823,8838,8840,8855,8856,8891,8892,8904,8904,8916,8917,8927,8940,8940,8955,8972,8973,8991,9005,9006,9022,9038,9039,9055,9056,9072,9073,9074,9088,9090,9105,9107,9122,9123,9138,9138,9139,9155,9156,9157,9172,9173,9188,9189,9205,9206,9222,9222,9239,9239,9240,9254,9272,9273,9274,9289,9289,9307,9308,9324,9324,9325,9325,9342,9342,9343,9357,9358,9374,9375,9375,9389,9390,9390,9406,9406,9407,9422,9423,9424,9424,9437,9438,9438,9439,9455,9456,9456,9457,9472,9472,9473,9490,9490,9491,9509,9509,9510,9527,9527,9541,9542,9542,9543,9556,9557,9557,9572,9574,9574,9588,9589,9605,9606,9607,9622,9623,9624,9625,9638,9639,9639,9655,9656,9657,9672,9673,9674,9711,9712,9713,9716,9716,9717,9717,9731,9732,9732,9746,9747,9747,9748,9763,9764,9764,9765,9783,9783,9784,9784,9798,9799,9799,9800,9819,9820,9821,9821,9837,9838,9838,9853,9854,9854,9869,9870,9870,9871,9885,9886,9901,9901,9902,9917,9918,9933,9933,9933,9947,9947,9948,9961,9962,9962,9976,9977,9977,9991,9991,9992,10005,10005,10006,10006,10022,10023,10024,10038,10039,10039,10040,10054,10055,10055,10056,10071,10072,10072,10073,10073,10089,10090,10091,10105,10106,10122,10123,10123,10124,10139,10140,10155,10157,10157,10172,10172,10173,10173,10189,10190,10191,10206,10207,10207,10223,10224,10224,10225,10241,10242,10242,10243,10258,10259,10260,10275,10276,10276,10277,10291,10292,10293,10307,10307,10322,10323,10323,10338,10355,10356,10372,10411,10412,10429,10505,10506,10738,10739,10788,10805,10806" d="m322,221c-1.836,0 -2.60132,0 -3.60001,0c-0.79999,0 -1.79868,0 -2.74283,0c-0.89999,0 -1.85849,0 -2.82382,0c-0.65869,0 -1.66669,0 -2.52884,0c-0.82535,0 -1.78851,0 -2.65182,0c-0.89551,0 -1.85535,0 -2.62335,0c-1.03467,0 -1.77866,0 -2.69598,0c-0.948,0 -1.81866,0 -2.54401,0c-0.9895,0 -1.81018,0 -2.95599,0c-0.78152,0 -1.57202,0 -2.5,0c-0.948,0 -1.82275,0.04839 -2.54401,-0.036c-0.99988,-0.11697 -1.79861,-0.50345 -2.47467,-0.68001c-0.98395,-0.25697 -1.7937,-0.27357 -2.98132,-0.284c-0.83331,-0.00731 -1.66669,0 -2.58401,0c-0.74399,0 -1.78134,0 -2.55466,0c-0.96268,0 -1.69467,0 -2.86133,0c-0.83334,0 -1.66669,0 -2.59467,0c-0.7905,0 -1.82028,0.04573 -2.51334,-0.02133c-0.91724,-0.08876 -1.91122,-0.54822 -2.47202,-0.82933c-0.59918,-0.30035 -1.914,-0.84486 -2.63733,-0.98001c-0.73642,-0.13759 -1.49265,-0.16504 -2.23199,-0.252c-1.40604,-0.16539 -2.06784,-0.34955 -2.74533,-0.49199c-0.70654,-0.14854 -1.88071,-0.31889 -2.75299,-0.36818c-0.92657,-0.05235 -1.40698,-0.05072 -2.38834,-0.05583c-1.49747,-0.00778 -1.99867,-0.00133 -3.00801,-0.00133c-0.51016,0 -1.54649,0 -2.07466,0c-1.636,0 -2.19867,0 -3.34001,0c-0.57466,0 -1.14932,0 -2.29066,0c-1.11732,0 -2.19867,0 -2.72684,0c-1.03633,0 -1.54649,0.00006 -2.55583,0c-1.5015,-0.00009 -2.00272,0.00406 -3.01199,-0.01067c-0.51021,-0.00745 -1.54697,-0.03867 -2.07466,-0.07466c-1.638,-0.11172 -2.20035,-0.19594 -3.35068,-0.34001c-0.58501,-0.07327 -1.17328,-0.16159 -2.36533,-0.29066c-1.1974,-0.12965 -1.79866,-0.16603 -3.00317,-0.23582c-0.60606,-0.03513 -1.21741,-0.05505 -2.45267,-0.158c-0.62878,-0.0524 -1.91069,-0.21658 -2.56433,-0.33284c-0.66512,-0.1183 -2.01439,-0.40851 -2.69933,-0.55733c-0.68973,-0.14986 -1.38179,-0.30457 -2.08051,-0.43201c-1.3952,-0.25449 -2.09651,-0.34639 -3.48967,-0.45366c-0.68694,-0.05289 -1.36722,-0.07655 -2.037,-0.093c-0.65758,-0.01614 -2.53867,-0.02133 -3.129,-0.02133c-0.57233,0 -1.67099,0 -2.20132,0c-1.03267,0 -2.54167,0 -3.04167,0c-1,0 -1.5,0 -2.5,0c-1,0 -2,0.00249 -3.00133,-0.00133c-0.50317,-0.00192 -1.51965,-0.01498 -2.03467,-0.03467c-1.04973,-0.04013 -2.13165,-0.1217 -3.24667,-0.248c-0.56602,-0.06412 -1.69644,-0.21646 -2.256,-0.29066c-0.55144,-0.07314 -2.12714,-0.26974 -3.092,-0.34001c-0.45915,-0.03345 -1.3484,-0.07118 -2.2175,-0.08083c-1.31844,-0.01463 -2.23584,-0.0045 -2.70451,-0.0045c-0.94733,0 -1.89465,0 -2.36333,0c-1.3625,0 -2.22684,0 -3.06317,0c-0.81633,0 -2.02083,0 -2.81949,0c-0.79068,0 -1.56534,0 -2.31601,0c-1.40134,0 -2.06,0 -3.03799,0c-1.01401,0 -1.73,0 -2.46201,0c-1.0755,0 -2.052,0 -2.87999,0c-0.75601,0 -1.83867,0 -2.81517,0c-0.711,0 -1.442,0 -2.5235,0c-1.01401,0 -1.66667,0 -2.31934,0c-1.36867,0 -2.10001,0 -2.84734,0c-0.74733,0 -1.83333,0 -2.84734,0c-0.65266,0 -1.63666,0 -2.67383,0c-0.72701,0 -1.45801,0 -2.50951,0c-0.9265,0 -1.9485,0 -2.65199,0c-1,0 -1.79651,0 -2.98401,0c-0.68266,0 -1.66666,0 -2.584,0c-0.74399,0 -1.78133,0 -2.55466,0c-0.964,0 -1.7155,0 -2.51201,0c-0.99733,0 -1.87199,0 -2.88249,0c-0.77934,0 -1.77901,0 -2.61,0c-0.95817,0 -1.69017,0 -2.85683,0c-0.68267,0 -1.66667,0 -2.584,0c-0.744,0 -1.77883,-0.01579 -2.54667,0c-0.87522,0.01801 -1.74584,0.21957 -2.70267,0.5c-0.7324,0.21466 -1.68892,0.47141 -2.66666,0.5c-0.66905,0.01956 -1.8363,-0.05077 -2.63334,0.02133c-0.60469,0.0547 -1.60366,0.54002 -2.17916,0.97867c-0.86176,0.65683 -1.68208,0.98288 -2.5635,1.00017c-0.70794,0.01389 -1.73203,-0.03618 -2.64301,0.35249c-0.86976,0.37108 -1.57217,0.61569 -2.4715,0.65184c-0.74859,0.03009 -1.73539,0.30087 -2.54283,0.57016c-0.9914,0.33064 -1.86603,0.27029 -2.63334,0.75867c-0.63152,0.40195 -0.82087,1.31204 -1.57733,2.02c-0.65383,0.61191 -1.59102,0.58574 -2.56783,0.64684c-0.82297,0.05147 -1.50998,0.56825 -2.34283,1.09967c-0.65543,0.41821 -1.65303,0.80763 -2.37417,0.89566c-0.93665,0.11433 -1.78371,0.57828 -2.3045,1.0045c-0.82585,0.67592 -1.71221,0.83681 -2.38934,1.436c-0.69524,0.61522 -1.10934,1.40437 -1.89733,1.54933c-0.71136,0.13086 -1.76237,0.56647 -2.1925,1.03549c-0.71937,0.78442 -1.31584,1.3979 -2.03683,1.6925c-0.9118,0.37256 -1.53403,0.93806 -2.24567,1.3965c-0.7197,0.46362 -1.2435,0.90573 -2.07167,1.7235c-0.53401,0.5273 -1.26687,1.26682 -1.80267,1.80267c-0.68521,0.68529 -1.24643,1.1344 -1.79466,1.88c-0.58559,0.7964 -0.88038,1.66667 -1.37067,2.36932c-0.52228,0.74849 -0.97758,1.42867 -1.16267,2.47867c-0.14549,0.82539 -0.036,1.80267 -0.036,2.636c0,0.83333 0,1.6955 0,2.636c0,0.84799 0,1.71133 0,2.728c0,0.83734 0,1.80267 0,2.636c0,0.83333 0,1.6955 0,2.54167c0,1.00099 -0.0023,1.709 0,2.69032c0.00225,0.95816 0.13459,1.9487 0.436,2.59335c0.33092,0.70776 0.93486,1.58923 1.73067,2.17465c0.62984,0.46332 1.42429,0.91956 1.94801,1.76801c0.42952,0.69583 0.59217,1.51752 1.088,2.26266c0.5223,0.78494 1.33808,1.29337 2.048,1.79468c0.49734,0.3512 1.45422,0.96451 2.08801,1.56c0.58165,0.54651 1.146,1.38217 1.66133,2.11465c0.34779,0.49435 1.09612,1.5459 1.58933,2.07867c0.69437,0.75006 1.21006,1.19833 1.95367,1.74265c0.71516,0.5235 1.25591,0.89517 2.457,1.51202c0.5884,0.30219 1.48087,0.64139 2.31467,0.96533c0.76559,0.29742 1.69357,0.70712 2.36933,1.08667c0.74697,0.41956 1.54507,0.95166 2.12667,1.28931c1.17579,0.68256 1.78333,0.95148 2.6685,1.3045c0.56081,0.22366 1.6143,0.5899 2.28484,0.93152c0.85555,0.43588 1.62264,1.09384 2.27766,1.58932c0.7123,0.53882 1.5944,0.9957 2.26367,1.24283c0.68833,0.25418 1.73404,0.53406 2.652,0.85718c0.79887,0.28119 1.54004,0.62338 2.68549,1.00015c0.66267,0.21796 1.38405,0.40277 2.109,0.65701c1.09126,0.38272 1.76625,0.72284 2.42284,1.06818c0.98115,0.51602 1.98529,1.02576 2.70934,1.28931c0.73497,0.26755 1.49079,0.47421 2.23199,0.68402c1.06285,0.30084 1.73731,0.48871 2.70934,0.83731c0.66295,0.23776 1.69849,0.67957 2.42284,1.01669c0.73373,0.34149 1.44035,0.69797 2.4185,1.18066c0.8356,0.41235 1.64901,0.77783 2.272,0.96533c1.13533,0.34171 2.07249,0.5036 2.56267,0.612c0.99834,0.22076 1.51345,0.27072 2.83199,0.75598c0.7448,0.27411 1.60492,0.85016 2.16301,1.1235c1.11191,0.54462 1.81667,0.61166 2.54533,0.689c0.76613,0.0813 1.96078,0.17197 2.75833,0.30618c0.80278,0.1351 1.60094,0.32138 2.39999,0.51599c1.20145,0.2926 1.99786,0.50372 2.8,0.67783c0.79799,0.17319 1.99921,0.36212 2.8,0.43817c0.79929,0.07593 1.60564,0.10825 2.39999,0.25201c1.21104,0.21921 2.00064,0.53424 2.8,0.83066c0.40031,0.14844 1.18526,0.49231 2.39999,0.75717c0.79237,0.17276 1.60045,0.21704 2.40001,0.29099c1.20071,0.11105 2.00323,0.22729 2.81067,0.38785c0.82741,0.16452 1.67329,0.37155 3.01067,0.66382c0.46219,0.10101 1.40257,0.29745 2.35333,0.46417c0.47198,0.08276 1.85799,0.27667 2.74266,0.35333c0.8674,0.07516 1.7453,0.13324 2.1925,0.1925c1.42845,0.18927 1.93622,0.31985 2.9955,0.60001c0.54716,0.14471 1.64407,0.47525 2.18933,0.642c1.57222,0.4808 2.05902,0.63861 2.991,0.88651c0.86972,0.23135 1.2888,0.33823 2.11166,0.47501c1.19768,0.1991 2.00679,0.23965 2.8235,0.26581c0.83606,0.02676 2.14584,0.01846 3.0645,0.02219c0.47183,0.00192 1.43591,0.0098 2.41917,0.05582c0.49709,0.02325 1.99664,0.15744 2.49683,0.22949c1.01151,0.14572 2.03555,0.35605 2.55583,0.47501c0.5291,0.12097 2.16446,0.5585 2.72684,0.72101c1.14194,0.32996 1.71442,0.50232 2.29066,0.65601c1.13832,0.30356 2.25697,0.53885 2.80367,0.6185c1.05716,0.15405 2.07999,0.22223 2.57501,0.25751c0.95996,0.06845 2.326,0.20212 2.76266,0.26932c0.86008,0.13239 1.70654,0.30878 2.56799,0.43201c1.33379,0.1908 1.80106,0.20459 2.752,0.25867c0.97441,0.05539 1.47115,0.04745 2.964,0.19199c1.00087,0.09689 1.4958,0.18396 2.47917,0.33334c0.48499,0.07367 1.43289,0.23959 2.79933,0.37885c0.86295,0.08792 1.70457,0.11151 2.517,0.23099c1.21202,0.17825 1.6093,0.3186 2.4045,0.59549c0.80513,0.28036 1.58298,0.64957 2.8,0.96133c0.78957,0.20227 1.58847,0.27701 2.364,0.31201c0.75014,0.03384 2.15201,0.02133 2.81067,0.02133c0.65067,0 1.992,0 2.70934,0c0.74133,0 1.49066,0 2.94933,0c0.68001,0 1.32001,-0.00006 2.205,0c1.04018,0.00009 1.957,-0.06573 2.96167,0.16666c0.81915,0.18948 1.58711,0.61151 2.40134,0.74802c0.82645,0.13855 2.01984,0.08533 2.81332,0.08533c0.77551,0 1.81734,-0.00055 2.59067,0c0.96268,0.00067 1.70529,-0.05463 2.42667,0.08533c1.14655,0.22244 1.72151,0.71289 2.78233,0.85751c0.80093,0.10919 1.38835,0.05649 2.58299,0.05716c0.86102,0.00049 1.63202,0 2.75201,0c0.98401,0 1.66876,-0.07901 2.39999,0.07199c1.14423,0.2363 1.68524,1.01202 2.21866,1.36002c0.95169,0.62091 1.8172,0.55731 2.86536,0.56799c0.70947,0.00723 1.56216,0 2.56665,0c0.80002,0 1.80017,0 2.62085,0c1.14581,0 1.93182,0 2.47916,0c0.81601,0 2.04733,-0.00003 2.72534,0c1.19583,0.00009 1.99521,-0.04904 2.76483,0.05716c1.05624,0.14575 1.63217,0.6189 2.55249,0.82135c0.94012,0.20679 1.68933,0.12082 2.65201,0.12149c0.77332,0.00055 1.81067,0 2.55466,0c1.10785,0 1.86533,0 2.90784,0c0.74734,0 1.74283,0 2.54285,0c0.99982,0 1.77914,0 2.77847,0c0.82019,0 1.65829,-0.03622 2.67419,0.00449c0.69608,0.02789 1.63599,0.57611 2.44748,0.87402c0.74567,0.27374 1.72519,0.12149 2.73318,0.12149c0.75598,0 1.6875,0 2.65067,0c0.69064,0 1.66327,-0.10922 2.48532,0.17065c0.84445,0.28751 1.51218,0.86234 2.26266,1.26135c0.94135,0.50052 1.74023,0.63455 2.53601,0.85199c0.73621,0.20117 1.89014,0.61145 2.73199,0.69516c0.8295,0.08249 1.76132,0.02084 2.55182,0.02084c1.02667,0 1.71219,-0.00186 2.54684,0c1.00134,0.00226 1.8175,-0.00507 2.80133,0.284c0.81668,0.23996 1.79556,0.63657 2.57916,0.69516c0.9971,0.07455 1.68219,0.02084 2.78885,0.02084c0.73199,0 1.46399,0 2.58133,0c0.98401,0 1.66879,-0.07904 2.39999,0.07199c1.14389,0.23627 1.53671,1.11749 2.35117,1.685c0.53058,0.36972 1.66385,0.24301 2.26651,0.24301c1.02899,0 1.75165,0 2.81116,0c0.96451,0 1.80371,-0.03717 2.85385,0.00134c0.77481,0.02841 1.73572,0.28833 2.48883,0.49866c0.79483,0.22198 1.79474,0.43768 2.5,0.47916c0.74747,0.04395 1.94864,0.01477 2.6405,0.03152c0.72424,0.01755 2.17471,0.14108 2.85333,0.27332c0.65225,0.12708 1.57391,0.40073 2.48532,0.54935c0.89923,0.14664 1.83594,0.16013 2.48532,0.16531c1.03583,0.0083 1.76645,-0.03534 2.85333,0.07333c0.69556,0.06955 1.89944,0.48303 2.40002,0.77869c0.72067,0.42563 1.67319,0.96146 2.49731,1.07733c0.8623,0.12125 1.76401,0.07199 2.655,0.07199c0.83701,0 1.96652,0 2.79568,0c0.81332,0 1.68033,0 2.35498,0c1.077,0 2.13669,0 2.79669,0c0.91498,0 1.995,0 2.7045,0c0.85266,0 1.85715,0 2.65717,0c1.00034,0 1.84164,0 2.57065,0c1.19867,0 1.89069,0 2.61469,0c0.73199,0 2.12933,0 2.77866,0c0.93149,0 1.83618,-0.01401 2.73151,0.00449c0.8689,0.01794 1.94373,0.1409 2.65182,0.34818c0.91376,0.26746 1.87195,0.55054 2.68866,0.61133c0.57364,0.04269 1.76401,0.03601 2.664,0.03601c0.60001,0 1.50003,-0.00867 2.70001,0.00134c0.60007,0.005 1.50732,0.00916 2.70016,0.22c0.60901,0.10767 1.53195,0.37247 2.18515,0.49466c1.03098,0.19287 2.15045,0.25607 2.92535,0.27332c0.7905,0.01758 1.98917,0.01068 2.78482,0.01068c0.78366,0 1.54733,0 2.63785,0c0.68265,0 1.66666,-0.00009 2.31934,0c1.3685,0.00018 2.09671,-0.0119 2.82648,0.04166c0.7128,0.05231 1.99063,0.37677 2.51102,0.66367c0.74414,0.41025 1.66138,1.02591 2.46698,1.18036c0.8432,0.16165 2.04285,0.11432 2.64151,0.11432c0.88049,0 1.716,0 2.71735,0c0.90933,0 1.85065,0 2.63217,0c0.7905,0 1.90915,0 2.70248,0c0.89233,0 1.62134,0 2.45834,0c1.19083,0 2.08032,0 2.655,0c1.31467,0 2.01065,0 2.91998,0c1.00134,0 1.83685,0 2.4205,0c1.19568,0 2.10617,0 2.73151,0c1.33066,0 2.04666,0 2.77866,0c0.724,0 2.052,0 2.61734,0c1.01868,0 2.10141,0.00726 2.73734,-0.00266c0.6922,-0.01077 1.79919,-0.0412 2.86401,-0.33069c0.69656,-0.18936 1.33234,-0.53769 1.992,-0.81598c1.32458,-0.55878 2.05649,-0.69751 2.79999,-0.78934c0.7475,-0.09232 1.49948,-0.09027 2.88666,-0.34534c0.63565,-0.11688 1.4588,-0.40784 2.52133,-0.63199c0.64816,-0.13675 1.73123,-0.30289 2.32468,-0.43668c0.96692,-0.21799 1.57803,-0.43927 2.784,-0.59018c0.90466,-0.11322 1.91266,-0.05716 2.55533,-0.05716c0.69867,0 2.1362,0.0127 2.81601,-0.00266c0.94556,-0.02136 1.56833,0.00281 2.56534,-0.44c0.7373,-0.32748 1.3255,-0.97174 2.34299,-1.31433c0.79849,-0.26886 1.73996,-0.23758 2.745,-0.24301c0.71735,-0.00388 1.45969,0.0101 2.20801,-0.03601c1.46173,-0.09009 2.14075,-0.23889 2.77866,-0.38931c0.88809,-0.20941 1.92221,-0.49112 2.86752,-0.55383c0.74713,-0.04956 1.62198,-0.02084 2.6405,-0.02084c0.724,0 1.45602,0.00571 2.51682,-0.00015c0.96454,-0.00534 1.83539,0.06036 2.85385,-0.28384c0.64755,-0.21887 1.50745,-0.63196 2.46799,-0.69516c0.73065,-0.04807 1.83868,-0.02084 2.66669,-0.02084c0.83331,0 2.06012,0.35513 2.66663,-0.33334c0.45422,-0.51563 0.52332,-1.60941 1.48804,-1.66666c0.67743,-0.04022 1.65717,0 2.47729,0l0.9585,0l0.89105,0.009l0.78247,0.16165" id="svg_2" stroke-width="2" stroke="#000" fill="none"/>
  <path t="12546,12704,12739,12739,12756,12756,12774,12804,12839,12839,12839,12854,12855,12888,12888,12904,12921,12971,12971,12988,13037,13038" d="m488,233c4.12851,3.77133 5,4 5.75717,4c0.89551,0 1.75882,0 2.72198,0c0.82983,0 1.85419,0 2.52618,0c0.98932,0 1.85184,0 2.74283,0c0.90451,0 1.76782,0 2.73099,0c0.93152,0 1.84216,0 2.52084,0l1.11465,0l0.88535,0l0.75717,0" id="svg_3" stroke-width="2" stroke="#000" fill="none"/>
  <path t="13512,13871,13887,13888,13905,13906,13922,13922,13937,13938,13954,13954,13971,13971,13972,13987,13988,13988,14004,14004,14021,14021,14021,14037,14038,14038,14054,14054,14054,14071,14072,14072,14087,14088,14088,14088,14104,14104,14104,14121,14121,14122,14137,14138,14138,14174,14174,14174,14174,14176,14176,14176,14176,14189,14189,14189,14189,14203,14203,14203,14204,14226,14226,14227,14242,14242,14242,14242,14257,14258,14258,14272,14272,14272,14288,14288,14288,14288,14304,14304,14305,14305,14321,14322,14322,14322,14338,14338,14354,14354,14355,14371,14372,14372,14387,14387,14387,14414,14414,14414,14441,14441,14442,14442,14442,14469,14469,14493,14493,14516,14538,14539,14561,14561,14654,14887,14922,14922,14947,14947,14973,14988,14988,15004,15021,15037,15038,15054,15054,15087,15088,15088,15114,15114,15141,15143,15143,15156,15157,15171,15187,15188,15204,15221,15237,15238,15287,15288,15321,15387,15387,15737,15762,15787,16021,16037,16064,16064,16064,16077,16078,16078,16078,16094,16094,16108,16108,16109,16122,16123,16123,16123,16137,16137,16154,16154,16154,16155,16155,16171,16171,16172,16172,16187,16188,16188,16188,16204,16204,16205,16205,16205,16221,16221,16222,16222,16237,16238,16238,16238,16254,16254,16255,16255,16255,16289,16290,16290,16290,16292,16292,16292,16306,16306,16306,16306,16321,16321,16321,16337,16338,16354,16354,16371,16371,16386,16386,16404,16404,16405,16421,16421,16437,16438,16454,16454,16471,16487,16488,16504,16504,16521,16521,16522,16537,16587,16604,16604,16654,16654" d="m488,245c1.63599,-2.01466 2.50491,-2.24425 3.17465,-2.61067c0.97394,-0.53285 1.53781,-1.13499 2.02667,-1.87332c0.45053,-0.68044 1.10123,-1.521 1.79868,-1.99518c0.81268,-0.55252 1.45026,-0.88773 2,-1.85416c0.36481,-0.64128 0.53687,-1.481 1.16666,-2.33334c0.4245,-0.57451 1.26126,-1.00589 1.948,-1.81866c0.41806,-0.4948 0.87183,-1.52171 1.18985,-2.11467c0.43445,-0.81003 1.00226,-1.61295 1.53149,-2.2c0.55344,-0.61392 1.36398,-1.40001 1.96399,-2c0.40002,-0.40001 1.20001,-1.2 1.80002,-1.8c0.60001,-0.59999 1.40494,-1.39514 2,-2.0045c0.40335,-0.41306 1.01358,-1.06995 1.60001,-1.81667c0.61441,-0.78236 0.94131,-1.37149 1.79999,-2.2455c0.55542,-0.56532 1.39893,-1.07741 1.75751,-1.87616c0.30573,-0.68103 0.27594,-1.58286 0.90698,-2.53584c0.34271,-0.51752 1.17047,-1.14296 1.7395,-1.60533c0.90045,-0.73167 1.50238,-1.25809 2.05432,-1.83682c0.54291,-0.56926 1.23126,-1.46608 1.73633,-2.37466c0.32007,-0.57574 0.53015,-1.20972 1.34802,-2.18318c0.42365,-0.50421 1.23956,-1.11438 1.68933,-1.60533c0.86469,-0.9438 1.12378,-1.54089 1.45898,-2.4205c0.33734,-0.88522 0.59058,-1.80269 0.85071,-2.37466c0.38879,-0.85492 0.97974,-1.62199 1.70898,-2.28484c0.48499,-0.44083 1.43787,-1.21747 1.94397,-1.836c0.47723,-0.58327 1.12878,-1.41116 1.81067,-2.0045c0.48773,-0.42442 1.28784,-1.03296 1.85205,-1.81699c0.55579,-0.77234 0.7652,-1.40518 1.11066,-1.97984c0.74133,-1.23322 1.27466,-1.7847 1.78131,-2.32666c0.47528,-0.50836 1.30865,-1.2793 1.86536,-1.92267c0.74463,-0.86057 1.20776,-1.60204 1.56,-2.09866c0.65332,-0.92113 1.23584,-1.56981 1.62396,-2.21867c0.46039,-0.76965 0.67834,-1.57437 1.08667,-2.34933c0.54224,-1.02913 1.13123,-1.64842 1.63068,-2.28133c0.61963,-0.78523 0.97449,-1.39552 1.48401,-2.40134c0.30225,-0.59663 0.70581,-1.38486 0.91602,-2.39867c0.15698,-0.757 0.42841,-1.6814 0.79999,-2.39999c0.41608,-0.80455 0.85779,-1.68056 1.284,-2.20134c0.6759,-0.82585 1.15448,-1.51016 1.716,-2.084c0.65869,-0.6731 1.45068,-0.916 2.10931,-0.916c1.008,0 1.87018,0 2.6955,0c0.9632,0 1.82654,0 2.72205,0c0.9585,0 1.92383,0 2.58246,0c1.008,0 1.83618,0.01884 2.71735,-0.00034c0.95801,-0.02086 1.776,-0.03047 2.48669,-0.56766c0.784,-0.59259 1.27032,-1.37476 2.29199,-1.43201c0.67761,-0.03798 1.65717,0 2.47729,0c0.9585,0 1.854,0 2.71735,0c0.9632,0 1.78851,0 2.80536,0c0.67865,0 1.65717,0 2.47729,0c0.9585,0 1.85406,0.00954 2.71735,0c0.9425,-0.01042 1.58905,-0.48132 2.20001,-1.084c0.33447,-0.32997 0.284,0.50534 0.284,1.41733c0,0.681 0,1.48801 0,2.66667c0,0.89549 0,1.47917 0,2.31467c0,1.23267 0.00476,1.91068 -0.00018,3.10683c-0.0022,0.53569 0.02069,1.39676 -0.1665,2.57851c-0.14307,0.90334 -0.35681,1.47345 -0.54932,2.31467c-0.22803,0.99667 -0.27972,1.95099 -0.45068,3.01866c-0.10236,0.63908 -0.26294,1.33293 -0.47998,2.052c-0.2226,0.73747 -0.83759,2.12988 -1.16797,2.78934c-0.32562,0.64989 -0.68201,1.29083 -0.9425,2.34683c-0.17908,0.72585 -0.24585,1.89024 -0.3255,2.67984c-0.12115,1.20058 -0.27045,1.99948 -0.35333,2.39867c-0.1665,0.80174 -0.36096,1.60109 -0.66418,2.79982c-0.20142,0.79642 -0.39819,1.58667 -0.65698,2.343c-0.37714,1.10213 -0.73669,1.76761 -1.22205,2.75717c-0.31836,0.64909 -0.71692,1.66058 -0.8515,2.38533c-0.13849,0.74565 -0.1723,1.52643 -0.25195,2.31601c-0.12109,1.20026 -0.2569,1.99362 -0.43817,2.75699c-0.2558,1.07718 -0.5498,2.01122 -0.88983,2.78033c-0.31927,0.72217 -0.91766,1.67854 -1.23755,2.21851c-0.50177,0.84692 -0.87445,1.41725 -1.1825,2.64017c-0.21344,0.84723 -0.17261,1.65779 -0.52197,2.59734c-0.29779,0.80086 -0.55322,1.57457 -0.64734,2.30533c-0.15051,1.16887 -0.57404,1.9214 -0.91736,2.70267c-0.32513,0.73999 -0.65063,1.56534 -1.08264,2.29733c-0.43201,0.73199 -0.93866,1.68886 -0.99731,2.468c-0.07788,1.03444 0.07776,1.80563 -0.16937,2.69867c-0.22913,0.82785 -0.80469,1.63641 -0.83331,2.5c-0.02759,0.83287 0.06769,1.81963 -0.05719,2.64316c-0.14758,0.97353 -0.46649,1.68359 -0.65881,2.42216c-0.28314,1.08745 -0.284,1.96935 -0.284,2.93468l0,0.65866l0,1.008l0,0.86217" id="svg_4" stroke-width="2" stroke="#000" fill="none"/>
  <path t="23494,23669,23670,23670,23670,23700,23700,23700,23700,23714,23714,23714,23714,23737,23737,23737,23738,23738,23739,23739,23739,23739,23752,23753,23753,23753,23770,23770,23770,23786,23786,23786,23786,23802,23803,23803,23819,23819,23819,23819,23837,23837,23837,23837,23852,23853,23853,23871,23871,23871,23886,23886,23902,23903,23903,23920,23920,23920,23920,23936,23936,23936,23936,23952,23953,23953,23953,23970,23970,23970,23970,23986,23986,23986,24002,24003,24003,24020,24020,24036,24036,24052,24053,24070,24086,24086,24136,24136,24769,24936,24936,24952,24953,24971,24971,24985,24986,24986,25001,25001,25001,25019,25020,25020,25020,25020,25036,25036,25036,25036,25037,25052,25053,25053,25053,25053,25053,25054,25054,25069,25070,25070,25070,25070,25071,25071,25071,25071,25085,25085,25085,25085,25085,25085,25085,25085,25086,25102,25103,25103,25103,25103,25104,25104,25104,25104,25139,25139,25139,25140,25140,25140,25140,25140,25140,25142,25143,25143,25143,25143,25143,25143,25143,25143,25158,25158,25158,25158,25159,25159,25159,25159,25159,25174,25175,25175,25175,25175,25175,25175,25175,25176,25190,25190,25191,25191,25191,25191,25191,25191,25191,25206,25207,25207,25207,25207,25207,25207,25208,25208,25223,25223,25223,25223,25223,25223,25223,25224,25224,25237,25237,25238,25238,25238,25238,25238,25238,25238,25253,25253,25254,25254,25254,25254,25254,25254,25254,25269,25270,25270,25271,25271,25271,25271,25271,25272,25288,25289,25289,25289,25289,25289,25290,25290,25290,25305,25306,25306,25306,25306,25307,25307,25307,25307,25324,25324,25324,25324,25324,25325,25325,25325,25325" d="m355,335c2.85733,-7.69232 3.17099,-8.61957 3.5,-9.375c0.28506,-0.65451 0.8028,-1.48859 1.50983,-2.17233c0.49075,-0.47458 1.08948,-0.85736 2.06885,-1.87418c0.49374,-0.51263 0.91742,-1.10239 1.37399,-1.68298c0.70798,-0.90027 1.22241,-1.50391 1.78333,-2.08484c0.56451,-0.58466 1.15097,-1.14258 2.06384,-1.88934c0.58664,-0.47992 1.48129,-1.12686 2.01483,-1.60532c0.79041,-0.7088 1.21643,-1.27841 1.91068,-2.05469c0.44836,-0.50137 1.44965,-1.31128 2.01065,-1.59998c0.85379,-0.43939 1.7709,-0.81531 2.36267,-1.14536c0.8913,-0.4971 1.43829,-0.87311 2.48001,-1.49481c0.69211,-0.41306 1.39825,-0.79999 2.34283,-1.56384c0.55035,-0.44507 1.08493,-0.97485 1.68298,-1.452c0.87518,-0.69824 1.78418,-1.20618 2.37466,-1.46368c0.82648,-0.36044 1.84946,-0.71548 2.5,-1.0625c0.63419,-0.33829 1.42084,-0.96317 2.02084,-1.47916c0.60001,-0.51599 1.57996,-1.29324 2.23599,-1.55334c0.90344,-0.35822 1.72229,-0.38242 2.57468,-0.47198c1.19113,-0.12518 1.81165,-0.19595 2.66849,-0.53717c0.86444,-0.34424 1.60779,-0.97202 2.07266,-1.44284c0.72232,-0.73154 1.17087,-1.29764 2.091,-1.85184c0.63861,-0.38464 1.38205,-0.61127 2.10901,-0.89099c1.43478,-0.55212 2.09161,-0.89557 2.70651,-1.25183c0.58496,-0.3389 1.61072,-0.9964 2.31631,-1.36401c0.66931,-0.34869 1.65405,-0.71753 2.44,-1.04666c0.78348,-0.32809 1.63333,-0.91931 2.2645,-1.56848c0.67776,-0.69711 1.34601,-0.95142 2.35419,-1.02084c0.862,-0.05936 1.64359,-0.61188 2.48798,-0.87866c0.82562,-0.26086 1.62656,-0.39905 2.37418,-0.76868c0.79742,-0.39426 1.78851,-0.35266 2.65182,-0.35266c0.90451,0 1.62201,0 2.66251,0c0.77551,0 1.82352,0 2.76483,0c0.67801,0 1.647,0 2.47202,0c0.91498,0 1.91998,0 2.63998,0c0.76001,0 1.56,0.00006 2.39999,0c1.33517,-0.00009 2.27957,-0.00153 2.77069,-0.01068c1.02545,-0.01913 1.56305,-0.02451 3.276,-0.15598c0.61047,-0.04684 1.23877,-0.11621 1.8855,-0.186c1.3439,-0.14502 2.03821,-0.22461 2.74731,-0.29468c0.72159,-0.07129 2.20032,-0.1893 2.95584,-0.23166c0.76715,-0.04303 1.5488,-0.07486 2.34601,-0.117c0.81549,-0.04312 1.65134,-0.09357 2.508,-0.17099c0.88211,-0.07971 2.72565,-0.32361 3.68799,-0.49701c0.98981,-0.17834 1.99451,-0.39175 3.01202,-0.612c1.02448,-0.22174 2.047,-0.45255 3.06598,-0.66599c1.00507,-0.21051 2.95639,-0.56958 3.8945,-0.6937c0.91406,-0.12094 1.81848,-0.20447 2.71951,-0.267c0.90604,-0.06287 1.82794,-0.10297 2.7735,-0.14099c0.97842,-0.03937 3.07071,-0.11899 4.19934,-0.17816c1.18204,-0.06198 2.4101,-0.13867 3.67648,-0.2355c1.29929,-0.09933 2.6235,-0.21756 3.96451,-0.36151c1.3537,-0.14529 4.06485,-0.50604 5.40884,-0.72382c1.33871,-0.21692 2.66904,-0.46057 3.99597,-0.70801c1.32574,-0.24722 2.64993,-0.50287 3.97803,-0.74399c1.33057,-0.24158 4.01273,-0.68112 5.36932,-0.86252c1.36615,-0.18268 2.74814,-0.33783 4.146,-0.48148c1.41486,-0.14542 2.85062,-0.27661 4.30801,-0.40952c1.48126,-0.1351 4.52435,-0.41501 6.08716,-0.57333c1.58252,-0.16031 3.17273,-0.33188 4.75952,-0.5145c1.57355,-0.18109 3.12189,-0.37012 4.63348,-0.56851c1.46576,-0.19238 4.21155,-0.58917 5.47296,-0.79584c1.19849,-0.19635 2.34613,-0.40286 3.45752,-0.62097c1.09369,-0.21463 2.18085,-0.44675 3.27753,-0.69302c1.12341,-0.25229 3.50269,-0.81821 4.78564,-1.12833c1.34235,-0.32449 2.73212,-0.66373 4.15948,-1.008c1.45294,-0.35043 2.92059,-0.70169 4.39349,-1.04401c1.46454,-0.34036 4.32941,-0.97723 5.71051,-1.26218c1.33899,-0.27625 2.63922,-0.52856 3.90002,-0.7605c1.21924,-0.22427 2.39941,-0.4285 3.53998,-0.61649c1.09955,-0.18121 3.17975,-0.50128 4.16052,-0.64465c0.94324,-0.13788 1.85284,-0.26544 2.73151,-0.38553c0.85034,-0.11621 1.6759,-0.22556 2.47949,-0.33148c0.78442,-0.10342 2.30865,-0.30334 3.05347,-0.40466c0.73523,-0.10001 1.46045,-0.20163 2.17505,-0.31052c0.70538,-0.10748 1.40076,-0.22101 2.08496,-0.3465c0.67578,-0.12393 1.99609,-0.40488 2.63983,-0.564c0.63501,-0.15695 1.25592,-0.32614 1.8645,-0.4935c0.59509,-0.16364 1.17389,-0.32709 1.73853,-0.47549c0.54602,-0.14349 1.58423,-0.38382 2.07568,-0.46683c0.46997,-0.07938 0.92383,-0.13406 1.36047,-0.17102c0.41974,-0.03552 0.82526,-0.05353 1.21649,-0.06299c0.37811,-0.00912 1.09949,-0.00845 1.44434,-0.00916c0.33386,-0.00067 0.65576,-0.00211 0.96448,-0.01053c0.29492,-0.00803 0.57507,-0.0209 0.8385,-0.04648c0.24731,-0.02402 0.6875,-0.10315 0.87604,-0.16418c0.17548,-0.05679 0.33423,-0.12885 0.48151,-0.20398c0.14172,-0.07233 0.276,-0.14935 0.40948,-0.22202l0.13452,-0.06866" id="svg_6" stroke-width="2" stroke="#000" fill="none"/>
  <path t="27614,27751,27751,27751,27776,27776,27801,27801,27801,27802,27802,27825,27825,27825,27844,27844,27844,27844,27861,27861,27861,27861,27881,27881,27881,27898,27898,27898,27898,27898,27920,27920,27920,27920,27921,27921,27921,27921,27961,27962,27962,27979,27979,27979,27997,27998,27998,27998,28011,28011,28011,28033,28033,28045,28045,28045,28045,28047,28047,28069,28069,28069,28071,28071,28087,28101,28101,28101,28118,28118,28136,28137,28153,28154,28169,28169,28186,28186,28201,28218,28218,28236,28236,28250,28268,28268,28285,28318,28318,28335,28335,28384,28385,28418,28435,28435,28468,28486,28486,28501,28501,28502,28517,28518,28518,28535,28535,28535,28535,28551,28551,28552,28552,28552,28568,28568,28568,28569,28569,28569,28585,28585,28585,28585,28586,28586,28602,28602,28603,28603,28603,28603,28603,28617,28617,28617,28617,28617,28617,28618,28635,28635,28635,28635,28636,28636,28636,28650,28650,28650,28650,28651,28651,28651,28651,28651,28668,28668,28668,28669,28669,28669,28669,28669,28670,28684,28685,28685,28686,28686,28686,28686,28687,28687,28700,28701,28701,28701,28701,28701,28701,28702,28702,28716,28717,28717,28717,28717,28718,28718,28718,28718,28735,28735,28735,28735,28735,28735,28735,28736,28736,28751,28751,28751,28751,28752,28752,28752,28752,28752,28768,28768,28768,28769,28769,28769,28769,28769,28770,28785,28785,28786,28786,28786,28786,28786,28786,28787,28802,28802,28802,28802,28802,28802,28803,28803,28803,28817,28818,28818,28818,28818,28818,28818,28819,28819,28836,28837,28837,28837,28837,28837,28837,28838,28838,28853,28853,28853,28854,28854,28854,28855,28855,28855,28872,28872,28872,28872,28873,28873,28873,28873,28873" d="m359,335c4.51334,2.74399 5.14987,2.93344 6.03833,2.98651c1.03839,0.06204 1.94086,0.00668 2.96167,0.01349c0.80005,0.00534 1.61002,0.04865 2.40134,0.284c0.84714,0.25195 1.76263,0.56998 2.55582,0.66333c0.8512,0.10019 2.0452,0.20792 2.64417,0.33667c0.92346,0.19849 1.54877,0.40988 2.91986,0.59485c0.72409,0.09769 1.46542,0.09512 2.16898,0.23099c1.28644,0.24841 1.79929,0.6084 2.56052,1.0755c1.07544,0.65994 1.71332,0.94467 2.41068,1.17868c0.71884,0.24124 1.45697,0.43124 2.51733,0.73581c0.99689,0.28632 1.64111,0.491 2.30533,0.61484c1.39063,0.25928 2.14316,0.25436 2.89066,0.34668c0.7435,0.09183 1.81757,0.34961 2.77866,0.78934c0.60947,0.27884 1.66721,0.86234 2.3985,1.03949c0.7001,0.16959 1.78296,0.26904 2.41617,0.39383c1.03448,0.20386 1.7218,0.39096 2.69867,0.54935c1.05692,0.17136 1.74939,0.12964 2.73468,0.45331c0.86359,0.28369 1.76505,0.88046 2.28265,1.19601c0.81558,0.49719 1.32486,0.90399 2.3945,1.27451c0.87653,0.30362 1.92657,0.39386 2.52151,0.59549c0.80743,0.27365 1.84125,0.39212 2.68567,0.70001c0.8085,0.2948 1.57056,0.84747 2.23517,0.96817c0.71609,0.13007 1.60464,0.75327 2.22733,1.27383c0.83371,0.69702 1.67123,0.69766 2.65182,0.98932c0.61124,0.18179 1.5932,0.60071 2.38934,0.67999c1.03949,0.10352 1.80374,0.06421 2.62134,0.46133c0.9151,0.44449 1.61011,0.55753 2.58932,0.57468c0.77859,0.01364 1.59033,0.46014 2.44284,0.87851c0.67395,0.33072 1.79276,-0.10092 2.55716,0.45483c0.53424,0.38843 1.13449,1.43689 1.82535,1.59467c0.9852,0.22498 1.87015,0.07199 2.6955,0.07199c0.96317,0 1.65381,0 2.72198,0c0.85751,0 1.72784,0 2.52783,0c0.771,0 1.63202,0 2.83066,0c0.60934,0 1.55585,0 2.56534,0c0.71869,0 1.85419,0 2.63785,0c1.1955,0 1.99683,0 2.80615,0c0.82535,0 1.24652,0.00284 2.556,0c0.91867,-0.00201 1.87021,-0.02048 2.35419,-0.0625c0.98596,-0.08557 1.5014,-0.12329 2.97949,-0.60165c0.51068,-0.16528 1.5206,-0.62341 2.04132,-0.85669c1.07184,-0.48019 1.61768,-0.74414 2.79169,-1.14581c0.60394,-0.20663 1.87033,-0.52255 2.51733,-0.65067c0.64777,-0.12827 1.29599,-0.24673 2.58133,-0.39468c1.23245,-0.14188 1.82495,-0.17294 2.96265,-0.23532c0.55453,-0.0304 1.10556,-0.04825 2.21069,-0.10535c0.56277,-0.02908 2.33838,-0.16519 2.96799,-0.23398c0.65045,-0.07108 1.3205,-0.15656 2.01001,-0.255c0.71051,-0.10144 2.19159,-0.33624 3.75,-0.625c0.81018,-0.15012 1.63489,-0.31622 2.47198,-0.48602c0.84558,-0.17151 1.69455,-0.34787 2.54401,-0.52197c0.84521,-0.17322 1.68109,-0.34967 3.31732,-0.65869c0.78973,-0.14917 1.56357,-0.28384 2.32352,-0.40948c0.74811,-0.12369 1.48871,-0.23816 2.22449,-0.3465c0.73325,-0.10797 1.46771,-0.21158 2.952,-0.41068c0.75504,-0.10129 1.52142,-0.20071 2.2995,-0.3045c0.79126,-0.10556 1.59659,-0.21451 2.4165,-0.33148c0.83646,-0.11932 1.6908,-0.24039 3.45065,-0.53067c0.91064,-0.15021 1.83905,-0.3168 2.78552,-0.49051c0.96417,-0.17694 1.94379,-0.36304 2.93848,-0.5535c1.00897,-0.19321 2.03027,-0.39276 4.10938,-0.78934c1.05414,-0.20108 2.11469,-0.39981 3.177,-0.60001c1.06036,-0.1998 2.11487,-0.39868 3.159,-0.60001c1.03058,-0.1987 2.04443,-0.39145 3.99731,-0.79999c0.93652,-0.19592 1.84576,-0.39804 2.73297,-0.60001c0.87012,-0.19806 1.72552,-0.39932 2.57104,-0.60001c0.83984,-0.19931 1.67664,-0.40277 3.36267,-0.79999c0.85498,-0.20142 1.72229,-0.4017 2.604,-0.60001c0.89697,-0.20172 1.81213,-0.40219 2.74799,-0.60001c0.95685,-0.20224 1.93719,-0.40768 3.98132,-0.79999c1.06311,-0.20401 2.15057,-0.40079 3.25348,-0.60001c1.11176,-0.20081 2.22589,-0.39896 3.33453,-0.60001c1.09698,-0.19894 2.17682,-0.38922 4.2453,-0.79999c0.98157,-0.19492 1.92474,-0.39667 2.8335,-0.60001c0.87927,-0.19675 1.72961,-0.39743 2.5545,-0.60001c0.80414,-0.19748 1.58905,-0.39612 3.112,-0.79999c0.74585,-0.19778 1.48206,-0.39966 2.21405,-0.591c0.72668,-0.18997 1.45129,-0.37323 2.17798,-0.53699c0.72601,-0.16357 1.45428,-0.33054 2.94135,-0.53867c0.7525,-0.10532 1.51556,-0.16953 2.28149,-0.22351c0.76611,-0.05402 1.53094,-0.08984 2.29047,-0.12451c0.75146,-0.0343 1.49298,-0.05304 2.92804,-0.15198c0.69104,-0.04764 1.36444,-0.11456 2.0235,-0.19052c0.64899,-0.07477 1.28931,-0.16156 1.9245,-0.25348c0.63379,-0.09174 1.26782,-0.19202 2.552,-0.38934c0.65405,-0.10049 1.31311,-0.19977 1.97247,-0.2955c0.65399,-0.09494 1.2981,-0.18533 1.92749,-0.26849c0.60901,-0.08044 1.19244,-0.15952 2.26666,-0.26935c0.48047,-0.04913 0.92651,-0.08414 1.34253,-0.1095c0.39069,-0.0238 0.76166,-0.03632 1.11749,-0.04648l0.34583,-0.0062l0.34082,-0.00314" id="svg_7" stroke-width="2" stroke="#000" fill="none"/>
  <path t="33447,33508,33525,33525,33525,33543,33543,33543,33543,33543,33559,33559,33559,33559,33559,33575,33575,33575,33575,33592,33592,33593,33593,33593,33608,33608,33609,33609,33609,33625,33625,33642,33642,33642,33642,33658,33658,33659,33692" d="m364,184c2.47916,1.04167 3.11893,1.65608 3.41068,2.31866c0.37064,0.84178 0.75204,1.84975 1.07333,2.56667c0.33722,0.75252 0.70624,1.51878 1.03198,2.31601c0.48596,1.18933 0.73077,1.99748 0.84802,2.39867c0.23315,0.79774 0.43231,1.60059 0.73615,2.79999c0.20276,0.8004 0.40408,1.6051 0.65701,2.40001c0.38443,1.20825 0.72348,2.00143 1.06818,2.8c0.17297,0.40073 0.55038,1.18889 1.008,2.39999c0.29871,0.79051 0.53372,1.57515 0.72,2.328c0.17279,0.69829 0.39359,1.90215 0.43597,2.92267c0.04492,1.08177 0.01068,1.71733 0.01068,2.39999c0,1.04401 0,2.01601 0.00449,2.83051l0.05267,0.85266l0.2955,0.909" id="svg_8" stroke-width="2" stroke="#000" fill="none"/>
  <path t="34579,34675,34675,34675,34692,34692,34692,34708,34708,34708,34725,34725,34725,34742,34742,34742,34760,34760,34792,34808" d="m327,201c-4.61417,6.5925 -5.06116,7.32347 -5.59332,8.14667c-0.55811,0.86336 -1.06754,1.4463 -1.58133,2.05333c-0.66949,0.79099 -1.10727,1.38489 -1.52084,2.25717c-0.44791,0.94469 -0.56128,1.51276 -0.94049,2.28149c-0.47293,0.95872 -1.21048,1.57442 -1.71133,2.00951c-0.80185,0.69659 -1.20602,1.4265 -1.56866,2.36516l-0.36801,0.80267" id="svg_9" stroke-width="2" stroke="#000" fill="none"/>
  <path t="35533,35608,35608,35608,35608,35608,35625,35625,35625,35626,35626,35626,35642,35642,35642,35642,35642,35642,35658,35658,35658,35659,35659,35659,35659,35659,35659,35674,35675,35675,35675,35675,35675,35675,35675,35675,35691,35692,35692,35692,35692,35692,35692,35692,35692,35707,35707,35707,35707,35707,35707,35707,35707,35707,35724,35725,35725,35725,35725,35725,35725,35726,35726,35741,35741,35742,35742,35742,35742,35742,35742,35742,35758,35758,35758,35758,35758,35758,35759,35759,35759,35774,35775,35775,35775,35775,35775,35775,35775,35775,35791,35791,35792,35792,35792,35792,35792,35792,35792,35808,35808,35808,35808,35808,35808,35808,35808,35808,35825,35825,35825,35825,35825,35825,35825,35825,35825,35848,35848,35848,35848,35848,35848,35848,35849,35849,35864,35864,35864,35865,35865,35865,35865,35865,35865,35883,35883,35883,35883,35883,35884,35884,35884,35884,35898,35898,35898,35921,35921,35921,35960" d="m319,222c6.37851,0.87849 6.91418,0.92636 7.96399,0.964c1.02499,0.03674 1.53152,0.03374 3.03601,0.036c0.5,0.00075 1.5,0 2.5,0c0.5,0 1.5,0 2.5,0c1.00665,0 1.52249,0 2.60416,0c0.57584,0 1.82251,-0.00031 3.22919,0c0.77399,0.00017 1.59201,-0.00011 2.448,0.009c0.88803,0.00945 1.80222,0.02699 2.73599,0.063c0.94824,0.03656 1.90668,0.0697 3.81601,0.26132c0.94672,0.095 1.88199,0.23022 2.80948,0.37201c0.92184,0.14091 1.83606,0.29631 2.74652,0.444c0.90588,0.14696 1.80609,0.30913 3.61066,0.51733c0.89874,0.1037 1.80099,0.16957 2.7045,0.2235c0.90585,0.05408 1.81631,0.0901 2.73151,0.1245c0.92114,0.03462 1.84991,0.05602 3.73065,0.15201c0.95502,0.04874 1.9176,0.11534 2.88602,0.19049c0.97293,0.0755 1.94751,0.16159 2.922,0.25351c0.97284,0.09177 1.94156,0.18839 3.85867,0.38933c0.9451,0.09906 1.88025,0.1993 2.80499,0.3045c0.91525,0.10413 1.82047,0.21271 2.715,0.3315c0.8855,0.11758 1.76273,0.23326 3.48001,0.53067c0.84641,0.14659 1.6803,0.31453 2.505,0.48149c0.81528,0.16505 1.61942,0.33394 2.41498,0.49051c0.78445,0.15437 1.55627,0.31728 3.08002,0.528c0.74387,0.10287 1.48355,0.16945 2.21848,0.2235c0.73315,0.05392 1.46896,0.09018 2.2095,0.1245c0.74844,0.03468 1.50864,0.05708 3.07202,0.15201c0.80984,0.04916 1.63626,0.11569 2.4765,0.19049c0.85178,0.07582 1.71118,0.1618 2.5755,0.25351c0.8667,0.09196 1.73227,0.18837 3.448,0.38933c0.84561,0.09904 1.68417,0.1998 2.51849,0.3045c0.83368,0.10461 1.66934,0.21394 2.50949,0.3315c0.84885,0.11877 1.70947,0.24037 3.47202,0.53067c0.90991,0.14987 1.83331,0.31593 2.76749,0.48149c0.93918,0.16644 1.87781,0.33411 2.8125,0.49051c0.92365,0.15456 1.83044,0.31473 3.58667,0.528c0.83426,0.10132 1.64368,0.16881 2.4285,0.2235c0.76318,0.05318 1.50897,0.08972 2.2395,0.1245c0.71848,0.03421 1.42883,0.05507 2.832,0.15201c0.70016,0.04837 1.39774,0.11485 2.091,0.19049c0.68808,0.07506 1.36771,0.16087 2.03699,0.25351c0.65808,0.09108 1.30222,0.18513 2.53867,0.38933c0.59061,0.09753 1.16193,0.19827 1.71451,0.3045c0.53674,0.10318 1.05737,0.21185 1.56149,0.3315c0.49225,0.11682 0.97488,0.2317 1.89069,0.53067c0.44757,0.1461 0.87921,0.3127 1.29599,0.48599c0.40457,0.16821 0.78909,0.34367 1.15201,0.522c0.34436,0.16922 0.66916,0.32796 1.21866,0.65866c0.64713,0.38947 1.30084,0.80501 2.26801,1.08267l0.73199,0.084l0.73199,0.084l1.10666,0.34134" id="svg_10" stroke-width="2" stroke="#000" fill="none"/>
  <path t="37700,37857,37858,37858,37858,37858,37858,37858,37858,37875,37875,37875,37875,37875,37875,37876,37876,37876,37895,37895,37895,37895,37895,37895,37895,37895,37895,37909,37909,37909,37909,37909,37909,37909,37909,37909,37924,37924,37924,37924,37924,37924,37924,37924,37924,37941,37942,37942,37942,37942,37942,37942,37942,37942,37960,37960,37960,37960,37960,37960,37960,37960,37960,37978,37978,37979,37979,37979,37979,37979,37979,37979" d="m159,291c-0.66516,2.65149 -0.85799,3.20654 -1.08949,3.82718c-0.25746,0.69022 -0.55228,1.44531 -0.88651,2.26349c-0.36179,0.88562 -0.75481,1.83716 -1.69067,3.90933c-0.51175,1.13309 -1.07359,2.31781 -1.67099,3.55649c-0.62378,1.2934 -1.28459,2.63239 -1.97701,4.0155c-0.71484,1.42792 -1.45598,2.89474 -3.01866,5.92801c-0.80675,1.56595 -1.63597,3.15604 -2.4765,4.77151c-0.85147,1.63651 -1.71266,3.29013 -2.5755,4.96048c-0.86816,1.68066 -1.74307,3.36646 -3.448,6.76801c-0.85019,1.69626 -1.6803,3.39056 -2.496,5.073c-0.8056,1.66159 -1.58939,3.30103 -2.35201,4.91101c-0.74466,1.57205 -1.46445,3.10257 -2.81866,6.01599c-0.6368,1.37 -1.24348,2.68497 -1.82401,3.948c-0.55812,1.21429 -1.09335,2.38504 -1.608,3.51599c-0.498,1.09436 -0.98019,2.15665 -1.90133,4.20267c-0.44541,0.98935 -0.87925,1.95648 -1.296,2.901c-0.40453,0.91684 -0.79105,1.80579 -1.152,2.66702c-0.34624,0.82617 -0.68159,1.61383 -1.21867,3.09866c-0.24495,0.67719 -0.44942,1.32275 -0.633,1.9335c-0.17354,0.57733 -0.32529,1.129 -0.47099,1.65448c-0.13963,0.50351 -0.26135,0.9931 -0.56267,1.91202c-0.14677,0.4476 -0.31384,0.88086 -0.4815,1.30499c-0.16438,0.41586 -0.331,0.82001 -0.4905,1.215l-0.1515,0.38501l-0.1405,0.375" id="svg_11" stroke-width="2" stroke="#000" fill="none"/>
  <path t="38444,38557,38557,38557,38574,38574,38574,38575,38575,38591,38591,38591,38607,38608,38608,38608,38608,38608,38624,38624,38624,38624,38624,38624,38625,38641,38641,38641,38641,38642,38642,38642,38642,38657,38657,38658,38658,38658,38658,38658,38658,38674,38674,38674,38674,38675,38675,38691,38691,38692,38692,38692,38692,38707,38708,38708,38708,38708,38708,38708,38708,38724,38725,38725,38725,38725,38725,38725,38725,38725,38741,38741,38741,38742,38742,38742,38742,38742,38742,38757,38758,38758,38758,38758,38758,38758,38759,38759,38774,38774,38775,38775,38775,38775,38775,38776,38776,38791,38791,38792,38792,38792,38792,38792,38792,38793,38807,38808,38808,38808,38808,38808,38808,38809,38809,38824,38824,38824,38825,38825,38825,38825,38825,38826,38841,38842,38842,38842,38842,38842,38843,38843,38843,38857,38858,38858,38858,38858,38859,38859,38878,38878,38878,38878,38878,38878,38878,38878,38878,38892,38893,38893,38893,38893,38893,38893,38893,38894" d="m126,375c-4.516,-3.65866 -5.16968,-3.89609 -5.82533,-3.95734c-1.33619,-0.12485 -2.05867,-0.04266 -2.8,-0.04266c-0.74933,0 -1.49129,-0.03696 -2.89066,0.00534c-0.65942,0.01993 -1.68021,0.13382 -2.65067,0.66132c-0.75607,0.41095 -1.10637,0.74548 -1.8125,1.45834c-0.37312,0.37668 -1.09518,1.22339 -1.6875,2.20834c-0.60878,1.01233 -0.82686,1.58215 -1.06133,2.14932c-0.23837,0.57657 -0.66777,1.78195 -0.86934,2.40533c-0.41244,1.27554 -0.60524,1.93265 -0.8,2.59732c-0.19661,0.67099 -0.56712,2.03406 -0.73067,2.72534c-0.16381,0.69241 -0.32915,1.38623 -0.53867,2.78934c-0.10421,0.69791 -0.18137,1.39749 -0.26134,2.78934c-0.0396,0.68936 -0.05363,1.3746 -0.063,2.0535c-0.00927,0.67181 -0.01677,1.99057 -0.005,3.26917c0.00572,0.62189 0.00011,1.23282 0.104,2.40533c0.05008,0.56519 0.36642,2.15869 0.55717,2.6395c0.37508,0.9454 0.64343,1.39413 1.31083,2.18585c0.34533,0.40967 1.68246,1.50339 2.2105,1.83533c0.5506,0.34613 1.14613,0.67218 1.7895,0.95398c1.35601,0.59393 2.10715,0.8158 2.88534,1.01068c1.62693,0.40744 2.50176,0.50833 3.39733,0.59732c0.92034,0.09146 1.87055,0.13483 2.8455,0.13501c0.99995,0.00018 2.02534,-0.03949 3.0705,-0.13501c2.16296,-0.19766 3.2711,-0.38953 4.39467,-0.604c1.14371,-0.21829 2.29762,-0.48801 3.45149,-0.82349c1.17056,-0.34033 2.34587,-0.73297 3.49651,-1.22849c2.3486,-1.01141 3.47359,-1.69128 4.58934,-2.39603c1.12311,-0.70938 2.20731,-1.48611 3.2475,-2.31299c1.03336,-0.82144 2.02141,-1.67813 2.9325,-2.58301c1.75909,-1.7471 2.49951,-2.6795 3.19867,-3.58932c0.6779,-0.88217 1.28952,-1.77356 1.84799,-2.66101c0.54262,-0.86224 1.03593,-1.72162 1.48801,-2.57098c0.86575,-1.62662 1.23999,-2.4249 1.604,-3.19601c0.3515,-0.74463 0.67697,-1.46799 0.97049,-2.1705c0.28091,-0.67233 0.53693,-1.31909 0.7455,-1.9455c0.38319,-1.15079 0.50374,-1.6922 0.60268,-2.20267c0.09358,-0.48282 0.15492,-0.94736 0.1935,-1.39349c0.03719,-0.42999 0.05273,-0.84894 0.0585,-1.25851c0.01132,-0.80392 0.004,-1.20383 0.004,-1.60266c0,-0.39682 0,-0.79065 0,-1.18048c0,-0.38486 0,-0.76367 0,-1.1355c0,-0.71869 0.0054,-1.06354 -0.008,-1.39603c-0.01285,-0.31897 -0.03903,-0.62549 -0.117,-0.90598c-0.07497,-0.26965 -0.18907,-0.53314 -0.38699,-0.72601c-0.4332,-0.42212 -0.80884,-0.53473 -1.6445,-0.68582c-0.48769,-0.08817 -1.61539,-0.14429 -2.242,-0.15802c-0.66541,-0.01459 -2.1015,-0.01443 -2.86667,-0.01315c-0.79617,0.00134 -1.62439,0.00507 -2.4855,0.021c-0.89523,0.01657 -1.82561,0.04471 -2.79149,0.09299c-1.00349,0.05017 -3.12535,0.21088 -4.24301,0.32901c-1.15041,0.12161 -2.32239,0.27054 -3.50549,0.45001c-1.18999,0.18051 -2.37201,0.39999 -3.5415,0.63l-1.1465,0.25" id="svg_12" stroke-width="2" stroke="#000" fill="none"/>
  <path t="42038,42129,42129,42132,42132,42132,42132,42132,42151,42151,42151,42151,42151,42151,42151,42151,42151,42175,42175,42175,42175,42175,42175,42175,42175,42175,42204,42204,42204,42204,42204,42204,42205,42205,42205,42222,42222,42222,42222,42222,42222,42222,42222,42223,42240,42240,42240,42240,42240,42240,42240,42240,42240,42260,42260,42260,42260,42260,42260,42260,42260,42260,42277,42277,42277,42277,42277,42278,42278,42278,42278,42279,42279,42279,42279,42280,42280,42280,42280,42280" d="m522,312c-0.87866,6.60083 -0.91901,7.20651 -0.94733,7.82251c-0.0589,1.28137 -0.07678,1.95755 -0.10535,2.66333c-0.03003,0.74088 -0.11066,2.34772 -0.16901,3.22183c-0.06146,0.92056 -0.1366,1.88297 -0.22498,2.883c-0.09149,1.03467 -0.19629,2.09906 -0.315,3.189c-0.12122,1.11276 -0.40149,3.38748 -0.55981,4.54251c-0.16028,1.16898 -0.33441,2.35318 -0.51453,3.55649c-0.18347,1.22571 -0.37549,2.47589 -0.56848,3.75452c-0.19763,1.30936 -0.59711,4.03326 -0.79572,5.45181c-0.20276,1.44812 -0.40234,2.91696 -0.61047,4.39502c-0.20819,1.47861 -0.41956,2.94754 -0.64648,4.39499c-0.22253,1.41925 -0.70056,4.12683 -0.96399,5.396c-0.25293,1.21881 -0.52386,2.38678 -0.79352,3.513c-0.26141,1.09174 -0.52722,2.15125 -0.77551,3.189c-0.24365,1.01825 -0.68433,3.02554 -0.867,4.02618c-0.18121,0.9928 -0.33545,1.97797 -0.48151,2.94748c-0.14294,0.94882 -0.27283,1.87384 -0.40948,2.76752c-0.13147,0.85965 -0.40997,2.45435 -0.573,3.17816c-0.1535,0.68152 -0.32336,1.31833 -0.4935,1.91699c-0.16104,0.56665 -0.32614,1.10071 -0.47549,1.61099c-0.14255,0.48706 -0.38422,1.41153 -0.46683,1.8577c-0.07986,0.43134 -0.13394,0.8508 -0.17102,1.254c-0.03534,0.38422 -0.05341,0.74924 -0.06299,1.09198c-0.00891,0.3186 -0.00842,0.87601 -0.00916,1.11166c-0.00067,0.20969 -0.00189,0.39743 -0.01053,0.56702c-0.00793,0.15579 -0.02533,0.30133 -0.04648,0.44098l-0.02817,0.1377" id="svg_13" stroke-width="2" stroke="#000" fill="none"/>
  <path t="42779,43049,43049,43049,43049,43049,43049,43049,43049,43067,43067,43067,43067,43067,43067,43067,43067,43067,43077,43077,43077,43077,43081,43082,43082,43082,43082,43093,43094,43094,43094,43094,43094,43094,43094,43094,43111,43111,43111,43111,43111,43111,43111,43111,43112,43127,43127,43127,43127,43127,43127,43128,43128,43128,43143,43143,43143,43144,43160,43160,43160,43160,43160,43160,43177,43177,43177,43177,43193,43193,43193,43194,43194,43210,43210,43210,43210,43227,43227,43227,43227,43227,43243,43243,43243,43244,43260,43260,43260,43260,43277,43277,43277,43277,43293,43293,43293,43294,43310,43310,43310" d="m510,401c-9.67017,-0.42499 -10.31915,-0.13785 -10.8345,0.33835c-0.53949,0.4985 -0.98096,1.18311 -1.3215,1.995c-0.38245,0.9118 -0.70392,2.00073 -1.01065,4.66666c-0.18158,1.57803 -0.22446,3.30777 -0.23401,5.13449c-0.00989,1.88953 0.04645,3.80417 0.16199,5.70151c0.1124,1.84586 0.19821,3.61249 0.73868,6.664c0.22247,1.2562 0.51614,2.31998 0.87601,3.186c0.30804,0.74133 0.67444,1.34311 1.09198,1.78198c0.37509,0.39426 0.79941,0.70264 1.69867,1.03201c0.4455,0.16318 0.91559,0.25452 1.38602,0.32849c0.4711,0.0741 0.94699,0.11493 1.422,0.1395c0.47238,0.02441 0.94131,0.03 1.85867,0.03201c0.44516,0.00098 0.88132,0 1.30948,0c0.42117,0 0.83633,0 1.24652,0c0.40616,0 0.80933,0.00049 1.61066,0c0.39984,-0.00024 0.7988,0.00058 1.1955,-0.01349c0.39401,-0.01398 0.78488,-0.0397 1.16852,-0.09451c0.38025,-0.05432 0.79364,-0.05014 1.81451,-0.55667c0.69989,-0.34726 1.32227,-0.89679 1.91699,-1.50598c0.93988,-0.96271 1.50732,-1.71039 1.79547,-2.08652c0.57855,-0.75522 1.1084,-1.53925 1.33832,-1.94415c0.66809,-1.17651 0.97974,-1.99026 1.20819,-2.79868c0.224,-0.79269 0.41174,-1.99854 0.47717,-2.79999c0.06525,-0.79889 0.07886,-1.59998 0.08398,-2.40002c0.00769,-1.19995 0.00134,-2 0.00134,-2.79999c0,-0.79999 0,-2 0,-2.79999c0,-0.80002 0,-1.60001 0,-2.40002c0,-1.19998 0,-2 0,-2.79999c0,-0.79999 0.01227,-2.00015 -0.00403,-2.79733c-0.01593,-0.78168 0.07568,-1.59698 -0.49597,-2.86932c-0.27277,-0.60709 -0.8006,-1.05832 -1.49915,-1.78152c-0.68134,-0.70538 -1.18622,-1.50543 -1.50085,-2.03098c-0.45477,-0.75958 -1.26935,-1.55151 -2.02081,-2l-0.53101,-0.26901" id="svg_14" stroke-width="2" stroke="#000" fill="none"/>
  <path t="50317,50567,50567,50567,50582,50582,50582,50582,50582,50600,50600,50600,50600,50600,50616,50617,50617,50617,50617,50634,50634,50634,50634,50634,50634,50651,50651,50651,50651,50651,50651,50668,50668,50668,50668,50668,50668,50697,50697,50697,50698,50698,50698,50711,50711,50711,50711,50711,50726,50726,50726,50726,50726,50726,50739,50739,50739,50739,50740,50740,50753,50753,50753,50753,50754,50754,50767,50768,50768,50768,50768,50768,50782,50783,50783,50783,50783,50783,50800,50801,50801,50801,50818,50818,50818,50818,50818,50818,50834,50834,50834,50834,50834,50851,50851,50851,50852,50868,50868,50868,50884,50884,50884,50884,50901,50916,50917,50933,50933,50933,50950,50966,50966,50999,51000" d="m143,214c-1.17583,1.42867 -0.93549,2.08252 -0.63916,2.81799c0.47572,1.18071 0.75841,1.98058 0.88199,2.382c0.24545,0.79726 0.45384,1.59972 0.75717,2.8c0.20212,0.7998 0.39966,1.60318 0.636,2.39999c0.23828,0.80336 0.67772,2.00346 1.02116,2.8045c0.17488,0.40788 0.55782,1.22954 0.94417,2.08084c0.6051,1.33328 0.81042,1.79573 1.17734,2.76132c0.18706,0.49226 0.52521,1.51035 0.65067,2.04001c0.38428,1.62236 0.40785,2.19678 0.46533,2.76599c0.11577,1.14633 0.13065,1.72488 0.27333,2.86334c0.14046,1.12073 0.25874,1.66655 0.53734,2.72684c0.1375,0.52328 0.45343,1.54388 0.58932,2.05266c0.39992,1.49733 0.5444,2.50217 0.591,3c0.09192,0.98206 0.10139,1.46838 0.11166,2.41917c0.01472,1.36409 0.00267,2.23717 0.00267,3.10616c0,0.44051 0,1.34851 0,2.82201c0,0.52649 0,1.6185 0,2.17801c0,0.56448 0,1.6965 0,2.8125c0,1.08133 0,1.6095 0,2.64581c0,1.01636 0.00333,1.5195 -0.00034,3.021c-0.00122,0.50119 -0.01331,1.51089 -0.04134,2.02069c-0.05704,1.03729 -0.08461,1.57248 -0.401,3.2005c-0.10997,0.56586 -0.40799,1.70398 -0.55733,2.27866c-0.14934,0.57468 -0.46277,1.70999 -0.66667,2.83334c-0.19489,1.0737 -0.22768,1.60052 -0.33333,2.60416c-0.05051,0.47986 -0.08719,1.41141 -0.44299,2.61984c-0.22192,0.75369 -0.59781,1.44312 -0.966,2.14798c-0.58961,1.12875 -0.99445,1.96191 -1.18651,2.40451c-0.39351,0.9068 -0.7532,1.83987 -0.91916,2.3075c-0.48096,1.35522 -0.73361,2.22397 -0.96451,3.06183c-0.11284,0.40945 -0.31546,1.22052 -0.621,2.4205c-0.20168,0.79202 -0.38338,1.57187 -0.657,2.28601c-0.4977,1.29895 -0.90244,1.79956 -1.4175,2.52899c-0.66772,0.94565 -1.07263,1.73157 -1.3045,2.2645c-0.32579,0.74878 -1.02362,1.80804 -1.35416,2.6875c-0.23782,0.63278 -0.44901,1.72284 -1.028,2.19736c-0.60866,0.49881 -1.492,1.04666 -1.972,1.80264l-0.14584,0.83334l-0.02083,0.97849l0,0.82019" id="svg_15" stroke-width="2" stroke="#000" fill="none"/>
  <path t="61754,61877,61878,61878,61894,61894,61894,61894,61912,61912,61912,61912,61912,61929,61929,61929,61929,61946,61946,61946,61963,61963,61963,61979,61979,61997,61997,62013,62013,62029,62111,62111,62126,62145,62160,62160,62177,62177,62177,62194,62228,62228,62311,62344,62377,62378,62394,62411,62411,62428,62445,62445,62445,62462,62462,62478,62479,62479,62495,62495,62495,62510,62510,62510,62527,62528,62528,62528,62544,62544,62544,62544,62561,62561,62561,62561,62578,62578,62578,62578,62595,62595,62595,62595,62612,62612,62612,62613,62613,62629,62630,62630,62648,62648,62648,62648,62665,62666,62666,62666,62681,62681,62682,62682,62697,62697,62697,62697,62697,62712,62713,62713,62713,62713,62728,62728,62728,62728,62744,62744,62744,62744,62777,62777,62777,62777,62792,62792,62792,62792,62807,62807,62807,62807,62822,62822,62822,62822,62823,62837,62838,62838,62838,62838,62853,62854,62854,62854,62869,62869,62869,62869,62886,62886,62887,62887,62902,62902,62902,62902,62917,62918,62918,62933,62933,62934,62934,62949,62949,62949,62964,62965,62980,62996,62996,62996,63012,63044,63045,63045,63062,63110,63111,63127,63127,63145,63145,63162,63163,63180,63180,63180,63198,63199,63199,63199,63217,63217,63217,63234,63235,63235,63250,63250,63250,63251,63266,63266,63266,63282,63282,63283,63298,63299,63299,63314,63314,63315,63315,63330,63331,63347,63347,63347,63363,63363,63379,63379" d="m456,332c-0.91467,3.60132 -0.9863,4.52069 -0.99551,5.15717c-0.01978,1.36423 -0.00449,2.10001 -0.00449,2.86368c0,0.78366 0,1.97916 0,2.77914c0,0.80002 0,1.60001 0,2.40002c0,1.19965 0,1.991 0,2.75833c0,0.72733 0,1.99881 0,2.78033c0,0.7095 0,1.94531 0,2.48666c0,0.82199 0,2.08932 0,2.75381c0,1.02084 0,1.81018 0,2.85419c0,0.86215 0,1.6875 0,2.65067c0,0.69064 0.26923,1.79831 -0.00266,2.71466c-0.23047,0.77673 -1.37369,0.74429 -1.82669,1.65466c-0.30286,0.60867 -0.16931,1.38 -0.17065,2.48532c-0.00119,0.98267 0.15842,1.8497 -0.00134,2.77469c-0.14468,0.83777 -1.09882,0.88666 -1.884,0.88666c-0.94,0 -1.948,0 -2.70398,0c-0.95233,0 -1.95334,0 -2.66135,0c-0.74399,0 -1.78134,0.00079 -2.71732,0c-0.80267,-0.00067 -1.57742,0.01776 -2.43469,-0.08533c-1.2037,-0.14474 -1.78293,-0.3548 -2.64017,-0.56201c-1.03183,-0.24942 -1.98706,-0.33347 -2.7265,-0.522c-0.8869,-0.22614 -1.54251,-0.53595 -2.2515,-0.8515c-0.73309,-0.32629 -1.80176,-0.84048 -2.82648,-1.2175c-0.64639,-0.23782 -1.29681,-0.45505 -2.67401,-0.64032c-0.728,-0.09793 -1.47968,-0.10855 -2.22601,-0.17401c-1.0878,-0.0954 -2.09998,-0.29999 -2.75266,-0.44733c-0.65268,-0.14734 -2.02121,-0.38208 -2.75717,-0.45184c-0.76337,-0.07236 -1.56018,-0.09769 -2.74283,-0.3815c-0.8082,-0.19394 -1.57925,-0.51587 -2.328,-0.81598c-0.70187,-0.28131 -1.90009,-0.70328 -2.672,-0.82983c-0.76474,-0.12537 -1.64606,-0.22754 -2.66135,-0.45685c-0.72647,-0.16409 -1.45758,-0.35974 -2.51733,-0.66382c-0.66965,-0.19214 -1.64194,-0.48663 -2.30533,-0.61484c-1.03134,-0.19931 -1.77567,-0.2135 -2.92667,-0.34668c-0.79269,-0.09174 -1.59717,-0.24689 -2.38931,-0.508c-0.80884,-0.2666 -1.59567,-0.62662 -2.40002,-0.948c-1.19379,-0.47699 -1.99731,-0.73477 -2.79999,-0.96182c-0.79742,-0.22559 -1.19913,-0.32312 -2.39999,-0.62067c-0.79944,-0.19809 -1.59659,-0.39713 -2.39999,-0.543c-1.1955,-0.21707 -1.99826,-0.26468 -2.77869,-0.3425c-1.10849,-0.11057 -2.1088,-0.30481 -2.91599,-0.72c-0.5202,-0.26758 -1.2475,-0.80719 -2.14835,-1.05185c-1.00836,-0.27386 -1.77936,-0.24637 -2.55966,-0.3255c-1.19919,-0.12158 -1.99734,-0.26999 -2.79733,-0.41733c-0.79999,-0.14734 -1.99921,-0.34128 -2.79999,-0.41733c-0.79932,-0.07593 -1.60565,-0.10822 -2.40002,-0.25201c-1.21103,-0.21921 -2.00064,-0.53424 -2.39999,-0.68134c-0.80127,-0.29514 -1.58606,-0.63797 -2.79984,-0.90665c-0.78833,-0.1745 -1.5834,-0.2164 -2.34299,-0.34802c-1.09775,-0.19025 -2.11053,-0.58929 -2.73633,-0.93631c-0.62747,-0.34793 -1.50885,-0.97714 -2.42535,-1.54935c-0.60861,-0.37997 -1.22977,-0.76193 -2.26215,-1.07565c-0.70218,-0.21338 -1.81131,-0.28101 -2.46634,-0.49585c-1.15125,-0.37759 -1.4946,-0.90723 -2.00702,-1.5975c-0.68033,-0.91644 -1.36267,-1.44345 -2.14532,-1.85464c-0.52731,-0.27704 -1.53827,-0.85806 -2.19382,-1.38535c-0.62823,-0.50531 -1.45328,-1.06458 -2.14883,-1.58932c-0.74387,-0.56119 -1.03073,-1.58051 -1.29733,-2.23602c-0.28232,-0.69412 -0.56424,-1.69534 -0.57468,-2.71732c-0.00723,-0.70798 0,-1.452 0,-2.64301c0,-0.81433 0.00702,-1.73279 0.36166,-2.46249c0.33063,-0.68033 1.29022,-1.28665 2.04285,-1.34283c0.99411,-0.07422 1.83148,-0.00635 2.76215,-0.009c0.7905,-0.00226 1.65057,0.01389 2.83334,-0.16666c0.60306,-0.09207 1.4733,-0.35739 2.31467,-0.54935c0.99655,-0.22736 1.70599,-0.27206 2.45468,-0.28265c1.19986,-0.01697 1.89297,0.00787 2.616,-0.03735c1.45105,-0.09076 2.13077,-0.24161 2.77866,-0.38931c0.93362,-0.21283 2.13431,-0.46933 2.73151,-0.51752c0.86691,-0.06995 1.93784,-0.05716 2.65182,-0.05716c0.90533,0 1.8757,0.03259 2.68866,-0.02133c0.87155,-0.0578 1.77835,-0.27921 2.65952,-0.68399c0.59412,-0.27292 1.38861,-0.81403 2.41916,-1.12534c0.85562,-0.25845 1.69009,-0.32172 2.48532,-0.59467c0.80508,-0.27631 1.80002,-0.51752 2.60001,-0.57019l1,-0.00583l0.80002,-0.03467" id="svg_17" stroke-width="2" stroke="#000" fill="none"/>
  <path t="68958,69100,69100,69100,69115,69115,69115,69115,69132,69133,69150,69150,69150" d="m107,220c5.057,2.6355 6.12524,2.92137 6.77866,2.968c1.21866,0.08696 2.11684,0.032 2.7005,0.032c0.8355,0 2.06367,0.009 2.71017,0.07201l1.01051,0.37067l0.58949,0.40799l0.72533,0.58134" id="svg_18" stroke-width="2" stroke="#000" fill="none"/>
  <path t="69625,69765,69766,69766,69766,69766,69766,69766,69766,69766,69782,69783,69783,69783,69783,69783,69783,69783,69783,69799,69800,69800,69800,69800,69800,69800,69800,69801,69816,69816,69816,69817,69817,69817,69817,69818,69818,69859,69859,69859,69859,69859,69859,69859,69859,69859,69861,69861,69861,69861,69861,69861,69861,69861,69861,69905,69905,69905,69905,69906,69906,69906,69906,69906" d="m110,217c4.33334,-7.83333 4.84498,-8.80824 5.37733,-9.83733c0.56071,-1.08388 1.14742,-2.2283 1.7685,-3.4335c0.65489,-1.27081 1.34577,-2.61069 2.0835,-4.01851c1.59703,-3.04765 2.47417,-4.68468 3.4,-6.39066c0.96101,-1.77078 1.96526,-3.59048 3.0165,-5.44501c1.07263,-1.89224 2.17619,-3.80554 3.3315,-5.715c2.32631,-3.84479 3.55673,-5.7236 4.79599,-7.59334c1.24075,-1.87199 2.51447,-3.73051 3.81,-5.58749c1.30443,-1.86974 2.63779,-3.74324 3.99001,-5.63251c2.75551,-3.84988 4.16963,-5.81046 5.59467,-7.79866c1.43764,-2.00578 2.88266,-4.024 4.332,-6.048c1.44934,-2.024 2.89417,-4.04237 4.332,-6.048c2.83368,-3.95271 4.22264,-5.88853 5.59734,-7.79066c1.354,-1.8735 2.69347,-3.71451 4.02899,-5.5155c1.31523,-1.77362 2.6201,-3.51342 3.93901,-5.20049c2.57822,-3.29792 3.8942,-4.86465 5.19466,-6.396c1.27373,-1.49988 2.53989,-2.94498 3.783,-4.341c1.20502,-1.35323 2.38133,-2.64795 3.513,-3.891c2.11075,-2.31848 3.08458,-3.38754 4.00267,-4.408c0.87653,-0.97426 1.71466,-1.91467 2.526,-2.826l0.79132,-0.89133l0.77934,-0.87933l0.77533,-0.87534" id="svg_19" stroke-width="2" stroke="#000" fill="none"/>
  <path t="71357,71465,71465,71465,71466,71466,71466,71466,71482,71482,71482,71482,71482,71482,71483,71483,71483,71500,71500,71500,71500,71500,71500,71500,71500,71500,71514,71514,71515,71515,71515,71515,71515,71515,71515,71532,71532,71532,71532,71533,71533,71533,71533,71533,71549,71550,71550,71550,71550,71550,71550,71550,71550,71565,71566,71566,71566,71566,71566,71566,71566,71567,71584,71584,71584,71584,71584,71584,71584,71584,71584,71618,71619,71619,71619,71619,71619,71619,71619,71619,71621,71621,71621,71621,71621,71621,71621,71622,71622,71637,71637,71637,71638,71638,71638,71638,71638,71638,71654,71654,71654,71654,71654,71655,71655,71655,71655,71670,71670,71670,71670,71670,71670,71670,71671,71671,71710,71710,71710,71710,71710,71711,71711,71711,71711,71750,71750,71751,71751,71751,71751,71751,71751,71751,71815,71816,71816,71816,71816,71816,71817,71817,71817,71865,71866,71866,71866,71866,71866,71867,71867,71867,71915,71916,71916,71916,71916,71917,71917,71917,71917" d="m127,233c6.8145,-7.25734 7.26694,-7.82881 7.68483,-8.39467c0.40736,-0.55161 0.79405,-1.10555 1.1805,-1.65599c0.78474,-1.11777 1.63121,-2.28532 2.0995,-2.89317c0.49022,-0.63631 1.01552,-1.29312 1.5645,-1.98151c0.57469,-0.72061 1.1774,-1.47386 1.79851,-2.2695c0.6497,-0.83226 2.0097,-2.63544 2.71516,-3.61232c0.73204,-1.0137 1.47246,-2.06888 2.229,-3.1515c0.77081,-1.10304 1.54756,-2.22392 2.33699,-3.3495c0.79189,-1.12909 2.38831,-3.36049 3.19067,-4.44949c0.795,-1.07898 1.59489,-2.1434 2.379,-3.21301c0.78322,-1.06841 1.55917,-2.14526 2.30701,-3.24899c0.75365,-1.1123 2.19444,-3.43948 2.87199,-4.66684c0.69078,-1.25133 1.35149,-2.55293 2.013,-3.8895c0.67662,-1.36707 1.34962,-2.77582 2.049,-4.2135c0.71657,-1.47302 2.23842,-4.51503 3.06633,-6.07483c0.84659,-1.59502 1.73662,-3.20609 2.658,-4.83301c0.93321,-1.64781 1.89465,-3.30103 2.87401,-4.959c0.98332,-1.6647 2.98021,-4.97807 3.98199,-6.62233c0.99823,-1.63841 1.99956,-3.26894 3,-4.896c0.99956,-1.62561 2.00089,-3.25012 3,-4.87801c1.00089,-1.63078 3.0025,-4.91249 3.99916,-6.56783c0.99667,-1.65535 1.98186,-3.3076 2.94751,-4.95151c0.95265,-1.62178 1.8783,-3.21983 2.7675,-4.78949c0.86398,-1.52513 2.45898,-4.43509 3.17816,-5.80901c0.68587,-1.31027 1.32159,-2.57089 1.91699,-3.7815c0.56976,-1.1585 1.10281,-2.2753 1.61101,-3.3495c0.48909,-1.03383 1.41078,-2.99955 1.85817,-3.93349c0.43402,-0.90603 0.86063,-1.78185 1.28549,-2.625c0.41159,-0.81682 0.82008,-1.60286 1.23151,-2.355c0.3981,-0.72779 1.19923,-2.08834 1.60384,-2.72017c0.39027,-0.60943 0.78206,-1.18475 1.15799,-1.7355c0.35875,-0.52557 0.70341,-1.02223 1.01401,-1.5015c0.29182,-0.45029 0.7737,-1.28928 0.94283,-1.68466c0.15685,-0.36666 0.26945,-0.72233 0.35251,-1.0605c0.0782,-0.31844 0.12817,-0.6251 0.1725,-0.9165c0.04228,-0.27795 0.12212,-0.80077 0.18233,-1.04466c0.05862,-0.23752 0.13202,-0.46567 0.21451,-0.6855c0.08125,-0.21654 0.17285,-0.42617 0.26849,-0.6315c0.09503,-0.20401 0.2957,-0.6044 0.39534,-0.80434c0.09903,-0.19873 0.19652,-0.39525 0.28949,-0.58949c0.09068,-0.18944 0.17639,-0.37392 0.25351,-0.5535c0.07349,-0.17113 0.19354,-0.48959 0.23566,-0.63567c0.03903,-0.13538 0.06689,-0.26392 0.08551,-0.3855c0.01758,-0.11482 0.02678,-0.22526 0.03149,-0.3315c0.00458,-0.10311 0.0045,-0.3045 0.0045,-0.40466c0,-0.10117 0,-0.20433 0,-0.3105c0,-0.11017 0,-0.22533 0,-0.3465c0,-0.12817 0,-0.4095 0,-0.56417c0,-0.16267 0,-0.33133 0,-0.504c0,-0.17467 0,-0.34933 0,-0.522c0,-0.16866 0,-0.486 0,-0.63116c0,-0.13617 0,-0.26434 0,-0.3855c0,-0.11517 0,-0.22533 0,-0.3315l0,-0.10316" id="svg_20" stroke-width="2" stroke="#000" fill="none"/>
  <path t="73340,73465,73465,73465,73465,73465,73481,73482,73482,73482,73482,73482,73482,73498,73498,73498,73498,73498,73498,73498,73498,73498,73515,73515,73515,73515,73515,73515,73515,73515,73515,73531,73532,73532,73532,73532,73532,73532,73532,73533,73549,73549,73549,73549,73549,73549,73549,73550,73550,73565,73565,73565,73565,73565,73566,73566,73566,73566,73581,73582,73582,73582,73582,73582,73582,73583,73583,73599,73599,73599,73599,73600,73600,73600,73600,73600,73615,73615,73615,73616,73616,73616,73616,73616,73617,73631,73632,73632,73632,73632,73633,73633,73633,73633,73676,73676,73676,73676,73676,73676,73676,73676,73676,73678,73678,73678,73678,73678,73678,73678,73679,73679,73723,73723,73723,73723,73724,73724,73724,73724,73763,73763,73763,73764,73765,73766,73804,73804,73805,73861,73861,73864,73900,73900,73964,74005,74005,74005,74007,74007,74007,74007,74051,74051,74051,74052,74052,74052,74052,74068,74068,74068,74068,74069,74069,74069,74069,74069,74082,74082,74082,74082,74082,74082,74082,74083,74083,74101,74101,74101,74102,74102,74102,74102,74102,74102,74114,74114,74114,74114,74114,74114,74115,74115,74115,74131,74132,74132,74132,74133,74133,74133,74133,74134,74148,74149,74150,74150,74150,74150,74151,74151,74151,74164,74165,74165,74166,74166,74166,74167,74167,74167,74182,74182,74183,74183,74183,74183,74184,74184,74184,74198,74199,74199,74200,74200,74200,74201,74201,74201,74213,74214,74214,74214,74214,74215,74215,74215,74215,74231,74232,74232,74233,74233,74233,74233,74248,74249,74249,74250,74250,74250,74251,74251,74265,74265,74266,74266,74266,74267,74267,74281,74282,74283,74283,74283,74284,74284,74299,74299,74300,74300,74315,74316,74316,74316,74331,74332,74332,74348,74349,74365,74366,74381,74382,74398,74399,74431,74432" d="m91,223c-0.0005,-5.27884 0.01501,-6.15392 -0.0625,-7.02083c-0.07976,-0.89211 -0.13715,-1.3653 -0.60217,-2.82285c-0.17207,-0.53934 -0.65121,-1.67221 -0.91867,-2.28133c-0.28173,-0.64163 -0.5892,-1.31183 -0.906,-2.019c-0.68134,-1.52089 -1.03507,-2.3403 -1.39333,-3.19467c-0.36884,-0.87961 -0.73585,-1.78249 -1.0965,-2.703c-0.36338,-0.92749 -0.71869,-1.85922 -1.05151,-2.793c-0.65107,-1.82669 -0.93047,-2.72147 -1.20133,-3.59734c-0.26642,-0.86151 -0.51733,-1.71733 -0.768,-2.56799c-0.25066,-0.85066 -0.49915,-1.70724 -0.768,-2.56799c-0.55265,-1.76935 -0.8718,-2.67641 -1.20133,-3.60535c-0.33739,-0.95111 -0.69299,-1.91965 -1.05151,-2.90999c-0.3655,-1.00964 -0.73882,-2.03732 -1.0965,-3.09001c-0.73206,-2.1546 -1.06644,-3.26776 -1.39733,-4.39465c-0.3335,-1.13579 -0.65166,-2.28203 -0.9645,-3.43201c-0.31249,-1.14871 -0.61499,-2.29503 -0.9195,-3.43201c-0.59869,-2.23537 -0.8992,-3.32504 -1.2,-4.39333c-0.29491,-1.04738 -0.58961,-2.07097 -0.8805,-3.0705c-0.2838,-0.97514 -0.56365,-1.92368 -0.8355,-2.8455c-0.51864,-1.75868 -0.76379,-2.59439 -1.00134,-3.40401c-0.23112,-0.78772 -0.45728,-1.55774 -0.684,-2.31299c-0.22397,-0.74608 -0.44887,-1.48654 -0.684,-2.22301c-0.47501,-1.48781 -0.7359,-2.24066 -1,-3.004c-0.26721,-0.77234 -0.54211,-1.55038 -0.816,-2.33549c-0.27544,-0.78957 -0.55221,-1.58205 -0.816,-2.38051c-0.5271,-1.59547 -0.76489,-2.39767 -1,-3.196c-0.23354,-0.79301 -0.45731,-1.58173 -0.684,-2.36099c-0.224,-0.77005 -0.44435,-1.52998 -0.684,-2.27101c-0.46654,-1.44264 -0.73193,-2.12941 -0.99866,-2.79733c-0.2604,-0.65205 -0.53041,-1.28069 -0.7965,-1.89c-0.25795,-0.59067 -0.5152,-1.15817 -0.7515,-1.70999c-0.44392,-1.03665 -0.62877,-1.52922 -0.80133,-2c-0.16468,-0.44927 -0.31396,-0.88126 -0.468,-1.29c-0.14744,-0.39123 -0.29084,-0.76711 -0.468,-1.11c-0.33826,-0.65472 -0.56694,-0.93742 -0.80267,-1.204c-0.23581,-0.26666 -0.49794,-0.51186 -0.771,-0.7485c-0.27629,-0.23945 -0.56817,-0.46796 -0.861,-0.7035c-0.59906,-0.48186 -0.89903,-0.73711 -1.19867,-1.00267c-0.30473,-0.27008 -0.60925,-0.55076 -0.9195,-0.8355c-0.63616,-0.58385 -0.95016,-0.89731 -2.00017,-1.77866c-0.71311,-0.59857 -1.42614,-1.15376 -2.112,-1.629c-0.85353,-0.59143 -1.65421,-1.01741 -2.56833,-1.0715c-0.68281,-0.04041 -1.624,0 -2.632,0c-0.86217,0 -1.6875,0 -2.65067,0c-0.86333,0 -1.99363,-0.15582 -2.3945,0.6645c-0.28502,0.58324 -0.11925,1.449 -0.1215,2.63583c-0.00116,0.60867 0,1.57167 0,2.27033c0,1.17484 0,2.11117 0,2.66134c0,0.62216 0,1.32933 0,2.1345c0,0.91617 0,3.1335 0,4.45366c0,1.44118 0,2.97433 0,4.57051c0,1.63016 0,3.26534 0,4.8765c0,1.55817 -0.00056,4.39951 0.00017,5.632c0.00066,1.1075 0.00184,2.10501 0.0105,3.00749c0.00789,0.82254 0.02111,1.58014 0.0465,2.28751c0.02415,0.67265 0.10498,1.9729 0.1645,2.62733c0.06041,0.66426 0.13549,1.33624 0.225,2.0145c0.09045,0.68544 0.19541,1.37544 0.315,2.0685c0.12038,0.69765 0.40109,2.09637 0.55967,2.79533c0.15876,0.69974 0.32991,1.39603 0.504,2.08951c0.17326,0.69019 0.35039,1.3744 0.522,2.0535c0.16971,0.67157 0.48948,1.98972 0.63117,2.63583c0.1396,0.63658 0.26705,1.26814 0.3855,1.896c0.11788,0.62483 0.22711,1.25037 0.3315,1.87801c0.10496,0.63104 0.3042,1.91405 0.40483,2.56883c0.10203,0.66388 0.20529,1.33623 0.321,2.0145c0.11693,0.68542 0.2443,1.37601 0.393,2.0685c0.14993,0.69824 0.51157,2.09776 0.72833,2.79533c0.21789,0.70119 0.46025,1.39653 0.708,2.08951c0.24693,0.6907 0.50112,1.37378 0.744,2.0535c0.23976,0.67097 0.67887,1.98851 0.8625,2.63583c0.18026,0.63545 0.33659,1.26782 0.4815,1.896c0.14407,0.62453 0.27593,1.25069 0.4095,1.87801c0.13443,0.63135 0.41541,1.91473 0.57333,2.569c0.16069,0.66576 0.33411,1.34041 0.5145,2.02499c0.18325,0.69542 0.37453,1.40004 0.5685,2.11501c0.1967,0.72502 0.59624,2.2048 0.7955,2.95934c0.20074,0.76013 0.39925,1.52286 0.6,2.28299c0.19926,0.75453 0.39766,1.49931 0.6,2.229c0.19771,0.71298 0.59629,2.06818 0.8,2.70284c0.19643,0.612 0.59921,1.77777 0.8,2.34334c0.19921,0.5611 0.60773,1.68488 1,2.85416c0.20403,0.60817 0.40374,1.23485 0.8,2.528c0.20191,0.65892 0.39986,1.32405 0.6,1.99051c0.19986,0.66554 0.5987,1.98189 0.99866,3.26283c0.1962,0.62836 0.39337,1.2485 0.5805,1.8645c0.36901,1.21472 0.5486,1.81609 0.85416,3.02083c0.15169,0.59805 0.41162,1.79057 0.53067,2.37866c0.11726,0.57925 0.3295,1.70738 0.43467,2.25067c0.29587,1.52843 0.496,2.44987 0.612,2.87733c0.31958,1.17764 0.73066,2.17503 1.07333,2.724c0.4814,0.77121 1.07629,1.42606 1.49433,2.19051c0.42108,0.77002 0.74155,1.55072 0.93633,2.61082c0.14051,0.76474 0.05094,1.73784 0.10617,2.468c0.08868,1.17241 0.4045,1.83867 0.8125,2.66667l0.16666,0.83333l0.22134,0.9785l0.42599,0.717" id="svg_21" stroke-width="2" stroke="#000" fill="none"/>
  <path t="76623,76880,76880,76880,76897,76897,76897,76913,76913,76913,76913,76913,76913,76930,76931,76931,76931,76931,76931,76947,76947,76947,76947,76947,76947,76947,76947,76964,76964,76964,76964,76964,76964,76964,76964,76965,76980,76980,76981,76981,76981,76981,76981,76981,76981,76996,76997,76997,76997,76997,76997,76998,76998,76998,77014,77014,77014,77014,77014,77014,77014,77015,77015,77029,77029,77029,77029,77029,77029,77029,77029,77029,77046,77047,77047,77047,77047,77047,77048,77048,77048,77094,77094,77094,77094,77094,77094,77094,77094,77095,77096,77096,77096,77096,77096,77097,77097,77097,77097,77098,77098,77099,77099,77099,77099,77099,77099,77099,77145,77145,77146,77146,77146,77146,77146,77146,77146,77148,77148,77148,77148,77148,77148,77148,77148,77148,77150,77151,77151,77151,77151,77151,77151,77151,77151,77193,77193,77193,77193,77193,77193,77193,77194,77194,77296,77297,77297,77297,77364,77413,77414,77414,77430,77430,77446,77464,77464,77496,77497,77513,77514,77530,77546,77547,77563,77680,77697,77713,77714,77714,77730,77730,77730,77731,77747,77747,77748,77748,77748,77749,77763,77764,77765,77765,77765,77765,77780,77780,77780,77781,77781,77781,77782,77782,77782,77796,77797,77797,77798,77798,77798,77798,77799,77813,77814,77814,77814,77815,77815,77815,77815,77830,77830,77831,77831,77831,77831,77832,77832,77846,77847,77847,77848,77848,77848,77848,77863,77864,77864,77865,77865,77865,77866,77866,77879,77879,77879,77879,77880,77880,77880,77880,77896,77896,77896,77897,77897,77897,77897,77897,77931,77931,77931,77931,77932,77932,77932,77947,77947,77947,77947,77948,77948,77951,77951,77951,77951,77952,77952,77952,77966,77966,77966,77967,77967,77967,77980,77981,77981,77981,77981,77981,77982,77996,77997,77998,77998,77998,78013,78014,78015,78015,78015,78016,78016,78032,78032,78032,78033,78033,78048,78048,78048,78048,78063,78064,78064,78064,78079,78080,78080,78080,78080,78096,78096,78097,78097,78097,78113,78113,78113,78130,78130,78131,78148,78180,78181,78246,78247,78296" d="m82,269c1.5285,2.95715 1.45969,3.52722 1.196,4.40134c-0.27333,0.90604 -0.59619,1.8132 -0.832,2.43466c-0.50822,1.33939 -0.84703,2.05307 -1.03017,2.42566c-0.38593,0.78519 -0.84403,1.60526 -1.10583,2.02499c-0.84353,1.35236 -1.19115,1.80426 -1.89999,2.74936c-0.36581,0.48773 -0.74762,0.97601 -1.137,1.46848c-1.18578,1.49966 -1.59344,1.99472 -1.99233,2.50351c-0.40549,0.51721 -1.22569,1.6127 -1.63467,2.20801c-0.4277,0.62256 -0.87376,1.2818 -1.73067,2.784c-0.46848,0.82129 -0.92382,1.70871 -1.395,2.63849c-0.48897,0.96484 -0.97955,1.96588 -1.485,2.9895c-0.51455,1.04205 -1.02412,2.10287 -2.12,4.20535c-0.5471,1.04965 -1.11598,2.08624 -1.695,3.1185c-0.58097,1.03574 -1.17802,2.07016 -1.785,3.1095c-0.613,1.04965 -1.2412,2.1073 -2.52,4.272c-0.65511,1.10895 -1.31737,2.23386 -1.9815,3.37198c-0.66788,1.14456 -1.33317,2.29343 -1.9905,3.444c-0.65366,1.14413 -1.30193,2.27722 -2.528,4.51733c-0.59533,1.08771 -1.16542,2.16193 -1.7235,3.21902c-0.5499,1.0416 -1.08813,2.07312 -1.6245,3.09299c-0.53264,1.01279 -1.05771,2.02429 -2.152,4.02133c-0.54951,1.00284 -1.11582,2.00085 -1.686,3c-0.57116,1.00085 -1.14809,1.99957 -1.722,3c-0.57342,0.99957 -1.15176,1.9942 -2.25867,4c-0.5502,0.99701 -1.08331,1.99692 -1.605,2.99551c-0.5183,0.9921 -1.02282,1.98224 -1.515,2.96848c-0.4878,0.97745 -0.96661,1.94754 -1.88,3.86935c-0.44825,0.94315 -0.88109,1.8768 -1.305,2.79599c-0.41607,0.90219 -0.81997,1.78732 -1.215,2.65201c-0.38498,0.84265 -0.7559,1.66321 -1.48,3.21866c-0.34289,0.73657 -0.68061,1.44443 -1.0005,2.133c-0.31072,0.66879 -0.60941,1.32288 -0.8835,1.97101c-0.2695,0.63727 -0.53997,1.2677 -0.94933,2.56265c-0.20548,0.65002 -0.36923,1.31506 -0.528,1.98151c-0.15857,0.66559 -0.30253,1.33163 -0.456,1.99051c-0.1519,0.65213 -0.28453,1.30215 -0.68267,2.52798c-0.19337,0.59537 -0.42746,1.16254 -0.6675,1.71002c-0.23348,0.53253 -0.47852,1.03989 -0.7125,1.53c-0.22434,0.46991 -0.46014,0.90921 -0.78667,1.75998c-0.14796,0.38553 -0.25189,0.75842 -0.333,1.11002c-0.07582,0.32861 -0.12683,0.63974 -0.171,0.92999c-0.04106,0.26978 -0.05809,0.52417 -0.16267,0.95999c-0.04625,0.19275 -0.11349,0.36572 -0.186,0.5235c-0.06904,0.15021 -0.14769,0.28882 -0.222,0.4245c-0.07302,0.13333 -0.15678,0.26212 -0.25867,0.552c-0.05342,0.15201 -0.08501,0.31677 -0.1095,0.48602c-0.02492,0.17218 -0.03829,0.34723 -0.0465,0.52197c-0.0081,0.17258 -0.01,0.34134 -0.01067,0.65869c-0.00031,0.14514 -0.00009,0.28131 0,0.40948c0.00067,0.9585 0.11324,1.94919 0.44667,2.58252c0.38148,0.72461 1.17042,1.48239 1.90067,1.81299c0.86167,0.39008 1.7704,0.26117 2.538,0.44699c0.97878,0.23694 1.68061,0.75504 2.22933,1.39734c0.52596,0.61563 1.18498,1.44891 2.052,1.51733c0.81025,0.06393 1.47404,0.97772 2.33333,0.95834c0.70755,-0.01596 0.48519,-1.50171 0.51067,-2.23035c0.02929,-0.8378 0.19053,-2.0336 0.3555,-2.63699c0.17469,-0.63898 0.59202,-1.6684 0.96717,-2.42435c0.41937,-0.84509 0.92094,-1.73676 1.16667,-2.20831c0.50207,-0.96353 0.77841,-1.44244 1.35733,-2.95883c0.19009,-0.49789 0.34456,-1.01093 0.64267,-2.06201c0.15442,-0.54446 0.45535,-1.6973 0.83333,-2.9375c0.20306,-0.66626 0.43356,-1.35513 0.6855,-2.0625c0.2586,-0.72604 0.53768,-1.46075 0.8385,-2.19751c0.30283,-0.74164 0.60756,-1.4845 1.30933,-2.90665c0.34344,-0.69598 0.71277,-1.36526 1.086,-2.01901c0.36818,-0.64493 1.12213,-1.89294 1.49467,-2.50534c0.36879,-0.60626 1.09001,-1.8067 1.431,-2.40915c0.339,-0.59891 0.67478,-1.19693 1.28,-2.42068c0.30243,-0.61151 0.58854,-1.23267 0.855,-1.8645c0.53732,-1.27414 0.7725,-1.93332 1.234,-3.26282c0.23093,-0.66525 0.45052,-1.33173 0.678,-1.99051c0.22521,-0.65222 0.41625,-1.30969 1.19617,-3.11865c0.25035,-0.58069 0.53148,-1.13947 0.8145,-1.69202c0.56631,-1.10565 0.87157,-1.65439 1.16533,-2.21866c0.605,-1.16208 1.20089,-2.40091 1.50317,-3.04184c0.30707,-0.65106 0.61429,-1.31198 0.9315,-1.97549c0.31911,-0.66748 0.6332,-1.34048 1.33067,-2.64801c0.34653,-0.64963 0.7149,-1.28329 1.0815,-1.914c0.72882,-1.25394 1.09557,-1.87518 1.442,-2.50531c0.34558,-0.62857 0.9845,-1.91049 1.26717,-2.56851c0.28271,-0.65811 0.53709,-1.32709 1.04266,-2.65799c0.25055,-0.65955 0.49264,-1.31635 0.768,-1.95151c0.54063,-1.24701 0.84978,-1.8414 1.54183,-2.9505c0.33939,-0.54391 0.70554,-1.06033 1.0755,-1.56149c0.72141,-0.97723 1.45397,-1.88614 2.12801,-2.77469c0.32791,-0.43228 0.9533,-1.29803 1.24,-1.74399c0.5769,-0.89734 1.08893,-1.8678 1.32533,-2.3815c0.48721,-1.05865 0.6966,-1.61826 0.92133,-2.17801c0.45388,-1.13049 0.66231,-1.70615 1.16666,-2.8125c0.49747,-1.09125 0.78542,-1.61224 1.06934,-2.13065c0.56461,-1.03091 0.86612,-1.53296 1.764,-3.03601c0.29887,-0.50034 0.60323,-0.99521 1.17867,-1.98932c0.28258,-0.48816 0.81774,-1.44812 1.05067,-1.92535c0.65871,-1.34961 0.81101,-1.79965 1.12,-2.67065c0.30973,-0.87308 0.6011,-1.79083 0.984,-2.74802c0.41701,-1.04245 0.674,-1.57315 0.92799,-2.11731c0.25698,-0.55054 0.78941,-1.64456 1.05601,-2.18134c0.75807,-1.52637 0.99377,-1.9978 1.44666,-2.88535c0.42202,-0.82703 0.61686,-1.22467 1.236,-2.31601c0.38953,-0.68661 0.80772,-1.31998 1.34283,-2.26215c0.50816,-0.89471 0.79478,-1.49707 1.13633,-2.42535c0.23207,-0.63077 0.61406,-2.00272 0.82983,-2.73633c0.22527,-0.7659 0.49155,-1.55304 0.66167,-1.94415c0.52972,-1.2178 1.03005,-1.9971 1.52934,-2.77783c0.24706,-0.38632 0.77197,-1.11301 1.35683,-2.19919c0.34864,-0.64749 0.73762,-1.56235 0.9765,-2.655c0.15174,-0.69406 0.29778,-1.64883 1.01733,-2.116c0.86568,-0.56201 1.16399,-1.23599 1.43333,-2.16531l0.43201,-0.68402l0.27333,-0.83731" id="svg_22" stroke-width="2" stroke="#000" fill="none"/>
  <path t="81058,81224,81224,81224,81224,81224,81240,81241,81241,81241,81241,81241,81241,81241,81241,81257,81258,81258,81258,81258,81258,81258,81258,81258,81275,81275,81275,81276,81276,81276,81276,81276,81276,81290,81291,81291,81291,81291,81291,81291,81291,81291,81307,81308,81308,81308,81308,81308,81309,81309,81309,81323,81323,81323,81323,81323,81323,81323,81324,81340,81341,81341,81341,81341,81341,81357,81358,81358,81374,81374,81375" d="m200,238c3.7435,0 4.62784,0 5.60417,0c0.52516,0 1.6545,-0.00015 2.89583,0c0.66451,0.00009 1.356,-0.00008 2.0715,0.0045c0.73651,0.00471 1.49106,0.01349 2.2605,0.03149c0.78157,0.01828 1.5728,0.03503 3.168,0.13068c0.80046,0.04799 1.60066,0.1149 2.39999,0.19949c0.8007,0.08475 1.60121,0.18854 2.40001,0.3165c0.8013,0.12836 1.60632,0.26233 3.2,0.65067c0.80344,0.19577 1.6011,0.43102 2.39999,0.67201c0.80112,0.24167 1.59944,0.49649 2.40001,0.74399c0.79944,0.24716 1.59337,0.50781 3.2,0.91734c0.79709,0.20319 1.60051,0.36946 2.4045,0.528c0.80536,0.15881 1.61659,0.30394 2.4315,0.45599c0.82143,0.15326 1.6543,0.2952 3.33067,0.68266c0.85684,0.19804 1.71455,0.43031 2.57249,0.67201c0.85541,0.24098 1.69862,0.49371 2.5275,0.74399c0.80945,0.24442 1.59023,0.49338 3.06667,0.91734c0.67943,0.1951 1.32538,0.36665 1.9425,0.5145c0.58965,0.14127 1.1586,0.27443 2.26334,0.45267c0.53947,0.08704 2.18153,0.24698 2.74083,0.28349c0.55905,0.03648 1.6582,0.09508 2.18668,0.14401c0.9949,0.09213 2.26437,0.34224 2.90915,0.644c0.84259,0.39433 1.79083,0.96133 2.56784,1.18483l0.759,0.1245" id="svg_23" stroke-width="2" stroke="#000" fill="none"/>
  <path t="81743,82073,82090,82091,82107,82157,82157,82174,82191,82208,82209,82209,82209,82224,82224,82224,82224,82240,82240,82240,82257,82258,82258,82258,82258,82258,82258,82273,82274,82274,82274,82274,82274,82290,82290,82290,82291,82291,82291,82291,82307,82308,82308,82308,82308,82308,82308,82323,82324,82324,82324,82324,82324,82340,82341,82341,82341,82341,82341,82357,82358,82358,82358,82358,82373,82374,82374,82374,82390,82390,82391,82391,82391,82407,82408,82408,82408,82423,82424,82457,82458,82458,82490,82491,82740,82740,82757,82773,82790,82807,82807,82823,82824,82840,82841,82841,82857" d="m205,239c-4.71417,2.24283 -5,3.10017 -5,3.88533c0,0.94 -0.01395,1.94812 0,2.70401c0.01801,0.97516 0.70006,1.43494 1.54317,1.85333c0.75655,0.37544 1.29559,0.75243 1.94484,0.98933c1.36263,0.49724 2.12642,0.50905 2.85066,0.58266c0.69177,0.0703 1.89886,0.26534 2.72383,0.50616c0.61551,0.17969 1.76846,0.49133 2.76151,0.67784c0.55159,0.10361 1.13324,0.20091 2.35733,0.36533c0.62614,0.08409 1.25333,0.1655 2.48534,0.26933c1.1629,0.09801 1.72394,0.11185 2.8125,0.1875c0.53574,0.03723 1.60869,0.11726 2.6875,0.3125c1.12502,0.2036 1.6915,0.37271 2.26933,0.528c1.17677,0.31627 1.76746,0.49431 2.36533,0.65601c1.19662,0.32362 2.39796,0.60069 2.99867,0.72549c0.5993,0.12451 1.79974,0.34796 2.39999,0.45267c0.59976,0.10461 2.3997,0.40515 2.99867,0.50317c0.59669,0.09764 1.78014,0.28304 2.36533,0.36533c0.57849,0.08134 2.26901,0.2733 2.81433,0.31483c1.05945,0.0807 1.57655,0.08844 2.57501,0.18251c0.96179,0.09061 1.88756,0.24519 2.76132,0.50665c0.85757,0.25661 1.66505,0.6105 2.48401,0.86401c1.1889,0.36801 2.00029,0.46808 2.80133,0.54715c0.79909,0.07889 2.00076,0.18213 2.39999,0.24219c0.8017,0.12057 1.59799,0.29001 2.40001,0.42599c1.19725,0.203 1.99507,0.28604 3.1375,0.33182c0.69064,0.02768 1.79834,0.02078 2.54166,0.02084c1.06351,0.00009 1.77725,-0.04611 2.5155,0.05716c1.05032,0.14691 1.86761,0.74551 2.65802,0.88568c0.85184,0.15106 2.10263,0.12881 2.33664,-0.5535c0.29529,-0.86102 -0.03769,-1.87875 0.04669,-2.60001c0.11697,-0.99973 0.46399,-1.78934 0.79733,-2.78934l0.13065,-0.78934l0.03467,-0.72533l0.043,-0.96451" id="svg_24" stroke-width="2" stroke="#000" fill="none"/>
 </g>
 <g display="none">
  <title>muse_image</title>
  <image xlink:href="http://farm1.static.flickr.com/34/73548780_045db11599.jpg" id="muse" height="480" width="640" y="0" x="0"/>
 </g>
 <g display="none">
  <title>bbox</title>
  <rect stroke="#f00" fill="none" stroke-width="3" height="337.92" width="568.32" y="49.92" x="71.68" id="bbox"/>
 </g>
</svg>
