<svg width="640" height="480" xmlns="http://www.w3.org/2000/svg" xmlns:svg="http://www.w3.org/2000/svg" xmlns:xlink="http://www.w3.org/1999/xlink">
 <!-- Sketchy ANNOTATION
  ImageNet ID: n02691156_10535
  URL: http://farm3.static.flickr.com/2144/2230003421_45623b4388.jpg
  Image Width: 500
  Image Height: 400
  BBox X: 79
  BBox Y: 162
  BBox Width: 312
  BBox Height: 127
  Exposure: 2000ms
  Synset Label: airplane
  Synset ID: n02691156
  Worker Tag: an airplane
  Sanity Check: 
   Context
   Saved
   Shading
  Comment: 
   {}
  Worker ID: A1R959DUXT5S4I
  Assignment ID: 3137ONMDKG51EFK3E5RHVF165U8GE4
  HIT ID: 3TTPFEFXCTK9ECO52RLZF7Q922RH6E
  Work Time: 109s
  Worker Score: 0.9286
 END ANNOTATION -->
 <g display="inline">
  <title>Layer 1</title>
  <path t="0,167,178,193,194,210,210,210,227,228,228,243,243,243,243,243,244,260,260,272,272,273,293,293,293,310,311,311,327,328,343,343,360,360,360,360,375,375,375,393,393,393,410,410,410,429,429,429,443,443,443,455,455,455,455,474,475,494,494,514,515,515,528,528,528,544,544,544,544,565,565,565,565,575,575,575,593,594,611,611,623,624,643,643,643,660,660,660,674,675,675,693,693,693,693,693,693,694,710,711,711,711,727,727,727,727,727,744,745,745,760,760,760,760,776,777,777,777,777,793,793,793,793,810,810,810,810,827,827,828,828,828,839,840,840,840,840,860,860,860,860,860,861,878,879,879,879,879,879,888,889,889,889,889,889,889,910,911,911,911,911,922,922,922,922,943,944,944,944,944,960,960,960,961,977,977,977,978,989,990,990,990,1010,1010,1010,1010,1028,1029,1029,1029,1044,1044,1044,1045,1060,1060,1061,1077,1078,1079,1079,1090,1091,1091,1091,1091,1110,1111,1111,1111,1112,1128,1129,1129,1143,1144,1144,1160,1160,1160,1177,1178,1178,1191,1212,1213,1213,1230,1231,1231,1243,1243,1244,1260,1260,1277,1278,1279,1291,1292,1292,1310,1311,1328,1328,1343,1343,1360,1378,1388,1410,1410,1411,1429,1429,1443,1444" d="m168.50346,193.88889c1.8,0 2.64903,0.00491 3.48534,-0.284c0.73857,-0.25514 1.71104,-0.63264 2.53551,-0.69518c0.66287,-0.05028 1.66888,-0.00847 2.5625,-0.04166c0.69313,-0.02574 1.91748,-0.13939 2.866,-0.26317c0.50012,-0.06526 1.50905,-0.21567 2.47833,-0.36334c0.44969,-0.06851 1.85338,-0.23506 2.69099,-0.37799c0.93126,-0.15891 1.63713,-0.42079 2.43317,-0.62201c1.0206,-0.25798 1.96883,-0.34102 2.7175,-0.35133c0.87309,-0.01204 1.87067,-0.00133 2.54401,-0.00133c1.18666,0 1.98933,0 3.00833,0c0.72,0 1.845,0 2.6355,0c0.56367,0 1.44417,0 2.64284,0c0.59999,0 1.5,0 2.69983,0c0.8895,0 1.46417,0 2.53351,0c0.94133,0 1.61932,0 2.85199,0c0.55067,0 1.41917,0 2.61467,0c0.60001,0 1.5,0 2.7,0c0.59866,0 1.47917,0 2.31467,0c1.22816,0 1.87466,0 2.8855,0c0.82068,0 1.96651,0 2.7525,0c0.82201,0 1.88068,0 2.59917,0c0.7095,0 1.78151,0 2.758,0c0.71101,0 1.442,0 2.52351,0c1.00949,0 1.64583,0 2.56532,0c0.90117,0 1.79066,0 2.64417,0c1.03551,0 1.91551,0 2.93584,0c0.774,0 1.6868,0.03688 2.483,-0.05717c0.96689,-0.11421 1.75906,-0.386 2.58566,-0.59016c1.02609,-0.25343 1.72685,-0.33339 2.63667,-0.35133c1.00647,-0.01984 1.59467,-0.00133 2.64917,-0.00133c1.3335,0 1.85216,0 2.40283,0c1.16533,0 1.76399,0 2.36266,0c1.16534,0 2.23468,0 3.16267,0c0.81601,0 1.935,0 3.07199,0c0.83334,0 1.26752,0 2.14584,0c0.85834,0 2.02084,0 2.95834,0c0.80249,0 1.89581,0 2.53314,0c1.07101,0 1.83835,0 3.02936,0c0.79999,0 1.59998,0 2.39999,0c0.79999,0 1.99982,0 2.7955,0c0.78366,0 1.54733,0 2.63782,0c0.68402,0 1.6875,0 2.3765,0c1.1235,0 1.9595,0 2.8515,0c0.92401,0 1.3905,0 2.772,0c0.88266,0 1.74133,0 2.59201,0c0.42734,0 1.74133,0 2.66132,0c0.96002,0 1.45502,0 2.47501,0c0.52499,0 2.16,0 2.72501,0c0.57501,0 1.755,0 2.36002,0c0.61499,0 2.51999,0 3.17416,0c0.65915,0 1.31833,0 2.61667,0c0.62915,0 1.23831,0 2.89581,0c0.48083,0 1.3425,0 2.46002,0c0.68665,0 1.72815,0 2.46381,0c0.76367,0 1.54733,0 2.74286,0c0.79999,0 1.59998,0 2.39999,0c0.79999,0 2,0 2.79999,0c0.80002,0 1.60001,0 2.80002,0c0.79865,0 1.58932,0 2.74283,0c1.09048,0 1.77316,0 2.43182,0c0.978,0 1.99203,-0.0056 2.70935,0.00133c1.11612,0.01079 1.86795,0.01685 2.94931,0.16534c0.68515,0.09409 1.64844,0.34569 2.26218,0.53783c1.20981,0.37874 1.79883,0.61082 2.7045,0.8595c0.59656,0.1638 1.79877,0.37064 2.70001,0.41518c0.59946,0.02962 1.80032,0.02083 2.72131,0.02083c0.65067,0 1.34933,0 2.52167,0c0.87134,0 1.79868,0 2.27835,0c0.98132,0 2.47815,0 2.97467,0c0.97198,0 1.896,0 2.74799,0c1.09167,0 1.95868,0 2.69968,0c0.97781,0 1.79233,0 2.66083,0c0.89551,0 1.79099,0 2.65948,0c1.06934,0 1.77435,0 2.74936,0c0.86133,0 1.80847,0 2.54916,0c0.70947,0 1.90549,0 2.58817,0c1.04398,0 2.01599,0 2.83499,0c0.90533,0 1.91434,0 2.71432,0c1.00034,0 1.62134,0 2.57068,0c0.87183,0 1.86932,0 2.54266,0c1.18668,0 1.98932,0 3.008,0c0.67868,0 1.65717,0 2.47733,0c0.90134,0 1.80133,0 2.74301,0c1.00116,0 1.71967,0 2.51016,0c1.02649,0 1.90649,0 2.92667,0l0.71701,0" id="svg_1" stroke-width="2" stroke="#000" fill="none"/>
  <path t="2175,2263,2277,2278,2295,2311,2312,2329,2329,2329,2329,2344,2344,2344,2344,2361,2361,2361,2361,2372,2372,2372,2372,2373,2394,2394,2412,2412,2412,2412,2429,2430,2430,2430,2444,2444,2444,2444,2444,2462,2463,2463,2472,2472,2472,2472,2472,2496,2496,2496,2496,2496,2496,2512,2513,2513,2513,2531,2531,2531,2531,2531,2561,2562,2562,2562,2562,2562,2598,2599,2599,2599,2599,2599,2599,2599,2599,2616,2616,2616,2617,2617,2617,2617,2617,2617,2648,2648,2649,2649,2649,2649,2649,2649,2649,2656,2657,2657,2657,2657,2657,2657,2657,2657,2698,2699,2699,2699,2699,2699,2699,2699,2700,2733,2733,2733,2733,2734,2734,2734,2734,2765,2766,2766,2766,2798,2798,2816,2839,2840,2881,2903,2913,2959,2973,3001,3031,3048,3066,3088,3089,3132,3132,3132,3133,3165,3166,3166,3167,3167,3167,3198,3199,3199,3199,3199,3201,3201,3219,3219,3219,3219,3220,3220,3220,3248,3249,3249,3250,3250,3250,3250,3283,3283,3284,3284,3284,3284,3302,3303,3303,3303,3304,3304,3304,3305,3305,3313,3313,3313,3314,3314,3314,3314,3314,3314,3345,3345,3346,3346,3346,3346,3346,3347,3347,3365,3365,3365,3365,3365,3366,3366,3366,3366,3375,3376,3376,3377,3377,3377,3378,3378,3378,3401,3402,3402,3403,3403,3403,3404,3404,3404,3423,3424,3424,3424,3424,3425,3425,3425,3425,3438,3439,3439,3439,3440,3440,3440,3440,3440,3453,3453,3453,3453,3454,3454,3454,3454,3647,3647,3666,3685,3686,3687,3703,3722,3723,3723,3751,3751,3752,3752,3753,3753,3753,3769,3770,3770,3771,3771,3772,3788,3788,3788,3789,3789,3789,3789,3805,3805,3805,3806,3808,3808,3808,3809,3809,3834,3835,3835,3836,3836,3837,3849,3849,3849,3850,3878,3879,3879,3879,3880,3880,3880,3899,3900,3901,3902,3903,3903,3903,3904,3904,3915,3915,3915,3916,3916,3916,3917,3917,3917,3938,3939,3940,3941,3941,3942,3967,3968,3969,3969,3969,3970,3970,3970,3985,3985,3985,3986,3986,3986,3986,3995,3995,3995,3996,3996,3996,3997,4016,4016,4017,4017,4047,4047,4047,4048,4048,4048,4067,4068,4069,4069,4086,4087,4104,4105,4106,4114,4115,4115,4133,4133,4164,4165,4174,4175,4192,4192,4211,4232,4250,4287,4297,4298,4391,4431,4447,4466,4486,4487,4507,4507,4508,4525,4538,4538,4539,4540,4562,4562,4563,4572,4573,4573,4590,4590,4609,4610,4751,4751,5191,5209,5232,5250,5251,5257,5275,5276,5295,5295,5296,5314,5315,5315,5335,5336,5337,5338,5367,5368,5368,5369,5369,5370,5376,5377,5378,5379,5379,5417,5418,5418,5419,5420,5421,5421,5421,5445,5447,5447,5448,5448,5448,5449,5449,5450,5470,5471,5472,5473,5473,5499,5500,5501,5502,5503,5503,5509,5510,5511,5511,5511,5512,5512,5545,5546,5547,5547,5548,5566,5567,5568,5569,5569,5570,5570,5577,5578,5578,5579,5579,5608,5609,5609,5609,5610,5610,5628,5629,5630,5631,5632,5641,5642,5642,5643,5643,5669,5670,5671,5688,5689,5690,5700,5701,5719,5740,5760,5779,5779,5814,5815" d="m384.50348,250.88889c0,-1.82533 -0.17398,-2.86293 0.05716,-3.6955c0.21518,-0.77505 0.82867,-1.625 0.94284,-2.34618c0.17783,-1.12329 0.34988,-1.91766 0.52081,-2.47916c0.26913,-0.88406 0.5715,-1.78204 0.88983,-2.68983c0.21994,-0.62726 0.45947,-1.28127 1.07333,-2.67467c0.16461,-0.37366 0.52823,-1.1302 0.86334,-1.91917c0.50452,-1.18781 0.78058,-1.98849 1.00601,-2.77417c0.2139,-0.74547 0.39331,-1.44551 0.56265,-2.65199c0.10471,-0.7459 0.22421,-1.94301 0.44568,-2.7265c0.16095,-0.5694 0.5025,-1.4554 0.95966,-2.34317c0.48065,-0.9334 0.88104,-1.55879 1.19467,-2.27032c0.50815,-1.15279 0.60986,-1.5929 0.84799,-2.46933c0.23648,-0.87038 0.41,-1.71379 0.73584,-2.79601c0.26926,-0.89435 0.53055,-1.42726 0.73349,-2.664c0.12338,-0.75179 0.14163,-1.61865 0.16669,-2.08333c0.05325,-0.9873 0.16251,-2.58377 0.2215,-3.13751c0.05963,-0.55962 0.20892,-1.6734 0.29932,-2.21666c0.17307,-1.04015 0.46829,-2.39888 0.67786,-3.12517c0.18124,-0.62813 0.48669,-1.48326 0.63464,-2.43733c0.11633,-0.75021 0.13812,-1.59752 0.19202,-2.496c0.05536,-0.92287 0.12762,-1.83926 0.25998,-2.728c0.13657,-0.91689 0.24084,-1.4001 0.41919,-2.47166c0.09982,-0.59985 0.29865,-1.97061 0.39566,-2.75467c0.10458,-0.84526 0.20444,-1.74532 0.31049,-2.69099c0.11029,-0.98366 0.22272,-1.99765 0.3465,-3.033c0.12552,-1.04999 0.40411,-3.15981 0.56436,-4.20351c0.15848,-1.03233 0.33075,-2.0479 0.5145,-3.0435c0.18002,-0.97539 0.36996,-1.925 0.56848,-2.84549c0.19229,-0.89149 0.59152,-2.56754 0.7955,-3.34784c0.19617,-0.75035 0.39893,-1.47498 0.60001,-2.18399c0.19897,-0.70163 0.40207,-1.4021 0.60001,-2.112c0.20209,-0.72476 0.60425,-2.25499 0.79965,-3.07434c0.20206,-0.84729 0.39517,-1.71585 0.57901,-2.595c0.1835,-0.87753 0.35355,-1.74588 0.50699,-2.595c0.14774,-0.81761 0.38586,-2.32436 0.47168,-2.99649c0.07916,-0.61996 0.13815,-1.19893 0.19199,-1.74451c0.05145,-0.52142 0.09756,-1.02843 0.15601,-1.5285c0.05887,-0.50395 0.2222,-1.55666 0.33749,-2.11932c0.12048,-0.5881 0.26349,-1.19054 0.41852,-1.80151c0.15598,-0.61473 0.31723,-1.22459 0.65601,-2.39732c0.30981,-1.07246 0.5882,-1.99632 0.84665,-2.772c0.21768,-0.65327 0.75452,-1.81094 1.11517,-2.42366c0.48944,-0.83151 0.41708,-1.8744 0.54166,-2.52084c0.18344,-0.95204 0.65161,-1.51762 0.98984,-2.41016c0.27731,-0.73177 1.01413,-1.26753 1.84,-1.58534c0.87677,-0.3374 1.43863,-0.90816 2.24933,-1.0255c0.90585,-0.13112 1.5408,-0.67081 2.44351,-1.09984c0.73837,-0.35094 1.38181,-0.51529 2.11517,-0.7c1.29926,-0.32724 1.79639,-0.40495 2.84933,-0.59999c0.55402,-0.10262 1.70541,-0.30061 2.29599,-0.40001c1.1958,-0.20125 2.39575,-0.40013 2.996,-0.4955c0.59976,-0.09529 1.1987,-0.19353 2.39999,-0.34734c0.5994,-0.07675 1.79922,-0.20308 3.00134,-0.27184c0.60281,-0.03448 1.2092,-0.05591 2.43466,-0.07466c0.62112,-0.00951 1.24933,-0.00999 3.185,-0.01067c0.66034,-0.00023 1.32266,0 1.983,0c0.65433,0 1.92902,0 2.54132,0c1.15469,0 2.2067,0 3.21069,0c0.5065,0 1.57349,0 2.15198,0c1.29202,0 2.021,0 2.80402,0c0.83099,0 1.70398,0 2.61301,0c0.939,0 1.90198,0 2.883,0c1.992,0 2.99149,0 3.98801,0c0.99048,0 1.97198,0 2.9415,0c0.9545,0 1.89099,0 2.80649,0c1.75601,0 2.59332,-0.00168 3.41467,0.00267c0.81934,0.00433 1.65079,0.01434 2.508,0.039c0.89749,0.02582 1.84912,0.0648 2.86801,0.129c2.29984,0.14491 3.59964,0.26878 4.98398,0.39732c1.44299,0.13399 2.91742,0.28166 4.39801,0.43201c1.46075,0.14835 2.87512,0.29671 4.21799,0.43201c2.36499,0.23828 3.34357,0.32664 4.19202,0.39999c0.73825,0.06381 1.38687,0.11496 1.965,0.168c0.52853,0.04849 1.02774,0.09752 1.51498,0.168c1.02917,0.14886 1.60114,0.27184 2.21735,0.40134c0.6535,0.13734 1.33484,0.29124 2.03851,0.45149c0.71899,0.16374 1.44513,0.33327 2.17349,0.49651c1.42969,0.32042 2.12045,0.46454 2.79465,0.59599c0.65884,0.12846 1.30728,0.24452 1.94852,0.345c0.63483,0.09947 1.26813,0.18777 1.9035,0.255c1.28244,0.1357 1.93802,0.16833 2.59732,0.20267c0.65906,0.03433 1.31335,0.05836 1.95752,0.084c0.62915,0.02504 1.23877,0.04587 1.82251,0.084c1.07422,0.07016 1.5545,0.13144 1.99597,0.2c0.40717,0.06325 0.77948,0.13791 1.11902,0.216c0.31104,0.07153 0.58936,0.16032 1.29163,0.33333c0.96301,0.23723 1.328,0.84929 1.33337,1.70934c0.00592,0.95732 0,1.68933 0,2.79601c0,0.828 0,1.56133 0,2.40883c0,1.2525 0.00336,1.78085 -0.00452,2.97751c-0.00427,0.64835 -0.01337,1.31674 -0.03149,1.995c-0.01819,0.67842 -0.12122,2.61429 -0.18549,3.19434c-0.11835,1.06805 -0.20648,1.5645 -0.38916,2.515c-0.0899,0.46777 -0.39282,1.90334 -0.5907,2.94533c-0.10498,0.55281 -0.20801,1.12958 -0.43463,2.35468c-0.12048,0.65129 -0.24432,1.33034 -0.5307,2.77066c-0.15198,0.76422 -0.31604,1.54961 -0.48596,2.349c-0.17133,0.80594 -0.34637,1.60954 -0.52203,2.403c-0.17175,0.77588 -0.33899,1.52586 -0.65869,2.91467c-0.1441,0.6259 -0.40582,1.7439 -0.64581,2.70833c-0.10852,0.43608 -0.31488,1.23431 -0.72083,2.645c-0.19775,0.68732 -0.41229,1.41039 -0.59998,2.22c-0.21405,0.92352 -0.40283,2.00487 -0.5,2.60216c-0.10303,0.63336 -0.20642,1.3028 -0.40002,2.74733c-0.10339,0.77138 -0.30078,2.41042 -0.40015,3.27434c-0.10199,0.88675 -0.20251,1.78989 -0.31055,2.70151c-0.10834,0.91405 -0.22052,1.82332 -0.3465,2.7195c-0.12347,0.87849 -0.40167,2.55008 -0.56415,3.32883c-0.15521,0.74393 -0.32629,1.44998 -0.50397,2.121c-0.16992,0.64162 -0.3476,1.25121 -0.52203,1.83301c-0.16696,0.55684 -0.49377,1.59677 -0.76733,2.56699c-0.13193,0.46796 -0.37503,1.40474 -0.58084,2.38501c-0.10873,0.51785 -0.31094,1.64601 -0.50449,2.91899c-0.10345,0.68048 -0.20068,1.38391 -0.29999,2.10301c-0.10068,0.7289 -0.19901,1.46213 -0.30002,2.19299c-0.198,1.43228 -0.39917,2.79613 -0.5,3.45551c-0.09918,0.64862 -0.19986,1.28902 -0.29999,1.9245c-0.19977,1.26802 -0.4003,2.55196 -0.5,3.20599c-0.10031,0.65796 -0.2984,1.96227 -0.39999,2.59601c-0.09845,0.61424 -0.27972,1.76231 -0.5,2.75c-0.18198,0.8159 -0.50363,1.80663 -0.64285,2.4395c-0.23148,1.05231 -0.27823,1.93088 -0.33182,2.90582c-0.02795,0.5087 -0.06879,1.53516 -0.10934,2.03734c-0.11209,1.38829 -0.23712,2.18442 -0.52667,3.18266c-0.16974,0.58514 -0.63547,1.56633 -0.95334,2.49333c-0.3176,0.92618 -0.39792,1.72649 -0.42532,2.54935c-0.03525,1.05812 -0.01007,1.76816 -0.01065,2.62082c-0.00067,1.00317 0.08417,1.80823 -0.28403,2.7205c-0.3298,0.81711 -0.69681,1.71942 -0.71466,2.48534c-0.02316,0.9939 -0.00131,1.7415 -0.00131,2.76266c0,0.936 0.19012,1.85638 -0.00034,2.73584c-0.1705,0.78729 -1.44,0.60327 -1.92767,1.33617c-0.47803,0.7184 -0.45786,1.58714 -1.09283,2.064c-0.66098,0.4964 -1.44556,0.47977 -2.40085,0.50049c-0.82538,0.01791 -1.76563,0.10104 -2.745,0.49951c-0.73901,0.30069 -1.44702,0.77759 -2.172,1.224c-0.69107,0.42554 -1.59616,0.99377 -2.39999,1.168c-0.92816,0.20117 -1.9462,0.08694 -2.76132,0.12885c-0.81747,0.04202 -1.81689,0.25284 -2.45834,0.47916c-1.02628,0.36209 -1.7955,0.45801 -2.69434,0.50449c-0.86597,0.04477 -1.62543,0.61279 -2.54733,0.91019c-0.86038,0.27756 -1.83484,-0.07797 -2.60001,0.17065c-0.79089,0.25696 -1.68414,0.86218 -2.44666,0.90399c-0.9187,0.05035 -1.70599,0.01068 -2.52802,0.01068c-1.05865,0 -2.01065,0 -2.73517,0c-1.13333,0 -1.80899,0 -2.55264,0c-0.80368,0 -2.10419,0 -3.02286,0c-0.47183,0 -1.43549,0 -2.41916,0c-0.49683,0 -1.99567,0 -2.49683,0c-1.00934,0 -1.5195,0 -2.55585,0c-1.6095,0 -2.16498,0.0015 -2.73349,-0.00134c-1.18802,-0.00592 -1.81357,-0.01694 -2.46399,-0.03467c-0.67859,-0.01849 -1.38858,-0.03909 -2.91202,-0.13065c-0.81848,-0.04919 -1.66544,-0.11563 -2.53049,-0.186c-0.87231,-0.07095 -1.74033,-0.14722 -2.59351,-0.22202c-0.82718,-0.07254 -1.61661,-0.15054 -3.04266,-0.25867c-1.17279,-0.08893 -1.67966,-0.11868 -2.58334,-0.14581c-0.82312,-0.02472 -2.08331,-0.01993 -2.54782,-0.021c-1.00702,-0.00232 -1.54373,-0.00275 -2.66751,-0.03586c-0.5816,-0.01712 -2.36838,-0.12659 -2.96765,-0.18533c-0.59808,-0.05862 -1.77911,-0.20334 -2.35867,-0.27866c-0.56976,-0.07404 -1.66949,-0.23019 -2.70834,-0.33334c-0.96542,-0.09586 -1.89337,-0.14005 -2.81998,-0.19199c-0.47589,-0.02667 -2.0137,-0.13766 -2.57718,-0.19635c-0.58722,-0.06119 -1.80237,-0.2197 -2.41534,-0.31998c-0.60971,-0.09976 -1.79446,-0.30597 -2.85416,-0.625c-0.94034,-0.28308 -1.754,-0.66019 -2.53201,-1.00803c-0.38782,-0.1734 -1.6286,-0.68015 -2.58798,-0.93866c-0.50626,-0.13641 -1.56628,-0.35214 -2.10666,-0.44c-1.07114,-0.17416 -2.10587,-0.29013 -3.07068,-0.36267c-0.90732,-0.06821 -1.78433,-0.10428 -2.2175,-0.13666c-1.31973,-0.09866 -2.23495,-0.2222 -3.15582,-0.38333c-0.45529,-0.07968 -1.3382,-0.23438 -2.496,-0.564c-0.94128,-0.26799 -1.68817,-0.62885 -2.66669,-0.83333c-0.77243,-0.16142 -1.57196,-0.16133 -2.69034,-0.16667c-0.72165,-0.00345 -1.64297,0.00224 -2.543,0c-0.90448,-0.00226 -1.76666,-0.16667 -2.59998,-0.5l-0.83334,-0.33333l-0.828,-0.15601" id="svg_2" stroke-width="2" stroke="#000" fill="none"/>
  <path t="7416,7455,7465,7465,7465,7478,7478,7493,7493,7511,7511,7511,7511,7529,7529,7530,7530,7530,7544,7544,7544,7544,7556,7556,7576,7631,7718,7719,7758,7783,7798,7811,7826,7826,7887,7887,7905,7921,7945,7945,7960,7960,7961,7961,7961,7971,7971,7972,7972,7995,7995,7995,7995,7995,8016,8016,8017,8017,8017,8017,8030,8030,8030,8030,8030,8030,8041,8042,8042,8042,8042,8070,8071,8071,8071,8071,8071,8088,8089,8089,8089,8089,8089,8089,8111,8111,8111,8111,8111,8111,8127,8127,8127,8127,8127,8127,8128,8143,8144,8144,8144,8144,8160,8161,8161,8161,8161,8176,8177,8177,8177,8177,8188,8188,8189,8189,8189,8211,8211,8211,8211,8212,8212,8227,8227,8227,8228,8228,8228,8228,8244,8244,8244,8244,8244,8261,8262,8262,8262,8262,8263,8263,8277,8278,8278,8278,8278,8279,8279,8279,8302,8302,8302,8302,8303,8328,8328,8328,8329,8329,8329,8329,8343,8344,8344,8344,8344,8345,8345,8345,8345,8360,8361,8361,8361,8362,8362,8362,8376,8376,8377,8377,8377,8393,8394,8394,8394,8395,8395,8408,8410,8410,8410,8411,8411,8446,8447,8447,8447,8466,8467,8467,8467,8499,8500,8534,8535,8560,8561,8561,8561,8580,8581,8581,8581,8581,8694,8695,8719,8719,8747,8768,8768,8787,8816,8816,8832,8833,8936,8969,8969,8987,9003,9010,9030,9030,9031,9064,9064,9073,9073,9073,9073,9073,9074,9093,9093,9093,9093,9094,9114,9114,9114,9115,9135,9136,9136,9136,9136,9136,9154,9155,9155,9248,9248,9267,9286,9287,9302" d="m518.50348,134.88889c1.672,0 2.76935,0 3.52081,0c0.79651,0 1.79248,0 2.63251,0c0.96533,0 1.71368,0 2.61133,0c0.95398,0 1.70337,0 2.52466,0c1.33185,0 1.79333,0 2.72534,0c0.92401,0 1.81598,0 3.04218,0c0.7243,0 1.38068,0.00162 2.25519,0c1.2218,-0.00226 1.96051,-0.06963 2.70264,-0.57466c0.62494,-0.42528 1.71429,-0.15501 2.41602,-0.51067c0.74487,-0.3775 0.56934,-1.51468 0.56934,-2.41467c0,-0.91066 0.21344,-1.86928 -0.07202,-2.63867c-0.29645,-0.79895 -1.31885,-0.81313 -2.17084,-1.214c-0.90991,-0.42813 -1.75958,-0.61304 -2.50116,-0.68333c-0.92773,-0.08794 -1.59436,-0.24958 -2.37866,-0.38933c-0.84772,-0.15105 -1.70898,-0.31479 -2.93469,-0.45334c-0.73578,-0.08318 -1.4444,-0.10105 -2.51062,-0.20533c-1.17743,-0.11516 -1.60394,-0.19398 -2.50403,-0.352c-0.95074,-0.16691 -1.43707,-0.26816 -2.92798,-0.564c-1.00006,-0.19844 -1.49878,-0.30228 -2.5,-0.47916c-0.49939,-0.08823 -1.49805,-0.25334 -2.5,-0.35417c-0.99835,-0.10047 -2,-0.14083 -2.5,-0.16666c-1.00006,-0.05167 -1.50299,-0.05457 -3,-0.22134c-1.00238,-0.11166 -1.49969,-0.20596 -2.5,-0.35333c-0.49988,-0.07365 -1.99905,-0.27125 -3.00134,-0.34c-0.50278,-0.03448 -1.51944,-0.06729 -2.03467,-0.07467c-1.04929,-0.01502 -2.13068,-0.01067 -3.24933,-0.01067c-0.57184,0 -1.15067,0 -2.32535,0c-0.59381,0 -1.19064,0 -2.98932,0c-0.60001,0 -1.20001,0 -2.39999,0c-0.60001,0 -1.20001,0 -3,0c-0.59967,0 -1.19736,0 -2.37869,0c-0.57965,0 -1.707,0 -2.25064,0c-1.52783,0 -2.00134,0 -2.90933,0c-0.87601,0 -1.74402,0 -3.08267,0c-0.46268,0 -1.40402,0 -2.35333,0c-0.94135,0 -1.85867,0 -2.74133,0c-0.85867,0 -1.70935,0 -2.56802,0c-1.33749,0 -1.80133,0 -2.75198,0c-0.97467,0 -1.46851,0 -2.96399,0c-0.50018,0 -1.50452,0 -2.52084,0c-0.51517,0 -1.56451,0 -2.64584,0c-0.55466,0 -1.686,0 -2.25867,0c-1.14932,0 -1.72198,0 -2.29065,0c-1.66269,0 -2.20001,0 -3.25867,0c-0.52533,0 -1.578,0 -3.19202,0c-0.55499,0 -1.12,0 -2.28,0c-0.595,0 -1.19998,0 -2.44,0c-1.28,0 -1.93448,0 -2.59598,0c-0.66553,0 -1.99652,0 -2.65601,0c-0.65152,0 -1.29199,0 -3.11816,0c-0.57117,0 -1.66052,0 -2.18066,0c-0.99634,0 -2.39584,0 -2.8425,0c-0.90335,0 -1.88669,0 -2.43335,0c-0.59665,0 -1.25333,0 -2.78665,0c-0.89169,0 -1.85333,0 -2.86502,0c-1.04166,0 -2.09332,0 -3.13498,0c-1.01169,0 -1.97336,0 -3.66669,0c-0.69733,0 -1.29865,0 -1.81799,0c-0.45132,0 -1.20599,0 -1.85666,0c-1.02335,0 -1.83469,0 -2.742,0c-0.98734,0 -1.50601,0 -3.138,0c-0.56268,0 -1.13135,0 -2.27866,0c-0.57468,0 -1.716,0 -2.83334,0c-1.07867,0 -1.60049,0 -2.60416,0c-0.47986,0 -1.3905,0 -2.61969,0c-0.733,0 -1.75748,0 -2.42548,0c-1.03851,0 -2.13202,0 -2.85602,0c-0.69199,0 -1.88934,0 -2.80399,0c-0.97601,0 -1.72433,0 -2.62201,0c-0.95401,0 -1.70334,0 -2.52466,0c-1.33167,0 -1.79202,0 -2.71466,0c-0.89868,0 -1.74136,-0.00676 -2.83118,0.00017c-0.83557,0.00531 -1.991,0.1063 -2.16217,0.80116c-0.22864,0.92809 -0.00626,1.85134 -0.00266,2.54601c0.00534,1.02737 0.18579,1.99089 0.52081,2.65266c0.43417,0.85765 0.90909,1.67589 1.46451,2.38933c0.48254,0.61984 1.36649,0.60597 2.37866,0.61067c0.93152,0.00432 1.54361,0.59676 2.30017,0.87849c0.80832,0.30101 1.56973,0.09175 2.54849,0.12601c0.82254,0.02879 1.78781,0.15875 2.694,0.28084c0.51862,0.06987 1.6355,0.23241 2.21335,0.32533c1.14767,0.18456 2.21545,0.37965 3.13998,0.588c0.80862,0.18222 1.52914,0.386 2.22,0.51599c1.03647,0.19502 2.17722,0.25307 2.58252,0.26451c0.85614,0.02419 2.27081,0.02083 2.77982,0.02083c1.05402,0 1.58701,0 2.63501,0c0.98401,0 2.23666,0 2.89398,0c0.78601,0 1.82852,0 2.79269,0c0.95065,0 1.836,0 2.63599,0l0.89999,0" id="svg_3" stroke-width="2" stroke="#000" fill="none"/>
  <path t="10728,11143,11155,11178,11195,11195,11210,11229,11229,11241,11261,11261,11261,11277,11296,11296,11296,11310,11311,11311,11311,11326,11326,11326,11326,11326,11326,11345,11346,11346,11361,11361,11361,11377,11378,11378,11402,11402,11402,11402,11408,11408,11408,11409,11409,11409,11409,11409,11409,11427,11427,11427,11427,11447,11447,11447,11447,11468,11468,11468,11468,11468,11499,11500,11500,11500,11500,11500,11551,11552,11552,11552,11552,11552,11552,11552,11552,11570,11570,11570,11570,11570,11570,11570,11571,11571,11584,11585,11585,11585,11585,11585,11585,11585,11585,11608,11608,11609,11609,11609,11609,11609,11609,11609,11633,11633,11633,11633,11633,11634,11634,11634,11634,11677,11677,11677,11677,11678,11678,11678,11678,11678,11703,11703,11703,11704,11704,11704,11704,11704,11704,11735,11735,11736,11736,11736,11736,11736,11737,11737,11767,11768,11768,11768,11768,11768,11768" d="m381.50348,251.88889c-1.83334,0.16667 -2.21527,0.9391 -3.10001,1c-0.89786,0.0618 -1.75021,0.01347 -2.39999,0.52083c-0.76804,0.59969 -1.28284,1.24706 -2.172,1.5045c-0.85724,0.24821 -1.57156,0.42516 -2.56003,0.69067c-0.95193,0.25571 -1.95456,0.40793 -2.61465,0.74133c-0.63678,0.32162 -1.57239,1.08859 -2.11951,1.548c-0.59332,0.49823 -1.2182,1.05008 -2.36716,1.66132c-0.39853,0.21204 -1.26654,0.5376 -2.16666,0.79169c-0.88968,0.25113 -1.33722,0.31857 -2.55685,0.64166c-1.06534,0.28223 -1.69537,0.47488 -2.77649,0.89999c-0.72073,0.28339 -1.38474,0.61758 -2.33334,1c-0.78027,0.31454 -1.6171,0.57675 -2.66666,1c-0.74783,0.30157 -1.29483,0.57721 -1.96234,0.92868c-1.37769,0.7254 -1.95386,1.0563 -2.59232,1.40732c-0.68085,0.37433 -1.38934,0.76535 -2.112,1.164c-0.72269,0.39868 -1.431,0.78998 -2.112,1.164c-1.22073,0.67047 -2.1879,1.20261 -2.94669,1.59201c-0.59946,0.30765 -1.60666,0.7475 -2.40298,1.04849c-0.57907,0.21887 -1.53098,0.56689 -2.56,1.017c-0.74448,0.32565 -1.51974,0.69995 -1.92502,0.88916c-0.83942,0.39191 -2.17499,0.99008 -2.64133,1.19202c-0.96893,0.41956 -1.47592,0.63574 -1.99466,0.86932c-1.09241,0.49188 -2.25192,1.0589 -2.86084,1.37082c-0.63248,0.32397 -1.28345,0.66873 -1.96051,1.01852c-0.69925,0.36127 -1.42264,0.72955 -2.17648,1.09048c-0.77545,0.37125 -2.4158,1.09094 -3.28467,1.42651c-0.89249,0.3447 -1.82135,0.66925 -2.78549,0.97498c-0.99219,0.31461 -2.02298,0.60904 -3.09152,0.88501c-1.1008,0.2843 -3.42303,0.80246 -4.64267,1.04001c-1.2457,0.24261 -2.51157,0.46454 -3.78448,0.67499c-1.26743,0.20953 -2.521,0.40222 -3.7485,0.58499c-1.18985,0.17715 -3.41547,0.49515 -4.43201,0.64017c-0.95547,0.13629 -1.85889,0.26498 -2.71948,0.38553c-0.82642,0.11575 -1.6279,0.22632 -2.41351,0.33148c-0.77838,0.10419 -2.35037,0.30551 -3.16,0.40451c-0.82639,0.10104 -1.66693,0.20044 -2.51849,0.29999c-0.85944,0.10046 -1.724,0.19998 -2.59048,0.30002c-0.86551,0.09995 -2.58167,0.29858 -3.427,0.40033c-0.83868,0.10095 -1.67352,0.20486 -2.5065,0.32098c-0.83606,0.11655 -1.67703,0.24484 -2.52451,0.39301c-0.86053,0.15045 -2.62488,0.51309 -3.53183,0.72818c-0.91977,0.21814 -1.83734,0.45581 -2.745,0.69748c-0.88901,0.23669 -1.74649,0.47397 -2.565,0.69751c-0.76819,0.20978 -2.11392,0.56708 -2.67618,0.69818c-0.48724,0.11362 -0.90991,0.19962 -1.2735,0.267c-0.31079,0.05762 -0.57767,0.09943 -0.80551,0.14099c-0.19745,0.03601 -0.52853,0.11786 -0.67166,0.17767c-0.13831,0.05777 -0.26434,0.13132 -0.3855,0.20398l-0.11517,0.07468l-0.11017,0.07468" id="svg_4" stroke-width="2" stroke="#000" fill="none"/>
  <path t="12792,12863,12885,12895,12908,12922,12922,12942,12942,12943,12943,12958,12959,12959,12959,12959,12975,12975,12975,12975,12992,12992,12992,12992,12992,12993,13008,13008,13008,13008,13008,13008,13008,13024,13024,13024,13024,13025,13025,13025,13025,13025,13042,13042,13042,13042,13042,13042,13042,13042,13042,13058,13058,13058,13058,13058,13058,13058,13059,13059,13075,13075,13075,13075,13076,13076,13076,13076,13076,13094,13095,13095,13095,13095,13095,13095,13095,13095,13117,13118,13118,13118,13118,13118,13118,13118,13119,13143,13143,13143,13144,13144,13144,13144,13144,13144,13162,13163,13163,13163,13163,13163,13163,13163,13163,13174,13174,13175,13175,13175,13175,13175,13175,13175,13195,13195,13196,13196,13196,13196,13196,13196,13196,13213,13213,13214,13214,13214,13214,13214,13214,13215,13235,13235,13235,13235,13235,13235,13235,13235,13236,13274,13274,13274,13275,13275,13275,13275,13275,13275,13308,13308,13309,13309,13309,13309,13310,13310,13310,13335,13335,13335,13335,13335,13335,13336,13336,13336,13351,13351,13351,13351,13351,13351,13352,13352,13352,13382,13382,13382,13382,13383,13383,13383,13383,13383,13418,13418,13418,13418,13419,13419,13419,13419,13419,13449,13449,13449,13450,13450,13450,13450,13450,13450,13514,13514,13514,13514,13515,13515,13515,13515,13515,13526,13527,13528,13528,13528,13529,13529,13529,13530,13783,13784,13784,13784,13784,13784,13785,13785,13785,13801,13802,13802,13802,13802,13803,13803,13803,13803,13829,13829,13829,13830,13830,13830,13831,13831,13831,13853,13853,13854,13854,13854,13855,13855,13855,13855,13894,13895,13895,13895,13896,13896,13896,13896,13897,13935,13935,13936,13936,13936,13936,13936,13937,13937,14023,14024,14024,14024,14024,14025,14025,14025,14025,14079,14080,14080,14080,14080,14081,14081,14081,14082,14104,14104,14104,14105,14105,14105,14105,14106,14106,14130,14130,14131,14131,14131,14137,14137,14138,14139,14170,14170,14171,14171,14171,14171,14172,14172,14172,14187,14187,14187,14188,14188,14188,14189,14189,14189,14230,14230,14230,14231,14231,14231,14231,14232,14232,14245,14246,14246,14246,14246,14247,14247,14248,14248,15599,15600,15600,15600,15601,15601,15601,15602,15602,15647,15648,15648,15669,15696,15696,15723,15743,15779,15779,15798,15799,15828,15828,15855,15855,15856,15887,15887,15888,15901,15901,15917,15918,15919,15919,15952,15953,15954,15955,15955,15956,15957,15995,15996,15996,15997,16000,16001,16001,16010,16011,16012,16012,16038,16039,16039,16040,16040,16040,16041,16092,16093,16094,16095,16096,16098,16100,16109,16110,16111,16112,16112,16113,16113,16113,16135,16136,16137,16137,16138,16172,16173,16173,16174,16175,16218,16219,16221,16222,16223,16223,16223,16224,16231,16231,16232,16232,16233,16233,16233,16234,16261,16261,16262,16262,16263,16263,16263,16264,16295,16295,16295,16296,16296,16296,16297,16297,16297,16328,16329,16329,16330,16330,16330,16331,16331,16334,16384,16385,16386,16386,16387,16388,16388,16389,16390,16402,16402,16402,16403,16403,16403,16404,16404,16405,16443,16444,16444,16445,16445,16446,16446,16447,16447,16462,16463,16463,16464,16464,16465,16465,16466,16466,16490,16491,16491,16492,16492,16493,16493,16495,16495,16540,16541,16543,16543,16544,16545,16546,16547,16547,16563,16563,16564,16564,16565,16565,16565,16566,16566,16587,16587,16588,16588,16589,16589,16590,16591,16591,16621,16621,16624,16625,16625,16626,16626,16627,16627,16671,16672,16672,16673,16673,16673,16674,16674,16675,16686,16687,16687,16687,16688,16688,16689,16689,16690,16721,16722,16723,16723,16724,16724,16725,16735,16735,16759,16760,16761,16762,16763,16764,16764,16765,16765,16789,16789,16790,16791,16792,16793,16793,16794,16794,16829,16829,16830,16831,16831,16831,16832,16832,16833" d="m276.50348,315.88889c-0.16669,-1.83334 -0.79272,-2.23773 -1.00018,-3.09982c-0.20218,-0.84015 -0.91699,-1.28925 -1.25449,-1.95752c-0.36832,-0.72931 -1.04813,-1.63336 -1.30783,-1.9635c-0.54031,-0.68686 -1.42093,-1.66403 -2.03751,-2.2085c-0.58481,-0.51639 -1.19562,-0.95572 -1.80002,-1.36798c-1.1954,-0.81537 -1.82352,-1.21738 -2.508,-1.60269c-0.73917,-0.41608 -1.58939,-0.80615 -2.54401,-1.20267c-0.50464,-0.20959 -1.55258,-0.62878 -2.07199,-0.86932c-1.03351,-0.47858 -1.98837,-1.04459 -2.41232,-1.37134c-0.84052,-0.6478 -1.21231,-1.04669 -2.01166,-1.85001c-0.42612,-0.42825 -0.85861,-0.89719 -1.88535,-1.84c-0.56548,-0.51926 -1.18985,-1.04156 -1.85251,-1.58099c-0.69055,-0.56213 -1.41655,-1.12961 -2.1675,-1.707c-0.76736,-0.59003 -1.5527,-1.18219 -3.14667,-2.37866c-0.80034,-0.60077 -1.60464,-1.20361 -2.418,-1.80899c-0.82396,-0.61328 -1.66403,-1.23444 -2.526,-1.86301c-0.88333,-0.64417 -1.79201,-1.30624 -3.72266,-2.66135c-1.01605,-0.71317 -2.06886,-1.436 -3.14851,-2.16748c-1.095,-0.74188 -2.20364,-1.48138 -3.31949,-2.21252c-1.10983,-0.7272 -2.20732,-1.44507 -4.36534,-2.78665c-1.03185,-0.64148 -2.04254,-1.24686 -3.024,-1.83749c-0.9572,-0.57602 -1.89516,-1.1376 -2.808,-1.70251c-0.8998,-0.55682 -1.79594,-1.10153 -3.50133,-2.29333c-0.85384,-0.59671 -1.68309,-1.22934 -2.505,-1.86749c-0.8181,-0.63519 -1.61949,-1.27896 -2.41499,-1.91251c-0.7845,-0.62479 -1.54529,-1.25299 -3.08,-2.38666c-0.73854,-0.54556 -1.48138,-1.05194 -2.21851,-1.54199c-0.7309,-0.4859 -1.46919,-0.9577 -2.2095,-1.43402c-0.74869,-0.48169 -1.51772,-0.96161 -3.07199,-2.02399c-0.81517,-0.55719 -1.6422,-1.15436 -2.49001,-1.776c-0.87227,-0.63959 -1.7607,-1.30643 -2.67,-1.992c-0.93071,-0.70172 -1.87712,-1.42516 -3.84,-2.89867c-1.00702,-0.75597 -2.02733,-1.51291 -3.0495,-2.26799c-1.01382,-0.74892 -2.01274,-1.48236 -2.9865,-2.196c-0.93925,-0.68834 -1.83681,-1.34293 -3.464,-2.53601c-0.71652,-0.52536 -1.36964,-1.00626 -1.96651,-1.44749c-0.54845,-0.40546 -1.05453,-0.78137 -1.5255,-1.13251c-0.44336,-0.33055 -0.86542,-0.64655 -1.67467,-1.25333c-0.40071,-0.30045 -0.80533,-0.604 -1.218,-0.9135c-0.42467,-0.3185 -0.86533,-0.649 -1.32599,-0.99451c-0.48466,-0.36349 -0.99736,-0.74797 -2.12267,-1.592c-0.61885,-0.46416 -1.27084,-0.95311 -1.9485,-1.46249c-0.69702,-0.52394 -1.40604,-1.05785 -2.11951,-1.5975c-0.7122,-0.5387 -1.41679,-1.07056 -2.76534,-2.10667c-0.63734,-0.48969 -1.25131,-0.96716 -1.851,-1.437c-0.59499,-0.46616 -1.19107,-0.93748 -1.797,-1.41901c-0.62474,-0.49646 -1.2747,-1.01595 -2.68533,-2.144c-0.77486,-0.61964 -1.59789,-1.27831 -2.4705,-1.97099c-0.918,-0.72871 -1.88217,-1.48926 -2.89349,-2.27701c-1.05228,-0.81966 -2.14403,-1.67012 -4.46933,-3.41866c-1.21407,-0.91293 -2.45848,-1.82875 -3.71251,-2.74501c-1.24599,-0.91039 -2.474,-1.79805 -3.6675,-2.655c-1.14156,-0.81966 -2.21812,-1.58931 -4.12,-2.93333c-0.79823,-0.5641 -1.51218,-1.06375 -2.16301,-1.521c-0.61316,-0.43077 -1.21284,-0.8528 -1.821,-1.287c-0.64391,-0.45973 -1.34668,-0.96436 -3.01599,-2.192c-1.01364,-0.74545 -2.13634,-1.58089 -3.354,-2.487c-1.29436,-0.9632 -2.6459,-1.97145 -4.038,-3.009c-1.4139,-1.0538 -2.83023,-2.11171 -5.608,-4.17065c-1.32549,-0.98248 -2.61146,-1.92961 -3.861,-2.856c-1.22511,-0.90828 -2.43295,-1.80765 -3.627,-2.71201c-1.19663,-0.90631 -2.40531,-1.82124 -4.84534,-3.76534c-1.27041,-1.01221 -2.55934,-2.07251 -3.88049,-3.1575c-1.34953,-1.10831 -2.72135,-2.24117 -4.1235,-3.38249c-1.42149,-1.15706 -2.8539,-2.33495 -5.82933,-4.62666c-1.49996,-1.15529 -3.02314,-2.27951 -4.54501,-3.38701c-1.50485,-1.09512 -2.9953,-2.1566 -4.45499,-3.189c-1.41701,-1.00221 -2.79045,-1.95731 -5.33334,-3.75734c-1.16341,-0.82355 -2.25435,-1.6066 -3.285,-2.35199c-0.98264,-0.71066 -1.92348,-1.39781 -2.83501,-2.06401c-0.89181,-0.65179 -1.77064,-1.29971 -3.54666,-2.584c-0.90679,-0.65573 -1.82492,-1.31125 -2.7405,-1.9635c-0.90176,-0.64241 -1.78049,-1.26543 -2.6235,-1.8645c-0.79733,-0.56662 -1.54106,-1.08951 -2.80267,-2.00533c-0.50801,-0.36876 -0.93269,-0.68575 -1.2855,-0.9525c-0.29108,-0.22008 -0.52623,-0.40269 -0.7185,-0.5475c-0.15488,-0.11665 -0.27704,-0.21912 -0.496,-0.33333c-0.09724,-0.05072 -0.19891,-0.08484 -0.3,-0.10501c-0.09917,-0.01979 -0.20037,-0.02493 -0.3,-0.015c-0.10062,0.01003 -0.20536,0.02771 -0.4,0.12001c-0.10394,0.04929 -0.20802,0.12198 -0.318,0.213c-0.12791,0.10587 -0.26731,0.24344 -0.426,0.411c-0.18702,0.19746 -0.39986,0.43515 -0.92267,1.04266c-0.32072,0.37268 -0.67387,0.79155 -1.0575,1.248c-0.40974,0.48752 -0.8388,1.0016 -1.2825,1.53601c-0.45465,0.54759 -0.91491,1.10269 -1.82667,2.21599c-0.4461,0.54471 -0.8829,1.08249 -1.314,1.614c-0.42757,0.52716 -0.85255,1.05276 -1.278,1.578c-0.42722,0.52744 -0.85712,1.05994 -1.74133,2.14134c-0.45337,0.55449 -0.91209,1.11169 -1.3725,1.6635c-0.45294,0.54285 -0.89604,1.06764 -1.3275,1.5645c-0.40701,0.4687 -0.7779,0.90961 -1.46667,1.60533c-0.27448,0.27725 -0.52002,0.49429 -0.7335,0.6615c-0.17533,0.13731 -0.32774,0.23643 -0.4545,0.3105c-0.10251,0.05989 -0.20049,0.09016 -0.312,0.19467c-0.05183,0.04857 -0.08538,0.11722 -0.1095,0.19049c-0.02552,0.07755 -0.03845,0.16345 -0.0465,0.25351c-0.00837,0.09366 -0.01,0.19066 -0.01067,0.38933c-0.00034,0.10016 0,0.20134 0,0.3045c0,0.10616 0,0.21632 0,0.3315c0,0.12117 0,0.24933 0,0.53067c0,0.15483 0,0.31866 0,0.49049c0,0.17883 0,0.36366 0,0.5535c0,0.19383 0.00049,0.39067 0,0.78934c-0.00025,0.20183 -0.00065,0.41483 -0.0135,0.64951c-0.01468,0.26807 -0.04492,0.5802 -0.0945,0.94649c-0.05868,0.43353 -0.13789,0.94463 -0.392,2.23734c-0.15773,0.80243 -0.35057,1.68964 -0.558,2.64151c-0.2165,0.99348 -0.44188,2.00436 -0.666,3.0105c-0.21789,0.9782 -0.4299,1.90405 -0.776,3.51466c-0.13785,0.64149 -0.24686,1.17545 -0.3285,1.614c-0.06582,0.35358 -0.1124,0.63556 -0.1395,0.858c-0.02116,0.17369 -0.02982,0.31197 -0.032,0.528c-0.00101,0.10001 0.00016,0.20006 -0.0045,0.3c-0.00467,0.10007 -0.01344,0.20049 -0.0315,0.3c-0.01825,0.10057 -0.03813,0.20493 -0.13067,0.39999c-0.04875,0.10277 -0.11494,0.19939 -0.1815,0.2955c-0.06547,0.09454 -0.13241,0.18269 -0.1905,0.26849c-0.0528,0.07799 -0.12281,0.14543 -0.128,0.26933c-0.00193,0.04614 0.37566,0.16441 1.1875,0.16667c0.96317,0.00267 1.8265,-0.00063 2.722,0c0.95717,0.00067 1.75669,0.16734 2.39317,0.61067c0.84738,0.59023 1.56516,0.94907 2.34267,1.48933c0.67127,0.46645 1.51116,1.09958 2.08384,1.44167c0.71179,0.42519 1.58323,0.99706 2.24733,1.46815c0.71414,0.50661 1.44118,1.04312 1.8075,1.30751c1.05933,0.76457 1.73322,1.23888 2.42433,1.68266c0.71944,0.46198 1.9579,1.16747 2.4225,1.42183c0.9974,0.54605 1.52509,0.83102 2.05667,1.14067c0.54184,0.31561 1.63596,0.97864 2.64584,1.77083c0.5023,0.39403 0.97214,0.82101 1.85066,1.696c0.42546,0.42375 1.20525,1.26251 1.59467,1.632c1.0378,0.98471 1.73305,1.43526 2.40884,1.81784c0.68236,0.38631 1.8168,1.01428 2.22217,1.28516c0.88089,0.58861 1.32967,0.9321 2.27834,1.63167c0.48801,0.35986 0.97314,0.73424 1.97866,1.43733c0.99471,0.69554 1.50812,1.01987 2.02134,1.35201c1.04887,0.67879 1.59438,1.02237 2.14933,1.384c1.16559,0.75954 1.77271,1.17163 2.39467,1.59734c0.63206,0.43262 1.26462,0.87244 1.893,1.3125c1.2232,0.85661 1.8018,1.26921 2.875,2.02083c0.48013,0.33626 1.33659,0.93056 2.08334,1.4375c0.66409,0.45084 1.58217,1.06424 2.18867,1.46516c0.63612,0.4205 1.33555,0.87436 2.13599,1.368c0.92178,0.56847 1.44073,0.87854 2.58284,1.53467c0.60718,0.34882 1.23638,0.69829 1.8825,1.04401c0.65222,0.349 1.30482,0.70058 2.62666,1.31734c0.64133,0.29924 1.27853,0.57436 2.54134,1.07199c0.62333,0.24564 1.25058,0.47621 1.878,0.7095c0.63125,0.23471 2.57008,0.97162 3.23666,1.23849c0.68211,0.27309 1.37897,0.55928 2.094,0.85501c0.73564,0.30426 1.49239,0.62065 2.274,0.94499c1.64208,0.6814 2.50729,1.03593 3.40266,1.40001c0.92461,0.37596 1.87965,0.76085 2.865,1.155c1.01465,0.40587 2.05955,0.82115 3.135,1.245c2.23904,0.88242 3.40461,1.33475 4.596,1.8c1.21561,0.47472 2.45268,0.95825 3.7065,1.455c1.2702,0.50323 2.55309,1.01492 3.84151,1.545c2.60022,1.06978 3.89862,1.63312 5.20934,2.20267c1.33264,0.57909 2.69298,1.17944 4.095,1.79399c1.45131,0.63614 2.961,1.2981 4.545,1.974c3.40836,1.45438 5.25977,2.2104 7.196,2.99734c2.0074,0.81587 4.07799,1.64435 6.1965,2.487c2.15215,0.85603 4.32765,1.71468 6.51149,2.57698c4.34267,1.71472 6.47835,2.55814 8.58267,3.39603c2.07567,0.82648 4.12126,1.64621 6.13499,2.46448c1.98625,0.8071 3.94296,1.60925 5.86501,2.41949c3.76585,1.58749 5.59601,2.39578 7.39067,3.19601c1.75497,0.78253 3.45665,1.55835 5.0985,2.32199c1.58075,0.73523 3.08864,1.44855 4.5135,2.142c2.59615,1.26352 3.74403,1.85333 4.80933,2.40002c0.99532,0.51077 1.92972,0.99915 2.823,1.45798c0.86142,0.44244 1.70441,0.87418 2.55301,1.27802c1.73018,0.82339 2.65529,1.21088 3.61066,1.604c0.97861,0.40268 1.98256,0.79446 3.00301,1.18048c1.02754,0.3887 2.06085,0.76685 3.093,1.1355c2.02977,0.72495 3.02226,1.06421 3.99466,1.40134c0.95627,0.33151 1.89922,0.6571 2.82901,0.98401c0.92087,0.32376 1.83458,0.64746 2.739,0.98401c1.80656,0.67224 2.70406,1.03406 3.60266,1.40134c0.9014,0.36841 1.8009,0.74854 2.7,1.1355c0.90091,0.38773 1.80046,0.78262 2.7,1.18048c1.80093,0.79657 2.69965,1.19937 3.60001,1.59735c0.89963,0.39767 1.7991,0.79276 2.7,1.18048c0.89911,0.38696 1.79781,0.76904 2.7,1.1355c1.79568,0.7294 2.69977,1.06589 3.60266,1.40402c0.90576,0.3392 1.8197,0.67462 2.73901,1.02298c0.93137,0.35294 1.87689,0.71506 2.82901,1.11301c1.97165,0.8241 2.97372,1.30295 3.98798,1.79468c1.01813,0.49362 2.01901,1.00204 2.99551,1.509c0.94482,0.49051 1.84094,0.9682 2.68051,1.41898c1.4664,0.78735 2.07227,1.1153 2.59998,1.39868c0.45993,0.24698 0.86365,0.46353 1.21951,0.6615c0.32275,0.17953 0.62207,0.3504 0.90451,0.52649c0.57971,0.36139 0.8844,0.57797 1.20932,0.80267c0.33774,0.23358 0.68152,0.47504 1.03201,0.71249c0.34818,0.23587 0.68982,0.46634 1.03198,0.66751c0.62619,0.36816 0.92285,0.49423 1.19601,0.60132c0.2514,0.09857 0.49017,0.17355 0.7095,0.25201c0.20599,0.0737 0.40506,0.14307 0.57449,0.25201c0.3414,0.21951 0.47318,0.40732 0.60266,0.59998c0.13535,0.20139 0.24933,0.42401 0.3645,0.64801l0.11017,0.224l0.10617,0.21799l0.10315,0.20602" id="svg_5" stroke-width="2" stroke="#000" fill="none"/>
  <path t="21913,22024,22024,22036,22037,22062,22079,22080,22080,22080,22095,22095,22095,22095,22095,22109,22109,22109,22109,22109,22109,22109,22130,22130,22130,22130,22130,22130,22130,22130,22130,22137,22137,22137,22137,22137,22137,22137,22137,22138,22163,22163,22163,22163,22163,22163,22163,22163,22181,22181,22181,22181,22181,22181,22181,22192,22192,22192,22192,22192,22192,22214,22215,22215,22215,22215,22215,22235,22235,22235,22235,22235,22235,22235,22255,22255,22255,22255,22255,22255,22255,22275,22275,22275,22276,22276,22296,22296,22296,22296,22296,22318,22319,22319,22319,22337,22337,22370,22370,22400,22418,22418,22418,22427,22427,22427,22448,22448,22448,22469,22469,22504,22504,22505,22533,22534,22534,22545,22545,22546,22561,22562,22583,22583,22583,22583,22583,22607,22607,22607,22640,22640,22640,22640,22641,22667,22667,22667,22667,22668,22687,22687,22688,22713,22713,22713,22713,22713,22724,22724,22725,22725,22725,22725,22725,22725,22758,22758,22758,22758,22759,22759,22771,22771,22772,22772,22772,22772,22786,22786,22787,22787,22787,22787,22807,22807,22807,22807,22807,22807,22833,22834,22834,22834,22834,22849,22849,22849,22849" d="m138.50346,243.88889c1.836,0.42534 2.58684,0.79312 3.5955,0.94283c0.74107,0.10999 1.82257,-0.00742 2.73784,0.3905c0.71722,0.31183 1.2182,0.70833 1.83282,1.01851c1.33345,0.67296 2.09959,0.9012 2.49117,1.03349c0.82448,0.27855 1.7215,0.56648 2.67601,0.948c1.04649,0.41827 1.58662,0.67853 2.14932,0.93867c1.17706,0.54417 1.7829,0.83829 2.40533,1.13066c1.27742,0.60002 1.93285,0.89955 2.60001,1.19734c0.67715,0.30225 1.36819,0.60265 2.07449,0.89999c0.71904,0.3027 1.45451,0.60458 2.2095,0.89999c1.55766,0.60948 2.36986,0.90129 3.19333,1.20001c0.83054,0.30128 1.66458,0.59837 2.49301,0.89999c0.81958,0.2984 1.62508,0.59209 2.403,0.89999c1.47803,0.58502 2.15521,0.89474 2.79866,1.19867c0.61815,0.29196 1.20685,0.59033 2.33333,1.16534c0.54593,0.27866 1.0724,0.58209 2.72801,1.31448c0.55804,0.24686 1.12979,0.46841 1.70399,0.68552c1.1463,0.43344 1.7224,0.63037 2.29066,0.83466c1.6637,0.59805 2.19991,0.7981 3.248,1.20132c0.51578,0.19843 1.53166,0.59958 2.03467,0.80002c1.00166,0.39914 2.00233,0.80084 2.50583,1c1.01566,0.40173 1.52953,0.60519 2.58084,1c1.07935,0.40533 1.63618,0.60007 2.77182,1.00449c0.57886,0.20615 1.16632,0.40924 2.34734,0.85266c0.59819,0.22458 1.79744,0.70499 2.39517,0.96402c1.19528,0.51801 1.77892,0.79367 2.35867,1.05798c0.56958,0.25967 1.66324,0.77045 2.70833,1.1875c0.95589,0.38147 1.41794,0.5267 2.29167,0.8125c0.83167,0.27206 2.04639,0.67584 2.84033,1.00485c0.79558,0.32968 1.56418,0.69318 1.94417,0.86331c1.43123,0.64078 2.09473,0.89752 2.7155,1.13184c0.85394,0.3223 1.84683,0.73889 2.69499,1.08484c0.81772,0.33353 1.61647,0.57639 2.38834,0.936c0.97023,0.45206 1.72261,0.4491 2.51016,0.55267c1.0316,0.13565 1.74886,0.33051 2.54683,0.83398c0.84531,0.53333 1.38373,1.13455 2.00134,1.62933c0.78004,0.62491 1.61842,1.10437 2.56667,1.31735c0.77556,0.17419 1.64648,0.1076 2.66667,0.5c0.74768,0.2876 1.29984,0.91687 2.16666,1.33331c0.76164,0.36591 1.62134,0.34799 2.60901,0.69501c0.68086,0.23923 1.72217,0.80939 2.36032,1.121c0.6897,0.33676 1.40479,0.68585 2.14801,0.948c1.04707,0.36932 2.05051,0.49725 2.672,0.62c1.21967,0.24091 1.82245,0.50381 2.43201,0.832c0.66109,0.35596 1.34494,0.81238 2.52116,1.53833c0.85518,0.5278 1.29224,0.79236 2.17082,1.28168c0.42169,0.23486 1.57121,0.84384 2.52417,1.13483c0.79158,0.24173 1.90105,0.48224 2.5385,0.7345c0.74512,0.29489 1.58826,0.68774 2.06168,0.89417c1.62543,0.70877 2.24701,0.95636 2.897,1.21783c0.67099,0.26993 1.35632,0.5405 2.04449,0.81601c0.68384,0.2738 1.36554,0.51865 3.1875,1.33334c0.53012,0.23703 1.46329,0.70981 1.88535,0.94131c0.80707,0.44272 1.59256,0.91785 2.448,1.392c0.94812,0.52551 1.46036,0.78577 1.98666,1.048c1.06906,0.53268 1.60022,0.80466 3.17999,1.452c0.48706,0.19958 1.42667,0.52771 1.88266,0.672c0.89874,0.28436 1.82037,0.5383 2.784,0.828c1.03522,0.31122 1.56827,0.48364 2.64584,0.83334c0.53458,0.17346 1.05841,0.34702 2.52084,0.83334c0.84537,0.28113 1.60141,0.53455 2.30399,0.75598c0.67618,0.2131 2.07867,0.61069 2.81067,0.81067l0.724,0.20001l0.69199,0.19998" id="svg_6" stroke-width="20" stroke="#fff" fill="none"/>
  <path t="24736,24911,24929,24945,24945,24962,24962,24962,24981,24981,24981,24981,24991,24991,24991,24991,25007,25007,25007,25007,25007,25007,25029,25030,25030,25030,25030,25030,25044,25044,25044,25044,25045,25045,25045,25045,25061,25061,25061,25074,25074,25074,25074,25074,25112,25112,25112,25112,25113,25113,25113,25113,25126,25126,25126,25126,25126,25126,25156,25156,25156,25157,25157,25157,25184,25185,25185,25185,25185,25185,25203,25203,25203,25203,25203,25203,25203,25203,25203,25223,25223,25223,25223,25223,25223,25223,25243,25243,25243,25262,25262,25281,25302,25303,25322,25322,25352,25352,25370,25370,25390,25391,25416,25447,25467,25695" d="m196.50346,255.88889c1.7,0.05716 2.48929,0.53207 3.20267,1.20132c0.60277,0.56549 1.33998,1.12042 2.05867,1.63467c0.52386,0.37485 1.57767,1.15726 2.05467,1.564c0.69235,0.59033 1.11646,1.02512 2.10582,1.80017c0.5338,0.41815 1.13638,0.82718 1.79701,1.25699c1.10744,0.72049 1.95067,1.22791 2.39099,1.5c0.91135,0.56314 1.37967,0.84702 2.30751,1.44418c0.92017,0.59222 1.80232,1.19803 2.2345,1.50766c0.87379,0.62604 1.31195,0.95981 1.758,1.30533c1.43146,1.10883 1.93309,1.52707 2.45416,1.95102c0.52859,0.43005 1.05647,0.86182 2.07733,1.71198c0.4827,0.40198 0.9333,0.78564 2.05183,1.73685c0.76857,0.65359 1.39853,1.15186 2.17351,1.55249c0.66438,0.34344 1.48802,0.67996 2.412,1.08002c0.49651,0.21497 2.08881,0.91821 2.64267,1.17465c0.56348,0.26089 1.13153,0.53091 2.27866,1.07867c0.57477,0.27444 1.14581,0.5506 1.716,0.81601c1.65825,0.77185 2.19527,1.00888 3.25867,1.43732c0.52306,0.21072 1.04361,0.42145 2.10933,0.76001c1.07599,0.34183 2.19695,0.60437 2.75967,0.73401c0.55995,0.129 1.66161,0.36755 2.18933,0.50531c1.47487,0.38498 2.32831,0.71997 3.13367,1.11536c0.42102,0.2067 1.31918,0.70944 1.82666,0.98932c1.17148,0.64606 1.85481,1.00912 2.59601,1.39334c0.78241,0.40558 1.59718,0.81766 2.4315,1.22849c0.83636,0.41183 1.66441,0.81265 2.47649,1.1835c1.49686,0.68359 2.17123,0.95712 2.78934,1.19601c0.56381,0.21793 1.08252,0.41046 2.01334,0.69867c0.80325,0.24872 1.88333,0.52661 2.84268,0.84265c0.57791,0.1904 1.70367,0.71725 2.31564,1.07916c0.83237,0.49228 1.73108,0.63818 2.54169,1.04169c0.86053,0.42834 1.44824,1.08972 2.3215,1.35767c0.67545,0.20724 1.681,0.06836 2.4678,0.13217c1.05215,0.08533 1.80002,0.564 2.61069,0.95331l0.89999,0.03601l0.89868,0.00134l0.74866,0.35132" id="svg_7" stroke-width="2" stroke="#000" fill="none"/>
  <path t="27105,27264,27264,27279,27279,27295,27313,27313,27329,27329,27329,27329,27341,27341,27341,27341,27341,27341,27341,27361,27362,27362,27362,27362,27379,27379,27379,27379,27379,27379,27379,27394,27395,27395,27395,27395,27411,27412,27412,27412,27412,27412,27412,27422,27422,27422,27422,27422,27422,27445,27445,27445,27445,27445,27445,27445,27461,27462,27462,27462,27462,27462,27462,27477,27478,27478,27478,27478,27478,27491,27491,27491,27491,27491,27491,27512,27512,27512,27512,27512,27513,27513,27528,27528,27529,27529,27529,27552,27552,27552,27552,27553,27553,27570,27570,27571,27571,27571,27571,27571,27571,27591,27592,27592,27592,27592,27602,27602,27602,27602,27602,27621,27621,27622,27622,27622,27622,27622,27644,27644,27644,27645,27645,27645,27645,27667,27667,27667,27667,27667,27667,27668,27689,27689,27689,27689,27690,27690,27727,27727,27728,27728,27728,27728,27737,27737,27737,27737,27737,27737,27758,27758,27758,27759,27779,27779,27780,27780,27801,27801,27801,27801,27801,27822,27823,27823,27847,27847,27848,27848,27868,27868,27868,27888,27888,27888,27888,27909,27909,27942,27943,27944,27944,27961,27961,27961,27961,27987,27987,28005,28080,28328,28352" d="m119.50346,242.88889c2.00533,0 2.74998,-0.03769 3.857,0.00017c0.83546,0.02858 1.61014,0.55679 2.24333,1.09967c0.681,0.58386 1.67659,0.81264 2.21433,0.89616c1.02492,0.15919 1.44174,0.2173 2.87067,0.6685c0.55597,0.17555 1.13321,0.38834 2.31467,0.89799c0.60283,0.26004 1.19768,0.53505 1.76401,0.84149c1.57492,0.85217 2.00323,1.18832 2.82399,1.78534c0.78175,0.56865 1.13509,0.90366 2.412,1.644c0.45407,0.26326 1.45908,0.71355 1.98666,0.92c1.0667,0.4174 1.61076,0.59039 2.14667,0.76001c1.51924,0.48083 2.46211,0.73587 2.916,0.87199c0.90292,0.27078 1.826,0.56509 2.78401,0.948c1.04305,0.4169 1.57489,0.67496 2.11732,0.93867c1.10471,0.53708 1.64867,0.82861 2.18134,1.13068c1.53937,0.87296 1.99704,1.20154 2.92799,1.776c0.45876,0.28308 0.90678,0.58969 1.89334,1.05066c1.02769,0.48019 2.19855,0.80817 2.80916,0.96533c0.62276,0.16028 1.26093,0.29471 2.53667,0.61066c0.6355,0.15738 1.87259,0.51419 2.45801,0.73734c1.14357,0.43591 1.68166,0.7077 2.222,0.95734c1.06929,0.49402 1.58995,0.76743 2.6875,1.16666c1.10355,0.4014 1.68141,0.52838 2.8125,0.83334c0.55945,0.15085 1.13347,0.24243 2.6875,0.83334c0.49869,0.18964 1.43071,0.67163 1.88266,0.92798c0.90688,0.51437 1.33611,0.828 2.78401,1.57202c0.50276,0.25833 1.57068,0.71277 2.11732,0.93066c0.54803,0.21844 1.64545,0.62772 2.18134,0.83466c1.52936,0.59058 2.00095,0.79623 2.90666,1.20132c0.44162,0.19754 1.30563,0.60861 2.62801,1.20001c0.45386,0.20297 1.39806,0.60361 1.89067,0.79999c1.02237,0.40753 1.55579,0.61658 3.276,1.20001c0.60704,0.20587 1.2319,0.4003 1.86299,0.60001c0.6329,0.20029 1.88214,0.59659 2.48401,0.79999c0.58212,0.19672 2.13878,0.78925 2.57832,1.00134c0.80721,0.3895 1.51433,0.81323 2.136,1.284c0.93068,0.70474 1.51024,1.29001 2.2095,1.81467c0.76328,0.57269 1.19235,0.88193 2.80266,1.57849c0.60422,0.26135 1.25946,0.46909 1.93051,0.68552c0.68198,0.21997 1.37299,0.42206 2.05649,0.6315c1.94238,0.59521 2.52229,0.79993 3.06885,1.00314c1.02844,0.38242 1.51212,0.59244 2.49083,0.94418c0.49503,0.17792 2.10953,0.64075 2.69983,0.77316c0.60805,0.13641 1.86769,0.38306 2.50667,0.50934c0.63934,0.12637 1.2838,0.21713 3.09683,0.69632c0.57478,0.15192 1.13219,0.31885 2.18066,0.72c0.50919,0.19482 1.48659,0.6225 2.39584,1.125c0.89645,0.49542 1.31726,0.78799 2.1875,1.33334c0.43987,0.27567 1.33397,0.84402 2.3125,1.33334c1.01906,0.50958 1.56305,0.71658 2.64583,1.125c0.53204,0.20068 1.05754,0.38232 2.52083,0.875c0.84355,0.28403 1.59969,0.52151 2.26801,0.79199c1.24739,0.50482 1.83313,0.85901 2.44266,1.19998c0.62514,0.3497 1.9493,1.02579 2.67334,1.28934c0.73497,0.26755 1.4908,0.47418 2.23199,0.68402c1.06253,0.30081 1.74178,0.45642 2.63734,0.83731c1.10733,0.47098 1.56265,0.84802 2.24667,1.36401c0.68399,0.51599 1.67804,1.13144 2.23599,1.36401c0.85806,0.35764 1.76541,0.63181 2.65948,0.93597c0.8699,0.29596 1.42621,0.48288 2.4205,0.90002c0.91608,0.38434 1.84644,0.81146 2.64566,1.09998c0.57709,0.20834 1.5224,0.50919 2.55936,0.79984c0.72089,0.20206 1.43317,0.39743 2.42432,0.61484c0.99487,0.21823 1.85068,0.284 2.75467,0.28534l0.89999,0l0.87918,-0.02084l0.54617,-0.58981" id="svg_8" stroke-width="2" stroke="#000" fill="none"/>
  <path t="30057,30336,30355,30355,30385,30398,30411,30411,30435,30435,30435,30455,30455,30479,30479,30479,30499,30499,30499,30519,30519,30539,30540,30540,30561,30561,30561,30585,30585,30585,30607,30607,30607,30607,30629,30629,30652,30652,30652,30652,30673,30673,30673,30674,30695,30695,30695,30718,30718,30718,30718,30740,30740,30740,30740,30773,30773,30773,30791,30791,30808,30830,30830,30869,30888,30889,30910,30937,31192,31232,31252,31272,31294,31294,31308,31308,31308,31332,31333,31333,31333,31333,31354,31354,31354,31354,31354,31374,31374,31374,31374,31375,31375,31405,31405,31405,31405,31405,31426,31426,31426,31426,31427,31427,31427,31468,31469,31469,31469,31469,31469,31469,31469,31469,31476,31476,31476,31476,31476,31491,31514,31514,31514,31514,31514,31528,31528,31528,31528,31561,31561,31586,31611,31635,31635,31664,31664,31675,31675,31784,31785" d="m115.50346,231.88889c-1.75716,0 -2.65266,0 -3.516,0c-0.96317,0 -1.7885,0 -2.8055,0c-0.69933,0 -1.67957,-0.03188 -2.4785,0.01067c-0.80235,0.04272 -1.80573,0.34346 -2.436,0.60001c-1.18768,0.48344 -1.70818,0.71234 -2.53867,0.95332c-1.04911,0.30443 -1.99421,0.37813 -2.62083,0.48868c-1.01511,0.17908 -1.78473,0.59691 -2.80466,0.82599c-0.80942,0.18179 -1.49355,0.16747 -2.48517,0.40668c-0.84384,0.20355 -1.41756,0.42404 -2.61466,0.8145c-0.89881,0.29317 -1.48956,0.51582 -2.7,0.73349c-0.59463,0.10692 -1.479,0.15448 -2.31467,0.16534c-1.00258,0.01303 -1.95116,0.00462 -3.01866,0.168c-0.63929,0.09784 -1.32608,0.26831 -2.052,0.40799c-1.44443,0.27792 -2.12844,0.35367 -2.77866,0.38934c-0.93063,0.05106 -2.13647,0.0197 -2.736,0.045c-0.90141,0.03802 -2.11126,0.29752 -2.7,0.56033c-0.91944,0.41045 -1.48406,0.81355 -2.4,1.26399c-0.88562,0.43553 -1.48895,0.66782 -2.39999,0.88c-0.89086,0.20749 -1.77824,0.26468 -2.58567,0.28217c-1.04476,0.02263 -1.897,0.0045 -2.83966,0.0045c-1.008,0 -1.68001,0.21144 -2.34167,0.64734c-0.78509,0.51723 -1.68989,0.08546 -2.666,0.70532c-0.66633,0.42314 -1.85539,0.34258 -2.12033,1.08334c-0.26913,0.75246 1.09026,1.16447 1.78667,1.73067c0.59108,0.48056 1.24094,1.15045 1.77083,1.33333c0.96024,0.33139 2.13784,0.6035 2.56517,0.69867c0.89033,0.19829 1.81374,0.37999 2.748,0.51599c0.91402,0.13306 1.79902,0.19835 2.65733,0.27068c0.85104,0.07172 1.7185,0.14247 3.04684,0.45734c0.46751,0.11081 1.41393,0.40987 1.89933,0.55733c0.98251,0.29848 1.46844,0.4937 2.97933,0.75717c0.99804,0.17404 1.51014,0.18651 2.53584,0.25749c0.521,0.03606 2.13112,0.14764 2.686,0.20667c1.14967,0.1223 1.74586,0.20517 2.36134,0.27867c0.63519,0.07585 1.29025,0.17738 3.41666,0.33333c0.76295,0.05595 1.54922,0.0849 2.34901,0.1095c0.80556,0.02477 1.60931,0.03827 2.403,0.04651c0.77565,0.00804 1.52533,0.00999 2.91467,0.01067c0.626,0.00031 1.752,0 2.264,0c0.952,0 1.848,0 3.19067,0c0.46266,0 1.404,0 2.35333,0c0.47266,0 1.85867,0 2.736,0c0.82133,0 1.57066,0 2.78933,0c0.792,0 1.80474,0.0909 2.7,-0.00133c0.81261,-0.08371 1.52763,-0.75908 2.45717,-0.94151c0.73516,-0.14429 1.74283,-0.05716 2.54283,-0.05716l0.99966,-0.00034l0.75867,-0.04134" id="svg_9" stroke-width="2" stroke="#000" fill="none"/>
  <path t="32465,32616,32633,32633,32647,32663,32664,32679,32679,32690,32713,32713,32713,32729,32729,32729,32729,32746,32747,32747,32760,32760,32760,32760,32780,32780,32796,32796,32796,32814,32814,32828,32837,32837,32863,32879,32895,32907,32907,32907,32930,32930,32953,32953,32953,32970,32985,33008" d="m175.50346,190.88889c-1.75716,0 -2.65266,0 -3.51599,0c-0.85867,0 -1.80551,-0.00008 -2.69467,0c-0.989,0.00009 -1.88188,-0.24989 -2.62134,0.28534c-0.70717,0.51186 -1.26317,1.23759 -1.74849,1.41466c-1.26282,0.46072 -2.07358,0.59767 -2.89867,0.8c-0.80624,0.19771 -1.86963,0.46385 -2.60567,0.8c-0.59439,0.27145 -1.67693,0.80678 -2.27318,1c-0.63968,0.20729 -1.62097,0.43001 -2.58867,0.89999c-0.72002,0.3497 -1.58766,0.92111 -2.30399,1.18933c-0.7361,0.27562 -1.87138,0.3358 -2.54668,0.78c-0.75996,0.49988 -1.34813,1.31351 -1.91733,1.91335c-0.55618,0.58612 -0.85745,1.5672 -1.696,1.892c-0.88004,0.34087 -1.62924,0.53676 -2.19067,0.912c-0.82916,0.5542 -1.35925,1.16304 -2.39867,1.94666c-0.57504,0.43353 -1.34283,0.80501 -2.23833,1.114l-0.709,0.40984l-0.338,0.84151" id="svg_10" stroke-width="2" stroke="#000" fill="none"/>
  <polyline timestamps="34985,35152" startTime="1443055212559" id="svg_11" points="59.503466844558716,241.88888478279114 59.503466844558716,243.68888478279112 " stroke-linecap="round" stroke-width="2" stroke="#000" fill="none"/>
  <path t="35817,35928,35937,35937,35937,35960,35960,35960,35976,35977,35977,35977,35994,35994,35994,35994,35994,36009,36009,36009,36009,36009,36025,36025,36025,36025,36025,36025,36045,36045,36045,36045,36045,36059,36059,36059,36059,36059,36075,36076,36076,36076,36093,36093,36093,36093,36094,36109,36109,36109,36125,36125,36125,36125,36125,36144,36144,36144,36144,36144,36160,36160,36161,36161,36161,36161,36161,36178,36178,36178,36178,36178,36203,36204,36204,36204,36204,36224,36224,36224,36224,36224,36224,36225,36284,36284,36284,36284,36285,36285,36285,36285,36285,36329,36330,36330,36330,36330,36330,36330,36330,36330,36342,36342,36342,36342,36342,36342,36342,36342,36343,36378,36378,36379,36379,36379,36379,36379,36379,36379,36412,36412,36412,36412,36412,36412,36444,36445,36445,36445,36479,36480,36529,36529,36529,36529,36546,36547,36547,36547,36547,36582,36614,36614,36614,36670,36671,36691,36691,36737,36737,36756,36756,36788,36821,36822,36854,36854,36909,36909,36925,36925,36952,36952,36982,36982,37020,37020,37021,37021,37064,37064,37064,37078,37078" d="m59.50347,245.88889c0.85067,1.41066 1.67239,2.16415 1.96,2.82533c0.29932,0.6881 1.10568,1.43364 1.6025,1.67467c0.83221,0.40373 1.74429,0.80995 2.64817,1.336c0.63005,0.36668 1.2663,0.78004 2.311,1.364c0.73428,0.41043 1.51859,0.8029 1.925,1c0.83712,0.40599 2.17343,1.00273 2.63733,1.19867c0.93887,0.39656 1.41129,0.59303 2.36333,0.94417c1.37941,0.50876 1.83149,0.6355 2.7,0.909c0.85281,0.26855 1.70953,0.54709 2.13667,0.7175c1.35148,0.53915 1.80239,0.79404 2.74133,1.28134c0.47589,0.24698 1.40665,0.77658 2.808,1.41599c0.44025,0.20087 1.30077,0.52274 2.10416,0.8125c0.74392,0.26831 1.74386,0.66318 2.56167,1.17352c0.53168,0.33179 1.33169,0.91595 2.36484,1.32599c0.77911,0.3092 1.63706,0.51779 2.06,0.64667c0.82613,0.25174 1.91787,0.68542 2.8,1.18933c0.55577,0.31747 1.77084,0.87729 2.52933,1.01868c0.82863,0.15445 1.27571,0.14365 2.14584,0.32916c1.28283,0.27353 2.04202,0.67993 2.7715,1.12415c0.75894,0.46213 1.11473,0.78668 2.496,1.38c0.50773,0.21808 1.64656,0.52328 2.24533,0.65067c0.607,0.12912 1.83361,0.3237 2.43733,0.39468c1.14913,0.1351 2.19453,0.20636 3.14267,0.26266c0.44543,0.02646 1.29796,0.04581 2.508,0.19199c0.80554,0.09732 1.62192,0.26654 2.472,0.444c0.89929,0.18771 1.86018,0.39545 2.904,0.58936c0.55574,0.10324 1.1376,0.20682 2.38934,0.39999c0.67178,0.10367 1.37775,0.20712 2.90134,0.39999c0.81886,0.10367 1.67436,0.20157 2.562,0.2955c0.91502,0.09683 1.85435,0.18729 2.814,0.26849c0.97504,0.08252 1.96188,0.16492 3.95734,0.26935c0.99931,0.05231 1.99724,0.08478 2.991,0.1095c0.98759,0.02457 1.96733,0.03827 2.93701,0.04648c0.95764,0.00812 1.90132,0.01001 3.73866,0.01068c0.88966,0.00034 1.75732,0 2.601,0c0.81767,0 1.60733,0 2.367,0c0.72766,0 1.42133,0 2.69867,0c0.58099,0 1.12799,0 1.64699,0c0.49701,0 0.97801,0 1.44901,0c0.467,0 0.936,0 1.90401,0c1.03333,0 1.56749,0 2.64583,0c0.53416,0 1.5675,0 2.95616,0c0.78867,0 1.48134,0 2.37534,0c1.00667,0 1.95067,0 3.02267,0c0.63733,0 1.33865,0 2.47566,0c1.19099,0 1.987,0 2.759,0c0.724,0 1.37599,0 2.56499,0c1.03368,0 1.71367,0 2.55368,0c0.99599,0 1.7925,0 2.98,0c0.8125,0 1.6635,-0.09158 2.508,0.03601c0.96126,0.14523 1.61536,0.7045 2.46133,0.98932c0.84145,0.28329 1.55212,0.63586 2.564,0.85318c0.78833,0.16931 1.8,0.12149 2.58934,0.12149c1.04401,0 1.83647,-0.02704 2.69467,0.00134c0.86465,0.02859 1.74625,0.41293 2.383,0.646c0.87018,0.31848 1.83009,0.3248 2.52899,0.34198c0.72252,0.01776 2.11601,0.01202 2.74667,0.02136l0.8385,0.04648l1.04817,0.22684l0.76799,0.43201" id="svg_12" stroke-width="2" stroke="#000" fill="none"/>
  <path t="38273,38352,38352,38352,38368,38368,38368,38385,38385,38385,38385,38402,38402,38402,38402,38402,38402,38430,38431,38431,38431,38431,38431,38431,38431,38431,38451,38451,38451,38451,38451,38451,38451,38451,38451,38467,38468,38468,38468,38468,38468,38468,38468,38468,38485,38485" d="m114.50346,270.88889c-2.842,2.00983 -3.01778,2.80829 -3.252,3.31732c-0.48756,1.05966 -1.29462,1.67709 -1.80433,2.13535c-0.78472,0.70551 -1.28838,1.21149 -1.92284,2.08899c-0.43758,0.60519 -1.0217,1.62451 -1.42616,2.34769c-0.21313,0.38107 -0.6657,1.20163 -1.22334,2.08667c-0.30597,0.4856 -1.03356,1.52731 -1.4575,2.08899c-0.4518,0.59857 -0.9458,1.22095 -1.4685,1.875c-0.54824,0.686 -1.12547,1.3988 -1.7205,2.14499c-0.61703,0.77377 -1.89554,2.41196 -2.54533,3.2785c-0.66096,0.88141 -1.31429,1.77774 -1.9515,2.68051c-0.6284,0.89029 -1.22893,1.76788 -1.78951,2.6265c-0.53382,0.81763 -1.44807,2.32428 -1.80949,3c-0.3257,0.60892 -0.59281,1.17001 -0.813,1.68149c-0.19714,0.45792 -0.352,0.87601 -0.489,1.24951l-0.119,0.3345l-0.208,0.564l-0.38933,0.79199" id="svg_13" stroke-width="2" stroke="#000" fill="none"/>
  <path t="39186,39296,39318,39340,39340,39340,39363,39363,39363,39363,39378,39378,39379,39413,39413,39413,39451,39451,39451,39451,39452,39480,39480,39480,39513,39513,39513,39664,39672,39711,39711,39760,39760,39760,39782,39782,39782,39782,39782,39782,39782,39782,39829,39829,39829,39829,39829,39829,39829,39829,39829,39857,39857,39857,39857,39857,39857,39857,39857,39857,39871,39872,39872,39872,39872,39872,39872,39872,39872,39907,39907,39907,39907,39907,39907,39907,39907,39907,39937,39937,39937,39937,39937,39938,39938,39938,39938,39981,39981,39981,39982,39982,39982,39982,39982,39982,40019,40019,40019,40020,40020,40020,40020,40020,40020,40055,40055,40055,40056,40056,40056,40056,40056,40056,40100,40100,40100,40100,40100,40100,40100,40100,40101,40131,40131,40131,40131,40131,40131,40132,40132,40132,40181,40181,40181,40181,40181,40181,40181,40182,40182,40198,40199,40199,40199,40199,40199,40199,40219,40219,40232,40232,40232,40232,40232,40233,40233,40233,40233,40278,40279,40279,40279,40280,40280,40280,40280,40280,40297,40298,40298,40298,40298,40298,40298,40299,40299,40384,40384,40384,40385,40385,40385,40385,40385,40385,40413,40413,40413,40413,40414,40414,40414,40496,40526,40576,40576,40624,40649,40675,40739,40739,40750,40751,40751,40793,40793,40813" d="m124.50346,274.88889c-1.16933,1.71466 -2.17168,1.86008 -2.66666,2.5c-0.52593,0.67993 -0.42204,1.64523 -0.83334,2.5c-0.30141,0.6264 -1.02151,1.47858 -1.49916,2.04285c-0.66846,0.78967 -1.18559,1.50357 -1.6155,2.14648c-0.54518,0.81528 -1.07578,1.3916 -1.56001,2.08267c-0.7168,1.02298 -0.94193,1.69626 -1.21066,2.37866c-0.27525,0.69897 -0.47915,1.45834 -1.38267,2.57867c-0.43567,0.54019 -1.03221,0.89584 -1.89867,1.77066c-0.55349,0.55884 -0.85515,1.54846 -1.73333,1.92801c-0.82878,0.35822 -1.80268,0.06876 -2.57067,0.07199c-1.06619,0.00452 -1.67741,0.02133 -2.42416,0.11432c-1.44392,0.17984 -2.01407,0.32224 -2.6305,0.46167c-0.65775,0.14877 -1.3551,0.30447 -2.792,0.78934c-0.75425,0.25452 -1.52892,0.52869 -3.016,1.30133c-0.75856,0.39413 -1.48735,0.86252 -2.205,1.35751c-0.72256,0.49838 -1.42435,1.03281 -2.115,1.58249c-0.6894,0.54871 -1.36047,1.11279 -2.68,2.22668c-0.64606,0.54538 -1.28613,1.08597 -1.92751,1.62299c-0.64529,0.54031 -1.30106,1.08606 -1.9725,1.64099c-0.69021,0.57043 -1.40531,1.15903 -2.93333,2.40268c-0.81794,0.66571 -1.67265,1.35468 -2.544,2.08051c-0.89409,0.74475 -1.79704,1.51508 -2.688,2.32349c-0.89852,0.81528 -1.81023,1.62912 -3.43466,3.42935c-0.80253,0.88937 -1.53478,1.82291 -2.2155,2.772c-0.66989,0.93402 -1.28025,1.88498 -1.8285,2.84399c-0.53518,0.93616 -1.04618,1.85947 -1.78934,3.71732c-0.35194,0.87982 -0.62131,1.75516 -0.834,2.61002c-0.20544,0.82568 -0.3506,1.63779 -0.438,2.42999c-0.08476,0.76828 -0.14848,1.52216 -0.06133,2.95999c0.04192,0.69171 0.14247,1.36441 0.3075,2.00552c0.16227,0.63034 0.3932,1.23898 0.7125,1.79849c0.32285,0.56573 0.70047,1.14835 1.81333,2.02933c0.60656,0.48016 1.34558,0.86505 2.1465,1.224c0.8511,0.38144 1.78597,0.70895 2.7855,1.008c1.0515,0.31458 2.16556,0.60916 4.568,1.10135c1.27063,0.26031 2.58855,0.48749 3.9435,0.6825c1.37983,0.19861 2.78411,0.35846 4.2045,0.45749c1.42557,0.0994 2.85876,0.20187 5.68533,0.02667c1.39221,-0.0863 2.75698,-0.28683 4.0785,-0.56549c1.29376,-0.27283 2.53837,-0.62906 3.7095,-1.07852c1.13512,-0.43564 2.25428,-0.87466 4.04533,-2.18933c0.84688,-0.62161 1.55758,-1.36685 2.1675,-2.14798c0.59705,-0.76465 1.08882,-1.58853 1.4925,-2.436c0.39802,-0.83557 0.74393,-1.68875 1.17333,-3.41602c0.20854,-0.83887 0.33913,-1.68079 0.4335,-2.51398c0.09353,-0.82581 0.14,-1.6524 0.1545,-2.47803c0.01453,-0.82721 0.00397,-1.65945 -0.088,-3.34131c-0.04672,-0.85449 -0.11482,-1.71234 -0.1905,-2.56802c-0.07503,-0.84833 -0.16016,-1.68237 -0.2535,-2.496c-0.09044,-0.78839 -0.17889,-1.54572 -0.38934,-2.93597c-0.09486,-0.62668 -0.19637,-1.20764 -0.3045,-1.7475c-0.10151,-0.50681 -0.21091,-0.98309 -0.3315,-1.43253c-0.11597,-0.43225 -0.23591,-0.85147 -0.53067,-1.65332c-0.14796,-0.40253 -0.31564,-0.80072 -0.486,-1.20001c-0.17097,-0.40073 -0.34818,-0.79962 -0.522,-1.19998c-0.17351,-0.39963 -0.353,-0.7955 -0.65866,-1.60001c-0.15097,-0.39734 -0.28321,-0.79538 -0.4095,-1.18649c-0.123,-0.38092 -0.23558,-0.75125 -0.3465,-1.1055c-0.10545,-0.33673 -0.19453,-0.65759 -0.41067,-1.20801c-0.0935,-0.2381 -0.1952,-0.44586 -0.29549,-0.62851c-0.09073,-0.16522 -0.18298,-0.30945 -0.2685,-0.43948c-0.07821,-0.11893 -0.16129,-0.22217 -0.26933,-0.43201c-0.05024,-0.09756 -0.08466,-0.19913 -0.1095,-0.29999c-0.02445,-0.09924 -0.04032,-0.19968 -0.0465,-0.30002c-0.03072,-0.49899 -0.51046,-1.14557 -0.88916,-1.84283c-0.3583,-0.6597 -0.12151,-1.79999 -0.12151,-2.65717c0,-0.89999 0.21615,-1.80237 0.876,-1.95267c0.88133,-0.20074 1.8,-0.38333 2.44801,-0.55798l1.17599,-0.38934l0.792,-0.38934l0.80784,-0.48932" id="svg_14" stroke-width="2" stroke="#000" fill="none"/>
  <path t="41938,42040,42053,42053,42078,42091,42111,42127,42141,42176,42177" d="m196.50346,277.88889c-0.97916,1.02084 -0.82137,2.01746 -1.08533,2.79868c-0.30055,0.88953 -0.89667,1.60077 -0.91467,2.50131c-0.01799,0.89984 0,1.80002 0,2.70001l0,0.79999" id="svg_15" stroke-width="2" stroke="#000" fill="none"/>
  <path t="42561,42601,42617,42617,42629,42644,42644,42661,42661,42677,42677,42677,42825,42889,42889,42901,42913,42914,42929,42944,42960,42974,42974,42996,42996,42996,43010,43010,43011,43011,43027,43028,43044,43059,43059,43077,43094,43112,43112,43127,43144,43144,43157,43157,43177,43177,43194,43210,43210,43228,43243,43243,43260,43277,43278,43294,43310,43310,43310,43310,43327,43328,43328,43339,43340,43361,43361,43361,43377,43395,43410,43426,43426,43445,43445,43461,43461,43478,43479,43495,43511,43526,43545,43545,43562,43562,43562,43579,43579,43595,43617,43617,43633,43645,43666,43681,43682,43693,43711,43728,43744,43764,43764,43778,43778,43796" d="m206.50346,277.88889c0,2.62534 0,3.48401 0,4.34732c0,0.90002 0.07367,1.82446 -0.02083,2.65268c-0.11327,0.99274 -0.6429,1.63391 -1.07899,2.54266c-0.33093,0.68961 -0.52071,1.45816 -0.81618,2.48532c-0.23317,0.81061 -0.97374,1.03796 -1.90933,0.96133c-1.01659,-0.08328 -1.57645,-0.69485 -2.57466,-0.95331c-0.87198,-0.22577 -1.91075,0.15439 -2.60001,-0.36935c-0.67358,-0.51184 -1.13803,-1.42749 -1.85733,-1.59467c-0.64725,-0.15042 -1.78534,-0.07199 -2.448,-0.07199c-1.04401,0 -1.72667,0 -2.92267,0c-0.91467,0 -1.7505,0 -2.772,0c-0.8,0 -1.78534,0.06808 -1.964,0.86133c-0.21371,0.94891 -0.0941,1.83365 -0.536,2.63867c-0.44379,0.80847 -0.49933,1.47067 -0.5,2.50534c-0.00049,0.74399 0,1.85165 0,2.68567c0,0.82983 -0.00217,1.793 0,2.65631c0.00226,0.89551 0.29657,1.70517 0.716,2.45267c0.42641,0.75992 0.96672,1.55115 1.63583,1.84283c0.87096,0.37967 1.9846,0.51312 2.66251,0.71436c0.81088,0.24072 1.38664,0.44925 2.58432,0.84149c0.58986,0.19318 1.43256,0.50275 2.47984,0.67984c0.89359,0.15112 1.92149,0.12149 2.71083,0.12149c0.72533,0 1.8,0 2.71066,0c0.8045,0 1.8215,0 2.52084,0c0.97916,0 1.87321,0.21896 2.8125,-0.33334c0.63884,-0.37564 1.16925,-1.32861 1.86665,-1.71481c0.69194,-0.38318 1.17506,-1.15649 1.30017,-2.05185c0.12665,-0.90646 0.67072,-1.54419 0.87834,-2.44284c0.16289,-0.70499 0.11923,-1.50897 0.12149,-2.77048c0.00114,-0.64502 0,-1.66519 0,-2.68668c0,-0.79999 0,-1.70001 0,-2.60001c0,-0.81067 0.19719,-1.7543 -0.036,-2.53867c-0.27138,-0.91284 -1.36308,-0.86008 -1.964,-1.36133c-0.65759,-0.54849 -1.32133,-0.94266 -2,-1.5l-0.83333,-0.66666l-0.72,-0.34802l-0.5565,-0.63266" id="svg_16" stroke-width="2" stroke="#000" fill="none"/>
  <path t="44666,44689,44689,44689,44689,44700,44700,44721,44721,44721,44736,44736,44736,44759,44759,44759,44759,44759,44759,44776,44777,44777,44777,44777,44788,44788,44889" d="m303.50348,292.88889c0.28531,3.88266 0.42438,4.61755 0.61066,5.33865c0.17953,0.69498 0.56863,1.89954 0.88934,2.61969c0.47006,1.05551 0.76544,1.66504 1.25714,2.44165c0.52386,0.82745 1.0994,1.41058 1.41751,1.90802c0.7337,1.14731 0.94543,1.9462 1.08167,2.35898c0.28836,0.87369 0.58887,1.7988 0.79834,2.25168c0.64365,1.39154 0.97531,1.80789 1.61066,2.61334c0.60339,0.76492 1.19733,1.41064 1.84866,2.20349l0.44336,0.83249l0.04266,0.89035" id="svg_17" stroke-width="2" stroke="#000" fill="none"/>
  <path t="45145,45217,45228,45228,45228,45228,45242,45243,45243,45243,45243,45258,45259,45259,45276,45276,45276,45276,45276,45276,45292,45292,45293,45293,45293,45293,45305,45305,45305,45306,45306,45326,45326,45327,45327,45342,45343,45343,45360,45360,45360,45360,45376,45377,45377,45391,45391,45553,45553,45564,45577,45594,45594,45594,45610,45610,45610,45610,45627,45627,45627,45627,45638,45638,45639,45661,45661,45661,45677,45678,45678,45678,45693,45694,45710,45710,45724,45725,45725,45743,45744,45744,45744,45744,45760,45760,45761,45761,45761,45778,45778,45778,45779,45779,45779,45779,45793,45793,45794,45794,45794,45810,45810,45820,45821,45821,45821,45866,45867,45867,45867,45867,45893,45894,45894,45894,45894,45894,45894,45894,45894,45935,45935,45935,45935,45936,45937,45937,45937,45937,45968,45969,45969,45969,45969,45970,45970,45970,45970,45990,45990,45990,45990,45990,45990,45991,45991,45991,46035,46035,46035,46035,46036,46036,46036,46036,46036,46060,46061,46061,46061,46062,46062,46062,46062,46062,46071,46071,46071,46071,46071,46071,46072,46072,46072,46093,46094,46094,46094,46095,46095,46095,46095,46096,46110,46110,46111,46111,46111,46112,46112,46112,46112,46127,46128,46128,46129,46129,46143,46143,46144,46154,46155,46155,46155,46177,46178,46178,46179,46193,46193,46193,46210,46211,46228,46237,46238,46265,46281,46281,46292,46310,46311,46323,46324,46343,46344,46344,46360,46371,46372,46401,46413,46433,46446,46447,46460,46460,46477,46489,46490,46490,46490,46490" d="m309.50348,280.88889c1.52081,1.54166 2.17755,2.32568 2.65717,3.01883c0.37219,0.53787 0.76181,1.13885 1.34283,2.14783c0.40894,0.71017 0.79242,1.44641 1.164,2.172c0.35361,0.69049 0.94916,1.89682 1.22131,2.42136c0.41812,0.80582 0.9411,1.74405 1.38666,2.49466c0.50293,0.84729 0.7851,1.29056 1.08536,1.74133c0.61954,0.93015 1.30014,1.84488 2.02399,2.71866c0.35782,0.43195 1.08261,1.25986 1.42133,1.67468c0.65363,0.80051 1.23486,1.59094 1.64136,2.40933c0.38428,0.77365 0.63016,1.56351 0.85199,2.31598c0.31287,1.06131 0.60141,2.05429 0.84,2.67468c0.23633,0.61447 0.84976,1.80896 1.17868,2.41068c0.32706,0.5983 0.88379,1.79248 1.07999,2.6955c0.12592,0.57956 0.17743,1.46307 0.67334,2.41916c0.36493,0.70355 0.9841,1.23734 1.32217,2.28534c0.25037,0.77606 0.59006,1.75598 0.6485,2.52798c0.06534,0.86313 -1.05951,0.87201 -1.86069,0.87201c-0.76132,0 -1.53531,0 -2.54214,0c-0.79834,0 -1.65668,0 -2.535,0c-1.26752,0 -2.03018,0 -2.72885,0c-0.96298,0 -2.17181,0 -2.76749,0c-0.8685,0 -1.93817,-0.01749 -2.65634,0.00449c-0.95901,0.02933 -2.09436,0.20084 -2.74899,0.35718c-0.68262,0.16302 -1.71014,0.42462 -2.43466,0.95966c-0.78546,0.58005 -1.26129,1.5144 -1.66452,2.05334c-0.59525,0.79556 -1.01105,1.48889 -1.41431,2.14417c-0.5062,0.82254 -0.96304,1.44476 -1.42569,2.15317c-0.48462,0.74207 -0.99142,1.49945 -1.396,2.72852c-0.26224,0.79663 -0.28284,1.23239 -0.44,2.10748c-0.17041,0.94901 -0.4061,1.99762 -0.776,3.14401c-0.19653,0.60913 -0.42398,1.224 -0.64798,1.84799c-0.224,0.62399 -0.68625,1.83701 -1,3c-0.27823,1.03137 -0.35434,1.51212 -0.4375,2.375c-0.07117,0.73819 -0.10541,2.07645 -0.02652,2.80099c0.11948,1.09747 0.29385,1.70111 0.54733,2.34485c0.40961,1.04019 1.16223,1.95941 1.79718,2.48282c0.33896,0.27942 1.12787,0.81287 1.54733,1.116c1.42053,1.02649 1.91763,1.46448 2.45084,1.92035c0.56421,0.48236 1.15298,0.99854 1.78799,1.52249c0.66614,0.54965 1.37192,1.11713 2.14801,1.6575c1.65762,1.15417 2.60623,1.67419 3.60132,2.19067c1.03189,0.53558 2.12524,1.03748 3.27151,1.50598c1.1778,0.48138 2.40292,0.93259 3.67648,1.32602c2.62045,0.80954 3.99649,1.10724 5.38535,1.39865c1.39664,0.29303 2.80353,0.54086 4.20898,0.75452c1.392,0.21161 2.76788,0.38986 4.11902,0.52948c2.58676,0.2673 3.81345,0.341 4.98666,0.39999c1.11823,0.05621 2.18143,0.08398 3.186,0.07053c0.94489,-0.01266 1.83063,-0.04727 2.646,-0.15451c1.44501,-0.19003 2.06326,-0.3808 2.60532,-0.604c0.50439,-0.2077 0.95395,-0.47672 1.332,-0.80399c0.375,-0.32462 0.70297,-0.71667 0.97202,-1.164c0.58405,-0.9711 0.78415,-1.57269 1.00665,-2.19601c0.2338,-0.655 0.44055,-1.35074 0.62552,-2.07748c0.19003,-0.74664 0.35794,-1.51581 0.49048,-2.30252c0.26764,-1.58871 0.33917,-2.39163 0.39734,-3.18665c0.05734,-0.78348 0.08359,-1.55347 0.0705,-2.30252c-0.01266,-0.72449 -0.04953,-1.42206 -0.15448,-2.07748c-0.1925,-1.20218 -0.38995,-1.72546 -0.59335,-2.20001c-0.19171,-0.44724 -0.41821,-0.85013 -0.64798,-1.2225c-0.21857,-0.35425 -0.45032,-0.67639 -0.64801,-0.9975c-0.36771,-0.59726 -0.49713,-0.90356 -0.59866,-1.20801c-0.10013,-0.30023 -0.16956,-0.60873 -0.23251,-0.91949c-0.06372,-0.31458 -0.11481,-0.63779 -0.1875,-0.96448c-0.15234,-0.68469 -0.25797,-1.04279 -0.54315,-1.76285c-0.29254,-0.73859 -0.80917,-1.78168 -1.26868,-2.70898c-0.3869,-0.78082 -0.72937,-1.48599 -1.12183,-2.46451c-0.21552,-0.53732 -0.54987,-1.43564 -0.87033,-2.065c-0.53635,-1.05334 -1.02286,-1.76895 -1.55017,-2.47168c-0.51532,-0.68671 -1.29517,-1.56113 -1.79117,-1.98566c-0.60529,-0.51807 -1.33932,-1.23016 -1.85599,-1.85599c-0.57864,-0.70087 -1.36575,-1.30051 -1.88019,-1.84283c-0.64957,-0.68478 -1.07651,-1.39066 -1.5625,-1.95718c-0.63754,-0.74326 -1.4823,-1.06631 -2.18933,-1.56934c-0.75778,-0.53912 -0.94211,-1.28265 -1.96667,-1.94531c-0.672,-0.43463 -1.38556,-0.67685 -2.14667,-1.27469c-0.66089,-0.51913 -1.49289,-0.29541 -2.43997,-0.62134c-0.76678,-0.26389 -1.29327,-0.98398 -2.13202,-0.98932c-0.91913,-0.00586 -1.93173,0.13626 -2.64267,-0.03601c-0.91156,-0.22086 -1.70532,-0.79733 -2.29599,-0.87866l-1.13849,-0.06448l-0.41885,-0.01016l-0.85464,-0.00934" id="svg_18" stroke-width="2" stroke="#000" fill="none"/>
  <path t="46914,46985,47001,47201" d="m300.50348,287.88889" id="svg_19" stroke-width="2" stroke="#000" fill="none"/>
  <path t="47834,47921,47935,47949,47962,47978,47978,47993,47993,48297,48313,48313,48329,48330,48343,48344,48344,48361,48378,48378,48387,48387,48405,48405,48430,48430,48444,48444,48463,48472,48472,48494,48513,48513,48528,48528,48706" d="m274.50348,292.88889c0.57465,1.60001 0.98199,2.39944 1,3.29999c0.01804,0.90115 0,1.86667 0,2.70001c0,0.97849 -0.96152,2.65701 0,2.65701c0.85968,0 0,-1.62769 0,-2.66684c0,-0.77551 0,-1.82352 0,-2.5285c0,-0.80002 0,-1.83633 0,-2.78299c0,-0.85336 0,-1.79602 0,-2.48853c0,-0.95816 0,-1.93948 0,-2.85681c0,-0.8125 0,-1.81735 0,-2.50803c0,-1.06815 0,-1.92548 0,-2.71066c0,-0.94 0,-1.948 0,-2.73999l0,-0.85867l0,-0.86331l0,-0.89551" id="svg_20" stroke-width="2" stroke="#000" fill="none"/>
  <path t="50203,50225,50225,50225,50237,50238,50261,50261,50261,50261,50272,50272,50272,50272,50272,50294,50294,50294,50294,50294,50294,50294,50310,50311,50311,50311,50311,50311,50322,50322,50322,50322,50322,50322,50322,50322,50344,50344,50344,50344,50344,50344,50345,50345,50345,50361,50361,50361,50361,50361,50361,50361,50361,50362,50378,50379,50379,50379,50379,50379,50379,50379,50379,50395,50395,50395,50396,50396,50396,50396,50396,50396,50404,50405,50405,50405,50405,50405,50405,50405,50405,50428,50429,50429,50429,50429,50429,50429,50429,50429,50436,50437,50437,50437,50437,50437,50437,50437,50437,50460,50461,50461,50461,50461,50461,50461,50462,50462,50477,50477,50477,50478,50478,50478,50489,50489,50608,50609,50632,50633,50650,50650,50675,50675,50675,50675,50675,50691,50692,50692,50692,50692,50692,50692,50692,50728,50729,50729,50729,50729,50729,50743,50744,50744,50744,50744,50745,50745,50745,50745,50761,50762,50762,50762,50762,50762,50762,50762,50763,50778,50779,50779,50779,50779,50779,50779,50779,50780,50794,50795,50795,50795,50795,50795,50796,50796,50796,50804,50804,50805,50805,50805,50805,50805,50805,50805,50821,50821,50821,50821,50822,50822,50822,50822,50822,50845,50845,50845,50845,50845,50846,50846,50860,50860,50861,50861,50861,50861,50861,50862,50876,50876,50876,50877,50893,50894,50894,50895,50895,50910,50910,50911,50911,50911,50926,50926,50927,50927,50927,50927,50944,50945,50945,50945,50959,50959,50959,50960,50960,50960,50960,50977,50978,50978,50979,50993,50994,50994,50994,51011,51011,51012,51012,51027,51028,51044,51060,51060,51078,51078,51094,51111,51111,51112,51112,51125,51125,51125,51126,51143,51144,51144,51155,51155,51155,51182,51182,51183,51183" d="m293.50348,294.88889c2.95267,0 3.5,0 4.31598,0c1.23135,0 1.90936,0.00748 3.10583,-0.00015c0.83557,-0.00531 1.4621,-0.0206 2.15018,-0.08517c1.17389,-0.11017 2.04749,-0.26816 2.99051,-0.43552c0.49515,-0.08789 1.52499,-0.2832 2.60416,-0.47916c1.11682,-0.20282 1.68597,-0.30017 2.25867,-0.39999c1.14926,-0.20035 1.7222,-0.29874 2.29065,-0.39999c1.6637,-0.29633 2.20245,-0.40125 3.28003,-0.60001c0.54553,-0.10062 1.67053,-0.30273 2.25867,-0.39999c1.24438,-0.20578 1.91028,-0.30054 2.60532,-0.40268c0.72498,-0.10654 2.26556,-0.3356 3.08002,-0.46933c0.84555,-0.13882 1.72354,-0.28094 3.56,-0.66135c0.96564,-0.20001 1.95004,-0.43158 2.94897,-0.672c1.00644,-0.24222 2.0094,-0.49442 3.00302,-0.74399c0.97571,-0.24509 1.92279,-0.49323 3.71466,-0.91733c0.82553,-0.1954 1.61264,-0.36734 2.37,-0.5235c0.73599,-0.15173 1.46301,-0.29083 2.19,-0.4245c0.73633,-0.13538 1.49347,-0.26727 3.10666,-0.552c0.87408,-0.15427 1.7919,-0.31812 2.74802,-0.48602c0.98785,-0.17346 2.00162,-0.34943 3.03598,-0.522c1.04764,-0.17477 2.10229,-0.35291 4.216,-0.65866c1.04419,-0.15106 2.07983,-0.28403 3.10501,-0.414c1.0148,-0.12866 2.0202,-0.25104 3.01498,-0.37799c0.98523,-0.12573 1.96237,-0.24313 3.88,-0.54132c0.9454,-0.147 1.87415,-0.31308 2.7825,-0.48602c0.88498,-0.16852 1.73904,-0.34406 2.5575,-0.522c0.77985,-0.16956 1.51514,-0.33392 2.82669,-0.65866c0.5726,-0.14178 1.09427,-0.28152 1.5795,-0.405c0.45746,-0.11642 0.89853,-0.22537 1.33649,-0.315c0.44177,-0.09042 0.90054,-0.17975 1.91733,-0.28c0.57254,-0.05646 1.1879,-0.08511 1.8345,-0.11398c0.66937,-0.02988 1.35303,-0.05157 2.0415,-0.078c0.68454,-0.02628 1.35733,-0.0401 2.62399,-0.14133c0.58173,-0.04651 1.12903,-0.11331 1.647,-0.19501c0.49808,-0.07855 0.97919,-0.1748 1.44901,-0.285c0.46826,-0.10983 0.93826,-0.2323 1.90399,-0.51999c1.03314,-0.3078 1.5585,-0.48148 2.60419,-0.8125c0.50381,-0.15948 1.42377,-0.50732 2.83716,-0.85019c0.63638,-0.15436 2.45834,0.58102 2.45834,-0.17065c0,-0.33319 -1.12817,-0.10883 -2.07968,0.03201c-0.85999,0.12729 -1.582,0.62421 -2.133,1.04398c-0.65298,0.49747 -1.40494,1.10269 -1.84833,1.41333c-0.99283,0.69556 -2.18967,1.39734 -2.83984,1.74985c-0.66583,0.36099 -1.34946,0.70584 -2.0415,1.0275c-0.68112,0.31659 -1.33923,0.64087 -2.62399,1.06668c-1.12027,0.37131 -1.66281,0.46371 -2.70834,0.64581c-0.53061,0.09241 -1.09045,0.13779 -2.95831,0.52084c-0.73175,0.15005 -1.51035,0.35074 -2.33401,0.56699c-0.86176,0.22623 -1.74966,0.47345 -2.65799,0.729c-0.92102,0.25912 -1.84387,0.52792 -3.67468,1.03735c-0.88962,0.24753 -1.76187,0.483 -2.61899,0.70499c-0.84158,0.21796 -1.67175,0.42389 -2.49301,0.61499c-0.81143,0.18881 -1.61591,0.37415 -3.22131,0.68002c-0.79871,0.15219 -1.59946,0.28473 -2.40002,0.40948c-0.79947,0.1246 -1.5997,0.23828 -2.39999,0.3465c-0.79971,0.10812 -1.59991,0.21017 -3.19998,0.41068c-0.79996,0.10025 -1.59982,0.20013 -2.40002,0.2955c-0.7998,0.09531 -1.59967,0.18661 -2.39999,0.26849c-0.79968,0.08179 -1.59903,0.16476 -3.19998,0.26935c-0.79926,0.05222 -1.59723,0.08475 -2.39102,0.1095c-0.78757,0.02454 -1.56729,0.03824 -2.33701,0.04648c-0.75763,0.00809 -1.50131,0.00986 -2.93866,0.01068c-0.69034,0.0004 -1.36267,-0.00024 -2.01898,0.00449c-0.64233,0.00464 -1.27277,0.01324 -1.89301,0.03152c-0.61243,0.01807 -1.2197,0.03516 -2.42133,0.13065c-0.60095,0.04776 -1.80933,0.18811 -2.42136,0.26935c-0.62067,0.0824 -1.25055,0.17529 -2.54932,0.36533c-1.36258,0.19934 -2.07117,0.29974 -2.79199,0.39734c-0.72449,0.09808 -1.4451,0.19257 -2.15402,0.28049c-1.34888,0.16727 -1.97318,0.24338 -3.08331,0.35419c-0.89139,0.08896 -1.93948,0.1474 -2.84802,0.25064c-1.01901,0.11581 -1.8187,0.27042 -2.69366,0.41602c-0.45416,0.07559 -1.37366,0.24689 -2.73715,0.37851c-0.87134,0.08411 -1.30634,0.09363 -2.1825,0.11081c-0.9079,0.01779 -2.38116,0.01068 -2.90533,0.01068c-1.07333,0 -1.61252,0 -2.67084,0c-0.50919,0 -1.89883,0 -2.7135,0c-0.79068,0 -1.62134,0 -3.08234,0c-0.573,0 -1.18399,0 -1.82101,0c-1.30399,0 -1.94699,0 -2.56799,0c-1.61099,0 -2.38565,0 -3.21515,0c-0.69452,0 -1.90118,0 -2.68518,0c-0.84799,0 -1.28101,0 -2.54401,0c-1.1145,0 -1.77081,0 -2.64532,0c-1.00134,0 -1.84134,0 -2.93533,0c-0.91934,0 -1.57855,-0.03336 -2.586,0c-0.86362,0.02859 -1.56042,0.54468 -2.66666,0.83334c-0.54245,0.14154 -1.54156,0.1525 -2.25635,0.16217c-1.0769,0.01456 -2.08258,-0.0062 -2.702,0.02533c-0.85632,0.04355 -1.85513,0.27609 -2.80301,0.55383c-0.50601,0.14825 -1.70721,0.35251 -2.39999,0.38931c-0.72342,0.03842 -2.172,0.03601 -2.85199,0.03601l-0.94501,0l-0.58002,0" id="svg_21" stroke-width="2" stroke="#000" fill="none"/>
  <path t="53290,53425,53441,53462,53478,53495,53512,53512,53512,53531,53531,53545,53562,53578,53595,53612,53612,53622,53645,53662,53662,53662,53678,53678,53693,53693,53713,53713,53728,53729,53729,53745,53745,53746,53760,53760,53789,53790,53812,53813,53827,53841,53841,53862,53862,53878,53895,53906,53928,53929,53947,53962,53972,53996,54012,54028,54029,54041,54062,54078,54094,54094,54106,54129,54129,54145,54146,54162,54163" d="m158.50346,204.88889c-1.7,0 -2.64212,0.05759 -3.084,0.80133c-0.41533,0.69907 -0.75282,1.59132 -1.416,2.36534c-0.48146,0.56192 -1.32031,0.909 -2,1.66666c-0.5209,0.58067 -0.5,1.56667 -0.5,2.46667c0,0.89999 0,1.8 0,2.7c0,0.8 -0.20865,1.74016 0.07201,2.636c0.2939,0.93811 0.94249,1.37018 1.44533,1.88c0.84677,0.85854 1.34633,1.31549 2.13983,1.784c0.72992,0.43097 1.72995,0.92807 2.34283,1.17917c0.98166,0.40219 1.81017,0.50159 2.68533,0.5195c0.99846,0.02045 1.81467,0.00133 2.63068,0.00133c0.99866,0 1.87332,0 2.88382,0c0.77934,0 1.95465,0.3362 2.5135,-0.17067c0.66457,-0.60274 0.54845,-1.78749 0.86134,-2.45467c0.39215,-0.83614 0.42307,-1.72198 0.42532,-2.61749c0.00241,-0.95717 0,-1.85718 0,-2.75717c0,-0.8 0.37143,-1.80124 -0.036,-2.564c-0.39015,-0.73041 -1.56105,-0.89752 -1.91133,-1.74051c-0.34135,-0.82153 -0.44023,-1.79018 -1.05267,-2.36217c-0.71024,-0.66333 -1.21523,-1.27243 -2.10016,-1.33333c-0.78333,-0.05391 -1.72543,0.02289 -2.73317,0c-0.79262,-0.01801 -1.65201,-0.284 -2.37733,-0.57466l-0.98917,-0.30383l-0.77933,-0.10068" id="svg_22" stroke-width="2" stroke="#000" fill="none"/>
  <path t="54698,54881,54881,54895,54896,54913,54913,54929,54929,54940,54940,54940,54963,54963,54980,54980,54980,54997,54997,54997,55010,55010,55028,55028,55046,55046,55046,55046,55062,55063,55074,55074,55096,55096,55113,55129,55129,55140,55160,55160,55178,55179,55196,55206,55206,55206,55206,55229,55229,55249,55249,55264,55305,55305,55329,55345" d="m207.50346,225.88889c0.16667,1.83333 0.85553,2.22346 1.3,3.058c0.34337,0.64471 0.82956,1.54202 1.39999,2.04283c0.64484,0.56613 1.04182,1.35097 2.06934,1.72984c0.71873,0.26503 1.56064,0.19717 2.54668,0.45332c0.924,0.24002 1.84683,0.5816 2.63666,0.65883c0.81941,0.08012 1.88068,0.05717 2.59016,0.05717c0.85268,0 1.94017,0.2823 2.74284,-0.11433c0.76643,-0.37872 0.70982,-1.40897 0.71432,-2.52834c0.00267,-0.66266 0,-1.35733 0,-2.38933c0,-0.92484 0,-1.9055 0,-2.80133c0,-0.79201 0.26062,-1.92471 -0.17067,-2.59734c-0.46278,-0.72174 -1.66534,-0.73085 -2.30849,-1.06934c-0.82886,-0.43623 -1.84218,-0.5 -2.52084,-0.5c-0.9785,0 -1.79866,0 -2.70799,0c-1.05617,0 -1.65451,0 -2.65201,0c-0.67332,0 -1.868,0 -2.5775,0c-1.041,0 -2.06219,-0.49361 -2.77716,0.08533c-0.74464,0.60295 -0.37067,1.71468 -0.78534,2.41467l-0.44733,0.8" id="svg_23" stroke-width="2" stroke="#000" fill="none"/>
  <path t="55723,55761,55778,55778,55796,55822,55835,55835,55851,55851,55878,55896,55896,55913,55926,55926,55946,55946,55963,55979,55979,55992,55992,55992,56013,56013,56028,56045,56046,56046,56057,56057,56057,56078,56078,56078,56097,56097,56097,56112,56113,56121,56145,56163,56178,56186,56186,56203,56203,56203,56203,56204,56204,56227,56227,56227,56227,56243,56243,56297,56329,56330" d="m245.50346,225.88889c-1.75716,0 -2.71754,-0.2468 -3.43066,0.08533c-0.8223,0.38297 -1.50845,1.13051 -1.56934,2.08134c-0.04208,0.65732 0,1.66666 0,2.52882c0,0.94051 -0.00217,1.7885 0,2.65184c0.00226,0.89551 0.23424,1.90831 0.76167,2.35266c0.8196,0.69048 1.5544,1.06187 2.48566,1.24283c0.90421,0.1757 1.77351,0.05717 2.75267,0.05717c0.8,0 1.60069,0.03276 2.5955,-0.0045c0.74866,-0.02805 1.83591,-0.24538 2.23784,-1.16217c0.27802,-0.63417 0.16599,-1.51999 0.16666,-2.51866c0.00055,-0.83549 0,-1.716 0,-2.6145c0,-0.8895 0,-1.743 0,-2.77867c0,-0.90067 0,-1.52016 0,-2.517c0,-0.91916 0.12856,-2.10501 -0.61066,-2.39383c-0.82841,-0.32368 -1.78934,-0.01067 -2.71634,-0.01067c-0.716,0 -1.673,0 -2.57967,0c-0.51834,0 -1.63499,0 -2.21333,0c-1.14667,0 -2.21333,0 -3.136,0c-0.77867,0 -1.71167,0 -2.77333,0c-0.76801,0 -1.68533,0.08533 -1.97067,1l0,0.8" id="svg_24" stroke-width="2" stroke="#000" fill="none"/>
  <path t="56570,56705,56719,56746,56764,56764,56776,56777,56777,56777,56796,56797,56797,56814,56814,56814,56829,56844,56857,56873,56889,56889,56905,56906,56906,56906,56931,56931,56946,56946,56963,56970,56970,57002,57029,57029,57042,57089,57113,57130,57145,57161,57161,57180,57196,57217,57217,57266,57281,57297,57313,57385,57409" d="m257.50348,227.88889c0,2.58934 -0.14362,3.51326 0.01065,4.39999c0.14557,0.83667 0.80539,1.41711 1.53217,2.14267c0.46524,0.46445 0.95795,0.97977 1.77451,1.68933c0.7435,0.64609 1.45853,1.08894 2.07816,1.51617c1.02359,0.70576 1.54129,1.28668 2.11917,1.6825c0.90704,0.62128 1.88535,0.56934 2.78534,0.56934c0.89999,0 1.92801,0.18156 2.39999,-0.28583c0.64886,-0.64256 0.60922,-1.47881 0.77917,-2.235c0.25623,-1.14005 0.44131,-2.08928 0.5,-2.91667c0.07404,-1.04408 0.02084,-1.73717 0.02084,-2.80533c0,-0.85735 0,-1.6425 0,-2.5825c0,-1.008 -0.05661,-1.81396 -0.80133,-2.25867c-0.69815,-0.4169 -1.49731,-0.88741 -2.39868,-0.916c-0.89954,-0.02853 -1.79999,0 -2.60001,0c-0.89999,0 -1.836,0 -2.68399,0c-0.86334,0 -1.88,-0.00008 -2.716,0c-0.89984,0.00009 -1.716,0.284 -2.22534,0.97467l-0.55383,0.567" id="svg_25" stroke-width="2" stroke="#000" fill="none"/>
  <path t="57729,57760,57781,57781,57802,57827,57847,57847,57865,57866,57880,57880,57891,57907,57907,57923,57942,57942,57958,57958,57975,58001,58001,58009,58009,58009,58009,58025,58025,58040,58080,58080,58189,58189,58189,58189,58224,58225,58225,58225,58225,58225,58241,58241,58266" d="m295.50348,227.88889c-1.75717,0 -2.65268,0 -3.51602,0c-0.96317,0 -1.92087,-0.18042 -2.58383,0.44283c-0.638,0.59978 -0.83798,1.52994 -0.89883,2.44118c-0.06271,0.93924 -0.00131,1.632 -0.00131,2.616c0,0.98399 -0.00009,1.67467 0,2.74283c0.00009,0.85733 0.02524,1.66716 0.43597,2.5825c0.31989,0.71288 0.85541,1.71881 1.66467,2.05316c0.77286,0.31931 1.88467,0.12151 2.61002,0.12151c0.78934,0 1.57864,0 2.62265,0c0.92267,0 1.86829,0.02342 2.83334,0c0.65924,-0.01601 1.74194,-0.45534 2.06717,-1.08951c0.27036,-0.52716 0.42905,-1.65501 0.43283,-2.57716c0.00436,-1.06726 -0.07101,-1.63551 -0.12799,-2.21333c-0.11316,-1.1478 -0.19052,-1.69499 -0.37201,-3.12l-0.11401,-0.9525l-0.21933,-0.88083" id="svg_26" stroke-width="2" stroke="#000" fill="none"/>
  <path t="58650,58697,58713,58730,58730,58747,58763,58763,58763,58785,58785,58813,58813,58830,58830,58830,58840,58840,58862,58862,58880,58897,58904,58904,58923,58944,58958,58975,58975,58993,58993,58993,59020,59020,59020,59020,59039,59039,59039,59062,59063,59063,59079,59096,59103,59129,59129,59145,59146,59146,59160,59160,59180,59180,59240,59240,59240" d="m336.50348,229.88889c-1.70001,0 -2.63602,0 -3.48401,0c-0.86334,0 -1.94629,-0.0937 -2.68268,0.33333c-0.73026,0.42346 -1.19919,1.00035 -1.948,1.78267c-0.59592,0.62257 -1.1427,1.34264 -1.44934,2.09467c-0.39203,0.96143 -0.42447,1.80995 -0.43466,2.47467c-0.01529,0.99721 -0.00131,1.79384 -0.00131,2.98134c0,0.79166 -0.11661,1.7415 0.00449,2.63333c0.11151,0.82121 0.82059,1.35724 1.6955,1.75267c0.72266,0.32661 1.55261,1.05772 2.40033,0.72583c0.64398,-0.25212 1.44928,-0.86411 2.16101,-1.19984c0.79843,-0.37663 1.61777,-0.86757 2.27701,-1.59299c0.4534,-0.49892 1.00516,-1.37334 1.44,-2.28551c0.27969,-0.58669 0.62985,-1.45129 0.85498,-2.53349c0.14529,-0.6985 0.16602,-1.68001 0.16669,-2.64584c0.00058,-0.82083 0.02353,-1.72246 0,-2.6875c-0.02084,-0.85492 -0.29468,-1.85962 -0.70984,-2.42883c-0.43674,-0.59879 -1.26822,-1.38345 -1.76935,-1.88367c-0.72281,-0.7215 -1.33514,-1.22083 -2.28882,-1.7195l-0.73199,-0.2805l-0.73203,-0.23549" id="svg_27" stroke-width="2" stroke="#000" fill="none"/>
  <path t="59913,59953,59969,59984,60012,60012,60025,60025,60025,60025,60045,60045,60062,60062,60078,60089,60102,60128,60145,60154,60178,60178,60195,60209,60209,60227,60244,60244,60262,60272,60296,60296,60312,60312,60328,60328,60329,60337,60362,60379,60393,60393,60412,60429,60445,60445,60458,60458,60459,60478" d="m373.50348,214.88889c-2.58936,0.036 -3.5094,0.36589 -3.91602,1.2c-0.36737,0.75357 -0.74496,1.4852 -1.08398,2.3c-0.3486,0.83784 -0.50085,1.49487 -0.71469,2.448c-0.22266,0.99251 -0.28305,1.79565 -0.28531,2.70467c-0.00214,0.86334 -0.00232,1.82651 0,2.74733c0.00226,0.89552 0.43546,1.582 1.39999,1.60001c0.89984,0.0168 1.70016,0 2.48532,0c0.94,0 1.97971,0.18144 2.81018,-0.05717c0.7688,-0.2209 1.50537,-0.96494 1.94733,-1.64282c0.47849,-0.73392 0.86044,-1.53639 1.19049,-2.46667c0.28287,-0.7973 0.16669,-1.81216 0.16669,-2.49466c0,-1.10667 0,-1.83867 0,-2.57066c0,-1.09601 0,-1.968 0,-2.86801c0,-0.89999 0.20941,-1.73849 -0.05719,-2.59999c-0.26804,-0.86617 -1.25479,-1.26974 -1.99881,-1.29868c-0.99396,-0.03865 -1.92319,-0.02216 -2.52884,-0.0585l-1.19101,-0.29549" id="svg_28" stroke-width="2" stroke="#000" fill="none"/>
  <path t="61748,61770,61770,61770,61784,61784,61784,61795,61795,61809,61810,61810,61825,61825,61842,61842,61842,61858,61858,61859,61859,61859,61869,61869,61869,61869,61893,61893,61893,61893,61893,61893,61907,61908,61908,61908,61908,61908,61908,61908,61908,61925,61925,61925,61925,61925,61942,61943,61943,61943,61943,61943,61959,61959,61959,61959,61959,61959,61959,61969,61969,61969,61969,61970,61970,61970,61970,61970,61993,61994,61994,61994,61994,61994,61994,61994,61994,62009,62009,62009,62009,62010,62010,62010,62010,62010,62025,62026,62026,62026,62026,62026,62026,62026,62026,62045,62045,62045,62045,62046,62046,62046,62046,62046,62058,62058,62058,62058,62058,62058,62059,62059,62059,62075,62075,62075,62075,62076,62076,62076,62076,62076,62092,62093,62093,62093,62093,62093,62108,62108,62109,62109,62109,62109,62109,62125,62125,62125,62125,62136,62136,62137,62137,62137,62137,62155,62155,62155,62155,62155,62175,62175,62175,62176,62176,62176,62177,62194,62194,62194,62194,62194,62195,62195,62195,62208,62208,62209,62209,62209,62209,62210,62210,62210,62226,62226,62226,62227,62227,62227,62242,62243,62243,62243,62243,62244,62244,62244,62254,62254,62254,62254,62255,62255,62255,62255,62275,62276,62276,62276,62277,62277,62292,62293,62293,62293,62308,62308,62309,62325,62326,62342,62343,62351,62352,62375,62376,62377,62393,62393,62408,62409,62426,62466,62478,62478" d="m449.50348,149.88889c-2.95718,0 -3.52084,0 -4.40134,0c-1.19736,0 -1.78799,0 -2.64151,0c-1.27182,0 -1.93643,-0.01361 -2.95715,0c-0.80023,0.01067 -1.65372,0.07782 -2.39868,0.57066c-0.8378,0.55424 -1.4689,1.40767 -1.84418,2.03833c-0.38257,0.64288 -0.76224,1.72275 -0.9585,2.36168c-0.2149,0.69963 -0.41901,1.45583 -0.68399,2.23199c-0.41168,1.20584 -0.77148,1.99382 -1.09384,2.79733c-0.31958,0.79662 -0.71384,1.99515 -0.85016,2.808c-0.06992,0.41696 -0.13965,1.31671 -0.16165,2.33501c-0.0123,0.56891 -0.00992,1.85699 -0.00867,2.58466c0.00134,0.77367 0.00473,1.57941 0.021,2.403c0.01636,0.82776 0.04227,1.64583 0.09299,2.43901c0.04834,0.75621 0.30612,2.66553 0.45633,3.15433c0.26248,0.85425 0.6698,1.56087 1.03201,2.29201c0.63147,1.27464 0.80054,1.80511 1.00632,2.35182c0.43384,1.15257 0.64261,1.75037 0.90533,2.326c0.76093,1.66725 1.11078,2.13467 1.45901,2.56883c0.6853,0.85437 1.10165,1.22563 1.94998,1.99083c0.44568,0.40201 1.41162,1.24474 1.92001,1.71068c0.53171,0.48732 1.07797,1.00053 1.64999,1.52249c0.58792,0.53645 1.19467,1.07965 1.83002,1.6125c0.64462,0.54063 2.0029,1.5779 2.72,2.058c0.72302,0.48407 1.4758,0.94023 2.25,1.3815c0.78583,0.44789 1.59808,0.87964 2.42999,1.30949c0.84808,0.43822 2.6095,1.31949 3.51917,1.77267c0.92368,0.46016 1.85638,0.92241 2.79749,1.3725c0.93726,0.44824 1.8699,0.88121 2.79752,1.2825c0.90585,0.39188 2.65826,1.07045 3.49832,1.33817c0.80698,0.25717 1.59927,0.46777 2.3775,0.642c0.76361,0.17094 1.52567,0.30757 2.28751,0.42601c0.76489,0.11893 2.33231,0.31943 3.14185,0.41783c0.82513,0.1003 1.66241,0.19785 2.508,0.28949c0.84909,0.09203 1.69839,0.17781 2.54398,0.25351c0.83707,0.07494 2.47174,0.19551 3.26184,0.23532c0.76859,0.03873 1.51563,0.06277 2.2395,0.06451c0.69986,0.00168 1.37527,-0.01575 2.0235,-0.06151c0.62256,-0.04395 1.78311,-0.2025 2.31635,-0.32433c0.51361,-0.11734 1.00476,-0.26694 1.47751,-0.4395c0.46906,-0.17122 0.92865,-0.37033 1.38748,-0.58351c0.46793,-0.21742 1.94388,-0.95142 2.46451,-1.2245c0.53348,-0.27983 1.60211,-0.90034 2.112,-1.26399c0.51251,-0.36551 1.87589,-1.69798 2.23633,-2.2305c0.36288,-0.53615 0.68771,-1.10471 1.16135,-2.29401c0.22949,-0.57623 0.43628,-1.1423 0.79166,-2.6875c0.18561,-0.80705 0.28879,-1.49457 0.32434,-2.4395c0.03986,-1.05978 0.00992,-1.93251 0.00449,-2.4135c-0.01154,-1.02206 -0.01431,-1.55193 -0.08084,-2.61501c-0.06467,-1.03317 -0.18042,-2.00122 -0.36133,-2.91466c-0.17935,-0.90567 -0.3013,-1.35997 -0.72,-2.784c-0.15024,-0.51097 -0.49457,-1.57823 -0.69064,-2.12801c-0.20016,-0.56129 -0.64883,-1.69637 -0.91467,-2.256c-0.53601,-1.12839 -1.19464,-2.2054 -1.55585,-2.7345c-0.36807,-0.53912 -0.77048,-1.07367 -1.20151,-1.60951c-0.44513,-0.55338 -0.91916,-1.11716 -1.97064,-2.27199c-0.55869,-0.61359 -1.14798,-1.23329 -1.75803,-1.854c-0.61395,-0.62466 -1.23627,-1.23544 -1.866,-1.81801c-0.61249,-0.56664 -1.19653,-1.12123 -2.37598,-1.99466c-0.52417,-0.38817 -1.53497,-0.98422 -2.01334,-1.23734c-0.92191,-0.48781 -1.4256,-0.66199 -2.82001,-1.59599c-0.52509,-0.35172 -1.04083,-0.78537 -1.58551,-1.23451c-0.56607,-0.46677 -1.13989,-0.95758 -1.73849,-1.4415c-0.60507,-0.48917 -2.50079,-1.8391 -3.16367,-2.20467c-0.65225,-0.35971 -1.31876,-0.66658 -1.983,-0.942c-0.65063,-0.26978 -1.298,-0.5032 -1.92899,-0.726c-1.76514,-0.62326 -2.30591,-0.80945 -3.2955,-1.2135c-0.46512,-0.18991 -1.33386,-0.58217 -2.16751,-0.91916c-1.19589,-0.48341 -1.99109,-0.73775 -2.76233,-0.94366c-0.72391,-0.19328 -1.70483,-0.40572 -2.52734,-0.48451c-0.90274,-0.08649 -1.91299,-0.05716 -2.67831,-0.05716c-0.95334,0 -1.80536,0 -2.60535,0c-1.01599,0 -2.064,0 -2.7735,0c-0.85266,0 -1.85718,0 -2.65717,0c-0.99985,0 -1.77917,0 -2.77832,0.00017l-0.85501,0.1665l-0.16666,0.83333l0,0.8" id="svg_29" stroke-width="2" stroke="#000" fill="none"/>
 </g>
 <g display="none">
  <title>muse_image</title>
  <image xlink:href="http://farm3.static.flickr.com/2144/2230003421_45623b4388.jpg" id="muse" height="480" width="600" y="0" x="20"/>
 </g>
 <g display="none">
  <title>bbox</title>
  <rect stroke="#f00" fill="none" stroke-width="3" height="152.4" width="374.4" y="194.4" x="114.8" id="bbox"/>
 </g>
</svg>
