<svg width="640" height="480" xmlns="http://www.w3.org/2000/svg" xmlns:svg="http://www.w3.org/2000/svg" xmlns:xlink="http://www.w3.org/1999/xlink">
 <!-- Sketchy ANNOTATION
  ImageNet ID: n02691156_12619
  URL: http://farm1.static.flickr.com/46/128447528_a48d3519de.jpg
  Image Width: 500
  Image Height: 263
  BBox X: 1
  BBox Y: 10
  BBox Width: 488
  BBox Height: 244
  Exposure: 2000ms
  Synset Label: airplane
  Synset ID: n02691156
  Worker Tag: a airplane
  Sanity Check: 
   Context
   Saved
   Shading
  Comment: 
   {}
  Worker ID: A1R959DUXT5S4I
  Assignment ID: 3MD9PLUKKIE5Z2SLXWIP69BLU32NZ6
  HIT ID: 39XCQ6V3KY4XYJ4A1PKQQANJXTZ56K
  Work Time: 263s
  Worker Score: 0.9286
 END ANNOTATION -->
 <g display="inline">
  <title>Layer 1</title>
  <path t="0,153,166,181,181,210,210,210,229,229,229,229,229,264,264,264,264,264,264,276,277,277,277,277,277,277,277,288,288,289,312,313,313,313,313,345,345,345,345,345,345,345,345,362,362,362,362,363,363,363,377,377,377,377,377,398,398,398,398,406,406,406,407,407,429,429,429,445,445,445,446,446,465,465,465,465,465,485,485,485,485,516,516,516,517,517,545,545,545,545,568,569,569,579,580,599,599,634,639,639,649,649,663,664,684,685,702,703,732,732,732,756,756,776,777,777,798,801,827,827,827,853,853,853,853,878,878,878,879,899,899,899,923,949,966,966,966,993,993,1013,1013,1037,1037,1042,1066,1066,1066,1066,1066,1084,1084,1084,1084,1085,1085,1085,1327,1327,1347,1368,1393,1394,1412,1412,1412,1413,1431,1432,1432,1432,1432,1432,1453,1453,1457,1457,1478,1488,1527,1528,1528,1547,1547,1547,1548,1548,1575,1576,1591,1609,1629,1679,1679,1679,1700,1736,1736,1745,1746,1746,1766,1766,1766,1794,1794,1794,2007,2007,2007,2007,2607,2626,2627,2660,2690,2705,2706,2706,2706,2706,2726,2727,2727,2727,2728,2728,2728,2750,2751,2751,2751,2751,2777,2777,2778,2778,2778,2779,2779,2779,2821,2821,2824,2825,2825,2825,2825,2826,2847,2847,2848,2848,2848,2849,2849,2849,2849,2868,2869,2869,2869,2869,2869,2870,2870,2870,2883,2884,2884,2884,2884,2885,2885,2885,2910,2911,2911,2911,2928,2939,2939,2939,2940,2940,2940,2940,2975,2975,2976,2976,2976,2976,2977,3006,3007,3007,3007,3007,3036,3036,3037,3037,3037,3056,3057,3057,3057,3057,3057,3067,3067,3067,3106,3107,3107,3127,3128,3128,3129,3144,3144,3145,3145,3146,3172,3172,3173,3173,3173,3174,3194,3195,3197,3198,3198,3240,3240,3240,3241,3241,3267,3268,3268,3268,3268,3269,3269,3269,3301,3301,3301,3302,3330,3330,3335,3335,3336,3352,3352,3353,3353,3353,3386,3387,3387,3387,3395,3395,3395,3436,3436,3436,3440,3440,3440,3468,3468,3468,3469,3469,3469,3488,3489,3489,3489,3508,3509,3509,3509,3510,3551,3551,3551,3553,3575,3575,3575,3576,3599,3599,3600,3600,3627,3628,3628,3628,3649,3650,3650,3650,3650,3651,3676,3677,3677,3702,3703,3703,3735,3736,3736,3737,3760,3761,3761,3762,3762,3784,3784,3785,3785,3785,3810,3810,3810,3840,3841,3841,3841,3889,3890,3890,3891,3891,3920,3921,3921,3921,3922,3922,3945,3945,3946,3970,3970,3971,3971,3975,3977,3978,3978,3978,4019,4019,4019,4041,4042,4055,4055,4056,4077,4077,4101,4102,4176,4177,4295,4317,4352,4353,4386,4387,4388,4388,4388,4389,4389,4389,4390,4396,4397,4397,4397,4398,4398,4399,4399,4400,4445,4445,4446,4448,4448,4448,4449,4449,4450,4469,4469,4470,4470,4471,4471,4471,4472,4472,4482,4482,4483,4483,4484,4484,4485,4485,4486,4513,4513,4514,4514,4515,4515,4516,4516,4517,4559,4559,4560,4560,4560,4561,4561,4561,4562,4576,4577,4577,4578,4578,4578,4579,4580,4580,4607,4608,4608,4609,4609,4610,4610,4611,4611,4641,4643,4644,4644,4645,4645,4646,4646,4647,4695,4696,4696,4698,4698,4699,4699,4700,4700,4723,4724,4724,4725,4725,4726,4726,4727,4727,4747,4748,4748,4749,4749,4750,4751,4751,4752,4779,4779,4780,4780,4781,4781,4782,4782,4783,4816,4817,4818,4819,4819,4825,4825,4826,4826,4854,4855,4856,4856,4856,4857,4857,4858,4858,4894,4895,4895,4896,4896,4897,4898,4898,4899,4990,4991,4992,4992,4993,4993,4993,4994,4994,5026,5026,5027,5027,5028,5028,5029,5029,5030,5052,5062,5063,5063,5064,5064,5065,5066,5066,5073,5074,5075,5075,5076,5076,5077,5078,5103,5128,5129,5136,5136,5140,5141,5141,5142,5143,5150,5151,5152,5153,5153,5154,5155,5155,5156,5209,5210,5211,5211,5212,5212,5213,5213,5215,5228,5229,5231,5232,5232,5233,5234,5235,5236,5294,5295,5295,5296,5297,5297,5298,5298,5299,5311,5312,5313,5313,5314,5314,5315,5316,5316,5361,5361,5362,5363,5363,5365,5365,5366,5367,5379,5380,5380,5382,5383,5384,5384,5385,5385,5413,5414,5415,5415,5416,5417,5417,5418,5418,5452,5457,5458,5460,5461,5461,5462,5463,5463,5520,5521,5522,5524,5525,5528,5529,5529,5531,5557,5561,5562,5563,5563,5567,5567,5568,5569,5596,5598,5599,5599,5604,5605,5606,5607,5608,5635,5636,5636,5637,5638,5639,5641,5642,5642,5677,5678,5679,5679,5680,5681,5682,5682,5683,5710,5711,5712,5712,5713,5719,5720,5721,5722,5728,5729,5735,5736,5737,5738,5738,5740,5740,5786,5796,5798,5799,5799,5800,5801,5802,5802,5861,5862,5863,5863,5864,5865,5866,5866,5867,5904,5905,5906,5907,5908,5909,5911,5912,5913,5966,5967,5967,5968,5969,5969,5970,5971,5972,6020,6021,6022,6026,6027,6028,6029,6029,6030,6076,6077,6077,6078,6079,6080,6080,6081,6082,6126,6127,6128,6129,6129,6130,6131,6132,6132,6187,6188,6189,6190,6191,6192,6194,6194,6195,6243,6244,6245,6246,6247,6247,6252,6253,6254,6296,6297,6298,6299,6299,6300,6301,6302,6302,6352,6360,6361,6362,6362,6363,6364,6365,6365,6420,6421,6422,6423,6424,6466,6467,6467,6468,6469,6479,6519,6528,6528,6530,6531,6582,6587,6588,6589,6589,6591,6632,6633,6633,6634,6635,6636,6645,6695,6696,6697,6698,6699,6699,6701,6702,6750,6754,6755,6756,6757,6758,7425,7428,7429,7430,7475,7488,7489,7530,7532,7533,7534,7535,7589,7590,7591,7592,7592,7645,7646,7647,7651,7652,7653,7654,7694,7695,7697,7698,7699,7700,7701,7702,7709,7758,7759,7760,7761,7762,7763,7764,7822,7823,7824,7825,7826,7827,7827,7828,7830,7877,7878,7880,7881,7882,7884,7885,7886,7887,7947,7948,7950,7951,7952,7961,7962,7963,7964,8020,8025,8026,8027,8028,8029,8031,8033,8034,8062,8063,8071,8072,8074,8075,8076,8077,8078,8127,8128,8129,8131,8132,8133,8135,8136,8137,8185,8186,8187,8188,8193,8194,8195,8196,8197,8237,8239,8240,8241,8242,8242,8243,8244,8245,8302,8303,8304,8305,8306,8307,8308,8309,8310,8385,8386,8387,8388,8389,8391,8391,8392,8393,8430,8431,8433,8434,8435,8436,8437,8439,8440,8492,8493,8494,8495,8496,8497,8499,8500,8501,8578,8579,8580,8584,8588,8590,8591,8592,8594,8644,8645,8647,8648,8649,8651,8652,8653,8655,8670,8671,8672,8674,8675,8676,8677,8678,8679,8737,8739,8740,8741,8743,8744,8745,8746,8747,8808,8809,8810,8811,8812,8814,8816,8817,8818,8851,8860,8861,8862,8863,8864,8865,8866,8867,8924,8925,8926,8927,8928,8929,8930,8931,8932,9009,9010,9011,9012,9014,9015,9016,9017,9018,9039,9045,9047,9048,9049,9050,9052,9053,9054,9144,9145,9146,9147,9148,9149,9150,9152,9153,9204,9205,9206,9207,9212,9213,9215,9215,9216,9236,9238,9239,9240,9241,9241,9242,9243,9244,9290,9291,9292,9293,9294,9295,9296,9297,9303,9346,9348,9349,9350,9351,9352,9361,9362,9364,9415,9416,9417,9421,9425,9426,9428,9429,9430,9472,9473,9474,9475,9476,9479,9480,9481,9482,9577,9578,9579,9581,9582,9583,9584,9585,9586,9614,9615,9617,9618,9619,9620,9621,9623,9624,9676,9677,9678,9679,9680,9683,9684,9685,9686,9729,9730,9732,9733,9734,9735,9736,9744,9745,9810,9811,9812,9814,9815,9816,9817,9818,9820,9872,9873,9874,9875,9876,9877,9878,9879,9880,9939,9941,9942,9943,9945,9946,9947,9948,9949,9978,9979,9980,9981,9982,9983,9984,9985,9986,10045,10047,10048,10049,10054,10056,10058,10059,10060,10151,10152,10162,10165,10166,10167,10168,10169,10170,10208,10209,10210,10211,10214,10215,10216,10217,10222,10232,10233,10234,10235,10236,10247,10248,10249,10250,10299,10300,10304,10306,10307,10311,10312,10313,10315,10365,10366,10367,10369,10377,10378,10379,10381,10383,10427,10428,10430,10435,10436,10437,10439,10441,10442,10506,10508,10509,10510,10511,10512,10513,10519,10520,10574,10575,10576,10577,10579,10580,10581,10582,10583,10610,10612,10613,10614,10616,10617,10618,10619,10627,10680,10685,10686,10688,10689,10690,10692,10694,10696,10781,10783,10784,10785,10786,10787,10788,10790,10791,10815,10817,10818,10819,10820,10822,10823,10825,10826,10877,10879,10882,10883,10885,10886,10888,10889,10898,10949,10951,10952,10960,10961,10963,10964,10965,10966,11056,11061,11063,11066,11068,11069,11070,11072,11073,11090,11092,11093,11094,11095,11096,11098,11099,11104,11178,11179,11180,11182,11183,11188,11189,11190,11192" d="m129.50346,222.88889c0,-1.7 0.0251,-2.63641 -0.00133,-3.48534c-0.02864,-0.92041 -0.2852,-1.91824 -0.5195,-2.57716c-0.28197,-0.79298 -0.59299,-1.79874 -0.77467,-2.60899c-0.19905,-0.8877 -0.28562,-1.358 -0.41916,-2.3325c-0.13618,-0.99376 -0.20611,-1.99974 -0.26,-3.028c-0.0278,-0.53038 -0.04189,-1.07649 -0.10934,-2.224c-0.07315,-1.2446 -0.13253,-1.90799 -0.20133,-2.59201c-0.14053,-1.39705 -0.23185,-2.08998 -0.32533,-2.76799c-0.09031,-0.655 -0.14766,-1.28474 -0.48917,-2.85533c-0.17389,-0.79973 -0.52472,-1.72389 -0.7335,-2.862c-0.11691,-0.63733 -0.14117,-1.38135 -0.192,-2.23201c-0.05848,-0.97868 -0.1376,-2.10168 -0.1965,-2.72032c-0.06222,-0.6534 -0.22899,-2.03798 -0.34067,-2.75601c-0.11356,-0.73004 -0.24152,-1.46526 -0.4095,-2.19299c-0.33217,-1.43906 -0.56284,-2.12462 -0.79466,-2.79201c-0.22671,-0.65263 -0.71342,-1.88963 -0.94667,-2.48c-0.22506,-0.56964 -0.80238,-2.15593 -0.92216,-2.65016c-0.22241,-0.91769 -0.32159,-1.77971 -0.351,-2.57701c-0.04053,-1.09882 0.00185,-1.78395 -0.03433,-2.78699c-0.02487,-0.68951 -0.13361,-1.81433 -0.2645,-2.64584c-0.13782,-0.87544 -0.30758,-1.75092 -0.516,-2.58c-0.27534,-1.09529 -0.50148,-1.68977 -0.79867,-2.49333c-0.40383,-1.09192 -0.60771,-1.72987 -0.8,-2.44266c-0.20838,-0.77246 -0.40531,-1.60414 -0.7,-2.93851c-0.10184,-0.46111 -0.29658,-1.39424 -0.5,-2.3175c-0.19669,-0.89273 -0.50154,-2.11819 -0.6955,-2.85599c-0.18531,-0.70491 -0.38702,-1.40469 -0.53783,-2.53867c-0.11057,-0.8313 -0.13712,-1.71719 -0.15601,-2.61601c-0.00936,-0.44527 0.00245,-1.71748 -0.01333,-2.48c-0.0213,-1.02951 -0.02039,-1.69025 -0.44,-2.87033c-0.21677,-0.60966 -0.7719,-1.39523 -1.224,-2.367c-0.3672,-0.78929 -0.57262,-1.64795 -0.83334,-2.35416c-0.35823,-0.97034 -0.39207,-1.80653 -0.66933,-2.57918c-0.30148,-0.84018 -1.10025,-1.4868 -1.58784,-2.37866c-0.39667,-0.72554 -0.56338,-1.69354 -0.94733,-2.36867c-0.45232,-0.7953 -1.01884,-1.44315 -1.2115,-2.422c-0.14603,-0.74194 -0.09045,-1.56685 -0.36933,-2.54533c-0.25578,-0.89747 -0.71466,-1.68533 -1.11466,-2.48534c-0.3,-0.6 -0.77394,-1.61286 -1.2,-2.364c-0.47186,-0.83187 -0.9497,-1.38126 -1.28533,-1.976c-0.65821,-1.16635 -0.76741,-1.57718 -1.1355,-2.38084c-0.37913,-0.82777 -0.95539,-1.99455 -1.37917,-2.62316c-0.37925,-0.56256 -1.00021,-1.24229 -1.79967,-2.05584c-0.57915,-0.58936 -1.09369,-1.13786 -1.69051,-2.0385c-0.47312,-0.71398 -1.15679,-1.24012 -1.49916,-2.04833c-0.29498,-0.69635 -0.42427,-1.78024 -0.7205,-2.4615c-0.34593,-0.79556 -1.07906,-1.42301 -1.7235,-2.08517c-0.55508,-0.57035 -1.14439,-1.30103 -1.71,-2.1525c-0.48728,-0.73355 -0.73853,-1.15549 -1.35001,-2.02084c-0.32397,-0.45848 -1.43327,-1.83295 -1.849,-2.27133c-0.41636,-0.43906 -1.28416,-1.25718 -1.716,-1.63866c-0.41629,-0.36776 -1.21426,-1.01266 -2.1555,-1.81884c-0.63927,-0.54755 -1.64029,-1.54653 -1.10083,-2.1805c0.56406,-0.66286 1.36051,-0.74444 2.25816,-1.18433c0.74125,-0.36325 1.3895,-0.56285 2.11517,-0.87033c1.31216,-0.55599 1.79221,-0.79846 2.81734,-1.26933c0.52342,-0.24042 1.03517,-0.505 2.072,-0.90667c1.37165,-0.53139 2.17351,-0.701 2.86867,-0.81167c0.8912,-0.14188 1.91036,-0.29465 2.5625,-0.5625c1.04313,-0.42845 1.63,-0.79289 2.32883,-1.11517c1.18486,-0.5464 1.94196,-0.84839 2.3455,-1.01217c0.82424,-0.33453 1.6214,-0.67091 2.67983,-1.01849c0.9042,-0.29693 1.5419,-0.87318 2.1875,-1.33334c0.70132,-0.49986 1.62833,-1.03126 2.3045,-1.38934c0.67469,-0.3573 1.75433,-0.52 2.37601,-1.18134c0.53595,-0.57014 0.94105,-1.4502 1.45583,-2.02483c0.52943,-0.59098 1.33408,-1.25098 2.14283,-1.77917c0.59374,-0.38776 1.40561,-0.94045 2.01067,-1.46133c0.65244,-0.56168 1.6024,-1.37483 2.1375,-1.755c0.77904,-0.55348 1.18428,-1.21256 2.37983,-1.32633c0.88992,-0.08469 1.32456,0.74454 1.72467,1.61733c0.34251,0.74715 1.11617,1.63175 1.43666,2.07467c0.59808,0.82656 1.0834,1.50829 1.368,1.884c0.99532,1.314 1.39397,1.79389 1.80067,2.29933c0.41728,0.51858 0.8438,1.04054 1.68401,2.084c0.40686,0.50529 1.16463,1.45297 1.80466,2.306c0.2939,0.39172 0.83716,1.14881 1.35417,1.91c0.8401,1.23688 1.14049,1.70758 1.47116,2.19667c0.70674,1.04533 1.08734,1.58926 1.48534,2.14133c0.40562,0.56266 0.81548,1.13481 1.70934,2.23734c0.44781,0.55235 1.40347,1.63697 1.90134,2.19466c0.51479,0.57665 1.05344,1.1749 1.608,1.8105c0.58426,0.66962 1.82872,2.15773 2.48782,2.98966c0.69182,0.87324 1.39284,1.78994 2.1015,2.7345c0.71706,0.95576 1.42488,1.91972 2.11951,2.8785c0.67999,0.93859 1.95012,2.72436 2.52866,3.55066c0.54269,0.77511 1.04599,1.5032 1.5105,2.1855c0.43172,0.63412 0.82707,1.2242 1.18651,1.7715c0.32976,0.50213 0.89108,1.38353 1.12534,1.7655c0.21227,0.34612 0.40187,0.66588 0.5775,0.963c0.16603,0.28088 0.32341,0.55399 0.4875,0.819c0.52225,0.84344 0.96466,1.47911 1.48183,2.17567c0.27638,0.37225 0.86794,1.15025 1.884,2.328c0.34937,0.40496 1.08742,1.20772 1.45866,1.62133c0.37611,0.41904 1.131,1.28587 1.49066,1.74934c0.73604,0.94845 1.40298,1.99472 1.72684,2.53467c0.32553,0.54274 0.63585,1.09494 1.25267,2.18933c0.30293,0.53748 0.89229,1.57973 1.50316,2.532c0.29108,0.45375 0.86703,1.30019 1.44417,2.05c0.77272,1.00395 1.27229,1.55864 1.74251,2.08333c0.47379,0.52867 0.99153,1.08687 1.85733,2.104c0.3282,0.38557 1.00786,1.21213 1.35733,1.636c0.6944,0.84222 1.02156,1.25697 1.95683,2.33549c0.5186,0.59802 1.22281,1.30316 1.87651,2.16451c0.44447,0.58565 0.79419,1.26135 1.5,2.16667c0.41661,0.53436 0.9371,1.06111 1.71849,1.93782c0.79082,0.8873 1.2742,1.49086 1.72284,2.11684c0.46109,0.64333 0.91319,1.34691 1.392,2.112c0.52155,0.83337 0.78918,1.2746 1.33333,2.1875c0.27629,0.46355 0.82307,1.39255 1.33334,2.3125c0.48677,0.87761 0.92989,1.72595 1.31999,2.556c0.18983,0.40393 0.67902,1.61102 0.968,2.41335c0.295,0.81903 0.62749,1.67975 0.86,2.11166c0.78455,1.45737 1.21835,1.93358 1.63867,2.45099c0.43617,0.53691 0.90352,1.06685 1.37999,1.593c0.93056,1.02757 1.39632,1.48856 2.16667,2.375c0.62273,0.71657 1.08188,1.3392 1.62517,2.16301c0.54883,0.8322 0.97464,1.47736 1.48016,2.17566c0.54483,0.75261 0.83597,1.13779 1.728,2.328c0.59796,0.79785 0.89206,1.19363 1.47917,1.95833c0.56038,0.72987 1.34949,1.71237 1.83417,2.27101c0.43582,0.50232 1.05714,1.13722 1.66566,1.97099c0.44096,0.60422 0.8644,1.33279 1.521,2.133c0.53714,0.65462 1.20789,1.34944 1.5625,1.72917c0.75075,0.80391 1.1503,1.21761 1.9375,2.10417c0.80507,0.90669 1.18971,1.37436 1.56801,1.83733c0.73021,0.89363 1.0836,1.31209 1.93199,2.496c0.45799,0.63911 0.82973,1.21025 1.24367,2.058c0.45308,0.9279 0.73604,1.69643 1.09233,2.51801c0.36885,0.85054 0.5219,1.29118 1.164,2.424c0.37474,0.66113 1.00974,1.46855 1.45717,1.94366c0.94147,0.99971 1.49525,1.51393 2.06367,2.05634c0.57887,0.55238 1.4707,1.34407 2.07782,1.81334c0.58273,0.45044 1.15294,0.85991 2.23468,1.51999c0.71504,0.43631 1.47173,0.85222 2.02133,1.22134c1.02419,0.68785 1.40118,0.99365 2.22133,1.63199c0.42603,0.33159 1.26859,1.0094 1.672,1.34666c1.09457,0.91512 1.66841,1.46162 2.42,2.10934c0.81911,0.7059 1.43414,1.10863 2.06801,1.48267c0.92725,0.54716 1.72861,1.03188 2.30566,1.41634c0.62321,0.41521 1.62521,1.12471 2.34366,1.64233c0.7509,0.54102 1.12791,0.82704 1.91917,1.36333c1.18434,0.80269 1.58931,1.04123 2.38651,1.491c0.76187,0.42984 1.49161,0.80609 2.47566,1.295c0.82547,0.41013 1.56873,0.78766 2.66667,1c0.63098,0.12202 1.33925,0.13318 2.088,0.192c1.58011,0.12413 1.98096,0.18492 2.78766,0.33183c0.83487,0.15205 1.70364,0.35559 3.12433,0.64284c0.50842,0.1028 1.56259,0.29793 2.09601,0.38933c1.04721,0.17944 1.54843,0.27274 2.90399,0.444c0.72546,0.09166 1.60406,0.15625 2.83334,0.16667c0.79947,0.00677 1.39584,0 2.40533,0c1.1705,0 2.02884,0 2.46799,0c0.87335,0 1.70667,0 3.104,0c0.79352,0 1.452,0 2.46051,0c0.85266,0 1.81683,0 2.62082,0c0.82202,0 1.853,0 2.733,0c1.02036,0 1.79434,0 2.69434,0c0.86334,0 1.82651,0.00075 2.74734,0c0.81067,-0.00067 1.48871,-0.0284 2.93332,-0.16667c0.54129,-0.05182 1.16779,-0.11966 1.88699,-0.18599c0.81677,-0.07533 1.73767,-0.15198 2.76901,-0.222c1.14667,-0.07785 2.41531,-0.16031 5.34399,-0.25867c1.6665,-0.05597 3.45462,-0.0853 5.34451,-0.10951c1.97278,-0.02528 4.00967,-0.03836 6.09149,-0.04649c2.10785,-0.00822 4.22266,-0.00999 8.39734,-0.01067c2.02768,-0.00032 4.02133,0 5.99701,0c1.97366,0 3.96133,0 5.979,0c2.06366,0 4.18933,0 8.69064,0c2.39969,0 4.87735,0 7.401,0c2.53766,0 5.05734,0 7.52701,0c2.38766,0 4.66135,0 8.73868,0c1.74799,0 3.30399,0 4.68597,0c1.22601,0 2.31403,0 3.28201,0c0.866,0 1.64801,0 3.03201,0c0.63632,0 1.25064,0 1.85098,0c0.59433,0 1.19067,0 1.797,0c0.62433,0 1.27469,0 2.68533,0c0.77533,0 1.60266,0 2.48401,0c0.93735,0 1.93268,0 2.98801,0c1.11734,0 2.29865,0 4.86133,0c1.38184,0 2.81467,0 4.27951,0c1.47781,0 2.94965,0 4.39648,0c1.40283,0 2.74268,0 5.15735,0c1.04282,0 1.98267,0 2.83649,0c0.78482,0 1.51767,0 2.21552,0c0.67981,0 1.35864,0.00031 2.78131,0c0.77499,-0.00017 1.60004,0 2.47501,-0.009c0.92502,-0.00951 1.90015,-0.02766 2.92499,-0.063c1.0752,-0.03708 2.2016,-0.07686 4.60001,-0.26132c1.2753,-0.09808 2.59518,-0.23254 3.957,-0.38101c1.40088,-0.15273 2.83496,-0.325 4.29901,-0.50699c1.49063,-0.18529 3.00256,-0.38202 6.07733,-0.77867c1.55298,-0.20033 3.10422,-0.39832 4.64099,-0.60001c1.51123,-0.19835 2.98465,-0.39554 4.40701,-0.59999c1.3616,-0.19572 2.65332,-0.37033 4.952,-0.8c1.00015,-0.18695 1.9028,-0.39267 2.72699,-0.5955c0.76505,-0.18828 1.48108,-0.38474 2.16901,-0.5685c0.6734,-0.17987 1.34402,-0.37541 2.77066,-0.66933c0.77151,-0.15895 1.5929,-0.28705 2.45251,-0.4185c0.89368,-0.13666 1.8187,-0.26659 2.76749,-0.4095c0.96954,-0.14604 1.95819,-0.28238 3.94669,-0.672c1.00262,-0.19644 2.00092,-0.43091 3,-0.67201c1.00092,-0.24155 1.99954,-0.49654 3,-0.74399c0.99954,-0.24722 1.99454,-0.50864 4,-0.91734c0.99658,-0.20309 1.99222,-0.36862 2.97748,-0.5145c0.96814,-0.14334 1.91772,-0.26173 2.8425,-0.3615c0.89362,-0.09641 1.75256,-0.18015 3.34668,-0.29066c0.72482,-0.05025 1.40131,-0.08356 2.02951,-0.114c0.58112,-0.02817 1.11646,-0.05032 1.60648,-0.078c0.44629,-0.02521 0.85272,-0.03435 1.53067,-0.14134c0.28244,-0.04459 0.52759,-0.1107 0.73801,-0.18599c0.18686,-0.06686 0.34686,-0.14455 0.48599,-0.222c0.1261,-0.07018 0.23199,-0.1512 0.44269,-0.25867c0.09772,-0.04985 0.1991,-0.08466 0.29999,-0.10951c0.09924,-0.02444 0.19983,-0.03831 0.29999,-0.04649c0.09985,-0.00815 0.20001,-0.00999 0.40002,-0.01067c0.10031,-0.00034 0.20267,0 0.30899,0c0.11234,0 0.23267,0 0.36301,0c0.14233,0 0.29865,-0.00029 0.66132,0c0.21152,0.00017 0.45206,0.00056 0.7305,0.009c0.32559,0.00987 0.70721,0.02969 1.1535,0.063c0.52078,0.03886 1.12506,0.08902 2.616,0.26132c0.90421,0.10449 1.90897,0.23624 3.00452,0.399c1.18054,0.1754 2.43488,0.38258 3.7515,0.633c1.37653,0.26181 2.80728,0.53404 5.74399,1.30135c1.51398,0.39557 3.02545,0.85931 4.53149,1.33949c1.49261,0.47591 2.94861,0.97028 4.36053,1.4565c1.35571,0.46687 2.63336,0.93164 4.94128,1.70401c0.99579,0.33325 1.9032,0.61493 2.73602,0.86549c0.77521,0.23322 1.51459,0.44489 2.23199,0.65849c0.71661,0.21338 1.45416,0.42606 3.03198,0.97601c0.88593,0.30879 1.82043,0.66623 2.79303,1.04849c0.99811,0.3923 2.00031,0.8018 2.99103,1.2195c0.9679,0.40807 1.89764,0.79938 3.54932,1.56534c0.71039,0.32945 1.34149,0.64258 1.90796,0.942c0.52405,0.27701 1.0108,0.55446 1.47601,0.834c0.4635,0.27849 0.93042,0.57642 1.94934,1.224c0.57288,0.36406 1.18402,0.75063 1.82098,1.1535c0.651,0.41179 1.3045,0.82494 1.94702,1.2345c0.62146,0.39613 1.21259,0.76772 2.23199,1.44533c0.41821,0.278 0.77289,0.52361 1.07098,0.74251c0.25629,0.18822 0.47302,0.35895 0.65704,0.5175c0.16644,0.1434 0.31561,0.28568 0.60529,0.57333c0.1554,0.1543 0.31873,0.31866 0.49054,0.49049c0.17883,0.17883 0.36365,0.36366 0.55347,0.5535c0.19385,0.19385 0.39093,0.39041 0.78937,0.78934c0.19995,0.20021 0.40094,0.40053 0.59546,0.60899c0.19617,0.21022 0.38837,0.42897 0.56854,0.66301c0.18372,0.23865 0.37244,0.48688 0.66931,1.06133c0.15704,0.30389 0.28662,0.63585 0.414,0.981c0.13147,0.35617 0.25299,0.72725 0.37799,1.10699c0.12762,0.38759 0.24756,0.78537 0.54132,1.57867c0.14911,0.40262 0.31726,0.80406 0.48602,1.2135c0.17255,0.41856 0.35114,0.84752 0.52203,1.29449c0.17664,0.46201 0.36401,0.94138 0.65863,1.992c0.15723,0.56055 0.28564,1.14952 0.40503,1.75349c0.12073,0.61073 0.22406,1.22505 0.315,1.8345c0.08899,0.59625 0.16962,1.17363 0.27997,2.24533c0.0495,0.48058 0.08423,0.92783 0.1095,1.347c0.02393,0.39685 0.03827,0.77795 0.04651,1.149c0.00812,0.36697 0.01001,0.73601 0.01068,1.50401c0.00037,0.40967 0,0.83731 0,1.28098c0,0.45767 0,0.92734 0,1.40701c0,0.48767 0.00037,0.98132 0,1.97867c-0.00018,0.50049 0.00018,1.00403 -0.00903,1.51349c-0.0094,0.51859 -0.02734,1.04932 -0.06299,1.59451c-0.03687,0.5639 -0.07788,1.15091 -0.26135,2.392c-0.09851,0.66623 -0.23279,1.3569 -0.38098,2.0715c-0.15295,0.73749 -0.32495,1.49155 -0.50702,2.2605c-0.18518,0.78207 -0.38055,1.57217 -0.77863,3.168c-0.19934,0.7991 -0.39807,1.59183 -0.591,2.37299c-0.18842,0.76282 -0.36902,1.50162 -0.53699,2.211c-0.1593,0.67264 -0.31232,1.30173 -0.5387,2.41602c-0.09564,0.47076 -0.1662,0.89368 -0.237,1.27499c-0.06537,0.35199 -0.13062,0.6853 -0.21899,1.005c-0.08954,0.32382 -0.19385,0.66364 -0.54401,1.38666c-0.20599,0.42532 -0.46777,0.87234 -0.74847,1.34851c-0.29388,0.4986 -0.60596,1.00552 -0.91949,1.5195c-0.31207,0.51169 -0.62823,1.00696 -1.16534,1.96533c-0.24219,0.4321 -0.44861,0.84369 -0.64203,1.22849c-0.18256,0.36325 -0.35309,0.71167 -0.534,1.03952c-0.17725,0.32117 -0.35095,0.64737 -0.82397,1.23199c-0.25165,0.31104 -0.55194,0.60565 -0.87152,0.90451c-0.33228,0.31073 -0.68994,0.61752 -1.06049,0.93149c-0.38049,0.32239 -0.77765,0.64279 -1.56799,1.33066c-0.40375,0.35138 -0.8045,0.71988 -1.22253,1.086c-0.42853,0.37527 -0.87573,0.755 -1.35748,1.12201c-0.49976,0.38074 -1.02472,0.77966 -2.25336,1.45868c-0.66229,0.36603 -1.38446,0.68826 -2.13446,1.00497c-0.76599,0.32349 -1.55164,0.62381 -2.34149,0.91501c-0.7832,0.28876 -1.55737,0.55618 -3.02405,1.08002c-0.6814,0.24338 -1.32703,0.48032 -1.94244,0.7095c-0.59125,0.22018 -1.16162,0.4364 -1.71753,0.64648c-0.54578,0.20627 -1.08502,0.41379 -2.17334,0.81067c-0.5542,0.20209 -1.11902,0.40149 -1.69501,0.59549c-0.58398,0.19672 -1.17877,0.38776 -1.78497,0.56851c-0.61377,0.18298 -1.23602,0.36694 -2.52002,0.66934c-0.65295,0.15378 -1.31842,0.28513 -1.99048,0.41849c-0.67859,0.13467 -1.36444,0.26559 -2.05353,0.40952c-0.69458,0.14505 -1.3974,0.28299 -2.78931,0.672c-0.70398,0.19675 -1.40356,0.43201 -2.10901,0.672c-0.71326,0.24265 -1.43146,0.49823 -2.16302,0.74399c-0.74109,0.24896 -1.49023,0.51425 -3.06134,0.91733c-0.80469,0.20645 -1.62793,0.36926 -2.45398,0.5145c-0.81934,0.14404 -1.62866,0.2616 -2.418,0.36151c-0.76004,0.09622 -1.48398,0.18527 -3.36633,0.336c-0.52133,0.04175 -1.45523,0.09204 -2.30832,0.14667c-0.85361,0.05469 -1.78726,0.13617 -2.85602,0.25867c-0.57498,0.06589 -1.76392,0.21652 -2.36267,0.29068c-0.59058,0.07315 -2.23431,0.26233 -2.71582,0.30399c-0.86978,0.07526 -1.66534,0.11234 -2.439,0.17401c-1.24774,0.09949 -2.20126,0.23056 -2.7135,0.29999c-1.07489,0.14572 -1.62762,0.23343 -2.75168,0.36334c-1.1134,0.12866 -2.20108,0.20383 -2.74216,0.22684c-1.10126,0.04681 -1.67249,0.04807 -2.26334,0.05267c-0.61584,0.00479 -2.66116,0.00372 -3.41183,0.00583c-0.77466,0.0022 -1.56537,0.00684 -2.36398,0.0195c-0.79871,0.01266 -1.58966,0.02899 -2.36401,0.06448c-1.47003,0.06741 -2.15039,0.12894 -2.79199,0.19867c-1.18018,0.1283 -1.71863,0.21854 -2.71167,0.36334c-1.29852,0.18933 -2.0582,0.27963 -2.73901,0.31665c-0.86929,0.04724 -1.92267,0.03601 -2.89331,0.03601c-0.74402,0 -1.66669,0 -2.72418,0c-0.40915,0 -1.2825,0 -2.19583,0c-1.35901,0 -2.23633,0 -2.67599,0c-0.90134,0 -1.85867,0 -2.90399,0c-1.15735,0 -1.776,0 -2.41867,0c-0.66467,0 -1.34933,0 -2.77066,0c-1.47736,0 -2.23169,-0.00082 -2.992,0.00134c-0.76233,0.00217 -1.52271,0.00674 -2.27701,0.0195c-0.74438,0.0126 -1.47501,0.02902 -2.18701,0.06448c-1.35541,0.06747 -2.6069,0.19653 -3.21014,0.26733c-0.60077,0.07053 -1.82813,0.22565 -2.474,0.29468c-0.67813,0.07248 -2.17023,0.19165 -2.99985,0.23117c-0.88507,0.04218 -1.8226,0.06766 -2.80801,0.08548c-1.02927,0.01862 -2.09866,0.02689 -3.20398,0.03152c-1.13733,0.00476 -3.492,0.00449 -4.70166,0.00449c-1.22769,0 -2.47134,0 -3.729,0c-1.26968,0 -2.54935,0 -3.83701,0c-1.29367,0 -3.89099,-0.00052 -5.19101,0.00015c-1.29999,0.00067 -2.60001,0.00235 -3.89999,0.01053c-1.29999,0.00818 -2.60007,0.02182 -3.89999,0.04648c-1.30008,0.02466 -3.90018,0.10547 -5.19968,0.16418c-1.29785,0.05862 -2.5914,0.13007 -3.879,0.20398c-1.27972,0.07346 -2.54926,0.15097 -3.80701,0.22202c-1.24356,0.07025 -3.68085,0.19019 -4.87082,0.23117c-1.16873,0.04025 -2.31561,0.06717 -3.43951,0.08548c-1.09979,0.01794 -2.17465,0.02682 -3.22348,0.03152c-1.02185,0.00458 -2.9805,0.00449 -3.91568,0.00449c-0.90616,0 -1.78433,0 -2.6355,0c-0.82516,0 -1.62534,0 -2.40149,0c-0.75317,0 -2.19452,0 -2.88486,0c-0.67233,0 -1.32864,0 -1.97098,0c-0.63034,0 -1.25067,0 -1.86301,0c-0.60632,0 -1.80899,0.00052 -2.409,-0.00015c-0.60001,-0.00067 -1.20004,-0.00235 -1.80002,-0.01053c-0.60001,-0.00818 -1.2001,-0.02182 -1.79999,-0.04648c-0.60016,-0.02466 -1.80038,-0.10526 -2.40067,-0.16434c-0.6051,-0.05957 -1.21759,-0.13376 -1.84201,-0.21451c-0.6409,-0.08289 -1.30127,-0.17505 -1.98599,-0.26849c-0.71262,-0.09726 -2.23782,-0.29709 -3.05865,-0.39584c-0.86447,-0.104 -1.77744,-0.20795 -2.742,-0.32098c-1.02075,-0.1196 -2.10168,-0.24811 -3.246,-0.39301c-1.21301,-0.15363 -3.85852,-0.51553 -5.29449,-0.72833c-1.49606,-0.22171 -3.02939,-0.46042 -4.5795,-0.70801c-1.54688,-0.24707 -3.0683,-0.49704 -4.54352,-0.74399c-1.40872,-0.23581 -3.94061,-0.67133 -5.02884,-0.86234c-0.97842,-0.17172 -1.86636,-0.33038 -2.685,-0.47101c-0.76804,-0.13193 -1.5061,-0.25433 -2.23499,-0.36301c-0.73779,-0.11002 -2.32471,-0.31161 -3.20816,-0.40915c-0.94186,-0.10397 -1.9324,-0.2037 -2.9595,-0.31052c-1.05322,-0.10953 -2.1218,-0.22144 -3.19351,-0.3465c-1.06561,-0.12433 -3.1315,-0.40317 -4.11133,-0.564c-0.94684,-0.1554 -1.86182,-0.32614 -2.7525,-0.4935c-0.87097,-0.16367 -1.7258,-0.32892 -2.57251,-0.47549c-0.84,-0.14539 -2.52664,-0.38489 -3.38266,-0.46716c-0.86539,-0.08316 -1.74417,-0.13974 -2.6355,-0.19202c-0.905,-0.0531 -1.82553,-0.0979 -2.76151,-0.15601c-0.95337,-0.05917 -2.91537,-0.22009 -3.92648,-0.33798c-1.04498,-0.12186 -2.13269,-0.27545 -3.276,-0.45001c-1.21274,-0.18518 -2.50421,-0.39877 -3.888,-0.63c-1.48822,-0.24869 -4.82364,-0.81223 -6.68967,-1.11899c-1.97928,-0.32538 -4.0466,-0.65863 -6.177,-0.987c-2.16495,-0.33371 -4.34021,-0.65607 -6.50101,-0.95099c-2.11661,-0.28891 -6.12175,-0.7663 -7.96449,-0.93369c-1.72942,-0.1571 -3.35847,-0.26755 -4.8945,-0.34198c-1.45107,-0.07031 -2.82791,-0.10706 -4.1385,-0.12601c-1.25343,-0.01813 -3.6255,-0.01901 -4.76134,-0.01767c-1.11082,0.00131 -2.20172,0.00458 -3.2775,0.021c-1.0659,0.01627 -2.12695,0.04379 -3.1875,0.09299c-1.06616,0.04944 -3.23326,0.21161 -4.34216,0.32852c-1.12849,0.11896 -2.27174,0.26385 -3.429,0.41849c-1.17009,0.15634 -2.34921,0.32492 -3.537,0.49051c-1.19354,0.16641 -3.59053,0.48547 -4.78967,0.62665c-1.1902,0.14011 -2.36519,0.26572 -3.51599,0.38553c-1.11853,0.11646 -2.19749,0.22385 -3.228,0.33148c-0.97481,0.10181 -2.72461,0.30002 -3.48668,0.40451c-0.69923,0.09589 -1.34953,0.1987 -1.96799,0.29999c-0.60289,0.09875 -1.20496,0.20242 -1.82401,0.30002c-0.65027,0.10251 -2.11157,0.30368 -2.95,0.39999c-0.90555,0.104 -1.86786,0.20151 -2.87401,0.29999c-1.03784,0.10159 -2.09601,0.19983 -3.162,0.30002c-1.06201,0.09979 -3.12631,0.29697 -4.10632,0.40033c-0.94264,0.09943 -1.84949,0.20248 -2.72101,0.32098c-0.84116,0.11438 -1.65242,0.24133 -2.433,0.39301c-0.75815,0.14731 -2.20189,0.50967 -2.8895,0.72818c-0.67648,0.215 -1.3335,0.457 -1.98151,0.69748c-0.64098,0.23785 -1.27361,0.48019 -1.9095,0.69751c-0.63219,0.21603 -1.91583,0.57599 -2.57365,0.69818c-0.66377,0.12329 -1.34363,0.20483 -2.03551,0.267c-0.70453,0.06329 -1.42526,0.10275 -2.1615,0.14099c-0.7531,0.03912 -2.31473,0.11978 -3.1245,0.17767c-0.83025,0.05936 -1.68002,0.13116 -2.55,0.20398c-0.89001,0.07449 -1.79979,0.15207 -2.73,0.22202c-0.94981,0.07144 -2.90981,0.19073 -3.91884,0.23117c-1.02165,0.04095 -2.04961,0.06726 -3.07651,0.08548c-1.01878,0.01807 -2.02264,0.02679 -3.00449,0.03152c-0.95284,0.00458 -2.7435,0.00552 -3.57051,0.00415c-0.789,-0.00131 -1.55208,-0.00464 -2.30099,-0.021c-0.74709,-0.01633 -1.50433,-0.04486 -2.283,-0.09299c-0.8134,-0.05026 -2.58965,-0.21335 -3.57117,-0.32867c-1.03587,-0.1217 -2.10716,-0.26563 -3.1965,-0.42902c-1.09303,-0.16394 -2.1707,-0.34183 -3.21449,-0.53699c-0.99753,-0.18649 -2.77676,-0.5791 -3.52583,-0.79102c-0.66943,-0.18939 -1.26362,-0.39224 -1.797,-0.59998c-0.49519,-0.19287 -0.95485,-0.39963 -1.401,-0.60001c-0.44451,-0.19962 -1.38109,-0.60504 -1.9025,-0.80035c-0.55451,-0.2077 -1.14677,-0.40933 -1.7685,-0.62097c-0.64926,-0.22104 -1.32511,-0.44751 -2.0205,-0.69302c-0.71667,-0.25305 -2.19437,-0.8121 -2.94666,-1.12915c-0.76917,-0.32416 -1.54763,-0.67746 -2.3355,-1.06052c-0.80862,-0.39313 -1.62897,-0.81863 -2.4615,-1.27649c-0.85697,-0.47131 -2.61757,-1.51459 -3.52333,-2.08316c-0.925,-0.58066 -1.8504,-1.1842 -2.7765,-1.79102c-0.91958,-0.60254 -1.821,-1.19989 -2.7045,-1.77298c-0.85123,-0.55215 -2.43983,-1.54532 -3.16967,-1.96552c-0.6798,-0.39139 -1.32985,-0.7399 -1.9485,-1.06949c-0.5957,-0.31738 -1.18019,-0.62286 -1.7505,-0.94351c-0.5751,-0.32333 -1.74718,-1.05234 -2.35101,-1.48001c-0.63257,-0.44803 -1.27216,-0.94061 -1.9185,-1.46848c-0.66487,-0.543 -1.3289,-1.11859 -1.9905,-1.72052c-0.67051,-0.61002 -1.98701,-1.88611 -2.627,-2.54733c-0.6441,-0.66547 -1.27975,-1.35574 -1.9065,-2.07748c-0.64247,-0.73984 -1.28329,-1.52097 -1.9245,-2.3475c-0.66714,-0.85999 -2.03205,-2.74667 -2.733,-3.78299c-0.73553,-1.08746 -1.47958,-2.24542 -2.2185,-3.48151c-0.77274,-1.29269 -1.54044,-2.66745 -2.2905,-4.12952c-0.78275,-1.52576 -2.29912,-4.85126 -3.02567,-6.64951c-0.74736,-1.84973 -1.4508,-3.75159 -2.1225,-5.67297c-0.66656,-1.90671 -1.28299,-3.78897 -1.8525,-5.61902c-0.5434,-1.74614 -1.45651,-4.9146 -1.81833,-6.29366c-0.32391,-1.23457 -0.58995,-2.34152 -0.80251,-3.33c-0.18818,-0.87512 -0.33302,-1.6523 -0.4425,-2.34c-0.09644,-0.6058 -0.22046,-1.61971 -0.2625,-2.04601c-0.03765,-0.38174 -0.06477,-0.7258 -0.075,-1.03799c-0.00937,-0.2859 -0.00537,-0.55238 0.015,-0.804c0.01979,-0.24448 0.1012,-0.73286 0.16,-0.98668c0.06107,-0.26361 0.13581,-0.53267 0.225,-0.80399c0.09076,-0.27611 0.19506,-0.55148 0.315,-0.82201c0.1201,-0.27089 0.39861,-0.79016 0.56049,-1.03134c0.16221,-0.24167 0.34676,-0.47441 0.5565,-0.696c0.21915,-0.23152 0.47121,-0.45665 0.7545,-0.67799c0.30449,-0.2379 1.03054,-0.71895 1.453,-0.96867c0.45338,-0.26801 0.94454,-0.53609 1.46851,-0.80399c0.54697,-0.27966 1.12168,-0.55447 1.7205,-0.82201c0.61317,-0.27394 1.88935,-0.79182 2.54633,-1.03101c0.66172,-0.24089 1.33398,-0.46539 2.0145,-0.675c0.68318,-0.21042 1.37334,-0.40503 2.0685,-0.58499c0.69554,-0.18005 2.09461,-0.49934 2.79467,-0.64c0.69331,-0.1393 1.37777,-0.26329 2.0475,-0.375c0.64864,-0.10818 1.27296,-0.20261 1.86749,-0.285c0.55884,-0.07745 1.55215,-0.19852 1.98034,-0.24001c0.39453,-0.03824 0.7735,-0.06511 1.1535,-0.075c0.39773,-0.01035 0.83079,-0.00345 1.3155,0.015c0.554,0.02107 1.93659,0.10362 2.79433,0.16c0.96494,0.06343 2.02384,0.1377 3.16351,0.22501c1.20802,0.09256 2.47099,0.1964 3.7755,0.315c1.33418,0.12131 4.03701,0.40059 5.3805,0.55949c1.32852,0.15714 2.63416,0.32578 3.912,0.4935c1.24416,0.16331 2.44772,0.32616 3.606,0.47549c1.10574,0.14256 3.13741,0.38266 4.05367,0.46684c0.84917,0.07802 1.63708,0.13344 2.367,0.17099c0.67545,0.03476 1.30128,0.05342 1.881,0.063c0.53763,0.00888 1.503,0.009 1.93817,0.009c0.40617,0 0.78433,0 1.1355,0c0.32516,0 0.62534,0 0.9015,0c0.25317,0 0.6945,0.00055 0.88483,-0.00017c0.17233,-0.00066 0.3288,-0.00188 0.471,-0.0105c0.13049,-0.0079 0.2515,-0.02127 0.363,-0.04651c0.10728,-0.02428 0.31088,-0.10619 0.409,-0.16432c0.10207,-0.06047 0.20142,-0.13388 0.3,-0.21451c0.10151,-0.08302 0.20074,-0.17389 0.3,-0.26849c0.10077,-0.09604 0.29976,-0.29575 0.40018,-0.39551c0.10092,-0.10025 0.20341,-0.20097 0.3105,-0.29999c0.10925,-0.10101 0.22533,-0.20001 0.3465,-0.3l0.12816,-0.10001" id="svg_1" stroke-width="2" stroke="#000" fill="none"/>
  <path t="12715,14409,14429,14444,14444,14444,14471,14471,14471,14472,14472,14472,14472,14472,14503,14503,14503,14503,14503,14503,14503,14503,14503,14524,14524,14524,14524,14524,14524,14524,14524,14524,15355,15355,15355,15355,15355,15355,15355,15355,15355,15377,15377,15377,15377,15377,15377,15378,15378,15378,15407,15407,15407,15407,15407,15407,15426,15427,15427,15427,15427,15427,15427,15427,15427,15443,15443,15443,15444,15444,15444,15444,15444,15444,15469,15469,15469,15470,15470,15470,15470,15470,15470,15503,15503,15503,15503,15503,15503,15503,15503,15503,15561,15562,15562,15562,15562,15562,15562,15562,15562,15603,15603,15603,15603,15604,15604,15604,15604,15604,15663,15663,15674,15674,15674,15674,15674,15674,15674,15681,15681,15682,15682,15682,15682,15682,15682,15682" d="m106.50346,250.88889c1.8,0 2.636,0 3.49467,0c0.672,0 1.704,0 2.672,0c0.58566,0 1.983,0 2.80267,0c0.90566,0 1.90133,0 2.991,0c1.18767,0 3.873,0 5.37417,0c1.58817,0 3.24033,0 4.9335,0c1.71117,0 3.41733,0 5.0955,0c1.62717,0 4.63649,0 5.97766,0c1.22816,0 2.35033,0 3.3735,0c0.93117,0 1.77733,0 2.54549,0c0.69717,0 1.90651,-0.00111 2.43184,0.00034c0.47734,0.00131 0.90886,0.00343 1.29601,0.021c0.34558,0.01567 0.65262,0.03976 0.918,0.093c0.23343,0.04683 0.60501,0.20665 0.72949,0.32883c0.12022,0.11798 0.20311,0.27209 0.2565,0.4395c0.05637,0.17673 0.08076,0.37431 0.0945,0.58351c0.01456,0.22156 0.01442,0.7005 0.01317,0.95683c-0.00134,0.27432 -0.00813,0.90991 -0.07166,1.71165c-0.08208,1.03612 -0.25986,2.36555 -0.37083,3.16185c-0.12483,0.89572 -0.271,1.89847 -0.4185,3.0195c-0.16394,1.24591 -0.33197,2.62714 -0.49051,4.1535c-0.17426,1.67761 -0.49072,5.52991 -0.6265,7.715c-0.14484,2.3309 -0.26596,4.7767 -0.375,7.3035c-0.11108,2.57425 -0.20424,5.16388 -0.285,7.7355c-0.07915,2.52036 -0.1982,7.27643 -0.24016,9.45233c-0.03915,2.03076 -0.06674,3.92163 -0.08551,5.67749c-0.01738,1.62579 -0.02669,3.12668 -0.03149,4.50751c-0.00441,1.26584 -0.0045,3.4725 -0.0045,4.42383c0,0.85934 0,1.63467 0,2.33398c0,0.63135 0,1.20267 0,1.72202c0,0.47534 0,1.32599 0,1.716c0,0.37 0,0.72 0,1.04999c0,0.31 0,0.60001 0,0.87c0,0.25 0,0.69 0,0.88034c0,0.17233 0,0.32867 0,0.47101c0,0.13034 0,0.25067 0,0.36301c0,0.10632 0,0.30899 0,0.40933c0,0.10233 0,0.20865 0,0.32098c0,0.12033 0,0.25067 0,0.39301c0,0.15634 0,0.51901 0,0.72852c0,0.22647 0,0.46698 0,0.71848c0,0.25952 0,0.52402 0,0.7905l0,0.2655" id="svg_2" stroke-width="2" stroke="#000" fill="none"/>
  <path t="16746,16824,16824,16845,16846,16870,16870,16870,16897,16897,16897,16897,16897,16897,16897,16897,16897,16920,16920,16920,16920,16920,16920,16920,16920,16920,16946,16947,16947,16947,16947,16947,16947,16947,16947,16960,16961,16961,16961,16961,16961,16961,16961,16961,16980,16980,16980,16980,16980,16980,16980,16980,16981,17013,17014,17014,17014,17014,17014,17014,17014,17014,17056,17056,17056,17056,17056,17056,17057,17057,17057,17091,17091,17091,17095,17095,17095,17095,17095,17096,17288,17288,17288,17288,17288,17288,17288,17288,17288" d="m97.50346,246.88889c0,2.00533 0,2.74933 0,3.85716c0,0.75751 0,1.64151 0,2.37201c0,0.74699 0,2.4375 0,3.18898c0,0.8605 0,1.83902 0,2.94452c0,1.24149 0,2.62799 0,4.16849c0,1.70352 0,5.6355 0,7.875c0,2.39651 0,4.91702 0,7.5285c0,2.66949 0,5.36401 0,8.05051c0,2.64551 -0.00107,7.68149 0.00034,10.01401c0.00133,2.20749 0.00425,4.30502 0.021,6.3075c0.01609,1.92252 0.04311,3.78018 0.09299,5.58749c0.04893,1.77271 0.20866,5.27316 0.32917,7.02634c0.1208,1.75757 0.27144,3.51102 0.46049,5.2515c0.1874,1.72528 0.40894,3.42523 0.67651,5.08951c0.26213,1.63049 0.90087,4.74323 1.28316,6.20767c0.36781,1.40894 0.77392,2.74203 1.191,3.9975c0.39294,1.18277 0.79272,2.27505 1.173,3.2775c0.34549,0.91074 0.94298,2.42099 1.16483,3.01932c0.18414,0.49661 0.32684,0.9061 0.4275,1.24051c0.07996,0.26563 0.13212,0.47775 0.1575,0.64651c0.0202,0.13425 0.022,0.34949 0.02267,0.44931c0.00066,0.09885 0.00212,0.19586 0.0105,0.28952c0.00805,0.09003 0.02098,0.17596 0.0465,0.25348c0.02412,0.0733 0.10616,0.19489 0.16417,0.23584c0.05959,0.04205 0.13089,0.06985 0.204,0.09601c0.07423,0.02655 0.1503,0.04822 0.222,0.078c0.06969,0.02896 0.19036,0.11066 0.23133,0.16867c0.04206,0.05957 0.06986,0.13089 0.096,0.20398c0.02655,0.07425 0.05067,0.14935 0.078,0.22202l0.03133,0.06866" id="svg_3" stroke-width="2" stroke="#000" fill="none"/>
  <path t="18498,18600,18614,18627,18643,18644,18659,18659,18659,18659,18679,18679,18679,18679,18679,18679,18698,18707,18707,18707,18719,18720,18720,18720,18720,18735,18735,18735,18735,18735,18754,18754,18754,18786,18787,18787,18787,18787,18809,18809,18809,18809,18809,18809,18809,18809,18809,18844,18844,18844,18844,18844,18844,18844,18844,18844,18871,18871,18871,18871,18871,18871,18871,18871,18871,18915,18916,18916,18916,18916,18916,18916,18916,18916,18978,18978,18978,18978,19060,19060,19060,19060,19060,19060,19110,19110,19111,19111,19111,19111,19111,19111,19111,19183,19183,19183,19184,19226,19244,19244,19292,19292,19292,19292" d="m90.50346,219.88889c-1,-1 -1.38537,-1.75626 -2.19866,-2.00133c-0.80517,-0.24261 -1.01756,-1.00121 -1.66,-1.77068c-0.4451,-0.5331 -1.03754,-1.09372 -1.716,-1.716c-0.75016,-0.68805 -1.59067,-1.39465 -2.02167,-1.76016c-0.862,-0.731 -1.29782,-1.0719 -2.065,-1.7825c-0.97528,-0.90337 -1.41914,-1.46707 -1.83867,-1.9485c-0.62305,-0.71498 -1.47639,-1.45554 -2.22417,-1.9735c-0.4042,-0.27997 -1.27971,-0.82669 -1.73666,-1.09467c-1.36433,-0.80008 -1.81874,-1.02831 -2.6685,-1.4955c-0.7888,-0.43369 -1.54404,-0.78674 -2.37067,-1.45717c-0.68233,-0.55339 -1.10947,-1.25955 -1.83333,-2.16667c-0.42648,-0.53445 -0.97697,-1.09738 -1.668,-1.67999c-0.38537,-0.32491 -1.82862,-1.32553 -2.40601,-1.67517c-0.61445,-0.37209 -1.27384,-0.74463 -1.962,-1.1355c-0.71383,-0.40546 -1.45065,-0.82083 -2.196,-1.26151c-0.75872,-0.44858 -2.27352,-1.40651 -3.01283,-1.92383c-0.73944,-0.51741 -1.45929,-1.058 -2.1645,-1.608c-0.69845,-0.54472 -1.37616,-1.09685 -2.0385,-1.644c-0.64831,-0.53557 -1.88364,-1.57426 -2.4765,-2.06216c-0.5752,-0.47337 -1.14138,-0.9304 -1.713,-1.3605c-0.56648,-0.42624 -1.14589,-0.83482 -1.749,-1.21651c-0.61294,-0.38791 -1.94223,-1.1096 -2.665,-1.44415c-0.74126,-0.34311 -1.50545,-0.65788 -2.274,-0.95401c-0.75555,-0.29112 -1.49455,-0.55357 -2.202,-0.79199c-0.66067,-0.22266 -1.80817,-0.56866 -2.66067,-0.82533c-0.8768,-0.26398 -1.5412,-0.56615 -2.24416,-1.13684c-0.64951,-0.5273 -1.41819,-1.22275 -1.8825,-1.5925c-0.50441,-0.40169 -1.05047,-0.83826 -2.352,-1.688c-0.71812,-0.46884 -1.49712,-0.9184 -2.3025,-1.3725c-0.81462,-0.4593 -1.63414,-0.89993 -2.4375,-1.3275c-0.77168,-0.41071 -1.50508,-0.78392 -2.76,-1.46666c-0.50859,-0.2767 -0.92717,-0.53198 -1.8125,-1.0625c-0.88143,-0.52817 -1.54294,-0.92703 -1.94217,-1.57617c-0.52317,-0.85066 -1.05333,-1.28934 -1.57733,-1.81334l-0.572,-0.532" id="svg_4" stroke-width="2" stroke="#000" fill="none"/>
  <path t="22088,22112,22112,22128,22128,22128,22128,22128,22143,22143,22143,22143,22143,22143,22162,22162,22162,22162,22162,22162,22162,22162,22162,22183,22183,22183,22183,22183,22183,22183,22183,22183,22196,22202,22203,22203,22203,22203,22203,22203,22203,22215,22215,22228,22228,22228,22228,22249,22249,22249,22249,22268,22268,22268,22268,22268,22268,22291,22291,22291,22291,22311,22311,22311,22340,22340,22373,22384,22384,22384,22384,22384,22424,22425,22425,22451,22451,22473,22501,22501,22533,22534,22534,22534,22557,22557,22557,22557,22557,22580,22580,22580,22580,22580,22580,22595,22595,22596,22596,22596,22596,22596,22596,22736,22737,22737,22762,22780,22780,22800,22800,22800,22800,22801,22801,22801,22827,22827,22827,22827,22828,22828,22828,22828,22828,22844,22844,22844,22844,22845,22845,22845,22845,22845,22867,22867,22867,22867,22868,22868,22868,22868,22868,22901,22902,22902,22902,22902,22902,22902,22903,22903,23121,23121,23121,23121,23121,23121,23121,23122,23122,23140,23141,23141,23141,23141,23141,23141,23141,23142,23167,23168,23168,23168,23168,23185,23185,23185,23209,23210,23210,23210,23210,23210,23226,23227,23227,23227,23227,23227,23228,23228,23228,23251,23251,23252,23266,23266,23267,23351,23351,23351,23369,23369,23396,23396,23425,23448,23465,23465,23465" d="m159.50346,321.88889c-3.55183,-0.35266 -4.24873,-0.63406 -5.33333,-0.83334c-0.63322,-0.11636 -1.34911,-0.13895 -2.12401,-0.15598c-0.83051,-0.01825 -2.16519,-0.00723 -3.12683,-0.01517c-0.51584,-0.00427 -1.64259,-0.02896 -2.26334,-0.05267c-0.66594,-0.02542 -2.15263,-0.10736 -2.98116,-0.16418c-0.88083,-0.06039 -1.80534,-0.13138 -2.76601,-0.20398c-0.98866,-0.07474 -1.99718,-0.15149 -3.01801,-0.22202c-1.02451,-0.0708 -3.0538,-0.19009 -4.04366,-0.23117c-0.96751,-0.04016 -1.91127,-0.06708 -2.82901,-0.08548c-0.88962,-0.01782 -1.74931,-0.02679 -2.577,-0.03152c-0.79366,-0.00455 -2.271,-0.00342 -2.951,-0.00482c-0.64,-0.00131 -1.24012,-0.00391 -1.8,-0.021c-0.52015,-0.0159 -1.00104,-0.04099 -1.43999,-0.09299c-0.40115,-0.04752 -1.63152,-0.42551 -2.205,-0.90652c-0.91485,-0.76736 -1.54496,-1.24609 -2.08334,-1.4375c-0.84608,-0.30081 -2.06373,-0.45844 -2.701,-0.52698c-0.7014,-0.07544 -1.504,-0.15723 -2.9425,-0.45734c-0.55173,-0.11511 -1.12165,-0.26007 -2.294,-0.55734c-0.58382,-0.14804 -1.69595,-0.44751 -2.6875,-0.66666c-0.80531,-0.17798 -1.76611,-0.27219 -2.512,-0.50134c-1.03309,-0.31738 -1.52625,-0.70016 -2.3115,-1.12668c-1.02693,-0.5578 -1.80717,-0.70398 -2.75383,-0.70532c-0.92267,-0.00128 -1.59467,0 -2.37867,0c-0.848,0 -1.712,0 -2.934,0c-0.72,0 -1.65,0 -2.80033,0c-0.72167,0 -1.66383,0 -2.62967,0c-0.76,0 -1.68,0 -2.4795,0c-0.9165,0 -1.60583,0.00284 -2.77683,-0.00015c-0.87135,-0.00223 -1.79883,-0.01624 -2.27834,-0.03586c-0.98175,-0.04019 -1.98035,-0.11722 -2.984,-0.24933c-1.03925,-0.13678 -1.57796,-0.23575 -2.13866,-0.32532c-1.19725,-0.19122 -2.52235,-0.39163 -3.24067,-0.48917c-0.74567,-0.10123 -1.50781,-0.1972 -2.27399,-0.28952c-0.75782,-0.09131 -1.49577,-0.17679 -2.202,-0.25348c-1.80541,-0.19601 -3.02627,-1.00272 -3.431,-0.33633c-0.0919,0.15131 0.60087,0.70984 0.99966,1.3085c0.78359,1.1763 1.04778,1.54214 1.6725,2.34216c0.34389,0.4404 1.11942,1.36414 1.54733,1.84198c0.44264,0.49429 1.4008,1.49136 1.9165,1.98752c0.5322,0.51202 1.10252,1.02997 1.713,1.56299c0.64735,0.56522 1.34988,1.15457 2.109,1.77899c0.81672,0.67178 2.6649,2.15964 3.70583,2.98517c1.1096,0.87997 2.28419,1.79959 3.5265,2.7345c1.28322,0.9657 2.61376,1.93427 3.99451,2.87851c1.39396,0.95328 4.26315,2.74399 5.72683,3.55084c1.44337,0.79565 2.89117,1.52014 4.32,2.19598c1.38809,0.65656 2.74477,1.25507 4.05,1.81802c1.24154,0.53549 3.51134,1.49088 4.51583,1.92899c0.92207,0.40216 1.76198,0.7793 2.5275,1.125c0.69613,0.31436 1.32555,0.60254 1.89751,0.85501c0.51483,0.22726 1.40011,0.59189 1.783,0.72049c0.34148,0.11469 0.65166,0.19922 0.9315,0.2565c0.24942,0.05106 0.47567,0.07999 0.6795,0.09451c0.18428,0.01312 0.5085,0.01349 0.65366,0.01349c0.13617,0 0.26434,0 0.38551,0c0.11517,0 0.22533,0 0.3315,0c0.10316,0 0.3045,0.00098 0.4045,-0.00034c0.10001,-0.00134 0.22695,0.06769 0.5,-0.07166c0.86348,-0.44064 1.12513,-1.23761 1.54133,-1.70135c0.80991,-0.90244 1.59914,-1.54004 2.04533,-1.87732c0.47358,-0.358 1.54951,-1.06339 2.16,-1.38135c1.29901,-0.67657 2.03507,-0.93472 2.78799,-1.19867c0.76814,-0.26929 1.55552,-0.50958 2.34451,-0.74847c0.78303,-0.23709 1.55674,-0.45743 2.2995,-0.70352c1.39537,-0.46231 2.02063,-0.72327 2.592,-1c1.04173,-0.50458 1.4912,-0.78448 2.2925,-1.3075c1.01346,-0.66147 1.82234,-1.18829 2.47951,-1.5885c0.84131,-0.51233 1.51332,-1.02036 1.77333,-1.90399c0.23119,-0.78568 0.69467,-1.53201 1.49467,-1.95334l0.756,-0.564l0.66933,-0.38934l0.76534,-0.32532" id="svg_5" stroke-width="2" stroke="#000" fill="none"/>
  <path t="26258,26320,26336,26375,26375,26376,26376,26376,26397,26397,26397,26397,26397,26397,26397,26397,26397,26412,26412,26412,26412,26412,26412,26415,26416,26416,26429,26429,26430,26430,26430,26430,26430,26430,26430,26453,26453,26453,26453,26453,26453,26453,26453,26453,26464,26464,26464,26464,26464,26464,26464,26464,26464,26487,26487,26487,26487,26487,26487,26487,26487,26487,26531,26531,26531,26531,26531,26531,26531,26531,26531,26539,26539,26539,26539,26539,26539,26539,26539,26558,26863,26863,26863,26863,26863,26863,26864,26864,26864,26889,26889,26889,26889,26889,26890,26890,26890,26890,26930,26931,26931,26931,26931,26931,26931,26931,26931,26948,26948,26948,26948,26948,26948,26948,26948,26949,26960,26960,26960,26960,26960,26960,26960,26961,26961,26982,26982,26982,26983,26983,26983,26983,26983,26983,27011,27011,27011,27012,27012,27012,27012,27012,27012,27046,27046,27046,27049,27049,27050,27050,27050,27050,27093,27093,27093,27093,27093,27094,27094,27094,27094,27112,27112,27113,27113,27113,27113,27113,27113,27113,27141,27141,27141,27141,27144,27144,27144,27144,27145,27176,27176,27177,27177,27177,27177,27177,27177,27178,27201,27202,27202,27202,27203,27203,27203,27203,27203,27230,27231,27231,27231,27231,27231,27232,27232,27232,27288,27288,27289,27289,27289,27289,27289,27290,27290,27315,27316,27316,27316,27316,27317,27317,27317,27317,27331,27331,27331,27332,27332,27332,27332,27332,27333,27364,27365,27365,27365,27365,27366,27366,27366,27367,27387,27388,27388,27389,27389,27389,27389,27389,27390,27426,27426,27426,27427,27427,27427,27427,27427,27428,27457,27457,27458,27459,27459,27459,27459,27460,27460,27484,27484,27485,27485,27485,27485,27485,27490,27490,27501,27502,27502,27503,27503,27503,27504,27504,27504,27529,27529,27530,27531,27531,27531,27531,27532,27532,27555,27556,27556,27556,27556,27557,27557,27557,27559,27579,27580,27580,27580,27580,27581,27581,27581,27582,27607,27608,27608,27608,27609,27609,27609,27610,27610,27631,27634,27635,27635,27635,27635,27636,27637,27637,27668,27668,27669,27669,27669,27670,27670,27671,27671,27697,27697,27697,27698,27698,27698,27699,27699,27699,27730,27730,27730,27731,27731,27731,27732,27732,27732,27753,27754,27754,27754,27755,27755,27756,27756,27756" d="m345.50348,280.88889c1.69998,0 2.63599,0 3.50931,0c0.88651,0 1.34933,0 1.92419,0c0.70383,0 2.5665,-0.00085 3.75433,0.00034c1.35483,0.00134 2.86368,0.0054 4.51349,0.021c1.77786,0.01682 3.67078,0.04486 5.6655,0.09299c2.08398,0.05029 6.46695,0.21017 8.73984,0.32901c2.31381,0.12097 4.65738,0.27048 7.01999,0.45001c2.37408,0.18042 4.74777,0.38904 7.11002,0.63c2.34445,0.23914 6.93167,0.79822 9.15881,1.12c2.20355,0.31836 4.40073,0.6738 6.61652,1.04999c2.25989,0.3837 4.5827,0.79993 6.99451,1.23001c2.52286,0.44989 7.99271,1.41461 10.97983,1.91949c3.14349,0.53134 6.4241,1.07028 9.819,1.6185c3.48578,0.5629 7.04227,1.12643 10.647,1.69049c3.62991,0.56799 10.88083,1.6825 14.46216,2.22702c3.548,0.53946 7.07062,1.07111 10.57349,1.60648c3.49146,0.53363 6.97809,1.07135 10.46552,1.62451c3.49789,0.55484 10.54761,1.71719 14.11316,2.3335c3.60776,0.6236 7.26398,1.27649 10.98001,1.95001c3.78729,0.68643 7.65344,1.39926 11.61002,2.13c4.05676,0.74924 12.50934,2.31339 16.9198,3.1185c4.50824,0.82297 9.08423,1.64923 13.69952,2.45547c4.61835,0.80679 9.21234,1.58636 13.75348,2.31152c4.44965,0.71054 12.96796,1.94476 16.97833,2.44049c3.8125,0.47128 7.42249,0.858 10.81354,1.18799c3.15674,0.30719 6.07037,0.55496 8.72546,0.77402c2.38361,0.19666 6.2876,0.51099 7.7865,0.66714c1.22101,0.1272 2.19275,0.24841 2.94,0.38553c0.56232,0.10318 0.97003,0.2027 1.22998,0.33148c0.17822,0.08832 0.33405,0.30276 0.37518,0.40466c0.04022,0.09964 0.06757,0.20377 0.08551,0.31052c0.01843,0.10965 0.02692,0.22525 0.03149,0.3465c0.00482,0.12811 0.00452,0.40948 0.00452,0.5665c0,0.17899 0,0.392 0,0.651c0,0.31699 0,0.70401 0,1.173c0,0.56299 0.00043,2.01898 -0.00018,2.93198c-0.00067,1.03101 -0.00262,2.16803 -0.0105,3.39902c-0.00836,1.31299 -0.02228,2.69604 -0.04651,4.13699c-0.02502,1.48706 -0.10468,4.55118 -0.16449,6.1055c-0.06012,1.56168 -0.13495,3.12729 -0.22498,4.69351c-0.08997,1.56479 -0.19458,3.12439 -0.315,4.67551c-0.11963,1.54092 -0.39874,4.57715 -0.56,6.06583c-0.15881,1.466 -0.33258,2.90366 -0.52502,4.30798c-0.18774,1.37036 -0.39093,2.70023 -0.61499,3.98401c-0.21625,1.23889 -0.6947,3.5545 -0.95953,4.62234c-0.25171,1.0148 -0.52045,1.97061 -0.79346,2.871c-0.25836,0.8522 -0.52197,1.65137 -0.77551,2.40298c-0.23853,0.707 -0.68005,1.98788 -0.8667,2.56967c-0.17444,0.54364 -0.3288,1.05609 -0.46045,1.54199c-0.12451,0.45953 -0.23047,0.90027 -0.31653,1.32602c-0.08319,0.41168 -0.19934,1.21802 -0.24634,1.61899c-0.04767,0.40704 -0.09442,0.8287 -0.19049,1.263c-0.10272,0.46436 -0.25983,0.96017 -0.49652,1.479c-0.2641,0.57889 -1.08539,1.8678 -1.64679,2.58484c-0.61615,0.78696 -1.323,1.59067 -2.08203,2.41348c-0.77954,0.84509 -1.58984,1.67554 -2.40601,2.4855c-0.79462,0.7886 -2.29358,2.21133 -2.96948,2.82266c-0.61652,0.55759 -1.19318,1.0575 -1.74451,1.4985c-0.51617,0.4129 -1.02264,0.78537 -1.5285,1.12051c-0.49829,0.33011 -1.55255,0.93707 -2.12018,1.23148c-0.58966,0.30585 -1.20941,0.60413 -1.854,0.90002c-0.66272,0.30423 -1.34808,0.60281 -2.052,0.89999c-0.71741,0.30289 -2.19446,0.90381 -2.95178,1.19949c-0.76935,0.30038 -1.55841,0.59674 -2.3775,0.8685c-0.84259,0.27957 -1.72302,0.5387 -2.64752,0.7605c-0.96228,0.23087 -3.05054,0.58911 -4.18298,0.70651c-1.19177,0.12354 -2.45258,0.19534 -3.78149,0.22498c-1.40027,0.03122 -2.87646,0.01312 -4.4295,-0.04498c-1.63507,-0.06119 -5.15961,-0.3028 -7.05566,-0.48083c-2.00146,-0.18796 -4.11829,-0.42694 -6.36151,-0.72751c-2.38934,-0.32013 -4.93201,-0.71078 -7.63953,-1.17749c-2.89417,-0.49887 -9.27142,-1.74878 -12.76868,-2.49985c-3.66425,-0.78696 -7.42651,-1.64127 -11.23047,-2.53198c-3.79236,-0.888 -7.50726,-1.78696 -11.08652,-2.67599c-3.38998,-0.84201 -9.35187,-2.37918 -11.8205,-3.04916c-2.13907,-0.58057 -3.97827,-1.10266 -5.55298,-1.57352c-1.353,-0.40457 -2.51328,-0.77356 -3.51901,-1.1055c-0.89014,-0.29379 -2.45633,-0.82852 -3.20184,-1.07184c-0.73318,-0.23932 -1.45602,-0.4675 -2.16449,-0.69598c-0.69519,-0.22421 -1.37622,-0.4462 -2.03851,-0.67801c-0.64838,-0.22693 -1.8884,-0.70734 -2.47665,-0.96899c-0.58112,-0.25848 -1.15152,-0.53763 -1.72351,-0.82501c-0.58237,-0.29257 -1.17642,-0.60184 -1.7955,-0.91501c-0.64621,-0.32687 -2.05499,-1.00824 -2.83167,-1.36081c-0.82462,-0.37433 -1.70535,-0.75937 -2.6355,-1.17752c-0.98627,-0.44339 -2.02863,-0.91977 -3.12149,-1.44748c-1.15671,-0.55856 -3.63879,-1.84473 -4.96384,-2.58118c-1.38989,-0.77252 -2.82318,-1.60443 -4.30801,-2.466c-1.52988,-0.88773 -3.09564,-1.80264 -4.70398,-2.71799c-1.63428,-0.93008 -4.98697,-2.76373 -6.70016,-3.64401c-1.71219,-0.87976 -3.43069,-1.72339 -5.13452,-2.54999c-1.67654,-0.81335 -3.32285,-1.59686 -4.91849,-2.37c-1.54163,-0.74698 -4.41101,-2.17966 -5.711,-2.87985c-1.22379,-0.65912 -2.35825,-1.30688 -3.40649,-1.93948c-0.98047,-0.59167 -1.88068,-1.16769 -2.7045,-1.72351c-0.76392,-0.51538 -2.08661,-1.47644 -2.655,-1.91599c-0.52341,-0.40479 -0.99942,-0.79251 -1.44452,-1.15652c-0.42188,-0.345 -0.82523,-0.6795 -1.22849,-0.99448c-0.40079,-0.31302 -1.2518,-0.91931 -1.72018,-1.21368c-0.48886,-0.30725 -1.00958,-0.60742 -1.55399,-0.91049c-0.5629,-0.31339 -1.14902,-0.62592 -1.75201,-0.9465c-0.61835,-0.32874 -1.89685,-1.00793 -2.55081,-1.36435c-0.6647,-0.36224 -1.33624,-0.73465 -2.0145,-1.11447c-0.68542,-0.38382 -1.37497,-0.7742 -2.06851,-1.16852c-0.69711,-0.39633 -2.09491,-1.19653 -2.79599,-1.59534c-0.70294,-0.39987 -1.41083,-0.79968 -2.1315,-1.18948c-0.7283,-0.39392 -1.47263,-0.78156 -2.2395,-1.1535c-0.78113,-0.37888 -2.42551,-1.09814 -3.29401,-1.43634c-0.89548,-0.34869 -1.83228,-0.68378 -2.80649,-1.0275c-1.01474,-0.35803 -2.07706,-0.72369 -3.18451,-1.11749c-1.16061,-0.41272 -3.64603,-1.33609 -4.97433,-1.86267c-1.39853,-0.55441 -2.86343,-1.16013 -4.4025,-1.81052c-1.62271,-0.68573 -3.32764,-1.42303 -5.1225,-2.20648c-1.89188,-0.82578 -5.97772,-2.62903 -8.18066,-3.60367c-2.3024,-1.01865 -4.69247,-2.07806 -7.15952,-3.17252c-2.53329,-1.12387 -5.1214,-2.27319 -7.75351,-3.4425c-2.66522,-1.18402 -8.05106,-3.5762 -10.74899,-4.77731c-2.69006,-1.19757 -5.36331,-2.39053 -8.00549,-3.58951c-2.61081,-1.18475 -5.17645,-2.3652 -7.68149,-3.5535c-2.4509,-1.1626 -7.12164,-3.47687 -9.31836,-4.63434c-2.11377,-1.11374 -4.11624,-2.21811 -6.0015,-3.30148c-1.78012,-1.02295 -3.42267,-2.02267 -4.93948,-2.9595l-1.37784,-0.87784" id="svg_6" stroke-width="2" stroke="#000" fill="none"/>
  <path t="28746,28768,28790,28790,28811,28811,28811,28832,28832,28832,28832,28832,28832,28832,28832,28856,28857,28857,28857,28857,28857,28857,28857,28857,28874,28875,28875,28875,28875,28875,28875,28875,28875,28905,28905,28905,28906,28906,28906,28906,28906,28906,28936,28937,28937,28937,28937,28937,28937,28937,28937,28963,28963,28963,28963,28963,28963,28963,28963,28963,29049,29049,29050,29050,29050,29050,29050,29050,29050,29169,29169,29169,29169,29169,29169,29170,29170,29170,29184,29184,29184,29184,29185,29185,29185,29185,29185,29211,29211,29211,29211,29229,29229,29229,29229,29229,29229,29229,29230,29230,29248,29248,29248,29249,29249,29249,29249,29249,29249,29266,29266,29266,29266,29266,29266,29266,29266,29267,29291,29291,29291,29291,29291,29291,29291,29291,29292,29311,29312,29312,29312,29312,29312,29312,29312,29312,29331,29331,29331,29331,29332,29332,29332,29332,29332,29474,29474,29474,29474,29498,29499,29522,29522,29522,29522,29523,29523,29523,29523,29523,29550,29550,29550,29551,29551,29551,29552,29552,29552,29572,29572,29572,29573,29573,29573,29573,29573,29573,29599,29599,29599,29600,29600,29600,29600,29600,29600,29617,29617,29617,29617,29617,29618,29618,29618,29618" d="m307.50348,223.88889c-1.60001,-0.64667 -2.09402,-1.32489 -2.5,-2c-0.59219,-0.98477 -1.10385,-1.60446 -1.48584,-2.0385c-0.84677,-0.96214 -1.22308,-1.38885 -1.63684,-1.8735c-0.45178,-0.52919 -1.4241,-1.70901 -1.92267,-2.35201c-0.51093,-0.65895 -1.0343,-1.32468 -1.95465,-2.73599c-0.45071,-0.69116 -0.85422,-1.40067 -1.25101,-2.10899c-0.39792,-0.71036 -0.78644,-1.43504 -1.19699,-2.16301c-0.42004,-0.74478 -0.84164,-1.52054 -1.88535,-3.06133c-0.55695,-0.82222 -1.18863,-1.64607 -1.85699,-2.49451c-0.69409,-0.88112 -1.43335,-1.7774 -2.19901,-2.70149c-0.789,-0.95229 -1.6134,-1.92058 -3.27734,-3.97067c-0.86023,-1.05983 -1.72043,-2.15225 -2.586,-3.267c-0.87579,-1.1279 -1.74939,-2.2731 -2.62198,-3.429c-0.87476,-1.15877 -1.74423,-2.32051 -3.45868,-4.63733c-0.84628,-1.14362 -1.67908,-2.27705 -2.50049,-3.39601c-0.80923,-1.10237 -1.60364,-2.18736 -2.38351,-3.252c-0.76379,-1.04268 -1.50879,-2.06273 -2.94934,-4.01866c-0.68875,-0.93517 -1.35629,-1.83676 -2.00098,-2.70151c-0.6167,-0.82722 -1.20587,-1.61209 -1.76703,-2.35049c-0.52628,-0.69254 -1.01395,-1.33783 -1.89865,-2.448c-0.37723,-0.47334 -0.72144,-0.88771 -1.02899,-1.2525c-0.27127,-0.32175 -0.51346,-0.601 -0.72302,-0.8475c-0.18298,-0.21524 -0.35229,-0.39696 -0.58133,-0.73332c-0.09622,-0.14133 -0.16769,-0.27924 -0.21899,-0.4095c-0.04703,-0.11943 -0.07635,-0.23573 -0.09299,-0.34651c-0.01587,-0.10568 -0.02051,-0.2093 -0.02133,-0.41066c-0.00043,-0.10001 -0.0004,-0.20052 0.01349,-0.3c0.01407,-0.10071 0.04221,-0.20338 0.09451,-0.3c0.0564,-0.10414 0.12228,-0.23856 0.5575,-0.50066c0.67239,-0.40495 1.38449,-0.63898 1.79099,-0.828c1.55133,-0.72141 2.17276,-1.056 2.85419,-1.40868c0.72827,-0.37692 1.49313,-0.77766 2.29349,-1.18349c0.82227,-0.41693 1.66016,-0.83755 2.51849,-1.2285c1.70007,-0.77435 2.5531,-1.09444 3.39334,-1.39734c0.82855,-0.29869 1.65793,-0.56894 2.48401,-0.8325c0.82458,-0.26309 1.65472,-0.51529 2.48398,-0.78749c1.68698,-0.55373 2.54037,-0.87007 3.40402,-1.20667c0.8808,-0.34328 1.77173,-0.71442 2.6745,-1.11c0.92267,-0.40431 1.85953,-0.83331 2.80948,-1.29001c1.96805,-0.94615 2.9715,-1.46725 3.99469,-1.99333c1.03516,-0.53223 2.07285,-1.0743 3.11249,-1.6125c1.03369,-0.53513 2.05499,-1.06502 3.0675,-1.56749c1.94699,-0.96622 2.88513,-1.39436 3.78934,-1.79333c0.86295,-0.38077 1.68982,-0.72548 2.4765,-1.035c0.73749,-0.29016 1.42816,-0.54826 2.0715,-0.765c1.11127,-0.37436 1.58548,-0.50009 2.00131,-0.60533c0.36172,-0.09154 0.67712,-0.15834 0.948,-0.213c0.2305,-0.04652 0.42761,-0.07668 0.58801,-0.123c0.24954,-0.07207 0.33963,-0.13568 0.41068,-0.20134c0.35526,-0.32829 1.12219,-0.22125 1.63416,0.44901c0.8262,1.08163 0.96161,1.70415 1.22583,2.323c0.29373,0.68794 0.59586,1.45259 0.93301,2.28149c0.36407,0.89514 0.754,1.85596 1.203,2.8665c0.98068,2.20711 1.57648,3.37636 2.20932,4.62134c0.67987,1.33752 1.43143,2.77557 2.23349,4.3455c0.87427,1.71126 1.82336,3.58336 2.81851,5.6505c2.27692,4.72961 3.48853,7.45406 4.78134,10.36133c1.35388,3.04459 2.72342,6.19109 4.10849,9.384c1.38428,3.19109 2.73709,6.33829 4.06351,9.384c2.44763,5.62022 3.55722,8.10153 4.58398,10.35866c0.93542,2.0563 1.80313,3.92033 2.60251,5.61151c0.72763,1.53935 1.40234,2.93735 2.01749,4.21649c1.08786,2.2621 1.5705,3.27647 2.00803,4.22667c0.40656,0.88293 0.76932,1.70799 1.09949,2.4735l0.29517,0.71051l0.26117,0.65849l0.22815,0.6095" id="svg_7" stroke-width="2" stroke="#000" fill="none"/>
  <path t="34595,34721,34742,34742,34742,34761,34783,34797,34798,34815,34815,34815,34868,34882,34882,34899,34918,34945,34945,35145,35162,35188,35214,35214,35214,35231,35231,35231,35231,35267,35267,35267,35286,35311,35311,35330,35330,35330,35330,35330,35352,35352,35352,35443,35460,35460,35476,35496,35496,35518,35518,35546,35546,35546,35675,35676,35676,35696,35696,35723,35745,35745,35745" d="m227.50346,295.88889c0,1.672 0,2.76801 0,3.5c0,0.73199 0,1.828 0,2.70132c0,0.96533 0,1.81952 0,2.79868c0,0.78934 0,1.51468 0,2.5c0,0.98401 0.00011,1.67465 0,2.74283c-0.00009,0.85718 -0.26196,1.7005 -0.64732,2.45718c-0.41595,0.81674 0.35182,1.29718 1.16817,1.29999c0.96849,0.00333 1.79922,0.02252 2.33649,0.08533c1.39922,0.1636 1.80067,0.26733 2.64267,0.41467c0.84201,0.14734 1.99713,0.36102 2.924,0.44284c0.90335,0.07974 1.81885,0.05716 2.78267,0.05716c0.77917,0 1.62668,0 2.41467,0c0.916,0 1.888,0 2.3725,0c1.33951,0 2.373,0 3.1275,0c0.99333,0 1.91791,0.17645 2.67867,-0.08533c0.77956,-0.26825 1.36748,-1.15512 1.95717,-1.61469c0.85513,-0.66644 1.49005,-0.88602 2.44283,-1.62149c0.62567,-0.48297 1.20113,-1.08188 1.8,-1.6785c0.59663,-0.59436 1.15184,-1.17636 1.9785,-1.97833c0.60211,-0.58414 1.43216,-1.00699 2.18817,-1.35501l0.66934,-0.51733l0.56848,-0.444" id="svg_8" stroke-width="2" stroke="#000" fill="none"/>
  <path t="36546,36617,36628,36650,36650,36650,36678,36678,36678,36678,36691,36691,36691,36691,36714,36714,36714,36896,36896,36912,36928,36953,36953,36979,36979,36979,36991,36991,36991,37011,37011,37011,37021,37021,37022,37022,37022,37039,37040,37061,37061,37073,37095,37110,37131,37131,37146,37146,37147,37161,37161,37161,37196,37196,37196,37209,37210,37210,37210,37210,37210,37222,37222" d="m293.50348,314.88889c0,1.79999 0.01236,2.67209 -0.00034,3.543c-0.01065,0.72922 -0.03091,1.5921 -0.44235,2.75717c-0.21942,0.62134 -0.61444,1.19705 -0.98932,2.18515c-0.38519,1.01523 -0.46808,1.76624 -0.54718,2.51468c-0.07889,0.74637 -0.1564,1.83963 -0.3735,2.83383c-0.19434,0.89001 -0.6846,1.8269 -0.60565,2.62451c0.08841,0.89291 0.49884,1.81296 1.29166,2.375c0.58997,0.41824 1.6676,0.13751 2.47736,0.17734c0.87677,0.04312 1.87378,0.27161 2.68933,0.48932c0.54764,0.14618 1.81995,0.46188 2.5625,0.4375c0.56415,-0.01852 2.02405,-0.37494 2.47083,-0.50684c0.9501,-0.28052 1.43497,-0.42511 2.34167,-0.7825c1.13846,-0.44873 1.86493,-1.04675 2.3465,-1.74817c0.43597,-0.63501 1.07556,-1.49731 1.97849,-1.81467c0.85278,-0.29971 1.65427,-0.41406 1.80002,-1.12698c0.19482,-0.953 0.40118,-1.79596 0.81882,-2.35834c0.64316,-0.86606 1.44009,-1.37863 1.8945,-1.80002c0.82269,-0.76291 1.19931,-1.64615 1.44467,-2.42865c0.32697,-1.04282 0.69058,-1.9075 0.89999,-2.3775c0.43494,-0.97617 0.66602,-1.45651 1.09,-2.3725l0.48767,-1.11383l0.267,-0.72751" id="svg_9" stroke-width="2" stroke="#000" fill="none"/>
 </g>
 <g display="none">
  <title>muse_image</title>
  <image xlink:href="http://farm1.static.flickr.com/46/128447528_a48d3519de.jpg" id="muse" height="336" width="640" y="72" x="0"/>
 </g>
 <g display="none">
  <title>bbox</title>
  <rect stroke="#f00" fill="none" stroke-width="3" height="311.72624" width="624.64" y="84.77567" x="1.28" id="bbox"/>
 </g>
</svg>
