<svg width="640" height="480" xmlns="http://www.w3.org/2000/svg" xmlns:svg="http://www.w3.org/2000/svg" xmlns:xlink="http://www.w3.org/1999/xlink">
 <!-- Sketchy ANNOTATION
  ImageNet ID: n02691156_10381
  URL: http://farm1.static.flickr.com/180/423873432_95420959b6.jpg
  Image Width: 500
  Image Height: 306
  BBox X: 12
  BBox Y: 35
  BBox Width: 475
  BBox Height: 228
  Exposure: 2000ms
  Synset Label: airplane
  Synset ID: n02691156
  Worker Tag: airplane heading forward
  Sanity Check: 
   Context
   Saved
   Shading
  Comment: 
   {}
  Worker ID: A1P7U2ULSAE7YL
  Assignment ID: 3OS4RQUCR9FXTCCOTUJ9CMV91TPFBK
  HIT ID: 3MA5N0ATTCBYAH4JZU10QT5EIDSWKM
  Work Time: 93s
  Worker Score: 0.9286
 END ANNOTATION -->
 <g display="inline">
  <title>Layer 1</title>
  <path t="0,263,263,271,271,280,287,287,295,303,303,319,327,343,359,367,375,383,391,400,407,407,415,423,431,432,439,440,448,455,464,464,464,471,471,480,480,487,487,495,495,503,503,512,512,512,520,520,527,527,527,535,535,543,543,543,552,552,552,559,559,559,559,567,568,568,575,575,583,583,583,591,591,591,599,599,599,607,607,607,616,616,616,623,623,623,623,633,633,639,639,639,640,647,647,655,655,655,656,664,664,671,671,671,671,680,680,680,687,687,688,697,697,697,697,703,703,704,704,704,711,711,711,719,719,719,727,727,727,727,736,736,736,736,743,743,752,752,752,752,759,759,759,767,768,768,775,775,775,783,783,783,791,791,792,792,799,799,800,800,807,807,815,816,816,816,816,823,823,824,832,833,833,833,839,839,840,840,840,847,847,847,855,856,856,864,864,864,871,871,871,880,881,881,887,888,888,896,897,903,904,904,911,911,912,912,912,920,920,920,920,927,928,928,928,928,937,937,938,938,938,938,943,944,944,944,944,944,951,952,952,952,952,952,959,960,960,960,960,967,967,967,968,968,975,976,976,976,976,984,984,984,985,985,991,992,992,992,1003,1003,1003,1007,1008,1008,1008,1016,1016,1016,1023,1024,1024,1036,1036,1036,1037,1040,1040,1040,1040,1047,1047,1048,1056,1056,1056,1064,1064,1064,1064,1072,1072,1073,1073,1080,1080,1081,1081,1081,1088,1089,1089,1089,1089,1097,1097,1097,1098,1103,1104,1104,1112,1112,1112,1112,1113,1113,1122,1122,1122,1123,1123,1123,1127,1128,1128,1128,1129,1129,1136,1136,1136,1137,1137,1143,1144,1144,1144,1144,1145,1151,1151,1152,1159,1160,1160,1160,1169,1170,1170,1170,1171,1175,1176,1176,1183,1183,1184,1184,1191,1192,1192,1192,1192,1203,1203,1203,1204,1207,1207,1208,1208,1208,1208,1216,1216,1216,1217,1217,1217,1223,1224,1224,1224,1225,1225,1233,1233,1234,1234,1240,1240,1240,1241,1241,1252,1253,1253,1254,1254,1254,1256,1256,1257,1257,1257,1264,1264,1265,1265,1265,1266,1266,1273,1273,1274,1274,1274,1280,1280,1281,1281,1281,1289,1289,1289,1290,1290,1290,1297,1297,1298,1298,1298,1303,1304,1304,1304,1313,1313,1314,1314,1314,1320,1320,1321,1321,1335,1335,1336,1337,1338,1343,1344,1344,1344,1352,1352,1359,1360,1360,1367,1367,1375,1376,1386,1386,1391,1391,1402,1403,1403,1404,1407,1408,1416,1416,1417,1417,1423,1424,1424,1424,1434,1434,1435,1435,1435,1439,1440,1440,1441,1441,1453,1453,1454,1454,1454,1457,1458,1458,1459,1459,1459,1463,1464,1464,1464,1465,1472,1472,1473,1473,1487,1487,1488,1488,1488,1491,1492,1492,1493,1504,1504,1505,1506,1508,1509,1509,1519,1519,1521,1521,1528,1528,1538,1539,1544,1545,1545,1552,1553,1553,1560,1561,1567,1576,1577,1588,1593,1593,1607,1608,1623,1632,1648,1656,1663,1672,1672,1680,1680,1689,1689,1690,1696,1703,1704,1713,1714,1722,1730,1736,1737,1744,1745,1761,1761,1767,1776,1777,1911,1923,1930,1940,1944,1945,1954,1955,1955,1961,1961,1967,1968,1977,1978,1983,1993" d="m103.51137,135.09091c1,0.16667 1.60234,0.66246 2.484,1.19867c0.66757,0.40599 1.49243,0.6987 2.516,0.80133c0.69882,0.07007 1.48029,0.54179 2.2,1.19867c0.5845,0.53348 1.4987,0.67342 2.18934,1.22667c0.7496,0.60049 0.89302,1.53186 1.81066,1.57466c0.89886,0.04192 1.40899,0.50722 2.15717,0.94283c0.73013,0.42509 1.88149,0.16019 2.35751,0.85851c0.51078,0.74931 1.06944,1.19221 1.938,1.55583c0.71642,0.29993 1.39513,0.94482 2.146,1.3575c0.84361,0.46365 1.58106,0.76538 2.368,1.28534c0.64604,0.42686 1.43169,0.72752 2.42884,0.95183c0.74522,0.16765 1.62961,0.77614 2.15717,1.40001c0.54633,0.64607 1.20178,1.2346 2.226,1.52666c0.75279,0.21466 1.70131,0.02451 2.42583,0.23584c1.05023,0.30634 1.55611,0.94647 2.19551,1.31766c0.95482,0.55429 1.86552,0.57484 2.82117,0.78951c0.80199,0.18015 1.59752,0.42564 2.43616,0.87851c0.82513,0.44557 1.46774,0.91972 2.40401,1.29999c0.51965,0.21106 1.57266,0.59839 2.2905,0.90001c0.71017,0.2984 1.78207,0.69817 2.74899,1.0045c0.67876,0.21504 1.41269,0.32436 2.43484,1.01666c0.62236,0.42152 1.08131,1.24164 1.92149,1.569c0.71173,0.27731 1.74666,0.39209 2.61484,0.7205c0.49933,0.18889 1.69466,0.58932 2.368,0.78932c0.67334,0.20001 1.87933,0.5629 2.67334,1c0.67108,0.36943 1.44647,0.83049 2.22833,1.07918c0.85062,0.27055 1.75941,0.39081 2.65833,0.50616c0.90118,0.11565 1.81433,0.31522 2.6955,0.72c0.59415,0.27293 1.38971,0.81059 2.4205,1.12534c0.66943,0.20441 1.85597,0.31532 2.63667,0.52649c0.55147,0.14917 1.37047,0.4267 2.36333,0.84283c0.9162,0.384 1.84973,0.80247 2.63217,1.10001c0.53036,0.20168 1.29955,0.46829 2.25101,1c0.67618,0.37787 1.56044,0.81509 2.49815,1.09999c0.69536,0.21126 1.42329,0.39319 2.481,0.69984c0.97685,0.2832 1.56461,0.5099 2.655,0.73349c0.93408,0.19154 1.64369,0.21265 2.5885,0.6095c0.86154,0.36188 1.44911,0.76802 2.15018,1.07451c1.15277,0.50397 2.02866,0.73059 2.46799,0.85733c0.873,0.25185 1.74014,0.43376 2.7955,0.9465c0.88913,0.43198 1.26585,0.94557 2.36484,1.43617c0.59355,0.26497 1.58133,0.37793 2.4425,0.68549c0.67661,0.24164 1.37695,0.58032 2.10899,0.90901c1.07997,0.48491 2.08109,0.9024 2.7065,1.10649c0.84821,0.27678 1.88142,0.36594 2.767,0.63901c0.97839,0.3017 1.46133,0.75133 2.27467,1.40266c0.54913,0.43976 1.30605,1.06876 2.27466,1.41333c0.66277,0.23576 1.65804,0.50835 2.45067,0.948c0.55772,0.30934 1.60165,0.98322 2.3175,1.3815c0.64098,0.35663 1.44844,0.7756 2.2785,1.15717c0.68613,0.3154 1.81981,0.70573 2.48849,0.90001c0.70926,0.20607 1.44434,0.39169 2.5235,0.7c1.00725,0.28777 1.6172,0.5096 2.48001,0.71466c0.99623,0.23677 1.95215,0.28212 3.01999,0.45201c0.63895,0.10165 1.32961,0.2628 2.052,0.444c0.73369,0.18404 2.13412,0.57634 2.77867,0.79999c0.93895,0.32581 1.84015,0.74828 2.43733,1.07333c0.92609,0.50409 1.53835,0.90147 2.56534,1.34933c0.7063,0.308 1.45679,0.537 2.20799,0.756c0.73953,0.21559 1.80722,0.49934 2.77867,0.81067c0.60228,0.19301 1.68591,0.58636 2.3895,0.90001c0.86021,0.38347 1.64069,0.83813 2.478,1.17917c0.65292,0.26593 1.66698,0.41988 2.5,0.54166c0.88354,0.12917 1.79501,0.38953 2.66852,0.8405c0.58618,0.30263 1.63446,0.98906 2.349,1.377c0.60724,0.32968 1.59851,0.61903 2.27148,0.87151c0.99884,0.37473 1.46948,0.76775 2.35632,1.29916c0.99677,0.59729 1.71371,0.99762 2.45917,1.38034c0.7453,0.38264 1.10913,0.58333 2.55334,1.18916c0.66306,0.27814 1.3179,0.51131 1.974,0.717c1.36221,0.42703 2.11273,0.60139 2.88901,0.84618c0.82416,0.25987 1.25891,0.39752 2.57983,1.00099c0.46906,0.21428 1.41336,0.71021 1.89932,0.95734c0.98141,0.4991 1.46188,0.77866 2.97934,1.35716c0.49554,0.18892 1.50946,0.48528 2.02066,0.62201c1.03433,0.27666 1.56952,0.38525 3.20016,0.84233c0.56213,0.15756 1.1264,0.32443 2.23734,0.69933c0.54623,0.18433 1.5965,0.55849 2.54166,0.97917c0.85437,0.38029 1.60574,0.79471 2.30402,1.2c0.68033,0.39488 1.71106,1.01242 2.45767,1.39551c0.77338,0.39682 1.17468,0.59427 2.02499,0.91916c1.31989,0.50432 1.79419,0.6122 2.73868,0.84933c0.94632,0.23759 1.4231,0.32651 2.80798,0.636c0.88071,0.19682 1.72125,0.39507 2.51999,0.60001c0.76123,0.19531 1.82666,0.49518 2.4895,0.7c0.94867,0.29312 1.55591,0.4998 2.75717,0.89999c0.60004,0.19991 1.5,0.5 2.39999,0.8c0.90002,0.3 1.5,0.49997 2.40002,0.8c0.89981,0.29997 1.79312,0.58948 2.64282,0.89999c0.79413,0.29022 1.73618,0.71571 2.46701,1c0.8168,0.31772 1.79929,0.60255 2.51099,0.8c0.73029,0.20261 1.81412,0.49454 2.49384,0.7c0.96689,0.29225 1.5802,0.50192 2.78516,0.89984c0.59537,0.19661 1.45401,0.50836 2.53351,0.73349c0.70853,0.14777 1.64389,0.21214 2.58835,0.60966c0.55698,0.23444 1.42236,0.78279 2.065,1.15967c1.03049,0.60434 1.76193,1.00087 2.51331,1.37651c0.74341,0.37164 1.82828,0.86682 2.51868,1.1355c0.67264,0.26176 1.3743,0.4912 2.13602,0.68399c1.30228,0.32961 1.7948,0.40642 2.81067,0.59067c0.51324,0.09309 1.51688,0.27298 2.86798,0.444c0.72543,0.09183 1.60397,0.15511 2.34668,0.16534c1.00925,0.01392 1.90332,0.00133 2.59598,0.00133c1.224,0 2.17871,-0.00098 2.69101,0.0045c1.07474,0.01149 1.62982,0.01526 2.75168,0.08083c1.11572,0.06522 1.66147,0.12375 2.72415,0.27184c0.52206,0.07275 1.54739,0.24889 2.55585,0.44417c1.00223,0.19408 2.00009,0.39818 2.49683,0.49867c0.98386,0.19904 1.94772,0.39818 2.41916,0.5c1.36533,0.29489 2.23846,0.49939 3.10617,0.72083c0.44116,0.11258 1.35077,0.35686 2.3125,0.64584c1.03317,0.31047 1.56323,0.47713 2.60416,0.85416c0.50623,0.18336 1.49283,0.48865 2.55551,1.179c0.80591,0.52356 1.3089,1.21269 2.00699,1.6335c0.82468,0.49712 1.55942,0.65685 2.31351,0.86217c1.18192,0.32181 1.98486,0.5005 2.76517,0.7045c0.75034,0.19617 1.46133,0.36928 2.65335,0.8c0.77542,0.2802 1.53085,0.61536 2.41098,0.90016c0.66766,0.21606 1.40262,0.40828 2.16602,0.65701c1.19745,0.39017 1.99243,0.72046 2.78033,1.06816c0.77744,0.34308 1.51843,0.70685 2.58948,1.15334c0.66885,0.27882 1.34265,0.51961 2.3905,0.90533c0.76447,0.28142 1.60202,0.59958 2.50269,0.952c0.47003,0.18391 1.43707,0.5683 1.93066,0.76534c1.49774,0.59789 1.99612,0.80394 3.008,1.188c0.50891,0.19316 1.54333,0.56358 2.07468,0.72533c1.62637,0.49507 2.19437,0.60262 2.75381,0.73267c1.09775,0.25519 1.63873,0.33815 2.62085,0.63667c1.27112,0.38637 1.92584,0.76697 2.51917,1.116c0.87296,0.51352 1.87949,0.99702 2.69232,1.24283c0.43359,0.13112 1.35919,0.35265 2.33252,0.55583c0.99469,0.20764 1.99527,0.39977 2.49149,0.50584c0.98492,0.21056 1.95029,0.44226 2.41916,0.58083c1.37347,0.40588 2.23834,0.76904 2.67068,0.95067c0.87839,0.36902 1.77911,0.77731 2.74799,1.164c1.03098,0.41147 1.57495,0.59998 2.12799,0.78934c1.12094,0.38379 1.6886,0.55994 2.25601,0.72534c1.65564,0.48264 2.19464,0.60577 3.23599,0.84933c0.50436,0.11795 1.48593,0.3273 2.88,0.63599c0.44565,0.09866 1.314,0.29999 2.16666,0.5c0.85269,0.20001 2.16666,0.50018 2.62134,0.60016c0.93124,0.20474 1.87988,0.41571 2.35333,0.53583c0.94391,0.23947 2.306,0.67926 2.73868,0.84802c0.8447,0.3295 1.63788,0.69537 2.39999,1.03198c1.06259,0.4693 1.73724,0.73471 2.4075,0.98401c1.04654,0.38925 2.22214,0.82056 2.64716,0.98401c0.8833,0.33972 1.78091,0.69174 2.22668,0.86331c1.27081,0.48914 2.03333,0.76736 2.72266,1.01669c0.9165,0.33151 1.96591,0.7254 2.64667,1.03598c0.63608,0.29019 1.63153,0.81232 2.25684,1.10001c1.13574,0.52252 1.92801,0.80725 2.47916,0.97916c0.81079,0.2529 1.81393,0.46765 2.72534,0.51016c0.94037,0.04388 1.72632,-0.03394 2.51334,0.04669c1.12772,0.11554 1.79666,0.62372 2.56583,1.25949c0.55209,0.45636 1.5401,0.63037 2.29684,0.78848c1.01889,0.21286 1.646,0.54294 2.56534,1.08267c0.7916,0.46472 1.29205,0.84839 2.064,1.26401c0.94559,0.50909 1.832,0.71478 2.82401,1.13867c0.64911,0.27737 1.33801,0.62332 2.064,0.948c1.05542,0.47202 1.7319,0.73337 2.40216,0.98267c1.04654,0.38925 1.81171,0.66879 2.6485,0.98267c0.89114,0.33426 1.34311,0.52283 2.2825,0.8075c1.37036,0.41525 2.26224,0.54611 2.69101,0.60449c0.83524,0.11371 1.66568,0.15027 2.85715,0.43869c0.81232,0.19662 1.6145,0.52979 2.436,0.888c0.85342,0.37213 1.72787,0.78519 2.64932,1.17731c0.47046,0.2002 1.43365,0.58557 1.92535,0.76535c0.987,0.36087 1.98572,0.68237 2.98669,0.95065c0.97797,0.26212 1.46143,0.36258 2.38831,0.58084c1.28162,0.30182 2.04401,0.50681 2.75299,0.69385c0.67511,0.1781 2.02704,0.453 2.74536,0.52798c0.74042,0.07727 1.4975,0.10437 2.23199,0.25201c1.07568,0.21622 2.05688,0.68723 2.67334,1.052c0.61859,0.36603 1.49799,0.99844 2.41064,1.55731c0.5921,0.36255 1.16937,0.75793 2.39868,1.05069c0.86566,0.20615 1.44415,0.16614 2.716,0.17065c0.66449,0.00235 1.68781,-0.05316 2.47467,0.01065c1.05212,0.08533 1.66559,0.61874 2.69733,0.90533c0.73981,0.20551 1.68298,0.23834 2.466,0.43668c0.82538,0.20908 1.8764,0.51321 2.59015,0.59018c0.84937,0.09158 1.89771,-0.16507 2.74286,0.11432c0.80859,0.2673 1.25415,1.19656 1.89966,1.50684c0.89526,0.4303 1.91479,0.43155 2.70001,0.436c0.94,0.00534 1.65131,0.04019 2.59381,0.5c0.83661,0.40817 1.39709,1.03842 2.04169,1.5c0.69354,0.49661 1.18781,1.22296 1.73383,1.79999c0.65399,0.69113 1.52917,0.81616 2.57867,1.03336c0.69861,0.14456 1.5119,0.05655 2.54132,0.17731c0.96338,0.11301 1.62244,0.56961 2.62531,0.82269c0.76556,0.19318 1.7572,0.16611 2.54169,0.16666c0.94232,0.00067 1.8399,-0.0318 2.70569,0.35266c0.66998,0.29752 1.59882,0.53043 2.26862,0.73132c1.01306,0.30383 1.59747,1.23715 2.284,1.63068c0.73389,0.42065 1.81769,0.28214 2.22534,0.896c0.48981,0.73755 1.30493,1.23044 1.99554,1.41019c0.99463,0.25888 1.55682,0.70779 2.32196,1.27383c0.75629,0.55954 1.54425,0.77969 2.49316,1.13065c0.76782,0.28397 1.755,0.522 2.44971,0.62735l0.729,0.55798l0.42133,0.77869" id="svg_1" stroke-width="2" stroke="#000" fill="none"/>
  <polyline timestamps="5464,5807" startTime="1442192129531" id="svg_2" points="104.51136684417725,137.09091091156006 106.26853351084391,137.09091091156006 " stroke-linecap="round" stroke-width="2" stroke="#000" fill="none"/>
  <path t="6743,6894,6919,6951,6975,6992,7008,7024,7024,7040,7080,7104,7136,7152,7168,7200,7208,7224,7248,7256,7274,7296,7296,7320,7336,7352,7352,7361,7376,7400,7400,7400,7416,7424,7440,7440,7448,7457,7464,7488,7496,7504,7512,7512,7528,7528,7536,7536,7544,7544,7552,7560,7584,7600,7616,7632,7632,7640,7648,7657,7664,7664,7673,7680,7690,7696,7704,7704,7712,7720,7720,7728,7728,7736,7737,7752,7760,7768,7768,7768,7776,7784,7793,7793,7800,7800,7809,7816,7816,7826,7826,7832,7833,7840,7840,7848,7848,7857,7857,7864,7880,7880,7896,7896,7904,7904,7913,7929,7936,7945,7952,7960,7968,7976,7976,7984,7984,7993,7993,8000,8001,8010,8010,8016,8016,8026,8026,8032,8032,8042,8042,8048,8049,8057,8057,8064,8065,8073,8073,8080,8080,8090,8096,8105,8120,8120,8152,8152,8161,8168,8176,8176,8184,8193,8193,8200,8200,8200,8209,8209,8216,8216,8224,8224,8225,8232,8233,8241,8241,8241,8248,8249,8249,8258,8265,8273,8273,8280,8290,8290,8296,8307,8307,8313,8313,8320,8320,8329,8329,8336,8336,8345,8345,8352,8352,8352,8360,8361,8376,8384,8384,8384,8392,8400,8401,8411,8411,8417,8417,8430,8430,8433,8433,8445,8449,8463,8463,8463,8473,8473,8481,8482,8489,8489,8489,8497,8497,8497,8497,8506,8507,8507,8513,8513,8521,8521,8531,8532,8532,8537,8537,8545,8545,8552,8552,8563,8568,8576,8584,8584,8594,8601,8601,8612,8613,8613,8616,8617,8617,8629,8632,8633,8641,8641,8641,8649,8649,8650,8661,8661,8665,8666,8673,8673,8673,8682,8682,8689,8689,8689,8697,8697,8706,8706,8714,8714,8714,8723,8723,8730,8730,8736,8737,8747,8752,8753,8760,8760,8769,8769,8780,8780,8784,8785,8785,8796,8800,8800,8813,8813,8813,8816,8816,8824,8825,8825,8833,8833,8833,8846,8846,8849,8849,8856,8857,8865,8865,8866,8873,8882,8882,8883,8889,8889,8889,8897,8897,8897,8909,8909,8913,8922,8923,8923,8923,8930,8930,8931,8939,8940,8947,8947,8947,8953,8953,8953,8961,8961,8961,8968,8969,8969,8976,8976,8977,8984,8985,8985,8985,8993,8993,8993,8993,9000,9001,9001,9001,9008,9009,9017,9017,9017,9029,9030,9030,9030,9031,9033,9033,9034,9034,9045,9045,9046,9049,9049,9049,9059,9059,9065,9065,9072,9073,9073,9081,9081,9082,9092,9092,9092,9097,9098,9098,9105,9106,9106,9106,9113,9114,9114,9122,9122,9122,9129,9129,9137,9137,9144,9145,9145,9145,9153,9154,9154,9161,9161,9161,9168,9169,9169,9180,9181,9184,9185,9185,9185,9193,9193,9193,9194,9201,9201,9210,9210,9210,9217,9217,9217,9228,9228,9233,9233,9240,9241,9249,9249,9250,9261,9261,9261,9266,9267,9267,9272,9273,9273,9281,9282,9283,9283,9283,9288,9289,9289,9289,9297,9298,9298,9305,9306,9306,9313,9313,9313,9314,9322,9322,9329,9329,9339,9339,9339,9345,9345,9345,9356,9357,9357,9357,9358,9367,9367,9373,9374,9374,9379,9379,9387,9388,9388,9388,9392,9392,9401,9409,9409,9418,9419,9419,9424,9425,9435,9436,9446,9446,9457,9467,9467,9474,9474,9485,9485,9493,9493,9497,9507,9507,9517,9524,9524,9530,9530,9531,9548,9548,9550,9551,9554,9562,9569,9570,9577,9587,9587,9598,9602,9603,9618,9623,9624,9633,9633,9648,9650,9650,9657,9657,9658,9665,9665,9666,9673,9673,9683,9684,9690,9691,9701,9701,9702,9708,9708,9713,9714,9723,9832,9840,9841,9848,9849,9856,9856,9856,9864,9865,9865,9866,9876,9876,9883,9883,9884,9888,9896,9896,9897,9905,9906,9913,9922,10016,10024,10033,10041,10042,10072" d="m102.51137,133.09091c1.61066,0 2.5,0 3.4,0c0.89999,0 1.8,0 2.7,0c0.9,0 1.7,0 2.6,0c0.9,0 1.864,-0.00229 2.736,0c0.85951,0.00226 1.61781,0.44661 2.13867,1.02533c0.57408,0.63786 1.2271,0.94681 2.12533,0.97467c0.94411,0.0293 1.3518,0.85638 2.3,1c0.79098,0.1198 1.75568,-0.0313 2.4,0.436c0.78094,0.56639 1.31332,1.17688 2.2,1.58932c0.82397,0.38327 1.56254,0.98154 2.22533,1.37466c0.68648,0.40717 1.44771,1.16685 2.27467,1.4785c0.84982,0.32025 1.7002,0.10277 2.59999,0.12151c0.86456,0.01801 1.15184,0.83105 1.73601,1.42534c0.636,0.64702 1.71964,0.38812 2.564,0.74133c0.71556,0.29933 1.46191,1.08278 2.21066,1.39732c0.76894,0.32301 1.57822,0.418 2.62267,0.436c0.86205,0.01486 1.57039,0.17067 2.16534,0.716c0.50911,0.46664 1.35167,0.80144 2.20132,1.2c0.86043,0.40361 1.51297,0.70183 2.40001,1.10933c0.81276,0.37338 1.59999,0.88934 2.39999,0.97467c0.8,0.08533 1.60262,0.60802 2.19867,1.19867c0.683,0.6768 1.448,0.80133 2.45399,0.80133c0.69467,0 1.722,0 2.66884,0c0.69933,0 1.6785,0 2.65767,0c0.85416,0 1.76178,-0.18782 2.6315,0.036c0.8662,0.22292 1.5385,0.99525 2.21466,1.35333c0.6747,0.3573 1.67343,0.56793 2.47917,0.96333c0.88615,0.43486 1.53108,0.62933 2.6955,0.64734c0.77858,0.01204 1.68774,-0.06372 2.44283,0.22133c0.7693,0.29042 1.67001,0.73042 2.44118,0.77734c0.95032,0.05782 1.73058,0.04132 2.716,0.35399c0.81261,0.25783 1.80688,0.51622 2.564,0.67267c0.96484,0.19937 1.60312,0.81949 2.472,0.964c0.83791,0.13937 1.78191,0.01266 2.56383,0.23199c0.79691,0.22354 1.77216,0.71649 2.59883,0.77734c0.89891,0.06618 1.85307,0.03305 2.17601,0.85199c0.34459,0.87386 1.16322,0.82756 1.85866,1.31601c0.71518,0.50232 1.37688,0.78235 2.13734,0.91866c0.80914,0.14503 1.56441,0.35768 2.696,0.91467c0.69679,0.34297 1.49149,0.89545 2.33333,0.97917c0.8295,0.08249 1.7533,-0.00873 2.65717,0.02533c0.74866,0.02821 1.76593,0.22849 2.50684,0.60617c0.84668,0.43159 1.43156,1.03365 2.15733,1.48917c0.82277,0.5164 1.69527,0.67737 2.43134,1.00999c0.78745,0.35585 1.39749,1.14639 2.24733,1.55684c0.74872,0.36162 1.83333,0.33333 2.62534,0.33333c0.85866,0 1.722,0 2.73866,0c0.836,0 1.73665,-0.03391 2.636,0c0.75879,0.02859 1.67514,0.31544 2.34734,0.7045c0.92537,0.53557 1.56943,1.21536 2.3625,1.3c0.80695,0.08612 1.60722,0.56912 2.61166,0.87399c0.67609,0.2052 1.6785,0.12151 2.4785,0.12151c0.8,0 1.80669,-0.05872 2.59999,0.05716c1.01494,0.14824 1.80211,0.54922 2.60001,0.94284c0.80214,0.39571 1.39098,0.71854 2.40134,1.19867c0.61421,0.29187 1.76276,0.65411 2.55133,0.74866c0.81981,0.09828 1.89931,0.16072 2.58116,0.40984c0.77406,0.28281 1.26923,1.20581 2.00784,1.64284c0.69742,0.41266 1.63838,0.56511 2.29033,1.19867c0.65543,0.63693 1.35329,0.7959 2.41083,0.80133c0.85748,0.00441 1.58192,0.01736 2.52383,0.28534c0.72177,0.20535 1.64133,0.82013 2.27333,1.27866c0.74722,0.54211 1.56267,0.43533 2.56,0.436c0.80002,0.00053 1.80441,-0.05458 2.60001,0.036c1.01053,0.11505 1.80331,0.47781 2.39999,0.76534c1.00125,0.48247 1.72998,0.88274 2.64734,1.146c0.90848,0.26071 1.6011,0.448 2.26868,0.854c0.88165,0.53619 1.68942,1.1024 2.45465,1.28267c0.80045,0.18857 1.56638,0.35506 2.69601,0.916c0.68735,0.34131 1.44244,0.84705 2.21866,1.084c0.77759,0.23738 1.60638,0.74724 2.59384,0.89517c0.81659,0.12233 1.69794,0.16327 2.54166,0.54166c0.58826,0.26382 1.55933,0.82448 2.37918,1.12201c0.784,0.28452 1.61548,0.28186 2.59998,0.52383c0.83939,0.20631 1.50482,0.5661 2.64267,0.93317c0.65759,0.21214 1.3519,0.40462 2.38934,0.61482c0.92072,0.18655 1.70551,0.2009 2.56534,0.36934c1.01868,0.19955 1.78769,0.62715 2.80267,0.832c0.79147,0.15973 1.61499,0.20959 2.39999,0.52c0.81784,0.32339 1.57898,0.81279 2.39999,1.12799c0.97852,0.37567 1.77902,0.42558 2.7785,0.436c0.82013,0.00854 1.6947,0.10828 2.1055,0.80133c0.41702,0.70358 1.44418,0.95108 2.20618,1.25134c0.79108,0.31172 1.2485,1.21689 1.96716,1.51132c0.87759,0.35956 1.69696,0.36768 2.51733,0.46133c1.06116,0.12114 1.96893,0.42682 2.73865,0.69067c0.84109,0.28833 1.63834,0.67488 2.45734,1c0.76614,0.30415 1.57086,0.27245 2.43201,0.28267c1.19592,0.01421 1.78668,0.00133 2.64017,0.00133c1.03549,0 1.9155,0 2.936,0c0.83099,0 1.79132,-0.01927 2.54199,0.02083c0.79797,0.04263 1.80231,0.24474 2.47916,0.5c1.18011,0.44507 1.94434,0.78618 2.47919,0.95834c1.17957,0.3797 2.01767,0.43565 2.72348,0.80617c0.65656,0.34467 1.56534,0.91466 2.29733,1.21466c0.73203,0.3 1.63712,0.8994 2.38269,1.21466c0.90759,0.38379 1.71936,0.25197 2.71283,0.28984c0.74863,0.02853 1.57944,0.47964 2.50467,0.87416c0.74652,0.31831 1.54169,0.5163 2.30432,0.76868c0.97891,0.32396 1.81189,0.30771 2.7955,0.57399c0.81769,0.22136 1.79373,0.6581 2.58932,0.74268c0.72211,0.07677 1.72656,0.00032 2.53217,0.25732c0.91156,0.2908 1.6759,0.62764 2.47852,0.75334c0.7977,0.12492 1.79117,0.41986 2.65717,0.67267c0.95178,0.27783 1.76773,0.33061 2.59015,0.34816c1.03098,0.02199 1.71667,0.00262 2.55136,0.0045c1.00131,0.00226 1.81958,-0.01195 2.79999,0.284c0.78372,0.23657 1.72177,0.61702 2.41116,0.76868c0.96298,0.21184 1.70673,0.42825 2.42218,0.74866c0.98392,0.44063 1.93564,1.02777 2.604,1.18401c0.76648,0.17915 1.76636,0.72736 2.39999,1.2c0.44781,0.33403 1.43222,0.96802 2.26398,1.27299c0.80267,0.29431 1.84015,0.32933 2.61734,0.567c0.91006,0.27832 1.53601,1.16223 2.02133,1.45734c0.88049,0.53542 1.54636,0.85919 2.52802,1.18401c0.80597,0.26669 1.73926,0.32257 2.53333,0.55482c0.81979,0.23978 1.79031,0.79918 2.40451,1.07401c0.84039,0.37605 1.81454,0.61087 2.6315,0.6685c0.86691,0.06116 1.76416,0.02202 2.65948,0.0405c0.8689,0.01793 1.95105,0.11839 2.64734,0.35266c0.87262,0.29361 1.66333,0.73154 2.478,1.16367c0.66953,0.35515 1.39557,0.80927 2.22583,1.3045c0.59628,0.35567 1.22372,0.72902 2.27469,1.15317c0.7211,0.29103 1.47824,0.50201 2.59467,0.82016c1.06195,0.30263 1.72632,0.48938 2.63733,0.80135c0.56256,0.19264 1.58856,0.55032 2.436,1.036c0.84064,0.48177 1.37924,1.0721 2.08264,1.50267c1.01105,0.6189 1.69556,0.71605 2.40002,0.78932c0.74701,0.0777 1.53064,0.06747 2.72766,0.07217c0.79132,0.0031 1.9314,0.00305 2.62967,0.08516c1.20932,0.14221 1.93985,0.45038 2.65332,0.63068c0.98999,0.25018 1.82233,0.24469 2.63333,0.368c1.00589,0.15294 1.87817,0.46361 2.66266,1.01616c0.68661,0.48361 1.31985,1.24686 1.86801,1.71451c0.5914,0.50455 1.5704,0.96155 2.37866,1.13466c0.81812,0.17522 1.88617,0.44498 2.53867,0.92267c0.66885,0.48969 1.22278,1.14174 1.84052,1.72351c0.61856,0.58253 1.54623,1.27014 2.35266,1.64732c0.55365,0.25896 1.44284,0.55978 2.34265,0.85701c0.88824,0.2934 1.45126,0.52185 2.53351,0.73349c0.92233,0.18036 1.76813,0.10078 2.76218,0.17567c0.75256,0.0567 1.48224,0.60152 2.10184,1.17633c0.75626,0.70158 1.66101,1.06937 2.32349,1.29384c0.67435,0.22849 1.93594,0.62173 2.46933,0.81633c0.95731,0.34926 1.93008,0.59291 2.73517,0.67917c0.82098,0.08797 1.86591,0.2097 2.53867,0.46133c0.85339,0.3192 1.64575,0.74951 2.47202,1.2c0.94061,0.51283 1.4451,0.85489 2.28482,1.364c0.58081,0.35213 1.47034,0.8532 2.37466,1.24283c0.57831,0.24918 1.42221,0.54828 2.41916,0.95584c0.87744,0.3587 1.67896,0.68359 2.496,0.76534c0.871,0.08714 1.87299,0.01299 2.66852,0.05682c0.75311,0.0415 1.85254,0.42577 2.4035,0.7805c0.94177,0.60634 1.50598,0.90775 2.51733,1.11467c0.79105,0.16185 1.80786,0.2852 2.62082,0.60483c0.67126,0.26392 1.66232,0.68529 2.5,0.97917c0.58221,0.20425 1.77988,0.59743 2.37466,0.8c0.86978,0.29623 1.93851,0.69838 2.65634,0.99998c0.71017,0.2984 1.77893,0.7084 2.41882,0.90002c0.69867,0.2092 1.4502,0.40195 2.23199,0.59998c1.19626,0.30301 1.98969,0.49487 2.75568,0.70001c0.72864,0.19513 2.00397,0.58694 2.78033,0.89999c0.71445,0.28809 1.67633,0.71884 2.49734,0.98935c0.57043,0.18796 1.76111,0.4707 2.65948,0.5535c0.58234,0.05368 1.41959,0.02881 2.64734,0.06165c0.64706,0.0173 1.6553,0.22223 2.45715,0.49551c0.99774,0.34006 1.81372,0.45276 2.45715,0.55267c1.23682,0.19208 1.79797,0.37051 2.70453,0.70898c1.01508,0.379 1.72015,0.72284 2.453,1.05301c0.72321,0.32581 1.39398,0.68927 2.61469,1.01599c0.71869,0.19235 1.77618,0.3194 2.57062,0.59467c0.60455,0.20947 1.6109,0.44489 2.43604,0.63602c0.94458,0.21878 1.71356,0.64978 2.53864,1.08798c0.53937,0.28647 1.53296,0.70883 2.50653,0.84167c0.88367,0.12057 1.59332,0.46356 2.4068,0.81033c0.98529,0.42004 1.51501,0.62704 2.54266,0.91333c0.95013,0.26468 1.65338,0.24365 2.60535,0.29599c0.76782,0.04221 1.73987,0.37912 2.59332,0.70535c0.84406,0.32266 1.73737,0.45065 2.57068,0.784c0.83337,0.33334 1.64667,0.46332 2.48401,0.78534c0.71259,0.27402 1.57086,1.00507 2.21149,1.35748c0.87817,0.48309 1.78851,0.35718 2.65186,0.35718c0.90002,0 1.82227,-0.05264 2.67352,0.02084c0.98627,0.08514 1.78461,0.40326 2.37915,0.68365c1.0083,0.47552 1.78979,0.85565 2.57849,1.39532c0.63318,0.43326 1.43414,0.74896 2.32147,0.90466c0.92865,0.16296 1.42554,0.88559 2.11072,1.38486c0.83545,0.60876 1.59491,0.4982 2.70398,0.612c0.89594,0.09192 1.44574,0.65228 2.1853,1.29416c0.66669,0.57864 1.45862,0.65866 2.34821,0.70898c0.7854,0.04443 1.4917,0.72061 2.41431,0.94736c0.68567,0.16852 1.8186,0.46463 2.28687,0.90948c0.65375,0.62106 1.40967,1.27191 2.15063,1.61783c0.72369,0.33789 1.67804,0.8381 2.38269,1.32083c0.75745,0.51889 1.47723,0.88113 2.23468,1.40002c0.70465,0.48273 1.64911,1.00735 2.4035,1.29999c0.52899,0.2052 1.55328,0.60968 2.4375,0.97916c0.87097,0.36395 1.66852,0.47858 2.43097,0.94617c0.8241,0.5054 1.64258,0.70114 2.21069,1.18533c0.755,0.64349 1.19568,1.17169 2.17065,1.87335c0.49225,0.35428 1.3241,0.89032 2.22931,1.34933c0.58997,0.29916 1.48163,0.63947 2.3147,0.96533c1.00299,0.39236 1.63989,0.76154 2.6853,1.03467c0.77588,0.20273 1.58813,0.11087 2.37469,0.61331c0.90204,0.5762 1.24365,1.24915 1.836,1.69202c0.93427,0.69849 1.85754,0.6376 2.6795,1.21399c0.67102,0.47055 1.46912,0.56308 2.08447,1.07266c0.62238,0.51541 1.224,1.14267 1.66815,1.86935l0.35736,0.92682" id="svg_3" stroke-width="2" stroke="#000" fill="none"/>
  <path t="10904,11007,11015,11015,11023,11023,11039,11039,11056,11064,11074,11088,11107,11127,11191,11215,11223,11224,11240,11319,11336,11344,11647,11655,11672,11759,11775,11831,11911,11935,11951,11967" d="m592.51135,307.09091c1.54169,1 2.49792,0.89301 3.34735,1.05716c0.93011,0.17975 1.52374,0.71155 2.47797,0.91751c0.68353,0.14752 1.57813,0.71124 2.47467,0.96817c0.86694,0.24844 1.80389,-0.02655 2.67468,0.05716c0.87073,0.08371 1.30731,0.95728 2.12537,1c0.89874,0.04694 1.69995,0 2.59998,0c0.90002,0 1.79999,0 2.70001,0c0.89996,0 2.08032,0.32587 2.54285,-0.35718c0.52722,-0.77866 0.72766,-1.44968 1.03632,-2.16367c0.34894,-0.80722 0.02081,-1.77914 0.02081,-2.67917l0,-0.89999" id="svg_4" stroke-width="2" stroke="#000" fill="none"/>
  <path t="15415,15518,15527,15527,15535,15535,15542,15542,15551,15551,15551,15559,15559,15567,15567,15574,15575,15583,15591,15591,15599,15599,15599,15606,15623,15631,15639,15647,15655,15663,15671,15672,15680,15680,15687,15687,15696,15696,15703,15703,15711,15711,15720,15720,15720,15727,15727,15727,15728,15736,15743,15744,15752,15752,15752,15759,15759,15759,15767,15768,15768,15775,15775,15784,15791,15791,15799,15799,15807,15807,15815,15815,15823,15823,15831,15831,15839,15847,15847,15855,15855,15863,15864,15880,15880,15897,15904,15904,15920,15920,15927,15943,15943,15959,15967,15975,15976,15983,15991,15991,16000,16000,16000,16015,16015,16023,16031,16039,16040,16047,16047,16055,16055,16063,16063,16071,16080,16080,16087,16097,16097,16103,16103,16113,16119,16127,16143,16247,16255,16271,16287,16287,16296,16302,16303,16312,16312,16319,16319,16319,16319,16327,16327,16327,16327,16335,16336,16336,16336,16344,16344,16344,16344,16344,16344,16352,16352,16352,16352,16352,16359,16359,16360,16360,16360,16360,16367,16368,16368,16368,16376,16376,16376,16376,16383,16384,16384,16391,16392,16392,16399,16399,16400,16415,16416,16423,16424,16431,16431,16439,16447,16447,16456,16463,16464,16464,16471,16472,16472,16479,16480,16488,16488,16495,16496,16496,16496,16504,16504,16504,16504,16513,16513,16520,16520,16529,16529,16536,16536,16536,16546,16546,16559,16559,16568,16575,16576,16583,16584,16591,16599,16599,16607,16607,16607,16615,16616,16623,16624,16631,16632,16639,16639,16647,16648,16648,16655,16655,16655,16663,16663,16671,16671,16679,16680,16680,16687,16687,16687,16696,16696,16703,16703,16703,16720,16720,16735,16736,16744,16744,16767,16847,16856,16856,16863,16863,16871,16872,16872,16879,16879,16880,16880,16880,16880,16880,16887,16887,16887,16887,16888,16888,16888,16896,16896,16896,16896,16896,16897,16897,16897,16903,16903,16903,16904,16904,16904,16904,16904,16904,16912,16912,16912,16913,16913,16913,16913,16919,16919,16919,16920,16920,16920,16928,16929,16929,16929,16936,16936,16936,16936,16945,16946,16952,16967,16976,16983,16992,16999,17007,17007,17007,17015,17015,17016,17023,17023,17024,17031,17032,17032,17032,17032,17040,17040,17040,17047,17048,17048,17048,17183,17184,17199,17199,17207,17208,17215,17216,17216,17224,17224,17224,17224,17224,17231,17231,17232,17232,17232,17240,17240,17240,17240,17241,17241,17241,17247,17248,17248,17248,17248,17249,17249,17249,17249,17262,17262,17263,17263,17263,17264,17264,17264,17267,17267,17268,17268,17268,17268,17269,17269,17278,17278,17278,17279,17279,17279,17281,17282,17282,17282,17283,17295,17295,17296,17298,17298,17298" d="m327.51135,205.09091c2.62534,0 3.48401,0 4.34735,0c0.90451,0 1.62201,0 2.66251,0c0.77548,0 1.82349,0 2.75415,0c0.6315,0 1.63602,-0.00006 2.436,0c0.99985,0.00009 2.01181,-0.11024 2.7785,0.2215c0.79343,0.34331 1.36819,1.30144 2.18817,1.61183c0.8139,0.30809 1.84207,0.30804 2.62265,0.59201c0.73434,0.26714 1.57416,0.55666 2.51068,0.57466c0.89984,0.01729 1.79999,0 2.69998,0c0.87869,0 1.64667,0 2.6572,0c0.74731,0 1.74722,-0.05453 2.54282,0.036c1.01035,0.11496 1.75299,0.54106 2.63333,0.79733c0.77502,0.22562 1.82385,0.16667 2.57117,0.16667c0.99683,0 1.83151,0 2.76218,0c0.7905,0 1.64398,0 2.83331,0c0.59735,0 1.45834,-0.00371 2.22934,0c1.10938,0.00534 2.08527,0.23927 2.7915,0.5c0.97034,0.35822 1.78928,0.47824 2.43634,0.4955c0.96399,0.02571 1.77884,0.0045 2.64734,0.0045c1.19516,0 2.07416,0 2.6235,0c1.129,0 1.96298,-0.00073 2.90799,0c0.84933,0.00067 1.78989,-0.02145 2.76266,0.28534c0.59744,0.18842 1.52997,0.89365 2.22665,1.27866c0.8129,0.44923 1.58533,0.43066 2.57452,0.436c0.77933,0.0042 1.77866,0 2.59882,0c0.9585,0 1.86478,-0.05283 2.60583,0.05716c1.00867,0.1497 1.73947,0.57953 2.71152,0.85884c0.75555,0.21712 1.67789,0.55814 2.31467,0.8c0.97934,0.37198 1.75302,0.5936 2.45465,1.08533c0.74942,0.52522 1.47128,0.88495 2.35751,1.49417c0.76532,0.52611 1.48343,0.52078 2.35715,0.74049c0.87216,0.21931 1.7352,0.78229 2.37918,0.964c0.94421,0.26643 1.60449,0.86774 2.24216,1.06133c1.00476,0.30502 1.69983,0.98306 2.20801,1.37067c0.84888,0.64748 1.88928,0.37268 2.50934,1.00401c0.6727,0.68491 0.99942,1.64154 1.58215,2.04317c0.73657,0.50764 1.82016,0.40269 2.37384,1.23067c0.37561,0.56166 0.77457,1.60254 1.45715,1.9285c0.85101,0.40639 1.77222,0.55473 2.34818,1.06616c0.73227,0.65021 1.51239,1.17165 2.18533,1.3795c0.95905,0.29622 1.625,0.7256 2.47867,1.30533c0.73105,0.49646 1.30634,1.15733 1.99316,1.5535c0.81454,0.46985 1.73688,0.41803 1.63834,1.35718c-0.08649,0.82439 -0.69885,1.40115 -1.39551,2.09999c-0.69901,0.70117 -1.2019,1.25154 -2.08667,1.8c-0.53622,0.3324 -1.67706,0.80775 -2.19998,1c-0.85046,0.31267 -1.47122,0.51306 -2.83469,0.90001c-0.72937,0.207 -1.47949,0.39699 -2.22598,0.59999c-1.08719,0.29564 -1.76883,0.50401 -2.7735,0.8c-0.6882,0.20274 -1.81125,0.50534 -2.64984,0.7c-0.44302,0.10283 -1.37061,0.30194 -2.33832,0.5c-0.49347,0.101 -1.99103,0.40001 -2.49103,0.5c-1,0.2 -2,0.40001 -2.5,0.5c-1.5,0.29999 -1.99921,0.40297 -2.99548,0.5955c-0.49353,0.09538 -1.46585,0.28639 -2.41916,0.41916c-1.36035,0.18945 -1.7981,0.21136 -2.63867,0.24934c-0.79959,0.03613 -2.28009,0.02742 -2.95999,0.03867c-0.6402,0.01059 -1.56836,-0.00279 -2.56534,0.44c-0.73734,0.32747 -1.32849,0.96288 -2.34268,1.3145c-0.77875,0.26999 -1.63858,0.22801 -2.65717,0.46416c-0.69672,0.16153 -1.51022,0.54305 -2.52148,0.726c-0.79404,0.14366 -1.79785,0.33887 -2.564,0.62733c-0.81363,0.30634 -1.60052,0.57289 -2.47202,1c-0.8204,0.40207 -1.53864,0.42 -2.61133,0.42534c-0.91934,0.00458 -1.59933,0 -2.43933,0c-0.99734,0 -1.81335,0 -2.62933,0c-0.99869,0 -1.87335,0 -2.88419,0c-0.82065,0 -1.96649,0 -2.76147,0c-0.58002,0 -1.52502,0 -2.55951,0c-0.72699,0 -1.45801,0 -2.50949,0c-1.19736,0 -1.90686,0 -2.948,0c-0.77402,0 -1.68683,0.03688 -2.483,-0.05717c-0.96689,-0.11421 -1.75906,-0.38597 -2.58569,-0.59016c-1.02573,-0.25337 -1.70673,-0.2989 -2.78598,-0.35266c-0.86301,-0.04298 -1.54449,-0.46022 -2.26685,-1.09984c-0.63812,-0.56505 -1.56454,-0.78642 -2.24716,-0.95284c-0.91895,-0.22403 -1.60947,-0.99864 -2.19434,-1.44733c-0.74292,-0.56992 -1.71689,-0.8811 -2.453,-1.2c-0.87225,-0.37787 -1.54938,-0.93823 -2.20667,-1.49867c-0.65198,-0.55589 -1.64148,-0.73598 -2.39999,-0.88533c-0.80814,-0.15913 -1.60245,-0.519 -2.59885,-1.01617c-0.61285,-0.3058 -1.2674,-0.63956 -2.22098,-1.22116c-0.80255,-0.48949 -1.3313,-0.8343 -2.24551,-1.51199c-0.68259,-0.50601 -1.50961,-0.96057 -2.35416,-1.1875c-0.99265,-0.26672 -1.5817,-0.68582 -2.17917,-1.16451c-0.80347,-0.64372 -1.57782,-1.2204 -2.20001,-1.453c-0.97244,-0.36356 -1.85519,-0.30162 -2.79965,-0.80434c-0.62527,-0.33281 -1.21204,-1.00748 -1.96701,-1.724c-0.58176,-0.55212 -1.32611,-1.01852 -2.008,-1.43333c-0.95273,-0.57957 -1.56931,-1.05515 -2.12082,-1.7c-0.6431,-0.75194 -0.26282,-1.35289 0.51682,-1.11467c0.97705,0.29854 1.77853,0.40063 2.77866,0.41467c0.6225,0.00873 1.38177,0.01749 2.83334,0.16667c0.47467,0.04878 1.54816,0.18932 2.13602,0.26933c0.61417,0.0836 1.24847,0.17134 2.552,0.36533c1.31247,0.19531 1.95712,0.29962 2.59467,0.39734c1.25833,0.19287 1.88358,0.28357 2.50931,0.36533c0.62695,0.08191 2.54105,0.27408 3.19635,0.3145c0.66473,0.041 1.33987,0.06873 2.02499,0.08551c1.39981,0.0343 2.11499,0.03276 2.84,0.03467c1.48001,0.00391 2.2345,0.0005 2.996,0.00266c0.7655,0.00217 1.53204,0.00679 2.29651,0.0195c0.75955,0.01263 1.51129,0.02946 2.2515,0.0645c1.43671,0.06801 2.79785,0.19551 3.4505,0.27184c0.63669,0.07446 1.2576,0.15553 2.45267,0.34734c0.5788,0.0929 2.24445,0.39571 2.77951,0.49417c1.03986,0.19136 1.54376,0.28806 2.52499,0.44417c0.47443,0.07549 1.83926,0.24899 2.7045,0.29999c0.83566,0.04924 1.65265,0.05492 2.85715,0.05717c0.79602,0.00148 1.56802,0 2.29202,0c1.20798,0 2.14548,0 3.008,0c0.89999,0 1.93216,-0.24425 2.616,0.284c0.6275,0.48471 1.38849,0.716 2.25067,0.716c0.875,0 1.52005,-0.01099 2.51865,0.00133c0.83566,0.0103 1.72226,0.04771 2.61484,0.22017c0.91846,0.17746 1.53342,0.39766 2.86652,0.7785c0.71603,0.20456 1.45892,0.39899 2.20801,0.60001c0.74161,0.19901 1.80191,0.50641 2.78931,0.78932c0.62415,0.17883 1.83377,0.46257 2.43469,0.52534c0.87808,0.09172 1.71597,0.08466 2.71198,0.08533c0.91336,0.00061 0.48798,0.00768 -0.19598,0c-0.95087,-0.01067 -1.74246,-0.12332 -2.72818,-0.70534c-0.46246,-0.27306 -1.22125,-0.80197 -2.25082,-1.05183c-0.79068,-0.19188 -1.67731,-0.22237 -2.59201,-0.291c-0.46231,-0.03468 -1.82474,-0.16045 -2.69998,-0.30899c-0.88766,-0.15065 -1.34018,-0.25771 -2.29834,-0.44417c-1.04446,-0.20325 -2.20218,-0.40053 -2.82132,-0.49417c-0.64218,-0.09714 -1.30594,-0.19604 -2.69467,-0.34734c-0.71802,-0.07823 -2.19577,-0.19467 -2.95068,-0.23582c-0.76245,-0.04156 -1.53131,-0.0697 -2.30399,-0.09601c-0.77466,-0.02637 -1.54941,-0.04858 -2.32202,-0.078c-0.76874,-0.02927 -2.28632,-0.10963 -3.03116,-0.16866c-0.73654,-0.05836 -1.46448,-0.12991 -2.18549,-0.20401c-1.42566,-0.14651 -2.13104,-0.22685 -2.83469,-0.29066c-1.40048,-0.127 -2.10098,-0.16644 -2.79999,-0.19867c-0.69666,-0.03212 -2.08047,-0.06647 -2.76532,-0.07466c-0.6788,-0.00812 -1.35068,-0.00999 -2.66934,-0.01067c-1.27869,-0.00064 -1.90051,0 -2.50934,0c-1.17468,0 -1.73849,0 -3.32401,0c-0.48999,0 -1.41,0 -2.25,0c-0.76001,0 -2.0405,0 -2.82199,0c-0.7095,0 -1.68268,0 -2.48666,0l-0.82202,0" id="svg_5" stroke-width="20" stroke="#fff" fill="none"/>
  <path t="20727,20862,20870,20878,20878,20886,20886,20902,20902,20926,21006,21006,21014,21023,21030,21030,21039,21046,21046,21056,21062,21063,21070,21318,21327,21334,21342,21350,21350,21358,21358,21870,21894,21902,21918,22078,22078,22358" d="m312.51135,221.09091c1.80002,0 2.65494,-0.02116 3.48535,0.28534c0.74579,0.27527 1.70685,0.83063 2.30399,1.10399c1.03156,0.47223 1.86786,0.52318 2.61069,1.04668c0.78854,0.55573 1.25241,1.35677 2.09998,1.54317c0.87955,0.19344 1.71161,0.29297 2.30002,0.82216c0.73569,0.66167 1.5163,1.12759 2.37466,1.188c0.93774,0.06599 1.86356,-0.1629 2.62534,0.09599c0.88791,0.30176 1.66666,0.75403 2.39865,1.19867c0.81711,0.49635 1.30728,1.28833 2.12268,1.81584c0.65277,0.42232 1.50085,0.81206 2.37418,0.89566c0.90036,0.0862 1.86713,-0.04218 2.32983,0.61517c0.51215,0.72757 1.07449,1.48933 1.53867,1.98933l0.43597,0.89999" id="svg_6" stroke-width="2" stroke="#000" fill="none"/>
  <path t="23182,23294,23303,23326,23334,23502,23510,23520,23520,23534,23542,23542,23550,23990,23999,24006,24014,24014,24366,24374,24382,24390,24390,24406,24430,24446" d="m328.51135,200.09091c1.80002,0 2.70001,0 3.60001,0c0.87918,0 1.75717,0 2.70001,0c0.80017,0 1.58533,0 2.52533,0c1.008,0 1.87018,0 2.77466,0c0.89999,0 1.80585,-0.095 2.60001,0.00133c0.91974,0.11156 1.74564,0.47029 2.44284,1.05135c0.59146,0.49294 0.89893,1.42763 1.55582,2.14732c0.53351,0.58452 0.79068,1.40001 0.80133,2.3l0.02084,0.97917" id="svg_7" stroke-width="2" stroke="#000" fill="none"/>
  <path t="25407,25447,25447,25455,25463,25471,25479,25479,25487,25495,25511,25519,25527,25535,25552,25575,25575,25583,25583,25591,25607,25615,25623,25639,25647,25663,25671,25703,25719,25728,25751,25751,25767,25776,25800,25808,25824,25831,25856,25959,25976,25986,26000,26040,26063,26096,26112,26120,26128,26136,26152,26176,26200,26208,26224,26231,26240,26264,26296,26304,26320,26352,26376,26400,26416,26424,26447,26464,26472,26591,26600,26608,26615,26615,26632,26640,26647,26736,26752,26760,26768,26775,26776,26785,26792,26816,26816,26824,26951,26975,26975,26983,27000,27032,27063,27072,27088,27096,27111,27111,27120,27136,27144,27152,27160,27175,27184,27191,27200,27231,27255,27288,27296,27304,27311,27328,27343,27359,27359,27368,27416,27416,27440,27472,27480,27488,27520,27567,27568,27599,27624,27640" d="m342.51135,234.09091c0.42535,1.82533 0.83524,2.49112 0.97919,3.47917c0.13278,0.91144 -0.18127,1.91396 0.30615,2.7195c0.37778,0.62434 1.40256,0.89977 1.79868,1.60266c0.46021,0.8166 0.77802,1.71167 1.43683,2.19867c0.68597,0.50706 1.21503,1.15897 1.64584,2c0.3403,0.66434 1.13712,1.29625 1.63333,1.8c0.68445,0.69485 0.97687,1.52652 1.20132,2.39867c0.20612,0.8009 1.07623,1.2274 1.57333,1.82666c0.5101,0.61494 0.2601,1.59387 0.44617,2.47467c0.17902,0.8474 0.91827,1.59387 0.97916,2.5c0.05362,0.79819 0.1265,1.55649 0.80136,2.16934c0.66623,0.60504 1.11044,1.48444 1.19864,2.26666c0.10681,0.94739 0.71667,1.44116 0.98935,2.17465c0.30283,0.81461 0.81055,1.38791 1.00934,2.19067c0.1922,0.77609 0.41956,1.61472 1.19998,2.11465c0.72845,0.46667 0.71658,1.44373 1.22668,2.05869c0.49707,0.59924 1.27698,0.724 2.07465,1.02533c0.62061,0.23444 0.31763,1.64209 1.02084,1.97916c0.78369,0.37564 1.35309,0.74643 2.08984,1.01016c0.83734,0.29974 1.84695,-0.31155 2.77866,0.02133c0.73691,0.26331 1.06003,1.12772 1.69467,1.70535c0.64667,0.58856 1.21912,1.08243 2.08267,1.284c0.78036,0.18216 1.26877,0.98199 2.13333,1c0.89981,0.01874 1.79999,0 2.69998,0c0.80002,0 1.70016,0.01682 2.60001,0c0.96454,-0.01801 1.60007,-0.47522 2.23334,-1.16666c0.54764,-0.59793 1.26666,-0.83334 2.16666,-0.83334c0.80002,0 1.72729,-0.01184 2.52084,-0.52084c0.83154,-0.53336 1.57187,-0.85208 2.14584,-1.47916c0.65616,-0.71689 1.366,-1.12561 1.93332,-1.61066c0.74188,-0.63431 1.46396,-1.03543 2.116,-1.47467c0.78009,-0.52548 1.50961,-0.65747 2.16269,-1.13602c0.70135,-0.51392 1.26932,-1.14606 1.92133,-1.49466c0.84738,-0.45306 1.62338,-0.96664 2.5,-1.22684c0.76874,-0.22818 1.48386,-0.40515 1.92133,-1.15698c0.48047,-0.82568 1.18716,-1.10092 1.86267,-1.61618c0.61304,-0.46762 1.345,-0.65463 2.13751,-1.16251c0.74655,-0.47842 1.57095,-0.35925 1.77866,-1.22131c0.20212,-0.83887 1.1665,-0.90018 1.99982,-0.90018c0.80002,0 1.65262,-0.11871 2.16669,-1c0.3656,-0.62674 0.71829,-1.44318 1.186,-2.29999c0.40686,-0.74533 1.004,-1.31235 1.56332,-1.98535c0.55612,-0.66914 0.78851,-1.41466 1.47333,-2.11465l0.48935,-0.69984l0.40533,-0.81616" id="svg_8" stroke-width="2" stroke="#000" fill="none"/>
  <path t="29152,29199,29208,29231,29231,29247,29255,29271,29295,29303,29311,29319,29335,29335,29351,29359,29407,29415,29419,29431,29439,29447,29455,29455,29479,29488,29503,29559" d="m442.51135,240.09091c0,-1 -0.1543,-1.91626 -1,-2c-0.79608,-0.07883 -1.55438,-0.41769 -2.2215,-0.87849c-0.72968,-0.50403 -1.9169,0.20099 -2.61182,-0.28818c-0.71503,-0.50333 -0.97382,-1.40703 -1.73599,-1.748c-0.71808,-0.32124 -1.8309,0.1674 -2.72617,-0.08983c-0.76791,-0.22064 -1.25708,-0.76189 -2.09384,-0.9955c-0.68298,-0.19067 -1.14566,-0.85034 -2.01068,-1.01067c-0.83167,-0.15414 -1.39999,-0.79066 -2.10001,-1.46851l-0.79999,-0.46367l-0.89865,-0.05716l-0.88535,0" id="svg_9" stroke-width="2" stroke="#000" fill="none"/>
  <path t="30903,31046,31056,31056,31071,31110,31127,31135,31175,31215,31231,31254,31270,31279,31320,31336,31384,31392,31408,31423,31423,31431,31439,31463,31495,31504,31512,31520,31567,31567,31583,31599,31607,31615,31631,31656,31663,31664,31672,31711,31727,31744,31752,31760,31783,31791,31807,31815,31823,31831,31863,31871,31887" d="m349.51135,204.09091c1.83334,-0.16667 2.05026,-1.11551 2.61069,-1.564c0.75159,-0.60147 1.39963,-0.86166 1.88931,-1.436c0.55225,-0.64771 1.39886,-0.60681 2.14285,-1c0.6156,-0.32533 1.18546,-0.58733 2,-1.05717c0.68683,-0.39616 1.58957,-0.50856 2.19049,-1.1095c0.60092,-0.60092 0.52335,-1.44565 1.08267,-2.11867c0.55612,-0.66916 0.85901,-1.35205 1.47333,-2.11465c0.5997,-0.74446 0.79929,-1.32164 1.48935,-1.82133c0.7012,-0.50777 1.52155,-0.51262 2.06415,-1.13133c0.60156,-0.68596 0.53979,-1.58553 1.10983,-2.29018c0.59128,-0.73091 1.31012,-1.17226 1.89468,-1.70982c0.58224,-0.53542 1.54807,-0.88423 1.93115,-1.74734c0.28812,-0.64917 0.45779,-1.22829 1.08551,-1.91066c0.57361,-0.62355 0.82343,-1.29585 1.03732,-2.188c0.17947,-0.74857 1.22858,-0.6803 2.09851,-0.8015c0.80188,-0.11172 1.50784,-0.73901 1.86417,-1.43584c0.43454,-0.84981 0.55682,-1.54317 1.42532,-1.57466l0.61066,-0.48933" id="svg_10" stroke-width="2" stroke="#000" fill="none"/>
  <path t="32896,32950,32960,32967,32977,32983,32983,32991,32991,32999,33007,33007,33015,33022,33022,33031,33039,33039,33047,33055,33080,33095,33104,33119,33128,33128,33136,33144,33160,33168,33177,33177,33184,33199,33208,33231,33248,33256,33271,33279,33279,33288,33311,33320,33335,33351,33351,33383,33392,33415,33439,33447,33463,33487,33495,33511,33519,33543" d="m426.51135,230.09091c-0.05716,-1.7 -0.68622,-2.42236 -0.94281,-3.3c-0.25345,-0.86685 0.00449,-1.8705 -0.078,-2.7c-0.08371,-0.84184 -0.58987,-1.57254 -0.95383,-2.39999c-0.34555,-0.78557 -0.93875,-1.30908 -1.50452,-2.12083c-0.51151,-0.7339 -0.5155,-1.65379 -0.52084,-2.59384c-0.00504,-0.88531 0,-1.68533 0,-2.58533c0,-0.90001 0,-1.8 0,-2.7c0,-0.98933 0.13773,-1.93634 -0.22131,-2.70001c-0.36469,-0.7757 -0.76801,-1.5 -0.77869,-2.39999c-0.01065,-0.89999 -0.50049,-1.71881 -0.83331,-2.5c-0.32019,-0.75154 -0.16669,-1.7 -0.16669,-2.60001c0,-0.87917 0,-1.836 0,-2.7c0,-0.89999 0.04779,-1.80127 0,-2.7c-0.04272,-0.80341 -0.74692,-1.53719 -0.96399,-2.39999c-0.21976,-0.8735 0.1326,-1.85507 -0.20267,-2.60001c-0.32944,-0.73195 -0.92606,-1.43335 -1.40799,-2.02533c-0.50443,-0.61963 -0.02713,-1.67725 -0.46133,-2.53867c-0.35226,-0.69888 -0.96268,-1.23734 -1.04935,-2.15067l-0.716,-0.36934l-0.76266,-0.52667l-0.39999,-0.78932" id="svg_11" stroke-width="2" stroke="#000" fill="none"/>
  <path t="35287,35334,35350,35366,35377,35377,35393,35398,35398,35415,35424,35431,35446,35446,35462,35462,35478,35486,35502,35518,35542,35558,35582,35591,35606,35623,35640,35662,35670,35686,35702,35734,35758,35774,35790,35806,35870,35894,35926,35958,35958,36014,36038,36070,36070,36094,36103,36118,36134,36190,36198,36230,36246,36246,36262,36278,36302,36318,36326,36342,36358,36374,36382,36406,36414,36430,36446,36446,36455,36478,36494,36510,36526,36534,36534,36558,36574,36582,36598,36622,36646,36662,36662,36678,36702,36710,36710,36734,36958,36966" d="m354.51135,228.09091c0,1.8 0.31451,2.38716 0.83334,3.16667c0.47086,0.70746 0.18015,1.68353 0.6875,2.33333c0.59967,0.76802 1.30228,1.2731 1.47467,2.2c0.17276,0.92892 0.78467,1.36652 1.00449,2.3c0.1626,0.69038 0.79324,1.19173 1.43201,1.8c0.6958,0.6626 1.41855,0.75067 2.21085,1.25716c0.62109,0.39705 0.35715,1.54285 0.35715,2.44284c0,0.89999 -0.0173,1.81136 0.5,2.5c0.47,0.62569 0.35791,1.513 0.51068,2.39999c0.14349,0.83315 0.47449,1.84929 1.15601,2.43333c0.63315,0.5426 0.80609,0.96841 0.83331,1.86667c0.02859,0.94414 0.56186,1.50641 1.22134,2.17867c0.60626,0.61803 0.58978,1.39066 1.00018,2.22134c0.34116,0.69058 1.27808,1.23465 1.65717,2c0.41943,0.84677 0.66708,1.6496 1.62131,1.87915c0.8652,0.20813 1.48755,0.54153 1.5,1.41019c0.01379,0.96323 0.44812,1.46542 1.30002,1.61514c0.92816,0.16315 1.4686,0.84735 2.39999,0.99103c0.8895,0.13721 1.79999,0.00449 2.70001,0.00449c0.89999,0 1.79999,0 2.69983,0c0.90015,0 1.67877,-0.12454 2.50015,-0.57468c0.78024,-0.42758 1.77676,-0.24185 2.49985,-0.64682c0.73737,-0.41296 0.95383,-1.41962 1.70151,-1.86252c0.69958,-0.4144 1.5072,-0.78046 2.39865,-0.91733c0.91562,-0.14059 1.48178,-0.72797 1.82083,-1.5195c0.37903,-0.88486 1.37869,-1.01352 1.89383,-1.7645c0.51895,-0.75656 0.44696,-1.47595 1.18518,-1.93616c0.71716,-0.4471 1.14221,-1.21425 1.73349,-1.94518c0.56445,-0.6978 0.77734,-1.39732 1.64584,-1.83333l0.54617,-0.57466l0.69064,-0.50934" id="svg_12" stroke-width="2" stroke="#000" fill="none"/>
  <path t="37807,37894,37894,37903,37903,37918,37918,37926,37934,37950,37958,37958,37966,38054,38070,38070,38078,38078,38095,38111,38127,38246,38246,38254,38254,38262,38262,38270,38270,38278,38278,38287,38287,38295,38295,38303,38310,38422,38431,38438,38446,38454,38462,38470,38487,38503,38503,38510,38511,38520,38534,38542,38559,38566,38582,38598,38606,38614,38622,38622,38638,38646,38662,38670,38670,38678,38686,38718,38718,38734,38742,38751,38759,38774,38791,38791" d="m368.51135,215.09091c1,-1.16667 1.59662,-1.69707 2.48267,-1.91467c0.78815,-0.19356 1.66403,-0.42801 2.40402,-0.80133c0.71057,-0.35847 1.57501,-0.67302 2.28,-1.11732c0.71896,-0.45309 1.76367,0.22623 2.548,-0.252c0.80374,-0.49005 1.452,-0.91467 2.11066,-0.91467c1.008,0 1.91501,0.18546 2.78534,-0.036c0.85297,-0.21704 1.5863,-0.9213 2.4895,-0.964c0.78427,-0.03709 1.73584,0 2.50116,0c0.99866,0 1.79868,0 2.79733,0c0.76532,0 1.71735,0 2.48532,0c0.95203,0 1.71735,0 2.71152,0c0.91916,0 1.88367,-0.00232 2.8045,0c0.89548,0.00226 1.58337,0.41748 2.09998,1c0.53452,0.60269 1.11636,1.31079 1.41467,2.19867c0.27609,0.82173 -0.06113,1.70135 0.25201,2.63466c0.24014,0.71568 0.89755,1.51096 1.33331,2.14584c0.55594,0.80997 1.43912,1.23605 1.5,2.12083c0.0618,0.89787 0.25964,1.49771 1.02536,1.93599c0.68994,0.39493 0.85068,1.53183 1.33182,2.26401c0.52191,0.79424 1.18503,1.11003 2.03217,1.67467c0.62015,0.41335 0.96378,1.32909 1.61066,2.02533c0.56052,0.60329 0.89752,1.40515 1,2.2955c0.10144,0.88115 0.76511,1.35416 1.38934,2.10449c0.54617,0.65646 0.89468,1.51601 1.5535,1.95717l0.0585,0.84283l0.22018,0.90001l0.483,0.59999" id="svg_13" stroke-width="2" stroke="#000" fill="none"/>
  <path t="39358,39462,39470,39470,39478,39494,39503,39503,39520,39520,39528,39528,39536,39543,39560,39560,39575,39575,39583,39599,39607,39615,39615,39623,39631,39647,39655,39663,39678,39679,39687" d="m397.51135,210.09091c1.83334,-0.16667 2,-1 2,-1.8c0,-0.89999 -0.03403,-1.7375 0.28403,-2.68533c0.2486,-0.7408 0.63635,-1.71049 0.69516,-2.51466c0.07294,-0.99756 -0.27701,-1.89394 0.1875,-2.66667c0.46503,-0.77361 0.83331,-1.5 0.83331,-2.15866c0,-1.008 -0.18475,-1.89677 0.03601,-2.77467c0.21698,-0.86284 0.92126,-1.59659 0.96399,-2.39999c0.04248,-0.79887 -0.22971,-1.72841 0,-2.64284c0.2193,-0.87289 0.91467,-1.55716 1,-2.45717l0,-0.89999l0,-0.8l0,-0.89999" id="svg_14" stroke-width="2" stroke="#000" fill="none"/>
  <path t="47175,47263,47272,47272,47280,47287,47287,47296,47304,47304,47312,47312,47319,47328,47336,47344,47361,47368,47377,47384,47400,47416,47423,47432,47439,47448,47456,47471,47488,47488,47495,47511,47519,47528,47576,47879,47887,47895,47903,47912,47912,47912,47919,47919,47928,47928,47936,47944,47961,47968,47968,47977,47994,47994,48008,48024,48024,48032,48040,48047,48064,48087,48088,48104,48112,48120,48135,48159,48247,48255,48255,48263,48288,48302,48662,48679,48704,48719,48719,48729,48735,48751,48761,48919,48951,49567,49591,49607,49623,49655,49655,49663,49680,49727,49743,49767,49783,49800,49800,49808,49840,49847,49864,49871,49887,50023,50039,50055,50071,50079,50079,50103,50527,50527,50536,50551,50561,50561,50583,50623,50624,50743,50751,50767,50783,50799,50808,50816,50824,50824,50840,50857,50858,50871,50895,51046,51070,51079,51079" d="m378.51135,177.09091c1.60001,-0.61067 2.30002,-1.3 2.80002,-1.8c0.69998,-0.7 1.31842,-1.51253 2,-1.91466c0.76813,-0.45319 1.70453,-0.53026 2.37466,-0.89601c0.97324,-0.53117 1.4762,-1.18546 2.42532,-1.37866c0.86206,-0.17549 1.41943,-0.68185 2.25067,-0.98534c0.78745,-0.28751 1.6571,-0.63399 2.09216,-1.38249c0.42386,-0.72922 0.05978,-1.83405 0.76169,-2.29018c0.78729,-0.51163 1.10352,-1.08571 1.33148,-1.95267c0.22501,-0.8558 1.26941,-1.00807 1.88,-1.68533c0.58252,-0.64609 0.85156,-1.56566 1.72684,-1.71016c0.86627,-0.14302 1.72708,-0.03783 2.38251,-0.57916c0.60483,-0.49954 0.77838,-1.26117 1.03183,-2.12534c0.25732,-0.87743 0.83316,-1.62105 1.1095,-2.46667c0.22409,-0.68579 0.62445,-1.43987 1.13333,-2.42883c0.2941,-0.57156 0.87741,-1.53938 1.39999,-2.09999c0.67203,-0.72096 1.69891,-0.8399 2.21466,-1.59117c0.5004,-0.7289 -0.08612,-1.7778 0.36935,-2.54533c0.435,-0.73302 0.58228,-1.36229 0.72049,-2.41083c0.11554,-0.8766 0.66769,-1.57552 1.02084,-2.35718c0.36633,-0.81084 1.4032,-0.89871 1.97333,-1.48532c0.64816,-0.6669 0.42535,-1.6051 1.00131,-2.39384c0.46753,-0.64027 0.99774,-1.22531 1,-2.12083c0.00226,-0.89999 -0.09512,-1.97525 0.70535,-2.34732c0.6705,-0.31166 1.09286,-0.89005 1.35184,-1.75267c0.25769,-0.85837 0.85196,-1.91997 1.36816,-1.828c0.86429,0.15398 0.87549,1.57884 1.22198,2.228c0.45337,0.84938 0.0636,1.85197 0.36334,2.68933c0.26373,0.73674 0.98398,1.2213 0.98932,2.11067c0.0054,0.89998 0,1.8 0,2.69867c0,0.88533 0,1.80133 0,2.60133c0,0.89999 0,1.8 0,2.7c0,0.89999 0.10696,1.80653 -0.00131,2.7c-0.11148,0.91978 -0.80884,1.45221 -0.98801,2.364c-0.18451,0.93893 -0.01001,1.836 -0.01068,2.73601c-0.00067,0.89867 -0.6102,1.43788 -0.96399,2.136c-0.3909,0.77136 -0.03601,1.76399 -0.03601,2.664c0,0.89999 -0.00922,1.75449 -0.57465,2.46399c-0.6311,0.79192 -1.16467,1.31648 -1.39999,2.25067c-0.21332,0.84692 -1.20331,0.8542 -1.74002,1.356c-0.65036,0.60806 -0.28534,1.80783 -0.28534,2.62799c0,0.90134 0,1.80135 0,2.70134c0,0.88933 0,1.78534 0,2.7c0,0.90001 0,1.8 0,2.60001c0,0.836 0,1.85266 0,2.54733c0,1.01666 0,1.94817 0,2.87416l0,0.87851l0,0.89999l0,0.8" id="svg_16" stroke-width="2" stroke="#000" fill="none"/>
  <path t="51743,51855,51863,51863,51872,51872,51879,51879,51895,51967,51983,51991,51999,52007,52015,52015,52023,52351,52367,52391,52391,52399,52415,52423,52431,52447,52455,52464,52479,52488,52505,52535,52535,52551,52687,52711,52727" d="m413.51135,168.09091c1.75717,0 2.6572,0 3.40451,0c0.99551,0 1.7955,0 2.79535,0c0.77933,0 1.77847,0 2.7475,0c0.75717,0 1.75266,0 2.65265,0c0.81067,0 1.72134,0 2.57468,0c0.94,0 2.25317,0.4509 2.70367,-0.2215c0.49203,-0.73441 -0.72998,-1.18936 -1.44235,-1.80383c-0.60928,-0.52556 -0.37784,-1.74333 -1.1405,-1.97017c-0.85834,-0.25529 -1.7955,-0.00224 -2.6955,-0.0045c-0.89548,-0.00226 -1.46793,-0.72435 -2.17465,-0.98933c-0.93018,-0.34877 -1.72,-0.06784 -2.40399,-0.62134l-0.04218,-0.8685l-0.58984,-0.51016l-0.95334,-0.01067" id="svg_17" stroke-width="2" stroke="#000" fill="none"/>
  <path t="53478,53591,53600,53607,53607,53607,53615,53623,53632,53639,53647,53647,53657,53663,53679,53879,53903,53911,53911,53920,53928,53928,53936,53936,53944,53944,53953,53960,53974,54094,54118,54126,54135" d="m394.51135,163.09091c-0.16666,-1.83333 -0.84186,-2.23367 -1.16666,-3.16667c-0.23267,-0.66829 -0.67767,-1.3246 -0.82266,-2.42267c-0.10611,-0.80374 0.09628,-1.71719 -0.01199,-2.61066c-0.11148,-0.91978 -0.82935,-1.56963 -0.98801,-2.40001c-0.18115,-0.94797 -1.60309,-0.45714 -1.60083,-1.39999c0.00165,-0.69016 1.59052,-0.02385 2.39017,0c0.95844,0.02859 1.86102,0.34895 2.41068,0.61067c0.99634,0.4744 1.73645,0.95869 2.62265,1.22266c0.84079,0.25043 1.76666,0.16667 2.66666,0.16667c0.90002,0 1.7955,0 2.66669,0l0.93317,0.00017l0.77884,0.22116" id="svg_18" stroke-width="2" stroke="#000" fill="none"/>
  <path t="56224,56390,56423,56454,56463,56495,56527,56559,56566,56616,56647,56656,56719,56735,56751,56767,56783,56791,56800,56816,56903,56918,56927,56935,56943,56951,56967,57103,57135" d="m458.51135,263.09091c-1.71466,1.08398 -1.99933,1.80133 -2,2.70001c-0.00067,0.89999 0,1.79999 0,2.69998c0,0.89999 -0.26492,2.14737 0.35718,2.54285c0.79715,0.50674 1.84283,0.05716 2.74283,0.05716c0.89999,0 1.44757,0.44614 2.18533,0.91467c0.69135,0.43906 1.74002,0.08533 2.51602,0.08533c0.89865,0 1.79865,0 2.69864,0c0.90002,0 1.87732,0.17542 2.69867,-0.284c0.78833,-0.44092 1.41202,-0.716 2.36536,-0.75201l0.43149,-0.66849" id="svg_19" stroke-width="2" stroke="#000" fill="none"/>
  <path t="57735,57854,57871,57886,57895,57942,57951,57975,58023,58038,58055,58065,58065,58071,58087,58095,58103,58111,58119,58127,58238,58238,58247,58247,58255,58255,58255,58265,58271,58287,58287,58295" d="m521.51135,285.09091c0,1.79999 -0.01068,2.70007 0,3.60001c0.01044,0.87933 0.70001,1.03589 1.47919,1.42084c0.72791,0.35962 1.05438,0.84045 1.92084,0.98981c0.83313,0.14359 1.63446,0.73157 2.39996,1.07333c0.74353,0.33197 1.59943,0.89801 2.40002,0.91602c0.89978,0.02023 1.94019,-0.30377 2.67865,0.22134c0.70349,0.50031 1.3432,0.77866 2.09332,0.77866c1.03784,0 1.81335,0 2.86139,0c0.70496,0 1.50494,0 2.53064,0c0.94049,0 1.80267,0 2.61517,0l0.99951,-0.03601" id="svg_20" stroke-width="2" stroke="#000" fill="none"/>
  <path t="59441,59487,59496,59519,59528,59551,59576,59584,59600,59608,59616,59623,59648,59656,59664,59680,59681,59688,59712,59791,59800,59816,59823,59823,59832,59832,59832,59840,59912,59992" d="m152.51137,161.09091c0,1.8 -0.00223,2.61977 0.42534,3.39999c0.45013,0.82141 0.57726,1.79121 1.27916,2.24734c0.78731,0.51163 1.29637,1.14346 2.09683,1.35133c0.81645,0.21202 1.11443,0.95203 1.80934,1.56532c0.66711,0.58876 1.50113,0.87834 2.38933,1.26933c0.65764,0.28951 1.64284,0.16667 2.52083,0.16667c0.87917,0 1.77917,0 2.68051,0c0.96533,0 1.83716,0.06906 2.79866,-0.16667c0.80023,-0.1962 1.42934,-0.63466 2.01466,-1.39732l0.63268,-0.48868l0.51933,-0.78065" id="svg_21" stroke-width="2" stroke="#000" fill="none"/>
  <path t="60864,60951,60967,60983,60999,61008,61063,61063,61072,61080,61087,61111,61120,61129,61152,61184,61192,61200,61208,61231,61255,61287,61376,61384,61391,61391,61400,61400,61408,61416,61424,61424,61432" d="m214.51137,184.09091c0,1.8 0,2.7 0,3.60001c0,0.79999 -0.23755,1.89293 0.2215,2.62132c0.40637,0.64481 1.55676,0.78093 1.77718,1.58c0.24394,0.8844 0.54662,1.64842 1.28667,2.11334c0.77686,0.48804 1.39235,0.65211 2.15067,1.04933c0.76221,0.39926 1.37054,0.70721 2.08482,1.01517c0.88025,0.3795 1.83633,0.02083 2.77917,0.02083c0.89999,0 1.80064,0.03391 2.7,0c0.75879,-0.02861 1.72096,-0.24753 2.29016,-0.7045c0.82065,-0.65884 1.067,-1.591 1.70984,-2.12883l0.8,-0.16534l0.91466,-0.08665" id="svg_22" stroke-width="2" stroke="#000" fill="none"/>
  <path t="62129,62183,62191,62215,62223,62247,62256,62271,62287,62296,62312,62320,62320,62336,62359,62368,62368,62384,62400,62408,62448,62448,62456,62488,62568,62592,62600,62600,62608,62616,62632,62648" d="m273.51135,205.09091c0,1.8 0,2.7 0,3.60001c0,0.87917 0,1.75716 0,2.59999c0,0.90001 -0.27435,2.03854 0.22134,2.67867c0.49286,0.63644 0.88171,1.35999 1.58002,1.836c0.7493,0.51079 1.35297,1.2016 2.19864,1.28534c0.79611,0.07884 1.82346,-0.41272 2.64285,0.05716c0.68784,0.39442 1.35715,0.94284 2.15717,0.94284c0.84283,0 1.81067,0.0052 2.69998,0c0.91074,-0.00534 1.85669,-0.15327 2.47919,-0.52083c0.83508,-0.49307 1.24216,-1.35783 1.93683,-1.76317l0.50934,-0.69067" id="svg_23" stroke-width="2" stroke="#000" fill="none"/>
  <path t="63856,63943,63952,63967,63975,63992,63992,64023,64055,64071,64087,64087,64095,64103,64111,64118,64118,64223,64231,64239,64247,64254,64263,64279,64303,64318,64318,64350,64359,64391,64407,64415,64431,64455" d="m563.51135,299.09091c0,1.83334 0.00018,2.62936 0.42535,3.39999c0.45337,0.82172 0.86438,1.65692 1.22198,2.30002c0.47437,0.85312 0.71863,1.80936 1.55267,2.21597c0.75354,0.36737 1.57898,0.59283 2.27917,1.08401c0.73987,0.51901 1.42285,0.82846 2.35419,1.16666c0.69232,0.2514 1.21155,1.2377 2,1.66669c0.6983,0.37991 1.66663,0.16666 2.56665,0.16666c0.89996,0 1.79999,0 2.70001,0c0.89996,0 1.70038,0.02725 2.59998,0c0.94409,-0.02859 1.38397,-0.716 2.17853,-1.22134l0.12146,-0.83133l0.22137,-0.82599l0.72595,-0.474" id="svg_24" stroke-width="2" stroke="#000" fill="none"/>
 </g>
 <g display="none">
  <title>muse_image</title>
  <image xlink:href="http://farm1.static.flickr.com/180/423873432_95420959b6.jpg" id="muse" height="391" width="640" y="44.5" x="0"/>
 </g>
 <g display="none">
  <title>bbox</title>
  <rect stroke="#f00" fill="none" stroke-width="3" height="291.33333" width="608" y="89.22222" x="15.36" id="bbox"/>
 </g>
</svg>
