<svg width="640" height="480" xmlns="http://www.w3.org/2000/svg" xmlns:svg="http://www.w3.org/2000/svg" xmlns:xlink="http://www.w3.org/1999/xlink">
 <!-- Sketchy ANNOTATION
  ImageNet ID: n02691156_2149
  URL: http://farm2.static.flickr.com/1387/531326560_e50926d902.jpg
  Image Width: 500
  Image Height: 375
  BBox X: 63
  BBox Y: 190
  BBox Width: 388
  BBox Height: 109
  Exposure: 2000ms
  Synset Label: airplane
  Synset ID: n02691156
  Worker Tag: airplane
  Sanity Check: 
   Context
   Saved
   Shading
  Comment: 
   {}
  Worker ID: A2BD9H0C4ID8D5
  Assignment ID: 3AAPLD8UCCHH3UXBO6YUF1D8M92HTX
  HIT ID: 3CKVGCS3PG53QAG6BWHHAKNKY2PS0W
  Work Time: 57s
  Worker Score: 0.8821
 END ANNOTATION -->
 <g display="inline">
  <title>Layer 1</title>
  <path t="0,95,119,150,150,168,168,183,183,192,217,234,241,254,267,303,363,363,378,388,400,400,415,424,424,448,466,466,473,485,500,522,522,535,546,559,570,608,656,657,668,705,729,753,778,791,802,815,827,827,839,839,851,851,864,864,864,875,876,876,888,889,889,889,903,903,913,913,925,925,925,937,937,937,949,949,949,961,961,961,961,973,973,973,973,973,974,992,993,993,993,993,1169,1169,1170,1170,1188,1221,1244,1254,1254,1271,1271,1271,1271,1271,1282,1282,1283,1283,1283,1283,1283,1283,1283,1292,1292,1292,1292,1292,1292,1292,1293,1293,1305,1305,1305,1305,1305,1306,1306,1306,1306,1320,1320,1320,1320,1321,1321,1321,1321,1321,1328,1328,1329,1329,1329,1329,1330,1340,1340,1340,1341,1341,1341,1341,1341,1359,1360,1360,1360,1360,1360,1360,1360,1360,1370,1371,1371,1371,1371,1371,1371,1371,1371,1376,1376,1376,1377,1377,1377,1377,1377,1377,1388,1388,1388,1388,1388,1388,1389,1389,1389,1405,1405,1406,1406,1406,1407,1407,1414,1414,1414,1425,1425,1426,1426,1426,1439,1439,1439,1440,1440,1440,1440,1440,1440,1450,1450,1450,1451,1451,1451,1451,1452,1452,1461,1461,1462,1462,1462,1462,1462,1462,1462,1479,1480,1480,1480,1480,1480,1481,1481,1481,1490,1490,1490,1490,1491,1491,1491,1491,1491,1504,1504,1504,1504,1505,1505,1505,1505,1505,1511,1512,1512,1512,1512,1512,1512,1513,1513,1523,1523,1524,1524,1524,1524,1524,1525,1525,1538,1538,1539,1539,1539,1539,1539,1540,1540,1548,1548,1548,1548,1549,1549,1549,1549,1549,1559,1560,1560,1560,1561,1561,1561,1562,1562,1572,1572,1572,1572,1573,1573,1573,1573,1573,1584,1584,1585,1585,1585,1586,1586,1587,1587,1596,1597,1597,1597,1597,1597,1598,1598,1598,1608,1608,1609,1609,1610,1610,1610,1611,1611,1621,1621,1622,1622,1622,1622,1622,1623,1623,1638,1638,1638,1639,1639,1639,1639,1640,1640,1645,1646,1646,1646,1646,1647,1647,1647,1647,1657,1658,1658,1659,1659,1659,1660,1660,1661,1901,1902,1902,1902,1902,1903,1903,1903,1903,1913,1914,1914,1914,1914,1915,1915,1915,1915,1926,1926,1926,1938,1939,1939,1951,1951,1951,1952,1952,1962,1962,1963,1963,1963,1963,1964,1975,1975,1976,1976,1976,1976,1977,1977,1987,1987,1987,1988,1988,1988,2000,2000,2000,2011,2011,2011,2041,2041,2041,2048,2049,2049,2060,2075,2075,2075,2075,2085,2085,2085,2086,2097,2097,2098,2098,2098,2099,2099,2100,2109,2110,2110,2111,2111,2112,2112,2113,2121,2122,2122,2123,2123,2124,2124,2125,2134,2134,2135,2135,2135,2146,2146,2147,2158,2159,2159,2176,2177,2183,2183,2194,2195,2196,2210,2219,2220,2512,2512,2528,2528,2537,2537,2537,2538,2538,2549,2549,2550,2550,2550,2561,2561,2562,2562,2562,2572,2573,2573,2585,2586,2586,2586,2586,2597,2598,2598,2599,2599,2600,2600,2601,2609,2610,2610,2610,2611,2611,2611,2612,2622,2622,2622,2623,2623,2623,2624,2634,2635,2635,2635,2636,2636,2646,2646,2647,2647,2648,2648,2659,2659,2660,2660,2660,2661,2661,2678,2679,2679,2680,2680,2681,2682,2682,2684,2685,2685,2686,2687,2687,2688,2695,2695,2696,2696,2696,2697,2709,2710,2710,2711,2711,2720,2720,2721,2721,2732,2732,2733,2733,2743,2744,2744,2756,2757,2757,2758,2768,2768,2769,2769,2781,2781,2782,2783,2794,2794,2795,2795,2796,2796,2811,2811,2811,2812,2812,2813,2817,2817,2818,2819,2819,2830,2830,2830,2831,2844,2845,2855,2855,2964,2980,2981,2998,2998,2999,3002,3003,3003,3014,3015,3015,3016,3032,3033,3034,3041,3042,3043,3056,3057,3058,3069,3069,3070,3071,3074,3075,3076,3077,3088,3089,3089,3090,3091,3091,3104,3104,3105,3106,3106,3118,3118,3119,3120,3123,3124,3124,3135,3136,3137,3148,3149,3150,3150,3168,3169,3169,3170,3173,3176,3177,3178,3179,3180,3193,3194,3195,3195,3198,3199,3200,3201,3214,3215,3216,3231,3232,3233,3234,3237,3240,3253,3254,3255,3258,3259,3271,3272,3273,3274,3285,3286,3287,3287,3288,3289,3290,3300,3300,3301,3301,3302,3302,3307,3308,3308,3309,3321,3322,3323,3337,3338,3349,3350,3354,3355,3366,3367,3383,3384,3696,3697,3713,3714,3721,3721,3722,3732,3733,3749,3749,3749,3758,3830,3941,3952,3965,3983,3983,3999,4000,4002,4003,4046,4046,4047,4047,4082,4082,4083,4083,4084,4084,4085,4085,4086,4087,4088,4088,4089,4089,4090,4090,4091,4092,4106,4107,4108,4108,4109,4112,4113,4128,4129,4144,4145,4146,4147,4150,4151,4152,4153,4154,4155,4168,4170,4171,4173,4175,4176,4189,4190,4205,4210,4222,4223,4282,4318,4336,4355,4392,4404,4419" d="m57,309.89999c1.83333,-0.16666 2.21523,-0.93909 3.10017,-1c0.78331,-0.05392 1.73584,0.00174 2.50117,0c0.98967,-0.00226 1.71744,-0.22504 2.48133,-0.716c0.64964,-0.41754 1.61733,-0.34116 2.41734,-0.784c0.8,-0.44284 1.70377,-0.41788 2.6,-0.50015c0.91144,-0.08368 1.49448,-0.58636 2.4,-0.99985c0.7953,-0.36316 1.63245,-0.78983 2.3,-1.08398c0.77129,-0.33987 1.54431,-0.98022 2.17916,-1.41602c0.81001,-0.55603 1.24142,-1.46667 1.5955,-2.10001c0.48151,-0.86127 0.30876,-1.80817 0.42983,-2.69998c0.11151,-0.82138 0.77077,-1.33716 1.38483,-2.10001c0.60011,-0.74554 0.35345,-1.82559 0.832,-2.47867c0.51393,-0.70135 1.13889,-1.27319 1.49467,-1.92133c0.43673,-0.79559 0.96241,-1.48523 1.56799,-2.116c0.55001,-0.57288 1.26683,-1.02411 2.01601,-1.43668c0.83855,-0.46179 1.4324,-0.93994 1.86666,-1.64734c0.45825,-0.74649 1.49596,-0.91397 2.23784,-1.05267c1.00491,-0.18787 1.59827,-0.4624 2.5955,-0.94733c0.81296,-0.39532 1.44718,-0.72498 2.4215,-1.09982c0.80676,-0.31039 1.37761,-0.52158 2.5785,-0.73349c0.88899,-0.15686 1.48423,-0.12619 2.31467,-0.25067c1.00854,-0.15118 1.85568,-0.56296 2.88533,-0.79468c0.78941,-0.17764 1.80827,-0.26352 2.4045,-0.47849c0.86612,-0.31229 1.81033,-0.76141 2.62083,-1.03217c0.81589,-0.27252 1.85223,-0.49918 2.56,-0.58536c0.72335,-0.08807 1.85912,-0.24057 2.5335,-0.38248c0.74515,-0.15677 1.54601,-0.35327 2.84783,-0.64285c0.91776,-0.20416 1.39018,-0.30154 2.35417,-0.5c0.48967,-0.1008 1.48059,-0.29953 2.97883,-0.60001c0.4977,-0.09982 1.47935,-0.29834 1.95867,-0.39999c0.92801,-0.19681 2.20928,-0.49637 2.967,-0.69733c0.67153,-0.1781 2.0155,-0.86566 2.54267,-0.18134c0.53658,0.69653 -0.08669,1.97427 0.60533,2.29333c0.65736,0.30307 1.75999,0.08533 2.7635,0.08533c0.80899,0 1.2645,0 2.2925,0c1.20399,0 1.87833,0 2.59866,0c0.76233,0 1.56267,0 2.397,0c0.86433,0 1.75467,0 2.66701,0c1.87466,0 2.82899,0 3.78932,0c0.96234,0 1.92267,0 2.877,0c0.94434,0 1.87466,0 2.787,0c1.75467,0 2.59016,0 3.39867,0c0.7845,0 1.548,0 2.2935,0c0.7305,0 1.44901,0 2.15849,0c1.40401,0 2.10367,0 2.80135,0c0.69366,0 1.38133,0 2.06099,0c0.66968,0 1.32733,0 1.97101,0c1.23734,0 2.40535,0.00119 2.97433,-0.00449c1.13806,-0.01135 1.7191,-0.0285 2.31599,-0.05267c0.61914,-0.02505 2.66679,-0.16272 3.42433,-0.22684c0.79379,-0.06717 1.62123,-0.14258 2.481,-0.216c0.88956,-0.07596 1.80692,-0.15338 2.75101,-0.216c1.95653,-0.12982 2.96652,-0.16666 3.99199,-0.19867c1.03722,-0.03238 2.08264,-0.05182 3.132,-0.06448c1.0493,-0.01266 2.09467,-0.01758 3.132,-0.0195c2.03467,-0.00378 3.02466,-0.00134 3.99466,-0.00134c0.95,0 1.88,0 2.79001,0c0.89,0 1.75999,0 2.61,0c1.64,0 2.43016,0 3.20132,0c0.75317,0 1.48933,0 2.2095,0c0.70517,0 1.39633,0 2.07449,0c1.32133,0 1.96617,0 2.60001,0c0.62184,0 1.23067,0 1.8255,0c0.57983,0 1.14366,0 1.69051,0c1.03867,0 1.52882,0 2,0c0.45316,0 0.88933,0 1.71466,0c0.76933,0 2.17351,-0.00681 2.832,0.01068c0.65092,0.01727 1.99303,0.1499 2.716,0.27332c0.78915,0.1347 1.66273,0.29962 2.1425,0.36334c1.62975,0.21646 2.25345,0.23526 2.91483,0.26868c0.70297,0.03552 1.44933,0.05933 2.2395,0.08398c0.83514,0.02606 1.71646,0.04916 2.6445,0.08401c2.00162,0.07513 3.07533,0.13461 4.192,0.20132c1.15302,0.06888 2.33481,0.14871 3.5385,0.2355c1.21896,0.08789 2.4458,0.18192 3.67349,0.28049c2.43095,0.19519 3.62076,0.29782 4.79068,0.39868c1.15007,0.09915 2.28008,0.19907 3.39,0.29999c1.09007,0.09912 2.16013,0.19858 3.20999,0.30002c2.04027,0.19717 3.03026,0.29904 4.00133,0.39999c0.95328,0.09909 1.88943,0.19916 2.80951,0.29999c0.90527,0.09921 1.79645,0.19901 2.6745,0.30002c1.72156,0.19803 2.5661,0.29913 3.39868,0.39999c0.81876,0.09918 1.62146,0.1987 2.40598,0.29999c0.76483,0.09875 1.50775,0.19714 2.22601,0.30002c1.35812,0.19455 1.99371,0.29868 2.60666,0.39999c0.59738,0.09872 1.18527,0.20038 1.77151,0.29999c0.59109,0.10043 1.19385,0.20316 1.8165,0.30002c1.32828,0.20667 2.04886,0.30234 2.80798,0.39999c0.79654,0.10248 1.63046,0.2019 2.50052,0.29999c0.9046,0.10199 1.84341,0.20233 2.81549,0.30002c2.03818,0.20483 3.103,0.30185 4.19467,0.39865c1.11533,0.09891 2.25174,0.19373 3.40649,0.28052c1.16928,0.08789 2.35065,0.17007 3.5415,0.23547c2.39532,0.13156 3.59521,0.16776 4.79065,0.20001c1.18726,0.03204 2.36264,0.05176 3.522,0.06451c1.13931,0.01254 2.25467,0.01758 3.34201,0.0195c2.07468,0.00369 3.05551,0.00043 4.00134,0.00266c0.91583,0.00214 1.8067,0.00671 2.67749,0.0195c0.85587,0.01257 1.7019,0.03012 2.54251,0.06448c1.68719,0.06894 2.54147,0.13235 3.40265,0.20001c0.86581,0.06802 1.73227,0.14792 2.5965,0.2355c0.85977,0.08713 1.7113,0.18106 2.55151,0.28049c1.6366,0.19363 2.42633,0.29752 3.19733,0.39868c0.75333,0.09885 1.4895,0.19894 2.2095,0.29999c0.70532,0.099 1.39651,0.19873 2.07449,0.30002c1.32172,0.19748 1.96689,0.30066 2.60666,0.39865c0.63757,0.09766 1.27692,0.19379 1.923,0.28052c0.65524,0.08795 1.32458,0.17126 2.013,0.23547c1.44394,0.13467 2.20984,0.16827 3.00269,0.20001c0.81848,0.03275 1.66129,0.05197 2.526,0.06451c0.88461,0.01285 1.78732,0.01758 2.70599,0.0195c1.87732,0.00391 2.832,0.00131 3.79468,0.00131c0.96866,0 1.94131,0 2.91599,0c0.97467,0 1.94733,0 2.91599,0c1.91736,0 2.86203,-0.00085 3.79468,0.00134c0.91867,0.00217 1.82138,0.00665 2.70599,0.0195c0.86472,0.01254 1.70761,0.02902 2.526,0.06448c1.55801,0.0675 2.29337,0.13196 3.00269,0.19867c0.68805,0.06473 1.35739,0.14078 2.013,0.216c0.64572,0.0741 1.28476,0.15253 1.923,0.216c1.2843,0.12775 1.93945,0.16653 2.59998,0.19867c0.66217,0.03223 1.3226,0.05176 1.97702,0.06451c0.64429,0.01254 1.27466,0.01758 1.88699,0.0195c1.15466,0.00366 1.69,0.00131 2.19733,0.00131c0.48132,0 0.93866,0 1.37399,0c0.41534,0 0.81268,0 1.194,0c0.72269,0 1.06769,0 1.40268,0c0.32501,0 0.63998,0 0.94501,0c0.29498,0 0.57999,0 0.85498,0c0.52002,0 0.76535,0 1.00269,0c0.23132,0 0.45865,0 0.68399,0c0.22534,0 0.45267,0 0.68399,0c1.00134,0 1.83685,0 2.71735,0c1.19998,0 1.80933,0 2.75583,0c1.00949,0 1.73218,0 2.51083,0c0.85068,0 1.78934,0 2.832,0c1.15601,0 1.77151,0 2.40799,0c0.65451,0 2.00552,0 2.69601,0c1.396,0 2.09583,-0.00082 2.79468,0.00134c0.69681,0.00217 1.39084,0.00061 2.76532,0.03467c0.67896,0.01685 1.35168,0.03418 2.66934,0.13068c0.64508,0.04724 1.89188,0.18274 2.48798,0.25867c1.12482,0.14325 1.64355,0.23688 3.01202,0.40799c0.72437,0.09058 1.59918,0.08456 2.66666,0.33334c0.61725,0.14386 1.45093,0.55338 2.42133,0.93332c0.7991,0.31287 1.36136,0.47937 2.41202,0.89999c0.92743,0.37128 1.48874,0.69934 2.552,0.97467c0.93637,0.24246 1.62936,0.39413 2.47198,0.60001c0.62784,0.15341 1.66351,0.31921 2.41333,0.36816c0.81177,0.05301 1.70535,0.0549 3.22934,0.05716c0.56467,0.00082 1.15732,0 2.41867,0c0.66467,0 1.34933,0 2.052,0c0.71866,0 2.19598,0 2.95065,0c0.76266,0 1.53134,0 2.30402,0c0.77466,0 1.54932,0 3.09067,0c1.51733,0 2.26199,0 2.99466,0c0.71866,0 1.42133,0 2.10599,0c0.66467,0 1.92603,0 3.08334,0c1.04266,0 1.52399,0 2.41666,0c0.81268,0 2.26169,0 2.92169,0c0.91498,0 1.995,0 2.7045,0c0.85266,0 1.85715,0 2.65717,0c1,0 1.79999,0 2.79999,0c0.78934,0 1.51468,-0.00174 2.62534,0c0.85867,0.00134 1.78796,0.01727 2.48801,0.564c0.67548,0.52753 0.85693,0.03424 0.93933,-0.80081c0.10825,-1.09708 0.22586,-1.93369 0.38333,-2.82452c0.08133,-0.46011 0.25992,-1.39233 0.564,-2.77197c0.19452,-0.88257 0.29767,-1.31006 0.5,-2.14584c0.19775,-0.81689 0.50287,-2.02014 0.69867,-2.81949c0.19351,-0.78998 0.38229,-1.56213 0.51599,-2.31601c0.18796,-1.06003 0.25113,-2.06076 0.31067,-2.71066c0.12302,-1.34314 0.25558,-2.06485 0.41068,-2.84268c0.1698,-0.85162 0.28088,-1.30563 0.564,-2.832c0.10458,-0.56384 0.30161,-1.77576 0.39999,-2.41867c0.10168,-0.6644 0.20111,-1.34918 0.30002,-2.052c0.1011,-0.71851 0.30045,-2.19592 0.39999,-2.9505c0.10046,-0.76141 0.19968,-1.52701 0.29999,-2.29349c0.19943,-1.52405 0.29846,-2.27573 0.39999,-3.01599c0.19699,-1.43643 0.29868,-2.12637 0.40002,-2.79733c0.09869,-0.65335 0.29883,-1.90971 0.39999,-2.51468c0.09888,-0.59134 0.39883,-2.29088 0.5,-2.83583c0.19769,-1.06476 0.29877,-1.58574 0.5,-2.61082c0.0994,-0.5063 0.40021,-2.01064 0.5,-2.51083c0.20038,-1.00426 0.30157,-1.51021 0.5,-2.53584c0.1008,-0.52101 0.40033,-2.1306 0.50015,-2.68567c0.20502,-1.13988 0.30807,-1.72545 0.42068,-2.31999c0.23129,-1.22096 0.35464,-1.84721 0.64581,-3.125c0.14944,-0.65584 0.31836,-1.31676 0.64801,-2.65868c0.16568,-0.67438 0.32886,-1.34825 0.47549,-2.02199c0.14532,-0.66765 0.39505,-1.98375 0.54184,-3.26733c0.07172,-0.6272 0.11276,-1.24973 0.21866,-2.47467c0.05243,-0.60637 0.08267,-1.21461 0.28268,-2.41068c0.20126,-1.20364 0.3699,-1.79272 0.52798,-2.37866c0.31107,-1.15291 0.49631,-1.70525 0.97202,-3.28799c0.14713,-0.48947 0.40195,-1.41373 0.66666,-2.25c0.2417,-0.76357 0.63031,-1.77264 1.15717,-2.578c0.34085,-0.52101 0.97147,-1.25525 1.54266,-2.14799c0.41595,-0.65013 0.78452,-1.35464 1.14301,-2.052c0.49777,-0.96831 0.85754,-1.8241 1.31851,-2.48401c0.6077,-0.87 1.34937,-1.42476 1.8595,-1.84216c0.53189,-0.43521 1.57269,-1.38799 2.022,-1.93633c0.45178,-0.55135 0.85913,-1.14301 1.65717,-2.34317c0.40329,-0.60651 0.81497,-1.23264 1.19998,-1.914c0.62463,-1.10544 0.8056,-1.52617 1.2045,-2.39999c0.42212,-0.92473 0.62158,-1.41161 1.08084,-2.38834c0.47122,-1.00217 0.72717,-1.50179 1.26733,-2.48834c0.26831,-0.49007 0.81903,-1.43877 1.0947,-1.89467c0.77765,-1.28606 1.26868,-2.04413 1.71661,-2.75299c0.4267,-0.67517 0.84711,-1.33691 1.43585,-2.38234c0.4043,-0.7179 0.77246,-1.44109 1.14301,-2.112c0.48157,-0.87198 1.14624,-1.58551 1.53583,-2.46716c0.328,-0.74232 0.24139,-2.41521 1.03601,-2.15717c0.70093,0.22762 0.08533,1.67883 0.08533,2.49333c0,0.8685 0,2.064 0,2.664c0,0.89999 0.0058,2.10004 -0.00134,2.7c-0.01074,0.90015 -0.05011,1.80577 -0.21997,2.69983c-0.17035,0.89658 -0.47668,1.733 -0.65717,2.77884c-0.11926,0.69101 -0.10559,1.3741 -0.12286,2.60667c-0.01172,0.83563 -0.00958,1.42642 -0.21997,2.61482c-0.10779,0.60898 -0.37701,1.53113 -0.49469,2.18517c-0.25085,1.39447 -0.25812,2.17203 -0.30933,2.99734c-0.02704,0.43617 -0.13403,1.85152 -0.25867,2.88533c-0.06482,0.5378 -0.14276,1.08247 -0.29065,2.18134c-0.07336,0.54524 -0.26947,2.11647 -0.34003,3.07866c-0.0332,0.45282 -0.07135,1.30939 -0.08081,2.10583c-0.01715,1.44458 0.01343,2.11002 -0.04053,3.0555c-0.03485,0.61034 -0.24487,1.81142 -0.38934,2.41068c-0.21729,0.90114 -0.46155,2.09911 -0.52197,2.7c-0.09039,0.89883 -0.20917,2.10207 -0.33667,2.70267c-0.20007,0.94252 -0.40131,1.60602 -0.54932,2.73067c-0.10962,0.83276 -0.13428,1.72789 -0.14587,2.1875c-0.02356,0.93085 -0.02081,2.3125 -0.02081,3.19383c0,0.84933 0,1.2645 0,2.08083c0,1.2045 0,2.00317 0,3.18367c0,0.76367 0.00623,1.85422 -0.00134,2.53551c-0.01068,0.96463 -0.0033,1.58916 -0.21997,2.78532c-0.16449,0.90807 -0.3985,1.49113 -0.612,2.7c-0.1051,0.59515 -0.12616,1.48424 -0.25067,2.31467c-0.15118,1.00854 -0.5675,1.85471 -0.79449,2.88535c-0.13037,0.59187 -0.12085,1.39999 -0.12152,2.409c-0.00061,0.90533 0.005,2.03438 -0.00449,2.71432c-0.01059,0.76012 -0.03195,1.60176 -0.16217,3.01001c-0.04718,0.51044 -0.18579,1.58102 -0.25867,2.13867c-0.07446,0.5697 -0.2272,1.73642 -0.29068,2.33066c-0.12778,1.19626 -0.202,2.39319 -0.22684,2.98383c-0.02444,0.58139 -0.04877,1.70547 -0.05267,2.242c-0.01074,1.47147 0.0076,2.31448 -0.01517,3.05283c-0.02924,0.9487 -0.19473,2.00229 -0.48932,2.89786c-0.20499,0.6232 -0.46683,1.6196 -0.49551,2.42081c-0.03577,0.99939 0.05023,1.8212 -0.22598,2.79984c-0.22678,0.8035 -0.83701,1.59515 -1.25766,2.30017c-0.46799,0.78436 -0.43066,1.71436 -0.80484,2.616c-0.28101,0.67706 -0.68329,1.54446 -0.71152,2.34567c-0.03378,0.95911 -0.00449,1.76367 -0.00449,2.58566c0,1.03119 0,1.93185 0,2.95267c0,0.78934 0,1.51468 0,2.58936c0,0.81064 -0.18246,2.05289 0.52084,2.38983c0.79337,0.38007 1.62228,0.41489 2.3645,0.73682c0.90134,0.39096 1.71597,0.28333 2.71915,0.284c0.85266,0.00055 1.81842,-0.00577 2.38867,0.00452c1.10577,0.01996 1.5694,0.04147 3.34015,0.16217c0.73846,0.05032 1.54559,0.11719 2.41052,0.19498c0.91241,0.08206 1.86078,0.17587 2.8335,0.285c0.98767,0.11081 1.98041,0.21951 3.92267,0.52002c0.93591,0.14481 1.83588,0.31116 2.69702,0.48599c0.82153,0.16681 1.59601,0.34174 2.31897,0.522c0.67169,0.16748 1.28876,0.32199 2.31732,0.65866c0.41901,0.13715 0.77771,0.26434 1.32538,0.51999c0.72723,0.33948 1.68585,0.57257 2.44263,0.73068c1.01886,0.21286 1.64551,0.54382 2.56537,1.08267c0.80933,0.47409 1.38861,0.86679 2.05212,1.23782c1.10291,0.61673 1.94751,0.99808 2.38654,1.19101c0.89117,0.39163 1.78827,0.75003 2.22662,0.91916c1.22192,0.47144 1.95172,0.72134 2.91071,1.07468c1.09351,0.40289 1.81195,0.67935 2.41064,1.01065c0.99097,0.54831 1.55701,1.00958 2.44666,1.42532c0.8147,0.38074 1.31732,1.07825 2,1.53867c0.82178,0.5542 1.8349,0.19318 2.6955,0.44052c0.76794,0.2207 1.22534,0.97467 2.10455,0.99548l0.89996,0" id="svg_1" stroke-width="2" stroke="#000" fill="none"/>
  <path t="6129,6238,6260,6280,6371,6383,6405,6405,6408,6468,6469,6469,6507,6507,6508,6508,6508,6611,6611,6612,6618,6618,6619,6641,6642,6657,6674,6674,6677,6691,6706,6721,6735,6740,6740,6740,6753,6753,6754,6754,6765,6766,6766,6766,6782,6783,6783,6783,6783,6786,6786,6786,6786,6798,6799,6799,6815,6815,6815,6816,6831,6831,6831,6835,6835,6835,6835,6848,6848,6848,6849,6849,6849,6864,6865,6865,6865,6865,6865,6865,6865,6871,6871,6872,6872,6872,6872,6872,6885,6885,6886,6886,6886,6902,6902,6902,6902,6916,6917,6917,7176,7189,7189,7203,7203,7217,7217,7218,7234,7234,7235,7237,7237,7237,7252,7252,7253,7253,7253,7254,7268,7269,7269,7269,7269,7269,7270,7270,7270,7275,7275,7275,7275,7276,7276,7277,7277,7277,7292,7292,7292,7293,7293,7293,7293,7307,7307,7307,7308,7308,7308,7322,7322,7323,7323,7323,7324,7326,7327,7327,7327,7328,7328,7343,7343,7343,7343,7343,7344,7344,7347,7347,7347,7348,7348,7348,7348,7349,7349,7361,7362,7362,7362,7362,7362,7363,7363,7363,7376,7376,7376,7377,7377,7377,7378,7378,7393,7393,7394,7394,7394,7395,7395,7397,7398,7398,7398,7399,7412,7413,7413,7413,7426,7426,7427,7427,7428,7428,7443,7444,7444,7444,7445,7445,7446,7448,7448,7449,7449,7449,7450,7450,7451,7464,7465,7465,7465,7466,7466,7467,7467,7468,7470,7470,7471,7471,7471,7472,7472,7473,7486,7486,7487,7487,7487,7488,7488,7489,7506,7506,7506,7507,7507,7508,7510,7510,7510,7511,7511,7511,7512,7524,7524,7525,7525,7526,7526,7527,7530,7530,7531,7531,7531,7532,7532,7533,7533,7545,7546,7546,7547,7548,7549,7549,7550,7550,7563,7564,7564,7564,7564,7565,7565,7566,7566,7568,7569,7569,7570,7570,7570,7571,7588,7589,7589,7590,7593,7593,7594,7610,7611,7611,7859,7860,7860,7860,7873,7873,7874,7874,7887,7888,7888,7889,7889,7889,7902,7902,7902,7903,7903,7903,7904,7904,7908,7909,7909,7910,7910,7910,7911,7911,7911,7923,7923,7923,7924,7924,7925,7925,7938,7939,7939,7940,7940,7940,7941,7941,7942,7955,7956,7956,7957,7957,7957,7958,7958,7959,7961,7961,7962,7962,7963,7963,7963,7964,7964,7976,7977,7977,7978,7978,7979,7979,7979,7980,7982,7982,7983,7983,7983,7984,7984,7984,7985,7997,7998,7998,7998,7999,7999,8000,8000,8012,8013,8013,8014,8014,8014,8028,8028,8029,8029,8030,8030,8032,8033,8033,8033,8034,8034,8035,8047,8048,8048,8048,8049,8049,8050,8050,8063,8063,8064,8064,8065,8065,8066,8066,8068,8069,8069,8070,8070,8082,8083,8083,8084,8084,8085,8100,8101,8102,8102,8105,8106,8106,8299,8300,8321,8324,8325,8327,8340,8341,8341,8342,8343,8359,8360,8360,8361,8364,8365,8365,8366,8367,8368,8384,8385,8385,8386,8387,8388,8388,8389,8390,8392,8393,8394,8395,8395,8396,8399,8400,8401,8401,8420,8421,8425,8426,8427,8427,8428,8442,8443,8444,8445,8445,8446,8449,8449,8450,8451,8470,8470,8471,8473,8474,8475,8476,8492,8493,8494,8495,8496,8496,8499,8500,8501,8502,8503,8504,8504,8508,8508,8509,8510,8511,8512,8530,8531,8531,8531,8532,8534,8534,8535,8535,8547,8548,8563,8751,8751,8773,8774,8775,8778,8779,8780,8780,8781,8782,8791,8792,8792,8793,8793,8794,8807,8808,8808,8809,8809,8812,8813,8813,8814,8814,8815,8825,8826,8827,8839,8839,8840,8856,8857,8858,8861,8862,8862,8863,8864,8876,8877,8877,8878,8878,8879,8891,8892,8893,8894,8895,8898,8899,8899,8900,8911,8912,8913,8930,8931,8935,8936,8955,8973,8989,9007,9008,9024,9044,9239,9240,9288,9312,9349,9398,9410,9427,9428,9444,9447,9460,9460,9483,9495,9507,9524,9532,9533,9534,9543,9544,9545,9557,9558,9559,9560,9574,9574,9581,9582,9605,9624" d="m56,310.89999c-1.83333,0.16669 -2.23793,0.79187 -3.09983,1.00018c-0.83913,0.20282 -0.85237,1.1011 -0.90017,1.99982c-0.04273,0.80344 -0.57045,1.48721 -1.10017,2.32202c-0.46603,0.73444 -0.67125,1.24786 -1.221,2.54199c-0.33574,0.79034 -0.50387,1.20813 -0.8175,2.06c-0.30203,0.82037 -0.6883,1.90155 -0.77866,2.77866c-0.07595,0.73727 0.11148,1.72641 0.35333,2.51199c0.24147,0.78433 0.72148,1.84906 1.264,2.47635c0.65175,0.75357 1.22842,1.39645 1.9,1.87299c0.72566,0.51489 1.3976,1.05273 2.1045,1.48868c0.67162,0.41418 1.55446,0.75055 2.46217,1.28067c0.53704,0.31363 1.03751,0.91696 2,1.5c0.76487,0.46332 1.3684,0.66608 2.32,0.96533c1.02817,0.32333 1.76988,0.50372 2.53416,0.70132c0.78304,0.20245 1.9794,0.49905 2.77784,0.70001c0.7909,0.19907 1.5668,0.39456 2.316,0.60001c1.06597,0.2923 1.72971,0.49515 2.67466,0.79999c0.61035,0.1969 1.81068,0.60001 2.41067,0.79999c0.90001,0.29999 2.09758,0.70746 2.7,0.89551c0.89654,0.27985 1.49196,0.47552 2.7,0.61917c0.896,0.10654 1.49999,0.08307 2.7005,0.08533c0.613,0.00116 1.6075,-0.00006 2.3555,0c1.30867,0.00009 1.80139,-0.00354 2.86267,0.01068c0.5647,0.00757 1.14999,0.01114 2.37067,0.07465c1.27819,0.0665 1.93267,0.13113 2.596,0.20001c1.35177,0.14038 2.03572,0.23383 2.72533,0.32535c0.69406,0.0921 1.39073,0.19016 2.78933,0.38931c0.69954,0.09961 2.08634,0.29666 2.768,0.38934c0.66935,0.091 1.32339,0.17978 1.9605,0.25351c1.76991,0.20477 2.30649,0.24097 3.2955,0.30447c0.89238,0.05731 1.70982,0.06812 2.80933,0.21936c0.68491,0.09421 1.64268,0.34717 2.26216,0.48065c1.19852,0.25827 2.08539,0.24561 2.833,0.40533c0.9361,0.20001 1.63934,0.90048 2.4805,0.94284c0.98976,0.04987 1.791,0.00449 2.79117,0.00449c0.82067,0 1.48517,0 2.48517,0c0.8355,0 1.716,0 2.615,0c0.92101,0 1.57167,0 3.033,0c0.41033,0 1.299,0 2.29166,0c0.54033,0 1.71899,0 3.04167,0c0.71899,0 1.472,0 2.25299,0c0.80301,0 1.62201,0 2.451,0c0.83299,0 1.664,-0.00018 3.29601,0c0.79033,0.00009 1.56268,-0.00021 2.319,0.00452c0.74234,0.00464 1.47273,0.01321 2.19299,0.03149c0.71243,0.01807 1.42079,0.01974 3.521,0.18567c0.69852,0.05518 1.39204,0.13452 2.07901,0.22501c0.68039,0.0896 1.35442,0.17392 2.65067,0.44c1.24271,0.2551 1.83173,0.42065 2.95183,0.76599c0.53828,0.16595 1.05612,0.34793 2.05267,0.69467c1.3992,0.48685 1.84134,0.64359 2.718,0.89548c0.86554,0.24869 1.75703,0.45709 2.2175,0.55585c1.4707,0.31546 2.00075,0.40454 3.10266,0.60132c0.56938,0.10168 1.14911,0.20132 2.33067,0.40002c1.1971,0.20132 1.79874,0.2933 3.00183,0.509c0.6068,0.1088 1.22009,0.21606 2.45267,0.50531c0.6302,0.14789 1.91159,0.5126 2.56467,0.72867c0.66837,0.22113 1.34543,0.46841 2.03549,0.729c0.7063,0.26669 1.42523,0.54962 2.1615,0.83701c0.75307,0.29395 2.31345,0.89383 3.12367,1.19083c0.8231,0.30173 1.65771,0.59744 2.4975,0.8895c0.83856,0.29163 1.67303,0.57556 2.4975,0.85352c0.80888,0.27271 2.3625,0.7905 3.09801,1.03568c0.7085,0.23615 1.39299,0.46432 2.0565,0.68549c0.64549,0.21518 1.27599,0.42532 2.504,0.83466c1.20399,0.40134 1.80348,0.60172 2.40132,0.80002c1.18098,0.39172 1.7605,0.58206 2.33067,0.76532c1.10037,0.35367 2.13594,0.67889 3.10001,0.94934c0.8869,0.24881 1.7108,0.45981 2.48399,0.60001c1.06241,0.19266 1.74445,0.23267 2.78534,0.31198c0.7574,0.05771 2.06737,0.19434 2.55865,0.25867c1.05247,0.13779 1.60612,0.21896 2.17601,0.29068c1.17125,0.1474 2.3676,0.26419 2.96817,0.30399c1.20364,0.07974 1.8105,0.09567 2.42065,0.12134c1.23637,0.052 1.86534,0.07181 3.14584,0.16669c0.65549,0.04855 1.99527,0.18814 2.67999,0.26932c0.6953,0.08243 1.40012,0.17386 2.11501,0.26849c0.7251,0.09598 2.20493,0.29608 2.95982,0.39551c0.76376,0.10059 1.53563,0.20038 2.3145,0.29999c0.78479,0.10037 1.57465,0.2002 2.36852,0.30002c0.7968,0.10019 2.39551,0.29987 3.19516,0.39999c0.79768,0.09988 1.5914,0.19949 2.379,0.29999c0.77972,0.09949 1.54961,0.19794 2.30701,0.30002c2.18181,0.29404 2.87151,0.3988 3.54366,0.5c0.65652,0.09885 1.29901,0.19791 2.54933,0.39999c0.6125,0.099 1.21863,0.20032 2.42134,0.39999c1.19862,0.19897 1.79507,0.29822 2.38933,0.38934c1.17386,0.18002 1.7509,0.27832 3.44402,0.444c0.54477,0.05331 1.61844,0.11508 2.15198,0.14133c1.0759,0.05289 1.62488,0.07205 2.18402,0.10934c1.77536,0.11844 2.40408,0.19907 3.05399,0.26865c0.6701,0.07175 1.35925,0.15503 2.80002,0.29468c0.74963,0.07266 2.30975,0.19037 3.11948,0.23132c0.82629,0.04181 1.66699,0.06979 2.51852,0.09601c0.85947,0.02646 1.72406,0.04865 2.59048,0.078c0.86557,0.02933 2.58185,0.10919 3.42667,0.16882c0.83655,0.05905 1.66467,0.13239 2.4855,0.21451c0.81549,0.08157 1.62552,0.173 2.43149,0.26849c0.80338,0.09518 2.40454,0.29532 3.20401,0.39551c0.79654,0.09982 1.5871,0.19922 2.3685,0.29999c0.76959,0.09924 1.52417,0.19858 2.2605,0.30002c0.7157,0.0986 2.07178,0.29828 2.70685,0.39984c0.6076,0.09717 1.18857,0.19623 1.746,0.28949c1.05048,0.17575 2.02737,0.34177 2.952,0.444c0.87708,0.09695 1.70908,0.14029 2.48398,0.15601c1.34909,0.02737 2.17285,0.01065 2.89734,0.01065c0.952,0 1.74249,0 2.59601,0c1.18933,0 1.78934,0 2.68933,0c0.89999,0 1.80072,0.01205 2.73199,-0.01065c0.67627,-0.01648 1.42682,-0.04996 2.73267,-0.21118c1.01389,-0.12518 1.55557,-0.22748 2.11868,-0.34067c1.19086,-0.23938 1.81232,-0.38788 3.08331,-0.77081c0.65845,-0.19836 1.3215,-0.43185 1.995,-0.67651c1.38312,-0.50247 2.08426,-0.77756 2.80002,-1.04199c0.72424,-0.26758 2.20306,-0.78748 2.9595,-1.02634c0.75961,-0.23987 1.52533,-0.46198 2.29349,-0.66449c0.76288,-0.20114 1.52249,-0.38181 2.27551,-0.53851c0.73904,-0.15381 2.17554,-0.39297 2.867,-0.47601c0.67267,-0.08078 1.98132,-0.18384 2.62198,-0.22198c0.63538,-0.03784 1.27039,-0.04837 3.1875,-0.1875c0.65588,-0.04761 1.32278,-0.11618 2.004,-0.186c0.69748,-0.07147 1.41248,-0.14935 2.14801,-0.22198c0.75711,-0.07477 1.53763,-0.15704 3.18134,-0.25867c0.86404,-0.05341 1.75589,-0.08511 2.67151,-0.10953c0.9364,-0.02496 1.89096,-0.03836 2.8605,-0.04648c0.98148,-0.00824 1.97198,-0.00986 3.96799,-0.01068c0.99951,-0.00043 1.996,0.00021 2.98651,-0.00449c0.98148,-0.00467 1.95105,-0.01312 2.90549,-0.03149c0.93655,-0.01804 1.85284,-0.03262 3.608,-0.13068c0.836,-0.04669 1.64429,-0.11438 2.4285,-0.186c0.76376,-0.06976 1.50897,-0.14771 2.2395,-0.22198c0.71848,-0.07306 1.42697,-0.15463 2.832,-0.25867c0.69937,-0.05179 1.39856,-0.08481 2.09549,-0.10953c0.69373,-0.0246 1.38364,-0.0383 2.06851,-0.04648c0.6788,-0.00812 1.35068,-0.01001 2.66934,-0.01068c0.64499,-0.00034 1.28,0 1.905,0c0.61499,0 1.22,0 1.815,0c1.16,0 2.28,0 3.36133,0c0.52817,0 1.56448,0 2.07465,0c1.00934,0 2.01068,0 3.01334,0c1.01868,0 1.539,0 2.61166,0c0.55634,0 1.71902,0 2.95636,0c0.64365,0 1.30133,0 1.97098,0c0.67969,0 2.061,0 3.45834,0c0.70001,0 1.39999,0 2.10001,0c0.69998,0 1.39999,0 2.79999,0c0.70001,0 2.10001,0.00052 2.7995,-0.00015c0.6965,-0.00064 1.38712,0.00314 2.73801,-0.02066c0.65457,-0.01154 1.29156,-0.02573 1.90649,-0.06451c1.69394,-0.10681 2.20374,-0.19162 3.16934,-0.34c0.92773,-0.14255 1.85107,-0.3111 2.82001,-0.40799c1.03137,-0.10315 1.56726,-0.11743 2.64581,-0.14584c0.53409,-0.01407 1.5675,-0.01645 2.95633,-0.021c0.793,-0.00259 1.50394,0.00479 2.151,-0.05701c1.21869,-0.11639 2.09201,-0.3688 2.64151,-0.51749c1.12863,-0.30536 1.9938,-0.42722 2.79285,-0.94617c0.67441,-0.43802 1.33353,-0.89557 1.99799,-1.23636c1.11926,-0.57404 1.7955,-0.89999 2.52283,-1.26364c0.76733,-0.38367 1.15848,-0.58557 2.35834,-1.17883c0.79834,-0.39474 1.5874,-0.79129 2.39999,-1.086c1.18362,-0.42926 2.00604,-0.55182 2.42252,-0.61353c0.8804,-0.13043 1.86502,-0.25381 2.40417,-0.35416c1.21082,-0.22534 1.88153,-0.4057 2.59467,-0.60001c0.74799,-0.2038 1.51648,-0.4317 2.2995,-0.66748c0.78897,-0.23755 1.57156,-0.48309 2.34448,-0.71252c2.14496,-0.63672 2.79337,-0.79996 3.41052,-0.94781c0.58963,-0.14127 1.71564,-0.37341 2.26331,-0.45267c1.62277,-0.23486 2.18146,-0.25177 3.3045,-0.31351c0.56015,-0.03079 1.11554,-0.03732 2.18933,-0.10535c1.46848,-0.09302 1.90576,-0.15326 3.091,-0.37265c0.75388,-0.13956 1.5253,-0.31229 2.37601,-0.40799c0.94958,-0.10684 1.97604,-0.14078 2.5,-0.16669c1.04205,-0.05151 1.55325,-0.03864 2.93549,-0.22131c0.79688,-0.10532 1.49625,-0.30612 2.46051,-0.49469c1.19781,-0.23425 1.8064,-0.2348 2.70401,-0.33667c1.20456,-0.13672 1.81219,-0.30594 2.46249,-0.44733c0.70764,-0.15384 1.93637,-0.34781 2.89349,-0.41467c0.51501,-0.03598 1.60648,-0.06729 2.17599,-0.07465c1.17194,-0.01514 2.36801,-0.00967 2.96802,-0.01083c1.19998,-0.00232 1.80008,-0.0065 2.39999,-0.02066c1.20023,-0.02835 1.80133,-0.04651 3,-0.14584c1.19894,-0.09937 1.7912,-0.1842 2.37866,-0.25867c1.14981,-0.14578 1.70477,-0.24194 3.28799,-0.40799c0.48956,-0.05133 1.41418,-0.1189 2.27084,-0.14584c0.79611,-0.02502 1.89597,-0.00986 2.90085,-0.02533c0.62009,-0.00955 1.49094,-0.01285 2.47501,-0.27951c0.85791,-0.23248 1.79828,-0.67328 2.68665,-0.716c0.81342,-0.03909 1.77374,0.0119 2.58331,-0.02081c0.6405,-0.02588 1.75201,-0.13251 2.58868,-0.26584c0.91309,-0.14551 1.3927,-0.24533 2.39417,-0.47501c0.52301,-0.11996 2.15594,-0.55661 2.71649,-0.72232c1.13385,-0.33517 1.69659,-0.5159 2.25604,-0.69067c1.09204,-0.34113 2.12701,-0.66199 3.09198,-0.94135c0.45905,-0.1329 1.35126,-0.37476 2.21747,-0.63666c1.32288,-0.39993 1.77588,-0.5603 2.6955,-0.89999c0.91779,-0.33902 1.36182,-0.51514 2.20172,-0.86334c1.09406,-0.45358 1.95264,-0.85858 2.6983,-1.1795c0.9718,-0.41821 1.77283,-0.72455 2.6037,-0.94733c1.02216,-0.27405 1.74951,-0.32385 2.51965,-0.40985c0.93414,-0.10431 1.68988,-0.22766 2.54095,-0.38333c0.92505,-0.16922 1.4057,-0.26764 2.89203,-0.564c1.00012,-0.1994 1.5,-0.29999 2.5,-0.5c0.5,-0.10001 1.49994,-0.30038 2.5,-0.5c0.99725,-0.19907 1.97815,-0.39182 2.45831,-0.47916c0.92651,-0.16852 2.20746,-0.36337 2.97101,-0.43683c0.69794,-0.06714 1.66705,-0.09995 2.57068,-0.25067c0.89777,-0.14975 1.71564,-0.45798 2.66669,-0.66666c0.93842,-0.2059 1.81732,-0.16669 2.68066,-0.16669c0.89551,0 1.85266,0 2.75262,0c0.90002,0 1.70001,0 2.60004,0c0.8208,0 1.83643,0.23788 2.59015,-0.05716c0.82263,-0.32199 0.70984,-1.44284 0.70984,-2.34283c0,-0.89999 0.1889,-1.86929 -0.2215,-2.70001c-0.34119,-0.69058 -1.16516,-1.30896 -1.87836,-1.77881c-0.72052,-0.4747 -0.80194,-1.34644 -1.3255,-2.05984c-0.47528,-0.64764 -1.18494,-1.08737 -1.98529,-1.48666c-0.91058,-0.45428 -1.64447,-0.54611 -2.276,-0.74399c-1.02661,-0.32166 -1.83044,-0.85812 -2.41785,-1.18253c-0.89001,-0.49155 -1.78876,-0.89667 -2.37469,-1.12732c-0.83228,-0.32761 -1.85529,-0.67923 -2.67413,-1.12085c-0.84924,-0.45801 -1.43604,-1 -2.14215,-1.69998l-0.53784,-0.70001" id="svg_2" stroke-width="2" stroke="#000" fill="none"/>
  <path t="10284,10338,10338,10338,10338,10338,10338,10350,10350,10350,10350,10350,10350,10350,10350,10350,10364,10364,10364,10364,10364,10364,10364,10364,10364,10379,10379,10380,10380,10380,10380,10380,10380,10380,10398,10398,10398,10398,10398,10398,10398,10398,10398,10400,10400,10401,10401,10401,10401,10401,10401,10401,10414,10414,10414,10414,10414,10414,10415,10415,10415,10427,10427,10427,10427,10427,10427,10427,10427,10428,10436,10437,10437,10437,10437,10437,10437,10437,10438,10451,10452,10452,10452,10452,10452,10452,10453,10453,10463,10463,10463,10463,10464,10464,10464,10464,10464,10477,10477,10477,10477,10477,10477,10478,10478,10478,10484,10485,10485,10485,10485,10485,10486,10486,10486,10496,10496,10496,10496,10496,10496,10496,10496,10497,10511,10512,10512,10512,10512,10513,10513,10513,10513,10527,10528,10528,10528,10528,10528,10529,10529,10529,10533,10533,10533,10534,10534,10534,10534,10534,10534,10545,10546,10546,10546,10546,10547,10547,10547,10547,10560,10560,10560,10561,10561,10561,10561,10561,10561,10570,10570,10570,10570,10571,10571,10571,10571,10571,10582,10582,10582,10582,10583,10583,10583,10583,10583,10594,10594,10594,10595,10595,10595,10595,10596,10596,10611,10611,10612,10612,10612,10612,10612,10612,10613,10619,10619,10619,10620,10620,10620,10621,10621,10621,10632,10632,10633,10633,10633,10634,10634,10634,10635,10646,10647,10647,10647,10647,10647,10648,10648,10648,10661,10662,10662,10662,10663,10663,10663,10664,10664,10667,10667,10668,10668,10668,10668,10669,10669,10669,10680,10680,10680,10681,10681,10681,10681,10682,10682,10695,10696,10696,10696,10696,10696,10697,10697,10697,10704,10704,10704,10704,10705,10705,10705,10705,10706,10728,10728,10729,10729,10729,10730,10730,10731,10731,10744,10745,10745,10746,10746,10746,10747,10747,10748,10752,10753,10753,10754,10754,10755,10755,10755,10756,10789,10790,10790,10790,10791,10791,10792,10792,10792,10814,10814,10814,10814,10815,10815,10815,10815,10816,10830,10830,10830,10831,10831,10832,10832,10833,10833,10845,10846,10846,10846,10847,10847,10850,10850,10851,10851,10863,10864,10864,10865,10865,10865,10878,10879,10879,10879,10879,10880,10887,10887,10888,10888,10888,10889,10889,10904,10904,10904,10905,10914,10915,10915,10929,10930,10930,10937,10938,10938,10939,10952,10952,10953,10968,10969,10969,10970,10970,10971,10973,10974,10974,10974,10975,10975,10976,10976,10976,10991,10991,10992,10992,10993,10993,10994,10994,10995,10998,10998,10999,10999,11000,11000,11001,11001,11002,11018,11019,11019,11020,11020,11021,11021,11022,11022,11025,11025,11026,11026,11026,11027,11027,11028,11028,11044,11044,11045,11045,11046,11046,11047,11049,11049,11050,11050,11051,11051,11065,11066,11066,11067,11067,11068,11068,11069,11070,11072,11072,11073,11073,11074,11075,11076,11077,11077,11092,11093,11093,11094,11094,11095,11095,11096,11097,11099,11099,11100,11100,11101,11101,11102,11103,11103,11106,11107,11107,11107,11108,11108,11109,11109,11109,11121,11121,11122,11122,11123,11123,11124,11124,11125,11136,11137,11138,11138,11139,11140,11140,11141,11141,11144,11145,11145,11146,11146,11147,11147,11148,11148,11161,11161,11162,11162,11163,11163,11164,11164,11165,11176,11176,11177,11177,11178,11178,11179,11179,11180,11182,11182,11183,11184,11184,11184,11185,11185,11185,11197,11198,11198,11199,11200,11200,11200,11201,11201,11212,11212,11213,11213,11213,11214,11214,11214,11215,11217,11218,11218,11219,11219,11219,11220,11220,11221,11233,11233,11234,11234,11234,11235,11235,11236,11236,11250,11250,11251,11251,11251,11252,11252,11253,11253,11256,11256,11257,11257,11258,11258,11259,11259,11260,11273,11274,11275,11275,11276,11276,11277,11277,11278,11280,11280,11280,11281,11281,11282,11282,11282,11283,11295,11295,11295,11296,11296,11297,11297,11298,11298,11312,11312,11313,11314,11314,11315,11315,11316,11317,11320,11320,11320,11321,11322,11322,11323,11323,11324,11337,11338,11339,11339,11340,11340,11341,11341,11342,11344,11345,11357,11358,11373,11373,11376,11377,11391,11391,11392,11404,11405,11418,11418,11435,11436,11436,11440,11441,11509,11510" d="m298,313.89999c3.08633,0.00052 4.03799,0.00534 4.56534,0.03201c1.15036,0.05817 1.76917,0.1243 2.41068,0.224c1.36273,0.21182 2.07065,0.39719 2.79733,0.60532c0.75363,0.21585 1.52441,0.47772 2.31,0.78452c0.81479,0.31818 1.6481,0.67966 2.48999,1.09949c1.7778,0.88654 2.6752,1.43365 3.60535,2c0.96744,0.58905 1.95929,1.22766 2.98798,1.90051c1.07275,0.70169 2.18414,1.44547 3.34802,2.21548c2.48276,1.64255 3.81293,2.50876 5.21198,3.39868c1.46249,0.9303 3.00211,1.88757 4.6275,2.86499c1.70108,1.02295 3.49338,2.07474 5.39252,3.13501c4.06912,2.27173 6.285,3.41159 8.58398,4.59332c2.36728,1.21683 4.79987,2.43631 7.2735,3.66751c2.49567,1.24216 5.00357,2.47589 7.4985,3.71249c4.89972,2.42853 7.2684,3.61938 9.57199,4.78934c2.23904,1.13718 4.40402,2.24942 6.492,3.33151c2.01062,1.04199 3.936,2.0484 5.772,3.01648c3.39722,1.79126 4.94656,2.62094 6.40668,3.40134c1.37888,0.73697 2.6839,1.43753 3.92551,2.103c1.1864,0.63586 2.3259,1.24738 3.43048,1.83301c2.12994,1.12927 3.1767,1.67224 4.216,2.20801c1.03369,0.5329 2.06747,1.05966 3.10352,1.58398c1.03998,0.52634 2.08875,1.05316 3.1485,1.58401c2.16348,1.08371 3.27359,1.63828 4.40399,2.20132c1.1496,0.57263 2.31906,1.15259 3.51001,1.7355c1.20905,0.5918 2.43774,1.18839 3.69,1.78049c2.55545,1.20831 3.86905,1.80109 5.19998,2.40134c1.34906,0.60846 2.72018,1.21826 4.11002,1.83902c1.41019,0.62988 2.8421,1.26804 4.28998,1.92899c2.96436,1.35324 4.46982,2.06998 5.992,2.79468c1.5318,0.72928 3.06299,1.46613 4.59302,2.19299c1.51797,0.72113 3.01724,1.43243 4.50299,2.103c2.86301,1.29218 4.24991,1.85852 5.59332,2.39999c1.30103,0.52438 2.56998,1.01437 3.7995,1.49701c1.19583,0.46942 2.36282,0.92276 3.4845,1.40698c2.17426,0.93863 3.20248,1.46655 4.20401,2.00403c0.98715,0.52975 1.94247,1.08566 2.87399,1.65149c0.91913,0.55829 1.81393,1.12909 2.694,1.6965c1.72513,1.11224 2.56625,1.6633 3.40402,2.19467c0.8266,0.52429 1.64664,1.0351 2.46448,1.52548c0.80756,0.48422 1.61075,0.95383 2.41953,1.3905c1.59061,0.85883 2.39862,1.23495 3.20132,1.60266c0.79736,0.36526 1.59909,0.71014 2.39999,1.04852c0.7991,0.33762 1.60135,0.6658 2.39999,1.00348c1.60272,0.67764 2.40112,1.03616 3.20001,1.40134c0.80115,0.36618 1.60001,0.74133 2.39999,1.116c0.79999,0.37466 1.59811,0.7515 2.39999,1.116c1.59628,0.72562 2.39859,1.06628 3.20132,1.39868c0.80164,0.33194 1.60818,0.65234 2.41953,0.96451c0.814,0.31317 1.63519,0.61942 2.46448,0.91949c1.67908,0.60757 2.53528,0.90234 3.39603,1.19998c0.86191,0.29803 1.72241,0.5914 2.577,0.88052c0.84409,0.28555 1.67453,0.56403 2.487,0.83548c1.55441,0.51938 2.29013,0.76385 2.99863,1c0.68451,0.22818 1.34802,0.44934 1.99353,0.66452c0.63049,0.21014 1.24902,0.41632 1.85852,0.61948c1.20398,0.40134 1.80426,0.60028 2.40265,0.80267c0.59723,0.20197 1.19177,0.40631 1.78052,0.61951c0.58594,0.21216 1.16675,0.42871 1.73547,0.66449c1.125,0.46637 1.66675,0.72989 2.19733,1.00134c0.52515,0.26868 1.03497,0.55298 1.52551,0.85501c0.48419,0.29813 0.95233,0.60837 1.3905,0.94498c0.85626,0.65778 1.2345,1.02908 1.60132,1.39734c0.36182,0.36328 0.70154,0.73883 1.02899,1.116c0.32318,0.37222 0.63171,0.74817 0.93903,1.116c0.60071,0.71896 0.90112,1.06406 1.20264,1.40002c0.29852,0.33267 0.60004,0.65866 0.90002,0.98398c0.29999,0.32535 0.60248,0.65045 0.90002,0.98401c0.60504,0.67819 0.90283,1.03494 1.19733,1.40134c0.29681,0.36926 0.58575,0.74747 0.86096,1.1355c0.27423,0.38669 0.53723,0.77774 0.771,1.18051c0.45703,0.78757 0.63379,1.19611 0.80133,1.59866c0.16547,0.39758 0.3103,0.79919 0.44855,1.19998c0.13776,0.39923 0.26563,0.80115 0.4035,1.20001c0.27728,0.80234 0.43506,1.20139 0.60266,1.59866c0.16809,0.39841 0.3476,0.79214 0.53546,1.18051c0.18689,0.38629 0.38,0.76559 0.58051,1.1355c0.3916,0.72253 0.59705,1.06454 0.79736,1.39865c0.19537,0.32587 0.3902,0.64029 0.58051,0.94501c0.18439,0.29526 0.36481,0.57925 0.53546,0.85501c0.32092,0.51862 0.46582,0.76395 0.59869,1.00131c0.12708,0.22702 0.24316,0.44785 0.34497,0.66452c0.09808,0.20874 0.18646,0.41406 0.255,0.61948c0.13263,0.39734 0.16815,0.60068 0.2027,0.80002c0.03406,0.19638 0.05829,0.39069 0.08398,0.58051c0.02502,0.18484 0.04639,0.36493 0.08398,0.53549c0.07092,0.3215 0.13324,0.46579 0.20001,0.60001c0.06476,0.13016 0.1402,0.25009 0.216,0.3645c0.07349,0.11093 0.15045,0.21429 0.216,0.31949c0.12323,0.19775 0.16565,0.30045 0.20001,0.40268c0.03436,0.10217 0.0592,0.2092 0.08398,0.31949c0.02588,0.11505 0.04974,0.23709 0.08398,0.3645c0.07617,0.28317 0.13611,0.43661 0.20001,0.60001c0.06738,0.17233 0.14221,0.35031 0.216,0.53549c0.0755,0.18948 0.15222,0.38202 0.216,0.58051c0.12714,0.39563 0.16626,0.59784 0.19867,0.79733c0.03186,0.19626 0.0517,0.39047 0.06451,0.58051c0.01245,0.18466 0.01752,0.36362 0.01947,0.53549c0.0036,0.31863 0.00134,0.46384 0.00134,0.60001c0,0.12814 0,0.24933 0,0.3645c0,0.11017 0,0.21631 0,0.31949c0,0.20132 0.00079,0.30136 -0.00134,0.40134c-0.0022,0.10004 -0.00684,0.20026 -0.01947,0.29999c-0.0127,0.10034 -0.03082,0.20175 -0.06451,0.30002c-0.07001,0.20422 -0.133,0.30194 -0.20001,0.39865c-0.06866,0.09909 -0.14807,0.19315 -0.23547,0.28052c-0.08734,0.08734 -0.18024,0.16858 -0.28052,0.23547c-0.1925,0.12845 -0.29779,0.16699 -0.40002,0.20135c-0.10217,0.03433 -0.20917,0.05917 -0.31946,0.08398c-0.11505,0.02588 -0.23706,0.04974 -0.3645,0.08401c-0.2832,0.07617 -0.43701,0.1358 -0.60138,0.20132c-0.17572,0.07004 -0.55042,0.24631 -1.19995,0.51599c-0.99725,0.41403 -1.58466,0.621 -2.64655,0.84152c-0.40704,0.08453 -1.85211,0.24219 -2.40546,0.27182c-1.18335,0.06335 -1.80298,0.06726 -2.43201,0.07468c-1.26398,0.01489 -2.49603,0.01065 -3.08649,0.01065c-1.133,0 -1.68152,0 -2.75751,0c-0.53351,0 -2.15204,0 -2.70636,0c-0.5603,0 -1.68298,0 -2.2373,0c-1.07471,0 -1.58704,0.00372 -2.97717,-0.00015c-0.79303,-0.0022 -1.83527,-0.00876 -2.46051,-0.08517c-1.21021,-0.14789 -2.08795,-0.42154 -2.64685,-0.61917c-1.04553,-0.36966 -1.7348,-0.71484 -2.46698,-0.99548c-1.12177,-0.42996 -1.79578,-0.59912 -2.49017,-0.80002c-1.03238,-0.29868 -1.96362,-0.58478 -2.76001,-0.91064c-0.80902,-0.33102 -1.7374,-0.76224 -2.50266,-1.07602c-0.89572,-0.36728 -1.40265,-0.55856 -1.94934,-0.76001c-1.21576,-0.44797 -2.62039,-0.92288 -3.39551,-1.17465c-0.81815,-0.26575 -1.67737,-0.53448 -2.57248,-0.80399c-0.92319,-0.27795 -1.87228,-0.55313 -2.8425,-0.82202c-0.98309,-0.27246 -2.97668,-0.78943 -3.97702,-1.03131c-0.99567,-0.24075 -1.98709,-0.46832 -2.96848,-0.69601c-0.9696,-0.22498 -1.92508,-0.44629 -2.8605,-0.67801c-0.91656,-0.22705 -2.67407,-0.70575 -3.50684,-0.96881c-0.80991,-0.25586 -1.59103,-0.52933 -2.34601,-0.81451c-0.73767,-0.27866 -1.45245,-0.57047 -2.14801,-0.8685c-0.68314,-0.29272 -2.00491,-0.89355 -2.64899,-1.1955c-0.63593,-0.2981 -1.26099,-0.59799 -1.875,-0.89999c-0.60599,-0.29803 -1.20105,-0.59796 -1.785,-0.90002c-0.57605,-0.29797 -1.69641,-0.89749 -2.23999,-1.20016c-0.53638,-0.29868 -1.06223,-0.60062 -1.57501,-0.91049c-0.50723,-0.30652 -1.00317,-0.62057 -1.48499,-0.9465c-0.47821,-0.32349 -1.40079,-1.00238 -1.84018,-1.36432c-0.87607,-0.72168 -1.28888,-1.11087 -1.70065,-1.49933c-0.82318,-0.77652 -1.21851,-1.18152 -2.42117,-2.37918c-0.40201,-0.40033 -0.80209,-0.80692 -1.64133,-1.60001c-0.427,-0.40353 -0.85074,-0.82645 -2.29169,-2c-0.50284,-0.40952 -1.03903,-0.80637 -1.599,-1.2045c-0.57864,-0.41141 -1.18942,-0.82135 -1.83298,-1.23151c-0.66901,-0.42639 -1.37085,-0.86301 -2.90134,-1.73065c-0.81522,-0.46216 -1.6731,-0.92166 -2.56201,-1.3905c-0.91373,-0.4819 -1.85385,-0.9653 -2.814,-1.45349c-0.97449,-0.49548 -1.96228,-0.99149 -3.95734,-1.98935c-0.99979,-0.50006 -1.99881,-0.99973 -3,-1.491c-0.99881,-0.49008 -1.99768,-0.97226 -3,-1.43698c-0.99774,-0.46262 -1.99002,-0.92557 -4,-1.73868c-0.99472,-0.4024 -1.99429,-0.76749 -2.98651,-1.11899c-0.9798,-0.34711 -1.95068,-0.67355 -2.90549,-0.99301c-0.93619,-0.31323 -1.85626,-0.60638 -3.608,-1.22134c-0.8374,-0.29398 -1.64374,-0.59589 -2.42401,-0.89548c-0.75836,-0.29117 -1.49283,-0.58319 -2.20798,-0.86853c-0.69754,-0.27832 -1.37607,-0.55743 -2.70135,-1.06931c-0.64374,-0.24863 -1.27994,-0.48282 -1.905,-0.71402c-0.61493,-0.22748 -1.22098,-0.45007 -1.815,-0.67798c-0.58597,-0.22482 -1.16742,-0.4418 -2.28,-0.94135c-0.5491,-0.24655 -1.0845,-0.51508 -1.61398,-0.7905c-0.52921,-0.27527 -1.05328,-0.56256 -1.578,-0.85352c-0.52795,-0.29272 -1.05585,-0.59583 -2.14133,-1.18933c-0.55408,-0.30295 -1.12323,-0.60419 -1.7085,-0.909c-0.60269,-0.3139 -1.22858,-0.63348 -1.87952,-0.96298c-0.67807,-0.34323 -1.38776,-0.69919 -2.91199,-1.46133c-0.81955,-0.40979 -1.67624,-0.83826 -2.57101,-1.27652c-0.92654,-0.45383 -1.88525,-0.91547 -2.87698,-1.37549c-1.01556,-0.47107 -2.05243,-0.95325 -4.21869,-1.84799c-1.10541,-0.45657 -2.23792,-0.88727 -3.3855,-1.323c-1.16309,-0.44162 -2.34509,-0.88162 -3.53848,-1.341c-1.2103,-0.46588 -2.44318,-0.92816 -4.90933,-2.00269c-1.26074,-0.54932 -2.51678,-1.14627 -3.77252,-1.76248c-1.25763,-0.61713 -2.50049,-1.25421 -3.72748,-1.89752c-1.2113,-0.6351 -2.39517,-1.26993 -4.66669,-2.50665c-1.08105,-0.58856 -2.12207,-1.16 -3.12448,-1.71451c-0.96692,-0.53488 -1.89749,-1.05429 -2.7915,-1.56149c-0.8623,-0.4892 -1.69449,-0.96066 -3.25067,-1.89066c-0.73779,-0.44092 -1.44379,-0.87817 -2.12399,-1.30502c-0.65845,-0.41321 -1.29303,-0.81943 -1.90802,-1.215c-0.59766,-0.38443 -1.17648,-0.76337 -2.30133,-1.47998c-0.54413,-0.34665 -1.08005,-0.68213 -1.6095,-1.005c-0.5199,-0.31708 -1.03464,-0.62292 -1.54648,-0.91501c-0.50455,-0.2879 -1.00354,-0.57132 -2.01068,-1.07999c-0.49686,-0.25095 -0.9971,-0.48318 -1.491,-0.71402c-0.48743,-0.22781 -0.9689,-0.44943 -1.43701,-0.67798c-0.45923,-0.22421 -0.9147,-0.43619 -1.73865,-0.94135c-0.39792,-0.24399 -0.77011,-0.51627 -1.14151,-0.78601c-0.37393,-0.27158 -0.75049,-0.55298 -1.15051,-0.82199c-0.41425,-0.27856 -0.84787,-0.57693 -1.87466,-1.05865c-0.56506,-0.26511 -1.18933,-0.48914 -1.84799,-0.7095c-0.68533,-0.22931 -1.40097,-0.44 -2.13599,-0.64651c-0.74698,-0.20987 -1.50452,-0.40738 -3.01602,-0.81067c-0.74591,-0.19901 -1.48526,-0.40027 -2.22299,-0.60001c-0.73959,-0.20026 -1.48486,-0.40167 -2.241,-0.59998c-0.7692,-0.20172 -1.55518,-0.40912 -3.20267,-0.80002c-0.86288,-0.20474 -1.75174,-0.40125 -2.65799,-0.60001c-0.91772,-0.20126 -1.84216,-0.39935 -2.76602,-0.59998c-0.91815,-0.19937 -1.82611,-0.39081 -3.57599,-0.80002c-0.83636,-0.19559 -1.64343,-0.39703 -2.42401,-0.60001c-0.75809,-0.19711 -1.49332,-0.39758 -2.20798,-0.59998c-0.69803,-0.19766 -1.3801,-0.39536 -2.70135,-0.80002c-0.64554,-0.19769 -1.27927,-0.39807 -1.90048,-0.60001c-0.60947,-0.19812 -1.20456,-0.39746 -1.78351,-0.59998c-0.56473,-0.19754 -1.11465,-0.38977 -2.14932,-0.80002c-0.49213,-0.19513 -0.96277,-0.39676 -1.41452,-0.60001c-0.43756,-0.19687 -0.85776,-0.39713 -1.26151,-0.59998c-0.39255,-0.19724 -0.77304,-0.39337 -1.49066,-0.80002c-0.34665,-0.19644 -0.67908,-0.39664 -1.00049,-0.591c-0.30923,-0.18698 -0.60312,-0.36819 -0.88351,-0.53699c-0.26331,-0.15851 -0.50247,-0.31711 -0.94931,-0.53867c-0.3566,-0.17682 -1.33569,-0.49664 -1.96933,-0.944c-0.68793,-0.48572 -1.39667,-0.83905 -2.34268,-1.48935c-0.5415,-0.37222 -1.34689,-0.99347 -2.04218,-1.42081c-0.58395,-0.35892 -1.55963,-1.14532 -2.14316,-1.61786c-0.79498,-0.64377 -1.50488,-0.84586 -2.32132,-1.43066c-0.56943,-0.40787 -1.116,-0.948 -2.11017,-1.67798l-0.56851,-0.37802l-0.81433,-0.69565l-0.48001,-0.63733" id="svg_3" stroke-width="2" stroke="#000" fill="none"/>
  <path t="12185,12231,12231,12244,12244,12244,12244,12244,12257,12257,12257,12257,12257,12257,12257,12257,12257,12270,12270,12270,12270,12271,12271,12271,12271,12271,12287,12287,12287,12287,12287,12287,12287,12287,12287,12291,12292,12292,12292,12292,12292,12292,12292,12292,12304,12305,12305,12305,12305,12305,12305,12305,12305,12321,12321,12321,12321,12322,12322,12322,12322,12322,12336,12337,12337,12337,12337,12337,12337,12337,12337,12341,12341,12341,12341,12341,12341,12341,12341,12342,12352,12352,12352,12352,12352,12353,12353,12353,12353,12369,12370,12370,12370,12370,12370,12370,12370,12370,12377,12377,12378,12378,12378,12378,12378,12378,12378,12388,12388,12388,12388,12388,12388,12388,12388,12389,12400,12401,12401,12401,12401,12401,12401,12401,12401,12417,12417,12417,12417,12417,12417,12417,12417,12418,12425,12426,12426,12426,12426,12426,12426,12427,12427,12437,12437,12437,12437,12437,12437,12437,12438,12438,12450,12451,12451,12451,12451,12451,12451,12451,12451,12471,12471,12472,12472,12472,12472,12472,12473,12473,12474,12475,12475,12475,12475,12475,12475,12475,12476,12486,12486,12486,12486,12486,12486,12487,12487,12487,12501,12501,12501,12502,12502,12502,12502,12502,12502,12511,12511,12511,12511,12511,12512,12512,12512,12512,12523,12523,12523,12523,12524,12524,12524,12524,12524,12535,12535,12535,12535,12535,12535,12536,12536,12536,12551,12551,12551,12551,12551,12551,12552,12552,12552,12559,12560,12560,12560,12560,12561,12561,12561,12561,12572,12572,12573,12573,12573,12573,12573,12573,12574,12585,12585,12585,12585,12586,12586,12586,12586,12586,12601,12602,12602,12602,12602,12602,12603,12603,12603,12608,12608,12609,12609,12609,12609,12609,12610,12610,12621,12621,12621,12621,12622,12622,12622,12622,12622,12635,12635,12635,12635,12635,12636,12636,12636,12636,12652,12652,12652,12652,12653,12653,12653,12653,12654,12657,12658,12658,12658,12669,12670,12670,12670,12670,12686,12686,12686,12687,12687,12687,12687,12693,12694,12694,12694,12695,12695,12695,12695,12696,12707,12707,12707,12707,12708,12708,12708,12708,12708,12719,12719,12719,12720,12720,12720,12720,12721,12721,12736,12736,12736,12737,12737,12737,12737,12738,12738,12743,12743,12743,12743,12744,12744,12744,12745,12745,12755,12755,12756,12756,12756,12756,12757,12757,12757,12770,12770,12771,12771,12771,12772,12772,12773,12773,12780,12781,12781,12781,12781,12782,12782,12782,12782,12791,12792,12792,12792,12792,12793,12793,12793,12793,12804,12804,12805,12805,12805,12805,12806,12806,12806,12822,12823,12823,12824,12824,12825,12825,12826,12826,12830,12830,12831,12831,12831,12832,12832,12832,12832,12841,12841,12842,12842,12842,12842,12843,12843,12843,12853,12854,12854,12854,12855,12855,12855,12855,12856,12871,12871,12872,12872,12873,12873,12874,12874,12875,12878,12878,12879,12879,12879,12880,12880,12880,12881,12890,12891,12892,12892,12893,12893,12894,12895,12895,12908,12908,12909,12909,12909,12910,12910,12910,12910,12923,12924,12924,12925,12925,12926,12926,12926,12927,12930,12930,12931,12931,12932,12932,12932,12933,12933,12948,12948,12949,12952,12966,12982,12999,12999,13002,13013,13013,13014,13028,13029,13029,13046,13047,13050,13051,13066" d="m210,273.89999c1.42134,-0.88266 1.78413,-1.48996 2.5435,-2.42233c0.46626,-0.57251 1.06256,-1.20099 1.38583,-1.56833c0.73363,-0.83359 1.5728,-1.84091 2.036,-2.41751c0.49965,-0.62195 1.02818,-1.29605 1.59601,-2.0145c0.60481,-0.76526 1.24796,-1.57684 1.93799,-2.4285c0.72849,-0.89914 2.32951,-2.81937 3.20984,-3.83633c0.92613,-1.06992 1.91753,-2.18542 2.97749,-3.35249c1.12148,-1.2348 2.323,-2.53012 3.60751,-3.8925c1.36194,-1.4445 4.36931,-4.57062 6.02083,-6.26067c1.73499,-1.77545 3.55321,-3.6158 5.44499,-5.50949c1.94478,-1.94673 3.9426,-3.92549 5.985,-5.92351c2.06424,-2.01938 6.25047,-6.04529 8.35468,-8.0305c2.09317,-1.97478 4.18817,-3.92342 6.27899,-5.84999c2.07654,-1.91341 4.14752,-3.80203 6.207,-5.67001c2.04184,-1.85199 6.08029,-5.49075 8.06982,-7.27882c1.96118,-1.76259 3.8884,-3.49112 5.77652,-5.1765c1.83759,-1.64024 3.62057,-3.22502 5.34448,-4.74451c1.65085,-1.45509 4.71967,-4.12802 6.12985,-5.32933c1.32071,-1.12508 2.56879,-2.16891 3.759,-3.1275c1.12082,-0.90269 2.19525,-1.73671 3.237,-2.4975c0.99338,-0.72548 2.9245,-2.0132 3.87567,-2.58316c0.92645,-0.55516 1.84827,-1.06306 2.754,-1.54201c0.88171,-0.46625 1.74936,-0.90131 2.59198,-1.326c0.8187,-0.41263 2.37943,-1.21179 3.11151,-1.61816c0.71188,-0.39516 1.39642,-0.7988 2.05649,-1.21049c0.64893,-0.40475 1.27908,-0.82085 1.8945,-1.24651c0.61261,-0.42371 1.81525,-1.30721 2.41367,-1.76416c0.60294,-0.46039 1.20407,-0.93169 1.81052,-1.40401c0.60989,-0.47502 1.22308,-0.95227 1.8465,-1.422c0.62595,-0.47163 1.9057,-1.39162 2.56467,-1.83116c0.66241,-0.44185 1.34116,-0.8696 2.03549,-1.28551c0.702,-0.4205 1.42276,-0.83 2.1615,-1.23149c0.75061,-0.40793 2.31299,-1.20761 3.12451,-1.60484c0.82843,-0.4055 1.67972,-0.80927 2.54999,-1.22099c0.88974,-0.42094 1.80087,-0.84888 2.73001,-1.293c0.95087,-0.45451 2.91199,-1.41513 3.91934,-1.92867c1.02734,-0.52373 2.0647,-1.06754 3.10797,-1.629c1.05142,-0.56584 2.10095,-1.14536 3.14401,-1.73701c1.03958,-0.58969 3.07437,-1.78709 4.06216,-2.39082c0.97351,-0.595 1.92575,-1.19345 2.8605,-1.78951c0.92157,-0.58765 1.82568,-1.17415 2.71649,-1.75349c0.87851,-0.57133 2.59885,-1.69154 3.44434,-2.2355c0.83316,-0.53603 1.65543,-1.06039 2.46451,-1.575c0.79459,-0.50539 1.57486,-0.99971 2.3385,-1.485c0.74701,-0.47472 2.18585,-1.39441 2.87582,-1.84c0.6727,-0.43443 1.32816,-0.86081 1.97101,-1.27501c0.62982,-0.40579 1.24927,-0.80226 1.86301,-1.185c0.60495,-0.37723 1.80695,-1.09859 2.40881,-1.44c0.59683,-0.33856 1.19403,-0.6631 1.78952,-0.97499c0.58823,-0.30807 1.17334,-0.60269 1.75348,-0.88501c0.57056,-0.27765 1.68958,-0.7971 2.23569,-1.04016c0.53525,-0.23822 1.06369,-0.46582 1.58548,-0.6855c0.51456,-0.21663 1.02502,-0.42609 1.53152,-0.6315c0.50284,-0.20392 1.50412,-0.60545 2.00497,-0.80434c0.50314,-0.19978 1.01166,-0.39932 1.53152,-0.58949c0.52914,-0.19356 1.0741,-0.38069 1.6395,-0.5535c0.58264,-0.17807 1.827,-0.49757 2.49249,-0.63551c0.68652,-0.1423 1.39319,-0.26532 2.112,-0.375c0.72321,-0.11035 1.44751,-0.2043 2.16599,-0.28499c0.70557,-0.07924 2.0578,-0.1982 2.6937,-0.24034c0.60947,-0.04039 1.1973,-0.06934 1.767,-0.09599c0.55563,-0.026 1.10144,-0.04861 1.64099,-0.078c0.53778,-0.0293 1.62335,-0.11043 2.17749,-0.16867c0.56189,-0.05905 1.12717,-0.13022 1.69351,-0.20399c0.56464,-0.07356 1.12384,-0.15062 1.67551,-0.222c0.54034,-0.06992 1.57614,-0.18971 2.0665,-0.23117c0.46973,-0.03972 0.91986,-0.06696 1.34998,-0.08549c0.40991,-0.01767 0.79999,-0.02675 1.17001,-0.03151c0.35001,-0.0045 0.98999,-0.0045 1.28033,-0.0045c0.27234,0 0.52866,0 0.771,0c0.23035,0 0.45068,0 0.66299,0c0.20633,0 0.60901,0 0.80902,0c0.19998,0 0.39999,0 0.59998,0c0.20001,0 0.40002,0 0.60001,0c0.20001,0 0.60001,0 0.80002,0c0.19998,0 0.39999,0 0.59998,0c0.20001,0 0.40002,0 0.60001,0c0.20001,0 0.60001,0 0.79984,0c0.19885,0 0.39566,0 0.58951,0c0.18982,0 0.37466,0 0.5535,0c0.17184,0 0.49051,-0.00053 0.63583,0.00017c0.13733,0.00067 0.2688,0.00227 0.396,0.01051c0.12549,0.00813 0.25119,0.02237 0.37799,0.04649c0.13196,0.0251 0.41492,0.10695 0.56866,0.16434c0.16373,0.06113 0.33231,0.13361 0.50403,0.21449c0.17566,0.08275 0.3504,0.17265 0.52197,0.26851c0.1698,0.09486 0.48773,0.29306 0.63101,0.39549c0.13669,0.09772 0.2623,0.19743 0.375,0.3c0.10724,0.0976 0.20309,0.19746 0.285,0.3c0.078,0.09767 0.19846,0.29849 0.24033,0.39999c0.04071,0.09868 0.06961,0.19974 0.09601,0.3c0.02628,0.09975 0.04883,0.20052 0.078,0.3c0.02948,0.10056 0.11127,0.30153 0.16867,0.40016c0.05984,0.10284 0.13156,0.20416 0.20398,0.3105c0.07492,0.11 0.15231,0.2236 0.22202,0.3465c0.07175,0.12648 0.19128,0.40807 0.23117,0.5645c0.04175,0.16368 0.06769,0.33965 0.08548,0.52501c0.01871,0.19469 0.02692,0.39995 0.03152,0.61499c0.00482,0.22498 0.00449,0.705 0.00449,0.95984c0,0.26384 0,0.53566 0,0.8145c0,0.28484 0,0.57466 0,0.8685c0,0.29683 0.00333,0.89551 -0.00034,1.1955c-0.01102,0.90019 0.02765,1.52602 -0.33301,2.7c-0.19028,0.61938 -0.75177,1.53555 -1.24716,2.15718c-0.2681,0.33643 -1.27921,1.37044 -1.6795,1.73082c-0.86871,0.78206 -1.36301,1.17693 -1.88,1.59468c-0.54294,0.43872 -1.11749,0.89256 -2.35999,1.85066c-0.66382,0.51189 -1.36087,1.04196 -2.08951,1.5945c-0.76068,0.57683 -1.55609,1.17667 -2.38651,1.8015c-0.86588,0.65152 -1.76968,1.32884 -3.69064,2.77066c-1.01953,0.76524 -2.07877,1.55869 -3.16202,2.39851c-1.1196,0.86801 -2.263,1.77901 -3.414,2.7495c-1.18399,0.99831 -2.40363,2.02582 -4.75732,4.35199c-1.22113,1.20685 -2.40585,2.49782 -3.58649,3.82501c-1.19156,1.33948 -2.35635,2.7122 -3.50552,4.095c-1.14178,1.37392 -2.2522,2.74649 -4.40799,5.41333c-1.03491,1.28026 -2.04041,2.52126 -3.0105,3.729c-0.94055,1.17097 -1.84818,2.30913 -2.7135,3.42299c-0.83823,1.07895 -1.65561,2.12085 -3.10934,4.18134c-0.69247,0.98149 -1.32993,1.95486 -1.9335,2.9055c-0.58426,0.9202 -1.13141,1.82222 -1.65448,2.6985c-0.50586,0.84744 -0.9808,1.67496 -1.91202,3.22932c-0.44177,0.73738 -0.87833,1.44456 -1.30948,2.12401c-0.41827,0.65918 -0.8335,1.29456 -1.24652,1.908c-0.40341,0.59918 -0.802,1.18393 -1.61066,2.30133c-0.39642,0.54778 -0.79831,1.08261 -1.20001,1.6095c-0.39832,0.52245 -0.79901,1.03709 -1.19998,1.54649c-0.39902,0.50694 -0.79977,1.00954 -1.60001,2.01067c-0.39987,0.50026 -0.80072,1.00075 -1.20001,1.5045c-0.40073,0.50558 -0.80142,1.01523 -1.19998,1.53151c-0.40146,0.52003 -0.8067,1.04442 -1.60001,2.13066c-0.40375,0.55284 -0.80438,1.12148 -1.20901,1.70401c-0.41406,0.59612 -0.83359,1.21202 -1.26297,1.84799c-0.44333,0.65666 -0.89886,1.33855 -1.86136,2.78133c-0.51007,0.76462 -1.0387,1.55821 -1.59,2.37601c-0.56866,0.84357 -1.1575,1.70908 -1.76999,2.592c-0.62744,0.90446 -1.26852,1.8297 -2.64001,3.69867c-0.70346,0.95865 -1.43167,1.91696 -2.172,2.877c-0.74234,0.96265 -1.49246,1.91643 -2.24399,2.85901c-0.74316,0.93207 -1.47809,1.84644 -2.91733,3.59732c-0.68814,0.83714 -1.36081,1.64423 -2.01901,2.42401c-0.64053,0.75885 -1.27048,1.49458 -1.89301,2.20799c-0.61017,0.69923 -1.21118,1.38551 -2.42133,2.70134c-0.59616,0.64822 -1.19617,1.28107 -1.7955,1.9005c-0.5914,0.61122 -1.18109,1.20624 -1.76849,1.78349c-0.57632,0.56639 -1.1424,1.11966 -2.26935,2.14934c-0.54123,0.49449 -1.07855,0.96458 -1.6095,1.41451c-0.51846,0.43933 -1.03363,0.85971 -1.54648,1.26151c-0.50357,0.39453 -1.00235,0.77911 -2.01068,1.49066c-0.49628,0.35019 -0.99734,0.68268 -1.491,1.01401c-0.48767,0.32733 -0.96982,0.64914 -1.43701,0.978c-0.46011,0.32388 -0.9198,0.6366 -1.73865,1.34134c-0.39948,0.34378 -0.76532,0.71085 -1.1145,1.077c-0.34009,0.35663 -0.6568,0.71423 -0.96152,1.05899c-0.29163,0.32993 -0.55545,0.65607 -1.09067,1.19733c-0.23895,0.24164 -0.47665,0.44815 -0.70499,0.62851c-0.21198,0.16742 -0.4187,0.31097 -0.61499,0.43948c-0.18384,0.12036 -0.36374,0.22229 -0.68002,0.43201c-0.14709,0.09756 -0.28418,0.19943 -0.414,0.3045c-0.12888,0.10428 -0.25366,0.21524 -0.37799,0.33151c-0.12836,0.12006 -0.259,0.24899 -0.54132,0.53067c-0.15485,0.15448 -0.31735,0.31732 -0.48602,0.48599c-0.17267,0.17267 -0.34732,0.34732 -0.52197,0.522c-0.17267,0.17267 -0.34146,0.34122 -0.65869,0.65866c-0.14505,0.14511 -0.28088,0.28049 -0.405,0.40948c-0.11581,0.12039 -0.22202,0.23465 -0.315,0.34653c-0.08691,0.10458 -0.1716,0.20285 -0.28,0.41064c-0.05075,0.09729 0.19858,0.79776 -0.20267,1.564c-0.39713,0.75836 -0.98285,1.20981 -1.31665,2.08868c-0.26791,0.70541 -0.56824,1.73764 -0.86868,2.66901c-0.23703,0.73477 -0.52975,1.35855 -0.69598,2.36099c-0.13141,0.79239 -0.11322,1.63998 -0.78799,2.50751c-0.49829,0.64063 -1.18484,1.45798 -1.37735,2.24048l-0.56467,0.61752" id="svg_4" stroke-width="2" stroke="#000" fill="none"/>
  <path t="13990,14062,14073,14074,14090,14090,14090,14098,14098,14098,14098,14110,14110,14110,14110,14128,14128,14128,14128,14143,14143,14143,14147,14147,14147,14160,14160,14160,14177,14178,14185,14185,14196,14196,14197,14197,14213,14213,14213,14213,14213,14230,14230,14230,14230,14230,14233,14233,14233,14233,14245,14246,14246,14261,14261,14281,14282,14282,14294,14319,14319,14440,14476,14476,14506,14526,14526,14526,14530,14530,14530,14547,14548,14567,14600,14624,14637,14637,14656,14657,14657,14675,14675,14675,14696,14696" d="m76,303.89999c1.75716,0 2.66167,0 3.46167,0c0.95983,0 1.77433,0 2.64283,0c0.8955,0 1.8,0 2.7315,0c0.64934,0 1.6855,0 2.42117,0c1.1535,0 1.94417,0 3.1425,0c0.79134,0 1.55867,0 2.286,0c0.981,0 2.05628,0.02533 2.7625,-0.05716c0.98042,-0.1145 1.783,-0.38797 2.65633,-0.59018c0.89104,-0.2063 1.78904,-0.27637 2.6235,-0.37799c0.94228,-0.11475 1.7098,-0.58505 2.59367,-0.85333c0.69868,-0.21207 1.84629,-0.28256 2.6445,-0.474c0.59733,-0.14328 1.24589,-0.34497 2.77667,-0.52582c0.42508,-0.0502 1.31831,-0.09354 2.2425,-0.11084c0.93188,-0.01743 1.848,-0.01068 2.72933,-0.01068c0.84933,0 1.67467,0 2.484,0c1.20116,0 1.99683,0 2.78049,0c0.76367,0 1.85417,0 2.85467,0c0.8835,0 1.83283,0 2.66617,0c1.04266,0 1.75066,0 2.49467,0c1.03466,0 2.0062,0.0372 2.80534,0c0.91763,-0.04272 1.2,-1 1.2,-1.79999c0,-0.87201 0,-1.74301 0,-2.47202c0,-0.83698 0,-2.02765 0,-2.90665c0,-0.80701 0,-1.67834 0,-2.61868c0,-0.90265 0,-1.80267 0,-2.61331c0,-0.91086 0,-1.80002 0,-2.78952c0,-0.82065 -0.01126,-1.48526 0.00133,-2.48383c0.0103,-0.81619 0.084,-1.63199 0.28267,-2.62933l0.29066,-0.84" id="svg_5" stroke-width="2" stroke="#000" fill="none"/>
  <path t="16224,16285,16297,16309,16325,16852" d="m169,282.89999c-2.55333,1.02533 -2.9955,1.7045 -3,2.60001l0,0.92084l0.00267,0.95651" id="svg_6" stroke-width="2" stroke="#000" fill="none"/>
  <path t="17098,17164,17180,17180,17195,17214,17214,17249,17249,17249,17279,17279,17297,17297,17300,17300,17300,17317,17317,17334,17334,17383,17383,17397,17416,17416,17436,17436,17453,17454,17457,17475,17491,17494,17516,17516,17519,17519,17539,17560,17560,17591,17591,17611,17640,17662,17680,17701,17701,17720,17721,17721,17737,17738,17757,17757,17757,17776,17794,17795,17809,17810,17824,17858" d="m162,283.89999c-1.7,0.11435 -2.28036,0.72232 -2.8,1.51733c-0.48207,0.73752 -1.25131,1.43945 -1.7,2.02435c-0.5699,0.74292 -0.82159,1.45474 -1.064,2.20764c-0.35292,1.09622 -0.43375,1.99884 -0.436,2.91235c-0.00197,0.79999 0,1.75949 0,2.55298c0,0.77551 0,1.81601 0,2.668c0,0.95334 0,1.71869 0,2.71286c0,0.74731 -0.20239,1.87265 0.28667,2.60315c0.44025,0.65759 1.54875,0.78217 2.31467,0.80002c0.9939,0.02316 1.7415,0.00131 2.76266,0.00131c0.936,0 1.836,0 2.73601,0c0.89999,0 1.6701,-0.02051 2.55266,-0.35266c0.70622,-0.26581 1.74481,-0.547 2.66867,-0.86884c0.70045,-0.24402 1.60706,-0.67868 2.13699,-1.2785c0.61826,-0.6998 1.2122,-1.30685 1.52084,-2.02081c0.34897,-0.80722 0.04907,-1.797 -0.0645,-2.53519c-0.15443,-1.00381 -0.34837,-1.6181 -0.56201,-2.586c-0.24095,-1.09161 -0.27609,-1.87115 -0.79533,-2.67932c-0.4747,-0.73883 -1.02856,-1.17343 -1.5365,-2.15784c-0.41524,-0.80475 -0.9075,-1.32083 -1.83549,-1.92084l-0.616,-0.39999l-0.584,-0.76401l-0.68983,-0.43149" id="svg_7" stroke-width="2" stroke="#000" fill="none"/>
  <path t="18313,18347,18359,18379,18398,18421,18433,18447,18469,18469,18493,18493,18516,18516,18532,18532,18567,18584,18599,18599,18617,18617,18634,18634,18634,18634,18634,18650,18650,18650,18650,18650,18650,18654,18654,18654,18670,18670,18670,18686,18686,18689,18713,18750,18811,18832,18835,18848,18867,18867,18881,18884,18884,18900,18900,18921,18940,18940,18940,18959,18959,18979,18994,19031,19054,19057,19080,19101,19105,19119,19140" d="m184,288.89999c0,1.80002 0,2.70001 0,3.60001c0,0.89999 0.00009,1.79999 0,2.70001c-0.00009,0.79999 -0.2287,1.66422 -0.57466,2.336c-0.41887,0.81335 -0.42308,1.76849 -0.42534,2.76266c-0.00174,0.76532 -0.00439,1.71732 0,2.48532c0.00534,0.93073 0.19864,1.99353 1.16667,2.116c0.65346,0.08267 1.66666,0 2.39583,0c1.10417,0 1.77925,0.01059 2.5815,-0.02133c0.89938,-0.0358 1.38478,-0.02951 2.856,-0.31198c1.00522,-0.19299 1.49286,-0.35773 2.4375,-0.6875c0.8974,-0.31329 1.31589,-0.47501 2.70784,-1.09518c0.56125,-0.25006 1.30824,-0.61993 2.27583,-1.20532c0.53261,-0.32224 1.34004,-0.82266 2.2455,-1.51199c0.66806,-0.50861 1.00659,-1.39447 1.55466,-2.04535c0.55763,-0.66226 0.77867,-1.32132 0.77867,-2.22134c0,-0.89999 -0.20856,-1.64337 -1,-2.06665c-0.74878,-0.40048 -1.53592,-0.78464 -2.32133,-1.05466c-0.87341,-0.30029 -1.65385,-0.68253 -2.47733,-0.77734c-0.87065,-0.10025 -1.74715,-0.4386 -2.45201,-0.85199c-0.74736,-0.43829 -1.6347,-0.8353 -2.44032,-1.19751c-0.84514,-0.37997 -1.60765,-0.92319 -2.509,-0.95184c-0.89938,-0.02859 -1.40898,-0.50717 -2.15717,-0.94284c-0.72896,-0.42447 -1.59016,-0.40982 -2.16367,-1.03632l-0.87917,-0.03149" id="svg_8" stroke-width="2" stroke="#000" fill="none"/>
  <path t="19680,19750,19763,19784,19788,19800,19819,19819,19825,19825,19836,19851,19867,19873,19885,19885,19902,19902,19903,19926,19926,19926,19926,19944,19944,19944,19944,19946,19946,19961,19961,19983,20010,20031,20055,20075,20093,20108,20108,20129,20129,20153,20168,20188,20205,20220,20221,20227,20241,20242,20256,20256,20273,20274,20290,20314,20326,20326,20339,20356,20356,20362,20377" d="m213,288.89999c-0.87866,1.22134 -1.61021,1.73788 -1.964,2.436c-0.3909,0.77136 -0.036,1.76535 -0.036,2.73068c0,0.83331 0,1.81183 0,2.52881c0,0.90451 -0.15903,1.82059 0.01067,2.7045c0.18182,0.94711 0.94612,1.65134 1.53101,2.10001c0.74292,0.56992 1.46843,0.81165 2.27966,1.10001c1.17279,0.4169 1.774,0.61914 2.69949,0.87918c0.63255,0.17773 1.64342,0.38138 2.72284,0.46365c0.71352,0.05438 1.38933,0.0549 2.492,0.05716c0.86833,0.00177 1.91699,0 2.61166,0c1.01666,0 1.96877,0.168 2.85133,-0.00131c0.75648,-0.14514 0.80133,-1.19867 0.80133,-2.09869c0,-0.89999 0,-1.65717 0,-2.55264c0,-0.86334 0,-1.82651 0,-2.74734c0,-0.89999 0.1889,-1.86929 -0.2215,-2.70001c-0.34116,-0.69055 -1.06839,-1.21024 -1.7785,-1.89999c-0.6272,-0.60919 -1.32291,-1.09735 -2,-1.5c-0.83528,-0.49673 -1.52451,-1.23889 -2.39999,-1.46399c-0.87254,-0.22433 -1.63409,-0.36719 -2.40001,-0.75201c-0.78592,-0.39487 -1.68399,-0.284 -2.54733,-0.284l-1.01666,0l-0.83734,0" id="svg_9" stroke-width="2" stroke="#000" fill="none"/>
  <path t="20838,20875,20887,20906,20911,20924,20924,20942,20942,20948,20960,20983,20997,20997,21008,21008,21022,21022,21041,21041,21041,21044,21044,21057,21057,21081,21093,21118,21155,21179,21194,21194,21195,21210,21210,21210,21227,21227,21228,21228,21230,21230,21230,21246,21246,21246,21263,21264,21266,21349,21362,21375,21391,21391,21409,21411,21435,21435,21447,21460,21460,21475,21491,21491,21496,21496,21521,21521,21544" d="m254,287.89999c-1.7,0 -2.60002,-0.00528 -3.5,0c-0.91071,0.00534 -1.81851,0.22833 -2.5,0.5c-0.97473,0.38855 -1.75578,0.42941 -2.64816,0.50452c-1.02771,0.08652 -1.56799,0.72498 -2.35184,1.16217c-0.65187,0.36359 -1.41658,1.07968 -1.71466,1.80399c-0.40491,0.98386 -0.27666,1.81464 -0.28534,2.86267c-0.00584,0.70499 0.0712,1.55798 -0.35716,2.414c-0.34738,0.69421 -1.09276,1.55258 -1.3575,2.26868c-0.34636,0.93686 -0.28543,1.784 -0.28534,2.68399c0.00009,0.89984 0.28357,1.75726 1.16667,1.79999c0.87398,0.04227 1.51999,0 2.51999,0c0.85501,0 1.8,0 2.83467,0c0.73134,0 1.47867,0 2.226,0c1.431,0 2.091,0 3.006,0c1.08,0 1.78951,0 2.64217,0c1.00317,0 1.76851,0.00006 2.71916,0c0.98517,-0.00009 1.82446,-0.21524 1.88535,-1.10001c0.0618,-0.89786 0,-1.69998 0,-2.59998c0,-0.936 0.00217,-1.784 0,-2.64734c-0.00226,-0.89551 -0.26349,-1.87216 -0.80133,-2.45267c-0.57605,-0.62173 -1.29756,-1.30115 -1.89867,-1.89999c-0.60339,-0.60114 -1.18533,-1.10001 -1.95267,-1.60001l-0.69467,-0.39999l-0.89099,-0.60001" id="svg_10" stroke-width="2" stroke="#000" fill="none"/>
  <path t="21962,22033,22057,22095,22144,22144,22166,22180,22196,22213,22213,22217,22217,22230,22231,22247,22247,22247,22263,22263,22266,22266,22279,22280,22296,22311,22311,22315,22315,22328,22329,22364,22364,22378,22378,22412,22430,22446,22448,22460,22476,22485,22485,22497,22497,22510,22511,22511,22527,22527,22527,22527,22527,22533,22534,22534,22534,22534,22547,22547,22547,22571,22571,22571" d="m270,293.89999c0,1.80002 -0.31448,2.38715 -0.83334,3.16669c-0.47086,0.70743 -0.18466,1.63351 -0.16666,2.53333c0.01801,0.90054 0.35373,1.83566 1.20132,2.216c0.64261,0.28836 1.61615,0.56381 2.39999,0.79999c0.98477,0.29672 1.63464,0.27866 2.81985,0.284c0.79349,0.00357 1.569,0 2.6095,0c0.85199,0 1.6265,0 2.57065,0c0.99417,0 1.74152,0 2.7627,0c0.83865,0 1.60666,0 2.64133,0c0.74399,0 1.88388,0.1575 2.60931,-0.07199c0.95428,-0.30191 1.31592,-1.02554 2.21869,-1.59467c0.67648,-0.42645 1.1084,-1.03973 0.66666,-1.83334c-0.44388,-0.79742 -0.88907,-1.51886 -1.52084,-2c-0.65051,-0.49542 -1.51648,-0.82184 -2.14716,-1.216c-0.79068,-0.49417 -1.52005,-0.27283 -2.51999,-0.28531c-0.87466,-0.01093 -1.53348,-0.03186 -2.64536,-0.16534c-0.83835,-0.10065 -1.72903,-0.26395 -2.65198,-0.444c-0.46707,-0.09113 -1.8493,-0.38385 -2.72668,-0.58932c-0.83188,-0.19482 -1.6102,-0.38345 -2.31601,-0.60001c-1.21167,-0.37177 -1.95114,-0.70001 -2.65466,-1l-1,-0.39868l-0.79648,-0.28049l-0.7515,-0.2355" id="svg_11" stroke-width="2" stroke="#000" fill="none"/>
  <path t="23318,23363,23376,23376,23388,23437,23450,23463,23480,23480,23486,23486,23499,23500,23515,23522,23535,23609,23622,23636,23636,23651,23651,23658,23658,23669,23669,23669,23683,23683,23700,23707,23708,23719,23734,23750,23767,23792,23792,23852,23876,23889,23904,23919,23919,23926,23926,23926,23941,23941,23941,23959,23959,23974,23974,23976,23977,24023" d="m314,294.89999c-1.75717,0.99551 -2.71753,0.75323 -3.43066,1.08533c-0.82233,0.38297 -1.32184,1.22705 -1.85333,1.83069c-0.57559,0.65372 -0.94434,1.4025 -1.216,2.08398c-0.38855,0.97473 -0.45801,1.75385 -0.50449,2.65268c-0.04477,0.86597 -0.61279,1.62543 -0.91019,2.54733c-0.27756,0.86038 -0.51959,2.03241 0.08133,2.63333c0.60092,0.60092 1.59052,0.16666 2.49051,0.16666c0.74734,0 1.74417,0 2.57883,0c1.18518,0 1.97867,0 2.75418,0c1.03915,0 1.80716,0 2.64581,0c1.01669,0 1.71133,0 2.72803,0c0.93597,0 1.836,0 2.73599,0c0.89999,0 1.87952,0.46558 2.61465,-0.08533c0.61639,-0.46191 0.40106,-1.62634 0.24933,-2.55066c-0.14346,-0.87384 -0.57251,-1.60117 -1.13065,-2.36401c-0.45596,-0.62317 -1.0437,-1.17188 -1.66669,-2c-0.57541,-0.76486 -0.85358,-1.4108 -1.65067,-2.116c-0.6427,-0.56863 -1.49448,-1.20517 -1.99515,-1.86316l-0.52084,-0.6875l-0.70001,-0.3815l-0.77914,-0.47266" id="svg_12" stroke-width="2" stroke="#000" fill="none"/>
  <path t="24516,24586,24611,24627,24650,24668,24668,24671,24671,24696,24712,24733,24795,24813,24814,24832,24833,24853,24853,24854,24854,24857,24857,24857,24880,24880,24880,24917,24917,24957,24988,24992,25075,25103,25103,25107,25111,25111,25134,25135,25138,25138,25139,25164,25165,25165,25206,25206,25207,25216,25245,25245,25261,25279" d="m338,295.89999c-0.99551,1.70001 -0.99472,2.60004 -1,3.5c-0.00534,0.91074 -0.22833,1.81851 -0.5,2.5c-0.38852,0.97458 -0.49933,1.79868 -0.5,2.70001c-0.00067,0.89999 -0.22995,1.83551 0.02133,2.69998c0.22806,0.78452 1.12656,1.28751 2.09866,1.51468c0.78702,0.1839 1.86551,0.08533 2.59518,0.08533c0.80566,0 1.63132,0 2.78482,0c0.64532,0 1.45834,0 2.66666,0c0.78152,0 1.57202,0 2.5,0c0.91202,0 1.73825,-0.11121 2.39468,-0.57465c0.7229,-0.51038 1.81573,-0.61911 1.93866,-1.42535c0.12057,-0.79086 0.02942,-1.75781 -0.00449,-2.65717c-0.02823,-0.74863 -0.25436,-1.75412 -0.60617,-2.54282c-0.36246,-0.81256 -0.78918,-1.60007 -1.08936,-2.20001c-0.50107,-1.00146 -0.80777,-1.62814 -1.18533,-2.28534c-0.57889,-1.00763 -1.08563,-1.79565 -1.46198,-2.24765c-0.715,-0.85876 -1.65268,-1.23367 -2.35269,-1.71436l-0.79999,-0.33182l-0.89999,-0.02084" id="svg_13" stroke-width="2" stroke="#000" fill="none"/>
  <path t="26090,26196,26209,26231,26231,26234,26234,26250,26250,26267,26285,26302,26302,26318,26338,26356,26359,26381,26419,26441,26447,26463,26463,26485,26495,26495,26513,26517,26547,26566,26567,26591,26601,26601,26674,26701,26718,26718,26723,26723,26738,26738,26751,26751,26766,26766,26771,26784,26831" d="m376,297.89999c-1.70001,0.05716 -2.48761,0.53387 -3.20132,1.20001c-0.54654,0.51013 -1.29147,0.9852 -1.97333,1.39999c-0.95273,0.57959 -1.58319,1.04327 -2.21469,1.79999c-0.54718,0.65567 -0.61066,1.60001 -0.61066,2.40002c0,0.89999 0,1.79999 0,2.69998c0,0.89999 -0.19806,1.82242 0.00134,2.69867c0.18304,0.80429 1.29865,0.80133 2.19998,0.80133c0.68402,0 1.62402,0 2.63202,0c0.86215,0 1.76666,0 2.66666,0c0.91068,0 1.82132,0 2.5,0c0.97849,0 2.00183,0.05389 2.79999,0c0.84863,-0.05728 1.18201,-0.86084 1.20001,-1.83331c0.01468,-0.7919 0.00052,-1.82385 0,-2.57117c-0.00067,-0.99417 0.0842,-1.79926 -0.284,-2.71152c-0.3298,-0.81714 -0.66333,-1.53665 -0.80002,-2.39999l-0.34131,-0.84799l-0.49066,-0.83469l-0.43668,-0.74866" id="svg_14" stroke-width="2" stroke="#000" fill="none"/>
  <path t="27297,27369,27405,27442,27455,27455,27455,27471,27471,27472,27480,27500,27501,27501,27505,27505,27520,27541,27579,27590,27590,27606,27624,27630,27630,27649,27652,27653,27676,27677,27689,27708,27761,27791,27824,27845,27858,27858,27858,27872,27872,27887,27887,27909,27910,27925,27925,27925,27944,27967" d="m398,297.89999c-1.70001,0 -2.69803,-0.11536 -3.39999,0.44669c-0.7316,0.58578 -1.06241,1.37524 -1.31467,2.23999c-0.28448,0.97525 -0.27017,1.79239 -0.284,2.54401c-0.02039,1.10788 -0.17477,1.93338 -0.50134,2.79016c-0.22061,0.57877 -0.47009,1.57343 -0.49866,2.49384c-0.02991,0.96405 -0.11795,1.89349 0.00314,2.78534c0.11151,0.82123 0.76514,1.5509 1.69553,1.6955c0.8111,0.12607 1.79803,-0.10315 2.64731,0.06165c0.92575,0.17963 1.64001,0.85489 2.40985,0.93835c0.89029,0.09653 1.75882,0.00449 2.72198,0.00449c0.92084,0 2.08975,0.25464 2.48483,-0.436c0.42938,-0.75061 0.0437,-1.76535 0.03601,-2.73065c-0.00534,-0.6694 -0.04001,-1.44791 -0.35266,-2.43335c-0.25784,-0.81262 -0.595,-1.79761 -0.63666,-2.59998c-0.05185,-0.99872 -0.01068,-1.80002 -0.01068,-2.80002c0,-0.78934 0,-1.51465 -0.03601,-2.58932l-0.38931,-0.81067" id="svg_15" stroke-width="2" stroke="#000" fill="none"/>
  <path t="30080,30140,30212,30228,30245,30251,30251,30251,30268,30268,30268,30288,30288,30288,30325,30336,30349,30349,30363,30383,30386,30386,30400,30400,30400,30414,30414,30414,30414,30430,30431,30435,30435,30451,30507,30529,30534,30534,30547,30563,30580,30596,30596,30613,30628,30643,30653,30653,30664,30664,30664,30677,30678,30678,30694,30694,30694,30701,30725,30726" d="m420,302.89999c-1.70001,0 -2.65149,0.05209 -3.08401,0.80133c-0.42456,0.73547 -0.79587,1.52664 -0.87997,2.46002c-0.07098,0.78793 -0.03601,1.81732 -0.03601,2.51334c0,0.90933 0,1.90799 0,2.7045c0,0.7515 -0.12613,1.85764 0.00449,2.82083c0.11136,0.82123 0.76514,1.5509 1.69553,1.6955c0.8111,0.12607 1.78665,0.00449 2.54666,0.00449c0.91998,0 1.71048,0 2.564,0c1.18933,0 2.08484,0 2.66849,0c0.83551,0 2.06369,0 2.71017,0c1.0105,0 1.78983,0 2.92532,0c0.88535,0 1.80161,-0.1543 1.88535,-1c0.07883,-0.79608 0,-1.69998 0,-2.60001c0,-0.92081 0,-1.88397 0,-2.57465c0,-1.06818 0.08868,-1.92975 0,-2.82535c-0.08374,-0.84567 -0.82672,-1.02258 -1.76935,-1.28534c-0.75861,-0.21146 -1.55481,-0.4993 -2.54666,-0.91464c-0.68893,-0.28851 -1.35999,-0.62067 -2.36667,-0.99869c-0.79053,-0.29684 -1.54797,-0.51599 -2.65598,-0.776l-0.98267,-0.24664l-0.67868,-0.27869" id="svg_16" stroke-width="2" stroke="#000" fill="none"/>
  <path t="31216,31250,31262,31299,31299,31324,31324,31348,31365,31365,31383,31386,31386,31411,31424,31424,31439,31471,31485,31500,31500,31517,31517,31520,31520,31520,31520,31533,31533,31551,31557,31557,31569,31569,31594,31642,31655,31667,31681,31682,31690,31690,31690,31714,31714,31739,31763,31781,31788,31800,31800,31816,31816" d="m448,302.89999c-2.58932,0 -3.52103,-0.01669 -4.32132,0.00018c-0.85388,0.01801 -1.93927,0.1521 -2.39203,0.80115c-0.50983,0.73083 -0.60529,1.66891 -0.93399,2.54602c-0.3309,0.883 -0.35266,1.75284 -0.35266,2.53799c0,0.94 0,1.948 0,2.70401c0,0.91064 -0.12512,2.11298 0.54166,2.38983c0.87173,0.36194 1.6691,0.00845 2.65851,0.021c0.82086,0.01041 1.96942,0.15448 2.7525,0.35248c0.54953,0.13895 1.35211,0.43567 2.58566,0.59018c0.79553,0.09964 1.70901,0.05716 2.62833,0.05716c0.83334,0 1.81183,0 2.63202,0c0.90134,0 1.97006,0.0582 2.19684,-0.7045c0.26547,-0.89285 -0.03625,-1.78525 0.0405,-2.54218c0.11993,-1.18295 0.32001,-1.70053 0.53867,-2.49197c0.30859,-1.11703 0.42307,-1.95233 0.42532,-2.86136c0.00223,-0.89999 0.13763,-1.96021 -0.54166,-2.39999c-0.82651,-0.5351 -1.633,-0.61066 -2.43683,-1.10001l-0.61084,-0.5" id="svg_17" stroke-width="2" stroke="#000" fill="none"/>
 </g>
 <g display="none">
  <title>muse_image</title>
  <image xlink:href="http://farm2.static.flickr.com/1387/531326560_e50926d902.jpg" id="muse" height="480" width="640" y="0" x="0"/>
 </g>
 <g display="none">
  <title>bbox</title>
  <rect stroke="#f00" fill="none" stroke-width="3" height="139.52" width="496.64" y="243.2" x="80.64" id="bbox"/>
 </g>
</svg>
