<svg width="640" height="480" xmlns="http://www.w3.org/2000/svg" xmlns:svg="http://www.w3.org/2000/svg" xmlns:xlink="http://www.w3.org/1999/xlink">
 <!-- Sketchy ANNOTATION
  ImageNet ID: n02691156_10151
  URL: http://farm3.static.flickr.com/2083/2212246975_4a92fd2c73.jpg
  Image Width: 500
  Image Height: 375
  BBox X: 14
  BBox Y: 92
  BBox Width: 486
  BBox Height: 193
  Exposure: 2000ms
  Synset Label: airplane
  Synset ID: n02691156
  Worker Tag: airplane in the hangar
  Sanity Check: 
   Saved
  Comment: 
   {}
  Worker ID: A1P7U2ULSAE7YL
  Assignment ID: 3TXMY6UCAEODU6U3LAQYZ555XX4CQT
  HIT ID: 39I4RL8QGJHVZPKRJ3SKI96V9424HM
  Work Time: 79s
  Worker Score: 0.7857
 END ANNOTATION -->
 <g display="inline">
  <title>Layer 1</title>
  <path t="0,208,208,232,240,248,256,279,280,288,296,312,328,336,360,384,384,408,416,424,440,440,456,464,464,472,480,496,496,504,504,520,528,528,552,552,560,569,569,569,576,585,592,600,608,624,624,632,632,640,648,656,656,664,672,672,680,688,696,705,712,712,712,722,722,728,738,738,744,753,760,760,768,768,776,785,792,792,800,816,824,824,840,840,848,856,864,880,880,888,888,905,922,922,938,938,954,968,968,985,1000,1000,1016,1024,1031,1040,1047,1048,1057,1064,1072,1080,1096,1106,1128,1128,1144,1152,1152,1160,1176,1185,1202,1202,1208,1216,1232,1248,1258,1272,1280,1288,1291,1305,1312,1328,1328,1338,1344,1344,1355,1360,1360,1360,1368,1368,1377,1385,1385,1392,1392,1408,1408,1416,1425,1425,1433,1441,1441,1448,1448,1456,1464,1473,1473,1480,1488,1488,1496,1512,1521,1521,1537,1559,1576,1600,1616,1640,1640,1648,1656,1664,1680,1696,1696,1705,1728,1744,1759,1760,1776,1791,1801,1808,1808,1823,1832,1840,1840,1856,1864,1887,1904,1912,1935,1959,1973,1975,1984,2000,2023,2040,2056,2111,2120,2152,2167,2168,2183,2200,2208,2217,2224,2233,2240,2248,2279,2280,2288,2304,2304,2304,2312,2312,2320,2328,2337,2337,2354,2354,2360,2360,2370,2376,2386,2392,2392,2400,2408,2417,2425,2440,2441,2448,2456,2472,2473,2496,2505,2506,2520,2539,2544,2553,2560,2572,2573,2589,2592,2592,2608,2608,2624,2633,2650,2650,2656,2679,2690,2711,2735,2748,2752,2799,2800,2815,2848,2871,2872,2895,2911,2935,2959,2975,2988,2992,2992,3000,3002,3002,3022,3025,3033,3033,3041,3056,3064,3064,3073,3073,3080,3080,3088,3088,3096,3096,3111,3112,3121,3121,3121,3128,3128,3128,3144,3153,3153,3153,3160,3160,3172,3172,3176,3176,3187,3187,3192,3192,3205,3208,3208,3216,3224,3225,3225,3232,3233,3233,3241,3249,3249,3256,3256,3264,3264,3264,3273,3273,3280,3288,3288,3296,3296,3296,3305,3312,3312,3322,3322,3328,3328,3328,3328,3335,3336,3344,3344,3344,3352,3352,3352,3360,3360,3371,3372,3376,3376,3386,3386,3386,3392,3392,3392,3404,3404,3408,3408,3408,3408,3418,3418,3418,3419,3425,3426,3432,3432,3433,3441,3441,3442,3449,3449,3449,3456,3457,3457,3466,3466,3472,3473,3473,3480,3480,3480,3488,3489,3489,3496,3503,3504,3504,3512,3512,3512,3521,3521,3528,3528,3538,3539,3543,3544,3555,3555,3560,3560,3560,3569,3569,3569,3576,3576,3585,3585,3592,3592,3592,3592,3604,3605,3605,3608,3609,3615,3616,3624,3625,3625,3632,3632,3633,3641,3641,3649,3649,3657,3657,3665,3665,3672,3680,3680,3689,3689,3696,3696,3696,3705,3706,3712,3712,3712,3721,3722,3728,3728,3738,3738,3744,3744,3756,3756,3760,3760,3773,3773,3776,3788,3792,3792,3802,3808,3809,3821,3821,3824,3832,3841,3841,3841,3848,3849,3857,3857,3858,3865,3873,3880,3880,3890,3890,3891,3896,3905,3912,3927,3928,3936,3937,3944,3952,3968,3969,3976,3988,3988,3991,4002,4002,4008,4008,4024,4032,4032,4039,4041,4048,4048,4057,4065,4065,4072,4082,4089,4089,4096,4096,4096,4105,4112,4119,4120,4128,4141,4145,4145,4155,4160,4160,4169,4169,4176,4176,4185,4192,4200,4208,4208,4208,4220,4225,4238,4240,4241,4248,4264,4265,4273,4281,4288,4296,4305,4305,4312,4327,4328,4337,4343,4354,4359,4360,4375,4387,4388,4392,4401,4401,4420,4440,4441,4463,4479,4488,4511,4520,4521,4537,4559,4570,4591,4608,4631,4647,4663,4664,4673,4688,4711,4722,4736,4753,4776,4792,4793,4808,4823,4826,4840,4855,4872,4881,4890,4897,4904,4927,4939,4943,4956,4960,4969,4976,4977,4992,5000,5000,5024,5032,5040,5048,5057,5057,5062,5074,5089,5097,5107,5135,5146,5159,5160,5173,5176,5191,5207,5208,5220,5225,5231,5257,5274,5274,5282,5299,5315,5324,5328,5341,5344,5359,5368,5399,5420,5434,5440,5442,5450,5464,5473,5488,5489,5505,5506,5514,5523,5529,5544,5554,5573,5574,5591,5595,5613,5632,5680,5681,5696,5708,5708,5729,5737,5745,5768,5784,5784,5792,5816,5825,5841,5864,5864,5873,5881,5889,5905,5929,5944,5960,5984,5995,6017,6064,6088,6095,6098,6129,6152,6164,6185,6193,6206,6225,6238,6264,6288,6296,6336,6352,6376,6400,6411,6417,6456,6488,6496,6497,6528,6544,6553,6561,6577,6594,6640,6664,6680,6712,6728,6745,6756,6761,6808,6864,6896,6897,6912,6944,6961,6972,6977,6992,7008,7025,7041,7057,7073,7092,7097,7113,7123,7168,7176,7192,7201,7221,7234,7256,7272,7297,7312,7344,7376,7400,7456,7457,7480,7496,7552,7568,7578,7603,7603,7610,7618,7641,7657,7667,7675,7680,7720,7737,7760,7760,7784,7816,7840,7864,7880,7889,7889,7920" d="m312.51135,210.09091c-1,0 -1.79999,0 -2.69998,0c-0.89999,0 -1.80002,0 -2.68933,0c-0.944,0 -1.80939,0.15569 -2.724,-0.00133c-0.83871,-0.14398 -1.24252,-0.97008 -2.18668,-0.99867c-0.89957,-0.02724 -1.79999,0 -2.70001,0c-0.79999,0 -1.72592,0.18149 -2.59998,-0.036c-0.87271,-0.21713 -1.55777,-0.86115 -2.37918,-0.94318c-0.96558,-0.09644 -1.88217,-0.02083 -2.53818,-0.02083c-1.07199,0 -1.89331,0 -2.80399,0c-0.85333,0 -1.79468,0 -2.56265,0c-0.94135,0 -1.9606,0.14035 -2.82935,0c-0.89032,-0.14384 -1.45361,-0.62981 -2.40268,-0.916c-1.03415,-0.31184 -1.69171,-0.55539 -2.39999,-0.8c-0.94379,-0.32594 -1.884,-0.284 -2.784,-0.284c-0.89999,0 -1.79999,0 -2.70001,0c-0.88531,0 -1.82535,0.00746 -2.51599,0c-0.96335,-0.01042 -1.69031,-0.53526 -2.58417,-0.87849c-0.74152,-0.28474 -1.72516,-0.12151 -2.73315,-0.12151c-0.75601,0 -1.66669,0 -2.56668,0c-0.89999,0 -1.82254,0.09381 -2.76666,-0.16667c-0.69174,-0.19086 -1.42017,-0.62646 -2.42883,-0.77617c-0.74106,-0.10999 -1.77917,-0.05716 -2.72566,-0.05716c-0.8175,0 -1.72701,0 -2.56551,0c-0.94933,0 -1.7159,0.04529 -2.70433,-0.0045c-0.84116,-0.04237 -1.46988,-0.78316 -2.27032,-0.9595c-0.94989,-0.20926 -1.83417,-0.036 -2.73868,-0.036c-0.92082,0 -1.73016,0.0916 -2.57466,-0.036c-0.96126,-0.14523 -1.59265,-0.81583 -2.52533,-0.9595c-0.88953,-0.13702 -1.82083,-0.0045 -2.62151,-0.0045c-0.88916,0 -1.87816,0 -2.63683,0c-0.99101,0 -1.75601,0 -2.64433,0c-0.99284,0 -1.74017,0 -2.772,0c-0.94667,0 -1.63014,0.1021 -2.74001,-0.00133c-0.89676,-0.08356 -1.4225,-0.74562 -2.28532,-0.96268c-0.8735,-0.21976 -1.8,-0.036 -2.70001,-0.036c-0.89999,0 -1.7,0 -2.59999,0c-0.90001,0 -1.8,0 -2.7,0c-0.90001,0 -1.89551,0 -2.76668,0c-0.72,0 -1.65866,0 -2.66666,0c-0.75601,0 -1.66667,0 -2.56667,0c-0.90451,0 -1.92134,0 -2.60001,0c-0.97833,0 -1.94734,0 -2.7045,0c-0.89551,0 -1.7955,0 -2.6955,0c-0.90001,0 -1.8,0 -2.69984,0c-0.93616,0 -1.80493,0.03889 -2.55283,0.35716c-0.71465,0.30412 -1.5154,1.06332 -2.34734,1.47617c-0.75098,0.37267 -1.51222,0.73994 -2.33333,1.16667c-0.6514,0.33853 -1.39703,0.6407 -2.52367,0.87849c-0.82401,0.17392 -1.80074,0.09291 -2.627,0.40685c-0.71368,0.27116 -1.42717,0.9084 -2.15434,1.3575c-0.74884,0.46248 -1.7204,0.33606 -2.41234,0.96783c-0.57903,0.52867 -1.29817,1.04108 -2.19215,1.33665c-0.85457,0.28255 -1.48412,0.81587 -2.40984,0.9955c-0.8493,0.16479 -1.89854,-0.06126 -2.64734,0.41434c-0.80225,0.50955 -1.1631,1.1917 -2,1.59016c-0.86801,0.41328 -1.43239,0.93164 -2.2,1.53185c-0.64999,0.50824 -1.53667,0.84695 -2.3,1.23683c-0.75288,0.38454 -1.76077,0.23862 -2.22533,0.89467c-0.50873,0.71843 -1.24173,1.15306 -2.07468,1.61082c-0.67502,0.37097 -1.26546,1.22137 -1.99983,1.65717c-0.78368,0.46506 -1.30457,0.9686 -2.10016,1.40533c-0.64812,0.35577 -1.54297,0.5255 -2.41068,0.752c-0.8562,0.22351 -1.59023,0.98611 -2.03217,1.664c-0.47847,0.73392 -0.72072,1.59294 -1.23599,2.39984c-0.4644,0.72725 -1.56166,0.60315 -2.04916,1.33617c-0.48033,0.72224 -0.38721,1.60634 -0.78801,2.364c-0.44933,0.84938 -0.87978,1.61884 -1.284,2.36667c-0.38104,0.70496 -0.98199,1.26877 -1,2.13333c-0.01874,0.8998 0,1.79984 0,2.72083c0,0.7805 0,1.67917 0,2.57918c0,0.89999 0,1.78932 0,2.75716c0,0.84283 0,1.74284 0,2.64284c0,0.8 -0.0168,1.70015 0,2.60001c0.01801,0.96449 0.8181,1.39429 0.99867,2.20132c0.19623,0.87698 -0.01056,1.84872 0.71733,2.19734c0.81073,0.38831 1.68266,0.62204 2.23332,1.41199c0.48491,0.69562 0.95061,1.39009 1.34534,1.99384c0.61743,0.94437 0.48691,1.89665 1.14134,2.53416c0.68477,0.66708 1.22154,1.16064 1.73332,1.86133c0.54498,0.74615 1.23877,0.90182 2.22801,1.39868c0.73,0.36664 1.74025,0.57529 2.40399,0.97198c0.77768,0.46481 1.33841,1.32462 1.84151,1.8775c0.56062,0.61612 0.46321,1.62881 1.15849,2.03583c0.82564,0.48331 1.31779,1.22736 1.99867,1.63068c0.82715,0.48996 1.70514,0.8009 2.39999,1.48535c0.50375,0.49622 1.1908,1.20932 1.8,1.79999c0.59122,0.57321 1.53249,0.86444 2.28534,1.284c0.78738,0.43881 1.32698,1.07266 2,1.63199c0.66916,0.55612 1.47646,0.73227 2.10399,1.48401c0.54739,0.65573 0.73244,1.45972 1.472,2c0.62041,0.45325 1.44176,1.1015 2.33867,1.51599c0.76102,0.35168 1.64795,0.49564 2.364,1.10934c0.61095,0.52365 0.37785,1.74335 1.1405,1.97018c0.85835,0.25531 1.78081,0.01935 2.35683,0.61514c0.65556,0.6781 1.2588,1.15195 2.1815,1.33218c0.94116,0.18387 1.808,0.35803 2.45717,0.7045c0.84938,0.45334 1.81718,0.30908 2.31067,0.77798c0.55708,0.52933 1.19263,1.11789 2.08934,1.45319c0.85063,0.31808 1.71173,0.01337 2.536,0.1575c1.04468,0.18268 1.60332,0.78442 2.53467,0.96399c0.83478,0.16095 1.80783,0 2.62799,0c0.916,0 1.84801,0 2.68668,0c0.91916,0 1.92116,-0.07852 2.67867,0.03601c0.97272,0.14706 1.5593,0.72424 2.49316,0.90683c0.73526,0.14374 1.74017,0.05716 2.62849,0.05716c1.04767,0 1.75601,0 2.71434,0c0.81067,0 1.68533,0 2.68266,0c0.79651,0 1.5547,-0.11142 2.65601,0.01065c0.99921,0.11075 1.69066,0.53049 2.34799,0.70535c0.98148,0.26111 1.79237,0.27356 2.98001,0.284c0.67197,0.00589 1.65466,0 2.508,0c0.94266,0 1.79466,0 2.592,0c0.94667,0 1.86917,0 2.80267,0c0.7825,0 1.6825,0 2.76399,0c0.6765,0 1.45203,-0.00607 2.5,0c0.92004,0.00534 1.70541,0.03055 2.64584,0.5c0.74611,0.37244 1.4915,0.49933 2.53065,0.5c0.77551,0.00049 1.8235,0 2.533,0c0.85266,0 1.85583,0 2.62117,0c1.08333,0 2.00267,0 2.85683,0c0.97917,0 1.76851,0 2.49384,0c0.98532,0 1.97067,0 2.69601,0c0.9895,0 1.81015,0 2.95599,0c0.78598,0 1.33331,0 2.14932,0c1.23132,0 1.90933,0 3.10535,0c0.80399,0 1.62598,0 2.65717,0c0.68549,0 1.52017,0 2.52148,0c0.80002,0 1.80002,0 2.60001,0c1,0 1.79999,0 2.79999,0c0.81067,0 1.68533,0 2.68402,0c0.81598,0 1.63211,-0.01358 2.63199,0.00134c0.6842,0.01022 1.85248,0.15781 2.64566,0.35132c0.58139,0.14185 1.52014,0.39838 2.55951,0.52585c0.7244,0.08884 1.45789,0.1098 2.50949,0.12015c1.19861,0.01178 1.92767,0.00134 2.96933,0.00134c0.81067,0 1.45718,0 2.68533,0c0.55069,0 1.41919,0 2.61469,0c0.60001,0 1.5,0 2.69998,0c0.59735,0 1.45834,0 2.66669,0c0.68265,0 1.66666,0 2.60532,0c0.54935,0 1.728,0 2.6235,0c0.8685,0 1.93784,0 2.64285,0c0.79999,0 1.84698,0 2.79498,0c0.67651,0 1.452,0 2.5,0c0.93066,0 1.76535,0 2.76666,0c0.80002,0 1.79868,0 2.564,0c0.95203,0 1.72,0 2.67203,0c0.76532,0 1.76849,-0.00006 2.62115,0c0.96432,0.00009 1.78091,-0.01892 2.64734,0.05716c0.89868,0.07892 1.78757,0.29147 2.6235,0.51752c0.93988,0.25415 1.75101,0.41489 2.75867,0.42532c0.75995,0.00787 1.67999,0 2.47498,0c0.88501,0 1.52502,0 2.91968,0c0.72266,0 1.42133,0 2.61865,0c0.80267,0 1.8215,0 2.52084,0c0.97916,0 1.78983,0 2.66449,0c0.99869,0 1.81467,0 2.63068,0c0.99866,0 1.87335,0 2.88385,0c0.77933,0 1.77881,0 2.55283,0c0.89999,0 1.76334,0 2.74731,0c0.8215,0 1.71069,0 2.70001,0c0.79999,0 1.79999,0 2.60001,0c0.79999,0 1.8045,0 2.436,0c1.18515,0 1.97867,0 2.75415,0c1.0405,0 1.89252,0 2.84586,0c0.76532,0 1.76398,0 2.564,0c0.99866,0 1.76398,0 2.716,0c0.76797,0 1.72,0 2.48532,0c0.99417,0 1.91333,0 2.87784,0c0.82532,0 1.84216,0 2.52081,0c0.97852,0 2,0 2.75717,0c0.89551,0 1.75885,0 2.72202,0c0.82983,0 1.85416,0 2.52615,0c0.74402,0 1.85202,0 2.64536,0c1.11731,0 1.8493,0 2.58133,0c1.09598,0 1.96933,0 2.93466,0c0.85416,0 1.83331,0 2.62265,0c0.72534,0 1.80002,0 2.71066,0c0.8045,0 1.8215,0 2.52084,0c0.97916,0 1.75784,0 2.80984,0c0.81598,0 1.65332,0 2.51666,0c1.02734,0 1.974,0 2.65265,0c0.97852,0 2,0 2.75717,0c0.89102,0 1.67352,0 2.68951,0c0.87448,0 1.69199,0 2.65866,0c0.9155,0 1.87317,0 2.69333,0c0.83734,0 1.68533,0 2.54868,0c1.01666,0 1.854,0 2.81934,0c0.85416,0 1.83331,0 2.62265,0c0.72534,0 1.80002,0 2.62134,0c0.91068,0 1.76401,0 2.70401,0c0.98532,0 1.88531,0 2.68533,0c0.836,0 1.68533,0 2.60449,0c0.99417,0 1.75949,0 2.71152,0c0.76797,0 1.69864,0 2.71466,0c0.85199,0 1.71201,0 2.41998,0c0.98135,0 1.935,0 2.94934,0c0.89999,0 1.79999,0 2.60001,0c0.836,0 1.68399,0 2.54733,0c1.01666,0 1.95267,0 2.85266,0c0.89999,0 1.79999,0 2.60001,0c0.836,0 1.68399,0 2.54733,0c1.01666,0 1.98154,0.04593 2.638,-0.42532c0.61893,-0.44431 1.36649,-0.57242 2.38934,-0.57468c0.94666,-0.00208 1.62531,0 2.73999,0c0.88531,0 1.68533,0 2.52133,0c1.01218,0 1.79468,0 2.72116,0c0.94284,0 1.84283,0 2.74283,0c0.89999,0 1.70001,0 2.60001,0c0.89999,0 1.79999,0 2.70001,0c0.89548,0 1.8215,0 2.69998,0c0.89999,0 1.70001,0 2.60001,0c0.89999,0 1.79999,0 2.70001,0c0.89999,0 1.79999,0 2.69998,0c0.89999,0 1.70001,0 2.60001,0c0.89999,0 1.79999,0 2.70001,0c0.89999,0 1.79999,0 2.69983,0c0.87482,0 1.70148,0 2.61481,0c0.896,0 1.78534,0 2.68536,0c0.89996,0 1.79999,0 2.70001,0c0.89996,0 1.69995,0 2.53595,0c1.01221,0 1.79468,0 2.72119,0c0.94281,0 1.84283,0 2.74286,0c0.89996,0 1.69995,0 2.61462,0c0.896,0 1.78534,0 2.68536,0c0.89551,0 1.82147,0 2.70001,0c0.89996,0 1.70013,0.01801 2.59998,0c0.90057,-0.01801 1.65509,-0.55167 2.46667,-0.83334c0.79919,-0.27737 1.95294,0.16605 2.66669,-0.33331c0.71552,-0.50058 1.33331,-0.83334 2.16663,-0.83334c0.79999,0 1.70001,0 2.60004,0c0.89996,0 1.79999,0.00067 2.69995,0c0.89868,-0.00067 1.44769,-0.62759 2.22089,-0.97916c0.79083,-0.35956 1.76447,-0.02084 2.67914,-0.02084c0.90002,0 1.79999,0 2.59998,0c0.90002,0 1.80945,-0.017 2.61072,-0.42532c0.76538,-0.39008 1.58911,-0.56424 2.56781,-0.57468c0.82013,-0.00873 1.72156,0.01041 2.62152,0c0.90015,-0.01044 1.60327,-0.54318 2.5,-0.87851c0.85059,-0.31805 1.69995,-0.12149 2.59998,-0.12149c0.90002,0 1.79999,0 2.68933,0c0.94403,0 1.63153,0 2.58917,0c1.02148,0 1.84534,0.16132 2.62152,-0.03601c0.86224,-0.21921 1.59692,-0.92126 2.5,-0.96399c0.89899,-0.04251 1.70038,0.02798 2.61462,0c0.93402,-0.02859 1.33325,-0.85468 2.172,-0.99866c0.92511,-0.15881 1.74194,0.43405 2.66669,-0.03735c0.76843,-0.39172 1.24799,-0.96332 2.14667,-0.96399c0.90002,-0.00067 1.85968,0.30991 2.68933,-0.01068c0.79291,-0.3064 1.32025,-1.03305 2.11066,-1.48932c0.70465,-0.40677 1.60004,-0.49786 2.5,-0.5c0.94287,-0.00226 1.16669,-0.83334 2,-1c0.83337,-0.16666 1.28235,-0.95721 2.20001,-1c0.89886,-0.0419 1.73914,-0.21524 1.79999,-1.09982c0.06006,-0.87277 0.28528,-1.57858 0.91602,-2.18417c0.57288,-0.54999 1.07355,-1.23666 1.08398,-2.116c0.01068,-0.89993 -0.21582,-1.94785 0.35266,-2.54285c0.50592,-0.52951 0.64734,-1.15717 0.64734,-2.05716c0,-0.79999 0,-1.70001 0,-2.60001c0,-0.89999 -0.06531,-1.8374 -0.57465,-2.42532c-0.56189,-0.64862 -1.341,-1.12903 -1.42535,-1.97467c-0.09082,-0.91016 -0.9162,-1.1539 -1,-1.97467c-0.08392,-0.82239 -0.05243,-1.84381 -0.80133,-2.02399c-0.89197,-0.2146 -1.46167,-0.78613 -2.19867,-1.168c-0.75397,-0.39063 -1.49988,-0.82068 -2.39996,-0.83334c-0.89545,-0.0126 -1.47394,-0.72559 -2.21069,-0.98933c-0.83734,-0.29976 -1.77869,-0.02133 -2.38934,-0.51067c-0.61066,-0.48933 -1.5,-0.5 -2.39996,-0.5c-0.90002,0 -1.88568,0.14343 -2.54736,-0.35266c-0.66846,-0.50116 -1.48865,-0.6467 -2.35266,-0.64734c-0.89868,-0.00067 -1.43536,-0.60881 -2.12531,-0.964c-0.82532,-0.42488 -1.44861,-0.76158 -2.18536,-1.02533c-0.83734,-0.29976 -1.78931,-0.01067 -2.68933,-0.01067c-0.90002,0 -1.79999,0 -2.70001,0c-0.79999,0 -1.70007,0.0094 -2.56396,0c-0.95703,-0.01042 -1.63934,-0.54318 -2.53601,-0.87849c-0.85065,-0.3181 -1.70001,-0.12151 -2.60004,-0.12151c-0.89996,0 -1.79999,0 -2.69995,0c-0.90002,0 -1.96259,0.25241 -2.51471,-0.284c-0.55872,-0.54282 -1.23956,-0.53273 -2.08533,-0.88268c-0.78461,-0.32466 -1.49982,-0.82291 -2.39996,-0.83333c-0.89996,-0.01041 -1.80005,0 -2.70001,0l-0.90002,0l-0.79999,-0.08533l-0.76398,-0.48933" id="svg_1" stroke-width="2" stroke="#000" fill="none"/>
  <path t="14664,14856,14872,14888,14888,14920,14936,14960,14968,14984,14984,15000,15008,15013,15024,15048,15064,15073,15089,15096,15104,15112,15120,15128,15128,15136,15144,15144,15153,15169,15176,15176,15186,15200,15200,15216,15216,15232,15232,15240,15240,15257,15264,15280,15280,15288,15289,15296,15296,15304,15320,15336,15353,15369,15369,15386,15386,15400,15400,15408,15418,15426,15433,15441,15448,15456,15464,15464,15480,15480,15496,15496,15504,15520,15528,15528,15541,15541,15544,15552,15560,15560,15569,15576,15586,15586,15592,15600,15608,15608,15616,15624,15624,15632,15640,15648,15657,15664,15672,15680,15680,15689,15696,15704,15712,15720,15728,15736,15744,15752,15769,15769,15785,15785,15896,15912,15928,15928,15944,15960,15984,15992,16002,16016,16032,16041,16041,16044,16056,16064,16073,16080,16089,16089,16096,16096,16104,16104,16112,16112,16120,16120,16120,16128,16136,16144,16152,16152,16160,16160,16176,16185,16185,16192,16208,16208,16216,16217,16224,16232,16233,16240,16240,16240,16248,16256,16256,16264,16264,16264,16272,16273,16280,16280,16280,16288,16288,16296,16296,16304,16312,16320,16360,16360,16376,16384,16400,16408,16408,16418,16433,16688,16696,16704,16704,16712,16720,16728,16736,16736,16744,16752,16760,16784,16784,16800,16816,16824,16824,16840,16848,16856,16864,16864,16872,16880,16896,16904,16912,16920,16937,16937,16953,16953,16960,16970,16970,16976,16987,16992,17000,17001,17008,17017,17024,17024,17034,17034,17043,17043,17048,17056,17056,17064,17064,17073,17074,17074,17088,17088,17096,17096,17112,17112,17121,17129,17136,17144,17144,17152,17160,17177,17178,17179,17193,17193,17200,17210,17210,17217,17226,17239,17240,17243,17248,17248,17260,17260,17274,17280,17280,17290,17296,17305,17313,17313,17320,17328,17328,17342,17344,17345,17352,17360,17373,17373,17377,17392,17392,17400,17400,17410,17410,17417,17417,17425,17434,17443,17450,17456,17464,17473,17488,17489,17496,17527,17528,17544,17552,17569,17576,17592,17594,17640,17664,17696,17708,17708,17744,17792,17928,17951,17960,17968,17976,17985,17992,18008,18018,18024,18101,18232,18264,18280,18280,18328,18351,18360,18376,18504,18600,18720,18728,18736,18752,18760,18760,18768,18784,18792,18802,18808,18824,18824,18840,18840,18848,18856,18872,18888,18888,18896,18904,18913,18921,18928,18936,18936,18944,18952,18960,18969,18970,18984,18992,18992,19001,19001,19008,19018,19018,19025,19042,19043,19048,19049,19056,19065,19065,19073,19082,19082,19091,19091,19105,19113,19113,19121,19121,19128,19132,19139,19153,19160,19161,19168,19176,19184,19192,19201,19208,19218,19224,19234,19240,19241,19250,19264,19272,19281,19288,19298,19304,19312,19320,19344,19353,19384,19384,19424,19434,19456,19952,19968,19992,20000,20017,20033,20040,20056,20088,20096,20161,20164,20384,20408,20440,20440,20456,20480,20496,20504,20513,20544,20552,20560,20592,20632,20640" d="m308.51135,211.09091c1.80002,0 2.63602,0 3.48267,0c0.94803,0 1.87451,0 2.71735,0c0.89999,0 1.89999,0 2.79999,0c0.80002,0 1.81436,-0.39507 2.56403,0.036c0.69965,0.4023 1.04669,0.95868 1.93597,0.964c0.8894,0.00534 1.37393,0.72559 2.11069,0.98933c0.83734,0.29974 1.78934,0.01001 2.68933,0.01067c0.89999,0.00067 1.7486,0.30502 2.39999,0.64734c0.88214,0.46358 1.784,0.35266 2.64734,0.35266c1.00598,0 1.87418,0 2.75284,0c0.78516,0 1.72543,-0.02289 2.73315,0c0.7926,0.01801 1.64056,0.31438 2.37735,0.57466c0.97568,0.34467 1.76834,0.41492 2.76782,0.42534c0.82013,0.00854 1.7215,0 2.54233,0c0.96451,0 1.69003,-0.01828 2.67902,0.00017c0.96463,0.01801 1.74423,0.28531 2.49567,0.64717c0.87122,0.41956 1.80447,0.35266 2.7045,0.35266c0.90448,0 1.76666,-0.00008 2.59998,0c0.97867,0.00009 1.76587,0.01965 2.65268,0.35266c0.70642,0.26527 1.71075,0.62933 2.54733,0.64734c0.89978,0.01936 1.9538,-0.32239 2.67868,0.22133c0.64301,0.48232 1.32132,0.77867 2.2215,0.77867c0.78516,0 1.73584,0 2.50116,0c0.99417,0 1.74149,0 2.76266,0c0.94049,0 1.80267,0 2.63599,0c0.97852,0 1.79868,0 2.70001,0c0.82083,0 1.784,0 2.64734,0c0.89551,0 1.90112,-0.15352 2.65265,0.16667c0.78119,0.33284 1.49982,0.82291 2.41068,0.83333c0.91061,0.01041 1.76401,0 2.70401,0c0.88531,0 1.68533,0 2.58533,0c0.89999,0 1.79999,0 2.70001,0c0.89999,0 1.85684,-0.16277 2.69998,0.22133c0.78003,0.35535 1.49994,0.77333 2.39999,0.77867c0.89999,0.00533 1.80002,0 2.70001,0c0.89999,0 1.79999,0 2.716,0c0.84567,0 1.74118,0 2.48849,0c0.99417,0 1.75949,0 2.83835,0c0.85715,0 1.75714,0 2.55716,0c0.89999,0 1.84283,0 2.72083,0c0.87918,0 1.77917,0 2.67917,0c0.89999,0 1.79999,0 2.60001,0c0.91467,0 1.8107,-0.00533 2.69998,0c0.8894,0.00534 1.43213,0.68748 2.21436,0.94283c0.84616,0.27621 1.88565,0.05717 2.68567,0.05717c1,0 1.79999,0 2.79999,0c0.79999,0 1.79999,0 2.58932,0c0.72534,0 1.80002,0 2.61069,0c0.90448,0 1.92133,0 2.59998,0c0.97852,0 1.79868,0 2.75717,0c0.89551,0 1.75885,0 2.70117,0c0.875,0 1.72699,0 2.65768,0c0.76797,0 1.70932,0 2.71732,0c0.828,0 1.70935,0 2.41733,0c0.98135,0 1.93951,0 2.91602,0c0.85416,0 1.83331,0 2.63333,0c0.79999,0 1.8045,0 2.436,0c1.18533,0 1.98932,-0.00006 2.81131,0c1.03101,0.00009 1.74683,-0.16617 2.78601,0.16667c0.69217,0.22168 1.4653,0.80473 2.36667,0.83333c0.89954,0.02855 1.79999,0 2.60001,0c0.89999,0 1.79999,-0.00064 2.72083,0c0.96182,0.00067 1.77472,0.05008 2.45782,0.57466c0.54654,0.41972 1.4295,0.54179 2.32135,0.42084c0.8215,-0.11142 1.44168,-0.69347 2.34818,-0.94283c1.00455,-0.27632 1.50613,-0.96893 2.35181,-1.05267c0.79611,-0.07884 1.82346,0.4127 2.64285,-0.05717c0.68784,-0.39442 1.35754,-0.91745 2.15717,-0.94283c0.90137,-0.02859 1.59232,-0.44421 2.29999,-1.09984c0.59363,-0.54996 1.52344,-0.88171 2.30002,-1.3255c0.72406,-0.41377 1.55826,-0.80861 2.29999,-1.222c0.76367,-0.42563 1.55887,-0.77397 2.39984,-1.23132c0.7475,-0.40652 1.24677,-1.07681 1.8855,-1.54668c0.72226,-0.5313 1.44128,-0.56192 2.41333,-0.85866c0.78299,-0.23903 1.76749,-0.49364 2.60132,-0.88268c0.65753,-0.30678 1.41882,-0.89745 2.02536,-1.40799c0.57147,-0.48103 1.69223,-0.17854 2.40533,-0.51067c0.8223,-0.38297 1.33914,-0.94402 2.2265,-1.26733c0.75476,-0.27501 1.76563,-0.46968 2.50681,-0.70868c0.85596,-0.27602 1.29074,-1.23859 2.03601,-1.76933c0.70679,-0.50334 1.41852,-0.80588 2.28265,-1.36932c0.64362,-0.41966 1.2973,-1.15512 1.73871,-1.89984c0.40234,-0.67882 1.36121,-0.80359 2.13049,-0.95734c0.92609,-0.18507 1.50409,-0.79088 2.30084,-1.23833c0.83673,-0.46989 1.71082,-0.68581 2.64728,-0.7045c0.89984,-0.01796 1.75696,-0.28972 2.40002,-0.64734c0.85315,-0.47444 1.64575,-0.88008 2.5,-1.26866c0.76312,-0.34712 1.40228,-0.74646 2.284,-1.28267c0.6676,-0.40599 1.85345,-0.46715 2.34937,-1.13466c0.49994,-0.6729 0.62689,-1.57167 1.1875,-2.1875c0.58698,-0.64478 1.12524,-1.17351 2.09381,-1.39384c0.96454,-0.21942 1.79071,-0.11961 2.53802,-0.44249c0.89124,-0.38506 1.49579,-1.10536 2.34729,-1.47617c0.74896,-0.32616 1.69946,-0.22479 2.5,-0.66667c0.80396,-0.44379 1.68097,-0.36761 2.47919,-0.52083c0.95367,-0.18306 1.20068,-1.31139 1.82214,-1.69383c0.74835,-0.46053 1.95514,-0.02722 2.62933,-0.45601c0.71619,-0.45551 0.76312,-1.70644 1.56934,-1.82933c0.79083,-0.12056 1.61884,-0.1393 2.16669,-1c0.4126,-0.64819 1.15814,-1.09416 1.83331,-1.5c0.98383,-0.59137 1.59167,-1.1611 2.48267,-1.416c0.78741,-0.22525 1.37372,-0.81021 2.12799,-1.07333c0.83978,-0.29294 1.78937,-0.01067 2.68933,-0.01067c0.90002,0 1.87189,0.22302 2.70001,-0.16667c0.75836,-0.35686 0.92438,-1.50652 1.70984,-1.77617c0.76556,-0.26282 1.7854,0.10371 2.69019,-0.06783c0.94592,-0.17934 1.81732,-0.38744 2.47852,-0.9895c0.5509,-0.50166 1.27039,-0.66269 1.95483,-1.1665c0.65308,-0.48071 1.21747,-1.13419 1.86664,-1.48067c0.84937,-0.45337 1.79999,-0.35266 2.70001,-0.35266c0.89996,0 1.80859,-0.12401 2.69983,0.00017c0.80188,0.11172 1.25586,0.97122 2.10016,0.99983c0.89954,0.03047 1.95416,-0.32289 2.67865,0.22133c0.64215,0.48238 1.34283,0.77867 2.22137,0.77867c0.89996,0 1.70013,-0.01874 2.59998,0c0.86456,0.01801 1.34393,0.85425 2.10132,0.99867c0.88275,0.16833 1.93005,-0.4498 2.7627,0.03732c0.61871,0.36198 -0.4151,0.97701 -1.06403,1.48483c-0.76733,0.60054 -1.46399,0.92325 -2.21466,1.56317c-0.66595,0.56769 -0.95563,1.46277 -1.64252,1.85883c-0.81848,0.47195 -1.73468,0.29016 -2.39996,0.76167c-0.7168,0.50803 -1.55066,0.97931 -2.18152,1.68483c-0.51196,0.57257 -1.29773,1.0726 -2.06134,1.444c-0.75391,0.36667 -1.47913,0.82838 -1.97467,1.556c-0.45343,0.6658 -1.10425,1.34084 -1.88666,1.58534c-0.94568,0.29553 -1.64667,0.47623 -2.43414,0.97266c-0.70782,0.44621 -1.05432,1.35954 -1.70453,2.05267c-0.47382,0.50507 -0.79755,1.4183 -1.44281,2.10001c-0.48322,0.5105 -1.63739,0.90268 -2.11053,1.5c-0.5614,0.70876 -0.70587,1.6235 -1.24799,2.2c-0.68768,0.73126 -1.50049,1.33694 -2.19867,1.67917c-0.81305,0.39853 -1.75128,0.48524 -2.39996,0.95683c-0.78033,0.56728 -1.27997,1.25702 -2.12085,1.564c-0.94281,0.34419 -1.79474,0.51967 -2.23615,1.32117c-0.40857,0.74196 -0.0304,1.96646 -0.57635,2.67883c-0.5069,0.66144 -1.29639,1.02029 -1.74933,1.8c-0.40601,0.69888 -1.33594,1.04132 -2.08801,1.28532c-0.90857,0.29478 -1.63562,0.95348 -2.30847,1.39384c-0.78741,0.51534 -1.46698,0.87453 -2.02087,1.52083c-0.52417,0.61165 -1.11804,1.31033 -1.41467,2.2c-0.28589,0.85748 -0.48315,1.48328 -1.03265,2.15717c-0.57355,0.7034 -0.53473,1.57991 -1.10535,2.28568c-0.59106,0.73106 -0.49414,1.63098 -1.16882,2.23566c-0.66028,0.59178 -1.71759,0.33673 -1.7785,1.22151c-0.06183,0.89787 -0.44604,1.44757 -0.91467,2.18533c-0.43921,0.69145 -0.31561,1.67497 -0.73267,2.41466c-0.42004,0.74501 -0.87079,1.45883 -1.43665,2.01601c-0.67102,0.66068 -0.87103,1.38499 -0.91602,2.25867c-0.04272,0.82996 -0.70563,1.44627 -0.96399,2.42532c-0.2298,0.87091 -0.03601,1.8 -0.03601,2.70001c0,0.89999 -0.73706,1.095 -0.99548,1.89999c-0.25537,0.7955 0.73798,1.49393 1.21698,2.22133c0.41919,0.63657 1.52026,0.59286 2.38916,0.81467c0.85284,0.2177 1.68665,0.73111 2.30536,1.248c0.65698,0.54884 1.38397,0.716 2.28265,0.71733l0.74866,0.35133l0.57355,0.62651l0.86847,0.02083" id="svg_3" stroke-width="2" stroke="#000" fill="none"/>
  <path t="23441,23593,23602,23602,23611,23611,23617,23617,23627,23627,23633,23633,23633,23641,23649,23649,23657,23665,23665,23673,23689,23689,23697,23705,23721,23937,23945,23953,23962,23969,23969,23979,23985,23985,23993,23993,24000,24001,24001,24010,24017,24017,24027,24027,24027,24033,24033,24033,24041,24041,24049,24049,24056,24057,24064,24065,24065,24073,24073,24081,24081,24089,24089,24097,24097,24104,24114,24114,24121,24121,24282,24329,24337,24345,24346,24362,24368,24369,24378,24384,24393,24417,24417,24426,24433,24441,24450,24457,24457,24465,24473,24473,24481,24489,24497,24505,24513,24521,24529,24552,24577,24577,24728,24737,24753,24761,24769,24778,24785,24785,24795,24795,24795,24800,24800,24809,24809,24817,24817,24826,24833,24833,24842,24849,24849,24857,24864,24881,24881,24889,24897,24905,24913,24920,24937,24937,24945,24953,24966,25009,25048,25433,25433" d="m510.51135,266.09091c2.55334,0.07199 2.85101,0.91498 3.16937,1.51733c0.51031,0.96548 1.41956,1.2612 2.22931,1.39734c0.93451,0.15714 1.87769,0.00958 2.57068,0.25598c0.84045,0.29886 1.51208,0.8624 2.26263,1.26135c0.9325,0.4957 1.96936,0.56799 2.65338,0.56799c0.93994,0 1.97968,-0.18143 2.81012,0.05716c0.7688,0.22092 1.31531,1.16162 2.00452,1.58566c0.82141,0.50537 1.81299,0.21506 2.70001,0.36783c0.83313,0.14346 1.58759,0.90561 2.43335,0.98935c0.80933,0.08014 1.66467,0.10764 2.51398,-0.05716c0.92572,-0.17963 1.74603,-0.88055 2.53802,-0.9415c0.77405,-0.05954 1.57629,-0.00134 2.7973,-0.00134c0.79651,0 1.54797,0 2.50751,0c0.9765,0 1.83069,0 2.80981,0c0.81067,0 1.45715,0 2.68402,0c0.54132,0 1.36353,0.01846 2.62933,-0.00134c0.64526,-0.0101 1.6286,-0.29486 2.43933,-0.646c0.87708,-0.37988 1.70898,-0.3504 2.66852,-0.35266c0.79346,-0.00186 1.56897,0 2.61084,0c0.77332,0 1.73596,0 2.46796,0c1.16669,0 1.97919,0 2.82135,0c0.85333,0 1.79468,0 2.84534,0c0.65863,0 1.66669,0 2.52881,0c0.86853,0 1.05133,-0.54507 0.20453,-0.87851c-0.84503,-0.33273 -1.70001,-0.11963 -2.53601,-0.12149c-1.01215,-0.00226 -1.73846,-0.15414 -2.41217,-0.64734c-0.70251,-0.51425 -1.49335,-0.95102 -2.17334,-1.57401c-0.56195,-0.51486 -1.47858,-0.76599 -2.37848,-0.77866c-0.90015,-0.01266 -1.63116,-0.4765 -2.5,-0.87866c-0.66205,-0.30643 -1.50299,-0.79367 -2.38403,-1.03735c-0.84241,-0.233 -1.77576,-0.41183 -2.43201,-1c-0.6261,-0.5611 -1.41046,-0.86087 -2.28265,-1.08533c-0.8009,-0.20612 -1.27692,-0.89334 -2.10132,-1.35132c-0.74231,-0.41235 -1.5,-0.64667 -2.40002,-0.64734c-0.89996,-0.00067 -1.79999,0 -2.69995,0c-0.90002,0 -1.80005,0 -2.70038,0c-0.71399,0 -1.66901,0 -2.42047,0c-0.79651,0 -2.02203,0 -2.66852,0c-1.0105,0 -1.97467,0 -2.92664,0c-0.76801,0 -1.70935,0 -2.71735,0c-0.75598,0 -1.6875,0 -2.6507,0c-0.69067,0 -1.75879,0 -2.61597,0c-0.90002,0 -1.70001,0 -2.60004,0c-0.89996,0 -1.84955,-0.28229 -2.68933,0.01065c-0.75433,0.26312 -1.31909,0.9595 -2.12799,0.98801c-0.96118,0.03384 -1.88263,0.00134 -2.77814,0.00134c-0.92584,0 -1.87115,0 -2.70453,0.16666l-0.64282,0.53784" id="svg_4" stroke-width="2" stroke="#000" fill="none"/>
  <path t="27369,27576,27585,27585,27593,27593,27593,27601,27601,27609,27609,27616,27616,27625,27625,27633,27633,27633,27641,27641,27649,27649,27657,27657,27664,27664,27676,27676,27676,27681,27681,27681,27692,27692,27696,27696,27696,27706,27706,27712,27712,27712,27722,27722,27722,27728,27728,27728,27737,27737,27737,27737,27746,27746,27746,27753,27753,27753,27753,27761,27761,27761,27761,27769,27769,27769,27769,27780,27780,27780,27780,27780,27785,27785,27785,27785,27785,27796,27796,27797,27797,27800,27800,27800,27800,27813,27813,27813,27817,27817,27817,27817,27825,27826,27826,27826,27826,27826,27833,27833,27833,27833,27845,27845,27845,27845,27849,27849,27849,27849,27849,27849,27862,27862,27862,27862,27863,27865,27865,27865,27865,27865,27865,27879,27879,27879,27880,27881,27881,27882,27882,27882,27882,27895,27895,27895,27895,27898,27898,27898,27898,27898,27898,27905,27905,27905,27905,27905,27914,27914,27914,27914,27914,27922,27922,27922,27922,27922,27930,27930,27930,27930,27930,27930,27937,27937,27937,27937,27937,27937,27946,27946,27947,27947,27953,27953,27953,27953,27953,27961,27961,27961,27961,27961,27968,27968,27968,27969,27969,27979,27980,27980,27980,27980,27985,27985,27985,27985,27985,27995,27996,27996,27996,28001,28001,28001,28001,28001,28009,28010,28010,28010,28016,28016,28016,28017,28029,28029,28029,28029,28033,28033,28033,28033,28042,28042,28049,28049,28059,28059,28061,28061,28079,28089,28114,28129,28138,28145,28162,28179,28179,28196,28196,28201,28211,28211,28745,28756,28769,28769,28778,28785,28785,28785,28797,28797,28801,28801,28801,28812,28812,28817,28817,28826,28833,28833,28833,28845,28845,28881,29087,29090,29352,29369,29392,29402,29416,29427,29433,29449,29449,29464,29465,29481,29494,29497,29505,29505,29513,29529,29529,29544,29546,29547,29553,29561,29561,29570,29577,29585,29585,29594,29594,29601,29601,29610,29611,29617,29628,29628,29632,29644,29644,29648,29649,29660,29665,29665,29672,29673,29673,29681,29693,29697,29697,29707,29707,29713,29713,29724,29729,29730,29740,29741,29744,29753,29753,29761,29770,29770,29777,29777,29786,29786,29794,29801,29824,29825,29832,29833,29845,29848,29861,29864,29880,29880,29891,29896,29928,29946,29946,29968,29992,30003,30041,30089,30112,30112,30115,30361,30378,30378,30386,30386,30392,30393,30393,30402,30402,30403,30410,30410,30410,30417,30417,30417,30426,30426,30426,30426,30433,30433,30433,30446,30446,30446,30446,30450,30451,30451,30451,30458,30458,30458,30464,30465,30473,30473,30473,30480,30480,30480,30489,30489,30490,30496,30496,30497,30506,30506,30506,30513,30513,30526,30526,30529,30529,30538,30538,30538,30545,30545,30545,30559,30559,30562,30562,30569,30569,30577,30578,30578,30585,30586,30586,30592,30593,30593,30602,30602,30602,30610,30610,30617,30617,30627,30627,30632,30633,30643,30643,30648,30648,30659,30659,30659,30664,30664,30675,30676,30680,30688,30689,30696,30697,30708,30708,30708,30713,30722,30722,30728,30738,30738,30745,30745,30754,30762,30777,30777,30785,30785,30793,30802,30809,30809,30818,30825,30833,30833,30843,30848,30859,30864,30880,30888,30896,30908,30909,30925,30928,30943,30946,30952,30961,30974,30985,30985,30993,31002,31010,31018,31025,31033,31048,31059,31064,31081,31092,31096,31105,31129,31131,31145,31147,31162,31177,31185,31210,31226,31226,31249,31264,31288,31288" d="m245.51137,252.09091c1.82533,0 2.83905,-0.06763 3.66133,0.036c0.89354,0.11259 1.58426,0.40714 2.33333,0.61134c1.18813,0.3239 1.888,0.35199 2.84134,0.35266c0.76534,0.00053 1.77068,-0.05872 2.56401,0.05716c1.01492,0.14824 1.79999,0.55351 2.59998,0.94284c0.80002,0.38933 1.59058,0.75945 2.59552,0.94733c0.74185,0.13869 1.64297,0.42281 2.28848,0.854c0.76303,0.5097 1.5007,0.92877 2.51602,1.11334c0.7905,0.14368 1.80142,0.05615 2.62082,0.10617c0.66638,0.04068 1.66934,0.24414 2.47916,0.5c0.82278,0.25995 1.81946,0.66876 2.47919,0.97916c1.02853,0.48392 1.59784,0.85416 2.42084,1.14282c0.97906,0.34341 1.83597,0.34918 2.76666,0.35718c0.78595,0.00674 1.61893,-0.03357 2.66666,0.16666c0.7247,0.13849 1.60626,0.54459 2.58835,0.71185c0.81763,0.13928 1.42496,0.11615 2.745,0.12149c0.716,0.0029 1.448,0 2.5235,0c0.9765,0 1.80634,-0.02512 2.56049,0.03601c1.08698,0.0881 1.7218,0.23578 2.77017,0.48483c0.73334,0.17419 1.81244,0.4794 2.49384,0.67783c0.96442,0.28082 1.5723,0.4931 2.78568,0.67999c0.60541,0.09323 1.57272,0.13519 2.27032,0.20532c1.17429,0.11807 2.03918,0.26852 2.49066,0.34134c0.92407,0.14905 1.85349,0.31357 3.21716,0.45334c0.43549,0.04465 1.28583,0.09146 2.11084,0.14667c0.80963,0.0542 2.01202,0.18716 2.80618,0.32733c0.78525,0.13861 1.54074,0.34009 2.983,0.52585c0.66196,0.08527 1.61075,0.11481 2.22015,0.12015c1.20129,0.01056 2.10312,-0.00046 2.70132,0.0585c1.20584,0.11887 1.81351,0.29999 2.80801,0.5535c0.74799,0.19067 1.58987,0.39966 2.54401,0.58801c1.02185,0.20175 1.54678,0.28818 2.59,0.44415c0.50543,0.07556 1.89319,0.24118 2.69098,0.3045c0.72498,0.05753 1.75165,0.11362 2.78867,0.27402c0.74274,0.11487 1.51749,0.29352 2.34003,0.42599c1.30142,0.20959 1.75894,0.24567 2.6955,0.2955c0.96298,0.05124 1.45346,0.05066 2.44415,0.05582c1.49863,0.00781 1.99872,-0.00284 2.99866,0.01199c0.50006,0.00742 1.50226,0.0192 3,0.15601c0.50061,0.04572 1.49191,0.18524 1.97867,0.26935c0.95117,0.16437 1.85449,0.3501 3.07886,0.664c0.74408,0.19077 1.46082,0.40948 2.20499,0.60001c1.23355,0.3158 2.18881,0.50235 2.6955,0.59549c1.04062,0.19128 1.56396,0.28314 2.59,0.41916c1.38553,0.18365 1.79907,0.21979 2.952,0.2645c0.75763,0.02936 2,0.02084 2.46402,0.02084c0.99399,0 1.51199,0 2.56,0c1.02399,0 1.97598,0 2.82401,0c0.776,0 1.52798,-0.00003 2.30399,0c1.31201,0.00009 2.30606,0.00131 2.82401,0.01065c1.04813,0.01892 1.57025,-0.00015 3.02399,0.15601c0.85138,0.09146 1.62515,0.26456 2.37601,0.444c0.77719,0.18573 2.08746,0.49359 2.57867,0.58801c1.04089,0.20007 1.58551,0.29092 2.70166,0.44415c0.56165,0.07709 1.67596,0.20554 2.75702,0.27185c1.03918,0.06375 1.54492,0.06943 2.52499,0.08084c0.47498,0.00552 1.84021,-0.00165 2.7045,0.00897c0.83643,0.01028 1.6561,0.01974 2.85715,0.16217c0.80426,0.09537 1.60965,0.2645 2.436,0.40802c0.84833,0.14734 1.72964,0.27133 2.64801,0.34131c0.94046,0.07166 1.89102,0.10361 2.36334,0.13669c1.38727,0.09717 2.26834,0.22531 3.11667,0.37265c0.82635,0.14352 1.63065,0.32355 2.83615,0.45319c0.80231,0.08627 1.2103,0.0936 2.03583,0.11081c0.84921,0.0177 2.18518,0.01068 3.11218,0.01068c0.46649,0 1.3905,0 2.2825,0c1.22665,0 1.96399,0 3.01999,0c0.71735,0 1.89218,0 2.75916,0c0.45151,0 1.37552,0 2.30753,0c1.36099,0 1.79599,0 2.63599,0c0.79999,0 2.28,0 2.96268,0c0.65866,0 1.63666,0 2.65067,0c0.71732,0 1.83331,0 2.58066,0c1.086,0 1.76688,-0.02448 2.711,0.02084c0.85645,0.04111 1.85648,0.2627 2.52084,0.47916c1.02103,0.33264 1.80969,0.48199 2.85416,0.5c0.79187,0.01364 1.64932,0 2.45685,0c1.06699,0 1.90982,0 2.80966,0c0.90015,0 1.70151,0 2.60016,0c0.936,0 1.78534,0 2.7045,0c0.99417,0 1.75949,0 2.71017,0c0.88531,0 1.68533,0 2.58533,0c0.94284,0 1.86932,0.00195 2.65182,0c0.89551,-0.00226 1.81223,-0.17343 2.66901,-0.5c0.57877,-0.22061 1.58661,-0.42584 2.43634,-0.55267c0.96793,-0.14447 1.77347,-0.34106 2.53299,-0.65182c1.0661,-0.43619 1.58295,-0.98883 2.49384,-1.21017c0.84259,-0.20477 1.76785,-0.08173 2.84933,-0.08533c0.672,-0.00226 1.46127,0.1427 2.52368,-0.2215c0.77557,-0.26587 1.33743,-1.25082 2.14297,-1.61185c0.81598,-0.36569 0.2955,-0.16666 -0.564,-0.16666c-0.95682,0 -1.836,0.00067 -2.73599,0c-0.89865,-0.00067 -1.45807,-0.46121 -1.98666,-1.19867c-0.46103,-0.64319 -1.38687,-0.65234 -2.22934,-0.88535c-0.88101,-0.24368 -1.86481,-0.61423 -2.43134,-1.27316c-0.59119,-0.68762 -0.84503,-1.38275 -1.68866,-1.66815c-0.83981,-0.28409 -1.70932,-0.62814 -2.60684,-0.922c-0.85526,-0.28003 -1.3815,-0.84555 -2.16782,-1.44202c-0.69852,-0.52988 -1.56833,-0.60022 -2.52802,-0.61066c-0.82294,-0.00894 -1.71851,0.00052 -2.46582,0c-0.99551,-0.00067 -1.81668,0.05472 -2.79535,-0.2215c-0.80347,-0.22678 -1.60449,-0.82025 -2.27933,-1.25766c-0.79437,-0.51489 -1.6875,-0.52084 -2.5,-0.52084c-1.04166,0 -1.87723,0.04614 -2.78082,-0.03601c-0.91229,-0.08295 -1.62811,-0.62836 -2.44135,-0.87866c-0.92621,-0.2851 -1.81949,-0.08533 -2.79868,-0.08533c-0.78931,0 -1.59976,0.37738 -2.55331,-0.03601c-0.79474,-0.34454 -1.29791,-0.91156 -2.20667,-0.95334c-1.09607,-0.05038 -1.85468,-0.01065 -2.724,-0.01065c-0.86334,0 -1.7634,0.01151 -2.68268,0c-0.83353,-0.01044 -1.78525,-0.26965 -2.52884,-0.64734c-0.8002,-0.40643 -1.61801,-0.59351 -2.47916,-0.92734c-0.93204,-0.3613 -1.82535,-0.4249 -2.49734,-0.42532c-1.09467,-0.00067 -1.89923,0.2814 -2.828,-0.16666c-0.72037,-0.34753 -1.2854,-0.94304 -2.064,-1.408c-0.75473,-0.45073 -1.66931,-0.32413 -2.55066,-0.70934c-0.74127,-0.32401 -1.48526,-0.71066 -2.38535,-0.716c-0.89996,-0.00533 -1.87549,0.17192 -2.69998,-0.28534c-0.69205,-0.3838 -1.21497,-1.38837 -2.09549,-1.6575c-0.83493,-0.25519 -1.74277,0.11639 -2.50452,-0.14249c-0.88791,-0.30176 -1.59946,-0.89667 -2.5,-0.91467c-0.89981,-0.01799 -1.79999,0 -2.70001,0c-0.79999,0 -1.71466,0.00067 -2.64731,0c-0.92334,-0.00067 -1.77408,-0.00592 -2.55267,-0.22133c-0.8165,-0.22589 -1.79364,-0.66093 -2.61066,-0.74268c-0.87103,-0.08714 -1.87335,-0.036 -2.68936,-0.036c-0.81598,0 -1.81732,0 -2.52081,0c-0.7485,0 -1.94852,0 -2.6405,0c-0.724,0 -2.172,0 -2.85199,0c-0.64001,0 -1.52502,0 -2.56552,0c-0.94199,0 -1.69049,0 -2.89182,0c-0.70135,0 -1.45068,0 -2.23203,0c-1.19699,0 -1.98831,0 -2.75565,0c-0.72733,0 -1.99869,0 -2.76968,0c-0.86932,0 -1.8765,0 -2.72916,0c-0.96432,0 -1.77884,0 -2.64734,0c-0.89551,0 -1.79099,0 -2.65948,0c-1.06934,0 -1.78336,0 -2.68869,0c-0.96866,0 -1.77264,0 -2.59467,0c-1.03116,0 -1.93182,0 -2.55133,0c-1.00131,0 -1.80133,0 -2.80133,0c-0.79999,0 -1.79999,0 -2.60001,0c-1,0 -1.81064,0 -2.68533,0c-0.99866,0 -1.81467,0 -2.63065,0c-0.99734,0 -1.83734,0 -2.80133,0c-0.85202,0 -1.89252,0 -2.668,0c-1.048,0 -1.76202,0 -2.66736,0c-0.96881,0 -1.78333,0 -2.65182,0c-0.89551,0 -1.79099,0 -2.65948,0c-1.06934,0 -1.77884,0 -2.6315,0c-1.00452,0 -1.8045,0 -2.8045,0c-0.80002,0 -1.80002,0 -2.58932,0c-1.04401,0 -1.836,0 -2.69601,0c-0.72534,0 -1.71466,0 -2.51468,0c-1,0 -1.79999,0 -2.59998,0c-1,0 -1.80002,0 -2.79868,0c-0.94415,0 -1.84866,0 -2.76801,0c-0.83334,0 -1.81216,0 -2.64316,0c-0.95816,0 -1.69019,0 -2.42218,0c-1.10666,0 -2.08917,0 -2.90665,0c-0.948,0 -1.71469,0 -2.62134,0c-0.90668,0 -1.81866,0 -2.74002,0c-0.91064,0 -1.82147,0 -2.52081,0c-0.97919,0 -1.9375,0 -2.86935,0c-0.7565,0 -1.76248,0 -2.45715,0c-1.01666,0 -2.00272,-0.13167 -2.75266,0.22133c-0.77554,0.36505 -1.60001,0.77641 -2.5,0.77867c-0.90002,0.00226 -1.80002,0 -2.70001,0c-0.89999,0 -1.79999,0 -2.70001,0c-0.79999,0 -1.69998,0 -2.59998,0c-0.90002,0 -1.80002,0 -2.70001,0c-0.89865,0 -1.75266,0 -2.70001,0c-0.79999,0 -1.69998,0 -2.59998,0c-0.90002,0 -1.80002,0 -2.70001,0c-0.89999,0 -1.79999,0 -2.70001,0c-0.83331,0 -1.7045,0 -2.59998,0c-0.90002,0 -1.80002,0 -2.70001,0c-0.89999,0 -1.79999,0 -2.70001,0c-0.83331,0 -1.70448,0 -2.56398,0c-0.88268,0 -1.75734,0 -2.61067,0c-0.94,0 -1.92534,0 -2.82533,0l-0.8,0" id="svg_5" stroke-width="2" stroke="#000" fill="none"/>
  <path t="33512,33728,33736,33737,33737,33744,33753,33753,33760,33769,33776,33776,33786,33786,33792,33792,33801,33801,33809,33809,33809,33816,33816,33824,33824,33832,33832,33832,33840,33840,33840,33852,33852,33856,33856,33865,33865,33872,33872,33872,33882,33882,33882,33889,33897,33897,33897,33904,33904,33912,33912,33920,33920,33928,33928,33928,33936,33937,33944,33944,33944,33952,33952,33953,33960,33960,33968,33968,33968,33976,33976,33976,33984,33984,33984,33992,33992,33992,34000,34000,34008,34008,34016,34016,34024,34032,34032,34048,34048,34056,34064,34072,34081,34088,34088,34098,34098,34104,34112,34112,34120,34120,34128,34152,34168,34168,34237,34624,34632,34648,34656,34672,34672,34680,34680,34688,34697,34704,34704,34713,34714,34714,34720,34720,34728,34728,34736,34744,34744,34752,34752,34760,34760,34769,34769,34769,34776,34776,34784,34785,34792,34792,34800,34800,34800,34808,34808,34808,34816,34816,34816,34824,34824,34824,34832,34832,34832,34840,34840,34840,34848,34848,34848,34848,34856,34856,34856,34864,34864,34864,34872,34872,34880,34880,34880,34888,34897,34904,34904,34913,34913,34920,34920,34928,34944,34944,34952,34968,35248,35262,35312,35320,35330,35336,35344,35352,35352,35360,35368,35369,35376,35385,35392,35400,35408,35416,35416,35424,35432,35440,35440,35448,35448,35456,35456,35464,35464,35472,35480,35480,35488,35496,35496,35504,35504,35513,35513,35529,35536,35544,35544,35560,35560,35569,35576,35577,35585,35585,35593,35601,35601,35609,35609,35617,35624,35632,35641,35648,35649,35656,35665,35665,35672,35672,35688,35688,35704,35704,35713,35721,35730,35730,35737,35737,35746,35753,35753,35761,35761,35768,35768,35777,35785,35786,35793,35801,35809,35817,35817,35825,35833,35840,35856,35864,35872,35912,35944,35976" d="m296.51135,207.09091c1.04169,-1 2.00876,-1.14137 2.78934,-1.42534c0.73434,-0.26714 1.78586,-0.48801 2.41068,-1.14267c0.48721,-0.51047 1.10538,-1.30966 1.78534,-1.85733c0.59418,-0.47856 1.42398,-0.55067 2.41333,-0.57599c0.76587,-0.01959 1.71616,-0.28584 2.354,-0.70317c0.90729,-0.59361 1.47308,-0.95177 2.66867,-1.174c0.79489,-0.14775 1.35339,-0.10612 2.65698,-0.12167c0.67505,-0.00806 1.77856,-0.12535 2.42166,-0.52066c0.85641,-0.52644 1.33429,-0.90631 2.18668,-1.27917c0.98404,-0.43045 1.80728,-0.70099 2.36066,-0.84283c1.25555,-0.32184 1.93179,-0.33984 2.95267,-0.35716c0.78931,-0.01338 1.84375,-0.14717 2.52084,-0.52083c0.82587,-0.45575 1.48834,-0.78093 2.2645,-1.07918c1.04709,-0.40236 1.73877,-0.73036 2.55301,-1.04283c0.89499,-0.34346 1.83713,-0.50294 2.49768,-0.79317c0.7764,-0.34111 1.76398,-0.86401 2.36398,-1.164c0.99982,-0.49986 1.55139,-0.89201 2.63333,-1.23332c0.67023,-0.21143 1.70981,-0.14999 2.41733,-0.17734c0.7449,-0.02879 1.92004,-0.39789 2.55469,-0.63667c0.9375,-0.35274 1.73618,-0.34094 2.59732,-0.35133c0.89709,-0.01082 1.78668,-0.00125 2.64017,-0.00133c1.03568,-0.00009 1.95087,0.05855 2.95715,-0.16667c0.61722,-0.13814 1.44534,-0.53725 2.42136,-0.71199c0.79703,-0.1427 1.63992,-0.10397 2.65732,-0.34283c0.70905,-0.16647 1.59769,-0.5997 2.60535,-0.97717c0.53745,-0.20132 1.35394,-0.48967 2.39432,-0.67999c0.87384,-0.15987 1.87982,-0.38309 2.547,-0.696c0.83615,-0.39217 1.72202,-0.42308 2.62201,-0.42534c0.91934,-0.0023 1.75266,0 2.73132,0c0.77402,0 1.66959,0.01242 2.68802,0c0.85434,-0.01042 1.53964,-0.53526 2.4335,-0.87849c0.74152,-0.28474 1.74561,-0.02411 2.41583,-0.20683c1.01984,-0.27803 1.49603,-1.14368 2.24115,-1.55751c0.82562,-0.45856 1.75885,-0.35414 2.70117,-0.35716c0.89883,-0.00288 1.67981,-0.38652 2.34167,-0.716c0.85706,-0.42662 1.81067,-0.284 2.69998,-0.284c0.90002,0 1.827,-0.08746 2.66669,0.16667c0.86664,0.2623 1.66116,0.84058 2.29166,1.3125c0.70496,0.52766 1.59842,0.41389 2.52051,0.74216c0.72403,0.25775 1.56085,0.68729 2.27182,0.74268c0.979,0.07628 1.944,0.036 2.71735,0.036c1.03284,0 1.74533,0 2.77866,0c0.82401,0 1.66235,0 2.65335,0c0.79999,0 1.79999,0 2.59998,0c1,0 1.8092,-0.0567 2.60001,0.08533c1.01456,0.18221 1.71429,0.67137 2.65186,0.8575c0.7059,0.14014 1.758,0.05717 2.53348,0.05717c1.048,0 1.98935,0 2.66733,0c0.96869,0 1.77267,0 2.59467,0c1.03134,0 1.95267,0 2.63669,0c1.00131,0 1.83682,0 2.71732,0c1.19867,0 1.79868,0 2.69867,0c1.20001,0 1.80002,0 2.70001,0c1.19998,0 1.79999,0 2.69998,0c0.90002,0 1.80002,0 2.70001,0c0.89999,0 1.79999,0 2.69101,0c0.83701,0 1.77567,0 2.60898,0c1.04269,0 1.75067,0 2.49469,0c1.19098,0 2.10532,0 3.00531,0c0.81436,0 1.76898,-0.03943 2.47919,0.02083c1.0275,0.08717 1.56622,0.83388 2.4075,0.97784c0.9252,0.15833 1.62933,0.00133 2.70267,0.00133c0.91064,0 2.31891,-0.26311 2.38983,0.5c0.06012,0.64711 -1.27917,0.5 -2.17917,0.5c-0.89999,0 -1.95203,-0.34128 -2.63333,0.16667c-0.57571,0.42923 -0.98431,1.33458 -2,1.66666c-0.73373,0.23988 -1.66669,0.16667 -2.56668,0.16667c-0.89999,0 -1.79999,0 -2.69998,0c-0.90002,0 -1.67868,0.12206 -2.5,0.57466c-0.79172,0.43631 -1.73822,0.61115 -2.40002,0.94617c-0.85764,0.43416 -1.44644,1.09576 -2.32132,1.35767c-0.82437,0.24677 -1.79468,0.11716 -2.56265,0.12151c-0.94138,0.00534 -2.05884,0.02051 -2.57434,0.52083c-0.729,0.70753 -1.1239,1.33507 -1.89349,1.53185c-0.91638,0.23431 -1.50406,0.79539 -2.30084,1.24283c-0.83679,0.46991 -1.7244,0.54805 -2.64734,0.709c-0.93005,0.16219 -1.4234,0.75462 -2.35266,1.291c-0.67264,0.38826 -1.61224,0.58806 -2.51401,0.87117c-0.67514,0.21196 -1.65518,0.73985 -2.42267,0.82266c-0.92618,0.09993 -1.90204,-0.05991 -2.58533,0.04666c-0.96091,0.14987 -1.57031,0.82579 -2.22534,1.35333c-0.74451,0.59961 -1.73645,0.61978 -2.45065,1.04668c-0.85144,0.50893 -1.22299,1.29128 -2.01068,1.53867c-0.94525,0.29688 -1.58246,0.58591 -2.34,1.224c-0.6553,0.55197 -1.46423,0.69977 -2.39999,0.88533c-0.80539,0.1597 -1.70737,0.59924 -2.33734,1.30533c-0.51678,0.57921 -1.2059,1.2258 -1.69733,1.76001c-0.62012,0.6741 -1.53848,0.84 -2.47867,0.85066c-0.88528,0.01004 -1.772,-0.04088 -2.72134,0.01067c-0.76782,0.04169 -1.76385,0.32185 -2.44965,0.63667c-0.89471,0.41074 -1.59454,0.75668 -2.23169,1.15399c-0.87469,0.54543 -1.68729,1.07375 -2.58264,1.19884c-0.90649,0.12665 -1.59042,0.42387 -2.37918,0.99983c-0.64029,0.46753 -1.22543,0.98714 -2.12082,1c-0.87933,0.01262 -1.39551,0.64734 -2.01068,1l-0.8685,0.02083l-0.54617,0.55383" id="svg_6" stroke-width="2" stroke="#000" fill="none"/>
  <path t="39136,39232,39256,39272,39288,39296,39312,39328,39346,39367,39367,39375,39384,39407,39423,39447,39463,39479,39495,39495,39503,39519,39575,39584,39607,39631,39631,39640,39664,39687,39711,39727,39743,39759,39768,39799,39807,39831,39863,39871,39887,39895,39951,39959,39975,39992,39999,40015,40023,40040,40040,40057,40066,40103,40127,40151,40151,40159,40183,40207,40224,40224,40239,40239,40255,40287,40295,40311,40311,40319,40351,40351,40367,40407,40432,40440,40458,40474,40480,40481,40504,40513,40521,40529,40537,40553" d="m303.51135,290.09091c-1.69998,0 -2.59998,0 -3.5,0c-0.89999,0 -1.92444,-0.02884 -2.47916,0.5c-0.4902,0.46732 -1.41394,0.29794 -2.21948,0.78534c-0.62436,0.37778 -0.4361,1.51242 -0.83734,2.27866c-0.39713,0.75833 -1.44714,1.04318 -1.87866,1.72134c-0.49316,0.77505 -0.08536,1.81467 -0.08536,2.71466c0,0.79999 0,1.70001 0,2.564c0,0.95685 -0.09543,1.88052 0.28403,2.63602c0.43558,0.86719 0.52863,1.63187 0.77316,2.5c0.21442,0.76126 0.56274,1.79019 1.29999,2.24283c0.80136,0.492 1.62732,0.47366 2.14282,1.05716c0.56357,0.63788 1.20303,1.05536 2,1.5c0.79852,0.44553 1.70001,0.5 2.60001,0.5c0.89999,0 1.7785,0 2.60452,0c0.89548,0 1.79547,0 2.6955,0c0.89999,0 1.79999,0 2.69998,0c0.89999,0 1.70001,0 2.61469,0c0.93265,0 1.16809,-0.55292 1.56934,-1.28534c0.43307,-0.79053 0.51938,-1.54919 0.77316,-2.41467c0.25726,-0.87741 0.91422,-1.60306 0.94281,-2.46664c0.02759,-0.83289 0,-1.81186 0,-2.63202c0,-0.91599 0.26007,-1.86371 -0.04166,-2.70132c-0.29681,-0.82397 -1.30344,-0.93893 -1.84399,-1.7955c-0.48853,-0.77408 -0.58655,-1.65121 -1.16699,-2.34732c-0.49313,-0.59137 -1.36972,-1.04337 -2.24734,-1.30002c-0.86557,-0.25311 -1.85425,0.12616 -2.70001,-0.22382c-0.78461,-0.32468 -1.51437,-0.68069 -2.39999,-0.84402c-0.83011,-0.15311 -1.51599,-0.90399 -2.31598,-1.07465l-0.45068,-0.74802" id="svg_7" stroke-width="2" stroke="#000" fill="none"/>
  <path t="41192,41248,41264,41272,41304,41336,41352,41361,41377,41384,41392,41416,41424,41440,41472,41504,41504,41528,41560,41568,41584,41600,41624,41648,41648,41656,41664,41672,41689,41689,41696,41706,41713,41721,41721,41752,41784,41816,41846,41864,41880,41889,41912,41928,41937,41960,41976,41976,42000,42016,42040,42072,42072,42080,42096,42107,42112,42122,42127,42144,42160,42160,42184,42216,42224,42248,42280,42320,42328,42337" d="m332.51135,295.09091c-1.69998,0 -2.59998,0 -3.5,0c-0.89999,0 -1.89795,0.00006 -2.5,0.5c-0.61972,0.51459 -1.44009,0.90332 -1.91599,1.69867c-0.41394,0.69183 -1.06601,1.23679 -1.08401,2.10132c-0.01871,0.8985 0,1.784 0,2.70001c0,0.79999 0,1.70001 0,2.60001c0,0.89999 -0.11148,1.91696 0.52084,2.39999c0.68115,0.52032 1.40298,1.09399 2.07916,1.564c0.80582,0.56012 0.96899,1.07919 1.44168,1.91516c0.4003,0.70795 1.47568,0.51462 2.4375,0.52084c0.92087,0.00598 1.6554,0.39426 2.52081,0.83334c0.67542,0.34268 1.01007,1.14865 1.80136,1.16666c0.89841,0.02045 1.79868,0.0054 2.69864,0c0.8894,-0.00534 1.48581,-0.63132 2.11069,-1.02533c0.74854,-0.47198 1.89233,-0.46408 2.38931,-1.14133c0.49301,-0.67184 -0.43787,-1.81223 0.16669,-2.66669c0.46829,-0.66187 0.83331,-1.26666 0.83331,-2.16666c0,-0.79999 0,-1.70001 0,-2.60001c0,-0.89999 0.18484,-2.04718 -0.52081,-2.37915c-0.86737,-0.40805 -1.35934,-0.43002 -1.76318,-1.22086c-0.33621,-0.65842 -0.76459,-1.62955 -1.51733,-1.79865c-0.87866,-0.19739 -1.69867,-0.50134 -2.49866,-0.94418l-0.89999,-0.05716l-0.89984,0l-0.90018,0" id="svg_8" stroke-width="2" stroke="#000" fill="none"/>
 </g>
 <g display="none">
  <title>muse_image</title>
  <image xlink:href="http://farm3.static.flickr.com/2083/2212246975_4a92fd2c73.jpg" id="muse" height="480" width="640" y="0" x="0"/>
 </g>
 <g display="none">
  <title>bbox</title>
  <rect stroke="#f00" fill="none" stroke-width="3" height="247.04" width="622.08" y="117.76" x="17.92" id="bbox"/>
 </g>
</svg>
