<svg width="640" height="480" xmlns="http://www.w3.org/2000/svg" xmlns:svg="http://www.w3.org/2000/svg" xmlns:xlink="http://www.w3.org/1999/xlink">
 <!-- Sketchy ANNOTATION
  ImageNet ID: n02691156_10578
  URL: http://farm1.static.flickr.com/194/523361780_ff5952d581.jpg
  Image Width: 490
  Image Height: 500
  BBox X: 186
  BBox Y: 107
  BBox Width: 80
  BBox Height: 29
  Exposure: 2000ms
  Synset Label: airplane
  Synset ID: n02691156
  Worker Tag: flying machine
  Sanity Check: 
   Saved
  Comment: 
   {}
  Worker ID: A1CVM8I2566ILI
  Assignment ID: 3VELCLL3GKJWGEUWRXQK6AI0MCU1FG
  HIT ID: 3BFNCI9LYKQDO4VB6G1PHRPVH1D371
  Work Time: 95s
  Worker Score: 0.7143
 END ANNOTATION -->
 <g display="inline">
  <title>Layer 1</title>
  <path t="0,282,305,335,359,391,495,495,536,536,576,632,632,687,840,912,936,960,968,1000,1009,1024,1056,1056,1065,1080,1112,1112,1128,1128,1152,1152,1167,1183,1207,1207,1223,1223,1231,1247,1263,1271,1287,1287,1295,1304,1304,1311,1320,1327,1327,1336,1343,1343,1351,1359,1359,1367,1367,1375,1375,1375,1383,1383,1391,1391,1400,1400,1407,1407,1407,1415,1415,1416,1423,1423,1431,1432,1439,1439,1447,1455,1455,1463,1472,1487,1487,1495,1495,1503,1503,1511,1519,1527,1527,1535,1535,1544,1551,1551,1567,1584,1584,1592,1592,1600,1601,1616,1616,1623,1623,1631,1639,1639,1647,1663,1663,1671,1671,1679,1695,1695,1711,1711,1711,1727,1727,1743,1759,1759,1767,1767,1775,1799,1799,1808,1808,1824,1824,1871,1871,1879,1879,1887,1887,1895,1903,1912,1912,1919,1919,1927,1934,1943,1943,1951,1960,1976,1976,1984,1984,1984,1999,2007,2007,2016,2032,2032,2048,2048,2048,2063,2063,2079,2079,2090,2090,2095,2095,2095,2104,2111,2111,2122,2122,2127,2127,2135,2135,2135,2143,2143,2158,2158,2159,2167,2167,2167,2175,2191,2191,2223,2263,2281,2303,2320,2336,2352,2375,2375,2391,2408,2416,2423,2447,2447,2455,2455,2479,2487,2487,2544,2544,2632,2655,2671,2687,2687,2704,2735,2743,2775,2783,2799,2799,2824,2848,2863,2871,2895,2999,3079,3103,3103,3143,3456,3489,3512,3544,3544,3560,3560,3575,3584,3616,3639,3688,3712,3712,3760,3920,3920,4031,4031,4031" d="m140,169c0.61067,-1.60001 1.23297,-2.39638 2,-2.83333c0.77986,-0.44426 1.33139,-0.89534 2,-1.5c0.63051,-0.57019 0.89951,-1.59583 1.5,-2.125c0.70345,-0.6199 1.73865,-0.6447 2.21466,-1.343c0.51079,-0.74933 0.98834,-1.25401 1.78534,-1.69867c0.79852,-0.44551 1.71259,-0.3502 2.59984,-0.50017c0.85202,-0.144 1.26814,-0.84915 2.20016,-1.00433c0.81761,-0.13614 1.51463,-0.67606 2.3,-1.02083c0.82773,-0.36337 1.71634,-0.89603 2.39999,-0.95384c0.97542,-0.08249 1.8929,-0.08183 2.65266,-0.37349c0.87447,-0.33569 1.71663,-0.54431 2.65184,-0.65184c0.87155,-0.1002 1.6693,-0.57047 2.52882,-0.82883c0.73926,-0.22221 1.66667,-0.16667 2.56667,-0.16667c0.90001,0 1.85687,0.16277 2.70001,-0.22133c0.78001,-0.35535 1.53595,-0.77333 2.38399,-0.77867c0.86333,-0.00543 1.88,0 2.716,0c0.90018,0 1.68533,0 2.62534,0c1.008,0 1.76401,0 2.6955,0c0.96451,0 1.68983,0 2.67917,0c0.8,0 1.8,0 2.60001,0c0.8,0 1.8,0 2.59999,0c1,0 1.8,0 2.8,0c0.8,0 1.8,0 2.61067,0c0.87466,0 1.87334,0 2.68933,0c0.81599,0 1.81467,0 2.68933,0c1.0105,0 1.78984,0 2.644,0c0.86217,0 1.80267,0 2.65067,0c0.86334,0 1.88,0 2.716,0c0.90033,0 1.61433,0 2.56801,0c0.98132,0 1.89867,0 2.69032,0c0.94167,0 1.84618,0 2.70834,0c0.83333,0 1.81183,0 2.63199,0c0.95851,0 1.854,0 2.54868,0c1.02733,0 1.97417,0 2.86333,0c0.98917,0 1.76851,0 2.62267,0c0.91934,0 1.82384,0 2.57117,0c0.99417,0 1.75951,0 2.83833,0c0.85735,0 1.6425,0 2.5825,0c1.008,0 1.8,0 2.65866,0c0.86334,0 1.76334,0 2.68268,0c0.85416,0 1.83333,0 2.63333,0c0.8,0 1.7955,0 2.54283,0c1.03183,0 1.9785,0 2.83183,0c0.94133,0 1.70934,0 2.65067,0c1.008,0 1.8,0 2.66,0c0.91916,0 1.91466,0 2.71468,0c0.99982,0 1.77914,0 2.63333,0c0.91931,0 1.81934,0 2.51398,0c1.01669,0 1.95718,0 2.81934,0c0.83334,0 1.81183,0 2.63202,0c0.90134,0 1.83731,0 2.68533,0c0.86331,0 1.88,0 2.71732,0c0.96533,0 1.63467,0 2.79868,0c0.78934,0 1.51468,0 2.5,0c0.98401,0 1.67465,0 2.74734,0c0.91931,0 1.58865,0 2.75266,0c0.79999,0 1.60001,0 2.60001,0c0.79999,0 1.79999,0 2.60001,0c1,0 1.79999,0 2.79999,0c0.78934,0 1.51468,-0.00067 2.5,0c0.98401,0.00067 1.71378,-0.08159 2.616,0.284c0.81668,0.33093 1.5481,0.64613 2.34567,0.76868c0.96307,0.14796 1.75906,0.39049 2.58566,0.59467c1.02576,0.25339 1.91086,0.34224 2.93115,0.35266c0.71698,0.00732 1.70062,0.00529 2.56418,0.22133c0.71478,0.17882 1.43091,0.53009 2.64301,0.72151c0.80634,0.12735 1.61432,0.05716 2.51434,0.05716c0.89999,0 1.79999,0 2.69998,0c0.89999,0 1.80002,0 2.70001,0c0.89999,0 1.69998,0 2.60001,0c0.89999,0 1.79999,0 2.71066,0c0.91064,0 1.76398,0 2.70532,0c0.76801,0 1.70935,0 2.71735,0c0.79199,0 1.65067,0 2.51398,0c1.01669,0 1.85269,0 2.75269,0c0.89999,0 1.69998,0 2.60001,0c0.89999,0 1.79999,-0.00224 2.69998,0c0.89999,0.00226 1.73837,0.38608 2.39999,0.716c0.84338,0.42056 1.80002,0.284 2.70001,0.284c0.89999,0 1.79999,0 2.70001,0c0.89999,0 1.79999,0 2.59998,0c0.90002,0 2.02567,-0.01285 2.19553,0.7045c0.21478,0.90695 -0.24042,1.80002 -0.60617,2.47017c-0.53116,0.97325 -0.99646,1.53677 -1.41467,2.42534c-0.37891,0.80505 -1.27838,1.1595 -1.89066,1.68399c-0.65826,0.5639 -0.76044,1.36787 -1.16803,2.14801c-0.42004,0.80396 -1.08264,1.40132 -1.73483,1.62067l-0.94916,0.23267l-0.73199,0.23549l-0.73199,0.2805" id="svg_1" stroke-width="2" stroke="#000" fill="none"/>
  <path t="5554,5632,5648,5657,5663,5687,5697,5713,5713,5728,5745,5751,5775,5791,5807,5815,5815,5832,5839,5839,5856,5871,5871,5871,5887,5887,5887,5901,5901,5903,5919,5928,5928,5937,5937,5943,5943,5951,5959,5959,5967,5975,5991,5991,5999,5999,6015,6015,6023,6023,6031,6032,6039,6047,6047,6055,6063,6071,6071,6079,6087,6087,6095,6095,6103,6103,6112,6119,6127,6127,6135,6143,6143,6151,6159,6159,6167,6167,6175,6175,6183,6191,6191,6199,6200,6207,6215,6215,6223,6231,6231,6239,6247,6255,6255,6271,6271,6280,6287,6287,6296,6296,6303,6311,6311,6319,6319,6335,6343,6343,6351,6359,6359,6367,6367,6375,6383,6384,6391,6391,6400,6400,6407,6407,6415,6416,6423,6423,6431,6431,6439,6439,6447,6447,6455,6463,6471,6471,6487,6503,6503,6503,6511,6511,6519,6519,6527,6535,6543,6543,6551,6551,6559,6559,6567,6576,6584,6584,6599,6599,6615,6615,6631,6631,6639,6639,6647,6647,6655,6655,6671,6681,6681,6703,6703,6720,6720,6736,6736,6743,6767,6767,6783,6783,6791,6791,6791,6807,6807,6815,6815,6832,6848,6865,6865,6887,6887,6905,6919,6943,6943,6951,6975,6975,6999,6999,7015,7015,7039,7055,7071,7072,7095,7111,7119,7143,7175,7199,7207,7208,7247,7287,7344,7368,7400,7424,7456,7456,7488,7528,7672,7672" d="m141,169c1.8,0 2.7,0 3.60001,0c0.89999,0 1.8058,-0.095 2.59999,0.00133c0.91977,0.11156 1.56686,0.84453 2.40001,0.98801c0.88699,0.15276 1.79999,0.01067 2.7,0.01067c0.89999,0 1.8,0 2.7,0c0.8,0 1.75717,0 2.65266,0c0.86334,0 1.73267,0 2.68066,0c0.92801,0 1.71851,0 2.74518,0c0.6855,0 1.52016,0 2.517,0c0.91916,0 1.76849,0 2.709,0c0.86217,0 1.71632,0 2.6955,0c0.78934,0 1.83333,0 2.58934,0c0.93149,0 1.89465,0 2.58533,0c1.06816,0 1.92534,0 2.82533,0c0.81433,0 1.76801,0 2.5,0c1.16667,0 1.83867,0 2.82133,0c0.85333,0 1.79466,0 2.56267,0c0.94133,0 1.94933,0 2.70534,0c0.91066,0 1.82132,0 2.73199,0c0.85333,0 1.79333,0 2.67867,0c0.75717,0 1.65717,0 2.60133,0c0.99417,0 1.7415,0 2.76266,0c0.836,0 1.73618,0 2.52133,0c0.94,0 1.948,0 2.70401,0c0.93149,0 1.896,0 2.62132,0c0.98917,0 1.76851,0 2.76784,0c0.82016,0 1.77867,0 2.67867,0c0.74733,0 1.7415,0 2.50684,0c1.07883,0 1.93617,0 2.72133,0c0.94,0 1.948,0 2.70401,0c0.91066,0 1.82132,0 2.73199,0c0.85333,0 1.79466,0 2.56267,0c0.94133,0 1.95906,-0.0929 2.74133,0.036c0.88187,0.14529 1.51311,0.66374 2.48933,0.87868c0.96605,0.21271 1.77066,0.08533 2.71066,0.08533c0.69067,0 1.67467,0 2.65866,0c0.86334,0 1.76334,0 2.68268,0c0.83333,0 1.81183,0 2.63199,0c0.83734,0 1.85851,0 2.60583,0c0.9955,0 1.7955,0 2.79533,0c0.77934,0 1.77884,0 2.55284,0c0.9045,0 1.65182,0 2.646,0c0.94417,0 1.85316,0 2.57066,0c1.03601,0 1.78,0 2.88766,0c0.83401,0 1.74301,0 2.66385,0c0.80048,0 1.65381,0 2.59515,0c1.05066,0 1.72,0 2.48532,0c0.99869,0 1.79868,0 2.79736,0c0.94415,0 1.84415,0 2.80133,0c0.90015,0 1.68533,0 2.63599,0c0.76532,0 1.75949,0 2.50684,0c1.02118,0 1.96167,0 2.82382,0c0.83334,0 1.81201,0 2.586,0c0.90451,0 1.65186,0 2.64734,0c0.80002,0 1.80002,0 2.60001,0c1,0 1.78934,0 2.83334,0c0.86215,0 1.6875,0 2.65198,0c0.72534,0 1.71469,0 2.51468,0c1,0 1.78934,0 2.83334,0c0.86215,0 1.6875,0 2.65198,0c0.72534,0 1.71469,0 2.51468,0c1,0 1.79999,0 2.60001,0c1,0 1.79999,0 2.79868,0c0.94415,0 1.84415,0 2.80264,0c0.96533,0 1.62402,0 2.63202,0c0.86215,0 1.76666,0 2.6875,0c0.80048,0 1.65381,0 2.59381,0c0.9855,0 1.77069,0 2.72134,0c0.76532,0 1.75949,0 2.50684,0c1.02118,0 2.00723,0.13168 2.75717,-0.22133c0.77551,-0.36504 1.49994,-0.77333 2.39999,-0.77867c0.89996,-0.00533 1.79999,0 2.70001,0c0.89999,0 1.79999,0 2.59998,0c0.90002,0 1.80002,0 2.70001,0c0.89999,0 1.80652,0.10696 2.70001,-0.00133c0.91977,-0.11148 1.59998,-0.71468 2.39999,-0.98801l0.92084,-0.03149l0.80048,-0.2005l0.85333,-0.35333" id="svg_2" stroke-width="2" stroke="#000" fill="none"/>
  <path t="9688,9880,9888,9906,9920,9935,9960,9960,9967,9991,9991,10007,10023,10023,10031,10055,10055,10055,10079,10079,10095,10095,10103,10127,10135,10159,10160,10175,10183,10199,10199,10207,10215,10231,10239,10257,10327,10327,10415,10415,10439,10447,10447,10463,10479,10512,10512,10543,10543,10568,10575,10591,10616,10616,10640,10640,10655,10672,10687,10695,10695,10711,10743,10767,10783,10823,10864,10897,10911,10911,10959,10983,11031,11088" d="m197,150c1.22133,-0.87866 1.90044,-1.39169 2.42534,-1.97467c0.53047,-0.58917 0.92776,-1.32907 1.57466,-2.02533c0.5605,-0.60327 0.90222,-1.43381 1.35266,-2.3045c0.3148,-0.60851 0.47923,-1.55885 0.81401,-2.52882c0.23712,-0.68703 0.71924,-1.48918 1,-2.33334c0.29182,-0.87741 0.62152,-1.44136 1.13333,-2.42883c0.39006,-0.75256 1.02344,-1.44089 1.41466,-2.20316c0.43106,-0.83992 0.20964,-1.86775 0.72134,-2.60133c0.47112,-0.6754 1.14423,-1.19232 1.564,-2.10001c0.36697,-0.79353 0.73688,-1.53689 1.084,-2.3c0.38858,-0.85425 0.77802,-1.713 1.43683,-2.2c0.68597,-0.50708 1.22668,-1.15309 1.64584,-2c0.34406,-0.69517 0.86716,-1.36553 1.43333,-2.13866c0.54054,-0.73812 1.40039,-0.8867 2.2,-0.86134c0.90135,0.02859 1.74364,0.47873 2.39867,1.20133c0.47786,0.52715 0.65231,1.47221 0.88533,2.31467c0.24368,0.88104 0.87329,1.68097 0.916,2.584c0.04253,0.89899 0.02051,1.6701 0.35266,2.55267c0.26579,0.70622 0.62933,1.71075 0.64734,2.54733c0.01936,0.8998 0,1.8 0,2.60001c0,0.89999 0,1.8 0,2.7c0,0.89999 0,1.8 0,2.7c0,0.90001 0,1.8 0,2.60001c0,0.89999 0,1.8 0,2.7l0,0.89999" id="svg_3" stroke-width="2" stroke="#000" fill="none"/>
  <path t="19856,20000,20007,20018,20024,20032,20040,20050,20050,20056,20065,20071,20079,20087,20095,20103,20120,20120,20127,20127,20127,20135,20135,20143,20159,20159,20167,20167,20178,20188,20188,20193,20206,20220,20224,20231,20231,20239,20246,20255,20262,20278,20295,20295,20310,20319,20340,20340,20342,20358,20358,20375,20375,20383,20400,20400,20416,20431,20431,20447,20447,20456,20471,20471,20479,20495,20527,20543,20543,20552,20568,20575,20583,20602,20607,20607,20615,20631,20647,20647,20663,20687,20703,20711,20727,20735,20751,20783,20799,20823,20823,20839,20887,20887" d="m200,174c1.7,0.05716 2.45247,0.53761 2.94733,1.2955c0.45406,0.6954 1.07211,1.37569 1.90334,1.67917c0.78745,0.28751 1.05974,0.98099 1.76001,1.58932c0.73363,0.63731 1.40877,1.10719 2.23999,1.41068c0.78745,0.28751 1.48421,0.75342 2.06667,1.31067c0.70056,0.67024 1.12082,1.22148 2.08267,1.71466c0.59335,0.30423 1.38852,0.63657 2.24283,1.3c0.59048,0.45856 1.24956,1.23907 1.92384,1.7c0.80229,0.54842 1.64497,1.0307 2.3125,1.47917c0.69963,0.47003 1.73477,0.63864 2.16367,1.22533c0.55521,0.75946 1.06113,1.34914 1.85716,1.7955c0.79947,0.44829 1.73865,0.60303 2.21466,1.30133c0.51079,0.74933 1.12117,1.0024 1.98534,1.25583c0.87744,0.25732 1.56706,0.70657 2.40001,1.16434c0.67502,0.37097 1.23465,1.27808 2,1.65717c0.84677,0.41942 1.60045,0.76762 2.39999,1.12134c0.80498,0.35611 1.37292,0.82127 2.32533,1.39999c0.6821,0.41447 1.34273,1.02049 2.17467,1.43333c0.75098,0.37267 1.48848,0.73509 2.32133,1.26651c0.65543,0.4182 1.68968,0.67741 2.37416,0.95284c0.86353,0.34746 1.42589,1.2549 2.10451,1.66199c0.73595,0.44148 1.55034,0.80278 2.39999,1.20134c0.86043,0.40361 1.51297,0.70183 2.40001,1.10933c0.81276,0.37338 1.63235,0.65613 2.31599,1.25867c0.59764,0.52675 1.2995,0.98386 1.884,1.51733c0.71971,0.65688 1.54704,1.03506 2.3,1.42c0.76318,0.39017 1.49994,0.77333 2.39999,0.77867c0.89996,0.00533 1.82852,-0.03941 2.5,0.5c0.60699,0.48763 1.04398,1.35428 1.80133,1.49867c0.93893,0.179 1.85135,0.00133 2.71466,0.00133l0.85867,0.01067l0.94684,0.21066l0.69934,0.27867" id="svg_6" stroke-width="2" stroke="#000" fill="none"/>
  <path t="25665,25728,25735,25751,25751,25768,25775,25775,25783,25791,25807,25823,25823,25831,25839,25847,25847,25864,25880,25881,25887,25895,25895,25919,25943,25943,25951,25952,25959,25959,25975,25991,25999,25999,26015,26039,26055,26055,26071,26095,26095,26119,26127,26127,26143,26175,26191,26191,26239,26239,26263,26287,26335,26335,26376,26384,26415,26415,26431,26431,26447,26479,26495,26535,26543,26583,26736,26744" d="m228,169c1.60001,0.61067 2.42618,1.21675 2.83333,2c0.38667,0.74385 0.70847,1.48029 1.36534,2.2c0.53348,0.5845 0.85986,1.43304 1.60266,1.884c0.70435,0.42761 1.40137,1.11331 1.99867,1.716c0.59201,0.59734 0.94344,1.47855 1.42149,2.29984c0.36559,0.62808 1.47055,0.90782 1.75317,1.76149c0.20901,0.63135 0.55083,1.61353 1.12517,2.23868c0.54747,0.5959 0.87314,1.55382 1.1855,2.38533c0.27956,0.74417 0.66881,1.53998 1.11465,2.29333c0.54582,0.92229 1.08356,1.40334 1.76668,2.05466c0.63368,0.60417 1.32729,0.88019 2.12799,1.21935c0.76361,0.32344 1.03723,1.27141 1.70534,1.94733c0.57889,0.58565 1.46405,0.84386 2.2,1.28534c0.67862,0.40709 1.27457,1.2411 2,1.91333c0.58046,0.53789 1.23575,1.04341 1.96667,1.63466c0.6978,0.56447 1.43597,0.77466 2.13332,1.46667c0.50192,0.49808 1.16312,1.24886 2,1.64732c0.86804,0.4133 1.56119,0.79938 2.08936,1.45267c0.60214,0.74483 0.84363,1.69189 1.31516,2.35718c0.50803,0.71678 0.83881,1.43825 1.591,2.133c0.63519,0.58669 1.41653,0.98875 1.69382,1.7205c0.33823,0.89253 0.65802,1.442 1.00934,2.19066l0.08667,0.91333" id="svg_8" stroke-width="2" stroke="#000" fill="none"/>
  <path t="30392,30544,30600,30632,30735,30776,30792,30808,30832,30839,30839,30904,31071,31103,31128,31152,31215,31391,31471,31656" d="m177,158c-0.05716,1.7 -0.6862,2.42236 -0.94284,3.3c-0.25311,0.86555 -0.45192,2.08293 0.22818,2.61467c0.72369,0.56583 1.81467,0.08533 2.71466,0.08533c0.8,0 1.81339,0.3934 2.564,-0.036c0.69064,-0.3951 0.436,-1.56401 0.436,-2.464c0,-0.89999 -0.0045,-1.7955 -0.436,-2.47467l-0.76399,-0.30933" id="svg_9" stroke-width="2" stroke="#000" fill="none"/>
  <path t="32632,32960,32960,33168,33240,33320,33440,33576,33615,33672,33711,33735,33783,33847,33879,33879,33927,33967,33984" d="m187,160c1.16667,1 1.39911,1.70926 2,2.47917c0.48958,0.62729 1.5,0.52309 2.39999,0.52083c0.89552,-0.00226 1.582,-0.43544 1.60001,-1.3c0.01874,-0.8998 0.08868,-1.80438 0,-2.7c-0.08374,-0.8457 -1,-1 -1.8,-1l-0.89999,0l-0.90001,0l-0.89999,0" id="svg_10" stroke-width="2" stroke="#000" fill="none"/>
  <path t="34529,34648,34832,34856,34880,34895,34927,34927,35160,35232,35247,35360,35439,35480,35496,35520,35527,35543,35576,35616" d="m200,159c0,1.8 -0.14664,2.72333 0.436,3.38933c0.61049,0.69783 1.664,0.61067 2.564,0.61067c0.8,0 1.85936,0.47044 2.64284,-0.05716c0.68419,-0.46075 0.75056,-1.75623 0.32117,-2.50684c-0.3951,-0.69064 -1.56401,-0.436 -2.464,-0.436c-0.89999,0 -1.8,0 -2.7,0l-0.90001,0" id="svg_11" stroke-width="2" stroke="#000" fill="none"/>
  <path t="48009,48120,48128,48136,48152,48152,48159,48168,48168,48175,48184,48192,48200,48200,48207,48207,48216,48216,48223,48223,48232,48232,48240,48240,48248,48248,48257,48264,48273,48280,48280,48288,48307,48311,48343,48343,48353,48363,48381,48383,48393,48399,48407,48431,48431,48440,48440,48456,48456,48456,48464,48464,48471,48479,48480,48487,48503,48527,48527,48551,48551,48583,48607,48616,48632,48672,48672,48680,48680,48704,48720,48736,48752,48784,48784,48808,48824,48848,48848,48993,49057,49096,49128,49160,49161,49201,49256,49256,49569,49569,49608,49632,49632,49640,49655,49671,49672,49679,49688,49688,49704,49720,49729,49752,49752,49762,49762,49784,49784,49800,49800,49824,49840,49863,49863,49879,49879,49888,49904,49920,49920,49936,49936,49952,49961,49976,49992,49992,50008,50032,50048,50055,50055,50072,50072,50080,50104,50127,50176,50176,50192,50192,50207,50218,50255,50271,50303,50303,50335,50448,50497,50513" d="m304,152c1.60001,-0.57466 2.51379,-0.7765 3.2955,-1.35716c0.67285,-0.49979 0.86111,-1.39877 1.72534,-1.64284c0.94589,-0.26712 1.76492,-0.49234 2.45831,-1c0.66104,-0.48399 0.89847,-1.54112 1.84216,-1.87866c0.64917,-0.23219 1.66925,-0.3237 2.30402,-0.73201c0.87589,-0.56342 1.58334,-0.93837 2.35315,-1.48933c0.64191,-0.45943 1.29559,-1.23769 1.90686,-1.7c0.72943,-0.55168 1.52545,-0.88631 2.00931,-1.84816c0.3725,-0.74045 1.08505,-1.02803 1.86252,-1.57317c0.71451,-0.50099 1.37082,-0.96732 1.94284,-1.48317c0.7272,-0.65579 0.90805,-1.60094 1.58533,-2.2115c0.64624,-0.58258 1.48679,-0.72377 2.104,-1.48399c0.603,-0.74271 0.94745,-1.45126 1.58533,-2.02534c0.57874,-0.52086 1.12112,-1.16656 1.72983,-1.68449c0.64627,-0.5499 0.99731,-1.29825 1.49551,-2.29017c0.30109,-0.59945 0.78909,-1.60561 1.19998,-2.38933c0.29233,-0.5576 0.88574,-1.46667 1.39999,-2.00934c0.68158,-0.71925 1.50385,-1.32496 1.91467,-2.00134c0.47141,-0.77613 1.0148,-1.41615 1.452,-2.2c0.36359,-0.65187 1.13712,-1.29624 1.63333,-1.8c0.68445,-0.69485 0.97577,-1.52681 1.20135,-2.39867c0.20865,-0.80643 1.112,-1.23516 1.49866,-1.82217c0.62158,-0.94368 1.10501,-1.549 1.47467,-2.37917c0.34891,-0.78355 0.55734,-1.79868 1.19199,-2.43333c0.63464,-0.63466 1.58313,-0.71238 1.8125,-1.66666c0.21045,-0.87562 0.38025,-1.65233 0.73685,-2.3c0.47549,-0.86368 1.08548,-1.21661 1.98401,-1.2c0.93649,0.01731 1.77472,0.3071 2.47464,0.57467c1.05536,0.40345 1.94217,0.32865 2.71069,0.51067c0.97629,0.23122 1.71078,0.6163 2.353,1.21467c0.74963,0.69846 0.56973,1.53318 0.81882,2.39999c0.2576,0.8964 0.87115,1.61634 0.93216,2.47467c0.06665,0.93771 0.25281,1.7791 0.65802,2.52533c0.4133,0.76112 0.35266,1.7 0.35266,2.6045c0,0.86217 0,1.6955 0,2.67417c0,0.774 0,1.6785 0,2.62267c0,0.99416 0,1.7415 0,2.6415c0,0.9585 0,1.92383 0,2.75716c0,0.83334 0.01022,1.69556 0,2.60001c-0.01044,0.92101 -0.24033,1.71371 -0.57468,2.57466c-0.36203,0.93222 -0.54855,1.60126 -1,2.42534c-0.42746,0.78027 -0.28876,1.75664 -0.70932,2.59999c-0.32993,0.66165 -0.76962,1.49947 -1.216,2.3c-0.44827,0.80397 -0.60617,1.69528 -0.936,2.31467c-0.48029,0.90186 -1.27905,1.3532 -1.564,2.18533c-0.28439,0.83054 -0.89429,1.37842 -1.22134,2.32133c-0.24042,0.69313 -0.69058,1.50087 -0.77417,2.37416c-0.08621,0.90041 0.04843,1.83925 -0.35715,2.60451c-0.4483,0.8459 -0.64734,1.7 -0.64734,2.5c0,0.89999 0,1.8 -0.02084,2.67917l-0.58981,0.51016" id="svg_14" stroke-width="2" stroke="#000" fill="none"/>
  <path t="51081,51192,51192,51208,51208,51216,51216,51216,51224,51232,51232,51240,51240,51256,51264,51272,51280,51296,51312,51320,51320,51344,51376,51376,51384,51384,51392,51408,51416,51424,51440,51456,51456,51465,51472,51481,51496,51512,51520,51520,51528,51552,51568,51576,51583,51599,51615,51632,51656,51656,51696,51720,51728,51736,51759,51792,51832,51856,51945,51945,52432,52432,52512,52512" d="m314,151c1.16666,-1 1.61832,-1.64072 2.3215,-2.10001c0.6745,-0.44058 1.68411,-0.88911 2.46783,-1.29999c0.55759,-0.29231 1.3743,-1.02954 2.21066,-1.43333c0.7099,-0.34274 1.71799,-0.41795 2.29016,-0.87117c0.81268,-0.64372 1.14008,-1.45558 1.79385,-2.01151c0.61417,-0.52226 1.49823,-0.89638 2.31598,-1.25867c0.78467,-0.34763 1.40039,-0.82628 2.10001,-1.52533c0.60034,-0.59984 1.22049,-1.24348 1.70001,-1.98267c0.41815,-0.64458 1.12823,-1.36838 1.77466,-1.94267c0.63434,-0.56357 1.26755,-1.01352 1.85867,-1.74133c0.56583,-0.69667 0.8652,-1.2545 1.64581,-1.83333c0.63684,-0.47221 1.06415,-1.22511 1.74219,-1.87866c0.57953,-0.55861 0.88168,-1.35999 1.57999,-1.836c0.7493,-0.51079 1.48166,-0.95653 2.07733,-1.50668c0.63696,-0.58826 0.91187,-1.32318 1.47852,-2.07417c0.50482,-0.66905 1.3862,-0.91306 1.80948,-1.7045c0.40045,-0.74879 0.82291,-1.49982 0.83334,-2.4c0.01041,-0.89994 -0.15933,-1.89789 0.35266,-2.54733c0.48453,-0.61461 0.53699,-1.56813 1.16818,-2.05267c0.68137,-0.52306 1.27914,-0.88667 1.77914,-1.65717l0.40002,-0.74734l0.5,-0.99283l0.39999,-0.73067" id="svg_15" stroke-width="2" stroke="#000" fill="none"/>
  <path t="62289,62728,62761,62904" d="m150,160" id="svg_16" stroke-width="2" stroke="#000" fill="none"/>
  <path t="63633,63728,63760,63784,63784,63873,63904,63928,63945,64072,64104,64160,64241,64328,64328,64392,64432,64481,64560,64592,64664,64712,64744,64760,64760,64784,64823,64823,64848,64879,64904,64944,64983,65152,65184,65191,65191" d="m152,158c1.8,0 2.66386,-0.04417 3.48267,0.28534c0.84402,0.33966 1.45683,1.10321 2.01733,1.71466c0.52612,0.57394 1.34132,0.87862 1.97917,1.52083c0.63895,0.64331 0.52083,1.67917 0.52083,2.57918c0,0.89999 0.41721,1.84383 -0.05716,2.54283c-0.4632,0.68254 -1.64284,0.35716 -2.54285,0.35716c-0.89999,0 -1.79999,0.00067 -2.7,0c-0.89999,-0.00067 -1.7659,-0.27399 -2.39999,-0.64734c-0.82559,-0.4861 -1.18755,-1.23462 -1.384,-1.87c-0.30647,-0.99115 -1.37378,-1.26071 -1.89067,-1.91867c-0.50919,-0.64815 -0.85866,-1.564 -1.192,-2.39732l-0.7115,-0.388l0.32101,-0.657l0.74249,-0.07501" id="svg_17" stroke-width="2" stroke="#000" fill="none"/>
 </g>
 <g display="none">
  <title>muse_image</title>
  <image xlink:href="http://farm1.static.flickr.com/194/523361780_ff5952d581.jpg" id="muse" height="480" width="470" y="0" x="85"/>
 </g>
 <g display="none">
  <title>bbox</title>
  <rect stroke="#f00" fill="none" stroke-width="3" height="27.84" width="76.73469" y="102.72" x="263.40816" id="bbox"/>
 </g>
</svg>
