<svg width="640" height="480" xmlns="http://www.w3.org/2000/svg" xmlns:svg="http://www.w3.org/2000/svg" xmlns:xlink="http://www.w3.org/1999/xlink">
 <!-- Sketchy ANNOTATION
  ImageNet ID: n02691156_8876
  URL: http://farm2.static.flickr.com/1329/669328450_de8be74cc7.jpg
  Image Width: 500
  Image Height: 333
  BBox X: 68
  BBox Y: 20
  BBox Width: 359
  BBox Height: 290
  Exposure: 2000ms
  Synset Label: airplane
  Synset ID: n02691156
  Worker Tag: Under-view of flying airplane
  Sanity Check: 
   Shading
   Saved
   Context
  Comment: 
   {}
  Worker ID: A1P7U2ULSAE7YL
  Assignment ID: 3XUHV3NRVKYFISMLNAGWCL7U3CNH5M
  HIT ID: 3CESM1J3EI3RB2JUXQ7ZGA0WGJLW6V
  Work Time: 100s
  Worker Score: 0.9286
 END ANNOTATION -->
 <g>
  <title>Layer 1</title>
  <path t="0,255,271,303,320,335,359,383,391,415,423,431,439,457,471,471,495,505,511,520,543,559,575,583,599,599,615,631,640,640,647,657,663,671,679,687,704,704,720,720,727,736,751,751,759,759,767,775,783,791,799,799,807,815,823,831,840,840,847,856,874,875,879,879,887,895,895,904,911,919,927,943,943,951,959,967,983,983,999,999,1007,1007,1015,1023,1023,1040,1047,1047,1056,1063,1063,1071,1071,1079,1087,1087,1095,1104,1104,1111,1111,1120,1127,1135,1136,1143,1151,1151,1159,1167,1175,1183,1191,1191,1199,1199,1199,1207,1215,1215,1215,1223,1231,1239,1247,1247,1256,1256,1263,1263,1273,1279,1279,1287,1287,1304,1311,1320,1327,1327,1335,1343,1343,1352,1352,1359,1367,1375,1375,1383,1391,1399,1407,1407,1415,1431,1431,1440,1447,1447,1456,1456,1463,1473,1479,1479,1489,1495,1503,1511,1511,1527,1527,1535,1552,1560,1560,1567,1567,1575,1591,1599,1607,1623,1640,1647,1647,1657,1663,1674,1679,1691,1695,1703,1711,1711,1721,1727,1743,1751,1751,1759,1767,1775,1775,1783,1791,1799,1799,1823,1831,1847,1847,1863,1879,1879,1890,1903,1927,1943,1951,1959,1975,1983,1983,1991,2015,2024,2041,2047,2055,2063,2079,2087,2095,2111,2111,2120,2127,2136,2153,2183,2191,2199,2207,2224,2231,2231,2247,2257,2263,2279,2319,2327,2343,2353,2353,2359,2375,2383,2391,2408,2408,2424,2431,2447,2457,2457,2463,2479,2503,2503,2511,2527,2528,2544,2544,2559,2559,2575,2591,2592,2599,2607,2607,2615,2631,2631,2639,2639,2647,2663,2663,2673,2673,2673,2679,2688,2688,2688,2695,2695,2706,2706,2711,2711,2720,2720,2728,2729,2736,2736,2743,2744,2752,2753,2753,2759,2769,2769,2775,2775,2783,2783,2791,2791,2799,2799,2807,2808,2808,2815,2815,2831,2831,2847,2847,2847,2857,2857,2857,2872,2879,2879,2889,2890,2895,2906,2906,2911,2911,2919,2919,2927,2927,2935,2936,2943,2952,2960,2969,2969,2983,2991,2991,2999,2999,3007,3015,3024,3031,3040,3047,3047,3056,3057,3063,3063,3073,3079,3079,3079,3089,3095,3095,3105,3111,3119,3127,3127,3135,3135,3143,3143,3152,3169,3169,3175,3183,3183,3191,3199,3207,3207,3215,3215,3223,3223,3231,3231,3240,3247,3256,3256,3272,3279,3279,3295,3295,3306,3306,3311,3327,3335,3352,3368,3375,3391,3399,3407,3415,3431,3447,3456,3479,3495,3511,3535,3551,3551,3575,3583,3607,3623,3624,3631,3640,3663,3687,3703,3719,3738,3767,3783,3831,3839,3879,3911,3927,3951,3951,3967,4006,4735,4830,4855,4895,4911,4911,4921,4937,4943,4954,4959,4959,4972,4975,4991,4991,5007,5007,5016,5023,5033,5033,5048,5048,5063,5063,5063,5071,5071,5079,5079,5087,5088,5088,5095,5095,5104,5111,5111,5120,5120,5127,5127,5137,5137,5143,5153,5153,5154,5159,5170,5170,5175,5175,5175,5183,5183,5183,5192,5192,5192,5199,5200,5207,5208,5216,5216,5217,5223,5224,5233,5233,5233,5239,5247,5248,5256,5256,5263,5263,5271,5271,5272,5272,5279,5279,5287,5288,5288,5289,5295,5295,5304,5311,5321,5321,5321,5327,5327,5337,5337,5337,5343,5343,5353,5354,5354,5359,5359,5370,5370,5370,5375,5375,5383,5383,5383,5391,5391,5399,5400,5407,5408,5416,5416,5424,5424,5424,5433,5433,5439,5439,5440,5447,5448,5448,5448,5456,5456,5463,5471,5472,5479,5479,5488,5488,5489,5495,5504,5505,5505,5511,5511,5519,5520,5520,5527,5537,5537,5538,5543,5543,5543,5553,5554,5554,5559,5560,5569,5570,5575,5575,5583,5583,5591,5599,5599,5600,5607,5608,5608,5616,5616,5616,5624,5632,5633,5639,5640,5641,5649,5656,5656,5663,5672,5679,5679,5687,5695,5704,5711,5711,5719,5719,5727,5737,5737,5743,5753,5759,5759,5775,5791,5791,5799,5815,5823,5847,5902,6334,6351,6351,6359,6374,6375,6386,6386,6391,6391,6399,6415,6415,6423,6431,6439,6448,6486,6502,6551,6590,6606,6646,6670,6798,6799,6822,6831,6839,6848,6864,6871,6881,6881,6887,6888,6895,6903,6911,6911,6912,6921,6927,6936,6937,6943,6953,6959,6960,6969,6969,6975,6976,6985,6985,6991,6991,6991,7001,7002,7007,7007,7007,7018,7023,7023,7031,7031,7031,7039,7047,7048,7055,7056,7056,7064,7065,7071,7081,7081,7087,7088,7088,7095,7104,7111,7119,7120,7127,7127,7134,7135,7143,7143,7151,7152,7159,7169,7170,7175,7176,7185,7186,7191,7191,7192,7192,7201,7202,7207,7207,7208,7218,7218,7223,7223,7224,7231,7231,7231,7232,7239,7240,7240,7247,7248,7255,7256,7264,7265,7271,7272,7280,7281,7281,7287,7288,7289,7297,7298,7303,7303,7304,7311,7312,7321,7321,7327,7327,7328,7335,7336,7336,7343,7343,7344,7352,7353,7353,7359,7359,7366,7367,7367,7375,7376,7376,7385,7385,7386,7391,7391,7392,7401,7402,7407,7407,7408,7408,7418,7418,7423,7423,7434,7435,7435,7439,7440,7447,7448,7455,7456,7464,7464,7471,7472,7480,7481,7481,7487,7497,7497,7498,7503,7511,7512,7526,7527,7535,7536,7536,7543,7552,7559,7566,7575,7585,7601,7602,7618,7634,7647,7647,7663,7671,7710,7720,7743,7752,7774,7790,7814,7830" d="m272.51135,238.09091c0,-1.7 0,-2.60001 0,-3.5c0,-0.89999 0.15088,-1.81151 0,-2.7955c-0.11194,-0.73007 -0.97131,-1.06021 -1,-1.9045c-0.03055,-0.89932 -0.44519,-1.53871 -0.94733,-2.15717c-0.57208,-0.70459 -0.96475,-1.62915 -1.04816,-2.34283c-0.10446,-0.89394 0.30539,-1.85971 -0.01517,-2.68933c-0.30637,-0.79292 -0.97559,-1.33418 -1.41467,-2.04668c-0.47598,-0.77237 -0.39331,-1.71747 -0.74133,-2.564c-0.27588,-0.67108 -0.82285,-1.49982 -0.83334,-2.41068c-0.0105,-0.91043 0.08197,-1.79707 -0.42532,-2.528c-0.45813,-0.66011 -0.32697,-1.49756 -0.57916,-2.35683c-0.22662,-0.77208 -1.39716,-0.85173 -1.82883,-1.7045c-0.3497,-0.69087 -0.04813,-1.6732 -0.25201,-2.51601c-0.21481,-0.888 -0.72156,-1.72871 -1.13599,-2.58417c-0.34137,-0.70468 -0.6644,-1.56467 -0.83133,-2.24716c-0.22372,-0.91463 -1.31314,-1.19519 -1.82584,-1.87416c-0.53442,-0.70776 -0.12152,-1.7785 -0.12152,-2.57851c0,-0.89999 -0.20197,-1.6803 -0.71597,-2.284c-0.57245,-0.67233 -0.68637,-1.54941 -1,-2.43201c-0.29584,-0.83252 -0.13834,-1.84538 -0.56934,-2.68533c-0.31784,-0.6194 -1.05814,-1.42935 -1.35751,-2.146c-0.36459,-0.87276 -0.6682,-1.69722 -1.07317,-2.45267c-0.40523,-0.75595 -0.90213,-1.51033 -1.19867,-2.39999c-0.28587,-0.85765 -0.05995,-1.8004 -0.08533,-2.60001c-0.02859,-0.90135 -0.57362,-1.66307 -0.94734,-2.5c-0.34488,-0.77232 -0.80537,-1.42668 -1.25133,-2.18533c-0.41156,-0.70013 -0.6021,-1.73096 -0.80133,-2.47299c-0.25877,-0.96381 -1.24763,-1.13866 -1.71466,-1.843c-0.49217,-0.74226 -0.60201,-1.66963 -0.93268,-2.54601c-0.3334,-0.88361 -0.65993,-1.70451 -1,-2.40984c-0.41016,-0.85069 -0.22723,-1.67659 -0.78867,-2.60683c-0.43924,-0.72778 -1.20984,-1.19327 -1.8595,-1.936c-0.58118,-0.66444 -0.65868,-1.45854 -0.709,-2.34816c-0.04443,-0.78542 -0.93214,-1.28047 -1.47467,-1.89351c-0.58054,-0.65599 -0.41307,-1.63927 -0.52216,-2.573c-0.11716,-1.00281 -0.74918,-1.54326 -1.29417,-2.18533c-0.64058,-0.75468 -0.41806,-1.81436 -0.87117,-2.53333c-0.44431,-0.705 -0.75887,-1.22432 -1,-2.16667c-0.20676,-0.80798 -0.61749,-1.52687 -1.23332,-2.37466c-0.58395,-0.80391 -1.04993,-1.42525 -1.31467,-2.14134c-0.34636,-0.93686 -0.06876,-1.91267 -0.29434,-2.784c-0.2281,-0.88109 -1.19777,-1.06682 -1.748,-2.02133c-0.35353,-0.6133 -0.21857,-1.65753 -0.243,-2.47733c-0.02859,-0.95979 -0.32001,-1.87386 -0.7045,-2.54868c-0.45183,-0.793 -0.75574,-1.60565 -1.34818,-2.2955c-0.56615,-0.65924 -1.50111,-0.82683 -2.146,-1.5585c-0.56651,-0.64276 -0.50266,-1.72626 -0.968,-2.46532c-0.43094,-0.68441 -1.28703,-1.1665 -1.54799,-1.85067c-0.3555,-0.93204 -0.20644,-1.91884 -0.50684,-2.80383c-0.23236,-0.68452 -1.15611,-1.14468 -1.657,-1.90034c-0.48999,-0.73923 -0.34479,-1.74368 -0.69617,-2.37849c-0.48708,-0.87996 -0.42534,-1.72134 -0.42534,-2.57467c0,-0.94 0.09102,-1.94083 -0.08533,-2.71067c-0.18082,-0.78938 -0.82051,-1.42966 -1.47867,-2.12933c-0.52196,-0.55488 -0.436,-1.63799 -0.436,-2.33266c0,-1.01666 0.00008,-1.95267 0,-2.85267c-0.00009,-0.90016 -0.06134,-1.69436 -0.42534,-2.62533c-0.27286,-0.69789 -0.4769,-1.63845 -0.57916,-2.53634c-0.09293,-0.81589 -0.57802,-1.60989 -0.82883,-2.47166c-0.24515,-0.84234 -0.16667,-1.76666 -0.16667,-2.66666c0,-0.9 0,-1.8 0,-2.7c0,-0.89999 0,-1.8 0,-2.6c0,-0.9 0,-1.8 0,-2.7c0,-0.9 0,-1.8 0,-2.7c0,-0.89999 0,-1.8 0,-2.6c0,-0.9 0,-1.84283 0,-2.74166c0,-0.94234 0,-1.633 0,-2.70117c0,-0.85716 0,-1.75716 0,-2.55717c0,-0.9 0,-1.836 0,-2.68266c0,-0.8075 0,-1.80267 0,-2.71734c0,-0.90016 0,-1.68533 0,-2.62533c0,-1.008 0,-1.764 0,-2.67467c0,-0.9 -0.07086,-1.84844 0.42534,-2.47467c0.52696,-0.66506 1.01352,-1.26753 1.74133,-1.85867c0.69667,-0.56585 1.58606,-0.71021 1.8125,-1.64583c0.20557,-0.84935 0.64694,-1.34923 1.31633,-1.878c0.74097,-0.58532 1.01004,-1.41252 1.65182,-1.9955c0.57932,-0.52624 1.35921,-0.54038 2.25267,-0.64867c0.91977,-0.11148 1.45409,-0.80853 2.40001,-0.988c0.88428,-0.16777 1.79114,-0.0194 2.38933,-0.58533c0.44804,-0.42389 1.41066,-0.42533 2.31067,-0.42533c0.89999,0 1.8,0 2.7,0c0.8,0 1.7,0 2.60001,0c0.89999,0 1.78932,0 2.68533,0c0.91466,0 1.81467,0 2.71466,0c0.8,0 1.70656,0.04552 2.5,0.5c0.70598,0.40438 1.65428,0.31672 2.5,0.66666c0.78462,0.32466 1.60857,0.65337 2.2955,1.1905c0.74396,0.58172 0.75697,1.75557 1.31517,2.20683c0.77023,0.62267 1.6962,0.78576 2.38931,1.436c0.50507,0.47382 1.4183,0.79757 2.10001,1.44283c0.51047,0.48321 0.93991,1.58956 1.46402,2.1105c0.69781,0.69359 1.66214,0.75502 2.19299,1.54667c0.5192,0.77425 0.25647,1.7502 0.76382,2.4c0.59967,0.76802 0.93274,1.45599 1.56317,2.21467c0.60245,0.725 0.92123,1.20583 1.35199,2.1c0.31082,0.64523 1.24707,1.15763 1.8685,1.89967c0.38892,0.46442 1.01291,1.48866 1.51016,2.075c0.47198,0.55653 1.03427,1.47143 1.35202,2.37733c0.2388,0.68082 0.62445,1.43987 1.13333,2.42883c0.2941,0.57157 0.8465,1.57711 1.45715,2.1c0.67178,0.57525 1.54642,0.8218 2,1.62584c0.43796,0.77633 0.52359,1.79771 0.94736,2.43133c0.49152,0.73491 0.85104,1.49821 1.61682,2.22601c0.6203,0.58955 1.5553,1.15495 1.91699,1.674c0.45828,0.65768 0.62064,1.80689 1.20435,2.4475c0.59732,0.65553 1.33954,1.21348 1.5365,1.89983c0.27811,0.96912 0.69,1.58814 1.21948,2.48533c0.41278,0.69943 0.61432,1.72942 0.82217,2.49384c0.23865,0.87768 0.88171,1.34648 1.49649,1.90484c0.77774,0.70634 1.04141,1.46101 1.70435,2.33783c0.48547,0.64213 1.11688,1.30935 1.59299,2.0395c0.33649,0.51607 0.89185,1.5606 1.0755,2.277c0.2468,0.9627 0.64899,1.7874 0.94318,2.62833c0.28064,0.80216 0.32925,1.85365 0.77734,2.42267c0.6106,0.77537 1.20593,1.41571 1.44199,2.16783c0.28448,0.90652 0.64249,1.65207 1.04733,2.4425c0.39099,0.76335 1.07846,1.44647 1.70001,1.96833c0.6969,0.58511 0.8587,1.36774 1.19998,2.31116c0.30389,0.84012 0.75275,1.67136 1.16669,2.52084c0.31784,0.65225 0.75156,1.42786 1.05466,2.32133c0.23569,0.69476 0.69034,1.65298 0.77734,2.47733c0.09482,0.89824 0.68683,1.62391 0.94415,2.50134c0.25345,0.86417 0.62656,1.50937 0.97183,2.27066c0.27051,0.59647 0.0062,1.83592 0.12134,2.59334c0.14774,0.97165 0.70535,1.49742 1.36401,2.24666c0.63724,0.72488 0.96906,1.43355 1.39999,2.10535c0.56088,0.87436 1.28931,1.4111 1.76401,2.084c0.51834,0.73479 0.6228,1.73102 1.43597,2.23332c0.76361,0.47169 0.91034,1.05966 1.02136,1.992c0.08356,0.70168 0.91397,1.444 1.41064,1.97333c0.68423,0.72925 0.56345,1.68535 0.56799,2.54868c0.00534,1.01671 0.36743,1.80067 0.716,2.45267c0.45306,0.8474 0.90732,1.67343 1.16251,2.5215c0.20358,0.67657 0.12149,1.6785 0.12149,2.65767c0,0.85416 0.05859,1.77641 0.70535,2.32083c0.6748,0.56802 1.27774,1.17494 1.90533,1.76132c0.68915,0.64391 1.01276,1.29709 1.36398,2.30267c0.29449,0.84317 0.78925,1.35686 1.32083,2.29317c0.30374,0.53499 0.46683,1.56854 0.72986,2.47084c0.23264,0.79803 1.38214,1.01631 1.80798,1.87199c0.37863,0.76082 0.00351,1.62965 0.1875,2.5c0.17914,0.84738 0.91827,1.59389 0.97916,2.5c0.0614,0.91394 -0.18274,1.73088 0.03601,2.60001c0.21716,0.86279 0.55469,1.78853 1.13068,2.39999c0.54892,0.58273 0.83331,1.10001 0.83331,2c0,0.8 -0.41119,1.82257 0.05719,2.64284c0.46432,0.81316 0.99744,1.46727 1.5535,1.92116c0.75284,0.6145 1.37866,1.04668 1.38931,1.936c0.01068,0.88933 0.72562,1.3739 0.98935,2.11067c0.29974,0.83736 0.01065,1.78932 0.01065,2.68933c0,0.89999 -0.22247,1.91591 0.28403,2.616c0.50177,0.69356 0.58432,1.43407 0.93732,2.18401c0.36502,0.77553 1.06256,1.22478 1.65717,1.90016c0.49237,0.55927 0.64075,0.57312 1.20685,-0.00017c0.57874,-0.58609 1.19962,-1.05957 1.56198,-1.7c0.46445,-0.82079 1.05814,-1.35098 1.85266,-1.8c0.79648,-0.45013 1.26025,-1.11555 1.55267,-1.79466c0.35172,-0.81682 0.98624,-1.49168 1.66168,-2.00534c0.63806,-0.48521 1.51947,-0.74106 2.24399,-1.2c0.8439,-0.53456 1.31549,-1.26685 2.14185,-1.7215c0.71445,-0.39307 1.39673,-0.96112 2.1105,-1.41451c0.80286,-0.50995 1.39429,-1.00655 1.95331,-1.53867c0.82898,-0.78908 1.30817,-1.34314 2.15735,-1.92551c0.65848,-0.45158 1.51364,-1.06512 2.05334,-1.71449c0.51086,-0.6147 1.29816,-1.00063 2.14133,-1.26801c0.87567,-0.27769 1.39911,-1.03085 2.12,-1.48132c0.77927,-0.48694 1.57489,-0.41238 2.56384,-0.43617c0.96454,-0.02319 1.95053,-0.23969 2.49567,-0.70433c0.75916,-0.64705 1.31137,-1.45804 1.7045,-2.12083c0.40717,-0.68646 0.99078,-1.54749 1.59998,-2.17467c0.51318,-0.52837 1.31345,-1.3297 1.83603,-1.82533c0.56,-0.5311 1.36185,-1.15663 2.16397,-1.67467c0.59842,-0.38647 1.40918,-0.97243 1.97919,-1.5c0.54578,-0.50513 1.41669,-1.34911 1.81949,-1.884c0.67892,-0.9016 0.95206,-1.54529 1.74402,-2.0945c0.66245,-0.45938 1.50333,-0.62317 2.48798,-1.22284c0.62177,-0.37868 1.30804,-1.10339 1.94852,-1.79866c0.46454,-0.5043 0.95538,-1.56793 1.73065,-1.95633c0.60413,-0.30264 1.41534,-0.88989 1.76935,-1.54367c0.53687,-0.99147 1.09766,-1.44827 1.85416,-2c0.70804,-0.51639 1.17105,-1.01634 1.89868,-1.73334c0.62915,-0.61996 1.24652,-1.27271 2.10132,-1.93333c0.65619,-0.50713 1.1756,-0.82088 1.89868,-1.34933c0.96588,-0.70589 1.5939,-1.1293 2.46799,-1.53667c0.72809,-0.33932 1.2854,-1.12332 1.71066,-1.77266c0.45914,-0.70108 1.24918,-1.41814 1.80002,-1.8c0.99399,-0.68907 1.58557,-1.19275 2.13214,-1.722c0.78323,-0.75841 1.2825,-1.278 1.97852,-1.974c0.504,-0.504 1.19467,-1.19467 1.92599,-1.92599c0.50534,-0.50534 1.24753,-1.22775 1.75266,-1.7735c0.52759,-0.57002 1.07111,-1.40971 1.62534,-2.14317c0.64597,-0.85489 1.24713,-1.1523 1.89069,-1.72c0.79565,-0.70186 1.17596,-1.52383 1.80533,-2.0945c0.62476,-0.5665 1.54099,-0.98615 2.15784,-1.5215c0.76028,-0.65984 1.28442,-1.25079 2.00482,-1.98534c0.52069,-0.53093 1.04333,-1.10759 1.63333,-1.91333c0.55475,-0.75758 1.20499,-1.45291 1.888,-1.85316c0.73273,-0.42938 1.69434,-1.05589 2.02533,-1.51617c0.50119,-0.69699 0.75241,-1.55333 1.61752,-2.41767c0.44461,-0.44422 1.1265,-1.17263 1.57333,-1.91433c0.46909,-0.77858 1.18405,-1.32956 1.74915,-1.78534c0.77527,-0.6253 1.55069,-1.06429 2.17599,-1.63066c0.74567,-0.67537 1.16592,-1.66748 1.56317,-2.13667c0.61121,-0.7219 1.2688,-1.32605 1.9155,-1.97267c0.69598,-0.69588 1.14609,-1.25574 1.89069,-1.80533c0.80713,-0.59573 1.66245,-0.88808 2.32001,-1.43067c0.57913,-0.47787 1.36185,-1.12064 2.16397,-1.63866c0.59842,-0.38647 1.40002,-0.98401 2,-1.5c0.60001,-0.51601 1.43054,-1.07111 2.164,-1.62534c0.85471,-0.64584 1.18973,-1.47015 1.836,-2.04133c0.6557,-0.57949 1.49786,-0.88462 2.13867,-1.48267c0.71204,-0.66453 1.36374,-1.18041 2.14801,-1.712c0.47479,-0.32183 1.41821,-0.92851 2.052,-1.524c0.58167,-0.54651 1.13425,-1.3895 1.66132,-2.09383c0.50552,-0.6755 1.41843,-1.21217 1.87903,-1.96367c0.40445,-0.65985 0.7569,-1.58699 1.40765,-1.9105c0.68716,-0.34161 1.79999,-0.40003 2.71332,-0.81333c0.66104,-0.29914 1.53207,-0.76806 2.30002,-1.186c0.84094,-0.45768 1.47952,-0.7664 2.29999,-1.222c0.78198,-0.43423 1.73279,-0.61108 2.23334,-1.42533c0.39413,-0.64117 1.03854,-1.38321 1.68399,-1.8c0.73807,-0.47662 1.61591,-0.98804 2.28268,-1.284c0.85776,-0.38074 1.73233,-0.80965 2.15182,-1.62134c0.34827,-0.67384 0.94485,-1.11577 1.8815,-1.46133c0.68185,-0.25156 1.66153,-0.64785 2.168,-1.11734c0.58771,-0.54478 1.35583,-0.716 2.19867,-0.716c0.89999,0 1.84988,-0.20557 2.60001,0.08533c0.88391,0.3428 1.14801,1.39733 1.18933,2.12533c0.05603,0.98763 -0.04095,1.76984 0.01083,2.76784c0.04272,0.82347 0.69333,1.61906 0.91449,2.5055c0.16818,0.67403 -0.05814,1.77096 0.08551,2.61583c0.14471,0.85107 1.45258,0.5691 1.91449,1.1855c0.5509,0.73513 -0.00336,1.81905 0.08533,2.71467c0.08374,0.8457 0.95728,1.28199 1,2.1c0.04694,0.89877 0,1.7 0,2.6c0,0.9 0.04831,2.03946 -0.71597,2.29867c-0.81613,0.27679 -1.00934,1.02203 -1.61734,1.668c-0.51086,0.54277 -1.36658,0.95415 -1.71484,1.628c-0.41949,0.81168 -1.33844,1.1751 -2.1185,1.70534c-0.62979,0.42809 -1.32611,0.75816 -1.84799,1.6c-0.48138,0.77652 -1.00565,1.55489 -1.37466,2.21467c-0.51837,0.92685 -0.96783,1.54249 -1.61069,2.18533c-0.59998,0.59999 -1.4053,1.25107 -1.71466,1.97066c-0.3248,0.7555 -0.19376,1.80449 -0.452,2.696c-0.24661,0.85133 -0.8526,1.48886 -1.23334,2.16933c-0.42166,0.75362 -0.89996,1.76402 -1.19998,2.364c-0.49997,0.99986 -0.76538,1.60954 -1.20001,2.31467c-0.54703,0.8875 -1.04364,1.65005 -1.20001,2.50617c-0.17847,0.97708 -0.38828,1.79455 -0.80133,2.49383c-0.44885,0.75989 -1.19873,1.48529 -1.71948,2.00616c-0.80042,0.8006 -1.35239,1.27095 -1.76935,1.88367c-0.63599,0.93456 -0.54922,1.84044 -1.14581,2.54483c-0.53476,0.63138 -1.164,1.272 -1.56403,2.05067c-0.39999,0.77867 -0.93176,1.28156 -1.64282,2.04817c-0.52618,0.56731 -0.92557,1.44031 -1.457,2.27316c-0.41821,0.65543 -0.80344,1.50137 -0.8895,2.304c-0.10953,1.02167 -0.00897,1.80356 -0.57867,2.49066c-0.61664,0.74373 -1.33304,1.3576 -1.423,2.23134c-0.09174,0.89096 -0.47858,1.71936 -1.009,2.17349c-0.70508,0.60365 -0.78516,1.62892 -1.44299,2.23683c-0.63135,0.58345 -1.60419,0.87407 -2.14798,1.6575c-0.4039,0.58191 -0.74121,1.21234 -1.16635,2.32051c-0.27304,0.71173 -0.6796,1.59073 -1.26349,2.28516c-0.49161,0.58467 -1.07275,1.39331 -1.47919,1.95834c-0.63272,0.87959 -1.35864,1.37743 -1.90448,1.83066c-0.83221,0.69102 -1.39743,1.45006 -1.7955,1.97551c-0.40192,0.53053 -1.17624,1.55096 -1.80002,2.17299c-0.57874,0.57712 -1.39777,1.15775 -1.97916,1.52084c-0.99799,0.62326 -1.50256,1.04669 -2.34201,1.62099c-0.64456,0.44096 -1.34549,1.06651 -1.67883,1.89984c-0.33331,0.83333 -0.88184,1.36079 -1.60266,1.884c-0.80734,0.58601 -1.4061,1.11087 -1.91199,1.71733c-0.64041,0.7677 -1.07394,1.62477 -1.65201,2.39867c-0.45792,0.61302 -0.93149,1.24403 -1.94934,1.832c-0.59995,0.34656 -1.56207,0.85739 -2.05865,1.38933c-0.69595,0.74551 -1.01346,1.41782 -1.578,2.12151c-0.66714,0.83159 -1.29813,1.14168 -1.84866,1.6265c-0.84836,0.7471 -1.39624,1.55334 -1.79868,2.0825c-0.59641,0.78424 -1.18591,1.4955 -1.76398,2.1015c-0.6586,0.69041 -1.37759,1.3307 -1.83603,2.17999c-0.34955,0.6476 -0.53601,1.44662 -1,2.33334c-0.37192,0.71078 -0.96997,1.302 -1.76797,2.10133c-0.48227,0.48306 -0.97937,0.98331 -1.89868,1.89867c-0.52237,0.52013 -1.21515,1.13197 -1.99051,1.64233c-0.55289,0.36392 -1.36765,1.00314 -1.93832,1.69632c-0.59512,0.72287 -0.90652,1.2364 -1.64734,2.18484c-0.5466,0.6998 -1.06674,1.46194 -1.45715,2.21432c-0.41013,0.79033 -0.7984,1.59631 -1.10001,2.19551c-0.5018,0.99686 -0.88818,1.81151 -1.52133,2.37833c-0.61935,0.55446 -1.69562,0.79808 -2.43134,1.1315c-0.78668,0.35652 -1.42789,1.06956 -2.08066,1.7235c-0.53555,0.53651 -1.17355,1.32921 -1.56668,1.992c-0.40717,0.68648 -1.04138,1.51961 -1.60001,2.34134c-0.43323,0.63728 -0.74194,1.39354 -1.39999,2.19733c-0.55389,0.67654 -1.11691,1.26552 -1.93332,1.80267c-0.65421,0.43044 -1.52356,0.9814 -2.03067,1.64799c-0.45645,0.60002 -1.3576,1.02574 -2.02533,1.62134c-0.69168,0.61696 -0.95258,1.40964 -1.58533,1.98933c-0.58554,0.53644 -0.87677,1.30673 -1.10934,2.092c-0.29758,1.00481 -0.62939,1.90691 -1.35867,2.36133c-0.73804,0.45987 -1.63419,0.52098 -2.20465,1.17401c-0.50497,0.57806 -0.78671,1.62143 -1.65268,1.89015c-0.86011,0.26691 -1.64734,0.40984 -2.22083,1.03635l-0.8685,0.03149l-0.61069,0.51016" id="svg_1" stroke-width="2" stroke="#000" fill="none"/>
  <path t="23320,23479,23487,23495,23495,23503,23513,23513,23513,23519,23519,23519,23528,23528,23528,23535,23535,23543,23543,23543,23543,23551,23551,23551,23560,23560,23560,23567,23568,23568,23568,23575,23575,23575,23583,23583,23583,23583,23591,23591,23591,23599,23599,23599,23607,23607,23607,23615,23615,23615,23623,23623,23632,23632,23639,23639,23648,23648,23648,23655,23655,23655,23663,23663,23663,23671,23671,23671,23683,23683,23687,23687,23687,23695,23695,23703,23703,23712,23712,23712,23719,23719,23719,23728,23735,23735,23745,23751,23751,23759,23759,23759,23767,23775,23775,23775,23783,23791,23791,23800,23800,23807,23807,23817,23823,23823,23833,23833,23833,23839,23839,23849,23849,23855,23855,23864,23864,23864,23871,23871,23882,23887,23887,23895,23895,23903,23903,23911,23911,23912,23919,23928,23928,23935,23936,23945,23945,23945,23951,23951,23959,23959,23967,23967,23975,23975,23983,23983,23983,23991,23991,24000,24007,24017,24017,24023,24023,24023,24033,24033,24033,24039,24039,24049,24055,24055,24062,24063,24071,24082,24082,24087,24095,24095,24103,24103,24119,24135,24135,24144,24145,24145,24159,24167,24168,24175,24190,24206,24222,24239,24286,24454,24470,24487,24497,24503,24513,24527,24535,24535,24543,24543,24551,24560,24560,24567,24567,24575,24583,24583,24591,24599,24599,24607,24615,24615,24623,24631,24639,24647,24655,24670,24680,24687,24687,24696,24703,24718,24798,24838,24854,24878,24910,24918,24919,24934,24943,24951,24966,24976,24983,24991,24999,24999,25006,25007,25015,25015,25022,25031,25031,25038,25039,25047,25047,25055,25055,25055,25063,25063,25063,25071,25071,25071,25080,25080,25087,25087,25087,25094,25095,25095,25103,25103,25103,25113,25113,25119,25119,25119,25130,25130,25135,25135,25143,25143,25143,25151,25151,25159,25160,25160,25167,25167,25167,25176,25176,25176,25183,25183,25193,25193,25193,25199,25199,25208,25208,25208,25214,25215,25215,25223,25223,25223,25231,25231,25231,25238,25239,25239,25239,25247,25247,25255,25255,25255,25263,25263,25263,25271,25271,25280,25280,25280,25287,25287,25287,25296,25296,25296,25303,25303,25303,25303,25313,25313,25313,25319,25319,25319,25329,25330,25330,25335,25335,25335,25342,25343,25343,25351,25351,25359,25359,25360,25367,25367,25376,25376,25376,25383,25383,25383,25392,25392,25393,25399,25399,25408,25408,25408,25414,25415,25423,25431,25431,25431,25438,25439,25439,25447,25447,25455,25455,25463,25464,25471,25471,25479,25487,25487,25496,25496,25503,25503,25513,25519,25519,25519,25529,25530,25530,25535,25535,25545,25546,25551,25551,25559,25559,25559,25567,25567,25576,25583,25583,25592,25592,25593,25599,25599,25606,25607,25615,25615,25615,25622,25623,25631,25631,25638,25670,25671,25694,25758,26262,26270,26271,26279,26279,26279" d="m269.51135,233.09091c-1.69998,0 -2.63599,0 -3.48398,0c-0.86334,0 -1.90134,0 -2.84933,0c-0.67651,0 -1.452,0 -2.5,0c-0.94135,0 -1.61935,0 -2.85068,0c-0.54132,0 -1.36334,0 -2.63199,0c-0.68401,0 -1.85068,0 -2.64117,0c-0.56366,0 -1.44417,0 -2.64284,0c-0.59999,0 -1.5,0 -2.7,0c-0.59999,0 -1.5,0 -2.7,0c-0.60001,0 -1.5,0 -2.39999,0c-0.90001,0 -1.8,0 -2.70001,0c-0.89999,0 -1.79999,0 -2.7,0c-0.59999,0 -1.8,0 -2.7,0c-0.60001,0 -1.8,0 -2.7,0c-0.60001,0 -1.8,0 -2.69551,0c-0.8685,0 -1.93782,0 -2.64732,0c-0.85268,0 -1.85583,0 -2.62117,0c-0.95334,0 -1.80533,0 -2.60533,0c-1.01601,0 -2.064,0 -2.778,0c-0.67801,0 -1.87401,0 -2.67801,0c-0.82199,0 -1.85333,0 -2.54933,0c-0.90933,0 -1.90933,0 -2.72533,0c-0.81599,0 -1.81886,0.04401 -2.72534,-0.036c-0.94667,-0.08354 -1.72261,-0.31744 -2.51332,-0.53867c-0.92775,-0.25957 -1.74034,-0.41492 -2.748,-0.42534c-0.75996,-0.00786 -1.68001,0 -2.466,0c-0.82201,0 -1.88066,0 -2.80067,0c-0.75999,0 -1.74666,0 -2.73065,0c-0.69067,0 -1.76334,0 -2.68268,0c-0.85416,0 -1.83333,0 -2.62267,0c-0.72533,0 -1.73149,0 -2.75333,0c-0.70801,0 -1.45201,0 -2.64301,0c-0.81433,0 -1.70547,-0.06912 -2.4715,-0.35266c-0.75337,-0.27885 -1.73897,-0.59552 -2.50684,-0.63667c-1.08183,-0.05798 -2.00267,-0.01067 -2.672,-0.01067c-1.164,0 -1.964,0 -2.76401,0c-1,0 -1.79999,0 -2.79999,0c-0.8,0 -1.8,0 -2.60001,0c-1,0 -1.8,0 -2.60001,0c-0.9955,0 -1.74283,0 -2.64732,0c-0.91934,0 -1.75267,0 -2.73134,0c-0.774,0 -1.6868,0.03688 -2.483,-0.05717c-0.96672,-0.11421 -1.75018,-0.37819 -2.5285,-0.59016c-1.0356,-0.28204 -1.97397,-0.58154 -2.64583,-0.92732c-0.81454,-0.41922 -1.61064,-0.42 -2.78534,-0.42534c-0.80399,-0.00365 -1.35333,0 -2.657,0c-0.675,0 -1.76469,0.09273 -2.547,-0.036c-0.88316,-0.14532 -1.56281,-0.62515 -2.57466,-0.8425c-0.78833,-0.16933 -1.8,-0.12151 -2.60001,-0.12151c-0.8,0 -1.7955,0 -2.54283,0c-1.02116,0 -1.96167,0 -2.82384,0c-0.85416,0 -1.83333,0 -2.644,0c-0.6465,0 -1.87334,0 -2.68933,0c-0.54733,0 -1.81333,0 -2.65334,0c-0.96133,0 -1.84666,0 -2.60383,0c-0.8955,0 -1.75883,0 -2.74284,0c-0.82133,0 -1.67873,0.08598 -2.61467,-0.00133c-0.89674,-0.08366 -1.61327,-0.75676 -2.53799,-0.94151c-0.68317,-0.13649 -1.72211,-0.04326 -2.66884,-0.05733c-0.69956,-0.01039 -1.68724,-0.1412 -2.46783,-0.42517c-0.73432,-0.26714 -1.71049,-0.56424 -2.69466,-0.57466c-0.69063,-0.00731 -1.75883,0 -2.61583,0c-0.92551,0 -1.70151,0 -2.60017,0c-0.89999,0 -2.06866,-0.05815 -2.29549,0.7045c-0.25531,0.85835 -0.0045,1.7955 -0.0045,2.6955c0,0.89551 0,1.76668 0,2.70016c0,0.78517 0,1.72517 0,2.41585c0,0.98399 0,1.96933 0,2.69466c0,0.98917 0,1.76851 0,2.90401c0,0.88533 -0.10043,1.69576 0.036,2.52133c0.14405,0.87169 0.61756,1.70927 0.91134,2.60683c0.27994,0.85526 0.67049,1.47014 1.078,2.35718c0.37337,0.81276 0.7387,1.69986 1.25867,2.31599c0.54795,0.64929 0.6073,1.37598 0.71734,2.284c0.11147,0.91978 0.79721,1.4563 0.988,2.40001c0.17433,0.86229 0.77008,1.34119 1.00616,2.10449c0.26488,0.85638 0.33303,1.89362 1.2045,2.21017c0.84971,0.30865 1.8,0.08533 2.6,0.08533c0.9,0 1.63314,0.18503 2.30984,0.64734c0.78441,0.53592 1.78049,0.33694 2.59467,0.35266c0.93202,0.01801 1.77238,0.30154 2.47017,0.57468c0.93241,0.36499 1.71825,0.48566 2.65067,0.85065c0.69778,0.27316 1.69563,0.50797 2.496,0.79617c0.88242,0.31775 1.60756,0.957 2.304,1.3425c0.81301,0.45001 1.60639,0.37518 2.57483,0.65768c0.8456,0.24667 1.49225,0.65329 2.48384,1.26233c0.54529,0.33493 1.35492,0.8772 2.14932,1.34933c0.70229,0.41739 1.54288,0.88852 2.56801,1.08133c0.61211,0.11514 1.76534,0.08533 2.55133,0.08533c0.82199,0 1.88223,-0.03906 2.59016,0.009c0.85716,0.0582 1.86774,0.5466 2.45717,1.01184c0.61131,0.48251 1.36624,1.1604 2.2,1.5325c0.774,0.34543 1.59946,0.42743 2.40001,0.44531c0.99976,0.02231 1.8009,-0.03882 2.80133,0.004c0.83676,0.0358 1.77834,0.30453 2.54683,0.70267c0.80504,0.41708 1.70525,0.9967 2.3905,1.23334c0.96675,0.33383 1.70088,0.57327 2.26266,0.948c0.82993,0.55359 1.37473,1.16672 2.084,1.54401c0.94978,0.50525 1.81906,0.51837 2.63066,0.65201c1.00549,0.16556 1.87645,0.52155 2.68401,0.91733c0.80316,0.39362 1.59047,0.81976 2.40134,1.19867c0.82544,0.38571 1.76276,0.65411 2.55133,0.74866c0.81981,0.09827 1.88673,0.19742 2.59467,0.40533c0.68451,0.20102 1.87289,0.53577 2.67799,0.62201c0.821,0.08795 1.86028,0.22568 2.56001,0.46133c0.73224,0.24658 1.85481,0.67191 2.51549,0.8595c0.67604,0.19196 1.63687,0.47092 2.64584,0.61917c0.84886,0.12473 1.8259,0.04721 2.57416,0.12698c0.80234,0.08554 1.81215,0.50186 2.45834,0.97919c0.63857,0.47171 1.39197,1.15341 2.04166,1.4375c1.10466,0.48303 1.93098,0.50357 2.75383,0.53098c1.05814,0.03525 1.77693,-0.03448 2.67801,0.06784c0.97639,0.11087 1.78522,0.37274 2.358,0.5535c1.19342,0.37665 1.78934,0.58936 2.68933,0.88934c0.60001,0.20001 1.8013,0.5957 2.68933,0.89999c0.57562,0.19724 1.64285,0.60278 2.3535,0.89551c0.8513,0.35065 1.85918,0.62561 2.49884,0.7045c0.72829,0.08981 1.92679,0.2818 2.60899,0.42532c0.69914,0.14709 2.01459,0.41876 2.83501,0.522c0.69191,0.08707 1.71248,0.27939 2.51433,0.55267c0.99774,0.34006 1.59877,0.46738 2.39999,0.49551c1.00073,0.03516 1.836,0.00449 3.02133,0.00449c0.804,0 1.35333,0 2.65733,0c0.696,0 1.60535,0 2.60535,0c0.81599,0 1.63199,0 2.63066,0c0.87466,0 1.6864,-0.03189 2.48534,0.01065c0.80234,0.04272 1.78546,0.36887 2.54283,0.63669c1.03015,0.36432 1.99149,0.51578 2.66699,0.70532c0.77667,0.21793 1.82155,0.49359 2.533,0.59467c0.8506,0.12082 1.84967,0.35818 2.65717,0.62735c0.99135,0.33047 1.77901,0.41489 2.77867,0.42532c0.77396,0.00806 1.67401,-0.00534 2.53734,0c0.8587,0.00534 1.79861,0.23929 2.50482,0.5c0.97034,0.35822 1.76804,0.48199 2.8125,0.5c0.75589,0.01303 1.70836,-0.00455 2.5,0c0.92805,0.00534 1.73141,-0.00952 2.74518,0.22134c0.69733,0.15878 1.50546,0.57388 2.52148,0.7215c0.79343,0.11526 1.80649,-0.02121 2.564,0.09317c0.97403,0.14709 1.62515,0.70166 2.60535,0.87866c0.74225,0.13403 1.548,0.08466 2.54401,0.08533c0.84,0.00058 1.93405,-0.0112 2.85333,0c0.85434,0.01044 1.83838,0.15103 2.43332,0.35266c0.80746,0.27365 1.79764,0.59494 2.60001,0.63666c0.99872,0.05191 1.81573,-0.05182 2.79999,0.17734c0.81888,0.19067 1.58734,0.60999 2.40002,0.74802c0.79211,0.13452 1.79965,0.08533 2.728,0.08533c0.95465,0 1.87198,0 2.672,0c0.89999,0 1.79999,0.00009 2.72083,0c0.80084,-0.00009 1.72583,-0.03601 2.64584,-0.16666l0.78598,-0.186l0.82202,-0.22202" id="svg_4" stroke-width="2" stroke="#000" fill="none"/>
  <path t="29063,29110,29126,29127,29135,29135,29143,29151,29151,29159,29159,29167,29167,29175,29175,29175,29183,29183,29191,29191,29199,29199,29199,29207,29207,29215,29215,29223,29223,29231,29231,29231,29239,29239,29239,29247,29247,29247,29247,29255,29255,29263,29263,29271,29271,29271,29279,29279,29287,29287,29295,29295,29295,29304,29304,29311,29311,29320,29320,29327,29327,29335,29335,29343,29343,29351,29351,29359,29359,29367,29367,29375,29375,29375,29383,29391,29399,29399,29407,29415,29415,29423,29423,29431,29431,29439,29447,29447,29455,29455,29455,29463,29463,29471,29471,29479,29479,29487,29503,29511,29511,29521,29521,29527,29527,29535,29535,29543,29543,29551,29551,29559,29567,29567,29575,29583,29583,29599,29599,29607,29607,29607,29615,29615,29623,29623,29631,29639,29639,29647,29663,29663,29670,29671,29687,29687,29695,29711,29720,29727,29727,29735,29743,29759,29759,29767,29775,29775,29783,29783,29791,29791,29799,29807,29815,29831,29855,29974,29991,30015,30047" d="m464.51135,133.09091c-1,0.97467 -1.23944,1.72212 -1.80133,2.16933c-0.71594,0.56982 -0.93942,1.39326 -1.59866,2.19467c-0.64532,0.78452 -1.22952,1.25182 -1.79999,2.11867c-0.42236,0.64183 -1.05551,1.27312 -1.68533,1.77066c-0.6651,0.52541 -1.10828,1.27219 -1.63068,1.98001c-0.59146,0.80136 -1.25302,1.39413 -1.884,2.19865c-0.45743,0.58322 -0.80338,1.61893 -1,2.244c-0.20349,0.64691 -0.5098,1.87643 -1,2.616c-0.51273,0.77354 -1.23865,1.31743 -1.69998,2.02951c-0.43805,0.67615 -0.88651,1.68555 -1.2045,2.2785c-0.43442,0.81004 -0.97836,1.63774 -1.55286,2.18933c-0.62219,0.59735 -1.4689,1.06038 -2.108,1.32666c-0.98276,0.40947 -1.76334,0.44476 -2.54898,1.20534c-0.5827,0.56409 -0.91647,1.67099 -1.5065,2.17867c-0.79669,0.68549 -1.25037,1.14072 -1.67468,1.9045c-0.54141,0.97455 -0.7486,1.60995 -1.3045,2.42883c-0.47516,0.69995 -1.16666,1.33334 -1.82532,1.992c-0.522,0.522 -1.26086,1.32349 -1.79999,1.76399c-0.8157,0.6665 -1.66312,0.93666 -2.13202,1.73201c-0.45828,0.77731 -0.68127,1.66171 -1.24268,2.15784c-0.82477,0.72888 -1.02368,1.43048 -1.43597,2.34616c-0.32077,0.71246 -0.89148,1.40135 -1.36401,2.05867c-0.53665,0.74655 -0.89172,1.53096 -1.68399,2.23199c-0.6427,0.5687 -1.38858,1.0209 -1.88,1.70934c-0.47412,0.6642 -1.13748,1.47775 -1.552,2.37466c-0.35172,0.76102 -0.78778,1.47798 -1.08401,2.32083c-0.27542,0.78363 -0.57861,1.71382 -1.16666,2.3125c-0.58694,0.59753 -1.49759,1.168 -1.8815,1.86667c-0.38538,0.70134 -1.052,1.40016 -1.58783,1.936c-0.68533,0.68533 -1.36481,1.3632 -1.88,1.88c-0.72797,0.73021 -1.30417,1.35439 -1.784,2.13666c-0.41913,0.6833 -0.99283,1.40024 -1.41467,2.146c-0.48627,0.85965 -1.08649,1.25433 -1.76932,1.77068c-0.73819,0.5582 -1.31595,1.30032 -2.01602,1.90984c-0.63803,0.55551 -1.58664,0.89934 -2.16666,1.52083c-0.56363,0.60393 -1.07791,1.25883 -1.68515,1.75717c-0.81378,0.66785 -1.21332,1.40485 -1.94366,2.1375c-0.56488,0.56667 -0.53757,1.43242 -0.78986,2.27333c-0.22467,0.74886 -0.74417,1.41483 -1.57184,2.07933c-0.70346,0.56479 -1.55511,1.05978 -2.13214,1.578c-0.56604,0.50836 -1.36957,1.25298 -1.90619,1.92734c-0.55252,0.69435 -0.73843,1.58684 -1.60898,2.1375c-0.7652,0.48402 -1.79019,0.49739 -2.36218,1.10983c-0.66333,0.71024 -1.23599,1.04332 -2.14801,1.42534c-0.62823,0.26315 -1.66959,0.36281 -2.47998,0.63182c-0.77374,0.25685 -1.38083,0.86235 -2.10535,1.37885c-0.78552,0.56 -1.29999,1.20683 -2.10001,1.564c-0.79999,0.35716 -1.42963,1.0858 -2.09998,1.564c-0.73608,0.52509 -1.54462,1.05109 -2.03601,1.58534c-0.62015,0.67422 -1.59903,0.70811 -2.47867,1.136c-0.64413,0.31332 -1.18237,1.31206 -2.08533,1.62933c-0.85278,0.29964 -1.40686,0.59343 -2.15268,1.02815c-0.75211,0.43839 -1.59467,0.40984 -2.14734,1.05717l-0.52533,0.57466" id="svg_5" stroke-width="20" stroke="#fff" fill="none"/>
  <path t="33527,33582,33582,33591,33599,33616,33622,33630,33638,33639,33646,33646,33655,33655,33662,33662,33670,33678,33678,33678,33686,33694,33694,33694,33702,33702,33710,33710,33718,33718,33726,33726,33734,33734,33742,33750,33750,33758,33766,33766,33774,33774,33782,33782,33790,33798,33798,33799,33806,33806,33815,33815,33822,33822,33822,33822,33831,33838,33838,33846,33846,33854,33854,33854,33854,33862,33862,33862,33870,33878,33878,33886,33886,33895,33902,33902,33911,33911,33918,33918,33927,33934,33934,33943,33943,33950,33950,33959,33974,33975,33975,33982,33982,33991,33991,33999,34007,34015,34015,34023,34031,34031,34039,34039,34048,34048,34055,34062,34071,34071,34078,34079,34087,34087,34102,34111,34111,34118,34118,34127,34142,34150,34150,34159,34166,34166,34175,34175,34182,34191,34206,34207,34215,34215,34215,34223,34231,34238,34239,34247,34247,34247,34254,34262,34270,34271,34278,34279,34287,34294,34302,34310,34326,34327,34334,34334,34342,34358,34374,34374,34374,34382,34390,34414,34422,34431,34447,34447,34470,34478,34494,34502,34502,34510,34526,34526,34534,34542,34550,34558,34566,34566,34574,34582,34590,34598,34614,34614,34622,34631,34646,34654,34670,34670,34686,34702,34726,34734,34742,34750,34790,34966,34982,35046,35151" d="m470.51135,118.09091c-1.16666,1 -1.7085,1.408 -2.47916,2c-0.60941,0.46812 -1.10303,0.95683 -1.54617,1.61066c-0.5018,0.7404 -0.78619,1.72832 -0.99548,2.38934c-0.32166,1.01585 -1.17288,1.2993 -1.73618,2.10017c-0.40121,0.57046 -0.12177,1.57368 -0.32834,2.41584c-0.22095,0.90079 -0.92154,1.64653 -1.31467,2.30933c-0.40717,0.68648 -1.04431,1.51764 -1.60001,2.34134c-0.43607,0.64639 -0.80728,1.43106 -1.19864,2.23199c-0.37231,0.76198 -0.60968,1.76215 -0.97067,2.48534c-0.41852,0.83844 -1.13324,1.1969 -1.66135,2.23199c-0.36734,0.71999 -0.38947,1.62778 -0.97067,2.31467c-0.63489,0.75032 -1.1553,1.27834 -1.19733,2.08667c-0.05566,1.0712 -0.40204,1.76443 -0.80267,2.45334c-0.44785,0.77008 -0.74399,1.51126 -1.03198,2.696c-0.19012,0.7822 -0.11044,1.65381 -0.33334,2.66666c-0.15012,0.68214 -0.38458,1.44356 -0.83334,2.33334c-0.42474,0.84221 -0.85147,1.66093 -1.02081,2.375c-0.26941,1.13609 -0.5264,1.65158 -0.97919,2.41666c-0.41333,0.69839 -1.04904,1.64206 -1.43597,2.41367c-0.36618,0.73026 -0.74954,1.53777 -1.20001,2.364c-0.51285,0.94061 -0.84735,1.44841 -1.36401,2.26401c-0.34689,0.54761 -1.00037,1.56656 -1.35333,2.25333c-0.3844,0.74796 -0.59406,1.7627 -0.86798,2.56801c-0.29742,0.87439 -0.69193,1.65282 -0.77734,2.47733c-0.09894,0.95518 -0.3212,1.87393 -0.70584,2.54868c-0.45291,0.79449 -1.01041,1.39552 -1.59549,2.30083c-0.41058,0.63528 -1.2179,1.1665 -1.79984,1.79483c-0.61578,0.66487 -0.78488,1.5502 -0.86417,2.34634c-0.10352,1.03947 -0.03934,1.93739 -0.47198,2.62132c-0.50424,0.79712 -0.97,1.42224 -1.36401,2.19067c-0.50775,0.99023 -0.75742,1.59084 -1.39865,2.51334c-0.41733,0.6004 -0.79324,1.50296 -1.22668,2.28532c-0.45502,0.8213 -0.50723,1.48851 -0.58533,2.42534c-0.08472,1.01648 -0.51822,1.64636 -1.18933,2.37601c-0.50613,0.55026 -1.01828,1.50563 -1.5,2.08882c-0.6077,0.73572 -1.67169,0.87292 -2.13333,1.70984c-0.38074,0.69025 -0.48669,1.67252 -0.87119,2.34734c-0.45181,0.79298 -0.85327,1.53793 -1.40533,2.35266c-0.47598,0.70247 -1.35635,0.96434 -1.78033,1.95267c-0.28085,0.65471 -0.55975,1.51279 -1.11115,2.35001c-0.43433,0.65945 -0.43573,1.65715 -1.0195,2.45566c-0.50015,0.68417 -1.43967,0.51456 -2.22202,1.24701c-0.54248,0.50787 -1.40814,1.05927 -1.73633,1.83633c-0.36728,0.86958 0.02612,1.72215 -0.4635,2.65816c-0.33231,0.63525 -1.18713,1.2269 -1.48532,2.16417c-0.25443,0.79971 -0.26361,1.76205 -0.83368,2.39317c-0.53259,0.58965 -1.27161,1.2001 -1.66901,1.75883c-0.64243,0.90323 -1.06213,1.72417 -1.40265,2.65067c-0.23166,0.63028 0.03168,1.70341 -0.22385,2.52882c-0.26929,0.86983 -1.51486,1.01106 -1.90683,1.74051c-0.41156,0.76587 -0.20267,1.73067 -0.53601,2.564c-0.33331,0.83333 -0.48886,1.60837 -0.92532,2.39999c-0.45367,0.82285 -0.70926,1.78072 -1.01065,2.42534c-0.33093,0.70781 -0.95477,1.52666 -1.58936,2.2c-0.55057,0.58418 -1.07318,1.37085 -1.54932,2.036c-0.52063,0.72729 -0.38586,1.52094 -0.92535,2.397c-0.48245,0.78346 -0.99863,1.37538 -1.33331,2.375c-0.24762,0.73965 -0.57651,1.59244 -1.26666,2.26651c-0.57892,0.56543 -1.36356,1.01965 -1.95267,1.5475c-0.57169,0.51224 -1.47833,0.843 -2.146,1.55266c-0.54227,0.57639 -0.86298,1.42796 -1.60269,1.884c-0.68643,0.42319 -1.09683,1.3499 -1.48267,2.11732c-0.3634,0.72281 -0.41483,1.72784 -0.88266,2.46533c-0.48349,0.76215 -1.1644,1.14761 -1.93332,1.55469c-0.75754,0.40103 -1.62222,0.62589 -2.28934,1.21466c-0.69492,0.61328 -0.97281,1.50043 -1.61069,2.064c-0.58347,0.5155 -0.99548,1.2045 -1.03598,2.10001l-0.38934,0.79999l-0.48932,0.80002l-0.08551,0.89981" id="svg_6" stroke-width="2" stroke="#000" fill="none"/>
  <path t="36471,36567,36575,36591,36591,36599,36599,36607,36607,36615,36623,36623,36631,36639,36647,36655,36663,36663,36671,36679,36696,36703,36712,36727,36727,36735,36743,36759,36775,36783,36783,36791,36807,36823,36823,36831,36839,36850,36855,36863,36871,36879,36887,36887,36903,36911,36911,36919,36935,36943,36959,36968,36975,36975,36991,36991,37007,37007,37023,37023,37033,37039,37055,37055,37066,37071,37079,37087,37096,37096,37103,37111,37119,37135,37159,37167,37175,37175,37186,37191,37191,37202,37207,37217,37217,37233,37239,37239,37250,37255,37255,37265,37271,37271,37279,37279,37287,37296,37303,37319,37327,37335,37351,37359,37367,37367,37383,37391,37400,37407,37423,37447,37455,37466,37479,37496,37519,37543,37607,37607" d="m383.51135,267.09091c-0.98932,2.58932 -1,3.47916 -1,4.44299c0,0.77835 0,1.75684 0,2.53616c0,0.99933 0,1.81952 0,2.65683c0,1.01669 0,1.71133 0,2.72803c0,0.93597 0,1.836 0,2.73599c0,0.89999 0,1.69998 0,2.60001c0,0.89999 -0.00226,1.79999 0,2.69998c0.00226,0.89999 0.32614,1.63666 0.716,2.39999c0.38455,0.7529 0.284,1.70001 0.284,2.60001c0,0.90451 -0.10373,1.93274 0.02084,2.57916c0.18344,0.95206 0.96115,1.46695 0.97916,2.34216c0.01755,0.85315 -0.00262,1.79333 0,2.7785c0.00226,0.8475 0.74704,1.4472 0.96402,2.30017c0.22205,0.87292 -0.12769,1.8573 0.25732,2.70001c0.30579,0.66931 0.73572,1.4216 0.78,2.38266c0.03726,0.80856 0.77359,1.44446 0.99417,2.22183c0.23465,0.82687 -0.04294,1.84909 0.35718,2.59549c0.45242,0.84396 0.71573,1.59097 1,2.35718c0.27942,0.75317 0.595,1.74042 0.63666,2.54285c0.05182,0.99854 -0.08521,1.78378 0.01083,2.77832c0.08371,0.86703 1.1441,1.0524 1.64267,1.72617c0.51373,0.69427 0.35648,1.6955 0.35715,2.59549c0.00067,0.90002 0.30084,1.75085 0.64734,2.40002c0.45334,0.84937 0.35266,1.79999 0.35266,2.69998c0,0.89551 -0.08014,1.8252 0.00018,2.70001c0.08371,0.91144 0.74692,1.4379 0.96384,2.31067c0.21982,0.88443 -0.12128,1.77747 0.03732,2.70267c0.14398,0.84 0.94974,1.45309 0.99417,2.23849c0.05035,0.88962 0.32104,1.68979 0.72049,2.44815c0.41544,0.78867 0.59113,1.67474 0.85867,2.37466c0.40344,1.05536 0.32721,1.9425 0.51068,2.71069c0.23071,0.96609 0.83228,1.41876 1.47867,2.12933c0.54752,0.6019 0.43597,1.62814 0.43597,2.50616c0,0.87915 0,1.77914 0,2.67917c0,0.89999 -0.02539,1.80038 0,2.59998c0.02859,0.9014 0.68552,1.62259 0.94284,2.5c0.25345,0.8642 0.67889,1.35828 1.05716,1.98535c0.47177,0.78204 0.56888,1.39127 0.96402,2.15067c0.39914,0.76709 0.03598,1.76401 0.03616,2.664l0.1665,0.89999l0.48065,0.64282" id="svg_7" stroke-width="2" stroke="#000" fill="none"/>
  <path t="38551,38615,38631,38639,38647,38655,38655,38671,38679,38679,38687,38687,38695,38695,38703,38703,38703,38711,38711,38719,38719,38719,38727,38727,38727,38735,38735,38744,38744,38744,38751,38751,38760,38760,38760,38767,38767,38767,38775,38775,38783,38783,38791,38791,38791,38799,38807,38807,38815,38815,38823,38823,38831,38839,38839,38847,38847,38847,38855,38855,38863,38863,38871,38871,38871,38879,38879,38879,38887,38887,38887,38896,38896,38903,38903,38903,38903,38912,38912,38919,38919,38919,38927,38927,38927,38935,38935,38944,38944,38944,38951,38951,38959,38959,38967,38967,38967,38975,38975,38975,38983,38983,38983,38991,38991,38999,38999,38999,39007,39007,39015,39015,39015,39023,39023,39023,39023,39031,39031,39039,39039,39048,39048,39055,39055,39065,39065,39071,39071,39080,39080,39087,39087,39097,39097,39103,39103,39114,39114,39119,39119,39119,39143,39143,39143,39159,39159,39159,39167,39167,39175,39176,39183,39191,39199,39199,39207,39215,39223,39232,39239,39247,39255,39264,39271,39295,39311,39311,39327,39343,39359,39391,39391,39751,39807,39895,39919,39927,39935,39935,39944,39944,39944,39944,39951,39951,39951" d="m290.51135,297.09091c0,1.79999 -0.14627,2.72299 0.436,3.38934c0.61057,0.69876 1.78653,0.72229 2.20685,1.31516c0.5824,0.82147 0.6062,1.79779 0.96783,2.47015c0.44583,0.82892 1.03888,1.41821 1.58932,2.31201c0.33081,0.53717 0.79691,1.68118 1.10001,2.457c0.297,0.76019 0.66241,1.60397 1.336,2.09634c0.80853,0.591 1.38965,0.9967 1.96533,1.56265c0.80411,0.7905 1.40417,1.37482 1.91333,1.99734c0.63257,0.77344 1.04376,1.36798 1.31866,2.39999c0.20865,0.78326 0.1051,1.60245 0.17566,2.60001c0.05695,0.80487 0.53622,1.82086 1.03268,2.39999c0.53461,0.62366 1.18396,1.17599 1.737,1.79999c0.68399,0.77173 0.97043,1.62738 1.272,2.36401c0.41074,1.0033 1.19391,1.3974 1.78265,2.00266c0.58514,0.60153 0.99969,1.32458 1.14584,2.33334c0.14111,0.97412 -0.09531,1.80157 0.59015,2.61465c0.50125,0.59457 1.43362,0.95688 2.02002,1.48535c0.73862,0.66565 1.24185,1.51755 1.52048,2.21432c0.39282,0.98239 0.76263,1.42377 1.18484,2.18033c0.56845,1.01862 0.82272,1.76389 1.55865,2.20667c0.86157,0.51837 1.85013,0.9285 2.33685,1.45135c0.60709,0.65216 1.14258,1.31216 1.80981,1.86816c0.52524,0.43768 1.11603,1.24716 1.5,1.97916c0.384,0.73199 1.14371,1.71609 1.74667,2.11465c0.89505,0.59164 1.44299,0.8587 2.23251,1.38535c0.75836,0.50586 1.56717,1.09854 2.1355,1.62534c0.7276,0.67444 1.22134,1.21066 1.78983,1.77917c0.79532,0.79535 1.38507,1.38458 1.93832,1.93832c0.77353,0.77417 1.30341,1.3024 1.97852,2.19983c0.3421,0.45477 0.82547,1.22733 1.51199,2.12399c0.51044,0.66666 1.32556,1.10452 1.92383,1.50034c0.83453,0.55212 1.24683,1.36786 1.64734,1.83218c0.76419,0.88602 1.45715,1.27426 2.11017,1.96881c0.68555,0.72916 0.92728,1.56555 1.36932,2.26401c0.53464,0.84479 1.16235,1.21219 2.116,1.93466c0.6127,0.46417 1.1564,1.01581 1.83334,1.66669c0.67996,0.65375 1.49713,1.1731 2.17651,1.47116c0.77231,0.33884 1.84119,0.83698 2.3035,1.18082c0.67267,0.50031 1.25452,1.07834 1.9295,2.11469c0.37814,0.5806 0.82407,1.61804 1.15717,2.17865c0.54745,0.92133 1.27692,1.21024 2.08398,1.78934c0.54675,0.39233 1.30734,1.24023 2.14133,1.41068c0.84161,0.172 1.82147,-0.00076 2.48935,0.59067c0.58221,0.51556 1.17664,1.49118 1.52817,2.18332c0.43091,0.84842 0.33286,1.70029 1.06699,2.49469c0.5545,0.60004 1.26215,1.07916 1.79016,1.75266c0.65845,0.83987 1.32822,1.33109 1.93069,1.71332c0.92468,0.58667 1.4498,1.14182 1.92114,1.69568c0.65405,0.76855 1.13419,1.5874 1.44684,2.19101c0.51263,0.98972 0.87363,1.76144 1.39999,2.51465c0.49081,0.70233 0.76712,1.6405 1.23734,2.28534c0.56842,0.77948 1.27625,1.21524 2.164,1.62534c0.81198,0.37509 1.50827,0.80273 2.39999,0.97467c0.88974,0.17154 1.5668,0.6777 1.96402,1.436c0.39926,0.76221 0.58051,1.35452 1.33148,1.92117c0.66907,0.50482 0.30115,1.57947 0.78986,2.35748c0.46487,0.74005 1.27628,1.0466 2.0145,1.50684c0.71716,0.44711 0.89301,1.59418 1.70151,1.77716c0.8765,0.19836 1.79926,-0.05194 2.18399,-0.84933c0.3855,-0.79895 1.13785,-1.03357 2.01465,-1.64932c0.67291,-0.47256 0.97919,-1.04166 1.51468,-1.81866l0.46417,-0.75967l0.54199,-0.88l0.44852,-0.55499" id="svg_8" stroke-width="2" stroke="#000" fill="none"/>
  <path t="40943,41054,41063,41079,41079,41086,41086,41095,41102,41102,41119,41119,41127,41127,41135,41135,41151,41158,41167,41167,41174,41183,41199,41207,41215,41224,41231,41247,41263,41287,41303,41303,41311,41318,41327,41351,41351,41358,41374,41375,41399,41415,41439,41446,41478,41479,41526,41543,41574,41599,41622,41623,41639,41678,41703,41991,41998,42007,42039,42046,42102,42150,42174,42198,42225,42239,42246,42254,42272,42286,42302,42310,42326,42358,42398,42414,42446,42830,42847" d="m398.51135,356.09091c1.05267,1.70001 1.55899,2.49457 2.10001,3.32132c0.43137,0.65918 0.93097,1.49014 1.37918,2.15784c0.4704,0.70078 0.68408,1.68884 0.94617,2.34616c0.40274,1.01013 0.55499,1.81488 0.85867,2.65869c0.25375,0.70505 0.58014,1.6452 0.79999,2.39999c0.27722,0.95172 0.80597,1.77261 0.91617,2.55865c0.11856,0.84564 0.75925,1.48904 0.99533,2.26184c0.2619,0.8573 0.62253,1.60587 0.91916,2.49551c0.28589,0.85745 0.59317,1.40863 1.02817,2.15717c0.42447,0.73038 0.05716,1.74283 0.05716,2.64282c0,0.79999 0,1.70001 0,2.60001c0,0.92084 -0.00146,1.884 0,2.57465c0.00226,1.06818 0.30084,1.87619 0.64734,2.52536c0.45334,0.84937 0.21057,1.81299 0.36334,2.69998c0.14349,0.83316 0.90143,1.58633 0.98483,2.30002c0.10446,0.89392 -0.04187,1.83331 0.42984,2.69998c0.39865,0.73242 0.53745,1.60086 0.57465,2.39999c0.04272,0.91766 0.93912,1.41525 1,2.30002c0.0618,0.89786 0.28299,1.5712 0.87869,2.12134c0.63693,0.58823 0.99524,1.50424 1.73199,1.76797c0.83734,0.29974 1.78934,0.01068 2.68933,0.01068c0.89999,0 2.0473,-0.38937 2.57849,0.2215c0.58185,0.66913 0.47345,1.60562 1.06885,2.13116c0.63812,0.56326 0.76004,1.30869 1.05264,2.1265c0.22931,0.64096 0.98935,1.1315 1,2.02084l0,0.89999l-0.00449,0.89551l-0.42084,0.66849" id="svg_9" stroke-width="2" stroke="#000" fill="none"/>
  <path t="43447,43534,43534,43550,43559,43582,43590,43590,43598,43607,43624,43630,43630,43646,43662,43672,43672,43678,43688,43742,43782,43790,43806,43846,43862,43878,43894,43894,43910,43910,43926,43942,43942,43958,43974,43990,43990,44006,44014,44014,44030,44038,44054,44071,44071,44087,44104,44110,44126,44126,44142,44158,44158,44166,44198,44230,44270,44310,44358,44390,44422,44438,44446,44462,44470,44478,44487,44494,44494,44495,44504,44504" d="m382.51135,408.09091c1,0.16666 1.60147,0.60919 2.2955,1.2955c0.65323,0.64597 1.62076,0.8588 1.7045,1.7045c0.07883,0.79608 -0.1189,1.8367 0.52084,2.47916c0.64139,0.64413 1.72168,0.62125 2.19385,1.32217c0.47879,0.71075 0.72952,1.59097 1.38516,2.29868c0.54996,0.59363 1.05966,1.33002 1.54749,1.95267c0.52829,0.67432 1.15363,0.58615 1.91669,0.98334c0.75934,0.39523 0.98123,1.41379 1.72131,1.87866c0.77802,0.48871 1.71396,0.25299 2.35068,0.69598c0.84708,0.58936 1.50104,1.07864 2.47867,1.30402c0.8667,0.1998 1.68533,0.08533 2.58533,0.08533c0.936,0 1.79803,0.10764 2.64734,-0.05716c0.92575,-0.17963 1.6431,-0.83209 2.45267,-0.9415c0.89377,-0.12079 1.66309,-0.57492 2.5,-0.94867c0.77216,-0.34482 1.33716,-0.82794 2.10001,-1.44202c0.74554,-0.6001 1.69998,-0.61066 2.59998,-0.61066c0.80002,0 1.63745,0.04984 2.64819,-0.00449c0.78552,-0.04221 1.53394,-0.48239 2.18515,-1.16217c0.60492,-0.63144 1.12415,-1.17749 1.66666,-1.83334c0.49878,-0.60297 0.5,-1.5 0.5,-2.39999c0,-0.89999 0,-1.80002 0,-2.70001c0,-0.89999 -0.00916,-1.77167 -0.52081,-2.44165c-0.58951,-0.77194 -0.95834,-1.47919 -1.19385,-2.05969l-0.22815,-0.99414l-0.05585,-0.91919" id="svg_10" stroke-width="2" stroke="#000" fill="none"/>
  <path t="45199,45342,45358,45374,45390,45398,45406,45423,45430,45430,45438,45446,45462,45478,45486,45494,45502,45510,45510,45519,45526,45536,45542,45552,45558,45574,45574,45590,45590,45598,45598,45606,45622,45638,45655,45662,45686,45710,45718,45742,45767,46038,46046,46342,46351,46358,46358,46367,46374,46374,46384,46390,46390,46398,46398,46406,46406,46414,46422,46422,46430,46438,46446,46446,46455,46455,46462,46470,46471,46478,46478,46486,46494,46502,46510,46510,46518,46526,46526,46535,46542,46551,46558,46574,46574,46582,46582,46590,46598,46606,46614,46614,46622,46622,46630,46654,46654,46662,46670,46687,46694,46702,46702,46710,46718,46726,46742,46758,46774,46774,46790,46806,46854,46998,47006" d="m412.51135,393.09091c0,-1.70001 0,-2.64282 0,-3.52084c0,-0.87915 0,-1.77914 0,-2.67917c0,-0.89999 0,-1.79999 0,-2.59998c0,-0.90002 0,-1.80002 0,-2.76401c0,-0.87201 0,-1.73599 0,-2.63602c0,-0.89999 -0.02539,-1.80038 0,-2.59998c0.02859,-0.9014 0.68619,-1.62238 0.94284,-2.5c0.25311,-0.8656 -0.14063,-1.8985 0.34119,-2.61734c0.4418,-0.65918 0.71063,-1.30399 0.71597,-2.2825c0.00424,-0.77933 0,-1.77869 0,-2.59885c0,-0.90134 -0.00192,-1.82092 0.42535,-2.60132c0.45038,-0.82257 0.57465,-1.69983 0.57465,-2.62534c0,-0.776 0,-1.67468 0,-2.57468c0,-0.89999 -0.18839,-2.05487 0.52084,-2.37915c0.8905,-0.40717 1.94772,0.22455 2.3125,0.97916c0.35553,0.73547 0.16666,1.75717 0.16666,2.65268c0,0.86331 -0.01898,1.72217 0.00018,2.66882c0.01801,0.88971 0.20959,1.88245 0.42517,2.46783c0.38736,1.05185 0.56931,1.79996 0.57465,2.73151c0.00549,0.96313 0,1.65381 0,2.7175c0,0.85898 0,1.61499 0,2.52167c0,0.90665 0,1.81866 0,2.76083c0,0.96448 0,1.68982 0,2.67899c0,0.77933 -0.33215,1.91943 0.16669,2.63351c0.50049,0.71643 0.83331,1.26682 0.83331,2.052c0,0.93997 0,1.948 0,2.81015c0,0.8045 0,1.7045 0,2.60449c0,0.90002 -0.09283,1.81592 0.08536,2.58536c0.22549,0.97382 0.74988,1.60577 0.89383,2.59381c0.13278,0.91144 0.02081,1.82535 0.02081,2.6875c0,0.83334 0,1.81183 0,2.63202c0,0.91599 0,1.77066 0,2.55316c0,1.01218 0,1.94815 0,2.84818c0,0.89999 0,1.79999 0,2.59998c0,0.90002 -0.31519,1.86652 0.02084,2.67917c0.30704,0.74255 0.96115,1.38168 0.97916,2.35419c0.01398,0.75586 0,1.66666 0,2.556l0,0.96783l0,0.84015l0,0.14532" id="svg_11" stroke-width="2" stroke="#000" fill="none"/>
  <path t="47351,47502,47510,47518,47526,47526,47534,47534,47542,47550,47558,47558,47582,47582,47590,47606,47614,47894,47902,47910,47926,47942,47942,47950,47958,47974,47998,47998,48022,48182,48190,48199,48206,48215,48222,48246,48262,48278,48286,48294,48318,48334,48382,48390,48431" d="m422.51135,400.09091c1.60001,-0.57468 2.40512,-0.9003 3.3045,-1.00449c0.87146,-0.10095 1.67944,-0.53885 2.52884,-0.82886c0.86594,-0.29565 1.08554,-1.11569 1.70834,-1.64581c0.78958,-0.67209 1.82208,-0.29654 2.625,-0.6875c0.75467,-0.36749 1.45154,-0.82413 2.23334,-1.25867c0.81931,-0.45538 1.57092,-0.93069 1.59998,-0.772c0.16162,0.88266 0,1.83331 0,2.68134c0,0.86331 0,1.75882 0,2.71466c0,0.88531 0,1.80133 0,2.60132c0,0.90002 -0.00812,1.80463 -0.7045,2.25269c-0.76749,0.49384 -1.64169,0.82971 -2.27014,1.37265c-0.57767,0.49905 -1.39743,0.64798 -2.05069,1.14935c-0.63382,0.48645 -1.37546,0.62555 -2.05865,1.14133c-0.61536,0.46457 -1.63068,0.36932 -2.13733,1.16266l-0.69467,0.40533l-0.51999,0.67999" id="svg_12" stroke-width="2" stroke="#000" fill="none"/>
 </g>
 <g display="none">
  <title>muse_image</title>
  <image xlink:href="http://farm2.static.flickr.com/1329/669328450_de8be74cc7.jpg" id="muse" height="426" width="640" y="27" x="0"/>
 </g>
 <g display="none">
  <title>bbox</title>
  <rect stroke="#f00" fill="none" stroke-width="3" height="370.99099" width="459.52" y="52.58559" x="87.04" id="bbox"/>
 </g>
</svg>
