<svg width="640" height="480" xmlns="http://www.w3.org/2000/svg" xmlns:svg="http://www.w3.org/2000/svg" xmlns:xlink="http://www.w3.org/1999/xlink">
 <!-- Sketchy ANNOTATION
  ImageNet ID: n02691156_10391
  URL: http://farm1.static.flickr.com/36/114324557_207c56f408.jpg
  Image Width: 500
  Image Height: 332
  BBox X: 9
  BBox Y: 75
  BBox Width: 484
  BBox Height: 214
  Exposure: 2000ms
  Synset Label: airplane
  Synset ID: n02691156
  Worker Tag: Plane in sky
  Sanity Check: 
   Context
   Saved
   Shading
  Comment: 
   {}
  Worker ID: A2L552OCPU5N1Q
  Assignment ID: 31JLPPHS2UUMWUL4D4NTHX6B5HOO33
  HIT ID: 3W1K7D6QSBH1B95U448EQUG6CLNZBV
  Work Time: 113s
  Worker Score: 0.8571
 END ANNOTATION -->
 <g display="inline">
  <title>Layer 1</title>
  <path t="0,416,418,418,447,447,448,448,448,448,449,449,450,453,453,453,453,453,453,454,454,454,458,459,459,459,459,459,459,460,460,476,477,477,477,477,477,498,499,499,500,500,509,509,509,510,533,533,533,533,542,542,542,542,558,559,559,560,575,575,576,592,592,592,592,609,610,610,626,626,626,627,642,643,643,643,659,659,659,660,660,660,675,676,676,676,676,692,692,693,693,710,710,710,710,727,727,727,728,747,748,748,748,759,759,760,760,780,780,781,781,781,792,793,793,793,793,813,814,814,814,814,814,826,826,826,827,843,843,843,843,858,859,859,859,877,877,877,877,892,893,893,893,909,910,910,910,925,926,926,926,926,942,943,943,943,944,959,960,960,960,960,976,976,976,976,992,993,993,1009,1009,1009,1009,1025,1026,1026,1026,1043,1043,1044,1044,1059,1060,1060,1060,1076,1076,1076,1077,1094,1095,1095,1096,1110,1110,1110,1110,1127,1128,1128,1128,1142,1143,1143,1143,1161,1161,1161,1176,1176,1176,1176,1177,1193,1193,1194,1209,1210,1210,1210,1210,1226,1228,1229,1229,1242,1243,1243,1243,1243,1259,1260,1260,1276,1276,1276,1294,1294,1294,1295,1309,1310,1310,1326,1327,1327,1342,1343,1343,1359,1360,1375,1376,1376,1376,1395,1396,1396,1396,1409,1409,1410,1427,1428,1428,1428,1442,1443,1443,1443,1463,1463,1464,1476,1476,1476,1495,1496,1509,1509,1510,1534,1537,1538,1543,1543,1543,1560,1560,1575,1576,1576,1593,1594,1609,1609,1627,1628,1628,1642,1642,1643,1659,1660,1660,1681,1681,1681,1693,1693,1710,1710,1727,1728,1742,1743,1761,1762,1775,1776,1793,1794,1809,1810,1826,1827,1842,1843,1859,1860,1876,1893,1893,1894,1910,1910,1911,1926,1926,1943,1944,1944,1959,1960,1960,1976,1976,1994,2009,2010,2010,2026,2026,2049,2050,2059,2059,2076,2076,2095,2095,2109,2110,2126,2127,2143,2143,2159,2176,2176,2177,2193,2193,2210,2210,2226,2243,2259,2259,2276,2276,2292,2310,2310,2326,2326,2343,2345,2359,2359,2377,2378,2393,2394,2409,2410,2426,2427,2443,2444,2444,2459,2459,2476,2476,2493,2493,2509,2510,2510,2528,2528,2542,2543,2563,2564,2577,2578,2592,2593,2609,2610,2626,2627,2627,2643,2644,2645,2659,2660,2677,2677,2678,2692,2693,2693,2709,2710,2729,2730,2743,2745,2761,2762,2778,2778,2792,2793,2793,2810,2811,2826,2826,2827,2847,2847,2859,2860,2860,2878,2878,2879,2900,2900,2909,2910,2910,2926,2926,2927,2943,2944,2946,2959,2959,2976,2977,2977,2993,2993,3009,3011,3027,3028,3043,3044,3044,3062,3062,3076,3077,3093,3093,3117,3118,3118,3126,3144,3145,3163,3164,3164,3176,3176,3192,3193,3194,3194,3209,3210,3226,3245,3246,3247,3259,3260,3260,3276,3277,3293,3293,3310,3310,3326,3330,3346,3360,3361,3362,3377,3378,3393,3410,3411,3427,3445,3446,3460,3460,3477,3493,3509,3510,3527,3527,3543,3544,3559,3560,3577,3577,3594,3596,3609,3626,3643,3643,3659,3660,3676,3677,3692,3709,3726,3727,3743,3760,3760,3776,3777,3793,3809,3828,3844,3859,3860,3876,3913,3942,3976,3994,4010,4026,4042,4060,4076,4093,4109,4110,4130,4160,4160,4181,4194,4195,4210,4211,4227,4228,4243,4243,4265,4266,4276,4277,4294,4294,4296,4309,4310,4327,4328,4329,4349,4350,4350,4351,4359,4361,4376,4377,4393,4394,4394,4410,4410,4433,4434,4443,4444,4461,4462,4476,4477,4493,4494,4511,4514,4515,4526,4527,4543,4544,4545,4560,4560,4561,4576,4577,4595,4597,4613,4614,4626,4627,4644,4645,4661,4662,4676,4677,4679,4694,4695,4709,4726,4727,4743,4744,4760,4761,4777,4781,4797,4826,4843,4859,4860,4879,4894,4942,5059,5142,5166,5176,5193,5210,5227,5244,5264,5266,5277,5277,5293,5294,5310,5311,5327,5327,5348,5350,5350,5360,5361,5377,5379,5393,5394,5394,5411,5412,5412,5432,5433,5434,5443,5444,5445,5461,5461,5462,5463,5477,5478,5478,5493,5494,5495,5496,5510,5511,5512,5525,5527,5527,5528,5549,5551,5560,5560,5561,5562,5577,5578,5579,5598,5600,5600,5610,5611,5612,5626,5627,5628,5643,5644,5645,5661,5662,5663,5676,5677,5678,5693,5695,5697,5710,5711,5712,5727,5728,5728,5743,5744,5745,5760,5762,5763,5768,5780,5781,5794,5795,5795,5811,5812,5813,5826,5827,5843,5844,5845,5866,5867,5876,5878,5879,5893,5894,5895,5910,5911,5911,5926,5927,5928,5943,5944,5945,5961,5963,5963,5976,5977,5994,5996,5997,6010,6011,6026,6027,6047,6048,6060,6061,6076,6077,6093,6094,6110,6111,6127,6129,6143,6144,6145,6160,6161,6162,6176,6177,6193,6195,6196,6210,6227,6229,6230,6243,6244,6262,6263,6278,6279,6295,6296,6316,6328,6329,6345,6360,6376,6377,6393,6394,6409,6428,6429,6443,6461,6479,6493,6495,6511,6527,6545,6560,6561,6576,6600,6610,6628,6643,6660,6661,6683,6710,6727,6743,6760,6776,6793,6810,6827,6843,6870,6877,6895,6926,6943,6959,6960,6977,6993,7027,7043,7075,7093,7110,7127,7159,7193,7211,7275,7310,7311,7326,7344,7360,7377,7397,7426,7445,7460,7482,7493,7512,7526,7545,7568,7576,7593,7625,7627,7644,7666,7668,7692,7711,7728,7743,7761,7762,7777,7794,7811,7827,7829,7844,7869,7870,7878,7895,7910,7928,7929,7944,7962,7963,7978,7979,7994,7995,7996,8011,8012,8031,8033,8044,8045,8060,8061,8077,8078,8079,8094,8095,8096,8111,8112,8114,8126,8127,8127,8143,8144,8145,8160,8161,8177,8178,8179,8193,8194,8195,8209,8211,8228,8244,8245,8246,8261,8262,8277,8278,8279,8293,8295,8310,8311,8327,8328,8343,8345,8360,8362,8381,8382,8393,8394,8395,8410,8411,8426,8428,8444,8460,8461,8463,8481,8482,8492,8511,8512,8513,8527,8528,8544,8560,8561,8577,8578,8578,8596,8597,8611,8612,8627,8628,8643,8644,8660,8662,8664,8665,8682,8684,8693,8695,8696,8710,8711,8712,8713,8727,8728,8743,8744,8745,8760,8762,8763,8776,8777,8795,8796,8797,8810,8812,8813,8827,8828,8830,8844,8845,8847,8870,8872,8873,8878,8879,8894,8895,8897,8898,8910,8911,8912,8913,8928,8929,8930,8943,8945,8949,8951,8961,8962,8976,8978,8979,8994,8995,8997,9011,9013,9014,9016,9027,9029,9030,9049,9050,9051,9062,9063,9064,9077,9079,9080,9094,9095,9096,9111,9112,9113,9115,9135,9136,9138,9145,9146,9147,9162,9163,9177,9178,9179,9194,9195,9213,9216,9217,9226,9228,9244,9245,9246,9261,9263,9265,9277,9279,9294,9295,9296,9315,9316,9317,9327,9329,9330,9331,9343,9346,9347,9348,9361,9362,9378,9379,9381,9382,9405,9408,9410,9415,9416,9418,9427,9430,9432,9433,9445,9447,9449,9462,9464,9465,9466,9468,9477,9479,9481,9495,9496,9497,9498,9499,9510,9511,9512,9528,9530,9531,9532,9545,9547,9548,9549,9560,9561,9564,9579,9581,9582,9594,9595,9596,9612,9613,9614,9627,9628,9629,9644,9646,9648,9665,9667,9669,9670,9679,9680,9682,9694,9695,9697,9698,9710,9712,9713,9714,9727,9728,9730,9743,9745,9746,9762,9764,9766,9768,9782,9784,9795,9798,9801,9803,9811,9813,9814,9815,9827,9828,9830,9831,9832,9845,9846,9847,9849,9863,9865,9866,9867,9876,9878,9879,9880,9893,9895,9896,9912,9913,9914,9915,9927,9928,9944,9946,9947,9960,9961,9963,9976,9978,9979,9980,9994,9996,9998,9999,10011,10012,10013,10015,10027,10028,10030,10031,10044,10046,10050,10052,10066,10068,10069,10077,10079,10081,10094,10095,10096,10112,10113,10114,10127,10129,10130,10144,10146,10167,10168,10177,10178,10180,10193,10195,10196,10211,10213,10214,10227,10228,10230,10243,10245,10246,10266,10267,10278,10279,10281,10294,10296,10297,10311,10312,10328,10330,10350,10352,10353,10361,10362,10378,10379,10380,10393,10395,10396,10411,10413,10414,10427,10429,10430,10447,10449,10451,10452,10460,10463,10464,10465,10477,10479,10481,10482,10494,10496,10497,10515,10516,10517,10527,10528,10531,10550,10551,10560,10562,10564,10578,10580,10593,10595,10596,10611,10613,10627,10631,10643,10645,10660,10662,10664,10677,10678,10694,10696,10698,10710,10712,10731,10734,10748,10750,10753,10761,10763,10777,10779,10793,10795,10810,10812,10829,10842,10845,10860,10877,10878,10880,10894,10897,10911,10913,10928,10929,10943,10945,10961,10963,10965,10977,10979,10980,10994,10995,10997,11011,11012,11014,11027,11029,11031,11043,11045,11046,11061,11063,11077,11094,11096,11115,11117,11127,11129,11145,11146,11176,11177,11194,11217,11228,11230,11244,11261,11277,11279,11297,11327,11342" d="m560,264c-0.64801,-0.35999 -1.02899,-0.57166 -1.53601,-0.85333c-1.46399,-0.81332 -2.44855,-1.3605 -3.5813,-1.98935c-1.2486,-0.69318 -2.58112,-1.43237 -3.966,-2.19897c-1.40442,-0.77744 -2.79657,-1.54745 -4.146,-2.289c-2.43597,-1.33861 -3.46899,-1.89839 -4.37469,-2.38667c-0.79065,-0.42625 -1.48132,-0.79465 -2.0835,-1.116c-0.52716,-0.28133 -0.99365,-0.52818 -1.40851,-0.75601c-0.73975,-0.40625 -1.08301,-0.60991 -1.41998,-0.80933c-0.33167,-0.19627 -0.65759,-0.39255 -0.98401,-0.58051c-0.32422,-0.18671 -0.64917,-0.37061 -0.98401,-0.53549c-0.6759,-0.33281 -1.03571,-0.46861 -1.40131,-0.60001c-0.37012,-0.13303 -1.13336,-0.37231 -1.91919,-0.58083c-1.19238,-0.31639 -1.99548,-0.5045 -2.79547,-0.7045c-0.80005,-0.20001 -1.59949,-0.40227 -2.79987,-0.69984c-0.79529,-0.19716 -1.57635,-0.39394 -2.34302,-0.543c-1.08661,-0.21127 -2.10449,-0.30449 -2.75714,-0.35716c-0.65265,-0.05267 -2.02362,-0.20975 -2.75269,-0.35716c-0.74988,-0.15163 -1.49762,-0.33658 -2.58063,-0.64284c-0.68329,-0.19322 -1.64655,-0.49788 -2.26221,-0.7c-1.20581,-0.39587 -1.8045,-0.60002 -2.70447,-0.90001c-1.20001,-0.40001 -1.79514,-0.61484 -2.70001,-0.87917c-0.59698,-0.17439 -1.7991,-0.40775 -2.39999,-0.46815c-0.89883,-0.09036 -2.10236,-0.20793 -2.70132,-0.33667c-0.92346,-0.19849 -1.54761,-0.41884 -2.92035,-0.5945c-0.73679,-0.09428 -1.5199,-0.10742 -2.34,-0.117c-1.3049,-0.01524 -1.7597,0.00119 -2.69101,-0.009c-0.94742,-0.01036 -1.42343,-0.00932 -2.36331,-0.08083c-1.36536,-0.10387 -2.22714,-0.26558 -3.06317,-0.41467c-0.81665,-0.14563 -1.21558,-0.24835 -2.42068,-0.37849c-0.79364,-0.08571 -1.96414,-0.11497 -2.71481,-0.12018c-1.064,-0.00737 -1.73355,0.01498 -2.71069,-0.03732c-0.65958,-0.03531 -1.69971,-0.16791 -2.81064,-0.40001c-0.77734,-0.1624 -1.56534,-0.36533 -2.36401,-0.564c-0.79868,-0.19867 -1.58594,-0.40504 -2.36401,-0.564c-1.46359,-0.29901 -2.1524,-0.36505 -2.82132,-0.40001c-1.02359,-0.0535 -2.14801,-0.036 -2.98401,-0.036c-0.44049,0 -1.3515,0 -2.2825,0c-1.3815,0 -1.82681,0 -2.6955,0c-0.85266,0 -1.70532,0 -3.01932,0c-0.91736,0 -1.38602,0 -2.33334,0c-0.94733,0 -1.41599,0 -2.77832,0c-0.86002,0 -1.68002,0 -2.46002,0c-1.095,0 -2.10898,0 -2.76166,0c-0.98401,0 -2.02151,0 -2.75717,0c-0.76367,0 -1.54733,0 -2.74283,0c-0.79868,0 -1.58932,0 -2.36401,0c-1.46933,0 -2.15198,0 -2.81064,0c-0.97803,0 -1.992,0 -2.71069,0c-0.75064,0 -1.91916,0 -3.11465,0c-0.80133,0 -1.2045,0 -2.02084,0c-0.83633,0 -2.14581,0 -3.06317,0c-0.94131,0 -1.41599,0 -2.36331,0c-1.38602,0 -1.83099,0 -2.69101,0c-0.82001,0 -1.60001,0 -3.04016,0c-0.66434,0 -1.61084,0 -2.22018,0c-1.20264,0 -2.12216,0 -2.75848,0c-1.00949,0 -2.09549,0 -2.84283,0c-0.74734,0 -1.83334,0 -2.84732,0c-0.65268,0 -1.30536,0 -2.67401,0c-0.73132,0 -1.47867,0 -2.22601,0c-1.086,0 -2.09998,0 -2.75266,0c-0.98401,0 -2.02151,0 -2.75717,0c-0.76367,0 -1.54733,0 -2.74283,0c-0.79868,0 -1.58932,0 -2.36401,0c-1.46933,0 -2.15198,0 -2.81064,0c-0.97803,0 -1.992,0 -2.70935,0c-1.116,0 -1.86334,0 -2.94934,0c-0.68134,0 -1.64581,0 -2.26215,0c-1.20468,0 -2.11517,0 -2.74051,0c-1.33066,0 -2.048,0 -2.78934,0c-0.74933,0 -1.49066,0 -2.89066,0c-0.65866,0 -1.63669,0.00093 -2.65067,0c-0.71869,-0.00067 -1.46979,0.00081 -2.24402,-0.036c-0.79129,-0.03761 -1.99063,-0.17757 -2.78934,-0.31667c-0.80139,-0.13956 -1.59552,-0.3261 -2.79999,-0.48067c-0.79626,-0.10219 -1.58911,-0.13852 -2.36401,-0.15601c-0.75052,-0.01694 -2.15067,-0.01067 -2.79999,-0.01067c-0.93149,0 -2.13599,0 -2.73599,0c-0.89999,0 -2.10001,0 -2.70001,0c-0.89999,0 -1.79999,0 -2.69983,0c-0.8895,0 -1.74301,0 -2.77884,0c-0.69598,0 -1.60532,0 -2.60532,0c-0.81601,0 -1.63202,0 -2.63202,0c-0.90933,0 -1.85065,0 -2.64566,0c-0.88501,0 -1.52499,0 -2.55966,0c-1.104,0 -1.85333,0 -2.59467,0c-1.0625,0 -2.048,0 -2.67334,0c-1.21066,0 -1.81198,0 -2.73151,0c-0.96448,0 -2.00034,0 -2.72733,0c-0.73099,0 -1.7825,0 -2.70898,0c-0.78152,0 -1.72552,0 -2.72684,0c-0.81601,0 -1.63202,0 -2.63202,0c-0.90933,0 -1.85065,0 -2.63666,0c-0.82199,0 -1.88068,0 -2.59467,0c-0.90533,0 -1.87399,0 -2.67801,0c-0.82199,0 -1.85315,0 -2.75381,0c-1.02084,0 -1.82083,-0.0018 -2.62085,0c-1,0.00226 -1.81436,0.00111 -2.80133,0.284c-0.63068,0.18077 -1.76151,0.58162 -2.55133,0.65884c-0.8194,0.08012 -1.88068,0.05716 -2.59467,0.05716c-0.67801,0 -1.87418,0 -2.68866,0c-0.57468,0 -1.76401,0 -2.655,0c-0.83701,0 -1.77567,0 -2.58817,0c-1.00616,0 -1.73151,0 -2.72086,0c-0.79999,0 -1.79999,0 -2.58932,0c-1.04401,0 -1.836,0 -2.69598,0c-0.91919,0 -1.91336,0 -2.67868,0c-0.952,0 -1.72,0 -2.672,0c-0.76532,0 -1.76401,0 -2.564,0c-0.99869,0 -1.94284,0 -2.84735,0c-0.91931,0 -1.79431,0 -2.43933,0c-0.99731,0 -1.81332,0 -2.62933,0c-1,0 -1.90933,0 -2.85065,0c-0.78601,0 -1.608,0 -2.66669,0c-0.93066,0 -1.76532,0 -2.76215,0c-0.74734,0 -1.78986,0 -2.73784,0c-0.67201,0 -1.416,0 -2.52383,0c-0.89101,0 -1.8,0 -2.54733,0c-0.9955,0 -1.7955,0 -2.79533,0c-0.77934,0 -1.79596,0.10951 -2.68417,-0.08533c-0.80052,-0.1756 -1.52414,-0.61191 -2.51466,-1.11467c-0.58269,-0.29575 -1.3877,-0.86914 -2.19067,-1.364c-0.78174,-0.48177 -1.73918,-0.6416 -2.43149,-0.95683c-0.58676,-0.26717 -1.592,-0.74837 -2.32201,-1.17917c-0.79201,-0.46739 -1.51677,-1.04556 -2.04649,-1.7c-0.60307,-0.74504 -0.90009,-1.67017 -1.6315,-2.07918c-0.77359,-0.43259 -1.73669,-0.48029 -2.47917,-1.04166c-0.66521,-0.50294 -1.2,-1.17917 -1.91066,-1.88983c-0.47467,-0.47467 -1.24203,-1.24197 -1.76401,-1.76401c-0.80388,-0.80396 -1.3526,-1.29111 -1.92534,-2.14667c-0.43823,-0.65463 -0.89999,-1.51199 -1.39999,-2.17867c-0.5,-0.66667 -0.85063,-1.3564 -1.5,-2.33333c-0.37259,-0.56055 -1.01926,-1.3222 -1.39999,-2.00267c-0.42168,-0.75362 -0.7739,-1.57689 -1.20001,-2.328c-0.47166,-0.83139 -1.04604,-1.43098 -1.59999,-2.32133c-0.43758,-0.70329 -0.78627,-1.52177 -1.2,-2.304c-0.38727,-0.73221 -1.0255,-1.5663 -1.40001,-2.09467c-0.64551,-0.91072 -0.97614,-1.64891 -1.5,-2.36333c-0.47871,-0.65283 -1.00954,-1.4048 -1.39999,-2.15717c-0.5126,-0.98773 -0.7522,-1.60452 -1.3,-2.42883c-0.46124,-0.69405 -1.09349,-1.49223 -1.52083,-2.1875c-0.35893,-0.58397 -0.96317,-1.37917 -1.47917,-1.97917c-0.51601,-0.60001 -1.25848,-1.59123 -1.58934,-2.2c-0.53622,-0.98662 -0.86954,-1.58786 -1.12532,-2.48534c-0.27888,-0.97849 -0.22331,-1.80339 -0.36934,-2.54533c-0.19266,-0.97885 -0.73763,-1.63922 -1.216,-2.422c-0.41801,-0.68398 -1.02971,-1.57242 -1.5,-2.23134c-0.53491,-0.74944 -0.90089,-1.52003 -1.3,-2.31599c-0.40091,-0.79955 -0.87878,-1.81134 -1.2045,-2.39551c-0.42551,-0.76312 -1.18628,-1.51152 -1.6955,-1.9045c-0.84486,-0.65199 -1.38307,-1.32547 -1.79866,-2.10133c-0.42233,-0.78845 -0.79991,-1.62479 -1.36801,-2.39867c-0.45692,-0.62244 -1.05399,-1.16426 -1.66666,-2c-0.56413,-0.76953 -0.85228,-1.388 -1.084,-2.39999c-0.18143,-0.79236 -0.50293,-1.81641 -0.944,-2.40001c-0.46727,-0.61827 -1.15866,-1.37625 -1.61784,-2.22083c-0.35219,-0.64777 -0.71571,-1.66377 -1.02083,-2.45834c-0.19672,-0.51227 -0.73009,-1.53418 -1.2,-2.32616c-0.42805,-0.72142 -0.67548,-1.4557 -1,-2.18933c-0.46536,-1.05203 -1.04823,-1.72308 -1.49867,-2.49068c-0.41103,-0.70044 -0.67415,-1.71558 -0.80133,-2.51466c-0.15935,-1.00119 -0.3369,-1.60912 -0.7045,-2.39999c-0.46989,-1.01097 -0.73962,-1.61491 -1.39551,-2.57867c-0.36969,-0.54324 -1.01669,-1.33354 -1.39999,-2.04216c-0.52309,-0.96704 -0.84244,-1.55461 -1.14284,-2.32201c-0.39508,-1.00931 -0.54268,-1.81671 -0.85716,-2.67799c-0.35477,-0.9716 -0.40852,-1.58525 -0.55267,-2.37917c-0.18365,-1.01147 -0.57509,-1.82903 -0.94733,-2.76668c-0.30983,-0.78046 -0.58765,-1.60197 -0.71466,-2.14932c-0.28107,-1.21127 -0.2061,-2.02615 -0.28984,-2.93134c-0.086,-0.92957 -0.53629,-1.78209 -0.7115,-2.43933c-0.26202,-0.98286 -0.24521,-1.81827 -0.368,-2.62934c-0.15225,-1.00573 -0.55165,-1.81784 -0.832,-2.8c-0.21579,-0.75597 -0.47929,-1.52573 -0.73134,-2.28851c-0.323,-0.9775 -0.25514,-1.76421 -0.35716,-2.84283c-0.08791,-0.92938 -0.47455,-1.57037 -0.7115,-2.354c-0.29515,-0.97607 -0.28174,-1.74149 -0.284,-2.77333c-0.00206,-0.94667 0,-1.8 0,-2.74001c0,-0.88533 0.03954,-1.64356 -0.0045,-2.53799c-0.04263,-0.86606 -0.61569,-1.62463 -0.91017,-2.54867c-0.29427,-0.92334 -0.08533,-1.624 -0.08533,-2.632c0,-0.792 0.0005,-1.82383 0,-2.57117c-0.00067,-0.99416 0.08421,-1.79923 -0.284,-2.71149c-0.3298,-0.81712 -0.6768,-1.53569 -0.71468,-2.4c-0.04218,-0.96249 -0.49069,-1.7093 -0.87999,-2.58417c-0.32994,-0.74148 -0.42792,-1.58046 -0.92267,-2.41583c-0.44978,-0.75944 -0.92102,-1.36589 -1.17334,-2.29867c-0.25443,-0.9406 -0.95427,-1.62238 -1.01466,-2.37067c-0.07478,-0.9264 -0.17812,-1.81413 -0.62134,-2.45067c-0.58904,-0.84595 -0.84367,-1.56984 -1.41466,-2.37866c-0.46745,-0.66217 -0.85962,-1.42853 -1.32733,-2.28534c-0.40686,-0.74532 -0.64667,-1.5 -0.64734,-2.41467c-0.00067,-0.93266 -0.57466,-1.28533 -1.436,-1.28533c-0.864,0 -1.77658,0.1498 -2.66383,-0.00017c-0.85202,-0.144 -1.33562,-0.98119 -2.20016,-0.99983c-0.89978,-0.01941 -1.75323,-0.29639 -2.39999,-0.64733c-0.81673,-0.44318 -1.74284,-0.35267 -2.65184,-0.35267c-0.89549,0 -1.81483,0 -2.64816,0c-0.97867,0 -1.75267,0 -2.65717,0c-0.74733,0 -1.7415,0 -2.68567,0c-0.909,0 -1.6265,0 -2.66699,0c-0.77551,0 -1.8235,0 -2.75418,0c-0.63148,0 -1.63733,0 -2.47198,0c-0.93068,0 -1.72118,0 -2.57468,0c-1.18933,0 -2.0854,-0.00981 -2.6685,0.02084c-0.83682,0.04398 -1.8314,0.27579 -2.71016,0.55383c-1.00619,0.31836 -1.81051,0.41491 -2.81067,0.42533c-0.79996,0.00833 -1.6006,-0.03061 -2.6,0.0045c-0.80124,0.02815 -1.79748,0.28665 -2.4,0.4955c-0.99596,0.34521 -1.78886,0.48199 -2.83334,0.5c-0.79189,0.01365 -1.65962,-0.07347 -2.57117,0.05717c-1.01069,0.14485 -1.57373,0.51711 -2.5955,0.77617c-0.78748,0.19965 -1.61104,0.21235 -2.6045,0.51933c-0.63955,0.19762 -1.81464,0.54993 -2.62083,0.61133c-0.54832,0.04176 -1.85316,0.036 -2.53867,0.036c-0.83466,0 -1.84261,-0.0582 -2.636,0.05717c-1.01473,0.14755 -1.783,0.57763 -2.6,0.77617c-0.77744,0.18893 -1.84304,0.07394 -2.62534,0.20267c-0.88316,0.14532 -1.56281,0.62517 -2.57466,0.8425c-0.78833,0.16932 -1.8,0.1215 -2.60001,0.1215c-0.8,0 -1.79549,0 -2.71466,0c-0.86,0 -1.80684,-0.00008 -2.69601,0c-0.98917,0.00008 -1.80078,-0.10789 -2.62267,0.16666c-0.84502,0.28228 -1.64794,0.78619 -2.514,0.82883c-0.88993,0.04382 -1.81933,0.0045 -2.75266,0.0045c-0.9,0 -1.7,0 -2.6,0c-0.86401,0 -2.03127,-0.10645 -2.2955,0.64733c-0.28897,0.82433 -0.0045,1.75267 -0.0045,2.65267c0,0.89867 0,1.784 0,2.58666c0,0.93867 -0.00062,1.94667 0,2.73867c0.00067,0.86 -0.04157,1.60307 0.22134,2.5745c0.21622,0.79891 0.61749,1.78888 0.83133,2.55283c0.25726,0.91905 0.65093,1.65228 1.04733,2.44733c0.39909,0.80045 0.71338,1.39346 1.1955,2.3955c0.35731,0.74262 0.62771,1.66135 0.7885,2.37383c0.23777,1.05363 0.52526,1.85246 0.71733,2.43333c0.39578,1.19696 0.58568,1.79134 0.89867,2.64017c0.38415,1.04182 0.70856,1.72811 1,2.40984c0.41199,0.96372 0.7218,1.77451 0.94283,2.65183c0.22367,0.88779 0.29955,1.79594 0.3825,2.6955c0.05536,0.60031 0.24686,1.80344 0.41067,2.39999c0.24868,0.90568 0.664,2.10001 0.86401,2.7c0.3,0.9 0.49999,1.5 0.89999,2.7c0.2,0.6 0.49932,1.50023 0.8,2.4c0.29933,0.89573 0.4853,1.48459 0.8,2.31467c0.38226,1.00824 0.72289,1.67578 1.2,2.85201c0.20877,0.51468 0.51492,1.34537 0.71467,2.23466c0.20016,0.89114 0.23,1.79128 0.338,2.64149c0.13225,1.04114 0.38454,1.73135 0.74866,2.64117c0.4,0.99947 0.59045,1.54437 0.89867,2.36333c0.38964,1.03528 0.7085,1.72365 1,2.40533c0.41206,0.96361 0.69183,1.77568 1,2.59467c0.38955,1.03526 0.73009,1.71347 0.94283,2.40533c0.29301,0.95294 0.30408,1.77577 0.40984,2.59467c0.13385,1.03645 0.47169,1.95123 0.74866,2.63667c0.4038,0.99927 0.70077,1.83611 0.89867,2.4205c0.4043,1.19388 0.58901,1.79486 0.9,2.6595c0.38641,1.07431 0.70502,1.78113 1,2.46132c0.40694,0.93837 0.69837,1.72794 1,2.54935c0.19893,0.54172 0.72917,1.76027 0.964,2.45065c0.31531,0.92696 0.36768,1.72897 0.46133,2.54935c0.12113,1.06116 0.30218,1.78085 0.67917,2.62082c0.36707,0.81787 0.79852,1.60301 1.2955,2.60451c0.29731,0.59912 0.70924,1.3842 0.916,2.40134c0.12453,0.61263 0.23834,1.76836 0.43667,2.55133c0.20907,0.82539 0.49632,1.87834 0.59467,2.59467c0.09282,0.67612 0.25528,1.87929 0.48866,2.67799c0.16167,0.55331 0.57333,1.60422 0.8595,2.32201c0.3591,0.90073 0.59292,1.87291 0.67917,2.67799c0.08795,0.821 0.231,1.85803 0.45066,2.53868c0.27145,0.84111 0.50907,1.84224 0.6,2.47198c0.17167,1.18895 0.40701,1.9767 0.622,2.75418c0.23915,0.86487 0.37965,1.76688 0.70534,2.66699c0.27332,0.7554 0.51585,1.7498 0.67266,2.50684c0.20017,0.96635 0.72659,1.55882 1.17334,2.32133c0.41055,0.70071 0.72182,1.71021 0.78049,2.49384c0.07464,0.99693 0.03705,1.78806 0.37801,2.6825c0.31065,0.81494 0.75256,1.75613 0.93833,2.291c0.28372,0.81688 0.5508,1.87878 0.67917,2.81134c0.08677,0.63034 0.28335,1.64764 0.63599,2.43599c0.45451,1.01605 0.83939,1.56505 1.104,2.31467c0.3463,0.98102 0.26865,2.02846 0.296,2.73601c0.02879,0.74489 0.3281,1.75479 0.63667,2.4975c0.36726,0.88397 0.33912,1.6741 0.63667,2.6505c0.23864,0.78313 0.66769,1.71419 0.71467,2.48534c0.05724,0.93967 0.16211,1.95239 0.50134,2.59517c0.43531,0.82484 0.40363,1.74409 0.66666,2.6875c0.19006,0.68163 0.7313,1.65616 0.82267,2.42267c0.11032,0.92546 0.24532,1.72659 0.58533,2.58533c0.3163,0.79884 0.45291,1.75337 0.94617,2.367c0.60835,0.75681 0.85058,1.5015 1.4265,2.3485c0.4715,0.69344 0.88908,1.45689 1.274,2.20984c0.39016,0.7632 0.77641,1.59998 0.77866,2.5c0.00225,0.89999 -0.09547,1.84453 0.284,2.59999c0.43559,0.8672 0.71375,1.49998 0.716,2.44284c0.0021,0.87799 0,1.75716 0,2.65717c0,0.89999 0,1.79982 0,2.72533c0,0.776 0,1.67468 0,2.57468c0,0.89999 0,1.79999 0,2.6955c0,0.92599 0,1.8045 0,2.7045c0,0.79999 0,1.70001 0,2.64282c0,0.87802 0,1.83633 0,2.71436c0,0.84283 0,1.74265 0,2.66815c0,0.89066 0.22861,1.70743 0,2.61749c-0.21927,0.87289 -0.95609,1.55469 -0.99866,2.24252c-0.05741,0.92755 -0.00134,1.94531 -0.00134,2.72531c0,0.88934 0,1.8685 0,2.74652c0,0.84283 0,1.74283 0,2.64282c0,0.94733 0,1.7045 0,2.60001c0,0.89999 0,1.79999 0,2.69998c0,0.99551 0,1.86667 0,2.58667c0,0.93869 0,1.94669 0,2.75168c0,0.88251 -0.00066,1.76166 0,2.66165c0.00067,0.90002 0.10302,1.93866 0.80133,2.41467c0.74931,0.51077 1.16008,1.05115 1.71951,1.78534c0.59112,0.77579 1.17921,1.19995 1.87917,1.89999c0.69988,0.69995 1.09126,1.38937 1.6,2.07916c0.48628,0.65936 1.40882,0.94766 2.10001,1.62085c0.50655,0.49335 1.19289,1.20715 1.89999,1.89999c0.5157,0.50528 1.29506,1.15326 2.02083,1.47916c0.94989,0.42651 1.78813,0.44299 2.57918,0.60486c1.01134,0.20694 1.58078,0.50031 2.51599,1.11465c0.64882,0.42621 1.54654,0.71579 2.2885,0.854c1.00473,0.18716 1.77808,0.58386 2.5955,0.78067c0.79832,0.1922 1.68533,0.16599 2.68533,0.16666c0.83549,0.00055 1.716,0 2.6145,0c0.8895,0 1.743,0 2.77882,0c0.69601,0 1.60535,0 2.60535,0c0.81599,0 1.63199,0 2.63199,0c0.90933,0 1.85068,0 2.63667,0c0.82201,0 1.88066,0 2.81134,0c0.63148,0 1.63466,0 2.57883,0c0.909,0 1.99049,0 2.66251,0c0.74399,0 1.85199,0 2.64532,0c0.89217,0 1.87016,0 2.66667,0c0.99733,0 1.87199,0 2.68266,0c0.97917,0 1.83333,0 2.62534,0c1.03183,0 1.77916,0 2.77466,0c0.8,0 1.8,0 2.60001,0c1,0 1.8,0 2.60001,0c1,0 1.79999,0 2.79866,0c0.76534,0 1.74081,-0.10925 2.76801,0.16666c0.69301,0.18616 1.4254,0.5936 2.42883,0.78067c0.74193,0.13834 1.59485,0.53525 2.57117,0.88602c0.6438,0.23132 1.4512,0.19562 2.42883,0.51932c0.7626,0.2525 1.77901,0.61539 2.726,0.64749c0.69923,0.02368 1.69351,0.12543 2.4785,0.43585c0.81784,0.32339 1.61285,0.73795 2.364,1.164c0.83136,0.47153 1.41864,1.09619 2.32133,1.31467c0.89682,0.21704 1.91763,0.05725 2.53549,0.10617c1.15147,0.09119 1.93091,0.33527 2.75385,0.55383c0.54073,0.14362 1.77472,0.35645 2.45065,0.45065c1.20052,0.16733 1.72754,0.34457 2.58534,0.54935c1.18387,0.28259 1.78821,0.33908 2.6685,0.42532c0.83571,0.08188 1.83102,0.3028 2.74615,0.57468c0.93581,0.27802 1.72649,0.38724 2.54935,0.41464c1.05812,0.03525 1.76816,0.01068 2.62082,0.01068c1.00584,0 1.8405,0 2.77118,0c0.786,0 1.608,0 2.66666,0c0.94135,0 1.61934,0 2.58801,0c0.80399,0 1.62605,-0.01151 2.65732,0.00015c0.92151,0.01041 1.61206,0.05396 2.60535,0.28384c0.82236,0.19034 1.62228,0.48941 2.63199,0.63068c0.90359,0.12643 1.85068,0.08533 2.64568,0.08533c0.88499,0 1.52502,-0.00812 2.92233,0.00134c0.74138,0.00504 1.49251,0.01212 2.23199,0.08398c1.06615,0.10361 2.04626,0.3475 2.67334,0.48935c1.20747,0.27313 1.80798,0.36194 2.68982,0.40448c0.83478,0.04028 1.83685,0.02084 2.74619,0.02084c0.94131,0 1.72733,0 2.54932,0c1.05869,0 2.01068,-0.00006 2.73517,0c1.13284,0.00009 1.79596,-0.009 2.49017,0.02084c1.03308,0.04443 1.97241,0.15274 2.97916,0.5c0.71597,0.24698 1.69904,0.6998 2.25684,0.85782c0.85904,0.24335 2.06735,0.30447 2.65952,0.21152c0.87534,-0.13739 1.93207,-0.47586 2.65182,-0.5285c0.90292,-0.06604 1.87891,0.14264 2.68866,0.37433c0.87399,0.25006 1.76108,0.57312 2.664,0.8595c0.59811,0.1897 1.49384,0.45773 2.39999,0.58301c0.89557,0.12381 1.80002,0.11923 2.70001,0.12149c0.89099,0.00223 1.72827,-0.02542 2.85733,0.00015c0.79395,0.01797 1.68524,0.2222 2.40399,0.42517c0.79019,0.22314 1.81354,0.4942 2.71783,0.55383c1.01883,0.0672 1.82083,0.01904 2.62085,0.02084c1.00449,0.00226 1.64594,-0.0191 2.82132,0.22134c0.81265,0.16623 1.3429,0.40063 2.41202,0.612c0.92346,0.18256 1.77524,0.21439 2.56799,0.45065c0.84702,0.25244 1.76276,0.56879 2.55133,0.66333c0.81982,0.09827 1.89505,0.17337 2.82199,0.48868c0.6904,0.23483 1.63947,0.68631 2.47202,0.95334c0.59506,0.19086 1.23431,0.36954 2.63599,0.52664c0.72977,0.08179 1.45892,0.08154 2.14801,0.16803c1.20706,0.15152 1.92859,0.49747 3.13599,0.74933c0.78122,0.16296 1.64395,0.15997 2.23468,0.16531c1.1973,0.0108 2.08072,-0.00925 2.64151,0.0585c1.28516,0.15527 1.96841,0.47937 2.7265,0.65884c0.86456,0.20465 1.89175,0.25604 2.616,0.27332c0.73184,0.01746 1.79333,0.01068 2.78931,0.01068c0.6507,0 1.99203,-0.00385 2.70935,0.00134c0.74136,0.00537 1.49304,0.00674 2.23199,0.08398c1.40656,0.14703 2.06046,0.34409 2.70935,0.52533c1.34518,0.37573 2.05652,0.59647 2.79999,0.77869c0.74728,0.18317 1.4848,0.37173 2.88934,0.52533c0.64734,0.0708 1.58081,0.08307 2.48532,0.08533c0.90451,0.00223 1.52084,0 2.48532,0c1.03586,0 1.76285,0 2.85333,0c0.69202,0 1.892,0 2.6405,0c0.70352,0 1.70691,-0.01944 2.54169,0.02084c0.88184,0.04254 2.07922,0.25735 2.66849,0.40448c0.85565,0.21362 1.88635,0.48251 2.58533,0.53867c0.90707,0.07288 1.91068,0.03601 2.74619,0.03601c0.88049,0 1.77914,0 2.67917,0c0.89999,0 1.79999,0 2.69998,0c0.89999,0 1.5,0 2.70132,0c0.91953,0 1.55585,0 2.56534,0c1.086,0 1.83334,0 2.58069,0c1.086,0 1.76733,0 2.73181,0c0.91953,0 1.82068,0 2.71017,0c0.85352,0 1.8895,0 2.59601,0c0.98401,0 1.85733,0 2.86533,0c0.69867,0 1.38135,0 2.57999,0c0.7485,0 1.936,0 2.73102,0c0.57999,0 1.52499,0.00296 2.55984,-0.00015c0.73566,-0.00223 1.50034,-0.00305 2.28299,-0.05701c1.19766,-0.08255 1.99619,-0.22296 2.7955,-0.36816c0.80069,-0.14548 1.59604,-0.32336 2.79999,-0.45319c0.79797,-0.08606 1.59988,-0.10733 2.39999,-0.117c1.19992,-0.0145 1.99869,-0.00449 2.78934,-0.00449c0.77469,0 2.24402,0 2.92535,0c0.64932,0 1.58081,0 2.78531,0c0.60001,0 1.5,0.00134 2.70001,0c0.59866,-0.00067 1.48447,0.02866 2.31467,-0.08533c1.01138,-0.13885 1.89587,-0.55093 2.85199,-0.74802c0.77725,-0.16022 1.60797,-0.15802 2.66669,-0.16666c0.71848,-0.00586 1.67987,-0.03412 2.5,-0.16666c0.98132,-0.15857 1.68546,-0.34381 2.41849,-0.48068c1.07874,-0.20145 2.09494,-0.30719 2.74817,-0.33182c0.98349,-0.03711 2.02133,-0.02084 2.75266,-0.02084c0.74734,0 1.49469,0 2.92603,0c0.66864,0 1.32132,0 2.30533,0c1.03732,0 1.76865,0 2.51599,0c1.116,0 2.17834,0 2.83835,0c0.91498,0 1.995,0 2.70898,0c0.90533,0 1.87399,0 2.67801,0c0.82199,0 1.85333,0 2.77466,0c0.68399,0 1.68399,0 2.5,0c0.81601,0 2.04285,0.00006 2.68933,0c1.01068,-0.00009 1.82599,0.06061 2.81067,-0.16666c0.82913,-0.19138 1.44412,-0.54416 2.42151,-0.71185c0.80716,-0.13849 1.68298,-0.11923 2.87833,-0.12149c0.59567,-0.00113 1.46417,0 2.53351,0c0.94131,0 1.61932,0 2.58798,0c0.80402,0 1.62601,0 2.89334,0c0.66449,0 1.68533,0 2.496,0c0.87466,0 1.87332,0 2.68933,0c0.81601,0 1.82162,0.08673 2.65332,-0.03601c0.98474,-0.14532 1.63797,-0.68967 2.61603,-0.87997c0.74225,-0.14441 1.56024,-0.11429 2.54666,-0.36801c0.69467,-0.17868 1.84808,-0.56879 2.63666,-0.66333c0.81982,-0.09827 1.89075,-0.18494 2.59467,-0.40985c0.68951,-0.22031 1.61304,-0.66016 2.40533,-0.93832c0.81589,-0.28647 1.87814,-0.55505 2.59915,-0.65182c0.70743,-0.09494 1.78485,-0.20297 2.75803,-0.40985c0.71365,-0.1517 1.44482,-0.33716 2.5235,-0.64282c0.6832,-0.1936 1.64651,-0.49789 2.26218,-0.70001c1.20581,-0.39587 1.8045,-0.60001 2.70447,-0.89999c0.60004,-0.20001 1.8006,-0.59445 2.6792,-0.89999c0.56488,-0.19644 1.59241,-0.61755 2.29547,-0.88934c0.90082,-0.34824 1.90936,-0.52664 2.72534,-0.61066c0.81598,-0.08401 1.82703,-0.25299 2.47919,-0.52084c1.04309,-0.42844 1.62079,-0.77914 2.42084,-1.17917c1,-0.5 1.60071,-0.79849 2.59998,-1.29999c0.59595,-0.2991 1.36755,-0.66431 2.24731,-1.29999c0.65613,-0.47412 1.38342,-1.05914 2.15717,-1.34283c0.96924,-0.35538 1.80835,-0.323 2.59552,-0.52383c0.81793,-0.20868 1.59705,-0.64063 2.40131,-1.03336c0.83173,-0.40616 1.76044,-0.81335 2.54688,-1.09549c0.78577,-0.28192 1.72339,-0.51563 2.53101,-0.7045c0.84802,-0.19833 1.54498,-0.51401 2.52081,-1c0.79205,-0.39447 1.5318,-0.77576 2.24731,-1.29999c0.65302,-0.47842 1.38348,-1.05902 2.15717,-1.34283c0.96796,-0.3551 1.82562,-0.20792 2.71021,-0.64252c0.76898,-0.37778 1.38531,-1.21466 1.98529,-1.81467c0.60004,-0.60004 1.26355,-1.15659 1.90002,-2.06665c0.4469,-0.63898 0.70972,-1.23303 1.19867,-2.23203c0.3728,-0.76172 0.62756,-1.59351 0.88531,-2.48532c0.22766,-0.78778 0.61963,-1.52097 1.11603,-2.51599c0.29944,-0.60028 0.82062,-1.59033 1.09546,-2.2045c0.37604,-0.84039 0.61023,-1.81439 0.66852,-2.62085c0.05927,-0.82047 0.03601,-1.85333 0.03601,-2.54932c0,-0.90933 0,-1.91068 0,-2.74619c0,-0.88049 0,-1.77899 0,-2.66849c0,-0.85352 0,-1.88916 0,-2.78983c0,-0.61951 0,-1.81018 0,-2.53552c0,-0.98532 0.04834,-1.97473 -0.03601,-2.69598c-0.11688,-0.99954 -0.65259,-1.74844 -0.63068,-2.62268c0.02057,-0.82065 0.31616,-1.84042 0.01483,-2.45682c-0.47949,-0.9808 -1.12378,-1.35083 -1.73749,-2.10983c-0.60223,-0.74481 -0.73291,-1.63647 -1.31519,-2.30002c-0.55542,-0.63297 -1.46094,-1.02335 -2.29547,-1.46664c-0.63391,-0.33673 -0.97919,-1.33334 -1.01068,-2.22269l-0.48932,-0.58981" id="svg_1" stroke-width="2" stroke="#000" fill="none"/>
  <path t="13732,13926,13947,13949,13949,13949,13949,13950,13950,13950,13963,13963,13963,13963,13964,13964,13964,13964,13964,13985,13985,13985,13985,13985,13985,13985,13985,13985,13993,13993,13993,13993,13993,13993,13993,13993,14009,14010,14010,14010,14011,14011,14026,14026,14026,14026,14026,14027,14044,14044,14044,14061,14062,14062,14062,14076,14077,14077,14077,14092,14093,14093,14109,14109,14109,14109,14126,14126,14126,14126,14143,14143,14143,14143,14161,14161,14161,14178,14179,14179,14179,14193,14193,14210,14210,14210,14226,14226,14260,14277,14292,14354" d="m502,253c0.25601,0.68266 0.66394,1.77267 0.85867,2.28534c0.22083,0.58138 0.46851,1.22485 0.74548,1.923c0.29752,0.74991 0.61819,1.54431 0.97052,2.37299c0.74704,1.75702 1.16397,2.66296 1.59467,3.58401c0.43628,0.93298 0.88797,1.86597 1.3515,2.793c0.46051,0.92099 0.92435,1.82553 1.39648,2.703c0.90335,1.67886 1.35672,2.45486 1.79602,3.19464c0.4209,0.7088 0.83667,1.3808 1.245,2.01901c0.39182,0.61237 0.77689,1.19476 1.155,1.74899c0.71411,1.04669 1.06348,1.53436 1.40265,2.00534c0.32959,0.45764 0.65625,0.90054 0.98401,1.32901c0.32294,0.42215 0.63611,0.84671 1.66669,2.04166c0.34912,0.40485 1.08545,1.20053 1.45862,1.60001c0.74829,0.80103 1.13599,1.18747 2.20801,2.39999c0.34967,0.39548 1.00348,1.18774 1.625,1.9375c0.29431,0.35507 0.79541,1.06998 1.85767,2.00784c0.43585,0.38483 1.1441,0.78595 2.10553,1.37616c0.82104,0.50403 1.38983,0.88815 1.9798,1.27982c0.89954,0.59717 1.79205,1.1929 2.36267,1.59869c0.55463,0.39444 1.53058,1.22711 2.25684,1.75833c0.47498,0.34741 1.61694,0.82837 2.289,0.92734c0.70709,0.10413 1.8075,0.11298 2.86884,0.11432c0.6687,0.00082 1.64667,0 2.30536,0c1.03735,0 2.1413,0 2.89069,0c0.74133,0 1.80408,0.01453 2.78931,-0.01068c0.62561,-0.01602 1.84021,-0.13638 2.43469,-0.27466c0.88776,-0.20648 1.72021,-0.50543 2.71594,-0.91333c0.66748,-0.27344 1.67902,-0.68231 2.48535,-0.76532c0.79651,-0.082 1.79102,-0.03601 2.62933,-0.03601c0.92786,0 1.87067,0 2.76935,0l0.88666,0" id="svg_2" stroke-width="2" stroke="#000" fill="none"/>
  <path t="15433,15679,15683,15702,15703,15705,15705,15705,15705,15705,15706,15706,15712,15713,15713,15713,15713,15716,15716,15717,15717,15729,15729,15729,15729,15729,15729,15729,15744,15744,15744,15744,15761,15761,15761,15777,15778,15793,15793,15793,15793,15809,15810,15826,15826,15842,15843,15860,15876,15892,15910,15910,15926,15926,15943,15943,15943,15959,15959,15959,15959,15977,15977,15977,15977,15993,15993,15993,15993,16009,16010,16010,16010,16026,16026,16026,16042,16043,16043,16060,16061,16061,16077,16077,16077,16093,16093,16093,16103,16103,16104,16104" d="m431,261c0.216,0.504 0.5119,1.1947 1,2.33334c0.32843,0.76617 0.70706,1.64975 1.12949,2.6265c0.45349,1.04861 0.93088,2.14526 1.42651,3.2655c0.49738,1.12411 0.98129,2.23218 1.944,4.27466c0.42865,0.90945 0.83862,1.73203 1.21951,2.48099c0.34869,0.68564 0.67725,1.31021 0.9765,1.88702c0.27701,0.53391 0.54715,1.02643 0.97064,1.96533c0.19897,0.4411 0.36679,0.87762 0.5235,1.30048c0.15118,0.40787 0.26886,0.81128 0.55801,1.54733c0.39151,0.99652 0.89001,1.81973 1.27267,2.27719c0.55389,0.66214 1.39001,1.43011 1.95831,2.04166c0.54745,0.58911 1.095,1.43121 1.54169,1.97916c0.74487,0.91376 1.48135,1.28131 2.2645,1.61017c0.5271,0.22134 1.74585,0.73615 2.40399,0.97467c0.995,0.3606 1.78967,0.42557 2.78915,0.436c0.82016,0.00854 1.74982,0.19077 2.62152,-0.03601c0.85638,-0.22278 1.34225,-1.05701 1.39865,-1.84933c0.06827,-0.95895 -0.04565,-1.80978 -0.284,-2.79999c-0.20313,-0.84396 -0.414,-1.42087 -0.81482,-2.61465c-0.20175,-0.60089 -0.51871,-1.50742 -0.78519,-2.10001c-0.41016,-0.91214 -0.94501,-1.80359 -1.32532,-2.39999c-0.38495,-0.60367 -0.97375,-1.51086 -1.60001,-2.38934c-0.41501,-0.58215 -0.84317,-1.15695 -1.6105,-1.88934c-0.76352,-0.72873 -1.3522,-1.11209 -1.80948,-1.60532c-0.87067,-0.93912 -1.23471,-1.823 -1.51752,-2.36334c-0.54703,-1.0452 -1.05316,-1.74179 -1.65634,-2.29102c-0.75507,-0.68753 -1.39093,-1.0578 -2.28082,-1.46033c-0.72455,-0.32773 -1.53113,-0.62152 -2.362,-0.84415c-1.02197,-0.27383 -1.97641,-0.35031 -2.72202,-0.27051c-0.87848,0.09402 -1.87067,0.34933 -2.54398,0.52399l-0.63333,0.19067" id="svg_3" stroke-width="2" stroke="#000" fill="none"/>
  <path t="16801,16959,16960,16977,16977,16977,16978,16978,16978,16978,16978,16978,16998,16998,16998,16998,16998,16998,16999,16999,16999,17010,17010,17010,17010,17010,17011,17011,17011,17026,17026,17026,17026,17043,17044,17044,17059,17060,17078,17079,17079,17094,17094,17111,17111,17126,17143,17165,17165,17165,17177,17177,17177,17193,17193,17193,17193,17210,17210,17210,17211,17226,17226,17226,17226,17245,17245,17245,17245,17259,17260,17260,17260,17260,17283,17283,17283,17283,17283,17293,17293,17293,17293,17309,17309,17310,17320,17320,17320" d="m388,262c0.07199,0.57599 0.1705,1.36536 0.33334,2.66666c0.10956,0.87552 0.23557,1.88425 0.38098,2.9985c0.15579,1.19376 0.32327,2.43958 0.50702,3.7095c0.18362,1.26907 0.35208,2.51328 0.77866,4.79199c0.18704,0.99915 0.39008,1.89551 0.59549,2.70001c0.18607,0.7287 0.37897,1.3848 0.56851,1.98001c0.17453,0.54807 0.3569,1.05121 0.66934,1.98666c0.14828,0.444 0.28308,0.87988 0.414,1.30499c0.12775,0.41489 0.24857,0.82132 0.37799,1.215c0.25076,0.76266 0.67651,1.83539 1.03183,2.48502c0.34491,0.63062 0.71396,1.22638 1.54266,2.23999c0.56726,0.69379 1.14188,1.26114 1.77884,1.90033c0.64554,0.6478 1.32635,1.36029 1.85733,1.836c0.552,0.49457 1.56201,1.0249 2.36401,1.20001c0.99731,0.21777 1.66641,0.944 2.63065,0.89865c0.70352,-0.03308 1.22156,-1.05264 1.55869,-1.76001c0.38754,-0.81317 0.56082,-1.83749 0.569,-2.67416c0.00571,-0.58395 -0.16122,-1.78391 -0.39435,-2.68982c-0.1618,-0.62878 -0.36765,-1.27399 -0.76532,-2.67334c-0.21057,-0.741 -0.41068,-1.49918 -0.68402,-2.23199c-0.40137,-1.07611 -0.75992,-1.7338 -1.1355,-2.36316c-0.37201,-0.62344 -1.16867,-1.82825 -1.58817,-2.41635c-0.42191,-0.59146 -0.85995,-1.19724 -1.72433,-1.93784c-0.60629,-0.51947 -1.32867,-0.94025 -2.052,-1.392c-0.73267,-0.45758 -1.7995,-1.18829 -2.46198,-1.72733c-0.33044,-0.26889 -0.96362,-0.84 -1.63669,-1.36334c-1.01617,-0.7901 -1.75781,-1.23358 -2.49515,-1.64233c-0.70508,-0.39087 -1.67221,-0.90811 -2.51102,-1.27548c-0.71262,-0.31213 -1.67648,-0.43283 -2.45801,-0.35635l-0.7905,0.17551" id="svg_4" stroke-width="2" stroke="#000" fill="none"/>
  <path t="18052,18227,18227,18243,18244,18244,18244,18244,18244,18244,18244,18260,18261,18261,18262,18262,18262,18262,18262,18262,18279,18279,18279,18279,18280,18280,18280,18280,18295,18295,18295,18295,18295,18311,18311,18311,18331,18332,18332,18343,18343,18343,18360,18360,18376,18376,18394,18394,18394,18415,18415,18427,18428,18442,18443,18462,18463,18476,18476,18476,18493,18494,18494,18514,18515,18515,18526,18527,18527,18543,18543,18543,18560,18560,18561,18576,18576,18576,18593,18593,18593,18593,18609,18609,18610,18610,18610,18610,18610" d="m325,262c0.22867,0.74316 0.34119,1.10938 0.88568,2.87833c0.25293,0.82172 0.53375,1.73343 0.83698,2.715c0.31873,1.03177 0.64752,2.09351 0.98102,3.16501c0.33051,1.06183 0.96188,3.07538 1.25333,3.991c0.2713,0.85233 0.52719,1.64648 0.771,2.388c0.22897,0.69647 0.44901,1.35257 0.66299,1.974c0.20474,0.59454 0.60721,1.72269 0.80902,2.26685c0.19821,0.53448 0.39755,1.05664 0.59998,1.56448c0.19763,0.49579 0.39319,0.97769 0.60001,1.43851c0.5809,1.29425 0.98517,2.05566 1.39999,2.73618c0.38638,0.63385 0.77866,1.21207 1.59869,2.19733c0.38089,0.45764 0.98151,1.05267 1.57999,1.88535c0.55728,0.77536 0.85376,1.44174 1.508,2.19733c0.51654,0.59659 1.16193,1.14444 2.19601,1.43201c0.77734,0.21619 1.98645,0.2189 2.66666,0.15997c0.99258,-0.086 1.66782,-0.31415 2.39999,-0.59998c1.12805,-0.44037 1.73795,-0.85995 2.45068,-1.59067c0.52203,-0.53519 1.13599,-1.43796 1.36398,-2.00934c0.38483,-0.96432 0.42886,-1.81003 0.436,-2.95599c0.00491,-0.78601 0.03665,-1.61954 -0.16666,-2.66669c-0.14084,-0.72543 -0.45703,-1.38672 -0.83334,-2.33331c-0.31079,-0.7818 -0.5755,-1.61758 -1,-2.66669c-0.28802,-0.71188 -0.54318,-1.40686 -1.3215,-2.14532c-0.63278,-0.60037 -1.30554,-0.87259 -2.07849,-1.50665c-0.6218,-0.51007 -1.18243,-1.13409 -2.00269,-1.91336c-0.62585,-0.59457 -1.07147,-1.02145 -2.24048,-1.57999c-0.6561,-0.31348 -1.4198,-0.51987 -2.22302,-0.77399c-1.30121,-0.41165 -1.75418,-0.57385 -2.70898,-0.89551c-0.50256,-0.16931 -1.5795,-0.49051 -2.15799,-0.642l-0.6095,-0.1405" id="svg_5" stroke-width="2" stroke="#000" fill="none"/>
  <path t="20634,20811,20829,20830,20830,20830,20831,20831,20831,20831,20846,20846,20846,20847,20847,20847,20847,20848,20848,20862,20862,20863,20863,20863,20863,20863,20863,20878,20878,20878,20878,20878,20894,20894,20894,20894,20910,20910,20928,20928,20928,20943,20943,20943,20962,20963,20977,20977,20977,20993,20994,20994,20994,20994,21010,21010,21010,21010,21027,21027,21028,21028,21028,21043,21043,21043,21044,21060,21061,21061,21061,21076,21077,21077,21094,21095,21095,21095,21095,21095,21112,21113,21113,21113,21113,21127,21127,21127,21127,21128,21138,21139,21139,21139" d="m265,264c0,0.76801 -0.00131,1.99365 0.00266,2.56934c0.00449,0.64969 0.01459,1.36545 0.039,2.13901c0.026,0.82382 0.06174,1.69009 0.129,2.58899c0.13998,1.87115 0.26517,2.82428 0.39868,3.78134c0.13348,0.957 0.28784,1.90472 0.45151,2.83798c0.16043,0.91473 0.32886,1.80243 0.49649,2.65802c0.31204,1.59277 0.46005,2.31793 0.59866,2.99731c0.13016,0.63791 0.25534,1.2381 0.384,1.80301c0.12216,0.53641 0.21747,1.05609 0.66666,2.45834c0.14368,0.44855 0.47,1.31009 0.85419,2.10416c0.36444,0.75327 0.96356,1.74054 1.37784,2.29184c0.55981,0.74496 1.1268,1.35995 1.71866,2.16934c0.55423,0.75793 1.18692,1.48776 1.89249,1.83966c0.74905,0.3736 1.81772,0.64734 2.53302,0.69998c0.85037,0.06256 1.90723,-0.13153 2.62115,-0.58499c0.89316,-0.56729 1.2276,-1.20126 1.58865,-1.87216c0.59705,-1.10938 0.9075,-1.79199 1.24734,-2.52283c0.35516,-0.76373 0.55157,-1.14789 0.97818,-2.35834c0.27917,-0.79211 0.50214,-1.59348 0.603,-2.39999c0.14929,-1.19376 0.07941,-2.00394 -0.06384,-2.78934c-0.14249,-0.78125 -0.35571,-1.54691 -0.83884,-2.58917c-0.46753,-1.00864 -0.88422,-1.61404 -1.27982,-2.22018c-0.59134,-0.90601 -0.98846,-1.504 -1.59869,-2.36533c-0.39346,-0.55536 -1.18988,-1.56403 -1.62131,-2.01065c-0.67358,-0.69733 -1.50436,-1.40161 -2.15067,-1.90933c-0.70251,-0.55191 -1.08221,-0.82843 -1.8942,-1.36334c-0.41763,-0.27512 -1.74646,-1.04907 -2.68649,-1.48651c-0.46851,-0.21802 -1.41711,-0.5983 -1.89465,-0.74731c-1.37332,-0.42853 -2.26495,-0.57129 -3.11667,-0.64685c-0.82367,-0.07306 -1.63467,-0.06934 -2.83551,-0.07184l-0.78699,0.00433l-0.75101,0.01636l-0.69101,0.03632" id="svg_6" stroke-width="2" stroke="#000" fill="none"/>
  <path t="24579,24760,24761,24777,24777,24777,24778,24778,24778,24778,24778,24778,24796,24797,24797,24797,24797,24798,24798,24798,24798,24813,24813,24813,24813,24814,24814,24814,24814,24815,24838,24838,24838,24838,24838,24839,24839,24839,24839,24844,24844,24844,24845,24845,24845,24845,24845,24860,24861,24861,24861,24861,24861,24883,24884,24884,24884,24884,24894,24894,24894,24894,24894,24912,24912,24912,24913,24927,24927,24927,24927,24944,24944,24944,24944,24960,24960,24960,24961,24977,24977,24977,24978,24995,24996,24996,24996,25012,25012,25013,25013,25013,25027,25027,25027,25027,25028,25044,25044,25044,25044,25044,25061,25062,25062,25063,25079,25079,25079,25079,25094,25094,25094,25094,25110,25111,25111,25111,25127,25128,25128,25129,25145,25145,25145,25145,25160,25160,25161,25161,25177,25178,25178,25178,25195,25196,25196,25196,25213,25214,25231,25232,25232,25232,25244,25244,25245,25262,25262,25263,25283,25284,25284,25295,25295,25310,25310,25327,25327,25344,25362,25362,25377,25377,25394,25395,25412,25412,25429,25430,25443,25444,25444,25460,25461,25477,25478,25498,25499,25511,25511,25527,25528,25528,25548,25549,25550,25561,25562,25562,25577,25578,25578,25595,25595,25595,25613,25614,25627,25628,25628,25644,25645,25668,25669,25670,25678,25678,25695,25696,25711,25713,25732,25732,25745,25745,25761,25762,25780,25781,25794,25810,25811,25811,25827,25828,25844,25844,25844,25861,25862,25862,25877,25877,25878,25894,25894,25910,25911,25911,25911,25928,25928,25929,25945,25946,25946,25960,25961,25961,25962,25977,25978,25978,25993,25994,25994,25994,26010,26011,26011,26011,26029,26031,26031,26031,26044,26045,26045,26045,26061,26061,26062,26062,26062,26078,26079,26079,26080,26094,26094,26095,26099,26111,26111,26111,26112,26112,26128,26128,26129,26129,26144,26144,26145,26166,26169,26169,26177,26178,26178,26197,26198,26198,26199,26217,26218,26218,26218,26227,26228,26228,26244,26245,26246,26261,26262,26262,26277,26278,26278,26279,26294,26295,26310,26312,26312,26313,26327,26328,26328,26351,26351,26352,26360,26361,26362,26378,26378,26379,26395,26395,26396,26411,26411,26429,26430,26430,26445,26446,26460,26461,26479,26480,26494,26494,26495,26512,26515,26516,26527,26528,26545,26546,26546,26564,26564,26565,26578,26578,26579,26594,26595,26612,26612,26627,26628,26649,26649,26661,26678,26678,26694,26695,26711,26731,26744,26762,26844" d="m361,296c-0.35999,0.396 -0.85333,0.93866 -1.66666,1.83334c-0.54767,0.60248 -1.18161,1.29974 -1.88702,2.07748c-0.76392,0.84222 -1.57187,1.7345 -2.409,2.66251c-0.85425,0.94699 -1.71274,1.89694 -3.37067,3.76001c-0.7821,0.87888 -1.52432,1.72238 -2.23349,2.52899c-0.6788,0.77206 -1.32822,1.51337 -1.9545,2.22299c-0.60275,0.68301 -1.1817,1.34439 -2.31201,2.58133c-0.54184,0.59293 -1.07782,1.16211 -1.60049,1.71451c-0.50803,0.53693 -1.00439,1.05563 -1.48349,1.56149c-0.46454,0.49051 -0.91898,0.96185 -1.74933,1.89069c-0.39465,0.44147 -0.7652,0.88013 -1.12802,1.30499c-0.35449,0.41513 -0.70172,0.82324 -1.056,1.215c-0.3511,0.38824 -0.69797,0.78113 -1.48267,1.48001c-0.39993,0.3562 -0.83243,0.68619 -1.27649,1.00949c-0.44794,0.32611 -0.90952,0.63858 -1.37549,0.9465c-0.92902,0.61389 -1.85294,1.20355 -2.72803,1.81067c-0.4274,0.29654 -1.24783,0.8963 -1.63998,1.19998c-0.76559,0.59286 -1.82779,1.4971 -2.16135,1.80002c-0.65451,0.59436 -1.2767,1.19791 -1.884,1.79999c-0.90454,0.89676 -1.49622,1.50583 -2.12216,2.07916c-0.62686,0.57419 -0.94098,0.86844 -2.00034,1.59952c-0.71188,0.49127 -1.47293,0.89868 -2.16898,1.37399c-0.99899,0.68219 -1.55133,1.22134 -2.04852,1.77267c-0.48679,0.53976 -1.41656,1.62051 -1.94531,2.09067c-0.53021,0.47147 -1.13571,0.86099 -2.14935,1.85065c-0.50626,0.49426 -0.93051,1.06775 -1.392,1.608c-0.9201,1.07715 -1.45505,1.54565 -2,2c-0.54575,0.45502 -1.62051,1.38058 -2.09067,1.90933c-0.47147,0.53021 -0.86102,1.13568 -1.85065,2.14935c-0.49557,0.50763 -1.07379,0.94669 -1.64401,1.42798c-0.59537,0.5025 -1.49994,1.3721 -2.08932,2.04852c-0.61118,0.70142 -0.89386,1.08057 -1.5,1.8075c-0.89102,1.06854 -1.49619,1.72467 -1.80002,2.03598c-0.59265,0.60724 -1.18454,1.17856 -2.09982,1.92535c-0.87509,0.71402 -1.48132,1.12683 -2.01483,1.60532c-0.79047,0.70889 -1.22726,1.27316 -1.91068,2.09067c-0.45508,0.54437 -1.18829,1.31287 -1.72733,1.77267c-0.81067,0.69153 -1.39682,1.10355 -2.12601,1.87399c-0.73099,0.77234 -1.12915,1.36868 -1.60532,1.89468c-0.71191,0.78644 -1.54492,1.45432 -2.09067,1.90933c-0.54495,0.45435 -1.3147,1.18686 -2,2c-0.45789,0.5433 -0.87393,1.12656 -1.64685,1.85333c-0.78049,0.73389 -1.39545,1.13867 -1.97983,1.60532c-0.90826,0.72525 -1.50507,1.25809 -2.05701,1.83685c-0.54285,0.56921 -1.22855,1.46729 -1.57233,2.07648c-0.47711,0.84549 -0.77585,1.69516 -1.45334,2.43469c-0.62634,0.68369 -1.38214,1.28232 -1.76334,1.97781c-0.41464,0.75656 -0.57675,1.3461 -1.23798,2.30618c-0.49274,0.71542 -1.1301,1.35675 -1.71451,2.10516c-0.40558,0.51941 -0.94412,1.33231 -1.63351,2.24548c-0.5159,0.68338 -0.99789,1.19586 -1.46664,1.99051c-0.43069,0.7301 -0.96008,1.71927 -1.15836,2.34283c-0.30951,0.97345 0.04733,1.73361 0.33685,2.75732c0.22379,0.79135 0.12149,1.65167 0.12149,2.64267c0,0.80002 -0.00006,1.79984 0,2.57916c0.00009,0.99951 0.00577,1.79221 0.35718,2.67801c0.30389,0.76602 0.74283,1.54285 1.14282,2.34283c0.29999,0.60001 0.76874,1.61307 1.20001,2.34283c0.46823,0.79233 1.04565,1.3696 1.784,1.85849c0.68042,0.45053 1.48801,1.12515 2.01599,1.79868c0.65842,0.83987 1.14084,1.27097 1.90451,1.6955c0.97595,0.54254 1.61572,0.79395 2.1955,1.18985c1.04388,0.71283 1.39105,1.15552 2.08533,1.63065c0.96088,0.65759 1.81439,0.96387 2.362,1.1795c1.03064,0.40582 1.93283,0.8024 2.55133,1.10449c1.00751,0.4921 1.62109,0.82828 2.56799,1.03336c0.77191,0.16718 1.85324,0.10675 2.69067,0.38815c0.83762,0.28146 1.68274,0.8847 2.39334,1.1785c0.74133,0.30649 1.57047,0.76459 2.36398,1.164c0.83841,0.42203 1.59598,0.43066 2.58517,0.436c0.96417,0.00522 1.91617,0 2.68417,0c0.952,0 1.71732,0 2.716,0c0.79999,0 1.79868,0 2.564,0c0.952,0 2.00266,0 2.672,0c0.76532,0 1.76849,0 2.62115,0c0.96417,0 1.76819,0.00006 2.59018,0c1.03134,-0.00009 1.95685,0.01398 2.63666,-0.08533c1.00885,-0.14737 1.80988,-0.4393 2.63202,-0.63068c0.9935,-0.23129 1.93503,-0.26849 2.85065,-0.61734c0.81442,-0.31027 1.3327,-0.68857 2.14935,-1.18399c0.76205,-0.46231 1.68863,-0.97449 2.36798,-1.36667c0.74252,-0.42865 1.54935,-0.94052 2.09067,-1.32666c1.07507,-0.76688 1.53003,-1.20163 2.22534,-1.76849c0.67328,-0.54892 1.42307,-0.99622 2.22534,-1.40619c0.82379,-0.42096 1.64359,-0.91254 2.3175,-1.62448c0.46191,-0.48798 0.82867,-1.06125 1.65732,-2.06885c0.39316,-0.47806 1.03378,-1.14868 1.48517,-1.60532c0.9942,-1.00577 1.54608,-1.54626 2.08932,-2.12668c0.54752,-0.58496 1.30905,-1.48541 1.77267,-2.08932c0.45767,-0.59619 0.88708,-1.21478 1.61932,-2.10001c0.50497,-0.61044 1.06088,-1.198 1.608,-1.79999c0.54355,-0.59802 1.31287,-1.49313 1.76819,-2.10001c0.44522,-0.59341 1.05411,-1.50116 1.65732,-2.39999c0.40317,-0.60077 0.80637,-1.21069 1.25699,-1.80002c0.93503,-1.22284 1.22464,-1.50198 1.76819,-2.10001c0.54712,-0.60199 1.12323,-1.17365 2.08798,-2.39865c0.45572,-0.57864 0.85031,-1.15872 1.20001,-1.716c0.62122,-0.98993 0.9765,-1.69113 1.37067,-2.36932c0.58633,-1.00885 1.1268,-1.82318 1.52051,-2.36334c0.58087,-0.79688 1.21841,-1.47791 1.75949,-2.17801c0.7063,-0.91391 0.96133,-1.45578 1.336,-2.2955c0.25916,-0.58081 0.80844,-1.78653 1.15717,-2.37466c0.35074,-0.59152 0.92966,-1.43073 1.54266,-2.18317c0.57611,-0.70712 1.18732,-1.34549 1.63351,-2.08798c0.45651,-0.75967 0.74133,-1.6138 1.16666,-2.66669c0.29007,-0.71808 0.61758,-1.3847 1,-2.33331c0.31458,-0.7803 0.5925,-1.61084 0.79999,-2.14935c0.38739,-1.00549 0.81873,-1.91928 1.36667,-2.85065c0.30774,-0.5231 0.8378,-1.33054 1.18066,-1.88068c0.63953,-1.02618 1.0369,-1.71783 1.34818,-2.40533c0.43298,-0.95627 0.69629,-1.77573 1.00452,-2.59467c0.38965,-1.03528 0.70853,-1.7236 1,-2.40533c0.41196,-0.96356 0.72003,-1.76382 0.94281,-2.59467c0.27396,-1.0217 0.27536,-1.72604 0.44119,-2.55133c0.20447,-1.01761 0.52237,-1.60345 1.01599,-2.60135c0.39658,-0.8017 0.68707,-1.40659 1.19998,-2.39548c0.39029,-0.75247 0.9212,-1.50443 1.40002,-2.15717c0.52509,-0.71582 0.9014,-1.48239 1.46664,-2.24734c0.45886,-0.62103 1.06207,-1.15884 1.81183,-2.20001c0.41675,-0.57874 0.71881,-1.19907 1.22153,-2.19998c0.40143,-0.79929 0.79065,-1.6048 1.21066,-2.41068c0.33902,-0.65045 0.90479,-1.61423 1.242,-2.13751c0.51312,-0.79626 1.1958,-1.70709 1.58566,-2.24197c0.49463,-0.67862 0.68826,-1.65427 0.84567,-2.41116c0.2099,-1.00943 0.58405,-1.76614 1.116,-2.51468c0.46893,-0.65988 1.02066,-1.58899 1.5,-2.17416c0.60931,-0.7438 1.41333,-1.14368 1.79999,-1.73068c0.62158,-0.94366 0.96701,-1.62622 1.47467,-2.3685c0.47989,-0.70163 0.3735,-1.31516 0.03601,-2.17465l-0.01068,-0.91516" id="svg_7" stroke-width="2" stroke="#000" fill="none"/>
  <path t="36853,37171,37171,37171,37179,37180,37180,37180,37180,37180,37180,37180,37180,37191,37191,37191,37191,37191,37192,37192,37192,37192" d="m357,331c-0.375,0.39584 -1.02899,1.08618 -1.53601,1.62134c-1.46402,1.54529 -2.44901,2.58453 -3.58133,3.78134c-1.24902,1.32016 -2.58228,2.73111 -3.966,4.20148c-1.40561,1.49362 -2.8006,2.978 -4.146,4.42651c-2.44324,2.63049 -3.47284,3.7645 -4.37198,4.77066c-0.78812,0.88193 -1.46268,1.66266 -2.04453,2.34451l-0.49683,0.59683l-0.42282,0.52283l-0.35983,0.45984" id="svg_8" stroke-width="20" stroke="#fff" fill="none"/>
  <path t="43311,43733,43733,43733,43746,43746,43747,43747,43747,43747,43747,43747,43747,43750,43750,43750,43750,43750,43750,43750,43750,43750,43763,43763,43763,43763,43763,43763,43763,43763,43763,43778,43778,43778,43778,43779,43779,43779,43779,43779,43795,43796,43796,43796,43796,43812,43813,43813,43829,43829,43845,43845,43846,43861,43862,43880,43880,43880,43895,43895,43912,43912,43928,43945,43962,43978,43995,44012,44028,44046,44062,44062,44078,44078,44078,44094,44094,44095,44112,44112,44112,44128,44128,44128,44128,44175,44176,44176,44176,44178,44178,44179,44179,44179,44179,44196,44196,44196,44196,44197,44197,44197,44211,44212,44212,44212,44212,44228,44229,44229,44229,44229,44244,44245,44245,44262,44262,44262,44262,44278,44278,44278,44295,44295,44295,44312,44312,44328,44329,44329,44346" d="m360,323c-0.35416,0.375 -0.97183,1.02899 -1.45065,1.53601c-1.38266,1.46402 -2.31271,2.44894 -3.384,3.58264c-1.18304,1.25198 -2.44897,2.591 -3.7695,3.9855c-1.34482,1.42017 -2.68515,2.83481 -3.99451,4.21051c-2.39917,2.52075 -3.44171,3.60645 -4.37332,4.57199c-0.82751,0.85767 -1.56311,1.61426 -2.21552,2.28c-0.57568,0.58746 -1.0864,1.10391 -1.5405,1.56c-0.771,0.77435 -1.10751,1.10886 -1.41602,1.41736c-0.28448,0.28448 -0.54797,0.54797 -0.79349,0.79349c-0.2305,0.2305 -0.44901,0.44901 -0.65851,0.65851c-0.40399,0.40399 -0.60434,0.60349 -0.80267,0.80399c-0.19733,0.19949 -0.392,0.39874 -0.58047,0.60001c-0.18616,0.19879 -0.3674,0.39685 -0.53552,0.60001c-0.32602,0.39401 -0.46558,0.59872 -0.60132,0.79868c-0.1329,0.19577 -0.57593,1.00424 -1.20551,1.57999c-0.64371,0.58865 -1.32425,0.85138 -2.27399,1.6785c-0.59836,0.52109 -1.24173,1.34015 -1.65186,1.93832c-0.51016,0.74405 -1.07913,1.37653 -1.75266,1.90451c-0.83987,0.65842 -1.38071,1.32657 -1.6955,1.90451c-0.53326,0.97906 -0.71951,1.63089 -1.40451,2.57382c-0.44785,0.61649 -1.54861,0.80975 -1.87915,1.54251c-0.3616,0.80161 -0.02084,1.77914 -0.02084,2.67917c0,0.89999 -0.444,1.91626 0.00266,2.71597c0.40829,0.73105 1.3974,0.80688 2.39868,1.28268c0.61423,0.29187 1.27377,0.57651 2.284,0.716c0.83011,0.11462 1.71603,0.09317 2.91599,0.08398c0.60941,-0.00467 1.5593,-0.02765 2.56534,-0.16531c0.7204,-0.09857 1.46155,-0.25745 2.20801,-0.444c1.46469,-0.36606 2.14407,-0.58224 2.79999,-0.80002c0.65353,-0.21698 1.99664,-0.74576 2.71335,-1.07733c0.77454,-0.35834 1.17908,-0.56601 2.03082,-1.03082c0.45569,-0.24866 1.92538,-1.12128 2.44785,-1.4505c0.53595,-0.33774 1.07944,-0.68304 2.14667,-1.41602c0.52722,-0.36209 1.05273,-0.70709 2.42215,-1.79315c0.41452,-0.32874 1.16254,-0.97906 1.83252,-1.61084c0.32141,-0.30307 1.23199,-1.21066 1.83066,-1.80933c0.59067,-0.59067 1.16553,-1.16516 1.716,-1.716c1.00034,-1.00101 1.46558,-1.44522 2.08084,-2.138c0.62122,-0.69946 1.2045,-1.5 1.60449,-2.04733c0.39999,-0.54733 1.18042,-1.59628 1.79999,-2.25333c0.38809,-0.41159 1.40396,-1.21927 1.98935,-1.62134c0.73056,-0.5018 1.36331,-1.08719 1.79999,-1.836c0.56076,-0.96158 0.80002,-1.57867 1.12534,-2.30402l0.27466,-1.03867" id="svg_9" stroke-width="20" stroke="#fff" fill="none"/>
  <path t="45474,45735,45736,45737,45755,45756,45756,45757,45757,45757,45757,45757,45757,45765,45766,45767,45768,45768,45768,45768,45768,45769,45780,45780,45781,45781,45781,45781,45781,45781,45781,45797,45797,45797,45797,45798,45798,45798,45798,45813,45814,45814,45814,45832,45832,45832,45832,45847,45847,45863,45864,45864,45879,45882,45897,45898,45912,45913,45930,45930,45945,45945,45945,45961,45962,45978,45979,45979,45986,45986,45986,45986,45987,45991" d="m365,321c-0.57599,0.43201 -0.91467,0.686 -1.36533,1.02399c-1.30133,0.97601 -2.17709,1.63214 -3.18402,2.38934c-1.11179,0.83606 -2.2998,1.73181 -3.534,2.67001c-1.25647,0.95514 -2.50665,1.90817 -3.71399,2.84998c-2.21002,1.72394 -3.14828,2.49011 -3.97867,3.18268c-0.74127,0.61826 -1.3941,1.18292 -1.974,1.6965c-0.52393,0.46399 -0.99457,0.89594 -1.43399,1.2915c-0.81339,0.73227 -1.21426,1.07639 -1.61469,1.41068c-0.39526,0.33002 -0.79041,0.64963 -1.18048,0.96448c-0.38461,0.31046 -0.76559,0.61398 -1.1355,0.91953c-0.72247,0.59677 -1.06516,0.89969 -1.40002,1.19998c-0.32944,0.29541 -0.64923,0.59079 -0.96448,0.88049c-0.31009,0.28497 -0.60028,0.58243 -1.52084,1.35419c-0.58865,0.4935 -1.1918,0.92737 -1.76401,1.35599c-1.07401,0.8045 -1.5723,1.18686 -2.19434,1.81067c-0.57712,0.57874 -1.11276,1.43054 -1.66699,2.164c-0.64597,0.85486 -1.24881,1.15039 -1.89066,1.72c-0.79367,0.70438 -1.07452,1.32605 -1.58401,2.31583c-0.40091,0.77884 -0.95853,1.59512 -1.37915,2.30017c-0.46802,0.78448 -0.44498,1.53683 -0.6875,2.5c-0.20612,0.81857 -0.63416,1.60025 -1.03336,2.39999c-0.39948,0.80029 -0.83243,1.58554 -1.19998,2.45334c-0.21973,0.51877 -0.60556,1.97888 -0.69983,2.453c-0.20792,1.04565 -0.28952,1.599 -0.37933,2.15201l-0.16367,1.064" id="svg_10" stroke-width="20" stroke="#fff" fill="none"/>
  <path t="50618,50862,50879,50879,50879,50880,50880,50880,50880,50898,50898,50898,50899,50899,50899,50899,50900,50900,50907,50907,50907,50908,50908,50908,50908" d="m361,330c-0.25601,0.59732 -0.66562,1.55017 -1.0715,2.50467c-0.23715,0.55771 -0.49191,1.16162 -0.7605,1.806c-0.28244,0.67761 -0.57697,1.38199 -1.168,2.85599c-0.30219,0.75366 -0.60059,1.51608 -0.89099,2.28601c-0.29099,0.77145 -0.57245,1.54559 -0.83701,2.32199c-0.26273,0.77097 -0.52435,1.53491 -0.93866,3.05869c-0.20157,0.74136 -0.36267,1.47467 -0.51901,2.18698l-0.27267,1.35468l-0.12033,0.63434l-0.11234,0.60034" id="svg_12" stroke-width="20" stroke="#fff" fill="none"/>
  <path t="62015,62333,62335,62346,62347,62347,62347,62347,62347,62347,62347,62347,62363,62363,62363,62363,62363,62363,62363,62363,62363,62391,62391,62394,62394,62394,62394,62394,62394,62395,62397,62397,62397,62397,62398,62398,62398,62398,62398,62413,62413,62413,62413,62413,62413,62413,62413,62413,62435,62435,62435,62435,62435,62435,62435,62436,62436,62446,62446,62446,62447,62447,62466,62466,62466,62466,62466,62480,62480,62480,62480,62480,62481,62500,62500,62500,62500,62501,62513,62513,62513,62514,62514,62529,62529,62530,62530,62549,62549,62549,62563,62563,62563,62563,62583,62583,62583,62595,62596,62612,62612,62612,62613,62629,62629,62629,62645,62646,62646,62669,62670,62679,62679,62679,62697,62697,62712,62713,62730,62730,62745,62746,62763,62763,62763,62796,62816,62826" d="m135,289c0.396,-0.504 0.93875,-1.19461 1.83333,-2.33334c0.60223,-0.7666 1.29836,-1.65253 2.06851,-2.63998c0.83127,-1.06583 1.70461,-2.19159 2.59949,-3.36002c0.90747,-1.18488 1.81625,-2.36237 3.49867,-4.66666c0.77792,-1.06546 1.49031,-2.0824 2.157,-3.04349c0.62918,-0.90701 1.21626,-1.7702 1.77901,-2.5845c0.53535,-0.77466 1.03574,-1.52322 2.064,-2.87201c0.49011,-0.64288 0.99382,-1.24698 1.491,-1.82849c0.48427,-0.56644 0.96773,-1.10864 1.437,-1.6395c0.45807,-0.51819 0.91759,-1.01468 1.73868,-2.03201c0.39832,-0.4935 0.76663,-0.99582 1.11899,-1.49551c0.34627,-0.49106 0.6741,-0.9827 0.99301,-1.46848c0.31375,-0.47794 0.61305,-0.95441 1.22133,-1.86935c0.29727,-0.44714 0.59906,-0.88333 0.89999,-1.314c0.29906,-0.42798 0.60048,-0.85233 0.90001,-1.278c0.30048,-0.42699 0.606,-0.8546 1.2,-1.74133c0.30309,-0.45245 0.60022,-0.91586 0.89999,-1.3815c0.30022,-0.46635 0.59816,-0.93221 0.90001,-1.39049c0.29819,-0.45271 0.5825,-0.90485 1.2,-1.72801c0.58243,-0.77644 1.19019,-1.47127 1.47917,-1.8125c0.56535,-0.66757 1.36969,-1.67731 1.83682,-2.40616c0.47469,-0.74065 0.6783,-1.13882 1.13667,-1.91917c0.70526,-1.20067 1.22963,-1.99666 1.5,-2.39549c0.5439,-0.80234 1.09976,-1.59663 1.36333,-2c0.77768,-1.19022 1.23013,-1.9982 1.44801,-2.40001c0.43188,-0.79646 0.83391,-1.60036 1.43599,-2.79982c0.39952,-0.79591 0.595,-1.19212 1,-1.96417c0.39514,-0.75325 0.99805,-1.81557 1.39551,-2.47884c0.38194,-0.63737 0.95125,-1.54002 1.383,-2.45717c0.41701,-0.88583 0.61563,-1.49837 1.0215,-2.7c0.20239,-0.5992 0.49997,-1.50002 0.7,-2.10001c0.39995,-1.19968 0.57559,-1.80016 0.90001,-2.62799c0.3723,-0.95 0.8665,-1.58374 1.39999,-2.60533c0.34447,-0.65962 0.60251,-1.48715 0.8,-2.06934c0.40514,-1.19427 0.58696,-1.79137 0.89999,-2.64017c0.38411,-1.0415 0.65581,-1.73544 1.10001,-2.4705c0.54744,-0.90591 1.03387,-1.43994 1.39999,-2.256c0.33122,-0.73827 0.59235,-1.5511 0.99867,-2.54533c0.3586,-0.87744 0.63281,-1.68567 0.776,-2.47467c0.18954,-1.04443 0.58562,-1.68422 1.12534,-2.53217c0.43259,-0.67964 0.89999,-1.6785 1.1955,-2.2695c0.41916,-0.83833 0.7045,-1.69434 0.7045,-2.60899l0,-0.89984" id="svg_13" stroke-width="2" stroke="#000" fill="none"/>
 </g>
 <g display="none">
  <title>muse_image</title>
  <image xlink:href="http://farm1.static.flickr.com/36/114324557_207c56f408.jpg" id="muse" height="424" width="640" y="28" x="0"/>
 </g>
 <g display="none">
  <title>bbox</title>
  <rect stroke="#f00" fill="none" stroke-width="3" height="273.3012" width="619.52" y="123.78313" x="11.52" id="bbox"/>
 </g>
</svg>
