<svg width="640" height="480" xmlns="http://www.w3.org/2000/svg" xmlns:svg="http://www.w3.org/2000/svg" xmlns:xlink="http://www.w3.org/1999/xlink">
 <!-- Sketchy ANNOTATION
  ImageNet ID: n02691156_6382
  URL: http://farm1.static.flickr.com/23/33041999_713888dc3c.jpg
  Image Width: 500
  Image Height: 280
  BBox X: 10
  BBox Y: 49
  BBox Width: 490
  BBox Height: 159
  Exposure: 2000ms
  Synset Label: airplane
  Synset ID: n02691156
  Worker Tag: airplane
  Sanity Check: 
   Saved
  Comment: 
   {}
  Worker ID: AQ9ISCTDF9B48
  Assignment ID: 31Z0PCVWUKFKA5RZBXCIOOOEG2XT7Y
  HIT ID: 3OEWW2KGQJBIR2P7GRO35MX2Y3BOD9
  Work Time: 174s
  Worker Score: 0.7857
 END ANNOTATION -->
 <g display="inline">
  <title>Layer 1</title>
  <path t="0,176,184,184,192,207,222,222,239,239,271,271,287,319,319,335,383,383,391,415,431,447,479,503,503,519,535,575,633,640,671,703,703,711,722,739,759,759,772,791,807,822,839,840,856,872,889,906,906,922,923,939,939,940,956,957,991,991,999,1007,1023,1023,1040,1040,1057,1057,1073,1073,1073,1073,1103,1103,1112,1112,1128,1139,1156,1172,1173,1190,1190,1207,1207,1223,1240,1240,1257,1583,1583,1599,1599,1607,1607,1623,1623,1640,1656,1672,1673,1689,1690,1707,1707,1743,1743,1751,1752,1759,1773,1789,1807,1823,1823,1823,1840,1856,1857,1879,1895,1895,1907,1907,1923,1923,1940,1940,1956,1973,1989,1990,1990,2007,2023,2023,2040,2040,2040,2040,2057,2057,2072,2073,2089,2090,2106,2107,2123,2123,2140,2157,2157,2173,2173,2190,2190,2207,2207,2207,2223,2223,2240,2240,2240,2240,2257,2257,2257,2273,2273,2273,2296,2296,2307,2307,2323,2340,2340,2357,2357,2373,2373,2373,2390,2390,2407,2407,2423,2423,2423,2423,2440,2440,2440,2440,2440,2457,2457,2457,2457,2457,2473,2473,2473,2473,2473,2473,2490,2490,2490,2509,2509,2509,2523,2540,2540,2557,2557,2557,2557,2573,2573,2573,2590,2590,2590,2590,2607,2607,2623,2623,2640,2640,2657,2657,2673,2690,2707,2723,2723,2740,2740,2740,2757,2757,2773,2790,2790,2807,2807,2823,2823,2840,2857,2857,2873,2873,2873,2890,2890,2907,2907,2923,2923,2923,2923,2940,2940,2940,2957,2957,2973,2990,3007,3007,3007,3023,3023,3023,3023,3040,3040,3040,3057,3057,3057,3057,3057,3073,3073,3073,3073,3090,3090,3090,3107,3107,3107,3123,3123,3140,3140,3140,3157,3157,3157,3157,3173,3173,3173,3173,3190,3190,3190,3190,3207,3207,3207,3207,3207,3207,3223,3223,3223,3223,3240,3240,3240,3240,3257,3257,3257,3257,3273,3273,3273,3273,3273,3290,3290,3290,3290,3290,3307,3307,3307,3307,3307,3307,3323,3323,3323,3323,3323,3340,3340,3340,3340,3340,3340,3357,3357,3357,3357,3357,3373,3373,3373,3373,3373,3390,3390,3390,3390,3407,3407,3407,3407,3407,3423,3423,3423,3423,3423,3423,3440,3440,3440,3440,3440,3457,3457,3457,3457,3457,3457,3457,3473,3473,3473,3473,3473,3473,3473,3490,3490,3490,3490,3507,3507,3507,3507,3523,3523,3523,3523,3540,3540,3540,3540,3540,3559,3560,3560,3560,3560,3573,3573,3573,3573,3573,3573,3590,3590,3590,3590,3590,3590,3590,3607,3607,3607,3607,3607,3607,3608,3608,3623,3623,3623,3623,3623,3623,3640,3640,3640,3641,3641,3641,3641,3657,3657,3657,3657,3657,3658,3658,3658,3673,3673,3673,3673,3673,3690,3690,3690,3690,3690,3707,3707,3707,3707,3723,3723,3723,3723,3723,3723,3740,3740,3740,3740,3740,3740,3757,3757,3757,3757,3757,3773,3773,3773,3773,3773,3790,3790,3790,3790,3790,3790,3807,3807,3807,3807,3823,3823,3823,3840,3840,3840,3840,3841,3857,3857,3857,3857,3857,3873,3873,3873,3873,3873,3874,3890,3890,3890,3907,3907,3907,3923,3940,3940,3940,3957,3957,3973,3973,3990,3990,4007,4023,4023,4040,4057,4057,4073,4090,4107,4107,4123,4123,4144,4328,4344,4345,4360,4360,4373,4390,4407,4423,4423,4440,4440,4457,4473,4473,4490,4490,4508,4509,4523,4540,4540,4557,4557,4573,4573,4590,4590,4607,4623,4623,4640,4640,4656,4656,4673,4712,4712,4712,4728,4744,4776,4800,4800,4808,4840,4856,4865" d="m41,224c-1.5,-1.5 -2.12138,-2.30757 -2.8,-2.71466c-0.73594,-0.44148 -1.60882,-0.71217 -2.3,-1.38535c-0.60786,-0.59203 -1.17035,-1.24266 -1.78534,-1.7c-0.89485,-0.66545 -1.66841,-0.94914 -2.3575,-1.5c-0.80544,-0.64388 -1.36384,-1.2795 -1.73183,-2.09999c-0.35101,-0.78261 -0.85857,-1.37169 -1.02083,-2.3c-0.15512,-0.88747 -0.62262,-1.61034 -0.91917,-2.5c-0.28588,-0.85765 -0.08533,-1.8 -0.08533,-2.60001c0,-0.89999 0,-1.8 0,-2.7c0,-0.89999 -0.10703,-1.80655 0.00133,-2.7c0.11156,-0.9198 0.64692,-1.56181 1.39867,-2.18933c0.65556,-0.54723 1.32902,-0.90646 1.8215,-1.71051c0.37958,-0.61972 1.39671,-0.89098 2.1785,-1.3255c0.8193,-0.45537 1.36127,-0.93631 1.8215,-1.6745c0.44711,-0.71715 1.39654,-0.89128 2.1785,-1.3255c0.82047,-0.45561 1.72397,-0.76781 2.3,-1.27916c0.63699,-0.56546 1.25449,-1.12959 2.06933,-1.4955c0.73816,-0.33147 1.56099,-0.56906 2.544,-1c0.8521,-0.37355 1.62305,-0.96124 2.276,-1.364c0.84338,-0.52022 1.32947,-1.05382 1.98,-1.636c0.69197,-0.61926 1.5304,-1.02144 2.18333,-1.5c0.71693,-0.52547 1.50156,-0.92311 2.414,-1.46667c0.52042,-0.31003 1.32316,-0.81813 2.064,-1.34933c0.81202,-0.58224 1.36446,-1.1021 2.252,-1.68399c0.64255,-0.42128 1.23708,-1.08978 1.87,-1.74733c0.5499,-0.57129 1.38205,-0.93259 2.05634,-1.16251c1.03222,-0.35196 1.50441,-0.98431 2.42433,-1.55684c0.60913,-0.3791 1.4805,-0.67575 2.16667,-1.33333c0.61263,-0.58711 1.23203,-1.39804 2,-1.83333c0.65476,-0.37112 1.25854,-0.91151 1.75716,-1.51851c0.66882,-0.81418 1.4392,-1.20485 2.22134,-1.748c0.73875,-0.51303 1.53924,-0.86218 2.326,-1.25282c0.88412,-0.43898 1.56836,-0.4529 2.52884,-0.81401c0.82065,-0.30855 1.33387,-1.07408 1.92383,-1.53333c0.8506,-0.66212 1.64596,-0.92349 2.35617,-1.5c0.65881,-0.53477 0.88573,-1.59012 1.688,-1.79868c0.8716,-0.22659 1.61647,-0.44058 2.36533,-1.168c0.49072,-0.47667 1.11906,-1.22377 1.94801,-1.664c0.83632,-0.44415 1.48798,-0.77731 2.18533,-1.46933c0.70268,-0.6973 1.19266,-1.23955 2.02116,-1.8c0.63781,-0.43146 1.32774,-1.07616 1.84683,-1.7c0.58646,-0.70482 1.34315,-1.00899 2.196,-1.58932c0.73078,-0.49727 1.6631,-0.92453 2.036,-1.472c0.43253,-0.63503 0.9792,-1.52303 1.70033,-2.23885c0.55608,-0.55199 1.22567,-1.07687 1.9095,-1.55249c0.76745,-0.53377 1.29069,-0.89232 2.3035,-1.46066c0.82697,-0.46405 1.67554,-0.72493 2.43934,-0.93935c0.91474,-0.25681 1.59502,-0.65129 2.49466,-1.24283c0.63692,-0.41878 1.59808,-0.59029 2.26867,-0.7885c1.03245,-0.30516 1.80691,-1.01335 2.484,-1.416c0.83529,-0.49673 1.45218,-1.09807 2.3215,-1.37866c0.67547,-0.21802 1.69352,-0.24693 2.4785,-0.55734c0.81784,-0.32339 1.59332,-0.78117 2.436,-1.164c0.92227,-0.41898 1.71992,-0.70355 2.28484,-0.89999c0.87859,-0.30553 1.77532,-0.61139 2.6685,-0.88933c0.85014,-0.26454 1.88875,-0.49239 2.57467,-0.58534c0.83418,-0.11305 1.82359,-0.4142 2.63599,-0.67267c0.98428,-0.31316 1.77541,-0.2926 2.54935,-0.778c0.67001,-0.42021 1.45995,-0.55162 2.45065,-0.57599c0.80051,-0.0197 1.80145,-0.21587 2.60001,-0.49867c0.60112,-0.21289 1.5988,-0.46629 2.39999,-0.4955c1.0007,-0.03648 1.86093,-0.00008 2.76668,-0.33783c0.82802,-0.30878 1.38631,-0.70711 2.05215,-1.01851c1.09973,-0.51433 1.94722,-0.77487 2.84251,-1.01216c0.4579,-0.12135 1.39134,-0.32767 2.77199,-0.636c0.88455,-0.19754 1.31802,-0.30214 2.1875,-0.5c0.88852,-0.20219 2.312,-0.50258 2.8215,-0.59984c1.05299,-0.201 1.58617,-0.29456 2.63501,-0.46416c0.50261,-0.08127 1.85535,-0.2751 2.58133,-0.35201c0.8573,-0.09082 1.95007,-0.22537 2.73067,-0.50934c0.73431,-0.26714 1.71082,-0.54842 2.53233,-0.57483c0.92522,-0.02974 1.85025,-0.14592 2.6355,-0.357c0.85983,-0.23112 1.44431,-0.44376 2.64284,-0.84283c0.60005,-0.1998 1.50023,-0.49932 2.39999,-0.8c0.89572,-0.29933 1.76717,-0.5915 2.31467,-0.8c1.00606,-0.38314 1.85124,-0.85262 2.88516,-1.0785c0.76772,-0.16772 1.6335,-0.1215 2.55284,-0.1215c0.89999,0 1.59467,0 2.61133,0c0.936,0 1.83734,0 2.80267,0c0.66933,0 1.83333,0 2.63333,0c0.8,0 1.7955,0 2.54283,0c0.9045,0 1.82384,0 2.65717,0c0.97867,0 1.75267,0 2.65266,0c0.86334,0 1.84734,0 2.834,0c0.76001,0 1.68001,0 2.4615,0c0.7905,0 1.909,0 2.8,0c0.918,0 1.5345,0 2.58516,0c0.972,0 1.66667,0 2.36134,0c1.26233,0 2.03333,0 2.90266,0c0.99817,0 1.7455,0 2.76666,0c0.94501,0 1.96933,0 2.65033,0c0.80701,0 1.98567,0 2.58568,0c0.89999,0 1.79999,0 2.70016,0c0.91049,0 1.53583,0 2.8665,0c0.71866,0 1.46933,0 2.24399,0c0.79068,0 1.98901,0 2.78033,0c0.76733,0 1.83833,0 2.76617,0c1.022,0 1.72549,0 2.72684,0c0.81599,0 1.63199,0 2.63199,0c0.90933,0 1.85085,-0.01233 2.64117,0.0045c0.85388,0.01819 2.04671,0.14402 2.64284,0.28083c0.90672,0.20809 1.50026,0.4184 2.70016,0.81467c0.60445,0.19962 1.53416,0.5055 2.18517,0.7c1.03392,0.30891 1.78127,0.5029 2.57716,0.72083c0.85681,0.23461 2.2713,0.64427 2.77983,0.80033c1.05501,0.32377 1.5865,0.49511 2.11601,0.658c1.02106,0.31409 2.37057,0.7085 3.103,0.85151c0.89236,0.17422 1.7077,0.23019 2.58148,0.39099c0.67029,0.12335 1.75159,0.39893 2.47452,0.66501c1.07639,0.39618 1.72873,0.77341 2.4035,1.0925c0.68338,0.32317 1.80762,0.71452 2.6485,0.85283c0.88776,0.14601 1.35449,0.14435 2.2825,0.27333c1.38684,0.19276 2.26666,0.45651 2.6955,0.60451c0.85794,0.2961 1.69547,0.66982 3.01932,1.12349c0.45151,0.15472 1.38409,0.4173 2.33334,0.64584c0.47375,0.11406 1.41745,0.31297 2.77866,0.621c0.43784,0.09908 1.29874,0.30045 2.14667,0.53583c0.86157,0.23917 2.19678,0.68361 2.66,0.84799c0.95193,0.3378 1.43341,0.522 2.41916,0.86334c0.49582,0.17169 1.99448,0.63464 2.49417,0.76866c0.98892,0.26523 1.96725,0.50229 2.44418,0.63667c1.39645,0.39346 2.27155,0.72739 2.6955,0.89549c0.82202,0.32596 1.58081,0.70329 2.69501,1.01851c1.00427,0.28412 1.69025,0.31665 2.3765,0.43866c1.12869,0.20068 1.96213,0.4561 2.8515,0.756c0.46091,0.15541 1.38571,0.5045 2.772,0.972c0.44382,0.14967 1.31146,0.41887 2.16666,0.64584c0.85025,0.22566 1.28287,0.32462 2.62167,0.621c0.93921,0.20793 1.42606,0.30577 2.42499,0.53583c0.51559,0.11874 2.12112,0.5267 2.67502,0.6855c1.14236,0.3275 1.72525,0.51364 2.31998,0.69933c0.60529,0.18896 1.84393,0.58397 3.125,0.97917c0.65347,0.2016 1.31195,0.3989 1.96802,0.5955c1.28186,0.38412 1.89703,0.56509 2.48398,0.74733c1.55081,0.48152 1.97232,0.64075 3.02267,1.0105c0.57632,0.20288 1.68982,0.50066 2.66852,0.59399c0.70972,0.06769 1.44739,0.06226 2.5235,0.21935c1.0253,0.14967 1.68719,0.3553 2.3765,0.53783c1.12302,0.29736 1.95889,0.49829 2.8515,0.6955c0.4592,0.10144 1.39188,0.29379 2.772,0.60001c0.88354,0.19603 1.314,0.3 2.16666,0.5c0.85266,0.2 2.16653,0.50061 2.62167,0.60017c0.93973,0.20558 1.92062,0.41786 2.42499,0.53583c1.04138,0.24358 2.12112,0.5267 2.67502,0.6855c1.14236,0.3275 1.72531,0.51346 2.31998,0.69933c1.22067,0.38153 1.84393,0.58395 3.125,0.97917c0.65396,0.20175 1.31601,0.39999 1.98151,0.60001c1.33099,0.40001 1.991,0.59842 2.642,0.79999c0.64099,0.19847 1.87817,0.59517 3.0405,0.99867c0.56033,0.19452 1.64767,0.58289 2.18402,0.76534c0.53268,0.1812 2.15018,0.67641 2.70715,0.81467c1.14084,0.2832 1.7352,0.39745 2.34067,0.52133c0.61987,0.12683 1.91092,0.37714 3.27084,0.66667c0.70959,0.15108 1.43112,0.31532 2.15848,0.48599c0.72729,0.17067 1.44611,0.34566 2.14951,0.522c0.68225,0.17104 2.52597,0.65636 3.05133,0.80383c0.92715,0.26027 1.72339,0.50272 2.44202,0.717c1.0311,0.30745 1.74991,0.5074 2.50131,0.7045c0.77393,0.203 1.56512,0.40091 2.76419,0.70001c0.80417,0.20059 1.61972,0.40398 2.457,0.59999c1.30804,0.30623 1.76373,0.40279 2.69998,0.60001c0.96307,0.20287 1.45337,0.30077 2.44418,0.5c0.9985,0.20078 1.99866,0.39999 2.99866,0.59999c0.5,0.10001 1.5,0.29997 2,0.40001c1.49988,0.30008 2.0007,0.39195 2.98932,0.61066c0.97678,0.21608 1.46616,0.30588 2.84402,0.75601c0.8916,0.29128 1.314,0.48599 2.16666,0.83333c0.85266,0.34734 2.16443,0.84048 2.62115,0.9785c0.92273,0.27885 1.85773,0.50179 2.3175,0.61084c0.89148,0.21147 2.12097,0.50137 2.84702,0.71066c0.99673,0.28731 1.61093,0.50218 2.81564,0.89999c0.60898,0.2011 1.23032,0.41487 2.56534,0.8c0.71643,0.20668 1.46652,0.40231 2.24402,0.564c0.78802,0.16386 1.98953,0.31827 2.80283,0.38783c0.84869,0.07259 1.29782,0.08348 2.24249,0.2175c1.61441,0.22903 2.19281,0.39523 2.78851,0.53601c0.60031,0.14188 1.77136,0.44447 2.32599,0.58932c1.42917,0.37325 2.11203,0.59853 3.03751,0.68401c0.93094,0.08598 1.892,0.0179 2.62399,0.02133c0.95819,0.0045 1.93597,0.33163 2.604,0.85066c0.56964,0.44257 1.34763,0.98921 2.164,1.10767c0.99051,0.14372 1.97916,0.04167 2.83334,0.04167c0.86215,0 1.8031,-0.02672 2.65067,0.00133c0.86465,0.02861 1.68469,0.49541 2.51599,0.832c0.75717,0.30658 1.72607,-0.00102 2.52084,0.20834c0.86575,0.22806 1.39337,1.08267 2.3125,1.625c0.70435,0.4156 1.56665,0.33325 2.47116,0.33333c1.01682,0.00009 1.74243,-0.13902 2.67398,0.22133c0.77786,0.3009 1.53876,0.61125 2.42151,0.78934c0.94376,0.19038 1.58755,0.89943 2.35718,0.98483c0.89008,0.09877 1.77115,0.06023 2.61749,0.42984c0.96182,0.42003 1.62518,0.56424 2.604,0.57466c0.90527,0.00963 1.84668,0 2.53732,0c0.98401,0 1.97531,-0.06999 2.65866,0.036c0.96198,0.1492 1.68863,0.78094 2.66135,0.92801c0.75751,0.11453 1.77155,-0.05058 2.50684,0.09315c0.93387,0.18257 1.82224,0.7838 2.48251,0.91751c1.00571,0.20366 1.62491,0.67245 2.65866,0.94c0.67252,0.17406 1.78406,-0.00096 2.68265,0.252c0.68118,0.19176 1.38104,0.45526 2.42267,0.85866c0.84299,0.32646 1.50455,0.91379 2.41068,0.97467c0.79819,0.05363 1.70001,0.05716 2.5,0.5l0.79999,0.44284l0.90002,0.05716" id="svg_1" stroke-width="2" stroke="#000" fill="none"/>
  <path t="5609,5736,5744,5768,5768,5784,5792,5792,5805,5822,5840,5840,5855,5873,5873,5889,5889,5905,5922,5922,5939,5955,5972,5972,5989,6005,6032,6040,6040,6056,6072,6089,6105,6105,6105,6122,6122,6139,6140,6155,6172,6189,6190,6190,6205,6206,6222,6223,6240,6240,6256,6256,6256,6272,6273,6273,6289,6290,6290,6290,6305,6306,6322,6323,6339,6340,6355,6356,6372,6373,6373,6389,6390,6405,6406,6406,6422,6423,6423,6440,6440,6440,6456,6456,6473,6473,6489,6490,6505,6506,6506,6522,6523,6523,6523,6540,6540,6555,6572,6573,6590,6590,6606,6606,6623,6623,6640,6640,6656,6656,6673,6673,6690,6690,6706,6723,6723,6740,7088,7120,7144,7168,7184,7192,7216,7224,7248,7264,7264,7296,7312,7328,7336,7344,7360,7373,7390,7390,7408,7424,7440,7456,7456,7480,7490,7506,7528,7540,7540,7556,7573,7590,7590,7607,7607,7623,7640,7640,7656,7656,7656,7656,7673,7673,7690,7690,7705,7706,7723,7723,7723,7740,7740,7740,7756,7773,7773,7790,7790,7806,7806,7823,7840,7840,7856,7856,7873,7890,7890,7905,7923,7940,7956,7973,7973,7990,8006,8006,8023,8040,8064,8080,8104,8128,8128,8144,8152,8168,8216,8232" d="m504,191c1.2215,-0.87849 2.16058,-0.80183 3,-1.16667c0.68457,-0.29753 1.19739,-1.29909 2,-1.66666c0.74271,-0.34015 1.61539,-0.32571 2.16934,-0.968c0.5976,-0.6929 1.39194,-0.94101 2.19467,-1.59866c0.67633,-0.55412 1.23596,-1.2 1.836,-1.8c0.59998,-0.59999 1.28528,-1.31511 1.89996,-1.89984c0.58636,-0.55775 1.56641,-0.81607 2.30005,-1.33617c0.78699,-0.55792 1.09125,-1.35335 1.59998,-2.04317c0.48627,-0.65935 1.42578,-0.93069 2.09985,-1.62083c0.56543,-0.5789 0.83929,-1.45599 1.5108,-1.92532c0.7334,-0.51259 1.37476,-1.15067 1.79999,-1.8c0.45917,-0.7011 1.2431,-1.41579 1.93671,-1.87016c0.76721,-0.50261 1.32349,-1.12242 1.67798,-1.90451c0.3772,-0.83211 1.15405,-1.55453 1.62286,-2.05716c0.50446,-0.5408 1.133,-1.53621 1.33099,-2.32201c0.21368,-0.84799 0.67249,-1.61908 1.12067,-2.34233c0.41907,-0.67625 0.73151,-1.67886 0.8855,-2.48917c0.12292,-0.6468 0.44177,-1.61909 0.87598,-2.42532c0.31287,-0.58086 0.98608,-1.75758 1.25336,-2.36267c0.38501,-0.87172 0.56293,-1.45134 0.98517,-2.47968c0.36401,-0.88644 0.71185,-1.76054 0.92548,-2.547c0.23505,-0.86542 0.62225,-1.52603 0.89069,-2.492c0.23248,-0.83669 0.3562,-1.65622 0.6048,-2.40349c0.26654,-0.80128 0.72534,-1.7775 1.04321,-2.7045c0.31757,-0.92616 0.39789,-1.72649 0.42529,-2.54935c0.03528,-1.05812 -0.03436,-1.77692 0.06787,-2.67799c0.11078,-0.97604 0.37878,-1.75903 0.59015,-2.53751c0.28149,-1.03676 0.32068,-1.75868 0.35718,-2.66699c0.03009,-0.74858 0.30634,-1.73531 0.57013,-2.57883c0.28833,-0.92192 0.38757,-1.72034 0.41467,-2.57468c0.03772,-1.18878 0.01068,-1.78799 0.01068,-2.6685c0,-0.8355 0,-1.83417 0,-2.67417c0,-0.96266 0,-2.01333 0,-2.672c0,-1.008 0,-1.8 0,-2.83183c0,-0.74734 0,-1.7415 0,-2.50684c0,-0.95333 0,-1.80533 0,-2.84133c0,-0.744 -0.00073,-1.66133 0,-2.60934c0.00067,-0.86933 -0.05084,-1.77587 0.35266,-2.62817c0.38373,-0.81059 0.62866,-1.55736 0.64734,-2.45716c0.01868,-0.90053 0.28119,-2.09311 1.19867,-2.21333c0.78778,-0.10323 1.46484,0.72327 1.78052,1.43417c0.38928,0.87669 0.76666,1.31774 1.41016,1.92583c0.61481,0.58097 0.40375,1.64278 0.96332,2.4435c0.47406,0.67832 1.02295,1.2541 1.48065,2.10983c0.42328,0.79146 1.02533,1.22448 1.16687,2.1c0.14612,0.90354 0.79498,1.55367 0.979,2.4c0.19135,0.87999 0.42969,1.62731 0.85413,2.5c0.32086,0.65968 0.85284,1.42238 1.1095,2.3c0.25311,0.86556 -0.12604,1.85426 0.22388,2.7c0.32465,0.78461 0.82288,1.49982 0.83331,2.41067c0.01038,0.91061 0,1.764 0,2.70533c0,0.76801 -0.01483,1.70944 0,2.71733c0.01044,0.70857 0.15338,1.66974 0.35718,2.52467c0.15363,0.64447 0.38153,1.61729 0.84149,2.58733c0.32269,0.68059 0.74933,1.53735 0.79065,2.26534c0.05603,0.98781 0.01068,1.78934 0.01068,2.78934c0,0.81067 0,1.68533 0,2.68266c0,0.79651 0,1.548 0,2.65601c0,0.98283 0,1.68216 0,2.66133c0,0.97917 0,1.83333 0,2.6955c0,0.94051 0,1.78984 0,2.51517c0,0.98917 0,1.95334 0,2.90401c0,0.88533 0,1.68533 0,2.58533c0,0.90001 0,1.8 0,2.71066c0,0.91068 0,1.76401 0,2.70401c0,0.88533 -0.19592,1.71977 0.05719,2.58533c0.25665,0.87762 0.91418,1.59865 0.94281,2.5c0.02856,0.89955 0,1.8 0,2.60001c0,0.89999 0,1.8 0,2.7l0,0.89999l0,0.90001" id="svg_2" stroke-width="2" stroke="#000" fill="none"/>
  <path t="9232,9384,9384,9392,9406,9406,9422,9440,9456,9456,9473,9473,9473,9490,9506,9506,9523,9523,9523,9523,9539,9539,9540,9540,9555,9556,9556,9572,9572,9573,9573,9589,9590,9590,9605,9605,9606,9606,9622,9623,9623,9640,9640,9640,9656,9656,9656,9656,9672,9673,9689,9689,9690,9705,9705,9706,9706,9722,9723,9723,9723,9739,9740,9755,9772,9789,9805,10071,10231,10279,10279,10311,10335,10351,10367,10399,10423,10463,10463,10495,10535,11327,11336,11343,11355,11356,11372,11389,11390,11390,11405,11406,11422,11440,11440,11456,11456,11456,11456,11473,11473,11473,11489,11490,11490,11505,11506,11522,11523,11539,11540,11555,11556,11572,11573,11589,11590,11605,11606,11623,11623,11640,11640,11640,11656,11656,11656,11673,11673,11673,11689,11690,11690,11706,11706,11706,11706,11722,11723,11723,11740,11740,11740,11756,11756,11773,11773,11773,11790,11790,11806,11806,11823,11823,11840,11856,11856,11873,11873,11873,11919,11935" d="m544,175c2.78931,0 3.51465,0 4.5,0c0.98401,0 1.67468,0 2.74286,0c0.85712,0 1.75714,0 2.57147,0c0.95367,0 1.68567,0 2.41766,0c1.10669,0 2.08966,0 2.80969,0c1.125,0 1.91998,0 2.5,0c0.94501,0 1.97968,0 2.711,0c1.12201,0 1.86334,0 2.92584,0c0.66431,0 1.61078,0 2.82147,0c0.59998,0 1.5,0 2.40002,0c0.90015,0 1.81067,0 2.43597,0c1.33069,0 2.04669,0 2.77869,0c0.724,0 2.052,0 2.87549,0c0.72449,0 1.93134,0 2.74585,0c0.57465,0 1.76398,0 2.65948,0c0.58368,0 1.41913,0 2.65186,0c0.67798,0 1.87415,0 2.68866,0c0.57465,0 1.76398,0 2.66846,0c0.61633,0 1.58087,0.00302 2.61652,-0.00017c0.72266,-0.00223 1.44366,0.04385 2.42432,-0.08516c1.00952,-0.13281 1.81775,-0.76053 2.65466,-0.90401c0.88715,-0.15208 1.80005,-0.01067 2.70001,-0.01067c0.90002,0 1.80127,-0.04779 2.70001,0c0.80341,0.04272 1.65387,0.48253 2.38934,0.97467c0.66949,0.44798 1.08588,1.22542 1.77734,1.85866c0.59802,0.54765 0.95111,1.38062 1.53784,1.80951c0.75946,0.55519 1.49707,0.99829 1.77466,1.85716c0.24683,0.7637 -0.57306,1.43912 -1.47919,1.5c-0.79822,0.05363 -1.672,0 -2.54285,0c-0.97797,0 -1.77448,0 -2.77051,0c-0.83997,0 -1.80133,0 -2.68665,0c-0.70801,0 -1.76453,-0.01149 -2.69733,0.01067c-0.69891,0.0166 -1.42749,0.03311 -2.48102,0.21066c-0.98224,0.16553 -1.56506,0.39911 -2.65497,0.612c-0.92389,0.18047 -1.77686,0.20932 -2.56671,0.45067c-0.81403,0.24872 -1.79553,0.63657 -2.57916,0.69518c-0.99689,0.07455 -1.7735,0.02083 -2.67798,0.02083c-0.94415,0 -1.9483,-0.05 -2.74286,0.05716c-0.80933,0.10916 -1.57684,0.52263 -2.59998,0.77617c-0.77655,0.19243 -1.83728,0.11064 -2.52081,0.1875c-1.03516,0.11641 -1.74554,0.42696 -2.5882,0.62651c-0.88568,0.20973 -1.78571,0.31441 -2.65497,0.342c-1.06885,0.03392 -1.78339,0.01059 -2.68866,0.01067c-0.96887,0.00009 -1.78546,-0.01892 -2.65186,0.05716c-0.89874,0.07892 -1.79858,0.28929 -2.39551,0.46367c-0.90491,0.26434 -1.79614,0.59056 -2.68933,0.8685c-0.85016,0.26454 -1.88623,0.51753 -2.57465,0.57468c-0.83258,0.06911 -1.84052,0.03592 -2.69318,0.036c-0.96417,0.00009 -1.77161,-0.03094 -2.59021,0.05716c-1.03796,0.11171 -1.88586,0.5181 -2.78595,0.77617c-0.77594,0.22249 -1.6507,0.16219 -2.51404,0.16667c-1.0274,0.00534 -1.81219,0.18553 -2.67346,0.5c-0.97162,0.35477 -1.76849,0.464 -2.49384,0.49867l-0.96454,0.00133l-0.92084,0" id="svg_3" stroke-width="2" stroke="#000" fill="none"/>
  <path t="13207,13319,13319,13327,13328,13339,13339,13356,13356,13356,13356,13373,13373,13373,13373,13373,13389,13389,13389,13389,13406,13406,13406,13406,13423,13423,13423,13423,13423,13439,13439,13439,13456,13456,13456,13456,13456,13473,13473,13473,13473,13489,13489,13489,13512,13512,13512,14463,14463,14623,14632,14655,14671,14695,14695,14703,14711,14723,14751,14863,14871,14895,14895,14919" d="m526,169c-1.836,0.42534 -2.58655,0.79533 -3.59998,0.94284c-0.7934,0.11548 -1.80133,0.05716 -2.63605,0.05716c-0.93066,0 -1.7309,-0.0125 -2.64667,0.036c-0.69012,0.03654 -1.86133,0.1772 -2.72266,0.32117c-0.44604,0.07455 -1.34656,0.24188 -2.22662,0.44417c-1.22903,0.2825 -1.95898,0.49593 -2.64719,0.69867c-1.0047,0.29599 -2.04007,0.60866 -2.77802,0.7955c-0.76141,0.19279 -1.54242,0.3812 -2.74283,0.53783c-0.79605,0.10388 -1.58911,0.13852 -2.36401,0.15601c-0.75052,0.01694 -1.81491,-0.0033 -2.81064,0.02133c-0.651,0.0161 -1.99414,0.14365 -2.71069,0.27467c-0.75311,0.13771 -1.52606,0.32231 -2.31598,0.51599c-1.19946,0.2941 -1.99103,0.49355 -2.75702,0.69867c-0.72864,0.19513 -1.70987,0.49573 -2.53183,0.7955c-0.72586,0.26472 -1.92859,0.60953 -2.72449,0.6685c-0.77402,0.05736 -1.81467,0.036 -2.58267,0.036c-0.90268,0 -1.71939,0.16202 -2.28668,0.716c-0.67386,0.65804 -1.35303,1.21292 -2.10132,1.27333c-0.92508,0.07468 -1.55255,0.62088 -2.25067,0.97467c-0.77133,0.39088 -1.76401,0.036 -2.664,0.03616l-0.89999,0.1665l-0.60001,0.444l-0.69998,0.68483" id="svg_4" stroke-width="2" stroke="#000" fill="none"/>
  <path t="15775,15887,15896,15906,15906,15923,15939,15939,15939,15956,15956,15956,15973,15973,15989,15989,16006,16006,16023,16023,16039,16039,16039,16039,16056,16056,16056,16073,16073,16073,16089,16089,16089,16111,16127,16139,16156,16156,16173,16189,16206,16247,16247,16471,16471,16495,16535,16535,16567,16591,16599" d="m470,181c1.70001,0 2.63599,0 3.48401,0c0.86331,0 1.90134,0 2.84933,0c0.681,0 1.48798,0 2.66666,0c0.59732,0 1.45834,0 2.66666,0c0.8125,0 1.65485,0 2.54401,0c0.98917,0 1.76849,0 2.76834,0c0.71832,0 1.78516,0 2.38348,0c0.9975,0 1.67084,0 2.86951,0c0.76801,0 1.53601,0 2.73599,0c0.68268,0 1.38135,0 2.69867,0c0.81451,0 1.66718,0 2.57617,0c0.95718,0 1.85718,0 2.75717,0c0.79999,0 1.61945,0.00166 2.39999,-0.42534c0.82373,-0.45062 1.76666,-0.57466 2.60001,-0.57466c0.83334,0 1.6955,0 2.63599,0c0.84802,0 1.71136,0 2.72803,0l0.836,0l0.89996,0" id="svg_5" stroke-width="2" stroke="#000" fill="none"/>
  <path t="33902,34062,34078,34118,34142,34166,34182,34206,34238,34278,34310,34310,34358,34366,34382,34406,34422,34478,34503,34503,34518,34542,34582,34622,34622,34662,34726,34726,34742,34758,34766,34798,34926,34934,34950,35022,35054,35070,35070,35086,35222,35222,35238,35238,35294,35318,35374,35414,35438,35438,35454,35486,35566,35574,35590,35614,35630,35654,35654,35694,35710,35734,35758,35782,35798,35806,35822,35846,35854,35872,35903,35950,35982,35982,35998,36054,36110,36110,36142,36166,36182,36198,36222,36254,36254,36270,36270,36558" d="m522,222c-1.22131,-0.87866 -1.78931,-1.38222 -2.00134,-2.19867c-0.20789,-0.80043 -0.98822,-1.32198 -0.99866,-2.20132c-0.01068,-0.89995 0,-1.8 0,-2.70001c0,-0.89999 -0.01874,-1.7002 0,-2.59999c0.01801,-0.86456 0.83026,-1.34894 0.99866,-2.10133c0.19672,-0.87883 0.54315,-1.67896 1.20001,-2.39867c0.53351,-0.5845 0.84808,-1.45244 1.50586,-1.85268c0.78851,-0.47977 1.49548,-1.14732 1.99548,-1.64732c0.70001,-0.7 1.31726,-1.50835 2,-1.94284c0.73212,-0.46593 1.73486,-0.1143 2.59546,-0.36166c0.76794,-0.2207 1.22516,-0.98508 2.10455,-0.9955c0.8999,-0.01065 1.79999,0 2.69995,0c0.90002,0 1.85773,-0.43521 2.61469,0.08533c0.8407,0.57811 0.89331,1.51733 1.58533,2.21468c0.49805,0.50192 1.37457,1.11513 1.64282,2c0.2616,0.86302 0.05719,1.8 0.05719,2.7c0,0.8 0,1.7 0,2.60001c0,0.89999 0,1.79999 0,2.7c0,0.89999 0,1.8 0,2.7c0,0.8 -0.0545,1.70149 -0.5,2.5c-0.44464,0.797 -0.91748,1.4834 -1.5,2c-0.60266,0.53448 -1.41882,0.91646 -1.91602,1.69867c-0.4649,0.73145 -0.96454,1.33382 -1.6048,1.80133c-0.78876,0.57597 -1.6297,0.7527 -2.47919,1.16667c-0.65222,0.31784 -1.53204,0.76811 -2.29999,1.18599c-0.84088,0.45758 -1.5,0.64667 -2.40002,0.64734c-0.89996,0.00066 -1.81604,0.15904 -2.70001,-0.01067c-0.94708,-0.18182 -1.59998,-0.98933 -2.09998,-1.48933l-0.70001,-0.69867l-0.59998,-0.51599l-0.84283,-0.33801" id="svg_8" stroke-width="2" stroke="#000" fill="none"/>
  <path t="37455,37639,37679,37679,37735,37735,37759,37759,37775,37791,37823,37823,37871,37887,37895,37935,37935,37943,37959,37975,37987,37987,38004,38021,38037,38037,38054,38071,38087,38104,38105,38121,38159,38159,38191,38191,38215,38215,38447,38463,38479,38487,38503,38743,38751,38759,38771,38787,38804,38805,38887,38887,38895,38911,39215,39215,39231,39239,39263,39655,39663,39672,39672,39688,39705,39705,39705,39721,39722,39722,39737,39738,39755,39755,39775,39788,39804,39821,39822,39837,39838,39855,39871,39904,39921,39954,39955,39975,39975,40031,40031,40055,40071,40095,40095,40111,40138,40183,40199,40207,40231,40271,40271,40319,40335,40335,40367,40391,40407,40471,40471,40535,40535,40535" d="m541,200c1.75714,0.05716 2.64191,0.39482 3.40448,0.64734c0.97766,0.32373 1.80841,0.23987 2.71021,0.63666c0.74048,0.32581 1.55164,0.63199 2.28534,1.15201c0.78705,0.55783 1.30035,1.20599 2.09998,1.564c0.79584,0.35632 1.12732,1.3372 1.83331,1.83333c0.57501,0.40408 1.90375,-0.08369 2.54535,0.388c0.70056,0.51506 1.26935,1.14607 1.92133,1.49467c0.84741,0.45309 1.6908,0.81453 2.29999,1.38383c0.59125,0.55255 1.51776,0.89174 2.30005,1.3255c0.82013,0.45477 1.73541,0.42412 2.39996,0.65999c0.93048,0.33025 1.52295,1.01202 2.20001,1.41467c0.83527,0.49673 1.57019,1.12022 2.20001,1.69867c0.58282,0.53528 1.50055,0.85304 2.29999,1.30133c0.79602,0.44637 1.30878,1.16605 2.02081,1.47917c0.79559,0.34987 1.46875,0.54147 1.47919,1.42082c0.01068,0.89995 0.14594,1.84938 -0.22131,2.70018c-0.3103,0.71892 -0.62964,1.57338 -0.86267,2.41583c-0.24371,0.88104 -0.66681,1.63547 -1.0827,2.48399c-0.37372,0.76247 -0.68091,1.51434 -0.84399,2.39999c-0.15308,0.83142 -0.466,1.85938 -1.15601,2.43333c-0.65332,0.54344 -1.6333,0.16667 -2.50531,0.16667c-0.87103,0 -1.59998,-0.00006 -2.43701,0c-1.19067,0.00009 -2.07428,-0.04111 -2.87665,0.05716c-0.88025,0.10782 -1.59015,0.64191 -2.49835,0.85751c-0.84369,0.20029 -1.88,0.08533 -2.716,0.08533c-0.89996,0 -1.8125,-0.09149 -2.55713,0.05716c-0.92474,0.18462 -1.55743,0.72649 -2.60687,0.90685c-0.92316,0.15865 -1.836,0.036 -2.73596,0.036c-0.90002,0 -1.65778,-0.0294 -2.55719,0.0045c-0.74866,0.02821 -1.73871,0.28697 -2.50684,0.57016c-0.94733,0.34926 -1.93597,0.42534 -2.836,0.42534c-0.79999,0 -1.70001,0 -2.59998,0c-0.90002,0 -1.80005,0 -2.70001,0c-0.90002,0 -1.83783,0.15718 -2.5,-0.08533c-0.89868,-0.32913 -1.39551,-1.11923 -2,-1.71468c-0.69482,-0.68445 -1.59143,-1.03436 -2.18536,-1.636c-0.56653,-0.57388 -1.23596,-1.164 -2.01465,-1.564l-0.78931,-0.39999l-0.72534,-0.40001" id="svg_9" stroke-width="2" stroke="#000" fill="none"/>
  <path t="43519,43710,43734,43790,43918,44294,44318,44318,44454,44462,44462,44495,44534,44670,44679,44694,44694" d="m548,191c-1.08398,1.71466 -1.80151,1.98137 -2.70001,2c-0.90051,0.01866 -1.85504,0.37282 -2.17847,1.32133c-0.22144,0.64938 -0.17578,1.6586 -0.12152,2.67867c0.04272,0.80341 0.45349,1.528 0.94733,2.2955c0.44806,0.69637 1.4527,0.71516 2.25269,0.98984l0.59998,0.51599" id="svg_10" stroke-width="2" stroke="#000" fill="none"/>
  <path t="64559,64687,64687,64695,64696,64705,64722,64738,64755,64755,64771,64771,64787,64787,64804,64804,64804,64821,64821,64837,64838,64854,64854,64872,64872,64872,64888,64888,64904,64904,64921,64922,64937,64938,64938,64938,64954,64971,64972,64990,64990,64990,65006,65006,65022,65022,65037,65037,65054,65054,65072,65072,65072,65072,65088,65088,65105,65105,65122,65122,65122,65137,65138,65155,65155,65155,65155,65172,65172,65172,65172,65189,65189,65204,65205,65223,65239,65240,65256,65256,65273,65273,65273,65273,65289,65289,65289,65305,65305,65305,65322,65322,65322,65339,65339,65356,65356,65372,65373,65373,65388,65388,65388,65406,65406,65406,65423,65423,65423,65439,65439,65439,65456,65456,65456,65473,65473,65473,65489,65489,65506,65506,65506,65522,65523,65523,65538,65538,65539,65555,65555,65573,65589,65589,65606,65606,65606,65606,65623,65623,65623,65623,65639,65639,65639,65639,65656,65656,65656,65673,65673,65673,65690,65690,65690,65707,65707,65727,65727,65728,65728,65745,65745,65745,65762,65762,65782,65782,65801,65801,65801,65821,65821,65839,65839,65855,65855,65876,65876,65897,65897,65897,65913,65913,65913,65913,65913,65931,65931,65951,65951,65952,65971,65971,65971,65991,65991,65991,66012,66012,66012,66012,66012,66030,66030,66030,66030,66049,66050,66070,66070,66070,66091,66091,66091,66111,66111,66111,66129,66129,66129,66129,66148,66149,66149,66165,66165,66165,66186,66186,66206,66207,66226,66226,66226,66243,66243,66243,66264,66264,66281,66281,66281,66298,66326" d="m37,220c0.33333,0.83333 1.23282,0.89294 2.11467,1.284c0.73955,0.32796 1.50338,0.70712 2.28534,1.14134c0.82047,0.45561 1.65158,0.88246 2.35717,1.222c0.85485,0.41136 1.66259,0.34741 2.64283,0.63666c0.61162,0.18048 1.59739,0.56497 2.4,0.69067c0.79771,0.12492 1.78754,0.41432 2.6,0.67267c0.98555,0.31337 1.80923,0.2484 2.71733,0.638c0.7439,0.31915 1.41545,0.84079 2.144,1.10399c0.78077,0.28206 1.8223,0.45566 2.697,0.61067c1.02808,0.18219 1.64218,0.64806 2.36333,1.10001c0.69792,0.43739 1.84218,0.90747 2.361,1.09866c0.79235,0.29199 1.55004,0.50748 2.656,0.776c0.9847,0.23909 1.65952,0.60126 2.66133,0.85866c0.78683,0.20216 1.61142,0.20955 2.4,0.45067c0.81396,0.24889 1.79556,0.63651 2.57916,0.69518c0.99693,0.07465 1.79185,0.02766 2.687,0.38249c0.63139,0.25027 1.66643,0.8065 2.3005,1.121c0.67255,0.33359 1.65362,0.84969 2.53333,1.18401c0.78908,0.29987 1.82394,0.29218 2.52084,0.35416c0.98608,0.08769 1.76292,0.45389 2.57916,0.69518c0.98851,0.29221 1.64484,0.26187 2.82184,0.50549c0.54933,0.11371 1.45895,0.39612 2.15016,0.57983c1.16727,0.31026 2.02312,0.49995 2.88634,0.67784c0.82088,0.16917 1.87098,0.38593 2.613,0.46367c0.92535,0.09695 1.72867,0.05716 2.68583,0.05716c0.9,0 1.64757,-0.02002 2.64417,0.00133c0.83519,0.0179 1.76756,0.15611 2.55583,0.35133c0.85604,0.21201 1.43773,0.40677 2.64283,0.56334c0.89638,0.11646 1.50834,0.08537 2.69984,0.30533c0.89743,0.16568 1.45397,0.39987 2.5335,0.612c0.92368,0.1815 1.77878,0.20479 2.76666,0.51933c0.6096,0.19409 1.59583,0.5677 2.4,0.62651c0.99755,0.07295 1.81067,0.02025 2.68533,0.02083c1,0.00067 1.83726,-0.00087 2.41917,0.05716c1.20062,0.11974 2.08977,0.36337 2.6595,0.55351c1.07948,0.36026 1.77852,0.70041 2.68867,1.08932c0.96371,0.4118 1.50171,0.59537 2.32201,0.90001c1.0609,0.394 1.7578,0.7366 2.45065,0.96399c1.17485,0.38557 1.98891,0.41359 2.76485,0.4315c1.04156,0.02406 1.823,0.03075 2.78049,0.28984c0.77818,0.21057 1.33771,0.42104 2.52917,0.8145c0.59535,0.19661 1.45128,0.52185 2.53349,0.73349c0.92233,0.18037 1.56216,0.16441 2.56534,0.16667c0.94417,0.00212 1.87904,-0.10368 2.70183,0.22133c0.81927,0.32362 1.66214,0.67564 2.26651,0.72151c1.02708,0.07796 1.75168,0.05106 2.81183,0.05733c1.00653,0.00597 1.68381,0.01961 2.3905,0.08516c1.17596,0.10907 2.03177,0.26567 2.90984,0.41467c0.8586,0.14571 2.01994,0.34048 2.66483,0.416c0.79253,0.0928 1.85889,0.24181 2.66667,0.50934c0.6489,0.2149 1.60791,0.48227 2.40399,0.53867c1.01405,0.07184 1.98972,-0.00273 2.83867,0.12132c1.01013,0.14761 1.64273,0.3461 2.34267,0.48933c0.72142,0.14763 2.11723,0.34245 2.75734,0.40001c0.88486,0.07956 1.93335,0.22157 2.80499,0.52533c0.88419,0.30814 1.70302,0.48831 2.5845,0.50017c0.71852,0.00966 1.52655,-0.02913 2.53551,0.22133c0.90213,0.22394 1.72549,0.82106 2.40083,1.25768c0.79828,0.5161 1.49176,0.50133 2.53065,0.52533c0.77594,0.01793 1.83083,0.13626 2.54651,0.35266c0.74965,0.22667 1.94089,0.65367 2.69434,0.84151c0.81183,0.20239 1.63574,0.37369 2.412,0.51599c0.94983,0.1741 1.7955,0.2749 2.88016,0.28534c0.71848,0.0069 1.50906,-0.01144 2.53583,0.00015c0.92151,0.01041 1.61255,0.05194 2.60934,0.28519c0.88184,0.20633 1.52715,0.43341 2.64532,0.71466c0.83208,0.20929 1.71661,0.39301 2.16667,0.47916c0.8933,0.17096 2.16515,0.37 2.92667,0.43552c0.98845,0.08505 1.8,0.08466 2.77251,0.08533c0.85416,0.00058 1.85439,-0.00851 2.48749,0.01068c1.01311,0.0307 1.98758,0.12515 2.80351,0.34198c0.73232,0.19461 1.93016,0.53574 2.467,0.59467c0.85194,0.09351 2.04643,0.20273 2.94283,0.40533c0.60263,0.13623 1.49403,0.40076 2.39984,0.52585c0.88519,0.12225 1.743,0.11923 2.77867,0.12149c0.90067,0.00195 1.52077,-0.03067 2.5215,0.00449c0.80122,0.02814 1.81163,0.2536 2.59999,0.60617c1.01637,0.45456 1.58783,0.84836 2.48534,1.104c0.97978,0.27908 1.81738,0.26224 2.362,0.33801c1.27599,0.17752 1.90953,0.52557 2.95267,0.78067c0.77718,0.19003 1.51466,0.16531 2.58934,0.16666l0.91066,0" id="svg_13" stroke-width="2" stroke="#000" fill="none"/>
  <path t="68038,68134,68158,68174,68198,68214,68214,68238,68262,68262,68278,68288,68318,68318,68326" d="m244,265c1.22133,0.87866 1.97141,1.35571 2,2.20001c0.03047,0.89948 0,1.79999 0,2.59998c0,0.95718 0.08911,1.86624 -0.05716,2.54733c-0.22705,1.05719 -0.82133,1.75269 -0.94284,2.65268l0,0.79999l-0.08533,0.91467" id="svg_14" stroke-width="2" stroke="#000" fill="none"/>
  <path t="72359,72615,72631,72655,72703,72719,72735,72751,72759,72759,72783,72807,72887,73095,73111,73119,73119,73127,73137,73154,73155,73170,73187,73187,73231,73247,73271,73279,73303,73311,73471,73495,73511,73527,73559,73559,73575,73583,73591,73606,73622,73623,73638,73638,73655,73655,73670,73671,73687,73711,74374,74375,74382,74398,74399,74406,74420,74437,74462,74463,74870,74870,74879,74879,74888,74888,74904,74905,74920,74921,74921,74937,74938,74938,74938,74954,74955,75358,75366,75374,75387,75388,75388,75404,75405,75405,75421,75421,75421,75421,75437,75438,75438,75454,75454,75455,75455,75526,75526,75526,75542,75542,75550,75550,75558,75559,75570,75587,75615,75615,75631,75631,75638,75670,75670,75678,75678,75688" d="m246,275c1.8,0 2.7,0 3.60001,0c0.79999,0 1.7,0 2.59999,0c0.90001,0 1.8,0 2.60001,0c0.89999,0 1.8,0 2.8,0c0.79999,0 1.99573,0.11954 2.31467,-0.56934c0.33051,-0.71387 0.08533,-1.79468 0.08533,-2.73065c0,-0.90134 0,-1.58536 0,-2.52536c0,-1.008 -0.01071,-1.87021 0,-2.77466c0.01044,-0.87933 0.77481,-1.33661 0.99551,-2.10449c0.24738,-0.86069 -0.00418,-1.92148 0.61514,-2.32083c0.74368,-0.47955 1.58633,-0.93195 2.48935,-0.97467c0.89899,-0.04251 1.69998,0 2.60001,0c0.89999,0 1.79999,0 2.71066,0c0.91064,0 1.76398,0 2.70532,0c0.76801,0 1.72,0 2.48532,0c0.99417,0 1.75504,0.15527 2.7627,-0.01068c0.86786,-0.14291 1.62338,-0.90424 2.43597,-0.98798c0.8316,-0.08569 1.85269,-0.00134 2.54733,-0.00134c1.01669,0 1.95596,-0.07568 2.854,0.00134c0.9758,0.08368 1.73776,0.28128 2.46533,0.99866c0.55417,0.54642 1.20474,0.98083 1.936,0.99866c0.99704,0.02432 1.79758,0.02231 2.79733,0c0.80057,-0.01788 1.81357,-0.18753 2.64166,-0.54031c0.742,-0.3161 1.5997,-0.78183 2.25919,-1.10651c0.67715,-0.33337 1.61621,-0.86652 2.64316,-1.18118c0.72653,-0.22263 1.65601,-0.17065 2.556,-0.17065c0.92133,0 1.83334,0 2.76132,0c0.7905,0 1.8175,0 2.52402,0c0.72449,0 1.85748,0 2.52451,0c1.0755,0 1.8075,0 2.86865,0c0.66434,0 1.61084,0 2.8215,0c0.60001,0 1.5,0 2.39999,0c0.89966,0 1.77869,0 2.58566,0c1.04501,0 1.897,0 2.85034,0c0.76532,0 1.75949,0 2.67868,0c0.84933,0 1.78983,0 2.65198,0c0.83334,0 1.81271,0.03809 2.63202,0c0.91895,-0.04272 1.53467,-0.83334 2.22217,-0.97916l0.95764,-0.02084l0.82019,0l0.90134,0" id="svg_15" stroke-width="2" stroke="#000" fill="none"/>
  <path t="82006,82150,82166,82182,82286,82294,82318,82414,82414,82454,82454,82470,82510,82510,82534,82550,82550,82558,82582,82582,82598,82598,82614,82630,82630,82646,82662,82671,82688,82703,82721,82721,82738,82738,82754,82771,82788,82803,82822,82822,82846,82862,82862,82878,82894,82918,82918,82942,82942,82950,82950,82966,82974,82988,82988,83003,83020,83038,83038,83054,83054,83054,83070,83071,83071,83087,83088,83103,83120,83121,83121,83138,83138,83154,83154,83154,83154,83170,83171,83188,83188,83188,83204,83204,83221,83221,83221,83238,83238,83238,83254,83254,83270,83271,83287,83288,83288,83303,83304,83320,83321,83337,83338,83338,83353,83354,83354,83371,83371,83387,83388,83388,83404,83404,83404,83421,83421,83421,83438,83438,83453,83454,83471,83471,83488,83488,83503,83521,83521,83538,83538,83558,83558" d="m304,244c1.79999,0 2.70001,0 3.60001,0c0.89999,0 1.79999,0 2.60132,0c0.96533,0 1.79944,-0.03871 2.77716,0.00017c0.71869,0.02858 1.52667,0.5154 2.22153,1.19983c0.50375,0.4962 1.19998,1.2 1.89999,1.90001c0.5,0.5 1.19998,1.2 1.89999,1.89999c0.5,0.5 1.20001,1.20001 1.79999,1.8c0.60001,0.60001 1.22144,1.40195 1.90002,1.84283c0.79233,0.51477 1.30042,1.14972 2.10132,1.35583c0.87216,0.22446 1.58334,0.47395 2.36533,1.00133c0.63892,0.43089 1.65302,1.01935 2.19736,1.38934c0.81656,0.55505 1.86896,0.36536 2.55197,0.89465c0.6297,0.48798 1.30356,0.97946 1.884,1.51733c0.72543,0.67224 1.21817,1.40567 1.90002,1.84149c0.82397,0.52667 1.7005,0.79263 2.29999,1.35718c0.63654,0.59943 1.49042,1.18915 2.17465,1.60001c0.81146,0.48724 1.29358,1.05173 1.80002,1.78934c0.4726,0.68829 1.14969,1.237 1.72534,1.90533c0.61563,0.71475 1.1561,1.26056 1.87067,1.90533c0.56705,0.51169 1.63666,0.88638 2.22931,1.21066c0.60785,0.33258 1.60916,1.06177 2.17917,1.58932c0.54578,0.50513 1.26367,1.24283 1.81952,1.79868c0.72217,0.72217 1.36798,1.36798 2.02667,2.02667c0.52197,0.52197 1.29199,1.29199 1.836,1.836c0.672,0.672 1.34399,1.34399 1.83865,1.83865c0.49466,0.49466 1.35718,1.35718 1.83865,1.83865c0.828,0.828 1.31403,1.31403 1.836,1.836c0.80402,0.80402 1.32535,1.32535 1.992,1.992c0.66934,0.66934 1.23785,1.23785 2.03317,2.03317c0.39566,0.39566 1.13406,1.15207 1.77884,1.77866c0.63794,0.61993 1.36554,1.08682 2.02133,1.54236c0.86591,0.60144 1.34039,1.33112 1.75266,1.82648c0.67807,0.81479 1.46475,1.18024 2.22601,1.75302c0.6897,0.51892 1.34491,1.4407 1.67401,1.905c0.52557,0.74146 1.1615,1.67706 1.59467,2.18481c0.6105,0.71567 1.21576,1.31796 1.96332,1.9845c0.76736,0.68417 1.39816,1.05905 1.98935,1.45068c1.01569,0.67288 1.58765,1.21454 2.19998,1.72198c0.78448,0.65015 1.40698,0.98853 2.11469,1.45135c0.88336,0.57773 1.36966,1.08633 2.138,1.854c0.52219,0.52176 1.32581,1.32581 1.82648,1.82648c0.72086,0.72086 1.22083,1.22089 1.92084,1.92084c0.70013,0.70004 1.23599,1.20001 2.08401,1.80002l0.69064,0.39999l0.80383,0.5l0.61084,0.5" id="svg_17" stroke-width="2" stroke="#000" fill="none"/>
  <path t="84390,84677,84686,84709,84725,84737,84753,84770,84770,84771,84787,84787,84788,84803,84803,84803,84820,84821,84821,84821,84838,84838,84838,84838,84838,84854,84854,84854,84854,84854,84854,84870,84871,84871,84871,84871,84887,84887,84888,84888,84888,84903,84903,84904,84904,84904,84920,84921,84921,84921,84921,84921,84937,84938,84938,84938,84938,84938,84954,84954,84954,84954,84954,84971,84971,84971,84971,84971,84988,84988,84988,85004,85004,85004,85004,85021,85021,85021,85038,85038,85038,85038,85038,85054,85054,85054,85054,85054,85071,85071,85071,85071,85087,85088,85103,85104,85104,85104,85120,85121,85121,85121,85138,85138,85138,85138,85154,85154,85154,85154,85171,85171,85171,85187,85188,85188,85204,85204,85204,85204,85221,85221,85221,85221,85238,85238,85238,85254,85254,85254,85271,85271,85485,85493,85510,85510,85526,85538,85554,85853,85862,85862,85871,85871,85871,85888,85888,85888,85888,85903,85904,85904,85904,85904,85904,85904,85904,85921,85921,85921,85921,85921,85921,85921,85921,85937,85938,85938,85938,85938,85938,85954,85954,85954,85954,85954,85971,85971,85971,85971,85989,85989,85989,85989,86004,86004,86004,86021,86021,86021,86038,86038,86309,86317,86338,86338,86354,86354,86354,86354,86371,86371,86371,86371,86388,86388,86388,86404,86404,86404,86404,86404,86421,86421,86421,86438,86438,86438,86438,86454,86454,86454,86454,86454,86454,86471,86471,86471,86471,86488,86488,86488,86488,86504,86504,86504,86521,86542,86749,86845,86845,86853,86853,86861,86861,86871,86888,86888,86904,86904,86904,86904,86904,86921,86921,86921,86921,86921,86938,86938,86938,86938,86954,86954,86954,86954,86954,86971,86971,86971,86971,86971,86988,86988,86988,86988,86988,87004,87004,87004,87004,87004,87004,87021,87021,87021,87021,87038,87038,87038,87054,87054,87054,87054,87055,87071,87071,87071,87071,87071,87088,87088,87088,87088,87088,87104,87104,87104,87104,87104,87104,87121,87121,87121,87121,87138,87138,87138,87138,87154,87154,87154,87154,87171,87171,87171,87171,87171,87188,87188,87188,87188,87188,87204,87204,87204,87204,87204,87221,87221,87221,87221,87238,87238,87238,87254,87254,87254,87271,87271,87271,87288,87288,87288,87288,87288,87304,87304,87304,87304,87321,87321,87321,87321,87321,87338,87338,87338,87338,87354,87354,87371,87371,87388,87404,87404,87421,87421,87438,87438,87438,87461,87461,87462,87485,87493,87504,87504,87521,87538,87538,87554,87554,87571,87588,87588,87604,87604,87621,87621,87621,87638,87638,87639,87639,87654,87655,87655,87671,87671,87688,87704,87704,87721,87721,87738,87738,87755,87755,88261,88261,88285,88301,88301,88309,88669,88677,88677,88687,88704,88721,88737,88941,88949,88965,88981,88981,88989,89004,89029,89069,89101,89117,89141,89149,89149,89173,89189,89197,89213,89229,89397,89549,89565,89565,89597,89597,89926,89926,89942,89958,89958,89971,89971,89987,90004,90022,90350,90366,90366,90390,90406,90438,90446,90454,90454,90478,90487,90487,90504,90521,90521,90521,90537,90554,90554,90571,90571,90587,90587,90604,90604,90604,90604,90621,90621,90637,90654,90654,90671,90671,90687,90687,90687,90704,90704,90721,90721,90721,90737,90737,90737,90754,90754,90771,90771,90771,90787,90787,90804,90804,90821,90821,90837,90837,90854,90854,90854,90871,90871,90887,90887,90887,90904,90921,90921,90937,90954,90954,90971,90987,90987,91004,91004,91021,91037,91054,91054,91071,91104,91104,91121,91122,91154,91171,91172,91204,91204,91221,91222,91254,91271,91271,91272,91304,91304,91322,91322,91354,91354,91414,91414,91415,91758,91758,91766,91787,91805,91838,91871,91903,91935,92342,92342,92358,92358,92371,92404,92422,92422,92454,92455,92487,92487,92510,92511,92542,92555,92587,92621,92655,92688,92688,92742,93094,93094,93102,93115,93131,93147,93147,93166,93166,93180,93180,93196,93213,93230,93247,93262,93263,93286,93622,93630,93642,93643,93659,93660,93660,93677,93678,93678,93695,93695,93712,93713,93730,93730,93758,93775,93790,93790,93798,93798,93815,93831,93848,93870,93870,93882,93899,93900,93915,93915,93932,93949,93949,93966,93983,93983,93999,94000,94000,94016,94033,94034,94034,94050,94050,94066,94067,94067,94084,94101,94101,94118,94118,94118,94135,94136,94152,94152,94153,94170,94170,94187,94203,94204,94220,94237" d="m396,315c-1.70001,0 -2.60001,0 -3.5,0c-0.89999,0 -1.79999,0 -2.70132,0c-0.96533,0 -1.84033,0 -2.48535,0c-0.99731,0 -1.81332,0 -2.62933,0c-1.00266,0 -1.98132,0 -2.53867,0c-1.39999,0 -1.81232,0 -2.68698,0c-0.91467,0 -2.29169,0 -3.17569,0c-0.43448,0 -1.3035,0 -2.19247,0c-1.42352,0 -1.93286,0 -2.99551,0c-0.54532,0 -1.64401,0 -2.18933,0c-1.57199,0 -2.06235,0 -2.991,0c-0.87268,0 -1.70532,0 -2.91434,0c-0.80133,0 -1.61066,0 -2.436,0c-0.84933,0 -1.73065,0 -2.64932,0c-0.95068,0 -1.43552,0 -2.41916,0c-1.49551,0 -1.99551,0 -2.99551,0c-0.5,0 -1.5,0 -2.5,0c-1,0 -2,0 -2.5,0c-1,0 -2,0 -2.5,0c-1.49985,0 -1.99866,0 -2.98932,0c-0.97467,0 -1.45352,0 -2.84402,0c-0.88,0 -1.72,0 -2.51999,0c-0.76001,0 -1.82516,0 -2.81067,0c-0.62534,0 -1.836,0 -2.73599,0c-0.60001,0 -1.5,0 -2.70132,0c-0.60934,0 -1.55585,0 -2.56534,0c-0.72,0 -1.48001,0 -2.28,0c-0.84,0 -2.17468,0 -3.10602,0c-0.47266,0 -1.422,0 -2.36331,0c-1.36203,0 -2.21335,0 -3.00067,0c-0.70734,0 -1.81934,0 -2.58334,0c-1,0 -1.867,0 -2.54166,0c-0.71469,0 -2.13702,0 -2.80566,0c-0.65268,0 -1.63669,0 -2.67401,0c-0.73132,0 -1.47867,0 -2.59467,0c-1.0625,0 -1.72684,0 -2.67334,0c-0.60934,0 -1.81067,0 -2.71066,0c-0.60001,0 -1.79999,0 -2.70001,0c-0.59998,0 -1.79999,0 -2.7045,0c-0.61633,0 -1.58081,0 -2.61667,0c-0.72699,0 -1.45798,0 -2.50949,0c-1.19998,0 -1.94849,0 -2.65201,0c-1.00131,0 -1.81732,0 -2.63333,0c-1.22232,0 -2.02234,0 -2.92682,0c-0.85718,0 -1.75717,0 -2.55716,0c-0.90002,0 -1.80002,0 -2.70001,0c-0.91068,0 -1.8215,-0.00006 -2.71066,0c-0.98969,0.00009 -1.83356,-0.00336 -2.56,0.08533c-0.87689,0.10706 -1.55707,0.27231 -2.3335,0.43552c-0.87622,0.18417 -2.3956,0.48047 -2.96036,0.5795c-0.59125,0.1037 -1.84412,0.31757 -2.49799,0.44131c-0.67017,0.12683 -1.35358,0.26181 -2.0415,0.42902c-1.40154,0.34064 -2.09839,0.56372 -2.79333,0.79733c-1.38696,0.46622 -2.06107,0.73178 -2.73067,0.98132c-0.65773,0.24512 -1.29388,0.50446 -2.53867,0.91733c-1.15479,0.38303 -1.71198,0.52893 -2.77083,0.79169c-0.50401,0.12506 -1.47563,0.33392 -2.841,0.64166c-0.43652,0.09839 -1.28595,0.29813 -2.11082,0.5c-0.80978,0.19818 -2.01086,0.49854 -2.80617,0.69998c-0.78404,0.19858 -1.54994,0.39072 -2.63783,0.70001c-0.68301,0.19418 -1.64651,0.49792 -2.26218,0.70001c-1.20567,0.39575 -1.79317,0.61862 -2.6685,0.86398c-1.0618,0.29764 -1.78543,0.33929 -2.63148,0.48868c-1.01381,0.17902 -1.75447,0.56403 -2.71651,0.862c-0.32143,0.09955 0.60001,0.08533 1.39467,0.08533c1.05066,0 1.68666,0 2.73816,0c0.731,0 1.81255,0.00623 2.49384,-0.00134c0.96465,-0.01071 1.89029,-0.04739 2.78551,-0.22015c0.91847,-0.17725 1.53314,-0.39847 2.8665,-0.7785c0.71458,-0.20367 1.44609,-0.39743 2.172,-0.564c0.69028,-0.15839 1.89333,-0.35199 2.66133,-0.436c0.76801,-0.08401 1.97269,-0.28732 2.69333,-0.42532c0.7993,-0.15305 1.67776,-0.31079 2.64,-0.40802c1.03139,-0.10422 1.56747,-0.11475 2.64584,-0.16666c0.53415,-0.0257 1.57266,-0.03918 2.9565,-0.22134c0.80116,-0.10547 1.5204,-0.28961 2.20801,-0.42599c1.0199,-0.2023 1.73889,-0.27002 2.83548,-0.35266c0.71094,-0.05356 1.69876,-0.12286 2.50201,-0.35266c0.86734,-0.24814 1.88226,-0.62933 2.71884,-0.64734c0.89978,-0.01938 1.79999,0 2.55716,0c0.89999,0 1.84415,0 2.83832,0c0.74734,0 1.77109,-0.06302 2.60983,0.00266c0.72971,0.05716 1.78119,0.43875 2.52335,0.70718c0.85529,0.30936 1.31,0.4873 2.27667,0.8075c0.99072,0.32816 1.99051,0.60202 2.48566,0.72101c0.9646,0.23178 1.89075,0.4278 3.17566,0.595c0.76202,0.09918 1.47284,0.13141 2.14801,0.19199c1.35391,0.12146 2.07349,0.25272 2.832,0.41068c0.80164,0.16696 1.63913,0.36917 2.51999,0.564c0.91647,0.2027 1.85797,0.39313 2.33334,0.47916c0.94598,0.1712 2.33234,0.36612 3.21735,0.43552c0.43405,0.03403 1.30341,0.07126 2.19247,0.08084c1.42346,0.01535 1.93268,0.00449 2.99103,0.00449c0.53915,0 1.61249,0 2.13666,0c1.46249,0 2.30518,0 3.04382,0c0.948,0 1.99768,0 2.71466,0c0.771,0 2.06851,0 2.87552,0c0.43649,0 1.3605,0 2.33249,0c0.996,0 1.99466,0 2.98532,0c0.48984,0 1.45352,0 2.84402,0c0.44531,0 1.314,0 2.16666,0c0.85266,0 2.16666,0 3.08401,0c0.46866,0 1.41599,0 2.36331,0c0.46866,0 1.83099,0 2.69101,0c0.82001,0 1.60001,0 2.69501,0c1.01398,0 1.66666,0 2.65067,0c1.03751,0 1.77316,0 2.53683,0c0.78366,0 1.97916,0 2.78049,0c0.80933,0 1.63467,0 2.48401,0c1.336,0 1.79868,0 2.73999,0c0.94934,0 1.89066,0 2.80801,0c0.88132,0 1.73065,0 2.556,0c0.80933,0 2.01031,0 2.80167,0c0.76733,0 1.49466,0 2.76614,0c0.78152,0 1.72552,0 2.72684,0c0.81601,0 1.63202,0 2.63467,0c0.72299,0 1.53601,0 2.54565,0c0.80267,0 1.67734,0 2.59201,0c0.46234,0 1.82217,0 2.68649,0c0.83633,0 1.65268,0 2.85718,0c0.79999,0 1.60001,0 2.39999,0c0.80002,0 1.99966,0 2.79102,0c0.76733,0 1.49466,0 2.76584,0c0.7605,0 1.8765,0 2.63248,0c0.93152,0 1.896,0 2.62134,0c0.98935,0 1.78934,0 2.78934,0c0.81067,0 1.68533,0 2.68268,0c0.79648,0 1.54797,0 2.64532,0c0.87201,0 1.77216,0 2.55734,0c0.94,0 1.948,0 2.73999,0c0.85867,0 1.72198,0 2.62201,0c0.91931,0 1.75266,0 2.73148,0c0.83102,0 1.79318,0 2.58368,0c0.60367,0 1.95883,0 2.69016,0c0.74734,0 1.49469,0 2.58069,0c1.00049,0 1.884,0 2.83331,0c0.79169,0 1.74402,0 2.65466,0c0.85333,0 1.79602,0 2.48853,0c0.95816,0 1.69016,0 2.85681,0c0.8125,0 1.81735,0.00098 2.508,0c0.94,-0.00134 1.81659,-0.34003 2.32535,-1c0.58975,-0.76505 1.41626,-1.1543 1.5,-2c0.07883,-0.79608 0,-1.70001 0,-2.60001c0,-0.89999 0,-1.79999 0,-2.69998c0,-0.90002 0,-1.80002 0,-2.70001c0,-0.79999 0,-1.70001 0,-2.60001c0,-0.89999 0,-1.79999 0,-2.69998c0,-0.90002 0,-1.80002 0,-2.70001c0,-0.79999 0,-1.70001 0,-2.60001c0,-0.89999 0,-1.79999 0,-2.69998c0,-0.90002 0,-1.80002 0,-2.70001c0,-0.88535 -0.07877,-1.66803 0.08533,-2.60132c0.17828,-1.01395 0.6788,-1.7114 0.85751,-2.64603c0.173,-0.90469 0.05716,-1.75266 0.05716,-2.586c0,-0.86215 0,-1.76666 0,-2.66666c0,-0.89999 0.13657,-1.85663 -0.284,-2.70001c-0.32993,-0.66162 -0.76968,-1.44113 -1.51733,-1.884c-0.69962,-0.4144 -1.66272,-0.75983 -2.39868,-1.20132c-0.67859,-0.40707 -1.28528,-1.22974 -1.89999,-1.81448c-0.58633,-0.55774 -1.47208,-0.83557 -2.22131,-1.34302c-0.7381,-0.49991 -1.15433,-1.11758 -1.92151,-1.7955c-0.72162,-0.63766 -1.55457,-0.81329 -2.24118,-1.33099c-0.73895,-0.55716 -1.3223,-1.29306 -2.03683,-1.93066c-0.78418,-0.69974 -1.24716,-0.98401 -1.97916,-1.5c-0.73199,-0.51599 -1.54742,-1.09467 -2.19101,-1.6955c-0.6272,-0.58554 -1.27252,-1.34567 -1.94498,-1.90451c-0.65253,-0.54227 -1.44128,-0.83188 -2.19736,-1.56665c-0.61142,-0.59418 -0.8472,-1.2565 -1.65198,-1.94934c-0.67169,-0.57825 -1.53555,-1.02637 -2.11017,-1.54117c-0.59097,-0.52945 -1.23862,-1.34232 -1.77917,-2.13217c-0.37854,-0.55313 -1.12973,-1.30011 -1.79999,-1.836c-0.83057,-0.66409 -1.14166,-1.24713 -1.70935,-1.89066c-0.7019,-0.79568 -1.52383,-1.17596 -2.09448,-1.80533c-0.5665,-0.62479 -1.02567,-1.50891 -1.52151,-2.17868c-0.60526,-0.81758 -0.93655,-1.57277 -1.66666,-2.33333c-0.44012,-0.45848 -1.26044,-0.75952 -2.07617,-1.47568c-0.50983,-0.44759 -0.9487,-1.46129 -1.25717,-2.17017c-0.29199,-0.67104 -1.10785,-1.39204 -1.69867,-2.09016c-0.46265,-0.54668 -0.59637,-1.73817 -1.02283,-2.53067c-0.36499,-0.67827 -1.07849,-1.2 -1.7785,-1.89999c-0.60001,-0.60001 -1.20456,-1.1955 -1.79999,-1.8c-0.68442,-0.69485 -1.01312,-1.55946 -1.42151,-2.3c-0.37195,-0.67448 -1.19067,-1.28804 -1.87851,-2.00017c-0.50916,-0.52713 -1.04706,-1.41788 -1.5,-2.0385c-0.54053,-0.74063 -1.42688,-1.17589 -1.89999,-1.88216c-0.53094,-0.79262 -0.99472,-1.46349 -1.60001,-2.07918c-0.59485,-0.60509 -1.34842,-1.27463 -1.89999,-2.06667c-0.44037,-0.63237 -0.75159,-1.38522 -1.3045,-2.08066c-0.53635,-0.67458 -1.17947,-1.23668 -1.87015,-1.92734c-0.65869,-0.65868 -1.32535,-1.32535 -1.992,-1.992c-0.48602,-0.48601 -0.996,-1.02019 -1.81183,-1.81166c-0.60211,-0.58412 -1.53452,-0.88368 -2.02151,-1.5425c-0.50708,-0.68597 -1.23376,-1.15903 -1.91599,-1.76317c-0.59454,-0.5265 -0.94778,-1.2626 -1.65335,-1.916c-0.53891,-0.49905 -1.3515,-0.98584 -2.12616,-1.44284c-0.75812,-0.44725 -1.61832,-0.69958 -2.3045,-1.35716c-0.61264,-0.58711 -1.16034,-1.25023 -1.88535,-1.8c-0.72977,-0.55338 -1.51776,-0.82349 -2.228,-1.39999c-0.65881,-0.53477 -0.93524,-1.62956 -1.68799,-1.79868c-0.87869,-0.1974 -1.66177,-0.57491 -2.49866,-0.94865c-0.77219,-0.34485 -1.50034,-0.85367 -2.10001,-1.45267c-0.70041,-0.69962 -1.25662,-1.34717 -1.89999,-1.89551c-0.75336,-0.64207 -1.34106,-1.13925 -1.98801,-1.6205c-0.56509,-0.42038 -1.7157,-0.44229 -2.46133,-0.65866c-0.91534,-0.26561 -1.82809,-0.42592 -2.30334,-1.12984c-0.5065,-0.75018 -1.25354,-1.17601 -2.14734,-1.29683c-0.80954,-0.10942 -1.45059,-0.80867 -2.29999,-0.97784c-0.9603,-0.19127 -1.5332,0.52135 -1.49734,1.46451c0.02768,0.7281 0.43616,1.71742 0.84802,2.32533c0.43991,0.64929 0.95871,1.601 1.07733,2.40399c0.11371,0.76971 0.02286,1.9875 0.15732,2.75334c0.14252,0.81189 0.47113,1.51732 0.74802,2.69867c0.18369,0.78374 0.16666,1.63333 0.16666,2.53467c0,0.96533 0,1.79866 0,2.77716c0,0.717 0,1.62151 0,2.5215c0,0.91066 0,1.82133 0,2.67467c0,0.94 0,1.82533 0,2.71066c0,0.94 0,1.63068 0,2.61467c0,0.98399 0,1.67467 0,2.74733c0,0.91934 0,1.7735 0,2.75267c0,0.78934 0.00006,1.51466 0,2.52083c-0.00009,1.02184 0.04599,1.73557 -0.05716,2.47383c-0.14694,1.05164 -0.66693,1.79248 -0.85883,2.77335c-0.14148,0.72308 0.03641,1.55226 -0.52002,2.56c-0.42407,0.76801 -1.21735,1.31546 -1.664,2.21466c-0.34207,0.68866 -0.53845,1.48331 -1.00015,2.31467c-0.37292,0.67151 -1.07965,1.46678 -1.548,2.14801c-0.50485,0.73433 -1.02283,1.65956 -1.2905,2.32266c-0.35104,0.86971 -0.89468,1.672 -1.14536,2.38666l-0.71732,0.36934l-0.76266,0.52667" id="svg_18" stroke-width="2" stroke="#000" fill="none"/>
  <path t="97526,97582,97590,97590,97604,97604,97620,97620,97638,97638,97638,97654,97654,97670,97670,97687,97704,97704,97720,97720,97737,97737,97894,97894,97910,97926,97942,97950,97982,97982,98006,98006,98022,98038,98038,98046,98054,98070,98087,98118" d="m358,203c1.02084,0 1.97882,-0.00058 2.80984,0c0.95816,0.00067 1.71844,-0.12738 2.85681,0.16667c0.70096,0.18106 1.48886,0.85257 2.16934,1.23332c0.7536,0.42166 1.57693,0.77386 2.328,1.20001c0.83124,0.47163 1.38507,1.04367 2.13599,1.6955c0.66666,0.57866 1.47507,0.70868 2.35718,1.06166c0.76514,0.30618 1.55405,0.72142 2.32199,1.14284c0.86771,0.47615 1.56796,0.87083 2.41019,1.47467c0.62936,0.45123 0.07632,1.08449 -0.49918,1.72983c-0.56265,0.63092 -1.28613,0.93469 -2.133,1.5955c-0.58945,0.45993 -1.25717,1.2 -1.95718,1.89999c-0.5,0.5 -1.19998,1.18933 -1.99866,1.716l-0.716,0.36934l-0.08667,0.91333l-0.35132,0.74866" id="svg_19" stroke-width="2" stroke="#000" fill="none"/>
  <path t="102046,102070,102078,102078,102087,102087,102104,102120,102120,102137,102137,102154,102154,102170,102187,102204,102220,102237,102254,102254,102271,102287,102304,102334,102334,102358,102382,102414,102430,102462,102462,102502,102526,102542,102542,102550,102558,102574,102587,102605,102606,102621,102645,102677,102677,102685,102709,102709,102717,102733,102765,102773,102789,102805,102820,102837,102854,102870,102870,102870,102887,102887,102904,102920,102920,102937,102937,102954,102987,103020,103021,103038,103038,103038,103070,103105,103105,103137,103137,103170,103170,103204,103204,103204,103237,103237,103237,103237,103270,103270,103304,103304,103304,103337,103337,103370,103370,103404,103437,103437,103470,103504,103537,103570,103604,103661,103661,103677,103704,103704,103737,103781,103805,103805,103845,103885,103901,103925,103949,103965,103981,104005,104045,104045,104061,104077,104109,105021,105029,105029,105045,105058,105058,105077,105101,105141,105173,105197,105221,105221,105261,105301,105589,105605,105645,105669,105701,105701,105757,105797,105861,105861,105877,105885,105933,106005,106133,106141,106156,106172,106189,106190,106207,106225,106225,106242,106242,106260,106260,106277,106277,106294,106294,106312,106312,106329,106347,106620,106621,106637,106645,106668,106677,106694,106711,106711,106729,106746,106764,106782,106799,106816,106837,106853,106853,106871,106871,106888,106906,106906,106932,106957,106981,106981" d="m376,204c1.75717,0 2.66342,-0.05283 3.40451,0.05716c1.00867,0.1497 1.74832,0.5504 2.71014,0.85884c0.87619,0.28098 1.46375,0.71748 2.18985,1.384c0.56461,0.51826 1.4342,0.88074 2.12616,1.5c0.65051,0.58218 1.30026,1.05164 1.95868,1.636c0.69318,0.61523 1.01508,1.41124 1.81067,1.84799c0.6481,0.35577 1.63422,0.59628 2.27914,1.23683c0.64389,0.63951 1.0195,1.18172 1.81552,1.53185c0.81406,0.35806 1.19449,1.13249 1.87198,1.78065c0.63232,0.60497 0.94797,1.38504 1.53784,1.80951c0.79041,0.56876 1.70432,0.78398 2.39551,1.45717c0.50656,0.49336 1.13297,1.29637 1.89999,1.73332c0.77988,0.44426 1.34421,0.95715 2.10001,1.38817c0.6691,0.38158 1.40549,1.11313 1.81598,1.9785c0.35931,0.75746 0.78738,1.50113 1.384,2.10001c0.6987,0.70132 1.1759,1.35251 1.67468,2.08932c0.45157,0.66707 1.07544,1.26216 1.72983,1.66335c0.77167,0.47307 1.07239,1.27385 1.29684,2.146c0.20612,0.80089 0.92892,1.28259 1.332,2.13466c0.32846,0.69432 0.87585,1.38472 1.33331,2.33334c0.3613,0.74921 0.94879,1.25427 1.53336,1.90266c0.49179,0.5455 1.07541,1.49399 1.44281,2.12616c0.49347,0.84909 0.784,1.71333 1.45734,2.40468c0.52872,0.54285 1.23288,1.20981 1.71451,1.72516c0.6319,0.67615 1.0022,1.64745 1.62817,2.27467c0.63232,0.63361 1.55923,0.9725 2.14648,1.5c0.63901,0.57396 1.18167,1.20383 1.73218,1.94283c0.52792,0.70869 0.86362,1.26224 1.6785,2.2905c0.38806,0.4897 0.96954,1.15985 1.60001,1.68001c0.95685,0.78943 1.62506,1.07671 2.39999,1.65332c0.61667,0.45886 1.16666,1.00531 1.97849,1.81183c0.61285,0.60883 1.22153,1.22153 1.8215,1.8215c0.70001,0.70001 1.22144,1.40195 1.90002,1.84283c0.79233,0.51477 1.40948,1.02725 2.10132,1.44119c0.79535,0.47586 1.04251,1.38004 1.48401,2.116c0.40707,0.67859 1.21466,1.29999 1.91467,2c0.5,0.5 1.30548,1.13461 1.71597,2c0.35928,0.75745 0.91684,1.23337 1.64801,1.82532c0.56235,0.45526 0.436,1.57468 0.436,2.47467c0,0.89999 0,1.79999 0,2.70001c0,0.89999 0,1.79999 0,2.59998c0,0.90002 -0.11862,1.67563 -0.64734,2.25269c-0.63342,0.69131 -1.25873,1.27051 -1.34198,2.13266c-0.08936,0.92508 -0.01068,1.81467 -0.01068,2.61465c0,0.90002 0.00195,1.81964 -0.42532,2.60001c-0.45038,0.8226 -0.57468,1.70001 -0.57468,2.60001c0,0.79999 0,1.70001 0,2.60001c0,0.89999 -0.00067,1.79999 0,2.69998c0.00067,0.90002 0.18991,1.82687 0.7045,2.40002c0.56259,0.62665 1.38937,1.23911 2.2955,1.29999c0.79819,0.05362 1.79691,-0.36316 2.564,0.03601c0.7594,0.39514 1.27591,0.75421 2.13602,1.02115c0.86594,0.26874 1.27139,1.24146 1.29999,2.14285c0.02853,0.89969 0,1.68533 0,2.62534c0,1.008 0,1.79999 0,2.65997c0,0.91919 0,1.91467 0,2.71469c0,0.99982 0,1.77914 0,2.63333c0,0.91931 -0.08911,1.83289 0.05716,2.51398c0.22705,1.05719 0.93018,1.7446 0.94284,2.65268c0.01123,0.80444 -0.54361,1.74121 -1.39999,1.96399c-0.8717,0.22678 -1.80002,0.03601 -2.70001,0.03601c-0.89999,0 -1.69998,0 -2.60001,0c-0.89999,0 -1.79999,0 -2.69998,0c-0.89999,0 -1.80002,0 -2.70001,0c-0.89999,0 -1.65717,0 -2.55267,0c-0.86331,0 -1.84732,0 -2.83133,0c-0.69064,0 -1.75882,0 -2.616,0l-0.89999,0l-0.79999,0.08533" id="svg_20" stroke-width="2" stroke="#000" fill="none"/>
  <path t="109118,109318,109318,109334,109342,109353,109353,109370,109387,109387,109403,109403,109420,109420,109420,109437,109437,109437,109453,109453,109453,109470,109470,109470,109470,109486,109487,109487,109487,109487,109487,109502,109502,109503,109503,109503,109519,109520,109520,109520,109536,109537,109537,109537,109557,109557,109557,109570,109570,109570,109570,109587,109587,109587,109603,109603,109603,109603,109603,109620,109620,109620,109620,109620,109637,109637,109637,109637,109637,109653,109653,109653,109653,109653,109669,109670,109670,109670,109670,109686,109687,109687,109687,109687,109702,109703,109703,109719,109720,109720,109720,109720,109737,109737,109737,109752,109753,109753,109753,109770,109770,109770,109770,109786,109787,109787,109803,109803,109803,109819,109820,109820,109820,109837,109837,109837,109853,109853,109853,109853,109870,109870,109870,109870,109870,109887,109887,109887,109887,109887,109887,109903,109903,109903,109903,109903,109920,109920,109920,109920,109920,109937,109937,109937,109937,109937,109937,109952,109953,109953,109953,109953,109953,109953,109953,109970,109970,109970,109970,109970,109970,109970,109970,109970,109987,109987,109987,109987,109987,109987,109987,109987,110003,110003,110003,110003,110003,110003,110020,110020,110020,110020,110020,110037,110037,110037,110037,110037,110053,110053,110053,110070,110070,110070,110087,110087,110087,110087,110087,110103,110103,110103,110120,110120,110137,110153,110153,110170,110170,110187,110203,110220,110237,110253,110797,110845,111157,111165,111173,111174,111187,111202,111203,111221,111341,111397,111565,111653,111669,111669,111685,111709,111709,111717,111717,111733,111749,111757,111770,111787,111803,111820,111820,111837,111837,111853,111853,111870,111887,111887,111903,111903,111903,111920,111920,111920,111937,111953,111953,111970,111989,111989,112003,112020,112037,112053,112053,112070,112087,112087,112103,112103,112119,112119,112136,112136,112152,112152,112169,112169,112186,112202,112202,112219,112219,112236,112236,112236,112252,112252,112252,112270,112270,112286,112302,112302,112319,112319,112319,112336,112336,112336,112336,112352,112369,112369,112386,112386,112386,112402,112419,112436,112436,112452,112452,112453,112469,112469,112469,112486,112486,112502,112519,112519,112536,112536,112536,112552,112553,112569,112569,112586,112586,112602,112620,112620,112637,112637,112652,112652,112652,112670,112670,112686,112686,112702,112724,112724,112736,112752,112769,112769,112787,112802,112802,112819,112836,112836,112852,112852,112869,112886,112886,112902,112902,112919,112936,112936,112956,112956,112988,112996,113012,113028,113044,113060,113060,113268,113276,113285,113302,113302,113319,113319,113335,113335,113352,113369,113389,113420,113708,113708,113716,113724,113735,113752,113769,113769,113785,113802,113802,113996,114004,114019,114019,114019,114035,114035,114052,114052,114052,114069,114069,114069,114069,114085,114085,114102,114102,114119,114119,114135,114152,114169,114185,114204,114204,114219,114235,114252,114276,114276,114300,114300,114324,114348,114380,114428,114428,114444,114444,114460,114476,114476,114692,114700,114708,114709,114719,114735,114752,114752,114769,114769" d="m424,245c1.82535,0.436 2.51025,0.80969 3.36401,1.38933c0.73114,0.49638 1.63635,0.58682 2.43597,0.61067c0.95847,0.02859 1.84134,0.38101 2.54733,0.64734c0.89163,0.33635 1.6243,0.42789 2.66702,0.70532c0.80881,0.21521 1.3804,0.41914 2.58566,0.56201c0.89603,0.10622 1.5,0.08307 2.69998,0.08533c0.90002,0.00169 1.5,0 2.70001,0c0.604,0 1.5625,0 2.27151,0c1.22849,0 2.18182,0 2.69098,0c1.05835,0 1.5975,0 2.67084,0c1.03333,0 1.996,0 2.89468,0c0.85065,0 1.66931,0 2.87183,0c0.79565,0 1.57932,0 2.34299,0c1.09052,0 1.77051,0 2.71552,0c0.85498,0 1.86108,-0.01753 2.58331,0.02083c0.81442,0.04326 1.82397,0.1906 2.61185,0.33633c0.82767,0.15311 1.6554,0.27393 2.96115,0.74268c0.69907,0.25096 1.28305,0.61298 2.37134,0.77866c0.73697,0.1122 1.59729,0.1058 2.53201,0.117c0.4873,0.00584 1.98184,0.0045 2.48065,0.0045c0.99066,0 1.96533,0 2.44418,0c1.3905,0 2.27182,0 3.12115,0c0.82535,0 1.63467,0 2.83618,0c0.80432,0 1.62067,0 2.457,0c0.42816,0 1.76431,0 2.69998,0c0.96368,0 1.45352,0 2.44418,0c0.99866,0 1.99466,0 2.96664,0c0.46951,0 1.3605,0 2.53201,0c0.94199,0 1.776,0 3,0c0.75201,0 1.57599,0 2.42401,0c0.82397,0 1.91232,-0.02045 2.78934,0.01067c0.78836,0.02797 1.62152,0.14813 2.5965,0.342c0.71216,0.1416 1.43674,0.32841 2.5235,0.48067c1.00558,0.14087 1.64572,0.15509 2.56534,0.16534c1.20123,0.0134 1.80133,0.00133 2.70129,0.00133c1.20001,0 1.80005,0 2.70001,0c1.20001,0 1.79999,0 2.70001,0c0.90002,0 1.79999,0 2.70001,0c0.89996,0 1.79999,0 2.70898,0c0.63269,0 1.66168,0 2.83398,0c0.42767,0 1.32904,0 2.27838,0c0.48761,0 1.97864,0 2.97864,0c0.5,0 1.5,0 2,0c1,0 2.49982,0 2.99866,0c0.99066,0 1.96533,0 2.44415,0c1.3905,0 2.27319,0 3.13184,0c0.85071,0 1.27802,0 2.59204,0c0.92133,0 1.89063,0 2.39581,0c1.05634,0 1.6095,0 2.77081,0c1.23999,0 1.89001,0 2.56,0c0.69,0 1.40002,0 2.13,0c0.75,0 2.31,0 3.11932,0c0.82538,0 1.66272,0 2.50806,0c0.8493,0 1.69861,0 2.54395,0c0.83734,0 2.47205,0 3.26202,0c0.77002,0 1.52002,0 2.25,0c0.71002,0 2.07001,0 2.72003,0c1.23999,0 2.40265,0 2.95898,0c1.07263,0 1.59296,0 2.61163,0c1.00269,0 2.00134,0 2.992,0c0.48987,0 1.45349,0 2.84399,0c0.44482,0 1.30054,0 2.10419,0c1.09052,0 2.01965,0 2.80115,0c0.94403,0 1.94934,0 2.82385,0c0.65631,0 1.77081,0 2.60419,0c0.87329,0 1.74664,0 2.57996,0c1.08887,0 1.94537,0 2.63983,0c1.01221,0 1.95636,0 2.86084,0c0.91937,0 1.75269,0 2.7312,0c0.82013,0 1.7215,0 2.62146,0c0.90002,0 1.80005,0 2.70001,0c0.90002,0 2.04736,0.38939 2.57849,-0.2215c0.58191,-0.6693 -0.05493,-1.81773 0.20685,-2.57851c0.26825,-0.77956 1.24554,-1.30794 1.62933,-2c0.45728,-0.82448 0.28534,-1.8 0.28534,-2.7c0,-0.89999 0.17554,-2.03716 -0.56934,-2.41467c-0.70166,-0.35561 -1.67798,-0.08533 -2.59735,-0.08533c-0.83331,0 -1.81183,0 -2.63196,0c-0.90137,0 -1.80133,0 -2.70135,0c-0.90002,0 -1.79999,0 -2.70135,0c-0.96533,0 -1.79865,0 -2.63196,0c-0.91937,0 -1.81934,0 -2.51404,0c-1.02734,0 -1.97412,0 -2.86334,0c-0.9895,0 -1.59998,0 -2.47467,0c-0.99731,0 -1.79382,0 -2.54529,0c-1.10803,0 -2.0907,0 -2.94403,0c-0.94,0 -1.82532,0 -2.62531,0c-0.90002,0 -1.79999,0 -2.72083,0c-0.9632,0 -1.65387,0 -2.7265,0c-0.91937,0 -1.75269,0 -2.586,0c-0.91937,0 -1.82385,0 -2.57117,0c-0.99554,0 -1.79553,0 -2.79535,0c-0.77936,0 -1.77869,0 -2.59882,0c-0.9585,0 -1.85852,0 -2.60583,0c-0.99554,0 -1.79553,0 -2.79584,0c-0.84137,0 -1.57037,0 -2.76636,0c-0.67334,0 -1.34668,0 -2.53333,0c-0.9375,0 -1.8045,0 -2.66669,0c-0.85413,0 -1.83331,0 -2.65466,0c-0.69299,0 -1.82117,0 -2.47949,0c-1.01251,0 -1.64581,0 -2.83215,0c-1.03369,0 -1.703,0 -2.867,0c-0.78931,0 -1.51465,0 -2.47919,0c-0.93146,0 -1.84247,0 -2.5625,0c-1.125,0 -1.91095,0 -2.73297,0c-1.05865,0 -1.76819,0 -2.62085,0c-1.00317,0 -1.76849,0 -2.85181,0c-0.91937,0 -1.58868,0 -2.75269,0c-0.79999,0 -1.59998,0 -2.59998,0c-0.80005,0 -1.79871,0 -2.56403,0c-0.95203,0 -1.71997,0 -2.66132,0c-1.008,0 -1.79999,0 -2.66138,0c-0.75995,0 -1.93445,0 -2.72797,0c-0.77551,0 -1.81598,0 -2.53351,0c-0.90448,0 -1.76782,0 -2.75183,0c-0.98401,0 -1.67465,0 -2.74283,0c-0.85718,0 -1.75717,0 -2.55716,0c-0.95718,0 -1.85269,0 -2.54733,0c-1.02734,0 -1.974,0 -2.82733,0c-0.94135,0 -1.71249,0.06685 -2.6507,-0.01067c-1.01654,-0.084 -1.62698,-0.61748 -2.49597,-0.86783c-0.82687,-0.23822 -1.79333,-0.12151 -2.67868,-0.12151c-0.88535,0 -1.82535,0 -2.51599,0c-1.07333,0 -1.884,0 -2.784,0c-0.90002,0 -1.80002,0 -2.70001,0c-0.79999,0 -1.70007,0.01018 -2.60001,0c-0.92102,-0.01042 -1.87689,-0.30153 -2.57465,-0.57466c-0.93243,-0.36499 -1.71808,-0.4856 -2.47803,-0.778c-0.87418,-0.33635 -1.82629,-0.63692 -2.64731,-0.64734c-0.89996,-0.01141 -1.80002,0 -2.70001,0c-0.79999,0 -1.70001,0 -2.60001,0c-0.89999,0 -1.81067,0 -2.72131,0c-0.85333,0 -1.79333,0 -2.67868,0c-0.79999,0 -1.70001,0 -2.672,0c-0.87067,0 -1.57867,0 -2.56,0c-0.96268,0 -1.73599,0 -2.78683,0c-0.8385,0 -1.46918,0 -2.50235,0c-1.09348,0 -1.81747,0 -2.50949,0c-1.19733,0 -1.90683,0 -2.948,0c-0.90533,0 -1.84668,0 -2.53732,0c-0.96317,0 -1.884,0 -2.784,0c-0.90002,0 -1.80017,-0.0045 -2.58536,0c-0.92938,0.00534 -1.63892,0.49059 -2.40131,0.91467c-0.77264,0.42979 -1.71466,0.03482 -2.69183,0.08549c-0.82349,0.04271 -1.44406,0.68538 -2.3215,0.94267c-0.86548,0.25378 -1.79138,0.29083 -2.45718,0.76166c-0.71762,0.50748 -1.40378,0.89851 -2.35748,1.2115c-0.87427,0.28693 -1.58618,0.72946 -2.38535,1.084c-0.80081,0.35529 -1.58932,0.92712 -2.064,1.60001c-0.51837,0.7348 -0.79318,1.7 -1.436,2.39999l-0.52084,0.47917l-0.80048,0.39949l-0.85333,0.14667" id="svg_21" stroke-width="2" stroke="#000" fill="none"/>
  <path t="117628,117764,117764,117772,117772,117836,117844,117852,117869,117869,117885,117885,117885,117902,117919,117919,117919,117934,117963,117987,117987,117995,118187,118204,118204,118220,118227,118244,118379,118388,118427,118428" d="m506,241c1.836,0 2.60132,0 3.59549,0c0.91919,0 1.89694,0.14551 2.80453,-0.01067c0.83313,-0.14337 1.59479,-0.84184 2.27197,-1.01466c0.86475,-0.22067 1.82324,-0.49142 2.56,-0.69067c0.95258,-0.25761 1.94415,-0.60526 2.42065,-0.98933c0.70929,-0.57172 1.46301,-1.11845 2.44733,-1.29483c0.90094,-0.16144 1.43774,-0.74463 2.30005,-0.96384c0.87311,-0.22195 1.73834,-0.42207 2.39996,-0.752c0.84338,-0.42056 1.81915,-0.11877 2.70001,-0.30482c0.84741,-0.17899 1.59998,-0.85767 2.5,-0.97917l0.79999,0" id="svg_22" stroke-width="2" stroke="#000" fill="none"/>
  <path t="122476,122779,122787,122787,122802,122802,122818,122818,122835,122853,122853,122868,122885,122902,122918,122918,122935,122935,122952,122971,123035,123051,123067,123091,123091,123099,123123,123139,123163,123179,123427,123443,123452,123468,123468,123468,123485,123485,123502,123502,123571,123571,123603,123611,123619,123635,123675,123675,123683,123691,123691,123702,123717,123734,123735,123751,123779,123779,123859,123867,124083,124083,124107,124115,124123,124135,124152,124152,124168,124168,124185,124185,124202,124202,124218,124218,124218,124218,124235,124235,124235,124252,124252,124268,124268,124268,124268,124285,124285,124285,124302,124302,124302,124318,124318,124318,124340,124627,124627,124627,124636,124652,124684,124852,124852,124900,124900,124924,125036,125052,125068,125068,125092,125436,125436,125444,125476,125492,125516,125516,125556,125588,125620,125660,125692,125732,125756,125756,125820,125828,125852,125860,125884,125892,125908,125918,125935,125952,125968,125985,126002,126020,126035,126035,126052,126068,126085,126102,126148,126172,126196" d="m241,277c0,2.62534 0,3.48532 0,4.21066c0,0.98917 0,1.95334 0,2.90533c0,0.76801 0,1.70935 0,2.71735c0,0.75598 0,1.66666 0,2.56665c0,0.90451 0,1.76666 0,2.60001c0,0.97849 0.19629,1.83316 -0.05716,2.70001c-0.25661,0.87762 -0.91425,1.5986 -0.94284,2.5c-0.02853,0.89954 0,1.79999 0,2.59998c0,0.90002 0,1.80002 0,2.70001c0,0.89999 0.168,1.81607 -0.00133,2.69867c-0.14514,0.75647 -1.2238,0.69836 -2.16534,0.96799c-0.68411,0.19589 -1.32474,0.67279 -2.21866,1.22269c-0.5694,0.35025 -1.62323,0.53174 -2.364,0.63599c-1.11391,0.15674 -1.81358,0.58344 -2.65067,0.94934c-0.78523,0.34323 -1.13202,1.22403 -1.76668,1.85867c-0.63464,0.63464 -1.48131,0.73206 -2.12883,1.46664c-0.58372,0.66223 -0.34763,1.60638 -0.76166,2.34283c-0.44675,0.79462 -1.39841,1.18964 -1.6575,1.87451c-0.36008,0.95181 -0.28534,1.80399 -0.28534,2.65732c0,0.94 -0.04779,1.92664 0,2.82535c0.04272,0.80338 0.43291,1.69427 1.39999,1.96399c0.86761,0.24197 1.8,0.03601 2.70018,0.03601c0.78516,0 1.74454,0.05188 2.50116,-0.08533c1.01724,-0.18448 1.57617,-0.57684 2.59883,-0.79318c0.80891,-0.17111 1.96661,-0.11227 2.757,-0.12598c0.56381,-0.00977 1.45232,-0.0368 2.64017,-0.27951c0.58615,-0.11975 1.37758,-0.40948 2.436,-0.63199c0.82237,-0.17288 1.73051,-0.30753 2.66399,-0.50934c0.69832,-0.15097 1.41658,-0.32553 2.48117,-0.45319c0.98216,-0.11777 1.91701,-0.11697 2.8215,-0.12149c0.89549,-0.00446 1.77539,0.03656 2.83333,-0.16666c0.71603,-0.13754 1.49313,-0.51938 2.414,-0.78067c0.90926,-0.258 1.60405,-0.44321 2.26866,-0.854c0.87558,-0.5412 1.44128,-1.39566 1.48401,-2.29868c0.04251,-0.89899 0.02051,-1.6701 0.35266,-2.55267c0.26578,-0.70621 0.62933,-1.71075 0.64734,-2.54733c0.01938,-0.89978 0,-1.79999 0,-2.59998c0,-0.95718 0,-1.85269 0,-2.716c0,-0.84802 -0.10696,-1.79053 0.00134,-2.68402c0.11148,-0.91977 0.8085,-1.4541 0.98798,-2.39999c0.16779,-0.88428 0.01068,-1.79999 0.01068,-2.69998c0,-0.90002 0.04779,-1.8013 0,-2.70001c-0.04272,-0.80338 -0.48254,-1.6539 -0.97467,-2.38934c-0.44797,-0.66946 -1.01465,-1.22131 -1.02533,-2.11066c-0.01068,-0.88934 -0.77481,-1.43661 -0.99551,-2.2045c-0.24738,-0.86069 -0.00449,-1.7955 -0.00449,-2.6955c0,-0.89999 0,-1.80002 0,-2.70001c0,-0.89999 0,-1.69998 0,-2.60001c0,-0.89999 0,-1.79999 0,-2.69998l0,-0.89999l0,-0.90002l0,-0.89999" id="svg_23" stroke-width="2" stroke="#000" fill="none"/>
  <path t="128388,128508,128572,128572,128596,128612,128612,128620,128636,128660,128692,128692,128701,128716,128724,128735,128752,128768,128788,128788,128804,128818,128836,128852,128868,128892,128892,128908,128908,128924,128940,128956,128968,128985,129004,129028,129060,129060,129076,129108,129148,129148,129164,129188,129197,129220,129236,129252,129276,129300,129309,129348,129364,129380,129388,129444,129476,129500,129540" d="m54,185c1.6,0.61067 2.3,1.3 2.8,1.8c0.7,0.7 1.32363,1.50385 2,1.91466c0.77614,0.47142 1.16176,1.05087 1.72083,1.78534c0.59018,0.77533 1.15689,1.31535 1.5045,2.10001c0.36228,0.81776 0.76092,1.69131 1.32733,2.34732c0.51148,0.59239 0.51079,1.40932 0.93133,2.25267c0.32993,0.66165 0.71375,1.49998 0.716,2.40001c0.00225,0.89999 0,1.79999 0,2.7045c0,0.86217 0,1.6955 0,2.674c0,0.82016 0,1.7215 0,2.62151c0,0.89999 0,1.79999 0,2.7c0,0.89999 0,1.8 0,2.7c0,0.8 0.03676,1.76237 -0.52084,2.5c-0.58759,0.7773 -1.15059,1.31818 -1.5045,2.10001c-0.36692,0.81058 -1.27143,1.17999 -1.922,1.75266c-0.58883,0.51833 -1.05025,1.26408 -1.75716,1.70001c-0.67162,0.41417 -1.56824,0.75583 -2.24284,1.29999c-0.66109,0.53326 -1.4875,0.40446 -2.34817,0.65184c-0.76789,0.22072 -1.22533,0.97467 -2.1045,1.00616l-0.9,0.342" id="svg_24" stroke-width="2" stroke="#000" fill="none"/>
  <path t="131133,131180,131188,131201,131218,131218,131235,131251,131268,131268,131300,131324,131324,131332,131348,131604,131612,131619,131620,131636,131636,131651,131668,131685,131685,131716,131716,131747,131748,131772,131795,131819,131820,131843,131852,131868,131885,131901,131918,131918,131935,131951,131979,131980,132011,132012,132012,132020,132035,132051,132068,132068,132085,132085,132107,132118,132135,132151,132168,132168,132185,132201,132218,132235,132531" d="m68,173c0.61066,1.564 1.44319,1.88495 2.3,2.35266c0.74532,0.40686 1.53709,0.44221 2.39999,0.7045c0.88469,0.26891 1.29105,1.19533 2.10001,1.6575c0.76405,0.43652 1.73415,0.05334 2.49017,0.3425c0.89728,0.34317 1.41432,0.94058 2.30983,0.94284c0.92084,0.00232 1.8914,0.07057 2.57467,-0.036c0.96089,-0.14987 1.5475,-0.85469 2.32533,-1.44318c0.74229,-0.5616 1.69527,-0.62698 2.31467,-0.95683c0.90186,-0.48026 1.24454,-1.36946 2.18533,-1.564c0.78787,-0.16292 1.46862,-0.56145 2.3,-0.94733c0.87202,-0.40475 1.42465,-0.94167 2.2,-1.53185c0.73447,-0.55907 1.32479,-1.00754 2.02084,-1.52083c0.68834,-0.50761 1.62054,-0.77036 2.27917,-1.084c0.83779,-0.39897 1.05865,-1.41763 1.643,-2.01617c0.66011,-0.67615 1.57768,-1.04239 2.148,-1.55249c0.5582,-0.49927 1.04076,-1.60089 1.63033,-2.226c0.55151,-0.58475 0.70379,-1.33643 0.864,-2.00667c0.23238,-0.97221 0.74989,-1.6058 0.89383,-2.59384c0.13278,-0.91144 0.12779,-1.82736 0.0195,-2.72083c-0.11148,-0.91978 -0.43118,-1.63054 -1.02399,-2.364c-0.52595,-0.65073 -1.45383,-0.95683 -1.9175,-1.73601l-0.0585,-0.89999" id="svg_25" stroke-width="2" stroke="#000" fill="none"/>
  <path t="137419,137851,137867,137867,137875,137891,137947,137963,137963,137971,137971,137984,138001,138018,138034,138051,138068,138068,138091,138091,138091,138107,138179,138227,138459,138468,138484,138484,138484,138501,138501,138501,138518,138534,138534,138551,138551,138568,138568,138584,138584,138601,138601,138618,138618,138634,138634,138651,138675,138707,138707,138731,138763,138763,138779,138787,138811,138843,138859,138868,138884,138884,138901,139051,139163,139163,139179,139187,139201,139201,139218,139234,139234,139251,139283,139283,139299,139315,139315,139339,139355,139451" d="m105,158c1.75716,0 2.65266,0 3.516,0c0.96317,0 1.884,0 2.68533,0c0.96533,0 1.79867,0 2.77717,0c0.82017,0 1.6215,0 2.6215,0c0.9,0 1.8,0 2.60133,0c0.96533,0 1.83529,0.0612 2.79867,-0.16667c0.80833,-0.19119 1.49068,-0.65526 2.364,-0.79733c0.92455,-0.15041 1.88163,-0.31873 2.73567,-0.03583c0.57497,0.19046 -0.10066,1.16589 -0.51034,1.83583c-0.34734,0.56798 -1.06176,1.57317 -1.58933,2.14317c-0.50513,0.54576 -1.35392,1.18567 -1.83334,2.02083c-0.37469,0.65273 -0.88824,1.28151 -1.684,1.8c-0.74133,0.48303 -1.34668,1.03236 -2.13983,1.5c-0.73018,0.43051 -1.74959,0.88484 -2.322,1.2c-0.86702,0.47737 -1.47953,1.02176 -2.22083,1.69867c-0.58438,0.53362 -1.55513,0.76714 -2.2,1.23734c-0.7796,0.56844 -1.3,1.26399 -2,1.96399c-0.6,0.60001 -1.19249,1.18602 -1.57467,2c-0.41386,0.88145 -1.17444,1.18581 -1.85867,1.76668c-0.66625,0.56561 -1.33849,0.61031 -2.16666,1c-0.75838,0.35686 -0.9564,1.50877 -1.64667,1.85866c-0.78168,0.39622 -1.49178,0.67439 -2.468,0.88934c-0.96588,0.21268 -1.88533,0.08533 -2.68533,0.08533c-0.836,0 -1.85266,0 -2.54733,0c-1.02733,0 -1.974,0 -2.82733,0c-0.94,0 -1.82533,0 -2.62534,0l-0.89999,0l-0.9,-0.036l-0.8,-0.38934" id="svg_27" stroke-width="2" stroke="#000" fill="none"/>
  <path t="140451,140651,140675,140715,140739,140739,140771,140787,140787,140803,140803,140812,140812,140819,140834,140851,140851,140868,140868,140884,140884,140901,140901,140918,140918,140934,140934,140955,140955,141331,141339,141351,141368,141384,141384,141401,141401,141401,141418,141418,141434,141434,141451,141468,141468,141484,141501,141501,141501,141518,141518,141534,141534,141534,141579,141595,141595,141763,141787,141787,141795,141803,141818,141834,141834,141851,141851,141868,141868,141868,141884,141884,141884,141901,141901,141918,141918,141934,141951,141952,141968,141968,141995,141995,142027,142043,142059,142068,142068,142084,142101,142101,142118,142118,142135,142135,142155,142155" d="m125,161c1.8,0 2.7,0 3.52083,0c0.96317,0 1.65384,0 2.7265,0c0.91934,0 1.75267,0 2.73134,0c0.774,0 1.674,0 2.53734,0c0.96317,0 1.7885,0 2.8055,0c0.69933,0 1.6785,0 2.46783,0c1.04399,0 1.836,0 2.696,0c0.91916,0 1.91466,0 2.71466,0c0.99983,0 1.77917,0 2.7785,0c0.82016,0 1.83714,-0.00298 2.02017,0.80133c0.1994,0.87627 0.0237,1.71979 0,2.68401c-0.01784,0.72594 -0.16466,1.73924 -0.54034,2.51466c-0.30177,0.62286 -0.92595,1.41376 -1.633,2.164c-0.64404,0.6834 -1.37265,1.26585 -1.74133,2.036c-0.41039,0.85728 -0.81818,1.47214 -1.384,2.10451c-0.74054,0.82761 -1.06725,1.5524 -1.45717,2.04283c-0.65836,0.82805 -1.49263,1.19969 -2.22133,1.974c-0.43486,0.46208 -0.76091,1.23996 -1.42149,2.04266c-0.64545,0.7843 -1.3,1.336 -1.90001,1.936c-0.7,0.7 -1.23378,1.44115 -2.09999,1.664c-0.87231,0.22443 -1.8,0.036 -2.70018,0.036c-0.78516,0 -1.74649,0 -2.3615,0c-1.22366,0 -2.05916,0 -2.64284,0c-1.19516,0 -2.07416,0 -2.88116,0c-1.04501,0 -1.76359,0.03995 -2.667,-0.0045c-0.86607,-0.04262 -1.66958,-0.5448 -2.514,-0.82883c-0.80186,-0.26971 -1.812,-0.16667 -2.58601,-0.16667c-0.89999,0 -1.76334,0.00558 -2.72649,0c-0.92088,-0.00534 -1.62804,-0.45294 -2.52084,-0.83333c-0.75154,-0.32021 -1.6367,-0.13301 -2.65717,-0.17117c-0.74866,-0.028 -1.76591,-0.22855 -2.50684,-0.60617c-0.84663,-0.43149 -1.46133,-0.95332 -2.31866,-1.30533l-0.8075,-0.13667" id="svg_28" stroke-width="2" stroke="#000" fill="none"/>
  <path t="143995,144067,144067,144076,144076,144084,144084,144101,144101,144118,144118,144347,144355,144371,144371,144384,144384,144401,144595,144595,144611,144611,144627,144667,144683,144683,144707,144708,144716,144716,144734,144734,144750,144751,144768" d="m145,172c1.836,-0.436 2.59483,-0.81467 3.39999,-1.19867c0.79381,-0.37859 1.80229,-0.66512 2.57918,-0.80133c0.85719,-0.1503 1.61371,-0.6716 2.50482,-0.916c0.67438,-0.18495 1.84398,-1.08057 2.45885,-0.66516c0.74931,0.50624 0.16125,1.80449 -0.22684,2.69583c-0.32295,0.74174 -0.68155,1.54202 -1.00134,2.36932c-0.27527,0.71211 -0.90164,1.43617 -1.3575,2.2115c-0.48099,0.81807 -1.00378,1.29916 -2.01433,1.3045c-0.74731,0.00394 -1.74283,0 -2.54283,0c-0.99983,0 -1.77917,0 -2.77867,0c-0.774,0 -1.674,0 -2.53734,0l-0.96317,0" id="svg_29" stroke-width="2" stroke="#000" fill="none"/>
 </g>
 <g display="none">
  <title>muse_image</title>
  <image xlink:href="http://farm1.static.flickr.com/23/33041999_713888dc3c.jpg" id="muse" height="358" width="640" y="61" x="0"/>
 </g>
 <g display="none">
  <title>bbox</title>
  <rect stroke="#f00" fill="none" stroke-width="3" height="203.29286" width="627.2" y="123.65" x="12.8" id="bbox"/>
 </g>
</svg>
