<svg width="640" height="480" xmlns="http://www.w3.org/2000/svg" xmlns:svg="http://www.w3.org/2000/svg" xmlns:xlink="http://www.w3.org/1999/xlink">
 <!-- Sketchy ANNOTATION
  ImageNet ID: n02691156_2149
  URL: http://farm2.static.flickr.com/1387/531326560_e50926d902.jpg
  Image Width: 500
  Image Height: 375
  BBox X: 63
  BBox Y: 190
  BBox Width: 388
  BBox Height: 109
  Exposure: 2000ms
  Synset Label: airplane
  Synset ID: n02691156
  Worker Tag: An airplane in the sky
  Sanity Check: 
   Context
   Saved
   Shading
  Comment: 
   {}
  Worker ID: A1P7U2ULSAE7YL
  Assignment ID: 358UUM7WRZ37UQE7787NO9NWKAC7RP
  HIT ID: 3CKVGCS3PG53QAG6BWHHAKNKY2PS0W
  Work Time: 297s
  Worker Score: 0.9286
 END ANNOTATION -->
 <g display="inline">
  <title>Layer 1</title>
  <path t="0,325,325,333,341,349,357,365,381,389,389,397,397,413,421,429,437,453,469,469,477,477,477,485,493,501,510,517,517,533,533,541,541,549,557,565,565,573,573,581,581,589,597,605,605,613,615,621,629,637,637,646,653,662,662,669,669,679,685,685,693,693,701,701,709,710,717,717,717,726,726,733,733,733,741,741,749,749,757,757,757,765,765,773,773,781,798,798,805,813,813,821,829,829,837,837,845,845,853,863,863,869,877,885,885,893,893,901,901,909,909,917,917,926,926,933,933,943,943,949,949,957,957,965,965,973,973,981,981,989,989,989,997,997,997,1005,1005,1013,1013,1021,1021,1029,1029,1037,1045,1045,1053,1053,1062,1069,1069,1069,1078,1079,1085,1085,1095,1095,1101,1101,1109,1109,1117,1117,1117,1117,1126,1126,1126,1133,1133,1133,1143,1143,1149,1149,1150,1150,1157,1157,1157,1165,1165,1165,1173,1173,1173,1181,1181,1181,1181,1189,1189,1189,1197,1197,1197,1198,1205,1205,1205,1205,1213,1213,1214,1221,1221,1221,1229,1229,1237,1237,1247,1247,1248,1248,1253,1253,1253,1261,1261,1269,1269,1269,1279,1279,1285,1285,1293,1293,1300,1300,1301,1317,1317,1317,1326,1326,1326,1333,1333,1333,1342,1343,1343,1349,1349,1357,1357,1357,1365,1366,1366,1373,1373,1381,1382,1389,1389,1389,1397,1397,1398,1405,1413,1414,1429,1429,1437,1437,1453,1453,1461,1461,1478,1485,1485,1493,1493,1501,1509,1509,1517,1517,1525,1526,1533,1533,1542,1542,1549,1549,1558,1565,1565,1573,1573,1581,1581,1589,1589,1597,1598,1605,1606,1613,1614,1621,1629,1629,1637,1645,1662,1662,1669,1679,1685,1693,1701,1717,1725,1726,1733,1733,1742,1742,1749,1759,1759,1766,1766,1773,1781,1781,1789,1789,1789,1797,1797,1805,1805,1813,1813,1821,1829,1837,1837,1845,1846,1853,1853,1862,1869,1869,1877,1877,1885,1893,1893,1901,1901,1909,1917,1925,1925,1933,1942,1942,1950,1959,1965,1981,1981,1989,1997,1997,2005,2005,2013,2029,2047,2047,2062,2062,2069,2069,2078,2085,2101,2117,2125,2125,2141,2158,2175,2175,2189,2198,2213,2213,2237,2246,2262,2269,2278,2278,2294,2311,2317,2329,2341,2358,2374,2374,2381,2389,2397,2397,2405,2413,2421,2429,2429,2445,2453,2469,2478,2485,2485,2501,2509,2517,2533,2533,2549,2565,2565,2581,2581,2597,2597,2606,2613,2613,2629,2629,2637,2645,2653,2661,2678,2678,2685,2685,2696,2697,2701,2711,2717,2733,2733,2741,2749,2757,2774,2782,2791,2798,2805,2813,2821,2829,2837,2853,2861,2861,2869,2877,2877,2885,2896,2901,2901,2910,2917,2933,2941,2949,2965,2966,2981,2991,2997,3005,3013,3013,3021,3029,3045,3053,3069,3069,3085,3085,3093,3093,3109,3117,3141,3149,3149,3157,3173,3182,3197,3205,3205,3221,3237,3261,3269,3277,3294,3294,3325,3333,3349,3361,3361,3363,3389,3421,3437,3469,3485,3509,3548,3597,3813,3829,3846,3846,3853,3853,3861,3893,3925,3973,3989,4020,4037,4047,4047,4053,4061,4069,4077,4085,4093,4349,4358,4358,4375,4390,4429,4469,4853,4869,4893,4909,4949,4981,4981,5005,5021,5037,5076,5101,5117,5133,5141,5165,5181,5205,5213,5229,5245,5269,5277,5293,5317,5332,5341,5341,5349,5372,5381,5397,5413,5418,5429,5445,5446,5454,5461,5484,5500,5509,5517,5532,5541,5557,5574,5581,5605,5605,5629,5629,5645,5654,5671,5700,5701,5717,5725,5756,5757,5781,5789,5821,5821,5845,5869,5869,5885,5901,5917,5949,5949,5957,5965,5989,6020,6037,6045,6061,6085,6093,6117,6141,6149,6164,6172,6190,6207,6213,6244,6277,6285,6309,6317,6332,6365,6373,6450,6516,6540,6565,6845,6876,6908,6925,6964,7004,7092,7180" d="m77,221c1,0 1.8,0 2.7,0c0.9,0 1.8,0 2.7,0c0.9,0 1.80133,0 2.76666,0c0.83334,0 1.66667,0 2.52884,0c0.9045,0 1.8045,0 2.7045,0c0.9,0 1.80133,0 2.76666,0c0.66933,0 1.83334,0 2.62267,0c0.72533,0 1.68983,0 2.61067,0c0.9,0 1.8,0 2.70016,0c0.78516,0 1.73583,0 2.50117,0c0.99416,0 1.7415,0 2.76266,0c0.9405,0 1.80267,0 2.636,0c0.97867,0 1.75267,0 2.65266,0c0.86333,0 1.8265,0 2.758,0c0.91067,0 1.764,0 2.704,0c0.88533,0 1.80133,0 2.647,0c0.891,0 1.58567,0 2.60233,0c0.9405,0 1.80267,0 2.636,0c0.9785,0 1.79867,0.0024 2.75716,0c0.90002,-0.00226 1.66337,0.00432 2.64283,-0.284c0.81653,-0.24036 1.59288,-0.61003 2.57918,-0.69518c0.85124,-0.07349 1.68216,-0.02083 2.56366,-0.02083c0.978,0 1.77451,0 2.77184,0c0.87466,0 1.68533,0 2.48534,0c0.8,0 1.8,0 2.59999,0c1.00134,0 1.836,0 3.02135,0c0.80399,0 1.35333,0 2.657,0c0.67499,0 1.75499,0 2.511,0c0.93149,0 1.89465,0 2.58533,0c0.94133,0 2.00244,0.11064 2.8045,-0.02083c0.88075,-0.14436 1.45825,-0.90868 2.24216,-0.96851c0.97572,-0.07448 1.75784,-0.01067 2.75717,-0.01067c0.82016,0 1.6575,0 2.67416,0c0.69467,0 1.71133,0 2.65184,0c0.86217,0 1.71632,0 2.6955,0c0.78934,0 1.83333,0 2.62534,0c0.86,0 1.58533,0 2.57449,0c0.96417,0 1.91617,0 2.68417,0c0.952,0 1.71733,0 2.716,0c0.79999,0 1.79999,0 2.59999,0c1,0 1.8,0 2.8,0c0.78934,0 1.83333,0 2.62534,0c0.86133,0 1.62134,0 2.79601,0c0.80399,0 1.35333,0 2.65717,0c0.6855,0 1.52016,0 2.5215,0c0.79999,0 1.79999,0 2.59999,0c0.99983,0 1.77917,0 2.7785,0c0.82016,0 1.6575,0 2.67867,0c0.74733,0 1.7415,0 2.50684,0c0.952,0 2.00267,0 2.672,0c0.76534,0 1.76401,0 2.564,0c1,0 1.8,0 2.8,0c0.8,0 1.8,0 2.77917,0c0.85416,0 1.71815,0 2.78516,0c0.60268,0 1.27734,0 2.35434,0c1.05966,0 1.71967,0 2.63466,0c1.08,0 2.01068,0 2.64217,0c1.00717,0 1.87651,0 2.93784,0c0.63467,0 1.66667,0 2.36134,0c1.2625,0 2.04399,0 2.75349,0c0.97318,0 1.77716,0 2.59917,0c1.03149,0 1.9735,0 2.722,0c1.2,0 1.892,0 2.616,0c0.73201,0 2.12933,0 2.77867,0c0.9315,0 1.836,0 2.74049,0c0.61633,0 1.58084,0 2.61684,0c0.73134,0 1.85333,0 2.59467,0c1.06235,0 1.72235,0 2.63733,0c1.08002,0 2.01068,0 2.64218,0c1.00449,0 1.8045,0 2.80466,0c0.82068,0 1.96649,0 2.75699,0c0.85352,0 1.44418,0 2.64151,0c0.88049,0 1.716,0 2.716,0c0.66449,0 1.68533,0 2.48532,0c0.80002,0 1.80002,0 2.60001,0c1,0 1.80002,0 2.80002,0c0.79999,0 1.79999,0 2.75833,0c0.875,0 1.70615,0 2.60416,0c0.84149,0 1.73734,0 2.62683,0c0.85352,0 1.88934,0 2.58533,0c0.90933,0 1.90933,0 2.72534,0c0.81601,0 1.81467,0 2.68933,0c1.01083,0 1.83151,0 2.496,0c0.99866,0 1.81467,0 2.63068,0c1.22684,0 1.87332,0 2.88416,0c0.82068,0 1.96649,0 2.7525,0c0.82199,0 1.88068,0 2.58566,0c0.80002,0 1.82568,0 2.77066,0c0.66168,0 1.69635,0 2.44034,0c1.10785,0 1.86533,0 2.90784,0c0.74734,0 1.74152,0 2.50684,0c0.952,0 2.00266,0 2.66135,0c1.008,0 1.87015,0 2.81064,0c0.84933,0 1.57468,0 2.56403,0c0.79999,0 1.79999,0 2.77914,0c0.85419,0 1.64618,0 2.67801,0c0.74734,0 1.74152,0 2.50684,0c0.95065,0 1.93616,0 2.72134,0c0.95065,0 1.71597,0 2.71466,0c0.79999,0 1.79999,0 2.60001,0c1,0 1.79999,0 2.79999,0c0.78934,0 1.83334,0 2.58932,0c0.93152,0 1.89468,0 2.58533,0c0.94,0 1.92535,0 2.82535,0c0.79999,0 1.70001,0 2.60001,0c0.89999,0 1.79999,0 2.69998,0c0.90134,0 1.86667,0 2.52536,0c1.008,0 1.79999,0 2.82733,0c0.69464,0 1.72198,0 2.66864,0c0.85333,0 1.79468,0 2.56268,0c0.94135,0 1.94934,0 2.63684,0c1.022,0 1.74048,0 2.53098,0c1.02667,0 1.92734,0 2.94818,0c0.78934,0 1.83334,0 2.58932,0c0.91068,0 1.82135,0 2.73218,0c0.69934,0 1.6785,0 2.65765,0c0.85419,0 1.71634,0 2.65683,0c0.84933,0 1.57468,0 2.56384,0c0.96417,0 1.91483,0 2.80017,0c0.75717,0 1.65268,0 2.51599,0c0.96317,0 1.89468,0 2.80533,0c0.85333,0 1.79333,0 2.67868,0c0.79999,0 1.70001,0 2.60001,0c0.92084,0 1.884,0 2.57465,0c0.94135,0 1.992,0 2.6507,0c1.008,0 1.87015,0 2.77466,0c0.92084,0 1.88531,0 2.61066,0c0.98917,0 1.76849,0 2.76782,0c0.82019,0 1.72153,0 2.62152,0c0.89999,0 1.81088,0.01985 2.72116,-0.00017c0.81808,-0.01799 1.46091,-0.6734 2.22049,-0.979c0.87445,-0.35182 1.633,-0.02083 2.70117,-0.02083c0.85718,0 1.79541,0.17355 2.55716,-0.08533c0.88794,-0.30176 1.59949,-0.89601 2.5,-0.91467c0.89984,-0.01865 1.75085,-0.30084 2.40002,-0.64734c0.84937,-0.45335 1.71634,-0.44339 2.32532,-0.92732c0.63449,-0.50421 1.31699,-1.04422 2.17468,-1.34001c0.85477,-0.29477 1.6915,0.01137 2.61465,-0.09599c0.95932,-0.11156 1.21606,-1.13361 1.88983,-1.63217c0.69427,-0.51373 1.70599,-0.22446 2.59549,-0.36166c0.9314,-0.14368 1.46863,-0.84732 2.40002,-0.991c0.8895,-0.13721 1.83475,0.04846 2.59998,-0.35716c0.84595,-0.44841 1.47952,-0.76639 2.30002,-1.222c0.78195,-0.43422 1.52731,-0.83421 2.39999,-1.25867c0.75391,-0.36668 1.48849,-0.73511 2.32132,-1.26651c0.65543,-0.41821 1.51758,-0.71188 2.30402,-0.92549c0.86542,-0.23506 1.71991,-0.62823 2.61749,-0.922c0.85541,-0.27995 1.49252,-0.77539 2.40985,-1c0.849,-0.20787 1.63336,-0.64046 2.44733,-0.93117c0.85526,-0.30547 1.65814,-0.39891 2.06665,-1.12151c0.37814,-0.6689 1.3237,-1.18922 2.008,-1.60001c0.81155,-0.48718 1.52039,-1.04388 2.32535,-1.39999c0.79953,-0.3537 1.59387,-0.93912 2.5,-1c0.79819,-0.05363 1.72275,0.146 2.38934,-0.436c0.69818,-0.60957 0.96655,-1.5347 1.91064,-1.564c0.89825,-0.02786 1.55124,-0.33681 2.12534,-0.97467c0.52087,-0.57872 1.18539,-1.01054 2.07468,-1.02533c0.97925,-0.01628 1.51074,-0.69807 2.36133,-0.97467c0.63245,-0.20567 1.62796,-0.53548 2.23868,-1.12534c0.61032,-0.58949 1.23465,-1.39957 2,-1.77866c0.84677,-0.41942 1.68207,-0.62585 2.37915,-1.12134c0.64621,-0.4593 1.34909,-0.58733 2.16367,-1.05716c0.68686,-0.39616 1.3313,-1.15044 1.95718,-1.5175c0.77151,-0.45248 1.65121,-0.8582 2.39999,-1.25867c0.79147,-0.42329 1.23032,-1.12698 1.64734,-1.86667c0.42004,-0.74501 0.98358,-1.1295 1.85266,-1.32083c0.84753,-0.18658 1.49966,-0.97951 2.10001,-1.57918c0.60098,-0.60033 1.27963,-1.2088 2.04816,-1.7c0.63736,-0.40735 1.25809,-1.26762 1.87268,-1.7c0.80264,-0.56465 1.57315,-0.92383 2.04318,-1.60001c0.56012,-0.80579 0.88531,-1.53835 1.51996,-2.116c0.64667,-0.58859 0.95483,-1.41756 1.62054,-1.92683c0.67749,-0.51831 1.28888,-0.98486 1.72083,-1.75716c0.45758,-0.81808 1.0166,-1.38559 1.77332,-1.88535c0.60889,-0.40215 0.60608,-1.44394 0.83734,-2.31467c0.23083,-0.86909 1.11914,-1.41983 1.77863,-1.78932c0.8382,-0.46964 0.9032,-1.1823 1.19604,-2c0.26385,-0.73671 0.59076,-1.32486 1.02533,-2.17467c0.35632,-0.69682 1.41003,-0.98364 1.87866,-1.72134c0.43915,-0.6913 0.3689,-1.67195 1.25201,-1.71466c0.83234,-0.04025 1.81183,0 2.63196,0c0.90137,0 1.80133,0 2.70135,0c0.90002,0 1.79999,0 2.70001,0c0.89996,0 1.79999,0 2.59998,0c0.90002,0 1.79999,0 2.70001,0c0.90002,0 1.79999,0 2.70001,0c0.89996,0 1.79999,0 2.59998,0c0.90002,0 1.76404,0 2.63599,0c0.96405,0 2.13293,-0.25465 2.52802,0.436c0.42938,0.7506 0.28278,1.94356 -0.32117,2.51132c-0.66071,0.62114 -1.47449,0.82552 -1.63831,1.75267c-0.15051,0.85176 -0.85876,1.34396 -1.00317,2.10133c-0.16833,0.88277 0.39685,1.90125 -0.03735,2.76266c-0.35229,0.69888 -1.41016,0.98358 -1.87866,1.72134c-0.43909,0.69148 0.23706,1.86845 -0.30664,2.59332c-0.4823,0.64304 -0.65472,1.32994 -0.77887,2.22118c-0.11169,0.80186 -0.87103,1.26538 -1.00116,2.10016c-0.1427,0.91533 -0.96478,1.24901 -1.64148,1.85268c-0.55304,0.49335 -0.35522,1.56694 -0.78253,2.34732c-0.45038,0.82256 -0.36578,1.72522 -0.57916,2.60901c-0.18317,0.75874 -0.91327,1.29604 -1.55951,2.00566c-0.54785,0.60158 -0.0929,1.66391 -0.45679,2.46451c-0.35144,0.77325 -0.96021,1.22551 -0.97919,2.12083c-0.02045,0.96445 -0.48944,1.58488 -1.16669,2.23332c-0.63129,0.6044 -0.74048,1.28261 -0.91864,2.052c-0.22552,0.97385 -0.74402,1.60667 -0.89386,2.59384c-0.13672,0.90039 -0.64917,1.43054 -1.21948,2.09016c-0.46844,0.54178 -0.69452,1.67827 -0.80151,2.53067c-0.11401,0.90814 -0.58636,1.49448 -0.99982,2.39999c-0.36316,0.79529 -0.72467,1.54254 -1.08398,2.3c-0.41052,0.86537 -1.03516,1.51135 -1.716,1.91466c-0.82715,0.48997 -1.76385,0.76118 -2.14734,1.58534c-0.35675,0.76669 -0.88501,1.47183 -1.04816,2.39999c-0.14972,0.85188 -0.49396,1.48489 -1.1712,2.13333c-0.63129,0.6044 -0.60474,1.38702 -1.11731,2.08267c-0.50903,0.69087 -1.44159,0.95793 -1.70532,1.69467c-0.29974,0.83736 0.10443,2.09326 -0.62134,2.37866c-0.80884,0.31805 -1.54944,0.44089 -2.10535,1.09467c-0.52228,0.61418 -1.02869,1.45375 -1.24799,2.31599c-0.22101,0.86876 -0.42358,1.61497 -1.06134,2.17467c-0.5896,0.51746 -0.49243,1.4192 -1.06,2.14c-0.5426,0.68907 -1.1413,0.82874 -1.79333,1.50667c-0.5575,0.57968 -0.87079,1.25238 -1.12585,2.07417c-0.23682,0.76308 -0.9848,1.31517 -0.99548,2.2045l0,0.89999l0,0.90001l-0.00134,0.89867" id="svg_1" stroke-width="2" stroke="#000" fill="none"/>
  <path t="9597,9772,9788,9804,9820,9828,9884,9892,9932,9964,9973,9996,10012,10044,10060,10124,10148,10148,10156,10172,10181,10204,10236,10236,10244,10276,10285,10308,10324,10348,10348,10380,10412,10468,10492,10500,10540,10566,10604,10676,10732,10788,10828,10932,11036,11036,11084,11108,11164,11212,11244,11292,11348,11396,11396,11436,11476,11484,11508,11524,11556,11588,11597,11660,11692,11700,11716,11756,11772,11780,11804,11836,11852,11860,11868,11892,11916,11924,11964,11964,11972,12004,12020,12036,12052,12084,12116,12132,12148,12180,12212,12220,12244,12260,12276,12276,12292,12308,12316,12324,12348,12372,12380,12396,12396,12420,12436,12436,12452,12468,12476,12484,12492,12492,12500,12508,12517,12524,12533,12540,12548,12548,12556,12557,12566,12566,12572,12582,12588,12588,12596,12596,12596,12604,12605,12605,12612,12620,12621,12621,12625,12625,12636,12636,12646,12652,12653,12662,12662,12668,12669,12669,12676,12685,12685,12692,12700,12701,12708,12708,12717,12717,12717,12724,12724,12732,12733,12740,12740,12741,12748,12748,12756,12764,12772,12773,12780,12780,12780,12788,12789,12796,12804,12805,12805,12820,12820,12829,12829,12836,12837,12845,12845,12852,12853,12862,12862,12869,12869,12870,12877,12886,12886,12893,12902,12902,12909,12910,12917,12925,12926,12933,12934,12941,12957,12957,12967,12973,12974,12982,12989,12990,12997,13005,13013,13021,13029,13037,13037,13046,13046,13053,13062,13063,13069,13070,13077,13086,13086,13093,13093,13101,13102,13109,13118,13118,13125,13125,13133,13134,13134,13141,13149,13157,13157,13165,13165,13173,13174,13181,13181,13189,13197,13205,13221,13221,13231,13231,13231,13245,13246,13253,13254,13263,13263,13279,13279,13285,13286,13293,13301,13316,13325,13334,13334,13341,13349,13357,13358,13363,13367,13373,13374,13384,13389,13401,13401,13406,13407,13417,13421,13429,13430,13437,13438,13438,13446,13446,13453,13454,13462,13462,13469,13469,13479,13479,13485,13486,13493,13494,13494,13509,13509,13509,13518,13518,13525,13526,13533,13534,13541,13549,13549,13557,13557,13565,13573,13581,13581,13589,13599,13605,13605,13617,13621,13629,13637,13637,13653,13662,13669,13679,13685,13709,13717,13725,13726,13734,13751,13757,13757,13765,13782,13797,13797,13805,13816,13816,13821,13837,13853,13853,13861,13869,13869,13885,13895,13895,13909,13925,13925,13933,13934,13941,13941,13949,13950,13957,13973,13973,13989,13989,14005,14021,14021,14032,14037,14048,14053,14062,14078,14078,14095,14095,14101,14101,14117,14125,14141,14149,14149,14157,14165,14173,14181,14189,14205,14215,14232,14233,14238,14245,14256,14261,14270,14286,14295,14302,14302,14311,14312,14325,14341,14341,14357,14357,14373,14373,14389,14389,14399,14405,14413,14413,14422,14437,14454,14469,14478,14478,14478,14494,14511,14517,14533,14541,14549,14549,14557,14565,14573,14581,14589,14605,14613,14622,14622,14638,14648,14661,14686,14694,14717,14726,14749,14773,14781,14781,14805,14813,14821,14831,14838,14838,14848,14849,14854,14865,14865,14870,14877,14894,14902,14902,14910,14927,14933,14949,14965,14973,14974,14997,15021,15029,15045,15061,15070,15070,15077,15102,15110,15118,15118,15133,15149,15157,15158,15173,15197,15205,15215,15221,15245,15257,15277,15285,15301,15310,15318,15341,15373,15381,15421,15437,15445,15449,15451,15477,15501,15517,15557,15573,15581,15581,15605,15621,15630,15637,15647,15653,15669,15677,15686,15709,15725,15749,15749,15750,15773,15781,15821,15853,15853,15869,15886,15909,15933,15941,15951,15965,15989,15989,15997,16037,16045,16069,16085,16086,16096,16117,16133,16181,16197,16229,16245,16269,16317,16341,16349,16358,16398,16445,16461,16480,16541,16549,16613,16622,16677,16853" d="m79,222c-1.2215,0.87849 -2.10438,0.91132 -3,1c-0.8457,0.08374 -0.67681,1.15442 -1.22134,1.87866c-0.48332,0.64285 -1.21411,1.10269 -2.07867,1.12134c-0.89846,0.01938 -1.60789,0.38507 -2.12533,0.97467c-0.5597,0.63774 -1.33972,0.98773 -2.07467,1.54616c-0.66391,0.50446 -1.21557,1.08727 -2.1,1.5045c-0.80473,0.37964 -1.08247,1.35446 -1.68533,1.89067c-0.65007,0.5782 -1.65173,0.56606 -2.3575,1.13667c-0.73106,0.59108 -1.49525,0.62527 -2.1905,1.114c-0.71591,0.50327 -1.22622,1.11829 -1.86667,1.48067c-0.82079,0.46442 -1.66963,0.78181 -2.1785,1.57416c-0.47918,0.74611 -0.62927,1.38716 -1.06433,2.13567c-0.42385,0.72922 0.19367,1.86269 -0.34117,2.55884c-0.48306,0.62875 -0.716,1.384 -0.716,2.284c0,0.90001 0,1.8 0,2.60001c0,0.89999 0,1.8 0,2.7c0,0.89999 0,1.8 0,2.7c0,0.90001 0,1.8 0,2.60001c0,0.89999 -0.35429,1.88377 0.02083,2.67915c0.33266,0.70535 1.67851,0.40759 1.9685,1.1315c0.35493,0.88605 0.56084,1.46356 1.04667,1.96402c0.57242,0.58966 1.47405,0.9079 2.2595,1.37265c0.66061,0.39087 1.27922,0.76053 2.09383,1.06335c0.73349,0.27267 1.32486,0.59076 2.17467,1.02533c0.69681,0.35632 1.23733,0.96332 2.136,0.96399c0.9,0.00067 1.89387,-0.06418 2.5,0.56799c0.48837,0.50934 1.12826,1.28305 1.77467,1.85733c0.63435,0.56357 1.01962,1.39276 1.82666,1.57333c0.87698,0.19623 1.59946,0.20157 2.28267,0.71735c0.61535,0.46454 1.64249,0.10028 2.516,0.32001c0.86282,0.21704 1.59697,0.92126 2.5,0.96399c0.89899,0.04251 1.7,0 2.6,0c0.9,0 1.8,0 2.7,0c0.9,0 1.8,0 2.7,0c0.9,0 1.7,0 2.65717,0c0.8955,0 1.59017,0 2.60683,0c0.936,0 1.836,0 2.736,0c0.9,0 1.7,0 2.6,0c0.9,0 1.8,0 2.7,0c0.9,0 1.8,0 2.70016,0c0.78516,0 1.73583,0 2.50117,0c0.99416,0 1.7415,0 2.76266,0c0.9405,0 1.80267,0 2.65684,0c0.97916,0 1.78983,0 2.6645,0c0.99733,0 1.79383,0 2.54533,0c1.11867,0 2.10267,0 2.77467,0c0.744,0 1.8515,0 2.70667,0c0.99783,0 1.63984,0 2.66267,0c0.94684,0 1.83601,0 2.82533,0c0.8,0 1.8,0 2.58934,0c0.72533,0 1.71066,0 2.69466,0c0.69067,0 1.76334,0 2.68268,0c0.83333,0 1.66666,0 2.49466,0c0.8815,0 1.8595,0 2.65601,0c0.99733,0 1.87199,0 2.88266,0c0.8,0 1.8,0 2.60001,0c0.8,0 1.7955,0 2.54283,0c1.02116,0 1.85851,0 2.82384,0c0.66933,0 1.83333,0 2.63333,0c0.8,0 1.7955,0 2.54283,0c0.9045,0 1.82384,0 2.69884,0c0.64499,0 1.90649,0 2.69699,0c0.92801,0 1.74051,0 2.74667,0c0.72533,0 1.71449,0 2.49384,0c0.9995,0 1.7735,0 2.6825,0c0.8,0 1.75951,0 2.55299,0c1.01601,0 1.97101,0 2.88551,0c0.78516,0 1.72516,0 2.73315,0c0.79201,0 1.65067,0 2.51401,0c0.89999,0 1.81934,0 2.65266,0c0.9785,0 1.79866,0 2.75717,0c0.89549,0 1.59016,0 2.61749,0c0.94667,0 1.8,0 2.74001,0c0.88533,0 1.68533,0 2.58533,0c0.90001,0 1.8,0 2.7,0c0.90451,0 1.76668,0 2.60001,0c0.9785,0 1.79866,0 2.75717,0c0.89999,0 1.64732,0 2.64149,0c0.76534,0 1.84416,0 2.70151,0c0.78516,0 1.73582,0 2.50116,0c0.99417,0 1.7415,0 2.77333,0c0.94684,0 1.836,0 2.82533,0c0.8,0 1.8,0 2.58934,0c0.72533,0 1.68983,0 2.62132,0c0.91084,0 1.8,0 2.78917,0c0.77934,0 1.6335,0 2.55284,0c0.89999,0 1.59467,0 2.61133,0c0.936,0 1.83734,0 2.80267,0c0.66933,0 1.83333,0 2.63333,0c0.8,0 1.8,0 2.59999,0c0.99867,0 1.76401,0 2.716,0c0.76801,0 1.72,0 2.48534,0c0.99417,0 1.7415,0 2.76266,0c0.936,0 1.83467,0 2.80267,0c0.83333,0 1.63333,0 2.53333,0c0.936,0 1.784,0 2.64734,0c1.006,0 1.82199,0 2.65266,0c1.01468,0 1.80133,0 2.75717,0c0.89999,0 1.64734,0 2.64151,0c0.76532,0 1.84415,0 2.70132,0c0.89999,0 1.71432,0 2.66934,0c0.7515,0 1.54797,0 2.54532,0c0.87466,0 1.88516,0 2.66449,0c0.99951,0 1.7735,0 2.67801,0c0.94415,0 1.94284,0 2.74283,0c1,0 1.80002,0 2.80017,0c0.6105,0 1.48517,0 2.48383,0c0.81601,0 1.63202,0 2.63068,0c0.87466,0 1.88516,0 2.66449,0c0.99933,0 1.81952,0 2.77802,0c0.89999,0 1.64734,0 2.64151,0c0.76532,0 1.84415,0 2.70132,0c0.89999,0 1.69998,0 2.60001,0c0.93597,0 1.784,0 2.64731,0c1.01669,0 1.85269,0 2.75269,0c0.89999,0 1.69998,0 2.60001,0c0.89999,0 1.79999,0 2.69998,0c0.89999,0 1.80002,0 2.70001,0c0.89999,0 1.69998,0 2.60001,0c0.93597,0 1.784,0 2.64731,0c1.01669,0 1.85269,0 2.75284,0c0.78519,0 1.72519,0 2.73318,0c0.75598,0 1.66666,0 2.57733,0c0.91064,0 1.76398,0 2.70398,0c0.88535,0 1.68533,0 2.64252,0c0.89551,0 1.59015,0 2.61749,0c0.94666,0 1.79999,0 2.74133,0c0.76801,0 1.72,0 2.48532,0c0.99417,0 1.74152,0 2.77335,0c0.94666,0 1.79999,0 2.74133,0c0.76801,0 1.70935,0 2.71735,0c0.75598,0 1.66666,0 2.56665,0c0.89999,0 1.80002,0 2.70001,0c0.89999,0 1.65717,0 2.55716,0c0.94415,0 1.93832,0 2.68567,0c1.02118,0 1.85718,0 2.75717,0c0.89999,0 1.69998,0 2.60001,0c0.89999,0 1.79999,0 2.69998,0c0.89999,0 1.80002,0 2.70001,0c0.89999,0 1.69998,0 2.60001,0c0.89999,0 1.79999,0 2.69998,0c0.89999,0 1.80002,0 2.70001,0c0.89999,0 1.65717,0 2.55267,0c0.86331,0 1.86322,0.03568 2.66882,-0.22134c0.91153,-0.2908 1.67169,-0.66336 2.46783,-0.74265c1.03949,-0.10352 1.85199,-0.02216 2.69467,-0.32001c0.88312,-0.31216 1.75739,-0.68741 2.616,-0.716c0.89951,-0.02997 1.69998,0 2.73334,0c0.77731,0 1.71371,0.07483 2.47116,-0.35718c0.93417,-0.53281 1.49542,-1.09277 2.21149,-1.35748c0.93686,-0.34634 1.884,-0.28534 2.784,-0.28534c0.90002,0 1.80002,0 2.70001,0c0.79999,0 1.70001,0 2.60001,0c0.89999,0 1.79999,0 2.69998,0c0.90002,0 1.8013,0.04779 2.70001,0c0.80338,-0.04272 1.42236,-0.68619 2.29999,-0.94284c0.8656,-0.25311 1.80685,0.05362 2.70001,-0.05716c0.89923,-0.11151 1.28235,-0.95728 2.20001,-1c0.89902,-0.04184 1.79999,0 2.59998,0c0.90002,0 1.80005,0.00528 2.70001,0c0.91074,-0.00534 1.81851,-0.2283 2.5,-0.5c0.97455,-0.38852 1.6955,-0.49774 2.63599,-0.5c0.84802,-0.00201 1.71133,0 2.72803,0c0.836,0 1.73599,0 2.63599,0c0.79999,0 1.70007,0.01041 2.60001,0c0.90018,-0.01044 1.7179,-0.58914 2.5,-0.87851c0.85175,-0.31512 1.69998,-0.12149 2.60001,-0.12149c0.89999,0 1.74298,-0.1709 2.40982,-0.64734c0.66354,-0.47406 1.72357,-0.34402 2.47949,-0.35266c0.91086,-0.01044 1.75693,-0.52179 2.51068,-0.87866c0.85406,-0.40436 1.49448,-0.70789 2.39999,-1.12134c0.79529,-0.36313 1.63324,-0.78806 2.29999,-1.08401c0.85779,-0.38077 1.63913,-0.65558 2.49551,-0.92047c0.76331,-0.23608 1.38812,-0.6665 2.18365,-1.01636c0.71204,-0.31314 1.22543,-0.96631 2.12085,-0.97916c0.8793,-0.01262 0.95905,-0.73724 1.436,-1.564c0.39761,-0.68919 1.564,-0.436 2.46399,-0.436c0.89999,0 1.79999,0 2.70001,0c0.89981,0 1.81656,0.17432 2.60132,-0.08533c0.77133,-0.2552 1.49731,-0.886 2.39868,-0.91467c0.89954,-0.02863 1.75827,-0.23395 2.5,-0.64734c0.76367,-0.42563 1.50327,-0.89584 2.39999,-1.23116c0.85065,-0.31808 1.44757,-0.56766 2.18533,-1.03618c0.69147,-0.43912 1.86847,0.23705 2.59332,-0.30666c0.64304,-0.48232 1.34457,-0.6823 2.28799,-0.94534c0.68167,-0.19006 1.36795,-0.49254 2.3125,-0.83333c0.84036,-0.30321 1.61923,-0.89108 2.52084,-1c0.79871,-0.0965 1.53775,-0.74469 2.39999,-0.964c0.86877,-0.22096 1.34189,-0.5121 1.60449,-1.3315c0.24283,-0.75772 1.35214,-0.56793 2.19553,-0.98849c0.66162,-0.32993 1.22824,-1.08571 2.02148,-1.5945c0.74637,-0.47873 1.52875,-0.40344 1.94516,-1.12151c0.42047,-0.72507 1.50714,-0.66687 2.3125,-1.02083c0.7121,-0.31297 1.22543,-0.96631 2.12085,-0.97917c0.8793,-0.01262 1.5589,-0.51804 2.116,-1.084c0.66064,-0.67113 1.02283,-1.52432 1.72,-1.88c0.76645,-0.39104 1.23645,-0.53279 1.57468,-1.42532c0.27728,-0.73175 0.90604,-1.42264 1.51016,-1.61067c0.82932,-0.25813 1.50449,-0.57466 2.1265,-1.05267l0.35132,-0.74866l0.00134,-0.89867" id="svg_2" stroke-width="2" stroke="#000" fill="none"/>
  <path t="29351,29453,29469,29481,29481,29495,29511,29511,29517,29518,29525,29525,29534,29542,29542,29550,29558,29566,29566,29574,29582,29590,29590,29598,29606,29606,29614,29614,29622,29622,29630,29637,29637,29637,29646,29646,29654,29654,29662,29662,29662,29670,29678,29678,29686,29702,29702,29711,29718,29718,29718,29728,29728,29733,29734,29742,29742,29750,29750,29758,29758,29758,29766,29766,29774,29774,29782,29782,29790,29790,29798,29805,29806,29814,29822,29822,29830,29830,29838,29838,29846,29846,29853,29854,29862,29862,29869,29870,29878,29878,29885,29886,29894,29901,29902,29902,29910,29918,29927,29928,29928,29933,29942,29942,29950,29950,29958,29966,29966,29974,29974,29974,29982,29982,29990,29990,29990,29998,29998,29998,30006,30006,30014,30014,30022,30022,30022,30030,30038,30038,30046,30046,30054,30054,30062,30070,30070,30078,30086,30086,30094,30094,30102,30102,30110,30127,30127,30134,30134,30142,30142,30150,30166,30166,30173,30174,30190,30190,30198,30198,30198,30205,30213,30221,30229,30229,30237,30238,30245,30261,30277,30277,30293,30317,30551,30662,30670,30670,30678,30678,30678,30686,30686,30699,30699,30702,30703,30703,30710,30711,30711,30718,30719,30727,30727,30727,30734,30735,30735,30743,30743,30750,30760,30760,30767,30767,30790,30806,30814,30832,30838,30838,30854,30854,30863,30864,30870,30870,30878,31374,31382,31414,31438,31438,31454,31470,31486,31510,31510,31526,31542,31558,31567,31576,31583,31591,31599,31615,31623,31623,31631,31639,31655,31664,31665,31670,31679,31679,31687,31687,31703,31719,31719,31730,31735,31735,31743,31751,31767,31776,31791,31807,31807,31830,31830,31839,31839,31854,31871,31886,31887,31895,31903,31903,31910,31911,31918,31935,31935,31943,31951,31951,31959,31967,31976,31976,31983,31992,32007,32007,32022,32031,32031,32031,32048,32055,32064,32065,32071,32078,32086,32094,32095,32103,32114,32119,32119,32129,32130,32134,32150,32150,32159,32167,32176,32176,32183,32192,32192,32200,32200,32207,32223,32223,32232,32232,32232,32238,32247,32255,32262,32271,32294,32294,32311,32327,32342,32343,32359,32374,32383,32399,32423,32431,32455,32463,32480,32510,32510,32542,32574,32575,32607,32618,32647,32750,32790,32815,32950,32974,32999,33078,33127,33166" d="m221,217c1.7,-0.05716 2.48029,-0.54179 3.2,-1.19867c0.5845,-0.53348 1.45383,-0.77431 2.28534,-1.08667c0.74417,-0.27956 1.70685,-0.83063 2.304,-1.10399c1.03154,-0.47221 1.78609,-0.58052 2.25233,-1.1315c0.55489,-0.65575 1.27898,-1.23912 2.20116,-1.42201c0.84268,-0.16713 1.72891,-0.26886 2.35718,-0.63182c0.84567,-0.48857 1.36145,-1.14685 2.10983,-1.72084c0.57919,-0.44423 1.53716,-0.65291 2.45683,-0.7045c0.83305,-0.04672 1.69478,-0.30719 2.3125,-1c0.65163,-0.73085 1.33894,-1.05417 2.04166,-1.52083c0.82321,-0.54668 1.49809,-0.98289 2.08051,-1.27917c0.99545,-0.50639 1.79456,-0.90831 2.59866,-1.29984c0.79604,-0.3876 1.80696,-0.7014 2.57867,-0.8855c0.65771,-0.15691 0.97446,-1.22993 1.66417,-1.77167c0.60938,-0.47864 1.85443,-0.09366 2.65717,-0.46432c0.66809,-0.30849 1.45084,-0.7406 2.44266,-1.00017c0.7157,-0.1873 1.50153,-0.39066 2.48666,-0.9785c0.58356,-0.34822 1.21777,-1.21475 1.94135,-1.51466c0.97968,-0.40607 1.80447,-0.19376 2.69598,-0.45201c0.85132,-0.24661 1.63477,-0.97276 2.35419,-1.3125c0.56644,-0.2675 1.59903,-0.35396 2.49384,-0.60483c0.89868,-0.25195 1.34955,-0.82329 2.14249,-1.56416c0.54041,-0.50491 1.54865,-1.08904 2.30118,-1.33101c0.8801,-0.283 1.15814,-1.23662 1.74615,-1.66367c0.72098,-0.52361 1.79779,-0.60625 2.47015,-0.96783c0.82889,-0.44574 1.41461,-1.0592 2.31067,-1.30533c0.89612,-0.24614 1.73816,-0.25002 2.49384,-0.60483c0.88654,-0.41626 1.49234,-1.02028 2.34216,-1.57918c0.6582,-0.43288 1.5405,-0.86523 2.15784,-1.39999c0.75949,-0.6579 1.25531,-1.22031 2.17352,-1.44733c0.84851,-0.20979 1.69873,-0.52283 2.51398,-1.05267c0.64157,-0.41696 1.37616,-0.63371 2.42267,-1.02533c0.7384,-0.27632 1.55984,-1.00591 2.23602,-1.364c0.67468,-0.35728 1.70352,-0.51271 2.47916,-0.96783c0.63065,-0.37004 1.31778,-1.00777 2.21149,-1.3575c0.83548,-0.32695 1.81332,-0.48921 2.50485,-0.80617c0.991,-0.45421 1.57913,-0.77924 2.37915,-1.17917c0.79999,-0.3999 1.57559,-0.85767 2.60001,-1.13333c0.79648,-0.21432 1.48538,-0.20393 2.42117,-0.60951c0.82309,-0.35674 1.3327,-0.72127 2.24548,-1.39049c0.82669,-0.60609 1.66357,-1.00775 2.35419,-1.1875c0.99469,-0.2589 1.5571,-0.70746 2.32199,-1.27383c0.75519,-0.55919 1.62173,-0.93341 2.29315,-1.28c0.81229,-0.41931 1.74518,-0.39101 2.61136,-0.778c0.66928,-0.29901 1.61603,-0.47922 2.586,-0.81401c0.68698,-0.23712 1.49173,-0.71165 2.33331,-1c0.83847,-0.28729 1.48465,-1.00749 2.00134,-1.63333c0.57864,-0.70087 1.11633,-1.14822 1.88266,-1.76399c0.71585,-0.5752 1.57816,-0.43835 2.54483,-0.79317c0.77365,-0.28397 1.45157,-0.94614 2.20319,-1.3575c0.78342,-0.42879 1.70593,-0.53015 2.37598,-0.89601c0.97476,-0.53224 1.55511,-1.12463 2.31067,-1.58932c0.70557,-0.43394 1.50769,-0.81451 2.30402,-1.18933c0.71927,-0.33855 1.80151,-0.42242 2.50616,-0.96783c0.7468,-0.57805 1.04303,-1.45444 1.88983,-1.66817c0.93567,-0.23616 1.45728,-0.73816 2.21466,-1.364c0.65833,-0.54398 1.63824,-0.43712 2.39999,-0.696c0.88794,-0.30176 1.59946,-0.89667 2.49551,-0.91467c0.92581,-0.0186 1.80484,0 2.51883,0c0.95502,0 1.70651,0 2.50299,0c1.22552,0 2.07819,0 3.08401,0c0.61951,0 1.76532,0 2.55133,0c0.82199,0 1.88068,0 2.59018,0c0.85266,0 1.85849,0 2.69315,0c0.93066,0 1.71667,0 2.53867,0c1.05869,0 1.98935,0 2.82401,0c0.99683,0 1.74417,0 2.64868,0c0.91931,0 1.75266,0 2.73114,0c0.82019,0 1.72153,0 2.62152,0c0.89999,0 1.82852,0.062 2.60266,-0.284c0.80447,-0.35954 1.56784,-0.61147 2.54666,-0.74133c0.92007,-0.12209 1.68588,-0.59372 2.57199,-0.85316c0.65848,-0.19279 1.66214,-0.22217 2.67868,-0.12151c0.8457,0.08374 0.66846,0.81342 -0.10001,1.22133c-0.64996,0.34502 -1.34906,0.9079 -1.98401,1.49467c-0.69168,0.63921 -0.95224,1.4209 -1.62048,1.92683c-0.69522,0.52637 -1.49878,0.90034 -2.39551,1.23566c-0.85065,0.31808 -1.52557,0.46252 -2.18399,1.03618c-0.58734,0.51172 -0.39282,1.36493 -0.9375,1.96399c-0.63437,0.69769 -1.60269,0.56184 -2.3425,1.14667c-0.67822,0.53615 -1.16547,1.19083 -1.60266,1.97467c-0.36359,0.65189 -1.13333,1.3 -1.83334,2c-0.5,0.5 -1.11844,1.31253 -1.79999,1.71466c-0.76813,0.4532 -1.67099,0.60202 -2.54733,0.93268c-0.88361,0.3334 -1.86661,0.47047 -2.2955,1.05716c-0.55521,0.75946 -1.08841,1.11053 -1.95718,1.3315c-0.86224,0.21931 -1.65598,0.7485 -2.50015,1.1855c-0.5881,0.30444 -1.3902,0.96773 -2.07449,1.37851c-0.81155,0.48718 -1.52121,1.04199 -2.32535,1.39999c-0.80035,0.35632 -1.42712,1.08931 -2.10001,1.564c-0.7348,0.51836 -1.58435,0.74464 -2.28534,1.23734c-0.74561,0.52405 -1.3136,0.9928 -2.11465,1.67784c-0.64624,0.55264 -1.58905,0.46671 -2.36401,0.95683c-0.83768,0.5298 -1.2283,1.14423 -2.13599,1.564c-0.79352,0.36697 -1.64139,0.77036 -2.29999,1.084c-0.8378,0.39897 -1.07095,1.49925 -1.90985,1.86333c-0.5968,0.259 -1.6467,0.51503 -2.45682,1.05267c-0.63449,0.4211 -1.13757,0.90918 -1.8815,1.64284c-0.57355,0.56563 -1.14136,1.15248 -1.75183,1.78917c-0.60614,0.63216 -1.6105,0.43529 -2.5,0.57249c-0.9314,0.14368 -1.53214,0.63565 -2.40002,1.04817c-0.83716,0.39792 -1.31326,1.17407 -2.05716,1.59016c-0.82178,0.45964 -1.54434,0.61018 -2.3255,1.07317c-0.82608,0.48961 -1.71219,0.37808 -2.41733,0.784c-0.79434,0.45728 -1.71951,0.7635 -2.29999,1.30133c-0.62173,0.57607 -1.26782,1.33577 -1.836,1.79868c-0.8045,0.65546 -1.60141,0.90659 -2.25867,1.7c-0.52701,0.63617 -1.14423,1.20535 -2.10535,1.7c-0.58932,0.3033 -1.2471,0.73611 -1.97916,1.47917c-0.56711,0.57562 -1.11395,1.20903 -1.87152,1.4955c-0.96158,0.36362 -1.33798,1.15332 -1.85382,1.72533c-0.65579,0.7272 -1.461,1.02336 -2.2955,1.46667c-0.63391,0.33675 -0.86768,1.53781 -1.61066,1.82266c-0.81146,0.31111 -1.38324,0.8033 -2.09384,1.00616c-0.90421,0.25815 -1.46216,0.83783 -2.2955,1.0045c-0.83334,0.16667 -1.12653,1.03189 -1.61066,1.60001c-0.63519,0.74536 -1.26663,1.39215 -1.388,2.2c-0.13651,0.90855 -1.05698,0.87427 -1.71735,1.28532c-0.79855,0.49707 -1.02283,1.52299 -1.72,1.87868c-0.76645,0.39104 -1.564,0.536 -2.13867,1.06133l-0.50934,0.69067l-0.71732,0.28267l-0.89868,0.00133" id="svg_4" stroke-width="2" stroke="#000" fill="none"/>
  <path t="35351,35598,35598,35616,35621,35623,35630,35639,35639,35646,35654,35654,35662,35670,35670,35678,35678,35688,35694,35700,35710,35718,35718,35734,35734,35742,35742,35750,35750,35758,35766,35766,35774,35774,35774,35782,35782,35782,35790,35790,35798,35798,35806,35806,35814,35814,35822,35822,35830,35830,35830,35838,35838,35838,35846,35846,35846,35854,35854,35862,35863,35863,35863,35870,35870,35878,35878,35879,35887,35888,35888,35894,35894,35894,35902,35902,35902,35902,35902,35910,35910,35910,35918,35918,35926,35926,35926,35934,35934,35942,35942,35942,35950,35950,35950,35959,35959,35966,35966,35975,35975,35975,35982,35982,35982,35992,35992,35998,35999,35999,36006,36006,36006,36014,36014,36014,36022,36022,36030,36031,36031,36042,36042,36046,36047,36054,36054,36062,36062,36070,36071,36078,36078,36087,36088,36088,36094,36104,36104,36113,36113,36113,36118,36118,36127,36127,36127,36134,36134,36134,36142,36143,36150,36150,36150,36159,36159,36166,36166,36174,36182,36182,36190,36190,36190,36198,36214,36222,36246,36246,36254,36254,36254,36262,36270,36278,36278,36294,36326,36342,36342,36350,36350,36358,36375,36382,36387,36414,36426,36431,36442,36462,36478,36494,36518,36534,36542,36590,36598,36686,36702,36726,36742,36758,36758,36766,36775,36790,36822,36822,36830,36838,36862,36878,36894,36903,36903,36919,36958,36974,36982,37086" d="m216,246c1.16667,1 1.39911,1.70926 2,2.47917c0.48958,0.62729 1.56958,0.40938 2.3,0.87799c0.79991,0.5132 1.13419,1.32733 1.68533,2.03217c0.48442,0.61949 1.40596,0.5649 2.25749,0.96333c0.911,0.42627 1.61688,0.7691 2.15717,1.50867c0.45325,0.62042 0.95509,1.55789 1.69984,2.01733c0.77455,0.47781 1.11856,0.95438 1.90016,1.28799c0.71338,0.3045 1.49036,1.02255 2.17467,1.43335c0.81175,0.4873 1.43217,1.02734 2.308,1.60001c0.64307,0.42047 1.1736,1.21298 1.96033,1.67883c0.6879,0.40732 1.58496,0.4144 2.35701,0.98248c0.62421,0.45929 1.38625,1.13943 2,1.50269c0.78351,0.46371 1.80743,0.91437 2.364,1.23599c0.97432,0.56302 1.5705,1.12769 2.31999,1.60001c0.67525,0.42554 1.48286,0.91565 2.14134,1.39999c0.84532,0.62177 1.6097,1.0014 2.37466,1.56665c0.62102,0.45886 1.17278,1.04251 2,1.66669c0.58191,0.43909 1.42052,0.89148 2.2,1.48782c0.61702,0.47205 1.15277,1.0668 2.2,1.51218c0.77222,0.32843 1.63101,0.63531 2.20001,1.22916c0.63654,0.66434 0.9455,1.22952 1.79999,1.96817c0.56671,0.48987 1.60864,1.12552 2.20001,1.62201c0.60907,0.51135 1.39172,1.19293 2,1.59467c0.78955,0.52145 1.60077,1.07364 2.22131,1.58865c0.45099,0.3743 1.50137,1.18158 2.14801,1.56134c0.6813,0.40015 1.40311,0.76413 2.14801,1.03198c1.04486,0.37573 2.04318,0.44373 2.86383,0.67603c0.90329,0.25568 1.43005,0.97824 2.18549,1.728c0.44904,0.44565 1.19684,0.76114 2.21869,1.16266c0.59445,0.23358 1.37839,0.86255 2.1355,1.504c0.5271,0.44659 1.5484,1.15906 2.23248,1.41333c0.75092,0.27914 1.46359,0.82166 1.99933,1.43851c0.69357,0.79858 1.47253,1.21729 2.08069,1.81482c0.60721,0.59659 1.09293,1.36478 1.936,1.66534c0.72534,0.25858 1.60001,0.22546 2.54398,0.73734c0.69214,0.37531 1.48773,1.29977 2.07202,1.79468c0.55548,0.47052 1.38843,0.82712 2.1355,1.15683c0.80136,0.35364 1.79089,0.96579 2.45831,1.45831c0.61682,0.45517 1.6312,0.88004 2.22086,1.0715c1.02158,0.33173 1.55469,0.8681 2.39999,1.38135c0.763,0.46329 1.60245,0.47214 2.51599,0.85199c0.81363,0.33832 1.74603,0.61508 2.48532,0.88535c0.83783,0.30627 1.37982,0.8494 2.23203,1.664c0.5426,0.51865 1.33136,1.01031 2.1875,1.16666c0.97708,0.17844 1.79309,0.39078 2.49384,0.80133c0.76251,0.44675 1.66092,0.99744 2.31067,1.18399c1.02496,0.29428 1.50824,0.91006 2.05865,1.53201c0.56171,0.6347 1.3269,1.0715 2.31601,1.58282c0.60013,0.31024 1.42075,0.75842 2.19998,1.38385c0.61716,0.49536 1.17764,1.06305 2,1.63199c0.77994,0.53958 1.60776,1.04123 2.1955,1.53217c0.57626,0.48138 1.37927,1.1196 2.15717,1.39999c0.8912,0.32123 1.67825,0.75296 2.24734,1.45184c0.57092,0.70111 1.24368,1.10461 2,1.66666c0.61465,0.45679 1.2475,1.29596 2.11465,1.66269c0.83044,0.3512 1.57831,0.616 2.32834,1.04932c0.68582,0.39621 1.77045,0.30856 2.34634,0.55734c0.74554,0.32208 1.51874,1.05493 2.41068,1.47998c0.858,0.40887 1.44608,0.84836 2.19998,1.47336c0.65744,0.54504 1.69382,0.3685 2.39999,0.78131c0.78293,0.45767 0.87772,1.51099 1.80002,1.80801c0.8569,0.27597 1.77917,0.04303 2.38931,0.59601c0.50247,0.45538 0.95187,1.18475 1.71518,1.42084c0.85638,0.26489 1.71155,0.42273 2.21149,1.20316c0.46667,0.72845 1.37372,0.65256 2.03134,1.15399c0.67685,0.51608 1.19104,1.09671 1.76868,1.73135c0.58856,0.64667 1.43802,0.59332 2.16266,1.13733c0.64371,0.48325 1.16589,1.08972 1.92133,1.49466c0.75598,0.40524 1.55035,0.80139 2.40002,1.19998c0.86041,0.40363 1.4563,0.88254 2.39999,1.07333c0.86227,0.17432 1.25134,0.74185 1.836,1.40002c0.61624,0.69376 1.5217,0.84564 2.26401,1.258c0.8244,0.45795 1.2955,1.05716 1.336,1.91666l0.67999,0.52002l0.45065,0.74933" id="svg_5" stroke-width="2" stroke="#000" fill="none"/>
  <path t="38279,38398,38407,38422,38422,38438,38447,38447,38448,38470,38486,38495,38510,38526,38526,38535,38542,38542,38551,38568,38582,38583,38590,38591,38598,38598,38607,38607,38614,38630,38638,38646,38654,38662,38670,38670,38678,38686,38686,38694,38694,38702,38710,38710,38718,38718,38718,38726,38726,38734,38734,38742,38742,38742,38750,38750,38758,38758,38768,38774,38774,38782,38798,38798,38806,38806,38814,38814,38822,38822,38830,38830,38838,38838,38838,38846,38846,38854,38854,38862,38862,38870,38870,38886,38886,38894,38902,38910,38910,38918,38918,38926,38934,38942,38950,38958,38967,38967,38983,38991,38991,38998,39006,39006,39014,39030,39030,39046,39046,39056,39062,39070,39070,39102,39118,39126,39134,39142,39150,39158,39158,39182,39182,39198,39206,39223,39230,39230,39238,39246,39262,39270,39278,39278,39288,39294,39305,39305,39349,39358,39374,39383,39390,39398,39406,39414,39422,39430,39462,39474,39474,39494,39518,39526,39550,39558,39590,39598,39638,39654,39654,39694,40509" d="m291,241c0.03601,2.58934 0.42682,3.40881 1.10001,4.10001c0.49335,0.50656 1.20749,1.19258 1.89999,1.89999c0.48447,0.49487 0.81274,1.49649 1.284,2.00133c0.55301,0.59244 1.30203,0.88159 2.01599,1.35583c0.79166,0.52586 1.267,1.27788 1.90002,1.84151c0.76266,0.67906 1.466,0.91255 1.884,1.60266c0.50616,0.83563 1.24084,1.29276 1.91599,1.69867c0.9837,0.59143 1.57657,1.11328 2.20132,1.70001c0.54498,0.51181 1.50378,1.02051 2.08884,1.5c0.73199,0.59991 1.33603,1.12833 2.00534,1.65717c0.74094,0.58542 0.27023,1.87524 0.87115,2.47617c0.60092,0.60092 1.68872,0.17603 2.43335,0.77731c0.65506,0.52896 1.20877,1.26898 1.69998,2.03751c0.40738,0.63736 1.20084,1.18915 1.90134,1.92117c0.52124,0.54471 1.09683,1.44244 1.63467,1.79468c0.7363,0.48218 1.57968,0.80505 2.328,1.23599c0.97577,0.56192 1.46051,1.03683 2.1575,1.72131c0.51389,0.50467 1.25558,1.22839 2.07718,1.79333c0.56479,0.38837 1.38901,0.95239 2.19064,1.44934c0.77237,0.47882 1.63022,0.69946 2.21066,1.23734c0.72543,0.67224 1.2605,1.34525 1.95718,1.89868c0.69077,0.54877 1.45453,0.84488 2.22131,1.39999c0.75732,0.54825 1.26923,1.31323 1.99219,1.61465c0.97977,0.40848 1.84387,0.1835 2.69598,0.61868c0.75528,0.38571 1.15054,1.24808 2.16934,1.60532c0.73489,0.25769 1.8483,0.293 2.44968,0.823c0.67865,0.59811 0.698,1.68185 1.42416,2.133c0.72415,0.44986 1.47348,0.86157 1.98566,1.40002c0.728,0.76535 1.61832,1.04776 2.3045,1.70532c0.51053,0.48926 1.12411,1.30304 1.79999,1.71466c0.84247,0.51309 0.80594,1.21777 1.28534,2c0.44321,0.72318 1.16412,1.27191 1.91467,1.952c0.55392,0.50192 1.22275,1.05115 2,1.5c0.62158,0.35895 0.89404,1.26981 1.2215,2.15451c0.3143,0.84909 1.01852,1.42679 1.7785,1.84549c0.67935,0.37427 1.51801,0.98044 2.13867,1.43335c0.73914,0.53937 1.28522,1.2139 2.06134,1.68533c0.67636,0.41083 1.09705,1.31207 2,1.62933c0.85275,0.29962 1.53918,0.52991 2.15717,1.03265c0.70346,0.57227 1.18192,1.24136 1.72684,1.76733c0.69028,0.66629 1.71133,0.37857 2.41599,0.78534c0.79041,0.45627 1.38852,1.09558 2.20532,1.44733c0.67914,0.29245 0.92972,0.96509 1.35184,1.6955c0.46857,0.81076 1.28705,1.14764 2.04285,1.57867c0.6691,0.38156 1.30899,1.16516 1.77884,1.87833c0.47473,0.72058 1.56354,0.6019 2.04916,1.33618c0.47824,0.72314 -0.19196,2.1098 0.42917,2.50684c0.7923,0.50647 1.63644,0.4657 2.14282,1.05716c0.50891,0.59442 0.50623,1.60757 1.2045,2.05267c0.66965,0.42685 1.5347,0.93399 2.01016,1.66199c0.46094,0.70572 0.73456,1.52414 1.36935,2.00134c0.76654,0.57626 1.74933,0.45065 1.91599,1.284c0.16666,0.83334 0.91599,1.28534 1.2215,2.09982l0.57983,0.61484l0.84149,0.33801l0.35718,0.78067" id="svg_6" stroke-width="2" stroke="#000" fill="none"/>
  <path t="41566,42845,42853,42863,42870,42870,42879,42886,42886,42894,42894,42909,42917,42926,42941,42942,42949,42965,42989,42998,43013,43029,43045,43054,43054,43070,43079,43086,43101,43118,43126,43126,43133,43142,43149,43166,43166,43181,43189,43189,43198,43213,43277,43301,43309,43357,43358,43445,43469,43594,43845,43885,43893,43911,43934,43949,43965,43974,43981,43990,43997,44013,44029,44061,44070,44085,44101,44111,44134,44157,44181,44205,44213,44237,44261,44293,44293,44333,44357,44373,44397,44413,44461,44501,44510,44527,44565,44574,44597,44605,44625,44637,44645,44701,44710,44750,44774,44798,44829,44901,44901,44918,44942,44950,44965,44974,44982,45006,45014,45046,45062,45077,45086,45118,45126,45158,45174,45230,45270,45278" d="m375,347c0.80133,0 1.68857,0.07907 2.52084,0.5c0.79016,0.3996 1.65829,0.40872 2.59381,0.50134c0.89627,0.08875 1.48132,0.69852 2.36935,0.91333c0.84277,0.20386 1.75882,0.08533 2.716,0.08533c0.89999,0 1.79999,0 2.59998,0c0.90002,0 1.80002,0 2.70001,0c0.89999,0 1.79999,-0.00009 2.70001,0c0.89999,0.00009 1.76666,0.22058 2.39999,0.57468c0.86124,0.48151 1.79999,0.42532 2.69998,0.42532c0.90002,0 1.80002,0 2.70001,0c0.79999,0 1.70657,0.04553 2.5,0.5c0.70599,0.40439 1.60016,0.5 2.38535,0.5c0.94,0 1.948,0 2.70398,0c0.91068,0 1.81067,0 2.71066,0c0.90002,0 1.80002,0 2.70001,0c0.79999,0 1.70001,0 2.60001,0c0.96399,0 1.40063,-0.436 1.39999,-1.29999c-0.00067,-0.89868 -0.36212,-1.63644 -1,-2.20001c-0.5835,-0.5155 -0.52994,-1.36417 -1.05716,-2.14282c-0.46246,-0.68301 -1.733,-0.36041 -1.9415,-1.15851c-0.22763,-0.87134 -0.46176,-1.72226 -0.94867,-2.49417c-0.44308,-0.70242 -1.13675,-1.11902 -1.70001,-1.75717c-0.52554,-0.5954 -0.95984,-1.43051 -1.638,-1.862c-0.77505,-0.49316 -1.81906,0.00336 -2.71466,-0.08533c-0.8457,-0.08374 -1.33109,-0.81427 -2.10001,-1.22134c-0.75751,-0.40103 -1.62222,-0.62589 -2.28934,-1.21466c-0.69489,-0.61328 -0.99289,-1.3533 -1.80933,-1.56534c-0.80045,-0.20789 -1.24792,-1.05246 -1.82666,-1.57333c-0.63788,-0.5741 -1.14569,-1.23813 -1.97467,-1.42532c-0.88385,-0.19958 -1.379,-0.8092 -1.96399,-1.42532c-0.48026,-0.50583 -0.84595,-1.23813 -1.55685,-1.55383c-0.87668,-0.38931 -1.42279,-0.77249 -2.18365,-1.01636c-0.89548,-0.28702 -1.34732,-0.86087 -2.2955,-1.00449c-0.79095,-0.11981 -1.80557,0.09116 -2.38934,-0.436c-0.68787,-0.62115 -0.96655,-1.5347 -1.91064,-1.564c-0.89825,-0.02786 -1.55124,-0.33679 -2.12534,-0.97467c-0.52087,-0.57874 -1.0498,-1.22549 -1.74133,-1.85867c-0.59805,-0.54758 -1.21558,-0.95596 -2.03201,-1.168c-0.80045,-0.20789 -1.32217,-0.97781 -2.19067,-1.00934l-0.58981,-0.51016l-0.03152,-0.8685" id="svg_7" stroke-width="2" stroke="#000" fill="none"/>
  <path t="48679,48791,48799,48807,48815,48815,48824,48824,48824,48831,48831,48840,48840,48847,48847,48857,48857,48871,48894,48903,48927,48959,48974,48983,49007,49007,49047,49055,49071,49087,49102,49103,49111,49127,49127,49143,49159,49199,49207,49223,49240,49247,49247,49263,49263,49271,49279,49295,49311,49359,49383,49415,49415,49431,49433,49463,49502,49534,49559" d="m262,269c1.79999,0 2.70847,-0.09851 3.52084,0.02084c0.98911,0.14532 1.6701,0.62759 2.67917,0.85782c0.78888,0.17999 1.41318,0.1604 2.39999,0.474c0.8125,0.25821 1.79761,0.595 2.60001,0.63666c0.99854,0.05182 1.77914,0.01068 2.77847,0.01068c0.82019,0 1.72153,0 2.62152,0c0.89999,0 1.79999,0 2.69998,0c0.90002,0 1.80002,0 2.70001,0c0.79999,0 1.70001,0 2.60001,0c0.89999,0 1.81067,0 2.72131,0c0.85333,0 1.79333,0 2.67868,0c0.79999,0 1.70001,0 2.60001,0c0.89999,0 1.79999,0 2.69998,0c0.90134,0 1.86667,0 2.52536,0c1.008,0 1.87015,0 2.77466,0c0.89999,0 1.79999,0 2.69998,0c0.90002,0 1.80002,0 2.70001,0c0.79999,0 1.70001,0 2.564,0c0.95685,0 1.836,0 2.73599,0l0.90002,0" id="svg_8" stroke-width="20" stroke="#fff" fill="none"/>
  <path t="52039,52190,52198,52214,52231,52247,52247,52262,52295,52334,52343,52351,52390,52446,52463,52471,52503,52518" d="m261,277c-0.61066,-1.564 -1.57028,-1.92261 -2,-2.52084c-0.57251,-0.79703 -1.09399,-1.40302 -1.564,-2.07916c-0.56009,-0.80579 -1.16693,-1.25165 -1.82533,-1.836c-0.69321,-0.61523 -1.17746,-1.24167 -1.57468,-2c-0.39925,-0.76221 -0.46133,-1.53867 -1.06133,-2.13867l-0.58534,-0.45065l-0.8685,-0.47467" id="svg_9" stroke-width="20" stroke="#fff" fill="none"/>
  <path t="56023,56174,56190,56214,56230,56246,56254,56270,56318,56334,56342,56382,56430,56438,56462,56470,56486,56510,56542,56566,56566,56590,56614,56630,56635,56647,56654,56686,56710,56718" d="m246,268c1.60001,0.57468 2.41026,1.07446 3.02533,1.57468c0.61987,0.50412 1.72032,0.37442 1.97017,1.12982c0.29527,0.89279 0.70918,1.27655 1.60451,1.2955c0.96445,0.02042 1.40356,0.78073 2.20132,0.99866c0.88499,0.24179 1.48151,0.68225 2.11465,1.28534c0.57413,0.54688 1.39053,0.60904 2.28403,0.71735c0.91977,0.11148 1.61819,0.44681 2.36398,1.02399c0.62555,0.48413 1.38052,0.48367 2.15067,0.97467c0.56836,0.36237 0.30618,1.47916 0.896,1.98932l0.95334,0.04669l0.48868,0.61133" id="svg_10" stroke-width="2" stroke="#000" fill="none"/>
  <path t="58383,58493,58493,58502,58511,58518,58542,58550,58582,58630,58662,58695,58695,58698,58790,58806" d="m309,259c1,1.16666 1.42117,1.69855 2,2.47916c0.47223,0.63684 1.25217,1.06586 1.716,1.69019c0.52353,0.70465 0.63538,1.77338 1.48401,1.83066c0.89795,0.06061 1.79999,0 2.59998,0l0.91467,0l0.93268,0.05716l0.43668,0.65884" id="svg_11" stroke-width="2" stroke="#000" fill="none"/>
 </g>
 <g display="none">
  <title>muse_image</title>
  <image xlink:href="http://farm2.static.flickr.com/1387/531326560_e50926d902.jpg" id="muse" height="480" width="640" y="0" x="0"/>
 </g>
 <g display="none">
  <title>bbox</title>
  <rect stroke="#f00" fill="none" stroke-width="3" height="139.52" width="496.64" y="243.2" x="80.64" id="bbox"/>
 </g>
</svg>
