<svg width="640" height="480" xmlns="http://www.w3.org/2000/svg" xmlns:svg="http://www.w3.org/2000/svg" xmlns:xlink="http://www.w3.org/1999/xlink">
 <!-- Sketchy ANNOTATION
  ImageNet ID: n02691156_3854
  URL: http://farm4.static.flickr.com/3160/2734097830_603caa0767.jpg
  Image Width: 500
  Image Height: 333
  BBox X: 27
  BBox Y: 124
  BBox Width: 383
  BBox Height: 112
  Exposure: 2000ms
  Synset Label: airplane
  Synset ID: n02691156
  Worker Tag: airplane
  Sanity Check: 
   Context
   Saved
   Shading
  Comment: 
   {}
  Worker ID: AIH9VLD92GHFH
  Assignment ID: 3E47SOBEYQW0D86K82LPQ3EJZV1CID
  HIT ID: 306W7JMRYYYMRD47VE81DAJ2DKDB8F
  Work Time: 78s
  Worker Score: 0.9286
 END ANNOTATION -->
 <g display="inline">
  <title>Layer 1</title>
  <path t="0,302,302,318,318,318,335,335,352,352,352,370,371,388,388,388,405,405,405,405,423,423,423,441,441,441,465,465,475,475,491,493,493,507,507,507,525,525,525,525,541,542,542,563,563,563,576,576,576,576,594,594,611,611,611,611,628,628,628,628,645,645,645,667,667,667,667,679,679,679,697,697,697,697,715,715,715,732,732,732,732,749,749,749,749,766,766,766,766,766,783,783,783,783,783,801,801,801,801,801,818,818,818,818,836,836,836,836,836,853,853,853,853,870,870,870,870,870,888,888,888,888,905,905,905,905,905,905,923,923,923,923,923,923,939,939,939,939,939,956,957,957,957,974,974,974,974,974,991,991,991,991,991,1010,1010,1010,1010,1010,1026,1026,1026,1026,1026,1043,1044,1044,1044,1069,1069,1069,1069,1069,1080,1080,1080,1080,1096,1096,1096,1096,1116,1116,1116,1116,1116,1116,1129,1129,1129,1129,1150,1150,1150,1150,1165,1165,1165,1165,1182,1182,1182,1199,1199,1199,1215,1215,1215,1232,1232,1232,1248,1249,1265,1265,1283,1283,1321,1337,1338,1354,1371,1371,1388,1389,1407,1407,1434,1456,1472,1472,1489,1490,1507,1507,1524,1524,1551" d="m165,221c2.60451,0 3.45717,0 4.42134,0c0.80399,0 1.62599,0 2.65717,0c0.90067,0 1.92256,-0.03188 2.7215,0.01067c0.80234,0.04272 1.78995,0.37088 2.59999,0.63667c0.79153,0.25972 1.64149,0.34117 2.37067,0.35133c1.19855,0.01669 1.89067,0.00133 2.61467,0.00133c0.73201,0 2.12917,-0.02148 2.76801,0.02133c0.88788,0.05951 1.94115,0.39561 2.61067,0.82933c0.64789,0.41971 1.62648,1.04431 2.43599,1.12801c0.99493,0.10286 1.81575,-0.04118 2.8,0.188c0.81888,0.19067 1.38022,0.57088 2.40401,0.748c0.8938,0.15463 1.45201,0.07986 2.84799,0.08665c0.40601,0.00197 1.24921,-0.00203 2.09,0.05583c1.16043,0.07985 2.08905,0.3024 2.862,0.5175c0.96033,0.26726 1.75432,0.36108 2.60667,0.45067c1.19115,0.12518 1.78935,0.2532 2.6685,0.47467c0.83682,0.2108 1.83475,0.44681 2.74615,0.48933c0.94038,0.04388 1.73718,-0.00313 2.62134,0.04666c0.64088,0.03609 1.67586,0.17888 2.40601,0.31667c1.12392,0.21208 1.85925,0.39273 2.92583,0.52583c0.66231,0.08266 1.61081,0.11484 2.8215,0.12151c0.59999,0.00331 1.50322,-0.0144 2.39999,0.08533c0.90465,0.10062 1.79771,0.34952 2.40001,0.48933c1.19576,0.2776 2.0994,0.37984 2.7,0.40451c0.89944,0.03696 2.10133,0.02083 2.71066,0.02083c0.9465,0 1.95601,0 2.67334,0c0.74133,0 1.86333,0 2.94933,0c0.68268,0 1.66667,0 2.31934,0c1.01401,0 2.10901,0 2.88901,0c0.81999,0 1.245,-0.00302 2.57967,0.00017c0.93134,0.00223 1.87885,0.01582 2.35333,0.03583c0.94179,0.03972 2.30519,0.17665 3.16817,0.31667c0.42186,0.06845 1.24393,0.23758 2.05583,0.36334c1.19798,0.18556 2.00093,0.23683 2.80133,0.26317c0.79971,0.02632 2,0.02083 2.79999,0.02083c0.80002,0 1.60001,0 2.40002,0c1.19998,0 2,0 2.79999,0c0.79999,0 2,0 2.79999,0c0.80002,0 1.60001,0 2.40002,0c1.20016,0 2.00449,0 2.82083,0c0.83633,0 2.14581,0 3.06583,0c0.47501,0 1.45499,0 2.47501,0c0.52499,0 2.15948,0 2.72098,0c0.56552,0 1.6965,0 2.25601,0c1.09201,0 2.12799,0 3.09067,0c0.89868,0 1.74933,0 2.56799,0c1.20267,0 2.00269,0 2.80267,0c0.79999,0 2.00006,-0.008 2.79999,0.00267c0.80017,0.01067 1.60596,0.0294 2.40002,0.168c1.21228,0.21158 1.60291,0.39279 2.41064,0.67999c0.827,0.29405 1.6626,0.63583 3.01068,0.90651c0.45932,0.09222 1.40366,0.18582 2.35333,0.25749c0.4725,0.03566 1.86069,0.13768 2.73999,0.26933c0.85153,0.1275 1.67212,0.3062 2.48401,0.43201c1.198,0.18564 2.00134,0.23132 2.80133,0.284c0.79999,0.05267 2.00192,0.1543 2.79868,0.284c0.79276,0.12906 1.56302,0.3036 2.31598,0.43201c1.06107,0.18094 1.73303,0.22681 2.71069,0.30933c0.65894,0.05562 1.69702,0.1929 2.44083,0.32733c0.79694,0.14403 1.64905,0.3246 3.06717,0.48067c0.50809,0.05591 1.56735,0.11372 2.10666,0.13068c1.07309,0.03372 1.5975,0.03374 3.06,0.036c0.84534,0.0013 1.60266,0 2.64368,0c1.02298,0 1.74033,0 2.48166,0c0.74933,0 2.20804,-0.00424 2.88934,0.00133c0.64935,0.00529 1.5885,0.00688 2.78516,0.22c0.60052,0.10695 1.45413,0.39908 2.53351,0.612c0.70868,0.1398 1.61935,0.15819 2.58798,0.16684c0.80405,0.00719 1.64066,-0.01738 2.65717,0.22133c0.69928,0.16422 1.52057,0.57904 2.52151,1.07851c0.60025,0.29953 1.59216,0.81596 2.18933,1.08932c1.03156,0.47221 1.86783,0.52318 2.61066,1.04668c0.78857,0.55573 1.16592,1.20882 2.12085,1.564c0.77844,0.28954 1.52579,0.44844 2.45764,1.10001c0.64691,0.45235 1.22607,1.09549 1.8215,1.7c0.68442,0.69485 1.11703,1.50204 1.20135,2.40134c0.06433,0.68611 0.47809,1.61624 0.71466,2.39999c0.29596,0.98042 0.27951,1.79866 0.284,2.79733l0,0.76534l0,0.95067" id="svg_1" stroke-width="2" stroke="#000" fill="none"/>
  <path t="2552,2668,2668,2683,2683,2683,2683,2703,2703,2703,2703,2703,2703,2703,2703,2719,2719,2719,2719,2719,2719,2719,2719,2719,2735,2735,2735,2735,2735,2735,2735,2735,2735,2752,2752,2752,2752,2752,2752,2752,2752,2752,2770,2770,2770,2770,2770,2770,2770,2770,2770,2787,2787,2787,2787,2787,2787,2787,2787,2787,2804,2804,2804,2804,2804,2804,2804,2804,2804,2822,2822,2823,2823,2823,2823,2823,2823,2823,2839,2839,2839,2839,2839,2839,2839,2839,2839,2855,2856,2856,2856,2856,2856,2856,2856,2856,2872,2872,2872,2872,2872,2891,2891,2891,2891,2891,2907,2907,2907,2907,2907,2924,2924,2924,2942,2942,2942,2942,2959,2959,2959,2976,2976,2976,2976,2995,2995,2995,3011,3012,3028,3028,3028,3028,3046,3046,3046,3062,3062,3063,3084,3085,3085,3085,3104,3104,3104,3120,3120,3120,3120,3134,3134,3134,3134,3154,3154,3154,3154,3154,3155,3169,3169,3169,3169,3169,3185,3185,3185,3185,3185,3185,3204,3204,3204,3204,3204,3205,3205,3218,3218,3218,3218,3218,3218,3237,3237,3237,3238,3238,3238,3254,3254,3254,3254,3254,3254,3254,3270,3270,3270,3271,3271,3271,3285,3285,3285,3285,3285,3285,3302,3302,3302,3302,3302,3302,3322,3322,3322,3322,3322,3337,3337,3337,3337,3337,3355,3356,3356,3356,3356,3371,3372,3372,3372,3391,3391,3391,3407,3407,3407,3407,3407,3423,3424,3424,3424,3424,3440,3441,3441,3441,3441,3458,3458,3458,3475,3476,3476,3493,3510,3510,3510,3527,3527,3545,3545,3562,3563,3563,3579,3579,3579,3597,3597,3621,3621,3636,3636,3655,3655,3655,3669,3685,3685,3685,3703,3732,3757,3783,3805,3805,3819,3820,3839,3839,3839,3852,3853,3875,3875,3887,3887,3906,3907,3939,3955,3972,3972,3989,3989,4006,4006,4024,4024,4040,4041,4059,4059,4076,4076,4093,4093,4093,4110,4111,4111,4111,4128,4128,4145,4146,4163,4163,4179,4180,4180,4196,4215,4215,4215,4240,4254,4275,4275,4275,4287,4287,4303,4303,4303,4320,4321,4337,4337,4355,4355,4376,4377,4387,4404,4424,4424,4437,4437,4458,4473,4490,4507,4524,4524,4541,4541,4559,4559,4575,4576,4576,4592,4592,4610,4610,4610,4610,4610,4627,4627,4627,4627,4644,4644,4644,4644,4644,4661,4661,4662,4679,4679,4680,4696,4696,4696,4712,4713,4713,4730,4730,4731,4748,4748,4749,4766,4782,4807,4821,4821,4821,4841,4841,4841,4855,4856,4871,4872,4891,4892,4904,4922,4940,4941,4956,4956,4972,4991,5006,5024,5024,5041,5041,5058,5058,5058,5058,5076,5077,5094,5094,5094,5111,5112,5129,5146,5147,5164,5164,5165,5180,5180,5198,5199,5215,5216,5216,5216,5216,5232,5233,5233,5233,5233,5249,5250,5250,5250,5275,5275,5275,5275,5288,5288,5288,5309,5309,5309,5309,5322,5322,5322,5342,5342,5342,5357,5357,5357,5357,5372,5372,5372,5389,5389,5389,5390,5390,5405,5406,5406,5425,5425,5425,5425,5442,5442,5442,5457,5458,5458,5475,5475,5476,5476,5491,5491,5491,5492,5507,5508,5508,5508,5524,5524,5524,5541,5541,5542,5542,5559,5559,5559,5559,5576,5576,5576,5576,5576,5594,5594,5594,5594,5611,5611,5611,5611,5627,5628,5628,5628,5644,5644,5644,5644,5645,5662,5662,5662,5662,5679,5679,5679,5679,5679,5696,5696,5696,5696,5696,5714,5715,5715,5715,5715,5732,5732,5732,5732,5733,5748,5748,5749,5749,5749,5749,5765,5765,5766,5766,5782,5783,5783,5783,5800,5801,5801,5818,5819,5819,5835,5835,5835,5851,5851,5852,5852,5852,5876,5876,5876,5877,5877,5890,5890,5890,5891,5891,5910,5910,5910,5910,5924,5924,5924,5924,5940,5940,5941,5957,5958,5958,5974,5974,5974,5993,5993,5994,6007,6007,6008,6024,6024,6043,6043,6044,6044,6058,6058,6058,6058,6075,6075,6092,6092,6092,6111,6111,6111,6127,6127,6127,6144,6144,6162,6162,6162,6179,6179,6196,6196,6196,6214,6214,6214,6231,6231,6231,6248,6248,6248,6265,6265,6282,6282,6282,6299,6300,6300,6317,6317,6334,6334,6334,6351,6367,6367,6385,6385,6401,6402,6419,6420,6443,6444,6444,6459,6460,6460,6478,6478,6478,6479,6492,6492,6492,6492,6492,6511,6512,6512,6512,6526,6526,6526,6526,6526,6526,6541,6541,6541,6542,6559,6560,6560,6560,6560,6560,6574,6575,6575,6575,6575,6596,6596,6596,6596,6597,6608,6608,6608,6608,6628,6629,6629,6629,6642,6643,6643,6643,6643,6659,6659,6659,6660,6678,6678,6679,6679,6679,6679,6694,6694,6694,6694,6694,6711,6711,6711,6711,6711,6711,6728,6728,6728,6728,6746,6746,6746,6747,6747,6762,6762,6762,6763,6763,6780,6781,6781,6781,6798,6798,6815,6815,6832,6832,6849,6849,6867,6867,6885,6885,6902,6902,6903,6919,6919,6936,6936,6953,6970,6992" d="m231,244c2.01433,0 2.82133,0 4,0c0.60533,0 1.58333,0 2.32866,0c1.33801,0 1.85867,0 2.42334,0c1.27733,0 1.998,0 2.77867,0c0.84467,0 1.75732,0 3.80266,0c1.13783,0 2.34267,0 3.6015,0c1.29984,0 2.62767,0 3.9705,0c1.34483,0 2.67868,-0.00018 5.26132,0c1.22635,0.00009 2.41068,-0.00024 3.561,0.0045c1.12433,0.00464 2.23074,0.01331 3.327,0.03149c1.09439,0.01816 2.19516,0.03685 4.44534,0.13068c1.16409,0.04854 2.35098,0.11533 3.5535,0.19499c1.21216,0.08031 2.42615,0.17447 3.63449,0.285c1.19736,0.10953 2.3775,0.2179 4.64536,0.52c1.08194,0.14413 2.12479,0.31273 3.13348,0.48599c0.97928,0.16821 1.92923,0.34627 2.85449,0.522c0.90369,0.17163 1.78619,0.3515 3.51202,0.65866c0.8436,0.15015 1.67569,0.28334 2.49149,0.4095c0.7962,0.12312 1.57101,0.2363 2.3205,0.34651c0.7215,0.10611 1.41342,0.20053 2.68802,0.41066c0.58133,0.09584 1.12555,0.19751 1.638,0.2955c0.48486,0.09273 0.94504,0.18512 1.38599,0.26849c0.42441,0.08025 0.83548,0.16417 1.64267,0.26933c0.39935,0.05203 0.80118,0.08475 1.2045,0.114c0.40601,0.02943 0.81641,0.05186 1.23151,0.078c0.42123,0.02652 0.85049,0.04701 1.73065,0.14134c0.45535,0.0488 0.91785,0.11557 1.38602,0.19049c0.47318,0.07571 0.94772,0.16156 1.422,0.25351c0.47308,0.09172 0.94205,0.18729 1.85867,0.38933c0.44553,0.09821 0.88116,0.19936 1.30948,0.2955c0.42102,0.0945 0.83582,0.18617 1.24652,0.26849c0.40567,0.08131 0.80682,0.16907 1.61066,0.26933c0.79926,0.0997 1.61044,0.13879 2.436,0.15601c0.84921,0.0177 2.18533,0.01067 2.64801,0.01067c0.94131,0 1.89066,0 2.36331,0c1.38602,0 2.26602,0 3.10602,0c0.79999,0 1.56,0 2.62515,0c0.9855,0 1.61084,0 2.8215,0c0.89999,0 1.5,0.0005 2.39999,0c1.20001,-0.00067 1.80276,0.02724 2.70001,-0.05716c1.20584,-0.11343 1.79883,-0.30023 2.69998,-0.5175c0.59924,-0.14449 1.79733,-0.36195 2.67917,-0.40451c0.83478,-0.0403 1.83685,-0.02083 2.52084,-0.02083c1.16666,0 1.95813,0.0153 2.81067,-0.036c0.59164,-0.0356 1.78964,-0.24136 2.66849,-0.464c0.56479,-0.14308 1.83643,-0.4377 2.54169,-0.47917c0.74747,-0.04396 1.94849,-0.02083 2.6405,-0.02083c0.724,0 1.45599,0 2.85333,0c0.64932,0 1.58081,0 2.48532,0c0.90451,0 1.836,0 2.48532,0c1.03635,0 1.77634,0 2.55634,0c0.82001,0 2.125,0 3.04367,0c0.95068,0 1.43552,0 2.41916,0c0.49686,0 1.99551,0 2.99551,0c0.5,0 1.5,0 2,0c1.5,0 2.50137,-0.00113 3.00449,0.0045c1.01642,0.01137 1.53232,0.01675 2.58084,0.08083c1.08237,0.06615 2.20041,0.19704 2.77185,0.27184c0.57922,0.07582 1.75366,0.25227 2.34732,0.34734c0.59705,0.0956 2.39523,0.39517 2.99283,0.4955c0.59372,0.09967 1.76132,0.29834 2.33069,0.40001c1.1019,0.19676 2.13885,0.3989 3.10532,0.59866c0.46594,0.09631 1.38541,0.29314 2.32916,0.44417c0.48984,0.0784 2.10147,0.23933 2.69083,0.27316c0.60901,0.03496 1.86755,0.08299 2.50668,0.10933c0.63919,0.02634 1.27588,0.02797 3.09717,0.196c0.57446,0.05299 1.68149,0.20409 2.22198,0.27867c1.06897,0.14751 1.60107,0.2428 3.24219,0.37866c0.56198,0.04652 1.13126,0.06972 2.27866,0.12134c0.57465,0.02585 1.71719,0.06926 2.83334,0.16667c0.54565,0.04762 1.60672,0.18007 2.625,0.35416c0.49588,0.08478 1.45602,0.27573 2.82031,0.57901c0.43768,0.09731 1.29358,0.30177 2.14667,0.46416c0.85641,0.16302 2.19568,0.31889 2.65869,0.35201c0.94073,0.06728 1.89102,0.10359 2.36331,0.13667c1.3873,0.09717 2.26898,0.21695 3.10602,0.38333c0.80313,0.15964 1.56198,0.35829 2.62515,0.66382c0.66562,0.19128 1.6055,0.48764 2.22018,0.61484c1.19537,0.24734 2.14365,0.2775 2.81564,0.33801c1.12027,0.10089 1.95618,0.22586 2.84702,0.38333c0.46014,0.08133 1.39236,0.25992 2.772,0.564c0.88254,0.19452 1.31003,0.29767 2.14581,0.5c0.81689,0.19775 2.02109,0.49905 2.81952,0.70001c0.79089,0.19904 1.5668,0.39459 2.31598,0.59998c1.06583,0.29218 2.0354,0.60104 2.63867,0.76401c1.07458,0.29028 2.01758,0.32413 2.76001,0.52002c0.90543,0.23892 1.8168,0.7702 2.492,0.86331c0.9856,0.13593 1.84103,0.29819 2.60931,0.62735c0.86075,0.36877 1.64136,0.40118 2.80667,0.64682c0.53659,0.1131 1.36179,0.36688 2.41202,0.7785c0.71558,0.28046 1.54718,0.70547 2.56534,0.91599c0.75708,0.15652 1.71994,0.36542 2.35397,0.78851c0.73572,0.49097 1.45868,0.89417 2.44717,1.39551c0.5899,0.29919 1.32675,0.68326 2.17484,1.29999c0.80359,0.58438 1.42834,1.04175 2.14133,1.31467c1.01132,0.38715 1.64288,0.80341 2.20001,1.36935c0.6608,0.6713 1.31088,1.23056 1.784,1.93683c0.53094,0.7926 0.99048,1.49838 1.66666,1.97916c0.6326,0.4498 1.42157,0.82288 2.07617,1.65268c0.51352,0.65094 0.98117,1.44519 1.45718,2.09998c0.63751,0.87695 0.85388,1.49994 1.62115,2.22583c0.60062,0.56821 1.20319,1.32037 1.90033,1.90018c0.63818,0.53076 1.38083,0.78378 2.26251,1.32001c0.66754,0.40601 1.64548,0.66449 2.39999,0.88535c0.97412,0.28516 1.52533,0.61096 2.51468,1.116c0.76913,0.39261 1.53021,0.97849 2.22665,1.36398c0.81299,0.45001 1.60229,0.38959 2.57501,0.6575c0.86093,0.23712 1.56482,0.59641 2.44214,0.87851c0.99167,0.31885 1.68045,0.47177 2.30417,0.69998c1.2074,0.44177 1.77313,0.92697 2.71051,1.14734c0.73468,0.17273 1.75415,0.31152 2.54285,0.66333c0.8125,0.36246 1.61133,0.75177 2.31464,1.18933c0.89038,0.55396 1.65668,1.19263 2.29999,1.60001c0.62054,0.39294 1.13593,1.23669 1.62134,2.01068c0.50116,0.79907 0.97064,1.42191 1.36401,2.19064c0.40692,0.7952 0.79999,1.59869 1.20001,2.39868c0.40002,0.79999 0.8136,1.59335 1.19867,2.39999c0.37891,0.7937 0.6651,1.80231 0.80133,2.57916c0.15033,0.85721 0.69305,1.60831 0.91467,2.50485c0.16669,0.67438 0.08533,1.75882 0.08533,2.616c0,0.89999 0,1.78534 0,2.72534c0,0.69064 0,1.76398 0,2.57465c0,0.89999 0.20215,1.91989 -0.33331,2.60001c-0.52588,0.66794 -1.49683,1.00427 -2.16669,1.5c-0.81763,0.60507 -1.49573,1.0582 -2.5,1.33334c-0.58899,0.16138 -1.41724,0.15466 -2.40265,0.452c-0.88861,0.26813 -1.92712,0.72641 -2.56799,0.91333c-0.69775,0.20352 -1.4469,0.38663 -2.23199,0.51599c-1.1925,0.1965 -1.99738,0.23267 -2.79736,0.28534c-0.79999,0.05267 -2.00192,0.1543 -2.79868,0.284c-0.79276,0.12906 -1.56235,0.30762 -2.31598,0.43201c-1.39386,0.23007 -2.03827,0.26184 -2.92368,0.27951c-1.04016,0.02075 -1.73633,0.00449 -2.64566,0.00449c-1.00134,0 -1.83685,0 -2.71735,0c-0.89865,0 -1.79868,0 -2.69867,0c-0.89999,0 -1.7955,0 -2.664,0c-1.06934,0 -1.77432,0 -2.57434,0c-1.02567,0 -1.96164,0 -2.86298,0c-0.96533,0 -1.64536,0 -2.48535,0c-0.99731,0 -1.81332,0 -2.62933,0c-0.99866,0 -1.87332,0 -2.88382,0c-0.77933,0 -1.81763,-0.17865 -2.59885,0.08533c-0.88953,0.30057 -1.62918,0.83292 -2.52264,1.13602c-0.69476,0.23569 -1.54745,0.50278 -2.37418,0.83133c-0.85544,0.33997 -1.61072,0.82788 -2.50452,0.94867c-0.80954,0.10941 -1.40179,0.66202 -2.28665,1.19867c-0.73434,0.44537 -1.67789,0.8056 -2.466,1.09998c-0.5459,0.20392 -1.36386,0.49869 -2.36334,0.89868c-0.90982,0.36414 -1.84686,0.6662 -2.63217,0.74417c-0.78799,0.07825 -1.71854,0.04706 -2.63049,0.05716c-0.94235,0.01044 -1.73593,0.23929 -2.44217,0.5c-0.97034,0.35822 -1.77859,0.48077 -2.57916,0.49866c-0.99976,0.02231 -1.79999,0.00134 -2.80267,0.00134c-0.86932,0 -1.93066,0 -2.56931,0c-0.71069,0 -1.48535,0 -2.31601,0c-1.33316,0 -2.26016,0 -3.19116,0c-0.4595,0 -1.3515,0 -2.578,0c-0.733,0 -1.75751,0 -2.42551,0c-1.03867,0 -2.14267,0 -2.892,0c-0.74133,0 -1.80383,0 -2.78934,0c-0.62534,0 -1.836,0 -2.436,0c-0.89999,0 -1.79999,0 -2.69983,0c-0.8895,0 -1.74301,0 -2.77899,0c-0.94202,0 -1.69052,0 -2.564,0c-1.01852,0 -1.74252,0 -2.47452,0c-1.06134,0 -2.05731,0 -2.70801,0c-1.34131,0 -2.05865,0 -2.79999,0c-0.74933,0 -1.49066,0 -2.88934,0c-0.64932,0 -1.58081,0 -2.48532,0c-0.89999,0 -1.79999,0 -2.39999,0c-1.20001,0 -2.10001,0.00003 -2.70001,0c-1.19998,-0.00009 -2.10117,0.00919 -2.69998,-0.03601c-1.20367,-0.09082 -2.10349,-0.32108 -2.72086,-0.46399c-0.96289,-0.2229 -1.99936,-0.39285 -2.73181,-0.44284c-0.74649,-0.05096 -1.49469,-0.05032 -2.92584,-0.05731c-0.66434,-0.00323 -1.6134,-0.01059 -2.22018,-0.08517c-1.20856,-0.14859 -1.79593,-0.36322 -2.70132,-0.56201c-1.19382,-0.26212 -1.80478,-0.29691 -2.73599,-0.37799c-0.64951,-0.05655 -1.68906,-0.17859 -2.79999,-0.41068c-0.77734,-0.16238 -1.56531,-0.36548 -2.36401,-0.564c-0.79996,-0.19882 -1.59756,-0.40088 -2.39999,-0.564c-0.79776,-0.16217 -1.99973,-0.31631 -2.7955,-0.38785c-0.78354,-0.07043 -1.57724,-0.04837 -2.983,-0.491c-0.68292,-0.21503 -1.29849,-0.58209 -1.91699,-0.909c-1.20065,-0.63461 -1.80447,-0.91724 -2.77652,-1.23749c-0.69275,-0.22821 -1.87027,-0.51242 -2.29599,-0.61069c-0.88184,-0.20358 -1.78308,-0.39243 -2.664,-0.59998c-1.22787,-0.28931 -1.9603,-0.50494 -2.668,-0.67917c-0.70306,-0.17307 -1.83209,-0.36792 -2.66934,-0.43683c-0.8909,-0.07333 -1.81635,-0.10379 -2.2825,-0.13669c-1.38275,-0.09756 -2.26541,-0.21869 -3.11215,-0.38333c-0.82813,-0.16101 -1.63467,-0.36533 -2.436,-0.564c-0.80133,-0.19867 -1.60788,-0.40298 -2.436,-0.564c-0.84674,-0.16464 -2.18497,-0.32227 -3.12115,-0.38333c-0.47861,-0.03122 -1.45383,-0.07288 -1.94733,-0.10535c-1.49661,-0.09845 -2.49371,-0.22696 -2.98651,-0.3045c-0.96918,-0.1525 -1.89587,-0.34207 -2.33835,-0.44415c-1.23126,-0.28409 -2.30966,-0.59756 -2.98532,-0.79868c-0.6683,-0.19891 -1.70444,-0.50766 -2.4335,-0.6955c-1.08752,-0.28021 -1.77689,-0.4549 -2.70898,-0.58301c-1.0174,-0.13986 -1.72552,-0.12082 -2.72818,-0.12149c-0.83551,-0.00055 -1.71603,0.00513 -2.61484,-0.00015c-0.91052,-0.00534 -1.86029,-0.03003 -2.86649,-0.1665c-0.72287,-0.09805 -1.4787,-0.26584 -2.28,-0.40802c-0.83868,-0.14883 -2.17426,-0.30978 -2.63736,-0.34c-0.94061,-0.0614 -1.89063,-0.07697 -2.36331,-0.08084c-1.38599,-0.01132 -2.26733,-0.00449 -3.11667,-0.00449c-0.82535,0 -1.63467,0 -2.83585,0c-0.79565,0 -1.57932,0 -2.34299,0c-1.09052,0 -2.10001,0 -2.73633,0c-0.91953,0 -2.11951,0 -2.71017,0c-0.85352,0 -1.89069,0.03278 -2.81067,-0.02084c-0.68585,-0.03998 -1.69016,-0.24414 -2.5,-0.5c-0.82278,-0.25995 -1.80823,-0.69763 -2.5,-0.95831c-0.67694,-0.2551 -1.68253,-0.45798 -2.5,-0.5c-0.81516,-0.04193 -2.04999,0.01096 -2.72534,-0.05685c-1.20453,-0.12094 -1.73325,-0.32925 -2.62134,-0.53867c-0.63791,-0.15042 -2.03528,-0.35184 -2.76797,-0.38931c-0.72351,-0.03702 -1.41602,-0.03534 -2.61469,-0.03601c-0.94934,-0.00052 -1.97083,0 -2.58133,0c-0.87466,0 -1.8754,0.01944 -2.71017,-0.02084c-0.88184,-0.04254 -1.78311,-0.18277 -2.65784,-0.40448c-0.81131,-0.20566 -1.85028,-0.52792 -2.62665,-0.57019c-0.96262,-0.05243 -1.71552,-0.00449 -2.51199,-0.00449c-0.99869,0 -1.90802,0 -2.84933,0c-0.78601,0 -1.608,0 -2.66669,0c-0.94131,0 -1.61935,0.00626 -2.58798,-0.00015c-0.80405,-0.00534 -1.64279,0.02631 -2.65718,-0.22134c-0.92203,-0.2251 -1.50703,-0.60748 -2.526,-1.07401c-0.62392,-0.28564 -1.8156,-0.59399 -2.62082,-0.67917c-0.54861,-0.05804 -1.86461,-0.21326 -2.53868,-0.46133c-0.64397,-0.237 -1.63599,-0.76401 -2.43599,-1.164c-0.8,-0.39999 -1.56841,-0.84076 -2.31467,-1.11465c-0.96301,-0.35342 -1.82568,-0.46701 -2.48534,-0.80618c-1.01122,-0.51993 -1.5766,-1.09244 -2.20134,-1.67917c-0.54497,-0.51181 -1.45155,-1.10797 -2.00932,-1.39999c-0.98219,-0.51422 -1.80396,-0.91415 -2.47467,-1.19998c-0.99127,-0.42245 -1.55946,-0.58939 -2.41917,-0.95718c-0.9053,-0.3873 -1.79765,-0.89969 -2.41632,-1.24283c-0.63397,-0.35162 -1.64038,-0.84763 -2.36317,-1.116c-0.73605,-0.27332 -1.50023,-0.4834 -2.23199,-0.76801c-1.42169,-0.55295 -2.07373,-0.95535 -2.74533,-1.36267c-0.71275,-0.43228 -1.47098,-0.92163 -2.30667,-1.43732c-0.4368,-0.26953 -1.33252,-0.81516 -2.22667,-1.36334c-0.43759,-0.26828 -1.66541,-1.02679 -2.39549,-1.5c-0.6918,-0.44839 -1.36211,-0.89951 -2.37651,-1.61932c-0.35628,-0.25281 -1.09146,-0.78918 -1.85416,-1.35419c-0.39034,-0.28915 -1.18039,-0.88068 -2.379,-1.77899c-0.39879,-0.29889 -1.18845,-0.89096 -1.96417,-1.46417c-0.37831,-0.27954 -1.46701,-1.07263 -2.15067,-1.55066c-0.64716,-0.45248 -1.27415,-0.87543 -1.884,-1.284c-1.20033,-0.80417 -1.80695,-1.20419 -2.40134,-1.63733c-0.60582,-0.44147 -1.50685,-1.17795 -2.09999,-1.72116c-0.60712,-0.55603 -1.20062,-1.14673 -2.10001,-2.04285c-0.60042,-0.59824 -1.19571,-1.19385 -1.8,-1.76401c-0.29791,-0.28107 -1.49696,-1.31894 -2.10449,-1.78781c-0.61313,-0.47321 -1.26637,-0.9415 -2.26218,-1.78152c-0.35971,-0.30344 -1.08653,-0.97141 -1.45866,-1.31732c-0.7504,-0.69751 -1.47974,-1.39392 -2.20799,-2.01599c-0.67409,-0.57581 -1.34508,-1.082 -2.028,-1.548c-0.70105,-0.47836 -1.47078,-0.95395 -2.30667,-1.46933c-0.88138,-0.54343 -1.33252,-0.81516 -2.22667,-1.36334c-0.43759,-0.26828 -1.66724,-1.0238 -2.39099,-1.5c-0.67734,-0.44565 -1.3215,-0.88522 -2.21434,-1.61932c-0.61273,-0.50378 -1.20363,-1.0668 -1.836,-1.608c-0.64229,-0.54968 -1.68156,-1.30972 -2.048,-1.54001c-0.73398,-0.46127 -1.49286,-0.87073 -2.23199,-1.284c-1.06535,-0.59567 -1.73096,-0.98221 -2.3215,-1.40134c-0.80931,-0.57437 -1.61279,-1.38376 -2.02083,-1.97916c-0.57178,-0.83432 -1.01808,-1.52374 -1.74301,-2.22084c-0.53889,-0.5182 -1.46286,-1.08061 -2.146,-1.5c-0.78114,-0.47955 -1.36513,-1.04565 -1.854,-1.784c-0.45053,-0.68042 -1.10579,-1.51453 -1.81949,-2.01601c-0.56949,-0.40016 -1.38997,-0.97066 -1.95834,-1.5c-0.87326,-0.81328 -1.37416,-1.364 -1.89949,-2.09984l-0.40533,-0.81616l-0.65884,-0.44116" id="svg_2" stroke-width="2" stroke="#000" fill="none"/>
  <path t="7678,7792,7792,7814,7814,7814,7814,7814,7814,7828,7828,7828,7828,7828,7828,7828,7844,7844,7844,7844,7844,7844,7844,7862,7862,7862,7862,7862,7862,7862,7878,7878,7878,7878,7878,7878,7878,7878,7878,7896,7896,7896,7896,7896,7896,7896,7913,7913,7913,7913,7913,7930,7930,7930,7930,7930,7930,7947,7947,7947,7947,7947,7947,7964,7965,7965,7965,7982,7983,7983,7983,7999,7999,7999,8092,8093,8133,8149,8166,8166,8166,8183,8183,8183,8200,8200,8200,8218,8218,8218,8218,8218,8235,8235,8235,8252,8252,8252,8252,8252,8270,8270,8270,8287,8287,8287,8304,8304,8322,8339,8340,8402,8420,8437,8437,8437,8437,8438,8438,8453,8453,8454,8454,8454,8454,8454,8454,8454,8471,8472,8472,8472,8472,8472,8472,8472,8472,8488,8489,8489,8489,8489,8506,8506,8507,8507,8524,8524,8524,8541,8541,8566" d="m186,221c-0.71434,-1.66617 -1.26192,-2.25377 -2,-3.33333c-0.42676,-0.62419 -0.82167,-1.3598 -1.04167,-1.75c-0.47339,-0.8396 -0.71364,-1.29922 -1.60133,-2.75951c-0.32213,-0.52991 -0.66785,-1.06927 -1.02899,-1.6185c-0.7422,-1.12871 -1.13356,-1.69292 -1.53067,-2.256c-0.7905,-1.12085 -1.1944,-1.66324 -1.99283,-2.72551c-0.39249,-0.52219 -0.78542,-1.03503 -1.1685,-1.54649c-0.75409,-1.00679 -1.47253,-2.00847 -1.81467,-2.511c-0.34053,-0.50017 -0.99821,-1.51962 -1.32133,-2.04134c-0.32759,-0.52895 -0.98628,-1.62766 -1.66667,-2.79166c-0.35587,-0.60881 -0.71819,-1.23552 -1.086,-1.87651c-0.37354,-0.65099 -0.74852,-1.31032 -1.12199,-1.97549c-0.37386,-0.66583 -0.74783,-1.32848 -1.45866,-2.64799c-0.68629,-1.27397 -1.00525,-1.89589 -1.32001,-2.49867c-0.30524,-0.58455 -0.59361,-1.15273 -1.16,-2.21066c-0.51421,-0.96045 -0.99655,-1.80768 -1.46133,-2.57066c-0.44484,-0.73024 -0.91302,-1.45103 -1.392,-2.22c-0.52,-0.83485 -0.79272,-1.27466 -1.3125,-2.20834c-0.26526,-0.47649 -0.78271,-1.44792 -1.1875,-2.45833c-0.39482,-0.98553 -0.52737,-1.48985 -0.8125,-2.45833c-0.27271,-0.92625 -0.34969,-1.39159 -0.84233,-2.59868c-0.30315,-0.74277 -0.68448,-1.41066 -1.27983,-2.34033c-0.58408,-0.91206 -1.00388,-1.49655 -1.37784,-2.10266c-0.54991,-0.89127 -1.00992,-1.7951 -1.38483,-2.67867c-0.23192,-0.54659 -0.62759,-1.77028 -1.136,-2.25883c-0.68228,-0.65564 -1.70134,-0.5625 -2.66667,-0.5625c-0.67999,0 -1.52007,0.01099 -2.51866,-0.00133c-0.83566,-0.0103 -1.72133,-0.05252 -2.61484,-0.22c-0.9171,-0.17191 -1.52664,-0.40613 -2.8665,-0.612c-0.71356,-0.10963 -1.45844,-0.13861 -2.20799,-0.15601c-0.7412,-0.0172 -2.14232,0.00854 -2.8,-0.032c-0.98055,-0.06044 -1.99786,-0.29482 -2.70934,-0.54666c-0.74792,-0.26476 -1.48158,-0.60643 -2.23199,-0.86401c-1.0508,-0.3607 -2.03787,-0.5025 -2.63733,-0.58266c-1.08102,-0.14453 -2.00266,-0.43495 -2.64217,-0.63268c-0.99218,-0.30676 -1.81579,-0.24348 -2.71917,-0.63666c-0.95535,-0.41579 -1.75583,-1.20218 -2.52816,-0.65884c-0.65146,0.4583 -0.19685,1.77716 -0.06917,2.57085c0.07447,0.46294 0.26973,1.49803 0.39466,2.06133c0.13117,0.59146 0.64411,2.47948 0.86034,3.13234c0.22099,0.66724 0.4678,1.34134 0.729,2.02499c0.26607,0.6964 0.54849,1.40034 0.837,2.11501c0.29282,0.72534 0.89228,2.2045 1.19083,2.95917c0.30012,0.75865 0.59571,1.51831 0.8895,2.27249c0.28988,0.74416 0.57339,1.47385 0.8535,2.18251c0.27061,0.68465 1.03033,2.54018 1.27184,3.08015c0.43967,0.98305 0.6407,1.43198 1.08083,2.21167c0.57399,1.01685 1.19951,1.82664 1.60451,2.31151c0.59274,0.70963 1.2166,1.42992 1.77867,2.23549c0.36037,0.51648 0.9785,1.64233 1.23599,2.36401l0.42134,0.81065" id="svg_3" stroke-width="2" stroke="#000" fill="none"/>
  <path t="9357,9433,9433,9433,9433,9433,9433,9433,9450,9450,9450,9450,9450,9471,9471,9471,9471,9471,9483,9483,9483,9483,9501,9501,9501,9501,9501,9501,9501,9520,9520,9520,9520,9520,9520,9536,9536,9536,9536,9536,9536,9536,9552,9552,9552,9553,9553,9570,9570,9570,9570,9570,9570,9589,9589,9589,9590,9590,9590,9605,9605,9605,9605,9605,9622,9622,9622,9622,9639,9639,9639,9639,9657,9657,9657,9657,9675,9693,9693,9824,9854" d="m312,252c-14.16666,0 -15.16333,0 -16.06,0c-0.80667,0 -1.53333,0 -2.78668,0c-0.54666,0 -1.98666,0 -2.86932,0c-0.85867,0 -1.284,0 -2.13666,0c-1.314,0 -2.23001,0 -3.16202,0c-0.46448,0 -1.37549,0 -2.65198,0c-0.76666,0 -1.49335,0 -2.59586,0c-1.23749,0 -1.702,0 -2.70898,0c-0.5365,0 -1.66049,0 -2.242,0c-0.59048,0 -2.38651,0 -2.98651,0c-0.59998,0 -1.79999,0 -2.39999,0c-0.60001,0 -2.39999,0 -2.99966,0c-0.59766,0 -1.77899,0 -2.35867,0c-1.12732,0 -1.67099,0 -3.19897,0c-0.47467,0 -1.39203,0 -2.29333,0c-0.91736,0 -1.88269,0 -2.91869,0c-0.5405,0 -1.65149,0 -2.21599,0c-0.56651,0 -2.248,0 -2.793,0c-1.06001,0 -2.08,0 -2.57501,0c-0.95999,0 -2.32516,0 -2.76132,0c-0.84933,0 -1.67467,0 -2.48401,0c-1.20132,0 -2.00133,0 -2.80133,0c-0.8,0 -2,0 -2.79866,0c-0.79068,0 -1.56534,0 -3.03467,0c-0.67867,0 -1.60417,0 -2.39467,0c-0.96217,0 -1.93867,0 -2.772,0l-0.97816,0l-0.6075,0" id="svg_4" stroke-width="2" stroke="#000" fill="none"/>
  <path t="10443,10534,10535,10535,10535,10535,10535,10535,10535,10559,10559,10559,10559,10559,10573,10573,10573,10573,10573,10588,10588,10588,10588,10588,10588,10588,10588,10608,10608,10608,10608,10608,10608,10608,10608,10608,10622,10622,10622,10622,10622,10622,10622,10622,10622,10639,10639,10639,10639,10639,10639,10639,10639,10639,10655,10655,10655,10655,10655,10655,10655,10655,10655,10676,10676,10676,10676,10676,10676,10676,10676,10676,10688,10689,10689,10689,10689,10689,10689,10689,10689,10708,10708,10708,10708,10708,10708,10708,10708,10708,10723,10723,10723,10723,10723,10723,10723,10723,10723,10741,10741,10741,10741,10741,10741,10741,10741,10741,10758,10758,10758,10758,10758,10758,10758,10758,10758,10775,10775,10775,10775,10775,10775,10775,10775,10775,10793,10793,10793,10793,10793,10793,10793,10793,10793,10809,10810,10810,10810,10810,10810,10810,10810,10829,10829,10829,10829,10830,10830,10845,10845,10845,10845,10845,10845,10861,10861,10861,10861,10861,10861,10861,10861,10861,10878,10878,10878,10878,10878,10878,10878,10878,10878,10895,10895,10895,10895,10895,10895,10895,10895,10895,10912,10912,10912,10912,10912,10912,10912,10912,10912,10931,10932,10932,10932,10932,10932,10932,10932,10932,10949,10949,10949,10949,10949,10949,10964,10964,10964,10964,10965,10982,10982,10982,10982,11000,11000,11000,11000,11001,11001,11001,11017,11017,11018,11018,11018,11018,11018,11036,11036,11036,11036,11037,11037,11037,11053,11053,11053,11053,11053,11053,11067,11067,11067,11067,11091,11091,11092,11107" d="m375,269c-15,0 -16.04199,0 -16.97601,0c-0.83798,0 -1.59198,0 -2.27399,0c-1.19601,0 -1.73401,0 -3.24985,0c-0.99567,0 -1.48947,0 -2.46414,0c-0.47885,0 -1.86935,0 -2.75467,0c-0.87735,0 -1.77869,0 -2.24835,0c-1.53299,0 -2.09833,0 -2.69565,0c-1.29868,0 -2.004,0 -2.74933,0c-0.78735,0 -1.61868,0 -3.42136,0c-0.97382,0 -1.99066,0 -3.04349,0c-1.08185,0 -2.18567,0 -3.3045,0c-1.12683,0 -2.25467,-0.00015 -4.48532,0c-1.09052,0.00009 -2.164,-0.00021 -3.22351,0.00449c-1.04849,0.00464 -2.08905,0.01334 -3.12451,0.03152c-1.03354,0.01816 -2.06857,0.03564 -4.15198,0.13065c-1.05502,0.0481 -2.11768,0.1152 -3.186,0.19501c-1.07303,0.08017 -2.14786,0.17496 -3.22202,0.285c-1.07318,0.10995 -2.14362,0.22324 -4.25867,0.51999c-1.04584,0.14673 -2.07843,0.31372 -3.09598,0.495c-1.00381,0.17883 -1.98889,0.37286 -2.95203,0.58502c-0.94421,0.20801 -1.86853,0.41443 -3.61865,0.91998c-0.83929,0.24246 -1.64691,0.5127 -2.43301,0.78601c-0.77124,0.26813 -1.52536,0.54724 -2.271,0.82199c-0.73969,0.27258 -1.47195,0.55707 -2.96265,1.05869c-0.75223,0.25311 -1.51746,0.48547 -2.2905,0.7095c-0.77765,0.22534 -1.56308,0.43866 -2.35352,0.64648c-0.79321,0.20856 -1.59052,0.41 -3.18933,0.81067c-0.79941,0.20035 -1.59628,0.39893 -2.38651,0.60001c-0.78177,0.19891 -1.55161,0.39774 -2.30548,0.60001c-0.73712,0.19778 -1.45569,0.38782 -2.80801,0.79999c-0.63745,0.19427 -1.24631,0.39719 -1.83301,0.60001c-0.57062,0.19727 -1.1257,0.39902 -1.67099,0.60001c-0.54004,0.19904 -1.0759,0.4039 -2.16266,0.79999c-0.55429,0.20203 -1.11948,0.40152 -1.69501,0.60001c-0.58444,0.20154 -1.1795,0.40146 -1.785,0.60001c-0.6145,0.20148 -1.23871,0.40414 -2.51999,0.79999c-0.65372,0.20197 -1.31433,0.39978 -1.97702,0.59549c-0.66,0.19492 -1.31439,0.38461 -1.95898,0.56851c-0.63008,0.17975 -1.24196,0.35327 -2.39734,0.66934c-0.53566,0.14655 -1.0479,0.28305 -1.54201,0.414c-0.48189,0.12772 -0.95804,0.25247 -1.43399,0.37799c-0.48204,0.12714 -0.97658,0.25653 -2.024,0.54132c-0.56464,0.1535 -1.15454,0.31778 -1.767,0.48602c-0.63022,0.17313 -1.27423,0.34897 -1.929,0.52197c-0.6599,0.17435 -1.32028,0.35138 -2.63733,0.65869c-0.64388,0.15024 -1.2798,0.2836 -1.905,0.414c-0.61481,0.12823 -1.22075,0.24915 -1.815,0.37799c-1.16151,0.25183 -2.28172,0.53537 -2.82516,0.69583c-1.06786,0.31534 -1.58307,0.50134 -2.61084,0.8175c-0.50499,0.15533 -2.00778,0.54642 -3.01601,0.69467c-0.51137,0.0752 -1.5784,0.18411 -2.13866,0.25333c-0.58511,0.0723 -2.5246,0.40512 -3.24167,0.57767c-0.75513,0.1817 -1.53522,0.39841 -2.33701,0.633c-0.82028,0.23999 -1.64836,0.49747 -2.481,0.759c-0.83138,0.26114 -2.46255,0.77841 -3.25366,1.02234c-0.77423,0.23871 -1.53722,0.46902 -2.29199,0.69598c-0.75056,0.22571 -1.50156,0.44995 -2.25601,0.67801c-0.76288,0.23059 -2.3284,0.71268 -3.13733,0.96866c-0.82576,0.26132 -1.66277,0.53104 -2.508,0.80402c-0.84944,0.27435 -1.69846,0.54996 -2.54401,0.82199c-0.83713,0.26932 -2.47151,0.7876 -3.26233,1.03116c-0.77187,0.23773 -1.52834,0.46548 -2.271,0.68552c-0.73,0.21628 -1.4505,0.42593 -2.16301,0.6315c-0.70616,0.20374 -2.10893,0.60468 -2.80865,0.80432c-0.69762,0.19904 -1.39111,0.39648 -2.07901,0.58951c-0.67943,0.19064 -1.34892,0.37619 -2.00699,0.5535c-0.64328,0.17334 -1.88051,0.49252 -2.47118,0.63583c-1.1234,0.27255 -1.66225,0.38889 -2.68584,0.64667c-0.49203,0.1239 -1.8958,0.5274 -2.77066,0.85867c-0.42763,0.16193 -1.24478,0.51645 -2.02499,0.86331c-1.09471,0.48666 -1.77124,0.79346 -2.45767,1.00601c-1.05867,0.32782 -2.30339,0.48679 -2.76849,0.52533c-1.00589,0.08334 -1.54355,0.09491 -2.66751,0.14667c-0.58153,0.02676 -1.17421,0.03229 -2.96817,0.19617c-0.60204,0.05499 -1.20526,0.12888 -2.42065,0.29935c-0.61566,0.08636 -1.23634,0.18362 -1.8645,0.28049c-1.93585,0.29855 -2.59732,0.39874 -3.26283,0.49866c-0.66649,0.10007 -1.33136,0.19775 -2.642,0.40002c-0.64067,0.09888 -1.8779,0.29211 -3.0365,0.50131c-0.55069,0.09943 -1.08508,0.18787 -2.08,0.43466c-0.92516,0.22949 -2.16003,0.66458 -2.87451,1.01669c-0.66606,0.32825 -1.25266,0.69464 -2.29716,1.32565l-0.67499,0.375l-0.76001,0.36002l-0.96584,0.26581" id="svg_5" stroke-width="2" stroke="#000" fill="none"/>
  <path t="11339,11450,11450,11467,11467,11467,11467,11484,11484,11484,11501,11502,11502,11502,11526,11526,11526,11526,11526,11543,11543,11543,11543,11543,11543,11560,11560,11560,11560,11560,11575,11575,11575,11575,11592,11592,11592,11592,11592,11607,11607,11607,11607,11607,11624,11624,11624,11624,11640,11640,11640,11640,11640,11640,11640,11661,11661,11661,11661,11661,11676,11676,11676,11676,11676,11692,11692,11692,11692,11709,11709,11709,11709,11726,11726,11726,11726,11743,11743,11743,11760,11761,11761,11778,11778,11778,11795,11795,11795,11814,11814,11831,11902,11928,11943,11960,11960,11960,11960,11960,11960,11977,11977,11977,11977,11977,11977,11977,11995,11995,11995,11995,11995,11995,11996,11996,11996,12011,12011,12011,12011,12011,12012,12012,12012,12012,12029,12029,12029,12029,12029,12029,12029,12029,12029,12047,12047,12047,12047,12047,12047,12047,12048,12048,12064,12064,12064,12064,12064,12065,12065,12065,12065,12081,12081,12081,12081,12081,12081,12081,12081,12081,12097,12097,12098,12098,12098,12098,12098,12098,12116,12117,12117,12117,12117,12117,12117,12136,12136,12136,12136,12136,12136,12153,12154,12154,12154,12154,12154,12169,12169,12169,12169,12169,12185,12185,12186,12186,12186,12186,12203,12203,12203,12203,12203,12203,12222,12222,12222,12222,12222,12222,12239,12239,12239,12240,12240,12240,12256,12256,12256,12256,12257,12257,12281,12281,12281,12281,12281,12282,12293,12293,12293,12293,12293,12310,12310,12310,12310,12310,12310,12310,12330,12331,12331,12331,12331,12331,12344,12344,12344,12344,12344,12344,12344,12344,12344,12362,12362,12362,12362,12362,12362,12362,12376,12376,12376,12376,12376,12376,12376,12393,12393,12393,12393,12393,12393,12393,12393,12413,12413,12413,12413,12413,12413,12413,12429,12430,12430,12430,12430,12430,12445,12445,12445,12445,12446,12446,12446,12462,12462,12462,12462,12463,12463,12481,12482,12482,12482,12482,12482,12482,12497,12497,12497,12497,12498,12498,12516,12516,12516,12516" d="m144,313c-2.01433,0 -2.82133,0 -4,0c-0.59866,0 -1.47917,0 -2.31467,0c-1.004,0 -1.72701,0.00006 -2.53999,0c-1.00967,-0.00009 -1.81256,0.0047 -2.68701,-0.02084c-0.91499,-0.0267 -2.2926,-0.13861 -2.737,-0.20065c-0.87076,-0.12158 -1.72217,-0.29547 -2.574,-0.483c-1.31532,-0.28955 -1.76954,-0.39169 -2.7,-0.60001c-0.94825,-0.21231 -1.42863,-0.30768 -2.36333,-0.58084c-1.37312,-0.40128 -1.80182,-0.59094 -2.648,-0.94c-0.82848,-0.34177 -1.62521,-0.71597 -2.83583,-1.15332c-0.78985,-0.28534 -1.19467,-0.38055 -1.96416,-0.64667c-1.47987,-0.51181 -2.16139,-0.84467 -2.81067,-1.22134c-0.66064,-0.38327 -1.31239,-0.83569 -2.34666,-1.57449c-0.73352,-0.52396 -1.09768,-0.80264 -1.85333,-1.3175c-0.73528,-0.50098 -1.79725,-1.13327 -2.48167,-1.45599c-0.67862,-0.31998 -1.41595,-0.59848 -2.64367,-1.13867c-0.46605,-0.20505 -1.45978,-0.67746 -1.976,-0.93866c-0.52583,-0.26605 -1.5732,-0.82492 -2.072,-1.13068c-1.40883,-0.86356 -1.8045,-1.18692 -2.55467,-1.78665c-0.7082,-0.56619 -1.36387,-1.14548 -2.064,-1.64401c-0.70308,-0.50064 -1.45116,-0.93439 -2.208,-1.31998c-0.73431,-0.37411 -1.80224,-0.82977 -2.47267,-1.09402c-0.97547,-0.38446 -1.64411,-0.61942 -2.67383,-1.07416c-0.73251,-0.32349 -1.46837,-0.68073 -2.16901,-1.08301c-0.99187,-0.56952 -1.7972,-1.19458 -2.28899,-1.57465c-0.69956,-0.54065 -1.69897,-1.14865 -2.24617,-1.38486c-0.81374,-0.35126 -1.85479,-0.73264 -2.54933,-1.03598c-0.67944,-0.29675 -1.64015,-0.7186 -2.45067,-0.98935c-0.81588,-0.27252 -1.84987,-0.52518 -2.75383,-0.58981c-0.61823,-0.04419 -1.81017,-0.02084 -2.5355,-0.02084c-0.9645,0 -2.49194,0.22116 -2.43867,-0.57468c0.04684,-0.69965 1.61993,-0.59238 2.29733,-0.70932c0.82125,-0.14178 1.77018,-0.29425 2.28833,-0.36334c0.54318,-0.07242 2.31086,-0.23401 2.941,-0.26999c0.64986,-0.03711 1.32049,-0.05954 2.72,-0.14401c0.73028,-0.04407 1.4826,-0.0849 3.04,-0.272c0.81136,-0.09747 1.63932,-0.23212 2.4855,-0.3765c0.86452,-0.14752 1.74362,-0.31128 2.6385,-0.47549c0.90878,-0.16678 1.82821,-0.34695 3.70933,-0.64801c0.95332,-0.15259 1.91537,-0.28497 2.8815,-0.405c0.96589,-0.12 1.93056,-0.22461 2.8905,-0.315c0.95108,-0.08957 1.89119,-0.17303 3.728,-0.28c0.88982,-0.05182 1.76133,-0.08417 2.6145,-0.1185c0.83616,-0.03366 1.65657,-0.06458 2.4615,-0.1095c0.79142,-0.04416 1.57278,-0.07858 3.09067,-0.272c0.74715,-0.09521 1.48284,-0.22989 2.2095,-0.38098c0.72275,-0.1503 1.43742,-0.32312 2.1465,-0.50702c0.70728,-0.18344 1.40968,-0.3801 2.81067,-0.77866c0.70034,-0.19922 1.40085,-0.40045 2.1045,-0.59549c0.70568,-0.19562 1.41544,-0.38721 2.1315,-0.56851c0.72028,-0.18237 1.44595,-0.36685 2.93066,-0.66934c0.75271,-0.15335 1.51413,-0.28455 2.277,-0.40948c0.75981,-0.12442 1.51453,-0.23727 2.259,-0.3465c0.73019,-0.10712 1.44353,-0.20358 2.79733,-0.41068c0.63609,-0.09729 1.24559,-0.19846 1.83299,-0.29999c0.56993,-0.09851 1.12544,-0.1994 1.67101,-0.30002c1.07756,-0.19876 2.16229,-0.40213 3.28134,-0.60001c0.57162,-0.10107 1.15048,-0.20105 2.32533,-0.39999c0.59373,-0.10056 1.19069,-0.19983 2.98917,-0.5c0.59885,-0.09995 1.19586,-0.19882 2.37933,-0.39999c0.58492,-0.09943 1.16455,-0.19507 2.85416,-0.5c0.54529,-0.09842 1.6053,-0.29855 2.12001,-0.39999c1.00055,-0.1972 1.96085,-0.39612 2.87999,-0.60001c0.88484,-0.19629 1.7515,-0.40222 2.62801,-0.60001c0.44824,-0.10114 1.87122,-0.40405 2.908,-0.60001c0.5401,-0.10208 1.09186,-0.20074 2.21599,-0.39999c0.56644,-0.1004 2.24815,-0.39917 2.79317,-0.5c0.53633,-0.09921 1.58575,-0.29874 2.61084,-0.5c0.50629,-0.0994 2.01067,-0.39999 2.51067,-0.5c1,-0.19998 1.5,-0.29999 2.5,-0.5c1,-0.19998 1.99944,-0.40286 3.00133,-0.59866c0.5029,-0.09827 1.51865,-0.2858 2.03467,-0.36533c1.04773,-0.16147 2.12994,-0.27985 3.248,-0.35199c0.56834,-0.03668 1.14143,-0.05658 2.29066,-0.10934c0.57272,-0.02631 2.25934,-0.13501 2.80367,-0.19601c1.06146,-0.11899 1.57504,-0.20377 2.57501,-0.35333c0.48502,-0.07254 1.87968,-0.26193 2.76399,-0.34399c0.86771,-0.08054 1.74696,-0.16174 2.1925,-0.24832c1.43507,-0.2789 1.93883,-0.48187 3,-0.89551c0.55466,-0.21622 1.10921,-0.46259 2.242,-0.93668c0.56461,-0.2363 1.67596,-0.68433 2.76683,-1.03284c0.53508,-0.17096 1.62303,-0.4679 2.17867,-0.61865c0.5697,-0.15457 2.40393,-0.67871 3.06683,-0.89218c0.69051,-0.22238 1.39903,-0.46497 2.1225,-0.71848c0.73488,-0.25748 1.47346,-0.52365 2.21249,-0.7905c0.73431,-0.26514 2.16714,-0.78253 2.85767,-1.02667c0.67082,-0.23715 1.96054,-0.68542 2.58067,-0.90067c0.60519,-0.21008 1.19928,-0.40811 2.89583,-1.02084c0.54646,-0.19736 1.08382,-0.40048 2.15201,-0.79999c0.5354,-0.20026 1.62328,-0.60345 2.18399,-0.80002c1.16151,-0.40717 1.77193,-0.60504 3.04051,-1c0.6507,-0.20259 1.31091,-0.40027 1.97549,-0.59999c0.66643,-0.20027 1.334,-0.39352 3.293,-0.99983c0.63565,-0.19673 1.25974,-0.3965 1.875,-0.58951c1.19949,-0.37628 1.78342,-0.5589 2.36,-0.72533c1.66107,-0.47945 2.20186,-0.60936 3.272,-0.84933c0.53447,-0.11986 1.07442,-0.2339 2.18399,-0.43466c1.16241,-0.21033 1.77245,-0.30708 3.03601,-0.49684c0.64488,-0.09685 1.29413,-0.18788 1.944,-0.26849c1.28166,-0.15898 2.51692,-0.27513 3.10783,-0.3145c1.13231,-0.07545 1.68135,-0.09195 2.75749,-0.11084c0.53346,-0.00935 2.15201,-0.01067 2.70683,-0.01067c1.13567,0 1.71451,0 2.29933,0c1.18367,0 1.7805,0 2.97917,0c1.19601,0 1.7865,0 2.36801,0c1.12399,0 1.66049,0 3.13199,0l0.84134,-0.00133l0.72934,-0.00934l0.90149,-0.04649" id="svg_6" stroke-width="2" stroke="#000" fill="none"/>
  <path t="13299,13387,13387,13387,13403,13403,13403,13403,13403,13403,13420,13420,13420,13420,13420,13437,13437,13437,13437,13437,13437,13437,13437,13437,13455,13455,13455,13455,13455,13455,13455,13455,13455,13471,13471,13471,13471,13471,13471,13471,13471,13471,13489,13489,13489,13489,13489,13489,13489,13489,13506,13506,13506,13506,13506,13506,13506,13506,13523,13523,13523,13523,13523,13523,13523,13523,13547,13548,13548,13548,13548,13565,13565,13565,13565,13565,13565,13565,13582,13582,13582,13582,13582,13582,13595,13595,13595,13595,13596,13611,13611,13611,13612,13632,13632,13632,13632,13643,13643,13643,13643,13666,13666,13666,13666,13678,13678,13679,13695,13695,13695,13713,13713,13742,13766,14022,14039,14056,14056,14073,14073,14073,14091,14091,14110,14111,14127,14127,14143,14143,14171,14171,14176,14177,14195,14211,14211,14229,14247,14265,14265,14281,14281,14299,14299,14300,14317,14317,14317,14333,14333,14350,14350,14350,14350,14367,14367,14367,14367,14385,14385,14385,14385,14385,14402,14403,14403,14403,14403,14403,14403,14419,14420,14420,14420,14420,14420,14420,14420,14437,14437,14437,14437,14437,14438,14438,14438,14455,14455,14456,14456,14456,14456,14456,14456,14456,14471,14471,14471,14471,14471,14471,14471,14472,14472,14489,14489,14489,14490,14490,14490,14490,14490,14490,14506,14506,14507,14507,14507,14507,14507,14507,14507,14523,14523,14523,14523,14523,14541,14541,14541,14541,14569,14569" d="m192,231c-1.08501,0 -1.94,0 -2.66,0c-1.30417,0 -1.79333,0 -2.82666,0c-0.53416,0 -1.6125,0 -2.14667,0c-1.52451,0 -2.47484,0 -2.948,0c-0.97734,0 -2.04266,0 -3.252,0c-0.67401,0 -1.392,0 -2.14801,0c-0.78799,0 -1.60199,0 -2.43599,0c-0.84801,0 -1.70401,0 -3.416,0c-0.84517,0 -1.68134,0 -2.50951,0c-0.82117,0 -1.63634,0 -2.4465,0c-0.80617,0 -1.60933,0 -3.21066,0c-0.79967,0 -1.59734,0 -2.39101,0c-0.78766,0 -1.56732,0 -2.33699,0c-0.75768,0 -1.50134,0.00017 -2.93867,0c-0.69066,-0.00009 -1.36537,0.00429 -2.68266,-0.01067c-0.6507,-0.00739 -1.30145,-0.022 -1.95599,-0.04649c-0.66281,-0.0248 -2.7377,-0.16183 -3.464,-0.22684c-0.74071,-0.06628 -1.49197,-0.14159 -2.2515,-0.216c-0.76448,-0.07491 -1.53059,-0.15202 -2.29651,-0.216c-1.51524,-0.12659 -2.26053,-0.16536 -2.99333,-0.2c-0.71854,-0.03397 -2.10606,-0.08253 -2.77066,-0.10933c-0.64273,-0.02592 -1.26469,-0.02228 -2.95467,-0.19617c-0.51326,-0.05281 -1.48897,-0.20937 -2.44,-0.38918c-0.4825,-0.09122 -2.02356,-0.39186 -2.58817,-0.48917c-0.58872,-0.10147 -1.82211,-0.29228 -2.45667,-0.37933c-0.63879,-0.08763 -1.27609,-0.18701 -3.14583,-0.35416c-0.58956,-0.0527 -1.71448,-0.11443 -2.25067,-0.14134c-1.02529,-0.05147 -1.51999,-0.04112 -2.916,-0.192c-0.88282,-0.09541 -1.72279,-0.25702 -2.52,-0.444c-0.76285,-0.17892 -1.8285,-0.47942 -2.494,-0.69383c-0.98289,-0.31668 -1.64275,-0.5666 -2.674,-1.01683c-0.73582,-0.32124 -1.4762,-0.68402 -2.226,-1.026c-1.0825,-0.49374 -1.76112,-0.78781 -2.42734,-1.006c-0.96808,-0.31705 -1.99066,-0.49252 -2.708,-0.56267c-0.73087,-0.07146 -1.81534,-0.08263 -2.784,-0.25067c-0.83281,-0.14447 -1.54289,-0.45674 -2.5,-0.83333c-0.77749,-0.30591 -1.55827,-0.61685 -2.5,-0.83333c-0.90173,-0.20728 -1.83334,-0.16733 -2.72267,-0.16667c-0.89466,0.00067 -1.69224,0.55032 -1.04,1.20134c0.55383,0.5528 1.44376,0.94818 2.02483,1.45132c0.58347,0.50522 1.35458,1.35742 1.9045,1.82651c0.78333,0.66815 1.52686,0.97856 2.33334,1.52083c0.69154,0.465 1.48957,1.09735 2.16666,1.5c0.83529,0.49673 1.44643,1.11659 2.32133,1.37849c0.82436,0.24677 1.79333,0.12151 2.67867,0.12151c0.8,0 1.7,0 2.636,0c0.84933,0 1.57467,0 2.56416,0c0.82067,0 1.9665,0 2.7525,0c0.822,0 1.88067,0 2.59016,0c0.85267,0 1.85983,0 2.72917,0c1.06133,0 1.69733,0 2.38933,0c1.0905,0 2.172,0 2.856,0c1.0035,0 1.6925,0 2.816,0c0.83733,0 1.73866,0 2.20833,0c0.96734,0 2.45834,0 2.95884,0c1.013,0 1.53149,0 2.6075,0c0.56349,0 1.14799,0 3.05634,0c0.69032,0 1.40266,0 2.133,0c0.74434,0 1.49867,0 2.259,0c0.76233,0 2.27699,0 3.02266,0c0.73967,0 2.21701,0 2.96268,0c0.75566,0 1.52533,0 2.31299,0c1.64534,0 2.50967,-0.00079 3.40001,0.00133c0.91234,0.00218 1.8427,0.00691 2.787,0.0195c0.95436,0.01273 1.91487,0.02998 2.877,0.0645c1.91515,0.06871 2.85982,0.13173 3.79333,0.20001c0.92216,0.06744 1.83098,0.14742 2.72549,0.23549c0.88016,0.08665 1.744,0.18079 2.5905,0.2805c1.63934,0.1931 2.42885,0.29836 3.2,0.39734c0.75319,0.09668 1.48914,0.19225 2.2095,0.2805c0.70499,0.08638 1.39578,0.16908 2.07449,0.23549c1.32034,0.1292 1.96614,0.1676 2.60133,0.20001c0.62482,0.03188 1.23994,0.05174 1.845,0.0645c0.59496,0.01254 1.18001,0.01758 1.755,0.0195c1.12,0.00375 2.19867,0.00133 3.22934,0.00133c0.49483,0 1.43849,0 2.724,0c0.76132,0 1.45067,0 2.36716,0l1.04451,0l0.87999,0" id="svg_7" stroke-width="2" stroke="#000" fill="none"/>
  <path t="26947,27174,27192,27208,27208,27224,27244,27244,27261,27261,27261,27282,27282,27296,27314,27314,27331,27331,27348,27348,27364,27364,27387,27387,27396,27396,27414,27414,27435,27435,27448,27448,27465,27465,27482,27482,27500,27500,27516,27516,27535,27535,27535,27551,27551,27568,27568,27587,27587,27587,27602,27602,27602,27619,27619,27619,27636,27636,27637,27655,27656,27656,27671,27671,27671,27690,27690,27690,27690,27707,27707,27707,27722,27723,27723,27740,27740,27759,27777,27777,27792,27792,27792,27811,27811,27811,27827,27827,27827,27848,27848,27865,27865,27865,27887,27887,27894,27894,27894,27894,27915,27915,27915,27935,27935,27935,27948,27948,27948,27966,27966,27966,27982,27982,27982,28002,28002,28015,28015,28036,28050,28080,28102,28115,28116,28132,28132,28149,28149,28150,28166,28166,28182,28182,28182,28200,28200,28200,28215,28236,28249,28249,28267,28267,28283,28283,28301,28301,28317,28335,28335,28352,28352,28370,28370,28387,28387,28405,28571,28571,28583,28604,28617,28617,28617,28633,28633,28650,28650,28668,28687,28703,28721,28738,28755,28755,28794,28794,28873" d="m332,277c1.79999,0 2.63599,0 3.48401,0c0.86331,0 1.89066,0 2.83749,0c0.69934,0 1.6785,0 2.47849,0c0.80002,0 1.7955,0 2.71469,0c0.85999,0 1.80664,0 2.65997,0c0.94135,0 1.71069,-0.04092 2.66135,0.01068c0.76782,0.04169 1.78421,0.29764 2.50684,0.69382c0.8056,0.44165 1.44568,1.02975 2.42517,1.21017c0.72266,0.13312 1.89865,0.08533 2.71115,0.08533c0.84216,0 1.6955,0 2.63684,0c0.76801,0 1.7287,-0.05188 2.48532,0.08533c1.01727,0.18448 1.77975,0.64694 2.79868,0.82935c0.79092,0.14157 1.80267,0.03796 2.60001,0.10617c1.0069,0.08612 1.58755,0.36816 2.39999,0.6265c0.98557,0.31339 1.79785,0.2757 2.71735,0.63666c0.72797,0.28577 1.6517,0.65414 2.42432,0.69516c0.86005,0.04565 1.75818,0.02084 2.64767,0.02084c0.85352,0 1.88934,0 2.81067,0c0.68399,0 1.68533,0 2.52084,0c0.88049,0 1.77899,0 2.66849,0c0.85352,0 1.8895,0 2.83151,0c0.7485,0 1.62198,0 2.6405,0c0.724,0 1.45599,0 2.517,0c0.97498,0 1.86002,-0.0079 2.90015,0.00015c0.68558,0.00531 1.53696,0.02902 2.517,0.35251c0.76288,0.2518 1.65094,0.60751 2.57117,0.64734c0.85364,0.03693 1.83624,0.15778 2.64401,0.42532c0.6489,0.2149 1.60956,0.46307 2.41467,0.54935c0.82098,0.08795 1.86996,0.20029 2.75381,0.54617c0.63327,0.24783 1.60782,0.82034 2.25684,1.04315c1.15976,0.39816 1.97824,0.41357 2.75418,0.43152c1.04288,0.02411 1.70102,0.01593 2.77399,0.22583c0.60117,0.11761 1.59305,0.36731 2.26917,0.49466c1.19293,0.2247 1.94965,0.25662 2.64935,0.36801c1.0097,0.16074 1.83194,0.44321 2.71866,0.63199c0.89307,0.19012 1.7876,0.2619 2.64151,0.27951c1.03561,0.02136 1.95715,0.00449 2.64114,0.00449c1,0 1.81601,-0.00055 2.63202,0c0.99731,0.00067 1.8873,-0.1098 2.79865,0.284c0.74265,0.32092 1.58545,0.70334 2.48535,0.716c0.90015,0.01266 1.60629,0.53528 2.50015,0.87851c0.74155,0.28473 1.74652,0.12149 2.36151,0.12149c1.22232,0 2.03833,0 2.85434,0c1,0 1.68399,0 2.85065,0c0.78601,0 1.608,0 2.66669,0c0.70499,0 1.505,0 2.53067,0c0.94049,0 1.80264,0 2.63599,0c0.97867,0 1.75266,0 2.65717,0c0.74734,0 1.74152,-0.00235 2.68567,0c0.89999,0.00226 1.70874,0.3078 2.41434,0.64734c0.85486,0.41135 1.6651,0.33911 2.64151,0.63666c0.78311,0.23865 1.71417,0.66769 2.48532,0.71466c0.93967,0.05725 1.94696,0.17267 2.59515,0.50134c0.90689,0.45987 1.50284,0.04321 1.52084,-0.83334c0.01883,-0.91714 -0.0502,-1.6626 0.00134,-2.69733c0.0426,-0.85507 0.40891,-1.59998 0.71466,-2.48532c0.32593,-0.94376 0.08911,-1.80569 0.28534,-2.68268c0.18057,-0.80704 0.96527,-1.34335 1,-2.28534c0.02548,-0.69104 0.28265,-1.63065 0.71466,-2.31467l0.27951,-0.90134" id="svg_9" stroke-width="2" stroke="#000" fill="none"/>
 </g>
 <g display="none">
  <title>muse_image</title>
  <image xlink:href="http://farm4.static.flickr.com/3160/2734097830_603caa0767.jpg" id="muse" height="426" width="640" y="27" x="0"/>
 </g>
 <g display="none">
  <title>bbox</title>
  <rect stroke="#f00" fill="none" stroke-width="3" height="143.27928" width="490.24" y="185.63063" x="34.56" id="bbox"/>
 </g>
</svg>
