<svg width="640" height="480" xmlns="http://www.w3.org/2000/svg" xmlns:svg="http://www.w3.org/2000/svg" xmlns:xlink="http://www.w3.org/1999/xlink">
 <!-- Sketchy ANNOTATION
  ImageNet ID: n02691156_6784
  URL: http://farm3.static.flickr.com/2322/2337924477_a8f10f2b28.jpg
  Image Width: 500
  Image Height: 375
  BBox X: 3
  BBox Y: 87
  BBox Width: 495
  BBox Height: 178
  Exposure: 2000ms
  Synset Label: airplane
  Synset ID: n02691156
  Worker Tag: white airplane taking off runway
  Sanity Check: 
   Context
   Saved
   Shading
  Comment: 
   {}
  Worker ID: AXD2DZ7U6CK35
  Assignment ID: 3GU1KF0O4I19KP1I7XFEOG9D2MMPBG
  HIT ID: 3R0WOCG21M9D4794CD0C4SPRDOJUD7
  Work Time: 237s
  Worker Score: 0.9286
 END ANNOTATION -->
 <g display="inline">
  <title>Layer 1</title>
  <path t="0,66,66,82,93,110,126,144,170,206,214,230,246,270,276,276,293,310,326,326,326,343,344,344,360,360,360,376,376,393,393,394,410,410,411,426,426,427,427,443,443,460,460,460,476,476,476,493,493,494,510,510,511,511,526,526,526,526,543,543,543,543,543,560,560,560,560,576,576,576,576,576,593,594,594,594,594,594,610,610,610,610,626,626,626,626,626,645,645,645,645,645,660,660,660,660,661,676,676,676,676,693,694,694,694,694,710,710,710,710,710,711,726,726,726,727,727,727,743,743,743,743,744,744,760,760,761,761,776,776,777,777,794,794,794,794,794,810,810,811,811,811,826,826,826,826,827,827,843,843,843,844,844,860,860,860,861,861,876,876,877,877,877,877,893,893,894,894,894,894,894,910,910,911,911,911,926,927,927,927,927,927,927,943,943,944,944,944,944,944,944,960,961,961,961,961,961,976,977,977,977,977,993,994,994,994,1010,1010,1011,1011,1011,1026,1026,1027,1027,1027,1027,1027,1027,1043,1044,1044,1044,1044,1044,1044,1044,1061,1061,1061,1061,1062,1062,1062,1076,1076,1077,1077,1077,1077,1077,1094,1094,1094,1094,1094,1095,1110,1111,1111,1111,1111,1111,1111,1126,1126,1127,1127,1127,1143,1144,1144,1144,1144,1160,1161,1161,1161,1161,1176,1176,1177,1177,1177,1177,1197,1197,1198,1198,1210,1210,1211,1211,1211,1230,1230,1230,1230,1247,1247,1247,1247,1248,1264,1264,1264,1264,1265,1279,1279,1279,1295,1295,1296,1296,1312,1313,1313,1313,1328,1328,1328,1329,1329,1329,1345,1346,1346,1346,1362,1363,1363,1375,1376,1376,1395,1395,1411,1411,1427,1427,1427,1445,1446,1461,1461,1462,1462,1478,1478,1478,1479,1495,1495,1496,1511,1512,1512,1528,1528,1528,1529,1545,1546,1546,1546,1546,1561,1561,1578,1579,1579,1579,1596,1596,1611,1612,1612,1629,1629,1629,1646,1646,1646,1661,1662,1679,1679,1679,1695,1711,1712,1726,1726,1745,1746,1746,1761,1778,1779,1796,1812,1831,1831,1847,1847,1859,1878,1878,1893,1893,1909,1909,1926,1926,1926,1943,1943,1943,1959,1960,1976,1976,1994,1994,2009,2009,2009,2026,2026,2027,2043,2044,2059,2059,2059,2076,2077,2077,2093,2093,2093,2109,2109,2126,2126,2126,2126,2143,2143,2144,2144,2144,2161,2161,2179,2179,2196,2196,2212,2212,2228,2229,2229,2246,2246,2261,2262,2278,2295,2296,2312,2328,2328,2345,2346,2360,2360,2377,2377,2393,2394,2411,2426,2426,2446,2461,2461,2478,2548,2586,2598,2638,2654,2706,2718,2731,2757,2777,2785,2801,2817,2833,2845,2863,2863,2878,2896,2913,2928,2946,2946,2961,2962,2978,2978,2996,3011,3012,3029,3029,3046,3046,3061,3061,3079,3079,3095,3096,3111,3112,3128,3146,3146,3161,3162,3178,3196,3196,3211,3212,3229,3229,3246,3246,3261,3262,3279,3279,3280,3296,3296,3312,3312,3329,3329,3345,3345,3362,3362,3379,3379,3396,3396,3412,3412,3412,3429,3429,3429,3446,3446,3446,3462,3462,3462,3479,3479,3496,3563" d="m171,225c0,-1 0,-1.8 0,-2.7c0,-0.90001 -0.30989,-1.85973 0.01067,-2.68933c0.30638,-0.79292 0.89709,-1.41957 1.42534,-2c0.62384,-0.68547 1.38878,-1.09738 2.08482,-1.61067c0.68834,-0.50761 1.61241,-0.78804 2.27917,-1.084c0.85777,-0.38075 1.63228,-0.82156 2.52167,-1.13766c0.74242,-0.26387 1.37192,-0.65359 2.36234,-1.26233c0.54521,-0.3351 1.35605,-0.87531 2.14932,-1.34933c0.70322,-0.42021 1.55757,-0.87143 2.36667,-1.26651c0.79559,-0.38849 1.79669,-0.75273 2.40451,-0.84749c0.84889,-0.13234 1.82643,-0.24258 2.63148,-0.49934c0.88019,-0.28072 1.76845,-0.71172 2.36267,-1.036c0.88731,-0.48422 1.40602,-0.90352 2.47984,-1.27451c0.87677,-0.3029 1.93201,-0.3791 2.5215,-0.59999c0.81668,-0.30602 1.79735,-0.8512 2.42082,-1.14284c0.66042,-0.30891 1.66234,-0.70612 2.5,-1c0.5822,-0.20425 1.77805,-0.60397 2.68983,-0.89999c0.62447,-0.20273 1.27225,-0.40851 2.31084,-0.70001c0.73401,-0.20602 1.49893,-0.40157 2.283,-0.59999c1.19489,-0.3024 1.9955,-0.49998 2.7955,-0.7c0.79999,-0.2 1.59999,-0.40001 2.79999,-0.70001c0.8,-0.2 1.60001,-0.39999 2.40001,-0.59999c1.2,-0.3 2.00275,-0.49591 2.81067,-0.71066c0.82683,-0.21979 1.25278,-0.32695 2.556,-0.75601c0.92198,-0.30354 1.3862,-0.48544 2.33333,-0.83333c0.47478,-0.17439 1.40942,-0.53587 2.77834,-0.9785c0.85606,-0.27681 1.27455,-0.38705 2.075,-0.61084c1.47919,-0.41354 2.16592,-0.60596 2.832,-0.82132c0.67801,-0.21921 1.3851,-0.47171 2.5575,-0.91051c0.86783,-0.32481 1.77588,-0.66432 2.24251,-0.8175c0.92795,-0.30461 2.29176,-0.62735 2.72932,-0.692c0.84697,-0.12515 1.67583,-0.17137 2.48401,-0.252c1.20334,-0.12006 2.00334,-0.26495 2.80133,-0.43816c0.80214,-0.1741 1.99977,-0.4801 2.80133,-0.67917c0.80911,-0.20094 1.63387,-0.40346 2.48401,-0.60001c0.88051,-0.20357 1.80074,-0.40289 2.76132,-0.59999c0.49471,-0.1015 1.51468,-0.30177 2.04001,-0.40001c1.63367,-0.3055 2.19727,-0.40042 2.76599,-0.5c1.14719,-0.20085 1.72217,-0.29907 2.29468,-0.39999c1.68649,-0.29729 2.23154,-0.39641 3.2865,-0.60001c0.50916,-0.09825 1.48587,-0.28944 2.39417,-0.5c1.23254,-0.28572 1.96295,-0.49725 2.65115,-0.7c0.6698,-0.19733 2.04144,-0.60344 2.77802,-0.8c0.76273,-0.20355 1.54721,-0.40053 2.74283,-0.7c0.7999,-0.20035 1.60001,-0.39999 2,-0.5c0.79999,-0.2 1.99954,-0.50185 2.80267,-0.7c0.81821,-0.20187 1.66791,-0.40637 2.56799,-0.60001c0.96124,-0.2068 1.99719,-0.40088 2.53467,-0.5c1.09433,-0.20181 1.64484,-0.29553 2.72665,-0.5c1.03549,-0.19572 1.99829,-0.39578 2.89603,-0.59999c0.43079,-0.09799 1.26312,-0.29942 2.47198,-0.60001c0.80276,-0.19962 1.62015,-0.40509 2.47198,-0.60001c0.89746,-0.20537 1.86102,-0.40173 2.89734,-0.60133c0.54031,-0.10406 1.09348,-0.2021 2.216,-0.43466c0.56726,-0.11752 2.24945,-0.52574 2.79318,-0.68533c0.53763,-0.15779 1.58569,-0.50337 2.10065,-0.67867c1.01678,-0.34612 1.51047,-0.54643 3.02084,-0.9785c0.99445,-0.28448 1.49863,-0.39172 2.5,-0.61084c0.49933,-0.10927 1.99988,-0.41124 2.50049,-0.51067c1.01276,-0.20116 1.53073,-0.30438 2.60751,-0.5c0.56308,-0.10229 1.1463,-0.21109 3.056,-0.5c0.68741,-0.10399 1.39395,-0.20039 2.112,-0.29999c0.72394,-0.1004 1.44812,-0.19917 2.16599,-0.3c0.70615,-0.09918 2.69373,-0.39783 3.30069,-0.5c0.5817,-0.09792 1.67499,-0.29501 2.68665,-0.5c0.48184,-0.09763 1.84991,-0.39684 2.7135,-0.60001c0.83707,-0.19693 1.24677,-0.29906 2.05585,-0.5c1.20166,-0.29843 1.99921,-0.50507 2.80133,-0.67917c0.79797,-0.1732 1.99908,-0.36337 2.80533,-0.43816c0.83652,-0.07759 1.73962,-0.13533 2.22333,-0.1925c1.64175,-0.19408 2.25781,-0.32906 2.91,-0.4595c0.68182,-0.13637 1.38434,-0.29044 2.103,-0.45149c1.46271,-0.32784 2.1915,-0.50348 3.625,-0.8125c0.68982,-0.1487 1.36383,-0.28355 2.0235,-0.414c0.64832,-0.1282 1.92487,-0.37619 2.55801,-0.50534c0.63486,-0.1295 1.92035,-0.40636 3.2345,-0.73132c0.66647,-0.16481 1.33215,-0.34073 1.99649,-0.51601c0.65967,-0.17406 1.30804,-0.35887 3.1875,-0.83333c0.58942,-0.1488 1.16153,-0.28645 2.26135,-0.53067c0.52979,-0.11765 1.56284,-0.33229 2.06934,-0.43466c1.50253,-0.3037 2.00491,-0.40337 3.02399,-0.60133c0.52011,-0.10104 1.59247,-0.30284 2.14932,-0.40001c1.77029,-0.30888 2.39575,-0.4005 3.03018,-0.4955c0.63889,-0.09567 1.91217,-0.27109 2.53665,-0.34734c0.60889,-0.07436 2.29797,-0.23886 2.80783,-0.27316c0.95697,-0.06438 1.85953,-0.09778 2.73602,-0.168c0.88632,-0.071 1.80408,-0.19281 2.74399,-0.35201c0.47543,-0.08052 1.42371,-0.26065 2.80801,-0.564c0.88376,-0.19366 1.31198,-0.30511 2.16666,-0.47917c0.85077,-0.17326 2.16577,-0.36478 3.08401,-0.43683c0.46826,-0.03674 1.41629,-0.07869 2.36331,-0.13667c0.46884,-0.0287 1.83279,-0.15848 2.6955,-0.29999c0.83801,-0.13747 1.64841,-0.32487 2.85718,-0.48067c0.79636,-0.10263 1.58966,-0.13643 2.36401,-0.192c0.75101,-0.05391 1.81964,-0.17464 2.82132,-0.41068c0.6796,-0.16014 1.38071,-0.37856 2.5575,-0.664c0.86469,-0.20975 1.31833,-0.30081 2.24249,-0.5c0.93182,-0.20084 2.293,-0.49988 2.72803,-0.59866c0.83997,-0.19073 1.63626,-0.38551 2.39999,-0.51599c1.39551,-0.2384 2.05249,-0.24055 2.98215,-0.33801c0.90671,-0.09506 1.80688,-0.30914 2.74051,-0.52199c0.64792,-0.14771 1.685,-0.31366 2.43018,-0.37267c0.79556,-0.063 1.6543,-0.08659 3.06717,-0.21935c0.50983,-0.0479 1.56766,-0.18484 2.10666,-0.25867c1.07364,-0.14705 1.59497,-0.24301 3.06,-0.40799c0.8414,-0.09476 1.58505,-0.10478 2.52933,-0.21935c1.05508,-0.12801 1.73679,-0.4007 2.42334,-0.59467c0.95834,-0.27075 1.77225,-0.33095 2.59467,-0.34816c1.26572,-0.02649 1.91162,0.03035 2.93149,-0.00467c0.83249,-0.02858 1.78891,-0.28949 2.54202,-0.49983c0.79483,-0.222 1.79602,-0.40927 2.47916,-0.5c1.16824,-0.15517 1.95993,-0.35965 2.54166,-0.5c0.94235,-0.22736 1.97842,-0.39255 2.70651,-0.44284c0.73016,-0.05045 1.78256,-0.04721 2.70898,-0.05733c1.02216,-0.01115 1.73105,-0.05907 2.72952,-0.28383c0.86032,-0.19365 1.46722,-0.41478 2.83484,-0.59467c0.73254,-0.09636 1.50015,-0.11038 2.28299,-0.17401c1.19696,-0.09727 1.99411,-0.2244 2.77417,-0.37267c0.75061,-0.14267 1.44577,-0.32269 2.65198,-0.49066c0.746,-0.10388 1.93893,-0.23866 2.72202,-0.43666c0.54953,-0.13895 1.3559,-0.40729 2.59467,-0.59467c0.6748,-0.10207 1.62234,-0.20702 2.40533,-0.40533c0.82538,-0.20906 1.87567,-0.52386 2.82199,-0.61134c0.67587,-0.06248 1.64667,-0.036 2.45068,-0.036c0.82199,0 1.85596,0.05334 2.75381,-0.02083c1.02771,-0.0849 1.79651,-0.44127 2.53552,-0.69518c0.84647,-0.29083 1.80682,-0.284 2.69598,-0.284c0.98935,0 1.78934,0 2.78934,0c0.78934,0 1.51468,0 2.5,0c0.98401,0 1.67465,0 2.74283,0c0.85718,0 1.75717,0 2.64252,0c0.94,0 1.63065,-0.00066 2.61465,0c0.98401,0.00067 1.72891,-0.11641 2.616,0.28534c0.84283,0.38171 1.5361,1.02426 2.28851,1.41466c0.7905,0.41016 1.60983,0.81477 2.28085,1.10001c0.98962,0.42065 1.80865,0.70064 2.362,0.84283c1.25439,0.32234 1.96082,0.19356 2.93127,0.57866c0.70154,0.27838 1.49982,0.99123 2.23206,1.37851c0.78223,0.41371 1.60828,0.77969 2.18933,1.15717c1.03668,0.67345 1.58282,1.26349 2.19995,1.75883c0.7793,0.62547 1.39728,0.96843 2.40002,1.48399c0.59839,0.30766 1.42456,0.72391 2.20001,1.32133c0.62073,0.47823 1.16687,1.07042 2,1.65717c0.77161,0.54341 1.4043,0.81171 2.40448,1.326c0.63428,0.32616 1.56396,0.8593 2.35718,1.35266c0.5813,0.36157 1.19232,0.76048 2.20502,1.34283c0.70941,0.40794 1.43866,0.7868 2.13599,1.164c0.64392,0.34833 1.82147,1.09105 2.44098,1.53149c0.73016,0.51912 1.47455,0.84055 2.23486,1.40468c0.65253,0.48416 1.17419,1.41693 1.65747,2.07449c0.62567,0.85129 1.2373,1.14066 1.88,1.70934c0.7923,0.70105 1.13104,1.49748 1.68402,2.23067c0.46149,0.61188 1.20001,1.28534 1.89996,1.98534c0.5,0.50002 1.35211,1.12473 1.73334,2.06667c0.25275,0.62445 0.25464,1.71654 0.6875,2.3125c0.58258,0.80214 1.2099,1.25816 1.77917,2.17349c0.42334,0.68071 0.87958,1.48024 1.40002,2.04283c0.67438,0.72905 1.39996,1.40451 1.89996,1.90451c0.70001,0.7 1.48749,1.3284 1.96405,2c0.51489,0.72565 1.15265,1.27718 1.42529,2.01067c0.3028,0.81462 0.52881,1.54816 1.09467,2.10533c0.67102,0.66068 0.67181,1.51614 1.20001,2.2c0.48468,0.62749 0.57867,1.36513 1.06866,2.03133c0.50323,0.68423 0.64667,1.45267 0.64734,2.35268c0.00067,0.89999 0.30084,1.75082 0.64734,2.39999c0.45337,0.84938 0.35266,1.8 0.35266,2.7c0,0.90451 0.07373,1.77179 -0.02081,2.60001c-0.11328,0.99243 -0.64099,1.54364 -1.27466,2.3045c-0.45837,0.55042 -0.52429,1.56313 -0.87122,2.52882c-0.24902,0.69319 -1.07111,1.33623 -1.53333,1.92384c-0.54565,0.69366 -0.9408,1.43228 -1.17865,2.44266c-0.18073,0.76775 -0.27991,1.82535 -0.82587,2.49567c-0.5379,0.66042 -1.0943,1.1906 -1.6955,2.11917c-0.39917,0.61652 -1.28101,1.15489 -1.79999,1.75467c-0.6076,0.70222 -0.98389,1.55963 -1.5,2.12616c-0.66895,0.73427 -1.12274,1.47336 -1.29999,2.3045c-0.20923,0.98123 -0.61572,1.63419 -1.48401,2.2c-0.6687,0.43576 -1.55408,0.83905 -2.10535,1.436c-0.5799,0.62796 -0.83887,1.44481 -1.57733,2.19733c-0.59241,0.6037 -1.36591,0.94191 -2.08063,1.46667c-0.65253,0.47911 -1.59344,1.07446 -2.26868,1.5c-0.74951,0.47232 -1.35468,1.02104 -2.13666,1.5c-0.68359,0.4187 -1.57239,1.02971 -2.23132,1.5c-0.74945,0.53491 -1.52008,0.90089 -2.31604,1.3c-0.79956,0.40089 -1.80701,0.88651 -2.39996,1.2045c-0.81006,0.43445 -1.59747,1.02016 -2.21069,1.52083c-0.64362,0.52551 -1.34003,1.04031 -2.14197,1.4175c-0.80725,0.37967 -1.88861,0.73911 -2.58569,1.05717c-0.6225,0.28406 -1.57635,0.89867 -2.15717,1.34283l-0.90448,0.38249l-0.78937,0.40001" id="svg_1" stroke-width="2" stroke="#000" fill="none"/>
  <path t="6216,6269,6290,6306,6317,6334,6344,6360,6360,6376,6394,6394,6410,6410,6410,6427,6427,6427,6442,6443,6458,6459,6475,6476,6476,6493,6493,6493,6508,6509,6509,6509,6509,6525,6525,6525,6526,6526,6542,6542,6542,6543,6558,6558,6559,6559,6575,6575,6575,6575,6576,6593,6593,6593,6593,6609,6609,6609,6609,6609,6625,6626,6626,6626,6626,6642,6642,6642,6643,6643,6658,6659,6659,6659,6659,6675,6675,6676,6676,6693,6693,6693,6693,6693,6709,6709,6709,6725,6726,6726,6726,6742,6743,6743,6743,6743,6743,6758,6759,6759,6759,6759,6775,6776,6776,6776,6793,6793,6793,6793,6793,6809,6809,6809,6809,6809,6809,6826,6826,6826,6826,6826,6826,6843,6843,6843,6843,6843,6859,6859,6859,6859,6876,6876,6876,6876,6876,6876,6893,6893,6893,6893,6893,6908,6909,6909,6909,6926,6926,6926,6926,6926,6943,6943,6943,6943,6943,6943,6943,6943,6958,6959,6959,6959,6959,6975,6976,6976,6976,6976,6993,6993,6993,6993,6993,7009,7009,7009,7009,7026,7026,7026,7026,7043,7043,7043,7043,7059,7059,7059,7059,7059,7077,7077,7077,7077,7093,7093,7093,7093,7109,7109,7109,7109,7109,7126,7126,7126,7126,7143,7143,7143,7143,7159,7159,7159,7159,7176,7176,7176,7176,7193,7193,7193,7209,7209,7209,7226,7243,7243,7259,7259,7259,7279,7399,7399" d="m334,277c0.19867,-0.00134 0.73788,-0.6102 1.436,-0.96399c0.77133,-0.3909 1.76401,-0.03601 2.664,-0.03601c0.89999,0 1.67633,-0.12625 2.5,-0.57468c0.81079,-0.44141 1.45822,-0.4985 2.45334,-0.70932c0.96979,-0.20547 1.6409,-0.39099 2.61331,-0.54935c0.81555,-0.13281 1.72433,-0.1644 2.73334,-0.16666c0.80002,-0.00177 1.80267,0.04736 2.60001,-0.02084c1.0069,-0.08612 1.80081,-0.43561 2.45715,-0.6265c0.95236,-0.27698 1.78915,-0.33035 2.7045,-0.34818c1.00482,-0.01956 1.72513,0.00153 2.48502,-0.01517c0.8002,-0.01758 1.64291,-0.04855 2.97449,-0.21066c0.92938,-0.11316 1.39328,-0.20541 2.3175,-0.35333c0.89178,-0.14273 2.11795,-0.31024 2.8515,-0.37265c0.68851,-0.05856 1.69586,-0.11325 2.73135,-0.27402c0.73843,-0.11465 1.4971,-0.29102 2.28299,-0.42599c1.19241,-0.2048 1.99484,-0.2793 2.7955,-0.31665c0.79953,-0.03729 1.60001,-0.03217 2.79999,-0.03616c0.80002,-0.00266 1.60104,-0.00244 2.39999,-0.05701c1.20221,-0.08209 2.00226,-0.21667 2.80002,-0.37885c0.80243,-0.16312 1.59924,-0.36841 2.80017,-0.66382c0.80383,-0.19772 1.61853,-0.39066 2.457,-0.543c0.42715,-0.07761 1.76358,-0.24423 2.6955,-0.3045c0.94681,-0.06122 1.42328,-0.06 2.36331,-0.13669c1.3649,-0.11136 2.22778,-0.26822 2.64801,-0.35199c0.82733,-0.16495 1.63412,-0.36752 2.836,-0.66382c0.79965,-0.19714 1.59659,-0.39713 2.39999,-0.543c1.1955,-0.21707 1.99844,-0.27664 2.78934,-0.33185c0.77444,-0.05408 1.53348,-0.05878 2.92535,-0.30933c0.65402,-0.11774 1.57419,-0.39905 2.48532,-0.54935c0.90833,-0.14981 1.56302,-0.16016 2.27151,-0.21933c1.22949,-0.10269 2.18198,-0.23022 2.69098,-0.29999c1.05865,-0.14508 1.59628,-0.2316 2.67084,-0.36334c1.03223,-0.12656 1.99585,-0.20255 2.89468,-0.25867c0.85049,-0.0531 1.67303,-0.07993 2.87198,-0.24667c0.80301,-0.11169 1.59799,-0.29001 2.39999,-0.42599c1.19727,-0.203 2.00104,-0.27298 2.81067,-0.32733c0.41003,-0.02753 1.24905,-0.05182 2.556,-0.19199c0.92218,-0.09891 1.87976,-0.26022 2.375,-0.33334c1.01956,-0.15054 1.54257,-0.24283 3.1795,-0.37866c0.56079,-0.04654 1.12698,-0.0694 2.258,-0.12134c0.55948,-0.0257 1.65347,-0.06235 2.6875,-0.16666c0.96359,-0.0972 1.85089,-0.25757 2.67603,-0.40802c0.7695,-0.14029 1.83545,-0.31287 2.51364,-0.37265c1.03992,-0.09164 1.80017,-0.12021 3.10785,-0.27417c0.48993,-0.05768 1.52298,-0.21152 2.05667,-0.29935c1.07932,-0.17761 1.61444,-0.27069 3.13617,-0.57898c0.47293,-0.09583 1.36926,-0.29825 2.22165,-0.46417c0.81708,-0.15906 2.02069,-0.32263 2.82135,-0.38333c0.79944,-0.06061 1.60345,-0.0733 2.79999,-0.21933c0.80692,-0.09848 1.63391,-0.27182 2.508,-0.48001c0.46457,-0.11066 1.99203,-0.51993 2.55618,-0.6745c0.58917,-0.16144 1.82172,-0.49643 2.45667,-0.65799c0.63843,-0.16245 1.27557,-0.32397 1.91248,-0.45151c1.81647,-0.36368 2.39362,-0.4115 3.48401,-0.508c0.51971,-0.04599 1.51901,-0.08286 2.91602,-0.228c0.44614,-0.04636 1.31186,-0.1788 2.14581,-0.35419c0.81885,-0.17218 2.02109,-0.47821 2.81952,-0.67915c0.79089,-0.19905 1.56677,-0.39465 2.31598,-0.60001c1.06613,-0.29222 2.05685,-0.60152 2.71069,-0.76399c0.65573,-0.16295 1.69522,-0.32617 2.81064,-0.41068c0.77414,-0.05865 1.56903,-0.08022 2.76401,-0.24666c0.80298,-0.11183 1.59799,-0.29004 2.39999,-0.42601c1.19727,-0.20299 1.99844,-0.27213 2.78934,-0.32733c0.77444,-0.05406 1.53094,-0.07129 2.58936,-0.24683c0.67307,-0.11162 1.64651,-0.38966 2.30533,-0.57983c1.03745,-0.29945 1.77649,-0.50327 2.55765,-0.69867c0.81882,-0.20482 2.12418,-0.50389 3.04102,-0.69867c0.46506,-0.0988 1.39417,-0.29401 2.3075,-0.44417c1.27353,-0.20938 2.03897,-0.27528 2.73782,-0.33183c0.65051,-0.05264 1.87787,-0.16611 2.77203,-0.38249c0.60443,-0.14629 1.49921,-0.44661 2.40033,-0.74284c0.92017,-0.30249 1.56891,-0.5099 2.27032,-0.7c1.16748,-0.31639 2.02856,-0.50328 2.90851,-0.67917c0.85687,-0.17126 2.01996,-0.36131 2.66479,-0.43683c0.79254,-0.0928 1.86475,-0.22537 2.64532,-0.50934c0.73431,-0.26715 1.72833,-0.51732 2.53217,-0.79616c0.71869,-0.2493 1.67151,-0.79301 2.46783,-1.16783c0.71924,-0.33856 1.57471,-0.57468 2.50171,-0.61067l-0.09369,0" id="svg_2" stroke-width="2" stroke="#000" fill="none"/>
  <path t="8916,8926,8926,8936,8936,8936,8949,8963,8963,8976,8976,8976,8993,8993,9009,9009,9009,9026,9026,9026,9043,9043,9059,9059,9059,9059,9076,9076,9076,9093,9093,9093,9093,9109,9109,9109,9109,9126,9126,9126,9143,9143,9143,9159,9159,9159,9159,9176,9176,9176,9176,9193,9193,9193,9209,9209,9209,9226,9226,9226,9243,9243,9243,9259,9259,9259,9276,9276,9276,9293,9293,9293,9309,9309,9326,9326,9343,9343,9359,9359,9359,9376,9376,9393,9393,9409,9426,9426,9443,9443,9459,9459,9476,9476,9476,9493,9509,9509,9509,9526,9526,9543,9543,9559,9559,9576,9576,9593,9609,9626,9626,9643,9679,9726,9812" d="m328,241c2.00983,-0.0045 2.79642,0.03381 3.83334,-0.16667c0.71585,-0.13841 1.51254,-0.45796 2.53067,-0.808c0.84531,-0.29062 1.43161,-0.75127 2.40533,-0.94133c0.74216,-0.14487 1.56213,-0.10712 2.54532,-0.368c0.89087,-0.23639 1.88428,-0.6033 2.70618,-0.716c0.66357,-0.09099 1.66315,-0.284 2.47916,-0.5c0.81601,-0.216 1.81763,-0.41338 2.52084,-0.5c1.31311,-0.16176 1.9476,-0.28181 2.62982,-0.42534c0.69916,-0.14708 2.01416,-0.42209 2.84399,-0.52199c0.75458,-0.09085 1.8399,-0.21294 2.47467,-0.33667c1.05365,-0.20538 1.77808,-0.39124 2.86401,-0.54933c0.67902,-0.09885 1.64566,-0.15285 2.26215,-0.16217c1.20422,-0.0182 2.09384,-0.00443 2.94736,-0.0045c1.03598,-0.00009 1.74493,0.0182 2.46698,-0.05716c1.13864,-0.11884 1.79932,-0.299 2.51102,-0.44284c1.09543,-0.22139 2.15631,-0.39429 2.82199,-0.44284c0.94513,-0.06894 1.55594,-0.04387 2.75583,-0.05849c0.88065,-0.01073 1.72748,-0.033 2.71866,-0.28267c0.71365,-0.17976 1.44415,-0.48741 2.65067,-0.63068c0.67969,-0.0807 1.38132,-0.07999 2.69867,-0.08533c0.82352,-0.00333 1.548,-0.00273 2.5,0c0.78601,0.00226 1.6214,-0.04604 2.66669,0.16667c0.95941,0.19524 1.61423,0.55057 2.58783,0.93333c0.78949,0.31038 1.59894,0.54065 2.436,1c0.64828,0.35576 1.46573,0.99734 2.14282,1.39999c0.8353,0.49672 1.474,1.03732 2.3215,1.60017c0.67984,0.45149 1.30524,0.75273 2.07718,1.38382c0.60129,0.49158 1.48529,1.30408 1.95465,1.88c0.63663,0.78114 0.77225,1.6687 1.25732,2.23601c0.64261,0.75153 1.28922,1.27119 1.87201,1.88533c0.67319,0.70941 1.23819,1.49802 1.45599,2.304c0.1929,0.71388 0.61078,1.69101 1.06134,2.37733c0.42792,0.65182 0.81998,1.425 1.2955,2.43333c0.2804,0.59453 0.625,1.59555 0.68365,2.37917c0.07462,0.99693 0.0405,1.78667 0.3735,2.67351c0.26526,0.70639 0.50815,1.72153 0.65182,2.64731c0.12714,0.81909 0.71152,1.5 0.99103,2.40002l0.00449,0.89999l0,0.89999l0.01068,0.88934" id="svg_3" stroke-width="2" stroke="#000" fill="none"/>
  <path t="11402,11579,11579,11602,11609,11626,11642,11660,11677,11692,11711,11711,11812,11840,11856,11870,11886,11892,11909,11939,11948,11948,11959,11977,11992,12017,12026,12042,12059,12076,12092,12092,12109,12109,12126,12126,12142,12159,12176,12176,12192,12209,12209,12226,12226,12242,12259,12259,12276,12276,12292,12309,12326,12326,12342,12342,12359,12376,12376,12392,12392,12409,12426,12442,12442,12459,12459,12459,12476,12492,12509,12531,12547,12559,12559,12576,12592,12609,12609,12626,12709,12786" d="m490,179c-0.05716,1.7 -0.68619,2.42236 -0.94284,3.3c-0.25311,0.86555 0.1871,1.93216 -0.34116,2.616c-0.48471,0.62749 -0.62515,1.38873 -0.71735,2.284c-0.08368,0.81261 -1.24463,1.49538 -0.952,2.364c0.25116,0.74556 1.55334,0.436 2.45334,0.436c0.89999,0 1.79999,0 2.70001,0c0.89999,0 1.79999,0 2.59998,0c0.90002,0 1.8786,0.34305 2.67917,-0.02083c0.77325,-0.35146 1.22534,-0.97691 2.12085,-0.97917c0.89999,-0.00226 1.81088,0.01903 2.72131,-0.00017c0.85388,-0.01799 1.76138,-0.34966 2.43134,-0.64717c0.86575,-0.38446 1.78299,-0.1787 2.7265,-0.37349c0.8671,-0.179 1.61322,-0.91705 2.32083,-0.97784c0.95367,-0.08194 1.86343,0.0515 2.60449,-0.05849c1.00873,-0.1497 1.72485,-0.63739 2.71021,-0.85751c0.86804,-0.19391 1.64246,-0.08533 2.53796,-0.08533c0.86334,0 1.84912,0.03059 2.65186,-0.35266c0.89081,-0.42529 1.56195,-0.47032 2.52881,-0.81401c0.80951,-0.28775 1.59454,-0.75154 2.48804,-1.05466c0.69476,-0.23569 1.65155,-0.6993 2.37415,-0.77417c0.90057,-0.09332 1.65918,-0.56621 2.62598,-0.88316c0.67444,-0.22112 1.68726,-0.26271 2.46783,-0.54668c0.73431,-0.26715 1.72406,-0.50392 2.51068,-0.92732c0.84296,-0.4537 1.38367,-1.04474 2.05719,-1.59467c0.70337,-0.57433 1.38892,-0.91457 2.04285,-1.442c0.74548,-0.60132 1.69983,-0.83217 2.2428,-1.31517l0.38251,-0.8595l0.6792,-0.4315l0.9248,-0.0045" id="svg_4" stroke-width="2" stroke="#000" fill="none"/>
  <path t="18712,18722,18738,18759,18775,18775,18792,18809,18809,18825,18825,18846,18859,18875,18892,18909,18925,18925,18942,18942,18959,18975,18992,18992,19009,19009,19025,19042,19059,19075,19092,19092,19109,19125,19125,19146,19146,19159,19182,19198,19210,19225,19242,19259,19278,19342,19449,19476,19490,19507,19519,19526,19542,19560,19560,19579,19594,19610,19626,19642,19660,19715" d="m490,177c2.58932,0 3.5,0 4.41068,0c0.91064,0 1.76398,0 2.70398,0c0.88535,0 1.64252,0 2.53802,0c0.86331,0 1.82648,0 2.74731,0c0.89999,0 1.80002,0 2.70001,0c0.89999,0 1.65717,0 2.55267,0c0.86331,0 1.83972,0.14528 2.74731,-0.01067c0.83444,-0.14337 1.47238,-0.75813 2.42532,-0.964c0.68353,-0.14766 1.57813,-0.71124 2.47467,-0.96817c0.86694,-0.24844 1.85345,0.12421 2.70001,-0.22383c0.67108,-0.27588 1.42786,-0.75154 2.32135,-1.05466c0.69476,-0.23569 1.65436,-0.67819 2.47729,-0.77734c0.91351,-0.11006 1.4707,-0.69673 2.11737,-1.28532c0.63464,-0.57765 0.96289,-1.42804 1.69464,-1.70534c0.89258,-0.33824 1.38361,-0.82877 2.19067,-1.00934c0.87701,-0.19623 1.79865,-0.00133 2.69867,-0.00133c0.90002,0 1.79999,0 2.70001,0c0.89996,0 1.83643,-0.16815 2.59998,0.08533c0.77216,0.25635 1.5451,0.61653 2.49548,0.91917c0.76135,0.24245 1.20453,0.9955 1.7572,1.64284l0.65186,0.34816" id="svg_6" stroke-width="2" stroke="#000" fill="none"/>
  <path t="31374,31397,31397,31397,31397,31410,31410,31410,31426,31426,31441,31441,31441,31457,31457,31457,31457,31474,31474,31474,31491,31491,31491,31491,31507,31507,31507,31524,31524,31541,31541,31541,31557,31557,31557,31557,31557,31574,31574,31574,31591,31591,31591,31607,31607,31607,31624,31624,31624,31624,31641,31641,31641,31641,31657,31657,31657,31657,31674,31674,31692,31692,31692,31708,31708,31708,31725,31725,31725,31725,31742,31742,31758,31758,31758,31775,31775,31775,31792,31792,31792,31808,31808,31825,31825,31825,31842,31842,31842,31858,31858,31858,31858,31875,31875,31892,31908,31908,31925,31925,31942,31958,31975,31992,32008,32008,32025,32042,32042,32058,32075,32105,32141,32141,32169,32177,32193" d="m148,105c3.73534,9.44933 3.95459,9.99711 4.28133,10.93733c0.26021,0.74876 0.56238,1.8944 0.666,2.601c0.1171,0.79837 0.44305,1.69398 0.854,2.431c0.43617,0.78224 0.69731,1.58207 1.084,2.43333c0.41261,0.90833 0.77109,1.49516 1.28934,2.39734c0.34384,0.59857 0.82437,1.49148 1.18933,2.39999c0.23891,0.59473 0.63422,1.8006 0.836,2.39867c0.29738,0.88139 0.57832,1.72496 1,2.716c0.28546,0.67088 0.63597,1.26707 1.0955,2.28984c0.37733,0.83981 0.5843,1.81703 0.68983,2.64217c0.07672,0.5999 0.33081,1.92586 0.58266,2.63733c0.26476,0.74792 0.60643,1.48158 0.86401,2.23199c0.3607,1.0508 0.45605,1.72263 0.58266,2.63733c0.14952,1.08035 0.33296,1.79771 0.68983,2.69934c0.3851,0.97295 0.62625,1.4942 0.8595,2.358c0.3179,1.17728 0.35593,1.79031 0.436,2.71016c0.05537,0.63611 0.20975,2.00278 0.35716,2.73184c0.15163,0.74986 0.33629,1.49773 0.64284,2.58066c0.19305,0.68201 0.48465,1.63054 0.8,2.48001c0.28601,0.77045 0.75163,1.64351 1.03333,2.68666c0.1606,0.59471 0.21362,1.48123 0.60934,2.42149c0.35338,0.83963 0.79289,1.35527 1.224,2.57851c0.20633,0.58543 0.28108,1.48367 0.416,2.31467c0.16348,1.00688 0.4911,1.6433 0.75066,2.68533c0.1989,0.79851 0.2099,1.69443 0.45201,2.68401c0.20184,0.82497 0.40245,1.36989 0.8145,2.3945c0.36464,0.90671 0.66762,1.50938 0.84749,2.526c0.14969,0.84601 0.26787,1.81842 0.47801,2.62082c0.21571,0.82368 0.46315,1.85223 0.54933,2.56001c0.08807,0.72333 0.233,1.86017 0.38249,2.51549c0.23215,1.01762 0.34865,1.69049 0.93834,2.82767c0.36284,0.69972 0.67004,1.5282 0.98984,2.3555c0.27527,0.71211 0.78609,1.51942 1.41466,2.2115c0.57051,0.62816 1.15012,1.4088 1.3,2.3045c0.14026,0.83818 0.90544,1.32324 0.98933,2.18533c0.09001,0.92505 0.23126,1.78136 0.58533,2.41467c0.48151,0.86127 0.32988,1.84453 0.70934,2.59999c0.43558,0.8672 0.71468,1.60001 0.716,2.5l0,0.90001l0,0.89999" id="svg_8" stroke-width="2" stroke="#000" fill="none"/>
  <path t="33070,33080,33080,33101,33129,33141,33141,33141,33141,33161,33161,33178,33178,33178,33195,33195,33206,33206,33226,33226,33243,33257,33289,33309,33453,33463,33493,33509,33509,33509,33526,33526,33526,33543,33543,33543,33544,33558,33558,33558,33574,33574,33574,33591,33591,33591,33607,33607,33607,33607,33624,33624,33625,33641,33641,33641,33641,33657,33657,33657,33657,33674,33674,33674,33674,33691,33691,33691,33707,33707,33707,33724,33724,33724,33724,33741,33741,33741,33741,33757,33757,33757,33757,33775,33775,33792,33792,33792,33808,33808,33808,33808,33808,33825,33825,33825,33825,33842,33842,33842,33858,33858,33858,33858,33858,33875,33875,33875,33892,33892,33892,33908,33908,33908,33925,33925,33925,33942,33942,33942,33958,33958,33958,33958,33975,33975,33975,33992,33992,33992,34008,34008,34008,34025,34025,34025,34042,34042,34058,34058,34075,34075,34092,34092,34108,34108,34130,34181,34190,34218,34225,34242,34261,34278" d="m148,102c5.77333,-0.284 6.63344,-0.79028 7.5,-0.97916c0.90115,-0.19642 1.84077,-0.34109 2.50983,-0.73067c0.51695,-0.30101 1.29015,-0.83757 2.30484,-1.4035c0.6539,-0.3647 1.68272,-0.73564 2.48534,-0.86134c0.79771,-0.12492 1.5925,-0.33083 2.39999,-0.6c0.99135,-0.33046 1.77901,-0.41491 2.7785,-0.42533c0.82011,-0.00854 1.7215,0 2.62151,0c0.89999,0 1.79999,-0.00067 2.7,0c0.89867,0.00067 1.60001,0.37608 1.86667,1.16666c0.30168,0.89445 0.65289,1.51292 1.03333,2.52c0.21014,0.55627 0.50891,1.47238 0.8,2.48c0.20633,0.7142 0.38602,1.452 0.7,2.52351c0.28726,0.98032 0.58461,1.80236 0.90001,2.48849c0.38156,0.83006 0.81339,1.62595 1.09999,2.2785c0.41982,0.95587 0.70406,1.77744 1,2.64733c0.30418,0.89409 0.58812,1.79734 0.82083,2.37466c0.34077,0.84545 0.95943,1.83965 1.3045,2.2955c0.51645,0.68224 1.17482,1.63703 1.54933,2.472c0.26611,0.59331 0.49619,1.24565 0.94667,2.27467c0.32199,0.7355 0.68402,1.4762 1.026,2.226c0.49374,1.0825 0.89754,2.09023 1.13184,2.71101c0.3223,0.85395 0.72083,1.85766 1.02083,2.54166c0.3,0.68401 0.70612,1.68317 1,2.52083c0.20425,0.5822 0.5954,1.78098 0.8045,2.38367c0.32411,0.9341 0.56328,1.58841 1.017,2.61667c0.32326,0.7326 0.68069,1.46838 1.08299,2.16901c0.56953,0.99188 0.98511,1.54648 1.57468,2.26816c0.52747,0.64565 1.16022,1.42751 1.61017,2.24167c0.43497,0.78705 0.82132,1.62134 1.16783,2.31433c0.4095,0.819 0.89738,1.79684 1.26366,2.5065c0.18849,0.3652 0.56049,1.10806 1.17917,2.1575c0.58141,0.98621 0.98543,1.58569 1.40001,2.13501c0.77335,1.02466 1.22275,1.45375 1.79999,2.19649c0.62524,0.8045 1.00345,1.45618 1.40001,2.14084c0.4035,0.69664 0.74867,1.41727 1.59999,2.57867c0.37793,0.51559 0.99774,1.16391 1.8,1.97066c0.3989,0.40112 1.00151,0.99849 1.8,1.8c0.59663,0.59888 1.20033,1.17096 1.83333,2c0.44014,0.57646 0.85143,1.41339 1.65334,2.11734c0.51567,0.45268 1.21947,0.82788 1.93468,1.42549c0.82742,0.69138 1.35541,1.2404 1.89465,1.77451c0.76547,0.75819 1.44801,1.44667 1.87334,1.87199c0.81067,0.81067 1.42497,1.39342 1.97467,2.01067c0.69371,0.77896 1.06166,1.41412 1.58867,2.2c0.5466,0.81508 1.06519,1.3965 1.59467,1.94284c0.75809,0.78223 1.386,1.38191 2.13666,1.85716c0.67436,0.42694 1.51944,0.87141 2.2115,1.5c0.63284,0.5748 1.19063,1.09877 2.11917,1.7c0.61653,0.3992 1.16032,1.22165 1.61067,2c0.41759,0.72174 0.85866,1.51601 1.52199,1.95267l0.55267,0.64734l0.52533,0.57466l0.69067,0.50934" id="svg_9" stroke-width="2" stroke="#000" fill="none"/>
  <path t="36730,36761,36777,36792,36807,36824,36824,36840,36840,36857,36874,36874,36874,36890,36890,36890,36907,36907,36907,36907,36924,36924,36940,36940,36940,36957,36957,36957,36957,36974,36974,36974,36974,36974,36990,36990,36990,36990,36990,37007,37008,37024,37024,37024,37024,37040,37040,37040,37057,37057,37057,37057,37074,37074,37074,37090,37090,37090,37090,37107,37107,37107,37124,37124,37140,37140,37140,37157,37157,37157,37174,37174,37174,37174,37174,37190,37190,37190,37207,37207,37207,37224,37225,37225,37240,37240,37240,37257,37257,37257,37274,37274,37274,37274,37290,37290,37290,37290,37307,37307,37307,37324,37324,37324,37324,37340,37340,37340,37341,37357,37357,37357,37357,37357,37357,37374,37374,37374,37374,37375,37390,37390,37390,37391,37407,37407,37407,37407,37408,37424,37425,37425,37425,37441,37441,37441,37441,37458,37458,37458,37458,37458,37474,37474,37474,37475,37475,37490,37490,37491,37491,37507,37507,37507,37508,37528,37528,37528,37529,37529,37544,37544,37545,37545,37545,37557,37557,37557,37557,37557,37557,37576,37577,37577,37577,37577,37593,37593,37593,37593,37610,37610,37610,37610,37627,37627,37627,37627,37643,37643,37643,37643,37643,37660,37660,37660,37660,37677,37677,37677,37693,37693,37693,37693,37693,37707,37707,37707,37727,37727,37727,37740,37740,37740,37761,37761,37761,37776,37777,37777,37793,37793,37793,37810,37810,37810,37827,37827,37827,37840,37840,37860,37860,37860,37860,37877,37877,37877,37893,37893,37909,37909,37909,37909,37927,37927,37927,37943,37943,37960,37961,37977,37977,37993,37993,38010,38027,38057,38057,38081,38101,38117,38133,38153,38161,38177,38193,38193,38213,38229,38253,38333,38437,38470,38609,38646,38647,38682,38710,38725,38769,38889,38956,38997,39017,39017,39033,39057,39069,39093,39138,39169,39170,39339,39412,39423,39446,39462,39477,39493,39494,39510,39510,39525,39526,39544,39545,39545,39562,39563,39563,39601" d="m6,240c1.8,0 2.7,0 3.6,0c0.81067,0 1.73017,0.0916 2.57467,-0.036c0.96126,-0.14523 1.59359,-0.80956 2.49733,-0.95334c0.86025,-0.13687 1.6,-0.01067 2.437,-0.01067c1.191,0 1.791,0 2.691,0c1.2,0 1.79867,0 2.67917,0c0.8355,0 1.83683,0 2.74617,0c0.94133,0 1.73183,0 2.58533,0c1.18933,0 1.792,0 2.731,0c0.67267,0 1.79167,0 2.62767,0c0.892,0 1.816,0 2.2825,0c1.3815,0 2.26032,-0.00758 3.09084,0.01067c0.77489,0.01703 1.49904,0.00455 2.688,0.27333c0.75987,0.17178 1.93252,0.57837 2.7265,0.65884c0.56195,0.05696 1.44416,0.05649 2.64417,0.05716c0.60933,0.00034 1.55583,0 2.56533,0c0.716,0 1.8125,0 2.5235,0c0.9765,0 1.8045,0 2.81517,0c0.828,0 1.8,0 2.49467,0c1.032,0 1.95788,0.0276 2.728,-0.01067c0.87146,-0.0433 1.86316,-0.38387 2.72916,-0.63667c0.95177,-0.27783 1.76776,-0.33055 2.59017,-0.34816c1.03144,-0.02209 1.75029,0.00664 2.51967,-0.06166c0.93572,-0.08307 1.68531,-0.22502 2.509,-0.36818c0.84834,-0.14745 1.66651,-0.33412 3.06934,-0.48933c0.81061,-0.08969 1.536,-0.08466 2.54,-0.08533c0.8355,-0.00055 1.716,0 2.61467,0c0.89999,0 1.8,0.00226 2.7,0c0.89551,-0.00226 1.77492,0.03409 2.83334,-0.16667c0.72918,-0.13831 1.41564,-0.46596 2.5,-0.66666c0.63063,-0.11671 1.68847,-0.15459 2.4185,-0.21935c1.08324,-0.09608 1.7644,-0.22441 2.72733,-0.44733c0.61737,-0.14291 1.81983,-0.38858 2.72083,-0.47467c0.59941,-0.05727 1.8036,-0.17538 2.7,-0.37799c0.60262,-0.13622 1.49518,-0.39272 2.4005,-0.52617c0.92755,-0.13673 1.61124,-0.15915 2.3555,-0.2905c1.31608,-0.23227 1.79813,-0.39578 2.83067,-0.68134c0.53458,-0.14784 1.60977,-0.45509 2.14667,-0.58134c1.51661,-0.35664 2.45187,-0.4626 2.89467,-0.50665c0.84986,-0.08455 1.67344,-0.11215 2.872,-0.28284c0.80331,-0.1144 1.60147,-0.29303 2.4,-0.483c1.20229,-0.28603 1.99822,-0.50179 2.8,-0.68483c0.79831,-0.18227 1.59629,-0.35524 2.79984,-0.48933c0.79372,-0.08844 1.58038,-0.10786 2.343,-0.17401c1.09234,-0.09474 2.11072,-0.29761 2.778,-0.46815c0.69085,-0.17657 1.8103,-0.48869 2.64849,-0.67784c0.88979,-0.20079 1.34863,-0.29774 2.2825,-0.44417c1.37775,-0.216 2.26137,-0.27516 2.68651,-0.30449c0.81973,-0.05653 1.98062,-0.09851 3.04033,-0.27417c0.67311,-0.11157 1.64651,-0.38971 2.30533,-0.57983c1.03726,-0.29935 1.77049,-0.50571 2.53683,-0.67784c0.78111,-0.17546 1.97803,-0.36607 2.77917,-0.43683c0.79904,-0.07057 1.60135,-0.093 2.39999,-0.168c1.2029,-0.11296 2.01012,-0.26761 2.84167,-0.43683c0.87387,-0.17784 1.32692,-0.29091 2.80099,-0.57901c0.52461,-0.10254 1.60741,-0.29326 2.15733,-0.37933c1.09352,-0.17116 1.62918,-0.26437 3.157,-0.39932c0.92728,-0.08191 1.3708,-0.09332 2.22166,-0.11084c0.81854,-0.01686 2.02116,-0.01067 2.81683,-0.01067c0.78368,0 1.54735,0.00456 2.98317,-0.00017c0.66869,-0.00221 1.64828,-0.01755 2.30533,-0.08516c1.04105,-0.10712 1.77702,-0.27081 2.55768,-0.41467c0.81932,-0.15099 2.12395,-0.34622 3.041,-0.41467c0.46506,-0.03471 1.39641,-0.07106 2.3075,-0.08083c1.27644,-0.01369 2.03783,-0.0045 2.72717,-0.0045c0.91649,0 1.96165,0 2.92433,0c0.81299,0 1.82254,-0.00526 2.62083,0.0045c0.85841,0.0105 1.29916,0.00781 2.17082,0.08083c1.22675,0.10275 2.28389,0.3405 2.90933,0.48933c1.09047,0.25951 2.03151,0.40346 2.71001,0.42084c0.96837,0.02481 1.77608,-0.02641 2.59467,0.06166c1.03831,0.11171 1.94182,0.48077 2.63667,0.65884c0.98889,0.25342 1.83667,0.27226 2.71733,0.28267c0.89844,0.0106 1.78799,0.00125 2.64149,0.00133c1.03583,0.00009 1.73758,-0.04111 2.64117,0.08533c1.0097,0.14128 1.80963,0.44034 2.63199,0.63068c0.99329,0.2299 1.68387,0.27357 2.85068,0.284c0.79047,0.00705 1.644,0 2.23466,0c1.19733,0 2.07784,0 2.91333,0c1.00133,0 1.68533,0 2.85201,0c0.7905,0 1.644,-0.00032 2.23466,0c1.196,0.00067 2.06644,-0.05122 2.828,0.08533c0.98167,0.17601 1.63263,0.73158 2.60666,0.87868c0.75754,0.1144 1.76401,0.036 2.564,0.036c0.99867,0 1.76401,0 2.84283,0c0.85718,0 1.75717,0 2.55717,0c0.89999,0 1.8,0 2.7,0c0.89999,0 1.8,0 2.7,0c0.90001,0 1.8,0 2.60001,0c0.89999,0 1.8,0 2.7,0c0.97917,0 1.85716,0 2.7,0c0.90001,0 1.8,0 2.60001,0c0.89999,0 1.8,0 2.7,0c0.89999,0 1.8,0 2.7,0c0.90001,0 1.8,0 2.59999,0c0.90002,0 1.81921,-0.16522 2.70001,0.02083c0.84738,0.17899 1.59387,0.91829 2.5,0.97917c0.79819,0.05363 1.45203,0.33629 2.22134,0.87849c0.65302,0.46024 1.08908,0.88586 1.72598,1.47417c0.58725,0.54243 1.16397,1.08269 1.65268,1.83267c0.51196,0.78568 1.04306,1.4115 1.60001,2.3c0.32599,0.52007 0.83029,1.50081 1.18933,2.32533c0.27725,0.63667 0.48932,1.6105 0.58533,2.40399l0.078,0.77551l0.22998,1.0365" id="svg_10" stroke-width="2" stroke="#000" fill="none"/>
  <path t="46733,46743,46743,46743,46743,46743,46743,46759,46759,46775,46775,46792,46792,46792,46792,46809,46809,46809,46809,46809,46825,46825,46825,46825,46825,46825,46842,46842,46842,46842,46859,46859,46859,46859,46875,46875,46875,46875,46892,46892,46892,46907,46907,46907,46907,46923,46923,46923,46923,46940,46940,46940,46940,46940,46957,46957,46957,46957,46957,46973,46973,46973,46990,46990,46990,46990,47007,47007,47007,47007,47007,47023,47023,47023,47023,47040,47040,47040,47040,47057,47057,47057,47057,47058,47073,47073,47073,47073,47073,47073,47090,47090,47090,47090,47090,47090,47107,47107,47107,47107,47107,47123,47123,47123,47123,47140,47140,47141,47141,47141,47157,47158,47158,47158,47158,47158,47174,47174,47174,47174,47174,47191,47191,47191,47192,47192,47207,47207,47207,47208,47208,47223,47223,47223,47223,47223,47224,47224,47240,47240,47240,47240,47240,47241,47241,47241,47257,47257,47257,47258,47258,47258,47273,47274,47274,47274,47274,47291,47291,47291,47291,47291,47308,47308,47308,47308,47308,47308,47324,47324,47324,47324,47324,47341,47341,47341,47341,47341,47358,47358,47358,47358,47358,47358,47374,47374,47374,47374,47374,47391,47391,47391,47391,47408,47408,47408,47408,47425,47425,47425,47425,47441,47441,47441,47441,47458,47458,47458,47458,47477,47477,47478,47478,47478,47491,47491,47491,47491,47508,47508,47508,47508,47524,47524,47524,47524,47541,47541,47541,47541,47541,47558,47558,47558,47574,47575,47575,47591,47591,47591,47608,47608,47608,47624,47624,47624,47641,47641,47641,47658,47658,47674,47674,47674,47691,47691,47691,47709,47709,47709,47709,47724,47724,47741,47741,47741,47758,47758,47774,47774,47774,47791,47791,47808,47808,47910,48493" d="m9,251c16.33333,-0.83333 17.35561,-0.88 18.232,-0.91467c0.74428,-0.02945 1.89289,-0.07108 2.68167,-0.08083c1.11692,-0.01381 1.969,-0.0045 2.94367,-0.0045c0.6615,0 1.78567,0 2.457,0c0.72733,0 1.49466,0 2.68567,0c0.80267,0 1.62133,0 2.472,0c0.89867,0 2.3705,0 2.89466,0c1.07333,0 1.6125,0 2.67083,0c0.50917,0 1.89817,0 2.6955,0c0.72533,0 1.74833,0 2.78833,0c0.73133,0 1.47867,-0.00005 2.226,0c1.43117,0.00009 2.09652,-0.01797 3.042,0.036c0.61033,0.03484 1.81141,0.24486 2.41067,0.38934c0.90115,0.21727 2.0986,0.47017 2.7045,0.5175c0.92982,0.07265 1.58083,0.05649 2.98217,0.05716c0.76,0.00037 1.56,0 2.4,0c0.88,0 1.79733,0 2.73866,0c0.47467,0 1.422,0 2.80801,0c0.88,0 1.72,0 2.52,0c0.76,0 1.82516,0 2.4895,0c0.9465,0 2.15717,0 2.75983,0c0.939,0 1.61166,0 2.73067,0c0.83466,0 1.71733,0 2.616,0c0.88267,0 1.71733,0 2.84084,0c0.689,0 1.358,0 2.73133,0c0.73566,0 1.49934,0 2.283,0c1.1955,0 1.99817,0 2.81683,0c0.85067,0 1.74934,0 2.71201,0c1.036,0 1.5765,0 2.6875,0c0.5645,0 1.131,0.00026 2.8125,0c0.545,-0.00009 1.60505,-0.00107 2.12,-0.01067c1.00014,-0.01865 1.96327,-0.04506 3.32517,-0.21066c0.43742,-0.05319 1.28505,-0.20653 2.11083,-0.35333c0.8089,-0.14381 2.00967,-0.31779 2.81066,-0.36818c0.79925,-0.05028 1.6,-0.0549 2.8,-0.05716c0.80267,-0.00151 1.62133,0 2.472,0c0.89867,0 1.86134,0.0024 2.896,-0.00133c0.53735,-0.00194 1.63216,-0.01457 2.18134,-0.03467c1.08307,-0.03963 2.11951,-0.11398 3.08,-0.248c0.90099,-0.12572 1.74857,-0.29517 2.16167,-0.36334c1.20689,-0.19917 2.00967,-0.27956 2.81967,-0.31667c0.82486,-0.03778 1.67467,-0.03532 3.011,-0.036c0.93999,-0.00047 1.42499,0 2.42499,0c0.515,0 2.12001,0.00096 2.67517,-0.00017c1.14433,-0.00233 1.73558,-0.00684 2.34067,-0.02066c1.25653,-0.02872 1.91026,-0.05261 3.27083,-0.14584c0.70963,-0.04863 1.43365,-0.11546 2.16751,-0.19049c0.7395,-0.07561 1.47881,-0.15982 2.21249,-0.25351c1.43431,-0.18315 2.78694,-0.3876 3.422,-0.48917c0.60759,-0.09718 1.74573,-0.29111 2.28134,-0.37933c1.01216,-0.16672 2.41609,-0.36012 2.86183,-0.39932c0.86339,-0.07593 1.70056,-0.10732 2.517,-0.117c1.20442,-0.0143 2.00717,-0.0045 2.82584,-0.0045c0.85066,0 1.74933,0 2.71199,0c1.03467,0 1.57201,0 2.66667,0c0.54933,0 1.632,0 2.66667,0c0.96266,0 1.86133,0 2.71199,0c0.81866,0 2.02167,0 2.83034,0c0.83267,0 1.263,0 2.16167,0c1.472,0 1.99733,0 3.08,0c0.54933,0 1.644,0 2.18134,0c1.52499,0 1.99733,0 2.896,0c0.85066,0 1.66933,0 2.87183,0c0.79567,0 1.57935,0 2.343,0c1.43584,0 2.10451,0 2.75717,0c0.98399,0 2.02139,0.00565 2.75267,-0.0045c0.74744,-0.01038 1.86845,-0.0455 2.92599,-0.21683c0.67267,-0.10898 1.64296,-0.37184 2.30533,-0.49467c1.03271,-0.19151 1.77727,-0.23723 2.55768,-0.26317c0.8197,-0.02725 2.125,-0.02083 3.041,-0.02083c0.93199,0 1.3965,0 2.3075,0c1.2765,0 2.0405,0 2.7485,0c1.00949,0 2.028,0 2.74533,0c0.74133,0 1.86333,0.00105 2.94933,0c0.68401,-0.00067 1.68848,-0.00551 2.37651,-0.05716c1.12564,-0.0845 1.9574,-0.22337 2.83015,-0.36818c0.43947,-0.07292 1.2926,-0.25635 2.79567,-0.45316c0.5957,-0.078 1.3683,-0.11617 2.58583,-0.12151c0.81448,-0.00357 1.38918,0 2.57851,0c0.89549,0 1.76401,0 2.83333,0c0.714,0 1.392,0 2.58801,0c0.80399,0 1.62599,0 2.65717,0c0.6855,0 1.52016,0 2.526,0c0.85266,0 1.81683,0 2.62082,0c0.82201,0 1.8535,0 2.7955,0c0.7485,0 1.62206,0.01285 2.62984,-0.01067c0.69894,-0.01631 1.39714,0.00427 2.57867,-0.27333c0.96652,-0.2271 1.76431,-0.59698 2.57065,-0.68001c0.79657,-0.08203 1.8045,-0.03592 2.65717,-0.036c0.96402,-0.00009 1.76343,0.04915 2.53302,-0.05716c1.05493,-0.14572 1.758,-0.59018 2.66251,-0.88568l0.86331,-0.05583l0.96317,-0.00133l0.91019,0" id="svg_12" stroke-width="2" stroke="#000" fill="none"/>
  <path t="49783,49940,49970,49974,49974,49992,50007,50007,50023,50023,50023,50040,50057,50057,50057,50073,50073,50073,50090,50090,50090,50107,50107,50123,50123,50140,50140,50157,50157,50173,50190,50245,50261,50269,50269,50273,50290,50290,50307,50307,50323,50323,50323,50340,50340,50340,50340,50357,50357,50357,50373,50393,50393,50409,50423,50440,50457,50457,50457,50473,50473,50473,50474,50490,50490,50490,50490,50507,50507,50507,50507,50524,50524,50524,50540,50540,50541,50541,50557,50557,50574,50574,50574,50614,50642,50645" d="m122,250c-1.084,1.71466 -1.78481,2.26299 -2.16666,3c-0.39063,0.75395 -0.7427,1.5526 -1.12,2.48399c-0.29243,0.72188 -0.85023,1.3886 -1.53867,1.88002c-0.66419,0.47412 -1.59674,1.0014 -2.17467,1.80264c-0.45938,0.6369 -0.71912,1.26678 -1.48534,2.23468c-0.33455,0.42261 -0.944,1.03586 -1.71433,2.01984c-0.40464,0.51688 -0.99519,1.2818 -1.467,2.24548c-0.31877,0.65112 -0.51916,1.67154 -0.85417,2.33334c-0.43416,0.85767 -1.01412,1.4469 -1.67783,2.20132c-0.46997,0.53421 -0.40604,1.58804 -0.96799,2.46533c-0.44949,0.70172 -0.55135,1.29062 0.26683,1.33334c0.7841,0.04095 1.72517,0 2.73317,0c0.792,0 1.65642,0.04071 2.41333,-0.03601c1.1833,-0.11996 1.98646,-0.40088 2.564,-0.53867c1.18391,-0.28247 1.788,-0.36246 2.68933,-0.40448c0.89924,-0.04193 1.79967,-0.02084 2.67867,-0.02084c0.807,0 2.07246,0.19199 2.82133,-0.16666c0.75594,-0.36203 0.98734,-1.33319 1,-2.23334c0.01272,-0.90442 0.14632,-1.77527 0.44666,-2.45734c0.29527,-0.67053 0.87265,-1.78659 1.2105,-2.45251c0.36133,-0.71219 0.73203,-1.45056 1.34283,-2.5235c0.3903,-0.68561 0.78526,-1.33008 1.2,-1.91998c0.77299,-1.09952 1.2123,-1.55136 1.77917,-2.24667c0.5489,-0.67328 1.03114,-1.4072 1.38483,-2.23599c0.36487,-0.85503 0.63293,-1.76505 0.936,-2.6595c0.198,-0.58437 0.47591,-1.42915 0.89999,-2.41917c0.37871,-0.88409 0.78627,-1.69244 1.2,-2.47467c0.38727,-0.73221 0.89551,-1.45349 1.43333,-2.21066l0.16667,-0.91467" id="svg_13" stroke-width="2" stroke="#000" fill="none"/>
  <path t="51423,51633,51643,51678,51678,51691,51691,51706,51706,51706,51722,51722,51723,51739,51739,51755,51755,51756,51756,51773,51773,51773,51789,51789,51806,51822,51822,51873,51930,51957,51969,51977,51990,51990,52006,52023,52023,52023,52040,52040,52056,52073,52073,52090,52129,52133,52141,52156,52173,52173,52190,52190,52190,52206,52206,52206,52206,52223,52223,52223,52223,52240,52240,52240,52240,52256,52256,52256,52273,52273,52273,52273,52290,52290,52306,52306,52306,52323,52323,52406,52406" d="m184,246c-0.16667,1.83333 -0.89149,2.21979 -1.00017,3.10017c-0.09676,0.78381 -0.36443,1.5583 -0.70433,2.3615c-0.40456,0.95596 -0.68562,1.77254 -0.9315,2.313c-0.49039,1.0779 -0.99677,1.78111 -1.53867,2.37865c-0.63599,0.70126 -1.35173,1.34656 -1.992,2.18002c-0.50743,0.66055 -0.84494,1.18008 -1.34933,1.98398c-0.47333,0.75436 -0.99261,1.64343 -1.19733,2.28134c-0.31287,0.97495 -0.23494,1.98599 -0.72267,2.76535c-0.45094,0.72058 -1.31944,1.17041 -1.54317,2.13599c-0.2032,0.87701 -0.27443,2.06711 0.41518,2.46399c0.74966,0.43143 1.59575,0.37192 2.364,0.75201c0.81905,0.40524 1.74387,0.25244 2.7,0.30484c0.73373,0.04019 1.65363,0.4122 2.38266,0.69516c0.90871,0.35269 1.95067,0.284 2.70668,0.284c0.91066,0 2.0529,0.18246 2.38983,-0.52084c0.38008,-0.79337 0.47374,-1.71997 0.85416,-2.47916c0.38527,-0.76886 0.59714,-1.55051 1.03867,-2.272c0.3398,-0.55527 1.12801,-1.728 1.528,-2.328c0.40001,-0.60001 0.79939,-1.20038 1.60001,-2.39999c0.39969,-0.59888 0.79022,-1.19626 1.2,-1.76401c0.78157,-1.08289 1.2123,-1.54068 1.77917,-2.23599c0.5489,-0.67328 1.15228,-1.67804 1.38483,-2.23599c0.35764,-0.85808 0.63293,-1.76505 0.936,-2.6595c0.198,-0.58437 0.47591,-1.42915 0.89999,-2.41917c0.37871,-0.88409 0.78627,-1.69244 1.2,-2.47467c0.38727,-0.73221 0.90451,-1.45799 1.48534,-2.09467l0.76283,-0.75966l0.49051,-0.459" id="svg_14" stroke-width="2" stroke="#000" fill="none"/>
  <path t="54930,54940,54940,54940,54940,54940,54940,54940,54940,54961,54961,54961,54961,54961,54961,54961,54969,54969,54977,54993,55006,55006,55022,55040,55040,55040,55055,55056,55072,55073,55073,55089,55090,55106,55106,55122,55122,55140,55140,55155,55156,55173,55190,55190,55206,55222,55223,55239,55240,55256,55256,55273,55290,55290,55306,55306,55322,55339,55340,55356,55356,55373,55373,55390,55406,55406,55422,55449,55533,55533,55543" d="m43,250c3.53467,1.32834 4.32559,1.70343 5.17933,2.125c0.90103,0.44492 1.82306,0.91209 2.742,1.395c0.9017,0.47385 1.77272,0.91632 3.24533,1.81332c0.6045,0.36821 1.10253,0.71388 1.5045,1.03349c0.33969,0.27011 0.62354,0.50903 0.97934,0.95801c0.69843,0.88135 1.07254,1.56323 1.8495,2.15433c0.7377,0.56122 1.63879,0.90604 2.3,1.23685c0.81726,0.40887 1.74283,0.284 2.72083,0.284c0.7965,0 1.79599,-0.03601 2.45833,0.02084c1.02742,0.08817 1.8047,0.45346 2.62083,0.69516c0.98415,0.29147 1.81541,0.27798 2.8,0.56799c0.61171,0.18018 1.5932,0.60071 2.38933,0.67999c1.03949,0.10352 1.85201,0.02216 2.69467,0.32001c0.7065,0.24973 1.75741,0.68741 2.61617,0.716c0.78473,0.02612 1.72543,-0.02289 2.73317,0c0.79261,0.01801 1.64337,0.30197 2.34133,0.57468c0.93221,0.36423 1.70934,0.42465 2.65067,0.42532c1.008,0.00073 1.8,0 2.65867,0c0.86333,0 1.89066,0 2.83733,0c0.67867,0 1.65733,0 2.56267,0c0.94133,0 1.632,0 2.616,0c0.984,0 1.67467,0 2.74284,0c0.85716,0 1.75716,0 2.55717,0l0.89999,0" id="svg_15" stroke-width="2" stroke="#000" fill="none"/>
  <path t="56153,56163,56163,56163,56163,56177,56177,56190,56206,56223,56223,56223,56240,56240,56258,56258,56258,56276,56276,56290,56290,56290,56306,56306,56306,56306,56323,56323,56340,56357,56357,56373,56374,56390,56406,56433,56453,56477,56485,56505,56529" d="m126,264c13.62033,-0.87851 14.2892,-0.9176 14.85234,-0.94284c1.17273,-0.05258 2.12616,-0.05716 2.84315,-0.05716c0.90451,0 1.84618,0 2.84734,0c0.71851,0 1.509,0 2.53568,0c0.90067,0 1.92149,0 2.7215,0c0.8,0 1.8045,0.00003 2.43599,0c1.1855,-0.00009 2.00113,0.00809 2.57468,-0.03601c1.19296,-0.09171 2.08525,-0.31497 2.6685,-0.46399c0.83611,-0.21362 2.05792,-0.46719 2.85916,-0.49551c0.90845,-0.0321 1.82834,-0.00449 2.66167,-0.00449c0.9785,0 1.6955,0 2.60001,0c0.89999,0 1.79999,0 2.7,0c0.89999,0 1.79984,0.00015 2.616,0.284l0.52,0.67999" id="svg_16" stroke-width="2" stroke="#000" fill="none"/>
  <path t="57440,57450,57470,57478,57492,57507,57523,57541,57541,57556,57556,57556,57573,57574,57590,57590,57590,57606,57606,57606,57623,57623,57656,57656,57656,57673,57673,57673,57673,57690,57690,57690,57706,57706,57723,57723,57723,57740,57756,57773,57773,57790,57790,57790,57806,57806,57823,57823,57840,57840,57856,57856,57856,57873,57890,57890,57906,57923,57923,57940,57956,57956,57973,57973,57990,57990,57990,58006,58006,58023,58023,58040,58113,58410,58653,58663,58663,58692,58692,58708,58708,58708,58726,58726,58726,58740,58741,58741,58757,58757,58757,58774,58774,58791,58791,58807,58825,58861" d="m190,263c2.58934,0 3.5,0 4.39999,0c0.90001,0 1.8,0 2.70001,0c0.89999,0 1.71432,0 2.668,0c0.73199,0 1.46399,0 2.592,0c0.69333,0 1.69333,0 2.66083,0c0.67834,0 1.93617,0 2.70717,0c0.66301,0 1.67334,0 2.508,0c1.18567,0 1.72568,0 2.61067,0c1.32001,0 2.036,0 2.76801,0c0.724,0 2.052,0 2.61467,0c0.94933,0 1.9733,-0.04736 2.77066,0.02084c1.0069,0.08612 1.77385,0.44656 2.51466,0.69516c0.94781,0.31805 1.78984,0.284 2.80684,0.284c0.69933,0 1.6785,0 2.4785,0c0.8,0 1.8,0 2.59999,0c1,0 1.80009,0.01285 2.8,-0.00015c0.8002,-0.01041 1.80875,-0.1412 2.58934,-0.42517c0.73431,-0.26715 1.71049,-0.56424 2.69466,-0.57468c0.69063,-0.00732 1.75883,0 2.61618,0c0.78516,0 1.72516,0 2.73315,0c0.79201,0 1.65643,0.04077 2.41335,-0.03601c1.18298,-0.12003 1.71544,-0.28122 2.49199,-0.57465c1.14198,-0.43152 1.69504,-0.98346 2.5825,-1.26801c0.79089,-0.25357 1.53522,-0.84744 2.28951,-1.11066c0.82007,-0.28619 1.60518,-0.39944 2.38933,-0.84402c0.65472,-0.37119 1.28995,-0.89069 1.75717,-1.57565c0.54755,-0.80273 1.07162,-1.39789 1.64734,-1.991c0.7858,-0.80954 1.39551,-1.39998 1.99548,-2c0.7999,-0.79996 1.21429,-1.18274 1.76401,-1.8c0.69373,-0.77896 1.17838,-1.60275 1.63467,-2.31467c0.47903,-0.74742 1.00546,-1.36665 1.50131,-2.1335c0.50421,-0.77979 1.26401,-1.3665 1.69553,-2.05634l-0.03152,-0.8595" id="svg_17" stroke-width="2" stroke="#000" fill="none"/>
  <path t="61506,62266,62298,62314,62314,62329,62340,62357,62374,62374,62390,62390,62390,62390,62407,62407,62407,62407,62424,62424,62440,62440,62440,62457,62457,62457,62474,62474,62474,62490,62490,62507,62507,62507,62524,62524,62524,62540,62557,62557,62574,62574,62574,62590,62590,62607,62607,62624,62624,62640,62640,62640,62657,62657,62674,62674,62690,62690,62706,62706,62706,62723,62739,62756,62801,62821,62949,62949" d="m268,241c-0.7785,0.87849 0.10001,1 1,1c0.79999,0 1.70001,0 2.60001,0c0.92084,0 1.888,0 2.68265,0c1.05069,0 1.68668,0 2.37869,0c1.09048,0 2.172,0 2.85199,0c0.94501,0 1.79999,0 2.80267,0c0.68399,0 1.85065,0 2.63666,0c0.82199,0 1.88068,0 2.59467,0c0.90533,0 1.87399,0 2.67801,0c0.82199,0 1.85315,0 2.75381,0c1.02084,0 1.83151,0 2.478,0c0.96402,0 1.75751,0 2.7735,0c0.9595,0 1.936,0 2.60535,0c1.164,0 1.96399,0 2.76401,0c1,0 1.79999,0 2.79999,0c0.80002,0 1.80002,0 2.60001,0c1,0 1.79999,0 2.60001,0c1,0 1.79999,0 2.79999,0c0.80002,0 1.80002,0 2.60001,0c1,0 1.78934,0 2.51468,0c0.96448,0 1.88531,0 2.78531,0c0.90002,0 1.80002,0.00017 2.70001,0.16667l0.64282,0.48067" id="svg_18" stroke-width="2" stroke="#000" fill="none"/>
  <path t="64271,64353,64783,64793,64826,64826,64842,64842,64858,64858,64875,64889,64889,64906,64906,64923,64923,64923,64939,64956,64973,64973,64973,64989,64989,65006,65023,65023,65039,65057,65139" d="m321,241c4.29199,0 5.20001,0 6.10001,0c0.89999,0 1.65717,0 2.55716,0c0.74734,0 1.74152,0 2.68567,0c0.90451,0 1.82382,0 2.65717,0c0.97882,0 1.66135,0 2.76801,0c0.73199,0 1.46399,-0.00084 2.56,0c0.87332,0.00067 1.83789,0.16861 2.508,0.42534c0.76447,0.29288 1.75815,0.54218 2.50684,0.57016c1.03113,0.03853 1.97849,0.0045 2.83182,0.0045l0.94,0l0.88535,0l0.83334,0.16667" id="svg_19" stroke-width="2" stroke="#000" fill="none"/>
  <path t="67583,67593,67593,67593,67593,67593,67593,67593,67593,67609,67609,67626,67626,67626,67639,67639,67639,67639,67656,67656,67657,67673,67674,67674,67674,67689,67689,67689,67689,67706,67706,67706,67706,67723,67723,67723,67739,67739,67739,67758,67758,67758,67773,67773,67773,67789,67789,67789,67789,67789,67806,67806,67806,67823,67823,67823,67838,67838,67839,67856,67856,67856,67872,67873,67889,67889,67905,67923,67923,67923,67938,67939,67955,67956,67956,67973,67973,67989,67989,68006,68006,68023,68023" d="m255,236c19.83334,0.83333 21.09109,0.88013 22.17599,0.91467c0.9288,0.02957 1.71863,0.05089 2.38651,0.0645c0.56281,0.01147 1.4415,0.02016 2.66684,0.02083c0.729,0.0004 1.77124,-0.02217 2.59198,0.01067c0.69403,0.02777 1.82211,0.20761 2.48853,0.342c1.07651,0.21707 1.80383,0.38945 2.86865,0.526c0.66245,0.08496 1.61713,0.10049 2.8215,0.28801c0.60538,0.09425 1.51767,0.34779 2.15717,0.48067c1.005,0.20883 2.09549,0.29999 2.84283,0.35266c0.74734,0.05267 1.83649,0.14975 2.51468,0.284c0.96954,0.19193 1.57129,0.42006 2.78516,0.5945c0.88452,0.12712 1.74301,0.11925 2.77884,0.12151c0.69598,0.00151 1.60532,0 2.60666,0c0.83551,0 1.41916,0 2.61484,0c0.91049,0 1.53583,0 2.86649,0c0.71735,0 1.45868,0 2.20801,0c0.74133,0 2.13867,0 2.77866,0c0.88501,0 1.9267,-0.03279 2.84668,0.02083c0.68585,0.03998 1.68472,0.26555 2.52084,0.47917c0.58322,0.149 1.77686,0.40475 2.66849,0.464c0.8522,0.05664 1.88901,0.036 2.564,0.036c1.08002,0 1.836,0 2.78833,0c1.00119,0 1.71967,0 2.51016,0c1.02667,0 1.92734,0 2.94818,0c0.79999,0 1.60001,0 2.60001,0c0.79999,0 1.79999,0 2.60001,0c0.99982,0 1.77914,0 2.63333,0l0.86215,0" id="svg_20" stroke-width="20" stroke="#fff" fill="none"/>
  <path t="70849,70859,70859,70859,70902,70907,70938,70955,71031" d="m255,244c11.642,0.87849 12.17502,0.93388 13.25,0.97917c1.04489,0.04402 1.72467,0.44617 2.27084,1l0.8685,0.02083l0.896,0" id="svg_21" stroke-width="2" stroke="#000" fill="none"/>
  <path t="72409,72566,72576,72608,72624,72624,72641,72656,72656,72672,72689,72706,72706,72723,72723,72739,72739,72756,72772,72789,72789,72789,72806,72806,72822,72839,72839,72856,72872,72872,72872,72889,72906,72906,72906,72922,72922,72939,72956,72956,72972,72972,72992,72992,73009,73009,73025,73025,73039,73039,73059,73072,73072,73090,73090,73109,73109,73109,73122,73122,73139,73139,73156,73172,73172,73189,73189,73206,73206,73206,73222,73222,73222,73239,73239,73256,73256,73256,73272,73272,73272,73289,73289,73306,73306,73322,73322,73339,73339,73339,73356,73356,73372,73372,73372,73389,73389,73406,73406,73406,73422,73422,73439,73439,73456,73472,73472,73489,73489,73506,73506,73522,73522,73522,73539,73539,73556,73556,73556,73572,73572,73589,73589,73589,73606,73622,73622,73622,73639,73639,73656,73656,73672,73689,73689,73706,73706,73722,73722,73739,73739,73756,73772,73772,73789,73789,73789,73806,73806,73806,73822,73839,73839,73856,73856,73856,73885,73889,74021,74188,74221" d="m294,246c-1.83334,0.16667 -2.3974,0.68365 -2.94733,1.35716c-0.57434,0.7034 -0.8537,1.44313 -1.45267,2.04283c-0.69949,0.70035 -1.39291,1.2524 -1.57916,2.10001c-0.19556,0.88997 -0.26013,1.81462 -0.52084,2.52083c-0.35822,0.97034 -0.32352,1.808 -0.66666,2.81252c-0.23492,0.68774 -0.80475,1.4653 -0.83334,2.36798c-0.03055,0.96484 0,1.63467 0,2.39999c0,1.18802 0,1.91336 0,2.89868c0,0.98401 -0.09128,1.67892 0.00449,2.74734c0.08334,0.92978 0.46381,1.56146 0.71152,2.26865c0.34518,0.9855 0.48709,2.0325 0.72,2.73468c0.24899,0.75073 0.70465,1.58163 1.12799,2.328c0.50735,0.8945 0.99182,1.64658 1.65735,2.02133c0.76276,0.42953 1.69699,0.63281 2.44531,1.39999c0.49741,0.50995 1.03705,1.31903 1.74234,1.70001c0.77966,0.42117 1.54431,0.85117 2.56949,1.17865c0.70282,0.22452 1.49258,0.75272 2.34302,0.99985c0.86044,0.25003 1.87851,0.12149 2.6785,0.12149c1,0 1.79999,0 2.60001,0c1,0 1.79999,0 2.79868,0c0.76532,0 1.71597,0 2.60132,0c0.75717,0 1.66547,0.03696 2.46167,-0.05716c0.96689,-0.11432 1.77072,-0.35815 2.58566,-0.64734c1.04068,-0.36929 1.73279,-0.64825 2.466,-1.09549c0.90884,-0.55435 1.4454,-1.09979 2.25601,-1.68402c0.48578,-0.3501 1.2724,-0.87997 2.30899,-1.49448c0.66867,-0.39639 1.48947,-0.74951 2.16449,-1.32602c0.61136,-0.52213 1.06689,-1.34753 1.45718,-2.10001c0.51291,-0.98889 0.80301,-1.59399 1.29999,-2.59549c0.2973,-0.59912 0.70877,-1.38428 0.91599,-2.39999c0.16141,-0.79117 0.28021,-1.80966 0.52002,-2.39999c0.33099,-0.81482 0.87592,-1.79898 1.164,-2.436c0.41742,-0.92297 0.71332,-1.70636 0.96399,-2.50269c0.29013,-0.92169 0.43066,-1.87592 0.436,-2.74533c0.00531,-0.86328 0,-1.76334 0,-2.68266c0,-0.83333 0.15466,-1.85135 -0.11432,-2.586c-0.29654,-0.80988 -1.10513,-1.43117 -1.71902,-2.24733c-0.43442,-0.57756 -0.79297,-1.39293 -1.36932,-2.116c-0.55029,-0.6904 -1.3381,-1.20801 -2.048,-1.70934c-0.49734,-0.35121 -1.41245,-1.01251 -2.08798,-1.53867c-0.8237,-0.64154 -1.46243,-1.08282 -2.17734,-1.35066c-0.97818,-0.36647 -1.81934,-0.44507 -2.73468,-0.71068c-0.74564,-0.21637 -1.7767,-0.52789 -2.4975,-0.57016c-0.90298,-0.05295 -1.76782,-0.00385 -2.75183,-0.0045c-0.98532,-0.00067 -1.72839,0.04158 -2.69983,-0.22133c-0.79892,-0.21622 -1.62253,-0.68546 -2.42551,-0.76801c-1.022,-0.10506 -1.72198,-0.01067 -2.74933,-0.01067c-0.94684,0 -1.64618,0 -2.62534,0c-0.81067,0 -1.68533,0 -2.68268,0c-0.79648,0 -1.54797,-0.00009 -2.65598,0c-0.98285,0.00009 -1.69797,-0.0612 -2.66135,0.16667c-0.80832,0.19121 -1.49124,0.65915 -2.47916,0.8125c-0.98901,0.15353 -1.51016,0.6315 -1.52084,1.5l-0.00449,0.87349" id="svg_22" stroke-width="2" stroke="#000" fill="none"/>
  <path t="75271,75281,75281,75281,75282,75282,75282,75282,75282,75282,75291,75291,75291,75291,75291,75309,75309,75322,75322,75322,75339,75339,75339,75356,75356,75356,75372,75372,75372,75389,75389,75389,75406,75406,75422,75422,75422,75439,75439,75439,75456,75456,75472,75472,75489,75489,75506,75506,75506,75522,75522,75539,75557,75557,75585,75601,75617,75698" d="m239,270c8.83333,-5 9.67874,-5.49771 10.508,-5.996c0.81339,-0.48874 1.60347,-0.9707 2.367,-1.4415c0.73509,-0.45325 1.43549,-0.88968 2.097,-1.30649c1.19615,-0.75366 1.72011,-1.09128 2.19865,-1.39734c0.82791,-0.52948 1.46835,-1.0217 2.496,-1.52533c0.7886,-0.38647 1.65976,-0.77029 2.35419,-1.35419c0.58466,-0.49158 1.37463,-1.10477 2,-1.47916c0.65848,-0.39421 1.6637,-0.98312 2.2045,-1.32533c0.82285,-0.52068 1.84766,-1.1631 2.53867,-1.53867c0.62665,-0.34058 1.64526,-0.82048 2.23599,-1.15683c0.61008,-0.34737 1.59296,-1.14003 2.20001,-1.65384c0.79095,-0.66946 1.39127,-1.08376 2,-1.41467c0.98651,-0.53629 1.79999,-0.91066 2.39999,-1.21066c1,-0.5 1.60263,-0.79477 2.59982,-1.3c0.7814,-0.3959 1.60138,-0.95009 2.18552,-1.28932c0.90524,-0.52571 1.62552,-0.51495 2.60931,-0.66335c0.86887,-0.13106 1.54929,-0.59654 2.30533,-1.24283c0.67102,-0.57359 1.5,-0.70317 2.40002,-0.76166l0.79999,-0.44284l0.79999,-0.44284l0.89734,-0.05583" id="svg_23" stroke-width="2" stroke="#000" fill="none"/>
  <path t="76412,76655,76697,76714,76733,76749,76757,76777,76789,76809,76822,76822,76839,76839,76855,76872,76872,76889,76889,76905,76922,76922,76939,76939,76939,76959,76976,76993,77009,77022,77043,77059,77073,77074,77093,77117,77140,77224,77632,77655,77659,77685,77685,77701,77709,77722,77739,77755,77755,77772,77772,77772,77789,77789,77789,77805,77805,77805,77805,77823,77823,77823,77839,77839,77839,77855,77855,77872,77873,77873,77889,77889,77905,77905,77922,77922,77939,77939,77955,77955,77972,77989,77990,77990,78005,78005,78022,78022,78039,78039,78055,78055,78072,78072,78072,78089,78105,78105,78122,78123,78123,78139,78139,78139,78155,78172,78173,78190,78205,78205,78222,78222,78239,78239,78239,78255,78255,78273,78273,78273,78290,78290,78305,78341,78355,78377,78377,78389,78429,78436" d="m243,265c-1.64734,0.05716 -1.99933,0.80133 -2,1.70001c-0.00067,0.89999 -0.08948,1.71735 -0.57466,2.32532c-0.49838,0.62451 -0.4247,1.57468 -0.42534,2.49551c-0.00067,0.96317 0.10408,1.70245 -0.284,2.59381c-0.32295,0.74176 -0.71375,1.64252 -0.716,2.54251c-0.00186,0.74734 0,1.74152 0,2.50684c0,1.08334 0,2.00266 0,2.672c0,1.164 -0.01256,1.95346 0,2.67868c0.01801,1.03912 0.79256,1.48575 0.99867,2.28665c0.22446,0.87216 0.61937,1.50903 0.916,2.39868c0.28595,0.85764 0.31563,1.76031 0.73267,2.5c0.42003,0.745 0.8707,1.45889 1.43666,2.01599c0.67113,0.66064 1.27171,1.2554 2.11467,1.284c0.88483,0.03003 1.80133,0 2.60133,0c0.89999,0 1.8,0 2.7,0c0.91066,0 1.82167,0 2.54167,0c1.125,0 1.911,0 2.733,0c1.05867,0 1.77888,0.02277 2.48665,-0.03601c1.07626,-0.08936 2.04401,-0.31665 2.73868,-0.46399c0.69467,-0.14734 1.9548,-0.40378 2.73868,-0.46399c0.70813,-0.05441 1.68265,-0.03601 2.48666,-0.03601c0.82199,0 2.08932,0 2.75381,0c1.02084,0 1.82083,0 2.62085,0c1,0 1.79999,0 2.79999,0c0.80002,0 1.80002,0 2.60001,0c1,0 1.78964,0.02484 2.83334,0c0.75662,-0.01801 1.52063,-0.56403 2.48831,-0.87866c0.69437,-0.22577 1.37225,-0.17227 2.36102,-0.40533c0.80322,-0.18933 1.97586,-0.6019 2.65598,-0.67999c0.97708,-0.11218 1.8721,-0.02328 2.86136,-0.03616c0.8002,-0.01041 1.80716,-0.14496 2.39548,-0.35251c0.75757,-0.26727 1.77866,-0.62933 2.72617,-0.64734c0.71988,-0.01367 1.84518,0.01282 2.63101,-0.00449c0.82239,-0.0181 1.89029,-0.12894 2.58566,-0.34818c0.81311,-0.25638 1.75623,-0.46732 2.56168,-0.86868c0.76715,-0.38229 1.54782,-0.76791 2.38531,-1.06265c0.73709,-0.2594 1.71561,-0.58884 2.51468,-0.716c1.00119,-0.15933 1.80539,-0.42426 2.39999,-0.7045c1.00955,-0.47577 1.60001,-0.7955 2.60001,-1.2955c0.79999,-0.39999 1.3956,-0.70889 2.39868,-1.19867c0.76205,-0.3721 1.73111,-0.40317 2.43466,-0.96799c0.6824,-0.54785 1.26666,-1.05469 1.96664,-1.54935l0.84283,-0.33667l0.35269,-0.65182l0.06165,-0.93832" id="svg_24" stroke-width="2" stroke="#000" fill="none"/>
  <path t="79392,79770,79793,79799,79845,79853,79874,79889,79905,79922,79922,79922,79939,80071,80093,80109,80125,80137,80153,80153,80160,80172,80189,80205,80222,80239,80239,80255,80272,80290,80290,80305,80322,80339,80339,80355,80373,80393" d="m238,273c-0.036,-0.98932 -0.60683,-0.49185 -1.35266,-0.05716c-0.75212,0.43839 -1.54778,0.44885 -2.07268,1.03183c-0.53049,0.58917 -0.98065,1.47781 -1.74133,2.02533c-0.61806,0.44485 -1.11583,0.93188 -1.8815,1.64282c-0.56703,0.52652 -1.62663,0.79102 -1.89467,1.65717c-0.26662,0.86154 -0.05716,1.80002 -0.05716,2.70001c0,0.79999 -0.01041,1.70007 0,2.60001c0.01042,0.90018 0.46594,1.63608 0.87866,2.5c0.40733,0.85266 0.70573,1.49545 1.12134,2.39999c0.36577,0.79608 0.94006,1.57166 1.5,1.97916c0.82655,0.60153 1.85007,0.38919 2.60001,0.74219c0.77551,0.36505 1.5,0.76797 2.39999,0.77866l0.89999,0" id="svg_25" stroke-width="2" stroke="#000" fill="none"/>
  <path t="82253,82453,82479,82492,82508,82523,82540,82540,82556,82573,82573,82590,82606,82606,82623,82640,82640,82682,82740,82750,82782,82782,82880,82890,82914,82930,82954,82966,82973,82990,83006,83023,83023,83040,83066,83094,83175,83196,83214,83230,83258,83262" d="m331,251c1.79999,0 2.70004,0.006 3.60001,0c0.80005,-0.00534 1.6188,-0.50049 2.39999,-0.83333c0.75153,-0.32019 1.75717,-0.16667 2.65268,-0.16667c0.86331,0 1.72198,0 2.66864,0c0.85333,0 1.79333,0 2.67868,0c0.79999,0 1.42896,-0.3707 2.2215,-0.87849c0.74673,-0.47844 1.77896,-0.09442 2.57849,-0.12151c0.8443,-0.02859 1.19934,-0.80133 1.20001,-1.7c0.00067,-0.90001 0,-1.8 0,-2.7c0,-0.90001 0,-1.8 0,-2.70001c0,-0.89999 0.39294,-1.83035 -0.08533,-2.61465c-0.49008,-0.80365 -0.82599,-1.38972 -0.91467,-2.28534c-0.08374,-0.84569 -0.87866,-1.22133 -1.35266,-1.94733l-0.62201,-0.47801l-0.60001,-0.564" id="svg_26" stroke-width="2" stroke="#000" fill="none"/>
  <path t="84910,84920,84920,84920,84920,84920,84920,84920,84920,84920,84934,84934,84934,84934,84934,84934,84935,84935,84935,84958,84958,84958,84958,84958,84958,84975,84975,84975,84975,84989,84989,84989,84989,85006,85006,85006,85023,85023,85023,85023,85023,85039,85039,85039,85056,85056,85073,85073,85073,85089,85089,85089,85106,85106,85123,85123,85123,85139,85139,85139,85156,85156,85173,85173,85173,85189,85189,85189,85189,85206,85206,85206,85223,85223,85223,85239,85239,85256,85256,85273,85273,85273,85289,85289,85289,85306,85306,85323,85323,85339,85339,85356,85356,85373,85373,85389,85406,85423,85423,85439,85456,85473,85489,85506,85523,85686" d="m252,229c4.33334,-0.16667 5.52667,-0.22113 6.88,-0.284c1.47333,-0.06845 3.02667,-0.14134 4.62,-0.216c1.59332,-0.07466 3.14664,-0.14774 4.62,-0.216c2.54663,-0.11801 3.55014,-0.16316 4.37466,-0.19867c0.66647,-0.0287 1.19598,-0.05032 1.6095,-0.0645c0.31848,-0.01093 0.56299,-0.0175 0.75452,-0.0195c0.30798,-0.00322 0.46317,-0.00133 0.62933,-0.00133c0.17816,0 0.36932,-0.00009 1.284,0c0.871,0.00009 1.90045,-0.00029 2.64932,0.036c0.78198,0.03789 1.98004,0.17535 2.76968,0.31667c0.76913,0.13765 1.487,0.34164 2.76648,0.52583c0.79883,0.11499 1.60501,0.11925 2.54251,0.12151c0.75201,0.0018 1.57599,0 2.42401,0c0.82397,0 1.9115,0 2.76797,0c0.90402,0 1.91251,-0.00008 2.76517,0c0.96417,0.00009 1.77161,-0.03093 2.59018,0.05716c1.03815,0.11171 1.70157,0.41591 2.55133,0.65884c0.99136,0.28342 1.85849,0.28174 2.82266,0.284c0.80402,0.00188 1.62604,-0.00781 2.65717,0.00017c0.68558,0.00531 1.53058,0.04865 2.526,0.35249c0.86285,0.26338 1.81494,0.55107 2.64218,0.61134c0.59894,0.04364 1.92001,0.03209 2.63599,0.03732c0.73203,0.00534 1.46664,-0.04739 2.784,0.16534c0.83347,0.1346 1.5336,0.46848 2.5,0.66666c0.77307,0.15854 1.57199,0.16133 2.69052,0.16667c0.75748,0.00362 1.80447,0 2.60449,0c0.95966,0 1.76367,0 2.58566,0c1.03116,0 1.71667,0 2.55133,0c1.00134,0 1.80157,-0.02098 2.80133,0.00133c0.80057,0.01787 1.80246,0.21277 2.57916,0.49867c1.00299,0.36919 1.7735,0.49774 2.67352,0.5c0.86331,0.00215 1.83609,-0.12083 2.64731,0.0045c0.93137,0.14391 1.47168,0.82874 2.40002,0.991c0.88745,0.15511 1.69998,0.42984 2.49866,0.9205l0.74866,0.43666l0.478,0.62201l0.53302,0.54616" id="svg_27" stroke-width="2" stroke="#000" fill="none"/>
  <path t="86749,86769,86769,86769,86787,86814" d="m335,274c-9.0065,2.6355 -9.78549,2.82849 -10.78799,2.996l-0.92667,0.08932l-0.452,0.74802" id="svg_28" stroke-width="2" stroke="#000" fill="none"/>
  <path t="87759,87782,87782,87782,87782,87782,87782,87782,87782,87782,87790,87790,87790,87790,87790,87790,87809,87809,87825,87839,87839,87856,87873,87873,87889,87906,87906,87923,87923,87939,87956,87956,87973,87973,87989,88006,88006,88023,88023,88023,88039,88039,88039,88056,88056,88073,88089,88090,88090,88106,88123,88139,88156,88156,88156,88173,88189,88189,88206,88206,88206,88223,88239,88239,88256,88256,88273,88289,88307,88323,88323,88323,88339,88356,88373,88373,88373,88389,88406,88406,88423,88423,88439,88439,88457,88457,88457,88473" d="m303,249c-2.33334,1.83333 -2.87439,2.43166 -3.47067,3.12666c-0.65039,0.75806 -1.32526,1.57014 -2.00848,2.41501c-0.68616,0.84846 -1.35223,1.68584 -1.9635,2.50499c-1.07489,1.44043 -1.47513,2.05283 -1.78934,2.58401c-0.26309,0.44479 -0.52304,0.81042 -0.672,1.43732c-0.21164,0.89072 0.05179,1.69717 0.47867,2.56799c0.40234,0.82083 0.31897,1.5853 0.70932,2.47867c0.41718,0.95477 0.6312,1.68774 1.25766,2.38535c0.65726,0.7319 1.6019,0.8327 2.21552,1.60001c0.48215,0.60287 0.71249,1.4538 1.44415,2.09866c0.64279,0.56653 1.45001,0.77148 2.31467,0.79999c0.98349,0.03244 1.97067,0.00134 2.73068,0.00134c0.91998,0 1.70807,0.03018 2.52798,-0.03601c1.06326,-0.08585 1.9812,-0.414 2.62085,-0.61133c0.99203,-0.30606 1.77319,-0.25513 2.85184,-0.35715c0.92935,-0.08789 1.6011,-0.39084 2.26865,-0.79684c0.88168,-0.53622 1.88873,-0.86038 2.39999,-1.48532c0.57938,-0.70822 0.47653,-1.56351 0.88535,-2.22934c0.54312,-0.88461 1.40042,-1.51489 1.76266,-2.15601c0.45541,-0.80597 0.42441,-1.82782 0.43466,-2.56c0.01343,-0.95807 0.00134,-1.93466 0.00134,-2.76801c0,-0.97849 0.19629,-1.83316 -0.05716,-2.70001c-0.25659,-0.87762 -0.83078,-1.62181 -1.1095,-2.46666c-0.22293,-0.67578 -0.50241,-1.46193 -1.23334,-2.18666c-0.69531,-0.68941 -1.7807,-0.78127 -2.42535,-1.08267c-0.70776,-0.33092 -1.52951,-0.97386 -2.17465,-1.564c-0.62723,-0.57373 -1.48804,-0.89935 -2.21066,-1.02533c-0.99359,-0.1732 -1.78934,-0.47467 -2.78934,-0.808l-0.78934,-0.13068l-0.72534,-0.03467l-1.07465,-0.00133" id="svg_29" stroke-width="2" stroke="#000" fill="none"/>
  <path t="89846,89883,89919,89927,89943,89961,89977,89989,89989,90009,90027,90027,90042,90042,90062,90281,90351,90363,90386,90390,90406,90406,90423,90439,90439,90456,90473,90473,90473,90489,90489,90489,90506,90526,90526,90542,90555,90572,90602,90618,90678,90689,90702,90714,90714,90725,90739,90739,90758,90775,90775,90791,90791,90808,90808,90825,90841,90858,90858,90875,90934,90942,90959,90975,90975,90991,90991,91006,91006,91006,91022,91023,91039,91039,91039,91055,91073,91073,91089,91089,91106,91106,91123,91123,91138,91139,91139,91155,91156,91172,91173,91189,91189,91205,91223,91239,91239,91255,91256,91256,91273,91289,91289,91314,91331,91339,91355,91373,91373,91388,91406,91406,91422,91423,91482,91491" d="m264,295c0.87866,-0.77866 1.36212,-0.06357 2,0.5c0.5835,0.5155 1.33002,0.95163 1.83334,1.66666c0.4892,0.69495 0.22256,1.65195 0.6875,2.35419c0.54538,0.82373 1.07938,1.43811 1.35767,2.45764c0.21829,0.79968 0.96832,2.34784 0.12149,2.60718c-0.60992,0.18677 -1.29999,-0.58566 -2.20001,-0.58566c-0.89999,0 -1.79999,0 -2.59998,0c-0.836,0 -1.85269,0 -2.54733,0c-1.03802,0 -1.98602,0 -2.66251,0c-0.77551,0 -1.82352,0 -2.7435,0c-0.76001,0 -1.87201,0 -2.73067,0c-0.86334,0 -1.78189,-0.20734 -2.71468,0.00134c-0.80704,0.18054 -1.27744,0.74054 -2.09683,1.00314c-0.75772,0.24283 -0.58792,1.40369 -0.709,2.2955c-0.11151,0.82138 -0.77107,1.33694 -1.38483,2.10001c-0.60054,0.74664 -0.61,1.48535 -0.61067,2.42535c-0.00072,1.008 0,1.79999 0,2.83182c0,0.74734 0,1.74152 0,2.50684c0,0.95065 0,1.936 0,2.836c0,0.79999 -0.01067,1.70007 0,2.60001c0.01042,0.87933 0.64662,1.39465 1.48534,1.39999c0.72531,0.00461 1.71466,0 2.51466,0c1,0 1.8,0 2.60001,0c1.0045,0 1.85716,0 2.82117,0c0.79349,0 1.80948,0 2.76898,0c0.9765,0 1.63547,0.02289 2.64319,0c0.7926,-0.01801 1.67776,-0.23358 2.51398,-0.7045c0.79749,-0.44913 1.40646,-1.05154 2.13669,-1.77951c0.51678,-0.5152 1.0842,-0.98386 1.75433,-1.76334c0.51782,-0.60233 0.68988,-1.59674 0.84567,-2.35397c0.20755,-1.0087 0.69717,-1.70929 0.87997,-2.7627c0.14331,-0.82574 0.0752,-1.80441 0.02533,-2.47198c-0.08749,-1.17114 -0.29291,-1.7868 -0.69382,-2.50684c-0.52377,-0.9407 -1.02426,-1.69781 -1.37952,-2.45715c-0.34219,-0.73141 -1.24222,-0.97791 -2.11465,-1.20135c-0.80508,-0.20621 -1.36765,-0.95197 -2.15317,-0.99417c-1.02136,-0.05487 -1.96948,-0.00449 -2.64816,-0.00449c-1.116,0 -1.884,0 -2.80399,0l-0.56403,0" id="svg_30" stroke-width="2" stroke="#000" fill="none"/>
  <polyline timestamps="92453,92546" startTime="1441777978788" id="svg_31" points="270,312 270.2,312 " stroke-linecap="round" stroke-width="2" stroke="#000" fill="none"/>
  <path t="93106,93138,93138,93138,93138,93138,93138,93138,93154,93154,93154,93166,93174,93198,93206,93242,93266,93282,93294,93310,93330,93330,93354,93370,93394,93398,93418,93430,93466,93474,93490,93506,93522,93539,93556,93572,93589,93606,93606,93621,93639,93655,93671,93689,93706,93706,93721,93738,93739,93755,93756,93772,93772,93789,93789,93806,93822,93822,93839,93839,93855,93856,93871,93888,93918,93942,93946,93978,94022" d="m276,306c3.74918,-1.31418 4.38803,-1.27036 5.06418,-1.17584c0.70407,0.09842 1.41937,0.21844 2.81,0.53668c0.65469,0.14981 1.80469,0.43787 2.64316,0.7525c0.82947,0.31125 1.76492,0.68356 2.42999,1.23932c0.65317,0.54578 1.19104,1.09671 1.76868,1.73135c0.58856,0.64667 1.24127,1.19833 1.284,2.116c0.04184,0.89902 0,1.79999 0,2.59998c0,0.90002 0.00272,1.82004 -0.42532,2.60001c-0.45096,0.82175 -0.93082,1.31177 -1.66,1.68533c-0.74423,0.38126 -1.34824,1.06967 -1.96735,1.56201c-0.64728,0.51471 -1.64734,0.35266 -2.54733,0.35266c-0.89999,0 -1.84454,-0.09546 -2.60001,0.284c-0.86719,0.43558 -1.59998,0.71533 -2.5,0.716c-0.89999,0.00067 -1.79999,0.00223 -2.69998,0c-0.89999,-0.00226 -1.72406,-0.19305 -2.30002,-0.7045c-0.73227,-0.65021 -1.60419,-1.07367 -2.09998,-1.55017c-0.68329,-0.65668 -0.83813,-1.48676 -1.07852,-2.60251c-0.16125,-0.74835 -0.12149,-1.7955 -0.12149,-2.49014c0,-1.02734 0,-1.97418 0,-2.67352c0,-0.97916 0,-1.76849 0,-2.8125c0,-0.86215 -0.00272,-1.78668 0.42532,-2.56665c0.45096,-0.82175 0.86002,-1.51468 1.77335,-1.60135l0.74866,-0.35132l0.48868,-0.61133" id="svg_32" stroke-width="2" stroke="#000" fill="none"/>
  <polyline timestamps="94582,94639,94639" startTime="1441777978788" id="svg_33" points="275,296 276.82933333333335,303.60266666666666 276.9583333333333,304.35416666666663 " stroke-linecap="round" stroke-width="2" stroke="#000" fill="none"/>
  <path t="104262,104272,104272,104272,104272,104272,104272,104272,104272,104272,104285,104285,104285,104285,104285,104285,104285,104285,104285,104306,104306,104306,104323,104340,104340,104373,104411,104418,104440,104440,104455,104455,104472,104473,104489,104489,104505,104505,104522,104522,104522,104539,104539,104539,104556,104556,104556,104572,104572,104572,104589,104589,104589,104605,104605,104605,104605,104622,104642,104655,104672,104722,104722,104789,104832,104851,104851,104883,104969,104979,104992,104992,105006,105022,105039,105039,105039,105055,105055,105075,105092,105108,105379,105485,105508,105530,105543,105543,105559,105575,105575,105595,105595,105618,105630" d="m336,230c1.5,2.16667 2.21783,2.88008 3.06265,3.69333c0.93359,0.89871 1.93759,1.84784 2.979,2.8275c1.04926,0.98703 2.08246,1.95192 3.069,2.8725c1.72229,1.6071 2.41074,2.24754 2.97867,2.78267c0.46387,0.43709 0.83487,0.78911 1.11902,1.07401c0.21921,0.21979 0.38477,0.38925 0.48898,0.534c0.14917,0.20715 0.0925,0.34846 0.38669,1.01601c0.3399,0.77129 1.05789,1.49947 1.39514,2.2c0.4584,0.95216 0.67099,2 1.52084,2c0.84985,0 1.13385,-0.91278 1.70532,-1.65266c0.41891,-0.54234 1.11609,-1.46643 1.37735,-2.23134c0.26517,-0.77641 0.60217,-1.53056 1.11865,-2.51466c0.30792,-0.58673 0.94083,-1.46646 1.63467,-1.976c0.55026,-0.4041 1.37695,-0.93213 1.96399,-1.46133c0.61392,-0.55345 1.38281,-1.38235 2.01068,-1.95334c0.62964,-0.57259 1.60263,-1.20595 2.142,-1.45349c0.81073,-0.3721 1.88876,-0.73885 2.59467,-1.06168c0.68634,-0.31389 1.62061,-0.86011 2.40085,-1.34366c0.53186,-0.32961 1.22214,-0.94057 2.23749,-1.2375c0.88443,-0.25864 1.81433,-0.11433 2.73166,-0.11433c0.79251,0 2.60001,1 2.60001,0c0,-0.61734 -1.51819,0.03719 -2.31732,0c-0.91766,-0.04271 -0.98477,-0.9391 -0.10001,-1c0.89786,-0.0618 1.73029,0.18138 2.60001,-0.05716c0.78101,-0.2142 1.63013,-0.79704 2.30533,-0.89017c0.9856,-0.13594 1.83469,-0.30898 2.68567,-0.70001c0.79453,-0.36511 1.70898,-0.35266 2.60898,-0.35266c0.89734,0 1.07068,0 1.90002,0c0.89999,0 1.79999,0 2.59998,0c0.95718,0 1.85718,0 2.60452,0c0.99417,0 1.93832,0 2.83832,0l0.85718,0" id="svg_34" stroke-width="20" stroke="#fff" fill="none"/>
  <path t="108582,108819,108851,108871,108887,108905,108922,108939,108956,108972,108989,109014,109038,109046,109082,109106,109126,109150,109162,109172,109189,109205,109222,109239,109239,109255,109255,109272,109289,109305,109323,109347,109410,109450,109459,109474,109505,109639,109639,109649,109663,109691,109706,109706,109723,109723,109723,109739,109739,109756,109756,109772,109772,109788,109788,109805,109805,109822,109822,109838,109838" d="m333,230c1.79999,0 2.70001,0 3.60001,0c0.89999,0 1.79999,0 2.69998,0c0.90002,0 1.79984,0 2.64734,0c0.75717,0 1.84534,-0.35489 2.61667,0.036c0.69812,0.35379 1.11691,1.24687 1.72,1.88c0.54688,0.57413 0.71591,1.384 0.716,2.284c0.00009,0.89984 0.50787,1.40862 0.94284,2.15717c0.42511,0.73157 0.05716,1.80951 0.05716,2.64284c0,0.83333 0,1.6955 0,2.60001c0,0.89999 0,1.79999 0,2.7c0,0.89999 0.39169,2.07901 -0.28534,2.61467c-0.64224,0.50815 -1.42999,0.56264 -2.07632,1.03265c-0.80707,0.58691 -1.84995,0.35078 -2.39532,1.15268c-0.52426,0.77084 -0.60196,1.51091 -1.16034,2.18799c-0.46378,0.56238 -0.63626,1.48996 -1.10352,2.21201c-0.48053,0.74257 -1.07263,1.54854 -1.67465,2.19099c-0.5889,0.62846 -1.17712,1.12941 -2.12985,1.709c-0.68185,0.41479 -1.40036,0.92883 -2.05865,1.39999c-0.74567,0.53372 -1.46332,0.90002 -2.36334,1.50452l-0.50531,0.45267l-0.73135,0.72549l-0.51599,0.49649" id="svg_35" stroke-width="2" stroke="#000" fill="none"/>
  <path t="111545,111705,111715,111742,111742,111759,111772,111788,111788,111806,111806,111822,111822,111838,111838,111838,111855,111856,111856,111872,111872,111888,111888,111905,111905,111922,111922,111938,111938,111955,111955,111972,111972,111988,111988,112006,112006,112022,112022,112038,112038,112055,112055,112072,112088,112088,112105,112105,112105,112122,112122,112122,112139,112139,112139,112155,112155,112155,112172,112172,112188,112188,112188,112205,112205,112222,112222,112238,112256,112256,112272,112272,112288,112288,112306,112306,112322,112338,112338,112355,112355,112376,112388,112388,112405,112422,112422,112422,112438,112455,112472,112472,112487,112505,112522,112522,112538,112538,112555,112571,112571,112588,112605,112622,112641,112658,112698" d="m315,228c-2.79999,0 -1.89871,0.04779 -1,0c0.80338,-0.04272 1.4491,-0.60735 2.3045,-0.94733c0.82672,-0.32857 1.66815,-0.6315 2.52884,-0.886c0.77408,-0.22888 1.83212,-0.12978 2.62833,-0.22383c0.96689,-0.11421 1.75906,-0.38594 2.58566,-0.59018c1.02594,-0.25349 1.72604,-0.27084 2.55133,-0.43666c1.01761,-0.20445 1.60086,-0.52768 2.60117,-1.01584c0.77893,-0.38013 1.62262,-0.80614 2.42551,-0.8895c0.85547,-0.08881 1.77917,-0.01067 2.77466,-0.01067c0.80002,0 1.79984,0.00006 2.57916,0c0.99951,-0.00009 1.78275,-0.03024 2.67801,-0.35266c0.75583,-0.2722 1.73901,-0.595 2.50684,-0.63667c0.95065,-0.05161 1.72,-0.01067 2.672,-0.01067c0.76532,0 1.75949,0 2.50684,0c1.03183,0 1.97867,0.00005 2.67801,0c1.17932,-0.00009 1.79532,0.03772 2.66449,-0.08533c1.00949,-0.14291 1.8316,-0.43115 2.41916,-0.56201c1.18835,-0.26468 2.08444,-0.33049 2.93835,-0.34816c1.03543,-0.02144 1.73056,0.05566 2.55582,-0.08983c1.02493,-0.18068 1.61859,-0.57515 2.82251,-0.79317c0.78531,-0.14221 1.569,-0.11925 2.6095,-0.12151c0.7175,-0.00156 1.62201,0 2.48532,0c0.98401,0 1.96933,0 2.69467,0c0.98935,0 1.78934,0 2.78934,0c0.78934,0 1.83334,0 2.58932,0c0.93152,0 1.90201,-0.07011 2.58533,0.036c0.96066,0.14917 1.61765,0.69783 2.46133,0.98933c1.00952,0.34882 1.69907,0.66167 2.61136,0.922c0.90884,0.25935 1.60403,0.44321 2.26865,0.854c0.87558,0.5412 1.24774,1.46573 1.70551,2.29868c0.37097,0.67502 1.27808,1.23465 1.65717,2c0.4194,0.84677 0.72931,1.50266 1.42133,2.2c0.49808,0.50192 1.22644,1.17456 1.89868,1.89999c0.5379,0.58046 0.39816,1.50459 0.83734,2.364c0.35614,0.69691 0.96265,1.23734 1.02115,2.136l0.44284,0.8" id="svg_36" stroke-width="2" stroke="#000" fill="none"/>
  <path t="115255,115605,115615,115629,115655,115656,115672,115672,115672,115688,115688,115688,115705,115705,115705,115705,115722,115722,115722,115722,115722,115738,115738,115738,115738,115755,115755,115772,115772,115772,115788,115788,115788,115805,115822,115884,115899" d="m425,266c0.42532,-0.02533 0.83661,0.53766 1.01068,1.39999c0.19333,0.9577 0.74329,1.4512 1.08914,2.36401c0.33902,0.89478 0.50424,1.55154 0.73352,2.73599c0.15854,0.81909 0.16599,1.552 0.16666,2.55734c0.00043,0.66132 -0.00006,1.41064 0,2.23199c0.00009,1.33182 0.00119,2.25888 0.01068,2.72534c0.0188,0.92413 0.0325,1.82138 0.21066,3.04214c0.10629,0.72842 0.36996,1.68198 0.49466,2.25519c0.26718,1.22806 0.26175,1.92212 0.50534,3.10931c0.11002,0.53616 0.39972,1.34308 0.612,2.41202c0.1813,0.91293 0.25067,1.67999 0.59198,2.53067l0.48935,0.836l0.08533,0.89981l0,0.89117" id="svg_37" stroke-width="2" stroke="#000" fill="none"/>
  <path t="116535,116545,116545,116545,116574,116602,116634,116642,116670,116678,116710,116781,116791,116824,116825,116839,116856,116898,116902,116923,116939,116956,116956,116956,116973,116973,116989,116989,116989,117006,117006,117023,117023,117039,117090" d="m438,294c0,-10.76349 0,-11.67117 0,-12.48267c0,-0.91733 -0.19489,-1.83902 0.00134,-2.716c0.18057,-0.80704 0.66199,-1.30164 1.00934,-2.19067c0.28955,-0.74115 1.1926,-1.15384 2.08932,-1.48917c0.85065,-0.31808 1.69998,-0.12149 2.60001,-0.12149c0.89999,0 2.00421,0.1152 2.28931,-0.61066c0.32535,-0.82831 0.50491,-1.62897 0.84402,-2.556c0.23428,-0.64047 0.16599,-1.43466 0.16666,-2.43784c0.00058,-0.85266 -0.01727,-1.81726 0.01068,-2.62085c0.02863,-0.82281 0.18555,-1.86136 0.48932,-2.733c0.30814,-0.88419 0.49551,-1.73715 0.5,-2.64166l0,-0.85834" id="svg_38" stroke-width="2" stroke="#000" fill="none"/>
  <path t="117732,118178,118188,118207,118223,118240,118240,118240,118255,118255,118271,118271,118288,118306,118358,118390,118410,118426,118438,118455,118471,118488,118488,118505,118505,118521,118521,118538,118538,118555,118555,118555,118555,118571,118571,118571,118588,118588,118605" d="m429,293c0,0.80133 -0.00995,1.70007 0,2.60001c0.01044,0.94183 0.1597,1.73532 0.42532,2.65067c0.21637,0.74564 0.44363,1.79059 0.62735,2.4975c0.23969,0.92233 0.72855,1.56677 0.91132,2.61584c0.14362,0.82437 -0.35876,2.01892 0.32135,2.55066c0.72369,0.56583 1.94128,0.34393 2.59332,-0.13602c0.69824,-0.51398 1.08502,-1.22531 1.12149,-2.09998c0.03558,-0.85333 0.35016,-1.76117 0.64719,-2.43134c0.38556,-0.86993 0.3504,-1.65186 0.35266,-2.65002c0.00195,-0.86932 0,-1.93066 0,-2.56531c0,-1.03201 0,-1.72668 0,-2.69867c0,-1.06134 0,-1.72433 0,-2.73203l0,-0.94415l0,-0.89999" id="svg_39" stroke-width="2" stroke="#000" fill="none"/>
  <path t="119157,119395,119405,119446,119456,119472,119489,119489,119506,119506,119534,119534,119746,119756,119774,119790,119790,119807,119822,119822,119838,119855,119871,119871,119888,119888,119905,119921,119921,119938,119938,119955,119971,119988,120010,120062,120098,120098,120114,120142,120166,120182,120189,120205,120221,120238,120255,120271,120271,120288,120305,120305,120321,120338,120355,120371,120388,120406,120422,120442,120442,120455,120490,120510,120510,120534,120550,120562,120578,120602,120614,120614,120638,120654,120670,120682,120690,120730" d="m427,293c-1.70001,0 -2.38712,0.31451 -3.16666,0.83334c-0.70746,0.47089 -1.45807,0.56143 -2.16669,1c-0.73651,0.45581 -1.79803,0.07755 -2.55066,0.25198c-0.97501,0.22598 -1.65173,0.57074 -2.59515,0.91467c-0.83716,0.30521 -1.45996,1.09387 -1.52084,2c-0.05362,0.79819 0.01184,1.65146 -0.284,2.48401c-0.25092,0.70605 -0.68741,1.75739 -0.716,2.616c-0.02997,0.89951 -0.02051,1.6701 -0.35266,2.55267c-0.26578,0.70621 -0.62933,1.72147 -0.64734,2.66864c-0.01291,0.67856 0.17865,1.69614 -0.08533,2.47736c-0.30057,0.88953 -0.89667,1.60077 -0.91467,2.50131c-0.01801,0.89984 0,1.80002 0,2.70001c0,0.79999 0.22577,1.54324 0.87866,2.22134c0.5575,0.57904 1.32135,0.77866 2.22116,0.77866c0.90018,0 1.70151,0 2.60019,0c0.93597,0 1.784,0.00217 2.64731,0c0.89551,-0.00226 1.79105,-0.38608 2.45267,-0.716c0.84338,-0.42056 1.82004,-0.28128 2.60001,-0.70932c0.82175,-0.45096 1.3392,-1.01926 1.95718,-1.522c0.70346,-0.57227 1.5303,-1.04337 1.64148,-1.85266c0.11499,-0.83701 0.8728,-1.35995 1.00134,-2.20001c0.12167,-0.79526 0.74695,-1.5372 0.96399,-2.39999c0.21973,-0.8735 0.03601,-1.80002 0.03601,-2.70001c0,-0.89999 0.01801,-1.70016 0,-2.60001c-0.01801,-0.90054 -0.42532,-1.69998 -0.91599,-2.49866l-0.36801,-0.71732l-0.69067,-0.50934" id="svg_40" stroke-width="2" stroke="#000" fill="none"/>
  <path t="121270,121280,121280,121280,121280,121305,121306,121321,121374,121394,121418,121470,121471,121478,121494,121505,121521,121538,121555,121555,121582" d="m423,302c-1.76666,1.42133 -2.24429,2.13467 -2.47916,2.52084c-0.46695,0.76779 -1.15076,1.76755 -1.41284,2.73517c-0.22244,0.82129 -0.56125,2.01788 0.11349,2.6225c0.66052,0.59183 1.77896,0.14856 2.57849,0.12149c0.8443,-0.02859 1.19934,-0.80133 1.20001,-1.70001c0.00067,-0.89999 0,-1.82083 0,-2.784l0,-0.69064l0,-0.94" id="svg_41" stroke-width="2" stroke="#000" fill="none"/>
  <path t="122420,122458,122473,122489,122489,122506,122506,122575,122575,122577,122650,122670,122670,122678,122694,122706,122706,122722,122739,122739,122756,122772,122772,122789,122789,122789,122806,122822,122822,122822,122839,122856,122874,122874,122918,122962,122978,122994,123006,123022,123039,123056,123056,123072,123072,123089,123106,123122,123158,123166,123182,123190,123206,123222,123222,123239,123239,123256,123256,123256,123272,123272,123294,123294,123294,123430" d="m438,294c1.70001,0 2.63599,0 3.48532,0c0.91919,0 1.91467,0 2.71469,0c0.99966,0 1.76236,-0.08813 2.728,0c0.91675,0.08368 1.03479,1.00085 1.07199,1.79999c0.04272,0.91766 0.91626,1.35431 1,2.20001c0.07883,0.79608 -0.03955,1.75824 0.00449,2.65268c0.04263,0.86603 0.54657,1.66898 0.82886,2.51398c0.27457,0.8219 0.16666,1.83334 0.16666,2.62268c0,0.72534 0,1.73151 0,2.75333c0,0.70801 0,1.452 0,2.64301c0,0.91434 0,1.81433 0,2.61432c0,0.90002 0.05814,1.96869 -0.7045,2.19553c-0.85834,0.25531 -1.83023,-0.0484 -2.59549,0.35715c-0.84592,0.4483 -1.70001,0.64545 -2.45718,0.64734c-0.89551,0.00226 -1.78635,0.02344 -2.60684,0.42532c-0.86993,0.42609 -1.86124,0.31793 -2.51465,0.79602c-0.69363,0.50754 -1.10333,0.34317 -1.12134,-0.62134c-0.01682,-0.89984 0.07248,-1.81451 -0.08533,-2.48535c-0.23352,-0.99258 -0.62506,-1.56329 -0.79318,-2.53598c-0.1377,-0.79672 -0.10132,-1.62619 -0.12283,-2.89334c-0.01129,-0.66467 -0.16531,-1.68533 -0.42398,-2.47467l-0.29068,-0.72534l-0.26315,-0.96448" id="svg_42" stroke-width="2" stroke="#000" fill="none"/>
  <path t="128614,132224,132251,132263,132279,132290,132306,132321,132339,132339,132362,132362,132362,132371,132390,132414,132442,132442,132482,132518,132578,132594,132610,132610,132622,132638,132638,132655,132671,132689,132689,132704,132704,132721,132738" d="m489,255c-1,-0.47917 -1,0.5 -1,1.39999c0,0.89999 -0.17984,1.90012 0.284,2.51599c0.52399,0.69574 0.91989,1.41333 1.23685,2.10486c0.45419,0.99097 0.81924,1.55551 1.12198,2.32199c0.39072,0.98923 0.83276,1.55188 1.65717,2.00983c0.74231,0.41235 1.50015,0.66467 2.40002,0.64734c0.90054,-0.01733 1.79962,-0.37073 2.21597,-1.20001c0.42645,-0.84933 0.88477,-1.45364 1.06317,-2.32083c0.19412,-0.94363 0.02084,-1.82648 0.02084,-2.72198c0,-0.9585 0,-1.92383 0,-2.58252c0,-1.008 0,-1.87015 0,-2.77466l0,-0.89999" id="svg_43" stroke-width="2" stroke="#000" fill="none"/>
  <path t="133283,133293,133293,133293,133293,133293,133293,133370,133370,133370,133395,133411,133434,133462,133462,133486,133502,133530,133546,133572,133589,133605,133622,133622,133639,133639,133639,133655,133672,133694,133754,133763" d="m502,250c0.2215,2.64934 0.27975,3.18872 0.436,4.37733c0.08191,0.62306 0.15497,1.24866 0.36533,2.43468c0.1817,1.02448 0.30237,2.23621 0.89868,2.79932c0.64664,0.61066 1.50327,0.93185 2.39999,1.26718c0.85065,0.31808 1.69998,0.12149 2.60001,0.12149c0.89999,0 1.85776,0.30478 2.68933,-0.01068c0.72913,-0.27658 0.5152,-1.43384 0.89465,-2.18933c0.43555,-0.86719 0.71375,-1.61432 0.716,-2.56799c0.00171,-0.73199 0,-1.46399 0,-2.56c0,-0.972 0,-1.87199 0,-2.77167l0,-0.35866" id="svg_44" stroke-width="2" stroke="#000" fill="none"/>
  <path t="135026,135036,135036,135036,135036,135036,135036,135036,135036,135046,135046,135046,135061,135088,135088,135104,135104,135104,135121,135121,135122,135137,135137,135137,135154,135154,135154,135171,135171,135187,135204,135204,135221,135237,135237,135254,135271,135271,135287,135287" d="m501,259c1.32132,2.2135 1.48691,2.84064 1.65268,3.53116c0.17575,0.73212 0.34674,1.48981 0.52197,2.2515c0.17209,0.74796 0.284,1.47873 0.80368,3.22385c0.23441,0.78708 0.81216,1.60635 1.00082,2.4935c0.19397,0.91214 0.08585,1.5603 0.30618,2.55334c0.2157,0.97211 0.396,1.6532 0.71466,2.61331c0.2756,0.83038 0.62994,1.53177 0.83334,2.5c0.16315,0.77664 0.15524,1.608 0.16666,2.66669c0.01004,0.93066 0.02917,1.7821 0.35266,2.76215c0.2518,0.76288 0.61874,1.6459 0.64734,2.50467c0.02612,0.78476 -0.02399,1.72546 0,2.73318c0.01801,0.75662 0.42532,1.57733 0.87851,2.48798l0.10065,0.67868l0.02084,0.97849l0,0.82019" id="svg_45" stroke-width="2" stroke="#000" fill="none"/>
  <path t="135863,135873,135873,135873,135873,135873,135873,135873,135873,135873,135889,135889,135889,135889,135889,135889,135889,135889,135889,135906,135906,135923,135923,135939,135939,135955,135971,135971,135988,135988,136004,136598" d="m501,263c0.33334,3.83334 0.4422,4.86273 0.56799,6.02802c0.13681,1.26736 0.28268,2.60266 0.43201,3.97198c0.14932,1.36932 0.29559,2.70459 0.43201,3.97198c0.23621,2.19449 0.32635,3.06235 0.39734,3.77734c0.05746,0.5787 0.10049,1.03851 0.129,1.39651c0.02173,0.27271 0.03491,0.47757 0.039,0.6315c0.00592,0.2226 0.03369,0.98883 0.35532,1.87982c0.27277,0.75562 0.59552,1.73898 0.63666,2.50684c0.05798,1.08185 -0.03448,2.00494 0.02136,2.66135c0.08646,1.01633 0.564,1.76398 0.95331,2.57465l0.03601,0.89999" id="svg_46" stroke-width="2" stroke="#000" fill="none"/>
  <path t="137214,137235,137235,137235,137235,137235,137235,137243,137243,137267,137283,137283,137295,137319,137319,137334,137354,137362,137386,137403,137422,137422,137446,137462,137482,137490,137506,137521,137537,137554,137571,137587,137587,137604,137621,137637,137654,137654,137671,137687,137687,137704,137721,137721,137737,137737,137754,137771" d="m501,288c-2.64233,2.20667 -3.29999,3.06073 -3.62933,3.52667c-0.33273,0.47073 -0.96106,1.40378 -1.23199,1.85333c-0.82861,1.37497 -1.11734,2.16586 -1.13867,3.03067c-0.02246,0.91037 -0.08597,1.76804 0.00134,2.70398c0.08365,0.89676 0.646,1.58536 0.99866,2.38535c0.35266,0.79999 0.54251,1.86581 1.2215,2.37851c0.70776,0.53442 1.7785,0.12149 2.57849,0.12149c0.90002,0 1.80002,0 2.70001,0c0.89999,0 1.8548,0.0788 2.47467,-0.42532c0.61508,-0.50021 1.46152,-0.84036 1.90399,-1.67468c0.44275,-0.83481 0.8768,-1.43896 1.10049,-2.39999c0.20416,-0.87711 0.4632,-1.61182 0.85419,-2.5c0.28952,-0.65765 0.16666,-1.63599 0.16666,-2.48401c0,-0.86331 0.01434,-1.89078 -0.00015,-2.83731c-0.01041,-0.67892 -0.22134,-1.65701 -0.70435,-2.31702l-0.89551,-0.35098l-0.89999,-0.01068" id="svg_47" stroke-width="2" stroke="#000" fill="none"/>
  <path t="138264,138295,138295,138307,138307,138323,138348,138355,138371,138390,138415,138426,138437,138458,138482,138494,138518,138542,138562,138579,138594,138594,138622,138638,138662,138690,138714,138714,138730,138742,138754,138771,138790" d="m510,285c2.94818,-0.94284 3.73871,-1.01373 4.66669,-1c0.87665,0.01297 1.32715,0.62741 1.75867,1.39999c0.45673,0.81775 0.77332,1.59772 1.22198,2.3045c0.46191,0.72772 0.41962,1.63907 0.92731,2.32083c0.47723,0.64081 0.42535,1.57468 0.42535,2.47467c0,0.89999 0,1.79999 0,2.70001c0,0.89999 0,1.79999 0,2.59998c0,0.90002 -0.14532,1.64597 -0.716,2.28403c-0.58295,0.65176 -1.32227,0.74243 -2.08398,1.00131c-0.88788,0.30176 -1.60004,0.87866 -2.5,0.91467l-0.90002,0l-0.89999,0" id="svg_48" stroke-width="2" stroke="#000" fill="none"/>
  <path t="140461,140471,140471,140481,140481,140495,140496,140521,140537,140537,140537,140537,140554,140554,140554,140554,140571,140571,140571,140587,140588,140604,140621,140621,140637,140654,140671,140694,140694,140704,140721,140737,140737,140754,140754,140754,140771,140771,140771,140787,140861,140871,140871" d="m479,256c-0.94284,1.06699 -0.99774,2.05634 -1,3.07834c-0.0015,0.67499 0,1.755 0,2.61716c0,0.867 0,1.8045 0,2.67599c0,0.69101 -0.00101,1.44202 0,2.62851c0.00067,0.79733 -0.01309,1.57986 0.03601,2.328c0.08807,1.34213 0.31259,2.15454 0.53867,2.81467c0.33401,0.9754 0.35782,1.74451 0.436,2.68268c0.08472,1.01648 0.44022,1.68271 0.93665,2.47015c0.4462,0.70779 1.35953,1.05426 2.05267,1.7045c0.50507,0.47382 1.29865,0.97141 2.20132,1c0.96484,0.03055 1.81952,0 2.79868,0c0.81067,0 1.45715,0 2.68268,0c0.79648,0 1.54797,0 2.50299,0l0.91434,0l0.89999,0l0.79999,0" id="svg_49" stroke-width="2" stroke="#000" fill="none"/>
  <path t="141531,141541,141556,141556,141572,141588,141588,141604,141604,141604,141622,141622,141622,141637,141638,141654,141654,141654,141654,141671,141671,141687,141687,141687,141704,141704,141704,141721,141721,141721,141737,141737,141737,141754,141754,141754,141754,141771,141771,141787,141787,141804,141821,141821,141836,141854,141854,141871,141871,141871,141887,141887,141887,141903,141903,141922,142066" d="m509,276c1.02084,0 2.01495,0.17108 2.79868,-0.08533c0.92172,-0.30154 1.68936,-0.81396 2.41202,-0.94c0.99377,-0.17331 1.80725,-0.50241 2.47467,-0.776c0.99451,-0.40765 1.80865,-0.69943 2.362,-0.84149c1.2569,-0.32269 1.96136,-0.30457 3.11932,-0.52383c0.79358,-0.15027 1.32562,-0.36475 2.14929,-0.54935c1.2218,-0.27383 1.90936,-0.27597 2.85071,-0.284c0.78595,-0.00671 1.62024,0.04053 2.66663,-0.16666c0.95764,-0.18961 1.6076,-0.53702 2.58801,-0.71201c0.79712,-0.14227 1.63947,-0.10608 2.65753,-0.34283c0.71912,-0.16724 1.42169,-0.51068 2.56378,-0.87833c0.65778,-0.21173 1.35193,-0.4046 2.38934,-0.61484c0.92059,-0.18655 1.94775,-0.13318 2.80133,-0.452c0.82135,-0.30679 1.24683,-1.22327 2.16669,-1.66669c0.64728,-0.31201 1.65491,-0.14551 2.48535,-0.452c0.74579,-0.27524 1.71075,-0.82318 2.32532,-1.11465c0.86902,-0.41214 1.61163,-0.69696 2.40399,-1c0.77667,-0.29703 1.8147,-0.79868 2.47632,-1.24283l0.909,-0.3465l0.87921,-0.03152" id="svg_50" stroke-width="2" stroke="#000" fill="none"/>
  <path t="142870,142890,142890,142890,142890,142890,142890,142922,142937,142954,142971,142972,142987,142987,143004,143004,143021,143021,143037,143054,143055,143070,143071,143071,143087,143109,143109,143119,143137,143153,143169,143185,143202,143203,143219,143236,143253,143253,143269,143269,143286,143286,143302,143303,143318,143341,143341,143353,143353,143369,143386" d="m551,234c1.70398,-0.91333 2.552,-0.96089 3,-0.95833c0.88416,0.00507 2.29187,0.14127 2.97198,0.53299c0.758,0.43657 1.41089,0.87973 2.22803,1.34267c0.78455,0.44446 1.2572,1.13144 1.79999,1.916c0.46472,0.67169 1.23755,1.33643 1.70001,1.92384c0.54523,0.69255 0.88281,1.41093 1.24731,2.48566c0.28918,0.85255 0.71814,1.40057 1.15253,2.29984c0.3327,0.68875 0.63141,1.43272 0.81482,2.48666c0.16705,0.95999 0.08533,1.77068 0.08533,2.67067c0,0.90001 0.00226,1.8 0,2.7c-0.00226,0.90002 -0.38605,1.73836 -0.716,2.40001c-0.42053,0.84335 -0.23907,1.77045 -0.72668,2.52132c-0.47827,0.73651 -1.23083,1.50876 -1.5365,2.15784c-0.38672,0.82129 -0.8421,1.39377 -1.42084,2.34619c-0.41443,0.68204 -0.88525,1.43134 -1.59998,2.17465c-0.49011,0.5097 -1.20001,1.20001 -1.79999,1.79999l-0.60004,0.58936l-0.79865,0.52664" id="svg_51" stroke-width="2" stroke="#000" fill="none"/>
  <path t="143984,143994,143994,143994,144022,144038,144066,144074,144090,144104,144120,144137,144154,144174,144175,144195,144195,144210,144220,144237,144237,144254,144270,144270,144287,144287,144304,144320,144320,144337,144354,144354,144370,144370,144387,144404,144404,144419,144436,144453,144469,144469,144493,144509,144525,144541,144561,144561,144586,144613,144669,144706,144765,144774" d="m547,236c-2.05066,0.28534 -2.99329,0.47955 -3.58484,0.7045c-1.10541,0.42035 -1.09198,1.44992 -1.63647,2.17416c-0.48334,0.64287 -1.19519,1.10583 -1.77869,1.62134c-0.63788,0.56357 -0.96173,1.26555 -1.52081,2c-0.59137,0.77686 -1.22601,1.22717 -1.67786,1.98399c-0.49768,0.83362 -0.77271,1.7574 -0.80133,2.61601c-0.02997,0.89949 0,1.7 0,2.65717c0,0.89999 0,1.64732 0,2.64149c0,0.76534 -0.17334,1.91017 0.2215,2.70134c0.34393,0.68921 1.17853,1.29999 1.7785,1.89999c0.59998,0.60001 1.29999,1.29999 1.79999,1.79999c0.70001,0.70001 1.50385,1.32364 1.91467,2c0.47144,0.77612 1.0509,1.1618 1.78534,1.72086c0.77533,0.59018 1.27032,1.3179 2.20001,1.47467c0.78925,0.13309 1.61792,0.59363 2.39996,0.883c0.85175,0.31516 1.70001,0.12149 2.60004,0.12149c0.89996,0 1.79999,0 2.70001,0l0.89545,-0.00449l0.6792,-0.42084" id="svg_52" stroke-width="2" stroke="#000" fill="none"/>
  <path t="145359,145359,145359,145359,145359,145359,145359,145359,145359,145369,145369,145369,145369,145369,145369,145387,145404,145404,145420,145437,145437,145454,145470,145487,145487,145505,145529,145545,145554,145574,145589,145605,145620,145637,145657,145681,145742" d="m545,238c-0.22131,1.99916 -0.28448,2.77995 -0.35266,3.65083c-0.07324,0.93579 -0.14795,1.91162 -0.22198,2.9025c-0.0733,0.98079 -0.14545,1.92639 -0.25867,3.61334c-0.04675,0.69638 -0.08356,1.29182 -0.10504,1.7955c-0.01794,0.42036 -0.01569,1.2832 0.43835,2.03783c0.43256,0.71893 0.44586,1.58907 0.93597,2.364c0.52985,0.83769 1.20685,1.336 1.56403,2.136c0.35718,0.79999 1.00098,1.49905 1.59998,2.10001c0.69659,0.69888 0.9707,1.56223 1.56671,2.23334c0.53839,0.60626 1.18903,1.138 2.03333,1.16666c0.89935,0.03055 1.716,0.284 2.15717,0.94284l0.94281,0.05716l0.90002,0l0.89996,0" id="svg_53" stroke-width="2" stroke="#000" fill="none"/>
  <path t="147579,147603,147603,147608,147608,147622,147639,147639,147653,147653,147669,147669,147669,147669,147686,147686,147703,147703,147703,147719,147719,147719,147736,147736,147736,147753,147753,147753,147769,147786,147786,147786,147805,147805,147821,147841,147841,147856,147869,147888,147903,147903,147919,147935,147953,147969,147985,147986,148003,148021,148021,148036,148053,148068,148086,148103,148103,148119,148136,148153,148153,148169,148186,148203,148203,148267,148297,148305" d="m560,219c2.00531,-0.35266 2.74115,-0.60568 3.66669,-0.83333c0.90503,-0.2226 1.64801,-0.77248 2.53467,-1.08134c0.65076,-0.22668 1.6582,-0.07126 2.3175,-0.14249c1.12915,-0.12198 1.78589,-0.29831 2.83044,-0.5175c0.68231,-0.14317 1.88202,-0.32535 2.60901,-0.42534c1.0451,-0.14375 1.84253,-0.45639 2.49884,-0.64734c0.95209,-0.27699 1.7713,-0.29964 2.59021,-0.40533c1.03644,-0.13376 1.94196,-0.48463 2.63666,-0.66333c0.98639,-0.25372 1.80634,-0.21402 2.54663,-0.368c1.13513,-0.2361 1.9317,-0.77156 2.60535,-0.89067c0.76129,-0.13461 1.75031,-0.40259 2.50684,-0.67267c1.00995,-0.36055 1.80518,-0.72006 2.45715,-1.06866c0.84741,-0.45309 1.66309,-0.85765 2.5,-1.23132c0.77216,-0.34474 1.46863,-0.9045 2.40002,-1.04817c0.88947,-0.13721 1.86957,0.10695 2.59998,-0.36166c0.79993,-0.5132 1.16882,-1.18352 2.10004,-1.61751c0.7774,-0.3623 1.4281,-0.67401 2.29999,-1.078c0.8316,-0.38533 1.60852,-0.81172 2.5,-0.94865c0.91577,-0.14067 1.45795,-0.74918 2.09998,-1.29417c0.75464,-0.64058 1.73645,-0.53635 2.5,-0.78983c0.77216,-0.25635 1.64587,-0.7901 2.40002,-1.19867c0.65002,-0.35217 1.51465,-0.71468 2.41064,-0.716l0.95337,-0.036" id="svg_54" stroke-width="2" stroke="#000" fill="none"/>
  <path t="149036,149056,149056,149056,149056,149056,149056,149056,149056,149056,149071,149071,149071,149071,149071,149071,149071,149071,149071,149088,149088,149088,149088,149088,149105,149105,149121,149121,149138,149138,149138,149157,149157,149158,149172,149172,149186,149203,149219,149236,149236,149257,149257,149273,149273,149286,149303,149319,149336,149336,149353,149446,149490,149522,149579,149773" d="m566,198c4.33331,-0.33333 5.52673,-0.44226 6.88,-0.56799c1.47339,-0.13689 3.02667,-0.28267 4.62,-0.43201c1.59332,-0.14934 3.14661,-0.29544 4.62,-0.43201c2.54657,-0.23602 3.54999,-0.325 4.37335,-0.39867c0.66333,-0.05936 1.18701,-0.10469 1.58997,-0.1485c0.30365,-0.033 0.52966,-0.05713 0.69,-0.1035c0.23224,-0.06715 0.32788,-0.13701 0.42804,-0.20132c0.10425,-0.06696 0.53229,-0.44623 1.45581,-0.66333c0.73468,-0.17271 1.75415,-0.31152 2.54285,-0.66335c0.8125,-0.36244 1.59515,-0.82243 2.25714,-1.03217c0.94604,-0.29973 1.76526,-0.27563 2.53302,-0.40984c1.21417,-0.21223 1.77588,-0.79915 2.70984,-0.94283c0.88953,-0.13684 1.836,0.02776 2.62146,-0.22583c0.71643,-0.23129 1.67169,-0.66339 2.46783,-0.74268c1.03949,-0.10353 1.9328,0.14874 2.81067,-0.07199c0.86292,-0.21698 1.55145,-0.71478 2.40002,-1.13068c0.76251,-0.37372 1.49988,-0.82065 2.40002,-0.83333c0.89539,-0.0126 1.57465,-0.42534 2.17462,-0.98933l0.85071,-0.02133" id="svg_55" stroke-width="2" stroke="#000" fill="none"/>
 </g>
 <g display="none">
  <title>muse_image</title>
  <image xlink:href="http://farm3.static.flickr.com/2322/2337924477_a8f10f2b28.jpg" id="muse" height="480" width="640" y="0" x="0"/>
 </g>
 <g display="none">
  <title>bbox</title>
  <rect stroke="#f00" fill="none" stroke-width="3" height="227.84" width="633.6" y="111.36" x="3.84" id="bbox"/>
 </g>
</svg>
