<svg width="640" height="480" xmlns="http://www.w3.org/2000/svg" xmlns:svg="http://www.w3.org/2000/svg" xmlns:xlink="http://www.w3.org/1999/xlink">
 <!-- Sketchy ANNOTATION
  ImageNet ID: n02691156_573
  URL: http://farm1.static.flickr.com/149/356218681_4174483173.jpg
  Image Width: 500
  Image Height: 500
  BBox X: 38
  BBox Y: 8
  BBox Width: 404
  BBox Height: 491
  Exposure: 2000ms
  Synset Label: airplane
  Synset ID: n02691156
  Worker Tag: a airplane
  Sanity Check: 
   Context
   Saved
   Shading
  Comment: 
   {}
  Worker ID: A1R959DUXT5S4I
  Assignment ID: 3EF8EXOTT1VCLGGSANH5L8AS7IN1JL
  HIT ID: 35A1YQPVFEGDR3ZB3QTFNDDO6CY5I2
  Work Time: 176s
  Worker Score: 0.9286
 END ANNOTATION -->
 <g display="inline">
  <title>Layer 1</title>
  <path t="38112,38280,38280,38301,38301,38313,38313,38330,38330,38345,38345,38362,38363,38377,38377,38395,38396,38396,38396,38412,38412,38412,38412,38429,38429,38430,38445,38445,38445,38445,38462,38462,38462,38477,38478,38495,38495,38512,38512,38530,38530,38548,38548,38562,38562,38562,38578,38578,38595,38617,38617,38630,38630,38630,38630,38645,38645,38664,38664,38664,38677,38677,38696,38696,38697,38697,38713,38714,38714,38729,38745,38745,38764,38764,38777,38778,38796,38796,38813,38813,38832,38832,38832,38848,38848,38848,38865,38865,38865,38865,38875,38875,38876,38896,38897,38914,38914,38914,38914,38914,38930,38930,38930,38930,38930,38948,38948,38948,38963,38964,38964,38964,38981,38981,38981,38997,38997,38997,39014,39014,39014,39014,39033,39033,39033,39048,39049,39049,39064,39064,39075,39076,39098,39098,39114,39114,39139,39165,39165,39177,39177,39177,39199,39199,39214,39214,39230,39231,39246,39247,39473,39485" d="m258.82986,114.88889c1.81467,0.44666 2.62518,0.80796 2.92798,1.836c0.21713,0.73716 0.07202,1.764 0.07202,2.564c0,0.99866 -0.05118,1.76545 0.00131,2.716c0.0426,0.77141 0.47888,1.70135 0.71469,2.48534c0.29752,0.9891 0.27621,1.67064 0.284,2.732c0.00717,0.97648 0.00211,1.68867 0.05716,2.4185c0.08176,1.08395 0.28796,2.09422 0.46365,2.72734c0.17197,0.61971 0.59158,1.81688 0.8685,2.72083c0.18304,0.5975 0.46301,1.79773 0.52536,2.40001c0.0929,0.89751 0.08466,1.79999 0.08533,2.69966c0.00064,0.879 -0.05069,1.6873 0.00131,2.731c0.0426,0.85506 0.4556,1.79399 0.64603,2.37383c0.32162,0.97931 0.32883,1.79573 0.35281,2.79533c0.02313,0.96455 0.27182,1.75508 0.57449,2.4615c0.36722,0.85703 0.41373,1.85933 0.42401,2.65601c0.01285,0.99593 -0.08661,1.84015 0.00266,2.79733c0.08365,0.89674 0.64938,1.57242 0.832,2.38533c0.19055,0.84828 0.15503,1.52069 0.16534,2.53333c0.01218,1.19595 -0.00558,1.92503 0.00134,2.96667c0.00534,0.80005 0.05338,1.6086 0.284,2.40266c0.25565,0.88026 0.57001,1.92836 0.63068,2.56534c0.09802,1.02936 0.07816,1.72668 0.08533,2.69867c0.00775,1.05069 0.04254,1.86343 0.42532,2.70799c0.3678,0.81146 0.56424,1.62517 0.57468,2.604c0.00824,0.77396 -0.00101,1.6785 0,2.42583c0.00134,0.99417 0.00763,2.01166 0.56799,2.71284c0.49704,0.62195 1.24481,1.41446 1.35999,2.144c0.12366,0.78329 0.07202,1.81749 0.07202,2.524c0,0.98399 -0.01242,1.85771 0.01065,2.87599c0.01639,0.72426 0.03186,1.46239 0.21066,2.51683c0.16483,0.97197 0.48361,1.78981 0.65717,2.6795c0.16696,0.85594 0.12152,1.80901 0.12152,2.48367c0,0.80266 0,1.70132 0,2.66399c0,0.99467 0,1.99068 0,2.48117c0,0.951 -0.00281,1.84201 0,3.0135c0.00226,0.93752 0.00113,1.74474 0.16666,2.83333c0.09702,0.63809 0.26938,1.31512 0.48068,2.36134c0.19592,0.97005 0.31549,1.79449 0.34198,2.51999c0.04401,1.20624 0.01068,2.032 0.01068,2.632c0,1.32001 0,2.036 0,2.76801c0,0.724 0,2.052 0,2.8755c0,0.72449 0,1.6765 0,2.46249c0,0.82201 -0.07062,1.88423 0.01065,2.78999c0.08374,0.93333 0.79434,1.49086 0.93216,2.31984c0.15384,0.92545 0.05719,1.79449 0.05719,2.73483c0,0.83867 0,1.86433 0,2.66434c0,0.95966 0,1.76366 0,2.58566c0,1.03101 0,1.911 0,2.786c0,0.79201 0,1.82384 0,2.57117c0,0.99417 0,1.75951 -0.00134,2.70883l-0.35583,0.82501" id="svg_12" stroke-width="2" stroke="#000" fill="none"/>
  <path t="40128,40328,40339,40365,40383,40384,40384,40397,40397,40398,40398,40398,40398,40415,40416,40416,40428,40428,40429,40429,40429,40447,40448,40448,40466,40466,40466,40466,40467,40467,40481,40481,40481,40482,40482,40482,40498,40498,40498,40516,40516,40516,40516,40532,40532,40548,40548,40565,40566,40582,40599,40599,40612,40613,40613,40630,40647,40664,40664,40683,40683,40683,40698,40699,40712,40712,40712,40712,40736,40736,40749,40749,40764,40765,40765,40783,40784,40784,40797,40815,40815,40832,40834,40848,40849,40864,40864,40881,40882,40882,40882,40894,40894,40915,40915,40933,40933,40933,40933,40949,40950,40950,40965,40965,40981,40981,40981,40997,40998,40998,41015,41016,41034,41034,41034,41034,41050,41050,41050,41065,41065,41065,41065,41076,41077,41077,41077,41098,41098,41098,41099,41114,41114,41114,41114,41132,41132,41133,41148,41148,41164,41165,41182,41198,41198,41215,41216,41216,41230,41249,41249,41258,41289,41306,41321,41337" d="m282.82986,111.88889c0,1.8 -0.03625,2.63984 0.436,3.41067c0.49274,0.80426 1.00049,1.45449 1.26398,2.2225c0.34921,1.01793 0.5029,1.90199 0.59552,2.3775c0.19241,0.98767 0.35205,1.97797 0.41916,2.45333c0.17627,1.24881 0.263,2.22361 0.28082,3.0895c0.01947,0.94631 -0.0018,1.69862 0.01517,2.5225c0.01749,0.8482 0.0137,1.68139 0.21085,2.76c0.16425,0.89865 0.50562,1.71519 0.7785,2.664c0.21677,0.75369 0.39609,1.6281 0.47916,2.10417c0.17822,1.02124 0.26422,1.56807 0.39951,3.33783c0.04739,0.61998 0.06854,1.24533 0.12134,2.47467c0.02527,0.58865 -0.02603,1.15776 0.16666,2.58333c0.13235,0.97926 0.49323,1.62428 0.71201,2.76416c0.11353,0.59148 0.12012,1.59868 0.20532,2.26917c0.15268,1.20164 0.49863,1.87764 0.74933,2.8c0.24487,0.90085 0.16669,1.81934 0.16669,2.51401c0,1.01666 -0.06821,1.98546 0.17065,2.62334c0.40842,1.09068 0.86954,1.50705 1.26132,2.26132c0.55453,1.0676 0.56802,1.968 0.56802,2.86833c0,0.714 -0.01929,1.66983 0.02081,2.4205c0.04263,0.79797 0.32474,2.03096 0.58984,2.7045c0.37311,0.94789 0.70309,1.7216 0.95334,2.54935c0.1626,0.53786 0.40323,1.767 0.43149,2.62082c0.03323,1.00397 -0.008,1.80458 0.00467,2.80467c0.01041,0.82086 0.0513,1.49252 0.28384,2.4825c0.18872,0.80341 0.53076,1.53044 0.67999,2.65601c0.10895,0.82159 0.03601,1.66133 0.03601,2.64c0,0.774 -0.11594,1.69389 0.08533,2.53734c0.22217,0.93106 0.74829,1.61327 1.0145,2.46933c0.22308,0.71738 0.39056,1.51242 0.543,2.304c0.25446,1.32135 0.34674,2.14798 0.35718,3.03233c0.00848,0.71996 -0.01233,1.84517 0.00449,2.6355c0.01816,0.85388 0.03543,1.45259 0.27951,2.64149c0.18234,0.88809 0.48193,1.70737 0.63068,2.716c0.09741,0.66048 0.05615,1.68625 0.09598,2.496c0.04312,0.87679 0.27335,1.87334 0.48935,2.68933c0.216,0.81599 0.40927,1.81685 0.5,2.5c0.15518,1.16826 0.35693,1.95607 0.5,2.52083c0.22266,0.87885 0.42917,2.07951 0.46399,2.68983c0.05396,0.94548 0.0282,1.95609 0.03867,2.672c0.01071,0.73216 0.0145,1.83452 0.33066,2.78401c0.28677,0.86122 0.7428,1.29523 1.09866,2.10133c0.51154,1.15872 0.51239,1.90306 0.54669,2.65332c0.03571,0.78075 0.01523,1.97841 0.02582,2.76967c0.01025,0.76744 -0.02972,1.50806 0.21683,2.76601c0.15338,0.78264 0.5387,1.63115 0.72601,2.6385c0.13797,0.74199 0.49127,1.60995 0.76868,2.2885c0.36838,0.90106 0.284,1.94933 0.284,2.77733c0,0.88133 -0.00232,1.58934 0,2.57066c0.00226,0.95369 0.32611,1.80466 0.716,2.56801c0.38452,0.75288 0.284,1.7 0.284,2.59999l0,0.90001l0,0.90134" id="svg_13" stroke-width="2" stroke="#000" fill="none"/>
  <path t="42193,42283,42488,42488,42520,42552,42650,42650,42992,43008,43008,43026,43044,43068,43081,43081,43081,43093,43093,43093,43093,43114,43114,43114,43114,43114,43131,43131,43131,43131,43131,43131,43147,43148,43148,43148,43148,43164,43164,43164,43164,43179,43179,43180,43196,43197,43197,43197,43213,43213,43213,43213,43213,43213,43231,43232,43232,43232,43249,43249,43249,43252,43252,43252,43264,43264,43264,43264,43264,43274,43275,43275,43298,43298,43298,43299,43315,43316,43316,43316,43316,43331,43331,43331,43352,43353,43353,43363,43364,43364,43381,43381,43381,43396,43397,43397,43412,43412,43428,43428,43443,43443,43461,43461,43486,43486,43498,43498,43498,43513,43530,43555,43968" d="m305.82986,249.88889c1,-1.02083 1.06442,-2.12923 1.7045,-2.63834c0.67734,-0.53873 1.70615,-0.36166 2.61682,-0.36166c0.85333,0 1.79333,0 2.67868,0c0.79999,0 1.82452,-0.41463 2.64282,0.05716c0.73227,0.42216 0.92447,1.43237 1.39883,1.98451c0.55707,0.64839 1.15311,1.38408 1.77966,2.19432c0.44675,0.57774 0.91519,1.19983 1.82184,2.06384c0.65207,0.6214 1.0246,0.91016 1.81418,1.46416c0.81583,0.57242 1.70364,1.08025 2.62534,1.55202c0.46271,0.23685 1.39865,0.67963 1.85599,0.90933c0.8963,0.45016 2.1243,1.18771 2.49066,1.45865c0.71063,0.52554 1.34467,1.09604 1.96802,1.63202c0.89584,0.77026 1.49792,1.22714 2.36664,1.87332c0.55054,0.40952 1.31857,1.00616 2.01068,1.61066c0.68188,0.59558 1.38812,1.20511 2.18701,1.80902c0.57721,0.43634 1.21368,0.88879 2.20499,1.72433c0.35974,0.30322 1.08307,0.97076 1.83334,1.64581c0.3732,0.33578 1.07935,1.01938 2.17883,1.75684c0.65274,0.43784 1.34927,0.75031 2.03101,1.12201c1.13608,0.61942 1.5397,0.89633 2.39548,1.50449c0.44901,0.31909 1.3439,0.99765 1.78934,1.33667c1.2717,0.9679 1.66049,1.26013 2.38651,1.7865c0.65485,0.47476 1.27426,0.87817 2.29749,1.71436c0.71155,0.58148 1.12747,1.02316 2.08801,1.79999c0.5101,0.41254 1.06754,0.81943 1.995,1.39999c0.99213,0.62106 1.72137,0.99936 2.453,1.39999c0.36469,0.19971 1.10602,0.55359 2.34235,1.39969c0.54279,0.37146 1.1629,1.03085 2.043,1.46698c0.76025,0.37671 1.64862,0.41684 2.39999,0.90533c0.64975,0.42242 1.21634,1.10309 2,2.11069c0.40863,0.52539 0.73599,1.11526 1.60001,1.98398c0.55704,0.56006 1.36475,0.99252 2.116,1.53336c0.65698,0.47299 1.37643,0.98575 2.05865,1.39999c0.95355,0.57901 1.55377,1.12753 2.48251,1.34732c0.73441,0.1738 1.75412,0.31152 2.54282,0.66333c0.81256,0.36246 1.5665,0.83545 2.31467,1.104c0.94131,0.33789 1.88535,0.28534 2.78534,0.28983l0.79968,0.21667" id="svg_14" stroke-width="2" stroke="#000" fill="none"/>
  <path t="44538,44737,44753,44765,44783,44783,44798,44799,44817,44827,44827,44849,44849,44867,44867,44867,44883,44884,44884,44884,44898,44898,44911,44911,44912,44932,44932,44950,44950,44950,44965,44966,44983,44983,44983,44983,44996,44996,44996,45016,45016,45033,45033,45048,45048,45066,45066,45079,45080,45080,45080,45099,45100,45100,45100,45115,45115,45115,45115,45115,45115,45133,45133,45133,45133,45134,45134,45150,45150,45150,45151,45151,45151,45163,45164,45164,45164,45164,45164,45181,45182,45182,45182,45182,45201,45201,45201,45202,45215,45215,45216,45216,45216,45233,45233,45233,45234,45234,45248,45248,45248,45248,45267,45268,45268,45268,45268,45283,45299,45317,45537,45579,45579,45596,45614,45632" d="m272.82986,244.88889c-1.16934,1.71466 -2.19931,1.67545 -2.83069,2.28667c-0.67679,0.65518 -0.66406,1.51329 -1.00266,2.54666c-0.24289,0.74123 -0.61856,1.55193 -1.26651,2.26683c-0.47607,0.52527 -0.75568,1.40024 -0.96149,2.1105c-0.29523,1.01881 -0.82257,1.60161 -1.34766,2.30368c-0.60489,0.80881 -0.99124,1.45007 -1.38034,2.11499c-0.55573,0.94968 -0.9794,1.78101 -1.71066,2.32901c-0.76315,0.57193 -1.3674,0.8761 -2.01602,1.64432c-0.64374,0.76245 -0.93652,1.43066 -1.65067,2.39734c-0.45673,0.61823 -1.01581,1.1564 -1.66666,1.83334c-0.65378,0.67996 -1.17311,1.49713 -1.47116,2.17648c-0.33885,0.77234 -0.52228,1.34509 -1.1795,2.30484c-0.47534,0.69415 -1.04628,1.27347 -1.632,2.08267c-0.52223,0.7215 -1.20386,1.36472 -2.05867,1.61734c-0.93842,0.27734 -1.55383,0.72504 -2.02666,1.47198c-0.46829,0.73978 -0.95416,1.68707 -1.45584,2.466c-0.35582,0.55246 -0.71648,1.11923 -1.54333,2.12616c-0.39848,0.48526 -1.09904,1.19177 -1.65549,1.69049c-0.99355,0.8905 -1.39861,1.20145 -2.24133,1.90268c-0.44431,0.36969 -0.90428,0.74274 -1.82133,1.53067c-0.92035,0.79077 -1.36472,1.19174 -2.21967,1.99283c-0.4175,0.3912 -0.82327,0.78033 -1.60001,1.54733c-1.09964,1.08585 -1.43437,1.44196 -2.11349,2.10001c-0.66307,0.64252 -0.99289,0.96637 -1.7175,1.55582c-1.14774,0.93369 -1.59909,1.20016 -2.47067,1.81201c-0.44005,0.30893 -1.31171,0.92953 -1.70667,1.27466c-1.13174,0.98898 -1.69164,1.759 -1.95601,2.12933c-0.51167,0.71674 -0.92543,1.46118 -1.71899,2.3425c-0.50771,0.56387 -1.11372,1.0304 -1.74001,1.49103c-0.99521,0.73196 -1.72282,1.23514 -2.46365,1.77716c-0.74985,0.54861 -1.11803,0.82751 -2.20801,1.608c-0.67888,0.48611 -1.33536,0.93484 -1.95599,1.392c-0.61406,0.4523 -1.51216,1.19449 -2.11517,1.72733c-0.61769,0.54581 -1.22525,1.1312 -2.26216,1.88068c-0.69713,0.50388 -1.42963,0.92407 -2.136,1.284c-0.63602,0.32407 -1.81281,0.43597 -2.576,1.104c-0.60518,0.52969 -1.10332,1.19449 -1.12134,0.77866c-0.03464,-0.79922 0,-1.70001 0,-2.60001l0.02084,-0.92084" id="svg_15" stroke-width="2" stroke="#000" fill="none"/>
  <path t="48649,48769,48786,48786,48802,48818,48834,48848,48861,48883,48883,48901,48919,48919,48933,48933,48961,48961,48985,49002,49417,49432,49969,50033,50033,50153,50185,50209,50223,50223,50249,50266,50273,50273,50299,50314,50314,50337,50379,50393,50393,50415,50432,50450,50465,50465,50481,50482,50502,50502,50517,50531,50531,50550,50550,50555,50556,50583,50599,50614,50644,50644,50681,50682,50693,50721,50733,50750,50761,50785,50801,50817,50830,50830,50851,50867,50867,50883,50883,50900,50900,50900,50916,50917,50934,50934,50949,50949,50949,50967,50967,50982,50982,50999,51000,51000,51000,51008,51008,51009,51009,51009,51034,51035,51035,51035,51050,51050,51050,51067,51067,51068,51086,51086,51086,51086,51103,51104,51132,51133" d="m203.82985,315.88889c0.05717,1.75717 0.38156,2.64111 0.64734,3.34732c0.33215,0.88257 0.19334,1.95056 0.70534,2.60001c0.48454,0.61462 0.54346,1.5015 0.93134,2.25269c0.33919,0.65692 0.71375,1.55716 0.71599,2.45715c0.00186,0.74734 -0.07864,1.74933 0.03601,2.50684c0.14703,0.97141 0.61237,1.6629 1.01666,2.53601c0.38513,0.83173 0.81845,1.65613 1.37267,2.27466c0.52992,0.59143 1.28308,0.99548 2.092,1.02399c0.96124,0.03384 1.89319,0.13406 2.78267,-0.00314c0.9314,-0.14368 1.52596,-0.64896 2.40001,-1.04819c0.85031,-0.3884 1.64973,-0.71301 2.43866,-0.97266c0.85867,-0.28259 1.42787,-0.92383 2.21317,-0.97018c1.01053,-0.05966 1.75537,-0.45746 2.64816,-0.83783c0.75154,-0.32019 1.62013,-0.16376 2.40001,-0.59198c0.82324,-0.45203 1.59108,-0.91479 2.09999,-1.57468c0.58995,-0.76498 1.38699,-0.95343 2.32533,-1.01068c0.69341,-0.0423 1.63318,-0.59686 2.496,-0.86798c0.65771,-0.20667 1.66676,-0.32803 2.43134,-0.82584c0.73938,-0.48138 1.43625,-0.84488 2.1375,-1.591c0.59105,-0.62888 1.43512,-0.62277 2.2765,-0.87115c0.6825,-0.20148 1.64517,-0.86377 2.3125,-1.3125c0.6985,-0.4697 1.26003,-1.12851 1.95683,-1.48483c0.84982,-0.43457 1.44449,-0.74393 2.17467,-1.02533c0.81187,-0.3129 0.99319,-0.86771 1.556,-1.67734c0.43314,-0.62311 1.43039,-1.02908 2.31866,-1.24802c0.70798,-0.1745 1.71732,-0.03796 2.51466,-0.10617c1.0069,-0.08612 1.80547,-0.40326 2.40001,-0.68365c1.00833,-0.47552 1.77597,-0.8765 2.57883,-1.39532c0.69321,-0.448 1.56274,-0.78726 2.27185,-0.87485c0.97995,-0.12103 1.90512,-0.45285 2.63199,-0.74133c0.9303,-0.36923 1.60275,-0.33194 2.53915,-0.72684c0.86102,-0.36313 1.44913,-0.76797 2.15018,-1.07449c1.15295,-0.50409 2.03378,-0.733 2.47867,-0.86801c0.89957,-0.27298 1.81329,-0.52014 3.00616,-1.15717c0.38248,-0.20425 1.04761,-0.71475 1.97699,-1.39499c0.78882,-0.57736 1.5083,-0.89838 2.36166,-1.10617c1.00635,-0.24506 1.63995,-0.49396 2.37518,-0.75766c1.18787,-0.42603 1.88062,-0.59653 2.57867,-0.79868c0.68326,-0.19788 1.87866,-0.60001 2.58817,-0.89999l0.89581,-0.5l0.64584,-0.47916" id="svg_16" stroke-width="2" stroke="#000" fill="none"/>
  <path t="54003,54185,54204,54217,54233,54249,54267,54272,54272,54299,54299,54318,54318,54332,54353,54514,54531,54550,54565,54584,54599,54606,54606,54634,54634,54648,54648,54665,54665,54681,54681,54700,54700,54714,54733,54734,54734,54751,54751,54759,54760,54797,54815,54815,54815,54832,54833,54850,54851,54851,54897,54970,55050,55066,55091,55091,55116,55132,55151,55162,55162,55186,55186,55210,55234,55257,55258,55272,55272,55298,55316,55329,55331,55345,55346,55367,55367,55409,55457,55473,55501,55517,55529,55533,55545,55568,55585,55586,55618,55618,55722,55722,55745,55760,55785,55802,55813,55827,55828,55844,55844,55861,55862,55862,55921,55969,55985,55985" d="m382.82986,299.88889c1.08398,1.71466 1.75183,2.31299 2.284,2.91599c0.56644,0.64185 0.60422,1.46768 1.15201,2.06934c0.6474,0.71106 1.14029,1.21545 1.66382,1.99335c0.44446,0.66037 0.84869,1.50284 0.89566,2.36865c0.0545,1.00464 1.07944,1.50555 0.95786,2.22736c-0.12973,0.77008 -1.64441,0.05075 -2.51733,0.46133c-0.74161,0.34882 -1.29684,0.94598 -2.26935,0.96399c-0.79187,0.01465 -1.65201,-0.00061 -2.57117,0c-0.99548,0.00067 -1.81216,-0.0383 -2.79532,0.22134c-0.60312,0.15927 -1.62262,0.68463 -2.42551,0.76797c-0.85416,0.08868 -1.72202,0.01068 -2.62201,0.01068c-0.91934,0 -1.79434,0 -2.43933,0c-1.26151,0 -2.052,0 -2.98001,0c-0.79166,0 -1.75467,0 -2.66666,0c-0.672,0 -1.66135,0 -2.69867,0c-0.77332,0 -1.73599,0 -2.46799,0c-0.73199,0 -1.95834,0 -2.80002,0c-0.89999,0 -1.79999,0 -2.69998,0c-0.80002,0 -1.72595,0.18146 -2.60001,-0.03601c-0.87271,-0.21713 -1.55801,-0.86099 -2.39999,-0.94315c-0.97412,-0.09503 -1.83426,0.1792 -2.70001,-0.078c-0.90372,-0.26846 -1.6019,-1.07977 -2.29999,-1.422c-0.81305,-0.39856 -1.46536,-0.76105 -2.16934,-1.23685c-0.75491,-0.51022 -1.84332,-0.16385 -2.60934,-0.30533c-0.92557,-0.17096 -0.97678,-1.21573 -1.78934,-1.80933c-0.61249,-0.44742 -1.53571,-0.64478 -2.07932,-1.22202c-0.64282,-0.68262 -1.21619,-1.26874 -1.70532,-1.89917c-0.51178,-0.65961 -0.77151,-1.44571 -1.29468,-2.09631c-0.50314,-0.62573 -1.05612,-1.27136 -1.76166,-1.65186c-0.9754,-0.52606 -1.72507,-0.95657 -2.56952,-1.1785c-0.8017,-0.21066 -1.73615,-0.29214 -2.02148,-1.12149c-0.28534,-0.82935 -1.20001,-1 -2.10001,-1c-0.89999,0 -1.65717,0 -2.56168,0c-0.79999,0 -1.75949,0 -2.55298,0c-0.77551,0 -1.97101,0 -2.88535,0l-0.89999,0l-0.80002,0" id="svg_17" stroke-width="2" stroke="#000" fill="none"/>
  <path t="57203,57410,57410,57423,57450,57452,57468,57469,57469,57469,57483,57484,57499,57499,57499,57516,57516,57534,57534,57534,57551,57551,57551,57566,57580,57581,57601,57601,57617,57618,57618,57634,57634,57635,57653,57653,57664,57664,57664,57664,57685,57685,57685,57685,57700,57700,57700,57700,57714,57714,57714,57715,57733,57733,57733,57751,57752,57752,57752,57752,57779,57779,57779,57779,57779,57779,57805,57805,57808,57808,57808,57808,57833,57834,57834,57834,57854,57854,57879" d="m281.82986,303.88889c1.16666,1 1.65363,1.56039 2.2955,2.29999c0.57861,0.66669 0.71262,1.41135 0.92581,2.46417c0.12158,0.6004 0.36725,1.59305 0.49469,2.26917c0.22461,1.19162 0.20432,1.94095 0.45065,2.96667c0.19632,0.81754 0.54724,1.38446 0.74933,2.40134c0.16409,0.82565 0.23834,1.76834 0.43668,2.55133c0.20905,0.82538 0.52472,1.87549 0.61133,2.80066c0.07092,0.75748 0.03601,1.74667 0.03601,2.56818c0,0.88916 0,1.87851 0,2.6785c0,1 0,1.81067 0,2.45715c0,1.22684 0,2.04285 0,2.59018c0,1.26868 0,1.95267 0,3.11932c0,0.79501 0,1.375 0,2.32001c0,1.03467 0,1.76599 0,2.51334c0,1.116 0,2.17883 0,2.85184c0,1.00949 0,1.7175 0,2.8905c0,0.854 0,1.716 0,2.53799c0,1.05301 0,1.80899 0,2.63034c0,1.07532 0,1.81799 0,2.67267c0,0.45932 0,1.422 0,2.91681c0,0.50119 0,1.51053 0,2.02069c0,1.03632 -0.00162,1.56448 0.00015,3.20032c0.00061,0.56149 0.00635,1.6936 0.02066,2.258c0.02817,1.11127 0.03098,1.65488 0.2005,3.17734c0.05234,0.47009 0.20401,1.33951 0.35333,2.11417l0.25867,1.22934l0.14584,0.9375l0.02084,0.86249" id="svg_18" stroke-width="2" stroke="#000" fill="none"/>
  <path t="59722,59857,59873,59896,59896,59896,59913,59916,59916,59916,59934,59934,59935,59935,59935,59935,59945,59945,59945,59945,59945,59945,59946,59963,59963,59966,59966,59979,59979,59979,59979,60002,60002,60002,60002,60018,60018,60018,60018,60027,60028,60028,60028,60028,60044,60060,60061,60079,60080,60080,60099,60099,60130,60130,60130,60145,60145,60145,60168,60168,60188,60188,60208,60229,60229,60269,60269,60269,60313,60345,60377,60410,60441,60460,60483,60495,60495,60545,60571,60571,60603,60665,60687,60708,60737,61065,61217,62009,62010,62059,62084,62111,62137,62137,62161,62161,62161,62177,62177,62177,62177,62228,62229,62229,62242,62243,62243,62243,62254,62254,62255,62255,62255,62278,62279,62279,62279,62279,62299,62300,62300,62300,62320,62321,62321,62361,62361,62387,62387,62405,62406,62408,62408,62430,62430,62430,62430,62453,62453,62478,62479,62511,62511,62531,62531,62553,62564,62897,62921,62940,62969,62969,62981,62982,62982,62996,62997,63019,63019,63020,63050,63050,63050,63074,63074,63074,63074,63098,63099,63137,63163,63330,63363,63409,63433,63453,63453,63473,63473,63491,63492,63508,63508,63549,63550,63550,63563,63563,63564,63564,63581,63582,63603,63621,63622,63649,63650,63684,63687,63687,63687,63687,63687,63688,63721,63722,63722,63722,63722,63761,63786,63818,63819,63921,63922,63940,63941,63969,63989,63990,63990,64007,64153" d="m309.82986,301.88889c2.01465,1.60001 2.56622,2.35327 2.87866,3.32184c0.23041,0.71429 0.17978,1.45474 0.40668,2.65015c0.13547,0.71375 0.32669,1.48505 0.51599,2.31601c0.2001,0.87833 0.40616,1.79834 0.58798,2.76935c0.09442,0.50433 0.26108,1.56058 0.32535,2.11465c0.13452,1.15961 0.20337,2.39325 0.23267,3.02432c0.02939,0.63293 0.07541,1.88113 0.10532,2.48401c0.02884,0.58112 0.15155,2.13663 0.30002,2.99551c0.13214,0.76443 0.33304,1.45712 0.48065,2.49081c0.15436,1.08099 0.1539,1.83435 0.21933,2.58069c0.0954,1.0878 0.21332,1.77347 0.46817,2.75266c0.17078,0.65619 0.49481,1.66254 0.77469,2.75717c0.19455,0.76096 0.38095,1.54245 0.53781,2.74283c0.10367,0.7934 0.13815,1.56778 0.15601,2.29199c0.01608,0.65189 0.01068,1.841 0.01068,2.87466c0,0.66934 0,1.83334 0,2.63333c0,0.80002 0,1.80002 0,2.60001c0,1.00269 0,1.64166 0,2.37067c0,1.19601 0,1.86932 0,2.86685c0,1.09814 0,1.82083 0,2.8465c0,0.69064 0,1.76334 0,2.68265c0,0.66934 0,1.83334 0,2.62268c0,0.72534 0,1.68982 0,2.61066c0,0.89999 -0.14981,1.81259 0.00015,2.69983c0.14401,0.85202 0.97125,1.26056 0.99985,2.2215c0.0202,0.67838 0,1.79333 0,2.67868c0,0.79999 -0.01065,1.70007 0,2.60001c0.01041,0.87933 0.72876,1.35135 0.99548,2.10449c0.31573,0.89157 0.86536,1.2775 1.83783,1.2955c0.86203,0.01596 1.66669,0 2.56668,0c0.89999,0 1.81104,-0.05554 2.57068,0.08533c1.0658,0.19763 1.59915,0.43726 2.51733,0.80133c1.04175,0.41306 1.75534,0.76215 2.47031,1.0925c0.67441,0.31161 1.76688,0.82123 2.5625,1c0.60992,0.13705 1.8187,0.30759 2.61252,0.44617c0.8728,0.15237 1.32394,0.25034 2.69998,0.40802c0.87946,0.10077 1.73099,0.13678 2.556,0.19199c0.80966,0.0542 2.01309,0.18268 2.81067,0.33185c0.80267,0.15012 1.60031,0.34607 2,0.44415c1.20078,0.29471 1.9938,0.50165 2.77917,0.67783c0.76208,0.17093 2.19772,0.41422 2.85468,0.46368c0.8822,0.06644 1.83282,0.05643 2.78082,0.05716c0.87335,0.00067 1.6723,0.00522 2.71866,0.16666c0.63919,0.0986 1.68546,0.34381 2.41852,0.48068c1.0787,0.20142 1.76028,0.28876 2.70648,0.33182c0.85434,0.03888 1.86099,-0.03967 2.73102,0.05685c1.02109,0.11328 1.56784,0.4838 2.64398,0.79733c0.77502,0.2258 1.65067,0.16666 2.51401,0.16666c0.89551,0 1.8613,-0.12415 2.7525,0.00015c0.80176,0.11182 0.74072,1.14465 1.06683,1.99985c0.28009,0.73456 0.74014,1.54004 0.79733,2.26132c0.06253,0.78864 0.03601,2.05469 0.03601,2.73868c0,1.16666 0,1.95267 0,2.77466c0,1.05869 0,1.77716 0,2.48666c0,1.07202 0,2.03952 0,2.71783c0,0.65836 0,1.96484 0,2.70734c0,0.91351 0.39587,1.90637 -0.02084,2.79266c-0.33182,0.70575 -1.47916,0.52307 -2.37915,0.52084c-0.90903,-0.00226 -1.57584,-0.06616 -2.60535,-0.35266c-0.74799,-0.20816 -1.66806,-0.45074 -2.47385,-0.64734c-1.01602,-0.24792 -1.7305,-0.61264 -2.52081,-1c-0.82034,-0.40207 -1.50549,-0.72595 -2.64252,-1.10001c-0.65356,-0.215 -1.34937,-0.36172 -2.30417,-0.69998c-1.01239,-0.35867 -1.58636,-0.84534 -2.46399,-1.17468c-0.88333,-0.33148 -1.5787,-0.55396 -2.56866,-0.90451c-0.78229,-0.27701 -1.85593,-0.78421 -2.22784,-1.00632c-0.87424,-0.52206 -1.34985,-0.82922 -1.85532,-1.13535c-1.04233,-0.63126 -1.55035,-0.97501 -3.09399,-1.71448c-0.46234,-0.22147 -1.33319,-0.5665 -2.11417,-0.79669c-0.66574,-0.19623 -1.86328,-0.35074 -2.82935,-0.46814c-0.90857,-0.11041 -1.49548,-0.70218 -2.38535,-0.91452c-0.89752,-0.21417 -1.93259,0.05435 -2.64267,-0.12134c-0.89169,-0.22061 -1.53616,-0.8425 -2.39282,-0.94315l-0.71249,-0.0195l-1.09467,-0.00134l-0.9675,-0.00449" id="svg_19" stroke-width="2" stroke="#000" fill="none"/>
  <path t="64851,65035,65052,65060,65078,65078,65094,65113,65113,65127,65127,65127,65145,65145,65145,65161,65161,65177,65177,65195,65207,65207,65207,65227,65227,65244,65244,65244,65260,65260,65260,65278,65278,65278,65278,65294,65294,65294,65294,65310,65311,65327,65328,65345,65345,65362,65362,65390,65413,65426,65445,65445,65465,65554,65697,65746,65772,65772,65782,65782,65795,65813,65829,65846,65865,65865,65971,65972,66123,66123,66145,66193,66217,66217,66233,66245,66262,66281,66281,66281,66295,66313,66330,66331,66347,66347,66347,66347,66361,66361,66361,66379,66379,66380,66396,66396,66397,66413,66413,66413,66430,66430,66430,66461,66479,66480,66496,66497,66513,66528,66528,66546,66546,66563,66563,66580,66580,66595,66610,66611,66627,66628,66645,66646,66825,66826,66881,66895,66912,66928,66945,66963,66978,66997,67013,67013,67033,67425,67471,67482,67497,67497,67537,67537,67547,67705,67721,67721,67733,67746,67747,67747" d="m287.82986,372.88889c-1.70001,0 -2.58295,0.10492 -3.10983,0.7045c-0.67075,0.76331 -1.37753,1.05798 -1.90485,1.89551c-0.4971,0.78955 -0.957,1.371 -1.52798,1.94266c-0.70758,0.70844 -1.20471,1.20862 -2.12402,2.12399c-0.5224,0.52014 -1.06046,1.05679 -1.98599,1.63333c-0.51105,0.31833 -1.47827,0.88171 -2.04282,1.40002c-0.73718,0.67679 -1.46005,1.31924 -2.1405,1.69998c-0.75363,0.42166 -1.564,0.80002 -2.36401,1.20001c-0.79999,0.39999 -1.64755,0.75009 -2.14282,1.21432c-0.89636,0.84018 -0.97522,1.479 -1.46701,2.18033c-0.65002,0.92694 -1.46664,1.35727 -2.04749,1.62c-0.62436,0.28241 -1.6684,0.69656 -2.38635,1.03802c-1.06619,0.50708 -1.71704,0.83826 -2.70166,1.46066c-0.66956,0.42325 -1.54272,0.78598 -2.26532,0.91199c-0.99341,0.17322 -1.74123,0.55551 -2.62268,0.80801c-0.84337,0.24161 -1.57158,0.36148 -2.25067,0.88266c-0.58153,0.44629 -1.76015,0.19269 -2.43199,0.36932c-1.01418,0.26666 -1.70103,0.72073 -2.58383,0.91483c-0.84358,0.18546 -0.90018,1.1665 -0.90018,1.99985c0,0.97849 0,1.79868 0,2.70001c0,0.89999 -0.00009,1.79999 0,2.71066c0.00009,0.91064 -0.12366,1.63046 0.22134,2.56799c0.3051,0.82913 0.47862,1.75665 0.86266,2.452c0.40421,0.73187 1.552,0.56934 2.40001,0.56934c0.86333,0 1.75883,0.00018 2.716,0c0.89999,-0.00018 1.8271,-0.31387 2.2,-0.86133c0.43254,-0.63501 0.92798,-1.61172 1.79999,-2.05469c0.84781,-0.43066 1.48572,-0.74371 2.30002,-1.08398c0.84256,-0.35208 1.52295,-0.49286 2.19916,-0.70001c1.26215,-0.38669 2.03799,-0.70355 2.74899,-1c0.97116,-0.40491 1.77939,-0.69397 2.59918,-1c0.78815,-0.29422 1.72363,-0.70847 2.40533,-1c0.96359,-0.41208 1.77386,-0.69666 2.32199,-0.89999c1.06107,-0.39359 1.96823,-0.81491 2.56366,-1.04282c1.00989,-0.38657 1.77292,-0.79257 2.26169,-1.54251c0.51187,-0.7854 0.98172,-1.40469 1.79999,-1.78934c0.89093,-0.41879 1.55927,-0.79395 2.36667,-0.94135c0.93744,-0.17114 1.83585,-0.33786 2.39999,-0.88531c0.65811,-0.63864 1.39594,-0.93942 2.19733,-1.59866c0.78452,-0.64536 1.24564,-1.23914 2.12,-1.80002c0.67181,-0.43094 1.44476,-0.97876 2.14136,-1.36398c0.81165,-0.44885 1.72198,-0.43439 2.61749,-0.436c0.95584,-0.00171 1.50815,0.44724 2.19318,0.97467c0.65253,0.50238 1.14923,1.1749 1.73065,1.85867c0.56763,0.66754 1.17334,1.15787 1.83334,1.66666c0.76505,0.58975 1.48318,1.10715 1.91467,1.78534c0.4938,0.77618 0.08533,1.88132 0.08533,2.53998c0,1.00803 -0.41449,2.01563 0.07199,2.73868c0.49396,0.73419 1.76132,0.436 2.51733,0.436c0.95233,0 1.74399,0 2.672,0l0.7905,0" id="svg_20" stroke-width="2" stroke="#000" fill="none"/>
  <path t="68100,68131,68149,68149,68165,68165,68348,68365,68375,68375,68401,68417,68418,68434,68434,68450,68450,68475,68494,68494,68511,68511,68511,68524,68524,68524,68553,68554,68689,68705,68721,68743,68743,68762,68762,68777,68778,68793,68793,68793,68810,68811,68811,68826,68826,68826,68842,68843,68856,68856,68857,68876,68876,68877,68893,68894,69001,69018,69028,69028" d="m342.82986,390.88889c-1.82535,0 -2.83334,0 -3.62534,0c-1.02734,0 -1.73547,-0.15454 -2.73868,0.01068c-0.86786,0.14294 -1.75708,0.60294 -2.35065,1.0733c-0.73862,0.58533 -1.38553,0.91602 -2.17068,0.91602c-0.95065,0 -1.716,0 -2.71017,0c-0.74731,0 -1.8027,-0.07605 -2.72598,0.2215c-0.72403,0.23334 -1.66882,0.79916 -2.28302,1.07401c-0.84039,0.37604 -1.81424,0.6095 -2.61014,0.66849c-0.77402,0.05737 -1.85822,-0.14709 -2.58267,0.12134c-0.87149,0.32291 -1.18466,1.31412 -1.20267,2.21918c-0.0202,1.01678 0,1.71634 0,2.6955c0,0.78934 0.0676,1.83905 -0.03601,2.66135c-0.11261,0.89371 -0.4101,1.59445 -0.61133,2.39047c-0.25797,1.02045 -0.34116,1.94797 -0.35135,2.63217c-0.01489,0.99988 -0.00131,1.81601 -0.00131,2.63202c0,1 0,1.90933 0,2.85065c0,0.78601 0.00607,1.60803 0,2.66669c-0.00534,0.93073 -0.0379,1.77863 -0.284,2.56531c-0.24445,0.78134 -0.66336,1.83969 -1.07767,2.54419l-0.80502,0.05716l-0.83331,-0.02084" id="svg_21" stroke-width="2" stroke="#000" fill="none"/>
  <path t="69355,69594,69604,69629,69645,69646,69646,69663,69663,69663,69678,69678,69697,69697,69697,69697,69713,69713,69713,69713,69713,69729,69730,69730,69746,69746,69763,69994,69994,70018,70058,70082,70092" d="m293.82986,396.88889c1.79999,0 2.69806,-0.11539 3.39999,0.44666c0.73163,0.58578 0.98346,1.41748 1.41434,1.95786c0.67236,0.84317 1.43372,1.38834 1.935,1.75949c0.91263,0.67575 1.60181,1.19781 2.41733,2.00266c0.50281,0.49622 1.09485,1.1402 1.51999,1.69067c0.76172,0.98627 1.00421,1.38943 1.52802,2.21866c0.53238,0.84277 0.78531,1.26031 1.452,2.42401c0.52682,0.91959 0.74332,1.44702 1.33334,2.33334c0.52267,0.78513 0.85138,1.76263 1.56934,2.08133c0.71902,0.31915 1.79465,0.08533 2.72617,0.08084l0.67917,-0.42084l0.52533,-0.57468" id="svg_22" stroke-width="2" stroke="#000" fill="none"/>
  <path t="72131,72299,72299,72317,72349,72366,72366,72382,72397,72397,72430,72449,72449,72470,72471,72515,72538,72570,72570,72602,72640,72641,72641,72670,72670,72670,72670,72670,72703,72703,72749,72770,72803,72803,72875,72894,72920,72920" d="m284.82986,339.88889c-1.16669,1 -1.68576,1.43887 -2.47919,2c-0.61353,0.43387 -1.14938,1.12183 -1.81549,1.70001c-0.71832,0.6235 -0.96878,1.51953 -1.50665,2.09998c-0.67224,0.72543 -1.42599,1.21298 -1.84152,1.95718c-0.46112,0.82587 -0.37073,1.79071 -0.7825,2.60684c-0.38934,0.77167 -0.59113,1.63617 -0.57465,2.43597c0.01801,0.87256 0.22055,1.74362 0.436,2.49335c0.26733,0.93033 0.56958,2.0387 0.76266,2.87201c0.09973,0.43033 0.28934,1.29129 0.44415,2.11499c0.25015,1.33087 0.16806,2.37094 0.87799,2.69882c0.80804,0.37323 1.80051,0.02084 2.65384,0.02084c0.94,0 1.92535,0 2.82535,0l0.79999,0" id="svg_23" stroke-width="2" stroke="#000" fill="none"/>
  <path t="73699,73811,73828,73847,73864,73864,73881,73894,73922,73962,73975,73991,74015,74015,74030,74031,74031,74044,74044,74044,74066,74066,74066,74082,74082,74082,74082,74098,74099,74116,74116,74127,74156,74156,74175,74197,74242,74260,74260,74274,74292,74314,74339,74340,74362,74363,74500" d="m315.82986,334.88889c1.79999,0 2.69998,0 3.52081,0c0.96317,0 1.65384,0 2.72202,0c0.95715,0 1.86157,-0.08868 2.75717,0c0.84567,0.08374 0.72446,1.1076 1.16666,1.83334c0.42258,0.69351 1.05042,1.29965 1.22266,1.88931c0.28412,0.9726 0.45557,1.94247 0.55801,2.76752c0.11874,0.95642 0.27338,1.93164 0.478,2.7565c0.14886,0.60013 0.42416,1.91833 0.48935,2.63467c0.06564,0.72134 0.07999,1.4213 0.08533,2.61865c0.00357,0.80267 0,1.82132 0,2.67465c0,0.94 0,1.82535 0,2.62534c0,0.90002 0,1.80002 0,2.72086c0,0.96317 0.00012,1.65381 0,2.72198c-0.00009,0.85699 -0.35632,1.5271 -1.10001,1.97885c-0.68988,0.41907 -1.09866,1.26233 -1.46399,1.95297l-0.35202,0.93869" id="svg_24" stroke-width="2" stroke="#000" fill="none"/>
  <path t="75282,75394,75410,75410,75433,75450,75450,75450,75450,75469,75469,75469,75478,75480,75492,75493,75493,75493,75508,75508,75508,75526,75526,75544,75650,75680,75706,75722,75750,75765,75766,75766,75783,75783,75783,75794,75819,75836,75859,75875,75914,75914,75932,75932,75962,75976,75994,76016,76034,76034,76034,76050,76064,76082" d="m278.82986,270.88889c0,1.75717 0,2.65268 0,3.51599c0,0.88 -0.00491,1.98404 0.00131,2.53735c0.01089,0.96762 -0.02484,1.659 0.22,2.90366c0.15393,0.78253 0.47189,1.42282 0.69601,2.44434c0.18152,0.8273 0.39261,1.77689 0.79251,2.55582c0.29404,0.57269 0.83963,1.42841 1.26849,2.3425c0.40591,0.86517 0.65533,1.40823 0.90015,2.55734c0.17548,0.8237 0.06335,1.91168 0.82602,2.13852c0.85837,0.25531 1.86517,0.05606 2.32083,-0.60617c0.51242,-0.74472 0.84213,-1.71805 0.91748,-2.39917c0.08542,-0.77219 0.05719,-1.82352 0.05719,-2.7435c0,-0.76001 0,-1.836 0,-2.74667c0,-0.89999 0.19553,-1.95361 -0.35718,-2.44733c-0.67667,-0.60446 -1.41101,-0.92612 -1.61749,-1.87802c-0.14822,-0.68335 -0.55869,-1.61371 -1.32083,-2.12198c-0.69095,-0.46078 -1.29837,-0.98883 -2.02567,-1.49551c-0.71863,-0.50064 -1.1095,-1.07449 -1.65802,-2.03632l-0.37799,-0.81635l-0.74268,-0.58316" id="svg_25" stroke-width="2" stroke="#000" fill="none"/>
  <path t="76946,77058,77072,77100,77115,77115,77115,77135,77135,77135,77135,77142,77143,77157,77158,77189,77189,77226,77298,77298,77354,77366,77384,77401,77402,77419,77428,77428,77442,77442,77467,77467,77467,77467,77484,77484,77484,77499,77499,77506,77524,77610,77651,77738,77778,77778,77810" d="m302.82986,273.88889c0,1.79999 -0.00006,2.70001 0,3.54166c0.00009,1.00134 -0.01727,1.73236 0.05716,2.56735c0.07968,0.89413 0.27866,1.79303 0.5535,2.655c0.17703,0.55521 0.70428,1.7662 0.95334,2.38931c0.38074,0.95255 0.41479,1.81631 0.44049,2.8475c0.01776,0.71298 0.21786,1.63364 0.99551,2.16583c0.70074,0.47958 1.5545,1.12939 2.38931,0.82266c0.75958,-0.27911 0.8515,-1.30283 1.18533,-2.164c0.3613,-0.93201 0.42535,-1.82532 0.42535,-2.58249c0,-0.909 0,-1.76166 0,-2.88565c0,-0.66702 0,-1.37802 0,-2.10901c0,-1.42633 0,-2.082 0,-2.96552c0,-0.94931 0,-1.86133 0,-2.78265c0,-0.89999 0.18213,-1.95953 -0.436,-2.47467c-0.63321,-0.52768 -1.564,-0.85867 -2.36401,-1.02399l-0.89999,-0.00134" id="svg_26" stroke-width="2" stroke="#000" fill="none"/>
  <path t="79307,79362,79382,79402,79403,79403,79425,79425,79425,79448,79449,79449,79461,79461,79461,79500,79500,79500,79500,79515,79516,79516,79516,79530,79530,79553,79553,79569,79586,79618,79618,79636,79636,79653,79666,79678,79678,79696,79696,79726,79726,79726,79743,79743,79743,79750,79750,79764,79794,79794" d="m258.82986,114.88889c0.05716,-1.7 0.51837,-2.5315 1.32132,-3.10033c0.66058,-0.46799 1.27383,-0.81672 1.79333,-1.669c0.43472,-0.71319 0.64108,-1.56648 1.08801,-2.54533c0.30981,-0.67858 0.72409,-1.33038 1.56799,-2.08533c0.478,-0.42763 1.33569,-1.0039 2.22934,-1.6c0.59958,-0.39996 1.17953,-0.84164 2.15717,-1.28567c0.98242,-0.4462 1.72098,-0.57066 2.44684,-0.64233c1.02594,-0.1013 2.13165,-0.072 2.85431,-0.072c1.02567,0 1.71634,0 2.78452,0c0.85718,0 1.76971,-0.09149 2.51434,0.05717c0.92471,0.18462 1.66089,0.42307 2.59616,0.9175c0.68234,0.36071 0.55478,1.35555 0.68265,2.2c0.146,0.9641 0.70538,1.61644 1.06403,2.36816c0.33527,0.70273 0.58603,1.51454 0.99982,2.53567c0.36703,0.90575 0.64905,1.51276 0.8475,2.5125c0.16537,0.83315 0.76868,1.49167 1.05267,2.409l0,0.8" id="svg_27" stroke-width="2" stroke="#000" fill="none"/>
 </g>
 <g display="none">
  <title>muse_image</title>
  <image xlink:href="http://farm1.static.flickr.com/149/356218681_4174483173.jpg" id="muse" height="480" width="480" y="0" x="80"/>
 </g>
 <g display="none">
  <title>bbox</title>
  <rect stroke="#f00" fill="none" stroke-width="3" height="471.36" width="387.84" y="7.68" x="116.48" id="bbox"/>
 </g>
</svg>
