<svg width="640" height="480" xmlns="http://www.w3.org/2000/svg" xmlns:svg="http://www.w3.org/2000/svg" xmlns:xlink="http://www.w3.org/1999/xlink">
 <!-- Sketchy ANNOTATION
  ImageNet ID: n02691156_7472
  URL: http://farm1.static.flickr.com/126/321905068_1e40f372e0.jpg
  Image Width: 500
  Image Height: 309
  BBox X: 98
  BBox Y: 44
  BBox Width: 305
  BBox Height: 216
  Exposure: 2000ms
  Synset Label: airplane
  Synset ID: n02691156
  Worker Tag: Airplane
  Sanity Check: 
   Context
   Saved
   Shading
  Comment: 
   {}
  Worker ID: AIH9VLD92GHFH
  Assignment ID: 3Z9WI9EOZZOI0B7OUXK2EAQC3PLKHQ
  HIT ID: 3P4ZBJFX2V3NUVC5YJA3AGD9AHBFW3
  Work Time: 174s
  Worker Score: 0.9286
 END ANNOTATION -->
 <g display="inline">
  <title>Layer 1</title>
  <path t="0,266,266,278,279,279,295,295,312,319,320,320,320,327,327,327,346,346,347,347,361,363,363,363,377,378,378,378,394,394,394,394,394,411,411,412,427,428,428,428,444,444,448,448,461,461,461,461,477,478,478,478,494,494,494,494,495,511,511,512,512,527,528,528,544,544,545,545,545,561,561,562,562,577,578,578,578,578,595,595,595,596,611,611,612,612,628,628,628,628,629,644,644,644,645,661,661,661,662,677,677,678,694,694,694,695,711,711,712,712,712,727,728,728,728,728,744,744,745,745,745,761,762,762,763,777,777,778,778,778,794,794,794,795,813,813,813,814,814,827,828,828,828,844,845,845,845,846,862,862,863,863,863,878,878,878,879,894,894,894,895,895,911,911,912,912,927,927,928,928,928,944,944,945,945,945,961,961,962,962,963,977,978,978,979,994,994,995,995,995,996,1011,1011,1012,1012,1013,1027,1028,1028,1028,1044,1044,1045,1045,1046,1061,1061,1062,1062,1063,1077,1078,1079,1079,1079,1094,1095,1096,1096,1096,1111,1111,1112,1112,1112,1127,1128,1128,1129,1129,1146,1146,1146,1146,1147,1147,1162,1162,1163,1163,1163,1163,1183,1183,1184,1184,1210,1211,1211,1211,1212,1212,1222,1222,1223,1223,1223,1234,1234,1234,1234,1243,1244,1244,1244,1244,1261,1262,1262,1263,1263,1277,1278,1278,1279,1294,1295,1295,1296,1296,1311,1312,1313,1327,1328,1328,1329,1344,1344,1345,1345,1346,1361,1362,1362,1377,1379,1379,1379,1394,1394,1395,1411,1411,1412,1427,1428,1429,1429,1445,1445,1446,1446,1461,1461,1462,1477,1478,1478,1479,1493,1494,1495,1495,1511,1511,1527,1528,1528,1544,1544,1545,1546,1561,1561,1577,1578,1578,1594,1594,1611,1611,1612,1627,1628,1644,1644,1645,1661,1663,1663,1677,1678,1678,1693,1694,1695,1711,1712,1712,1727,1728,1744,1745,1761,1762,1762,1777,1778,1793,1794,1811,1812,1827,1828,1829,1843,1845,1845,1861,1861,1877,1878,1894,1895,1896,1896,1911,1911,1912,1927,1928,1929,1944,1945,1945,1961,1961,1962,1977,1978,1979,1994,1995,1996,2027,2028,2029,2044,2046,2046,2046,2061,2062,2062,2077,2078,2104,2105,2105,2117,2117,2132,2132,2143,2143,2144,2161,2161,2179,2194,2195,2195,2210,2210,2226,2226,2226,2248,2249,2249,2260,2263,2276,2293,2294,2295,2310,2311,2327,2329,2343,2344,2377,2393,2394,2395,2410,2411,2427,2428,2443,2444,2461,2462,2462,2477,2478,2493,2495,2495,2510,2529,2529,2543,2544,2545,2562,2577,2579,2579,2593,2610,2627,2727,2777,2793,2794,2811,2812,2827,2828,2843,2871,2883,2884,2896,2896,2911,2927,2943,2944,2960,2977,2978,2979,2979,2993,2994,2996,2996,3010,3011,3013,3013,3026,3028,3028,3029,3043,3044,3045,3045,3060,3061,3076,3077,3094,3095,3096,3110,3111,3128,3128,3129,3144,3144,3160,3161,3162,3175,3176,3193,3194,3195,3196,3210,3212,3212,3213,3226,3228,3228,3229,3243,3244,3245,3246,3246,3261,3262,3263,3263,3276,3278,3279,3293,3294,3295,3296,3310,3312,3312,3327,3328,3329,3343,3345,3346,3360,3361,3362,3376,3377,3378,3379,3393,3394,3395,3395,3410,3411,3426,3428,3428,3443,3444,3445,3446,3460,3461,3490,3490,3491,3491,3505,3518,3519,3519,3520,3533,3533,3534,3547,3560,3561,3561,3576,3578,3578,3593,3595,3595,3610,3612,3626,3628,3629,3643,3644,3660,3661,3662,3676,3678,3678,3693,3694,3695,3695,3712,3713,3713,3714,3726,3728,3728,3743,3745,3745,3760,3762,3762,3776,3778,3793,3795,3795,3810,3812,3827,3828,3843,3860,3862,3862,3877,3878,3893,3894,3895,3896,3910,3911,3912,3913,3925,3926,3927,3944,3945,3945,3960,3961,3962,3976,3978,3979,3992,3993,3993,3994,4010,4012,4026,4028,4043,4044,4045,4060,4062,4076,4078,4078,4093,4094,4095,4110,4111,4141,4142,4147,4147,4163,4164,4164,4180,4181,4182,4196,4196,4214,4215,4230,4231,4231,4232,4247,4248,4261,4262,4276,4278,4293,4310,4312,4312,4326,4326,4343,4345,4361,4362,4376,4393,4394,4410,4411,4412,4428,4428,4443,4459,4460,4475,4476,4492,4493,4510,4512,4526,4526,4543,4544,4545,4559,4560,4575,4576,4577,4593,4594,4594,4595,4610,4611,4611,4628,4628,4629,4645,4646,4660,4661,4676,4678,4693,4695,4696,4710,4725,4743,4745,4745,4759,4760,4775,4776,4808,4810,4824,4825,4825,4843,4844,4876,4878,4893,4894,4909,4910,4960,4961,5011,5093,5094,5160,5176,5177,5195,5196,5226,5228,5229,5243,5293,5294,5309,5310,5325,5326,5343,5345,5359,5360,5375,5376,5376,5377,5393,5393,5394,5394,5410,5411,5411,5412,5428,5428,5429,5430,5431,5446,5446,5447,5448,5464,5465,5466,5480,5480,5481,5481,5495,5496,5496,5510,5511,5511,5512,5527,5528,5529,5529,5543,5543,5544,5559,5560,5561,5561,5575,5576,5577,5577,5578,5592,5592,5593,5594,5610,5612,5613,5613,5614,5644,5646,5646,5647,5663,5663,5664,5665,5665,5683,5684,5685,5700,5700,5701,5717,5718,5719,5738,5739,5740,5755,5756,5756,5773,5774,5774,5775,5791,5791,5792,5793,5797,5797,5798,5799,5800,5803,5804,5804,5805,5821,5821,5822,5823,5838,5839,5839,5840,5855,5855,5870,5870,5871,5885,5886,5886,5887,5901,5901,5902,5903,5917,5918,5918,5919,5933,5934,5934,5935,5949,5949,5950,5964,5965,5966,5967,5967,5981,5982,5983,5997,5997,5998,6013,6013,6014,6029,6029,6043,6044,6045,6073,6074,6074,6089,6090,6104,6104,6105,6119,6120,6121,6135,6136,6137,6151,6151,6152,6153,6167,6168,6168,6169,6187,6188,6211,6212,6213,6229,6230,6231,6232,6248,6250,6267,6310,6311,6360,6361,6443,6444,6459,6460,6476,6477,6478,6479,6496,6497,6497,6498,6515,6515,6516,6517,6517,6533,6534,6535,6536,6537,6537,6567,6568,6568,6569,6570,6573,6574,6575,6575,6576,6592,6592,6593,6594,6594,6595,6609,6610,6611,6626,6626,6627,6642,6643,6643,6644,6658,6659,6675,6676,6676,6677,6692,6693,6693,6694,6709,6710,6711,6726,6726,6727" d="m110,213c2.00983,-0.0045 2.79626,0.033 3.83334,-0.16667c0.72024,-0.13867 1.54978,-0.53203 2.56933,-0.75066c0.63293,-0.13573 1.93654,-0.40079 2.56534,-0.65201c0.6895,-0.27547 1.38272,-0.61316 2.064,-0.948c1.20248,-0.591 1.95267,-0.9929 2.736,-1.196c0.86182,-0.22345 1.54214,-0.22992 2.61733,-0.312c0.73222,-0.05589 1.79924,-0.17064 2.46201,-0.33633c0.98827,-0.24707 1.64249,-0.51134 2.67416,-0.95967c0.73999,-0.32158 1.49402,-0.69089 2.283,-1.026c1.18781,-0.50452 1.99077,-0.7739 2.77417,-1.01666c0.74741,-0.23161 1.46002,-0.4072 2.37866,-0.73618c0.80087,-0.2868 1.54674,-0.65955 2.6855,-1.22099c0.66626,-0.32849 1.36795,-0.68274 2.10899,-0.96899c1.06824,-0.41264 1.75998,-0.56044 2.72734,-0.68901c0.61478,-0.08171 1.82419,-0.22879 2.42532,-0.37799c0.93695,-0.23254 1.577,-0.45786 2.617,-0.74268c1.1106,-0.30415 1.88625,-0.48032 2.67984,-0.61482c0.79608,-0.13493 1.59901,-0.1987 2.39867,-0.27068c0.80035,-0.07204 1.61537,-0.12363 2.79967,-0.4575c0.80382,-0.22661 1.56383,-0.56683 2.286,-0.909c1.28116,-0.60703 1.79778,-0.9166 2.565,-1.2375c1.06824,-0.44681 1.71664,-0.62213 2.42133,-0.79999c0.74603,-0.18829 1.52727,-0.35248 2.728,-0.4895c0.79814,-0.09108 1.60381,-0.11273 2.40001,-0.231c1.20738,-0.17935 2.00502,-0.44281 2.78934,-0.7515c0.78136,-0.30751 1.51797,-0.67337 2.58932,-1.11717c0.66428,-0.27518 1.64412,-0.61905 2.30533,-0.82016c1.03368,-0.31439 1.77502,-0.4994 2.53683,-0.72217c0.78564,-0.22972 1.98392,-0.63416 2.77783,-0.96317c0.79561,-0.3297 1.56248,-0.69702 2.31601,-1.03201c1.06006,-0.47128 1.72522,-0.7458 2.38533,-0.94232c0.97424,-0.29004 2.02045,-0.42842 2.74817,-0.489c0.73038,-0.06079 1.79333,-0.07709 2.70917,-0.27434c0.80487,-0.17336 1.54695,-0.54216 2.68567,-1.0995c0.6707,-0.32826 1.38701,-0.68849 2.166,-0.96899c1.17523,-0.42317 1.99127,-0.54816 2.39549,-0.60001c0.8145,-0.10446 1.65518,-0.13289 2.96217,-0.2765c0.91943,-0.10103 1.8593,-0.26585 2.33333,-0.35416c0.94865,-0.17671 2.33392,-0.47653 2.77834,-0.57935c0.86119,-0.19923 1.68791,-0.39595 2.45999,-0.657c1.10748,-0.37445 1.77531,-0.73022 2.43634,-1.0575c0.97456,-0.4825 1.98592,-0.88141 2.71066,-1.01601c0.74565,-0.13847 1.52641,-0.17239 2.31601,-0.252c1.20056,-0.12105 1.99866,-0.26999 2.79866,-0.41733c0.8,-0.14734 1.99886,-0.34525 2.8,-0.416c0.79904,-0.07057 1.60135,-0.09305 2.39999,-0.168c1.20255,-0.11285 2,-0.26866 2.8,-0.416c0.8,-0.14734 1.99921,-0.34126 2.8,-0.41733c0.79929,-0.07593 1.60565,-0.10817 2.39999,-0.252c1.21107,-0.2193 2.00175,-0.53596 2.40001,-0.692c0.80363,-0.31487 1.58829,-0.6877 2.79999,-1.117c0.79289,-0.28093 1.59496,-0.50417 2.40001,-0.66c1.19359,-0.23103 1.99971,-0.28165 2.8,-0.33633c0.79973,-0.05464 1.60466,-0.07344 2.79982,-0.24699c0.7995,-0.1161 1.58815,-0.29149 2.343,-0.54001c1.10493,-0.36377 1.77528,-0.72079 2.4425,-1.06366c0.67679,-0.34779 1.36563,-0.74033 2.5575,-1.153c0.85532,-0.29616 1.31442,-0.39497 2.24249,-0.575c0.92834,-0.18007 2.29288,-0.32892 2.72934,-0.36267c0.84882,-0.06564 1.67609,-0.09247 2.48401,-0.168c1.20413,-0.11258 2.00961,-0.26129 2.82217,-0.45767c0.84058,-0.20316 2.14661,-0.62271 2.60049,-0.7795c0.93298,-0.32228 1.87683,-0.66356 2.35333,-0.8175c0.93784,-0.30298 2.30243,-0.62735 2.73999,-0.692c0.84698,-0.12515 1.67584,-0.17137 2.48401,-0.252c1.20334,-0.12006 2.00336,-0.26495 2.80133,-0.43816c0.80212,-0.1741 2.00095,-0.47543 2.79999,-0.68051c0.80099,-0.20558 1.60602,-0.41617 2.40002,-0.68399c1.20978,-0.40805 1.60141,-0.59529 2.39999,-0.94c0.80145,-0.34596 1.58875,-0.72101 2.80017,-1.15317c0.79742,-0.28447 1.61969,-0.50436 2.03583,-0.61084c0.84744,-0.21684 2.18585,-0.50853 3.11667,-0.71516c0.47293,-0.10498 1.427,-0.31335 2.36331,-0.58083c0.92264,-0.26357 1.80145,-0.59183 2.64801,-0.94c0.41656,-0.17133 1.22055,-0.55006 2.436,-1.008c0.79593,-0.29988 1.61874,-0.54065 2.47198,-0.75601c0.44107,-0.11133 1.86111,-0.41196 2.89603,-0.612c0.5372,-0.10384 1.08453,-0.20035 2.18134,-0.43466c0.5463,-0.11671 2.12027,-0.52158 2.60767,-0.68533c0.93466,-0.31401 1.80103,-0.6794 2.63397,-1.026c0.40619,-0.16902 1.60461,-0.64557 2.41351,-0.89549c0.81198,-0.25089 1.65094,-0.46028 2.96216,-0.75717c0.4541,-0.10281 1.38751,-0.2981 2.33334,-0.52083c0.47543,-0.11195 1.42633,-0.33339 2.77832,-0.80034c0.43863,-0.15149 1.27213,-0.50072 2.07501,-0.8175c0.75735,-0.29883 1.82004,-0.65202 2.832,-0.79999c0.6731,-0.09842 1.38681,-0.12206 2.5575,-0.28284c0.86938,-0.1194 1.7785,-0.29684 2.24249,-0.38918c0.93301,-0.18567 2.29376,-0.48686 3.1575,-0.68933c0.42145,-0.09879 1.2468,-0.29895 2.05585,-0.5c1.20172,-0.29861 2.00391,-0.49525 2.80133,-0.72083c0.80267,-0.22707 2.00537,-0.63269 2.79733,-0.96317c0.7869,-0.32835 1.53226,-0.68744 2.23199,-1.03201c0.93015,-0.45804 1.70319,-0.88673 2.47601,-1.12233c0.81369,-0.24805 1.8089,-0.31036 2.53632,-0.36166c0.76724,-0.05411 1.96176,-0.14574 2.75568,-0.28667c0.78528,-0.13939 1.54791,-0.31453 2.23199,-0.60001c1.23926,-0.51717 1.70132,-0.9668 2.47601,-1.46066c0.80957,-0.5161 1.79437,-0.90953 2.49466,-1.11099c0.68964,-0.19841 1.9548,-0.44547 2.73868,-0.50568c0.70813,-0.0544 1.6832,-0.01964 2.49731,-0.04666c0.86926,-0.02885 2.0694,-0.19016 2.66852,-0.351c0.9408,-0.25258 1.58643,-0.51183 2.61667,-0.9595c0.73111,-0.31769 1.44907,-0.6792 2.16898,-0.96899c1.25281,-0.50433 1.8035,-0.60654 2.81519,-0.75801c0.82721,-0.12386 1.80618,-0.30193 2.5155,-0.47266c0.73279,-0.17638 1.82019,-0.45493 2.81299,-0.78368c0.60876,-0.20158 1.44968,-0.51257 2.19818,-1.17816c0.67383,-0.59918 1.28415,-1.2525 2.23999,-1.45599c0.54239,-0.11548 1.73453,-0.19954 2.6235,-0.4185c0.58856,-0.14497 1.42267,-0.43547 2.41916,-0.84151c0.87781,-0.35768 1.68839,-0.61937 2.48532,-0.78667c0.80341,-0.16864 1.78632,-0.73912 2.40002,-1.164c0.78329,-0.54228 1.60678,-0.75568 2.39999,-0.93333c1.01498,-0.22734 1.6185,-0.57095 2.82132,-0.79599c0.79593,-0.14891 1.36533,-0.07535 2.41202,-0.28801c0.95667,-0.19437 1.60638,-0.5439 2.58817,-0.71182c0.80725,-0.13808 1.68301,-0.11073 2.87833,-0.12184c0.5957,-0.00554 1.50378,0.05614 2.53351,-0.33299c0.74939,-0.28319 1.29816,-0.92038 2.16666,-1.33334c0.75092,-0.35706 1.83334,-0.33333 2.66135,-0.33333c0.88132,0 1.58932,0.00229 2.57065,0c0.96268,-0.00226 1.74121,-0.0658 2.77335,-0.35266c0.74805,-0.20792 1.65259,-0.54483 2.49466,-0.62651c1.03818,-0.1007 1.76462,0.00787 2.55182,-0.078c1.03357,-0.11275 1.91617,-0.47807 2.54684,-0.65884c0.98697,-0.28288 1.80231,-0.2416 2.80267,-0.28667c0.83667,-0.03769 1.77328,-0.31421 2.55582,-0.70266c0.56973,-0.28281 1.42145,-0.7982 2.34268,-1.05167c0.87332,-0.2403 1.74298,-0.23849 2.77884,-0.243c0.69598,-0.00302 1.60532,0 2.60666,0c0.83551,0 1.716,0 2.6145,0c0.8895,0 1.74301,0 2.77884,0c0.69598,0 1.60532,0 2.60666,0c0.83551,0 1.716,0 2.61484,0c0.91049,0 1.53583,0 2.86649,0c0.716,0 1.448,0 2.172,0c1.328,0 2.147,0 2.84003,0c1.02133,0 1.82132,0 2.82132,0c0.79999,0 1.60001,0 2.60001,0c0.79999,0 1.80133,0 2.63599,0c1.18518,0 1.97867,0 2.75418,0c1.03915,0 1.80716,0 2.68182,0c0.87067,0 1.828,-0.00343 2.56,0c0.96271,0.0045 1.75018,0.1433 2.53867,0.56934c0.78607,0.42472 1.31711,0.82463 2.52899,1.409c0.58185,0.28057 1.41623,0.62045 2.55734,0.90034c0.71524,0.17542 1.51926,0.66792 2.47635,0.95466c0.65222,0.1954 1.41595,0.16133 2.52383,0.16667c0.89099,0.00429 1.83432,-0.13771 2.49014,0.11433c1.00153,0.3849 1.21573,1.37164 2.07401,1.82433c0.83151,0.43857 1.58157,0.42232 2.328,0.636c1.1044,0.31618 1.99954,0.39337 2.90784,0.42984c0.7486,0.03006 1.7728,0.22186 2.54285,0.64217c0.83752,0.45712 1.3804,1.01953 1.96399,1.492c0.79507,0.64369 1.65454,0.87679 2.604,1.14667c0.73965,0.21025 1.49139,0.46635 2.41766,1.01016c0.84155,0.49409 1.48627,0.69916 2.58234,0.7045c0.73199,0.00356 1.48364,-0.18752 2.57068,0.02133c0.86896,0.16695 1.52063,0.80034 1.95148,1.33051c0.67511,0.8307 1.13916,1.61855 1.70984,2.14816c0.65192,0.60497 0.93585,1.36278 1,2.33333c0.05011,0.75778 0.78833,1.3799 1.29468,1.92384c0.73102,0.78535 0.70081,1.59013 0.70532,2.60683c0.00415,0.94049 0,1.80267 0,2.636c0,0.9785 0,1.79866 0,2.7c0,0.82083 0.00653,1.78403 0,2.64734c-0.00677,0.89557 -0.48688,1.67886 -1.07599,1.95717c-0.77631,0.36676 -1.41901,0.56761 -2.44537,1.01683c-0.73553,0.32191 -1.4762,0.68402 -2.22595,1.026c-1.08252,0.49374 -2.09686,0.90445 -2.75269,1.13184c-0.6496,0.22523 -1.6687,0.51367 -2.74817,0.82533c-0.73242,0.21147 -1.47266,0.38609 -2.41849,0.86217c-0.85065,0.42818 -1.27774,0.8511 -1.93066,1.34933c-0.98242,0.74965 -1.57941,1.12033 -2.60269,1.36266c-0.78735,0.18646 -1.80475,0.27374 -2.59998,0.54668c-0.80508,0.27631 -1.61688,0.41818 -2.40002,0.636c-1.03116,0.2868 -1.5918,0.81015 -2.19998,1.2905c-0.98703,0.77956 -1.59421,1.13864 -2.60001,1.64816c-0.59665,0.30225 -1.39063,0.67946 -2.40134,0.91867c-0.61462,0.14546 -1.77609,0.56595 -2.284,0.93333c-0.56311,0.40732 -1.37506,1.16797 -2.31467,1.64799c-0.57834,0.29546 -1.52069,0.45947 -2.15717,0.54367c-1.36401,0.18045 -2.10397,0.30193 -2.86368,0.498c-0.78812,0.20341 -1.98297,0.61554 -2.77783,0.94232c-0.3988,0.16396 -1.17917,0.51892 -1.94415,0.86334c-1.08865,0.49014 -1.76202,0.79477 -2.73633,1.11099c-0.61072,0.19823 -1.81982,0.43025 -2.72086,0.51634c-0.5994,0.05727 -1.80905,0.15424 -2.6955,0.38699c-0.59076,0.15512 -1.44687,0.48071 -2.4205,1.121c-0.47308,0.31111 -1.08948,0.92171 -2.1055,1.27451c-0.7883,0.27371 -1.69086,0.24338 -2.87833,0.46432c-0.60062,0.11176 -1.47507,0.36047 -2.53351,0.7785c-0.72195,0.28513 -1.40161,0.61928 -2.33331,1.16667c-0.52426,0.30801 -1.34549,0.84836 -1.93784,1.18066c-1.17883,0.66133 -1.78122,0.91945 -2.65952,1.20599c-0.54517,0.17786 -1.7854,0.37779 -2.46133,0.472c-1.2005,0.16731 -1.72751,0.34457 -2.58533,0.54933c-1.18387,0.28258 -1.78665,0.36195 -2.66849,0.40451c-0.83478,0.0403 -1.8479,-0.06456 -2.74619,0.09283c-0.96225,0.16859 -1.72501,0.62949 -2.51334,1.07733c-0.49335,0.28027 -1.61603,0.76721 -2.59467,1.01733c-0.68512,0.17511 -1.48837,0.44278 -2.06934,0.63466c-1.19547,0.39484 -2.04965,0.69849 -2.82666,0.91333c-0.94968,0.26259 -1.73813,0.64647 -2.31232,1.28534c-0.40698,0.45284 -1.47055,0.90497 -2.27966,1.01466c-0.58002,0.07864 -1.77899,0.2627 -2.65784,0.48534c-0.56479,0.14308 -1.83353,0.44008 -2.5,0.47917c-1.01932,0.05978 -1.82083,0.01903 -2.62085,0.02083c-1,0.00226 -1.81305,0.0056 -2.80267,0.284c-0.64929,0.18266 -1.36188,0.4724 -2.56531,0.63333c-0.67999,0.09094 -1.75327,0.09836 -2.69867,0.416c-0.86047,0.28911 -1.29547,0.74226 -2.10135,1.09868c-1.15759,0.51196 -1.89291,0.51099 -2.61734,0.58266c-0.73157,0.07239 -1.80209,0.16899 -2.76797,0.42134c-0.89481,0.23378 -1.68958,0.54253 -2.39401,0.8685c-0.91861,0.42506 -1.87384,1.01666 -2.40085,1.34366c-0.7905,0.49049 -1.69986,1.07094 -2.40115,1.2905c-0.96393,0.3018 -1.66779,0.38625 -2.39999,0.67201c-1.12817,0.44031 -1.6778,1.00491 -2.57199,1.26782c-0.82556,0.24274 -1.91702,-0.10469 -2.67868,0.45483c-0.53909,0.39603 -0.80518,1.28123 -1.66617,1.9095c-0.57129,0.41685 -1.6662,0.76025 -2.30182,0.95851c-0.68167,0.21263 -1.75153,0.50124 -2.69867,0.96533c-0.58112,0.28474 -1.28867,0.86752 -2.01602,1.34933c-0.97299,0.64453 -1.53793,0.88933 -2.42181,1.12233c-1.17899,0.31079 -1.79285,0.29083 -2.65952,0.38699c-1.07205,0.11894 -1.77225,0.36383 -2.68866,0.62201c-0.9588,0.27011 -1.78751,0.31128 -2.358,0.414c-1.20071,0.21622 -2.08505,0.63504 -2.64767,0.93866c-0.77774,0.41972 -1.7305,0.93867 -2.50964,0.99733c-1.03891,0.07822 -1.82828,-0.03033 -2.86536,0.16934c-0.72025,0.13867 -1.54889,0.53319 -2.36667,0.71199c-0.79047,0.17284 -1.82266,0.2301 -2.59998,0.56801c-0.62149,0.27016 -1.58868,1.04999 -2.20001,1.5325c-0.58942,0.46523 -1.59512,0.95488 -2.39999,1.01183c-0.99625,0.07048 -1.80975,-0.08945 -2.71735,0.29434c-0.74557,0.31526 -1.41547,0.84079 -2.14398,1.10399c-0.78076,0.28206 -1.81406,0.52625 -2.73868,0.58984c-0.68265,0.04695 -1.68268,0.02083 -2.47916,0.02083c-1.1875,0 -2.04791,-0.02646 -2.85419,0.33333c-0.70502,0.31461 -1.43469,0.85133 -1.98398,1.09868c-1.19299,0.53719 -1.88916,0.51166 -2.88251,0.78932c-0.79709,0.22281 -1.80573,0.56992 -2.49567,0.83134c-0.89502,0.33914 -1.63251,0.82629 -2.55518,0.91133c-0.74152,0.06834 -1.79675,-0.0667 -2.63199,0.12132c-0.79813,0.17966 -1.53656,0.60675 -2.23199,1.39734c-0.53479,0.60799 -1.1842,1.46004 -2.052,1.51733c-0.85233,0.05627 -1.83334,0 -2.63333,0c-0.80002,0 -1.80768,-0.08713 -2.54285,0.05716c-0.92953,0.18243 -1.75052,0.88069 -2.54251,0.94151c-0.94788,0.07278 -1.71597,0.00133 -2.71466,0.00133c-0.79999,0 -1.80649,-0.0784 -2.564,0.036c-0.97403,0.14709 -1.62515,0.70166 -2.60535,0.87868c-0.74225,0.13405 -1.54797,0.08466 -2.54666,0.08533c-0.90933,0.00061 -1.85132,-0.02461 -2.64114,0.009c-0.85507,0.03639 -2.05322,0.29951 -2.64151,0.56033c-0.60236,0.26706 -1.42892,0.80846 -2.48001,1.409c-0.68643,0.3922 -1.36108,0.71989 -2.3425,0.90033c-0.7861,0.14453 -1.60596,0.0461 -2.6095,0.40533c-0.7572,0.27106 -1.66132,0.54649 -2.31665,0.82584c-0.99622,0.42465 -1.3923,1.32172 -2.19534,1.64717c-0.90665,0.36745 -1.68933,0.24165 -2.64301,0.243c-1.01566,0.00142 -1.98099,0 -2.65033,0c-0.76532,0 -1.76401,0 -2.564,0c-1,0 -1.80011,-0.01283 -2.80002,0.00017c-0.8002,0.01039 -1.80475,0.15224 -2.59998,0.42517c-0.80508,0.27631 -1.80878,0.45189 -2.54285,0.62733c-0.92966,0.2222 -1.53455,0.84074 -2.14117,1.42999c-0.68326,0.66368 -1.61954,1.07625 -2.22934,1.60001c-0.71637,0.61528 -1.17331,0.91666 -2.112,0.91733c-1.008,0.00072 -1.65842,0.24734 -2.42932,0.716c-0.71698,0.43588 -1.50531,0.27866 -2.60266,0.284c-0.79333,0.00386 -1.91068,0 -2.64267,0c-0.73199,0 -1.828,0 -2.70267,0c-0.76801,0 -1.80267,0 -2.54666,0c-1.10783,0 -1.86534,0 -2.73601,0c-0.91916,0 -1.92232,-0.05481 -2.53549,0.04167c-1.16801,0.18378 -1.93817,0.66487 -2.5,0.97916c-0.5856,0.32759 -1.76941,0.98193 -2.38367,1.2175c-0.91812,0.3521 -1.576,0.50885 -2.617,0.64034c-0.73305,0.09259 -1.50014,0.11038 -2.283,0.17401c-1.19698,0.09727 -1.99619,0.22746 -2.7955,0.37267c-0.8007,0.14546 -1.59607,0.3228 -2.79967,0.45316c-0.78932,0.08548 -1.92828,0.11513 -2.62965,0.12018c-1.20264,0.00867 -1.97067,0.00133 -2.73868,0.00133c-0.87483,0 -1.89333,0 -2.61732,0c-0.73201,0 -1.79317,0 -2.77867,0c-0.62534,0 -1.8364,-0.01944 -2.74049,0.009c-0.6169,0.01941 -1.59412,0.11539 -2.61667,0.43367c-0.73807,0.22974 -1.45184,0.57265 -2.16901,0.85199c-1.25694,0.48959 -2.05907,0.64464 -2.81517,0.75351c-0.82788,0.1192 -1.80826,0.30818 -2.53633,0.45183c-0.76657,0.15123 -1.95686,0.34924 -2.75833,0.41467c-0.79886,0.06522 -1.59995,0.07889 -2.39999,0.084c-1.19997,0.00766 -2,0.00133 -2.8,0.00133c-0.8,0 -2,0 -2.8,0c-0.8,0 -1.59999,0 -2.39999,0c-1.2,0 -2,0 -2.8,0c-0.8,0 -2,0 -2.79866,0c-0.79068,0 -1.56534,0 -2.31601,0c-1.39867,0 -2.03867,0 -2.92366,0c-1.04034,0 -1.73634,0 -2.64568,0c-1.00133,0 -1.83682,0 -2.71733,0c-0.8985,0 -1.78799,0 -2.64149,0c-1.036,0 -1.74251,0 -2.7265,0c-0.87367,0 -1.90266,0 -2.65199,0c-0.78134,0 -1.97867,0 -2.77867,0c-0.8,0 -1.60001,0 -2.8,0c-0.8,0 -1.60001,0 -2.39999,0c-0.8,0 -1.99983,0 -2.7955,0c-0.78368,0 -1.54733,0 -2.63783,0c-0.68268,0 -1.66667,0 -2.31934,0c-1.36833,0 -2.091,0 -2.80566,0c-0.987,0 -1.98834,0 -2.8425,0c-0.97118,0 -1.76167,0 -2.36534,0c-1.35516,0 -2.0865,0 -2.83383,0c-0.74733,0 -1.83344,0.01042 -2.84734,-0.0045c-0.6528,-0.00961 -1.64017,-0.05632 -2.674,-0.21683c-0.73424,-0.114 -1.47688,-0.28804 -2.226,-0.42601c-1.08359,-0.19957 -2.09496,-0.3069 -2.73184,-0.33183c-0.91899,-0.03596 -2.12314,-0.00301 -2.73149,-0.04216c-0.9491,-0.0611 -1.96187,-0.29482 -2.67334,-0.54666c-0.74792,-0.26476 -1.48158,-0.60643 -2.23199,-0.86401c-1.0508,-0.3607 -2.03982,-0.48817 -2.92233,-0.61617c-1.04373,-0.15137 -1.72596,-0.4118 -2.41434,-0.59917c-1.21481,-0.33064 -2.03564,-0.29269 -2.778,-0.43666c-0.98243,-0.19052 -1.72408,-0.69644 -2.54,-0.83067c-0.76343,-0.1256 -1.632,-0.08466 -2.82667,-0.08533c-0.58133,-0.00032 -1.63755,0.09477 -2.59733,-0.009c-0.78548,-0.08493 -1.56938,-0.56833 -2.32617,-0.991c-0.79109,-0.44183 -1.79079,-0.85249 -2.47916,-0.97917c-0.68036,-0.1252 -1.68517,-0.31088 -2.54166,-0.52083c-0.61894,-0.15172 -1.97855,-0.39284 -2.71101,-0.44284c-0.74648,-0.05096 -1.49465,-0.0549 -2.58067,-0.05716c-1.005,-0.00208 -1.92,0.00102 -2.48,0c-1.23401,-0.00226 -1.92298,0.02454 -3.10817,-0.22166c-0.54209,-0.11261 -1.40933,-0.38113 -2.5785,-0.94501c-0.60867,-0.29356 -1.16918,-0.66447 -1.98566,-1.12349c-0.86169,-0.48444 -1.71739,-0.58878 -2.65034,-0.74583c-0.87164,-0.14673 -1.60314,-0.48274 -2.47867,-1.16534c-0.63401,-0.49431 -1.28464,-1.22763 -1.37733,-1.97333c-0.11741,-0.94452 0.74754,-1.44312 1.65866,-1.82533c0.78505,-0.32933 1.68346,-0.6273 2.32,-0.88533c1.04069,-0.42186 1.76883,-0.77103 2.53417,-1.11467c0.78197,-0.35112 1.977,-0.83945 2.37933,-0.9785c0.8002,-0.27657 1.61806,-0.51099 2.457,-0.717c1.30564,-0.32062 2.22723,-0.50401 2.6955,-0.60901c0.94817,-0.21262 1.42863,-0.30768 2.36333,-0.58083c1.37313,-0.40128 2.22781,-0.76495 2.648,-0.94c0.8273,-0.34465 1.62316,-0.72176 2.83633,-1.15317c0.8016,-0.28505 1.64016,-0.50537 2.07167,-0.61084c0.89633,-0.2191 2.37018,-0.51147 2.89333,-0.61066c1.06369,-0.20164 1.59419,-0.29401 2.615,-0.5c0.48158,-0.09718 1.73708,-0.38936 2.68633,-0.68933c0.77525,-0.24498 1.75551,-0.48447 2.56934,-0.59601c0.86926,-0.11913 1.77833,-0.31522 2.6595,-0.72c0.59414,-0.27293 1.3858,-0.82414 2.4205,-1.12399c0.66855,-0.19374 1.85066,-0.17067 2.64567,-0.17067c0.57999,0 1.525,0.00298 2.55966,-0.00017c0.73135,-0.00223 1.48158,0.01813 2.59467,-0.08516c1.06642,-0.09895 1.72234,-0.26733 2.63733,-0.48933l1.08,-0.25867l0.705,-0.114l0.8,-0.10535" id="svg_1" stroke-width="2" stroke="#000" fill="none"/>
  <path t="9002,9391,9392,9408,9408,9424,9424,9424,9441,9442,9442,9459,9459,9459,9474,9474,9474,9491,9492,9492,9508,9509,9509,9524,9524,9524,9525,9540,9540,9541,9558,9559,9559,9575,9575,9575,9575,9591,9592,9592,9592,9608,9609,9609,9609,9624,9624,9624,9624,9641,9642,9642,9642,9658,9659,9659,9675,9675,9675,9691,9692,9692,9708,9709,9709,9709,9724,9724,9724,9741,9742,9742,9758,9759,9759,9759,9774,9774,9774,9791,9792,9792,9792,9809,9809,9809,9809,9824,9824,9824,9842,9842,9842,9857,9857,9858,9875,9875,9875,9892,9892,9892,9892,9907,9908,9908,9908,9925,9925,9940,9941,9941,9941,9958,9959,9959,9974,9974,9991,9992,9992,10007,10008,10024,10042,10042,10058,10059,10074,10075,10075,10090,10091,10175,10175,10209,10230,10230,10248,10249,10249,10266,10266,10266,10299,10299,10301,10302,10302,10318,10318,10318,10319,10333,10333,10333,10348,10348,10362,10362,10376,10376,10391,10391,10408,10409,10441,10442,10624,10651,10681,10682,10710,10711,10713,10713,10713,10730,10730,10730,10747,10748,10748,10763,10763,10763,10763,10779,10779,10780,10798,10798,10798,10798,10814,10815,10815,10830,10831,10847,10847,10863,10863,10864,10864,10878,10878,10878,10892,10893,10893,10893,10907,10908,10941,10942,10942,10942,10957,10957,10958,10958,10974,10974,10975,10991,10991,10991,10991,11008,11008,11008,11024,11024,11025,11041,11041,11041,11058,11058,11074,11075,11075,11091,11091,11107,11108,11125,11125,11125,11142,11142,11142,11158,11159,11159,11175,11176,11192,11192" d="m214,186c0.82317,-4.71417 -0.00905,-4.95253 -1.032,-5.00133c-0.77446,-0.03696 -1.73663,-0.29002 -2.50967,-0.49867c-0.56589,-0.15274 -1.7596,-0.36742 -2.64766,-0.48534c-0.85503,-0.11353 -1.66338,-0.31296 -2.358,-0.72c-0.69923,-0.40974 -1.60677,-1.01155 -2.40533,-1.18483c-0.81247,-0.1763 -1.88718,-0.25386 -2.82201,-0.53517c-0.68315,-0.20558 -1.64557,-0.46465 -2.46132,-0.54933c-0.86736,-0.09006 -1.77519,-0.1463 -2.6595,-0.38699c-0.88199,-0.24007 -1.45302,-0.47162 -2.4205,-1.12233c-0.71097,-0.47818 -1.34201,-1.07632 -2.1055,-1.49451c-0.79033,-0.43288 -1.68256,-0.71835 -2.57851,-1.0215c-0.90404,-0.30588 -1.52525,-0.50923 -2.15717,-0.75717c-1.37408,-0.53914 -2.09201,-0.89337 -2.4575,-1.06816c-1.07851,-0.51576 -2.04941,-1.01328 -2.61732,-1.28934c-0.76457,-0.37164 -1.53073,-0.69978 -2.41084,-0.9855c-1.01274,-0.32877 -1.75049,-0.51346 -2.4745,-0.78516c-1.07404,-0.40305 -1.72169,-0.77025 -2.36183,-1.09384c-0.91418,-0.46214 -1.81772,-0.79234 -2.71016,-0.97017c-0.85091,-0.16956 -1.89967,-0.4762 -2.58534,-0.90132c-0.6888,-0.42705 -1.64233,-0.92555 -2.1825,-1.04401c-0.8475,-0.18584 -2.05515,-0.40953 -2.64149,-0.67467c-0.90163,-0.4077 -1.42891,-0.80846 -2.48001,-1.409c-0.68646,-0.3922 -1.36079,-0.72139 -2.34282,-0.90033c-0.80685,-0.14702 -1.69186,-0.12018 -2.87834,-0.343c-0.60138,-0.11295 -1.48041,-0.39075 -2.01483,-0.66501c-1.03836,-0.53288 -1.67737,-1.15782 -2.45467,-1.62933c-0.84506,-0.51262 -1.53667,-0.73866 -2.2515,-0.96317c-0.72731,-0.22842 -2.16074,-0.61128 -2.82201,-0.82533c-0.63943,-0.20697 -1.56737,-0.55774 -2.457,-1.01666c-0.6039,-0.31152 -1.42644,-0.90204 -2.53349,-1.3455c-0.69452,-0.27821 -1.40106,-0.30107 -2.588,-0.55482c-0.53627,-0.11464 -1.36089,-0.36925 -2.412,-0.7785c-0.72395,-0.28188 -1.41278,-0.63416 -2.5,-0.83333c-0.96704,-0.17715 -1.68848,-0.15459 -2.4185,-0.21935c-1.08324,-0.09608 -2.09407,-0.27261 -2.68567,-0.489c-0.81002,-0.29628 -1.56976,-0.9653 -2.21317,-1.633c-0.65823,-0.68307 -1.34845,-1.10585 -2.17067,-1.37866c-0.57227,-0.18988 -1.77649,-0.35782 -2.637,-0.44667c-0.77145,-0.07965 -1.7494,-0.34239 -2.347,-0.76167c-0.98521,-0.69124 -1.45055,-1.05629 -2.18933,-1.58566c-0.86857,-0.62239 -1.54082,-1.29886 -2.30983,-1.59999c-0.82838,-0.32437 -1.67818,-0.59975 -2.52884,-0.886c-0.81396,-0.27391 -1.71246,-0.60396 -2.41733,-1.01733c-0.74737,-0.43831 -1.73101,-0.68459 -2.38317,-1.19751c-0.74584,-0.58659 -1.25283,-0.95116 -2.1915,-0.95183c-1.008,-0.00072 -1.69553,-0.00739 -2.7175,0.00017c-0.71855,0.00531 -1.52318,-0.01517 -2.53567,0.22116c-0.91811,0.21431 -1.52287,0.4837 -2.5215,0.735c-0.80227,0.20189 -1.61236,0.69612 -2.21067,1.33034c-0.66019,0.69981 -1.32813,1.42473 -2.1465,1.9035c-0.54675,0.31987 -1.45762,0.66595 -2.34233,1.13116c-0.5966,0.31371 -1.48038,0.75826 -2.2005,1.51199c-0.55553,0.58147 -1.0374,1.43224 -1.72134,1.73067c-0.94212,0.41109 -1.84921,0.27393 -2.612,0.76933c-0.77843,0.50557 -1.23719,1.53549 -1.92383,1.65767c-0.8817,0.15689 -1.87466,-0.43268 -2.79617,0.045c-0.64043,0.33197 -0.54475,1.47046 -0.436,2.37466c0.11163,0.92812 0.43661,1.66931 1.156,2.42267c0.59917,0.62746 1.28069,0.93256 2.03333,1.70934c0.4256,0.43924 0.94125,1.26141 1.8,2.12401c0.56388,0.56641 1.24311,0.93649 2,1.66666c0.42584,0.41081 0.99572,1.19075 1.4,1.71851c0.79151,1.03325 1.22295,1.47339 1.764,2.17349c0.7063,0.91394 1.06963,1.73245 1.35683,2.25385c0.42225,0.76656 1.23705,1.56842 1.97916,2c0.72254,0.4202 1.56326,0.97914 2.07867,1.6955c0.55982,0.77809 0.95775,1.3513 1.75467,2.15866c0.43183,0.43748 1.16667,1.16667 1.66133,1.66133c0.672,0.67201 1.35467,1.35468 1.97334,1.97334c0.57466,0.57466 1.28266,1.28267 1.78133,1.78133c0.48267,0.48267 1.44533,1.44534 1.90133,1.90134c0.68267,0.68266 1.35926,1.36375 1.891,1.87016c0.56271,0.5359 1.45349,1.31857 2.05567,1.79384c0.57675,0.4552 1.43176,1.03519 2.06933,1.68533c0.73635,0.75089 1.09655,1.44096 1.876,2.20016c0.44016,0.42873 1.24051,1.00203 1.68934,1.48517c0.87019,0.93672 1.05196,1.57167 1.57333,2.30484c0.65958,0.92752 1.4504,1.33951 1.944,1.6245c0.92717,0.53531 1.57639,1.21222 2.048,1.90134c0.50472,0.7375 1.09912,1.44511 1.68667,2.252c0.34798,0.47789 0.83331,1.24945 1.4945,2.08899c0.58499,0.74278 1.20285,1.36874 1.83583,1.90018c0.70565,0.59244 1.44901,1.06253 1.93501,1.45349c0.94295,0.75854 1.44098,1.38924 1.86533,1.98933c0.70691,0.99966 1.20341,1.59627 1.73267,2.14284c0.7571,0.78188 1.34816,1.35266 1.95717,1.96167l0.58083,0.58083" id="svg_2" stroke-width="2" stroke="#000" fill="none"/>
  <path t="27394,28634,28634,28655,28655,28676,28698,28698,28713,28713,28727,28727,28751,28752,28752,28767,28767,28768,28784,28784,28801,28801,28817,28817,28834,28834,28851,28851,28851,28867,28867,28867,28867,28884,28884,28901,28901,28901,28917,28917,28934,28934,28934,28950,28950,28967,28967,28968,28985,28985,28985,28985,29003,29003,29020,29020,29020,29037,29038,29054,29054,29054,29070,29070,29085,29085,29086,29101,29101,29101,29117,29133,29133,29133,29150,29150,29166,29184,29184,29200,29201,29219,29219,29250,29251,29285,29302,29302,29473,29474,29476,29495,29534,29674,29674,29692,29717,29717,29717,29737,29737,29755,29755,29773,29773,29774,29791,30166,30170,30200,30383,30384,30416,30417,30435,30464,30466,30485,30486,30504,30505,30525,30525,30550,30568,30568,30568,30587,30587,30606,30624,30624,30642,30642,30642,30660,30677,30677,30677,30694,30694,30710,30710,30710,30727,30743,30760,30760,30760,30777,30777,30793,30793,30810,30810,30810,30826,30826,30843,30843,30859,30859,30860,30876,30876,30892,30892,30908,30909,30925,30925,30925,30942,30942,30959,30959,30959,30976,30976,30993,30993,31010,31011,31027,31027,31044,31044,31061,31077,31078,31100,31100,31116,31716,32082,32400" d="m120,233c2.8285,-2.60001 2.99325,-3.39993 3,-4.39867c0.00517,-0.76532 0,-1.84416 0,-2.70166c0,-0.714 0,-1.66768 0,-2.39967c0,-1.16667 0,-2 0,-2.83333c0,-0.92801 0,-1.71851 0,-2.74518c0,-0.90067 0,-1.52016 0,-2.5215c0,-0.79999 0,-1.79999 0,-2.59999c0,-0.99983 0,-1.964 0,-2.91734c0,-0.69249 0,-1.65466 0,-2.44516c0,-0.92551 0,-1.9585 0,-2.68117c0,-0.71466 0,-1.70166 0,-2.89383c0,-0.66333 0,-1.63184 0,-2.38333c0,-0.79651 -0.00005,-2.0265 0,-2.7045c0.00008,-1.19585 -0.03854,-1.99385 0.05717,-2.76485c0.10872,-0.87584 0.60051,-1.63638 0.82166,-2.55283c0.17283,-0.71619 0.14691,-1.59277 0.56384,-2.75684c0.21951,-0.61287 0.73355,-1.45117 0.98933,-2.01483c0.44517,-0.981 0.55733,-1.91048 0.568,-2.85201c0.00885,-0.78145 -0.02516,-1.57228 0.00017,-2.69066c0.01798,-0.79395 0.21854,-1.6861 0.42516,-2.39334c0.28702,-0.98239 0.54491,-1.9425 0.57333,-2.71733c0.03836,-1.04562 0.00134,-1.85333 0.00134,-2.43466c0,-1.19467 0,-2.05566 0,-2.82668c0,-1.12 0,-2.10399 0,-2.776c0,-0.74399 -0.01588,-1.85181 0,-2.68565c0.01801,-0.94553 0.30212,-1.78564 0.57467,-2.48367c0.36448,-0.93347 0.42466,-1.79466 0.42533,-2.59334c0.00082,-0.98132 0,-1.89867 0,-2.81065c0,-0.832 -0.24292,-1.8022 0.07201,-2.56001c0.37715,-0.90753 1.61574,-0.78661 1.91899,-1.56583c0.3248,-0.83458 -0.02353,-1.81693 0.01033,-2.77817c0.02849,-0.80891 0.5605,-1.49649 1.54134,-1.51733c0.70786,-0.01505 1.452,0 2.64751,0c0.69249,0 1.65649,0.00056 2.49649,0c0.996,-0.00067 1.80356,0.05836 2.54401,-0.08533c1.13777,-0.22079 1.92813,-0.92555 2.7485,-0.873c0.88295,0.05655 1.02083,1.125 1.02083,1.95833c0,0.83333 -0.01688,1.69565 0,2.60001c0.01801,0.96449 0.68068,1.39374 1.3045,2.10983c0.51599,0.5923 1.14224,1.46831 1.87016,1.84349c0.77081,0.39729 1.67438,0.45947 2.34616,0.98834c0.70616,0.55594 1.30428,1.28389 1.82651,1.80566c0.767,0.76633 1.32738,1.34271 2.17349,1.65266c0.9436,0.34566 1.7326,0.56265 2.45767,1.32133c0.4384,0.45872 0.72064,1.27626 1.43216,2.04266c0.67218,0.72404 1.46666,0.97873 2.10535,1.52133c0.81021,0.68832 1.0573,1.39801 2.02649,2.09317c0.6476,0.46449 1.50142,0.5769 2.20284,1.22017c0.6633,0.60831 1.26202,1.29738 1.55917,1.85933c0.46425,0.87798 0.99268,1.63963 1.87016,1.946c0.78654,0.27461 1.47601,0.65681 2.368,1.31734c0.45734,0.33867 1.22461,0.82903 2.12401,1.51199c0.67529,0.51279 1.3333,1.1667 1.85416,1.6875c0.80046,0.80038 1.26967,1.33514 1.82651,1.76933c0.85596,0.66742 1.63214,0.75673 2.658,1.067c0.75233,0.22754 1.72722,0.55205 2.32266,1.0535c0.77368,0.65157 1.01183,1.46913 1.55733,2.10535c0.69008,0.80486 1.32724,1.06966 2.31467,1.58417c0.80156,0.41766 1.42566,0.75238 2.19867,1.38382c0.60152,0.49135 1.39589,1.39211 1.96533,1.86934c0.69316,0.5809 1.57336,0.61842 2.45067,1.09334c0.66573,0.36038 0.99872,1.22678 1.26801,2.06934c0.27667,0.86568 1.13115,1.35551 1.80266,1.56799c0.95111,0.30096 1.54533,0.80267 2.05333,1.73067l0.22801,0.85201l0.83333,0.33333l0.83333,0.16667" id="svg_4" stroke-width="2" stroke="#000" fill="none"/>
  <path t="35295,35489,35489,35489,35515,35515,35515,35540,35540,35542,35542,35542,35561,35561,35578,35578,35599,35599,35599,35615,35630,35630,35647,35647,35647,35663,35663,35680,35680,35680,35697,35697,35697,35697,35713,35713,35714,35714,35731,35731,35747,35747,35747,35747,35763,35763,35763,35780,35780,35780,35796,35796,35813,35813,35813,35829,35829,35829,35846,35847,35847,35847,35865,35865,35881,35881,35897,35897,35913,35913,35929,36156,36472,37006" d="m134,251c-2.39999,0.85333 -2.97685,1.54099 -3.60001,2.23334c-0.57895,0.64325 -1.41345,1.20396 -1.91466,1.64932c-0.79686,0.70805 -1.2324,1.54587 -2.028,2.09583c-0.66315,0.4584 -1.49669,0.63297 -2.31434,1.12167c-0.77153,0.46115 -1.20832,1.24405 -1.66383,1.89984c-0.60146,0.86591 -1.31483,1.34802 -1.99516,1.79868c-0.86156,0.57071 -1.64308,0.97223 -2.24117,1.36832c-0.83348,0.55197 -1.237,1.35812 -1.75883,2.06635c-0.59209,0.80356 -1.11607,1.39417 -1.58434,2.30933c-0.3541,0.69205 -0.61282,1.54883 -1.44267,2.31467c-0.42595,0.3931 -1.28982,0.77316 -1.85966,1.11066c-0.9166,0.54288 -1.78338,1.27469 -2.32533,1.78134c-0.50836,0.47525 -1.28209,1.30545 -1.92267,1.86533c-0.66103,0.57773 -1.36292,1.03729 -2.13467,1.59601c-0.53463,0.38705 -1.53589,1.1821 -1.97867,1.58932c-0.64115,0.58969 -1.43583,1.39984 -2.02533,1.98935c-0.5535,0.5535 -1.37967,1.285 -1.8,1.87201c-0.59312,0.82828 -0.75423,1.63593 -1.225,2.33331c-0.63166,0.93573 -1.17964,1.23593 -2.007,1.58401c-1.15375,0.48541 -1.78151,0.60599 -2.637,0.92133c-0.77625,0.28613 -1.6523,0.61691 -2.23267,1.25717c-0.72903,0.80426 -0.8629,1.49542 -1.63017,2.22131c-0.60062,0.56824 -1.54884,1.09564 -1.67616,1.90686c-0.14411,0.91818 -0.16933,1.78131 -1.00267,2.11465l-0.83334,0.16666" id="svg_5" stroke-width="2" stroke="#000" fill="none"/>
  <path t="41000,41232,41232,41346,41363,41364,41364,41380,41380,41380,41396,41396,41397,41413,41413,41413,41429,41430,41430,41446,41446,41446,41463,41479,41480,41480,41496,41496,41513,41513,41530,41546,41546" d="m92,296c0.56934,-0.08533 1.35183,-0.00226 2.25183,0c1.0815,0.00269 1.758,0 2.5335,0c1.048,0 1.98933,0 2.66734,0c0.96883,0 1.78333,0 2.65183,0c1.19534,0 1.791,0 2.6595,0c1.06934,0 2.01067,0 2.68867,0c0.9685,0 1.762,0 2.778,0c0.9595,0 1.936,0 2.60533,0c0.76534,0 1.764,0 2.564,0c0.99866,0 1.94283,0 2.83833,0.009l0.67767,0.55899l0.13667,0.72668" id="svg_6" stroke-width="2" stroke="#000" fill="none"/>
  <path t="46581,46828,46829,46845,46845,46845,46862,46862,46862,46878,46878,46878,46878,46878,46895,46895,46896,46896,46912,46912,46912,46928,46928,46928,46945,46945,46945,46945,46962,46962,46962,46962,46978,46978,46978,46979,46979,46995,46995,46995,47012,47012,47012,47028,47028,47028,47029,47045,47045,47045,47062,47063,47063,47063,47081,47081,47081,47095,47095,47095,47095,47095,47112,47112,47112,47128,47128,47128,47129,47145,47145,47145,47162,47162,47163,47163,47178,47178,47179,47195,47195,47195,47212,47212,47212,47212,47228,47228,47229,47245,47245,47262,47262,47278,47278,47295,47328,47329,47695,47695" d="m115,298c4.1375,0 4.96761,0.03629 6.01434,-0.009c0.8087,-0.035 1.41576,-0.0871 2.587,-0.56033c0.62648,-0.25311 1.21114,-0.66672 2.56533,-1.26401c0.70477,-0.31085 1.4558,-0.53238 2.172,-0.828c0.70013,-0.289 1.63835,-0.85941 2.1515,-1.34399c0.75502,-0.71298 1.12903,-1.31363 2.19383,-2.02399c0.51431,-0.34311 1.37482,-0.63385 2.39465,-1.07101c0.70447,-0.30197 1.39925,-0.68158 2.34283,-1.44232c0.55104,-0.44427 1.08493,-0.97485 1.68301,-1.452c0.87518,-0.69824 1.79808,-1.20389 2.41632,-1.50534c0.6344,-0.30933 1.65408,-0.82007 2.36183,-1.26801c0.74089,-0.46893 1.45227,-0.98672 2.14801,-1.46399c0.9216,-0.6322 1.44275,-0.98627 2.18399,-1.34668c1.18213,-0.5748 1.77121,-0.65747 2.524,-1.09332c0.98618,-0.57098 1.4521,-1.33578 1.76134,-1.828c0.46219,-0.73569 1.2588,-1.55212 2.04167,-2c0.55922,-0.31992 1.4729,-0.81396 2.05699,-1.26801c0.90402,-0.70276 1.42184,-1.25385 2.23466,-1.89865c0.69569,-0.55191 1.41649,-0.95145 2.33334,-1.66669c0.53357,-0.41623 1.06201,-0.92587 1.644,-1.41599c0.58347,-0.49133 1.783,-1.29111 2.37866,-1.58932c0.57005,-0.2854 1.66489,-0.79889 2.358,-1.31851c0.7003,-0.52499 1.11893,-0.96692 2.138,-1.74283c0.5415,-0.41229 1.12349,-0.80276 2.31467,-1.60001c0.59775,-0.40005 1.1859,-0.79465 1.76401,-1.164c1.0631,-0.6792 1.77306,-1.0997 2.46132,-1.42532c0.92836,-0.43924 1.76054,-0.64682 2.51334,-1.08267c0.98618,-0.57098 1.29333,-1.09601 1.76134,-1.828c0.468,-0.73199 1.25668,-1.54971 2,-1.97916c0.48755,-0.28168 1.51822,-1.01505 1.97917,-1.5c0.66985,-0.70473 1.56453,-0.86499 2.49933,-1.24217c0.6544,-0.26404 1.54233,-0.77867 2.34267,-1.00034l0.8175,-0.425l0.6185,-0.6745l0.222,-0.658" id="svg_8" stroke-width="2" stroke="#000" fill="none"/>
  <path t="52663,52839,52840,52840,52840,52857,52857,52857,52857,52894,52894,52894,52894,52896,52896,52896,52896,52917,52989,53007,53025,53025,53025,53025,53043,53043,53043,53044,53044,53044,53062,53062,53062,53062,53062,53062,53062,53084,53085,53085,53085,53102,53102,53103,53103,53103,53122,53122,53122,53122,53173,53174,53191,53192,53211,53211,53211,53229,53230,53230,53230,53230,53250,53250,53250,53250,53250,53250,53269,53269,53269,53269,53269,53269,53289,53289,53289,53289,53291,53291,53291,53291,53309,53309,53309" d="m124,170c3.59734,2.40266 4.20084,2.79559 4.728,3.272c0.52461,0.47412 1.31636,1.69179 1.62134,2.38933c0.31416,0.71852 0.56017,1.48984 1.19333,2.51717c0.42476,0.68919 0.96892,1.29155 1.452,1.91701c0.68878,0.8918 1.04483,1.49539 1.46367,2.342c0.34749,0.70236 0.86928,2.62141 1.53717,2.15266c0.53735,-0.37714 -0.87286,-1.1433 -1.42416,-1.60449c-0.64478,-0.53938 -1.38828,-1.09605 -2.57133,-1.98567c-0.39981,-0.30064 -1.20488,-0.90399 -1.61067,-1.21066c-0.82611,-0.62431 -1.24934,-0.94281 -2.55599,-1.95601c-0.45551,-0.35321 -1.38139,-1.08163 -1.848,-1.448c-0.46439,-0.36464 -1.37366,-1.0779 -1.816,-1.416c-1.22111,-0.93332 -1.6057,-1.19037 -2.28667,-1.71866c-0.63327,-0.49129 -1.73447,-1.57043 -2.19733,-2.22c-0.23785,-0.3338 -0.66743,-1.04984 -1.08083,-1.7825c-0.60884,-1.07906 -0.9774,-1.77831 -1.6045,-2.68567c-0.38375,-0.55525 -1.18835,-1.43346 -1.768,-1.87984c-0.75297,-0.57985 -0.17181,-0.69995 0.824,-0.67999c1.00705,0.02019 1.77118,0.04739 2.944,0.33066c0.81188,0.19609 1.21503,0.35831 2,0.75c0.81696,0.40767 2.00571,1.24277 2.4,1.55951c0.81201,0.65231 1.20222,1.01604 2,1.74249c0.40113,0.36526 1.59615,1.4525 1.99983,1.79283c0.78826,0.66455 1.17793,0.98047 1.96416,1.53917c0.74008,0.52591 1.81075,1.14749 2.47884,1.47734c0.63286,0.31247 1.58102,0.7356 2.45717,1.34782c0.6189,0.43246 1.2,0.93668 1.8,1.395l0.89999,0.5625l0.89101,0.33299l0.83699,0.17101" id="svg_9" stroke-width="20" stroke="#fff" fill="none"/>
  <path t="53751,53989,53989,54006,54006,54006,54024,54025,54025,54043,54043,54043,54062,54062,54062,54081,54081,54081,54100,54100,54100,54100,54116,54116,54132,54132,54132,54132,54149,54149,54149,54166,54166,54166" d="m188,216c0,-5.776 -0.02899,-6.61914 0.0005,-7.54283c0.03128,-0.97946 0.16553,-1.83009 0.66367,-2.53568c0.53406,-0.75644 1.14429,-1.05969 2.0025,-1.92149c0.5616,-0.56393 0.89029,-1.28035 1.87616,-1.9785c0.66544,-0.47124 1.24985,-0.59258 2.2905,-1.0215c0.7193,-0.29648 1.42188,-0.63139 2.33334,-1.33333c0.53455,-0.41165 1.31581,-1.16327 1.8235,-1.66133c0.87289,-0.85635 1.28873,-1.48843 2.34315,-1.83867c0.6588,-0.21883 1.52396,-0.15977 2.15468,-0.16534c1.39328,-0.01231 2.116,-0.02266 2.81467,-0.07333l1.19733,-0.26132l0.62849,-0.37201l0.558,-0.58932" id="svg_10" stroke-width="20" stroke="#fff" fill="none"/>
  <path t="54544,54739,54739,54739,54757,54757,54758,54758,54777,54778,54778,54778,54798,54798,54798,54799,54819,54819,54819,54819,54839,54839,54839,54839,54840,54840,54840,54840,54860,54860,54889,54889,54889,54908,54909,54939,54939" d="m143,170c2.96933,0.00267 3.66515,-0.01791 4.38533,0.07201c1.46005,0.1823 2.13768,0.47943 2.77867,0.78932c0.63408,0.30655 1.8278,0.99022 2.43733,1.25334c0.90811,0.39201 1.55327,0.58948 2.56534,0.88533c0.71423,0.20879 1.46562,0.37529 2.172,0.672c1.3678,0.57454 1.89838,1.08791 2.39999,1.56801c0.71877,0.68794 1.40593,1.31641 2.21851,1.60199c0.83493,0.29343 1.49527,0.31735 2.64149,1.01001c0.6223,0.37605 1.14125,0.90529 1.716,1.29599c0.96426,0.65549 1.9162,0.82666 2.85201,1.01868c0.78693,0.16147 1.57199,0.40799 2.69049,0.71182l0.75751,0.11084l0.868,0.01199l0.8075,0.05583" id="svg_11" stroke-width="20" stroke="#fff" fill="none"/>
  <path t="57344,57588,57589,57607,57607,57607,57627,57627,57627,57646,57646,57646,57646,57666,57666,57666,57687,57687,57687,57704,57705,57705,57705,57720,57720,57720,57737,57737,57754,57754,57754,57771,57771,57771,57771,57789,57789,57789,57806,57806,57806,57824,57824,57824,57842,57842,57842,57859,57859,57859,57877,57877,57877,57895,57895,57895,57913,57913,57913,57932,57932,57932,57950,57950,57968,57986,57986,58004,58004,58022,58023,58024,58025,58055,58056,58155,58155,58722,58722,58742,58764,58764,58786,58786,58808,58808,58808,58808,58829,58829,58849,58849,58868,58868,58868,58887,58888,58907,58907,58907,58926,58926,58926,58945,58963,58983,58983,59472,59472,59492,59515,59537,59537,59537,59560,59560,59581,59582,59582,59601,59601,59601,59620,59620,59639,59639,59639,59641,59641,59642,59642,59642,59642,59673,59674,59693,59693,59693,59713,59713,59713,59713,59713,59732,59733,59733,59752,59752,59752,59771,59772,59772,59772,59792,59792,59792,59794,59794,59794,59795,59795,59815,59815,59815,59834,59834,59835,59835,59855,59855,59855,59857,59857,59857,59877,59877,59878,59878,59897,59897,59917,59917,59917,59937,59937,59957,59957,59957,59957,59977,59978,59978,59998,59998,59998,60019,60019,60040,60040,60060,60060,60062,60062,60063" d="m144,216c-1.65266,-2.60001 -2.21129,-3.1712 -2.83333,-4c-0.43605,-0.58099 -0.8559,-1.4032 -1.267,-2.20016c-0.31621,-0.61301 -0.85146,-1.50024 -1.44234,-2.22133c-0.44864,-0.54749 -0.98047,-1.08049 -1.452,-1.68301c-0.90828,-1.16063 -1.19817,-1.78317 -1.584,-2.62349c-0.42934,-0.93504 -0.82532,-1.63719 -1.39201,-2.24001c-0.55544,-0.59084 -1.28627,-1.28745 -1.77866,-1.81734c-0.48897,-0.52621 -1.2868,-1.52567 -1.72984,-2.19383c-0.40855,-0.61617 -0.99149,-1.43163 -1.52083,-2c-0.81328,-0.87326 -1.39687,-1.40668 -1.80983,-1.88783c-0.75437,-0.87897 -1.1955,-1.491 -1.69017,-2.133c-0.49467,-0.642 -1.17702,-1.49171 -1.68567,-2.1375c-0.51598,-0.65509 -0.98212,-1.64769 -1.356,-2.3625c-0.39323,-0.75182 -0.98716,-1.37787 -1.709,-1.84933c-0.7306,-0.47717 -1.63947,-1.172 -2.08801,-1.90134c-0.29857,-0.48549 -0.79949,-1.4447 -1.48666,-2.09866c-0.50209,-0.47783 -1.31071,-1.41125 -1.53867,-1.92267c-0.36652,-0.82227 -0.61479,-1.73553 -0.9405,-2.619c-0.3114,-0.84468 -0.84372,-1.79311 -1.34367,-2.30367c-0.61991,-0.63307 -1.15104,-1.3392 -1.331,-2.30533c-0.13538,-0.72678 -0.34074,-1.71455 -0.82217,-2.29733c-0.63141,-0.76434 -0.97986,-1.55089 -1.26,-2.37733c-0.28563,-0.84261 -1.05311,-1.19052 -1.76933,-2.024c-0.55378,-0.64444 -1.01875,-1.25055 -1.19466,-1.98666c-0.22438,-0.93895 -0.86844,-1.6028 -1.62283,-2.11917c-0.64823,-0.44371 -1.26701,-1.16776 -1.34283,-2.04283c-0.08685,-1.00232 0.57339,-1.508 1.34283,-1.70534c0.92586,-0.23744 1.50172,-0.73116 2.41216,-1.26866c0.5857,-0.34579 1.56696,-0.8409 2.184,-1.19467c1.00912,-0.57857 1.62635,-1.1178 2.3735,-1.58383c0.67503,-0.42105 1.67589,-0.74913 2.4785,-0.87483c0.79771,-0.12492 1.82305,-0.34282 2.39999,-0.672c1.04776,-0.59781 1.58764,-1.19324 2.2,-1.70067c0.78445,-0.65002 1.35569,-1.08374 2.11466,-1.366c1.03996,-0.38675 1.92544,-0.19647 2.8065,-0.50833c0.68976,-0.24414 1.41321,-1.10764 1.658,-1.75751c0.3462,-0.91911 1.28938,-1.17184 2.18751,-0.6875c0.54111,0.29181 1.16473,1.03497 1.81216,1.64517c0.66653,0.6282 1.56738,1.11369 2.27184,1.43216c0.74785,0.33809 1.64668,0.87578 2.07733,1.41467c0.5213,0.65233 1.04897,1.60156 1.64267,1.97333c0.97787,0.61234 1.81769,0.79349 2.34666,1.00134c1.23734,0.48621 1.91824,0.81819 2.84933,1.36667c0.52193,0.30745 1.31917,0.82372 1.8235,1.18066c1.05615,0.74748 1.63484,1.28966 2.55283,1.75299c0.71111,0.35892 1.31891,0.50406 2.457,1.233c0.623,0.39902 1.19058,0.91591 1.76401,1.416c0.55186,0.48129 1.54155,1.29768 2.23599,1.72984c0.67426,0.41959 1.68723,1.00322 2.23599,1.35683c0.57668,0.37158 1.76654,1.16023 2.36134,1.564c0.58385,0.39633 1.18874,0.73648 2.06934,1.60001c0.56825,0.55724 0.89241,1.27734 1.87599,1.9785c0.65643,0.46794 1.49532,0.63528 2.31433,1.12183c0.6413,0.38097 1.12692,1.24055 1.56435,2.15034c0.24184,0.50299 0.86974,1.47612 1.59299,1.9395c0.76778,0.49191 1.40324,0.66324 2.28534,1.13116c0.8951,0.47482 1.45129,0.82176 2.367,1.51199c0.70107,0.52844 1.29752,1.13986 1.87616,1.70917c0.71382,0.7023 1.20706,1.21843 1.77451,1.60417c1.16161,0.78964 1.89056,0.78416 2.88266,1.07483c0.81972,0.24016 1.40485,0.5703 2.40451,1.08301c0.63461,0.32547 1.56241,0.86176 2.35266,1.34816c0.56384,0.34705 1.12653,0.73576 2.34267,1.32584c0.5863,0.28447 1.47002,0.59593 2.53349,1.0215c0.71356,0.28555 1.33871,0.62608 2.3665,0.87883c0.76926,0.18916 1.82149,0.52954 2.27934,1.142c0.57785,0.77298 1.04166,1.4375 1.842,1.85783l0.8175,0.14667l0.79999,0.40001" id="svg_12" stroke-width="2" stroke="#000" fill="none"/>
  <path t="66141,66965,66965,66985,66985,67009,67032,67032,67034,67034,67048,67065,67082,67098,67115,67116,67116,67131,67148,67149,67165,67166,67181,67182,67182,67198,67199,67215,67231,67232,67248,67249,67249,67249,67265,67266,67266,67280,67281,67298,67298,67299,67299,67315,67316,67317,67355,67355,67355,67356,67356,67356,67396,67396,67396,67398,67398,67398,67398,67437,67437,67437,67437,67473,67473,67473,67473,67473,67473,67473,67473,67475,67475,67475,67475,67475,67509,67510,67510,67510,67511,67511,67511,67560,67561,67561,67561,67561,67594,67594,67594,67594,67594,67594,67594,67595,67595,67596,67596,67596,67596,67632,67632,67632,67632,67670,67670,67670,67670,67670,67670,67670,67671,67672,67672,67672,67672,67708,67708,67708,67709,67709,67710,67744,67744,67746,67746,67746,67782,67782,67782,67817,67817,67817,67818,67818,67818,67818,67819,67819,67820,67820,67854,67854,67854,67856,67856,67890,67890,67890,67892,67892,67892,67927,67927,67928,67962,68115,68153,68154,68155,68156,68194,68195,68197,68197,68223,68223,68224,68225,68225,68249,68250,68250,68251,68251,68274,68274,68274,68297,68298,68298,68300,68300,68322,68323,68323,68346,68346,68369,68370,68370,68392,68393,68416,68416,68416,68440,68442,68442,68443,68443,68470,68471,68471,68472,68501,68531,68531,68567,68568,68847,69031,69031,69065,69098,69126,69126,69165,69165,69193,69248,69281,69281,69309,69309,69347,69375,69375,69417,69420,69420,69448,69475,69515,69581,69581,69608,69609,69639,69668,69698,69698,69797,69825,69825,69854,69856,69856,69884,69886,69886,69886,69915,69915,69918,69918,69918,69943,70047,70075,70105,70105,70105,70135,70135,70135,70137,70137,70166,70167,70169,70169,70193,70220,70220,70220,70222,70222,70248,70248,70251,70251,70276,70276,70302,70302,70304,70331,70331,70333,70334,70358,70359,70385,70385,70387,70387,70413,70413,70439,70439,70465,70492,70492,70494,70494,70521,70521,70551,70551,70553,70553,70582,70583,70610,70611,70639,70639,70640,70642,70642,70642,70669,70669,70671,70671,70672,70709,70709,70709,70712,70739,70739,70741,70741,70741,70768,70768,70770,70770,70770,70800,70800,70801,70803,70803,70830,70831,70858,70858,70858,70884,70885,70912,70912,70912,70914,70917,70918,70920,70920,70950,70950,70952,70952,70980,70980,70984,71014,71015,71057,71057,71060,71093,71093,71096,71147,71148,71214,71397,71398" d="m370,144c-0.16666,-0.16667 -1.13043,-0.4079 -1.66666,-1.16667c-0.40558,-0.57391 -0.53806,-1.6622 -1.4335,-1.8335c-0.77573,-0.14839 -1.53455,-0.39859 -2.41583,-0.71584c-0.92606,-0.33336 -1.6347,-0.74065 -2.13135,-1.39383c-0.49557,-0.65176 -0.83194,-1.62535 -1.62866,-1.82883c-0.65393,-0.16701 -1.43893,-0.6292 -2.09018,-1.35684c-0.4913,-0.54893 -1.6488,-0.60379 -2.38315,-0.76584c-0.93433,-0.20618 -1.55798,-0.82729 -2.13333,-1.45599c-0.57159,-0.6246 -1.27625,-1.07976 -2.23199,-1.39867c-0.87283,-0.29126 -1.54193,-0.75104 -2.42834,-1.40533c-0.46353,-0.34216 -1.2673,-0.8728 -1.85968,-1.19467c-1.17413,-0.63797 -1.78363,-0.82997 -2.58298,-1.17949c-0.88052,-0.38502 -1.65625,-0.95198 -2.34769,-1.47117c-0.66818,-0.50173 -1.45856,-1.03525 -1.98398,-1.43467c-0.77084,-0.58597 -1.46594,-1.17086 -2.02103,-1.79867c-0.67871,-0.76765 -1.12381,-1.63438 -1.63098,-2.11466c-0.72687,-0.68832 -1.56747,-0.97787 -2.43335,-1.284c-0.89236,-0.31551 -1.80597,-0.58237 -2.36133,-0.87333c-1.11374,-0.5835 -1.56448,-1.08369 -2.21515,-1.828c-0.42554,-0.48679 -1.20425,-1.38091 -1.88486,-1.88133c-0.5387,-0.39607 -1.25235,-0.83636 -2.13599,-1.452c-0.53067,-0.36973 -1.10526,-0.78628 -1.716,-1.2345c-0.6373,-0.46771 -1.28525,-0.95136 -1.93201,-1.4415c-0.63721,-0.48289 -2.35385,-1.82171 -2.82315,-2.20467c-0.41986,-0.34262 -1.11728,-0.94923 -1.95901,-1.66801c-0.73114,-0.62432 -1.25809,-1.01065 -2.04898,-1.618c-0.51471,-0.39526 -1.37836,-1.2 -1.88083,-1.8c-0.5025,-0.60001 -1.39532,-1.41582 -2.02951,-1.8135c-0.74518,-0.46728 -1.18835,-0.69122 -2.15582,-1.2425c-1.1235,-0.6402 -1.74054,-1.00638 -2.388,-1.39466c-0.66922,-0.40134 -1.34692,-0.81425 -2.02502,-1.2285c-0.66858,-0.40843 -1.31558,-0.80744 -1.935,-1.1835c-1.57495,-0.95617 -2.37656,-1.39732 -2.98166,-1.79567c-0.73349,-0.48286 -1.30804,-1.10138 -1.98901,-1.81367c-0.53815,-0.5629 -0.83597,-0.90105 -2.13599,-1.728c-0.51233,-0.3259 -1.09772,-0.6121 -2.35199,-1.18933c-0.64487,-0.29678 -1.29669,-0.57314 -1.93201,-0.8535c-0.61264,-0.27036 -2.19644,-1.01974 -2.604,-1.27184c-1.0119,-0.6259 -1.48358,-1.08228 -2.31216,-1.88517c-0.60947,-0.59056 -0.99103,-1.03131 -1.96649,-1.6335c-0.75076,-0.46348 -1.59409,-0.70937 -2.5,-1.16666c-0.70157,-0.35414 -1.66339,-0.85476 -2.33868,-0.94733c-0.74112,-0.10161 -1.87439,-0.234 -2.578,-0.636c-0.46655,-0.26656 -1.41443,-0.92033 -2.32199,-1.46999c-0.51392,-0.31126 -1.05939,-0.62995 -2.17868,-1.30667c-0.5582,-0.33748 -1.11417,-0.6481 -2.50867,-1.59666c-0.38678,-0.26309 -0.99414,-0.81754 -1.84198,-1.32c-0.944,-0.55944 -1.78525,-0.62971 -2.55551,-0.7715c-1.05084,-0.19344 -1.63968,-0.60249 -2.55249,-1.052c-0.69357,-0.34155 -1.52896,-0.55398 -2.31451,-1.22117c-0.70166,-0.59593 -0.94736,-1.28822 -1.7955,-1.917c-0.64392,-0.47739 -1.69171,-0.74756 -2.34732,-1.26167c-0.63815,-0.5004 -1.48534,-0.5 -2.21066,-0.5c-0.98933,0 -1.78934,0 -2.78934,0c-0.97917,0 -1.83333,0 -2.66133,0c-0.8815,0 -1.8595,0 -2.65601,0c-0.99733,0 -1.87199,0 -2.68266,0c-0.8,0 -1.60001,0 -2.60451,0c-0.85266,0 -1.81699,0 -2.63148,0c-0.86852,0 -2.06367,0 -2.65501,0c-0.83699,0 -1.96632,0 -2.75966,0c-0.89217,0 -1.87016,0 -2.66667,0c-0.99866,0 -1.68266,0 -2.84933,0c-0.78149,0 -1.57199,0 -2.5,0c-0.83333,0 -1.87599,0 -2.584,0c-0.98132,0 -1.9395,0 -2.916,0c-0.65866,0 -1.66666,0 -2.52882,0c-0.84618,0 -1.84717,0 -2.55518,0c-0.98132,0 -1.9395,0 -2.916,0c-0.65866,0 -1.66666,0 -2.52882,0c-0.94051,0 -1.84093,-0.23785 -2.59467,0.05717c-0.82263,0.32198 -0.77454,1.46603 -0.70717,2.4255c0.0571,0.81319 0.70149,1.45757 1.51466,1.51466c0.95947,0.06737 1.91339,-0.05978 2.804,0.22401c0.69902,0.22274 1.77864,0.4086 2.392,0.86266c0.75816,0.56126 1.21506,1.35308 1.276,2.10133c0.07535,0.92503 0.48508,1.58433 1.16,1.84c0.89401,0.33866 1.46129,0.96807 2.37149,0.97467c0.96182,0.00697 1.94652,-0.02303 2.36934,0.70533c0.37741,0.65013 0.66208,1.71557 1.3315,2.17317c0.78658,0.53769 2.00874,-0.25198 2.60767,0.40683c0.56001,0.616 0.17067,1.6 0.17067,2.54c0,1.008 -0.0074,1.78629 0.436,2.596c0.51503,0.94052 0.88222,1.57619 1.12799,2.328c0.29707,0.90872 0.36568,1.78204 0.87868,2.572c0.47829,0.7365 0.84911,1.2915 1.5365,2.137c0.53537,0.65852 1.44202,0.97744 2.1875,1.70833c0.49306,0.4834 1.05226,1.00908 1.66666,1.83334c0.57373,0.76971 0.83823,1.41251 1.36801,2.39733c0.30585,0.56856 1.1123,1.38487 1.79866,1.58183c0.96895,0.27806 1.52272,0.70866 2.3045,1.31634c0.80231,0.62363 1.56236,0.59073 2.29683,0.87383c1.05219,0.40557 1.59068,0.96916 2.15617,1.80917c0.45987,0.68311 1.08289,1.25321 1.76332,1.50066c1.12711,0.40989 2.12828,0.42829 2.42201,1.23067c0.27826,0.7601 0.045,1.91294 0.90916,2.20617c0.61876,0.20996 1.7762,0.15502 2.19167,0.84566c0.48767,0.81066 0.64037,1.667 1.44032,2.353c0.63617,0.54555 1.55405,0.92441 2.10535,1.52133c0.57985,0.62784 0.77928,1.53936 1.73183,2.12116c0.59264,0.36198 1.48338,0.64566 1.96417,1.44417c0.3591,0.5964 0.9834,1.47584 1.35065,1.97334c0.62735,0.84987 1.39676,1.25543 2.19736,1.82533c0.6759,0.48115 1.20773,1.36291 1.6875,1.97916c0.57944,0.7443 1.34137,0.83403 2.3125,1.1875c0.72672,0.26451 1.50357,0.82565 2.172,1.14234c0.74811,0.35445 1.71521,0.98572 2.18033,1.69183c0.4476,0.67952 0.93036,1.61577 1.5715,2.15717c0.57919,0.48909 1.05283,1.15022 1.64734,1.84116c0.76297,0.88672 1.39023,1.32059 2.11017,1.79817c0.73831,0.48978 1.66092,1.00143 2.31067,1.188c1.02496,0.2943 1.56314,0.87265 1.97333,1.61732c0.43011,0.78084 0.77762,1.6853 1.74399,2.15485c0.66235,0.32182 1.56143,0.25204 2.31451,0.90649c0.58777,0.51077 0.7579,1.42337 1.62549,2.084c0.72052,0.54865 1.33716,1.10851 1.51733,1.77283c0.31235,1.15175 0.6778,1.71933 1.409,2.17017c0.94785,0.5844 1.65555,0.73021 2.42435,1.47568c0.60724,0.58882 0.96609,1.34882 1.46216,2.07616c0.58423,0.85658 0.84515,1.59132 1.56583,2.16783c0.63229,0.50581 1.38382,1.24046 1.728,1.76401c0.61618,0.93727 1.13922,1.56493 1.89468,2.024c0.66769,0.40575 1.88428,0.46867 2.39465,1.24417c0.41608,0.63222 0.28098,1.83295 1.008,2.27049c0.68256,0.41078 1.93085,0.39326 2.10434,1.04834c0.26962,1.01808 0.17566,1.905 0.81033,2.23566l0.95584,0.00267l0.89099,0.0045l0.7825,0.08083" id="svg_13" stroke-width="2" stroke="#000" fill="none"/>
  <path t="73424,73996,74014,74014,74014,74029,74047,74047,74047,74064,74064,74064,74064,74080,74080,74080,74097,74098,74098,74114,74114,74114,74114,74130,74131,74131,74146,74146,74146,74164,74164,74164,74164,74181,74182,74182,74196,74196,74196,74196,74222,74222,74248,74248,74248,74251,74251,74275,74276,74276,74276,74300,74300,74301,74301,74302,74323,74323,74323,74346,74346,74346,74348,74348,74370,74370,74370,74370,74370,74392,74392,74392,74392,74392,74415,74415,74415,74415,74417,74417,74417,74417,74440,74440,74440,74462,74462,74462,74463,74485,74485,74485,74485,74510,74510,74510,74510,74536,74536,74536,74561,74561,74561,74563,74563,74563,74564,74564,74564,74566,74567,74567,74592,74593,74593,74593,74621,74621,74621,74623,74623,74623,74650,74650,74650,74651,74651,74652,74678,74678,74703,74703,74730,74730,74730,74731,74732,74763,74764,74764,74805,74805,74835,74864,74864,74914,75046,75114,75729,75757,75758,75785,75812,75812,75979,76008,76008,76009,76038,76038,76038,76038,76040,76040,76067,76067,76067,76069,76069,76069,76098,76098,76099,76101,76101,76127,76127,76127,76154,76155,76181,76181,76207,76207,76209,76209,76210,76210,76233,76234,76235,76235,76258,76259,76282,76285,76285,76285,76308,76332,76332,76334,76334,76479,76480,76480,76515,76516,76519,76545,76546,76546,76573,76573,76599,76599" d="m317,233c3.95734,-2.28534 4,-1.45734 4,-0.5c0,0.73199 0.0065,1.84935 0,2.83333c-0.00452,0.68105 0.01981,1.51218 -0.33334,2.66667c-0.18823,0.61536 -0.68381,1.48135 -1.01849,2.04283c-0.61984,1.0399 -1.03235,1.72235 -1.34366,2.40984c-0.43311,0.95645 -0.70203,1.78867 -0.94049,2.358c-0.50314,1.20123 -0.8407,1.79228 -1.18936,2.37866c-0.51132,0.85992 -1.02853,1.6326 -1.41748,2.358c-0.4783,0.89206 -0.84351,1.87961 -1.06616,2.40083c-0.34174,0.79993 -0.99484,1.75839 -1.69635,2.24651c-0.71628,0.4984 -1.33566,0.67793 -2.02533,1.57599c-0.54324,0.70743 -0.68582,1.35413 -1.2905,2.52917c-0.31091,0.60422 -0.70624,1.155 -1.1095,2.01483c-0.45755,0.97556 -0.50793,1.92563 -1.01199,2.88535c-0.33737,0.64236 -0.94995,1.15314 -1.39069,2.19998c-0.24393,0.57938 -0.63733,1.62891 -1.22916,2.20001c-0.43774,0.42242 -1.25357,0.92566 -1.96552,1.80133c-0.46848,0.5762 -0.79736,1.7666 -0.92831,2.54684c-0.1329,0.7919 -0.49747,1.77255 -1.10168,2.24197c-0.62369,0.48453 -1.55096,0.92203 -1.84467,1.64584c-0.29547,0.72824 -0.42929,1.79047 -0.78,2.436c-0.5943,1.0939 -1.09082,1.69409 -1.55731,2.39999c-0.24274,0.36731 -0.78445,1.0997 -1.26001,2.328c-0.30212,0.7803 -0.41455,1.5986 -0.504,2.39999c-0.08917,0.7988 -0.1972,2.00372 -0.35767,2.7955c-0.1597,0.78806 -0.35614,1.56464 -0.80499,2.63785c-0.28955,0.69229 -0.6517,1.32413 -1.18066,2.20499c-0.47971,0.79883 -0.87885,1.52518 -1.31403,2.18701c-0.63544,0.96637 -1.12231,1.44577 -1.81781,2.2955c-0.47003,0.57428 -1.08087,1.45898 -1.35834,2.38367c-0.18176,0.60571 -0.19479,1.27167 -0.60516,2.61667c-0.22559,0.73935 -0.56766,1.4538 -0.85202,2.16898c-0.38608,0.97101 -0.56317,1.80893 -0.75598,2.52451c-0.33005,1.22498 -0.63257,1.75015 -1.13467,2.52402c-0.61606,0.94949 -1.17538,1.39307 -1.52802,2.22931c-0.32166,0.76282 -0.25586,1.57724 -0.37067,2.43469c-0.16101,1.20251 -0.29956,1.82181 -0.73483,2.64017c-0.4429,0.83273 -1.18207,1.50507 -1.68115,1.93631c-0.72562,0.62695 -1.54578,1.40985 -1.97916,2.02084c-0.41833,0.58975 -1.02829,1.38226 -1.5,2.02084c-0.47733,0.64618 -0.87616,1.66049 -1,2.5c-0.12939,0.87708 -0.20654,1.78833 -0.45685,2.65784c-0.23526,0.81729 -0.72708,1.87955 -1.164,2.39999c-0.65244,0.77716 -1.17429,1.22284 -1.884,2.18933c-0.34988,0.4765 -0.84363,1.24139 -1.49448,2.08917c-0.48624,0.63333 -1.10147,1.47708 -1.54236,2.14282c-0.34882,0.5267 -1.22659,1.12454 -1.90982,1.79868c-0.63666,0.6282 -0.37177,1.72318 -0.6265,2.49149c-0.25775,0.77744 -0.51651,1.43881 -0.97885,2.27383c-0.36047,0.65103 -1.72421,0.17197 -2.39465,0.60666c-0.71414,0.46301 -0.22778,1.76605 -0.6265,2.46768c-0.31274,0.55035 0.3905,0.36166 1.32916,0.36166c0.54932,0 1.728,0 2.6235,0c0.8685,0 1.41916,0 2.65182,0c0.67801,0 1.87399,0 2.67801,0c0.82199,0 1.85977,0.06754 2.54932,-0.03201c0.92691,-0.13382 1.66217,-0.61221 2.44,-1.24399c0.53513,-0.43466 1.38626,-1.37189 2.13467,-1.616c0.94113,-0.30695 1.65936,-0.06668 2.39999,-0.14401c1.11716,-0.11667 1.83347,-0.63486 2.73468,-0.87997c0.67474,-0.18353 1.59891,-0.44299 2.32584,-0.73135c0.92465,-0.36679 1.6907,-0.31158 2.85681,-0.35266c0.7923,-0.02792 1.46509,-0.6272 1.96933,-1.14932c0.75571,-0.78247 1.5863,-0.73492 2.47867,-1.13467c0.73831,-0.33075 1.56351,-0.7157 2.42801,-0.93735c0.71371,-0.18298 1.67325,-0.57877 2.64749,-0.7215c0.96783,-0.14178 1.63614,-0.01346 2.64319,-0.05716c0.83035,-0.03604 1.71246,-0.43729 2.41733,-0.85068c0.74734,-0.43832 1.58441,-1.00717 2.44034,-1.14032c0.84106,-0.13083 1.85263,-0.22699 2.55966,-0.43433c0.74503,-0.21848 1.78,-0.48935 2.63199,-0.57333l0.94269,-0.00134l0.69064,0" id="svg_14" stroke-width="2" stroke="#000" fill="none"/>
  <path t="77173,77529,77546,77546,77546,77546,77563,77564,77564,77564,77580,77580,77580,77596,77596,77596,77615,77615,77615,77631,77631,77631,77647,77647,77647,77648,77666,77666,77666,77682,77683,77683,77697,77697,77713,77713,77713,77729,77729,77730,77746,77746,77746,77763,77763,77763,77764,77778,77779,77796,77796,77796,77813,77814,77814,77828,77828,77829,77846,77846,77846,77847,77863,77863,77879,77879,77879,77896,77896,77896,77913,77913,77913,77930,77930,77946,77946,77963,77963,77978,77979,77979,77979,77996,77996,78013,78013,78014,78028,78029,78029,78046,78046,78047,78063,78063,78079,78079,78079,78095,78095,78095,78113,78113,78114,78129,78129,78129,78146,78146,78147,78163,78163,78164,78179,78179,78179,78179,78195,78195,78195,78223,78223,78239,78239,78239,78254,78254,78254,78269,78284,78285,78298,78298,78313,78313,78330,78330,78330,78345,78345,78363,78363,78364,78378,78379,78395,78395,78413,78413,78431,78431,78431,78449,78467,78484,78484,78529,78530,78579,78596,78596,78614,78614" d="m384,213c3.27466,-1.74667 2.672,-0.99406 1.99466,-0.39101c-0.49084,0.43701 -1.29901,1.11412 -1.85165,2.03368c-0.38104,0.634 -0.60471,1.35622 -0.83401,2.052c-0.41541,1.26035 -0.66672,2.07542 -1.12332,2.69633c-0.64484,0.87685 -1.18475,1.21277 -1.935,1.77299c-0.90985,0.67943 -1.47879,1.05228 -1.99884,1.64583c-0.79755,0.91026 -1.10178,1.44733 -1.59915,2.29916c-0.51175,0.87648 -0.77936,1.48479 -1.13184,2.37018c-0.33087,0.83107 -0.69467,1.84944 -1.04169,2.5c-0.33829,0.63419 -0.96317,1.42082 -1.47916,2.02083c-0.51599,0.60001 -1.27039,1.59015 -1.58932,2.23599c-0.45044,0.91211 -0.66745,1.73393 -1.04666,2.50267c-0.47293,0.95872 -1.06174,1.40829 -1.71133,2.06667c-0.68188,0.69107 -1.03159,1.4608 -1.242,2.01601c-0.44232,1.16716 -0.69342,2.07846 -0.93152,2.63699c-0.33444,0.78452 -0.98615,1.54895 -1.65381,2.19234c-0.68311,0.65825 -1.0864,1.35129 -1.41467,2.13467c-0.43503,1.03812 -0.73984,1.74962 -0.97467,2.43999c-0.31531,0.92696 -0.32343,1.74612 -0.53333,2.58534c-0.30469,1.21812 -0.73914,1.79832 -1.17868,2.368c-0.43301,0.56122 -1.33496,1.43596 -1.68234,2.32133c-0.31375,0.79965 -0.44778,1.76892 -0.68832,2.24933c-0.58078,1.15997 -1.22211,1.55463 -1.70065,2.056c-0.85016,0.89072 -1.0582,1.43909 -1.29102,2.24649c-0.35815,1.24213 -0.34433,1.92728 -0.36166,2.94818c-0.0134,0.78931 -0.11411,1.86472 -0.54166,2.52084c-0.55963,0.85883 -1.11057,1.48483 -1.45834,1.97916c-0.51532,0.73248 -1.17114,1.49265 -1.6955,2.30533c-0.45609,0.70688 -0.68024,1.47226 -1.06168,2.24649c-0.51773,1.05084 -1.07153,1.70947 -1.41748,2.13751c-0.81174,1.00433 -1.20197,1.60394 -1.62402,2.41068c-0.41516,0.79358 -0.79987,1.62613 -1.36798,2.39999c-0.45694,0.62244 -1.04819,1.16855 -1.66669,2c-0.43427,0.5838 -0.85263,1.4465 -1.04565,2.42117c-0.15582,0.78677 -0.13266,1.67896 -0.78516,2.43616c-0.51797,0.60107 -1.4465,0.83536 -2.19284,1.68552c-0.56677,0.6456 -0.71356,1.24579 -1.14301,2.2905c-0.29443,0.71631 -0.71323,1.61395 -1.10016,2.58817c-0.21161,0.53281 -0.51688,1.39752 -0.78519,1.97983c-0.55972,1.21469 -0.91898,1.79135 -1.46198,2.58432c-0.60803,0.88797 -1.18842,1.48154 -1.65268,2.34769c-0.34854,0.65024 -0.53702,1.48087 -1.16666,2.33331c-0.42062,0.56946 -1.40024,1.04526 -1.8125,1.85419c-0.37976,0.74518 -0.56384,1.69913 -1.121,2.45764c-0.48102,0.65488 -1.28506,1.03882 -1.879,1.56317c-0.78604,0.69394 -0.95416,1.45978 -1.01184,2.453c-0.06015,1.03568 -0.02853,1.82037 -0.29434,2.77335c-0.20657,0.74066 -0.48364,1.48138 -1.01016,2.42215c-0.39532,0.70639 -0.57416,1.48923 -0.81433,2.21436c-0.34454,1.04028 -1.0123,1.52408 -1.55682,2.59549c-0.28748,0.56564 -0.15939,1.53427 -0.35419,2.47916c-0.1796,0.87122 -0.82013,1.68591 -0.95383,2.34619c-0.20364,1.00571 -0.75674,1.70306 -0.96817,2.47916c-0.26764,0.98248 -0.12915,1.83417 -0.62515,2.52615l-0.72668,0.2175" id="svg_15" stroke-width="2" stroke="#000" fill="none"/>
  <path t="82673,82874,82874,82875,82875,82875,82893,82893,82893,82893,82893,82926,82926,82926,82926,82926,82926,82926,82927,82927,82927,82927,82927,82960,82960,82960,82960,82960,82961,82961,82962,82992,82992,82993,83020" d="m291,148c7.03568,-0.00017 8.03305,-0.00099 8.50266,-0.01067c0.90149,-0.01859 1.78149,-0.04955 3.11902,-0.211c0.46613,-0.05627 1.42728,-0.21387 2.42499,-0.425c0.51627,-0.10925 2.12076,-0.51724 2.6745,-0.67467c0.56229,-0.15987 1.69373,-0.5033 2.258,-0.67867c0.55972,-0.17397 1.6499,-0.52136 2.6875,-0.83333c0.96118,-0.28899 1.86337,-0.54578 2.29169,-0.6875c0.83676,-0.27689 2.05203,-0.79395 2.83899,-1.24583c0.79221,-0.45491 1.14758,-0.73457 1.88834,-1.17084c1.24979,-0.73605 2.0441,-0.95703 2.70532,-1.10617c1.01056,-0.22794 1.77301,-0.53099 2.72235,-0.87233l0.80264,-0.368" id="svg_16" stroke-width="2" stroke="#000" fill="none"/>
  <path t="84712,84840,84840,84871,84871,84871,84906,84906,84906,84906,84907,84907,84907,84909,84909,84909,84940,84940,84969,84969,84969,85001,85001,85056,85056,85090,85090,85123,85153,85153,85153,85184,85184,85184,85186,85186,85186,85186,85217,85218,85218,85218,85219,85219,85249,85249,85249,85251,85251,85278,85279,85280,85280,85280,85308,85308,85308,85309,85309,85339,85340,85473,85473,85523,85989,85990,86040,86071,86071,86104,86104,86149,86178,86180,86180,86180,86209,86209,86209,86236,86237,86237,86237,86237,86237,86237,86237,86237,86265,86266,86266,86266,86266,86266,86266,86266,86268,86268,86268,86268,86296,86297,86297,86297,86298,86298,86327,86327,86327,86328,86328,86329,86329,86357,86358,86358,86359,86360,86360,86360,86387,86388,86388,86415,86415,86415,86415,86445,86445,86445,86445,86474,86474,86474,86475,86475,86475,86476,86477,86477,86477,86478,86478,86479,86479,86508,86508,86509,86509,86537,86537,86537,86567,86568,86597,86597,86626" d="m305,149c-2.60449,1.89017 -3.46609,2.00423 -4.42151,2.22166c-0.82391,0.1875 -1.41003,0.37962 -2.57849,0.94501c-0.61047,0.29539 -1.48853,0.84073 -2.04285,1.23782c-0.80457,0.57635 -1.49124,1.20114 -2.14648,1.75951c-0.80017,0.68185 -1.37744,1.13336 -2.1535,1.47433c-0.88165,0.38737 -1.65372,0.58163 -2.42517,1.215c-0.50134,0.41159 -1.22778,1.14471 -1.89865,1.81334c-0.66245,0.66023 -1.44669,1.24858 -1.89734,1.96933c-0.48651,0.77806 -0.63724,1.73636 -0.427,2.60683c0.22556,0.93387 1.03683,1.28654 1.67899,1.47183c0.97809,0.28223 1.85703,0.24446 2.71335,0.54001c0.93359,0.32224 1.49649,0.81279 2.11951,1.24533c0.95447,0.66266 1.99066,1.17538 2.72281,1.32851c0.70764,0.14799 1.38986,0.1326 2.703,0.17282c0.69391,0.02126 1.59653,0.21825 2.55334,0.49867c0.73239,0.21466 1.69318,0.47025 2.46799,0.49867c1.04114,0.03819 1.81738,-0.00533 2.86536,0.00133c0.70953,0.0045 1.6225,-0.00024 2.56534,0.56934c0.62946,0.38025 1.05109,1.02098 1.85315,1.66899c0.66934,0.54077 1.75256,0.72342 2.4975,0.75101c0.91675,0.03395 1.82935,0.01067 2.77151,0.01067c0.80048,0 1.65381,0 2.59381,0c0.9855,0 1.77069,0 2.71069,0c0.69064,0 1.76398,0 2.59598,0c0.91202,0 1.82935,0.00142 2.57333,0c1.04935,-0.002 1.69534,-0.04892 2.32516,-0.17149c1.52023,-0.29587 2.21542,-0.49211 3.00818,-0.68051c0.86493,-0.20555 1.78226,-0.42564 2.7345,-0.64799c0.96643,-0.22568 1.92807,-0.44933 2.86951,-0.64799c1.73187,-0.36549 2.49487,-0.49503 3.18533,-0.59601c0.62439,-0.09132 1.19415,-0.15419 1.716,-0.1935c0.48093,-0.03622 1.35599,-0.05728 2.5665,-0.06267c0.79565,-0.00354 1.58093,0.00464 2.34299,-0.05699c1.44019,-0.11649 2.09656,-0.29129 3.0105,-0.5175c0.56064,-0.13876 1.79294,-0.38834 2.47202,-0.41467c1.19547,-0.04636 2.02228,-0.00439 2.62134,-0.04666c1.32315,-0.09335 2.03592,-0.24171 2.75732,-0.38934c0.69995,-0.14323 1.90137,-0.38124 2.72,-0.56c0.73361,-0.16019 1.72919,-0.586 2.37332,-0.86533c0.69711,-0.30231 1.40298,-0.64857 2.48117,-0.90634c0.97281,-0.23257 1.61069,-0.23233 2.8215,-0.243c0.90448,-0.00797 1.52084,0.00008 2.48532,0c1.03586,-0.00009 1.76331,0.00972 2.49384,-0.02083c1.05258,-0.04402 1.98172,-0.18726 2.77017,-0.40451c0.75961,-0.2093 1.89203,-0.47084 2.56052,-0.5175c1.07388,-0.07495 1.80753,-0.05093 2.86865,-0.05733c0.98553,-0.00595 1.61758,0.0161 2.8215,-0.1665c0.60315,-0.09148 1.47336,-0.35718 2.31467,-0.54933c0.99396,-0.22702 1.87463,-0.27866 2.88535,-0.284c0.79999,-0.00423 1.80417,0.06302 2.59998,-0.02133c0.8093,-0.08578 1.59869,-0.54666 2.36401,-1.12801l0.66934,-0.51733l0.75598,-0.34799l0.82135,-0.41068" id="svg_17" stroke-width="2" stroke="#000" fill="none"/>
  <path t="86979,87189,87190,87190,87207,87207,87207,87207,87226,87226,87226,87226,87245,87246,87246,87246,87246,87264,87264,87264,87265,87265,87265,87284,87284,87284,87284,87302,87303,87303,87303,87303,87320,87320,87320,87336,87337,87337,87353,87354,87354,87354,87370,87370,87370,87387,87387,87387,87387,87404,87404,87404,87420,87420,87420,87421,87437,87437,87437,87453,87453,87470,87470,87471,87487,87487,87488,87488,87504,87520,87537,87538,87538,87555,87555,87589,87590,87623,87623,87641,87856,87856,87874,87875,87895,87915,87915,87947,87947,87947,87950,87950,87950,87970,87970,87987,87987,87987,88004,88004,88021,88021,88021,88039,88039,88039,88056,88057,88074,88074,88091,88092,88109,88139,88140,89023,89023" d="m322,147c2.05466,-2.744 2.69449,-2.93254 3.75635,-2.9865c1.07568,-0.05466 1.75964,-0.0135 2.74365,-0.0135c0.65268,0 2.02158,0.00552 2.75717,-0.0045c0.76376,-0.01041 1.55096,-0.01846 2.74283,-0.16217c0.80444,-0.097 1.61362,-0.26813 2.436,-0.48c0.42279,-0.10892 1.73187,-0.51646 2.64801,-0.836c0.4693,-0.16368 1.41205,-0.5088 2.36331,-0.8075c0.4668,-0.14656 1.82831,-0.48721 2.6955,-0.60001c0.83405,-0.10849 1.65585,-0.12926 2.85718,-0.2765c0.80124,-0.09821 1.58902,-0.26033 2.36401,-0.40799c0.75034,-0.14296 1.81369,-0.31079 2.78931,-0.40001c0.59964,-0.05484 1.69656,-0.13925 2.39401,-0.38699c0.93268,-0.33131 1.8714,-0.9641 2.40982,-1.2865c0.56085,-0.33582 1.42065,-0.85658 2.34302,-1.10884c0.89359,-0.24438 1.85696,-0.23849 2.86649,-0.243c0.716,-0.00319 1.448,0 2.5235,0c0.9765,0 1.8045,0 2.56052,0c1.08267,0 2.05917,0 2.77017,0c0.73099,0 1.81262,0.01128 2.81299,-0.0045c0.60382,-0.00952 1.83688,-0.15167 2.5155,-0.42084c0.99017,-0.39276 1.66412,-0.53708 2.47198,-0.564c1.17807,-0.03925 1.776,-0.01067 2.63702,-0.01067c0.771,0 1.86966,0 2.85065,0c1.02435,0 1.69971,0.04134 2.44034,-0.036c1.11716,-0.11664 1.83939,-0.61366 2.73468,-0.88133c0.67593,-0.20209 1.60693,-0.67087 2.10532,-1.23201c0.68381,-0.76988 1.57867,-1.01392 2.23602,-1.276c1.0101,-0.40274 1.83163,-0.59016 2.22733,0.18701c0.42981,0.84418 0.54932,1.48097 1.26865,2.43849c0.47549,0.63298 1.07034,1.22859 1.51202,1.96651c0.45206,0.75525 0.76468,1.55966 1,2.5c0.2063,0.8244 0.38464,1.87697 0.59198,2.584c0.21848,0.74504 0.41608,1.80429 0.68451,2.55466c0.35992,1.0061 0.77991,1.4471 1.18484,2.30367c0.41266,0.87291 0.62787,1.77873 0.68399,2.619c0.06256,0.93683 0.02133,1.75117 0.02133,2.75734c0,0.72533 0,1.71449 0,2.49384c0,0.99933 0,2.02083 0,2.778l0,0.89549l0,0.86334" id="svg_18" stroke-width="2" stroke="#000" fill="none"/>
  <path t="104074,104439,104440,104457,104457,104471,104471,104471,104496,104496,104505,104505,104520,104536,104552,104553,104570,104570,104586,104587,104602,104603,104639,104719,104769,104769,104785,105285,105303,105319,105320,105336,105336,105369,105369,105370,105387,105402,105403,105403,105419,105420,105436,105468,105469,105486,105502,105520,105520,105536,105536,105552,105585,105585,105619,105636" d="m350,274c2.60001,0 3.60001,0 4.40134,0c0.83466,0 2.01984,0 2.81332,0c0.77551,0 1.81601,0.00177 2.53351,0c0.90451,-0.00226 1.7952,-0.02374 2.61584,-0.42532c0.87112,-0.4263 1.8114,-0.48694 2.46133,-0.59601c1.04062,-0.17465 1.35529,-1.0137 2.17465,-1.64532c0.65237,-0.5029 1.65268,-0.33334 2.34732,-0.33334c1.01669,0 1.95718,0 2.81934,0c0.83334,0 2.22876,0.56967 2.71167,-0.22134c0.37137,-0.60828 -1.04498,-0.77866 -1.87833,-0.77866c-0.97882,0 -1.80984,0 -2.76801,0c-0.73199,0 -1.46399,0 -2.58133,0c-0.98401,0 -1.65601,0 -2.64532,0c-1.03467,0 -1.80267,0 -2.64133,0c-1.01669,0 -1.71133,-0.00241 -2.72803,0c-0.94049,0.00226 -1.80264,0.16666 -2.63599,0.5c-0.83334,0.33334 -1.69864,0.58533 -1.97467,1.35068c-0.3187,0.88367 -0.91199,1.14667 -1.84,1.16l-0.9425,0.21066" id="svg_19" stroke-width="2" stroke="#000" fill="none"/>
  <path t="106355,106535,106535,106535,106554,106554,106554,106569,106570,106570,106585,106586,106602,106603,106603,106619,106619,106619,106636,106636,106668,106684,106701,107018,107018,107035,107036,107052,107069,107069,107070,107085,107086,107101,107102,107102,107119,107120,107120,107136,107136,107136,107151,107152,107169,107170,107185,107186,107201,107252,107253,107334,110035,110050,110084,110085,110101,110118,110118,110134,110134,110150,110151,110168,110186,110384,111351,111352,111417,111450,111451,111470,111500,111501,111550,111551,111568,111618,111900,112417,112467,112468,112484,112485,112500,112501,112501,112517,112534,112534,112534,112550,112551,112583,112584,112584,112600,112601,112617,112618,112634,112634,112651,112667,112668" d="m362,270c-3.59732,0.004 -4.51093,-0.08423 -5.22934,0.25601c-0.90353,0.42789 -1.1777,1.32254 -1.73865,1.892c-0.70139,0.71204 -1.55753,0.78326 -2.34933,0.93332c-1.23422,0.23392 -1.8786,0.51596 -2.88269,1.01883c-0.60403,0.30252 -1.41516,0.76541 -2.19998,1.38251c-0.61221,0.48135 -1.15488,1.06219 -2.1955,1.4075c-0.72501,0.24057 -1.61356,0.52197 -2.50433,0.98849c-0.75394,0.39484 -1.40509,0.84003 -2.0495,1.18268c-0.85776,0.45609 -0.78629,1.58047 0.02133,1.86667c1.06537,0.3775 1.93585,0.0228 2.728,0.15732c0.81265,0.138 1.57721,0.57834 2.60034,0.79318c0.82922,0.17413 1.57031,0.12082 2.76764,0.12149c0.68268,0.0004 1.38135,0 2.69867,0c0.819,0 1.51202,0 2.53336,0c0.79999,0 1.79999,0 2.58932,0c1.04401,0 1.79999,0 2.73151,0c0.96317,0 1.68188,-0.23837 2.7175,0.00449c0.76901,0.18036 1.20776,0.97751 2.08298,0.99551c0.85315,0.01755 1.91428,-0.22241 2.67868,0.33334c0.53424,0.38843 1.13449,1.43689 1.82535,1.59467c0.9852,0.22498 1.95282,-0.26358 2.73865,0.108c0.74091,0.35034 1.29684,0.94598 2.26935,0.96399c0.862,0.01596 1.70691,-0.04196 2.65067,0.284c0.70828,0.24463 1.677,0.50479 2.51599,0.88266c0.68896,0.3103 1.57941,0.51431 2.29016,0.94318c0.84302,0.50867 0.84952,1.63443 1.70984,1.89017c0.81461,0.24216 1.32291,0.89941 2.04166,0.97916c1.15149,0.12778 1.95834,0.02084 2.95834,0.02084c0.78934,0 1.51468,0 2.52084,0c1.02182,0 1.72983,0 2.47382,0c1.03735,0 1.97339,-0.00974 2.77469,0.00134c0.75168,0.01038 1.56552,0.01337 2.7735,0.35132c0.65826,0.18414 1.65271,0.5679 2.43631,0.6265c0.99677,0.07455 1.81952,0.02084 2.65683,0.02084l1.01669,0l0.69464,0" id="svg_20" stroke-width="2" stroke="#000" fill="none"/>
  <path t="114037,114267,114267,114283,114284,114284,114284,114284,114300,114300,114301,114301,114317,114317,114317,114318,114318,114333,114334,114334,114334,114334,114350,114350,114350,114350,114351,114367,114367,114367,114383,114384,114384,114400,114400,114400,114418,114450,114450,114450,114517,114517,114900,114900,115083,115150,115233,115233,115267,115268,115283,115317,115383,115383,115400,115400" d="m363,270c3.55182,-0.95184 4.27737,-1.00449 5.33334,-1.33334c0.64767,-0.20169 1.32883,-0.52618 2.052,-0.85199c0.73282,-0.33017 1.78525,-0.81543 2.79999,-1.17868c0.67087,-0.24014 1.38104,-0.44641 2.5575,-0.73615c0.86493,-0.21301 1.32108,-0.30026 2.24249,-0.53583c0.93472,-0.23898 1.85535,-0.51108 2.72934,-0.84933c0.85693,-0.33163 1.67703,-0.72052 2.48401,-1.116c0.80371,-0.39389 1.59515,-0.80621 2.39066,-1.17734c0.77014,-0.35928 1.50992,-0.70566 2.58884,-0.97867c0.9534,-0.24124 1.63181,-0.0885 2.67917,-0.68552c0.56116,-0.31985 1.05518,-1.15729 1.91068,-1.6705c0.69394,-0.41629 1.46347,-0.60223 2.57065,-0.86133c0.82761,-0.19366 1.66913,-0.56436 2.26266,-0.74133c0.98141,-0.29263 1.79868,-0.28174 2.79736,-0.284c0.94415,-0.00211 1.84415,0 2.80264,0c0.96533,0 1.62402,0 2.63202,0c0.86215,0 1.76666,0 2.6875,0c0.80048,0 1.65381,0 2.5965,0l0.85199,0" id="svg_21" stroke-width="2" stroke="#000" fill="none"/>
  <path t="115576,115750,115750,115750,115767,115768,115768,115768,115768,115783,115783,115783,115783,115800,115800,115800,115817,115817,115817,115835,115835,115835,115835,115850,115850,115850,115850,115867,115867,115883,115884,115884,115884,115900,115900,115900,115917,115918,115918,115933,115933,115949" d="m417,259c2.74399,4.51599 2.93268,5.17157 2.98651,6.15268c0.05557,1.01254 0.01349,1.73267 0.01349,2.48331c0,0.77469 0,1.56534 0,2.76385c0,0.79565 0,1.57932 0,2.34299c0,1.43552 0,2.09552 0,3.0105c0,1.08002 0,1.79849 0,2.7565c0,0.82352 0,1.80002 0,2.51102c0,0.73099 0,1.8125 0,2.8175c0,0.91498 0.02524,1.47531 -0.00449,2.71347c-0.01706,0.70999 -0.14465,1.7851 -0.28217,2.41617c-0.22635,1.03867 -0.40765,1.75757 -0.88,2.69867c-0.42722,0.85117 -1.0423,1.48566 -1.66669,2.33334c-0.42932,0.58286 -0.72,1.20001 -1.04532,2.19968l-0.14667,0.92831l-0.33633,0.75769" id="svg_22" stroke-width="2" stroke="#000" fill="none"/>
 </g>
 <g display="none">
  <title>muse_image</title>
  <image xlink:href="http://farm1.static.flickr.com/126/321905068_1e40f372e0.jpg" id="muse" height="395" width="640" y="42.5" x="0"/>
 </g>
 <g display="none">
  <title>bbox</title>
  <rect stroke="#f00" fill="none" stroke-width="3" height="276.1165" width="390.4" y="98.74595" x="125.44" id="bbox"/>
 </g>
</svg>
