<svg width="640" height="480" xmlns="http://www.w3.org/2000/svg" xmlns:svg="http://www.w3.org/2000/svg" xmlns:xlink="http://www.w3.org/1999/xlink">
 <!-- Sketchy ANNOTATION
  ImageNet ID: n02691156_11257
  URL: http://farm4.static.flickr.com/3239/2337490984_291b01312b.jpg
  Image Width: 500
  Image Height: 361
  BBox X: 22
  BBox Y: 130
  BBox Width: 455
  BBox Height: 150
  Exposure: 2000ms
  Synset Label: airplane
  Synset ID: n02691156
  Worker Tag: small twin engine plane
  Sanity Check: 
   Context
   Saved
   Shading
  Comment: 
   {}
  Worker ID: A2JP8W265WCC35
  Assignment ID: 3R8YZBNQ9HI7IPZ7UTINJJDROI0Q7L
  HIT ID: 36MUZ9VAE62WFBCIMDL70A3OR0QEDB
  Work Time: 39s
  Worker Score: 0.6000
 END ANNOTATION -->
 <g display="inline">
  <title>Layer 1</title>
  <path t="0,76,76,91,91,91,115,115,115,115,115,115,116,131,131,131,131,131,131,131,131,155,155,155,155,155,155,155,155,155,171,171,171,171,171,171,171,171,171,194,194,194,195,195,195,195,195,195,211,211,211,211,211,211,211,211,211,235,235,235,235,235,235,235,235,235,250,250,251,251,251,251,251,251,251,274,275,275,275,275,275,275,275,275,291,291,291,291,291,291,291,291,291,315,315,316,316,316,316,316,316,316,333,334,334,334,334,334,334,334,334,355,355,355,355,355,355,355,355,355,371,371,371,371,371,371,372,372,372,389,389,389,389,389,389,389,389,410,411,411,411,411,411,411,411,411,426,427,427,427,427,427,427,427,427,450,451,451,451,451,451,451,452,452,466,467,467,467,467,467,467,467,467,490,490,491,491,491,491,491,492,492,507,507,507,507,507,507,507,507,507,530,531,531,531,531,531,531,531,547,547,547,547,547,547,548,570,571,571,571,571,571,587,587,587,587,587,611,611,611,611,627,627" d="m187,300c1.84666,-0.97467 2.69275,-1.05576 3.68933,-1.28534c0.5827,-0.13425 1.58308,-0.43442 2.81067,-0.71466c0.46338,-0.10577 1.47551,-0.30267 2.01866,-0.39999c1.14833,-0.20572 1.75175,-0.30154 2.37067,-0.39999c1.27686,-0.20313 1.93202,-0.30215 3.27234,-0.5c0.68484,-0.1011 1.37991,-0.20068 2.08501,-0.30002c0.7149,-0.10071 1.43974,-0.20178 2.92,-0.39999c0.75487,-0.10107 1.5201,-0.20053 2.295,-0.3045c0.78511,-0.10535 1.58032,-0.21411 2.38499,-0.33148c0.81534,-0.11893 1.64192,-0.2381 3.32001,-0.53067c0.85602,-0.14926 1.72078,-0.31619 2.595,-0.495c0.88579,-0.18115 1.78082,-0.37637 2.685,-0.58502c0.91585,-0.21133 1.84259,-0.42993 3.72,-0.91998c0.95602,-0.24954 1.91769,-0.51599 2.886,-0.78601c0.97304,-0.27133 1.94714,-0.548 2.922,-0.82199c0.97247,-0.27335 1.93889,-0.55051 3.85866,-1.05869c0.94383,-0.24985 1.87982,-0.48337 2.80501,-0.71399c0.91483,-0.22803 1.82053,-0.45053 2.715,-0.67801c0.88553,-0.22522 1.76463,-0.44238 3.48,-0.94131c0.84753,-0.24652 1.68181,-0.51456 2.50951,-0.78152c0.82164,-0.26501 1.63536,-0.53406 2.4465,-0.7905c0.80521,-0.25455 1.60255,-0.51767 3.21066,-0.92798c0.79684,-0.20331 1.59897,-0.36932 2.39999,-0.5235c0.799,-0.15381 1.59984,-0.28998 2.40001,-0.4245c0.79984,-0.13449 1.60225,-0.25555 3.2,-0.552c0.80103,-0.14862 1.59946,-0.315 2.39551,-0.49051c0.79465,-0.1752 1.58429,-0.36108 2.3685,-0.5535c0.77948,-0.19125 1.55173,-0.38657 3.06934,-0.78934c0.74603,-0.198 1.48401,-0.39987 2.21848,-0.60001c0.73355,-0.19986 1.46875,-0.401 2.2095,-0.60001c0.74823,-0.20102 1.50638,-0.40652 3.07202,-0.79999c0.80862,-0.20322 1.63538,-0.40128 2.4765,-0.59549c0.85089,-0.19647 1.71036,-0.38675 2.5755,-0.56851c0.86584,-0.18192 1.72992,-0.36209 3.448,-0.66934c0.84402,-0.15094 1.67981,-0.28384 2.505,-0.414c0.81479,-0.12851 1.62027,-0.25089 2.41498,-0.37799c0.78528,-0.12558 1.56305,-0.24277 3.08002,-0.54132c0.74625,-0.14685 1.47821,-0.3136 2.19598,-0.48602c0.70355,-0.16901 1.38782,-0.34549 2.052,-0.52197c0.64316,-0.1709 1.26086,-0.34311 2.41867,-0.65869c0.53546,-0.14597 1.04504,-0.28241 1.53299,-0.40948c0.46939,-0.12225 0.92505,-0.23752 1.371,-0.3465c0.43939,-0.10736 0.87665,-0.21252 1.76266,-0.41068c0.45514,-0.10178 0.92392,-0.20181 1.40851,-0.3045c0.50339,-0.10669 1.02911,-0.21582 2.15799,-0.45267c0.60959,-0.1279 1.93362,-0.40894 2.65283,-0.56433c0.75546,-0.16324 1.54276,-0.33533 2.358,-0.5145c0.83945,-0.18448 1.6987,-0.37451 2.57401,-0.56851c0.88736,-0.19666 2.68204,-0.5954 3.58185,-0.7955c0.89886,-0.19989 1.79575,-0.39957 2.68948,-0.59998c0.88992,-0.19958 1.77487,-0.39926 2.6535,-0.60001c0.87201,-0.19925 2.5907,-0.59924 3.436,-0.80002c0.83868,-0.19922 1.67294,-0.40021 2.5065,-0.59998c0.83545,-0.20023 1.67572,-0.40121 2.52451,-0.60001c0.85922,-0.20123 2.62329,-0.60098 3.5325,-0.80017c0.92279,-0.20215 1.85452,-0.40201 2.78699,-0.6105c0.92953,-0.20786 1.84949,-0.41934 2.75101,-0.64648c0.88251,-0.22235 2.55609,-0.70026 3.33368,-0.96417c0.74774,-0.25378 1.45938,-0.52621 2.142,-0.80402c0.66269,-0.26968 1.30157,-0.5488 1.92599,-0.82199c0.61288,-0.26816 1.81625,-0.79034 2.418,-1.03101c0.5983,-0.23929 1.19839,-0.46445 1.79999,-0.67499c0.59848,-0.20944 1.19861,-0.4046 1.80002,-0.58502c0.5986,-0.1796 1.79907,-0.49878 2.39999,-0.64032c0.59912,-0.14111 1.19977,-0.26962 1.79999,-0.396c0.59979,-0.12628 1.20251,-0.23929 2.39999,-0.50934c1.20264,-0.27124 1.80194,-0.42978 2.99551,-0.76868c0.59491,-0.16891 1.1835,-0.34784 1.76849,-0.52197c1.15036,-0.34238 2.26706,-0.6676 3.35068,-0.94c0.5271,-0.13251 1.56403,-0.36658 2.07465,-0.47467c1.00848,-0.21347 2.01099,-0.40912 3.00803,-0.61067c0.98163,-0.19846 1.4628,-0.29184 2.38834,-0.5c1.28357,-0.2887 2.04099,-0.49867 2.72098,-0.68933l0.87,-0.25351l1.05267,-0.27316l0.76801,-0.168" id="svg_1" stroke-width="2" stroke="#000" fill="none"/>
  <path t="2243,2323,2347,2347,2347,2363,2363,2363,2363,2363,2387,2387,2387,2387,2387,2387,2403,2403,2403,2403,2403,2403,2427,2427,2427,2427,2427,2427,2427,2427,2443,2443,2443,2443,2443,2443,2443,2443,2467,2467,2467,2467,2467,2467,2467,2467,2483,2483,2483,2483,2483,2483,2507,2507,2507,2507,2507,2507,2523,2523,2523,2523,2523,2523,2546,2546,2547,2547,2547,2547,2562,2562,2562,2563,2563,2587,2587,2587,2587,2587,2587,2602,2602,2602,2602,2602,2603,2626,2626,2626,2626,2626,2642,2642,2642,2642,2642,2658,2658,2658,2658,2682,2682,2682,2682,2682,2698,2698,2698,2698,2722,2722,2722,2722,2738,2740,2740,2740,2762,2762,2762,2762,2762,2778,2778,2778,2778,2802,2803,2803,2803,2819,2819,2819,2819,2842,2842,2842,2858,2859,2859,2882,2882,2883,2899,2899,2899,2899,2923,2923,2923,2938,2938,2939,2963,2963,2963,2963,2978,2979,2979,2979,3003,3004,3004,3004,3019,3020,3020,3020" d="m305,224c1.63599,0.61067 2.30045,1.14401 3.08334,1.5c0.75565,0.3436 1.77899,0.60895 2.58817,0.8c0.88873,0.20984 1.36002,0.30232 2.33249,0.5c0.99551,0.20236 1.99649,0.39894 2.496,0.5045c1.00104,0.21153 2.00211,0.44469 2.5,0.58083c1.50711,0.41211 2.00439,0.59503 3.02133,0.95067c0.52121,0.18228 1.59204,0.57121 2.14932,0.76534c1.16074,0.40433 1.76926,0.60915 3.04819,0.99417c0.66217,0.19936 1.3425,0.38814 2.03848,0.5685c0.70767,0.18338 1.42722,0.36708 2.90933,0.66933c0.75287,0.15353 1.51544,0.28482 2.28152,0.4095c0.76593,0.12465 1.53076,0.23775 2.2905,0.34651c0.75128,0.10754 2.9281,0.40977 3.61816,0.5105c0.6713,0.09798 1.3241,0.1972 1.96048,0.28949c1.22491,0.17763 1.81564,0.26089 2.39468,0.32533c1.66443,0.18524 2.20377,0.20514 3.26266,0.26001c0.52524,0.02722 1.57843,0.07143 2.10934,0.10933c1.63892,0.11702 2.20041,0.19658 3.34131,0.34134c0.57489,0.07294 1.1481,0.15994 2.29068,0.29066c1.11621,0.1277 2.19855,0.20222 2.72684,0.23132c1.03607,0.05705 1.54761,0.06122 2.55582,0.13667c1.50342,0.1125 2.00278,0.19209 3.00134,0.35201c0.50076,0.0802 1.50024,0.26718 2,0.36533c1.50079,0.29474 2.5,0.49867 3,0.59866c1,0.2 1.49994,0.30023 3,0.60001c0.49997,0.09991 1.49878,0.30231 2.5,0.47917c0.49942,0.08823 1.49805,0.25333 2.5,0.35416c0.99838,0.10048 2.00003,0.14084 2.5,0.16667c1.00006,0.05167 1.50253,0.05876 2.99985,0.22133c0.49979,0.05426 1.48938,0.2047 2.46414,0.35333c0.47879,0.07301 1.8681,0.27367 2.75067,0.34001c0.84836,0.06377 1.67465,0.07889 2.48401,0.084c1.20129,0.0076 2.00134,0.00133 2.80133,0.00133c0.79999,0 2,0 2.79999,0c0.80002,0 1.60001,0 2.40002,0c1.19983,0 1.99548,0 2.77914,0c0.76367,0 1.85419,0 2.86816,0c0.65268,0 1.30536,0 2.67419,0c0.73566,0 1.49933,0 2.28299,0c1.1955,0 1.99548,0 2.7955,0c0.79999,0 1.60001,0 2.79984,0c0.79565,0 1.57932,0 2.34299,0c1.09052,0 2.10449,0 2.75717,0c0.98401,0 2.02133,0 2.75266,0c0.74734,0 1.49469,0 2.92569,0c0.66,0 1.57498,0 2.655,0c0.71399,0 1.61932,0 2.58817,0c0.81448,0 1.68298,0 2.57849,0c0.89999,0 1.79999,0 2.39999,0c1.20001,0 2.10001,0 2.70001,0c1.19998,0 2.10001,0 2.69998,0c1.20001,0 2.10452,0 2.72086,0c0.96448,0 2.00067,0 2.73633,0c0.76367,0 1.54733,0 2.74283,0c0.79868,0 1.58932,0 2.36401,0c1.46933,0 2.14798,0 3.07349,0l0.7905,0" id="svg_2" stroke-width="2" stroke="#000" fill="none"/>
  <path t="3660,3740,3740,3755,3756,3780,3780,3780,3780,3795,3795,3796,3796,3819,3819,3819,3819,3835,3836,3836,3836,3836,3836,3859,3859,3859,3859,3859,3859,3859,3875,3875,3875,3875,3876,3876,3892,3892,3892,3892,3892,3915,3915,3915,3916,3916,3932,3932,3932,3932,3932,3957,3957,3958,3958,3971,3971,3971,3971,3995,3995,3995,4011,4011,4011,4011,4035,4035,4035,4051,4051,4051,4051,4080,4080,4080,4091,4092,4092,4115,4115,4131,4131,4155,4155,4171,4171,4195,4195,4211,4211,4211,4236,4236,4251,4252,4252,4276,4276,4292,4292,4316,4316,4332,4332,4355,4355,4372,4372,4372,4395,4395,4411,4412,4435,4436,4451,4452,4467,4467,4491,4491,4492,4507,4507,4531,4531,4532,4552,4552,4552,4571,4572,4572,4587,4588,4588,4636,4636,4652,4652,4652,4668,4668,4668,4691,4691,4691,4692,4707,4707,4707,4708,4731,4731,4732,4732,4732,4747,4748,4748,4771,4771,4771,4771,4787,4787,4787,4811,4812,4812,4812,4827,4828,4828,4852,4852,4852,4852,4868,4868,4868,4868,4892,4893,4893,4893,4909,4909,4909,4909,4931,4931,4931,4931,4932,4948,4948,4948,4948,4971,4972,4972,4972,4987,4987,4987,4988,5011,5011,5011,5011,5027,5027,5027,5028,5051,5051,5051,5051,5067,5067,5091,5107,5107,5131,5131" d="m443,256c1.836,0 2.60132,0 3.60901,0c0.90533,0 2.03387,0.00531 2.70084,-0.0045c0.71112,-0.01047 1.44962,0.00385 2.86884,-0.21683c0.67334,-0.10469 1.31522,-0.30858 2.30533,-0.49467c1.03226,-0.19402 1.77756,-0.2326 2.55765,-0.284c0.81992,-0.05402 2.12634,-0.15666 3.04501,-0.28534c0.47577,-0.06665 1.45523,-0.23416 1.95999,-0.32533c1.0405,-0.18793 2.1192,-0.39381 3.23868,-0.588c0.57144,-0.09912 1.14932,-0.19984 2.32532,-0.36533c0.5932,-0.08348 1.18851,-0.17635 2.98901,-0.31467c0.59708,-0.04587 1.19128,-0.06905 2.35867,-0.12134c0.56967,-0.02551 1.67294,-0.06245 2.70831,-0.16667c0.96625,-0.09726 1.8718,-0.25986 2.74802,-0.40799c0.43341,-0.07327 1.75067,-0.27522 2.66934,-0.34001c0.94028,-0.0663 1.41589,-0.07112 2.36331,-0.08083c1.38596,-0.01419 1.83118,-0.0045 2.6955,-0.0045c0.83633,0 1.65268,0 2.85718,0c0.79868,0 1.58932,0 2.36401,0c1.46933,0 2.15067,0 2.79999,0c0.93149,0 2.13599,0 2.73599,0c0.89999,0 2.10001,0 2.70001,0c0.89999,0 1.80002,-0.00516 2.69998,0.00017c0.90005,0.00534 1.80566,0.01773 2.70001,0.1665c0.90747,0.15096 1.50269,0.34564 2.39999,0.63466c1.20239,0.38728 1.79407,0.58557 2.64285,0.89867c1.04153,0.3842 1.76852,0.6284 2.47046,1.18533c0.66473,0.52742 1.03949,1.31377 1.58667,2.09334c0.4696,0.66907 1.08923,1.51172 1.5,2.19598c0.4873,0.81177 1.04309,1.42218 1.60004,2.31067c0.32599,0.52008 0.79999,1.51468 1.20001,2.31467c0.29999,0.60001 0.82806,1.58713 1.07916,2.20001c0.40216,0.98166 0.44507,1.8085 0.6048,2.60001c0.20483,1.01501 0.64624,1.7814 0.83069,2.79868c0.13721,0.75662 -0.00244,1.73239 0.17065,2.48532c0.2265,0.9852 0.69287,1.70438 0.82935,2.51733c0.13873,0.82642 0.08533,2.01984 0.08533,2.81332c0,0.77551 0,1.81601 0,2.53351c0,0.909 0.02869,1.6568 -0.00134,2.65051c-0.02856,0.94537 -0.36749,1.8407 -0.79999,2.48532c-0.51263,0.76398 -0.89154,1.52414 -1.29883,2.31601c-0.41339,0.80374 -0.75836,1.42075 -1.38385,2.19998c-0.49536,0.61716 -1.36194,1.59149 -1.76331,2.20001c-0.39044,0.59198 -0.89722,1.41907 -1.58868,2.19998c-0.36334,0.41037 -1.1571,1.20703 -1.76398,1.7955c-0.59338,0.57544 -1.38336,1.2634 -2.00003,1.64734c-0.7803,0.48584 -1.79999,0.95718 -2.39999,1.25717c-1,0.5 -1.5813,0.85904 -2.45715,1.14282c-0.94443,0.306 -1.78043,0.3158 -2.64734,0.40985c-0.89746,0.09738 -1.79898,0.30441 -2.41635,0.44733c-0.96289,0.2229 -1.99991,0.38757 -2.73633,0.44733c-0.76297,0.06192 -1.55072,0.07404 -2.74283,0.21933c-0.80151,0.09769 -1.59177,0.25891 -2.36401,0.444c-0.75314,0.18051 -2.15176,0.58585 -2.79999,0.78934c-0.6264,0.19662 -1.83426,0.60532 -2.436,0.79868c-0.89749,0.28842 -1.79453,0.54938 -2.69998,0.67999c-0.89584,0.12921 -1.50723,0.09488 -2.70001,0.28799c-0.9072,0.14688 -1.49295,0.36517 -2.39999,0.54935c-1.19223,0.2421 -1.8024,0.23477 -2.70001,0.33667c-1.20422,0.13672 -1.80237,0.30917 -2.73599,0.522c-0.64789,0.14771 -1.68475,0.3129 -2.42117,0.37265c-0.76297,0.06192 -1.55072,0.07404 -2.74283,0.21933c-0.80151,0.09769 -1.59271,0.25494 -2.36401,0.444c-1.47632,0.36188 -2.15231,0.58823 -2.81064,0.78934c-0.65103,0.19888 -1.98996,0.60754 -2.71069,0.79868c-0.7486,0.19852 -1.52167,0.38605 -2.31598,0.51599c-1.19382,0.19528 -1.99423,0.23199 -2.77783,0.28534c-0.76373,0.052 -1.86035,0.13635 -2.86816,0.35718c-0.65729,0.14401 -1.30151,0.36084 -2.67401,0.74265c-0.72937,0.20288 -1.4754,0.39505 -2.22601,0.543c-1.08176,0.21326 -1.76755,0.29172 -2.75266,0.33633c-0.65222,0.02954 -2.02133,0.02084 -2.75266,0.02084c-0.74734,0 -1.49469,0 -2.58069,0c-1.005,0 -1.625,0 -2.47998,0c-1.22501,0 -2.02502,0 -2.93402,0c-0.91931,0 -1.75266,0 -2.73114,0l-0.82019,0" id="svg_3" stroke-width="2" stroke="#000" fill="none"/>
  <path t="6509,6588,6588,6588,6588,6588,6611,6611,6611,6611,6611,6611,6627,6627,6627,6627,6627,6627,6651,6651,6651,6651,6652,6652,6667,6667,6667,6667,6667,6667,6667,6683,6683,6684,6684,6684,6684,6707,6708,6708,6708,6708,6723,6723,6723,6723,6723,6723,6747,6747,6747,6747,6748,6763,6764,6764,6764,6787,6787,6788,6788,6788,6803,6803,6803,6803,6804,6828,6828,6828,6828,6828,6843,6843,6844,6844,6867,6868,6868,6868,6868,6883,6884,6884,6884,6884,6908,6908,6908,6908,6908,6924,6924,6924,6924,6947,6947,6947,6947,6963,6963,6963,6964,6987,6987,6988,7003,7003,7003,7003,7028,7028,7028,7043,7043,7043,7067,7067,7083,7083,7107,7108,7108,7123,7124,7147,7147,7163,7163,7163,7163,7187,7187,7188,7203,7203,7203,7203,7227,7227,7228,7228,7228,7243,7243,7244,7244,7244,7267,7268,7268,7268,7268,7283,7283,7283,7284,7284,7300,7301,7301,7301,7323,7323,7324,7324,7324,7339,7339,7339,7340,7363,7364,7364,7364,7379,7379,7379,7379,7403,7403,7404,7404,7419,7420,7420,7443,7443,7443,7459,7459" d="m449,260c-6.37851,0 -6.91467,0 -7.96399,0c-1.02533,0 -1.53152,0 -3.03601,0c-0.5,0 -1.5,0 -2.5,0c-0.5,0 -1.5,0 -2.5,0c-1.00134,0 -2.01068,0 -2.52084,0c-1.03632,0 -1.56448,0 -3.20065,0c-0.56384,0 -1.13568,0 -2.29935,0c-0.58981,0 -1.18365,0 -2.97916,0c-0.59982,0 -1.19867,0 -2.38934,0c-0.58981,0 -1.75348,0 -2.32532,0c-1.11868,0 -2.20001,0 -2.72818,0c-1.03632,0 -2.05267,0 -2.55582,0c-1.50134,0 -2.00134,0 -3.00134,0c-1,0 -1.5,0 -3,0c-0.49985,0 -1.49551,0 -2.47916,0c-0.48483,0 -1.43552,0.00336 -2.79935,-0.00015c-0.86432,-0.00223 -1.70087,-0.01578 -2.11084,-0.03586c-0.80984,-0.03964 -2.01306,-0.172 -2.81067,-0.32117c-0.80264,-0.15012 -1.60022,-0.34637 -2.79999,-0.64282c-0.80148,-0.19803 -1.60788,-0.40298 -2.436,-0.564c-0.84674,-0.16464 -2.185,-0.31888 -2.64801,-0.35199c-0.94073,-0.06726 -1.89102,-0.10361 -2.36331,-0.13669c-1.3873,-0.09717 -2.26834,-0.22531 -3.11667,-0.37265c-0.82639,-0.14352 -1.63104,-0.32013 -2.836,-0.45334c-0.7981,-0.08823 -1.60086,-0.10977 -2.39999,-0.17401c-1.20154,-0.09659 -2.00186,-0.22842 -2.81067,-0.37265c-0.41046,-0.07321 -1.24219,-0.25565 -2.556,-0.40802c-0.91495,-0.10611 -1.8587,-0.14081 -2.33334,-0.16666c-0.94739,-0.05162 -2.33435,-0.15915 -2.77832,-0.2215c-0.86218,-0.12108 -1.68311,-0.28674 -2.46002,-0.483c-1.09964,-0.27777 -2.10898,-0.5955 -2.76166,-0.7955c-0.65268,-0.2 -2.02078,-0.60201 -2.75266,-0.8c-0.7468,-0.20204 -1.49686,-0.39229 -2.58069,-0.7c-0.68274,-0.19383 -1.64075,-0.49966 -2.26215,-0.64284c-1.19604,-0.27557 -2.10544,-0.32195 -2.7045,-0.38249c-1.20218,-0.12152 -1.80002,-0.25867 -2.70001,-0.47467c-0.89999,-0.216 -1.79907,-0.38596 -2.68933,-0.47467c-0.85284,-0.08499 -1.89401,-0.231 -2.57468,-0.45067c-0.84109,-0.27145 -1.84201,-0.48357 -2.63599,-0.62733c-1.00998,-0.18288 -1.57825,-0.52159 -2.60001,-0.78065c-0.78748,-0.19966 -1.61319,-0.20573 -2.60001,-0.51933c-0.8125,-0.25821 -1.80176,-0.56035 -2.42084,-0.64734c-1.14661,-0.16112 -1.93521,-0.35692 -2.5,-0.5c-0.87885,-0.22264 -2.08008,-0.4202 -2.68982,-0.47467c-0.94595,-0.08452 -1.95828,-0.17891 -2.67334,-0.31067c-0.74396,-0.13708 -1.49573,-0.30681 -2.94934,-0.71466c-0.68649,-0.19263 -1.35391,-0.40498 -2.02798,-0.636c-0.71008,-0.24336 -1.88138,-0.68567 -2.7485,-1.01666c-0.91089,-0.34769 -1.37253,-0.53021 -2.3075,-0.86334c-0.91318,-0.32536 -1.79724,-0.60031 -2.64667,-0.85866c-0.82526,-0.25099 -1.64343,-0.48599 -2.836,-0.9465c-0.80624,-0.31133 -1.19449,-0.50749 -2,-0.8175c-0.7948,-0.30589 -1.9967,-0.64012 -2.80002,-0.7515c-0.7973,-0.11053 -1.60324,-0.12874 -2.79999,-0.2765c-0.80264,-0.09911 -1.60172,-0.26175 -2.39999,-0.444c-0.80179,-0.18306 -2.00021,-0.4879 -2.7955,-0.68933c-0.78403,-0.19858 -1.54993,-0.3907 -2.63785,-0.7c-0.68301,-0.19418 -1.64648,-0.49789 -2.26215,-0.7c-1.20602,-0.3959 -1.8078,-0.60378 -2.42535,-0.8c-0.96262,-0.30589 -1.99872,-0.60593 -2.72733,-0.7955c-0.72943,-0.18979 -1.77847,-0.44376 -2.70898,-0.58316c-0.77872,-0.11667 -1.73468,-0.1642 -2.72684,-0.40668c-0.82504,-0.20163 -1.36334,-0.41916 -2.39435,-0.8145l-0.88,-0.37933" id="svg_4" stroke-width="2" stroke="#000" fill="none"/>
  <path t="8580,8723,8747,8747,8747,8763,8763,8787,8787,8787,8787,8803,8803,8803,8803,8827,8827,8827,8827,8827,8843,8843,8843,8843,8843,8867,8867,8867,8867,8867,8883,8883,8883,8883,8883,8907,8907,8907,8907,8923,8923,8923,8923,8923,8940,8940,8940,8940,8963,8963,8963,8964,8980,8980,8980,8980,9003,9003,9004,9004,9019,9020,9020,9020,9043,9043,9043,9043,9043,9060,9060,9060,9083,9083,9083" d="m164,246c1.39999,2.37466 2.01926,3.15553 2.39999,3.836c0.42168,0.75362 0.8172,1.55731 1.20001,2.39999c0.41899,0.92229 0.69167,1.72865 0.94167,2.28484c0.40155,0.89336 0.98495,1.79237 1.47266,2.37917c0.51059,0.61432 1.0929,1.20175 1.98567,2.10001c0.59883,0.60251 1.20197,1.20877 1.5,1.52084c0.60403,0.63251 1.50633,1.64059 2.09866,2.36316c0.30005,0.36603 0.88687,1.11124 1.44417,1.86334c0.7997,1.07925 1.2701,1.7695 1.73184,2.41666c0.44769,0.62747 0.89339,1.24796 1.64667,2.13617c0.52048,0.61371 1.08644,1.21405 1.62599,1.85699c0.27263,0.32486 1.04062,1.35828 1.5,2.09549c0.4621,0.74155 0.86893,1.51953 1.61934,2.58069c0.49394,0.69849 0.78098,1.01382 1.33333,1.64581c0.54243,0.62064 1.34258,1.51352 1.81467,2.11951c0.67793,0.87021 1.06281,1.45831 1.68533,2.23468c0.58342,0.7276 1.20979,1.38364 1.60001,1.85065c0.82234,0.98416 1.20688,1.55481 1.63599,2.12668c0.44543,0.59363 1.18094,1.49326 1.71667,2.08932c0.54289,0.60403 1.11302,1.1843 1.88066,2.10001c0.49471,0.59012 1.15941,1.50555 1.61934,2.10001c0.703,0.9086 1.2282,1.50027 1.76199,2.08932c0.52225,0.57626 1.05716,1.09375 1.81601,2.12534c0.47505,0.64578 0.85199,1.284 1.45332,2.08401l0.51601,0.58047l0.51601,0.53552" id="svg_5" stroke-width="2" stroke="#000" fill="none"/>
  <path t="9587,9667,9667,9685,9685,9685,9707,9707,9707,9707,9707,9723,9723,9723,9723,9739,9740,9740,9740,9740,9740,9763,9763,9763,9763,9763,9763,9763,9779,9779,9779,9779,9779,9779,9779,9803,9803,9803,9803,9803,9803,9803,9819,9819,9819,9819,9819,9819,9819,9819,9843,9843,9843,9843,9843,9843,9843,9859,9860,9860,9860,9860,9860,9883,9883,9883,9883,9923,10051,10052,10078,10091,10092,10107,10107,10107,10131,10131,10131,10131,10132,10147,10147,10147,10147,10147,10171,10171,10172,10172,10172,10187,10187,10187,10211,10211,10211,10227,10227,10227,10227,10227,10251,10251,10251,10252,10252,10267,10267,10267,10268,10268,10291,10291,10291,10291,10307,10307,10307,10307,10307,10307,10331,10331,10331,10331,10347,10347,10347,10348,10348,10371,10371,10371,10371,10371,10387,10387,10387,10387,10387,10411,10411,10411,10427,10427,10428,10428,10451,10451,10451,10452,10452,10452,10467,10467,10468,10468,10468,10468,10491,10491,10491,10491,10491,10491,10491,10507,10507,10507,10508,10508,10508,10531,10531,10531,10532,10532,10547,10547,10547,10548,10548,10548,10571,10571,10571,10571,10571,10587,10587,10587,10588" d="m166,242c-3.19467,2.24733 -3.79346,2.7684 -4.543,3.3215c-0.71796,0.5298 -1.27751,0.8904 -2.457,1.6785c-0.59958,0.40062 -1.2,0.79999 -1.8,1.2c-0.59999,0.39999 -1.79814,1.20706 -2.42133,1.60001c-0.64607,0.40738 -1.33855,0.82155 -2.52184,1.39999c-0.42511,0.20781 -1.33795,0.60378 -1.81934,0.8c-1.0005,0.40785 -1.52217,0.60912 -3.159,1.2c-0.56271,0.20314 -1.13483,0.40244 -2.29933,0.8c-0.58943,0.20123 -1.18352,0.40044 -1.7805,0.60001c-1.79839,0.60118 -2.39943,0.80046 -3.00317,0.9955c-0.60558,0.19563 -1.83032,0.57262 -2.45267,0.74733c-0.627,0.17603 -1.90756,0.49963 -3.22682,0.77451c-0.66772,0.13913 -1.34183,0.26559 -2.01601,0.4035c-0.67517,0.13809 -1.36284,0.23337 -3.33333,0.8125c-0.6508,0.19128 -1.28367,0.43002 -1.90951,0.67648c-0.62354,0.24554 -1.23714,0.50916 -2.45267,1.04199c-0.60357,0.26459 -1.80237,0.7868 -2.40433,1.02667c-1.19155,0.47482 -1.78899,0.68692 -2.37933,0.90067c-0.58434,0.21158 -1.73743,0.61417 -2.85417,1.02084c-1.08057,0.39352 -1.60078,0.59473 -2.10933,0.78934c-0.97523,0.3732 -1.88324,0.73093 -3.114,1.18915c-0.7188,0.26761 -1.3784,0.45746 -2.17001,0.82019c-0.98014,0.44913 -1.6855,1.18762 -1.76883,1.90134c-0.10854,0.92966 -0.04533,1.78976 0.0315,2.54666c0.12012,1.18332 0.2876,1.72415 0.61066,2.564c0.46603,1.21149 0.82205,1.80164 1.21066,2.38934c0.40564,0.61346 0.8869,1.22769 1.78534,2.10016c0.64341,0.62482 1.36152,1.21609 1.70667,1.53583c0.69116,0.64026 1.62398,1.67358 2.13633,2.41217c0.25043,0.36099 0.67721,1.10028 1.11167,1.7825c0.77491,1.2168 1.18815,1.71075 1.80267,2.36032c0.78207,0.82666 1.41067,1.41968 1.836,1.845c0.93067,0.93066 1.44933,1.44934 2,2c0.57468,0.57468 1.16367,1.16702 2.06416,2.06384c0.30061,0.29938 0.89918,0.90207 1.53584,1.46417c0.63824,0.56348 1.6768,1.32819 2.41667,1.77884c0.73907,0.45016 1.4958,0.85059 1.86333,1.05582c1.06619,0.59537 1.73128,1.00909 2.74533,1.60135c0.34697,0.20264 1.46568,0.81351 2.308,1.19867c0.8856,0.40497 1.34813,0.58923 2.2825,0.94415c0.46387,0.17621 1.8239,0.64493 2.69101,0.89999c0.83376,0.24527 1.6525,0.45331 2.85716,0.75717c0.7999,0.20175 1.60104,0.40698 2,0.52084c0.80215,0.22891 2.00414,0.63559 2.8,0.96317c0.80431,0.33105 1.59409,0.70483 2.39999,1.03198c1.19147,0.48364 1.59592,0.60754 2.38934,0.84802c0.77208,0.23401 1.52933,0.42099 2.92532,0.836c0.65126,0.1936 1.58061,0.50067 2.48534,0.79999c0.90877,0.30066 1.53903,0.50912 2.21434,0.70001c1.11482,0.31512 1.9566,0.50488 2.86833,0.69998c0.47929,0.10257 1.48311,0.30203 2.00533,0.39999c1.63232,0.30618 2.19623,0.40549 3.34801,0.58936c0.58429,0.09326 1.17273,0.19086 2.36533,0.32532c1.19695,0.13495 1.79797,0.17471 2.99417,0.22818c0.59361,0.02655 1.18361,0.04129 2.34734,0.05267c0.57181,0.00558 2.23566,0.00449 2.77184,0.00449c1.04933,0 1.5645,0 2.58083,0c0.50317,0 2.0045,0 2.5045,0c1,0 2,0 2.5,0c1.5,0 2,0 3,0c1,0 1.5,0 2.5,0c1,0 1.99733,0 2.97867,0c0.47966,0 1.407,0 2.688,0l0.75999,0l0.99001,0l0.81,0" id="svg_6" stroke-width="2" stroke="#000" fill="none"/>
  <path t="11445,11547,11547,11547,11550,11550,11550,11550,11550,11550,11563,11563,11563,11563,11563,11563,11563,11563,11587,11587,11587,11587,11587,11587,11587,11587,11587,11603,11603,11603,11603,11603,11603,11603,11603,11603,11627,11627,11627,11627,11627,11627,11627,11627,11627,11643,11643,11643,11643,11643,11643,11643,11643,11643,11667,11667,11667,11667,11667,11667,11667,11667,11667,11683,11683,11683,11683,11683,11683,11683,11683,11683,11707,11707,11707,11707,11707,11707,11707,11707,11707" d="m255,298c-0.57666,2.02335 -0.44966,2.59698 -0.02667,3.57333c0.3343,0.77167 0.78883,1.60297 1.30933,2.49866c0.27469,0.47269 0.56183,0.9577 1.20535,1.93066c0.6655,1.00616 1.01935,1.50876 1.78717,2.50183c0.39597,0.51212 0.82275,1.02185 1.27948,1.53152c0.47217,0.52692 0.96875,1.06967 2.112,2.13065c0.60977,0.56589 1.27319,1.12546 1.97552,1.69052c0.72821,0.58588 1.49884,1.17029 2.30847,1.75348c0.83392,0.60071 1.69769,1.21085 3.54935,2.38934c0.95871,0.6102 1.95709,1.20715 2.99399,1.79099c1.06171,0.59781 2.16635,1.18027 3.31802,1.73703c1.18097,0.57095 2.39999,1.14938 5.02133,2.13864c1.36523,0.51523 2.7916,0.97461 4.26147,1.41c1.50214,0.44495 3.04788,0.85297 4.63052,1.23001c1.6084,0.38318 3.24557,0.75455 6.608,1.35999c1.70825,0.30759 3.44894,0.57257 5.22598,0.81c1.81766,0.24286 3.68945,0.45279 5.62201,0.63c1.99817,0.18323 4.07288,0.35568 8.48532,0.56c2.34689,0.10867 4.78116,0.17053 7.28702,0.20102c2.56354,0.03116 5.1716,0.0231 7.80899,-0.03302c2.65405,-0.05646 5.31351,-0.1163 10.57068,-0.50131c2.58374,-0.18924 5.133,-0.45941 7.65598,-0.77551c2.51181,-0.3147 5.01331,-0.68781 7.51202,-1.10849c2.51208,-0.42291 5.04132,-0.87827 10.16531,-1.94934c2.62286,-0.54825 5.27695,-1.14905 7.96201,-1.78049c2.71765,-0.6391 5.45468,-1.32367 8.21402,-2.0235l2.77533,-0.72385l2.78732,-0.74683" id="svg_7" stroke-width="2" stroke="#000" fill="none"/>
  <path t="13284,13363,13363,13363,13363,13387,13387,13403,13403,13403,13427,13427,13427,13427,13443,13443,13443,13467,13467,13467,13467,13483,13483,13483,13483,13483,13499,13499,13499,13499,13499,13522,13523,13538,13539,13539,13563,13563,13563,13578,13579,13579,13579,13602,13603,13603,13642,13643" d="m385,318c6.59235,3.95685 7.32309,4.465 7.875,4.9375c0.64935,0.55594 1.52121,1.42972 2.009,2.03183c0.63,0.77765 0.94113,1.29993 1.52051,2.08249c0.58463,0.78967 1.19632,1.49478 1.59549,1.94818c0.60126,0.68289 1.40189,1.68262 1.79999,2.22534c0.40192,0.54791 1.18665,1.61948 1.60269,2.09067c0.61954,0.70163 1.10004,1.15021 1.93066,1.85065c0.62738,0.52905 1.32941,1.06757 2.052,1.64401c0.36719,0.29294 1.4549,1.18158 2.12665,1.78665c0.63733,0.57407 1.20746,1.12854 1.716,1.63202c0.80603,0.79797 1.38666,1.38531 2.09351,2.09216c0.5145,0.5145 1.07959,1.08643 1.87866,1.87851c0.60791,0.6026 1.24222,1.2179 1.96649,1.79999c0.77078,0.61945 1.33914,0.99219 1.88068,1.39999c1.04239,0.78497 1.70599,1.38934 2.29102,1.94284l0.64014,0.63565l0.61084,0.61084" id="svg_8" stroke-width="2" stroke="#000" fill="none"/>
  <path t="14059,14139,14139,14139,14139,14139,14163,14163,14163,14163,14179,14179,14203,14203,14203,14219,14219,14219,14243,14259,14283,14283,14299,14299,14323,14323,14323,14323,14338,14339,14339,14339,14339,14364,14364,14364,14364,14364,14364,14378,14379,14379,14379,14379,14402,14403,14403,14403,14403,14419,14419,14419,14419,14442,14443,14443,14443,14458,14459,14459,14483,14483,14483,14483,14499,14499,14499,14499,14515,14515,14515,14515,14515,14539,14539,14539,14539,14539,14554,14555,14555,14555,14555,14579,14579,14579,14579,14595,14595,14595" d="m431,346c-11.20633,-0.43533 -11.83826,-0.3736 -12.38101,-0.224c-0.92657,0.25537 -1.68951,0.62265 -2.69714,1.64532c-0.49127,0.49863 -0.92575,1.04227 -1.34985,1.89468c-0.47943,0.96359 -0.56131,1.87314 -0.57199,2.88416c-0.00644,0.61047 0,1.48517 0,2.48251c0,0.79648 -0.00327,1.54797 0,2.77567c0.00226,0.84164 0.23318,1.79855 0.76166,2.24167c0.82693,0.69339 1.46545,0.94925 2.66019,1.1785c0.53827,0.10327 1.46078,0.11517 2.15015,0.12015c1.17099,0.00842 2.04288,0.00531 2.96967,-0.04031c0.48004,-0.02362 1.46759,-0.09277 2.45834,-0.29169c1.00668,-0.20212 1.99347,-0.53839 2.47916,-0.72916c0.97247,-0.38196 1.45654,-0.58768 2.79886,-1.35916c0.43988,-0.25281 1.27487,-0.79984 2.00333,-1.42502c0.35318,-0.3031 1.26559,-1.29309 1.66132,-2.03867c0.38608,-0.72742 0.62234,-1.51859 0.76801,-2.31598c0.21747,-1.19052 0.24194,-1.99377 0.26849,-2.77783c0.02585,-0.7634 0.03159,-1.85428 0.01636,-2.86368c-0.00958,-0.63647 -0.01407,-1.56906 -0.28351,-2.75583c-0.13605,-0.59921 -0.45538,-1.49878 -1.04535,-2.23468c-0.61304,-0.76471 -1.20071,-1.15976 -1.83282,-1.44781c-1.30713,-0.59564 -2.08936,-0.62488 -2.85468,-0.67719c-0.7825,-0.0535 -1.97916,-0.04166 -2.78049,-0.04166c-0.80933,0 -1.63467,0 -2.48401,0c-0.88132,0 -1.79895,-0.00815 -2.73999,0.02133c-0.47488,0.01486 -1.43591,0.01816 -2.80801,0.31201c-0.89032,0.19067 -1.31735,0.34842 -2.10416,0.72916c-0.76166,0.36856 -1.76202,1.07071 -2.28915,1.62149c-0.73886,0.77203 -1.05002,1.36334 -1.53018,2.3945l-0.18066,0.90067l0.02551,0.61951" id="svg_9" stroke-width="2" stroke="#000" fill="none"/>
  <path t="15181,15284,15284,15284,15284,15284,15300,15300,15300,15300,15300,15300,15300,15300,15300,15324,15324,15325,15325,15325,15325,15325,15325,15325,15341,15341,15341,15341,15341,15341,15341,15341,15341,15368,15368,15368,15368,15368,15368,15368,15369,15369,15380,15380,15380,15380,15380,15380,15380,15380,15380" d="m399,319c2.34668,-1.20001 3.18558,-1.40536 3.66666,-1.5c1.07773,-0.21204 1.6788,-0.30817 3,-0.5c0.71936,-0.10446 1.47974,-0.20233 2.28,-0.29999c0.83969,-0.10245 1.71979,-0.20206 2.64001,-0.30002c0.95978,-0.10214 1.9595,-0.20511 4.07999,-0.39999c1.11926,-0.10287 2.276,-0.20117 3.46652,-0.3045c1.2215,-0.10602 2.47116,-0.21436 3.74548,-0.33148c1.29669,-0.11917 2.61331,-0.23709 5.28799,-0.53067c1.35556,-0.14877 2.71927,-0.31552 4.09052,-0.495c1.37943,-0.18054 2.76434,-0.37543 4.1535,-0.58502c1.39453,-0.21042 2.79312,-0.42578 5.58932,-0.91998c1.4006,-0.24756 2.79529,-0.51425 4.18201,-0.78601c1.37595,-0.26962 2.73495,-0.5459 4.07401,-0.82199c1.31561,-0.27127 2.60236,-0.54279 5.07733,-1.05869c1.17935,-0.24582 2.31631,-0.47971 3.40649,-0.7095c1.04184,-0.2196 2.03101,-0.43631 2.96548,-0.64648l0.87653,-0.20618l0.81549,-0.20316" id="svg_10" stroke-width="2" stroke="#000" fill="none"/>
  <path t="16045,16164,16164,16164,16189,16189,16189,16189,16204,16204,16204,16204,16204,16204,16204,16228,16228,16228,16228,16228,16228,16228,16228,16228,16244,16244,16244,16244,16244,16244,16244,16244,16244,16268,16268,16268,16268,16268,16268,16268,16268,16268,16284,16284,16284,16284,16284,16284,16284,16284,16284,16308,16308,16308,16308,16308,16308,16308,16308,16308,16324,16324,16324,16324,16324,16324,16324,16324,16324,16348,16348,16348,16348,16348,16348,16364,16364" d="m439,259c0.16666,0.33334 0.80994,0.90662 1.46167,1.29468c0.91599,0.54538 1.51117,0.6153 2.49301,0.72c0.78647,0.08389 1.7124,0.14813 2.78799,0.26932c0.59073,0.06656 1.2114,0.14688 2.53598,0.29068c0.6962,0.07559 1.41095,0.15579 2.888,0.25867c0.7547,0.05255 1.52121,0.08502 2.2995,0.1095c0.79105,0.0249 1.59631,0.03836 2.4165,0.04648c0.83615,0.00827 1.68933,0.01001 3.45068,0.01068c0.90967,0.00034 1.83731,0 2.78098,0c0.95767,0 1.92734,0 2.90701,0c0.98767,0 1.98132,0.00049 3.97867,0c0.99966,-0.00024 1.99741,0.00058 2.991,-0.01349c0.98773,-0.01398 1.96783,-0.03964 2.93701,-0.09451c0.95825,-0.05426 1.90811,-0.10153 3.73865,-0.392c0.89404,-0.14188 1.76447,-0.34396 2.6145,-0.5715c0.83945,-0.2247 1.65891,-0.48343 2.46152,-0.7605c0.79379,-0.27402 1.57214,-0.56491 3.09067,-1.168c0.74622,-0.29636 1.4791,-0.59766 2.2005,-0.89551c0.70923,-0.29282 1.40378,-0.58334 2.0835,-0.8685c0.66394,-0.27853 1.30997,-0.55237 2.54932,-1.06934c0.58966,-0.24597 1.16025,-0.48074 1.71002,-0.70949c0.53024,-0.22061 1.04083,-0.43433 1.53,-0.6465c0.47086,-0.20422 0.92554,-0.39792 1.75998,-0.81067c0.39285,-0.19432 0.76215,-0.3959 1.45068,-0.77867c0.62607,-0.34804 1.19467,-0.65067 2.42999,-1.1115l0.67801,-0.1245" id="svg_11" stroke-width="2" stroke="#000" fill="none"/>
  <path t="17253,17324,17324,17324,17324,17324,17324,17324,17324,17324,17348,17348,17348,17348,17348,17348,17348,17348,17348,17367,17367,17367,17367,17368,17368,17368,17368,17368,17387,17388,17388,17388,17388,17388,17388,17388,17388,17404,17404,17404,17404,17404,17404,17404,17404,17404,17427,17427,17427,17427,17428,17428,17428,17428,17428,17443,17443,17443,17443,17443,17444,17444,17444,17444" d="m410,249c7.66666,-6.66667 8.35614,-7.25822 9.03067,-7.82933c0.65848,-0.55753 1.30652,-1.10042 1.94849,-1.629c0.63406,-0.52208 1.26636,-1.03603 1.9035,-1.539c1.27869,-1.00943 1.93732,-1.50552 2.60666,-2.004c0.67932,-0.50591 1.37656,-1.01234 2.09402,-1.5195c0.73315,-0.51825 1.48944,-1.04112 2.27399,-1.5645c1.63602,-1.09138 2.50635,-1.63806 3.39999,-2.20267c0.91766,-0.57977 1.86188,-1.16847 2.82602,-1.77451c0.9852,-0.61928 1.9906,-1.25128 3.00598,-1.9095c2.08408,-1.35098 3.13461,-2.06746 4.19601,-2.79866c1.07431,-0.7401 2.15219,-1.49921 3.2355,-2.27101c1.09134,-0.77751 2.18442,-1.56628 3.28049,-2.36099c2.2002,-1.59525 3.29916,-2.39685 4.39868,-3.19867c1.10046,-0.80251 2.20117,-1.60771 3.29999,-2.41949c1.1012,-0.81355 2.203,-1.63239 3.29999,-2.46451c2.20605,-1.6734 3.3024,-2.53273 4.39734,-3.39999c1.09637,-0.86841 2.1846,-1.74672 3.26102,-2.6355c1.07294,-0.88589 2.13333,-1.7767 3.17099,-2.68051c2.04932,-1.78499 3.03,-2.69513 3.99734,-3.59332c0.95261,-0.88452 1.87997,-1.76266 2.78998,-2.62201l0.89001,-0.83932l0.87,-0.81534l0.85001,-0.78734" id="svg_12" stroke-width="2" stroke="#000" fill="none"/>
 </g>
 <g display="none">
  <title>muse_image</title>
  <image xlink:href="http://farm4.static.flickr.com/3239/2337490984_291b01312b.jpg" id="muse" height="462" width="640" y="9" x="0"/>
 </g>
 <g display="none">
  <title>bbox</title>
  <rect stroke="#f00" fill="none" stroke-width="3" height="191.96676" width="582.4" y="175.37119" x="28.16" id="bbox"/>
 </g>
</svg>
