<svg width="640" height="480" xmlns="http://www.w3.org/2000/svg" xmlns:svg="http://www.w3.org/2000/svg" xmlns:xlink="http://www.w3.org/1999/xlink">
 <!-- Sketchy ANNOTATION
  ImageNet ID: n02691156_2149
  URL: http://farm2.static.flickr.com/1387/531326560_e50926d902.jpg
  Image Width: 500
  Image Height: 375
  BBox X: 63
  BBox Y: 190
  BBox Width: 388
  BBox Height: 109
  Exposure: 2000ms
  Synset Label: airplane
  Synset ID: n02691156
  Worker Tag: Airplane
  Sanity Check: 
   Context
   Saved
   Shading
  Comment: 
   {}
  Worker ID: AIH9VLD92GHFH
  Assignment ID: 31QNSG6A5RT1CLZB8Z1NXSSRUHR78E
  HIT ID: 3CKVGCS3PG53QAG6BWHHAKNKY2PS0W
  Work Time: 71s
  Worker Score: 0.9286
 END ANNOTATION -->
 <g display="inline">
  <title>Layer 1</title>
  <path t="0,212,215,215,215,227,227,228,245,245,245,268,268,278,278,278,294,294,310,311,311,326,326,326,326,343,344,360,361,361,361,377,377,377,377,393,398,398,410,410,411,427,427,427,427,443,443,444,460,460,461,461,477,477,477,477,493,493,493,510,511,511,511,526,527,527,527,543,543,544,544,560,560,561,561,576,577,577,593,593,594,610,610,611,626,627,643,643,643,660,660,661,661,676,677,677,693,693,693,694,710,711,711,711,726,727,727,727,727,743,743,743,744,762,763,763,763,763,776,777,777,777,777,777,803,804,804,804,804,810,810,810,827,827,827,828,828,828,843,843,844,844,844,844,860,860,861,861,861,876,877,877,877,877,893,893,894,894,910,911,911,911,911,926,927,927,927,944,944,944,944,960,961,976,977,977,977,993,993,994,994,1010,1010,1011,1011,1026,1027,1027,1028,1028,1043,1044,1044,1060,1061,1061,1076,1077,1077,1093,1093,1094,1094,1110,1111,1111,1111,1126,1127,1127,1127,1143,1144,1144,1144,1144,1160,1160,1161,1176,1177,1177,1177,1193,1194,1194,1194,1210,1210,1211,1211,1226,1227,1227,1227,1243,1243,1244,1260,1261,1261,1276,1277,1277,1293,1294,1310,1310,1326,1327,1343,1344,1344,1360,1360,1376,1377,1394,1394,1410,1411,1411,1426,1427,1443,1443,1460,1460,1476,1477,1477,1493,1494,1494,1510,1510,1511,1526,1527,1527,1543,1543,1560,1560,1561,1576,1577,1593,1593,1594,1594,1610,1610,1611,1611,1626,1627,1643,1643,1644,1660,1660,1676,1677,1677,1678,1693,1693,1694,1694,1710,1710,1711,1726,1727,1743,1743,1744,1744,1760,1760,1761,1762,1776,1777,1777,1777,1793,1793,1794,1794,1810,1810,1826,1827,1827,1843,1844" d="m137,283c9.22816,2.6355 10.14331,2.85748 10.85417,2.9375c0.81741,0.09201 1.83116,0.0625 2.66666,0.0625c0.88051,0 1.77884,0 2.65784,0c0.80701,0 1.85333,0 2.78934,0c0.80133,0 1.55283,0 2.34933,0c1.23,0 1.90799,0 3.10416,0c0.8145,0 1.38918,0 2.57851,0c0.89549,0 1.76401,0 2.31467,0c1.23717,0 1.94667,0 3.01866,0c0.9765,0 1.6875,0 2.4185,0c1.0815,0 2.091,0 2.72734,0c0.91949,0 1.82066,0 2.71016,0c0.8535,0 1.8895,0 2.59601,0c0.98399,0 1.8575,0 2.87599,0c0.724,0 1.45601,0 2.51717,0c0.9855,0 1.61084,0 2.8215,0c0.9045,0 1.52083,0 2.48534,0c1.03583,0 1.76283,0 2.49384,0c1.0515,0 1.97816,0 3.02083,0c0.76801,0 1.64301,0 2.672,0c0.74934,0 1.53067,0 2.72783,0c0.79567,0 1.57935,0 2.343,0c1.0905,0 2.10451,0 2.75717,0c0.65266,0 2.02116,0 2.74817,0c0.731,0 1.442,0 2.709,0c0.78149,0 1.72549,0 2.72816,0c0.83549,0 1.41917,0 2.61433,0c0.879,0 1.686,0 2.73233,0c0.77333,0 1.74001,0 2.5305,0c0.60367,0 1.95866,0 2.68567,0c0.731,0 1.442,0 2.70917,0c0.79199,0 1.548,0 2.68567,0c0.67133,0 1.39867,0 2.55966,0c1.19733,0 1.99733,0 2.79733,0c0.8,0 2,0 2.8,0c0.8,0 1.59999,0 2.39999,0c1.2,0 2,0 2.8,0c0.8,0 2,0 2.80267,0c0.40633,0 1.239,0 2.11166,0c1.41899,0 1.92833,0 2.991,0c0.54533,0 1.644,0 2.18933,0c1.57201,0 2.06201,0 2.98199,0c0.84,0 1.60001,0 2.88101,0c0.81299,0 1.66199,0 2.70898,0c0.87335,0 1.35751,0 2.39584,0c0.54416,0 1.6575,0 2.77084,0c1.08133,0 1.6095,0 2.64581,0c0.51016,0 1.5195,0 3.02069,0c0.49881,0 1.48947,0 1.97931,0c0.96368,0 2.35419,0 3.2355,0c0.84933,0 1.67468,0 2.48401,0c1.20132,0 2.00134,0 2.80133,0c0.79999,0 2,0 2.79868,0c0.79065,0 1.56534,0 2.31598,0c1.06403,0 1.73267,0 2.71069,0c0.65866,0 2.05731,0 2.78931,0c0.724,0 1.41602,0 2.616,0c0.98401,0 1.936,0 2.73102,0c0.88501,0 1.52499,0 2.55984,0c0.73566,0 1.88916,0 2.67981,0c1.19867,0 1.99869,0 2.79868,0c0.79999,0 2,0 2.79868,0c0.79065,0 1.56534,0 2.31598,0c1.06369,0 2.03867,0 2.63867,0c1.08002,0 2.02133,0 2.69934,0c0.96899,0 1.79401,0 2.70898,0c1.005,0 1.72235,0 2.83835,0c0.74734,0 1.83334,0 2.51599,0c0.98401,0 1.63669,0 2.65067,0c1.09052,0 1.85419,0 2.63785,0c1.1955,0 1.99283,0 2.77417,0c0.74933,0 1.45065,0 2.65332,0c0.76801,0 1.53601,0 2.73868,0c0.70132,0 1.45065,0 2.23199,0c1.19733,0 1.99734,0 2.79733,0c0.79999,0 2,0 2.79868,0c0.79065,0 1.56534,0 3.03467,0c0.67999,0 1.625,0 2.20499,0c1.27768,0 1.96167,0 2.64566,0c1.27316,0 1.83685,0 2.71735,0c1.19598,0 2.05701,0 2.828,0c0.96533,0 1.73865,0 2.776,0c0.74399,0 1.85199,0 2.64532,0c0.89218,0 1.61066,0 2.40115,0c1.26285,0 1.92734,0 2.94818,0c0.78934,0 1.83334,0 2.66135,0c0.88132,0 1.58932,0 2.57065,0c0.96268,0 1.73599,0 2.77335,0c0.74399,0 1.85199,0 2.64532,0c0.89218,0 1.61066,0 2.40115,0c1.26419,0 1.94818,0 2.63217,0c1.27316,0 1.83685,0 2.71735,0c1.19733,0 1.78799,-0.00046 2.64151,0c1.27182,0.00067 1.95248,-0.06573 2.95715,0.16666c0.81915,0.18945 1.58691,0.61288 2.40268,0.74802c0.86081,0.14258 1.93066,0.08533 2.56665,0.08533c1.05151,0 1.7825,0 2.86401,0c1.005,0 1.625,-0.00058 2.47998,0c1.00134,0.00067 1.89325,-0.04111 2.88669,0.22134c0.81903,0.21637 1.38489,0.57758 2.409,0.7215c0.89804,0.12622 2.03381,0.05716 2.70084,0.05716c0.711,0 1.44199,0 2.86865,0c0.66434,0 1.61084,0 2.22018,0c1.19998,0 2.08047,0 2.91599,0c1.00134,0 1.68533,0 2.85199,0c0.79501,0 1.375,0 2.32001,0c1.03467,0 1.76599,0 2.51334,0c1.116,0 2.17868,0 2.84732,0c0.97803,0 1.63669,0 2.67386,0c1.09348,0 1.81747,0 2.50949,0c1.19998,0 1.94849,0 3.13599,0c0.78152,0 1.57202,0 2.5,0l0.85419,0" id="svg_1" stroke-width="2" stroke="#000" fill="none"/>
  <path t="2565,2743,2743,2743,2760,2760,2760,2760,2776,2776,2793,2793,2793,2793,2810,2811,2811,2826,2827,2827,2843,2843,2843,2843,2860,2860,2860,2876,2876,2893,2893,2910,2910,2910,2927,2927,2947,2947,2947,2961,2962,2975,2975,2975,2992,2993,2993,3010,3010,3026,3026,3026,3043,3043,3060,3060,3060,3076,3076,3092,3093,3110,3110,3110,3126,3126,3142,3143,3160,3160,3176,3176,3192,3210,3226,3242,3278,3278,3310,3310,3376,3376,3443,3443,3443,3492,3510,3559,3576,3642,3643,3659,3709,3710,3776,3793,3809,3826,3826,3843,3892,3926,3944,3959,3960,3993,4026,4027,4076,4076,4109,4143,4143,4176,4242,4259,4260,4292,4293,4309,4326,4326,4343,4343,4343,4359,4376,4376,4376,4409,4410,4410,4410,4426,4426,4442,4443,4443,4459,4460,4475,4476,4476,4492,4510,4511,4525,4526,4542,4543,4543,4559,4575,4592,4593,4609,4610,4625,4626,4626,4643,4660,4675,4676,4676,4693,4694,4725,4726,4726,4742,4743,4743,4759,4760,4760,4775,4776,4798,4809,4825,4826,4842,4843,4859,4860,4860,4876,4892,4893,4893,4909,4910,4925,4926,4926,4942,4942,4959,4960,4960,4977,4977,4978,4992,4993,4993,5009,5010,5010,5025,5026,5027,5042,5043,5060,5061,5075,5076,5076,5076,5092,5093,5093,5109,5110,5125,5126,5126,5126,5142,5143,5143,5159,5160,5175,5176,5192,5193,5193,5209,5210,5210,5225,5226,5226,5243,5244,5260,5275,5276,5292,5309,5310,5342,5342,5343,5359,5360,5360,5375,5376,5392,5393,5409,5410,5426,5442,5443,5459,5460,5476,5476,5477,5492,5493,5509,5525,5526,5542,5543,5559,5560,5560,5575,5576,5592,5593,5593,5610,5611,5625,5626,5642,5659,5660,5660,5676,5692,5693,5709,5710,5725,5726,5742,5743,5743,5759,5760,5783,5783,5783,5793,5793,5793,5809,5810,5810,5825,5826,5826,5842,5859,5860,5860,5875,5876,5876,5877,5892,5909,5925,5926,5942,5942,5959,5976,5977,5977,5992,5993,6009,6010,6025,6026,6042,6043,6043,6059,6060,6076,6077,6092,6093,6110,6111,6125,6126,6127,6142,6142,6159,6160,6160,6175,6176,6176,6192,6209,6210,6225,6226,6242,6243,6259,6260,6275,6276,6292,6293,6309,6310,6325,6326,6326,6342,6343,6359,6360,6360,6375,6376,6392,6393,6409,6410,6425,6425,6426,6441,6442,6442,6458,6459,6474,6475,6492,6493,6508,6508,6509,6525,6526,6541,6541,6559,6560,6575,6576,6577,6592,6593,6593,6609,6610,6610,6625,6625,6625,6654,6654,6655,6655,6670,6670,6685,6685,6686,6686,6702,6702,6702,6718,6718,6732,6732,6733,6747,6747,6762,6762,6763,6776,6777,6777,6791,6791,6809,6810,6824,6825,6841,6859,6860,6860,6875,6876,6892,6892,6909,6909,6925,6926,6942,6959,6959,6991,6992,7008,7042,7059,7060,7075,7092,7092,7109,7109,7125,7141,7142,7142,7158,7174,7174,7192,7193,7208,7208,7224,7225,7225,7225,7241,7242,7242,7258,7275,7275,7291,7292,7292,7309,7310,7311,7311,7325,7326,7342,7342,7343,7359,7359,7359,7375,7376,7392,7392,7393,7409,7410,7410,7425,7426,7442,7443,7459,7460,7461,7475,7475,7492,7492,7493,7509,7509,7510,7526,7526,7527,7543,7544,7544,7561,7561,7561,7562,7579,7579,7593,7594,7621,7622,7636,7637,7637,7652,7652,7667,7667,7681,7681,7696,7711,7728,7728,7729,7744,7744,7762,7763,7763,7778,7779,7779,7779,7794,7809,7809,7809,7824,7825,7842,7843,7844,7859,7859,7876,7877,7877,7894,7895,7911,7928,7929,7946,7947,7947,7964,7964,7991,7992,7993,8014,8014,8015,8015,8033,8051,8052,8070,8070,8071,8088,8089,8106,8107,8122,8122,8122,8138,8138,8138,8153,8154,8169,8169,8169,8185,8186,8186,8201,8202,8217,8217,8259,8260" d="m149,283c-5.9355,0 -7.092,0 -7.76801,0c-1.23199,0 -1.83066,0 -2.71117,0c-0.83549,0 -1.83817,0 -2.54166,0c-1.3125,0 -1.94679,-0.01929 -2.61917,0.02133c-1,0.06042 -2.1196,0.38962 -2.67334,0.82935c-0.68484,0.54382 -1.45236,1.02615 -2.24916,1.10767c-0.92151,0.09427 -1.95883,0.04166 -2.69017,0.04166c-0.74733,0 -1.49467,-0.00464 -2.9255,0.00015c-0.65567,0.0022 -1.5672,-0.09714 -2.48849,0.1665c-0.83382,0.23862 -1.46816,1.14499 -2.14767,1.47617c-0.89174,0.43463 -1.69768,0.28467 -2.41767,0.44119c-1.1479,0.24954 -1.7279,0.81366 -2.536,1.39999c-0.72487,0.52597 -1.23629,0.85037 -2.08933,1.49448c-0.65015,0.49091 -1.47672,1.01993 -2.39333,1.43219c-0.49906,0.22446 -1.63108,0.88828 -2.08801,1.41467c-0.5763,0.66394 -1.12317,1.3273 -1.872,1.76398c-0.96171,0.56079 -1.56676,0.86224 -2.38933,1.12534c-0.9789,0.31308 -1.84376,0.30511 -2.6,0.72818c-0.86134,0.48187 -1.36588,1.12317 -2.19867,1.6705c-0.73774,0.48486 -1.58316,0.75159 -2.41116,0.93933c-0.96191,0.21811 -1.7288,0.41675 -2.42217,0.83398c-0.85364,0.51367 -1.28997,1.32776 -1.86816,2.09183c-0.49032,0.64795 -1.29618,1.02158 -2.0385,1.6575c-0.701,0.60052 -0.6563,1.44275 -1.214,2.25418c-0.50374,0.73291 -1.25985,1.1073 -1.70866,1.7565c-0.55695,0.8056 -0.95425,1.35849 -1.772,2.18668c-0.52729,0.53403 -1.16671,1.16663 -1.80267,1.80264c-0.68521,0.68527 -1.24992,1.13187 -1.79466,1.88c-0.57869,0.79474 -0.31682,2.04922 -1.00533,2.448c-0.74478,0.43137 -1.5089,0.60281 -1.5595,1.38785c-0.06444,0.99976 -0.57081,1.60147 -1.35633,1.64368c-1.01072,0.05432 -1.90903,-0.10464 -2.60001,0.35715c-0.69488,0.46439 -1.50845,0.64084 -1.98683,1.49802c-0.46268,0.82904 -1.16149,0.88623 -1.89467,1.31598c-0.80849,0.47388 -1.61053,0.53876 -2.09467,1.28c-0.47992,0.7348 0.03208,1.77664 -0.356,2.668c-0.32295,0.74176 -0.71067,1.52127 -0.716,2.36935c-0.00543,0.86328 0,1.88 0,2.8205c0,0.86215 -0.05051,1.69681 0.00017,2.67398c0.04271,0.82349 0.57383,1.51135 0.87883,2.34268c0.29144,0.79437 0.9671,1.55389 1.64184,1.63718c0.70819,0.0874 1.8385,-0.00125 2.8125,0.20831c0.69016,0.1485 1.47849,0.45596 2.66666,0.66669c0.59488,0.1055 1.479,0.155 2.31467,0.16531c1.00126,0.01236 1.91067,0.00134 2.852,0.00134c0.7815,0 1.57201,0 2.69067,0c0.79333,0 1.68533,0 2.64267,0c0.732,0 1.83867,0 2.66666,0c0.83334,0 1.81217,0 2.64317,0c0.95817,0 1.69017,0 2.42217,0c1.096,0 2.07249,0 2.93466,0c0.83334,0 1.81217,0 2.64317,0c0.95817,0 1.69017,0 2.42217,0c1.096,0 2.077,0 3.10133,0c0.672,0 1.416,0 2.52399,0c0.79333,0 1.68567,0 2.68433,0c0.56734,0 1.75817,0 2.64767,0c0.8535,0 1.88917,0 2.57467,0c0.83466,0 1.8315,0 2.57883,0c1.02116,0 1.96166,0 2.82383,0c0.83334,0 1.81217,0 2.64317,0c0.95817,0 1.69017,0 2.42217,0c1.11733,0 2.10133,0 2.77334,0c0.98932,0 2.02666,0 2.79999,0c0.96268,0 1.69467,0 2.42667,0c1.12801,0 1.82133,0 2.82133,0c0.9675,0 1.64584,0 2.90384,0c0.78149,0 1.491,0 2.46432,0c0.8145,0 1.68301,0 2.87834,0c0.59566,0 1.46417,0 2.53349,0c0.93068,0 1.76534,0 2.76668,0c0.79999,0 1.60016,0 2.42082,0c1.14584,0 1.93634,0 2.78984,0c0.59067,0 1.78799,0 2.6685,0c0.83549,0 1.83682,0 2.52083,0c1.16667,0 1.95717,0 2.81067,0c0.59067,0 1.78799,0 2.6685,0c0.83549,0 1.83549,0 2.71016,0c1.01067,0 1.81067,-0.00372 2.81067,0c0.60452,0.00226 1.46417,0.02029 2.42149,0.22134c0.82173,0.17258 1.6761,0.4631 2.57851,0.612c0.88573,0.14615 1.72797,0.16132 2.85699,0.16666c0.72166,0.00342 1.66383,0 2.627,0c0.69067,0 1.75883,0 2.61633,0c0.714,0 1.67033,0 2.44135,0c0.86099,0 2.05566,0 2.63699,0c1.05067,0 2.01601,0 2.78934,0c1.03734,0 1.78133,0 2.88899,0c0.72168,0 1.66383,0 2.62834,0c0.72533,0 1.71466,0 2.51466,0c1,0 1.8,0 2.60001,0c0.9955,0 1.74283,0 2.77466,0c0.94667,0 1.8,0 2.744,0c0.74834,0 1.64534,0 2.55733,0c0.64801,0 1.82401,0 2.63734,0c1.01999,0 1.93733,0 2.68132,0c1.03601,0 1.75351,0 2.658,0c0.86334,0 1.86816,0 2.89,0c0.70801,0 1.452,0 2.48666,0c0.97067,0 1.72784,0 2.62784,0c0.94417,0 1.94734,0 2.57883,0c1.18518,0 1.97867,0 2.75418,0c1.04182,0 1.81516,0 2.78049,0c0.77101,0 1.632,0 2.52917,0c0.8895,0 1.74306,0.01157 2.77882,-0.00015c0.92151,-0.01041 1.61273,-0.05112 2.604,-0.28384c0.80344,-0.18863 1.53012,-0.53445 2.66667,-0.67999c0.97667,-0.12506 1.66499,-0.03601 2.472,-0.03601c1.17867,0 1.776,0 2.63699,0c0.77101,0 2,0 2.84618,0c0.86217,0 1.74243,0.13901 2.674,-0.22134c0.77782,-0.3009 1.563,-0.76822 2.56416,-0.77866c0.70798,-0.00739 1.45703,0.09937 2.48801,-0.00266c0.86417,-0.08551 1.60468,-0.72388 2.14398,-1.14667c0.91476,-0.71713 1.63516,-0.84616 2.5947,-0.85068c0.7515,-0.00354 1.54797,0 2.7735,0c0.64648,0 1.65717,0 2.45715,0c1,0 1.82486,0.14517 2.83334,-0.16666c0.72995,-0.22571 1.70654,-0.73944 2.41733,-0.79733c0.74219,-0.06042 1.78134,-0.03601 2.55466,-0.03601c0.96533,0 1.73633,0 2.59735,0c1.19464,0 1.776,0 2.82666,0c0.95633,0 1.871,0 2.58499,0c0.95367,0 1.935,0 2.85233,0c0.8125,0 1.82465,0.06985 2.508,-0.03601c0.96326,-0.14923 1.61465,-0.70059 2.59335,-0.87866c0.72296,-0.13153 1.89865,-0.08533 2.73199,-0.08533c0.83334,0 1.75067,0 2.49466,0c1.03735,0 1.81067,0 2.77469,0c0.7515,0 1.54797,0 2.7735,0c0.64648,0 1.65698,0.00012 2.43631,0c0.99966,-0.00018 1.84955,-0.07639 2.79019,-0.56799c0.50287,-0.26282 1.24533,-0.8201 2.30914,-1.189c0.66754,-0.23148 1.52017,-0.24167 2.52151,-0.24301c0.79999,-0.00107 1.79999,0 2.60001,0c1,0 1.80002,0.00668 2.79999,0c0.80005,-0.00534 1.61331,-0.03976 2.60001,-0.35266c0.81265,-0.25769 1.79761,-0.595 2.60001,-0.63666c0.99872,-0.05185 1.79999,-0.01068 2.79999,-0.01068c0.81067,0 1.45715,0 2.68533,0c0.55066,0 1.41916,0.00427 2.6145,-0.00015c0.59567,-0.0022 1.47632,0.04059 2.53351,-0.1665c0.96811,-0.18964 1.66754,-0.526 2.5,-0.66669c0.96005,-0.16226 1.64569,-0.15363 2.61331,-0.16531c1.00128,-0.01208 1.92267,-0.08594 2.8175,-0.444c0.60666,-0.24277 1.24319,-0.59045 2.26917,-0.98935c0.91263,-0.35483 1.69272,-0.52756 2.564,-0.56534c1.00626,-0.04364 1.86746,-0.01999 2.82385,-0.224c0.80127,-0.1709 1.55219,-0.50323 2.61084,-0.69333c0.76529,-0.13742 1.73865,-0.08533 2.50964,-0.08533c0.86102,0 1.758,0 2.63702,0c0.80698,0 1.85333,0 2.78931,0c0.80002,0 1.78134,0 2.69867,0c0.91202,0 1.75467,0 2.66669,0c0.91733,0 1.66132,0 2.69867,0c0.77332,0 1.73599,0 2.46799,0c1.16666,0 1.97916,0 2.82132,0c0.85333,0 1.79333,0 2.67868,0c0.75717,0 1.82535,0 2.51599,0c0.96317,0 1.89468,0 2.80533,0c0.85333,0 1.79333,0 2.67868,0c0.75717,0 1.82535,0 2.51599,0c1.00485,0 2.02667,0 2.73468,0c0.74399,0 1.77866,0 2.74933,0c0.81433,0 1.76801,0 2.5,0c1.16666,0 1.85999,0 3,0c0.55334,0 1.52084,0 2.19916,0c1.25769,0 2.01819,0 2.81284,0c0.98801,0 1.97467,0 2.73468,0c0.91998,0 1.71048,0 2.564,0c1.18933,0 1.78799,0 2.66849,0c0.83551,0 1.83685,0 2.74619,0c0.94131,0 1.73181,0 2.58533,0c1.18933,0 1.78665,0 2.64767,0c1.20831,0 1.89099,0 2.875,0c0.92798,0 1.71848,0 2.74515,0c0.68552,0 1.52017,0 2.52151,0c0.79999,0 1.80402,0.03949 2.63599,-0.03601c0.93594,-0.08493 1.71124,-0.32004 2.50269,-0.53867c1.11734,-0.30862 1.91193,-0.41998 2.80432,-0.42532c0.729,-0.00436 1.56601,0 2.75684,0c0.59567,0 1.46423,0.01212 2.53351,0c0.9415,-0.01068 1.6442,-0.04846 2.58817,-0.44266c0.84061,-0.35104 1.35538,-0.79254 2.57849,-1.224c0.58414,-0.20605 1.47009,-0.24661 2.22934,-0.41602c1.14621,-0.25574 1.72067,-0.75711 2.53867,-1.116c0.71783,-0.31494 1.89069,-0.68707 2.58133,-0.76532c0.97839,-0.11087 1.91776,0.03085 2.64532,-0.15033c0.89539,-0.22299 1.30365,-1.0578 2.1055,-1.64285c0.68665,-0.50098 1.70755,-0.7142 2.41583,-0.95883c0.94376,-0.32596 1.8038,-0.2309 2.81735,-0.45065c0.68143,-0.14777 1.40988,-0.43124 2.52399,-0.71219c0.78934,-0.19904 1.68317,-0.5683 2.41467,-0.97183c0.54749,-0.302 1.71948,-0.85123 2.32532,-0.97867c0.85199,-0.1792 1.63885,-0.05771 2.74133,-0.18134c0.99893,-0.112 1.68454,-0.50537 2.26266,-0.79065c1.00284,-0.49487 1.62967,-0.7915 2.59869,-1.51984c0.621,-0.46674 1.134,-1.11526 2.19998,-1.50818c0.57584,-0.21225 1.60107,-0.13879 2.39999,-0.18134c0.80237,-0.04272 1.82281,-0.29291 2.54285,-0.69382c0.9407,-0.52377 1.64429,-1.20215 2.32916,-1.28482c1.0882,-0.13135 1.85989,0.0683 2.56,-0.18134c1.03931,-0.37057 1.33008,-1.12729 2.311,-1.80783c0.67758,-0.47009 1.27545,-0.6192 2.457,-1.02151c0.59589,-0.20291 1.45218,-0.5004 2.22934,-0.71466c1.09082,-0.30072 1.85864,-0.73724 2.2915,-1.30618c0.62842,-0.82602 1.28171,-1.41452 2.08047,-1.6925c0.96875,-0.33716 1.61508,-0.24173 2.59869,-0.508c0.81769,-0.22134 1.80304,-0.59668 2.59998,-0.76398c0.80341,-0.16864 1.6106,-0.57028 2.20001,-1.03552c0.6113,-0.48251 1.59125,-1.23752 2.20001,-1.56848c0.98657,-0.53638 1.62622,-0.77972 2.39996,-1.29602c0.83051,-0.55417 1.35547,-1.16006 2,-1.54532c0.94116,-0.56259 1.74286,-0.61749 2.65186,-0.92651l0.71753,-0.44415l0.7973,-0.39999l0.71252,-0.31952" id="svg_2" stroke-width="2" stroke="#000" fill="none"/>
  <path t="8683,8875,8875,8875,8891,8892,8892,8892,8892,8909,8909,8909,8909,8925,8925,8925,8925,8925,8941,8942,8942,8942,8958,8959,8959,8959,8959,8976,8976,8976,8977,8977,8992,8992,8992,9008,9009,9009,9025,9025,9025,9042,9042,9042,9042,9058,9059,9059,9059,9075,9075,9075,9091,9092,9092,9108,9109,9109,9109,9125,9125,9125,9125,9142,9142,9142,9142,9159,9159,9175,9175,9175,9191,9192,9192,9192,9208,9209,9225,9225,9225,9241,9242,9258,9259,9259,9275,9275,9275,9291,9292,9292,9308,9309,9325,9325,9341,9342,9342,9358,9359,9391,9392" d="m428,290c2.056,0 3.0625,0 3.81351,0c1.18649,0 1.98648,0 2.7865,0c0.79999,0 1.60001,0 2.79999,0c0.80002,0 1.60001,0 2.39999,0c1.20001,0 2,0 2.80002,0c0.79999,0 1.60004,0.00632 2.79999,-0.00034c0.80005,-0.00446 1.6041,-0.00543 2.39999,-0.11398c1.20865,-0.16486 2.00253,-0.44662 2.80002,-0.73636c0.40131,-0.14578 1.1832,-0.50327 2.39999,-0.81598c0.78967,-0.20294 1.58905,-0.2749 2.36401,-0.34802c0.75037,-0.0708 2.1521,-0.26294 2.79999,-0.41064c0.93362,-0.21283 1.83279,-0.43863 2.73151,-0.51752c0.86642,-0.07605 1.93784,-0.05716 2.65631,-0.05716c0.7095,0 1.78152,0 2.75803,0c0.711,0 1.44199,0 2.5235,0c1.00949,0 1.64581,0 2.56534,0c1.20132,0 1.80133,0 2.70132,0c1.19998,0 1.79999,0 2.69998,0c1.20001,0 1.80133,0 2.72086,0c0.63632,0 2.00049,0 2.73181,0c0.74734,0 1.49469,0 2.58069,0c1.005,0 1.625,0 2.47998,0c1.23401,0 1.91202,0 3.10818,0c0.53564,0 1.38916,0 2.57849,0c0.89551,0 1.47916,0 2.31467,0c1.23267,0 1.91068,0 3.10651,0c0.79349,0 1.569,0 2.61084,0c0.77332,0 1.73865,0 2.50964,0c0.86102,0 1.75818,0 2.64767,0c0.85352,0 1.88916,0 2.78983,0c0.61951,0 1.62085,0 2.42084,0c1.00131,0 1.83603,0 3.02115,0c0.79352,0 1.56903,0 2.6095,0l0.71753,0l0.90448,0l0.86334,0" id="svg_3" stroke-width="2" stroke="#000" fill="none"/>
  <path t="10534,10775,10775,10775,10775,10775,10791,10791,10791,10791,10791,10791,10809,10809,10809,10809,10835,10835,10835,10835,10835,10862,10862,10862,10862,10863,10863,10863,10888,10888,10888,10910,10910,10910,10911,10911,10911,10911,10933,10933,10933,10954,10954,10954,10954,10954,10976,10977,10977,10977,10977,10978,10978,10978,10978,10978,11000,11001,11001,11001,11001,11025,11026,11026,11026,11027,11027,11027,11027,11027,11027,11051,11052,11052,11052,11052,11074,11075,11075,11075,11075,11076,11076,11076,11076,11076,11099,11099,11099,11099,11100,11134,11135,11135,11135,11135,11137,11137,11137,11137,11160,11160,11160,11161,11161,11162,11162,11162,11185,11185,11185,11185,11207,11207,11207,11207,11207,11229,11229,11229,11229,11252,11252,11252,11252,11274,11274,11274,11296,11296,11296,11298,11299,11299,11300,11300,11300,11300,11323,11323,11323,11345,11345,11345,11367,11367,11389,11402,11402,11424,11458,11483,11498,11499,11499,11524,11524,11524,11524,11526,11526,11526,11552,11552,11553,11553,11577,11578,11578,11578,11580,11580,11580,11605,11605,11618,11618,11618,11618,11632,11632,11632,11632,11646,11646,11659,11659,11660,11660,11673,11673,11674,11674,11691,11692,11692,11692,11716,11717,11717,11717,11732,11733,11758,11758,11784,11784,11808,11808,11958,12008,12008,12224,12225,12241,12242,12242,12259,12259,12259,12275,12275,12290,12291,12291,12291,12291,12308,12308,12324,12325,12325,12326,12352,12353,12353,12369,12369,12384,12384,12399,12399,12400,12415,12415,12430,12431,12431,12431,12445,12446,12460,12460,12461,12461,12474,12474,12474,12475,12491,12491,12492,12492,12507,12507,12507,12523,12524,12524,12524,12540,12540,12540,12541,12558,12559,12559,12560,12560,12574,12574,12574,12575,12590,12590,12590,12591,12608,12609,12609,12623,12624,12624,12641,12641,12658,12659,12673,12691,12692,12708,12723,12723,12741,12741,12758,12773,12774,12774,12774,12791,12791,12792,12808,12809,12809,12810,12824,12824,12825,12840,12841,12841,12841,12857,12857,12858,12874,12874,12874,12890,12891,12891,12891,12907,12907,12923,12924,12924,12941,12941,12958,12958,12974,12975,13009,13009,13009,13041,13043" d="m391,285c4.40051,-0.44284 5.2132,-0.71066 6.0625,-1.02084c0.90869,-0.33188 1.38229,-0.53754 3.00116,-0.95764c0.582,-0.15103 1.18466,-0.26782 1.79102,-0.38553c1.19601,-0.23218 1.78107,-0.29309 3.31198,-0.63599c0.81418,-0.18237 1.49973,-0.37112 2.32516,-0.81433c0.87109,-0.46771 1.47607,-0.95572 2.16953,-1.43634c0.72253,-0.50079 1.43619,-1.01624 2.517,-1.60651c0.6488,-0.35431 1.29672,-0.58829 2.13498,-1.02548c0.78201,-0.40787 1.44418,-0.95065 2.08218,-1.46466c0.79633,-0.64154 1.63815,-1.11551 2.11917,-1.62201c0.68976,-0.72626 0.95438,-1.58298 1.45465,-2.34799c0.52164,-0.79767 1.28702,-1.45114 1.78,-1.90802c0.48834,-0.45258 1.2977,-1.45309 1.60001,-2.02133c0.48016,-0.90253 0.97537,-1.92529 1.41867,-2.63867c0.23282,-0.37466 0.75214,-1.12314 1.22665,-1.91916c0.70224,-1.17798 0.8765,-1.58981 1.20001,-2.39551c0.31906,-0.79462 0.56003,-1.62354 1.13867,-2.79999c0.40161,-0.81653 0.66489,-1.20319 1.1875,-1.97916c0.51956,-0.77148 1.31262,-1.8541 1.55783,-2.19917c0.46887,-0.65985 1.12445,-1.59395 1.60532,-2.13501c0.70621,-0.79462 1.27484,-1.24203 1.85767,-1.70749c0.617,-0.49275 1.6315,-1.30524 2.34235,-1.9485c0.3721,-0.33673 1.11734,-1.05011 1.49066,-1.416c0.74405,-0.72925 1.80551,-1.79152 2.13867,-2.13068c0.64355,-0.65517 1.263,-1.29044 1.79999,-1.96799c0.80075,-1.01038 1.00296,-1.40067 1.47202,-2.14134c0.47495,-0.74998 0.94254,-1.52614 1.85733,-2.55333c0.31168,-0.34998 1.01086,-0.99294 1.70667,-1.64667c0.34677,-0.32581 1.33655,-1.32657 1.88266,-2.05733c0.53659,-0.718 0.73813,-1.11873 1.27335,-1.80751c0.78558,-1.01096 1.45746,-1.54692 2.13467,-2.05916c0.66949,-0.50641 1.3941,-0.94708 2.09583,-1.89351c0.46375,-0.62544 0.72769,-1.38507 1.065,-2.10899c0.50916,-1.09268 0.95218,-1.77309 1.44983,-2.4015c0.48434,-0.6116 1.04483,-1.1127 1.77866,-2.164c0.47162,-0.67566 0.78146,-1.44745 1.07101,-2.3255c0.21887,-0.66371 0.40857,-1.39105 0.71399,-2.10899c0.4696,-1.10385 0.94662,-1.76941 1.43634,-2.42284c0.49164,-0.65599 1.03946,-1.27643 1.60666,-2.34666c0.37714,-0.71162 0.61865,-1.48894 0.948,-2.226c0.49261,-1.10251 0.94769,-1.77759 1.44534,-2.40601c0.48434,-0.6116 1.42908,-1.67038 1.78,-2.16133c0.46619,-0.65221 1.12552,-1.69397 1.62201,-2.28534c0.51135,-0.60907 1.20938,-1.38152 1.59015,-2.0045c0.37564,-0.61459 0.75607,-1.56259 1.06168,-2.35266c0.33029,-0.85396 0.53476,-1.46841 1.18082,-2.64017c0.32779,-0.59453 0.65515,-1.19447 1.51468,-2.06934c0.55359,-0.56348 1.41724,-0.92676 2.11334,-1.53467c0.68533,-0.59848 0.58588,-1.79831 1.22,-2.46533c0.50729,-0.53362 1.36172,-0.94708 2.10266,-1.29733c0.78992,-0.3734 1.89734,-0.036 2.57834,-0.036c0.80698,0 1.98569,0.00597 2.58432,-0.00133c0.88065,-0.01073 1.73386,-0.00964 2.71866,-0.28534c0.72061,-0.20172 1.44977,-0.60455 2.3255,-1.0345c1.01593,-0.49879 1.73126,-0.84746 2.47452,-1.1095c1.04703,-0.36914 1.7229,-0.48691 2.672,-0.548c0.60837,-0.03915 1.80933,-0.02133 2.68982,-0.02133c0.83551,0 1.83685,0 2.52084,0c1.16666,0 1.96167,0 2.54166,0c0.94501,0 1.97934,0 2.702,0c1.05902,0 1.70169,0 2.89835,0c0.716,0 1.914,0 2.56601,0c0.724,0 1.49597,0 2.69202,0c0.79999,0 1.59998,0 2.39996,0c1.20001,0 1.99878,0.00693 2.78937,-0.01067c0.7749,-0.01724 2.24707,-0.13931 2.92267,-0.27333c0.63391,-0.12575 1.45251,-0.44016 2.51996,-0.63068c0.7655,-0.13663 1.73602,-0.08533 2.71735,-0.08533c0.91736,0 1.72986,0 2.73468,0c0.69067,0 1.75885,0 2.61633,0c0.71399,0 1.69928,-0.16054 2.61298,0.108c0.84326,0.24783 1.22083,1.18527 1.27319,1.94833c0.07001,1.01987 0.01764,1.92285 0.01349,2.54233c-0.00677,1.01039 -0.12103,1.93776 -0.5,2.73466c-0.31171,0.65541 -0.78101,1.31413 -1.224,2.01601c-0.42889,0.6796 -1.06036,1.87132 -1.23431,2.62984c-0.26953,1.17514 -0.39862,1.9769 -0.54169,2.54166c-0.22266,0.87885 -0.41724,2.07639 -0.47467,2.65784c-0.07971,0.80684 -0.20709,1.94038 -0.78699,2.51233c-0.76941,0.75887 -1.65015,1.05838 -1.99548,1.85167c-0.29175,0.67017 -0.16156,1.75374 -0.60901,2.65201c-0.33893,0.6804 -1.17651,1.34801 -1.63916,1.81067c-0.74402,0.744 -1.25006,1.20401 -2.02405,2.02666c-0.56689,0.60258 -1.05707,1.51758 -1.40265,2.24001c-0.26526,0.55458 -0.57172,1.17453 -1.33215,2.02783c-0.56171,0.63031 -1.25433,1.18214 -1.935,1.743c-0.96423,0.79449 -1.55841,1.2438 -2.23834,1.95717c-0.4151,0.43552 -1.04236,1.42082 -1.44781,2.22533c-0.27667,0.549 -0.92493,1.62987 -1.38403,2.09067c-0.71716,0.71988 -1.31201,1.10561 -2.06396,1.85068c-0.5033,0.49869 -1.16278,1.35722 -1.61932,1.93784c-0.70795,0.9003 -1.23624,1.49147 -1.76202,2.10616c-0.53033,0.62 -1.07626,1.24052 -1.64252,2.3105c-0.37402,0.70676 -0.60669,1.46397 -0.89099,2.16901c-0.39731,0.98531 -0.89679,1.80933 -1.27267,2.289c-0.56256,0.7179 -1.20844,1.42207 -1.75781,2.25682c-0.36972,0.56177 -0.91003,1.75833 -1.05334,2.36c-0.19882,0.83476 -0.43387,2.01285 -1.02933,2.30667c-0.90326,0.44569 -1.87421,0.63828 -2.10266,1.508c-0.23157,0.88148 -0.03601,1.76401 -0.03601,2.70401c0,0.88533 -0.02051,1.65544 -0.35266,2.53799c-0.26581,0.70622 -0.55984,1.76266 -0.98068,2.68066c-0.32263,0.70378 -0.69507,1.18283 -1.18399,1.98399c-0.60678,0.99429 -0.98877,1.6926 -1.28134,2.45203c-0.33215,0.86215 -0.51929,1.53513 -0.76532,2.616c-0.16586,0.7287 -0.31296,1.79337 -0.38785,2.45749c-0.10678,0.94681 -0.35669,2.16754 -0.61749,2.75583c-0.26706,0.60236 -0.8024,1.4324 -1.40915,2.48001c-0.39874,0.68848 -0.73218,1.3678 -1.12167,2.34283c-0.21268,0.53238 -0.49634,1.40759 -1.0665,2.57849c-0.29584,0.60757 -0.66443,1.16922 -1.1235,1.98566c-0.48471,0.86203 -0.71259,1.68762 -1.1525,2.55701c-0.36893,0.72913 -0.89441,1.43057 -1.31467,2.31433c-0.38809,0.81613 -0.98773,1.40128 -1.59451,1.90018c-0.81458,0.66974 -1.23749,1.45349 -1.64816,2.24283c-0.41068,0.78934 -0.75717,1.34283 -1.48401,2.11334l-0.69064,0.44" id="svg_4" stroke-width="2" stroke="#000" fill="none"/>
  <path t="14298,14390,14391,14391,14391,14408,14408,14408,14408,14408,14408,14408,14409,14425,14425,14426,14426,14426,14426,14426,14426,14426,14441,14441,14441,14442,14442,14442,14442,14442,14442,14458,14458,14458,14458,14458,14458,14458,14458,14459,14474,14474,14474,14474,14474,14475,14475,14475,14475,14491,14491,14491,14491,14491,14491,14492,14492,14492,14508,14508,14508,14508,14508,14508,14509,14509,14509,14524,14524,14524,14524,14525,14525,14525,14525,14525,14544,14544,14544,14544,14544,14545,14545,14545,14545,14562,14562,14562,14562,14562,14562,14563,14563,14563,14583,14584,14584,14584,14584,14584,14584,14584,14584" d="m463,295c2.97601,0 3.71466,0 4.56534,0c0.47232,0 2.10132,0 2.72083,0c0.65649,0 1.34702,0 2.81799,0c0.77451,0 1.57101,0 2.38651,0c1.67599,0 2.53067,0.00082 3.39334,-0.00134c0.86865,-0.00217 1.74136,-0.00684 2.616,-0.0195c0.87469,-0.01266 1.74759,-0.02985 2.616,-0.06448c1.7179,-0.06854 2.56326,-0.1312 3.40134,-0.20132c0.83496,-0.06989 1.66855,-0.15536 2.50351,-0.255c0.84106,-0.10034 1.68982,-0.21442 2.54849,-0.345c1.76578,-0.26852 2.6745,-0.43289 3.60532,-0.59866c0.95355,-0.16983 1.92938,-0.35052 2.9295,-0.53552c1.02521,-0.18964 2.07593,-0.38611 3.15451,-0.58047c2.24042,-0.40375 3.40552,-0.59967 4.59601,-0.80002c1.21216,-0.20401 2.44293,-0.40775 3.68698,-0.61951c1.25461,-0.21356 2.5159,-0.42981 3.77701,-0.66449c2.51709,-0.46838 3.75983,-0.73328 4.992,-0.996c1.21918,-0.25998 2.42072,-0.52545 3.60602,-0.77701c1.16412,-0.24707 2.30481,-0.48846 3.42596,-0.68698c2.15283,-0.3812 3.19165,-0.50009 4.20001,-0.60001c0.98041,-0.09714 1.93842,-0.16183 2.87402,-0.21301c0.91504,-0.05005 1.81274,-0.08234 2.69397,-0.12299c1.72296,-0.07947 2.56793,-0.13663 3.40265,-0.20267c0.82526,-0.06531 1.64008,-0.14087 2.44501,-0.216c0.7951,-0.07422 1.57965,-0.15173 2.35504,-0.216c1.51929,-0.12595 2.26453,-0.16534 2.99731,-0.19998c0.71857,-0.03397 1.42133,-0.05832 2.10602,-0.08401c0.66467,-0.02496 1.30768,-0.0463 1.92596,-0.08401c1.15814,-0.07068 1.69299,-0.13226 2.19733,-0.19998c0.47571,-0.06387 0.92053,-0.13852 1.33502,-0.216c0.3855,-0.07208 0.73993,-0.14761 1.065,-0.216c0.55988,-0.1178 0.7951,-0.16461 1.00397,-0.19867c0.1842,-0.03003 0.34802,-0.04932 0.49353,-0.06448l0.13049,-0.01016l0.11853,-0.0062l0.1095,-0.00314" id="svg_5" stroke-width="2" stroke="#000" fill="none"/>
  <path t="15581,15873,15874,15890,15891,15891,15907,15908,15941,15941,15941,16057,16058,16074,16091,16108,16108,16124,16124,16140,16140,16157,16158,16158,16173,16174,16174,16174,16190,16190,16191,16191,16191,16207,16208,16208,16224,16224,16224,16224,16224,16240,16241,16241,16257,16258,16258,16258,16258,16258,16274,16274,16274,16274,16275,16290,16291,16291,16291,16291,16307,16308,16308,16308,16308,16308,16308,16324,16324,16324,16324,16358,16361,16361,16361,16361,16373,16373,16373,16373,16373,16373,16385,16385,16385,16385,16396,16397,16397,16397,16397,16416,16416,16416,16416,16416,16429,16429,16429,16430,16430,16446,16446,16459,16459,16459,16474,16475,16508,16540,16541,16561,16590,16707,16774,16790,16791,16807,16823,16823,16839,16839,16857,16858,16858,16873,16890,16907" d="m461,303c6.69067,2.74533 7.42358,2.92996 8.33334,3.16666c0.92526,0.24072 1.69675,0.46826 2.52383,0.9335c0.65445,0.36813 1.30948,1.0665 1.96817,1.72519c0.52197,0.52197 1.2037,1.40207 1.87015,1.81299c0.82584,0.50922 1.82535,0.36166 2.62582,0.36166c0.85333,0 1.79602,0 2.64801,0c1.0405,0 1.81601,0 2.86401,0c0.71848,0 1.42798,0 2.5,0c0.98099,0 1.70831,0 2.47565,0c1.19101,0 1.98969,0 2.78033,0c0.77469,0 1.52533,0 2.58936,0c0.99597,0 1.64667,0.00125 2.98798,0c0.71735,-0.00067 1.4592,0.00156 2.20801,-0.03601c0.74203,-0.0372 2.14331,-0.245 2.81067,-0.38931c0.67667,-0.14633 2.14743,-0.41348 2.5575,-0.45352c0.86597,-0.08456 1.77954,-0.12717 2.70901,-0.23099c0.46637,-0.05209 1.83398,-0.3107 2.6955,-0.60001c0.86038,-0.28891 1.272,-0.49142 2.13666,-0.8075c1.32892,-0.48578 1.79877,-0.61298 2.7627,-0.84668c0.99622,-0.24155 1.51367,-0.33844 3.12,-0.63599c0.55371,-0.10257 1.11481,-0.1936 2.22662,-0.41068c0.54492,-0.10638 1.58771,-0.32828 2.06671,-0.47467c1.2702,-0.38821 2.23315,-0.94965 2.84131,-1.28931c0.62915,-0.35138 1.77936,-0.82227 2.71832,-1.06818c0.50049,-0.13107 1.55078,-0.34763 2.08398,-0.45267c1.56238,-0.3078 2.05615,-0.3924 2.98206,-0.60901c0.87543,-0.20477 1.70813,-0.44415 2.11163,-0.58084c1.21161,-0.41043 1.99915,-0.77145 2.80267,-1.09381c0.79657,-0.31958 1.99481,-0.71533 2.80133,-0.8515c0.80511,-0.13593 1.63483,-0.18173 2.05585,-0.2175c1.31012,-0.11133 2.22821,-0.22864 3.16815,-0.38785c0.4754,-0.08054 1.42358,-0.26105 2.80798,-0.564c0.44525,-0.09744 1.29572,-0.29691 2.08337,-0.47916c1.02557,-0.2373 2.05347,-0.35382 2.88416,-0.63068c0.77136,-0.25708 1.43665,-0.76376 2.19385,-1.18484c1.01788,-0.56601 1.80267,-0.70215 2.6413,-0.70532c1.01221,-0.00385 1.68384,-0.22516 2.44666,-0.716c0.64948,-0.41788 1.87128,-0.34607 1.83069,-1.17065c-0.03973,-0.80716 -0.63147,-1.67508 -1.43414,-2.0925c-0.89667,-0.46634 -1.66656,-0.61127 -2.45801,-1.12067c-0.69403,-0.44672 -1.56647,-0.76205 -2.26117,-0.8855c-0.91089,-0.16187 -1.66266,-0.86536 -1.9267,-1.68134l-0.71198,-0.55469" id="svg_6" stroke-width="2" stroke="#000" fill="none"/>
  <path t="18310,18557,18557,18558,18558,18576,18576,18576,18576,18576,18590,18591,18608,18608,18608,18623,18623,18623,18640,18640" d="m204,343c5.2785,-0.87885 6.14381,-0.94086 6.97917,-1.02084c0.81743,-0.07825 2.03001,-0.28345 2.81683,-0.54849c0.78218,-0.26349 1.50735,-0.59457 2.14799,-0.948c1.02191,-0.56378 1.66328,-1.13477 2.599,-1.58249c0.70757,-0.33856 1.55927,-0.57779 2.457,-0.73352c0.88123,-0.15286 1.692,-0.228 2.6355,-0.6095l0.3325,-0.74249" id="svg_7" stroke-width="2" stroke="#000" fill="none"/>
  <path t="21661,21894,21894,21894,21894,21913,21914,21914,21914,21927,21927,21927,21927,21928,21944,21944,21945,21945,21945,21945,21945,21961,21961,21961,21961,21961,21977,21977,21978,21978,21978,21995,21995,21995,22011,22011,22011,22012,22026,22026,22026,22026,22027,22044,22045,22045,22045,22061,22061,22061,22077,22078,22078,22094,22094,22095,22095,22095,22096,22118,22118,22118,22118,22118,22131,22131,22131,22131,22131,22131,22131,22144,22144,22144,22144,22144,22144,22161,22161,22162,22162,22162,22162,22178,22178,22178,22178,22178,22179,22179,22200,22201,22201,22201,22213,22213,22213,22213,22228,22228,22228,22228,22244,22244,22245,22245,22261,22262,22262,22262,22277,22278,22278,22278,22294,22294,22295,22311,22311,22312,22312,22327,22328,22328,22328,22329,22344,22344,22361,22362,22362,22394,22394,22411,22411,22527,22977,22978,22994,22994,23012,23029,23029,23030,23044,23062,23063,23078,23078,23094,23094,23111,23111,23127,23128,23148,23148,23148,23177,23211,23244,23244,23244,23262,23287,23287,23311,23312,23336,23360,23361,23362,23393,23394,23417,23442,23477,23501,23501,23502,23527,23528,23553,23554,23578,23580,23580,23611,23612,23634,23634,23655,23656,23656,23678,23699,23701,23701,23702,23702,23703,23725,23746,23747,23747,23769,23769,23791,23791,23791,23813,23813,23836,23836,23837,23837,23839,23861,23861,23863,23863,23887,23910,23910,23912,23912,23936,23961,23962,23962,23986,23987,24013,24039,24039,24077,24111,24144,24172,24172,24198,24202,24202,24202,24229,24229,24231,24232,24232,24258,24258,24281,24281,24304,24304,24304,24329,24329,24354,24355,24381,24381,24406,24406,24431,24431,24431,24457,24482,24507,24507,24580,24580,24743,24770,24771,24799,24800,24800,24800,24802,24802,24802,24802,24830,24831,24831,24831,24834,24834,24834,24835,24835,24835,24863,24863,24863,24863,24866,24866,24866,24867,24891,24891,24892,24917,24917,24917,24941,24942,24942,24967,24967,24968,24968,24969,24970,24970,24971,24972,24972,24972,24999,24999,25000,25002,25002,25002,25002,25027,25028,25029,25029,25030,25030,25056,25057,25057,25084,25085,25085,25085,25087,25087,25088,25117,25117,25117,25119,25119,25119,25120,25120,25145,25145,25146,25148,25148,25148,25176,25176,25202,25202,25202,25228,25229,25229,25255,25255,25256,25258,25258,25258,25260,25260,25261,25262,25263,25263,25289,25289,25290,25316,25316,25316,25318,25319,25319,25319,25319,25354,25355,25355,25355,25358,25358,25358,25383,25384,25384,25386,25386,25386,25413,25413,25413,25414,25416,25417,25417,25442,25443,25443,25469,25470,25496,25496,25523,25523,25525" d="m176,336c2.056,-1.20132 2.70921,-1.4068 3.43201,-1.63599c0.77332,-0.24521 1.97081,-0.67859 2.76799,-1.01669c0.80292,-0.34055 1.59122,-0.71692 2.8,-1.18066c0.39757,-0.15253 1.20515,-0.42349 2.04167,-0.64581c0.86891,-0.23096 2.29163,-0.521 2.80099,-0.62119c1.06261,-0.20898 1.60977,-0.31317 2.15733,-0.44131c1.09843,-0.25705 1.65747,-0.36523 3.157,-1.00085c0.48137,-0.20404 1.36868,-0.70169 2.22166,-1.17084c0.41122,-0.2262 1.60991,-0.82751 2.42,-1.03198c0.78168,-0.1973 1.56717,-0.24255 2.31601,-0.336c1.40408,-0.1752 2.05966,-0.33551 2.67467,-0.56534c1.23425,-0.46124 1.81529,-0.83298 2.42133,-1.18933c0.95177,-0.55966 1.95164,-1.17197 2.67334,-1.56134c0.3665,-0.19772 1.10138,-0.59665 1.86333,-0.88834c1.40714,-0.53867 2.0941,-0.59177 3.006,-0.76498c0.56212,-0.10678 1.57286,-0.5036 2.24667,-0.97018c0.69487,-0.48117 1.67839,-1.117 2.25734,-1.34317c0.94731,-0.37006 2.07588,-0.63641 2.91199,-0.83865c0.44046,-0.10654 1.35701,-0.32083 2.2825,-0.61166c0.46846,-0.14722 1.8335,-0.71631 2.70001,-1.19101c0.43684,-0.23932 1.3024,-0.75745 1.758,-0.98932c1.40288,-0.71402 1.92664,-0.88364 3,-1.1955c0.54846,-0.15936 1.11099,-0.289 2.242,-0.55801c0.56549,-0.13449 2.22815,-0.56851 2.76283,-0.73715c0.52969,-0.16708 1.56575,-0.5322 2.07466,-0.72534c1.01187,-0.38403 2.01033,-0.79019 3.01199,-1.18933c0.50301,-0.20044 1.51889,-0.60159 2.03467,-0.80002c1.0481,-0.40323 2.12985,-0.80228 2.68517,-0.99982c1.12535,-0.4003 1.69275,-0.59177 2.25801,-0.77933c1.10953,-0.36813 1.6485,-0.5455 3.17749,-0.99933c0.4691,-0.13922 1.35216,-0.37805 2.15001,-0.61084c1.36378,-0.39792 1.93335,-0.59332 2.69333,-0.93152c0.77667,-0.34564 1.64172,-0.8027 2.30984,-1.13184c0.70984,-0.3497 1.43283,-0.71558 2.5235,-1.18066c1.00589,-0.42896 1.66367,-0.65509 2.31934,-0.86215c1.00955,-0.31885 2.09772,-0.6095 2.84732,-0.78366c0.74521,-0.17313 1.83279,-0.35889 2.51334,-0.43817c0.94427,-0.11002 1.8428,-0.1579 2.80399,-0.65201c0.74347,-0.3822 1.15417,-0.85745 2.32568,-1.40915c0.65274,-0.3074 1.39606,-0.51007 2.16599,-0.71701c1.18719,-0.31906 1.991,-0.49164 2.759,-0.71518c0.72803,-0.21191 1.44778,-0.36801 2.37866,-1.07199c0.76132,-0.57574 1.36969,-1.24982 2.30402,-1.45599c0.73434,-0.16205 1.79459,-0.32175 2.36398,-0.672c0.89395,-0.5499 1.52237,-1.07864 2.5,-1.30402c0.86673,-0.1998 1.64252,-0.08533 2.53802,-0.08533c0.86331,0 1.86816,0 2.88998,0c0.70801,0 1.452,0 2.48666,0c0.97067,0 1.72784,0 2.62784,0c0.94415,0 1.94284,0 2.74283,0c1,0 1.80002,0 2.80002,0c0.79999,0 1.79999,0 2.58932,0c0.72534,0 1.71371,0.18939 2.62134,-0.02133c0.97739,-0.2269 1.37012,-0.88681 2.10532,-1.41068c0.8045,-0.57324 1.62979,-0.95605 2.36935,-1.284c0.88184,-0.39105 1.55438,-0.71149 2.33615,-1.16251c0.76807,-0.44312 1.46597,-0.51053 1.83984,-1.27081c0.37457,-0.76169 1.34555,-0.53326 2.29199,-0.86136c0.7662,-0.26563 1.20911,-0.97159 2.18918,-0.98947c0.69745,-0.01273 1.61777,-0.06207 2.46149,-0.57452c0.65369,-0.39703 1.64868,-0.42166 2.34332,-0.42532c1.01672,-0.00534 1.79971,-0.38525 2.53802,-0.716c0.89236,-0.39975 1.68274,-0.38828 2.36649,-0.98932c0.60959,-0.53586 1.5097,-1.16858 2.24817,-1.25302c0.7283,-0.08325 1.87823,0.0741 2.70001,-0.32565c0.87268,-0.4245 1.62027,-0.74539 2.56799,-1c0.73706,-0.19803 1.48151,-0.36975 2.42215,-0.66785c0.99939,-0.31671 1.42731,-0.80765 2.21436,-1.34283c0.76093,-0.51743 1.60944,-0.62122 2.59549,-0.87198c0.81482,-0.20721 1.59003,-0.59778 2.60001,-0.78067c0.79398,-0.14377 1.60245,-0.26675 2.37915,-0.55267c1.00281,-0.36917 1.85596,-0.31696 2.65683,-0.57199c0.9361,-0.2981 1.28928,-1.03406 2.19736,-1.59467c0.70816,-0.43719 1.51758,-0.90689 2.48798,-1.21185c0.65454,-0.20569 1.69818,0.06311 2.47736,-0.20682c0.80719,-0.27966 1.50635,-1.25363 2.03732,-1.72934c0.552,-0.49457 1.58554,-0.93799 2.29199,-1.20001c0.86096,-0.31934 1.58057,-0.94711 2.22385,-0.98083c1.10529,-0.05795 1.58112,-0.77338 2.29483,-0.9938c0.96127,-0.29688 1.70065,-0.01068 2.73868,-0.01068c0.948,0 1.62,0 2.60931,0c0.86267,0 1.81067,0 2.77469,0c0.7515,0 1.54797,0 2.54532,0c0.87466,0 1.88535,0 2.68533,0c1,0 1.79999,0 2.60001,0c0.99548,0 1.74283,0 2.76401,0c0.94049,0 1.80264,0 2.63599,0c0.97882,0 1.80984,0 2.76801,0c0.73199,0 1.46399,0 2.56,0c0.9765,0 1.83865,0 2.672,0c0.97849,0 2.15137,-0.52982 2.62933,0.17065c0.40723,0.5968 -0.58206,1.53381 -1.17218,2.25085c-0.45157,0.54871 -0.98404,1.09387 -1.50897,1.68298c-0.79071,0.88739 -1.4906,1.79486 -1.94818,2.37466c-0.44788,0.5675 -1.14929,1.3736 -1.68668,1.83685c-0.82932,0.7149 -1.47659,1.1344 -2.47998,1.85065c-0.35544,0.25372 -1.0827,0.79294 -1.85419,1.3125c-0.77597,0.52261 -1.15616,0.80038 -2.379,1.37817c-0.78137,0.3692 -1.59058,0.61591 -2.34299,0.948c-1.10846,0.48923 -1.78003,0.9472 -2.39984,1.43466c-0.58524,0.46027 -1.47549,1.35846 -2.21732,1.66269c-0.66248,0.27167 -1.69467,0.37201 -2.31601,0.53333c-0.97046,0.25195 -2.07489,0.63745 -2.64801,0.97467c-0.74905,0.4407 -1.72372,1.08292 -2.36267,1.40399c-0.66766,0.33551 -1.32678,0.68112 -2.54532,1.01733c-0.75784,0.20911 -1.54834,0.2995 -2.41068,0.61099c-0.67346,0.24326 -1.71918,0.75677 -2.38934,1.15967c-0.94373,0.56735 -1.44348,1.01205 -2.18265,1.56134c-0.93408,0.69412 -1.46313,0.96152 -2.2645,1.31516c-0.74707,0.32971 -1.71115,0.83862 -2.38333,1.27802c-0.89029,0.58194 -1.49789,0.89954 -2.15836,1.24283c-0.67618,0.35147 -1.93292,0.98587 -2.47382,1.24283c-0.75119,0.35684 -1.83847,0.75784 -2.47202,0.9585c-1.01215,0.32059 -1.74734,0.42685 -2.76917,1.12c-0.63434,0.4303 -0.99908,1.11295 -1.80731,1.65717c-0.69177,0.46579 -1.61981,0.72769 -2.6235,1.02151c-0.71381,0.20895 -1.45316,0.39474 -2.172,0.63599c-0.69736,0.23401 -1.89197,0.84674 -2.6405,1.34317c-0.46899,0.31104 -1.43509,0.81152 -2.2355,0.9595c-1.00903,0.18655 -1.97296,0.43118 -2.59067,0.76584c-0.95355,0.5166 -1.72586,0.79437 -2.24649,1.05267c-1.04953,0.52072 -1.70789,1.0882 -2.40085,1.59015c-0.69949,0.50668 -1.49612,0.8941 -2.28601,1.242c-0.92871,0.40903 -1.63776,0.797 -2.14398,1.38135c-0.65442,0.75543 -1.11743,1.54614 -1.52185,2.02399c-0.758,0.89566 -1.40891,1.32477 -2.1955,1.888c-0.81436,0.5831 -1.40433,1.13373 -2,1.71866c-0.80859,0.79401 -1.20953,1.2222 -1.91434,1.85583c-0.80582,0.72446 -1.44943,1.23285 -2.147,1.75751c-0.35669,0.26828 -1.06854,0.81192 -2.172,1.452c-0.66614,0.38641 -1.64157,0.74637 -2.39465,1.216c-0.8526,0.53168 -1.24051,1.16504 -1.73999,1.71866c-0.75726,0.83932 -1.27048,1.23737 -2.14102,1.68436c-0.86203,0.44263 -1.79349,0.57407 -2.655,0.76498c-1.07986,0.23932 -1.78738,0.65335 -2.23599,0.97018c-0.69037,0.48758 -1.67538,1.11752 -2.52084,1.45831c-0.5773,0.2327 -1.77792,0.62338 -2.37015,0.81635c-0.83575,0.27231 -2.02972,0.41766 -2.68768,0.76584c-0.85767,0.45383 -1.1785,1.23334 -1.90399,1.76932l-0.8075,0.2175l-0.758,0.59918" id="svg_8" stroke-width="2" stroke="#000" fill="none"/>
  <path t="25983,26143,26143,26143,26143,26144,26160,26161,26161,26161,26161,26161,26176,26176,26176,26176,26176,26193,26193,26193,26194,26194,26194,26194,26210,26210,26211,26211,26211,26211,26226,26226,26226,26226,26226,26243,26243,26243,26244,26244,26260,26260,26261,26261,26261,26261,26277,26277,26277,26277,26277,26293,26293,26293,26294,26294,26294,26310,26310,26311,26311,26311,26327,26327,26327,26327,26343,26343,26343,26344,26344,26344,26360,26360,26361,26361,26376,26377,26377,26377,26377,26393,26394,26394,26394,26410,26411,26411,26411,26411,26425,26426,26426,26426,26443,26443,26444,26444,26461,26461,26461,26475,26476,26493,26493,26510,26511,26511,26526,26527,26543,26543,26544,26576,26577,26577,26593,26593,26594,26619,26619,26634,26634,26660,26660,26660,26662,26689,26726,26727,26760" d="m195,339c4.62151,-2.6355 5.55562,-2.84146 6.036,-2.892c0.97226,-0.10229 1.96533,-0.10599 2.964,-0.108c1,-0.00201 2,0 2.5,0c1,0 1.5,0 3.00017,0c1.00433,0 1.5105,0 2.53583,0c0.52116,0 2.13068,0.00098 2.68533,-0.00015c1.13133,-0.00232 1.7041,-0.00653 2.27867,-0.02069c1.14757,-0.02832 1.71861,-0.03568 3.37849,-0.2005c0.53719,-0.05334 1.58551,-0.20398 2.10068,-0.27866c1.01633,-0.14734 1.51686,-0.24265 3.02066,-0.37851c0.49812,-0.04501 1.48936,-0.09183 2.46417,-0.11081c0.47879,-0.00931 1.86934,-0.00659 2.75333,-0.01202c0.86803,-0.00534 1.74437,-0.02802 2.1925,-0.05582c1.42496,-0.08838 2.45834,-0.2254 2.9955,-0.2955c0.54553,-0.0712 1.64348,-0.22601 2.18933,-0.29468c1.5706,-0.19754 2.53604,-0.26941 2.9955,-0.3045c0.8891,-0.0679 1.76636,-0.11328 3.07651,-0.3815c0.45811,-0.09378 1.38647,-0.37045 2.33333,-0.66666c0.47491,-0.14856 1.40324,-0.49112 2.7785,-0.75699c0.85797,-0.16586 1.28467,-0.1868 2.11082,-0.22168c0.80884,-0.03415 2.01088,-0.01559 2.81517,-0.02582c0.81642,-0.01038 1.65538,-0.02402 2.96216,-0.16217c0.91971,-0.09723 1.38602,-0.186 2.33334,-0.33334c0.94733,-0.14734 1.41302,-0.24298 2.7785,-0.37866c0.86279,-0.08572 1.70154,-0.10913 2.517,-0.17401c1.20605,-0.09595 2.00519,-0.22745 2.8045,-0.37265c0.80069,-0.14548 1.59671,-0.31705 2.79999,-0.45352c0.79822,-0.09055 1.60382,-0.11273 2.39999,-0.23099c1.2074,-0.17935 2.00253,-0.45111 2.80002,-0.74084c0.40131,-0.14578 1.18295,-0.50421 2.39999,-0.81598c0.78958,-0.20227 1.58829,-0.28104 2.36401,-0.31201c1.46832,-0.05862 2.14932,-0.02133 2.78931,-0.02133c0.88501,0 1.92535,0 2.84668,0c0.68399,0 1.94818,0 2.73868,0c0.92798,0 1.76132,0 2.80399,0c0.70801,0 1.452,0 2.48935,0c0.77332,0 1.73865,0 2.50964,0c0.86102,0 2.05701,0 2.64767,0c0.85352,0 1.88934,0 2.81067,0c0.68399,0 1.94818,0 2.73868,0c0.92798,0 1.76135,0.00778 2.80383,-0.00015c0.69754,-0.00531 1.65341,-0.00034 2.41583,-0.49985c0.63144,-0.4137 1.52567,-0.5 2.38898,-0.5l0.89102,-0.00449" id="svg_9" stroke-width="2" stroke="#000" fill="none"/>
  <path t="29351,29511,29511,29511,29529,29529,29529,29529,29529,29552,29552,29553,29572,29572,29572,29572,29590,29590,29590,29590,29609,29609,29609,29609,29627,29627,29627,29644,29645,29645,29662,29662,29662,29681,29681,29681,29698,29698,29698,29714,29715,29730,29747,29748,29764,29764,29764,29778,29778,29794,29795,29811,29811,29811,29828,29828,29843,29843,29844,29844,29861,29861,29861,29878,29878,29878,29878,29893,29893,29893,29893,29911,29911,29912,29912,29936,29936,29936,29936,29951,29951,29952,29952,29967,29967,29994,29994,29995" d="m184,338c0.91467,4.23468 0.9884,5.0415 0.99867,5.93866c0.01312,1.14661 0.00133,2.07202 0.00133,2.56268c0,0.99731 0.00288,1.48798 0,2.832c-0.00226,1.047 -0.00041,1.90079 -0.16667,3c-0.09673,0.63943 -0.26831,1.32608 -0.40799,2.052c-0.27792,1.44443 -0.35403,2.12973 -0.38934,2.78931c-0.05231,0.97714 -0.036,1.992 -0.036,2.70801c0,0.73199 0,1.8075 0,2.784c0,0.82352 0,1.78152 0,2.75485c0,0.81448 -0.00224,1.68298 0,2.57849c0.00226,0.89551 -0.04198,1.77646 0.16667,2.83334c0.1425,0.72189 0.42126,1.39777 1.15466,2.36649c0.46815,0.61835 1.00604,1.16342 1.79333,1.91351c0.56685,0.54007 1.40605,0.89859 2.37067,0.88531c0.72609,-0.01001 1.73926,-0.16464 2.51466,-0.54031c0.62286,-0.30176 1.43002,-0.90894 1.95833,-1.45834c0.75809,-0.78836 1.03101,-1.66116 1.04167,-2.54285c0.0087,-0.71841 0,-1.50897 0,-2.77316c0,-0.68399 0,-1.85065 0,-2.64114c0,-0.56369 0,-1.44418 0,-2.64417c0,-0.60934 0,-1.55585 0,-2.56534c0,-0.71735 0,-1.83334 0,-2.58069c0,-1.086 0,-1.76865 0,-2.75266c0,-0.65268 0,-2.02133 0,-2.75266c0,-0.74734 0,-1.49469 0,-2.58069c0,-1.01398 0,-1.66666 0,-2.65067c0,-1.03699 0,-1.75964 0,-2.47433c0,-0.987 -0.00267,-1.98831 -0.11433,-2.8425l-0.45366,-0.96716l-0.28267,-0.48267l-0.444,-0.74399" id="svg_10" stroke-width="2" stroke="#000" fill="none"/>
  <path t="30347,30461,30461,30461,30461,30478,30478,30478,30478,30494,30494,30494,30494,30495,30495,30511,30511,30511,30511,30511,30511,30511,30528,30528,30528,30528,30528,30528,30528,30544,30544,30545,30545,30545,30545,30561,30561,30561,30561,30561,30561,30561,30578,30578,30578,30578,30579,30579,30579,30579,30594,30594,30595,30595,30595,30611,30611,30611,30611,30611,30611,30612,30628,30628,30628,30628,30644,30644,30644,30645,30661,30661,30661,30678" d="m191,373c2.97067,-0.91467 3.67177,-0.97217 4.42134,-0.98932c0.78117,-0.01788 1.97887,-0.00494 2.78316,-0.01517c0.81642,-0.01038 1.65565,-0.02148 2.96217,-0.16217c0.92264,-0.09937 1.39867,-0.18195 2.375,-0.39584c0.50706,-0.11108 1.5544,-0.38251 2.625,-0.77084c1.12794,-0.40915 1.68806,-0.67645 2.25867,-0.93866c0.5768,-0.26508 1.72411,-0.83298 2.29066,-1.13068c1.12155,-0.58936 1.66168,-0.89844 2.72684,-1.48831c0.52077,-0.28839 1.02914,-0.58142 2.05266,-1.09467c0.49976,-0.25061 2.00204,-0.87939 2.50583,-1.04636c1.00433,-0.33282 1.52139,-0.46164 2.55583,-0.77332c0.52916,-0.15942 2.16689,-0.73166 2.72818,-0.96667c0.57449,-0.24054 1.15782,-0.49625 2.32533,-1.08533c0.59758,-0.30151 1.19707,-0.61948 2.38933,-1.30933c0.60297,-0.34888 1.19975,-0.7121 2.37866,-1.448c0.58087,-0.36258 1.14883,-0.72479 1.707,-1.0755c0.54318,-0.34128 2.06937,-1.27103 2.54634,-1.5405c0.91298,-0.51578 1.8177,-0.9859 2.27333,-1.21753c1.42499,-0.7244 1.937,-0.97299 2.45999,-1.2345c1.064,-0.53201 1.593,-0.79648 2.11201,-1.056c0.98398,-0.492 2.23296,-1.12665 2.903,-1.44699c0.84404,-0.40353 1.37975,-0.62762 2.58766,-1.01566c0.67982,-0.21838 1.3967,-0.39606 2.064,-0.68402c1.22693,-0.52945 1.88467,-1.11465 2.39467,-1.63065l0.55251,-0.94235" id="svg_11" stroke-width="2" stroke="#000" fill="none"/>
  <path t="30884,31094,31094,31094,31094,31094,31112,31112,31129,31129" d="m250,335c1.757,8.79218 1.84883,9.36899 1.92799,10.39868c0.06726,0.87485 0.06934,1.62399 0.07201,2.82932l0,0.7095l0,1.04099l0,0.82019" id="svg_12" stroke-width="2" stroke="#000" fill="none"/>
  <path t="31672,31760,31761,31761,31761,31761,31761,31778,31778,31778,31778,31778,31778,31778,31778,31778,31793,31793,31793,31793,31793,31793,31810,31810,31810,31810,31810,31828,31828,31828,31828,31927,31944,31960,31961,31961,31978,31978,31993,32011,32027,32028,32078,32078,32096,32097,32115,32115,32115,32115,32132,32132,32132,32132,32150,32150,32150,32166,32183,32183,32183,32198,32198,32216,32216,32216,32230,32230,32246,32246,32247,32262,32262,32262,32278,32278,32278,32278,32306,32333" d="m303,334c0,2.42917 0,3.44751 0,4.02667c0,0.61917 0,1.95749 0,2.66666c0,1.47333 0,2.22766 0,2.98801c0,0.76233 0,1.52267 0,2.27701c0,0.74432 0,1.47467 0,2.18698c0,1.99017 0,2.59866 0,3.18317c0,1.10901 0,1.6395 0,2.66751c0,1.50366 0,2.00134 0,2.98267c0,0.47968 0,1.40701 0,2.68799c0,0.76001 0.004,1.75 0,2.56c-0.00534,1.08005 -0.55838,1.23807 -1.10016,0.45203c-0.45316,-0.65744 -0.70651,-1.28867 -1.55252,-1.91702c-0.64349,-0.47794 -1.65631,-0.80017 -2.38898,-1.26166c-0.77121,-0.48578 -1.47916,-0.51968 -2.625,-0.5c-0.79266,0.01364 -1.61179,0.53815 -1.89734,1.29333c-0.37994,1.00488 -0.36319,1.6752 -0.39999,2.36801c-0.03842,0.72342 -0.03601,2.172 -0.03601,2.85333c0,0.96448 -0.00723,1.58084 0.00015,2.78482c0.00531,0.86856 -0.35699,1.91034 0.36603,2.52899c0.74634,0.63861 1.63916,0.17151 2.38315,0.17151c1.108,0 1.90176,0.02841 3.01868,-0.00266c0.73276,-0.02039 1.59964,0.02039 2.41766,-0.71167c0.64014,-0.57288 0.90302,-1.49182 1.33517,-2.30652c0.35516,-0.66953 0.81317,-1.39304 1.29382,-2.21515c0.33298,-0.56952 0.88724,-1.75549 1.01468,-2.36133c0.1792,-0.85199 0.168,-1.63202 0.17065,-2.86102l0,-0.84616" id="svg_13" stroke-width="2" stroke="#000" fill="none"/>
  <path t="33663,33827,33827,33827,33827,33827,33843,33844,33844,33844,33844,33844,33844,33844,33860,33861,33861,33861,33861,33861,33861,33861,33877,33877,33877,33878,33878,33893,33894,33894,33894,33993,34010,34010,34027,34028,34043,34060,34060,34061,34110,34144,34160,34161,34177,34178,34193,34194,34194,34210,34211,34211,34227,34227,34228,34228,34260,34260,34277,34277,34294,34310,34327,34327" d="m275,343c-2.6355,2.20767 -2.85492,3.08789 -2.9375,4.125c-0.04486,0.56339 -0.05576,1.15463 -0.0625,3.04166c-0.00235,0.65485 0,1.31866 0,1.99051c0,0.67883 0,2.0535 0,2.74734c0,0.69681 0,2.09549 0,2.79517c0,0.69766 0,1.39133 0,2.75867c0,0.66965 0,1.32733 0,1.97098c0,1.82733 0,2.39734 0,3.47736c0,0.50998 0,1.47 0,2.75998c0,0.76001 0.0011,1.44 0,2.31c-0.00134,1.05002 -0.47159,1.74744 -1.18533,1.40201c-0.8338,-0.40353 -1.52097,-0.99875 -2.33551,-1.39951c-0.81186,-0.39944 -1.43918,-1.03198 -1.99515,-1.41116c-0.90677,-0.61847 -2.08209,-0.68835 -2.39868,0.00269c-0.35077,0.76569 -0.14011,1.83374 -0.04932,2.62933c0.1153,1.01025 0.46307,1.86209 1.02133,2.22931c0.89774,0.59052 1.63873,0.52573 2.69901,0.56168c1.07642,0.0365 1.75699,0.009 2.702,0.009c0.85498,0 1.89908,0.20352 2.659,-0.07199c0.8165,-0.29602 0.87366,-1.27985 0.88266,-2.29202l0,-0.94049l0,-0.86215l0,-0.83334" id="svg_14" stroke-width="2" stroke="#000" fill="none"/>
  <path t="35634,35743,35743,35743,35743,35743,35760,35761,35761,35761,35761,35761,35777,35777,35777,35777,35777,35793,35793,35793,35793,35810,35810,35811,35927,35943,35943,35977,35993,35993,35993,36010,36010,36027,36060,36060,36077,36077,36093,36093,36110,36110,36110,36143,36143,36143,36160,36160,36160,36160,36177,36177,36177,36193,36193,36210,36210,36243,36243,36260,36260,36293,36294,36329,36330" d="m107,336c2.6355,3.74316 2.85374,4.61627 2.9375,5.5625c0.04371,0.49387 0.0605,1.52551 0.0625,2.60416c0.00207,1.116 0,1.68152 0,2.8125c0,0.55951 0,1.11102 0,2.6875c0,0.96133 0,1.85068 0,2.27084c0,1.1745 0,2.241 0,2.90533c0,0.9465 0,1.55585 0,2.75449c0,0.86102 0.38329,1.70984 -0.02133,2.72c-0.30141,0.75253 -1.33049,0.68042 -2.364,0.68268c-0.94801,0.00204 -1.62,0 -2.60934,0c-0.86234,0 -1.80267,-0.00372 -2.64133,0c-1.01219,0.00452 -1.99258,0.06604 -2.292,0.87201c-0.25559,0.68799 -0.072,1.73248 -0.072,2.58514c0,0.96436 0,1.77884 0,2.64734c0,0.89551 -0.12927,1.82239 0.144,2.6235c0.34686,1.01685 1.26728,1.48792 1.9185,1.7095c0.68674,0.23367 1.76846,0.42035 2.77133,0.50534c0.6026,0.05106 1.83283,0.05722 2.64533,0.05716c0.84217,-0.00009 1.79395,0.20047 2.63417,-0.28799c0.64546,-0.37524 0.827,-1.47821 0.86583,-2.21201c0.06167,-1.16522 0.02084,-1.83865 0.02084,-2.82132l0,-0.85333" id="svg_15" stroke-width="2" stroke="#000" fill="none"/>
  <path t="37100,37277,37277,37277,37277,37293,37293,37293,37293,37293,37293,37293,37310,37310,37310,37310,37311,37311,37327,37327,37327,37327,37327,37328,37328,37343,37343,37343,37343,37343,37359,37360,37360,37360,37376,37393" d="m82,312c2.97467,0 3.704,0 4.52934,0c0.92933,0 1.97066,0 3.124,0c0.60916,0 1.23333,0 1.8675,0c1.27833,0 1.9125,0 3.14583,0c1.164,0 1.7235,0 2.272,0c1.076,0 1.6095,0 3.228,0c0.55467,0 1.686,0 2.25867,0c1.14934,0 1.722,0 2.29067,0c1.66216,0 2.196,0 3.22666,0c0.97467,0 1.4385,0 2.724,0c1.11,0 1.75,0 2.56001,0l1.10133,0l0.9675,-0.00449" id="svg_16" stroke-width="2" stroke="#000" fill="none"/>
  <path t="37750,37943,37943,37943,37943,37959,37959,37960,37960,37960,37960,37976,37977,37977,37977,37977,37993,37993,37993,38009,38009,38159,38176,38177,38177,38193,38193,38193,38193,38209,38209,38209,38210,38226,38227,38227,38243,38243" d="m92,303c4.40033,0 5.209,0 6.04166,0c0.87267,0 2.29167,0 2.801,0c1.06267,0 1.608,0 2.70667,0c0.54533,0 2.11733,0 2.60734,0c0.92,0 1.75999,0 2.52,0c1.28033,0 2.05133,0 2.92067,0c0.99816,0 1.88526,-0.48172 2.861,0.0625c0.64127,0.35767 0.52802,1.52069 0.53716,2.10815c0.02103,1.35071 0.0045,2.08652 0.0045,2.85019c0,0.78366 0.00409,1.97919 -0.00134,2.77649c-0.00532,0.78137 0.03758,1.5397 -0.16533,2.86932c-0.08672,0.56821 -0.408,1.51202 -0.66667,2.33334l-0.14583,0.97916" id="svg_17" stroke-width="2" stroke="#000" fill="none"/>
  <path t="38494,38692,38692,38693,38693,38709,38709,38709,38709,38710,38726,38726,38726,38727,38742,38743" d="m98,303c-1.82933,3.88666 -1.94443,4.64578 -1.97867,5.44666c-0.03589,0.83945 -0.02133,1.72 -0.02133,2.63602c0,0.93201 0,1.85599 0,2.3075c0,1.27649 -0.0045,2.39099 -0.02084,3.04733l-0.0645,0.87451l-0.19866,1.00266l-0.216,0.66449" id="svg_18" stroke-width="2" stroke="#000" fill="none"/>
 </g>
 <g display="none">
  <title>muse_image</title>
  <image xlink:href="http://farm2.static.flickr.com/1387/531326560_e50926d902.jpg" id="muse" height="480" width="640" y="0" x="0"/>
 </g>
 <g display="none">
  <title>bbox</title>
  <rect stroke="#f00" fill="none" stroke-width="3" height="139.52" width="496.64" y="243.2" x="80.64" id="bbox"/>
 </g>
</svg>
