<svg width="640" height="480" xmlns="http://www.w3.org/2000/svg" xmlns:svg="http://www.w3.org/2000/svg" xmlns:xlink="http://www.w3.org/1999/xlink">
 <!-- Sketchy ANNOTATION
  ImageNet ID: n02691156_8226
  URL: http://farm1.static.flickr.com/121/293486558_c4629d3862.jpg
  Image Width: 500
  Image Height: 375
  BBox X: 0
  BBox Y: 65
  BBox Width: 493
  BBox Height: 269
  Exposure: 2000ms
  Synset Label: airplane
  Synset ID: n02691156
  Worker Tag: jet fighter plane
  Sanity Check: 
   Context
   Saved
   Shading
  Comment: 
   {}
  Worker ID: A2JP8W265WCC35
  Assignment ID: 3IXQG4FA2TYOS2LBQ8JH2Q9YXEN9BG
  HIT ID: 3DW3BNF1GHI10R2D0VZ1EMD9G4W8V5
  Work Time: 62s
  Worker Score: 0.8571
 END ANNOTATION -->
 <g display="inline">
  <title>Layer 1</title>
  <path t="0,100,115,115,139,139,155,179,179,195,195,195,219,219,235,235,235,235,259,259,275,275,275,275,299,299,299,299,315,315,315,339,339,339,339,339,355,355,355,355,355,379,379,379,379,379,379,395,395,395,395,395,395,395,419,419,419,419,419,419,419,419,435,435,435,435,435,435,435,459,459,459,459,459,459,459,459,459,475,475,475,475,475,475,475,499,499,499,499,499,499,500,515,515,515,515,515,515,516,539,540,540,540,540,540,555,555,555,555,555,579,579,579,579,579,595,595,595,595,595,619,619,619,619,635,635,635,635,635,651,651,651,652,675,675,675,675,675,691,691,691,691,691,691,691,715,715,715,715,715,715,731,731,731,731,731,731,755,755,755,755,755,755,755,771,771,771,771,771,771,771,794,795,795,795,795,795,795,795,810,811,811,811,811,811,834,835,835,835,835,835,851,851,851,851,851,874,875,875,875,875,895,895,895,895,915,915,915,915,915,931,931,931,931,931,955,955,955,955,956,971,971,971,971,971,994,995,995,1010,1011,1011,1011,1034,1035,1050,1051,1051,1079,1079,1091,1091,1114,1115,1131,1155,1170,1194,1210,1211,1234,1235,1250,1274,1290,1306,1307,1330,1331,1346,1347,1370,1371,1371,1387,1387,1410,1411,1411,1426,1427,1427,1466,1467,1467,1491,1491,1506" d="m260.51135,130.09091c-2.5,0.5 -3.31662,0.92891 -4.21066,0.98933c-0.98679,0.0667 -1.88187,-0.23923 -2.62132,0.29601c-0.70717,0.51186 -1.18184,1.28096 -2.168,1.54799c-0.78415,0.21233 -1.61421,0.20082 -2.40134,0.45201c-0.85342,0.27235 -1.76315,0.72044 -2.55133,1.01466c-0.81978,0.30603 -1.37025,0.48311 -2.36333,0.89999c-0.916,0.38454 -1.85049,0.80049 -2.64117,1.10451c-0.56352,0.21667 -1.45599,0.55724 -2.34283,1.01683c-0.60854,0.31537 -1.49071,0.87021 -2.09999,1.19467c-1.1842,0.63062 -1.80127,0.86951 -2.436,1.03732c-1.31464,0.34756 -2.05029,0.36792 -2.81067,0.42134c-0.79964,0.05618 -1.64235,0.08813 -2.97484,0.24666c-0.46475,0.0553 -1.41405,0.20688 -2.38916,0.35333c-0.49362,0.07413 -1.98894,0.26321 -2.4895,0.30417c-1.00363,0.08212 -2.02118,0.13579 -2.53583,0.1825c-1.05055,0.09534 -2.13269,0.26224 -2.68567,0.3815c-1.14453,0.24686 -1.72525,0.4176 -2.32001,0.578c-1.2205,0.32916 -1.84137,0.51161 -3.125,0.8125c-0.65291,0.15305 -1.31645,0.28725 -2.65866,0.54134c-0.67424,0.12764 -1.34978,0.24837 -2.022,0.37801c-0.66911,0.12904 -1.98883,0.40274 -3.27,0.73132c-0.63594,0.1631 -1.26755,0.34294 -1.90349,0.51601c-1.28813,0.35057 -1.94438,0.53424 -3.3125,0.83333c-0.70734,0.15463 -1.43399,0.28537 -2.17201,0.4095c-0.74466,0.12524 -1.49442,0.23802 -2.24399,0.3465c-0.7451,0.10783 -1.4837,0.20215 -3.60767,0.51068c-0.67267,0.09772 -1.32883,0.19907 -1.97101,0.29999c-0.63048,0.09909 -1.86305,0.29961 -2.46933,0.40001c-1.2028,0.1992 -2.40396,0.40024 -3.00717,0.5c-0.60612,0.10023 -1.83141,0.30054 -2.45267,0.39999c-0.62807,0.10054 -1.90939,0.30074 -3.22417,0.5c-0.66226,0.10037 -1.32278,0.19923 -1.97699,0.3c-0.64445,0.09926 -1.88881,0.28989 -3.04167,0.5c-1.04704,0.19083 -1.53395,0.2957 -2.45833,0.5c-0.88626,0.19588 -1.32172,0.30585 -2.66301,0.60001c-0.93045,0.20406 -1.40416,0.29918 -2.35333,0.5c-0.9415,0.1992 -2.3042,0.49911 -2.74133,0.59999c-0.85907,0.19826 -1.70853,0.4035 -2.56799,0.60001c-1.33594,0.30544 -1.79886,0.39915 -2.73067,0.59999c-0.92419,0.19919 -1.37938,0.28394 -2.65201,0.60001c-0.76645,0.19035 -1.8121,0.50136 -2.48149,0.7c-1.0179,0.30206 -1.7364,0.5029 -2.48784,0.7c-0.7739,0.20299 -1.56529,0.40018 -2.76399,0.70001c-0.79997,0.2001 -1.60001,0.39999 -2.40001,0.59999c-1.2,0.3 -2.00182,0.50356 -2.82133,0.7c-0.84979,0.2037 -1.29089,0.31012 -2.71199,0.60001c-0.50877,0.10379 -1.57692,0.30238 -2.12801,0.41066c-1.12485,0.22101 -1.69275,0.33701 -2.256,0.47467c-1.66844,0.40779 -2.19859,0.59755 -3.25734,0.92934c-0.5253,0.16461 -1.57393,0.49196 -2.10933,0.616c-1.62665,0.37686 -2.20058,0.40782 -2.77317,0.4595c-1.16234,0.1049 -1.75366,0.12166 -2.34733,0.158c-1.79604,0.10994 -2.39613,0.16766 -2.99551,0.23717c-1.20137,0.13933 -1.8004,0.23282 -2.39999,0.32533c-1.20084,0.1853 -2.40014,0.38852 -3.00017,0.48949c-1.20461,0.20271 -1.81086,0.30853 -2.42067,0.42067c-0.61553,0.11319 -1.86678,0.35432 -3.14583,0.64584c-0.65572,0.14944 -1.3166,0.31497 -1.98151,0.48599c-1.33221,0.34265 -1.99036,0.52252 -2.642,0.69467c-0.64037,0.16917 -1.87497,0.49239 -3.03917,0.76733c-0.55562,0.13121 -1.62867,0.36604 -2.14933,0.47466c-1.01804,0.21236 -2.02143,0.41019 -3.02,0.61067c-0.49688,0.09976 -1.48093,0.29796 -2.44417,0.5c-0.47205,0.09901 -1.83625,0.39822 -2.7045,0.60001c-0.85307,0.19826 -1.70499,0.4015 -2.13667,0.5c-1.33611,0.30484 -2.26499,0.5009 -2.73067,0.61066c-0.92571,0.21819 -1.83344,0.42836 -3.04266,0.91051c-0.74923,0.29874 -1.42896,0.69116 -2.148,0.96899c-1.10925,0.4286 -1.96236,0.55504 -2.856,0.6485c-0.45879,0.04799 -1.39377,0.0762 -2.772,0.22801c-0.88394,0.09737 -1.31188,0.17877 -2.14583,0.35416c-0.81883,0.1722 -2.02179,0.47543 -2.82084,0.68051c-0.80096,0.20557 -1.60599,0.4162 -2.4,0.68399c-1.20959,0.40794 -1.99518,0.7636 -2.38933,0.92934c-0.77404,0.3255 -1.5049,0.69606 -2.92534,1.01601c-0.64216,0.14464 -1.58624,0.18173 -2.48533,0.336c-0.90235,0.15483 -1.76918,0.42964 -2.31467,0.63466c-1.24081,0.46634 -1.87572,0.79654 -2.68533,1.19867c-0.80105,0.39789 -1.60349,0.79311 -2.39867,1.2c-0.76877,0.39337 -1.53033,0.97833 -2.22667,1.364c-0.81182,0.44963 -1.76484,0.38261 -2.6175,0.78867c-0.80972,0.3856 -1.36946,1.00404 -2.0425,1.56334c-0.66928,0.55618 -1.44564,0.82942 -2.19867,1.28267c-0.66943,0.40294 -1.82055,0.51712 -2.56867,0.85849c-0.71672,0.32704 -1.4455,0.78827 -2.29467,0.99551c-0.92163,0.22493 -1.51591,0.76602 -2.49933,0.91133c-0.83168,0.12288 -1.83818,0.01489 -2.65333,0.05682c-0.81747,0.04204 -1.81309,0.27263 -2.5,0.47917c-1.16196,0.3494 -1.9543,0.43167 -2.77467,0.52533c-1.06117,0.12114 -1.76751,0.34375 -2.45067,0.54933c-0.93482,0.28131 -1.72283,0.37267 -2.51333,0.45067l-1.11833,0.196l-0.72167,0.35333l-0.92133,0.40451" id="svg_1" stroke-width="2" stroke="#000" fill="none"/>
  <path t="2420,2540,2563,2563,2603,2603,2620,2620,2643,2660,2684,2684,2700,2700,2700,2724,2724,2739,2740,2740,2764,2764,2764,2764,2780,2780,2804,2804,2804,2820,2820,2820,2843,2843,2843,2843,2860,2860,2860,2860,2884,2884,2900,2900,2900,2916,2916,2941,2941,2941,2941,2955,2955,2955,2980,2980,2980,2996,2996,3020,3020,3020,3036,3036,3060,3060,3060,3076,3076,3100,3100,3116,3116,3139,3139,3140,3180,3180" d="m261.51135,122.09091c0.57468,1.636 0.84543,2.49818 1.05267,3.34734c0.22495,0.92163 0.71603,1.52375 0.922,2.478c0.14755,0.68353 0.59607,1.61906 0.97269,2.47467c0.34076,0.7742 0.81964,1.45195 1.53665,2.18533c0.51987,0.53174 1.07587,1.08493 1.63068,1.91466c0.51706,0.77328 0.87598,1.6048 1.29599,2.41068c0.33902,0.65045 0.89941,1.61797 1.24652,2.1375c0.5361,0.8024 0.89191,1.33821 1.74149,2.0825c0.72412,0.63438 1.46634,1.11159 1.97601,1.80533c0.54431,0.74086 1.09329,1.58186 1.66699,2.164c0.4071,0.41309 1.37415,1.20772 1.9155,1.60001c0.84479,0.61217 1.44446,0.99956 2.3425,1.59982c0.59152,0.39539 1.43564,0.95395 1.92966,1.31483c0.97568,0.71277 1.51352,1.24338 2.25601,1.96933c0.53174,0.51988 1.08392,1.07817 2.11917,1.76334c0.61374,0.4062 1.56436,0.9158 2.0795,1.23666c0.81949,0.51041 1.35535,0.87656 2.3945,1.49467c0.68039,0.40471 1.34741,0.73393 2.3215,1.50533c0.62039,0.49129 1.17206,1.07129 2,1.63068c0.5817,0.39301 1.59305,0.89983 2.19998,1.18083c0.79144,0.36644 1.80353,0.5974 2.60001,0.72983c1.00525,0.16714 1.80307,0.48901 2.39999,0.776c1.00528,0.48331 1.78586,0.8963 2.59985,1.07733c0.95197,0.21172 1.7551,0.39325 2.46149,0.696c0.85706,0.36732 1.8595,0.42534 2.65601,0.50934l0.996,0.2l0.64499,0.216" id="svg_2" stroke-width="2" stroke="#000" fill="none"/>
  <path t="3724,3803,3804,3828,3828,3828,3844,3844,3844,3844,3868,3868,3868,3868,3868,3884,3884,3884,3884,3908,3908,3908,3908,3908,3908,3924,3924,3924,3924,3924,3948,3948,3948,3948,3948,3964,3964,3964,3964,3988,3988,3988,4004,4004,4004,4027,4027,4028,4044,4044,4044,4068,4068,4068,4068,4084,4084,4084,4084,4084,4108,4108,4108,4108,4108,4124,4124,4124,4124,4124,4147,4148,4148,4148,4164,4164,4164,4164,4164,4187,4188,4188,4188,4204,4204,4204,4204,4227,4227,4228,4228,4228,4244,4244,4244,4244,4268,4268,4268,4268,4284,4284,4284,4284,4300,4300,4300,4348,4348,4364" d="m306.51135,76.09091c1.3045,2.6 1.72327,3.42501 2.3215,4.20016c0.48779,0.63206 1.10287,1.2408 1.6785,1.9665c0.61728,0.77821 1.00314,1.36156 1.34283,1.995c0.52853,0.98553 0.77798,1.72068 1.03186,2.46367c0.25549,0.7477 0.46606,1.50951 0.94681,2.5535c0.47281,1.02676 0.89746,1.678 1.27985,2.3905c0.4075,0.75931 0.80362,1.5978 1.19867,2.492c0.20251,0.45839 0.59778,1.39146 0.79999,1.856c0.59369,1.36401 0.99564,2.22997 1.42084,3.06183c0.21082,0.41244 0.64612,1.23095 1.40033,2.42067c0.25534,0.4028 0.79916,1.18571 1.3175,1.96416c0.49744,0.74707 1.14203,1.80337 1.4425,2.47884c0.27881,0.62679 0.56491,1.55019 0.69751,2.457c0.12946,0.88525 0.11026,1.7554 0.34265,2.77883c0.16058,0.70728 0.49323,1.36124 0.69467,2.60667c0.08844,0.54668 0.09174,1.42637 0.30533,2.61466c0.10864,0.60453 0.40042,1.49081 0.612,2.7c0.10483,0.59903 0.15265,1.54153 0.16217,2.21433c0.01581,1.1189 0.00449,1.955 0.00449,2.847c0,0.924 0.00104,1.3905 0,2.772c-0.00067,0.88133 0.0018,1.73113 -0.03598,2.55599c-0.03711,0.81 -0.172,2.01308 -0.32117,2.81067c-0.15012,0.80266 -0.34607,1.60031 -0.44418,2c-0.2948,1.20094 -0.49866,2 -0.69867,2.8c-0.19998,0.8 -0.5,2 -0.69998,2.8c-0.20001,0.8 -0.39993,1.60001 -0.60001,2.39999c-0.30008,1.19986 -0.49246,1.99892 -0.72083,2.77917c-0.22455,0.7672 -0.62631,1.86363 -0.96451,2.53549c-0.33182,0.65918 -0.71826,1.27933 -1.51468,2.48534c-0.39777,0.60236 -0.80283,1.2056 -1.23599,1.8c-0.44147,0.6058 -1.18094,1.50394 -1.71667,2.09999c-0.54291,0.60402 -1.11252,1.18472 -1.88065,2.10001c-0.49435,0.58905 -1.15054,1.49252 -1.61935,2.04283c-0.69077,0.81085 -1.21173,1.29611 -2.04733,1.9155c-0.53528,0.39679 -1.57767,1.0213 -2.25333,1.40567c-0.58444,0.33247 -1.4895,0.936 -2.04532,1.436l-0.70135,0.7" id="svg_3" stroke-width="2" stroke="#000" fill="none"/>
  <path t="4901,4980,4980,5004,5004,5004,5020,5020,5020,5020,5036,5036,5036,5036,5036,5036,5060,5060,5060,5060,5060,5060,5060,5075,5075,5075,5075,5075,5076,5076,5076,5100,5100,5100,5100,5100,5100,5100,5100,5100,5116,5116,5116,5116,5116,5116,5116,5116,5116,5140,5140,5140,5140,5140,5140,5140,5140,5140,5155,5156,5156,5156,5156,5156,5156,5156,5156,5180,5180,5180,5180,5180,5180,5180,5180,5196,5196,5196,5196,5196,5196,5196,5219,5220,5220,5220,5220,5220,5236,5236,5236,5236,5236,5236,5236,5259,5260,5260,5260,5260,5260,5260,5275,5276,5276,5276,5276,5276,5276,5300,5300,5300,5300,5300,5300,5315,5315,5315,5316,5316,5316,5316,5316,5339,5340,5340,5340,5340,5356,5356,5356,5356,5380,5380,5380,5380,5380,5380,5396,5396,5396,5396,5396,5420,5420,5420,5420,5420,5436,5436,5436,5436,5436,5436,5459,5460,5460,5460,5460,5460,5475,5476,5476,5476,5476,5476,5476,5476,5500,5500,5500,5500,5500,5500,5515,5516,5516,5516,5516,5516,5540,5540,5540,5540,5540,5555,5556,5556,5556,5556,5579,5579,5580,5580,5580,5595,5596,5596,5596,5596,5596,5620,5620,5620,5620,5620,5636,5636,5636,5636,5636,5652,5652,5652,5652,5652,5675,5675,5676,5676,5676,5676,5691,5691,5692,5692,5692,5692,5692,5692,5715,5716,5716,5716,5716,5731,5731,5732,5732,5732,5755,5755,5755,5756,5771,5771,5772,5772,5795,5795,5796,5796,5796,5811,5811,5811,5812,5812,5835,5835,5836,5836,5851,5851,5851,5852,5876,5876,5876,5876,5877,5891,5891,5892,5892,5892,5915,5915,5916,5916,5931,5931,5932,5932,5955,5956,5956,5971,5972,5972,5972,5995,5995,5996,5996,6011,6011,6035,6035,6036,6051,6052,6052,6052,6075,6075,6076,6091,6092,6092,6115,6115,6116,6131,6131,6132,6156,6156,6156,6156,6172,6172,6172,6195,6195,6196,6196,6196,6211,6211,6212,6212,6212,6235,6235,6236,6236,6253,6253,6254,6254,6269,6269,6270,6292,6292,6293,6293,6308,6308,6331,6332,6371,6371,6395,6395,6435,6435,6436,6475,6540,6540,6595,6596,6620,6795,6814,6876,7020,7059,7060,7076,7076,7099,7115,7140,7140,7155,7179,7219,7243,7259,7275,7299,7315,7316,7339,7355,7355,7379,7379,7380,7395,7395,7419,7419,7420,7435,7436,7436,7459,7459,7460,7475,7475,7499,7515,7539,7540,7540,7556,7557,7579,7595,7595,7619,7619,7635,7635,7659,7659,7660,7675,7676,7676,7699,7715,7715,7716,7739,7739,7755,7756,7756,7779,7779,7780,7795,7796,7796,7819,7819,7835,7835,7859,7860,7860,7875,7876,7876,7891,7891,7892,7915,7915,7931,7931,7932,7955,7955,7971,7972,7972,7972,7995,7996,7996,8011,8012,8012,8012,8035,8036,8036,8036,8051,8052,8052,8052,8075,8076,8076,8076,8077,8091,8092,8092,8092,8093,8115,8116,8116,8116,8116,8131,8132,8132,8132,8133,8155,8156,8156,8156,8171,8172,8172,8172,8172,8195,8196,8196,8196,8211,8212,8212,8213,8213,8235,8235,8236,8236,8236,8251,8252,8252,8252,8276,8276,8276,8291,8292,8292,8292,8315,8315,8316,8331,8332,8332,8332,8355,8355,8356,8356,8371,8372,8372,8395,8396,8396,8396,8411,8412,8412,8412,8412,8428,8428,8451,8452,8452,8452,8467,8468,8468,8468,8491,8492,8492,8507,8508,8508,8531,8531,8532,8547,8548,8548,8571,8571,8572,8572,8587,8588,8588,8635,8651,8652,8715,8795,8820,8838,8839,8859,8860,8860,8876,8876,8877,8899,8899,8900,8915,8915,8916,8916,8939,8939,8940,8940,8955,8956,8957,8957,8979,8980,8980,8980,8995,8996,8996,8996,9011,9012,9012,9012,9035,9036,9036,9051,9052,9052,9052,9075,9076,9076,9076,9091,9091,9092,9092,9092,9115,9115,9116,9116,9131,9132,9132,9132,9133,9133,9155,9155,9156,9156,9156,9157,9171,9172,9172,9172,9173,9173,9195,9196,9196,9196,9196,9197,9197,9211,9212,9212,9213,9213,9213,9214,9235,9235,9236,9236,9237,9237,9251,9252,9252,9252,9253,9253,9275,9276,9276,9276,9277,9277,9291,9292,9292,9293,9293,9293,9294,9315,9315,9316,9316,9316,9317,9331,9332,9332,9332,9333,9333,9355,9356,9356,9356,9357,9357,9357,9371,9372,9372,9372,9373,9373,9373,9395,9396,9396,9396,9397,9397,9397,9411,9412,9412,9413,9413,9413,9414,9435,9436,9436,9436,9437,9437,9437,9451,9452,9452,9453,9453,9453,9454,9454,9455,9475,9476,9476,9476,9477,9477,9477,9478,9491,9492,9493,9493,9493,9494,9494,9495,9515,9516,9516,9517,9517,9517,9518,9518,9519,9531,9532,9532,9533,9533,9534,9534,9534,9535,9556,9556,9557,9557,9558,9559,9572,9572,9573,9573,9574,9574,9595,9596,9596,9597,9597,9611,9612,9612,9613,9627,9628,9628,9629,9629,9651,9652,9652,9652,9653,9653,9667,9668,9668,9669,9669,9691,9692,9692,9693,9693,9694,9708,9708,9709,9709,9731,9732,9732,9733,9747,9748,9748,9771,9772,9772,9787,9788,9788,9789,9811,9812,9812,9827,9828,9828,9829,9829,9851,9852,9852,9852,9853,9867,9868,9868,9869,9869,9870,9870,9893,9894,9895,9895,9896,9896,9897,9907,9908,9908,9908,9909,9909,9931,9932,9933,9933,9934,9934,9935,9935,9948,9949,9950,9951,9951,9952,9952,9953,9954,9971,9972,9972,9973,9973,9974,9974,9987,9988,9988,9989,9989,9990,9991,9991,10011,10012,10012,10013,10013,10014,10014,10015,10027,10028,10029,10029,10030,10030,10031,10051,10051,10052,10052,10053,10053,10053,10067,10068,10068,10069,10070,10070,10071,10091,10092,10092,10092,10093,10093,10094,10107,10108,10108,10109,10110,10110,10131,10132,10132,10133,10133,10147,10147,10148,10148,10149,10149,10171,10171,10172,10172,10173,10173,10187,10188,10188,10189,10189,10190,10190,10203,10204,10205,10205,10206,10207,10207,10227,10228,10229,10229,10230,10230,10231,10231,10243,10244,10245,10245,10246,10247,10247,10247,10267,10267,10268,10268,10269,10269,10283,10284,10284,10284,10285,10285,10307,10308,10308,10308,10309,10309,10323,10324,10325,10325,10326,10347,10347,10348,10348,10363,10364,10365,10365,10387,10387,10388,10388,10403,10404,10405,10405,10406,10427,10428,10428,10429,10429,10443,10444,10445,10446,10467,10468,10468,10469,10469,10483,10484,10484,10485,10507,10508,10509,10509,10523,10524,10525,10525,10547,10547,10563,10564,10565,10565,10587,10587,10588,10588,10589,10603,10604,10605,10605,10606,10627,10628,10629,10629,10630,10643,10645,10646,10646,10647,10667,10667,10668,10669,10683,10684,10685,10685,10710,10711,10712,10723,10723,10724,10747,10748,10875,10900" d="m310.51135,80.09091c2.37469,2.37466 2.87451,2.89368 3.66168,3.65717c0.57809,0.56069 1.00504,0.96983 2.02634,1.74416c0.55878,0.42365 1.19101,0.84035 1.884,1.284c1.16492,0.74577 1.59778,1.00147 2.5,1.55067c0.46921,0.28561 1.43689,0.86868 1.93066,1.16533c0.9971,0.59903 1.99924,1.19999 2.50632,1.49867c0.51157,0.30132 1.56143,0.90291 2.10535,1.2c0.55472,0.30299 1.7149,0.90848 2.95767,1.50134c0.64474,0.30757 1.31033,0.61009 1.99048,0.9195c0.69449,0.31594 1.40451,0.6345 2.12552,0.96449c1.48041,0.67757 2.23352,1.03575 2.99731,1.39734c0.77188,0.36542 1.54929,0.735 2.33551,1.0965c0.78845,0.36253 1.57944,0.72107 2.38049,1.0515c1.59052,0.6561 2.39645,0.93251 3.19736,1.2c0.79483,0.26547 1.59018,0.5096 2.38049,0.7485c0.78433,0.2371 1.56528,0.46378 2.33548,0.7035c1.52191,0.47369 2.26529,0.73473 3,1.00134c0.72961,0.26476 1.44968,0.5405 2.16452,0.816c0.71051,0.27383 1.41483,0.55131 2.11951,0.816c1.39835,0.52525 2.1004,0.76536 2.80133,1c0.6991,0.23402 1.39999,0.45867 2.09998,0.684c0.70001,0.22534 1.40152,0.44819 2.10001,0.684c1.40305,0.47368 2.10065,0.73508 2.79868,0.99866c0.69763,0.26343 1.38965,0.53462 2.08051,0.7965c1.36169,0.51617 2.02872,0.77254 3.35416,1.1875c0.64172,0.2009 1.27798,0.36797 2.50934,0.68267c0.59448,0.15194 1.18466,0.2682 2.28534,0.61867c1.04913,0.33405 2.00931,0.79284 2.46667,1.04633c0.91635,0.50788 1.35287,0.81193 2.27332,1.38833c0.96213,0.6025 1.47299,0.90044 2.53732,1.50183c0.54449,0.30767 1.09775,0.61103 1.64401,0.9315c1.0889,0.63881 2.12344,1.32237 2.608,1.68517c0.94958,0.71095 1.3894,1.09674 1.84265,1.458c0.90021,0.71748 1.33136,1.11259 2.84283,1.978c0.51489,0.29481 1.06232,0.5438 2.17801,1.022c0.56219,0.24097 1.13403,0.46183 1.6965,0.7035c1.67062,0.71781 2.2023,0.99712 2.73001,1.279c1.06009,0.56625 1.58093,0.88016 2.10532,1.2c1.6232,0.99007 2.16895,1.35855 2.72867,1.721c0.56296,0.36455 1.12363,0.73054 2.22134,1.456c0.53079,0.3508 1.04163,0.69356 2.43298,1.61833c0.79675,0.52956 1.16312,0.77716 1.86835,1.22166c0.67365,0.42459 1.7168,1.02275 2.45316,1.42583c0.76297,0.41763 1.55875,0.83377 2.74283,1.56218c0.40384,0.24843 1.20178,0.78192 1.97919,1.35416c0.388,0.2856 1.14621,0.86798 2.19949,1.77901c0.34085,0.29482 0.98828,0.89836 1.64667,1.46416c0.65112,0.55956 1.69168,1.32187 2.43182,1.78784c0.37662,0.23711 1.16483,0.69231 1.94418,1.2175c0.81079,0.54637 1.60233,1.19576 1.99866,1.5405c0.80753,0.70242 1.19601,1.07991 2,1.8075c0.79605,0.72038 1.59872,1.40402 2.01349,1.72551c0.83856,0.65001 1.27997,0.96976 2.24252,1.55583c1.02902,0.62656 1.60391,0.90953 2.802,1.50133c0.61591,0.30423 1.24255,0.59882 1.866,0.90001c0.61856,0.29883 1.24408,0.56334 2.91165,1.50017c0.51614,0.28996 1.00604,0.59146 1.92267,1.22066c0.45004,0.30891 1.32556,0.96117 2.20834,1.64584c0.91867,0.71252 1.38126,1.0818 1.84799,1.448c0.92352,0.72461 1.36884,1.08427 2.65201,2.052c0.38852,0.293 1.11716,0.82841 1.8125,1.29166c0.66306,0.44173 1.68387,1.04826 2.40616,1.44167c0.74698,0.40686 1.52454,0.80161 2.31601,1.20001c0.79782,0.40161 1.6019,0.79506 2.39865,1.21066c0.80334,0.41904 1.21417,0.62306 2.39999,1.356c0.81137,0.5015 1.20148,0.79056 2.02084,1.33333c0.83328,0.55199 1.24744,0.84671 2.60034,1.57851c0.45596,0.24664 1.39294,0.68668 1.858,0.90067c0.90991,0.41867 2.194,1.00867 2.95151,1.42082c0.71429,0.38864 1.38086,0.80527 2.05197,1.20001c1.03424,0.60832 1.77872,1.00507 2.164,1.21066c0.79938,0.42654 1.6427,0.86978 2.52002,1.356c0.92419,0.51221 1.39502,0.79425 2.39581,1.33333c0.51788,0.27895 1.03818,0.58821 2.77084,1.33333c0.60318,0.25938 1.23151,0.48524 1.86749,0.705c0.63739,0.22025 1.91174,0.61763 2.53668,0.8c0.60843,0.17755 1.76276,0.49397 2.80649,0.77766c0.94824,0.25774 1.39865,0.36726 2.24252,0.63667c1.22141,0.38994 2.01804,0.71965 2.80283,1.08333c0.78073,0.36182 1.53424,0.74974 2.58917,1.364c0.6701,0.3902 1.30267,0.79691 1.91699,1.2c0.90747,0.59546 1.50076,1.00783 2.42532,1.60001c0.63293,0.40538 1.64059,1.0096 2.3645,1.39867c0.74539,0.40062 1.1275,0.59828 1.91916,0.94417c1.18411,0.51735 1.99142,0.7807 2.78485,1.02116c0.77209,0.23399 1.52936,0.42081 2.58936,0.73616c0.99994,0.29749 1.65125,0.52399 2.3053,0.78517c1.04517,0.41736 1.77521,0.76768 2.53687,1.1355c0.78571,0.37941 1.97931,0.97876 2.37897,1.17917c0.79608,0.3992 1.5835,0.79219 2.34302,1.2c1.09662,0.58879 1.77423,0.9982 2.43182,1.40001c0.65173,0.39822 1.30096,0.81474 2.34668,1.39983c0.72565,0.40599 1.47351,0.79008 2.22601,1.14301c1.07886,0.506 1.76398,0.7771 2.711,1.13634c0.57874,0.21954 1.62872,0.60272 2.31628,0.93149c0.68695,0.32849 1.65057,0.905 2.46136,1.42534c0.57733,0.37051 1.16467,0.76637 2.06384,1.36383c0.88879,0.59053 1.45953,0.97153 2.01483,1.31483c0.99194,0.61327 1.87463,1.07466 2.6853,1.48534c0.81067,0.41066 1.46521,0.74367 2.42133,1.32133c0.53595,0.32382 1.34943,0.8596 1.89471,1.19467c0.99304,0.61017 1.67542,0.98219 2.36798,1.28265c0.98853,0.42883 1.8205,0.68939 2.63202,1.00134c1.0058,0.38661 1.69312,0.7041 2.36798,1.08533c1.01575,0.57384 1.54071,0.95923 2.42047,1.46201c0.88458,0.50557 1.49615,0.76419 2.37469,1.15266c0.56494,0.2498 1.60901,0.8089 2.30615,1.336c0.73456,0.5554 1.53815,1.1803 2.18536,1.56267c0.69116,0.40833 1.44177,0.7858 2.23199,1.116c1.18463,0.49501 1.9928,0.73262 2.38666,0.86c0.77472,0.25056 1.54492,0.46542 2.92664,1.108c0.66882,0.31105 1.29395,0.69344 1.96802,0.948c1.0174,0.38422 2.14099,0.5116 2.89069,0.584c0.74103,0.07156 1.81085,0.1765 2.46362,0.347c0.92731,0.2422 2.00769,0.78662 2.47638,1.12233c0.68396,0.48991 1.23547,1.10458 2.28534,1.75433c0.57623,0.35661 1.60406,0.6156 2.37915,0.76167c1.00604,0.18959 1.61865,0.65297 2.50616,1.2c0.70514,0.43463 1.52179,0.78627 2.30402,1.2c0.73224,0.38727 1.46735,0.88531 2.21063,1.60001c0.61169,0.58813 1.10797,1.33086 1.79999,1.71466c0.82452,0.45728 1.8786,-0.05772 2.6792,0.30617c0.77325,0.35146 1.25031,1.19533 1.6875,1.97917c0.36359,0.65187 1.13708,1.29625 1.6333,1.8c0.68445,0.69485 1.03644,1.54706 1.42139,2.3c0.39014,0.76317 0.76569,1.60007 0.77863,2.5c0.01263,0.87932 0.60962,1.40207 1.05267,2.10449c0.48688,0.77191 0.78375,1.64256 1.1687,2.39551c0.39014,0.76317 0.75159,1.55382 1.06396,2.38533c0.27954,0.74417 0.80493,1.71956 1.11469,2.304c0.38788,0.73187 1.04724,1.5663 1.39996,2.17999c0.57629,1.00272 0.7226,1.56163 0.91467,2.43333c0.26099,1.18442 0.22998,1.78995 0.33801,2.64018c0.13226,1.04095 0.45734,1.94135 0.74866,2.55582c0.47662,1.00537 0.96173,1.71268 1.14154,2.64417c0.18195,0.94281 0.02997,1.9248 0.06781,2.59317c0.04352,0.76773 0.37128,1.7486 0.63666,2.50684c0.35657,1.01874 0.35272,1.97849 0.35266,2.65717c-0.00006,0.97867 -0.05701,1.89447 -0.35718,2.66165c-0.31775,0.81219 -0.75787,1.75433 -1.03217,2.56369c-0.185,0.5459 -0.44836,1.60733 -0.58533,2.52798c-0.11298,0.75949 -0.57233,1.72861 -1.02533,2.41333c-0.42517,0.64267 -0.7699,1.37128 -1.41064,2.21869c-0.45392,0.60028 -1.08185,1.37823 -1.58936,2.1355c-0.35321,0.52704 -0.97333,1.56073 -1.37463,2.24316c-0.37305,0.63443 -1.10938,1.63599 -1.62537,2.23599c-0.51599,0.60001 -1.11597,1.3978 -1.47913,1.97916c-0.62335,0.99789 -1.00281,1.55365 -1.84253,2.121c-0.69092,0.46683 -1.37506,0.76871 -2.3623,1.38516c-0.54712,0.34164 -1.37939,0.89856 -2.14935,1.51468c-0.72058,0.5766 -1.12592,0.97824 -2,1.83334c-0.54187,0.53009 -1.3222,1.18591 -2.00269,1.56665c-0.7536,0.42166 -1.55731,0.8172 -2.39996,1.20001c-0.9223,0.41898 -1.71649,0.71066 -2.28485,0.87915c-0.87384,0.25903 -2.07819,0.44962 -2.6792,0.48483c-0.89899,0.05267 -2.10016,0.03601 -2.70447,0.03601c-0.93152,0 -1.58081,0 -2.61682,0c-1.104,0 -1.85333,0 -2.59467,0c-1.06287,0 -2.06934,0 -2.74536,0c-0.70801,0 -1.88165,0 -2.75299,0c-0.92731,0 -1.40698,0 -2.38831,0c-1.49719,0 -1.99603,0 -2.98669,0c-0.48981,0 -1.45349,0 -2.84399,0c-0.88269,0 -1.31403,0 -2.16669,0c-0.85266,0 -2.16663,0 -3.08264,0c-0.46552,0 -1.39648,0 -2.3075,0c-1.27649,0 -2.04053,0 -2.74854,0c-1.00946,0 -2.02795,0 -2.74664,0c-0.75067,0 -1.52533,0 -2.31598,0c-1.19885,0 -2.00317,0 -2.81952,0c-0.83636,0 -2.14581,0 -3.06317,0c-0.46869,0 -1.41602,0 -2.36334,0c-1.38599,0 -1.83099,0 -2.69098,0c-0.82001,0 -1.60004,0 -3.04016,0c-0.66437,0 -1.61084,0 -2.22021,0c-1.20264,0 -1.81195,0 -2.75848,0c-1.00946,0 -2.091,0 -2.82196,0c-0.711,0 -1.97821,0 -2.7702,0c-0.75598,0 -1.89349,0 -2.56049,0c-0.711,0 -1.44202,0 -2.86865,0c-0.66437,0 -1.61084,0 -2.22021,0c-1.20264,0 -1.81195,0 -2.75848,0c-1.00946,0 -2.09998,0 -2.86365,0c-0.78366,0 -1.97919,0 -2.77652,0c-0.78131,0 -1.53064,0 -2.23199,0c-1.20132,0 -1.94983,0 -3.13733,0c-0.79498,0 -1.375,0 -2.32001,0c-1.03448,0 -1.76147,0 -2.85199,0c-0.69199,0 -1.892,0 -2.6405,0c-0.70349,0 -1.70618,0 -2.54166,0c-0.88049,0 -2.07916,0 -2.67917,0c-0.89999,0 -2.10001,0 -2.70001,0c-0.89999,0 -2.10001,0 -2.69998,0c-0.90002,0 -1.80002,0 -2.69968,0c-0.879,0 -1.686,0 -2.72968,0c-0.97067,0 -1.77066,0 -2.67065,0c-0.89999,0 -1.82083,0 -2.62167,0c-0.92499,0 -1.845,0 -2.63101,0c-0.82199,0 -1.88065,0 -2.59467,0c-0.90533,0 -1.87415,0 -2.68866,0c-0.8685,0 -2.06415,0 -2.66849,0c-0.93152,0 -1.58084,0 -2.617,0c-1.1145,0 -1.88916,0.00006 -2.67984,0c-1.19849,-0.00009 -1.99445,0.00595 -2.77783,-0.02084c-0.7641,-0.02612 -1.85703,-0.13019 -2.53683,-0.26315c-0.98871,-0.19339 -1.63025,-0.40244 -2.65067,-0.54935c-1.08081,-0.15561 -1.83435,-0.15387 -2.58066,-0.21933c-1.0878,-0.0954 -1.76892,-0.22443 -2.73184,-0.44733c-0.61737,-0.14291 -1.81982,-0.38858 -2.72083,-0.47467c-0.59943,-0.05728 -1.8031,-0.17761 -2.7045,-0.37799c-0.61859,-0.13751 -1.57626,-0.39587 -2.617,-0.526c-0.73315,-0.09167 -1.50015,-0.11038 -2.28299,-0.17401c-1.19699,-0.09726 -1.99622,-0.22745 -2.7955,-0.37265c-0.80072,-0.14548 -1.59601,-0.32361 -2.80017,-0.45319c-0.80228,-0.08633 -1.62057,-0.10739 -2.457,-0.117c-1.30942,-0.01505 -1.76453,0.00104 -2.7045,-0.00897c-0.9801,-0.01044 -1.48581,-0.01709 -2.52499,-0.08084c-1.08105,-0.06631 -2.19757,-0.19696 -2.76602,-0.26733c-0.57288,-0.07092 -1.72141,-0.22668 -2.29465,-0.29468c-1.68442,-0.19977 -2.23096,-0.23792 -3.30002,-0.29999c-0.52713,-0.03061 -1.57828,-0.07309 -2.10532,-0.10535c-1.61502,-0.09888 -2.16922,-0.16541 -2.73267,-0.23132c-1.15146,-0.13467 -1.73523,-0.21829 -2.32535,-0.29068c-1.19012,-0.14597 -2.38889,-0.26508 -2.98917,-0.30383c-1.19489,-0.07712 -1.7894,-0.08893 -2.37933,-0.10065c-1.16354,-0.02313 -1.7355,-0.02017 -3.39951,-0.02084c-0.53732,-0.00021 -1.59598,0 -2.12134,0c-1.05264,0 -1.58398,0.00165 -3.22131,-0.00015c-0.56268,-0.00061 -1.70407,-0.00803 -2.27869,-0.02069c-0.57471,-0.01266 -1.71759,-0.04486 -2.83331,-0.14581c-1.08591,-0.09827 -1.61853,-0.18582 -2.6875,-0.33334c-0.5405,-0.07458 -1.64703,-0.23141 -2.8125,-0.33334c-0.6087,-0.05322 -1.23434,-0.091 -2.51733,-0.13065c-0.64923,-0.02005 -1.29865,-0.02768 -1.944,-0.03152c-1.87198,-0.01117 -2.46234,-0.00449 -3.03467,-0.00449c-1.09866,0 -1.629,0 -2.66168,0c-1.509,0 -2.00916,0 -3.01349,0c-0.50616,0 -1.53149,0 -2.05267,0c-1.6095,0 -2.16434,0 -3.29999,0c-0.57883,0 -1.75351,0 -2.34735,0c-0.59683,0 -2.39566,0 -2.99683,0c-0.60315,0 -1.20932,0 -2.43466,0c-0.62115,0 -1.24933,0 -3.18533,0c-0.66266,0 -1.33133,0 -2.004,0c-0.67468,0 -2.022,0 -2.69067,0c-1.31732,0 -1.96249,0 -2.59866,0c-1.24933,0 -1.8645,0 -2.47467,0c-1.20932,0 -2.41068,0 -3.01099,0c-1.20868,0 -1.82101,0 -2.44135,0c-1.27267,0 -1.92899,0 -3.29166,0c-0.7095,0 -1.436,0 -2.17651,0c-0.7515,0 -1.51099,0 -2.27548,0c-0.76651,0 -1.53201,0 -3.048,0c-1.48267,0 -2.21402,0 -2.94135,0c-0.72534,0 -1.45065,0 -2.17801,0c-0.73132,0 -2.21399,0 -2.96866,0c-0.76266,0 -1.53134,0 -2.30399,0c-0.77469,0 -1.54935,0 -2.32202,0c-2.28598,0 -3.03149,0.00082 -3.76999,-0.00134c-0.7345,-0.00217 -1.46802,-0.0069 -2.20349,-0.0195c-0.74057,-0.0127 -1.48926,-0.03067 -2.2485,-0.06448c-1.56454,-0.0697 -2.37323,-0.13336 -3.19601,-0.19867c-0.83121,-0.06598 -1.66403,-0.14087 -2.49298,-0.216c-0.81903,-0.07422 -1.62173,-0.15051 -2.40302,-0.216c-1.4715,-0.12332 -2.15219,-0.17191 -3.41,-0.22684c-0.58447,-0.02551 -1.14523,-0.04291 -2.21066,-0.05267c-1.51794,-0.01389 -2.01785,-0.00055 -3.01349,-0.00897c-0.49387,-0.00418 -1.46994,-0.00894 -2.41916,-0.08084c-1.36667,-0.10355 -1.80103,-0.19266 -2.64935,-0.34c-0.82635,-0.14352 -1.63068,-0.3233 -2.836,-0.45319c-0.79794,-0.086 -1.59988,-0.10733 -2.39999,-0.117c-1.19992,-0.0145 -2.00266,-0.00449 -2.82132,-0.00449c-0.85068,0 -1.74936,0 -2.71201,0c-1.03467,0 -1.57199,0 -2.66669,0c-0.54932,0 -1.63199,0 -2.66666,0c-0.96533,0 -1.88266,0 -2.33334,0c-0.9053,0 -2.33331,0 -2.8425,0c-1.05832,0 -1.59747,0 -2.67081,0c-0.52417,0 -1.98669,0 -2.83067,0c-0.748,0 -1.74251,0 -2.65601,0c-0.89999,0 -1.8,0 -2.39999,0c-1.20001,0 -2.10001,0 -2.70001,0c-1.2,0 -2.09999,0 -2.7,0c-1.2,0 -2.09999,0 -2.7,0c-0.89999,0 -2.10158,0.00894 -2.71066,-0.01068c-0.94716,-0.03052 -1.95737,-0.14795 -2.67601,-0.27332c-0.76152,-0.13284 -1.55699,-0.30984 -2.39999,-0.43201c-1.33096,-0.19287 -2.27483,-0.23126 -2.75999,-0.24799c-0.99973,-0.03448 -1.515,-0.03375 -3.12001,-0.03601c-0.55482,-0.00076 -1.69049,0 -2.26933,0c-0.58482,0 -1.76849,0 -2.36533,0c-1.19867,0 -2.39867,0 -2.99867,0c-0.59999,0 -1.8,0 -2.39999,0c-0.60001,0 -2.40018,0 -3.00134,0c-0.60316,0 -1.81949,0 -2.43466,0c-0.62117,0 -2.53067,0 -3.18567,0c-0.66499,0 -1.34,0 -2.02499,0c-0.69501,0 -2.11501,0 -2.84,0c-1.48001,0 -2.23451,0 -2.996,0c-0.7655,0 -1.532,0 -2.29651,0c-0.75949,0 -1.511,0 -2.2515,0c-1.436,0 -2.8,0 -3.4595,0c-0.6485,0 -1.289,0 -2.558,0c-0.63451,0 -1.9185,-0.00052 -2.57333,0.00015c-0.66383,0.00067 -2.01454,0.00806 -2.69933,0.02069c-0.68988,0.01273 -1.38394,0.03015 -2.08051,0.06448c-1.39934,0.06897 -2.79755,0.19653 -3.49417,0.26733c-0.69405,0.07053 -1.38359,0.14801 -2.0685,0.22202c-0.67876,0.07333 -1.34872,0.16675 -3.31467,0.30383c-0.63681,0.0444 -1.26846,0.0723 -2.52133,0.10065c-0.62526,0.01413 -1.25267,0.0177 -1.884,0.0195c-1.93733,0.00549 -2.59999,0.00134 -3.26866,0.00134c-0.67267,0 -1.34734,0 -2.69467,0c-0.66867,0 -1.98599,0 -2.63116,0c-0.63617,0 -1.8855,0 -2.50067,0c-0.61017,0 -1.81949,-0.00015 -3.02083,0c-0.60001,0.00009 -1.80003,0.00247 -2.39999,0.01065c-0.60004,0.00818 -1.80032,0.04028 -2.40001,0.07468c-1.20078,0.06888 -2.3976,0.19632 -2.991,0.26733c-0.58794,0.07034 -1.73656,0.22549 -2.29466,0.29468c-1.57982,0.19586 -2.07069,0.24423 -3.0045,0.2955c-0.88841,0.04877 -1.75801,0.0549 -3.07651,0.05716c-0.45483,0.00076 -1.3905,0 -2.35416,0c-0.48984,0 -1.4805,0.00171 -2.97951,-0.00015c-0.50233,-0.00061 -1.52109,-0.00681 -2.04134,-0.02069c-1.07289,-0.02863 -1.6301,-0.05008 -2.79166,-0.14581c-1.23737,-0.10199 -1.87657,-0.18546 -2.52801,-0.25867c-0.65956,-0.07413 -1.99004,-0.22662 -2.656,-0.29068c-1.31516,-0.12646 -1.96112,-0.16647 -2.59866,-0.20001c-1.25829,-0.06619 -1.88409,-0.08206 -2.50934,-0.10931c-1.25884,-0.05484 -2.54163,-0.13779 -3.19617,-0.19601c-0.66416,-0.05908 -1.33568,-0.13116 -2.69933,-0.27866c-0.68984,-0.07462 -1.38319,-0.1524 -2.0805,-0.216c-1.39777,-0.1275 -2.09824,-0.16818 -2.79733,-0.19867c-1.39022,-0.06061 -2.08047,-0.06647 -2.76534,-0.07468c-0.67881,-0.00815 -1.35067,-0.00998 -3.31433,-0.01065c-0.635,-0.00021 -1.26,0 -1.875,0c-1.2,0 -1.785,0.00024 -3.48,0c-0.54517,-0.00009 -1.60955,-0.00116 -2.13067,-0.01068c-1.02547,-0.01877 -1.53373,-0.01917 -3.036,-0.15598c-0.50074,-0.04559 -1.4958,-0.18396 -2.47916,-0.33334c-0.48499,-0.07367 -1.43224,-0.24625 -2.79934,-0.37851c-0.86269,-0.08347 -1.28529,-0.09341 -2.11083,-0.11084c-0.8092,-0.01709 -2.01067,-0.01065 -2.81067,-0.01065c-0.8,0 -1.6,0.00101 -2.8,0c-0.79867,-0.00067 -1.59124,0.02377 -2.74284,-0.05716c-1.09328,-0.07684 -1.77401,-0.22293 -2.43183,-0.36816c-0.97929,-0.21622 -1.99058,-0.42145 -2.712,-0.49069c-0.75877,-0.07281 -1.56108,-0.09555 -2.4,-0.168c-1.33658,-0.11542 -2.26171,-0.2673 -2.728,-0.34131c-0.92442,-0.1467 -1.81306,-0.31461 -3.04266,-0.45334c-0.73586,-0.08301 -1.44445,-0.10114 -2.51067,-0.20535c-1.17706,-0.11505 -1.60042,-0.19736 -2.48267,-0.34131c-0.89911,-0.1467 -1.77842,-0.31436 -3.0065,-0.45334c-0.73154,-0.08279 -1.4243,-0.09732 -2.4255,-0.20535c-1.04166,-0.1124 -1.77,-0.26865 -2.51733,-0.41599c-0.74733,-0.14734 -1.83059,-0.3624 -2.83833,-0.44284c-0.91328,-0.07291 -1.47536,-0.03125 -2.7135,-0.06165c-0.70998,-0.01743 -1.7835,-0.15189 -2.41883,-0.28085c-1.07467,-0.21817 -1.83854,-0.41833 -3.02933,-0.71466c-0.40007,-0.09955 -1.19787,-0.30505 -2,-0.47916c-0.79799,-0.17319 -1.99883,-0.36639 -2.80133,-0.43686c-0.80835,-0.07098 -1.63577,-0.09506 -2.484,-0.168c-1.33812,-0.11505 -1.80048,-0.1904 -2.74,-0.35199c-0.9513,-0.1636 -1.42375,-0.26044 -2.808,-0.564c-0.88248,-0.19354 -1.72859,-0.39948 -2.556,-0.564c-0.80743,-0.16055 -2.00988,-0.3222 -2.80617,-0.38333c-0.78313,-0.06012 -1.55172,-0.06921 -2.63783,-0.21933c-0.68485,-0.09467 -1.64267,-0.34726 -2.26217,-0.48068c-1.19883,-0.25821 -2.09347,-0.327 -2.6685,-0.34201c-1.3141,-0.0343 -2,-0.01065 -2.83467,-0.01065c-0.99683,0 -1.74417,0 -2.75467,-0.01068l-0.605,-0.51016" id="svg_4" stroke-width="2" stroke="#000" fill="none"/>
  <path t="11639,11717,11717,11734,11735,11757,11758,11821,11821" d="m27.51137,192.09091c-2.6,-0.94284 -3.39999,-0.99774 -4.4,-1c-0.8,-0.0018 -1.79983,0.00017 -2.764,0.036l-0.8145,0.1855l-0.717,0.483" id="svg_5" stroke-width="2" stroke="#000" fill="none"/>
  <path t="14239,14381,14398,14421,14421,14436,14460,14476,14476,14500,14500,14516,14540,14556,14556,14596,14596,14636,14636,14636,14660,14676,14676,14700,14716,14716,14755,14868" d="m379.51135,296.09091c1.05267,1.70001 1.56296,2.492 2.09985,3.32117c0.41281,0.63751 0.82751,1.50009 1.33615,2.12549c0.57709,0.70956 0.78619,1.52655 1.564,2.22c0.59506,0.53052 1.59708,0.79486 1.94736,1.63785c0.34137,0.8215 0.52655,1.7243 1.05264,2.52884c0.36838,0.56335 1.0069,1.32916 1.40002,1.99197c0.40717,0.68646 1.00912,1.53012 1.69983,2.27469c0.55035,0.59326 0.90015,1.42084 1.12149,2.22131l0.35333,0.85333l0.30383,0.80383l0.12149,1.02151" id="svg_6" stroke-width="2" stroke="#000" fill="none"/>
  <path t="15156,15308,15332,15332,15348,15348,15372,15372,15372,15388,15388,15412,15412,15428,15452,15452,15468,15468,15508,15532,15572,15611,15652,15652,15676,15692,15716,15716,15732,15756,15771,15796,15796,15811,15851,15852,15876,15876,15892,15892,15916,15916,15916,15932,15955,15956,15956,15972,15972,15972,15996,15996,16011,16012,16012,16036,16036,16036,16036,16052,16052,16076,16076,16076,16076,16092,16092,16092,16131,16156,16156,16172,16196,16212,16236,16236,16252,16252,16276,16276,16292,16316,16316,16332,16356,16356,16372,16372,16396,16396,16412,16412,16428,16428,16452,16452,16452,16468,16492,16492,16508,16508" d="m393.51135,318.09091c1.75717,0 2.6572,0 3.40451,0c0.99683,0 1.83151,0 2.76218,0c0.78149,0 1.82349,0 2.69049,0c0.89099,0 1.81558,-0.11673 2.65884,0.08533c0.8981,0.21521 1.642,0.81161 2.48398,0.89383c0.97412,0.09512 1.92261,-0.04395 2.47919,0.54169c0.68884,0.72479 1.147,1.3075 1.81631,1.83633c0.74094,0.58542 0.70383,1.44281 0.7045,2.34283c0.00067,0.93597 0,1.784 0,2.64731c0,1.01669 0,1.85269 0,2.75269c0,0.89999 0.00238,1.69998 0,2.65717c-0.00226,0.89999 0.02951,1.6713 -0.28531,2.64148c-0.25668,0.79102 -0.7876,1.60361 -1.35068,2.22668c-0.65485,0.72461 -1.1329,1.25916 -1.88,1.80533c-0.80542,0.58881 -1.79944,0.80734 -2.52567,1.06934c-0.63983,0.2308 -1.64087,0.43713 -2.45834,0.47916c-0.81512,0.0419 -1.81598,0.02084 -2.72531,0.02084c-0.94135,0 -1.73184,0 -2.58533,0c-1.18936,0 -1.78802,0 -2.66852,0c-0.83551,0 -1.83817,0 -2.78217,0c-1.07199,0 -1.70712,0.01587 -2.73868,-0.02084c-0.69516,-0.02472 -1.67792,-0.10205 -2.48114,-0.33182c-0.86737,-0.24814 -1.96811,-0.45145 -2.7175,-0.93268c-0.61404,-0.39432 -0.78894,-1.41473 -0.80136,-2.31467c-0.01273,-0.92099 -0.23929,-1.7146 -0.5,-2.42084c-0.35822,-0.97031 -0.48199,-1.76804 -0.5,-2.8125c-0.01486,-0.86203 0,-1.6875 0,-2.65067c0,-0.86331 -0.01151,-1.7634 0,-2.68265c0.01044,-0.83353 0.16074,-1.85513 0.61069,-2.42267c0.617,-0.77829 1.24286,-1.26413 2.04651,-1.70618c0.72205,-0.39719 1.7453,-0.61197 2.57883,-0.72983c0.93207,-0.13177 1.71112,-0.31589 2.46664,-0.54935c1.04904,-0.32416 1.86801,-0.42667 2.70636,-0.48248l0.98965,-0.22684l0.76532,-0.29068" id="svg_7" stroke-width="2" stroke="#000" fill="none"/>
  <path t="19014,19109,19109,19133,19133,19149,19149,19149,19149,19172,19172,19172,19189,19189,19189,19189,19212,19213,19213,19213,19213,19229,19229,19229,19229,19229,19229,19252,19253,19253,19253,19253,19253,19268,19268,19268,19268,19268,19268,19268,19284,19284,19284,19284,19284,19284,19284,19284,19308,19308,19308,19308,19308,19308,19308,19324,19324,19324,19324,19324,19324,19348,19348,19348,19348,19348,19348,19364,19364,19364,19364,19364,19388,19388,19388,19388,19389,19389,19404,19404,19404,19404,19404,19404,19428,19428,19428,19428,19429,19429,19444,19444,19444,19444,19445,19468,19468,19468,19469,19469,19484,19484,19484,19484,19508,19508,19508,19524,19524,19548,19548,19565,19565,19565,19588,19588,19604,19604,19604,19604,19628,19628,19644,19644,19684" d="m424.51135,144.09091c-0.36166,2.5955 -0.68936,3.41748 -1.48532,4.116c-0.49527,0.43465 -1.50705,1.0605 -2.12366,1.53217c-0.65506,0.50107 -1.13245,0.88405 -2.36035,1.18251c-0.68054,0.16542 -1.42194,0.13521 -2.86398,0.336c-0.68628,0.09557 -1.34348,0.2617 -2.31934,0.53783c-1.0163,0.28757 -1.73373,0.50188 -2.50467,0.6955c-0.82367,0.20685 -1.71313,0.40753 -2.67599,0.60001c-1.03442,0.20677 -1.5752,0.30367 -2.6875,0.47917c-0.56387,0.08897 -1.12836,0.1888 -2.8125,0.35416c-0.54462,0.05347 -1.61395,0.11496 -2.14133,0.14134c-1.0506,0.05257 -1.57974,0.05569 -3.19202,0.192c-0.55569,0.04698 -1.69504,0.18564 -2.28,0.25867c-0.59503,0.0743 -1.81442,0.22763 -2.44,0.29066c-1.2789,0.12885 -1.93436,0.16838 -2.59732,0.19867c-1.34085,0.06125 -2.01599,0.06648 -2.69067,0.07466c-0.67264,0.00815 -1.34134,0.00999 -3.30383,0.01067c-0.63617,0.00021 -1.26434,0 -1.8855,0c-1.22534,0 -1.83151,0 -2.43466,0c-1.80118,0 -2.39999,0 -2.99683,0c-1.18369,0 -1.76852,0 -2.91919,0c-1.11865,0 -2.1987,0.00128 -2.72366,-0.0045c-1.02005,-0.01125 -1.51645,-0.00844 -2.47501,-0.08083c-1.36835,-0.10333 -2.23917,-0.26817 -2.672,-0.35068c-0.87744,-0.16725 -1.78278,-0.37138 -2.74799,-0.564c-1.03473,-0.2065 -1.57623,-0.30154 -2.6875,-0.5c-0.56436,-0.10078 -1.69693,-0.29771 -2.8125,-0.5c-0.54538,-0.09889 -1.60965,-0.29919 -2.13068,-0.39999c-1.02563,-0.19843 -1.53143,-0.30034 -3.03601,-0.60001c-0.99863,-0.1989 -1.49445,-0.3011 -2.47916,-0.47917c-0.48434,-0.08759 -1.43277,-0.26003 -2.7995,-0.39966c-0.86719,-0.08859 -1.72293,-0.12791 -2.57401,-0.231c-0.43225,-0.05235 -1.7731,-0.31749 -2.6955,-0.60001c-0.46896,-0.14365 -1.39108,-0.47397 -2.2825,-0.8075c-1.22696,-0.45906 -1.95105,-0.72397 -2.60684,-0.96184c-0.87521,-0.31746 -1.64771,-0.60602 -2.54166,-1.02083c-0.62439,-0.28973 -1.63376,-0.76904 -2.36365,-1.2c-0.79352,-0.46851 -1.4046,-1.06252 -2.14252,-1.784c-0.53174,-0.51988 -1.08414,-1.07715 -1.91599,-1.63068c-0.59842,-0.39819 -1.7644,-0.8878 -2.54684,-1.18533c-0.53036,-0.20168 -1.32642,-0.42519 -2.3905,-1.09999c-0.57025,-0.36163 -1.314,-0.90001 -2.00867,-1.3l-0.89099,-0.60001" id="svg_8" stroke-width="2" stroke="#000" fill="none"/>
  <path t="23783,23917,23917,23942,23942,23957,23957,23957,23980,23980,23980,23980,23996,23996,23996,23996,24020,24020,24020,24020,24020,24020,24036,24036,24036,24036,24036,24036,24060,24060,24060,24060,24060,24060,24076,24076,24076,24076,24076,24076,24076,24100,24100,24100,24100,24100,24100,24100,24116,24116,24116,24116,24116,24116,24140,24140,24140,24140,24141,24141,24156,24156,24156,24157,24157,24157,24180,24180,24180,24180,24180,24196,24196,24196,24196,24219,24219,24219,24219,24219,24219,24235,24235,24235,24235,24235,24259,24259,24259,24259,24259,24275,24275,24275,24275,24276,24299,24299,24299,24299,24315,24315,24315,24315,24340,24340,24340,24340,24357,24357,24357,24357,24357,24379,24379,24379,24379,24395,24395,24395,24395,24419,24419,24419,24420,24435,24435,24435,24435,24451,24451,24451,24451,24475,24475,24475,24475,24492,24492,24492,24492,24517,24517,24517,24531,24531,24531,24555,24555,24571,24571,24572" d="m153.51137,152.09091c0,-1.71434 0,-2.409 0,-3.40134c0,-0.83467 0,-1.76534 0,-2.55583c0,-0.8535 0,-2.04283 0,-2.64417c0,-0.91949 0,-1.55583 0,-2.92033c0,-0.74001 0,-1.52 0,-2.34c0,-1.30501 0.00549,-1.76006 -0.0045,-2.7c-0.01042,-0.98009 -0.01706,-1.48578 -0.08083,-2.52501c-0.06633,-1.08102 -0.19695,-2.19754 -0.26733,-2.76599c-0.07094,-0.57289 -0.22668,-1.72142 -0.29468,-2.29467c-0.19978,-1.68443 -0.23795,-2.23093 -0.3,-3.3c-0.03059,-0.52715 -0.07306,-1.57829 -0.10533,-2.10533c-0.09889,-1.615 -0.1624,-2.16964 -0.23399,-2.73267c-0.14655,-1.15247 -0.24159,-1.73808 -0.47501,-2.91917c-0.11823,-0.59821 -0.39961,-1.79691 -0.55966,-2.39533c-0.32057,-1.1986 -0.50336,-1.7897 -0.67867,-2.37933c-0.34608,-1.16405 -0.5276,-1.73228 -0.83333,-2.85417c-0.29385,-1.07835 -0.41309,-1.60972 -0.66667,-2.64583c-0.12489,-0.51028 -0.36734,-1.52435 -0.66667,-2.52084c-0.30194,-1.00517 -0.48347,-1.50258 -0.85416,-2.5c-0.18631,-0.50132 -0.58028,-1.50009 -0.97917,-2.5c-0.39844,-0.99876 -0.59929,-1.49403 -0.97917,-2.47916c-0.18669,-0.48413 -0.55672,-1.42847 -0.99933,-2.79934c-0.27771,-0.86013 -0.39105,-1.284 -0.61084,-2.11083c-0.21475,-0.80791 -0.50671,-2.01189 -0.71516,-2.81516c-0.21213,-0.81744 -0.43625,-1.65792 -0.86217,-2.96217c-0.14911,-0.45658 -0.48714,-1.38728 -0.66933,-1.85867c-0.36792,-0.95197 -0.75797,-1.8939 -1.164,-2.808c-0.3929,-0.88452 -0.59604,-1.31141 -1,-2.14583c-0.39612,-0.81822 -1.002,-2.01984 -1.39867,-2.82084c-0.19785,-0.39951 -0.59602,-1.19312 -0.94417,-2c-0.51358,-1.1903 -0.77444,-1.99825 -1.03183,-2.78933c-0.25192,-0.77426 -0.47501,-1.5401 -0.9465,-2.58933c-0.3051,-0.67894 -0.6963,-1.30443 -0.96899,-1.974c-0.54546,-1.33934 -0.60991,-2.09889 -0.68901,-2.84734c-0.07889,-0.74635 -0.16045,-1.83865 -0.3075,-2.516c-0.21567,-0.99336 -0.4577,-1.64375 -0.88,-2.65067c-0.30363,-0.72397 -0.66447,-1.46264 -0.972,-2.244c-0.30869,-0.78431 -0.63353,-1.98674 -0.756,-2.78483c-0.11993,-0.78157 -0.12912,-1.56762 -0.43866,-2.63784c-0.29936,-1.035 -0.68863,-1.64523 -1.01851,-2.26217c-0.48315,-0.90361 -0.90532,-1.80369 -1.12733,-2.42533c-0.34174,-0.95684 -0.62283,-1.99995 -0.82083,-2.73183c-0.20204,-0.74678 -0.3916,-1.49702 -0.7,-2.58067c-0.19472,-0.6842 -0.50317,-1.6657 -0.7,-2.31933c-0.30492,-1.01253 -0.6,-2.1 -0.8,-2.84733c-0.2,-0.74733 -0.49854,-1.83376 -0.69867,-2.51334c-0.27847,-0.9456 -0.49225,-1.51525 -0.68,-2.56533c-0.16356,-0.91478 -0.16436,-1.61446 -0.40666,-2.60533c-0.20174,-0.825 -0.494,-1.64107 -0.91467,-2.63067c-0.28522,-0.67097 -0.8,-1.68533 -1.1,-2.28083l-0.4,-0.74733" id="svg_9" stroke-width="2" stroke="#000" fill="none"/>
  <path t="26286,26380,26380,26380,26405,26405,26405,26405,26405,26421,26421,26421,26421,26421,26445,26445,26445,26445,26445,26460,26460,26461,26461,26461,26461,26461,26484,26484,26484,26484,26484,26484,26500,26500,26500,26500,26500,26500,26500,26500,26524,26524,26524,26524,26524,26524,26524,26524,26540,26540,26540,26540,26540,26540,26540,26540,26564,26564,26564,26564,26564,26564,26564,26580,26580,26580,26580,26580,26580,26580,26580,26604,26604,26604,26604,26604,26604,26604,26620,26620,26620,26620,26620,26620,26643,26643,26644,26644,26659,26659,26659,26659,26683,26683,26683,26683,26699,26699,26700,26700,26715,26715,26716,26716,26739,26740,26740,26740,26740,26755,26755,26755,26756,26779,26780,26780,26780,26780,26795,26796,26796,26796,26819,26820,26820,26820,26835,26836,26836,26836,26859,26859,26859,26859,26859,26876,26876,26876,26899,26899,26899,26915,26915,26915,26939,26939,26939,26955,26955,26955,26979,26979,26979,26995,26996,26996,27019,27019,27019,27035,27035,27059,27059,27076,27077,27099,27099,27115,27139,27140,27155,27179,27179,27195,27195,27195,27219,27219,27235,27235,27236,27259,27259,27259,27259,27275,27276,27276,27276,27276,27291,27292,27292,27292,27315,27316,27316,27316,27332,27332,27332,27355,27356,27356,27371,27372,27419,27460,27460,27500" d="m250.51137,132.09091c-0.22183,-1.66451 -0.41595,-2.32788 -0.81883,-3.11349c-0.46771,-0.91205 -0.94205,-1.49602 -1.45317,-2.09718c-0.53915,-0.63412 -1.14247,-1.26455 -2.028,-2.31066c-0.30409,-0.35925 -0.89902,-1.10478 -1.5,-1.85333c-0.29951,-0.37306 -1.18953,-1.46805 -1.80266,-2.14133c-0.60843,-0.66814 -0.92798,-0.99556 -1.61168,-1.63667c-1.10155,-1.03292 -1.52458,-1.37331 -2.39549,-2.10001c-0.44951,-0.37508 -0.90854,-0.7504 -1.842,-1.49467c-0.46428,-0.37019 -1.37943,-1.0887 -2.2655,-1.76866c-0.4335,-0.33266 -1.30211,-0.98589 -1.744,-1.30933c-0.90518,-0.66254 -1.87157,-1.34193 -2.3815,-1.69633c-0.52608,-0.36562 -1.62001,-1.12287 -2.17799,-1.52c-0.56604,-0.40285 -1.13599,-0.81347 -1.6965,-1.245c-1.12613,-0.86699 -1.66785,-1.32724 -2.73,-2.266c-0.53062,-0.46899 -1.05173,-0.94839 -1.578,-1.422c-0.5264,-0.47372 -1.04657,-0.9558 -2.14134,-1.85867c-0.54869,-0.4525 -1.6842,-1.31194 -2.25867,-1.73067c-0.57289,-0.41759 -1.14929,-0.82539 -1.722,-1.2315c-0.56863,-0.40322 -1.68958,-1.19966 -2.76866,-2.0045c-0.53311,-0.39762 -1.05867,-0.8 -1.584,-1.2c-0.52533,-0.4 -1.57945,-1.20621 -2.66667,-2c-0.5522,-0.40316 -1.11583,-0.80024 -1.6815,-1.2c-0.56633,-0.40023 -1.69241,-1.19735 -2.24199,-1.6c-0.54242,-0.3974 -1.586,-1.18869 -2.5405,-2c-0.46419,-0.39455 -0.91006,-0.79774 -1.78401,-1.6c-0.43452,-0.39889 -0.85707,-0.81231 -2.20633,-1.99966c-0.45667,-0.40186 -0.9211,-0.79321 -1.83733,-1.55867c-0.44357,-0.37058 -0.88467,-0.71557 -2.04167,-1.70833c-0.64967,-0.55745 -1.21652,-1.04881 -1.88651,-1.7815c-0.63756,-0.69723 -1.21812,-1.50575 -1.61349,-2.07267c-0.40475,-0.58038 -1,-1.47916 -1.60001,-2.37917c-0.39999,-0.6 -0.79999,-1.2 -1.39999,-2.1c-0.60001,-0.9 -1,-1.5 -1.39999,-2.1c-0.60001,-0.9 -1.00783,-1.49628 -1.60001,-2.42084c-0.40538,-0.63291 -1.00801,-1.64143 -1.39867,-2.36317c-0.3989,-0.73694 -0.77083,-1.48808 -0.94417,-1.86333c-0.65678,-1.42184 -0.9045,-2.1 -1.15717,-2.75266c-0.25267,-0.65267 -0.65962,-1.66983 -0.98534,-2.38533c-0.34328,-0.75408 -0.72363,-1.52617 -1.116,-2.316c-0.59593,-1.19961 -0.99417,-1.98967 -1.188,-2.37733c-0.37466,-0.74934 -1.04399,-2.088 -1.32666,-2.65334c-0.384,-0.768 -0.7702,-1.5349 -1.20534,-2.411c-0.33302,-0.6705 -0.69316,-1.39227 -1.026,-2.166c-0.50832,-1.18164 -0.7739,-1.98627 -1.01666,-2.76966c-0.23161,-0.74742 -0.39954,-1.46298 -0.836,-2.652c-0.27788,-0.75699 -0.61313,-1.44686 -1,-2.45333c-0.20706,-0.53867 -0.47461,-1.37355 -0.90018,-2.39466c-0.29318,-0.70347 -0.64131,-1.38331 -1.22116,-2.34267c-0.49084,-0.8121 -0.86841,-1.3441 -1.51199,-2.412c-0.42401,-0.70356 -0.75529,-1.38176 -1.33334,-2.16666c-0.45787,-0.62172 -1.04626,-1.16997 -1.66666,-2c-0.57829,-0.77371 -0.89151,-1.42053 -1.48784,-2.2c-0.47205,-0.61702 -1.20311,-1.35962 -1.50951,-2.19867c-0.27,-0.73938 -0.36903,-1.80339 -1.056,-2.4c-0.69119,-0.60028 -1.47859,-0.87478 -2.228,-1.4c-0.70163,-0.49174 -1.52226,-0.7598 -2.53799,-0.80583c-0.69595,-0.03154 -1.50494,-0.52318 -2.44768,-0.874c-0.67809,-0.25233 -1.66982,-0.14077 -2.42049,-0.10067c-0.79797,0.04263 -1.78937,0.28196 -2.70451,0.55383c-0.93581,0.27801 -1.73099,0.38758 -2.58533,0.41467c-1.18878,0.03769 -1.79117,-0.00447 -2.71016,0.0315c-0.63689,0.02493 -2.00157,0.19641 -2.74084,0.33183c-0.78081,0.14302 -1.59874,0.30294 -2.02499,0.36333c-1.33092,0.18857 -2.25708,0.23013 -3.17166,0.284c-0.87474,0.05152 -2.04842,0.13453 -2.68701,0.28533c-0.82375,0.19453 -1.53087,0.52913 -2.53867,0.91467c-0.81201,0.31063 -1.36917,0.48523 -2.3945,0.89983c-0.90601,0.36636 -1.5115,0.65574 -2.51699,0.8475c-0.91283,0.17409 -1.7685,0.48867 -2.5045,1.15267l-0.5,0.5l-0.6955,0.7" id="svg_10" stroke-width="2" stroke="#000" fill="none"/>
  <path t="28719,28820,28820,28844,28844,28844,28844,28844,28861,28861,28861,28861,28861,28877,28877,28877,28877,28877,28877,28901,28901,28901,28901,28901,28901,28901,28917,28917,28917,28917,28917,28917,28917,28917,28917,28941,28941,28941,28941,28941,28941,28941,28941,28941,28957,28957,28957,28957,28957,28957,28957,28957,28957,28981,28981,28981,28981,28981,28981,28981,28981,28981,28997,28997,28997,28997,28997,28997,28997,28997,28997,29021,29021,29021,29021,29021,29021,29021,29021,29021,29037,29037,29037,29037,29037,29037,29037,29037,29037,29061,29061,29061,29061,29061,29061,29061,29061,29061,29077,29077,29078,29078,29078,29078,29078,29078,29078,29101,29101,29101,29101,29101,29101,29101,29101,29101,29116,29117,29117,29117,29117,29117,29117,29117,29117,29141,29141,29141,29141,29141,29141,29141,29141,29142,29157,29157,29157,29157,29157,29157,29157,29157,29157,29180,29180,29180,29181,29181,29181,29181,29181,29181,29196,29196,29196,29196,29197,29197,29197,29197,29197,29220,29220,29220,29221,29221,29221,29221,29221,29221,29236,29236,29236,29236,29237,29237,29237,29237,29237,29260,29261,29261,29261,29261,29261,29261,29261,29261,29276,29276,29276,29277,29277,29277,29277,29277,29277,29300,29300,29301,29301,29301,29301,29301,29301,29301,29316,29316,29317,29317,29317,29317,29317,29317,29317,29340,29340,29341,29341,29341,29341,29341,29341,29356,29356,29356,29357,29380,29380,29381,29396,29397,29436,29476,29476,29660,29661,29684,29685,29700,29701,29701,29701,29701,29724,29724,29724,29725,29725,29725,29740,29740,29741,29741,29741,29741,29741,29741,29764,29764,29764,29765,29765,29765,29765,29765,29765,29780,29780,29780,29780,29780,29780,29781,29781,29781,29804,29804,29804,29804,29804,29805,29805,29805,29805,29820,29820,29820,29820,29820,29820,29821,29821,29821,29836,29836,29836,29837,29837,29837,29837,29837,29837,29860,29860,29860,29860,29860,29861,29861,29861,29861,29876,29876,29876,29876,29877,29877,29877,29877,29877,29900,29900,29900,29900,29900,29901,29901,29901,29901,29916,29916,29916,29916,29917,29917,29917,29917,29917,29940,29940,29940,29941,29941,29941,29941,29942,29942,29956,29956,29956,29956,29957,29957,29957,29957,29957,29980,29980,29980,29980,29981,29981,29981,29981,29981,29996,29996,29996,29997,29997,29997,29997,29997,29997,30020,30020,30020,30020,30021,30021,30021,30021,30021,30156,30157,30157,30158,30158,30158,30159,30159,30160,30172,30173,30174,30174,30175,30176,30198,30199,30199,30200,30200,30215,30215,30215,30216,30216,30216,30216,30217,30238,30238,30239,30239,30239,30239,30240,30240,30241,30252,30252,30252,30252,30253,30253,30253,30253,30254,30276,30276,30277,30277,30277,30277,30277,30278,30278,30292,30292,30293,30293,30293,30293,30293,30294,30294,30316,30316,30316,30317,30317,30317,30317,30317,30318,30332,30332,30332,30332,30333,30333,30333,30333,30334,30348,30349,30349,30349,30349,30350,30350,30350,30350,30373,30373,30373,30374,30374,30374,30374,30375,30375,30388,30389,30389,30389,30389,30390,30390,30390,30390,30413,30413,30413,30414,30414,30414,30414,30415,30415,30428,30429,30429,30429,30430,30430,30430,30430,30431,30452,30453,30453,30453,30453,30454,30454,30454,30454,30468,30469,30469,30469,30469,30470,30470,30470,30470,30492,30493,30493,30493,30493,30493,30494,30494,30494,30509,30509,30509,30509,30510,30510,30510,30510,30511,30532,30533,30533,30533,30533,30534,30534,30534,30534,30548,30549,30549,30549,30549,30550,30550,30550,30551" d="m187.51137,203.09091c-0.88268,-0.08133 -1.4673,0.46954 -2.16667,1.16667c-0.5195,0.51782 -1.06934,1.06932 -1.644,1.644c-0.59067,0.59067 -1.4839,1.49524 -2.09833,2.08932c-0.62685,0.60609 -1.29872,1.20807 -1.66167,1.5c-1.15172,0.92636 -1.59941,1.20158 -2.49068,1.82133c-0.45988,0.31978 -1.39789,0.98354 -1.85599,1.34933c-0.93143,0.74374 -1.80429,1.59711 -2.23901,2.04367c-0.44269,0.45474 -0.87758,0.93481 -1.81065,1.89467c-0.48369,0.49757 -1.52774,1.49699 -2.0975,1.99133c-0.58617,0.50856 -1.20546,1.01059 -1.84351,1.521c-0.65292,0.52231 -1.32564,1.04861 -2.00549,1.593c-0.69218,0.55424 -2.0907,1.7142 -2.78667,2.32866c-0.70546,0.62285 -1.40639,1.26913 -2.1105,1.929c-0.71223,0.66747 -1.42517,1.34952 -2.1465,2.037c-0.728,0.69385 -2.20718,2.09351 -2.96432,2.79083c-0.76152,0.70137 -1.53337,1.39827 -2.31451,2.08951c-0.78252,0.69244 -1.5723,1.37744 -2.3685,2.0535c-0.79448,0.67461 -2.3931,1.99348 -3.19566,2.63567c-0.79878,0.63916 -1.60213,1.26718 -2.41049,1.8855c-0.80798,0.61803 -1.6234,1.22797 -2.4465,1.8315c-0.82623,0.60582 -2.50819,1.80638 -3.36417,2.40451c-0.86136,0.60188 -1.73102,1.20045 -2.604,1.79999c-0.87434,0.60046 -1.74997,1.19907 -2.62199,1.8c-0.86931,0.59908 -2.58717,1.79834 -3.4315,2.40001c-0.83968,0.59834 -1.67267,1.20047 -2.5065,1.79999c-0.83517,0.60048 -1.67419,1.20258 -2.5245,1.8c-0.85769,0.6026 -2.62112,1.80363 -3.53284,2.40001c-0.92293,0.6037 -1.86209,1.2009 -2.808,1.79999c-0.94876,0.60092 -1.89982,1.19821 -2.844,1.80002c-0.93848,0.59818 -2.77463,1.79611 -3.66233,2.39981c-0.87495,0.59503 -1.72972,1.19418 -2.571,1.78952c-0.83138,0.58835 -1.65002,1.17557 -2.46301,1.75348c-0.80569,0.57272 -2.40729,1.69302 -3.20883,2.23584c-0.79714,0.53983 -1.59581,1.06845 -2.3895,1.59601c-0.78998,0.52512 -1.57671,1.04767 -2.3535,1.578c-0.77387,0.52835 -2.29381,1.60959 -3.03567,2.16849c-0.73949,0.55713 -1.465,1.12616 -2.1855,1.69351c-0.71582,0.56366 -1.42321,1.12671 -2.1315,1.67551c-0.70108,0.54321 -2.10079,1.58182 -2.80466,2.06732c-0.69754,0.48114 -1.40374,0.94257 -2.1105,1.4025c-0.70957,0.46176 -1.42769,0.9231 -2.1465,1.4025c-0.73058,0.48724 -2.21415,1.53134 -2.964,2.10168c-0.76631,0.58289 -1.52985,1.19485 -2.2935,1.82248c-0.76738,0.63071 -1.52509,1.27206 -2.2755,1.91251c-0.74158,0.6329 -2.17563,1.8685 -2.867,2.45782c-0.67265,0.57336 -1.33167,1.13025 -1.9815,1.67102c-0.63919,0.53192 -1.27434,1.05273 -1.9095,1.56299c-0.63285,0.50842 -1.91697,1.51102 -2.573,2.00885c-0.65997,0.50082 -1.32641,0.99646 -1.9935,1.48947c-0.6639,0.49063 -1.32426,0.9743 -1.9755,1.45352c-0.64075,0.4715 -1.87789,1.38867 -2.46683,1.83582c-0.57369,0.43558 -1.13051,0.86636 -1.671,1.29602c-0.53216,0.42303 -1.05289,0.84799 -1.563,1.27798c-0.50857,0.42871 -1.51143,1.31134 -2.00867,1.76868c-0.50012,0.45999 -0.9938,0.9288 -1.479,1.40399c-0.48213,0.47217 -0.952,0.94678 -1.407,1.422c-0.4463,0.46616 -1.28423,1.38321 -1.67133,1.83133c-0.37548,0.43466 -0.7319,0.86612 -1.071,1.29602c-0.33353,0.42282 -0.65358,0.84854 -0.963,1.27798c-0.30927,0.42923 -0.9106,1.31296 -1.209,1.76849c-0.30162,0.46045 -0.59954,0.92731 -0.9,1.39352c-0.29953,0.46478 -0.59742,0.92569 -0.9,1.37549c-0.29748,0.4422 -0.89529,1.28015 -1.2,1.66666c-0.29548,0.37479 -0.59594,0.728 -0.9,1.06052c-0.29609,0.32379 -0.5967,0.62878 -0.9,0.9165c-0.29681,0.28156 -0.89778,0.80225 -1.2,1.04465c-0.29784,0.23889 -0.59856,0.46634 -0.9,0.68552c-0.29858,0.2171 -0.59929,0.42636 -0.9,0.6315c-0.2993,0.20419 -0.90023,0.60416 -1.2,0.80466c-0.30024,0.20084 -0.60093,0.40298 -0.9,0.6105c-0.30094,0.20883 -0.60167,0.42307 -0.9,0.64648c-0.3017,0.22592 -0.90195,0.70721 -1.2,0.96417c-0.302,0.26038 -0.60049,0.53079 -0.9,0.80402c-0.3005,0.27411 -0.5916,0.55878 -1.2,1.09067c-0.88796,0.77631 -1.49046,1.2363 -2.1,1.64233c-0.59106,0.39374 -1.79604,1.02841 -2.391,1.28448c-0.83209,0.35812 -1.77262,0.76224 -2.56733,1.23633c-0.74019,0.44156 -1.73694,0.62698 -2.35633,0.95685c-0.90185,0.48026 -1.17257,1.3403 -0.82367,2.23016c0.24792,0.63229 0.7979,1.67081 1.12633,2.30316c0.36156,0.69611 0.76734,1.43503 1.284,2.14801c0.53386,0.73672 1.19324,1.40701 1.9,2.07864c0.36687,0.34863 1.14725,1.06088 1.53067,1.45868c1.23176,1.27795 1.6034,1.79941 2.01533,2.31235c0.42542,0.52972 0.85988,1.07922 1.326,1.629c0.47911,0.56509 0.96519,1.15607 2.12267,2.23734c0.60327,0.56354 1.27082,1.09204 1.9665,1.62299c0.71624,0.54663 1.47059,1.08591 2.2455,1.64099c0.79608,0.57025 1.62542,1.1395 3.288,2.40268c0.86206,0.65497 1.72166,1.35129 2.595,2.0625c0.88669,0.72208 1.77802,1.46078 2.685,2.19751c0.91301,0.74161 1.82189,1.49741 3.72,2.90665c0.94613,0.70245 1.91523,1.36981 2.895,2.01901c0.98027,0.64954 1.97686,1.2778 2.985,1.89301c1.01187,0.61749 2.03573,1.22607 4.12,2.42133c1.05252,0.60358 2.11623,1.20065 3.186,1.7955c1.07156,0.59583 2.14629,1.18555 3.222,1.76849c1.07163,0.58072 2.13827,1.15646 4.25867,2.26935c1.04383,0.54785 2.08105,1.08316 3.114,1.60498c1.02574,0.51819 2.05052,1.02448 3.078,1.51501c1.02522,0.48944 2.05112,0.97726 4.14133,1.88c1.05094,0.45389 2.11586,0.88501 3.186,1.30948c1.0712,0.42487 2.14679,0.83777 3.222,1.24652c1.07212,0.40759 2.1428,0.80545 4.25867,1.61066c1.04606,0.39807 2.08292,0.79932 3.114,1.20001c1.02759,0.39932 2.05254,0.80032 3.078,1.19998c1.02721,0.40033 2.05697,0.80444 4.14133,1.60001c1.05348,0.4021 2.1143,0.79965 3.177,1.1955c1.05997,0.39481 2.11452,0.78406 3.159,1.16852c1.03019,0.37921 2.04317,0.74927 3.99734,1.46933c0.93541,0.34467 1.84238,0.67987 2.7195,1.01398c0.8522,0.32462 1.67847,0.64749 2.4765,0.978c0.77827,0.32233 1.54061,0.63538 2.97066,1.34134c0.69567,0.34341 1.3634,0.71143 2.01,1.086c0.63338,0.36691 1.2425,0.74344 1.83,1.12201c0.57246,0.3689 1.12335,0.73648 2.16,1.45868c0.49193,0.34271 0.96266,0.67999 1.41899,1.00497c0.44234,0.315 0.87161,0.62152 1.293,0.91501c0.41132,0.28647 0.81223,0.5701 1.62134,1.08002c0.3969,0.25012 0.79849,0.48401 1.2,0.7095c0.39853,0.22382 0.79918,0.4379 1.2,0.64648c0.3992,0.20776 0.79973,0.40985 1.60001,0.81067c0.39952,0.2001 0.79733,0.39865 1.19099,0.59549c0.38766,0.19385 0.76733,0.38367 1.13701,0.56851c0.35767,0.17883 0.70132,0.35068 1.33867,0.66934c0.28999,0.14499 0.56,0.28 0.81,0.405c0.23,0.11499 0.44,0.22 0.62999,0.315c0.17001,0.08499 0.31969,0.16061 0.56001,0.28c0.09038,0.04489 0.16216,0.08484 0.2235,0.09598c0.04779,0.00867 0.09386,-0.00839 0.1245,-0.048c0.04062,-0.05252 0.06918,-0.13824 0.15201,-0.38132c0.05595,-0.16422 0.11784,-0.35727 0.19949,-0.5715c0.18834,-0.49411 0.40233,-1.07318 0.96716,-1.9285c0.63135,-0.95605 0.95541,-1.23776 1.524,-1.944c0.63753,-0.79187 1.31482,-1.71896 1.66417,-2.24234c0.36966,-0.5538 0.74919,-1.1434 1.49933,-2.43866c0.39703,-0.68555 0.78976,-1.40414 1.18051,-2.151c0.81134,-1.55078 1.201,-2.36661 1.60266,-3.19867c0.41139,-0.85223 0.8268,-1.72992 1.2585,-2.62949c0.44426,-0.92575 0.90271,-1.87949 1.39349,-2.85452c1.03085,-2.048 1.60493,-3.10767 2.19867,-4.19733c0.60886,-1.1174 1.24207,-2.25232 1.88701,-3.40649c0.6537,-1.16983 1.31816,-2.34909 1.97699,-3.5415c1.32169,-2.39212 1.96359,-3.5946 2.59734,-4.79999c0.63492,-1.20761 1.26167,-2.42648 1.884,-3.65851c0.62837,-1.24399 1.25598,-2.50739 1.884,-3.79349c1.28947,-2.64069 1.93851,-4.00787 2.60133,-5.39868c0.67285,-1.41183 1.35056,-2.84271 2.03549,-4.28699c0.68973,-1.45441 1.38167,-2.91562 2.08051,-4.37701c1.3947,-2.91656 2.09747,-4.36057 2.79866,-5.79733c0.69882,-1.43192 1.40001,-2.85867 2.10001,-4.284c0.7,-1.42532 1.40196,-2.85172 2.10001,-4.284c1.40396,-2.88074 2.10182,-4.33533 2.79466,-5.79333c0.68982,-1.45166 1.36621,-2.89304 2.022,-4.31851c0.64281,-1.39725 1.26263,-2.76215 1.842,-4.09351c1.08972,-2.50415 1.55777,-3.68039 2.004,-4.79465c0.42401,-1.05878 0.81938,-2.07043 1.21651,-3.0285c0.38046,-0.91788 0.75223,-1.79987 1.17149,-2.6235c0.80737,-1.58606 1.30345,-2.30847 1.808,-3.01999c0.51109,-0.72076 1.07019,-1.43237 1.64551,-2.16901c0.59933,-0.7674 1.23723,-1.56598 1.8705,-2.439c1.38876,-1.91452 2.07831,-3.0231 2.79466,-4.20267c0.75119,-1.23691 1.49849,-2.54303 2.2515,-3.89999c0.77116,-1.38968 1.536,-2.81406 2.29651,-4.26001c1.52602,-2.90143 2.26302,-4.34998 2.99333,-5.78265c0.72098,-1.41434 1.42442,-2.81049 2.106,-4.18652c0.66769,-1.34799 1.31364,-2.66797 1.92599,-3.96149c1.16943,-2.47031 1.69806,-3.65366 2.19733,-4.79733c0.48053,-1.1008 0.92715,-2.1665 1.33501,-3.19949c0.39186,-0.99249 0.75348,-1.95172 1.065,-2.88452c0.58545,-1.75302 0.8037,-2.59442 1.004,-3.40265c0.19238,-0.77625 0.35298,-1.52835 0.4935,-2.25452c0.1353,-0.69925 0.25005,-1.37613 0.35851,-2.0295c0.20601,-1.241 0.30296,-1.83218 0.40399,-2.40666c0.09898,-0.56285 0.2,-1.11734 0.3,-1.668c0.10001,-0.55067 0.20166,-1.10504 0.3,-1.668c0.20345,-1.16473 0.29935,-1.77483 0.40266,-2.40001c0.10535,-0.6375 0.21385,-1.28357 0.339,-1.93199c0.12552,-0.65028 0.25832,-1.29836 0.429,-1.93201c0.3347,-1.24254 0.56354,-1.82784 0.79599,-2.39333c0.22617,-0.55019 0.47038,-1.07208 0.71251,-1.5705c0.23134,-0.47621 0.4635,-0.92114 0.6675,-1.3455c0.36259,-0.75429 0.49617,-1.09151 0.59734,-1.40134c0.09117,-0.27924 0.15393,-0.5376 0.1935,-0.774c0.0359,-0.21449 0.05263,-0.41251 0.0585,-0.59399c0.01045,-0.32253 0.004,-0.46783 0.004,-0.604c0,-0.12816 0,-0.24933 0,-0.3645l0,-0.11017l0,-0.10616l0,-0.10316" id="svg_11" stroke-width="2" stroke="#000" fill="none"/>
 </g>
 <g display="none">
  <title>muse_image</title>
  <image xlink:href="http://farm1.static.flickr.com/121/293486558_c4629d3862.jpg" id="muse" height="480" width="640" y="0" x="0"/>
 </g>
 <g display="none">
  <title>bbox</title>
  <rect stroke="#f00" fill="none" stroke-width="3" height="344.32" width="631.04" y="83.2" x="0" id="bbox"/>
 </g>
</svg>
