<svg width="640" height="480" xmlns="http://www.w3.org/2000/svg" xmlns:svg="http://www.w3.org/2000/svg" xmlns:xlink="http://www.w3.org/1999/xlink">
 <!-- Sketchy ANNOTATION
  ImageNet ID: n02691156_11257
  URL: http://farm4.static.flickr.com/3239/2337490984_291b01312b.jpg
  Image Width: 500
  Image Height: 361
  BBox X: 22
  BBox Y: 130
  BBox Width: 455
  BBox Height: 150
  Exposure: 2000ms
  Synset Label: airplane
  Synset ID: n02691156
  Worker Tag: private airplane
  Sanity Check: 
   Saved
  Comment: 
   {}
  Worker ID: AXD2DZ7U6CK35
  Assignment ID: 3MMN5BL1WZ4YWR0S0O8GPTH6HON3M2
  HIT ID: 3D1TUISJWI0UCIPQ4R1NVP548U6IUH
  Work Time: 90s
  Worker Score: 0.7857
 END ANNOTATION -->
 <g display="inline">
  <title>Layer 1</title>
  <path t="0,17,18,25,25,33,53,65,65,83,83,100,100,115,132,132,133,149,150,150,165,166,166,183,183,200,200,200,215,215,215,216,232,233,233,250,266,266,283,283,283,283,300,300,315,315,316,333,333,333,333,350,350,351,365,365,365,365,381,381,398,398,399,414,415,415,415,431,431,431,431,431,448,448,448,448,464,464,464,481,481,481,498,498,498,498,514,514,514,515,531,531,531,531,548,548,548,548,548,564,564,564,565,601,601,601" d="m67,206c-2.11467,3.31334 -2.55042,4.17871 -3.09983,4.9785c-0.43439,0.63235 -0.77619,1.58932 -1.25733,2.3215c-0.52193,0.79424 -1.19254,1.15376 -1.8415,1.90134c-0.56166,0.64702 -0.65146,1.47244 -0.88533,2.31467c-0.25095,0.90369 -0.93242,1.81027 -1.216,2.49382c-0.31863,0.76805 -0.68783,1.82877 -1,2.533c-0.28883,0.65157 -0.81897,1.6483 -1.08933,2.25717c-0.35049,0.78931 -0.53647,1.80743 -0.66333,2.65717c-0.14456,0.96829 -0.37196,1.78697 -0.594,2.3535c-0.47368,1.20853 -0.83,1.7923 -1.17867,2.37866c-0.51133,0.85994 -1.03635,1.62854 -1.528,2.564c-0.30274,0.57602 -0.61516,1.62117 -0.64684,2.56834c-0.02408,0.71989 -0.1545,1.84793 -0.3525,2.631c-0.13895,0.54951 -0.43366,1.35243 -0.59017,2.59467c-0.08495,0.67426 -0.04484,1.61951 -0.06167,2.40984c-0.01818,0.85388 -0.14946,2.04546 -0.2795,2.64284c-0.19686,0.90437 -0.46474,1.79468 -0.59467,2.7c-0.12857,0.89592 -0.13864,1.80519 -0.288,2.7c-0.15058,0.90213 -0.36164,1.47237 -0.54933,2.31467c-0.27279,1.22415 -0.27084,1.91727 -0.45067,2.85199c-0.15342,0.79745 -0.45447,1.63486 -0.66666,2.83334c-0.10605,0.599 -0.15881,1.54233 -0.21933,2.21432c-0.10091,1.12027 -0.22874,1.9541 -0.37267,2.83633c-0.14669,0.89911 -0.24681,1.34061 -0.408,2.616c-0.09617,0.76093 -0.15282,1.79153 -0.16217,2.42435c-0.01785,1.20871 -0.0045,2.09833 -0.0045,2.95184c0,1.03598 0,1.74249 0,2.46698c0,1.133 0,1.80002 0,2.87552c0,0.73199 0,1.79333 0,2.78931c0,0.6507 0,1.30936 0,2.71201c0,0.76001 0,1.56 0,2.39999c0,0.88 0,1.79602 0,2.72803c0,0.92398 0,1.37549 0,2.65198c0,0.76266 0,1.79169 0,2.42435l0,1.20834l0,0.85797l0,0.90134" id="svg_1" stroke-width="2" stroke="#000" fill="none"/>
  <path t="1431,1442,1450,1466,1482,1482,1499,1515,1532,1549,1549,1565,1565,1582,1582,1582,1599,1599,1599,1615,1615,1632,1632,1649,1649,1649,1665,1665,1665,1682,1682,1682,1682,1699,1699,1699,1699,1715,1715,1715,1715,1732,1732,1732,1749,1749,1765,1765,1765,1782,1782,1799,1799,1799,1815,1815,1815,1832,1832,1849,1849,1865,1865,1865,1882,1882,1882,1899,1899,1899,1915,1915,1915,1932,1932,1933,1949,1949,1949,1965,1965,1982,1982,1999,1999,2015,2015,2015,2032,2049,2049,2065,2065,2083,2083,2083,2099,2099,2115,2132,2149,2149,2149,2165,2182,2182,2182,2199,2215,2215,2232,2249,2265,2282,2299,2315,2373,2409,2417,2432,2449,2449,2465,2465,2482,2482,2482,2499,2499,2499,2515,2515,2515,2532,2532,2532,2532,2549,2549,2549,2549,2549,2565,2565,2565,2565,2582,2582,2583,2583,2583,2599,2599,2599,2599,2600,2615,2615,2615,2615,2615,2632,2632,2632,2632,2632,2649,2649,2650,2650,2650,2650,2665,2666,2666,2666,2666,2682,2682,2682,2682,2682,2683,2683,2683,2699,2699,2699,2699,2699,2700,2715,2715,2716,2716,2732,2732,2732,2732,2732,2749,2750,2750,2750,2765,2765,2765,2765,2783,2783,2783,2783,2783,2783,2799,2799,2799,2799,2800,2816,2816,2816,2816,2816,2832,2832,2832,2833,2833,2833,2849,2849,2850,2850,2865,2865,2865,2865,2866,2882,2882,2882,2883,2883,2899,2899,2899,2899,2900,2915,2915,2916,2916,2932,2933,2933,2933,2950,2950,2950,2950,2965,2966,2966,2966,2982,2982,2983,2999,2999,2999,3000,3015,3015,3016,3032,3033,3033,3049,3049,3049,3065,3065,3082,3083,3083,3083,3099,3099,3115,3115,3132,3149" d="m68,205c3.4375,1 3.87976,1.72575 4.64667,1.98933c0.79195,0.27219 1.74084,-0.03372 2.59617,0.36333c0.91206,0.42339 1.4924,0.97287 2.0905,1.64734c0.43949,0.49561 1.52409,0.97005 2.04133,1.41066c0.83349,0.71001 1.26691,1.25905 1.83601,1.76401c0.76897,0.68231 1.59207,1.16769 2.30399,1.62399c0.74743,0.47906 1.36098,1.01437 2.1425,1.50584c0.73964,0.46513 1.55578,1.00227 2.14284,1.53149c0.61391,0.55344 1.39999,1.364 2,1.964c0.6,0.59999 1.20631,1.19379 1.8045,1.80899c0.63831,0.65646 1.09357,1.15108 1.81667,2.03368c0.53657,0.65494 1.06714,1.35069 1.569,2.052c0.68917,0.96306 1.03625,1.53731 1.489,2.26366c0.39977,0.64136 1.00484,1.44167 1.52084,2.04167c0.516,0.60001 1.2584,1.59128 1.58933,2.2c0.53624,0.98636 0.77222,1.61191 1.21067,2.31467c0.56293,0.90227 1.10175,1.44264 1.684,2.25467c0.5312,0.74083 0.88343,1.27042 1.4945,2.30917c0.39877,0.67787 0.70918,1.32097 1.2215,2.32016c0.394,0.76843 0.91149,1.57127 1.4,2.22667c0.51237,0.68741 0.91241,1.42117 1.28533,2.06133c0.58553,1.00511 0.94495,1.53555 1.46201,2.36067c0.49071,0.78307 1.00363,1.73148 1.40533,2.34816c0.53772,0.8255 1.08718,1.39218 1.59467,2.0045c0.65031,0.78465 1.13068,1.61465 1.53667,2.20001c0.56992,0.82169 1.14028,1.37994 1.632,2c0.76587,0.96579 1.03394,1.59006 1.584,2.37866c0.46764,0.67044 1.11272,1.49979 1.5,2.23199c0.41373,0.78223 0.76036,1.60199 1.2,2.30402c0.55193,0.88132 1.23264,1.45584 1.7,2.00616c0.64764,0.76263 1.00416,1.49789 1.5,2.47916c0.30254,0.59872 0.69147,1.40433 1.1,2.19968c0.39186,0.76291 1.21951,1.30807 1.77867,2.022c0.60913,0.77774 0.51581,1.62729 0.92266,2.29431c0.54508,0.89365 1.20554,1.64655 1.59866,2.30936c0.40717,0.68646 1.00058,1.53812 1.60001,2.17465c0.56454,0.59949 1.0417,1.33221 1.57466,2.02533c0.48703,0.63339 0.44057,1.56842 1.12984,2.02734c0.75342,0.50165 0.99295,1.50055 1.65266,1.89017c0.81332,0.48035 1.84415,0.10568 2.74301,0.05701c0.7886,-0.04272 1.54568,-0.39963 2.3615,-0.64719c0.94473,-0.28668 1.77394,-0.33023 2.64284,-0.34818c0.89531,-0.01849 1.79312,0.02802 2.6595,-0.0405c1.07391,-0.08493 1.78726,-0.31088 2.46132,-0.57465c1.20381,-0.47107 1.73587,-0.70496 2.65733,-0.98935c0.68585,-0.21167 1.85931,-0.50296 2.72267,-0.69998c0.44498,-0.10153 1.34578,-0.29236 2.22667,-0.5c1.22772,-0.28937 1.95897,-0.49725 2.64717,-0.70001c1.00468,-0.29599 2.04262,-0.59973 2.7825,-0.8045c0.78012,-0.21591 1.60149,-0.44781 2.02499,-0.58084c1.33958,-0.42081 2.26729,-0.76846 2.73866,-0.95065c0.95198,-0.36792 1.42772,-0.55536 2.808,-1.164c0.88509,-0.39029 1.30742,-0.6001 2.14584,-0.97916c0.81432,-0.36816 2.01671,-0.86615 2.82216,-1.13684c0.8054,-0.27069 1.22113,-0.37863 2.05583,-0.63666c1.31213,-0.40561 2.22734,-0.72995 2.69551,-0.90002c0.94836,-0.34448 1.41852,-0.53171 2.36333,-0.86331c1.35831,-0.47672 1.8015,-0.60873 2.69067,-0.85867c0.92416,-0.25977 1.4171,-0.37958 3.06,-0.79199c0.61852,-0.15527 1.26933,-0.31735 1.944,-0.48602c0.69066,-0.17267 1.38933,-0.34732 2.77866,-0.69464c0.67467,-0.16867 1.944,-0.48599 2.52467,-0.63116c1.05733,-0.26431 2.00267,-0.50067 2.44333,-0.61084c0.83734,-0.20935 2.04266,-0.51068 2.84267,-0.71066c0.8,-0.20001 1.60001,-0.40002 2.8,-0.70001c0.8,-0.20001 1.60001,-0.40002 2.39999,-0.60001c0.8,-0.20001 2.0002,-0.49854 2.7955,-0.69998c0.78404,-0.19858 1.54977,-0.3913 2.63783,-0.70001c0.68559,-0.19452 1.34981,-0.40756 2.028,-0.60001c1.46744,-0.41641 1.88046,-0.50458 2.7485,-0.69998c0.90993,-0.20483 1.84227,-0.39877 2.3075,-0.5c1.36214,-0.29636 2.23006,-0.49979 3.08267,-0.70001c0.42537,-0.09988 1.2825,-0.30673 2.62151,-0.60001c0.93463,-0.20471 1.41423,-0.30124 2.38916,-0.5c0.4937,-0.10065 1.98895,-0.40195 2.98801,-0.59866c0.49664,-0.09781 1.47983,-0.28439 1.96533,-0.36533c0.94943,-0.15829 2.31396,-0.32175 3.17883,-0.38333c0.83588,-0.05951 1.6561,-0.07352 2.85716,-0.21933c0.80286,-0.09747 1.60138,-0.26315 2.39999,-0.444c0.40073,-0.09073 1.59978,-0.39029 2.40134,-0.58936c0.8091,-0.20093 1.63365,-0.40439 2.48401,-0.59998c1.33426,-0.30692 1.79752,-0.39917 2.72932,-0.60001c0.92418,-0.19919 1.37939,-0.28394 2.65201,-0.60001c0.76645,-0.19035 1.8121,-0.50136 2.48149,-0.7c1.0179,-0.30206 1.73561,-0.50082 2.47717,-0.7c1.12166,-0.30125 2.20818,-0.59937 2.88933,-0.79868c0.64952,-0.19005 1.57381,-0.4812 2.48534,-0.63466c0.89459,-0.1506 1.80234,-0.17146 2.39999,-0.25067c1.20752,-0.16003 1.8118,-0.34805 2.75717,-0.6205c1.01071,-0.29128 1.72604,-0.49356 2.45749,-0.6955c1.07629,-0.29715 2.05356,-0.59573 2.87552,-0.89551c0.72586,-0.26472 1.67392,-0.55728 2.46249,-0.65182c0.81982,-0.09828 1.88831,-0.1924 2.59018,-0.40533c0.86328,-0.2619 1.86447,-0.53362 2.478,-0.66817c1.1601,-0.25443 1.93079,-0.68642 2.47916,-0.97917c0.81451,-0.43484 1.81616,-0.81819 2.65332,-1.01466c0.82816,-0.19435 1.54218,-0.63268 2.44669,-0.97467l0.81067,-0.01067" id="svg_2" stroke-width="2" stroke="#000" fill="none"/>
  <path t="8848,8862,8862,8869,8890,8890,8906,8906,8915,8932,8932,8947,8965,8982,8982,8982,8997,8997,9015,9015,9032,9032,9047,9065,9065,9082,9082,9082,9098,9098,9115,9115,9115,9132,9147,9165,9165,9182,9182,9205,9205,9221,9233,9257,9257,9266,9283,9299,9317,9317,9333,9349,9366,9366,9383,9401,9401" d="m48,297c0.284,4.228 0.69367,5.10892 0.91467,6.11465c0.19088,0.86871 0.10584,1.65546 0.438,2.53802c0.26579,0.70621 0.424,1.66888 0.93267,2.54733c0.39655,0.68481 1.24163,1.12488 1.63067,2.00131c0.40463,0.91159 0.51379,1.63766 0.88533,2.39999c0.39082,0.80188 0.8387,1.57788 1.07733,2.59851c0.17957,0.76801 0.36464,1.76648 0.696,2.3895c0.42899,0.80658 0.62921,1.73999 0.94617,2.43152c0.4542,0.991 0.77917,1.57916 1.17917,2.37915c0.5,1 0.80151,1.59924 1.3,2.60001c0.2964,0.59503 0.7787,1.30969 0.964,2.36401c0.16217,0.9227 0.26926,1.72766 0.7405,2.39316c0.50835,0.7179 0.83004,1.46262 1.4955,2.35748c0.45734,0.61499 1.29958,1.22 1.67867,1.98535c0.41942,0.84677 0.54539,1.59042 1.12133,2.37915c0.46754,0.64029 0.98209,1.18262 1.35267,2.17352c0.26431,0.70676 0.38563,1.75836 1.0045,2.29465c0.68626,0.5947 1.44283,0.854 2.14283,1.55267l0.6,0.60001l0.6,0.60001" id="svg_4" stroke-width="2" stroke="#000" fill="none"/>
  <path t="10024,10037,10037,10049,10066,10084,10101,10101,10117,10118,10133,10134,10148,10148,10148,10165,10165,10182,10182,10182,10198,10198,10198,10215,10215,10215,10232,10232,10232,10248,10248,10248,10265,10265,10265,10282,10282,10282,10282,10298,10298,10298,10298,10315,10315,10315,10315,10315,10315,10315,10332,10332,10332,10332,10332,10332,10348,10348,10348,10348,10348,10348,10365,10365,10365,10365,10365,10365,10382,10382,10382,10382,10382,10382,10398,10398,10398,10398,10398,10415,10415,10415,10415,10415,10432,10432,10432,10432,10432,10432,10448,10448,10448,10448,10448,10448,10465,10465,10465,10465,10465,10482,10482,10482,10482,10482,10482,10482,10500,10500,10500,10500,10500,10500,10516,10516,10516,10516,10516,10531,10531,10532,10532,10532,10532,10547,10547,10547,10548,10548,10548,10548,10564,10564,10564,10564,10565,10565,10565,10565,10581,10582,10582,10582,10582,10582,10598,10598,10598,10598,10598,10598,10614,10614,10614,10615,10615,10615,10615,10631,10631,10631,10631,10632,10647,10647,10648,10648,10648,10665,10665,10665,10665,10665,10665,10681,10682,10682,10682,10682,10698,10698,10698,10698,10698,10698,10698,10714,10714,10715,10715,10715,10731,10731,10732,10747,10747,10747,10748,10748,10765,10765,10765,10765,10765,10781,10781,10782,10782,10782,10798,10798,10798,10798,10798,10798,10798,10815,10815,10815,10815,10831,10831,10832,10832,10847,10847,10848,10848,10864,10865,10865,10865,10865,10881,10881,10882,10882,10897,10898,10898,10898,10916,10916,10916,10916,10933,10933,10933,10933,10933,10933,10950,10950,10950,10950,10950,10967,10967,10967,10967,10967,10984,10984,10984,11000,11000,11000,11000,11000,11017,11017,11017,11034,11034,11035,11050,11050,11067,11067,11084,11084,11085,11100,11100,11101,11118,11118,11118,11133,11133,11133,11133,11150,11150,11167,11167,11167,11184,11184,11200,11200,11217,11217,11232,11250,11250,11267,11267,11283,11298,11298,11317,11317,11335,11335,11350,11367,11425,11425,11494" d="m68,342c5.77333,1.82935 6.77845,1.62271 7.564,2.03601c0.75757,0.39859 1.19765,0.96173 2.09316,0.96399c0.94417,0.00235 1.94943,-0.05811 2.74284,0.05716c1.01604,0.14761 1.59984,0.52606 2.76666,0.77618c0.77161,0.16541 1.57196,0.16132 2.5,0.16666c0.83332,0.00479 1.87617,0 2.59467,0c0.7905,0 1.81734,0 2.73867,0c0.684,0 1.68533,0 2.52084,0c0.8805,0 1.779,0 2.6685,0c0.8535,0 1.88934,0 2.81067,0c0.684,0 1.68667,0 2.54166,0c0.62,0 1.97967,0 2.71101,0c0.74733,0 1.49466,0 2.58067,0c1.0275,0 1.72916,0 2.49083,0c1.3425,0 1.86153,0.00351 2.9955,-0.00449c0.60302,-0.00424 1.22233,-0.00635 2.484,-0.05267c0.63121,-0.02316 1.86437,-0.09659 3.02567,-0.22684c0.55706,-0.06247 1.09842,-0.1431 2.14934,-0.29068c1.01842,-0.14304 2.02056,-0.26859 3.02133,-0.34131c0.49966,-0.03632 1.50027,-0.07904 2.5,-0.13669c0.50015,-0.02884 2.00064,-0.16498 2.50133,-0.23132c1.01035,-0.13388 1.51865,-0.2222 2.55583,-0.36334c0.52776,-0.07181 2.16374,-0.23541 2.72551,-0.26865c1.13155,-0.06693 1.69679,-0.07816 2.8075,-0.13669c0.54065,-0.0285 2.06775,-0.16327 2.5405,-0.23132c0.90956,-0.13095 1.78203,-0.30347 2.65201,-0.43201c0.88219,-0.13034 1.8024,-0.20447 2.75333,-0.25867c0.48471,-0.02762 1.47058,-0.05344 2.964,-0.19199c0.50082,-0.04645 1.50014,-0.18503 2,-0.25867c1.00029,-0.14737 1.99808,-0.30847 3,-0.40802c0.99707,-0.09906 1.49518,-0.11929 2.47917,-0.14581c0.96346,-0.02597 1.4355,-0.02017 2.79984,-0.02084c0.87732,-0.00043 1.76266,0 2.68799,0c0.48767,0 2.09717,0 2.68634,0c0.60916,0 1.86749,0 2.50667,0c0.63916,0 1.27333,0 3.097,0c0.57233,0 1.67099,0 2.20132,0c1.03267,0 1.539,0 3.04167,0c0.5,0 1.5,0 2.5,0c0.5,0 2,0.00101 2.50017,-0.00015c1.00433,-0.00232 2.02081,-0.01617 2.53583,-0.03586c1.04973,-0.04013 2.13113,-0.12619 2.68584,-0.18533c1.14536,-0.12213 1.73528,-0.20581 2.34067,-0.27866c1.25587,-0.15112 1.90828,-0.23111 3.27083,-0.33334c0.70862,-0.05316 1.43324,-0.08472 2.16751,-0.11398c0.73909,-0.02945 2.21259,-0.07568 2.93666,-0.10535c0.70926,-0.02905 2.06331,-0.10535 2.698,-0.16882c1.19475,-0.11948 1.75813,-0.20474 2.8325,-0.38916c0.51932,-0.08914 2.03177,-0.39047 2.53217,-0.48917c1.00389,-0.19797 1.50891,-0.29907 2.53583,-0.46417c0.5204,-0.08368 2.13017,-0.27606 2.68517,-0.31451c1.12613,-0.078 1.69344,-0.0889 2.25801,-0.10065c1.11087,-0.0231 1.65149,-0.01669 3.17799,-0.021c0.933,-0.00262 1.8222,-0.0159 2.25751,-0.03586c0.86848,-0.03979 2.20758,-0.18011 3.14249,-0.31665c0.47923,-0.06998 1.45183,-0.23428 2.44417,-0.36334c0.99715,-0.1297 1.99841,-0.20367 2.49867,-0.22684c0.99959,-0.0463 2,-0.05402 2.5,-0.05582c1.50015,-0.0054 2.00133,-0.00134 3.01067,-0.00134c0.51016,0 1.54649,0 3.15601,0c0.55449,0 1.116,0 2.248,0c0.5645,0 1.67549,0 2.21599,0c1.52617,0 1.99734,0 2.88667,0c0.82533,0 1.59467,0 3,0c0.668,0 1.6925,0 2.81599,0c0.836,0 1.2765,0 2.1875,0c0.931,0 2.3125,0 2.75768,0c0.86433,0 1.70067,0 2.517,0c1.2045,0 2.00862,0.00595 2.8365,-0.01068c0.87617,-0.01761 1.82481,-0.06476 2.868,-0.15598c0.56433,-0.04935 1.7536,-0.18512 2.36533,-0.25867c0.61392,-0.07379 1.81906,-0.22601 2.39734,-0.29068c1.55017,-0.17337 2.40891,-0.22818 3.15399,-0.284c0.66556,-0.04987 1.88486,-0.2153 2.48785,-0.35266c0.93365,-0.21268 1.57516,-0.40475 2.61716,-0.52585c1.1207,-0.13022 1.92496,-0.11319 2.34,-0.117c1.30493,-0.01199 2.22107,-0.00031 3.15302,-0.01517c0.46454,-0.00742 1.37988,-0.00372 2.65198,-0.15598c0.76617,-0.09171 1.78888,-0.34595 2.42435,-0.48068c1.20432,-0.25534 1.81378,-0.29691 2.745,-0.37799c0.64951,-0.05655 1.68738,-0.18784 2.43018,-0.33185c0.7981,-0.15472 1.65085,-0.35611 3.06717,-0.64282c0.5087,-0.103 1.57141,-0.29898 2.11731,-0.38934c1.09756,-0.18167 1.64145,-0.27585 3.216,-0.444c0.48965,-0.05228 1.4191,-0.11273 2.29169,-0.16666c0.8327,-0.05148 2.0437,-0.15359 2.83899,-0.284c0.78357,-0.12848 1.52835,-0.3027 2.23199,-0.43201c1.20041,-0.22058 1.9931,-0.26962 2.82401,-0.36801c1.01306,-0.11996 1.81067,-0.26556 2.66751,-0.43683c0.87991,-0.17587 1.31668,-0.26385 2.53598,-0.57898c1.06436,-0.27505 1.67346,-0.52048 2.77652,-0.73352c0.92273,-0.17822 1.56216,-0.1644 2.56665,-0.16666c0.80002,-0.0018 1.80017,0 2.62085,0c1.14581,0 1.93182,0 2.75381,0c1.05869,0 1.77692,0.0451 2.67801,-0.05716c0.97638,-0.11081 1.78046,-0.37973 2.358,-0.51752c1.1839,-0.28247 2.08426,-0.37949 2.66849,-0.40448c0.83496,-0.03571 2.06818,-0.02084 2.74619,-0.02084c1.19598,0 2,0 2.54932,0c1.30368,0 1.97867,0 3.05869,0c0.79199,0 1.65067,0.00217 2.51398,0c0.90002,-0.00226 1.81934,-0.16666 2.65268,-0.5c0.83334,-0.33334 1.58926,-0.49466 2.52084,-0.5c0.96445,-0.00552 1.68982,0 2.67899,0c0.77933,0 1.77866,0 2.59885,0c0.90134,0 1.83731,0 2.68533,0l0.86331,0l1.00601,-0.01068" id="svg_5" stroke-width="2" stroke="#000" fill="none"/>
  <path t="12575,12585,12600,12617,12617,12633,12633,12648,12648,12648,12648,12648,12648,12648,12665,12665,12665,12665,12665,12683,12683,12683,12683,12698,12699,12699,12699,12715,12715,12715,12715,12734,12734,12734,12734,12748,12748,12748,12748,12766,12766,12766,12766,12782,12782,12782,12782,12798,12798,12798,12815,12815,12815,12833,12833,12833,12833,12848,12848,12848,12865,12865,12866,12882,12883,12883,12898,12898,12898,12915,12915,12915,12935,12935,12935,12951,12951,12951,12967,12967,12968,12985,12985,12985,12985,13000,13000,13000,13000,13017,13017,13017,13017,13017,13017,13034,13034,13034,13034,13034,13050,13050,13050,13050,13050,13067,13067,13067,13067,13067,13084,13084,13084,13085,13085,13085,13085,13100,13100,13100,13100,13101,13117,13117,13117,13117,13117,13134,13135,13135,13135,13150,13150,13150,13150,13151,13167,13167,13167,13167,13167,13185,13185,13185,13185,13185,13185,13201,13201,13201,13201,13201,13201,13217,13217,13218,13218,13218,13235,13235,13235,13235,13235,13249,13249,13249,13249,13250,13250,13267,13267,13267,13268,13268,13268,13285,13285,13285,13285,13301,13301,13318,13318,13318" d="m355,330c4.29199,0 5.20001,0 6.10016,0c0.78519,0 1.58041,0.01187 2.2905,-0.03601c1.44531,-0.09744 1.91653,-0.18378 2.98169,-0.31665c0.57574,-0.07181 1.16879,-0.1517 2.37866,-0.29468c0.59943,-0.07083 1.74805,-0.19922 2.79166,-0.26733c0.93796,-0.06122 1.78931,-0.07877 2.56799,-0.08398c1.06799,-0.00714 1.73755,0.01495 2.71469,-0.03735c0.65955,-0.03531 1.69714,-0.18008 2.81064,-0.38931c0.77539,-0.14569 1.56174,-0.31998 2.76385,-0.45334c0.79373,-0.08807 1.58035,-0.10788 2.34299,-0.17401c1.09235,-0.09473 1.7738,-0.22839 2.75717,-0.44733c0.65311,-0.14539 1.66516,-0.34753 2.384,-0.41599c1.11411,-0.10608 1.8678,-0.10007 2.94934,-0.25067c0.68628,-0.09555 1.66751,-0.35117 2.31934,-0.53784c1.01535,-0.2908 1.72665,-0.50745 2.82648,-0.77466c0.70895,-0.17224 1.68597,-0.36572 2.51102,-0.46817c0.95645,-0.11874 1.93552,-0.25894 2.74582,-0.48868c0.57785,-0.16385 1.76227,-0.56931 2.36401,-0.76266c0.89749,-0.28842 1.48987,-0.5033 2.69983,-0.67984c0.88422,-0.12903 1.74304,-0.11148 2.77884,-0.12164c0.69604,-0.00684 1.61121,-0.05753 2.60666,-0.28384c0.55435,-0.12604 1.41119,-0.40915 2.6145,-0.59467c0.59262,-0.09137 1.47781,-0.06677 2.53351,-0.28799c0.94827,-0.1987 1.56049,-0.54126 2.56799,-1.03336c0.6185,-0.30209 1.27701,-0.61795 2.284,-1c0.83002,-0.31491 1.41687,-0.5069 2.61465,-0.89981c0.89835,-0.29471 1.48975,-0.51474 2.70001,-0.73352c0.59601,-0.10773 1.50284,-0.14032 2.39999,-0.25067c0.90417,-0.11121 1.83432,-0.35495 2.508,-0.56265c0.7507,-0.23145 2.05652,-0.67386 2.54535,-0.83865c1.03403,-0.3486 1.56851,-0.53268 2.10666,-0.72534c1.07538,-0.38498 2.11017,-0.78098 3.06934,-1.18802c0.90204,-0.38281 1.32428,-0.59149 2.16165,-0.94415c1.20245,-0.50641 2.00784,-0.77679 2.80902,-1.03183c0.79886,-0.2543 1.20975,-0.35068 2.39999,-0.79199c0.80975,-0.30023 1.621,-0.67014 2.47198,-1.04401c0.44217,-0.19427 1.85995,-0.79297 2.3707,-0.98935c1.05978,-0.40753 1.60809,-0.59967 2.15732,-0.79999c1.09491,-0.39935 1.63983,-0.58047 3.15701,-1.20001c0.47485,-0.19391 1.37341,-0.59488 2.22165,-1c0.41351,-0.19751 1.62216,-0.79837 2.42001,-1.19998c0.79147,-0.39838 1.56903,-0.79318 2.31598,-1.20001c0.72232,-0.3934 1.73267,-1 2.38535,-1.39999c0.65268,-0.39999 1.66141,-1.00961 2.38535,-1.39868c0.74536,-0.4006 1.1275,-0.59827 1.91916,-0.94415c1.18411,-0.51736 1.99722,-0.77332 2.80615,-1.04251c0.82574,-0.27478 1.68466,-0.5607 2.556,-0.948c0.92865,-0.41278 1.39255,-0.66943 2.33334,-1.20831c0.47806,-0.27383 1.42184,-0.85211 2.33334,-1.45834c0.88712,-0.59003 1.30881,-0.89648 2.14581,-1.47916c0.40985,-0.28531 1.20709,-0.85541 2.42084,-1.59933c0.39606,-0.24274 1.19669,-0.69183 2,-1.11084c0.79678,-0.41562 1.59921,-0.81226 2.40134,-1.21066c0.80853,-0.40158 1.63333,-0.80289 2.05585,-1c1.30536,-0.60892 2.22739,-1.00177 2.69998,-1.20001c0.96219,-0.40363 1.45297,-0.60138 2.44418,-1c0.99811,-0.4014 1.99582,-0.7991 2.48965,-0.99548c0.96701,-0.38452 1.4353,-0.57291 2.33835,-0.91919c1.22519,-0.46979 1.95294,-0.72504 2.91333,-1.07465c0.57001,-0.20749 1.57199,-0.61069 2.44666,-1.01068l0.81067,-0.39999l0.78934,-0.38934l0.72534,-0.32532" id="svg_6" stroke-width="2" stroke="#000" fill="none"/>
  <path t="14694,14717,14725,14750,14750,14766,14766,14782,14782,14783,14799,14816,14816,14817,14817,14817,14832,14833,14833,14849,14850,14850,14866,14867,14867,14882,14882,14898,14915,14932,14932,14948,14965,14965,15025,15037,15053,15065,15081,15081,15098,15098,15098,15115,15115,15115,15115,15115,15131,15131,15131,15131,15148,15148,15148,15165,15165,15165,15165,15165,15181,15181,15181,15181,15181,15181,15198,15198,15198,15198,15198,15215,15215,15215,15215,15231,15231,15231,15231,15248,15248,15248,15248,15248,15265,15265,15265,15265,15281,15281,15281,15281,15281,15298,15298,15298,15298,15315,15315,15315,15315,15331,15331,15331,15348,15348,15348,15365,15365,15365,15381,15381,15398,15398,15415,15415,15415,15431,15431,15448,15448,15465,15909,15918,15932,15948,15965,15981,16001,16016,16016,16032,16032,16049,16065,16065,16065,16082,16098,16098,16116,16116,16132,16261,16261,16277" d="m404,212c2.58932,1.02533 3.35437,1.5051 4.10016,1.87883c0.74847,0.37509 1.55173,0.83722 2.1105,1.3065c0.78204,0.65678 1.63831,1.08847 2.21866,1.61333c0.71411,0.64581 1.22586,1.54745 1.70935,1.96935c0.57086,0.49812 1.22415,0.99231 1.896,1.46399c0.91193,0.64024 1.70972,1.08124 2.35632,1.51617c1.03687,0.69743 1.61249,1.26907 2.009,1.65633c0.80698,0.7881 1.3891,1.38509 1.94284,1.93834c0.77148,0.77083 1.47296,1.32967 2.25717,1.6825c0.82007,0.36896 1.49921,1.07549 2,1.57468c0.69885,0.69662 1.53323,1.18805 2.19998,1.48399c0.85779,0.38075 1.59946,0.89799 2.5,0.916c0.90115,0.01802 1.86667,0 2.53601,0c1.164,0 1.7775,0 2.7355,0c0.9285,0 1.68195,0.00609 2.51517,-0.01067c0.8735,-0.01756 1.75198,-0.03337 2.97034,-0.21066c0.7327,-0.10663 1.39642,-0.30119 2.34033,-0.49467c0.89868,-0.1842 1.81461,-0.24437 2.75983,-0.33667c1.01111,-0.09872 1.73199,-0.22684 2.50018,-0.38333c0.82663,-0.1684 1.71329,-0.3721 2.67599,-0.564c1.03323,-0.20595 1.57083,-0.30264 2.66666,-0.47917c0.54877,-0.08841 1.6304,-0.25026 2.66666,-0.35416c0.9614,-0.09639 1.86142,-0.1404 2.29169,-0.16667c0.83276,-0.05084 2.04358,-0.1543 2.84033,-0.284c0.79276,-0.12906 1.55872,-0.33165 3.03467,-0.54933c0.68011,-0.10031 1.34097,-0.14426 2.31934,-0.16217c1.01382,-0.01857 1.73279,0.00177 2.48331,-0.01517c0.7749,-0.01749 1.56903,-0.04539 2.76419,-0.21066c0.80728,-0.11163 1.61832,-0.29262 2.457,-0.42601c1.30621,-0.20776 2.22534,-0.27115 2.69098,-0.29999c0.93069,-0.05765 1.84628,-0.06483 3.1185,-0.21935c0.76602,-0.09303 1.45865,-0.2706 2.42435,-0.48067c0.90662,-0.19722 1.80829,-0.31174 2.70898,-0.342c0.59973,-0.02016 1.80002,-0.01067 2.70001,-0.01067c0.60001,0 1.79984,0 2.68933,0c0.57468,0 1.64401,0 2.57468,0c0.83466,0 1.836,0 2.63599,0c1.00134,0 1.836,0 2.76666,0c0.78152,0 1.57202,0 2.69052,0c0.75748,0 1.7955,0 2.49014,0c1.01669,0 1.97437,-0.1949 2.85135,0.00133c0.80704,0.18057 1.17731,1.02713 1.82666,1.57333c0.63556,0.53461 1.35623,0.9026 2.14136,1.42534c0.63684,0.42401 1.69159,0.75333 2.42267,1.02533c0.8606,0.32019 1.57318,0.98155 2.23596,1.37466c0.68646,0.40718 1.54749,0.9908 2.17468,1.60001c0.60864,0.5912 1.29999,1.3 1.79999,1.8c0.70001,0.7 1.39868,1.39999 1.91467,2l0.27466,0.8" id="svg_7" stroke-width="2" stroke="#000" fill="none"/>
  <path t="17190,17237,17237,17245,17268,17268,17283,17283,17283,17299,17299,17299,17317,17317,17317,17334,17350,17350,17367,17381,17381,17400,17452,17460,17460,17477,17488,17504,17529,17529,17549,17865,17882,17898,17910,17910,17918,17931,17931,17948,17966,17966,17981,17982,17998,17998,17998,18016,18016,18032,18048,18049,18066,18066,18082,18099,18099,18122,18122,18122,18138,18150,18165,18278,18286,18299,18316,18333,18333,18348,18348,18365,18366,18366,18381,18381,18398,18415,18416,18432,18450,18450,18466,18466,18482,18498,18515,18515,18531,18532,18548,18565,18638,18678" d="m511,282c0.10001,-0.22134 0.81732,-0.67444 1.59998,-1.02533c0.84235,-0.37762 1.36353,-0.87097 2.16937,-1.45999c0.745,-0.54453 1.30127,-0.89548 2.30914,-1.71451c0.47345,-0.38474 1.07892,-1.00479 1.92151,-1.63351c0.76227,-0.56882 1.35181,-0.84888 2.24286,-1.46216c0.76501,-0.52655 1.6076,-0.71646 2.25714,-1.22534c0.76703,-0.60092 0.94409,-1.44312 1.58398,-2.19382c0.56769,-0.66599 1.14996,-1.24362 1.56335,-1.98535c0.4256,-0.76367 0.89581,-1.5033 1.23114,-2.39999c0.31805,-0.85065 -0.26404,-1.82336 0.17871,-2.54282c0.45343,-0.73676 1.41705,-0.90964 2.34283,-1.33185c0.78082,-0.35608 1.40027,-0.82635 2.09998,-1.52533c0.60022,-0.59958 1.21552,-1.10828 2.09998,-1.52533c0.82635,-0.38965 1.27563,-0.87125 2.05719,-1.62735c0.54681,-0.52899 1.33124,-1.19803 1.93835,-1.59015c0.73395,-0.47406 1.65674,-1.04692 2.20313,-1.55717c0.73505,-0.68645 1.52429,-1.29735 2.20135,-1.7c0.83527,-0.49673 1.43604,-1.05998 2.20001,-1.416c0.86163,-0.40155 1.55829,-0.84453 2.12134,-1.40533c0.68005,-0.67729 1.2381,-1.15392 1.91699,-1.92149c0.638,-0.72131 1.39801,-1.2142 1.67499,-2.04117c0.22699,-0.67767 -0.79309,-1.44176 -1.56,-1.70534c-0.79321,-0.27261 -1.77032,-0.01584 -2.55334,-0.23199c-0.81659,-0.22543 -1.79736,-0.62764 -2.59998,-0.75334c-0.79773,-0.12492 -1.78784,-0.39822 -2.54285,-0.67267c-0.8916,-0.32411 -1.69879,-0.6692 -2.45715,-1.06866c-0.7887,-0.41541 -1.70233,-0.53305 -2.37469,-0.89467c-0.82874,-0.44571 -1.51996,-1.03406 -2.32532,-1.38933c-0.80365,-0.35454 -1.66669,-0.83333 -2.5,-1c-0.83331,-0.16667 -1.58936,-0.57466 -2.40002,-0.964l-0.89996,-0.036l-0.89868,-0.00133l-0.74414,-0.35583" id="svg_8" stroke-width="2" stroke="#000" fill="none"/>
  <path t="19983,20006,20018,20018,20031,20049,20049,20066,20066,20066,20066,20082,20082,20082,20082,20082,20098,20098,20098,20098,20115,20115,20115,20115,20131,20131,20131,20131,20132,20148,20148,20148,20149,20149,20149,20165,20165,20166,20182,20182,20202,20202,20218,20219,20235" d="m382,330c2.47916,0.52084 3.20001,1.20001 3.70001,1.70001c0.69998,0.69998 1.38016,1.42252 1.97198,1.93597c0.64047,0.55569 1.34644,1.02625 1.8905,1.40567c0.60321,0.42065 1.60385,1.12543 2.3215,1.64102c0.74103,0.53241 1.48615,1.06284 1.86334,1.3075c1.07346,0.6962 2.09338,1.20468 2.73181,1.48898c0.61432,0.27356 1.82544,0.8345 2.42535,1.17801c0.62103,0.35562 1.24545,0.75974 2.26215,1.34283c0.71506,0.4101 1.48022,0.81027 2.28,1.23599c0.41513,0.22095 1.72198,0.92719 2.63467,1.44669c0.46335,0.26373 1.37698,0.79651 1.82135,1.056c0.84262,0.49203 1.93225,1.11905 2.52133,1.44699c0.70749,0.39386 1.67612,1.03525 2.32864,1.51434c0.71472,0.52475 1.422,0.93597 2.22583,1.62115l0.50067,0.65799l0.52084,0.6875" id="svg_9" stroke-width="2" stroke="#000" fill="none"/>
  <path t="20792,20798,20798,20798,20816,20833,20848,20865,20865,20883,20898,20915,20915,20933,20948,20967,20983,20983,21000,21000,21017,21032,21050,21050,21050,21067,21067,21084,21084,21098,21098,21117,21117,21117,21133,21150,21150,21167,21167,21183,21198,21198,21217,21217,21231,21231,21250,21250,21267,21267,21281,21281,21281,21300,21300,21315,21316,21331,21331,21348,21348,21365,21365,21365,21381,21381,21398,21398,21415,21415,21415,21431,21431,21448,21448,21448,21465,21465,21481,21481,21498,21515,21515,21515,21531,21531,21548,21548,21566,21566,21581,21581,21598,21615,21615,21631,21631,21648,21648,21665,21665,21681,21698,21698,21721,21721,21745,21757,21757,21765,21781,21799,21815,21816,21831,21831,21848,21848,21865,21881,21881,21881,21898,21898,21915,21915,21931" d="m429,350c-7.47067,0.00015 -8.60443,-0.18484 -9.25867,0.05716c-0.92447,0.34198 -1.50687,0.90463 -2.24133,1.46368c-0.77533,0.59018 -1.3172,1.15271 -2.10001,1.50449c-0.82022,0.36859 -1.60086,0.9968 -2.04282,1.67468c-0.47849,0.73392 -0.82312,1.53607 -1.23584,2.39999c-0.40732,0.85266 -0.8212,1.49597 -1.03601,2.384c-0.20386,0.84277 -0.08533,1.75882 -0.08533,2.71732c0,0.96533 -0.00171,1.63467 0,2.39999c0.00226,0.99869 -0.01196,1.81693 0.284,2.79736c0.23657,0.78372 0.6098,1.72333 0.80002,2.57065c0.18042,0.80365 0.38846,1.55109 0.71732,2.26266c0.52393,1.13364 1.19867,1.76801 1.79868,2.36801c0.60001,0.60001 1.19995,1.20001 1.89999,1.89999c0.60013,0.60004 1.23831,1.22858 1.98401,1.70001c0.67459,0.42648 1.44489,0.97849 2.14133,1.36398c0.81299,0.45001 1.79443,0.43076 2.77466,0.72c0.61163,0.18048 1.59366,0.59698 2.39999,0.67999c0.79657,0.082 1.80002,0.03601 2.60001,0.03601c0.99869,0 1.76401,0 2.85184,0c0.7175,0 1.75998,0.0278 2.53351,-0.03601c1.05255,-0.08685 1.74756,-0.34714 2.61017,-0.61133c0.99298,-0.30414 1.81268,-0.25082 2.72183,-0.638c0.58319,-0.24835 1.42886,-0.80685 2.13333,-1.12534c0.74783,-0.3381 1.62436,-0.89468 2.22849,-1.58932c0.70895,-0.81519 1.20874,-1.20218 1.86816,-1.75266c0.81305,-0.67868 1.26273,-1.40131 1.53134,-2.22583c0.2619,-0.80392 0.7446,-1.52487 0.99985,-2.56418c0.1701,-0.69257 0.05206,-1.45425 0.12598,-2.64749c0.04309,-0.69586 0.47495,-1.62744 0.71152,-2.41116c0.29596,-0.98044 0.28174,-1.79868 0.284,-2.79736c0.00171,-0.76532 0,-1.71597 0,-2.60132c0,-0.75717 0.07086,-1.66669 -0.08533,-2.60132c-0.1355,-0.81082 -0.45316,-1.61142 -1.11469,-2.51334c-0.45328,-0.61798 -1.20877,-1.27667 -1.79999,-1.88535c-0.60919,-0.6272 -1.03418,-1.36526 -1.60001,-2.13867c-0.5408,-0.7392 -1.35376,-1.10345 -2.10001,-1.50867c-0.76111,-0.41327 -1.69998,-0.35266 -2.60449,-0.35266c-0.86215,0 -1.73611,0.12222 -2.67416,-0.22134c-0.69196,-0.25342 -1.50262,-0.73157 -2.36865,-0.77417c-0.90344,-0.04446 -1.98621,-0.01648 -2.65802,0c-0.74445,0.01825 -1.85184,0.21686 -2.60931,0.57019l-0.86801,0.34131l-0.8075,0.13669l-0.72452,0.522" id="svg_10" stroke-width="2" stroke="#000" fill="none"/>
  <path t="22820,22846,22854,22870,22890,22890,22898,22898,22898,22914,22914,22931,22948,22948,22948,22964,22964,22964,22981,22981,22998,22998,22998,23014,23014,23031,23031,23049,23049,23065,23081,23178" d="m432,320c0,2.58932 -0.00006,3.5 0,4.41068c0.00009,0.91098 -0.03787,1.64017 0.16666,2.75598c0.14484,0.79019 0.44989,1.56137 0.66669,2.5c0.18115,0.78436 0.13242,1.76349 0.33331,2.66669c0.15231,0.68484 0.45612,1.44128 0.66669,2.5c0.18362,0.92325 0.14047,1.58374 0.452,2.56665c0.26093,0.82327 0.74158,1.58746 1.104,2.39999c0.35184,0.78873 0.51944,1.80603 0.66333,2.60001c0.1828,1.0087 0.50635,1.55875 0.82599,2.57849c0.2529,0.80679 0.69601,1.62152 1.09601,2.42151l0.30933,0.79733" id="svg_11" stroke-width="2" stroke="#000" fill="none"/>
  <path t="24159,24166,24166,24166,24166,24182,24182,24182,24198,24286,24294,24302,24317,24332,24348,24348,24364,24365,24381,24398,24398,24415,24473" d="m447,351c-0.91467,-2.62 -0.95282,-3.06299 -0.97916,-4c-0.02634,-0.93646 -0.02084,-2.16666 -0.02084,-2.77335c0,-1.01999 0.20322,-1.70062 0.83334,-2.39331c0.54544,-0.59961 0.99268,-0.3483 1.6875,0.16666c0.6886,0.51035 1.47916,1 1.97916,1.5c0.70001,0.70001 1.29999,1.29999 1.89999,1.89999c0.70001,0.70001 1.30002,1.30002 1.89999,1.89551l0.79984,0.58282" id="svg_12" stroke-width="2" stroke="#000" fill="none"/>
  <path t="25091,25222,25230,25249,25265,25281,25299,25299,25315,25315,25315,25330,25330,25347,25347,25363,25363,25380,25380,25397,25397,25397,25413,25413,25430,25430,25447,25447,25463,25463,25463,25480,25480,25480,25497,25513,25513,25530,25530,25530,25547,25547,25563,25563,25580,25597,25597,25621,25621,25637,25637,25649,25681,25709,25838,25854,25869,25870,25885,25898,25915,25931,25949,25965,25965,25981,25981,25982,25999,25999,26015,26015,26031,26093,26109,26117,26117" d="m450,315c0.87851,-0.7785 0.75577,0.23215 1.284,0.91599c0.48471,0.6275 0.59198,1.43051 0.9375,2.18436c0.35916,0.78363 0.90259,1.43289 1.16785,2.15033c0.35852,0.9697 0.50348,1.95251 0.69467,2.63199c0.27527,0.97824 0.73065,1.71216 1.11465,2.51733c0.37857,0.79382 0.67416,1.80093 0.80133,2.60001c0.15933,1.00119 0.33752,1.60883 0.7045,2.39999c0.46933,1.0119 0.85736,1.57446 1.12885,2.60001c0.2052,0.77518 0.29221,1.85687 0.6875,2.5c0.52634,0.85635 1.00751,1.52576 1.19382,2.18668c0.2757,0.97803 0.21536,1.80365 0.36935,2.54398c0.23608,1.13507 0.75964,1.93405 0.91599,2.79019c0.17844,0.97708 0.33734,1.58807 0.7045,2.37915c0.46912,1.01071 0.89441,1.53928 1.17401,2.57849c0.21536,0.80048 0.08783,1.6582 0.12598,2.67868c0.02798,0.74869 0.28177,1.74066 0.57019,2.50684c0.30624,0.81357 0.0311,1.76544 0.51065,2.55066c0.4906,0.80331 1.00336,1.38974 0.91467,2.28534c-0.08374,0.8457 -1,1 -1.79999,1c-0.90002,0 -1.80002,0 -2.70001,0c-0.89999,0 -1.8045,0 -2.8215,0c-0.69934,0 -1.67957,0.03186 -2.47849,-0.01068c-0.80237,-0.04272 -1.78738,-0.37881 -2.60001,-0.63666c-0.98544,-0.31265 -1.76398,-0.34732 -2.71466,-0.35266c-0.88535,-0.00497 -1.51468,-0.284 -0.78519,-0.87851l0.78519,-0.12015" id="svg_13" stroke-width="2" stroke="#000" fill="none"/>
  <path t="29943,30141,30141,30150,30189,30201,30201,30225,30249,30261,30269,30293,30301,30316,30333,30354,30370,30383,30398,30414,30431,30448,30464,30481,30481,30498,30514,30514,30531,30548,30564,30581,30598,30598,30614,30631,30648,30664,30681,30698,30714,30733,30733,30765,30781,30788,30808,30840,30841,30853,30869,30885,30909,30921,30937,30953,30964,30981,30998,31014,31031,31048,31064,31064,31081,31098,31114,31133,31161,31185,31185,31213,31229,31237,31261,31269,31281,31297,31314,31331,31347,31364,31381,31381,31397" d="m463,350c1,-1 1.9364,-0.59726 2.71466,-1.08533c0.74042,-0.46436 1.28534,-0.91467 2.08533,-0.91467c0.90002,0 1.90259,-0.39819 2.76401,0.03601c0.69888,0.35226 1.23755,0.94461 2.13602,0.96399c0.86453,0.01865 1.40948,0.67007 2.10132,1.08401c0.79535,0.47586 1.18408,1.29626 1.69867,1.91599c0.49991,0.60202 0.63843,1.45807 1.14734,2.05267c0.53104,0.62045 0.66891,1.62204 1.05716,2.29465c0.53638,0.92926 1.20761,1.63901 1.29102,2.35269c0.10446,0.89392 -0.0484,1.83472 0.35715,2.59998c0.4483,0.84592 0.64734,1.70001 0.64734,2.5c0,0.90002 0,1.80002 0,2.70001c0,0.89999 0,1.79999 0,2.70001c0,0.89999 0.02536,1.80038 0,2.59998c-0.02859,0.9014 -0.45639,1.72617 -0.94733,2.49551c-0.4501,0.70532 -1.26816,0.97235 -1.85266,1.50583c-0.7197,0.65689 -1.54099,1.08719 -2.17468,1.62399c-0.59351,0.50278 -1.42532,0.57468 -2.32532,0.57468c-0.90002,0 -1.93216,-0.24423 -2.616,0.284c-0.6275,0.48471 -1.384,0.71591 -2.28403,0.716c-0.89999,0.00009 -1.76666,0.22058 -2.39999,0.57468c-0.86124,0.48151 -1.79999,0.42532 -2.69998,0.42532c-0.90002,0 -1.80002,0 -2.70001,0c-0.79999,0 -1.79266,0.35489 -2.564,-0.03601c-0.69812,-0.35379 -1.39069,-0.5354 -2.15067,-1.04932c-0.66739,-0.45129 -0.95187,-1.38681 -1.67468,-1.88934c-0.67267,-0.46765 -0.96332,-1.32532 -1.48932,-2.12534l-0.28799,-0.89999l-0.444,-0.60001l-0.68484,-0.69998" id="svg_15" stroke-width="2" stroke="#000" fill="none"/>
  <path t="34322,34337,34337,34346,34346,34365,34381,34381,34381,34397,34397,34397,34414,34414,34414,34414,34431,34431,34431,34447,34447,34464,34464,34464,34481,34481,34481,34481,34497,34497,34497,34514,34514,34531,34531,34532,34532,34552,34552,34552,34552,34552,34552,34569,34569,34569,34569,34569,34587,34587,34587,34596,34596,34597,34614,34614,34614,34614,34632,34632,34632,34650,34650,34650,34667,34667,34681,34681,34681,34702,34702,34702,34702,34713,34714,34714,34714,34735,34735,34750,34750,34768,34781,34781,34796,34796,34796,34817,34817,34834,34834,34834,34846,34846,34867,34867,34880,34912,34912,34936,35077,35112,35129,35145,35145,35161,35177,35184,35197,35214,35214,35231,35231,35231,35247,35247,35247,35264,35264,35281,35281,35297,35297,35297,35297,35314,35314,35331,35331,35331,35347,35347,35347,35365,35365,35365,35381,35381,35381,35381,35397,35397,35397,35414,35414,35431,35431,35431,35447,35447,35447,35464,35464,35481,35481,35481,35497,35497,35497,35514,35514,35514,35531,35531,35531,35547,35547,35547,35564,35564,35564,35581,35581,35581,35597,35597,35597,35614,35614,35614,35631,35631,35631,35631,35647,35647,35647,35664,35664,35664,35681,35681,35697,35697,35697,35714,35714,35731,35731,35747,35747,35747,35764,35764,35781,35782,35797,35797,35814,35814,35830,35830,35846,35846,35846,35863,35863,35880,35880,35896,35896,35914,35914,35931,35931,35946,35946,35963,35963,35981,35981,35996,36014,36014,36030,36046,36047,36063,36063,36081,36081,36096,36113,36114,36114,36130,36130,36131,36146,36147,36163,36180,36180,36181,36196,36197,36197,36213,36213,36214,36230,36246,36246,36247,36263,36263,36281,36281,36281,36297,36297,36313,36314,36330,36330,36331,36346,36347,36364,36364,36364,36381,36381,36381,36397,36397,36414,36414,36414,36430,36431,36431,36431,36447,36447,36447,36467,36467,36467,36481,36481,36497,36514,36514,36514,36530,36531,36531,36546,36546,36565,36565,36580,36581,36596,36597,36690,36699" d="m189,221c3.31334,-3.028 4.13167,-3.60178 4.9785,-3.87866c0.8036,-0.26276 1.51505,-0.68188 2.34317,-1.22151c0.69864,-0.45525 1.36948,-0.77774 2.36366,-1.38382c0.55318,-0.33723 1.10411,-0.73055 2.31467,-1.34933c0.58899,-0.30107 1.47981,-0.64418 2.04283,-0.86217c1.03687,-0.40144 1.93872,-0.79965 2.55583,-1.10451c1.00528,-0.49661 1.63663,-0.78716 2.6015,-1.5215c0.63531,-0.48352 1.01759,-0.91118 1.96651,-1.6785c0.50786,-0.41068 1.32722,-0.98854 1.88066,-1.34283c1.02022,-0.65312 1.71364,-1.02702 2.34816,-1.35266c1.00113,-0.51378 1.6154,-0.82791 2.77118,-1.3045c0.51711,-0.21323 1.4017,-0.52792 2.05215,-0.81433c1.12517,-0.49544 1.95088,-0.95296 2.39101,-1.19101c0.9118,-0.49318 1.36725,-0.76027 2.3075,-1.22665c0.90831,-0.45055 1.78998,-0.81076 2.62534,-1.09601c0.77054,-0.26311 1.49754,-0.43456 2.688,-0.87199c0.75691,-0.27812 1.44388,-0.62102 2.45599,-1c0.84857,-0.31775 1.4724,-0.50891 2.48001,-0.8c0.71419,-0.20633 1.81494,-0.49153 2.5235,-0.7c0.98001,-0.28833 1.8027,-0.58391 2.48849,-0.90001c1.03273,-0.47601 1.62134,-0.79999 2.42134,-1.2c0.79999,-0.39999 1.59663,-0.80676 2.60033,-1.3c0.61896,-0.30417 1.30447,-0.62794 2.4425,-1c0.66187,-0.21638 1.37834,-0.3987 2.10899,-0.59999c1.08203,-0.2981 2.08643,-0.58713 2.68567,-0.8c0.79674,-0.28302 1.73953,-0.81873 2.44516,-1.3c0.75645,-0.51595 1.62843,-0.93146 2.492,-1.17467c0.94183,-0.26526 1.64679,-0.54492 2.62534,-1.02533c0.60037,-0.29474 1.38428,-0.7088 2.39999,-0.916c0.79117,-0.16139 1.80215,-0.29912 2.39999,-0.50934c0.80298,-0.28236 1.80603,-0.48346 2.60001,-0.62733c1.0087,-0.1828 1.72931,-0.64188 2.71466,-0.862c0.86804,-0.19391 1.71976,0.11064 2.58536,-0.14249c0.87762,-0.25664 1.59845,-0.91425 2.39999,-0.94284c0.89941,-0.03209 1.69998,0 2.60001,0c0.89999,0 1.79999,0 2.71066,0c0.91083,0 1.79999,0 2.78949,0c0.82068,0 1.48517,0 2.48383,0c0.81601,0 1.63202,0 2.85886,0c0.64648,0 1.65942,-0.04141 2.478,0.02083c1.15173,0.08757 1.93152,0.33298 2.47916,0.47917c0.81555,0.21771 2.0463,0.46222 2.72534,0.48933c0.94061,0.03755 1.72733,0.01067 2.54932,0.01067c1.05869,0 2,0 2.67801,0c1.23401,0 1.79401,0 2.70898,0c1.005,0 1.72101,0 2.8175,0c0.711,0 1.68829,-0.03181 2.74884,0.01067c0.66409,0.0266 1.66449,0.29486 2.47202,0.564c0.99167,0.33051 1.82062,0.41338 2.48532,0.42401c0.99854,0.01598 1.81985,-0.02554 2.63068,0.08665c1.00992,0.13974 1.89511,0.54822 2.85065,0.748c0.77744,0.16254 1.61874,0.12686 2.66669,0.33334c0.71964,0.1418 1.54684,0.54665 2.56934,0.74933c0.63217,0.12532 1.37347,0.13777 2.56531,0.36934c0.68628,0.13335 1.39178,0.29167 2.69867,0.71466c0.56891,0.18413 1.28912,0.56999 2.5,0.83333c0.77548,0.16864 1.60797,0.158 2.66669,0.16667c0.71399,0.00584 1.62674,0.01826 2.58798,0.22133c0.81158,0.17145 1.61707,0.47032 2.6575,0.65733c0.70175,0.12613 1.43536,0.14696 2.56384,0.34267c0.66562,0.11543 1.35397,0.29544 2.38934,0.49467c0.92239,0.17749 1.94696,0.27199 2.65067,0.28267c1.00119,0.0152 1.82251,-0.02565 2.63333,0.08665c1.00861,0.13969 1.85651,0.54955 2.68399,0.748c0.78824,0.18906 1.60001,0.166 2.60001,0.16667c0.79999,0.00053 1.80133,0 2.63599,0c1.18518,0 1.97867,0 2.75418,0c1.0405,0 1.75864,-0.02971 2.66699,0.0045c0.74866,0.0282 1.73859,0.28731 2.50684,0.57016c0.94983,0.3497 1.80533,0.42467 2.60535,0.42534c1.01599,0.00084 2.064,0 2.7735,0c0.85266,0 1.86365,-0.07854 2.62115,0.036c0.97272,0.14706 1.5593,0.72427 2.49316,0.90685c0.73529,0.14374 1.74283,0.05716 2.54285,0.05716c1,0 1.79999,0 2.79999,0c0.78934,0 1.83334,0 2.62534,0c1.02734,0 1.72198,0 2.74933,0c0.94666,0 1.79999,0 2.73999,0c0.88535,0 1.64252,0 2.54251,0c0.74734,0 1.74152,0 2.68567,0c0.90451,0 1.82382,0 2.69882,0c0.64502,0 1.64233,0 2.45834,0c0.81601,0 2.03833,0 2.83835,0c0.909,0 1.82831,0 2.70331,0c0.64502,0 1.64368,0 2.47919,0c0.88049,0 2.07648,0 2.65784,0c0.80698,0 2.01147,0 2.98798,0c0.66934,0 1.43466,0 2.43784,0c0.85266,0 1.81668,0 2.61017,0c0.77551,0 1.98877,0.07202 2.668,-0.08533c0.99585,-0.23068 1.56476,-0.63853 2.80133,-0.82935c0.53723,-0.0829 1.36334,-0.08307 2.63068,-0.08533c0.66449,-0.00117 1.68533,0 2.496,0c0.87466,0 1.87332,0 2.68933,0c0.81601,0 1.81467,0.00008 2.68933,0c1.01102,-0.00009 1.85486,0.00336 2.58133,-0.08533c0.87619,-0.10696 1.88977,-0.34459 2.61469,-0.48933c0.73108,-0.14597 1.79132,-0.32593 2.76797,-0.38934c0.59927,-0.03891 1.92517,-0.036 2.61069,-0.036c0.83466,0 1.83148,0 2.57883,0c1.04251,0 1.99069,0.01147 2.66699,-0.0045c0.77594,-0.01833 1.8327,-0.13116 2.75418,-0.42084c0.63858,-0.20074 1.63358,-0.52234 2.436,-0.564c0.99872,-0.05183 1.79999,-0.01067 2.79999,-0.01067c0.78934,0 1.83334,0 2.6955,-0.05716l0.742,-0.44284l-0.34549,-0.464" id="svg_16" stroke-width="2" stroke="#000" fill="none"/>
  <path t="37944,37951,37951,37951,37951,37951,37951,37951,37966,37966,37966,37983,37983,37999,37999,37999,38016,38016,38016,38033,38034,38047,38047,38064,38064,38064,38081,38081,38081,38081,38097,38097,38114,38114,38114,38131,38131,38131,38147,38147,38164,38164,38164,38181,38181,38197,38214,38214,38214,38231,38231,38231,38247,38247,38247,38264,38264,38264,38281,38281,38281,38297,38297,38297,38314,38314,38314,38314,38331,38331,38331,38331,38347,38347,38347,38364,38364,38364,38381,38381,38381,38397,38397,38414,38414,38414,38431,38431,38431,38447,38447,38447,38464,38464,38464,38464,38481,38481,38497,38497,38514,38514,38514,38531,38531,38531,38547,38547,38564,38564,38581,38581,38597,38597,38614,38614,38631,38631,38631,38647,38647,38664,38665,38681,38681,38681,38697,38697,38697,38714,38714,38731,38731,38731,38747,38747,38747,38764,38764,38781,38781,38797,38797,38814,38814,38814,38831,38831,38831,38847,38847,38864,38864,38865,38882,38882,38882,38897,38897,38897,38914,38914,38914,38931,38931,38931,38947,38947,38947,38964,38965,38965,38981,38981,38982,38997,38997,39014,39015,39032,39032,39047,39048,39064,39065,39082,39082,39097,39097,39114,39115,39134,39134" d="m275,196c13.33334,0 14.28467,0 15.14401,0c0.77533,0 2.10599,0 2.67731,0c0.99469,0 2.23535,0 2.95535,0c0.92999,0 1.89383,-0.06166 2.72333,0.02083c0.84186,0.08372 1.7558,0.42526 2.55182,0.62651c1.02026,0.25793 1.7117,0.33156 2.54684,0.35133c1.00107,0.0237 1.8175,-0.00374 2.80133,0.28532c0.81665,0.23996 1.5936,0.59935 2.42133,0.68001c0.9455,0.09213 1.82156,0.02315 2.82935,0.04666c0.69894,0.01631 1.3959,0.00107 2.57867,0.27333c0.74097,0.17056 1.76465,0.59456 2.58133,0.68001c0.64374,0.06735 1.87393,0.02003 2.68933,0.05682c0.54797,0.02472 1.81482,0.26273 2.47916,0.47917c1.02106,0.33266 1.82028,0.4808 2.62085,0.49867c0.99524,0.02222 1.74283,0.00133 2.77466,0.00133c0.94717,0 1.68784,-0.0004 2.39734,0c1.19598,0.00067 1.87979,-0.0112 2.57733,0.036c1.32077,0.08936 2.13403,0.32391 2.82935,0.53867c1.01825,0.31448 1.84195,0.41382 2.50665,0.42401c0.99988,0.01534 1.83551,0.00133 2.716,0.00133c0.89865,0 1.79868,0 2.69867,0c0.89999,0 1.80536,-0.01506 2.73599,0.036c0.65021,0.03568 1.68652,0.17888 2.41666,0.31667c1.12393,0.2121 1.85931,0.3924 2.92569,0.52583c0.65799,0.08234 1.57495,0.11617 2.655,0.12151c0.94131,0.00465 1.61932,0 2.58798,0c0.80402,0 1.62601,0 2.65717,0c0.90067,0 1.92151,0 2.73218,0c0.87466,0 1.87521,-0.01489 2.71017,0.02083c0.58426,0.02499 1.78091,0.19261 2.37915,0.33183c0.90283,0.21013 2.09778,0.49924 2.69867,0.56201c0.87808,0.09172 1.716,0.08466 2.716,0.08533c0.87466,0.00058 1.88535,0 2.68533,0c1,0 1.81067,0 2.68533,0c0.99866,0 1.81467,0 2.63068,0c0.99866,0 1.87341,-0.01331 2.88382,0.00017c0.77954,0.01039 1.61426,0.20627 2.42551,0.57449c0.84207,0.38222 1.58545,0.40732 2.57468,0.42551c0.80011,0.01471 1.80475,0.15224 2.59998,0.42517c0.80508,0.27631 1.79877,0.54202 2.60001,0.57016c1.00073,0.03516 1.62085,0.0045 2.76666,0.0045c0.78601,0 1.608,0 2.66669,0c0.7095,0 1.56216,0 2.56799,0c0.83466,0 1.76532,0 2.55133,0c0.82199,0 1.88068,0 2.81134,0c0.83466,0 1.836,0 2.63599,0c1,0 1.80002,0 2.80002,0c0.79999,0 1.79999,0 2.40448,0c0.85266,0 1.81683,0 2.62085,0c0.82199,0 1.85315,0 2.75381,0c1.02084,0 1.83151,0.00058 2.70618,0c0.99866,-0.00067 1.81982,0.02676 2.63068,-0.08533c1.0112,-0.13979 1.6936,-0.45828 2.45334,-0.63068c1.18509,-0.26892 1.88229,-0.24663 2.57999,-0.30933c1.31955,-0.11859 1.87888,-0.26239 2.82935,-0.54933c1.02029,-0.30801 1.63657,-0.36815 2.50665,-0.50934c1.00662,-0.16335 1.8316,-0.43246 2.41916,-0.56334c1.1882,-0.26466 2.07376,-0.33015 2.88116,-0.34816c1.04477,-0.0233 1.772,-0.03395 2.67151,-0.35716c0.75601,-0.27165 1.74045,-0.59496 2.54285,-0.63667c0.99854,-0.05191 1.82071,0.11662 2.77866,-0.23199c0.69247,-0.252 1.50937,-0.67801 2.23199,-0.804c0.99341,-0.17319 1.76849,-0.47467 2.76801,-0.85316l0.77399,-0.117l0.90002,-0.0045l0.86331,0" id="svg_17" stroke-width="2" stroke="#000" fill="none"/>
  <path t="40255,40350,40374,40390,40410,40442,40470,40470,40502,40553,40561,40581,40581,40590,40613,40622,40665,40681,40725,40753,40769,40769,40793,40809,40829,40861,40881,40921,40930,40950,40966,40981,40997,41014,41014,41033,41047,41064,41080,41097,41097,41114,41130,41130,41147,41164,41164,41180,41197,41215,41215,41233,41266,41281,41293,41309,41309,41325,41333,41377,41393,41414,41437,41437,41461,41489,41497,41514,41530,41547,41565,41581,41582,41601,41618,41634,41649,41664,41680,41697,41714,41798,41814,41814,41829,41833,41847,41865,41881,41881,41897,41897,41915,41915,41915,41931,41948,41965" d="m462,190c1.70001,0 2.70004,-0.006 3.60001,0c0.80005,0.00534 1.6188,0.50049 2.39999,0.83333c0.75153,0.32019 1.42899,0.53729 2.2215,1.04517c0.74673,0.47853 1.75024,0.33321 2.37851,0.69617c0.84564,0.48856 1.55579,0.86664 2.04733,1.47801c0.51819,0.64452 0.72336,1.37625 1.23117,2.16882c0.47845,0.74675 0.12149,1.7785 0.12149,2.57851c0,0.89999 0,1.8 0,2.7c0,0.89999 0.00009,1.8 0,2.7c-0.00009,0.89984 -0.30801,1.56699 -0.94733,2.15266c-0.58325,0.53433 -1.28906,1.10927 -2.05267,1.48067c-0.75391,0.36667 -1.56305,0.56386 -2.38934,1.14134c-0.67151,0.46931 -0.87103,1.47171 -1.71066,1.90399c-0.64856,0.33391 -1.50293,0.79366 -2.384,1.03734c-0.67395,0.1864 -1.5687,0.48346 -2.51599,0.91733c-0.66696,0.30547 -1.46304,0.74034 -2.29999,1.114c-0.77219,0.34476 -1.46863,0.9045 -2.40002,1.04817c-0.8895,0.13721 -1.83887,-0.05612 -2.59998,0.35716c-0.74625,0.40521 -1.53455,0.45071 -2.40002,0.7045c-0.87744,0.25729 -1.59863,0.91417 -2.5,0.94284c-0.89954,0.02863 -1.76666,0.2206 -2.39999,0.57466c-0.86127,0.48151 -1.83481,0.18246 -2.6955,0.42984c-0.76788,0.22072 -1.24222,0.83185 -2.10449,1.00616c-0.9437,0.19078 -1.5874,0.9043 -2.39999,0.98801c-0.89529,0.09222 -1.8786,-0.34172 -2.67917,0.02216c-0.77325,0.35146 -1.25208,0.7942 -2.12085,1.01517c-0.86224,0.21931 -1.59698,0.9213 -2.5,0.964c-0.89899,0.04253 -1.69998,0 -2.60001,0c-0.89999,0 -1.79999,0 -2.71066,0c-0.91083,0 -1.79999,0 -2.78934,0c-0.79999,0 -1.80124,0.03513 -2.58932,-0.01067c-0.72794,-0.0423 -1.68982,-0.48933 -2.41068,-0.90401l-0.89999,-0.08533" id="svg_18" stroke-width="2" stroke="#000" fill="none"/>
  <path t="42656,42713,42713,42721" d="m457,198" id="svg_19" stroke-width="2" stroke="#000" fill="none"/>
  <path t="43951,44186,44191,44206,44206,44222,44241,44257,44265,44281,44297,44314,44330,44330,44347,44364,44380,44398,44398,44415,44430,44447,44477,44477,44505,44521,44589,44617,44633,44657,44661,44677,44677,44685,44697,44697,44714,44714,44730,44730,44730,44747,44748,44748,44764,44764,44781,44781,44797,44797,44797,44814,44814,44814,44814,44830,44830,44830,44847,44847,44847,44848,44864,44864,44880,44880,44897,44897,44914,44914,44914,44930,44930,44947,44947,44947,44964,44980,44981,44997,45014,45014,45030,45114,45149,45149,45165,45189,45193,45201,45249,45253" d="m190,222c-0.87849,1.2215 -1,2.10001 -1,3c0,0.8 0,1.7 0,2.60001c0,0.89999 0.00009,1.79794 0.5,2.39999c0.5146,0.61974 0.92682,1.40881 1.60001,2.10001c0.59203,0.60785 1.28482,1.14197 1.77866,1.99983c0.42453,0.73747 1.18141,1.18423 1.82133,1.5475c0.76031,0.43161 1.64626,0.87444 2.40001,1.23132c0.85406,0.40437 1.59042,0.54538 2.37917,1.12134c0.64027,0.46753 1.2254,0.9874 2.12083,1c0.90015,0.01268 1.63609,0.46594 2.5,0.87866c0.85265,0.40733 1.49406,0.7088 2.39999,1.12134c0.79942,0.36403 1.37022,0.78065 2.34666,0.97467c0.83084,0.16508 1.84258,0.29326 2.65334,0.54616c0.55113,0.17192 1.57195,0.59499 2.47917,0.95834c0.61523,0.2464 1.62683,0.42973 2.42082,0.5735c1.00998,0.18288 1.78101,0.59354 2.80034,0.82599c0.61266,0.13971 1.57336,0.18727 2.4425,0.34267c1.02251,0.18283 1.7399,0.36751 2.4745,0.49467c1.05782,0.18314 2.04765,0.2476 2.672,0.30933c1.21297,0.1199 1.81068,0.2532 2.68983,0.47467c0.83682,0.2108 1.83194,0.44672 2.67416,0.48933c0.9615,0.04865 1.73184,0.09268 2.69333,0.436c0.61577,0.21988 1.83696,0.49428 2.37866,0.54933c0.82147,0.0835 2.08948,0.30888 2.75385,0.52533c1.02104,0.33266 1.80978,0.47318 2.53549,0.49867c0.98497,0.03461 1.96211,0.30313 2.66,0.57599c0.93098,0.364 1.8262,0.38814 2.62534,0.42534c0.91763,0.04271 1.35429,0.91626 2.2,1c0.79611,0.07883 1.429,0.37062 2.2215,0.87849c0.74658,0.47845 1.65717,0.34283 2.13567,1.06435l0.84151,0.05849" id="svg_20" stroke-width="2" stroke="#000" fill="none"/>
  <path t="48138,48473,48481,48482,48499,48513,48513,48530,48530,48530,48547,48547,48547,48547,48562,48562,48562,48562,48580,48580,48580,48580,48596,48597,48597,48597,48597,48597,48613,48613,48613,48613,48630,48630,48630,48630,48630,48646,48647,48647,48647,48662,48663,48663,48663,48663,48663,48679,48680,48680,48680,48697,48697,48697,48697,48713,48713,48713,48713,48713,48730,48730,48730,48730,48730,48746,48746,48746,48747,48762,48762,48763,48763,48779,48779,48780,48780,48780,48797,48797,48797,48797,48813,48813,48813,48813,48813,48830,48830,48830,48830,48847,48847,48847,48847,48847,48863,48863,48863,48863,48863,48880,48880,48880,48880,48880,48880,48897,48897,48897,48897,48913,48913,48913,48913,48930,48930,48930,48930,48947,48947,48947,48947,48963,48963,48963,48963,48963,48980,48980,48980,48980,48997,48997,48997,49013,49013,49013,49030,49057,49057,49105,49109,49109" d="m313,221c0.87866,1.2215 1.28708,2.05836 1.64734,2.7c0.43738,0.77899 0.62479,1.79141 0.96332,2.51067c0.37482,0.79634 0.78796,1.60661 1.14651,2.24651c0.54617,0.97473 0.89615,1.5025 1.45349,2.3535c0.388,0.59242 0.98935,1.48933 1.38934,2.08932c0.60001,0.90001 1.0007,1.49953 1.60016,2.40034c0.40482,0.60834 0.82416,1.23909 1.25699,1.914c0.71527,1.11531 1.22723,1.9534 1.49551,2.39099c0.54819,0.89415 0.81992,1.34529 1.36334,2.22667c0.51538,0.83589 0.99606,1.59901 1.448,2.29601c0.42291,0.65224 1.23325,1.87384 1.63733,2.472c0.40659,0.60185 0.82196,1.20973 1.284,1.79999c0.7168,0.9157 1.27139,1.5049 1.83551,2.12083c0.58319,0.63675 1.48242,1.64311 1.77899,2.0005c0.60236,0.72586 1.18341,1.4756 1.74301,2.226c0.27383,0.36719 1.03864,1.42909 1.5,2.0955c0.43918,0.63437 0.8522,1.25296 1.65732,2.45734c0.40408,0.60449 0.81702,1.22321 1.25699,1.85699c0.70364,1.01358 1.22617,1.72733 1.76819,2.46817c0.27432,0.37491 0.82822,1.11752 1.608,2.20801c0.48523,0.67856 0.93246,1.32944 1.35599,1.95599c0.41107,0.60815 1.01068,1.51065 1.41068,2.11066c0.60001,0.89999 1.00146,1.49902 1.60001,2.40018c0.40097,0.6037 1.00891,1.53043 1.39999,2.18515c0.61392,1.02774 0.99847,1.76581 1.18933,2.14001c0.38065,0.74631 0.74496,1.4823 1.18933,2.5535c0.41443,0.99905 0.64432,1.68335 0.90533,2.3905c0.43362,1.17477 0.77023,2.0372 0.952,2.48132c0.36877,0.90112 0.74979,1.78894 1.164,2.616c0.38565,0.77002 0.79071,1.46713 1.20001,2.112c0.78241,1.2327 1.20358,1.82031 1.59998,2.43201c0.40372,0.62296 0.81293,1.26727 1.40018,2.311c0.41348,0.73492 0.81915,1.52081 1.25699,2.34c0.22739,0.42542 0.96216,1.76065 1.22684,2.22101c0.53723,0.93439 0.81296,1.39832 1.36334,2.3075c0.26721,0.44138 1.02823,1.6687 1.49551,2.39551c0.43359,0.67441 0.85284,1.30521 1.45715,2.21432c0.3988,0.59995 0.99301,1.49182 1.34283,2.10001c0.51105,0.88849 0.90308,1.8006 1.15717,2.39999c0.38187,0.90091 0.80716,1.80856 1.16165,2.40451c0.56235,0.94534 1.02127,1.58347 1.505,2.26215c0.51337,0.72021 1.05902,1.45844 1.608,2.20801c0.27286,0.37256 1.0629,1.45572 1.53867,2.13867c0.44394,0.63727 1.03647,1.51797 1.52002,2.32001c0.42413,0.70349 0.7453,1.38977 1.48782,2.36649c0.46527,0.61203 1.07098,1.08279 1.569,2.043c0.42303,0.81564 0.91116,1.47183 1.6955,1.63834l-0.05765,-0.76382l-0.33069,-0.80533" id="svg_21" stroke-width="2" stroke="#000" fill="none"/>
  <path t="50516,50521,50521,50521,50522,50522,50522,50522,50522,50532,50532,50532,50532,50532,50549,50549,50549,50565,50566,50566,50566,50582,50582,50582,50582,50597,50597,50597,50597,50597,50597,50613,50613,50613,50613,50613,50630,50630,50630,50647,50648,50648,50648,50663,50663,50663,50663,50680,50680,50680,50697,50697,50697,50697,50713,50713,50713,50713,50730,50730,50730,50730,50730,50747,50747,50747,50763,50763,50763,50780,50780,50780,50797,50797,50797,50797,50813,50813,50813,50813,50830,50830,50830,50830,50847,50847,50863,50863,50863,50880,50880,50880,50897,50897,50897,50913,50913,50913,50913,50930,50931,50931,50947,50947,50963,50963,50980,50980,50997,50997,51013,51029,51030,51053,51062,51080,51097,51121,51149,51157,51173,51205,51232,51233,51277,51309,51317,51330,51347,51363,51363,51363,51389" d="m324,221c4.621,5.28517 5.08502,5.93214 5.54367,6.60617c0.46405,0.68196 0.91644,1.37186 1.35901,2.0565c0.43207,0.66838 0.84143,1.31677 1.59732,2.504c0.33478,0.52583 0.63803,1.00703 1.18134,1.832c0.44684,0.67851 1.12857,1.68764 1.70401,2.35066c0.40836,0.4705 1.16348,1.18784 1.87598,1.92267c0.52847,0.54504 1.07742,1.11293 1.81735,2.02834c0.48291,0.59741 0.92957,1.23586 1.37399,1.914c0.72757,1.1102 0.96979,1.52762 1.5,2.39099c0.27325,0.44496 0.82108,1.34457 1.09467,1.78934c0.78342,1.27361 1.26059,2.03777 1.71667,2.72267c0.41916,0.62947 0.81155,1.21355 1.63599,2.19865c0.58395,0.69775 1.0239,1.11742 1.80002,2.1055c0.41296,0.52574 0.80423,1.09647 1.39999,1.97984c0.60413,0.89575 1.00519,1.49255 1.37915,2.09866c0.54993,0.89127 1.00345,1.79807 1.26819,2.39551c0.38373,0.86597 0.90295,1.94901 1.23798,2.42181c0.51117,0.72141 1.14276,1.43427 1.71469,2.3255c0.42004,0.65457 0.79785,1.37918 1.19998,2.10901c0.59686,1.08325 0.9993,1.76248 1.38934,2.41217c0.37524,0.625 0.76416,1.21606 1.32532,2.43466c0.26819,0.58237 0.56296,1.45135 0.98535,2.48001c0.28787,0.70108 0.61127,1.36942 1.00015,2.34265c0.31982,0.80035 0.61108,1.6517 1.0665,2.41202c0.44702,0.74631 1.05807,1.41748 1.43466,1.936c0.62222,0.85675 1.00601,1.53424 1.37784,2.2515c0.37576,0.72485 0.86563,1.80792 1.26367,2.8175c0.24335,0.61728 0.53448,1.4838 0.95718,2.47632c0.28568,0.67078 0.79996,1.68533 1.09998,2.28534c0.39999,0.79999 0.81213,1.59436 1.20001,2.42084c0.30975,0.66 0.69321,1.66763 1.02084,2.5c0.23062,0.58591 0.79184,1.78387 1.13184,2.37466c0.33878,0.58865 0.88226,1.40805 1.46198,2.41916c0.37695,0.6575 0.67136,1.29047 1.18533,2.28082c0.39047,0.75238 0.99341,1.46399 1.34283,2.15717c0.42963,0.85223 0.31735,1.67819 0.64252,2.64468c0.25504,0.75806 1.08768,1.35376 1.81448,1.82416c0.7095,0.4592 0.53494,1.57626 0.93619,2.3425c0.39713,0.75836 0.57104,1.36777 1.04932,2.15067c0.49072,0.80325 0.65747,1.51093 1.13602,2.164c0.51392,0.70135 1.16473,1.2597 1.49466,1.92133c0.42056,0.84338 0.63828,1.88379 0.26315,2.67917c-0.33264,0.70532 -1.52081,0.54169 -2.3125,0.6875l-0.91733,0.25867l-0.74399,0.22202l-1.03336,0.26599" id="svg_22" stroke-width="2" stroke="#000" fill="none"/>
  <path t="52178,52201,52221,52237" d="m316,221" id="svg_23" stroke-width="2" stroke="#000" fill="none"/>
  <path t="53059,53078,53087,53098,53114,53115,53115,53131,53131,53131,53131,53147,53147,53147,53147,53163,53163,53163,53163,53163,53180,53180,53180,53180,53197,53197,53197,53197,53213,53213,53213,53213,53213,53230,53230,53230,53230,53247,53248,53248,53248,53248,53248,53263,53263,53263,53263,53280,53280,53280,53280,53297,53297,53297,53313,53313,53313,53313,53330,53330,53330,53330,53330,53330,53347,53347,53347,53347,53363,53363,53363,53380,53380,53380,53380,53397,53397,53397,53397,53397,53413,53413,53413,53413,53430,53430,53430,53430,53447,53447,53447,53447,53463,53463,53463,53463,53480,53480,53480,53497,53497,53497,53514,53514,53530,53530,53530,53530,53547,53548,53548,53548,53563,53563,53564,53580,53580,53581,53598,53598,53598,53613,53614,53614,53630,53630,53630,53631,53647,53647,53647,53663,53663,53680,53680,53697,53697,53754,53762,53762,53780,53780,53781,53781" d="m279,230c1.70001,1.05267 2.4491,1.60735 3.3045,1.94733c0.82672,0.32857 1.55386,0.47774 2.38217,0.93935c0.74585,0.41565 1.55057,0.94743 2.12399,1.32399c0.59195,0.38872 1.79184,1.18892 2.39999,1.60001c0.62656,0.42352 1.27802,0.86995 2.31067,1.61067c0.36386,0.261 1.10349,0.8047 1.85333,1.35333c0.74081,0.54202 1.45587,1.06267 2.14001,1.53999c0.96054,0.67017 1.58047,1.08134 2.48532,1.68533c0.59976,0.40034 1.20001,0.8 2.10001,1.39999c0.89999,0.60001 1.50369,0.99596 2.10001,1.41068c0.60379,0.41991 1.21478,0.85692 2.10016,1.61082c0.61487,0.52356 1.21585,1.10464 1.85699,1.68301c1.00201,0.90387 1.72586,1.49672 2.09549,1.79549c0.74536,0.60246 1.49765,1.1964 1.86334,1.5c1.07117,0.88933 1.72702,1.49059 2.34235,2.07918c0.58444,0.55904 1.375,1.35416 1.85632,1.83549c0.66449,0.66451 1.2883,1.27972 2.08533,2.08667c0.40219,0.4072 1.02182,1.03812 1.80035,2.02032c0.42065,0.5307 0.83133,1.12772 1.314,1.73999c0.80261,1.01813 1.45099,1.72348 1.79099,2.08652c0.68933,0.73602 1.0419,1.09256 1.72668,1.7825c0.92218,0.92914 1.45364,1.45499 2.14667,2.14801c0.41864,0.41864 1.21225,1.23224 1.84216,1.82132c0.6539,0.61154 1.39621,1.20639 1.94083,1.60449c0.87772,0.6416 1.52869,1.07565 2.55951,1.81683c0.36279,0.26086 1.09756,0.79868 1.81747,1.35333c0.69598,0.53622 1.63,1.29117 2.147,1.77267c0.70947,0.66077 1.13046,1.12183 1.91568,2.138c0.41953,0.54294 0.8241,1.13351 1.284,1.716c0.71973,0.91159 1.2623,1.49896 1.81467,2.07782c0.54242,0.56842 1.57849,1.59933 2.04285,2.06369c0.64648,0.64648 1.05582,1.05582 1.85715,1.85715c0.60001,0.60001 1.20633,1.19376 1.99869,2c0.58517,0.59543 1.14651,1.17795 1.71732,2c0.40631,0.58514 1.03464,1.61349 1.54565,2.2045c0.36871,0.42639 1.02469,1.08118 1.75967,1.81683c0.5311,0.53159 1.0787,1.07864 1.62601,1.62601c1.03104,1.03113 1.51147,1.47662 2.10599,2.142c0.70502,0.78903 1.07233,1.4248 1.59933,2.21066c0.54675,0.81528 1.07611,1.40692 1.65186,2c0.78592,0.8096 1.18524,1.21591 1.83148,1.80002c0.91046,0.82291 1.45227,1.19263 2.24316,1.79999c0.51471,0.39526 1.39032,1.19 1.8595,1.78934c0.5589,0.71393 1.16577,1.30005 1.836,1.836c0.83041,0.66403 1.26343,1.40179 1.82535,2.20801c0.46701,0.67004 1.17374,2.03796 1.65683,1.60214c0.54776,-0.49417 -0.97882,-1.63614 -1.32748,-2.0535l-0.64801,-0.72598l-0.53867,-0.59735" id="svg_24" stroke-width="2" stroke="#000" fill="none"/>
  <path t="54620,54698,54698,54715,54730,54730,54747,54763,54763,54782,54782,54798,54798,54798,54813,54830,54830,54830,54847,54847,54863,54863,54880,54880,54880,54897,54897,54897,54913,54913,54913,54931,54931,54947,54947,54947,54963,54963,54963,54980,54980,54980,54997,54997,54997,55013,55013,55013,55030,55030,55030,55047,55047,55047,55047,55063,55063,55080,55080,55080,55098,55098,55098,55113,55113,55113,55113,55130,55130,55130,55130,55147,55147,55147,55163,55163,55163,55180,55180,55180,55181,55197,55197,55198,55213,55213,55214,55214,55230,55230,55231,55231,55247,55247,55247,55247,55263,55264,55264,55280,55280,55281,55297,55298,55298,55298,55313,55314,55330,55331,55331,55347,55347,55348,55348,55363,55363,55364,55381,55381,55397,55398,55398,55398,55413,55414,55414,55431,55431,55431,55431,55431,55447,55447,55448,55464,55464,55480,55481,55481,55497,55497,55513,55513,55530,55547,55547,55594,55598,55614,55614,55614" d="m278,228c-3.41415,5.07133 -3.19635,5.79764 -2.60001,6.39999c0.6965,0.70351 1.30002,1.30002 1.89999,1.90001c0.70001,0.70001 1.33868,1.3094 1.80002,2.0215c0.43805,0.67615 0.88007,1.68906 1.19998,2.2695c0.47119,0.85486 1.26587,1.33595 2.02133,1.85184c0.54102,0.36943 1.17197,1.09813 1.92603,1.79999c0.61865,0.57581 1.44165,1.01033 2.09998,1.51434c0.67245,0.51483 1.13696,1.29384 1.62201,1.84416c0.74686,0.84735 1.2767,1.21051 2.08249,1.7415c1.00818,0.66435 1.71429,0.99953 2.28653,1.35266c0.93112,0.57462 1.54099,1.19458 2.14832,1.78984c0.55078,0.53983 1.185,1.1349 1.93466,1.71449c0.78873,0.6098 1.34006,0.98564 2.41202,1.6335c0.70111,0.42372 1.35846,0.75114 2.36667,1.26683c0.60147,0.30765 1.42075,0.75842 2.19998,1.38385c0.61716,0.49536 1.18048,1.05893 2.00134,1.63333c0.60574,0.42386 1.30905,0.82166 2.28134,1.65067c0.5466,0.46606 1.05814,0.97916 1.54797,1.46399c0.96375,0.95392 1.51752,1.51617 2.09085,2.08951c0.69934,0.69934 1.27982,1.27982 1.87866,1.87866c0.6105,0.6105 1.25699,1.25699 1.96649,1.96649c0.51733,0.51733 1.05869,1.05869 1.608,1.608c1.05869,1.05869 1.53018,1.54895 2.2045,2.18369c0.41046,0.38635 1.41632,1.16727 2.04169,1.54166c0.65848,0.39423 1.66736,0.97891 2.2045,1.336c0.55374,0.3681 1.62015,1.14993 2.3175,1.76401c0.44421,0.39117 1.04434,1.01172 1.85983,1.79999c0.63022,0.60919 1.08759,1.03433 1.93066,1.60001c0.94656,0.6351 1.66397,0.98434 2.36133,1.34283c0.96829,0.49774 1.55124,0.74741 2.28448,1.17801c0.71945,0.42249 1.45398,1.009 2.24619,1.74048c0.55777,0.51501 1.091,1.05566 1.85315,1.81717c0.68582,0.68521 1.11084,1.11084 1.92151,1.92151c0.60001,0.60001 1.19934,1.20068 2,2c0.39966,0.39902 0.97491,1.00867 1.60001,1.51468c0.96356,0.77997 1.62424,1.07648 2.39999,1.65198c0.62521,0.46384 1.21838,1.06525 2.16666,1.83334c0.50815,0.41159 1.33755,0.99429 1.88068,1.39999c0.79224,0.59177 1.49997,1.18594 2.10599,1.76401c0.69043,0.6586 1.34918,1.35901 2.18002,2.00266c0.42691,0.33075 1.194,0.84534 1.71848,1.23785c1.04004,0.77835 1.72781,1.40094 2.17352,1.83148c0.95206,0.91965 1.45471,1.45071 2,1.97867c0.54541,0.52808 1.05884,1.05743 2.08932,1.81601c0.64563,0.47525 1.30936,0.81967 2.08401,1.45334c0.60117,0.49173 1.43466,1.34933 1.97598,1.89066c0.50934,0.50934 1.2998,1.25449 1.76401,1.79999c0.65732,0.7724 0.8334,1.71045 1.40298,2.32535c0.66846,0.72168 1.8049,0.70749 2.21518,1.59982c0.33972,0.73889 -0.75684,0.56683 -1.27768,-0.14148l-0.3645,-0.561" id="svg_25" stroke-width="2" stroke="#000" fill="none"/>
  <path t="57167,57174,57174,57174,57182,57199,57214,57214,57241,57250,57263,57280,57280,57302,57334" d="m300,242c4.51199,0 5.14267,0 6.228,0c0.95767,0 1.92548,0.18134 2.772,-0.16667c0.67108,-0.27589 1.49985,-0.82066 2.39999,-0.83333c0.8999,-0.01266 1.70001,-0.22133 2.39999,-0.716l0.80002,-0.30933l0.79999,-0.40001" id="svg_26" stroke-width="2" stroke="#000" fill="none"/>
  <path t="61188,61196,61196,61196,61196,61196,61202,61202,61218,61231,61231,61246,61246,61262,61263,61280,61280,61280,61296,61296,61313,61313,61313,61330,61330,61330,61346,61347,61347,61363,61363,61380,61380,61396,61413,61413,61429,61430,61430,61446,61463,61463,61463,61479,61480,61480,61496,61496,61513,61513,61530,61546,61546,61563,61563,61580,61580,61595,61595,61613,61631,61631,61631,61646,61646,61646,61663,61680,61696,61696,61713,61730,61749,61777,61821,61837,61853,61853,61950,61958" d="m332,234c10.32782,-1.9785 10.92041,-2.09779 11.90134,-2.364c0.7811,-0.21198 1.40936,-0.41811 2.41199,-0.83467c0.84589,-0.35146 1.84769,-0.59016 2.68668,-0.968c0.68896,-0.31027 1.4985,-0.67751 2.34732,-0.886c0.92685,-0.22766 1.43967,-0.69885 2.42203,-1.14732c0.73608,-0.33603 1.55673,-0.57883 2.54532,-1c0.67075,-0.28577 1.68533,-0.8 2.28534,-1.10001c0.79999,-0.39999 1.59436,-0.81212 2.42084,-1.2c0.66,-0.30975 1.65637,-0.71921 2.47916,-0.97917c0.80984,-0.25587 1.82013,-0.39333 2.65332,-0.54616c0.83423,-0.15303 1.48926,-0.73819 2.24667,-1.364c0.65863,-0.54419 1.42029,-0.64006 2.36801,-0.89467c0.73706,-0.19801 1.46616,-0.42294 2.57065,-0.69067c0.98499,-0.23875 1.69894,-0.55569 2.34802,-0.82666c0.99002,-0.4133 1.80789,-0.66264 2.54398,-0.99867c0.98236,-0.44847 1.63794,-0.96768 2.42203,-1.14732c0.85199,-0.19519 1.66437,-0.6263 2.66882,-0.93117c0.67609,-0.2052 1.681,-0.06836 2.46783,-0.13217c1.05215,-0.08533 1.66299,-0.61748 2.53198,-0.86783c0.82687,-0.23822 1.79468,-0.12151 2.84534,-0.12151c0.68002,0 1.52002,0 2.51602,0c0.79648,0 1.54797,0.00255 2.64532,0c0.97198,-0.00226 1.70865,-0.32613 2.47198,-0.716c0.7529,-0.38455 1.70001,-0.284 2.60001,-0.284c0.89999,0 1.80002,0 2.70001,0c0.89999,0 1.69998,0 2.60001,0l0.94281,-0.05716" id="svg_28" stroke-width="2" stroke="#000" fill="none"/>
  <path t="65666,65681,65681,65681,65687,65687,65697,65698,65713,65729,65729,65746,65746,65746,65746,65746,65763,65763,65763,65763,65779,65917,65941,65949,65963,65979,65996,66014,66014,66029,66030,66046,66063,66063,66079,66097,66114,66114,66130,66146,66147,66162,66178,66179,66195,66195,66213,66231,66231,66247,66265,66265,66265,66281,66281,66298,66313,66314,66329,66330,66347,66347,66369,66369,66379,66379,66405,66421,66421,66429,66447,66464,66479,66496,66497,66513,66513,66529,66529,66549,66585,66705,66721,66745,66749,66763,66763,66779,66796,66797,66797,66814,66814,66814,66830,66830,66830,66830,66846,66847,66863,66864,66864,66880,66880,66880,66897,66897,66914,66914,66930,66930,66947,66964,66964,67066" d="m96,349c-0.70983,0.47232 -1.01283,1.04608 -1.35183,1.651c-0.61232,1.09268 -1.13804,1.77664 -1.748,2.44901c-0.62598,0.69003 -0.82165,1.56421 -1.36817,2.332c-0.34776,0.48856 -1.29618,1.33215 -1.8945,1.93048c-0.32417,0.32419 -0.9975,0.9975 -1.67083,1.67084c-0.9235,0.92352 -1.44783,1.44785 -1.90417,1.90417c-0.5745,0.57449 -1.494,1.37656 -1.94117,2.16232c-0.42081,0.73947 -1.35348,1.14444 -2.03733,0.61618c-0.62749,-0.48471 -1.28541,-0.72806 -2.25066,-0.716c-0.83353,0.01044 -1.72588,0.07855 -2.42267,0.61066c-0.7843,0.59894 -1.29991,1.37979 -1.40933,2.18933c-0.12081,0.8938 -0.58366,1.54825 -0.87984,2.52133c-0.25056,0.82321 -0.1215,1.79333 -0.1215,2.67868c0,0.79999 -0.0286,1.65771 0.28533,2.48401c0.27114,0.71365 0.99819,1.57422 1.42934,2.31467c0.43934,0.75452 0.96827,1.55197 1.63717,1.84415c0.86676,0.37863 1.81408,0.52579 2.48416,0.7825c0.76449,0.29291 1.75825,0.5448 2.67867,0.57333c0.98486,0.03055 1.80667,0.00134 2.66,0.00134c0.94133,0 1.7146,0.08087 2.66133,-0.02133c0.77526,-0.08371 1.75468,-0.69022 2.328,-1.12799c0.80765,-0.6167 1.32758,-1.13013 2.0575,-1.72934c0.72876,-0.59827 1.586,-0.7785 1.76784,-1.72134c0.17045,-0.88376 0.01067,-1.79999 0.01067,-2.7045c0,-0.86215 0,-1.6955 0,-2.67416c0,-0.77399 0.2692,-1.74976 -0.08533,-2.452c-0.43644,-0.86447 -1.44267,-1.02283 -2.21017,-1.51666c-0.69637,-0.44806 -0.8211,-1.46085 -0.7,-2.35266c0.11151,-0.8212 0.82445,-1.35452 1.6315,-1.76135c0.88434,-0.4458 1.38918,-0.97586 1.96533,-1.54132c0.80612,-0.79114 1.19296,-1.21545 1.85583,-1.79733c0.94147,-0.82642 1.49668,-1.19257 2.022,-1.60001c0.75988,-0.58936 1.56348,-1.39124 2,-2c0.70716,-0.98621 1.1817,-1.59296 1.6955,-2.20001c0.66948,-0.79095 1.08698,-1.38965 1.52084,-2.19998c0.42307,-0.79016 0.75038,-1.61322 1.3045,-2.43335c0.45725,-0.67676 1.09999,-1.26666 1.7,-1.86667c0.7,-0.69998 1.3,-1.29999 1.86401,-1.89999l0.41516,-0.85834" id="svg_29" stroke-width="2" stroke="#000" fill="none"/>
 </g>
 <g display="none">
  <title>muse_image</title>
  <image xlink:href="http://farm4.static.flickr.com/3239/2337490984_291b01312b.jpg" id="muse" height="462" width="640" y="9" x="0"/>
 </g>
 <g display="none">
  <title>bbox</title>
  <rect stroke="#f00" fill="none" stroke-width="3" height="191.96676" width="582.4" y="175.37119" x="28.16" id="bbox"/>
 </g>
</svg>
