<svg width="640" height="480" xmlns="http://www.w3.org/2000/svg" xmlns:svg="http://www.w3.org/2000/svg" xmlns:xlink="http://www.w3.org/1999/xlink">
 <!-- Sketchy ANNOTATION
  ImageNet ID: n02691156_9491
  URL: http://farm1.static.flickr.com/92/232444751_a428324572.jpg
  Image Width: 500
  Image Height: 369
  BBox X: 23
  BBox Y: 88
  BBox Width: 337
  BBox Height: 205
  Exposure: 2000ms
  Synset Label: airplane
  Synset ID: n02691156
  Worker Tag: airplane
  Sanity Check: 
   Context
   Saved
   Shading
  Comment: 
   {}
  Worker ID: AIH9VLD92GHFH
  Assignment ID: 333U7HK6I9F6DBW4QG10MAB1XA4DJS
  HIT ID: 35U0MRQMUJ74LJPT7COXB839VHWVO7
  Work Time: 77s
  Worker Score: 0.9286
 END ANNOTATION -->
 <g display="inline">
  <title>Layer 1</title>
  <path t="0,131,147,147,164,164,164,164,182,182,182,182,182,199,199,199,199,199,216,216,216,216,216,216,216,232,233,233,233,233,233,249,249,249,249,267,267,267,267,285,286,286,286,303,303,319,321,321,321,336,336,336,336,361,361,361,361,361,369,369,369,369,386,386,386,386,386,387,403,403,403,403,421,421,421,421,443,444,444,455,455,455,472,472,472,490,490,490,508,508,508,508,508,525,525,525,525,525,542,542,542,542,542,558,558,558,558,576,576,576,576,593,594,594,594,594,611,611,611,611,629,629,629,629,629,646,646,646,646,646,663,663,663,664,664,664,679,679,680,680,680,680,697,697,697,697,714,714,714,714,730,730,730,730,730,730,731,748,748,749,749,749,766,766,766,766,766,783,783,783,783,783,800,800,800,800,800,817,817,817,817,818,818,834,834,834,834,834,834,835,835,851,852,852,852,852,852,852,875,875,875,875,875,875,875,875,875,890,891,891,891,891,891,891,891,909,909,910,910,910,910,923,923,923,923,923,944,944,944,944,957,957,957,972,972,972,972,992,993,1010,1010,1026,1026,1026,1042,1042,1042,1059,1059,1059,1074,1074,1074,1074,1092,1093,1093,1108,1108,1108,1108,1125,1126,1126,1144,1145,1145,1159,1160,1177,1177,1177,1177,1194,1195,1212,1212,1230,1230,1247,1247,1263,1263,1282,1282,1282,1298,1298,1298,1316,1316,1316,1333,1334,1350,1367,1384,1384,1384,1402,1402,1418,1418,1418,1436,1436,1436,1458,1458,1459,1474,1474,1491,1491,1511,1511,1525,1525,1542,1561,1561,1595,1619,1636,1652,1677,1692,1723,1763,1785,1802,1819,1819,1836,1836,1853,1853,1853,1878,1878,1878,1893,1893,1911,1926,1926,1943,1962,1962,1976,1976,1977,1992,2012,2026,2027,2047,2047,2060,2060,2078,2078,2105,2105,2128,2146,2159,2159,2160,2179,2179,2196,2196,2196,2196,2210,2210,2210,2229,2229,2244,2263,2263,2276,2276,2293,2293,2293,2310,2310,2310,2329,2329,2344,2345,2345,2399,2432,2432,2448,2466,2466,2484,2502,2519,2519,2536,2536,2554,2554,2571,2571,2588,2589,2612,2627,2627,2645,2645,2660,2660,2678,2678,2694,2694,2713,2714,2714,2728,2728,2749,2762,2762,2779,2780,2780,2796,2829,2847,2863,2880,2880,2880,2897,2897,2897,2914,2914,2915,2915,2933,2933,2949,2950,2950,2967,2967,2967,2967,2984,2984,3002,3002,3002,3019,3019,3019,3019,3036,3036,3036,3053,3053,3053,3071,3071,3071,3088,3088,3088,3105,3106,3106,3123,3123,3139,3139,3155,3156,3156,3156,3173,3173,3174,3174,3197,3197,3197,3197,3214,3215,3215,3215,3215,3228,3229,3229,3229,3229,3251,3251,3251,3263,3263,3282,3295,3295,3295,3312,3312,3331,3331,3346,3347,3347,3347,3362,3362,3362,3362,3379,3379,3379,3379,3396,3396,3396,3396,3413,3413,3414,3414,3414,3431,3432,3432,3432,3448,3449,3449,3449,3449,3466,3466,3466,3482,3482,3482,3482,3499,3499,3516,3516,3533,3534,3534,3551,3551,3551,3552,3552,3568,3568,3569,3569,3569,3584,3585,3585,3585,3586,3602,3602,3602,3602,3602,3602,3619,3619,3619,3619,3619,3636,3637,3637,3637,3637,3653,3653,3653,3654,3654,3670,3671,3671,3689,3689,3689,3689,3690,3706,3706,3706,3723,3723,3724,3724,3740,3740,3740,3740,3765,3765,3766,3780,3780,3780,3799,3800,3800,3813,3813,3833,3834,3847,3848,3863,3863,3880,3880,3880,3899,3900,3914,3914,3931,3931,3931,3952,3966,3966,3966,3982,4000,4000,4000,4017,4017,4034,4034,4035,4035,4052,4052,4053,4070,4071,4088,4088,4088,4104,4121,4122,4122,4138,4139,4139,4156,4157,4173,4173,4174,4190,4190,4190,4208,4208,4225,4226,4242,4242,4266,4266,4266,4280,4280,4280,4299,4300,4313,4314,4331,4331,4331,4348,4348,4348,4364,4364,4364,4381,4381,4397,4397,4417,4418,4418,4431,4431,4432,4453,4453,4466,4467,4484,4484,4485,4500,4500,4518,4518,4518,4535,4535,4535,4552,4552,4569,4569,4569,4587,4605,4605,4622,4622,4639,4639,4656,4656,4674,4674,4675,4691,4691,4708,4709,4709,4709,4725,4725,4725,4742,4743,4759,4760,4760,4784,4875,4892,4893,4909,4909,4926,4927,4927,4953,4953,4953,4953,4965,4965,4966,4966,4985,4985,4985,4986,4999,4999,4999,4999,5016,5016,5016,5035,5036,5036,5050,5051,5065,5066,5066,5082,5082,5100,5100,5117,5117,5136,5136,5136,5151,5152,5152,5168,5169,5169,5186,5187,5187,5187,5187,5203,5203,5204,5204,5204,5220,5221,5221,5221,5221,5239,5239,5239,5240,5256,5256,5256,5256,5273,5273,5274,5274,5274,5291,5291,5291,5292,5292,5292,5307,5308,5308,5308,5308,5324,5325,5325,5342,5342,5342,5342,5342,5360,5361,5361,5361,5378,5379,5379,5395,5395,5395,5395,5412,5413,5437,5452,5453,5468" d="m184,209c-1.41667,4.89583 -0.51334,5 0.24667,5c0.92,0 1.72025,-0.01248 2.63599,0.036c0.69014,0.03654 1.86176,0.17574 2.72717,0.32117c0.91278,0.15338 1.37689,0.24687 2.3075,0.44417c1.36377,0.28912 1.80249,0.39528 2.67867,0.60933c0.90254,0.22049 1.37236,0.34145 2.90401,0.75601c0.5645,0.1528 1.75804,0.48584 2.37601,0.65866c0.62404,0.17451 1.24745,0.35127 2.472,0.69067c1.15149,0.31915 1.68843,0.45924 2.6805,0.73132c0.90987,0.24954 1.76057,0.49756 2.1675,0.63667c1.21194,0.41432 2.00119,0.76488 2.78317,1.116c0.76532,0.34364 1.85069,0.84186 2.53549,1.11467c0.64618,0.25742 1.58061,0.5815 2.48534,0.88533c0.89526,0.30066 1.76747,0.59073 2.31467,0.8c1.24088,0.47458 1.89452,0.82869 2.85201,1.03333c0.7854,0.16785 1.68132,0.179 2.31999,0.25067c1.03741,0.11642 1.77211,0.26588 2.53416,0.43683c0.7854,0.17618 1.97824,0.48296 2.77917,0.67784c0.79909,0.19444 1.59645,0.38551 2.39999,0.51599c1.19566,0.19415 2.00446,0.23329 2.82083,0.28534c0.83629,0.05331 2.14735,0.15558 3.06184,0.28534c0.46634,0.06618 1.39813,0.22755 2.3075,0.41916c0.44133,0.09299 1.67378,0.37292 2.7485,0.70616c0.6806,0.21103 1.35068,0.45908 2.38249,0.91068c0.73192,0.32034 1.45937,0.67592 2.16901,1.026c1.26944,0.62625 1.79341,0.90964 2.52449,1.242c0.94385,0.42909 1.73972,0.70602 2.56001,1.01067c1.0609,0.394 1.7719,0.69206 2.41466,1c1.01724,0.48735 1.62576,0.84543 2.38217,1.04283c1.27155,0.33183 2.09531,0.30452 2.52582,0.32117c0.89838,0.03474 1.82135,0.03362 3.18134,0.03616c0.43735,0.00082 1.29645,-0.00125 2.14667,0.03583c0.85928,0.03748 2.19675,0.17894 3.12283,0.31667c0.46701,0.06946 1.38876,0.23335 2.2825,0.36334c1.22433,0.17807 1.95898,0.2383 2.6485,0.26317c1.00305,0.03618 2.04251,0.02083 2.7825,0.02083c0.78,0 1.60001,0 2.905,0c0.91602,0 1.3815,0 2.3125,0c0.91101,0 2.18753,-0.00438 2.95151,0.00133c0.70804,0.00528 1.38931,-0.01195 2.73599,0.16534c0.72241,0.09511 1.47369,0.26375 2.24402,0.48c0.79553,0.22333 1.98959,0.67468 2.79834,1.0015c0.41229,0.1666 1.25281,0.52383 2.16165,0.7825c0.95334,0.27133 1.99768,0.40909 2.53915,0.455c1.10941,0.09406 1.67542,0.10098 2.80753,0.11166c1.11594,0.01053 2.19601,0.00139 2.72098,0.00717c1.02008,0.01125 1.51648,0.00848 2.47501,0.08083c1.36786,0.10323 2.22568,0.26369 3.04501,0.41467c0.78064,0.14386 1.87372,0.34486 2.56033,0.416c0.67627,0.07005 1.74988,0.12106 2.98132,0.25067c0.465,0.04893 1.46741,0.18782 1.99734,0.26933c1.09952,0.16913 1.65936,0.26636 2.22131,0.36533c1.6608,0.29251 2.19714,0.38805 3.23468,0.60933c1.00253,0.21382 1.49539,0.31256 2.88,0.75601c0.44879,0.14374 1.31097,0.48238 2.14581,0.83333c0.81784,0.34381 2.01773,0.84232 2.82083,1.116c0.39853,0.1358 1.2034,0.3735 2,0.63667c1.20535,0.39819 2.00439,0.72569 2.81067,1.08333c0.82855,0.36752 1.24146,0.5798 2.556,1.164c0.91788,0.40791 1.39658,0.60735 2.39584,1c0.51868,0.20381 1.05048,0.41702 2.77084,1c0.60748,0.20586 1.23511,0.40155 1.8765,0.5955c0.6506,0.19675 1.97467,0.57166 2.642,0.74733c0.66467,0.17497 1.98032,0.49582 2.62698,0.63567c1.27078,0.27481 1.90601,0.38834 2.54202,0.50067c0.64001,0.11304 1.2876,0.22577 3.3125,0.52083c0.70901,0.10332 1.43591,0.20073 2.17648,0.3c0.7514,0.10072 1.51099,0.20013 2.27551,0.3c0.76645,0.10013 1.5322,0.19841 3.048,0.39999c0.7449,0.09906 1.47852,0.19984 2.2005,0.2955c1.40335,0.18594 2.08319,0.27103 2.74731,0.34734c0.64658,0.0743 2.47568,0.23837 3.04819,0.27316c0.55618,0.0338 1.62912,0.08168 2.14932,0.10933c1.01892,0.05414 2.52182,0.19002 3.01868,0.26001c0.98312,0.1385 1.93185,0.31973 2.38834,0.41916c1.28452,0.27979 2.04187,0.49577 3.05182,0.77467c0.59607,0.16461 1.64038,0.4072 2.58334,0.52083c0.7478,0.09012 1.62296,0.21585 2.62982,0.42534c0.69946,0.14552 1.37411,0.34056 2.57733,0.48933c0.91077,0.11261 1.88934,0.08533 2.58185,0.08533c0.96082,0 1.73181,0 2.59283,0c1.19598,0 1.78665,-0.00006 2.64017,0c1.03598,0.00009 1.98065,-0.00476 2.7265,0.08533c0.87762,0.10602 1.89105,0.3446 2.616,0.48935c0.73108,0.14597 1.79239,0.31201 2.77866,0.39999c0.62491,0.05576 1.8396,0.17538 2.73599,0.37799c0.60263,0.13623 1.49551,0.39035 2.39984,0.52618c0.88589,0.13306 1.78714,0.11636 2.77866,0.56381c0.72714,0.32816 1.25717,0.98392 2.32285,1.388c0.59567,0.22586 1.77063,0.31534 2.55133,0.52652c0.55145,0.14917 1.37665,0.41238 2.36066,0.84283c0.85239,0.37286 1.65347,0.91574 2.31201,1.39999c0.84393,0.62057 1.57581,0.95972 2.35333,1.5c0.67126,0.46643 1.38586,0.94009 2.02133,1.44165c0.90228,0.71213 1.22409,1.47595 1.62534,2.20767c0.51215,0.93393 1.02472,1.45029 1.58533,1.86533c0.97705,0.72333 1.58585,1.20322 2.13217,1.73267c0.78088,0.75677 1.16568,1.42236 1.65717,2.13184c0.49481,0.71426 1.20801,1.37064 1.5,2.04169c0.30847,0.70886 0.7778,1.69208 1.25717,2.22733c0.69128,0.77182 1.26367,1.27267 1.84415,1.85315c0.79868,0.79868 1.39868,1.39868 1.99869,1.99869c0.59982,0.59982 1.18909,1.18958 1.74283,1.74283c0.77283,0.77216 1.39902,1.36862 2.14117,1.85849c0.68106,0.44952 1.52097,1.10123 1.99515,1.79868c0.55252,0.81268 1.07919,1.43881 1.46817,2.29999c0.34811,0.77072 0.82797,1.33716 1.44202,2.10001c0.60013,0.74554 0.3544,1.82492 0.832,2.47867c0.51071,0.69907 0.77866,1.32135 0.77866,2.22134c0,0.89999 0.24408,1.89288 -0.11432,2.60449c-0.38028,0.755 -1.29376,0.99731 -2.28568,1.49551c-0.59946,0.30109 -1.59674,0.80664 -2.2045,1.09998c-0.84821,0.40936 -1.81784,0.79697 -2.61017,1.10001c-0.77667,0.29703 -1.61835,0.73941 -2.36401,1.164c-0.79797,0.45438 -1.63293,0.70816 -2.22131,1.23734c-0.73572,0.66168 -1.52133,1.07846 -2.22086,1.19867c-0.97888,0.16821 -1.79562,0.38654 -2.49384,0.80133c-0.88812,0.52762 -1.64429,0.93451 -2.48532,1.36533c-0.66434,0.3403 -1.27252,1.1731 -1.88535,1.63333c-0.73236,0.54996 -1.48599,0.86548 -2.362,1.5c-0.65561,0.47488 -1.38013,1.0513 -2.09998,1.34283c-0.98825,0.40024 -1.87521,0.26337 -2.81934,0.52383c-0.69174,0.19083 -1.42038,0.62622 -2.44235,0.77618c-0.65759,0.0965 -1.72433,0.05716 -2.69632,0.05716c-0.69467,0 -1.38934,0 -2.65167,0c-0.771,0 -1.64032,0 -2.63849,0c-0.74734,0 -1.77917,0 -2.72601,0c-0.69934,0 -1.87851,0 -2.6785,0c-1,0 -1.60852,0.04102 -2.45715,-0.05716c-0.97156,-0.1124 -1.76358,-0.38599 -2.59018,-0.59018c-1.02591,-0.25342 -1.93176,-0.33533 -2.95267,-0.35266c-0.78931,-0.0134 -1.56094,0.00711 -2.45834,-0.5c-0.75482,-0.42654 -1.42831,-0.5 -2.367,-0.5c-1.008,0 -1.87015,0 -2.77466,0c-0.81067,0 -1.72131,0 -2.57465,0c-0.94135,0 -1.70935,0 -2.66135,0c-0.76532,0 -1.76401,0 -2.564,0c-0.99869,0 -1.94284,0 -2.84735,0c-0.91931,0 -1.75266,0 -2.73132,0c-0.77399,0 -1.6785,0 -2.42584,0c-0.99548,0 -1.7955,0 -2.7955,0c-0.79999,0 -1.79999,0 -2.59998,0c-0.80002,0 -1.81671,0.12692 -2.71469,-0.08533c-0.89996,-0.21271 -1.65002,-0.75833 -2.50616,-0.91467c-0.97708,-0.17844 -1.75302,-0.46741 -2.49384,-0.716c-0.94778,-0.31805 -1.88208,-0.28555 -2.48532,-0.784c-0.56964,-0.47067 -1.543,-0.5 -2.272,-0.5c-0.83701,0 -2.02798,0 -2.62799,0c-0.89999,0 -2.10001,0 -2.69867,0c-0.88049,0 -1.716,0 -2.71735,0c-0.90933,0 -1.85065,0 -2.64114,0c-0.85352,0 -2.04285,0 -2.64151,0c-0.88049,0 -1.716,0 -2.71735,0c-0.90933,0 -1.85065,0 -2.64114,0c-0.85352,0 -2.04288,0.00595 -2.64151,-0.00134c-0.88065,-0.01074 -1.72748,-0.03299 -2.71866,-0.28265c-0.71365,-0.17975 -1.44501,-0.47983 -2.65067,-0.63199c-0.67981,-0.08578 -1.39182,-0.03293 -2.69867,-0.25067c-0.82843,-0.13803 -1.49023,-0.49432 -2.53351,-0.71185c-0.80942,-0.16876 -1.48517,-0.12082 -2.48383,-0.12149c-0.81601,-0.00055 -1.63202,0 -2.85886,0c-0.64648,0 -1.65942,0.04141 -2.478,-0.02084c-1.15173,-0.08759 -1.94196,-0.33243 -2.52081,-0.5c-0.94687,-0.27411 -1.97913,-0.58115 -2.711,-0.77914c-0.7468,-0.20203 -1.49808,-0.38797 -2.58069,-0.70001c-1.0173,-0.29321 -1.67108,-0.509 -2.31934,-0.75717c-1.02127,-0.39096 -1.72955,-0.73581 -2.49399,-1.0575c-0.79553,-0.33478 -1.62778,-0.67075 -2.97433,-0.9425c-0.45694,-0.09222 -1.38284,-0.18323 -2.28168,-0.25751c-0.84253,-0.06961 -1.94116,-0.17444 -2.78931,-0.41064c-0.70242,-0.19562 -1.70425,-0.52124 -2.47202,-0.564c-1.08179,-0.06021 -2.00192,-0.17926 -2.672,-0.436c-0.76447,-0.29291 -1.76999,-0.4837 -2.564,-0.62735c-1.01129,-0.18295 -1.60025,-0.52869 -2.76666,-0.78067c-0.78503,-0.16959 -1.37704,-0.14615 -2.32001,-0.25067c-1.03741,-0.11499 -1.76813,-0.2637 -2.51334,-0.43683c-0.7496,-0.17416 -2.17972,-0.57513 -2.84283,-0.77914c-0.63751,-0.19614 -1.55341,-0.50745 -2.45749,-0.79984c-0.91861,-0.29709 -1.56662,-0.48996 -2.27036,-0.61484c-1.16534,-0.20682 -2.03888,-0.23636 -2.95016,-0.2645c-0.46436,-0.01434 -1.39648,-0.01685 -2.75766,-0.021c-0.86432,-0.00266 -1.70172,-0.00183 -2.517,-0.05701c-1.2067,-0.08163 -2.00415,-0.22147 -2.79382,-0.36816c-0.7757,-0.1441 -1.5206,-0.32538 -2.58917,-0.45319c-0.98221,-0.11749 -1.61081,-0.11615 -2.8215,-0.12149c-0.59866,-0.00266 -1.47917,0.00055 -2.31467,0c-1,-0.00067 -1.89189,0.04111 -2.88533,-0.22134c-0.81905,-0.21637 -1.79889,-0.61792 -2.409,-0.7305c-0.90376,-0.16678 -2.03685,-0.48434 -2.70984,-0.758c-0.7467,-0.30365 -1.54404,-0.65067 -1.96916,-0.8075c-1.32364,-0.48831 -2.26361,-0.72974 -2.73734,-0.84668c-0.94728,-0.23383 -1.89136,-0.43155 -2.808,-0.63599c-0.88335,-0.19702 -1.74112,-0.40088 -2.59201,-0.60001c-0.85844,-0.2009 -1.74063,-0.40323 -2.65999,-0.60001c-0.94995,-0.20334 -1.4353,-0.30099 -2.41917,-0.5c-0.49672,-0.10046 -1.99548,-0.3992 -2.991,-0.59998c-0.49391,-0.09961 -1.46884,-0.29843 -1.94734,-0.40002c-1.39146,-0.29541 -2.27248,-0.49722 -3.12115,-0.69998c-0.82597,-0.19733 -1.63475,-0.39969 -2.436,-0.60001c-0.79874,-0.19971 -1.59012,-0.39703 -2.364,-0.60001c-0.75143,-0.19708 -2.15236,-0.59888 -2.81067,-0.79999c-0.65102,-0.19888 -1.99117,-0.60303 -2.70934,-0.80002c-0.74048,-0.20309 -1.49187,-0.3956 -2.23199,-0.59998c-1.0641,-0.29385 -2.04903,-0.58173 -2.63733,-0.836c-1.10457,-0.47742 -1.79269,-1.02469 -2.2675,-1.36401c-0.73965,-0.52859 -1.61604,-0.99374 -2.62984,-1.37466c-0.69485,-0.26108 -1.40965,-0.45383 -2.3065,-0.9465c-0.81009,-0.44501 -1.44682,-1.07516 -2.46416,-1.43616c-0.77902,-0.27643 -1.39116,-0.17783 -2.412,-0.57602c-0.74634,-0.29111 -1.5118,-1.06281 -2.3665,-1.42383c-0.74648,-0.31531 -1.82053,-0.40536 -2.38951,-0.85349c-0.78033,-0.61459 -1.28745,-1.20267 -2.06783,-1.69385c-0.73946,-0.46542 -1.55511,-1.00262 -2.13217,-1.52084c-0.56604,-0.50833 -1.28853,-1.33408 -1.96333,-1.87015c-0.69655,-0.55331 -1.45866,-0.90317 -2.44716,-1.40451c-0.58992,-0.29919 -1.32675,-0.68326 -2.17484,-1.29999c-0.8036,-0.58438 -1.46828,-0.97104 -2.14134,-1.39999c-0.88336,-0.56299 -1.64653,-1.20688 -2.30933,-1.60001c-0.68648,-0.40717 -1.40088,-0.95026 -2.04167,-1.30002c-0.86235,-0.47067 -1.82944,-0.70306 -2.52899,-0.89999c-0.72179,-0.20319 -1.78246,-0.49887 -2.74667,-0.78934c-0.83875,-0.25266 -1.70923,-0.53964 -2.508,-0.59998c-0.88953,-0.06717 -1.84937,-0.00363 -2.58133,-0.01068c-1.10683,-0.01068 -1.94646,-0.31876 -2.604,-0.86133c-0.57915,-0.47787 -1.35567,-1.1301 -2.14317,-1.61783c-0.53014,-0.32834 -1.39677,-0.9433 -1.99016,-1.40619c-0.78786,-0.61456 -1.54668,-1.12213 -2.0825,-1.46199c-1.01772,-0.64551 -1.70891,-1.02299 -2.54683,-1.45132c-0.79694,-0.40738 -1.59343,-0.75821 -2.38,-1.30135c-0.67264,-0.46446 -1.50099,-1.11037 -2.04216,-1.39999c-0.96936,-0.51878 -1.79546,-0.88388 -2.37917,-1.25717c-0.82469,-0.5274 -1.3844,-1.08665 -2,-1.59016c-0.97487,-0.79736 -1.60103,-1.09758 -2.43333,-1.65266c-0.70723,-0.47166 -1.49713,-1.00644 -2.1765,-1.3045c-0.77232,-0.33885 -1.83333,-0.84769 -2.30484,-1.17816c-0.67928,-0.47609 -1.67838,-1.20425 -2.47467,-1.46667c-0.71951,-0.23711 -1.42703,-0.78612 -1.96333,-1.4025c-0.69427,-0.79794 -1.26439,-1.13449 -2.24733,-1.64816c-0.79698,-0.41649 -1.42711,-0.72058 -2.19984,-1.32133c-0.6123,-0.47603 -1.30192,-1.20793 -1.91616,-1.79333c-0.62386,-0.59457 -1.36225,-1.09845 -2.09467,-1.48534c-0.98016,-0.51775 -1.58933,-0.79999 -2.38933,-1.2c-1,-0.5 -1.60882,-0.78275 -2.59984,-1.30032c-0.59497,-0.31073 -1.38175,-0.82402 -1.91616,-1.66768c-0.44234,-0.69829 -0.68229,-1.53625 -1.368,-2.26266c-0.62087,-0.65771 -1.38857,-1.10623 -1.88,-1.79466c-0.47413,-0.6642 -1.01774,-1.5564 -1.636,-2.17467c-0.61826,-0.61827 -1.32484,-1.09412 -2,-1.5c-0.98386,-0.59146 -1.4679,-1.04662 -2.3215,-1.60001c-0.67601,-0.43826 -1.68983,-0.87878 -2.27399,-1.2045c-0.76313,-0.42551 -1.52705,-1.17619 -1.9045,-1.71632c-0.67854,-0.97098 -1.15844,-1.58257 -1.71067,-2.21516c-0.39157,-0.44855 -1.1916,-1.44405 -1.57866,-1.97867c-0.55873,-0.77176 -1.139,-1.68997 -1.71067,-2.24367c-0.61701,-0.59761 -1.34549,-0.90872 -2.016,-1.34167c-0.86538,-0.55878 -1.67099,-1.48685 -1.26234,-2.29984c0.34393,-0.68422 1.43877,-0.86743 2.24001,-0.89566c0.95924,-0.03378 1.77433,-0.0045 2.64283,-0.0045c0.8955,0 1.8,0 2.7315,0c0.64934,0 1.68533,0 2.41667,0c1.12199,0 1.86333,0 2.92599,0c0.66867,0 1.64667,-0.00031 2.30534,0c1.4,0.00067 2.14185,-0.00157 2.89066,0.036c0.74204,0.03722 1.80704,0.17044 2.78934,0.38934c0.62752,0.13985 1.83416,0.42345 2.727,0.52199c0.56634,0.0625 1.77974,0.20885 2.45834,0.47801c0.99018,0.39276 1.65503,0.53709 2.4,0.564c1.10716,0.03998 2.00926,0.03749 2.90783,0.36333c0.56065,0.20331 1.53867,0.5677 2.34283,0.62651c0.99755,0.07295 1.81616,-0.01689 2.68533,0.10616c1.00948,0.14291 1.83157,0.43115 2.41917,0.56201c1.18869,0.26471 2.10582,0.32681 2.73149,0.342c1.33032,0.03227 2.04947,0.00439 2.8,0.02133c0.77487,0.01749 1.56902,0.04539 2.76416,0.21066c0.80731,0.11163 1.61955,0.28511 2.457,0.42601c0.42764,0.07196 1.76314,0.24521 2.69101,0.2955c0.93034,0.05043 1.39046,0.05067 2.2825,0.05583c1.22647,0.00708 2.308,0.00133 2.98399,0.00133c0.668,0 2.0708,-0.00627 2.82133,0.01067c0.77487,0.01749 1.56895,0.0459 2.76433,0.21066c0.81158,0.11186 1.64076,0.28207 2.07167,0.35333c0.89752,0.14844 2.37029,0.30994 2.896,0.34001c1.08203,0.0619 1.63194,0.06943 2.72667,0.08083c0.53732,0.0056 2.06216,0.0045 2.53334,0.0045c0.88933,0 1.71466,0 2.48399,0c1.40401,0 2.06267,0 3.04066,0c1.01401,0 1.73267,0 2.48334,0c0.77466,0 1.56534,-0.0032 2.76367,0.00017c0.79134,0.00223 1.9314,0.00311 2.62965,0.08516c1.21063,0.14226 1.96169,0.44963 2.73868,0.63068c0.86642,0.20189 1.88242,0.25589 2.58133,0.27333c0.68251,0.01704 1.87866,0.01067 2.79333,0.01067c0.972,0 1.85733,0 2.65733,0l0.836,0" id="svg_1" stroke-width="2" stroke="#000" fill="none"/>
  <path t="5995,6109,6109,6124,6124,6124,6124,6124,6124,6141,6141,6141,6141,6141,6141,6141,6141,6141,6158,6158,6158,6159,6159,6159,6159,6176,6176,6176,6176,6176,6176,6176,6192,6192,6192,6192,6192,6192,6192,6213,6213,6213,6213,6213,6213,6213,6213,6227,6227,6227,6227,6227,6227,6227,6227,6227,6244,6244,6244,6244,6244,6244,6244,6244,6244,6262,6262,6262,6263,6263,6263,6263,6263,6263,6279,6279,6279,6279,6279,6279,6279,6297,6297,6297,6297,6297,6297,6298,6314,6314,6314,6314,6314,6314,6314,6314,6332,6332,6332,6332,6332,6332,6348,6348,6348,6349,6349,6366,6366,6366,6366,6366,6384,6384,6384,6384,6384,6402,6402,6402,6402,6402,6423,6423,6423,6423,6440,6520,6543,6560,6577,6577,6577,6594,6594,6594,6594,6611,6611,6629,6629,6629,6629,6646,6647,6647,6663,6663,6663,6681,6681,6681,6719,6719,6801,6801,6818,6836,6836,6863,6863,6871,7080,7098,7114,7114,7114,7131,7131,7132,7132,7148,7148,7148,7165,7166,7166,7166,7166,7183,7183,7183,7200,7200,7200,7217,7218,7218,7218,7218,7235,7235,7235,7252,7253,7253,7253,7269,7270,7286,7286,7304,7304,7304,7304,7322,7323,7323,7340,7340,7340,7340,7362,7362,7362,7373,7373,7373,7373,7373,7389,7389,7389,7389,7389,7407,7407,7407,7407,7424,7424,7424,7424,7441,7441,7441,7441,7462,7463,7463,7463,7475,7475,7475,7475,7493,7494,7494,7494,7511,7511,7511,7511,7527,7528,7528,7528,7528,7545,7545,7545,7545,7545,7563,7563,7563,7580,7580,7580,7598" d="m194,216c-0.45734,-1.868 -0.81137,-2.5802 -1.33333,-3.5c-0.43253,-0.76219 -0.68507,-1.18076 -1.22917,-2.10417c-0.2946,-0.49997 -0.6066,-1.02196 -1.60417,-2.72916c-0.3557,-0.60873 -0.71756,-1.23453 -1.086,-1.87201c-0.37289,-0.64519 -0.74721,-1.29474 -1.12199,-1.944c-0.37254,-0.64539 -0.73933,-1.28383 -1.45866,-2.51733c-0.67944,-1.1651 -1.01001,-1.72321 -1.33067,-2.27199c-0.31566,-0.54022 -0.93404,-1.60808 -1.23466,-2.14401c-0.60646,-1.08115 -1.20216,-2.2009 -1.50133,-2.76999c-0.30083,-0.57225 -0.59795,-1.14842 -1.20001,-2.29468c-0.29897,-0.5692 -0.89687,-1.68773 -1.20016,-2.23132c-0.59818,-1.07211 -0.90778,-1.59763 -1.22066,-2.12134c-0.63087,-1.05595 -0.96053,-1.58652 -1.64584,-2.66667c-0.35295,-0.55629 -0.71649,-1.1223 -1.48,-2.28c-0.3932,-0.59619 -0.7989,-1.20074 -1.215,-1.815c-0.42389,-0.62576 -1.30443,-1.9054 -1.75967,-2.55983c-0.46207,-0.66425 -0.93205,-1.33516 -1.40399,-2.0145c-0.4754,-0.68433 -0.9514,-1.37326 -1.422,-2.0685c-0.47073,-0.69545 -1.38959,-2.09323 -1.83101,-2.7955c-0.43858,-0.69775 -0.86372,-1.39781 -1.27499,-2.10001c-0.40871,-0.69783 -0.80388,-1.39787 -1.185,-2.09999c-0.37886,-0.69794 -1.09784,-2.09862 -1.44034,-2.79967c-0.34016,-0.6963 -0.66792,-1.39169 -0.996,-2.07901c-0.3246,-0.68001 -0.64622,-1.35156 -0.978,-2.00699c-0.32697,-0.6459 -1.00476,-1.88666 -1.3685,-2.47134c-0.70917,-1.13995 -1.09286,-1.67143 -1.45801,-2.20132c-0.35887,-0.52078 -1.07115,-1.52679 -1.6875,-2.54167c-0.30035,-0.49458 -0.83212,-1.50697 -1.08266,-2.02133c-0.50978,-1.0466 -0.75282,-1.59451 -1.01868,-2.14934c-0.55865,-1.16588 -0.86797,-1.77538 -1.53732,-3.03017c-0.34193,-0.64099 -0.69409,-1.27866 -1.04401,-1.91249c-0.34476,-0.6245 -0.68715,-1.23088 -1.31734,-2.38667c-0.56804,-1.04181 -0.81845,-1.53123 -1.3125,-2.4375c-0.46426,-0.85159 -0.68414,-1.27058 -1.442,-2.46249c-0.51401,-0.80841 -0.80495,-1.19263 -1.31749,-2c-0.50336,-0.79291 -1.12749,-1.9964 -1.29201,-2.40134c-0.32596,-0.80228 -0.57907,-1.63625 -0.85199,-2.48401c-0.43091,-1.33853 -0.59911,-1.79947 -0.94267,-2.73999c-0.17354,-0.47508 -0.53722,-1.41676 -1.008,-2.80801c-0.15004,-0.44338 -0.41364,-1.30382 -0.64584,-2.125c-0.22025,-0.7789 -0.51761,-1.87595 -0.7195,-2.55367c-0.27611,-0.92682 -0.61591,-1.69803 -0.76534,-2.816c-0.11545,-0.86378 -0.39171,-1.64339 -1.23734,-1.672c-0.96478,-0.03263 -1.65599,0.00009 -2.57066,0c-0.87067,-0.00008 -1.87923,0.00187 -2.57733,-0.036c-0.68344,-0.03707 -1.88055,-0.25072 -2.62984,-0.464c-1.18628,-0.33766 -1.97736,-0.45474 -2.54166,-0.47916c-0.8799,-0.03809 -2.07917,-0.02084 -2.67917,-0.02084c-0.9,0 -2.09984,0 -2.6955,0c-0.8685,0 -1.93896,0.03617 -2.8685,-0.01067c-0.83694,-0.04217 -1.63198,-0.27666 -2.52167,-0.63667c-0.87967,-0.35596 -1.601,-0.35267 -2.53967,-0.35267c-1.008,0 -1.8,0 -2.82733,0c-0.69467,0 -1.74196,-0.23242 -2.64284,0.0045c-0.71712,0.1886 -0.7045,1.32883 -0.7045,2.00983c0,0.807 0,1.98566 0,2.88567c0,0.6 0,1.5 0,2.70267c0,0.61867 0,1.61166 0,2.73067c0,0.83333 0,1.26749 0,2.14583c0,0.85834 0,2.02084 0,2.95383c0,0.771 -0.00727,1.98877 0.0045,2.52867c0.0193,0.88535 0.15276,2.2066 0.2795,2.92233c0.13159,0.74312 0.30421,1.4882 0.43201,2.23199c0.18201,1.05936 0.24761,2.049 0.30933,2.67334c0.1199,1.21297 0.32566,2.10658 0.47467,2.68983c0.21361,0.83611 0.44727,1.83333 0.48933,2.71016c0.04845,1.00974 -0.02325,1.8398 0.17733,2.97734c0.09234,0.52368 0.36059,1.34792 0.54934,2.23466c0.19013,0.89323 0.26149,1.79829 0.2795,2.69867c0.01799,0.89983 -0.01216,1.80098 0.0405,2.7c0.0352,0.60098 0.23544,1.80499 0.48483,2.72083c0.17402,0.63904 0.48761,1.64357 0.67783,2.36584c0.19955,0.75771 0.38852,1.55617 0.516,2.39999c0.20084,1.32948 0.23475,2.26169 0.27067,2.728c0.07121,0.92438 0.10076,1.8376 0.45766,3.04234c0.22086,0.7455 0.58282,1.4108 0.966,2.034c0.56789,0.92361 1.19373,1.80443 1.57017,2.409c0.37085,0.5956 1.00134,1.79926 1.27267,2.39999c0.27066,0.59926 0.67773,1.52661 1.29083,2.40001c0.43531,0.62013 0.97191,1.18828 1.452,1.8c0.69344,0.88358 1.21104,1.79128 1.46367,2.39999c0.36864,0.88826 0.64565,1.79887 0.94167,2.71066c0.20273,0.62445 0.42203,1.2686 0.79867,2.67601c0.20256,0.75691 0.37422,1.55841 0.44416,1.97499c0.21836,1.30064 0.28145,2.22188 0.32117,3.16367c0.02001,0.47449 0.03375,1.422 0.036,2.808c0.00143,0.88 0,1.30501 0,2.125c0,1.155 0,2.22 0,2.88c0,0.91499 0,1.995 0,2.7l0,0.97501l0,0.96584" id="svg_2" stroke-width="2" stroke="#000" fill="none"/>
  <path t="8761,8849,8849,8849,8849,8849,8849,8849,8863,8863,8863,8863,8863,8863,8880,8880,8880,8880,8880,8896,8896,8896,8896,8896,8896,8896,8913,8913,8913,8913,8913,8913,8913,8913,8913,8934,8934,8934,8934,8934,8934,8934,8934,8934,8949,8949,8950,8950,8950,8950,8950,8963,8963,8963,8963,8963,8980,8980,8980,8980,9000,9001,9001,9016,9033,9087,9129,9149,9163,9163,9163,9163,9182,9182,9182,9182,9182,9182,9182,9199,9200,9200,9200,9200,9200,9200,9215,9215,9215,9215,9215,9215,9215,9234,9234,9234,9234,9234,9234,9234,9234,9234,9250,9250,9250,9250,9250,9250,9250,9250,9266,9267,9267,9267,9267,9267,9267,9267,9267,9286,9286,9286,9286,9286,9286,9286,9286,9286,9303,9303,9303,9303,9303,9303,9303,9303,9303,9320,9320,9320,9320,9320,9320,9320,9338,9338,9338,9338,9338,9338,9338,9339,9354,9354,9354,9354,9373" d="m167,229c-10.16667,0 -10.99234,0 -12.50967,0c-0.69966,0 -1.36533,0 -2.00099,0c-1.19733,0 -2.32266,0 -3.40266,0c-0.52501,0 -1.545,0 -2.04001,0c-0.95999,0 -2.3257,0.00381 -3.20299,-0.0045c-0.4397,-0.00417 -1.34174,-0.01897 -2.29834,-0.08083c-1.04631,-0.06766 -2.20178,-0.1978 -2.81683,-0.27634c-0.63698,-0.08134 -1.29195,-0.17412 -1.96049,-0.285c-1.37407,-0.22791 -2.76915,-0.51489 -3.46817,-0.67517c-0.70236,-0.16104 -1.40598,-0.33838 -2.1105,-0.53549c-0.71187,-0.19917 -1.42749,-0.41881 -2.1465,-0.6615c-0.73044,-0.24655 -2.21161,-0.8094 -2.964,-1.12367c-0.76368,-0.31898 -1.52717,-0.65796 -2.2935,-0.9975c-0.76466,-0.33881 -1.52212,-0.67775 -2.2755,-0.9975c-0.73868,-0.31351 -2.1732,-0.87239 -2.8665,-1.09784c-0.66697,-0.21689 -1.94833,-0.55373 -2.56,-0.68134c-0.5885,-0.12279 -1.70811,-0.31122 -2.75,-0.41666c-0.96119,-0.09727 -1.86114,-0.13849 -2.71201,-0.15601c-0.81854,-0.01686 -2.021,-0.01067 -2.81233,-0.01067c-0.76733,0 -1.49467,0 -2.76583,0c-0.7605,0 -1.55517,0 -2.52233,0c-0.91017,0 -1.59653,-0.36058 -1.52084,-1.19867c0.07229,-0.80042 1.14533,-0.80133 1.776,-0.80133c0.77467,0 1.68533,0 2.724,0c1.15466,0 1.767,0 2.39733,0c0.64433,0 1.959,0 2.62134,0c1.31467,0 1.95983,0 3.22417,0c0.62116,0 1.23633,0 1.8465,0c1.20934,0 2.41067,0 3.011,0c1.20866,0 1.821,0 2.44133,0c1.27267,0 1.929,0 3.29167,0c0.7095,0 1.436,0 2.1765,0c0.7515,0 1.51099,0 2.27551,0c0.76649,0 1.532,0 3.79333,0c0.73732,0 1.46866,0 2.196,0c0.72533,0 1.45065,0 2.17799,0c0.73134,0 2.214,-0.00049 2.96883,0.00017c0.76384,0.00067 1.53569,0.00238 2.3145,0.0105c0.78487,0.00819 1.57478,0.02188 2.36852,0.04649c0.79695,0.0247 2.39584,0.10454 3.1955,0.16451c0.80038,0.06003 1.60052,0.13507 2.39999,0.22501c0.80057,0.09006 1.60072,0.19511 2.40001,0.315c0.80074,0.1201 2.40088,0.40048 3.19966,0.55983c0.79858,0.15932 1.59219,0.33192 2.379,0.5145c0.78053,0.18112 1.55014,0.37152 2.30701,0.5685c0.74448,0.19376 2.87207,0.79355 3.545,0.9955c0.66008,0.19809 1.30823,0.39929 1.9485,0.60001c0.63573,0.19928 1.90239,0.60355 3.1875,1c0.65361,0.20163 1.31305,0.39961 1.97249,0.5955c1.29779,0.38553 1.92755,0.56834 2.53667,0.74733c0.58421,0.17168 2.13783,0.6355 2.98651,0.89549l0.71266,0.22l0.849,0.255l0.96167,0.23399" id="svg_3" stroke-width="2" stroke="#000" fill="none"/>
  <path t="11082,11173,11173,11173,11173,11189,11189,11189,11189,11189,11189,11189,11206,11206,11206,11206,11206,11206,11206,11225,11225,11225,11225,11225,11225,11225,11225,11225,11242,11242,11242,11242,11242,11242,11242,11242,11242,11257,11257,11257,11257,11257,11257,11257,11257,11257,11274,11274,11274,11274,11274,11274,11274,11274,11274,11291,11291,11291,11291,11291,11291,11291,11291,11291,11310,11311,11311,11311,11311,11311,11311,11311,11311,11328,11328,11328,11328,11328,11328,11328,11328,11328,11344,11344,11344,11344,11344,11344,11344,11344,11344,11362,11362,11362,11362,11363,11363,11363,11363,11363,11377,11377,11377,11377,11377,11377,11377,11377,11377,11396,11396,11396,11396,11397,11397,11397,11397,11397,11414,11414,11414,11414,11414,11414,11414,11414,11414,11430,11430,11430,11430,11430,11430,11430,11430,11430,11449,11450,11450,11450,11450,11450,11450,11450,11450,11467,11468,11468,11468,11468,11468,11468,11468,11483,11483,11483,11483,11483,11483,11503,11503,11503,11503,11503,11504,11514,11514,11514,11514,11534,11534,11534,11534,11534,11552,11552,11552,11552,11568,11568,11568,11590,11590,11606,11624,11641,11658,11658,11676,11677,11693,11693,11693,11710,11711,11728,11728,11757,11814,11835,11835,11857,11857,11857,11857,11869,11869,11869,11869,11869,11886,11886,11886,11886,11902,11902,11902,11902,11902,11902,11921,11921,11921,11922,11922,11922,11935,11935,11935,11936,11936,11958,11958,11958,11958,11958,11970,11970,11970,11970,11970,11970,11987,11987,11987,11987,11987,12004,12004,12004,12004,12021,12021,12022,12022,12022,12039,12039,12039,12039,12039,12059,12059,12059,12059,12059,12075,12075,12075,12075,12075,12075,12090,12090,12090,12090,12090,12090,12090,12107,12107,12107,12107,12107,12107,12124,12124,12124,12124,12141,12141,12141,12141,12141,12141,12158,12158,12158,12158,12158,12158,12176,12176,12176,12177,12177,12177,12193,12194,12194,12194,12194,12194,12194,12211,12211,12211,12211,12211,12212,12227,12227,12227,12227,12227,12246,12246,12246,12261,12261,12375,12408,12408,12408,12424,12424,12424,12424,12424,12441,12441,12441,12441,12441,12441,12458,12458,12458,12458,12458,12458,12476,12476,12476,12476,12476,12476,12493,12493,12493,12493,12493,12493,12493,12510,12510,12510,12510,12510,12510,12529,12529,12529,12529,12529,12547,12547,12547,12547,12547,12547,12562,12562,12563,12563,12563,12563,12582,12582,12582,12582,12597,12597,12597,12597,12597,12598,12615,12616,12616,12616,12616,12616,12633,12633,12633,12634,12634,12634,12649,12649,12649,12649,12649,12649,12666,12666,12666,12666,12666,12667,12667,12667,12687,12687,12687,12687,12688,12688,12708,12708,12708,12708,12708,12708,12708,12721,12721,12721,12721,12721,12722,12738,12738,12738,12738,12756,12756,12771,12771,12791,12792,12836" d="m239,244c-2.97467,0 -3.70399,0 -4.52933,0c-0.92934,0 -1.97067,0 -3.12401,0c-0.60916,0 -1.23334,0 -1.86749,0c-1.27834,0 -1.91251,0 -3.14584,0c-1.17065,0 -1.746,0 -2.32533,0c-1.20267,0 -1.842,0 -2.51733,0c-1.49066,0 -2.31999,0 -3.20532,0c-0.93733,0 -1.92267,0 -2.95201,0c-1.06932,0 -2.17467,0 -3.312,0c-2.35466,0 -3.564,0 -4.78934,0c-1.23734,0 -2.48267,0 -3.73199,0c-1.24933,0 -2.49466,0 -3.73199,0c-2.43468,0 -3.625,0 -4.79733,0c-1.15634,0 -2.29868,0 -3.429,0c-1.12033,0 -2.23267,0 -3.339,0c-2.20267,0 -3.30234,0 -4.39999,0c-1.09367,0 -2.18134,0 -3.261,0c-1.06967,0 -2.12733,0 -3.17101,0c-2.03734,0 -3.02766,0 -4,0c-0.95633,0 -1.89867,0 -2.82899,0c-0.92033,0 -1.83267,0 -2.739,0c-1.80267,0 -2.70267,0 -3.60268,0c-0.89999,0 -1.8,0 -2.7,0c-0.89999,0 -1.8,0 -2.7,0c-1.8,0 -2.69983,0 -3.59866,0c-0.89684,0 -1.79068,0 -2.68051,0c-0.88483,0 -1.76366,0 -2.6355,0c-1.71866,0 -2.56349,0 -3.39732,0c-0.82184,0 -1.63068,0 -2.42551,0c-0.77983,0 -1.54367,0 -2.2905,0c-1.43867,0 -2.129,0 -2.80133,0c-0.65634,0 -1.29868,0 -1.929,0c-0.62033,0 -1.23267,0 -1.839,0c-1.20267,0 -1.80251,0 -2.40134,0c-0.59683,0 -1.19066,0 -1.7805,0c-0.58482,0 -1.16367,0 -1.73549,0c-1.11867,0 -1.66401,0 -2.20134,0c-0.53133,0 -1.05867,0 -1.584,0c-0.52533,0 -1.05267,0 -1.584,0c-1.08266,0 -1.6375,0 -2.20133,0c-0.57184,0 -1.15067,0 -1.7355,0c-0.58983,0 -1.18366,0 -1.78049,0c-1.19867,0 -1.7985,0 -2.39734,0c-0.59683,0 -1.19067,0 -1.78049,0c-0.58484,0 -1.16367,0 -1.7355,0c-1.11867,0 -1.66383,0 -2.2,0c-0.52817,0 -1.04933,0 -1.5645,0c-0.51017,0 -1.01633,0 -1.5195,0c-1.00134,0 -1.50134,0 -2.00134,0c-0.5,0 -1,0 -1.5,0c-0.5,0 -1.5,0 -2.5,0c-1.00134,0 -1.5045,0 -2.52084,0c-1.03633,0 -1.5645,-0.0016 -3.20016,0.00017c-0.56033,0.00061 -1.1228,-0.00302 -2.23734,0.02066c-0.54443,0.01157 -1.59214,0.01947 -2.9775,0.2005c-0.8055,0.10526 -1.54062,0.29263 -2.265,0.42601c-1.1287,0.20782 -1.96688,0.2731 -2.84983,0.32733c-0.4492,0.02759 -1.34824,0.03784 -2.616,0.192c-0.766,0.09315 -1.78886,0.34596 -2.42434,0.48067c-1.20382,0.25519 -1.79915,0.31479 -2.63699,0.342c-1.12846,0.03665 -1.96301,0.01067 -2.872,0.01067c-0.9,0 -1.81067,0 -2.7215,0c-0.69933,0 -1.87849,0 -2.6785,0c-1,0 -1.8,0 -2.6,0c-1,0 -1.8,0 -2.79867,0c-0.76534,0 -2.17389,-0.49303 -2.51467,0.284c-0.28981,0.66081 0.97638,0.7738 1.96933,1.004c0.65623,0.15213 1.38926,0.3615 2.148,0.68401c1.21943,0.51833 1.99333,1.03043 2.38533,1.27867c0.77834,0.4929 1.50362,1.01985 2.5895,1.60649c0.66064,0.3569 1.33971,0.62802 2.3905,1.0255c0.76236,0.28838 1.60202,0.60092 2.50266,0.95334c0.47002,0.18391 1.4371,0.56827 1.93067,0.76534c1.49761,0.59796 1.99733,0.79866 2.99733,1.19867c0.5,0.2 1.49999,0.60001 2,0.8c1.49965,0.59985 1.99693,0.79968 2.97867,1.18933c0.47948,0.19031 1.40396,0.56149 2.688,1.04401c0.76489,0.28741 1.49249,0.54379 2.22,0.79199c0.76579,0.26126 2.07783,0.69467 2.56534,0.85999c1.02505,0.34756 1.54962,0.5311 2.072,0.72534c1.02726,0.38199 2.41412,0.98419 2.82133,1.18802c0.76203,0.38141 1.44612,0.79071 2.13599,1.116c1.3821,0.6517 2.16389,0.85443 2.56033,0.96448c0.81715,0.22687 2.12518,0.52002 3.041,0.72217c0.46559,0.10275 1.40355,0.29382 2.3075,0.55585c1.28757,0.3732 2.04492,0.7204 2.75916,1.06818c0.70444,0.34299 1.40389,0.7301 2.59367,1.15314c0.42289,0.15036 1.32694,0.39441 2.27834,0.61084c0.48666,0.11072 1.97863,0.41089 2.47884,0.51068c1.00426,0.20038 1.51019,0.30154 2.53584,0.5c0.52101,0.1008 2.13049,0.40094 2.68533,0.5c1.13099,0.2019 1.70401,0.2999 2.27866,0.39999c1.14736,0.19983 1.71695,0.2948 3.37833,0.60001c0.53531,0.09833 1.5753,0.29852 2.08,0.39999c0.98059,0.19717 1.4574,0.28928 2.82018,0.60016c0.86592,0.19754 1.70631,0.40201 2.517,0.65701c1.21358,0.38174 2.00731,0.7265 2.4135,0.89551c0.83296,0.34662 1.70129,0.70602 2.16167,0.86331c1.46024,0.4989 1.99605,0.61044 3.09067,0.84802c0.55823,0.12115 1.6904,0.33203 2.256,0.43466c1.1158,0.20245 2.2,0.40134 2.7345,0.50131c1.069,0.19998 1.60869,0.30469 2.7175,0.5c1.16315,0.2049 1.77301,0.30212 3.03601,0.5c0.64516,0.10107 1.29471,0.19971 1.944,0.30002c0.64537,0.0997 2.51753,0.39886 3.1075,0.49982c0.57135,0.09775 1.66013,0.29166 2.18066,0.37933c0.99567,0.16772 2.3949,0.36472 3.27583,0.43683c0.83923,0.06873 1.64175,0.0899 2.39999,0.16803c1.06799,0.11002 1.72275,0.25989 2.604,0.49066c0.95186,0.24924 1.8613,0.41998 2.76184,0.42532c0.96431,0.00571 1.625,0.00018 2.3795,0c1.00583,-0.00024 1.81467,0.01285 2.70383,-0.0625c0.95381,-0.08084 1.46312,-0.12125 2.9375,-0.60184c0.50867,-0.1658 1.50256,-0.62781 2,-0.87732c1.00529,-0.50424 1.49321,-0.79041 2.5,-1.29169c0.99348,-0.49463 1.49709,-0.71625 2.5,-1.14581c0.49857,-0.21353 1.49968,-0.6203 2.5,-1.02084c1.00101,-0.40079 1.50359,-0.60236 2.52083,-1c0.51471,-0.2012 1.56281,-0.60461 2.64584,-1c0.5538,-0.20218 1.68529,-0.5976 2.25867,-0.78934c0.57396,-0.19193 1.72067,-0.55795 2.29066,-0.72534c1.11479,-0.32739 2.1978,-0.60364 2.72684,-0.72815c1.03467,-0.2435 1.54585,-0.34958 2.55583,-0.55585c1.0007,-0.20438 2.00021,-0.40024 2.99066,-0.60132c0.48994,-0.09946 1.45477,-0.29422 2.84399,-0.60001c0.44592,-0.09814 1.31802,-0.30212 2.1875,-0.5c0.88852,-0.20221 1.34668,-0.30911 2.82167,-0.60001c0.52354,-0.10324 1.59767,-0.29907 2.13667,-0.39999c1.05867,-0.19821 1.57324,-0.27451 2.95667,-0.60016c0.80528,-0.18958 1.54703,-0.4097 2.265,-0.65701c1.1386,-0.39218 1.97052,-0.72638 2.87117,-1.07883c0.47003,-0.18393 1.4371,-0.56827 1.93066,-0.76532c1.49763,-0.59793 1.99733,-0.79868 2.99733,-1.19867c0.5,-0.20001 1.5,-0.60001 2,-0.80002c1.5,-0.60001 2,-0.79999 3,-1.19998c0.5,-0.20001 1.49998,-0.60004 2,-0.80002c1.50031,-0.60007 2.00201,-0.80167 2.509,-1c1.03133,-0.40344 1.55948,-0.6098 2.66167,-1c1.15906,-0.41034 1.7708,-0.60367 2.39732,-0.79868c1.28026,-0.3985 1.93137,-0.58273 2.58134,-0.76532c0.6447,-0.18109 1.27898,-0.36545 3.108,-0.8145c0.57355,-0.14081 1.13579,-0.27162 2.24266,-0.50067c0.54993,-0.1138 1.66713,-0.32454 2.83334,-0.52083c0.60889,-0.10248 1.87167,-0.29773 2.51733,-0.38933c0.64902,-0.09207 1.29788,-0.18117 1.944,-0.25351c1.86996,-0.20935 2.46146,-0.24545 3.582,-0.3c0.52979,-0.02579 1.52997,-0.04875 2,-0.05266c1.28995,-0.01071 2.40448,-0.0045 3.06082,-0.0045c0.87451,0 1.88181,0.06053 2.75183,-0.036c1.02109,-0.1133 1.78983,-0.464 2.64401,-0.79733l0.86215,-0.16217l0.8685,-0.0405" id="svg_4" stroke-width="2" stroke="#000" fill="none"/>
  <path t="14228,14318,14319,14319,14336,14336,14336,14336,14336,14354,14354,14354,14354,14354,14354,14354,14354,14370,14370,14370,14370,14370,14370,14370,14370,14370,14388,14388,14388,14388,14388,14389,14389,14389,14389,14411,14411,14411,14411,14411,14411,14411,14411,14411,14427,14427,14427,14427,14427,14427,14427,14427,14427,14443,14443,14443,14443,14443,14443,14443,14443,14443,14460,14460,14460,14460,14460,14460,14460,14460,14460,14475,14475,14475,14475,14475,14475,14475,14492,14492,14492,14492,14492,14492,14512,14512,14512,14512,14512,14525,14525,14525,14525,14525,14545,14545,14545,14545,14559,14560,14560,14560,14560,14578,14578,14578,14578,14578,14594,14594,14594,14594,14594,14594,14610,14610,14610,14610,14610,14610,14627,14627,14627,14627,14627,14644,14644,14644,14662,14662,14679,14679,14699,14964,14978,14995,15012,15012,15012,15031,15031,15031,15031,15047,15047,15047,15047,15047,15064,15064,15064,15064,15064,15082,15082,15082,15082,15082,15098,15098,15098,15098,15115,15115,15115,15132" d="m326,255c-2.01883,0 -2.85733,-0.00011 -3.48801,0c-1.03415,0.00017 -1.78796,-0.00702 -2.61615,0.04167c-0.93024,0.05469 -1.44443,0.09358 -3.18185,0.40166c-0.65784,0.11664 -1.34424,0.27348 -2.05798,0.45c-0.74106,0.18327 -1.50092,0.39262 -2.27402,0.63002c-0.78967,0.24249 -2.38522,0.80176 -3.18231,1.12c-0.80569,0.32169 -1.61172,0.67334 -2.42102,1.04999c-0.82349,0.38327 -1.65323,0.79504 -2.49298,1.23001c-0.85901,0.44492 -2.62048,1.40738 -3.52835,1.91934c-0.92685,0.52264 -1.86304,1.06201 -2.80798,1.60797c-0.94971,0.54871 -1.89795,1.09998 -2.84399,1.64401c-0.93661,0.5386 -2.76993,1.57578 -3.66217,2.06201c-0.8692,0.47369 -1.72189,0.92474 -2.56052,1.34998c-0.81781,0.41467 -1.62262,0.80588 -2.4165,1.17001c-0.77557,0.35574 -2.29736,0.99554 -3.04465,1.28067c-0.73413,0.28012 -1.46405,0.53818 -2.18552,0.79199c-0.71484,0.2515 -1.42679,0.49731 -2.1315,0.75601c-0.70465,0.25867 -2.10754,0.8212 -2.80399,1.13715c-0.69962,0.31738 -1.38821,0.65594 -2.06851,0.99753c-0.67068,0.33676 -1.32309,0.67511 -1.96048,0.9975c-0.61462,0.31088 -1.76871,0.86896 -2.30719,1.09814c-0.50708,0.21582 -0.99585,0.40146 -1.46698,0.56702c-0.45432,0.15964 -0.90115,0.30194 -1.341,0.44098c-0.4375,0.13831 -1.32373,0.42084 -1.77783,0.57767c-0.4646,0.16046 -0.93509,0.33301 -1.89935,0.67868c-0.48953,0.17548 -1.47537,0.53256 -2.47916,0.83334c-0.99387,0.29779 -1.49377,0.41684 -2.47916,0.64581c-0.96204,0.22354 -1.43686,0.31348 -2.79951,0.62085c-0.86954,0.19614 -1.72107,0.40112 -2.57399,0.60001c-0.4312,0.10056 -1.76839,0.4006 -2.69551,0.59998c-0.46643,0.10031 -1.39246,0.29141 -2.2825,0.5c-1.22949,0.28815 -1.96399,0.5 -2.66933,0.70001c-0.70534,0.20001 -1.83192,0.50598 -2.66933,0.70001c-0.89056,0.20636 -1.81615,0.39938 -2.2825,0.5c-1.3819,0.29816 -2.26489,0.49835 -2.69551,0.60449c-0.85413,0.21051 -1.71069,0.43582 -3.01933,0.86215c-0.45679,0.1488 -1.38989,0.48767 -2.35416,0.83334c-0.48953,0.17548 -1.47557,0.53195 -2.47917,0.83334c-0.99405,0.29852 -1.49614,0.41156 -2.47917,0.66666c-0.96429,0.25024 -1.44759,0.34793 -2.79916,0.82117c-0.86838,0.30405 -1.27211,0.5007 -2.075,0.8175c-0.75734,0.29883 -2.15778,0.70612 -2.8,0.79999c-0.88237,0.12897 -1.9323,0.25995 -2.59999,0.48666c-1.0932,0.37122 -1.91064,0.23743 -2.72585,0.59552c-0.71216,0.31284 -1.22531,0.9769 -2.0625,0.97916c-1.0015,0.00269 -1.741,0 -2.6245,0c-1.0005,0 -1.7193,0.00626 -2.46983,-0.01068c-0.77487,-0.01749 -2.36476,-0.1506 -2.76399,-0.21066c-0.8017,-0.12057 -1.59799,-0.29001 -2.40001,-0.42599c-1.19724,-0.203 -2.00102,-0.27313 -2.81067,-0.32733c-0.82504,-0.05524 -1.67754,-0.0838 -3.0105,-0.24667c-0.92935,-0.11356 -1.39326,-0.20541 -2.31749,-0.35333c-0.89178,-0.14273 -2.11736,-0.31628 -2.847,-0.36816c-0.67195,-0.04779 -1.61168,-0.05582 -2.81168,-0.05716l-0.58133,0l-1.05067,0l-0.95633,0" id="svg_5" stroke-width="2" stroke="#000" fill="none"/>
  <path t="16390,16506,16506,16521,16521,16521,16521,16521,16539,16539,16539,16539,16539,16539,16539,16539,16539,16555,16555,16555,16555,16555,16555,16555,16556,16556,16575,16575,16575,16575,16575,16575,16575,16575,16575,16592,16593,16593,16593,16593,16593,16593,16593,16593,16608,16608,16608,16608,16608,16608,16608,16608,16608,16625,16625,16625,16625,16625,16625,16625,16625,16625,16642,16643,16643,16643,16643,16643,16643,16643,16643,16659,16659,16659,16659,16659,16659,16659,16659,16659,16676,16676,16676,16676,16676,16676,16676,16676,16677,16694,16694,16694,16694,16694,16694,16694,16694,16694,16711,16711,16711,16711,16711,16711,16711,16711,16711,16727,16727,16727,16728,16728,16728,16728,16728,16728,16745,16745,16745,16745,16769,16769,16769,16770,16770,16784,16784,16784,16800,16800,16820,16820,16955,16981,17002,17021,17035,17035,17055,17055,17055,17067,17068,17087,17087,17087,17087,17102,17102,17102,17102,17102,17121,17121,17121,17121,17135,17135,17135,17152,17153,17170,17170" d="m243,294c-1.85733,0.01068 -2.5237,0.02679 -3.64383,0.22168c-0.69655,0.12119 -1.50221,0.31906 -2.451,0.53998c-0.53462,0.12448 -1.73837,0.40552 -2.41251,0.55984c-0.71786,0.16437 -1.47401,0.3356 -2.26199,0.5145c-0.81401,0.18478 -1.64812,0.37415 -2.496,0.56851c-0.85612,0.19626 -2.56821,0.5946 -3.41333,0.7955c-0.83755,0.1991 -1.66873,0.39975 -2.496,0.59998c-0.82539,0.19977 -1.65056,0.40045 -2.478,0.60001c-0.83122,0.20044 -2.51392,0.6004 -3.36867,0.80017c-0.86258,0.2016 -1.73174,0.40265 -2.604,0.6105c-0.87506,0.2085 -1.75029,0.42154 -2.62199,0.64648c-0.86964,0.22443 -2.58765,0.7041 -3.43117,0.96436c-0.83783,0.25848 -1.66557,0.53201 -2.4855,0.81448c-0.81642,0.28125 -1.62601,0.57285 -2.4315,0.8685c-0.80383,0.29504 -2.40433,0.89594 -3.2045,1.19534c-0.79984,0.29926 -1.59935,0.59744 -2.39999,0.8895c-0.79936,0.2916 -1.59892,0.57782 -2.40001,0.85352c-0.79892,0.27496 -2.39906,0.79355 -3.19983,1.03598c-0.79791,0.24155 -1.59608,0.47153 -2.3895,0.70651c-0.79027,0.23404 -1.57663,0.46994 -2.3535,0.72449c-0.77382,0.25354 -2.29407,0.81503 -3.036,1.133c-0.74219,0.31805 -1.47438,0.66418 -2.20651,1.01852c-0.73688,0.35663 -1.47476,0.72653 -2.22449,1.09048c-0.75826,0.36807 -2.32082,1.08789 -3.13301,1.42685c-0.82381,0.34381 -1.66615,0.67084 -2.51849,0.99597c-0.85866,0.32755 -1.72472,0.64877 -2.5905,0.97803c-0.86624,0.32941 -2.58371,1.00876 -3.4265,1.36865c-0.83723,0.35751 -1.66125,0.72858 -2.47501,1.104c-0.80624,0.37195 -1.60013,0.74902 -2.38499,1.12201c-0.77515,0.36835 -2.29405,1.08804 -3.03984,1.431c-0.73289,0.33701 -1.45496,0.66159 -2.16449,0.97498c-0.69415,0.30658 -1.37418,0.60117 -2.03851,0.88501c-0.64633,0.27612 -1.88522,0.79568 -2.47583,1.04016c-0.57207,0.23682 -1.12846,0.46484 -1.67099,0.68552c-0.53014,0.21564 -1.05057,0.4256 -1.563,0.6315c-0.50623,0.20343 -1.50914,0.60416 -2.00867,0.8045c-0.4978,0.19965 -0.99193,0.39856 -1.479,0.59998c-0.48026,0.19861 -0.95049,0.39737 -1.407,0.60001c-0.44481,0.19745 -1.67685,0.79034 -2.4045,1.20001c-0.69424,0.39084 -1.35078,0.81241 -2.37651,1.39999c-0.71109,0.40735 -1.44641,0.79242 -2.172,1.164c-0.69051,0.35361 -1.89067,0.95065 -2.61966,1.31516c-0.63901,0.31952 -1.65424,0.7905 -2.38451,1.22086c-0.79166,0.46655 -1.42418,1.15112 -2.35716,1.2955c-0.88943,0.13763 -1.8,0.00671 -2.7,0.00449c-0.90903,-0.00226 -1.5793,-0.05426 -2.60984,-0.35718c-0.78275,-0.23007 -1.31549,-0.42487 -2.5375,-0.94281c-0.68263,-0.28934 -1.618,-0.70349 -2.41434,-1.00452c-0.57904,-0.21887 -1.53196,-0.56467 -2.55966,-1.017c-0.73651,-0.32416 -1.48177,-0.69336 -2.226,-1.08301c-0.37023,-0.19385 -1.43138,-0.79495 -2.41667,-1.38483c-0.62547,-0.37445 -1.21766,-0.76001 -2.13583,-1.189c-0.87457,-0.4086 -1.743,-0.66 -2.7785,-0.90033l-0.675,-0.09601l-1.08,-0.19199l-0.64583,-0.35419" id="svg_6" stroke-width="2" stroke="#000" fill="none"/>
  <path t="18150,18259,18259,18259,18259,18259,18259,18273,18273,18273,18273,18273,18273,18273,18273,18273,18290,18290,18290,18290,18290,18290,18290,18290,18290,18307,18307,18307,18307,18307,18307,18307,18307,18307,18324,18324,18324,18324,18324,18324,18324,18324,18324,18342,18342,18342,18342,18342,18342,18342,18342,18342,18359,18359,18359,18359,18359,18359,18359,18359,18359,18376,18376,18376,18376,18376,18376,18376,18376,18376,18393,18393,18393,18393,18393,18393,18393,18393,18393,18411,18411,18411,18411,18411,18411,18412,18412,18412,18428,18428,18429,18429,18429,18429,18429,18429,18429,18446,18446,18446,18446,18446,18446,18446,18446,18446,18499,18499,18499,18499,18499,18499,18499,18499,18499,18531,18531,18531,18531,18531,18531,18531,18531,18531,18579,18579,18579,18579,18579,18579,18579,18579,18579,18596,18596,18596,18596,18596,18596,18612,18612,18629,18629,18629,18646,18646,18646,18664,18664,18664,18664,18664,18681,18682,18682,18682,18682,18682,18699,18699,18699,18699,18699,18699,18699,18716,18716,18716,18716,18716,18716,18717,18733,18733,18733,18733,18734,18750,18750,18750,18750,18774,18774,18774" d="m287,303c-2.63068,0.00665 -3.10175,-0.00443 -4.16666,0.10416c-0.59641,0.06079 -1.23254,0.15897 -1.896,0.32251c-1.45038,0.35748 -2.207,0.66873 -2.99469,1c-0.82407,0.34656 -1.66425,0.74738 -2.526,1.17749c-0.88773,0.44308 -1.78772,0.91757 -2.70599,1.4025c-1.87814,0.99179 -2.83371,1.49475 -3.80933,2.00269c-1.00339,0.5224 -2.0452,1.06308 -3.13049,1.63651c-1.14276,0.60379 -2.35046,1.24808 -3.62552,1.95148c-2.81964,1.55551 -4.36121,2.45087 -5.99731,3.39603c-1.71626,0.99146 -3.49606,2.02887 -5.33551,3.09c-1.88185,1.0856 -3.79459,2.18695 -5.74049,3.26999c-3.89394,2.16727 -5.84637,3.18738 -7.776,4.18933c-1.90009,0.9866 -3.77528,1.93747 -5.60851,2.87399c-1.78943,0.91418 -3.53308,1.79871 -5.20351,2.694c-3.16495,1.69632 -4.61797,2.55792 -6.00266,3.40134c-1.33415,0.81265 -2.60579,1.62793 -3.83551,2.42551c-1.19823,0.77716 -2.36177,1.55179 -3.52049,2.2905c-2.28185,1.45471 -3.44154,2.13596 -4.60268,2.79733c-1.14865,0.65427 -2.29218,1.27533 -3.41849,1.87051c-1.09644,0.57938 -2.16443,1.1261 -3.19351,1.64548c-1.90839,0.9632 -2.78171,1.39374 -3.59732,1.80267c-0.76604,0.38409 -1.48727,0.74686 -2.16751,1.09351c-0.64639,0.32941 -1.26314,0.64618 -1.85249,0.9585c-1.12953,0.5986 -1.67279,0.90228 -2.20801,1.20401c-0.52913,0.29831 -1.04997,0.59891 -1.5645,0.89999c-0.5108,0.29889 -1.01666,0.59946 -1.5195,0.89999c-1.002,0.59888 -1.50073,0.89981 -1.99733,1.19733c-0.4904,0.29382 -0.97176,0.58176 -1.4415,0.86102c-0.45427,0.27005 -0.89027,0.52856 -1.3065,0.771c-0.75468,0.43958 -1.091,0.62823 -1.39867,0.79999c-0.28102,0.15689 -0.53891,0.29822 -0.774,0.42902c-0.21556,0.11993 -0.41431,0.22992 -0.59399,0.33899c-0.32571,0.19772 -0.4693,0.30072 -0.604,0.40268c-0.12959,0.09811 -0.25044,0.19873 -0.3645,0.29999c-0.11127,0.09879 -0.21695,0.19937 -0.31949,0.29999c-0.20258,0.19876 -0.30084,0.30035 -0.40134,0.39868c-0.0995,0.09735 -0.19875,0.19211 -0.3,0.28049c-0.0988,0.08624 -0.19696,0.16809 -0.3,0.2355c-0.19463,0.12729 -0.29875,0.16748 -0.39999,0.20001c-0.09892,0.03177 -0.19966,0.05179 -0.3,0.06448c-0.09973,0.01263 -0.19997,0.01758 -0.3,0.0195c-0.19997,0.00381 -0.29984,0.00134 -0.39867,0.00134c-0.09683,0 -0.19066,0 -0.2805,0c-0.08482,0 -0.16367,0 -0.23549,0c-0.11867,0 -0.16417,0 -0.20267,0c-0.0345,0 -0.06801,0 -0.1035,0c-0.3125,0 -1.20058,0.01227 -2.17934,-0.00015c-0.82086,-0.01041 -1.49542,-0.03961 -2.4865,-0.2865c-0.86577,-0.21567 -1.48228,-0.4574 -2.48001,-0.88c-0.72551,-0.30731 -1.48381,-0.67249 -2.28,-1.08002c-0.84412,-0.43207 -1.72124,-0.91779 -2.63866,-1.43732c-0.47247,-0.26755 -1.4346,-0.8176 -1.92534,-1.09067c-0.49294,-0.27429 -1.98697,-1.06354 -2.4895,-1.30402c-0.99974,-0.47839 -1.50986,-0.69742 -2.53583,-1.14667c-0.52084,-0.22806 -1.05457,-0.44714 -2.68517,-1.19598c-0.56334,-0.2587 -1.12782,-0.52963 -1.69351,-0.80402c-1.12563,-0.54596 -1.67575,-0.82147 -2.21599,-1.09067c-1.5269,-0.76086 -1.99556,-1.00095 -2.88667,-1.43732c-0.8237,-0.40335 -1.58846,-0.77451 -2.66116,-1.22534c-0.66063,-0.27765 -1.61084,-0.64667 -2.22017,-0.90533l-0.901,-0.43716l-0.879,-0.4935l-0.54933,-0.32401" id="svg_7" stroke-width="2" stroke="#000" fill="none"/>
  <path t="21103,21210,21210,21229,21245,21266,21266,21278,21278,21295,21313,21313,21345,21417,21434,21449,21466,21466,21466,21483,21483,21483,21483,21502,21502,21502,21502,21502,21502,21520,21520,21520,21520,21520,21520,21536,21536,21536,21536,21536,21551,21551,21551,21551,21551,21571,21571,21571,21572,21572,21572,21587,21587,21587,21587,21587,21587,21604,21604,21604,21604,21623,21623,21623,21641,21641,21641,21656,21656,21656,21675,21675,21675,21690,21690,21690,21690,21707,21708,21708,21708,21708,21733,21733,21733,21733,21733,21746,21746,21746,21746,21746,21746,21768,21768,21768,21768,21768,21768,21768,21775,21775,21775,21775,21800,21800,21848,21848,21873,21873,21901,21918,21954,21969,21969,21984,21984,21984,22001,22001,22001,22019,22019,22039,22039,22039,22054,22054,22071,22071,22091,22134,22150,22166,22167,22184,22201,22201,22221,22221,22221,22221,22238,22238,22238,22238,22254,22254,22270,22270,22287,22288,22368,22381,22381,22398,22398,22398,22398,22398,22415,22415,22415,22415,22416,22416,22416,22432,22432,22432,22432,22432,22432,22432,22432,22432,22448,22449,22449,22449,22449,22449,22449,22449,22449,22468,22468,22468,22468,22468,22468,22468,22468,22468,22485,22485,22485,22485,22485,22485,22485,22485,22502,22502,22502,22522,22522,22523" d="m265,278c0,7.60266 0,8.35416 0,9.29999c0,0.90134 0,1.86667 0,2.52536c0,1.008 0,1.87015 0,2.6955c0,0.96317 -0.00064,1.82648 0,2.72198c0.00067,0.95584 0.36285,1.86652 1.20132,1.75452c1.01141,-0.1351 1.4653,-0.70151 2.00934,-1.21869c0.80359,-0.76392 1.41177,-1.37625 2.02533,-2.08667c0.4632,-0.53632 1.18927,-1.55399 1.44934,-1.948c0.55881,-0.84668 0.83847,-1.30469 1.41916,-2.25748c0.29837,-0.48959 0.8981,-1.48495 1.49283,-2.48517c0.29495,-0.49609 0.86646,-1.47754 1.13068,-1.96533c0.5119,-0.94504 0.95807,-1.8616 1.30267,-2.75067c0.32651,-0.84238 0.58057,-1.67581 0.7175,-2.08084c0.40836,-1.20798 0.73535,-2.00604 1.07718,-2.81516c0.34879,-0.82556 0.56058,-1.23282 1.008,-2.556c0.30817,-0.91138 0.42307,-1.39185 0.64581,-2.375c0.23041,-1.01694 0.32379,-1.54422 0.52084,-2.625c0.20309,-1.11389 0.30032,-1.67621 0.47916,-2.79169c0.08719,-0.54395 0.24869,-1.58542 0.35419,-2.54166c0.09299,-0.8428 0.1528,-1.93735 0.16217,-2.58649c0.01752,-1.21338 0.00449,-2.11353 0.00449,-2.7135c0,-1.20001 0.04169,-2.09622 -0.04166,-2.65836c-0.18228,-1.2296 -0.61896,-1.83713 -1.4245,-2.17549c-0.90924,-0.38191 -1.76944,-0.34373 -2.63834,-0.36166c-0.89532,-0.01848 -1.8045,-0.0045 -2.76752,-0.0045c-0.69867,0 -1.87094,-0.00717 -2.73782,0.009c-0.4516,0.00842 -1.38101,0.02022 -2.3075,0.16167c-1.37244,0.20955 -1.80969,0.37242 -2.65735,0.71199c-0.86285,0.34564 -1.28656,0.56766 -2.59198,1.284c-0.9249,0.50751 -1.39127,0.78918 -1.86935,1.06934c-0.97623,0.57202 -1.46878,0.86801 -2.96399,1.76401c-0.49976,0.2995 -0.99533,0.60074 -1.97867,1.17868c-0.4787,0.28134 -1.40344,0.81357 -1.85068,1.05066c-1.21808,0.64575 -1.94769,0.96661 -2.91331,1.34933c-0.56697,0.22473 -1.62234,0.53476 -2.41068,1.05731c-0.89397,0.59256 -1.3246,1.13898 -1.67999,2.19736c-0.24571,0.73175 -0.16667,1.66666 -0.16667,2.556c0,0.96783 0,1.81332 0,2.58133c0,1.04367 -0.00032,1.85065 0,2.43201c0.00067,1.19598 -0.02931,2.08188 0.08533,2.91199c0.13951,1.01022 0.42288,1.6705 0.91467,2.68533c0.29254,0.60367 0.70648,1.39679 1.19867,2.39868c0.28426,0.57864 0.7112,1.57581 0.8,2.39999c0.09065,0.84131 0.6136,1.55804 1.28667,2.11731c0.66916,0.55603 1.39883,0.77319 2.35066,1.10934c0.83836,0.29608 1.59511,0.61304 2.53065,0.80801c0.78564,0.16376 1.67996,0.16022 2.32001,0.16531c1.03448,0.00821 2.12799,0.00134 2.85199,0.00134c0.69202,0 1.89069,0 2.61969,0c1.04166,0 1.87354,-0.16702 2.875,0.16666c0.815,0.27155 1.53564,0.81534 1.04166,0.83334c-0.7345,0.02679 -1.73969,0.005 -2.55099,-0.00449c-0.90744,-0.01059 -1.39276,-0.0177 -2.41333,-0.08084c-1.07834,-0.06671 -2.2005,-0.19754 -2.78134,-0.27634c-0.59787,-0.08112 -1.84848,-0.28229 -2.50534,-0.39999c-0.68185,-0.12219 -2.1243,-0.40347 -2.88867,-0.55984c-0.79297,-0.16223 -1.61147,-0.33502 -2.45399,-0.5145c-0.86479,-0.1842 -1.74928,-0.37488 -2.65199,-0.56851c-0.91862,-0.19702 -2.79588,-0.5961 -3.75034,-0.7955c-0.96021,-0.20059 -1.92279,-0.39938 -2.883,-0.59998c-0.95445,-0.1994 -1.89908,-0.39813 -2.82899,-0.60001c-0.91275,-0.19815 -2.66782,-0.59662 -3.50217,-0.80002c-0.80698,-0.19672 -1.58524,-0.39664 -2.33551,-0.59998c-0.72604,-0.19678 -1.42628,-0.39679 -2.1015,-0.60001c-0.65411,-0.19687 -1.89548,-0.59717 -2.48433,-0.79984c-0.56978,-0.19611 -1.11649,-0.39343 -1.6395,-0.58951c-0.50064,-0.18768 -0.976,-0.37137 -1.42351,-0.5535c-1.18405,-0.48184 -2.10899,-0.89999 -2.8485,-1.24649l-0.832,-0.41068l-0.78934,-0.38934l-0.72533,-0.32532" id="svg_8" stroke-width="2" stroke="#000" fill="none"/>
  <path t="23237,23344,23344,23344,23368,23369,23369,23384,23384,23399,23399,23399,23415,23415,23415,23434,23434,23434,23453,23453,23573,23591,23607,23607,23625,23643,23660,23677,23694,23694,23711,23711,23735,23735,23735,23750,23750,23750,23766,23766,23785,23785,23785,23785,23799,23799,23818,23836,23848,23871,23886,23903,23921,23939,23971,24075,24092,24110,24110,24126,24126,24126,24143,24143,24143,24160,24160,24178,24178,24195,24195,24267,24290,24308,24308,24325,24325,24325,24325,24341,24341,24341,24341,24341,24359,24359,24359,24359,24359,24359,24377,24377,24377,24377,24394,24394,24394,24394,24410,24410,24410,24410,24427,24427,24427,24444,24445,24462,24462,24479,24617,24637,24652,24652,24670,24687,24704,24722,24739,24739,24739,24758,24775,24775,24791,24792,24792,24809,24809,24826,24826,24826,24844,24844,24844,24860,24860,24878,24878,24895,24895,24911,24938" d="m254,316c0,2.95715 0,3.52084 0,4.40134c0,1.19733 0,1.78799 0,2.64151c0,1.27182 0,1.93631 0,2.95715c0,0.81067 0,1.68533 0,2.68533c0,0.83551 0,1.41916 0,2.61432c0,0.87903 0,1.686 0,2.72968c0,0.76801 0.04889,1.82465 0.88667,1.96933c0.92497,0.15973 1.62932,0.00134 2.70265,0.00134c0.91068,0 1.83939,0.21674 2.71066,-0.009c0.88083,-0.22821 1.29373,-0.97177 1.57852,-1.96982c0.18973,-0.66492 0.12149,-1.79184 0.12149,-2.56284c0,-0.56735 0,-1.758 0,-2.63702c0,-0.80698 0,-1.85464 0,-2.68381c0,-0.90167 0,-1.82419 0,-2.4975c0,-0.67334 0.00064,-1.86801 0,-2.78268c-0.00067,-0.97067 -0.33679,-1.70856 -0.97467,-2.28265c-0.57874,-0.52087 -1.07544,-1.22617 -1.72983,-1.62735c-0.77167,-0.47308 -1.26691,-1.24594 -1.2955,-2.14734c-0.02853,-0.8992 -0.01822,-1.1424 0.00134,-0.31332c0.01794,0.76059 0.21429,1.9361 0.35132,2.466c0.21317,0.82434 0.4902,1.87927 0.62201,2.81134c0.11786,0.8335 0.28336,1.64764 0.63599,2.436c0.4545,1.01605 0.8844,1.55045 1.22269,2.63333c0.23016,0.73679 0.50519,1.74243 0.14532,2.556c-0.30862,0.69772 -1.27606,0.60883 -2.31201,0.77731c-0.9855,0.16028 -1.70587,0.34671 -2.47565,0.48068c-1.18759,0.2067 -1.99303,0.27979 -2.81235,0.31665c-0.85017,0.03827 -1.293,0.03375 -2.71199,0.03601c-1.03334,0.00165 -1.5675,0 -2.64584,0c-0.53416,0 -1.56749,0 -2.52083,0c-0.84534,0 -1.60266,0 -2.64366,0c-1.02301,0 -1.74034,0 -2.48167,0c-1.12199,0 -2.20799,0 -2.88933,0c-0.96451,0 -1.58084,0 -2.78517,0c-0.8895,0 -1.743,0 -2.7785,0c-0.67499,0 -1.75504,0.00885 -2.511,0c-0.89001,-0.01044 -1.40962,-0.81476 -0.64899,-0.99551c0.86687,-0.20599 1.75433,-0.00449 2.7175,-0.00449c0.92082,0 1.82413,-0.07568 2.72217,0.00134c0.9758,0.08368 1.6459,0.39594 2.31467,0.79999c0.89075,0.53818 1.64871,1.04233 2.50482,1.19867c0.9771,0.17844 1.56667,0.38913 2.37917,0.64734c0.98683,0.3136 1.81534,0.31155 2.80017,0.57401c0.83746,0.22318 1.47522,0.55365 2.48384,0.69333c0.81081,0.11227 1.63199,0.08466 2.63066,0.08533c0.87466,0.00058 1.88516,-0.00006 2.66451,0c0.99933,0.00009 1.81949,0.08533 2.62083,0.57468l0.79999,0.38931" id="svg_9" stroke-width="2" stroke="#000" fill="none"/>
 </g>
 <g display="none">
  <title>muse_image</title>
  <image xlink:href="http://farm1.static.flickr.com/92/232444751_a428324572.jpg" id="muse" height="472" width="640" y="4" x="0"/>
 </g>
 <g display="none">
  <title>bbox</title>
  <rect stroke="#f00" fill="none" stroke-width="3" height="262.22222" width="431.36" y="116.56369" x="29.44" id="bbox"/>
 </g>
</svg>
