<svg width="640" height="480" xmlns="http://www.w3.org/2000/svg" xmlns:svg="http://www.w3.org/2000/svg" xmlns:xlink="http://www.w3.org/1999/xlink">
 <!-- Sketchy ANNOTATION
  ImageNet ID: n02691156_987
  URL: http://farm1.static.flickr.com/6/6572489_bf7440418d.jpg
  Image Width: 500
  Image Height: 448
  BBox X: 43
  BBox Y: 47
  BBox Width: 422
  BBox Height: 369
  Exposure: 2000ms
  Synset Label: airplane
  Synset ID: n02691156
  Worker Tag: underside of an airplane
  Sanity Check: 
   Context
   Saved
  Comment: 
   {}
  Worker ID: A3HKR8SW08DOF4
  Assignment ID: 3OSWBBLG1EX78V1T7KG1DJJG9HZXDZ
  HIT ID: 39WICJI5ATSW8E1HPBT88BIUO173ZL
  Work Time: 134s
  Worker Score: 0.8571
 END ANNOTATION -->
 <g display="inline">
  <title>Layer 1</title>
  <path t="0,228,228,244,264,264,287,347,347,384,384,391,407,439,439,448,449,464,471,495,503,503,511,519,535,543,552,559,567,591,591,599,607,615,615,615,631,639,639,648,648,648,655,665,671,671,687,687,703,703,703,711,711,719,719,727,735,743,759,759,767,767,775,775,783,783,791,791,799,799,799,807,815,815,823,823,831,831,839,839,848,855,855,864,865,872,879,887,887,895,895,903,911,919,927,927,935,935,943,951,959,959,967,967,983,983,991,991,991,999,1007,1007,1015,1023,1023,1031,1048,1048,1048,1064,1065,1072,1072,1079,1079,1087,1087,1095,1095,1103,1103,1111,1119,1119,1127,1127,1135,1135,1135,1143,1143,1143,1151,1151,1159,1159,1167,1167,1167,1175,1175,1183,1183,1191,1191,1191,1199,1199,1207,1207,1215,1215,1215,1223,1224,1231,1231,1239,1239,1248,1248,1255,1256,1256,1264,1265,1265,1272,1272,1272,1279,1287,1287,1287,1295,1295,1303,1303,1311,1311,1319,1319,1327,1327,1335,1335,1351,1360,1367,1367,1375,1375,1383,1391,1391,1399,1407,1420,1420,1420,1423,1431,1432,1432,1439,1449,1449,1455,1455,1464,1471,1472,1479,1479,1487,1497,1497,1503,1513,1513,1513,1532,1535,1535,1544,1544,1545,1551,1559,1567,1567,1575,1575,1583,1583,1591,1599,1599,1599,1607,1615,1615,1631,1632,1639,1639,1648,1648,1655,1655,1665,1665,1665,1671,1679,1687,1687,1697,1697,1703,1703,1719,1719,1730,1730,1735,1743,1743,1751,1759,1759,1775,1775,1783,1783,1799,1799,1807,1807,1823,1823,1831,1839,1848,1849,1865,1871,1895,1895,1911,1912,1919,1919,1930,1935,1943,1967,1967,1983,1984,1991,1991,2007,2007,2007,2015,2031,2048,2049,2079,2079,2087,2103,2103,2112,2119,2127,2135,2151,2151,2159,2175,2183,2183,2191,2199,2199,2215,2223,2223,2231,2232,2248,2393,2424,2831,2831,2915,2959,2975,2991,3015,3031,3032,3039,3055,3071,3087,3087,3103,3103,3119,3119,3144,3145,3151,3159,3167,3191,3215,3216,3232,3232,3239,3239,3255,3271,3287,3295,3303,3313,3314,3327,3335,3343,3351,3359,3367,3391,3391,3399,3407,3416,3423,3433,3433,3439,3449,3455,3471,3481,3482,3487,3497,3503,3519,3519,3527,3527,3535,3543,3551,3559,3559,3575,3591,3591,3607,3607,3617,3617,3623,3623,3633,3639,3639,3649,3650,3655,3666,3671,3671,3682,3687,3687,3703,3719,3719,3727,3727,3728,3743,3751,3751,3759,3759,3767,3784,3784,3800,3800,3807,3816,3817,3823,3823,3833,3839,3839,3850,3855,3866,3867,3871,3871,3887,3896,3898,3903,3903,3911,3919,3927,3935,3936,3943,3943,3959,3959,3967,3967,3975,3983,3991,3992,4000,4000,4007,4016,4023,4039,4049,4050,4055,4066,4067,4071,4081,4082,4087,4087,4097,4097,4111,4111,4119,4120,4127,4128,4135,4135,4143,4144,4151,4167,4167,4167,4175,4176,4176,4183,4183,4191,4192,4200,4200,4200,4207,4208,4208,4217,4217,4223,4224,4239,4239,4239,4250,4250,4255,4266,4280,4281,4282,4287,4297,4311,4311,4319,4327,4328,4335,4336,4343,4351,4351,4359,4367,4375,4383,4391,4392,4400,4407,4416,4423,4433,4439,4455,4455,4467,4471,4472,4480,4481,4487,4497,4503,4503,4511,4527,4527,4527,4551,4559,4567,4567,4575,4583,4591,4592,4599,4599,4607,4616,4623,4633,4650,4655,4664,4665,4671,4680,4687,4703,4711,4719,4727,4743,4743,4767,4775,4775,4791,4799,4815,4823,4824,4833,4839,4850,4855,4856,4864,4871,4896,4911,4911,4927,4927,4935,4935,4943,4951,4983,4984,4999,4999,5015,5015,5023,5032,5050,5064,5071,5103,5111,5111,5127,5135,5151,5159,5167,5191,5215,5216,5217,5223,5231,5248,5264,5287,5287,5295,5327,5327,5343,5367,5375,5375,5399,5407,5415,5431,5439,5439,5447,5464,5473,5480,5487,5496,5503,5519,5527,5527,5551,5676,5692,5692,5692,5728,5728,5844,5844,5859,5859,5880,5881,5897,5898,5912,5935,5935,5936,5946,5951,5952,5959,5960,5983,5992,5999,6023,6033,6039,6040,6049,6063,6080,6560,6560,6560,6575,6575,6575,6575,6575,6602,6608,6623,6632,6640,6671,6703,6719,6728,6743,6751,6846,6846,6879,6896,6913,6931,6932,6952,6975,6992,7007,7008,7023,7129,7160,7161,7175,7184,7199,7207,7239,7247,7263,7264,7280,7287,7311,7429,7429,7464,7465,7480,7503,7527,7597,7597" d="m253,289c1,-1 0.99815,-1.79999 1,-2.63599c0.00226,-1.01669 -0.01579,-1.73865 0.35266,-2.61136c0.4035,-0.95569 0.63692,-1.75247 0.64734,-2.586c0.01077,-0.86209 -0.00212,-1.78638 0.42534,-2.56665c0.45145,-0.82407 0.63524,-1.4942 0.99998,-2.42535c0.27328,-0.69769 0.56195,-1.65366 0.57468,-2.57465c0.01242,-0.89993 0.3674,-1.74802 0.716,-2.39999c0.45309,-0.84741 0.74442,-1.7236 1.23132,-2.49551c0.44308,-0.70242 1.04007,-1.22519 1.05267,-2.10449c0.01291,-0.8999 0.3674,-1.74802 0.716,-2.39999c0.45309,-0.84741 0.75662,-1.58469 1.284,-2.36667c0.43088,-0.63892 0.74045,-1.39478 1.39999,-2.19736c0.64496,-0.78485 1.26059,-1.27893 1.47867,-2.1785c0.22253,-0.91788 0.00858,-1.76219 0.73199,-2.46149c0.64401,-0.62253 1.20093,-1.33498 1.41019,-1.996c0.32166,-1.01601 1.11932,-1.38457 1.64581,-2.16667c0.40573,-0.60272 0.42004,-1.48311 1.03867,-2.42883c0.39487,-0.60365 0.97385,-1.41843 1.37735,-2.20316c0.37012,-0.7198 1.43176,-1.0623 1.91733,-1.72217c0.51044,-0.69368 0.82214,-1.35136 1.29999,-2.13184c0.41858,-0.68365 0.95746,-1.64395 1.58536,-2.146c0.71487,-0.57159 1.51395,-0.89333 2.01382,-1.854c0.34293,-0.65903 0.94315,-1.47974 1.60083,-1.82651c0.6391,-0.33698 1.4054,-1.04915 1.85718,-1.82983c0.39914,-0.68974 0.86771,-1.44948 1.12198,-2.19099c0.39548,-1.15334 0.39847,-2.0179 0.80618,-2.7c0.40604,-0.67926 1.23309,-1.28209 1.91467,-2.00134c0.51425,-0.54268 0.89899,-1.35341 1.5,-2.08882c0.59891,-0.73283 1.17426,-1.19739 1.65717,-2.01434c0.37207,-0.62944 0.81848,-1.43877 1.44281,-2.12616c0.59793,-0.65831 1.49292,-0.93291 2.29984,-1.44817c0.72729,-0.46442 0.75546,-1.18745 1.12152,-2.09967c0.31061,-0.774 0.82239,-1.6203 1.62933,-2.00684c0.80005,-0.38322 0.99081,-1.0813 1.37082,-1.99333c0.29028,-0.69669 0.99124,-1.49979 1.37851,-2.23199c0.41373,-0.78223 0.69016,-1.64995 1.19998,-2.21867c0.67612,-0.75427 1.43912,-1.32228 1.90002,-1.86533c0.61517,-0.72481 1.06375,-1.47089 1.384,-2.13734c0.37387,-0.77806 1.2525,-1.22015 1.74133,-1.85466c0.53903,-0.69966 1.13068,-1.58977 1.65381,-2.17166c0.69214,-0.76985 1.23627,-1.28845 1.72217,-2.02567c0.4491,-0.68137 1.12564,-1.48698 1.77783,-1.99518c0.78525,-0.61186 1.15457,-1.36224 1.87152,-1.92082c0.55667,-0.43369 1.10092,-1.25883 1.43466,-2.08267c0.27493,-0.67867 1.0528,-1.36676 1.68533,-1.77066c0.84103,-0.53703 1.28653,-1.02658 2.02399,-1.74583c0.67807,-0.66135 1.31357,-1.36661 1.888,-1.79817c0.89917,-0.67552 1.55414,-0.87589 2.23199,-1.688c0.55545,-0.66548 0.87161,-1.52177 1.28534,-2.304c0.38727,-0.73221 0.9801,-1.63258 1.57068,-2.00932c0.75256,-0.48009 1.57031,-0.61488 2.69598,-1.20134c0.6904,-0.35968 1.15207,-0.87196 1.73334,-1.82533c0.4155,-0.68146 0.87195,-1.46291 1.57068,-2.05867c0.75851,-0.64673 1.30112,-0.90135 1.96683,-1.46333c0.85281,-0.71992 1.17273,-1.58009 1.77234,-2.30083c0.43689,-0.52518 1.2959,-1.05435 2.04282,-1.45717c0.76297,-0.41147 1.45752,-1.0873 2.08069,-1.89467c0.44473,-0.57617 0.91061,-1.42792 1.7095,-1.9785c0.67136,-0.46269 1.51569,-0.70032 2.2905,-1.0215c0.91769,-0.38042 1.55463,-0.83598 2.1875,-1.5c0.60699,-0.63687 1.53354,-0.96162 2.21249,-1.38533c0.84518,-0.52745 1.0993,-1.29128 2.08798,-1.87184c0.61575,-0.36159 1.73553,-0.36967 2.26801,-0.8895c0.74136,-0.72375 0.93979,-1.63647 1.73184,-2.11067c0.74518,-0.44614 1.37872,-0.86348 1.72699,-1.53732c0.41949,-0.81169 1.33847,-1.17513 2.1185,-1.70534c0.62979,-0.4281 1.48792,-1.00671 1.8815,-1.7c0.45874,-0.80807 0.95541,-1.53123 1.75183,-2.01466c0.73364,-0.44533 1.58469,-0.75797 2.36667,-1.28534c0.63892,-0.43089 1.36102,-0.7836 2.20801,-1.39999c0.80338,-0.58467 1.46954,-0.96907 2.14133,-1.40001c0.87436,-0.5609 1.48401,-1.2 2.08401,-1.8c0.60001,-0.59999 1.24139,-1.16196 1.89999,-1.92082c0.53534,-0.61685 0.86118,-1.58499 1.5,-2.14584c0.59909,-0.52597 1.50516,-0.84889 2.20001,-1.53333c0.50375,-0.4962 1.17462,-1.24844 1.96664,-1.8c0.63239,-0.4404 1.32355,-0.83946 2.20801,-1.38933c0.77109,-0.47939 1.70978,-0.4631 2.45868,-0.944c0.62991,-0.40448 0.98459,-1.1709 1.556,-2.03067c0.54669,-0.82256 1.0545,-1.51013 1.832,-1.66133c0.97946,-0.19048 1.85172,-0.36359 2.53598,-1.07451c0.51273,-0.5327 1.30032,-0.8257 2.24268,-1.06683c0.80798,-0.20676 1.59503,-0.53459 2.23834,-1.13333c0.75018,-0.6982 0.87308,-1.57538 1.63367,-2.1c0.6857,-0.47295 1.54089,-0.77389 2.29199,-1.2c0.83139,-0.47166 1.43097,-1.04604 2.32132,-1.6c0.70331,-0.43758 1.50769,-0.81451 2.30402,-1.18934c0.71927,-0.33855 1.76022,-0.47978 2.51065,-0.96783c0.79672,-0.51816 1.15378,-1.19255 1.90134,-1.8415c0.64703,-0.56168 1.50903,-0.59176 2.31467,-0.97066c0.82053,-0.38591 1.14441,-1.29652 2.13669,-1.72083c0.655,-0.28009 1.60663,-0.44807 2.34732,-1.10983c0.61407,-0.54865 1.45044,-0.86723 2.20132,-1.28533c0.7486,-0.41683 1.46484,-0.99213 2.146,-1.41467c0.91919,-0.5702 1.37805,-1.04329 2.30984,-1.60001c0.72766,-0.43477 1.57666,-0.741 2.30118,-1.2c0.84396,-0.53466 0.95099,-1.45524 1.65231,-2.064c0.67548,-0.58631 1.73648,-0.26447 2.52802,-0.472c0.85596,-0.22443 0.66971,-1.35106 1.14798,-2.16399c0.3497,-0.59442 1.37747,-1.08077 2.06067,-1.5c0.77969,-0.47842 1.12274,-1.24566 1.70535,-1.94283c0.49374,-0.59081 1.43582,-0.9256 2.26865,-1.457c0.65543,-0.41821 1.54697,-0.63574 2.30402,-0.9615c0.91687,-0.39453 1.32309,-1.06 2.37466,-1.60533c0.56464,-0.29282 1.54218,-0.35445 2.36401,-0.75867c0.86984,-0.42783 1.63528,-0.74235 2.27197,-1.18533c0.84708,-0.58936 1.52496,-0.99236 2.47867,-1.30534c0.87427,-0.28692 1.47983,-0.67052 2.38535,-1.084c0.79529,-0.36314 1.60751,-0.64866 2.37885,-1.22134c0.69531,-0.51624 1.32068,-0.61795 2.2345,-0.78c0.83914,-0.1488 1.45309,-0.94972 2.23849,-0.99416c0.88962,-0.05033 1.77026,-0.19975 2.34818,-0.709c0.74045,-0.6525 1.45822,-1.19231 2.32083,-1.27467c0.97495,-0.09308 1.89145,0.29453 2.73633,-0.24217c0.73569,-0.46735 1.34412,-0.82646 2.24283,-0.77866c0.80341,0.04272 1.74121,0.54361 1.96399,1.4c0.22678,0.8717 0.03601,1.8 0.03601,2.7c0,0.9 0,1.7 0,2.6c0,0.9 0,1.82084 0,2.78534c0,0.72533 0,1.7145 0,2.49383c0,0.9995 0,1.77351 0,2.6735c0,0.86333 0,1.8265 0,2.74734c0,0.9 0.01205,1.80141 0,2.76666c-0.01044,0.83353 -0.20547,1.64785 -0.57468,2.45867c-0.38242,0.83981 -0.46967,1.6709 -1,2.38933c-0.44376,0.60116 -1.04346,1.29566 -1.34,2.18533c-0.28589,0.85764 0.08823,1.83826 -0.17065,2.60001c-0.30176,0.88792 -0.79852,1.64133 -1.19867,2.39999c-0.45273,0.85838 -1.05884,1.4128 -1.59467,2.0215c-0.62305,0.70782 -0.73917,1.49146 -1.14667,2.3785c-0.37338,0.81277 -0.58273,1.7054 -1.26001,2.316c-0.64609,0.58249 -1.38635,0.9034 -1.73999,1.68401c-0.36716,0.81049 -1.35611,1.09769 -1.922,1.75716c-0.59103,0.68877 -0.88593,1.41451 -1.04819,2.34283c-0.15512,0.88747 -0.45636,1.68527 -1.10431,2.40018c-0.47607,0.52528 -0.74496,1.39815 -0.95285,2.24716c-0.22461,0.91731 -0.56802,1.77362 -1.11398,2.48599c-0.50693,0.66144 -0.77811,1.36165 -1.25867,2.11601c-0.42526,0.66754 -0.56732,1.49263 -1.28,2.29799c-0.5145,0.58139 -1.14072,1.23427 -1.30936,1.96333c-0.22769,0.98441 -0.40103,1.83562 -1.08514,2.54668c-0.64661,0.67209 -0.75546,1.30894 -1.12152,2.22116c-0.31061,0.774 -0.51001,1.67508 -0.82031,2.5215c-0.30145,0.82228 -1.38278,0.89577 -1.84402,1.8045c-0.39362,0.77554 0.11368,1.80991 -0.4715,2.59016c-0.55396,0.73863 -1.14966,1.14346 -1.64282,2.10533c-0.30423,0.59335 -0.68521,1.35281 -1.2955,2.24283c-0.52524,0.76596 -0.66272,1.51549 -0.70898,2.40984c-0.0448,0.86597 -0.43887,1.70477 -1.09534,2.44751c-0.46948,0.53119 -0.74304,1.39862 -0.95285,2.24716c-0.22702,0.9182 -0.94757,1.65242 -1.44733,2.15266c-0.69901,0.69966 -1.34375,1.26817 -1.48932,2.136c-0.16748,0.99832 -0.0202,1.88144 -0.71518,2.41217c-0.63705,0.4865 -1.34631,1.09128 -1.77466,1.95183c-0.4035,0.81061 -0.5426,1.59108 -0.94617,2.41066c-0.44937,0.91263 -0.39838,1.64682 -0.79617,2.56784c-0.34277,0.79364 -1.16333,1.26347 -1.65717,2.12134c-0.42453,0.73747 -1.28659,0.92755 -1.76416,1.66183c-0.5134,0.78932 -0.28601,1.63757 -0.71436,2.48566c-0.34998,0.69293 -1.0856,1.55527 -1.35748,2.26868c-0.35773,0.93869 -0.62778,1.79784 -1.28534,2.48399c-0.48926,0.51053 -1.33084,1.10796 -1.71466,1.8c-0.45728,0.82449 0.0426,1.87187 -0.30618,2.67917c-0.32867,0.76077 -1.25095,1.05296 -1.62198,1.87267c-0.38889,0.85915 -0.80954,1.73499 -1.35718,2.14816c-0.77109,0.58177 -0.75513,1.59541 -1.17065,2.3c-0.46475,0.78804 -1.41345,0.91675 -2.19336,1.61066c-0.48083,0.42781 -1.04202,1.4222 -1.336,1.99384c-0.50919,0.99016 -0.86185,1.56996 -1.13333,2.5955c-0.2052,0.77519 -0.25464,1.88318 -0.6875,2.47917c-0.58145,0.8006 -1.13333,1.34857 -1.5405,2.15683c-0.44556,0.88446 -0.9761,1.38893 -1.54132,1.96533c-0.78882,0.80443 -1.42828,1.34821 -1.82666,1.99867c-0.57294,0.93549 -0.49084,1.79762 -0.93234,2.65182c-0.31522,0.60991 -1.11786,1.52045 -1.47433,1.99884c-0.55948,0.75081 -1.14151,1.44334 -1.95334,2.088c-0.53918,0.42816 -1.29443,1.1675 -1.79999,1.8c-0.57803,0.72318 -1.33505,1.07809 -1.89468,1.71466c-0.55707,0.63364 -1.02429,1.38583 -1.62933,2.17599c-0.59253,0.77379 -0.84387,1.60896 -1.32266,2.38133c-0.49695,0.80167 -0.93103,1.43484 -1.36398,2.10535c-0.55878,0.86539 -1.54715,1.10443 -2.03336,1.81732c-0.48804,0.71558 0.06436,1.90862 -0.5,2.66667c-0.39557,0.53131 -1.58676,0.90761 -2.125,1.5c-0.56241,0.61899 -0.73474,1.62404 -1.24615,2.2c-0.65024,0.73227 -0.97696,1.53236 -1.5795,2.216c-0.52673,0.59764 -1.10208,1.22235 -1.43201,1.884c-0.42056,0.84335 -0.33691,1.84959 -0.98849,2.25267c-0.76974,0.47618 -1.15991,1.25589 -1.29684,2.14732c-0.14066,0.9158 -0.70203,1.50113 -1.39865,2.2c-0.59903,0.60098 -1.20001,1.20001 -1.89999,1.89999c-0.5,0.5 -1.26108,1.15741 -1.64734,2c-0.35242,0.76877 -0.88675,1.46954 -1.45267,2.11069c-0.6387,0.7236 -0.97189,1.43173 -1.39999,2.10532c-0.55392,0.87158 -1,1.7301 -1.36667,2.48401c-0.3714,0.76364 -0.77881,1.61517 -1.53867,1.94733c-0.90347,0.39496 -1.42877,0.89502 -2.14536,1.45267c-0.55688,0.43338 -0.97055,1.22141 -1.17017,2.10001c-0.19135,0.84222 -1.08347,1.35013 -1.97916,1.5c-0.8382,0.14023 -1.23395,0.95828 -1.64734,1.70001c-0.42563,0.76367 -0.64264,1.69312 -1.45248,2.17865c-0.72977,0.43753 -1.29285,1.02069 -1.87485,1.54666c-0.64871,0.58627 -0.86966,1.3089 -1.10934,2.09201c-0.30914,1.01013 -1.0137,1.58499 -1.616,2.18268c-0.69733,0.69202 -1.58994,0.90704 -2.17865,1.52148c-0.65237,0.68088 -0.51645,1.65399 -1.18268,2.3425c-0.61874,0.63943 -1.44833,0.81052 -2.272,1.26935c-0.7323,0.40793 -1.39368,0.64508 -1.67114,1.46216c-0.25876,0.76193 -1.21613,0.96988 -1.88086,1.59116c-0.61716,0.57681 -1.22662,1.34152 -1.948,1.78c-0.80563,0.48969 -1.53619,0.78345 -2.08398,1.53201c-0.50751,0.69354 -1.32114,0.68207 -2.19867,1.08667c-0.84024,0.38739 -1.59659,0.92624 -2.17416,1.41467c-0.79419,0.6716 -1.15115,1.45578 -1.76251,1.94733c-0.6445,0.51819 -1.44772,0.62039 -2.11398,1.186c-0.68423,0.58084 -1.62595,0.82336 -1.8125,1.66666c-0.19223,0.8689 -0.62955,1.1178 -1.5,1.52084c-0.72946,0.33777 -0.92682,1.43164 -1.6875,1.97916c-0.61807,0.44489 -1.11584,0.93188 -1.8815,1.64282c-0.56705,0.52652 -1.42056,0.91843 -2.25183,1.3045c-0.87082,0.40445 -1.25412,0.94339 -1.80984,1.75269c-0.47852,0.69687 -1.24841,0.92386 -2.25418,1.27466c-0.84167,0.29358 -1.66229,0.78778 -2.336,1.078c-0.84177,0.36261 -1.62704,0.72208 -2.49866,0.94867c-0.80225,0.20856 -0.97833,1.33554 -1.60266,1.71332c-0.80554,0.48743 -1.87726,-0.05771 -2.67783,0.30618c-0.77322,0.35147 -1.354,0.79211 -2.22086,1.03632c-0.76126,0.21448 -1.55362,0.73187 -2.39999,1.16418c-0.6553,0.33472 -1.5,0.76804 -2.39999,0.77866c-0.91068,0.01074 -1.81848,0.22833 -2.5,0.5c-0.97473,0.38855 -1.75266,0.49774 -2.65717,0.5c-0.74734,0.00186 -1.74283,0 -2.54285,0c-0.99982,0 -1.77914,0 -2.77847,0c-0.82019,0 -1.69351,0 -2.78952,0c-0.73199,0 -1.46399,0 -2.57065,0c-0.98267,0 -1.66266,-0.05054 -2.63983,0.00015c-0.82349,0.04269 -1.55872,0.7468 -2.42151,0.96384c-0.8735,0.21973 -1.80002,0.03601 -2.70001,0.03601c-0.89999,0 -1.69998,0 -2.60001,0c-0.89999,0 -1.70242,0.29663 -2.46698,0.59018c-0.84024,0.32263 -1.664,-0.18167 -2.66635,-0.75684c-0.49814,-0.28583 -1.22583,-0.74088 -1.83331,-1.66669c-0.48871,-0.74481 -1.03784,-1.21933 -1.83334,-1.66666c-0.7955,-0.44733 -1.51495,-0.88757 -2.07468,-1.52533c-0.51746,-0.5896 -1.22687,-0.95529 -2.12534,-0.97467c-0.86453,-0.01865 -1.34396,-0.85425 -2.10132,-0.99866c-0.88278,-0.16833 -1.85852,-0.04803 -2.25134,-0.70584c-0.46793,-0.78357 -0.71246,-1.68716 -1.23267,-2.49417c-0.39536,-0.61334 -1.26254,-1.0159 -1.88132,-1.63467c-0.61877,-0.61877 -0.93636,-1.4053 -1.63467,-1.88132c-0.74931,-0.5108 -1.21751,-1.05911 -1.55133,-1.93802c-0.26791,-0.70538 -0.50511,-1.65225 -1.07268,-2.32199c-0.50337,-0.59399 -1.39272,-1.01962 -1.57333,-1.82666c-0.1823,-0.81451 -0.00133,-1.85135 -0.00133,-2.54599c0,-1.01669 0,-1.95267 0,-2.85269c0,-0.90015 0,-1.68533 0,-2.62534c0,-0.69064 0,-1.76398 0,-2.67465l0,-0.89999l0,-0.89999l0,-0.90002" id="svg_1" stroke-width="2" stroke="#000" fill="none"/>
  <path t="10515,10984,10984,10984,10984,10984,11000,11000,11000,11000,11019,11019,11023,11033,11033,11039,11050,11055,11071,11071,11083,11083,11087,11096,11112,11128,11128,11143,11144,11151,11151,11151,11160,11160,11167,11167,11176,11176,11183,11183,11192,11192,11192,11208,11208,11215,11215,11224,11224,11240,11240,11240,11248,11248,11248,11256,11265,11265,11272,11280,11280,11287,11303,11303,11312,11319,11319,11328,11328,11335,11335,11344,11351,11351,11360,11375,11376,11376,11376,11383,11383,11392,11392,11399,11399,11408,11408,11408,11415,11415,11424,11424,11424,11431,11431,11448,11448,11456,11456,11480,11480,11480,11488,11488,11488,11496,11503,11512,11512,11519,11527,11528,11535,11543,11551,11551,11551,11567,11583,11583,11584,11591,11591,11599,11599,11607,11607,11615,11623,11623,11623,11623,11631,11631,11639,11647,11647,11655,11655,11664,11671,11671,11680,11680,11680,11687,11695,11695,11703,11711,11711,11719,11719,11727,11735,11743,11751,11759,11759,11767,11777,11783,11783,11791,11791,11799,11799,11807,11807,11823,11839,11839,11855,11855,11864,11871,11871,11887,11887,11895,11895,11903,11911,11911,11919,11919,11927,11943,11943,11951,11967,11975,11991,11999,12015,12039,12047,12047,12055,12055,12064,12080,12087,12103,12103,12103,12127,12127,12135,12143,12159,12175,12175,12191,12191,12199,12215,12223,12223,12231,12239,12264,12295,12295,12303,12312,12312,12335,12343,12359,12367,12383,12391,12399,12423,12431,12447,12455,12471,12471,12481,12495,12503,12519,12535,12543,12567,12567,12575,12575,12583,12599,12607,12623,12623,12633,12639,12655,12663" d="m360,149c-0.71432,-2.5955 -1.1832,-3.21114 -2,-3.83333c-0.75662,-0.57634 -1.36664,-0.82797 -2.24734,-1.46667c-0.65533,-0.47525 -1.41931,-0.97667 -2.09998,-1.39999c-0.91534,-0.56927 -1.45163,-1.09972 -2.15268,-1.8c-0.60025,-0.59959 -1.15509,-1.29657 -2.10001,-1.48933c-0.88239,-0.18001 -1.62527,-0.50005 -2.50015,-0.88933c-0.74149,-0.32994 -1.65213,-0.33156 -2.33051,-0.92267c-0.72421,-0.63107 -1.19696,-1.19214 -1.96933,-1.62401c-0.82074,-0.45891 -1.51297,-0.70653 -2.25717,-1.2845c-0.57629,-0.44759 -1.53522,-1.2803 -2.13217,-1.65416c-0.71667,-0.44882 -1.56628,-1.06151 -2.09467,-1.436c-0.91074,-0.64551 -1.6489,-0.97612 -2.36334,-1.5c-0.65283,-0.4787 -1.4267,-0.97775 -2.15717,-1.45717c-0.81522,-0.53502 -1.39151,-1.06115 -1.93832,-1.59016c-0.78287,-0.75742 -1.39902,-1.36414 -2.14117,-1.854c-0.68106,-0.44954 -1.48801,-1.12517 -2.01599,-1.79867c-0.65842,-0.83986 -1.16382,-1.23765 -1.90451,-1.75267c-0.80264,-0.5581 -1.3432,-1.11466 -2.11017,-1.67799c-0.69394,-0.5097 -1.70483,-0.83282 -2.28531,-1.37067c-0.62173,-0.57607 -1.29889,-1.29979 -1.90002,-1.89867c-0.59888,-0.59663 -1.48364,-1.02832 -2.09998,-1.46934c-0.73831,-0.52831 -1.16962,-1.5598 -1.836,-1.84533c-0.81824,-0.35059 -1.56729,-0.55255 -2.47867,-1.18401c-0.60104,-0.41643 -1.56412,-0.78638 -2.18533,-1.50666c-0.46521,-0.53938 -1.14368,-1.19474 -2.03336,-1.62801c-0.69604,-0.33897 -1.18326,-0.69437 -1.98398,-1.184c-0.99081,-0.60588 -1.67001,-0.91595 -2.51602,-1.48267c-0.69235,-0.46378 -1.51086,-1.06532 -2.16666,-1.52084c-0.86591,-0.60146 -1.15295,-1.21449 -1.75266,-1.76933c-0.79855,-0.73882 -1.6973,-0.72357 -2.44717,-1.15266c-0.84216,-0.48189 -1.31552,-1.07382 -2.04752,-1.8045c-0.50577,-0.50488 -1.23666,-1.23667 -1.75266,-1.75267c-0.83334,-0.83334 -1.33612,-1.41524 -2.16666,-2c-0.64209,-0.45208 -1.26657,-0.71936 -2.23203,-1.48267c-0.59918,-0.47374 -1.09229,-0.99197 -2.08047,-1.4965c-0.80319,-0.41007 -1.56339,-0.74554 -2.32083,-1.10484c-0.86539,-0.4105 -1.39551,-1.12056 -2,-1.716c-0.69485,-0.68444 -1.42029,-1.05189 -2.36667,-1.36666c-0.67526,-0.2246 -1.39572,-0.57407 -2.20801,-1.244c-0.84467,-0.69665 -1.27798,-1.24203 -1.79999,-1.764c-0.80396,-0.80389 -1.28467,-1.36237 -2.14667,-1.92516c-0.65103,-0.42505 -1.68567,-0.68761 -2.37418,-0.95284c-0.77066,-0.29687 -1.63522,-1.11762 -2.07251,-1.43134c-0.72769,-0.52206 -1.48743,-1.00199 -2.26132,-1.63067c-0.68338,-0.55515 -1.31812,-1.40636 -2.13733,-1.71867c-0.7941,-0.30273 -1.81519,-0.1537 -2.38669,-0.77733c-0.67239,-0.7337 -0.76068,-1.7603 -1.41864,-2.18934c-0.74625,-0.4866 -1.5423,-0.6673 -2.26001,-1c-0.97504,-0.45199 -1.80998,-0.92589 -2.56801,-1.284c-0.7562,-0.35725 -1.26421,-1.26031 -1.7,-1.89516c-0.55603,-0.81001 -1.45467,-0.93066 -2.064,-1.6315c-0.63762,-0.73338 -1.0302,-1.26523 -1.836,-1.82533c-0.67616,-0.47 -1.19331,-1.14211 -2.10001,-1.564c-0.79433,-0.36961 -1.49976,-1.00024 -2,-1.5c-0.701,-0.70034 -1.23734,-1.23073 -2.15266,-1.8c-0.68069,-0.42334 -1.47829,-0.88169 -2.04283,-1.4c-0.73717,-0.67679 -1.48358,-1.28058 -2.11917,-1.7c-0.86977,-0.57395 -1.09454,-1.26514 -1.62134,-2c-0.56219,-0.78425 -1.17363,-1.23912 -2.04799,-1.8c-0.6718,-0.43094 -1.51811,-0.87247 -2.10535,-1.4c-0.74207,-0.66662 -1.41019,-1.40048 -1.91066,-1.9c-0.70067,-0.69934 -1.37624,-1.24688 -2.14816,-1.44733c-1.00841,-0.26187 -0.92262,-1.00761 -1.43716,-1.76733c-0.45178,-0.66705 -1.58005,-0.75114 -2.304,-1.26c-0.71533,-0.5028 -1.04953,-1.26753 -1.77734,-1.85867c-0.69667,-0.56585 -1.43753,-0.83439 -2.31599,-1.08267c-0.7881,-0.22274 -1.17172,-0.77463 -1.53816,-1.56317c-0.36021,-0.77514 -1.45618,-1.09938 -2,-1.52083c-0.57196,-0.44326 -1.65274,-0.67197 -2.40851,-1.08267c-0.7995,-0.43447 -1.41989,-0.71129 -2.32784,-1.03167c-0.80797,-0.2851 -1.34502,-1.14516 -2.22133,-1.64283c-0.67287,-0.38213 -1.48456,-0.81649 -2.3215,-1.19017c-0.77216,-0.34475 -1.63824,-0.53326 -2.34283,-1.10533c-0.61845,-0.50214 -1.17395,-1.10315 -1.76782,-1.798c-0.48761,-0.57052 -1.54129,-0.79922 -2.25601,-1.316c-0.61494,-0.44464 -0.80251,-1.49635 -1.308,-2.22267c-0.4592,-0.6598 -1.46783,-0.67023 -2.05066,-1.18533c-0.5878,-0.5195 -0.89214,-1.3741 -1.58534,-1.98933c-0.6584,-0.58435 -1.342,-1.06371 -2.09467,-1.38333c-0.90759,-0.38541 -0.81516,-1.04423 -1.37999,-1.76733c-0.52336,-0.67 -1.84068,-0.00293 -2.58134,-0.452c-0.77177,-0.46793 -1.09344,-1.24509 -1.77617,-1.93317c-0.48695,-0.49076 -1.57394,-0.66246 -2.35582,-0.98417c-0.75409,-0.31028 -1.50989,-0.78048 -2.40134,-0.91733c-0.91579,-0.14058 -1.5,-0.646 -2.364,-1.024l-0.52,-0.69067l-0.71733,-0.28267l-0.91333,-0.08667" id="svg_2" stroke-width="2" stroke="#000" fill="none"/>
  <path t="20814,21190,21190,21206,21206,21345,21361,21361,21391,21416,21439,21480,21488,21497,21513,21528,21535,21560,21560,21693,21708,21743,21744,21759,21759,21783,21799,21799,21807,21823,21855,21864,21871,21887,21919,21919,21927,21927,21951,21967,21991,21999,22023,22023,22039,22055,22095,22111,22127,22127,22135,22135,22151,22159,22167,22167,22175,22183,22183,22199,22207,22207,22207,22223,22223,22231,22231,22239,22239,22247,22247,22255,22264,22264,22271,22280,22287,22297,22297,22303,22312,22312,22320,22327,22336,22343,22351,22359,22360,22367,22367,22375,22376,22383,22383,22391,22399,22407,22408,22415,22415,22423,22431,22439,22439,22447,22455,22456,22456,22464,22464,22481,22481,22481,22497,22497,22497,22503,22504,22512,22512,22520,22520,22520,22527,22527,22528,22535,22536,22543,22544,22552,22559,22576,22576,22583,22591,22607,22607,22615,22623,22624,22631,22631,22639,22647,22655,22664,22671,22672,22672,22680,22681,22688,22688,22697,22704,22712,22727,22727,22735,22736,22743,22751,22752,22759,22760,22767,22775,22776,22783,22791,22791,22799,22799,22815,22815,22823,22824,22824,22831,22831,22839,22863,22863,22863,22871,22872,22880,22881,22888,22897,22897,22904,22904,22912,22919,22920,22927,22936,22944,22944,22952,22952,22960,22960,22967,22968,22976,22983,22983,22984,22992,22999,23000,23008,23008,23008,23015,23016,23024,23024,23024,23031,23032,23040,23040,23048,23056,23080,23080,23080,23088,23088,23104,23112,23120,23136,23137,23144,23144,23151,23160,23160,23167,23176,23176,23183,23184,23192,23192,23192,23199,23208,23208,23215,23216,23224,23224,23240,23247,23256,23264,23272,23288,23328,23328,23336,23352,23367,23376,23400,23432,23432,23456,23464,23472,23481,23498,23512,23536,23560,23560,23568,23739,23828,23828,23843,23873,23962,24046,24046,24061,24061,24061,24061,24083,24088" d="m184,17c-2.78934,0 -3.59528,-0.36138 -4.45833,0.02083c-0.7896,0.34968 -1.34322,0.95979 -2.24167,0.97917c-0.86455,0.01864 -1.4095,0.67006 -2.10133,1.084c-0.79535,0.47587 -1.17448,1.30435 -1.69867,1.916c-0.55388,0.6463 -1.20546,1.05096 -2,1.5c-0.79646,0.45013 -1.26807,1.11223 -1.55267,1.79467c-0.35361,0.84792 -0.90724,1.56683 -0.94733,2.53867c-0.03267,0.79214 -0.3018,1.64344 -0.57466,2.34133c-0.364,0.93097 -0.38814,1.8262 -0.42534,2.62533c-0.04271,0.91765 -0.9391,1.41523 -1,2.3c-0.0618,0.89788 -0.38452,1.49059 -0.916,2.18667c-0.55528,0.72725 -0.60216,1.5059 -0.91733,2.54667c-0.22372,0.7388 -0.16441,1.66667 -0.16667,2.56667c-0.00226,0.89551 -0.63667,1.47379 -0.94284,2.30983c-0.22151,0.60487 -0.05716,1.65416 -0.05716,2.59016c0,0.9 -0.03391,1.80064 0,2.7c0.02859,0.75879 0.21431,1.74876 0.80133,2.43067c0.5795,0.67318 1.52275,0.90123 2.19867,1.56933c0.58565,0.57888 0.84386,1.46406 1.28534,2.2c0.40709,0.67862 1.20973,1.33598 2.036,1.90017c0.65941,0.45026 1.24706,0.73845 1.92599,1.5525c0.5502,0.6597 1.25906,1.43082 1.89134,1.93666c0.72212,0.57774 0.9939,1.32207 1.56667,2.06334c0.41901,0.54227 0.99509,1.52313 1.46133,2.34733c0.35342,0.62476 1.39832,0.93296 1.85866,1.61066c0.50258,0.73988 0.75917,1.56757 0.97467,2.3685c0.23332,0.8672 1.2565,1.11202 1.71466,1.82217c0.45787,0.7097 0.23244,1.73341 0.638,2.49867c0.4483,0.84589 0.31319,1.93331 0.98067,2.53333c0.51503,0.46298 1.47353,0.74301 1.71484,1.5185c0.28146,0.90452 0.7612,1.52698 1.25183,2.29633c0.40671,0.63776 1.31877,1.22842 1.7,1.89349c0.48964,0.85421 0.55183,1.67191 1.10001,2.43684c0.5446,0.75993 1.17859,1.34756 1.99983,1.90033c0.71584,0.48183 0.71213,1.22108 1.25732,2.02034c0.49583,0.7269 1.02939,1.39331 1.34283,2.1c0.38385,0.86543 0.93419,1.61726 1.62134,2.32233c0.50267,0.51579 1.07132,1.04906 1.65717,1.87849c0.54448,0.77086 0.76859,1.42807 1.326,2.39101c0.41539,0.71758 1.24008,1.114 2.04283,1.5715c0.70058,0.39926 1.02991,1.12919 1.34816,1.89384c0.42238,1.01481 0.76418,1.9474 1.18983,2.457c0.67874,0.81258 1.49875,1.13029 2.22934,1.68666c0.72386,0.55125 1.39276,1.28309 1.80266,2c0.44757,0.78278 1.20346,1.17311 1.83984,1.89983c0.59737,0.68217 1.37254,0.94193 1.88567,1.60467c0.53918,0.6964 0.92577,1.49662 1.5425,1.8955c0.92824,0.60036 1.68657,0.79018 2.37866,1.46133c0.63875,0.61944 0.77078,1.56693 1.31483,2.16016c0.6093,0.66438 1.15919,1.28542 1.72383,1.57851c0.98663,0.51215 1.79675,0.82207 2.51067,1.39999c0.65953,0.53389 1.10661,1.28294 1.60268,1.96934c0.51828,0.71715 0.74774,1.53977 1.46933,1.88133c0.96136,0.45506 1.31436,1.19099 2.01466,1.78133c0.72185,0.60851 1.14156,1.32678 1.90001,1.92516c0.60606,0.47816 1.54462,0.81145 2.09866,1.44417c0.56445,0.64459 0.49666,1.80204 1.13466,2.46534c0.52353,0.54428 1.72392,0.45976 2.25601,0.98c0.74236,0.72583 0.88484,1.40657 1.57733,2.35333c0.4521,0.61812 1.03055,1.12268 1.59067,1.97833c0.46112,0.70444 1.35333,0.86963 2.07599,1.355c0.80751,0.54234 1.01286,1.29935 1.65067,2.06401c0.48822,0.58534 1.47025,1.08023 2.15434,1.65083c0.62059,0.51764 1.07869,1.24051 1.7135,1.65182c0.90149,0.58411 1.44682,1.10001 2.14816,1.8c0.7,0.69867 1.31721,1.17355 2.10001,1.52533c0.82022,0.36859 1.46765,1.11197 2.036,1.57468c0.80557,0.65584 1.57271,0.94904 2.3425,1.5c0.64191,0.45943 1.26271,1.30133 1.90683,1.61465c0.87964,0.4279 2.00417,0.56767 2.47868,1.14667c0.49881,0.60864 1.01437,1.52377 1.63599,2.13867c0.52408,0.5184 1.54007,1.1062 2.25067,1.39999c0.74133,0.30649 1.64334,0.65027 2.22849,1.12083c0.90555,0.72824 1.33844,1.32529 1.92535,1.82651c0.77209,0.65936 1.59915,1.09361 2.42883,1.65266c0.6669,0.44937 1.38531,0.79895 2.26666,1.00034c0.93552,0.21376 1.25238,0.90739 1.78534,1.517c0.6929,0.79254 1.39319,1.18921 2.05331,1.87199c0.62518,0.64665 1.03918,1.31076 1.77118,1.91068c0.58502,0.47946 1.62131,0.92592 2.00351,1.5c0.54501,0.81863 1.0708,1.4014 1.71866,2c0.66211,0.61176 1.13687,1.4007 1.75333,1.8c0.92999,0.60239 1.43738,1.03865 2.13599,1.72116c0.67618,0.66058 1.23514,1.04599 2.15784,1.67883c0.75751,0.51956 1.06,1.22713 1.621,1.9785c0.48611,0.65109 1.42551,1.15826 2.03851,1.62151c0.81693,0.61734 1.21503,1.3461 1.86133,1.89999c0.61163,0.52419 1.50937,0.86591 1.91599,1.7c0.36737,0.75359 0.90585,1.24721 1.64801,1.82533c0.62402,0.4861 1.10638,1.25844 1.65735,1.85333c0.59171,0.63889 1.4003,0.86777 2.07333,1.17401c0.87369,0.39754 1.41,0.92836 2.30533,0.94733c0.96445,0.02043 1.44318,0.70992 1.89999,1.5c0.40756,0.70493 0.68866,1.62799 1.2045,2.2c0.65579,0.7272 1.40378,1.12807 2.2955,1.3c0.88971,0.17155 1.31488,0.75522 2.19867,1.00133c0.80042,0.22289 0.84875,1.23184 1.34299,1.97784c0.51315,0.77457 1.28369,0.94882 2.29169,1.02083l0.86215,0.05716l0.8045,0.44284l0.8045,0.44284" id="svg_4" stroke-width="2" stroke="#000" fill="none"/>
  <path t="25439,25617,25617,25624,25625,25625,25634,25649,25649,25649,25649,25657,25657,25657,25665,25665,25672,25680,25680,25687,25704,25719,25719,25728,25736,25743,25752,25752,25759,25767,25767,25775,25776,25783,25791,25799,25799,25807,25807,25808,25815,25815,25823,25824,25831,25831,25831,25847,25855,25856,25863,25863,25871,25871,25880,25880,25887,25897,25897,25911,25918,25927,25927,25927,25934,25935,25950,25951,25959,25959,25959,25966,25967,25982,25983,25983,25991,25991,25999,25999,25999,26007,26007,26014,26015,26015,26023,26023,26023,26030,26031,26039,26039,26039,26046,26047,26055,26055,26063,26063,26063,26071,26071,26080,26080,26080,26087,26087,26102,26103,26111,26111,26118,26119,26127,26127,26134,26135,26143,26143,26150,26151,26159,26159,26166,26175,26175,26182,26191,26198,26199,26207,26214,26223,26223,26230,26239,26239,26246,26255,26255,26263,26271,26271,26280,26280,26287,26287,26287,26297,26297,26303,26318,26319,26327,26342,26366,26367,26382,26399,26399,26407,26423,26423,26430,26439,26440,26455,26456,26456,26463,26471,26471,26480,26510,26511,26511,26526,26527,26527,26534,26543,26550,26559,26566,26575,26590,26614,26615,26623,26639,26639,26646,26656,26656,26678,26687,26696,26703,26711,26718,26727,26734,26743,26758,26766,26775,26782,26783,26791,26798,26814,26823,26846,26855,26870,26879,26887,26897,26903,26919,27028,27028,27028,27048,27049,27059,27079,27224,27224,27257" d="m430,181c0.87201,2.37466 1.43173,2.72231 2.19983,3.32117c0.80435,0.62715 1.27789,1.17729 2.18552,1.62817c0.91602,0.45505 1.63748,0.7509 2.1355,1.11316c0.81897,0.59575 1.56824,1.34924 2.01749,1.88116c0.63031,0.74632 1.25946,1.61108 1.94083,2.01466c0.78519,0.46509 1.44928,1.12915 2.12085,1.60567c0.72568,0.51489 1.30972,1.06439 1.96933,1.63467c0.54178,0.4684 1.76199,0.6178 2.37799,1.15399c0.603,0.52487 1.20816,1.24863 1.65268,1.79668c0.64398,0.79399 1.59525,0.95682 2.21466,1.28667c0.90186,0.48026 1.29538,1.22963 1.98666,1.64799c0.83582,0.50584 1.26401,1.26021 1.71951,1.916c0.60144,0.86589 1.33127,1.34021 1.82648,1.75267c0.81375,0.67781 1.18625,1.42992 1.57135,2.36333c0.31973,0.77492 0.9166,1.39195 1.60217,1.86317c0.69513,0.47778 1.78873,0.73863 2.47916,1.35416c0.62552,0.55766 0.73462,1.53535 1.06134,2.29201c0.39502,0.91489 0.87732,1.46483 1.772,2.04134c0.74881,0.48251 1.22464,1.09465 1.87198,1.63333c0.67804,0.56422 1.16571,1.39626 1.74133,2.09999c0.59338,0.72546 1.39499,0.97308 2.06934,1.40001c0.75067,0.47527 1.36835,1.08499 2.14117,1.85716c0.55374,0.55325 1.34283,1.34282 1.74152,1.7415c0.58047,0.58049 1.40909,1.46207 1.97598,1.96533c0.75958,0.67436 1.4967,0.98582 2.14133,1.52133c0.65198,0.54161 1.01965,1.37677 1.80551,2.09317c0.63562,0.57944 1.29471,0.79193 2.27399,1.326c0.57776,0.31509 1.38388,1.01657 1.92535,1.71632c0.44894,0.58015 1.23929,1.38777 1.72983,1.76851c0.73254,0.56857 1.59601,1.20248 2.22849,1.68983c0.82898,0.63875 1.55737,1.01781 2.12216,1.40616c0.82159,0.56494 1.37885,1.11363 2.23203,1.948c0.54196,0.53001 1.32294,1.18457 2.00266,1.56667c0.56036,0.31499 1.59836,0.74382 2.328,1.23601c0.70813,0.47768 1.10101,1.28894 1.72,1.79466c0.8356,0.68272 1.74847,0.55843 2.71149,0.931c0.59311,0.22946 1.37543,0.96533 1.88367,1.61751c0.61197,0.78529 1.32419,1.06285 2.17352,1.73067c0.55505,0.43642 1.14246,1.16544 1.84732,1.76933c0.78186,0.66986 1.52139,0.98677 2.33334,1.52083c0.68591,0.45117 1.51077,0.7834 2.30533,1.02533c0.78979,0.24049 1.33124,1.03824 2.01068,1.57468c0.71185,0.56204 1.18176,1.21428 1.95062,1.62132c0.75757,0.40105 1.48999,0.87268 2.00989,1.48317c0.5481,0.64359 1.40704,1.09613 2.133,1.591c0.85663,0.58392 1.61194,0.71344 2.35712,1.31516c0.65436,0.52841 1.16199,1.23077 1.92084,1.88934c0.61688,0.53537 1.33557,0.85065 2.3125,1.5c0.56061,0.37259 1.34271,0.98541 1.992,1.41068c0.70111,0.45917 1.35193,1.28915 1.87018,1.87949c0.63171,0.7196 1.52002,0.97769 2.10449,1.51117c0.71973,0.65689 1.55945,1.01178 2.29999,1.42017c0.6745,0.37198 1.30005,1.1785 2,1.87851c0.5,0.5 1.11676,1.32617 1.90002,1.73334c0.74384,0.38669 1.49109,0.73102 2.32147,1.26666c0.677,0.43671 1.68231,0.89261 2.27405,1.19998c0.7522,0.39072 1.5575,1.1524 2.40448,1.53336c0.65533,0.29474 1.68726,0.16013 2.48535,0.73734c0.57782,0.41791 1.1228,1.02521 1.91199,1.828c0.56592,0.57565 0.9068,1.20108 1.58185,2.05966c0.46442,0.5907 1.63007,0.37442 2.31628,0.89883c0.75024,0.57336 1.10199,1.31247 1.62054,1.92816c0.56049,0.66547 0.78741,1.41577 1.48401,2.11465c0.69885,0.70111 1.15723,1.24585 1.89996,1.89551c0.66449,0.58118 1.47711,0.828 2.29999,1.27917c0.78015,0.42776 1.75018,0.35226 2.37469,0.85065c0.60797,0.48517 1.46277,0.64005 2.05066,1.14935c0.64862,0.56192 0.89038,1.37604 1.58533,1.98932c0.66718,0.58878 1.73804,0.61221 2.22266,1.436c0.38403,0.65277 1.12115,0.91248 1.73071,1.61066c0.58197,0.6666 0.42706,1.79492 0.93597,2.38934c0.50635,0.59146 1.17004,1.1095 1.58398,1.80133c0.47589,0.79535 1.30536,1.17334 1.91602,1.69867c0.61066,0.52533 1.44141,0.89493 2.09985,1.60016c0.58167,0.62302 0.86407,1.55124 0.89563,2.24716c0.04608,1.01578 0.28851,1.85269 0.83783,2.65268l0.21936,0.70001l0.44733,0.79999" id="svg_5" stroke-width="2" stroke="#000" fill="none"/>
  <path t="28335,28463,28478,28478,28478,28478,28498,28498,28504,28504,28514,28514,28520,28520,28520,28529,28529,28536,28536,28544,28544,28544,28560,28560,28560,28568,28568,28576,28577,28584,28584,28600,28608,28608,28624,28624,28633,28640,28640,28656,28666,28666,28672,28672,28688,28688,28699,28714,28714,28720,28720,28720,28729,28736,28736,28745,28745,28752,28760,28768,28768,28776,28776,28792,28800,28800,28800,28809,28809,28824,28833,28833,28840,28849,28849,28866,28866,28866,28872,28872,28873,28883,28883,28883,28888,28888,28899,28899,28899,28904,28905,28905,28914,28920,28920,28930,28930,28930,28936,28944,28944,28951,28960,28960,28967,28967,28976,28976,28983,28983,28984,28992,28992,29015,29024,29024,29031,29031,29040,29047,29047,29056,29056,29064,29064,29071,29072,29080,29080,29081,29088,29088,29097,29104,29104,29112,29112,29112,29120,29120,29127,29128,29136,29136,29144,29151,29160,29175,29175,29191,29191,29199,29200,29208,29216,29224,29231,29231,29240,29247,29247,29256,29256,29264,29264,29271,29281,29281,29303,29312,29312,29327,29335,29344,29351,29360,29367,29376,29376,29383,29392,29392,29399,29407,29408,29423,29423,29431,29431,29431,29439,29440,29447,29447,29456,29457,29464,29464,29464,29464,29472,29472,29472,29480,29487,29488,29512,29512,29519,29519,29527,29535,29535,29543,29551,29559,29567,29567,29576,29583,29583,29583,29591,29592,29599,29599,29615,29624,29624,29639,29640,29647,29656,29657,29664,29687,29703,29703,29712,29720,29727,29728,29735,29735,29743,29751,29751,29759,29767,29775,29799,29799,29823,29831,29847,29864,29880,29880,29888,29897,29912,29951,29975,29983,29999,30024,30024,30047,30064,30071,30080,30080,30097,30103,30112,30127,30128,30128,30135,30135,30144,30151,30151,30167,30176,30183,30191,30199,30215,30215,30231,30239,30263,30271,30287,30297,30304,30312,30319,30328,30335,30335,30344,30344,30367,30376,30376,30383,30383,30392,30399,30399,30408,30415,30431,30431,30440,30447,30455,30471,30471,30472,30480,30481,30488,30488,30511,30512,30520,30520,30528,30535,30535,30544,30544,30551,30551,30552,30560,30560,30567,30576,30576,30583,30584,30592,30599,30600,30608,30615,30624" d="m392,247c1.81467,0.436 2.61163,1.03902 3.05066,1.60001c0.59448,0.75963 1.35953,1.09766 2.14917,1.5c0.78052,0.39769 1.72644,0.80206 2.25851,1.39999c0.63055,0.7086 0.8475,1.43384 1.67899,1.98267c0.55389,0.36562 1.49588,0.83926 2.36267,1.18401c0.92456,0.36771 1.72522,0.88914 2.10001,1.55467c0.42953,0.76276 0.74988,1.6264 1.21432,2.12149c0.84,0.89539 1.70486,1.12265 2.18033,1.40982c1.08392,0.65466 1.33777,1.35037 2.10535,2.00467c0.61761,0.52649 1.20776,1.19547 1.78534,1.67468c0.81458,0.67587 1.80493,0.84338 2.28265,1.36932c0.61591,0.67807 1.39462,0.93936 2.19601,1.59866c0.78439,0.64532 1.23599,1.20001 1.93597,1.89999c0.70001,0.70001 1.18207,1.21844 1.90134,1.90002c0.54269,0.51425 1.35327,0.89917 2.08884,1.5c0.74466,0.60825 1.13208,1.43292 1.7515,1.79999c0.92993,0.55106 1.76193,0.87506 2.30118,1.20001c0.92642,0.55829 1.65692,1.30023 2.15717,1.79999c0.69968,0.69901 1.32492,1.15454 2.20001,1.55267c0.73495,0.33438 1.44467,0.98715 2.12534,1.33667c0.97983,0.50311 1.86292,0.4845 2.57465,1.05731c0.73013,0.58765 0.89078,1.48276 1.48535,1.98401c0.81308,0.68549 1.64047,0.44952 2.61465,0.59018c1.0072,0.14545 1.66675,0.56003 2.39465,1.27466c0.57129,0.56088 1.37674,0.65637 2.30551,1.14734c0.65436,0.34592 1.22266,0.96527 2.22116,1.53564c0.51532,0.29437 1.35846,0.59784 2.41202,1.02151c0.71307,0.28674 1.55045,0.68729 2.36667,0.87885c0.79099,0.18564 1.82278,0.42038 2.39999,0.83099c0.83582,0.5946 1.59235,1.2803 2.18933,1.65417c0.71667,0.44882 1.57141,1.03946 2.21066,1.63599c0.53894,0.50293 1.54251,1.10001 2.23999,1.39999c0.69751,0.30002 1.42163,0.84958 1.98151,1.70001c0.42355,0.64337 1.00058,1.3587 1.94516,1.73334c0.78998,0.31329 1.69034,0.29352 2.45868,0.77731c0.72003,0.4534 1.44897,0.82428 2.20801,1.556c0.60788,0.58603 0.99054,1.38342 1.81482,1.72351c0.74493,0.30734 1.56799,0.83929 2.35184,1.27649c0.65189,0.36359 1.30368,1.12967 1.79999,1.63333c0.70529,0.7157 1.2641,1.5444 1.70001,2.17917c0.55621,0.80997 1.31479,0.99164 2.26666,1.0235c0.71317,0.02386 1.8035,0.28677 2.21249,1.01819c0.43259,0.77359 0.92252,1.30576 1.53818,1.86316c0.78113,0.70721 1.0874,1.52133 1.88266,2.05466c0.82932,0.55615 1.47031,0.96356 2.08667,1.54401c0.54211,0.51053 1.16943,1.03418 2.19467,1.34933c0.75989,0.23358 1.84363,0.4841 2.29782,1.168c0.49115,0.73953 1.31976,1.04242 2.03552,1.57468c0.59958,0.44586 1.39413,0.85214 2.08533,1.52533c0.60788,0.59204 1.17154,1.24106 1.78534,1.69998c0.88593,0.66241 1.4371,1.09647 2.12933,1.76401c0.60852,0.58682 1.49045,0.95157 2.08533,1.53601c0.60529,0.59467 1.2218,1.42682 2.00034,1.77866c0.66968,0.30264 1.68167,0.3645 2.37881,0.64218c1.04767,0.41727 1.32727,1.22888 1.9675,1.8685c0.70892,0.70825 1.6026,0.46552 2.448,0.96332c0.7565,0.44547 1.53058,0.56351 2.12,1.258c0.57288,0.67505 1.27905,1.17282 1.93268,1.742c0.5965,0.51947 1.35956,0.9971 2.05267,1.64734c0.50507,0.47382 1.37286,0.79538 2.20001,1.28534c0.68085,0.40329 1.18805,1.12683 1.90015,1.81467c0.5271,0.50916 1.3783,1.11273 2.11053,1.5c0.78223,0.4137 1.58942,0.79971 2.38928,1.19998c0.79883,0.39975 1.60925,0.73291 2.37854,1.30017c0.65399,0.48224 1.1795,1.41611 1.56317,1.89984c0.71423,0.90054 1.46796,1.24771 2.24365,1.62534c0.53186,0.25891 1.54761,0.83508 2.17297,1.37466c0.57373,0.49506 1.39923,1.37051 2.04169,2c0.51569,0.50528 1.32294,1.09735 2,1.5c0.83527,0.49673 1.44458,1.04587 2.29999,1.44733c0.8703,0.40848 1.56091,0.79959 2.08936,1.45267c0.60175,0.74374 1.03455,1.41391 1.81067,1.88535c0.67633,0.41083 1.17639,1.18924 2.1333,1.71466c0.64148,0.35223 1.50275,0.42078 2.30249,1.10001c0.57861,0.49139 1.2027,1.34015 1.88153,1.61465c0.93579,0.37842 1.62726,0.90048 2.11865,1.43466c0.62012,0.6741 1.54352,0.75406 2.4787,0.85202c0.89569,0.09381 1.30847,0.83987 1.91064,1.56265c0.48199,0.57849 1.63885,0.35666 2.32202,0.49316c0.92474,0.18475 1.81158,0.67868 2.65265,1.1095c0.66431,0.3403 1.23798,1.24149 1.88531,1.548c0.87897,0.41617 1.97021,0.1358 2.70404,0.32135c0.87189,0.22046 1.6076,0.92126 2.51062,0.96399c0.89905,0.04251 1.70001,0 2.60004,0c0.89996,0 1.83472,-0.05292 2.59998,0.35266c0.84589,0.4483 1.5,0.64667 2.40002,0.64734c0.89996,0.00067 1.79999,0 2.70001,0c0.89996,0 1.79999,0 2.69995,0c0.90002,0 1.73853,0.20944 2.60004,-0.05716c0.86615,-0.26804 1.13092,-1.29544 1.58398,-2.14285c0.34857,-0.65198 0.75848,-1.50577 1.216,-2.29999c0.40704,-0.70657 0.64575,-1.67545 0.93597,-2.336c0.34113,-0.77643 0.8844,-1.74838 1.12805,-2.328c0.39288,-0.93451 0.6781,-1.78979 1.08331,-2.53601c0.41327,-0.76111 0.35266,-1.69998 0.35266,-2.59998c0,-0.90002 0,-1.80002 0,-2.70001c0,-0.79999 0,-1.70001 0,-2.60001c0,-0.89999 0,-1.79999 0,-2.69998c0,-0.90002 0.11078,-1.80685 0,-2.70001c-0.11151,-0.89923 -0.95728,-1.28357 -1,-2.16666c-0.04028,-0.83237 0.16803,-1.84732 -0.08533,-2.63202c-0.25592,-0.79245 -0.73413,-1.71326 -0.97601,-2.37598c-0.36609,-1.00314 -1.23413,-1.28326 -1.76935,-2.02536c-0.57397,-0.79581 -0.9198,-1.45798 -1.46478,-2.09998c-0.64069,-0.75473 -0.92511,-1.66672 -1.27917,-2.30002c-0.48151,-0.86127 -0.34363,-1.80411 -0.42987,-2.7045c-0.08362,-0.87329 -0.42542,-1.53442 -0.79681,-2.29681c-0.48621,-0.99808 -0.78101,-1.55609 -1.11603,-2.51468c-0.26666,-0.76303 -0.8219,-1.50925 -1.37732,-2.23132c-0.57086,-0.74219 -0.63715,-1.53989 -0.716,-2.47803c-0.08545,-1.01642 -0.50616,-1.68631 -1.31049,-2.27499c-0.63934,-0.46796 -1.39832,-1.21771 -1.56897,-1.905c-0.18182,-0.73209 -0.23999,-1.909 -0.72052,-2.57333c-0.50134,-0.69315 -1.29938,-1.40887 -1.38483,-2.1785c-0.09882,-0.89008 0.04602,-1.82877 -0.44049,-2.60684c-0.45068,-0.72076 -1.12805,-1.23599 -1.56403,-2.13599l-0.35266,-0.79999l-0.526,-0.79984" id="svg_6" stroke-width="2" stroke="#000" fill="none"/>
  <path t="37597,37648,37648,37656,37667,37667,37682,37689,37689,37689,37698,37698,37698,37705,37720,37720,37728,37728,37736,37736,37736,37744,37744,37752,37760,37768,37768,37776,37776,37792,37808,37808,37824,37824,37832,37840,37848,37848,37864,37872,37880,37881,37888,37888,37897,37904,37914,37914,37920,37920,37928,37944,37952,37952,37960,37960,37976,37976,37984,37984,37991,37991,37999,37999,38007,38015,38023,38031,38031,38047,38047,38055,38063,38071,38087,38087,38087,38103,38103,38119,38119,38127,38136,38160,38160,38168,38168,38184,38192,38199,38208,38265,38282,38283,38300,38487,38503,38529,38530,38530,38530,38535,38535,38535,38535,38536,38536,38543,38543,38543,38543,38551,38551,38551,38552,38559,38559,38559,38559,38567,38567,38567,38567,38576,38576,38576,38576,38584,38584,38592,38592,38592,38592,38600,38600,38600,38608,38608,38608,38616,38616,38624,38624,38632,38632,38648,38648,38656,38664,38664,38672,38680,38688,38688,38697,38697,38704,38714,38714,38720,38728,38728,38736,38736,38744,38744,38744,38752,38760,38761,38768,38768,38776,38776,38784,38784,38784,38792,38792,38799,38799,38807,38816,38824,38824,38824,38831,38832,38840,38840,38847,38848,38856,38856,38864,38864,38872,38872,38888,38888,38904,38904,38904,38920,38928,39089,39089,39089,39104,39104,39104,39104,39104,39131,39132,39132,39132,39137,39138,39138,39138,39139,39148,39148,39148,39149,39153,39153,39153,39165,39166,39166,39166,39169,39169,39169,39170,39181,39181,39181,39184,39185,39198,39198,39200,39201,39201,39209,39209,39209,39216,39216,39217,39217,39225,39225,39225,39232,39232,39241,39241,39241,39241,39248,39248,39249,39257,39257,39264,39265,39265,39273,39273,39273,39289,39289,39289,39304,39304,39304,39304,39320,39320,39320,39328,39328,39335,39336,39344,39344,39351,39352,39360,39360,39367,39368,39376,39376,39376,39383,39384,39384,39392,39392,39400,39409,39474,39497,39656,39664,39664,39664,39672,39673,39673,39674,39674,39681,39682,39682,39682,39683,39688,39688,39688,39688,39688,39697,39698,39698,39698,39704,39705,39705,39705,39705,39706,39706,39714,39715,39715,39715,39715,39721,39721,39721,39722,39722,39722,39731,39731,39731,39731,39731,39737,39737,39738,39738,39738,39738,39747,39748,39748,39761,39761,39761,39761,39768,39768,39768,39776,39777,39784,39784,39792,39793,39800,39808,39809,39816,39816,39831,39839,39840,39848,39864,39864,39881,39881,39889,39904,39905,39914,39921,39931,39931,39937,39937,39947,40092,40092,40107,40107,40107,40131,40132,40132,40132,40137,40137,40139,40139,40140,40140,40147,40148,40148,40148,40153,40154,40154,40164,40164,40164,40165,40169,40169,40181,40181,40182,40184,40185,40185,40186,40198,40198,40201,40201,40201,40214,40215,40215,40217,40218,40218,40231,40231,40234,40234,40234,40235,40248,40248,40248,40251,40251,40251,40264,40265,40265,40272,40272,40272,40273,40281,40281,40281,40288,40288,40296,40297,40297,40304,40304,40313,40314,40328,40328,40336,40336,40343,40351,40352,40359,40360,40368,40376,40377,40377,40384,40392,40393,40400,40408,40432,40432,40448,40448,40457,40464,40481,40497,40505" d="m317,109c-0.86133,2.364 -1.56104,2.74143 -2.36401,3.4c-0.67606,0.55447 -1.22614,1.18353 -2.04666,1.58533c-0.74744,0.366 -1.43225,0.87944 -1.99384,1.42366c-0.80536,0.78044 -1.34836,1.41261 -1.93832,1.87667c-0.85211,0.67029 -1.75351,0.94115 -2.29315,1.325c-0.84213,0.59902 -1.61069,0.94888 -2.34268,1.71067c-0.44409,0.46218 -0.82693,1.28843 -1.67401,1.917c-0.64371,0.47767 -1.59918,0.61926 -2.54733,0.763c-0.9162,0.1389 -1.40231,0.66111 -2.284,1.19733c-0.66754,0.40599 -1.69006,0.5624 -2.51599,0.96799c-0.66998,0.32902 -1.24002,1.23711 -1.88535,1.548c-0.86938,0.41884 -1.71704,0.72163 -2.55731,1.164c-0.63864,0.3362 -1.37485,0.62734 -1.91452,1.42133c-0.53424,0.78601 -1.14282,1.19998 -1.84283,1.89999c-0.59998,0.59999 -1.32693,1.12489 -1.71597,2.00134c-0.40463,0.91159 -0.33121,1.77446 -1.08401,2.46533c-0.58737,0.53903 -1.59189,0.79381 -1.91599,1.53467c-0.39972,0.91374 -0.341,1.76393 -1.08401,2.46533c-0.60132,0.56764 -1.37021,1.06616 -2,1.35416c-0.90527,0.41396 -0.92755,1.38222 -1.35718,2.2265c-0.35205,0.69186 -0.85062,1.46844 -1.34283,2.04283c-0.68701,0.8017 -1.6376,1.03577 -2.17883,1.80968c-0.49451,0.70712 -1.35812,0.67007 -1.95181,1.46815c-0.45273,0.6086 -0.76309,1.43384 -1.22202,2.13651c-0.51059,0.7818 -1.28162,1.37546 -1.94733,1.81633c-0.52673,0.34882 -1.23718,1.13554 -1.6955,1.82651c-0.5972,0.90038 -1.19327,1.37511 -1.78366,2.15266c-0.56052,0.73824 -0.67679,1.66643 -1.2825,2.2c-0.65839,0.57997 -1.75266,0.84058 -2.12402,1.60001c-0.39804,0.81396 -0.73734,1.44975 -1.09348,2.22083c-0.36887,0.79866 -0.2887,1.69466 -0.82217,2.27917c-0.65686,0.7197 -1.15359,1.49857 -1.16266,1.47066c-0.32446,-1.0006 0.31219,-1.65381 0.54733,-2.35399c0.2674,-0.79628 0.90524,-2.09018 1.18082,-2.53751c0.57489,-0.93318 0.9072,-1.38454 1.59583,-2.24583c0.33188,-0.4151 1.28702,-1.48851 1.87067,-1.99333c0.49219,-0.4257 1.2291,-0.86026 2.19067,-1.46167c0.81412,-0.50919 1.37231,-0.90263 1.89468,-1.36499c0.79303,-0.70193 1.45853,-1.54822 1.94531,-2.08801c0.49719,-0.5513 1.37418,-1.31398 2.03952,-1.77266c0.67142,-0.46284 1.41165,-0.82338 2.19916,-1.61934c0.70731,-0.71492 0.90927,-1.34232 1.38135,-2.064c0.54932,-0.83975 1.37,-1.37563 2.11865,-2.10266c0.42447,-0.41222 0.99564,-1.19081 1.39999,-1.71851c0.79156,-1.03305 1.172,-1.51512 1.80002,-2.1015c0.76743,-0.71654 1.60437,-1.18651 2.31467,-1.64532c0.74475,-0.48106 1.30576,-1.07288 1.78531,-1.854c0.4194,-0.68315 0.95575,-1.64609 1.58536,-2.146c0.71783,-0.56996 1.55215,-0.78542 2.353,-1.50134c0.68491,-0.61229 0.63892,-1.53722 1.2825,-2.17917c0.6463,-0.64465 1.69156,-0.59705 2.45831,-1.04166c0.83905,-0.48656 1.03223,-1.32921 1.54169,-1.97917c0.60168,-0.76762 1.27917,-1.29996 1.87915,-1.9c0.70004,-0.70013 1.2236,-1.21976 1.80133,-2.084c0.45352,-0.67843 1.10294,-1.51788 1.62402,-1.88c0.6701,-0.4657 1.55981,-1.01441 2.27466,-1.73617c0.51572,-0.52072 1.08917,-1.39023 1.5,-2.0745c0.4874,-0.81179 1.03329,-1.45333 1.72131,-2.14667c0.50208,-0.50595 1.04349,-1.00895 1.79333,-1.79466c0.595,-0.62346 1.1481,-1.33794 1.52817,-2.23134c0.36862,-0.86645 0.73053,-1.5705 1.69052,-1.81933c0.67313,-0.17448 1.57358,-0.27444 2.30234,-1.15467c0.47922,-0.57883 0.52502,-1.70045 0.97498,-2.268c0.61703,-0.7783 1.27365,-1.21223 2.04202,-1.71516c0.69373,-0.45408 1.47449,-1.17107 1.93665,-1.87017c0.52524,-0.7945 1.01712,-1.45694 1.73218,-1.92533c0.67395,-0.44145 1.68225,-0.89265 2.27399,-1.2c0.75223,-0.39072 1.58905,-1.08884 2.40451,-1.53333c0.78806,-0.42956 0.64771,-1.22979 0.11334,-0.90933c-0.95575,0.57317 -1.09897,1.29369 -1.71466,1.976c-0.75607,0.83788 -1.48242,1.17146 -2.23203,2.10001c-0.50507,0.62564 -0.69382,1.23247 -1.09082,1.77567c-0.68436,0.93639 -1.40302,1.50322 -2.18784,2.08033c-0.40375,0.2969 -1.25043,0.83076 -2.388,1.644c-0.65341,0.46712 -1.18234,0.93163 -1.88651,1.505c-0.80289,0.65378 -1.42493,1.03506 -2.07065,1.41434c-0.96548,0.56709 -1.51169,0.8923 -2.35352,1.494c-0.59921,0.42828 -1.49283,1.17037 -2.08484,1.7015c-0.58731,0.52693 -1.12311,1.0714 -1.93784,1.7185c-0.68552,0.54446 -1.55453,0.95596 -2.28131,1.53467c-0.62891,0.50079 -1.15411,1.47582 -1.52133,1.97334c-0.62753,0.85019 -1.41443,1.31031 -1.96533,1.79466c-0.849,0.74641 -1.17398,1.31361 -1.85583,2.02534c-0.67603,0.70566 -1.49646,1.19072 -2.022,1.50533c-0.75958,0.45473 -1.56842,1.2579 -2,2c-0.4202,0.72255 -0.98758,1.55383 -1.54169,1.97917c-0.94904,0.7285 -1.58713,1.16949 -2.17917,1.73149c-0.40552,0.38493 -1.18842,1.2002 -1.79999,1.76851c-0.58911,0.54745 -1.43051,1.09196 -2.164,1.64616c-0.85498,0.64601 -1.14679,1.27068 -1.80533,1.89067c-0.72827,0.68567 -1.56845,0.9736 -2.13968,1.17949c-1.1832,0.42645 -1.80341,0.5677 -2.655,0.94051c-1.09357,0.47873 -1.78958,1.00865 -2.21515,1.38483c-0.63611,0.56227 -1.41949,1.37785 -2,1.95834c-0.53552,0.53551 -1.23093,1.30948 -1.90485,1.81949c-0.73178,0.5538 -1.4873,0.86681 -2.36334,1.50134c-0.65561,0.47488 -1.44858,0.94423 -2.09998,1.45717c-0.83044,0.6539 -1.17291,1.52539 -1.974,2.00017c-0.62003,0.36748 -1.69299,0.65639 -2.17868,1.28433c-0.41592,0.53775 -0.98401,1.35832 -1.5,1.95833c-0.51599,0.60001 -1.17441,1.64075 -1.6955,2.28566c-0.53528,0.66249 -1.3522,1.07462 -1.87918,1.73967c-0.49622,0.62622 -0.22107,1.36838 0.289,0.48883c0.35098,-0.60522 0.69547,-1.33626 1.28568,-2.51416c0.20029,-0.39969 0.59589,-1.19762 1,-1.97917c0.39597,-0.76576 0.99164,-1.85915 1.40134,-2.53683c0.40121,-0.66365 0.82858,-1.31351 1.284,-1.96799c0.72638,-1.04391 1.26563,-1.76546 1.54001,-2.13068c0.5459,-0.72658 1.07321,-1.43066 1.85382,-2.34283c0.47128,-0.5507 0.974,-1.0732 1.54501,-1.605c1.026,-0.95552 1.46155,-1.30121 2.38651,-2.10001c0.49088,-0.42392 0.99225,-0.85501 1.48798,-1.2975c0.97113,-0.86687 1.84113,-1.70049 2.21567,-2.097c0.67786,-0.71765 1.23163,-1.41206 1.78201,-2.034c0.81891,-0.92534 1.46982,-1.51263 1.81351,-1.80899c0.70459,-0.60753 1.44443,-1.19705 1.8075,-1.5c1.06863,-0.89169 1.73737,-1.50148 2.38266,-2.14167c0.32916,-0.32655 0.99588,-1.01859 2.021,-2.20084c0.36462,-0.4205 0.72818,-0.85387 1.43735,-1.73666c0.34705,-0.432 1.01212,-1.24971 1.77716,-2.35651c0.40656,-0.58818 0.85776,-1.35738 1.2645,-2.33099c0.32492,-0.77779 0.4726,-1.35664 0.88535,-2.14934c0.53775,-1.03275 1.13095,-1.64994 1.63065,-2.28266c0.61929,-0.78415 0.89954,-1.42295 1.58401,-2.37984c0.45926,-0.64203 1.1044,-1.21712 1.69998,-1.8215c0.70526,-0.71569 1.25082,-1.33944 1.67917,-2.2c0.4035,-0.81061 0.43335,-1.65717 0.95685,-2.4c0.55573,-0.78856 1.12006,-1.34708 1.58484,-2.1c0.46713,-0.75673 1.22458,-1.01595 2.0925,-1.7c0.5694,-0.44878 0.80511,-1.3489 1.172,-2.28267c0.26776,-0.68151 1.09897,-1.31103 1.69998,-1.95333c0.55096,-0.58881 1.3204,-1.08823 1.77185,-1.88517c0.42245,-0.74575 0.46347,-2.51283 1.23215,-2.2175c0.47806,0.18366 0.02454,1.55492 -0.03098,2.08033c-0.09149,0.86579 -0.50906,2.07323 -0.85168,2.67967c-0.3757,0.66499 -0.87335,1.35426 -1.44,2.112c-0.62732,0.83885 -0.96832,1.27042 -1.66666,2.14583c-0.3475,0.43562 -1.02524,1.27325 -1.66666,2.02084c-0.55685,0.64904 -1.28818,1.4409 -1.72433,1.8865c-0.80261,0.81998 -1.42407,1.41051 -2.009,2.07067c-0.61621,0.69547 -1.19724,1.48974 -1.57916,2.022c-0.53799,0.74974 -1.11948,1.5671 -1.64618,2.13551c-0.67438,0.72779 -1.25323,1.20394 -1.72198,1.90417c-0.71695,1.07098 -0.90103,1.7801 -1.13184,2.46033c-0.32739,0.96487 -0.66495,2.00773 -1.15683,2.62483c-0.61853,0.77599 -1.20004,1.23197 -1.76852,1.80051c-0.79538,0.79545 -1.3989,1.38278 -1.75949,1.79549c-0.8486,0.97122 -1.21182,1.5937 -1.63467,2.4c-0.41568,0.79264 -0.79871,1.64703 -1.53467,2.23334c-0.62216,0.49566 -1.47665,0.78889 -1.98398,1.13599c-1.05453,0.72148 -1.43607,1.2905 -2.07819,2.02533c-0.59476,0.68063 -1.2081,1.1904 -2.00449,1.75351c-0.80383,0.56836 -1.41742,1.09149 -2.05716,1.7135c-0.71713,0.69724 -1.23257,1.21436 -1.74686,1.76366c-0.50705,0.5416 -1.34195,1.58778 -1.63348,2.313c-0.31415,0.78145 -0.73941,1.56865 -1.34784,2.08701c-0.80331,0.6844 -1.30331,1.39038 -1.61334,1.976c-0.52191,0.98582 -0.89941,1.7993 -1.52249,2.37717c-0.60623,0.56223 -1.45313,1.11479 -1.76151,1.90683c-0.36298,0.93234 -0.57529,1.64973 -0.91733,2.59384c-0.30634,0.84552 -0.84369,1.38049 -1.2955,2.17349c-0.38449,0.6748 -0.59314,1.77196 -1.03784,2.51401c-0.43054,0.7184 -1.16223,1.31445 -1.60532,2.19733c-0.40573,0.80841 -0.8894,1.4086 -1.05685,2.336c-0.14609,0.80905 -0.45151,1.61778 -1.00449,2.3c-0.672,0.82904 -1.11017,1.4518 -1.64734,2.05267c-0.51157,0.57225 -0.85266,1.44733 -1.2955,2.24733l-0.05849,0.89999" id="svg_7" stroke-width="20" stroke="#fff" fill="none"/>
  <path t="41693,41760,41761,41762,41762,41762,41762,41762,41762,41762,41785,41785,41785,41796,41796,41800,41800,41800,41800,41808,41808,41808,41815,41816,41816,41824,41824,41824,41824,41831,41832,41841,41847,41848,41856,41856,41856,41863,41864,41872,41872,41880,41880,41897,41897,41897,41904,41904,41914,41914,41920,41920,41920,41928,41928,41928,41928,41936,41936,41936,41944,41944,41952,41952,41952,41960,41960,41967,41967,41983,41983,41999,41999,41999,42007,42007,42015,42023,42024,42031,42031,42040,42047,42055,42063,42071,42071,42079,42080,42087,42087,42097,42104,42104,42114,42114,42128,42144,42144,42152,42152,42160,42168,42176,42176,42184,42184,42208,42208,42216,42389,42389,42389,42389,42404,42404,42404,42424,42424,42425,42425,42425,42431,42431,42431,42431,42431,42439,42439,42439,42439,42449,42449,42449,42455,42455,42455,42455,42465,42465,42465,42465,42471,42471,42482,42482,42482,42488,42488,42504,42504,42504,42504,42515,42515,42515,42520,42520,42520,42532,42532,42532,42536,42536,42536,42545,42545,42545,42552,42552,42552,42560,42561,42561,42568,42568,42568,42576,42576,42576,42576,42584,42584,42584,42592,42592,42592,42600,42600,42600,42608,42608,42608,42608,42608,42615,42615,42615,42616,42624,42624,42624,42624,42631,42632,42632,42632,42632,42639,42639,42639,42647,42648,42648,42665,42665,42671,42696,42696,42713,42713,42735,42751,42759,42775,42775,42893,42893,42893,42893,42893,42909,42909,42909,42929,42929,42929,42929,42935,42935,42935,42936,42936,42944,42945,42945,42945,42951,42951,42952,42959,42959,42959,42968,42969,42975,42975,42976,42983,42983,42984,42991,42991,42992,42999,42999,42999,43008,43008,43016,43016,43016,43024,43024,43025,43032,43032,43032,43032,43040,43040,43049,43049,43049,43050,43056,43056,43057,43065,43066,43072,43072,43073,43081,43082,43082,43087,43087,43088,43098,43098,43098,43103,43103,43104,43114,43114,43119,43119,43128,43129,43129,43143,43151,43159,43167,43167,43175,43175,43183,43191,43200,43209,43210,43216,43225,43225,43232,43232,43241,43404,43404,43420,43420,43420,43420,43442,43442,43442,43442,43443,43443,43448,43448,43448,43448,43449,43449,43449,43449,43456,43456,43456,43456,43457,43464,43464,43464,43464,43465,43482,43482,43483,43489,43489,43490,43490,43498,43498,43498,43499,43505,43505,43505,43515,43515,43521,43521,43521,43531,43531,43532,43537,43537,43547,43547,43547,43552,43552,43552,43560,43560,43568,43568,43568,43576,43576,43577,43584,43584,43584,43593,43593,43593,43593,43600,43600,43600,43608,43609,43616,43616,43616,43624,43625,43625,43632,43632,43640,43640,43648,43649,43656,43656,43664,43664,43672,43681,43688,43697,43714,43720,43827,43827,43848,43849,43850,43863,43864,43864,43864,43871,43871,43872,43872,43872,43879,43879,43879,43880,43880,43887,43887,43888,43888,43889,43895,43895,43895,43896,43896,43903,43904,43904,43905,43905,43912,43912,43912,43912,43913,43920,43920,43921,43921,43928,43928,43929,43936,43936,43937,43945,43946,43946,43953,43953,43953,43968,43969,43969,43976,43976,43985,43985,43986,43992,43992,44000,44007,44023,44023,44079,44079,44128" d="m478,212c-1.65268,1.65717 -2.21143,2.18138 -2.83334,3c-0.58798,0.77394 -0.92786,1.44745 -1.70966,2.2c-0.44537,0.42873 -1.2757,1.00383 -1.85968,1.40001c-0.89285,0.60571 -1.50638,0.96484 -2.28931,1.564c-0.83325,0.63765 -1.23843,1.39436 -1.80801,2.00267c-0.51474,0.54976 -1.33005,1.04686 -1.90399,1.43466c-0.89264,0.60315 -1.79037,1.17798 -2.32401,1.59866c-0.96854,0.76355 -1.44989,1.41315 -1.92267,2c-0.65979,0.81898 -1.1062,1.21301 -1.84933,1.77917c-0.72144,0.54962 -1.54742,1.11549 -2.19101,1.71632c-0.62723,0.58556 -1.30902,1.30447 -1.82983,1.82533c-0.80054,0.80061 -1.32532,1.29674 -1.82648,1.88367c-0.65924,0.77208 -1.1875,1.54504 -1.48602,2.42883c-0.2608,0.77208 -0.45355,1.65266 -0.77731,2.41335c-0.39124,0.9192 -0.64603,1.71556 -0.98935,2.45599c-0.44534,0.96046 -1.1918,1.32071 -1.69998,2.01616c-0.50009,0.68443 -0.80734,1.70001 -1.10001,2.51717c-0.20517,0.57286 -0.59293,1.76643 -0.80133,2.36267c-0.30905,0.88423 -0.64438,1.74004 -1.11984,2.47984c-0.4567,0.71056 -1.0867,1.2619 -1.51083,2.32149c-0.3082,0.76996 -0.46124,1.62796 -1.02933,2.40001c-0.45929,0.62422 -1.17203,1.36852 -1.59702,2.17915c-0.43317,0.82623 -0.51251,1.66458 -0.827,2.50616c-0.27826,0.74466 -0.71466,1.51468 -1.11465,2.31467c-0.39999,0.80002 -0.83377,1.58292 -1.164,2.36401c-0.39474,0.93372 -0.66452,1.80032 -1.01068,2.47198c-0.41855,0.81213 -0.42307,1.71133 -0.42532,2.72803c-0.00183,0.836 0.19785,1.8345 -0.284,2.55331c-0.44196,0.65927 -0.65952,1.32404 -0.9375,2.2825c-0.23254,0.80179 -0.81888,1.60544 -1.25766,2.27933c-0.51776,0.7952 -0.6875,1.6875 -1.02084,2.52084c-0.33334,0.83334 -0.45422,1.62891 -0.936,2.41068c-0.49484,0.80295 -1.06219,1.37344 -1.39734,2.42267c-0.23486,0.73529 -0.14087,1.6875 -0.51932,2.47116c-0.42926,0.88889 -0.46704,1.56317 -0.814,2.52884c-0.24905,0.69318 -1.13638,1.29077 -1.548,1.96664c-0.51309,0.84247 -1.22696,0.98669 -1.284,0.31335c-0.08105,-0.95663 0.0531,-1.80667 0.28265,-2.79733c0.19055,-0.82233 0.46802,-1.62549 0.63199,-2.63068c0.10782,-0.66104 0.21841,-1.6969 0.53067,-2.51733c0.28592,-0.75122 0.72247,-1.66696 1.03735,-2.42001c0.34406,-0.82285 0.5134,-1.24905 0.86331,-2.09c0.48245,-1.15948 0.88437,-2.09888 1.27802,-2.862c0.24887,-0.48251 0.85654,-1.48352 1.21066,-2.03198c0.56305,-0.87204 1.16681,-1.76215 1.56268,-2.36401c0.39346,-0.59818 0.97791,-1.48242 1.43466,-2.39999c0.43796,-0.87985 0.66498,-1.46799 0.88,-2.31467c0.25125,-0.9892 0.24893,-1.91495 0.62,-2.68533c0.41342,-0.85831 1.09363,-1.33972 1.49731,-2.40134c0.22641,-0.59546 0.30685,-1.77313 0.53101,-2.55133c0.15948,-0.55365 0.47198,-1.39697 1.12234,-2.36334c0.47839,-0.71082 1.07843,-1.34082 1.49432,-2.10532c0.42395,-0.7793 0.69885,-1.61771 0.90051,-2.65718c0.13211,-0.68103 0.21753,-1.56099 0.69183,-2.32283c0.41129,-0.66063 1.06149,-1.2612 1.82666,-2.28267c0.39697,-0.52995 0.83316,-1.04448 1.26932,-2.14932c0.3598,-0.91141 0.33542,-1.62874 0.55502,-2.588c0.18631,-0.81383 0.49286,-1.65213 0.94498,-2.412c0.44165,-0.74228 1.06625,-1.35381 1.66669,-2.33334c0.46536,-0.75919 0.63068,-1.36725 1.13599,-2.14932c0.51773,-0.8013 1.2851,-1.44365 1.78,-1.87334c0.92441,-0.80258 1.44437,-1.40819 1.86533,-2.01067c0.5567,-0.79674 1.00351,-1.45245 1.668,-1.964c0.98715,-0.75992 1.68597,-0.95515 2.37869,-1.22133c0.72327,-0.27791 1.49237,-0.52129 2.517,-1.1575c0.68686,-0.4265 1.28952,-0.96779 1.85999,-1.509c0.80875,-0.76727 1.5007,-1.51105 2.00333,-1.92734c0.7872,-0.65198 1.81934,-1.22667 2.21036,-1.41949c0.81784,-0.40332 1.67215,-0.76495 2.49597,-1.116c1.08774,-0.4635 1.70123,-0.69464 2.42001,-1.11067c0.85907,-0.49724 1.62811,-1.19292 2.17484,-1.722c0.64371,-0.62294 1.24649,-1.242 1.95715,-1.95267c0.70001,-0.7 1.20001,-1.19998 1.90002,-1.89999c0.59998,-0.59999 1.18695,-1.20966 1.99866,-1.716c0.73727,-0.45992 1.09225,-1.27908 1.51733,-1.884c0.28873,-0.41089 0.284,0.3625 0.284,1.12001c0,0.99599 0.0054,1.90533 0,2.84666c-0.00452,0.78604 0.05435,1.64748 -0.33334,2.66666c-0.29056,0.76384 -0.90659,1.45174 -1.26932,2.02133c-0.62997,0.98927 -0.996,1.80453 -1.17599,2.23201c-0.36499,0.8669 -0.6965,1.73529 -0.97867,2.97017c-0.16422,0.71872 -0.24301,1.69856 -0.41068,2.25516c-0.31165,1.03459 -0.8595,1.6803 -1.43466,2.28667c-0.77731,0.81949 -1.40286,1.37881 -1.91202,2.00134c-0.6326,0.77344 -1.09372,1.58281 -1.31866,2.39999c-0.21667,0.78709 -0.34586,1.66248 -1.01999,2.39999c-0.60556,0.66249 -1.20566,0.94029 -2.00385,1.8c-0.52344,0.56378 -1.00656,1.41457 -1.62549,2.2c-0.48203,0.61169 -1.06879,1.15291 -1.4075,2.20001c-0.25098,0.77586 -0.36935,1.8132 -0.65149,2.42082c-0.31531,0.67909 -0.94614,1.66217 -1.28369,2.21516c-0.52792,0.8649 -1.0199,1.75854 -1.28931,2.36134c-0.3815,0.85359 -0.6525,1.64896 -1.18533,2.60184c-0.37805,0.67609 -0.81189,1.56122 -1.10001,2.48749c-0.20862,0.6707 -0.3598,1.36086 -0.80002,2.54268c-0.27518,0.73874 -0.58075,1.3779 -1.10449,2.37067c-0.31985,0.60629 -1.03073,1.58905 -1.51016,2.21066c-0.49011,0.63547 -0.97662,1.6037 -1.12399,2.41467c-0.09915,0.54562 -0.14978,1.63522 -0.508,2.53867c-0.2601,0.65604 -0.86951,1.44037 -1.37869,2.03598c-0.51678,0.60449 -1.29065,1.60001 -1.67465,2.20001c-0.384,0.60001 -1.00568,1.37955 -1.63867,2.164c-0.6424,0.79611 -0.84625,1.50485 -1.08282,2.37851c-0.19073,0.70435 -0.53619,1.64023 -1.16785,2.36017c-0.57306,0.65317 -0.97394,1.39175 -1.61066,2.09732c-0.56949,0.63107 -0.73676,1.53458 -1.05267,2.29016c-0.34445,0.82388 -1.00836,1.41 -1.37265,2.12051c-0.46405,0.90509 -0.41641,1.83905 -0.93185,2.48398c-0.57629,0.72104 -1.25995,1.27161 -1.52148,2.08383c-0.25916,0.80481 -0.18991,2.64832 -1.10049,2.45901c-0.51035,-0.10608 -0.04688,-1.60501 -0.00735,-2.40366c0.02957,-0.59763 0.19403,-1.6239 0.651,-2.77719c0.1734,-0.43759 0.64178,-1.35089 0.89801,-1.84c0.26767,-0.51093 0.85144,-1.58493 1.4375,-2.75c0.30502,-0.60638 0.60074,-1.23102 0.89551,-1.86298c0.58777,-1.2601 0.86716,-1.88162 1.14734,-2.48401c0.27051,-0.5816 1.02966,-2.13721 1.27316,-2.57968c0.44739,-0.81296 0.90009,-1.53958 1.36798,-2.22c0.72287,-1.05118 1.26392,-1.76971 1.52002,-2.14532c0.50708,-0.74365 1.02518,-1.45581 1.43182,-2.55301c0.35226,-0.95053 0.28616,-1.6142 0.69751,-2.655c0.29892,-0.75632 0.89923,-1.41974 1.26932,-1.936c0.61636,-0.85983 1.1882,-1.87616 1.59735,-2.54398c0.39133,-0.63873 0.97421,-1.45023 1.58932,-1.98935c0.69778,-0.6116 1.50851,-1.33066 1.76401,-1.944c0.36978,-0.88773 0.37833,-1.70764 0.47198,-2.528c0.12112,-1.06116 0.36832,-2.00002 0.67917,-2.56366c0.52661,-0.95486 1.12088,-1.61876 1.49683,-2.431c0.34302,-0.74107 0.64142,-1.57404 1.12,-2.30917c0.4642,-0.71307 1.05698,-1.29361 1.65735,-2.12132c0.55054,-0.759 1.18091,-1.64186 1.67401,-2.052c0.68503,-0.56978 1.34686,-1.27988 1.72198,-2.00951c0.40063,-0.77927 0.75607,-1.59822 1.2825,-2.28149c0.51944,-0.67418 1.34283,-1.45717 1.94284,-2.05717c0.39999,-0.39999 1.00632,-0.99374 1.79868,-1.79999c0.58517,-0.59543 1.14749,-1.17729 1.71732,-2c0.53998,-0.77963 1.04019,-1.60864 1.53668,-2.20001c0.51135,-0.60907 1.21347,-1.37918 1.71133,-2.2c0.3555,-0.58609 0.81766,-1.60851 1.13599,-2.17917c0.5679,-1.01808 1.04111,-1.49232 1.60001,-2.34216c0.43286,-0.65819 0.86435,-1.54123 1.39999,-2.15784c0.65833,-0.75784 1.45407,-0.98169 2.14282,-1.5735c0.65909,-0.56633 0.76236,-1.50485 1.33185,-2.33665c0.45508,-0.66469 1.07767,-1.75613 1.74133,-1.43867c0.66678,0.31895 0.14182,1.83627 -0.07318,2.43251c-0.31229,0.8661 -0.74716,1.81578 -1.0535,2.65283c-0.22842,0.62419 -0.46625,1.31784 -0.91083,2.48532c-0.32944,0.86507 -0.50479,1.31212 -0.88916,2.20668c-0.38107,0.88684 -0.77078,1.7274 -1.19202,2.48132c-0.40118,0.71803 -0.85043,1.39851 -1.36798,2.052c-0.84198,1.06316 -1.19504,1.40346 -1.88,2.14267c-0.69635,0.7515 -1.06567,1.10298 -2.01599,2.20799c-0.57739,0.67139 -0.83002,1.00919 -1.3125,1.66667c-0.47549,0.64796 -1.18536,1.66821 -1.70483,2.384c-0.53915,0.74294 -1.09164,1.48996 -1.36334,1.86333c-0.78882,1.08395 -1.27386,1.76428 -1.71667,2.42734c-0.43173,0.64644 -0.84738,1.30205 -1.43582,2.34633c-0.40448,0.71777 -0.76968,1.44263 -1.14301,2.112c-0.62009,1.11186 -1.02551,1.69594 -1.6265,2.33366c-0.77594,0.82338 -1.29492,1.27374 -1.74402,1.81868c-0.83337,1.01123 -1.14246,1.75665 -1.29065,2.43999c-0.25763,1.18803 -0.30777,1.74638 -0.64267,2.54933c-0.45404,1.08859 -0.98608,1.78116 -1.52798,2.37866c-0.63602,0.70129 -1.27545,1.17963 -1.82535,2.18002c-0.35361,0.64331 -0.60004,1.40616 -0.83334,2.33331c-0.22745,0.90384 -0.68845,1.6796 -1.04532,2.43335c-0.40436,0.85406 -0.76868,1.60001 -1.10049,2.39999l-0.02084,0.89999l0,0.89999" id="svg_8" stroke-width="20" stroke="#fff" fill="none"/>
  <path t="48147,48258,48258,48322,48322,48360,48376,48385,48385,48445,48461,48497,48529,48537,48553,48554,48561,48584,48592,48658,48665,48665,48673,48673,48681,48697,48704,48728,48744,48752,48769,48792,48800,48816,48816,48824,48840,48856,48864,48888,48912,48912,48936,48945,48968,48968,48976,48992,49000,49000,49016,49032,49095,49095,49111,49130,49130,49137,49145,49176,49176,49192,49192,49200,49224,49232,49248,49256,49272,49288,49297,49313,49320,49320,49330,49337,49344,49344,49360,49360,49368,49376,49384,49392,49408,49408,49424,49431,49456,49472,49480,49497,49497,49504,49504,49513,49513,49520,49536,49544,49544,49551,49552,49560,49569,49576,49583,49584,49592,49592,49599,49624,49624,49632,49640,49640,49648,49663,49672,49672,49680,49697,49720,49720,49730,49744,49768,49768,49792,49792,49824,49824,49840,49840,49864,49880,49896,49928,49928,49968,50092,50179,50195,50224,50224,50289,50305,50314,50572,50572,50587,50608,50624,50624,50632,50640,50648,50656,50664,50680,50689,50704,50713,50713,50720,50720,50730,50736,50744,50751,50760,50760,50767,50777,50784,50785,50800,50801,50809,50816,50816,50824,50824,50832,50832,50840,50840,50856,50856,50864,50864,50872,50872,50880,50896,50920,50930,50952,50960,50968,50977,50984,50992,50992,51009,51017,51064,51072,51072,51088,51088,51097,51113,51113,51120,51121,51137,51137,51160,51161,51176,51176,51185,51185,51193,51209,51209,51217,51217,51241,51241,51248,51257,51265,51265,51273,51281,51289,51289,51305,51314,51322,51331,51338,51348,51361,51361,51361,51369,51369,51385,51409,51409,51417,51434,51441,51449,51457,51466,51474,51483,51493,51507,51508,51515,51524,51537,51537,51554,51561,51561,51576,51600,51624,51633,51672,51673,51705,51721,51721,51729,51745,51761,51777,51784,51816,51833,51833,51849,51857,51977,51993,51993,51993,51993" d="m297,90c-1.47916,1.5 -1.79538,2.37284 -2.28534,3.2c-0.40332,0.68088 -1.27725,1.25439 -1.63065,2c-0.40701,0.85871 -0.91183,1.2396 -1.64801,1.82533c-0.67654,0.53828 -1.04349,1.45734 -1.72134,1.88934c-0.77481,0.49378 -1.92859,0.20316 -2.35748,0.78983c-0.55521,0.75948 -1.06195,1.27254 -1.95718,1.2955c-0.90067,0.0231 -1.53192,0.62702 -2.03598,1.14933c-0.75467,0.78201 -1.55511,0.78417 -2.34317,1.35067c-0.64481,0.46352 -1.2457,1.04359 -1.89951,1.72134c-0.55807,0.57849 -1.32996,0.65466 -2.22116,0.77883c-0.80188,0.11172 -1.34213,0.78542 -2.09885,1.28516c-0.60892,0.40215 -1.01566,1.26279 -1.63467,1.88133c-0.61823,0.61774 -1.54211,0.5682 -2.08264,1.11867c-0.60962,0.6208 -0.85812,1.35276 -1.47336,2.11467c-0.60147,0.74489 -1.08749,1.36336 -1.75998,1.62533c-0.9006,0.35082 -1.18259,1.29875 -1.85068,1.97467c-0.57889,0.58566 -1.38837,0.97582 -2,1.5c-0.6463,0.55388 -0.96106,1.26607 -1.52084,2c-0.59091,0.77474 -1.40753,0.99215 -2.12198,1.55267c-0.63089,0.49496 -1.10178,1.20615 -1.70901,1.7045c-0.81375,0.66785 -1.1662,1.45551 -1.94366,2.133c-0.60257,0.52508 -1.15111,1.16364 -1.72983,1.6845c-0.63786,0.57408 -1.09396,1.20602 -1.54933,2.02534c-0.43451,0.78178 -0.59348,1.76263 -1.42534,2.23332c-0.72964,0.41286 -1.59705,0.62819 -1.94733,1.47118c-0.34135,0.82153 -0.60809,1.67542 -0.886,2.52882c-0.27547,0.84592 -0.70876,1.61237 -1.46217,2.114c-0.68927,0.45892 -0.54543,1.47006 -1.14717,2.15268c-0.45364,0.5146 -1.37206,1.10324 -1.55733,1.89999c-0.20523,0.88257 -0.75121,1.44695 -1.436,1.97467c-0.65367,0.50374 -1.38559,0.89833 -1.864,1.67799c-0.41924,0.68323 -1.07941,1.53587 -1.41466,2.146c-0.46358,0.84366 -0.79526,1.74503 -1.60651,2.30135c-0.63506,0.4355 -1.47952,0.85698 -1.67616,1.7c-0.2049,0.8784 -0.52473,1.67714 -1.30267,2.15182c-0.80128,0.48892 -1.16527,1.09142 -1.7,1.8815c-0.45074,0.666 -0.79538,1.53952 -1.28534,2.36667c-0.40331,0.68088 -1.13226,1.18283 -1.8145,1.90001c-0.55774,0.58632 -0.7692,1.4762 -1.33617,2.29999c-0.46687,0.67833 -1.15721,1.18567 -1.53867,2c-0.41483,0.88557 -1.09302,1.54297 -1.5045,2.10001c-0.60489,0.81886 -1.08157,1.35117 -1.7195,2.06934c-0.47562,0.53545 -0.75308,1.5435 -0.8,2.31467c-0.05782,0.95032 -0.03099,1.73399 -0.35399,2.7115c-0.25204,0.76277 -0.61874,1.64604 -0.64734,2.60449c-0.02684,0.89961 0,1.8 0,2.60001c0,0.89999 0.05058,1.85341 0.7045,2.25267c0.7878,0.48102 1.60307,1.06871 2.01016,1.74733c0.44148,0.73595 0.65605,1.69963 1.48534,2.116c0.84935,0.42644 1.45406,0.894 2.40001,1.07333c0.90477,0.17152 1.75093,0.19617 2.53867,-0.02533c0.92422,-0.25989 1.26495,-1.157 1.94533,-1.68001c0.61128,-0.46989 1.616,-0.34116 2.416,-0.784c0.8,-0.44284 1.70131,-0.45148 2.60017,-0.50017c0.7886,-0.04271 1.79504,-0.32555 2.33049,-0.80116c0.71817,-0.63792 1.30177,-1.00905 2.16934,-1.23466c0.86563,-0.22511 1.4173,-1.17236 2.09999,-1.60684c0.73213,-0.46596 1.73074,-0.29471 2.62134,-0.57849c0.69902,-0.22275 1.69342,-0.54596 2.47733,-0.86267c0.77274,-0.31219 1.52533,-0.7803 2.412,-0.94133c0.99203,-0.18016 1.86195,-0.35948 2.45601,-0.97467c0.57384,-0.59425 1.0367,-1.31969 1.74232,-1.7c0.97659,-0.52634 1.56372,-0.86859 2.591,-1.13333c0.77478,-0.19966 1.85559,-0.01714 2.58932,-0.20267c0.87189,-0.22046 1.70438,-0.7475 2.358,-1.31667c0.59653,-0.51947 1.30389,-1.0802 2.05267,-1.48067c0.79147,-0.42329 1.29144,-1.03148 2.20001,-1.168c0.80783,-0.12138 1.24777,-0.82005 1.82532,-1.56267c0.45755,-0.5883 1.37198,-0.87485 2.07483,-1.53601c0.53381,-0.50215 1.42557,-1.03668 2.03851,-1.5c0.8219,-0.62128 1.2233,-1.3653 1.86133,-1.92082c0.70004,-0.6095 0.75043,-1.66901 1.44299,-2.23634c0.63422,-0.51953 1.81821,-0.34637 2.51535,-0.7845c0.7998,-0.50264 0.81778,-1.33482 1.20831,-2.29166c0.31964,-0.78317 1.32736,-1.03319 1.9335,-1.60951c0.51807,-0.4926 1.05475,-1.40518 1.71451,-1.92116c0.83749,-0.65498 1.23993,-1.26801 1.98666,-1.72c0.7049,-0.42668 1.40137,-1.11333 1.99866,-1.716c0.59201,-0.59735 0.94345,-1.47855 1.42151,-2.29984c0.3656,-0.62808 1.22125,-1.05775 1.88834,-1.5475c0.65289,-0.47932 1.66663,-0.65091 1.89032,-1.4525c0.23251,-0.83315 1.17529,-1.04594 1.83585,-1.33617c0.7764,-0.34111 1.61496,-0.67873 2.29199,-1.164c0.84109,-0.60287 1.06442,-1.71251 1.67334,-2.11465c0.75671,-0.49976 1.11615,-1.2341 1.80933,-1.84933c0.65842,-0.58437 1.48172,-0.84331 2.03668,-1.48868c0.50046,-0.58199 0.82852,-1.51118 1.65265,-1.89465c0.76669,-0.35675 1.62839,-0.54562 2.34283,-1.10535c0.6312,-0.49452 1.22906,-1.33052 1.87451,-1.74733c0.73804,-0.47661 1.57864,-1.10503 2.28265,-1.19867c0.91074,-0.12114 1.50803,-0.76831 2.14734,-1.35399c0.58325,-0.53433 1.36578,-0.99017 1.85266,-1.44867c0.72,-0.67804 1.50385,-1.3223 1.91467,-1.99867c0.47141,-0.77613 1.21414,-1.13143 1.7645,-1.72083c0.68521,-0.73383 0.32483,-1.9333 0.87802,-2.4265c0.67783,-0.60429 1.53107,-0.77792 2.12198,-1.55267c0.55978,-0.73393 0.94617,-1.47467 1.54169,-2.04166l0.422,-0.77967l0.578,-0.67867l0.49649,-0.516" id="svg_9" stroke-width="2" stroke="#000" fill="none"/>
  <path t="53947,54292,54308,54308,54329,54352,54362,54379,54392,54424,54431,54431,54440,54440,54447,54463,54503,54504,54512,54594,54594,54609,54609,54632,54648,54656,54664,54664,54680,54688,54696,54728,54753,54753,54761,54768,54777,54784,54792,54800,54816,54832,54840,54848,54864,54872,54872,54896,54913,54913,54920,54944,54944,54952,54960,54968,54984,54992,54992,55000,55000,55016,55048,55048,55056,55072,55088,55096,55113,55120,55120,55130,55145,55160,55161,55212,55265,55281,55281,55289,55313,55313,55410,55426,55448,55465,55488,55488,55496,55528,55536,55536,55552,55568,55568,55576,55608,55616,55624,55631,55664,55664,55672,55672,55680,55704,55752,55752,55792,55800,55800,55815,55831,55856,55888,55896,55904,55946,55946,55946,55961,55961,55984,55992,56017,56024,56047,56056,56072,56143,56175,56212,56249,56249,56256,56342,56552,56568" d="m303,85c1.82535,-0.964 2.83334,-1 3.6955,-1c0.90451,0 1.8045,0 2.7045,0c0.89999,0 1.80002,0 2.70001,0c0.89999,0 1.65717,0 2.55267,0c0.86331,0 1.82648,0 2.65182,0c1.01682,0 1.6955,0 2.67398,0c1.02151,0 1.77869,0 2.67419,0c0.86331,0 1.82648,-0.0023 2.74731,0c0.89999,0.00225 1.83865,0.10302 2.31467,0.80133c0.51077,0.74931 1.19751,0.83432 1.92816,1.25584c0.8111,0.46793 1.46729,0.99743 1.92117,1.5535c0.6145,0.75284 1.12625,1.0456 1.91516,1.41017c0.77103,0.3563 1.19833,1.08427 1.60486,1.78049c0.48239,0.82616 1.31238,1.43163 1.74933,2.19867c0.44424,0.77986 0.94034,1.27006 1.388,2.1c0.34933,0.64764 0.76822,1.42067 0.77866,2.384c0.00934,0.86328 -0.14844,1.81287 0.22134,2.616c0.35849,0.77858 0.77332,1.49995 0.77866,2.4c0.00534,0.89999 0,1.8045 0,2.82133c0,0.67867 0,1.65717 0,2.47733c0,0.9585 0.11856,1.87453 -0.08533,2.71733c-0.21481,0.88801 -0.74274,1.59226 -0.91467,2.484c-0.17154,0.88973 -0.76126,1.36163 -1.2215,2.09983c-0.44711,0.71716 -1.21423,1.14225 -1.94516,1.73351c-0.69781,0.56447 -1.37097,0.92796 -2.33334,1.14583c-0.88843,0.20113 -1.84497,-0.14225 -2.63867,0.05684c-0.87228,0.2188 -1.42764,0.91728 -2.21317,0.9595c-1.01074,0.05432 -1.94815,0.0045 -2.84818,0.0045c-0.89999,0 -1.80045,0.02708 -2.59998,0c-0.8443,-0.0286 -1.41617,-0.72946 -2.20001,-1.16666c-0.65189,-0.36359 -1.19739,-1.2991 -2,-1.66667c-0.74271,-0.34014 -1.66959,-0.27711 -2.08401,-0.96799c-0.47675,-0.79482 -1.35648,-1.11926 -1.93683,-1.71951c-0.60681,-0.62761 -1.18936,-1.04223 -2.09381,-1.67783c-0.59827,-0.42042 -1.55173,-0.71731 -2.28534,-1.23733c-0.78714,-0.55796 -1.24585,-1.12127 -1.89551,-1.86401c-0.58118,-0.66445 -0.6214,-1.64776 -1.31516,-2.264c-0.65817,-0.58464 -1.21774,-1.0621 -1.74652,-1.7315c-0.5853,-0.74096 -1.4165,-0.97456 -1.86417,-1.8045c-0.34933,-0.64764 -0.73572,-1.4216 -0.78,-2.38267c-0.03726,-0.80857 -0.77365,-1.44444 -0.99417,-2.22183c-0.24438,-0.86153 0.04849,-1.83029 -0.35715,-2.5955c-0.44836,-0.84579 -1.13052,-1.30718 -1.56201,-1.98533c-0.49316,-0.77505 -0.08533,-1.81467 -0.08533,-2.71467c0,-0.8 0,-1.7 0,-2.6l0.02084,-0.9l0.33182,-0.8" id="svg_10" stroke-width="2" stroke="#000" fill="none"/>
  <path t="58369,58411,58427,58427,58448,58466,58466,58472,58488,58504,58520,58520,58529,58554,58569,58569,58577,58592,58600,58600,58632,58640,58648,58680,58688,58697,58713,58730,58730,58744,58752,58769,58777,58784,58793,58807,58808,58823,58831,58831,58839,58857,58863,58879,58896,58896,58903,58912,58919,58935,58943,58951,58967,58967,58991,58999,58999,59008,59015,59040,59047,59055,59063,59063,59087,59103,59103,59112,59112,59135,59151,59160,59160,59167,59175,59191,59199,59208,59215,59215,59231,59279,59295,59295,59312,59328,59351,59351,59359,59367,59375,59375,59383,59402,59415,59435,59455,59471,59471,59479,59496,59512,59512,59520,59535,59544,59561,59568,59584,59584,59593,59609,59625,59625,59632,59656,59671,59687,59712,59720,59720,59735,59746,59799,59840,59856,59871,59872,59879,59961,59977,59977,59977,60005,60074,60098,60098,60113,60145,60177,60216,60240,60388,60461,60477,60477,60477,60477,60511,60514,60525,60525,60536,60537,60537" d="m472,201c-1.71466,1.084 -2.3461,1.78879 -3,2c-0.91669,0.29608 -1.46991,1.06357 -2.14932,1.60001c-0.71185,0.56204 -1.14212,1.2648 -2.05069,1.40132c-0.80783,0.12138 -1.54807,0.65872 -2.09549,1.29868c-0.64352,0.75229 -0.76239,1.80609 -1.31516,2.26399c-0.68521,0.56763 -1.71021,0.77115 -2.38934,1.436c-0.49487,0.48445 -0.93155,1.30817 -1.5,2c-0.51138,0.62239 -0.90384,1.43924 -1.69867,1.916c-0.69089,0.41443 -0.62784,1.34128 -0.96799,2.084c-0.36755,0.8026 -1.21823,1.24193 -1.71201,2.09984c-0.42444,0.73746 -0.93332,1.38873 -1.55734,1.87483c-0.74216,0.57813 -1.29794,1.06357 -1.64801,1.82533c-0.34454,0.74973 -1.22733,1.31912 -1.63065,2c-0.48996,0.82715 -0.81152,1.67044 -1.58084,2.14732c-0.65646,0.40694 -0.85779,1.40936 -1.22534,2.03185c-0.49307,0.8351 -1.27185,1.25856 -1.47931,2.12067c-0.20218,0.84013 -0.87115,1.26537 -1.00119,2.10016c-0.14261,0.91547 -0.84344,1.56842 -0.98798,2.436c-0.13916,0.83524 -0.10974,1.62332 -0.65802,2.41217c-0.44028,0.63342 -1.03821,1.37439 -1.2955,2.25183c-0.25378,0.86545 -0.25241,1.82211 -0.76166,2.39999c-0.65253,0.74046 -1.12885,1.46667 -1.2955,2.3c-0.16666,0.83333 -0.74469,1.52785 -0.96399,2.39999c-0.2197,0.87372 -0.40341,1.748 -0.75201,2.40001c-0.45306,0.84738 -0.74039,1.72615 -1.23132,2.4955c-0.4501,0.70534 -1.45743,0.85017 -1.88602,1.7045c-0.3663,0.73018 -0.48117,1.38713 -1,2.16666c-0.47089,0.70746 -0.61646,1.3786 -1.08133,2.11868c-0.48871,0.77802 -0.21005,1.74896 -0.78983,2.41467c-0.5531,0.6351 -1.23462,1.39386 -1.2955,2.29999c-0.05362,0.79819 -0.09607,1.68668 -0.85068,1.97467c-0.96011,0.36639 -1.63849,0.83685 -2.12399,1.46133c-0.57993,0.74597 -0.91525,1.28793 -1.50449,2.064c-0.56052,0.73825 -0.88824,1.64801 -1.23685,2.29999c-0.45309,0.84741 -0.76462,1.71121 -1.23132,2.49551c-0.39374,0.66168 -1.41531,0.87262 -1.88602,1.7045c-0.36124,0.63846 -0.72864,1.46835 -1.11398,2.29999c-0.40399,0.87189 -0.53473,1.63705 -1.10535,2.34283c-0.59109,0.73108 -0.62524,1.49527 -1.11398,2.19052c-0.50327,0.71591 -1.14023,1.21347 -1.54935,1.96664c-0.43323,0.79752 -0.96149,1.30511 -1.36801,2.00134c-0.48239,0.82617 -1.38177,1.39606 -1.74933,2.19867c-0.34012,0.74271 -0.48117,1.38712 -1,2.16666c-0.47089,0.70746 -0.1394,1.63376 -0.16666,2.53336c-0.02859,0.94412 -0.85638,1.35181 -1,2.29999c-0.11981,0.79095 0,1.70001 0,2.60001c0,0.89999 -0.00067,1.79999 0,2.69998c0.00067,0.89868 0.28357,1.65729 1.16666,1.70001c0.83237,0.04025 1.81183,0 2.63202,0c0.90134,0 1.8396,0.05841 2.68665,-0.004c0.73077,-0.05386 1.71451,-0.66016 2.30402,-1.28265l0.37466,-0.47336" id="svg_11" stroke-width="2" stroke="#000" fill="none"/>
  <path t="61669,61995,62011,62143,62158,62184,62260,62260,62276,62276,62298,62361,62376,62392,62399,62415,62423,62455,62463,62479,62576,62576,62576,62591,62591,62608,62631,62631,62639,62655,62671,62703,62751,62811,62811,62826,62826,62826,62849,62864,62872,62904,62920,62993,62993,63001,63028,63028,63056,63270,63270,63270,63305,63337,63352,63368,63368,63384,63384,63400,63400,63408,63416,63456,63589,63633,63633,63640,63641,63656,63679,63679,63695,63703,63711,63712,63736,63759,63767,63799,63815,63840,63847,63847,63871,63887,63887,63903,63903,63935,63959,63959,63960,63967,63983,63992,64008,64024,64031,64047,64055,64079,64103,64103,64111,64111,64120,64135,64159,64167,64183,64207,64215,64223,64231,64247" d="m474,201c2.47916,0.5 3.34595,0.88269 3.97467,1.42534c0.60019,0.51801 1.31976,0.93793 2.02533,1.57466c0.63107,0.5695 1.53455,0.73677 2.29016,1.05267c0.82385,0.34444 1.52811,0.55403 2.27383,0.98332c0.68958,0.39697 0.4325,1.75421 1.1405,1.9595c0.90314,0.26189 1.57849,0.67569 2.17416,1.22583c0.63696,0.58826 0.99353,1.31606 1.68933,1.97867c0.51102,0.48663 1.207,1.12132 1.43335,1.99867c0.19272,0.74704 1.04547,1.1082 1.79865,1.51733c0.79752,0.43323 1.18137,1.08553 1.20001,1.98399c0.01868,0.90053 0.53989,1.65926 0.83334,2.46667c0.28333,0.77953 0.58978,1.60382 1.26648,2.05482c0.70325,0.4687 0.53494,1.57625 0.93619,2.3425c0.39713,0.75835 0.57111,1.36774 1.04932,2.15067c0.49069,0.80338 0.914,1.17201 0.91467,2.11067c0.00073,1.008 0.00058,1.87016 0,2.6955c-0.00067,0.96184 0.18137,2.06659 -0.61066,2.45784c-0.79758,0.394 -1.78934,0.02133 -2.69385,0.02133c-0.86215,0 -1.71634,0 -2.6955,0c-0.78934,0 -1.83334,0 -2.58932,0c-0.91068,0 -1.81067,0 -2.71066,0c-0.90134,0 -1.86667,0 -2.52536,0c-1.008,0 -1.9328,0.03763 -2.67465,-0.52083c-0.66626,-0.50156 -1.14474,-1.2402 -1.89999,-1.8685c-0.65659,-0.54623 -1.74429,-0.64143 -2.24283,-1.31517c-0.51373,-0.69427 -0.36786,-1.68483 -0.85718,-2.2955c-0.48932,-0.61067 -0.38858,-1.56956 -0.85718,-2.3c-0.51318,-0.79991 -1.28867,-1.25726 -1.93832,-2c-0.58118,-0.66444 -0.66272,-1.45831 -0.70898,-2.35266c-0.0448,-0.86597 -0.46082,-1.70193 -0.99551,-2.51401c-0.42377,-0.64362 -0.80884,-1.34326 -1.38934,-2.19733c-0.4968,-0.73088 -0.2883,-1.78979 -0.832,-2.51466c-0.4823,-0.64302 -0.65463,-1.32994 -0.77881,-2.22118c-0.11172,-0.80188 -0.97125,-1.2603 -0.99985,-2.06683c-0.02954,-0.83281 0,-1.81183 0,-2.63199c0,-0.90134 0,-1.80135 0,-2.70134c0,-0.89999 -0.00009,-1.8 0,-2.7c0.00009,-0.89984 0.284,-1.716 0.94284,-2.15717l0.06165,-0.93834" id="svg_12" stroke-width="2" stroke="#000" fill="none"/>
  <path t="65697,65760,65777,65792,65816,65816,65831,65832,65847,65855,65856,65871,65872,65887,65888,65928,65960,65967,65983,65992,65999,66008,66008,66023,66031,66047,66047,66055,66063,66079,66088,66112,66119,66119,66144,66160,66160,66167,66176,66176,66183,66199,66208,66208,66224,66240,66247,66272,66272,66279,66296,66304,66320,66336,66336,66352,66360,66367,66383,66384,66408,66415,66416,66431,66447,66448,66479,66480,66489,66496,66514,66522,66522,66537,66544,66545,66552,66576,66576,66587,66592,66602,66603,66623,66639,66647,66663,66671,66687,66688,66695,66703,66712,66720,66729,66826,66841,66857,66857,66857,66880,66904,66952,66952,66960,66961,66968,66968,66984,66992,67000,67008,67024,67024,67032,67032,67048,67048,67064,67080,67096,67096,67105,67105,67176,67224,67231,67247" d="m492,229c0,1.8 0.0773,2.66754 -0.436,3.39999c-0.5538,0.79022 -1.19354,1.21582 -1.76401,2.08267c-0.42236,0.64183 -1.14569,1.31358 -1.90015,1.73883c-0.71039,0.40039 -1.39276,0.96349 -2.07449,1.37851c-0.9516,0.57932 -1.61911,1.05397 -1.81467,2c-0.17807,0.86151 -0.62027,1.40205 -1.06335,2.10449c-0.48691,0.7719 -0.73181,1.67151 -1.16882,2.39534c-0.4368,0.72348 -1.36728,0.99516 -1.88834,1.60466c-0.54727,0.64015 -1.51459,0.77448 -2.34851,1.2955c-0.7067,0.44154 -0.94516,1.43983 -1.74033,1.916c-0.69324,0.41512 -1.14139,1.07518 -1.80133,1.584c-0.76508,0.58989 -1.12653,1.53189 -1.61066,2.10001c-0.63519,0.74536 -0.97079,1.58737 -1.55869,2.11465c-0.65384,0.58643 -1.57025,0.62102 -2.05215,1.38535c-0.41083,0.65155 -1.37595,1.19702 -1.69318,2.10001c-0.29965,0.85294 -0.29703,1.77173 -0.66,2.39999c-0.48856,0.84564 -0.90469,1.51187 -1.478,2.04733c-0.68521,0.64001 -0.77377,1.3909 -1.03265,2.15265c-0.30176,0.88794 -0.76343,1.61264 -0.91916,2.5c-0.16296,0.92865 -0.79651,1.50034 -1.39551,2.10001c-0.69962,0.70041 -1.34726,1.25656 -1.89551,1.89999c-0.64218,0.75363 -0.74237,1.60339 -1.06168,2.35269c-0.30444,0.71448 -0.85602,1.70636 -1.64282,2.18066c-0.76868,0.46335 -0.81427,1.20917 -1.08533,1.96664c-0.32245,0.90112 -1.23279,1.31519 -1.62933,2c-0.50867,0.87848 -0.6669,1.84113 -0.93268,2.54733c-0.33215,0.88257 -0.19913,1.90115 -0.51932,2.65268c-0.33282,0.78122 -0.96121,1.45615 -1.48068,2.05267c-0.56918,0.65363 -0.91409,1.41595 -1.29999,2.24731c-0.40475,0.87204 -0.78592,1.57791 -1.55267,2.17917c-0.64841,0.50845 -1.31198,1.0094 -1.936,1.49551c-0.74216,0.57813 -1.10654,1.39108 -1.78549,1.90384c-0.70773,0.53448 -1.75262,0.3291 -2.37851,0.69617c-0.77151,0.45248 -1.63239,0.89557 -2.39999,1.25867c-0.71259,0.33707 -1.64194,0.56134 -2.40451,0.814c-0.97635,0.32346 -1.76157,0.31534 -2.57465,0.85266c-0.6665,0.44046 -1.52728,0.40207 -2.43152,0.51068c-0.92801,0.11145 -1.55383,0.59854 -2.56799,0.86783c-0.75656,0.2009 -1.67401,0.12149 -2.53732,0.12149c-0.96317,0 -1.80835,-0.07849 -2.65067,0.16666c-0.86179,0.25082 -1.65555,0.74527 -2.52884,0.82886c-0.90039,0.08621 -1.8045,0.00449 -2.7045,0.00449l-0.90451,0.00449" id="svg_13" stroke-width="2" stroke="#000" fill="none"/>
  <path t="69919,70039,70039,70055,70055,70055,70055,70073,70074,70074,70099,70099,70104,70104,70104,70104,70104,70119,70119,70128,70128,70136,70151,70160,70167,70167,70175,70183,70199,70208,70223,70231,70247,70247,70255,70256,70264,70264,70272,70279,70303,70303,70643,70643,70659,70659,70659,70659,70679,70679,70687,70695,70695,70703,70711,70719,70719,70728,70735,70745,70745,70751,70760,70760,70783,70783,70799,70815,70815,70823,70839,70863,70871,70871,70887,70887,70903,70903,70911,70919,70928,70935,70945,70951,70951,70959,70975,70975,70983,70999,71007,71007,71023,71031,71047,71047,71071,71079,71079,71095,71111,71119,71143,71143,71151,71159,71539,71934,71934,71934,71934,71934,71949,71949,71949,71949,71949,71949,71949,71949,71968,71968,71968,71977,71977,71977,71983,71983,71992,71992,71992,72007,72007,72064,72080,72088,72088,72104,72104,72113,72113,72114,72121,72121,72121,72130,72136,72136,72146,72147,72152,72160,72160,72175,72228,72243,72243,72264,72264,72303,72303,72335,72367,72367,72375,72391,72399,72400,72415,72423,72447,72591,72591,72591,72607,72950,72950,73028" d="m268,243c-2.60449,0 -3.45715,0 -4.42117,0c-0.79349,0 -1.8129,-0.0766 -2.76898,0.0045c-0.98633,0.08368 -1.62759,0.47441 -2.41116,0.7115c-0.99377,0.3007 -1.7095,0.28729 -2.89868,0.45067c-0.75272,0.10341 -1.5654,0.25829 -2.388,0.40799c-0.77473,0.14099 -1.72183,0.35327 -2.70534,0.41467c-0.88899,0.0555 -1.754,0.01067 -2.64949,0.01067c-0.95717,0 -1.85718,0 -2.75717,0c-0.8,0 -1.7,0 -2.60001,0c-0.89999,0 -1.79999,0 -2.7,0c-0.89999,0 -1.80017,0 -2.58533,0c-0.95067,0 -1.716,0 -2.71017,0c-0.74733,0 -1.76849,0 -2.709,0c-0.86217,0 -1.69617,-0.03587 -2.67416,0.00017c-0.77557,0.02858 -1.68315,0.34715 -2.42583,0.70433c-0.80049,0.38498 -1.61317,0.73488 -2.42883,1.2955c-0.65961,0.45337 -0.96205,1.37285 -1.45201,2.2c-0.40331,0.68088 -1.14622,1.17368 -1.63199,2c-0.45695,0.77733 -1.20346,1.17311 -1.83984,1.89984c-0.59735,0.68216 -1.27629,1.02486 -1.84283,1.51083c-0.74324,0.63756 -1.12595,1.57469 -1.56932,2.18932c-0.53584,0.7428 -1.39197,0.94235 -2.19467,1.60001c-0.67635,0.55414 -1.31813,1.0275 -2.11517,1.60001c-0.59824,0.42972 -0.94762,1.40878 -1.52083,2c-0.59065,0.60922 -1.27313,1.33893 -1.88533,1.79999c-0.72859,0.54871 -1.51762,0.81531 -2.09384,1.70001c-0.48067,0.73801 -1.12512,1.35013 -2.02083,1.5c-0.83818,0.14023 -1.12654,1.03189 -1.61067,1.60001c-0.63516,0.74533 -1.26662,1.39215 -1.388,2.19998c-0.13652,0.90857 -0.63722,1.57721 -1.33466,2.03336c-0.70157,0.45883 -1.435,0.70908 -2.02383,1.46216c-0.51628,0.66028 -1.46126,0.75949 -2.16367,1.22534c-0.82329,0.54605 -1.58437,0.84415 -2.23634,1.57898c-0.60173,0.67819 -1.04999,1.47388 -1.81216,1.81485c-0.71808,0.32126 -1.96387,-0.20477 -2.39467,0.52133c-0.43886,0.73969 0.43153,1.54599 1.464,1.564c0.55458,0.00967 1.54167,0 2.25633,0c1.077,0 2.091,0 2.74367,0c0.98399,0 2.02133,0 2.75267,0c0.74733,0 1.49466,0 2.92566,0c0.66,0 1.575,0 2.655,0c0.705,0 1.505,0 2.56267,0c0.65868,0 1.65601,0 2.604,0c0.642,0 1.7355,0 2.68649,0c0.91351,0 1.72417,0 2.63501,0c0.88916,0 1.87849,0 2.6785,0c1,0 1.81067,0 2.45717,0c1.22549,0 2.022,0 2.7735,0c0.9595,0 1.936,0 2.76933,0c0.9785,0 1.79866,0 2.636,0c1.01666,0 1.71133,0 2.728,0c0.94051,0 1.80267,0 2.636,0c0.97867,0 1.75267,0 2.65266,0c0.86334,0 1.84734,0 2.66867,0c0.85333,0 1.79333,0 2.77867,0c0.89999,0 1.7,0 2.59999,0c0.90001,0 1.71066,0 2.62134,0c0.85333,0 1.79333,0 2.77867,0l0.89999,0l0.8,0l0.89999,0" id="svg_14" stroke-width="2" stroke="#000" fill="none"/>
  <path t="75872,76036,76052,76052,76097,76097,76177,76177,76193,76217,76232,76232,76240,76356,76356,76371,76398,76402,76509,76624,76624,76751,76751,76751,76766,76785,76786,76793,76800,76812,76816,76832,76894,76909,76909,76937,76952,76960,76960,76968,76992,77032,77040,77040,77048,77080,77096,77128,77136,77162,77176,77176,77184,77558,77692,77692,77707,77760,77760,77816,77825,77841,77841,77855,77880,77903,77920" d="m345,198c-2.04816,0.76167 -2.3143,1.67581 -2.7045,2.34734c-0.53842,0.92659 -1.33655,1.05334 -2.01016,1.82199c-0.57889,0.66055 -0.72629,1.50903 -1.23267,2.18784c-0.54224,0.72688 -1.00986,1.09689 -1.76733,1.72684c-0.72461,0.60262 -1.24255,1.19836 -1.28534,2.116c-0.0419,0.89886 -0.50839,1.40833 -0.94284,2.15717c-0.42322,0.72948 0.29871,1.61424 1.24283,1.64284c0.90091,0.02728 1.5885,0.06676 2.52536,-0.01067c1.01654,-0.084 1.64008,-0.65443 2.14932,-1.37866c0.47125,-0.67018 1.28418,-1.03198 2.12515,-1.48933c0.7475,-0.40652 1.18256,-1.07854 2.10019,-1.12134c0.89883,-0.04192 1.53918,-0.4446 2.15717,-0.94733c0.70346,-0.57227 1.09689,-1.00986 1.72684,-1.76733c0.6026,-0.72459 1.27762,-1.04663 2.01581,-1.50684c0.71716,-0.44711 1.21158,-1.16324 1.73352,-1.94518c0.4718,-0.70682 0.61279,-1.38089 1.08133,-2.11867c0.43912,-0.69147 -0.08823,-1.75291 0.17065,-2.51466c0.30176,-0.88792 0.99744,-1.82048 0.20483,-2.14284c-0.74979,-0.30493 -1.79016,-0.05716 -2.61148,-0.05716c-0.85333,0 -1.79333,0 -2.77869,0c-0.89999,0 -1.69998,0 -2.60001,0l-0.89999,0l-0.87915,0.02083l-0.54617,0.55383" id="svg_15" stroke-width="2" stroke="#000" fill="none"/>
  <polyline timestamps="81013,81234" startTime="1444739854218" id="svg_16" points="345,202 346,201 " stroke-linecap="round" stroke-width="2" stroke="#000" fill="none"/>
  <polyline timestamps="81742,82015,82156" startTime="1444739854218" id="svg_17" points="348,201 349.69999999999993,201 350.69999999999993,201 " stroke-linecap="round" stroke-width="2" stroke="#000" fill="none"/>
  <polyline timestamps="82782,82905" startTime="1444739854218" id="svg_18" points="348,203 348,204.79999999999998 " stroke-linecap="round" stroke-width="2" stroke="#000" fill="none"/>
  <path t="83826,83892,83892,83892,83892,83908,83944,84011,84011,84027" d="m346,205c-1.83334,0.16667 -2.12219,0.86063 -2.86133,1.39999c-0.62067,0.45291 -1.50269,0.98933 -2.23868,1.4785l-0.89999,0.12151l-0.79999,0l-0.91467,0.08533" id="svg_19" stroke-width="2" stroke="#000" fill="none"/>
  <path t="85359,85519,85555,85561,85585,85601,85601,85608,85616,85624,85632,85632,85648,85656,85656,85664,85672,85688,85704,85791,85791,85817,85832,85840,85974,86028,86028,86043,86043,86072,86096,86096,86104,86104,86112,86144,86160,86168,86192,86200,86208,86232,86277,86277,86312,86336,86336,86360,86368,86368,86384,86392,86444,86511,86795,86878,86893,86921,87041,87041,87073,87073,87142" d="m374,208c-1.71466,1.084 -2.31497,1.74957 -2.91599,2.284c-0.64606,0.57449 -1.2995,0.98386 -1.884,1.51733c-0.7197,0.65689 -1.59143,1.03307 -2.18533,1.63467c-0.56641,0.57376 -1.16187,1.25372 -2.12933,1.47867c-0.86633,0.20143 -1.85684,-0.3226 -2.52817,0.19966c-0.75375,0.58638 -0.64053,1.72469 -1.45718,1.88583c-0.89795,0.17719 -1.6926,0.65654 -1.87915,1.49983c-0.19223,0.86888 -1.17151,1.45883 -0.95917,2.14734c0.24133,0.78249 1.57431,0.35266 2.591,0.35266c0.69464,0 1.76767,0.12286 2.54865,-0.28534c0.75934,-0.3969 1.51126,-0.92622 2.08884,-1.41466c0.79419,-0.67162 1.3205,-1.28934 2.20984,-1.3c0.88934,-0.01067 1.37891,-0.71204 2.11066,-0.98933c0.89255,-0.33823 1.39291,-0.7914 2.19067,-1.00934c0.88501,-0.24178 1.41483,-0.73079 2.19867,-1.168c0.65189,-0.3636 1.1882,-1.32643 2.10001,-1.71182c0.65421,-0.2765 1.73663,0.31351 2.54282,-0.17867c0.7384,-0.45079 1.41299,-1.33923 1.31052,-2.33217c-0.0777,-0.75281 -1.39789,-0.5152 -2.15335,-0.89467c-0.86719,-0.43558 -1.55716,-0.7115 -2.45267,-0.716l-0.86331,0l-0.96317,0.02083" id="svg_20" stroke-width="2" stroke="#000" fill="none"/>
  <path t="95735,95825,95825,95825,95841,95841,95841,95841,95856,95862,95871,95887,95894,95910,95910,95919,95926,95935,95959,95966,95976,95983,95983,95999,95999,96007,96015,96031,96031,96046,96046,96062,96072,96072,96104,96112,96127,96127,96151,96161,96191,96192,96244,96244,96259,96280,96289,96303,96304,96327,96328,96336,96336,96359,96368,96384,96491,96491,96491,96506,96506,97033,97049,97088,97088,97127,97151,97167,97177,97243,97243,97259,97259,97304,97409,97425,97448,97464,97472,97684,97684,97699,97699,97699,97699,97699,97699,97720,97720,97720,97736,97746,97746,97768,97768,97776,97800,97800,97839,97848,97856,97856,97863,97872,97895,97904,97911,97920,97935,97944,97944,97952,97952,97976,97976,97984,97992,98016,98016,98024,98024,98032,98040,98063,98072,98079,98079,98088,98088,98095,98104,98119,98120,98135,98136,98144,98152,98152,98162,98200,98275,98291,98307,98307,98312,98312,98440,98477,98493" d="m255,295c-1.28667,0 -1.99916,0 -3.02933,0c-0.97067,0 -1.72784,0 -2.62334,0c-0.86334,0 -1.82651,0 -2.74733,0c-0.90001,0 -1.8,0 -2.70001,0c-0.89999,0 -1.7,0 -2.59999,0c-0.90001,0 -1.8,0 -2.7,0c-0.90001,0 -1.8,0 -2.70018,0c-0.78516,0 -1.72516,0 -2.41583,0c-1.07333,0 -1.89465,0 -2.80533,0c-0.85333,0 -1.79466,0 -2.56267,0c-0.94133,0 -1.94933,0 -2.81149,0c-0.90451,0 -1.71516,0 -2.62584,0c-0.85333,0 -1.79333,0 -2.77867,0c-0.89999,0 -1.65717,0 -2.55266,0c-0.86334,0 -1.82651,0 -2.74733,0c-0.90001,0 -1.80135,0 -2.48534,0c-0.95067,0 -1.716,0 -2.71017,0c-0.91916,0 -1.88367,0 -2.80449,0c-0.90001,0 -1.8,0 -2.70018,0c-0.78516,0 -1.72516,0 -2.41583,0c-1.07333,0 -2.09903,-0.08331 -2.68266,0.56934c-0.4774,0.53387 -0.75862,1.54254 -0.80133,2.53067c-0.03886,0.89914 -0.41769,1.45441 -0.87849,2.12149c-0.50406,0.72971 -0.12151,1.7785 -0.12151,2.57849c0,0.90002 0,1.80002 0,2.70001c0,0.89999 -0.00009,1.79999 0,2.70001c0.00009,0.89981 0.28357,1.75726 1.16667,1.79999c0.6792,0.03284 1.51999,0 2.51866,0c0.83549,0 1.716,0 2.61433,0c0.879,0 1.686,0 2.886,0c0.81433,0 1.69966,0 2.63966,0c0.69067,0 1.67467,0 2.65866,0c0.69067,0 1.75883,0 2.61601,0c0.89999,0 1.7,0 2.59999,0c0.90001,0 1.8,0 2.7,0c0.90001,0 1.8,0 2.70001,0c0.89999,0 1.71432,0 2.668,0c0.73199,0 1.89867,0 2.69032,0c0.84167,0 1.74301,0 2.70834,0c0.83333,0 1.81183,0 2.52882,0c0.90451,0 1.8045,0 2.7045,0c0.90451,0 1.92561,0.05795 2.60001,-0.02084c0.99208,-0.11591 1.64833,-0.77942 2.5,-0.95831c0.89145,-0.18726 1.82133,-0.02084 2.67467,-0.02084c0.94133,0 1.70934,0 2.65067,0c1.008,0 1.76401,0 2.67467,0c0.89999,0 1.8,0 2.70134,0c0.96533,0 1.79866,0 2.77716,0c0.717,0 1.62151,0 2.5215,0l0.89999,0" id="svg_21" stroke-width="2" stroke="#000" fill="none"/>
  <path t="100081,100221,100221,100221,100236,100257,100257,100271,100287,100303,100319,100327,100351,100383,100392,100400,100415,100423,100423,100447,100471,100487,100511,100520,100527,100551,100567,100583,100592,100615,100644,100644,100709,100709,100724,100751,100783,100799,100956,100956,101010,101310,101611,101648,101664,101688,101705,101712,101720,101838,101854,101854,101872,101872,101880,101896,101904,101927,101935,101943,101967,101991,101991,101999,102007,102015,102039,102047,102047,102055,102063,102079,102111,102143,102143,102159,102183,102191,102207,102243,102259,102278,102287,102294,102295,102303,102335,102359,102383,102383,102399,102431,102431,102455,102463,102478,102494,102519,102543,102656,102689,102689,102706,102720,102727,102752,102768,102768,102974" d="m314,315c3.02933,3.944 3.7381,4.6434 4.2955,5.29999c0.64066,0.75464 0.53635,1.73645 0.78983,2.5c0.25635,0.77219 0.6217,1.77121 1.35068,2.164c0.84024,0.45279 1.41501,0.57089 1.57468,1.436c0.15344,0.83136 0.56006,1.76221 1.15598,2.43335c0.53842,0.60641 1.12305,1.22357 1.48068,1.86667c0.4744,0.85312 0.81854,1.67532 1.23132,2.39981c0.45111,0.79178 1.06744,1.25388 1.62134,1.90018c0.52417,0.61163 0.95639,1.38171 1.41599,2.19867c0.39529,0.70264 1.06537,1.23679 1.08401,2.10132c0.01938,0.89847 0.61172,1.43713 0.96399,2.13602c0.4342,0.86142 0.03601,1.86398 0.03601,2.76401c0,0.89999 0,1.79999 0,2.59998c0,0.90002 0.0054,1.80005 0,2.70001c-0.00534,0.8894 -0.55078,1.44019 -1.29999,1.85266c-0.83865,0.46173 -1.84885,0.3103 -2.53336,0.814c-0.65311,0.48059 -1.33331,0.83334 -2.16666,0.83334c-0.83334,0 -1.83447,0.12219 -2.47916,-0.52084c-0.64194,-0.64032 -0.19586,-1.95822 -0.87802,-2.422c-0.69757,-0.47427 -1.51236,-0.47839 -2.07883,-1.04248c-0.68066,-0.67783 -1.25833,-1.1608 -1.47867,-2.12933c-0.21936,-0.96423 -0.30981,-1.74396 -1.18533,-1.8855c-0.90353,-0.14606 -1.4791,-0.60327 -1.89999,-1.49985c-0.37057,-0.78934 -1.2207,-1.02167 -1.87866,-1.7215c-0.56857,-0.60477 -0.61374,-1.56934 -1.12134,-2.25766c-0.51331,-0.69604 -1.07059,-1.28448 -2,-1.52084c-0.82364,-0.20944 -1.30066,-0.82114 -2.09982,-1.00015c-0.84366,-0.18896 -1.0032,-1.23849 -1.70151,-1.71451c-0.7493,-0.51077 -1.1601,-1.05115 -1.71951,-1.78534c-0.59113,-0.77579 -1.17923,-1.19995 -1.87915,-1.89999c-0.69989,-0.69998 -1.08966,-1.39056 -1.60001,-2.07916c-0.51495,-0.69482 -0.81506,-1.25208 -1.03601,-2.12085c-0.2193,-0.86224 -0.66208,-1.78101 -1.32117,-2.34732c-0.68875,-0.5918 -1.52158,-0.78525 -2.12198,-1.55267c-0.508,-0.64932 -0.521,-1.59982 -0.80618,-2.41599l-0.81448,-0.30551l-0.61484,-0.57983l-0.31067,-0.79868" id="svg_22" stroke-width="2" stroke="#000" fill="none"/>
 </g>
 <g display="none">
  <title>muse_image</title>
  <image xlink:href="http://farm1.static.flickr.com/6/6572489_bf7440418d.jpg" id="muse" height="480" width="535" y="0" x="52.5"/>
 </g>
 <g display="none">
  <title>bbox</title>
  <rect stroke="#f00" fill="none" stroke-width="3" height="395.35714" width="451.54" y="50.35714" x="98.51" id="bbox"/>
 </g>
</svg>
