<svg width="640" height="480" xmlns="http://www.w3.org/2000/svg" xmlns:svg="http://www.w3.org/2000/svg" xmlns:xlink="http://www.w3.org/1999/xlink">
 <!-- Sketchy ANNOTATION
  ImageNet ID: n02691156_7692
  URL: http://farm4.static.flickr.com/3013/2661847151_b4e84393cc.jpg
  Image Width: 500
  Image Height: 332
  BBox X: 24
  BBox Y: 101
  BBox Width: 450
  BBox Height: 129
  Exposure: 2000ms
  Synset Label: airplane
  Synset ID: n02691156
  Worker Tag: airplane on the ground
  Sanity Check: 
   Saved
  Comment: 
   {}
  Worker ID: A1P7U2ULSAE7YL
  Assignment ID: 3B2X28YI3WF1AJJDS1G5IGIWFBSB6O
  HIT ID: 3IWA71V4TIG602OK7V3LITE3TLR6X2
  Work Time: 79s
  Worker Score: 0.7857
 END ANNOTATION -->
 <g display="inline">
  <title>Layer 1</title>
  <path t="0,276,284,284,292,292,292,300,301,308,308,308,316,316,316,324,324,332,332,332,340,340,348,348,356,356,356,364,364,364,372,372,380,380,388,388,388,396,396,397,404,404,412,412,412,420,420,420,428,428,428,436,436,444,445,452,452,452,460,460,468,468,477,477,484,484,493,494,500,500,500,508,508,508,516,516,524,524,532,532,532,532,540,540,540,548,548,548,556,556,556,564,564,564,572,572,572,580,580,580,588,588,588,596,596,596,596,604,604,604,612,612,620,620,620,628,628,628,636,636,636,644,644,644,652,652,652,652,660,660,660,668,668,668,668,676,676,677,677,684,684,684,684,693,693,693,700,700,700,700,700,708,708,708,708,716,716,716,716,724,724,724,724,732,732,732,740,740,740,740,748,748,748,748,756,756,756,756,756,764,765,765,765,765,772,772,772,772,780,780,781,781,788,788,788,788,796,797,797,797,804,804,804,812,812,812,812,820,820,820,820,830,830,830,836,836,836,844,844,844,852,852,852,862,862,862,868,868,868,876,877,877,884,884,884,893,893,900,900,900,908,908,908,916,916,924,924,932,932,940,940,940,940,948,948,956,956,964,964,964,972,972,980,981,981,988,988,996,996,1004,1004,1004,1013,1020,1020,1030,1030,1036,1036,1046,1052,1060,1060,1068,1068,1068,1076,1084,1093,1093,1109,1110,1116,1124,1124,1132,1148,1156,1156,1164,1172,1180,1188,1204,1220,1236,1236,1252,1262,1268,1268,1284,1300,1309,1316,1324,1332,1349,1356,1356,1372,1372,1381,1388,1396,1404,1413,1420,1420,1436,1452,1452,1468,1476,1500,1516,1524,1548,1564,1580,1588,1596,1604,1620,1620,1629,1636,1652,1662,1684,1692,1700,1716,1732,1732,1748,1756,1764,1772,1780,1796,1812,1836,1868,1884,1893,1909,1926,1932,1948,1956,1980,1996,2012,2028,2044,2076,2092,2131" d="m124.51137,249.09091c1.75716,0 2.66167,0 3.46166,0c0.95966,0 1.76366,0 2.58567,0c1.03117,0 1.93184,0 2.95267,0c0.81067,0 1.45717,0 2.68401,0c0.54132,0 1.36333,0 2.63066,0c0.66451,0 1.68533,0 2.48534,0c0.8,0 1.8,0 2.59999,0c1.00134,0 1.836,0 2.76668,0c0.7905,0 1.644,0 2.83333,0c0.59734,0 1.45833,0 2.66667,0c0.8125,0 1.655,0 2.375,0c1.125,0 1.911,0 2.73299,0c1.05867,0 1.76817,0 2.62083,0c1.00584,0 1.8405,0 2.77118,0c0.786,0 1.60799,0 2.66666,0c0.94133,0 1.61934,0 2.85068,0c0.54132,0 1.36333,0 2.62933,0c0.64499,0 1.6655,0 2.49649,0c0.9595,0 1.711,0 2.50751,0c1.22549,0 1.87199,0 2.88266,0c0.8,0 1.8,0 2.58934,0c1.04399,0 1.84731,0.00035 2.69733,-0.284c0.77165,-0.25813 1.67618,-0.58162 2.466,-0.65884c0.8194,-0.08012 1.88066,-0.05716 2.81133,-0.05716c0.83467,0 1.83601,0 2.636,0c1.00134,0 1.62083,0 2.76668,0c0.7905,0 1.644,0 2.23466,0c1.19867,0 2.09866,0 2.69867,0c1.19983,0 2.08932,0 2.94283,0c1.03583,0 1.73183,0 2.64117,0c1.00133,0 1.83682,0 2.42049,0c1.19534,0 2.08484,0 2.93834,0c1.03583,0 1.73183,0 2.64117,0c1.00266,0 1.85767,0 2.47766,0c1.005,0 2.091,0 2.83833,0c0.74733,0 1.83333,0 2.83383,0c0.60367,0 1.83284,0 2.5155,0c0.98399,0 1.9153,0.02869 2.7025,-0.05717c1.03374,-0.11275 1.71428,-0.39619 2.40083,-0.59016c0.95834,-0.27075 1.77225,-0.33061 2.59467,-0.34816c1.03143,-0.022 1.99434,-0.00444 2.80733,-0.0045c1.00934,-0.00009 1.8036,0.00549 2.64534,-0.02083c0.84236,-0.02635 2.0052,-0.12018 2.64534,-0.26317c0.82097,-0.18338 2.01781,-0.57895 2.81633,-0.65884c0.57825,-0.05786 1.52499,-0.05649 2.55966,-0.05716c0.73134,-0.00047 1.47867,0 2.226,0c1.43117,0 2.0955,0 3.04201,0c0.60933,0 1.812,0 2.73149,0c0.63634,0 1.64584,0 2.74084,0c0.78,0 1.60001,0 2.02499,0c1.33432,0 2.25699,0 3.17166,0c0.87466,0 2.04166,0 2.68832,0c0.83252,0 1.62003,0 2.82269,0c0.69199,0 1.41599,0 2.14798,0c1.39868,0 2.05734,0 3.03534,0c1.01401,0 1.73132,0 2.47266,0c0.74936,0 2.20801,0 2.89069,0c0.65866,0 1.63666,0 2.65067,0c0.72,0 1.47998,0 2.28,0c0.84,0 2.1745,0 3.1015,0c0.46649,0 1.3905,0 2.2825,0c1.2265,0 1.9595,0 2.98398,0c0.668,0 1.7067,0 2.43802,0c1.12201,0 1.86334,0 2.92599,0c0.66867,0 1.64667,0 2.30533,0c1.39868,0 2.13068,0 2.85468,0c0.69199,0 1.89334,0 2.66132,0c0.76801,0 1.97079,0.00586 2.67203,-0.01067c0.74954,-0.01765 1.53452,-0.04399 2.72766,-0.21066c0.79443,-0.11098 1.55597,-0.29242 2.62967,-0.49467c0.92566,-0.17438 1.70886,-0.26471 2.65332,-0.28267c1.00247,-0.01906 1.83817,-0.00133 2.42184,-0.00133c1.1955,0 2.09549,0 2.99548,0c0.89999,0 1.7955,0 2.664,0c1.06934,0 1.78333,0 2.68866,0c0.96869,0 1.77267,0 2.59467,0c1.03134,0 1.72736,0 2.63669,0c1,0 1.81598,0 2.63199,0c1,0 1.90933,0 2.85068,0c0.78598,0 1.608,0 2.66666,0c0.7095,0 1.56216,0 2.56534,0c0.94415,0 1.85318,0 2.57068,0c1.04498,0 1.85199,0 3.03064,0c0.59869,0 1.47919,0 2.31467,0c1,0 1.87469,0 2.88535,0c0.79999,0 1.79999,0 2.60001,0c0.79999,0 1.8045,0 2.436,0c1.18533,0 1.98932,0 2.81131,0c1.03101,0 1.70602,0 2.78601,0c0.828,0 1.70935,0 2.66666,0c0.73203,0 1.69019,0 2.66669,0c0.83331,0 1.81198,0 2.586,0c0.89999,0 1.76334,0.00262 2.7265,0c0.82532,-0.00226 1.83542,-0.23927 2.54166,-0.5c0.97034,-0.35822 1.76788,-0.48083 2.49384,-0.49867c0.9642,-0.0237 1.896,-0.00133 2.80649,-0.00133c0.8175,0 1.84552,0 2.56552,0c0.93866,0 1.94666,0 2.70267,0c0.91064,0 1.82132,0 2.73199,0c0.85333,0 1.79333,0 2.67865,0c0.91602,0 1.70453,0 2.60001,0c0.92084,0 1.884,0 2.57468,0c1.06818,0 1.92532,0 2.82532,0c0.80002,0 1.70001,0 2.60001,0c0.89999,0 1.80002,0 2.70001,0c0.89999,0 1.79999,0 2.69998,0c0.75717,0 1.65268,0 2.51602,0c0.96317,0 1.884,0 2.784,0c0.89999,0 1.79999,0 2.69998,0c0.80002,0 1.7579,-0.03162 2.65268,0.0045c0.69611,0.02809 1.63336,0.58328 2.44733,0.87399c0.85526,0.30547 1.81601,0.12151 2.60452,0.12151c0.89548,0 1.83026,-0.05301 2.59549,0.35266c0.84579,0.44838 1.38327,1.0452 2.05716,1.59467c0.7034,0.57353 1.41452,0.88591 2.34283,1.04817c0.88745,0.15512 1.68372,0.43582 2.35266,1.05717c0.64648,0.60049 1.47937,0.8821 2.24734,1.29999c0.84088,0.45758 1.73642,0.47917 2.5,0.73267c0.77216,0.25635 1.52734,0.68839 2.39865,0.916c0.7981,0.20848 0.54675,1.5675 1.23734,1.96268c0.74664,0.42725 1.29102,0.57437 1.92117,0.97882c0.79138,0.50792 1.45163,0.72322 2.16367,1.03633c0.79553,0.34985 1.47678,0.6376 2.18369,1.07352c0.6716,0.41415 1.51218,0.75491 2.39532,0.94748c0.84427,0.18411 1.25732,0.94717 2.09882,1.28519l0.63467,0.71466l0.16666,0.83334l0.05719,0.814" id="svg_1" stroke-width="2" stroke="#000" fill="none"/>
  <path t="2876,3163,3180,3196,3196,3244,3283,3316,3332,3357,3396,3436,3444,3468,3508,3564,3620,3652,3700,3796,3812,3820,3891,3948,3972,3995,4020,4028,4076,4116,4148,4211,4228,4244,4267,4307,4332,4348,4364,4388,4404,4411,4420,4443,4476,4483,4484,4523,4540,4556,4564,4603,4643,4668,4675,4692,4708,4716,4725,4748,4764,4780,4788,4805,4805,4836,4836,4852,4852,4859,4859,4868,4868,4876,4884,4892,4900,4916,4924,4924,4940,4948,4948,4958,4964,4964,4972,4980,4996,4996,5005,5012,5020,5028,5028,5035,5036,5044,5052,5060,5060,5068,5076,5076,5084,5092,5092,5099,5108,5116,5116,5123,5132,5132,5140,5140,5148,5148,5156,5156,5164,5164,5180,5188,5196,5196,5205,5205,5212,5221,5221,5228,5236,5244,5252,5252,5260,5260,5268,5275,5283,5292,5300,5308,5316,5324,5324,5332,5332,5340,5355,5356,5364,5364,5374,5380,5380,5388,5396,5396,5404,5404,5404,5412,5412,5421,5428,5428,5436,5436,5436,5443,5444,5452,5460,5460,5460,5468,5476,5476,5484,5484,5484,5492,5492,5500,5500,5508,5508,5508,5516,5516,5524,5524,5531,5532,5540,5540,5548,5548,5556,5556,5564,5564,5571,5572,5580,5580,5580,5587,5588,5596,5596,5604,5604,5611,5612,5621,5621,5628,5628,5636,5636,5644,5652,5652,5660,5660,5660,5667,5668,5676,5676,5684,5692,5692,5700,5708,5708,5708,5716,5716,5724,5724,5724,5732,5740,5740,5748,5748,5758,5758,5764,5764,5773,5780,5780,5791,5796,5796,5809,5810,5812,5813,5821,5821,5828,5837,5844,5844,5852,5852,5859,5860,5868,5876,5876,5876,5884,5884,5892,5900,5900,5908,5908,5915,5916,5924,5924,5925,5931,5940,5940,5941,5948,5948,5948,5957,5957,5957,5964,5974,5974,5979,5980,5980,5990,5996,5996,6007,6007,6011,6012,6012,6020,6028,6040,6040,6044,6044,6052,6052,6059,6068,6068,6083,6084,6092,6092,6099,6100,6108,6115,6124,6124,6132,6140,6140,6157,6157,6164,6174,6174,6180,6190,6190,6196,6196,6206,6220,6220,6228,6237,6237,6244,6244,6259,6259,6268,6268,6283,6292,6300,6300,6309,6324,6340,6341,6348,6357,6364,6379,6390,6396,6412,6412,6435,6444,6459,6475,6476,6484,6515,6523,6540,6548,6557,6564,6573,6574,6579,6595,6606,6627,6636,6644,6659,6660,6675,6676,6699,6708,6724,6747,6763,6779,6803,6835,6851,6883,6971,6995,7004,7059,7059,7107,7179,7227,7283,7299,7355,7356,7411,7422,7451,7483,7523,7539,7603,7699,7731,7763,7772,7788,7796,7804,7822,7828,7838,7838,7851,7860,7868,7875,7885,7891,7900,7908,7915,7931,7940,7940,7948,7956,7964,7979,7980,7988,7996,8004,8027,8037,8044,8059,8068,8076,8076,8091,8092,8092,8101,8108,8108,8123,8124,8140,8140,8148,8156,8164,8164,8172,8172,8188,8188,8189,8196,8196,8205,8206,8212,8212,8221,8222,8228,8228,8235,8236,8254,8254,8260,8260,8271,8276,8284,8291,8292,8301,8301,8308,8316,8324,8324,8332,8347,8348,8356,8372,8379,8387,8404,8405,8421,8421,8443,8444,8454,8491,8507,9083,9091,9107,9117,9124,9132,9140,9148,9163,9179,9180,9195,9195,9204,9212,9235,9244,9252,9252,9259,9271,9271,9283,9300,9300,9323,9364,9387,9411,9427,9428,9475,9491,9508,9508,9531,9563,9947,9963,9979,9995,10004,10012,10035,10059,10083,10091,10102,10116,10123,10124,10132,10140,10149,10163,10171,10179,10187,10204,10212,10227,10228,10236,10244,10259,10283,10283,10299,10308,10319,10324,10339,10349,10356,10371,10387,10404,10435,10475,10486,10503,10508,10523,10531,10563,10579,10588,10596,10611,10627,10659,10683,10707,10739,10763,10779,10827" d="m453.51135,262.09091c1.83334,0.16666 2.27008,0.77368 3.10001,1.22134c0.64764,0.34933 1.5,0.76791 2.39999,0.77866c0.88934,0.01059 1.37393,0.72559 2.11069,0.98932c0.83734,0.29974 2.04236,-0.16632 2.37866,0.58536c0.3475,0.77673 0.78546,1.36194 1.00616,2.12982c0.24738,0.86069 0.00449,1.7955 0.00449,2.68484c0,0.896 0.15002,1.8233 -0.00015,2.71048c-0.14401,0.85077 -0.64807,1.33002 -1.28516,1.81485c-0.73007,0.5556 -1.62256,0.4704 -2.14001,1.06c-0.55972,0.63776 -1.27917,1.02307 -2.17465,1.02533c-0.90002,0.00226 -1.78934,0.01065 -2.40002,0.5c-0.61066,0.48932 -1.5,0.5 -2.39999,0.5c-0.89548,0 -1.33743,0.55978 -2.03598,0.96399c-0.74475,0.43094 -1.37274,0.70221 -2.08484,1.01517c-0.80539,0.35397 -1.69797,0.52136 -2.47919,0.85419c-0.75153,0.32019 -1.82343,-0.24606 -2.64282,0.22382c-0.68784,0.39444 -1.29828,0.8584 -1.92117,1.51752c-0.61404,0.64978 -0.95663,1.41489 -1.836,1.42532c-0.89993,0.01068 -1.89786,-0.15936 -2.54733,0.35266c-0.61459,0.48453 -1.45267,0.64667 -2.35266,0.64734c-0.89865,0.00067 -1.44827,0.52847 -2.26801,0.91467c-0.66141,0.31161 -1.76532,0.08533 -2.47366,0.08533c-0.95834,0 -1.74765,0 -2.79166,0c-0.79199,0 -1.81934,0 -2.51401,0c-1.01666,0 -1.95267,0 -2.85132,0c-0.88535,0 -1.68802,0 -2.62668,0c-0.69067,0 -1.81598,-0.01385 -2.65866,0.284c-0.70651,0.24973 -1.62759,0.67328 -2.51602,0.716c-0.79907,0.03842 -1.69998,0 -2.64282,0c-0.92648,0 -1.70898,0 -2.72116,0c-0.836,0 -1.73599,0 -2.63602,0c-0.75714,0 -1.84412,-0.09134 -2.51599,0.08533c-1.01416,0.26666 -1.68097,0.87195 -2.58417,0.91467c-0.78427,0.03708 -1.72516,0 -2.73315,0c-0.75601,0 -1.6875,0 -2.65067,0c-0.69067,0 -1.75885,0 -2.616,0c-0.90002,0 -1.70001,0 -2.65717,0c-0.90002,0 -1.64734,0 -2.64285,0c-0.79999,0 -1.79999,0 -2.60001,0c-1,0 -1.78931,0 -2.83331,0c-0.80499,0 -1.6875,0 -2.57733,0c-0.91068,0 -1.76401,0 -2.70535,0c-0.76797,0 -1.70959,-0.02399 -2.71732,0c-0.75665,0.01801 -1.47702,0.61813 -2.36667,0.91467c-0.85764,0.28589 -1.80002,0.08533 -2.55716,0.08533c-0.89551,0 -1.75885,0 -2.72202,0c-0.92084,0 -1.82083,0 -2.72083,0c-0.89984,0 -1.78534,0 -2.66135,0c-0.97198,0 -1.76398,0 -2.62265,0c-0.86334,0 -1.7634,-0.0112 -2.68268,0c-0.85434,0.01044 -1.84872,0.12424 -2.612,0.42532c-0.90909,0.35858 -1.66415,0.57468 -2.40668,0.57468c-1.06198,0 -1.98132,0 -2.83548,0c-0.97919,0 -1.77917,0 -2.57916,0c-0.99551,0 -1.74283,0 -2.77469,0c-0.94681,0 -1.64615,0 -2.62534,0c-0.79999,0 -1.59998,0 -2.59549,0c-0.91916,0 -1.78983,0 -2.73782,0c-0.90668,0 -1.60419,0 -2.66669,0c-0.85464,0 -1.54166,0 -2.83331,0c-0.7095,0 -1.56216,0 -2.56668,0c-0.79999,0 -1.80264,0.04736 -2.60001,-0.02084c-1.0069,-0.08612 -1.58731,-0.3688 -2.39999,-0.6265c-0.98669,-0.3129 -1.79996,-0.34732 -2.79999,-0.35266c-0.80002,-0.00427 -1.80002,0 -2.58932,0c-1.04401,0 -1.84952,0.00684 -2.69601,-0.284c-0.73901,-0.25391 -1.71024,-0.63657 -2.49384,-0.69516c-0.99692,-0.07455 -1.7735,-0.02084 -2.6825,-0.02084c-0.79999,0 -1.75967,0 -2.56366,0c-0.82202,0 -1.853,0 -2.733,0c-1.02032,0 -1.79434,0 -2.69885,0c-0.74731,0 -1.74283,0 -2.54282,0c-1,0 -1.80002,0 -2.80002,0c-0.97916,0 -1.83331,0 -2.6955,0c-0.94049,0 -1.79117,0 -2.55115,0c-1.1745,0 -1.96802,0 -2.7435,0c-1.0405,0 -1.758,0 -2.66251,0c-0.86334,0 -1.84735,0 -2.83133,0c-0.69067,0 -1.63205,0.00839 -2.68268,0c-0.6694,-0.00534 -1.44498,-0.04922 -2.43784,-0.35266c-0.86276,-0.26367 -1.8158,-0.53204 -2.59949,-0.62201c-0.72839,-0.08362 -1.60208,-0.64517 -2.36667,-0.94c-0.78583,-0.30304 -1.82935,-0.08533 -2.62933,-0.08533c-0.99985,0 -1.77917,0 -2.7785,0c-0.82016,0 -1.77866,0 -2.67416,0c-0.69467,0 -1.72202,0 -2.66867,0c-0.85333,0 -1.79468,0 -2.56265,0c-0.95203,0 -1.71735,0 -2.71152,0c-0.74731,0 -1.76849,0 -2.709,0c-0.86217,0 -1.6955,0 -2.67416,0c-0.774,0 -1.67404,0.00894 -2.53734,0c-1.00499,-0.01044 -1.81931,-0.1597 -2.73466,-0.42532c-0.74567,-0.21637 -1.77525,-0.53067 -2.54666,-0.57333c-0.83739,-0.04633 -1.85983,-0.00134 -2.60716,-0.00134c-0.9955,0 -1.79559,0.01285 -2.7955,-0.00015c-0.8002,-0.01041 -1.80875,-0.1412 -2.58934,-0.42517c-0.73431,-0.26715 -1.59547,-0.55667 -2.54399,-0.57468c-0.92784,-0.01761 -1.71851,0 -2.74535,0c-0.696,0 -1.60541,0.01154 -2.60399,-0.00134c-0.79668,-0.01028 -1.57875,0.00354 -2.65601,-0.42398c-0.85799,-0.34048 -1.49692,-0.55667 -2.66133,-0.57468c-0.78925,-0.01221 -1.51466,0 -2.5,0c-0.98534,0 -1.71074,0.01273 -2.7,-0.00015c-0.8002,-0.01041 -1.80875,-0.1412 -2.58934,-0.42517c-0.73431,-0.26715 -1.68967,-0.56424 -2.62134,-0.57468c-0.91077,-0.01019 -1.61015,0 -2.58932,0c-0.78934,0 -1.83333,0 -2.6955,0c-0.82533,0 -1.78717,0 -2.59467,0c-0.99783,0 -1.68184,0 -2.71518,0c-0.74399,0 -1.85165,0 -2.68565,0c-0.90901,0 -1.82983,0 -2.63034,0c-0.85333,0 -1.79333,0 -2.77884,0c-0.78516,0 -1.72516,0 -2.41583,0c-1.10933,0 -1.96799,0 -2.83133,0c-0.89549,0 -1.86775,0.07486 -2.53799,-0.08533c-0.97221,-0.23239 -1.605,-0.75983 -2.668,-0.90402c-0.8815,-0.11957 -1.632,-0.01065 -2.6895,-0.01065c-0.85735,0 -1.6425,0 -2.59317,0c-0.76534,0 -1.76401,0 -2.564,0c-0.99734,0 -1.88568,0 -2.8215,0c-0.87851,0 -1.7785,0 -2.57851,0c-0.89999,0 -1.836,0 -2.68399,0c-0.86334,0 -1.88,0 -2.716,0c-0.89984,0 -1.82568,0.02316 -2.60133,0c-0.95712,-0.02859 -1.83978,-0.38153 -2.54601,-0.64734c-0.88255,-0.33215 -1.85266,-0.35266 -2.75267,-0.35266c-0.89999,0 -1.7,0 -2.61465,0c-0.89601,0 -1.78534,0 -2.68533,0c-0.90001,0 -1.8,0 -2.70001,0c-0.89999,0 -1.7,0 -2.59999,0c-0.90001,0 -1.77917,0 -2.65717,0c-0.94284,0 -1.84415,0.04852 -2.74301,-0.00015c-0.7886,-0.04272 -1.53046,-0.4101 -2.41583,-0.71585c-0.94377,-0.32593 -1.784,-0.284 -2.68399,-0.284c-0.89984,0 -1.82533,0 -2.60133,0c-0.89867,0 -1.79868,0 -2.69867,0c-0.89999,0 -1.8,0.00009 -2.7,0c-0.89999,-0.00009 -1.75568,-0.23862 -2.5,-0.64734c-0.74232,-0.40762 -1.736,-0.35266 -2.6,-0.35266c-0.9,0 -1.8,0 -2.7,0c-0.8,0 -1.7,-0.05716 -2.5,-0.5c-0.8,-0.44284 -1.7,-0.5 -2.59983,-0.5c-0.87484,0 -1.7015,0 -2.60017,0c-0.89999,0 -1.85197,0.28909 -2.68933,-0.01068c-0.73674,-0.26373 -1.26215,-1.03943 -1.66333,-1.69382c-0.47308,-0.77167 -1.32018,-1.09088 -2.14734,-1.58084c-0.68087,-0.40332 -1.20858,-1.10229 -1.716,-1.91333c-0.45884,-0.7334 -1.3737,-0.65256 -2.03133,-1.15399c-0.67686,-0.51608 -1.06177,-1.24597 -1.75716,-1.70001c-0.75789,-0.49487 -1.08,-1.32333 -1.51701,-2.04715c-0.4368,-0.72348 -1.50095,-0.74713 -2.16783,-1.33618c-0.69549,-0.61432 -0.90037,-1.62091 -1.258,-2.26401c-0.47442,-0.85312 -0.60141,-1.97086 -1.43667,-2.29865c-0.85269,-0.33463 -1.87051,0.08527 -2.48,-0.612c-0.58238,-0.66626 -0.27918,-1.80475 -0.87883,-2.4895c-0.47097,-0.53781 -1.42973,-1.03674 -1.92117,-1.72519c-0.47412,-0.6642 -1.03728,-1.35252 -1.46934,-2.17465c-0.37499,-0.71355 -0.71929,-1.49927 -1.352,-2.17467c-0.6317,-0.67432 -1.47668,-1.21449 -1.7575,-2.12534c-0.26572,-0.86186 -0.18065,-1.7354 -0.76167,-2.39999c-0.56059,-0.64124 -1.18083,-1.18533 -1.95267,-1.95717c-0.5535,-0.5535 -0.94417,-0.94417 -1.7415,-1.7415c-0.5805,-0.58051 -1.43467,-1.43466 -1.96533,-1.96533c-0.636,-0.636 -1.27816,-1.24316 -1.73583,-1.95734c-0.41949,-0.6546 -0.73956,-1.66722 -0.95284,-2.43134c-0.2539,-0.90964 -0.78395,-1.64859 -0.94733,-2.58066c-0.14723,-0.83997 -0.24197,-1.81525 -0.7045,-2.36217c-0.62953,-0.74438 -1.39169,-1.31911 -1.90617,-1.95117c-0.6459,-0.79352 -1.00532,-1.50955 -1.26801,-2.33183c-0.25729,-0.80537 -0.73372,-1.60373 -1.096,-2.42149c-0.34761,-0.78465 -0.93861,-1.30916 -1.50449,-2.12083c-0.51157,-0.73378 -0.31429,-1.78874 -0.95684,-2.41785c-0.68307,-0.66878 -1.18471,-1.18228 -1.73066,-1.89465c-0.50691,-0.66144 -0.77801,-1.35365 -0.83467,-2.28267c-0.04704,-0.77115 -0.46806,-1.6924 -0.71466,-2.40001c-0.32198,-0.92389 -0.1986,-1.96153 -0.568,-2.68399c-0.4418,-0.86406 -0.5617,-1.71626 0.284,-1.8c0.79743,-0.07896 1.7,0 2.6,0c0.9,0 1.8,0 2.7045,0c0.86217,0 1.6955,0 2.674,0c0.82017,0 1.7215,0 2.66433,0c0.87801,0 1.76784,0 2.6785,0c0.85333,0 1.79333,0 2.67867,0c0.8,0 1.636,0 2.65266,0c0.69467,0 1.70067,0 2.63267,0c0.91467,0 1.81467,0 2.71467,0c0.8,0 1.7,0 2.636,0c0.848,0 1.71133,0 2.60683,0c0.95583,0 2.11414,-0.61288 2.7465,0.036c0.53419,0.54816 0.06516,1.6655 0.51067,2.464c0.44466,0.797 1.0407,1.37463 1.5,2.02083c0.4955,0.69711 0.85013,1.58347 1,2.47917c0.14025,0.83818 0.96032,1.23032 1.7,1.64734c0.74501,0.42003 1.17616,1.06029 1.72533,1.74199c0.60255,0.74796 1.3624,0.91711 1.576,1.80934c0.17951,0.74982 0.85287,1.24954 1.00317,2.10133c0.16383,0.92845 0.85715,1.4463 1.38483,2.09999c0.60092,0.74442 1.05261,1.38559 1.80933,1.88535c0.60892,0.40215 0.67803,1.55244 1.32217,2.19383c0.64248,0.63976 1.78197,0.3553 2.4265,0.87349c0.61137,0.49153 0.65576,1.263 1.0735,2.12651c0.33961,0.70201 1.68905,0.4082 1.97466,1.16817c0.3001,0.79851 0.65598,1.40277 1.05717,2.05716c0.47309,0.77168 1.28643,1.18623 1.922,1.72084c0.64935,0.5462 0.61546,1.42285 1.09734,2.13866c0.48886,0.72618 1.5214,0.54126 1.98517,1.08334c0.60711,0.70963 1.18056,1.14536 2.04266,1.35283c0.84013,0.20218 1.25284,0.94716 1.87933,1.52066l0.02084,0.8685" id="svg_2" stroke-width="2" stroke="#000" fill="none"/>
  <path t="13252,13435,13444,13451,13459,13475,13483,13483,13491,13491,13499,13499,13507,13516,13516,13523,13532,13532,13539,13539,13548,13548,13555,13555,13555,13563,13564,13571,13572,13579,13588,13588,13588,13595,13596,13603,13604,13611,13612,13612,13619,13619,13628,13628,13628,13635,13635,13645,13645,13645,13651,13652,13659,13660,13660,13668,13668,13668,13668,13675,13675,13676,13676,13684,13684,13691,13691,13692,13692,13700,13700,13700,13700,13707,13707,13707,13707,13716,13716,13723,13723,13723,13732,13732,13732,13739,13748,13748,13748,13748,13755,13755,13764,13764,13764,13771,13771,13772,13779,13779,13787,13788,13788,13796,13796,13796,13804,13804,13811,13812,13819,13819,13828,13828,13828,13836,13836,13836,13845,13845,13845,13852,13852,13862,13862,13862,13862,13869,13869,13869,13876,13876,13884,13884,13884,13884,13891,13891,13891,13900,13900,13900,13907,13908,13908,13916,13916,13916,13916,13923,13923,13923,13931,13932,13932,13939,13939,13947,13947,13947,13947,13955,13955,13955,13955,13965,13965,13971,13971,13971,13981,13981,13981,13982,13987,13987,13987,13988,13995,13995,13995,14003,14003,14003,14015,14019,14019,14019,14027,14028,14035,14035,14044,14044,14051,14051,14061,14061,14061,14067,14067,14067,14075,14075,14083,14084,14084,14091,14091,14099,14100,14100,14107,14107,14107,14115,14116,14116,14123,14123,14123,14132,14132,14132,14139,14139,14150,14150,14155,14155,14165,14165,14165,14171,14181,14181,14187,14187,14198,14203,14203,14211,14219,14228,14228,14236,14244,14283,14579,14595,14603,14603,14619,14619,14631,14635,14635,14643,14660,14667,14676,14683,14699,14699,14707,14723,14739,14755,14755,14771,14780,15131,15163,15171,15187,15197,15197,15203,15211,15230,15235,15244,15251,15251,15267,15276,15299,15323,15331,15331,15355,15363,15371,15387,15397,15403,15411,15419,15430,15444,15451,15459,15467,15476,15483,15483,15492,15492,15500,15508,15516,15540,15540,15549,15556,15556,15572,15588,15589,15598,15598,15604,15614,15631,15631,15648,15648,15653,15653,15664,15664,15669,15669,15677,15694,15701,15701,15710,15710,15717,15725,15733,15741,15756,15757,15765,15765,15781,15781,15788,15797,15797,15804,15812,15820,15831,15852,15864,15868,15876,15900,15900,15910,15924,15933,15940,15949,15956,15965,15981,15997,16004,16012,16031,16036,16036,16047,16064,16064,16068,16078,16093,16093,16110,16124,16140,16149,16156,16156,16165,16181,16188,16204,16205,16214,16220,16230,16236,16252,16268,16280,16284,16285,16293,16300,16316,16332,16340,16349,16356,16380,16389,16397,16397,16414,16420,16428,16447,16452,16453,16468,16485,16508,16517,16526,16532,16556,16572,16596,16636,16772" d="m368.51135,270.09091c-1.69998,0 -2.59998,0 -3.5,0c-0.97916,0 -1.88315,-0.07495 -2.82132,0.22134c-0.69958,0.22095 -1.50119,0.68369 -2.30399,0.76797c-1.02185,0.10727 -1.76486,-0.03394 -2.73868,0.436c-0.77856,0.37573 -1.52133,0.57401 -2.46133,0.57468c-1.008,0.00073 -1.81351,-0.00684 -2.66,0.284c-0.73901,0.25391 -1.71558,0.58884 -2.51468,0.716c-1.00119,0.15933 -1.79044,0.45303 -2.39999,0.64734c-0.98532,0.31409 -1.83005,0.20343 -2.71466,0.638c-0.76901,0.37778 -1.38541,1.30743 -2.21866,1.548c-0.89023,0.25702 -1.66223,0.12488 -2.69733,0.168c-0.71906,0.02994 -1.6152,0.39841 -2.431,0.646c-0.94443,0.28665 -1.75259,0.33023 -2.5285,0.34818c-1.04156,0.02408 -1.82391,0.02744 -2.77917,0.28983c-0.7594,0.20859 -1.55209,0.50589 -2.54535,0.91333c-0.6673,0.27374 -1.68274,0.65033 -2.48532,0.776c-0.7977,0.12491 -1.79544,0.40573 -2.436,0.60001c-1.17111,0.35519 -1.72034,0.38757 -2.57465,0.41464c-1.18881,0.03769 -2.0943,0.00278 -2.71017,0.03152c-0.96561,0.04507 -2.00177,0.19199 -2.72284,0.33182c-0.71634,0.13892 -1.69247,0.41724 -2.70435,0.56201c-0.90436,0.12939 -1.81653,0.07379 -2.74933,0.09598c-0.69894,0.0166 -1.42712,0.03537 -2.48132,0.21069c-1.0029,0.16681 -1.64212,0.37656 -2.30533,0.49466c-1.39084,0.24768 -2.13043,0.25577 -2.85468,0.27332c-0.69183,0.01675 -1.89502,-0.03769 -2.87601,0.04669c-0.9574,0.08234 -1.73538,0.3266 -2.56,0.53867c-1.05545,0.27142 -1.76276,0.38461 -2.56366,0.42084c-1.04623,0.04733 -1.99881,0.33096 -2.67151,0.70981c-0.51395,0.28946 -1.27133,0.8334 -2.30484,1.12402c-0.85419,0.24017 -1.88675,0.14148 -2.70615,0.1915c-0.66641,0.04068 -1.67053,0.23688 -2.45834,0.5c-0.7608,0.25412 -1.66885,0.87537 -2.48883,1.19382c-0.77112,0.29947 -1.57352,0.27328 -2.43466,0.284c-1.19592,0.01489 -1.79019,-0.0318 -2.64017,0.0585c-1.04257,0.11075 -1.89041,0.51813 -2.7905,0.77618c-0.77594,0.22247 -1.82834,0.16666 -2.62833,0.16666c-0.95984,0 -1.77435,0 -2.64285,0c-0.89551,0 -1.79099,0 -2.65948,0c-1.06934,0 -1.77884,-0.00058 -2.6315,0c-1.00583,0.00067 -1.84747,-0.00647 -2.77118,0.16666c-0.79819,0.1496 -1.63937,0.42889 -2.23465,0.54935c-1.18961,0.24069 -2.0777,0.27179 -2.91336,0.28265c-1.00124,0.01303 -1.69476,-0.03986 -2.85199,0.168c-0.7993,0.14355 -1.34656,0.3671 -2.23466,0.54935c-1.19022,0.24426 -1.79828,0.26205 -2.69867,0.27951c-1.19962,0.02325 -1.7955,0.00449 -2.664,0.00449c-1.06932,0 -2.02133,-0.00006 -2.74582,0c-1.13301,0.00009 -1.80028,-0.00497 -2.511,0.02084c-0.73141,0.02658 -2.16039,0.1868 -2.8175,0.33182c-0.91943,0.20291 -1.99304,0.49359 -2.7045,0.59467c-0.85062,0.12082 -1.85306,0.35297 -2.478,0.55267c-1.13672,0.36325 -1.9402,0.45499 -2.52084,0.47916c-0.94438,0.03931 -1.97949,0.02084 -2.7065,0.02084c-0.731,0 -1.78255,-0.00949 -2.70883,0.00015c-1.00148,0.01044 -2.04472,0.16095 -2.65199,0.35251c-0.90799,0.28641 -1.72214,0.50134 -2.70084,0.59467c-0.70973,0.06769 -1.44754,0.06137 -2.5235,0.21933c-1.01643,0.14923 -1.64925,0.34326 -2.56534,0.63467c-0.90465,0.28775 -1.78291,0.61578 -2.64417,0.84149c-1.02733,0.26923 -1.72993,0.2384 -2.4705,0.44116c-1.05132,0.28781 -1.81465,0.79495 -2.73734,0.88c-0.74153,0.06833 -1.79161,-0.04697 -2.4975,0.09317c-0.93753,0.18613 -1.63763,0.67325 -2.6505,0.85751c-0.75655,0.13763 -1.72,0.0849 -2.46834,0.08533c-1.18633,0.00067 -1.82077,-0.01022 -2.493,0.03601c-1.31009,0.09009 -2.1234,0.32391 -2.81866,0.53867c-1.0181,0.31448 -1.82126,0.40823 -2.82133,0.42532c-0.79996,0.01367 -1.61119,0.04639 -2.60451,0.35266c-0.63968,0.19724 -1.55833,0.51297 -2.34816,0.59018c-0.81941,0.08011 -1.88066,0.05716 -2.82201,0.05716c-0.67799,0 -1.91066,0 -2.46133,0c-0.8685,0 -2.064,0 -2.96399,0c-0.60001,0 -1.8,0 -2.69101,0c-0.56732,0 -1.79103,-0.1358 -2.56732,0.02084c-0.89507,0.1806 -1.49789,0.77634 -2.55151,0.922c-0.76956,0.10641 -1.82349,0.05716 -2.52849,0.05716c-0.8,0 -1.83633,0 -2.783,0c-0.85333,0 -1.79468,-0.00433 -2.56267,0c-0.94138,0.00534 -1.95239,0.16077 -2.59517,0.5c-0.82484,0.43533 -1.72083,0.5 -2.621,0.5c-0.78516,0 -1.71449,0 -2.65683,0c-0.85367,0 -1.743,0 -2.65367,0c-0.91066,0 -1.76399,0 -2.70532,0c-0.76801,0 -1.70934,0 -2.71733,0c-0.75601,0 -1.64584,0 -2.60268,0c-0.864,0 -1.76399,0 -2.664,0c-0.89999,0 -1.7,0 -2.59999,0c-0.90001,0 -1.82118,0.02472 -2.78267,-0.00134c-0.65668,-0.01779 -1.37363,-0.72504 -2.12801,-0.98801c-0.86626,-0.30197 -0.08577,0.31451 0.52534,-0.29465c0.5376,-0.53586 1.22333,-0.75143 1.72816,-1.4205c0.56664,-0.75098 1.06174,-1.2829 1.95717,-1.2955c0.90015,-0.01266 1.61879,-0.50052 2.39999,-0.83334c0.75154,-0.32019 1.7,-0.16666 2.60001,-0.16666c0.96399,0 1.65926,-0.52997 2.5,-0.87851c0.6561,-0.27197 1.59999,-0.12149 2.5,-0.12149c0.89999,0 1.79999,0.00201 2.7,0c0.9955,-0.00226 1.5069,-0.67041 2.22083,-0.97916c0.79738,-0.34485 1.25734,-0.62823 1.91518,-0.98483c0.84807,-0.45972 1.86873,0.05484 2.76399,-0.03735c0.81261,-0.08368 1.52795,-0.75674 2.45267,-0.9415c0.68317,-0.13651 1.74846,0.19876 2.64284,-0.06165c0.75844,-0.22083 1.03783,-0.99551 1.88983,-0.99551c0.92934,0 1.81502,0.02386 2.61467,0c0.95845,-0.02859 1.87253,-0.32001 2.54733,-0.7045c0.793,-0.45181 1.41969,-1.14655 2.35266,-1.29102c0.85384,-0.1322 1.63072,-0.41458 2.272,-0.80582c0.75948,-0.46335 1.51288,-0.73212 2.69467,-1.03201c0.80394,-0.20401 1.65186,-0.39493 2.33333,-0.66666c0.97459,-0.38861 1.79207,-0.59534 2.5,-1c0.79727,-0.45572 1.82561,-0.44205 2.5,-0.52084c0.99208,-0.11591 1.64836,-0.7793 2.5,-0.95831c0.88098,-0.18518 1.8,-0.02084 2.70134,-0.02084c0.96533,0 1.83897,0.12799 2.63199,-0.16666c0.87889,-0.32657 1.38478,-1.23364 2.05334,-1.54935c0.87791,-0.41455 1.9467,-0.27515 2.70265,-0.284c0.89003,-0.01044 1.40495,-0.81808 2.21201,-0.99866c0.87698,-0.19623 1.79868,-0.00134 2.69867,-0.00134c0.89999,0 1.87158,0.22647 2.66667,-0.16666c0.64661,-0.3197 1.43329,-0.828 2.33333,-0.83334c0.89998,-0.00531 1.85017,0.07306 2.47467,-0.42532c0.60796,-0.4852 1.42532,-0.57468 2.32533,-0.57468c0.89999,0 1.93091,0.24265 2.616,-0.284c0.63062,-0.48477 1.42897,-0.55292 2.22267,-0.75201c0.87227,-0.21881 1.42763,-0.9173 2.21317,-0.9595c1.01071,-0.05432 1.99823,0.12717 2.74817,-0.22583c0.77551,-0.36505 1.51779,-0.77023 2.29999,-1.20398c0.82014,-0.45477 1.70001,-0.57468 2.60001,-0.57468c0.8,0 1.42892,-0.3707 2.2215,-0.87851c0.74675,-0.47845 1.7789,-0.09613 2.57851,-0.12149c0.90135,-0.02859 1.59442,-0.43451 2.39867,-0.91602c0.74361,-0.44519 1.32201,-1.07138 2.20132,-1.08398c0.89993,-0.01291 1.63667,-0.32614 2.40001,-0.716c0.7529,-0.38455 1.7,-0.284 2.59999,-0.284c0.90001,0 1.88567,0.14343 2.54733,-0.35266c0.66843,-0.50116 1.49652,-0.53558 2.35268,-0.65182c0.82133,-0.11151 1.46861,-0.84735 2.39999,-0.99103c0.8895,-0.13721 1.83475,0.04843 2.60001,-0.35715c0.8459,-0.4483 1.5,-0.64667 2.39999,-0.64734c0.94284,-0.0007 1.76228,-0.41345 2.216,-1.19867c0.40308,-0.69757 1.284,-0.80133 2.18399,-0.80133c0.89999,0 1.73334,-0.16666 2.12152,-0.87851l0.87848,-0.12149" id="svg_3" stroke-width="2" stroke="#000" fill="none"/>
  <path t="17493,17652,17660,17668,17677,17685,17695,17701,17701,17712,17712,17716,17716,17725,17733,17733,17741,17741,17749,17749,17749,17758,17764,17764,17773,17773,17781,17781,17788,17788,17797,17797,17804,17813,17829,17829,17837,17846,17846,17853,17853,17863,17869,17885,17885,17900,17900,17912,17916,17928,17932,17933,17941,17941,17948,17958,17958,17964,17973,17981,17981,17989,17989,17997,17997,18004,18013,18020,18029,18046,18046,18052,18053,18062,18062,18069,18078,18084,18084,18100,18112,18116,18128,18132,18141,18141,18149,18149,18157,18164,18174,18181,18220,18229,18252,18253,18269,18285,18285,18295,18300,18316,18328,18332,18349,18366,18375,18382,18382,18389,18397,18405,18420,18429,18445,18462,18484,18508,18508,18524,18564,18980,18996,19012,19028" d="m261.51135,265.09091c1.70001,-0.99551 2.60001,-1 3.5,-1c0.90002,0 1.80002,0 2.70135,0c0.96533,0 1.79865,0 2.63199,0c0.91934,0 1.81934,0 2.68268,0c0.85867,0 1.80548,0 2.69467,0c0.98932,0 1.78931,0 2.78931,0c0.78934,0 1.51468,0 2.5,0c0.98535,0 1.71069,0 2.70001,0c0.79999,0 1.79999,0 2.58932,0c1.04401,0 1.836,0 2.69467,0c0.86334,0 1.88,0 2.716,0c0.90018,0 1.68533,0 2.62534,0c1.008,0 1.79999,0 2.65866,0c0.86334,0 1.88,0 2.71735,0c0.96533,0 1.79865,0 2.63199,0c0.86218,0 1.76666,0 2.66666,0c0.91068,0 1.82135,0 2.67468,0c0.94135,0 1.70932,0 2.65067,0c1.008,0 1.76401,0 2.67465,0c0.91068,0 1.8215,0 2.71069,0c0.98917,0 1.76849,0 2.62265,0c0.86218,0 1.76666,0 2.66666,0c0.90002,0 1.8045,0 2.66669,0c0.85416,0 1.83331,0 2.62265,0c1.04401,0 1.80002,0 2.71066,0c0.91068,0 1.82135,0 2.67468,0c0.94,0 1.97913,-0.32239 2.70401,0.22134c0.64301,0.4823 1.32132,0.77866 2.2215,0.77866c0.78516,0 1.72516,0 2.41583,0c1.07333,0 1.98398,0 2.884,0c0.89548,0 1.8215,0 2.69998,0c0.89999,0 1.70001,0 2.53601,0c1.01666,0 1.71133,0 2.728,0c0.936,0 1.836,0 2.73584,0c0.87482,0 1.44772,0.44614 2.18549,0.91467c0.69147,0.43912 1.71466,0.08533 2.51468,0.08533c0.89999,0 1.79999,0 2.69998,0c0.90002,0 1.80002,0 2.69867,0c0.91116,0 1.82217,0 2.63467,0c0.86218,0 1.76669,-0.0054 2.66666,0c0.8894,0.00534 1.47919,0.52084 1.47919,1.47916l-0.58984,0.54617" id="svg_4" stroke-width="2" stroke="#000" fill="none"/>
  <path t="20229,20452,20452,20461,20461,20461,20468,20476,20476,20484,20484,20492,20500,20500,20508,20516,20516,20524,20524,20532,20532,20540,20548,20556,20564,20572,20572,20580,20580,20588,20588,20596,20596,20604,20604,20612,20612,20621,20621,20628,20628,20638,20638,20638,20644,20644,20652,20652,20660,20660,20660,20660,20668,20668,20676,20676,20676,20684,20684,20692,20693,20693,20700,20700,20700,20709,20709,20709,20716,20716,20724,20724,20732,20732,20732,20740,20748,20748,20748,20756,20756,20756,20764,20764,20772,20772,20780,20780,20780,20788,20788,20788,20796,20796,20804,20812,20812,20812,20821,20821,20821,20821,20821,20828,20828,20828,20837,20837,20845,20845,20845,20854,20854,20854,20854,20861,20861,20861,20868,20868,20876,20877,20884,20884,20884,20892,20892,20900,20900,20900,20908,20908,20916,20924,20925,20925,20932,20932,20941,20941,20941,20948,20948,20948,20958,20958,20964,20964,20974,20975,20975,20980,20991,20991,20996,21007,21024,21024,21037,21044,21044,21068,21596,21606,21624,21628,21636,21644,21652,21660,21669,21684,21692,21692,21708,21708,21716,21716,21724,21741,21741,21748,21763,21764,21774,21774,21780,21790,21796,21812,21812,21824,21836,22164,22174,22190,22212,22224,22224,22241,22244,22253,22253,22260,22269,22276,22276,22285,22300,22300,22309,22325,22325,22332,22332,22348,22348,22357,22357,22372,22380,22390,22396,22412,22428,22428,22440,22440,22444,22452,22460,22460,22469,22476,22476,22485,22500,22500,22509,22509,22525,22525,22525,22532,22532,22540,22548,22548,22572,22581,22590,22596,22612,22612,22612,22623,22628,22640,22656,22660,22660,22676,22700,22708,22708,22716,22732,22741,22756,22773,22790,22812,22823,22828,22840,22856,22860,22884,22884,22893,22916" d="m352.51135,245.09091c-1.33331,-0.83333 -2.05765,-0.92552 -3,-1.16667c-0.80795,-0.20676 -1.48941,-0.67339 -2.37466,-1.22266c-0.77151,-0.4787 -1.65924,-0.48903 -2.45865,-0.77734c-0.80814,-0.29146 -1.57739,-0.79547 -2.48785,-0.8335c-0.81754,-0.03415 -1.5166,-0.54187 -2.24814,-1.19983c-0.54611,-0.49118 -1.35941,-0.97879 -2.056,-1.364c-0.81168,-0.44885 -1.73584,-0.27896 -2.73868,-0.44667c-0.86624,-0.14487 -1.50757,-0.92778 -2.28268,-0.98933c-0.83469,-0.06628 -1.7529,0.06862 -2.60065,-0.35716c-0.6937,-0.34842 -1.38327,-1.00246 -2.15717,-1.28568c-0.96912,-0.35464 -1.79562,-0.33867 -2.79535,-0.35733c-0.77948,-0.01456 -1.74313,-0.29362 -2.55283,-0.64717c-0.87332,-0.38133 -1.66708,-0.34741 -2.64734,-0.63666c-0.61163,-0.18048 -1.59741,-0.56497 -2.39999,-0.69067c-0.7977,-0.12492 -1.82004,-0.33394 -2.54282,-0.72983c-0.80676,-0.44189 -1.50784,-1.01282 -2.42136,-1.174c-0.91235,-0.16098 -1.59579,-0.11476 -2.26917,-0.12018c-1.1973,-0.00963 -2.1893,0.01135 -3.13333,-0.168c-0.79025,-0.15013 -1.60141,-0.38019 -2.5,-0.83333c-0.69827,-0.35213 -1.47632,-1.04463 -2.17999,-1.38933c-0.59738,-0.29262 -1.83826,-0.52115 -2.37866,-0.59601c-0.82355,-0.11407 -1.87775,-0.41969 -2.53867,-0.87599c-0.65802,-0.4543 -1.61224,-1.29291 -2.21518,-1.597c-0.96826,-0.48836 -1.68893,-0.53871 -2.56351,-0.763c-0.96582,-0.24768 -1.68753,-0.50232 -2.64749,-0.726c-0.97473,-0.22711 -1.65375,-0.49509 -2.27148,-0.75717c-0.95535,-0.4053 -1.74585,-0.7079 -2.5285,-0.93834c-1.03195,-0.30385 -1.89536,-0.43306 -2.67151,-0.70982c-0.80301,-0.28633 -1.75858,-0.53575 -2.56366,-0.62201c-0.82101,-0.08797 -1.85825,-0.23074 -2.75385,-0.52533c-0.62323,-0.205 -1.6394,-0.33788 -2.53549,-0.584c-0.89609,-0.24612 -1.63718,-0.94244 -2.35333,-1.32668c-0.69458,-0.37267 -1.6297,-0.76157 -2.384,-1.07199c-0.82153,-0.33809 -1.66953,-0.66299 -2.09,-0.8075c-1.15158,-0.39577 -2.09692,-0.53047 -2.98734,-0.75801c-0.944,-0.24123 -1.46753,-0.73091 -2.21368,-1.27316c-0.71692,-0.52101 -1.25592,-0.89514 -2.457,-1.51199c-0.58841,-0.3022 -1.48181,-0.63899 -2.31467,-0.96533c-1.00327,-0.39311 -1.66577,-0.6987 -2.28398,-1.00134c-1.00345,-0.49123 -1.78946,-0.88765 -2.60133,-1.07883c-0.79088,-0.18623 -1.81534,-0.43083 -2.40001,-0.82651c-0.82289,-0.5569 -1.59125,-1.08617 -2.39999,-1.27383c-0.99109,-0.22998 -1.78589,-0.48842 -2.60001,-0.73683c-0.78717,-0.24019 -1.74663,-0.20515 -2.64732,-0.2885c-0.92957,-0.08603 -1.59161,-0.4254 -2.354,-0.79683c-1.00713,-0.49065 -1.62566,-0.82033 -2.56534,-1.19867c-0.77895,-0.31363 -1.59698,-0.61179 -2.66666,-0.83333c-0.70367,-0.14574 -1.58026,-0.15155 -2.56534,-0.45067c-0.78336,-0.23787 -1.58304,-0.58148 -2.41116,-0.76868c-0.96175,-0.21741 -1.70705,-0.42758 -2.42216,-0.74866c-0.97987,-0.43996 -1.7554,-1.11363 -2.56801,-1.19734c-0.89526,-0.09221 -1.76399,-0.00133 -2.64284,-0.00133c-0.909,0 -1.85402,0.14845 -2.65717,-0.22133c-0.77859,-0.35847 -1.49995,-0.77333 -2.39999,-0.77867c-0.89998,-0.00533 -1.8,0 -2.7,0c-0.89984,0 -1.75462,0.1248 -2.41068,0.57466c-0.72586,0.49773 -1.69263,0.34964 -2.59067,0.42667c-0.97581,0.08369 -1.58981,0.52153 -2.63199,0.832c-0.77362,0.23047 -1.66521,0.05646 -2.51401,0.22383c-0.92238,0.18187 -1.37329,0.98734 -1.73666,1.74284c-0.35498,0.73805 -1.39868,1.14796 -2.12666,1.18933c-0.98746,0.05611 -1.86378,-0.19618 -2.6795,0.36333c-0.67667,0.46413 -1.10567,1.375 -1.81967,1.59016c-0.77499,0.23355 -1.90584,0.04253 -2.69016,0.48251c-0.72702,0.40785 -1.13176,0.71452 -0.51601,1.29066c0.68776,0.64351 1.35249,1.214 2.06534,1.27333c1.01389,0.08438 2.00414,-0.17067 2.85066,0.17734c0.67108,0.27589 1.44319,0.71828 2.3,1.18599c0.74533,0.40685 1.60277,0.30263 2.41466,0.73267c0.8578,0.45436 1.35329,0.77606 2.18001,1.26733c0.75633,0.44945 1.53741,0.64427 2.22133,1.21533c0.59328,0.49538 1.36975,1.25623 2.05867,1.44667c0.94247,0.26053 1.59587,0.81769 2.52533,0.98083c0.85193,0.14954 1.17915,0.84528 1.82083,1.48367c0.64714,0.64384 1.66348,0.64786 2.3045,0.95683c1.0405,0.50151 1.57498,1.21455 2.37466,1.47867c0.85843,0.28352 1.84251,-0.10042 2.60001,0.17065c0.90111,0.32246 1.32603,1.21457 2,1.62933c0.77077,0.47433 1.69635,0.84093 2.2,1.30617c0.85493,0.78973 1.3293,1.40421 2.16667,1.97917c0.63832,0.43831 1.4272,0.74908 2.42433,0.94733c0.8331,0.16563 1.36913,0.76315 2.11433,1.34818c0.65984,0.51801 1.63951,0.6198 2.26933,1.12984c0.6161,0.49893 1.29674,0.97878 2.192,1.57466c0.63693,0.42393 1.44873,0.49121 2.29166,1c0.69115,0.41718 1.30672,0.9624 2.04167,1.52083c0.66391,0.50446 1.42839,0.97131 2.14284,1.53185c0.63086,0.49495 1.15039,1.13905 1.78915,1.74733c0.6958,0.6626 1.3698,0.83673 2.132,1.23599c0.75832,0.39722 1.36783,0.57097 2.15067,1.04933c0.80324,0.49083 0.96199,1.48344 1.72134,1.87868c0.76308,0.39717 1.99423,-0.22945 2.50682,0.38866c0.53891,0.64984 0.77318,1.44867 1.10983,2.29018l0.65184,0.40984" id="svg_5" stroke-width="2" stroke="#000" fill="none"/>
  <path t="26044,26139,26140,26148,26156,26156,26172,26188,26188,26197,26197,26204,26220,26236,26236,26244,26252,26252,26260,26268,26276,26276,26284,26292,26307,26316,26324,26340,26340,26348,26364,26364,26371,26381,26388,26397,26404,26412,26412,26412,26420,26420,26428,26428,26436,26444,26444,26452,26452,26460,26460,26468,26468,26476,26484,26502,26516,26516,26556,26572,26580,26588,26604,26612,26628,26651,26651,26675,26692,26716,26795,26844,26884,26924,26956,26956,27004,27044,27060" d="m203.51137,281.09091c1,0 1.8,0 2.75717,0c0.89549,0 1.59016,0 2.61749,0c0.94684,0 1.83609,-0.0134 2.825,0.00015c0.75888,0.01041 1.34366,0.51212 1.96701,0.99985c0.6693,0.52368 1.48695,0.80075 2.35416,0.97916c0.94363,0.19412 1.65384,0.02084 2.722,0.02084c0.85718,0 1.75717,0 2.55717,0c0.89999,0 1.85989,-0.0304 2.636,0.42532c0.78236,0.45941 1.664,0.57468 2.564,0.57468c0.8,0 1.636,0 2.48399,0c0.86334,0 1.88,-0.0007 2.81601,0c0.89867,0.00067 1.3718,0.54968 2.06616,0.94284c0.84308,0.47736 1.63916,0.05716 2.62849,0.05716c1.03601,0 1.75459,-0.03998 2.658,0.00449c0.86607,0.0426 1.66502,0.56702 2.66867,0.87402c0.65608,0.20068 1.65733,0.12149 2.43134,0.12149c0.9045,0 1.84866,0 2.84283,0c0.74733,0 1.76849,0 2.60449,0c0.90001,0 1.8,0 2.60001,0c1.03333,0 1.81067,0 2.7,0c0.89999,0 1.8,0 2.7,0c0.89999,0 1.79999,0 2.60001,0c0.89999,0 1.79999,0 2.76401,0c0.87198,0 1.73599,0 2.63599,0c0.89999,0 1.79999,0 2.60001,0l0.89999,0l0.89999,0l0.89999,0" id="svg_6" stroke-width="20" stroke="#fff" fill="none"/>
  <path t="30196,30379,30388,30403,30421,30435,30459,30491,30508,30524,30571,30595,30604,30635,30675,30684,30739,30755,30779,30803,30843,30851,30851,30875,30899,30915,30925,30963,30995,31019,31019,31067" d="m202.51137,281.09091c1.61067,0 2.43805,-0.16281 3.05266,-0.64734c0.64946,-0.51199 1.6474,-0.34198 2.54735,-0.35266c0.87935,-0.01044 1.33659,-0.77481 2.10449,-0.99551c0.86067,-0.24738 1.77112,-0.12311 2.34816,-0.65182c0.69131,-0.63342 1.18507,-1.14536 2.04718,-1.35281c0.84013,-0.20218 1.25603,-0.97125 2.20016,-0.99985c0.89958,-0.02725 1.8,0 2.7,0c0.8,0 1.72708,0.18604 2.60001,-0.03601c0.85295,-0.21698 0.99973,-1.30002 1.62149,-1.8425c0.66827,-0.58304 1.7785,-0.12149 2.57851,-0.12149l0.89999,0" id="svg_7" stroke-width="2" stroke="#000" fill="none"/>
  <path t="31779,32019,32019,32035,32043,32051,32067,32075,32083,32091,32115,32115,32123,32155,32163,32171,32187,32195,32211,32228,32228,32235,32243,32259,32275,32283,32291,32307,32323,32340,32340,32364,32379,32395,32411,32419,32443,32451,32459,32459,32467,32475,32483,32499,32507,32531,32531,32547,32579,32595,32619,32628,32659,32691,32844,32844,32852" d="m222.51137,294.09091c1.70984,0 2.59064,0.34387 3.45833,-0.02084c0.73068,-0.30713 1.24615,-0.9769 2.14168,-0.97916c0.89999,-0.00226 1.80815,0.11652 2.7,-0.00449c0.82135,-0.11142 1.46658,-0.84723 2.34283,-0.99103c0.86641,-0.14218 1.77454,-0.09396 2.38249,-0.57916c0.6245,-0.49838 1.57468,-0.42532 2.4955,-0.42532c0.96317,0 1.65384,0 2.722,0c0.85718,0 1.75717,0 2.63583,0c0.82584,0 1.79411,0.05508 2.4785,-0.35266c0.78189,-0.46582 1.64284,-0.64734 2.44284,-0.64734c0.89999,0 1.8,0 2.7,0c0.89999,0 1.7955,0 2.7215,0c0.87851,0 1.7785,0 2.57851,0c0.89999,0 1.79999,0 2.69998,0c0.90002,0 1.85666,0.13657 2.70001,-0.284c0.66165,-0.32993 1.51468,-0.71533 2.41068,-0.716c0.88931,-0.00067 1.78934,0 2.68933,0c0.89999,0 1.79999,0 2.69998,0l0.80002,0l0.89999,0" id="svg_8" stroke-width="2" stroke="#000" fill="none"/>
  <path t="34756,34916,34916,34932,34948,34980,35012,35068,35132,35141,35141,35160,35164,35180,35196,35212,35228,35244,35261,35284,35308,35324,35364,35364,35380,35393,35404,35428,35460,35484,35524,35548,35548,35580,35620,35628,35660,35668,35676,35708,35732,35740,35772,35812,35812,35828,35852,35884,35892,35916,35940,35972,35988,36012,36052" d="m333.51135,293.09091c-1,0 -1.79999,0 -2.69998,0c-0.89999,0 -1.80002,0 -2.70001,0c-0.89999,0 -1.87961,-0.20914 -2.69983,0.2215c-0.64343,0.33783 -1.1088,1.16251 -1.61615,1.86249c-0.51596,0.71182 -0.28403,1.62051 -0.28403,2.51602c0,0.89999 0,1.79999 0,2.6955c0,0.98849 0.35049,1.42145 0.91602,1.98984c0.61368,0.61679 0.83093,1.57559 1.48401,2.104c0.74371,0.60175 1.33789,1.22086 2.03598,1.57465c0.77136,0.39093 1.76401,0.03601 2.664,0.03601c0.89999,0 1.70001,0 2.73334,0c0.77734,0 1.91934,0.05319 2.16217,-0.7045c0.2626,-0.8194 0.5535,-1.50989 1.17117,-2.12885c0.61734,-0.61862 0.83331,-1.36533 0.83331,-2.21933c0,-0.94733 0,-1.74731 0,-2.64734c0,-0.89999 0.00226,-1.79999 0,-2.69998c-0.00226,-0.89551 -0.42532,-1.57468 -1,-2.10001l-0.64731,-0.55267l-0.43668,-0.66333l-0.91602,-0.284" id="svg_9" stroke-width="2" stroke="#000" fill="none"/>
  <path t="36789,36916,36949,36964,36964,36972,36981,36996,37020,37036,37068,37076,37124,37140,37148,37156,37172,37188,37204,37212,37228,37252,37252,37276,37300,37308,37316,37324,37348,37357,37396,37420,37476,37508,37516,37540,37564,37580,37580,37612,37636,37644,37700,37716,37764,37773,37789,37807,37820,37852,37892,37900,37948,37988,37988,37997,38036,38052,38076" d="m312.51135,291.09091c-1.2215,-0.87851 -2.09998,-1 -3,-1c-0.79999,0 -1.69998,0 -2.59998,0c-0.90002,0 -1.80002,-0.00006 -2.6955,0c-0.92584,0.00009 -1.48175,0.37979 -1.70468,1.22134c-0.20667,0.78012 -1.07742,1.20474 -1.57449,1.80399c-0.5101,0.61496 -0.26013,1.59387 -0.44617,2.47467c-0.17899,0.84738 -0.9183,1.59387 -0.97919,2.5c-0.05078,0.75546 -0.01273,1.64825 0,2.66666c0.01044,0.83353 0.72244,0.91907 1.56403,1.36935c0.63037,0.33728 0.37787,1.73257 1.1405,1.9595c0.82382,0.24512 1.81631,0.00449 2.6955,0.00449c0.89999,0 1.79999,0 2.69998,0c0.89999,0 1.70001,0 2.60001,0c0.89999,0 1.70627,-0.09637 2.35266,-0.64734c0.6044,-0.51517 0.94733,-1.35266 0.94733,-2.186c0,-0.87115 0,-1.76666 0,-2.66666c0,-0.89999 0,-1.79999 0,-2.70001c0,-0.89999 0,-1.79999 0,-2.59998c0,-0.84283 -0.03598,-1.77469 -0.7045,-2.19553l-0.89548,-0.00449" id="svg_10" stroke-width="2" stroke="#000" fill="none"/>
 </g>
 <g display="none">
  <title>muse_image</title>
  <image xlink:href="http://farm4.static.flickr.com/3013/2661847151_b4e84393cc.jpg" id="muse" height="424" width="640" y="28" x="0"/>
 </g>
 <g display="none">
  <title>bbox</title>
  <rect stroke="#f00" fill="none" stroke-width="3" height="164.74699" width="576" y="156.98795" x="30.72" id="bbox"/>
 </g>
</svg>
